<svg version="1.1" xmlns="http://www.w3.org/2000/svg" viewBox="0 0 1333.9715391196403 1377.3928510677106" width="1333.9715391196403" height="1377.3928510677106" class="excalidraw-svg">
  <!-- svg-source:excalidraw -->
  
  <defs>
    <style class="style-fonts">
      
    </style>
    
  </defs>
  <rect x="0" y="0" width="1333.9715391196403" height="1377.3928510677106" fill="#000000"></rect><g stroke-linecap="round"><g transform="translate(689.1582048312182 1274.0727457215908) rotate(0 -43.6144445467462 -559.1917647520368)"><path d="M0 0 C-17.96 0, -80.73 0, -107.73 0 C-134.74 0, -150.14 0, -162.03 0 C-173.93 0, -175.54 1.22, -179.08 0 C-182.62 -1.22, -182.33 -2.31, -183.28 -7.34 C-184.24 -12.36, -184.6 -19.88, -184.81 -30.13 C-185.01 -40.38, -184.71 -53.37, -184.51 -68.85 C-184.31 -84.33, -183.56 -107.45, -183.62 -123.03 C-183.69 -138.61, -184.33 -151.63, -184.9 -162.33 C-185.48 -173.03, -184.18 -182.85, -187.06 -187.23 C-189.93 -191.6, -192.77 -189.34, -202.16 -188.57 C-211.55 -187.81, -229.38 -184.11, -243.4 -182.66 C-257.43 -181.2, -273.1 -179.16, -286.3 -179.83 C-299.5 -180.51, -309.65 -182.98, -322.59 -186.68 C-335.52 -190.37, -351.73 -195.66, -363.91 -202 C-376.09 -208.34, -386.43 -216.53, -395.66 -224.73 C-404.89 -232.92, -412.18 -240.19, -419.29 -251.18 C-426.41 -262.18, -432.08 -277.97, -438.36 -290.68 C-444.63 -303.4, -450.37 -316.59, -456.94 -327.49 C-463.5 -338.38, -470.46 -347.5, -477.74 -356.07 C-485.03 -364.64, -492.43 -372.17, -500.64 -378.92 C-508.85 -385.66, -521.49 -390.13, -527 -396.52 C-532.51 -402.91, -535.95 -413.63, -533.71 -417.25 C-531.47 -420.87, -522.2 -418.25, -513.57 -418.24 C-504.95 -418.23, -491.6 -419.48, -481.96 -417.19 C-472.32 -414.9, -464.72 -410.24, -455.76 -404.52 C-446.8 -398.8, -436.13 -390.83, -428.22 -382.85 C-420.31 -374.88, -414.52 -364.96, -408.3 -356.66 C-402.08 -348.35, -397.77 -341.17, -390.88 -333.02 C-384 -324.88, -374.63 -315.06, -367 -307.78 C-359.37 -300.51, -352.7 -294.4, -345.11 -289.35 C-337.51 -284.31, -329.76 -280.52, -321.44 -277.53 C-313.12 -274.55, -305.7 -272.73, -295.18 -271.44 C-284.67 -270.15, -271.16 -269.03, -258.35 -269.79 C-245.54 -270.56, -230.65 -272.86, -218.33 -276.06 C-206.01 -279.26, -191.46 -282.39, -184.41 -288.99 C-177.36 -295.59, -178.69 -307.98, -176.04 -315.64 C-173.4 -323.3, -171.56 -327.65, -168.56 -334.95 C-165.56 -342.25, -162.64 -352.64, -158.02 -359.42 C-153.41 -366.19, -143.86 -370.16, -140.87 -375.61 C-137.89 -381.05, -136.64 -388.25, -140.11 -392.07 C-143.58 -395.89, -153.88 -397.48, -161.69 -398.53 C-169.51 -399.58, -178.51 -397.26, -186.98 -398.37 C-195.45 -399.49, -200.72 -402.38, -212.51 -405.23 C-224.29 -408.08, -242.29 -410.86, -257.71 -415.46 C-273.13 -420.06, -290.36 -426.17, -305.02 -432.84 C-319.69 -439.52, -332.51 -446.57, -345.69 -455.51 C-358.87 -464.45, -373.37 -475.69, -384.12 -486.47 C-394.87 -497.26, -402.13 -507.45, -410.19 -520.24 C-418.24 -533.04, -425.98 -548.14, -432.45 -563.24 C-438.92 -578.34, -444.22 -593.41, -449 -610.84 C-453.78 -628.26, -458.36 -648.01, -461.14 -667.8 C-463.92 -687.6, -465.12 -711.64, -465.68 -729.61 C-466.23 -747.58, -466.91 -757.82, -464.45 -775.61 C-461.99 -793.41, -457.62 -816.99, -450.91 -836.38 C-444.21 -855.77, -433.3 -877.22, -424.23 -891.96 C-415.17 -906.7, -401.38 -915.58, -396.53 -924.83 C-391.68 -934.08, -394.34 -941.68, -395.12 -947.47 C-395.91 -953.26, -399.79 -951.96, -401.24 -959.56 C-402.7 -967.15, -403.24 -980.06, -403.87 -993.05 C-404.5 -1006.04, -405.63 -1024.87, -405.01 -1037.5 C-404.4 -1050.13, -402.46 -1055.14, -400.19 -1068.83 C-397.92 -1082.52, -395.49 -1111.06, -391.39 -1119.66 C-387.29 -1128.25, -384.41 -1121.14, -375.61 -1120.38 C-366.81 -1119.63, -350.66 -1117.95, -338.58 -1115.13 C-326.5 -1112.3, -314.94 -1107.79, -303.12 -1103.46 C-291.3 -1099.13, -279.55 -1094.66, -267.65 -1089.15 C-255.75 -1083.63, -242.72 -1076.74, -231.73 -1070.35 C-220.73 -1063.96, -210.64 -1055.21, -201.68 -1050.79 C-192.72 -1046.37, -186.42 -1043.95, -177.98 -1043.81 C-169.54 -1043.66, -162.84 -1047.49, -151.02 -1049.89 C-139.2 -1052.3, -123.23 -1056.26, -107.05 -1058.24 C-90.86 -1060.21, -71.17 -1060.54, -53.9 -1061.77 C-36.63 -1062.99, -20.7 -1065.12, -3.42 -1065.61 C13.86 -1066.1, 31.75 -1066.15, 49.78 -1064.72 C67.8 -1063.28, 86.02 -1060.63, 104.75 -1056.99 C123.47 -1053.35, 146.78 -1043.06, 162.12 -1042.89 C177.45 -1042.71, 184.32 -1049.73, 196.76 -1055.93 C209.19 -1062.13, 224.06 -1073.27, 236.72 -1080.09 C249.39 -1086.91, 259.76 -1091.4, 272.75 -1096.87 C285.75 -1102.33, 302.59 -1109.43, 314.71 -1112.87 C326.83 -1116.31, 336.42 -1116.78, 345.46 -1117.51 C354.5 -1118.25, 364.02 -1120.71, 368.96 -1117.3 C373.91 -1113.89, 372.5 -1106.8, 375.15 -1097.06 C377.81 -1087.32, 382.68 -1072.16, 384.9 -1058.85 C387.11 -1045.54, 388.11 -1030.31, 388.44 -1017.21 C388.78 -1004.1, 388.62 -991.58, 386.9 -980.21 C385.17 -968.84, 381.05 -957.21, 378.11 -948.99 C375.16 -940.77, 368.22 -936.38, 369.21 -930.88 C370.21 -925.39, 378.92 -921.62, 384.08 -916.04 C389.25 -910.45, 394.17 -906.14, 400.19 -897.37 C406.22 -888.59, 414.24 -874.99, 420.22 -863.39 C426.2 -851.79, 432.31 -839.94, 436.08 -827.76 C439.84 -815.58, 441.06 -804.35, 442.8 -790.31 C444.53 -776.27, 446.16 -762.69, 446.48 -743.5 C446.81 -724.32, 446.95 -696.74, 444.75 -675.22 C442.54 -653.7, 440.09 -636.2, 433.26 -614.4 C426.42 -592.6, 416.05 -565.9, 403.73 -544.43 C391.41 -522.95, 374.62 -501.3, 359.33 -485.56 C344.04 -469.83, 329.29 -460.57, 311.99 -450.03 C294.7 -439.48, 279.17 -430.5, 255.55 -422.28 C231.94 -414.06, 193.67 -405.5, 170.31 -400.68 C146.95 -395.87, 123.25 -396.79, 115.38 -393.38 C107.51 -389.97, 118.59 -386.26, 123.08 -380.22 C127.58 -374.17, 136.75 -366.28, 142.36 -357.13 C147.97 -347.98, 153.18 -336.67, 156.75 -325.31 C160.32 -313.94, 162.7 -306.97, 163.78 -288.94 C164.87 -270.9, 163.36 -241.65, 163.25 -217.11 C163.14 -192.57, 162.62 -169.11, 163.11 -141.69 C163.59 -114.26, 165.42 -74.25, 166.17 -52.56 C166.91 -30.87, 167.41 -20.64, 167.58 -11.54 C167.75 -2.45, 170.43 -0.07, 167.18 2 C163.93 4.07, 153.99 1.05, 148.08 0.89 C142.18 0.72, 145.01 1.04, 131.73 1.01 C118.45 0.97, 90.37 0.85, 68.42 0.68 C46.46 0.51, 11.4 0.11, 0 0 M0 0 C-17.96 0, -80.73 0, -107.73 0 C-134.74 0, -150.14 0, -162.03 0 C-173.93 0, -175.54 1.22, -179.08 0 C-182.62 -1.22, -182.33 -2.31, -183.28 -7.34 C-184.24 -12.36, -184.6 -19.88, -184.81 -30.13 C-185.01 -40.38, -184.71 -53.37, -184.51 -68.85 C-184.31 -84.33, -183.56 -107.45, -183.62 -123.03 C-183.69 -138.61, -184.33 -151.63, -184.9 -162.33 C-185.48 -173.03, -184.18 -182.85, -187.06 -187.23 C-189.93 -191.6, -192.77 -189.34, -202.16 -188.57 C-211.55 -187.81, -229.38 -184.11, -243.4 -182.66 C-257.43 -181.2, -273.1 -179.16, -286.3 -179.83 C-299.5 -180.51, -309.65 -182.98, -322.59 -186.68 C-335.52 -190.37, -351.73 -195.66, -363.91 -202 C-376.09 -208.34, -386.43 -216.53, -395.66 -224.73 C-404.89 -232.92, -412.18 -240.19, -419.29 -251.18 C-426.41 -262.18, -432.08 -277.97, -438.36 -290.68 C-444.63 -303.4, -450.37 -316.59, -456.94 -327.49 C-463.5 -338.38, -470.46 -347.5, -477.74 -356.07 C-485.03 -364.64, -492.43 -372.17, -500.64 -378.92 C-508.85 -385.66, -521.49 -390.13, -527 -396.52 C-532.51 -402.91, -535.95 -413.63, -533.71 -417.25 C-531.47 -420.87, -522.2 -418.25, -513.57 -418.24 C-504.95 -418.23, -491.6 -419.48, -481.96 -417.19 C-472.32 -414.9, -464.72 -410.24, -455.76 -404.52 C-446.8 -398.8, -436.13 -390.83, -428.22 -382.85 C-420.31 -374.88, -414.52 -364.96, -408.3 -356.66 C-402.08 -348.35, -397.77 -341.17, -390.88 -333.02 C-384 -324.88, -374.63 -315.06, -367 -307.78 C-359.37 -300.51, -352.7 -294.4, -345.11 -289.35 C-337.51 -284.31, -329.76 -280.52, -321.44 -277.53 C-313.12 -274.55, -305.7 -272.73, -295.18 -271.44 C-284.67 -270.15, -271.16 -269.03, -258.35 -269.79 C-245.54 -270.56, -230.65 -272.86, -218.33 -276.06 C-206.01 -279.26, -191.46 -282.39, -184.41 -288.99 C-177.36 -295.59, -178.69 -307.98, -176.04 -315.64 C-173.4 -323.3, -171.56 -327.65, -168.56 -334.95 C-165.56 -342.25, -162.64 -352.64, -158.02 -359.42 C-153.41 -366.19, -143.86 -370.16, -140.87 -375.61 C-137.89 -381.05, -136.64 -388.25, -140.11 -392.07 C-143.58 -395.89, -153.88 -397.48, -161.69 -398.53 C-169.51 -399.58, -178.51 -397.26, -186.98 -398.37 C-195.45 -399.49, -200.72 -402.38, -212.51 -405.23 C-224.29 -408.08, -242.29 -410.86, -257.71 -415.46 C-273.13 -420.06, -290.36 -426.17, -305.02 -432.84 C-319.69 -439.52, -332.51 -446.57, -345.69 -455.51 C-358.87 -464.45, -373.37 -475.69, -384.12 -486.47 C-394.87 -497.26, -402.13 -507.45, -410.19 -520.24 C-418.24 -533.04, -425.98 -548.14, -432.45 -563.24 C-438.92 -578.34, -444.22 -593.41, -449 -610.84 C-453.78 -628.26, -458.36 -648.01, -461.14 -667.8 C-463.92 -687.6, -465.12 -711.64, -465.68 -729.61 C-466.23 -747.58, -466.91 -757.82, -464.45 -775.61 C-461.99 -793.41, -457.62 -816.99, -450.91 -836.38 C-444.21 -855.77, -433.3 -877.22, -424.23 -891.96 C-415.17 -906.7, -401.38 -915.58, -396.53 -924.83 C-391.68 -934.08, -394.34 -941.68, -395.12 -947.47 C-395.91 -953.26, -399.79 -951.96, -401.24 -959.56 C-402.7 -967.15, -403.24 -980.06, -403.87 -993.05 C-404.5 -1006.04, -405.63 -1024.87, -405.01 -1037.5 C-404.4 -1050.13, -402.46 -1055.14, -400.19 -1068.83 C-397.92 -1082.52, -395.49 -1111.06, -391.39 -1119.66 C-387.29 -1128.25, -384.41 -1121.14, -375.61 -1120.38 C-366.81 -1119.63, -350.66 -1117.95, -338.58 -1115.13 C-326.5 -1112.3, -314.94 -1107.79, -303.12 -1103.46 C-291.3 -1099.13, -279.55 -1094.66, -267.65 -1089.15 C-255.75 -1083.63, -242.72 -1076.74, -231.73 -1070.35 C-220.73 -1063.96, -210.64 -1055.21, -201.68 -1050.79 C-192.72 -1046.37, -186.42 -1043.95, -177.98 -1043.81 C-169.54 -1043.66, -162.84 -1047.49, -151.02 -1049.89 C-139.2 -1052.3, -123.23 -1056.26, -107.05 -1058.24 C-90.86 -1060.21, -71.17 -1060.54, -53.9 -1061.77 C-36.63 -1062.99, -20.7 -1065.12, -3.42 -1065.61 C13.86 -1066.1, 31.75 -1066.15, 49.78 -1064.72 C67.8 -1063.28, 86.02 -1060.63, 104.75 -1056.99 C123.47 -1053.35, 146.78 -1043.06, 162.12 -1042.89 C177.45 -1042.71, 184.32 -1049.73, 196.76 -1055.93 C209.19 -1062.13, 224.06 -1073.27, 236.72 -1080.09 C249.39 -1086.91, 259.76 -1091.4, 272.75 -1096.87 C285.75 -1102.33, 302.59 -1109.43, 314.71 -1112.87 C326.83 -1116.31, 336.42 -1116.78, 345.46 -1117.51 C354.5 -1118.25, 364.02 -1120.71, 368.96 -1117.3 C373.91 -1113.89, 372.5 -1106.8, 375.15 -1097.06 C377.81 -1087.32, 382.68 -1072.16, 384.9 -1058.85 C387.11 -1045.54, 388.11 -1030.31, 388.44 -1017.21 C388.78 -1004.1, 388.62 -991.58, 386.9 -980.21 C385.17 -968.84, 381.05 -957.21, 378.11 -948.99 C375.16 -940.77, 368.22 -936.38, 369.21 -930.88 C370.21 -925.39, 378.92 -921.62, 384.08 -916.04 C389.25 -910.45, 394.17 -906.14, 400.19 -897.37 C406.22 -888.59, 414.24 -874.99, 420.22 -863.39 C426.2 -851.79, 432.31 -839.94, 436.08 -827.76 C439.84 -815.58, 441.06 -804.35, 442.8 -790.31 C444.53 -776.27, 446.16 -762.69, 446.48 -743.5 C446.81 -724.32, 446.95 -696.74, 444.75 -675.22 C442.54 -653.7, 440.09 -636.2, 433.26 -614.4 C426.42 -592.6, 416.05 -565.9, 403.73 -544.43 C391.41 -522.95, 374.62 -501.3, 359.33 -485.56 C344.04 -469.83, 329.29 -460.57, 311.99 -450.03 C294.7 -439.48, 279.17 -430.5, 255.55 -422.28 C231.94 -414.06, 193.67 -405.5, 170.31 -400.68 C146.95 -395.87, 123.25 -396.79, 115.38 -393.38 C107.51 -389.97, 118.59 -386.26, 123.08 -380.22 C127.58 -374.17, 136.75 -366.28, 142.36 -357.13 C147.97 -347.98, 153.18 -336.67, 156.75 -325.31 C160.32 -313.94, 162.7 -306.97, 163.78 -288.94 C164.87 -270.9, 163.36 -241.65, 163.25 -217.11 C163.14 -192.57, 162.62 -169.11, 163.11 -141.69 C163.59 -114.26, 165.42 -74.25, 166.17 -52.56 C166.91 -30.87, 167.41 -20.64, 167.58 -11.54 C167.75 -2.45, 170.43 -0.07, 167.18 2 C163.93 4.07, 153.99 1.05, 148.08 0.89 C142.18 0.72, 145.01 1.04, 131.73 1.01 C118.45 0.97, 90.37 0.85, 68.42 0.68 C46.46 0.51, 11.4 0.11, 0 0" stroke="#E1E1E1" stroke-width="2" fill="none"></path></g></g><mask></mask><g stroke-linecap="round" transform="translate(10 10) rotate(0 656.9857695598201 678.6964255338553)"><path d="M0 0 C352.14 0, 704.28 0, 1313.97 0 M0 0 C275.63 0, 551.26 0, 1313.97 0 M1313.97 0 C1313.97 354.17, 1313.97 708.34, 1313.97 1357.39 M1313.97 0 C1313.97 310.99, 1313.97 621.99, 1313.97 1357.39 M1313.97 1357.39 C903.77 1357.39, 493.57 1357.39, 0 1357.39 M1313.97 1357.39 C971.92 1357.39, 629.87 1357.39, 0 1357.39 M0 1357.39 C0 823.04, 0 288.7, 0 0 M0 1357.39 C0 1029.28, 0 701.17, 0 0" stroke="#6327D3" stroke-width="4" fill="none"></path></g></svg>