<svg version="1.1" xmlns="http://www.w3.org/2000/svg" viewBox="0 0 2127.688810488532 2134.49277257542" width="2127.688810488532" height="2134.49277257542" class="excalidraw-svg"><!-- svg-source:excalidraw --><metadata></metadata><defs><style class="style-fonts">
      </style></defs><rect x="0" y="0" width="2127.688810488532" height="2134.49277257542" fill="#000000"></rect><g stroke-linecap="round"><g transform="translate(1739.3258655781374 711.7095475255255) rotate(0 -637.4157127166449 371.1245173543795)" fill-rule="evenodd"><path d="M0 0 C0 15.65, 0 64.97, 0 93.88 C0 122.79, 0 153.11, 0 173.46 C0 193.81, 0.19 204.09, 0 215.98 C-0.19 227.88, 4.21 240.51, -1.15 244.84 C-6.51 249.17, -12.74 244.6, -32.15 241.98 C-51.56 239.36, -88.77 235.61, -117.61 229.1 C-146.46 222.6, -178.51 212.16, -205.2 202.96 C-231.89 193.76, -254.25 185.32, -277.74 173.9 C-301.23 162.47, -334.47 135.61, -346.16 134.4 C-357.85 133.19, -347.58 134.12, -347.86 166.63 C-348.15 199.15, -347.86 290.45, -347.86 329.48 C-347.86 368.52, -347.86 368.59, -347.86 400.82 C-347.86 433.06, -347.47 482.12, -347.86 522.89 C-348.26 563.66, -347.52 605.42, -350.26 645.43 C-353 685.45, -357.35 730.42, -364.29 762.98 C-371.22 795.53, -380.39 815.99, -391.88 840.78 C-403.37 865.58, -416.91 889.52, -433.22 911.74 C-449.53 933.96, -468.59 954.61, -489.74 974.1 C-510.88 993.59, -537.25 1013.01, -560.09 1028.67 C-582.93 1044.33, -604.24 1057.48, -626.77 1068.04 C-649.3 1078.61, -671.57 1086.94, -695.28 1092.06 C-718.99 1097.18, -742.95 1096.94, -769.05 1098.77 C-795.15 1100.61, -825.02 1104.22, -851.88 1103.07 C-878.74 1101.91, -906.38 1097.4, -930.21 1091.85 C-954.04 1086.3, -972.83 1080.6, -994.87 1069.77 C-1016.92 1058.94, -1042.15 1040.86, -1062.48 1026.86 C-1082.82 1012.86, -1098.23 1002.96, -1116.87 985.76 C-1135.52 968.56, -1157.41 944.78, -1174.36 923.67 C-1191.31 902.56, -1205.76 881.01, -1218.6 859.07 C-1231.44 837.14, -1243.26 816.11, -1251.39 792.08 C-1259.52 768.05, -1263.48 740.44, -1267.39 714.91 C-1271.29 689.37, -1275.51 667.29, -1274.83 638.87 C-1274.16 610.45, -1270.93 576.65, -1263.34 544.39 C-1255.76 512.14, -1242.61 475.69, -1229.33 445.35 C-1216.06 415.01, -1200.79 386.66, -1183.69 362.36 C-1166.58 338.05, -1148.2 318.69, -1126.69 299.53 C-1105.17 280.36, -1081.52 263.2, -1054.59 247.39 C-1027.66 231.58, -994.62 215.48, -965.11 204.66 C-935.59 193.84, -899.82 186.84, -877.51 182.46 C-855.21 178.08, -846.81 178.92, -831.27 178.38 C-815.73 177.85, -797.29 179.01, -784.28 179.26 C-771.27 179.51, -758.89 174.3, -753.21 179.87 C-747.54 185.45, -751.22 201.05, -750.23 212.69 C-749.24 224.33, -747.75 232.58, -747.25 249.72 C-746.75 266.86, -747.25 290.4, -747.25 315.54 C-747.25 340.69, -747.25 380.97, -747.25 400.58 C-747.25 420.19, -741.41 429.07, -747.25 433.2 C-753.08 437.33, -769.07 426.94, -782.25 425.37 C-795.43 423.8, -809.86 422.2, -826.34 423.77 C-842.82 425.33, -865.72 429.68, -881.11 434.77 C-896.49 439.86, -902.74 443.83, -918.65 454.29 C-934.56 464.76, -962.82 481.41, -976.57 497.57 C-990.32 513.74, -994.27 536.28, -1001.15 551.31 C-1008.04 566.33, -1013.3 573.35, -1017.89 587.72 C-1022.48 602.1, -1028.14 620.02, -1028.68 637.56 C-1029.21 655.11, -1025.9 674.61, -1021.09 693 C-1016.27 711.39, -1009.67 730.57, -999.78 747.91 C-989.89 765.25, -977.41 782.2, -961.75 797.03 C-946.09 811.87, -926.93 827.56, -905.83 836.9 C-884.74 846.23, -860.19 850.72, -835.17 853.03 C-810.15 855.34, -779.04 855.82, -755.71 850.76 C-732.38 845.7, -713.96 834.4, -695.2 822.67 C-676.43 810.94, -656.49 796.72, -643.11 780.39 C-629.74 764.07, -622.85 746.25, -614.94 724.7 C-607.03 703.15, -598.87 680.32, -595.66 651.11 C-592.44 621.89, -595.66 599.55, -595.66 549.39 C-595.66 499.23, -595.66 415.13, -595.66 350.14 C-595.66 285.15, -595.66 225.6, -595.66 159.44 C-595.66 93.29, -595.66 23.57, -595.66 -46.81 C-595.66 -117.2, -595.66 -216.02, -595.66 -262.87 C-595.66 -309.72, -595.66 -312.11, -595.66 -327.89 C-595.66 -343.68, -600.95 -352.11, -595.66 -357.6 C-590.36 -363.08, -584.32 -360.28, -563.87 -360.82 C-543.42 -361.35, -500.84 -360.82, -472.93 -360.82 C-445.02 -360.82, -416.94 -360.82, -396.39 -360.82 C-375.84 -360.82, -357.92 -366.27, -349.63 -360.82 C-341.34 -355.36, -347.94 -341.76, -346.64 -328.08 C-345.34 -314.39, -344.78 -294.16, -341.83 -278.71 C-338.88 -263.26, -335.33 -250.91, -328.95 -235.37 C-322.58 -219.84, -314.23 -203.16, -303.59 -185.5 C-292.94 -167.84, -280.1 -146.7, -265.08 -129.41 C-250.06 -112.12, -233.95 -97.34, -213.46 -81.75 C-192.97 -66.16, -165.42 -46.99, -142.15 -35.86 C-118.89 -24.73, -97.57 -20.95, -73.88 -14.97 C-50.19 -9, -12.31 -2.5, 0 0" stroke="none" stroke-width="0" fill="#e1e1e1" fill-rule="evenodd"></path><path d="M0 0 C0 15.65, 0 64.97, 0 93.88 C0 122.79, 0 153.11, 0 173.46 C0 193.81, 0.19 204.09, 0 215.98 C-0.19 227.88, 4.21 240.51, -1.15 244.84 C-6.51 249.17, -12.74 244.6, -32.15 241.98 C-51.56 239.36, -88.77 235.61, -117.61 229.1 C-146.46 222.6, -178.51 212.16, -205.2 202.96 C-231.89 193.76, -254.25 185.32, -277.74 173.9 C-301.23 162.47, -334.47 135.61, -346.16 134.4 C-357.85 133.19, -347.58 134.12, -347.86 166.63 C-348.15 199.15, -347.86 290.45, -347.86 329.48 C-347.86 368.52, -347.86 368.59, -347.86 400.82 C-347.86 433.06, -347.47 482.12, -347.86 522.89 C-348.26 563.66, -347.52 605.42, -350.26 645.43 C-353 685.45, -357.35 730.42, -364.29 762.98 C-371.22 795.53, -380.39 815.99, -391.88 840.78 C-403.37 865.58, -416.91 889.52, -433.22 911.74 C-449.53 933.96, -468.59 954.61, -489.74 974.1 C-510.88 993.59, -537.25 1013.01, -560.09 1028.67 C-582.93 1044.33, -604.24 1057.48, -626.77 1068.04 C-649.3 1078.61, -671.57 1086.94, -695.28 1092.06 C-718.99 1097.18, -742.95 1096.94, -769.05 1098.77 C-795.15 1100.61, -825.02 1104.22, -851.88 1103.07 C-878.74 1101.91, -906.38 1097.4, -930.21 1091.85 C-954.04 1086.3, -972.83 1080.6, -994.87 1069.77 C-1016.92 1058.94, -1042.15 1040.86, -1062.48 1026.86 C-1082.82 1012.86, -1098.23 1002.96, -1116.87 985.76 C-1135.52 968.56, -1157.41 944.78, -1174.36 923.67 C-1191.31 902.56, -1205.76 881.01, -1218.6 859.07 C-1231.44 837.14, -1243.26 816.11, -1251.39 792.08 C-1259.52 768.05, -1263.48 740.44, -1267.39 714.91 C-1271.29 689.37, -1275.51 667.29, -1274.83 638.87 C-1274.16 610.45, -1270.93 576.65, -1263.34 544.39 C-1255.76 512.14, -1242.61 475.69, -1229.33 445.35 C-1216.06 415.01, -1200.79 386.66, -1183.69 362.36 C-1166.58 338.05, -1148.2 318.69, -1126.69 299.53 C-1105.17 280.36, -1081.52 263.2, -1054.59 247.39 C-1027.66 231.58, -994.62 215.48, -965.11 204.66 C-935.59 193.84, -899.82 186.84, -877.51 182.46 C-855.21 178.08, -846.81 178.92, -831.27 178.38 C-815.73 177.85, -797.29 179.01, -784.28 179.26 C-771.27 179.51, -758.89 174.3, -753.21 179.87 C-747.54 185.45, -751.22 201.05, -750.23 212.69 C-749.24 224.33, -747.75 232.58, -747.25 249.72 C-746.75 266.86, -747.25 290.4, -747.25 315.54 C-747.25 340.69, -747.25 380.97, -747.25 400.58 C-747.25 420.19, -741.41 429.07, -747.25 433.2 C-753.08 437.33, -769.07 426.94, -782.25 425.37 C-795.43 423.8, -809.86 422.2, -826.34 423.77 C-842.82 425.33, -865.72 429.68, -881.11 434.77 C-896.49 439.86, -902.74 443.83, -918.65 454.29 C-934.56 464.76, -962.82 481.41, -976.57 497.57 C-990.32 513.74, -994.27 536.28, -1001.15 551.31 C-1008.04 566.33, -1013.3 573.35, -1017.89 587.72 C-1022.48 602.1, -1028.14 620.02, -1028.68 637.56 C-1029.21 655.11, -1025.9 674.61, -1021.09 693 C-1016.27 711.39, -1009.67 730.57, -999.78 747.91 C-989.89 765.25, -977.41 782.2, -961.75 797.03 C-946.09 811.87, -926.93 827.56, -905.83 836.9 C-884.74 846.23, -860.19 850.72, -835.17 853.03 C-810.15 855.34, -779.04 855.82, -755.71 850.76 C-732.38 845.7, -713.96 834.4, -695.2 822.67 C-676.43 810.94, -656.49 796.72, -643.11 780.39 C-629.74 764.07, -622.85 746.25, -614.94 724.7 C-607.03 703.15, -598.87 680.32, -595.66 651.11 C-592.44 621.89, -595.66 599.55, -595.66 549.39 C-595.66 499.23, -595.66 415.13, -595.66 350.14 C-595.66 285.15, -595.66 225.6, -595.66 159.44 C-595.66 93.29, -595.66 23.57, -595.66 -46.81 C-595.66 -117.2, -595.66 -216.02, -595.66 -262.87 C-595.66 -309.72, -595.66 -312.11, -595.66 -327.89 C-595.66 -343.68, -600.95 -352.11, -595.66 -357.6 C-590.36 -363.08, -584.32 -360.28, -563.87 -360.82 C-543.42 -361.35, -500.84 -360.82, -472.93 -360.82 C-445.02 -360.82, -416.94 -360.82, -396.39 -360.82 C-375.84 -360.82, -357.92 -366.27, -349.63 -360.82 C-341.34 -355.36, -347.94 -341.76, -346.64 -328.08 C-345.34 -314.39, -344.78 -294.16, -341.83 -278.71 C-338.88 -263.26, -335.33 -250.91, -328.95 -235.37 C-322.58 -219.84, -314.23 -203.16, -303.59 -185.5 C-292.94 -167.84, -280.1 -146.7, -265.08 -129.41 C-250.06 -112.12, -233.95 -97.34, -213.46 -81.75 C-192.97 -66.16, -165.42 -46.99, -142.15 -35.86 C-118.89 -24.73, -97.57 -20.95, -73.88 -14.97 C-50.19 -9, -12.31 -2.5, 0 0 M0 0 C0 15.65, 0 64.97, 0 93.88 C0 122.79, 0 153.11, 0 173.46 C0 193.81, 0.19 204.09, 0 215.98 C-0.19 227.88, 4.21 240.51, -1.15 244.84 C-6.51 249.17, -12.74 244.6, -32.15 241.98 C-51.56 239.36, -88.77 235.61, -117.61 229.1 C-146.46 222.6, -178.51 212.16, -205.2 202.96 C-231.89 193.76, -254.25 185.32, -277.74 173.9 C-301.23 162.47, -334.47 135.61, -346.16 134.4 C-357.85 133.19, -347.58 134.12, -347.86 166.63 C-348.15 199.15, -347.86 290.45, -347.86 329.48 C-347.86 368.52, -347.86 368.59, -347.86 400.82 C-347.86 433.06, -347.47 482.12, -347.86 522.89 C-348.26 563.66, -347.52 605.42, -350.26 645.43 C-353 685.45, -357.35 730.42, -364.29 762.98 C-371.22 795.53, -380.39 815.99, -391.88 840.78 C-403.37 865.58, -416.91 889.52, -433.22 911.74 C-449.53 933.96, -468.59 954.61, -489.74 974.1 C-510.88 993.59, -537.25 1013.01, -560.09 1028.67 C-582.93 1044.33, -604.24 1057.48, -626.77 1068.04 C-649.3 1078.61, -671.57 1086.94, -695.28 1092.06 C-718.99 1097.18, -742.95 1096.94, -769.05 1098.77 C-795.15 1100.61, -825.02 1104.22, -851.88 1103.07 C-878.74 1101.91, -906.38 1097.4, -930.21 1091.85 C-954.04 1086.3, -972.83 1080.6, -994.87 1069.77 C-1016.92 1058.94, -1042.15 1040.86, -1062.48 1026.86 C-1082.82 1012.86, -1098.23 1002.96, -1116.87 985.76 C-1135.52 968.56, -1157.41 944.78, -1174.36 923.67 C-1191.31 902.56, -1205.76 881.01, -1218.6 859.07 C-1231.44 837.14, -1243.26 816.11, -1251.39 792.08 C-1259.52 768.05, -1263.48 740.44, -1267.39 714.91 C-1271.29 689.37, -1275.51 667.29, -1274.83 638.87 C-1274.16 610.45, -1270.93 576.65, -1263.34 544.39 C-1255.76 512.14, -1242.61 475.69, -1229.33 445.35 C-1216.06 415.01, -1200.79 386.66, -1183.69 362.36 C-1166.58 338.05, -1148.2 318.69, -1126.69 299.53 C-1105.17 280.36, -1081.52 263.2, -1054.59 247.39 C-1027.66 231.58, -994.62 215.48, -965.11 204.66 C-935.59 193.84, -899.82 186.84, -877.51 182.46 C-855.21 178.08, -846.81 178.92, -831.27 178.38 C-815.73 177.85, -797.29 179.01, -784.28 179.26 C-771.27 179.51, -758.89 174.3, -753.21 179.87 C-747.54 185.45, -751.22 201.05, -750.23 212.69 C-749.24 224.33, -747.75 232.58, -747.25 249.72 C-746.75 266.86, -747.25 290.4, -747.25 315.54 C-747.25 340.69, -747.25 380.97, -747.25 400.58 C-747.25 420.19, -741.41 429.07, -747.25 433.2 C-753.08 437.33, -769.07 426.94, -782.25 425.37 C-795.43 423.8, -809.86 422.2, -826.34 423.77 C-842.82 425.33, -865.72 429.68, -881.11 434.77 C-896.49 439.86, -902.74 443.83, -918.65 454.29 C-934.56 464.76, -962.82 481.41, -976.57 497.57 C-990.32 513.74, -994.27 536.28, -1001.15 551.31 C-1008.04 566.33, -1013.3 573.35, -1017.89 587.72 C-1022.48 602.1, -1028.14 620.02, -1028.68 637.56 C-1029.21 655.11, -1025.9 674.61, -1021.09 693 C-1016.27 711.39, -1009.67 730.57, -999.78 747.91 C-989.89 765.25, -977.41 782.2, -961.75 797.03 C-946.09 811.87, -926.93 827.56, -905.83 836.9 C-884.74 846.23, -860.19 850.72, -835.17 853.03 C-810.15 855.34, -779.04 855.82, -755.71 850.76 C-732.38 845.7, -713.96 834.4, -695.2 822.67 C-676.43 810.94, -656.49 796.72, -643.11 780.39 C-629.74 764.07, -622.85 746.25, -614.94 724.7 C-607.03 703.15, -598.87 680.32, -595.66 651.11 C-592.44 621.89, -595.66 599.55, -595.66 549.39 C-595.66 499.23, -595.66 415.13, -595.66 350.14 C-595.66 285.15, -595.66 225.6, -595.66 159.44 C-595.66 93.29, -595.66 23.57, -595.66 -46.81 C-595.66 -117.2, -595.66 -216.02, -595.66 -262.87 C-595.66 -309.72, -595.66 -312.11, -595.66 -327.89 C-595.66 -343.68, -600.95 -352.11, -595.66 -357.6 C-590.36 -363.08, -584.32 -360.28, -563.87 -360.82 C-543.42 -361.35, -500.84 -360.82, -472.93 -360.82 C-445.02 -360.82, -416.94 -360.82, -396.39 -360.82 C-375.84 -360.82, -357.92 -366.27, -349.63 -360.82 C-341.34 -355.36, -347.94 -341.76, -346.64 -328.08 C-345.34 -314.39, -344.78 -294.16, -341.83 -278.71 C-338.88 -263.26, -335.33 -250.91, -328.95 -235.37 C-322.58 -219.84, -314.23 -203.16, -303.59 -185.5 C-292.94 -167.84, -280.1 -146.7, -265.08 -129.41 C-250.06 -112.12, -233.95 -97.34, -213.46 -81.75 C-192.97 -66.16, -165.42 -46.99, -142.15 -35.86 C-118.89 -24.73, -97.57 -20.95, -73.88 -14.97 C-50.19 -9, -12.31 -2.5, 0 0" stroke="#E1E1E1" stroke-width="2" fill="none"></path></g></g><mask></mask><g stroke-linecap="round" transform="translate(10 9.999999999999943) rotate(0 1053.844405244266 1057.24638628771)"><path d="M0 0 C811.05 0, 1622.11 0, 2107.69 0 M0 0 C657.44 0, 1314.87 0, 2107.69 0 M2107.69 0 C2107.69 799.18, 2107.69 1598.36, 2107.69 2114.49 M2107.69 0 C2107.69 809.81, 2107.69 1619.63, 2107.69 2114.49 M2107.69 2114.49 C1315.37 2114.49, 523.06 2114.49, 0 2114.49 M2107.69 2114.49 C1465.21 2114.49, 822.73 2114.49, 0 2114.49 M0 2114.49 C0 1562.45, 0 1010.42, 0 0 M0 2114.49 C0 1523.7, 0 932.9, 0 0" stroke="#6327D3" stroke-width="4" fill="none"></path></g></svg>