<svg version="1.1" xmlns="http://www.w3.org/2000/svg" viewBox="0 0 497.17358761406007 454.35645478423885" width="497.17358761406007" height="454.35645478423885" class="excalidraw-svg"><!-- svg-source:excalidraw --><metadata></metadata><defs><style class="style-fonts">
      </style></defs><rect x="0" y="0" width="497.17358761406007" height="454.35645478423885" fill="#000000"></rect><g stroke-linecap="round"><g transform="translate(131.71881031567585 89.66818468934792) rotate(0 117.48141450424552 157.82691482880955)"><path d="M0 0 C-4.46 0.36, -17.28 0.77, -26.78 2.17 C-36.28 3.56, -48.96 6.32, -57 8.35 C-65.04 10.39, -71.27 10.91, -75.01 14.37 C-78.76 17.83, -78.65 12.24, -79.47 29.11 C-80.29 45.97, -79.75 82.42, -79.95 115.56 C-80.15 148.7, -80.54 197.86, -80.66 227.96 C-80.78 258.05, -81.9 282.32, -80.66 296.14 C-79.41 309.95, -77.18 307.89, -73.19 310.86 C-69.19 313.82, -73.36 313.36, -56.69 313.92 C-40.02 314.49, -4.72 313.99, 26.85 314.26 C58.41 314.54, 94.42 315.35, 132.71 315.59 C171 315.82, 228 315.81, 256.56 315.65 C285.13 315.5, 294.45 317.23, 304.11 314.66 C313.77 312.08, 312.62 305.28, 314.54 300.22 C316.46 295.16, 315.48 313.7, 315.62 284.31 C315.76 254.93, 315.4 166.42, 315.36 123.91 C315.33 81.41, 318.9 48.92, 315.44 29.28 C311.98 9.63, 298.17 9.64, 294.62 6.03 C291.06 2.43, 294.19 7.39, 294.1 7.66 M0 0 C-4.46 0.36, -17.28 0.77, -26.78 2.17 C-36.28 3.56, -48.96 6.32, -57 8.35 C-65.04 10.39, -71.27 10.91, -75.01 14.37 C-78.76 17.83, -78.65 12.24, -79.47 29.11 C-80.29 45.97, -79.75 82.42, -79.95 115.56 C-80.15 148.7, -80.54 197.86, -80.66 227.96 C-80.78 258.05, -81.9 282.32, -80.66 296.14 C-79.41 309.95, -77.18 307.89, -73.19 310.86 C-69.19 313.82, -73.36 313.36, -56.69 313.92 C-40.02 314.49, -4.72 313.99, 26.85 314.26 C58.41 314.54, 94.42 315.35, 132.71 315.59 C171 315.82, 228 315.81, 256.56 315.65 C285.13 315.5, 294.45 317.23, 304.11 314.66 C313.77 312.08, 312.62 305.28, 314.54 300.22 C316.46 295.16, 315.48 313.7, 315.62 284.31 C315.76 254.93, 315.4 166.42, 315.36 123.91 C315.33 81.41, 318.9 48.92, 315.44 29.28 C311.98 9.63, 298.17 9.64, 294.62 6.03 C291.06 2.43, 294.19 7.39, 294.1 7.66" stroke="#E1E1E1" stroke-width="4" fill="none"></path></g></g><mask></mask><g stroke-linecap="round"><g transform="translate(449.76070632654233 123.25940464158424) rotate(0 -29.370691562037507 159.80992313705286)"><path d="M0 0 C3.65 0.6, 15.89 -0.58, 21.88 3.62 C27.86 7.81, 33.39 14.93, 35.92 25.16 C38.44 35.4, 37 40, 37.03 65.03 C37.07 90.06, 36.51 139.93, 36.14 175.33 C35.78 210.74, 36.98 255.53, 34.84 277.46 C32.71 299.4, 30.17 300.15, 23.33 306.94 C16.5 313.74, 5.93 316.13, -6.17 318.24 C-18.27 320.35, -34.34 319.42, -49.27 319.62 C-64.21 319.82, -88.02 319.48, -95.77 319.45 M0 0 C3.65 0.6, 15.89 -0.58, 21.88 3.62 C27.86 7.81, 33.39 14.93, 35.92 25.16 C38.44 35.4, 37 40, 37.03 65.03 C37.07 90.06, 36.51 139.93, 36.14 175.33 C35.78 210.74, 36.98 255.53, 34.84 277.46 C32.71 299.4, 30.17 300.15, 23.33 306.94 C16.5 313.74, 5.93 316.13, -6.17 318.24 C-18.27 320.35, -34.34 319.42, -49.27 319.62 C-64.21 319.82, -88.02 319.48, -95.77 319.45" stroke="#E1E1E1" stroke-width="4" fill="none"></path></g></g><mask></mask><g stroke-linecap="round"><g transform="translate(50.509626624617965 124.62196249755556) rotate(0 119.19137054373283 159.7234115271499)"><path d="M0 0 C-3.35 0.2, -13.87 -1.56, -20.08 1.2 C-26.29 3.96, -33.87 8.18, -37.25 16.55 C-40.64 24.92, -40 30.74, -40.41 51.43 C-40.81 72.11, -39.93 109.3, -39.66 140.66 C-39.4 172.01, -39.19 214.82, -38.82 239.54 C-38.44 264.26, -40.39 277.06, -37.43 288.98 C-34.46 300.9, -29.56 305.99, -21.03 311.07 C-12.49 316.15, -1.49 318.34, 13.78 319.45 C29.05 320.55, 46.75 318.14, 70.59 317.71 C94.42 317.29, 127.64 316.84, 156.79 316.9 C185.93 316.97, 225.12 318.18, 245.46 318.1 C265.79 318.03, 273.23 316.72, 278.79 316.45 M0 0 C-3.35 0.2, -13.87 -1.56, -20.08 1.2 C-26.29 3.96, -33.87 8.18, -37.25 16.55 C-40.64 24.92, -40 30.74, -40.41 51.43 C-40.81 72.11, -39.93 109.3, -39.66 140.66 C-39.4 172.01, -39.19 214.82, -38.82 239.54 C-38.44 264.26, -40.39 277.06, -37.43 288.98 C-34.46 300.9, -29.56 305.99, -21.03 311.07 C-12.49 316.15, -1.49 318.34, 13.78 319.45 C29.05 320.55, 46.75 318.14, 70.59 317.71 C94.42 317.29, 127.64 316.84, 156.79 316.9 C185.93 316.97, 225.12 318.18, 245.46 318.1 C265.79 318.03, 273.23 316.72, 278.79 316.45" stroke="#E1E1E1" stroke-width="4" fill="none"></path></g></g><mask></mask><g stroke-linecap="round"><g transform="translate(246.75580671374843 104.11600746275593) rotate(0 -0.15815403685364515 168.31509578563256)"><path d="M0 0 C-0.05 56.11, -0.26 280.53, -0.32 336.63 M0 0 C-0.05 56.11, -0.26 280.53, -0.32 336.63" stroke="#E1E1E1" stroke-width="4" fill="none"></path></g></g><mask></mask><g stroke-linecap="round"><g transform="translate(160.1522782253175 88.02214453300616) rotate(0 49.49275132789191 7.261568256225402)"><path d="M0 0 C7.46 0.51, 30.31 0.65, 44.79 3.07 C59.26 5.49, 77.83 13.09, 86.87 14.52 C95.9 15.95, 97.16 12.22, 98.99 11.64 C100.81 11.06, 98 11.16, 97.8 11.06 M0 0 C7.46 0.51, 30.31 0.65, 44.79 3.07 C59.26 5.49, 77.83 13.09, 86.87 14.52 C95.9 15.95, 97.16 12.22, 98.99 11.64 C100.81 11.06, 98 11.16, 97.8 11.06" stroke="#E1E1E1" stroke-width="4" fill="none"></path></g></g><mask></mask><g stroke-linecap="round"><g transform="translate(82.41132936928437 159.29474972536065) rotate(0 65.66619001649805 -7.3147923203835745)"><path d="M0 0 C3.48 -1.47, 13.41 -6.52, 20.86 -8.81 C28.32 -11.1, 36.9 -12.79, 44.74 -13.76 C52.58 -14.73, 60.44 -14.71, 67.9 -14.63 C75.35 -14.54, 81.67 -14.41, 89.46 -13.25 C97.24 -12.08, 107.63 -9.8, 114.6 -7.65 C121.58 -5.5, 128.54 -1.55, 131.33 -0.33 M0 0 C3.48 -1.47, 13.41 -6.52, 20.86 -8.81 C28.32 -11.1, 36.9 -12.79, 44.74 -13.76 C52.58 -14.73, 60.44 -14.71, 67.9 -14.63 C75.35 -14.54, 81.67 -14.41, 89.46 -13.25 C97.24 -12.08, 107.63 -9.8, 114.6 -7.65 C121.58 -5.5, 128.54 -1.55, 131.33 -0.33" stroke="#E1E1E1" stroke-width="4" fill="none"></path></g></g><mask></mask><g stroke-linecap="round"><g transform="translate(82.80642275441022 211.70178827320643) rotate(0 65.66619001649805 -7.3147923203835745)"><path d="M0 0 C3.48 -1.47, 13.41 -6.52, 20.86 -8.81 C28.32 -11.1, 36.9 -12.79, 44.74 -13.76 C52.58 -14.73, 60.44 -14.71, 67.9 -14.63 C75.35 -14.54, 81.67 -14.41, 89.46 -13.25 C97.24 -12.08, 107.63 -9.8, 114.6 -7.65 C121.58 -5.5, 128.54 -1.55, 131.33 -0.33 M0 0 C3.48 -1.47, 13.41 -6.52, 20.86 -8.81 C28.32 -11.1, 36.9 -12.79, 44.74 -13.76 C52.58 -14.73, 60.44 -14.71, 67.9 -14.63 C75.35 -14.54, 81.67 -14.41, 89.46 -13.25 C97.24 -12.08, 107.63 -9.8, 114.6 -7.65 C121.58 -5.5, 128.54 -1.55, 131.33 -0.33" stroke="#E1E1E1" stroke-width="4" fill="none"></path></g></g><mask></mask><g stroke-linecap="round"><g transform="translate(81.60130517975807 263.89729426568084) rotate(0 65.66619001649805 -7.314792320383567)"><path d="M0 0 C3.48 -1.47, 13.41 -6.52, 20.86 -8.81 C28.32 -11.1, 36.9 -12.79, 44.74 -13.76 C52.58 -14.73, 60.44 -14.71, 67.9 -14.63 C75.35 -14.54, 81.67 -14.41, 89.46 -13.25 C97.24 -12.08, 107.63 -9.8, 114.6 -7.65 C121.58 -5.5, 128.54 -1.55, 131.33 -0.33 M0 0 C3.48 -1.47, 13.41 -6.52, 20.86 -8.81 C28.32 -11.1, 36.9 -12.79, 44.74 -13.76 C52.58 -14.73, 60.44 -14.71, 67.9 -14.63 C75.35 -14.54, 81.67 -14.41, 89.46 -13.25 C97.24 -12.08, 107.63 -9.8, 114.6 -7.65 C121.58 -5.5, 128.54 -1.55, 131.33 -0.33" stroke="#E1E1E1" stroke-width="4" fill="none"></path></g></g><mask></mask><g stroke-linecap="round"><g transform="translate(82.69791119088967 315.1251596688124) rotate(0 65.66619001649805 -7.314792320383571)"><path d="M0 0 C3.48 -1.47, 13.41 -6.52, 20.86 -8.81 C28.32 -11.1, 36.9 -12.79, 44.74 -13.76 C52.58 -14.73, 60.44 -14.71, 67.9 -14.63 C75.35 -14.54, 81.67 -14.41, 89.46 -13.25 C97.24 -12.08, 107.63 -9.8, 114.6 -7.65 C121.58 -5.5, 128.54 -1.55, 131.33 -0.33 M0 0 C3.48 -1.47, 13.41 -6.52, 20.86 -8.81 C28.32 -11.1, 36.9 -12.79, 44.74 -13.76 C52.58 -14.73, 60.44 -14.71, 67.9 -14.63 C75.35 -14.54, 81.67 -14.41, 89.46 -13.25 C97.24 -12.08, 107.63 -9.8, 114.6 -7.65 C121.58 -5.5, 128.54 -1.55, 131.33 -0.33" stroke="#E1E1E1" stroke-width="4" fill="none"></path></g></g><mask></mask><g stroke-linecap="round"><g transform="translate(280.6556692557753 262.80068825454856) rotate(0 65.66619001649806 -7.314792320383567)"><path d="M0 0 C3.48 -1.47, 13.41 -6.52, 20.86 -8.81 C28.32 -11.1, 36.9 -12.79, 44.74 -13.76 C52.58 -14.73, 60.44 -14.71, 67.9 -14.63 C75.35 -14.54, 81.67 -14.41, 89.46 -13.25 C97.24 -12.08, 107.63 -9.8, 114.6 -7.65 C121.58 -5.5, 128.54 -1.55, 131.33 -0.33 M0 0 C3.48 -1.47, 13.41 -6.52, 20.86 -8.81 C28.32 -11.1, 36.9 -12.79, 44.74 -13.76 C52.58 -14.73, 60.44 -14.71, 67.9 -14.63 C75.35 -14.54, 81.67 -14.41, 89.46 -13.25 C97.24 -12.08, 107.63 -9.8, 114.6 -7.65 C121.58 -5.5, 128.54 -1.55, 131.33 -0.33" stroke="#E1E1E1" stroke-width="4" fill="none"></path></g></g><mask></mask><g stroke-linecap="round"><g transform="translate(280.3840821274793 314.7972036152667) rotate(0 65.66619001649806 -7.314792320383571)"><path d="M0 0 C3.48 -1.47, 13.41 -6.52, 20.86 -8.81 C28.32 -11.1, 36.9 -12.79, 44.74 -13.76 C52.58 -14.73, 60.44 -14.71, 67.9 -14.63 C75.35 -14.54, 81.67 -14.41, 89.46 -13.25 C97.24 -12.08, 107.63 -9.8, 114.6 -7.65 C121.58 -5.5, 128.54 -1.55, 131.33 -0.33 M0 0 C3.48 -1.47, 13.41 -6.52, 20.86 -8.81 C28.32 -11.1, 36.9 -12.79, 44.74 -13.76 C52.58 -14.73, 60.44 -14.71, 67.9 -14.63 C75.35 -14.54, 81.67 -14.41, 89.46 -13.25 C97.24 -12.08, 107.63 -9.8, 114.6 -7.65 C121.58 -5.5, 128.54 -1.55, 131.33 -0.33" stroke="#E1E1E1" stroke-width="4" fill="none"></path></g></g><mask></mask><g stroke-linecap="round"><g transform="translate(393.52941362498876 116.66751587913853) rotate(0 -42.44947067348187 -7.021485924334357)"><path d="M0 0 C0.85 1.8, 4.47 7.81, 5.11 10.78 C5.75 13.76, 4.99 16.04, 3.85 17.82 C2.72 19.6, 0.48 21.12, -1.68 21.46 C-3.85 21.8, -7.14 20.96, -9.12 19.85 C-11.11 18.75, -11.12 16.49, -13.59 14.82 C-16.07 13.15, -20.83 11.34, -23.96 9.85 C-27.1 8.37, -30.3 7.5, -32.4 5.91 C-34.49 4.32, -35.65 2.11, -36.53 0.32 C-37.42 -1.47, -36.85 -3.93, -37.71 -4.82 C-38.58 -5.71, -39.92 -4.77, -41.7 -5 C-43.47 -5.24, -46.63 -5.84, -48.35 -6.23 C-50.06 -6.63, -50.92 -7.55, -51.97 -7.37 C-53.03 -7.19, -53.45 -6.14, -54.68 -5.15 C-55.91 -4.16, -56.69 -2.36, -59.34 -1.42 C-61.99 -0.47, -66.99 0.92, -70.6 0.53 C-74.22 0.14, -78.39 -2.09, -81.04 -3.77 C-83.69 -5.45, -85.23 -7.86, -86.5 -9.56 C-87.77 -11.25, -88.08 -11.99, -88.66 -13.94 C-89.25 -15.89, -89.86 -18.89, -90.01 -21.26 C-90.16 -23.62, -90.26 -25.74, -89.56 -28.11 C-88.86 -30.49, -86.44 -34.27, -85.82 -35.5 M0 0 C0.85 1.8, 4.47 7.81, 5.11 10.78 C5.75 13.76, 4.99 16.04, 3.85 17.82 C2.72 19.6, 0.48 21.12, -1.68 21.46 C-3.85 21.8, -7.14 20.96, -9.12 19.85 C-11.11 18.75, -11.12 16.49, -13.59 14.82 C-16.07 13.15, -20.83 11.34, -23.96 9.85 C-27.1 8.37, -30.3 7.5, -32.4 5.91 C-34.49 4.32, -35.65 2.11, -36.53 0.32 C-37.42 -1.47, -36.85 -3.93, -37.71 -4.82 C-38.58 -5.71, -39.92 -4.77, -41.7 -5 C-43.47 -5.24, -46.63 -5.84, -48.35 -6.23 C-50.06 -6.63, -50.92 -7.55, -51.97 -7.37 C-53.03 -7.19, -53.45 -6.14, -54.68 -5.15 C-55.91 -4.16, -56.69 -2.36, -59.34 -1.42 C-61.99 -0.47, -66.99 0.92, -70.6 0.53 C-74.22 0.14, -78.39 -2.09, -81.04 -3.77 C-83.69 -5.45, -85.23 -7.86, -86.5 -9.56 C-87.77 -11.25, -88.08 -11.99, -88.66 -13.94 C-89.25 -15.89, -89.86 -18.89, -90.01 -21.26 C-90.16 -23.62, -90.26 -25.74, -89.56 -28.11 C-88.86 -30.49, -86.44 -34.27, -85.82 -35.5" stroke="#E1E1E1" stroke-width="4" fill="none"></path></g></g><mask></mask><g stroke-linecap="round"><g transform="translate(355.3416737477666 111.63396530665517) rotate(0 6.215181164941214 -1.288932714857907)"><path d="M0 0 C1.21 -0.09, 5.18 -0.08, 7.26 -0.51 C9.33 -0.94, 11.57 -2.23, 12.43 -2.58 M0 0 C1.21 -0.09, 5.18 -0.08, 7.26 -0.51 C9.33 -0.94, 11.57 -2.23, 12.43 -2.58" stroke="#E1E1E1" stroke-width="4" fill="none"></path></g></g><mask></mask><g stroke-linecap="round"><g transform="translate(303.2847424632509 90.86717555437912) rotate(0 -6.420816168888791 -6.742560671263135)"><path d="M0 0 C-1 -0.16, -4.19 -0.26, -6.01 -0.97 C-7.83 -1.67, -9.78 -2.9, -10.92 -4.24 C-12.06 -5.58, -12.53 -7.49, -12.84 -9.03 C-13.15 -10.57, -12.8 -12.74, -12.79 -13.49 M0 0 C-1 -0.16, -4.19 -0.26, -6.01 -0.97 C-7.83 -1.67, -9.78 -2.9, -10.92 -4.24 C-12.06 -5.58, -12.53 -7.49, -12.84 -9.03 C-13.15 -10.57, -12.8 -12.74, -12.79 -13.49" stroke="#E1E1E1" stroke-width="4" fill="none"></path></g></g><mask></mask><g stroke-linecap="round"><g transform="translate(304.91809426266735 101.8620022673503) rotate(0 35.00212701224588 -44.97855223228193)"><path d="M0 0 C-1.26 0.3, -4.84 1.62, -7.56 1.8 C-10.29 1.98, -13.43 1.83, -16.35 1.1 C-19.27 0.37, -22.2 -0.85, -25.09 -2.58 C-27.99 -4.3, -31.51 -6.69, -33.72 -9.24 C-35.93 -11.8, -37.3 -14.42, -38.35 -17.9 C-39.4 -21.38, -40.15 -26.35, -40.04 -30.11 C-39.93 -33.87, -38.6 -37.78, -37.7 -40.46 C-36.81 -43.14, -35.03 -44.47, -34.67 -46.17 C-34.3 -47.88, -35.79 -48.75, -35.49 -50.69 C-35.18 -52.63, -34.33 -55.86, -32.81 -57.81 C-31.29 -59.77, -27.8 -60.6, -26.36 -62.42 C-24.92 -64.24, -25.11 -66.53, -24.18 -68.73 C-23.24 -70.93, -22.56 -73.72, -20.78 -75.64 C-19 -77.56, -16.18 -79.44, -13.5 -80.24 C-10.83 -81.03, -6.87 -80.47, -4.72 -80.41 C-2.56 -80.35, -1.69 -79.38, -0.58 -79.88 C0.53 -80.37, 0.3 -81.94, 1.93 -83.39 C3.56 -84.84, 6.64 -87.29, 9.21 -88.57 C11.78 -89.85, 14.39 -90.67, 17.36 -91.07 C20.32 -91.47, 23.9 -91.74, 26.98 -90.99 C30.06 -90.25, 33.07 -86.47, 35.83 -86.6 C38.59 -86.72, 40.3 -91.27, 43.54 -91.76 C46.79 -92.25, 52.67 -90.92, 55.28 -89.54 C57.89 -88.17, 57.09 -84.61, 59.2 -83.51 C61.31 -82.41, 64.04 -84.11, 67.96 -82.96 C71.87 -81.82, 79.05 -79.3, 82.7 -76.67 C86.35 -74.04, 87.97 -70.67, 89.85 -67.18 C91.72 -63.7, 92.22 -58.04, 93.96 -55.75 C95.7 -53.46, 98.52 -54.32, 100.28 -53.44 C102.05 -52.56, 103.39 -52.27, 104.55 -50.48 C105.7 -48.68, 107.16 -45.37, 107.22 -42.68 C107.29 -39.99, 104.81 -36.42, 104.93 -34.34 C105.05 -32.27, 107.09 -32.65, 107.94 -30.25 C108.79 -27.85, 110.19 -23.22, 110.04 -19.94 C109.89 -16.67, 108.62 -13.26, 107.04 -10.61 C105.46 -7.97, 103.07 -5.61, 100.58 -4.07 C98.09 -2.53, 95.18 -1.8, 92.11 -1.35 C89.04 -0.91, 85.05 -0.79, 82.17 -1.39 C79.3 -2, 76.44 -4.02, 74.86 -4.99 C73.29 -5.97, 73.09 -6.87, 72.74 -7.25 M0 0 C-1.26 0.3, -4.84 1.62, -7.56 1.8 C-10.29 1.98, -13.43 1.83, -16.35 1.1 C-19.27 0.37, -22.2 -0.85, -25.09 -2.58 C-27.99 -4.3, -31.51 -6.69, -33.72 -9.24 C-35.93 -11.8, -37.3 -14.42, -38.35 -17.9 C-39.4 -21.38, -40.15 -26.35, -40.04 -30.11 C-39.93 -33.87, -38.6 -37.78, -37.7 -40.46 C-36.81 -43.14, -35.03 -44.47, -34.67 -46.17 C-34.3 -47.88, -35.79 -48.75, -35.49 -50.69 C-35.18 -52.63, -34.33 -55.86, -32.81 -57.81 C-31.29 -59.77, -27.8 -60.6, -26.36 -62.42 C-24.92 -64.24, -25.11 -66.53, -24.18 -68.73 C-23.24 -70.93, -22.56 -73.72, -20.78 -75.64 C-19 -77.56, -16.18 -79.44, -13.5 -80.24 C-10.83 -81.03, -6.87 -80.47, -4.72 -80.41 C-2.56 -80.35, -1.69 -79.38, -0.58 -79.88 C0.53 -80.37, 0.3 -81.94, 1.93 -83.39 C3.56 -84.84, 6.64 -87.29, 9.21 -88.57 C11.78 -89.85, 14.39 -90.67, 17.36 -91.07 C20.32 -91.47, 23.9 -91.74, 26.98 -90.99 C30.06 -90.25, 33.07 -86.47, 35.83 -86.6 C38.59 -86.72, 40.3 -91.27, 43.54 -91.76 C46.79 -92.25, 52.67 -90.92, 55.28 -89.54 C57.89 -88.17, 57.09 -84.61, 59.2 -83.51 C61.31 -82.41, 64.04 -84.11, 67.96 -82.96 C71.87 -81.82, 79.05 -79.3, 82.7 -76.67 C86.35 -74.04, 87.97 -70.67, 89.85 -67.18 C91.72 -63.7, 92.22 -58.04, 93.96 -55.75 C95.7 -53.46, 98.52 -54.32, 100.28 -53.44 C102.05 -52.56, 103.39 -52.27, 104.55 -50.48 C105.7 -48.68, 107.16 -45.37, 107.22 -42.68 C107.29 -39.99, 104.81 -36.42, 104.93 -34.34 C105.05 -32.27, 107.09 -32.65, 107.94 -30.25 C108.79 -27.85, 110.19 -23.22, 110.04 -19.94 C109.89 -16.67, 108.62 -13.26, 107.04 -10.61 C105.46 -7.97, 103.07 -5.61, 100.58 -4.07 C98.09 -2.53, 95.18 -1.8, 92.11 -1.35 C89.04 -0.91, 85.05 -0.79, 82.17 -1.39 C79.3 -2, 76.44 -4.02, 74.86 -4.99 C73.29 -5.97, 73.09 -6.87, 72.74 -7.25" stroke="#E1E1E1" stroke-width="4" fill="none"></path></g></g><mask></mask><g stroke-linecap="round"><g transform="translate(304.6749289157944 21.909079838944706) rotate(0 -1.7119309549174773 4.618186885234024)"><path d="M0 0 C-0.33 0.73, -1.41 2.81, -1.98 4.35 C-2.55 5.89, -3.18 8.42, -3.42 9.24 M0 0 C-0.33 0.73, -1.41 2.81, -1.98 4.35 C-2.55 5.89, -3.18 8.42, -3.42 9.24" stroke="#E1E1E1" stroke-width="4" fill="none"></path></g></g><mask></mask><g stroke-linecap="round"><g transform="translate(342.4883131778259 14.895597004685385) rotate(0 -1.3620386953487582 5.479821008238844)"><path d="M0 0 C-0.41 0.84, -1.99 3.24, -2.44 5.06 C-2.9 6.89, -2.68 9.98, -2.72 10.96 M0 0 C-0.41 0.84, -1.99 3.24, -2.44 5.06 C-2.9 6.89, -2.68 9.98, -2.72 10.96" stroke="#E1E1E1" stroke-width="4" fill="none"></path></g></g><mask></mask><g stroke-linecap="round"><g transform="translate(363.8297863061517 18.19513965357868) rotate(0 0.9789164446478935 3.6549080834718666)"><path d="M0 0 C0.33 1.22, 1.63 6.09, 1.96 7.31 M0 0 C0.33 1.22, 1.63 6.09, 1.96 7.31" stroke="#E1E1E1" stroke-width="4" fill="none"></path></g></g><mask></mask><g stroke-linecap="round"><g transform="translate(401.0004634455792 47.34370599261632) rotate(0 -6.210489872075499 1.6818284923623992)"><path d="M0 0 C-0.97 0.11, -3.75 0.09, -5.82 0.65 C-7.89 1.21, -11.32 2.91, -12.42 3.36 M0 0 C-0.97 0.11, -3.75 0.09, -5.82 0.65 C-7.89 1.21, -11.32 2.91, -12.42 3.36" stroke="#E1E1E1" stroke-width="4" fill="none"></path></g></g><mask></mask><g stroke-linecap="round"><g transform="translate(409.7856912187946 67.29812019697687) rotate(0 -3.46960201527574 2.460974049144866)"><path d="M0 0 C-1.16 0.82, -5.78 4.1, -6.94 4.92 M0 0 C-1.16 0.82, -5.78 4.1, -6.94 4.92" stroke="#E1E1E1" stroke-width="4" fill="none"></path></g></g><mask></mask><g stroke-linecap="round"><g transform="translate(379.7676719353082 78.96301990760224) rotate(0 -9.129255916700771 8.76607166067916)"><path d="M0 0 C0.36 1.09, 2.13 4.35, 2.18 6.54 C2.24 8.74, 2.11 11.36, 0.33 13.19 C-1.45 15.02, -5.76 17.05, -8.48 17.53 C-11.2 18.02, -14.01 17.33, -16.01 16.09 C-18 14.86, -19.7 11.11, -20.44 10.11 M0 0 C0.36 1.09, 2.13 4.35, 2.18 6.54 C2.24 8.74, 2.11 11.36, 0.33 13.19 C-1.45 15.02, -5.76 17.05, -8.48 17.53 C-11.2 18.02, -14.01 17.33, -16.01 16.09 C-18 14.86, -19.7 11.11, -20.44 10.11" stroke="#E1E1E1" stroke-width="4" fill="none"></path></g></g><mask></mask><g stroke-linecap="round"><g transform="translate(407.7152673007219 96.66092224354946) rotate(0 -13.455018879971163 11.789609912638852)"><path d="M0 0 C-0.14 0.86, -0.36 3.56, -0.86 5.13 C-1.35 6.71, -1.44 7.47, -2.96 9.45 C-4.48 11.43, -7.54 15.1, -9.99 17.01 C-12.44 18.91, -14.84 19.79, -17.66 20.88 C-20.48 21.98, -25.37 23.13, -26.91 23.58 M0 0 C-0.14 0.86, -0.36 3.56, -0.86 5.13 C-1.35 6.71, -1.44 7.47, -2.96 9.45 C-4.48 11.43, -7.54 15.1, -9.99 17.01 C-12.44 18.91, -14.84 19.79, -17.66 20.88 C-20.48 21.98, -25.37 23.13, -26.91 23.58" stroke="#E1E1E1" stroke-width="4" fill="none"></path></g></g><mask></mask><g stroke-linecap="round"><g transform="translate(365.1191099620831 58.052363840778014) rotate(0 -19.020846924081695 9.56984650500668)"><path d="M0 0 C-0.32 1.05, -0.88 3.96, -1.93 6.29 C-2.98 8.62, -3.79 11.86, -6.31 14 C-8.83 16.14, -13.38 18.37, -17.06 19.14 C-20.74 19.91, -24.88 19.96, -28.38 18.59 C-31.88 17.23, -36.43 12.23, -38.04 10.96 M0 0 C-0.32 1.05, -0.88 3.96, -1.93 6.29 C-2.98 8.62, -3.79 11.86, -6.31 14 C-8.83 16.14, -13.38 18.37, -17.06 19.14 C-20.74 19.91, -24.88 19.96, -28.38 18.59 C-31.88 17.23, -36.43 12.23, -38.04 10.96" stroke="#E1E1E1" stroke-width="4" fill="none"></path></g></g><mask></mask><g stroke-linecap="round"><g transform="translate(344.3749947919909 77.90591524852556) rotate(0 -9.134729091710682 6.48493050472041)"><path d="M0 0 C-0.4 1.02, -0.95 4.15, -2.4 6.15 C-3.85 8.14, -6.06 10.83, -8.7 11.97 C-11.35 13.11, -16.67 12.8, -18.27 12.97 M0 0 C-0.4 1.02, -0.95 4.15, -2.4 6.15 C-3.85 8.14, -6.06 10.83, -8.7 11.97 C-11.35 13.11, -16.67 12.8, -18.27 12.97" stroke="#E1E1E1" stroke-width="4" fill="none"></path></g></g><mask></mask><g stroke-linecap="round"><g transform="translate(425.3576560044243 63.7225731511507) rotate(0 5.892654780422674 0)"><path d="M0 0 C1.96 0, 9.82 0, 11.79 0 M0 0 C1.96 0, 9.82 0, 11.79 0" stroke="#E1E1E1" stroke-width="4" fill="none"></path></g></g><mask></mask><g stroke-linecap="round"><g transform="translate(429.72290401597996 18.55480543995094) rotate(0 -5.412579143830158 5.303897525774175)"><path d="M0 0 C-1.8 1.77, -9.02 8.84, -10.83 10.61 M0 0 C-1.8 1.77, -9.02 8.84, -10.83 10.61" stroke="#E1E1E1" stroke-width="4" fill="none"></path></g></g><mask></mask><g stroke-linecap="round"><g transform="translate(245.88208295824046 17.89802443874936) rotate(0 4.912565512558302 5.671773074661417)"><path d="M0 0 C1.64 1.89, 8.19 9.45, 9.83 11.34 M0 0 C1.64 1.89, 8.19 9.45, 9.83 11.34" stroke="#E1E1E1" stroke-width="4" fill="none"></path></g></g><mask></mask><g stroke-linecap="round"><g transform="translate(238.54646468053585 63.57870683660161) rotate(0 5.794528571314601 -0.026193051833615755)"><path d="M0 0 C1.93 -0.01, 9.66 -0.04, 11.59 -0.05 M0 0 C1.93 -0.01, 9.66 -0.04, 11.59 -0.05" stroke="#E1E1E1" stroke-width="4" fill="none"></path></g></g><mask></mask><g stroke-linecap="round"><g transform="translate(294.3794217846486 46.01285112780528) rotate(0 -12.453844090136911 6.303318101347088)"><path d="M0 0 C-0.79 -0.69, -3.01 -3.07, -4.76 -4.13 C-6.51 -5.19, -8.42 -6.18, -10.5 -6.37 C-12.57 -6.56, -15.09 -6.24, -17.21 -5.28 C-19.33 -4.32, -21.96 -2.53, -23.24 -0.62 C-24.52 1.3, -25.04 4.05, -24.91 6.23 C-24.78 8.41, -23.79 10.36, -22.45 12.48 C-21.1 14.61, -17.77 17.89, -16.84 18.97 M0 0 C-0.79 -0.69, -3.01 -3.07, -4.76 -4.13 C-6.51 -5.19, -8.42 -6.18, -10.5 -6.37 C-12.57 -6.56, -15.09 -6.24, -17.21 -5.28 C-19.33 -4.32, -21.96 -2.53, -23.24 -0.62 C-24.52 1.3, -25.04 4.05, -24.91 6.23 C-24.78 8.41, -23.79 10.36, -22.45 12.48 C-21.1 14.61, -17.77 17.89, -16.84 18.97" stroke="#E1E1E1" stroke-width="4" fill="none"></path></g></g><mask></mask><g stroke-linecap="round"><g transform="translate(328.5973674820024 43.5546062051007) rotate(0 -8.843223739645538 9.100607083922682)"><path d="M0 0 C-1 0.17, -3.93 0.33, -6.02 1.01 C-8.11 1.7, -10.8 2.62, -12.52 4.11 C-14.25 5.6, -15.54 8.11, -16.4 9.96 C-17.26 11.81, -17.54 13.82, -17.69 15.19 C-17.83 16.56, -17.35 17.7, -17.29 18.2 M0 0 C-1 0.17, -3.93 0.33, -6.02 1.01 C-8.11 1.7, -10.8 2.62, -12.52 4.11 C-14.25 5.6, -15.54 8.11, -16.4 9.96 C-17.26 11.81, -17.54 13.82, -17.69 15.19 C-17.83 16.56, -17.35 17.7, -17.29 18.2" stroke="#E1E1E1" stroke-width="4" fill="none"></path></g></g><mask></mask><g stroke-linecap="round"><g transform="translate(277.403884638325 213.68146259525184) rotate(0 65.66619001649806 -7.314792320383567)"><path d="M0 0 C3.48 -1.47, 13.41 -6.52, 20.86 -8.81 C28.32 -11.1, 36.9 -12.79, 44.74 -13.76 C52.58 -14.73, 60.44 -14.71, 67.9 -14.63 C75.35 -14.54, 81.67 -14.41, 89.46 -13.25 C97.24 -12.08, 107.63 -9.8, 114.6 -7.65 C121.58 -5.5, 128.54 -1.55, 131.33 -0.33 M0 0 C3.48 -1.47, 13.41 -6.52, 20.86 -8.81 C28.32 -11.1, 36.9 -12.79, 44.74 -13.76 C52.58 -14.73, 60.44 -14.71, 67.9 -14.63 C75.35 -14.54, 81.67 -14.41, 89.46 -13.25 C97.24 -12.08, 107.63 -9.8, 114.6 -7.65 C121.58 -5.5, 128.54 -1.55, 131.33 -0.33" stroke="#E1E1E1" stroke-width="4" fill="none"></path></g></g><mask></mask></svg>