<svg version="1.1" xmlns="http://www.w3.org/2000/svg" viewBox="0 0 168.7804509489397 168.7804509489397" width="168.7804509489397" height="168.7804509489397" class="excalidraw-svg"><!-- svg-source:excalidraw --><metadata></metadata><defs><style class="style-fonts">
      </style></defs><rect x="0" y="0" width="168.7804509489397" height="168.7804509489397" fill="#000000"></rect><g stroke-linecap="round" transform="translate(17.421245507139247 17.36962441405194) rotate(0 67.09640143540582 67.09640143540582)"><path d="M134.19 67.1 C134.19 69.6, 134.05 72.12, 133.77 74.61 C133.49 77.1, 133.07 79.59, 132.51 82.03 C131.95 84.47, 131.25 86.89, 130.43 89.26 C129.6 91.62, 128.63 93.95, 127.55 96.21 C126.46 98.46, 125.24 100.67, 123.91 102.79 C122.58 104.91, 121.12 106.97, 119.55 108.93 C117.99 110.89, 116.31 112.77, 114.54 114.54 C112.77 116.31, 110.89 117.99, 108.93 119.55 C106.97 121.12, 104.91 122.58, 102.79 123.91 C100.67 125.24, 98.46 126.46, 96.21 127.55 C93.95 128.63, 91.62 129.6, 89.26 130.43 C86.89 131.25, 84.47 131.95, 82.03 132.51 C79.59 133.07, 77.1 133.49, 74.61 133.77 C72.12 134.05, 69.6 134.19, 67.1 134.19 C64.59 134.19, 62.07 134.05, 59.58 133.77 C57.1 133.49, 54.61 133.07, 52.17 132.51 C49.72 131.95, 47.3 131.25, 44.94 130.43 C42.57 129.6, 40.24 128.63, 37.98 127.55 C35.73 126.46, 33.52 125.24, 31.4 123.91 C29.28 122.58, 27.22 121.12, 25.26 119.55 C23.3 117.99, 21.42 116.31, 19.65 114.54 C17.88 112.77, 16.2 110.89, 14.64 108.93 C13.08 106.97, 11.62 104.91, 10.28 102.79 C8.95 100.67, 7.73 98.46, 6.64 96.21 C5.56 93.95, 4.59 91.62, 3.77 89.26 C2.94 86.89, 2.24 84.47, 1.68 82.03 C1.13 79.59, 0.7 77.1, 0.42 74.61 C0.14 72.12, 0 69.6, 0 67.1 C0 64.59, 0.14 62.07, 0.42 59.58 C0.7 57.1, 1.13 54.61, 1.68 52.17 C2.24 49.72, 2.94 47.3, 3.77 44.94 C4.59 42.57, 5.56 40.24, 6.64 37.98 C7.73 35.73, 8.95 33.52, 10.28 31.4 C11.62 29.28, 13.08 27.22, 14.64 25.26 C16.2 23.3, 17.88 21.42, 19.65 19.65 C21.42 17.88, 23.3 16.2, 25.26 14.64 C27.22 13.08, 29.28 11.62, 31.4 10.28 C33.52 8.95, 35.73 7.73, 37.98 6.64 C40.24 5.56, 42.57 4.59, 44.94 3.77 C47.3 2.94, 49.72 2.24, 52.17 1.68 C54.61 1.13, 57.1 0.7, 59.58 0.42 C62.07 0.14, 64.59 0, 67.1 0 C69.6 0, 72.12 0.14, 74.61 0.42 C77.1 0.7, 79.59 1.13, 82.03 1.68 C84.47 2.24, 86.89 2.94, 89.26 3.77 C91.62 4.59, 93.95 5.56, 96.21 6.64 C98.46 7.73, 100.67 8.95, 102.79 10.28 C104.91 11.62, 106.97 13.08, 108.93 14.64 C110.89 16.2, 112.77 17.88, 114.54 19.65 C116.31 21.42, 117.99 23.3, 119.55 25.26 C121.12 27.22, 122.58 29.28, 123.91 31.4 C125.24 33.52, 126.46 35.73, 127.55 37.98 C128.63 40.24, 129.6 42.57, 130.43 44.94 C131.25 47.3, 131.95 49.72, 132.51 52.17 C133.07 54.61, 133.49 57.1, 133.77 59.58 C134.05 62.07, 134.12 65.84, 134.19 67.1 C134.26 68.35, 134.26 65.84, 134.19 67.1" stroke="#E1E1E1" stroke-width="2" fill="none"></path></g><g stroke-linecap="round" transform="translate(10.000000000001819 10.000000000001819) rotate(0 74.39022547446893 74.39022547446893)"><path d="M148.78 74.39 C148.78 77.17, 148.62 79.96, 148.31 82.72 C148 85.48, 147.53 88.24, 146.92 90.94 C146.3 93.65, 145.52 96.34, 144.61 98.96 C143.69 101.58, 142.62 104.17, 141.41 106.67 C140.21 109.17, 138.86 111.62, 137.38 113.97 C135.9 116.32, 134.28 118.6, 132.55 120.77 C130.82 122.94, 128.96 125.03, 126.99 126.99 C125.03 128.96, 122.94 130.82, 120.77 132.55 C118.6 134.28, 116.32 135.9, 113.97 137.38 C111.62 138.86, 109.17 140.21, 106.67 141.41 C104.17 142.62, 101.58 143.69, 98.96 144.61 C96.34 145.52, 93.65 146.3, 90.94 146.92 C88.24 147.53, 85.48 148, 82.72 148.31 C79.96 148.62, 77.17 148.78, 74.39 148.78 C71.61 148.78, 68.82 148.62, 66.06 148.31 C63.3 148, 60.54 147.53, 57.84 146.92 C55.13 146.3, 52.44 145.52, 49.82 144.61 C47.2 143.69, 44.61 142.62, 42.11 141.41 C39.61 140.21, 37.16 138.86, 34.81 137.38 C32.46 135.9, 30.18 134.28, 28.01 132.55 C25.84 130.82, 23.75 128.96, 21.79 126.99 C19.83 125.03, 17.96 122.94, 16.23 120.77 C14.5 118.6, 12.88 116.32, 11.4 113.97 C9.93 111.62, 8.57 109.17, 7.37 106.67 C6.16 104.17, 5.09 101.58, 4.17 98.96 C3.26 96.34, 2.48 93.65, 1.87 90.94 C1.25 88.24, 0.78 85.48, 0.47 82.72 C0.16 79.96, 0 77.17, 0 74.39 C0 71.61, 0.16 68.82, 0.47 66.06 C0.78 63.3, 1.25 60.54, 1.87 57.84 C2.48 55.13, 3.26 52.44, 4.17 49.82 C5.09 47.2, 6.16 44.61, 7.37 42.11 C8.57 39.61, 9.93 37.16, 11.4 34.81 C12.88 32.46, 14.5 30.18, 16.23 28.01 C17.96 25.84, 19.83 23.75, 21.79 21.79 C23.75 19.83, 25.84 17.96, 28.01 16.23 C30.18 14.5, 32.46 12.88, 34.81 11.4 C37.16 9.93, 39.61 8.57, 42.11 7.37 C44.61 6.16, 47.2 5.09, 49.82 4.17 C52.44 3.26, 55.13 2.48, 57.84 1.87 C60.54 1.25, 63.3 0.78, 66.06 0.47 C68.82 0.16, 71.61 0, 74.39 0 C77.17 0, 79.96 0.16, 82.72 0.47 C85.48 0.78, 88.24 1.25, 90.94 1.87 C93.65 2.48, 96.34 3.26, 98.96 4.17 C101.58 5.09, 104.17 6.16, 106.67 7.37 C109.17 8.57, 111.62 9.93, 113.97 11.4 C116.32 12.88, 118.6 14.5, 120.77 16.23 C122.94 17.96, 125.03 19.83, 126.99 21.79 C128.96 23.75, 130.82 25.84, 132.55 28.01 C134.28 30.18, 135.9 32.46, 137.38 34.81 C138.86 37.16, 140.21 39.61, 141.41 42.11 C142.62 44.61, 143.69 47.2, 144.61 49.82 C145.52 52.44, 146.3 55.13, 146.92 57.84 C147.53 60.54, 148 63.3, 148.31 66.06 C148.62 68.82, 148.7 73, 148.78 74.39 C148.86 75.78, 148.86 73, 148.78 74.39" stroke="#E1E1E1" stroke-width="2" fill="none"></path></g><g stroke-linecap="round"><g transform="translate(80.64871359164317 80.64683870000226) rotate(0 3.7839005131017984 -12.993827678715206)"><path d="M0 0 C0 -0.64, 0 -1.76, 0 -3.86 C0 -5.95, 0 -9.77, 0 -12.58 C0 -15.4, -0.03 -18.95, 0 -20.77 C0.03 -22.59, 0.04 -22.83, 0.2 -23.51 C0.36 -24.18, 0.64 -24.44, 0.97 -24.8 C1.3 -25.17, 1.78 -25.48, 2.18 -25.68 C2.59 -25.88, 2.96 -25.95, 3.38 -25.99 C3.8 -26.03, 4.29 -26.04, 4.7 -25.93 C5.12 -25.83, 5.5 -25.62, 5.85 -25.38 C6.2 -25.14, 6.54 -24.8, 6.78 -24.5 C7.02 -24.2, 7.17 -23.87, 7.28 -23.57 C7.4 -23.27, 7.43 -22.97, 7.46 -22.72 C7.5 -22.46, 7.48 -22.27, 7.49 -22.06 C7.5 -21.84, 7.5 -21.73, 7.51 -21.41 C7.52 -21.08, 7.53 -20.67, 7.54 -20.11 C7.55 -19.55, 7.56 -19.32, 7.57 -18.04 C7.57 -16.76, 7.57 -15.23, 7.57 -12.43 C7.57 -9.63, 7.57 -3.29, 7.57 -1.24 C7.57 0.8, 7.57 -0.33, 7.57 -0.14 M0 0 C0 -0.64, 0 -1.76, 0 -3.86 C0 -5.95, 0 -9.77, 0 -12.58 C0 -15.4, -0.03 -18.95, 0 -20.77 C0.03 -22.59, 0.04 -22.83, 0.2 -23.51 C0.36 -24.18, 0.64 -24.44, 0.97 -24.8 C1.3 -25.17, 1.78 -25.48, 2.18 -25.68 C2.59 -25.88, 2.96 -25.95, 3.38 -25.99 C3.8 -26.03, 4.29 -26.04, 4.7 -25.93 C5.12 -25.83, 5.5 -25.62, 5.85 -25.38 C6.2 -25.14, 6.54 -24.8, 6.78 -24.5 C7.02 -24.2, 7.17 -23.87, 7.28 -23.57 C7.4 -23.27, 7.43 -22.97, 7.46 -22.72 C7.5 -22.46, 7.48 -22.27, 7.49 -22.06 C7.5 -21.84, 7.5 -21.73, 7.51 -21.41 C7.52 -21.08, 7.53 -20.67, 7.54 -20.11 C7.55 -19.55, 7.56 -19.32, 7.57 -18.04 C7.57 -16.76, 7.57 -15.23, 7.57 -12.43 C7.57 -9.63, 7.57 -3.29, 7.57 -1.24 C7.57 0.8, 7.57 -0.33, 7.57 -0.14" stroke="#E1E1E1" stroke-width="2" fill="none"></path></g></g><mask></mask><g stroke-linecap="round"><g transform="translate(105.02006058222105 97.4504847224307) rotate(89.99999999999994 -3.7839005131017984 -12.993827678715206)"><path d="M0 0 C0 -0.64, 0 -1.76, 0 -3.86 C0 -5.95, 0 -9.77, 0 -12.58 C0 -15.4, 0.03 -18.95, 0 -20.77 C-0.03 -22.59, -0.04 -22.83, -0.2 -23.51 C-0.36 -24.18, -0.64 -24.44, -0.97 -24.8 C-1.3 -25.17, -1.78 -25.48, -2.18 -25.68 C-2.59 -25.88, -2.96 -25.95, -3.38 -25.99 C-3.8 -26.03, -4.29 -26.04, -4.7 -25.93 C-5.12 -25.83, -5.5 -25.62, -5.85 -25.38 C-6.2 -25.14, -6.54 -24.8, -6.78 -24.5 C-7.02 -24.2, -7.17 -23.87, -7.28 -23.57 C-7.4 -23.27, -7.43 -22.97, -7.46 -22.72 C-7.5 -22.46, -7.48 -22.27, -7.49 -22.06 C-7.5 -21.84, -7.5 -21.73, -7.51 -21.41 C-7.52 -21.08, -7.53 -20.67, -7.54 -20.11 C-7.55 -19.55, -7.56 -19.32, -7.57 -18.04 C-7.57 -16.76, -7.57 -15.23, -7.57 -12.43 C-7.57 -9.63, -7.57 -3.29, -7.57 -1.24 C-7.57 0.8, -7.57 -0.33, -7.57 -0.14 M0 0 C0 -0.64, 0 -1.76, 0 -3.86 C0 -5.95, 0 -9.77, 0 -12.58 C0 -15.4, 0.03 -18.95, 0 -20.77 C-0.03 -22.59, -0.04 -22.83, -0.2 -23.51 C-0.36 -24.18, -0.64 -24.44, -0.97 -24.8 C-1.3 -25.17, -1.78 -25.48, -2.18 -25.68 C-2.59 -25.88, -2.96 -25.95, -3.38 -25.99 C-3.8 -26.03, -4.29 -26.04, -4.7 -25.93 C-5.12 -25.83, -5.5 -25.62, -5.85 -25.38 C-6.2 -25.14, -6.54 -24.8, -6.78 -24.5 C-7.02 -24.2, -7.17 -23.87, -7.28 -23.57 C-7.4 -23.27, -7.43 -22.97, -7.46 -22.72 C-7.5 -22.46, -7.48 -22.27, -7.49 -22.06 C-7.5 -21.84, -7.5 -21.73, -7.51 -21.41 C-7.52 -21.08, -7.53 -20.67, -7.54 -20.11 C-7.55 -19.55, -7.56 -19.32, -7.57 -18.04 C-7.57 -16.76, -7.57 -15.23, -7.57 -12.43 C-7.57 -9.63, -7.57 -3.29, -7.57 -1.24 C-7.57 0.8, -7.57 -0.33, -7.57 -0.14" stroke="#E1E1E1" stroke-width="2" fill="none"></path></g></g><mask></mask><g stroke-linecap="round"><g transform="translate(80.68196386171803 114.22805586292816) rotate(180 3.7839005131017984 -12.993827678715206)"><path d="M0 0 C0 -0.64, 0 -1.76, 0 -3.86 C0 -5.95, 0 -9.77, 0 -12.58 C0 -15.4, -0.03 -18.95, 0 -20.77 C0.03 -22.59, 0.04 -22.83, 0.2 -23.51 C0.36 -24.18, 0.64 -24.44, 0.97 -24.8 C1.3 -25.17, 1.78 -25.48, 2.18 -25.68 C2.59 -25.88, 2.96 -25.95, 3.38 -25.99 C3.8 -26.03, 4.29 -26.04, 4.7 -25.93 C5.12 -25.83, 5.5 -25.62, 5.85 -25.38 C6.2 -25.14, 6.54 -24.8, 6.78 -24.5 C7.02 -24.2, 7.17 -23.87, 7.28 -23.57 C7.4 -23.27, 7.43 -22.97, 7.46 -22.72 C7.5 -22.46, 7.48 -22.27, 7.49 -22.06 C7.5 -21.84, 7.5 -21.73, 7.51 -21.41 C7.52 -21.08, 7.53 -20.67, 7.54 -20.11 C7.55 -19.55, 7.56 -19.32, 7.57 -18.04 C7.57 -16.76, 7.57 -15.23, 7.57 -12.43 C7.57 -9.63, 7.57 -3.29, 7.57 -1.24 C7.57 0.8, 7.57 -0.33, 7.57 -0.14 M0 0 C0 -0.64, 0 -1.76, 0 -3.86 C0 -5.95, 0 -9.77, 0 -12.58 C0 -15.4, -0.03 -18.95, 0 -20.77 C0.03 -22.59, 0.04 -22.83, 0.2 -23.51 C0.36 -24.18, 0.64 -24.44, 0.97 -24.8 C1.3 -25.17, 1.78 -25.48, 2.18 -25.68 C2.59 -25.88, 2.96 -25.95, 3.38 -25.99 C3.8 -26.03, 4.29 -26.04, 4.7 -25.93 C5.12 -25.83, 5.5 -25.62, 5.85 -25.38 C6.2 -25.14, 6.54 -24.8, 6.78 -24.5 C7.02 -24.2, 7.17 -23.87, 7.28 -23.57 C7.4 -23.27, 7.43 -22.97, 7.46 -22.72 C7.5 -22.46, 7.48 -22.27, 7.49 -22.06 C7.5 -21.84, 7.5 -21.73, 7.51 -21.41 C7.52 -21.08, 7.53 -20.67, 7.54 -20.11 C7.55 -19.55, 7.56 -19.32, 7.57 -18.04 C7.57 -16.76, 7.57 -15.23, 7.57 -12.43 C7.57 -9.63, 7.57 -3.29, 7.57 -1.24 C7.57 0.8, 7.57 -0.33, 7.57 -0.14" stroke="#E1E1E1" stroke-width="2" fill="none"></path></g></g><mask></mask><g stroke-linecap="round"><g transform="translate(63.86634506529845 97.44951149856934) rotate(270 3.7839005131017984 -12.993827678715206)"><path d="M0 0 C0 -0.64, 0 -1.76, 0 -3.86 C0 -5.95, 0 -9.77, 0 -12.58 C0 -15.4, -0.03 -18.95, 0 -20.77 C0.03 -22.59, 0.04 -22.83, 0.2 -23.51 C0.36 -24.18, 0.64 -24.44, 0.97 -24.8 C1.3 -25.17, 1.78 -25.48, 2.18 -25.68 C2.59 -25.88, 2.96 -25.95, 3.38 -25.99 C3.8 -26.03, 4.29 -26.04, 4.7 -25.93 C5.12 -25.83, 5.5 -25.62, 5.85 -25.38 C6.2 -25.14, 6.54 -24.8, 6.78 -24.5 C7.02 -24.2, 7.17 -23.87, 7.28 -23.57 C7.4 -23.27, 7.43 -22.97, 7.46 -22.72 C7.5 -22.46, 7.48 -22.27, 7.49 -22.06 C7.5 -21.84, 7.5 -21.73, 7.51 -21.41 C7.52 -21.08, 7.53 -20.67, 7.54 -20.11 C7.55 -19.55, 7.56 -19.32, 7.57 -18.04 C7.57 -16.76, 7.57 -15.23, 7.57 -12.43 C7.57 -9.63, 7.57 -3.29, 7.57 -1.24 C7.57 0.8, 7.57 -0.33, 7.57 -0.14 M0 0 C0 -0.64, 0 -1.76, 0 -3.86 C0 -5.95, 0 -9.77, 0 -12.58 C0 -15.4, -0.03 -18.95, 0 -20.77 C0.03 -22.59, 0.04 -22.83, 0.2 -23.51 C0.36 -24.18, 0.64 -24.44, 0.97 -24.8 C1.3 -25.17, 1.78 -25.48, 2.18 -25.68 C2.59 -25.88, 2.96 -25.95, 3.38 -25.99 C3.8 -26.03, 4.29 -26.04, 4.7 -25.93 C5.12 -25.83, 5.5 -25.62, 5.85 -25.38 C6.2 -25.14, 6.54 -24.8, 6.78 -24.5 C7.02 -24.2, 7.17 -23.87, 7.28 -23.57 C7.4 -23.27, 7.43 -22.97, 7.46 -22.72 C7.5 -22.46, 7.48 -22.27, 7.49 -22.06 C7.5 -21.84, 7.5 -21.73, 7.51 -21.41 C7.52 -21.08, 7.53 -20.67, 7.54 -20.11 C7.55 -19.55, 7.56 -19.32, 7.57 -18.04 C7.57 -16.76, 7.57 -15.23, 7.57 -12.43 C7.57 -9.63, 7.57 -3.29, 7.57 -1.24 C7.57 0.8, 7.57 -0.33, 7.57 -0.14" stroke="#E1E1E1" stroke-width="2" fill="none"></path></g></g><mask></mask></svg>