<svg version="1.1" xmlns="http://www.w3.org/2000/svg" viewBox="0 0 372.71278685417496 391.1249614275776" width="372.71278685417496" height="391.1249614275776" class="excalidraw-svg"><!-- svg-source:excalidraw --><metadata></metadata><defs><style class="style-fonts">
      </style></defs><rect x="0" y="0" width="372.71278685417496" height="391.1249614275776" fill="#000000"></rect><g stroke-linecap="round"><g transform="translate(360.2831438525129 171.7349682766889) rotate(0 -152.08435412788242 95.12307519814499)"><path d="M0 0 C-4.85 2.76, -20.74 11.73, -29.11 16.58 C-37.47 21.42, -44.12 25.19, -50.19 29.07 C-56.25 32.95, -59.03 35.03, -65.49 39.86 C-71.95 44.69, -81.55 52.42, -88.95 58.05 C-96.35 63.69, -103.71 68.9, -109.91 73.69 C-116.1 78.48, -121.6 83.16, -126.12 86.81 C-130.63 90.46, -134.16 93.56, -137.01 95.62 C-139.87 97.68, -141.15 96.97, -143.27 99.17 C-145.39 101.36, -147.13 104.69, -149.75 108.78 C-152.37 112.87, -154.13 117.45, -158.99 123.73 C-163.85 130, -172 139.3, -178.93 146.42 C-185.85 153.54, -194.62 160.97, -200.52 166.46 C-206.41 171.95, -210.03 175.96, -214.28 179.36 C-218.54 182.77, -222.29 185.1, -226.03 186.91 C-229.76 188.73, -232.78 189.74, -236.68 190.25 C-240.59 190.75, -245.58 190.33, -249.47 189.96 C-253.35 189.58, -256.93 189.35, -260 187.99 C-263.06 186.64, -266.22 184.37, -267.87 181.81 C-269.53 179.24, -270.4 175.55, -269.92 172.6 C-269.44 169.64, -268.31 167.23, -264.99 164.09 C-261.66 160.95, -250.31 154.18, -249.97 153.77 C-249.62 153.36, -259.57 159.48, -262.92 161.65 C-266.26 163.82, -268.43 164.68, -270.01 166.77 C-271.6 168.86, -271.41 173.09, -272.42 174.18 C-273.44 175.27, -273.69 173.97, -276.12 173.32 C-278.56 172.68, -283.69 171.55, -287.03 170.3 C-290.37 169.06, -293.7 167.75, -296.18 165.87 C-298.66 164, -300.7 161.82, -301.91 159.04 C-303.11 156.27, -304.69 152.52, -303.4 149.21 C-302.1 145.91, -297.52 142.2, -294.11 139.2 C-290.71 136.2, -283.59 131.88, -282.97 131.23 C-282.35 130.57, -287.71 133.61, -290.41 135.26 C-293.11 136.92, -296.88 139.18, -299.17 141.14 C-301.46 143.1, -303.34 146.04, -304.17 147.02 M0 0 C-4.85 2.76, -20.74 11.73, -29.11 16.58 C-37.47 21.42, -44.12 25.19, -50.19 29.07 C-56.25 32.95, -59.03 35.03, -65.49 39.86 C-71.95 44.69, -81.55 52.42, -88.95 58.05 C-96.35 63.69, -103.71 68.9, -109.91 73.69 C-116.1 78.48, -121.6 83.16, -126.12 86.81 C-130.63 90.46, -134.16 93.56, -137.01 95.62 C-139.87 97.68, -141.15 96.97, -143.27 99.17 C-145.39 101.36, -147.13 104.69, -149.75 108.78 C-152.37 112.87, -154.13 117.45, -158.99 123.73 C-163.85 130, -172 139.3, -178.93 146.42 C-185.85 153.54, -194.62 160.97, -200.52 166.46 C-206.41 171.95, -210.03 175.96, -214.28 179.36 C-218.54 182.77, -222.29 185.1, -226.03 186.91 C-229.76 188.73, -232.78 189.74, -236.68 190.25 C-240.59 190.75, -245.58 190.33, -249.47 189.96 C-253.35 189.58, -256.93 189.35, -260 187.99 C-263.06 186.64, -266.22 184.37, -267.87 181.81 C-269.53 179.24, -270.4 175.55, -269.92 172.6 C-269.44 169.64, -268.31 167.23, -264.99 164.09 C-261.66 160.95, -250.31 154.18, -249.97 153.77 C-249.62 153.36, -259.57 159.48, -262.92 161.65 C-266.26 163.82, -268.43 164.68, -270.01 166.77 C-271.6 168.86, -271.41 173.09, -272.42 174.18 C-273.44 175.27, -273.69 173.97, -276.12 173.32 C-278.56 172.68, -283.69 171.55, -287.03 170.3 C-290.37 169.06, -293.7 167.75, -296.18 165.87 C-298.66 164, -300.7 161.82, -301.91 159.04 C-303.11 156.27, -304.69 152.52, -303.4 149.21 C-302.1 145.91, -297.52 142.2, -294.11 139.2 C-290.71 136.2, -283.59 131.88, -282.97 131.23 C-282.35 130.57, -287.71 133.61, -290.41 135.26 C-293.11 136.92, -296.88 139.18, -299.17 141.14 C-301.46 143.1, -303.34 146.04, -304.17 147.02" stroke="#E1E1E1" stroke-width="2" fill="none"></path></g></g><mask></mask><g stroke-linecap="round"><g transform="translate(53.94954658312963 320.2891306933056) rotate(0 -0.14006889894812957 -1.0458439476997796)"><path d="M0 0 C-0.05 -0.03, -0.23 -0.01, -0.29 -0.2 C-0.36 -0.39, -0.47 -0.82, -0.4 -1.14 C-0.33 -1.45, 0.03 -1.93, 0.12 -2.09 M0 0 C-0.05 -0.03, -0.23 -0.01, -0.29 -0.2 C-0.36 -0.39, -0.47 -0.82, -0.4 -1.14 C-0.33 -1.45, 0.03 -1.93, 0.12 -2.09" stroke="#E1E1E1" stroke-width="2" fill="none"></path></g></g><mask></mask><g stroke-linecap="round"><g transform="translate(54.11121168184536 318.1585448256007) rotate(0 0.026925564625344123 0.3150249169559629)"><path d="M0 0 C0.01 0.11, 0.04 0.53, 0.05 0.63 M0 0 C0.01 0.11, 0.04 0.53, 0.05 0.63" stroke="#E1E1E1" stroke-width="2" fill="none"></path></g></g><mask></mask><g stroke-linecap="round"><g transform="translate(54.18373787658379 318.8543607297458) rotate(0 0.48671607464223143 -0.3319246911468099)"><path d="M0 0 C0.07 0, 0.28 0.13, 0.44 0.02 C0.6 -0.09, 0.88 -0.57, 0.97 -0.68 M0 0 C0.07 0, 0.28 0.13, 0.44 0.02 C0.6 -0.09, 0.88 -0.57, 0.97 -0.68" stroke="#E1E1E1" stroke-width="2" fill="none"></path></g></g><mask></mask><g stroke-linecap="round"><g transform="translate(55.16799739617272 318.1520709604394) rotate(0 -0.13001383809285016 1.8605890621741992)"><path d="M0 0 C0.08 0.05, 0.31 0.13, 0.46 0.28 C0.61 0.42, 0.85 0.65, 0.93 0.87 C1.01 1.09, 1.06 1.39, 0.95 1.62 C0.84 1.85, 0.46 2.04, 0.25 2.24 C0.04 2.44, -0.1 2.56, -0.32 2.81 C-0.54 3.06, -0.91 3.76, -1.06 3.72 C-1.2 3.69, -1.19 2.85, -1.21 2.59 C-1.23 2.33, -1.19 2.23, -1.19 2.16 M0 0 C0.08 0.05, 0.31 0.13, 0.46 0.28 C0.61 0.42, 0.85 0.65, 0.93 0.87 C1.01 1.09, 1.06 1.39, 0.95 1.62 C0.84 1.85, 0.46 2.04, 0.25 2.24 C0.04 2.44, -0.1 2.56, -0.32 2.81 C-0.54 3.06, -0.91 3.76, -1.06 3.72 C-1.2 3.69, -1.19 2.85, -1.21 2.59 C-1.23 2.33, -1.19 2.23, -1.19 2.16" stroke="#E1E1E1" stroke-width="2" fill="none"></path></g></g><mask></mask><g stroke-linecap="round"><g transform="translate(44.93809169681549 320.5095622036644) rotate(0 -0.36306063124357024 -0.5455219610728363)"><path d="M0 0 C-0.01 -0.12, 0.04 -0.53, -0.08 -0.71 C-0.2 -0.89, -0.62 -1.03, -0.73 -1.09 M0 0 C-0.01 -0.12, 0.04 -0.53, -0.08 -0.71 C-0.2 -0.89, -0.62 -1.03, -0.73 -1.09" stroke="#E1E1E1" stroke-width="2" fill="none"></path></g></g><mask></mask><g stroke-linecap="round"><g transform="translate(44.3024853166155 319.41954945964295) rotate(0 1.48037059367266 -1.0707925505150797)"><path d="M0 0 C0.1 -0.08, 0.41 -0.22, 0.57 -0.45 C0.73 -0.68, 0.8 -1.12, 0.96 -1.4 C1.13 -1.68, 1.33 -2.04, 1.56 -2.14 C1.79 -2.25, 2.1 -2.11, 2.33 -2.02 C2.57 -1.92, 2.86 -1.64, 2.96 -1.57 M0 0 C0.1 -0.08, 0.41 -0.22, 0.57 -0.45 C0.73 -0.68, 0.8 -1.12, 0.96 -1.4 C1.13 -1.68, 1.33 -2.04, 1.56 -2.14 C1.79 -2.25, 2.1 -2.11, 2.33 -2.02 C2.57 -1.92, 2.86 -1.64, 2.96 -1.57" stroke="#E1E1E1" stroke-width="2" fill="none"></path></g></g><mask></mask><g stroke-linecap="round"><g transform="translate(47.25956045090038 317.92119017842157) rotate(0 -0.18102922750199468 0.6423380398924792)"><path d="M0 0 C-0.06 0.09, -0.31 0.35, -0.36 0.57 C-0.42 0.78, -0.34 1.16, -0.33 1.28 M0 0 C-0.06 0.09, -0.31 0.35, -0.36 0.57 C-0.42 0.78, -0.34 1.16, -0.33 1.28" stroke="#E1E1E1" stroke-width="2" fill="none"></path></g></g><mask></mask><g stroke-linecap="round"><g transform="translate(46.935254930826204 319.21216826034714) rotate(0 -0.6118323537169772 0.5633954466903788)"><path d="M0 0 C0.12 -0.03, 0.7 -0.27, 0.7 -0.21 C0.7 -0.14, 0.32 0.21, 0.02 0.4 C-0.28 0.6, -0.77 0.82, -1.09 0.97 C-1.42 1.13, -1.78 1.27, -1.92 1.33 M0 0 C0.12 -0.03, 0.7 -0.27, 0.7 -0.21 C0.7 -0.14, 0.32 0.21, 0.02 0.4 C-0.28 0.6, -0.77 0.82, -1.09 0.97 C-1.42 1.13, -1.78 1.27, -1.92 1.33" stroke="#E1E1E1" stroke-width="2" fill="none"></path></g></g><mask></mask><g stroke-linecap="round"><g transform="translate(52.81345145546425 320.62900700305573) rotate(0 -6.384493705130353 4.71811522707435)"><path d="M0 0 C0.09 0.06, 0.45 0.1, 0.56 0.33 C0.66 0.57, 0.55 1.12, 0.61 1.42 C0.68 1.71, 1 1.9, 0.93 2.1 C0.85 2.29, 0.58 2.35, 0.17 2.6 C-0.25 2.85, -0.92 3.26, -1.55 3.6 C-2.18 3.94, -2.84 4.26, -3.64 4.65 C-4.43 5.03, -5.45 5.53, -6.31 5.92 C-7.18 6.3, -8.05 6.62, -8.83 6.98 C-9.61 7.33, -10.33 7.71, -10.99 8.04 C-11.65 8.37, -12.33 8.72, -12.78 8.95 C-13.23 9.18, -13.54 9.36, -13.69 9.44 M0 0 C0.09 0.06, 0.45 0.1, 0.56 0.33 C0.66 0.57, 0.55 1.12, 0.61 1.42 C0.68 1.71, 1 1.9, 0.93 2.1 C0.85 2.29, 0.58 2.35, 0.17 2.6 C-0.25 2.85, -0.92 3.26, -1.55 3.6 C-2.18 3.94, -2.84 4.26, -3.64 4.65 C-4.43 5.03, -5.45 5.53, -6.31 5.92 C-7.18 6.3, -8.05 6.62, -8.83 6.98 C-9.61 7.33, -10.33 7.71, -10.99 8.04 C-11.65 8.37, -12.33 8.72, -12.78 8.95 C-13.23 9.18, -13.54 9.36, -13.69 9.44" stroke="#E1E1E1" stroke-width="2" fill="none"></path></g></g><mask></mask><g stroke-linecap="round"><g transform="translate(39.04714293604047 330.0702445788983) rotate(0 0.6069745380223139 7.654761487452561)"><path d="M0 0 C0 0.18, -0.02 0.59, 0.02 1.1 C0.07 1.6, 0.15 2.34, 0.27 3.03 C0.39 3.73, 0.59 4.4, 0.72 5.28 C0.86 6.15, 1 7.26, 1.07 8.29 C1.14 9.32, 1.11 10.57, 1.13 11.46 C1.15 12.35, 1.2 12.97, 1.21 13.61 C1.23 14.25, 1.21 15.03, 1.21 15.31 M0 0 C0 0.18, -0.02 0.59, 0.02 1.1 C0.07 1.6, 0.15 2.34, 0.27 3.03 C0.39 3.73, 0.59 4.4, 0.72 5.28 C0.86 6.15, 1 7.26, 1.07 8.29 C1.14 9.32, 1.11 10.57, 1.13 11.46 C1.15 12.35, 1.2 12.97, 1.21 13.61 C1.23 14.25, 1.21 15.03, 1.21 15.31" stroke="#E1E1E1" stroke-width="2" fill="none"></path></g></g><mask></mask><g stroke-linecap="round"><g transform="translate(40.31693567823231 345.2822642914369) rotate(0 36.13851923618961 15.557166846304995)"><path d="M0 0 C0.27 0.14, 0.96 0.45, 1.64 0.81 C2.32 1.17, 3.26 1.62, 4.09 2.17 C4.92 2.71, 5.8 3.41, 6.61 4.07 C7.43 4.74, 8.31 5.5, 8.99 6.16 C9.67 6.82, 10.24 7.48, 10.69 8.06 C11.14 8.64, 11.5 9.17, 11.69 9.64 C11.89 10.12, 11.89 10.5, 11.87 10.91 C11.84 11.32, 11.65 11.8, 11.53 12.12 C11.4 12.44, 11.21 12.53, 11.12 12.84 C11.04 13.15, 11.16 13.45, 11.04 13.96 C10.92 14.47, 10.55 15.33, 10.4 15.91 C10.25 16.48, 10.3 16.86, 10.14 17.42 C9.99 17.97, 9.63 18.64, 9.48 19.23 C9.33 19.83, 9.36 20.58, 9.24 21 C9.13 21.42, 8.92 21.46, 8.78 21.75 C8.65 22.05, 8.51 22.47, 8.42 22.79 C8.34 23.11, 8.16 23.53, 8.3 23.67 C8.43 23.82, 8.89 23.68, 9.24 23.67 C9.59 23.67, 10.04 23.66, 10.4 23.65 C10.77 23.63, 11.16 23.5, 11.41 23.58 C11.66 23.67, 11.95 24.05, 11.89 24.14 C11.83 24.23, 11.28 24, 11.06 24.12 C10.85 24.24, 10.53 24.72, 10.61 24.85 C10.68 24.99, 10.9 24.92, 11.51 24.94 C12.13 24.96, 13.27 24.96, 14.3 24.98 C15.33 24.99, 16.42 25, 17.68 25 C18.94 25.01, 20.48 25, 21.87 25.01 C23.27 25.02, 24.57 25.05, 26.06 25.05 C27.55 25.05, 29.58 25.02, 30.81 25.02 C32.04 25.02, 32.53 24.9, 33.43 25.04 C34.34 25.19, 35.18 25.53, 36.24 25.9 C37.3 26.27, 38.79 26.81, 39.79 27.27 C40.79 27.73, 41.51 28.18, 42.24 28.66 C42.97 29.14, 43.71 29.76, 44.18 30.16 C44.65 30.56, 44.64 30.9, 45.03 31.06 C45.43 31.21, 45.82 31.11, 46.54 31.11 C47.27 31.12, 48.32 31.12, 49.4 31.08 C50.47 31.05, 51.86 30.96, 53.01 30.91 C54.16 30.86, 54.84 30.84, 56.32 30.79 C57.81 30.73, 60.44 30.64, 61.92 30.59 C63.4 30.53, 64.52 30.51, 65.2 30.46 C65.89 30.4, 65.76 30.48, 66.03 30.27 C66.29 30.06, 66.38 29.84, 66.77 29.21 C67.16 28.58, 67.86 27.33, 68.36 26.49 C68.87 25.65, 69.37 24.88, 69.82 24.16 C70.26 23.45, 70.72 22.71, 71.04 22.2 C71.36 21.69, 71.53 21.43, 71.74 21.1 C71.94 20.77, 72.3 20.44, 72.28 20.24 C72.26 20.05, 72.13 20.13, 71.62 19.94 C71.1 19.74, 70.09 19.39, 69.19 19.08 C68.29 18.78, 67.24 18.51, 66.22 18.12 C65.21 17.72, 63.95 17.15, 63.1 16.71 C62.25 16.28, 61.57 15.84, 61.13 15.51 C60.69 15.17, 60.58 14.83, 60.47 14.69 M0 0 C0.27 0.14, 0.96 0.45, 1.64 0.81 C2.32 1.17, 3.26 1.62, 4.09 2.17 C4.92 2.71, 5.8 3.41, 6.61 4.07 C7.43 4.74, 8.31 5.5, 8.99 6.16 C9.67 6.82, 10.24 7.48, 10.69 8.06 C11.14 8.64, 11.5 9.17, 11.69 9.64 C11.89 10.12, 11.89 10.5, 11.87 10.91 C11.84 11.32, 11.65 11.8, 11.53 12.12 C11.4 12.44, 11.21 12.53, 11.12 12.84 C11.04 13.15, 11.16 13.45, 11.04 13.96 C10.92 14.47, 10.55 15.33, 10.4 15.91 C10.25 16.48, 10.3 16.86, 10.14 17.42 C9.99 17.97, 9.63 18.64, 9.48 19.23 C9.33 19.83, 9.36 20.58, 9.24 21 C9.13 21.42, 8.92 21.46, 8.78 21.75 C8.65 22.05, 8.51 22.47, 8.42 22.79 C8.34 23.11, 8.16 23.53, 8.3 23.67 C8.43 23.82, 8.89 23.68, 9.24 23.67 C9.59 23.67, 10.04 23.66, 10.4 23.65 C10.77 23.63, 11.16 23.5, 11.41 23.58 C11.66 23.67, 11.95 24.05, 11.89 24.14 C11.83 24.23, 11.28 24, 11.06 24.12 C10.85 24.24, 10.53 24.72, 10.61 24.85 C10.68 24.99, 10.9 24.92, 11.51 24.94 C12.13 24.96, 13.27 24.96, 14.3 24.98 C15.33 24.99, 16.42 25, 17.68 25 C18.94 25.01, 20.48 25, 21.87 25.01 C23.27 25.02, 24.57 25.05, 26.06 25.05 C27.55 25.05, 29.58 25.02, 30.81 25.02 C32.04 25.02, 32.53 24.9, 33.43 25.04 C34.34 25.19, 35.18 25.53, 36.24 25.9 C37.3 26.27, 38.79 26.81, 39.79 27.27 C40.79 27.73, 41.51 28.18, 42.24 28.66 C42.97 29.14, 43.71 29.76, 44.18 30.16 C44.65 30.56, 44.64 30.9, 45.03 31.06 C45.43 31.21, 45.82 31.11, 46.54 31.11 C47.27 31.12, 48.32 31.12, 49.4 31.08 C50.47 31.05, 51.86 30.96, 53.01 30.91 C54.16 30.86, 54.84 30.84, 56.32 30.79 C57.81 30.73, 60.44 30.64, 61.92 30.59 C63.4 30.53, 64.52 30.51, 65.2 30.46 C65.89 30.4, 65.76 30.48, 66.03 30.27 C66.29 30.06, 66.38 29.84, 66.77 29.21 C67.16 28.58, 67.86 27.33, 68.36 26.49 C68.87 25.65, 69.37 24.88, 69.82 24.16 C70.26 23.45, 70.72 22.71, 71.04 22.2 C71.36 21.69, 71.53 21.43, 71.74 21.1 C71.94 20.77, 72.3 20.44, 72.28 20.24 C72.26 20.05, 72.13 20.13, 71.62 19.94 C71.1 19.74, 70.09 19.39, 69.19 19.08 C68.29 18.78, 67.24 18.51, 66.22 18.12 C65.21 17.72, 63.95 17.15, 63.1 16.71 C62.25 16.28, 61.57 15.84, 61.13 15.51 C60.69 15.17, 60.58 14.83, 60.47 14.69" stroke="#E1E1E1" stroke-width="2" fill="none"></path></g></g><mask></mask><g stroke-linecap="round"><g transform="translate(156.47377555330945 341.31525828826165) rotate(0 101.19756003830219 -4.5153516256789885)"><path d="M0 0 C1 0, 3.04 0.05, 6.01 -0.02 C8.98 -0.08, 13.05 -0.22, 17.82 -0.4 C22.59 -0.58, 30.58 -0.91, 34.61 -1.07 C38.65 -1.24, 39.34 -1.25, 42.02 -1.38 C44.71 -1.5, 45.5 -1.54, 50.74 -1.8 C55.99 -2.07, 66.47 -2.65, 73.48 -2.97 C80.5 -3.28, 87.4 -3.46, 92.83 -3.7 C98.25 -3.94, 100.69 -4.09, 106.03 -4.42 C111.37 -4.74, 117.39 -5.26, 124.85 -5.65 C132.3 -6.04, 143.5 -6.4, 150.75 -6.73 C158 -7.06, 162.19 -7.33, 168.32 -7.63 C174.46 -7.93, 181.89 -8.3, 187.56 -8.53 C193.24 -8.76, 199.92 -8.95, 202.4 -9.03 M0 0 C1 0, 3.04 0.05, 6.01 -0.02 C8.98 -0.08, 13.05 -0.22, 17.82 -0.4 C22.59 -0.58, 30.58 -0.91, 34.61 -1.07 C38.65 -1.24, 39.34 -1.25, 42.02 -1.38 C44.71 -1.5, 45.5 -1.54, 50.74 -1.8 C55.99 -2.07, 66.47 -2.65, 73.48 -2.97 C80.5 -3.28, 87.4 -3.46, 92.83 -3.7 C98.25 -3.94, 100.69 -4.09, 106.03 -4.42 C111.37 -4.74, 117.39 -5.26, 124.85 -5.65 C132.3 -6.04, 143.5 -6.4, 150.75 -6.73 C158 -7.06, 162.19 -7.33, 168.32 -7.63 C174.46 -7.93, 181.89 -8.3, 187.56 -8.53 C193.24 -8.76, 199.92 -8.95, 202.4 -9.03" stroke="#E1E1E1" stroke-width="1" fill="none"></path></g></g><mask></mask><g stroke-linecap="round"><g transform="translate(31.15528562085501 378.90062107550335) rotate(0 21.9287909594251 -3.7730431764044283)"><path d="M0 0 C-0.13 0.11, -0.83 0.54, -0.8 0.64 C-0.76 0.74, -0.59 0.65, 0.2 0.62 C1 0.59, 2.64 0.57, 3.99 0.47 C5.34 0.37, 6.67 0.15, 8.29 0.03 C9.91 -0.09, 12.18 -0.14, 13.71 -0.25 C15.24 -0.35, 15.73 -0.47, 17.47 -0.58 C19.21 -0.7, 22.48 -0.81, 24.15 -0.93 C25.83 -1.06, 25.29 -1.22, 27.53 -1.34 C29.78 -1.45, 35.39 -1.57, 37.62 -1.61 C39.85 -1.65, 39.75 -1.6, 40.93 -1.59 C42.1 -1.58, 44.11 -1.36, 44.66 -1.56 C45.2 -1.76, 44.49 -2.25, 44.18 -2.79 C43.87 -3.33, 43.27 -4.27, 42.8 -4.78 C42.32 -5.28, 41.86 -5.49, 41.33 -5.84 C40.79 -6.2, 40.06 -6.71, 39.6 -6.91 C39.13 -7.11, 39.25 -7, 38.52 -7.04 C37.8 -7.07, 36.55 -7.09, 35.23 -7.11 C33.92 -7.13, 32.18 -7.12, 30.64 -7.14 C29.1 -7.17, 27.42 -7.2, 26 -7.24 C24.58 -7.27, 23.55 -7.31, 22.12 -7.33 C20.69 -7.36, 18.2 -7.23, 17.41 -7.38 C16.62 -7.52, 17.39 -8.05, 17.38 -8.18 M0 0 C-0.13 0.11, -0.83 0.54, -0.8 0.64 C-0.76 0.74, -0.59 0.65, 0.2 0.62 C1 0.59, 2.64 0.57, 3.99 0.47 C5.34 0.37, 6.67 0.15, 8.29 0.03 C9.91 -0.09, 12.18 -0.14, 13.71 -0.25 C15.24 -0.35, 15.73 -0.47, 17.47 -0.58 C19.21 -0.7, 22.48 -0.81, 24.15 -0.93 C25.83 -1.06, 25.29 -1.22, 27.53 -1.34 C29.78 -1.45, 35.39 -1.57, 37.62 -1.61 C39.85 -1.65, 39.75 -1.6, 40.93 -1.59 C42.1 -1.58, 44.11 -1.36, 44.66 -1.56 C45.2 -1.76, 44.49 -2.25, 44.18 -2.79 C43.87 -3.33, 43.27 -4.27, 42.8 -4.78 C42.32 -5.28, 41.86 -5.49, 41.33 -5.84 C40.79 -6.2, 40.06 -6.71, 39.6 -6.91 C39.13 -7.11, 39.25 -7, 38.52 -7.04 C37.8 -7.07, 36.55 -7.09, 35.23 -7.11 C33.92 -7.13, 32.18 -7.12, 30.64 -7.14 C29.1 -7.17, 27.42 -7.2, 26 -7.24 C24.58 -7.27, 23.55 -7.31, 22.12 -7.33 C20.69 -7.36, 18.2 -7.23, 17.41 -7.38 C16.62 -7.52, 17.39 -8.05, 17.38 -8.18" stroke="#E1E1E1" stroke-width="1" fill="none"></path></g></g><mask></mask><g stroke-linecap="round"><g transform="translate(25.627136077073146 379.46781085645165) rotate(0 0.5762624307477608 0.47984816822270204)"><path d="M0 0 C0.19 0.16, 0.96 0.8, 1.15 0.96 M0 0 C0.19 0.16, 0.96 0.8, 1.15 0.96" stroke="#E1E1E1" stroke-width="1" fill="none"></path></g></g><mask></mask><g stroke-linecap="round"><g transform="translate(26.814684238484233 380.5108166042052) rotate(0 167.94905130784537 -6.661734108564588)"><path d="M0 0 C0.01 0.07, -0.32 0.42, 0.04 0.45 C0.4 0.48, 0.16 0.36, 2.15 0.19 C4.14 0.03, 9.12 -0.34, 11.98 -0.54 C14.83 -0.74, 16.61 -0.88, 19.28 -1.01 C21.96 -1.13, 25.06 -1.27, 28.02 -1.3 C30.98 -1.33, 34.39 -1.25, 37.05 -1.17 C39.7 -1.1, 41.91 -0.95, 43.96 -0.86 C46.02 -0.77, 48.01 -0.73, 49.38 -0.66 C50.75 -0.58, 51.68 -0.61, 52.19 -0.4 C52.71 -0.2, 51.9 0.42, 52.44 0.56 C52.99 0.71, 53.38 0.5, 55.48 0.46 C57.59 0.43, 61.63 0.38, 65.07 0.36 C68.51 0.33, 73.67 0.33, 76.14 0.29 C78.61 0.25, 78.57 0.43, 79.9 0.13 C81.23 -0.17, 82.85 -1.02, 84.12 -1.48 C85.38 -1.94, 86.31 -2.39, 87.47 -2.63 C88.64 -2.88, 89.81 -2.93, 91.11 -2.95 C92.41 -2.97, 94.18 -2.7, 95.26 -2.77 C96.33 -2.85, 96.85 -3.09, 97.56 -3.41 C98.28 -3.72, 99.19 -4.24, 99.53 -4.65 C99.88 -5.06, 99.83 -5.58, 99.65 -5.87 C99.47 -6.17, 99.01 -6.41, 98.44 -6.43 C97.86 -6.46, 97.04 -6.15, 96.21 -6.02 C95.38 -5.89, 94.36 -5.76, 93.45 -5.65 C92.54 -5.55, 91.39 -5.48, 90.75 -5.38 C90.11 -5.27, 89.89 -5.16, 89.6 -5.02 C89.31 -4.89, 89.4 -4.65, 89.02 -4.56 C88.64 -4.46, 87.72 -4.47, 87.3 -4.46 C86.88 -4.45, 86.59 -4.35, 86.5 -4.5 C86.41 -4.65, 86.55 -4.73, 86.77 -5.35 C87 -5.97, 87.41 -7.14, 87.86 -8.23 C88.31 -9.33, 89.08 -10.97, 89.49 -11.91 C89.91 -12.86, 89.97 -13.59, 90.35 -13.89 C90.72 -14.19, 90.26 -14.01, 91.75 -13.73 C93.24 -13.44, 96.69 -12.64, 99.29 -12.2 C101.88 -11.76, 104.68 -11.43, 107.32 -11.09 C109.96 -10.75, 112.44 -10.47, 115.12 -10.16 C117.79 -9.84, 120.52 -9.52, 123.37 -9.21 C126.22 -8.89, 129.11 -8.52, 132.2 -8.26 C135.29 -8, 138.42 -7.85, 141.9 -7.64 C145.39 -7.42, 148.5 -7.24, 153.09 -6.99 C157.68 -6.75, 164.83 -6.41, 169.46 -6.17 C174.08 -5.92, 176.15 -5.77, 180.84 -5.52 C185.53 -5.27, 191.27 -4.95, 197.61 -4.65 C203.95 -4.35, 212.02 -4.02, 218.89 -3.72 C225.76 -3.42, 230.84 -3.19, 238.84 -2.85 C246.83 -2.51, 256.23 -2.05, 266.87 -1.68 C277.51 -1.3, 293.58 -0.84, 302.68 -0.59 C311.77 -0.34, 315.9 -0.25, 321.43 -0.18 C326.97 -0.12, 333.49 -0.19, 335.9 -0.2 M0 0 C0.01 0.07, -0.32 0.42, 0.04 0.45 C0.4 0.48, 0.16 0.36, 2.15 0.19 C4.14 0.03, 9.12 -0.34, 11.98 -0.54 C14.83 -0.74, 16.61 -0.88, 19.28 -1.01 C21.96 -1.13, 25.06 -1.27, 28.02 -1.3 C30.98 -1.33, 34.39 -1.25, 37.05 -1.17 C39.7 -1.1, 41.91 -0.95, 43.96 -0.86 C46.02 -0.77, 48.01 -0.73, 49.38 -0.66 C50.75 -0.58, 51.68 -0.61, 52.19 -0.4 C52.71 -0.2, 51.9 0.42, 52.44 0.56 C52.99 0.71, 53.38 0.5, 55.48 0.46 C57.59 0.43, 61.63 0.38, 65.07 0.36 C68.51 0.33, 73.67 0.33, 76.14 0.29 C78.61 0.25, 78.57 0.43, 79.9 0.13 C81.23 -0.17, 82.85 -1.02, 84.12 -1.48 C85.38 -1.94, 86.31 -2.39, 87.47 -2.63 C88.64 -2.88, 89.81 -2.93, 91.11 -2.95 C92.41 -2.97, 94.18 -2.7, 95.26 -2.77 C96.33 -2.85, 96.85 -3.09, 97.56 -3.41 C98.28 -3.72, 99.19 -4.24, 99.53 -4.65 C99.88 -5.06, 99.83 -5.58, 99.65 -5.87 C99.47 -6.17, 99.01 -6.41, 98.44 -6.43 C97.86 -6.46, 97.04 -6.15, 96.21 -6.02 C95.38 -5.89, 94.36 -5.76, 93.45 -5.65 C92.54 -5.55, 91.39 -5.48, 90.75 -5.38 C90.11 -5.27, 89.89 -5.16, 89.6 -5.02 C89.31 -4.89, 89.4 -4.65, 89.02 -4.56 C88.64 -4.46, 87.72 -4.47, 87.3 -4.46 C86.88 -4.45, 86.59 -4.35, 86.5 -4.5 C86.41 -4.65, 86.55 -4.73, 86.77 -5.35 C87 -5.97, 87.41 -7.14, 87.86 -8.23 C88.31 -9.33, 89.08 -10.97, 89.49 -11.91 C89.91 -12.86, 89.97 -13.59, 90.35 -13.89 C90.72 -14.19, 90.26 -14.01, 91.75 -13.73 C93.24 -13.44, 96.69 -12.64, 99.29 -12.2 C101.88 -11.76, 104.68 -11.43, 107.32 -11.09 C109.96 -10.75, 112.44 -10.47, 115.12 -10.16 C117.79 -9.84, 120.52 -9.52, 123.37 -9.21 C126.22 -8.89, 129.11 -8.52, 132.2 -8.26 C135.29 -8, 138.42 -7.85, 141.9 -7.64 C145.39 -7.42, 148.5 -7.24, 153.09 -6.99 C157.68 -6.75, 164.83 -6.41, 169.46 -6.17 C174.08 -5.92, 176.15 -5.77, 180.84 -5.52 C185.53 -5.27, 191.27 -4.95, 197.61 -4.65 C203.95 -4.35, 212.02 -4.02, 218.89 -3.72 C225.76 -3.42, 230.84 -3.19, 238.84 -2.85 C246.83 -2.51, 256.23 -2.05, 266.87 -1.68 C277.51 -1.3, 293.58 -0.84, 302.68 -0.59 C311.77 -0.34, 315.9 -0.25, 321.43 -0.18 C326.97 -0.12, 333.49 -0.19, 335.9 -0.2" stroke="#E1E1E1" stroke-width="1" fill="none"></path></g></g><mask></mask><g stroke-linecap="round"><g transform="translate(48.61733507526856 370.58505068363826) rotate(0 -9.973577499550515 -5.242252576286489)"><path d="M0 0 C-0.08 -0.03, -0.18 -0.18, -0.47 -0.17 C-0.76 -0.15, -1.55 0.23, -1.74 0.08 C-1.93 -0.06, -1.63 -0.45, -1.62 -1.04 C-1.61 -1.63, -1.74 -2.64, -1.67 -3.46 C-1.59 -4.27, -1.35 -4.88, -1.15 -5.91 C-0.94 -6.93, -0.62 -8.62, -0.45 -9.59 C-0.28 -10.55, -0.2 -11.09, -0.12 -11.69 C-0.04 -12.28, -0.05 -12.77, 0.02 -13.15 C0.09 -13.53, 0.38 -13.71, 0.31 -13.94 C0.23 -14.18, 0.12 -14.19, -0.45 -14.55 C-1.01 -14.91, -2.26 -15.69, -3.07 -16.13 C-3.89 -16.56, -4.63 -16.88, -5.36 -17.17 C-6.09 -17.45, -6.9 -17.66, -7.44 -17.83 C-7.97 -18, -8.1 -18.05, -8.57 -18.2 C-9.03 -18.35, -9.75 -18.6, -10.23 -18.73 C-10.71 -18.87, -11.2 -19.06, -11.46 -18.99 C-11.71 -18.93, -11.69 -18.74, -11.79 -18.33 C-11.88 -17.92, -11.94 -17.17, -12.03 -16.54 C-12.11 -15.91, -12.14 -15.27, -12.27 -14.56 C-12.41 -13.85, -12.66 -13.09, -12.84 -12.29 C-13.02 -11.48, -13.04 -10.77, -13.35 -9.72 C-13.67 -8.68, -14.2 -7.39, -14.75 -5.99 C-15.3 -4.59, -16.03 -2.85, -16.67 -1.31 C-17.3 0.23, -18.07 2.11, -18.55 3.25 C-19.02 4.39, -19.23 4.86, -19.52 5.54 C-19.8 6.21, -20.29 6.99, -20.25 7.29 C-20.21 7.58, -19.67 7.31, -19.28 7.29 C-18.88 7.26, -18.32 7.07, -17.88 7.12 C-17.45 7.17, -16.81 7.41, -16.68 7.58 C-16.55 7.75, -16.94 7.99, -17.11 8.15 C-17.28 8.3, -17.62 8.45, -17.72 8.51 M0 0 C-0.08 -0.03, -0.18 -0.18, -0.47 -0.17 C-0.76 -0.15, -1.55 0.23, -1.74 0.08 C-1.93 -0.06, -1.63 -0.45, -1.62 -1.04 C-1.61 -1.63, -1.74 -2.64, -1.67 -3.46 C-1.59 -4.27, -1.35 -4.88, -1.15 -5.91 C-0.94 -6.93, -0.62 -8.62, -0.45 -9.59 C-0.28 -10.55, -0.2 -11.09, -0.12 -11.69 C-0.04 -12.28, -0.05 -12.77, 0.02 -13.15 C0.09 -13.53, 0.38 -13.71, 0.31 -13.94 C0.23 -14.18, 0.12 -14.19, -0.45 -14.55 C-1.01 -14.91, -2.26 -15.69, -3.07 -16.13 C-3.89 -16.56, -4.63 -16.88, -5.36 -17.17 C-6.09 -17.45, -6.9 -17.66, -7.44 -17.83 C-7.97 -18, -8.1 -18.05, -8.57 -18.2 C-9.03 -18.35, -9.75 -18.6, -10.23 -18.73 C-10.71 -18.87, -11.2 -19.06, -11.46 -18.99 C-11.71 -18.93, -11.69 -18.74, -11.79 -18.33 C-11.88 -17.92, -11.94 -17.17, -12.03 -16.54 C-12.11 -15.91, -12.14 -15.27, -12.27 -14.56 C-12.41 -13.85, -12.66 -13.09, -12.84 -12.29 C-13.02 -11.48, -13.04 -10.77, -13.35 -9.72 C-13.67 -8.68, -14.2 -7.39, -14.75 -5.99 C-15.3 -4.59, -16.03 -2.85, -16.67 -1.31 C-17.3 0.23, -18.07 2.11, -18.55 3.25 C-19.02 4.39, -19.23 4.86, -19.52 5.54 C-19.8 6.21, -20.29 6.99, -20.25 7.29 C-20.21 7.58, -19.67 7.31, -19.28 7.29 C-18.88 7.26, -18.32 7.07, -17.88 7.12 C-17.45 7.17, -16.81 7.41, -16.68 7.58 C-16.55 7.75, -16.94 7.99, -17.11 8.15 C-17.28 8.3, -17.62 8.45, -17.72 8.51" stroke="#E1E1E1" stroke-width="2" fill="none"></path></g></g><mask></mask><g stroke-linecap="round"><g transform="translate(25.647743147225356 379.4480604644652) rotate(0 5.702960652150409 -31.622480491065232)"><path d="M0 0 C0.18 -0.47, 0.56 -1.31, 1.1 -2.82 C1.64 -4.32, 2.69 -7.39, 3.24 -9.04 C3.79 -10.68, 4.09 -11.73, 4.4 -12.7 C4.7 -13.68, 4.93 -14.09, 5.08 -14.89 C5.24 -15.69, 5.24 -16.38, 5.33 -17.51 C5.42 -18.64, 5.49 -20.27, 5.61 -21.66 C5.73 -23.05, 5.96 -24.57, 6.06 -25.84 C6.16 -27.11, 6.18 -28.51, 6.2 -29.29 C6.23 -30.07, 6.37 -30.31, 6.19 -30.54 C6.01 -30.78, 5.28 -30.49, 5.13 -30.7 C4.98 -30.91, 5.19 -31.15, 5.3 -31.79 C5.4 -32.43, 5.61 -33.71, 5.77 -34.53 C5.92 -35.36, 6.14 -35.98, 6.2 -36.74 C6.26 -37.51, 6.27 -38.19, 6.12 -39.1 C5.98 -40.01, 5.62 -41.1, 5.33 -42.2 C5.04 -43.29, 4.65 -44.53, 4.37 -45.66 C4.09 -46.8, 3.66 -48.16, 3.63 -48.99 C3.6 -49.82, 3.87 -50.04, 4.21 -50.65 C4.55 -51.27, 5.27 -52.16, 5.67 -52.68 C6.08 -53.21, 6.28 -53.6, 6.62 -53.79 C6.96 -53.98, 7.18 -53.84, 7.7 -53.82 C8.22 -53.8, 9.28 -53.68, 9.74 -53.69 C10.2 -53.69, 10.47 -53.7, 10.46 -53.84 C10.45 -53.97, 10.11 -54.33, 9.68 -54.5 C9.24 -54.66, 8.3 -54.72, 7.85 -54.83 C7.41 -54.94, 7.26 -54.76, 7.01 -55.17 C6.75 -55.58, 6.57 -56.6, 6.33 -57.28 C6.1 -57.97, 5.78 -58.69, 5.6 -59.28 C5.43 -59.86, 5.28 -60.36, 5.29 -60.81 C5.29 -61.26, 5.34 -61.61, 5.62 -61.98 C5.91 -62.35, 6.47 -62.83, 7.02 -63.04 C7.57 -63.25, 8.32 -63.29, 8.91 -63.24 C9.49 -63.2, 10.17 -63.03, 10.56 -62.78 C10.94 -62.53, 11.15 -62.21, 11.21 -61.75 C11.27 -61.3, 10.87 -60.55, 10.9 -60.05 C10.93 -59.55, 11.4 -59.09, 11.41 -58.77 C11.41 -58.46, 11.01 -58.46, 10.94 -58.17 C10.88 -57.88, 10.97 -57.35, 11.01 -57.04 C11.05 -56.72, 11.29 -56.48, 11.17 -56.28 C11.06 -56.08, 10.46 -55.91, 10.32 -55.84 M0 0 C0.18 -0.47, 0.56 -1.31, 1.1 -2.82 C1.64 -4.32, 2.69 -7.39, 3.24 -9.04 C3.79 -10.68, 4.09 -11.73, 4.4 -12.7 C4.7 -13.68, 4.93 -14.09, 5.08 -14.89 C5.24 -15.69, 5.24 -16.38, 5.33 -17.51 C5.42 -18.64, 5.49 -20.27, 5.61 -21.66 C5.73 -23.05, 5.96 -24.57, 6.06 -25.84 C6.16 -27.11, 6.18 -28.51, 6.2 -29.29 C6.23 -30.07, 6.37 -30.31, 6.19 -30.54 C6.01 -30.78, 5.28 -30.49, 5.13 -30.7 C4.98 -30.91, 5.19 -31.15, 5.3 -31.79 C5.4 -32.43, 5.61 -33.71, 5.77 -34.53 C5.92 -35.36, 6.14 -35.98, 6.2 -36.74 C6.26 -37.51, 6.27 -38.19, 6.12 -39.1 C5.98 -40.01, 5.62 -41.1, 5.33 -42.2 C5.04 -43.29, 4.65 -44.53, 4.37 -45.66 C4.09 -46.8, 3.66 -48.16, 3.63 -48.99 C3.6 -49.82, 3.87 -50.04, 4.21 -50.65 C4.55 -51.27, 5.27 -52.16, 5.67 -52.68 C6.08 -53.21, 6.28 -53.6, 6.62 -53.79 C6.96 -53.98, 7.18 -53.84, 7.7 -53.82 C8.22 -53.8, 9.28 -53.68, 9.74 -53.69 C10.2 -53.69, 10.47 -53.7, 10.46 -53.84 C10.45 -53.97, 10.11 -54.33, 9.68 -54.5 C9.24 -54.66, 8.3 -54.72, 7.85 -54.83 C7.41 -54.94, 7.26 -54.76, 7.01 -55.17 C6.75 -55.58, 6.57 -56.6, 6.33 -57.28 C6.1 -57.97, 5.78 -58.69, 5.6 -59.28 C5.43 -59.86, 5.28 -60.36, 5.29 -60.81 C5.29 -61.26, 5.34 -61.61, 5.62 -61.98 C5.91 -62.35, 6.47 -62.83, 7.02 -63.04 C7.57 -63.25, 8.32 -63.29, 8.91 -63.24 C9.49 -63.2, 10.17 -63.03, 10.56 -62.78 C10.94 -62.53, 11.15 -62.21, 11.21 -61.75 C11.27 -61.3, 10.87 -60.55, 10.9 -60.05 C10.93 -59.55, 11.4 -59.09, 11.41 -58.77 C11.41 -58.46, 11.01 -58.46, 10.94 -58.17 C10.88 -57.88, 10.97 -57.35, 11.01 -57.04 C11.05 -56.72, 11.29 -56.48, 11.17 -56.28 C11.06 -56.08, 10.46 -55.91, 10.32 -55.84" stroke="#E1E1E1" stroke-width="2" fill="none"></path></g></g><mask></mask><g stroke-linecap="round"><g transform="translate(36.06862065598011 323.6350902524579) rotate(0 8.364992302084033 -1.230903803458034)"><path d="M0 0 C0.01 0.25, -0.06 1.3, 0.07 1.47 C0.2 1.65, 0.41 1.3, 0.79 1.06 C1.16 0.82, 1.77 0.42, 2.32 0.04 C2.87 -0.34, 3.5 -0.76, 4.09 -1.21 C4.68 -1.66, 5.4 -2.27, 5.85 -2.66 C6.3 -3.05, 6.47 -3.25, 6.79 -3.53 C7.11 -3.81, 7.56 -4.32, 7.78 -4.32 C8.01 -4.31, 8 -3.79, 8.14 -3.5 C8.29 -3.2, 8.5 -2.83, 8.63 -2.56 C8.76 -2.3, 8.98 -2.1, 8.93 -1.93 C8.87 -1.76, 8.53 -1.72, 8.29 -1.53 C8.06 -1.34, 7.9 -1.12, 7.52 -0.8 C7.14 -0.48, 6.38 0.04, 6.02 0.37 C5.66 0.71, 5.53 0.97, 5.35 1.22 C5.16 1.47, 4.79 1.81, 4.92 1.86 C5.05 1.9, 5.54 1.66, 6.11 1.49 C6.68 1.32, 7.25 1.23, 8.33 0.83 C9.41 0.43, 11.61 -0.5, 12.59 -0.9 C13.57 -1.31, 13.69 -1.36, 14.21 -1.61 C14.74 -1.86, 15.31 -2.16, 15.73 -2.4 C16.15 -2.64, 16.56 -2.94, 16.73 -3.05 M0 0 C0.01 0.25, -0.06 1.3, 0.07 1.47 C0.2 1.65, 0.41 1.3, 0.79 1.06 C1.16 0.82, 1.77 0.42, 2.32 0.04 C2.87 -0.34, 3.5 -0.76, 4.09 -1.21 C4.68 -1.66, 5.4 -2.27, 5.85 -2.66 C6.3 -3.05, 6.47 -3.25, 6.79 -3.53 C7.11 -3.81, 7.56 -4.32, 7.78 -4.32 C8.01 -4.31, 8 -3.79, 8.14 -3.5 C8.29 -3.2, 8.5 -2.83, 8.63 -2.56 C8.76 -2.3, 8.98 -2.1, 8.93 -1.93 C8.87 -1.76, 8.53 -1.72, 8.29 -1.53 C8.06 -1.34, 7.9 -1.12, 7.52 -0.8 C7.14 -0.48, 6.38 0.04, 6.02 0.37 C5.66 0.71, 5.53 0.97, 5.35 1.22 C5.16 1.47, 4.79 1.81, 4.92 1.86 C5.05 1.9, 5.54 1.66, 6.11 1.49 C6.68 1.32, 7.25 1.23, 8.33 0.83 C9.41 0.43, 11.61 -0.5, 12.59 -0.9 C13.57 -1.31, 13.69 -1.36, 14.21 -1.61 C14.74 -1.86, 15.31 -2.16, 15.73 -2.4 C16.15 -2.64, 16.56 -2.94, 16.73 -3.05" stroke="#E1E1E1" stroke-width="2" fill="none"></path></g></g><mask></mask><g stroke-linecap="round"><g transform="translate(53.515385141661 320.2819401943637) rotate(0 -2.910427406223789 -0.4915204835762097)"><path d="M0 0 C-0.19 -0.01, -0.66 0, -1.16 -0.06 C-1.66 -0.12, -2.37 -0.25, -3.01 -0.36 C-3.64 -0.47, -4.5 -0.6, -4.97 -0.7 C-5.44 -0.8, -5.68 -0.94, -5.82 -0.98 M0 0 C-0.19 -0.01, -0.66 0, -1.16 -0.06 C-1.66 -0.12, -2.37 -0.25, -3.01 -0.36 C-3.64 -0.47, -4.5 -0.6, -4.97 -0.7 C-5.44 -0.8, -5.68 -0.94, -5.82 -0.98" stroke="#E1E1E1" stroke-width="2" fill="none"></path></g></g><mask></mask><g stroke-linecap="round"><g transform="translate(45.265443508969156 317.6653981439769) rotate(0 139.68249379615736 -153.83269907198846)"><path d="M0 0 C-0.39 -0.31, -1.46 -1.06, -2.31 -1.83 C-3.16 -2.6, -4.03 -3.38, -5.11 -4.63 C-6.19 -5.87, -7.64 -7.65, -8.81 -9.3 C-9.98 -10.95, -11.26 -13.17, -12.12 -14.52 C-12.97 -15.88, -13.49 -16.47, -13.94 -17.44 C-14.38 -18.41, -14.62 -19.22, -14.78 -20.33 C-14.95 -21.44, -15.08 -22.84, -14.92 -24.1 C-14.76 -25.37, -14.4 -26.55, -13.82 -27.89 C-13.25 -29.23, -12.51 -30.81, -11.46 -32.16 C-10.41 -33.52, -8.87 -34.78, -7.52 -36.02 C-6.17 -37.26, -4.6 -38.47, -3.37 -39.61 C-2.14 -40.75, -0.84 -42.13, -0.12 -42.83 C0.59 -43.53, 0.86 -43.59, 0.91 -43.8 C0.96 -44, 0.69 -44.37, 0.2 -44.07 C-0.29 -43.76, -0.62 -43.15, -2.01 -41.97 C-3.41 -40.79, -6.52 -38.42, -8.15 -36.97 C-9.77 -35.52, -10.68 -34.31, -11.75 -33.26 C-12.82 -32.22, -13.76 -31.15, -14.57 -30.7 C-15.37 -30.26, -15.69 -30.4, -16.58 -30.59 C-17.47 -30.77, -18.7 -31.19, -19.9 -31.83 C-21.09 -32.46, -22.34 -33.28, -23.76 -34.38 C-25.18 -35.48, -27.09 -37.03, -28.43 -38.41 C-29.77 -39.8, -30.82 -41.26, -31.78 -42.69 C-32.75 -44.13, -33.65 -45.5, -34.23 -47.02 C-34.81 -48.54, -35.26 -50.12, -35.27 -51.8 C-35.27 -53.49, -34.86 -55.41, -34.25 -57.11 C-33.64 -58.81, -32.45 -60.63, -31.61 -62.01 C-30.76 -63.4, -29.85 -64.54, -29.16 -65.44 C-28.46 -66.34, -28.04 -67.25, -27.42 -67.42 C-26.8 -67.59, -26.46 -67.09, -25.45 -66.47 C-24.43 -65.85, -22.83 -64.67, -21.32 -63.69 C-19.8 -62.72, -18.24 -61.44, -16.36 -60.62 C-14.48 -59.8, -12.05 -59.29, -10.03 -58.77 C-8.02 -58.25, -6.01 -57.95, -4.26 -57.52 C-2.5 -57.1, 0.26 -56.21, 0.49 -56.22 C0.73 -56.24, -0.94 -56.86, -2.85 -57.61 C-4.76 -58.36, -8.49 -59.73, -10.97 -60.73 C-13.44 -61.73, -15.96 -62.65, -17.7 -63.6 C-19.45 -64.54, -20.16 -65.32, -21.45 -66.39 C-22.73 -67.46, -24.22 -68.49, -25.39 -70.02 C-26.56 -71.55, -27.74 -73.82, -28.47 -75.56 C-29.2 -77.3, -29.56 -78.74, -29.79 -80.46 C-30.01 -82.18, -30.28 -84.12, -29.84 -85.89 C-29.4 -87.65, -28.01 -89.67, -27.15 -91.07 C-26.29 -92.47, -25.7 -92.93, -24.68 -94.26 C-23.66 -95.6, -23.06 -96.73, -21.02 -99.09 C-18.99 -101.44, -16.93 -103.42, -12.46 -108.39 C-8 -113.36, 1.19 -124.45, 5.75 -128.92 C10.31 -133.39, 11.77 -133.96, 14.92 -135.21 C18.06 -136.46, 20.61 -136.29, 24.63 -136.42 C28.66 -136.54, 34.46 -136.17, 39.07 -135.98 C43.69 -135.78, 47.3 -135.58, 52.31 -135.24 C57.32 -134.91, 63.85 -134.58, 69.13 -133.96 C74.41 -133.34, 80.07 -132, 83.99 -131.52 C87.92 -131.03, 89.64 -130.53, 92.7 -131.05 C95.76 -131.57, 99.02 -133.14, 102.35 -134.63 C105.69 -136.12, 109.76 -138.2, 112.72 -140 C115.69 -141.8, 117.01 -142.9, 120.14 -145.42 C123.26 -147.94, 127.4 -151.5, 131.45 -155.14 C135.51 -158.78, 141.25 -164.27, 144.45 -167.29 C147.64 -170.31, 147.99 -170.86, 150.61 -173.25 C153.24 -175.64, 156.01 -178.07, 160.21 -181.61 C164.41 -185.16, 169.15 -189.01, 175.81 -194.53 C182.46 -200.05, 192.25 -208.26, 200.15 -214.73 C208.05 -221.19, 216.59 -227.93, 223.22 -233.32 C229.85 -238.71, 231.55 -240.23, 239.92 -247.05 C248.3 -253.87, 261 -264.17, 273.45 -274.27 C285.9 -284.37, 307.77 -302.1, 314.63 -307.67 M0 0 C-0.39 -0.31, -1.46 -1.06, -2.31 -1.83 C-3.16 -2.6, -4.03 -3.38, -5.11 -4.63 C-6.19 -5.87, -7.64 -7.65, -8.81 -9.3 C-9.98 -10.95, -11.26 -13.17, -12.12 -14.52 C-12.97 -15.88, -13.49 -16.47, -13.94 -17.44 C-14.38 -18.41, -14.62 -19.22, -14.78 -20.33 C-14.95 -21.44, -15.08 -22.84, -14.92 -24.1 C-14.76 -25.37, -14.4 -26.55, -13.82 -27.89 C-13.25 -29.23, -12.51 -30.81, -11.46 -32.16 C-10.41 -33.52, -8.87 -34.78, -7.52 -36.02 C-6.17 -37.26, -4.6 -38.47, -3.37 -39.61 C-2.14 -40.75, -0.84 -42.13, -0.12 -42.83 C0.59 -43.53, 0.86 -43.59, 0.91 -43.8 C0.96 -44, 0.69 -44.37, 0.2 -44.07 C-0.29 -43.76, -0.62 -43.15, -2.01 -41.97 C-3.41 -40.79, -6.52 -38.42, -8.15 -36.97 C-9.77 -35.52, -10.68 -34.31, -11.75 -33.26 C-12.82 -32.22, -13.76 -31.15, -14.57 -30.7 C-15.37 -30.26, -15.69 -30.4, -16.58 -30.59 C-17.47 -30.77, -18.7 -31.19, -19.9 -31.83 C-21.09 -32.46, -22.34 -33.28, -23.76 -34.38 C-25.18 -35.48, -27.09 -37.03, -28.43 -38.41 C-29.77 -39.8, -30.82 -41.26, -31.78 -42.69 C-32.75 -44.13, -33.65 -45.5, -34.23 -47.02 C-34.81 -48.54, -35.26 -50.12, -35.27 -51.8 C-35.27 -53.49, -34.86 -55.41, -34.25 -57.11 C-33.64 -58.81, -32.45 -60.63, -31.61 -62.01 C-30.76 -63.4, -29.85 -64.54, -29.16 -65.44 C-28.46 -66.34, -28.04 -67.25, -27.42 -67.42 C-26.8 -67.59, -26.46 -67.09, -25.45 -66.47 C-24.43 -65.85, -22.83 -64.67, -21.32 -63.69 C-19.8 -62.72, -18.24 -61.44, -16.36 -60.62 C-14.48 -59.8, -12.05 -59.29, -10.03 -58.77 C-8.02 -58.25, -6.01 -57.95, -4.26 -57.52 C-2.5 -57.1, 0.26 -56.21, 0.49 -56.22 C0.73 -56.24, -0.94 -56.86, -2.85 -57.61 C-4.76 -58.36, -8.49 -59.73, -10.97 -60.73 C-13.44 -61.73, -15.96 -62.65, -17.7 -63.6 C-19.45 -64.54, -20.16 -65.32, -21.45 -66.39 C-22.73 -67.46, -24.22 -68.49, -25.39 -70.02 C-26.56 -71.55, -27.74 -73.82, -28.47 -75.56 C-29.2 -77.3, -29.56 -78.74, -29.79 -80.46 C-30.01 -82.18, -30.28 -84.12, -29.84 -85.89 C-29.4 -87.65, -28.01 -89.67, -27.15 -91.07 C-26.29 -92.47, -25.7 -92.93, -24.68 -94.26 C-23.66 -95.6, -23.06 -96.73, -21.02 -99.09 C-18.99 -101.44, -16.93 -103.42, -12.46 -108.39 C-8 -113.36, 1.19 -124.45, 5.75 -128.92 C10.31 -133.39, 11.77 -133.96, 14.92 -135.21 C18.06 -136.46, 20.61 -136.29, 24.63 -136.42 C28.66 -136.54, 34.46 -136.17, 39.07 -135.98 C43.69 -135.78, 47.3 -135.58, 52.31 -135.24 C57.32 -134.91, 63.85 -134.58, 69.13 -133.96 C74.41 -133.34, 80.07 -132, 83.99 -131.52 C87.92 -131.03, 89.64 -130.53, 92.7 -131.05 C95.76 -131.57, 99.02 -133.14, 102.35 -134.63 C105.69 -136.12, 109.76 -138.2, 112.72 -140 C115.69 -141.8, 117.01 -142.9, 120.14 -145.42 C123.26 -147.94, 127.4 -151.5, 131.45 -155.14 C135.51 -158.78, 141.25 -164.27, 144.45 -167.29 C147.64 -170.31, 147.99 -170.86, 150.61 -173.25 C153.24 -175.64, 156.01 -178.07, 160.21 -181.61 C164.41 -185.16, 169.15 -189.01, 175.81 -194.53 C182.46 -200.05, 192.25 -208.26, 200.15 -214.73 C208.05 -221.19, 216.59 -227.93, 223.22 -233.32 C229.85 -238.71, 231.55 -240.23, 239.92 -247.05 C248.3 -253.87, 261 -264.17, 273.45 -274.27 C285.9 -284.37, 307.77 -302.1, 314.63 -307.67" stroke="#E1E1E1" stroke-width="2" fill="none"></path></g></g><mask></mask></svg>