<svg version="1.1" xmlns="http://www.w3.org/2000/svg" viewBox="0 0 176.72113091680976 176.72113091681072" width="176.72113091680976" height="176.72113091681072" class="excalidraw-svg"><!-- svg-source:excalidraw --><metadata></metadata><defs><style class="style-fonts">
      </style></defs><rect x="0" y="0" width="176.72113091680976" height="176.72113091681072" fill="#000000"></rect><g stroke-linecap="round"><g transform="translate(48.046859265537876 42.0302254249973) rotate(0 39.34774095880526 46.72847253823492)"><path d="M0 0 C10.8 -0.02, 51.48 -0.09, 64.78 -0.13 C78.07 -0.16, 76.32 -0.86, 79.78 -0.21 C83.24 0.45, 84.4 1.38, 85.53 3.83 C86.65 6.27, 86.3 1.67, 86.51 14.47 C86.73 27.28, 88.15 67.62, 86.82 80.67 C85.5 93.71, 82.66 90.57, 78.57 92.73 C74.48 94.9, 70.17 93.58, 62.27 93.66 C54.36 93.75, 40.92 93.31, 31.12 93.23 C21.31 93.16, 9.27 93.51, 3.44 93.21 C-2.4 92.9, -1.99 92.65, -3.89 91.42 C-5.79 90.19, -7.26 88.89, -7.97 85.84 C-8.67 82.8, -8.16 78.55, -8.13 73.14 C-8.1 67.73, -7.86 60, -7.77 53.39 C-7.69 46.79, -7.63 39.1, -7.6 33.5 C-7.57 27.9, -7.58 23.8, -7.59 19.79 C-7.6 15.78, -7.92 12.26, -7.67 9.42 C-7.42 6.58, -7.38 4.31, -6.11 2.74 C-4.83 1.18, -1.02 0.46, 0 0 M0 0 C10.8 -0.02, 51.48 -0.09, 64.78 -0.13 C78.07 -0.16, 76.32 -0.86, 79.78 -0.21 C83.24 0.45, 84.4 1.38, 85.53 3.83 C86.65 6.27, 86.3 1.67, 86.51 14.47 C86.73 27.28, 88.15 67.62, 86.82 80.67 C85.5 93.71, 82.66 90.57, 78.57 92.73 C74.48 94.9, 70.17 93.58, 62.27 93.66 C54.36 93.75, 40.92 93.31, 31.12 93.23 C21.31 93.16, 9.27 93.51, 3.44 93.21 C-2.4 92.9, -1.99 92.65, -3.89 91.42 C-5.79 90.19, -7.26 88.89, -7.97 85.84 C-8.67 82.8, -8.16 78.55, -8.13 73.14 C-8.1 67.73, -7.86 60, -7.77 53.39 C-7.69 46.79, -7.63 39.1, -7.6 33.5 C-7.57 27.9, -7.58 23.8, -7.59 19.79 C-7.6 15.78, -7.92 12.26, -7.67 9.42 C-7.42 6.58, -7.38 4.31, -6.11 2.74 C-4.83 1.18, -1.02 0.46, 0 0" stroke="#E1E1E1" stroke-width="4" fill="none"></path></g></g><mask></mask><g stroke-linecap="round" transform="translate(12.513130167048075 34.2047936150575) rotate(0 5.936623298689099 5.936623298689099)"><path d="M11.87 5.94 C11.87 6.28, 11.84 6.63, 11.78 6.97 C11.72 7.31, 11.63 7.64, 11.52 7.97 C11.4 8.29, 11.25 8.61, 11.08 8.9 C10.91 9.2, 10.71 9.49, 10.48 9.75 C10.26 10.02, 10.02 10.26, 9.75 10.48 C9.49 10.71, 9.2 10.91, 8.9 11.08 C8.61 11.25, 8.29 11.4, 7.97 11.52 C7.64 11.63, 7.31 11.72, 6.97 11.78 C6.63 11.84, 6.28 11.87, 5.94 11.87 C5.59 11.87, 5.24 11.84, 4.91 11.78 C4.57 11.72, 4.23 11.63, 3.91 11.52 C3.58 11.4, 3.27 11.25, 2.97 11.08 C2.67 10.91, 2.38 10.71, 2.12 10.48 C1.86 10.26, 1.61 10.02, 1.39 9.75 C1.17 9.49, 0.97 9.2, 0.8 8.9 C0.62 8.61, 0.48 8.29, 0.36 7.97 C0.24 7.64, 0.15 7.31, 0.09 6.97 C0.03 6.63, 0 6.28, 0 5.94 C0 5.59, 0.03 5.24, 0.09 4.91 C0.15 4.57, 0.24 4.23, 0.36 3.91 C0.48 3.58, 0.62 3.27, 0.8 2.97 C0.97 2.67, 1.17 2.38, 1.39 2.12 C1.61 1.86, 1.86 1.61, 2.12 1.39 C2.38 1.17, 2.67 0.97, 2.97 0.8 C3.27 0.62, 3.58 0.48, 3.91 0.36 C4.23 0.24, 4.57 0.15, 4.91 0.09 C5.24 0.03, 5.59 0, 5.94 0 C6.28 0, 6.63 0.03, 6.97 0.09 C7.31 0.15, 7.64 0.24, 7.97 0.36 C8.29 0.48, 8.61 0.62, 8.9 0.8 C9.2 0.97, 9.49 1.17, 9.75 1.39 C10.02 1.61, 10.26 1.86, 10.48 2.12 C10.71 2.38, 10.91 2.67, 11.08 2.97 C11.25 3.27, 11.4 3.58, 11.52 3.91 C11.63 4.23, 11.72 4.57, 11.78 4.91 C11.84 5.24, 11.86 5.76, 11.87 5.94 C11.89 6.11, 11.89 5.76, 11.87 5.94" stroke="#E1E1E1" stroke-width="4" fill="none"></path></g><g stroke-linecap="round" transform="translate(33.85950883082842 12.066571631015904) rotate(0 5.936623298689099 5.936623298689099)"><path d="M11.87 5.94 C11.87 6.28, 11.84 6.63, 11.78 6.97 C11.72 7.31, 11.63 7.64, 11.52 7.97 C11.4 8.29, 11.25 8.61, 11.08 8.9 C10.91 9.2, 10.71 9.49, 10.48 9.75 C10.26 10.02, 10.02 10.26, 9.75 10.48 C9.49 10.71, 9.2 10.91, 8.9 11.08 C8.61 11.25, 8.29 11.4, 7.97 11.52 C7.64 11.63, 7.31 11.72, 6.97 11.78 C6.63 11.84, 6.28 11.87, 5.94 11.87 C5.59 11.87, 5.24 11.84, 4.91 11.78 C4.57 11.72, 4.23 11.63, 3.91 11.52 C3.58 11.4, 3.27 11.25, 2.97 11.08 C2.67 10.91, 2.38 10.71, 2.12 10.48 C1.86 10.26, 1.61 10.02, 1.39 9.75 C1.17 9.49, 0.97 9.2, 0.8 8.9 C0.62 8.61, 0.48 8.29, 0.36 7.97 C0.24 7.64, 0.15 7.31, 0.09 6.97 C0.03 6.63, 0 6.28, 0 5.94 C0 5.59, 0.03 5.24, 0.09 4.91 C0.15 4.57, 0.24 4.23, 0.36 3.91 C0.48 3.58, 0.62 3.27, 0.8 2.97 C0.97 2.67, 1.17 2.38, 1.39 2.12 C1.61 1.86, 1.86 1.61, 2.12 1.39 C2.38 1.17, 2.67 0.97, 2.97 0.8 C3.27 0.62, 3.58 0.48, 3.91 0.36 C4.23 0.24, 4.57 0.15, 4.91 0.09 C5.24 0.03, 5.59 0, 5.94 0 C6.28 0, 6.63 0.03, 6.97 0.09 C7.31 0.15, 7.64 0.24, 7.97 0.36 C8.29 0.48, 8.61 0.62, 8.9 0.8 C9.2 0.97, 9.49 1.17, 9.75 1.39 C10.02 1.61, 10.26 1.86, 10.48 2.12 C10.71 2.38, 10.91 2.67, 11.08 2.97 C11.25 3.27, 11.4 3.58, 11.52 3.91 C11.63 4.23, 11.72 4.57, 11.78 4.91 C11.84 5.24, 11.86 5.76, 11.87 5.94 C11.89 6.11, 11.89 5.76, 11.87 5.94" stroke="#E1E1E1" stroke-width="4" fill="none"></path></g><g stroke-linecap="round" transform="translate(82.5178772338549 10) rotate(0 5.936623298689096 5.936623298689099)"><path d="M11.87 5.94 C11.87 6.28, 11.84 6.63, 11.78 6.97 C11.72 7.31, 11.63 7.64, 11.52 7.97 C11.4 8.29, 11.25 8.61, 11.08 8.9 C10.91 9.2, 10.71 9.49, 10.48 9.75 C10.26 10.02, 10.02 10.26, 9.75 10.48 C9.49 10.71, 9.2 10.91, 8.9 11.08 C8.61 11.25, 8.29 11.4, 7.97 11.52 C7.64 11.63, 7.31 11.72, 6.97 11.78 C6.63 11.84, 6.28 11.87, 5.94 11.87 C5.59 11.87, 5.24 11.84, 4.91 11.78 C4.57 11.72, 4.23 11.63, 3.91 11.52 C3.58 11.4, 3.27 11.25, 2.97 11.08 C2.67 10.91, 2.38 10.71, 2.12 10.48 C1.86 10.26, 1.61 10.02, 1.39 9.75 C1.17 9.49, 0.97 9.2, 0.8 8.9 C0.62 8.61, 0.48 8.29, 0.36 7.97 C0.24 7.64, 0.15 7.31, 0.09 6.97 C0.03 6.63, 0 6.28, 0 5.94 C0 5.59, 0.03 5.24, 0.09 4.91 C0.15 4.57, 0.24 4.23, 0.36 3.91 C0.48 3.58, 0.62 3.27, 0.8 2.97 C0.97 2.67, 1.17 2.38, 1.39 2.12 C1.61 1.86, 1.86 1.61, 2.12 1.39 C2.38 1.17, 2.67 0.97, 2.97 0.8 C3.27 0.62, 3.58 0.48, 3.91 0.36 C4.23 0.24, 4.57 0.15, 4.91 0.09 C5.24 0.03, 5.59 0, 5.94 0 C6.28 0, 6.63 0.03, 6.97 0.09 C7.31 0.15, 7.64 0.24, 7.97 0.36 C8.29 0.48, 8.61 0.62, 8.9 0.8 C9.2 0.97, 9.49 1.17, 9.75 1.39 C10.02 1.61, 10.26 1.86, 10.48 2.12 C10.71 2.38, 10.91 2.67, 11.08 2.97 C11.25 3.27, 11.4 3.58, 11.52 3.91 C11.63 4.23, 11.72 4.57, 11.78 4.91 C11.84 5.24, 11.86 5.76, 11.87 5.94 C11.89 6.11, 11.89 5.76, 11.87 5.94" stroke="#E1E1E1" stroke-width="4" fill="none"></path></g><g stroke-linecap="round" transform="translate(130.8005053403321 12.254441779290573) rotate(0 5.9366232986890966 5.936623298689099)"><path d="M11.87 5.94 C11.87 6.28, 11.84 6.63, 11.78 6.97 C11.72 7.31, 11.63 7.64, 11.52 7.97 C11.4 8.29, 11.25 8.61, 11.08 8.9 C10.91 9.2, 10.71 9.49, 10.48 9.75 C10.26 10.02, 10.02 10.26, 9.75 10.48 C9.49 10.71, 9.2 10.91, 8.9 11.08 C8.61 11.25, 8.29 11.4, 7.97 11.52 C7.64 11.63, 7.31 11.72, 6.97 11.78 C6.63 11.84, 6.28 11.87, 5.94 11.87 C5.59 11.87, 5.24 11.84, 4.91 11.78 C4.57 11.72, 4.23 11.63, 3.91 11.52 C3.58 11.4, 3.27 11.25, 2.97 11.08 C2.67 10.91, 2.38 10.71, 2.12 10.48 C1.86 10.26, 1.61 10.02, 1.39 9.75 C1.17 9.49, 0.97 9.2, 0.8 8.9 C0.62 8.61, 0.48 8.29, 0.36 7.97 C0.24 7.64, 0.15 7.31, 0.09 6.97 C0.03 6.63, 0 6.28, 0 5.94 C0 5.59, 0.03 5.24, 0.09 4.91 C0.15 4.57, 0.24 4.23, 0.36 3.91 C0.48 3.58, 0.62 3.27, 0.8 2.97 C0.97 2.67, 1.17 2.38, 1.39 2.12 C1.61 1.86, 1.86 1.61, 2.12 1.39 C2.38 1.17, 2.67 0.97, 2.97 0.8 C3.27 0.62, 3.58 0.48, 3.91 0.36 C4.23 0.24, 4.57 0.15, 4.91 0.09 C5.24 0.03, 5.59 0, 5.94 0 C6.28 0, 6.63 0.03, 6.97 0.09 C7.31 0.15, 7.64 0.24, 7.97 0.36 C8.29 0.48, 8.61 0.62, 8.9 0.8 C9.2 0.97, 9.49 1.17, 9.75 1.39 C10.02 1.61, 10.26 1.86, 10.48 2.12 C10.71 2.38, 10.91 2.67, 11.08 2.97 C11.25 3.27, 11.4 3.58, 11.52 3.91 C11.63 4.23, 11.72 4.57, 11.78 4.91 C11.84 5.24, 11.86 5.76, 11.87 5.94 C11.89 6.11, 11.89 5.76, 11.87 5.94" stroke="#E1E1E1" stroke-width="4" fill="none"></path></g><g stroke-linecap="round" transform="translate(152.21770224359346 34.04737897910127) rotate(0 5.936623298689096 5.936623298689099)"><path d="M11.87 5.94 C11.87 6.28, 11.84 6.63, 11.78 6.97 C11.72 7.31, 11.63 7.64, 11.52 7.97 C11.4 8.29, 11.25 8.61, 11.08 8.9 C10.91 9.2, 10.71 9.49, 10.48 9.75 C10.26 10.02, 10.02 10.26, 9.75 10.48 C9.49 10.71, 9.2 10.91, 8.9 11.08 C8.61 11.25, 8.29 11.4, 7.97 11.52 C7.64 11.63, 7.31 11.72, 6.97 11.78 C6.63 11.84, 6.28 11.87, 5.94 11.87 C5.59 11.87, 5.24 11.84, 4.91 11.78 C4.57 11.72, 4.23 11.63, 3.91 11.52 C3.58 11.4, 3.27 11.25, 2.97 11.08 C2.67 10.91, 2.38 10.71, 2.12 10.48 C1.86 10.26, 1.61 10.02, 1.39 9.75 C1.17 9.49, 0.97 9.2, 0.8 8.9 C0.62 8.61, 0.48 8.29, 0.36 7.97 C0.24 7.64, 0.15 7.31, 0.09 6.97 C0.03 6.63, 0 6.28, 0 5.94 C0 5.59, 0.03 5.24, 0.09 4.91 C0.15 4.57, 0.24 4.23, 0.36 3.91 C0.48 3.58, 0.62 3.27, 0.8 2.97 C0.97 2.67, 1.17 2.38, 1.39 2.12 C1.61 1.86, 1.86 1.61, 2.12 1.39 C2.38 1.17, 2.67 0.97, 2.97 0.8 C3.27 0.62, 3.58 0.48, 3.91 0.36 C4.23 0.24, 4.57 0.15, 4.91 0.09 C5.24 0.03, 5.59 0, 5.94 0 C6.28 0, 6.63 0.03, 6.97 0.09 C7.31 0.15, 7.64 0.24, 7.97 0.36 C8.29 0.48, 8.61 0.62, 8.9 0.8 C9.2 0.97, 9.49 1.17, 9.75 1.39 C10.02 1.61, 10.26 1.86, 10.48 2.12 C10.71 2.38, 10.91 2.67, 11.08 2.97 C11.25 3.27, 11.4 3.58, 11.52 3.91 C11.63 4.23, 11.72 4.57, 11.78 4.91 C11.84 5.24, 11.86 5.76, 11.87 5.94 C11.89 6.11, 11.89 5.76, 11.87 5.94" stroke="#E1E1E1" stroke-width="4" fill="none"></path></g><g stroke-linecap="round" transform="translate(154.84788431943156 82.1421369373038) rotate(0 5.936623298689096 5.936623298689099)"><path d="M11.87 5.94 C11.87 6.28, 11.84 6.63, 11.78 6.97 C11.72 7.31, 11.63 7.64, 11.52 7.97 C11.4 8.29, 11.25 8.61, 11.08 8.9 C10.91 9.2, 10.71 9.49, 10.48 9.75 C10.26 10.02, 10.02 10.26, 9.75 10.48 C9.49 10.71, 9.2 10.91, 8.9 11.08 C8.61 11.25, 8.29 11.4, 7.97 11.52 C7.64 11.63, 7.31 11.72, 6.97 11.78 C6.63 11.84, 6.28 11.87, 5.94 11.87 C5.59 11.87, 5.24 11.84, 4.91 11.78 C4.57 11.72, 4.23 11.63, 3.91 11.52 C3.58 11.4, 3.27 11.25, 2.97 11.08 C2.67 10.91, 2.38 10.71, 2.12 10.48 C1.86 10.26, 1.61 10.02, 1.39 9.75 C1.17 9.49, 0.97 9.2, 0.8 8.9 C0.62 8.61, 0.48 8.29, 0.36 7.97 C0.24 7.64, 0.15 7.31, 0.09 6.97 C0.03 6.63, 0 6.28, 0 5.94 C0 5.59, 0.03 5.24, 0.09 4.91 C0.15 4.57, 0.24 4.23, 0.36 3.91 C0.48 3.58, 0.62 3.27, 0.8 2.97 C0.97 2.67, 1.17 2.38, 1.39 2.12 C1.61 1.86, 1.86 1.61, 2.12 1.39 C2.38 1.17, 2.67 0.97, 2.97 0.8 C3.27 0.62, 3.58 0.48, 3.91 0.36 C4.23 0.24, 4.57 0.15, 4.91 0.09 C5.24 0.03, 5.59 0, 5.94 0 C6.28 0, 6.63 0.03, 6.97 0.09 C7.31 0.15, 7.64 0.24, 7.97 0.36 C8.29 0.48, 8.61 0.62, 8.9 0.8 C9.2 0.97, 9.49 1.17, 9.75 1.39 C10.02 1.61, 10.26 1.86, 10.48 2.12 C10.71 2.38, 10.91 2.67, 11.08 2.97 C11.25 3.27, 11.4 3.58, 11.52 3.91 C11.63 4.23, 11.72 4.57, 11.78 4.91 C11.84 5.24, 11.86 5.76, 11.87 5.94 C11.89 6.11, 11.89 5.76, 11.87 5.94" stroke="#E1E1E1" stroke-width="4" fill="none"></path></g><g stroke-linecap="round" transform="translate(152.5017090693072 130.59575623342243) rotate(0 5.936623298689096 5.936623298689096)"><path d="M11.87 5.94 C11.87 6.28, 11.84 6.63, 11.78 6.97 C11.72 7.31, 11.63 7.64, 11.52 7.97 C11.4 8.29, 11.25 8.61, 11.08 8.9 C10.91 9.2, 10.71 9.49, 10.48 9.75 C10.26 10.02, 10.02 10.26, 9.75 10.48 C9.49 10.71, 9.2 10.91, 8.9 11.08 C8.61 11.25, 8.29 11.4, 7.97 11.52 C7.64 11.63, 7.31 11.72, 6.97 11.78 C6.63 11.84, 6.28 11.87, 5.94 11.87 C5.59 11.87, 5.24 11.84, 4.91 11.78 C4.57 11.72, 4.23 11.63, 3.91 11.52 C3.58 11.4, 3.27 11.25, 2.97 11.08 C2.67 10.91, 2.38 10.71, 2.12 10.48 C1.86 10.26, 1.61 10.02, 1.39 9.75 C1.17 9.49, 0.97 9.2, 0.8 8.9 C0.62 8.61, 0.48 8.29, 0.36 7.97 C0.24 7.64, 0.15 7.31, 0.09 6.97 C0.03 6.63, 0 6.28, 0 5.94 C0 5.59, 0.03 5.24, 0.09 4.91 C0.15 4.57, 0.24 4.23, 0.36 3.91 C0.48 3.58, 0.62 3.27, 0.8 2.97 C0.97 2.67, 1.17 2.38, 1.39 2.12 C1.61 1.86, 1.86 1.61, 2.12 1.39 C2.38 1.17, 2.67 0.97, 2.97 0.8 C3.27 0.62, 3.58 0.48, 3.91 0.36 C4.23 0.24, 4.57 0.15, 4.91 0.09 C5.24 0.03, 5.59 0, 5.94 0 C6.28 0, 6.63 0.03, 6.97 0.09 C7.31 0.15, 7.64 0.24, 7.97 0.36 C8.29 0.48, 8.61 0.62, 8.9 0.8 C9.2 0.97, 9.49 1.17, 9.75 1.39 C10.02 1.61, 10.26 1.86, 10.48 2.12 C10.71 2.38, 10.91 2.67, 11.08 2.97 C11.25 3.27, 11.4 3.58, 11.52 3.91 C11.63 4.23, 11.72 4.57, 11.78 4.91 C11.84 5.24, 11.86 5.76, 11.87 5.94 C11.89 6.11, 11.89 5.76, 11.87 5.94" stroke="#E1E1E1" stroke-width="4" fill="none"></path></g><g stroke-linecap="round" transform="translate(130.76014261315862 152.5743619782079) rotate(0 5.9366232986890966 5.9366232986890966)"><path d="M11.87 5.94 C11.87 6.28, 11.84 6.63, 11.78 6.97 C11.72 7.31, 11.63 7.64, 11.52 7.97 C11.4 8.29, 11.25 8.61, 11.08 8.9 C10.91 9.2, 10.71 9.49, 10.48 9.75 C10.26 10.02, 10.02 10.26, 9.75 10.48 C9.49 10.71, 9.2 10.91, 8.9 11.08 C8.61 11.25, 8.29 11.4, 7.97 11.52 C7.64 11.63, 7.31 11.72, 6.97 11.78 C6.63 11.84, 6.28 11.87, 5.94 11.87 C5.59 11.87, 5.24 11.84, 4.91 11.78 C4.57 11.72, 4.23 11.63, 3.91 11.52 C3.58 11.4, 3.27 11.25, 2.97 11.08 C2.67 10.91, 2.38 10.71, 2.12 10.48 C1.86 10.26, 1.61 10.02, 1.39 9.75 C1.17 9.49, 0.97 9.2, 0.8 8.9 C0.62 8.61, 0.48 8.29, 0.36 7.97 C0.24 7.64, 0.15 7.31, 0.09 6.97 C0.03 6.63, 0 6.28, 0 5.94 C0 5.59, 0.03 5.24, 0.09 4.91 C0.15 4.57, 0.24 4.23, 0.36 3.91 C0.48 3.58, 0.62 3.27, 0.8 2.97 C0.97 2.67, 1.17 2.38, 1.39 2.12 C1.61 1.86, 1.86 1.61, 2.12 1.39 C2.38 1.17, 2.67 0.97, 2.97 0.8 C3.27 0.62, 3.58 0.48, 3.91 0.36 C4.23 0.24, 4.57 0.15, 4.91 0.09 C5.24 0.03, 5.59 0, 5.94 0 C6.28 0, 6.63 0.03, 6.97 0.09 C7.31 0.15, 7.64 0.24, 7.97 0.36 C8.29 0.48, 8.61 0.62, 8.9 0.8 C9.2 0.97, 9.49 1.17, 9.75 1.39 C10.02 1.61, 10.26 1.86, 10.48 2.12 C10.71 2.38, 10.91 2.67, 11.08 2.97 C11.25 3.27, 11.4 3.58, 11.52 3.91 C11.63 4.23, 11.72 4.57, 11.78 4.91 C11.84 5.24, 11.86 5.76, 11.87 5.94 C11.89 6.11, 11.89 5.76, 11.87 5.94" stroke="#E1E1E1" stroke-width="4" fill="none"></path></g><g stroke-linecap="round" transform="translate(82.5178772338549 154.84788431943252) rotate(0 5.936623298689096 5.9366232986890966)"><path d="M11.87 5.94 C11.87 6.28, 11.84 6.63, 11.78 6.97 C11.72 7.31, 11.63 7.64, 11.52 7.97 C11.4 8.29, 11.25 8.61, 11.08 8.9 C10.91 9.2, 10.71 9.49, 10.48 9.75 C10.26 10.02, 10.02 10.26, 9.75 10.48 C9.49 10.71, 9.2 10.91, 8.9 11.08 C8.61 11.25, 8.29 11.4, 7.97 11.52 C7.64 11.63, 7.31 11.72, 6.97 11.78 C6.63 11.84, 6.28 11.87, 5.94 11.87 C5.59 11.87, 5.24 11.84, 4.91 11.78 C4.57 11.72, 4.23 11.63, 3.91 11.52 C3.58 11.4, 3.27 11.25, 2.97 11.08 C2.67 10.91, 2.38 10.71, 2.12 10.48 C1.86 10.26, 1.61 10.02, 1.39 9.75 C1.17 9.49, 0.97 9.2, 0.8 8.9 C0.62 8.61, 0.48 8.29, 0.36 7.97 C0.24 7.64, 0.15 7.31, 0.09 6.97 C0.03 6.63, 0 6.28, 0 5.94 C0 5.59, 0.03 5.24, 0.09 4.91 C0.15 4.57, 0.24 4.23, 0.36 3.91 C0.48 3.58, 0.62 3.27, 0.8 2.97 C0.97 2.67, 1.17 2.38, 1.39 2.12 C1.61 1.86, 1.86 1.61, 2.12 1.39 C2.38 1.17, 2.67 0.97, 2.97 0.8 C3.27 0.62, 3.58 0.48, 3.91 0.36 C4.23 0.24, 4.57 0.15, 4.91 0.09 C5.24 0.03, 5.59 0, 5.94 0 C6.28 0, 6.63 0.03, 6.97 0.09 C7.31 0.15, 7.64 0.24, 7.97 0.36 C8.29 0.48, 8.61 0.62, 8.9 0.8 C9.2 0.97, 9.49 1.17, 9.75 1.39 C10.02 1.61, 10.26 1.86, 10.48 2.12 C10.71 2.38, 10.91 2.67, 11.08 2.97 C11.25 3.27, 11.4 3.58, 11.52 3.91 C11.63 4.23, 11.72 4.57, 11.78 4.91 C11.84 5.24, 11.86 5.76, 11.87 5.94 C11.89 6.11, 11.89 5.76, 11.87 5.94" stroke="#E1E1E1" stroke-width="4" fill="none"></path></g><g stroke-linecap="round" transform="translate(33.85950883082842 151.84196194704418) rotate(0 5.936623298689099 5.9366232986890966)"><path d="M11.87 5.94 C11.87 6.28, 11.84 6.63, 11.78 6.97 C11.72 7.31, 11.63 7.64, 11.52 7.97 C11.4 8.29, 11.25 8.61, 11.08 8.9 C10.91 9.2, 10.71 9.49, 10.48 9.75 C10.26 10.02, 10.02 10.26, 9.75 10.48 C9.49 10.71, 9.2 10.91, 8.9 11.08 C8.61 11.25, 8.29 11.4, 7.97 11.52 C7.64 11.63, 7.31 11.72, 6.97 11.78 C6.63 11.84, 6.28 11.87, 5.94 11.87 C5.59 11.87, 5.24 11.84, 4.91 11.78 C4.57 11.72, 4.23 11.63, 3.91 11.52 C3.58 11.4, 3.27 11.25, 2.97 11.08 C2.67 10.91, 2.38 10.71, 2.12 10.48 C1.86 10.26, 1.61 10.02, 1.39 9.75 C1.17 9.49, 0.97 9.2, 0.8 8.9 C0.62 8.61, 0.48 8.29, 0.36 7.97 C0.24 7.64, 0.15 7.31, 0.09 6.97 C0.03 6.63, 0 6.28, 0 5.94 C0 5.59, 0.03 5.24, 0.09 4.91 C0.15 4.57, 0.24 4.23, 0.36 3.91 C0.48 3.58, 0.62 3.27, 0.8 2.97 C0.97 2.67, 1.17 2.38, 1.39 2.12 C1.61 1.86, 1.86 1.61, 2.12 1.39 C2.38 1.17, 2.67 0.97, 2.97 0.8 C3.27 0.62, 3.58 0.48, 3.91 0.36 C4.23 0.24, 4.57 0.15, 4.91 0.09 C5.24 0.03, 5.59 0, 5.94 0 C6.28 0, 6.63 0.03, 6.97 0.09 C7.31 0.15, 7.64 0.24, 7.97 0.36 C8.29 0.48, 8.61 0.62, 8.9 0.8 C9.2 0.97, 9.49 1.17, 9.75 1.39 C10.02 1.61, 10.26 1.86, 10.48 2.12 C10.71 2.38, 10.91 2.67, 11.08 2.97 C11.25 3.27, 11.4 3.58, 11.52 3.91 C11.63 4.23, 11.72 4.57, 11.78 4.91 C11.84 5.24, 11.86 5.76, 11.87 5.94 C11.89 6.11, 11.89 5.76, 11.87 5.94" stroke="#E1E1E1" stroke-width="4" fill="none"></path></g><g stroke-linecap="round" transform="translate(12.442311927567062 130.61263519205568) rotate(0 5.936623298689099 5.936623298689096)"><path d="M11.87 5.94 C11.87 6.28, 11.84 6.63, 11.78 6.97 C11.72 7.31, 11.63 7.64, 11.52 7.97 C11.4 8.29, 11.25 8.61, 11.08 8.9 C10.91 9.2, 10.71 9.49, 10.48 9.75 C10.26 10.02, 10.02 10.26, 9.75 10.48 C9.49 10.71, 9.2 10.91, 8.9 11.08 C8.61 11.25, 8.29 11.4, 7.97 11.52 C7.64 11.63, 7.31 11.72, 6.97 11.78 C6.63 11.84, 6.28 11.87, 5.94 11.87 C5.59 11.87, 5.24 11.84, 4.91 11.78 C4.57 11.72, 4.23 11.63, 3.91 11.52 C3.58 11.4, 3.27 11.25, 2.97 11.08 C2.67 10.91, 2.38 10.71, 2.12 10.48 C1.86 10.26, 1.61 10.02, 1.39 9.75 C1.17 9.49, 0.97 9.2, 0.8 8.9 C0.62 8.61, 0.48 8.29, 0.36 7.97 C0.24 7.64, 0.15 7.31, 0.09 6.97 C0.03 6.63, 0 6.28, 0 5.94 C0 5.59, 0.03 5.24, 0.09 4.91 C0.15 4.57, 0.24 4.23, 0.36 3.91 C0.48 3.58, 0.62 3.27, 0.8 2.97 C0.97 2.67, 1.17 2.38, 1.39 2.12 C1.61 1.86, 1.86 1.61, 2.12 1.39 C2.38 1.17, 2.67 0.97, 2.97 0.8 C3.27 0.62, 3.58 0.48, 3.91 0.36 C4.23 0.24, 4.57 0.15, 4.91 0.09 C5.24 0.03, 5.59 0, 5.94 0 C6.28 0, 6.63 0.03, 6.97 0.09 C7.31 0.15, 7.64 0.24, 7.97 0.36 C8.29 0.48, 8.61 0.62, 8.9 0.8 C9.2 0.97, 9.49 1.17, 9.75 1.39 C10.02 1.61, 10.26 1.86, 10.48 2.12 C10.71 2.38, 10.91 2.67, 11.08 2.97 C11.25 3.27, 11.4 3.58, 11.52 3.91 C11.63 4.23, 11.72 4.57, 11.78 4.91 C11.84 5.24, 11.86 5.76, 11.87 5.94 C11.89 6.11, 11.89 5.76, 11.87 5.94" stroke="#E1E1E1" stroke-width="4" fill="none"></path></g><g stroke-linecap="round"><g transform="translate(39.98253454225778 104.61059941635904) rotate(0 -8.792469712787486 -0.24584570184326537)"><path d="M0 0 C-2.93 -0.08, -14.65 -0.41, -17.58 -0.49 M0 0 C-2.93 -0.08, -14.65 -0.41, -17.58 -0.49" stroke="#E1E1E1" stroke-width="4" fill="none"></path></g></g><mask></mask><g stroke-linecap="round"><g transform="translate(39.49818181624141 120.39169187139487) rotate(0 -10.561824898292059 4.720971343156773)"><path d="M0 0 C-2.88 0.02, -13.73 -0.37, -17.26 0.15 C-20.78 0.67, -20.49 1.57, -21.12 3.12 C-21.75 4.67, -21.05 8.39, -21.04 9.44 M0 0 C-2.88 0.02, -13.73 -0.37, -17.26 0.15 C-20.78 0.67, -20.49 1.57, -21.12 3.12 C-21.75 4.67, -21.05 8.39, -21.04 9.44" stroke="#E1E1E1" stroke-width="4" fill="none"></path></g></g><mask></mask><g stroke-linecap="round"><g transform="translate(56.266326417477046 135.68329452604394) rotate(0 -5.013417648185367 11.908105316296211)"><path d="M0 0 C0 3.08, 0.35 14.59, 0 18.45 C-0.35 22.31, -0.46 22.26, -2.13 23.15 C-3.8 24.05, -8.71 23.71, -10.03 23.82 M0 0 C0 3.08, 0.35 14.59, 0 18.45 C-0.35 22.31, -0.46 22.26, -2.13 23.15 C-3.8 24.05, -8.71 23.71, -10.03 23.82" stroke="#E1E1E1" stroke-width="4" fill="none"></path></g></g><mask></mask><g stroke-linecap="round"><g transform="translate(72.40334473936667 135.6862299971108) rotate(0 -0.1148503054879626 9.34433827334294)"><path d="M0 0 C-0.04 3.11, -0.19 15.57, -0.23 18.69 M0 0 C-0.04 3.11, -0.19 15.57, -0.23 18.69" stroke="#E1E1E1" stroke-width="4" fill="none"></path></g></g><mask></mask><g stroke-linecap="round"><g transform="translate(88.17783238449914 136.35404966480382) rotate(0 -0.03706032221829503 8.888606390224602)"><path d="M0 0 C-0.01 2.96, -0.06 14.81, -0.07 17.78 M0 0 C-0.01 2.96, -0.06 14.81, -0.07 17.78" stroke="#E1E1E1" stroke-width="4" fill="none"></path></g></g><mask></mask><g stroke-linecap="round"><g transform="translate(104.59151885442401 135.9467530542879) rotate(0 0.1390679417890226 9.594587181786416)"><path d="M0 0 C0.05 3.2, 0.23 15.99, 0.28 19.19 M0 0 C0.05 3.2, 0.23 15.99, 0.28 19.19" stroke="#E1E1E1" stroke-width="4" fill="none"></path></g></g><mask></mask><g stroke-linecap="round"><g transform="translate(120.81219810171018 136.83326531645616) rotate(0 4.340460906124861 11.123600673697942)"><path d="M0 0 C0 3.06, -0.37 14.67, 0 18.37 C0.37 22.08, 0.77 21.56, 2.22 22.21 C3.67 22.86, 7.6 22.24, 8.68 22.25 M0 0 C0 3.06, -0.37 14.67, 0 18.37 C0.37 22.08, 0.77 21.56, 2.22 22.21 C3.67 22.86, 7.6 22.24, 8.68 22.25" stroke="#E1E1E1" stroke-width="4" fill="none"></path></g></g><mask></mask><g stroke-linecap="round"><g transform="translate(135.6121093526744 120.11942692995035) rotate(0 11.597312317100336 4.938196202098858)"><path d="M0 0 C2.85 0.01, 13.42 -0.3, 17.12 0.06 C20.81 0.42, 21.16 0.52, 22.17 2.16 C23.18 3.79, 23.02 8.59, 23.19 9.88 M0 0 C2.85 0.01, 13.42 -0.3, 17.12 0.06 C20.81 0.42, 21.16 0.52, 22.17 2.16 C23.18 3.79, 23.02 8.59, 23.19 9.88" stroke="#E1E1E1" stroke-width="4" fill="none"></path></g></g><mask></mask><g stroke-linecap="round"><g transform="translate(135.29581234522624 104.49831764805458) rotate(0 9.779521858993808 0.021282165234168815)"><path d="M0 0 C3.26 0.01, 16.3 0.04, 19.56 0.04 M0 0 C3.26 0.01, 16.3 0.04, 19.56 0.04" stroke="#E1E1E1" stroke-width="4" fill="none"></path></g></g><mask></mask><g stroke-linecap="round"><g transform="translate(135.4161666589643 88.48679071427614) rotate(0 9.82428779276234 -0.11044709888775373)"><path d="M0 0 C3.27 -0.04, 16.37 -0.18, 19.65 -0.22 M0 0 C3.27 -0.04, 16.37 -0.18, 19.65 -0.22" stroke="#E1E1E1" stroke-width="4" fill="none"></path></g></g><mask></mask><g stroke-linecap="round"><g transform="translate(135.1813289736237 72.04888660804863) rotate(0 9.760808230943136 -0.01247575203383633)"><path d="M0 0 C3.25 0, 16.27 -0.02, 19.52 -0.02 M0 0 C3.25 0, 16.27 -0.02, 19.52 -0.02" stroke="#E1E1E1" stroke-width="4" fill="none"></path></g></g><mask></mask><g stroke-linecap="round"><g transform="translate(135.26939310562733 55.82967509629543) rotate(0 12.070657026619424 -4.410912211727606)"><path d="M0 0 C3.18 0.04, 15.06 0.61, 19.08 0.23 C23.1 -0.14, 23.25 -0.7, 24.1 -2.25 C24.94 -3.8, 24.13 -7.92, 24.14 -9.05 M0 0 C3.18 0.04, 15.06 0.61, 19.08 0.23 C23.1 -0.14, 23.25 -0.7, 24.1 -2.25 C24.94 -3.8, 24.13 -7.92, 24.14 -9.05" stroke="#E1E1E1" stroke-width="4" fill="none"></path></g></g><mask></mask><g stroke-linecap="round"><g transform="translate(120.8444882834446 41.32771415861134) rotate(0 4.418984757161315 -11.389260805241975)"><path d="M0 0 C0.03 -2.91, -0.08 -13.68, 0.17 -17.45 C0.43 -21.22, 0.07 -21.74, 1.52 -22.63 C2.96 -23.52, 7.62 -22.75, 8.84 -22.78 M0 0 C0.03 -2.91, -0.08 -13.68, 0.17 -17.45 C0.43 -21.22, 0.07 -21.74, 1.52 -22.63 C2.96 -23.52, 7.62 -22.75, 8.84 -22.78" stroke="#E1E1E1" stroke-width="4" fill="none"></path></g></g><mask></mask><g stroke-linecap="round"><g transform="translate(104.30824589647813 41.39229452208019) rotate(0 0.17135812352354307 -9.635683776721436)"><path d="M0 0 C0.06 -3.21, 0.29 -16.06, 0.34 -19.27 M0 0 C0.06 -3.21, 0.29 -16.06, 0.34 -19.27" stroke="#E1E1E1" stroke-width="4" fill="none"></path></g></g><mask></mask><g stroke-linecap="round"><g transform="translate(88.66732218488318 41.53760033988601) rotate(0 0.035959520568113135 -9.522668140650097)"><path d="M0 0 C0.01 -3.17, 0.06 -15.87, 0.07 -19.05 M0 0 C0.01 -3.17, 0.06 -15.87, 0.07 -19.05" stroke="#E1E1E1" stroke-width="4" fill="none"></path></g></g><mask></mask><g stroke-linecap="round"><g transform="translate(72.70056118487258 41.54273741425277) rotate(0 -0.16658798303993905 -9.972896015518316)"><path d="M0 0 C-0.06 -3.32, -0.28 -16.62, -0.33 -19.95 M0 0 C-0.06 -3.32, -0.28 -16.62, -0.33 -19.95" stroke="#E1E1E1" stroke-width="4" fill="none"></path></g></g><mask></mask><g stroke-linecap="round"><g transform="translate(56.555470317558445 41.29395624134304) rotate(0 -5.035800615069462 -11.698586068904447)"><path d="M0 0 C-0.05 -3.57, 1.36 -17.54, -0.32 -21.44 C-2 -25.34, -8.45 -23.07, -10.07 -23.4 M0 0 C-0.05 -3.57, 1.36 -17.54, -0.32 -21.44 C-2 -25.34, -8.45 -23.07, -10.07 -23.4" stroke="#E1E1E1" stroke-width="4" fill="none"></path></g></g><mask></mask><g stroke-linecap="round"><g transform="translate(39.81668042698584 56.47254325992071) rotate(0 -10.585308666826336 -4.6699675333714055)"><path d="M0 0 C-2.9 -0.01, -13.85 0.49, -17.37 -0.08 C-20.89 -0.65, -20.49 -1.87, -21.12 -3.41 C-21.75 -4.96, -21.16 -8.35, -21.17 -9.34 M0 0 C-2.9 -0.01, -13.85 0.49, -17.37 -0.08 C-20.89 -0.65, -20.49 -1.87, -21.12 -3.41 C-21.75 -4.96, -21.16 -8.35, -21.17 -9.34" stroke="#E1E1E1" stroke-width="4" fill="none"></path></g></g><mask></mask><g stroke-linecap="round"><g transform="translate(40.11169526919548 72.16997478955273) rotate(0 -9.033178340263845 0.006971743783623197)"><path d="M0 0 C-3.01 0, -15.06 0.01, -18.07 0.01 M0 0 C-3.01 0, -15.06 0.01, -18.07 0.01" stroke="#E1E1E1" stroke-width="4" fill="none"></path></g></g><mask></mask><g stroke-linecap="round"><g transform="translate(39.745495253613626 88.82290215142348) rotate(0 -8.919061902542495 -0.3375791726802646)"><path d="M0 0 C-2.97 -0.11, -14.87 -0.56, -17.84 -0.68 M0 0 C-2.97 -0.11, -14.87 -0.56, -17.84 -0.68" stroke="#E1E1E1" stroke-width="4" fill="none"></path></g></g><mask></mask><g stroke-linecap="round" transform="translate(10 82.14213693730471) rotate(0 5.936623298689099 5.936623298689099)"><path d="M11.87 5.94 C11.87 6.28, 11.84 6.63, 11.78 6.97 C11.72 7.31, 11.63 7.64, 11.52 7.97 C11.4 8.29, 11.25 8.61, 11.08 8.9 C10.91 9.2, 10.71 9.49, 10.48 9.75 C10.26 10.02, 10.02 10.26, 9.75 10.48 C9.49 10.71, 9.2 10.91, 8.9 11.08 C8.61 11.25, 8.29 11.4, 7.97 11.52 C7.64 11.63, 7.31 11.72, 6.97 11.78 C6.63 11.84, 6.28 11.87, 5.94 11.87 C5.59 11.87, 5.24 11.84, 4.91 11.78 C4.57 11.72, 4.23 11.63, 3.91 11.52 C3.58 11.4, 3.27 11.25, 2.97 11.08 C2.67 10.91, 2.38 10.71, 2.12 10.48 C1.86 10.26, 1.61 10.02, 1.39 9.75 C1.17 9.49, 0.97 9.2, 0.8 8.9 C0.62 8.61, 0.48 8.29, 0.36 7.97 C0.24 7.64, 0.15 7.31, 0.09 6.97 C0.03 6.63, 0 6.28, 0 5.94 C0 5.59, 0.03 5.24, 0.09 4.91 C0.15 4.57, 0.24 4.23, 0.36 3.91 C0.48 3.58, 0.62 3.27, 0.8 2.97 C0.97 2.67, 1.17 2.38, 1.39 2.12 C1.61 1.86, 1.86 1.61, 2.12 1.39 C2.38 1.17, 2.67 0.97, 2.97 0.8 C3.27 0.62, 3.58 0.48, 3.91 0.36 C4.23 0.24, 4.57 0.15, 4.91 0.09 C5.24 0.03, 5.59 0, 5.94 0 C6.28 0, 6.63 0.03, 6.97 0.09 C7.31 0.15, 7.64 0.24, 7.97 0.36 C8.29 0.48, 8.61 0.62, 8.9 0.8 C9.2 0.97, 9.49 1.17, 9.75 1.39 C10.02 1.61, 10.26 1.86, 10.48 2.12 C10.71 2.38, 10.91 2.67, 11.08 2.97 C11.25 3.27, 11.4 3.58, 11.52 3.91 C11.63 4.23, 11.72 4.57, 11.78 4.91 C11.84 5.24, 11.86 5.76, 11.87 5.94 C11.89 6.11, 11.89 5.76, 11.87 5.94" stroke="#E1E1E1" stroke-width="4" fill="none"></path></g><g transform="translate(54.55302442619717 52.936086289009836) rotate(0 34.2498779296875 41.68927858831874)"><text x="0" y="61.26652982756829" font-family="Helvetica, Segoe UI Emoji" font-size="72.50309319707608px" fill="#E1E1E1" text-anchor="start" style="white-space: pre;" direction="ltr" dominant-baseline="alphabetic">AI</text></g></svg>