<svg version="1.1" xmlns="http://www.w3.org/2000/svg" viewBox="0 0 440.92785943942397 454.7116955175196" width="440.92785943942397" height="454.7116955175196" class="excalidraw-svg"><!-- svg-source:excalidraw --><metadata></metadata><defs><style class="style-fonts">
      </style></defs><rect x="0" y="0" width="440.92785943942397" height="454.7116955175196" fill="#000000"></rect><g stroke-linecap="round"><g transform="translate(271.4776293359221 262.49569416328035) rotate(0 -75.7032785917927 90.64068716186854)"><path d="M0 0 C-7.5 0.07, -28.6 0.29, -44.97 0.41 C-61.34 0.52, -85.87 0.58, -98.23 0.68 C-110.58 0.78, -114.37 -0.69, -119.09 1.01 C-123.81 2.71, -125.5 1.51, -126.53 10.9 C-127.57 20.29, -125.53 40.39, -125.29 57.33 C-125.05 74.28, -120.95 98.77, -125.07 112.56 C-129.2 126.35, -140.6 130.48, -150.06 140.06 C-159.52 149.63, -174.93 163.3, -181.82 170.03 C-188.71 176.75, -195.14 178.53, -191.4 180.4 C-187.67 182.28, -175.44 181.18, -159.41 181.28 C-143.38 181.38, -118.87 181.09, -95.21 181 C-71.54 180.92, -39.95 180.87, -17.42 180.78 C5.12 180.69, 33.32 184.27, 39.99 180.46 C46.67 176.65, 29.7 165.99, 22.62 157.94 C15.53 149.9, 2.23 140.91, -2.53 132.19 C-7.29 123.47, -5.49 113.71, -5.95 105.63 C-6.42 97.54, -7.24 90.55, -5.33 83.7 C-3.41 76.86, 2.29 70.21, 5.54 64.56 C8.8 58.91, 14.91 54.37, 14.21 49.78 C13.5 45.18, 3.7 45.3, 1.33 37 C-1.04 28.7, 0.22 6.17, 0 0 M0 0 C-7.5 0.07, -28.6 0.29, -44.97 0.41 C-61.34 0.52, -85.87 0.58, -98.23 0.68 C-110.58 0.78, -114.37 -0.69, -119.09 1.01 C-123.81 2.71, -125.5 1.51, -126.53 10.9 C-127.57 20.29, -125.53 40.39, -125.29 57.33 C-125.05 74.28, -120.95 98.77, -125.07 112.56 C-129.2 126.35, -140.6 130.48, -150.06 140.06 C-159.52 149.63, -174.93 163.3, -181.82 170.03 C-188.71 176.75, -195.14 178.53, -191.4 180.4 C-187.67 182.28, -175.44 181.18, -159.41 181.28 C-143.38 181.38, -118.87 181.09, -95.21 181 C-71.54 180.92, -39.95 180.87, -17.42 180.78 C5.12 180.69, 33.32 184.27, 39.99 180.46 C46.67 176.65, 29.7 165.99, 22.62 157.94 C15.53 149.9, 2.23 140.91, -2.53 132.19 C-7.29 123.47, -5.49 113.71, -5.95 105.63 C-6.42 97.54, -7.24 90.55, -5.33 83.7 C-3.41 76.86, 2.29 70.21, 5.54 64.56 C8.8 58.91, 14.91 54.37, 14.21 49.78 C13.5 45.18, 3.7 45.3, 1.33 37 C-1.04 28.7, 0.22 6.17, 0 0" stroke="#E1E1E1" stroke-width="4" fill="none"></path></g></g><mask></mask><g stroke-linecap="round"><g transform="translate(285.0069454992456 310.52629896622733) rotate(0 55.73227125662092 -127.82216746398174)"><path d="M0 0 C4.72 2.75, 19.38 11.53, 28.34 16.51 C37.3 21.48, 44.49 27.45, 53.76 29.85 C63.04 32.25, 75.8 30.98, 83.98 30.9 C92.17 30.82, 99.62 33.09, 102.84 29.36 C106.07 25.64, 103.22 15.77, 103.31 8.57 C103.4 1.36, 101.02 -7.41, 103.38 -13.88 C105.75 -20.36, 114.93 -23.13, 117.49 -30.29 C120.06 -37.44, 115.06 -52.02, 118.78 -56.82 C122.5 -61.63, 135.34 -56.42, 139.83 -59.12 C144.33 -61.81, 146.6 -65.99, 145.74 -72.99 C144.88 -80, 138.38 -92.05, 134.65 -101.17 C130.92 -110.28, 123.51 -120.27, 123.37 -127.66 C123.24 -135.05, 131.47 -136.95, 133.84 -145.49 C136.21 -154.03, 138 -169.2, 137.62 -178.88 C137.23 -188.57, 136.08 -193.44, 131.52 -203.58 C126.96 -213.72, 117.54 -230.05, 110.24 -239.72 C102.95 -249.38, 96.45 -254.93, 87.73 -261.56 C79.02 -268.19, 65.96 -275.33, 57.98 -279.49 C49.99 -283.65, 44.54 -287.96, 39.81 -286.54 C35.07 -285.12, 34.61 -278.5, 29.55 -270.96 C24.48 -263.41, 13.95 -247.94, 9.41 -241.28 C4.87 -234.62, 3.54 -236.64, 2.32 -231 C1.1 -225.35, 2.08 -220.4, 2.08 -207.38 C2.08 -194.37, 2.27 -164.73, 2.31 -152.91 C2.34 -141.1, 4.16 -139.44, 2.31 -136.47 C0.45 -133.5, -2.74 -135.32, -8.84 -135.1 C-14.93 -134.87, -30.04 -135.12, -34.28 -135.13 M0 0 C4.72 2.75, 19.38 11.53, 28.34 16.51 C37.3 21.48, 44.49 27.45, 53.76 29.85 C63.04 32.25, 75.8 30.98, 83.98 30.9 C92.17 30.82, 99.62 33.09, 102.84 29.36 C106.07 25.64, 103.22 15.77, 103.31 8.57 C103.4 1.36, 101.02 -7.41, 103.38 -13.88 C105.75 -20.36, 114.93 -23.13, 117.49 -30.29 C120.06 -37.44, 115.06 -52.02, 118.78 -56.82 C122.5 -61.63, 135.34 -56.42, 139.83 -59.12 C144.33 -61.81, 146.6 -65.99, 145.74 -72.99 C144.88 -80, 138.38 -92.05, 134.65 -101.17 C130.92 -110.28, 123.51 -120.27, 123.37 -127.66 C123.24 -135.05, 131.47 -136.95, 133.84 -145.49 C136.21 -154.03, 138 -169.2, 137.62 -178.88 C137.23 -188.57, 136.08 -193.44, 131.52 -203.58 C126.96 -213.72, 117.54 -230.05, 110.24 -239.72 C102.95 -249.38, 96.45 -254.93, 87.73 -261.56 C79.02 -268.19, 65.96 -275.33, 57.98 -279.49 C49.99 -283.65, 44.54 -287.96, 39.81 -286.54 C35.07 -285.12, 34.61 -278.5, 29.55 -270.96 C24.48 -263.41, 13.95 -247.94, 9.41 -241.28 C4.87 -234.62, 3.54 -236.64, 2.32 -231 C1.1 -225.35, 2.08 -220.4, 2.08 -207.38 C2.08 -194.37, 2.27 -164.73, 2.31 -152.91 C2.34 -141.1, 4.16 -139.44, 2.31 -136.47 C0.45 -133.5, -2.74 -135.32, -8.84 -135.1 C-14.93 -134.87, -30.04 -135.12, -34.28 -135.13" stroke="#E1E1E1" stroke-width="4" fill="none"></path></g></g><mask></mask><g stroke-linecap="round"><g transform="translate(287.5104240882331 171.19247875303557) rotate(0 3.3897932519987535 45.77908604017498)"><path d="M0 0 C3.1 3.2, 14.81 14.3, 18.57 19.18 C22.33 24.05, 21.87 23.45, 22.57 29.24 C23.28 35.02, 25.66 48.36, 22.82 53.9 C19.99 59.45, 11.6 59.83, 5.58 62.51 C-0.44 65.2, -9.67 65.17, -13.28 70.01 C-16.88 74.85, -15.58 87.97, -16.04 91.56 M0 0 C3.1 3.2, 14.81 14.3, 18.57 19.18 C22.33 24.05, 21.87 23.45, 22.57 29.24 C23.28 35.02, 25.66 48.36, 22.82 53.9 C19.99 59.45, 11.6 59.83, 5.58 62.51 C-0.44 65.2, -9.67 65.17, -13.28 70.01 C-16.88 74.85, -15.58 87.97, -16.04 91.56" stroke="#E1E1E1" stroke-width="4" fill="none"></path></g></g><mask></mask><g stroke-linecap="round"><g transform="translate(176.59783866615658 262.00761377414204) rotate(0 0.1777514812715424 -34.913749405316054)"><path d="M0 0 C0.06 -11.64, 0.3 -58.19, 0.36 -69.83 M0 0 C0.06 -11.64, 0.3 -58.19, 0.36 -69.83" stroke="#E1E1E1" stroke-width="4" fill="none"></path></g></g><mask></mask><g stroke-linecap="round"><g transform="translate(309.8270625528505 216.69147154999467) rotate(0 -17.325383015439897 -0.07900065834299141)"><path d="M0 0 C-5.78 -0.03, -28.88 -0.13, -34.65 -0.16 M0 0 C-5.78 -0.03, -28.88 -0.13, -34.65 -0.16" stroke="#E1E1E1" stroke-width="4" fill="none"></path></g></g><mask></mask><g stroke-linecap="round" transform="translate(213.92564973315643 212.21177512805247) rotate(0 6.69530579455666 6.1809037805742975)"><path d="M3.09 0 C5.65 0, 8.2 0, 10.3 0 M3.09 0 C5.02 0, 6.94 0, 10.3 0 M10.3 0 C12.36 0, 13.39 1.03, 13.39 3.09 M10.3 0 C12.36 0, 13.39 1.03, 13.39 3.09 M13.39 3.09 C13.39 4.61, 13.39 6.13, 13.39 9.27 M13.39 3.09 C13.39 5.32, 13.39 7.54, 13.39 9.27 M13.39 9.27 C13.39 11.33, 12.36 12.36, 10.3 12.36 M13.39 9.27 C13.39 11.33, 12.36 12.36, 10.3 12.36 M10.3 12.36 C7.45 12.36, 4.6 12.36, 3.09 12.36 M10.3 12.36 C7.62 12.36, 4.94 12.36, 3.09 12.36 M3.09 12.36 C1.03 12.36, 0 11.33, 0 9.27 M3.09 12.36 C1.03 12.36, 0 11.33, 0 9.27 M0 9.27 C0 7.88, 0 6.49, 0 3.09 M0 9.27 C0 6.99, 0 4.7, 0 3.09 M0 3.09 C0 1.03, 1.03 0, 3.09 0 M0 3.09 C0 1.03, 1.03 0, 3.09 0" stroke="#E1E1E1" stroke-width="4" fill="none"></path></g><g stroke-linecap="round" transform="translate(244.73052007834235 212.28628711262667) rotate(0 6.69530579455666 6.1809037805742975)"><path d="M3.09 0 C5.35 0, 7.61 0, 10.3 0 M3.09 0 C5.15 0, 7.2 0, 10.3 0 M10.3 0 C12.36 0, 13.39 1.03, 13.39 3.09 M10.3 0 C12.36 0, 13.39 1.03, 13.39 3.09 M13.39 3.09 C13.39 4.97, 13.39 6.86, 13.39 9.27 M13.39 3.09 C13.39 5.17, 13.39 7.26, 13.39 9.27 M13.39 9.27 C13.39 11.33, 12.36 12.36, 10.3 12.36 M13.39 9.27 C13.39 11.33, 12.36 12.36, 10.3 12.36 M10.3 12.36 C8.03 12.36, 5.75 12.36, 3.09 12.36 M10.3 12.36 C8.18 12.36, 6.06 12.36, 3.09 12.36 M3.09 12.36 C1.03 12.36, 0 11.33, 0 9.27 M3.09 12.36 C1.03 12.36, 0 11.33, 0 9.27 M0 9.27 C0 6.85, 0 4.42, 0 3.09 M0 9.27 C0 7.46, 0 5.66, 0 3.09 M0 3.09 C0 1.03, 1.03 0, 3.09 0 M0 3.09 C0 1.03, 1.03 0, 3.09 0" stroke="#E1E1E1" stroke-width="4" fill="none"></path></g><g stroke-linecap="round" transform="translate(311.3783482075862 151.61378150531567) rotate(0 6.695305794556663 6.1809037805742975)"><path d="M3.09 0 C5.38 0, 7.67 0, 10.3 0 M3.09 0 C5.44 0, 7.79 0, 10.3 0 M10.3 0 C12.36 0, 13.39 1.03, 13.39 3.09 M10.3 0 C12.36 0, 13.39 1.03, 13.39 3.09 M13.39 3.09 C13.39 5.43, 13.39 7.77, 13.39 9.27 M13.39 3.09 C13.39 4.55, 13.39 6.01, 13.39 9.27 M13.39 9.27 C13.39 11.33, 12.36 12.36, 10.3 12.36 M13.39 9.27 C13.39 11.33, 12.36 12.36, 10.3 12.36 M10.3 12.36 C8.54 12.36, 6.77 12.36, 3.09 12.36 M10.3 12.36 C8.2 12.36, 6.09 12.36, 3.09 12.36 M3.09 12.36 C1.03 12.36, 0 11.33, 0 9.27 M3.09 12.36 C1.03 12.36, 0 11.33, 0 9.27 M0 9.27 C0 6.94, 0 4.6, 0 3.09 M0 9.27 C0 7.34, 0 5.41, 0 3.09 M0 3.09 C0 1.03, 1.03 0, 3.09 0 M0 3.09 C0 1.03, 1.03 0, 3.09 0" stroke="#E1E1E1" stroke-width="4" fill="none"></path></g><g stroke-linecap="round" transform="translate(311.83798840157874 121.27752870166063) rotate(0 6.695305794556663 6.1809037805742975)"><path d="M3.09 0 C5.48 0, 7.88 0, 10.3 0 M3.09 0 C5.28 0, 7.47 0, 10.3 0 M10.3 0 C12.36 0, 13.39 1.03, 13.39 3.09 M10.3 0 C12.36 0, 13.39 1.03, 13.39 3.09 M13.39 3.09 C13.39 5.31, 13.39 7.52, 13.39 9.27 M13.39 3.09 C13.39 4.85, 13.39 6.62, 13.39 9.27 M13.39 9.27 C13.39 11.33, 12.36 12.36, 10.3 12.36 M13.39 9.27 C13.39 11.33, 12.36 12.36, 10.3 12.36 M10.3 12.36 C7.65 12.36, 5.01 12.36, 3.09 12.36 M10.3 12.36 C7.8 12.36, 5.29 12.36, 3.09 12.36 M3.09 12.36 C1.03 12.36, 0 11.33, 0 9.27 M3.09 12.36 C1.03 12.36, 0 11.33, 0 9.27 M0 9.27 C0 7.92, 0 6.58, 0 3.09 M0 9.27 C0 8.03, 0 6.79, 0 3.09 M0 3.09 C0 1.03, 1.03 0, 3.09 0 M0 3.09 C0 1.03, 1.03 0, 3.09 0" stroke="#E1E1E1" stroke-width="4" fill="none"></path></g><g stroke-linecap="round" transform="translate(312.4251069306313 77.74996142425647) rotate(0 6.4017465300326 12.776561017448614)"><path d="M3.2 0 C4.83 0, 6.47 0, 9.6 0 M3.2 0 C5.3 0, 7.39 0, 9.6 0 M9.6 0 C11.74 0, 12.8 1.07, 12.8 3.2 M9.6 0 C11.74 0, 12.8 1.07, 12.8 3.2 M12.8 3.2 C12.8 10.11, 12.8 17.02, 12.8 22.35 M12.8 3.2 C12.8 7.46, 12.8 11.71, 12.8 22.35 M12.8 22.35 C12.8 24.49, 11.74 25.55, 9.6 25.55 M12.8 22.35 C12.8 24.49, 11.74 25.55, 9.6 25.55 M9.6 25.55 C7.2 25.55, 4.8 25.55, 3.2 25.55 M9.6 25.55 C7.93 25.55, 6.25 25.55, 3.2 25.55 M3.2 25.55 C1.07 25.55, 0 24.49, 0 22.35 M3.2 25.55 C1.07 25.55, 0 24.49, 0 22.35 M0 22.35 C0 15.7, 0 9.05, 0 3.2 M0 22.35 C0 17.31, 0 12.27, 0 3.2 M0 3.2 C0 1.07, 1.07 0, 3.2 0 M0 3.2 C0 1.07, 1.07 0, 3.2 0" stroke="#E1E1E1" stroke-width="4" fill="none"></path></g><g stroke-linecap="round"><g transform="translate(380.06942063669453 153.85362971628678) rotate(0 -13.729057591332227 13.887058908017963)"><path d="M0 0 C-0.03 3.73, 1.52 17.75, -0.15 22.38 C-1.82 27.01, -5.47 26.89, -10.02 27.77 C-14.57 28.65, -24.55 27.67, -27.46 27.65 M0 0 C-0.03 3.73, 1.52 17.75, -0.15 22.38 C-1.82 27.01, -5.47 26.89, -10.02 27.77 C-14.57 28.65, -24.55 27.67, -27.46 27.65" stroke="#E1E1E1" stroke-width="4" fill="none"></path></g></g><mask></mask><g stroke-linecap="round"><g transform="translate(400.8914805185607 282.75218115018964) rotate(0 -24.145473940788435 -9.044677645502631)"><path d="M0 0 C-3.38 -0.27, -14.16 -0.34, -20.25 -1.64 C-26.35 -2.94, -31.89 -5.06, -36.56 -7.8 C-41.23 -10.55, -46.34 -16.38, -48.29 -18.09 M0 0 C-3.38 -0.27, -14.16 -0.34, -20.25 -1.64 C-26.35 -2.94, -31.89 -5.06, -36.56 -7.8 C-41.23 -10.55, -46.34 -16.38, -48.29 -18.09" stroke="#E1E1E1" stroke-width="4" fill="none"></path></g></g><mask></mask><g stroke-linecap="round" transform="translate(169.34952826319682 302.375765135604) rotate(0 6.69530579455666 6.1809037805742975)"><path d="M3.09 0 C4.65 0, 6.21 0, 10.3 0 M3.09 0 C5.87 0, 8.66 0, 10.3 0 M10.3 0 C12.36 0, 13.39 1.03, 13.39 3.09 M10.3 0 C12.36 0, 13.39 1.03, 13.39 3.09 M13.39 3.09 C13.39 5.02, 13.39 6.94, 13.39 9.27 M13.39 3.09 C13.39 4.55, 13.39 6.01, 13.39 9.27 M13.39 9.27 C13.39 11.33, 12.36 12.36, 10.3 12.36 M13.39 9.27 C13.39 11.33, 12.36 12.36, 10.3 12.36 M10.3 12.36 C8.65 12.36, 7.01 12.36, 3.09 12.36 M10.3 12.36 C7.56 12.36, 4.83 12.36, 3.09 12.36 M3.09 12.36 C1.03 12.36, 0 11.33, 0 9.27 M3.09 12.36 C1.03 12.36, 0 11.33, 0 9.27 M0 9.27 C0 7.39, 0 5.51, 0 3.09 M0 9.27 C0 7.88, 0 6.48, 0 3.09 M0 3.09 C0 1.03, 1.03 0, 3.09 0 M0 3.09 C0 1.03, 1.03 0, 3.09 0" stroke="#E1E1E1" stroke-width="4" fill="none"></path></g><g stroke-linecap="round" transform="translate(169.80916845718934 332.2523777452647) rotate(0 6.69530579455666 6.180903780574296)"><path d="M3.09 0 C5.01 0, 6.93 0, 10.3 0 M3.09 0 C4.61 0, 6.12 0, 10.3 0 M10.3 0 C12.36 0, 13.39 1.03, 13.39 3.09 M10.3 0 C12.36 0, 13.39 1.03, 13.39 3.09 M13.39 3.09 C13.39 4.35, 13.39 5.61, 13.39 9.27 M13.39 3.09 C13.39 4.75, 13.39 6.4, 13.39 9.27 M13.39 9.27 C13.39 11.33, 12.36 12.36, 10.3 12.36 M13.39 9.27 C13.39 11.33, 12.36 12.36, 10.3 12.36 M10.3 12.36 C8 12.36, 5.7 12.36, 3.09 12.36 M10.3 12.36 C7.57 12.36, 4.85 12.36, 3.09 12.36 M3.09 12.36 C1.03 12.36, 0 11.33, 0 9.27 M3.09 12.36 C1.03 12.36, 0 11.33, 0 9.27 M0 9.27 C0 7.49, 0 5.71, 0 3.09 M0 9.27 C0 7.37, 0 5.48, 0 3.09 M0 3.09 C0 1.03, 1.03 0, 3.09 0 M0 3.09 C0 1.03, 1.03 0, 3.09 0" stroke="#E1E1E1" stroke-width="4" fill="none"></path></g><g stroke-linecap="round"><g transform="translate(155.69318718692853 443.4215655244747) rotate(0 25.596213303084255 -88.73300080983921)"><path d="M0 0 C7.29 -8.55, 35.47 -41.37, 43.75 -51.3 C52.03 -61.23, 48.45 -54.55, 49.7 -59.58 C50.94 -64.6, 51.13 -61.78, 51.19 -81.43 C51.26 -101.08, 50.27 -161.46, 50.08 -177.47 M0 0 C7.29 -8.55, 35.47 -41.37, 43.75 -51.3 C52.03 -61.23, 48.45 -54.55, 49.7 -59.58 C50.94 -64.6, 51.13 -61.78, 51.19 -81.43 C51.26 -101.08, 50.27 -161.46, 50.08 -177.47" stroke="#E1E1E1" stroke-width="4" fill="none"></path></g></g><mask></mask><g stroke-linecap="round"><g transform="translate(266.3084726229838 347.12514941306057) rotate(0 -15.318945840482002 -41.501379937860335)"><path d="M0 0 C-3.76 -3.87, -17.46 -16.78, -22.57 -23.21 C-27.67 -29.64, -29.32 -28.63, -30.64 -38.59 C-31.95 -48.56, -30.48 -75.6, -30.45 -83 M0 0 C-3.76 -3.87, -17.46 -16.78, -22.57 -23.21 C-27.67 -29.64, -29.32 -28.63, -30.64 -38.59 C-31.95 -48.56, -30.48 -75.6, -30.45 -83" stroke="#E1E1E1" stroke-width="4" fill="none"></path></g></g><mask></mask><g stroke-linecap="round"><g transform="translate(208.04369162561966 361.07235654958953) rotate(0 27.24535204599122 0.16697866422460628)"><path d="M0 0 C9.08 0.06, 45.41 0.28, 54.49 0.33 M0 0 C9.08 0.06, 45.41 0.28, 54.49 0.33" stroke="#E1E1E1" stroke-width="4" fill="none"></path></g></g><mask></mask><g stroke-linecap="round"><g transform="translate(236.57549757395213 362.4494816620667) rotate(0 -0.29535473403213075 39.59279585107746)"><path d="M0 0 C-0.1 13.2, -0.49 65.99, -0.59 79.19 M0 0 C-0.1 13.2, -0.49 65.99, -0.59 79.19" stroke="#E1E1E1" stroke-width="4" fill="none"></path></g></g><mask></mask><g stroke-linecap="round"><g transform="translate(177.0708043955649 417.92518427682666) rotate(0 -0.007378795548461881 -26.36935569111421)"><path d="M0 0 C0 -8.79, -0.01 -43.95, -0.01 -52.74 M0 0 C0 -8.79, -0.01 -43.95, -0.01 -52.74" stroke="#E1E1E1" stroke-width="4" fill="none"></path></g></g><mask></mask><g stroke-linecap="round"><g transform="translate(284.9945845230152 128.18798777531578) rotate(0 -20.16950383476059 0)"><path d="M0 0 C-6.72 0, -33.62 0, -40.34 0 M0 0 C-6.72 0, -33.62 0, -40.34 0" stroke="#E1E1E1" stroke-width="4" fill="none"></path></g></g><mask></mask><g stroke-linecap="round"><g transform="translate(285.57315286587004 82.67130293972372) rotate(0 -14.474964734225935 0)"><path d="M0 0 C-4.82 0, -24.12 0, -28.95 0 M0 0 C-4.82 0, -24.12 0, -28.95 0" stroke="#E1E1E1" stroke-width="4" fill="none"></path></g></g><mask></mask><g stroke-linecap="round"><g transform="translate(319.6033879201834 28.385514747209015) rotate(0 -69.84240204893784 4.713362214666091)"><path d="M0 0 C-8.93 0, -43.37 1.15, -53.6 0 C-63.83 -1.15, -60.04 -4.14, -61.37 -6.89 C-62.71 -9.64, -58.74 -14.82, -61.62 -16.49 C-64.49 -18.16, -66.68 -16.73, -78.6 -16.92 C-90.53 -17.11, -123.01 -19.59, -133.16 -17.64 C-143.32 -15.68, -138.47 -12.64, -139.56 -5.19 C-140.64 2.26, -139.66 21.69, -139.68 27.07 M0 0 C-8.93 0, -43.37 1.15, -53.6 0 C-63.83 -1.15, -60.04 -4.14, -61.37 -6.89 C-62.71 -9.64, -58.74 -14.82, -61.62 -16.49 C-64.49 -18.16, -66.68 -16.73, -78.6 -16.92 C-90.53 -17.11, -123.01 -19.59, -133.16 -17.64 C-143.32 -15.68, -138.47 -12.64, -139.56 -5.19 C-140.64 2.26, -139.66 21.69, -139.68 27.07" stroke="#E1E1E1" stroke-width="4" fill="none"></path></g></g><mask></mask><g stroke-linecap="round"><g transform="translate(102.20248881692282 91.97584715942634) rotate(0 -35.254207324464005 -35.080059328023026)"><path d="M0 0 C-7.45 -0.01, -35.83 1.52, -44.69 -0.04 C-53.55 -1.59, -51.6 -3.09, -53.17 -9.31 C-54.73 -15.53, -55.69 -32.07, -54.1 -37.37 C-52.52 -42.68, -46.29 -38.72, -43.64 -41.14 C-40.98 -43.55, -38.68 -48.1, -38.18 -51.86 C-37.68 -55.63, -38.34 -60.69, -40.64 -63.74 C-42.93 -66.79, -48.19 -69.61, -51.95 -70.16 C-55.71 -70.71, -60.08 -69.16, -63.17 -67.04 C-66.27 -64.92, -69.98 -61.27, -70.51 -57.43 C-71.04 -53.59, -69.11 -47.11, -66.34 -43.99 C-63.56 -40.87, -55.95 -39.6, -53.87 -38.72 M0 0 C-7.45 -0.01, -35.83 1.52, -44.69 -0.04 C-53.55 -1.59, -51.6 -3.09, -53.17 -9.31 C-54.73 -15.53, -55.69 -32.07, -54.1 -37.37 C-52.52 -42.68, -46.29 -38.72, -43.64 -41.14 C-40.98 -43.55, -38.68 -48.1, -38.18 -51.86 C-37.68 -55.63, -38.34 -60.69, -40.64 -63.74 C-42.93 -66.79, -48.19 -69.61, -51.95 -70.16 C-55.71 -70.71, -60.08 -69.16, -63.17 -67.04 C-66.27 -64.92, -69.98 -61.27, -70.51 -57.43 C-71.04 -53.59, -69.11 -47.11, -66.34 -43.99 C-63.56 -40.87, -55.95 -39.6, -53.87 -38.72" stroke="#E1E1E1" stroke-width="4" fill="none"></path></g></g><mask></mask><g stroke-linecap="round"><g transform="translate(120.7306616068065 134.9982291565952) rotate(0 -55.348733722787046 1.4528639028924317)"><path d="M0 0 C-12.07 0.24, -58.82 1.75, -72.4 1.43 C-85.98 1.12, -79.41 0.09, -81.46 -1.88 C-83.51 -3.84, -82.37 -8.46, -84.69 -10.34 C-87.02 -12.22, -91.94 -13.31, -95.43 -13.16 C-98.93 -13, -103.12 -11.8, -105.66 -9.42 C-108.21 -7.04, -111.07 -2.78, -110.7 1.13 C-110.32 5.04, -106.83 11.55, -103.42 14.04 C-100.01 16.53, -93.91 16.74, -90.24 16.06 C-86.57 15.38, -82.8 12.8, -81.41 9.95 C-80.02 7.1, -81.83 0.78, -81.91 -1.05 M0 0 C-12.07 0.24, -58.82 1.75, -72.4 1.43 C-85.98 1.12, -79.41 0.09, -81.46 -1.88 C-83.51 -3.84, -82.37 -8.46, -84.69 -10.34 C-87.02 -12.22, -91.94 -13.31, -95.43 -13.16 C-98.93 -13, -103.12 -11.8, -105.66 -9.42 C-108.21 -7.04, -111.07 -2.78, -110.7 1.13 C-110.32 5.04, -106.83 11.55, -103.42 14.04 C-100.01 16.53, -93.91 16.74, -90.24 16.06 C-86.57 15.38, -82.8 12.8, -81.41 9.95 C-80.02 7.1, -81.83 0.78, -81.91 -1.05" stroke="#E1E1E1" stroke-width="4" fill="none"></path></g></g><mask></mask><g stroke-linecap="round"><g transform="translate(115.987574602613 187.6085345533242) rotate(0 -41.08620848617605 26.44799318982721)"><path d="M0 0 C-0.04 4.97, 0.4 23.49, -0.23 29.8 C-0.86 36.12, -0.96 36.4, -3.79 37.89 C-6.62 39.38, -12.08 38.59, -17.23 38.75 C-22.39 38.91, -29.1 38.97, -34.7 38.87 C-40.31 38.77, -47.23 39.61, -50.87 38.14 C-54.51 36.66, -54.14 32.32, -56.54 30.01 C-58.93 27.71, -62.21 24.72, -65.26 24.31 C-68.31 23.89, -72.04 25.55, -74.86 27.52 C-77.67 29.49, -81.8 32.62, -82.17 36.13 C-82.54 39.65, -79.76 45.81, -77.09 48.6 C-74.42 51.39, -69.48 52.81, -66.15 52.9 C-62.83 52.98, -59.25 51.6, -57.15 49.1 C-55.05 46.6, -54.15 39.78, -53.55 37.91 M0 0 C-0.04 4.97, 0.4 23.49, -0.23 29.8 C-0.86 36.12, -0.96 36.4, -3.79 37.89 C-6.62 39.38, -12.08 38.59, -17.23 38.75 C-22.39 38.91, -29.1 38.97, -34.7 38.87 C-40.31 38.77, -47.23 39.61, -50.87 38.14 C-54.51 36.66, -54.14 32.32, -56.54 30.01 C-58.93 27.71, -62.21 24.72, -65.26 24.31 C-68.31 23.89, -72.04 25.55, -74.86 27.52 C-77.67 29.49, -81.8 32.62, -82.17 36.13 C-82.54 39.65, -79.76 45.81, -77.09 48.6 C-74.42 51.39, -69.48 52.81, -66.15 52.9 C-62.83 52.98, -59.25 51.6, -57.15 49.1 C-55.05 46.6, -54.15 39.78, -53.55 37.91" stroke="#E1E1E1" stroke-width="4" fill="none"></path></g></g><mask></mask><g stroke-linecap="round"><g transform="translate(152.25939664164366 92.62818748032754) rotate(0 27.61930759775069 32.80005472125444)"><path d="M0 0 C7.58 -0.02, 36.14 -0.07, 45.47 -0.09 C54.8 -0.11, 53.57 -0.61, 56 -0.14 C58.43 0.32, 59.25 0.97, 60.03 2.69 C60.82 4.4, 60.57 1.17, 60.73 10.16 C60.88 19.15, 61.87 47.47, 60.94 56.62 C60.02 65.78, 58.02 63.57, 55.15 65.09 C52.28 66.61, 49.26 65.69, 43.71 65.74 C38.15 65.8, 28.73 65.49, 21.84 65.44 C14.96 65.39, 6.51 65.64, 2.41 65.42 C-1.68 65.21, -1.4 65.03, -2.73 64.17 C-4.07 63.31, -5.1 62.39, -5.59 60.26 C-6.09 58.12, -5.73 55.14, -5.71 51.34 C-5.68 47.55, -5.52 42.12, -5.46 37.48 C-5.39 32.84, -5.36 27.45, -5.34 23.52 C-5.32 19.58, -5.32 16.71, -5.33 13.89 C-5.34 11.07, -5.56 8.6, -5.38 6.61 C-5.21 4.62, -5.18 3.03, -4.29 1.93 C-3.39 0.82, -0.71 0.32, 0 0 M0 0 C7.58 -0.02, 36.14 -0.07, 45.47 -0.09 C54.8 -0.11, 53.57 -0.61, 56 -0.14 C58.43 0.32, 59.25 0.97, 60.03 2.69 C60.82 4.4, 60.57 1.17, 60.73 10.16 C60.88 19.15, 61.87 47.47, 60.94 56.62 C60.02 65.78, 58.02 63.57, 55.15 65.09 C52.28 66.61, 49.26 65.69, 43.71 65.74 C38.15 65.8, 28.73 65.49, 21.84 65.44 C14.96 65.39, 6.51 65.64, 2.41 65.42 C-1.68 65.21, -1.4 65.03, -2.73 64.17 C-4.07 63.31, -5.1 62.39, -5.59 60.26 C-6.09 58.12, -5.73 55.14, -5.71 51.34 C-5.68 47.55, -5.52 42.12, -5.46 37.48 C-5.39 32.84, -5.36 27.45, -5.34 23.52 C-5.32 19.58, -5.32 16.71, -5.33 13.89 C-5.34 11.07, -5.56 8.6, -5.38 6.61 C-5.21 4.62, -5.18 3.03, -4.29 1.93 C-3.39 0.82, -0.71 0.32, 0 0" stroke="#E1E1E1" stroke-width="4" fill="none"></path></g></g><mask></mask><g stroke-linecap="round" transform="translate(127.31725332790415 87.1352925141286) rotate(0 4.167086114298897 4.167086114298911)"><path d="M8.33 4.17 C8.33 4.41, 8.31 4.65, 8.27 4.89 C8.23 5.13, 8.17 5.37, 8.08 5.59 C8 5.82, 7.9 6.04, 7.78 6.25 C7.66 6.46, 7.51 6.66, 7.36 6.85 C7.2 7.03, 7.03 7.2, 6.85 7.36 C6.66 7.51, 6.46 7.66, 6.25 7.78 C6.04 7.9, 5.82 8, 5.59 8.08 C5.37 8.17, 5.13 8.23, 4.89 8.27 C4.65 8.31, 4.41 8.33, 4.17 8.33 C3.93 8.33, 3.68 8.31, 3.44 8.27 C3.21 8.23, 2.97 8.17, 2.74 8.08 C2.52 8, 2.29 7.9, 2.08 7.78 C1.87 7.66, 1.67 7.51, 1.49 7.36 C1.3 7.2, 1.13 7.03, 0.97 6.85 C0.82 6.66, 0.68 6.46, 0.56 6.25 C0.44 6.04, 0.33 5.82, 0.25 5.59 C0.17 5.37, 0.11 5.13, 0.06 4.89 C0.02 4.65, 0 4.41, 0 4.17 C0 3.93, 0.02 3.68, 0.06 3.44 C0.11 3.21, 0.17 2.97, 0.25 2.74 C0.33 2.52, 0.44 2.29, 0.56 2.08 C0.68 1.87, 0.82 1.67, 0.97 1.49 C1.13 1.3, 1.3 1.13, 1.49 0.97 C1.67 0.82, 1.87 0.68, 2.08 0.56 C2.29 0.44, 2.52 0.33, 2.74 0.25 C2.97 0.17, 3.21 0.11, 3.44 0.06 C3.68 0.02, 3.93 0, 4.17 0 C4.41 0, 4.65 0.02, 4.89 0.06 C5.13 0.11, 5.37 0.17, 5.59 0.25 C5.82 0.33, 6.04 0.44, 6.25 0.56 C6.46 0.68, 6.66 0.82, 6.85 0.97 C7.03 1.13, 7.2 1.3, 7.36 1.49 C7.51 1.67, 7.66 1.87, 7.78 2.08 C7.9 2.29, 8 2.52, 8.08 2.74 C8.17 2.97, 8.23 3.21, 8.27 3.44 C8.31 3.68, 8.32 4.05, 8.33 4.17 C8.34 4.29, 8.34 4.05, 8.33 4.17" stroke="#E1E1E1" stroke-width="4" fill="none"></path></g><g stroke-linecap="round" transform="translate(142.30088857726264 71.59583973373395) rotate(0 4.167086114298897 4.167086114298911)"><path d="M8.33 4.17 C8.33 4.41, 8.31 4.65, 8.27 4.89 C8.23 5.13, 8.17 5.37, 8.08 5.59 C8 5.82, 7.9 6.04, 7.78 6.25 C7.66 6.46, 7.51 6.66, 7.36 6.85 C7.2 7.03, 7.03 7.2, 6.85 7.36 C6.66 7.51, 6.46 7.66, 6.25 7.78 C6.04 7.9, 5.82 8, 5.59 8.08 C5.37 8.17, 5.13 8.23, 4.89 8.27 C4.65 8.31, 4.41 8.33, 4.17 8.33 C3.93 8.33, 3.68 8.31, 3.44 8.27 C3.21 8.23, 2.97 8.17, 2.74 8.08 C2.52 8, 2.29 7.9, 2.08 7.78 C1.87 7.66, 1.67 7.51, 1.49 7.36 C1.3 7.2, 1.13 7.03, 0.97 6.85 C0.82 6.66, 0.68 6.46, 0.56 6.25 C0.44 6.04, 0.33 5.82, 0.25 5.59 C0.17 5.37, 0.11 5.13, 0.06 4.89 C0.02 4.65, 0 4.41, 0 4.17 C0 3.93, 0.02 3.68, 0.06 3.44 C0.11 3.21, 0.17 2.97, 0.25 2.74 C0.33 2.52, 0.44 2.29, 0.56 2.08 C0.68 1.87, 0.82 1.67, 0.97 1.49 C1.13 1.3, 1.3 1.13, 1.49 0.97 C1.67 0.82, 1.87 0.68, 2.08 0.56 C2.29 0.44, 2.52 0.33, 2.74 0.25 C2.97 0.17, 3.21 0.11, 3.44 0.06 C3.68 0.02, 3.93 0, 4.17 0 C4.41 0, 4.65 0.02, 4.89 0.06 C5.13 0.11, 5.37 0.17, 5.59 0.25 C5.82 0.33, 6.04 0.44, 6.25 0.56 C6.46 0.68, 6.66 0.82, 6.85 0.97 C7.03 1.13, 7.2 1.3, 7.36 1.49 C7.51 1.67, 7.66 1.87, 7.78 2.08 C7.9 2.29, 8 2.52, 8.08 2.74 C8.17 2.97, 8.23 3.21, 8.27 3.44 C8.31 3.68, 8.32 4.05, 8.33 4.17 C8.34 4.29, 8.34 4.05, 8.33 4.17" stroke="#E1E1E1" stroke-width="4" fill="none"></path></g><g stroke-linecap="round" transform="translate(176.45559254196746 70.14525385106339) rotate(0 4.167086114298897 4.167086114298911)"><path d="M8.33 4.17 C8.33 4.41, 8.31 4.65, 8.27 4.89 C8.23 5.13, 8.17 5.37, 8.08 5.59 C8 5.82, 7.9 6.04, 7.78 6.25 C7.66 6.46, 7.51 6.66, 7.36 6.85 C7.2 7.03, 7.03 7.2, 6.85 7.36 C6.66 7.51, 6.46 7.66, 6.25 7.78 C6.04 7.9, 5.82 8, 5.59 8.08 C5.37 8.17, 5.13 8.23, 4.89 8.27 C4.65 8.31, 4.41 8.33, 4.17 8.33 C3.93 8.33, 3.68 8.31, 3.44 8.27 C3.21 8.23, 2.97 8.17, 2.74 8.08 C2.52 8, 2.29 7.9, 2.08 7.78 C1.87 7.66, 1.67 7.51, 1.49 7.36 C1.3 7.2, 1.13 7.03, 0.97 6.85 C0.82 6.66, 0.68 6.46, 0.56 6.25 C0.44 6.04, 0.33 5.82, 0.25 5.59 C0.17 5.37, 0.11 5.13, 0.06 4.89 C0.02 4.65, 0 4.41, 0 4.17 C0 3.93, 0.02 3.68, 0.06 3.44 C0.11 3.21, 0.17 2.97, 0.25 2.74 C0.33 2.52, 0.44 2.29, 0.56 2.08 C0.68 1.87, 0.82 1.67, 0.97 1.49 C1.13 1.3, 1.3 1.13, 1.49 0.97 C1.67 0.82, 1.87 0.68, 2.08 0.56 C2.29 0.44, 2.52 0.33, 2.74 0.25 C2.97 0.17, 3.21 0.11, 3.44 0.06 C3.68 0.02, 3.93 0, 4.17 0 C4.41 0, 4.65 0.02, 4.89 0.06 C5.13 0.11, 5.37 0.17, 5.59 0.25 C5.82 0.33, 6.04 0.44, 6.25 0.56 C6.46 0.68, 6.66 0.82, 6.85 0.97 C7.03 1.13, 7.2 1.3, 7.36 1.49 C7.51 1.67, 7.66 1.87, 7.78 2.08 C7.9 2.29, 8 2.52, 8.08 2.74 C8.17 2.97, 8.23 3.21, 8.27 3.44 C8.31 3.68, 8.32 4.05, 8.33 4.17 C8.34 4.29, 8.34 4.05, 8.33 4.17" stroke="#E1E1E1" stroke-width="4" fill="none"></path></g><g stroke-linecap="round" transform="translate(210.34655361890805 71.72771117761243) rotate(0 4.167086114298897 4.167086114298911)"><path d="M8.33 4.17 C8.33 4.41, 8.31 4.65, 8.27 4.89 C8.23 5.13, 8.17 5.37, 8.08 5.59 C8 5.82, 7.9 6.04, 7.78 6.25 C7.66 6.46, 7.51 6.66, 7.36 6.85 C7.2 7.03, 7.03 7.2, 6.85 7.36 C6.66 7.51, 6.46 7.66, 6.25 7.78 C6.04 7.9, 5.82 8, 5.59 8.08 C5.37 8.17, 5.13 8.23, 4.89 8.27 C4.65 8.31, 4.41 8.33, 4.17 8.33 C3.93 8.33, 3.68 8.31, 3.44 8.27 C3.21 8.23, 2.97 8.17, 2.74 8.08 C2.52 8, 2.29 7.9, 2.08 7.78 C1.87 7.66, 1.67 7.51, 1.49 7.36 C1.3 7.2, 1.13 7.03, 0.97 6.85 C0.82 6.66, 0.68 6.46, 0.56 6.25 C0.44 6.04, 0.33 5.82, 0.25 5.59 C0.17 5.37, 0.11 5.13, 0.06 4.89 C0.02 4.65, 0 4.41, 0 4.17 C0 3.93, 0.02 3.68, 0.06 3.44 C0.11 3.21, 0.17 2.97, 0.25 2.74 C0.33 2.52, 0.44 2.29, 0.56 2.08 C0.68 1.87, 0.82 1.67, 0.97 1.49 C1.13 1.3, 1.3 1.13, 1.49 0.97 C1.67 0.82, 1.87 0.68, 2.08 0.56 C2.29 0.44, 2.52 0.33, 2.74 0.25 C2.97 0.17, 3.21 0.11, 3.44 0.06 C3.68 0.02, 3.93 0, 4.17 0 C4.41 0, 4.65 0.02, 4.89 0.06 C5.13 0.11, 5.37 0.17, 5.59 0.25 C5.82 0.33, 6.04 0.44, 6.25 0.56 C6.46 0.68, 6.66 0.82, 6.85 0.97 C7.03 1.13, 7.2 1.3, 7.36 1.49 C7.51 1.67, 7.66 1.87, 7.78 2.08 C7.9 2.29, 8 2.52, 8.08 2.74 C8.17 2.97, 8.23 3.21, 8.27 3.44 C8.31 3.68, 8.32 4.05, 8.33 4.17 C8.34 4.29, 8.34 4.05, 8.33 4.17" stroke="#E1E1E1" stroke-width="4" fill="none"></path></g><g stroke-linecap="round" transform="translate(225.3798982211349 87.02479866759626) rotate(0 4.167086114298897 4.167086114298911)"><path d="M8.33 4.17 C8.33 4.41, 8.31 4.65, 8.27 4.89 C8.23 5.13, 8.17 5.37, 8.08 5.59 C8 5.82, 7.9 6.04, 7.78 6.25 C7.66 6.46, 7.51 6.66, 7.36 6.85 C7.2 7.03, 7.03 7.2, 6.85 7.36 C6.66 7.51, 6.46 7.66, 6.25 7.78 C6.04 7.9, 5.82 8, 5.59 8.08 C5.37 8.17, 5.13 8.23, 4.89 8.27 C4.65 8.31, 4.41 8.33, 4.17 8.33 C3.93 8.33, 3.68 8.31, 3.44 8.27 C3.21 8.23, 2.97 8.17, 2.74 8.08 C2.52 8, 2.29 7.9, 2.08 7.78 C1.87 7.66, 1.67 7.51, 1.49 7.36 C1.3 7.2, 1.13 7.03, 0.97 6.85 C0.82 6.66, 0.68 6.46, 0.56 6.25 C0.44 6.04, 0.33 5.82, 0.25 5.59 C0.17 5.37, 0.11 5.13, 0.06 4.89 C0.02 4.65, 0 4.41, 0 4.17 C0 3.93, 0.02 3.68, 0.06 3.44 C0.11 3.21, 0.17 2.97, 0.25 2.74 C0.33 2.52, 0.44 2.29, 0.56 2.08 C0.68 1.87, 0.82 1.67, 0.97 1.49 C1.13 1.3, 1.3 1.13, 1.49 0.97 C1.67 0.82, 1.87 0.68, 2.08 0.56 C2.29 0.44, 2.52 0.33, 2.74 0.25 C2.97 0.17, 3.21 0.11, 3.44 0.06 C3.68 0.02, 3.93 0, 4.17 0 C4.41 0, 4.65 0.02, 4.89 0.06 C5.13 0.11, 5.37 0.17, 5.59 0.25 C5.82 0.33, 6.04 0.44, 6.25 0.56 C6.46 0.68, 6.66 0.82, 6.85 0.97 C7.03 1.13, 7.2 1.3, 7.36 1.49 C7.51 1.67, 7.66 1.87, 7.78 2.08 C7.9 2.29, 8 2.52, 8.08 2.74 C8.17 2.97, 8.23 3.21, 8.27 3.44 C8.31 3.68, 8.32 4.05, 8.33 4.17 C8.34 4.29, 8.34 4.05, 8.33 4.17" stroke="#E1E1E1" stroke-width="4" fill="none"></path></g><g stroke-linecap="round" transform="translate(227.22609843544092 120.78388830066291) rotate(0 4.167086114298897 4.167086114298897)"><path d="M8.33 4.17 C8.33 4.41, 8.31 4.65, 8.27 4.89 C8.23 5.13, 8.17 5.37, 8.08 5.59 C8 5.82, 7.9 6.04, 7.78 6.25 C7.66 6.46, 7.51 6.66, 7.36 6.85 C7.2 7.03, 7.03 7.2, 6.85 7.36 C6.66 7.51, 6.46 7.66, 6.25 7.78 C6.04 7.9, 5.82 8, 5.59 8.08 C5.37 8.17, 5.13 8.23, 4.89 8.27 C4.65 8.31, 4.41 8.33, 4.17 8.33 C3.93 8.33, 3.68 8.31, 3.44 8.27 C3.21 8.23, 2.97 8.17, 2.74 8.08 C2.52 8, 2.29 7.9, 2.08 7.78 C1.87 7.66, 1.67 7.51, 1.49 7.36 C1.3 7.2, 1.13 7.03, 0.97 6.85 C0.82 6.66, 0.68 6.46, 0.56 6.25 C0.44 6.04, 0.33 5.82, 0.25 5.59 C0.17 5.37, 0.11 5.13, 0.06 4.89 C0.02 4.65, 0 4.41, 0 4.17 C0 3.93, 0.02 3.68, 0.06 3.44 C0.11 3.21, 0.17 2.97, 0.25 2.74 C0.33 2.52, 0.44 2.29, 0.56 2.08 C0.68 1.87, 0.82 1.67, 0.97 1.49 C1.13 1.3, 1.3 1.13, 1.49 0.97 C1.67 0.82, 1.87 0.68, 2.08 0.56 C2.29 0.44, 2.52 0.33, 2.74 0.25 C2.97 0.17, 3.21 0.11, 3.44 0.06 C3.68 0.02, 3.93 0, 4.17 0 C4.41 0, 4.65 0.02, 4.89 0.06 C5.13 0.11, 5.37 0.17, 5.59 0.25 C5.82 0.33, 6.04 0.44, 6.25 0.56 C6.46 0.68, 6.66 0.82, 6.85 0.97 C7.03 1.13, 7.2 1.3, 7.36 1.49 C7.51 1.67, 7.66 1.87, 7.78 2.08 C7.9 2.29, 8 2.52, 8.08 2.74 C8.17 2.97, 8.23 3.21, 8.27 3.44 C8.31 3.68, 8.32 4.05, 8.33 4.17 C8.34 4.29, 8.34 4.05, 8.33 4.17" stroke="#E1E1E1" stroke-width="4" fill="none"></path></g><g stroke-linecap="round" transform="translate(225.57925075544085 154.79487299645137) rotate(0 4.167086114298897 4.167086114298897)"><path d="M8.33 4.17 C8.33 4.41, 8.31 4.65, 8.27 4.89 C8.23 5.13, 8.17 5.37, 8.08 5.59 C8 5.82, 7.9 6.04, 7.78 6.25 C7.66 6.46, 7.51 6.66, 7.36 6.85 C7.2 7.03, 7.03 7.2, 6.85 7.36 C6.66 7.51, 6.46 7.66, 6.25 7.78 C6.04 7.9, 5.82 8, 5.59 8.08 C5.37 8.17, 5.13 8.23, 4.89 8.27 C4.65 8.31, 4.41 8.33, 4.17 8.33 C3.93 8.33, 3.68 8.31, 3.44 8.27 C3.21 8.23, 2.97 8.17, 2.74 8.08 C2.52 8, 2.29 7.9, 2.08 7.78 C1.87 7.66, 1.67 7.51, 1.49 7.36 C1.3 7.2, 1.13 7.03, 0.97 6.85 C0.82 6.66, 0.68 6.46, 0.56 6.25 C0.44 6.04, 0.33 5.82, 0.25 5.59 C0.17 5.37, 0.11 5.13, 0.06 4.89 C0.02 4.65, 0 4.41, 0 4.17 C0 3.93, 0.02 3.68, 0.06 3.44 C0.11 3.21, 0.17 2.97, 0.25 2.74 C0.33 2.52, 0.44 2.29, 0.56 2.08 C0.68 1.87, 0.82 1.67, 0.97 1.49 C1.13 1.3, 1.3 1.13, 1.49 0.97 C1.67 0.82, 1.87 0.68, 2.08 0.56 C2.29 0.44, 2.52 0.33, 2.74 0.25 C2.97 0.17, 3.21 0.11, 3.44 0.06 C3.68 0.02, 3.93 0, 4.17 0 C4.41 0, 4.65 0.02, 4.89 0.06 C5.13 0.11, 5.37 0.17, 5.59 0.25 C5.82 0.33, 6.04 0.44, 6.25 0.56 C6.46 0.68, 6.66 0.82, 6.85 0.97 C7.03 1.13, 7.2 1.3, 7.36 1.49 C7.51 1.67, 7.66 1.87, 7.78 2.08 C7.9 2.29, 8 2.52, 8.08 2.74 C8.17 2.97, 8.23 3.21, 8.27 3.44 C8.31 3.68, 8.32 4.05, 8.33 4.17 C8.34 4.29, 8.34 4.05, 8.33 4.17" stroke="#E1E1E1" stroke-width="4" fill="none"></path></g><g stroke-linecap="round" transform="translate(210.3182218633931 170.2222865618309) rotate(0 4.167086114298897 4.167086114298897)"><path d="M8.33 4.17 C8.33 4.41, 8.31 4.65, 8.27 4.89 C8.23 5.13, 8.17 5.37, 8.08 5.59 C8 5.82, 7.9 6.04, 7.78 6.25 C7.66 6.46, 7.51 6.66, 7.36 6.85 C7.2 7.03, 7.03 7.2, 6.85 7.36 C6.66 7.51, 6.46 7.66, 6.25 7.78 C6.04 7.9, 5.82 8, 5.59 8.08 C5.37 8.17, 5.13 8.23, 4.89 8.27 C4.65 8.31, 4.41 8.33, 4.17 8.33 C3.93 8.33, 3.68 8.31, 3.44 8.27 C3.21 8.23, 2.97 8.17, 2.74 8.08 C2.52 8, 2.29 7.9, 2.08 7.78 C1.87 7.66, 1.67 7.51, 1.49 7.36 C1.3 7.2, 1.13 7.03, 0.97 6.85 C0.82 6.66, 0.68 6.46, 0.56 6.25 C0.44 6.04, 0.33 5.82, 0.25 5.59 C0.17 5.37, 0.11 5.13, 0.06 4.89 C0.02 4.65, 0 4.41, 0 4.17 C0 3.93, 0.02 3.68, 0.06 3.44 C0.11 3.21, 0.17 2.97, 0.25 2.74 C0.33 2.52, 0.44 2.29, 0.56 2.08 C0.68 1.87, 0.82 1.67, 0.97 1.49 C1.13 1.3, 1.3 1.13, 1.49 0.97 C1.67 0.82, 1.87 0.68, 2.08 0.56 C2.29 0.44, 2.52 0.33, 2.74 0.25 C2.97 0.17, 3.21 0.11, 3.44 0.06 C3.68 0.02, 3.93 0, 4.17 0 C4.41 0, 4.65 0.02, 4.89 0.06 C5.13 0.11, 5.37 0.17, 5.59 0.25 C5.82 0.33, 6.04 0.44, 6.25 0.56 C6.46 0.68, 6.66 0.82, 6.85 0.97 C7.03 1.13, 7.2 1.3, 7.36 1.49 C7.51 1.67, 7.66 1.87, 7.78 2.08 C7.9 2.29, 8 2.52, 8.08 2.74 C8.17 2.97, 8.23 3.21, 8.27 3.44 C8.31 3.68, 8.32 4.05, 8.33 4.17 C8.34 4.29, 8.34 4.05, 8.33 4.17" stroke="#E1E1E1" stroke-width="4" fill="none"></path></g><g stroke-linecap="round" transform="translate(176.4555925419602 171.8181370818997) rotate(0 4.167086114298897 4.167086114298897)"><path d="M8.33 4.17 C8.33 4.41, 8.31 4.65, 8.27 4.89 C8.23 5.13, 8.17 5.37, 8.08 5.59 C8 5.82, 7.9 6.04, 7.78 6.25 C7.66 6.46, 7.51 6.66, 7.36 6.85 C7.2 7.03, 7.03 7.2, 6.85 7.36 C6.66 7.51, 6.46 7.66, 6.25 7.78 C6.04 7.9, 5.82 8, 5.59 8.08 C5.37 8.17, 5.13 8.23, 4.89 8.27 C4.65 8.31, 4.41 8.33, 4.17 8.33 C3.93 8.33, 3.68 8.31, 3.44 8.27 C3.21 8.23, 2.97 8.17, 2.74 8.08 C2.52 8, 2.29 7.9, 2.08 7.78 C1.87 7.66, 1.67 7.51, 1.49 7.36 C1.3 7.2, 1.13 7.03, 0.97 6.85 C0.82 6.66, 0.68 6.46, 0.56 6.25 C0.44 6.04, 0.33 5.82, 0.25 5.59 C0.17 5.37, 0.11 5.13, 0.06 4.89 C0.02 4.65, 0 4.41, 0 4.17 C0 3.93, 0.02 3.68, 0.06 3.44 C0.11 3.21, 0.17 2.97, 0.25 2.74 C0.33 2.52, 0.44 2.29, 0.56 2.08 C0.68 1.87, 0.82 1.67, 0.97 1.49 C1.13 1.3, 1.3 1.13, 1.49 0.97 C1.67 0.82, 1.87 0.68, 2.08 0.56 C2.29 0.44, 2.52 0.33, 2.74 0.25 C2.97 0.17, 3.21 0.11, 3.44 0.06 C3.68 0.02, 3.93 0, 4.17 0 C4.41 0, 4.65 0.02, 4.89 0.06 C5.13 0.11, 5.37 0.17, 5.59 0.25 C5.82 0.33, 6.04 0.44, 6.25 0.56 C6.46 0.68, 6.66 0.82, 6.85 0.97 C7.03 1.13, 7.2 1.3, 7.36 1.49 C7.51 1.67, 7.66 1.87, 7.78 2.08 C7.9 2.29, 8 2.52, 8.08 2.74 C8.17 2.97, 8.23 3.21, 8.27 3.44 C8.31 3.68, 8.32 4.05, 8.33 4.17 C8.34 4.29, 8.34 4.05, 8.33 4.17" stroke="#E1E1E1" stroke-width="4" fill="none"></path></g><g stroke-linecap="round" transform="translate(142.30088857726264 169.70819397983308) rotate(0 4.167086114298897 4.167086114298897)"><path d="M8.33 4.17 C8.33 4.41, 8.31 4.65, 8.27 4.89 C8.23 5.13, 8.17 5.37, 8.08 5.59 C8 5.82, 7.9 6.04, 7.78 6.25 C7.66 6.46, 7.51 6.66, 7.36 6.85 C7.2 7.03, 7.03 7.2, 6.85 7.36 C6.66 7.51, 6.46 7.66, 6.25 7.78 C6.04 7.9, 5.82 8, 5.59 8.08 C5.37 8.17, 5.13 8.23, 4.89 8.27 C4.65 8.31, 4.41 8.33, 4.17 8.33 C3.93 8.33, 3.68 8.31, 3.44 8.27 C3.21 8.23, 2.97 8.17, 2.74 8.08 C2.52 8, 2.29 7.9, 2.08 7.78 C1.87 7.66, 1.67 7.51, 1.49 7.36 C1.3 7.2, 1.13 7.03, 0.97 6.85 C0.82 6.66, 0.68 6.46, 0.56 6.25 C0.44 6.04, 0.33 5.82, 0.25 5.59 C0.17 5.37, 0.11 5.13, 0.06 4.89 C0.02 4.65, 0 4.41, 0 4.17 C0 3.93, 0.02 3.68, 0.06 3.44 C0.11 3.21, 0.17 2.97, 0.25 2.74 C0.33 2.52, 0.44 2.29, 0.56 2.08 C0.68 1.87, 0.82 1.67, 0.97 1.49 C1.13 1.3, 1.3 1.13, 1.49 0.97 C1.67 0.82, 1.87 0.68, 2.08 0.56 C2.29 0.44, 2.52 0.33, 2.74 0.25 C2.97 0.17, 3.21 0.11, 3.44 0.06 C3.68 0.02, 3.93 0, 4.17 0 C4.41 0, 4.65 0.02, 4.89 0.06 C5.13 0.11, 5.37 0.17, 5.59 0.25 C5.82 0.33, 6.04 0.44, 6.25 0.56 C6.46 0.68, 6.66 0.82, 6.85 0.97 C7.03 1.13, 7.2 1.3, 7.36 1.49 C7.51 1.67, 7.66 1.87, 7.78 2.08 C7.9 2.29, 8 2.52, 8.08 2.74 C8.17 2.97, 8.23 3.21, 8.27 3.44 C8.31 3.68, 8.32 4.05, 8.33 4.17 C8.34 4.29, 8.34 4.05, 8.33 4.17" stroke="#E1E1E1" stroke-width="4" fill="none"></path></g><g stroke-linecap="round" transform="translate(127.26754397503578 154.80672082148834) rotate(0 4.167086114298897 4.167086114298897)"><path d="M8.33 4.17 C8.33 4.41, 8.31 4.65, 8.27 4.89 C8.23 5.13, 8.17 5.37, 8.08 5.59 C8 5.82, 7.9 6.04, 7.78 6.25 C7.66 6.46, 7.51 6.66, 7.36 6.85 C7.2 7.03, 7.03 7.2, 6.85 7.36 C6.66 7.51, 6.46 7.66, 6.25 7.78 C6.04 7.9, 5.82 8, 5.59 8.08 C5.37 8.17, 5.13 8.23, 4.89 8.27 C4.65 8.31, 4.41 8.33, 4.17 8.33 C3.93 8.33, 3.68 8.31, 3.44 8.27 C3.21 8.23, 2.97 8.17, 2.74 8.08 C2.52 8, 2.29 7.9, 2.08 7.78 C1.87 7.66, 1.67 7.51, 1.49 7.36 C1.3 7.2, 1.13 7.03, 0.97 6.85 C0.82 6.66, 0.68 6.46, 0.56 6.25 C0.44 6.04, 0.33 5.82, 0.25 5.59 C0.17 5.37, 0.11 5.13, 0.06 4.89 C0.02 4.65, 0 4.41, 0 4.17 C0 3.93, 0.02 3.68, 0.06 3.44 C0.11 3.21, 0.17 2.97, 0.25 2.74 C0.33 2.52, 0.44 2.29, 0.56 2.08 C0.68 1.87, 0.82 1.67, 0.97 1.49 C1.13 1.3, 1.3 1.13, 1.49 0.97 C1.67 0.82, 1.87 0.68, 2.08 0.56 C2.29 0.44, 2.52 0.33, 2.74 0.25 C2.97 0.17, 3.21 0.11, 3.44 0.06 C3.68 0.02, 3.93 0, 4.17 0 C4.41 0, 4.65 0.02, 4.89 0.06 C5.13 0.11, 5.37 0.17, 5.59 0.25 C5.82 0.33, 6.04 0.44, 6.25 0.56 C6.46 0.68, 6.66 0.82, 6.85 0.97 C7.03 1.13, 7.2 1.3, 7.36 1.49 C7.51 1.67, 7.66 1.87, 7.78 2.08 C7.9 2.29, 8 2.52, 8.08 2.74 C8.17 2.97, 8.23 3.21, 8.27 3.44 C8.31 3.68, 8.32 4.05, 8.33 4.17 C8.34 4.29, 8.34 4.05, 8.33 4.17" stroke="#E1E1E1" stroke-width="4" fill="none"></path></g><g stroke-linecap="round"><g transform="translate(146.59881588978647 136.55514635350067) rotate(0 -6.171686598110554 -0.1725661472637796)"><path d="M0 0 C-2.06 -0.06, -10.29 -0.29, -12.34 -0.35 M0 0 C-2.06 -0.06, -10.29 -0.29, -12.34 -0.35" stroke="#E1E1E1" stroke-width="4" fill="none"></path></g></g><mask></mask><g stroke-linecap="round"><g transform="translate(146.25883482353424 147.63234763934946) rotate(0 -7.413647735581918 3.313785150291693)"><path d="M0 0 C-2.02 0.02, -9.64 -0.26, -12.11 0.1 C-14.58 0.47, -14.39 1.1, -14.83 2.19 C-15.27 3.28, -14.78 5.89, -14.77 6.63 M0 0 C-2.02 0.02, -9.64 -0.26, -12.11 0.1 C-14.58 0.47, -14.39 1.1, -14.83 2.19 C-15.27 3.28, -14.78 5.89, -14.77 6.63" stroke="#E1E1E1" stroke-width="4" fill="none"></path></g></g><mask></mask><g stroke-linecap="round"><g transform="translate(158.02887631257659 158.36596199915624) rotate(0 -3.5190615971115164 8.35864056291129)"><path d="M0 0 C0 2.16, 0.25 10.24, 0 12.95 C-0.25 15.66, -0.32 15.62, -1.49 16.25 C-2.67 16.88, -6.11 16.64, -7.04 16.72 M0 0 C0 2.16, 0.25 10.24, 0 12.95 C-0.25 15.66, -0.32 15.62, -1.49 16.25 C-2.67 16.88, -6.11 16.64, -7.04 16.72" stroke="#E1E1E1" stroke-width="4" fill="none"></path></g></g><mask></mask><g stroke-linecap="round"><g transform="translate(169.35591216983926 158.368022490466) rotate(0 -0.0806167225276937 6.559058964505539)"><path d="M0 0 C-0.03 2.19, -0.13 10.93, -0.16 13.12 M0 0 C-0.03 2.19, -0.13 10.93, -0.16 13.12" stroke="#E1E1E1" stroke-width="4" fill="none"></path></g></g><mask></mask><g stroke-linecap="round"><g transform="translate(180.4284773502343 158.83678426363025) rotate(0 -0.026013702796575444 6.239167688533044)"><path d="M0 0 C-0.01 2.08, -0.04 10.4, -0.05 12.48 M0 0 C-0.01 2.08, -0.04 10.4, -0.05 12.48" stroke="#E1E1E1" stroke-width="4" fill="none"></path></g></g><mask></mask><g stroke-linecap="round"><g transform="translate(191.94971451352944 158.55089109428303) rotate(0 0.09761577584031045 6.734715848735249)"><path d="M0 0 C0.03 2.24, 0.16 11.22, 0.2 13.47 M0 0 C0.03 2.24, 0.16 11.22, 0.2 13.47" stroke="#E1E1E1" stroke-width="4" fill="none"></path></g></g><mask></mask><g stroke-linecap="round"><g transform="translate(203.33547437313723 159.17315947008814) rotate(0 3.0466939641536754 7.807974260150232)"><path d="M0 0 C0 2.15, -0.26 10.3, 0 12.9 C0.26 15.5, 0.54 15.14, 1.56 15.59 C2.57 16.04, 5.34 15.61, 6.09 15.62 M0 0 C0 2.15, -0.26 10.3, 0 12.9 C0.26 15.5, 0.54 15.14, 1.56 15.59 C2.57 16.04, 5.34 15.61, 6.09 15.62" stroke="#E1E1E1" stroke-width="4" fill="none"></path></g></g><mask></mask><g stroke-linecap="round"><g transform="translate(213.72395643841924 147.4412370702916) rotate(0 8.140486045400223 3.4662615072769825)"><path d="M0 0 C2 0.01, 9.42 -0.21, 12.01 0.04 C14.61 0.3, 14.85 0.37, 15.56 1.51 C16.27 2.66, 16.16 6.03, 16.28 6.93 M0 0 C2 0.01, 9.42 -0.21, 12.01 0.04 C14.61 0.3, 14.85 0.37, 15.56 1.51 C16.27 2.66, 16.16 6.03, 16.28 6.93" stroke="#E1E1E1" stroke-width="4" fill="none"></path></g></g><mask></mask><g stroke-linecap="round"><g transform="translate(213.50193849970424 136.4763325608705) rotate(0 6.864526801303768 0.014938562001916011)"><path d="M0 0 C2.29 0, 11.44 0.02, 13.73 0.03 M0 0 C2.29 0, 11.44 0.02, 13.73 0.03" stroke="#E1E1E1" stroke-width="4" fill="none"></path></g></g><mask></mask><g stroke-linecap="round"><g transform="translate(213.5864186434385 125.23738270713642) rotate(0 6.89594929379065 -0.07752598556174917)"><path d="M0 0 C2.3 -0.03, 11.49 -0.13, 13.79 -0.16 M0 0 C2.3 -0.03, 11.49 -0.13, 13.79 -0.16" stroke="#E1E1E1" stroke-width="4" fill="none"></path></g></g><mask></mask><g stroke-linecap="round"><g transform="translate(213.42157933858584 113.6991464905372) rotate(0 6.851391169198678 -0.008757088070098007)"><path d="M0 0 C2.28 0, 11.42 -0.01, 13.7 -0.02 M0 0 C2.28 0, 11.42 -0.01, 13.7 -0.02" stroke="#E1E1E1" stroke-width="4" fill="none"></path></g></g><mask></mask><g stroke-linecap="round"><g transform="translate(213.48339407790377 102.31441687657883) rotate(0 8.472740269236425 -3.0961457556082763)"><path d="M0 0 C2.23 0.03, 10.57 0.43, 13.39 0.16 C16.21 -0.1, 16.32 -0.49, 16.91 -1.58 C17.51 -2.66, 16.94 -5.56, 16.95 -6.35 M0 0 C2.23 0.03, 10.57 0.43, 13.39 0.16 C16.21 -0.1, 16.32 -0.49, 16.91 -1.58 C17.51 -2.66, 16.94 -5.56, 16.95 -6.35" stroke="#E1E1E1" stroke-width="4" fill="none"></path></g></g><mask></mask><g stroke-linecap="round"><g transform="translate(203.35813977755356 92.13507467932817) rotate(0 3.101812106712515 -7.994448723760627)"><path d="M0 0 C0.02 -2.04, -0.05 -9.6, 0.12 -12.25 C0.3 -14.89, 0.05 -15.26, 1.07 -15.89 C2.08 -16.51, 5.35 -15.97, 6.2 -15.99 M0 0 C0.02 -2.04, -0.05 -9.6, 0.12 -12.25 C0.3 -14.89, 0.05 -15.26, 1.07 -15.89 C2.08 -16.51, 5.35 -15.97, 6.2 -15.99" stroke="#E1E1E1" stroke-width="4" fill="none"></path></g></g><mask></mask><g stroke-linecap="round"><g transform="translate(191.75087710204866 92.18040548816174) rotate(0 0.12028118025695278 -6.763562727083837)"><path d="M0 0 C0.04 -2.25, 0.2 -11.27, 0.24 -13.53 M0 0 C0.04 -2.25, 0.2 -11.27, 0.24 -13.53" stroke="#E1E1E1" stroke-width="4" fill="none"></path></g></g><mask></mask><g stroke-linecap="round"><g transform="translate(180.77206427628448 92.28239980803613) rotate(0 0.02524101855499339 -6.684233811625205)"><path d="M0 0 C0.01 -2.23, 0.04 -11.14, 0.05 -13.37 M0 0 C0.01 -2.23, 0.04 -11.14, 0.05 -13.37" stroke="#E1E1E1" stroke-width="4" fill="none"></path></g></g><mask></mask><g stroke-linecap="round"><g transform="translate(169.56453691503452 92.28600566783047) rotate(0 -0.11693288187716178 -7.000261666390372)"><path d="M0 0 C-0.04 -2.33, -0.19 -11.67, -0.23 -14 M0 0 C-0.04 -2.33, -0.19 -11.67, -0.23 -14" stroke="#E1E1E1" stroke-width="4" fill="none"></path></g></g><mask></mask><g stroke-linecap="round"><g transform="translate(158.23183470667323 92.11137902925515) rotate(0 -3.534772843354844 -8.211572995616365)"><path d="M0 0 C-0.04 -2.51, 0.95 -12.31, -0.23 -15.05 C-1.4 -17.78, -5.93 -16.19, -7.07 -16.42 M0 0 C-0.04 -2.51, 0.95 -12.31, -0.23 -15.05 C-1.4 -17.78, -5.93 -16.19, -7.07 -16.42" stroke="#E1E1E1" stroke-width="4" fill="none"></path></g></g><mask></mask><g stroke-linecap="round"><g transform="translate(146.48239813073928 102.76566447360295) rotate(0 -7.4301316660668135 -3.2779841137698327)"><path d="M0 0 C-2.03 -0.01, -9.72 0.35, -12.19 -0.05 C-14.66 -0.45, -14.38 -1.31, -14.82 -2.4 C-15.27 -3.48, -14.85 -5.86, -14.86 -6.56 M0 0 C-2.03 -0.01, -9.72 0.35, -12.19 -0.05 C-14.66 -0.45, -14.38 -1.31, -14.82 -2.4 C-15.27 -3.48, -14.85 -5.86, -14.86 -6.56" stroke="#E1E1E1" stroke-width="4" fill="none"></path></g></g><mask></mask><g stroke-linecap="round"><g transform="translate(146.68947750745178 113.78414175710026) rotate(0 -6.340646885580739 0.0048936668627135305)"><path d="M0 0 C-2.11 0, -10.57 0.01, -12.68 0.01 M0 0 C-2.11 0, -10.57 0.01, -12.68 0.01" stroke="#E1E1E1" stroke-width="4" fill="none"></path></g></g><mask></mask><g stroke-linecap="round"><g transform="translate(146.43243121645833 125.47330896220177) rotate(0 -6.260545285880639 -0.23695650072038177)"><path d="M0 0 C-2.09 -0.08, -10.43 -0.39, -12.52 -0.47 M0 0 C-2.09 -0.08, -10.43 -0.39, -12.52 -0.47" stroke="#E1E1E1" stroke-width="4" fill="none"></path></g></g><mask></mask><g stroke-linecap="round" transform="translate(125.55321520461189 120.78388830066291) rotate(0 4.167086114298897 4.167086114298897)"><path d="M8.33 4.17 C8.33 4.41, 8.31 4.65, 8.27 4.89 C8.23 5.13, 8.17 5.37, 8.08 5.59 C8 5.82, 7.9 6.04, 7.78 6.25 C7.66 6.46, 7.51 6.66, 7.36 6.85 C7.2 7.03, 7.03 7.2, 6.85 7.36 C6.66 7.51, 6.46 7.66, 6.25 7.78 C6.04 7.9, 5.82 8, 5.59 8.08 C5.37 8.17, 5.13 8.23, 4.89 8.27 C4.65 8.31, 4.41 8.33, 4.17 8.33 C3.93 8.33, 3.68 8.31, 3.44 8.27 C3.21 8.23, 2.97 8.17, 2.74 8.08 C2.52 8, 2.29 7.9, 2.08 7.78 C1.87 7.66, 1.67 7.51, 1.49 7.36 C1.3 7.2, 1.13 7.03, 0.97 6.85 C0.82 6.66, 0.68 6.46, 0.56 6.25 C0.44 6.04, 0.33 5.82, 0.25 5.59 C0.17 5.37, 0.11 5.13, 0.06 4.89 C0.02 4.65, 0 4.41, 0 4.17 C0 3.93, 0.02 3.68, 0.06 3.44 C0.11 3.21, 0.17 2.97, 0.25 2.74 C0.33 2.52, 0.44 2.29, 0.56 2.08 C0.68 1.87, 0.82 1.67, 0.97 1.49 C1.13 1.3, 1.3 1.13, 1.49 0.97 C1.67 0.82, 1.87 0.68, 2.08 0.56 C2.29 0.44, 2.52 0.33, 2.74 0.25 C2.97 0.17, 3.21 0.11, 3.44 0.06 C3.68 0.02, 3.93 0, 4.17 0 C4.41 0, 4.65 0.02, 4.89 0.06 C5.13 0.11, 5.37 0.17, 5.59 0.25 C5.82 0.33, 6.04 0.44, 6.25 0.56 C6.46 0.68, 6.66 0.82, 6.85 0.97 C7.03 1.13, 7.2 1.3, 7.36 1.49 C7.51 1.67, 7.66 1.87, 7.78 2.08 C7.9 2.29, 8 2.52, 8.08 2.74 C8.17 2.97, 8.23 3.21, 8.27 3.44 C8.31 3.68, 8.32 4.05, 8.33 4.17 C8.34 4.29, 8.34 4.05, 8.33 4.17" stroke="#E1E1E1" stroke-width="4" fill="none"></path></g><g transform="translate(155.59925629599206 96.16908965185524) rotate(0 24.041046142578125 29.262899998873507)"><text x="0" y="43.004733982719515" font-family="Helvetica, Segoe UI Emoji" font-size="50.891999998040895px" fill="#E1E1E1" text-anchor="start" style="white-space: pre;" direction="ltr" dominant-baseline="alphabetic">AI</text></g></svg>