<svg version="1.1" xmlns="http://www.w3.org/2000/svg" viewBox="0 0 146.99005981294778 145.6050659237318" width="146.99005981294778" height="145.6050659237318" class="excalidraw-svg"><!-- svg-source:excalidraw --><metadata></metadata><defs><style class="style-fonts">
      </style></defs><rect x="0" y="0" width="146.99005981294778" height="145.6050659237318" fill="#000000"></rect><g stroke-linecap="round"><g transform="translate(30.803999109871 118.90713429647141) rotate(0 43.13393009046903 -49.002336566189065)"><path d="M0 0 C0.37 -4.13, 1.13 -15.02, 2.25 -24.79 C3.37 -34.57, 4.87 -49.37, 6.73 -58.66 C8.59 -67.94, 10.91 -74.98, 13.42 -80.5 C15.92 -86.01, 17.87 -88.8, 21.77 -91.74 C25.66 -94.69, 31.8 -97.12, 36.78 -98.14 C41.76 -99.17, 47.25 -98.92, 51.65 -97.88 C56.04 -96.84, 59.8 -94.35, 63.13 -91.91 C66.46 -89.47, 69.09 -87.73, 71.64 -83.25 C74.19 -78.76, 76.46 -72.77, 78.43 -65 C80.4 -57.23, 82.25 -45.94, 83.47 -36.61 C84.69 -27.29, 85.28 -15.18, 85.75 -9.05 C86.22 -2.93, 86.18 -1.39, 86.27 0.14 M0 0 C0.37 -4.13, 1.13 -15.02, 2.25 -24.79 C3.37 -34.57, 4.87 -49.37, 6.73 -58.66 C8.59 -67.94, 10.91 -74.98, 13.42 -80.5 C15.92 -86.01, 17.87 -88.8, 21.77 -91.74 C25.66 -94.69, 31.8 -97.12, 36.78 -98.14 C41.76 -99.17, 47.25 -98.92, 51.65 -97.88 C56.04 -96.84, 59.8 -94.35, 63.13 -91.91 C66.46 -89.47, 69.09 -87.73, 71.64 -83.25 C74.19 -78.76, 76.46 -72.77, 78.43 -65 C80.4 -57.23, 82.25 -45.94, 83.47 -36.61 C84.69 -27.29, 85.28 -15.18, 85.75 -9.05 C86.22 -2.93, 86.18 -1.39, 86.27 0.14" stroke="#E1E1E1" stroke-width="2" fill="none"></path></g></g><mask></mask><g stroke-linecap="round"><g transform="translate(54.32412272357044 89.0420702943496) rotate(0 19.735163067573367 -20.860055239839838)"><path d="M0 0 C-0.56 -2.28, -2.55 -9.05, -3.34 -13.67 C-4.13 -18.28, -4.76 -23.13, -4.73 -27.69 C-4.71 -32.25, -4.22 -37.12, -3.18 -41.02 C-2.15 -44.92, -0.44 -48.46, 1.46 -51.08 C3.37 -53.71, 5.73 -55.4, 8.26 -56.78 C10.8 -58.16, 13.84 -58.97, 16.66 -59.35 C19.47 -59.72, 22.76 -59.43, 25.14 -59.04 C27.53 -58.64, 28.95 -58.12, 30.97 -56.98 C32.99 -55.84, 35.36 -54.56, 37.26 -52.19 C39.17 -49.83, 41.23 -46.69, 42.39 -42.78 C43.55 -38.87, 44.03 -33.39, 44.2 -28.74 C44.37 -24.08, 44.04 -19.12, 43.42 -14.86 C42.8 -10.6, 41.59 -6.76, 40.5 -3.18 C39.41 0.4, 38.34 3.78, 36.87 6.6 C35.41 9.43, 33.41 12.15, 31.72 13.76 C30.03 15.38, 28.76 15.63, 26.74 16.27 C24.73 16.92, 21.96 17.56, 19.63 17.63 C17.31 17.7, 14.88 17.37, 12.79 16.69 C10.69 16.01, 8.8 15.14, 7.07 13.55 C5.34 11.96, 3.59 9.42, 2.41 7.16 C1.23 4.9, 0.4 1.19, 0 0 M0 0 C-0.56 -2.28, -2.55 -9.05, -3.34 -13.67 C-4.13 -18.28, -4.76 -23.13, -4.73 -27.69 C-4.71 -32.25, -4.22 -37.12, -3.18 -41.02 C-2.15 -44.92, -0.44 -48.46, 1.46 -51.08 C3.37 -53.71, 5.73 -55.4, 8.26 -56.78 C10.8 -58.16, 13.84 -58.97, 16.66 -59.35 C19.47 -59.72, 22.76 -59.43, 25.14 -59.04 C27.53 -58.64, 28.95 -58.12, 30.97 -56.98 C32.99 -55.84, 35.36 -54.56, 37.26 -52.19 C39.17 -49.83, 41.23 -46.69, 42.39 -42.78 C43.55 -38.87, 44.03 -33.39, 44.2 -28.74 C44.37 -24.08, 44.04 -19.12, 43.42 -14.86 C42.8 -10.6, 41.59 -6.76, 40.5 -3.18 C39.41 0.4, 38.34 3.78, 36.87 6.6 C35.41 9.43, 33.41 12.15, 31.72 13.76 C30.03 15.38, 28.76 15.63, 26.74 16.27 C24.73 16.92, 21.96 17.56, 19.63 17.63 C17.31 17.7, 14.88 17.37, 12.79 16.69 C10.69 16.01, 8.8 15.14, 7.07 13.55 C5.34 11.96, 3.59 9.42, 2.41 7.16 C1.23 4.9, 0.4 1.19, 0 0" stroke="#E1E1E1" stroke-width="2" fill="none"></path></g></g><mask></mask><g stroke-linecap="round"><g transform="translate(56.837334362255774 81.35305122610075) rotate(0 1.685886895516461 -1.5499755384356515)"><path d="M0 0 C-0.28 -1.15, -1.55 -5.29, -1.67 -6.9 C-1.79 -8.5, -1.29 -9.05, -0.72 -9.63 C-0.15 -10.22, 0.9 -10.5, 1.74 -10.42 C2.58 -10.34, 3.78 -10.15, 4.33 -9.17 C4.89 -8.19, 5.01 -6.59, 5.05 -4.53 C5.09 -2.47, 4.69 1.22, 4.58 3.19 C4.47 5.17, 4.72 6.77, 4.4 7.32 C4.08 7.87, 3.39 7.72, 2.66 6.5 C1.93 5.28, 0.44 1.08, 0 0 M0 0 C-0.28 -1.15, -1.55 -5.29, -1.67 -6.9 C-1.79 -8.5, -1.29 -9.05, -0.72 -9.63 C-0.15 -10.22, 0.9 -10.5, 1.74 -10.42 C2.58 -10.34, 3.78 -10.15, 4.33 -9.17 C4.89 -8.19, 5.01 -6.59, 5.05 -4.53 C5.09 -2.47, 4.69 1.22, 4.58 3.19 C4.47 5.17, 4.72 6.77, 4.4 7.32 C4.08 7.87, 3.39 7.72, 2.66 6.5 C1.93 5.28, 0.44 1.08, 0 0" stroke="#E1E1E1" stroke-width="2" fill="none"></path></g></g><mask></mask><g stroke-linecap="round"><g transform="translate(59.109587555346224 58.371670938766414) rotate(0 -1.7773167479431464 2.7260020923384953)"><path d="M0 0 C-0.74 0, -3.34 -0.23, -4.41 -0.02 C-5.49 0.19, -6.09 0.59, -6.47 1.25 C-6.85 1.91, -6.96 3.27, -6.7 3.96 C-6.45 4.64, -5.94 5.1, -4.94 5.35 C-3.94 5.61, -1.82 5.5, -0.73 5.47 C0.36 5.44, 0.96 5.47, 1.59 5.17 C2.21 4.86, 2.77 4.21, 3.03 3.63 C3.29 3.04, 3.37 2.24, 3.15 1.65 C2.93 1.06, 2.25 0.38, 1.73 0.11 C1.2 -0.17, 0.29 0.02, 0 0 M0 0 C-0.74 0, -3.34 -0.23, -4.41 -0.02 C-5.49 0.19, -6.09 0.59, -6.47 1.25 C-6.85 1.91, -6.96 3.27, -6.7 3.96 C-6.45 4.64, -5.94 5.1, -4.94 5.35 C-3.94 5.61, -1.82 5.5, -0.73 5.47 C0.36 5.44, 0.96 5.47, 1.59 5.17 C2.21 4.86, 2.77 4.21, 3.03 3.63 C3.29 3.04, 3.37 2.24, 3.15 1.65 C2.93 1.06, 2.25 0.38, 1.73 0.11 C1.2 -0.17, 0.29 0.02, 0 0" stroke="#E1E1E1" stroke-width="2" fill="none"></path></g></g><mask></mask><g stroke-linecap="round"><g transform="translate(58.75053725700562 65.80211114309841) rotate(0 -0.7923429168498473 0.860785234431825)"><path d="M0 0 C-0.31 0.03, -1.14 0.18, -1.88 0.16 C-2.61 0.14, -3.96 -0.32, -4.44 -0.12 C-4.92 0.07, -5.15 0.91, -4.75 1.33 C-4.36 1.74, -2.97 2.2, -2.04 2.34 C-1.11 2.48, -0.01 2.38, 0.82 2.18 C1.65 1.99, 2.54 1.6, 2.93 1.19 C3.32 0.78, 3.33 0.02, 3.17 -0.28 C3.01 -0.58, 2.53 -0.67, 2 -0.62 C1.47 -0.57, 0.33 -0.1, 0 0 M0 0 C-0.31 0.03, -1.14 0.18, -1.88 0.16 C-2.61 0.14, -3.96 -0.32, -4.44 -0.12 C-4.92 0.07, -5.15 0.91, -4.75 1.33 C-4.36 1.74, -2.97 2.2, -2.04 2.34 C-1.11 2.48, -0.01 2.38, 0.82 2.18 C1.65 1.99, 2.54 1.6, 2.93 1.19 C3.32 0.78, 3.33 0.02, 3.17 -0.28 C3.01 -0.58, 2.53 -0.67, 2 -0.62 C1.47 -0.57, 0.33 -0.1, 0 0" stroke="#E1E1E1" stroke-width="2" fill="none"></path></g></g><mask></mask><g stroke-linecap="round"><g transform="translate(56.39482314157104 47.81821767409663) rotate(0 2.2147305255925858 1.554681416647167)"><path d="M0 0 C-0.19 0.64, -0.96 2.76, -1.12 3.82 C-1.28 4.87, -1.23 5.65, -0.95 6.34 C-0.67 7.03, -0.05 7.66, 0.57 7.99 C1.18 8.32, 2.05 8.5, 2.75 8.32 C3.45 8.14, 4.33 7.48, 4.79 6.89 C5.26 6.31, 5.48 5.88, 5.55 4.81 C5.62 3.74, 5.36 1.8, 5.2 0.47 C5.03 -0.86, 4.81 -2.22, 4.55 -3.17 C4.29 -4.11, 4.07 -5.02, 3.63 -5.21 C3.2 -5.4, 2.53 -5.18, 1.93 -4.31 C1.32 -3.44, 0.32 -0.72, 0 0 M0 0 C-0.19 0.64, -0.96 2.76, -1.12 3.82 C-1.28 4.87, -1.23 5.65, -0.95 6.34 C-0.67 7.03, -0.05 7.66, 0.57 7.99 C1.18 8.32, 2.05 8.5, 2.75 8.32 C3.45 8.14, 4.33 7.48, 4.79 6.89 C5.26 6.31, 5.48 5.88, 5.55 4.81 C5.62 3.74, 5.36 1.8, 5.2 0.47 C5.03 -0.86, 4.81 -2.22, 4.55 -3.17 C4.29 -4.11, 4.07 -5.02, 3.63 -5.21 C3.2 -5.4, 2.53 -5.18, 1.93 -4.31 C1.32 -3.44, 0.32 -0.72, 0 0" stroke="#E1E1E1" stroke-width="2" fill="none"></path></g></g><mask></mask><g stroke-linecap="round"><g transform="translate(91.0134140880075 81.33531887650828) rotate(0 -1.689743738349776 -1.5535214536824693)"><path d="M0 0 C0.28 -1.15, 1.56 -5.3, 1.68 -6.91 C1.8 -8.52, 1.29 -9.07, 0.72 -9.66 C0.15 -10.24, -0.9 -10.52, -1.74 -10.44 C-2.59 -10.37, -3.79 -10.17, -4.34 -9.19 C-4.9 -8.21, -5.02 -6.61, -5.06 -4.55 C-5.1 -2.48, -4.7 1.22, -4.59 3.2 C-4.48 5.18, -4.73 6.78, -4.41 7.34 C-4.09 7.89, -3.4 7.74, -2.67 6.52 C-1.93 5.3, -0.44 1.09, 0 0 M0 0 C0.28 -1.15, 1.56 -5.3, 1.68 -6.91 C1.8 -8.52, 1.29 -9.07, 0.72 -9.66 C0.15 -10.24, -0.9 -10.52, -1.74 -10.44 C-2.59 -10.37, -3.79 -10.17, -4.34 -9.19 C-4.9 -8.21, -5.02 -6.61, -5.06 -4.55 C-5.1 -2.48, -4.7 1.22, -4.59 3.2 C-4.48 5.18, -4.73 6.78, -4.41 7.34 C-4.09 7.89, -3.4 7.74, -2.67 6.52 C-1.93 5.3, -0.44 1.09, 0 0" stroke="#E1E1E1" stroke-width="2" fill="none"></path></g></g><mask></mask><g stroke-linecap="round"><g transform="translate(88.73596260820722 58.30136354864396) rotate(0 1.7813827569856642 2.73223843100474)"><path d="M0 0 C0.74 0, 3.34 -0.23, 4.42 -0.02 C5.51 0.19, 6.1 0.59, 6.49 1.25 C6.87 1.92, 6.97 3.28, 6.72 3.97 C6.46 4.65, 5.95 5.11, 4.95 5.37 C3.95 5.62, 1.82 5.52, 0.73 5.48 C-0.36 5.45, -0.96 5.49, -1.59 5.18 C-2.22 4.87, -2.78 4.22, -3.04 3.63 C-3.3 3.05, -3.37 2.24, -3.16 1.66 C-2.94 1.07, -2.26 0.38, -1.73 0.11 C-1.2 -0.17, -0.29 0.02, 0 0 M0 0 C0.74 0, 3.34 -0.23, 4.42 -0.02 C5.51 0.19, 6.1 0.59, 6.49 1.25 C6.87 1.92, 6.97 3.28, 6.72 3.97 C6.46 4.65, 5.95 5.11, 4.95 5.37 C3.95 5.62, 1.82 5.52, 0.73 5.48 C-0.36 5.45, -0.96 5.49, -1.59 5.18 C-2.22 4.87, -2.78 4.22, -3.04 3.63 C-3.3 3.05, -3.37 2.24, -3.16 1.66 C-2.94 1.07, -2.26 0.38, -1.73 0.11 C-1.2 -0.17, -0.29 0.02, 0 0" stroke="#E1E1E1" stroke-width="2" fill="none"></path></g></g><mask></mask><g stroke-linecap="round"><g transform="translate(89.0958343143028 65.74880254460703) rotate(0 0.7941555782499137 0.8627544729206384)"><path d="M0 0 C0.31 0.03, 1.14 0.18, 1.88 0.16 C2.62 0.14, 3.97 -0.32, 4.45 -0.12 C4.93 0.07, 5.17 0.92, 4.77 1.33 C4.37 1.74, 2.98 2.2, 2.05 2.35 C1.12 2.49, 0.01 2.38, -0.82 2.19 C-1.65 2, -2.54 1.6, -2.94 1.19 C-3.33 0.78, -3.33 0.02, -3.18 -0.28 C-3.02 -0.58, -2.53 -0.67, -2 -0.62 C-1.47 -0.57, -0.33 -0.1, 0 0 M0 0 C0.31 0.03, 1.14 0.18, 1.88 0.16 C2.62 0.14, 3.97 -0.32, 4.45 -0.12 C4.93 0.07, 5.17 0.92, 4.77 1.33 C4.37 1.74, 2.98 2.2, 2.05 2.35 C1.12 2.49, 0.01 2.38, -0.82 2.19 C-1.65 2, -2.54 1.6, -2.94 1.19 C-3.33 0.78, -3.33 0.02, -3.18 -0.28 C-3.02 -0.58, -2.53 -0.67, -2 -0.62 C-1.47 -0.57, -0.33 -0.1, 0 0" stroke="#E1E1E1" stroke-width="2" fill="none"></path></g></g><mask></mask><g stroke-linecap="round"><g transform="translate(91.45693765194889 47.72376690241117) rotate(0 -2.2197972163522337 1.5582380976414996)"><path d="M0 0 C0.19 0.64, 0.96 2.77, 1.12 3.83 C1.28 4.89, 1.24 5.66, 0.95 6.35 C0.67 7.05, 0.05 7.67, -0.57 8 C-1.19 8.33, -2.05 8.52, -2.76 8.34 C-3.46 8.15, -4.34 7.49, -4.8 6.91 C-5.27 6.32, -5.49 5.9, -5.56 4.82 C-5.63 3.75, -5.37 1.81, -5.21 0.47 C-5.04 -0.86, -4.82 -2.23, -4.56 -3.17 C-4.3 -4.12, -4.08 -5.03, -3.64 -5.22 C-3.2 -5.41, -2.54 -5.19, -1.93 -4.32 C-1.33 -3.45, -0.32 -0.72, 0 0 M0 0 C0.19 0.64, 0.96 2.77, 1.12 3.83 C1.28 4.89, 1.24 5.66, 0.95 6.35 C0.67 7.05, 0.05 7.67, -0.57 8 C-1.19 8.33, -2.05 8.52, -2.76 8.34 C-3.46 8.15, -4.34 7.49, -4.8 6.91 C-5.27 6.32, -5.49 5.9, -5.56 4.82 C-5.63 3.75, -5.37 1.81, -5.21 0.47 C-5.04 -0.86, -4.82 -2.23, -4.56 -3.17 C-4.3 -4.12, -4.08 -5.03, -3.64 -5.22 C-3.2 -5.41, -2.54 -5.19, -1.93 -4.32 C-1.33 -3.45, -0.32 -0.72, 0 0" stroke="#E1E1E1" stroke-width="2" fill="none"></path></g></g><mask></mask><g stroke-linecap="round"><g transform="translate(74.93187351677653 92.2818168642431) rotate(0 -0.8275013749371993 3.0231169604079424)"><path d="M0 0 C-0.65 0.02, -2.73 -0.01, -3.89 0.14 C-5.05 0.29, -6.26 0.49, -6.98 0.9 C-7.71 1.3, -8.09 1.95, -8.24 2.58 C-8.4 3.22, -8.51 4.17, -7.92 4.71 C-7.33 5.25, -6.16 5.6, -4.68 5.82 C-3.19 6.05, -0.63 6.14, 0.98 6.05 C2.6 5.95, 4.1 5.68, 5.03 5.26 C5.97 4.84, 6.45 4.15, 6.59 3.53 C6.73 2.91, 6.31 2.05, 5.89 1.54 C5.47 1.04, 5.03 0.76, 4.05 0.5 C3.07 0.25, 0.67 0.08, 0 0 M0 0 C-0.65 0.02, -2.73 -0.01, -3.89 0.14 C-5.05 0.29, -6.26 0.49, -6.98 0.9 C-7.71 1.3, -8.09 1.95, -8.24 2.58 C-8.4 3.22, -8.51 4.17, -7.92 4.71 C-7.33 5.25, -6.16 5.6, -4.68 5.82 C-3.19 6.05, -0.63 6.14, 0.98 6.05 C2.6 5.95, 4.1 5.68, 5.03 5.26 C5.97 4.84, 6.45 4.15, 6.59 3.53 C6.73 2.91, 6.31 2.05, 5.89 1.54 C5.47 1.04, 5.03 0.76, 4.05 0.5 C3.07 0.25, 0.67 0.08, 0 0" stroke="#E1E1E1" stroke-width="2" fill="none"></path></g></g><mask></mask><g stroke-linecap="round"><g transform="translate(73.33212501828785 100.08376201997973) rotate(0 0.40894254631545834 1.3880984200410262)"><path d="M0 0 C-0.38 0.02, -1.6 0.03, -2.3 0.09 C-3 0.16, -4.1 0.06, -4.21 0.38 C-4.32 0.7, -3.63 1.61, -2.98 2 C-2.34 2.4, -1.3 2.69, -0.34 2.78 C0.62 2.86, 2.01 2.71, 2.79 2.49 C3.56 2.27, 3.94 1.86, 4.32 1.46 C4.69 1.05, 5.33 0.33, 5.03 0.09 C4.72 -0.15, 3.32 0.03, 2.48 0.01 C1.64 0, 0.41 0, 0 0 M0 0 C-0.38 0.02, -1.6 0.03, -2.3 0.09 C-3 0.16, -4.1 0.06, -4.21 0.38 C-4.32 0.7, -3.63 1.61, -2.98 2 C-2.34 2.4, -1.3 2.69, -0.34 2.78 C0.62 2.86, 2.01 2.71, 2.79 2.49 C3.56 2.27, 3.94 1.86, 4.32 1.46 C4.69 1.05, 5.33 0.33, 5.03 0.09 C4.72 -0.15, 3.32 0.03, 2.48 0.01 C1.64 0, 0.41 0, 0 0" stroke="#E1E1E1" stroke-width="2" fill="none"></path></g></g><mask></mask><g stroke-linecap="round"><g transform="translate(90.5165768981675 35.935979197664665) rotate(0 -11.447550895990602 34.83871746844616)"><path d="M0 0 C0.08 1.24, 0.36 5.01, 0.47 7.46 C0.59 9.9, 0.74 12.03, 0.71 14.67 C0.68 17.31, 0.6 19.61, 0.32 23.3 C0.04 26.98, -0.44 32.03, -0.99 36.78 C-1.53 41.53, -2 47.72, -2.97 51.78 C-3.93 55.84, -4.95 58.51, -6.78 61.15 C-8.6 63.78, -11.13 66.17, -13.93 67.59 C-16.74 69.01, -21.99 69.33, -23.61 69.68 M0 0 C0.08 1.24, 0.36 5.01, 0.47 7.46 C0.59 9.9, 0.74 12.03, 0.71 14.67 C0.68 17.31, 0.6 19.61, 0.32 23.3 C0.04 26.98, -0.44 32.03, -0.99 36.78 C-1.53 41.53, -2 47.72, -2.97 51.78 C-3.93 55.84, -4.95 58.51, -6.78 61.15 C-8.6 63.78, -11.13 66.17, -13.93 67.59 C-16.74 69.01, -21.99 69.33, -23.61 69.68" stroke="#E1E1E1" stroke-width="1" fill="none"></path></g></g><mask></mask><g stroke-linecap="round" transform="translate(10 10) rotate(0 63.49502990647389 62.8025329618659)"><path d="M126.99 62.8 C126.99 65.33, 126.83 67.87, 126.53 70.37 C126.22 72.88, 125.76 75.38, 125.15 77.83 C124.53 80.28, 123.77 82.71, 122.86 85.07 C121.96 87.43, 120.9 89.75, 119.72 91.99 C118.53 94.22, 117.2 96.4, 115.75 98.48 C114.3 100.56, 112.71 102.56, 111.02 104.45 C109.33 106.34, 107.51 108.14, 105.6 109.81 C103.69 111.48, 101.66 113.05, 99.56 114.49 C97.46 115.92, 95.26 117.24, 93 118.41 C90.74 119.58, 88.4 120.63, 86.01 121.52 C83.63 122.42, 81.17 123.18, 78.69 123.78 C76.21 124.38, 73.68 124.84, 71.15 125.15 C68.62 125.45, 66.05 125.61, 63.5 125.61 C60.94 125.61, 58.37 125.45, 55.84 125.15 C53.31 124.84, 50.78 124.38, 48.3 123.78 C45.82 123.18, 43.36 122.42, 40.98 121.52 C38.59 120.63, 36.25 119.58, 33.99 118.41 C31.73 117.24, 29.53 115.92, 27.43 114.49 C25.33 113.05, 23.3 111.48, 21.39 109.81 C19.48 108.14, 17.66 106.34, 15.97 104.45 C14.28 102.56, 12.69 100.56, 11.24 98.48 C9.79 96.4, 8.46 94.22, 7.27 91.99 C6.09 89.75, 5.03 87.43, 4.13 85.07 C3.22 82.71, 2.46 80.28, 1.85 77.83 C1.23 75.38, 0.77 72.88, 0.46 70.37 C0.16 67.87, 0 65.33, 0 62.8 C0 60.28, 0.16 57.74, 0.46 55.23 C0.77 52.73, 1.23 50.22, 1.85 47.77 C2.46 45.32, 3.22 42.89, 4.13 40.53 C5.03 38.17, 6.09 35.85, 7.27 33.62 C8.46 31.38, 9.79 29.2, 11.24 27.13 C12.69 25.05, 14.28 23.05, 15.97 21.16 C17.66 19.27, 19.48 17.47, 21.39 15.79 C23.3 14.12, 25.33 12.55, 27.43 11.12 C29.53 9.68, 31.73 8.37, 33.99 7.19 C36.25 6.02, 38.59 4.98, 40.98 4.08 C43.36 3.19, 45.82 2.43, 48.3 1.82 C50.78 1.22, 53.31 0.76, 55.84 0.46 C58.37 0.15, 60.94 0, 63.5 0 C66.05 0, 68.62 0.15, 71.15 0.46 C73.68 0.76, 76.21 1.22, 78.69 1.82 C81.17 2.43, 83.63 3.19, 86.01 4.08 C88.4 4.98, 90.74 6.02, 93 7.19 C95.26 8.37, 97.46 9.68, 99.56 11.12 C101.66 12.55, 103.69 14.12, 105.6 15.79 C107.51 17.47, 109.33 19.27, 111.02 21.16 C112.71 23.05, 114.3 25.05, 115.75 27.13 C117.2 29.2, 118.53 31.38, 119.72 33.62 C120.9 35.85, 121.96 38.17, 122.86 40.53 C123.77 42.89, 124.53 45.32, 125.15 47.77 C125.76 50.22, 126.22 52.73, 126.53 55.23 C126.83 57.74, 126.99 60.28, 126.99 62.8" stroke="#E1E1E1" stroke-width="1" fill="none"></path></g><g stroke-linecap="round"><g transform="translate(32.21344481762753 101.27917012874212) rotate(0 5.5216198002105585 -36.813350911619835)"><path d="M0 0 C-0.75 -1.38, -3.19 -5.11, -4.5 -8.26 C-5.82 -11.42, -7.2 -15.03, -7.89 -18.95 C-8.57 -22.87, -8.75 -28.08, -8.64 -31.79 C-8.53 -35.5, -8.34 -37.57, -7.23 -41.22 C-6.13 -44.88, -4.31 -49.82, -2.01 -53.73 C0.29 -57.64, 4.14 -62.04, 6.57 -64.68 C9.01 -67.32, 10.43 -68.09, 12.62 -69.58 C14.8 -71.07, 18.51 -72.95, 19.68 -73.63 M0 0 C-0.75 -1.38, -3.19 -5.11, -4.5 -8.26 C-5.82 -11.42, -7.2 -15.03, -7.89 -18.95 C-8.57 -22.87, -8.75 -28.08, -8.64 -31.79 C-8.53 -35.5, -8.34 -37.57, -7.23 -41.22 C-6.13 -44.88, -4.31 -49.82, -2.01 -53.73 C0.29 -57.64, 4.14 -62.04, 6.57 -64.68 C9.01 -67.32, 10.43 -68.09, 12.62 -69.58 C14.8 -71.07, 18.51 -72.95, 19.68 -73.63" stroke="#E1E1E1" stroke-width="1" fill="none"></path></g></g><mask></mask><g stroke-linecap="round"><g transform="translate(93.65325934248352 26.801814278848994) rotate(0 15.382606430394347 36.86776707699412)"><path d="M0 0 C1.29 0.53, 5.08 1.49, 7.77 3.21 C10.45 4.93, 13.36 7.4, 16.09 10.33 C18.82 13.26, 21.97 16.99, 24.17 20.79 C26.36 24.6, 28.16 28.81, 29.26 33.15 C30.36 37.48, 30.69 42.92, 30.77 46.81 C30.84 50.69, 30.33 53.39, 29.73 56.45 C29.14 59.51, 28.41 62.31, 27.19 65.19 C25.96 68.07, 23.16 72.34, 22.39 73.74 C21.62 75.13, 22.53 73.57, 22.56 73.54 M0 0 C1.29 0.53, 5.08 1.49, 7.77 3.21 C10.45 4.93, 13.36 7.4, 16.09 10.33 C18.82 13.26, 21.97 16.99, 24.17 20.79 C26.36 24.6, 28.16 28.81, 29.26 33.15 C30.36 37.48, 30.69 42.92, 30.77 46.81 C30.84 50.69, 30.33 53.39, 29.73 56.45 C29.14 59.51, 28.41 62.31, 27.19 65.19 C25.96 68.07, 23.16 72.34, 22.39 73.74 C21.62 75.13, 22.53 73.57, 22.56 73.54" stroke="#E1E1E1" stroke-width="1" fill="none"></path></g></g><mask></mask></svg>