<svg version="1.1" xmlns="http://www.w3.org/2000/svg" viewBox="0 0 538.2667433481643 337.8881806301198" width="538.2667433481643" height="337.8881806301198" class="excalidraw-svg"><!-- svg-source:excalidraw --><metadata></metadata><defs><style class="style-fonts">
      </style></defs><rect x="0" y="0" width="538.2667433481643" height="337.8881806301198" fill="#000000"></rect><g stroke-linecap="round"><g transform="translate(110.66574707192126 101.88931359899561) rotate(0 35.09891980561258 62.03285222420163)"><path d="M0 0 C0.45 0.12, 1.54 0.39, 2.73 0.74 C3.91 1.1, 5.6 1.65, 7.08 2.13 C8.57 2.61, 10.14 3.13, 11.62 3.62 C13.11 4.12, 14.83 4.53, 16.02 5.09 C17.21 5.66, 17.92 6.23, 18.77 7.02 C19.61 7.81, 20.21 8.53, 21.11 9.82 C22.01 11.11, 23.13 13.15, 24.17 14.74 C25.2 16.32, 26.02 17.4, 27.32 19.33 C28.61 21.27, 30.84 24.65, 31.96 26.35 C33.07 28.04, 33.21 28.16, 33.99 29.49 C34.77 30.82, 35.75 32.28, 36.66 34.34 C37.56 36.4, 38.6 39.58, 39.42 41.86 C40.24 44.13, 40.73 45.72, 41.59 47.99 C42.44 50.27, 43.46 52.92, 44.54 55.5 C45.62 58.09, 46.75 60.68, 48.07 63.52 C49.38 66.37, 51.13 69.73, 52.44 72.56 C53.74 75.39, 54.67 77.75, 55.9 80.49 C57.12 83.22, 58.59 86.33, 59.8 88.97 C61 91.62, 62 93.59, 63.13 96.38 C64.27 99.17, 65.56 102.91, 66.59 105.7 C67.61 108.5, 68.69 111.22, 69.29 113.15 C69.89 115.09, 70.22 115.92, 70.2 117.31 C70.18 118.69, 69.87 120.38, 69.17 121.47 C68.48 122.56, 67.2 123.41, 66.02 123.84 C64.84 124.28, 63.44 124.29, 62.09 124.07 C60.75 123.84, 59.35 123.35, 57.93 122.51 C56.5 121.67, 55.08 120.65, 53.54 119.04 C52.01 117.43, 50.25 115.18, 48.72 112.84 C47.18 110.49, 45.73 107.48, 44.34 104.97 C42.94 102.46, 41.95 100.69, 40.34 97.78 C38.74 94.86, 36.54 90.76, 34.72 87.49 C32.9 84.22, 31.27 81.2, 29.43 78.13 C27.59 75.07, 25.11 71.33, 23.68 69.1 C22.25 66.87, 22.01 66.45, 20.85 64.77 C19.69 63.08, 17.42 59.96, 16.73 59 M0 0 C0.45 0.12, 1.54 0.39, 2.73 0.74 C3.91 1.1, 5.6 1.65, 7.08 2.13 C8.57 2.61, 10.14 3.13, 11.62 3.62 C13.11 4.12, 14.83 4.53, 16.02 5.09 C17.21 5.66, 17.92 6.23, 18.77 7.02 C19.61 7.81, 20.21 8.53, 21.11 9.82 C22.01 11.11, 23.13 13.15, 24.17 14.74 C25.2 16.32, 26.02 17.4, 27.32 19.33 C28.61 21.27, 30.84 24.65, 31.96 26.35 C33.07 28.04, 33.21 28.16, 33.99 29.49 C34.77 30.82, 35.75 32.28, 36.66 34.34 C37.56 36.4, 38.6 39.58, 39.42 41.86 C40.24 44.13, 40.73 45.72, 41.59 47.99 C42.44 50.27, 43.46 52.92, 44.54 55.5 C45.62 58.09, 46.75 60.68, 48.07 63.52 C49.38 66.37, 51.13 69.73, 52.44 72.56 C53.74 75.39, 54.67 77.75, 55.9 80.49 C57.12 83.22, 58.59 86.33, 59.8 88.97 C61 91.62, 62 93.59, 63.13 96.38 C64.27 99.17, 65.56 102.91, 66.59 105.7 C67.61 108.5, 68.69 111.22, 69.29 113.15 C69.89 115.09, 70.22 115.92, 70.2 117.31 C70.18 118.69, 69.87 120.38, 69.17 121.47 C68.48 122.56, 67.2 123.41, 66.02 123.84 C64.84 124.28, 63.44 124.29, 62.09 124.07 C60.75 123.84, 59.35 123.35, 57.93 122.51 C56.5 121.67, 55.08 120.65, 53.54 119.04 C52.01 117.43, 50.25 115.18, 48.72 112.84 C47.18 110.49, 45.73 107.48, 44.34 104.97 C42.94 102.46, 41.95 100.69, 40.34 97.78 C38.74 94.86, 36.54 90.76, 34.72 87.49 C32.9 84.22, 31.27 81.2, 29.43 78.13 C27.59 75.07, 25.11 71.33, 23.68 69.1 C22.25 66.87, 22.01 66.45, 20.85 64.77 C19.69 63.08, 17.42 59.96, 16.73 59" stroke="#E1E1E1" stroke-width="2" fill="none"></path></g></g><mask></mask><g stroke-linecap="round"><g transform="translate(127.22997985883262 160.62859729159482) rotate(0 -5.3669345518927685 1.0669435106929654)"><path d="M0 0 C-0.33 0.26, -1.09 1.19, -1.97 1.54 C-2.84 1.9, -3.79 2.08, -5.25 2.13 C-6.71 2.19, -9.82 1.93, -10.73 1.89 M0 0 C-0.33 0.26, -1.09 1.19, -1.97 1.54 C-2.84 1.9, -3.79 2.08, -5.25 2.13 C-6.71 2.19, -9.82 1.93, -10.73 1.89" stroke="#E1E1E1" stroke-width="2" fill="none"></path></g></g><mask></mask><g stroke-linecap="round"><g transform="translate(116.28533071674906 162.85196148270393) rotate(0 -2.0809311454272574 -3.1028752048746355)"><path d="M0 0 C-0.42 -0.54, -1.82 -2.22, -2.51 -3.25 C-3.21 -4.28, -3.89 -5.71, -4.16 -6.21 M0 0 C-0.42 -0.54, -1.82 -2.22, -2.51 -3.25 C-3.21 -4.28, -3.89 -5.71, -4.16 -6.21" stroke="#E1E1E1" stroke-width="2" fill="none"></path></g></g><mask></mask><g stroke-linecap="round"><g transform="translate(112.13129441741535 156.51421268263425) rotate(0 4.316947356161904 -4.844158318291591)"><path d="M0 0 C0.46 -0.5, 1.68 -1.84, 2.75 -3 C3.81 -4.16, 5.41 -5.86, 6.39 -6.98 C7.37 -8.09, 8.26 -9.24, 8.63 -9.69 M0 0 C0.46 -0.5, 1.68 -1.84, 2.75 -3 C3.81 -4.16, 5.41 -5.86, 6.39 -6.98 C7.37 -8.09, 8.26 -9.24, 8.63 -9.69" stroke="#E1E1E1" stroke-width="2" fill="none"></path></g></g><mask></mask><g stroke-linecap="round"><g transform="translate(120.92092636100665 146.74685353168923) rotate(0 29.284990704680922 23.364628119063468)"><path d="M0 0 C0.51 1, 1.78 3.77, 3.06 6.01 C4.34 8.25, 6.03 10.81, 7.69 13.45 C9.35 16.08, 11.05 18.62, 13.03 21.82 C15.02 25.01, 17.95 29.79, 19.61 32.61 C21.27 35.44, 21.61 36.22, 23 38.77 C24.4 41.32, 26.36 44.94, 27.98 47.9 C29.6 50.86, 31.19 53.77, 32.71 56.55 C34.23 59.33, 35.68 62.17, 37.09 64.56 C38.5 66.95, 39.8 69.11, 41.19 70.87 C42.57 72.63, 43.79 73.91, 45.41 75.1 C47.03 76.29, 49.3 77.43, 50.9 77.99 C52.5 78.54, 53.9 78.57, 55.01 78.42 C56.12 78.27, 56.97 77.72, 57.55 77.09 C58.13 76.47, 58.32 75.74, 58.49 74.65 C58.66 73.56, 58.84 72.07, 58.57 70.53 C58.3 68.99, 57.58 67.45, 56.86 65.39 C56.14 63.34, 55.21 60.75, 54.23 58.19 C53.26 55.64, 52.05 52.59, 51.01 50.08 C49.97 47.57, 49.03 45.45, 48.01 43.13 C46.99 40.81, 46.22 39.12, 44.87 36.17 C43.53 33.21, 41.42 28.6, 39.96 25.4 C38.49 22.2, 37.38 19.92, 36.1 16.96 C34.82 13.99, 33.54 10.83, 32.28 7.59 C31.02 4.35, 29.6 0.41, 28.54 -2.46 C27.49 -5.33, 26.86 -7.53, 25.97 -9.62 C25.07 -11.7, 24.34 -12.95, 23.17 -14.98 C22 -17, 20.15 -19.83, 18.94 -21.76 C17.74 -23.7, 17 -24.93, 15.97 -26.59 C14.94 -28.24, 13.3 -30.84, 12.76 -31.69 M0 0 C0.51 1, 1.78 3.77, 3.06 6.01 C4.34 8.25, 6.03 10.81, 7.69 13.45 C9.35 16.08, 11.05 18.62, 13.03 21.82 C15.02 25.01, 17.95 29.79, 19.61 32.61 C21.27 35.44, 21.61 36.22, 23 38.77 C24.4 41.32, 26.36 44.94, 27.98 47.9 C29.6 50.86, 31.19 53.77, 32.71 56.55 C34.23 59.33, 35.68 62.17, 37.09 64.56 C38.5 66.95, 39.8 69.11, 41.19 70.87 C42.57 72.63, 43.79 73.91, 45.41 75.1 C47.03 76.29, 49.3 77.43, 50.9 77.99 C52.5 78.54, 53.9 78.57, 55.01 78.42 C56.12 78.27, 56.97 77.72, 57.55 77.09 C58.13 76.47, 58.32 75.74, 58.49 74.65 C58.66 73.56, 58.84 72.07, 58.57 70.53 C58.3 68.99, 57.58 67.45, 56.86 65.39 C56.14 63.34, 55.21 60.75, 54.23 58.19 C53.26 55.64, 52.05 52.59, 51.01 50.08 C49.97 47.57, 49.03 45.45, 48.01 43.13 C46.99 40.81, 46.22 39.12, 44.87 36.17 C43.53 33.21, 41.42 28.6, 39.96 25.4 C38.49 22.2, 37.38 19.92, 36.1 16.96 C34.82 13.99, 33.54 10.83, 32.28 7.59 C31.02 4.35, 29.6 0.41, 28.54 -2.46 C27.49 -5.33, 26.86 -7.53, 25.97 -9.62 C25.07 -11.7, 24.34 -12.95, 23.17 -14.98 C22 -17, 20.15 -19.83, 18.94 -21.76 C17.74 -23.7, 17 -24.93, 15.97 -26.59 C14.94 -28.24, 13.3 -30.84, 12.76 -31.69" stroke="#E1E1E1" stroke-width="2" fill="none"></path></g></g><mask></mask><g stroke-linecap="round"><g transform="translate(110.67670346005184 101.84835757670271) rotate(0 -23.96201213849747 28.815431213422585)"><path d="M0 0 C-0.17 -0.22, -0.49 -0.8, -1 -1.29 C-1.51 -1.79, -2.22 -2.46, -3.06 -2.97 C-3.89 -3.48, -4.89 -3.93, -6.02 -4.34 C-7.14 -4.75, -8.48 -5.24, -9.81 -5.45 C-11.13 -5.65, -12.47 -5.62, -13.96 -5.58 C-15.44 -5.53, -17.19 -5.4, -18.71 -5.2 C-20.23 -5, -21.44 -4.83, -23.08 -4.37 C-24.72 -3.92, -26.89 -3.16, -28.56 -2.47 C-30.22 -1.78, -31.73 -0.99, -33.09 -0.22 C-34.44 0.55, -35.56 1.37, -36.7 2.13 C-37.84 2.9, -38.77 3.38, -39.91 4.36 C-41.05 5.34, -42.52 6.84, -43.56 8.03 C-44.59 9.22, -45.42 10.26, -46.11 11.51 C-46.8 12.77, -47.38 14.28, -47.69 15.57 C-47.99 16.85, -48.03 18.18, -47.92 19.25 C-47.81 20.31, -47.24 20.95, -47.03 21.96 C-46.82 22.96, -46.79 23.82, -46.65 25.28 C-46.5 26.75, -46.35 28.76, -46.17 30.75 C-45.99 32.74, -45.81 34.77, -45.55 37.23 C-45.3 39.68, -45.02 43.19, -44.63 45.47 C-44.25 47.75, -43.65 49.13, -43.23 50.92 C-42.8 52.72, -42.59 54.55, -42.08 56.25 C-41.56 57.94, -40.6 59.94, -40.12 61.1 C-39.64 62.26, -39.34 62.86, -39.19 63.21 M0 0 C-0.17 -0.22, -0.49 -0.8, -1 -1.29 C-1.51 -1.79, -2.22 -2.46, -3.06 -2.97 C-3.89 -3.48, -4.89 -3.93, -6.02 -4.34 C-7.14 -4.75, -8.48 -5.24, -9.81 -5.45 C-11.13 -5.65, -12.47 -5.62, -13.96 -5.58 C-15.44 -5.53, -17.19 -5.4, -18.71 -5.2 C-20.23 -5, -21.44 -4.83, -23.08 -4.37 C-24.72 -3.92, -26.89 -3.16, -28.56 -2.47 C-30.22 -1.78, -31.73 -0.99, -33.09 -0.22 C-34.44 0.55, -35.56 1.37, -36.7 2.13 C-37.84 2.9, -38.77 3.38, -39.91 4.36 C-41.05 5.34, -42.52 6.84, -43.56 8.03 C-44.59 9.22, -45.42 10.26, -46.11 11.51 C-46.8 12.77, -47.38 14.28, -47.69 15.57 C-47.99 16.85, -48.03 18.18, -47.92 19.25 C-47.81 20.31, -47.24 20.95, -47.03 21.96 C-46.82 22.96, -46.79 23.82, -46.65 25.28 C-46.5 26.75, -46.35 28.76, -46.17 30.75 C-45.99 32.74, -45.81 34.77, -45.55 37.23 C-45.3 39.68, -45.02 43.19, -44.63 45.47 C-44.25 47.75, -43.65 49.13, -43.23 50.92 C-42.8 52.72, -42.59 54.55, -42.08 56.25 C-41.56 57.94, -40.6 59.94, -40.12 61.1 C-39.64 62.26, -39.34 62.86, -39.19 63.21" stroke="#E1E1E1" stroke-width="2" fill="none"></path></g></g><mask></mask><g stroke-linecap="round"><g transform="translate(71.76430841945898 165.4423646761469) rotate(0 3.073919036247048 -2.373362361927718)"><path d="M0 0 C0.25 -0.36, 0.91 -1.55, 1.52 -2.17 C2.13 -2.79, 2.89 -3.28, 3.66 -3.71 C4.43 -4.14, 5.73 -4.57, 6.15 -4.75 M0 0 C0.25 -0.36, 0.91 -1.55, 1.52 -2.17 C2.13 -2.79, 2.89 -3.28, 3.66 -3.71 C4.43 -4.14, 5.73 -4.57, 6.15 -4.75" stroke="#E1E1E1" stroke-width="2" fill="none"></path></g></g><mask></mask><g stroke-linecap="round"><g transform="translate(77.89284237953461 160.63172768820345) rotate(0 3.7628671564768865 -16.504494384968552)"><path d="M0 0 C0.25 -0.02, 1.07 0.25, 1.48 -0.11 C1.89 -0.47, 2.01 -1.57, 2.45 -2.14 C2.9 -2.72, 3.56 -2.59, 4.16 -3.56 C4.77 -4.53, 5.63 -6.29, 6.08 -7.95 C6.53 -9.6, 6.67 -11.64, 6.88 -13.48 C7.09 -15.33, 7.23 -17.1, 7.34 -19.03 C7.44 -20.95, 7.62 -23.21, 7.53 -25.01 C7.43 -26.82, 7.13 -28.5, 6.78 -29.83 C6.43 -31.16, 5.65 -32.48, 5.42 -33.01 M0 0 C0.25 -0.02, 1.07 0.25, 1.48 -0.11 C1.89 -0.47, 2.01 -1.57, 2.45 -2.14 C2.9 -2.72, 3.56 -2.59, 4.16 -3.56 C4.77 -4.53, 5.63 -6.29, 6.08 -7.95 C6.53 -9.6, 6.67 -11.64, 6.88 -13.48 C7.09 -15.33, 7.23 -17.1, 7.34 -19.03 C7.44 -20.95, 7.62 -23.21, 7.53 -25.01 C7.43 -26.82, 7.13 -28.5, 6.78 -29.83 C6.43 -31.16, 5.65 -32.48, 5.42 -33.01" stroke="#E1E1E1" stroke-width="2" fill="none"></path></g></g><mask></mask><g stroke-linecap="round"><g transform="translate(83.40025347922892 127.54943546435311) rotate(0 9.853966790443906 -0.712426094792761)"><path d="M0 0 C0.51 -0.01, 1.52 0.05, 3.07 -0.03 C4.62 -0.12, 7.22 -0.34, 9.3 -0.5 C11.37 -0.67, 13.8 -0.88, 15.53 -1.04 C17.27 -1.19, 19.01 -1.36, 19.71 -1.42 M0 0 C0.51 -0.01, 1.52 0.05, 3.07 -0.03 C4.62 -0.12, 7.22 -0.34, 9.3 -0.5 C11.37 -0.67, 13.8 -0.88, 15.53 -1.04 C17.27 -1.19, 19.01 -1.36, 19.71 -1.42" stroke="#E1E1E1" stroke-width="2" fill="none"></path></g></g><mask></mask><g stroke-linecap="round"><g transform="translate(103.16375159991549 126.34240670543477) rotate(0 -7.091261350347622 14.747298422125596)"><path d="M0 0 C-0.4 0.41, -1.34 1.21, -2.43 2.44 C-3.51 3.67, -5.51 6.17, -6.53 7.38 C-7.55 8.59, -7.86 8.86, -8.56 9.69 C-9.26 10.53, -10.04 11.4, -10.73 12.38 C-11.42 13.36, -12.19 14.44, -12.73 15.56 C-13.26 16.67, -13.7 17.95, -13.95 19.06 C-14.19 20.18, -14.26 21.22, -14.18 22.25 C-14.11 23.28, -13.79 24.33, -13.5 25.26 C-13.22 26.18, -12.91 27.11, -12.49 27.81 C-12.06 28.52, -11.2 29.21, -10.95 29.49 M0 0 C-0.4 0.41, -1.34 1.21, -2.43 2.44 C-3.51 3.67, -5.51 6.17, -6.53 7.38 C-7.55 8.59, -7.86 8.86, -8.56 9.69 C-9.26 10.53, -10.04 11.4, -10.73 12.38 C-11.42 13.36, -12.19 14.44, -12.73 15.56 C-13.26 16.67, -13.7 17.95, -13.95 19.06 C-14.19 20.18, -14.26 21.22, -14.18 22.25 C-14.11 23.28, -13.79 24.33, -13.5 25.26 C-13.22 26.18, -12.91 27.11, -12.49 27.81 C-12.06 28.52, -11.2 29.21, -10.95 29.49" stroke="#E1E1E1" stroke-width="2" fill="none"></path></g></g><mask></mask><g stroke-linecap="round"><g transform="translate(92.43692588849899 156.11978270997724) rotate(0 -5.501672039245591 4.592030958124212)"><path d="M0 0 C-0.46 0.05, -1.79 0.03, -2.77 0.32 C-3.75 0.61, -4.95 1.07, -5.88 1.75 C-6.8 2.43, -7.61 3.5, -8.31 4.38 C-9.01 5.27, -9.63 6.26, -10.08 7.06 C-10.53 7.86, -10.85 8.83, -11 9.18 M0 0 C-0.46 0.05, -1.79 0.03, -2.77 0.32 C-3.75 0.61, -4.95 1.07, -5.88 1.75 C-6.8 2.43, -7.61 3.5, -8.31 4.38 C-9.01 5.27, -9.63 6.26, -10.08 7.06 C-10.53 7.86, -10.85 8.83, -11 9.18" stroke="#E1E1E1" stroke-width="2" fill="none"></path></g></g><mask></mask><g stroke-linecap="round"><g transform="translate(81.57314532546593 165.3841914725076) rotate(0 21.39834774941835 18.71598915560412)"><path d="M0 0 C0.19 0.39, 0.56 0.78, 1.14 2.31 C1.71 3.85, 2.57 6.9, 3.46 9.2 C4.36 11.5, 5.53 13.94, 6.53 16.1 C7.53 18.26, 8.45 20.33, 9.46 22.16 C10.48 23.99, 10.91 25.48, 12.63 27.1 C14.35 28.71, 17.29 30.42, 19.77 31.85 C22.26 33.29, 25.27 34.78, 27.51 35.71 C29.75 36.64, 31.8 37.32, 33.23 37.43 C34.66 37.54, 35.12 36.98, 36.09 36.37 C37.07 35.76, 38.24 34.74, 39.08 33.8 C39.91 32.85, 40.48 31.92, 41.1 30.68 C41.72 29.44, 42.51 27.09, 42.8 26.37 M0 0 C0.19 0.39, 0.56 0.78, 1.14 2.31 C1.71 3.85, 2.57 6.9, 3.46 9.2 C4.36 11.5, 5.53 13.94, 6.53 16.1 C7.53 18.26, 8.45 20.33, 9.46 22.16 C10.48 23.99, 10.91 25.48, 12.63 27.1 C14.35 28.71, 17.29 30.42, 19.77 31.85 C22.26 33.29, 25.27 34.78, 27.51 35.71 C29.75 36.64, 31.8 37.32, 33.23 37.43 C34.66 37.54, 35.12 36.98, 36.09 36.37 C37.07 35.76, 38.24 34.74, 39.08 33.8 C39.91 32.85, 40.48 31.92, 41.1 30.68 C41.72 29.44, 42.51 27.09, 42.8 26.37" stroke="#E1E1E1" stroke-width="2" fill="none"></path></g></g><mask></mask><g stroke-linecap="round"><g transform="translate(124.44236167906342 191.29370160100007) rotate(0 -7.742644711276512 -17.453265423694745)"><path d="M0 0 C-1.17 -0.28, -4.77 -1, -7 -1.69 C-9.24 -2.39, -11.43 -3.18, -13.41 -4.16 C-15.4 -5.14, -17.29 -6.27, -18.92 -7.6 C-20.55 -8.93, -21.91 -10.32, -23.19 -12.14 C-24.47 -13.97, -25.54 -16.22, -26.59 -18.53 C-27.64 -20.84, -28.69 -23.65, -29.47 -26.01 C-30.26 -28.37, -31.02 -31.19, -31.3 -32.67 C-31.58 -34.16, -31.32 -35.09, -31.14 -34.91 C-30.97 -34.72, -30.75 -33.17, -30.25 -31.57 C-29.75 -29.97, -29.11 -27.83, -28.13 -25.29 C-27.14 -22.76, -25.63 -18.71, -24.36 -16.37 C-23.09 -14.04, -21.88 -12.62, -20.49 -11.28 C-19.1 -9.94, -17.66 -9.16, -16.01 -8.32 C-14.36 -7.48, -12.9 -6.85, -10.6 -6.24 C-8.3 -5.64, -4.76 -5.13, -2.23 -4.68 C0.3 -4.24, 2.74 -3.67, 4.6 -3.56 C6.47 -3.45, 7.76 -3.64, 8.98 -4.01 C10.2 -4.38, 11 -4.98, 11.93 -5.76 C12.86 -6.54, 13.92 -7.91, 14.57 -8.68 C15.22 -9.46, 15.61 -10.13, 15.82 -10.42 M0 0 C-1.17 -0.28, -4.77 -1, -7 -1.69 C-9.24 -2.39, -11.43 -3.18, -13.41 -4.16 C-15.4 -5.14, -17.29 -6.27, -18.92 -7.6 C-20.55 -8.93, -21.91 -10.32, -23.19 -12.14 C-24.47 -13.97, -25.54 -16.22, -26.59 -18.53 C-27.64 -20.84, -28.69 -23.65, -29.47 -26.01 C-30.26 -28.37, -31.02 -31.19, -31.3 -32.67 C-31.58 -34.16, -31.32 -35.09, -31.14 -34.91 C-30.97 -34.72, -30.75 -33.17, -30.25 -31.57 C-29.75 -29.97, -29.11 -27.83, -28.13 -25.29 C-27.14 -22.76, -25.63 -18.71, -24.36 -16.37 C-23.09 -14.04, -21.88 -12.62, -20.49 -11.28 C-19.1 -9.94, -17.66 -9.16, -16.01 -8.32 C-14.36 -7.48, -12.9 -6.85, -10.6 -6.24 C-8.3 -5.64, -4.76 -5.13, -2.23 -4.68 C0.3 -4.24, 2.74 -3.67, 4.6 -3.56 C6.47 -3.45, 7.76 -3.64, 8.98 -4.01 C10.2 -4.38, 11 -4.98, 11.93 -5.76 C12.86 -6.54, 13.92 -7.91, 14.57 -8.68 C15.22 -9.46, 15.61 -10.13, 15.82 -10.42" stroke="#E1E1E1" stroke-width="2" fill="none"></path></g></g><mask></mask><g stroke-linecap="round"><g transform="translate(97.27312778207852 139.3032921297057) rotate(0 6.989653893767013 6.08262147648594)"><path d="M0 0 C0.86 0.72, 3.42 2.81, 5.18 4.34 C6.93 5.86, 9.06 7.83, 10.53 9.14 C12 10.44, 13.4 11.66, 13.98 12.17 M0 0 C0.86 0.72, 3.42 2.81, 5.18 4.34 C6.93 5.86, 9.06 7.83, 10.53 9.14 C12 10.44, 13.4 11.66, 13.98 12.17" stroke="#E1E1E1" stroke-width="2" fill="none"></path></g></g><mask></mask><g stroke-linecap="round"><g transform="translate(97.28434503659196 139.1431201699097) rotate(0 4.232817947311446 9.873923068822364)"><path d="M0 0 C-0.52 0.61, -2.25 2.36, -3.15 3.66 C-4.04 4.96, -4.95 6.32, -5.36 7.78 C-5.77 9.25, -5.77 10.99, -5.59 12.45 C-5.41 13.92, -5.11 15.46, -4.28 16.55 C-3.46 17.63, -1.92 18.42, -0.65 18.96 C0.63 19.49, 1.95 19.81, 3.38 19.75 C4.81 19.68, 6.54 19.25, 7.92 18.56 C9.3 17.86, 10.63 16.61, 11.65 15.58 C12.68 14.55, 13.66 12.9, 14.06 12.36 M0 0 C-0.52 0.61, -2.25 2.36, -3.15 3.66 C-4.04 4.96, -4.95 6.32, -5.36 7.78 C-5.77 9.25, -5.77 10.99, -5.59 12.45 C-5.41 13.92, -5.11 15.46, -4.28 16.55 C-3.46 17.63, -1.92 18.42, -0.65 18.96 C0.63 19.49, 1.95 19.81, 3.38 19.75 C4.81 19.68, 6.54 19.25, 7.92 18.56 C9.3 17.86, 10.63 16.61, 11.65 15.58 C12.68 14.55, 13.66 12.9, 14.06 12.36" stroke="#E1E1E1" stroke-width="2" fill="none"></path></g></g><mask></mask><g stroke-linecap="round"><g transform="translate(116.42326108346674 103.10691946457746) rotate(0 -28.628196688630965 7.539247719458331)"><path d="M0 0 C-0.34 -0.6, -1.14 -2.37, -2.06 -3.6 C-2.99 -4.82, -3.96 -6.3, -5.55 -7.35 C-7.14 -8.39, -9.7 -9.32, -11.63 -9.86 C-13.56 -10.41, -14.99 -10.57, -17.14 -10.62 C-19.29 -10.68, -22.08 -10.58, -24.51 -10.19 C-26.94 -9.8, -29.73 -8.9, -31.73 -8.3 C-33.73 -7.71, -34.34 -7.64, -36.51 -6.62 C-38.69 -5.6, -42.48 -3.64, -44.77 -2.18 C-47.06 -0.71, -48.66 0.64, -50.24 2.18 C-51.83 3.71, -53.14 5.21, -54.26 7.03 C-55.37 8.86, -56.44 11.15, -56.94 13.12 C-57.44 15.08, -57.52 17.11, -57.26 18.82 C-56.99 20.54, -56.16 22.27, -55.34 23.42 C-54.53 24.57, -52.87 25.32, -52.38 25.7 M0 0 C-0.34 -0.6, -1.14 -2.37, -2.06 -3.6 C-2.99 -4.82, -3.96 -6.3, -5.55 -7.35 C-7.14 -8.39, -9.7 -9.32, -11.63 -9.86 C-13.56 -10.41, -14.99 -10.57, -17.14 -10.62 C-19.29 -10.68, -22.08 -10.58, -24.51 -10.19 C-26.94 -9.8, -29.73 -8.9, -31.73 -8.3 C-33.73 -7.71, -34.34 -7.64, -36.51 -6.62 C-38.69 -5.6, -42.48 -3.64, -44.77 -2.18 C-47.06 -0.71, -48.66 0.64, -50.24 2.18 C-51.83 3.71, -53.14 5.21, -54.26 7.03 C-55.37 8.86, -56.44 11.15, -56.94 13.12 C-57.44 15.08, -57.52 17.11, -57.26 18.82 C-56.99 20.54, -56.16 22.27, -55.34 23.42 C-54.53 24.57, -52.87 25.32, -52.38 25.7" stroke="#E1E1E1" stroke-width="2" fill="none"></path></g></g><mask></mask><g stroke-linecap="round"><g transform="translate(59.23201050067496 123.114827882486) rotate(0 23.87813254251489 -22.73057487622259)"><path d="M0 0 C-0.53 -1.23, -2.19 -5.14, -3.15 -7.37 C-4.12 -9.6, -5.22 -11.84, -5.79 -13.38 C-6.35 -14.93, -6.53 -15.17, -6.57 -16.63 C-6.61 -18.1, -6.7 -20.24, -6.02 -22.19 C-5.35 -24.15, -4.04 -26.38, -2.53 -28.37 C-1.02 -30.36, 0.78 -32.24, 3.03 -34.12 C5.27 -36, 8.22 -38.12, 10.95 -39.65 C13.68 -41.18, 16.69 -42.41, 19.41 -43.31 C22.13 -44.2, 24.65 -44.66, 27.26 -45.02 C29.86 -45.38, 32.8 -45.51, 35.03 -45.46 C37.25 -45.41, 38.92 -45.24, 40.61 -44.72 C42.3 -44.21, 43.96 -43.16, 45.16 -42.38 C46.36 -41.6, 47.1 -40.92, 47.81 -40.05 C48.51 -39.19, 48.78 -38.43, 49.4 -37.2 C50.01 -35.97, 50.84 -34.14, 51.5 -32.68 C52.16 -31.22, 52.86 -29.54, 53.33 -28.45 C53.8 -27.36, 54.16 -26.53, 54.32 -26.15 M0 0 C-0.53 -1.23, -2.19 -5.14, -3.15 -7.37 C-4.12 -9.6, -5.22 -11.84, -5.79 -13.38 C-6.35 -14.93, -6.53 -15.17, -6.57 -16.63 C-6.61 -18.1, -6.7 -20.24, -6.02 -22.19 C-5.35 -24.15, -4.04 -26.38, -2.53 -28.37 C-1.02 -30.36, 0.78 -32.24, 3.03 -34.12 C5.27 -36, 8.22 -38.12, 10.95 -39.65 C13.68 -41.18, 16.69 -42.41, 19.41 -43.31 C22.13 -44.2, 24.65 -44.66, 27.26 -45.02 C29.86 -45.38, 32.8 -45.51, 35.03 -45.46 C37.25 -45.41, 38.92 -45.24, 40.61 -44.72 C42.3 -44.21, 43.96 -43.16, 45.16 -42.38 C46.36 -41.6, 47.1 -40.92, 47.81 -40.05 C48.51 -39.19, 48.78 -38.43, 49.4 -37.2 C50.01 -35.97, 50.84 -34.14, 51.5 -32.68 C52.16 -31.22, 52.86 -29.54, 53.33 -28.45 C53.8 -27.36, 54.16 -26.53, 54.32 -26.15" stroke="#E1E1E1" stroke-width="2" fill="none"></path></g></g><mask></mask><g stroke-linecap="round"><g transform="translate(113.39920612668857 96.03301668620497) rotate(0 -31.998442994079483 0.4987409306557993)"><path d="M0 0 C0.13 -0.48, 0.51 -1.57, 0.78 -2.85 C1.04 -4.14, 1.62 -6.13, 1.59 -7.72 C1.57 -9.32, 1.16 -11.09, 0.64 -12.44 C0.13 -13.8, -0.27 -14.66, -1.49 -15.85 C-2.71 -17.03, -4.9 -18.64, -6.68 -19.54 C-8.46 -20.45, -9.87 -20.87, -12.17 -21.28 C-14.48 -21.69, -17.92 -21.97, -20.53 -22.01 C-23.14 -22.04, -25.13 -21.99, -27.85 -21.48 C-30.56 -20.96, -33.78 -20.07, -36.83 -18.91 C-39.87 -17.76, -43.16 -16.2, -46.12 -14.54 C-49.09 -12.89, -52.15 -11, -54.63 -8.99 C-57.12 -6.98, -59.49 -4.49, -61.05 -2.47 C-62.6 -0.44, -63.23 1.24, -63.98 3.16 C-64.74 5.08, -65.45 6.99, -65.59 9.06 C-65.73 11.12, -65.58 13.62, -64.81 15.56 C-64.04 17.49, -62.41 19.41, -60.98 20.65 C-59.54 21.89, -56.99 22.61, -56.2 23.01 M0 0 C0.13 -0.48, 0.51 -1.57, 0.78 -2.85 C1.04 -4.14, 1.62 -6.13, 1.59 -7.72 C1.57 -9.32, 1.16 -11.09, 0.64 -12.44 C0.13 -13.8, -0.27 -14.66, -1.49 -15.85 C-2.71 -17.03, -4.9 -18.64, -6.68 -19.54 C-8.46 -20.45, -9.87 -20.87, -12.17 -21.28 C-14.48 -21.69, -17.92 -21.97, -20.53 -22.01 C-23.14 -22.04, -25.13 -21.99, -27.85 -21.48 C-30.56 -20.96, -33.78 -20.07, -36.83 -18.91 C-39.87 -17.76, -43.16 -16.2, -46.12 -14.54 C-49.09 -12.89, -52.15 -11, -54.63 -8.99 C-57.12 -6.98, -59.49 -4.49, -61.05 -2.47 C-62.6 -0.44, -63.23 1.24, -63.98 3.16 C-64.74 5.08, -65.45 6.99, -65.59 9.06 C-65.73 11.12, -65.58 13.62, -64.81 15.56 C-64.04 17.49, -62.41 19.41, -60.98 20.65 C-59.54 21.89, -56.99 22.61, -56.2 23.01" stroke="#E1E1E1" stroke-width="2" fill="none"></path></g></g><mask></mask><g stroke-linecap="round"><g transform="translate(48.13712063243497 110.19978786665638) rotate(0 -19.068560316217486 -43.884666639865316)"><path d="M0 0 C-1.13 -2.71, -3.69 -9.03, -6.8 -16.28 C-9.91 -23.54, -14.62 -34.23, -18.67 -43.54 C-22.72 -52.86, -27.85 -64.8, -31.1 -72.17 C-34.34 -79.54, -36.96 -85.17, -38.14 -87.77 M0 0 C-1.13 -2.71, -3.69 -9.03, -6.8 -16.28 C-9.91 -23.54, -14.62 -34.23, -18.67 -43.54 C-22.72 -52.86, -27.85 -64.8, -31.1 -72.17 C-34.34 -79.54, -36.96 -85.17, -38.14 -87.77" stroke="#E1E1E1" stroke-width="2" fill="none"></path></g></g><mask></mask><g stroke-linecap="round"><g transform="translate(81.88356194478911 10) rotate(0 15.894841850626449 36.29649310852665)"><path d="M0 0 C1.83 4.2, 8.17 18.71, 10.98 25.21 C13.79 31.71, 14.76 34.11, 16.89 39.01 C19.01 43.91, 21.67 49.95, 23.73 54.61 C25.79 59.27, 27.9 63.95, 29.24 66.95 C30.58 69.95, 31.36 71.65, 31.79 72.59 M0 0 C1.83 4.2, 8.17 18.71, 10.98 25.21 C13.79 31.71, 14.76 34.11, 16.89 39.01 C19.01 43.91, 21.67 49.95, 23.73 54.61 C25.79 59.27, 27.9 63.95, 29.24 66.95 C30.58 69.95, 31.36 71.65, 31.79 72.59" stroke="#E1E1E1" stroke-width="2" fill="none"></path></g></g><mask></mask><g stroke-linecap="round"><g transform="translate(110.8495666266831 75.99927104179778) rotate(0 -1.4596658651129246 0.8291275929033759)"><path d="M0 0 C-0.03 0.28, 0.28 1.44, -0.21 1.66 C-0.69 1.88, -2.47 1.38, -2.92 1.33 M0 0 C-0.03 0.28, 0.28 1.44, -0.21 1.66 C-0.69 1.88, -2.47 1.38, -2.92 1.33" stroke="#E1E1E1" stroke-width="2" fill="none"></path></g></g><mask></mask><g stroke-linecap="round"><g transform="translate(116.22302940786676 103.02158793329272) rotate(0 -27.03636892797931 8.99307206986748)"><path d="M0 0 C-0.84 -0.24, -3.68 -0.72, -5.03 -1.45 C-6.37 -2.18, -6.48 -3.48, -8.06 -4.38 C-9.65 -5.28, -12.33 -6.37, -14.52 -6.84 C-16.71 -7.31, -18.88 -7.35, -21.21 -7.2 C-23.53 -7.06, -25.91 -6.7, -28.47 -5.99 C-31.03 -5.28, -34.04 -4.16, -36.55 -2.92 C-39.07 -1.68, -41.52 -0.05, -43.58 1.46 C-45.64 2.96, -47.47 4.55, -48.91 6.1 C-50.36 7.65, -51.39 9, -52.25 10.76 C-53.11 12.53, -53.96 15, -54.07 16.7 C-54.18 18.41, -53.18 19.59, -52.91 21.01 C-52.64 22.42, -52.54 24.49, -52.47 25.19 M0 0 C-0.84 -0.24, -3.68 -0.72, -5.03 -1.45 C-6.37 -2.18, -6.48 -3.48, -8.06 -4.38 C-9.65 -5.28, -12.33 -6.37, -14.52 -6.84 C-16.71 -7.31, -18.88 -7.35, -21.21 -7.2 C-23.53 -7.06, -25.91 -6.7, -28.47 -5.99 C-31.03 -5.28, -34.04 -4.16, -36.55 -2.92 C-39.07 -1.68, -41.52 -0.05, -43.58 1.46 C-45.64 2.96, -47.47 4.55, -48.91 6.1 C-50.36 7.65, -51.39 9, -52.25 10.76 C-53.11 12.53, -53.96 15, -54.07 16.7 C-54.18 18.41, -53.18 19.59, -52.91 21.01 C-52.64 22.42, -52.54 24.49, -52.47 25.19" stroke="#E1E1E1" stroke-width="2" fill="none"></path></g></g><mask></mask><g stroke-linecap="round"><g transform="translate(71.49778136502391 165.0474667694565) rotate(0 1.326988500082166 3.56457747218775)"><path d="M0 0 C0.15 0.58, 0.46 2.3, 0.9 3.48 C1.34 4.67, 2.36 6.52, 2.65 7.13 M0 0 C0.15 0.58, 0.46 2.3, 0.9 3.48 C1.34 4.67, 2.36 6.52, 2.65 7.13" stroke="#E1E1E1" stroke-width="2" fill="none"></path></g></g><mask></mask><g stroke-linecap="round"><g transform="translate(82.17205767761061 167.27340948213953) rotate(0 8.514374741570123 20.68992240112658)"><path d="M0 0 C-0.29 0.03, -0.97 -0.09, -1.74 0.16 C-2.52 0.41, -3.64 0.71, -4.63 1.51 C-5.61 2.31, -6.81 3.68, -7.64 4.97 C-8.48 6.27, -9.53 7.64, -9.62 9.28 C-9.71 10.93, -9.01 12.55, -8.21 14.85 C-7.4 17.14, -5.85 20.29, -4.78 23.03 C-3.71 25.78, -2.81 29.1, -1.79 31.32 C-0.76 33.54, 0.19 35.3, 1.37 36.35 C2.55 37.41, 3.92 37.13, 5.3 37.63 C6.69 38.14, 8.15 38.8, 9.68 39.38 C11.21 39.96, 12.74 40.77, 14.48 41.1 C16.23 41.43, 18.44 41.61, 20.15 41.38 C21.86 41.15, 23.64 40.23, 24.72 39.74 C25.81 39.25, 26.33 38.65, 26.65 38.43 M0 0 C-0.29 0.03, -0.97 -0.09, -1.74 0.16 C-2.52 0.41, -3.64 0.71, -4.63 1.51 C-5.61 2.31, -6.81 3.68, -7.64 4.97 C-8.48 6.27, -9.53 7.64, -9.62 9.28 C-9.71 10.93, -9.01 12.55, -8.21 14.85 C-7.4 17.14, -5.85 20.29, -4.78 23.03 C-3.71 25.78, -2.81 29.1, -1.79 31.32 C-0.76 33.54, 0.19 35.3, 1.37 36.35 C2.55 37.41, 3.92 37.13, 5.3 37.63 C6.69 38.14, 8.15 38.8, 9.68 39.38 C11.21 39.96, 12.74 40.77, 14.48 41.1 C16.23 41.43, 18.44 41.61, 20.15 41.38 C21.86 41.15, 23.64 40.23, 24.72 39.74 C25.81 39.25, 26.33 38.65, 26.65 38.43" stroke="#E1E1E1" stroke-width="2" fill="none"></path></g></g><mask></mask><g stroke-linecap="round"><g transform="translate(108.8324007179815 205.5356191443958) rotate(0 -13.40772190645771 -19.00052971077929)"><path d="M0 0 C-0.7 -0.32, -2.13 -0.71, -4.21 -1.94 C-6.29 -3.17, -10.27 -5.58, -12.49 -7.37 C-14.71 -9.17, -16.16 -10.72, -17.55 -12.73 C-18.94 -14.75, -19.8 -16.98, -20.85 -19.46 C-21.9 -21.93, -22.95 -25.16, -23.85 -27.57 C-24.76 -29.99, -25.77 -32.21, -26.27 -33.95 C-26.76 -35.68, -26.72 -37.33, -26.82 -38 M0 0 C-0.7 -0.32, -2.13 -0.71, -4.21 -1.94 C-6.29 -3.17, -10.27 -5.58, -12.49 -7.37 C-14.71 -9.17, -16.16 -10.72, -17.55 -12.73 C-18.94 -14.75, -19.8 -16.98, -20.85 -19.46 C-21.9 -21.93, -22.95 -25.16, -23.85 -27.57 C-24.76 -29.99, -25.77 -32.21, -26.27 -33.95 C-26.76 -35.68, -26.72 -37.33, -26.82 -38" stroke="#E1E1E1" stroke-width="2" fill="none"></path></g></g><mask></mask><g stroke-linecap="round"><g transform="translate(84.00284965882861 204.0210573602028) rotate(0 17.022172771937107 4.200189207023186)"><path d="M0 0 C0.55 0.44, 2.12 1.91, 3.28 2.62 C4.44 3.33, 5.43 3.65, 6.95 4.25 C8.47 4.86, 10.62 5.58, 12.41 6.26 C14.2 6.94, 16.02 7.97, 17.7 8.32 C19.37 8.68, 21.03 8.52, 22.46 8.4 C23.9 8.28, 24.95 8.09, 26.31 7.59 C27.67 7.08, 29.34 6.13, 30.63 5.38 C31.92 4.63, 33.48 3.46, 34.04 3.07 M0 0 C0.55 0.44, 2.12 1.91, 3.28 2.62 C4.44 3.33, 5.43 3.65, 6.95 4.25 C8.47 4.86, 10.62 5.58, 12.41 6.26 C14.2 6.94, 16.02 7.97, 17.7 8.32 C19.37 8.68, 21.03 8.52, 22.46 8.4 C23.9 8.28, 24.95 8.09, 26.31 7.59 C27.67 7.08, 29.34 6.13, 30.63 5.38 C31.92 4.63, 33.48 3.46, 34.04 3.07" stroke="#E1E1E1" stroke-width="2" fill="none"></path></g></g><mask></mask><g stroke-linecap="round"><g transform="translate(118.36753584423013 207.06114211392742) rotate(0 6.100310685509498 -7.379892059001236)"><path d="M0 0 C0.35 -0.04, 1.21 0.1, 2.13 -0.26 C3.05 -0.63, 4.5 -1.49, 5.51 -2.21 C6.52 -2.93, 7.39 -3.62, 8.2 -4.61 C9.02 -5.6, 9.85 -6.85, 10.43 -8.14 C11 -9.43, 11.35 -11.26, 11.65 -12.37 C11.95 -13.47, 12.11 -14.36, 12.2 -14.76 M0 0 C0.35 -0.04, 1.21 0.1, 2.13 -0.26 C3.05 -0.63, 4.5 -1.49, 5.51 -2.21 C6.52 -2.93, 7.39 -3.62, 8.2 -4.61 C9.02 -5.6, 9.85 -6.85, 10.43 -8.14 C11 -9.43, 11.35 -11.26, 11.65 -12.37 C11.95 -13.47, 12.11 -14.36, 12.2 -14.76" stroke="#E1E1E1" stroke-width="2" fill="none"></path></g></g><mask></mask><g stroke-linecap="round"><g transform="translate(130.5495232001731 192.45536264993552) rotate(0 6.548212121417464 -2.958149893316943)"><path d="M0 0 C0.65 -0.14, 2.59 -0.53, 3.88 -0.84 C5.17 -1.14, 6.67 -1.45, 7.74 -1.84 C8.82 -2.23, 9.46 -2.52, 10.35 -3.2 C11.24 -3.88, 12.64 -5.46, 13.1 -5.92 M0 0 C0.65 -0.14, 2.59 -0.53, 3.88 -0.84 C5.17 -1.14, 6.67 -1.45, 7.74 -1.84 C8.82 -2.23, 9.46 -2.52, 10.35 -3.2 C11.24 -3.88, 12.64 -5.46, 13.1 -5.92" stroke="#E1E1E1" stroke-width="2" fill="none"></path></g></g><mask></mask><g stroke-linecap="round"><g transform="translate(140.64782547117375 274.855823699682) rotate(0 48.318932686469225 -41.28020432982095)"><path d="M0 0 C19.08 -16.53, 38.16 -33.05, 64.88 -56.19 M0 0 C21.94 -19, 43.87 -38, 64.88 -56.19 M64.88 -56.19 C72.43 -62.46, 79.98 -68.73, 96.64 -82.56 M64.88 -56.19 C77.38 -66.57, 89.88 -76.95, 96.64 -82.56" stroke="#E1E1E1" stroke-width="2" fill="none"></path></g></g><mask></mask><g stroke-linecap="round"><g transform="translate(237.3915489505564 192.65644689780777) rotate(0 -48.4487481538456 41.24148254877946)"><path d="M0 0 C-2.66 11.83, -5.31 23.67, -10.13 45.15 M0 0 C-3.86 17.19, -7.72 34.38, -10.13 45.15 M-10.13 45.15 C-19.69 53.49, -29.25 61.82, -42.01 72.94 M-10.13 45.15 C-22.36 55.81, -34.58 66.46, -42.01 72.94 M-42.01 72.94 C-53.39 74.92, -64.77 76.9, -96.9 82.48 M-42.01 72.94 C-61.24 76.28, -80.46 79.62, -96.9 82.48" stroke="#E1E1E1" stroke-width="2" fill="none"></path></g></g><mask></mask><g stroke-linecap="round"><g transform="translate(140.4221805600689 275.00402504870385) rotate(0 68.39018681622451 -48.28550381075007)"><path d="M0 0 C-1.24 -2.89, -2.47 -5.78, -5.47 -12.77 M0 0 C-1.45 -3.4, -2.91 -6.79, -5.47 -12.77 M-5.47 -12.77 C29.38 -42.53, 64.22 -72.28, 101.69 -104.29 M-5.47 -12.77 C35.24 -47.54, 75.96 -82.31, 101.69 -104.29 M101.69 -104.29 C100.03 -96.26, 98.36 -88.24, 97.22 -82.75 M101.69 -104.29 C100.38 -97.95, 99.06 -91.61, 97.22 -82.75 M97.22 -82.75 C89.37 -47.91, 81.51 -13.07, 76.04 11.25 M97.22 -82.75 C91.89 -59.11, 86.56 -35.47, 76.04 11.25 M76.04 11.25 C97.47 15.37, 118.9 19.49, 142.25 23.98 M76.04 11.25 C92.41 14.4, 108.79 17.55, 142.25 23.98 M142.25 23.98 C132.94 -12.49, 123.63 -48.95, 105.35 -120.55 M142.25 23.98 C128.76 -28.86, 115.27 -81.69, 105.35 -120.55 M105.35 -120.55 C104.23 -115.49, 103.1 -110.43, 101.73 -104.22 M105.35 -120.55 C104.58 -117.09, 103.81 -113.63, 101.73 -104.22" stroke="#E1E1E1" stroke-width="2" fill="none"></path></g></g><mask></mask><g stroke-linecap="round"><g transform="translate(245.66519569106708 154.42662747736665) rotate(0 5.008481304633733 -2.089026158487627)"><path d="M0 0 C3.4 -1.42, 6.79 -2.83, 10.02 -4.18 M0 0 C3.91 -1.63, 7.81 -3.26, 10.02 -4.18" stroke="#E1E1E1" stroke-width="2" fill="none"></path></g></g><mask></mask><g stroke-linecap="round"><g transform="translate(255.92674624101392 150.48814876971267) rotate(0 18.373067243217747 74.3363480847824)"><path d="M0 0 C10.3 40.54, 20.6 81.08, 36.75 144.66 M0 0 C12.54 49.35, 25.07 98.7, 36.75 144.66 M36.75 144.66 C33.41 145.98, 30.08 147.31, 26.67 148.67 M36.75 144.66 C33.15 146.09, 29.55 147.53, 26.67 148.67" stroke="#E1E1E1" stroke-width="2" fill="none"></path></g></g><mask></mask><g stroke-linecap="round"><g transform="translate(261.2781520957342 171.22519467420886) rotate(0 69.82790704611602 -67.72160930183964)"><path d="M0 0 C43.36 -37.18, 86.72 -74.36, 143.19 -122.78 M0 0 C31.41 -26.93, 62.81 -53.85, 143.19 -122.78 M143.19 -122.78 C142.13 -125.5, 141.06 -128.22, 138.22 -135.44 M143.19 -122.78 C141.22 -127.82, 139.24 -132.86, 138.22 -135.44 M138.22 -135.44 C85.24 -90.03, 32.26 -44.62, -3.54 -13.95 M138.22 -135.44 C91.72 -95.59, 45.22 -55.74, -3.54 -13.95" stroke="#E1E1E1" stroke-width="2" fill="none"></path></g></g><mask></mask><g stroke-linecap="round"><g transform="translate(268.98239365316 202.2349340872247) rotate(0 79.87021988613674 -68.45815886351994)"><path d="M0 0 C52.22 -44.76, 104.44 -89.52, 159.74 -136.92 M0 0 C33.64 -28.83, 67.28 -57.67, 159.74 -136.92" stroke="#E1E1E1" stroke-width="2" fill="none"></path></g></g><mask></mask><g stroke-linecap="round"><g transform="translate(399.8176330259828 35.72962348186911) rotate(0 13.89117194926962 -2.2790479320739223)"><path d="M0 0 C1.56 -0.25, 6.32 -1.01, 9.37 -1.51 C12.42 -2, 15.84 -2.56, 18.32 -2.96 C20.8 -3.37, 22.67 -3.65, 24.25 -3.92 C25.82 -4.18, 27.19 -4.45, 27.78 -4.56 M0 0 C1.56 -0.25, 6.32 -1.01, 9.37 -1.51 C12.42 -2, 15.84 -2.56, 18.32 -2.96 C20.8 -3.37, 22.67 -3.65, 24.25 -3.92 C25.82 -4.18, 27.19 -4.45, 27.78 -4.56" stroke="#E1E1E1" stroke-width="2" fill="none"></path></g></g><mask></mask><g stroke-linecap="round"><g transform="translate(427.67886860931753 31.22900197228023) rotate(0 -1.0010568594757387 6.497313119619719)"><path d="M0 0 C0.07 0.12, 0.28 0.23, 0.42 0.74 C0.55 1.25, 1.05 2.86, 0.81 3.08 C0.56 3.3, -0.42 2.12, -1.06 2.07 C-1.7 2.01, -2.96 2.35, -3.03 2.77 C-3.09 3.19, -2.13 3.91, -1.45 4.58 C-0.78 5.25, 0.8 6.14, 1.03 6.82 C1.25 7.49, 0.21 7.88, -0.12 8.63 C-0.45 9.38, -0.8 10.59, -0.94 11.32 C-1.08 12.04, -0.96 12.71, -0.96 12.99 M0 0 C0.07 0.12, 0.28 0.23, 0.42 0.74 C0.55 1.25, 1.05 2.86, 0.81 3.08 C0.56 3.3, -0.42 2.12, -1.06 2.07 C-1.7 2.01, -2.96 2.35, -3.03 2.77 C-3.09 3.19, -2.13 3.91, -1.45 4.58 C-0.78 5.25, 0.8 6.14, 1.03 6.82 C1.25 7.49, 0.21 7.88, -0.12 8.63 C-0.45 9.38, -0.8 10.59, -0.94 11.32 C-1.08 12.04, -0.96 12.71, -0.96 12.99" stroke="#E1E1E1" stroke-width="2" fill="none"></path></g></g><mask></mask><g stroke-linecap="round"><g transform="translate(426.80428244041605 44.237183483821354) rotate(0 -11.103394647715277 1.987474024865719)"><path d="M0 0 C-3.7 0.66, -18.51 3.31, -22.21 3.97 M0 0 C-3.7 0.66, -18.51 3.31, -22.21 3.97" stroke="#E1E1E1" stroke-width="2" fill="none"></path></g></g><mask></mask><g stroke-linecap="round"><g transform="translate(438.5108867055542 42.374417964130544) rotate(0 10.398927146199298 -1.7307371674727392)"><path d="M0 0 C3.47 -0.58, 17.33 -2.88, 20.8 -3.46 M0 0 C3.47 -0.58, 17.33 -2.88, 20.8 -3.46" stroke="#E1E1E1" stroke-width="2" fill="none"></path></g></g><mask></mask><g stroke-linecap="round"><g transform="translate(459.48251958885976 38.84272731866258) rotate(0 -2.6824528357706185 -6.230545360723568)"><path d="M0 0 C-0.89 -2.08, -4.47 -10.38, -5.36 -12.46 M0 0 C-0.89 -2.08, -4.47 -10.38, -5.36 -12.46" stroke="#E1E1E1" stroke-width="2" fill="none"></path></g></g><mask></mask><g stroke-linecap="round"><g transform="translate(453.9676926056625 26.406036087358416) rotate(0 -9.327653976201077 1.60399537145247)"><path d="M0 0 C-3.11 0.53, -15.55 2.67, -18.66 3.21 M0 0 C-3.11 0.53, -15.55 2.67, -18.66 3.21" stroke="#E1E1E1" stroke-width="2" fill="none"></path></g></g><mask></mask><g stroke-linecap="round"><g transform="translate(435.2153289035805 29.734668753747883) rotate(0 0.5839611307544601 3.7926296372745014)"><path d="M0 0 C0.18 0.54, 0.87 1.95, 1.07 3.22 C1.26 4.48, 1.15 6.86, 1.17 7.59 M0 0 C0.18 0.54, 0.87 1.95, 1.07 3.22 C1.26 4.48, 1.15 6.86, 1.17 7.59" stroke="#E1E1E1" stroke-width="2" fill="none"></path></g></g><mask></mask><g stroke-linecap="round"><g transform="translate(436.63266817543945 37.58723799808513) rotate(0 0.37588770092429513 0.46996129069771087)"><path d="M0 0 C0.13 0.16, 0.63 0.78, 0.75 0.94 M0 0 C0.13 0.16, 0.63 0.78, 0.75 0.94" stroke="#E1E1E1" stroke-width="2" fill="none"></path></g></g><mask></mask><g stroke-linecap="round"><g transform="translate(437.48800585767276 38.59331030831254) rotate(0 -0.07848502662648116 0.6684104771936177)"><path d="M0 0 C-0.03 0.22, -0.13 1.11, -0.16 1.34 M0 0 C-0.03 0.22, -0.13 1.11, -0.16 1.34" stroke="#E1E1E1" stroke-width="2" fill="none"></path></g></g><mask></mask><g stroke-linecap="round"><g transform="translate(437.49098801757896 40.27606181183751) rotate(0 0.5400420484971846 0.5126603984478493)"><path d="M0 0 C0.18 0.17, 0.9 0.85, 1.08 1.03 M0 0 C0.18 0.17, 0.9 0.85, 1.08 1.03" stroke="#E1E1E1" stroke-width="2" fill="none"></path></g></g><mask></mask><g stroke-linecap="round"><g transform="translate(438.64481279589427 41.21110449520427) rotate(0 0.023992831973941975 0.5662037240392692)"><path d="M0 0 C0.01 0.19, 0.04 0.94, 0.05 1.13 M0 0 C0.01 0.19, 0.04 0.94, 0.05 1.13" stroke="#E1E1E1" stroke-width="2" fill="none"></path></g></g><mask></mask><g stroke-linecap="round"><g transform="translate(459.51966103496625 39.12521919342862) rotate(0 -9.753831737364521 8.153767394879537)"><path d="M0 0 C-3.25 2.72, -16.26 13.59, -19.51 16.31 M0 0 C-3.25 2.72, -16.26 13.59, -19.51 16.31" stroke="#E1E1E1" stroke-width="2" fill="none"></path></g></g><mask></mask><g stroke-linecap="round"><g transform="translate(439.97431390323845 55.40862559849086) rotate(0 -0.7988121967354118 -6.536758962017473)"><path d="M0 0 C-0.08 -0.83, -0.31 -3.43, -0.51 -4.95 C-0.71 -6.47, -1.03 -7.76, -1.22 -9.11 C-1.4 -10.46, -1.53 -12.41, -1.6 -13.07 M0 0 C-0.08 -0.83, -0.31 -3.43, -0.51 -4.95 C-0.71 -6.47, -1.03 -7.76, -1.22 -9.11 C-1.4 -10.46, -1.53 -12.41, -1.6 -13.07" stroke="#E1E1E1" stroke-width="2" fill="none"></path></g></g><mask></mask><g stroke-linecap="round"><g transform="translate(426.76578546707947 44.36595857068687) rotate(0 0.9541556173121535 10.505064928321133)"><path d="M0 0 C0.1 1.2, 0.4 4.68, 0.59 7.2 C0.77 9.72, 0.92 12.8, 1.14 15.1 C1.36 17.4, 1.78 20.02, 1.91 21.01 M0 0 C0.1 1.2, 0.4 4.68, 0.59 7.2 C0.77 9.72, 0.92 12.8, 1.14 15.1 C1.36 17.4, 1.78 20.02, 1.91 21.01" stroke="#E1E1E1" stroke-width="2" fill="none"></path></g></g><mask></mask><g stroke-linecap="round"><g transform="translate(439.87817640370554 54.711006856483095) rotate(0 -6.074220774954142 41.302552820330106)"><path d="M0 0 C0.12 1.42, 0.48 5.91, 0.73 8.52 C0.99 11.14, 1.13 12.49, 1.53 15.69 C1.92 18.9, 2.7 24.24, 3.1 27.75 C3.5 31.27, 3.62 34.42, 3.92 36.79 C4.21 39.17, 4.64 40.49, 4.88 42 C5.13 43.51, 5.52 43.94, 5.38 45.85 C5.25 47.76, 4.89 50.23, 4.09 53.47 C3.3 56.71, 1.21 62.74, 0.63 65.28 C0.05 67.82, 0.63 67.08, 0.64 68.7 C0.65 70.31, 0.83 73.36, 0.69 74.99 C0.56 76.62, 0.92 77.32, -0.16 78.49 C-1.24 79.66, -3.85 81.32, -5.78 82.01 C-7.7 82.7, -9.75 82.53, -11.71 82.61 C-13.67 82.69, -16.56 82.51, -17.53 82.49 M0 0 C0.12 1.42, 0.48 5.91, 0.73 8.52 C0.99 11.14, 1.13 12.49, 1.53 15.69 C1.92 18.9, 2.7 24.24, 3.1 27.75 C3.5 31.27, 3.62 34.42, 3.92 36.79 C4.21 39.17, 4.64 40.49, 4.88 42 C5.13 43.51, 5.52 43.94, 5.38 45.85 C5.25 47.76, 4.89 50.23, 4.09 53.47 C3.3 56.71, 1.21 62.74, 0.63 65.28 C0.05 67.82, 0.63 67.08, 0.64 68.7 C0.65 70.31, 0.83 73.36, 0.69 74.99 C0.56 76.62, 0.92 77.32, -0.16 78.49 C-1.24 79.66, -3.85 81.32, -5.78 82.01 C-7.7 82.7, -9.75 82.53, -11.71 82.61 C-13.67 82.69, -16.56 82.51, -17.53 82.49" stroke="#E1E1E1" stroke-width="2" fill="none"></path></g></g><mask></mask><g stroke-linecap="round"><g transform="translate(422.1654820314061 137.23964618126638) rotate(0 1.8534418497902152 -18.067535040538303)"><path d="M0 0 C-0.13 0.62, -0.55 2.35, -0.76 3.7 C-0.97 5.05, -0.78 6.92, -1.27 8.1 C-1.77 9.28, -2.68 10.27, -3.73 10.79 C-4.77 11.32, -6.45 11.43, -7.54 11.23 C-8.63 11.04, -9.77 10.44, -10.29 9.6 C-10.82 8.75, -10.8 8.73, -10.68 6.16 C-10.57 3.6, -9.94 -1.92, -9.59 -5.79 C-9.25 -9.67, -9.04 -13.85, -8.61 -17.08 C-8.18 -20.31, -7.69 -22.58, -7.01 -25.17 C-6.32 -27.76, -5.45 -30.3, -4.52 -32.62 C-3.59 -34.94, -2.61 -37.31, -1.43 -39.09 C-0.25 -40.88, 1.44 -42.34, 2.59 -43.35 C3.73 -44.36, 4.38 -44.6, 5.45 -45.15 C6.52 -45.7, 7.86 -46.32, 9.02 -46.66 C10.17 -47, 11.49 -47.06, 12.38 -47.18 C13.28 -47.3, 14.06 -47.34, 14.39 -47.37 M0 0 C-0.13 0.62, -0.55 2.35, -0.76 3.7 C-0.97 5.05, -0.78 6.92, -1.27 8.1 C-1.77 9.28, -2.68 10.27, -3.73 10.79 C-4.77 11.32, -6.45 11.43, -7.54 11.23 C-8.63 11.04, -9.77 10.44, -10.29 9.6 C-10.82 8.75, -10.8 8.73, -10.68 6.16 C-10.57 3.6, -9.94 -1.92, -9.59 -5.79 C-9.25 -9.67, -9.04 -13.85, -8.61 -17.08 C-8.18 -20.31, -7.69 -22.58, -7.01 -25.17 C-6.32 -27.76, -5.45 -30.3, -4.52 -32.62 C-3.59 -34.94, -2.61 -37.31, -1.43 -39.09 C-0.25 -40.88, 1.44 -42.34, 2.59 -43.35 C3.73 -44.36, 4.38 -44.6, 5.45 -45.15 C6.52 -45.7, 7.86 -46.32, 9.02 -46.66 C10.17 -47, 11.49 -47.06, 12.38 -47.18 C13.28 -47.3, 14.06 -47.34, 14.39 -47.37" stroke="#E1E1E1" stroke-width="2" fill="none"></path></g></g><mask></mask><g stroke-linecap="round"><g transform="translate(436.5275194687242 89.8566351523607) rotate(0 0.047473800340526395 -2.6455959197054426)"><path d="M0 0 C-0.13 -0.11, -0.68 -0.22, -0.76 -0.67 C-0.84 -1.12, -0.74 -1.95, -0.47 -2.72 C-0.2 -3.49, 0.63 -4.86, 0.85 -5.29 M0 0 C-0.13 -0.11, -0.68 -0.22, -0.76 -0.67 C-0.84 -1.12, -0.74 -1.95, -0.47 -2.72 C-0.2 -3.49, 0.63 -4.86, 0.85 -5.29" stroke="#E1E1E1" stroke-width="2" fill="none"></path></g></g><mask></mask><g stroke-linecap="round"><g transform="translate(437.6941505719824 84.20413419502984) rotate(0 0.3140663336395164 -0.6406075345217914)"><path d="M0 0 C0.1 -0.21, 0.52 -1.07, 0.63 -1.28 M0 0 C0.1 -0.21, 0.52 -1.07, 0.63 -1.28" stroke="#E1E1E1" stroke-width="2" fill="none"></path></g></g><mask></mask><g stroke-linecap="round"><g transform="translate(438.1485591621031 82.4368613356387) rotate(0 -7.505596283030968 -3.949912594754096)"><path d="M0 0 C0.03 -0.21, 0.13 -0.64, 0.2 -1.27 C0.28 -1.89, 0.47 -2.95, 0.46 -3.75 C0.46 -4.54, 0.29 -5.26, 0.16 -6.04 C0.02 -6.81, 0.21 -7.9, -0.32 -8.42 C-0.85 -8.94, -2.2 -8.87, -3.03 -9.18 C-3.85 -9.48, -4.47 -9.95, -5.25 -10.26 C-6.03 -10.57, -6.91 -10.9, -7.73 -11.04 C-8.55 -11.19, -9.37 -11.29, -10.17 -11.13 C-10.96 -10.97, -11.78 -10.47, -12.49 -10.1 C-13.19 -9.73, -13.89 -9.44, -14.39 -8.92 C-14.89 -8.4, -15.43 -7.71, -15.47 -6.98 C-15.52 -6.25, -15.26 -5.38, -14.68 -4.56 C-14.11 -3.75, -13.11 -2.71, -12.02 -2.09 C-10.93 -1.46, -9.17 -1.4, -8.16 -0.8 C-7.14 -0.2, -6.58 0.84, -5.95 1.49 C-5.31 2.14, -5.11 2.81, -4.35 3.1 C-3.59 3.39, -1.89 3.21, -1.39 3.23 M0 0 C0.03 -0.21, 0.13 -0.64, 0.2 -1.27 C0.28 -1.89, 0.47 -2.95, 0.46 -3.75 C0.46 -4.54, 0.29 -5.26, 0.16 -6.04 C0.02 -6.81, 0.21 -7.9, -0.32 -8.42 C-0.85 -8.94, -2.2 -8.87, -3.03 -9.18 C-3.85 -9.48, -4.47 -9.95, -5.25 -10.26 C-6.03 -10.57, -6.91 -10.9, -7.73 -11.04 C-8.55 -11.19, -9.37 -11.29, -10.17 -11.13 C-10.96 -10.97, -11.78 -10.47, -12.49 -10.1 C-13.19 -9.73, -13.89 -9.44, -14.39 -8.92 C-14.89 -8.4, -15.43 -7.71, -15.47 -6.98 C-15.52 -6.25, -15.26 -5.38, -14.68 -4.56 C-14.11 -3.75, -13.11 -2.71, -12.02 -2.09 C-10.93 -1.46, -9.17 -1.4, -8.16 -0.8 C-7.14 -0.2, -6.58 0.84, -5.95 1.49 C-5.31 2.14, -5.11 2.81, -4.35 3.1 C-3.59 3.39, -1.89 3.21, -1.39 3.23" stroke="#E1E1E1" stroke-width="2" fill="none"></path></g></g><mask></mask><g stroke-linecap="round"><g transform="translate(423.7994586241475 78.47955622696304) rotate(0 -0.08697754660920509 0.9986824276010111)"><path d="M0 0 C-0.03 0.33, -0.14 1.66, -0.17 2 M0 0 C-0.03 0.33, -0.14 1.66, -0.17 2" stroke="#E1E1E1" stroke-width="2" fill="none"></path></g></g><mask></mask><g stroke-linecap="round"><g transform="translate(423.74863509093643 80.48177241942608) rotate(0 1.5249370123974586 2.603204472686059)"><path d="M0 0 C0.2 0.18, 0.86 0.55, 1.21 1.06 C1.56 1.57, 1.85 2.38, 2.09 3.07 C2.34 3.77, 2.51 5.35, 2.67 5.21 C2.83 5.06, 2.99 2.69, 3.05 2.19 M0 0 C0.2 0.18, 0.86 0.55, 1.21 1.06 C1.56 1.57, 1.85 2.38, 2.09 3.07 C2.34 3.77, 2.51 5.35, 2.67 5.21 C2.83 5.06, 2.99 2.69, 3.05 2.19" stroke="#E1E1E1" stroke-width="2" fill="none"></path></g></g><mask></mask><g stroke-linecap="round"><g transform="translate(427.05932624752904 82.47266882494671) rotate(0 4.481596056961735 3.109360660258119)"><path d="M0 0 C0.19 0.12, 0.82 0.26, 1.12 0.74 C1.41 1.22, 1.45 2.2, 1.76 2.87 C2.07 3.54, 2.44 4.24, 2.96 4.75 C3.48 5.26, 4.19 5.68, 4.9 5.93 C5.62 6.17, 6.58 6.39, 7.26 6.22 C7.94 6.05, 8.68 5.12, 8.96 4.9 M0 0 C0.19 0.12, 0.82 0.26, 1.12 0.74 C1.41 1.22, 1.45 2.2, 1.76 2.87 C2.07 3.54, 2.44 4.24, 2.96 4.75 C3.48 5.26, 4.19 5.68, 4.9 5.93 C5.62 6.17, 6.58 6.39, 7.26 6.22 C7.94 6.05, 8.68 5.12, 8.96 4.9" stroke="#E1E1E1" stroke-width="2" fill="none"></path></g></g><mask></mask><g stroke-linecap="round"><g transform="translate(423.76295808665964 80.52451039053562) rotate(0 0.3376299717647271 1.6100664305263308)"><path d="M0 0 C-0.03 0.21, -0.35 0.71, -0.2 1.25 C-0.05 1.78, 0.7 2.89, 0.88 3.22 M0 0 C-0.03 0.21, -0.35 0.71, -0.2 1.25 C-0.05 1.78, 0.7 2.89, 0.88 3.22" stroke="#E1E1E1" stroke-width="2" fill="none"></path></g></g><mask></mask><g stroke-linecap="round"><g transform="translate(423.9923570342903 83.3533020458616) rotate(0 1.8229477298633583 3.4200772610268473)"><path d="M0 0 C0 0.27, -0.16 0.93, -0.01 1.61 C0.14 2.29, 0.66 3.32, 0.89 4.09 C1.11 4.87, 0.87 5.81, 1.33 6.26 C1.8 6.72, 3.27 6.74, 3.65 6.84 M0 0 C0 0.27, -0.16 0.93, -0.01 1.61 C0.14 2.29, 0.66 3.32, 0.89 4.09 C1.11 4.87, 0.87 5.81, 1.33 6.26 C1.8 6.72, 3.27 6.74, 3.65 6.84" stroke="#E1E1E1" stroke-width="2" fill="none"></path></g></g><mask></mask><g stroke-linecap="round"><g transform="translate(426.7666288994442 90.2814736867947) rotate(0 0.049321928820859284 1.0095401824233932)"><path d="M0 0 C0.02 0.34, 0.08 1.68, 0.1 2.02 M0 0 C0.02 0.34, 0.08 1.68, 0.1 2.02" stroke="#E1E1E1" stroke-width="2" fill="none"></path></g></g><mask></mask><g stroke-linecap="round"><g transform="translate(427.6718158325241 104.47618508259484) rotate(0 -2.779606058942136 16.45019400076569)"><path d="M0 0 C-0.45 1.32, -1.91 4.36, -2.71 7.94 C-3.51 11.51, -4.32 17.31, -4.8 21.47 C-5.27 25.63, -5.43 30.99, -5.56 32.9 M0 0 C-0.45 1.32, -1.91 4.36, -2.71 7.94 C-3.51 11.51, -4.32 17.31, -4.8 21.47 C-5.27 25.63, -5.43 30.99, -5.56 32.9" stroke="#E1E1E1" stroke-width="2" fill="none"></path></g></g><mask></mask><g stroke-linecap="round"><g transform="translate(439.74592450444993 133.3420895116891) rotate(0 -2.855864748970589 8.514498605861945)"><path d="M0 0 C0.13 0.54, 0.59 2.18, 0.78 3.22 C0.97 4.25, 1.18 5.11, 1.15 6.19 C1.12 7.27, 0.97 8.52, 0.62 9.69 C0.27 10.86, -0.28 12.36, -0.95 13.21 C-1.62 14.07, -2.43 14.18, -3.41 14.82 C-4.4 15.45, -6.29 16.66, -6.86 17.03 M0 0 C0.13 0.54, 0.59 2.18, 0.78 3.22 C0.97 4.25, 1.18 5.11, 1.15 6.19 C1.12 7.27, 0.97 8.52, 0.62 9.69 C0.27 10.86, -0.28 12.36, -0.95 13.21 C-1.62 14.07, -2.43 14.18, -3.41 14.82 C-4.4 15.45, -6.29 16.66, -6.86 17.03" stroke="#E1E1E1" stroke-width="2" fill="none"></path></g></g><mask></mask><g stroke-linecap="round"><g transform="translate(433.0857091741659 150.45168562624553) rotate(0 2.3655905108976185 -0.8741294256734591)"><path d="M0 0 C0.79 -0.29, 3.94 -1.46, 4.73 -1.75 M0 0 C0.79 -0.29, 3.94 -1.46, 4.73 -1.75" stroke="#E1E1E1" stroke-width="2" fill="none"></path></g></g><mask></mask><g stroke-linecap="round"><g transform="translate(437.9526624802279 148.9836160207078) rotate(0 0.8028108381512311 30.928621249745163)"><path d="M0 0 C0.14 0.71, 0.41 1.9, 0.82 4.28 C1.23 6.65, 1.9 11.56, 2.45 14.26 C3.01 16.96, 3.6 17.49, 4.15 20.49 C4.7 23.5, 5.29 28.71, 5.76 32.27 C6.24 35.83, 6.58 38.81, 6.98 41.83 C7.39 44.86, 7.83 47.74, 8.21 50.44 C8.6 53.15, 9.16 56.35, 9.31 58.07 C9.45 59.79, 9.6 60.13, 9.07 60.76 C8.54 61.39, 7.83 61.88, 6.12 61.86 C4.41 61.83, 0.21 61.29, -1.18 60.61 C-2.57 59.93, -1.77 59.94, -2.21 57.79 C-2.65 55.63, -3.34 50.25, -3.83 47.68 C-4.33 45.11, -4.79 44.34, -5.16 42.36 C-5.54 40.38, -5.7 38.18, -6.07 35.82 C-6.44 33.45, -7.11 30.06, -7.39 28.15 C-7.66 26.25, -7.65 25.01, -7.7 24.38 M0 0 C0.14 0.71, 0.41 1.9, 0.82 4.28 C1.23 6.65, 1.9 11.56, 2.45 14.26 C3.01 16.96, 3.6 17.49, 4.15 20.49 C4.7 23.5, 5.29 28.71, 5.76 32.27 C6.24 35.83, 6.58 38.81, 6.98 41.83 C7.39 44.86, 7.83 47.74, 8.21 50.44 C8.6 53.15, 9.16 56.35, 9.31 58.07 C9.45 59.79, 9.6 60.13, 9.07 60.76 C8.54 61.39, 7.83 61.88, 6.12 61.86 C4.41 61.83, 0.21 61.29, -1.18 60.61 C-2.57 59.93, -1.77 59.94, -2.21 57.79 C-2.65 55.63, -3.34 50.25, -3.83 47.68 C-4.33 45.11, -4.79 44.34, -5.16 42.36 C-5.54 40.38, -5.7 38.18, -6.07 35.82 C-6.44 33.45, -7.11 30.06, -7.39 28.15 C-7.66 26.25, -7.65 25.01, -7.7 24.38" stroke="#E1E1E1" stroke-width="2" fill="none"></path></g></g><mask></mask><g stroke-linecap="round"><g transform="translate(435.2077231900678 205.69295320268486) rotate(0 3.828575012155625 5.000055910582262)"><path d="M0 0 C-0.35 0, -1.46 -0.19, -2.11 -0.02 C-2.76 0.15, -3.71 0.5, -3.92 1.04 C-4.13 1.59, -3.8 2.6, -3.37 3.25 C-2.94 3.89, -2.07 4.5, -1.34 4.91 C-0.6 5.31, 0.19 5.42, 1.02 5.67 C1.85 5.93, 3.11 6, 3.64 6.46 C4.18 6.91, 3.8 7.9, 4.24 8.4 C4.68 8.91, 5.59 9.22, 6.28 9.49 C6.98 9.76, 7.52 10.12, 8.4 10.02 C9.28 9.92, 11.16 9.71, 11.58 8.88 C12 8.05, 11.05 5.68, 10.94 5.04 M0 0 C-0.35 0, -1.46 -0.19, -2.11 -0.02 C-2.76 0.15, -3.71 0.5, -3.92 1.04 C-4.13 1.59, -3.8 2.6, -3.37 3.25 C-2.94 3.89, -2.07 4.5, -1.34 4.91 C-0.6 5.31, 0.19 5.42, 1.02 5.67 C1.85 5.93, 3.11 6, 3.64 6.46 C4.18 6.91, 3.8 7.9, 4.24 8.4 C4.68 8.91, 5.59 9.22, 6.28 9.49 C6.98 9.76, 7.52 10.12, 8.4 10.02 C9.28 9.92, 11.16 9.71, 11.58 8.88 C12 8.05, 11.05 5.68, 10.94 5.04" stroke="#E1E1E1" stroke-width="2" fill="none"></path></g></g><mask></mask><g stroke-linecap="round"><g transform="translate(411.6736826792096 183.35871193010678) rotate(0 6.756118523385794 16.748644683404052)"><path d="M0 0 C0.11 3, 0.41 13.13, 0.65 17.99 C0.9 22.85, 1.3 26.79, 1.48 29.15 C1.66 31.5, 1.37 31.48, 1.74 32.12 C2.11 32.76, 2.86 32.75, 3.7 32.98 C4.54 33.21, 5.59 33.43, 6.77 33.5 C7.96 33.56, 9.84 33.62, 10.81 33.38 C11.79 33.14, 12.26 32.96, 12.61 32.04 C12.96 31.13, 12.78 30.89, 12.9 27.9 C13.03 24.92, 13.24 17.53, 13.35 14.11 C13.45 10.69, 13.48 8.51, 13.51 7.39 M0 0 C0.11 3, 0.41 13.13, 0.65 17.99 C0.9 22.85, 1.3 26.79, 1.48 29.15 C1.66 31.5, 1.37 31.48, 1.74 32.12 C2.11 32.76, 2.86 32.75, 3.7 32.98 C4.54 33.21, 5.59 33.43, 6.77 33.5 C7.96 33.56, 9.84 33.62, 10.81 33.38 C11.79 33.14, 12.26 32.96, 12.61 32.04 C12.96 31.13, 12.78 30.89, 12.9 27.9 C13.03 24.92, 13.24 17.53, 13.35 14.11 C13.45 10.69, 13.48 8.51, 13.51 7.39" stroke="#E1E1E1" stroke-width="2" fill="none"></path></g></g><mask></mask><g stroke-linecap="round"><g transform="translate(423.9503412933259 191.21678049766308) rotate(0 -13.46202265234092 -8.884627854248492)"><path d="M0 0 C-0.97 -0.67, -3.73 -2.66, -5.82 -4 C-7.91 -5.35, -10.57 -6.85, -12.54 -8.09 C-14.5 -9.33, -15.77 -10.21, -17.62 -11.42 C-19.46 -12.64, -22.06 -14.34, -23.61 -15.39 C-25.16 -16.45, -26.37 -17.37, -26.92 -17.77 M0 0 C-0.97 -0.67, -3.73 -2.66, -5.82 -4 C-7.91 -5.35, -10.57 -6.85, -12.54 -8.09 C-14.5 -9.33, -15.77 -10.21, -17.62 -11.42 C-19.46 -12.64, -22.06 -14.34, -23.61 -15.39 C-25.16 -16.45, -26.37 -17.37, -26.92 -17.77" stroke="#E1E1E1" stroke-width="2" fill="none"></path></g></g><mask></mask><g stroke-linecap="round"><g transform="translate(397.12672477750516 173.427605029392) rotate(0 0.3653339275238068 -6.2207749794565075)"><path d="M0 0 C0.02 -1.3, 0 -5.75, 0.13 -7.82 C0.25 -9.89, 0.63 -11.67, 0.73 -12.44 M0 0 C0.02 -1.3, 0 -5.75, 0.13 -7.82 C0.25 -9.89, 0.63 -11.67, 0.73 -12.44" stroke="#E1E1E1" stroke-width="2" fill="none"></path></g></g><mask></mask><g stroke-linecap="round"><g transform="translate(395.489154526075 159.58973524297983) rotate(0 5.614328959666977 3.702032021352352)"><path d="M0 0 C0.83 0.48, 3.09 1.65, 4.96 2.88 C6.84 4.12, 10.18 6.65, 11.23 7.4 M0 0 C0.83 0.48, 3.09 1.65, 4.96 2.88 C6.84 4.12, 10.18 6.65, 11.23 7.4" stroke="#E1E1E1" stroke-width="2" fill="none"></path></g></g><mask></mask><g stroke-linecap="round"><g transform="translate(406.7255590186546 166.7392690219043) rotate(0 0.04080784120390035 -0.3754321390759401)"><path d="M0 0 C0.01 -0.13, 0.07 -0.63, 0.08 -0.75 M0 0 C0.01 -0.13, 0.07 -0.63, 0.08 -0.75" stroke="#E1E1E1" stroke-width="2" fill="none"></path></g></g><mask></mask><g stroke-linecap="round"><g transform="translate(406.77369843810857 166.0373741531971) rotate(0 2.0724850064980274 1.2841328471046154)"><path d="M0 0 C0.69 0.43, 3.45 2.14, 4.14 2.57 M0 0 C0.69 0.43, 3.45 2.14, 4.14 2.57" stroke="#E1E1E1" stroke-width="2" fill="none"></path></g></g><mask></mask><g stroke-linecap="round"><g transform="translate(411.0332070698057 168.86266008115842) rotate(0 -0.08562730069570534 0.4798725462248967)"><path d="M0 0 C-0.03 0.16, -0.14 0.8, -0.17 0.96 M0 0 C-0.03 0.16, -0.14 0.8, -0.17 0.96" stroke="#E1E1E1" stroke-width="2" fill="none"></path></g></g><mask></mask><g stroke-linecap="round"><g transform="translate(410.9131351845008 169.74051282787025) rotate(0 6.988654052415427 4.563146636587362)"><path d="M0 0 C2.33 1.52, 11.65 7.61, 13.98 9.13 M0 0 C2.33 1.52, 11.65 7.61, 13.98 9.13" stroke="#E1E1E1" stroke-width="2" fill="none"></path></g></g><mask></mask><g stroke-linecap="round"><g transform="translate(424.94134934208773 179.1880122274025) rotate(0 -0.41596331694961464 5.975512937237795)"><path d="M0 0 C-0.14 1.99, -0.69 9.96, -0.83 11.95 M0 0 C-0.14 1.99, -0.69 9.96, -0.83 11.95" stroke="#E1E1E1" stroke-width="2" fill="none"></path></g></g><mask></mask><g stroke-linecap="round"><g transform="translate(424.2079148537382 191.31554930654306) rotate(0 2.6922108661370885 -0.7541842381142487)"><path d="M0 0 C0.47 -0.25, 1.95 -1.25, 2.85 -1.5 C3.74 -1.75, 4.96 -1.51, 5.38 -1.51 M0 0 C0.47 -0.25, 1.95 -1.25, 2.85 -1.5 C3.74 -1.75, 4.96 -1.51, 5.38 -1.51" stroke="#E1E1E1" stroke-width="2" fill="none"></path></g></g><mask></mask><g stroke-linecap="round"><g transform="translate(429.42661525122503 189.6954088449155) rotate(0 -1.683911359237868 -12.800243966512141)"><path d="M0 0 C0.07 -1.31, 0.34 -5.07, 0.42 -7.88 C0.5 -10.68, 0.4 -14.14, 0.51 -16.81 C0.61 -19.49, 1.17 -22.45, 1.03 -23.91 C0.89 -25.38, 0.22 -25.48, -0.33 -25.6 C-0.89 -25.72, -1.73 -25.33, -2.32 -24.64 C-2.9 -23.95, -3.48 -23.86, -3.83 -21.46 C-4.18 -19.07, -4.31 -12.13, -4.4 -10.27 M0 0 C0.07 -1.31, 0.34 -5.07, 0.42 -7.88 C0.5 -10.68, 0.4 -14.14, 0.51 -16.81 C0.61 -19.49, 1.17 -22.45, 1.03 -23.91 C0.89 -25.38, 0.22 -25.48, -0.33 -25.6 C-0.89 -25.72, -1.73 -25.33, -2.32 -24.64 C-2.9 -23.95, -3.48 -23.86, -3.83 -21.46 C-4.18 -19.07, -4.31 -12.13, -4.4 -10.27" stroke="#E1E1E1" stroke-width="2" fill="none"></path></g></g><mask></mask><g stroke-linecap="round"><g transform="translate(425.739246386373 189.87994328615616) rotate(0 1.0008295969839764 -8.631065912123859)"><path d="M0 0 C0.04 -0.47, 0.11 -1.64, 0.25 -2.84 C0.38 -4.04, 0.65 -5.24, 0.8 -7.21 C0.96 -9.18, 1.02 -12.99, 1.18 -14.67 C1.35 -16.35, 1.67 -17.43, 1.8 -17.28 C1.94 -17.14, 1.97 -15.6, 2 -13.79 C2.03 -11.99, 2.02 -8.76, 1.99 -6.45 C1.97 -4.15, 1.86 -1.06, 1.83 0.02 M0 0 C0.04 -0.47, 0.11 -1.64, 0.25 -2.84 C0.38 -4.04, 0.65 -5.24, 0.8 -7.21 C0.96 -9.18, 1.02 -12.99, 1.18 -14.67 C1.35 -16.35, 1.67 -17.43, 1.8 -17.28 C1.94 -17.14, 1.97 -15.6, 2 -13.79 C2.03 -11.99, 2.02 -8.76, 1.99 -6.45 C1.97 -4.15, 1.86 -1.06, 1.83 0.02" stroke="#E1E1E1" stroke-width="2" fill="none"></path></g></g><mask></mask><g stroke-linecap="round"><g transform="translate(406.87053060367725 167.2557994593801) rotate(0 1.902060395097351 1.9669379460282812)"><path d="M0 0 C0.01 0.26, -0.28 1.09, 0.03 1.56 C0.35 2.02, 1.24 2.38, 1.87 2.78 C2.5 3.18, 3.48 3.74, 3.8 3.93 M0 0 C0.01 0.26, -0.28 1.09, 0.03 1.56 C0.35 2.02, 1.24 2.38, 1.87 2.78 C2.5 3.18, 3.48 3.74, 3.8 3.93" stroke="#E1E1E1" stroke-width="2" fill="none"></path></g></g><mask></mask><g stroke-linecap="round"><g transform="translate(410.8259862354889 169.66885702534955) rotate(0 -0.09600217557795077 0.9055190797314481)"><path d="M0 0 C-0.03 0.3, -0.16 1.51, -0.19 1.81 M0 0 C-0.03 0.3, -0.16 1.51, -0.19 1.81" stroke="#E1E1E1" stroke-width="2" fill="none"></path></g></g><mask></mask><g stroke-linecap="round"><g transform="translate(395.68807546048583 159.53606255692182) rotate(0 0.06681419424228352 -2.859868844235791)"><path d="M0 0 C0.02 -0.95, 0.11 -4.77, 0.13 -5.72 M0 0 C0.02 -0.95, 0.11 -4.77, 0.13 -5.72" stroke="#E1E1E1" stroke-width="2" fill="none"></path></g></g><mask></mask><g stroke-linecap="round"><g transform="translate(395.8062107024796 153.94331333701007) rotate(0 7.076909654747965 -4.8416082784295895)"><path d="M0 0 C0.03 -0.63, -0.02 -2.56, 0.18 -3.75 C0.39 -4.95, 0.75 -6.19, 1.23 -7.15 C1.72 -8.11, 2.44 -9.08, 3.12 -9.5 C3.8 -9.92, 4.44 -10.04, 5.31 -9.68 C6.17 -9.33, 7.13 -8.22, 8.29 -7.39 C9.46 -6.56, 11.32 -4.98, 12.29 -4.71 C13.27 -4.44, 13.84 -5.58, 14.15 -5.76 M0 0 C0.03 -0.63, -0.02 -2.56, 0.18 -3.75 C0.39 -4.95, 0.75 -6.19, 1.23 -7.15 C1.72 -8.11, 2.44 -9.08, 3.12 -9.5 C3.8 -9.92, 4.44 -10.04, 5.31 -9.68 C6.17 -9.33, 7.13 -8.22, 8.29 -7.39 C9.46 -6.56, 11.32 -4.98, 12.29 -4.71 C13.27 -4.44, 13.84 -5.58, 14.15 -5.76" stroke="#E1E1E1" stroke-width="2" fill="none"></path></g></g><mask></mask><g stroke-linecap="round"><g transform="translate(410.1066615769796 148.4861291488944) rotate(0 4.5040790155904915 0.2169040508736657)"><path d="M0 0 C0.16 0.14, 0.4 0.67, 0.95 0.82 C1.5 0.96, 2.42 0.79, 3.29 0.86 C4.15 0.93, 5.26 1.25, 6.14 1.25 C7.02 1.25, 8.1 1.21, 8.58 0.87 C9.06 0.53, 8.94 -0.53, 9.01 -0.81 M0 0 C0.16 0.14, 0.4 0.67, 0.95 0.82 C1.5 0.96, 2.42 0.79, 3.29 0.86 C4.15 0.93, 5.26 1.25, 6.14 1.25 C7.02 1.25, 8.1 1.21, 8.58 0.87 C9.06 0.53, 8.94 -0.53, 9.01 -0.81" stroke="#E1E1E1" stroke-width="2" fill="none"></path></g></g><mask></mask><g stroke-linecap="round"><g transform="translate(415.4172142000914 149.90015542952608) rotate(0 -1.3599385995782995 3.2719588745626993)"><path d="M0 0 C0.16 0.39, 0.87 1.5, 0.93 2.35 C1 3.2, 0.22 4.37, 0.39 5.11 C0.55 5.86, 2.11 6.59, 1.93 6.81 C1.74 7.04, 0.29 6.71, -0.71 6.44 C-1.71 6.17, -3.41 5.8, -4.07 5.21 C-4.72 4.63, -4.76 3.83, -4.65 2.91 C-4.53 2, -3.58 0.26, -3.37 -0.27 M0 0 C0.16 0.39, 0.87 1.5, 0.93 2.35 C1 3.2, 0.22 4.37, 0.39 5.11 C0.55 5.86, 2.11 6.59, 1.93 6.81 C1.74 7.04, 0.29 6.71, -0.71 6.44 C-1.71 6.17, -3.41 5.8, -4.07 5.21 C-4.72 4.63, -4.76 3.83, -4.65 2.91 C-4.53 2, -3.58 0.26, -3.37 -0.27" stroke="#E1E1E1" stroke-width="2" fill="none"></path></g></g><mask></mask><g stroke-linecap="round"><g transform="translate(406.4118228022121 148.6097976574921) rotate(0 -0.8034303108890981 0.5455800871464476)"><path d="M0 0 C-0.27 0.18, -1.34 0.91, -1.61 1.09 M0 0 C-0.27 0.18, -1.34 0.91, -1.61 1.09" stroke="#E1E1E1" stroke-width="2" fill="none"></path></g></g><mask></mask><g stroke-linecap="round"><g transform="translate(404.8481216599446 149.88244897639356) rotate(0 2.59690034888456 1.0157694168145213)"><path d="M0 0 C0.52 0.34, 2.25 1.89, 3.12 2.03 C3.99 2.17, 4.85 1.05, 5.19 0.85 M0 0 C0.52 0.34, 2.25 1.89, 3.12 2.03 C3.99 2.17, 4.85 1.05, 5.19 0.85" stroke="#E1E1E1" stroke-width="2" fill="none"></path></g></g><mask></mask><g stroke-linecap="round"><g transform="translate(410.85863250845205 149.28208954986826) rotate(0 -0.7124080752546433 0.6260891162335156)"><path d="M0 0 C-0.24 0.21, -1.19 1.04, -1.42 1.25 M0 0 C-0.24 0.21, -1.19 1.04, -1.42 1.25" stroke="#E1E1E1" stroke-width="2" fill="none"></path></g></g><mask></mask><g stroke-linecap="round"><g transform="translate(411.21940149102784 151.31418171015775) rotate(0 -0.8432698304372934 -0.3101395931496995)"><path d="M0 0 C-0.28 -0.1, -1.41 -0.52, -1.69 -0.62 M0 0 C-0.28 -0.1, -1.41 -0.52, -1.69 -0.62" stroke="#E1E1E1" stroke-width="2" fill="none"></path></g></g><mask></mask><g stroke-linecap="round"><g transform="translate(416.5908200467827 152.77939070687557) rotate(0 2.0615568049553303 1.257711499070922)"><path d="M0 0 C0.69 0.42, 3.44 2.1, 4.12 2.52 M0 0 C0.69 0.42, 3.44 2.1, 4.12 2.52" stroke="#E1E1E1" stroke-width="2" fill="none"></path></g></g><mask></mask><g stroke-linecap="round"><g transform="translate(420.848945361829 155.4361886667475) rotate(0 -1.175680821667811 0.5383868405613725)"><path d="M0 0 C-0.39 0.18, -1.96 0.9, -2.35 1.08 M0 0 C-0.39 0.18, -1.96 0.9, -2.35 1.08" stroke="#E1E1E1" stroke-width="2" fill="none"></path></g></g><mask></mask><g stroke-linecap="round"><g transform="translate(416.66994575921876 155.91287958467524) rotate(0 1.5372797942339957 0.7240279351228764)"><path d="M0 0 C0.51 0.24, 2.56 1.21, 3.07 1.45 M0 0 C0.51 0.24, 2.56 1.21, 3.07 1.45" stroke="#E1E1E1" stroke-width="2" fill="none"></path></g></g><mask></mask><g stroke-linecap="round"><g transform="translate(419.99018238490044 157.48515729017902) rotate(0 -0.14261994671608136 0.907040728047491)"><path d="M0 0 C-0.05 0.3, -0.24 1.51, -0.29 1.81 M0 0 C-0.05 0.3, -0.24 1.51, -0.29 1.81" stroke="#E1E1E1" stroke-width="2" fill="none"></path></g></g><mask></mask><g stroke-linecap="round"><g transform="translate(419.74146205105444 159.57064547319624) rotate(0 2.652648009919062 0.8950058731840045)"><path d="M0 0 C0.5 0.3, 2.12 1.65, 3 1.79 C3.89 1.93, 4.92 0.97, 5.31 0.81 M0 0 C0.5 0.3, 2.12 1.65, 3 1.79 C3.89 1.93, 4.92 0.97, 5.31 0.81" stroke="#E1E1E1" stroke-width="2" fill="none"></path></g></g><mask></mask><g stroke-linecap="round"><g transform="translate(425.13363035657403 160.57382670848688) rotate(0 2.3389117934767683 1.8482493773742021)"><path d="M0 0 C0.78 0.62, 3.9 3.08, 4.68 3.7 M0 0 C0.78 0.62, 3.9 3.08, 4.68 3.7" stroke="#E1E1E1" stroke-width="2" fill="none"></path></g></g><mask></mask><g stroke-linecap="round"><g transform="translate(424.691799018251 160.11096895706908) rotate(0 -1.8302662609114577 -2.1874386201944844)"><path d="M0 0 C-0.32 -0.26, -1.3 -0.81, -1.91 -1.53 C-2.52 -2.26, -3.37 -3.9, -3.66 -4.37 M0 0 C-0.32 -0.26, -1.3 -0.81, -1.91 -1.53 C-2.52 -2.26, -3.37 -3.9, -3.66 -4.37" stroke="#E1E1E1" stroke-width="2" fill="none"></path></g></g><mask></mask><g stroke-linecap="round"><g transform="translate(423.19892368851356 159.89351157953502) rotate(0 -0.29934972327203013 0.4172083019355455)"><path d="M0 0 C-0.27 0.03, -1.82 0.02, -1.64 0.16 C-1.47 0.3, 0.6 0.72, 1.04 0.83 M0 0 C-0.27 0.03, -1.82 0.02, -1.64 0.16 C-1.47 0.3, 0.6 0.72, 1.04 0.83" stroke="#E1E1E1" stroke-width="2" fill="none"></path></g></g><mask></mask><g stroke-linecap="round"><g transform="translate(420.7222335565991 157.4444877806402) rotate(0 0.4881724461307613 0.7857238577565795)"><path d="M0 0 C0.16 0.26, 0.81 1.31, 0.98 1.57 M0 0 C0.16 0.26, 0.81 1.31, 0.98 1.57" stroke="#E1E1E1" stroke-width="2" fill="none"></path></g></g><mask></mask><g stroke-linecap="round"><g transform="translate(407.4381839394664 150.58183892068575) rotate(0 -0.5401851522076413 -0.48001087789003805)"><path d="M0 0 C-0.01 -0.16, 0.1 -0.9, -0.08 -0.96 C-0.26 -1.02, -0.91 -0.45, -1.08 -0.34 M0 0 C-0.01 -0.16, 0.1 -0.9, -0.08 -0.96 C-0.26 -1.02, -0.91 -0.45, -1.08 -0.34" stroke="#E1E1E1" stroke-width="2" fill="none"></path></g></g><mask></mask><g stroke-linecap="round"><g transform="translate(408.3841556831794 150.40202271050157) rotate(0 0.3591090025943231 -0.27749332018657924)"><path d="M0 0 C0.12 -0.09, 0.6 -0.46, 0.72 -0.55 M0 0 C0.12 -0.09, 0.6 -0.46, 0.72 -0.55" stroke="#E1E1E1" stroke-width="2" fill="none"></path></g></g><mask></mask><g stroke-linecap="round"><g transform="translate(407.9652874012627 168.15965855913043) rotate(0 0.9910080487619553 0.6249824629127261)"><path d="M0 0 C0.33 0.21, 1.65 1.04, 1.98 1.25 M0 0 C0.33 0.21, 1.65 1.04, 1.98 1.25" stroke="#E1E1E1" stroke-width="2" fill="none"></path></g></g><mask></mask><g stroke-linecap="round"><g transform="translate(422.2336453294597 216.96058003572898) rotate(0 -3.3005935292380855 3.01078869085768)"><path d="M0 0 C0.12 0.58, 0.76 2.59, 0.73 3.5 C0.7 4.41, 0.43 5.05, -0.17 5.46 C-0.77 5.88, -1.88 5.9, -2.87 5.99 C-3.86 6.08, -5.37 6.32, -6.11 6.02 C-6.86 5.72, -7.13 4.51, -7.33 4.21 M0 0 C0.12 0.58, 0.76 2.59, 0.73 3.5 C0.7 4.41, 0.43 5.05, -0.17 5.46 C-0.77 5.88, -1.88 5.9, -2.87 5.99 C-3.86 6.08, -5.37 6.32, -6.11 6.02 C-6.86 5.72, -7.13 4.51, -7.33 4.21" stroke="#E1E1E1" stroke-width="2" fill="none"></path></g></g><mask></mask><g stroke-linecap="round"><g transform="translate(415.0265655778546 221.9770395388424) rotate(0 -7.252867532752589 -2.9997221576498987)"><path d="M0 0 C-0.82 0.11, -3.3 0.55, -4.91 0.65 C-6.53 0.75, -8.32 0.78, -9.69 0.6 C-11.05 0.42, -12.31 0.06, -13.11 -0.44 C-13.91 -0.94, -14.59 -1.84, -14.51 -2.39 C-14.42 -2.94, -13.65 -3.43, -12.61 -3.73 C-11.56 -4.03, -9.63 -3.92, -8.21 -4.17 C-6.79 -4.43, -5.16 -4.87, -4.08 -5.28 C-3 -5.69, -2.14 -6.42, -1.75 -6.65 M0 0 C-0.82 0.11, -3.3 0.55, -4.91 0.65 C-6.53 0.75, -8.32 0.78, -9.69 0.6 C-11.05 0.42, -12.31 0.06, -13.11 -0.44 C-13.91 -0.94, -14.59 -1.84, -14.51 -2.39 C-14.42 -2.94, -13.65 -3.43, -12.61 -3.73 C-11.56 -4.03, -9.63 -3.92, -8.21 -4.17 C-6.79 -4.43, -5.16 -4.87, -4.08 -5.28 C-3 -5.69, -2.14 -6.42, -1.75 -6.65" stroke="#E1E1E1" stroke-width="2" fill="none"></path></g></g><mask></mask><g stroke-linecap="round"><g transform="translate(428.3959444525324 162.72831643517668) rotate(0 -0.7464377338928898 -2.153826366490023)"><path d="M0 0 C-0.1 -0.72, -0.36 -4.16, -0.61 -4.31 C-0.86 -4.46, -1.35 -1.47, -1.49 -0.91 M0 0 C-0.1 -0.72, -0.36 -4.16, -0.61 -4.31 C-0.86 -4.46, -1.35 -1.47, -1.49 -0.91" stroke="#E1E1E1" stroke-width="2" fill="none"></path></g></g><mask></mask><g stroke-linecap="round"><g transform="translate(411.74623611042216 146.79649356391417) rotate(0 1.065781199736307 1.279073402840993)"><path d="M0 0 C-0.03 0.28, -0.54 1.28, -0.16 1.71 C0.22 2.13, 1.88 2.42, 2.29 2.56 M0 0 C-0.03 0.28, -0.54 1.28, -0.16 1.71 C0.22 2.13, 1.88 2.42, 2.29 2.56" stroke="#E1E1E1" stroke-width="2" fill="none"></path></g></g><mask></mask><g stroke-linecap="round"><g transform="translate(440.6756325789461 137.33584091104058) rotate(0 0.30670341128632117 17.631039394256447)"><path d="M0 0 C0.12 0.65, 0.8 2.54, 0.72 3.89 C0.65 5.23, -0.13 7.02, -0.47 8.07 C-0.8 9.12, -1.2 9.39, -1.3 10.18 C-1.41 10.97, -1.23 11.59, -1.09 12.82 C-0.95 14.05, -0.7 15.81, -0.45 17.58 C-0.21 19.35, 0.13 21.53, 0.38 23.43 C0.63 25.32, 0.77 26.98, 1.03 28.95 C1.28 30.92, 1.77 34.21, 1.91 35.26 M0 0 C0.12 0.65, 0.8 2.54, 0.72 3.89 C0.65 5.23, -0.13 7.02, -0.47 8.07 C-0.8 9.12, -1.2 9.39, -1.3 10.18 C-1.41 10.97, -1.23 11.59, -1.09 12.82 C-0.95 14.05, -0.7 15.81, -0.45 17.58 C-0.21 19.35, 0.13 21.53, 0.38 23.43 C0.63 25.32, 0.77 26.98, 1.03 28.95 C1.28 30.92, 1.77 34.21, 1.91 35.26" stroke="#E1E1E1" stroke-width="2" fill="none"></path></g></g><mask></mask><g stroke-linecap="round"><g transform="translate(427.3486707943466 92.07319745250459) rotate(0 4.315571764926744 -1.3261806822262088)"><path d="M0 0 C0.51 -0.26, 2.06 -1.16, 3.05 -1.54 C4.04 -1.93, 4.99 -2.12, 5.92 -2.3 C6.85 -2.49, 8.18 -2.59, 8.63 -2.65 M0 0 C0.51 -0.26, 2.06 -1.16, 3.05 -1.54 C4.04 -1.93, 4.99 -2.12, 5.92 -2.3 C6.85 -2.49, 8.18 -2.59, 8.63 -2.65" stroke="#E1E1E1" stroke-width="2" fill="none"></path></g></g><mask></mask><g stroke-linecap="round"><g transform="translate(299.51771686622624 176.06412752882636) rotate(0 13.837005264224786 54.46514052229338)"><path d="M0 0 C1.89 7.65, 8.23 33.37, 11.35 45.91 C14.47 58.45, 16.69 67.45, 18.72 75.24 C20.75 83.03, 22.04 87.04, 23.53 92.66 C25.02 98.27, 26.98 106.22, 27.67 108.93 M0 0 C1.89 7.65, 8.23 33.37, 11.35 45.91 C14.47 58.45, 16.69 67.45, 18.72 75.24 C20.75 83.03, 22.04 87.04, 23.53 92.66 C25.02 98.27, 26.98 106.22, 27.67 108.93" stroke="#E1E1E1" stroke-width="2" fill="none"></path></g></g><mask></mask><g stroke-linecap="round"><g transform="translate(327.1991225485922 285.49593446628614) rotate(0 -4.878952796316867 1.7921483229573028)"><path d="M0 0 C-1.63 0.6, -8.13 2.99, -9.76 3.58 M0 0 C-1.63 0.6, -8.13 2.99, -9.76 3.58" stroke="#E1E1E1" stroke-width="2" fill="none"></path></g></g><mask></mask><g stroke-linecap="round"><g transform="translate(316.8791852583154 288.9706483768946) rotate(0 -13.376320789571537 -52.22239202547803)"><path d="M0 0 C-1.79 -7.02, -6.81 -26.56, -10.75 -42.12 C-14.68 -57.69, -20.94 -82.99, -23.61 -93.38 C-26.28 -103.77, -26.23 -102.6, -26.75 -104.44 M0 0 C-1.79 -7.02, -6.81 -26.56, -10.75 -42.12 C-14.68 -57.69, -20.94 -82.99, -23.61 -93.38 C-26.28 -103.77, -26.23 -102.6, -26.75 -104.44" stroke="#E1E1E1" stroke-width="2" fill="none"></path></g></g><mask></mask><g stroke-linecap="round"><g transform="translate(317.04019792767576 289.0987189969917) rotate(0 -13.564056856039088 -2.431492993362383)"><path d="M0 0 C-4.52 -0.81, -22.61 -4.05, -27.13 -4.86 M0 0 C-4.52 -0.81, -22.61 -4.05, -27.13 -4.86" stroke="#E1E1E1" stroke-width="2" fill="none"></path></g></g><mask></mask><g stroke-linecap="round"><g transform="translate(282.5955878454415 299.1591536134765) rotate(0 75.65820719441729 14.364513508321636)"><path d="M0 0 C25.22 4.79, 126.1 23.94, 151.32 28.73 M0 0 C25.22 4.79, 126.1 23.94, 151.32 28.73" stroke="#E1E1E1" stroke-width="1" fill="none"></path></g></g><mask></mask><g stroke-linecap="round"><g transform="translate(327.02903400851596 284.08951064873895) rotate(0 100.61885466982415 9.00356158184087)"><path d="M0 0 C33.54 3, 167.7 15.01, 201.24 18.01 M0 0 C33.54 3, 167.7 15.01, 201.24 18.01" stroke="#E1E1E1" stroke-width="1" fill="none"></path></g></g><mask></mask><g stroke-linecap="round"><g transform="translate(141.3484841863724 275.4321384162031) rotate(0 70.87078527069286 12.031747350233843)"><path d="M0 0 C23.62 4.01, 118.12 20.05, 141.74 24.06 M0 0 C23.62 4.01, 118.12 20.05, 141.74 24.06" stroke="#E1E1E1" stroke-width="1" fill="none"></path></g></g><mask></mask><g stroke-linecap="round"><g transform="translate(195.7882458849981 265.43758789824597) rotate(0 12.28116572323097 1.810636207748189)"><path d="M0 0 C4.09 0.6, 20.47 3.02, 24.56 3.62 M0 0 C4.09 0.6, 20.47 3.02, 24.56 3.62" stroke="#E1E1E1" stroke-width="1" fill="none"></path></g></g><mask></mask><g stroke-linecap="round"><g transform="translate(435.1889138962031 29.671706295031754) rotate(0 -3.5149839842523534 -1.2275215380975624)"><path d="M0 0 C-0.17 -0.34, -0.47 -1.66, -1.01 -2.05 C-1.55 -2.44, -2.24 -2.29, -3.24 -2.36 C-4.25 -2.43, -6.4 -2.44, -7.03 -2.46 M0 0 C-0.17 -0.34, -0.47 -1.66, -1.01 -2.05 C-1.55 -2.44, -2.24 -2.29, -3.24 -2.36 C-4.25 -2.43, -6.4 -2.44, -7.03 -2.46" stroke="#E1E1E1" stroke-width="2" fill="none"></path></g></g><mask></mask><g stroke-linecap="round"><g transform="translate(428.0868625797689 27.141949091785705) rotate(0 -1.1685920857756855 1.5211164880582828)"><path d="M0 0 C-0.39 0.51, -1.95 2.54, -2.34 3.04 M0 0 C-0.39 0.51, -1.95 2.54, -2.34 3.04" stroke="#E1E1E1" stroke-width="2" fill="none"></path></g></g><mask></mask><g stroke-linecap="round"><g transform="translate(425.7544138106364 30.178920509659292) rotate(0 1.0417885321187441 0.44197089241401954)"><path d="M0 0 C0.35 0.15, 1.74 0.74, 2.08 0.88 M0 0 C0.35 0.15, 1.74 0.74, 2.08 0.88" stroke="#E1E1E1" stroke-width="2" fill="none"></path></g></g><mask></mask><g stroke-linecap="round"><g transform="translate(425.49028358683654 30.67876854274664) rotate(0 1.1388642817025811 0.2375593546725554)"><path d="M0 0 C0.38 0.08, 1.9 0.4, 2.28 0.48 M0 0 C0.38 0.08, 1.9 0.4, 2.28 0.48" stroke="#E1E1E1" stroke-width="2" fill="none"></path></g></g><mask></mask><g stroke-linecap="round" transform="translate(242.24914240147586 169.91236019500207) rotate(0 3.9259860409309795 3.9259860409309795)"><path d="M7.85 3.93 C7.85 4.15, 7.83 4.38, 7.79 4.61 C7.75 4.83, 7.69 5.06, 7.62 5.27 C7.54 5.48, 7.44 5.69, 7.33 5.89 C7.21 6.09, 7.08 6.28, 6.93 6.45 C6.79 6.62, 6.62 6.79, 6.45 6.93 C6.28 7.08, 6.09 7.21, 5.89 7.33 C5.69 7.44, 5.48 7.54, 5.27 7.62 C5.06 7.69, 4.83 7.75, 4.61 7.79 C4.38 7.83, 4.15 7.85, 3.93 7.85 C3.7 7.85, 3.47 7.83, 3.24 7.79 C3.02 7.75, 2.8 7.69, 2.58 7.62 C2.37 7.54, 2.16 7.44, 1.96 7.33 C1.77 7.21, 1.58 7.08, 1.4 6.93 C1.23 6.79, 1.06 6.62, 0.92 6.45 C0.77 6.28, 0.64 6.09, 0.53 5.89 C0.41 5.69, 0.31 5.48, 0.24 5.27 C0.16 5.06, 0.1 4.83, 0.06 4.61 C0.02 4.38, 0 4.15, 0 3.93 C0 3.7, 0.02 3.47, 0.06 3.24 C0.1 3.02, 0.16 2.8, 0.24 2.58 C0.31 2.37, 0.41 2.16, 0.53 1.96 C0.64 1.77, 0.77 1.58, 0.92 1.4 C1.06 1.23, 1.23 1.06, 1.4 0.92 C1.58 0.77, 1.77 0.64, 1.96 0.53 C2.16 0.41, 2.37 0.31, 2.58 0.24 C2.8 0.16, 3.02 0.1, 3.24 0.06 C3.47 0.02, 3.7 0, 3.93 0 C4.15 0, 4.38 0.02, 4.61 0.06 C4.83 0.1, 5.06 0.16, 5.27 0.24 C5.48 0.31, 5.69 0.41, 5.89 0.53 C6.09 0.64, 6.28 0.77, 6.45 0.92 C6.62 1.06, 6.79 1.23, 6.93 1.4 C7.08 1.58, 7.21 1.77, 7.33 1.96 C7.44 2.16, 7.54 2.37, 7.62 2.58 C7.69 2.8, 7.75 3.02, 7.79 3.24 C7.83 3.47, 7.84 3.81, 7.85 3.93 C7.86 4.04, 7.86 3.81, 7.85 3.93" stroke="#E1E1E1" stroke-width="2" fill="none"></path></g><g stroke-linecap="round" transform="translate(245.2106646231432 172.70493387503427) rotate(0 0.9916373609253242 0.9916373609253242)"><path d="M1.98 0.99 C1.98 1.05, 1.98 1.11, 1.97 1.16 C1.96 1.22, 1.94 1.28, 1.92 1.33 C1.9 1.38, 1.88 1.44, 1.85 1.49 C1.82 1.54, 1.79 1.59, 1.75 1.63 C1.71 1.67, 1.67 1.71, 1.63 1.75 C1.59 1.79, 1.54 1.82, 1.49 1.85 C1.44 1.88, 1.38 1.9, 1.33 1.92 C1.28 1.94, 1.22 1.96, 1.16 1.97 C1.11 1.98, 1.05 1.98, 0.99 1.98 C0.93 1.98, 0.88 1.98, 0.82 1.97 C0.76 1.96, 0.71 1.94, 0.65 1.92 C0.6 1.9, 0.55 1.88, 0.5 1.85 C0.45 1.82, 0.4 1.79, 0.35 1.75 C0.31 1.71, 0.27 1.67, 0.23 1.63 C0.2 1.59, 0.16 1.54, 0.13 1.49 C0.1 1.44, 0.08 1.38, 0.06 1.33 C0.04 1.28, 0.03 1.22, 0.02 1.16 C0.01 1.11, 0 1.05, 0 0.99 C0 0.93, 0.01 0.88, 0.02 0.82 C0.03 0.76, 0.04 0.71, 0.06 0.65 C0.08 0.6, 0.1 0.55, 0.13 0.5 C0.16 0.45, 0.2 0.4, 0.23 0.35 C0.27 0.31, 0.31 0.27, 0.35 0.23 C0.4 0.2, 0.45 0.16, 0.5 0.13 C0.55 0.1, 0.6 0.08, 0.65 0.06 C0.71 0.04, 0.76 0.03, 0.82 0.02 C0.88 0.01, 0.93 0, 0.99 0 C1.05 0, 1.11 0.01, 1.16 0.02 C1.22 0.03, 1.28 0.04, 1.33 0.06 C1.38 0.08, 1.44 0.1, 1.49 0.13 C1.54 0.16, 1.59 0.2, 1.63 0.23 C1.67 0.27, 1.71 0.31, 1.75 0.35 C1.79 0.4, 1.82 0.45, 1.85 0.5 C1.88 0.55, 1.9 0.6, 1.92 0.65 C1.94 0.71, 1.96 0.76, 1.97 0.82 C1.98 0.88, 1.98 0.96, 1.98 0.99 C1.99 1.02, 1.99 0.96, 1.98 0.99" stroke="#E1E1E1" stroke-width="2" fill="none"></path></g></svg>