<svg version="1.1" xmlns="http://www.w3.org/2000/svg" viewBox="0 0 215.40792052999313 876.6749010458285" width="215.40792052999313" height="876.6749010458285" class="excalidraw-svg"><!-- svg-source:excalidraw --><metadata></metadata><defs><style class="style-fonts">
      </style></defs><rect x="0" y="0" width="215.40792052999313" height="876.6749010458285" fill="#000000"></rect><g stroke-linecap="round"><g transform="translate(10 10.748064948098772) rotate(0 97.70396026499657 427.5893855748155)"><path d="M0 0 C22.17 -0.16, 44.33 -0.32, 102.69 -0.75 M0 0 C21.38 -0.16, 42.77 -0.31, 102.69 -0.75 M102.69 -0.75 C103.15 257.87, 103.61 516.5, 104.21 855.93 M102.69 -0.75 C103.06 206.59, 103.42 413.92, 104.21 855.93 M104.21 855.93 C78.42 855.93, 52.62 855.93, 11.28 855.93 M104.21 855.93 C74.27 855.93, 44.33 855.93, 11.28 855.93 M11.28 855.93 C45.68 855.84, 80.08 855.75, 104.44 855.68 M11.28 855.93 C34.62 855.87, 57.95 855.8, 104.44 855.68 M104.44 855.68 C104.24 724.67, 104.04 593.66, 103.76 414.67 M104.44 855.68 C104.28 752.06, 104.12 648.43, 103.76 414.67 M103.76 414.67 C128.95 414.87, 154.14 415.07, 195.41 415.39 M103.76 414.67 C130.32 414.88, 156.89 415.09, 195.41 415.39" stroke="#E1E1E1" stroke-width="2" fill="none"></path></g></g><mask></mask></svg>