<svg version="1.1" xmlns="http://www.w3.org/2000/svg" viewBox="0 0 397.96701683298943 387.20516600801557" width="397.96701683298943" height="387.20516600801557" class="excalidraw-svg">
  <!-- svg-source:excalidraw -->
  
  <defs>
    <style class="style-fonts">
      @font-face {
        font-family: "Virgil";
        src: url("https://excalidraw.com/Virgil.woff2");
      }
      @font-face {
        font-family: "Cascadia";
        src: url("https://excalidraw.com/Cascadia.woff2");
      }
      @font-face {
        font-family: "Assistant";
        src: url("https://excalidraw.com/Assistant-Regular.woff2");
      }
    </style>
    
  </defs>
  <rect x="0" y="0" width="397.96701683298943" height="387.20516600801557" fill="#000000"/><g stroke-linecap="round" transform="translate(36.80940738892582 67.96845118939223) rotate(0 25.61870045651139 154.48425887174267)"><path d="M12.81 0 C18.24 0, 23.67 0, 38.43 0 M12.81 0 C21.14 0, 29.47 0, 38.43 0 M38.43 0 C46.97 0, 51.24 4.27, 51.24 12.81 M38.43 0 C46.97 0, 51.24 4.27, 51.24 12.81 M51.24 12.81 C51.24 103.89, 51.24 194.98, 51.24 296.16 M51.24 12.81 C51.24 125.33, 51.24 237.85, 51.24 296.16 M51.24 296.16 C51.24 304.7, 46.97 308.97, 38.43 308.97 M51.24 296.16 C51.24 304.7, 46.97 308.97, 38.43 308.97 M38.43 308.97 C28.41 308.97, 18.38 308.97, 12.81 308.97 M38.43 308.97 C30.62 308.97, 22.82 308.97, 12.81 308.97 M12.81 308.97 C4.27 308.97, 0 304.7, 0 296.16 M12.81 308.97 C4.27 308.97, 0 304.7, 0 296.16 M0 296.16 C0 198.13, 0 100.1, 0 12.81 M0 296.16 C0 219.6, 0 143.05, 0 12.81 M0 12.81 C0 4.27, 4.27 0, 12.81 0 M0 12.81 C0 4.27, 4.27 0, 12.81 0" stroke="#E1E1E1" stroke-width="4" fill="none"/></g><g stroke-linecap="round" transform="translate(108.03680222362505 177.848210314972) rotate(0 25.61870045651139 98.79318955824203)"><path d="M12.81 0 C20.82 0, 28.84 0, 38.43 0 M12.81 0 C20.03 0, 27.25 0, 38.43 0 M38.43 0 C46.97 0, 51.24 4.27, 51.24 12.81 M38.43 0 C46.97 0, 51.24 4.27, 51.24 12.81 M51.24 12.81 C51.24 69.62, 51.24 126.43, 51.24 184.78 M51.24 12.81 C51.24 71.11, 51.24 129.42, 51.24 184.78 M51.24 184.78 C51.24 193.32, 46.97 197.59, 38.43 197.59 M51.24 184.78 C51.24 193.32, 46.97 197.59, 38.43 197.59 M38.43 197.59 C32.6 197.59, 26.78 197.59, 12.81 197.59 M38.43 197.59 C32.56 197.59, 26.7 197.59, 12.81 197.59 M12.81 197.59 C4.27 197.59, 0 193.32, 0 184.78 M12.81 197.59 C4.27 197.59, 0 193.32, 0 184.78 M0 184.78 C0 138.99, 0 93.2, 0 12.81 M0 184.78 C0 128.04, 0 71.31, 0 12.81 M0 12.81 C0 4.27, 4.27 0, 12.81 0 M0 12.81 C0 4.27, 4.27 0, 12.81 0" stroke="#E1E1E1" stroke-width="4" fill="none"/></g><g stroke-linecap="round" transform="translate(176.11076508398833 217.44524747961736) rotate(0 25.61870045651139 79.87995926419909)"><path d="M12.81 0 C22.74 0, 32.67 0, 38.43 0 M12.81 0 C22.06 0, 31.31 0, 38.43 0 M38.43 0 C46.97 0, 51.24 4.27, 51.24 12.81 M38.43 0 C46.97 0, 51.24 4.27, 51.24 12.81 M51.24 12.81 C51.24 53.93, 51.24 95.05, 51.24 146.95 M51.24 12.81 C51.24 64.31, 51.24 115.81, 51.24 146.95 M51.24 146.95 C51.24 155.49, 46.97 159.76, 38.43 159.76 M51.24 146.95 C51.24 155.49, 46.97 159.76, 38.43 159.76 M38.43 159.76 C28.5 159.76, 18.57 159.76, 12.81 159.76 M38.43 159.76 C29.35 159.76, 20.28 159.76, 12.81 159.76 M12.81 159.76 C4.27 159.76, 0 155.49, 0 146.95 M12.81 159.76 C4.27 159.76, 0 155.49, 0 146.95 M0 146.95 C0 117.59, 0 88.23, 0 12.81 M0 146.95 C0 117.63, 0 88.3, 0 12.81 M0 12.81 C0 4.27, 4.27 0, 12.81 0 M0 12.81 C0 4.27, 4.27 0, 12.81 0" stroke="#E1E1E1" stroke-width="4" fill="none"/></g><g stroke-linecap="round" transform="translate(242.92137837672158 172.66039035942708) rotate(0 25.61870045651139 102.11272806234172)"><path d="M12.81 0 C21.11 0, 29.42 0, 38.43 0 M12.81 0 C19.76 0, 26.7 0, 38.43 0 M38.43 0 C46.97 0, 51.24 4.27, 51.24 12.81 M38.43 0 C46.97 0, 51.24 4.27, 51.24 12.81 M51.24 12.81 C51.24 62.57, 51.24 112.34, 51.24 191.42 M51.24 12.81 C51.24 74.05, 51.24 135.28, 51.24 191.42 M51.24 191.42 C51.24 199.96, 46.97 204.23, 38.43 204.23 M51.24 191.42 C51.24 199.96, 46.97 204.23, 38.43 204.23 M38.43 204.23 C33.19 204.23, 27.96 204.23, 12.81 204.23 M38.43 204.23 C32.49 204.23, 26.56 204.23, 12.81 204.23 M12.81 204.23 C4.27 204.23, 0 199.96, 0 191.42 M12.81 204.23 C4.27 204.23, 0 199.96, 0 191.42 M0 191.42 C0 155.36, 0 119.3, 0 12.81 M0 191.42 C0 144.04, 0 96.65, 0 12.81 M0 12.81 C0 4.27, 4.27 0, 12.81 0 M0 12.81 C0 4.27, 4.27 0, 12.81 0" stroke="#E1E1E1" stroke-width="4" fill="none"/></g><g stroke-linecap="round" transform="translate(310.4758642731488 67.62098972309309) rotate(0 25.61870045651139 154.48425887174267)"><path d="M12.81 0 C22.62 0, 32.42 0, 38.43 0 M12.81 0 C19.95 0, 27.09 0, 38.43 0 M38.43 0 C46.97 0, 51.24 4.27, 51.24 12.81 M38.43 0 C46.97 0, 51.24 4.27, 51.24 12.81 M51.24 12.81 C51.24 107.92, 51.24 203.04, 51.24 296.16 M51.24 12.81 C51.24 97.12, 51.24 181.44, 51.24 296.16 M51.24 296.16 C51.24 304.7, 46.97 308.97, 38.43 308.97 M51.24 296.16 C51.24 304.7, 46.97 308.97, 38.43 308.97 M38.43 308.97 C29.27 308.97, 20.12 308.97, 12.81 308.97 M38.43 308.97 C28.29 308.97, 18.14 308.97, 12.81 308.97 M12.81 308.97 C4.27 308.97, 0 304.7, 0 296.16 M12.81 308.97 C4.27 308.97, 0 304.7, 0 296.16 M0 296.16 C0 225.61, 0 155.05, 0 12.81 M0 296.16 C0 212.66, 0 129.16, 0 12.81 M0 12.81 C0 4.27, 4.27 0, 12.81 0 M0 12.81 C0 4.27, 4.27 0, 12.81 0" stroke="#E1E1E1" stroke-width="4" fill="none"/></g><g stroke-linecap="round" transform="translate(10 350.3052513314635) rotate(0 188.98350841649471 12.888058493499955)"><path d="M6.44 0 C146.52 0, 286.59 0, 371.52 0 C375.82 0, 377.97 2.15, 377.97 6.44 C377.97 9.32, 377.97 12.21, 377.97 19.33 C377.97 23.63, 375.82 25.78, 371.52 25.78 C271.81 25.78, 172.1 25.78, 6.44 25.78 C2.15 25.78, 0 23.63, 0 19.33 C0 15.1, 0 10.88, 0 6.44 C0 2.15, 2.15 0, 6.44 0" stroke="none" stroke-width="0" fill="#E1E1E1"/><path d="M6.44 0 C101.32 0, 196.19 0, 371.52 0 M6.44 0 C132.75 0, 259.05 0, 371.52 0 M371.52 0 C375.82 0, 377.97 2.15, 377.97 6.44 M371.52 0 C375.82 0, 377.97 2.15, 377.97 6.44 M377.97 6.44 C377.97 10.18, 377.97 13.92, 377.97 19.33 M377.97 6.44 C377.97 10.8, 377.97 15.16, 377.97 19.33 M377.97 19.33 C377.97 23.63, 375.82 25.78, 371.52 25.78 M377.97 19.33 C377.97 23.63, 375.82 25.78, 371.52 25.78 M371.52 25.78 C248.29 25.78, 125.05 25.78, 6.44 25.78 M371.52 25.78 C261.24 25.78, 150.96 25.78, 6.44 25.78 M6.44 25.78 C2.15 25.78, 0 23.63, 0 19.33 M6.44 25.78 C2.15 25.78, 0 23.63, 0 19.33 M0 19.33 C0 15.57, 0 11.81, 0 6.44 M0 19.33 C0 14.63, 0 9.93, 0 6.44 M0 6.44 C0 2.15, 2.15 0, 6.44 0 M0 6.44 C0 2.15, 2.15 0, 6.44 0" stroke="#E1E1E1" stroke-width="4" fill="none"/></g><g stroke-linecap="round"><g transform="translate(19.243053030369083 10.963222598358016) rotate(0 182.0209277395921 81.75659265938208)"><path d="M0 0 C5.77 0, 24.31 -2.17, 34.62 0.01 C44.93 2.19, 52.45 5.18, 61.88 13.09 C71.31 21.01, 83.01 34.27, 91.19 47.52 C99.37 60.76, 102.37 76.68, 110.97 92.57 C119.57 108.46, 131.72 131.04, 142.79 142.86 C153.85 154.69, 166.88 160.95, 177.38 163.51 C187.88 166.07, 196.52 163.91, 205.77 158.21 C215.02 152.51, 222.56 145.65, 232.88 129.32 C243.2 112.99, 256.97 78.31, 267.69 60.24 C278.41 42.16, 287.77 30.53, 297.19 20.87 C306.61 11.21, 313.07 5.66, 324.21 2.29 C335.35 -1.08, 357.4 0.94, 364.04 0.67 M0 0 C5.77 0, 24.31 -2.17, 34.62 0.01 C44.93 2.19, 52.45 5.18, 61.88 13.09 C71.31 21.01, 83.01 34.27, 91.19 47.52 C99.37 60.76, 102.37 76.68, 110.97 92.57 C119.57 108.46, 131.72 131.04, 142.79 142.86 C153.85 154.69, 166.88 160.95, 177.38 163.51 C187.88 166.07, 196.52 163.91, 205.77 158.21 C215.02 152.51, 222.56 145.65, 232.88 129.32 C243.2 112.99, 256.97 78.31, 267.69 60.24 C278.41 42.16, 287.77 30.53, 297.19 20.87 C306.61 11.21, 313.07 5.66, 324.21 2.29 C335.35 -1.08, 357.4 0.94, 364.04 0.67" stroke="#E1E1E1" stroke-width="4" fill="none"/></g></g><mask/><g stroke-linecap="round"><g transform="translate(14.609987123136534 91.90917296637713) rotate(0 184.36342432531603 0)"><path d="M0 0 C61.45 0, 307.27 0, 368.73 0" stroke="#B04AC9" stroke-width="4.5" fill="none" stroke-dasharray="1.5 10"/></g></g><mask/></svg>