<svg version="1.1" xmlns="http://www.w3.org/2000/svg" viewBox="0 0 286.3613198342541 352.2903196838997" width="286.3613198342541" height="352.2903196838997" class="excalidraw-svg"><!-- svg-source:excalidraw --><metadata></metadata><defs><style class="style-fonts">
      </style></defs><rect x="0" y="0" width="286.3613198342541" height="352.2903196838997" fill="#000000"></rect><g stroke-linecap="round"><g transform="translate(143.2986997508571 20.012575376126733) rotate(0 -0.126568723450319 70.38005681691311)"><path d="M0 0 C-21.98 5.27, -43.97 10.55, -87.7 21.04 M0 0 C-21.22 5.09, -42.45 10.18, -87.7 21.04 M-87.7 21.04 C-100 38.12, -112.3 55.19, -123.01 70.06 M-87.7 21.04 C-94.9 31.04, -102.1 41.03, -123.01 70.06 M-123.01 70.06 C-110.73 87.28, -98.45 104.49, -87.79 119.44 M-123.01 70.06 C-110.64 87.41, -98.27 104.75, -87.79 119.44 M-87.79 119.44 C-69.69 123.84, -51.6 128.23, 0.04 140.76 M-87.79 119.44 C-54.33 127.56, -20.88 135.68, 0.04 140.76 M0.04 140.76 C30.47 133.41, 60.9 126.07, 87.72 119.59 M0.04 140.76 C32.31 132.97, 64.58 125.18, 87.72 119.59 M87.72 119.59 C100.69 101.34, 113.65 83.1, 122.76 70.28 M87.72 119.59 C97.03 106.48, 106.35 93.38, 122.76 70.28 M122.76 70.28 C110.58 53.26, 98.4 36.24, 87.48 20.98 M122.76 70.28 C115.51 60.14, 108.25 50.01, 87.48 20.98 M87.48 20.98 C59.95 14.38, 32.43 7.78, 0 0 M87.48 20.98 C52.76 12.65, 18.03 4.32, 0 0" stroke="#E1E1E1" stroke-width="2" fill="none"></path></g></g><mask></mask><g stroke-linecap="round"><g transform="translate(143.31951024177482 10) rotate(0 -0.1388503246477626 166.14515984194986)"><path d="M0 0 C-31.75 7.5, -63.5 15.01, -93.18 22.02 M0 0 C-29.84 7.05, -59.69 14.11, -93.18 22.02 M-93.18 22.02 C-101.86 34.07, -110.53 46.11, -133.22 77.63 M-93.18 22.02 C-108.87 43.81, -124.56 65.6, -133.22 77.63 M-133.22 77.63 C-133.22 87.89, -133.22 98.15, -133.22 128.13 M-133.22 77.63 C-133.22 94.6, -133.22 111.56, -133.22 128.13 M-133.22 128.13 C-131.6 130.25, -129.98 132.37, -128.44 134.38 M-133.22 128.13 C-132.19 129.48, -131.16 130.82, -128.44 134.38 M-128.44 134.38 C-129.59 135.87, -130.74 137.36, -133.32 140.69 M-128.44 134.38 C-130.25 136.72, -132.06 139.05, -133.32 140.69 M-133.32 140.69 C-133.3 159.73, -133.28 178.78, -133.27 191.37 M-133.32 140.69 C-133.3 156.93, -133.29 173.16, -133.27 191.37 M-133.27 191.37 C-132.25 192.74, -131.23 194.11, -128.48 197.8 M-133.27 191.37 C-132.02 193.05, -130.76 194.74, -128.48 197.8 M-128.48 197.8 C-129.73 199.5, -130.98 201.19, -133.03 203.97 M-128.48 197.8 C-130.17 200.09, -131.85 202.37, -133.03 203.97 M-133.03 203.97 C-133.07 217.15, -133.11 230.33, -133.18 254.74 M-133.03 203.97 C-133.07 219.15, -133.12 234.34, -133.18 254.74 M-133.18 254.74 C-119.86 273.31, -106.54 291.87, -93.63 309.86 M-133.18 254.74 C-122.14 270.12, -111.11 285.5, -93.63 309.86 M-93.63 309.86 C-70.29 315.44, -46.96 321.03, 0.13 332.29 M-93.63 309.86 C-73.02 314.79, -52.41 319.72, 0.13 332.29 M0.13 332.29 C19.59 327.67, 39.05 323.05, 92.86 310.28 M0.13 332.29 C19.52 327.69, 38.91 323.08, 92.86 310.28 M92.86 310.28 C101.12 298.83, 109.37 287.39, 133.03 254.58 M92.86 310.28 C101.4 298.44, 109.94 286.6, 133.03 254.58 M133.03 254.58 C132.98 239.73, 132.94 224.87, 132.88 203.98 M133.03 254.58 C132.97 235.65, 132.92 216.72, 132.88 203.98 M132.88 203.98 C131.44 202.11, 130.01 200.24, 128.16 197.82 M132.88 203.98 C131.39 202.03, 129.9 200.09, 128.16 197.82 M128.16 197.82 C129.77 195.58, 131.39 193.35, 132.95 191.19 M128.16 197.82 C129.29 196.24, 130.43 194.67, 132.95 191.19 M132.95 191.19 C132.95 177.72, 132.95 164.25, 132.95 140.81 M132.95 191.19 C132.95 180.25, 132.95 169.31, 132.95 140.81 M132.95 140.81 C131.82 139.27, 130.69 137.74, 128.24 134.4 M132.95 140.81 C131.48 138.81, 130.01 136.81, 128.24 134.4 M128.24 134.4 C130.02 132.02, 131.8 129.63, 133.04 127.98 M128.24 134.4 C129.47 132.76, 130.7 131.12, 133.04 127.98 M133.04 127.98 C133.03 115.32, 133.02 102.67, 132.99 77.46 M133.04 127.98 C133.02 109.74, 133.01 91.5, 132.99 77.46 M132.99 77.46 C123.44 64.31, 113.89 51.16, 93.01 22.42 M132.99 77.46 C124.23 65.4, 115.48 53.34, 93.01 22.42 M93.01 22.42 C58.69 14.15, 24.38 5.88, 0 0 M93.01 22.42 C55.96 13.49, 18.91 4.56, 0 0" stroke="#E1E1E1" stroke-width="2" fill="none"></path></g></g><mask></mask><g stroke-linecap="round"><g transform="translate(99.47207908127643 61.521984951779814) rotate(0 44.50299317128621 28.782292909044827)"><path d="M0 0 C12.97 -3.02, 25.94 -6.04, 43.68 -10.17 M0 0 C9 -2.1, 18 -4.19, 43.68 -10.17 M43.68 -10.17 C60.65 -6.13, 77.61 -2.09, 90.14 0.89 M43.68 -10.17 C61.98 -5.81, 80.28 -1.46, 90.14 0.89 M90.14 0.89 C94.22 6.57, 98.3 12.24, 110.09 28.62 M90.14 0.89 C96.75 10.08, 103.35 19.26, 110.09 28.62 M110.09 28.62 C103.98 37.18, 97.87 45.74, 90.11 56.61 M110.09 28.62 C103.08 38.44, 96.08 48.26, 90.11 56.61 M90.11 56.61 C74.52 60.34, 58.92 64.07, 43.93 67.64 M90.11 56.61 C73.62 60.55, 57.13 64.49, 43.93 67.64 M43.93 67.64 C32.41 64.92, 20.89 62.19, -2.65 56.62 M43.93 67.64 C28.71 64.04, 13.48 60.44, -2.65 56.62 M-2.65 56.62 C-9.44 47.26, -16.23 37.9, -21.52 30.6 M-2.65 56.62 C-6.58 51.2, -10.51 45.79, -21.52 30.6 M-21.52 30.6 C-25.82 30.6, -30.11 30.6, -36.97 30.6 M-21.52 30.6 C-24.94 30.6, -28.36 30.6, -36.97 30.6 M-36.97 30.6 C-28.39 42.58, -19.81 54.55, -14.62 61.81 M-36.97 30.6 C-28.95 41.79, -20.94 52.98, -14.62 61.81 M-14.62 61.81 C5.04 66.52, 24.7 71.22, 43.85 75.81 M-14.62 61.81 C1.96 65.78, 18.54 69.75, 43.85 75.81 M43.85 75.81 C65.66 70.57, 87.48 65.34, 102.31 61.78 M43.85 75.81 C57.43 72.55, 71.02 69.29, 102.31 61.78 M102.31 61.78 C107.28 54.85, 112.26 47.93, 125.97 28.82 M102.31 61.78 C109.71 51.47, 117.11 41.17, 125.97 28.82 M125.97 28.82 C117.78 17.51, 109.58 6.2, 101.95 -4.34 M125.97 28.82 C121.07 22.05, 116.17 15.29, 101.95 -4.34 M101.95 -4.34 C82.28 -9.04, 62.6 -13.74, 43.75 -18.24 M101.95 -4.34 C86.94 -7.92, 71.94 -11.51, 43.75 -18.24 M43.75 -18.24 C25.89 -14, 8.03 -9.75, -7.13 -6.15 M43.75 -18.24 C23.52 -13.44, 3.3 -8.63, -7.13 -6.15" stroke="#E1E1E1" stroke-width="2" fill="none"></path></g></g><mask></mask><g stroke-linecap="round"><g transform="translate(89.78111368342374 52.37081438230416) rotate(0 53.949093625044796 37.92120477917388)"><path d="M0 0 C15.62 -3.77, 31.25 -7.55, 53.46 -12.91 M0 0 C16.93 -4.09, 33.87 -8.18, 53.46 -12.91 M53.46 -12.91 C67.22 -9.62, 80.97 -6.32, 114.27 1.65 M53.46 -12.91 C69.66 -9.03, 85.86 -5.15, 114.27 1.65 M114.27 1.65 C124.33 15.59, 134.39 29.53, 140.36 37.81 M114.27 1.65 C123.21 14.04, 132.14 26.42, 140.36 37.81 M140.36 37.81 C132.57 48.62, 124.78 59.43, 114.27 74.02 M140.36 37.81 C134.09 46.51, 127.82 55.22, 114.27 74.02 M114.27 74.02 C97.82 78.02, 81.36 82.02, 53.67 88.75 M114.27 74.02 C100.52 77.36, 86.76 80.71, 53.67 88.75 M53.67 88.75 C35.99 84.59, 18.31 80.42, -7.51 74.33 M53.67 88.75 C38.9 85.27, 24.13 81.79, -7.51 74.33 M-7.51 74.33 C-15.33 63.38, -23.15 52.43, -32.46 39.39 M-7.51 74.33 C-17.35 60.55, -27.19 46.78, -32.46 39.39" stroke="#E1E1E1" stroke-width="2" fill="none"></path></g></g><mask></mask><g stroke-linecap="round"><g transform="translate(82.27508116913543 91.03207375061174) rotate(0 61.30050170471587 -0.8692344965356824)"><path d="M0 0 C3.86 5.47, 7.71 10.93, 16.83 23.86 M0 0 C6.02 8.54, 12.04 17.07, 16.83 23.86 M16.83 23.86 C31.07 27.15, 45.3 30.45, 60.79 34.03 M16.83 23.86 C29.26 26.73, 41.69 29.61, 60.79 34.03 M60.79 34.03 C71.31 31.61, 81.83 29.19, 104.93 23.88 M60.79 34.03 C69.66 31.99, 78.54 29.95, 104.93 23.88 M104.93 23.88 C109.83 17.04, 114.73 10.2, 122.6 -0.79 M104.93 23.88 C109.52 17.48, 114.1 11.07, 122.6 -0.79 M122.6 -0.79 C118.75 -6.12, 114.91 -11.46, 104.85 -25.39 M122.6 -0.79 C115.8 -10.22, 109 -19.64, 104.85 -25.39 M104.85 -25.39 C95.82 -27.52, 86.79 -29.65, 60.92 -35.77 M104.85 -25.39 C88.36 -29.28, 71.87 -33.18, 60.92 -35.77 M60.92 -35.77 C50.6 -33.28, 40.28 -30.8, 21.79 -26.35 M60.92 -35.77 C52.41 -33.72, 43.9 -31.67, 21.79 -26.35" stroke="#E1E1E1" stroke-width="2" fill="none"></path></g></g><mask></mask><g stroke-linecap="round"><g transform="translate(103.97627546981846 64.70904075337057) rotate(0 -12.034437258683091 -6.41006358697814)"><path d="M0 0 C0.58 0.47, 2.41 1.93, 3.47 2.84 C4.53 3.74, 5.74 4.72, 6.36 5.43 C6.98 6.13, 7.12 6.51, 7.17 7.05 C7.22 7.59, 7.07 8.33, 6.67 8.66 C6.27 8.99, 5.96 9.06, 4.79 9.04 C3.62 9.03, 2.66 8.88, -0.36 8.58 C-3.38 8.28, -9.4 7.68, -13.35 7.24 C-17.31 6.81, -21.39 6.26, -24.08 5.97 C-26.77 5.67, -28.35 5.71, -29.51 5.5 C-30.67 5.28, -30.75 5.05, -31.04 4.67 C-31.32 4.29, -31.26 3.96, -31.24 3.21 C-31.21 2.45, -31.09 1.5, -30.9 0.15 C-30.72 -1.2, -30.47 -2.86, -30.13 -4.9 C-29.79 -6.95, -29.23 -9.96, -28.88 -12.1 C-28.53 -14.24, -28.26 -16.27, -28.02 -17.76 C-27.78 -19.26, -27.72 -20.38, -27.43 -21.06 C-27.14 -21.74, -26.72 -21.79, -26.26 -21.86 C-25.8 -21.94, -25.35 -21.95, -24.66 -21.52 C-23.98 -21.09, -23.31 -20.37, -22.14 -19.31 C-20.96 -18.24, -18.94 -16.29, -17.63 -15.12 C-16.32 -13.95, -14.84 -12.77, -14.29 -12.3 M0 0 C0.58 0.47, 2.41 1.93, 3.47 2.84 C4.53 3.74, 5.74 4.72, 6.36 5.43 C6.98 6.13, 7.12 6.51, 7.17 7.05 C7.22 7.59, 7.07 8.33, 6.67 8.66 C6.27 8.99, 5.96 9.06, 4.79 9.04 C3.62 9.03, 2.66 8.88, -0.36 8.58 C-3.38 8.28, -9.4 7.68, -13.35 7.24 C-17.31 6.81, -21.39 6.26, -24.08 5.97 C-26.77 5.67, -28.35 5.71, -29.51 5.5 C-30.67 5.28, -30.75 5.05, -31.04 4.67 C-31.32 4.29, -31.26 3.96, -31.24 3.21 C-31.21 2.45, -31.09 1.5, -30.9 0.15 C-30.72 -1.2, -30.47 -2.86, -30.13 -4.9 C-29.79 -6.95, -29.23 -9.96, -28.88 -12.1 C-28.53 -14.24, -28.26 -16.27, -28.02 -17.76 C-27.78 -19.26, -27.72 -20.38, -27.43 -21.06 C-27.14 -21.74, -26.72 -21.79, -26.26 -21.86 C-25.8 -21.94, -25.35 -21.95, -24.66 -21.52 C-23.98 -21.09, -23.31 -20.37, -22.14 -19.31 C-20.96 -18.24, -18.94 -16.29, -17.63 -15.12 C-16.32 -13.95, -14.84 -12.77, -14.29 -12.3" stroke="#E1E1E1" stroke-width="2" fill="none"></path></g></g><mask></mask><g stroke-linecap="round"><g transform="translate(92.39066588467506 55.35866674412591) rotate(0 -2.78305727522217 3.543147272117949)"><path d="M0 0 C-0.46 0.12, -2.08 0.61, -2.77 0.7 C-3.46 0.79, -3.59 0.84, -4.14 0.56 C-4.7 0.28, -5.28 -0.26, -6.1 -0.98 C-6.93 -1.7, -8.14 -2.92, -9.08 -3.77 C-10.03 -4.63, -11.14 -5.64, -11.76 -6.11 C-12.38 -6.58, -12.57 -6.7, -12.8 -6.6 C-13.04 -6.5, -12.98 -6.44, -13.15 -5.52 C-13.32 -4.6, -13.59 -2.6, -13.82 -1.09 C-14.06 0.42, -14.32 2.04, -14.57 3.53 C-14.82 5.01, -15.14 6.57, -15.33 7.83 C-15.53 9.09, -15.83 10.45, -15.73 11.08 C-15.64 11.71, -15.45 11.48, -14.75 11.61 C-14.05 11.74, -13.14 11.73, -11.55 11.87 C-9.97 12, -7.45 12.2, -5.24 12.41 C-3.03 12.61, -0.38 12.91, 1.7 13.1 C3.78 13.29, 5.82 13.47, 7.23 13.57 C8.64 13.66, 9.72 13.8, 10.17 13.69 C10.62 13.58, 10.29 13.33, 9.92 12.91 C9.55 12.49, 8.61 11.78, 7.94 11.17 C7.27 10.57, 6.28 9.88, 5.89 9.28 C5.51 8.69, 5.6 8.04, 5.66 7.62 C5.71 7.19, 6.01 6.97, 6.25 6.74 C6.49 6.51, 6.96 6.32, 7.11 6.24 M0 0 C-0.46 0.12, -2.08 0.61, -2.77 0.7 C-3.46 0.79, -3.59 0.84, -4.14 0.56 C-4.7 0.28, -5.28 -0.26, -6.1 -0.98 C-6.93 -1.7, -8.14 -2.92, -9.08 -3.77 C-10.03 -4.63, -11.14 -5.64, -11.76 -6.11 C-12.38 -6.58, -12.57 -6.7, -12.8 -6.6 C-13.04 -6.5, -12.98 -6.44, -13.15 -5.52 C-13.32 -4.6, -13.59 -2.6, -13.82 -1.09 C-14.06 0.42, -14.32 2.04, -14.57 3.53 C-14.82 5.01, -15.14 6.57, -15.33 7.83 C-15.53 9.09, -15.83 10.45, -15.73 11.08 C-15.64 11.71, -15.45 11.48, -14.75 11.61 C-14.05 11.74, -13.14 11.73, -11.55 11.87 C-9.97 12, -7.45 12.2, -5.24 12.41 C-3.03 12.61, -0.38 12.91, 1.7 13.1 C3.78 13.29, 5.82 13.47, 7.23 13.57 C8.64 13.66, 9.72 13.8, 10.17 13.69 C10.62 13.58, 10.29 13.33, 9.92 12.91 C9.55 12.49, 8.61 11.78, 7.94 11.17 C7.27 10.57, 6.28 9.88, 5.89 9.28 C5.51 8.69, 5.6 8.04, 5.66 7.62 C5.71 7.19, 6.01 6.97, 6.25 6.74 C6.49 6.51, 6.96 6.32, 7.11 6.24" stroke="#E1E1E1" stroke-width="2" fill="none"></path></g></g><mask></mask><g stroke-linecap="round"><g transform="translate(57.342080668204176 91.7959701492955) rotate(0 12.176279873369879 -1.6581103767389322)"><path d="M0 0 C-0.09 -0.18, -0.49 -0.65, -0.57 -1.05 C-0.64 -1.45, -0.63 -2.05, -0.44 -2.42 C-0.24 -2.78, 0.17 -3.09, 0.63 -3.24 C1.08 -3.39, 0.91 -3.3, 2.31 -3.32 C3.71 -3.33, 6.53 -3.32, 9.01 -3.32 C11.5 -3.32, 15.31 -3.32, 17.22 -3.32 C19.13 -3.32, 19.63 -3.32, 20.48 -3.32 C21.33 -3.31, 21.86 -3.38, 22.34 -3.26 C22.81 -3.15, 22.9 -3.05, 23.33 -2.63 C23.76 -2.21, 24.65 -1.07, 24.92 -0.75 M0 0 C-0.09 -0.18, -0.49 -0.65, -0.57 -1.05 C-0.64 -1.45, -0.63 -2.05, -0.44 -2.42 C-0.24 -2.78, 0.17 -3.09, 0.63 -3.24 C1.08 -3.39, 0.91 -3.3, 2.31 -3.32 C3.71 -3.33, 6.53 -3.32, 9.01 -3.32 C11.5 -3.32, 15.31 -3.32, 17.22 -3.32 C19.13 -3.32, 19.63 -3.32, 20.48 -3.32 C21.33 -3.31, 21.86 -3.38, 22.34 -3.26 C22.81 -3.15, 22.9 -3.05, 23.33 -2.63 C23.76 -2.21, 24.65 -1.07, 24.92 -0.75" stroke="#E1E1E1" stroke-width="2" fill="none"></path></g></g><mask></mask><g stroke-linecap="round"><g transform="translate(19.875384156410348 96.60477734902088) rotate(0 16.463793905957143 41.87745145857298)"><path d="M0 0 C11.98 16.64, 23.97 33.28, 32.93 45.72 M0 0 C12.14 16.85, 24.28 33.71, 32.93 45.72 M32.93 45.72 C32.93 60.13, 32.93 74.55, 32.93 83.75 M32.93 45.72 C32.93 56.72, 32.93 67.72, 32.93 83.75 M32.93 83.75 C23.74 71.12, 14.56 58.49, 0 38.47 M32.93 83.75 C19.95 65.91, 6.98 48.07, 0 38.47 M0 38.47 C0 24.77, 0 11.07, 0 0 M0 38.47 C0 29.14, 0 19.81, 0 0" stroke="#E1E1E1" stroke-width="2" fill="none"></path></g></g><mask></mask><g stroke-linecap="round"><g transform="translate(56.69043968368345 144.0837163792703) rotate(0 42.357347567829066 30.64524668107333)"><path d="M0 0 C0 15.82, 0 31.63, 0 41.07 M0 0 C0 12.12, 0 24.24, 0 41.07 M0 41.07 C22.08 46.34, 44.16 51.61, 84.71 61.29 M0 41.07 C21.16 46.12, 42.32 51.17, 84.71 61.29 M84.71 61.29 C84.71 48.11, 84.71 34.93, 84.71 20.05 M84.71 61.29 C84.71 48.29, 84.71 35.3, 84.71 20.05 M84.71 20.05 C67.43 15.96, 50.15 11.87, 0 0 M84.71 20.05 C59.23 14.02, 33.75 7.99, 0 0" stroke="#E1E1E1" stroke-width="2" fill="none"></path></g></g><mask></mask><g stroke-linecap="round"><g transform="translate(144.8779393117287 164.15055967133594) rotate(0 42.43229912340172 10.498150741096197)"><path d="M0 0 C0 11.49, 0 22.98, 0 41.3 M0 0 C0 12.57, 0 25.13, 0 41.3 M0 41.3 C20.23 36.46, 40.45 31.63, 84.86 21.02 M0 41.3 C31.5 33.77, 63.01 26.25, 84.86 21.02 M84.86 21.02 C84.86 11.19, 84.86 1.35, 84.86 -20.3 M84.86 21.02 C84.86 4.8, 84.86 -11.43, 84.86 -20.3 M84.86 -20.3 C57.74 -13.81, 30.62 -7.32, 0 0 M84.86 -20.3 C52.78 -12.62, 20.69 -4.95, 0 0" stroke="#E1E1E1" stroke-width="2" fill="none"></path></g></g><mask></mask><g stroke-linecap="round"><g transform="translate(233.43739891890277 142.2462988735033) rotate(0 16.569889379022158 -3.757517326767811)"><path d="M0 0 C0 10.84, 0 21.67, 0 38.25 M0 0 C0 9.77, 0 19.54, 0 38.25 M0 38.25 C11.98 21.74, 23.97 5.24, 33.14 -7.39 M0 38.25 C12.66 20.81, 25.32 3.38, 33.14 -7.39 M33.14 -7.39 C33.14 -22.56, 33.14 -37.74, 33.14 -45.76 M33.14 -7.39 C33.14 -22.63, 33.14 -37.87, 33.14 -45.76 M33.14 -45.76 C24.73 -34.15, 16.32 -22.54, 0 0 M33.14 -45.76 C26.34 -36.37, 19.53 -26.97, 0 0" stroke="#E1E1E1" stroke-width="2" fill="none"></path></g></g><mask></mask><g stroke-linecap="round"><g transform="translate(262.0511046051423 147.97409950608835) rotate(0 -118.86322452712692 37.97763038214953)"><path d="M0 0 C0.97 1.25, 1.93 2.51, 4.21 5.46 M0 0 C1.28 1.66, 2.55 3.31, 4.21 5.46 M4.21 5.46 C-5.86 19.49, -15.93 33.52, -31.28 54.92 M4.21 5.46 C-8.48 23.15, -21.18 40.84, -31.28 54.92 M-31.28 54.92 C-60.61 61.99, -89.95 69.07, -118.91 76.06 M-31.28 54.92 C-52.65 60.07, -74.01 65.23, -118.91 76.06 M-118.91 76.06 C-136.97 71.73, -155.03 67.4, -206.57 55.03 M-118.91 76.06 C-144.32 69.96, -169.73 63.87, -206.57 55.03 M-206.57 55.03 C-220.46 35.69, -234.35 16.35, -241.94 5.78 M-206.57 55.03 C-213.72 45.08, -220.87 35.13, -241.94 5.78 M-241.94 5.78 C-240.34 3.65, -238.75 1.52, -237.53 -0.1 M-241.94 5.78 C-240.33 3.63, -238.72 1.49, -237.53 -0.1 M-237.53 -0.1 C-230.18 10.14, -222.82 20.39, -208.43 40.44 M-237.53 -0.1 C-227.6 13.74, -217.66 27.57, -208.43 40.44 M-208.43 40.44 C-174.74 48.49, -141.05 56.54, -118.78 61.86 M-208.43 40.44 C-175.11 48.4, -141.8 56.36, -118.78 61.86 M-118.78 61.86 C-90.77 55.09, -62.76 48.33, -29.57 40.31 M-118.78 61.86 C-94.27 55.94, -69.75 50.02, -29.57 40.31 M-29.57 40.31 C-23.01 31.37, -16.45 22.43, 0 0 M-29.57 40.31 C-19.28 26.29, -9 12.27, 0 0" stroke="#E1E1E1" stroke-width="2" fill="none"></path></g></g><mask></mask><g stroke-linecap="round"><g transform="translate(266.096373405953 159.9788795158429) rotate(0 -16.228628693464742 41.851083023213505)"><path d="M0 0 C0 9.04, 0 18.07, 0 38.57 M0 0 C0 8.59, 0 17.18, 0 38.57 M0 38.57 C-9.97 52.44, -19.94 66.3, -32.46 83.7 M0 38.57 C-9.55 51.84, -19.09 65.12, -32.46 83.7 M-32.46 83.7 C-32.46 70.44, -32.46 57.18, -32.46 45.5 M-32.46 83.7 C-32.46 72.94, -32.46 62.17, -32.46 45.5 M-32.46 45.5 C-19.71 27.63, -6.96 9.76, 0 0 M-32.46 45.5 C-24.4 34.2, -16.34 22.9, 0 0" stroke="#E1E1E1" stroke-width="2" fill="none"></path></g></g><mask></mask><g stroke-linecap="round"><g transform="translate(229.63544508776863 207.10947869518532) rotate(0 -42.22338009873954 30.793684784457128)"><path d="M0 0 C0 15.72, 0 31.44, 0 41.05 M0 0 C0 9.21, 0 18.43, 0 41.05 M0 41.05 C-22.83 46.6, -45.66 52.15, -84.45 61.59 M0 41.05 C-22.84 46.61, -45.69 52.16, -84.45 61.59 M-84.45 61.59 C-84.45 45.31, -84.45 29.03, -84.45 20.35 M-84.45 61.59 C-84.45 49.59, -84.45 37.59, -84.45 20.35 M-84.45 20.35 C-60.05 14.47, -35.65 8.59, 0 0 M-84.45 20.35 C-54.51 13.13, -24.58 5.92, 0 0" stroke="#E1E1E1" stroke-width="2" fill="none"></path></g></g><mask></mask><g stroke-linecap="round"><g transform="translate(141.35398123846227 227.527160814303) rotate(0 -42.291339088716605 10.40046133564556)"><path d="M0 0 C0 13.83, 0 27.65, 0 41.21 M0 0 C0 14.15, 0 28.29, 0 41.21 M0 41.21 C-24.79 35.23, -49.57 29.25, -84.58 20.8 M0 41.21 C-25.84 34.98, -51.67 28.74, -84.58 20.8 M-84.58 20.8 C-84.58 4.44, -84.58 -11.93, -84.58 -20.41 M-84.58 20.8 C-84.58 10.25, -84.58 -0.29, -84.58 -20.41 M-84.58 -20.41 C-54.26 -13.09, -23.94 -5.78, 0 0 M-84.58 -20.41 C-64.67 -15.6, -44.75 -10.8, 0 0" stroke="#E1E1E1" stroke-width="2" fill="none"></path></g></g><mask></mask><g stroke-linecap="round"><g transform="translate(52.8814442869018 205.45624767814388) rotate(0 -16.483228677654107 -3.5490241939610314)"><path d="M0 0 C0 10.64, 0 21.27, 0 38.35 M0 0 C0 12.45, 0 24.91, 0 38.35 M0 38.35 C-12.3 21.43, -24.6 4.51, -32.97 -7.01 M0 38.35 C-6.75 29.07, -13.49 19.79, -32.97 -7.01 M-32.97 -7.01 C-32.97 -20.32, -32.97 -33.64, -32.97 -45.45 M-32.97 -7.01 C-32.97 -21.16, -32.97 -35.32, -32.97 -45.45 M-32.97 -45.45 C-25.38 -34.99, -17.79 -24.53, 0 0 M-32.97 -45.45 C-20.29 -27.97, -7.62 -10.5, 0 0" stroke="#E1E1E1" stroke-width="2" fill="none"></path></g></g><mask></mask><g stroke-linecap="round"><g transform="translate(24.272270677211594 211.3565445061122) rotate(0 118.89527401128032 37.86102103222447)"><path d="M0 0 C-0.94 1.31, -1.87 2.61, -4.12 5.73 M0 0 C-1.34 1.87, -2.68 3.73, -4.12 5.73 M-4.12 5.73 C8.14 22.66, 20.39 39.59, 31.54 54.99 M-4.12 5.73 C4.4 17.5, 12.92 29.27, 31.54 54.99 M31.54 54.99 C59.96 61.77, 88.39 68.56, 118.78 75.81 M31.54 54.99 C54.34 60.43, 77.15 65.88, 118.78 75.81 M118.78 75.81 C143.33 69.97, 167.87 64.13, 206.31 54.97 M118.78 75.81 C141.55 70.39, 164.31 64.97, 206.31 54.97 M206.31 54.97 C220.26 35.57, 234.22 16.16, 241.91 5.46 M206.31 54.97 C219.63 36.45, 232.94 17.93, 241.91 5.46 M241.91 5.46 C240.98 4.22, 240.06 2.98, 237.77 -0.09 M241.91 5.46 C240.61 3.72, 239.3 1.97, 237.77 -0.09 M237.77 -0.09 C231.39 8.62, 225.02 17.33, 208.07 40.5 M237.77 -0.09 C229.95 10.59, 222.14 21.27, 208.07 40.5 M208.07 40.5 C173.76 48.66, 139.44 56.81, 118.98 61.68 M208.07 40.5 C174.63 48.45, 141.18 56.4, 118.98 61.68 M118.98 61.68 C98.24 56.74, 77.5 51.81, 29.51 40.4 M118.98 61.68 C94.15 55.77, 69.31 49.86, 29.51 40.4 M29.51 40.4 C22.74 31.12, 15.96 21.84, 0 0 M29.51 40.4 C18.66 25.53, 7.8 10.67, 0 0" stroke="#E1E1E1" stroke-width="2" fill="none"></path></g></g><mask></mask><g stroke-linecap="round"><g transform="translate(19.932440830736567 223.20612084187542) rotate(0 16.41993045289978 41.957864254898595)"><path d="M0 0 C0 14.77, 0 29.53, 0 38.58 M0 0 C0 7.75, 0 15.51, 0 38.58 M0 38.58 C9.05 51.07, 18.1 63.57, 32.84 83.92 M0 38.58 C6.97 48.2, 13.94 57.82, 32.84 83.92 M32.84 83.92 C32.84 68.7, 32.84 53.48, 32.84 45.52 M32.84 83.92 C32.84 75.07, 32.84 66.22, 32.84 45.52 M32.84 45.52 C24.45 33.89, 16.06 22.26, 0 0 M32.84 45.52 C23.1 32.02, 13.37 18.53, 0 0" stroke="#E1E1E1" stroke-width="2" fill="none"></path></g></g><mask></mask><g stroke-linecap="round"><g transform="translate(56.74462477062315 270.35791786387836) rotate(0 42.19949626595431 30.743097743297767)"><path d="M0 0 C0 13.93, 0 27.86, 0 41.28 M0 0 C0 12.87, 0 25.74, 0 41.28 M0 41.28 C28.92 48.2, 57.83 55.13, 84.4 61.49 M0 41.28 C20.99 46.3, 41.97 51.33, 84.4 61.49 M84.4 61.49 C84.4 46.81, 84.4 32.14, 84.4 20.37 M84.4 61.49 C84.4 45.67, 84.4 29.86, 84.4 20.37 M84.4 20.37 C53.25 12.85, 22.09 5.33, 0 0 M84.4 20.37 C64.79 15.64, 45.19 10.91, 0 0" stroke="#E1E1E1" stroke-width="2" fill="none"></path></g></g><mask></mask><g stroke-linecap="round"><g transform="translate(145.13951193677923 290.6696119409062) rotate(0 42.326644250348835 10.308322938374658)"><path d="M0 0 C0 12.28, 0 24.56, 0 41.2 M0 0 C0 13.41, 0 26.82, 0 41.2 M0 41.2 C24.88 35.25, 49.77 29.29, 84.65 20.95 M0 41.2 C31.18 33.74, 62.36 26.28, 84.65 20.95 M84.65 20.95 C84.65 6.19, 84.65 -8.56, 84.65 -20.58 M84.65 20.95 C84.65 10.39, 84.65 -0.16, 84.65 -20.58 M84.65 -20.58 C61.73 -15.01, 38.8 -9.43, 0 0 M84.65 -20.58 C59.65 -14.5, 34.65 -8.43, 0 0" stroke="#E1E1E1" stroke-width="2" fill="none"></path></g></g><mask></mask><g stroke-linecap="round"><g transform="translate(233.49862573328005 268.6816535607095) rotate(0 16.446876027200773 -3.64906858012273)"><path d="M0 0 C0 10.92, 0 21.85, 0 38.22 M0 0 C0 10.9, 0 21.8, 0 38.22 M0 38.22 C10.65 23.61, 21.3 8.99, 32.89 -6.92 M0 38.22 C11.94 21.83, 23.89 5.44, 32.89 -6.92 M32.89 -6.92 C32.89 -16.64, 32.89 -26.35, 32.89 -45.52 M32.89 -6.92 C32.89 -16.14, 32.89 -25.37, 32.89 -45.52 M32.89 -45.52 C25.51 -35.31, 18.13 -25.09, 0 0 M32.89 -45.52 C26 -35.98, 19.1 -26.43, 0 0" stroke="#E1E1E1" stroke-width="2" fill="none"></path></g></g><mask></mask></svg>