<svg version="1.1" xmlns="http://www.w3.org/2000/svg" viewBox="0 0 401.45121659002143 412.26144300074714" width="401.45121659002143" height="412.26144300074714" class="excalidraw-svg"><!-- svg-source:excalidraw --><metadata></metadata><defs><style class="style-fonts">
      </style></defs><rect x="0" y="0" width="401.45121659002143" height="412.26144300074714" fill="#000000"></rect><g stroke-linecap="round"><g transform="translate(98.99285958101075 318.0438141802543) rotate(0 101.7760181964226 -153.95041158588518)"><path d="M0 0 C-6.13 0, -26.52 0, -36.76 0 C-47 0, -53.81 0, -61.45 0 C-69.09 0, -78.21 0.14, -82.61 0 C-87.01 -0.14, -86.84 0.03, -87.85 -0.83 C-88.87 -1.68, -88.55 -2.88, -88.69 -5.15 C-88.83 -7.41, -88.69 1.99, -88.69 -14.41 C-88.69 -30.81, -88.69 -70.73, -88.69 -103.54 C-88.69 -136.35, -88.69 -181.88, -88.69 -211.25 C-88.69 -240.63, -88.69 -264.97, -88.69 -279.76 C-88.69 -294.56, -89.37 -295.66, -88.69 -300.03 C-88.02 -304.4, -86.29 -304.66, -84.66 -305.97 C-83.03 -307.28, -82.39 -307.58, -78.93 -307.9 C-75.46 -308.22, -80.58 -307.9, -63.86 -307.9 C-47.15 -307.9, -10.62 -307.9, 21.37 -307.9 C53.35 -307.9, 93.85 -307.9, 128.04 -307.9 C162.23 -307.9, 202.09 -307.9, 226.5 -307.9 C250.91 -307.9, 264.49 -308.04, 274.5 -307.9 C284.51 -307.77, 283.74 -308.04, 286.56 -307.09 C289.37 -306.14, 290.46 -304.39, 291.41 -302.2 C292.36 -300.01, 292.11 -300.89, 292.25 -293.95 C292.39 -287.02, 292.25 -278.65, 292.25 -260.58 C292.25 -242.52, 292.25 -211.41, 292.25 -185.58 C292.25 -159.75, 292.25 -132.78, 292.25 -105.6 C292.25 -78.41, 292.25 -38.51, 292.25 -22.49 C292.25 -6.47, 292.27 -13.05, 292.25 -9.5 C292.22 -5.95, 292.81 -2.76, 292.12 -1.19 C291.42 0.38, 289.71 -0.27, 288.07 -0.09 C286.43 0.1, 287.22 -0.09, 282.3 -0.09 C277.38 -0.09, 267.91 -0.09, 258.56 -0.09 C249.21 -0.09, 235.69 -0.09, 226.19 -0.09 C216.69 -0.09, 205.67 -0.09, 201.56 -0.09 M0 0 C-6.13 0, -26.52 0, -36.76 0 C-47 0, -53.81 0, -61.45 0 C-69.09 0, -78.21 0.14, -82.61 0 C-87.01 -0.14, -86.84 0.03, -87.85 -0.83 C-88.87 -1.68, -88.55 -2.88, -88.69 -5.15 C-88.83 -7.41, -88.69 1.99, -88.69 -14.41 C-88.69 -30.81, -88.69 -70.73, -88.69 -103.54 C-88.69 -136.35, -88.69 -181.88, -88.69 -211.25 C-88.69 -240.63, -88.69 -264.97, -88.69 -279.76 C-88.69 -294.56, -89.37 -295.66, -88.69 -300.03 C-88.02 -304.4, -86.29 -304.66, -84.66 -305.97 C-83.03 -307.28, -82.39 -307.58, -78.93 -307.9 C-75.46 -308.22, -80.58 -307.9, -63.86 -307.9 C-47.15 -307.9, -10.62 -307.9, 21.37 -307.9 C53.35 -307.9, 93.85 -307.9, 128.04 -307.9 C162.23 -307.9, 202.09 -307.9, 226.5 -307.9 C250.91 -307.9, 264.49 -308.04, 274.5 -307.9 C284.51 -307.77, 283.74 -308.04, 286.56 -307.09 C289.37 -306.14, 290.46 -304.39, 291.41 -302.2 C292.36 -300.01, 292.11 -300.89, 292.25 -293.95 C292.39 -287.02, 292.25 -278.65, 292.25 -260.58 C292.25 -242.52, 292.25 -211.41, 292.25 -185.58 C292.25 -159.75, 292.25 -132.78, 292.25 -105.6 C292.25 -78.41, 292.25 -38.51, 292.25 -22.49 C292.25 -6.47, 292.27 -13.05, 292.25 -9.5 C292.22 -5.95, 292.81 -2.76, 292.12 -1.19 C291.42 0.38, 289.71 -0.27, 288.07 -0.09 C286.43 0.1, 287.22 -0.09, 282.3 -0.09 C277.38 -0.09, 267.91 -0.09, 258.56 -0.09 C249.21 -0.09, 235.69 -0.09, 226.19 -0.09 C216.69 -0.09, 205.67 -0.09, 201.56 -0.09" stroke="#ffffff" stroke-width="4" fill="none"></path></g></g><mask></mask><g stroke-linecap="round"><g transform="translate(187.66113326188645 280.6278500557664) rotate(14.999999999999982 -28.898260249171003 62.89515424454436)"><path d="M0 0 C1.82 0.68, 7.63 2.41, 10.92 4.1 C14.22 5.79, 17.42 8.15, 19.78 10.15 C22.13 12.15, 23.35 13.63, 25.05 16.09 C26.74 18.54, 28.63 21.93, 29.94 24.86 C31.26 27.78, 32.14 30.35, 32.95 33.63 C33.76 36.92, 34.58 40.97, 34.79 44.56 C35.01 48.15, 34.86 51.66, 34.23 55.16 C33.6 58.66, 32.67 62.32, 31 65.55 C29.33 68.78, 27.08 71.16, 24.21 74.55 C21.35 77.93, 19.17 80.37, 13.81 85.89 C8.44 91.4, -0.92 101.39, -8 107.62 C-15.07 113.85, -22.1 120.23, -28.64 123.25 C-35.18 126.28, -41.64 125.81, -47.23 125.79 C-52.82 125.77, -57.42 124.9, -62.17 123.12 C-66.91 121.35, -71.98 117.94, -75.71 115.13 C-79.43 112.32, -81.77 110.44, -84.52 106.25 C-87.27 102.06, -90.85 95.88, -92.19 89.98 C-93.54 84.09, -93.23 76.54, -92.59 70.88 C-91.95 65.21, -90.56 60.5, -88.36 55.99 C-86.16 51.49, -83.57 48.6, -79.38 43.85 C-75.19 39.1, -68.74 33.06, -63.22 27.5 C-57.7 21.93, -50.7 14.59, -46.26 10.48 C-41.82 6.37, -39.96 4.57, -36.56 2.83 C-33.17 1.1, -27.66 0.53, -25.88 0.07 M0 0 C1.82 0.68, 7.63 2.41, 10.92 4.1 C14.22 5.79, 17.42 8.15, 19.78 10.15 C22.13 12.15, 23.35 13.63, 25.05 16.09 C26.74 18.54, 28.63 21.93, 29.94 24.86 C31.26 27.78, 32.14 30.35, 32.95 33.63 C33.76 36.92, 34.58 40.97, 34.79 44.56 C35.01 48.15, 34.86 51.66, 34.23 55.16 C33.6 58.66, 32.67 62.32, 31 65.55 C29.33 68.78, 27.08 71.16, 24.21 74.55 C21.35 77.93, 19.17 80.37, 13.81 85.89 C8.44 91.4, -0.92 101.39, -8 107.62 C-15.07 113.85, -22.1 120.23, -28.64 123.25 C-35.18 126.28, -41.64 125.81, -47.23 125.79 C-52.82 125.77, -57.42 124.9, -62.17 123.12 C-66.91 121.35, -71.98 117.94, -75.71 115.13 C-79.43 112.32, -81.77 110.44, -84.52 106.25 C-87.27 102.06, -90.85 95.88, -92.19 89.98 C-93.54 84.09, -93.23 76.54, -92.59 70.88 C-91.95 65.21, -90.56 60.5, -88.36 55.99 C-86.16 51.49, -83.57 48.6, -79.38 43.85 C-75.19 39.1, -68.74 33.06, -63.22 27.5 C-57.7 21.93, -50.7 14.59, -46.26 10.48 C-41.82 6.37, -39.96 4.57, -36.56 2.83 C-33.17 1.1, -27.66 0.53, -25.88 0.07" stroke="#ffffff" stroke-width="4" fill="none"></path></g></g><mask></mask><g stroke-linecap="round"><g transform="translate(168.01422019921858 307.8445123159865) rotate(14.999999999999982 -0.19412491306930946 14.641059054475342)"><path d="M0 0 C-0.81 0.66, -2.02 1.44, -4.87 3.97 C-7.72 6.51, -12.39 10.75, -17.1 15.2 C-21.8 19.65, -28.84 26.15, -33.12 30.68 C-37.41 35.21, -40.8 38.72, -42.8 42.39 C-44.79 46.06, -45.21 49.2, -45.09 52.7 C-44.97 56.19, -43.89 60.26, -42.09 63.36 C-40.3 66.45, -37.35 69.33, -34.31 71.25 C-31.27 73.18, -27.39 74.35, -23.84 74.9 C-20.28 75.46, -16.85 75.89, -13 74.58 C-9.15 73.28, -5.36 71.04, -0.75 67.07 C3.87 63.1, 9.52 56.05, 14.68 50.75 C19.83 45.46, 26.74 39.54, 30.2 35.29 C33.65 31.04, 34.62 29.03, 35.39 25.27 C36.16 21.5, 35.8 16.38, 34.82 12.73 C33.84 9.08, 31.42 6.24, 29.53 3.38 C27.64 0.53, 24.78 -1.65, 23.48 -4.39 C22.19 -7.13, 21.75 -10.04, 21.75 -13.06 C21.75 -16.08, 22.12 -19.49, 23.5 -22.52 C24.87 -25.55, 27.42 -28.35, 30.01 -31.23 C32.59 -34.11, 36.56 -37.38, 39.01 -39.78 C41.46 -42.17, 43.75 -44.65, 44.7 -45.62 M0 0 C-0.81 0.66, -2.02 1.44, -4.87 3.97 C-7.72 6.51, -12.39 10.75, -17.1 15.2 C-21.8 19.65, -28.84 26.15, -33.12 30.68 C-37.41 35.21, -40.8 38.72, -42.8 42.39 C-44.79 46.06, -45.21 49.2, -45.09 52.7 C-44.97 56.19, -43.89 60.26, -42.09 63.36 C-40.3 66.45, -37.35 69.33, -34.31 71.25 C-31.27 73.18, -27.39 74.35, -23.84 74.9 C-20.28 75.46, -16.85 75.89, -13 74.58 C-9.15 73.28, -5.36 71.04, -0.75 67.07 C3.87 63.1, 9.52 56.05, 14.68 50.75 C19.83 45.46, 26.74 39.54, 30.2 35.29 C33.65 31.04, 34.62 29.03, 35.39 25.27 C36.16 21.5, 35.8 16.38, 34.82 12.73 C33.84 9.08, 31.42 6.24, 29.53 3.38 C27.64 0.53, 24.78 -1.65, 23.48 -4.39 C22.19 -7.13, 21.75 -10.04, 21.75 -13.06 C21.75 -16.08, 22.12 -19.49, 23.5 -22.52 C24.87 -25.55, 27.42 -28.35, 30.01 -31.23 C32.59 -34.11, 36.56 -37.38, 39.01 -39.78 C41.46 -42.17, 43.75 -44.65, 44.7 -45.62" stroke="#ffffff" stroke-width="4" fill="none"></path></g></g><mask></mask><g stroke-linecap="round" transform="translate(234.19629798321205 266.951721332922) rotate(14.999999999999982 2.931621845108438 2.931621845108438)"><path d="M5.86 2.93 C5.86 3.1, 5.85 3.27, 5.82 3.44 C5.79 3.61, 5.74 3.77, 5.69 3.93 C5.63 4.09, 5.56 4.25, 5.47 4.4 C5.39 4.54, 5.29 4.69, 5.18 4.82 C5.07 4.95, 4.95 5.07, 4.82 5.18 C4.69 5.29, 4.54 5.39, 4.4 5.47 C4.25 5.56, 4.09 5.63, 3.93 5.69 C3.77 5.74, 3.61 5.79, 3.44 5.82 C3.27 5.85, 3.1 5.86, 2.93 5.86 C2.76 5.86, 2.59 5.85, 2.42 5.82 C2.26 5.79, 2.09 5.74, 1.93 5.69 C1.77 5.63, 1.61 5.56, 1.47 5.47 C1.32 5.39, 1.18 5.29, 1.05 5.18 C0.92 5.07, 0.79 4.95, 0.69 4.82 C0.58 4.69, 0.48 4.54, 0.39 4.4 C0.31 4.25, 0.23 4.09, 0.18 3.93 C0.12 3.77, 0.07 3.61, 0.04 3.44 C0.02 3.27, 0 3.1, 0 2.93 C0 2.76, 0.02 2.59, 0.04 2.42 C0.07 2.26, 0.12 2.09, 0.18 1.93 C0.23 1.77, 0.31 1.61, 0.39 1.47 C0.48 1.32, 0.58 1.18, 0.69 1.05 C0.79 0.92, 0.92 0.79, 1.05 0.69 C1.18 0.58, 1.32 0.48, 1.47 0.39 C1.61 0.31, 1.77 0.23, 1.93 0.18 C2.09 0.12, 2.26 0.07, 2.42 0.04 C2.59 0.02, 2.76 0, 2.93 0 C3.1 0, 3.27 0.02, 3.44 0.04 C3.61 0.07, 3.77 0.12, 3.93 0.18 C4.09 0.23, 4.25 0.31, 4.4 0.39 C4.54 0.48, 4.69 0.58, 4.82 0.69 C4.95 0.79, 5.07 0.92, 5.18 1.05 C5.29 1.18, 5.39 1.32, 5.47 1.47 C5.56 1.61, 5.63 1.77, 5.69 1.93 C5.74 2.09, 5.79 2.26, 5.82 2.42 C5.85 2.59, 5.86 2.85, 5.86 2.93 C5.87 3.02, 5.87 2.85, 5.86 2.93" stroke="#b3a2fa" stroke-width="4" fill="none"></path></g><g stroke-linecap="round"><g transform="translate(239.66312521877865 267.1390188012187) rotate(14.999999999999982 17.2292367533003 32.08871702359772)"><path d="M0 0 C0.74 -0.59, 2.68 -2.59, 4.45 -3.52 C6.22 -4.46, 8.12 -5.21, 10.63 -5.61 C13.13 -6.01, 16.66 -6.46, 19.47 -5.93 C22.27 -5.4, 24.97 -3.94, 27.45 -2.43 C29.94 -0.93, 32.58 0.74, 34.37 3.1 C36.16 5.47, 37.44 8.9, 38.18 11.77 C38.92 14.63, 39.26 17.29, 38.82 20.29 C38.38 23.3, 37.21 26.96, 35.54 29.79 C33.86 32.62, 31.98 34.04, 28.76 37.27 C25.55 40.51, 20.6 44.95, 16.25 49.19 C11.9 53.43, 6.09 59.23, 2.65 62.71 C-0.78 66.2, -3.19 68.88, -4.36 70.11 M0 0 C0.74 -0.59, 2.68 -2.59, 4.45 -3.52 C6.22 -4.46, 8.12 -5.21, 10.63 -5.61 C13.13 -6.01, 16.66 -6.46, 19.47 -5.93 C22.27 -5.4, 24.97 -3.94, 27.45 -2.43 C29.94 -0.93, 32.58 0.74, 34.37 3.1 C36.16 5.47, 37.44 8.9, 38.18 11.77 C38.92 14.63, 39.26 17.29, 38.82 20.29 C38.38 23.3, 37.21 26.96, 35.54 29.79 C33.86 32.62, 31.98 34.04, 28.76 37.27 C25.55 40.51, 20.6 44.95, 16.25 49.19 C11.9 53.43, 6.09 59.23, 2.65 62.71 C-0.78 66.2, -3.19 68.88, -4.36 70.11" stroke="#ffffff" stroke-width="4" fill="none"></path></g></g><mask></mask><g stroke-linecap="round"><g transform="translate(209.24100694888614 358.77437891574624) rotate(14.999999999999982 30.56735464470936 -63.37893270413081)"><path d="M0 0 C-1.47 -0.6, -5.9 -2, -8.82 -3.6 C-11.74 -5.2, -15.05 -7.38, -17.52 -9.61 C-19.99 -11.85, -21.84 -14.35, -23.64 -17.04 C-25.44 -19.73, -27 -22.82, -28.32 -25.76 C-29.65 -28.69, -30.92 -31.51, -31.61 -34.65 C-32.3 -37.8, -32.34 -40.99, -32.47 -44.62 C-32.6 -48.26, -32.61 -53.12, -32.38 -56.46 C-32.15 -59.8, -32.36 -61.49, -31.11 -64.66 C-29.86 -67.83, -28.02 -71.57, -24.88 -75.47 C-21.74 -79.36, -16.9 -83.45, -12.27 -88.03 C-7.64 -92.6, -2.2 -98.14, 2.92 -102.91 C8.04 -107.67, 13.65 -113.02, 18.44 -116.63 C23.22 -120.25, 26.67 -122.9, 31.62 -124.59 C36.57 -126.28, 43.22 -126.83, 48.17 -126.76 C53.11 -126.68, 57 -125.72, 61.28 -124.14 C65.55 -122.56, 70.01 -120.03, 73.82 -117.28 C77.63 -114.54, 81.27 -111.4, 84.13 -107.64 C86.99 -103.89, 89.38 -99.28, 90.96 -94.77 C92.54 -90.27, 93.63 -85.74, 93.61 -80.61 C93.58 -75.47, 92.71 -69.16, 90.83 -63.97 C88.95 -58.79, 86.07 -54.28, 82.32 -49.5 C78.57 -44.73, 73.11 -40.17, 68.34 -35.34 C63.57 -30.5, 58.6 -25.26, 53.69 -20.49 C48.77 -15.73, 43.1 -9.85, 38.84 -6.74 C34.57 -3.62, 29.88 -2.62, 28.09 -1.8 M0 0 C-1.47 -0.6, -5.9 -2, -8.82 -3.6 C-11.74 -5.2, -15.05 -7.38, -17.52 -9.61 C-19.99 -11.85, -21.84 -14.35, -23.64 -17.04 C-25.44 -19.73, -27 -22.82, -28.32 -25.76 C-29.65 -28.69, -30.92 -31.51, -31.61 -34.65 C-32.3 -37.8, -32.34 -40.99, -32.47 -44.62 C-32.6 -48.26, -32.61 -53.12, -32.38 -56.46 C-32.15 -59.8, -32.36 -61.49, -31.11 -64.66 C-29.86 -67.83, -28.02 -71.57, -24.88 -75.47 C-21.74 -79.36, -16.9 -83.45, -12.27 -88.03 C-7.64 -92.6, -2.2 -98.14, 2.92 -102.91 C8.04 -107.67, 13.65 -113.02, 18.44 -116.63 C23.22 -120.25, 26.67 -122.9, 31.62 -124.59 C36.57 -126.28, 43.22 -126.83, 48.17 -126.76 C53.11 -126.68, 57 -125.72, 61.28 -124.14 C65.55 -122.56, 70.01 -120.03, 73.82 -117.28 C77.63 -114.54, 81.27 -111.4, 84.13 -107.64 C86.99 -103.89, 89.38 -99.28, 90.96 -94.77 C92.54 -90.27, 93.63 -85.74, 93.61 -80.61 C93.58 -75.47, 92.71 -69.16, 90.83 -63.97 C88.95 -58.79, 86.07 -54.28, 82.32 -49.5 C78.57 -44.73, 73.11 -40.17, 68.34 -35.34 C63.57 -30.5, 58.6 -25.26, 53.69 -20.49 C48.77 -15.73, 43.1 -9.85, 38.84 -6.74 C34.57 -3.62, 29.88 -2.62, 28.09 -1.8" stroke="#ffffff" stroke-width="4" fill="none"></path></g></g><mask></mask><g stroke-linecap="round"><g transform="translate(349.41719339709164 317.7951363668636) rotate(0 -148.41291169248333 -116.85797214796594)"><path d="M0 0 C0 -8.41, 0 -23.16, 0 -50.46 C0 -77.75, 0 -135.84, 0 -163.79 C0 -191.75, 0.1 -207.48, 0 -218.2 C-0.1 -228.91, 0.13 -225.68, -0.62 -228.06 C-1.38 -230.44, -2.73 -231.54, -4.54 -232.49 C-6.36 -233.43, -5.34 -233.51, -11.5 -233.72 C-17.66 -233.92, -23.37 -233.72, -41.49 -233.72 C-59.62 -233.72, -93.18 -233.72, -120.25 -233.72 C-147.32 -233.72, -177.57 -233.72, -203.92 -233.72 C-230.26 -233.72, -263.66 -233.98, -278.33 -233.72 C-292.99 -233.45, -288.92 -233.33, -291.9 -232.15 C-294.87 -230.97, -295.38 -229.35, -296.2 -226.63 C-297.02 -223.91, -296.72 -223.66, -296.83 -215.83 C-296.93 -207.99, -296.83 -195.6, -296.83 -179.61 C-296.83 -163.63, -296.83 -138.81, -296.83 -119.92 C-296.83 -101.02, -296.83 -75.2, -296.83 -66.26 M0 0 C0 -8.41, 0 -23.16, 0 -50.46 C0 -77.75, 0 -135.84, 0 -163.79 C0 -191.75, 0.1 -207.48, 0 -218.2 C-0.1 -228.91, 0.13 -225.68, -0.62 -228.06 C-1.38 -230.44, -2.73 -231.54, -4.54 -232.49 C-6.36 -233.43, -5.34 -233.51, -11.5 -233.72 C-17.66 -233.92, -23.37 -233.72, -41.49 -233.72 C-59.62 -233.72, -93.18 -233.72, -120.25 -233.72 C-147.32 -233.72, -177.57 -233.72, -203.92 -233.72 C-230.26 -233.72, -263.66 -233.98, -278.33 -233.72 C-292.99 -233.45, -288.92 -233.33, -291.9 -232.15 C-294.87 -230.97, -295.38 -229.35, -296.2 -226.63 C-297.02 -223.91, -296.72 -223.66, -296.83 -215.83 C-296.93 -207.99, -296.83 -195.6, -296.83 -179.61 C-296.83 -163.63, -296.83 -138.81, -296.83 -119.92 C-296.83 -101.02, -296.83 -75.2, -296.83 -66.26" stroke="#ffffff" stroke-width="4" fill="none"></path></g></g><mask></mask><g stroke-linecap="round"><g transform="translate(52.79027971733706 133.11224267585538) rotate(0 118.13699460080768 0)"><path d="M0 0 C39.38 0, 196.89 0, 236.27 0 M0 0 C39.38 0, 196.89 0, 236.27 0" stroke="#ffffff" stroke-width="4" fill="none"></path></g></g><mask></mask><g stroke-linecap="round"><g transform="translate(322.39611070242074 133.12550332286963) rotate(0 13.200974102601297 0)"><path d="M0 0 C4.4 0, 22 0, 26.4 0 M0 0 C4.4 0, 22 0, 26.4 0" stroke="#ffffff" stroke-width="4" fill="none"></path></g></g><mask></mask><g stroke-linecap="round"><g transform="translate(309.57668157981846 182.30261277490052) rotate(0 -12.079243916539433 0)"><path d="M0 0 C-4.03 0, -20.13 0, -24.16 0 M0 0 C-4.03 0, -20.13 0, -24.16 0" stroke="#ffffff" stroke-width="4" fill="none"></path></g></g><mask></mask><g stroke-linecap="round"><g transform="translate(256.46115996458013 182.009673027225) rotate(0 -28.945882783533676 0)"><path d="M0 0 C-9.65 0, -48.24 0, -57.89 0 M0 0 C-9.65 0, -48.24 0, -57.89 0" stroke="#ffffff" stroke-width="4" fill="none"></path></g></g><mask></mask><g stroke-linecap="round"><g transform="translate(199.09560098130225 212.91421365041987) rotate(0 55.36079025740908 0)"><path d="M0 0 C18.45 0, 92.27 0, 110.72 0 M0 0 C18.45 0, 92.27 0, 110.72 0" stroke="#ffffff" stroke-width="4" fill="none"></path></g></g><mask></mask><g stroke-linecap="round"><g transform="translate(309.91543083536146 242.48244270859522) rotate(0 -14.048449998142921 0)"><path d="M0 0 C-4.68 0, -23.41 0, -28.1 0 M0 0 C-4.68 0, -23.41 0, -28.1 0" stroke="#ffffff" stroke-width="4" fill="none"></path></g></g><mask></mask><g stroke-linecap="round"><g transform="translate(239.15782388114224 242.0273614133368) rotate(0 -20.018152181247032 0)"><path d="M0 0 C-6.67 0, -33.36 0, -40.04 0 M0 0 C-6.67 0, -33.36 0, -40.04 0" stroke="#ffffff" stroke-width="4" fill="none"></path></g></g><mask></mask><g stroke-linecap="round"><g transform="translate(83.37966602704375 174.56646887440246) rotate(0 40.275105788131924 40.530215594437955)" fill-rule="evenodd"><path d="M0 0 C0.01 7.37, 0.04 34.3, 0.05 44.25 C0.06 54.2, 0.05 55.48, 0.05 59.7 C0.05 63.91, -0.32 67.21, 0.05 69.55 C0.43 71.88, 1.2 72.65, 2.32 73.73 C3.44 74.8, 5.25 75.75, 6.77 75.99 C8.29 76.22, 10.18 75.77, 11.43 75.16 C12.69 74.56, 13.62 73.43, 14.29 72.38 C14.96 71.32, 15.25 70.24, 15.44 68.83 C15.63 67.42, 15.44 67.71, 15.44 63.9 C15.44 60.08, 15.44 50.34, 15.44 45.93 C15.44 41.52, 15.44 40.02, 15.44 37.42 C15.44 34.82, 14.8 30.96, 15.44 30.35 C16.08 29.74, 17.05 31.61, 19.28 33.77 C21.52 35.94, 24.25 38.74, 28.85 43.34 C33.45 47.94, 41.6 56.09, 46.89 61.38 C52.17 66.66, 57.12 71.86, 60.55 75.04 C63.98 78.22, 65.14 79.48, 67.45 80.48 C69.76 81.49, 72.52 81.52, 74.42 81.06 C76.32 80.6, 77.82 78.94, 78.84 77.72 C79.86 76.5, 80.4 75.38, 80.55 73.72 C80.7 72.06, 80.86 69.95, 79.77 67.77 C78.68 65.6, 76.47 63.39, 73.99 60.68 C71.5 57.97, 68.81 55.49, 64.84 51.51 C60.87 47.54, 54.88 41.55, 50.16 36.84 C45.45 32.12, 39.58 26.25, 36.55 23.22 C33.52 20.19, 33.17 19.84, 31.99 18.66 C30.81 17.48, 29.04 16.51, 29.47 16.14 C29.89 15.77, 31.56 16.38, 34.55 16.43 C37.53 16.48, 42.74 16.43, 47.38 16.43 C52.01 16.43, 59.18 16.43, 62.35 16.43 C65.53 16.43, 65.17 16.58, 66.43 16.43 C67.69 16.28, 68.95 16.15, 69.93 15.52 C70.92 14.88, 71.75 13.77, 72.33 12.62 C72.9 11.47, 73.41 9.99, 73.38 8.63 C73.35 7.26, 72.92 5.65, 72.14 4.41 C71.36 3.18, 70.19 1.96, 68.68 1.23 C67.16 0.49, 65.72 0.2, 63.04 0 C60.37 -0.2, 58.95 0, 52.61 0 C46.28 0, 33.8 0, 25.03 0 C16.26 0, 4.17 0, 0 0" stroke="none" stroke-width="0" fill="#9e75ed" fill-rule="evenodd"></path><path d="M0 0 C0.01 7.37, 0.04 34.3, 0.05 44.25 C0.06 54.2, 0.05 55.48, 0.05 59.7 C0.05 63.91, -0.32 67.21, 0.05 69.55 C0.43 71.88, 1.2 72.65, 2.32 73.73 C3.44 74.8, 5.25 75.75, 6.77 75.99 C8.29 76.22, 10.18 75.77, 11.43 75.16 C12.69 74.56, 13.62 73.43, 14.29 72.38 C14.96 71.32, 15.25 70.24, 15.44 68.83 C15.63 67.42, 15.44 67.71, 15.44 63.9 C15.44 60.08, 15.44 50.34, 15.44 45.93 C15.44 41.52, 15.44 40.02, 15.44 37.42 C15.44 34.82, 14.8 30.96, 15.44 30.35 C16.08 29.74, 17.05 31.61, 19.28 33.77 C21.52 35.94, 24.25 38.74, 28.85 43.34 C33.45 47.94, 41.6 56.09, 46.89 61.38 C52.17 66.66, 57.12 71.86, 60.55 75.04 C63.98 78.22, 65.14 79.48, 67.45 80.48 C69.76 81.49, 72.52 81.52, 74.42 81.06 C76.32 80.6, 77.82 78.94, 78.84 77.72 C79.86 76.5, 80.4 75.38, 80.55 73.72 C80.7 72.06, 80.86 69.95, 79.77 67.77 C78.68 65.6, 76.47 63.39, 73.99 60.68 C71.5 57.97, 68.81 55.49, 64.84 51.51 C60.87 47.54, 54.88 41.55, 50.16 36.84 C45.45 32.12, 39.58 26.25, 36.55 23.22 C33.52 20.19, 33.17 19.84, 31.99 18.66 C30.81 17.48, 29.04 16.51, 29.47 16.14 C29.89 15.77, 31.56 16.38, 34.55 16.43 C37.53 16.48, 42.74 16.43, 47.38 16.43 C52.01 16.43, 59.18 16.43, 62.35 16.43 C65.53 16.43, 65.17 16.58, 66.43 16.43 C67.69 16.28, 68.95 16.15, 69.93 15.52 C70.92 14.88, 71.75 13.77, 72.33 12.62 C72.9 11.47, 73.41 9.99, 73.38 8.63 C73.35 7.26, 72.92 5.65, 72.14 4.41 C71.36 3.18, 70.19 1.96, 68.68 1.23 C67.16 0.49, 65.72 0.2, 63.04 0 C60.37 -0.2, 58.95 0, 52.61 0 C46.28 0, 33.8 0, 25.03 0 C16.26 0, 4.17 0, 0 0 M0 0 C0.01 7.37, 0.04 34.3, 0.05 44.25 C0.06 54.2, 0.05 55.48, 0.05 59.7 C0.05 63.91, -0.32 67.21, 0.05 69.55 C0.43 71.88, 1.2 72.65, 2.32 73.73 C3.44 74.8, 5.25 75.75, 6.77 75.99 C8.29 76.22, 10.18 75.77, 11.43 75.16 C12.69 74.56, 13.62 73.43, 14.29 72.38 C14.96 71.32, 15.25 70.24, 15.44 68.83 C15.63 67.42, 15.44 67.71, 15.44 63.9 C15.44 60.08, 15.44 50.34, 15.44 45.93 C15.44 41.52, 15.44 40.02, 15.44 37.42 C15.44 34.82, 14.8 30.96, 15.44 30.35 C16.08 29.74, 17.05 31.61, 19.28 33.77 C21.52 35.94, 24.25 38.74, 28.85 43.34 C33.45 47.94, 41.6 56.09, 46.89 61.38 C52.17 66.66, 57.12 71.86, 60.55 75.04 C63.98 78.22, 65.14 79.48, 67.45 80.48 C69.76 81.49, 72.52 81.52, 74.42 81.06 C76.32 80.6, 77.82 78.94, 78.84 77.72 C79.86 76.5, 80.4 75.38, 80.55 73.72 C80.7 72.06, 80.86 69.95, 79.77 67.77 C78.68 65.6, 76.47 63.39, 73.99 60.68 C71.5 57.97, 68.81 55.49, 64.84 51.51 C60.87 47.54, 54.88 41.55, 50.16 36.84 C45.45 32.12, 39.58 26.25, 36.55 23.22 C33.52 20.19, 33.17 19.84, 31.99 18.66 C30.81 17.48, 29.04 16.51, 29.47 16.14 C29.89 15.77, 31.56 16.38, 34.55 16.43 C37.53 16.48, 42.74 16.43, 47.38 16.43 C52.01 16.43, 59.18 16.43, 62.35 16.43 C65.53 16.43, 65.17 16.58, 66.43 16.43 C67.69 16.28, 68.95 16.15, 69.93 15.52 C70.92 14.88, 71.75 13.77, 72.33 12.62 C72.9 11.47, 73.41 9.99, 73.38 8.63 C73.35 7.26, 72.92 5.65, 72.14 4.41 C71.36 3.18, 70.19 1.96, 68.68 1.23 C67.16 0.49, 65.72 0.2, 63.04 0 C60.37 -0.2, 58.95 0, 52.61 0 C46.28 0, 33.8 0, 25.03 0 C16.26 0, 4.17 0, 0 0" stroke="#b3a2fa" stroke-width="4" fill="none"></path></g></g><mask></mask><g stroke-linecap="round"><g transform="translate(53.47941927769409 317.80203950143147) rotate(0 0 -19.462772815054393)"><path d="M0 0 C0 -6.49, 0 -32.44, 0 -38.93 M0 0 C0 -6.49, 0 -32.44, 0 -38.93" stroke="#ffffff" stroke-width="4" fill="none"></path></g></g><mask></mask><g stroke-linecap="round"><g transform="translate(11.258333565809266 59.25430732516014) rotate(0 12.936535356868404 0)"><path d="M0 0 C4.31 0, 21.56 0, 25.87 0 M0 0 C4.31 0, 21.56 0, 25.87 0" stroke="#ffffff" stroke-width="4" fill="none"></path></g></g><mask></mask><g stroke-linecap="round"><g transform="translate(391.1287548576378 59.29613083813473) rotate(0 -160.48466119113726 0)"><path d="M0 0 C-53.49 0, -267.47 0, -320.97 0 M0 0 C-53.49 0, -267.47 0, -320.97 0" stroke="#ffffff" stroke-width="4" fill="none"></path></g></g><mask></mask><g stroke-linecap="round" transform="translate(76.70625181129128 31.853601735425116) rotate(0 5.820071520928593 5.820071520928593)"><path d="M11.64 5.82 C11.64 6.16, 11.61 6.5, 11.55 6.83 C11.49 7.16, 11.4 7.49, 11.29 7.81 C11.17 8.13, 11.03 8.44, 10.86 8.73 C10.69 9.02, 10.5 9.3, 10.28 9.56 C10.06 9.82, 9.82 10.06, 9.56 10.28 C9.3 10.5, 9.02 10.69, 8.73 10.86 C8.44 11.03, 8.13 11.17, 7.81 11.29 C7.49 11.4, 7.16 11.49, 6.83 11.55 C6.5 11.61, 6.16 11.64, 5.82 11.64 C5.48 11.64, 5.14 11.61, 4.81 11.55 C4.48 11.49, 4.15 11.4, 3.83 11.29 C3.51 11.17, 3.2 11.03, 2.91 10.86 C2.62 10.69, 2.34 10.5, 2.08 10.28 C1.82 10.06, 1.58 9.82, 1.36 9.56 C1.15 9.3, 0.95 9.02, 0.78 8.73 C0.61 8.44, 0.47 8.13, 0.35 7.81 C0.24 7.49, 0.15 7.16, 0.09 6.83 C0.03 6.5, 0 6.16, 0 5.82 C0 5.48, 0.03 5.14, 0.09 4.81 C0.15 4.48, 0.24 4.15, 0.35 3.83 C0.47 3.51, 0.61 3.2, 0.78 2.91 C0.95 2.62, 1.15 2.34, 1.36 2.08 C1.58 1.82, 1.82 1.58, 2.08 1.36 C2.34 1.15, 2.62 0.95, 2.91 0.78 C3.2 0.61, 3.51 0.47, 3.83 0.35 C4.15 0.24, 4.48 0.15, 4.81 0.09 C5.14 0.03, 5.48 0, 5.82 0 C6.16 0, 6.5 0.03, 6.83 0.09 C7.16 0.15, 7.49 0.24, 7.81 0.35 C8.13 0.47, 8.44 0.61, 8.73 0.78 C9.02 0.95, 9.3 1.15, 9.56 1.36 C9.82 1.58, 10.06 1.82, 10.28 2.08 C10.5 2.34, 10.69 2.62, 10.86 2.91 C11.03 3.2, 11.17 3.51, 11.29 3.83 C11.4 4.15, 11.49 4.48, 11.55 4.81 C11.61 5.14, 11.63 5.65, 11.64 5.82 C11.65 5.99, 11.65 5.65, 11.64 5.82" stroke="none" stroke-width="0" fill="#b3a2fa"></path><path d="M11.64 5.82 C11.64 6.16, 11.61 6.5, 11.55 6.83 C11.49 7.16, 11.4 7.49, 11.29 7.81 C11.17 8.13, 11.03 8.44, 10.86 8.73 C10.69 9.02, 10.5 9.3, 10.28 9.56 C10.06 9.82, 9.82 10.06, 9.56 10.28 C9.3 10.5, 9.02 10.69, 8.73 10.86 C8.44 11.03, 8.13 11.17, 7.81 11.29 C7.49 11.4, 7.16 11.49, 6.83 11.55 C6.5 11.61, 6.16 11.64, 5.82 11.64 C5.48 11.64, 5.14 11.61, 4.81 11.55 C4.48 11.49, 4.15 11.4, 3.83 11.29 C3.51 11.17, 3.2 11.03, 2.91 10.86 C2.62 10.69, 2.34 10.5, 2.08 10.28 C1.82 10.06, 1.58 9.82, 1.36 9.56 C1.15 9.3, 0.95 9.02, 0.78 8.73 C0.61 8.44, 0.47 8.13, 0.35 7.81 C0.24 7.49, 0.15 7.16, 0.09 6.83 C0.03 6.5, 0 6.16, 0 5.82 C0 5.48, 0.03 5.14, 0.09 4.81 C0.15 4.48, 0.24 4.15, 0.35 3.83 C0.47 3.51, 0.61 3.2, 0.78 2.91 C0.95 2.62, 1.15 2.34, 1.36 2.08 C1.58 1.82, 1.82 1.58, 2.08 1.36 C2.34 1.15, 2.62 0.95, 2.91 0.78 C3.2 0.61, 3.51 0.47, 3.83 0.35 C4.15 0.24, 4.48 0.15, 4.81 0.09 C5.14 0.03, 5.48 0, 5.82 0 C6.16 0, 6.5 0.03, 6.83 0.09 C7.16 0.15, 7.49 0.24, 7.81 0.35 C8.13 0.47, 8.44 0.61, 8.73 0.78 C9.02 0.95, 9.3 1.15, 9.56 1.36 C9.82 1.58, 10.06 1.82, 10.28 2.08 C10.5 2.34, 10.69 2.62, 10.86 2.91 C11.03 3.2, 11.17 3.51, 11.29 3.83 C11.4 4.15, 11.49 4.48, 11.55 4.81 C11.61 5.14, 11.63 5.65, 11.64 5.82 C11.65 5.99, 11.65 5.65, 11.64 5.82" stroke="#b3a2fa" stroke-width="4" fill="none"></path></g><g stroke-linecap="round" transform="translate(52.08539384013386 32.01360616391452) rotate(0 5.820071520928593 5.820071520928593)"><path d="M11.64 5.82 C11.64 6.16, 11.61 6.5, 11.55 6.83 C11.49 7.16, 11.4 7.49, 11.29 7.81 C11.17 8.13, 11.03 8.44, 10.86 8.73 C10.69 9.02, 10.5 9.3, 10.28 9.56 C10.06 9.82, 9.82 10.06, 9.56 10.28 C9.3 10.5, 9.02 10.69, 8.73 10.86 C8.44 11.03, 8.13 11.17, 7.81 11.29 C7.49 11.4, 7.16 11.49, 6.83 11.55 C6.5 11.61, 6.16 11.64, 5.82 11.64 C5.48 11.64, 5.14 11.61, 4.81 11.55 C4.48 11.49, 4.15 11.4, 3.83 11.29 C3.51 11.17, 3.2 11.03, 2.91 10.86 C2.62 10.69, 2.34 10.5, 2.08 10.28 C1.82 10.06, 1.58 9.82, 1.36 9.56 C1.15 9.3, 0.95 9.02, 0.78 8.73 C0.61 8.44, 0.47 8.13, 0.35 7.81 C0.24 7.49, 0.15 7.16, 0.09 6.83 C0.03 6.5, 0 6.16, 0 5.82 C0 5.48, 0.03 5.14, 0.09 4.81 C0.15 4.48, 0.24 4.15, 0.35 3.83 C0.47 3.51, 0.61 3.2, 0.78 2.91 C0.95 2.62, 1.15 2.34, 1.36 2.08 C1.58 1.82, 1.82 1.58, 2.08 1.36 C2.34 1.15, 2.62 0.95, 2.91 0.78 C3.2 0.61, 3.51 0.47, 3.83 0.35 C4.15 0.24, 4.48 0.15, 4.81 0.09 C5.14 0.03, 5.48 0, 5.82 0 C6.16 0, 6.5 0.03, 6.83 0.09 C7.16 0.15, 7.49 0.24, 7.81 0.35 C8.13 0.47, 8.44 0.61, 8.73 0.78 C9.02 0.95, 9.3 1.15, 9.56 1.36 C9.82 1.58, 10.06 1.82, 10.28 2.08 C10.5 2.34, 10.69 2.62, 10.86 2.91 C11.03 3.2, 11.17 3.51, 11.29 3.83 C11.4 4.15, 11.49 4.48, 11.55 4.81 C11.61 5.14, 11.63 5.65, 11.64 5.82 C11.65 5.99, 11.65 5.65, 11.64 5.82" stroke="none" stroke-width="0" fill="#9e75ed"></path><path d="M11.64 5.82 C11.64 6.16, 11.61 6.5, 11.55 6.83 C11.49 7.16, 11.4 7.49, 11.29 7.81 C11.17 8.13, 11.03 8.44, 10.86 8.73 C10.69 9.02, 10.5 9.3, 10.28 9.56 C10.06 9.82, 9.82 10.06, 9.56 10.28 C9.3 10.5, 9.02 10.69, 8.73 10.86 C8.44 11.03, 8.13 11.17, 7.81 11.29 C7.49 11.4, 7.16 11.49, 6.83 11.55 C6.5 11.61, 6.16 11.64, 5.82 11.64 C5.48 11.64, 5.14 11.61, 4.81 11.55 C4.48 11.49, 4.15 11.4, 3.83 11.29 C3.51 11.17, 3.2 11.03, 2.91 10.86 C2.62 10.69, 2.34 10.5, 2.08 10.28 C1.82 10.06, 1.58 9.82, 1.36 9.56 C1.15 9.3, 0.95 9.02, 0.78 8.73 C0.61 8.44, 0.47 8.13, 0.35 7.81 C0.24 7.49, 0.15 7.16, 0.09 6.83 C0.03 6.5, 0 6.16, 0 5.82 C0 5.48, 0.03 5.14, 0.09 4.81 C0.15 4.48, 0.24 4.15, 0.35 3.83 C0.47 3.51, 0.61 3.2, 0.78 2.91 C0.95 2.62, 1.15 2.34, 1.36 2.08 C1.58 1.82, 1.82 1.58, 2.08 1.36 C2.34 1.15, 2.62 0.95, 2.91 0.78 C3.2 0.61, 3.51 0.47, 3.83 0.35 C4.15 0.24, 4.48 0.15, 4.81 0.09 C5.14 0.03, 5.48 0, 5.82 0 C6.16 0, 6.5 0.03, 6.83 0.09 C7.16 0.15, 7.49 0.24, 7.81 0.35 C8.13 0.47, 8.44 0.61, 8.73 0.78 C9.02 0.95, 9.3 1.15, 9.56 1.36 C9.82 1.58, 10.06 1.82, 10.28 2.08 C10.5 2.34, 10.69 2.62, 10.86 2.91 C11.03 3.2, 11.17 3.51, 11.29 3.83 C11.4 4.15, 11.49 4.48, 11.55 4.81 C11.61 5.14, 11.63 5.65, 11.64 5.82 C11.65 5.99, 11.65 5.65, 11.64 5.82" stroke="#9e75ed" stroke-width="4" fill="none"></path></g><g stroke-linecap="round" transform="translate(27.88068679849914 32.103810869027654) rotate(0 5.820071520928593 5.820071520928593)"><path d="M11.64 5.82 C11.64 6.16, 11.61 6.5, 11.55 6.83 C11.49 7.16, 11.4 7.49, 11.29 7.81 C11.17 8.13, 11.03 8.44, 10.86 8.73 C10.69 9.02, 10.5 9.3, 10.28 9.56 C10.06 9.82, 9.82 10.06, 9.56 10.28 C9.3 10.5, 9.02 10.69, 8.73 10.86 C8.44 11.03, 8.13 11.17, 7.81 11.29 C7.49 11.4, 7.16 11.49, 6.83 11.55 C6.5 11.61, 6.16 11.64, 5.82 11.64 C5.48 11.64, 5.14 11.61, 4.81 11.55 C4.48 11.49, 4.15 11.4, 3.83 11.29 C3.51 11.17, 3.2 11.03, 2.91 10.86 C2.62 10.69, 2.34 10.5, 2.08 10.28 C1.82 10.06, 1.58 9.82, 1.36 9.56 C1.15 9.3, 0.95 9.02, 0.78 8.73 C0.61 8.44, 0.47 8.13, 0.35 7.81 C0.24 7.49, 0.15 7.16, 0.09 6.83 C0.03 6.5, 0 6.16, 0 5.82 C0 5.48, 0.03 5.14, 0.09 4.81 C0.15 4.48, 0.24 4.15, 0.35 3.83 C0.47 3.51, 0.61 3.2, 0.78 2.91 C0.95 2.62, 1.15 2.34, 1.36 2.08 C1.58 1.82, 1.82 1.58, 2.08 1.36 C2.34 1.15, 2.62 0.95, 2.91 0.78 C3.2 0.61, 3.51 0.47, 3.83 0.35 C4.15 0.24, 4.48 0.15, 4.81 0.09 C5.14 0.03, 5.48 0, 5.82 0 C6.16 0, 6.5 0.03, 6.83 0.09 C7.16 0.15, 7.49 0.24, 7.81 0.35 C8.13 0.47, 8.44 0.61, 8.73 0.78 C9.02 0.95, 9.3 1.15, 9.56 1.36 C9.82 1.58, 10.06 1.82, 10.28 2.08 C10.5 2.34, 10.69 2.62, 10.86 2.91 C11.03 3.2, 11.17 3.51, 11.29 3.83 C11.4 4.15, 11.49 4.48, 11.55 4.81 C11.61 5.14, 11.63 5.65, 11.64 5.82 C11.65 5.99, 11.65 5.65, 11.64 5.82" stroke="none" stroke-width="0" fill="#5e34b0"></path><path d="M11.64 5.82 C11.64 6.16, 11.61 6.5, 11.55 6.83 C11.49 7.16, 11.4 7.49, 11.29 7.81 C11.17 8.13, 11.03 8.44, 10.86 8.73 C10.69 9.02, 10.5 9.3, 10.28 9.56 C10.06 9.82, 9.82 10.06, 9.56 10.28 C9.3 10.5, 9.02 10.69, 8.73 10.86 C8.44 11.03, 8.13 11.17, 7.81 11.29 C7.49 11.4, 7.16 11.49, 6.83 11.55 C6.5 11.61, 6.16 11.64, 5.82 11.64 C5.48 11.64, 5.14 11.61, 4.81 11.55 C4.48 11.49, 4.15 11.4, 3.83 11.29 C3.51 11.17, 3.2 11.03, 2.91 10.86 C2.62 10.69, 2.34 10.5, 2.08 10.28 C1.82 10.06, 1.58 9.82, 1.36 9.56 C1.15 9.3, 0.95 9.02, 0.78 8.73 C0.61 8.44, 0.47 8.13, 0.35 7.81 C0.24 7.49, 0.15 7.16, 0.09 6.83 C0.03 6.5, 0 6.16, 0 5.82 C0 5.48, 0.03 5.14, 0.09 4.81 C0.15 4.48, 0.24 4.15, 0.35 3.83 C0.47 3.51, 0.61 3.2, 0.78 2.91 C0.95 2.62, 1.15 2.34, 1.36 2.08 C1.58 1.82, 1.82 1.58, 2.08 1.36 C2.34 1.15, 2.62 0.95, 2.91 0.78 C3.2 0.61, 3.51 0.47, 3.83 0.35 C4.15 0.24, 4.48 0.15, 4.81 0.09 C5.14 0.03, 5.48 0, 5.82 0 C6.16 0, 6.5 0.03, 6.83 0.09 C7.16 0.15, 7.49 0.24, 7.81 0.35 C8.13 0.47, 8.44 0.61, 8.73 0.78 C9.02 0.95, 9.3 1.15, 9.56 1.36 C9.82 1.58, 10.06 1.82, 10.28 2.08 C10.5 2.34, 10.69 2.62, 10.86 2.91 C11.03 3.2, 11.17 3.51, 11.29 3.83 C11.4 4.15, 11.49 4.48, 11.55 4.81 C11.61 5.14, 11.63 5.65, 11.64 5.82 C11.65 5.99, 11.65 5.65, 11.64 5.82" stroke="#5e34b0" stroke-width="4" fill="none"></path></g><g stroke-linecap="round" transform="translate(119.37755812962689 106.48690187279607) rotate(0 5.820071520928593 5.820071520928593)"><path d="M11.64 5.82 C11.64 6.16, 11.61 6.5, 11.55 6.83 C11.49 7.16, 11.4 7.49, 11.29 7.81 C11.17 8.13, 11.03 8.44, 10.86 8.73 C10.69 9.02, 10.5 9.3, 10.28 9.56 C10.06 9.82, 9.82 10.06, 9.56 10.28 C9.3 10.5, 9.02 10.69, 8.73 10.86 C8.44 11.03, 8.13 11.17, 7.81 11.29 C7.49 11.4, 7.16 11.49, 6.83 11.55 C6.5 11.61, 6.16 11.64, 5.82 11.64 C5.48 11.64, 5.14 11.61, 4.81 11.55 C4.48 11.49, 4.15 11.4, 3.83 11.29 C3.51 11.17, 3.2 11.03, 2.91 10.86 C2.62 10.69, 2.34 10.5, 2.08 10.28 C1.82 10.06, 1.58 9.82, 1.36 9.56 C1.15 9.3, 0.95 9.02, 0.78 8.73 C0.61 8.44, 0.47 8.13, 0.35 7.81 C0.24 7.49, 0.15 7.16, 0.09 6.83 C0.03 6.5, 0 6.16, 0 5.82 C0 5.48, 0.03 5.14, 0.09 4.81 C0.15 4.48, 0.24 4.15, 0.35 3.83 C0.47 3.51, 0.61 3.2, 0.78 2.91 C0.95 2.62, 1.15 2.34, 1.36 2.08 C1.58 1.82, 1.82 1.58, 2.08 1.36 C2.34 1.15, 2.62 0.95, 2.91 0.78 C3.2 0.61, 3.51 0.47, 3.83 0.35 C4.15 0.24, 4.48 0.15, 4.81 0.09 C5.14 0.03, 5.48 0, 5.82 0 C6.16 0, 6.5 0.03, 6.83 0.09 C7.16 0.15, 7.49 0.24, 7.81 0.35 C8.13 0.47, 8.44 0.61, 8.73 0.78 C9.02 0.95, 9.3 1.15, 9.56 1.36 C9.82 1.58, 10.06 1.82, 10.28 2.08 C10.5 2.34, 10.69 2.62, 10.86 2.91 C11.03 3.2, 11.17 3.51, 11.29 3.83 C11.4 4.15, 11.49 4.48, 11.55 4.81 C11.61 5.14, 11.63 5.65, 11.64 5.82 C11.65 5.99, 11.65 5.65, 11.64 5.82" stroke="none" stroke-width="0" fill="#b3a2fa"></path><path d="M11.64 5.82 C11.64 6.16, 11.61 6.5, 11.55 6.83 C11.49 7.16, 11.4 7.49, 11.29 7.81 C11.17 8.13, 11.03 8.44, 10.86 8.73 C10.69 9.02, 10.5 9.3, 10.28 9.56 C10.06 9.82, 9.82 10.06, 9.56 10.28 C9.3 10.5, 9.02 10.69, 8.73 10.86 C8.44 11.03, 8.13 11.17, 7.81 11.29 C7.49 11.4, 7.16 11.49, 6.83 11.55 C6.5 11.61, 6.16 11.64, 5.82 11.64 C5.48 11.64, 5.14 11.61, 4.81 11.55 C4.48 11.49, 4.15 11.4, 3.83 11.29 C3.51 11.17, 3.2 11.03, 2.91 10.86 C2.62 10.69, 2.34 10.5, 2.08 10.28 C1.82 10.06, 1.58 9.82, 1.36 9.56 C1.15 9.3, 0.95 9.02, 0.78 8.73 C0.61 8.44, 0.47 8.13, 0.35 7.81 C0.24 7.49, 0.15 7.16, 0.09 6.83 C0.03 6.5, 0 6.16, 0 5.82 C0 5.48, 0.03 5.14, 0.09 4.81 C0.15 4.48, 0.24 4.15, 0.35 3.83 C0.47 3.51, 0.61 3.2, 0.78 2.91 C0.95 2.62, 1.15 2.34, 1.36 2.08 C1.58 1.82, 1.82 1.58, 2.08 1.36 C2.34 1.15, 2.62 0.95, 2.91 0.78 C3.2 0.61, 3.51 0.47, 3.83 0.35 C4.15 0.24, 4.48 0.15, 4.81 0.09 C5.14 0.03, 5.48 0, 5.82 0 C6.16 0, 6.5 0.03, 6.83 0.09 C7.16 0.15, 7.49 0.24, 7.81 0.35 C8.13 0.47, 8.44 0.61, 8.73 0.78 C9.02 0.95, 9.3 1.15, 9.56 1.36 C9.82 1.58, 10.06 1.82, 10.28 2.08 C10.5 2.34, 10.69 2.62, 10.86 2.91 C11.03 3.2, 11.17 3.51, 11.29 3.83 C11.4 4.15, 11.49 4.48, 11.55 4.81 C11.61 5.14, 11.63 5.65, 11.64 5.82 C11.65 5.99, 11.65 5.65, 11.64 5.82" stroke="#b3a2fa" stroke-width="4" fill="none"></path></g><g stroke-linecap="round" transform="translate(94.75670015846993 106.6469063012857) rotate(0 5.820071520928593 5.820071520928593)"><path d="M11.64 5.82 C11.64 6.16, 11.61 6.5, 11.55 6.83 C11.49 7.16, 11.4 7.49, 11.29 7.81 C11.17 8.13, 11.03 8.44, 10.86 8.73 C10.69 9.02, 10.5 9.3, 10.28 9.56 C10.06 9.82, 9.82 10.06, 9.56 10.28 C9.3 10.5, 9.02 10.69, 8.73 10.86 C8.44 11.03, 8.13 11.17, 7.81 11.29 C7.49 11.4, 7.16 11.49, 6.83 11.55 C6.5 11.61, 6.16 11.64, 5.82 11.64 C5.48 11.64, 5.14 11.61, 4.81 11.55 C4.48 11.49, 4.15 11.4, 3.83 11.29 C3.51 11.17, 3.2 11.03, 2.91 10.86 C2.62 10.69, 2.34 10.5, 2.08 10.28 C1.82 10.06, 1.58 9.82, 1.36 9.56 C1.15 9.3, 0.95 9.02, 0.78 8.73 C0.61 8.44, 0.47 8.13, 0.35 7.81 C0.24 7.49, 0.15 7.16, 0.09 6.83 C0.03 6.5, 0 6.16, 0 5.82 C0 5.48, 0.03 5.14, 0.09 4.81 C0.15 4.48, 0.24 4.15, 0.35 3.83 C0.47 3.51, 0.61 3.2, 0.78 2.91 C0.95 2.62, 1.15 2.34, 1.36 2.08 C1.58 1.82, 1.82 1.58, 2.08 1.36 C2.34 1.15, 2.62 0.95, 2.91 0.78 C3.2 0.61, 3.51 0.47, 3.83 0.35 C4.15 0.24, 4.48 0.15, 4.81 0.09 C5.14 0.03, 5.48 0, 5.82 0 C6.16 0, 6.5 0.03, 6.83 0.09 C7.16 0.15, 7.49 0.24, 7.81 0.35 C8.13 0.47, 8.44 0.61, 8.73 0.78 C9.02 0.95, 9.3 1.15, 9.56 1.36 C9.82 1.58, 10.06 1.82, 10.28 2.08 C10.5 2.34, 10.69 2.62, 10.86 2.91 C11.03 3.2, 11.17 3.51, 11.29 3.83 C11.4 4.15, 11.49 4.48, 11.55 4.81 C11.61 5.14, 11.63 5.65, 11.64 5.82 C11.65 5.99, 11.65 5.65, 11.64 5.82" stroke="none" stroke-width="0" fill="#9e75ed"></path><path d="M11.64 5.82 C11.64 6.16, 11.61 6.5, 11.55 6.83 C11.49 7.16, 11.4 7.49, 11.29 7.81 C11.17 8.13, 11.03 8.44, 10.86 8.73 C10.69 9.02, 10.5 9.3, 10.28 9.56 C10.06 9.82, 9.82 10.06, 9.56 10.28 C9.3 10.5, 9.02 10.69, 8.73 10.86 C8.44 11.03, 8.13 11.17, 7.81 11.29 C7.49 11.4, 7.16 11.49, 6.83 11.55 C6.5 11.61, 6.16 11.64, 5.82 11.64 C5.48 11.64, 5.14 11.61, 4.81 11.55 C4.48 11.49, 4.15 11.4, 3.83 11.29 C3.51 11.17, 3.2 11.03, 2.91 10.86 C2.62 10.69, 2.34 10.5, 2.08 10.28 C1.82 10.06, 1.58 9.82, 1.36 9.56 C1.15 9.3, 0.95 9.02, 0.78 8.73 C0.61 8.44, 0.47 8.13, 0.35 7.81 C0.24 7.49, 0.15 7.16, 0.09 6.83 C0.03 6.5, 0 6.16, 0 5.82 C0 5.48, 0.03 5.14, 0.09 4.81 C0.15 4.48, 0.24 4.15, 0.35 3.83 C0.47 3.51, 0.61 3.2, 0.78 2.91 C0.95 2.62, 1.15 2.34, 1.36 2.08 C1.58 1.82, 1.82 1.58, 2.08 1.36 C2.34 1.15, 2.62 0.95, 2.91 0.78 C3.2 0.61, 3.51 0.47, 3.83 0.35 C4.15 0.24, 4.48 0.15, 4.81 0.09 C5.14 0.03, 5.48 0, 5.82 0 C6.16 0, 6.5 0.03, 6.83 0.09 C7.16 0.15, 7.49 0.24, 7.81 0.35 C8.13 0.47, 8.44 0.61, 8.73 0.78 C9.02 0.95, 9.3 1.15, 9.56 1.36 C9.82 1.58, 10.06 1.82, 10.28 2.08 C10.5 2.34, 10.69 2.62, 10.86 2.91 C11.03 3.2, 11.17 3.51, 11.29 3.83 C11.4 4.15, 11.49 4.48, 11.55 4.81 C11.61 5.14, 11.63 5.65, 11.64 5.82 C11.65 5.99, 11.65 5.65, 11.64 5.82" stroke="#9e75ed" stroke-width="4" fill="none"></path></g><g stroke-linecap="round" transform="translate(70.5719386611105 106.7371110063986) rotate(0 5.820071520928593 5.820071520928593)"><path d="M11.64 5.82 C11.64 6.16, 11.61 6.5, 11.55 6.83 C11.49 7.16, 11.4 7.49, 11.29 7.81 C11.17 8.13, 11.03 8.44, 10.86 8.73 C10.69 9.02, 10.5 9.3, 10.28 9.56 C10.06 9.82, 9.82 10.06, 9.56 10.28 C9.3 10.5, 9.02 10.69, 8.73 10.86 C8.44 11.03, 8.13 11.17, 7.81 11.29 C7.49 11.4, 7.16 11.49, 6.83 11.55 C6.5 11.61, 6.16 11.64, 5.82 11.64 C5.48 11.64, 5.14 11.61, 4.81 11.55 C4.48 11.49, 4.15 11.4, 3.83 11.29 C3.51 11.17, 3.2 11.03, 2.91 10.86 C2.62 10.69, 2.34 10.5, 2.08 10.28 C1.82 10.06, 1.58 9.82, 1.36 9.56 C1.15 9.3, 0.95 9.02, 0.78 8.73 C0.61 8.44, 0.47 8.13, 0.35 7.81 C0.24 7.49, 0.15 7.16, 0.09 6.83 C0.03 6.5, 0 6.16, 0 5.82 C0 5.48, 0.03 5.14, 0.09 4.81 C0.15 4.48, 0.24 4.15, 0.35 3.83 C0.47 3.51, 0.61 3.2, 0.78 2.91 C0.95 2.62, 1.15 2.34, 1.36 2.08 C1.58 1.82, 1.82 1.58, 2.08 1.36 C2.34 1.15, 2.62 0.95, 2.91 0.78 C3.2 0.61, 3.51 0.47, 3.83 0.35 C4.15 0.24, 4.48 0.15, 4.81 0.09 C5.14 0.03, 5.48 0, 5.82 0 C6.16 0, 6.5 0.03, 6.83 0.09 C7.16 0.15, 7.49 0.24, 7.81 0.35 C8.13 0.47, 8.44 0.61, 8.73 0.78 C9.02 0.95, 9.3 1.15, 9.56 1.36 C9.82 1.58, 10.06 1.82, 10.28 2.08 C10.5 2.34, 10.69 2.62, 10.86 2.91 C11.03 3.2, 11.17 3.51, 11.29 3.83 C11.4 4.15, 11.49 4.48, 11.55 4.81 C11.61 5.14, 11.63 5.65, 11.64 5.82 C11.65 5.99, 11.65 5.65, 11.64 5.82" stroke="none" stroke-width="0" fill="#5e34b0"></path><path d="M11.64 5.82 C11.64 6.16, 11.61 6.5, 11.55 6.83 C11.49 7.16, 11.4 7.49, 11.29 7.81 C11.17 8.13, 11.03 8.44, 10.86 8.73 C10.69 9.02, 10.5 9.3, 10.28 9.56 C10.06 9.82, 9.82 10.06, 9.56 10.28 C9.3 10.5, 9.02 10.69, 8.73 10.86 C8.44 11.03, 8.13 11.17, 7.81 11.29 C7.49 11.4, 7.16 11.49, 6.83 11.55 C6.5 11.61, 6.16 11.64, 5.82 11.64 C5.48 11.64, 5.14 11.61, 4.81 11.55 C4.48 11.49, 4.15 11.4, 3.83 11.29 C3.51 11.17, 3.2 11.03, 2.91 10.86 C2.62 10.69, 2.34 10.5, 2.08 10.28 C1.82 10.06, 1.58 9.82, 1.36 9.56 C1.15 9.3, 0.95 9.02, 0.78 8.73 C0.61 8.44, 0.47 8.13, 0.35 7.81 C0.24 7.49, 0.15 7.16, 0.09 6.83 C0.03 6.5, 0 6.16, 0 5.82 C0 5.48, 0.03 5.14, 0.09 4.81 C0.15 4.48, 0.24 4.15, 0.35 3.83 C0.47 3.51, 0.61 3.2, 0.78 2.91 C0.95 2.62, 1.15 2.34, 1.36 2.08 C1.58 1.82, 1.82 1.58, 2.08 1.36 C2.34 1.15, 2.62 0.95, 2.91 0.78 C3.2 0.61, 3.51 0.47, 3.83 0.35 C4.15 0.24, 4.48 0.15, 4.81 0.09 C5.14 0.03, 5.48 0, 5.82 0 C6.16 0, 6.5 0.03, 6.83 0.09 C7.16 0.15, 7.49 0.24, 7.81 0.35 C8.13 0.47, 8.44 0.61, 8.73 0.78 C9.02 0.95, 9.3 1.15, 9.56 1.36 C9.82 1.58, 10.06 1.82, 10.28 2.08 C10.5 2.34, 10.69 2.62, 10.86 2.91 C11.03 3.2, 11.17 3.51, 11.29 3.83 C11.4 4.15, 11.49 4.48, 11.55 4.81 C11.61 5.14, 11.63 5.65, 11.64 5.82 C11.65 5.99, 11.65 5.65, 11.64 5.82" stroke="#5e34b0" stroke-width="4" fill="none"></path></g></svg>