<svg version="1.1" xmlns="http://www.w3.org/2000/svg" viewBox="0 0 1042.326041849943 1043.0559485850172" width="1042.326041849943" height="1043.0559485850172" class="excalidraw-svg"><!-- svg-source:excalidraw --><metadata></metadata><defs><style class="style-fonts">
      </style></defs><rect x="0" y="0" width="1042.326041849943" height="1043.0559485850172" fill="#000000"></rect><g stroke-linecap="round" transform="translate(10.000000000000057 10.72990673507411) rotate(316.86794743929653 511.1630209249715 511.16302092497153)"><path d="M1022.33 511.16 C1022.33 518.39, 1022.17 525.63, 1021.87 532.86 C1021.56 540.08, 1021.1 547.31, 1020.48 554.51 C1019.87 561.72, 1019.1 568.92, 1018.19 576.09 C1017.27 583.26, 1016.2 590.42, 1014.97 597.55 C1013.75 604.68, 1012.38 611.79, 1010.85 618.85 C1009.33 625.92, 1007.65 632.97, 1005.83 639.96 C1004.01 646.96, 1002.04 653.93, 999.92 660.84 C997.8 667.76, 995.54 674.63, 993.13 681.45 C990.72 688.27, 988.16 695.04, 985.47 701.75 C982.77 708.46, 979.93 715.12, 976.95 721.71 C973.97 728.3, 970.85 734.83, 967.59 741.29 C964.34 747.75, 960.94 754.14, 957.42 760.45 C953.89 766.77, 950.22 773.01, 946.43 779.17 C942.64 785.33, 938.72 791.41, 934.67 797.4 C930.62 803.39, 926.44 809.3, 922.14 815.12 C917.84 820.93, 913.41 826.66, 908.87 832.29 C904.32 837.91, 899.66 843.45, 894.88 848.88 C890.1 854.3, 885.2 859.64, 880.2 864.86 C875.2 870.08, 870.08 875.2, 864.86 880.2 C859.64 885.2, 854.3 890.1, 848.88 894.88 C843.45 899.66, 837.91 904.32, 832.29 908.87 C826.66 913.41, 820.93 917.84, 815.12 922.14 C809.3 926.44, 803.39 930.62, 797.4 934.67 C791.41 938.72, 785.33 942.64, 779.17 946.43 C773.01 950.22, 766.77 953.89, 760.45 957.42 C754.14 960.94, 747.75 964.34, 741.29 967.59 C734.83 970.85, 728.3 973.97, 721.71 976.95 C715.12 979.93, 708.46 982.77, 701.75 985.47 C695.04 988.16, 688.27 990.72, 681.45 993.13 C674.63 995.54, 667.76 997.8, 660.84 999.92 C653.93 1002.04, 646.96 1004.01, 639.96 1005.83 C632.97 1007.65, 625.92 1009.33, 618.85 1010.85 C611.79 1012.38, 604.68 1013.75, 597.55 1014.97 C590.42 1016.2, 583.26 1017.27, 576.09 1018.19 C568.92 1019.1, 561.72 1019.87, 554.51 1020.48 C547.31 1021.1, 540.08 1021.56, 532.86 1021.87 C525.63 1022.17, 518.39 1022.33, 511.16 1022.33 C503.93 1022.33, 496.69 1022.17, 489.47 1021.87 C482.24 1021.56, 475.02 1021.1, 467.81 1020.48 C460.61 1019.87, 453.41 1019.1, 446.24 1018.19 C439.06 1017.27, 431.9 1016.2, 424.78 1014.97 C417.65 1013.75, 410.54 1012.38, 403.47 1010.85 C396.4 1009.33, 389.36 1007.65, 382.36 1005.83 C375.36 1004.01, 368.4 1002.04, 361.48 999.92 C354.57 997.8, 347.69 995.54, 340.87 993.13 C334.06 990.72, 327.28 988.16, 320.57 985.47 C313.86 982.77, 307.2 979.93, 300.61 976.95 C294.02 973.97, 287.49 970.85, 281.04 967.59 C274.58 964.34, 268.18 960.94, 261.87 957.42 C255.56 953.89, 249.31 950.22, 243.16 946.43 C237 942.64, 230.92 938.72, 224.92 934.67 C218.93 930.62, 213.02 926.44, 207.21 922.14 C201.39 917.84, 195.67 913.41, 190.04 908.87 C184.41 904.32, 178.88 899.66, 173.45 894.88 C168.02 890.1, 162.69 885.2, 157.47 880.2 C152.25 875.2, 147.13 870.08, 142.13 864.86 C137.12 859.64, 132.22 854.3, 127.45 848.88 C122.67 843.45, 118 837.91, 113.46 832.29 C108.92 826.66, 104.49 820.93, 100.19 815.12 C95.89 809.3, 91.71 803.39, 87.66 797.4 C83.61 791.41, 79.68 785.33, 75.89 779.17 C72.1 773.01, 68.44 766.77, 64.91 760.45 C61.38 754.14, 57.99 747.75, 54.73 741.29 C51.48 734.83, 48.36 728.3, 45.38 721.71 C42.4 715.12, 39.56 708.46, 36.86 701.75 C34.16 695.04, 31.61 688.27, 29.2 681.45 C26.79 674.63, 24.52 667.76, 22.41 660.84 C20.29 653.93, 18.32 646.96, 16.49 639.96 C14.67 632.97, 13 625.92, 11.47 618.85 C9.95 611.79, 8.57 604.68, 7.35 597.55 C6.13 590.42, 5.06 583.26, 4.14 576.09 C3.22 568.92, 2.45 561.72, 1.84 554.51 C1.23 547.31, 0.77 540.08, 0.46 532.86 C0.15 525.63, 0 518.39, 0 511.16 C0 503.93, 0.15 496.69, 0.46 489.47 C0.77 482.24, 1.23 475.02, 1.84 467.81 C2.45 460.61, 3.22 453.41, 4.14 446.24 C5.06 439.06, 6.13 431.9, 7.35 424.78 C8.57 417.65, 9.95 410.54, 11.47 403.47 C13 396.4, 14.67 389.36, 16.49 382.36 C18.32 375.36, 20.29 368.4, 22.41 361.48 C24.52 354.57, 26.79 347.69, 29.2 340.87 C31.61 334.06, 34.16 327.28, 36.86 320.57 C39.56 313.86, 42.4 307.2, 45.38 300.61 C48.36 294.02, 51.48 287.49, 54.73 281.04 C57.99 274.58, 61.38 268.18, 64.91 261.87 C68.44 255.56, 72.1 249.31, 75.89 243.16 C79.68 237, 83.61 230.92, 87.66 224.92 C91.71 218.93, 95.89 213.02, 100.19 207.21 C104.49 201.39, 108.92 195.67, 113.46 190.04 C118 184.41, 122.67 178.88, 127.45 173.45 C132.22 168.02, 137.12 162.69, 142.13 157.47 C147.13 152.25, 152.25 147.13, 157.47 142.13 C162.69 137.12, 168.02 132.22, 173.45 127.45 C178.88 122.67, 184.41 118, 190.04 113.46 C195.67 108.92, 201.39 104.49, 207.21 100.19 C213.02 95.89, 218.93 91.71, 224.92 87.66 C230.92 83.61, 237 79.68, 243.16 75.89 C249.31 72.1, 255.56 68.44, 261.87 64.91 C268.18 61.38, 274.58 57.99, 281.04 54.73 C287.49 51.48, 294.02 48.36, 300.61 45.38 C307.2 42.4, 313.86 39.56, 320.57 36.86 C327.28 34.16, 334.06 31.61, 340.87 29.2 C347.69 26.79, 354.57 24.52, 361.48 22.41 C368.4 20.29, 375.36 18.32, 382.36 16.49 C389.36 14.67, 396.4 13, 403.47 11.47 C410.54 9.95, 417.65 8.57, 424.78 7.35 C431.9 6.13, 439.06 5.06, 446.24 4.14 C453.41 3.22, 460.61 2.45, 467.81 1.84 C475.02 1.23, 482.24 0.77, 489.47 0.46 C496.69 0.15, 503.93 0, 511.16 0 C518.39 0, 525.63 0.15, 532.86 0.46 C540.08 0.77, 547.31 1.23, 554.51 1.84 C561.72 2.45, 568.92 3.22, 576.09 4.14 C583.26 5.06, 590.42 6.13, 597.55 7.35 C604.68 8.57, 611.79 9.95, 618.85 11.47 C625.92 13, 632.97 14.67, 639.96 16.49 C646.96 18.32, 653.93 20.29, 660.84 22.41 C667.76 24.52, 674.63 26.79, 681.45 29.2 C688.27 31.61, 695.04 34.16, 701.75 36.86 C708.46 39.56, 715.12 42.4, 721.71 45.38 C728.3 48.36, 734.83 51.48, 741.29 54.73 C747.75 57.99, 754.14 61.38, 760.45 64.91 C766.77 68.44, 773.01 72.1, 779.17 75.89 C785.33 79.68, 791.41 83.61, 797.4 87.66 C803.39 91.71, 809.3 95.89, 815.12 100.19 C820.93 104.49, 826.66 108.92, 832.29 113.46 C837.91 118, 843.45 122.67, 848.88 127.45 C854.3 132.22, 859.64 137.12, 864.86 142.13 C870.08 147.13, 875.2 152.25, 880.2 157.47 C885.2 162.69, 890.1 168.02, 894.88 173.45 C899.66 178.88, 904.32 184.41, 908.87 190.04 C913.41 195.67, 917.84 201.39, 922.14 207.21 C926.44 213.02, 930.62 218.93, 934.67 224.92 C938.72 230.92, 942.64 237, 946.43 243.16 C950.22 249.31, 953.89 255.56, 957.42 261.87 C960.94 268.18, 964.34 274.58, 967.59 281.04 C970.85 287.49, 973.97 294.02, 976.95 300.61 C979.93 307.2, 982.77 313.86, 985.47 320.57 C988.16 327.28, 990.72 334.06, 993.13 340.87 C995.54 347.69, 997.8 354.57, 999.92 361.48 C1002.04 368.4, 1004.01 375.36, 1005.83 382.36 C1007.65 389.36, 1009.33 396.4, 1010.85 403.47 C1012.38 410.54, 1013.75 417.65, 1014.97 424.78 C1016.2 431.9, 1017.27 439.06, 1018.19 446.24 C1019.1 453.41, 1019.87 460.61, 1020.48 467.81 C1021.1 475.02, 1021.56 482.24, 1021.87 489.47 C1022.17 496.69, 1022.33 503.93, 1022.33 511.16" stroke="#E1E1E1" stroke-width="4" fill="none"></path></g><g stroke-linecap="round"><g transform="translate(735.8934797618492 233.08393259899844) rotate(316.86794743929653 -212.85279675205027 285.8329750608983)"><path d="M0 0 C3.05 0.47, 13.35 1.74, 18.29 2.83 C23.23 3.92, 25.28 4.24, 29.64 6.56 C33.99 8.87, 40.01 11.7, 44.41 16.73 C48.81 21.75, 53.36 29.35, 56.03 36.69 C58.7 44.04, 59.97 52.73, 60.44 60.82 C60.92 68.9, 60.65 74.94, 58.88 85.2 C57.11 95.47, 54.06 109.33, 49.84 122.41 C45.62 135.48, 40.05 149.44, 33.56 163.66 C27.07 177.87, 20.17 191.65, 10.88 207.71 C1.6 223.78, -10.95 243.55, -22.15 260.03 C-33.34 276.51, -44.62 291.75, -56.27 306.6 C-67.92 321.45, -79.61 335.04, -92.06 349.14 C-104.51 363.25, -116.05 376.29, -130.96 391.25 C-145.86 406.21, -162.52 422.32, -181.51 438.9 C-200.51 455.47, -224.17 475.36, -244.94 490.68 C-265.71 506, -288.89 520.55, -306.14 530.84 C-323.39 541.12, -333.55 546.19, -348.44 552.37 C-363.33 558.54, -382.49 564.68, -395.49 567.9 C-408.48 571.11, -417.46 571.6, -426.4 571.67 C-435.33 571.73, -442.2 570.47, -449.1 568.29 C-456 566.1, -462.76 562.62, -467.78 558.56 C-472.81 554.49, -476.32 549.47, -479.24 543.9 C-482.16 538.32, -484.16 532.46, -485.31 525.1 C-486.46 517.74, -486.81 509.23, -486.15 499.74 C-485.49 490.25, -484.15 479.7, -481.35 468.17 C-478.55 456.65, -476.13 446.69, -469.35 430.57 C-462.57 414.46, -450.02 388.91, -440.68 371.47 C-431.33 354.03, -423.79 341.76, -413.28 325.93 C-402.77 310.09, -391.68 294.48, -377.61 276.46 C-363.54 258.43, -346.11 237.04, -328.85 217.76 C-311.59 198.49, -293.21 179.23, -274.05 160.8 C-254.88 142.36, -236.54 125.27, -213.86 107.15 C-191.17 89.03, -160.31 66.45, -137.93 52.09 C-115.56 37.72, -98.48 29.12, -79.62 20.95 C-60.75 12.77, -37.99 6.54, -24.73 3.05 C-11.46 -0.44, -4.12 0.51, 0 0 M0 0 C3.05 0.47, 13.35 1.74, 18.29 2.83 C23.23 3.92, 25.28 4.24, 29.64 6.56 C33.99 8.87, 40.01 11.7, 44.41 16.73 C48.81 21.75, 53.36 29.35, 56.03 36.69 C58.7 44.04, 59.97 52.73, 60.44 60.82 C60.92 68.9, 60.65 74.94, 58.88 85.2 C57.11 95.47, 54.06 109.33, 49.84 122.41 C45.62 135.48, 40.05 149.44, 33.56 163.66 C27.07 177.87, 20.17 191.65, 10.88 207.71 C1.6 223.78, -10.95 243.55, -22.15 260.03 C-33.34 276.51, -44.62 291.75, -56.27 306.6 C-67.92 321.45, -79.61 335.04, -92.06 349.14 C-104.51 363.25, -116.05 376.29, -130.96 391.25 C-145.86 406.21, -162.52 422.32, -181.51 438.9 C-200.51 455.47, -224.17 475.36, -244.94 490.68 C-265.71 506, -288.89 520.55, -306.14 530.84 C-323.39 541.12, -333.55 546.19, -348.44 552.37 C-363.33 558.54, -382.49 564.68, -395.49 567.9 C-408.48 571.11, -417.46 571.6, -426.4 571.67 C-435.33 571.73, -442.2 570.47, -449.1 568.29 C-456 566.1, -462.76 562.62, -467.78 558.56 C-472.81 554.49, -476.32 549.47, -479.24 543.9 C-482.16 538.32, -484.16 532.46, -485.31 525.1 C-486.46 517.74, -486.81 509.23, -486.15 499.74 C-485.49 490.25, -484.15 479.7, -481.35 468.17 C-478.55 456.65, -476.13 446.69, -469.35 430.57 C-462.57 414.46, -450.02 388.91, -440.68 371.47 C-431.33 354.03, -423.79 341.76, -413.28 325.93 C-402.77 310.09, -391.68 294.48, -377.61 276.46 C-363.54 258.43, -346.11 237.04, -328.85 217.76 C-311.59 198.49, -293.21 179.23, -274.05 160.8 C-254.88 142.36, -236.54 125.27, -213.86 107.15 C-191.17 89.03, -160.31 66.45, -137.93 52.09 C-115.56 37.72, -98.48 29.12, -79.62 20.95 C-60.75 12.77, -37.99 6.54, -24.73 3.05 C-11.46 -0.44, -4.12 0.51, 0 0" stroke="#E1E1E1" stroke-width="4" fill="none"></path></g></g><mask></mask><g stroke-linecap="round"><g transform="translate(756.4456429985976 229.46819023889952) rotate(316.86794743929653 -233.18651696139398 290.0441856789554)"><path d="M0 0 C3.32 0.74, 13.19 2, 19.89 4.46 C26.6 6.92, 34.36 9.31, 40.21 14.75 C46.06 20.18, 51.86 28.45, 55.01 37.05 C58.16 45.65, 59.42 54.63, 59.12 66.35 C58.83 78.08, 57.35 92.07, 53.23 107.41 C49.1 122.76, 41.97 141.65, 34.39 158.43 C26.8 175.21, 19.32 189.19, 7.74 208.11 C-3.85 227.03, -20.7 252.22, -35.13 271.94 C-49.56 291.66, -60.9 306.12, -78.86 326.45 C-96.82 346.79, -123.69 374.92, -142.89 393.96 C-162.09 413, -174.46 424.19, -194.06 440.7 C-213.66 457.2, -239.9 477.95, -260.49 492.99 C-281.08 508.02, -301.58 521.07, -317.61 530.91 C-333.64 540.74, -344.47 546.2, -356.67 551.98 C-368.86 557.77, -378.17 561.6, -390.76 565.64 C-403.36 569.68, -420.42 573.81, -432.25 576.21 C-444.08 578.62, -451.93 580.5, -461.74 580.09 C-471.55 579.68, -482.77 577.17, -491.1 573.75 C-499.43 570.33, -506.43 565.76, -511.7 559.58 C-516.98 553.39, -520.45 544.86, -522.75 536.63 C-525.05 528.4, -526.09 521.2, -525.5 510.22 C-524.91 499.24, -522.89 484.39, -519.21 470.75 C-515.53 457.11, -509.71 442.72, -503.41 428.39 C-497.12 414.05, -491.02 401.48, -481.43 384.73 C-471.85 367.99, -457.93 345.48, -445.9 327.89 C-433.87 310.31, -425.28 298.58, -409.26 279.23 C-393.24 259.89, -367.55 230.8, -349.78 211.82 C-332.01 192.84, -319.57 180.75, -302.63 165.36 C-285.69 149.97, -265.65 133.49, -248.16 119.47 C-230.66 105.45, -215.5 93.88, -197.65 81.23 C-179.8 68.57, -158.24 53.54, -141.05 43.53 C-123.87 33.53, -110.08 27.46, -94.56 21.18 C-79.05 14.9, -61.83 9.34, -47.97 5.86 C-34.11 2.37, -19.4 1.26, -11.41 0.28 C-3.41 -0.69, -1.9 0.05, 0 0 M0 0 C3.32 0.74, 13.19 2, 19.89 4.46 C26.6 6.92, 34.36 9.31, 40.21 14.75 C46.06 20.18, 51.86 28.45, 55.01 37.05 C58.16 45.65, 59.42 54.63, 59.12 66.35 C58.83 78.08, 57.35 92.07, 53.23 107.41 C49.1 122.76, 41.97 141.65, 34.39 158.43 C26.8 175.21, 19.32 189.19, 7.74 208.11 C-3.85 227.03, -20.7 252.22, -35.13 271.94 C-49.56 291.66, -60.9 306.12, -78.86 326.45 C-96.82 346.79, -123.69 374.92, -142.89 393.96 C-162.09 413, -174.46 424.19, -194.06 440.7 C-213.66 457.2, -239.9 477.95, -260.49 492.99 C-281.08 508.02, -301.58 521.07, -317.61 530.91 C-333.64 540.74, -344.47 546.2, -356.67 551.98 C-368.86 557.77, -378.17 561.6, -390.76 565.64 C-403.36 569.68, -420.42 573.81, -432.25 576.21 C-444.08 578.62, -451.93 580.5, -461.74 580.09 C-471.55 579.68, -482.77 577.17, -491.1 573.75 C-499.43 570.33, -506.43 565.76, -511.7 559.58 C-516.98 553.39, -520.45 544.86, -522.75 536.63 C-525.05 528.4, -526.09 521.2, -525.5 510.22 C-524.91 499.24, -522.89 484.39, -519.21 470.75 C-515.53 457.11, -509.71 442.72, -503.41 428.39 C-497.12 414.05, -491.02 401.48, -481.43 384.73 C-471.85 367.99, -457.93 345.48, -445.9 327.89 C-433.87 310.31, -425.28 298.58, -409.26 279.23 C-393.24 259.89, -367.55 230.8, -349.78 211.82 C-332.01 192.84, -319.57 180.75, -302.63 165.36 C-285.69 149.97, -265.65 133.49, -248.16 119.47 C-230.66 105.45, -215.5 93.88, -197.65 81.23 C-179.8 68.57, -158.24 53.54, -141.05 43.53 C-123.87 33.53, -110.08 27.46, -94.56 21.18 C-79.05 14.9, -61.83 9.34, -47.97 5.86 C-34.11 2.37, -19.4 1.26, -11.41 0.28 C-3.41 -0.69, -1.9 0.05, 0 0" stroke="#E1E1E1" stroke-width="4" fill="none"></path></g></g><mask></mask><g stroke-linecap="round"><g transform="translate(747.6743925402561 227.18425796873157) rotate(316.86794743929653 -224.26773992350394 291.94452640729025)"><path d="M0 0 C3.44 -0.05, 13.44 -0.88, 20.63 -0.31 C27.82 0.25, 36.07 1.12, 43.12 3.38 C50.18 5.63, 57.18 8.81, 62.98 13.23 C68.78 17.65, 74.08 22.9, 77.93 29.91 C81.77 36.93, 85.09 44.53, 86.06 55.32 C87.03 66.1, 86.25 80.99, 83.74 94.61 C81.23 108.23, 76.45 123, 71 137.02 C65.56 151.05, 59.23 163.78, 51.07 178.77 C42.91 193.76, 32.66 210.87, 22.05 226.95 C11.45 243.03, 1.33 257.61, -12.57 275.25 C-26.47 292.9, -41.69 311.7, -61.36 332.84 C-81.02 353.97, -110.55 383.33, -130.55 402.05 C-150.54 420.77, -162.07 429.9, -181.33 445.15 C-200.59 460.39, -223.06 477.45, -246.11 493.51 C-269.16 509.57, -298.88 529.52, -319.63 541.5 C-340.38 553.49, -353.08 558.94, -370.62 565.43 C-388.16 571.92, -408.05 577.31, -424.88 580.44 C-441.71 583.56, -458.86 584.62, -471.62 584.2 C-484.37 583.78, -492.98 581.54, -501.42 577.92 C-509.86 574.3, -516.87 568.98, -522.25 562.48 C-527.62 555.98, -531.59 549.24, -533.65 538.9 C-535.71 528.55, -536.6 515.13, -534.6 500.4 C-532.6 485.66, -529.26 469.64, -521.65 450.48 C-514.04 431.33, -501.21 406.52, -488.92 385.47 C-476.62 364.43, -461.92 343.44, -447.89 324.2 C-433.85 304.96, -421.39 289.09, -404.7 270.04 C-388.01 250.99, -364.88 226.96, -347.74 209.92 C-330.61 192.88, -318.15 182.01, -301.9 167.81 C-285.64 153.6, -269.52 139.52, -250.2 124.7 C-230.88 109.88, -206.25 92.64, -185.98 78.9 C-165.71 65.15, -146.34 52.12, -128.55 42.22 C-110.76 32.31, -96.01 25.81, -79.25 19.45 C-62.5 13.09, -41.24 7.29, -28.03 4.05 C-14.82 0.81, -4.67 0.68, 0 0 M0 0 C3.44 -0.05, 13.44 -0.88, 20.63 -0.31 C27.82 0.25, 36.07 1.12, 43.12 3.38 C50.18 5.63, 57.18 8.81, 62.98 13.23 C68.78 17.65, 74.08 22.9, 77.93 29.91 C81.77 36.93, 85.09 44.53, 86.06 55.32 C87.03 66.1, 86.25 80.99, 83.74 94.61 C81.23 108.23, 76.45 123, 71 137.02 C65.56 151.05, 59.23 163.78, 51.07 178.77 C42.91 193.76, 32.66 210.87, 22.05 226.95 C11.45 243.03, 1.33 257.61, -12.57 275.25 C-26.47 292.9, -41.69 311.7, -61.36 332.84 C-81.02 353.97, -110.55 383.33, -130.55 402.05 C-150.54 420.77, -162.07 429.9, -181.33 445.15 C-200.59 460.39, -223.06 477.45, -246.11 493.51 C-269.16 509.57, -298.88 529.52, -319.63 541.5 C-340.38 553.49, -353.08 558.94, -370.62 565.43 C-388.16 571.92, -408.05 577.31, -424.88 580.44 C-441.71 583.56, -458.86 584.62, -471.62 584.2 C-484.37 583.78, -492.98 581.54, -501.42 577.92 C-509.86 574.3, -516.87 568.98, -522.25 562.48 C-527.62 555.98, -531.59 549.24, -533.65 538.9 C-535.71 528.55, -536.6 515.13, -534.6 500.4 C-532.6 485.66, -529.26 469.64, -521.65 450.48 C-514.04 431.33, -501.21 406.52, -488.92 385.47 C-476.62 364.43, -461.92 343.44, -447.89 324.2 C-433.85 304.96, -421.39 289.09, -404.7 270.04 C-388.01 250.99, -364.88 226.96, -347.74 209.92 C-330.61 192.88, -318.15 182.01, -301.9 167.81 C-285.64 153.6, -269.52 139.52, -250.2 124.7 C-230.88 109.88, -206.25 92.64, -185.98 78.9 C-165.71 65.15, -146.34 52.12, -128.55 42.22 C-110.76 32.31, -96.01 25.81, -79.25 19.45 C-62.5 13.09, -41.24 7.29, -28.03 4.05 C-14.82 0.81, -4.67 0.68, 0 0" stroke="#E1E1E1" stroke-width="4" fill="none"></path></g></g><mask></mask><g stroke-linecap="round"><g transform="translate(764.9198477605796 224.5528757410434) rotate(316.86794743929653 -243.1987154756577 294.1435239998614)"><path d="M0 0 C4.44 0.23, 17.8 -0.12, 26.67 1.38 C35.53 2.89, 45.4 5.15, 53.19 9.04 C60.97 12.93, 67.94 17.32, 73.4 24.72 C78.85 32.12, 83.88 42.01, 85.93 53.44 C87.97 64.86, 87.93 78.85, 85.67 93.25 C83.42 107.66, 79.57 122.23, 72.39 139.86 C65.22 157.5, 53.94 179.9, 42.61 199.04 C31.28 218.18, 18.35 236.22, 4.4 254.72 C-9.55 273.21, -25.17 291.97, -41.09 310.03 C-57.02 328.08, -72.77 345.22, -91.14 363.04 C-109.5 380.85, -130.29 399.29, -151.28 416.92 C-172.26 434.55, -193.64 451.94, -217.04 468.82 C-240.43 485.69, -267.66 503.18, -291.65 518.18 C-315.64 533.17, -340.62 548.81, -360.98 558.76 C-381.33 568.72, -396.47 573, -413.76 577.92 C-431.06 582.84, -447.78 586.68, -464.74 588.29 C-481.69 589.9, -501.98 589.63, -515.47 587.57 C-528.95 585.51, -537.24 582.05, -545.66 575.93 C-554.09 569.81, -561.56 560.75, -566 550.84 C-570.44 540.94, -572.52 529.54, -572.32 516.52 C-572.13 503.5, -570.78 490.51, -564.85 472.71 C-558.92 454.91, -547.08 429.45, -536.72 409.73 C-526.37 390.01, -513.77 370.67, -502.74 354.4 C-491.71 338.13, -483.12 327.3, -470.55 312.08 C-457.98 296.87, -442.55 279.41, -427.32 263.11 C-412.09 246.82, -395.13 229.42, -379.17 214.31 C-363.21 199.21, -351.4 188.73, -331.56 172.47 C-311.71 156.22, -282.61 132.99, -260.09 116.79 C-237.58 100.6, -217.43 88.56, -196.47 75.32 C-175.5 62.08, -156.88 48.28, -134.29 37.35 C-111.69 26.42, -79.71 15.64, -60.89 9.73 C-42.07 3.83, -31.53 3.55, -21.38 1.93 C-11.24 0.31, -3.56 0.32, 0 0 M0 0 C4.44 0.23, 17.8 -0.12, 26.67 1.38 C35.53 2.89, 45.4 5.15, 53.19 9.04 C60.97 12.93, 67.94 17.32, 73.4 24.72 C78.85 32.12, 83.88 42.01, 85.93 53.44 C87.97 64.86, 87.93 78.85, 85.67 93.25 C83.42 107.66, 79.57 122.23, 72.39 139.86 C65.22 157.5, 53.94 179.9, 42.61 199.04 C31.28 218.18, 18.35 236.22, 4.4 254.72 C-9.55 273.21, -25.17 291.97, -41.09 310.03 C-57.02 328.08, -72.77 345.22, -91.14 363.04 C-109.5 380.85, -130.29 399.29, -151.28 416.92 C-172.26 434.55, -193.64 451.94, -217.04 468.82 C-240.43 485.69, -267.66 503.18, -291.65 518.18 C-315.64 533.17, -340.62 548.81, -360.98 558.76 C-381.33 568.72, -396.47 573, -413.76 577.92 C-431.06 582.84, -447.78 586.68, -464.74 588.29 C-481.69 589.9, -501.98 589.63, -515.47 587.57 C-528.95 585.51, -537.24 582.05, -545.66 575.93 C-554.09 569.81, -561.56 560.75, -566 550.84 C-570.44 540.94, -572.52 529.54, -572.32 516.52 C-572.13 503.5, -570.78 490.51, -564.85 472.71 C-558.92 454.91, -547.08 429.45, -536.72 409.73 C-526.37 390.01, -513.77 370.67, -502.74 354.4 C-491.71 338.13, -483.12 327.3, -470.55 312.08 C-457.98 296.87, -442.55 279.41, -427.32 263.11 C-412.09 246.82, -395.13 229.42, -379.17 214.31 C-363.21 199.21, -351.4 188.73, -331.56 172.47 C-311.71 156.22, -282.61 132.99, -260.09 116.79 C-237.58 100.6, -217.43 88.56, -196.47 75.32 C-175.5 62.08, -156.88 48.28, -134.29 37.35 C-111.69 26.42, -79.71 15.64, -60.89 9.73 C-42.07 3.83, -31.53 3.55, -21.38 1.93 C-11.24 0.31, -3.56 0.32, 0 0" stroke="#E1E1E1" stroke-width="4" fill="none"></path></g></g><mask></mask><g stroke-linecap="round"><g transform="translate(774.9932101389045 223.05478291560325) rotate(316.86794743929653 -252.520332004843 295.8794050097671)"><path d="M0 0 C4.44 0.23, 17.88 0.1, 26.67 1.39 C35.46 2.67, 44.41 4.34, 52.73 7.71 C61.05 11.09, 70.2 15.63, 76.59 21.63 C82.98 27.63, 87.81 36.2, 91.06 43.72 C94.32 51.24, 95.49 57.84, 96.11 66.74 C96.72 75.65, 96.4 86.35, 94.73 97.14 C93.07 107.92, 91.14 117.86, 86.1 131.46 C81.07 145.07, 73.6 162.1, 64.5 178.77 C55.41 195.44, 43.49 214.44, 31.54 231.47 C19.6 248.51, 6.07 265.15, -7.19 280.98 C-20.44 296.82, -32.83 310.61, -47.98 326.46 C-63.13 342.32, -78.39 358.42, -98.11 376.1 C-117.83 393.78, -145.42 416.21, -166.29 432.56 C-187.15 448.9, -202.58 460.15, -223.3 474.19 C-244.02 488.23, -268.53 503.46, -290.62 516.8 C-312.71 530.14, -335.63 544.15, -355.82 554.23 C-376.02 564.31, -392.13 571.1, -411.78 577.26 C-431.43 583.41, -454.67 588.76, -473.75 591.18 C-492.82 593.6, -512.59 592.58, -526.25 591.76 C-539.91 590.93, -546.7 589.66, -555.71 586.23 C-564.72 582.8, -573.61 577.43, -580.29 571.19 C-586.96 564.96, -592.29 557.78, -595.76 548.82 C-599.24 539.87, -601.48 529.93, -601.15 517.46 C-600.81 504.98, -597.81 488.38, -593.75 473.99 C-589.69 459.61, -585.21 447.95, -576.77 431.15 C-568.33 414.35, -556.94 393.77, -543.1 373.2 C-529.27 352.64, -510.12 327.4, -493.75 307.76 C-477.37 288.12, -467.15 276.88, -444.85 255.36 C-422.56 233.84, -390.08 203.13, -359.97 178.65 C-329.87 154.16, -291.94 127.24, -264.21 108.46 C-236.48 89.69, -215.27 78.55, -193.6 66 C-171.94 53.45, -155.32 42.79, -134.21 33.17 C-113.1 23.56, -85.06 13.63, -66.95 8.3 C-48.84 2.96, -36.69 2.54, -25.53 1.15 C-14.37 -0.23, -4.26 0.19, 0 0 M0 0 C4.44 0.23, 17.88 0.1, 26.67 1.39 C35.46 2.67, 44.41 4.34, 52.73 7.71 C61.05 11.09, 70.2 15.63, 76.59 21.63 C82.98 27.63, 87.81 36.2, 91.06 43.72 C94.32 51.24, 95.49 57.84, 96.11 66.74 C96.72 75.65, 96.4 86.35, 94.73 97.14 C93.07 107.92, 91.14 117.86, 86.1 131.46 C81.07 145.07, 73.6 162.1, 64.5 178.77 C55.41 195.44, 43.49 214.44, 31.54 231.47 C19.6 248.51, 6.07 265.15, -7.19 280.98 C-20.44 296.82, -32.83 310.61, -47.98 326.46 C-63.13 342.32, -78.39 358.42, -98.11 376.1 C-117.83 393.78, -145.42 416.21, -166.29 432.56 C-187.15 448.9, -202.58 460.15, -223.3 474.19 C-244.02 488.23, -268.53 503.46, -290.62 516.8 C-312.71 530.14, -335.63 544.15, -355.82 554.23 C-376.02 564.31, -392.13 571.1, -411.78 577.26 C-431.43 583.41, -454.67 588.76, -473.75 591.18 C-492.82 593.6, -512.59 592.58, -526.25 591.76 C-539.91 590.93, -546.7 589.66, -555.71 586.23 C-564.72 582.8, -573.61 577.43, -580.29 571.19 C-586.96 564.96, -592.29 557.78, -595.76 548.82 C-599.24 539.87, -601.48 529.93, -601.15 517.46 C-600.81 504.98, -597.81 488.38, -593.75 473.99 C-589.69 459.61, -585.21 447.95, -576.77 431.15 C-568.33 414.35, -556.94 393.77, -543.1 373.2 C-529.27 352.64, -510.12 327.4, -493.75 307.76 C-477.37 288.12, -467.15 276.88, -444.85 255.36 C-422.56 233.84, -390.08 203.13, -359.97 178.65 C-329.87 154.16, -291.94 127.24, -264.21 108.46 C-236.48 89.69, -215.27 78.55, -193.6 66 C-171.94 53.45, -155.32 42.79, -134.21 33.17 C-113.1 23.56, -85.06 13.63, -66.95 8.3 C-48.84 2.96, -36.69 2.54, -25.53 1.15 C-14.37 -0.23, -4.26 0.19, 0 0" stroke="#E1E1E1" stroke-width="4" fill="none"></path></g></g><mask></mask><g stroke-linecap="round"><g transform="translate(814.1864888555415 224.55813366580583) rotate(316.86794743929653 -291.34026717034715 294.80830838204906)"><path d="M0 0 C2.54 0.5, 8.64 0.92, 15.24 3 C21.83 5.07, 32.06 8, 39.56 12.44 C47.07 16.87, 55 23.43, 60.27 29.62 C65.54 35.81, 68.66 41.22, 71.18 49.57 C73.71 57.92, 75.67 67.81, 75.4 79.73 C75.14 91.66, 73.44 106.88, 69.58 121.13 C65.72 135.38, 59.79 149.94, 52.27 165.23 C44.74 180.52, 35.46 196.32, 24.43 212.88 C13.39 229.44, 0.68 246.83, -13.93 264.62 C-28.54 282.4, -46.85 302.52, -63.24 319.58 C-79.63 336.65, -95.79 352.07, -112.27 367.01 C-128.74 381.96, -143.02 394.25, -162.11 409.25 C-181.2 424.24, -207.17 443.34, -226.81 456.99 C-246.45 470.63, -261.44 479.84, -279.96 491.14 C-298.49 502.44, -315.12 512.78, -337.95 524.79 C-360.78 536.81, -393.12 553.25, -416.94 563.23 C-440.75 573.2, -458.69 579.79, -480.85 584.63 C-503.02 589.46, -532.38 591.36, -549.93 592.23 C-567.48 593.1, -574.67 591.84, -586.15 589.84 C-597.64 587.85, -609.21 585.39, -618.83 580.27 C-628.46 575.16, -637.75 566.82, -643.88 559.14 C-650.01 551.46, -653.25 543.06, -655.62 534.19 C-657.99 525.32, -658.94 517.31, -658.08 505.93 C-657.22 494.54, -655.11 480.75, -650.47 465.89 C-645.83 451.04, -640.36 435.62, -630.24 416.81 C-620.12 397.99, -605.9 375, -589.74 353.01 C-573.57 331.03, -553.24 306.53, -533.25 284.88 C-513.26 263.24, -491.53 242.74, -469.81 223.17 C-448.1 203.6, -425.65 184.96, -402.95 167.47 C-380.25 149.98, -356.98 133.52, -333.62 118.21 C-310.25 102.9, -288.21 89.65, -262.75 75.61 C-237.28 61.57, -205.56 45.21, -180.84 33.97 C-156.13 22.74, -135.99 14.27, -114.46 8.18 C-92.92 2.08, -70.71 -1.25, -51.63 -2.62 C-32.56 -3.98, -8.61 -0.44, 0 0 M0 0 C2.54 0.5, 8.64 0.92, 15.24 3 C21.83 5.07, 32.06 8, 39.56 12.44 C47.07 16.87, 55 23.43, 60.27 29.62 C65.54 35.81, 68.66 41.22, 71.18 49.57 C73.71 57.92, 75.67 67.81, 75.4 79.73 C75.14 91.66, 73.44 106.88, 69.58 121.13 C65.72 135.38, 59.79 149.94, 52.27 165.23 C44.74 180.52, 35.46 196.32, 24.43 212.88 C13.39 229.44, 0.68 246.83, -13.93 264.62 C-28.54 282.4, -46.85 302.52, -63.24 319.58 C-79.63 336.65, -95.79 352.07, -112.27 367.01 C-128.74 381.96, -143.02 394.25, -162.11 409.25 C-181.2 424.24, -207.17 443.34, -226.81 456.99 C-246.45 470.63, -261.44 479.84, -279.96 491.14 C-298.49 502.44, -315.12 512.78, -337.95 524.79 C-360.78 536.81, -393.12 553.25, -416.94 563.23 C-440.75 573.2, -458.69 579.79, -480.85 584.63 C-503.02 589.46, -532.38 591.36, -549.93 592.23 C-567.48 593.1, -574.67 591.84, -586.15 589.84 C-597.64 587.85, -609.21 585.39, -618.83 580.27 C-628.46 575.16, -637.75 566.82, -643.88 559.14 C-650.01 551.46, -653.25 543.06, -655.62 534.19 C-657.99 525.32, -658.94 517.31, -658.08 505.93 C-657.22 494.54, -655.11 480.75, -650.47 465.89 C-645.83 451.04, -640.36 435.62, -630.24 416.81 C-620.12 397.99, -605.9 375, -589.74 353.01 C-573.57 331.03, -553.24 306.53, -533.25 284.88 C-513.26 263.24, -491.53 242.74, -469.81 223.17 C-448.1 203.6, -425.65 184.96, -402.95 167.47 C-380.25 149.98, -356.98 133.52, -333.62 118.21 C-310.25 102.9, -288.21 89.65, -262.75 75.61 C-237.28 61.57, -205.56 45.21, -180.84 33.97 C-156.13 22.74, -135.99 14.27, -114.46 8.18 C-92.92 2.08, -70.71 -1.25, -51.63 -2.62 C-32.56 -3.98, -8.61 -0.44, 0 0" stroke="#E1E1E1" stroke-width="4" fill="none"></path></g></g><mask></mask><g stroke-linecap="round"><g transform="translate(826.3778080058391 225.41379261093925) rotate(316.86794743929653 -303.3721203263169 293.81088375489435)"><path d="M0 0 C4.28 1.05, 16.87 2.88, 25.66 6.3 C34.44 9.71, 45.1 14.18, 52.71 20.48 C60.33 26.77, 66.74 35.25, 71.35 44.08 C75.96 52.92, 79.19 61.62, 80.37 73.51 C81.55 85.4, 81.47 100.62, 78.42 115.44 C75.37 130.26, 70 145.39, 62.05 162.42 C54.1 179.44, 43.87 198.15, 30.72 217.57 C17.57 236.98, -0.06 259.35, -16.85 278.88 C-33.64 298.42, -51.79 317.12, -70.01 334.76 C-88.24 352.4, -105.47 367.77, -126.2 384.72 C-146.93 401.67, -171 419.92, -194.39 436.46 C-217.78 453, -244.16 470.43, -266.55 483.97 C-288.94 497.52, -305.9 506.37, -328.73 517.74 C-351.55 529.11, -377.15 541.35, -403.5 552.22 C-429.84 563.08, -462.75 576.33, -486.8 582.93 C-510.85 589.53, -528.41 590.7, -547.8 591.83 C-567.2 592.95, -586.58 592.22, -603.17 589.69 C-619.76 587.15, -635.35 582.96, -647.35 576.63 C-659.35 570.29, -668.61 560.43, -675.19 551.68 C-681.78 542.94, -684.87 535.18, -686.86 524.15 C-688.84 513.12, -689.49 500.35, -687.12 485.49 C-684.74 470.62, -680.33 453.01, -672.59 434.98 C-664.86 416.95, -653.21 396.74, -640.71 377.31 C-628.21 357.88, -615.01 339.18, -597.61 318.41 C-580.22 297.64, -559.33 274.66, -536.33 252.68 C-513.33 230.71, -483.19 205.45, -459.61 186.56 C-436.04 167.67, -418.59 155.17, -394.9 139.33 C-371.21 123.5, -345.86 107.23, -317.48 91.54 C-289.1 75.85, -253.44 58.31, -224.62 45.19 C-195.8 32.07, -170.76 21.05, -144.55 12.81 C-118.33 4.58, -91.42 -2.07, -67.33 -4.21 C-43.24 -6.34, -11.22 -0.7, 0 0 M0 0 C4.28 1.05, 16.87 2.88, 25.66 6.3 C34.44 9.71, 45.1 14.18, 52.71 20.48 C60.33 26.77, 66.74 35.25, 71.35 44.08 C75.96 52.92, 79.19 61.62, 80.37 73.51 C81.55 85.4, 81.47 100.62, 78.42 115.44 C75.37 130.26, 70 145.39, 62.05 162.42 C54.1 179.44, 43.87 198.15, 30.72 217.57 C17.57 236.98, -0.06 259.35, -16.85 278.88 C-33.64 298.42, -51.79 317.12, -70.01 334.76 C-88.24 352.4, -105.47 367.77, -126.2 384.72 C-146.93 401.67, -171 419.92, -194.39 436.46 C-217.78 453, -244.16 470.43, -266.55 483.97 C-288.94 497.52, -305.9 506.37, -328.73 517.74 C-351.55 529.11, -377.15 541.35, -403.5 552.22 C-429.84 563.08, -462.75 576.33, -486.8 582.93 C-510.85 589.53, -528.41 590.7, -547.8 591.83 C-567.2 592.95, -586.58 592.22, -603.17 589.69 C-619.76 587.15, -635.35 582.96, -647.35 576.63 C-659.35 570.29, -668.61 560.43, -675.19 551.68 C-681.78 542.94, -684.87 535.18, -686.86 524.15 C-688.84 513.12, -689.49 500.35, -687.12 485.49 C-684.74 470.62, -680.33 453.01, -672.59 434.98 C-664.86 416.95, -653.21 396.74, -640.71 377.31 C-628.21 357.88, -615.01 339.18, -597.61 318.41 C-580.22 297.64, -559.33 274.66, -536.33 252.68 C-513.33 230.71, -483.19 205.45, -459.61 186.56 C-436.04 167.67, -418.59 155.17, -394.9 139.33 C-371.21 123.5, -345.86 107.23, -317.48 91.54 C-289.1 75.85, -253.44 58.31, -224.62 45.19 C-195.8 32.07, -170.76 21.05, -144.55 12.81 C-118.33 4.58, -91.42 -2.07, -67.33 -4.21 C-43.24 -6.34, -11.22 -0.7, 0 0" stroke="#E1E1E1" stroke-width="4" fill="none"></path></g></g><mask></mask><g stroke-linecap="round"><g transform="translate(840.3818609823741 226.7036971310697) rotate(316.86794743929653 -317.7746243556291 292.3116461407368)"><path d="M0 0 C4.43 1.44, 17.53 4.6, 26.57 8.63 C35.61 12.67, 46.51 17.86, 54.23 24.21 C61.95 30.56, 68.39 39.71, 72.89 46.74 C77.39 53.78, 79.27 57.99, 81.22 66.42 C83.17 74.85, 85.31 85.19, 84.6 97.32 C83.89 109.44, 81.81 123.91, 76.97 139.17 C72.13 154.44, 64.65 171.97, 55.56 188.91 C46.48 205.84, 35.97 222.49, 22.46 240.76 C8.95 259.03, -7.42 279.2, -25.5 298.54 C-43.58 317.88, -61.36 335.65, -86.01 356.8 C-110.65 377.95, -145.89 405.6, -173.36 425.43 C-200.84 445.26, -226.38 461.19, -250.83 475.77 C-275.29 490.35, -295.07 500.75, -320.11 512.89 C-345.14 525.04, -375.6 538.46, -401.02 548.64 C-426.43 558.82, -454.46 567.99, -472.59 573.97 C-490.71 579.94, -494.79 581.57, -509.78 584.5 C-524.76 587.44, -545.31 590.62, -562.5 591.57 C-579.69 592.52, -596.81 592.43, -612.91 590.21 C-629.01 587.98, -645.92 583.35, -659.09 578.21 C-672.26 573.07, -683.2 567.02, -691.95 559.37 C-700.69 551.72, -706.88 542.94, -711.58 532.32 C-716.28 521.69, -720.58 511.45, -720.15 495.62 C-719.72 479.8, -717.13 459.23, -709.01 437.38 C-700.89 415.52, -688.62 390.17, -671.43 364.5 C-654.24 338.83, -630.46 309.61, -605.86 283.35 C-581.25 257.08, -553.42 231.27, -523.8 206.92 C-494.17 182.58, -458.64 157.5, -428.09 137.26 C-397.54 117.02, -373 102.25, -340.5 85.5 C-308.01 68.75, -265.93 50.04, -233.13 36.78 C-200.34 23.52, -171.63 13.24, -143.74 5.95 C-115.84 -1.33, -89.7 -5.95, -65.75 -6.94 C-41.79 -7.94, -10.96 -1.16, 0 0 M0 0 C4.43 1.44, 17.53 4.6, 26.57 8.63 C35.61 12.67, 46.51 17.86, 54.23 24.21 C61.95 30.56, 68.39 39.71, 72.89 46.74 C77.39 53.78, 79.27 57.99, 81.22 66.42 C83.17 74.85, 85.31 85.19, 84.6 97.32 C83.89 109.44, 81.81 123.91, 76.97 139.17 C72.13 154.44, 64.65 171.97, 55.56 188.91 C46.48 205.84, 35.97 222.49, 22.46 240.76 C8.95 259.03, -7.42 279.2, -25.5 298.54 C-43.58 317.88, -61.36 335.65, -86.01 356.8 C-110.65 377.95, -145.89 405.6, -173.36 425.43 C-200.84 445.26, -226.38 461.19, -250.83 475.77 C-275.29 490.35, -295.07 500.75, -320.11 512.89 C-345.14 525.04, -375.6 538.46, -401.02 548.64 C-426.43 558.82, -454.46 567.99, -472.59 573.97 C-490.71 579.94, -494.79 581.57, -509.78 584.5 C-524.76 587.44, -545.31 590.62, -562.5 591.57 C-579.69 592.52, -596.81 592.43, -612.91 590.21 C-629.01 587.98, -645.92 583.35, -659.09 578.21 C-672.26 573.07, -683.2 567.02, -691.95 559.37 C-700.69 551.72, -706.88 542.94, -711.58 532.32 C-716.28 521.69, -720.58 511.45, -720.15 495.62 C-719.72 479.8, -717.13 459.23, -709.01 437.38 C-700.89 415.52, -688.62 390.17, -671.43 364.5 C-654.24 338.83, -630.46 309.61, -605.86 283.35 C-581.25 257.08, -553.42 231.27, -523.8 206.92 C-494.17 182.58, -458.64 157.5, -428.09 137.26 C-397.54 117.02, -373 102.25, -340.5 85.5 C-308.01 68.75, -265.93 50.04, -233.13 36.78 C-200.34 23.52, -171.63 13.24, -143.74 5.95 C-115.84 -1.33, -89.7 -5.95, -65.75 -6.94 C-41.79 -7.94, -10.96 -1.16, 0 0" stroke="#E1E1E1" stroke-width="4" fill="none"></path></g></g><mask></mask><g stroke-linecap="round"><g transform="translate(863.8342709737476 232.89969484575) rotate(316.86794743929653 -340.9344223508909 285.8714234113604)"><path d="M0 0 C5.43 2.56, 23.24 9.62, 32.56 15.34 C41.88 21.07, 49.4 26.53, 55.91 34.34 C62.42 42.15, 68.05 52.51, 71.6 62.21 C75.15 71.91, 77.11 79.97, 77.19 92.53 C77.28 105.09, 76.57 120.98, 72.08 137.58 C67.6 154.18, 61.55 171.71, 50.28 192.14 C39 212.57, 19.38 240.73, 4.43 260.14 C-10.51 279.56, -21.11 290.39, -39.38 308.63 C-57.64 326.87, -82.28 350.5, -105.14 369.58 C-128 388.66, -149.2 404.7, -176.53 423.12 C-203.86 441.54, -241.68 464.65, -269.14 480.1 C-296.61 495.56, -314.15 503.92, -341.32 515.85 C-368.48 527.79, -404.59 542.29, -432.13 551.71 C-459.68 561.13, -483.23 566.78, -506.58 572.36 C-529.94 577.94, -550.08 583.26, -572.26 585.2 C-594.45 587.14, -619.22 586.96, -639.69 584.01 C-660.16 581.05, -680.01 573.66, -695.1 567.46 C-710.19 561.26, -721.31 554.25, -730.24 546.83 C-739.17 539.41, -744.14 531.25, -748.69 522.94 C-753.25 514.64, -755.86 506.49, -757.59 496.99 C-759.31 487.49, -760.71 479.39, -759.06 465.92 C-757.42 452.45, -754.33 433.88, -747.7 416.18 C-741.06 398.47, -733.01 380.8, -719.26 359.69 C-705.52 338.58, -683.78 310.79, -665.23 289.49 C-646.68 268.2, -627.92 250.2, -607.94 231.9 C-587.96 213.6, -570.53 198.5, -545.35 179.71 C-520.17 160.92, -487.32 137.74, -456.85 119.17 C-426.37 100.6, -392.84 83.03, -362.5 68.3 C-332.15 53.57, -306.2 41.95, -274.78 30.77 C-243.35 19.58, -205.03 8.58, -173.94 1.21 C-142.84 -6.16, -111.88 -11.87, -88.22 -13.46 C-64.55 -15.04, -46.65 -10.54, -31.94 -8.3 C-17.24 -6.05, -5.32 -1.38, 0 0 M0 0 C5.43 2.56, 23.24 9.62, 32.56 15.34 C41.88 21.07, 49.4 26.53, 55.91 34.34 C62.42 42.15, 68.05 52.51, 71.6 62.21 C75.15 71.91, 77.11 79.97, 77.19 92.53 C77.28 105.09, 76.57 120.98, 72.08 137.58 C67.6 154.18, 61.55 171.71, 50.28 192.14 C39 212.57, 19.38 240.73, 4.43 260.14 C-10.51 279.56, -21.11 290.39, -39.38 308.63 C-57.64 326.87, -82.28 350.5, -105.14 369.58 C-128 388.66, -149.2 404.7, -176.53 423.12 C-203.86 441.54, -241.68 464.65, -269.14 480.1 C-296.61 495.56, -314.15 503.92, -341.32 515.85 C-368.48 527.79, -404.59 542.29, -432.13 551.71 C-459.68 561.13, -483.23 566.78, -506.58 572.36 C-529.94 577.94, -550.08 583.26, -572.26 585.2 C-594.45 587.14, -619.22 586.96, -639.69 584.01 C-660.16 581.05, -680.01 573.66, -695.1 567.46 C-710.19 561.26, -721.31 554.25, -730.24 546.83 C-739.17 539.41, -744.14 531.25, -748.69 522.94 C-753.25 514.64, -755.86 506.49, -757.59 496.99 C-759.31 487.49, -760.71 479.39, -759.06 465.92 C-757.42 452.45, -754.33 433.88, -747.7 416.18 C-741.06 398.47, -733.01 380.8, -719.26 359.69 C-705.52 338.58, -683.78 310.79, -665.23 289.49 C-646.68 268.2, -627.92 250.2, -607.94 231.9 C-587.96 213.6, -570.53 198.5, -545.35 179.71 C-520.17 160.92, -487.32 137.74, -456.85 119.17 C-426.37 100.6, -392.84 83.03, -362.5 68.3 C-332.15 53.57, -306.2 41.95, -274.78 30.77 C-243.35 19.58, -205.03 8.58, -173.94 1.21 C-142.84 -6.16, -111.88 -11.87, -88.22 -13.46 C-64.55 -15.04, -46.65 -10.54, -31.94 -8.3 C-17.24 -6.05, -5.32 -1.38, 0 0" stroke="#E1E1E1" stroke-width="4" fill="none"></path></g></g><mask></mask><g stroke-linecap="round"><g transform="translate(890.3359755171871 242.37429642785514) rotate(316.86794743929653 -367.79824562185894 276.427847976719)"><path d="M0 0 C5.03 3.37, 21.75 13.06, 30.2 20.22 C38.66 27.37, 45.34 34.21, 50.75 42.95 C56.17 51.68, 60.11 61.72, 62.69 72.62 C65.27 83.51, 67.41 94.25, 66.21 108.32 C65 122.38, 60.81 141.06, 55.45 157 C50.09 172.95, 43.09 187.99, 34.03 203.99 C24.96 219.98, 12.59 237.54, 1.07 252.97 C-10.44 268.39, -17.87 278.95, -35.07 296.54 C-52.27 314.13, -80.07 339.9, -102.12 358.49 C-124.17 377.08, -148.15 394.33, -167.38 408.06 C-186.61 421.8, -193.94 427.11, -217.48 440.9 C-241.02 454.69, -277.68 475.95, -308.62 490.79 C-339.57 505.62, -373.97 519.18, -403.13 529.89 C-432.29 540.59, -456.13 548.12, -483.59 555.04 C-511.05 561.95, -540.62 567.92, -567.88 571.39 C-595.14 574.85, -624.41 576.82, -647.15 575.82 C-669.9 574.83, -688.09 570.12, -704.36 565.4 C-720.63 560.68, -734.22 552.8, -744.75 547.5 C-755.28 542.19, -760.85 539.22, -767.53 533.58 C-774.22 527.93, -779.75 521.9, -784.87 513.62 C-789.99 505.35, -795.43 493.44, -798.25 483.92 C-801.07 474.39, -801.88 467.05, -801.8 456.47 C-801.73 445.89, -801.27 434.62, -797.79 420.46 C-794.3 406.3, -789.92 389.83, -780.91 371.51 C-771.9 353.2, -756.66 328.87, -743.74 310.58 C-730.83 292.28, -720.59 279.89, -703.42 261.75 C-686.26 243.62, -664.36 221.79, -640.76 201.78 C-617.15 181.76, -585.91 158.61, -561.79 141.68 C-537.66 124.76, -517.69 112.9, -496.01 100.25 C-474.34 87.6, -455.68 77.32, -431.73 65.79 C-407.78 54.27, -380.18 41.63, -352.3 31.09 C-324.42 20.55, -292.24 10.14, -264.47 2.56 C-236.7 -5.02, -209.67 -10.12, -185.66 -14.37 C-161.66 -18.63, -141.1 -22.07, -120.42 -22.97 C-99.74 -23.87, -78.65 -22.34, -61.57 -19.77 C-44.48 -17.21, -28.18 -10.89, -17.92 -7.59 C-7.66 -4.3, -2.99 -1.27, 0 0 M0 0 C5.03 3.37, 21.75 13.06, 30.2 20.22 C38.66 27.37, 45.34 34.21, 50.75 42.95 C56.17 51.68, 60.11 61.72, 62.69 72.62 C65.27 83.51, 67.41 94.25, 66.21 108.32 C65 122.38, 60.81 141.06, 55.45 157 C50.09 172.95, 43.09 187.99, 34.03 203.99 C24.96 219.98, 12.59 237.54, 1.07 252.97 C-10.44 268.39, -17.87 278.95, -35.07 296.54 C-52.27 314.13, -80.07 339.9, -102.12 358.49 C-124.17 377.08, -148.15 394.33, -167.38 408.06 C-186.61 421.8, -193.94 427.11, -217.48 440.9 C-241.02 454.69, -277.68 475.95, -308.62 490.79 C-339.57 505.62, -373.97 519.18, -403.13 529.89 C-432.29 540.59, -456.13 548.12, -483.59 555.04 C-511.05 561.95, -540.62 567.92, -567.88 571.39 C-595.14 574.85, -624.41 576.82, -647.15 575.82 C-669.9 574.83, -688.09 570.12, -704.36 565.4 C-720.63 560.68, -734.22 552.8, -744.75 547.5 C-755.28 542.19, -760.85 539.22, -767.53 533.58 C-774.22 527.93, -779.75 521.9, -784.87 513.62 C-789.99 505.35, -795.43 493.44, -798.25 483.92 C-801.07 474.39, -801.88 467.05, -801.8 456.47 C-801.73 445.89, -801.27 434.62, -797.79 420.46 C-794.3 406.3, -789.92 389.83, -780.91 371.51 C-771.9 353.2, -756.66 328.87, -743.74 310.58 C-730.83 292.28, -720.59 279.89, -703.42 261.75 C-686.26 243.62, -664.36 221.79, -640.76 201.78 C-617.15 181.76, -585.91 158.61, -561.79 141.68 C-537.66 124.76, -517.69 112.9, -496.01 100.25 C-474.34 87.6, -455.68 77.32, -431.73 65.79 C-407.78 54.27, -380.18 41.63, -352.3 31.09 C-324.42 20.55, -292.24 10.14, -264.47 2.56 C-236.7 -5.02, -209.67 -10.12, -185.66 -14.37 C-161.66 -18.63, -141.1 -22.07, -120.42 -22.97 C-99.74 -23.87, -78.65 -22.34, -61.57 -19.77 C-44.48 -17.21, -28.18 -10.89, -17.92 -7.59 C-7.66 -4.3, -2.99 -1.27, 0 0" stroke="#E1E1E1" stroke-width="4" fill="none"></path></g></g><mask></mask><g stroke-linecap="round"><g transform="translate(914.5286450952042 256.4849573934016) rotate(316.86794743929653 -391.6679907786733 262.9273549037059)"><path d="M0 0 C3.02 2.17, 11.73 7.13, 18.13 13 C24.52 18.87, 33.01 27.56, 38.38 35.24 C43.74 42.91, 47.42 50.52, 50.33 59.04 C53.23 67.57, 54.89 76.24, 55.81 86.38 C56.73 96.53, 57.22 108.34, 55.86 119.9 C54.49 131.46, 52.37 142.16, 47.61 155.73 C42.85 169.31, 36.43 184.96, 27.29 201.34 C18.16 217.73, 7.05 235.71, -7.2 254.02 C-21.46 272.34, -40.13 293.27, -58.24 311.23 C-76.34 329.18, -96.29 345.98, -115.85 361.74 C-135.42 377.5, -156.22 392.54, -175.62 405.78 C-195.02 419.03, -215.68 431.43, -232.24 441.18 C-248.79 450.93, -259.67 456.51, -274.93 464.28 C-290.18 472.04, -305.03 479.51, -323.76 487.76 C-342.48 496.01, -365.03 505.59, -387.3 513.78 C-409.57 521.97, -435.38 530.71, -457.37 536.89 C-479.36 543.07, -498.25 547.03, -519.22 550.85 C-540.2 554.67, -563.77 557.73, -583.24 559.83 C-602.7 561.93, -616.15 563.62, -636.02 563.46 C-655.9 563.3, -682.85 562.41, -702.48 558.88 C-722.11 555.35, -739.23 548.4, -753.79 542.28 C-768.36 536.15, -779.16 530.11, -789.88 522.12 C-800.59 514.13, -811.09 503.25, -818.09 494.36 C-825.09 485.46, -828.37 478.64, -831.88 468.75 C-835.4 458.87, -838.8 449.27, -839.19 435.05 C-839.59 420.82, -838.1 400.13, -834.25 383.39 C-830.4 366.65, -824.78 351.88, -816.1 334.6 C-807.42 317.32, -797.12 299.55, -782.17 279.72 C-767.22 259.89, -746.52 235.64, -726.4 215.62 C-706.28 195.6, -683.93 177.28, -661.45 159.58 C-638.97 141.89, -617.09 125.82, -591.5 109.43 C-565.91 93.05, -534.78 75.26, -507.91 61.28 C-481.04 47.3, -454.87 35.77, -430.29 25.54 C-405.72 15.31, -384.67 7.62, -360.46 -0.1 C-336.24 -7.82, -310.94 -15.06, -285 -20.78 C-259.07 -26.5, -229.37 -31.6, -204.85 -34.4 C-180.32 -37.21, -157.62 -37.51, -137.85 -37.61 C-118.08 -37.7, -102.99 -37.64, -86.21 -34.95 C-69.42 -32.26, -51.51 -27.29, -37.14 -21.47 C-22.78 -15.64, -6.19 -3.58, 0 0 M0 0 C3.02 2.17, 11.73 7.13, 18.13 13 C24.52 18.87, 33.01 27.56, 38.38 35.24 C43.74 42.91, 47.42 50.52, 50.33 59.04 C53.23 67.57, 54.89 76.24, 55.81 86.38 C56.73 96.53, 57.22 108.34, 55.86 119.9 C54.49 131.46, 52.37 142.16, 47.61 155.73 C42.85 169.31, 36.43 184.96, 27.29 201.34 C18.16 217.73, 7.05 235.71, -7.2 254.02 C-21.46 272.34, -40.13 293.27, -58.24 311.23 C-76.34 329.18, -96.29 345.98, -115.85 361.74 C-135.42 377.5, -156.22 392.54, -175.62 405.78 C-195.02 419.03, -215.68 431.43, -232.24 441.18 C-248.79 450.93, -259.67 456.51, -274.93 464.28 C-290.18 472.04, -305.03 479.51, -323.76 487.76 C-342.48 496.01, -365.03 505.59, -387.3 513.78 C-409.57 521.97, -435.38 530.71, -457.37 536.89 C-479.36 543.07, -498.25 547.03, -519.22 550.85 C-540.2 554.67, -563.77 557.73, -583.24 559.83 C-602.7 561.93, -616.15 563.62, -636.02 563.46 C-655.9 563.3, -682.85 562.41, -702.48 558.88 C-722.11 555.35, -739.23 548.4, -753.79 542.28 C-768.36 536.15, -779.16 530.11, -789.88 522.12 C-800.59 514.13, -811.09 503.25, -818.09 494.36 C-825.09 485.46, -828.37 478.64, -831.88 468.75 C-835.4 458.87, -838.8 449.27, -839.19 435.05 C-839.59 420.82, -838.1 400.13, -834.25 383.39 C-830.4 366.65, -824.78 351.88, -816.1 334.6 C-807.42 317.32, -797.12 299.55, -782.17 279.72 C-767.22 259.89, -746.52 235.64, -726.4 215.62 C-706.28 195.6, -683.93 177.28, -661.45 159.58 C-638.97 141.89, -617.09 125.82, -591.5 109.43 C-565.91 93.05, -534.78 75.26, -507.91 61.28 C-481.04 47.3, -454.87 35.77, -430.29 25.54 C-405.72 15.31, -384.67 7.62, -360.46 -0.1 C-336.24 -7.82, -310.94 -15.06, -285 -20.78 C-259.07 -26.5, -229.37 -31.6, -204.85 -34.4 C-180.32 -37.21, -157.62 -37.51, -137.85 -37.61 C-118.08 -37.7, -102.99 -37.64, -86.21 -34.95 C-69.42 -32.26, -51.51 -27.29, -37.14 -21.47 C-22.78 -15.64, -6.19 -3.58, 0 0" stroke="#E1E1E1" stroke-width="4" fill="none"></path></g></g><mask></mask><g stroke-linecap="round"><g transform="translate(911.012531437103 253.26804597506452) rotate(316.86794743929653 -387.9179545293222 265.8235262091357)"><path d="M0 0 C5.01 3.84, 21.27 14.75, 30.05 23.02 C38.83 31.28, 46.54 40.26, 52.67 49.6 C58.81 58.94, 63.52 69.16, 66.84 79.06 C70.15 88.95, 72.03 96.93, 72.56 108.98 C73.1 121.04, 72.46 137.4, 70.06 151.38 C67.66 165.37, 64.2 177.84, 58.17 192.89 C52.15 207.94, 44.62 224.64, 33.9 241.67 C23.18 258.7, 7.99 278.42, -6.15 295.08 C-20.29 311.74, -34.4 326.17, -50.95 341.62 C-67.5 357.07, -88.15 374.26, -105.44 387.77 C-122.73 401.29, -135.6 410.41, -154.7 422.72 C-173.8 435.02, -197.96 449.57, -220.05 461.59 C-242.14 473.61, -266.34 485.38, -287.26 494.83 C-308.17 504.27, -324.21 510.52, -345.55 518.26 C-366.89 526, -392.16 534.79, -415.31 541.29 C-438.45 547.8, -461.42 552.99, -484.42 557.29 C-507.42 561.59, -530.85 565.08, -553.3 567.11 C-575.75 569.13, -598.96 569.52, -619.12 569.44 C-639.28 569.37, -657.43 568.48, -674.27 566.65 C-691.11 564.83, -705.03 562.86, -720.18 558.48 C-735.33 554.1, -751.8 547.56, -765.16 540.37 C-778.53 533.17, -789.33 525.48, -800.36 515.3 C-811.39 505.11, -823.69 491.59, -831.32 479.25 C-838.96 466.9, -843.32 454.69, -846.17 441.23 C-849.01 427.76, -849.96 414.3, -848.4 398.46 C-846.84 382.63, -843.2 364.06, -836.8 346.23 C-830.41 328.4, -820.46 308.73, -810.03 291.47 C-799.61 274.22, -786.7 257.77, -774.26 242.7 C-761.81 227.62, -750.93 215.97, -735.37 201.01 C-719.81 186.05, -699.9 168.14, -680.88 152.94 C-661.86 137.73, -640.64 122.67, -621.24 109.77 C-601.85 96.88, -586.11 87.37, -564.51 75.57 C-542.9 63.77, -515.04 49.64, -491.61 38.96 C-468.17 28.28, -451.81 20.93, -423.9 11.49 C-395.99 2.06, -354.82 -10.23, -324.15 -17.64 C-293.48 -25.05, -267.91 -29.6, -239.85 -32.96 C-211.79 -36.32, -183.09 -38.12, -155.81 -37.8 C-128.53 -37.47, -97.82 -34.75, -76.15 -31.01 C-54.49 -27.26, -38.51 -20.49, -25.81 -15.32 C-13.12 -10.15, -4.3 -2.55, 0 0 M0 0 C5.01 3.84, 21.27 14.75, 30.05 23.02 C38.83 31.28, 46.54 40.26, 52.67 49.6 C58.81 58.94, 63.52 69.16, 66.84 79.06 C70.15 88.95, 72.03 96.93, 72.56 108.98 C73.1 121.04, 72.46 137.4, 70.06 151.38 C67.66 165.37, 64.2 177.84, 58.17 192.89 C52.15 207.94, 44.62 224.64, 33.9 241.67 C23.18 258.7, 7.99 278.42, -6.15 295.08 C-20.29 311.74, -34.4 326.17, -50.95 341.62 C-67.5 357.07, -88.15 374.26, -105.44 387.77 C-122.73 401.29, -135.6 410.41, -154.7 422.72 C-173.8 435.02, -197.96 449.57, -220.05 461.59 C-242.14 473.61, -266.34 485.38, -287.26 494.83 C-308.17 504.27, -324.21 510.52, -345.55 518.26 C-366.89 526, -392.16 534.79, -415.31 541.29 C-438.45 547.8, -461.42 552.99, -484.42 557.29 C-507.42 561.59, -530.85 565.08, -553.3 567.11 C-575.75 569.13, -598.96 569.52, -619.12 569.44 C-639.28 569.37, -657.43 568.48, -674.27 566.65 C-691.11 564.83, -705.03 562.86, -720.18 558.48 C-735.33 554.1, -751.8 547.56, -765.16 540.37 C-778.53 533.17, -789.33 525.48, -800.36 515.3 C-811.39 505.11, -823.69 491.59, -831.32 479.25 C-838.96 466.9, -843.32 454.69, -846.17 441.23 C-849.01 427.76, -849.96 414.3, -848.4 398.46 C-846.84 382.63, -843.2 364.06, -836.8 346.23 C-830.41 328.4, -820.46 308.73, -810.03 291.47 C-799.61 274.22, -786.7 257.77, -774.26 242.7 C-761.81 227.62, -750.93 215.97, -735.37 201.01 C-719.81 186.05, -699.9 168.14, -680.88 152.94 C-661.86 137.73, -640.64 122.67, -621.24 109.77 C-601.85 96.88, -586.11 87.37, -564.51 75.57 C-542.9 63.77, -515.04 49.64, -491.61 38.96 C-468.17 28.28, -451.81 20.93, -423.9 11.49 C-395.99 2.06, -354.82 -10.23, -324.15 -17.64 C-293.48 -25.05, -267.91 -29.6, -239.85 -32.96 C-211.79 -36.32, -183.09 -38.12, -155.81 -37.8 C-128.53 -37.47, -97.82 -34.75, -76.15 -31.01 C-54.49 -27.26, -38.51 -20.49, -25.81 -15.32 C-13.12 -10.15, -4.3 -2.55, 0 0" stroke="#E1E1E1" stroke-width="4" fill="none"></path></g></g><mask></mask><g stroke-linecap="round"><g transform="translate(932.9790952910741 267.5287524241355) rotate(316.86794743929653 -410.20828118524065 252.33068750457528)"><path d="M0 0 C3.56 3.32, 14.24 12.1, 21.36 19.94 C28.47 27.79, 37.42 39.03, 42.7 47.08 C47.98 55.13, 49.98 59.98, 53.01 68.24 C56.05 76.5, 59.41 84.66, 60.91 96.63 C62.42 108.61, 62.63 127.95, 62.07 140.11 C61.5 152.26, 60.92 157.31, 57.53 169.57 C54.14 181.83, 48 199.5, 41.74 213.65 C35.47 227.81, 27.79 241.89, 19.94 254.5 C12.09 267.11, 6.22 275.34, -5.37 289.3 C-16.95 303.25, -33.2 322.36, -49.57 338.24 C-65.93 354.11, -85.12 370.15, -103.55 384.55 C-121.97 398.96, -138.42 410.85, -160.12 424.68 C-181.83 438.51, -209.89 455.02, -233.76 467.54 C-257.63 480.07, -281.48 490.89, -303.34 499.85 C-325.19 508.81, -343.48 514.54, -364.91 521.33 C-386.33 528.11, -408 534.78, -431.88 540.59 C-455.75 546.4, -480.87 552.52, -508.16 556.18 C-535.45 559.84, -567.22 562.27, -595.62 562.57 C-624.03 562.86, -654.6 560.61, -678.58 557.93 C-702.56 555.25, -721.67 551.38, -739.5 546.47 C-757.34 541.57, -770.95 536.65, -785.59 528.52 C-800.23 520.39, -814.78 509.48, -827.35 497.7 C-839.91 485.92, -852.98 469.7, -860.99 457.83 C-868.99 445.96, -871.8 438.78, -875.38 426.49 C-878.96 414.21, -882.5 400.26, -882.48 384.11 C-882.46 367.96, -879.77 347.26, -875.24 329.59 C-870.72 311.92, -864.55 295.89, -855.34 278.09 C-846.14 260.29, -832.68 239.79, -820.01 222.81 C-807.33 205.83, -794.61 191.79, -779.29 176.2 C-763.98 160.62, -744.69 143.09, -728.11 129.29 C-711.54 115.5, -700.54 107.11, -679.84 93.43 C-659.15 79.75, -629.15 61.04, -603.94 47.22 C-578.74 33.4, -558.03 22.58, -528.61 10.51 C-499.19 -1.56, -458.2 -15.79, -427.44 -25.2 C-396.69 -34.61, -369.88 -40.87, -344.07 -45.95 C-318.26 -51.03, -296.97 -53.68, -272.57 -55.67 C-248.17 -57.66, -219.62 -58.21, -197.68 -57.91 C-175.73 -57.6, -159.28 -56.19, -140.91 -53.83 C-122.54 -51.46, -104.63 -48.4, -87.47 -43.72 C-70.31 -39.03, -52.52 -33, -37.95 -25.72 C-23.37 -18.43, -6.32 -4.29, 0 0 M0 0 C3.56 3.32, 14.24 12.1, 21.36 19.94 C28.47 27.79, 37.42 39.03, 42.7 47.08 C47.98 55.13, 49.98 59.98, 53.01 68.24 C56.05 76.5, 59.41 84.66, 60.91 96.63 C62.42 108.61, 62.63 127.95, 62.07 140.11 C61.5 152.26, 60.92 157.31, 57.53 169.57 C54.14 181.83, 48 199.5, 41.74 213.65 C35.47 227.81, 27.79 241.89, 19.94 254.5 C12.09 267.11, 6.22 275.34, -5.37 289.3 C-16.95 303.25, -33.2 322.36, -49.57 338.24 C-65.93 354.11, -85.12 370.15, -103.55 384.55 C-121.97 398.96, -138.42 410.85, -160.12 424.68 C-181.83 438.51, -209.89 455.02, -233.76 467.54 C-257.63 480.07, -281.48 490.89, -303.34 499.85 C-325.19 508.81, -343.48 514.54, -364.91 521.33 C-386.33 528.11, -408 534.78, -431.88 540.59 C-455.75 546.4, -480.87 552.52, -508.16 556.18 C-535.45 559.84, -567.22 562.27, -595.62 562.57 C-624.03 562.86, -654.6 560.61, -678.58 557.93 C-702.56 555.25, -721.67 551.38, -739.5 546.47 C-757.34 541.57, -770.95 536.65, -785.59 528.52 C-800.23 520.39, -814.78 509.48, -827.35 497.7 C-839.91 485.92, -852.98 469.7, -860.99 457.83 C-868.99 445.96, -871.8 438.78, -875.38 426.49 C-878.96 414.21, -882.5 400.26, -882.48 384.11 C-882.46 367.96, -879.77 347.26, -875.24 329.59 C-870.72 311.92, -864.55 295.89, -855.34 278.09 C-846.14 260.29, -832.68 239.79, -820.01 222.81 C-807.33 205.83, -794.61 191.79, -779.29 176.2 C-763.98 160.62, -744.69 143.09, -728.11 129.29 C-711.54 115.5, -700.54 107.11, -679.84 93.43 C-659.15 79.75, -629.15 61.04, -603.94 47.22 C-578.74 33.4, -558.03 22.58, -528.61 10.51 C-499.19 -1.56, -458.2 -15.79, -427.44 -25.2 C-396.69 -34.61, -369.88 -40.87, -344.07 -45.95 C-318.26 -51.03, -296.97 -53.68, -272.57 -55.67 C-248.17 -57.66, -219.62 -58.21, -197.68 -57.91 C-175.73 -57.6, -159.28 -56.19, -140.91 -53.83 C-122.54 -51.46, -104.63 -48.4, -87.47 -43.72 C-70.31 -39.03, -52.52 -33, -37.95 -25.72 C-23.37 -18.43, -6.32 -4.29, 0 0" stroke="#E1E1E1" stroke-width="4" fill="none"></path></g></g><mask></mask><g stroke-linecap="round"><g transform="translate(928.220736116924 262.82556789923774) rotate(316.86794743929653 -404.75756512425033 256.3526552647294)"><path d="M0 0 C3.34 2.79, 12.98 9.64, 20.06 16.72 C27.14 23.79, 36.05 33.91, 42.49 42.45 C48.92 50.99, 53.78 57.88, 58.68 67.96 C63.58 78.03, 68.77 91.06, 71.88 102.89 C74.99 114.72, 76.84 125.81, 77.34 138.93 C77.84 152.06, 77.42 167.09, 74.88 181.65 C72.33 196.21, 68.72 209.86, 62.05 226.29 C55.39 242.71, 45.14 263.32, 34.88 280.2 C24.62 297.08, 13.66 311.8, 0.5 327.56 C-12.67 343.32, -29.29 360.77, -44.1 374.75 C-58.92 388.73, -72.34 399.25, -88.39 411.45 C-104.44 423.65, -121.41 436, -140.4 447.97 C-159.38 459.94, -180.19 471.98, -202.28 483.27 C-224.38 494.55, -249.51 506.08, -272.97 515.65 C-296.44 525.22, -317.12 532.88, -343.05 540.71 C-368.97 548.54, -400.75 557.18, -428.51 562.64 C-456.28 568.1, -481.38 571.16, -509.65 573.46 C-537.93 575.76, -571.37 577.32, -598.15 576.44 C-624.92 575.57, -649.01 571.83, -670.29 568.22 C-691.56 564.61, -707.6 560.28, -725.78 554.78 C-743.96 549.27, -763.78 543.06, -779.35 535.17 C-794.93 527.27, -806.05 519.48, -819.21 507.4 C-832.37 495.32, -848.66 475.84, -858.32 462.7 C-867.98 449.55, -872.44 440.56, -877.15 428.51 C-881.86 416.45, -884.96 404.5, -886.57 390.38 C-888.19 376.26, -888.69 359.76, -886.86 343.78 C-885.02 327.8, -880.87 310.26, -875.57 294.49 C-870.26 278.72, -863.95 264.99, -855.03 249.18 C-846.11 233.37, -834.89 216.14, -822.06 199.64 C-809.23 183.14, -795.32 167, -778.04 150.2 C-760.76 133.39, -742.78 116.75, -718.38 98.81 C-693.98 80.87, -659.67 58.66, -631.63 42.56 C-603.58 26.47, -576.3 13.58, -550.12 2.25 C-523.94 -9.08, -499.68 -17.43, -474.55 -25.42 C-449.43 -33.4, -426.22 -39.99, -399.36 -45.66 C-372.5 -51.33, -342.97 -56.45, -313.41 -59.46 C-283.85 -62.47, -251.18 -64.47, -222.02 -63.74 C-192.86 -63.01, -162.63 -59.37, -138.45 -55.08 C-114.26 -50.8, -96.03 -44.6, -76.9 -38.04 C-57.77 -31.48, -36.48 -22.06, -23.66 -15.72 C-10.85 -9.38, -3.94 -2.62, 0 0 M0 0 C3.34 2.79, 12.98 9.64, 20.06 16.72 C27.14 23.79, 36.05 33.91, 42.49 42.45 C48.92 50.99, 53.78 57.88, 58.68 67.96 C63.58 78.03, 68.77 91.06, 71.88 102.89 C74.99 114.72, 76.84 125.81, 77.34 138.93 C77.84 152.06, 77.42 167.09, 74.88 181.65 C72.33 196.21, 68.72 209.86, 62.05 226.29 C55.39 242.71, 45.14 263.32, 34.88 280.2 C24.62 297.08, 13.66 311.8, 0.5 327.56 C-12.67 343.32, -29.29 360.77, -44.1 374.75 C-58.92 388.73, -72.34 399.25, -88.39 411.45 C-104.44 423.65, -121.41 436, -140.4 447.97 C-159.38 459.94, -180.19 471.98, -202.28 483.27 C-224.38 494.55, -249.51 506.08, -272.97 515.65 C-296.44 525.22, -317.12 532.88, -343.05 540.71 C-368.97 548.54, -400.75 557.18, -428.51 562.64 C-456.28 568.1, -481.38 571.16, -509.65 573.46 C-537.93 575.76, -571.37 577.32, -598.15 576.44 C-624.92 575.57, -649.01 571.83, -670.29 568.22 C-691.56 564.61, -707.6 560.28, -725.78 554.78 C-743.96 549.27, -763.78 543.06, -779.35 535.17 C-794.93 527.27, -806.05 519.48, -819.21 507.4 C-832.37 495.32, -848.66 475.84, -858.32 462.7 C-867.98 449.55, -872.44 440.56, -877.15 428.51 C-881.86 416.45, -884.96 404.5, -886.57 390.38 C-888.19 376.26, -888.69 359.76, -886.86 343.78 C-885.02 327.8, -880.87 310.26, -875.57 294.49 C-870.26 278.72, -863.95 264.99, -855.03 249.18 C-846.11 233.37, -834.89 216.14, -822.06 199.64 C-809.23 183.14, -795.32 167, -778.04 150.2 C-760.76 133.39, -742.78 116.75, -718.38 98.81 C-693.98 80.87, -659.67 58.66, -631.63 42.56 C-603.58 26.47, -576.3 13.58, -550.12 2.25 C-523.94 -9.08, -499.68 -17.43, -474.55 -25.42 C-449.43 -33.4, -426.22 -39.99, -399.36 -45.66 C-372.5 -51.33, -342.97 -56.45, -313.41 -59.46 C-283.85 -62.47, -251.18 -64.47, -222.02 -63.74 C-192.86 -63.01, -162.63 -59.37, -138.45 -55.08 C-114.26 -50.8, -96.03 -44.6, -76.9 -38.04 C-57.77 -31.48, -36.48 -22.06, -23.66 -15.72 C-10.85 -9.38, -3.94 -2.62, 0 0" stroke="#E1E1E1" stroke-width="4" fill="none"></path></g></g><mask></mask><g stroke-linecap="round"><g transform="translate(993.7570274577295 342.43538943794874) rotate(316.86794743929653 -470.57909089105567 176.6928370592692)"><path d="M0 0 C1.76 4.59, 7.47 17.24, 10.54 27.54 C13.61 37.83, 16.8 50.66, 18.42 61.78 C20.04 72.91, 20.92 82.02, 20.26 94.3 C19.6 106.58, 18 120.51, 14.46 135.47 C10.93 150.43, 5.6 168.27, -0.95 184.06 C-7.51 199.85, -14.99 214.49, -24.87 230.22 C-34.76 245.94, -47.95 263.67, -60.25 278.42 C-72.56 293.17, -82.93 304.29, -98.69 318.72 C-114.46 333.16, -135.02 350.53, -154.83 365.02 C-174.64 379.5, -197.14 393.71, -217.56 405.63 C-237.99 417.55, -255.65 426.5, -277.39 436.56 C-299.13 446.62, -325.2 457.75, -348.03 465.99 C-370.85 474.24, -391.88 480.2, -414.32 486.04 C-436.75 491.88, -459.08 497.26, -482.64 501.03 C-506.2 504.8, -531.2 507.12, -555.69 508.65 C-580.18 510.17, -604.93 511.19, -629.57 510.18 C-654.2 509.17, -679.39 506.61, -703.49 502.6 C-727.59 498.59, -753.51 492.56, -774.15 486.15 C-794.78 479.73, -810.84 472.22, -827.29 464.12 C-843.73 456.02, -857.99 449.22, -872.82 437.55 C-887.65 425.88, -904.92 407.73, -916.27 394.09 C-927.62 380.45, -934.48 368.21, -940.9 355.72 C-947.33 343.23, -951.38 332.93, -954.8 319.14 C-958.22 305.36, -961.24 290.06, -961.41 273.04 C-961.58 256.01, -960.52 237.03, -955.81 216.99 C-951.11 196.95, -943.02 173.13, -933.18 152.78 C-923.34 132.44, -910.18 112.74, -896.79 94.92 C-883.4 77.09, -868.6 61.47, -852.83 45.83 C-837.05 30.19, -819.59 14.9, -802.13 1.08 C-784.66 -12.74, -767.09 -24.96, -748.02 -37.09 C-728.94 -49.21, -709.52 -60.62, -687.68 -71.66 C-665.83 -82.7, -641.48 -93.86, -616.95 -103.32 C-592.41 -112.79, -568.5 -120.92, -540.45 -128.44 C-512.4 -135.96, -478.77 -143.7, -448.64 -148.43 C-418.51 -153.15, -390.4 -156.03, -359.66 -156.8 C-328.92 -157.56, -292.59 -155.96, -264.21 -153 C-235.83 -150.04, -212.83 -145.4, -189.38 -139.02 C-165.93 -132.64, -141.62 -122.59, -123.52 -114.72 C-105.43 -106.85, -94.09 -100.28, -80.81 -91.78 C-67.53 -83.27, -54.5 -73.75, -43.85 -63.69 C-33.2 -53.64, -24.21 -42.07, -16.9 -31.45 C-9.59 -20.84, -2.82 -5.24, 0 0 M0 0 C1.76 4.59, 7.47 17.24, 10.54 27.54 C13.61 37.83, 16.8 50.66, 18.42 61.78 C20.04 72.91, 20.92 82.02, 20.26 94.3 C19.6 106.58, 18 120.51, 14.46 135.47 C10.93 150.43, 5.6 168.27, -0.95 184.06 C-7.51 199.85, -14.99 214.49, -24.87 230.22 C-34.76 245.94, -47.95 263.67, -60.25 278.42 C-72.56 293.17, -82.93 304.29, -98.69 318.72 C-114.46 333.16, -135.02 350.53, -154.83 365.02 C-174.64 379.5, -197.14 393.71, -217.56 405.63 C-237.99 417.55, -255.65 426.5, -277.39 436.56 C-299.13 446.62, -325.2 457.75, -348.03 465.99 C-370.85 474.24, -391.88 480.2, -414.32 486.04 C-436.75 491.88, -459.08 497.26, -482.64 501.03 C-506.2 504.8, -531.2 507.12, -555.69 508.65 C-580.18 510.17, -604.93 511.19, -629.57 510.18 C-654.2 509.17, -679.39 506.61, -703.49 502.6 C-727.59 498.59, -753.51 492.56, -774.15 486.15 C-794.78 479.73, -810.84 472.22, -827.29 464.12 C-843.73 456.02, -857.99 449.22, -872.82 437.55 C-887.65 425.88, -904.92 407.73, -916.27 394.09 C-927.62 380.45, -934.48 368.21, -940.9 355.72 C-947.33 343.23, -951.38 332.93, -954.8 319.14 C-958.22 305.36, -961.24 290.06, -961.41 273.04 C-961.58 256.01, -960.52 237.03, -955.81 216.99 C-951.11 196.95, -943.02 173.13, -933.18 152.78 C-923.34 132.44, -910.18 112.74, -896.79 94.92 C-883.4 77.09, -868.6 61.47, -852.83 45.83 C-837.05 30.19, -819.59 14.9, -802.13 1.08 C-784.66 -12.74, -767.09 -24.96, -748.02 -37.09 C-728.94 -49.21, -709.52 -60.62, -687.68 -71.66 C-665.83 -82.7, -641.48 -93.86, -616.95 -103.32 C-592.41 -112.79, -568.5 -120.92, -540.45 -128.44 C-512.4 -135.96, -478.77 -143.7, -448.64 -148.43 C-418.51 -153.15, -390.4 -156.03, -359.66 -156.8 C-328.92 -157.56, -292.59 -155.96, -264.21 -153 C-235.83 -150.04, -212.83 -145.4, -189.38 -139.02 C-165.93 -132.64, -141.62 -122.59, -123.52 -114.72 C-105.43 -106.85, -94.09 -100.28, -80.81 -91.78 C-67.53 -83.27, -54.5 -73.75, -43.85 -63.69 C-33.2 -53.64, -24.21 -42.07, -16.9 -31.45 C-9.59 -20.84, -2.82 -5.24, 0 0" stroke="#E1E1E1" stroke-width="4" fill="none"></path></g></g><mask></mask><g stroke-linecap="round"><g transform="translate(1017.9820472681722 407.1356633884677) rotate(316.86794743929653 -494.19040039723217 112.35122300347996)"><path d="M0 0 C0.36 3.21, 1.57 10.63, 2.16 19.26 C2.75 27.88, 3.98 41.05, 3.53 51.76 C3.07 62.46, 2 70.86, -0.57 83.48 C-3.15 96.09, -6.28 112.01, -11.92 127.45 C-17.55 142.89, -25.24 159.51, -34.39 176.11 C-43.53 192.71, -55.17 211.45, -66.81 227.06 C-78.45 242.67, -90.19 255.64, -104.23 269.78 C-118.27 283.92, -132.64 297.42, -151.05 311.9 C-169.47 326.37, -193.88 343.62, -214.73 356.62 C-235.57 369.62, -255.56 379.93, -276.14 389.92 C-296.73 399.91, -317.75 408.87, -338.25 416.57 C-358.75 424.26, -378.22 430.37, -399.14 436.07 C-420.05 441.78, -441.34 446.74, -463.75 450.8 C-486.16 454.85, -508.09 458.33, -533.59 460.4 C-559.09 462.48, -590.46 463.84, -616.72 463.25 C-642.99 462.65, -670.84 459.52, -691.19 456.84 C-711.53 454.16, -722.27 451.47, -738.8 447.18 C-755.34 442.9, -774.01 437.22, -790.39 431.13 C-806.77 425.03, -822.27 418.24, -837.1 410.61 C-851.92 402.99, -865.7 394.66, -879.34 385.38 C-892.97 376.11, -907.45 365.5, -918.89 354.98 C-930.33 344.45, -939.87 333.25, -947.98 322.24 C-956.08 311.22, -961.79 301.4, -967.52 288.88 C-973.26 276.36, -978.34 262.39, -982.41 247.1 C-986.47 231.81, -990.8 215.12, -991.91 197.14 C-993.01 179.16, -992.35 158.61, -989.05 139.22 C-985.75 119.82, -980.43 100.68, -972.12 80.79 C-963.81 60.91, -951.32 38.59, -939.19 19.9 C-927.07 1.21, -917.37 -12.25, -899.35 -31.32 C-881.34 -50.39, -855.85 -75.18, -831.1 -94.54 C-806.36 -113.89, -775.95 -132.97, -750.88 -147.45 C-725.82 -161.93, -703.45 -171.64, -680.69 -181.43 C-657.93 -191.22, -640.21 -198.44, -614.3 -206.19 C-588.39 -213.93, -554.69 -222.52, -525.25 -227.91 C-495.81 -233.3, -467.28 -236.88, -437.65 -238.54 C-408.01 -240.21, -375.4 -239.7, -347.46 -237.88 C-319.52 -236.06, -292.52 -231.94, -270.02 -227.63 C-247.53 -223.32, -231.16 -218.32, -212.49 -212.04 C-193.82 -205.76, -174.91 -198.25, -157.98 -189.97 C-141.05 -181.68, -126.29 -172.78, -110.9 -162.34 C-95.5 -151.91, -77.28 -137.99, -65.61 -127.34 C-53.95 -116.7, -47.86 -108.53, -40.92 -98.47 C-33.99 -88.42, -30.29 -81.5, -24.01 -67.01 C-17.73 -52.53, -7.26 -22.73, -3.26 -11.56 C0.75 -0.39, -0.54 -1.93, 0 0 M0 0 C0.36 3.21, 1.57 10.63, 2.16 19.26 C2.75 27.88, 3.98 41.05, 3.53 51.76 C3.07 62.46, 2 70.86, -0.57 83.48 C-3.15 96.09, -6.28 112.01, -11.92 127.45 C-17.55 142.89, -25.24 159.51, -34.39 176.11 C-43.53 192.71, -55.17 211.45, -66.81 227.06 C-78.45 242.67, -90.19 255.64, -104.23 269.78 C-118.27 283.92, -132.64 297.42, -151.05 311.9 C-169.47 326.37, -193.88 343.62, -214.73 356.62 C-235.57 369.62, -255.56 379.93, -276.14 389.92 C-296.73 399.91, -317.75 408.87, -338.25 416.57 C-358.75 424.26, -378.22 430.37, -399.14 436.07 C-420.05 441.78, -441.34 446.74, -463.75 450.8 C-486.16 454.85, -508.09 458.33, -533.59 460.4 C-559.09 462.48, -590.46 463.84, -616.72 463.25 C-642.99 462.65, -670.84 459.52, -691.19 456.84 C-711.53 454.16, -722.27 451.47, -738.8 447.18 C-755.34 442.9, -774.01 437.22, -790.39 431.13 C-806.77 425.03, -822.27 418.24, -837.1 410.61 C-851.92 402.99, -865.7 394.66, -879.34 385.38 C-892.97 376.11, -907.45 365.5, -918.89 354.98 C-930.33 344.45, -939.87 333.25, -947.98 322.24 C-956.08 311.22, -961.79 301.4, -967.52 288.88 C-973.26 276.36, -978.34 262.39, -982.41 247.1 C-986.47 231.81, -990.8 215.12, -991.91 197.14 C-993.01 179.16, -992.35 158.61, -989.05 139.22 C-985.75 119.82, -980.43 100.68, -972.12 80.79 C-963.81 60.91, -951.32 38.59, -939.19 19.9 C-927.07 1.21, -917.37 -12.25, -899.35 -31.32 C-881.34 -50.39, -855.85 -75.18, -831.1 -94.54 C-806.36 -113.89, -775.95 -132.97, -750.88 -147.45 C-725.82 -161.93, -703.45 -171.64, -680.69 -181.43 C-657.93 -191.22, -640.21 -198.44, -614.3 -206.19 C-588.39 -213.93, -554.69 -222.52, -525.25 -227.91 C-495.81 -233.3, -467.28 -236.88, -437.65 -238.54 C-408.01 -240.21, -375.4 -239.7, -347.46 -237.88 C-319.52 -236.06, -292.52 -231.94, -270.02 -227.63 C-247.53 -223.32, -231.16 -218.32, -212.49 -212.04 C-193.82 -205.76, -174.91 -198.25, -157.98 -189.97 C-141.05 -181.68, -126.29 -172.78, -110.9 -162.34 C-95.5 -151.91, -77.28 -137.99, -65.61 -127.34 C-53.95 -116.7, -47.86 -108.53, -40.92 -98.47 C-33.99 -88.42, -30.29 -81.5, -24.01 -67.01 C-17.73 -52.53, -7.26 -22.73, -3.26 -11.56 C0.75 -0.39, -0.54 -1.93, 0 0" stroke="#E1E1E1" stroke-width="4" fill="none"></path></g></g><mask></mask><g stroke-linecap="round"><g transform="translate(990.8459577158021 305.1046967596776) rotate(316.86794743929653 -454.1975325367244 226.3891381926992)"><path d="M0 0 C-3.05 -4.89, -11.46 -19.65, -18.28 -29.34 C-25.1 -39.04, -31.74 -47.8, -40.92 -58.15 C-50.1 -68.51, -61.91 -80.89, -73.37 -91.49 C-84.84 -102.08, -94.34 -110.62, -109.7 -121.72 C-125.06 -132.83, -147.1 -147.68, -165.53 -158.13 C-183.95 -168.59, -199.02 -176.14, -220.23 -184.45 C-241.44 -192.75, -269.37 -201.98, -292.77 -207.96 C-316.16 -213.93, -337.75 -217.55, -360.59 -220.29 C-383.43 -223.04, -407.79 -224.17, -429.81 -224.43 C-451.83 -224.7, -471.9 -223.77, -492.71 -221.87 C-513.53 -219.98, -532.82 -217.7, -554.71 -213.04 C-576.61 -208.38, -603.86 -200.57, -624.09 -193.92 C-644.32 -187.26, -658.82 -180.91, -676.11 -173.12 C-693.39 -165.33, -709.83 -157.61, -727.8 -147.18 C-745.77 -136.74, -765.91 -124.28, -783.94 -110.5 C-801.98 -96.72, -819.15 -81.75, -836.02 -64.49 C-852.88 -47.23, -870.96 -25.99, -885.12 -6.92 C-899.28 12.15, -911.26 31.66, -920.96 49.93 C-930.66 68.2, -937.21 84.45, -943.32 102.71 C-949.42 120.96, -954.38 140.1, -957.59 159.45 C-960.8 178.81, -962.17 199.71, -962.58 218.84 C-962.99 237.97, -961.96 257.07, -960.05 274.23 C-958.13 291.4, -954.35 307.52, -951.07 321.85 C-947.79 336.18, -946.02 345.04, -940.36 360.22 C-934.7 375.4, -925.54 396.32, -917.12 412.93 C-908.7 429.53, -900.18 444.69, -889.86 459.86 C-879.55 475.03, -867.17 490.15, -855.24 503.94 C-843.31 517.73, -832.97 529.18, -818.29 542.6 C-803.62 556.02, -785.64 571.52, -767.19 584.47 C-748.73 597.41, -729.08 609.54, -707.58 620.24 C-686.09 630.94, -660.16 641.01, -638.23 648.68 C-616.31 656.35, -600.24 661.51, -576.04 666.26 C-551.83 671.02, -520.95 675.6, -493.01 677.21 C-465.06 678.82, -435.9 678.54, -408.4 675.92 C-380.89 673.3, -354.92 668.39, -327.98 661.49 C-301.03 654.6, -276.51 648.11, -246.72 634.57 C-216.93 621.04, -178.68 600.89, -149.24 580.31 C-119.8 559.72, -93.23 535.84, -70.06 511.08 C-46.89 486.31, -25.51 455.32, -10.22 431.71 C5.06 408.1, 13.49 388.25, 21.66 369.41 C29.83 350.57, 33.99 337.4, 38.8 318.67 C43.6 299.93, 47.93 275.88, 50.5 256.99 C53.06 238.09, 54.15 222.95, 54.18 205.29 C54.21 187.62, 52.61 168.18, 50.68 150.99 C48.74 133.81, 46.24 119.01, 42.57 102.19 C38.89 85.37, 34.15 66.89, 28.62 50.08 C23.1 33.26, 16.85 17.84, 9.44 1.3 C2.04 -15.24, -5.15 -31.34, -15.8 -49.13 C-26.45 -66.93, -42.78 -89.98, -54.47 -105.47 C-66.16 -120.97, -75.33 -130.89, -85.93 -142.11 C-96.53 -153.33, -106.24 -162.5, -118.08 -172.8 C-129.91 -183.09, -150.45 -198.7, -156.92 -203.88 M0 0 C-3.05 -4.89, -11.46 -19.65, -18.28 -29.34 C-25.1 -39.04, -31.74 -47.8, -40.92 -58.15 C-50.1 -68.51, -61.91 -80.89, -73.37 -91.49 C-84.84 -102.08, -94.34 -110.62, -109.7 -121.72 C-125.06 -132.83, -147.1 -147.68, -165.53 -158.13 C-183.95 -168.59, -199.02 -176.14, -220.23 -184.45 C-241.44 -192.75, -269.37 -201.98, -292.77 -207.96 C-316.16 -213.93, -337.75 -217.55, -360.59 -220.29 C-383.43 -223.04, -407.79 -224.17, -429.81 -224.43 C-451.83 -224.7, -471.9 -223.77, -492.71 -221.87 C-513.53 -219.98, -532.82 -217.7, -554.71 -213.04 C-576.61 -208.38, -603.86 -200.57, -624.09 -193.92 C-644.32 -187.26, -658.82 -180.91, -676.11 -173.12 C-693.39 -165.33, -709.83 -157.61, -727.8 -147.18 C-745.77 -136.74, -765.91 -124.28, -783.94 -110.5 C-801.98 -96.72, -819.15 -81.75, -836.02 -64.49 C-852.88 -47.23, -870.96 -25.99, -885.12 -6.92 C-899.28 12.15, -911.26 31.66, -920.96 49.93 C-930.66 68.2, -937.21 84.45, -943.32 102.71 C-949.42 120.96, -954.38 140.1, -957.59 159.45 C-960.8 178.81, -962.17 199.71, -962.58 218.84 C-962.99 237.97, -961.96 257.07, -960.05 274.23 C-958.13 291.4, -954.35 307.52, -951.07 321.85 C-947.79 336.18, -946.02 345.04, -940.36 360.22 C-934.7 375.4, -925.54 396.32, -917.12 412.93 C-908.7 429.53, -900.18 444.69, -889.86 459.86 C-879.55 475.03, -867.17 490.15, -855.24 503.94 C-843.31 517.73, -832.97 529.18, -818.29 542.6 C-803.62 556.02, -785.64 571.52, -767.19 584.47 C-748.73 597.41, -729.08 609.54, -707.58 620.24 C-686.09 630.94, -660.16 641.01, -638.23 648.68 C-616.31 656.35, -600.24 661.51, -576.04 666.26 C-551.83 671.02, -520.95 675.6, -493.01 677.21 C-465.06 678.82, -435.9 678.54, -408.4 675.92 C-380.89 673.3, -354.92 668.39, -327.98 661.49 C-301.03 654.6, -276.51 648.11, -246.72 634.57 C-216.93 621.04, -178.68 600.89, -149.24 580.31 C-119.8 559.72, -93.23 535.84, -70.06 511.08 C-46.89 486.31, -25.51 455.32, -10.22 431.71 C5.06 408.1, 13.49 388.25, 21.66 369.41 C29.83 350.57, 33.99 337.4, 38.8 318.67 C43.6 299.93, 47.93 275.88, 50.5 256.99 C53.06 238.09, 54.15 222.95, 54.18 205.29 C54.21 187.62, 52.61 168.18, 50.68 150.99 C48.74 133.81, 46.24 119.01, 42.57 102.19 C38.89 85.37, 34.15 66.89, 28.62 50.08 C23.1 33.26, 16.85 17.84, 9.44 1.3 C2.04 -15.24, -5.15 -31.34, -15.8 -49.13 C-26.45 -66.93, -42.78 -89.98, -54.47 -105.47 C-66.16 -120.97, -75.33 -130.89, -85.93 -142.11 C-96.53 -153.33, -106.24 -162.5, -118.08 -172.8 C-129.91 -183.09, -150.45 -198.7, -156.92 -203.88" stroke="#E1E1E1" stroke-width="4" fill="none"></path></g></g><mask></mask><g stroke-linecap="round"><g transform="translate(1016.7390314297957 348.0781601371332) rotate(316.86794743929653 -492.4719596434355 196.6453420643444)"><path d="M0 0 C-3.85 -7.42, -13.98 -28.75, -23.11 -44.51 C-32.24 -60.26, -42.05 -77.85, -54.78 -94.54 C-67.51 -111.23, -84.72 -129.91, -99.51 -144.65 C-114.3 -159.38, -128.46 -171.08, -143.5 -182.94 C-158.55 -194.8, -169.66 -204.2, -189.78 -215.79 C-209.9 -227.38, -240.83 -242.69, -264.2 -252.47 C-287.57 -262.25, -309.34 -268.87, -330 -274.48 C-350.66 -280.09, -365.81 -283.1, -388.15 -286.14 C-410.49 -289.18, -439.6 -292.35, -464.05 -292.72 C-488.5 -293.1, -509.92 -291.69, -534.86 -288.39 C-559.81 -285.09, -587.73 -280.02, -613.73 -272.93 C-639.73 -265.83, -667.65 -255.86, -690.86 -245.79 C-714.08 -235.73, -735.04 -223.32, -753.04 -212.55 C-771.04 -201.79, -783.44 -193.28, -798.87 -181.21 C-814.3 -169.15, -830.43 -155.17, -845.63 -140.16 C-860.83 -125.15, -875.93 -109.59, -890.08 -91.16 C-904.23 -72.74, -919.08 -50.13, -930.55 -29.6 C-942.02 -9.07, -951.36 12.51, -958.91 32.02 C-966.45 51.53, -971.66 68.41, -975.82 87.46 C-979.97 106.5, -982.33 125.07, -983.86 146.28 C-985.38 167.5, -986.18 193.09, -984.94 214.76 C-983.71 236.42, -980.01 257.44, -976.47 276.25 C-972.93 295.05, -969.11 310.17, -963.7 327.6 C-958.29 345.04, -952.17 362.12, -944 380.84 C-935.82 399.57, -924.54 422.88, -914.65 439.98 C-904.76 457.08, -896.05 468.8, -884.65 483.43 C-873.25 498.05, -859.83 513.48, -846.23 527.74 C-832.63 542, -821.49 554.16, -803.05 568.99 C-784.62 583.82, -760.18 602.1, -735.6 616.7 C-711.01 631.31, -680.91 646.62, -655.57 656.62 C-630.23 666.63, -603.42 671.83, -583.56 676.73 C-563.71 681.62, -544.28 684.47, -536.42 686.02 M0 0 C-3.85 -7.42, -13.98 -28.75, -23.11 -44.51 C-32.24 -60.26, -42.05 -77.85, -54.78 -94.54 C-67.51 -111.23, -84.72 -129.91, -99.51 -144.65 C-114.3 -159.38, -128.46 -171.08, -143.5 -182.94 C-158.55 -194.8, -169.66 -204.2, -189.78 -215.79 C-209.9 -227.38, -240.83 -242.69, -264.2 -252.47 C-287.57 -262.25, -309.34 -268.87, -330 -274.48 C-350.66 -280.09, -365.81 -283.1, -388.15 -286.14 C-410.49 -289.18, -439.6 -292.35, -464.05 -292.72 C-488.5 -293.1, -509.92 -291.69, -534.86 -288.39 C-559.81 -285.09, -587.73 -280.02, -613.73 -272.93 C-639.73 -265.83, -667.65 -255.86, -690.86 -245.79 C-714.08 -235.73, -735.04 -223.32, -753.04 -212.55 C-771.04 -201.79, -783.44 -193.28, -798.87 -181.21 C-814.3 -169.15, -830.43 -155.17, -845.63 -140.16 C-860.83 -125.15, -875.93 -109.59, -890.08 -91.16 C-904.23 -72.74, -919.08 -50.13, -930.55 -29.6 C-942.02 -9.07, -951.36 12.51, -958.91 32.02 C-966.45 51.53, -971.66 68.41, -975.82 87.46 C-979.97 106.5, -982.33 125.07, -983.86 146.28 C-985.38 167.5, -986.18 193.09, -984.94 214.76 C-983.71 236.42, -980.01 257.44, -976.47 276.25 C-972.93 295.05, -969.11 310.17, -963.7 327.6 C-958.29 345.04, -952.17 362.12, -944 380.84 C-935.82 399.57, -924.54 422.88, -914.65 439.98 C-904.76 457.08, -896.05 468.8, -884.65 483.43 C-873.25 498.05, -859.83 513.48, -846.23 527.74 C-832.63 542, -821.49 554.16, -803.05 568.99 C-784.62 583.82, -760.18 602.1, -735.6 616.7 C-711.01 631.31, -680.91 646.62, -655.57 656.62 C-630.23 666.63, -603.42 671.83, -583.56 676.73 C-563.71 681.62, -544.28 684.47, -536.42 686.02" stroke="#E1E1E1" stroke-width="4" fill="none"></path></g></g><mask></mask><g stroke-linecap="round"><g transform="translate(151.54739311693982 659.5218480176763) rotate(316.86794743929653 485.5466760949927 -51.29833539050742)"><path d="M0 0 C3.58 6.14, 11.11 22.32, 21.46 36.82 C31.81 51.31, 47.57 71.65, 62.12 86.98 C76.66 102.32, 91.06 115.1, 108.73 128.82 C126.41 142.53, 146.36 156.89, 168.16 169.27 C189.96 181.66, 215.27 193.77, 239.52 203.14 C263.77 212.51, 286.96 219.67, 313.68 225.49 C340.4 231.31, 373.99 235.66, 399.83 238.05 C425.66 240.44, 445.01 240.98, 468.71 239.82 C492.41 238.66, 519.74 234.9, 542.01 231.11 C564.29 227.31, 581.44 223.01, 602.36 217.06 C623.28 211.11, 642.15 206.42, 667.51 195.41 C692.86 184.4, 726.97 168.5, 754.48 151 C781.99 133.49, 809 112.51, 832.57 90.38 C856.14 68.26, 878.09 43, 895.89 18.25 C913.7 -6.51, 928.09 -32.53, 939.42 -58.15 C950.76 -83.78, 958.6 -113.37, 963.88 -135.51 C969.15 -157.64, 970.29 -172.43, 971.09 -190.98 C971.89 -209.52, 970.58 -228.26, 968.68 -246.77 C966.77 -265.28, 962.88 -286.11, 959.66 -302.06 C956.44 -318, 951.07 -335.69, 949.35 -342.42 M0 0 C3.58 6.14, 11.11 22.32, 21.46 36.82 C31.81 51.31, 47.57 71.65, 62.12 86.98 C76.66 102.32, 91.06 115.1, 108.73 128.82 C126.41 142.53, 146.36 156.89, 168.16 169.27 C189.96 181.66, 215.27 193.77, 239.52 203.14 C263.77 212.51, 286.96 219.67, 313.68 225.49 C340.4 231.31, 373.99 235.66, 399.83 238.05 C425.66 240.44, 445.01 240.98, 468.71 239.82 C492.41 238.66, 519.74 234.9, 542.01 231.11 C564.29 227.31, 581.44 223.01, 602.36 217.06 C623.28 211.11, 642.15 206.42, 667.51 195.41 C692.86 184.4, 726.97 168.5, 754.48 151 C781.99 133.49, 809 112.51, 832.57 90.38 C856.14 68.26, 878.09 43, 895.89 18.25 C913.7 -6.51, 928.09 -32.53, 939.42 -58.15 C950.76 -83.78, 958.6 -113.37, 963.88 -135.51 C969.15 -157.64, 970.29 -172.43, 971.09 -190.98 C971.89 -209.52, 970.58 -228.26, 968.68 -246.77 C966.77 -265.28, 962.88 -286.11, 959.66 -302.06 C956.44 -318, 951.07 -335.69, 949.35 -342.42" stroke="#E1E1E1" stroke-width="4" fill="none"></path></g></g><mask></mask><g stroke-linecap="round"><g transform="translate(1125.0199258104096 395.0630909170759) rotate(316.86794743929653 -491.7842489850253 225.0958038065421)"><path d="M0 0 C0.01 4.11, 0.62 13.52, 0.07 24.64 C-0.48 35.75, -0.33 50.19, -3.29 66.7 C-6.24 83.21, -10.68 104.59, -17.67 123.72 C-24.65 142.84, -34.52 162.9, -45.19 181.46 C-55.86 200.03, -69.23 219.27, -81.66 235.09 C-94.1 250.9, -106.16 263.15, -119.8 276.37 C-133.44 289.58, -147.35 301.89, -163.49 314.39 C-179.63 326.89, -198.68 340.37, -216.63 351.38 C-234.59 362.39, -252.81 371.52, -271.21 380.43 C-289.62 389.35, -307.78 397.46, -327.09 404.85 C-346.4 412.24, -366.96 419.12, -387.06 424.79 C-407.15 430.47, -425.06 434.87, -447.67 438.91 C-470.29 442.95, -499.83 447.16, -522.74 449.04 C-545.64 450.92, -563.41 450.79, -585.12 450.19 C-606.82 449.6, -630.84 448.34, -652.99 445.47 C-675.14 442.6, -694.91 438.91, -718.01 432.99 C-741.12 427.06, -768.02 419.71, -791.62 409.93 C-815.22 400.16, -842.46 384.4, -859.6 374.34 C-876.74 364.28, -884.07 357.91, -894.46 349.55 C-904.85 341.19, -912.6 333.62, -921.93 324.16 C-931.26 314.71, -942.61 302.71, -950.44 292.81 C-958.26 282.91, -963.32 274.57, -968.85 264.78 C-974.38 254.98, -981.17 239.15, -983.64 234.02 M0 0 C0.01 4.11, 0.62 13.52, 0.07 24.64 C-0.48 35.75, -0.33 50.19, -3.29 66.7 C-6.24 83.21, -10.68 104.59, -17.67 123.72 C-24.65 142.84, -34.52 162.9, -45.19 181.46 C-55.86 200.03, -69.23 219.27, -81.66 235.09 C-94.1 250.9, -106.16 263.15, -119.8 276.37 C-133.44 289.58, -147.35 301.89, -163.49 314.39 C-179.63 326.89, -198.68 340.37, -216.63 351.38 C-234.59 362.39, -252.81 371.52, -271.21 380.43 C-289.62 389.35, -307.78 397.46, -327.09 404.85 C-346.4 412.24, -366.96 419.12, -387.06 424.79 C-407.15 430.47, -425.06 434.87, -447.67 438.91 C-470.29 442.95, -499.83 447.16, -522.74 449.04 C-545.64 450.92, -563.41 450.79, -585.12 450.19 C-606.82 449.6, -630.84 448.34, -652.99 445.47 C-675.14 442.6, -694.91 438.91, -718.01 432.99 C-741.12 427.06, -768.02 419.71, -791.62 409.93 C-815.22 400.16, -842.46 384.4, -859.6 374.34 C-876.74 364.28, -884.07 357.91, -894.46 349.55 C-904.85 341.19, -912.6 333.62, -921.93 324.16 C-931.26 314.71, -942.61 302.71, -950.44 292.81 C-958.26 282.91, -963.32 274.57, -968.85 264.78 C-974.38 254.98, -981.17 239.15, -983.64 234.02" stroke="#E1E1E1" stroke-width="4" fill="none"></path></g></g><mask></mask><g stroke-linecap="round"><g transform="translate(197.17001855659896 677.7052477526158) rotate(316.86794743929653 471.14776003054965 -55.29826403961647)"><path d="M0 0 C2.6 3.55, 8.01 12.68, 15.62 21.29 C23.22 29.9, 34.08 41.39, 45.62 51.64 C57.17 61.89, 68.83 72.05, 84.91 82.77 C100.98 93.49, 123.9 106.63, 142.05 115.94 C160.21 125.26, 173.83 131.57, 193.81 138.67 C213.79 145.76, 237.24 153.33, 261.95 158.51 C286.66 163.7, 315.06 167.65, 342.07 169.78 C369.08 171.9, 394.81 172.94, 424 171.27 C453.2 169.59, 486.41 165.82, 517.24 159.71 C548.07 153.59, 583.11 143.06, 608.97 134.59 C634.84 126.13, 649.92 120.22, 672.44 108.92 C694.97 97.62, 722.63 81.1, 744.12 66.8 C765.61 52.5, 782.31 40.43, 801.38 23.13 C820.45 5.82, 841.89 -15.94, 858.56 -37.04 C875.22 -58.14, 890.08 -82.51, 901.37 -103.45 C912.66 -124.4, 919.77 -142.56, 926.28 -162.72 C932.78 -182.88, 937.73 -204.57, 940.4 -224.43 C943.07 -244.29, 941.98 -272.29, 942.3 -281.86 M0 0 C2.6 3.55, 8.01 12.68, 15.62 21.29 C23.22 29.9, 34.08 41.39, 45.62 51.64 C57.17 61.89, 68.83 72.05, 84.91 82.77 C100.98 93.49, 123.9 106.63, 142.05 115.94 C160.21 125.26, 173.83 131.57, 193.81 138.67 C213.79 145.76, 237.24 153.33, 261.95 158.51 C286.66 163.7, 315.06 167.65, 342.07 169.78 C369.08 171.9, 394.81 172.94, 424 171.27 C453.2 169.59, 486.41 165.82, 517.24 159.71 C548.07 153.59, 583.11 143.06, 608.97 134.59 C634.84 126.13, 649.92 120.22, 672.44 108.92 C694.97 97.62, 722.63 81.1, 744.12 66.8 C765.61 52.5, 782.31 40.43, 801.38 23.13 C820.45 5.82, 841.89 -15.94, 858.56 -37.04 C875.22 -58.14, 890.08 -82.51, 901.37 -103.45 C912.66 -124.4, 919.77 -142.56, 926.28 -162.72 C932.78 -182.88, 937.73 -204.57, 940.4 -224.43 C943.07 -244.29, 941.98 -272.29, 942.3 -281.86" stroke="#E1E1E1" stroke-width="4" fill="none"></path></g></g><mask></mask><g stroke-linecap="round"><g transform="translate(890.7694797693769 339.663509849722) rotate(316.86794743929653 -469.84946321029804 125.24584029741766)"><path d="M0 0 C-3.38 -4.2, -10.71 -15.26, -20.29 -25.21 C-29.87 -35.17, -43.94 -48.96, -57.5 -59.75 C-71.06 -70.54, -85.71 -80.35, -101.63 -89.96 C-117.56 -99.58, -133.54 -108.73, -153.06 -117.45 C-172.58 -126.17, -199.18 -136.03, -218.78 -142.31 C-238.37 -148.58, -248.38 -151.17, -270.63 -155.09 C-292.88 -159.01, -325.7 -163.98, -352.28 -165.82 C-378.86 -167.67, -408.23 -167.04, -430.1 -166.17 C-451.97 -165.3, -463.34 -163.9, -483.51 -160.6 C-503.68 -157.3, -530.81 -151.53, -551.12 -146.36 C-571.43 -141.19, -586.06 -136.61, -605.37 -129.59 C-624.68 -122.56, -643.42 -116.06, -666.98 -104.22 C-690.54 -92.38, -723.26 -74.44, -746.76 -58.55 C-770.25 -42.66, -790.41 -24.88, -807.94 -8.87 C-825.47 7.14, -837.68 19.56, -851.95 37.51 C-866.21 55.46, -882.66 80.05, -893.53 98.82 C-904.41 117.6, -910.48 131.74, -917.23 150.14 C-923.97 168.54, -930.28 187.08, -934.02 209.23 C-937.77 231.37, -940.31 261.27, -939.7 283 C-939.09 304.72, -933.03 324.53, -930.37 339.55 C-927.7 354.58, -927.25 360.29, -923.71 373.14 C-920.16 385.99, -911.52 409.41, -909.09 416.66 M0 0 C-3.38 -4.2, -10.71 -15.26, -20.29 -25.21 C-29.87 -35.17, -43.94 -48.96, -57.5 -59.75 C-71.06 -70.54, -85.71 -80.35, -101.63 -89.96 C-117.56 -99.58, -133.54 -108.73, -153.06 -117.45 C-172.58 -126.17, -199.18 -136.03, -218.78 -142.31 C-238.37 -148.58, -248.38 -151.17, -270.63 -155.09 C-292.88 -159.01, -325.7 -163.98, -352.28 -165.82 C-378.86 -167.67, -408.23 -167.04, -430.1 -166.17 C-451.97 -165.3, -463.34 -163.9, -483.51 -160.6 C-503.68 -157.3, -530.81 -151.53, -551.12 -146.36 C-571.43 -141.19, -586.06 -136.61, -605.37 -129.59 C-624.68 -122.56, -643.42 -116.06, -666.98 -104.22 C-690.54 -92.38, -723.26 -74.44, -746.76 -58.55 C-770.25 -42.66, -790.41 -24.88, -807.94 -8.87 C-825.47 7.14, -837.68 19.56, -851.95 37.51 C-866.21 55.46, -882.66 80.05, -893.53 98.82 C-904.41 117.6, -910.48 131.74, -917.23 150.14 C-923.97 168.54, -930.28 187.08, -934.02 209.23 C-937.77 231.37, -940.31 261.27, -939.7 283 C-939.09 304.72, -933.03 324.53, -930.37 339.55 C-927.7 354.58, -927.25 360.29, -923.71 373.14 C-920.16 385.99, -911.52 409.41, -909.09 416.66" stroke="#E1E1E1" stroke-width="4" fill="none"></path></g></g><mask></mask><g stroke-linecap="round"><g transform="translate(-70.39713370804097 664.3438184973061) rotate(316.86794743929653 465.6179543033959 -226.94306989861445)"><path d="M0 0 C0 -7.33, -2.24 -25.23, 0 -43.96 C2.24 -62.7, 6.36 -89.42, 13.42 -112.4 C20.47 -135.38, 30.27 -159.95, 42.35 -181.83 C54.42 -203.71, 70.72 -225.22, 85.86 -243.68 C101 -262.14, 115.29 -276.46, 133.19 -292.61 C151.09 -308.76, 172.29 -326.29, 193.28 -340.57 C214.27 -354.84, 236.24 -366.71, 259.14 -378.26 C282.03 -389.81, 307.55 -400.96, 330.65 -409.89 C353.75 -418.82, 371.88 -425.43, 397.72 -431.84 C423.56 -438.26, 454.83 -444.7, 485.7 -448.38 C516.56 -452.05, 551.46 -454.34, 582.89 -453.89 C614.32 -453.44, 647.69 -449.69, 674.28 -445.68 C700.87 -441.68, 721.5 -435.91, 742.41 -429.85 C763.32 -423.79, 782.93 -416.49, 799.74 -409.32 C816.55 -402.14, 829.03 -395.13, 843.27 -386.82 C857.51 -378.5, 870.53 -370.87, 885.19 -359.4 C899.85 -347.93, 923.56 -324.9, 931.24 -318 M0 0 C0 -7.33, -2.24 -25.23, 0 -43.96 C2.24 -62.7, 6.36 -89.42, 13.42 -112.4 C20.47 -135.38, 30.27 -159.95, 42.35 -181.83 C54.42 -203.71, 70.72 -225.22, 85.86 -243.68 C101 -262.14, 115.29 -276.46, 133.19 -292.61 C151.09 -308.76, 172.29 -326.29, 193.28 -340.57 C214.27 -354.84, 236.24 -366.71, 259.14 -378.26 C282.03 -389.81, 307.55 -400.96, 330.65 -409.89 C353.75 -418.82, 371.88 -425.43, 397.72 -431.84 C423.56 -438.26, 454.83 -444.7, 485.7 -448.38 C516.56 -452.05, 551.46 -454.34, 582.89 -453.89 C614.32 -453.44, 647.69 -449.69, 674.28 -445.68 C700.87 -441.68, 721.5 -435.91, 742.41 -429.85 C763.32 -423.79, 782.93 -416.49, 799.74 -409.32 C816.55 -402.14, 829.03 -395.13, 843.27 -386.82 C857.51 -378.5, 870.53 -370.87, 885.19 -359.4 C899.85 -347.93, 923.56 -324.9, 931.24 -318" stroke="#E1E1E1" stroke-width="4" fill="none"></path></g></g><mask></mask></svg>