<svg version="1.1" xmlns="http://www.w3.org/2000/svg" viewBox="0 0 1036.5185516476163 1037.2443120281628" width="1036.5185516476163" height="1037.2443120281628" class="excalidraw-svg"><!-- svg-source:excalidraw --><metadata></metadata><defs><style class="style-fonts">
      </style></defs><rect x="0" y="0" width="1036.5185516476163" height="1037.2443120281628" fill="#000000"></rect><g stroke-linecap="round" transform="translate(9.999999999999886 10.725760380546262) rotate(316.86794743929653 508.2592758238082 508.25927582380825)"><path d="M1016.52 508.26 C1016.52 515.65, 1016.36 523.05, 1016.03 530.43 C1015.71 537.81, 1015.23 545.2, 1014.58 552.56 C1013.94 559.92, 1013.13 567.27, 1012.17 574.6 C1011.21 581.93, 1010.08 589.24, 1008.8 596.52 C1007.51 603.8, 1006.07 611.05, 1004.47 618.27 C1002.87 625.48, 1001.11 632.67, 999.2 639.81 C997.29 646.94, 995.22 654.05, 992.99 661.1 C990.77 668.14, 988.39 675.15, 985.87 682.09 C983.34 689.04, 980.66 695.93, 977.83 702.76 C975 709.59, 972.02 716.36, 968.9 723.06 C965.78 729.76, 962.5 736.39, 959.09 742.95 C955.68 749.5, 952.12 755.99, 948.42 762.39 C944.73 768.79, 940.89 775.11, 936.92 781.35 C932.95 787.58, 928.84 793.73, 924.6 799.78 C920.36 805.84, 915.99 811.81, 911.49 817.67 C906.99 823.53, 902.36 829.3, 897.61 834.96 C892.86 840.62, 887.98 846.19, 882.99 851.63 C877.99 857.08, 872.88 862.43, 867.65 867.65 C862.43 872.88, 857.08 877.99, 851.63 882.99 C846.19 887.98, 840.62 892.86, 834.96 897.61 C829.3 902.36, 823.53 906.99, 817.67 911.49 C811.81 915.99, 805.84 920.36, 799.78 924.6 C793.73 928.84, 787.58 932.95, 781.35 936.92 C775.11 940.89, 768.79 944.73, 762.39 948.42 C755.99 952.12, 749.5 955.68, 742.95 959.09 C736.39 962.5, 729.76 965.78, 723.06 968.9 C716.36 972.02, 709.59 975, 702.76 977.83 C695.93 980.66, 689.04 983.34, 682.09 985.87 C675.15 988.39, 668.14 990.77, 661.1 992.99 C654.05 995.22, 646.94 997.29, 639.81 999.2 C632.67 1001.11, 625.48 1002.87, 618.27 1004.47 C611.05 1006.07, 603.8 1007.51, 596.52 1008.8 C589.24 1010.08, 581.93 1011.21, 574.6 1012.17 C567.27 1013.13, 559.92 1013.94, 552.56 1014.58 C545.2 1015.23, 537.81 1015.71, 530.43 1016.03 C523.05 1016.36, 515.65 1016.52, 508.26 1016.52 C500.87 1016.52, 493.47 1016.36, 486.09 1016.03 C478.71 1015.71, 471.32 1015.23, 463.96 1014.58 C456.6 1013.94, 449.24 1013.13, 441.92 1012.17 C434.59 1011.21, 427.28 1010.08, 420 1008.8 C412.72 1007.51, 405.47 1006.07, 398.25 1004.47 C391.04 1002.87, 383.85 1001.11, 376.71 999.2 C369.57 997.29, 362.47 995.22, 355.42 992.99 C348.37 990.77, 341.37 988.39, 334.42 985.87 C327.48 983.34, 320.58 980.66, 313.76 977.83 C306.93 975, 300.16 972.02, 293.46 968.9 C286.76 965.78, 280.13 962.5, 273.57 959.09 C267.02 955.68, 260.53 952.12, 254.13 948.42 C247.73 944.73, 241.4 940.89, 235.17 936.92 C228.94 932.95, 222.79 928.84, 216.73 924.6 C210.68 920.36, 204.71 915.99, 198.85 911.49 C192.99 906.99, 187.22 902.36, 181.56 897.61 C175.9 892.86, 170.33 887.98, 164.88 882.99 C159.44 877.99, 154.09 872.88, 148.87 867.65 C143.64 862.43, 138.52 857.08, 133.53 851.63 C128.54 846.19, 123.66 840.62, 118.91 834.96 C114.16 829.3, 109.53 823.53, 105.03 817.67 C100.53 811.81, 96.16 805.84, 91.92 799.78 C87.68 793.73, 83.57 787.58, 79.6 781.35 C75.63 775.11, 71.79 768.79, 68.09 762.39 C64.4 755.99, 60.84 749.5, 57.43 742.95 C54.02 736.39, 50.74 729.76, 47.62 723.06 C44.5 716.36, 41.52 709.59, 38.69 702.76 C35.86 695.93, 33.18 689.04, 30.65 682.09 C28.12 675.15, 25.75 668.14, 23.52 661.1 C21.3 654.05, 19.23 646.94, 17.32 639.81 C15.41 632.67, 13.65 625.48, 12.05 618.27 C10.45 611.05, 9 603.8, 7.72 596.52 C6.44 589.24, 5.31 581.93, 4.35 574.6 C3.38 567.27, 2.58 559.92, 1.93 552.56 C1.29 545.2, 0.81 537.81, 0.48 530.43 C0.16 523.05, 0 515.65, 0 508.26 C0 500.87, 0.16 493.47, 0.48 486.09 C0.81 478.71, 1.29 471.32, 1.93 463.96 C2.58 456.6, 3.38 449.24, 4.35 441.92 C5.31 434.59, 6.44 427.28, 7.72 420 C9 412.72, 10.45 405.47, 12.05 398.25 C13.65 391.04, 15.41 383.85, 17.32 376.71 C19.23 369.57, 21.3 362.47, 23.52 355.42 C25.75 348.37, 28.12 341.37, 30.65 334.42 C33.18 327.48, 35.86 320.58, 38.69 313.76 C41.52 306.93, 44.5 300.16, 47.62 293.46 C50.74 286.76, 54.02 280.13, 57.43 273.57 C60.84 267.02, 64.4 260.53, 68.09 254.13 C71.79 247.73, 75.63 241.4, 79.6 235.17 C83.57 228.94, 87.68 222.79, 91.92 216.73 C96.16 210.68, 100.53 204.71, 105.03 198.85 C109.53 192.99, 114.16 187.22, 118.91 181.56 C123.66 175.9, 128.54 170.33, 133.53 164.88 C138.52 159.44, 143.64 154.09, 148.87 148.87 C154.09 143.64, 159.44 138.52, 164.88 133.53 C170.33 128.54, 175.9 123.66, 181.56 118.91 C187.22 114.16, 192.99 109.53, 198.85 105.03 C204.71 100.53, 210.68 96.16, 216.73 91.92 C222.79 87.68, 228.94 83.57, 235.17 79.6 C241.4 75.63, 247.73 71.79, 254.13 68.09 C260.53 64.4, 267.02 60.84, 273.57 57.43 C280.13 54.02, 286.76 50.74, 293.46 47.62 C300.16 44.5, 306.93 41.52, 313.76 38.69 C320.58 35.86, 327.48 33.18, 334.42 30.65 C341.37 28.12, 348.37 25.75, 355.42 23.52 C362.47 21.3, 369.57 19.23, 376.71 17.32 C383.85 15.41, 391.04 13.65, 398.25 12.05 C405.47 10.45, 412.72 9, 420 7.72 C427.28 6.44, 434.59 5.31, 441.92 4.35 C449.24 3.38, 456.6 2.58, 463.96 1.93 C471.32 1.29, 478.71 0.81, 486.09 0.48 C493.47 0.16, 500.87 0, 508.26 0 C515.65 0, 523.05 0.16, 530.43 0.48 C537.81 0.81, 545.2 1.29, 552.56 1.93 C559.92 2.58, 567.27 3.38, 574.6 4.35 C581.93 5.31, 589.24 6.44, 596.52 7.72 C603.8 9, 611.05 10.45, 618.27 12.05 C625.48 13.65, 632.67 15.41, 639.81 17.32 C646.94 19.23, 654.05 21.3, 661.1 23.52 C668.14 25.75, 675.15 28.12, 682.09 30.65 C689.04 33.18, 695.93 35.86, 702.76 38.69 C709.59 41.52, 716.36 44.5, 723.06 47.62 C729.76 50.74, 736.39 54.02, 742.95 57.43 C749.5 60.84, 755.99 64.4, 762.39 68.09 C768.79 71.79, 775.11 75.63, 781.35 79.6 C787.58 83.57, 793.73 87.68, 799.78 91.92 C805.84 96.16, 811.81 100.53, 817.67 105.03 C823.53 109.53, 829.3 114.16, 834.96 118.91 C840.62 123.66, 846.19 128.54, 851.63 133.53 C857.08 138.52, 862.43 143.64, 867.65 148.87 C872.88 154.09, 877.99 159.44, 882.99 164.88 C887.98 170.33, 892.86 175.9, 897.61 181.56 C902.36 187.22, 906.99 192.99, 911.49 198.85 C915.99 204.71, 920.36 210.68, 924.6 216.73 C928.84 222.79, 932.95 228.94, 936.92 235.17 C940.89 241.4, 944.73 247.73, 948.42 254.13 C952.12 260.53, 955.68 267.02, 959.09 273.57 C962.5 280.13, 965.78 286.76, 968.9 293.46 C972.02 300.16, 975 306.93, 977.83 313.76 C980.66 320.58, 983.34 327.48, 985.87 334.42 C988.39 341.37, 990.77 348.37, 992.99 355.42 C995.22 362.47, 997.29 369.57, 999.2 376.71 C1001.11 383.85, 1002.87 391.04, 1004.47 398.25 C1006.07 405.47, 1007.51 412.72, 1008.8 420 C1010.08 427.28, 1011.21 434.59, 1012.17 441.92 C1013.13 449.24, 1013.94 456.6, 1014.58 463.96 C1015.23 471.32, 1015.71 478.71, 1016.03 486.09 C1016.36 493.47, 1016.44 504.56, 1016.52 508.26 C1016.6 511.95, 1016.6 504.56, 1016.52 508.26" stroke="#E1E1E1" stroke-width="4" fill="none"></path></g><g stroke-linecap="round"><g transform="translate(731.769923186863 231.8166678519117) rotate(316.86794743929653 -211.64365164464544 284.2092541204005)"><path d="M0 0 C3.03 0.47, 13.27 1.73, 18.19 2.81 C23.1 3.9, 25.14 4.22, 29.47 6.52 C33.8 8.82, 39.79 11.64, 44.16 16.63 C48.54 21.63, 53.06 29.18, 55.71 36.49 C58.37 43.79, 59.63 52.43, 60.1 60.47 C60.57 68.51, 60.3 74.51, 58.54 84.72 C56.79 94.92, 53.76 108.71, 49.56 121.71 C45.37 134.71, 39.83 148.59, 33.37 162.73 C26.91 176.86, 20.05 190.56, 10.82 206.53 C1.59 222.51, -10.89 242.17, -22.02 258.56 C-33.15 274.94, -44.37 290.09, -55.95 304.86 C-67.54 319.63, -79.16 333.13, -91.54 347.16 C-103.91 361.19, -115.39 374.15, -130.21 389.03 C-145.04 403.9, -161.59 419.93, -180.48 436.4 C-199.37 452.88, -222.89 472.66, -243.55 487.89 C-264.2 503.13, -287.25 517.6, -304.4 527.82 C-321.55 538.04, -331.66 543.09, -346.46 549.23 C-361.27 555.37, -380.32 561.47, -393.24 564.67 C-406.16 567.87, -415.09 568.35, -423.97 568.42 C-432.86 568.48, -439.69 567.23, -446.55 565.06 C-453.41 562.89, -460.13 559.43, -465.13 555.38 C-470.12 551.34, -473.61 546.35, -476.52 540.81 C-479.42 535.26, -481.41 529.44, -482.55 522.12 C-483.7 514.8, -484.04 506.34, -483.39 496.9 C-482.73 487.47, -481.4 476.98, -478.62 465.51 C-475.83 454.05, -473.43 444.15, -466.69 428.13 C-459.95 412.1, -447.47 386.7, -438.17 369.36 C-428.88 352.02, -421.38 339.82, -410.93 324.08 C-400.48 308.33, -389.46 292.81, -375.47 274.88 C-361.48 256.96, -344.15 235.69, -326.98 216.53 C-309.82 197.36, -291.55 178.21, -272.49 159.88 C-253.43 141.55, -235.2 124.55, -212.64 106.54 C-190.08 88.52, -159.39 66.07, -137.15 51.79 C-114.9 37.51, -97.92 28.95, -79.16 20.83 C-60.4 12.7, -37.78 6.5, -24.59 3.03 C-11.39 -0.44, -4.1 0.51, 0 0 M0 0 C3.03 0.47, 13.27 1.73, 18.19 2.81 C23.1 3.9, 25.14 4.22, 29.47 6.52 C33.8 8.82, 39.79 11.64, 44.16 16.63 C48.54 21.63, 53.06 29.18, 55.71 36.49 C58.37 43.79, 59.63 52.43, 60.1 60.47 C60.57 68.51, 60.3 74.51, 58.54 84.72 C56.79 94.92, 53.76 108.71, 49.56 121.71 C45.37 134.71, 39.83 148.59, 33.37 162.73 C26.91 176.86, 20.05 190.56, 10.82 206.53 C1.59 222.51, -10.89 242.17, -22.02 258.56 C-33.15 274.94, -44.37 290.09, -55.95 304.86 C-67.54 319.63, -79.16 333.13, -91.54 347.16 C-103.91 361.19, -115.39 374.15, -130.21 389.03 C-145.04 403.9, -161.59 419.93, -180.48 436.4 C-199.37 452.88, -222.89 472.66, -243.55 487.89 C-264.2 503.13, -287.25 517.6, -304.4 527.82 C-321.55 538.04, -331.66 543.09, -346.46 549.23 C-361.27 555.37, -380.32 561.47, -393.24 564.67 C-406.16 567.87, -415.09 568.35, -423.97 568.42 C-432.86 568.48, -439.69 567.23, -446.55 565.06 C-453.41 562.89, -460.13 559.43, -465.13 555.38 C-470.12 551.34, -473.61 546.35, -476.52 540.81 C-479.42 535.26, -481.41 529.44, -482.55 522.12 C-483.7 514.8, -484.04 506.34, -483.39 496.9 C-482.73 487.47, -481.4 476.98, -478.62 465.51 C-475.83 454.05, -473.43 444.15, -466.69 428.13 C-459.95 412.1, -447.47 386.7, -438.17 369.36 C-428.88 352.02, -421.38 339.82, -410.93 324.08 C-400.48 308.33, -389.46 292.81, -375.47 274.88 C-361.48 256.96, -344.15 235.69, -326.98 216.53 C-309.82 197.36, -291.55 178.21, -272.49 159.88 C-253.43 141.55, -235.2 124.55, -212.64 106.54 C-190.08 88.52, -159.39 66.07, -137.15 51.79 C-114.9 37.51, -97.92 28.95, -79.16 20.83 C-60.4 12.7, -37.78 6.5, -24.59 3.03 C-11.39 -0.44, -4.1 0.51, 0 0" stroke="#E1E1E1" stroke-width="4" fill="none"></path></g></g><mask></mask><g stroke-linecap="round"><g transform="translate(752.2053365006436 228.22146530736154) rotate(316.86794743929653 -231.8618628323478 288.39654226812695)"><path d="M0 0 C3.3 0.74, 13.12 1.99, 19.78 4.44 C26.45 6.88, 34.16 9.26, 39.98 14.66 C45.8 20.06, 51.56 28.29, 54.7 36.84 C57.83 45.39, 59.08 54.32, 58.79 65.98 C58.49 77.64, 57.02 91.54, 52.93 106.8 C48.83 122.06, 41.73 140.84, 34.19 157.53 C26.65 174.22, 19.21 188.12, 7.69 206.93 C-3.83 225.74, -20.58 250.78, -34.93 270.39 C-49.28 290.01, -60.56 304.38, -78.41 324.6 C-96.27 344.82, -122.99 372.79, -142.08 391.72 C-161.17 410.65, -173.47 421.78, -192.96 438.19 C-212.45 454.61, -238.53 475.24, -259.01 490.19 C-279.48 505.14, -299.87 518.11, -315.81 527.89 C-331.75 537.67, -342.52 543.09, -354.64 548.85 C-366.76 554.6, -376.02 558.41, -388.54 562.42 C-401.07 566.44, -418.03 570.55, -429.79 572.94 C-441.56 575.34, -449.37 577.2, -459.12 576.79 C-468.87 576.38, -480.03 573.89, -488.31 570.49 C-496.59 567.09, -503.55 562.55, -508.8 556.4 C-514.04 550.25, -517.49 541.76, -519.78 533.58 C-522.07 525.4, -523.1 518.24, -522.51 507.32 C-521.92 496.4, -519.92 481.64, -516.26 468.07 C-512.6 454.51, -506.82 440.21, -500.55 425.95 C-494.29 411.7, -488.23 399.2, -478.7 382.55 C-469.17 365.9, -455.33 343.52, -443.37 326.03 C-431.41 308.55, -422.86 296.88, -406.93 277.65 C-391 258.41, -365.47 229.49, -347.8 210.62 C-330.13 191.75, -317.75 179.73, -300.91 164.42 C-284.07 149.12, -264.14 132.73, -246.75 118.79 C-229.35 104.85, -214.28 93.35, -196.53 80.77 C-178.78 68.18, -157.34 53.24, -140.25 43.29 C-123.17 33.34, -109.45 27.3, -94.02 21.06 C-78.6 14.82, -61.48 9.28, -47.7 5.82 C-33.92 2.36, -19.29 1.25, -11.34 0.28 C-3.39 -0.69, -1.89 0.05, 0 0 M0 0 C3.3 0.74, 13.12 1.99, 19.78 4.44 C26.45 6.88, 34.16 9.26, 39.98 14.66 C45.8 20.06, 51.56 28.29, 54.7 36.84 C57.83 45.39, 59.08 54.32, 58.79 65.98 C58.49 77.64, 57.02 91.54, 52.93 106.8 C48.83 122.06, 41.73 140.84, 34.19 157.53 C26.65 174.22, 19.21 188.12, 7.69 206.93 C-3.83 225.74, -20.58 250.78, -34.93 270.39 C-49.28 290.01, -60.56 304.38, -78.41 324.6 C-96.27 344.82, -122.99 372.79, -142.08 391.72 C-161.17 410.65, -173.47 421.78, -192.96 438.19 C-212.45 454.61, -238.53 475.24, -259.01 490.19 C-279.48 505.14, -299.87 518.11, -315.81 527.89 C-331.75 537.67, -342.52 543.09, -354.64 548.85 C-366.76 554.6, -376.02 558.41, -388.54 562.42 C-401.07 566.44, -418.03 570.55, -429.79 572.94 C-441.56 575.34, -449.37 577.2, -459.12 576.79 C-468.87 576.38, -480.03 573.89, -488.31 570.49 C-496.59 567.09, -503.55 562.55, -508.8 556.4 C-514.04 550.25, -517.49 541.76, -519.78 533.58 C-522.07 525.4, -523.1 518.24, -522.51 507.32 C-521.92 496.4, -519.92 481.64, -516.26 468.07 C-512.6 454.51, -506.82 440.21, -500.55 425.95 C-494.29 411.7, -488.23 399.2, -478.7 382.55 C-469.17 365.9, -455.33 343.52, -443.37 326.03 C-431.41 308.55, -422.86 296.88, -406.93 277.65 C-391 258.41, -365.47 229.49, -347.8 210.62 C-330.13 191.75, -317.75 179.73, -300.91 164.42 C-284.07 149.12, -264.14 132.73, -246.75 118.79 C-229.35 104.85, -214.28 93.35, -196.53 80.77 C-178.78 68.18, -157.34 53.24, -140.25 43.29 C-123.17 33.34, -109.45 27.3, -94.02 21.06 C-78.6 14.82, -61.48 9.28, -47.7 5.82 C-33.92 2.36, -19.29 1.25, -11.34 0.28 C-3.39 -0.69, -1.89 0.05, 0 0" stroke="#E1E1E1" stroke-width="4" fill="none"></path></g></g><mask></mask><g stroke-linecap="round"><g transform="translate(743.4839125643839 225.95050728781325) rotate(316.86794743929653 -222.993750365391 290.2860878003024)"><path d="M0 0 C3.42 -0.05, 13.37 -0.87, 20.51 -0.31 C27.66 0.25, 35.86 1.11, 42.88 3.36 C49.9 5.6, 56.85 8.76, 62.62 13.15 C68.39 17.55, 73.66 22.77, 77.48 29.74 C81.31 36.72, 84.61 44.28, 85.57 55 C86.54 65.72, 85.76 80.53, 83.26 94.07 C80.77 107.61, 76.01 122.3, 70.6 136.25 C65.19 150.19, 58.89 162.85, 50.78 177.75 C42.67 192.66, 32.47 209.67, 21.93 225.66 C11.38 241.65, 1.33 256.14, -12.5 273.69 C-26.32 291.24, -41.46 309.93, -61.01 330.95 C-80.56 351.96, -109.92 381.16, -129.81 399.77 C-149.69 418.38, -161.14 427.46, -180.3 442.62 C-199.45 457.77, -221.8 474.74, -244.72 490.71 C-267.63 506.68, -297.18 526.51, -317.81 538.43 C-338.45 550.35, -351.08 555.77, -368.52 562.22 C-385.96 568.67, -405.73 574.03, -422.47 577.14 C-439.2 580.25, -456.25 581.3, -468.94 580.88 C-481.62 580.47, -490.18 578.23, -498.57 574.63 C-506.96 571.03, -513.94 565.75, -519.28 559.29 C-524.62 552.82, -528.57 546.12, -530.62 535.84 C-532.67 525.55, -533.55 512.21, -531.56 497.56 C-529.57 482.9, -526.26 466.97, -518.69 447.92 C-511.12 428.88, -498.36 404.21, -486.14 383.28 C-473.92 362.36, -459.3 341.49, -445.34 322.36 C-431.39 303.23, -419 287.44, -402.4 268.5 C-385.81 249.57, -362.81 225.67, -345.77 208.73 C-328.73 191.79, -316.35 180.98, -300.18 166.85 C-284.02 152.73, -267.98 138.73, -248.77 123.99 C-229.57 109.26, -205.08 92.12, -184.92 78.45 C-164.76 64.78, -145.51 51.83, -127.82 41.98 C-110.13 32.13, -95.46 25.67, -78.8 19.34 C-62.14 13.02, -41.01 7.25, -27.87 4.03 C-14.74 0.81, -4.65 0.67, 0 0 M0 0 C3.42 -0.05, 13.37 -0.87, 20.51 -0.31 C27.66 0.25, 35.86 1.11, 42.88 3.36 C49.9 5.6, 56.85 8.76, 62.62 13.15 C68.39 17.55, 73.66 22.77, 77.48 29.74 C81.31 36.72, 84.61 44.28, 85.57 55 C86.54 65.72, 85.76 80.53, 83.26 94.07 C80.77 107.61, 76.01 122.3, 70.6 136.25 C65.19 150.19, 58.89 162.85, 50.78 177.75 C42.67 192.66, 32.47 209.67, 21.93 225.66 C11.38 241.65, 1.33 256.14, -12.5 273.69 C-26.32 291.24, -41.46 309.93, -61.01 330.95 C-80.56 351.96, -109.92 381.16, -129.81 399.77 C-149.69 418.38, -161.14 427.46, -180.3 442.62 C-199.45 457.77, -221.8 474.74, -244.72 490.71 C-267.63 506.68, -297.18 526.51, -317.81 538.43 C-338.45 550.35, -351.08 555.77, -368.52 562.22 C-385.96 568.67, -405.73 574.03, -422.47 577.14 C-439.2 580.25, -456.25 581.3, -468.94 580.88 C-481.62 580.47, -490.18 578.23, -498.57 574.63 C-506.96 571.03, -513.94 565.75, -519.28 559.29 C-524.62 552.82, -528.57 546.12, -530.62 535.84 C-532.67 525.55, -533.55 512.21, -531.56 497.56 C-529.57 482.9, -526.26 466.97, -518.69 447.92 C-511.12 428.88, -498.36 404.21, -486.14 383.28 C-473.92 362.36, -459.3 341.49, -445.34 322.36 C-431.39 303.23, -419 287.44, -402.4 268.5 C-385.81 249.57, -362.81 225.67, -345.77 208.73 C-328.73 191.79, -316.35 180.98, -300.18 166.85 C-284.02 152.73, -267.98 138.73, -248.77 123.99 C-229.57 109.26, -205.08 92.12, -184.92 78.45 C-164.76 64.78, -145.51 51.83, -127.82 41.98 C-110.13 32.13, -95.46 25.67, -78.8 19.34 C-62.14 13.02, -41.01 7.25, -27.87 4.03 C-14.74 0.81, -4.65 0.67, 0 0" stroke="#E1E1E1" stroke-width="4" fill="none"></path></g></g><mask></mask><g stroke-linecap="round"><g transform="translate(760.6314021571807 223.33407305702644) rotate(316.86794743929653 -241.81718541623792 292.4725936275744)"><path d="M0 0 C4.42 0.23, 17.7 -0.12, 26.52 1.38 C35.33 2.88, 45.14 5.12, 52.88 8.99 C60.63 12.86, 67.55 17.22, 72.98 24.58 C78.4 31.94, 83.4 41.77, 85.44 53.13 C87.47 64.49, 87.43 78.4, 85.18 92.72 C82.94 107.04, 79.12 121.54, 71.98 139.07 C64.85 156.6, 53.64 178.88, 42.37 197.91 C31.1 216.94, 18.25 234.88, 4.38 253.27 C-9.5 271.66, -25.03 290.31, -40.86 308.27 C-56.69 326.22, -72.36 343.26, -90.62 360.98 C-108.88 378.69, -129.55 397.02, -150.42 414.55 C-171.28 432.08, -192.54 449.37, -215.81 466.16 C-239.07 482.94, -266.14 500.33, -289.99 515.23 C-313.85 530.14, -338.69 545.69, -358.93 555.59 C-379.16 565.49, -394.22 569.74, -411.41 574.64 C-428.61 579.53, -445.24 583.35, -462.1 584.95 C-478.95 586.54, -499.13 586.28, -512.54 584.24 C-525.95 582.19, -534.19 578.75, -542.56 572.66 C-550.94 566.57, -558.37 557.56, -562.78 547.71 C-567.2 537.87, -569.26 526.53, -569.07 513.58 C-568.88 500.64, -567.54 487.72, -561.64 470.03 C-555.74 452.33, -543.97 427.01, -533.67 407.4 C-523.38 387.8, -510.85 368.57, -499.88 352.39 C-488.92 336.2, -480.38 325.44, -467.88 310.31 C-455.38 295.18, -440.04 277.82, -424.89 261.62 C-409.75 245.42, -392.89 228.12, -377.02 213.1 C-361.15 198.08, -349.41 187.66, -329.67 171.49 C-309.94 155.33, -281 132.23, -258.62 116.13 C-236.23 100.03, -216.2 88.06, -195.35 74.89 C-174.5 61.73, -155.99 48.01, -133.53 37.14 C-111.06 26.27, -79.26 15.55, -60.54 9.68 C-41.83 3.81, -31.35 3.53, -21.26 1.92 C-11.17 0.31, -3.54 0.32, 0 0 M0 0 C4.42 0.23, 17.7 -0.12, 26.52 1.38 C35.33 2.88, 45.14 5.12, 52.88 8.99 C60.63 12.86, 67.55 17.22, 72.98 24.58 C78.4 31.94, 83.4 41.77, 85.44 53.13 C87.47 64.49, 87.43 78.4, 85.18 92.72 C82.94 107.04, 79.12 121.54, 71.98 139.07 C64.85 156.6, 53.64 178.88, 42.37 197.91 C31.1 216.94, 18.25 234.88, 4.38 253.27 C-9.5 271.66, -25.03 290.31, -40.86 308.27 C-56.69 326.22, -72.36 343.26, -90.62 360.98 C-108.88 378.69, -129.55 397.02, -150.42 414.55 C-171.28 432.08, -192.54 449.37, -215.81 466.16 C-239.07 482.94, -266.14 500.33, -289.99 515.23 C-313.85 530.14, -338.69 545.69, -358.93 555.59 C-379.16 565.49, -394.22 569.74, -411.41 574.64 C-428.61 579.53, -445.24 583.35, -462.1 584.95 C-478.95 586.54, -499.13 586.28, -512.54 584.24 C-525.95 582.19, -534.19 578.75, -542.56 572.66 C-550.94 566.57, -558.37 557.56, -562.78 547.71 C-567.2 537.87, -569.26 526.53, -569.07 513.58 C-568.88 500.64, -567.54 487.72, -561.64 470.03 C-555.74 452.33, -543.97 427.01, -533.67 407.4 C-523.38 387.8, -510.85 368.57, -499.88 352.39 C-488.92 336.2, -480.38 325.44, -467.88 310.31 C-455.38 295.18, -440.04 277.82, -424.89 261.62 C-409.75 245.42, -392.89 228.12, -377.02 213.1 C-361.15 198.08, -349.41 187.66, -329.67 171.49 C-309.94 155.33, -281 132.23, -258.62 116.13 C-236.23 100.03, -216.2 88.06, -195.35 74.89 C-174.5 61.73, -155.99 48.01, -133.53 37.14 C-111.06 26.27, -79.26 15.55, -60.54 9.68 C-41.83 3.81, -31.35 3.53, -21.26 1.92 C-11.17 0.31, -3.54 0.32, 0 0" stroke="#E1E1E1" stroke-width="4" fill="none"></path></g></g><mask></mask><g stroke-linecap="round"><g transform="translate(770.6475411538036 221.84449039277752) rotate(316.86794743929653 -251.08584897890677 294.1986136816356)"><path d="M0 0 C4.42 0.23, 17.78 0.1, 26.52 1.38 C35.26 2.66, 44.16 4.32, 52.43 7.67 C60.71 11.02, 69.8 15.54, 76.15 21.5 C82.51 27.47, 87.31 36, 90.55 43.47 C93.78 50.95, 94.95 57.51, 95.56 66.36 C96.17 75.22, 95.85 85.86, 94.19 96.59 C92.54 107.31, 90.63 117.19, 85.62 130.72 C80.61 144.24, 73.18 161.18, 64.14 177.76 C55.09 194.33, 43.24 213.22, 31.36 230.16 C19.48 247.1, 6.03 263.65, -7.15 279.39 C-20.33 295.13, -32.64 308.85, -47.71 324.61 C-62.77 340.37, -77.94 356.38, -97.55 373.96 C-117.16 391.54, -144.6 413.84, -165.34 430.1 C-186.09 446.35, -201.43 457.54, -222.03 471.5 C-242.64 485.46, -267.01 500.6, -288.97 513.86 C-310.93 527.13, -333.72 541.06, -353.8 551.08 C-373.88 561.1, -389.9 567.85, -409.44 573.98 C-428.98 580.1, -452.08 585.42, -471.05 587.82 C-490.02 590.23, -509.68 589.22, -523.26 588.4 C-536.85 587.58, -543.6 586.31, -552.55 582.9 C-561.51 579.49, -570.35 574.15, -576.99 567.95 C-583.63 561.75, -588.92 554.61, -592.38 545.7 C-595.84 536.8, -598.06 526.92, -597.73 514.52 C-597.4 502.12, -594.42 485.6, -590.38 471.3 C-586.34 457, -581.89 445.4, -573.49 428.7 C-565.1 412, -553.78 391.53, -540.02 371.08 C-526.26 350.63, -507.23 325.54, -490.94 306.01 C-474.66 286.48, -464.49 275.31, -442.32 253.91 C-420.16 232.51, -387.86 201.98, -357.93 177.63 C-327.99 153.29, -290.28 126.51, -262.71 107.85 C-235.14 89.18, -214.05 78.1, -192.5 65.63 C-170.96 53.15, -154.44 42.55, -133.45 32.98 C-112.46 23.42, -84.58 13.56, -66.57 8.25 C-48.56 2.95, -36.48 2.52, -25.39 1.15 C-14.29 -0.23, -4.23 0.19, 0 0 M0 0 C4.42 0.23, 17.78 0.1, 26.52 1.38 C35.26 2.66, 44.16 4.32, 52.43 7.67 C60.71 11.02, 69.8 15.54, 76.15 21.5 C82.51 27.47, 87.31 36, 90.55 43.47 C93.78 50.95, 94.95 57.51, 95.56 66.36 C96.17 75.22, 95.85 85.86, 94.19 96.59 C92.54 107.31, 90.63 117.19, 85.62 130.72 C80.61 144.24, 73.18 161.18, 64.14 177.76 C55.09 194.33, 43.24 213.22, 31.36 230.16 C19.48 247.1, 6.03 263.65, -7.15 279.39 C-20.33 295.13, -32.64 308.85, -47.71 324.61 C-62.77 340.37, -77.94 356.38, -97.55 373.96 C-117.16 391.54, -144.6 413.84, -165.34 430.1 C-186.09 446.35, -201.43 457.54, -222.03 471.5 C-242.64 485.46, -267.01 500.6, -288.97 513.86 C-310.93 527.13, -333.72 541.06, -353.8 551.08 C-373.88 561.1, -389.9 567.85, -409.44 573.98 C-428.98 580.1, -452.08 585.42, -471.05 587.82 C-490.02 590.23, -509.68 589.22, -523.26 588.4 C-536.85 587.58, -543.6 586.31, -552.55 582.9 C-561.51 579.49, -570.35 574.15, -576.99 567.95 C-583.63 561.75, -588.92 554.61, -592.38 545.7 C-595.84 536.8, -598.06 526.92, -597.73 514.52 C-597.4 502.12, -594.42 485.6, -590.38 471.3 C-586.34 457, -581.89 445.4, -573.49 428.7 C-565.1 412, -553.78 391.53, -540.02 371.08 C-526.26 350.63, -507.23 325.54, -490.94 306.01 C-474.66 286.48, -464.49 275.31, -442.32 253.91 C-420.16 232.51, -387.86 201.98, -357.93 177.63 C-327.99 153.29, -290.28 126.51, -262.71 107.85 C-235.14 89.18, -214.05 78.1, -192.5 65.63 C-170.96 53.15, -154.44 42.55, -133.45 32.98 C-112.46 23.42, -84.58 13.56, -66.57 8.25 C-48.56 2.95, -36.48 2.52, -25.39 1.15 C-14.29 -0.23, -4.23 0.19, 0 0" stroke="#E1E1E1" stroke-width="4" fill="none"></path></g></g><mask></mask><g stroke-linecap="round"><g transform="translate(809.6181760436905 223.33930111328777) rotate(316.86794743929653 -289.685261156734 293.1336015934055)"><path d="M0 0 C2.53 0.5, 8.59 0.92, 15.15 2.98 C21.71 5.04, 31.88 7.95, 39.34 12.37 C46.8 16.78, 54.69 23.3, 59.93 29.45 C65.17 35.6, 68.27 40.98, 70.78 49.29 C73.29 57.59, 75.24 67.42, 74.97 79.28 C74.71 91.14, 73.02 106.27, 69.19 120.44 C65.35 134.61, 59.45 149.09, 51.97 164.29 C44.49 179.5, 35.26 195.2, 24.29 211.67 C13.32 228.14, 0.68 245.43, -13.85 263.11 C-28.38 280.8, -46.59 300.8, -62.88 317.77 C-79.18 334.74, -95.24 350.07, -111.63 364.93 C-128.01 379.79, -142.21 392.01, -161.19 406.92 C-180.17 421.83, -205.99 440.82, -225.52 454.39 C-245.05 467.96, -259.95 477.11, -278.37 488.35 C-296.79 499.59, -313.33 509.86, -336.03 521.81 C-358.73 533.76, -390.89 550.11, -414.57 560.03 C-438.25 569.94, -456.08 576.5, -478.12 581.31 C-500.16 586.11, -529.35 588, -546.8 588.87 C-564.25 589.73, -571.4 588.48, -582.82 586.49 C-594.24 584.51, -605.75 582.07, -615.32 576.98 C-624.89 571.89, -634.12 563.6, -640.22 555.96 C-646.32 548.33, -649.54 539.97, -651.89 531.15 C-654.25 522.34, -655.2 514.37, -654.35 503.05 C-653.49 491.73, -651.39 478.01, -646.77 463.25 C-642.16 448.48, -636.73 433.14, -626.66 414.44 C-616.6 395.73, -602.46 372.87, -586.39 351.01 C-570.31 329.15, -550.09 304.78, -530.22 283.27 C-510.35 261.75, -488.74 241.36, -467.14 221.9 C-445.55 202.44, -423.23 183.91, -400.66 166.52 C-378.09 149.12, -354.96 132.77, -331.72 117.54 C-308.49 102.32, -286.57 89.14, -261.25 75.18 C-235.94 61.22, -204.39 44.96, -179.82 33.78 C-155.24 22.61, -135.22 14.19, -113.81 8.13 C-92.39 2.07, -70.31 -1.25, -51.34 -2.6 C-32.37 -3.96, -8.56 -0.43, 0 0 M0 0 C2.53 0.5, 8.59 0.92, 15.15 2.98 C21.71 5.04, 31.88 7.95, 39.34 12.37 C46.8 16.78, 54.69 23.3, 59.93 29.45 C65.17 35.6, 68.27 40.98, 70.78 49.29 C73.29 57.59, 75.24 67.42, 74.97 79.28 C74.71 91.14, 73.02 106.27, 69.19 120.44 C65.35 134.61, 59.45 149.09, 51.97 164.29 C44.49 179.5, 35.26 195.2, 24.29 211.67 C13.32 228.14, 0.68 245.43, -13.85 263.11 C-28.38 280.8, -46.59 300.8, -62.88 317.77 C-79.18 334.74, -95.24 350.07, -111.63 364.93 C-128.01 379.79, -142.21 392.01, -161.19 406.92 C-180.17 421.83, -205.99 440.82, -225.52 454.39 C-245.05 467.96, -259.95 477.11, -278.37 488.35 C-296.79 499.59, -313.33 509.86, -336.03 521.81 C-358.73 533.76, -390.89 550.11, -414.57 560.03 C-438.25 569.94, -456.08 576.5, -478.12 581.31 C-500.16 586.11, -529.35 588, -546.8 588.87 C-564.25 589.73, -571.4 588.48, -582.82 586.49 C-594.24 584.51, -605.75 582.07, -615.32 576.98 C-624.89 571.89, -634.12 563.6, -640.22 555.96 C-646.32 548.33, -649.54 539.97, -651.89 531.15 C-654.25 522.34, -655.2 514.37, -654.35 503.05 C-653.49 491.73, -651.39 478.01, -646.77 463.25 C-642.16 448.48, -636.73 433.14, -626.66 414.44 C-616.6 395.73, -602.46 372.87, -586.39 351.01 C-570.31 329.15, -550.09 304.78, -530.22 283.27 C-510.35 261.75, -488.74 241.36, -467.14 221.9 C-445.55 202.44, -423.23 183.91, -400.66 166.52 C-378.09 149.12, -354.96 132.77, -331.72 117.54 C-308.49 102.32, -286.57 89.14, -261.25 75.18 C-235.94 61.22, -204.39 44.96, -179.82 33.78 C-155.24 22.61, -135.22 14.19, -113.81 8.13 C-92.39 2.07, -70.31 -1.25, -51.34 -2.6 C-32.37 -3.96, -8.56 -0.43, 0 0" stroke="#E1E1E1" stroke-width="4" fill="none"></path></g></g><mask></mask><g stroke-linecap="round"><g transform="translate(821.7402404126165 224.1900993479071) rotate(316.86794743929653 -301.6487654039812 292.1418429998964)"><path d="M0 0 C4.25 1.04, 16.78 2.87, 25.51 6.26 C34.25 9.65, 44.84 14.1, 52.41 20.36 C59.99 26.62, 66.36 35.05, 70.95 43.83 C75.53 52.62, 78.74 61.27, 79.92 73.09 C81.09 84.92, 81.01 100.05, 77.97 114.78 C74.94 129.52, 69.6 144.57, 61.69 161.49 C53.79 178.42, 43.62 197.03, 30.54 216.33 C17.47 235.63, -0.06 257.88, -16.75 277.3 C-33.44 296.72, -51.5 315.32, -69.62 332.86 C-87.74 350.39, -104.87 365.68, -125.48 382.54 C-146.09 399.39, -170.03 417.53, -193.29 433.98 C-216.55 450.43, -242.77 467.75, -265.03 481.22 C-287.3 494.69, -304.17 503.49, -326.86 514.8 C-349.56 526.11, -375.01 538.27, -401.2 549.08 C-427.4 559.88, -460.12 573.05, -484.03 579.62 C-507.95 586.18, -525.41 587.34, -544.69 588.46 C-563.98 589.58, -583.25 588.86, -599.74 586.34 C-616.24 583.82, -631.74 579.65, -643.67 573.35 C-655.61 567.05, -664.81 557.25, -671.36 548.55 C-677.9 539.85, -680.98 532.14, -682.95 521.17 C-684.93 510.2, -685.58 497.51, -683.21 482.73 C-680.85 467.95, -676.46 450.43, -668.77 432.51 C-661.08 414.58, -649.49 394.49, -637.07 375.17 C-624.64 355.85, -611.51 337.25, -594.22 316.6 C-576.92 295.94, -556.15 273.1, -533.28 251.25 C-510.41 229.4, -480.44 204.29, -457 185.5 C-433.57 166.72, -416.21 154.29, -392.66 138.54 C-369.11 122.8, -343.9 106.62, -315.68 91.02 C-287.46 75.41, -252 57.98, -223.34 44.93 C-194.69 31.89, -169.79 20.93, -143.73 12.74 C-117.66 4.56, -90.9 -2.06, -66.95 -4.18 C-42.99 -6.3, -11.16 -0.7, 0 0 M0 0 C4.25 1.04, 16.78 2.87, 25.51 6.26 C34.25 9.65, 44.84 14.1, 52.41 20.36 C59.99 26.62, 66.36 35.05, 70.95 43.83 C75.53 52.62, 78.74 61.27, 79.92 73.09 C81.09 84.92, 81.01 100.05, 77.97 114.78 C74.94 129.52, 69.6 144.57, 61.69 161.49 C53.79 178.42, 43.62 197.03, 30.54 216.33 C17.47 235.63, -0.06 257.88, -16.75 277.3 C-33.44 296.72, -51.5 315.32, -69.62 332.86 C-87.74 350.39, -104.87 365.68, -125.48 382.54 C-146.09 399.39, -170.03 417.53, -193.29 433.98 C-216.55 450.43, -242.77 467.75, -265.03 481.22 C-287.3 494.69, -304.17 503.49, -326.86 514.8 C-349.56 526.11, -375.01 538.27, -401.2 549.08 C-427.4 559.88, -460.12 573.05, -484.03 579.62 C-507.95 586.18, -525.41 587.34, -544.69 588.46 C-563.98 589.58, -583.25 588.86, -599.74 586.34 C-616.24 583.82, -631.74 579.65, -643.67 573.35 C-655.61 567.05, -664.81 557.25, -671.36 548.55 C-677.9 539.85, -680.98 532.14, -682.95 521.17 C-684.93 510.2, -685.58 497.51, -683.21 482.73 C-680.85 467.95, -676.46 450.43, -668.77 432.51 C-661.08 414.58, -649.49 394.49, -637.07 375.17 C-624.64 355.85, -611.51 337.25, -594.22 316.6 C-576.92 295.94, -556.15 273.1, -533.28 251.25 C-510.41 229.4, -480.44 204.29, -457 185.5 C-433.57 166.72, -416.21 154.29, -392.66 138.54 C-369.11 122.8, -343.9 106.62, -315.68 91.02 C-287.46 75.41, -252 57.98, -223.34 44.93 C-194.69 31.89, -169.79 20.93, -143.73 12.74 C-117.66 4.56, -90.9 -2.06, -66.95 -4.18 C-42.99 -6.3, -11.16 -0.7, 0 0" stroke="#E1E1E1" stroke-width="4" fill="none"></path></g></g><mask></mask><g stroke-linecap="round"><g transform="translate(835.6647410769488 225.47267635454773) rotate(316.86794743929653 -315.96945365474994 290.65112205008916)"><path d="M0 0 C4.4 1.43, 17.43 4.57, 26.42 8.58 C35.41 12.6, 46.25 17.76, 53.93 24.07 C61.6 30.39, 68 39.48, 72.48 46.48 C76.95 53.47, 78.82 57.66, 80.76 66.04 C82.7 74.42, 84.83 84.71, 84.12 96.77 C83.42 108.82, 81.34 123.21, 76.53 138.38 C71.72 153.56, 64.28 171, 55.25 187.83 C46.21 204.67, 35.77 221.22, 22.33 239.39 C8.9 257.56, -7.38 277.61, -25.35 296.84 C-43.33 316.07, -61.01 333.74, -85.52 354.77 C-110.02 375.8, -145.06 403.3, -172.38 423.02 C-199.7 442.73, -225.09 458.57, -249.41 473.07 C-273.73 487.56, -293.4 497.9, -318.29 509.98 C-343.17 522.06, -373.47 535.4, -398.74 545.53 C-424.01 555.65, -451.88 564.76, -469.9 570.71 C-487.93 576.65, -491.98 578.26, -506.88 581.18 C-521.78 584.1, -542.21 587.26, -559.3 588.21 C-576.4 589.15, -593.42 589.07, -609.43 586.85 C-625.43 584.64, -642.25 580.04, -655.34 574.93 C-668.44 569.82, -679.32 563.8, -688.01 556.19 C-696.71 548.59, -702.86 539.86, -707.53 529.29 C-712.21 518.73, -716.49 508.54, -716.06 492.81 C-715.64 477.07, -713.05 456.62, -704.98 434.89 C-696.91 413.16, -684.71 387.96, -667.62 362.43 C-650.52 336.91, -626.88 307.85, -602.41 281.74 C-577.95 255.62, -550.28 229.96, -520.82 205.75 C-491.36 181.54, -456.03 156.6, -425.66 136.48 C-395.28 116.36, -370.88 101.67, -338.57 85.02 C-306.26 68.36, -264.41 49.75, -231.81 36.57 C-199.2 23.39, -170.66 13.16, -142.92 5.92 C-115.18 -1.33, -89.19 -5.92, -65.37 -6.9 C-41.55 -7.89, -10.9 -1.15, 0 0 M0 0 C4.4 1.43, 17.43 4.57, 26.42 8.58 C35.41 12.6, 46.25 17.76, 53.93 24.07 C61.6 30.39, 68 39.48, 72.48 46.48 C76.95 53.47, 78.82 57.66, 80.76 66.04 C82.7 74.42, 84.83 84.71, 84.12 96.77 C83.42 108.82, 81.34 123.21, 76.53 138.38 C71.72 153.56, 64.28 171, 55.25 187.83 C46.21 204.67, 35.77 221.22, 22.33 239.39 C8.9 257.56, -7.38 277.61, -25.35 296.84 C-43.33 316.07, -61.01 333.74, -85.52 354.77 C-110.02 375.8, -145.06 403.3, -172.38 423.02 C-199.7 442.73, -225.09 458.57, -249.41 473.07 C-273.73 487.56, -293.4 497.9, -318.29 509.98 C-343.17 522.06, -373.47 535.4, -398.74 545.53 C-424.01 555.65, -451.88 564.76, -469.9 570.71 C-487.93 576.65, -491.98 578.26, -506.88 581.18 C-521.78 584.1, -542.21 587.26, -559.3 588.21 C-576.4 589.15, -593.42 589.07, -609.43 586.85 C-625.43 584.64, -642.25 580.04, -655.34 574.93 C-668.44 569.82, -679.32 563.8, -688.01 556.19 C-696.71 548.59, -702.86 539.86, -707.53 529.29 C-712.21 518.73, -716.49 508.54, -716.06 492.81 C-715.64 477.07, -713.05 456.62, -704.98 434.89 C-696.91 413.16, -684.71 387.96, -667.62 362.43 C-650.52 336.91, -626.88 307.85, -602.41 281.74 C-577.95 255.62, -550.28 229.96, -520.82 205.75 C-491.36 181.54, -456.03 156.6, -425.66 136.48 C-395.28 116.36, -370.88 101.67, -338.57 85.02 C-306.26 68.36, -264.41 49.75, -231.81 36.57 C-199.2 23.39, -170.66 13.16, -142.92 5.92 C-115.18 -1.33, -89.19 -5.92, -65.37 -6.9 C-41.55 -7.89, -10.9 -1.15, 0 0" stroke="#E1E1E1" stroke-width="4" fill="none"></path></g></g><mask></mask><g stroke-linecap="round"><g transform="translate(858.9839258195559 231.63347669133827) rotate(316.86794743929653 -338.99768863152303 284.24748405872253)"><path d="M0 0 C5.4 2.54, 23.11 9.57, 32.37 15.26 C41.64 20.95, 49.12 26.38, 55.59 34.15 C62.06 41.91, 67.67 52.21, 71.19 61.86 C74.72 71.5, 76.68 79.51, 76.76 92 C76.84 104.49, 76.13 120.29, 71.67 136.8 C67.21 153.3, 61.2 170.74, 49.99 191.05 C38.78 211.36, 19.27 239.36, 4.41 258.67 C-10.45 277.97, -20.99 288.74, -39.15 306.88 C-57.31 325.01, -81.82 348.51, -104.55 367.48 C-127.28 386.46, -148.35 402.4, -175.53 420.71 C-202.71 439.03, -240.31 462.01, -267.61 477.38 C-294.92 492.74, -312.37 501.05, -339.38 512.92 C-366.39 524.79, -402.29 539.21, -429.68 548.58 C-457.07 557.94, -480.48 563.56, -503.71 569.11 C-526.93 574.66, -546.95 579.94, -569.01 581.87 C-591.07 583.81, -615.7 583.63, -636.06 580.69 C-656.41 577.75, -676.14 570.4, -691.15 564.24 C-706.15 558.07, -717.21 551.1, -726.09 543.72 C-734.98 536.34, -739.91 528.23, -744.44 519.97 C-748.97 511.71, -751.56 503.62, -753.28 494.17 C-755 484.72, -756.39 476.66, -754.75 463.27 C-753.11 449.88, -750.04 431.42, -743.45 413.81 C-736.85 396.21, -728.85 378.64, -715.18 357.65 C-701.51 336.65, -679.9 309.03, -661.45 287.85 C-643 266.67, -624.35 248.78, -604.49 230.58 C-584.62 212.39, -567.29 197.37, -542.25 178.69 C-517.21 160.01, -484.55 136.95, -454.25 118.49 C-423.95 100.03, -390.61 82.56, -360.44 67.91 C-330.27 53.26, -304.47 41.71, -273.22 30.59 C-241.97 19.47, -203.87 8.53, -172.95 1.2 C-142.03 -6.13, -111.25 -11.8, -87.72 -13.38 C-64.19 -14.95, -46.38 -10.48, -31.76 -8.25 C-17.14 -6.02, -5.29 -1.37, 0 0 M0 0 C5.4 2.54, 23.11 9.57, 32.37 15.26 C41.64 20.95, 49.12 26.38, 55.59 34.15 C62.06 41.91, 67.67 52.21, 71.19 61.86 C74.72 71.5, 76.68 79.51, 76.76 92 C76.84 104.49, 76.13 120.29, 71.67 136.8 C67.21 153.3, 61.2 170.74, 49.99 191.05 C38.78 211.36, 19.27 239.36, 4.41 258.67 C-10.45 277.97, -20.99 288.74, -39.15 306.88 C-57.31 325.01, -81.82 348.51, -104.55 367.48 C-127.28 386.46, -148.35 402.4, -175.53 420.71 C-202.71 439.03, -240.31 462.01, -267.61 477.38 C-294.92 492.74, -312.37 501.05, -339.38 512.92 C-366.39 524.79, -402.29 539.21, -429.68 548.58 C-457.07 557.94, -480.48 563.56, -503.71 569.11 C-526.93 574.66, -546.95 579.94, -569.01 581.87 C-591.07 583.81, -615.7 583.63, -636.06 580.69 C-656.41 577.75, -676.14 570.4, -691.15 564.24 C-706.15 558.07, -717.21 551.1, -726.09 543.72 C-734.98 536.34, -739.91 528.23, -744.44 519.97 C-748.97 511.71, -751.56 503.62, -753.28 494.17 C-755 484.72, -756.39 476.66, -754.75 463.27 C-753.11 449.88, -750.04 431.42, -743.45 413.81 C-736.85 396.21, -728.85 378.64, -715.18 357.65 C-701.51 336.65, -679.9 309.03, -661.45 287.85 C-643 266.67, -624.35 248.78, -604.49 230.58 C-584.62 212.39, -567.29 197.37, -542.25 178.69 C-517.21 160.01, -484.55 136.95, -454.25 118.49 C-423.95 100.03, -390.61 82.56, -360.44 67.91 C-330.27 53.26, -304.47 41.71, -273.22 30.59 C-241.97 19.47, -203.87 8.53, -172.95 1.2 C-142.03 -6.13, -111.25 -11.8, -87.72 -13.38 C-64.19 -14.95, -46.38 -10.48, -31.76 -8.25 C-17.14 -6.02, -5.29 -1.37, 0 0" stroke="#E1E1E1" stroke-width="4" fill="none"></path></g></g><mask></mask><g stroke-linecap="round"><g transform="translate(885.3350830980519 241.05425625032512) rotate(316.86794743929653 -365.7089075629196 274.857554398097)"><path d="M0 0 C5.01 3.35, 21.62 12.98, 30.03 20.1 C38.44 27.22, 45.08 34.02, 50.46 42.7 C55.85 51.39, 59.77 61.37, 62.33 72.2 C64.9 83.04, 67.03 93.72, 65.83 107.7 C64.63 121.69, 60.47 140.25, 55.14 156.11 C49.8 171.96, 42.85 186.93, 33.83 202.83 C24.82 218.73, 12.52 236.19, 1.07 251.53 C-10.38 266.87, -17.77 277.37, -34.87 294.86 C-51.97 312.34, -79.61 337.97, -101.54 356.45 C-123.46 374.93, -147.31 392.09, -166.43 405.75 C-185.55 419.4, -192.84 424.69, -216.24 438.4 C-239.65 452.11, -276.1 473.25, -306.87 488 C-337.64 502.74, -371.84 516.23, -400.84 526.88 C-429.84 537.52, -453.54 545.01, -480.84 551.88 C-508.15 558.76, -537.55 564.7, -564.66 568.14 C-591.76 571.59, -620.86 573.55, -643.47 572.55 C-666.09 571.56, -684.19 566.88, -700.36 562.19 C-716.53 557.5, -730.05 549.66, -740.52 544.39 C-750.99 539.11, -756.53 536.16, -763.17 530.55 C-769.82 524.93, -775.32 518.94, -780.41 510.71 C-785.5 502.48, -790.91 490.64, -793.71 481.17 C-796.52 471.7, -797.33 464.39, -797.25 453.88 C-797.17 443.36, -796.72 432.15, -793.25 418.07 C-789.79 403.99, -785.43 387.61, -776.47 369.4 C-767.52 351.19, -752.36 327, -739.52 308.81 C-726.68 290.62, -716.49 278.3, -699.43 260.26 C-682.36 242.23, -660.59 220.53, -637.12 200.63 C-613.65 180.73, -582.58 157.71, -558.6 140.88 C-534.61 124.05, -514.75 112.26, -493.2 99.68 C-471.64 87.1, -453.1 76.88, -429.28 65.42 C-405.46 53.96, -378.02 41.39, -350.3 30.91 C-322.58 20.43, -290.58 10.08, -262.97 2.54 C-235.35 -4.99, -208.48 -10.06, -184.61 -14.29 C-160.74 -18.52, -140.3 -21.94, -119.74 -22.84 C-99.17 -23.73, -78.2 -22.21, -61.22 -19.66 C-44.23 -17.11, -28.02 -10.82, -17.82 -7.55 C-7.62 -4.27, -2.97 -1.26, 0 0 M0 0 C5.01 3.35, 21.62 12.98, 30.03 20.1 C38.44 27.22, 45.08 34.02, 50.46 42.7 C55.85 51.39, 59.77 61.37, 62.33 72.2 C64.9 83.04, 67.03 93.72, 65.83 107.7 C64.63 121.69, 60.47 140.25, 55.14 156.11 C49.8 171.96, 42.85 186.93, 33.83 202.83 C24.82 218.73, 12.52 236.19, 1.07 251.53 C-10.38 266.87, -17.77 277.37, -34.87 294.86 C-51.97 312.34, -79.61 337.97, -101.54 356.45 C-123.46 374.93, -147.31 392.09, -166.43 405.75 C-185.55 419.4, -192.84 424.69, -216.24 438.4 C-239.65 452.11, -276.1 473.25, -306.87 488 C-337.64 502.74, -371.84 516.23, -400.84 526.88 C-429.84 537.52, -453.54 545.01, -480.84 551.88 C-508.15 558.76, -537.55 564.7, -564.66 568.14 C-591.76 571.59, -620.86 573.55, -643.47 572.55 C-666.09 571.56, -684.19 566.88, -700.36 562.19 C-716.53 557.5, -730.05 549.66, -740.52 544.39 C-750.99 539.11, -756.53 536.16, -763.17 530.55 C-769.82 524.93, -775.32 518.94, -780.41 510.71 C-785.5 502.48, -790.91 490.64, -793.71 481.17 C-796.52 471.7, -797.33 464.39, -797.25 453.88 C-797.17 443.36, -796.72 432.15, -793.25 418.07 C-789.79 403.99, -785.43 387.61, -776.47 369.4 C-767.52 351.19, -752.36 327, -739.52 308.81 C-726.68 290.62, -716.49 278.3, -699.43 260.26 C-682.36 242.23, -660.59 220.53, -637.12 200.63 C-613.65 180.73, -582.58 157.71, -558.6 140.88 C-534.61 124.05, -514.75 112.26, -493.2 99.68 C-471.64 87.1, -453.1 76.88, -429.28 65.42 C-405.46 53.96, -378.02 41.39, -350.3 30.91 C-322.58 20.43, -290.58 10.08, -262.97 2.54 C-235.35 -4.99, -208.48 -10.06, -184.61 -14.29 C-160.74 -18.52, -140.3 -21.94, -119.74 -22.84 C-99.17 -23.73, -78.2 -22.21, -61.22 -19.66 C-44.23 -17.11, -28.02 -10.82, -17.82 -7.55 C-7.62 -4.27, -2.97 -1.26, 0 0" stroke="#E1E1E1" stroke-width="4" fill="none"></path></g></g><mask></mask><g stroke-linecap="round"><g transform="translate(909.3903222617091 255.0847592995599) rotate(316.86794743929653 -389.4430567303378 261.43375308293673)"><path d="M0 0 C3 2.15, 11.66 7.09, 18.02 12.93 C24.38 18.77, 32.82 27.41, 38.16 35.04 C43.49 42.67, 47.15 50.23, 50.04 58.71 C52.93 67.18, 54.57 75.81, 55.49 85.89 C56.41 95.98, 56.9 107.73, 55.54 119.22 C54.18 130.71, 52.07 141.35, 47.34 154.85 C42.6 168.35, 36.22 183.91, 27.14 200.2 C18.05 216.49, 7.01 234.37, -7.16 252.58 C-21.34 270.79, -39.9 291.61, -57.91 309.46 C-75.91 327.31, -95.74 344.01, -115.19 359.68 C-134.65 375.35, -155.33 390.31, -174.62 403.48 C-193.91 416.65, -214.46 428.98, -230.92 438.68 C-247.37 448.37, -258.2 453.92, -273.37 461.64 C-288.53 469.36, -303.29 476.79, -321.92 484.99 C-340.54 493.2, -362.96 502.72, -385.1 510.86 C-407.24 519, -432.91 527.7, -454.77 533.84 C-476.63 539.98, -495.42 543.92, -516.28 547.72 C-537.13 551.52, -560.57 554.56, -579.92 556.65 C-599.28 558.74, -612.65 560.42, -632.41 560.26 C-652.17 560.1, -678.97 559.22, -698.49 555.71 C-718 552.2, -735.03 545.29, -749.51 539.2 C-764 533.1, -774.73 527.09, -785.39 519.15 C-796.04 511.21, -806.49 500.39, -813.45 491.55 C-820.41 482.71, -823.66 475.92, -827.16 466.09 C-830.65 456.26, -834.03 446.72, -834.42 432.58 C-834.82 418.43, -833.34 397.86, -829.51 381.22 C-825.69 364.57, -820.1 349.88, -811.47 332.7 C-802.84 315.52, -792.59 297.85, -777.72 278.13 C-762.86 258.41, -742.28 234.31, -722.28 214.4 C-702.27 194.49, -680.05 176.28, -657.69 158.68 C-635.34 141.08, -613.59 125.1, -588.14 108.81 C-562.7 92.52, -531.74 74.84, -505.03 60.93 C-478.31 47.03, -452.28 35.57, -427.85 25.4 C-403.41 15.23, -382.49 7.58, -358.41 -0.1 C-334.33 -7.77, -309.17 -14.98, -283.38 -20.66 C-257.6 -26.35, -228.07 -31.42, -203.69 -34.21 C-179.3 -37, -156.73 -37.3, -137.07 -37.39 C-117.41 -37.48, -102.41 -37.43, -85.72 -34.75 C-69.03 -32.08, -51.22 -27.14, -36.93 -21.34 C-22.65 -15.55, -6.16 -3.56, 0 0 M0 0 C3 2.15, 11.66 7.09, 18.02 12.93 C24.38 18.77, 32.82 27.41, 38.16 35.04 C43.49 42.67, 47.15 50.23, 50.04 58.71 C52.93 67.18, 54.57 75.81, 55.49 85.89 C56.41 95.98, 56.9 107.73, 55.54 119.22 C54.18 130.71, 52.07 141.35, 47.34 154.85 C42.6 168.35, 36.22 183.91, 27.14 200.2 C18.05 216.49, 7.01 234.37, -7.16 252.58 C-21.34 270.79, -39.9 291.61, -57.91 309.46 C-75.91 327.31, -95.74 344.01, -115.19 359.68 C-134.65 375.35, -155.33 390.31, -174.62 403.48 C-193.91 416.65, -214.46 428.98, -230.92 438.68 C-247.37 448.37, -258.2 453.92, -273.37 461.64 C-288.53 469.36, -303.29 476.79, -321.92 484.99 C-340.54 493.2, -362.96 502.72, -385.1 510.86 C-407.24 519, -432.91 527.7, -454.77 533.84 C-476.63 539.98, -495.42 543.92, -516.28 547.72 C-537.13 551.52, -560.57 554.56, -579.92 556.65 C-599.28 558.74, -612.65 560.42, -632.41 560.26 C-652.17 560.1, -678.97 559.22, -698.49 555.71 C-718 552.2, -735.03 545.29, -749.51 539.2 C-764 533.1, -774.73 527.09, -785.39 519.15 C-796.04 511.21, -806.49 500.39, -813.45 491.55 C-820.41 482.71, -823.66 475.92, -827.16 466.09 C-830.65 456.26, -834.03 446.72, -834.42 432.58 C-834.82 418.43, -833.34 397.86, -829.51 381.22 C-825.69 364.57, -820.1 349.88, -811.47 332.7 C-802.84 315.52, -792.59 297.85, -777.72 278.13 C-762.86 258.41, -742.28 234.31, -722.28 214.4 C-702.27 194.49, -680.05 176.28, -657.69 158.68 C-635.34 141.08, -613.59 125.1, -588.14 108.81 C-562.7 92.52, -531.74 74.84, -505.03 60.93 C-478.31 47.03, -452.28 35.57, -427.85 25.4 C-403.41 15.23, -382.49 7.58, -358.41 -0.1 C-334.33 -7.77, -309.17 -14.98, -283.38 -20.66 C-257.6 -26.35, -228.07 -31.42, -203.69 -34.21 C-179.3 -37, -156.73 -37.3, -137.07 -37.39 C-117.41 -37.48, -102.41 -37.43, -85.72 -34.75 C-69.03 -32.08, -51.22 -27.14, -36.93 -21.34 C-22.65 -15.55, -6.16 -3.56, 0 0" stroke="#E1E1E1" stroke-width="4" fill="none"></path></g></g><mask></mask><g stroke-linecap="round"><g transform="translate(905.8941824620285 251.8861220724093) rotate(316.86794743929653 -385.7143231749267 264.3134722138233)"><path d="M0 0 C4.98 3.81, 21.15 14.67, 29.88 22.89 C38.6 31.11, 46.28 40.03, 52.37 49.32 C58.47 58.6, 63.16 68.77, 66.46 78.61 C69.76 88.45, 71.62 96.38, 72.15 108.36 C72.69 120.35, 72.05 136.62, 69.66 150.52 C67.28 164.43, 63.84 176.83, 57.84 191.8 C51.85 206.76, 44.36 223.37, 33.7 240.3 C23.04 257.23, 7.95 276.84, -6.11 293.4 C-20.18 309.97, -34.21 324.32, -50.66 339.68 C-67.11 355.04, -87.65 372.13, -104.84 385.57 C-122.04 399.01, -134.83 408.08, -153.82 420.31 C-172.81 432.55, -196.83 447.02, -218.8 458.97 C-240.77 470.92, -264.83 482.62, -285.62 492.01 C-306.42 501.41, -322.36 507.62, -343.58 515.32 C-364.81 523.02, -389.93 531.75, -412.95 538.22 C-435.96 544.69, -458.8 549.84, -481.67 554.12 C-504.54 558.4, -527.83 561.87, -550.16 563.89 C-572.48 565.9, -595.56 566.28, -615.6 566.21 C-635.65 566.13, -653.69 565.25, -670.44 563.43 C-687.19 561.62, -701.03 559.66, -716.09 555.3 C-731.15 550.95, -747.53 544.45, -760.82 537.3 C-774.1 530.14, -784.85 522.5, -795.81 512.37 C-806.78 502.24, -819.01 488.8, -826.6 476.53 C-834.19 464.25, -838.53 452.11, -841.36 438.72 C-844.19 425.33, -845.13 411.94, -843.58 396.2 C-842.03 380.46, -838.41 361.99, -832.05 344.26 C-825.69 326.53, -815.8 306.97, -805.43 289.82 C-795.07 272.66, -782.23 256.31, -769.86 241.32 C-757.49 226.33, -746.67 214.74, -731.19 199.87 C-715.72 184.99, -695.92 167.19, -677.01 152.07 C-658.1 136.95, -637 121.97, -617.72 109.15 C-598.43 96.33, -582.78 86.88, -561.3 75.14 C-539.82 63.41, -512.11 49.36, -488.81 38.74 C-465.51 28.12, -449.24 20.81, -421.49 11.43 C-393.74 2.05, -352.81 -10.17, -322.31 -17.54 C-291.81 -24.91, -266.39 -29.43, -238.49 -32.77 C-210.59 -36.11, -182.05 -37.91, -154.92 -37.58 C-127.8 -37.26, -97.26 -34.56, -75.72 -30.83 C-54.18 -27.11, -38.29 -20.37, -25.67 -15.23 C-13.05 -10.1, -4.28 -2.54, 0 0 M0 0 C4.98 3.81, 21.15 14.67, 29.88 22.89 C38.6 31.11, 46.28 40.03, 52.37 49.32 C58.47 58.6, 63.16 68.77, 66.46 78.61 C69.76 88.45, 71.62 96.38, 72.15 108.36 C72.69 120.35, 72.05 136.62, 69.66 150.52 C67.28 164.43, 63.84 176.83, 57.84 191.8 C51.85 206.76, 44.36 223.37, 33.7 240.3 C23.04 257.23, 7.95 276.84, -6.11 293.4 C-20.18 309.97, -34.21 324.32, -50.66 339.68 C-67.11 355.04, -87.65 372.13, -104.84 385.57 C-122.04 399.01, -134.83 408.08, -153.82 420.31 C-172.81 432.55, -196.83 447.02, -218.8 458.97 C-240.77 470.92, -264.83 482.62, -285.62 492.01 C-306.42 501.41, -322.36 507.62, -343.58 515.32 C-364.81 523.02, -389.93 531.75, -412.95 538.22 C-435.96 544.69, -458.8 549.84, -481.67 554.12 C-504.54 558.4, -527.83 561.87, -550.16 563.89 C-572.48 565.9, -595.56 566.28, -615.6 566.21 C-635.65 566.13, -653.69 565.25, -670.44 563.43 C-687.19 561.62, -701.03 559.66, -716.09 555.3 C-731.15 550.95, -747.53 544.45, -760.82 537.3 C-774.1 530.14, -784.85 522.5, -795.81 512.37 C-806.78 502.24, -819.01 488.8, -826.6 476.53 C-834.19 464.25, -838.53 452.11, -841.36 438.72 C-844.19 425.33, -845.13 411.94, -843.58 396.2 C-842.03 380.46, -838.41 361.99, -832.05 344.26 C-825.69 326.53, -815.8 306.97, -805.43 289.82 C-795.07 272.66, -782.23 256.31, -769.86 241.32 C-757.49 226.33, -746.67 214.74, -731.19 199.87 C-715.72 184.99, -695.92 167.19, -677.01 152.07 C-658.1 136.95, -637 121.97, -617.72 109.15 C-598.43 96.33, -582.78 86.88, -561.3 75.14 C-539.82 63.41, -512.11 49.36, -488.81 38.74 C-465.51 28.12, -449.24 20.81, -421.49 11.43 C-393.74 2.05, -352.81 -10.17, -322.31 -17.54 C-291.81 -24.91, -266.39 -29.43, -238.49 -32.77 C-210.59 -36.11, -182.05 -37.91, -154.92 -37.58 C-127.8 -37.26, -97.26 -34.56, -75.72 -30.83 C-54.18 -27.11, -38.29 -20.37, -25.67 -15.23 C-13.05 -10.1, -4.28 -2.54, 0 0" stroke="#E1E1E1" stroke-width="4" fill="none"></path></g></g><mask></mask><g stroke-linecap="round"><g transform="translate(927.7359616591109 266.0658182472712) rotate(316.86794743929653 -407.8780259864338 250.8972817852242)"><path d="M0 0 C3.54 3.3, 14.16 12.03, 21.24 19.83 C28.31 27.63, 37.21 38.81, 42.46 46.81 C47.7 54.82, 49.69 59.64, 52.71 67.85 C55.73 76.07, 59.07 84.18, 60.57 96.09 C62.07 107.99, 62.27 127.22, 61.71 139.31 C61.15 151.4, 60.57 156.42, 57.2 168.6 C53.83 180.79, 47.73 198.36, 41.5 212.44 C35.27 226.51, 27.63 240.52, 19.83 253.05 C12.02 265.59, 6.18 273.78, -5.34 287.65 C-16.85 301.53, -33.01 320.53, -49.28 336.31 C-65.55 352.1, -84.64 368.04, -102.96 382.37 C-121.28 396.69, -137.64 408.51, -159.22 422.27 C-180.79 436.02, -208.7 452.43, -232.43 464.89 C-256.17 477.35, -279.88 488.1, -301.61 497.01 C-323.35 505.92, -341.53 511.61, -362.83 518.36 C-384.13 525.11, -405.68 531.74, -429.42 537.52 C-453.16 543.29, -478.14 549.38, -505.28 553.02 C-532.41 556.66, -564 559.08, -592.24 559.37 C-620.48 559.66, -650.88 557.43, -674.72 554.76 C-698.57 552.09, -717.57 548.24, -735.3 543.37 C-753.03 538.5, -766.57 533.6, -781.12 525.52 C-795.68 517.43, -810.15 506.59, -822.65 494.87 C-835.14 483.16, -848.14 467.03, -856.1 455.23 C-864.06 443.43, -866.84 436.29, -870.41 424.07 C-873.97 411.85, -877.49 397.99, -877.47 381.93 C-877.45 365.87, -874.77 345.29, -870.27 327.72 C-865.77 310.15, -859.64 294.21, -850.48 276.51 C-841.33 258.81, -827.95 238.43, -815.35 221.55 C-802.75 204.66, -790.09 190.7, -774.87 175.2 C-759.64 159.7, -740.46 142.28, -723.98 128.56 C-707.49 114.84, -696.56 106.5, -675.98 92.9 C-655.4 79.3, -625.58 60.7, -600.51 46.95 C-575.45 33.21, -554.86 22.45, -525.61 10.45 C-496.36 -1.55, -455.6 -15.7, -425.01 -25.06 C-394.43 -34.41, -367.78 -40.64, -342.11 -45.69 C-316.45 -50.74, -295.28 -53.38, -271.02 -55.36 C-246.76 -57.34, -218.37 -57.88, -196.55 -57.58 C-174.73 -57.27, -158.37 -55.87, -140.11 -53.52 C-121.84 -51.17, -104.03 -48.13, -86.97 -43.47 C-69.91 -38.81, -52.23 -32.82, -37.73 -25.57 C-23.24 -18.33, -6.29 -4.26, 0 0 M0 0 C3.54 3.3, 14.16 12.03, 21.24 19.83 C28.31 27.63, 37.21 38.81, 42.46 46.81 C47.7 54.82, 49.69 59.64, 52.71 67.85 C55.73 76.07, 59.07 84.18, 60.57 96.09 C62.07 107.99, 62.27 127.22, 61.71 139.31 C61.15 151.4, 60.57 156.42, 57.2 168.6 C53.83 180.79, 47.73 198.36, 41.5 212.44 C35.27 226.51, 27.63 240.52, 19.83 253.05 C12.02 265.59, 6.18 273.78, -5.34 287.65 C-16.85 301.53, -33.01 320.53, -49.28 336.31 C-65.55 352.1, -84.64 368.04, -102.96 382.37 C-121.28 396.69, -137.64 408.51, -159.22 422.27 C-180.79 436.02, -208.7 452.43, -232.43 464.89 C-256.17 477.35, -279.88 488.1, -301.61 497.01 C-323.35 505.92, -341.53 511.61, -362.83 518.36 C-384.13 525.11, -405.68 531.74, -429.42 537.52 C-453.16 543.29, -478.14 549.38, -505.28 553.02 C-532.41 556.66, -564 559.08, -592.24 559.37 C-620.48 559.66, -650.88 557.43, -674.72 554.76 C-698.57 552.09, -717.57 548.24, -735.3 543.37 C-753.03 538.5, -766.57 533.6, -781.12 525.52 C-795.68 517.43, -810.15 506.59, -822.65 494.87 C-835.14 483.16, -848.14 467.03, -856.1 455.23 C-864.06 443.43, -866.84 436.29, -870.41 424.07 C-873.97 411.85, -877.49 397.99, -877.47 381.93 C-877.45 365.87, -874.77 345.29, -870.27 327.72 C-865.77 310.15, -859.64 294.21, -850.48 276.51 C-841.33 258.81, -827.95 238.43, -815.35 221.55 C-802.75 204.66, -790.09 190.7, -774.87 175.2 C-759.64 159.7, -740.46 142.28, -723.98 128.56 C-707.49 114.84, -696.56 106.5, -675.98 92.9 C-655.4 79.3, -625.58 60.7, -600.51 46.95 C-575.45 33.21, -554.86 22.45, -525.61 10.45 C-496.36 -1.55, -455.6 -15.7, -425.01 -25.06 C-394.43 -34.41, -367.78 -40.64, -342.11 -45.69 C-316.45 -50.74, -295.28 -53.38, -271.02 -55.36 C-246.76 -57.34, -218.37 -57.88, -196.55 -57.58 C-174.73 -57.27, -158.37 -55.87, -140.11 -53.52 C-121.84 -51.17, -104.03 -48.13, -86.97 -43.47 C-69.91 -38.81, -52.23 -32.82, -37.73 -25.57 C-23.24 -18.33, -6.29 -4.26, 0 0" stroke="#E1E1E1" stroke-width="4" fill="none"></path></g></g><mask></mask><g stroke-linecap="round"><g transform="translate(923.0046331221076 261.38935093090595) rotate(316.86794743929653 -402.4582736090669 254.89640210003813)"><path d="M0 0 C3.32 2.77, 12.9 9.59, 19.94 16.62 C26.98 23.65, 35.85 33.71, 42.25 42.2 C48.65 50.7, 53.47 57.55, 58.35 67.57 C63.22 77.59, 68.38 90.54, 71.47 102.3 C74.56 114.06, 76.41 125.09, 76.9 138.15 C77.4 151.2, 76.98 166.14, 74.45 180.62 C71.92 195.1, 68.33 208.67, 61.7 225 C55.07 241.34, 44.88 261.83, 34.68 278.61 C24.48 295.39, 13.58 310.03, 0.49 325.7 C-12.6 341.37, -29.12 358.72, -43.85 372.62 C-58.58 386.52, -71.93 396.98, -87.88 409.11 C-103.84 421.25, -120.73 433.52, -139.6 445.42 C-158.47 457.32, -179.16 469.3, -201.13 480.52 C-223.1 491.74, -248.1 503.2, -271.42 512.72 C-294.75 522.24, -315.32 529.85, -341.1 537.64 C-366.87 545.42, -398.47 554.01, -426.08 559.44 C-453.69 564.87, -478.65 567.92, -506.76 570.21 C-534.87 572.49, -568.13 574.04, -594.75 573.17 C-621.37 572.3, -645.33 568.58, -666.48 564.99 C-687.63 561.4, -703.58 557.1, -721.66 551.63 C-739.73 546.15, -759.44 539.98, -774.93 532.13 C-790.41 524.28, -801.47 516.53, -814.56 504.52 C-827.64 492.51, -843.84 473.14, -853.44 460.07 C-863.05 446.99, -867.49 438.06, -872.17 426.07 C-876.85 414.09, -879.93 402.2, -881.54 388.16 C-883.15 374.12, -883.64 357.72, -881.82 341.83 C-880 325.94, -875.87 308.5, -870.6 292.82 C-865.32 277.14, -859.04 263.49, -850.17 247.77 C-841.3 232.05, -830.15 214.91, -817.39 198.5 C-804.63 182.1, -790.81 166.05, -773.62 149.34 C-756.44 132.63, -738.56 116.09, -714.3 98.25 C-690.03 80.41, -655.92 58.32, -628.04 42.32 C-600.15 26.32, -573.03 13.5, -547 2.24 C-520.97 -9.03, -496.84 -17.33, -471.86 -25.27 C-446.87 -33.21, -423.8 -39.76, -397.09 -45.4 C-370.39 -51.04, -341.02 -56.12, -311.63 -59.12 C-282.24 -62.12, -249.75 -64.1, -220.76 -63.37 C-191.77 -62.65, -161.71 -59.03, -137.66 -54.77 C-113.61 -50.51, -95.48 -44.35, -76.46 -37.82 C-57.44 -31.3, -36.27 -21.94, -23.53 -15.63 C-10.78 -9.33, -3.92 -2.61, 0 0 M0 0 C3.32 2.77, 12.9 9.59, 19.94 16.62 C26.98 23.65, 35.85 33.71, 42.25 42.2 C48.65 50.7, 53.47 57.55, 58.35 67.57 C63.22 77.59, 68.38 90.54, 71.47 102.3 C74.56 114.06, 76.41 125.09, 76.9 138.15 C77.4 151.2, 76.98 166.14, 74.45 180.62 C71.92 195.1, 68.33 208.67, 61.7 225 C55.07 241.34, 44.88 261.83, 34.68 278.61 C24.48 295.39, 13.58 310.03, 0.49 325.7 C-12.6 341.37, -29.12 358.72, -43.85 372.62 C-58.58 386.52, -71.93 396.98, -87.88 409.11 C-103.84 421.25, -120.73 433.52, -139.6 445.42 C-158.47 457.32, -179.16 469.3, -201.13 480.52 C-223.1 491.74, -248.1 503.2, -271.42 512.72 C-294.75 522.24, -315.32 529.85, -341.1 537.64 C-366.87 545.42, -398.47 554.01, -426.08 559.44 C-453.69 564.87, -478.65 567.92, -506.76 570.21 C-534.87 572.49, -568.13 574.04, -594.75 573.17 C-621.37 572.3, -645.33 568.58, -666.48 564.99 C-687.63 561.4, -703.58 557.1, -721.66 551.63 C-739.73 546.15, -759.44 539.98, -774.93 532.13 C-790.41 524.28, -801.47 516.53, -814.56 504.52 C-827.64 492.51, -843.84 473.14, -853.44 460.07 C-863.05 446.99, -867.49 438.06, -872.17 426.07 C-876.85 414.09, -879.93 402.2, -881.54 388.16 C-883.15 374.12, -883.64 357.72, -881.82 341.83 C-880 325.94, -875.87 308.5, -870.6 292.82 C-865.32 277.14, -859.04 263.49, -850.17 247.77 C-841.3 232.05, -830.15 214.91, -817.39 198.5 C-804.63 182.1, -790.81 166.05, -773.62 149.34 C-756.44 132.63, -738.56 116.09, -714.3 98.25 C-690.03 80.41, -655.92 58.32, -628.04 42.32 C-600.15 26.32, -573.03 13.5, -547 2.24 C-520.97 -9.03, -496.84 -17.33, -471.86 -25.27 C-446.87 -33.21, -423.8 -39.76, -397.09 -45.4 C-370.39 -51.04, -341.02 -56.12, -311.63 -59.12 C-282.24 -62.12, -249.75 -64.1, -220.76 -63.37 C-191.77 -62.65, -161.71 -59.03, -137.66 -54.77 C-113.61 -50.51, -95.48 -44.35, -76.46 -37.82 C-57.44 -31.3, -36.27 -21.94, -23.53 -15.63 C-10.78 -9.33, -3.92 -2.61, 0 0" stroke="#E1E1E1" stroke-width="4" fill="none"></path></g></g><mask></mask><g stroke-linecap="round"><g transform="translate(988.1686348466085 340.5469358643959) rotate(316.86794743929653 -467.9058894387829 175.68910451403735)"><path d="M0 0 C1.75 4.56, 7.43 17.14, 10.48 27.38 C13.53 37.62, 16.71 50.37, 18.32 61.43 C19.93 72.5, 20.8 81.55, 20.14 93.77 C19.48 105.98, 17.9 119.82, 14.38 134.7 C10.87 149.57, 5.57 167.31, -0.95 183.02 C-7.47 198.72, -14.91 213.27, -24.73 228.91 C-34.56 244.55, -47.68 262.17, -59.91 276.84 C-72.15 291.5, -82.46 302.56, -98.13 316.91 C-113.81 331.26, -134.25 348.54, -153.95 362.94 C-173.65 377.35, -196.02 391.47, -216.33 403.33 C-236.64 415.18, -254.19 424.07, -275.81 434.08 C-297.43 444.08, -323.36 455.15, -346.05 463.35 C-368.74 471.55, -389.66 477.47, -411.97 483.28 C-434.27 489.08, -456.47 494.44, -479.9 498.19 C-503.33 501.93, -528.18 504.24, -552.53 505.76 C-576.88 507.27, -601.5 508.29, -625.99 507.28 C-650.48 506.28, -675.53 503.73, -699.49 499.75 C-723.45 495.76, -749.23 489.76, -769.75 483.38 C-790.26 477.01, -806.24 469.54, -822.59 461.49 C-838.94 453.43, -853.11 446.67, -867.86 435.06 C-882.61 423.46, -899.78 405.41, -911.07 391.85 C-922.35 378.29, -929.17 366.12, -935.56 353.7 C-941.94 341.28, -945.98 331.03, -949.38 317.33 C-952.77 303.63, -955.78 288.41, -955.95 271.49 C-956.12 254.56, -955.06 235.69, -950.39 215.76 C-945.71 195.83, -937.66 172.14, -927.88 151.91 C-918.1 131.68, -905.01 112.1, -891.7 94.38 C-878.38 76.65, -863.67 61.12, -847.98 45.57 C-832.29 30.02, -814.94 14.82, -797.57 1.07 C-780.2 -12.67, -762.73 -24.82, -743.77 -36.88 C-724.8 -48.93, -705.49 -60.28, -683.77 -71.25 C-662.05 -82.23, -637.84 -93.33, -613.44 -102.74 C-589.04 -112.14, -565.28 -120.24, -537.38 -127.71 C-509.49 -135.19, -476.05 -142.88, -446.09 -147.58 C-416.13 -152.28, -388.18 -155.15, -357.62 -155.91 C-327.05 -156.66, -290.92 -155.08, -262.7 -152.13 C-234.49 -149.19, -211.62 -144.58, -188.31 -138.23 C-164.99 -131.89, -140.81 -121.9, -122.82 -114.07 C-104.83 -106.24, -93.55 -99.71, -80.35 -91.26 C-67.15 -82.8, -54.19 -73.33, -43.6 -63.33 C-33.01 -53.33, -24.07 -41.83, -16.8 -31.27 C-9.54 -20.72, -2.8 -5.21, 0 0 M0 0 C1.75 4.56, 7.43 17.14, 10.48 27.38 C13.53 37.62, 16.71 50.37, 18.32 61.43 C19.93 72.5, 20.8 81.55, 20.14 93.77 C19.48 105.98, 17.9 119.82, 14.38 134.7 C10.87 149.57, 5.57 167.31, -0.95 183.02 C-7.47 198.72, -14.91 213.27, -24.73 228.91 C-34.56 244.55, -47.68 262.17, -59.91 276.84 C-72.15 291.5, -82.46 302.56, -98.13 316.91 C-113.81 331.26, -134.25 348.54, -153.95 362.94 C-173.65 377.35, -196.02 391.47, -216.33 403.33 C-236.64 415.18, -254.19 424.07, -275.81 434.08 C-297.43 444.08, -323.36 455.15, -346.05 463.35 C-368.74 471.55, -389.66 477.47, -411.97 483.28 C-434.27 489.08, -456.47 494.44, -479.9 498.19 C-503.33 501.93, -528.18 504.24, -552.53 505.76 C-576.88 507.27, -601.5 508.29, -625.99 507.28 C-650.48 506.28, -675.53 503.73, -699.49 499.75 C-723.45 495.76, -749.23 489.76, -769.75 483.38 C-790.26 477.01, -806.24 469.54, -822.59 461.49 C-838.94 453.43, -853.11 446.67, -867.86 435.06 C-882.61 423.46, -899.78 405.41, -911.07 391.85 C-922.35 378.29, -929.17 366.12, -935.56 353.7 C-941.94 341.28, -945.98 331.03, -949.38 317.33 C-952.77 303.63, -955.78 288.41, -955.95 271.49 C-956.12 254.56, -955.06 235.69, -950.39 215.76 C-945.71 195.83, -937.66 172.14, -927.88 151.91 C-918.1 131.68, -905.01 112.1, -891.7 94.38 C-878.38 76.65, -863.67 61.12, -847.98 45.57 C-832.29 30.02, -814.94 14.82, -797.57 1.07 C-780.2 -12.67, -762.73 -24.82, -743.77 -36.88 C-724.8 -48.93, -705.49 -60.28, -683.77 -71.25 C-662.05 -82.23, -637.84 -93.33, -613.44 -102.74 C-589.04 -112.14, -565.28 -120.24, -537.38 -127.71 C-509.49 -135.19, -476.05 -142.88, -446.09 -147.58 C-416.13 -152.28, -388.18 -155.15, -357.62 -155.91 C-327.05 -156.66, -290.92 -155.08, -262.7 -152.13 C-234.49 -149.19, -211.62 -144.58, -188.31 -138.23 C-164.99 -131.89, -140.81 -121.9, -122.82 -114.07 C-104.83 -106.24, -93.55 -99.71, -80.35 -91.26 C-67.15 -82.8, -54.19 -73.33, -43.6 -63.33 C-33.01 -53.33, -24.07 -41.83, -16.8 -31.27 C-9.54 -20.72, -2.8 -5.21, 0 0" stroke="#E1E1E1" stroke-width="4" fill="none"></path></g></g><mask></mask><g stroke-linecap="round"><g transform="translate(1012.2560404719075 404.87966933206144) rotate(316.86794743929653 -491.38307104152346 111.71299351493906)"><path d="M0 0 C0.36 3.19, 1.57 10.57, 2.15 19.15 C2.73 27.72, 3.96 40.82, 3.51 51.46 C3.05 62.11, 1.99 70.46, -0.57 83 C-3.13 95.55, -6.25 111.37, -11.85 126.72 C-17.45 142.08, -25.09 158.6, -34.19 175.11 C-43.29 191.62, -54.86 210.25, -66.43 225.77 C-78.01 241.3, -89.68 254.19, -103.64 268.25 C-117.6 282.31, -131.89 295.73, -150.2 310.13 C-168.51 324.52, -192.78 341.66, -213.51 354.59 C-234.24 367.52, -254.11 377.77, -274.58 387.7 C-295.05 397.64, -315.94 406.55, -336.33 414.2 C-356.71 421.85, -376.07 427.92, -396.87 433.6 C-417.67 439.27, -438.83 444.2, -461.11 448.23 C-483.39 452.27, -505.21 455.72, -530.56 457.79 C-555.91 459.85, -587.1 461.21, -613.22 460.62 C-639.34 460.03, -667.03 456.91, -687.26 454.24 C-707.49 451.58, -718.17 448.91, -734.61 444.64 C-751.05 440.38, -769.61 434.74, -785.9 428.68 C-802.19 422.62, -817.6 415.86, -832.34 408.28 C-847.08 400.7, -860.78 392.41, -874.34 383.19 C-887.9 373.97, -902.3 363.43, -913.67 352.96 C-925.05 342.5, -934.53 331.36, -942.59 320.41 C-950.65 309.45, -956.32 299.69, -962.03 287.24 C-967.73 274.79, -972.78 260.89, -976.82 245.69 C-980.87 230.49, -985.17 213.9, -986.27 196.02 C-987.37 178.14, -986.71 157.71, -983.43 138.42 C-980.15 119.14, -974.86 100.1, -966.6 80.33 C-958.34 60.56, -945.92 38.37, -933.86 19.79 C-921.8 1.21, -912.16 -12.18, -894.25 -31.14 C-876.33 -50.11, -850.99 -74.75, -826.38 -94 C-801.78 -113.24, -771.55 -132.21, -746.62 -146.61 C-721.69 -161.01, -699.46 -170.66, -676.82 -180.4 C-654.19 -190.13, -636.57 -197.31, -610.81 -205.02 C-585.05 -212.72, -551.54 -221.25, -522.26 -226.61 C-492.99 -231.98, -464.62 -235.54, -435.16 -237.19 C-405.7 -238.84, -373.27 -238.34, -345.49 -236.53 C-317.71 -234.72, -290.86 -230.62, -268.49 -226.34 C-246.12 -222.06, -229.85 -217.08, -211.28 -210.84 C-192.72 -204.6, -173.92 -197.12, -157.09 -188.89 C-140.25 -180.65, -125.58 -171.8, -110.27 -161.42 C-94.96 -151.04, -76.84 -137.2, -65.24 -126.62 C-53.64 -116.03, -47.58 -107.91, -40.69 -97.91 C-33.8 -87.91, -30.12 -81.03, -23.87 -66.63 C-17.63 -52.23, -7.22 -22.6, -3.24 -11.49 C0.74 -0.39, -0.54 -1.92, 0 0 M0 0 C0.36 3.19, 1.57 10.57, 2.15 19.15 C2.73 27.72, 3.96 40.82, 3.51 51.46 C3.05 62.11, 1.99 70.46, -0.57 83 C-3.13 95.55, -6.25 111.37, -11.85 126.72 C-17.45 142.08, -25.09 158.6, -34.19 175.11 C-43.29 191.62, -54.86 210.25, -66.43 225.77 C-78.01 241.3, -89.68 254.19, -103.64 268.25 C-117.6 282.31, -131.89 295.73, -150.2 310.13 C-168.51 324.52, -192.78 341.66, -213.51 354.59 C-234.24 367.52, -254.11 377.77, -274.58 387.7 C-295.05 397.64, -315.94 406.55, -336.33 414.2 C-356.71 421.85, -376.07 427.92, -396.87 433.6 C-417.67 439.27, -438.83 444.2, -461.11 448.23 C-483.39 452.27, -505.21 455.72, -530.56 457.79 C-555.91 459.85, -587.1 461.21, -613.22 460.62 C-639.34 460.03, -667.03 456.91, -687.26 454.24 C-707.49 451.58, -718.17 448.91, -734.61 444.64 C-751.05 440.38, -769.61 434.74, -785.9 428.68 C-802.19 422.62, -817.6 415.86, -832.34 408.28 C-847.08 400.7, -860.78 392.41, -874.34 383.19 C-887.9 373.97, -902.3 363.43, -913.67 352.96 C-925.05 342.5, -934.53 331.36, -942.59 320.41 C-950.65 309.45, -956.32 299.69, -962.03 287.24 C-967.73 274.79, -972.78 260.89, -976.82 245.69 C-980.87 230.49, -985.17 213.9, -986.27 196.02 C-987.37 178.14, -986.71 157.71, -983.43 138.42 C-980.15 119.14, -974.86 100.1, -966.6 80.33 C-958.34 60.56, -945.92 38.37, -933.86 19.79 C-921.8 1.21, -912.16 -12.18, -894.25 -31.14 C-876.33 -50.11, -850.99 -74.75, -826.38 -94 C-801.78 -113.24, -771.55 -132.21, -746.62 -146.61 C-721.69 -161.01, -699.46 -170.66, -676.82 -180.4 C-654.19 -190.13, -636.57 -197.31, -610.81 -205.02 C-585.05 -212.72, -551.54 -221.25, -522.26 -226.61 C-492.99 -231.98, -464.62 -235.54, -435.16 -237.19 C-405.7 -238.84, -373.27 -238.34, -345.49 -236.53 C-317.71 -234.72, -290.86 -230.62, -268.49 -226.34 C-246.12 -222.06, -229.85 -217.08, -211.28 -210.84 C-192.72 -204.6, -173.92 -197.12, -157.09 -188.89 C-140.25 -180.65, -125.58 -171.8, -110.27 -161.42 C-94.96 -151.04, -76.84 -137.2, -65.24 -126.62 C-53.64 -116.03, -47.58 -107.91, -40.69 -97.91 C-33.8 -87.91, -30.12 -81.03, -23.87 -66.63 C-17.63 -52.23, -7.22 -22.6, -3.24 -11.49 C0.74 -0.39, -0.54 -1.92, 0 0" stroke="#E1E1E1" stroke-width="4" fill="none"></path></g></g><mask></mask><g stroke-linecap="round"><g transform="translate(985.2741019122282 303.42830628840375) rotate(316.86794743929653 -451.6173892046081 225.10309768492914)"><path d="M0 0 C-3.03 -4.86, -11.39 -19.54, -18.17 -29.18 C-24.96 -38.81, -31.56 -47.53, -40.69 -57.82 C-49.82 -68.12, -61.56 -80.43, -72.96 -90.97 C-84.35 -101.5, -93.8 -109.99, -109.08 -121.03 C-124.35 -132.08, -146.27 -146.84, -164.59 -157.23 C-182.9 -167.63, -197.89 -175.14, -218.98 -183.4 C-240.07 -191.66, -267.84 -200.83, -291.1 -206.77 C-314.36 -212.71, -335.83 -216.31, -358.54 -219.04 C-381.25 -221.77, -405.47 -222.9, -427.37 -223.16 C-449.26 -223.42, -469.21 -222.5, -489.91 -220.61 C-510.61 -218.73, -529.79 -216.47, -551.56 -211.83 C-573.33 -207.2, -600.43 -199.43, -620.54 -192.81 C-640.66 -186.2, -655.08 -179.88, -672.27 -172.14 C-689.46 -164.39, -705.8 -156.72, -723.67 -146.34 C-741.54 -135.96, -761.56 -123.57, -779.49 -109.87 C-797.42 -96.17, -814.5 -81.29, -831.27 -64.12 C-848.04 -46.96, -866.02 -25.85, -880.09 -6.88 C-894.17 12.08, -906.09 31.48, -915.73 49.64 C-925.38 67.81, -931.89 83.97, -937.96 102.12 C-944.03 120.27, -948.96 139.3, -952.15 158.55 C-955.34 177.79, -956.7 198.58, -957.11 217.6 C-957.51 236.62, -956.5 255.61, -954.59 272.68 C-952.69 289.75, -948.93 305.77, -945.67 320.02 C-942.41 334.27, -940.65 343.08, -935.02 358.17 C-929.39 373.27, -920.28 394.07, -911.91 410.58 C-903.54 427.09, -895.06 442.17, -884.81 457.25 C-874.55 472.33, -862.24 487.36, -850.38 501.07 C-838.52 514.78, -828.24 526.17, -813.65 539.52 C-799.05 552.86, -781.17 568.28, -762.83 581.14 C-744.48 594.01, -724.93 606.07, -703.56 616.72 C-682.19 627.36, -656.41 637.37, -634.61 644.99 C-612.81 652.62, -596.83 657.75, -572.77 662.48 C-548.7 667.21, -517.99 671.76, -490.2 673.37 C-462.42 674.97, -433.42 674.69, -406.08 672.08 C-378.73 669.48, -352.91 664.59, -326.11 657.74 C-299.32 650.88, -274.94 644.42, -245.31 630.97 C-215.69 617.51, -177.67 597.48, -148.39 577.01 C-119.12 556.54, -92.7 532.8, -69.67 508.17 C-46.63 483.55, -25.37 452.73, -10.16 429.25 C5.04 405.78, 13.42 386.05, 21.54 367.32 C29.66 348.58, 33.8 335.49, 38.58 316.86 C43.36 298.23, 47.66 274.32, 50.21 255.53 C52.76 236.74, 53.84 221.69, 53.87 204.12 C53.9 186.56, 52.31 167.22, 50.39 150.14 C48.46 133.05, 45.98 118.33, 42.33 101.61 C38.67 84.89, 33.95 66.51, 28.46 49.79 C22.97 33.07, 16.75 17.73, 9.39 1.29 C2.03 -15.15, -5.12 -31.16, -15.71 -48.85 C-26.3 -66.55, -42.54 -89.47, -54.16 -104.87 C-65.78 -120.28, -74.9 -130.14, -85.44 -141.3 C-95.98 -152.46, -105.64 -161.58, -117.41 -171.82 C-129.17 -182.05, -149.59 -197.57, -156.03 -202.72 M0 0 C-3.03 -4.86, -11.39 -19.54, -18.17 -29.18 C-24.96 -38.81, -31.56 -47.53, -40.69 -57.82 C-49.82 -68.12, -61.56 -80.43, -72.96 -90.97 C-84.35 -101.5, -93.8 -109.99, -109.08 -121.03 C-124.35 -132.08, -146.27 -146.84, -164.59 -157.23 C-182.9 -167.63, -197.89 -175.14, -218.98 -183.4 C-240.07 -191.66, -267.84 -200.83, -291.1 -206.77 C-314.36 -212.71, -335.83 -216.31, -358.54 -219.04 C-381.25 -221.77, -405.47 -222.9, -427.37 -223.16 C-449.26 -223.42, -469.21 -222.5, -489.91 -220.61 C-510.61 -218.73, -529.79 -216.47, -551.56 -211.83 C-573.33 -207.2, -600.43 -199.43, -620.54 -192.81 C-640.66 -186.2, -655.08 -179.88, -672.27 -172.14 C-689.46 -164.39, -705.8 -156.72, -723.67 -146.34 C-741.54 -135.96, -761.56 -123.57, -779.49 -109.87 C-797.42 -96.17, -814.5 -81.29, -831.27 -64.12 C-848.04 -46.96, -866.02 -25.85, -880.09 -6.88 C-894.17 12.08, -906.09 31.48, -915.73 49.64 C-925.38 67.81, -931.89 83.97, -937.96 102.12 C-944.03 120.27, -948.96 139.3, -952.15 158.55 C-955.34 177.79, -956.7 198.58, -957.11 217.6 C-957.51 236.62, -956.5 255.61, -954.59 272.68 C-952.69 289.75, -948.93 305.77, -945.67 320.02 C-942.41 334.27, -940.65 343.08, -935.02 358.17 C-929.39 373.27, -920.28 394.07, -911.91 410.58 C-903.54 427.09, -895.06 442.17, -884.81 457.25 C-874.55 472.33, -862.24 487.36, -850.38 501.07 C-838.52 514.78, -828.24 526.17, -813.65 539.52 C-799.05 552.86, -781.17 568.28, -762.83 581.14 C-744.48 594.01, -724.93 606.07, -703.56 616.72 C-682.19 627.36, -656.41 637.37, -634.61 644.99 C-612.81 652.62, -596.83 657.75, -572.77 662.48 C-548.7 667.21, -517.99 671.76, -490.2 673.37 C-462.42 674.97, -433.42 674.69, -406.08 672.08 C-378.73 669.48, -352.91 664.59, -326.11 657.74 C-299.32 650.88, -274.94 644.42, -245.31 630.97 C-215.69 617.51, -177.67 597.48, -148.39 577.01 C-119.12 556.54, -92.7 532.8, -69.67 508.17 C-46.63 483.55, -25.37 452.73, -10.16 429.25 C5.04 405.78, 13.42 386.05, 21.54 367.32 C29.66 348.58, 33.8 335.49, 38.58 316.86 C43.36 298.23, 47.66 274.32, 50.21 255.53 C52.76 236.74, 53.84 221.69, 53.87 204.12 C53.9 186.56, 52.31 167.22, 50.39 150.14 C48.46 133.05, 45.98 118.33, 42.33 101.61 C38.67 84.89, 33.95 66.51, 28.46 49.79 C22.97 33.07, 16.75 17.73, 9.39 1.29 C2.03 -15.15, -5.12 -31.16, -15.71 -48.85 C-26.3 -66.55, -42.54 -89.47, -54.16 -104.87 C-65.78 -120.28, -74.9 -130.14, -85.44 -141.3 C-95.98 -152.46, -105.64 -161.58, -117.41 -171.82 C-129.17 -182.05, -149.59 -197.57, -156.03 -202.72" stroke="#E1E1E1" stroke-width="4" fill="none"></path></g></g><mask></mask><g stroke-linecap="round"><g transform="translate(1011.0200857881991 346.1576518821894) rotate(316.86794743929653 -489.67439217134563 195.52826605275663)"><path d="M0 0 C-3.83 -7.38, -13.9 -28.59, -22.98 -44.25 C-32.06 -59.92, -41.81 -77.41, -54.47 -94 C-67.13 -110.6, -84.24 -129.18, -98.95 -143.83 C-113.65 -158.48, -127.73 -170.11, -142.69 -181.9 C-157.64 -193.69, -168.7 -203.04, -188.7 -214.56 C-208.7 -226.09, -239.46 -241.31, -262.7 -251.04 C-285.93 -260.76, -307.59 -267.34, -328.13 -272.92 C-348.67 -278.5, -363.73 -281.49, -385.94 -284.51 C-408.16 -287.53, -437.1 -290.69, -461.42 -291.06 C-485.73 -291.44, -507.02 -290.03, -531.83 -286.75 C-556.63 -283.47, -584.39 -278.43, -610.24 -271.37 C-636.09 -264.32, -663.85 -254.4, -686.94 -244.4 C-710.03 -234.39, -730.86 -222.05, -748.76 -211.35 C-766.66 -200.64, -778.99 -192.18, -794.33 -180.19 C-809.68 -168.19, -825.71 -154.29, -840.83 -139.37 C-855.94 -124.44, -870.95 -108.97, -885.02 -90.65 C-899.1 -72.32, -913.85 -49.85, -925.26 -29.43 C-936.67 -9.02, -945.96 12.44, -953.46 31.84 C-960.96 51.24, -966.14 68.02, -970.27 86.96 C-974.41 105.89, -976.75 124.35, -978.27 145.45 C-979.78 166.55, -980.57 192, -979.35 213.54 C-978.12 235.07, -974.44 255.98, -970.92 274.68 C-967.4 293.38, -963.6 308.41, -958.22 325.74 C-952.84 343.08, -946.76 360.06, -938.63 378.68 C-930.51 397.3, -919.29 420.48, -909.46 437.48 C-899.62 454.48, -890.96 466.14, -879.62 480.68 C-868.29 495.22, -854.95 510.56, -841.43 524.74 C-827.9 538.92, -816.83 551.02, -798.49 565.76 C-780.16 580.5, -755.86 598.68, -731.42 613.2 C-706.98 627.72, -677.04 642.95, -651.85 652.89 C-626.65 662.84, -600 668.01, -580.25 672.88 C-560.5 677.75, -541.18 680.58, -533.37 682.12 M0 0 C-3.83 -7.38, -13.9 -28.59, -22.98 -44.25 C-32.06 -59.92, -41.81 -77.41, -54.47 -94 C-67.13 -110.6, -84.24 -129.18, -98.95 -143.83 C-113.65 -158.48, -127.73 -170.11, -142.69 -181.9 C-157.64 -193.69, -168.7 -203.04, -188.7 -214.56 C-208.7 -226.09, -239.46 -241.31, -262.7 -251.04 C-285.93 -260.76, -307.59 -267.34, -328.13 -272.92 C-348.67 -278.5, -363.73 -281.49, -385.94 -284.51 C-408.16 -287.53, -437.1 -290.69, -461.42 -291.06 C-485.73 -291.44, -507.02 -290.03, -531.83 -286.75 C-556.63 -283.47, -584.39 -278.43, -610.24 -271.37 C-636.09 -264.32, -663.85 -254.4, -686.94 -244.4 C-710.03 -234.39, -730.86 -222.05, -748.76 -211.35 C-766.66 -200.64, -778.99 -192.18, -794.33 -180.19 C-809.68 -168.19, -825.71 -154.29, -840.83 -139.37 C-855.94 -124.44, -870.95 -108.97, -885.02 -90.65 C-899.1 -72.32, -913.85 -49.85, -925.26 -29.43 C-936.67 -9.02, -945.96 12.44, -953.46 31.84 C-960.96 51.24, -966.14 68.02, -970.27 86.96 C-974.41 105.89, -976.75 124.35, -978.27 145.45 C-979.78 166.55, -980.57 192, -979.35 213.54 C-978.12 235.07, -974.44 255.98, -970.92 274.68 C-967.4 293.38, -963.6 308.41, -958.22 325.74 C-952.84 343.08, -946.76 360.06, -938.63 378.68 C-930.51 397.3, -919.29 420.48, -909.46 437.48 C-899.62 454.48, -890.96 466.14, -879.62 480.68 C-868.29 495.22, -854.95 510.56, -841.43 524.74 C-827.9 538.92, -816.83 551.02, -798.49 565.76 C-780.16 580.5, -755.86 598.68, -731.42 613.2 C-706.98 627.72, -677.04 642.95, -651.85 652.89 C-626.65 662.84, -600 668.01, -580.25 672.88 C-560.5 677.75, -541.18 680.58, -533.37 682.12" stroke="#E1E1E1" stroke-width="4" fill="none"></path></g></g><mask></mask><g stroke-linecap="round"><g transform="translate(150.74331001131515 655.8321329814303) rotate(316.86794743929653 482.7884488281892 -51.0069268104844)"><path d="M0 0 C3.56 6.1, 11.04 22.19, 21.34 36.61 C31.63 51.02, 47.3 71.24, 61.76 86.49 C76.23 101.73, 90.54 114.45, 108.12 128.09 C125.69 141.72, 145.53 156, 167.2 168.31 C188.88 180.63, 214.04 192.67, 238.16 201.98 C262.27 211.3, 285.33 218.42, 311.9 224.21 C338.46 230, 371.86 234.32, 397.55 236.7 C423.25 239.07, 442.48 239.61, 466.05 238.46 C489.61 237.31, 516.78 233.57, 538.93 229.79 C561.08 226.02, 578.14 221.74, 598.94 215.83 C619.73 209.91, 638.51 205.25, 663.72 194.3 C688.93 183.35, 722.84 167.55, 750.2 150.14 C777.55 132.74, 804.4 111.87, 827.84 89.87 C851.27 67.87, 873.1 42.76, 890.81 18.14 C908.51 -6.47, 922.82 -32.34, 934.09 -57.82 C945.35 -83.3, 953.15 -112.72, 958.4 -134.74 C963.65 -156.75, 964.78 -171.45, 965.58 -189.89 C966.37 -208.33, 965.07 -226.96, 963.18 -245.37 C961.28 -263.77, 957.41 -284.49, 954.21 -300.34 C951 -316.19, 945.66 -333.78, 943.96 -340.47 M0 0 C3.56 6.1, 11.04 22.19, 21.34 36.61 C31.63 51.02, 47.3 71.24, 61.76 86.49 C76.23 101.73, 90.54 114.45, 108.12 128.09 C125.69 141.72, 145.53 156, 167.2 168.31 C188.88 180.63, 214.04 192.67, 238.16 201.98 C262.27 211.3, 285.33 218.42, 311.9 224.21 C338.46 230, 371.86 234.32, 397.55 236.7 C423.25 239.07, 442.48 239.61, 466.05 238.46 C489.61 237.31, 516.78 233.57, 538.93 229.79 C561.08 226.02, 578.14 221.74, 598.94 215.83 C619.73 209.91, 638.51 205.25, 663.72 194.3 C688.93 183.35, 722.84 167.55, 750.2 150.14 C777.55 132.74, 804.4 111.87, 827.84 89.87 C851.27 67.87, 873.1 42.76, 890.81 18.14 C908.51 -6.47, 922.82 -32.34, 934.09 -57.82 C945.35 -83.3, 953.15 -112.72, 958.4 -134.74 C963.65 -156.75, 964.78 -171.45, 965.58 -189.89 C966.37 -208.33, 965.07 -226.96, 963.18 -245.37 C961.28 -263.77, 957.41 -284.49, 954.21 -300.34 C951 -316.19, 945.66 -333.78, 943.96 -340.47" stroke="#E1E1E1" stroke-width="4" fill="none"></path></g></g><mask></mask><g stroke-linecap="round"><g transform="translate(1118.6858728473985 392.87567708211964) rotate(316.86794743929653 -488.9905881657518 223.81711029617645)"><path d="M0 0 C0.01 4.08, 0.61 13.44, 0.07 24.5 C-0.48 35.55, -0.33 49.9, -3.27 66.32 C-6.21 82.74, -10.62 104, -17.57 123.01 C-24.51 142.03, -34.33 161.98, -44.93 180.43 C-55.54 198.89, -68.83 218.02, -81.2 233.75 C-93.56 249.48, -105.56 261.65, -119.12 274.8 C-132.68 287.94, -146.51 300.17, -162.56 312.6 C-178.61 325.04, -197.55 338.44, -215.4 349.39 C-233.25 360.33, -251.37 369.41, -269.67 378.27 C-287.98 387.13, -306.03 395.2, -325.23 402.55 C-344.43 409.9, -364.87 416.73, -384.86 422.38 C-404.84 428.02, -422.64 432.4, -445.13 436.42 C-467.61 440.44, -496.99 444.62, -519.77 446.49 C-542.54 448.36, -560.21 448.23, -581.79 447.63 C-603.38 447.04, -627.25 445.79, -649.28 442.94 C-671.3 440.09, -690.96 436.42, -713.94 430.53 C-736.91 424.64, -763.66 417.32, -787.12 407.6 C-810.59 397.89, -837.67 382.22, -854.72 372.21 C-871.76 362.21, -879.05 355.88, -889.38 347.56 C-899.71 339.25, -907.41 331.72, -916.69 322.32 C-925.97 312.92, -937.26 300.99, -945.04 291.15 C-952.81 281.3, -957.85 273.01, -963.35 263.27 C-968.85 253.53, -975.6 237.79, -978.05 232.69 M0 0 C0.01 4.08, 0.61 13.44, 0.07 24.5 C-0.48 35.55, -0.33 49.9, -3.27 66.32 C-6.21 82.74, -10.62 104, -17.57 123.01 C-24.51 142.03, -34.33 161.98, -44.93 180.43 C-55.54 198.89, -68.83 218.02, -81.2 233.75 C-93.56 249.48, -105.56 261.65, -119.12 274.8 C-132.68 287.94, -146.51 300.17, -162.56 312.6 C-178.61 325.04, -197.55 338.44, -215.4 349.39 C-233.25 360.33, -251.37 369.41, -269.67 378.27 C-287.98 387.13, -306.03 395.2, -325.23 402.55 C-344.43 409.9, -364.87 416.73, -384.86 422.38 C-404.84 428.02, -422.64 432.4, -445.13 436.42 C-467.61 440.44, -496.99 444.62, -519.77 446.49 C-542.54 448.36, -560.21 448.23, -581.79 447.63 C-603.38 447.04, -627.25 445.79, -649.28 442.94 C-671.3 440.09, -690.96 436.42, -713.94 430.53 C-736.91 424.64, -763.66 417.32, -787.12 407.6 C-810.59 397.89, -837.67 382.22, -854.72 372.21 C-871.76 362.21, -879.05 355.88, -889.38 347.56 C-899.71 339.25, -907.41 331.72, -916.69 322.32 C-925.97 312.92, -937.26 300.99, -945.04 291.15 C-952.81 281.3, -957.85 273.01, -963.35 263.27 C-968.85 253.53, -975.6 237.79, -978.05 232.69" stroke="#E1E1E1" stroke-width="4" fill="none"></path></g></g><mask></mask><g stroke-linecap="round"><g transform="translate(196.10676866914628 673.9122389417003) rotate(316.86794743929653 468.4713281602685 -54.98413321102623)"><path d="M0 0 C2.59 3.53, 7.97 12.61, 15.53 21.17 C23.09 29.73, 33.88 41.16, 45.36 51.35 C56.85 61.54, 68.44 71.64, 84.42 82.3 C100.4 92.96, 123.2 106.02, 141.25 115.29 C159.3 124.55, 172.84 130.83, 192.71 137.88 C212.58 144.93, 235.89 152.46, 260.46 157.61 C285.03 162.77, 313.27 166.7, 340.13 168.81 C366.98 170.93, 392.57 171.96, 421.6 170.29 C450.62 168.62, 483.65 164.88, 514.3 158.8 C544.96 152.72, 579.8 142.24, 605.51 133.83 C631.23 125.41, 646.23 119.53, 668.62 108.3 C691.02 97.06, 718.52 80.64, 739.89 66.42 C761.26 52.2, 777.86 40.2, 796.83 23 C815.79 5.79, 837.11 -15.85, 853.68 -36.83 C870.25 -57.81, 885.03 -82.04, 896.25 -102.87 C907.47 -123.69, 914.55 -141.75, 921.02 -161.8 C927.48 -181.85, 932.4 -203.41, 935.06 -223.16 C937.71 -242.9, 936.63 -270.74, 936.94 -280.26 M0 0 C2.59 3.53, 7.97 12.61, 15.53 21.17 C23.09 29.73, 33.88 41.16, 45.36 51.35 C56.85 61.54, 68.44 71.64, 84.42 82.3 C100.4 92.96, 123.2 106.02, 141.25 115.29 C159.3 124.55, 172.84 130.83, 192.71 137.88 C212.58 144.93, 235.89 152.46, 260.46 157.61 C285.03 162.77, 313.27 166.7, 340.13 168.81 C366.98 170.93, 392.57 171.96, 421.6 170.29 C450.62 168.62, 483.65 164.88, 514.3 158.8 C544.96 152.72, 579.8 142.24, 605.51 133.83 C631.23 125.41, 646.23 119.53, 668.62 108.3 C691.02 97.06, 718.52 80.64, 739.89 66.42 C761.26 52.2, 777.86 40.2, 796.83 23 C815.79 5.79, 837.11 -15.85, 853.68 -36.83 C870.25 -57.81, 885.03 -82.04, 896.25 -102.87 C907.47 -123.69, 914.55 -141.75, 921.02 -161.8 C927.48 -181.85, 932.4 -203.41, 935.06 -223.16 C937.71 -242.9, 936.63 -270.74, 936.94 -280.26" stroke="#E1E1E1" stroke-width="4" fill="none"></path></g></g><mask></mask><g stroke-linecap="round"><g transform="translate(885.7661247584713 337.7908023912946) rotate(316.86794743929653 -467.18040652733947 124.53436082743042)"><path d="M0 0 C-3.36 -4.18, -10.65 -15.17, -20.18 -25.07 C-29.7 -34.97, -43.69 -48.68, -57.17 -59.41 C-70.65 -70.14, -85.22 -79.89, -101.05 -89.45 C-116.89 -99.01, -132.78 -108.11, -152.19 -116.78 C-171.6 -125.46, -198.05 -135.26, -217.53 -141.5 C-237.02 -147.73, -246.97 -150.31, -269.1 -154.21 C-291.22 -158.1, -323.85 -163.05, -350.28 -164.88 C-376.71 -166.72, -405.91 -166.09, -427.66 -165.22 C-449.4 -164.36, -460.71 -162.97, -480.77 -159.69 C-500.82 -156.41, -527.79 -150.67, -547.99 -145.53 C-568.18 -140.39, -582.73 -135.83, -601.93 -128.85 C-621.13 -121.87, -639.76 -115.4, -663.19 -103.63 C-686.62 -91.85, -719.15 -74.02, -742.51 -58.22 C-765.87 -42.42, -785.92 -24.74, -803.35 -8.82 C-820.78 7.1, -832.92 19.45, -847.11 37.3 C-861.29 55.14, -877.64 79.6, -888.46 98.26 C-899.28 116.93, -905.31 130.99, -912.02 149.29 C-918.72 167.58, -924.99 186.02, -928.72 208.04 C-932.44 230.05, -934.97 259.79, -934.36 281.39 C-933.76 302.99, -927.73 322.69, -925.08 337.63 C-922.43 352.57, -921.98 358.25, -918.46 371.02 C-914.93 383.8, -906.35 407.08, -903.92 414.29 M0 0 C-3.36 -4.18, -10.65 -15.17, -20.18 -25.07 C-29.7 -34.97, -43.69 -48.68, -57.17 -59.41 C-70.65 -70.14, -85.22 -79.89, -101.05 -89.45 C-116.89 -99.01, -132.78 -108.11, -152.19 -116.78 C-171.6 -125.46, -198.05 -135.26, -217.53 -141.5 C-237.02 -147.73, -246.97 -150.31, -269.1 -154.21 C-291.22 -158.1, -323.85 -163.05, -350.28 -164.88 C-376.71 -166.72, -405.91 -166.09, -427.66 -165.22 C-449.4 -164.36, -460.71 -162.97, -480.77 -159.69 C-500.82 -156.41, -527.79 -150.67, -547.99 -145.53 C-568.18 -140.39, -582.73 -135.83, -601.93 -128.85 C-621.13 -121.87, -639.76 -115.4, -663.19 -103.63 C-686.62 -91.85, -719.15 -74.02, -742.51 -58.22 C-765.87 -42.42, -785.92 -24.74, -803.35 -8.82 C-820.78 7.1, -832.92 19.45, -847.11 37.3 C-861.29 55.14, -877.64 79.6, -888.46 98.26 C-899.28 116.93, -905.31 130.99, -912.02 149.29 C-918.72 167.58, -924.99 186.02, -928.72 208.04 C-932.44 230.05, -934.97 259.79, -934.36 281.39 C-933.76 302.99, -927.73 322.69, -925.08 337.63 C-922.43 352.57, -921.98 358.25, -918.46 371.02 C-914.93 383.8, -906.35 407.08, -903.92 414.29" stroke="#E1E1E1" stroke-width="4" fill="none"></path></g></g><mask></mask><g stroke-linecap="round"><g transform="translate(-69.94042464733904 660.6267114694938) rotate(316.86794743929653 462.9729353985158 -225.65388269123673)"><path d="M0 0 C0 -7.29, -2.22 -25.09, 0 -43.71 C2.22 -62.34, 6.32 -88.91, 13.34 -111.76 C20.36 -134.61, 30.1 -159.05, 42.11 -180.8 C54.11 -202.56, 70.32 -223.94, 85.37 -242.29 C100.43 -260.65, 114.63 -274.89, 132.43 -290.95 C150.24 -307, 171.31 -324.44, 192.18 -338.63 C213.05 -352.83, 234.9 -364.62, 257.67 -376.11 C280.43 -387.6, 305.8 -398.68, 328.77 -407.56 C351.74 -416.44, 369.76 -423.01, 395.46 -429.39 C421.15 -435.77, 452.25 -442.18, 482.94 -445.83 C513.62 -449.48, 548.33 -451.75, 579.58 -451.31 C610.83 -450.86, 644.01 -447.13, 670.45 -443.15 C696.88 -439.17, 717.4 -433.44, 738.19 -427.41 C758.98 -421.38, 778.48 -414.12, 795.2 -406.99 C811.91 -399.86, 824.32 -392.89, 838.48 -384.62 C852.64 -376.35, 865.58 -368.76, 880.16 -357.36 C894.74 -345.96, 918.32 -323.05, 925.95 -316.19 M0 0 C0 -7.29, -2.22 -25.09, 0 -43.71 C2.22 -62.34, 6.32 -88.91, 13.34 -111.76 C20.36 -134.61, 30.1 -159.05, 42.11 -180.8 C54.11 -202.56, 70.32 -223.94, 85.37 -242.29 C100.43 -260.65, 114.63 -274.89, 132.43 -290.95 C150.24 -307, 171.31 -324.44, 192.18 -338.63 C213.05 -352.83, 234.9 -364.62, 257.67 -376.11 C280.43 -387.6, 305.8 -398.68, 328.77 -407.56 C351.74 -416.44, 369.76 -423.01, 395.46 -429.39 C421.15 -435.77, 452.25 -442.18, 482.94 -445.83 C513.62 -449.48, 548.33 -451.75, 579.58 -451.31 C610.83 -450.86, 644.01 -447.13, 670.45 -443.15 C696.88 -439.17, 717.4 -433.44, 738.19 -427.41 C758.98 -421.38, 778.48 -414.12, 795.2 -406.99 C811.91 -399.86, 824.32 -392.89, 838.48 -384.62 C852.64 -376.35, 865.58 -368.76, 880.16 -357.36 C894.74 -345.96, 918.32 -323.05, 925.95 -316.19" stroke="#E1E1E1" stroke-width="4" fill="none"></path></g></g><mask></mask></svg>