<svg version="1.1" xmlns="http://www.w3.org/2000/svg" viewBox="0 0 385.050135719844 474.01870262217795" width="385.050135719844" height="474.01870262217795" class="excalidraw-svg"><!-- svg-source:excalidraw --><metadata></metadata><defs><style class="style-fonts">
      </style></defs><rect x="0" y="0" width="385.050135719844" height="474.01870262217795" fill="#000000"></rect><g stroke-linecap="round" transform="translate(282.7932280429462 233.2366805984543) rotate(0 46.12845383844888 46.12845383844888)"><path d="M92.26 46.13 C92.26 48.32, 92.1 50.53, 91.79 52.69 C91.48 54.86, 91 57.02, 90.39 59.12 C89.77 61.22, 89 63.3, 88.09 65.29 C87.18 67.28, 86.12 69.23, 84.93 71.07 C83.75 72.91, 82.42 74.68, 80.99 76.34 C79.56 77.99, 77.99 79.56, 76.34 80.99 C74.68 82.42, 72.91 83.75, 71.07 84.93 C69.23 86.12, 67.28 87.18, 65.29 88.09 C63.3 89, 61.22 89.77, 59.12 90.39 C57.02 91, 54.86 91.48, 52.69 91.79 C50.53 92.1, 48.32 92.26, 46.13 92.26 C43.94 92.26, 41.73 92.1, 39.56 91.79 C37.4 91.48, 35.23 91, 33.13 90.39 C31.03 89.77, 28.96 89, 26.97 88.09 C24.98 87.18, 23.03 86.12, 21.19 84.93 C19.35 83.75, 17.57 82.42, 15.92 80.99 C14.27 79.56, 12.7 77.99, 11.27 76.34 C9.83 74.68, 8.51 72.91, 7.32 71.07 C6.14 69.23, 5.08 67.28, 4.17 65.29 C3.26 63.3, 2.49 61.22, 1.87 59.12 C1.25 57.02, 0.78 54.86, 0.47 52.69 C0.16 50.53, 0 48.32, 0 46.13 C0 43.94, 0.16 41.73, 0.47 39.56 C0.78 37.4, 1.25 35.23, 1.87 33.13 C2.49 31.03, 3.26 28.96, 4.17 26.97 C5.08 24.98, 6.14 23.03, 7.32 21.19 C8.51 19.35, 9.83 17.57, 11.27 15.92 C12.7 14.27, 14.27 12.7, 15.92 11.27 C17.57 9.83, 19.35 8.51, 21.19 7.32 C23.03 6.14, 24.98 5.08, 26.97 4.17 C28.96 3.26, 31.03 2.49, 33.13 1.87 C35.23 1.25, 37.4 0.78, 39.56 0.47 C41.73 0.16, 43.94 0, 46.13 0 C48.32 0, 50.53 0.16, 52.69 0.47 C54.86 0.78, 57.02 1.25, 59.12 1.87 C61.22 2.49, 63.3 3.26, 65.29 4.17 C67.28 5.08, 69.23 6.14, 71.07 7.32 C72.91 8.51, 74.68 9.83, 76.34 11.27 C77.99 12.7, 79.56 14.27, 80.99 15.92 C82.42 17.57, 83.75 19.35, 84.93 21.19 C86.12 23.03, 87.18 24.98, 88.09 26.97 C89 28.96, 89.77 31.03, 90.39 33.13 C91 35.23, 91.48 37.4, 91.79 39.56 C92.1 41.73, 92.18 45.03, 92.26 46.13 C92.34 47.22, 92.34 45.03, 92.26 46.13" stroke="#E1E1E1" stroke-width="4" fill="none"></path></g><g stroke-linecap="round"><g transform="translate(304.82550274684525 238.88805839568658) rotate(0 -128.3619482748918 55.698845750779384)"><path d="M0 0 C-2.2 -0.33, -5.38 -1.79, -13.18 -2 C-20.98 -2.21, -38.71 -0.33, -46.82 -1.27 C-54.92 -2.21, -58.12 -4.84, -61.8 -7.65 C-65.47 -10.46, -65.92 -14.21, -68.87 -18.12 C-71.83 -22.02, -76.26 -27.25, -79.55 -31.08 C-82.83 -34.91, -85.88 -40.65, -88.59 -41.12 C-91.3 -41.59, -92.99 -38.33, -95.78 -33.9 C-98.57 -29.47, -101.08 -22.66, -105.31 -14.55 C-109.54 -6.44, -117.52 7.98, -121.18 14.75 C-124.83 21.53, -127.37 22.19, -127.23 26.1 C-127.08 30.01, -125.08 32.18, -120.31 38.23 C-115.53 44.28, -105.83 54.18, -98.56 62.39 C-91.3 70.6, -81.72 81.47, -76.71 87.49 C-71.7 93.52, -71.18 91.22, -68.52 98.53 C-65.85 105.83, -63.84 117.93, -60.71 131.31 C-57.57 144.69, -52.15 167.26, -49.71 178.81 C-47.28 190.36, -45.8 194.7, -46.11 200.61 C-46.42 206.51, -48.16 210.4, -51.56 214.26 C-54.96 218.12, -61.37 222.36, -66.51 223.74 C-71.65 225.12, -77.72 224.32, -82.4 222.54 C-87.09 220.77, -91.86 217.67, -94.62 213.07 C-97.38 208.47, -96.5 205.39, -98.95 194.96 C-101.41 184.53, -106.7 162.69, -109.35 150.51 C-112 138.34, -112.56 128.66, -114.88 121.89 C-117.19 115.13, -118.58 115.61, -123.24 109.92 C-127.9 104.24, -137.55 93.59, -142.84 87.77 C-148.13 81.95, -152.67 75.11, -154.98 75 C-157.28 74.89, -156.52 80.47, -156.69 87.11 C-156.87 93.75, -156.02 106.54, -156.04 114.83 C-156.06 123.12, -155.11 131.1, -156.81 136.85 C-158.51 142.6, -156.55 140.09, -166.24 149.32 C-175.93 158.56, -201.04 180.33, -214.94 192.26 C-228.85 204.2, -240.85 215.48, -249.66 220.91 C-258.47 226.34, -262.18 225.08, -267.78 224.82 C-273.38 224.56, -278.89 222.62, -283.27 219.35 C-287.65 216.09, -292.57 210.28, -294.06 205.22 C-295.55 200.15, -294.84 194.53, -292.19 188.96 C-289.55 183.38, -284.93 178.27, -278.18 171.74 C-271.42 165.21, -260.68 157.29, -251.68 149.79 C-242.67 142.29, -230.89 132.61, -224.17 126.74 C-217.44 120.86, -213.68 119.88, -211.35 114.53 C-209.03 109.19, -210.3 107.11, -210.22 94.68 C-210.13 82.25, -210.94 52.23, -210.85 39.95 C-210.75 27.67, -211.39 28.56, -209.65 20.99 C-207.9 13.41, -204.55 4, -200.38 -5.49 C-196.21 -14.98, -189.38 -27.06, -184.64 -35.96 C-179.89 -44.85, -172.41 -54.85, -171.89 -58.88 C-171.38 -62.91, -176.53 -60.49, -181.56 -60.14 C-186.58 -59.78, -195.92 -57.83, -202.01 -56.76 C-208.11 -55.68, -213.96 -56.42, -218.15 -53.69 C-222.34 -50.95, -222.23 -47.52, -227.15 -40.34 C-232.07 -33.16, -242.49 -17.98, -247.67 -10.62 C-252.85 -3.26, -254.4 0.37, -258.22 3.81 C-262.05 7.26, -266.09 9.7, -270.61 10.06 C-275.14 10.42, -281.83 8.55, -285.38 5.96 C-288.93 3.37, -291.35 -0.87, -291.91 -5.48 C-292.47 -10.09, -292.76 -13.99, -288.75 -21.7 C-284.73 -29.41, -274.23 -42.54, -267.83 -51.76 C-261.42 -60.99, -254.97 -70.67, -250.32 -77.06 C-245.67 -83.44, -244.88 -86.71, -239.93 -90.07 C-234.97 -93.43, -228.25 -94.68, -220.59 -97.22 C-212.94 -99.76, -202.78 -102.74, -194.01 -105.3 C-185.24 -107.87, -176.99 -111.27, -167.97 -112.62 C-158.95 -113.97, -149.38 -113.33, -139.89 -113.42 C-130.4 -113.52, -118.64 -113.52, -111.03 -113.21 C-103.41 -112.9, -99.1 -113.19, -94.2 -111.58 C-89.3 -109.98, -85.35 -106.53, -81.63 -103.6 C-77.91 -100.68, -77.4 -101.66, -71.87 -94.04 C-66.35 -86.41, -54.36 -66.46, -48.48 -57.85 C-42.6 -49.24, -41.9 -45.14, -36.61 -42.38 C-31.32 -39.62, -24.46 -41.34, -16.72 -41.27 C-8.99 -41.21, 2.82 -42.23, 9.79 -41.98 C16.76 -41.72, 21.03 -41.39, 25.12 -39.73 C29.22 -38.07, 32.32 -35.04, 34.36 -31.99 C36.39 -28.94, 37.37 -25.15, 37.34 -21.41 C37.3 -17.66, 35.03 -12.25, 34.16 -9.52 C33.29 -6.79, 32.46 -5.77, 32.12 -5.02 M0 0 C-2.2 -0.33, -5.38 -1.79, -13.18 -2 C-20.98 -2.21, -38.71 -0.33, -46.82 -1.27 C-54.92 -2.21, -58.12 -4.84, -61.8 -7.65 C-65.47 -10.46, -65.92 -14.21, -68.87 -18.12 C-71.83 -22.02, -76.26 -27.25, -79.55 -31.08 C-82.83 -34.91, -85.88 -40.65, -88.59 -41.12 C-91.3 -41.59, -92.99 -38.33, -95.78 -33.9 C-98.57 -29.47, -101.08 -22.66, -105.31 -14.55 C-109.54 -6.44, -117.52 7.98, -121.18 14.75 C-124.83 21.53, -127.37 22.19, -127.23 26.1 C-127.08 30.01, -125.08 32.18, -120.31 38.23 C-115.53 44.28, -105.83 54.18, -98.56 62.39 C-91.3 70.6, -81.72 81.47, -76.71 87.49 C-71.7 93.52, -71.18 91.22, -68.52 98.53 C-65.85 105.83, -63.84 117.93, -60.71 131.31 C-57.57 144.69, -52.15 167.26, -49.71 178.81 C-47.28 190.36, -45.8 194.7, -46.11 200.61 C-46.42 206.51, -48.16 210.4, -51.56 214.26 C-54.96 218.12, -61.37 222.36, -66.51 223.74 C-71.65 225.12, -77.72 224.32, -82.4 222.54 C-87.09 220.77, -91.86 217.67, -94.62 213.07 C-97.38 208.47, -96.5 205.39, -98.95 194.96 C-101.41 184.53, -106.7 162.69, -109.35 150.51 C-112 138.34, -112.56 128.66, -114.88 121.89 C-117.19 115.13, -118.58 115.61, -123.24 109.92 C-127.9 104.24, -137.55 93.59, -142.84 87.77 C-148.13 81.95, -152.67 75.11, -154.98 75 C-157.28 74.89, -156.52 80.47, -156.69 87.11 C-156.87 93.75, -156.02 106.54, -156.04 114.83 C-156.06 123.12, -155.11 131.1, -156.81 136.85 C-158.51 142.6, -156.55 140.09, -166.24 149.32 C-175.93 158.56, -201.04 180.33, -214.94 192.26 C-228.85 204.2, -240.85 215.48, -249.66 220.91 C-258.47 226.34, -262.18 225.08, -267.78 224.82 C-273.38 224.56, -278.89 222.62, -283.27 219.35 C-287.65 216.09, -292.57 210.28, -294.06 205.22 C-295.55 200.15, -294.84 194.53, -292.19 188.96 C-289.55 183.38, -284.93 178.27, -278.18 171.74 C-271.42 165.21, -260.68 157.29, -251.68 149.79 C-242.67 142.29, -230.89 132.61, -224.17 126.74 C-217.44 120.86, -213.68 119.88, -211.35 114.53 C-209.03 109.19, -210.3 107.11, -210.22 94.68 C-210.13 82.25, -210.94 52.23, -210.85 39.95 C-210.75 27.67, -211.39 28.56, -209.65 20.99 C-207.9 13.41, -204.55 4, -200.38 -5.49 C-196.21 -14.98, -189.38 -27.06, -184.64 -35.96 C-179.89 -44.85, -172.41 -54.85, -171.89 -58.88 C-171.38 -62.91, -176.53 -60.49, -181.56 -60.14 C-186.58 -59.78, -195.92 -57.83, -202.01 -56.76 C-208.11 -55.68, -213.96 -56.42, -218.15 -53.69 C-222.34 -50.95, -222.23 -47.52, -227.15 -40.34 C-232.07 -33.16, -242.49 -17.98, -247.67 -10.62 C-252.85 -3.26, -254.4 0.37, -258.22 3.81 C-262.05 7.26, -266.09 9.7, -270.61 10.06 C-275.14 10.42, -281.83 8.55, -285.38 5.96 C-288.93 3.37, -291.35 -0.87, -291.91 -5.48 C-292.47 -10.09, -292.76 -13.99, -288.75 -21.7 C-284.73 -29.41, -274.23 -42.54, -267.83 -51.76 C-261.42 -60.99, -254.97 -70.67, -250.32 -77.06 C-245.67 -83.44, -244.88 -86.71, -239.93 -90.07 C-234.97 -93.43, -228.25 -94.68, -220.59 -97.22 C-212.94 -99.76, -202.78 -102.74, -194.01 -105.3 C-185.24 -107.87, -176.99 -111.27, -167.97 -112.62 C-158.95 -113.97, -149.38 -113.33, -139.89 -113.42 C-130.4 -113.52, -118.64 -113.52, -111.03 -113.21 C-103.41 -112.9, -99.1 -113.19, -94.2 -111.58 C-89.3 -109.98, -85.35 -106.53, -81.63 -103.6 C-77.91 -100.68, -77.4 -101.66, -71.87 -94.04 C-66.35 -86.41, -54.36 -66.46, -48.48 -57.85 C-42.6 -49.24, -41.9 -45.14, -36.61 -42.38 C-31.32 -39.62, -24.46 -41.34, -16.72 -41.27 C-8.99 -41.21, 2.82 -42.23, 9.79 -41.98 C16.76 -41.72, 21.03 -41.39, 25.12 -39.73 C29.22 -38.07, 32.32 -35.04, 34.36 -31.99 C36.39 -28.94, 37.37 -25.15, 37.34 -21.41 C37.3 -17.66, 35.03 -12.25, 34.16 -9.52 C33.29 -6.79, 32.46 -5.77, 32.12 -5.02" stroke="#E1E1E1" stroke-width="4" fill="none"></path></g></g><mask></mask><g stroke-linecap="round" transform="translate(182.6640054456269 10) rotate(0 45.11050842037787 45.11050842037787)"><path d="M90.22 45.11 C90.22 47.25, 90.07 49.41, 89.76 51.53 C89.46 53.65, 89 55.77, 88.39 57.82 C87.79 59.87, 87.03 61.9, 86.14 63.85 C85.26 65.8, 84.22 67.7, 83.06 69.5 C81.9 71.3, 80.6 73.03, 79.2 74.65 C77.8 76.27, 76.27 77.8, 74.65 79.2 C73.03 80.6, 71.3 81.9, 69.5 83.06 C67.7 84.22, 65.8 85.26, 63.85 86.14 C61.9 87.03, 59.87 87.79, 57.82 88.39 C55.77 89, 53.65 89.46, 51.53 89.76 C49.41 90.07, 47.25 90.22, 45.11 90.22 C42.97 90.22, 40.81 90.07, 38.69 89.76 C36.57 89.46, 34.45 89, 32.4 88.39 C30.35 87.79, 28.32 87.03, 26.37 86.14 C24.42 85.26, 22.52 84.22, 20.72 83.06 C18.92 81.9, 17.19 80.6, 15.57 79.2 C13.95 77.8, 12.42 76.27, 11.02 74.65 C9.62 73.03, 8.32 71.3, 7.16 69.5 C6 67.7, 4.97 65.8, 4.08 63.85 C3.19 61.9, 2.43 59.87, 1.83 57.82 C1.22 55.77, 0.76 53.65, 0.46 51.53 C0.15 49.41, 0 47.25, 0 45.11 C0 42.97, 0.15 40.81, 0.46 38.69 C0.76 36.57, 1.22 34.45, 1.83 32.4 C2.43 30.35, 3.19 28.32, 4.08 26.37 C4.97 24.42, 6 22.52, 7.16 20.72 C8.32 18.92, 9.62 17.19, 11.02 15.57 C12.42 13.95, 13.95 12.42, 15.57 11.02 C17.19 9.62, 18.92 8.32, 20.72 7.16 C22.52 6, 24.42 4.97, 26.37 4.08 C28.32 3.19, 30.35 2.43, 32.4 1.83 C34.45 1.22, 36.57 0.76, 38.69 0.46 C40.81 0.15, 42.97 0, 45.11 0 C47.25 0, 49.41 0.15, 51.53 0.46 C53.65 0.76, 55.77 1.22, 57.82 1.83 C59.87 2.43, 61.9 3.19, 63.85 4.08 C65.8 4.97, 67.7 6, 69.5 7.16 C71.3 8.32, 73.03 9.62, 74.65 11.02 C76.27 12.42, 77.8 13.95, 79.2 15.57 C80.6 17.19, 81.9 18.92, 83.06 20.72 C84.22 22.52, 85.26 24.42, 86.14 26.37 C87.03 28.32, 87.79 30.35, 88.39 32.4 C89 34.45, 89.46 36.57, 89.76 38.69 C90.07 40.81, 90.14 44.04, 90.22 45.11 C90.3 46.18, 90.3 44.04, 90.22 45.11" stroke="#E1E1E1" stroke-width="4" fill="none"></path></g></svg>