<svg version="1.1" xmlns="http://www.w3.org/2000/svg" viewBox="0 0 2097.1145472217686 1200.3033003951" width="2097.1145472217686" height="1200.3033003951" class="excalidraw-svg"><!-- svg-source:excalidraw --><metadata></metadata><defs><style class="style-fonts">
      </style></defs><rect x="0" y="0" width="2097.1145472217686" height="1200.3033003951" fill="#000000"></rect><g stroke-linecap="round"><g transform="translate(10 1053.971938079828) rotate(0 788.8554124930982 -434.9560189186675)"><path d="M0 0 C41.4 -0.09, 167.36 -0.8, 248.42 -0.53 C329.48 -0.26, 421.25 1.24, 486.34 1.6 C551.44 1.95, 568.79 1.6, 639 1.6 C709.22 1.6, 845.49 1.63, 907.63 1.6 C969.77 1.57, 984.93 1.84, 1011.84 1.41 C1038.75 0.99, 1050.68 2.31, 1069.09 -0.95 C1087.5 -4.21, 1108.68 -11.7, 1122.3 -18.15 C1135.92 -24.6, 1141.71 -30.77, 1150.79 -39.65 C1159.87 -48.53, 1169.86 -60.24, 1176.8 -71.43 C1183.74 -82.62, 1189.21 -95.39, 1192.43 -106.81 C1195.64 -118.22, 1196.31 -131.4, 1196.08 -139.93 C1195.86 -148.45, 1193.28 -154.17, 1191.08 -157.96 C1188.89 -161.74, 1186.4 -162.23, 1182.9 -162.64 C1179.4 -163.05, 1174.21 -162.11, 1170.09 -160.43 C1165.98 -158.75, 1161.15 -155.82, 1158.23 -152.59 C1155.3 -149.35, 1152.87 -144.25, 1152.53 -141.04 C1152.18 -137.84, 1153.7 -135.44, 1156.15 -133.34 C1158.61 -131.24, 1162.06 -129.82, 1167.27 -128.44 C1172.48 -127.06, 1181.44 -126.5, 1187.42 -125.07 C1193.4 -123.64, 1199.32 -122.87, 1203.15 -119.87 C1206.97 -116.86, 1209.83 -112.75, 1210.38 -107.04 C1210.93 -101.34, 1209.5 -93.94, 1206.44 -85.65 C1203.39 -77.36, 1198.09 -67.74, 1192.03 -57.28 C1185.98 -46.82, 1177.51 -34.29, 1170.1 -22.9 C1162.68 -11.5, 1152.82 2.25, 1147.54 11.09 C1142.26 19.93, 1140.3 24.63, 1138.43 30.14 C1136.56 35.66, 1138.24 39.38, 1136.32 44.19 C1134.4 49, 1132.35 53.3, 1126.94 59.01 C1121.52 64.71, 1112.21 73.33, 1103.83 78.41 C1095.45 83.49, 1085.73 86.82, 1076.67 89.49 C1067.6 92.16, 1059.22 94.89, 1049.41 94.41 C1039.61 93.93, 1028.19 91.33, 1017.81 86.6 C1007.44 81.87, 998.23 75.1, 987.17 66.02 C976.1 56.95, 962.39 46.1, 951.41 32.16 C940.44 18.23, 929.05 -2.24, 921.33 -17.59 C913.61 -32.94, 909.05 -46.2, 905.08 -59.96 C901.1 -73.71, 898.78 -85.47, 897.49 -100.12 C896.2 -114.78, 895.86 -133.84, 897.35 -147.9 C898.85 -161.96, 901.05 -172.22, 906.44 -184.5 C911.83 -196.79, 923.17 -212.39, 929.68 -221.61 C936.19 -230.82, 940.7 -236.08, 945.53 -239.77 C950.36 -243.47, 954.39 -244.66, 958.65 -243.77 C962.91 -242.89, 966.95 -238.79, 971.1 -234.45 C975.26 -230.1, 979.97 -224.01, 983.59 -217.69 C987.21 -211.37, 990.65 -203.61, 992.81 -196.52 C994.98 -189.43, 996.51 -182.75, 996.56 -175.14 C996.61 -167.53, 996.79 -158.41, 993.12 -150.87 C989.45 -143.33, 980.89 -137.73, 974.56 -129.89 C968.22 -122.05, 960.52 -112.87, 955.1 -103.83 C949.69 -94.79, 945 -84.4, 942.05 -75.65 C939.1 -66.89, 937.36 -58.28, 937.4 -51.29 C937.44 -44.3, 938.44 -39.37, 942.31 -33.72 C946.17 -28.08, 952.77 -22.05, 960.6 -17.43 C968.43 -12.81, 978.32 -8.21, 989.29 -6 C1000.27 -3.79, 1013.59 -3, 1026.44 -4.17 C1039.3 -5.33, 1053.12 -7.48, 1066.41 -12.98 C1079.71 -18.49, 1092.95 -27.28, 1106.21 -37.19 C1119.47 -47.1, 1135.64 -62.56, 1145.99 -72.44 C1156.34 -82.32, 1162.78 -90.02, 1168.29 -96.48 C1173.8 -102.94, 1175.38 -108.93, 1179.05 -111.22 C1182.72 -113.51, 1187.59 -112.48, 1190.3 -110.22 C1193.01 -107.95, 1195.5 -104.06, 1195.31 -97.63 C1195.11 -91.19, 1193.66 -81.67, 1189.13 -71.62 C1184.59 -61.57, 1175.71 -48.72, 1168.08 -37.33 C1160.44 -25.93, 1150.15 -11.67, 1143.31 -3.23 C1136.47 5.21, 1132.48 10.19, 1127.04 13.32 C1121.59 16.45, 1116.26 15.58, 1110.65 15.57 C1105.04 15.56, 1100.5 15.29, 1093.38 13.26 C1086.25 11.22, 1078.14 8.31, 1067.9 3.36 C1057.65 -1.6, 1041.25 -10.2, 1031.92 -16.46 C1022.59 -22.73, 1018.55 -27.56, 1011.92 -34.25 C1005.29 -40.95, 999.38 -44.86, 992.15 -56.63 C984.92 -68.4, 974.15 -90.88, 968.54 -104.86 C962.94 -118.84, 960.87 -129.54, 958.53 -140.48 C956.18 -151.43, 953.89 -160.09, 954.5 -170.52 C955.11 -180.95, 957.95 -195.47, 962.17 -203.07 C966.39 -210.66, 975.1 -214.33, 979.8 -216.09 C984.5 -217.86, 986.86 -216.32, 990.36 -213.64 C993.87 -210.96, 997.88 -204.88, 1000.82 -200.01 C1003.75 -195.14, 1004.91 -189.12, 1007.96 -184.4 C1011.01 -179.68, 1010.4 -177.05, 1019.11 -171.7 C1027.83 -166.35, 1045.82 -154.86, 1060.24 -152.32 C1074.67 -149.78, 1094.35 -151.93, 1105.64 -156.44 C1116.93 -160.95, 1124.68 -168.5, 1128.01 -179.38 C1131.33 -190.26, 1127.59 -209.01, 1125.59 -221.73 C1123.58 -234.44, 1120.46 -242.44, 1115.97 -255.68 C1111.49 -268.91, 1105.12 -286.44, 1098.68 -301.16 C1092.23 -315.88, 1083.35 -332.6, 1077.29 -344 C1071.23 -355.4, 1067.62 -360.52, 1062.33 -369.57 C1057.03 -378.62, 1050.85 -389.82, 1045.53 -398.32 C1040.21 -406.83, 1032.38 -419.91, 1030.43 -420.6 C1028.49 -421.29, 1031.09 -411.86, 1033.86 -402.47 C1036.63 -393.08, 1041.33 -376.54, 1047.05 -364.26 C1052.78 -351.98, 1060.56 -340.48, 1068.2 -328.81 C1075.85 -317.15, 1084.73 -305.84, 1092.93 -294.26 C1101.14 -282.68, 1110.94 -269.17, 1117.43 -259.31 C1123.93 -249.45, 1128.63 -243.68, 1131.92 -235.1 C1135.2 -226.53, 1138.83 -217.87, 1137.14 -207.87 C1135.45 -197.87, 1127.35 -182.53, 1121.78 -175.11 C1116.21 -167.69, 1110.58 -166.54, 1103.72 -163.35 C1096.87 -160.15, 1089.55 -156.25, 1080.65 -155.95 C1071.74 -155.64, 1059.53 -157.34, 1050.29 -161.53 C1041.05 -165.72, 1032.82 -172.2, 1025.21 -181.07 C1017.6 -189.94, 1012.17 -200.88, 1004.64 -214.76 C997.11 -228.64, 987.03 -248.95, 980.02 -264.37 C973.02 -279.8, 969.92 -289.09, 962.59 -307.32 C955.27 -325.56, 943.11 -353.77, 936.05 -373.76 C928.99 -393.76, 925.06 -406.71, 920.25 -427.3 C915.43 -447.9, 911.75 -475.15, 907.14 -497.33 C902.54 -519.52, 897.5 -541.12, 892.59 -560.41 C887.68 -579.7, 880.86 -601.17, 877.68 -613.08 C874.51 -624.99, 874.03 -626.02, 873.54 -631.87 C873.05 -637.72, 872.04 -640.58, 874.74 -648.18 C877.45 -655.77, 885.2 -667.72, 889.77 -677.44 C894.35 -687.17, 899.19 -698.78, 902.2 -706.51 C905.22 -714.25, 905.69 -712.3, 907.87 -723.85 C910.06 -735.4, 912.93 -760.28, 915.3 -775.82 C917.66 -791.36, 919.87 -804.3, 922.06 -817.09 C924.25 -829.87, 927 -842.06, 928.44 -852.52 C929.89 -862.99, 930.49 -869.73, 930.74 -879.89 C930.99 -890.05, 929.59 -905, 929.95 -913.49 C930.31 -921.99, 931.42 -926.69, 932.88 -930.86 C934.35 -935.03, 936.06 -937.42, 938.75 -938.53 C941.44 -939.64, 945.44 -939.28, 949.02 -937.53 C952.61 -935.78, 957.67 -932.67, 960.28 -928 C962.89 -923.34, 963.01 -918.06, 964.67 -909.56 C966.33 -901.06, 968.64 -888.62, 970.23 -876.99 C971.83 -865.37, 973.18 -848.76, 974.22 -839.81 C975.27 -830.86, 977.17 -828.76, 976.53 -823.29 C975.89 -817.82, 972.12 -812.55, 970.37 -806.99 C968.63 -801.42, 966.69 -796.7, 966.06 -789.91 C965.43 -783.12, 964.98 -776.85, 966.59 -766.25 C968.19 -755.65, 973.33 -738.29, 975.71 -726.29 C978.09 -714.29, 979.38 -706.23, 980.86 -694.26 C982.35 -682.3, 983.05 -668.18, 984.63 -654.52 C986.2 -640.87, 987.03 -624.62, 990.33 -612.34 C993.63 -600.05, 1000.09 -588.31, 1004.44 -580.84 C1008.78 -573.36, 1013.67 -568.05, 1016.4 -567.47 C1019.14 -566.89, 1020.81 -573.41, 1020.87 -577.34 C1020.92 -581.27, 1019.41 -586.39, 1016.73 -591.06 C1014.05 -595.73, 1008.1 -600.98, 1004.8 -605.34 C1001.5 -609.7, 999.09 -610.16, 996.94 -617.23 C994.79 -624.29, 994.01 -637.55, 991.92 -647.72 C989.82 -657.9, 985.15 -670.72, 984.37 -678.3 C983.58 -685.87, 985.05 -693.98, 987.2 -693.15 C989.36 -692.32, 991.43 -685.76, 997.3 -673.3 C1003.17 -660.84, 1015.06 -635.28, 1022.43 -618.37 C1029.79 -601.47, 1036.85 -586.72, 1041.5 -571.86 C1046.14 -557.01, 1047.7 -546.34, 1050.3 -529.24 C1052.91 -512.14, 1054.21 -489.51, 1057.13 -469.27 C1060.05 -449.03, 1062.13 -430.5, 1067.82 -407.8 C1073.5 -385.1, 1083.09 -353.46, 1091.25 -333.07 C1099.41 -312.68, 1107.52 -300.73, 1116.79 -285.47 C1126.05 -270.22, 1133.89 -258.93, 1146.85 -241.52 C1159.8 -224.12, 1180.66 -198.18, 1194.51 -181.06 C1208.36 -163.95, 1220.96 -151.66, 1229.96 -138.83 C1238.95 -126, 1241.71 -117.32, 1248.48 -104.08 C1255.25 -90.83, 1264.92 -74.84, 1270.57 -59.36 C1276.23 -43.87, 1279.71 -27.77, 1282.41 -11.16 C1285.11 5.45, 1287.32 27.76, 1286.78 40.3 C1286.23 52.84, 1284.67 59.04, 1279.13 64.07 C1273.58 69.1, 1262.66 70.45, 1253.51 70.48 C1244.36 70.52, 1232.85 65.59, 1224.22 64.29 C1215.59 62.99, 1206.65 61.65, 1201.73 62.69 C1196.81 63.73, 1194.51 66.06, 1194.71 70.52 C1194.91 74.99, 1199.15 82.58, 1202.92 89.5 C1206.7 96.41, 1210.21 105.11, 1217.35 112 C1224.5 118.9, 1235.34 126.85, 1245.8 130.88 C1256.26 134.91, 1267.17 136.92, 1280.1 136.18 C1293.02 135.45, 1310.76 130.55, 1323.36 126.48 C1335.96 122.41, 1344.78 120.4, 1355.69 111.77 C1366.6 103.13, 1378.49 88.64, 1388.81 74.67 C1399.12 60.71, 1408.34 43.28, 1417.58 27.97 C1426.81 12.66, 1435.23 0.02, 1444.22 -17.2 C1453.21 -34.42, 1462.24 -55.6, 1471.54 -75.36 C1480.83 -95.12, 1492.02 -119.2, 1499.99 -135.77 C1507.96 -152.35, 1513.33 -163.73, 1519.35 -174.81 C1525.38 -185.89, 1530.89 -196.86, 1536.14 -202.28 C1541.38 -207.69, 1545.84 -207.63, 1550.81 -207.3 C1555.78 -206.98, 1561.52 -203.75, 1565.97 -200.34 C1570.42 -196.93, 1575.56 -190.63, 1577.51 -186.85 C1579.47 -183.07, 1579.07 -179.56, 1577.71 -177.63 C1576.35 -175.7, 1573.57 -174.19, 1569.36 -175.27 C1565.14 -176.36, 1559.24 -179.61, 1552.43 -184.14 C1545.62 -188.66, 1535.91 -196.82, 1528.48 -202.43 C1521.04 -208.05, 1515.08 -213.74, 1507.84 -217.83 C1500.6 -221.91, 1492.2 -224.22, 1485.06 -226.96 C1477.91 -229.7, 1469.6 -230.59, 1464.97 -234.28 C1460.34 -237.98, 1459.41 -244.67, 1457.28 -249.14 C1455.15 -253.62, 1454.14 -258.26, 1452.19 -261.14 C1450.24 -264.02, 1449.32 -258.82, 1445.57 -266.44 C1441.82 -274.06, 1434.29 -292.25, 1429.7 -306.86 C1425.12 -321.47, 1421.84 -337.53, 1418.07 -354.09 C1414.3 -370.65, 1410.48 -387.69, 1407.09 -406.24 C1403.7 -424.78, 1400.18 -447.11, 1397.74 -465.34 C1395.3 -483.57, 1393.77 -503.1, 1392.46 -515.61 C1391.15 -528.12, 1392.13 -529.34, 1389.86 -540.4 C1387.6 -551.46, 1384.41 -565.28, 1378.86 -581.96 C1373.3 -598.63, 1363.78 -622.52, 1356.53 -640.43 C1349.28 -658.33, 1342.79 -673.48, 1335.37 -689.39 C1327.94 -705.3, 1319.97 -720.62, 1311.98 -735.87 C1303.99 -751.13, 1292.9 -770.03, 1287.43 -780.93 C1281.96 -791.83, 1281.16 -794.47, 1279.16 -801.27 C1277.16 -808.07, 1276.87 -813.62, 1275.42 -821.73 C1273.97 -829.83, 1271.94 -843.76, 1270.45 -849.91 C1268.97 -856.05, 1269.14 -856.55, 1266.51 -858.59 C1263.88 -860.63, 1258.88 -862.54, 1254.67 -862.15 C1250.47 -861.75, 1245.8 -860.93, 1241.29 -856.22 C1236.79 -851.51, 1230.82 -841.43, 1227.65 -833.89 C1224.48 -826.34, 1222.53 -819.23, 1222.27 -810.95 C1222.02 -802.67, 1222.92 -792.42, 1226.13 -784.19 C1229.34 -775.96, 1236.44 -768.39, 1241.55 -761.59 C1246.66 -754.78, 1251.54 -750.04, 1256.79 -743.36 C1262.03 -736.69, 1267.98 -728.29, 1273.03 -721.54 C1278.09 -714.79, 1283.07 -709.86, 1287.13 -702.88 C1291.18 -695.91, 1295.24 -686.41, 1297.37 -679.69 C1299.5 -672.98, 1301.16 -661.64, 1299.92 -662.6 C1298.67 -663.56, 1294.78 -676.15, 1289.92 -685.46 C1285.05 -694.76, 1277.71 -708.45, 1270.74 -718.44 C1263.76 -728.42, 1255.73 -735.71, 1248.08 -745.37 C1240.44 -755.03, 1231.74 -765.71, 1224.85 -776.41 C1217.97 -787.11, 1213.89 -796.54, 1206.78 -809.57 C1199.67 -822.6, 1190.45 -839.88, 1182.19 -854.6 C1173.93 -869.33, 1166.72 -882.97, 1157.2 -897.92 C1147.69 -912.88, 1135.57 -930.89, 1125.09 -944.34 C1114.62 -957.8, 1102.96 -969.81, 1094.36 -978.66 C1085.77 -987.5, 1079.76 -992.84, 1073.5 -997.41 C1067.25 -1001.98, 1060.06 -1005.73, 1056.83 -1006.09 C1053.61 -1006.46, 1052.98 -1003.69, 1054.17 -999.59 C1055.36 -995.49, 1060.63 -986.65, 1063.98 -981.49 C1067.33 -976.34, 1070.84 -970.54, 1074.25 -968.67 C1077.66 -966.8, 1082.18 -967.91, 1084.43 -970.27 C1086.69 -972.64, 1087.22 -980.76, 1087.77 -982.86 M0 0 C41.4 -0.09, 167.36 -0.8, 248.42 -0.53 C329.48 -0.26, 421.25 1.24, 486.34 1.6 C551.44 1.95, 568.79 1.6, 639 1.6 C709.22 1.6, 845.49 1.63, 907.63 1.6 C969.77 1.57, 984.93 1.84, 1011.84 1.41 C1038.75 0.99, 1050.68 2.31, 1069.09 -0.95 C1087.5 -4.21, 1108.68 -11.7, 1122.3 -18.15 C1135.92 -24.6, 1141.71 -30.77, 1150.79 -39.65 C1159.87 -48.53, 1169.86 -60.24, 1176.8 -71.43 C1183.74 -82.62, 1189.21 -95.39, 1192.43 -106.81 C1195.64 -118.22, 1196.31 -131.4, 1196.08 -139.93 C1195.86 -148.45, 1193.28 -154.17, 1191.08 -157.96 C1188.89 -161.74, 1186.4 -162.23, 1182.9 -162.64 C1179.4 -163.05, 1174.21 -162.11, 1170.09 -160.43 C1165.98 -158.75, 1161.15 -155.82, 1158.23 -152.59 C1155.3 -149.35, 1152.87 -144.25, 1152.53 -141.04 C1152.18 -137.84, 1153.7 -135.44, 1156.15 -133.34 C1158.61 -131.24, 1162.06 -129.82, 1167.27 -128.44 C1172.48 -127.06, 1181.44 -126.5, 1187.42 -125.07 C1193.4 -123.64, 1199.32 -122.87, 1203.15 -119.87 C1206.97 -116.86, 1209.83 -112.75, 1210.38 -107.04 C1210.93 -101.34, 1209.5 -93.94, 1206.44 -85.65 C1203.39 -77.36, 1198.09 -67.74, 1192.03 -57.28 C1185.98 -46.82, 1177.51 -34.29, 1170.1 -22.9 C1162.68 -11.5, 1152.82 2.25, 1147.54 11.09 C1142.26 19.93, 1140.3 24.63, 1138.43 30.14 C1136.56 35.66, 1138.24 39.38, 1136.32 44.19 C1134.4 49, 1132.35 53.3, 1126.94 59.01 C1121.52 64.71, 1112.21 73.33, 1103.83 78.41 C1095.45 83.49, 1085.73 86.82, 1076.67 89.49 C1067.6 92.16, 1059.22 94.89, 1049.41 94.41 C1039.61 93.93, 1028.19 91.33, 1017.81 86.6 C1007.44 81.87, 998.23 75.1, 987.17 66.02 C976.1 56.95, 962.39 46.1, 951.41 32.16 C940.44 18.23, 929.05 -2.24, 921.33 -17.59 C913.61 -32.94, 909.05 -46.2, 905.08 -59.96 C901.1 -73.71, 898.78 -85.47, 897.49 -100.12 C896.2 -114.78, 895.86 -133.84, 897.35 -147.9 C898.85 -161.96, 901.05 -172.22, 906.44 -184.5 C911.83 -196.79, 923.17 -212.39, 929.68 -221.61 C936.19 -230.82, 940.7 -236.08, 945.53 -239.77 C950.36 -243.47, 954.39 -244.66, 958.65 -243.77 C962.91 -242.89, 966.95 -238.79, 971.1 -234.45 C975.26 -230.1, 979.97 -224.01, 983.59 -217.69 C987.21 -211.37, 990.65 -203.61, 992.81 -196.52 C994.98 -189.43, 996.51 -182.75, 996.56 -175.14 C996.61 -167.53, 996.79 -158.41, 993.12 -150.87 C989.45 -143.33, 980.89 -137.73, 974.56 -129.89 C968.22 -122.05, 960.52 -112.87, 955.1 -103.83 C949.69 -94.79, 945 -84.4, 942.05 -75.65 C939.1 -66.89, 937.36 -58.28, 937.4 -51.29 C937.44 -44.3, 938.44 -39.37, 942.31 -33.72 C946.17 -28.08, 952.77 -22.05, 960.6 -17.43 C968.43 -12.81, 978.32 -8.21, 989.29 -6 C1000.27 -3.79, 1013.59 -3, 1026.44 -4.17 C1039.3 -5.33, 1053.12 -7.48, 1066.41 -12.98 C1079.71 -18.49, 1092.95 -27.28, 1106.21 -37.19 C1119.47 -47.1, 1135.64 -62.56, 1145.99 -72.44 C1156.34 -82.32, 1162.78 -90.02, 1168.29 -96.48 C1173.8 -102.94, 1175.38 -108.93, 1179.05 -111.22 C1182.72 -113.51, 1187.59 -112.48, 1190.3 -110.22 C1193.01 -107.95, 1195.5 -104.06, 1195.31 -97.63 C1195.11 -91.19, 1193.66 -81.67, 1189.13 -71.62 C1184.59 -61.57, 1175.71 -48.72, 1168.08 -37.33 C1160.44 -25.93, 1150.15 -11.67, 1143.31 -3.23 C1136.47 5.21, 1132.48 10.19, 1127.04 13.32 C1121.59 16.45, 1116.26 15.58, 1110.65 15.57 C1105.04 15.56, 1100.5 15.29, 1093.38 13.26 C1086.25 11.22, 1078.14 8.31, 1067.9 3.36 C1057.65 -1.6, 1041.25 -10.2, 1031.92 -16.46 C1022.59 -22.73, 1018.55 -27.56, 1011.92 -34.25 C1005.29 -40.95, 999.38 -44.86, 992.15 -56.63 C984.92 -68.4, 974.15 -90.88, 968.54 -104.86 C962.94 -118.84, 960.87 -129.54, 958.53 -140.48 C956.18 -151.43, 953.89 -160.09, 954.5 -170.52 C955.11 -180.95, 957.95 -195.47, 962.17 -203.07 C966.39 -210.66, 975.1 -214.33, 979.8 -216.09 C984.5 -217.86, 986.86 -216.32, 990.36 -213.64 C993.87 -210.96, 997.88 -204.88, 1000.82 -200.01 C1003.75 -195.14, 1004.91 -189.12, 1007.96 -184.4 C1011.01 -179.68, 1010.4 -177.05, 1019.11 -171.7 C1027.83 -166.35, 1045.82 -154.86, 1060.24 -152.32 C1074.67 -149.78, 1094.35 -151.93, 1105.64 -156.44 C1116.93 -160.95, 1124.68 -168.5, 1128.01 -179.38 C1131.33 -190.26, 1127.59 -209.01, 1125.59 -221.73 C1123.58 -234.44, 1120.46 -242.44, 1115.97 -255.68 C1111.49 -268.91, 1105.12 -286.44, 1098.68 -301.16 C1092.23 -315.88, 1083.35 -332.6, 1077.29 -344 C1071.23 -355.4, 1067.62 -360.52, 1062.33 -369.57 C1057.03 -378.62, 1050.85 -389.82, 1045.53 -398.32 C1040.21 -406.83, 1032.38 -419.91, 1030.43 -420.6 C1028.49 -421.29, 1031.09 -411.86, 1033.86 -402.47 C1036.63 -393.08, 1041.33 -376.54, 1047.05 -364.26 C1052.78 -351.98, 1060.56 -340.48, 1068.2 -328.81 C1075.85 -317.15, 1084.73 -305.84, 1092.93 -294.26 C1101.14 -282.68, 1110.94 -269.17, 1117.43 -259.31 C1123.93 -249.45, 1128.63 -243.68, 1131.92 -235.1 C1135.2 -226.53, 1138.83 -217.87, 1137.14 -207.87 C1135.45 -197.87, 1127.35 -182.53, 1121.78 -175.11 C1116.21 -167.69, 1110.58 -166.54, 1103.72 -163.35 C1096.87 -160.15, 1089.55 -156.25, 1080.65 -155.95 C1071.74 -155.64, 1059.53 -157.34, 1050.29 -161.53 C1041.05 -165.72, 1032.82 -172.2, 1025.21 -181.07 C1017.6 -189.94, 1012.17 -200.88, 1004.64 -214.76 C997.11 -228.64, 987.03 -248.95, 980.02 -264.37 C973.02 -279.8, 969.92 -289.09, 962.59 -307.32 C955.27 -325.56, 943.11 -353.77, 936.05 -373.76 C928.99 -393.76, 925.06 -406.71, 920.25 -427.3 C915.43 -447.9, 911.75 -475.15, 907.14 -497.33 C902.54 -519.52, 897.5 -541.12, 892.59 -560.41 C887.68 -579.7, 880.86 -601.17, 877.68 -613.08 C874.51 -624.99, 874.03 -626.02, 873.54 -631.87 C873.05 -637.72, 872.04 -640.58, 874.74 -648.18 C877.45 -655.77, 885.2 -667.72, 889.77 -677.44 C894.35 -687.17, 899.19 -698.78, 902.2 -706.51 C905.22 -714.25, 905.69 -712.3, 907.87 -723.85 C910.06 -735.4, 912.93 -760.28, 915.3 -775.82 C917.66 -791.36, 919.87 -804.3, 922.06 -817.09 C924.25 -829.87, 927 -842.06, 928.44 -852.52 C929.89 -862.99, 930.49 -869.73, 930.74 -879.89 C930.99 -890.05, 929.59 -905, 929.95 -913.49 C930.31 -921.99, 931.42 -926.69, 932.88 -930.86 C934.35 -935.03, 936.06 -937.42, 938.75 -938.53 C941.44 -939.64, 945.44 -939.28, 949.02 -937.53 C952.61 -935.78, 957.67 -932.67, 960.28 -928 C962.89 -923.34, 963.01 -918.06, 964.67 -909.56 C966.33 -901.06, 968.64 -888.62, 970.23 -876.99 C971.83 -865.37, 973.18 -848.76, 974.22 -839.81 C975.27 -830.86, 977.17 -828.76, 976.53 -823.29 C975.89 -817.82, 972.12 -812.55, 970.37 -806.99 C968.63 -801.42, 966.69 -796.7, 966.06 -789.91 C965.43 -783.12, 964.98 -776.85, 966.59 -766.25 C968.19 -755.65, 973.33 -738.29, 975.71 -726.29 C978.09 -714.29, 979.38 -706.23, 980.86 -694.26 C982.35 -682.3, 983.05 -668.18, 984.63 -654.52 C986.2 -640.87, 987.03 -624.62, 990.33 -612.34 C993.63 -600.05, 1000.09 -588.31, 1004.44 -580.84 C1008.78 -573.36, 1013.67 -568.05, 1016.4 -567.47 C1019.14 -566.89, 1020.81 -573.41, 1020.87 -577.34 C1020.92 -581.27, 1019.41 -586.39, 1016.73 -591.06 C1014.05 -595.73, 1008.1 -600.98, 1004.8 -605.34 C1001.5 -609.7, 999.09 -610.16, 996.94 -617.23 C994.79 -624.29, 994.01 -637.55, 991.92 -647.72 C989.82 -657.9, 985.15 -670.72, 984.37 -678.3 C983.58 -685.87, 985.05 -693.98, 987.2 -693.15 C989.36 -692.32, 991.43 -685.76, 997.3 -673.3 C1003.17 -660.84, 1015.06 -635.28, 1022.43 -618.37 C1029.79 -601.47, 1036.85 -586.72, 1041.5 -571.86 C1046.14 -557.01, 1047.7 -546.34, 1050.3 -529.24 C1052.91 -512.14, 1054.21 -489.51, 1057.13 -469.27 C1060.05 -449.03, 1062.13 -430.5, 1067.82 -407.8 C1073.5 -385.1, 1083.09 -353.46, 1091.25 -333.07 C1099.41 -312.68, 1107.52 -300.73, 1116.79 -285.47 C1126.05 -270.22, 1133.89 -258.93, 1146.85 -241.52 C1159.8 -224.12, 1180.66 -198.18, 1194.51 -181.06 C1208.36 -163.95, 1220.96 -151.66, 1229.96 -138.83 C1238.95 -126, 1241.71 -117.32, 1248.48 -104.08 C1255.25 -90.83, 1264.92 -74.84, 1270.57 -59.36 C1276.23 -43.87, 1279.71 -27.77, 1282.41 -11.16 C1285.11 5.45, 1287.32 27.76, 1286.78 40.3 C1286.23 52.84, 1284.67 59.04, 1279.13 64.07 C1273.58 69.1, 1262.66 70.45, 1253.51 70.48 C1244.36 70.52, 1232.85 65.59, 1224.22 64.29 C1215.59 62.99, 1206.65 61.65, 1201.73 62.69 C1196.81 63.73, 1194.51 66.06, 1194.71 70.52 C1194.91 74.99, 1199.15 82.58, 1202.92 89.5 C1206.7 96.41, 1210.21 105.11, 1217.35 112 C1224.5 118.9, 1235.34 126.85, 1245.8 130.88 C1256.26 134.91, 1267.17 136.92, 1280.1 136.18 C1293.02 135.45, 1310.76 130.55, 1323.36 126.48 C1335.96 122.41, 1344.78 120.4, 1355.69 111.77 C1366.6 103.13, 1378.49 88.64, 1388.81 74.67 C1399.12 60.71, 1408.34 43.28, 1417.58 27.97 C1426.81 12.66, 1435.23 0.02, 1444.22 -17.2 C1453.21 -34.42, 1462.24 -55.6, 1471.54 -75.36 C1480.83 -95.12, 1492.02 -119.2, 1499.99 -135.77 C1507.96 -152.35, 1513.33 -163.73, 1519.35 -174.81 C1525.38 -185.89, 1530.89 -196.86, 1536.14 -202.28 C1541.38 -207.69, 1545.84 -207.63, 1550.81 -207.3 C1555.78 -206.98, 1561.52 -203.75, 1565.97 -200.34 C1570.42 -196.93, 1575.56 -190.63, 1577.51 -186.85 C1579.47 -183.07, 1579.07 -179.56, 1577.71 -177.63 C1576.35 -175.7, 1573.57 -174.19, 1569.36 -175.27 C1565.14 -176.36, 1559.24 -179.61, 1552.43 -184.14 C1545.62 -188.66, 1535.91 -196.82, 1528.48 -202.43 C1521.04 -208.05, 1515.08 -213.74, 1507.84 -217.83 C1500.6 -221.91, 1492.2 -224.22, 1485.06 -226.96 C1477.91 -229.7, 1469.6 -230.59, 1464.97 -234.28 C1460.34 -237.98, 1459.41 -244.67, 1457.28 -249.14 C1455.15 -253.62, 1454.14 -258.26, 1452.19 -261.14 C1450.24 -264.02, 1449.32 -258.82, 1445.57 -266.44 C1441.82 -274.06, 1434.29 -292.25, 1429.7 -306.86 C1425.12 -321.47, 1421.84 -337.53, 1418.07 -354.09 C1414.3 -370.65, 1410.48 -387.69, 1407.09 -406.24 C1403.7 -424.78, 1400.18 -447.11, 1397.74 -465.34 C1395.3 -483.57, 1393.77 -503.1, 1392.46 -515.61 C1391.15 -528.12, 1392.13 -529.34, 1389.86 -540.4 C1387.6 -551.46, 1384.41 -565.28, 1378.86 -581.96 C1373.3 -598.63, 1363.78 -622.52, 1356.53 -640.43 C1349.28 -658.33, 1342.79 -673.48, 1335.37 -689.39 C1327.94 -705.3, 1319.97 -720.62, 1311.98 -735.87 C1303.99 -751.13, 1292.9 -770.03, 1287.43 -780.93 C1281.96 -791.83, 1281.16 -794.47, 1279.16 -801.27 C1277.16 -808.07, 1276.87 -813.62, 1275.42 -821.73 C1273.97 -829.83, 1271.94 -843.76, 1270.45 -849.91 C1268.97 -856.05, 1269.14 -856.55, 1266.51 -858.59 C1263.88 -860.63, 1258.88 -862.54, 1254.67 -862.15 C1250.47 -861.75, 1245.8 -860.93, 1241.29 -856.22 C1236.79 -851.51, 1230.82 -841.43, 1227.65 -833.89 C1224.48 -826.34, 1222.53 -819.23, 1222.27 -810.95 C1222.02 -802.67, 1222.92 -792.42, 1226.13 -784.19 C1229.34 -775.96, 1236.44 -768.39, 1241.55 -761.59 C1246.66 -754.78, 1251.54 -750.04, 1256.79 -743.36 C1262.03 -736.69, 1267.98 -728.29, 1273.03 -721.54 C1278.09 -714.79, 1283.07 -709.86, 1287.13 -702.88 C1291.18 -695.91, 1295.24 -686.41, 1297.37 -679.69 C1299.5 -672.98, 1301.16 -661.64, 1299.92 -662.6 C1298.67 -663.56, 1294.78 -676.15, 1289.92 -685.46 C1285.05 -694.76, 1277.71 -708.45, 1270.74 -718.44 C1263.76 -728.42, 1255.73 -735.71, 1248.08 -745.37 C1240.44 -755.03, 1231.74 -765.71, 1224.85 -776.41 C1217.97 -787.11, 1213.89 -796.54, 1206.78 -809.57 C1199.67 -822.6, 1190.45 -839.88, 1182.19 -854.6 C1173.93 -869.33, 1166.72 -882.97, 1157.2 -897.92 C1147.69 -912.88, 1135.57 -930.89, 1125.09 -944.34 C1114.62 -957.8, 1102.96 -969.81, 1094.36 -978.66 C1085.77 -987.5, 1079.76 -992.84, 1073.5 -997.41 C1067.25 -1001.98, 1060.06 -1005.73, 1056.83 -1006.09 C1053.61 -1006.46, 1052.98 -1003.69, 1054.17 -999.59 C1055.36 -995.49, 1060.63 -986.65, 1063.98 -981.49 C1067.33 -976.34, 1070.84 -970.54, 1074.25 -968.67 C1077.66 -966.8, 1082.18 -967.91, 1084.43 -970.27 C1086.69 -972.64, 1087.22 -980.76, 1087.77 -982.86" stroke="#E1E1E1" stroke-width="4" fill="none"></path></g></g><mask></mask><g stroke-linecap="round"><g transform="translate(1091.2883861762307 62.84958650576027) rotate(0 417.49669429852975 517.6520427413237)"><path d="M0 0 C-3.03 -2.72, -12.88 -13.14, -18.17 -16.33 C-23.47 -19.51, -28.06 -19.85, -31.77 -19.1 C-35.48 -18.34, -38.22 -14.68, -40.43 -11.79 C-42.65 -8.91, -43.63 -5.33, -45.04 -1.79 C-46.44 1.75, -46.61 7.1, -48.85 9.43 C-51.09 11.77, -55 12.89, -58.47 12.24 C-61.93 11.59, -65.53 9.45, -69.66 5.55 C-73.78 1.65, -79.91 -5.63, -83.23 -11.16 C-86.55 -16.7, -89.04 -22.77, -89.58 -27.65 C-90.11 -32.53, -88.72 -38.12, -86.42 -40.43 C-84.12 -42.73, -79.65 -42.39, -75.76 -41.47 C-71.87 -40.55, -67.31 -37.98, -63.08 -34.92 C-58.85 -31.86, -54.97 -28.56, -50.37 -23.09 C-45.77 -17.63, -42.39 -12.14, -35.49 -2.14 C-28.59 7.87, -19.58 22.83, -8.97 36.94 C1.63 51.05, 16.92 68.27, 28.16 82.52 C39.39 96.77, 51.04 112.38, 58.42 122.43 C65.8 132.48, 67.33 133.7, 72.43 142.82 C77.52 151.95, 82.19 162.6, 89 177.19 C95.82 191.77, 106.26 213.66, 113.33 230.34 C120.4 247.02, 128.31 267.65, 131.43 277.27 C134.54 286.89, 134.38 291.5, 132.03 288.06 C129.67 284.62, 123.56 271.32, 117.31 256.64 C111.05 241.96, 102.59 218.54, 94.5 199.97 C86.42 181.4, 78.49 161.86, 68.8 145.23 C59.12 128.59, 48.05 116.19, 36.4 100.17 C24.75 84.16, 11.53 67.09, -1.1 49.14 C-13.73 31.19, -29.89 7.02, -39.36 -7.54 C-48.84 -22.1, -51.76 -30.82, -57.96 -38.21 C-64.16 -45.6, -71.33 -49.87, -76.57 -51.9 C-81.8 -53.94, -85.67 -52.34, -89.36 -50.43 C-93.05 -48.52, -96.73 -43.82, -98.71 -40.43 C-100.69 -37.03, -101.05 -34.06, -101.23 -30.07 C-101.42 -26.07, -101.71 -23.2, -99.82 -16.47 C-97.94 -9.74, -94.58 0.31, -89.94 10.33 C-85.29 20.34, -81 28.35, -71.96 43.63 C-62.92 58.9, -48.22 82.23, -35.71 101.98 C-23.2 121.72, -9.26 143.6, 3.11 162.1 C15.48 180.61, 28.74 196.56, 38.52 213.02 C48.29 229.47, 54.76 244.04, 61.75 260.84 C68.74 277.63, 75.75 297.51, 80.46 313.79 C85.18 330.07, 91.68 358.79, 90.06 358.53 C88.44 358.26, 77.27 329.3, 70.73 312.22 C64.19 295.13, 56.93 272.23, 50.8 256.01 C44.67 239.8, 41.77 229.14, 33.96 214.93 C26.15 200.72, 14.12 185.79, 3.94 170.76 C-6.24 155.73, -16.28 140.68, -27.1 124.77 C-37.92 108.85, -53.31 87, -60.96 75.26 C-68.61 63.52, -69.41 61.33, -72.98 54.34 C-76.56 47.36, -78.13 42.03, -82.41 33.33 C-86.69 24.63, -95.24 10.82, -98.65 2.16 C-102.07 -6.5, -100.46 -13.76, -102.88 -18.64 C-105.31 -23.51, -109.25 -25.66, -113.19 -27.09 C-117.14 -28.53, -123.18 -28.93, -126.57 -27.23 C-129.95 -25.53, -132.58 -22.01, -133.5 -16.89 C-134.42 -11.78, -133.24 -4.7, -132.1 3.46 C-130.96 11.61, -128.88 21.63, -126.67 32.03 C-124.45 42.44, -121.42 60.4, -118.82 65.88 C-116.23 71.36, -113.92 66.6, -111.1 64.93 C-108.27 63.27, -103.54 55.74, -101.9 55.91 C-100.25 56.07, -102.36 61.62, -101.21 65.91 C-100.07 70.2, -97.42 76.91, -95.02 81.63 C-92.62 86.35, -89.84 91.34, -86.8 94.22 C-83.77 97.1, -80.41 98.84, -76.82 98.94 C-73.24 99.04, -67.9 97.11, -65.28 94.82 C-62.67 92.54, -60.92 89.39, -61.14 85.22 C-61.37 81.05, -63.82 74.74, -66.64 69.81 C-69.47 64.88, -73.53 59.94, -78.07 55.66 C-82.62 51.37, -89.6 46.34, -93.91 44.11 C-98.21 41.89, -101.21 40.59, -103.92 42.29 C-106.62 43.99, -108.43 48.53, -110.16 54.32 C-111.88 60.12, -115.48 66.34, -114.27 77.05 C-113.06 87.77, -108.54 104.74, -102.91 118.62 C-97.27 132.49, -88.66 145.16, -80.47 160.28 C-72.28 175.4, -62.91 193.08, -53.77 209.35 C-44.64 225.61, -34.79 242.13, -25.65 257.88 C-16.5 273.64, -5.42 289.59, 1.09 303.88 C7.6 318.18, 9.15 330.79, 13.43 343.68 C17.71 356.56, 20.21 365.19, 26.77 381.21 C33.34 397.22, 48.2 428.1, 52.81 439.77 C57.41 451.45, 55.81 451.94, 54.41 451.24 C53 450.53, 48.99 444.51, 44.39 435.57 C39.8 426.63, 30.86 407.72, 26.84 397.58 C22.82 387.44, 23.49 381.02, 20.28 374.74 C17.07 368.46, 12.47 368.33, 7.57 359.88 C2.67 351.44, -2.32 338.2, -9.13 324.07 C-15.94 309.95, -25 293.07, -33.3 275.16 C-41.59 257.25, -52.56 230.45, -58.89 216.62 C-65.23 202.78, -66.91 199.25, -71.3 192.15 C-75.69 185.05, -81.7 177.13, -85.23 174.01 C-88.77 170.88, -89.75 171.73, -92.52 173.4 C-95.29 175.08, -100.74 179.6, -101.86 184.08 C-102.98 188.56, -100.78 194.44, -99.22 200.28 C-97.66 206.11, -95.38 215.12, -92.51 219.07 C-89.65 223.02, -85.63 224.69, -82.02 224 C-78.41 223.3, -73.3 217.85, -70.85 214.91 C-68.4 211.96, -66.47 212, -67.32 206.33 C-68.17 200.67, -72.47 188.62, -75.96 180.9 C-79.45 173.18, -84.61 166.92, -88.27 159.99 C-91.92 153.06, -95.21 144.6, -97.88 139.31 C-100.56 134.01, -103.08 126.52, -104.33 128.22 C-105.58 129.92, -105.43 143.24, -105.38 149.49 C-105.32 155.74, -106.48 162.91, -104.01 165.7 C-101.53 168.5, -93.8 165.73, -90.51 166.23 C-87.21 166.73, -82.72 168.32, -84.25 168.7 C-85.77 169.08, -95.44 166.97, -99.66 168.54 C-103.88 170.1, -106.51 173.08, -109.56 178.09 C-112.61 183.1, -115.07 196.18, -117.97 198.6 C-120.87 201.02, -123.6 194.03, -126.97 192.61 C-130.33 191.2, -134.34 188.31, -138.14 190.09 C-141.94 191.87, -146.14 195.89, -149.76 203.3 C-153.39 210.7, -158.04 227.23, -159.88 234.53 C-161.73 241.83, -161.8 244.77, -160.83 247.11 C-159.86 249.45, -156.86 249.93, -154.06 248.55 C-151.25 247.17, -146.64 242.9, -143.98 238.83 C-141.32 234.77, -139.38 229.85, -138.1 224.17 C-136.82 218.49, -136.48 209.75, -136.28 204.74 C-136.09 199.73, -137.79 195.89, -136.94 194.11 C-136.09 192.34, -133.2 192.48, -131.17 194.08 C-129.15 195.69, -126.74 201.25, -124.79 203.74 C-122.85 206.23, -120.78 205.9, -119.51 209.03 C-118.24 212.15, -117.88 213.88, -117.17 222.51 C-116.45 231.13, -114.62 250, -115.23 260.78 C-115.84 271.55, -117.98 277.7, -120.82 287.17 C-123.67 296.64, -129.65 308.43, -132.3 317.57 C-134.96 326.71, -136.04 329.39, -136.77 342.02 C-137.49 354.65, -137.54 375.93, -136.66 393.34 C-135.78 410.76, -133.84 433.31, -131.47 446.51 C-129.11 459.7, -125.87 469.28, -122.48 472.51 C-119.08 475.74, -114.09 469.49, -111.13 465.88 C-108.17 462.28, -105.51 457.44, -104.73 450.91 C-103.96 444.37, -103.63 435.4, -106.47 426.7 C-109.31 417.99, -116.79 406.12, -121.77 398.68 C-126.75 391.24, -131.79 384.96, -136.36 382.05 C-140.92 379.14, -145.11 380.18, -149.17 381.22 C-153.23 382.26, -160.49 389.31, -160.73 388.32 C-160.98 387.33, -153.15 379.81, -150.64 375.28 C-148.12 370.74, -147.33 365.79, -145.64 361.11 C-143.96 356.43, -142.22 351.96, -140.53 347.19 C-138.85 342.42, -137.46 337.69, -135.53 332.47 C-133.61 327.26, -129.85 320.78, -128.98 315.9 C-128.11 311.03, -131.26 307.35, -130.33 303.22 C-129.39 299.09, -125.78 295.57, -123.38 291.11 C-120.98 286.65, -117.78 281.52, -115.94 276.45 C-114.09 271.38, -112.84 267.06, -112.32 260.71 C-111.79 254.35, -113.77 237.11, -112.78 238.31 C-111.79 239.51, -108.47 254.89, -106.37 267.9 C-104.28 280.91, -102.63 303.51, -100.21 316.37 C-97.79 329.23, -92.54 347.2, -91.84 345.06 C-91.15 342.93, -97.19 306.93, -96.03 303.54 C-94.87 300.15, -89.43 315.03, -84.88 324.75 C-80.33 334.47, -74.05 347.51, -68.71 361.85 C-63.38 376.19, -57.98 393.33, -52.87 410.79 C-47.76 428.24, -42.37 449.1, -38.05 466.58 C-33.74 484.05, -30.23 497.5, -27 515.64 C-23.77 533.78, -21.95 557.67, -18.67 575.41 C-15.4 593.14, -13.05 604.33, -7.37 622.05 C-1.69 639.78, 7.73 664.94, 15.41 681.76 C23.08 698.58, 31.31 710.57, 38.68 722.96 C46.06 735.36, 50.22 742.53, 59.65 756.13 C69.07 769.74, 82.18 788.36, 95.24 804.6 C108.29 820.84, 124.13 838.29, 137.97 853.58 C151.81 868.87, 167.4 882.29, 178.27 896.33 C189.14 910.37, 196.01 921.9, 203.19 937.82 C210.38 953.75, 217.66 974.18, 221.38 991.89 C225.1 1009.59, 226.01 1030.27, 225.53 1044.04 C225.05 1057.81, 223.18 1067.39, 218.51 1074.51 C213.83 1081.64, 204.19 1084.65, 197.49 1086.77 C190.79 1088.88, 186.17 1089.02, 178.3 1087.21 C170.44 1085.39, 158.28 1079.68, 150.29 1075.89 C142.29 1072.1, 136.23 1068.87, 130.34 1064.46 C124.44 1060.05, 117.6 1054.77, 114.92 1049.41 C112.25 1044.04, 111.87 1038.78, 114.26 1032.26 C116.66 1025.75, 123.08 1018.15, 129.31 1010.3 C135.53 1002.44, 144.24 993.58, 151.61 985.14 C158.98 976.7, 168.1 966.46, 173.51 959.65 C178.92 952.83, 182.09 949.22, 184.08 944.25 C186.07 939.28, 186.63 934.61, 185.45 929.85 C184.27 925.09, 181.15 918.47, 176.99 915.68 C172.83 912.9, 165.98 911.57, 160.47 913.16 C154.97 914.76, 149.08 919, 143.95 925.27 C138.83 931.54, 133.27 941.94, 129.72 950.79 C126.18 959.63, 124.07 970.35, 122.67 978.32 C121.26 986.29, 121.3 991.48, 121.29 998.61 C121.27 1005.74, 120.92 1014.65, 122.58 1021.12 C124.23 1027.59, 128.27 1034.05, 131.21 1037.42 C134.14 1040.79, 136.36 1042.02, 140.21 1041.35 C144.06 1040.69, 148.66 1038.21, 154.3 1033.44 C159.94 1028.66, 165.53 1023.15, 174.04 1012.69 C182.54 1002.24, 194.46 987.11, 205.32 970.72 C216.18 954.34, 228.52 931.22, 239.2 914.39 C249.87 897.57, 257.67 884.05, 269.38 869.76 C281.08 855.47, 296.75 841.25, 309.44 828.65 C322.13 816.05, 335.67 804.14, 345.52 794.16 C355.37 784.19, 363.19 776.52, 368.55 768.8 C373.9 761.09, 373.99 752.76, 377.65 747.89 C381.3 743.03, 382.91 741.41, 390.46 739.61 C398.01 737.82, 411.34 736.05, 422.95 737.1 C434.55 738.15, 450.19 742.69, 460.1 745.92 C470 749.15, 475.21 751.96, 482.36 756.49 C489.51 761.03, 496.92 767.12, 503 773.13 C509.09 779.15, 514.45 783.24, 518.88 792.56 C523.31 801.89, 527.06 812.49, 529.59 829.08 C532.13 845.67, 533.59 873.75, 534.08 892.09 C534.56 910.44, 533.91 926.56, 532.52 939.17 C531.12 951.79, 528.76 961.21, 525.7 967.78 C522.64 974.34, 517.1 977.59, 514.15 978.56 C511.2 979.54, 508.82 977.96, 507.99 973.65 C507.16 969.34, 507.89 962.75, 509.19 952.72 C510.49 942.69, 514.17 924.99, 515.8 913.46 C517.43 901.92, 518.34 893.47, 518.99 883.51 C519.64 873.55, 520.83 862.18, 519.72 853.71 C518.6 845.24, 515.57 837.49, 512.31 832.69 C509.05 827.88, 504.38 824.99, 500.16 824.85 C495.94 824.71, 491.61 825.83, 486.99 831.84 C482.37 837.85, 475.59 847.87, 472.45 860.92 C469.31 873.96, 467.41 895.17, 468.14 910.12 C468.86 925.06, 473 939.75, 476.8 950.6 C480.6 961.45, 485.11 968.7, 490.94 975.21 C496.78 981.73, 502.63 986.98, 511.78 989.69 C520.93 992.4, 524.36 991.62, 545.86 991.48 C567.37 991.33, 565.83 989.26, 640.82 988.82 C715.82 988.38, 936.66 988.82, 995.83 988.82 M0 0 C-3.03 -2.72, -12.88 -13.14, -18.17 -16.33 C-23.47 -19.51, -28.06 -19.85, -31.77 -19.1 C-35.48 -18.34, -38.22 -14.68, -40.43 -11.79 C-42.65 -8.91, -43.63 -5.33, -45.04 -1.79 C-46.44 1.75, -46.61 7.1, -48.85 9.43 C-51.09 11.77, -55 12.89, -58.47 12.24 C-61.93 11.59, -65.53 9.45, -69.66 5.55 C-73.78 1.65, -79.91 -5.63, -83.23 -11.16 C-86.55 -16.7, -89.04 -22.77, -89.58 -27.65 C-90.11 -32.53, -88.72 -38.12, -86.42 -40.43 C-84.12 -42.73, -79.65 -42.39, -75.76 -41.47 C-71.87 -40.55, -67.31 -37.98, -63.08 -34.92 C-58.85 -31.86, -54.97 -28.56, -50.37 -23.09 C-45.77 -17.63, -42.39 -12.14, -35.49 -2.14 C-28.59 7.87, -19.58 22.83, -8.97 36.94 C1.63 51.05, 16.92 68.27, 28.16 82.52 C39.39 96.77, 51.04 112.38, 58.42 122.43 C65.8 132.48, 67.33 133.7, 72.43 142.82 C77.52 151.95, 82.19 162.6, 89 177.19 C95.82 191.77, 106.26 213.66, 113.33 230.34 C120.4 247.02, 128.31 267.65, 131.43 277.27 C134.54 286.89, 134.38 291.5, 132.03 288.06 C129.67 284.62, 123.56 271.32, 117.31 256.64 C111.05 241.96, 102.59 218.54, 94.5 199.97 C86.42 181.4, 78.49 161.86, 68.8 145.23 C59.12 128.59, 48.05 116.19, 36.4 100.17 C24.75 84.16, 11.53 67.09, -1.1 49.14 C-13.73 31.19, -29.89 7.02, -39.36 -7.54 C-48.84 -22.1, -51.76 -30.82, -57.96 -38.21 C-64.16 -45.6, -71.33 -49.87, -76.57 -51.9 C-81.8 -53.94, -85.67 -52.34, -89.36 -50.43 C-93.05 -48.52, -96.73 -43.82, -98.71 -40.43 C-100.69 -37.03, -101.05 -34.06, -101.23 -30.07 C-101.42 -26.07, -101.71 -23.2, -99.82 -16.47 C-97.94 -9.74, -94.58 0.31, -89.94 10.33 C-85.29 20.34, -81 28.35, -71.96 43.63 C-62.92 58.9, -48.22 82.23, -35.71 101.98 C-23.2 121.72, -9.26 143.6, 3.11 162.1 C15.48 180.61, 28.74 196.56, 38.52 213.02 C48.29 229.47, 54.76 244.04, 61.75 260.84 C68.74 277.63, 75.75 297.51, 80.46 313.79 C85.18 330.07, 91.68 358.79, 90.06 358.53 C88.44 358.26, 77.27 329.3, 70.73 312.22 C64.19 295.13, 56.93 272.23, 50.8 256.01 C44.67 239.8, 41.77 229.14, 33.96 214.93 C26.15 200.72, 14.12 185.79, 3.94 170.76 C-6.24 155.73, -16.28 140.68, -27.1 124.77 C-37.92 108.85, -53.31 87, -60.96 75.26 C-68.61 63.52, -69.41 61.33, -72.98 54.34 C-76.56 47.36, -78.13 42.03, -82.41 33.33 C-86.69 24.63, -95.24 10.82, -98.65 2.16 C-102.07 -6.5, -100.46 -13.76, -102.88 -18.64 C-105.31 -23.51, -109.25 -25.66, -113.19 -27.09 C-117.14 -28.53, -123.18 -28.93, -126.57 -27.23 C-129.95 -25.53, -132.58 -22.01, -133.5 -16.89 C-134.42 -11.78, -133.24 -4.7, -132.1 3.46 C-130.96 11.61, -128.88 21.63, -126.67 32.03 C-124.45 42.44, -121.42 60.4, -118.82 65.88 C-116.23 71.36, -113.92 66.6, -111.1 64.93 C-108.27 63.27, -103.54 55.74, -101.9 55.91 C-100.25 56.07, -102.36 61.62, -101.21 65.91 C-100.07 70.2, -97.42 76.91, -95.02 81.63 C-92.62 86.35, -89.84 91.34, -86.8 94.22 C-83.77 97.1, -80.41 98.84, -76.82 98.94 C-73.24 99.04, -67.9 97.11, -65.28 94.82 C-62.67 92.54, -60.92 89.39, -61.14 85.22 C-61.37 81.05, -63.82 74.74, -66.64 69.81 C-69.47 64.88, -73.53 59.94, -78.07 55.66 C-82.62 51.37, -89.6 46.34, -93.91 44.11 C-98.21 41.89, -101.21 40.59, -103.92 42.29 C-106.62 43.99, -108.43 48.53, -110.16 54.32 C-111.88 60.12, -115.48 66.34, -114.27 77.05 C-113.06 87.77, -108.54 104.74, -102.91 118.62 C-97.27 132.49, -88.66 145.16, -80.47 160.28 C-72.28 175.4, -62.91 193.08, -53.77 209.35 C-44.64 225.61, -34.79 242.13, -25.65 257.88 C-16.5 273.64, -5.42 289.59, 1.09 303.88 C7.6 318.18, 9.15 330.79, 13.43 343.68 C17.71 356.56, 20.21 365.19, 26.77 381.21 C33.34 397.22, 48.2 428.1, 52.81 439.77 C57.41 451.45, 55.81 451.94, 54.41 451.24 C53 450.53, 48.99 444.51, 44.39 435.57 C39.8 426.63, 30.86 407.72, 26.84 397.58 C22.82 387.44, 23.49 381.02, 20.28 374.74 C17.07 368.46, 12.47 368.33, 7.57 359.88 C2.67 351.44, -2.32 338.2, -9.13 324.07 C-15.94 309.95, -25 293.07, -33.3 275.16 C-41.59 257.25, -52.56 230.45, -58.89 216.62 C-65.23 202.78, -66.91 199.25, -71.3 192.15 C-75.69 185.05, -81.7 177.13, -85.23 174.01 C-88.77 170.88, -89.75 171.73, -92.52 173.4 C-95.29 175.08, -100.74 179.6, -101.86 184.08 C-102.98 188.56, -100.78 194.44, -99.22 200.28 C-97.66 206.11, -95.38 215.12, -92.51 219.07 C-89.65 223.02, -85.63 224.69, -82.02 224 C-78.41 223.3, -73.3 217.85, -70.85 214.91 C-68.4 211.96, -66.47 212, -67.32 206.33 C-68.17 200.67, -72.47 188.62, -75.96 180.9 C-79.45 173.18, -84.61 166.92, -88.27 159.99 C-91.92 153.06, -95.21 144.6, -97.88 139.31 C-100.56 134.01, -103.08 126.52, -104.33 128.22 C-105.58 129.92, -105.43 143.24, -105.38 149.49 C-105.32 155.74, -106.48 162.91, -104.01 165.7 C-101.53 168.5, -93.8 165.73, -90.51 166.23 C-87.21 166.73, -82.72 168.32, -84.25 168.7 C-85.77 169.08, -95.44 166.97, -99.66 168.54 C-103.88 170.1, -106.51 173.08, -109.56 178.09 C-112.61 183.1, -115.07 196.18, -117.97 198.6 C-120.87 201.02, -123.6 194.03, -126.97 192.61 C-130.33 191.2, -134.34 188.31, -138.14 190.09 C-141.94 191.87, -146.14 195.89, -149.76 203.3 C-153.39 210.7, -158.04 227.23, -159.88 234.53 C-161.73 241.83, -161.8 244.77, -160.83 247.11 C-159.86 249.45, -156.86 249.93, -154.06 248.55 C-151.25 247.17, -146.64 242.9, -143.98 238.83 C-141.32 234.77, -139.38 229.85, -138.1 224.17 C-136.82 218.49, -136.48 209.75, -136.28 204.74 C-136.09 199.73, -137.79 195.89, -136.94 194.11 C-136.09 192.34, -133.2 192.48, -131.17 194.08 C-129.15 195.69, -126.74 201.25, -124.79 203.74 C-122.85 206.23, -120.78 205.9, -119.51 209.03 C-118.24 212.15, -117.88 213.88, -117.17 222.51 C-116.45 231.13, -114.62 250, -115.23 260.78 C-115.84 271.55, -117.98 277.7, -120.82 287.17 C-123.67 296.64, -129.65 308.43, -132.3 317.57 C-134.96 326.71, -136.04 329.39, -136.77 342.02 C-137.49 354.65, -137.54 375.93, -136.66 393.34 C-135.78 410.76, -133.84 433.31, -131.47 446.51 C-129.11 459.7, -125.87 469.28, -122.48 472.51 C-119.08 475.74, -114.09 469.49, -111.13 465.88 C-108.17 462.28, -105.51 457.44, -104.73 450.91 C-103.96 444.37, -103.63 435.4, -106.47 426.7 C-109.31 417.99, -116.79 406.12, -121.77 398.68 C-126.75 391.24, -131.79 384.96, -136.36 382.05 C-140.92 379.14, -145.11 380.18, -149.17 381.22 C-153.23 382.26, -160.49 389.31, -160.73 388.32 C-160.98 387.33, -153.15 379.81, -150.64 375.28 C-148.12 370.74, -147.33 365.79, -145.64 361.11 C-143.96 356.43, -142.22 351.96, -140.53 347.19 C-138.85 342.42, -137.46 337.69, -135.53 332.47 C-133.61 327.26, -129.85 320.78, -128.98 315.9 C-128.11 311.03, -131.26 307.35, -130.33 303.22 C-129.39 299.09, -125.78 295.57, -123.38 291.11 C-120.98 286.65, -117.78 281.52, -115.94 276.45 C-114.09 271.38, -112.84 267.06, -112.32 260.71 C-111.79 254.35, -113.77 237.11, -112.78 238.31 C-111.79 239.51, -108.47 254.89, -106.37 267.9 C-104.28 280.91, -102.63 303.51, -100.21 316.37 C-97.79 329.23, -92.54 347.2, -91.84 345.06 C-91.15 342.93, -97.19 306.93, -96.03 303.54 C-94.87 300.15, -89.43 315.03, -84.88 324.75 C-80.33 334.47, -74.05 347.51, -68.71 361.85 C-63.38 376.19, -57.98 393.33, -52.87 410.79 C-47.76 428.24, -42.37 449.1, -38.05 466.58 C-33.74 484.05, -30.23 497.5, -27 515.64 C-23.77 533.78, -21.95 557.67, -18.67 575.41 C-15.4 593.14, -13.05 604.33, -7.37 622.05 C-1.69 639.78, 7.73 664.94, 15.41 681.76 C23.08 698.58, 31.31 710.57, 38.68 722.96 C46.06 735.36, 50.22 742.53, 59.65 756.13 C69.07 769.74, 82.18 788.36, 95.24 804.6 C108.29 820.84, 124.13 838.29, 137.97 853.58 C151.81 868.87, 167.4 882.29, 178.27 896.33 C189.14 910.37, 196.01 921.9, 203.19 937.82 C210.38 953.75, 217.66 974.18, 221.38 991.89 C225.1 1009.59, 226.01 1030.27, 225.53 1044.04 C225.05 1057.81, 223.18 1067.39, 218.51 1074.51 C213.83 1081.64, 204.19 1084.65, 197.49 1086.77 C190.79 1088.88, 186.17 1089.02, 178.3 1087.21 C170.44 1085.39, 158.28 1079.68, 150.29 1075.89 C142.29 1072.1, 136.23 1068.87, 130.34 1064.46 C124.44 1060.05, 117.6 1054.77, 114.92 1049.41 C112.25 1044.04, 111.87 1038.78, 114.26 1032.26 C116.66 1025.75, 123.08 1018.15, 129.31 1010.3 C135.53 1002.44, 144.24 993.58, 151.61 985.14 C158.98 976.7, 168.1 966.46, 173.51 959.65 C178.92 952.83, 182.09 949.22, 184.08 944.25 C186.07 939.28, 186.63 934.61, 185.45 929.85 C184.27 925.09, 181.15 918.47, 176.99 915.68 C172.83 912.9, 165.98 911.57, 160.47 913.16 C154.97 914.76, 149.08 919, 143.95 925.27 C138.83 931.54, 133.27 941.94, 129.72 950.79 C126.18 959.63, 124.07 970.35, 122.67 978.32 C121.26 986.29, 121.3 991.48, 121.29 998.61 C121.27 1005.74, 120.92 1014.65, 122.58 1021.12 C124.23 1027.59, 128.27 1034.05, 131.21 1037.42 C134.14 1040.79, 136.36 1042.02, 140.21 1041.35 C144.06 1040.69, 148.66 1038.21, 154.3 1033.44 C159.94 1028.66, 165.53 1023.15, 174.04 1012.69 C182.54 1002.24, 194.46 987.11, 205.32 970.72 C216.18 954.34, 228.52 931.22, 239.2 914.39 C249.87 897.57, 257.67 884.05, 269.38 869.76 C281.08 855.47, 296.75 841.25, 309.44 828.65 C322.13 816.05, 335.67 804.14, 345.52 794.16 C355.37 784.19, 363.19 776.52, 368.55 768.8 C373.9 761.09, 373.99 752.76, 377.65 747.89 C381.3 743.03, 382.91 741.41, 390.46 739.61 C398.01 737.82, 411.34 736.05, 422.95 737.1 C434.55 738.15, 450.19 742.69, 460.1 745.92 C470 749.15, 475.21 751.96, 482.36 756.49 C489.51 761.03, 496.92 767.12, 503 773.13 C509.09 779.15, 514.45 783.24, 518.88 792.56 C523.31 801.89, 527.06 812.49, 529.59 829.08 C532.13 845.67, 533.59 873.75, 534.08 892.09 C534.56 910.44, 533.91 926.56, 532.52 939.17 C531.12 951.79, 528.76 961.21, 525.7 967.78 C522.64 974.34, 517.1 977.59, 514.15 978.56 C511.2 979.54, 508.82 977.96, 507.99 973.65 C507.16 969.34, 507.89 962.75, 509.19 952.72 C510.49 942.69, 514.17 924.99, 515.8 913.46 C517.43 901.92, 518.34 893.47, 518.99 883.51 C519.64 873.55, 520.83 862.18, 519.72 853.71 C518.6 845.24, 515.57 837.49, 512.31 832.69 C509.05 827.88, 504.38 824.99, 500.16 824.85 C495.94 824.71, 491.61 825.83, 486.99 831.84 C482.37 837.85, 475.59 847.87, 472.45 860.92 C469.31 873.96, 467.41 895.17, 468.14 910.12 C468.86 925.06, 473 939.75, 476.8 950.6 C480.6 961.45, 485.11 968.7, 490.94 975.21 C496.78 981.73, 502.63 986.98, 511.78 989.69 C520.93 992.4, 524.36 991.62, 545.86 991.48 C567.37 991.33, 565.83 989.26, 640.82 988.82 C715.82 988.38, 936.66 988.82, 995.83 988.82" stroke="#E1E1E1" stroke-width="4" fill="none"></path></g></g><mask></mask><g stroke-linecap="round"><g transform="translate(1272.2363701711565 194.94736590718685) rotate(0 6.194991179521537 24.573314977180075)"><path d="M0 0 C-0.02 3.14, -0.49 11.4, -0.12 18.86 C0.25 26.32, 0.13 39.72, 2.23 44.76 C4.34 49.81, 10.8 48.42, 12.51 49.15 M0 0 C-0.02 3.14, -0.49 11.4, -0.12 18.86 C0.25 26.32, 0.13 39.72, 2.23 44.76 C4.34 49.81, 10.8 48.42, 12.51 49.15" stroke="#E1E1E1" stroke-width="4" fill="none"></path></g></g><mask></mask></svg>