<svg version="1.1" xmlns="http://www.w3.org/2000/svg" viewBox="0 0 559.8755708901087 532.5878872508617" width="559.8755708901087" height="532.5878872508617" class="excalidraw-svg"><!-- svg-source:excalidraw --><metadata></metadata><defs><style class="style-fonts">
      </style></defs><rect x="0" y="0" width="559.8755708901087" height="532.5878872508617" fill="#000000"></rect><g stroke-linecap="round"><g transform="translate(20.941594409221437 390.72067195507344) rotate(349.1031688164304 49.13165590569906 62.56563697045931)"><path d="M0 0 C8.04 0.12, 32.69 0.72, 48.23 0.7 C63.77 0.68, 84.8 -6.34, 93.23 -0.1 C101.66 6.14, 97.9 21.99, 98.82 38.14 C99.74 54.29, 102.47 85.88, 98.76 96.77 C95.04 107.67, 82.69 102.34, 76.53 103.5 C70.37 104.66, 64.26 100.6, 61.8 103.75 C59.35 106.89, 65.14 118.81, 61.8 122.4 C58.46 125.98, 50.71 124.78, 41.76 125.24 C32.82 125.69, 15.17 127.43, 8.12 125.13 C1.07 122.84, 0.92 123.86, -0.53 111.46 C-1.97 99.06, -0.64 69.31, -0.56 50.73 C-0.47 32.15, -0.09 8.45, 0 0 M0 0 C8.04 0.12, 32.69 0.72, 48.23 0.7 C63.77 0.68, 84.8 -6.34, 93.23 -0.1 C101.66 6.14, 97.9 21.99, 98.82 38.14 C99.74 54.29, 102.47 85.88, 98.76 96.77 C95.04 107.67, 82.69 102.34, 76.53 103.5 C70.37 104.66, 64.26 100.6, 61.8 103.75 C59.35 106.89, 65.14 118.81, 61.8 122.4 C58.46 125.98, 50.71 124.78, 41.76 125.24 C32.82 125.69, 15.17 127.43, 8.12 125.13 C1.07 122.84, 0.92 123.86, -0.53 111.46 C-1.97 99.06, -0.64 69.31, -0.56 50.73 C-0.47 32.15, -0.09 8.45, 0 0" stroke="#E1E1E1" stroke-width="4" fill="none"></path></g></g><mask></mask><g stroke-linecap="round"><g transform="translate(105.27695735125585 363.45302059578836) rotate(349.1031688164304 110.3571381258057 16.940697705806997)"><path d="M0 0 C2.97 -3.88, 10.54 -16.63, 17.79 -23.27 C25.04 -29.9, 34.25 -36.84, 43.5 -39.79 C52.74 -42.75, 63.8 -42.72, 73.25 -41.01 C82.7 -39.31, 92.34 -34.94, 100.17 -29.55 C108 -24.16, 111.15 -13.98, 120.23 -8.67 C129.31 -3.36, 142.83 -1.25, 154.67 2.31 C166.51 5.88, 181.7 9.33, 191.29 12.71 C200.88 16.09, 207.3 18.14, 212.21 22.6 C217.11 27.07, 219.64 33.39, 220.71 39.51 C221.78 45.63, 221.09 53.94, 218.63 59.3 C216.16 64.66, 211.1 69.06, 205.91 71.65 C200.72 74.25, 195.15 75.68, 187.47 74.9 C179.78 74.11, 169.94 70.19, 159.81 66.95 C149.68 63.7, 138.69 59.36, 126.67 55.42 C114.65 51.48, 94.17 45.32, 87.67 43.3 M0 0 C2.97 -3.88, 10.54 -16.63, 17.79 -23.27 C25.04 -29.9, 34.25 -36.84, 43.5 -39.79 C52.74 -42.75, 63.8 -42.72, 73.25 -41.01 C82.7 -39.31, 92.34 -34.94, 100.17 -29.55 C108 -24.16, 111.15 -13.98, 120.23 -8.67 C129.31 -3.36, 142.83 -1.25, 154.67 2.31 C166.51 5.88, 181.7 9.33, 191.29 12.71 C200.88 16.09, 207.3 18.14, 212.21 22.6 C217.11 27.07, 219.64 33.39, 220.71 39.51 C221.78 45.63, 221.09 53.94, 218.63 59.3 C216.16 64.66, 211.1 69.06, 205.91 71.65 C200.72 74.25, 195.15 75.68, 187.47 74.9 C179.78 74.11, 169.94 70.19, 159.81 66.95 C149.68 63.7, 138.69 59.36, 126.67 55.42 C114.65 51.48, 94.17 45.32, 87.67 43.3" stroke="#E1E1E1" stroke-width="4" fill="none"></path></g></g><mask></mask><g stroke-linecap="round"><g transform="translate(339.5042399515513 393.8446108601377) rotate(349.1031688164304 -45.772836303895474 35.35777111916832)"><path d="M0 0 C9.59 -2.77, 41.88 -12.28, 57.57 -16.62 C73.25 -20.97, 84.15 -25.85, 94.12 -26.08 C104.08 -26.32, 112.16 -23.57, 117.34 -18.03 C122.52 -12.48, 125.45 -0.29, 125.21 7.17 C124.98 14.63, 122.83 21.01, 115.95 26.74 C109.07 32.47, 100.58 35.29, 83.95 41.55 C67.33 47.8, 39.5 55.93, 16.19 64.28 C-7.11 72.63, -39.55 86.22, -55.86 91.64 C-72.17 97.06, -71.97 97.02, -81.65 96.8 C-91.32 96.58, -103.39 94.04, -113.91 90.31 C-124.43 86.58, -134.03 79.7, -144.75 74.39 C-155.47 69.09, -170.01 62.57, -178.22 58.45 C-186.43 54.34, -187.59 51.71, -194.01 49.69 C-200.43 47.67, -212.97 46.91, -216.76 46.36 M0 0 C9.59 -2.77, 41.88 -12.28, 57.57 -16.62 C73.25 -20.97, 84.15 -25.85, 94.12 -26.08 C104.08 -26.32, 112.16 -23.57, 117.34 -18.03 C122.52 -12.48, 125.45 -0.29, 125.21 7.17 C124.98 14.63, 122.83 21.01, 115.95 26.74 C109.07 32.47, 100.58 35.29, 83.95 41.55 C67.33 47.8, 39.5 55.93, 16.19 64.28 C-7.11 72.63, -39.55 86.22, -55.86 91.64 C-72.17 97.06, -71.97 97.02, -81.65 96.8 C-91.32 96.58, -103.39 94.04, -113.91 90.31 C-124.43 86.58, -134.03 79.7, -144.75 74.39 C-155.47 69.09, -170.01 62.57, -178.22 58.45 C-186.43 54.34, -187.59 51.71, -194.01 49.69 C-200.43 47.67, -212.97 46.91, -216.76 46.36" stroke="#E1E1E1" stroke-width="4" fill="none"></path></g></g><mask></mask><g stroke-linecap="round"><g transform="translate(80.55156050850914 390.15767050006554) rotate(349.1031688164304 0 51.581038450389315)"><path d="M0 0 C0 17.19, 0 85.97, 0 103.16 M0 0 C0 17.19, 0 85.97, 0 103.16" stroke="#E1E1E1" stroke-width="4" fill="none"></path></g></g><mask></mask><g stroke-linecap="round" transform="translate(159.79639088536337 398.56764120687086) rotate(349.1031688164304 6.952458186967419 6.952458186967419)"><path d="M13.9 6.95 C13.9 7.35, 13.87 7.76, 13.8 8.16 C13.73 8.56, 13.62 8.95, 13.49 9.33 C13.35 9.71, 13.17 10.08, 12.97 10.43 C12.77 10.78, 12.54 11.11, 12.28 11.42 C12.02 11.73, 11.73 12.02, 11.42 12.28 C11.11 12.54, 10.78 12.77, 10.43 12.97 C10.08 13.17, 9.71 13.35, 9.33 13.49 C8.95 13.62, 8.56 13.73, 8.16 13.8 C7.76 13.87, 7.35 13.9, 6.95 13.9 C6.55 13.9, 6.14 13.87, 5.75 13.8 C5.35 13.73, 4.95 13.62, 4.57 13.49 C4.2 13.35, 3.82 13.17, 3.48 12.97 C3.13 12.77, 2.79 12.54, 2.48 12.28 C2.18 12.02, 1.89 11.73, 1.63 11.42 C1.37 11.11, 1.13 10.78, 0.93 10.43 C0.73 10.08, 0.56 9.71, 0.42 9.33 C0.28 8.95, 0.18 8.56, 0.11 8.16 C0.04 7.76, 0 7.35, 0 6.95 C0 6.55, 0.04 6.14, 0.11 5.75 C0.18 5.35, 0.28 4.95, 0.42 4.57 C0.56 4.2, 0.73 3.82, 0.93 3.48 C1.13 3.13, 1.37 2.79, 1.63 2.48 C1.89 2.18, 2.18 1.89, 2.48 1.63 C2.79 1.37, 3.13 1.13, 3.48 0.93 C3.82 0.73, 4.2 0.56, 4.57 0.42 C4.95 0.28, 5.35 0.18, 5.75 0.11 C6.14 0.04, 6.55 0, 6.95 0 C7.35 0, 7.76 0.04, 8.16 0.11 C8.56 0.18, 8.95 0.28, 9.33 0.42 C9.71 0.56, 10.08 0.73, 10.43 0.93 C10.78 1.13, 11.11 1.37, 11.42 1.63 C11.73 1.89, 12.02 2.18, 12.28 2.48 C12.54 2.79, 12.77 3.13, 12.97 3.48 C13.17 3.82, 13.35 4.2, 13.49 4.57 C13.62 4.95, 13.73 5.35, 13.8 5.75 C13.87 6.14, 13.89 6.75, 13.9 6.95 C13.92 7.15, 13.92 6.75, 13.9 6.95" stroke="#E1E1E1" stroke-width="4" fill="none"></path></g><g stroke-linecap="round"><g transform="translate(305.20431119694047 332.10591617508373) rotate(349.1031688164304 -2.465070647005035 -110.07712868363615)"><path d="M0 0 C13.25 -14.98, 55.71 -63.35, 79.48 -89.89 C103.24 -116.43, 134.15 -143.52, 142.59 -159.22 C151.02 -174.92, 137.05 -174.28, 130.09 -184.09 C123.13 -193.89, 110.6 -212.05, 100.83 -218.06 C91.05 -224.07, 85.03 -219.99, 71.44 -220.15 C57.85 -220.32, 40.65 -219.38, 19.3 -219.06 C-2.05 -218.75, -37.16 -218.22, -56.66 -218.26 C-76.16 -218.3, -89 -220.8, -97.72 -219.3 C-106.45 -217.8, -104.05 -214.74, -108.99 -209.27 C-113.92 -203.8, -120.91 -194.26, -127.33 -186.46 C-133.75 -178.67, -146.13 -169.4, -147.52 -162.49 C-148.9 -155.58, -144.33 -155.45, -135.65 -144.99 C-126.96 -134.54, -109.27 -114.95, -95.39 -99.77 C-81.51 -84.59, -68.24 -70.53, -52.34 -53.9 C-36.44 -37.27, -8.72 -8.98, 0 0 M0 0 C13.25 -14.98, 55.71 -63.35, 79.48 -89.89 C103.24 -116.43, 134.15 -143.52, 142.59 -159.22 C151.02 -174.92, 137.05 -174.28, 130.09 -184.09 C123.13 -193.89, 110.6 -212.05, 100.83 -218.06 C91.05 -224.07, 85.03 -219.99, 71.44 -220.15 C57.85 -220.32, 40.65 -219.38, 19.3 -219.06 C-2.05 -218.75, -37.16 -218.22, -56.66 -218.26 C-76.16 -218.3, -89 -220.8, -97.72 -219.3 C-106.45 -217.8, -104.05 -214.74, -108.99 -209.27 C-113.92 -203.8, -120.91 -194.26, -127.33 -186.46 C-133.75 -178.67, -146.13 -169.4, -147.52 -162.49 C-148.9 -155.58, -144.33 -155.45, -135.65 -144.99 C-126.96 -134.54, -109.27 -114.95, -95.39 -99.77 C-81.51 -84.59, -68.24 -70.53, -52.34 -53.9 C-36.44 -37.27, -8.72 -8.98, 0 0" stroke="#E1E1E1" stroke-width="4" fill="none"></path></g></g><mask></mask><g stroke-linecap="round"><g transform="translate(306.5012625854796 323.89288412384786) rotate(349.1031688164304 27.37723732227562 -108.3362618942474)"><path d="M0 0 C9.13 -23.09, 48.06 -102.42, 54.75 -138.53 C61.45 -174.64, 42.61 -203.65, 40.18 -216.67 M0 0 C9.13 -23.09, 48.06 -102.42, 54.75 -138.53 C61.45 -174.64, 42.61 -203.65, 40.18 -216.67" stroke="#E1E1E1" stroke-width="4" fill="none"></path></g></g><mask></mask><g stroke-linecap="round"><g transform="translate(306.61098837411544 333.66683664317253) rotate(349.1031688164304 -29.10793210204372 -107.32632665332403)"><path d="M0 0 C-9.7 -22.67, -51.81 -100.24, -58.22 -136.02 C-64.62 -171.8, -41.73 -201.55, -38.44 -214.65 M0 0 C-9.7 -22.67, -51.81 -100.24, -58.22 -136.02 C-64.62 -171.8, -41.73 -201.55, -38.44 -214.65" stroke="#E1E1E1" stroke-width="4" fill="none"></path></g></g><mask></mask><g stroke-linecap="round"><g transform="translate(153.14661604060515 179.09799195253737) rotate(349.1031688164304 82.51243575549108 11.61352869849361)"><path d="M0 0 C14.37 3.5, 58.75 17.12, 86.25 20.99 C113.75 24.86, 151.9 22.85, 165.02 23.23 M0 0 C14.37 3.5, 58.75 17.12, 86.25 20.99 C113.75 24.86, 151.9 22.85, 165.02 23.23" stroke="#E1E1E1" stroke-width="4" fill="none"></path></g></g><mask></mask><g stroke-linecap="round"><g transform="translate(441.98047504505655 150.75116010696667) rotate(349.1031688164304 -44.62169991799988 11.404275929151481)"><path d="M0 0 C-14.87 3.8, -74.37 19.01, -89.24 22.81 M0 0 C-14.87 3.8, -74.37 19.01, -89.24 22.81" stroke="#E1E1E1" stroke-width="4" fill="none"></path></g></g><mask></mask><g stroke-linecap="round"><g transform="translate(525.8829996773128 53.75049738679746) rotate(349.1031688164304 -20.245133515756635 14.491110235738873)"><path d="M0 0 C0.06 -1.84, 1.49 -7.51, 0.36 -11.02 C-0.78 -14.53, -3.6 -18.44, -6.8 -21.04 C-10.01 -23.64, -14.74 -26.2, -18.86 -26.62 C-22.97 -27.05, -28.11 -25.73, -31.48 -23.59 C-34.85 -21.45, -37.6 -17.59, -39.09 -13.79 C-40.58 -9.99, -41.31 -5.05, -40.42 -0.8 C-39.53 3.45, -37.54 9.12, -33.73 11.71 C-29.91 14.3, -22.13 13.51, -17.54 14.75 C-12.94 16, -9.04 16.37, -6.17 19.2 C-3.3 22.02, -0.8 27.28, -0.31 31.73 C0.17 36.17, -0.59 41.88, -3.25 45.86 C-5.92 49.84, -11.9 54.23, -16.28 55.6 C-20.66 56.97, -25.69 55.86, -29.51 54.08 C-33.32 52.3, -37.27 49.01, -39.16 44.92 C-41.06 40.83, -40.57 32.11, -40.85 29.55 M0 0 C0.06 -1.84, 1.49 -7.51, 0.36 -11.02 C-0.78 -14.53, -3.6 -18.44, -6.8 -21.04 C-10.01 -23.64, -14.74 -26.2, -18.86 -26.62 C-22.97 -27.05, -28.11 -25.73, -31.48 -23.59 C-34.85 -21.45, -37.6 -17.59, -39.09 -13.79 C-40.58 -9.99, -41.31 -5.05, -40.42 -0.8 C-39.53 3.45, -37.54 9.12, -33.73 11.71 C-29.91 14.3, -22.13 13.51, -17.54 14.75 C-12.94 16, -9.04 16.37, -6.17 19.2 C-3.3 22.02, -0.8 27.28, -0.31 31.73 C0.17 36.17, -0.59 41.88, -3.25 45.86 C-5.92 49.84, -11.9 54.23, -16.28 55.6 C-20.66 56.97, -25.69 55.86, -29.51 54.08 C-33.32 52.3, -37.27 49.01, -39.16 44.92 C-41.06 40.83, -40.57 32.11, -40.85 29.55" stroke="#E1E1E1" stroke-width="4" fill="none"></path></g></g><mask></mask><g stroke-linecap="round"><g transform="translate(497.0393706856993 9.84960677889768) rotate(349.1031688164304 0 8.340892558223231)"><path d="M0 0 C0 2.78, 0 13.9, 0 16.68 M0 0 C0 2.78, 0 13.9, 0 16.68" stroke="#E1E1E1" stroke-width="4" fill="none"></path></g></g><mask></mask><g stroke-linecap="round"><g transform="translate(516.0247885084681 129.0231690769536) rotate(349.1031688164304 0.1288632282769413 -9.16049470577336)"><path d="M0 0 C0.04 -3.05, 0.21 -15.27, 0.26 -18.32 M0 0 C0.04 -3.05, 0.21 -15.27, 0.26 -18.32" stroke="#E1E1E1" stroke-width="4" fill="none"></path></g></g><mask></mask><g stroke-linecap="round"><g transform="translate(370.31235439579166 306.1623362454332) rotate(349.1031688164304 93.54724472349369 -65.72373675611834)"><path d="M0 0 C17.25 -18, 34.51 -35.99, 75.56 -78.81 M0 0 C28.4 -29.62, 56.8 -59.24, 75.56 -78.81 M75.56 -78.81 C85.07 -68.65, 94.58 -58.49, 103.05 -49.45 M75.56 -78.81 C81.98 -71.95, 88.41 -65.08, 103.05 -49.45 M103.05 -49.45 C134.37 -80.39, 165.69 -111.33, 184.66 -130.08 M103.05 -49.45 C119.4 -65.6, 135.76 -81.76, 184.66 -130.08 M184.66 -130.08 C184.92 -114.87, 185.18 -99.66, 185.38 -87.71 M184.66 -130.08 C184.87 -117.73, 185.08 -105.38, 185.38 -87.71 M185.38 -87.71 C185.92 -101.64, 186.47 -115.56, 187.09 -131.45 M185.38 -87.71 C186.03 -104.26, 186.68 -120.8, 187.09 -131.45 M187.09 -131.45 C176.9 -131.07, 166.71 -130.69, 140.45 -129.72 M187.09 -131.45 C177.51 -131.09, 167.92 -130.74, 140.45 -129.72 M140.45 -129.72 C150.13 -130.07, 159.82 -130.42, 187.07 -131.41 M140.45 -129.72 C150.29 -130.08, 160.14 -130.43, 187.07 -131.41" stroke="#E1E1E1" stroke-width="4" fill="none"></path></g></g><mask></mask><g stroke-linecap="round"><g transform="translate(352.5859896449764 75.58776365593013) rotate(349.1031688164304 12.598773691163927 -19.570658837129002)"><path d="M0 0 C8.57 -13.31, 17.13 -26.61, 25.2 -39.14 M0 0 C8.94 -13.89, 17.89 -27.78, 25.2 -39.14" stroke="#E1E1E1" stroke-width="4" fill="none"></path></g></g><mask></mask><g stroke-linecap="round"><g transform="translate(309.6921837629196 82.05476392941938) rotate(349.1031688164304 4.221011964180548 -27.471527385466885)"><path d="M0 0 C3.16 -20.54, 6.31 -41.09, 8.44 -54.94 M0 0 C2.62 -17.04, 5.24 -34.08, 8.44 -54.94" stroke="#E1E1E1" stroke-width="4" fill="none"></path></g></g><mask></mask><g stroke-linecap="round"><g transform="translate(250.27086191039402 95.23108628905476) rotate(349.1031688164304 -4.861379163874643 -27.721811748727134)"><path d="M0 0 C-3.08 -17.54, -6.15 -35.07, -9.72 -55.44 M0 0 C-3.46 -19.74, -6.92 -39.49, -9.72 -55.44" stroke="#E1E1E1" stroke-width="4" fill="none"></path></g></g><mask></mask><g stroke-linecap="round"><g transform="translate(206.3810408082571 115.42485576706105) rotate(349.1031688164304 -11.44656369453138 -19.114058985234408)"><path d="M0 0 C-7.18 -11.98, -14.35 -23.96, -22.89 -38.23 M0 0 C-5.29 -8.84, -10.59 -17.68, -22.89 -38.23" stroke="#E1E1E1" stroke-width="4" fill="none"></path></g></g><mask></mask></svg>