<svg version="1.1" xmlns="http://www.w3.org/2000/svg" viewBox="0 0 283.60344281039204 136.23883334928468" width="283.60344281039204" height="136.23883334928468" class="excalidraw-svg"><!-- svg-source:excalidraw --><metadata></metadata><defs><style class="style-fonts">
      </style></defs><rect x="0" y="0" width="283.60344281039204" height="136.23883334928468" fill="#000000"></rect><g stroke-linecap="round"><g transform="translate(46.66398075864549 40.673705789133294) rotate(0 6.035649667828693 42.57291281406873)"><path d="M0 0 C3.79 -0.01, 16.58 -0.06, 22.75 -0.08 C28.91 -0.09, 33.73 -0.04, 36.99 -0.08 C40.24 -0.11, 40.71 -0.56, 42.26 -0.31 C43.81 -0.05, 45.27 0.38, 46.26 1.45 C47.25 2.52, 47.8 3.03, 48.19 6.1 C48.57 9.17, 48.51 14.42, 48.57 19.88 C48.63 25.33, 48.57 31.79, 48.57 38.83 C48.57 45.88, 48.57 55.75, 48.57 62.13 C48.57 68.51, 48.77 73.73, 48.57 77.12 C48.36 80.5, 48.17 81.1, 47.35 82.44 C46.53 83.78, 45.33 84.65, 43.65 85.16 C41.98 85.66, 41.73 85.4, 37.32 85.45 C32.91 85.5, 25.12 85.45, 17.19 85.45 C9.25 85.45, -2.73 85.45, -10.3 85.45 C-17.88 85.45, -24.35 85.7, -28.26 85.45 C-32.17 85.2, -32.45 84.92, -33.78 83.95 C-35.1 82.98, -35.76 82.3, -36.21 79.62 C-36.67 76.94, -36.45 76.18, -36.5 67.87 C-36.54 59.56, -36.5 39.79, -36.5 29.75 C-36.5 19.72, -36.87 12.38, -36.5 7.68 C-36.12 2.98, -35.59 2.86, -34.25 1.57 C-32.9 0.29, -30.99 0.24, -28.43 -0.04 C-25.87 -0.32, -23.61 -0.12, -18.87 -0.12 C-14.13 -0.11, -3.15 -0.02, 0 0 M0 0 C3.79 -0.01, 16.58 -0.06, 22.75 -0.08 C28.91 -0.09, 33.73 -0.04, 36.99 -0.08 C40.24 -0.11, 40.71 -0.56, 42.26 -0.31 C43.81 -0.05, 45.27 0.38, 46.26 1.45 C47.25 2.52, 47.8 3.03, 48.19 6.1 C48.57 9.17, 48.51 14.42, 48.57 19.88 C48.63 25.33, 48.57 31.79, 48.57 38.83 C48.57 45.88, 48.57 55.75, 48.57 62.13 C48.57 68.51, 48.77 73.73, 48.57 77.12 C48.36 80.5, 48.17 81.1, 47.35 82.44 C46.53 83.78, 45.33 84.65, 43.65 85.16 C41.98 85.66, 41.73 85.4, 37.32 85.45 C32.91 85.5, 25.12 85.45, 17.19 85.45 C9.25 85.45, -2.73 85.45, -10.3 85.45 C-17.88 85.45, -24.35 85.7, -28.26 85.45 C-32.17 85.2, -32.45 84.92, -33.78 83.95 C-35.1 82.98, -35.76 82.3, -36.21 79.62 C-36.67 76.94, -36.45 76.18, -36.5 67.87 C-36.54 59.56, -36.5 39.79, -36.5 29.75 C-36.5 19.72, -36.87 12.38, -36.5 7.68 C-36.12 2.98, -35.59 2.86, -34.25 1.57 C-32.9 0.29, -30.99 0.24, -28.43 -0.04 C-25.87 -0.32, -23.61 -0.12, -18.87 -0.12 C-14.13 -0.11, -3.15 -0.02, 0 0" stroke="#E1E1E1" stroke-width="4" fill="none"></path></g></g><mask></mask><g stroke-linecap="round"><g transform="translate(12.20816992832215 42.619142409158485) rotate(0 55.553231648990504 -12.795556418158498)"><path d="M0 0 C1.96 -2.14, 7.57 -8.51, 11.73 -12.86 C15.9 -17.21, 22.07 -23.22, 25 -26.09 C27.94 -28.97, 27.95 -29.34, 29.32 -30.11 C30.68 -30.87, 29.95 -30.54, 33.2 -30.67 C36.44 -30.81, 41.08 -30.94, 48.8 -30.92 C56.52 -30.89, 71.51 -30.56, 79.5 -30.53 C87.48 -30.51, 92.25 -30.74, 96.72 -30.75 C101.18 -30.75, 104.13 -31.12, 106.28 -30.56 C108.44 -30.01, 108.87 -28.51, 109.64 -27.43 C110.4 -26.35, 110.63 -26.53, 110.88 -24.09 C111.12 -21.64, 111.07 -17.68, 111.11 -12.77 C111.14 -7.87, 111.11 2.31, 111.11 5.33 M0 0 C1.96 -2.14, 7.57 -8.51, 11.73 -12.86 C15.9 -17.21, 22.07 -23.22, 25 -26.09 C27.94 -28.97, 27.95 -29.34, 29.32 -30.11 C30.68 -30.87, 29.95 -30.54, 33.2 -30.67 C36.44 -30.81, 41.08 -30.94, 48.8 -30.92 C56.52 -30.89, 71.51 -30.56, 79.5 -30.53 C87.48 -30.51, 92.25 -30.74, 96.72 -30.75 C101.18 -30.75, 104.13 -31.12, 106.28 -30.56 C108.44 -30.01, 108.87 -28.51, 109.64 -27.43 C110.4 -26.35, 110.63 -26.53, 110.88 -24.09 C111.12 -21.64, 111.07 -17.68, 111.11 -12.77 C111.14 -7.87, 111.11 2.31, 111.11 5.33" stroke="#E1E1E1" stroke-width="4" fill="none"></path></g></g><mask></mask><g stroke-linecap="round"><g transform="translate(123.12072435388154 84.86243742097002) rotate(0 -15.574187511334003 20.27991039236852)"><path d="M0 0 C0 1.18, 0.38 5.19, 0 7.08 C-0.38 8.97, -0.67 9.35, -2.26 11.34 C-3.86 13.34, -6.57 15.95, -9.57 19.07 C-12.57 22.19, -16.68 26.5, -20.28 30.08 C-23.88 33.66, -29.34 38.81, -31.15 40.56 M0 0 C0 1.18, 0.38 5.19, 0 7.08 C-0.38 8.97, -0.67 9.35, -2.26 11.34 C-3.86 13.34, -6.57 15.95, -9.57 19.07 C-12.57 22.19, -16.68 26.5, -20.28 30.08 C-23.88 33.66, -29.34 38.81, -31.15 40.56" stroke="#E1E1E1" stroke-width="4" fill="none"></path></g></g><mask></mask><g stroke-linecap="round"><g transform="translate(160.28963802594558 53.40287950771756) rotate(0 -22.303196360714992 13.175829803708808)"><path d="M0 0 C-1.17 -1.1, -4.96 -5.03, -7.02 -6.61 C-9.09 -8.19, -10.35 -8.77, -12.4 -9.48 C-14.46 -10.19, -16.98 -10.77, -19.35 -10.85 C-21.72 -10.93, -24.19 -10.52, -26.61 -9.94 C-29.03 -9.36, -31.74 -8.59, -33.86 -7.37 C-35.98 -6.15, -37.73 -4.53, -39.33 -2.61 C-40.94 -0.7, -42.6 1.76, -43.51 4.13 C-44.42 6.49, -44.69 9.08, -44.81 11.58 C-44.93 14.07, -44.91 16.47, -44.25 19.08 C-43.58 21.69, -42.79 24.67, -40.83 27.24 C-38.87 29.81, -35.61 32.84, -32.49 34.5 C-29.37 36.16, -25.33 36.88, -22.09 37.2 C-18.86 37.52, -15.7 37.2, -13.08 36.43 C-10.46 35.67, -8.57 34.17, -6.36 32.6 C-4.14 31.03, -0.89 27.93, 0.2 26.99 M0 0 C-1.17 -1.1, -4.96 -5.03, -7.02 -6.61 C-9.09 -8.19, -10.35 -8.77, -12.4 -9.48 C-14.46 -10.19, -16.98 -10.77, -19.35 -10.85 C-21.72 -10.93, -24.19 -10.52, -26.61 -9.94 C-29.03 -9.36, -31.74 -8.59, -33.86 -7.37 C-35.98 -6.15, -37.73 -4.53, -39.33 -2.61 C-40.94 -0.7, -42.6 1.76, -43.51 4.13 C-44.42 6.49, -44.69 9.08, -44.81 11.58 C-44.93 14.07, -44.91 16.47, -44.25 19.08 C-43.58 21.69, -42.79 24.67, -40.83 27.24 C-38.87 29.81, -35.61 32.84, -32.49 34.5 C-29.37 36.16, -25.33 36.88, -22.09 37.2 C-18.86 37.52, -15.7 37.2, -13.08 36.43 C-10.46 35.67, -8.57 34.17, -6.36 32.6 C-4.14 31.03, -0.89 27.93, 0.2 26.99" stroke="#E1E1E1" stroke-width="4" fill="none"></path></g></g><mask></mask><g stroke-linecap="round"><g transform="translate(92.83807828124418 41.89744455680625) rotate(0 13.890613806325518 -14.285606381284936)"><path d="M0 0 C2.38 -2.35, 9.66 -9.32, 14.3 -14.08 C18.93 -18.84, 25.53 -26.16, 27.78 -28.57 M0 0 C2.38 -2.35, 9.66 -9.32, 14.3 -14.08 C18.93 -18.84, 25.53 -26.16, 27.78 -28.57" stroke="#E1E1E1" stroke-width="4" fill="none"></path></g></g><mask></mask><g stroke-linecap="round"><g transform="translate(197.05099523745093 38.97513768769238) rotate(0 6.035649667828636 42.57291281406873)"><path d="M0 0 C3.79 -0.01, 16.58 -0.06, 22.75 -0.08 C28.91 -0.09, 33.73 -0.04, 36.99 -0.08 C40.24 -0.11, 40.71 -0.56, 42.26 -0.31 C43.81 -0.05, 45.27 0.38, 46.26 1.45 C47.25 2.52, 47.8 3.03, 48.19 6.1 C48.57 9.17, 48.51 14.42, 48.57 19.88 C48.63 25.33, 48.57 31.79, 48.57 38.83 C48.57 45.88, 48.57 55.75, 48.57 62.13 C48.57 68.51, 48.77 73.73, 48.57 77.12 C48.36 80.5, 48.17 81.1, 47.35 82.44 C46.53 83.78, 45.33 84.65, 43.65 85.16 C41.98 85.66, 41.73 85.4, 37.32 85.45 C32.91 85.5, 25.12 85.45, 17.19 85.45 C9.25 85.45, -2.73 85.45, -10.3 85.45 C-17.88 85.45, -24.35 85.7, -28.26 85.45 C-32.17 85.2, -32.45 84.92, -33.78 83.95 C-35.1 82.98, -35.76 82.3, -36.21 79.62 C-36.67 76.94, -36.45 76.18, -36.5 67.87 C-36.54 59.56, -36.5 39.79, -36.5 29.75 C-36.5 19.72, -36.87 12.38, -36.5 7.68 C-36.12 2.98, -35.59 2.86, -34.25 1.57 C-32.9 0.29, -30.99 0.24, -28.43 -0.04 C-25.87 -0.32, -23.61 -0.12, -18.87 -0.12 C-14.13 -0.11, -3.15 -0.02, 0 0 M0 0 C3.79 -0.01, 16.58 -0.06, 22.75 -0.08 C28.91 -0.09, 33.73 -0.04, 36.99 -0.08 C40.24 -0.11, 40.71 -0.56, 42.26 -0.31 C43.81 -0.05, 45.27 0.38, 46.26 1.45 C47.25 2.52, 47.8 3.03, 48.19 6.1 C48.57 9.17, 48.51 14.42, 48.57 19.88 C48.63 25.33, 48.57 31.79, 48.57 38.83 C48.57 45.88, 48.57 55.75, 48.57 62.13 C48.57 68.51, 48.77 73.73, 48.57 77.12 C48.36 80.5, 48.17 81.1, 47.35 82.44 C46.53 83.78, 45.33 84.65, 43.65 85.16 C41.98 85.66, 41.73 85.4, 37.32 85.45 C32.91 85.5, 25.12 85.45, 17.19 85.45 C9.25 85.45, -2.73 85.45, -10.3 85.45 C-17.88 85.45, -24.35 85.7, -28.26 85.45 C-32.17 85.2, -32.45 84.92, -33.78 83.95 C-35.1 82.98, -35.76 82.3, -36.21 79.62 C-36.67 76.94, -36.45 76.18, -36.5 67.87 C-36.54 59.56, -36.5 39.79, -36.5 29.75 C-36.5 19.72, -36.87 12.38, -36.5 7.68 C-36.12 2.98, -35.59 2.86, -34.25 1.57 C-32.9 0.29, -30.99 0.24, -28.43 -0.04 C-25.87 -0.32, -23.61 -0.12, -18.87 -0.12 C-14.13 -0.11, -3.15 -0.02, 0 0" stroke="#E1E1E1" stroke-width="4" fill="none"></path></g></g><mask></mask><g stroke-linecap="round"><g transform="translate(162.48010418477065 40.92057430771763) rotate(0 55.553231648990504 -12.795556418158498)"><path d="M0 0 C1.96 -2.14, 7.57 -8.51, 11.73 -12.86 C15.9 -17.21, 22.07 -23.22, 25 -26.09 C27.94 -28.97, 27.95 -29.34, 29.32 -30.11 C30.68 -30.87, 29.95 -30.54, 33.2 -30.67 C36.44 -30.81, 41.08 -30.94, 48.8 -30.92 C56.52 -30.89, 71.51 -30.56, 79.5 -30.53 C87.48 -30.51, 92.25 -30.74, 96.72 -30.75 C101.18 -30.75, 104.13 -31.12, 106.28 -30.56 C108.44 -30.01, 108.87 -28.51, 109.64 -27.43 C110.4 -26.35, 110.63 -26.53, 110.88 -24.09 C111.12 -21.64, 111.07 -17.68, 111.11 -12.77 C111.14 -7.87, 111.11 2.31, 111.11 5.33 M0 0 C1.96 -2.14, 7.57 -8.51, 11.73 -12.86 C15.9 -17.21, 22.07 -23.22, 25 -26.09 C27.94 -28.97, 27.95 -29.34, 29.32 -30.11 C30.68 -30.87, 29.95 -30.54, 33.2 -30.67 C36.44 -30.81, 41.08 -30.94, 48.8 -30.92 C56.52 -30.89, 71.51 -30.56, 79.5 -30.53 C87.48 -30.51, 92.25 -30.74, 96.72 -30.75 C101.18 -30.75, 104.13 -31.12, 106.28 -30.56 C108.44 -30.01, 108.87 -28.51, 109.64 -27.43 C110.4 -26.35, 110.63 -26.53, 110.88 -24.09 C111.12 -21.64, 111.07 -17.68, 111.11 -12.77 C111.14 -7.87, 111.11 2.31, 111.11 5.33" stroke="#E1E1E1" stroke-width="4" fill="none"></path></g></g><mask></mask><g stroke-linecap="round"><g transform="translate(273.3926586103303 83.16386931952917) rotate(0 -15.574187511334003 20.27991039236852)"><path d="M0 0 C0 1.18, 0.38 5.19, 0 7.08 C-0.38 8.97, -0.67 9.35, -2.26 11.34 C-3.86 13.34, -6.57 15.95, -9.57 19.07 C-12.57 22.19, -16.68 26.5, -20.28 30.08 C-23.88 33.66, -29.34 38.81, -31.15 40.56 M0 0 C0 1.18, 0.38 5.19, 0 7.08 C-0.38 8.97, -0.67 9.35, -2.26 11.34 C-3.86 13.34, -6.57 15.95, -9.57 19.07 C-12.57 22.19, -16.68 26.5, -20.28 30.08 C-23.88 33.66, -29.34 38.81, -31.15 40.56" stroke="#E1E1E1" stroke-width="4" fill="none"></path></g></g><mask></mask><g stroke-linecap="round"><g transform="translate(243.1100125376928 40.198876455365394) rotate(0 13.890613806325575 -14.285606381284936)"><path d="M0 0 C2.38 -2.35, 9.66 -9.32, 14.3 -14.08 C18.93 -18.84, 25.53 -26.16, 27.78 -28.57 M0 0 C2.38 -2.35, 9.66 -9.32, 14.3 -14.08 C18.93 -18.84, 25.53 -26.16, 27.78 -28.57" stroke="#E1E1E1" stroke-width="4" fill="none"></path></g></g><mask></mask><g stroke-linecap="round"><g transform="translate(273.54962445438855 46.03347834634235) rotate(0 -0.0847434646599936 18.788028237010252)"><path d="M0 0 C-0.03 6.26, -0.14 31.31, -0.17 37.58 M0 0 C-0.03 6.26, -0.14 31.31, -0.17 37.58" stroke="#E1E1E1" stroke-width="4" fill="none"></path></g></g><mask></mask><g stroke-linecap="round"><g transform="translate(192.55221631209065 15.389826006965563) rotate(0 0 10.671644821275947)"><path d="M0 0 C0 3.56, 0 17.79, 0 21.34" stroke="#E1E1E1" stroke-width="4.5" fill="none" stroke-dasharray="8 12"></path></g></g><mask></mask><g stroke-linecap="round"><g transform="translate(192.79933411014417 40.64526496803592) rotate(0 0 27.956985644457745)"><path d="M0 0 C0 2.54, 0 9.14, 0 15.25 C0 21.35, 0 29.87, 0 36.65 C0 43.43, 0 52.7, 0 55.91" stroke="#E1E1E1" stroke-width="4.5" fill="none" stroke-dasharray="8 12"></path></g></g><mask></mask><g stroke-linecap="round"><g transform="translate(192.05798071598383 97.53837188790578) rotate(0 -14.056060353284579 12.384445737118057)"><path d="M0 0 C-3.27 2.98, -14.96 13.77, -19.64 17.9 C-24.33 22.03, -26.7 23.62, -28.11 24.77" stroke="#E1E1E1" stroke-width="4.5" fill="none" stroke-dasharray="8 12"></path></g></g><mask></mask><g stroke-linecap="round"><g transform="translate(269.23052097714776 94.14491110774588) rotate(0 -10.57821085750254 0.4008625214109145)"><path d="M0 0 C-3.53 0.13, -17.63 0.67, -21.16 0.8" stroke="#E1E1E1" stroke-width="4.5" fill="none" stroke-dasharray="8 12"></path></g></g><mask></mask><g stroke-linecap="round"><g transform="translate(240.83848490108744 95.01132548082592) rotate(0 -23.567075249702498 0.8137688110825252)"><path d="M0 0 C-7.86 0.27, -39.28 1.36, -47.13 1.63" stroke="#E1E1E1" stroke-width="4.5" fill="none" stroke-dasharray="8 12"></path></g></g><mask></mask><g stroke-linecap="round"><g transform="translate(148.70117973467245 54.11840986239889) rotate(0 -2.649902033620492 13.704400647261906)"><path d="M0 0 C0.46 0.49, 1.93 1.69, 2.77 2.95 C3.62 4.2, 4.64 5.73, 5.09 7.5 C5.54 9.27, 5.74 11.51, 5.48 13.57 C5.21 15.63, 4.54 18, 3.5 19.86 C2.47 21.72, 0.78 23.52, -0.73 24.73 C-2.24 25.93, -3.89 26.64, -5.56 27.09 C-7.24 27.54, -9.91 27.36, -10.78 27.41 M0 0 C0.46 0.49, 1.93 1.69, 2.77 2.95 C3.62 4.2, 4.64 5.73, 5.09 7.5 C5.54 9.27, 5.74 11.51, 5.48 13.57 C5.21 15.63, 4.54 18, 3.5 19.86 C2.47 21.72, 0.78 23.52, -0.73 24.73 C-2.24 25.93, -3.89 26.64, -5.56 27.09 C-7.24 27.54, -9.91 27.36, -10.78 27.41" stroke="#E1E1E1" stroke-width="4" fill="none"></path></g></g><mask></mask><g stroke-linecap="round"><g transform="translate(42.58791014160283 14.376462715582022) rotate(0 0 10.671644821275947)"><path d="M0 0 C0 3.56, 0 17.79, 0 21.34" stroke="#E1E1E1" stroke-width="4.5" fill="none" stroke-dasharray="8 12"></path></g></g><mask></mask><g stroke-linecap="round"><g transform="translate(42.83502793965613 39.631901676652376) rotate(0 0 27.956985644457774)"><path d="M0 0 C0 2.54, 0 9.14, 0 15.25 C0 21.35, 0 29.87, 0 36.65 C0 43.43, 0 52.7, 0 55.91" stroke="#E1E1E1" stroke-width="4.5" fill="none" stroke-dasharray="8 12"></path></g></g><mask></mask><g stroke-linecap="round"><g transform="translate(42.09367454549579 96.52500859652224) rotate(0 -14.056060353284579 12.384445737118057)"><path d="M0 0 C-3.27 2.98, -14.96 13.77, -19.64 17.9 C-24.33 22.03, -26.7 23.62, -28.11 24.77" stroke="#E1E1E1" stroke-width="4.5" fill="none" stroke-dasharray="8 12"></path></g></g><mask></mask><g stroke-linecap="round"><g transform="translate(119.26621480665972 93.13154781636234) rotate(0 -10.57821085750254 0.4008625214109145)"><path d="M0 0 C-3.53 0.13, -17.63 0.67, -21.16 0.8" stroke="#E1E1E1" stroke-width="4.5" fill="none" stroke-dasharray="8 12"></path></g></g><mask></mask><g stroke-linecap="round"><g transform="translate(90.8741787305994 93.99796218944232) rotate(0 -23.567075249702498 0.8137688110825252)"><path d="M0 0 C-7.86 0.27, -39.28 1.36, -47.13 1.63" stroke="#E1E1E1" stroke-width="4.5" fill="none" stroke-dasharray="8 12"></path></g></g><mask></mask></svg>