<svg version="1.1" xmlns="http://www.w3.org/2000/svg" viewBox="0 0 479.33650557359204 479.9367956255454" width="479.33650557359204" height="479.9367956255454" class="excalidraw-svg"><!-- svg-source:excalidraw --><metadata></metadata><defs><style class="style-fonts">
      </style></defs><rect x="0" y="0" width="479.33650557359204" height="479.9367956255454" fill="#000000"></rect><g stroke-linecap="round"><g transform="translate(33.98003244338105 424.1676881168501) rotate(0 135.67225331433818 -130.482183001508)"><path d="M0 0 C0.8 -3.19, 3.93 -14.84, 4.82 -19.15 C5.71 -23.45, 5.65 -24.11, 5.34 -25.83 C5.02 -27.56, 3.77 -28.66, 2.91 -29.48 C2.05 -30.31, 1.32 -30.6, 0.19 -30.77 C-0.93 -30.95, -2.57 -31.04, -3.85 -30.53 C-5.13 -30.03, -6.53 -29.31, -7.5 -27.75 C-8.47 -26.2, -8.66 -24.93, -9.65 -21.21 C-10.64 -17.5, -11.84 -12.01, -13.44 -5.46 C-15.04 1.09, -17.74 11.86, -19.25 18.1 C-20.76 24.35, -21.76 28.68, -22.53 32.01 C-23.29 35.34, -23.81 36.42, -23.83 38.07 C-23.85 39.72, -23.38 40.93, -22.64 41.93 C-21.9 42.93, -20.71 43.61, -19.4 44.06 C-18.08 44.51, -16.5 44.9, -14.73 44.63 C-12.96 44.35, -13.76 44.38, -8.76 42.42 C-3.77 40.45, 6.28 36.27, 15.23 32.81 C24.18 29.34, 34.84 25.42, 44.93 21.63 C55.02 17.84, 64.89 14.16, 75.77 10.06 C86.65 5.95, 97.69 1.69, 110.23 -3.01 C122.76 -7.71, 132.12 -11.01, 150.98 -18.17 C169.85 -25.32, 205.42 -39.13, 223.41 -45.93 C241.41 -52.74, 249.51 -55.58, 258.94 -59.02 C268.36 -62.46, 275.25 -64.37, 279.97 -66.57 C284.68 -68.77, 285.11 -69.94, 287.22 -72.21 C289.32 -74.48, 291.27 -77.12, 292.6 -80.16 C293.92 -83.21, 294.78 -86.49, 295.17 -90.5 C295.57 -94.52, 295.48 -99.94, 294.95 -104.26 C294.42 -108.58, 293.05 -112.64, 292.02 -116.41 C290.99 -120.18, 290.01 -124.6, 288.78 -126.89 C287.55 -129.19, 286.15 -129.66, 284.65 -130.21 C283.14 -130.75, 281.14 -130.62, 279.73 -130.19 C278.31 -129.76, 276.93 -128.86, 276.14 -127.64 C275.36 -126.43, 274.81 -124.99, 275.02 -122.9 C275.22 -120.81, 276.51 -118.14, 277.37 -115.1 C278.23 -112.05, 279.55 -108.13, 280.17 -104.64 C280.79 -101.14, 281.25 -97.31, 281.09 -94.1 C280.92 -90.89, 280.4 -87.74, 279.19 -85.37 C277.98 -83, 276.17 -81.12, 273.83 -79.88 C271.5 -78.63, 268.72 -78.06, 265.16 -77.89 C261.61 -77.73, 257.01 -77.98, 252.51 -78.87 C248.01 -79.76, 245.87 -79.76, 238.16 -83.23 C230.46 -86.7, 215.57 -94.22, 206.3 -99.67 C197.02 -105.13, 190.56 -109.93, 182.52 -115.98 C174.49 -122.02, 165.63 -129.22, 158.08 -135.94 C150.53 -142.66, 144.66 -148.41, 137.23 -156.29 C129.8 -164.17, 122.03 -172.17, 113.49 -183.22 C104.95 -194.27, 92.9 -211.07, 86 -222.58 C79.11 -234.1, 75.14 -244.28, 72.14 -252.3 C69.14 -260.32, 68.37 -265.55, 68.01 -270.7 C67.65 -275.84, 68.28 -280.01, 69.99 -283.17 C71.69 -286.34, 75.2 -288.45, 78.23 -289.69 C81.27 -290.93, 85.7 -290.47, 88.2 -290.62 C90.71 -290.77, 91.83 -290.09, 93.27 -290.6 C94.71 -291.12, 96.09 -292.44, 96.85 -293.72 C97.62 -295.01, 97.87 -296.94, 97.87 -298.3 C97.86 -299.65, 97.57 -300.79, 96.81 -301.87 C96.05 -302.94, 95.03 -304.11, 93.3 -304.73 C91.56 -305.35, 89.09 -305.7, 86.4 -305.59 C83.72 -305.48, 80.57 -305.13, 77.18 -304.09 C73.78 -303.04, 69.33 -301.61, 66.05 -299.33 C62.77 -297.04, 59.55 -294.1, 57.5 -290.36 C55.44 -286.63, 54.21 -281.79, 53.72 -276.9 C53.23 -272, 53.51 -266.62, 54.56 -260.99 C55.61 -255.37, 57.83 -249.13, 60.02 -243.16 C62.21 -237.19, 64.92 -230.78, 67.69 -225.18 C70.46 -219.58, 72.67 -215.84, 76.64 -209.56 C80.61 -203.27, 86.81 -193.95, 91.49 -187.46 C96.18 -180.97, 100.06 -176.3, 104.76 -170.64 C109.45 -164.99, 114.36 -159.3, 119.66 -153.53 C124.95 -147.76, 130.5 -141.82, 136.53 -136.02 C142.57 -130.22, 147.56 -125.54, 155.88 -118.71 C164.21 -111.89, 176.93 -101.63, 186.47 -95.05 C196.02 -88.47, 206.25 -83.08, 213.16 -79.24 C220.08 -75.41, 223.63 -73.96, 227.96 -72.04 C232.29 -70.11, 237.75 -68.77, 239.14 -67.71 C240.53 -66.65, 240.82 -67.44, 236.31 -65.7 C231.8 -63.95, 218.98 -59.81, 212.07 -57.22 C205.16 -54.63, 199.44 -51.97, 194.84 -50.16 C190.25 -48.34, 186.67 -46.87, 184.48 -46.32 C182.29 -45.76, 183.62 -46.05, 181.68 -46.81 C179.75 -47.58, 177.59 -48.56, 172.84 -50.89 C168.1 -53.23, 160.36 -56.61, 153.22 -60.82 C146.09 -65.03, 136.82 -71.11, 130.05 -76.16 C123.28 -81.21, 118.59 -85.32, 112.6 -91.11 C106.62 -96.9, 99.57 -104.36, 94.12 -110.89 C88.66 -117.43, 84.94 -122.19, 79.87 -130.33 C74.8 -138.46, 67.73 -151.49, 63.71 -159.68 C59.68 -167.87, 58.24 -171.46, 55.7 -179.46 C53.16 -187.45, 49.92 -201.42, 48.45 -207.65 C46.99 -213.88, 47.73 -214.67, 46.9 -216.83 C46.07 -219, 44.95 -219.92, 43.5 -220.67 C42.04 -221.41, 39.75 -221.71, 38.17 -221.32 C36.59 -220.92, 34.89 -219.66, 34 -218.29 C33.11 -216.92, 32.7 -215.92, 32.82 -213.09 C32.94 -210.26, 33.16 -207.79, 34.71 -201.3 C36.26 -194.81, 39.21 -182.88, 42.12 -174.17 C45.03 -165.45, 47.98 -157.69, 52.17 -149.03 C56.36 -140.37, 61.47 -130.91, 67.25 -122.21 C73.03 -113.5, 79.46 -105.09, 86.87 -96.81 C94.28 -88.54, 103.9 -79.37, 111.71 -72.56 C119.53 -65.75, 126.07 -61.08, 133.75 -55.94 C141.43 -50.81, 152.83 -44.58, 157.81 -41.74 C162.78 -38.89, 163.59 -39.76, 163.62 -38.88 C163.65 -38, 162.83 -38.33, 157.99 -36.44 C153.15 -34.55, 143.6 -30.97, 134.58 -27.53 C125.57 -24.1, 112.86 -19.29, 103.89 -15.84 C94.92 -12.39, 85.68 -8.71, 80.78 -6.85 C75.87 -4.98, 75.95 -4.64, 74.46 -4.63 C72.97 -4.63, 73.92 -4.9, 71.85 -6.81 C69.78 -8.72, 65.57 -12.18, 62.02 -16.1 C58.47 -20.03, 53.86 -25.42, 50.56 -30.35 C47.27 -35.29, 44.8 -39.85, 42.25 -45.71 C39.7 -51.57, 36.84 -59.84, 35.27 -65.5 C33.7 -71.16, 33.66 -72.83, 32.85 -79.66 C32.03 -86.5, 31 -99.03, 30.39 -106.53 C29.77 -114.03, 29.9 -120.77, 29.16 -124.66 C28.42 -128.55, 27.42 -128.85, 25.93 -129.88 C24.45 -130.9, 21.92 -131.24, 20.26 -130.83 C18.6 -130.41, 16.81 -129.05, 15.98 -127.41 C15.15 -125.77, 15.18 -125.06, 15.29 -120.99 C15.4 -116.93, 15.95 -111.36, 16.63 -103.03 C17.32 -94.69, 18.23 -79.42, 19.4 -71 C20.58 -62.59, 21.48 -59.2, 23.67 -52.56 C25.86 -45.91, 29.58 -36.87, 32.57 -31.12 C35.56 -25.37, 38.31 -22.37, 41.6 -18.05 C44.88 -13.73, 49.46 -8.32, 52.31 -5.22 C55.15 -2.12, 58.27 -0.78, 58.65 0.55 C59.04 1.88, 58.78 1.06, 54.61 2.75 C50.44 4.44, 40.72 8, 33.61 10.67 C26.5 13.34, 17.84 16.49, 11.94 18.77 C6.05 21.05, 1.12 23.36, -1.74 24.36 C-4.61 25.37, -4.85 25.82, -5.26 24.8 C-5.67 23.78, -4.86 21.49, -4.21 18.24 C-3.56 14.99, -2.06 8.36, -1.36 5.32 C-0.66 2.28, -0.23 0.89, 0 0 M0 0 C0.8 -3.19, 3.93 -14.84, 4.82 -19.15 C5.71 -23.45, 5.65 -24.11, 5.34 -25.83 C5.02 -27.56, 3.77 -28.66, 2.91 -29.48 C2.05 -30.31, 1.32 -30.6, 0.19 -30.77 C-0.93 -30.95, -2.57 -31.04, -3.85 -30.53 C-5.13 -30.03, -6.53 -29.31, -7.5 -27.75 C-8.47 -26.2, -8.66 -24.93, -9.65 -21.21 C-10.64 -17.5, -11.84 -12.01, -13.44 -5.46 C-15.04 1.09, -17.74 11.86, -19.25 18.1 C-20.76 24.35, -21.76 28.68, -22.53 32.01 C-23.29 35.34, -23.81 36.42, -23.83 38.07 C-23.85 39.72, -23.38 40.93, -22.64 41.93 C-21.9 42.93, -20.71 43.61, -19.4 44.06 C-18.08 44.51, -16.5 44.9, -14.73 44.63 C-12.96 44.35, -13.76 44.38, -8.76 42.42 C-3.77 40.45, 6.28 36.27, 15.23 32.81 C24.18 29.34, 34.84 25.42, 44.93 21.63 C55.02 17.84, 64.89 14.16, 75.77 10.06 C86.65 5.95, 97.69 1.69, 110.23 -3.01 C122.76 -7.71, 132.12 -11.01, 150.98 -18.17 C169.85 -25.32, 205.42 -39.13, 223.41 -45.93 C241.41 -52.74, 249.51 -55.58, 258.94 -59.02 C268.36 -62.46, 275.25 -64.37, 279.97 -66.57 C284.68 -68.77, 285.11 -69.94, 287.22 -72.21 C289.32 -74.48, 291.27 -77.12, 292.6 -80.16 C293.92 -83.21, 294.78 -86.49, 295.17 -90.5 C295.57 -94.52, 295.48 -99.94, 294.95 -104.26 C294.42 -108.58, 293.05 -112.64, 292.02 -116.41 C290.99 -120.18, 290.01 -124.6, 288.78 -126.89 C287.55 -129.19, 286.15 -129.66, 284.65 -130.21 C283.14 -130.75, 281.14 -130.62, 279.73 -130.19 C278.31 -129.76, 276.93 -128.86, 276.14 -127.64 C275.36 -126.43, 274.81 -124.99, 275.02 -122.9 C275.22 -120.81, 276.51 -118.14, 277.37 -115.1 C278.23 -112.05, 279.55 -108.13, 280.17 -104.64 C280.79 -101.14, 281.25 -97.31, 281.09 -94.1 C280.92 -90.89, 280.4 -87.74, 279.19 -85.37 C277.98 -83, 276.17 -81.12, 273.83 -79.88 C271.5 -78.63, 268.72 -78.06, 265.16 -77.89 C261.61 -77.73, 257.01 -77.98, 252.51 -78.87 C248.01 -79.76, 245.87 -79.76, 238.16 -83.23 C230.46 -86.7, 215.57 -94.22, 206.3 -99.67 C197.02 -105.13, 190.56 -109.93, 182.52 -115.98 C174.49 -122.02, 165.63 -129.22, 158.08 -135.94 C150.53 -142.66, 144.66 -148.41, 137.23 -156.29 C129.8 -164.17, 122.03 -172.17, 113.49 -183.22 C104.95 -194.27, 92.9 -211.07, 86 -222.58 C79.11 -234.1, 75.14 -244.28, 72.14 -252.3 C69.14 -260.32, 68.37 -265.55, 68.01 -270.7 C67.65 -275.84, 68.28 -280.01, 69.99 -283.17 C71.69 -286.34, 75.2 -288.45, 78.23 -289.69 C81.27 -290.93, 85.7 -290.47, 88.2 -290.62 C90.71 -290.77, 91.83 -290.09, 93.27 -290.6 C94.71 -291.12, 96.09 -292.44, 96.85 -293.72 C97.62 -295.01, 97.87 -296.94, 97.87 -298.3 C97.86 -299.65, 97.57 -300.79, 96.81 -301.87 C96.05 -302.94, 95.03 -304.11, 93.3 -304.73 C91.56 -305.35, 89.09 -305.7, 86.4 -305.59 C83.72 -305.48, 80.57 -305.13, 77.18 -304.09 C73.78 -303.04, 69.33 -301.61, 66.05 -299.33 C62.77 -297.04, 59.55 -294.1, 57.5 -290.36 C55.44 -286.63, 54.21 -281.79, 53.72 -276.9 C53.23 -272, 53.51 -266.62, 54.56 -260.99 C55.61 -255.37, 57.83 -249.13, 60.02 -243.16 C62.21 -237.19, 64.92 -230.78, 67.69 -225.18 C70.46 -219.58, 72.67 -215.84, 76.64 -209.56 C80.61 -203.27, 86.81 -193.95, 91.49 -187.46 C96.18 -180.97, 100.06 -176.3, 104.76 -170.64 C109.45 -164.99, 114.36 -159.3, 119.66 -153.53 C124.95 -147.76, 130.5 -141.82, 136.53 -136.02 C142.57 -130.22, 147.56 -125.54, 155.88 -118.71 C164.21 -111.89, 176.93 -101.63, 186.47 -95.05 C196.02 -88.47, 206.25 -83.08, 213.16 -79.24 C220.08 -75.41, 223.63 -73.96, 227.96 -72.04 C232.29 -70.11, 237.75 -68.77, 239.14 -67.71 C240.53 -66.65, 240.82 -67.44, 236.31 -65.7 C231.8 -63.95, 218.98 -59.81, 212.07 -57.22 C205.16 -54.63, 199.44 -51.97, 194.84 -50.16 C190.25 -48.34, 186.67 -46.87, 184.48 -46.32 C182.29 -45.76, 183.62 -46.05, 181.68 -46.81 C179.75 -47.58, 177.59 -48.56, 172.84 -50.89 C168.1 -53.23, 160.36 -56.61, 153.22 -60.82 C146.09 -65.03, 136.82 -71.11, 130.05 -76.16 C123.28 -81.21, 118.59 -85.32, 112.6 -91.11 C106.62 -96.9, 99.57 -104.36, 94.12 -110.89 C88.66 -117.43, 84.94 -122.19, 79.87 -130.33 C74.8 -138.46, 67.73 -151.49, 63.71 -159.68 C59.68 -167.87, 58.24 -171.46, 55.7 -179.46 C53.16 -187.45, 49.92 -201.42, 48.45 -207.65 C46.99 -213.88, 47.73 -214.67, 46.9 -216.83 C46.07 -219, 44.95 -219.92, 43.5 -220.67 C42.04 -221.41, 39.75 -221.71, 38.17 -221.32 C36.59 -220.92, 34.89 -219.66, 34 -218.29 C33.11 -216.92, 32.7 -215.92, 32.82 -213.09 C32.94 -210.26, 33.16 -207.79, 34.71 -201.3 C36.26 -194.81, 39.21 -182.88, 42.12 -174.17 C45.03 -165.45, 47.98 -157.69, 52.17 -149.03 C56.36 -140.37, 61.47 -130.91, 67.25 -122.21 C73.03 -113.5, 79.46 -105.09, 86.87 -96.81 C94.28 -88.54, 103.9 -79.37, 111.71 -72.56 C119.53 -65.75, 126.07 -61.08, 133.75 -55.94 C141.43 -50.81, 152.83 -44.58, 157.81 -41.74 C162.78 -38.89, 163.59 -39.76, 163.62 -38.88 C163.65 -38, 162.83 -38.33, 157.99 -36.44 C153.15 -34.55, 143.6 -30.97, 134.58 -27.53 C125.57 -24.1, 112.86 -19.29, 103.89 -15.84 C94.92 -12.39, 85.68 -8.71, 80.78 -6.85 C75.87 -4.98, 75.95 -4.64, 74.46 -4.63 C72.97 -4.63, 73.92 -4.9, 71.85 -6.81 C69.78 -8.72, 65.57 -12.18, 62.02 -16.1 C58.47 -20.03, 53.86 -25.42, 50.56 -30.35 C47.27 -35.29, 44.8 -39.85, 42.25 -45.71 C39.7 -51.57, 36.84 -59.84, 35.27 -65.5 C33.7 -71.16, 33.66 -72.83, 32.85 -79.66 C32.03 -86.5, 31 -99.03, 30.39 -106.53 C29.77 -114.03, 29.9 -120.77, 29.16 -124.66 C28.42 -128.55, 27.42 -128.85, 25.93 -129.88 C24.45 -130.9, 21.92 -131.24, 20.26 -130.83 C18.6 -130.41, 16.81 -129.05, 15.98 -127.41 C15.15 -125.77, 15.18 -125.06, 15.29 -120.99 C15.4 -116.93, 15.95 -111.36, 16.63 -103.03 C17.32 -94.69, 18.23 -79.42, 19.4 -71 C20.58 -62.59, 21.48 -59.2, 23.67 -52.56 C25.86 -45.91, 29.58 -36.87, 32.57 -31.12 C35.56 -25.37, 38.31 -22.37, 41.6 -18.05 C44.88 -13.73, 49.46 -8.32, 52.31 -5.22 C55.15 -2.12, 58.27 -0.78, 58.65 0.55 C59.04 1.88, 58.78 1.06, 54.61 2.75 C50.44 4.44, 40.72 8, 33.61 10.67 C26.5 13.34, 17.84 16.49, 11.94 18.77 C6.05 21.05, 1.12 23.36, -1.74 24.36 C-4.61 25.37, -4.85 25.82, -5.26 24.8 C-5.67 23.78, -4.86 21.49, -4.21 18.24 C-3.56 14.99, -2.06 8.36, -1.36 5.32 C-0.66 2.28, -0.23 0.89, 0 0" stroke="#E1E1E1" stroke-width="4" fill="none"></path></g></g><mask></mask><g stroke-linecap="round"><g transform="translate(180.02862231727266 207.84799754581087) rotate(0 -0.33307205802372764 -64.00747959696655)"><path d="M0 0 C-1.07 2.76, -4.58 12.74, -6.39 16.53 C-8.21 20.33, -9.32 21.6, -10.89 22.78 C-12.47 23.95, -14.33 23.84, -15.86 23.58 C-17.39 23.32, -19.07 22.43, -20.06 21.2 C-21.05 19.97, -22.03 18.56, -21.81 16.18 C-21.59 13.81, -20.86 12.41, -18.74 6.95 C-16.63 1.49, -12.05 -8.8, -9.11 -16.58 C-6.18 -24.35, -3.32 -31.8, -1.14 -39.7 C1.04 -47.61, 2.75 -55.9, 3.98 -64 C5.2 -72.11, 5.97 -79.27, 6.23 -88.31 C6.49 -97.35, 6.06 -110.38, 5.56 -118.26 C5.05 -126.15, 3.89 -131.11, 3.21 -135.61 C2.53 -140.12, 1.24 -142.74, 1.48 -145.3 C1.72 -147.85, 3.11 -149.91, 4.65 -150.96 C6.2 -152.01, 9.02 -152.26, 10.75 -151.6 C12.49 -150.93, 13.89 -149.97, 15.04 -146.94 C16.19 -143.91, 16.81 -138.36, 17.65 -133.41 C18.48 -128.47, 19.47 -123.82, 20.05 -117.27 C20.63 -110.73, 21.21 -102.1, 21.14 -94.13 C21.07 -86.16, 20.6 -77.71, 19.63 -69.44 C18.65 -61.17, 16.98 -52.18, 15.27 -44.53 C13.56 -36.87, 11.89 -30.95, 9.34 -23.53 C6.8 -16.1, 1.56 -3.92, 0 0 M0 0 C-1.07 2.76, -4.58 12.74, -6.39 16.53 C-8.21 20.33, -9.32 21.6, -10.89 22.78 C-12.47 23.95, -14.33 23.84, -15.86 23.58 C-17.39 23.32, -19.07 22.43, -20.06 21.2 C-21.05 19.97, -22.03 18.56, -21.81 16.18 C-21.59 13.81, -20.86 12.41, -18.74 6.95 C-16.63 1.49, -12.05 -8.8, -9.11 -16.58 C-6.18 -24.35, -3.32 -31.8, -1.14 -39.7 C1.04 -47.61, 2.75 -55.9, 3.98 -64 C5.2 -72.11, 5.97 -79.27, 6.23 -88.31 C6.49 -97.35, 6.06 -110.38, 5.56 -118.26 C5.05 -126.15, 3.89 -131.11, 3.21 -135.61 C2.53 -140.12, 1.24 -142.74, 1.48 -145.3 C1.72 -147.85, 3.11 -149.91, 4.65 -150.96 C6.2 -152.01, 9.02 -152.26, 10.75 -151.6 C12.49 -150.93, 13.89 -149.97, 15.04 -146.94 C16.19 -143.91, 16.81 -138.36, 17.65 -133.41 C18.48 -128.47, 19.47 -123.82, 20.05 -117.27 C20.63 -110.73, 21.21 -102.1, 21.14 -94.13 C21.07 -86.16, 20.6 -77.71, 19.63 -69.44 C18.65 -61.17, 16.98 -52.18, 15.27 -44.53 C13.56 -36.87, 11.89 -30.95, 9.34 -23.53 C6.8 -16.1, 1.56 -3.92, 0 0" stroke="#E1E1E1" stroke-width="4" fill="none"></path></g></g><mask></mask><g stroke-linecap="round" transform="translate(163.5336974849335 10.214363389850917) rotate(0 14.882407068637093 14.882407068637093)"><path d="M29.76 14.88 C29.76 15.74, 29.69 16.62, 29.54 17.47 C29.39 18.32, 29.16 19.16, 28.87 19.97 C28.57 20.78, 28.2 21.58, 27.77 22.32 C27.34 23.07, 26.84 23.79, 26.28 24.45 C25.73 25.11, 25.11 25.73, 24.45 26.28 C23.79 26.84, 23.07 27.34, 22.32 27.77 C21.58 28.2, 20.78 28.57, 19.97 28.87 C19.16 29.16, 18.32 29.39, 17.47 29.54 C16.62 29.69, 15.74 29.76, 14.88 29.76 C14.02 29.76, 13.15 29.69, 12.3 29.54 C11.45 29.39, 10.6 29.16, 9.79 28.87 C8.98 28.57, 8.19 28.2, 7.44 27.77 C6.7 27.34, 5.98 26.84, 5.32 26.28 C4.66 25.73, 4.04 25.11, 3.48 24.45 C2.93 23.79, 2.42 23.07, 1.99 22.32 C1.56 21.58, 1.19 20.78, 0.9 19.97 C0.6 19.16, 0.38 18.32, 0.23 17.47 C0.08 16.62, 0 15.74, 0 14.88 C0 14.02, 0.08 13.15, 0.23 12.3 C0.38 11.45, 0.6 10.6, 0.9 9.79 C1.19 8.98, 1.56 8.19, 1.99 7.44 C2.42 6.7, 2.93 5.98, 3.48 5.32 C4.04 4.66, 4.66 4.04, 5.32 3.48 C5.98 2.93, 6.7 2.42, 7.44 1.99 C8.19 1.56, 8.98 1.19, 9.79 0.9 C10.6 0.6, 11.45 0.38, 12.3 0.23 C13.15 0.08, 14.02 0, 14.88 0 C15.74 0, 16.62 0.08, 17.47 0.23 C18.32 0.38, 19.16 0.6, 19.97 0.9 C20.78 1.19, 21.58 1.56, 22.32 1.99 C23.07 2.42, 23.79 2.93, 24.45 3.48 C25.11 4.04, 25.73 4.66, 26.28 5.32 C26.84 5.98, 27.34 6.7, 27.77 7.44 C28.2 8.19, 28.57 8.98, 28.87 9.79 C29.16 10.6, 29.39 11.45, 29.54 12.3 C29.69 13.15, 29.73 14.45, 29.76 14.88 C29.8 15.31, 29.8 14.45, 29.76 14.88" stroke="none" stroke-width="0" fill="#E1E1E1"></path><path d="M29.76 14.88 C29.76 15.74, 29.69 16.62, 29.54 17.47 C29.39 18.32, 29.16 19.16, 28.87 19.97 C28.57 20.78, 28.2 21.58, 27.77 22.32 C27.34 23.07, 26.84 23.79, 26.28 24.45 C25.73 25.11, 25.11 25.73, 24.45 26.28 C23.79 26.84, 23.07 27.34, 22.32 27.77 C21.58 28.2, 20.78 28.57, 19.97 28.87 C19.16 29.16, 18.32 29.39, 17.47 29.54 C16.62 29.69, 15.74 29.76, 14.88 29.76 C14.02 29.76, 13.15 29.69, 12.3 29.54 C11.45 29.39, 10.6 29.16, 9.79 28.87 C8.98 28.57, 8.19 28.2, 7.44 27.77 C6.7 27.34, 5.98 26.84, 5.32 26.28 C4.66 25.73, 4.04 25.11, 3.48 24.45 C2.93 23.79, 2.42 23.07, 1.99 22.32 C1.56 21.58, 1.19 20.78, 0.9 19.97 C0.6 19.16, 0.38 18.32, 0.23 17.47 C0.08 16.62, 0 15.74, 0 14.88 C0 14.02, 0.08 13.15, 0.23 12.3 C0.38 11.45, 0.6 10.6, 0.9 9.79 C1.19 8.98, 1.56 8.19, 1.99 7.44 C2.42 6.7, 2.93 5.98, 3.48 5.32 C4.04 4.66, 4.66 4.04, 5.32 3.48 C5.98 2.93, 6.7 2.42, 7.44 1.99 C8.19 1.56, 8.98 1.19, 9.79 0.9 C10.6 0.6, 11.45 0.38, 12.3 0.23 C13.15 0.08, 14.02 0, 14.88 0 C15.74 0, 16.62 0.08, 17.47 0.23 C18.32 0.38, 19.16 0.6, 19.97 0.9 C20.78 1.19, 21.58 1.56, 22.32 1.99 C23.07 2.42, 23.79 2.93, 24.45 3.48 C25.11 4.04, 25.73 4.66, 26.28 5.32 C26.84 5.98, 27.34 6.7, 27.77 7.44 C28.2 8.19, 28.57 8.98, 28.87 9.79 C29.16 10.6, 29.39 11.45, 29.54 12.3 C29.69 13.15, 29.73 14.45, 29.76 14.88 C29.8 15.31, 29.8 14.45, 29.76 14.88" stroke="#E1E1E1" stroke-width="4" fill="none"></path></g><g stroke-linecap="round" transform="translate(226.27997830789099 73.08827976380104) rotate(0 21.002020478911646 21.002020478911646)"><path d="M42 21 C42 22.22, 41.9 23.45, 41.68 24.65 C41.47 25.85, 41.15 27.04, 40.74 28.19 C40.32 29.33, 39.8 30.45, 39.19 31.5 C38.58 32.56, 37.87 33.57, 37.09 34.5 C36.31 35.43, 35.43 36.31, 34.5 37.09 C33.57 37.87, 32.56 38.58, 31.5 39.19 C30.45 39.8, 29.33 40.32, 28.19 40.74 C27.04 41.15, 25.85 41.47, 24.65 41.68 C23.45 41.9, 22.22 42, 21 42 C19.79 42, 18.55 41.9, 17.36 41.68 C16.16 41.47, 14.96 41.15, 13.82 40.74 C12.68 40.32, 11.55 39.8, 10.5 39.19 C9.45 38.58, 8.43 37.87, 7.5 37.09 C6.57 36.31, 5.69 35.43, 4.91 34.5 C4.13 33.57, 3.42 32.56, 2.81 31.5 C2.21 30.45, 1.68 29.33, 1.27 28.19 C0.85 27.04, 0.53 25.85, 0.32 24.65 C0.11 23.45, 0 22.22, 0 21 C0 19.79, 0.11 18.55, 0.32 17.36 C0.53 16.16, 0.85 14.96, 1.27 13.82 C1.68 12.68, 2.21 11.55, 2.81 10.5 C3.42 9.45, 4.13 8.43, 4.91 7.5 C5.69 6.57, 6.57 5.69, 7.5 4.91 C8.43 4.13, 9.45 3.42, 10.5 2.81 C11.55 2.21, 12.68 1.68, 13.82 1.27 C14.96 0.85, 16.16 0.53, 17.36 0.32 C18.55 0.11, 19.79 0, 21 0 C22.22 0, 23.45 0.11, 24.65 0.32 C25.85 0.53, 27.04 0.85, 28.19 1.27 C29.33 1.68, 30.45 2.21, 31.5 2.81 C32.56 3.42, 33.57 4.13, 34.5 4.91 C35.43 5.69, 36.31 6.57, 37.09 7.5 C37.87 8.43, 38.58 9.45, 39.19 10.5 C39.8 11.55, 40.32 12.68, 40.74 13.82 C41.15 14.96, 41.47 16.16, 41.68 17.36 C41.9 18.55, 41.95 20.39, 42 21 C42.06 21.61, 42.06 20.39, 42 21" stroke="#E1E1E1" stroke-width="4" fill="none"></path></g><g stroke-linecap="round" transform="translate(238.83021546676645 85.76848685524834) rotate(0 8.291884100418713 8.291884100418713)"><path d="M16.58 8.29 C16.58 8.77, 16.54 9.26, 16.46 9.73 C16.37 10.2, 16.25 10.68, 16.08 11.13 C15.92 11.58, 15.71 12.02, 15.47 12.44 C15.23 12.85, 14.95 13.25, 14.64 13.62 C14.34 13.99, 13.99 14.34, 13.62 14.64 C13.25 14.95, 12.85 15.23, 12.44 15.47 C12.02 15.71, 11.58 15.92, 11.13 16.08 C10.68 16.25, 10.2 16.37, 9.73 16.46 C9.26 16.54, 8.77 16.58, 8.29 16.58 C7.81 16.58, 7.32 16.54, 6.85 16.46 C6.38 16.37, 5.91 16.25, 5.46 16.08 C5 15.92, 4.56 15.71, 4.15 15.47 C3.73 15.23, 3.33 14.95, 2.96 14.64 C2.59 14.34, 2.25 13.99, 1.94 13.62 C1.63 13.25, 1.35 12.85, 1.11 12.44 C0.87 12.02, 0.66 11.58, 0.5 11.13 C0.34 10.68, 0.21 10.2, 0.13 9.73 C0.04 9.26, 0 8.77, 0 8.29 C0 7.81, 0.04 7.32, 0.13 6.85 C0.21 6.38, 0.34 5.91, 0.5 5.46 C0.66 5, 0.87 4.56, 1.11 4.15 C1.35 3.73, 1.63 3.33, 1.94 2.96 C2.25 2.59, 2.59 2.25, 2.96 1.94 C3.33 1.63, 3.73 1.35, 4.15 1.11 C4.56 0.87, 5 0.66, 5.46 0.5 C5.91 0.34, 6.38 0.21, 6.85 0.13 C7.32 0.04, 7.81 0, 8.29 0 C8.77 0, 9.26 0.04, 9.73 0.13 C10.2 0.21, 10.68 0.34, 11.13 0.5 C11.58 0.66, 12.02 0.87, 12.44 1.11 C12.85 1.35, 13.25 1.63, 13.62 1.94 C13.99 2.25, 14.34 2.59, 14.64 2.96 C14.95 3.33, 15.23 3.73, 15.47 4.15 C15.71 4.56, 15.92 5, 16.08 5.46 C16.25 5.91, 16.37 6.38, 16.46 6.85 C16.54 7.32, 16.56 8.05, 16.58 8.29 C16.6 8.53, 16.6 8.05, 16.58 8.29" stroke="#E1E1E1" stroke-width="4" fill="none"></path></g><g stroke-linecap="round" transform="translate(294.6735435394068 95.52332697148864) rotate(0 25.244955178684087 25.24495517868408)"><path d="M12.62 0 C18.29 0, 23.96 0, 37.87 0 M12.62 0 C21.08 0, 29.54 0, 37.87 0 M37.87 0 C46.28 0, 50.49 4.21, 50.49 12.62 M37.87 0 C46.28 0, 50.49 4.21, 50.49 12.62 M50.49 12.62 C50.49 18.69, 50.49 24.77, 50.49 37.87 M50.49 12.62 C50.49 21.4, 50.49 30.18, 50.49 37.87 M50.49 37.87 C50.49 46.28, 46.28 50.49, 37.87 50.49 M50.49 37.87 C50.49 46.28, 46.28 50.49, 37.87 50.49 M37.87 50.49 C27.79 50.49, 17.71 50.49, 12.62 50.49 M37.87 50.49 C32.47 50.49, 27.07 50.49, 12.62 50.49 M12.62 50.49 C4.21 50.49, 0 46.28, 0 37.87 M12.62 50.49 C4.21 50.49, 0 46.28, 0 37.87 M0 37.87 C0 30.57, 0 23.27, 0 12.62 M0 37.87 C0 28.13, 0 18.39, 0 12.62 M0 12.62 C0 4.21, 4.21 0, 12.62 0 M0 12.62 C0 4.21, 4.21 0, 12.62 0" stroke="#E1E1E1" stroke-width="4" fill="none"></path></g><g stroke-linecap="round" transform="translate(307.96527400219856 108.68326373768883) rotate(0 12.095671199048446 12.001116205918777)"><path d="M6 0 C10.07 0, 14.14 0, 18.19 0 M6 0 C10.26 0, 14.51 0, 18.19 0 M18.19 0 C22.19 0, 24.19 2, 24.19 6 M18.19 0 C22.19 0, 24.19 2, 24.19 6 M24.19 6 C24.19 8.49, 24.19 10.97, 24.19 18 M24.19 6 C24.19 8.77, 24.19 11.53, 24.19 18 M24.19 18 C24.19 22, 22.19 24, 18.19 24 M24.19 18 C24.19 22, 22.19 24, 18.19 24 M18.19 24 C15.6 24, 13 24, 6 24 M18.19 24 C14.56 24, 10.94 24, 6 24 M6 24 C2 24, 0 22, 0 18 M6 24 C2 24, 0 22, 0 18 M0 18 C0 14.16, 0 10.32, 0 6 M0 18 C0 14.14, 0 10.28, 0 6 M0 6 C0 2, 2 0, 6 0 M0 6 C0 2, 2 0, 6 0" stroke="#E1E1E1" stroke-width="4" fill="none"></path></g><g stroke-linecap="round"><g transform="translate(60.28053703587938 44.31138178170164) rotate(0 -4.461601083127206 10.988585191495247)"><path d="M0 0 C-0.36 -0.97, -1.43 -4.2, -2.14 -5.8 C-2.86 -7.4, -3.67 -9.46, -4.27 -9.59 C-4.87 -9.73, -5.06 -8.09, -5.74 -6.6 C-6.43 -5.12, -7.47 -2.26, -8.37 -0.66 C-9.28 0.95, -10.17 2.16, -11.17 3.01 C-12.16 3.87, -12.59 4.05, -14.34 4.47 C-16.08 4.89, -19.69 5.29, -21.64 5.54 C-23.59 5.8, -25.52 5.6, -26.04 5.99 C-26.57 6.37, -25.65 6.89, -24.77 7.83 C-23.9 8.77, -22.03 10.43, -20.78 11.63 C-19.52 12.83, -18 13.94, -17.23 15.01 C-16.46 16.09, -16.27 16.41, -16.18 18.09 C-16.08 19.78, -16.4 22.91, -16.64 25.12 C-16.88 27.33, -17.93 30.48, -17.63 31.35 C-17.33 32.22, -16.19 31.07, -14.83 30.34 C-13.47 29.62, -11.05 27.81, -9.46 27.02 C-7.86 26.23, -6.47 25.81, -5.25 25.6 C-4.03 25.4, -3.53 25.31, -2.15 25.79 C-0.77 26.27, 1.27 27.53, 3.03 28.49 C4.79 29.45, 7.52 31.61, 8.41 31.57 C9.29 31.53, 8.53 29.66, 8.34 28.27 C8.14 26.87, 7.45 24.72, 7.24 23.2 C7.02 21.68, 6.97 20.4, 7.05 19.13 C7.13 17.86, 6.93 16.91, 7.71 15.58 C8.49 14.24, 10.3 12.47, 11.72 11.12 C13.13 9.76, 15.29 8.26, 16.19 7.45 C17.09 6.64, 17.44 6.51, 17.12 6.27 C16.81 6.03, 16.12 6.19, 14.3 6.01 C12.48 5.82, 8.16 5.61, 6.2 5.17 C4.25 4.74, 3.62 4.24, 2.58 3.38 C1.55 2.51, 0.43 0.56, 0 0 M0 0 C-0.36 -0.97, -1.43 -4.2, -2.14 -5.8 C-2.86 -7.4, -3.67 -9.46, -4.27 -9.59 C-4.87 -9.73, -5.06 -8.09, -5.74 -6.6 C-6.43 -5.12, -7.47 -2.26, -8.37 -0.66 C-9.28 0.95, -10.17 2.16, -11.17 3.01 C-12.16 3.87, -12.59 4.05, -14.34 4.47 C-16.08 4.89, -19.69 5.29, -21.64 5.54 C-23.59 5.8, -25.52 5.6, -26.04 5.99 C-26.57 6.37, -25.65 6.89, -24.77 7.83 C-23.9 8.77, -22.03 10.43, -20.78 11.63 C-19.52 12.83, -18 13.94, -17.23 15.01 C-16.46 16.09, -16.27 16.41, -16.18 18.09 C-16.08 19.78, -16.4 22.91, -16.64 25.12 C-16.88 27.33, -17.93 30.48, -17.63 31.35 C-17.33 32.22, -16.19 31.07, -14.83 30.34 C-13.47 29.62, -11.05 27.81, -9.46 27.02 C-7.86 26.23, -6.47 25.81, -5.25 25.6 C-4.03 25.4, -3.53 25.31, -2.15 25.79 C-0.77 26.27, 1.27 27.53, 3.03 28.49 C4.79 29.45, 7.52 31.61, 8.41 31.57 C9.29 31.53, 8.53 29.66, 8.34 28.27 C8.14 26.87, 7.45 24.72, 7.24 23.2 C7.02 21.68, 6.97 20.4, 7.05 19.13 C7.13 17.86, 6.93 16.91, 7.71 15.58 C8.49 14.24, 10.3 12.47, 11.72 11.12 C13.13 9.76, 15.29 8.26, 16.19 7.45 C17.09 6.64, 17.44 6.51, 17.12 6.27 C16.81 6.03, 16.12 6.19, 14.3 6.01 C12.48 5.82, 8.16 5.61, 6.2 5.17 C4.25 4.74, 3.62 4.24, 2.58 3.38 C1.55 2.51, 0.43 0.56, 0 0" stroke="#E1E1E1" stroke-width="4" fill="none"></path></g></g><mask></mask><g stroke-linecap="round"><g transform="translate(72.72059774217195 34.71501119590954) rotate(0 -16.7492283697449 19.43450459273727)"><path d="M0 0 C-1.12 -2.25, -4.95 -9.89, -6.72 -13.48 C-8.5 -17.06, -9.42 -19.8, -10.66 -21.52 C-11.91 -23.23, -12.88 -23.38, -14.19 -23.78 C-15.5 -24.17, -17.25 -24.17, -18.52 -23.87 C-19.8 -23.57, -20.79 -23.17, -21.85 -21.96 C-22.9 -20.75, -23.66 -18.82, -24.86 -16.6 C-26.07 -14.38, -27.9 -10.96, -29.08 -8.61 C-30.26 -6.27, -31.17 -3.96, -31.93 -2.53 C-32.69 -1.11, -32.53 -0.59, -33.63 -0.05 C-34.72 0.48, -35.1 0.18, -38.5 0.67 C-41.91 1.16, -50.8 2.41, -54.08 2.88 C-57.36 3.35, -57.06 3.02, -58.19 3.47 C-59.32 3.93, -60.17 4.76, -60.86 5.61 C-61.55 6.47, -62.02 7.54, -62.31 8.6 C-62.59 9.66, -62.93 10.74, -62.56 11.97 C-62.18 13.21, -61.77 14.14, -60.07 16 C-58.37 17.85, -54.61 20.89, -52.34 23.11 C-50.07 25.33, -47.79 27.9, -46.45 29.32 C-45.11 30.73, -44.58 30.45, -44.29 31.61 C-44.01 32.76, -44.22 32.97, -44.72 36.25 C-45.21 39.54, -46.8 47.83, -47.25 51.31 C-47.71 54.78, -47.66 55.63, -47.43 57.1 C-47.21 58.56, -46.64 59.21, -45.9 60.08 C-45.15 60.95, -44.1 61.89, -42.96 62.32 C-41.83 62.76, -40.67 63, -39.09 62.69 C-37.52 62.38, -36.4 61.93, -33.52 60.46 C-30.63 59, -24.51 55.41, -21.76 53.89 C-19 52.38, -18.24 51.6, -16.98 51.38 C-15.73 51.17, -16.32 51.55, -14.24 52.61 C-12.15 53.68, -7.2 56.3, -4.47 57.78 C-1.74 59.26, 0.45 60.67, 2.15 61.5 C3.85 62.32, 4.39 62.62, 5.74 62.74 C7.09 62.85, 8.9 62.96, 10.26 62.19 C11.63 61.41, 13.3 59.71, 13.91 58.08 C14.51 56.45, 14.13 55.08, 13.88 52.41 C13.63 49.74, 12.99 45.42, 12.4 42.05 C11.8 38.69, 10.37 34.32, 10.33 32.24 C10.3 30.15, 10.4 31.32, 12.18 29.56 C13.95 27.79, 18.4 24.09, 20.96 21.66 C23.52 19.22, 26.21 16.85, 27.56 14.95 C28.91 13.05, 29.13 11.79, 29.06 10.24 C28.98 8.69, 28.14 6.81, 27.1 5.67 C26.07 4.53, 25.54 4.08, 22.85 3.39 C20.16 2.7, 14.77 2.08, 10.97 1.51 C7.16 0.95, 1.83 0.25, 0 0 M0 0 C-1.12 -2.25, -4.95 -9.89, -6.72 -13.48 C-8.5 -17.06, -9.42 -19.8, -10.66 -21.52 C-11.91 -23.23, -12.88 -23.38, -14.19 -23.78 C-15.5 -24.17, -17.25 -24.17, -18.52 -23.87 C-19.8 -23.57, -20.79 -23.17, -21.85 -21.96 C-22.9 -20.75, -23.66 -18.82, -24.86 -16.6 C-26.07 -14.38, -27.9 -10.96, -29.08 -8.61 C-30.26 -6.27, -31.17 -3.96, -31.93 -2.53 C-32.69 -1.11, -32.53 -0.59, -33.63 -0.05 C-34.72 0.48, -35.1 0.18, -38.5 0.67 C-41.91 1.16, -50.8 2.41, -54.08 2.88 C-57.36 3.35, -57.06 3.02, -58.19 3.47 C-59.32 3.93, -60.17 4.76, -60.86 5.61 C-61.55 6.47, -62.02 7.54, -62.31 8.6 C-62.59 9.66, -62.93 10.74, -62.56 11.97 C-62.18 13.21, -61.77 14.14, -60.07 16 C-58.37 17.85, -54.61 20.89, -52.34 23.11 C-50.07 25.33, -47.79 27.9, -46.45 29.32 C-45.11 30.73, -44.58 30.45, -44.29 31.61 C-44.01 32.76, -44.22 32.97, -44.72 36.25 C-45.21 39.54, -46.8 47.83, -47.25 51.31 C-47.71 54.78, -47.66 55.63, -47.43 57.1 C-47.21 58.56, -46.64 59.21, -45.9 60.08 C-45.15 60.95, -44.1 61.89, -42.96 62.32 C-41.83 62.76, -40.67 63, -39.09 62.69 C-37.52 62.38, -36.4 61.93, -33.52 60.46 C-30.63 59, -24.51 55.41, -21.76 53.89 C-19 52.38, -18.24 51.6, -16.98 51.38 C-15.73 51.17, -16.32 51.55, -14.24 52.61 C-12.15 53.68, -7.2 56.3, -4.47 57.78 C-1.74 59.26, 0.45 60.67, 2.15 61.5 C3.85 62.32, 4.39 62.62, 5.74 62.74 C7.09 62.85, 8.9 62.96, 10.26 62.19 C11.63 61.41, 13.3 59.71, 13.91 58.08 C14.51 56.45, 14.13 55.08, 13.88 52.41 C13.63 49.74, 12.99 45.42, 12.4 42.05 C11.8 38.69, 10.37 34.32, 10.33 32.24 C10.3 30.15, 10.4 31.32, 12.18 29.56 C13.95 27.79, 18.4 24.09, 20.96 21.66 C23.52 19.22, 26.21 16.85, 27.56 14.95 C28.91 13.05, 29.13 11.79, 29.06 10.24 C28.98 8.69, 28.14 6.81, 27.1 5.67 C26.07 4.53, 25.54 4.08, 22.85 3.39 C20.16 2.7, 14.77 2.08, 10.97 1.51 C7.16 0.95, 1.83 0.25, 0 0" stroke="#E1E1E1" stroke-width="4" fill="none"></path></g></g><mask></mask><g stroke-linecap="round"><g transform="translate(201.98621551403193 221.4714918884934) rotate(0 37.600200058347674 -24.2194958610688)"><path d="M0 0 C2.79 -2.52, 9.88 -9.03, 16.72 -15.12 C23.56 -21.21, 32.23 -28.66, 41.05 -36.55 C49.86 -44.45, 63.9 -57.63, 69.63 -62.51 C75.37 -67.38, 73.64 -65.49, 75.45 -65.79 C77.25 -66.1, 79.21 -65.26, 80.46 -64.33 C81.72 -63.4, 82.55 -61.63, 82.96 -60.22 C83.38 -58.81, 83.54 -57.23, 82.93 -55.86 C82.32 -54.49, 83.08 -55.56, 79.31 -52.01 C75.54 -48.45, 68.62 -41.99, 60.31 -34.51 C51.99 -27.04, 38.04 -14.82, 29.41 -7.15 C20.78 0.52, 13.04 7.52, 8.55 11.51 C4.05 15.5, 4.24 15.84, 2.44 16.81 C0.64 17.79, -0.85 17.65, -2.25 17.35 C-3.65 17.06, -5.05 16.03, -5.97 15.05 C-6.89 14.07, -7.52 12.77, -7.76 11.47 C-8.01 10.17, -7.99 8.51, -7.44 7.25 C-6.88 5.99, -5.67 5.1, -4.43 3.89 C-3.19 2.68, -0.74 0.65, 0 0 M0 0 C2.79 -2.52, 9.88 -9.03, 16.72 -15.12 C23.56 -21.21, 32.23 -28.66, 41.05 -36.55 C49.86 -44.45, 63.9 -57.63, 69.63 -62.51 C75.37 -67.38, 73.64 -65.49, 75.45 -65.79 C77.25 -66.1, 79.21 -65.26, 80.46 -64.33 C81.72 -63.4, 82.55 -61.63, 82.96 -60.22 C83.38 -58.81, 83.54 -57.23, 82.93 -55.86 C82.32 -54.49, 83.08 -55.56, 79.31 -52.01 C75.54 -48.45, 68.62 -41.99, 60.31 -34.51 C51.99 -27.04, 38.04 -14.82, 29.41 -7.15 C20.78 0.52, 13.04 7.52, 8.55 11.51 C4.05 15.5, 4.24 15.84, 2.44 16.81 C0.64 17.79, -0.85 17.65, -2.25 17.35 C-3.65 17.06, -5.05 16.03, -5.97 15.05 C-6.89 14.07, -7.52 12.77, -7.76 11.47 C-8.01 10.17, -7.99 8.51, -7.44 7.25 C-6.88 5.99, -5.67 5.1, -4.43 3.89 C-3.19 2.68, -0.74 0.65, 0 0" stroke="#E1E1E1" stroke-width="4" fill="none"></path></g></g><mask></mask><g stroke-linecap="round"><g transform="translate(353.6700035056321 184.38573603358833) rotate(0 -18.027439394745855 16.673402160357668)"><path d="M0 0 C7.9 -3.76, 37.44 -17.79, 47.42 -22.55 C57.4 -27.32, 56.88 -27.65, 59.87 -28.6 C62.86 -29.56, 63.9 -28.94, 65.38 -28.3 C66.87 -27.66, 68.09 -26.07, 68.78 -24.75 C69.48 -23.43, 69.67 -21.68, 69.55 -20.39 C69.44 -19.09, 69.36 -18.18, 68.11 -17 C66.86 -15.82, 66.05 -15.29, 62.05 -13.3 C58.06 -11.31, 52.05 -8.79, 44.14 -5.06 C36.24 -1.33, 24.3 4.48, 14.62 9.09 C4.94 13.7, -4.16 17.97, -13.93 22.6 C-23.7 27.23, -35.69 32.94, -43.99 36.88 C-52.3 40.82, -56.39 42.74, -63.76 46.25 C-71.14 49.76, -83.09 55.42, -88.23 57.94 C-93.37 60.46, -92.76 60.69, -94.62 61.36 C-96.48 62.03, -98.04 62.05, -99.38 61.95 C-100.72 61.86, -101.69 61.46, -102.67 60.78 C-103.64 60.11, -104.75 59.14, -105.24 57.91 C-105.73 56.67, -105.9 54.72, -105.61 53.37 C-105.32 52.02, -104.71 50.86, -103.49 49.82 C-102.26 48.78, -103.11 49.48, -98.29 47.14 C-93.47 44.8, -84.8 40.69, -74.56 35.8 C-64.32 30.9, -49.27 23.75, -36.84 17.78 C-24.42 11.82, -6.14 2.96, 0 0 M0 0 C7.9 -3.76, 37.44 -17.79, 47.42 -22.55 C57.4 -27.32, 56.88 -27.65, 59.87 -28.6 C62.86 -29.56, 63.9 -28.94, 65.38 -28.3 C66.87 -27.66, 68.09 -26.07, 68.78 -24.75 C69.48 -23.43, 69.67 -21.68, 69.55 -20.39 C69.44 -19.09, 69.36 -18.18, 68.11 -17 C66.86 -15.82, 66.05 -15.29, 62.05 -13.3 C58.06 -11.31, 52.05 -8.79, 44.14 -5.06 C36.24 -1.33, 24.3 4.48, 14.62 9.09 C4.94 13.7, -4.16 17.97, -13.93 22.6 C-23.7 27.23, -35.69 32.94, -43.99 36.88 C-52.3 40.82, -56.39 42.74, -63.76 46.25 C-71.14 49.76, -83.09 55.42, -88.23 57.94 C-93.37 60.46, -92.76 60.69, -94.62 61.36 C-96.48 62.03, -98.04 62.05, -99.38 61.95 C-100.72 61.86, -101.69 61.46, -102.67 60.78 C-103.64 60.11, -104.75 59.14, -105.24 57.91 C-105.73 56.67, -105.9 54.72, -105.61 53.37 C-105.32 52.02, -104.71 50.86, -103.49 49.82 C-102.26 48.78, -103.11 49.48, -98.29 47.14 C-93.47 44.8, -84.8 40.69, -74.56 35.8 C-64.32 30.9, -49.27 23.75, -36.84 17.78 C-24.42 11.82, -6.14 2.96, 0 0" stroke="#E1E1E1" stroke-width="4" fill="none"></path></g></g><mask></mask><g stroke-linecap="round"><g transform="translate(416.2439008840112 128.7788739936246) rotate(0 7.214039281190452 -0.4303443505155542)"><path d="M0 0 C0.01 -0.94, -0.21 -4.11, 0.08 -5.64 C0.38 -7.16, 1.05 -8.23, 1.77 -9.15 C2.5 -10.07, 3.33 -10.76, 4.44 -11.16 C5.55 -11.55, 7.3 -11.64, 8.42 -11.51 C9.54 -11.38, 10.31 -11, 11.16 -10.39 C12 -9.78, 12.93 -8.8, 13.47 -7.86 C14.02 -6.93, 14.28 -6.67, 14.43 -4.79 C14.58 -2.9, 14.43 1.66, 14.36 3.46 C14.3 5.25, 14.38 5.12, 14.06 6 C13.73 6.88, 13.26 7.97, 12.42 8.74 C11.58 9.52, 10.19 10.35, 9.04 10.65 C7.88 10.95, 6.54 10.74, 5.49 10.53 C4.44 10.33, 3.58 9.98, 2.75 9.42 C1.92 8.87, 0.95 8.12, 0.5 7.19 C0.04 6.25, 0.11 5.02, 0.03 3.83 C-0.06 2.63, 0 0.64, 0 0 M0 0 C0.01 -0.94, -0.21 -4.11, 0.08 -5.64 C0.38 -7.16, 1.05 -8.23, 1.77 -9.15 C2.5 -10.07, 3.33 -10.76, 4.44 -11.16 C5.55 -11.55, 7.3 -11.64, 8.42 -11.51 C9.54 -11.38, 10.31 -11, 11.16 -10.39 C12 -9.78, 12.93 -8.8, 13.47 -7.86 C14.02 -6.93, 14.28 -6.67, 14.43 -4.79 C14.58 -2.9, 14.43 1.66, 14.36 3.46 C14.3 5.25, 14.38 5.12, 14.06 6 C13.73 6.88, 13.26 7.97, 12.42 8.74 C11.58 9.52, 10.19 10.35, 9.04 10.65 C7.88 10.95, 6.54 10.74, 5.49 10.53 C4.44 10.33, 3.58 9.98, 2.75 9.42 C1.92 8.87, 0.95 8.12, 0.5 7.19 C0.04 6.25, 0.11 5.02, 0.03 3.83 C-0.06 2.63, 0 0.64, 0 0" stroke="#E1E1E1" stroke-width="4" fill="none"></path></g></g><mask></mask><g stroke-linecap="round"><g transform="translate(440.6006257330893 139.01728801405858) rotate(44.99999999999995 7.214039281190452 -0.4303443505155542)"><path d="M0 0 C0.01 -0.94, -0.21 -4.11, 0.08 -5.64 C0.38 -7.16, 1.05 -8.23, 1.77 -9.15 C2.5 -10.07, 3.33 -10.76, 4.44 -11.16 C5.55 -11.55, 7.3 -11.64, 8.42 -11.51 C9.54 -11.38, 10.31 -11, 11.16 -10.39 C12 -9.78, 12.93 -8.8, 13.47 -7.86 C14.02 -6.93, 14.28 -6.67, 14.43 -4.79 C14.58 -2.9, 14.43 1.66, 14.36 3.46 C14.3 5.25, 14.38 5.12, 14.06 6 C13.73 6.88, 13.26 7.97, 12.42 8.74 C11.58 9.52, 10.19 10.35, 9.04 10.65 C7.88 10.95, 6.54 10.74, 5.49 10.53 C4.44 10.33, 3.58 9.98, 2.75 9.42 C1.92 8.87, 0.95 8.12, 0.5 7.19 C0.04 6.25, 0.11 5.02, 0.03 3.83 C-0.06 2.63, 0 0.64, 0 0 M0 0 C0.01 -0.94, -0.21 -4.11, 0.08 -5.64 C0.38 -7.16, 1.05 -8.23, 1.77 -9.15 C2.5 -10.07, 3.33 -10.76, 4.44 -11.16 C5.55 -11.55, 7.3 -11.64, 8.42 -11.51 C9.54 -11.38, 10.31 -11, 11.16 -10.39 C12 -9.78, 12.93 -8.8, 13.47 -7.86 C14.02 -6.93, 14.28 -6.67, 14.43 -4.79 C14.58 -2.9, 14.43 1.66, 14.36 3.46 C14.3 5.25, 14.38 5.12, 14.06 6 C13.73 6.88, 13.26 7.97, 12.42 8.74 C11.58 9.52, 10.19 10.35, 9.04 10.65 C7.88 10.95, 6.54 10.74, 5.49 10.53 C4.44 10.33, 3.58 9.98, 2.75 9.42 C1.92 8.87, 0.95 8.12, 0.5 7.19 C0.04 6.25, 0.11 5.02, 0.03 3.83 C-0.06 2.63, 0 0.64, 0 0" stroke="#E1E1E1" stroke-width="4" fill="none"></path></g></g><mask></mask><g stroke-linecap="round"><g transform="translate(450.98696385739385 163.25041288674635) rotate(89.99999999999994 7.214039281190452 -0.4303443505155542)"><path d="M0 0 C0.01 -0.94, -0.21 -4.11, 0.08 -5.64 C0.38 -7.16, 1.05 -8.23, 1.77 -9.15 C2.5 -10.07, 3.33 -10.76, 4.44 -11.16 C5.55 -11.55, 7.3 -11.64, 8.42 -11.51 C9.54 -11.38, 10.31 -11, 11.16 -10.39 C12 -9.78, 12.93 -8.8, 13.47 -7.86 C14.02 -6.93, 14.28 -6.67, 14.43 -4.79 C14.58 -2.9, 14.43 1.66, 14.36 3.46 C14.3 5.25, 14.38 5.12, 14.06 6 C13.73 6.88, 13.26 7.97, 12.42 8.74 C11.58 9.52, 10.19 10.35, 9.04 10.65 C7.88 10.95, 6.54 10.74, 5.49 10.53 C4.44 10.33, 3.58 9.98, 2.75 9.42 C1.92 8.87, 0.95 8.12, 0.5 7.19 C0.04 6.25, 0.11 5.02, 0.03 3.83 C-0.06 2.63, 0 0.64, 0 0 M0 0 C0.01 -0.94, -0.21 -4.11, 0.08 -5.64 C0.38 -7.16, 1.05 -8.23, 1.77 -9.15 C2.5 -10.07, 3.33 -10.76, 4.44 -11.16 C5.55 -11.55, 7.3 -11.64, 8.42 -11.51 C9.54 -11.38, 10.31 -11, 11.16 -10.39 C12 -9.78, 12.93 -8.8, 13.47 -7.86 C14.02 -6.93, 14.28 -6.67, 14.43 -4.79 C14.58 -2.9, 14.43 1.66, 14.36 3.46 C14.3 5.25, 14.38 5.12, 14.06 6 C13.73 6.88, 13.26 7.97, 12.42 8.74 C11.58 9.52, 10.19 10.35, 9.04 10.65 C7.88 10.95, 6.54 10.74, 5.49 10.53 C4.44 10.33, 3.58 9.98, 2.75 9.42 C1.92 8.87, 0.95 8.12, 0.5 7.19 C0.04 6.25, 0.11 5.02, 0.03 3.83 C-0.06 2.63, 0 0.64, 0 0" stroke="#E1E1E1" stroke-width="4" fill="none"></path></g></g><mask></mask><g stroke-linecap="round"><g transform="translate(440.9255030021588 187.81478027295321) rotate(315 7.214039281190452 -0.4303443505155542)"><path d="M0 0 C0.01 -0.94, -0.21 -4.11, 0.08 -5.64 C0.38 -7.16, 1.05 -8.23, 1.77 -9.15 C2.5 -10.07, 3.33 -10.76, 4.44 -11.16 C5.55 -11.55, 7.3 -11.64, 8.42 -11.51 C9.54 -11.38, 10.31 -11, 11.16 -10.39 C12 -9.78, 12.93 -8.8, 13.47 -7.86 C14.02 -6.93, 14.28 -6.67, 14.43 -4.79 C14.58 -2.9, 14.43 1.66, 14.36 3.46 C14.3 5.25, 14.38 5.12, 14.06 6 C13.73 6.88, 13.26 7.97, 12.42 8.74 C11.58 9.52, 10.19 10.35, 9.04 10.65 C7.88 10.95, 6.54 10.74, 5.49 10.53 C4.44 10.33, 3.58 9.98, 2.75 9.42 C1.92 8.87, 0.95 8.12, 0.5 7.19 C0.04 6.25, 0.11 5.02, 0.03 3.83 C-0.06 2.63, 0 0.64, 0 0 M0 0 C0.01 -0.94, -0.21 -4.11, 0.08 -5.64 C0.38 -7.16, 1.05 -8.23, 1.77 -9.15 C2.5 -10.07, 3.33 -10.76, 4.44 -11.16 C5.55 -11.55, 7.3 -11.64, 8.42 -11.51 C9.54 -11.38, 10.31 -11, 11.16 -10.39 C12 -9.78, 12.93 -8.8, 13.47 -7.86 C14.02 -6.93, 14.28 -6.67, 14.43 -4.79 C14.58 -2.9, 14.43 1.66, 14.36 3.46 C14.3 5.25, 14.38 5.12, 14.06 6 C13.73 6.88, 13.26 7.97, 12.42 8.74 C11.58 9.52, 10.19 10.35, 9.04 10.65 C7.88 10.95, 6.54 10.74, 5.49 10.53 C4.44 10.33, 3.58 9.98, 2.75 9.42 C1.92 8.87, 0.95 8.12, 0.5 7.19 C0.04 6.25, 0.11 5.02, 0.03 3.83 C-0.06 2.63, 0 0.64, 0 0" stroke="#E1E1E1" stroke-width="4" fill="none"></path></g></g><mask></mask><g stroke-linecap="round"><g transform="translate(416.2724699323764 197.80632640805248) rotate(0 7.214039281190452 -0.4303443505155542)"><path d="M0 0 C0.01 -0.94, -0.21 -4.11, 0.08 -5.64 C0.38 -7.16, 1.05 -8.23, 1.77 -9.15 C2.5 -10.07, 3.33 -10.76, 4.44 -11.16 C5.55 -11.55, 7.3 -11.64, 8.42 -11.51 C9.54 -11.38, 10.31 -11, 11.16 -10.39 C12 -9.78, 12.93 -8.8, 13.47 -7.86 C14.02 -6.93, 14.28 -6.67, 14.43 -4.79 C14.58 -2.9, 14.43 1.66, 14.36 3.46 C14.3 5.25, 14.38 5.12, 14.06 6 C13.73 6.88, 13.26 7.97, 12.42 8.74 C11.58 9.52, 10.19 10.35, 9.04 10.65 C7.88 10.95, 6.54 10.74, 5.49 10.53 C4.44 10.33, 3.58 9.98, 2.75 9.42 C1.92 8.87, 0.95 8.12, 0.5 7.19 C0.04 6.25, 0.11 5.02, 0.03 3.83 C-0.06 2.63, 0 0.64, 0 0 M0 0 C0.01 -0.94, -0.21 -4.11, 0.08 -5.64 C0.38 -7.16, 1.05 -8.23, 1.77 -9.15 C2.5 -10.07, 3.33 -10.76, 4.44 -11.16 C5.55 -11.55, 7.3 -11.64, 8.42 -11.51 C9.54 -11.38, 10.31 -11, 11.16 -10.39 C12 -9.78, 12.93 -8.8, 13.47 -7.86 C14.02 -6.93, 14.28 -6.67, 14.43 -4.79 C14.58 -2.9, 14.43 1.66, 14.36 3.46 C14.3 5.25, 14.38 5.12, 14.06 6 C13.73 6.88, 13.26 7.97, 12.42 8.74 C11.58 9.52, 10.19 10.35, 9.04 10.65 C7.88 10.95, 6.54 10.74, 5.49 10.53 C4.44 10.33, 3.58 9.98, 2.75 9.42 C1.92 8.87, 0.95 8.12, 0.5 7.19 C0.04 6.25, 0.11 5.02, 0.03 3.83 C-0.06 2.63, 0 0.64, 0 0" stroke="#E1E1E1" stroke-width="4" fill="none"></path></g></g><mask></mask><g stroke-linecap="round"><g transform="translate(392.181647323837 138.6731707301047) rotate(315 7.214039281190452 -0.4303443505155542)"><path d="M0 0 C0.01 -0.94, -0.21 -4.11, 0.08 -5.64 C0.38 -7.16, 1.05 -8.23, 1.77 -9.15 C2.5 -10.07, 3.33 -10.76, 4.44 -11.16 C5.55 -11.55, 7.3 -11.64, 8.42 -11.51 C9.54 -11.38, 10.31 -11, 11.16 -10.39 C12 -9.78, 12.93 -8.8, 13.47 -7.86 C14.02 -6.93, 14.28 -6.67, 14.43 -4.79 C14.58 -2.9, 14.43 1.66, 14.36 3.46 C14.3 5.25, 14.38 5.12, 14.06 6 C13.73 6.88, 13.26 7.97, 12.42 8.74 C11.58 9.52, 10.19 10.35, 9.04 10.65 C7.88 10.95, 6.54 10.74, 5.49 10.53 C4.44 10.33, 3.58 9.98, 2.75 9.42 C1.92 8.87, 0.95 8.12, 0.5 7.19 C0.04 6.25, 0.11 5.02, 0.03 3.83 C-0.06 2.63, 0 0.64, 0 0 M0 0 C0.01 -0.94, -0.21 -4.11, 0.08 -5.64 C0.38 -7.16, 1.05 -8.23, 1.77 -9.15 C2.5 -10.07, 3.33 -10.76, 4.44 -11.16 C5.55 -11.55, 7.3 -11.64, 8.42 -11.51 C9.54 -11.38, 10.31 -11, 11.16 -10.39 C12 -9.78, 12.93 -8.8, 13.47 -7.86 C14.02 -6.93, 14.28 -6.67, 14.43 -4.79 C14.58 -2.9, 14.43 1.66, 14.36 3.46 C14.3 5.25, 14.38 5.12, 14.06 6 C13.73 6.88, 13.26 7.97, 12.42 8.74 C11.58 9.52, 10.19 10.35, 9.04 10.65 C7.88 10.95, 6.54 10.74, 5.49 10.53 C4.44 10.33, 3.58 9.98, 2.75 9.42 C1.92 8.87, 0.95 8.12, 0.5 7.19 C0.04 6.25, 0.11 5.02, 0.03 3.83 C-0.06 2.63, 0 0.64, 0 0" stroke="#E1E1E1" stroke-width="4" fill="none"></path></g></g><mask></mask><g stroke-linecap="round"><g transform="translate(385.43608371448244 21.56584678552332) rotate(0 7.214039281190452 -0.4303443505155542)"><path d="M0 0 C0.01 -0.94, -0.21 -4.11, 0.08 -5.64 C0.38 -7.16, 1.05 -8.23, 1.77 -9.15 C2.5 -10.07, 3.33 -10.76, 4.44 -11.16 C5.55 -11.55, 7.3 -11.64, 8.42 -11.51 C9.54 -11.38, 10.31 -11, 11.16 -10.39 C12 -9.78, 12.93 -8.8, 13.47 -7.86 C14.02 -6.93, 14.28 -6.67, 14.43 -4.79 C14.58 -2.9, 14.43 1.66, 14.36 3.46 C14.3 5.25, 14.38 5.12, 14.06 6 C13.73 6.88, 13.26 7.97, 12.42 8.74 C11.58 9.52, 10.19 10.35, 9.04 10.65 C7.88 10.95, 6.54 10.74, 5.49 10.53 C4.44 10.33, 3.58 9.98, 2.75 9.42 C1.92 8.87, 0.95 8.12, 0.5 7.19 C0.04 6.25, 0.11 5.02, 0.03 3.83 C-0.06 2.63, 0 0.64, 0 0 M0 0 C0.01 -0.94, -0.21 -4.11, 0.08 -5.64 C0.38 -7.16, 1.05 -8.23, 1.77 -9.15 C2.5 -10.07, 3.33 -10.76, 4.44 -11.16 C5.55 -11.55, 7.3 -11.64, 8.42 -11.51 C9.54 -11.38, 10.31 -11, 11.16 -10.39 C12 -9.78, 12.93 -8.8, 13.47 -7.86 C14.02 -6.93, 14.28 -6.67, 14.43 -4.79 C14.58 -2.9, 14.43 1.66, 14.36 3.46 C14.3 5.25, 14.38 5.12, 14.06 6 C13.73 6.88, 13.26 7.97, 12.42 8.74 C11.58 9.52, 10.19 10.35, 9.04 10.65 C7.88 10.95, 6.54 10.74, 5.49 10.53 C4.44 10.33, 3.58 9.98, 2.75 9.42 C1.92 8.87, 0.95 8.12, 0.5 7.19 C0.04 6.25, 0.11 5.02, 0.03 3.83 C-0.06 2.63, 0 0.64, 0 0" stroke="#E1E1E1" stroke-width="4" fill="none"></path></g></g><mask></mask><g stroke-linecap="round"><g transform="translate(385.661065422769 60.07375950150032) rotate(0 7.214039281190452 -0.4303443505155542)"><path d="M0 0 C0.01 -0.94, -0.21 -4.11, 0.08 -5.64 C0.38 -7.16, 1.05 -8.23, 1.77 -9.15 C2.5 -10.07, 3.33 -10.76, 4.44 -11.16 C5.55 -11.55, 7.3 -11.64, 8.42 -11.51 C9.54 -11.38, 10.31 -11, 11.16 -10.39 C12 -9.78, 12.93 -8.8, 13.47 -7.86 C14.02 -6.93, 14.28 -6.67, 14.43 -4.79 C14.58 -2.9, 14.43 1.66, 14.36 3.46 C14.3 5.25, 14.38 5.12, 14.06 6 C13.73 6.88, 13.26 7.97, 12.42 8.74 C11.58 9.52, 10.19 10.35, 9.04 10.65 C7.88 10.95, 6.54 10.74, 5.49 10.53 C4.44 10.33, 3.58 9.98, 2.75 9.42 C1.92 8.87, 0.95 8.12, 0.5 7.19 C0.04 6.25, 0.11 5.02, 0.03 3.83 C-0.06 2.63, 0 0.64, 0 0 M0 0 C0.01 -0.94, -0.21 -4.11, 0.08 -5.64 C0.38 -7.16, 1.05 -8.23, 1.77 -9.15 C2.5 -10.07, 3.33 -10.76, 4.44 -11.16 C5.55 -11.55, 7.3 -11.64, 8.42 -11.51 C9.54 -11.38, 10.31 -11, 11.16 -10.39 C12 -9.78, 12.93 -8.8, 13.47 -7.86 C14.02 -6.93, 14.28 -6.67, 14.43 -4.79 C14.58 -2.9, 14.43 1.66, 14.36 3.46 C14.3 5.25, 14.38 5.12, 14.06 6 C13.73 6.88, 13.26 7.97, 12.42 8.74 C11.58 9.52, 10.19 10.35, 9.04 10.65 C7.88 10.95, 6.54 10.74, 5.49 10.53 C4.44 10.33, 3.58 9.98, 2.75 9.42 C1.92 8.87, 0.95 8.12, 0.5 7.19 C0.04 6.25, 0.11 5.02, 0.03 3.83 C-0.06 2.63, 0 0.64, 0 0" stroke="#E1E1E1" stroke-width="4" fill="none"></path></g></g><mask></mask><g stroke-linecap="round"><g transform="translate(404.94310465069174 40.616320493382375) rotate(270 7.214039281190452 -0.4303443505155542)"><path d="M0 0 C0.01 -0.94, -0.21 -4.11, 0.08 -5.64 C0.38 -7.16, 1.05 -8.23, 1.77 -9.15 C2.5 -10.07, 3.33 -10.76, 4.44 -11.16 C5.55 -11.55, 7.3 -11.64, 8.42 -11.51 C9.54 -11.38, 10.31 -11, 11.16 -10.39 C12 -9.78, 12.93 -8.8, 13.47 -7.86 C14.02 -6.93, 14.28 -6.67, 14.43 -4.79 C14.58 -2.9, 14.43 1.66, 14.36 3.46 C14.3 5.25, 14.38 5.12, 14.06 6 C13.73 6.88, 13.26 7.97, 12.42 8.74 C11.58 9.52, 10.19 10.35, 9.04 10.65 C7.88 10.95, 6.54 10.74, 5.49 10.53 C4.44 10.33, 3.58 9.98, 2.75 9.42 C1.92 8.87, 0.95 8.12, 0.5 7.19 C0.04 6.25, 0.11 5.02, 0.03 3.83 C-0.06 2.63, 0 0.64, 0 0 M0 0 C0.01 -0.94, -0.21 -4.11, 0.08 -5.64 C0.38 -7.16, 1.05 -8.23, 1.77 -9.15 C2.5 -10.07, 3.33 -10.76, 4.44 -11.16 C5.55 -11.55, 7.3 -11.64, 8.42 -11.51 C9.54 -11.38, 10.31 -11, 11.16 -10.39 C12 -9.78, 12.93 -8.8, 13.47 -7.86 C14.02 -6.93, 14.28 -6.67, 14.43 -4.79 C14.58 -2.9, 14.43 1.66, 14.36 3.46 C14.3 5.25, 14.38 5.12, 14.06 6 C13.73 6.88, 13.26 7.97, 12.42 8.74 C11.58 9.52, 10.19 10.35, 9.04 10.65 C7.88 10.95, 6.54 10.74, 5.49 10.53 C4.44 10.33, 3.58 9.98, 2.75 9.42 C1.92 8.87, 0.95 8.12, 0.5 7.19 C0.04 6.25, 0.11 5.02, 0.03 3.83 C-0.06 2.63, 0 0.64, 0 0" stroke="#E1E1E1" stroke-width="4" fill="none"></path></g></g><mask></mask><g stroke-linecap="round"><g transform="translate(366.5115395414479 41.005063974377265) rotate(270 7.214039281190452 -0.4303443505155542)"><path d="M0 0 C0.01 -0.94, -0.21 -4.11, 0.08 -5.64 C0.38 -7.16, 1.05 -8.23, 1.77 -9.15 C2.5 -10.07, 3.33 -10.76, 4.44 -11.16 C5.55 -11.55, 7.3 -11.64, 8.42 -11.51 C9.54 -11.38, 10.31 -11, 11.16 -10.39 C12 -9.78, 12.93 -8.8, 13.47 -7.86 C14.02 -6.93, 14.28 -6.67, 14.43 -4.79 C14.58 -2.9, 14.43 1.66, 14.36 3.46 C14.3 5.25, 14.38 5.12, 14.06 6 C13.73 6.88, 13.26 7.97, 12.42 8.74 C11.58 9.52, 10.19 10.35, 9.04 10.65 C7.88 10.95, 6.54 10.74, 5.49 10.53 C4.44 10.33, 3.58 9.98, 2.75 9.42 C1.92 8.87, 0.95 8.12, 0.5 7.19 C0.04 6.25, 0.11 5.02, 0.03 3.83 C-0.06 2.63, 0 0.64, 0 0 M0 0 C0.01 -0.94, -0.21 -4.11, 0.08 -5.64 C0.38 -7.16, 1.05 -8.23, 1.77 -9.15 C2.5 -10.07, 3.33 -10.76, 4.44 -11.16 C5.55 -11.55, 7.3 -11.64, 8.42 -11.51 C9.54 -11.38, 10.31 -11, 11.16 -10.39 C12 -9.78, 12.93 -8.8, 13.47 -7.86 C14.02 -6.93, 14.28 -6.67, 14.43 -4.79 C14.58 -2.9, 14.43 1.66, 14.36 3.46 C14.3 5.25, 14.38 5.12, 14.06 6 C13.73 6.88, 13.26 7.97, 12.42 8.74 C11.58 9.52, 10.19 10.35, 9.04 10.65 C7.88 10.95, 6.54 10.74, 5.49 10.53 C4.44 10.33, 3.58 9.98, 2.75 9.42 C1.92 8.87, 0.95 8.12, 0.5 7.19 C0.04 6.25, 0.11 5.02, 0.03 3.83 C-0.06 2.63, 0 0.64, 0 0" stroke="#E1E1E1" stroke-width="4" fill="none"></path></g></g><mask></mask><g stroke-linecap="round" transform="translate(406.6571024699671 285.35125947048124) rotate(0 24.172843570705368 24.172843570705368)"><path d="M48.35 24.17 C48.35 25.57, 48.22 26.99, 47.98 28.37 C47.74 29.75, 47.37 31.13, 46.89 32.44 C46.41 33.76, 45.81 35.05, 45.11 36.26 C44.41 37.47, 43.59 38.64, 42.69 39.71 C41.79 40.78, 40.78 41.79, 39.71 42.69 C38.64 43.59, 37.47 44.41, 36.26 45.11 C35.05 45.81, 33.76 46.41, 32.44 46.89 C31.13 47.37, 29.75 47.74, 28.37 47.98 C26.99 48.22, 25.57 48.35, 24.17 48.35 C22.77 48.35, 21.35 48.22, 19.98 47.98 C18.6 47.74, 17.22 47.37, 15.91 46.89 C14.59 46.41, 13.3 45.81, 12.09 45.11 C10.87 44.41, 9.71 43.59, 8.63 42.69 C7.56 41.79, 6.55 40.78, 5.66 39.71 C4.76 38.64, 3.94 37.47, 3.24 36.26 C2.54 35.05, 1.94 33.76, 1.46 32.44 C0.98 31.13, 0.61 29.75, 0.37 28.37 C0.12 26.99, 0 25.57, 0 24.17 C0 22.77, 0.12 21.35, 0.37 19.98 C0.61 18.6, 0.98 17.22, 1.46 15.91 C1.94 14.59, 2.54 13.3, 3.24 12.09 C3.94 10.87, 4.76 9.71, 5.66 8.63 C6.55 7.56, 7.56 6.55, 8.63 5.66 C9.71 4.76, 10.87 3.94, 12.09 3.24 C13.3 2.54, 14.59 1.94, 15.91 1.46 C17.22 0.98, 18.6 0.61, 19.98 0.37 C21.35 0.12, 22.77 0, 24.17 0 C25.57 0, 26.99 0.12, 28.37 0.37 C29.75 0.61, 31.13 0.98, 32.44 1.46 C33.76 1.94, 35.05 2.54, 36.26 3.24 C37.47 3.94, 38.64 4.76, 39.71 5.66 C40.78 6.55, 41.79 7.56, 42.69 8.63 C43.59 9.71, 44.41 10.87, 45.11 12.09 C45.81 13.3, 46.41 14.59, 46.89 15.91 C47.37 17.22, 47.74 18.6, 47.98 19.98 C48.22 21.35, 48.28 23.47, 48.35 24.17 C48.41 24.87, 48.41 23.47, 48.35 24.17" stroke="#E1E1E1" stroke-width="4" fill="none"></path></g><g stroke-linecap="round" transform="translate(423.2025731243859 300.56439679133706) rotate(0 7.931224016905304 7.931224016905308)"><path d="M15.86 7.93 C15.86 8.39, 15.82 8.86, 15.74 9.31 C15.66 9.76, 15.54 10.21, 15.38 10.64 C15.23 11.08, 15.03 11.5, 14.8 11.9 C14.57 12.29, 14.3 12.68, 14.01 13.03 C13.71 13.38, 13.38 13.71, 13.03 14.01 C12.68 14.3, 12.29 14.57, 11.9 14.8 C11.5 15.03, 11.08 15.23, 10.64 15.38 C10.21 15.54, 9.76 15.66, 9.31 15.74 C8.86 15.82, 8.39 15.86, 7.93 15.86 C7.47 15.86, 7.01 15.82, 6.55 15.74 C6.1 15.66, 5.65 15.54, 5.22 15.38 C4.79 15.23, 4.36 15.03, 3.97 14.8 C3.57 14.57, 3.18 14.3, 2.83 14.01 C2.48 13.71, 2.15 13.38, 1.86 13.03 C1.56 12.68, 1.29 12.29, 1.06 11.9 C0.83 11.5, 0.64 11.08, 0.48 10.64 C0.32 10.21, 0.2 9.76, 0.12 9.31 C0.04 8.86, 0 8.39, 0 7.93 C0 7.47, 0.04 7.01, 0.12 6.55 C0.2 6.1, 0.32 5.65, 0.48 5.22 C0.64 4.79, 0.83 4.36, 1.06 3.97 C1.29 3.57, 1.56 3.18, 1.86 2.83 C2.15 2.48, 2.48 2.15, 2.83 1.86 C3.18 1.56, 3.57 1.29, 3.97 1.06 C4.36 0.83, 4.79 0.64, 5.22 0.48 C5.65 0.32, 6.1 0.2, 6.55 0.12 C7.01 0.04, 7.47 0, 7.93 0 C8.39 0, 8.86 0.04, 9.31 0.12 C9.76 0.2, 10.21 0.32, 10.64 0.48 C11.08 0.64, 11.5 0.83, 11.9 1.06 C12.29 1.29, 12.68 1.56, 13.03 1.86 C13.38 2.15, 13.71 2.48, 14.01 2.83 C14.3 3.18, 14.57 3.57, 14.8 3.97 C15.03 4.36, 15.23 4.79, 15.38 5.22 C15.54 5.65, 15.66 6.1, 15.74 6.55 C15.82 7.01, 15.84 7.7, 15.86 7.93 C15.88 8.16, 15.88 7.7, 15.86 7.93" stroke="#E1E1E1" stroke-width="4" fill="none"></path></g><g stroke-linecap="round"><g transform="translate(399.9964503220246 352.33836561504046) rotate(0 12.074757485311423 52.331117298848966)"><path d="M0 0 C-1.95 -0.93, -7.52 -3.93, -11.7 -5.57 C-15.88 -7.21, -21.15 -8.71, -25.06 -9.86 C-28.97 -11.01, -32.71 -12.03, -35.15 -12.5 C-37.6 -12.96, -38.36 -13.04, -39.71 -12.66 C-41.07 -12.28, -42.44 -11.26, -43.27 -10.23 C-44.11 -9.2, -44.57 -7.73, -44.73 -6.47 C-44.88 -5.21, -44.85 -3.89, -44.21 -2.66 C-43.56 -1.43, -42.98 -0.04, -40.86 0.9 C-38.74 1.84, -35.22 1.95, -31.49 2.98 C-27.76 4.01, -23.01 5.21, -18.46 7.07 C-13.92 8.94, -8.92 11.38, -4.22 14.18 C0.48 16.98, 6.16 21.01, 9.75 23.88 C13.34 26.75, 15.65 29.71, 17.33 31.41 C19.01 33.1, 19.98 33.46, 19.81 34.06 C19.63 34.66, 18.55 34.15, 16.27 34.99 C13.99 35.83, 9.34 37.35, 6.13 39.11 C2.91 40.87, -0.3 43.07, -3.02 45.56 C-5.74 48.05, -8.3 51.08, -10.21 54.06 C-12.12 57.03, -13.69 60.3, -14.49 63.4 C-15.3 66.5, -15.4 69.6, -15.03 72.66 C-14.66 75.73, -13.68 78.66, -12.25 81.79 C-10.82 84.92, -9.21 88.54, -6.43 91.44 C-3.64 94.35, 0.04 97.68, 4.44 99.2 C8.84 100.72, 15.01 101.28, 19.95 100.55 C24.89 99.82, 30.15 97.87, 34.09 94.83 C38.04 91.79, 41.62 86.02, 43.65 82.32 C45.67 78.63, 45.64 75.4, 46.26 72.66 C46.88 69.92, 46.71 66.24, 47.38 65.88 C48.05 65.52, 49.25 67.95, 50.28 70.51 C51.3 73.08, 52.97 77.4, 53.51 81.27 C54.05 85.13, 53.87 90.26, 53.5 93.7 C53.13 97.14, 52.1 99.64, 51.31 101.91 C50.52 104.19, 49.16 105.54, 48.76 107.34 C48.35 109.14, 47.93 111.06, 48.89 112.73 C49.85 114.39, 52.67 116.83, 54.53 117.32 C56.39 117.82, 58.1 117.83, 60.07 115.71 C62.03 113.59, 64.86 109.38, 66.32 104.61 C67.79 99.83, 68.87 92.68, 68.88 87.05 C68.89 81.43, 68.18 76.35, 66.4 70.87 C64.63 65.4, 61 58.31, 58.24 54.2 C55.47 50.1, 52.19 48.23, 49.84 46.24 C47.48 44.24, 45.92 44.16, 44.12 42.22 C42.32 40.27, 40.9 37.18, 39.03 34.58 C37.15 31.97, 35.17 29.25, 32.88 26.57 C30.58 23.88, 28.97 21.83, 25.27 18.47 C21.56 15.11, 14.84 9.49, 10.63 6.42 C6.42 3.34, 1.77 1.07, 0 0 M0 0 C-1.95 -0.93, -7.52 -3.93, -11.7 -5.57 C-15.88 -7.21, -21.15 -8.71, -25.06 -9.86 C-28.97 -11.01, -32.71 -12.03, -35.15 -12.5 C-37.6 -12.96, -38.36 -13.04, -39.71 -12.66 C-41.07 -12.28, -42.44 -11.26, -43.27 -10.23 C-44.11 -9.2, -44.57 -7.73, -44.73 -6.47 C-44.88 -5.21, -44.85 -3.89, -44.21 -2.66 C-43.56 -1.43, -42.98 -0.04, -40.86 0.9 C-38.74 1.84, -35.22 1.95, -31.49 2.98 C-27.76 4.01, -23.01 5.21, -18.46 7.07 C-13.92 8.94, -8.92 11.38, -4.22 14.18 C0.48 16.98, 6.16 21.01, 9.75 23.88 C13.34 26.75, 15.65 29.71, 17.33 31.41 C19.01 33.1, 19.98 33.46, 19.81 34.06 C19.63 34.66, 18.55 34.15, 16.27 34.99 C13.99 35.83, 9.34 37.35, 6.13 39.11 C2.91 40.87, -0.3 43.07, -3.02 45.56 C-5.74 48.05, -8.3 51.08, -10.21 54.06 C-12.12 57.03, -13.69 60.3, -14.49 63.4 C-15.3 66.5, -15.4 69.6, -15.03 72.66 C-14.66 75.73, -13.68 78.66, -12.25 81.79 C-10.82 84.92, -9.21 88.54, -6.43 91.44 C-3.64 94.35, 0.04 97.68, 4.44 99.2 C8.84 100.72, 15.01 101.28, 19.95 100.55 C24.89 99.82, 30.15 97.87, 34.09 94.83 C38.04 91.79, 41.62 86.02, 43.65 82.32 C45.67 78.63, 45.64 75.4, 46.26 72.66 C46.88 69.92, 46.71 66.24, 47.38 65.88 C48.05 65.52, 49.25 67.95, 50.28 70.51 C51.3 73.08, 52.97 77.4, 53.51 81.27 C54.05 85.13, 53.87 90.26, 53.5 93.7 C53.13 97.14, 52.1 99.64, 51.31 101.91 C50.52 104.19, 49.16 105.54, 48.76 107.34 C48.35 109.14, 47.93 111.06, 48.89 112.73 C49.85 114.39, 52.67 116.83, 54.53 117.32 C56.39 117.82, 58.1 117.83, 60.07 115.71 C62.03 113.59, 64.86 109.38, 66.32 104.61 C67.79 99.83, 68.87 92.68, 68.88 87.05 C68.89 81.43, 68.18 76.35, 66.4 70.87 C64.63 65.4, 61 58.31, 58.24 54.2 C55.47 50.1, 52.19 48.23, 49.84 46.24 C47.48 44.24, 45.92 44.16, 44.12 42.22 C42.32 40.27, 40.9 37.18, 39.03 34.58 C37.15 31.97, 35.17 29.25, 32.88 26.57 C30.58 23.88, 28.97 21.83, 25.27 18.47 C21.56 15.11, 14.84 9.49, 10.63 6.42 C6.42 3.34, 1.77 1.07, 0 0" stroke="#E1E1E1" stroke-width="4" fill="none"></path></g></g><mask></mask><g stroke-linecap="round"><g transform="translate(427.3739868408913 402.0380366915311) rotate(0 -11.179380317832809 18.12859575096378)"><path d="M0 0 C0.59 0.85, 2.7 3.05, 3.53 5.09 C4.35 7.13, 4.8 9.32, 4.95 12.25 C5.09 15.18, 4.83 20, 4.39 22.66 C3.96 25.33, 3.41 26.48, 2.33 28.22 C1.26 29.96, -0.47 31.85, -2.04 33.13 C-3.6 34.42, -5.15 35.39, -7.06 35.93 C-8.97 36.46, -11.57 36.49, -13.52 36.34 C-15.46 36.2, -17.05 35.91, -18.74 35.07 C-20.43 34.24, -22.33 32.77, -23.64 31.35 C-24.94 29.93, -25.96 28.49, -26.57 26.54 C-27.18 24.59, -27.42 21.84, -27.31 19.65 C-27.19 17.46, -26.81 15.33, -25.9 13.41 C-24.98 11.49, -23.89 10, -21.82 8.12 C-19.75 6.25, -16.14 3.53, -13.45 2.16 C-10.76 0.8, -7.9 0.27, -5.66 -0.09 C-3.42 -0.45, -0.94 -0.01, 0 0 M0 0 C0.59 0.85, 2.7 3.05, 3.53 5.09 C4.35 7.13, 4.8 9.32, 4.95 12.25 C5.09 15.18, 4.83 20, 4.39 22.66 C3.96 25.33, 3.41 26.48, 2.33 28.22 C1.26 29.96, -0.47 31.85, -2.04 33.13 C-3.6 34.42, -5.15 35.39, -7.06 35.93 C-8.97 36.46, -11.57 36.49, -13.52 36.34 C-15.46 36.2, -17.05 35.91, -18.74 35.07 C-20.43 34.24, -22.33 32.77, -23.64 31.35 C-24.94 29.93, -25.96 28.49, -26.57 26.54 C-27.18 24.59, -27.42 21.84, -27.31 19.65 C-27.19 17.46, -26.81 15.33, -25.9 13.41 C-24.98 11.49, -23.89 10, -21.82 8.12 C-19.75 6.25, -16.14 3.53, -13.45 2.16 C-10.76 0.8, -7.9 0.27, -5.66 -0.09 C-3.42 -0.45, -0.94 -0.01, 0 0" stroke="#E1E1E1" stroke-width="4" fill="none"></path></g></g><mask></mask></svg>