<svg version="1.1" xmlns="http://www.w3.org/2000/svg" viewBox="0 0 666.5631224942982 620.7364377037475" width="666.5631224942982" height="620.7364377037475" class="excalidraw-svg"><!-- svg-source:excalidraw --><metadata></metadata><defs><style class="style-fonts">
      </style></defs><rect x="0" y="0" width="666.5631224942982" height="620.7364377037475" fill="#000000"></rect><g stroke-linecap="round"><g transform="translate(190.79513347868578 188.49552414696882) rotate(0 -31.25035842285496 40.4677903309389)"><path d="M0 0 C0.68 2.52, 1.75 9.24, 4.11 15.14 C6.46 21.04, 10.55 29.75, 14.15 35.39 C17.74 41.04, 21.28 46.16, 25.67 49.01 C30.05 51.85, 35.06 52.25, 40.47 52.46 C45.89 52.67, 56.03 49.66, 58.14 50.26 C60.25 50.85, 54.73 54.04, 53.13 56.02 C51.53 57.99, 49.6 59.3, 48.55 62.13 C47.5 64.96, 46.6 69.26, 46.83 73 C47.06 76.74, 48.16 80.97, 49.93 84.56 C51.7 88.16, 53.65 91.69, 57.46 94.56 C61.26 97.43, 67.1 99.27, 72.75 101.77 C78.4 104.28, 86.91 107.6, 91.35 109.58 C95.79 111.56, 97.84 111.93, 99.39 113.66 C100.95 115.38, 101.57 117.12, 100.69 119.95 C99.8 122.78, 96.38 127.26, 94.11 130.61 C91.83 133.97, 89.18 138.28, 87.04 140.06 C84.9 141.84, 83.7 142.68, 81.25 141.28 C78.8 139.88, 76.35 135.41, 72.36 131.64 C68.36 127.88, 61.79 122, 57.26 118.7 C52.74 115.41, 49.91 113.1, 45.21 111.88 C40.52 110.66, 33.82 110.56, 29.09 111.37 C24.36 112.19, 20.31 113.77, 16.83 116.75 C13.34 119.73, 10.3 124.79, 8.19 129.25 C6.08 133.71, 5.1 144.2, 4.16 143.49 C3.22 142.78, 4.37 129.97, 2.53 124.97 C0.69 119.97, -2.34 116.07, -6.89 113.48 C-11.45 110.9, -16.83 109.85, -24.81 109.45 C-32.79 109.06, -44.36 109.16, -54.76 111.12 C-65.15 113.08, -76.91 116.27, -87.18 121.22 C-97.46 126.17, -107.48 133.44, -116.43 140.84 C-125.39 148.25, -134.76 158.39, -140.92 165.67 C-147.08 172.95, -149.67 177.3, -153.38 184.53 C-157.09 191.76, -162.33 209, -163.19 209.06 C-164.05 209.13, -160.64 192.35, -158.54 184.92 C-156.43 177.49, -154.76 172.18, -150.55 164.47 C-146.34 156.77, -139.79 146.67, -133.29 138.71 C-126.79 130.75, -119.41 123.21, -111.55 116.73 C-103.68 110.25, -94 104.48, -86.11 99.8 C-78.21 95.12, -71.49 91.38, -64.17 88.65 C-56.85 85.93, -48.6 85.33, -42.19 83.46 C-35.78 81.58, -30.09 79.7, -25.72 77.43 C-21.36 75.16, -18.42 73.01, -16.01 69.85 C-13.6 66.69, -11.91 63.01, -11.27 58.46 C-10.62 53.92, -11.05 48.77, -12.14 42.56 C-13.24 36.35, -16.12 27.98, -17.85 21.22 C-19.57 14.45, -21.48 8.65, -22.5 1.96 C-23.52 -4.74, -24.01 -10.62, -23.97 -18.97 C-23.92 -27.32, -24.01 -38.38, -22.21 -48.15 C-20.4 -57.91, -16.75 -68.62, -13.15 -77.55 C-9.55 -86.49, -4.86 -94.84, -0.58 -101.75 C3.7 -108.67, 8.84 -114.63, 12.54 -119.02 C16.23 -123.42, 21.98 -130.36, 21.59 -128.13 C21.19 -125.89, 13.61 -113.34, 10.15 -105.61 C6.7 -97.87, 3.07 -90.44, 0.86 -81.73 C-1.36 -73.01, -2.47 -62.28, -3.16 -53.3 C-3.85 -44.33, -3.81 -36.74, -3.28 -27.86 C-2.76 -18.97, -0.55 -4.64, 0 0 M0 0 C0.68 2.52, 1.75 9.24, 4.11 15.14 C6.46 21.04, 10.55 29.75, 14.15 35.39 C17.74 41.04, 21.28 46.16, 25.67 49.01 C30.05 51.85, 35.06 52.25, 40.47 52.46 C45.89 52.67, 56.03 49.66, 58.14 50.26 C60.25 50.85, 54.73 54.04, 53.13 56.02 C51.53 57.99, 49.6 59.3, 48.55 62.13 C47.5 64.96, 46.6 69.26, 46.83 73 C47.06 76.74, 48.16 80.97, 49.93 84.56 C51.7 88.16, 53.65 91.69, 57.46 94.56 C61.26 97.43, 67.1 99.27, 72.75 101.77 C78.4 104.28, 86.91 107.6, 91.35 109.58 C95.79 111.56, 97.84 111.93, 99.39 113.66 C100.95 115.38, 101.57 117.12, 100.69 119.95 C99.8 122.78, 96.38 127.26, 94.11 130.61 C91.83 133.97, 89.18 138.28, 87.04 140.06 C84.9 141.84, 83.7 142.68, 81.25 141.28 C78.8 139.88, 76.35 135.41, 72.36 131.64 C68.36 127.88, 61.79 122, 57.26 118.7 C52.74 115.41, 49.91 113.1, 45.21 111.88 C40.52 110.66, 33.82 110.56, 29.09 111.37 C24.36 112.19, 20.31 113.77, 16.83 116.75 C13.34 119.73, 10.3 124.79, 8.19 129.25 C6.08 133.71, 5.1 144.2, 4.16 143.49 C3.22 142.78, 4.37 129.97, 2.53 124.97 C0.69 119.97, -2.34 116.07, -6.89 113.48 C-11.45 110.9, -16.83 109.85, -24.81 109.45 C-32.79 109.06, -44.36 109.16, -54.76 111.12 C-65.15 113.08, -76.91 116.27, -87.18 121.22 C-97.46 126.17, -107.48 133.44, -116.43 140.84 C-125.39 148.25, -134.76 158.39, -140.92 165.67 C-147.08 172.95, -149.67 177.3, -153.38 184.53 C-157.09 191.76, -162.33 209, -163.19 209.06 C-164.05 209.13, -160.64 192.35, -158.54 184.92 C-156.43 177.49, -154.76 172.18, -150.55 164.47 C-146.34 156.77, -139.79 146.67, -133.29 138.71 C-126.79 130.75, -119.41 123.21, -111.55 116.73 C-103.68 110.25, -94 104.48, -86.11 99.8 C-78.21 95.12, -71.49 91.38, -64.17 88.65 C-56.85 85.93, -48.6 85.33, -42.19 83.46 C-35.78 81.58, -30.09 79.7, -25.72 77.43 C-21.36 75.16, -18.42 73.01, -16.01 69.85 C-13.6 66.69, -11.91 63.01, -11.27 58.46 C-10.62 53.92, -11.05 48.77, -12.14 42.56 C-13.24 36.35, -16.12 27.98, -17.85 21.22 C-19.57 14.45, -21.48 8.65, -22.5 1.96 C-23.52 -4.74, -24.01 -10.62, -23.97 -18.97 C-23.92 -27.32, -24.01 -38.38, -22.21 -48.15 C-20.4 -57.91, -16.75 -68.62, -13.15 -77.55 C-9.55 -86.49, -4.86 -94.84, -0.58 -101.75 C3.7 -108.67, 8.84 -114.63, 12.54 -119.02 C16.23 -123.42, 21.98 -130.36, 21.59 -128.13 C21.19 -125.89, 13.61 -113.34, 10.15 -105.61 C6.7 -97.87, 3.07 -90.44, 0.86 -81.73 C-1.36 -73.01, -2.47 -62.28, -3.16 -53.3 C-3.85 -44.33, -3.81 -36.74, -3.28 -27.86 C-2.76 -18.97, -0.55 -4.64, 0 0" stroke="#FFFFFF" stroke-width="4" fill="none"></path></g></g><mask></mask><g stroke-linecap="round"><g transform="translate(415.068982326581 240.7286351397711) rotate(0 90.7337788720184 -19.973210046658096)"><path d="M0 0 C1.45 0.41, 5 2.05, 8.68 2.44 C12.36 2.83, 17.39 3.97, 22.1 2.34 C26.81 0.7, 32.32 -2.58, 36.95 -7.38 C41.59 -12.17, 46.28 -19.44, 49.9 -26.45 C53.51 -33.46, 56.73 -40.83, 58.65 -49.46 C60.57 -58.08, 60.86 -68.27, 61.42 -78.21 C61.99 -88.15, 62.56 -99.44, 62.04 -109.09 C61.51 -118.75, 61.14 -127.4, 58.29 -136.14 C55.45 -144.88, 45.33 -158.69, 44.94 -161.55 C44.56 -164.41, 51.72 -159.93, 55.99 -153.29 C60.27 -146.65, 66.7 -131.85, 70.59 -121.72 C74.48 -111.58, 77.85 -104.02, 79.33 -92.47 C80.81 -80.92, 80.3 -63.66, 79.47 -52.41 C78.64 -41.15, 75.72 -31.95, 74.34 -24.93 C72.95 -17.92, 71.05 -15, 71.16 -10.33 C71.28 -5.66, 73.23 -0.47, 75.03 3.08 C76.84 6.63, 77.95 9.14, 81.99 10.97 C86.03 12.8, 93.01 12.37, 99.27 14.07 C105.54 15.77, 112.42 18.28, 119.59 21.18 C126.76 24.08, 133.57 26.49, 142.31 31.49 C151.06 36.48, 163.68 44.68, 172.05 51.16 C180.42 57.64, 185.55 61.77, 192.54 70.36 C199.53 78.95, 208.87 94.16, 213.99 102.7 C219.12 111.24, 225.59 122.72, 223.27 121.6 C220.96 120.49, 208.59 104.84, 200.13 96.01 C191.66 87.18, 181.59 75.85, 172.47 68.63 C163.35 61.4, 153.67 56.62, 145.4 52.66 C137.12 48.7, 132.17 46.7, 122.82 44.87 C113.47 43.04, 98.35 41.89, 89.29 41.69 C80.23 41.49, 74.08 42.09, 68.46 43.67 C62.84 45.24, 58.56 48.3, 55.56 51.14 C52.56 53.98, 51.44 56.43, 50.47 60.69 C49.49 64.95, 50.58 75.74, 49.68 76.72 C48.79 77.7, 47.26 69.75, 45.1 66.58 C42.95 63.41, 40.8 59.88, 36.74 57.7 C32.69 55.52, 26 53.81, 20.76 53.49 C15.53 53.17, 10.4 54.02, 5.33 55.79 C0.25 57.57, -4.92 60.3, -9.7 64.14 C-14.48 67.97, -20.01 75.36, -23.35 78.81 C-26.69 82.25, -27.52 84.53, -29.73 84.82 C-31.93 85.1, -34.55 82.86, -36.56 80.5 C-38.56 78.15, -40.88 74.07, -41.75 70.66 C-42.63 67.25, -43.5 62.52, -41.81 60.02 C-40.11 57.52, -35.93 57.29, -31.59 55.66 C-27.26 54.03, -20.82 52.72, -15.79 50.23 C-10.76 47.73, -4.98 43.96, -1.39 40.7 C2.2 37.43, 4.2 34.05, 5.77 30.66 C7.34 27.27, 8.21 24.45, 8.03 20.35 C7.86 16.26, 6.04 9.5, 4.7 6.11 C3.36 2.71, 0.78 1.02, 0 0 M0 0 C1.45 0.41, 5 2.05, 8.68 2.44 C12.36 2.83, 17.39 3.97, 22.1 2.34 C26.81 0.7, 32.32 -2.58, 36.95 -7.38 C41.59 -12.17, 46.28 -19.44, 49.9 -26.45 C53.51 -33.46, 56.73 -40.83, 58.65 -49.46 C60.57 -58.08, 60.86 -68.27, 61.42 -78.21 C61.99 -88.15, 62.56 -99.44, 62.04 -109.09 C61.51 -118.75, 61.14 -127.4, 58.29 -136.14 C55.45 -144.88, 45.33 -158.69, 44.94 -161.55 C44.56 -164.41, 51.72 -159.93, 55.99 -153.29 C60.27 -146.65, 66.7 -131.85, 70.59 -121.72 C74.48 -111.58, 77.85 -104.02, 79.33 -92.47 C80.81 -80.92, 80.3 -63.66, 79.47 -52.41 C78.64 -41.15, 75.72 -31.95, 74.34 -24.93 C72.95 -17.92, 71.05 -15, 71.16 -10.33 C71.28 -5.66, 73.23 -0.47, 75.03 3.08 C76.84 6.63, 77.95 9.14, 81.99 10.97 C86.03 12.8, 93.01 12.37, 99.27 14.07 C105.54 15.77, 112.42 18.28, 119.59 21.18 C126.76 24.08, 133.57 26.49, 142.31 31.49 C151.06 36.48, 163.68 44.68, 172.05 51.16 C180.42 57.64, 185.55 61.77, 192.54 70.36 C199.53 78.95, 208.87 94.16, 213.99 102.7 C219.12 111.24, 225.59 122.72, 223.27 121.6 C220.96 120.49, 208.59 104.84, 200.13 96.01 C191.66 87.18, 181.59 75.85, 172.47 68.63 C163.35 61.4, 153.67 56.62, 145.4 52.66 C137.12 48.7, 132.17 46.7, 122.82 44.87 C113.47 43.04, 98.35 41.89, 89.29 41.69 C80.23 41.49, 74.08 42.09, 68.46 43.67 C62.84 45.24, 58.56 48.3, 55.56 51.14 C52.56 53.98, 51.44 56.43, 50.47 60.69 C49.49 64.95, 50.58 75.74, 49.68 76.72 C48.79 77.7, 47.26 69.75, 45.1 66.58 C42.95 63.41, 40.8 59.88, 36.74 57.7 C32.69 55.52, 26 53.81, 20.76 53.49 C15.53 53.17, 10.4 54.02, 5.33 55.79 C0.25 57.57, -4.92 60.3, -9.7 64.14 C-14.48 67.97, -20.01 75.36, -23.35 78.81 C-26.69 82.25, -27.52 84.53, -29.73 84.82 C-31.93 85.1, -34.55 82.86, -36.56 80.5 C-38.56 78.15, -40.88 74.07, -41.75 70.66 C-42.63 67.25, -43.5 62.52, -41.81 60.02 C-40.11 57.52, -35.93 57.29, -31.59 55.66 C-27.26 54.03, -20.82 52.72, -15.79 50.23 C-10.76 47.73, -4.98 43.96, -1.39 40.7 C2.2 37.43, 4.2 34.05, 5.77 30.66 C7.34 27.27, 8.21 24.45, 8.03 20.35 C7.86 16.26, 6.04 9.5, 4.7 6.11 C3.36 2.71, 0.78 1.02, 0 0" stroke="#FFFFFF" stroke-width="4" fill="none"></path></g></g><mask></mask><g stroke-linecap="round"><g transform="translate(151.83730501488037 587.6482362972374) rotate(0 191.81760578917192 -86.79993294589849)"><path d="M0 0 C4.66 -0.06, 18.07 0.4, 27.97 -0.34 C37.87 -1.07, 49.57 -1.86, 59.42 -4.42 C69.27 -6.98, 78.08 -10.56, 87.07 -15.69 C96.05 -20.81, 105.87 -28.73, 113.31 -35.17 C120.75 -41.6, 126.75 -48.17, 131.72 -54.3 C136.69 -60.43, 140.81 -66.1, 143.12 -71.96 C145.44 -77.82, 145.39 -84.87, 145.6 -89.48 C145.81 -94.09, 145.94 -96.98, 144.4 -99.64 C142.86 -102.3, 137.97 -103.34, 136.36 -105.45 C134.74 -107.55, 133.46 -111.17, 134.71 -112.25 C135.96 -113.34, 140.83 -112, 143.85 -111.94 C146.87 -111.88, 149.02 -110.67, 152.8 -111.89 C156.58 -113.11, 163.34 -115.23, 166.53 -119.25 C169.72 -123.27, 170.91 -129.63, 171.97 -135.99 C173.03 -142.35, 172.96 -150.41, 172.88 -157.41 C172.8 -164.41, 171.17 -174.03, 171.5 -177.98 C171.83 -181.93, 172.44 -180.55, 174.86 -181.1 C177.29 -181.65, 183 -181.4, 186.05 -181.27 C189.11 -181.13, 191.97 -181.29, 193.18 -180.3 C194.4 -179.3, 193.32 -179.22, 193.36 -175.3 C193.4 -171.37, 193.29 -163.26, 193.43 -156.75 C193.57 -150.25, 193.06 -141.82, 194.21 -136.28 C195.36 -130.74, 197.29 -127.17, 200.36 -123.52 C203.43 -119.87, 208.17 -115.85, 212.63 -114.38 C217.08 -112.92, 222.61 -114.55, 227.07 -114.72 C231.53 -114.89, 238.37 -116.17, 239.4 -115.41 C240.43 -114.64, 235.41 -111.7, 233.23 -110.12 C231.05 -108.55, 227.71 -107.87, 226.32 -105.94 C224.93 -104.01, 224.94 -102.15, 224.91 -98.55 C224.88 -94.94, 224.65 -88.66, 226.14 -84.34 C227.64 -80.01, 230.25 -77.12, 233.88 -72.57 C237.51 -68.03, 241.56 -63.43, 247.92 -57.08 C254.29 -50.74, 262.92 -40.58, 272.06 -34.5 C281.2 -28.42, 292.25 -24.17, 302.77 -20.6 C313.28 -17.03, 323.47 -14.36, 335.17 -13.05 C346.87 -11.75, 364.88 -12.9, 372.96 -12.78 C381.04 -12.65, 385.37 -13.13, 383.64 -12.3 C381.9 -11.46, 370.52 -8.93, 362.53 -7.77 C354.54 -6.6, 345.42 -5.76, 335.68 -5.32 C325.94 -4.89, 315.13 -3.36, 304.08 -5.15 C293.04 -6.95, 279.6 -11.78, 269.39 -16.11 C259.19 -20.45, 250.76 -26.17, 242.85 -31.18 C234.93 -36.19, 228.21 -41.05, 221.9 -46.18 C215.59 -51.3, 208.84 -58.19, 204.97 -61.96 C201.1 -65.73, 200.91 -67.56, 198.69 -68.8 C196.47 -70.03, 194.44 -69.28, 191.63 -69.35 C188.83 -69.41, 184.36 -69.21, 181.88 -69.17 C179.4 -69.14, 178.08 -69.34, 176.75 -69.12 C175.42 -68.89, 175.22 -68.98, 173.9 -67.84 C172.58 -66.69, 172.05 -65.98, 168.82 -62.25 C165.58 -58.53, 160.19 -50.89, 154.5 -45.5 C148.81 -40.11, 142.55 -35.67, 134.68 -29.91 C126.81 -24.15, 116.66 -16.05, 107.28 -10.95 C97.89 -5.86, 88.02 -2.42, 78.37 0.68 C68.73 3.78, 58.62 6.72, 49.41 7.67 C40.19 8.61, 31.33 7.62, 23.1 6.34 C14.86 5.06, 3.85 1.06, 0 0 M0 0 C4.66 -0.06, 18.07 0.4, 27.97 -0.34 C37.87 -1.07, 49.57 -1.86, 59.42 -4.42 C69.27 -6.98, 78.08 -10.56, 87.07 -15.69 C96.05 -20.81, 105.87 -28.73, 113.31 -35.17 C120.75 -41.6, 126.75 -48.17, 131.72 -54.3 C136.69 -60.43, 140.81 -66.1, 143.12 -71.96 C145.44 -77.82, 145.39 -84.87, 145.6 -89.48 C145.81 -94.09, 145.94 -96.98, 144.4 -99.64 C142.86 -102.3, 137.97 -103.34, 136.36 -105.45 C134.74 -107.55, 133.46 -111.17, 134.71 -112.25 C135.96 -113.34, 140.83 -112, 143.85 -111.94 C146.87 -111.88, 149.02 -110.67, 152.8 -111.89 C156.58 -113.11, 163.34 -115.23, 166.53 -119.25 C169.72 -123.27, 170.91 -129.63, 171.97 -135.99 C173.03 -142.35, 172.96 -150.41, 172.88 -157.41 C172.8 -164.41, 171.17 -174.03, 171.5 -177.98 C171.83 -181.93, 172.44 -180.55, 174.86 -181.1 C177.29 -181.65, 183 -181.4, 186.05 -181.27 C189.11 -181.13, 191.97 -181.29, 193.18 -180.3 C194.4 -179.3, 193.32 -179.22, 193.36 -175.3 C193.4 -171.37, 193.29 -163.26, 193.43 -156.75 C193.57 -150.25, 193.06 -141.82, 194.21 -136.28 C195.36 -130.74, 197.29 -127.17, 200.36 -123.52 C203.43 -119.87, 208.17 -115.85, 212.63 -114.38 C217.08 -112.92, 222.61 -114.55, 227.07 -114.72 C231.53 -114.89, 238.37 -116.17, 239.4 -115.41 C240.43 -114.64, 235.41 -111.7, 233.23 -110.12 C231.05 -108.55, 227.71 -107.87, 226.32 -105.94 C224.93 -104.01, 224.94 -102.15, 224.91 -98.55 C224.88 -94.94, 224.65 -88.66, 226.14 -84.34 C227.64 -80.01, 230.25 -77.12, 233.88 -72.57 C237.51 -68.03, 241.56 -63.43, 247.92 -57.08 C254.29 -50.74, 262.92 -40.58, 272.06 -34.5 C281.2 -28.42, 292.25 -24.17, 302.77 -20.6 C313.28 -17.03, 323.47 -14.36, 335.17 -13.05 C346.87 -11.75, 364.88 -12.9, 372.96 -12.78 C381.04 -12.65, 385.37 -13.13, 383.64 -12.3 C381.9 -11.46, 370.52 -8.93, 362.53 -7.77 C354.54 -6.6, 345.42 -5.76, 335.68 -5.32 C325.94 -4.89, 315.13 -3.36, 304.08 -5.15 C293.04 -6.95, 279.6 -11.78, 269.39 -16.11 C259.19 -20.45, 250.76 -26.17, 242.85 -31.18 C234.93 -36.19, 228.21 -41.05, 221.9 -46.18 C215.59 -51.3, 208.84 -58.19, 204.97 -61.96 C201.1 -65.73, 200.91 -67.56, 198.69 -68.8 C196.47 -70.03, 194.44 -69.28, 191.63 -69.35 C188.83 -69.41, 184.36 -69.21, 181.88 -69.17 C179.4 -69.14, 178.08 -69.34, 176.75 -69.12 C175.42 -68.89, 175.22 -68.98, 173.9 -67.84 C172.58 -66.69, 172.05 -65.98, 168.82 -62.25 C165.58 -58.53, 160.19 -50.89, 154.5 -45.5 C148.81 -40.11, 142.55 -35.67, 134.68 -29.91 C126.81 -24.15, 116.66 -16.05, 107.28 -10.95 C97.89 -5.86, 88.02 -2.42, 78.37 0.68 C68.73 3.78, 58.62 6.72, 49.41 7.67 C40.19 8.61, 31.33 7.62, 23.1 6.34 C14.86 5.06, 3.85 1.06, 0 0" stroke="#FFFFFF" stroke-width="4" fill="none"></path></g></g><mask></mask><g stroke-linecap="round"><g transform="translate(61.51527251618859 545.4077882083416) rotate(0 271.857924892634 -234.69004255609912)"><path d="M0 0 C6.54 5.67, 24.81 24.28, 39.22 34 C53.63 43.71, 70.91 53.08, 86.47 58.3 C102.02 63.51, 117.38 65.02, 132.55 65.3 C147.72 65.58, 163.01 63.91, 177.49 59.98 C191.97 56.04, 206.72 49.43, 219.42 41.68 C232.12 33.93, 245.39 20.67, 253.68 13.47 C261.97 6.28, 265.73 1.51, 269.16 -1.49 C272.59 -4.49, 272.01 -4.03, 274.25 -4.52 C276.49 -5.01, 279.87 -5.65, 282.61 -4.44 C285.35 -3.24, 286.49 -0.82, 290.68 2.68 C294.87 6.18, 300.81 11.45, 307.75 16.57 C314.7 21.69, 322.64 28.26, 332.36 33.43 C342.08 38.6, 353.56 43.96, 366.07 47.59 C378.58 51.22, 391.99 54.71, 407.4 55.19 C422.8 55.66, 442.25 54.99, 458.52 50.43 C474.79 45.88, 492.2 35.92, 505 27.86 C517.79 19.81, 526.36 11.22, 535.28 2.1 C544.21 -7.01, 554.42 -21.4, 558.56 -26.83 C562.7 -32.27, 561.26 -31.17, 560.13 -30.49 C559 -29.81, 555.28 -25.97, 551.78 -22.76 C548.29 -19.55, 544.72 -15.61, 539.15 -11.21 C533.59 -6.82, 526.99 -0.19, 518.38 3.6 C509.78 7.38, 496.54 9.77, 487.53 11.49 C478.52 13.21, 470.99 13.68, 464.34 13.92 C457.69 14.16, 447.77 14.05, 447.64 12.92 C447.5 11.8, 456.83 10.22, 463.55 7.16 C470.28 4.1, 480.63 -1.02, 487.98 -5.42 C495.33 -9.82, 503.27 -15.51, 507.65 -19.25 C512.03 -22.99, 515.85 -27.94, 514.24 -27.86 C512.63 -27.78, 503.54 -21.84, 497.98 -18.76 C492.42 -15.69, 487.77 -12.42, 480.88 -9.41 C474 -6.4, 464.81 -2.15, 456.67 -0.72 C448.53 0.71, 438.8 0.09, 432.02 -0.84 C425.25 -1.76, 416.95 -4.72, 416.04 -6.26 C415.14 -7.81, 423.68 -8.8, 426.6 -10.09 C429.52 -11.37, 432.47 -12.35, 433.55 -13.96 C434.63 -15.57, 433.95 -18.55, 433.09 -19.76 C432.23 -20.97, 431.65 -20.9, 428.42 -21.22 C425.19 -21.54, 418.5 -21.23, 413.71 -21.7 C408.92 -22.18, 402.25 -22.5, 399.67 -24.06 C397.09 -25.61, 398.63 -28.9, 398.24 -31.04 C397.84 -33.17, 398.38 -35.17, 397.28 -36.86 C396.18 -38.55, 394.39 -39.96, 391.63 -41.18 C388.87 -42.41, 383.7 -43, 380.74 -44.2 C377.79 -45.4, 376.29 -45.88, 373.92 -48.38 C371.54 -50.89, 368.27 -55.89, 366.5 -59.24 C364.72 -62.58, 362.85 -65.37, 363.27 -68.47 C363.7 -71.57, 366.19 -74.42, 369.02 -77.84 C371.86 -81.27, 376.15 -84.57, 380.28 -89.02 C384.42 -93.46, 389.07 -97.77, 393.83 -104.51 C398.6 -111.24, 404.49 -120.73, 408.86 -129.42 C413.24 -138.11, 417.53 -146.63, 420.09 -156.63 C422.66 -166.62, 423.54 -179.22, 424.26 -189.39 C424.97 -199.56, 424.35 -210.54, 424.38 -217.66 C424.41 -224.78, 423 -228.97, 424.44 -232.13 C425.88 -235.29, 428.81 -236.48, 433.03 -236.62 C437.26 -236.75, 443.71 -235.16, 449.79 -232.94 C455.87 -230.71, 463.54 -225.87, 469.51 -223.29 C475.48 -220.7, 481.75 -219.06, 485.6 -217.42 C489.45 -215.79, 490.2 -214.56, 492.62 -213.47 C495.04 -212.38, 496.98 -213.16, 500.14 -210.9 C503.3 -208.64, 507.75 -205.11, 511.58 -199.91 C515.42 -194.71, 520.37 -186.88, 523.14 -179.72 C525.91 -172.55, 526.66 -165.3, 528.19 -156.94 C529.71 -148.59, 531.47 -129.43, 532.3 -129.59 C533.14 -129.75, 534 -148.97, 533.2 -157.9 C532.4 -166.83, 529.6 -175.75, 527.49 -183.15 C525.38 -190.55, 521.17 -198.49, 520.53 -202.3 C519.88 -206.12, 521.51 -206.45, 523.62 -206.03 C525.73 -205.62, 529.65 -204.19, 533.19 -199.82 C536.73 -195.44, 541.82 -186.4, 544.89 -179.78 C547.97 -173.15, 549.63 -167.62, 551.63 -160.06 C553.62 -152.51, 555.39 -142.28, 556.87 -134.45 C558.35 -126.62, 559.66 -112.11, 560.48 -113.08 C561.31 -114.06, 562.14 -131.75, 561.81 -140.32 C561.49 -148.89, 559.31 -157.88, 558.55 -164.51 C557.79 -171.14, 556.37 -178.97, 557.26 -180.1 C558.14 -181.23, 561.04 -175.71, 563.85 -171.28 C566.67 -166.84, 571.04 -159.6, 574.16 -153.5 C577.28 -147.4, 580.62 -142.38, 582.55 -134.67 C584.47 -126.96, 585 -114.99, 585.72 -107.26 C586.43 -99.54, 585.53 -87.47, 586.84 -88.31 C588.15 -89.15, 592.23 -103.99, 593.6 -112.31 C594.97 -120.63, 595.05 -128.8, 595.05 -138.22 C595.05 -147.64, 594.97 -158.75, 593.58 -168.83 C592.19 -178.91, 591.22 -187.72, 586.71 -198.71 C582.2 -209.69, 574.49 -223.57, 566.52 -234.75 C558.55 -245.94, 549.28 -256.74, 538.86 -265.82 C528.45 -274.89, 515.81 -282.95, 504.02 -289.19 C492.24 -295.43, 477.36 -299.71, 468.17 -303.27 C458.98 -306.82, 452.62 -307.76, 448.9 -310.5 C445.19 -313.24, 446.1 -315.6, 445.89 -319.71 C445.67 -323.82, 446.76 -329.82, 447.6 -335.17 C448.45 -340.53, 450.33 -345.1, 450.96 -351.85 C451.59 -358.6, 451.77 -366.51, 451.39 -375.66 C451.01 -384.8, 450.71 -396.36, 448.69 -406.72 C446.67 -417.08, 444.13 -426.98, 439.29 -437.83 C434.46 -448.67, 426.86 -461.96, 419.67 -471.78 C412.48 -481.6, 404.28 -489.82, 396.16 -496.76 C388.04 -503.7, 380.48 -508.17, 370.96 -513.41 C361.43 -518.66, 346.73 -525.32, 339.02 -528.25 C331.31 -531.19, 324.12 -532.59, 324.7 -531.01 C325.29 -529.43, 337.12 -523.11, 342.55 -518.78 C347.97 -514.44, 352.66 -510.03, 357.26 -505.02 C361.85 -500, 366.14 -494.58, 370.14 -488.66 C374.13 -482.74, 379.57 -473.56, 381.23 -469.49 C382.9 -465.41, 381.83 -463.7, 380.12 -464.21 C378.42 -464.72, 374.98 -469.02, 371.02 -472.53 C367.07 -476.05, 361.6 -481.77, 356.38 -485.32 C351.16 -488.87, 344.4 -492.16, 339.7 -493.82 C335 -495.48, 327.1 -496.66, 328.17 -495.29 C329.24 -493.92, 339.86 -490.09, 346.11 -485.6 C352.37 -481.11, 360.27 -473.89, 365.67 -468.37 C371.08 -462.84, 375.44 -457.21, 378.55 -452.44 C381.66 -447.66, 383.23 -443.99, 384.35 -439.71 C385.47 -435.42, 386.31 -428.08, 385.29 -426.73 C384.26 -425.37, 381.41 -428.86, 378.21 -431.59 C375.01 -434.31, 369.95 -439.45, 366.11 -443.09 C362.26 -446.74, 358.85 -450.65, 355.14 -453.47 C351.44 -456.29, 346.82 -458.91, 343.87 -460.02 C340.92 -461.14, 336.61 -461.59, 337.47 -460.13 C338.32 -458.68, 344.93 -454.96, 349.01 -451.31 C353.09 -447.67, 358.14 -442.65, 361.95 -438.24 C365.77 -433.83, 369.04 -429.34, 371.9 -424.86 C374.77 -420.37, 378.08 -415.66, 379.14 -411.32 C380.21 -406.98, 378.61 -403.25, 378.29 -398.83 C377.96 -394.41, 377.48 -390.28, 377.18 -384.8 C376.89 -379.32, 377.39 -373.03, 376.51 -365.96 C375.63 -358.89, 373.36 -348.66, 371.88 -342.37 C370.4 -336.09, 369.73 -331.14, 367.62 -328.25 C365.52 -325.36, 362.92 -324.65, 359.25 -325.03 C355.58 -325.42, 351.13 -328.07, 345.59 -330.55 C340.05 -333.03, 332.5 -337.28, 326 -339.92 C319.51 -342.56, 315.48 -344.74, 306.61 -346.39 C297.73 -348.03, 283.73 -349.58, 272.74 -349.8 C261.76 -350.02, 248.95 -348.45, 240.7 -347.71 C232.44 -346.98, 229.73 -347.22, 223.22 -345.38 C216.71 -343.53, 206.8 -338.73, 201.62 -336.64 C196.44 -334.55, 194.99 -332.33, 192.13 -332.82 C189.27 -333.31, 186.28 -335.98, 184.47 -339.58 C182.66 -343.19, 182.41 -348.59, 181.26 -354.46 C180.11 -360.33, 178.02 -368.81, 177.55 -374.79 C177.09 -380.78, 178.58 -385.31, 178.47 -390.38 C178.36 -395.46, 178.14 -403.15, 176.89 -405.24 C175.65 -407.33, 171.91 -401.9, 171 -402.91 C170.09 -403.91, 170.41 -406.98, 171.43 -411.27 C172.46 -415.56, 174.08 -423.03, 177.15 -428.63 C180.22 -434.24, 185.12 -440, 189.85 -444.91 C194.58 -449.81, 200.92 -454.66, 205.56 -458.08 C210.19 -461.5, 217.79 -464.73, 217.66 -465.42 C217.54 -466.12, 209.73 -464.48, 204.79 -462.25 C199.86 -460.01, 193.03 -455.87, 188.05 -452.03 C183.06 -448.19, 178.59 -442.47, 174.89 -439.19 C171.19 -435.92, 168.24 -434.13, 165.86 -432.38 C163.48 -430.64, 161.36 -427.83, 160.61 -428.72 C159.86 -429.62, 160.48 -434.13, 161.34 -437.77 C162.2 -441.4, 162.68 -445.23, 165.76 -450.52 C168.83 -455.81, 173.65 -463.57, 179.8 -469.51 C185.95 -475.45, 196.3 -481.81, 202.66 -486.16 C209.02 -490.51, 212.82 -493.15, 217.95 -495.62 C223.09 -498.1, 233.47 -500.16, 233.48 -501 C233.49 -501.84, 224.4 -502.51, 218.01 -500.64 C211.63 -498.77, 201.96 -493.77, 195.16 -489.78 C188.35 -485.8, 182.66 -481.24, 177.19 -476.71 C171.73 -472.17, 164.84 -463.92, 162.36 -462.57 C159.88 -461.23, 161.2 -465.59, 162.33 -468.65 C163.46 -471.71, 166.05 -475.87, 169.14 -480.92 C172.24 -485.98, 175.9 -492.87, 180.9 -498.98 C185.91 -505.08, 192.37 -512.37, 199.17 -517.57 C205.97 -522.77, 215.64 -527.33, 221.7 -530.18 C227.77 -533.04, 236.53 -533.98, 235.57 -534.68 C234.61 -535.38, 223.7 -536.01, 215.93 -534.39 C208.15 -532.77, 197.72 -528.44, 188.92 -524.97 C180.12 -521.51, 172.19 -519.1, 163.13 -513.62 C154.07 -508.14, 143.17 -500.67, 134.57 -492.09 C125.98 -483.51, 118.39 -473.9, 111.57 -462.14 C104.75 -450.37, 97.78 -435.93, 93.63 -421.51 C89.48 -407.1, 87.39 -389.44, 86.68 -375.66 C85.97 -361.87, 87.76 -348.9, 89.36 -338.82 C90.97 -328.74, 95.15 -321.25, 96.29 -315.16 C97.44 -309.07, 97.8 -305.59, 96.24 -302.28 C94.68 -298.97, 92.27 -297.71, 86.94 -295.3 C81.6 -292.89, 72.8 -291.21, 64.23 -287.82 C55.65 -284.43, 45.33 -280.67, 35.48 -274.96 C25.62 -269.24, 14.9 -262.33, 5.08 -253.51 C-4.74 -244.7, -15.15 -234.39, -23.44 -222.09 C-31.73 -209.78, -40.02 -193.43, -44.67 -179.66 C-49.32 -165.9, -50.64 -151.84, -51.33 -139.51 C-52.02 -127.18, -50.67 -117.39, -48.82 -105.68 C-46.97 -93.96, -43.2 -78.59, -40.23 -69.24 C-37.26 -59.88, -31.91 -47.46, -30.99 -49.55 C-30.07 -51.64, -34.49 -71.99, -34.73 -81.78 C-34.97 -91.57, -34.62 -98.46, -32.44 -108.28 C-30.26 -118.1, -25.39 -131.89, -21.64 -140.7 C-17.9 -149.51, -11.87 -159.45, -9.99 -161.14 C-8.11 -162.83, -10.11 -157.77, -10.35 -150.84 C-10.58 -143.91, -11.93 -129.93, -11.41 -119.55 C-10.89 -109.18, -8.54 -95.04, -7.21 -88.58 C-5.88 -82.12, -3.91 -77.83, -3.43 -80.81 C-2.94 -83.78, -4.3 -97.88, -4.31 -106.45 C-4.31 -115.01, -4.72 -123.33, -3.47 -132.18 C-2.21 -141.03, 0.01 -151.44, 3.22 -159.54 C6.42 -167.64, 12.19 -175.88, 15.75 -180.78 C19.31 -185.68, 23.04 -189.38, 24.59 -188.95 C26.15 -188.52, 24.13 -180.83, 25.07 -178.18 C26.01 -175.52, 28.41 -173.43, 30.25 -173.01 C32.08 -172.59, 34.22 -173.96, 36.07 -175.66 C37.91 -177.36, 39.87 -180.76, 41.3 -183.22 C42.73 -185.68, 43 -188.62, 44.65 -190.43 C46.3 -192.24, 48.83 -193.65, 51.21 -194.09 C53.6 -194.53, 56.44 -192.4, 58.93 -193.05 C61.43 -193.7, 63.06 -196.15, 66.16 -197.99 C69.26 -199.83, 73.24 -201.76, 77.51 -204.09 C81.78 -206.43, 87.41 -210.17, 91.79 -212 C96.18 -213.84, 100.43 -215.77, 103.82 -215.12 C107.21 -214.46, 110.42 -212.43, 112.11 -208.08 C113.81 -203.73, 113.2 -196.48, 114.01 -189.02 C114.82 -181.57, 114.58 -173.15, 116.98 -163.35 C119.37 -153.54, 123.36 -140.78, 128.4 -130.2 C133.45 -119.63, 140.31 -108.75, 147.25 -99.9 C154.19 -91.05, 162.21 -84.2, 170.03 -77.09 C177.84 -69.97, 189.7 -62.48, 194.14 -57.2 C198.59 -51.91, 197.78 -48.68, 196.7 -45.37 C195.61 -42.06, 191.42 -39.98, 187.6 -37.34 C183.79 -34.71, 176.41 -32.9, 173.81 -29.56 C171.22 -26.23, 174.01 -20.23, 172.02 -17.32 C170.03 -14.42, 164.49 -13.41, 161.88 -12.12 C159.26 -10.83, 159.36 -9.94, 156.31 -9.6 C153.27 -9.26, 146.31 -11.64, 143.61 -10.08 C140.92 -8.52, 139.72 -2.25, 140.13 -0.23 C140.53 1.8, 143.73 1.51, 146.04 2.08 C148.36 2.64, 154.27 2.18, 153.99 3.18 C153.72 4.18, 148.63 6.59, 144.42 8.09 C140.2 9.6, 134.38 11.16, 128.7 12.23 C123.03 13.3, 117.27 14.85, 110.36 14.53 C103.45 14.21, 95.53 13.09, 87.23 10.3 C78.94 7.51, 67.85 1.28, 60.58 -2.22 C53.3 -5.71, 42.06 -12.46, 43.59 -10.66 C45.11 -8.86, 61.82 3.79, 69.73 8.6 C77.63 13.42, 84.81 15.8, 91 18.22 C97.19 20.64, 101.72 21.92, 106.85 23.12 C111.99 24.32, 120.91 24.1, 121.81 25.41 C122.71 26.71, 119.29 29.66, 112.26 30.93 C105.24 32.2, 91.07 34.04, 79.69 33.05 C68.31 32.07, 54.52 28.76, 44 25.03 C33.47 21.29, 23.86 14.8, 16.53 10.62 C9.2 6.45, 2.75 1.77, 0 0 M0 0 C6.54 5.67, 24.81 24.28, 39.22 34 C53.63 43.71, 70.91 53.08, 86.47 58.3 C102.02 63.51, 117.38 65.02, 132.55 65.3 C147.72 65.58, 163.01 63.91, 177.49 59.98 C191.97 56.04, 206.72 49.43, 219.42 41.68 C232.12 33.93, 245.39 20.67, 253.68 13.47 C261.97 6.28, 265.73 1.51, 269.16 -1.49 C272.59 -4.49, 272.01 -4.03, 274.25 -4.52 C276.49 -5.01, 279.87 -5.65, 282.61 -4.44 C285.35 -3.24, 286.49 -0.82, 290.68 2.68 C294.87 6.18, 300.81 11.45, 307.75 16.57 C314.7 21.69, 322.64 28.26, 332.36 33.43 C342.08 38.6, 353.56 43.96, 366.07 47.59 C378.58 51.22, 391.99 54.71, 407.4 55.19 C422.8 55.66, 442.25 54.99, 458.52 50.43 C474.79 45.88, 492.2 35.92, 505 27.86 C517.79 19.81, 526.36 11.22, 535.28 2.1 C544.21 -7.01, 554.42 -21.4, 558.56 -26.83 C562.7 -32.27, 561.26 -31.17, 560.13 -30.49 C559 -29.81, 555.28 -25.97, 551.78 -22.76 C548.29 -19.55, 544.72 -15.61, 539.15 -11.21 C533.59 -6.82, 526.99 -0.19, 518.38 3.6 C509.78 7.38, 496.54 9.77, 487.53 11.49 C478.52 13.21, 470.99 13.68, 464.34 13.92 C457.69 14.16, 447.77 14.05, 447.64 12.92 C447.5 11.8, 456.83 10.22, 463.55 7.16 C470.28 4.1, 480.63 -1.02, 487.98 -5.42 C495.33 -9.82, 503.27 -15.51, 507.65 -19.25 C512.03 -22.99, 515.85 -27.94, 514.24 -27.86 C512.63 -27.78, 503.54 -21.84, 497.98 -18.76 C492.42 -15.69, 487.77 -12.42, 480.88 -9.41 C474 -6.4, 464.81 -2.15, 456.67 -0.72 C448.53 0.71, 438.8 0.09, 432.02 -0.84 C425.25 -1.76, 416.95 -4.72, 416.04 -6.26 C415.14 -7.81, 423.68 -8.8, 426.6 -10.09 C429.52 -11.37, 432.47 -12.35, 433.55 -13.96 C434.63 -15.57, 433.95 -18.55, 433.09 -19.76 C432.23 -20.97, 431.65 -20.9, 428.42 -21.22 C425.19 -21.54, 418.5 -21.23, 413.71 -21.7 C408.92 -22.18, 402.25 -22.5, 399.67 -24.06 C397.09 -25.61, 398.63 -28.9, 398.24 -31.04 C397.84 -33.17, 398.38 -35.17, 397.28 -36.86 C396.18 -38.55, 394.39 -39.96, 391.63 -41.18 C388.87 -42.41, 383.7 -43, 380.74 -44.2 C377.79 -45.4, 376.29 -45.88, 373.92 -48.38 C371.54 -50.89, 368.27 -55.89, 366.5 -59.24 C364.72 -62.58, 362.85 -65.37, 363.27 -68.47 C363.7 -71.57, 366.19 -74.42, 369.02 -77.84 C371.86 -81.27, 376.15 -84.57, 380.28 -89.02 C384.42 -93.46, 389.07 -97.77, 393.83 -104.51 C398.6 -111.24, 404.49 -120.73, 408.86 -129.42 C413.24 -138.11, 417.53 -146.63, 420.09 -156.63 C422.66 -166.62, 423.54 -179.22, 424.26 -189.39 C424.97 -199.56, 424.35 -210.54, 424.38 -217.66 C424.41 -224.78, 423 -228.97, 424.44 -232.13 C425.88 -235.29, 428.81 -236.48, 433.03 -236.62 C437.26 -236.75, 443.71 -235.16, 449.79 -232.94 C455.87 -230.71, 463.54 -225.87, 469.51 -223.29 C475.48 -220.7, 481.75 -219.06, 485.6 -217.42 C489.45 -215.79, 490.2 -214.56, 492.62 -213.47 C495.04 -212.38, 496.98 -213.16, 500.14 -210.9 C503.3 -208.64, 507.75 -205.11, 511.58 -199.91 C515.42 -194.71, 520.37 -186.88, 523.14 -179.72 C525.91 -172.55, 526.66 -165.3, 528.19 -156.94 C529.71 -148.59, 531.47 -129.43, 532.3 -129.59 C533.14 -129.75, 534 -148.97, 533.2 -157.9 C532.4 -166.83, 529.6 -175.75, 527.49 -183.15 C525.38 -190.55, 521.17 -198.49, 520.53 -202.3 C519.88 -206.12, 521.51 -206.45, 523.62 -206.03 C525.73 -205.62, 529.65 -204.19, 533.19 -199.82 C536.73 -195.44, 541.82 -186.4, 544.89 -179.78 C547.97 -173.15, 549.63 -167.62, 551.63 -160.06 C553.62 -152.51, 555.39 -142.28, 556.87 -134.45 C558.35 -126.62, 559.66 -112.11, 560.48 -113.08 C561.31 -114.06, 562.14 -131.75, 561.81 -140.32 C561.49 -148.89, 559.31 -157.88, 558.55 -164.51 C557.79 -171.14, 556.37 -178.97, 557.26 -180.1 C558.14 -181.23, 561.04 -175.71, 563.85 -171.28 C566.67 -166.84, 571.04 -159.6, 574.16 -153.5 C577.28 -147.4, 580.62 -142.38, 582.55 -134.67 C584.47 -126.96, 585 -114.99, 585.72 -107.26 C586.43 -99.54, 585.53 -87.47, 586.84 -88.31 C588.15 -89.15, 592.23 -103.99, 593.6 -112.31 C594.97 -120.63, 595.05 -128.8, 595.05 -138.22 C595.05 -147.64, 594.97 -158.75, 593.58 -168.83 C592.19 -178.91, 591.22 -187.72, 586.71 -198.71 C582.2 -209.69, 574.49 -223.57, 566.52 -234.75 C558.55 -245.94, 549.28 -256.74, 538.86 -265.82 C528.45 -274.89, 515.81 -282.95, 504.02 -289.19 C492.24 -295.43, 477.36 -299.71, 468.17 -303.27 C458.98 -306.82, 452.62 -307.76, 448.9 -310.5 C445.19 -313.24, 446.1 -315.6, 445.89 -319.71 C445.67 -323.82, 446.76 -329.82, 447.6 -335.17 C448.45 -340.53, 450.33 -345.1, 450.96 -351.85 C451.59 -358.6, 451.77 -366.51, 451.39 -375.66 C451.01 -384.8, 450.71 -396.36, 448.69 -406.72 C446.67 -417.08, 444.13 -426.98, 439.29 -437.83 C434.46 -448.67, 426.86 -461.96, 419.67 -471.78 C412.48 -481.6, 404.28 -489.82, 396.16 -496.76 C388.04 -503.7, 380.48 -508.17, 370.96 -513.41 C361.43 -518.66, 346.73 -525.32, 339.02 -528.25 C331.31 -531.19, 324.12 -532.59, 324.7 -531.01 C325.29 -529.43, 337.12 -523.11, 342.55 -518.78 C347.97 -514.44, 352.66 -510.03, 357.26 -505.02 C361.85 -500, 366.14 -494.58, 370.14 -488.66 C374.13 -482.74, 379.57 -473.56, 381.23 -469.49 C382.9 -465.41, 381.83 -463.7, 380.12 -464.21 C378.42 -464.72, 374.98 -469.02, 371.02 -472.53 C367.07 -476.05, 361.6 -481.77, 356.38 -485.32 C351.16 -488.87, 344.4 -492.16, 339.7 -493.82 C335 -495.48, 327.1 -496.66, 328.17 -495.29 C329.24 -493.92, 339.86 -490.09, 346.11 -485.6 C352.37 -481.11, 360.27 -473.89, 365.67 -468.37 C371.08 -462.84, 375.44 -457.21, 378.55 -452.44 C381.66 -447.66, 383.23 -443.99, 384.35 -439.71 C385.47 -435.42, 386.31 -428.08, 385.29 -426.73 C384.26 -425.37, 381.41 -428.86, 378.21 -431.59 C375.01 -434.31, 369.95 -439.45, 366.11 -443.09 C362.26 -446.74, 358.85 -450.65, 355.14 -453.47 C351.44 -456.29, 346.82 -458.91, 343.87 -460.02 C340.92 -461.14, 336.61 -461.59, 337.47 -460.13 C338.32 -458.68, 344.93 -454.96, 349.01 -451.31 C353.09 -447.67, 358.14 -442.65, 361.95 -438.24 C365.77 -433.83, 369.04 -429.34, 371.9 -424.86 C374.77 -420.37, 378.08 -415.66, 379.14 -411.32 C380.21 -406.98, 378.61 -403.25, 378.29 -398.83 C377.96 -394.41, 377.48 -390.28, 377.18 -384.8 C376.89 -379.32, 377.39 -373.03, 376.51 -365.96 C375.63 -358.89, 373.36 -348.66, 371.88 -342.37 C370.4 -336.09, 369.73 -331.14, 367.62 -328.25 C365.52 -325.36, 362.92 -324.65, 359.25 -325.03 C355.58 -325.42, 351.13 -328.07, 345.59 -330.55 C340.05 -333.03, 332.5 -337.28, 326 -339.92 C319.51 -342.56, 315.48 -344.74, 306.61 -346.39 C297.73 -348.03, 283.73 -349.58, 272.74 -349.8 C261.76 -350.02, 248.95 -348.45, 240.7 -347.71 C232.44 -346.98, 229.73 -347.22, 223.22 -345.38 C216.71 -343.53, 206.8 -338.73, 201.62 -336.64 C196.44 -334.55, 194.99 -332.33, 192.13 -332.82 C189.27 -333.31, 186.28 -335.98, 184.47 -339.58 C182.66 -343.19, 182.41 -348.59, 181.26 -354.46 C180.11 -360.33, 178.02 -368.81, 177.55 -374.79 C177.09 -380.78, 178.58 -385.31, 178.47 -390.38 C178.36 -395.46, 178.14 -403.15, 176.89 -405.24 C175.65 -407.33, 171.91 -401.9, 171 -402.91 C170.09 -403.91, 170.41 -406.98, 171.43 -411.27 C172.46 -415.56, 174.08 -423.03, 177.15 -428.63 C180.22 -434.24, 185.12 -440, 189.85 -444.91 C194.58 -449.81, 200.92 -454.66, 205.56 -458.08 C210.19 -461.5, 217.79 -464.73, 217.66 -465.42 C217.54 -466.12, 209.73 -464.48, 204.79 -462.25 C199.86 -460.01, 193.03 -455.87, 188.05 -452.03 C183.06 -448.19, 178.59 -442.47, 174.89 -439.19 C171.19 -435.92, 168.24 -434.13, 165.86 -432.38 C163.48 -430.64, 161.36 -427.83, 160.61 -428.72 C159.86 -429.62, 160.48 -434.13, 161.34 -437.77 C162.2 -441.4, 162.68 -445.23, 165.76 -450.52 C168.83 -455.81, 173.65 -463.57, 179.8 -469.51 C185.95 -475.45, 196.3 -481.81, 202.66 -486.16 C209.02 -490.51, 212.82 -493.15, 217.95 -495.62 C223.09 -498.1, 233.47 -500.16, 233.48 -501 C233.49 -501.84, 224.4 -502.51, 218.01 -500.64 C211.63 -498.77, 201.96 -493.77, 195.16 -489.78 C188.35 -485.8, 182.66 -481.24, 177.19 -476.71 C171.73 -472.17, 164.84 -463.92, 162.36 -462.57 C159.88 -461.23, 161.2 -465.59, 162.33 -468.65 C163.46 -471.71, 166.05 -475.87, 169.14 -480.92 C172.24 -485.98, 175.9 -492.87, 180.9 -498.98 C185.91 -505.08, 192.37 -512.37, 199.17 -517.57 C205.97 -522.77, 215.64 -527.33, 221.7 -530.18 C227.77 -533.04, 236.53 -533.98, 235.57 -534.68 C234.61 -535.38, 223.7 -536.01, 215.93 -534.39 C208.15 -532.77, 197.72 -528.44, 188.92 -524.97 C180.12 -521.51, 172.19 -519.1, 163.13 -513.62 C154.07 -508.14, 143.17 -500.67, 134.57 -492.09 C125.98 -483.51, 118.39 -473.9, 111.57 -462.14 C104.75 -450.37, 97.78 -435.93, 93.63 -421.51 C89.48 -407.1, 87.39 -389.44, 86.68 -375.66 C85.97 -361.87, 87.76 -348.9, 89.36 -338.82 C90.97 -328.74, 95.15 -321.25, 96.29 -315.16 C97.44 -309.07, 97.8 -305.59, 96.24 -302.28 C94.68 -298.97, 92.27 -297.71, 86.94 -295.3 C81.6 -292.89, 72.8 -291.21, 64.23 -287.82 C55.65 -284.43, 45.33 -280.67, 35.48 -274.96 C25.62 -269.24, 14.9 -262.33, 5.08 -253.51 C-4.74 -244.7, -15.15 -234.39, -23.44 -222.09 C-31.73 -209.78, -40.02 -193.43, -44.67 -179.66 C-49.32 -165.9, -50.64 -151.84, -51.33 -139.51 C-52.02 -127.18, -50.67 -117.39, -48.82 -105.68 C-46.97 -93.96, -43.2 -78.59, -40.23 -69.24 C-37.26 -59.88, -31.91 -47.46, -30.99 -49.55 C-30.07 -51.64, -34.49 -71.99, -34.73 -81.78 C-34.97 -91.57, -34.62 -98.46, -32.44 -108.28 C-30.26 -118.1, -25.39 -131.89, -21.64 -140.7 C-17.9 -149.51, -11.87 -159.45, -9.99 -161.14 C-8.11 -162.83, -10.11 -157.77, -10.35 -150.84 C-10.58 -143.91, -11.93 -129.93, -11.41 -119.55 C-10.89 -109.18, -8.54 -95.04, -7.21 -88.58 C-5.88 -82.12, -3.91 -77.83, -3.43 -80.81 C-2.94 -83.78, -4.3 -97.88, -4.31 -106.45 C-4.31 -115.01, -4.72 -123.33, -3.47 -132.18 C-2.21 -141.03, 0.01 -151.44, 3.22 -159.54 C6.42 -167.64, 12.19 -175.88, 15.75 -180.78 C19.31 -185.68, 23.04 -189.38, 24.59 -188.95 C26.15 -188.52, 24.13 -180.83, 25.07 -178.18 C26.01 -175.52, 28.41 -173.43, 30.25 -173.01 C32.08 -172.59, 34.22 -173.96, 36.07 -175.66 C37.91 -177.36, 39.87 -180.76, 41.3 -183.22 C42.73 -185.68, 43 -188.62, 44.65 -190.43 C46.3 -192.24, 48.83 -193.65, 51.21 -194.09 C53.6 -194.53, 56.44 -192.4, 58.93 -193.05 C61.43 -193.7, 63.06 -196.15, 66.16 -197.99 C69.26 -199.83, 73.24 -201.76, 77.51 -204.09 C81.78 -206.43, 87.41 -210.17, 91.79 -212 C96.18 -213.84, 100.43 -215.77, 103.82 -215.12 C107.21 -214.46, 110.42 -212.43, 112.11 -208.08 C113.81 -203.73, 113.2 -196.48, 114.01 -189.02 C114.82 -181.57, 114.58 -173.15, 116.98 -163.35 C119.37 -153.54, 123.36 -140.78, 128.4 -130.2 C133.45 -119.63, 140.31 -108.75, 147.25 -99.9 C154.19 -91.05, 162.21 -84.2, 170.03 -77.09 C177.84 -69.97, 189.7 -62.48, 194.14 -57.2 C198.59 -51.91, 197.78 -48.68, 196.7 -45.37 C195.61 -42.06, 191.42 -39.98, 187.6 -37.34 C183.79 -34.71, 176.41 -32.9, 173.81 -29.56 C171.22 -26.23, 174.01 -20.23, 172.02 -17.32 C170.03 -14.42, 164.49 -13.41, 161.88 -12.12 C159.26 -10.83, 159.36 -9.94, 156.31 -9.6 C153.27 -9.26, 146.31 -11.64, 143.61 -10.08 C140.92 -8.52, 139.72 -2.25, 140.13 -0.23 C140.53 1.8, 143.73 1.51, 146.04 2.08 C148.36 2.64, 154.27 2.18, 153.99 3.18 C153.72 4.18, 148.63 6.59, 144.42 8.09 C140.2 9.6, 134.38 11.16, 128.7 12.23 C123.03 13.3, 117.27 14.85, 110.36 14.53 C103.45 14.21, 95.53 13.09, 87.23 10.3 C78.94 7.51, 67.85 1.28, 60.58 -2.22 C53.3 -5.71, 42.06 -12.46, 43.59 -10.66 C45.11 -8.86, 61.82 3.79, 69.73 8.6 C77.63 13.42, 84.81 15.8, 91 18.22 C97.19 20.64, 101.72 21.92, 106.85 23.12 C111.99 24.32, 120.91 24.1, 121.81 25.41 C122.71 26.71, 119.29 29.66, 112.26 30.93 C105.24 32.2, 91.07 34.04, 79.69 33.05 C68.31 32.07, 54.52 28.76, 44 25.03 C33.47 21.29, 23.86 14.8, 16.53 10.62 C9.2 6.45, 2.75 1.77, 0 0" stroke="#FFFFFF" stroke-width="4" fill="none"></path></g></g><mask></mask><g stroke-linecap="round"><g transform="translate(192.7823666718475 313.94954920082) rotate(0 49.663935580318366 87.09451200591457)"><path d="M0 0 C-0.57 5.67, -3.58 22.31, -3.43 34.02 C-3.28 45.74, -2.83 57.17, 0.91 70.31 C4.65 83.45, 11.6 100.86, 19.03 112.87 C26.47 124.87, 35.88 133.81, 45.52 142.34 C55.17 150.87, 67.37 158.72, 76.91 164.02 C86.45 169.33, 98.45 172.49, 102.76 174.19 M0 0 C-0.57 5.67, -3.58 22.31, -3.43 34.02 C-3.28 45.74, -2.83 57.17, 0.91 70.31 C4.65 83.45, 11.6 100.86, 19.03 112.87 C26.47 124.87, 35.88 133.81, 45.52 142.34 C55.17 150.87, 67.37 158.72, 76.91 164.02 C86.45 169.33, 98.45 172.49, 102.76 174.19" stroke="#FFFFFF" stroke-width="4" fill="none"></path></g></g><mask></mask><g stroke-linecap="round"><g transform="translate(380.31073002495356 482.0233213205547) rotate(0 45.653091771246636 -87.51472736939468)"><path d="M0 0 C4.55 -2.16, 18.23 -6.75, 27.33 -12.95 C36.42 -19.16, 46.17 -28.07, 54.56 -37.22 C62.95 -46.38, 71.97 -56.91, 77.67 -67.9 C83.37 -78.89, 86.48 -92.24, 88.75 -103.16 C91.02 -114.07, 91.15 -123.95, 91.31 -133.39 C91.46 -142.84, 90.58 -152.91, 89.66 -159.85 C88.74 -166.78, 86.42 -172.5, 85.77 -175.03 M0 0 C4.55 -2.16, 18.23 -6.75, 27.33 -12.95 C36.42 -19.16, 46.17 -28.07, 54.56 -37.22 C62.95 -46.38, 71.97 -56.91, 77.67 -67.9 C83.37 -78.89, 86.48 -92.24, 88.75 -103.16 C91.02 -114.07, 91.15 -123.95, 91.31 -133.39 C91.46 -142.84, 90.58 -152.91, 89.66 -159.85 C88.74 -166.78, 86.42 -172.5, 85.77 -175.03" stroke="#FFFFFF" stroke-width="4" fill="none"></path></g></g><mask></mask><g stroke-linecap="round"><g transform="translate(431.75784450330144 409.9937442481919) rotate(0 -33.34120992685928 -26.79432118915156)"><path d="M0 0 C-2.53 3.11, -10.05 13.21, -15.15 18.69 C-20.25 24.17, -25.96 28.98, -30.62 32.88 C-35.27 36.79, -38.93 40.6, -43.07 42.12 C-47.2 43.64, -52.18 43.54, -55.44 41.99 C-58.71 40.44, -61.28 37.7, -62.67 32.82 C-64.06 27.94, -63.35 18.67, -63.79 12.72 C-64.23 6.76, -65.4 1.14, -65.31 -2.89 C-65.22 -6.92, -62.66 -8.59, -63.28 -11.48 C-63.9 -14.37, -65.89 -18.52, -69.05 -20.23 C-72.22 -21.94, -80.07 -19.9, -82.27 -21.74 C-84.48 -23.57, -83.35 -26.81, -82.26 -31.23 C-81.17 -35.65, -77.35 -43.74, -75.72 -48.25 C-74.1 -52.77, -73.42 -55.4, -72.51 -58.31 C-71.61 -61.21, -71.93 -64.27, -70.29 -65.67 C-68.65 -67.08, -64.63 -68.08, -62.66 -66.74 C-60.7 -65.4, -60.34 -59.7, -58.5 -57.61 C-56.66 -55.53, -53.91 -54.34, -51.61 -54.23 C-49.32 -54.13, -47.34 -54.77, -44.71 -56.98 C-42.08 -59.19, -39.73 -63.36, -35.85 -67.49 C-31.96 -71.62, -25.7 -77.55, -21.43 -81.76 C-17.16 -85.96, -13.67 -90.53, -10.25 -92.72 C-6.82 -94.91, -3.87 -94.42, -0.87 -94.92 C2.14 -95.42, 5.35 -97.43, 7.77 -95.71 C10.2 -93.99, 12.36 -90.52, 13.66 -84.61 C14.97 -78.7, 15.59 -68.26, 15.59 -60.23 C15.59 -52.2, 14.89 -44.02, 13.65 -36.42 C12.42 -28.82, 10.46 -20.71, 8.19 -14.64 C5.91 -8.57, 1.36 -2.44, 0 0 M0 0 C-2.53 3.11, -10.05 13.21, -15.15 18.69 C-20.25 24.17, -25.96 28.98, -30.62 32.88 C-35.27 36.79, -38.93 40.6, -43.07 42.12 C-47.2 43.64, -52.18 43.54, -55.44 41.99 C-58.71 40.44, -61.28 37.7, -62.67 32.82 C-64.06 27.94, -63.35 18.67, -63.79 12.72 C-64.23 6.76, -65.4 1.14, -65.31 -2.89 C-65.22 -6.92, -62.66 -8.59, -63.28 -11.48 C-63.9 -14.37, -65.89 -18.52, -69.05 -20.23 C-72.22 -21.94, -80.07 -19.9, -82.27 -21.74 C-84.48 -23.57, -83.35 -26.81, -82.26 -31.23 C-81.17 -35.65, -77.35 -43.74, -75.72 -48.25 C-74.1 -52.77, -73.42 -55.4, -72.51 -58.31 C-71.61 -61.21, -71.93 -64.27, -70.29 -65.67 C-68.65 -67.08, -64.63 -68.08, -62.66 -66.74 C-60.7 -65.4, -60.34 -59.7, -58.5 -57.61 C-56.66 -55.53, -53.91 -54.34, -51.61 -54.23 C-49.32 -54.13, -47.34 -54.77, -44.71 -56.98 C-42.08 -59.19, -39.73 -63.36, -35.85 -67.49 C-31.96 -71.62, -25.7 -77.55, -21.43 -81.76 C-17.16 -85.96, -13.67 -90.53, -10.25 -92.72 C-6.82 -94.91, -3.87 -94.42, -0.87 -94.92 C2.14 -95.42, 5.35 -97.43, 7.77 -95.71 C10.2 -93.99, 12.36 -90.52, 13.66 -84.61 C14.97 -78.7, 15.59 -68.26, 15.59 -60.23 C15.59 -52.2, 14.89 -44.02, 13.65 -36.42 C12.42 -28.82, 10.46 -20.71, 8.19 -14.64 C5.91 -8.57, 1.36 -2.44, 0 0" stroke="#FFFFFF" stroke-width="4" fill="none"></path></g></g><mask></mask><g stroke-linecap="round" transform="translate(311.37256744994875 329.6540871338252) rotate(0 20.12941046940182 20.12941046940182)"><path d="M40.26 20.13 C40.26 21.29, 40.16 22.48, 39.95 23.62 C39.75 24.77, 39.44 25.92, 39.04 27.01 C38.65 28.11, 38.14 29.19, 37.56 30.19 C36.98 31.2, 36.3 32.18, 35.55 33.07 C34.8 33.96, 33.96 34.8, 33.07 35.55 C32.18 36.3, 31.2 36.98, 30.19 37.56 C29.19 38.14, 28.11 38.65, 27.01 39.04 C25.92 39.44, 24.77 39.75, 23.62 39.95 C22.48 40.16, 21.29 40.26, 20.13 40.26 C18.96 40.26, 17.78 40.16, 16.63 39.95 C15.49 39.75, 14.34 39.44, 13.24 39.04 C12.15 38.65, 11.07 38.14, 10.06 37.56 C9.06 36.98, 8.08 36.3, 7.19 35.55 C6.3 34.8, 5.46 33.96, 4.71 33.07 C3.96 32.18, 3.28 31.2, 2.7 30.19 C2.11 29.19, 1.61 28.11, 1.21 27.01 C0.82 25.92, 0.51 24.77, 0.31 23.62 C0.1 22.48, 0 21.29, 0 20.13 C0 18.96, 0.1 17.78, 0.31 16.63 C0.51 15.49, 0.82 14.34, 1.21 13.24 C1.61 12.15, 2.11 11.07, 2.7 10.06 C3.28 9.06, 3.96 8.08, 4.71 7.19 C5.46 6.3, 6.3 5.46, 7.19 4.71 C8.08 3.96, 9.06 3.28, 10.06 2.7 C11.07 2.11, 12.15 1.61, 13.24 1.21 C14.34 0.82, 15.49 0.51, 16.63 0.31 C17.78 0.1, 18.96 0, 20.13 0 C21.29 0, 22.48 0.1, 23.62 0.31 C24.77 0.51, 25.92 0.82, 27.01 1.21 C28.11 1.61, 29.19 2.11, 30.19 2.7 C31.2 3.28, 32.18 3.96, 33.07 4.71 C33.96 5.46, 34.8 6.3, 35.55 7.19 C36.3 8.08, 36.98 9.06, 37.56 10.06 C38.14 11.07, 38.65 12.15, 39.04 13.24 C39.44 14.34, 39.75 15.49, 39.95 16.63 C40.16 17.78, 40.21 19.55, 40.26 20.13 C40.31 20.71, 40.31 19.55, 40.26 20.13" stroke="#FFFFFF" stroke-width="4" fill="none"></path></g><g stroke-linecap="round" transform="translate(317.4171965108537 335.9394810380959) rotate(0 14.225931891858465 14.225931891858409)"><path d="M28.45 14.23 C28.45 15.05, 28.38 15.89, 28.24 16.7 C28.09 17.51, 27.88 18.32, 27.59 19.09 C27.31 19.87, 26.96 20.63, 26.55 21.34 C26.13 22.05, 25.65 22.74, 25.12 23.37 C24.59 24, 24 24.59, 23.37 25.12 C22.74 25.65, 22.05 26.13, 21.34 26.55 C20.63 26.96, 19.87 27.31, 19.09 27.59 C18.32 27.88, 17.51 28.09, 16.7 28.24 C15.89 28.38, 15.05 28.45, 14.23 28.45 C13.4 28.45, 12.57 28.38, 11.76 28.24 C10.94 28.09, 10.13 27.88, 9.36 27.59 C8.59 27.31, 7.83 26.96, 7.11 26.55 C6.4 26.13, 5.71 25.65, 5.08 25.12 C4.45 24.59, 3.86 24, 3.33 23.37 C2.8 22.74, 2.32 22.05, 1.91 21.34 C1.49 20.63, 1.14 19.87, 0.86 19.09 C0.58 18.32, 0.36 17.51, 0.22 16.7 C0.07 15.89, 0 15.05, 0 14.23 C0 13.4, 0.07 12.57, 0.22 11.76 C0.36 10.94, 0.58 10.13, 0.86 9.36 C1.14 8.59, 1.49 7.83, 1.91 7.11 C2.32 6.4, 2.8 5.71, 3.33 5.08 C3.86 4.45, 4.45 3.86, 5.08 3.33 C5.71 2.8, 6.4 2.32, 7.11 1.91 C7.83 1.49, 8.59 1.14, 9.36 0.86 C10.13 0.58, 10.94 0.36, 11.76 0.22 C12.57 0.07, 13.4 0, 14.23 0 C15.05 0, 15.89 0.07, 16.7 0.22 C17.51 0.36, 18.32 0.58, 19.09 0.86 C19.87 1.14, 20.63 1.49, 21.34 1.91 C22.05 2.32, 22.74 2.8, 23.37 3.33 C24 3.86, 24.59 4.45, 25.12 5.08 C25.65 5.71, 26.13 6.4, 26.55 7.11 C26.96 7.83, 27.31 8.59, 27.59 9.36 C27.88 10.13, 28.09 10.94, 28.24 11.76 C28.38 12.57, 28.42 13.81, 28.45 14.23 C28.49 14.64, 28.49 13.81, 28.45 14.23" stroke="#FFFFFF" stroke-width="4" fill="none"></path></g><g stroke-linecap="round"><g transform="translate(219.48864726955662 391.91163445114717) rotate(0 41.89256877892518 -3.62013394110204)"><path d="M0 0 C2.62 4.46, 9.56 18.84, 15.72 26.74 C21.87 34.64, 30.74 41.97, 36.94 47.4 C43.13 52.82, 47.65 56.27, 52.9 59.29 C58.15 62.31, 63.69 64.7, 68.43 65.51 C73.18 66.32, 78.55 66.25, 81.38 64.14 C84.2 62.04, 85.05 57.98, 85.4 52.88 C85.75 47.77, 84.03 40.08, 83.49 33.53 C82.94 26.97, 82.96 18.68, 82.14 13.55 C81.32 8.42, 78.94 5.84, 78.55 2.76 C78.16 -0.32, 77.61 -3.19, 79.8 -4.94 C81.99 -6.68, 90.68 -5.16, 91.71 -7.72 C92.73 -10.29, 87.94 -15.79, 85.95 -20.3 C83.95 -24.81, 80.95 -30.73, 79.75 -34.78 C78.55 -38.83, 80.13 -42.56, 78.75 -44.6 C77.37 -46.64, 73.71 -47.5, 71.47 -47.02 C69.23 -46.54, 67.99 -42.79, 65.33 -41.73 C62.67 -40.66, 58.94 -39.62, 55.49 -40.64 C52.04 -41.66, 48.42 -44.88, 44.65 -47.86 C40.87 -50.84, 37.13 -55.2, 32.84 -58.52 C28.55 -61.84, 23.16 -65.4, 18.93 -67.77 C14.7 -70.14, 11.16 -72.64, 7.46 -72.75 C3.77 -72.86, -0.79 -71.06, -3.21 -68.45 C-5.63 -65.84, -6.25 -61.8, -7.04 -57.09 C-7.82 -52.38, -8.22 -46.65, -7.92 -40.17 C-7.62 -33.69, -6.56 -24.91, -5.24 -18.22 C-3.92 -11.52, -0.87 -3.04, 0 0 M0 0 C2.62 4.46, 9.56 18.84, 15.72 26.74 C21.87 34.64, 30.74 41.97, 36.94 47.4 C43.13 52.82, 47.65 56.27, 52.9 59.29 C58.15 62.31, 63.69 64.7, 68.43 65.51 C73.18 66.32, 78.55 66.25, 81.38 64.14 C84.2 62.04, 85.05 57.98, 85.4 52.88 C85.75 47.77, 84.03 40.08, 83.49 33.53 C82.94 26.97, 82.96 18.68, 82.14 13.55 C81.32 8.42, 78.94 5.84, 78.55 2.76 C78.16 -0.32, 77.61 -3.19, 79.8 -4.94 C81.99 -6.68, 90.68 -5.16, 91.71 -7.72 C92.73 -10.29, 87.94 -15.79, 85.95 -20.3 C83.95 -24.81, 80.95 -30.73, 79.75 -34.78 C78.55 -38.83, 80.13 -42.56, 78.75 -44.6 C77.37 -46.64, 73.71 -47.5, 71.47 -47.02 C69.23 -46.54, 67.99 -42.79, 65.33 -41.73 C62.67 -40.66, 58.94 -39.62, 55.49 -40.64 C52.04 -41.66, 48.42 -44.88, 44.65 -47.86 C40.87 -50.84, 37.13 -55.2, 32.84 -58.52 C28.55 -61.84, 23.16 -65.4, 18.93 -67.77 C14.7 -70.14, 11.16 -72.64, 7.46 -72.75 C3.77 -72.86, -0.79 -71.06, -3.21 -68.45 C-5.63 -65.84, -6.25 -61.8, -7.04 -57.09 C-7.82 -52.38, -8.22 -46.65, -7.92 -40.17 C-7.62 -33.69, -6.56 -24.91, -5.24 -18.22 C-3.92 -11.52, -0.87 -3.04, 0 0" stroke="#FFFFFF" stroke-width="4" fill="none"></path></g></g><mask></mask><g stroke-linecap="round"><g transform="translate(421.06819177995993 338.4226707429957) rotate(0 -22.614058728438835 39.35509616502259)"><path d="M0 0 C-1.53 5.56, -4.17 22.78, -9.15 33.39 C-14.14 44, -23.87 56.08, -29.88 63.64 C-35.89 71.19, -42.67 76.2, -45.23 78.71 M0 0 C-1.53 5.56, -4.17 22.78, -9.15 33.39 C-14.14 44, -23.87 56.08, -29.88 63.64 C-35.89 71.19, -42.67 76.2, -45.23 78.71" stroke="#FFFFFF" stroke-width="4" fill="none"></path></g></g><mask></mask><g stroke-linecap="round"><g transform="translate(299.3136313052778 421.57606708826097) rotate(0 -24.425915064524133 -39.608358013422276)"><path d="M0 0 C-4.45 -3.1, -19.23 -10.22, -26.71 -18.62 C-34.18 -27.03, -41.17 -40.32, -44.86 -50.41 C-48.55 -60.51, -48.19 -74.42, -48.85 -79.22 M0 0 C-4.45 -3.1, -19.23 -10.22, -26.71 -18.62 C-34.18 -27.03, -41.17 -40.32, -44.86 -50.41 C-48.55 -60.51, -48.19 -74.42, -48.85 -79.22" stroke="#FFFFFF" stroke-width="4" fill="none"></path></g></g><mask></mask><g stroke-linecap="round"><g transform="translate(293.81991743506273 236.27814787351645) rotate(0 38.734233914169295 38.57775009104398)"><path d="M0 0 C3.02 -1.1, 12.35 -5.25, 18.11 -6.61 C23.87 -7.97, 28.42 -8.4, 34.58 -8.16 C40.74 -7.92, 47.56 -6.94, 55.06 -5.16 C62.55 -3.38, 72.47 -0.26, 79.56 2.52 C86.66 5.31, 92.93 8.48, 97.61 11.57 C102.29 14.66, 106.47 17.91, 107.64 21.04 C108.82 24.18, 107.97 26.8, 104.66 30.36 C101.35 33.93, 93.83 39.18, 87.79 42.43 C81.76 45.69, 73.2 47.31, 68.47 49.89 C63.73 52.46, 61.53 54.28, 59.4 57.9 C57.27 61.52, 55.59 67.11, 55.69 71.62 C55.79 76.13, 60.81 82.79, 60 84.94 C59.2 87.08, 54.38 84.84, 50.86 84.48 C47.33 84.11, 42.29 82.91, 38.85 82.74 C35.41 82.56, 33.03 82.97, 30.22 83.4 C27.4 83.83, 24.12 85.61, 21.95 85.31 C19.79 85.02, 17.94 83.18, 17.23 81.62 C16.53 80.05, 16.65 78.12, 17.74 75.94 C18.83 73.77, 23.14 71.49, 23.75 68.55 C24.37 65.61, 22.97 61.13, 21.41 58.29 C19.85 55.45, 17.67 53.08, 14.4 51.51 C11.13 49.95, 6.49 50.52, 1.79 48.89 C-2.91 47.27, -9.61 44.2, -13.79 41.76 C-17.97 39.33, -20.55 37.17, -23.28 34.29 C-26.01 31.4, -30.12 27.82, -30.17 24.43 C-30.23 21.04, -26.49 17.04, -23.6 13.94 C-20.71 10.83, -16.77 8.12, -12.84 5.8 C-8.91 3.48, -2.14 0.97, 0 0 M0 0 C3.02 -1.1, 12.35 -5.25, 18.11 -6.61 C23.87 -7.97, 28.42 -8.4, 34.58 -8.16 C40.74 -7.92, 47.56 -6.94, 55.06 -5.16 C62.55 -3.38, 72.47 -0.26, 79.56 2.52 C86.66 5.31, 92.93 8.48, 97.61 11.57 C102.29 14.66, 106.47 17.91, 107.64 21.04 C108.82 24.18, 107.97 26.8, 104.66 30.36 C101.35 33.93, 93.83 39.18, 87.79 42.43 C81.76 45.69, 73.2 47.31, 68.47 49.89 C63.73 52.46, 61.53 54.28, 59.4 57.9 C57.27 61.52, 55.59 67.11, 55.69 71.62 C55.79 76.13, 60.81 82.79, 60 84.94 C59.2 87.08, 54.38 84.84, 50.86 84.48 C47.33 84.11, 42.29 82.91, 38.85 82.74 C35.41 82.56, 33.03 82.97, 30.22 83.4 C27.4 83.83, 24.12 85.61, 21.95 85.31 C19.79 85.02, 17.94 83.18, 17.23 81.62 C16.53 80.05, 16.65 78.12, 17.74 75.94 C18.83 73.77, 23.14 71.49, 23.75 68.55 C24.37 65.61, 22.97 61.13, 21.41 58.29 C19.85 55.45, 17.67 53.08, 14.4 51.51 C11.13 49.95, 6.49 50.52, 1.79 48.89 C-2.91 47.27, -9.61 44.2, -13.79 41.76 C-17.97 39.33, -20.55 37.17, -23.28 34.29 C-26.01 31.4, -30.12 27.82, -30.17 24.43 C-30.23 21.04, -26.49 17.04, -23.6 13.94 C-20.71 10.83, -16.77 8.12, -12.84 5.8 C-8.91 3.48, -2.14 0.97, 0 0" stroke="#FFFFFF" stroke-width="4" fill="none"></path></g></g><mask></mask><g stroke-linecap="round"><g transform="translate(386.27493075791324 267.32126041617903) rotate(0 -51.60727221155918 -5.365326893137308)"><path d="M0 0 C-3.64 -1.97, -13.33 -9.12, -21.86 -11.82 C-30.4 -14.52, -42.3 -16.13, -51.18 -16.19 C-60.07 -16.25, -67.64 -14.61, -75.17 -12.18 C-82.7 -9.74, -91.7 -4.5, -96.37 -1.56 C-101.05 1.37, -102.07 4.29, -103.21 5.46 M0 0 C-3.64 -1.97, -13.33 -9.12, -21.86 -11.82 C-30.4 -14.52, -42.3 -16.13, -51.18 -16.19 C-60.07 -16.25, -67.64 -14.61, -75.17 -12.18 C-82.7 -9.74, -91.7 -4.5, -96.37 -1.56 C-101.05 1.37, -102.07 4.29, -103.21 5.46" stroke="#FFFFFF" stroke-width="4" fill="none"></path></g></g><mask></mask><g stroke-linecap="round"><g transform="translate(97.12036971091334 566.9472861511031) rotate(0 34.04313575866638 14.711024381740799)"><path d="M0 0 C3.53 2.11, 12.47 8.61, 21.16 12.63 C29.84 16.65, 43.51 21.31, 52.1 24.11 C60.68 26.91, 75.07 29.38, 72.66 29.42 C70.24 29.47, 47.79 26.65, 37.61 24.37 C27.43 22.09, 18.59 18.67, 11.56 15.72 C4.53 12.77, -1.88 8.18, -4.57 6.68 M0 0 C3.53 2.11, 12.47 8.61, 21.16 12.63 C29.84 16.65, 43.51 21.31, 52.1 24.11 C60.68 26.91, 75.07 29.38, 72.66 29.42 C70.24 29.47, 47.79 26.65, 37.61 24.37 C27.43 22.09, 18.59 18.67, 11.56 15.72 C4.53 12.77, -1.88 8.18, -4.57 6.68" stroke="#FFFFFF" stroke-width="4" fill="none"></path></g></g><mask></mask><g stroke-linecap="round"><g transform="translate(26.277772111661875 454.20152382309016) rotate(0 -3.8561487687521208 -19.609257137257146)"><path d="M0 0 C-0.33 -4.29, -1.6 -18.18, -1.96 -25.76 C-2.31 -33.34, -1.96 -39.52, -2.13 -45.47 C-2.3 -51.42, -2.02 -63.24, -2.95 -61.46 C-3.88 -59.67, -7.03 -44.88, -7.71 -34.75 C-8.4 -24.63, -7.54 -10.23, -7.06 -0.73 C-6.59 8.77, -5.25 18.41, -4.88 22.24 M0 0 C-0.33 -4.29, -1.6 -18.18, -1.96 -25.76 C-2.31 -33.34, -1.96 -39.52, -2.13 -45.47 C-2.3 -51.42, -2.02 -63.24, -2.95 -61.46 C-3.88 -59.67, -7.03 -44.88, -7.71 -34.75 C-8.4 -24.63, -7.54 -10.23, -7.06 -0.73 C-6.59 8.77, -5.25 18.41, -4.88 22.24" stroke="#FFFFFF" stroke-width="4" fill="none"></path></g></g><mask></mask><g stroke-linecap="round"><g transform="translate(268.19336865078844 13.565249563419911) rotate(0 -26.685234380206907 20.047274861919163)"><path d="M0 0 C-4.95 2.88, -20.44 10.57, -29.69 17.26 C-38.94 23.94, -55.89 39.05, -55.5 40.09 C-55.11 41.14, -35.5 28.05, -27.37 23.54 C-19.24 19.03, -11.62 15.54, -6.71 13.01 C-1.79 10.49, 0.66 9.16, 2.13 8.39 M0 0 C-4.95 2.88, -20.44 10.57, -29.69 17.26 C-38.94 23.94, -55.89 39.05, -55.5 40.09 C-55.11 41.14, -35.5 28.05, -27.37 23.54 C-19.24 19.03, -11.62 15.54, -6.71 13.01 C-1.79 10.49, 0.66 9.16, 2.13 8.39" stroke="#FFFFFF" stroke-width="4" fill="none"></path></g></g><mask></mask><g stroke-linecap="round"><g transform="translate(417.27150664572423 24.723552000220025) rotate(0 19.99033255771309 26.7127100374812)"><path d="M0 0 C3.43 2.7, 14.03 10.32, 20.61 16.23 C27.18 22.14, 34.39 29.24, 39.47 35.44 C44.55 41.64, 53.79 54.57, 51.11 53.43 C48.42 52.28, 31.21 35.35, 23.36 28.56 C15.51 21.77, 9.75 16.83, 4 12.67 C-1.75 8.51, -8.61 5.1, -11.13 3.59 M0 0 C3.43 2.7, 14.03 10.32, 20.61 16.23 C27.18 22.14, 34.39 29.24, 39.47 35.44 C44.55 41.64, 53.79 54.57, 51.11 53.43 C48.42 52.28, 31.21 35.35, 23.36 28.56 C15.51 21.77, 9.75 16.83, 4 12.67 C-1.75 8.51, -8.61 5.1, -11.13 3.59" stroke="#FFFFFF" stroke-width="4" fill="none"></path></g></g><mask></mask><g stroke-linecap="round"><g transform="translate(442.60565544431427 116.37836268782303) rotate(0 -1.4371087604490071 7.332208193588713)"><path d="M0 0 C-0.48 2.44, -2.4 12.22, -2.87 14.66 M0 0 C-0.48 2.44, -2.4 12.22, -2.87 14.66" stroke="#FFFFFF" stroke-width="4" fill="none"></path></g></g><mask></mask><g stroke-linecap="round"><g transform="translate(234.5959314855138 108.00241208474426) rotate(0 0.5177560316064387 7.74322923151999)"><path d="M0 0 C0.17 2.58, 0.86 12.91, 1.04 15.49 M0 0 C0.17 2.58, 0.86 12.91, 1.04 15.49" stroke="#FFFFFF" stroke-width="4" fill="none"></path></g></g><mask></mask><g stroke-linecap="round"><g transform="translate(230.669588163375 76.78682711161218) rotate(0 -0.7395597624434345 7.206213831100058)"><path d="M0 0 C-0.25 2.4, -1.23 12.01, -1.48 14.41 M0 0 C-0.25 2.4, -1.23 12.01, -1.48 14.41" stroke="#FFFFFF" stroke-width="4" fill="none"></path></g></g><mask></mask><g stroke-linecap="round"><g transform="translate(439.6149466272459 79.70275776697099) rotate(0 0.45568651226363954 6.892177048075496)"><path d="M0 0 C0.15 2.3, 0.76 11.49, 0.91 13.78 M0 0 C0.15 2.3, 0.76 11.49, 0.91 13.78" stroke="#FFFFFF" stroke-width="4" fill="none"></path></g></g><mask></mask><g stroke-linecap="round"><g transform="translate(644.7939524817135 412.36869025008036) rotate(0 4.047763287112005 -17.58895011012487)"><path d="M0 0 C-0.24 -3, -0.91 -11.84, -1.42 -18.02 C-1.93 -24.19, -2.78 -31.84, -3.07 -37.06 C-3.36 -42.27, -4.52 -51.66, -3.16 -49.31 C-1.8 -46.97, 3 -31.02, 5.12 -22.99 C7.23 -14.95, 8.5 -7.3, 9.53 -1.11 C10.55 5.08, 10.97 11.6, 11.26 14.14 M0 0 C-0.24 -3, -0.91 -11.84, -1.42 -18.02 C-1.93 -24.19, -2.78 -31.84, -3.07 -37.06 C-3.36 -42.27, -4.52 -51.66, -3.16 -49.31 C-1.8 -46.97, 3 -31.02, 5.12 -22.99 C7.23 -14.95, 8.5 -7.3, 9.53 -1.11 C10.55 5.08, 10.97 11.6, 11.26 14.14" stroke="#FFFFFF" stroke-width="4" fill="none"></path></g></g><mask></mask><g stroke-linecap="round"><g transform="translate(618.8792218083701 372.07873818767894) rotate(0 -6.733920795360362 -4.564653499446649)"><path d="M0 0 C-2.24 -1.52, -11.22 -7.61, -13.47 -9.13 M0 0 C-2.24 -1.52, -11.22 -7.61, -13.47 -9.13" stroke="#FFFFFF" stroke-width="4" fill="none"></path></g></g><mask></mask><g stroke-linecap="round"><g transform="translate(584.2177731504964 349.9273235137557) rotate(0 -6.9812857748364365 -4.009220478046473)"><path d="M0 0 C-2.33 -1.34, -11.64 -6.68, -13.96 -8.02 M0 0 C-2.33 -1.34, -11.64 -6.68, -13.96 -8.02" stroke="#FFFFFF" stroke-width="4" fill="none"></path></g></g><mask></mask><g stroke-linecap="round"><g transform="translate(511.9019380943739 545.9115795890316) rotate(0 8.722144436408882 2.2015008065814072)"><path d="M0 0 C2.91 0.73, 14.54 3.67, 17.44 4.4 M0 0 C2.91 0.73, 14.54 3.67, 17.44 4.4" stroke="#FFFFFF" stroke-width="4" fill="none"></path></g></g><mask></mask><g stroke-linecap="round"><g transform="translate(581.2074916779933 548.7569664508665) rotate(0 -14.00441791612647 12.75400863281061)"><path d="M0 0 C-4.23 2.65, -18.76 11.65, -25.36 15.9 C-31.96 20.16, -41.02 25.23, -39.61 25.51 C-38.21 25.78, -25.46 21.42, -16.92 17.55 C-8.39 13.69, 6.85 4.86, 11.6 2.32 M0 0 C-4.23 2.65, -18.76 11.65, -25.36 15.9 C-31.96 20.16, -41.02 25.23, -39.61 25.51 C-38.21 25.78, -25.46 21.42, -16.92 17.55 C-8.39 13.69, 6.85 4.86, 11.6 2.32" stroke="#FFFFFF" stroke-width="4" fill="none"></path></g></g><mask></mask><g stroke-linecap="round"><g transform="translate(181.91843005632336 559.0666159003563) rotate(0 -6.149506213066388 4.8758489483875564)"><path d="M0 0 C-2.05 1.63, -10.25 8.13, -12.3 9.75 M0 0 C-2.05 1.63, -10.25 8.13, -12.3 9.75" stroke="#FFFFFF" stroke-width="4" fill="none"></path></g></g><mask></mask></svg>