<svg version="1.1" xmlns="http://www.w3.org/2000/svg" viewBox="0 0 398.8828683964466 490.1294634179949" width="398.8828683964466" height="490.1294634179949" class="excalidraw-svg"><!-- svg-source:excalidraw --><metadata></metadata><defs><style class="style-fonts">
      </style></defs><rect x="0" y="0" width="398.8828683964466" height="490.1294634179949" fill="#000000"></rect><g stroke-linecap="round"><g transform="translate(318.668422538276 21.54128627008322) rotate(0 15.58178343713189 8.437675336976099)"><path d="M0 0 C5.19 2.81, 25.97 14.06, 31.16 16.88 M0 0 C5.19 2.81, 25.97 14.06, 31.16 16.88" stroke="#E1E1E1" stroke-width="4" fill="none"></path></g></g><mask></mask><g stroke-linecap="round"><g transform="translate(349.8810397354291 38.45396926502144) rotate(0 0 118.51759083164325)"><path d="M0 0 C0 39.51, 0 197.53, 0 237.04 M0 0 C0 39.51, 0 197.53, 0 237.04" stroke="#E1E1E1" stroke-width="4" fill="none"></path></g></g><mask></mask><g stroke-linecap="round"><g transform="translate(349.8612954122009 275.54354521352434) rotate(0 -15.622451629231819 0)"><path d="M0 0 C-5.21 0, -26.04 0, -31.24 0 M0 0 C-5.21 0, -26.04 0, -31.24 0" stroke="#E1E1E1" stroke-width="4" fill="none"></path></g></g><mask></mask><g stroke-linecap="round"><g transform="translate(318.6670054835595 275.57314188137843) rotate(0 0 -127.01952173351447)"><path d="M0 0 C0 -42.34, 0 -211.7, 0 -254.04 M0 0 C0 -42.34, 0 -211.7, 0 -254.04" stroke="#E1E1E1" stroke-width="4" fill="none"></path></g></g><mask></mask><g stroke-linecap="round"><g transform="translate(278.0504467902583 17.263107791797665) rotate(0 40.056844981940685 4.369365751580062)"><path d="M0 0 C3.99 -0.79, 18.47 -3.67, 23.93 -4.75 C29.39 -5.83, 30.78 -6.1, 32.75 -6.5 C34.71 -6.89, 34.74 -7.02, 35.72 -7.11 C36.69 -7.19, 37.34 -7.47, 38.61 -6.99 C39.88 -6.51, 39.9 -6.09, 43.33 -4.22 C46.75 -2.35, 54.07 1.51, 59.13 4.22 C64.19 6.94, 70.18 10.13, 73.68 12.07 C77.17 14.01, 79.04 15.22, 80.11 15.85 M0 0 C3.99 -0.79, 18.47 -3.67, 23.93 -4.75 C29.39 -5.83, 30.78 -6.1, 32.75 -6.5 C34.71 -6.89, 34.74 -7.02, 35.72 -7.11 C36.69 -7.19, 37.34 -7.47, 38.61 -6.99 C39.88 -6.51, 39.9 -6.09, 43.33 -4.22 C46.75 -2.35, 54.07 1.51, 59.13 4.22 C64.19 6.94, 70.18 10.13, 73.68 12.07 C77.17 14.01, 79.04 15.22, 80.11 15.85" stroke="#E1E1E1" stroke-width="4" fill="none"></path></g></g><mask></mask><g stroke-linecap="round"><g transform="translate(358.2128929416922 33.12018105218067) rotate(0 0.04514904050120094 121.06407958460295)"><path d="M0 0 C0.02 40.35, 0.08 201.77, 0.09 242.13 M0 0 C0.02 40.35, 0.08 201.77, 0.09 242.13" stroke="#E1E1E1" stroke-width="4" fill="none"></path></g></g><mask></mask><g stroke-linecap="round"><g transform="translate(309.4909012427679 275.57283362157705) rotate(0 -0.047772101343980466 -128.19369055507877)"><path d="M0 0 C-0.02 -42.73, -0.08 -213.66, -0.1 -256.39 M0 0 C-0.02 -42.73, -0.08 -213.66, -0.1 -256.39" stroke="#E1E1E1" stroke-width="4" fill="none"></path></g></g><mask></mask><g stroke-linecap="round"><g transform="translate(309.4103733990278 19.146223136991466) rotate(0 -24.244903887623877 5.305040430466306)"><path d="M0 0 C-8.08 1.77, -40.41 8.84, -48.49 10.61 M0 0 C-8.08 1.77, -40.41 8.84, -48.49 10.61" stroke="#E1E1E1" stroke-width="4" fill="none"></path></g></g><mask></mask><g stroke-linecap="round"><g transform="translate(260.8341643079175 29.75409570984266) rotate(0 0 45.94417233815511)"><path d="M0 0 C0 15.31, 0 76.57, 0 91.89 M0 0 C0 15.31, 0 76.57, 0 91.89" stroke="#E1E1E1" stroke-width="4" fill="none"></path></g></g><mask></mask><g stroke-linecap="round"><g transform="translate(260.87031480168025 121.8088780591479) rotate(0 17.296440927443655 11.72603424425597)"><path d="M0 0 C5.77 3.91, 28.83 19.54, 34.59 23.45 M0 0 C5.77 3.91, 28.83 19.54, 34.59 23.45" stroke="#E1E1E1" stroke-width="4" fill="none"></path></g></g><mask></mask><g stroke-linecap="round"><g transform="translate(295.56503599626285 145.29962703072943) rotate(0 0 65.13183425304851)"><path d="M0 0 C0 21.71, 0 108.55, 0 130.26 M0 0 C0 21.71, 0 108.55, 0 130.26" stroke="#E1E1E1" stroke-width="4" fill="none"></path></g></g><mask></mask><g stroke-linecap="round"><g transform="translate(295.65991059527914 275.5484801956727) rotate(0 6.885778773149468 -0.007595441963076155)"><path d="M0 0 C2.3 0, 11.48 -0.01, 13.77 -0.02 M0 0 C2.3 0, 11.48 -0.01, 13.77 -0.02" stroke="#E1E1E1" stroke-width="4" fill="none"></path></g></g><mask></mask><g stroke-linecap="round"><g transform="translate(256.22742206146904 131.01515907333123) rotate(0 15.510967215534947 9.551972332850255)"><path d="M0 0 C0.28 0, 1.04 -0.18, 1.67 -0.02 C2.29 0.15, 1.93 -0.17, 3.74 0.98 C5.56 2.12, 9.17 4.6, 12.56 6.86 C15.95 9.12, 21 12.48, 24.08 14.53 C27.16 16.57, 29.86 18.36, 31.02 19.12 M0 0 C0.28 0, 1.04 -0.18, 1.67 -0.02 C2.29 0.15, 1.93 -0.17, 3.74 0.98 C5.56 2.12, 9.17 4.6, 12.56 6.86 C15.95 9.12, 21 12.48, 24.08 14.53 C27.16 16.57, 29.86 18.36, 31.02 19.12" stroke="#E1E1E1" stroke-width="4" fill="none"></path></g></g><mask></mask><g stroke-linecap="round"><g transform="translate(287.32869790205586 150.23786617921178) rotate(0 0 62.638949144621165)"><path d="M0 0 C0 20.88, 0 104.4, 0 125.28 M0 0 C0 20.88, 0 104.4, 0 125.28" stroke="#E1E1E1" stroke-width="4" fill="none"></path></g></g><mask></mask><g stroke-linecap="round"><g transform="translate(256.17054654190997 131.0578127264689) rotate(0 0 72.28666735791057)"><path d="M0 0 C0 24.1, 0 120.48, 0 144.57 M0 0 C0 24.1, 0 120.48, 0 144.57" stroke="#E1E1E1" stroke-width="4" fill="none"></path></g></g><mask></mask><g stroke-linecap="round"><g transform="translate(287.2969326729708 275.5902226260896) rotate(0 -15.552615864340623 0)"><path d="M0 0 C-5.18 0, -25.92 0, -31.11 0 M0 0 C-5.18 0, -25.92 0, -31.11 0" stroke="#E1E1E1" stroke-width="4" fill="none"></path></g></g><mask></mask><g stroke-linecap="round"><g transform="translate(247.34357260593697 275.682931914077) rotate(0 0 -74.48017815459798)"><path d="M0 0 C0 -24.83, 0 -124.13, 0 -148.96 M0 0 C0 -24.83, 0 -124.13, 0 -148.96" stroke="#E1E1E1" stroke-width="4" fill="none"></path></g></g><mask></mask><g stroke-linecap="round"><g transform="translate(247.29553151022174 126.6819076612901) rotate(0 -11.51534543448497 1.6516980124306428)"><path d="M0 0 C-0.64 0.01, -2.27 -0.01, -3.83 0.09 C-5.38 0.19, -6.15 0.06, -9.35 0.6 C-12.55 1.13, -20.75 2.85, -23.03 3.3 M0 0 C-0.64 0.01, -2.27 -0.01, -3.83 0.09 C-5.38 0.19, -6.15 0.06, -9.35 0.6 C-12.55 1.13, -20.75 2.85, -23.03 3.3" stroke="#E1E1E1" stroke-width="4" fill="none"></path></g></g><mask></mask><g stroke-linecap="round"><g transform="translate(224.16742254769542 130.02439839701856) rotate(0 0 72.83024482972951)"><path d="M0 0 C0 24.28, 0 121.38, 0 145.66 M0 0 C0 24.28, 0 121.38, 0 145.66" stroke="#E1E1E1" stroke-width="4" fill="none"></path></g></g><mask></mask><g stroke-linecap="round"><g transform="translate(247.33840760705425 275.82173116637296) rotate(0 -11.582832347285148 0)"><path d="M0 0 C-3.86 0, -19.3 0, -23.17 0 M0 0 C-3.86 0, -19.3 0, -23.17 0" stroke="#E1E1E1" stroke-width="4" fill="none"></path></g></g><mask></mask><g stroke-linecap="round"><g transform="translate(216.01430529049503 275.5640540561735) rotate(0 0 -101.90175590371473)"><path d="M0 0 C0 -33.97, 0 -169.84, 0 -203.8 M0 0 C0 -33.97, 0 -169.84, 0 -203.8" stroke="#E1E1E1" stroke-width="4" fill="none"></path></g></g><mask></mask><g stroke-linecap="round"><g transform="translate(216.00177716294547 71.65437227854727) rotate(0 -15.478674469115504 -8.498016011822074)"><path d="M0 0 C-5.16 -2.83, -25.8 -14.16, -30.96 -17 M0 0 C-5.16 -2.83, -25.8 -14.16, -30.96 -17" stroke="#E1E1E1" stroke-width="4" fill="none"></path></g></g><mask></mask><g stroke-linecap="round"><g transform="translate(185.00578331768793 54.6079578303179) rotate(0 0 110.56106694527398)"><path d="M0 0 C0 36.85, 0 184.27, 0 221.12 M0 0 C0 36.85, 0 184.27, 0 221.12" stroke="#E1E1E1" stroke-width="4" fill="none"></path></g></g><mask></mask><g stroke-linecap="round"><g transform="translate(216.03672253454351 275.77296915882107) rotate(0 -15.498082338574022 0)"><path d="M0 0 C-5.17 0, -25.83 0, -31 0 M0 0 C-5.17 0, -25.83 0, -31 0" stroke="#E1E1E1" stroke-width="4" fill="none"></path></g></g><mask></mask><g stroke-linecap="round"><g transform="translate(176.14807640170966 275.5367455795622) rotate(0 0 -111.46902278203925)"><path d="M0 0 C0 -37.16, 0 -185.78, 0 -222.94 M0 0 C0 -37.16, 0 -185.78, 0 -222.94" stroke="#E1E1E1" stroke-width="4" fill="none"></path></g></g><mask></mask><g stroke-linecap="round"><g transform="translate(176.1123853336885 52.63355550071083) rotate(0 -38.1376609636568 10.966645809439342)"><path d="M0 0 C-12.71 3.66, -63.56 18.28, -76.28 21.93 M0 0 C-12.71 3.66, -63.56 18.28, -76.28 21.93" stroke="#E1E1E1" stroke-width="4" fill="none"></path></g></g><mask></mask><g stroke-linecap="round"><g transform="translate(99.78848811424359 74.6321915917415) rotate(0 0 9.802373269893906)"><path d="M0 0 C0 3.27, 0 16.34, 0 19.6 M0 0 C0 3.27, 0 16.34, 0 19.6" stroke="#E1E1E1" stroke-width="4" fill="none"></path></g></g><mask></mask><g stroke-linecap="round"><g transform="translate(99.80213260601977 94.23693813153022) rotate(0 30.8721416655585 87.90607251399433)"><path d="M0 0 C2.2 -0.75, 10.61 -3.64, 13.2 -4.51 C15.79 -5.37, 14.62 -5.02, 15.52 -5.2 C16.43 -5.38, 17.57 -5.74, 18.63 -5.59 C19.68 -5.45, 20.23 -5.18, 21.86 -4.31 C23.49 -3.44, 25.62 -2.03, 28.41 -0.38 C31.19 1.27, 33.66 2.6, 38.56 5.57 C43.47 8.55, 54.05 15.08, 57.85 17.47 C61.66 19.85, 60.73 19.27, 61.38 19.87 C62.03 20.46, 61.68 19.61, 61.74 21.02 C61.8 22.42, 61.74 25.06, 61.74 28.3 C61.74 31.54, 61.74 14.97, 61.74 40.48 C61.74 66, 61.74 157.92, 61.74 181.41 M0 0 C2.2 -0.75, 10.61 -3.64, 13.2 -4.51 C15.79 -5.37, 14.62 -5.02, 15.52 -5.2 C16.43 -5.38, 17.57 -5.74, 18.63 -5.59 C19.68 -5.45, 20.23 -5.18, 21.86 -4.31 C23.49 -3.44, 25.62 -2.03, 28.41 -0.38 C31.19 1.27, 33.66 2.6, 38.56 5.57 C43.47 8.55, 54.05 15.08, 57.85 17.47 C61.66 19.85, 60.73 19.27, 61.38 19.87 C62.03 20.46, 61.68 19.61, 61.74 21.02 C61.8 22.42, 61.74 25.06, 61.74 28.3 C61.74 31.54, 61.74 14.97, 61.74 40.48 C61.74 66, 61.74 157.92, 61.74 181.41" stroke="#E1E1E1" stroke-width="4" fill="none"></path></g></g><mask></mask><g stroke-linecap="round"><g transform="translate(161.62631164775848 275.6718290049912) rotate(0 7.2587213665424315 0)"><path d="M0 0 C2.42 0, 12.1 0, 14.52 0 M0 0 C2.42 0, 12.1 0, 14.52 0" stroke="#E1E1E1" stroke-width="4" fill="none"></path></g></g><mask></mask><g stroke-linecap="round"><g transform="translate(153.44813490118304 275.5591918597129) rotate(0 0 -78.39010013907682)"><path d="M0 0 C0 -26.13, 0 -130.65, 0 -156.78 M0 0 C0 -26.13, 0 -130.65, 0 -156.78" stroke="#E1E1E1" stroke-width="4" fill="none"></path></g></g><mask></mask><g stroke-linecap="round"><g transform="translate(153.42685215079837 118.72033710904634) rotate(0 -15.645973500330456 -9.095713369951682)"><path d="M0 0 C-5.22 -3.03, -26.08 -15.16, -31.29 -18.19 M0 0 C-5.22 -3.03, -26.08 -15.16, -31.29 -18.19" stroke="#E1E1E1" stroke-width="4" fill="none"></path></g></g><mask></mask><g stroke-linecap="round"><g transform="translate(122.05348415992285 100.49530203126415) rotate(0 0 87.53905448435853)"><path d="M0 0 C0 29.18, 0 145.9, 0 175.08 M0 0 C0 29.18, 0 145.9, 0 175.08" stroke="#E1E1E1" stroke-width="4" fill="none"></path></g></g><mask></mask><g stroke-linecap="round"><g transform="translate(122.09605203282263 275.722873574161) rotate(0 15.67674714285613 0)"><path d="M0 0 C5.23 0, 26.13 0, 31.35 0 M0 0 C5.23 0, 26.13 0, 31.35 0" stroke="#E1E1E1" stroke-width="4" fill="none"></path></g></g><mask></mask><g stroke-linecap="round"><g transform="translate(113.03656402815614 98.35692908178044) rotate(0 0 88.55261471235553)"><path d="M0 0 C0 29.52, 0 147.59, 0 177.11 M0 0 C0 29.52, 0 147.59, 0 177.11" stroke="#E1E1E1" stroke-width="4" fill="none"></path></g></g><mask></mask><g stroke-linecap="round"><g transform="translate(46.54600168975685 275.3613489781519) rotate(0 0 -77.05644524632999)"><path d="M0 0 C0 -25.69, 0 -128.43, 0 -154.11 M0 0 C0 -25.69, 0 -128.43, 0 -154.11" stroke="#E1E1E1" stroke-width="4" fill="none"></path></g></g><mask></mask><g stroke-linecap="round"><g transform="translate(46.524681552014954 121.24521606989856) rotate(0 33.24262997204869 -11.424058757176226)"><path d="M0 0 C11.08 -3.81, 55.4 -19.04, 66.49 -22.85 M0 0 C11.08 -3.81, 55.4 -19.04, 66.49 -22.85" stroke="#E1E1E1" stroke-width="4" fill="none"></path></g></g><mask></mask><g stroke-linecap="round"><g transform="translate(70.27250856486444 136.90501078647594) rotate(0 10.044145109072815 46.51449353799171)"><path d="M0 0 C2.03 -0.67, 7.94 -2.61, 12.2 -4.05 C16.45 -5.48, 22.43 -7.56, 25.51 -8.61 C28.59 -9.66, 29.49 -10.06, 30.68 -10.35 C31.87 -10.64, 32.1 -10.49, 32.63 -10.36 C33.17 -10.23, 33.57 -9.97, 33.9 -9.56 C34.24 -9.16, 34.5 -8.6, 34.64 -7.95 C34.79 -7.29, 34.75 -9.15, 34.77 -5.65 C34.79 -2.16, 34.77 6.94, 34.77 13.03 C34.77 19.12, 34.77 26.2, 34.77 30.87 C34.77 35.54, 34.77 36.25, 34.77 41.04 C34.77 45.82, 34.77 52.48, 34.77 59.57 C34.77 66.66, 34.77 77.22, 34.77 83.6 C34.77 89.99, 34.8 94.91, 34.77 97.88 C34.74 100.84, 34.92 100.51, 34.61 101.38 C34.3 102.25, 33.81 102.75, 32.93 103.08 C32.04 103.42, 33.06 103.34, 29.29 103.39 C25.52 103.44, 16.58 103.39, 10.31 103.39 C4.03 103.39, -4.47 103.42, -8.35 103.39 C-12.22 103.36, -11.95 103.42, -12.95 103.21 C-13.95 103, -14.06 102.69, -14.35 102.13 C-14.64 101.56, -14.63 101.24, -14.68 99.81 C-14.73 98.38, -14.65 101.16, -14.65 93.56 C-14.64 85.95, -14.65 64.05, -14.65 54.2 C-14.65 44.35, -14.65 41.45, -14.65 34.46 C-14.65 27.47, -14.66 16.94, -14.65 12.25 C-14.64 7.57, -14.83 7.64, -14.61 6.37 C-14.4 5.09, -14.52 5.22, -13.35 4.58 C-12.18 3.95, -9.84 3.33, -7.61 2.56 C-5.39 1.8, -1.27 0.43, 0 0 M0 0 C2.03 -0.67, 7.94 -2.61, 12.2 -4.05 C16.45 -5.48, 22.43 -7.56, 25.51 -8.61 C28.59 -9.66, 29.49 -10.06, 30.68 -10.35 C31.87 -10.64, 32.1 -10.49, 32.63 -10.36 C33.17 -10.23, 33.57 -9.97, 33.9 -9.56 C34.24 -9.16, 34.5 -8.6, 34.64 -7.95 C34.79 -7.29, 34.75 -9.15, 34.77 -5.65 C34.79 -2.16, 34.77 6.94, 34.77 13.03 C34.77 19.12, 34.77 26.2, 34.77 30.87 C34.77 35.54, 34.77 36.25, 34.77 41.04 C34.77 45.82, 34.77 52.48, 34.77 59.57 C34.77 66.66, 34.77 77.22, 34.77 83.6 C34.77 89.99, 34.8 94.91, 34.77 97.88 C34.74 100.84, 34.92 100.51, 34.61 101.38 C34.3 102.25, 33.81 102.75, 32.93 103.08 C32.04 103.42, 33.06 103.34, 29.29 103.39 C25.52 103.44, 16.58 103.39, 10.31 103.39 C4.03 103.39, -4.47 103.42, -8.35 103.39 C-12.22 103.36, -11.95 103.42, -12.95 103.21 C-13.95 103, -14.06 102.69, -14.35 102.13 C-14.64 101.56, -14.63 101.24, -14.68 99.81 C-14.73 98.38, -14.65 101.16, -14.65 93.56 C-14.64 85.95, -14.65 64.05, -14.65 54.2 C-14.65 44.35, -14.65 41.45, -14.65 34.46 C-14.65 27.47, -14.66 16.94, -14.65 12.25 C-14.64 7.57, -14.83 7.64, -14.61 6.37 C-14.4 5.09, -14.52 5.22, -13.35 4.58 C-12.18 3.95, -9.84 3.33, -7.61 2.56 C-5.39 1.8, -1.27 0.43, 0 0" stroke="#E1E1E1" stroke-width="4" fill="none"></path></g></g><mask></mask><g stroke-linecap="round"><g transform="translate(65.35051762374587 145.372207741515) rotate(0 3.9181812735887434 4.622912074135002)"><path d="M0 0 C0.88 -0.27, 3.75 -1.15, 5.29 -1.61 C6.82 -2.08, 8.2 -2.62, 9.23 -2.81 C10.26 -3, 11.09 -3.35, 11.47 -2.76 C11.84 -2.18, 11.45 -1.01, 11.47 0.7 C11.48 2.4, 11.57 6.04, 11.56 7.46 C11.55 8.88, 11.59 8.85, 11.42 9.2 C11.25 9.56, 11.32 9.38, 10.53 9.57 C9.74 9.77, 8.62 9.98, 6.69 10.36 C4.76 10.73, 0.63 11.57, -1.05 11.85 C-2.73 12.14, -2.97 12.25, -3.42 12.06 C-3.86 11.86, -3.67 11.55, -3.72 10.67 C-3.78 9.79, -3.73 8.19, -3.72 6.79 C-3.72 5.38, -3.85 3.17, -3.72 2.22 C-3.58 1.27, -3.52 1.43, -2.9 1.06 C-2.28 0.69, -0.48 0.18, 0 0 M0 0 C0.88 -0.27, 3.75 -1.15, 5.29 -1.61 C6.82 -2.08, 8.2 -2.62, 9.23 -2.81 C10.26 -3, 11.09 -3.35, 11.47 -2.76 C11.84 -2.18, 11.45 -1.01, 11.47 0.7 C11.48 2.4, 11.57 6.04, 11.56 7.46 C11.55 8.88, 11.59 8.85, 11.42 9.2 C11.25 9.56, 11.32 9.38, 10.53 9.57 C9.74 9.77, 8.62 9.98, 6.69 10.36 C4.76 10.73, 0.63 11.57, -1.05 11.85 C-2.73 12.14, -2.97 12.25, -3.42 12.06 C-3.86 11.86, -3.67 11.55, -3.72 10.67 C-3.78 9.79, -3.73 8.19, -3.72 6.79 C-3.72 5.38, -3.85 3.17, -3.72 2.22 C-3.58 1.27, -3.52 1.43, -2.9 1.06 C-2.28 0.69, -0.48 0.18, 0 0" stroke="#E1E1E1" stroke-width="4" fill="none"></path></g></g><mask></mask><g stroke-linecap="round"><g transform="translate(87.42573082228046 138.45155301815703) rotate(0 3.6351832828086117 5.550907327516597)"><path d="M0 0 C0.82 -0.32, 3.48 -1.38, 4.9 -1.94 C6.33 -2.5, 7.6 -3.14, 8.56 -3.37 C9.52 -3.61, 10.29 -4.02, 10.64 -3.32 C10.98 -2.62, 10.62 -1.21, 10.64 0.84 C10.65 2.88, 10.73 7.26, 10.73 8.96 C10.72 10.66, 10.75 10.63, 10.6 11.05 C10.44 11.48, 10.5 11.27, 9.77 11.5 C9.04 11.73, 8 11.98, 6.21 12.43 C4.41 12.89, 0.59 13.89, -0.97 14.23 C-2.54 14.57, -2.76 14.71, -3.17 14.48 C-3.58 14.24, -3.41 13.87, -3.46 12.81 C-3.5 11.76, -3.46 9.84, -3.46 8.15 C-3.45 6.46, -3.58 3.81, -3.45 2.67 C-3.32 1.52, -3.27 1.71, -2.69 1.27 C-2.12 0.82, -0.45 0.21, 0 0 M0 0 C0.82 -0.32, 3.48 -1.38, 4.9 -1.94 C6.33 -2.5, 7.6 -3.14, 8.56 -3.37 C9.52 -3.61, 10.29 -4.02, 10.64 -3.32 C10.98 -2.62, 10.62 -1.21, 10.64 0.84 C10.65 2.88, 10.73 7.26, 10.73 8.96 C10.72 10.66, 10.75 10.63, 10.6 11.05 C10.44 11.48, 10.5 11.27, 9.77 11.5 C9.04 11.73, 8 11.98, 6.21 12.43 C4.41 12.89, 0.59 13.89, -0.97 14.23 C-2.54 14.57, -2.76 14.71, -3.17 14.48 C-3.58 14.24, -3.41 13.87, -3.46 12.81 C-3.5 11.76, -3.46 9.84, -3.46 8.15 C-3.45 6.46, -3.58 3.81, -3.45 2.67 C-3.32 1.52, -3.27 1.71, -2.69 1.27 C-2.12 0.82, -0.45 0.21, 0 0" stroke="#E1E1E1" stroke-width="4" fill="none"></path></g></g><mask></mask><g stroke-linecap="round"><g transform="translate(67.46384334007143 163.31250274126614) rotate(0 1.6331402947375864 5.690270559712189)"><path d="M0 0 C0.68 -0.12, 2.75 -0.51, 4.08 -0.71 C5.41 -0.91, 7.12 -1.24, 7.97 -1.2 C8.81 -1.17, 8.95 -1.47, 9.16 -0.52 C9.36 0.44, 9.21 2.95, 9.21 4.51 C9.21 6.06, 9.17 7.85, 9.17 8.82 C9.16 9.78, 9.34 9.97, 9.18 10.29 C9.01 10.61, 9.02 10.53, 8.17 10.72 C7.33 10.92, 5.74 11.21, 4.09 11.45 C2.45 11.69, -0.23 11.98, -1.69 12.17 C-3.16 12.36, -3.99 12.59, -4.68 12.58 C-5.36 12.58, -5.58 12.48, -5.8 12.15 C-6.01 11.83, -5.92 11.71, -5.94 10.64 C-5.97 9.57, -5.94 7.16, -5.94 5.74 C-5.94 4.31, -6.07 2.82, -5.94 2.09 C-5.82 1.35, -6.17 1.69, -5.18 1.35 C-4.19 1, -0.86 0.22, 0 0 M0 0 C0.68 -0.12, 2.75 -0.51, 4.08 -0.71 C5.41 -0.91, 7.12 -1.24, 7.97 -1.2 C8.81 -1.17, 8.95 -1.47, 9.16 -0.52 C9.36 0.44, 9.21 2.95, 9.21 4.51 C9.21 6.06, 9.17 7.85, 9.17 8.82 C9.16 9.78, 9.34 9.97, 9.18 10.29 C9.01 10.61, 9.02 10.53, 8.17 10.72 C7.33 10.92, 5.74 11.21, 4.09 11.45 C2.45 11.69, -0.23 11.98, -1.69 12.17 C-3.16 12.36, -3.99 12.59, -4.68 12.58 C-5.36 12.58, -5.58 12.48, -5.8 12.15 C-6.01 11.83, -5.92 11.71, -5.94 10.64 C-5.97 9.57, -5.94 7.16, -5.94 5.74 C-5.94 4.31, -6.07 2.82, -5.94 2.09 C-5.82 1.35, -6.17 1.69, -5.18 1.35 C-4.19 1, -0.86 0.22, 0 0" stroke="#E1E1E1" stroke-width="4" fill="none"></path></g></g><mask></mask><g stroke-linecap="round"><g transform="translate(89.73254624394121 158.86188706708708) rotate(0 1.2479566178849382 6.544250421412471)"><path d="M0 0 C0.88 -0.17, 3.93 -0.77, 5.27 -1.03 C6.6 -1.29, 7.47 -1.6, 8.02 -1.55 C8.56 -1.51, 8.43 -1.54, 8.52 -0.74 C8.6 0.06, 8.5 1.43, 8.5 3.23 C8.5 5.03, 8.5 8.62, 8.5 10.07 C8.5 11.51, 8.6 11.45, 8.5 11.89 C8.4 12.34, 8.55 12.5, 7.9 12.74 C7.25 12.99, 6.38 13.12, 4.62 13.35 C2.86 13.58, -0.96 13.91, -2.66 14.13 C-4.36 14.34, -5.04 14.68, -5.6 14.64 C-6.15 14.61, -5.94 14.58, -6.01 13.9 C-6.08 13.23, -6 12.24, -6.01 10.59 C-6.01 8.94, -6.02 5.53, -6.02 4.02 C-6.02 2.51, -6.17 2.04, -5.98 1.53 C-5.79 1.02, -5.89 1.2, -4.89 0.95 C-3.89 0.69, -0.82 0.16, 0 0 M0 0 C0.88 -0.17, 3.93 -0.77, 5.27 -1.03 C6.6 -1.29, 7.47 -1.6, 8.02 -1.55 C8.56 -1.51, 8.43 -1.54, 8.52 -0.74 C8.6 0.06, 8.5 1.43, 8.5 3.23 C8.5 5.03, 8.5 8.62, 8.5 10.07 C8.5 11.51, 8.6 11.45, 8.5 11.89 C8.4 12.34, 8.55 12.5, 7.9 12.74 C7.25 12.99, 6.38 13.12, 4.62 13.35 C2.86 13.58, -0.96 13.91, -2.66 14.13 C-4.36 14.34, -5.04 14.68, -5.6 14.64 C-6.15 14.61, -5.94 14.58, -6.01 13.9 C-6.08 13.23, -6 12.24, -6.01 10.59 C-6.01 8.94, -6.02 5.53, -6.02 4.02 C-6.02 2.51, -6.17 2.04, -5.98 1.53 C-5.79 1.02, -5.89 1.2, -4.89 0.95 C-3.89 0.69, -0.82 0.16, 0 0" stroke="#E1E1E1" stroke-width="4" fill="none"></path></g></g><mask></mask><g stroke-linecap="round"><g transform="translate(85.45388343441937 179.95054960709876) rotate(0 5.464356535991101 6.542624797215012)"><path d="M0 0 C1.02 -0.09, 4.21 -0.4, 6.13 -0.56 C8.06 -0.72, 10.45 -1.14, 11.54 -0.96 C12.63 -0.79, 12.49 -0.41, 12.67 0.48 C12.86 1.38, 12.65 2.71, 12.67 4.41 C12.7 6.1, 12.79 9.37, 12.82 10.66 C12.84 11.95, 12.95 11.73, 12.81 12.15 C12.68 12.57, 12.62 12.97, 12.01 13.19 C11.39 13.42, 10.9 13.37, 9.13 13.5 C7.35 13.63, 3.08 13.89, 1.37 13.98 C-0.34 14.07, -0.59 14.25, -1.13 14.05 C-1.67 13.84, -1.75 13.68, -1.87 12.75 C-2 11.83, -1.88 10.35, -1.89 8.51 C-1.89 6.66, -1.93 3.03, -1.89 1.69 C-1.84 0.35, -1.92 0.74, -1.6 0.46 C-1.29 0.18, -0.27 0.08, 0 0 M0 0 C1.02 -0.09, 4.21 -0.4, 6.13 -0.56 C8.06 -0.72, 10.45 -1.14, 11.54 -0.96 C12.63 -0.79, 12.49 -0.41, 12.67 0.48 C12.86 1.38, 12.65 2.71, 12.67 4.41 C12.7 6.1, 12.79 9.37, 12.82 10.66 C12.84 11.95, 12.95 11.73, 12.81 12.15 C12.68 12.57, 12.62 12.97, 12.01 13.19 C11.39 13.42, 10.9 13.37, 9.13 13.5 C7.35 13.63, 3.08 13.89, 1.37 13.98 C-0.34 14.07, -0.59 14.25, -1.13 14.05 C-1.67 13.84, -1.75 13.68, -1.87 12.75 C-2 11.83, -1.88 10.35, -1.89 8.51 C-1.89 6.66, -1.93 3.03, -1.89 1.69 C-1.84 0.35, -1.92 0.74, -1.6 0.46 C-1.29 0.18, -0.27 0.08, 0 0" stroke="#E1E1E1" stroke-width="4" fill="none"></path></g></g><mask></mask><g stroke-linecap="round"><g transform="translate(65.31176886436333 182.16671177083117) rotate(0 3.9735787698787135 5.868028401836455)"><path d="M0 0 C1.61 -0.18, 7.75 -0.95, 9.63 -1.1 C11.52 -1.26, 10.98 -1.2, 11.31 -0.93 C11.65 -0.66, 11.61 -0.58, 11.67 0.52 C11.73 1.62, 11.67 4, 11.67 5.67 C11.67 7.33, 11.78 9.55, 11.67 10.52 C11.56 11.49, 11.45 11.26, 10.99 11.47 C10.54 11.68, 10.35 11.62, 8.94 11.77 C7.52 11.93, 4.37 12.21, 2.51 12.38 C0.64 12.56, -1.25 12.87, -2.25 12.84 C-3.25 12.8, -3.26 12.64, -3.51 12.17 C-3.75 11.7, -3.68 11.18, -3.72 10.01 C-3.76 8.83, -3.72 6.55, -3.72 5.13 C-3.72 3.7, -3.85 2.26, -3.72 1.49 C-3.59 0.71, -3.59 0.7, -2.97 0.45 C-2.35 0.21, -0.49 0.08, 0 0 M0 0 C1.61 -0.18, 7.75 -0.95, 9.63 -1.1 C11.52 -1.26, 10.98 -1.2, 11.31 -0.93 C11.65 -0.66, 11.61 -0.58, 11.67 0.52 C11.73 1.62, 11.67 4, 11.67 5.67 C11.67 7.33, 11.78 9.55, 11.67 10.52 C11.56 11.49, 11.45 11.26, 10.99 11.47 C10.54 11.68, 10.35 11.62, 8.94 11.77 C7.52 11.93, 4.37 12.21, 2.51 12.38 C0.64 12.56, -1.25 12.87, -2.25 12.84 C-3.25 12.8, -3.26 12.64, -3.51 12.17 C-3.75 11.7, -3.68 11.18, -3.72 10.01 C-3.76 8.83, -3.72 6.55, -3.72 5.13 C-3.72 3.7, -3.85 2.26, -3.72 1.49 C-3.59 0.71, -3.59 0.7, -2.97 0.45 C-2.35 0.21, -0.49 0.08, 0 0" stroke="#E1E1E1" stroke-width="4" fill="none"></path></g></g><mask></mask><g stroke-linecap="round"><g transform="translate(65.91821149823863 200.90927348717196) rotate(0 3.400412030975531 5.678018706661987)"><path d="M0 0 C1.4 -0.04, 6.68 -0.19, 8.43 -0.23 C10.18 -0.27, 10.08 -0.39, 10.51 -0.24 C10.95 -0.08, 10.95 0.01, 11.04 0.71 C11.12 1.41, 11.03 2.5, 11.03 3.96 C11.03 5.42, 11.07 8.33, 11.03 9.49 C10.99 10.66, 11.03 10.63, 10.8 10.97 C10.58 11.3, 10.51 11.4, 9.68 11.5 C8.86 11.6, 7.53 11.58, 5.86 11.59 C4.19 11.61, 1.11 11.59, -0.34 11.59 C-1.79 11.59, -2.26 11.7, -2.85 11.59 C-3.45 11.48, -3.69 11.29, -3.92 10.93 C-4.15 10.57, -4.19 10.3, -4.24 9.44 C-4.29 8.58, -4.24 7.08, -4.22 5.77 C-4.2 4.45, -4.29 2.47, -4.13 1.54 C-3.97 0.61, -3.92 0.45, -3.24 0.19 C-2.55 -0.07, -0.54 0.03, 0 0 M0 0 C1.4 -0.04, 6.68 -0.19, 8.43 -0.23 C10.18 -0.27, 10.08 -0.39, 10.51 -0.24 C10.95 -0.08, 10.95 0.01, 11.04 0.71 C11.12 1.41, 11.03 2.5, 11.03 3.96 C11.03 5.42, 11.07 8.33, 11.03 9.49 C10.99 10.66, 11.03 10.63, 10.8 10.97 C10.58 11.3, 10.51 11.4, 9.68 11.5 C8.86 11.6, 7.53 11.58, 5.86 11.59 C4.19 11.61, 1.11 11.59, -0.34 11.59 C-1.79 11.59, -2.26 11.7, -2.85 11.59 C-3.45 11.48, -3.69 11.29, -3.92 10.93 C-4.15 10.57, -4.19 10.3, -4.24 9.44 C-4.29 8.58, -4.24 7.08, -4.22 5.77 C-4.2 4.45, -4.29 2.47, -4.13 1.54 C-3.97 0.61, -3.92 0.45, -3.24 0.19 C-2.55 -0.07, -0.54 0.03, 0 0" stroke="#E1E1E1" stroke-width="4" fill="none"></path></g></g><mask></mask><g stroke-linecap="round"><g transform="translate(86.85823141220953 200.20724906762553) rotate(0 4.124270548217737 5.862964579491745)"><path d="M0 0 C1.43 -0.1, 6.82 -0.48, 8.59 -0.6 C10.36 -0.71, 10.17 -0.83, 10.62 -0.68 C11.06 -0.54, 11.13 -0.3, 11.27 0.26 C11.41 0.82, 11.45 1.55, 11.48 2.68 C11.51 3.82, 11.46 5.75, 11.45 7.06 C11.45 8.37, 11.52 9.76, 11.45 10.55 C11.39 11.34, 11.37 11.51, 11.05 11.8 C10.72 12.09, 10.68 12.18, 9.51 12.28 C8.34 12.38, 5.94 12.36, 4.02 12.39 C2.1 12.41, -0.83 12.5, -2.01 12.41 C-3.19 12.32, -2.85 12.25, -3.05 11.85 C-3.24 11.45, -3.15 11.1, -3.18 10.01 C-3.21 8.91, -3.24 6.76, -3.23 5.26 C-3.23 3.75, -3.3 1.8, -3.15 0.97 C-2.99 0.14, -2.83 0.43, -2.3 0.27 C-1.78 0.11, -0.38 0.04, 0 0 M0 0 C1.43 -0.1, 6.82 -0.48, 8.59 -0.6 C10.36 -0.71, 10.17 -0.83, 10.62 -0.68 C11.06 -0.54, 11.13 -0.3, 11.27 0.26 C11.41 0.82, 11.45 1.55, 11.48 2.68 C11.51 3.82, 11.46 5.75, 11.45 7.06 C11.45 8.37, 11.52 9.76, 11.45 10.55 C11.39 11.34, 11.37 11.51, 11.05 11.8 C10.72 12.09, 10.68 12.18, 9.51 12.28 C8.34 12.38, 5.94 12.36, 4.02 12.39 C2.1 12.41, -0.83 12.5, -2.01 12.41 C-3.19 12.32, -2.85 12.25, -3.05 11.85 C-3.24 11.45, -3.15 11.1, -3.18 10.01 C-3.21 8.91, -3.24 6.76, -3.23 5.26 C-3.23 3.75, -3.3 1.8, -3.15 0.97 C-2.99 0.14, -2.83 0.43, -2.3 0.27 C-1.78 0.11, -0.38 0.04, 0 0" stroke="#E1E1E1" stroke-width="4" fill="none"></path></g></g><mask></mask><g stroke-linecap="round"><g transform="translate(66.4925212761118 218.64018753618893) rotate(0 2.6844201771459666 7.560871398328345)"><path d="M0 0 C1.16 0, 5.36 -0.01, 6.95 -0.01 C8.53 -0.01, 8.96 -0.19, 9.51 -0.01 C10.05 0.17, 10.09 0.22, 10.21 1.07 C10.32 1.91, 10.23 3.04, 10.22 5.05 C10.21 7.05, 10.16 11.53, 10.13 13.1 C10.1 14.68, 10.16 14.19, 10.05 14.51 C9.93 14.84, 10.07 14.94, 9.43 15.04 C8.78 15.13, 8.06 15.04, 6.19 15.06 C4.33 15.08, -0.13 15.12, -1.75 15.13 C-3.37 15.15, -3.04 15.23, -3.51 15.13 C-3.99 15.03, -4.36 14.87, -4.58 14.53 C-4.8 14.19, -4.81 14.2, -4.85 13.1 C-4.89 12.01, -4.85 9.85, -4.84 7.97 C-4.83 6.08, -4.95 3.07, -4.81 1.8 C-4.67 0.53, -4.37 0.64, -4 0.34 C-3.62 0.04, -3.24 0.06, -2.57 0 C-1.91 -0.06, -0.43 0, 0 0 M0 0 C1.16 0, 5.36 -0.01, 6.95 -0.01 C8.53 -0.01, 8.96 -0.19, 9.51 -0.01 C10.05 0.17, 10.09 0.22, 10.21 1.07 C10.32 1.91, 10.23 3.04, 10.22 5.05 C10.21 7.05, 10.16 11.53, 10.13 13.1 C10.1 14.68, 10.16 14.19, 10.05 14.51 C9.93 14.84, 10.07 14.94, 9.43 15.04 C8.78 15.13, 8.06 15.04, 6.19 15.06 C4.33 15.08, -0.13 15.12, -1.75 15.13 C-3.37 15.15, -3.04 15.23, -3.51 15.13 C-3.99 15.03, -4.36 14.87, -4.58 14.53 C-4.8 14.19, -4.81 14.2, -4.85 13.1 C-4.89 12.01, -4.85 9.85, -4.84 7.97 C-4.83 6.08, -4.95 3.07, -4.81 1.8 C-4.67 0.53, -4.37 0.64, -4 0.34 C-3.62 0.04, -3.24 0.06, -2.57 0 C-1.91 -0.06, -0.43 0, 0 0" stroke="#E1E1E1" stroke-width="4" fill="none"></path></g></g><mask></mask><g stroke-linecap="round"><g transform="translate(85.93870105016413 218.6631498430079) rotate(0 4.982350587657038 7.581864757779385)"><path d="M0 0 C1.32 0, 6.04 0.02, 7.91 0.01 C9.78 0.01, 10.5 -0.2, 11.21 -0.01 C11.93 0.17, 12.03 0.61, 12.21 1.11 C12.4 1.61, 12.31 1.69, 12.33 2.99 C12.34 4.29, 12.34 7.05, 12.33 8.91 C12.32 10.78, 12.42 13.16, 12.27 14.19 C12.12 15.21, 11.9 14.9, 11.41 15.06 C10.93 15.23, 10.49 15.16, 9.36 15.18 C8.22 15.2, 6.22 15.19, 4.6 15.18 C2.98 15.17, 0.78 15.15, -0.35 15.11 C-1.48 15.08, -1.85 15.31, -2.18 14.96 C-2.51 14.61, -2.31 14.56, -2.34 13.03 C-2.37 11.49, -2.36 7.71, -2.36 5.76 C-2.36 3.82, -2.45 2.28, -2.36 1.35 C-2.28 0.42, -2.25 0.41, -1.85 0.19 C-1.46 -0.04, -0.31 0.03, 0 0 M0 0 C1.32 0, 6.04 0.02, 7.91 0.01 C9.78 0.01, 10.5 -0.2, 11.21 -0.01 C11.93 0.17, 12.03 0.61, 12.21 1.11 C12.4 1.61, 12.31 1.69, 12.33 2.99 C12.34 4.29, 12.34 7.05, 12.33 8.91 C12.32 10.78, 12.42 13.16, 12.27 14.19 C12.12 15.21, 11.9 14.9, 11.41 15.06 C10.93 15.23, 10.49 15.16, 9.36 15.18 C8.22 15.2, 6.22 15.19, 4.6 15.18 C2.98 15.17, 0.78 15.15, -0.35 15.11 C-1.48 15.08, -1.85 15.31, -2.18 14.96 C-2.51 14.61, -2.31 14.56, -2.34 13.03 C-2.37 11.49, -2.36 7.71, -2.36 5.76 C-2.36 3.82, -2.45 2.28, -2.36 1.35 C-2.28 0.42, -2.25 0.41, -1.85 0.19 C-1.46 -0.04, -0.31 0.03, 0 0" stroke="#E1E1E1" stroke-width="4" fill="none"></path></g></g><mask></mask><g stroke-linecap="round"><g transform="translate(46.63528990158102 275.4735321334065) rotate(0 33.20169930021575 0)"><path d="M0 0 C11.07 0, 55.34 0, 66.4 0 M0 0 C11.07 0, 55.34 0, 66.4 0" stroke="#E1E1E1" stroke-width="4" fill="none"></path></g></g><mask></mask><g stroke-linecap="round"><g transform="translate(59.25909817012962 284.06349139191843) rotate(0 129.3632525903913 82.51634436998074)"><path d="M0 0 C-0.12 0.24, -0.6 0.76, -0.7 1.41 C-0.81 2.06, -0.92 2.84, -0.64 3.87 C-0.36 4.91, 0.16 6.28, 0.99 7.61 C1.82 8.94, 2.95 10.84, 4.35 11.84 C5.75 12.85, 7.64 13.17, 9.39 13.63 C11.14 14.1, 12.52 14.04, 14.86 14.61 C17.2 15.19, 20.55 16.1, 23.44 17.09 C26.33 18.08, 29.57 19.24, 32.23 20.58 C34.9 21.92, 37.33 23.51, 39.43 25.11 C41.53 26.72, 43.31 28.35, 44.83 30.21 C46.35 32.07, 47.48 34.15, 48.54 36.29 C49.61 38.42, 50.27 40.36, 51.23 43.01 C52.2 45.67, 53.25 49.2, 54.34 52.2 C55.44 55.2, 56.26 57.65, 57.78 61.02 C59.29 64.38, 61.85 68.96, 63.43 72.36 C65.02 75.77, 66.42 78.72, 67.28 81.44 C68.15 84.16, 68.45 86.33, 68.62 88.66 C68.8 91, 68.96 93.27, 68.36 95.46 C67.76 97.66, 66.72 99.98, 65.04 101.84 C63.35 103.69, 61 105.22, 58.26 106.59 C55.51 107.97, 51.62 109.4, 48.58 110.07 C45.54 110.74, 43.83 110.89, 40.01 110.61 C36.19 110.32, 29.69 109.5, 25.68 108.38 C21.68 107.26, 18.68 105.65, 15.98 103.89 C13.28 102.14, 11.45 99.89, 9.48 97.86 C7.52 95.83, 6.06 93.21, 4.17 91.69 C2.29 90.17, 0.51 89.47, -1.83 88.73 C-4.16 87.98, -7.66 87.44, -9.83 87.24 C-11.99 87.03, -13.46 87.17, -14.81 87.49 C-16.16 87.81, -17.58 88.64, -17.94 89.16 C-18.3 89.67, -17.75 89.25, -16.98 90.57 C-16.21 91.89, -15.14 94.16, -13.32 97.09 C-11.5 100.02, -8.44 104.67, -6.04 108.15 C-3.65 111.64, -1.62 114.6, 1.06 118 C3.74 121.4, 6.57 124.84, 10.05 128.55 C13.53 132.26, 18.01 136.64, 21.95 140.27 C25.9 143.9, 29.88 147.29, 33.72 150.34 C37.56 153.39, 41.64 156.32, 44.99 158.57 C48.34 160.81, 51.8 162.74, 53.79 163.82 C55.79 164.89, 55.25 164.93, 56.97 165.03 C58.69 165.14, 61.61 164.92, 64.12 164.44 C66.63 163.96, 69.97 163.05, 72.04 162.15 C74.1 161.25, 75.41 160.29, 76.51 159.04 C77.61 157.8, 77.95 156.49, 78.65 154.69 C79.35 152.88, 79.77 150.29, 80.71 148.19 C81.65 146.09, 82.92 143.82, 84.28 142.08 C85.63 140.34, 87.11 139.29, 88.83 137.74 C90.55 136.18, 93.17 134.45, 94.59 132.75 C96.02 131.06, 96.73 129.84, 97.39 127.56 C98.06 125.28, 98.24 121.13, 98.59 119.07 C98.95 117, 98.94 116.59, 99.52 115.18 C100.1 113.76, 100.49 112.18, 102.07 110.6 C103.65 109.01, 106.6 107.03, 109 105.68 C111.39 104.32, 114.09 103.03, 116.42 102.47 C118.75 101.92, 121.21 102.03, 122.99 102.34 C124.77 102.65, 125.76 103.32, 127.12 104.33 C128.48 105.34, 129.79 106.91, 131.15 108.4 C132.5 109.89, 133.85 112.03, 135.26 113.28 C136.66 114.54, 137.9 115.37, 139.58 115.93 C141.25 116.49, 143.3 116.69, 145.29 116.65 C147.29 116.61, 149.61 116.58, 151.57 115.69 C153.53 114.79, 155.22 113.44, 157.06 111.27 C158.89 109.1, 160.92 105.37, 162.58 102.67 C164.25 99.98, 165.56 97.03, 167.05 95.11 C168.54 93.18, 170.02 91.99, 171.5 91.13 C172.99 90.27, 174.5 90.01, 175.97 89.95 C177.44 89.88, 178.46 89.97, 180.31 90.74 C182.17 91.52, 184.97 93, 187.09 94.59 C189.22 96.18, 191.27 98.4, 193.07 100.27 C194.86 102.14, 196.31 104.14, 197.88 105.82 C199.45 107.5, 201.03 109.42, 202.5 110.36 C203.96 111.31, 204.54 111, 206.68 111.48 C208.81 111.96, 212.94 112.57, 215.31 113.24 C217.68 113.91, 219.29 114.34, 220.89 115.5 C222.49 116.66, 223.76 118.36, 224.91 120.21 C226.06 122.05, 227.13 124.1, 227.79 126.57 C228.45 129.05, 228.74 131.31, 228.87 135.06 C228.99 138.82, 228.69 145.59, 228.54 149.11 C228.38 152.63, 228.04 154, 227.94 156.19 C227.85 158.38, 227.62 161.36, 227.98 162.26 C228.35 163.16, 229.09 162.19, 230.14 161.61 C231.19 161.03, 232.12 160.27, 234.27 158.79 C236.43 157.31, 240.02 154.99, 243.08 152.75 C246.14 150.5, 249.53 147.96, 252.64 145.35 C255.75 142.73, 258.88 139.82, 261.72 137.08 C264.56 134.34, 267.55 131.17, 269.68 128.9 C271.8 126.62, 273.29 124.75, 274.46 123.43 C275.63 122.1, 276.31 121.71, 276.67 120.94 C277.02 120.16, 276.84 120.1, 276.59 118.77 C276.34 117.43, 275.89 115.24, 275.17 112.93 C274.44 110.63, 273.58 107.46, 272.24 104.94 C270.91 102.41, 268.97 99.67, 267.17 97.8 C265.38 95.92, 263.61 94.59, 261.5 93.67 C259.38 92.75, 256.61 92.86, 254.48 92.28 C252.35 91.71, 250.22 90.9, 248.73 90.22 C247.24 89.54, 246.54 89.12, 245.54 88.2 C244.55 87.29, 243.79 86.3, 242.74 84.74 C241.7 83.18, 240.24 80.49, 239.26 78.84 C238.27 77.2, 238.08 76.17, 236.82 74.88 C235.55 73.59, 233.87 72.05, 231.68 71.11 C229.49 70.17, 226.62 69.7, 223.66 69.24 C220.71 68.79, 217.27 68.52, 213.96 68.37 C210.64 68.22, 206.31 68.69, 203.78 68.36 C201.24 68.03, 200.3 67.32, 198.75 66.39 C197.2 65.47, 195.64 64.2, 194.47 62.79 C193.29 61.39, 192.32 59.58, 191.7 57.96 C191.08 56.33, 190.83 54.7, 190.74 53.04 C190.65 51.38, 190.76 49.96, 191.16 48 C191.56 46.04, 191.97 43.61, 193.14 41.28 C194.3 38.96, 196.66 35.93, 198.16 34.05 C199.66 32.18, 201.32 31.01, 202.14 30.01 C202.96 29.02, 202.93 28.89, 203.08 28.07 C203.23 27.24, 203.28 25.91, 203.04 25.06 C202.8 24.21, 202.44 23.68, 201.64 22.96 C200.85 22.23, 199.96 21.4, 198.27 20.7 C196.57 20.01, 193.83 19.43, 191.48 18.79 C189.13 18.15, 186.29 17.62, 184.17 16.87 C182.04 16.11, 180.41 15.43, 178.73 14.26 C177.05 13.09, 175.2 11.11, 174.09 9.85 C172.98 8.58, 172.52 7.74, 172.08 6.65 C171.63 5.55, 171.54 4.19, 171.42 3.27 C171.29 2.35, 171.53 1.6, 171.33 1.12 C171.12 0.64, 171.07 0.56, 170.19 0.4 C169.31 0.23, 168.84 0.17, 166.07 0.12 C163.3 0.07, 159.56 0.12, 153.56 0.12 C147.57 0.12, 147.02 0.12, 130.11 0.12 C113.19 0.12, 72.06 0.12, 52.09 0.12 C32.12 0.12, 18.97 0.14, 10.28 0.12 C1.6 0.1, 1.71 0.02, 0 0 M0 0 C-0.12 0.24, -0.6 0.76, -0.7 1.41 C-0.81 2.06, -0.92 2.84, -0.64 3.87 C-0.36 4.91, 0.16 6.28, 0.99 7.61 C1.82 8.94, 2.95 10.84, 4.35 11.84 C5.75 12.85, 7.64 13.17, 9.39 13.63 C11.14 14.1, 12.52 14.04, 14.86 14.61 C17.2 15.19, 20.55 16.1, 23.44 17.09 C26.33 18.08, 29.57 19.24, 32.23 20.58 C34.9 21.92, 37.33 23.51, 39.43 25.11 C41.53 26.72, 43.31 28.35, 44.83 30.21 C46.35 32.07, 47.48 34.15, 48.54 36.29 C49.61 38.42, 50.27 40.36, 51.23 43.01 C52.2 45.67, 53.25 49.2, 54.34 52.2 C55.44 55.2, 56.26 57.65, 57.78 61.02 C59.29 64.38, 61.85 68.96, 63.43 72.36 C65.02 75.77, 66.42 78.72, 67.28 81.44 C68.15 84.16, 68.45 86.33, 68.62 88.66 C68.8 91, 68.96 93.27, 68.36 95.46 C67.76 97.66, 66.72 99.98, 65.04 101.84 C63.35 103.69, 61 105.22, 58.26 106.59 C55.51 107.97, 51.62 109.4, 48.58 110.07 C45.54 110.74, 43.83 110.89, 40.01 110.61 C36.19 110.32, 29.69 109.5, 25.68 108.38 C21.68 107.26, 18.68 105.65, 15.98 103.89 C13.28 102.14, 11.45 99.89, 9.48 97.86 C7.52 95.83, 6.06 93.21, 4.17 91.69 C2.29 90.17, 0.51 89.47, -1.83 88.73 C-4.16 87.98, -7.66 87.44, -9.83 87.24 C-11.99 87.03, -13.46 87.17, -14.81 87.49 C-16.16 87.81, -17.58 88.64, -17.94 89.16 C-18.3 89.67, -17.75 89.25, -16.98 90.57 C-16.21 91.89, -15.14 94.16, -13.32 97.09 C-11.5 100.02, -8.44 104.67, -6.04 108.15 C-3.65 111.64, -1.62 114.6, 1.06 118 C3.74 121.4, 6.57 124.84, 10.05 128.55 C13.53 132.26, 18.01 136.64, 21.95 140.27 C25.9 143.9, 29.88 147.29, 33.72 150.34 C37.56 153.39, 41.64 156.32, 44.99 158.57 C48.34 160.81, 51.8 162.74, 53.79 163.82 C55.79 164.89, 55.25 164.93, 56.97 165.03 C58.69 165.14, 61.61 164.92, 64.12 164.44 C66.63 163.96, 69.97 163.05, 72.04 162.15 C74.1 161.25, 75.41 160.29, 76.51 159.04 C77.61 157.8, 77.95 156.49, 78.65 154.69 C79.35 152.88, 79.77 150.29, 80.71 148.19 C81.65 146.09, 82.92 143.82, 84.28 142.08 C85.63 140.34, 87.11 139.29, 88.83 137.74 C90.55 136.18, 93.17 134.45, 94.59 132.75 C96.02 131.06, 96.73 129.84, 97.39 127.56 C98.06 125.28, 98.24 121.13, 98.59 119.07 C98.95 117, 98.94 116.59, 99.52 115.18 C100.1 113.76, 100.49 112.18, 102.07 110.6 C103.65 109.01, 106.6 107.03, 109 105.68 C111.39 104.32, 114.09 103.03, 116.42 102.47 C118.75 101.92, 121.21 102.03, 122.99 102.34 C124.77 102.65, 125.76 103.32, 127.12 104.33 C128.48 105.34, 129.79 106.91, 131.15 108.4 C132.5 109.89, 133.85 112.03, 135.26 113.28 C136.66 114.54, 137.9 115.37, 139.58 115.93 C141.25 116.49, 143.3 116.69, 145.29 116.65 C147.29 116.61, 149.61 116.58, 151.57 115.69 C153.53 114.79, 155.22 113.44, 157.06 111.27 C158.89 109.1, 160.92 105.37, 162.58 102.67 C164.25 99.98, 165.56 97.03, 167.05 95.11 C168.54 93.18, 170.02 91.99, 171.5 91.13 C172.99 90.27, 174.5 90.01, 175.97 89.95 C177.44 89.88, 178.46 89.97, 180.31 90.74 C182.17 91.52, 184.97 93, 187.09 94.59 C189.22 96.18, 191.27 98.4, 193.07 100.27 C194.86 102.14, 196.31 104.14, 197.88 105.82 C199.45 107.5, 201.03 109.42, 202.5 110.36 C203.96 111.31, 204.54 111, 206.68 111.48 C208.81 111.96, 212.94 112.57, 215.31 113.24 C217.68 113.91, 219.29 114.34, 220.89 115.5 C222.49 116.66, 223.76 118.36, 224.91 120.21 C226.06 122.05, 227.13 124.1, 227.79 126.57 C228.45 129.05, 228.74 131.31, 228.87 135.06 C228.99 138.82, 228.69 145.59, 228.54 149.11 C228.38 152.63, 228.04 154, 227.94 156.19 C227.85 158.38, 227.62 161.36, 227.98 162.26 C228.35 163.16, 229.09 162.19, 230.14 161.61 C231.19 161.03, 232.12 160.27, 234.27 158.79 C236.43 157.31, 240.02 154.99, 243.08 152.75 C246.14 150.5, 249.53 147.96, 252.64 145.35 C255.75 142.73, 258.88 139.82, 261.72 137.08 C264.56 134.34, 267.55 131.17, 269.68 128.9 C271.8 126.62, 273.29 124.75, 274.46 123.43 C275.63 122.1, 276.31 121.71, 276.67 120.94 C277.02 120.16, 276.84 120.1, 276.59 118.77 C276.34 117.43, 275.89 115.24, 275.17 112.93 C274.44 110.63, 273.58 107.46, 272.24 104.94 C270.91 102.41, 268.97 99.67, 267.17 97.8 C265.38 95.92, 263.61 94.59, 261.5 93.67 C259.38 92.75, 256.61 92.86, 254.48 92.28 C252.35 91.71, 250.22 90.9, 248.73 90.22 C247.24 89.54, 246.54 89.12, 245.54 88.2 C244.55 87.29, 243.79 86.3, 242.74 84.74 C241.7 83.18, 240.24 80.49, 239.26 78.84 C238.27 77.2, 238.08 76.17, 236.82 74.88 C235.55 73.59, 233.87 72.05, 231.68 71.11 C229.49 70.17, 226.62 69.7, 223.66 69.24 C220.71 68.79, 217.27 68.52, 213.96 68.37 C210.64 68.22, 206.31 68.69, 203.78 68.36 C201.24 68.03, 200.3 67.32, 198.75 66.39 C197.2 65.47, 195.64 64.2, 194.47 62.79 C193.29 61.39, 192.32 59.58, 191.7 57.96 C191.08 56.33, 190.83 54.7, 190.74 53.04 C190.65 51.38, 190.76 49.96, 191.16 48 C191.56 46.04, 191.97 43.61, 193.14 41.28 C194.3 38.96, 196.66 35.93, 198.16 34.05 C199.66 32.18, 201.32 31.01, 202.14 30.01 C202.96 29.02, 202.93 28.89, 203.08 28.07 C203.23 27.24, 203.28 25.91, 203.04 25.06 C202.8 24.21, 202.44 23.68, 201.64 22.96 C200.85 22.23, 199.96 21.4, 198.27 20.7 C196.57 20.01, 193.83 19.43, 191.48 18.79 C189.13 18.15, 186.29 17.62, 184.17 16.87 C182.04 16.11, 180.41 15.43, 178.73 14.26 C177.05 13.09, 175.2 11.11, 174.09 9.85 C172.98 8.58, 172.52 7.74, 172.08 6.65 C171.63 5.55, 171.54 4.19, 171.42 3.27 C171.29 2.35, 171.53 1.6, 171.33 1.12 C171.12 0.64, 171.07 0.56, 170.19 0.4 C169.31 0.23, 168.84 0.17, 166.07 0.12 C163.3 0.07, 159.56 0.12, 153.56 0.12 C147.57 0.12, 147.02 0.12, 130.11 0.12 C113.19 0.12, 72.06 0.12, 52.09 0.12 C32.12 0.12, 18.97 0.14, 10.28 0.12 C1.6 0.1, 1.71 0.02, 0 0" stroke="#E1E1E1" stroke-width="4" fill="none"></path></g></g><mask></mask><g stroke-linecap="round"><g transform="translate(31.44646915712292 284.07555970377325) rotate(0 37.46008103686199 50.97445276177086)"><path d="M0 0 C-1.36 0, -6.15 0, -8.14 0 C-10.13 0, -11.18 -0.18, -11.94 0 C-12.7 0.18, -12.55 0.16, -12.69 1.05 C-12.83 1.95, -12.98 2.14, -12.78 5.38 C-12.58 8.62, -12.28 14.77, -11.48 20.5 C-10.68 26.23, -9.41 33.45, -7.98 39.78 C-6.55 46.12, -4.59 53.19, -2.92 58.51 C-1.26 63.84, 0.77 68.56, 1.99 71.75 C3.21 74.94, 3.84 76.36, 4.4 77.68 C4.97 79, 4.9 79.32, 5.38 79.65 C5.86 79.98, 6.33 79.74, 7.28 79.65 C8.23 79.56, 9.37 79.28, 11.1 79.13 C12.83 78.97, 15.22 78.67, 17.66 78.71 C20.11 78.75, 22.98 78.77, 25.78 79.35 C28.57 79.93, 32.04 80.9, 34.44 82.2 C36.85 83.49, 38.54 85.35, 40.21 87.12 C41.87 88.9, 42.44 90.97, 44.44 92.87 C46.44 94.76, 49.56 97.15, 52.18 98.5 C54.81 99.85, 57.37 100.39, 60.2 100.97 C63.03 101.54, 65.9 102.04, 69.16 101.95 C72.41 101.86, 76.88 101.47, 79.72 100.41 C82.57 99.36, 84.91 97.38, 86.24 95.62 C87.57 93.85, 87.55 91.66, 87.7 89.83 C87.86 87.99, 87.66 86.44, 87.17 84.62 C86.68 82.79, 86.03 81.43, 84.79 78.86 C83.54 76.3, 81.33 72.55, 79.73 69.23 C78.12 65.9, 76.56 62.67, 75.14 58.94 C73.71 55.2, 72.62 50.51, 71.19 46.79 C69.76 43.07, 68.39 39.25, 66.57 36.61 C64.75 33.97, 62.9 32.68, 60.26 30.96 C57.62 29.23, 54.16 27.58, 50.72 26.26 C47.27 24.95, 42.89 23.96, 39.59 23.07 C36.28 22.18, 33.21 21.85, 30.88 20.91 C28.56 19.97, 27.23 18.92, 25.64 17.43 C24.05 15.94, 22.41 13.85, 21.33 11.97 C20.24 10.09, 19.67 7.93, 19.14 6.14 C18.6 4.36, 18.49 2.23, 18.12 1.26 C17.74 0.28, 17.89 0.5, 16.88 0.31 C15.87 0.12, 14.86 0.16, 12.05 0.11 C9.24 0.06, 2.01 0.02, 0 0 M0 0 C-1.36 0, -6.15 0, -8.14 0 C-10.13 0, -11.18 -0.18, -11.94 0 C-12.7 0.18, -12.55 0.16, -12.69 1.05 C-12.83 1.95, -12.98 2.14, -12.78 5.38 C-12.58 8.62, -12.28 14.77, -11.48 20.5 C-10.68 26.23, -9.41 33.45, -7.98 39.78 C-6.55 46.12, -4.59 53.19, -2.92 58.51 C-1.26 63.84, 0.77 68.56, 1.99 71.75 C3.21 74.94, 3.84 76.36, 4.4 77.68 C4.97 79, 4.9 79.32, 5.38 79.65 C5.86 79.98, 6.33 79.74, 7.28 79.65 C8.23 79.56, 9.37 79.28, 11.1 79.13 C12.83 78.97, 15.22 78.67, 17.66 78.71 C20.11 78.75, 22.98 78.77, 25.78 79.35 C28.57 79.93, 32.04 80.9, 34.44 82.2 C36.85 83.49, 38.54 85.35, 40.21 87.12 C41.87 88.9, 42.44 90.97, 44.44 92.87 C46.44 94.76, 49.56 97.15, 52.18 98.5 C54.81 99.85, 57.37 100.39, 60.2 100.97 C63.03 101.54, 65.9 102.04, 69.16 101.95 C72.41 101.86, 76.88 101.47, 79.72 100.41 C82.57 99.36, 84.91 97.38, 86.24 95.62 C87.57 93.85, 87.55 91.66, 87.7 89.83 C87.86 87.99, 87.66 86.44, 87.17 84.62 C86.68 82.79, 86.03 81.43, 84.79 78.86 C83.54 76.3, 81.33 72.55, 79.73 69.23 C78.12 65.9, 76.56 62.67, 75.14 58.94 C73.71 55.2, 72.62 50.51, 71.19 46.79 C69.76 43.07, 68.39 39.25, 66.57 36.61 C64.75 33.97, 62.9 32.68, 60.26 30.96 C57.62 29.23, 54.16 27.58, 50.72 26.26 C47.27 24.95, 42.89 23.96, 39.59 23.07 C36.28 22.18, 33.21 21.85, 30.88 20.91 C28.56 19.97, 27.23 18.92, 25.64 17.43 C24.05 15.94, 22.41 13.85, 21.33 11.97 C20.24 10.09, 19.67 7.93, 19.14 6.14 C18.6 4.36, 18.49 2.23, 18.12 1.26 C17.74 0.28, 17.89 0.5, 16.88 0.31 C15.87 0.12, 14.86 0.16, 12.05 0.11 C9.24 0.06, 2.01 0.02, 0 0" stroke="#E1E1E1" stroke-width="4" fill="none"></path></g></g><mask></mask><g stroke-linecap="round"><g transform="translate(154.42578621110715 465.01740790993426) rotate(0 50.52440279718303 -38.17513400311918)"><path d="M0 0 C-1.84 -0.55, -7.65 -2.13, -11.06 -3.29 C-14.48 -4.46, -18.27 -6.06, -20.47 -7 C-22.67 -7.93, -23.81 -8.46, -24.25 -8.91 C-24.68 -9.35, -24.09 -9.27, -23.09 -9.67 C-22.09 -10.08, -19.79 -10.66, -18.25 -11.33 C-16.7 -11.99, -15.13 -12.58, -13.8 -13.68 C-12.47 -14.78, -11.24 -16.25, -10.27 -17.92 C-9.29 -19.59, -8.55 -21.8, -7.95 -23.7 C-7.35 -25.59, -7.43 -27.52, -6.65 -29.29 C-5.86 -31.06, -4.97 -32.48, -3.25 -34.34 C-1.52 -36.2, 1.81 -38.65, 3.7 -40.43 C5.6 -42.21, 6.9 -43.12, 8.12 -45 C9.34 -46.88, 10.36 -49.22, 11.02 -51.69 C11.69 -54.17, 11.84 -58.04, 12.1 -59.87 C12.35 -61.7, 12.25 -61.87, 12.55 -62.68 C12.84 -63.49, 13.11 -63.96, 13.87 -64.71 C14.63 -65.47, 15.78 -66.43, 17.11 -67.2 C18.43 -67.96, 20.55 -68.83, 21.82 -69.3 C23.09 -69.77, 23.86 -69.94, 24.71 -70.01 C25.55 -70.07, 26.28 -70.01, 26.87 -69.68 C27.45 -69.35, 27.44 -69.03, 28.22 -68.02 C28.99 -67.02, 30.19 -65.01, 31.53 -63.63 C32.88 -62.25, 34.55 -60.88, 36.31 -59.74 C38.06 -58.6, 39.72 -57.47, 42.06 -56.77 C44.4 -56.08, 47.49 -55.58, 50.33 -55.58 C53.17 -55.58, 56.54 -55.84, 59.11 -56.76 C61.68 -57.69, 63.64 -59.14, 65.76 -61.12 C67.88 -63.1, 70.06 -66.12, 71.81 -68.66 C73.56 -71.2, 74.97 -74.29, 76.26 -76.36 C77.55 -78.44, 78.67 -80.14, 79.55 -81.11 C80.44 -82.08, 80.76 -82.18, 81.56 -82.18 C82.37 -82.17, 83.16 -81.97, 84.4 -81.07 C85.64 -80.17, 87.49 -78.32, 89.03 -76.79 C90.56 -75.27, 92.2 -73.54, 93.61 -71.93 C95.03 -70.33, 95.95 -68.65, 97.5 -67.17 C99.05 -65.69, 100.65 -64.14, 102.91 -63.06 C105.16 -61.98, 108.43 -61.33, 111.03 -60.68 C113.62 -60.02, 116.59 -59.88, 118.49 -59.12 C120.4 -58.36, 121.42 -57.46, 122.45 -56.11 C123.47 -54.75, 124.15 -53.11, 124.62 -51 C125.1 -48.9, 125.38 -46.66, 125.29 -43.49 C125.21 -40.31, 124.37 -36.09, 124.1 -31.96 C123.83 -27.83, 123.71 -21.73, 123.69 -18.71 C123.67 -15.68, 124.26 -14.8, 124 -13.8 C123.74 -12.79, 123.41 -13.3, 122.1 -12.65 C120.8 -12, 119.18 -11.23, 116.17 -9.9 C113.17 -8.57, 108.38 -6.34, 104.08 -4.7 C99.78 -3.06, 95.1 -1.43, 90.38 -0.08 C85.65 1.28, 81.31 2.51, 75.75 3.46 C70.2 4.41, 63.12 5.24, 57.05 5.63 C50.98 6.03, 45.6 6.05, 39.35 5.83 C33.1 5.6, 25.16 4.97, 19.55 4.27 C13.94 3.57, 8.95 2.35, 5.69 1.64 C2.44 0.92, 0.95 0.27, 0 0 M0 0 C-1.84 -0.55, -7.65 -2.13, -11.06 -3.29 C-14.48 -4.46, -18.27 -6.06, -20.47 -7 C-22.67 -7.93, -23.81 -8.46, -24.25 -8.91 C-24.68 -9.35, -24.09 -9.27, -23.09 -9.67 C-22.09 -10.08, -19.79 -10.66, -18.25 -11.33 C-16.7 -11.99, -15.13 -12.58, -13.8 -13.68 C-12.47 -14.78, -11.24 -16.25, -10.27 -17.92 C-9.29 -19.59, -8.55 -21.8, -7.95 -23.7 C-7.35 -25.59, -7.43 -27.52, -6.65 -29.29 C-5.86 -31.06, -4.97 -32.48, -3.25 -34.34 C-1.52 -36.2, 1.81 -38.65, 3.7 -40.43 C5.6 -42.21, 6.9 -43.12, 8.12 -45 C9.34 -46.88, 10.36 -49.22, 11.02 -51.69 C11.69 -54.17, 11.84 -58.04, 12.1 -59.87 C12.35 -61.7, 12.25 -61.87, 12.55 -62.68 C12.84 -63.49, 13.11 -63.96, 13.87 -64.71 C14.63 -65.47, 15.78 -66.43, 17.11 -67.2 C18.43 -67.96, 20.55 -68.83, 21.82 -69.3 C23.09 -69.77, 23.86 -69.94, 24.71 -70.01 C25.55 -70.07, 26.28 -70.01, 26.87 -69.68 C27.45 -69.35, 27.44 -69.03, 28.22 -68.02 C28.99 -67.02, 30.19 -65.01, 31.53 -63.63 C32.88 -62.25, 34.55 -60.88, 36.31 -59.74 C38.06 -58.6, 39.72 -57.47, 42.06 -56.77 C44.4 -56.08, 47.49 -55.58, 50.33 -55.58 C53.17 -55.58, 56.54 -55.84, 59.11 -56.76 C61.68 -57.69, 63.64 -59.14, 65.76 -61.12 C67.88 -63.1, 70.06 -66.12, 71.81 -68.66 C73.56 -71.2, 74.97 -74.29, 76.26 -76.36 C77.55 -78.44, 78.67 -80.14, 79.55 -81.11 C80.44 -82.08, 80.76 -82.18, 81.56 -82.18 C82.37 -82.17, 83.16 -81.97, 84.4 -81.07 C85.64 -80.17, 87.49 -78.32, 89.03 -76.79 C90.56 -75.27, 92.2 -73.54, 93.61 -71.93 C95.03 -70.33, 95.95 -68.65, 97.5 -67.17 C99.05 -65.69, 100.65 -64.14, 102.91 -63.06 C105.16 -61.98, 108.43 -61.33, 111.03 -60.68 C113.62 -60.02, 116.59 -59.88, 118.49 -59.12 C120.4 -58.36, 121.42 -57.46, 122.45 -56.11 C123.47 -54.75, 124.15 -53.11, 124.62 -51 C125.1 -48.9, 125.38 -46.66, 125.29 -43.49 C125.21 -40.31, 124.37 -36.09, 124.1 -31.96 C123.83 -27.83, 123.71 -21.73, 123.69 -18.71 C123.67 -15.68, 124.26 -14.8, 124 -13.8 C123.74 -12.79, 123.41 -13.3, 122.1 -12.65 C120.8 -12, 119.18 -11.23, 116.17 -9.9 C113.17 -8.57, 108.38 -6.34, 104.08 -4.7 C99.78 -3.06, 95.1 -1.43, 90.38 -0.08 C85.65 1.28, 81.31 2.51, 75.75 3.46 C70.2 4.41, 63.12 5.24, 57.05 5.63 C50.98 6.03, 45.6 6.05, 39.35 5.83 C33.1 5.6, 25.16 4.97, 19.55 4.27 C13.94 3.57, 8.95 2.35, 5.69 1.64 C2.44 0.92, 0.95 0.27, 0 0" stroke="#E1E1E1" stroke-width="4" fill="none"></path></g></g><mask></mask><g stroke-linecap="round"><g transform="translate(354.7186499115578 377.6052205875785) rotate(0 -44.97527858791727 -38.36525044954942)"><path d="M0 0 C-1.16 1.86, -5.21 8.44, -6.97 11.15 C-8.72 13.85, -9.67 15.31, -10.53 16.2 C-11.39 17.1, -11.77 16.84, -12.13 16.52 C-12.5 16.2, -12.26 15.68, -12.72 14.3 C-13.18 12.91, -13.73 10.41, -14.9 8.21 C-16.06 6, -17.9 3.35, -19.7 1.07 C-21.5 -1.21, -23.43 -3.76, -25.7 -5.48 C-27.98 -7.19, -30.74 -8.36, -33.37 -9.24 C-36 -10.12, -39.69 -10.27, -41.5 -10.75 C-43.31 -11.23, -43.34 -11.24, -44.22 -12.14 C-45.1 -13.04, -45.89 -14.57, -46.79 -16.15 C-47.69 -17.73, -48.46 -19.84, -49.63 -21.62 C-50.81 -23.4, -52.01 -25.36, -53.84 -26.85 C-55.66 -28.34, -57.92 -29.49, -60.59 -30.56 C-63.26 -31.62, -66.62 -32.73, -69.86 -33.26 C-73.1 -33.8, -76.71 -33.67, -80.03 -33.76 C-83.35 -33.84, -87.66 -33.57, -89.77 -33.76 C-91.89 -33.95, -91.85 -34.31, -92.73 -34.88 C-93.62 -35.45, -94.57 -36.13, -95.1 -37.21 C-95.63 -38.28, -95.93 -39.78, -95.91 -41.31 C-95.9 -42.84, -95.82 -44.38, -95.02 -46.39 C-94.21 -48.4, -92.72 -51.14, -91.06 -53.36 C-89.41 -55.59, -86.45 -57.71, -85.1 -59.77 C-83.75 -61.82, -83.11 -63.6, -82.98 -65.71 C-82.86 -67.81, -83.41 -70.4, -84.34 -72.42 C-85.28 -74.45, -86.81 -76.33, -88.6 -77.86 C-90.4 -79.38, -92.47 -80.62, -95.12 -81.57 C-97.76 -82.53, -101.9 -82.95, -104.48 -83.59 C-107.06 -84.24, -108.93 -84.45, -110.59 -85.45 C-112.25 -86.45, -113.62 -88.44, -114.42 -89.61 C-115.23 -90.78, -115.76 -91.89, -115.42 -92.47 C-115.07 -93.06, -115.43 -93.01, -112.37 -93.12 C-109.32 -93.23, -104.31 -93.12, -97.09 -93.12 C-89.87 -93.12, -80.9 -93.12, -69.06 -93.12 C-57.23 -93.12, -39.51 -93.12, -26.1 -93.12 C-12.68 -93.12, 3.64 -93.1, 11.43 -93.12 C19.23 -93.14, 18.53 -93.29, 20.67 -93.25 C22.81 -93.22, 23.49 -93.23, 24.29 -92.92 C25.09 -92.61, 25.33 -92.74, 25.46 -91.39 C25.6 -90.04, 25.43 -88.5, 25.09 -84.84 C24.75 -81.18, 24.3 -75.38, 23.41 -69.45 C22.52 -63.51, 21.76 -56.71, 19.77 -49.24 C17.78 -41.77, 14.09 -31.55, 11.47 -24.62 C8.85 -17.7, 5.95 -11.8, 4.04 -7.69 C2.13 -3.59, 0.67 -1.28, 0 0 M0 0 C-1.16 1.86, -5.21 8.44, -6.97 11.15 C-8.72 13.85, -9.67 15.31, -10.53 16.2 C-11.39 17.1, -11.77 16.84, -12.13 16.52 C-12.5 16.2, -12.26 15.68, -12.72 14.3 C-13.18 12.91, -13.73 10.41, -14.9 8.21 C-16.06 6, -17.9 3.35, -19.7 1.07 C-21.5 -1.21, -23.43 -3.76, -25.7 -5.48 C-27.98 -7.19, -30.74 -8.36, -33.37 -9.24 C-36 -10.12, -39.69 -10.27, -41.5 -10.75 C-43.31 -11.23, -43.34 -11.24, -44.22 -12.14 C-45.1 -13.04, -45.89 -14.57, -46.79 -16.15 C-47.69 -17.73, -48.46 -19.84, -49.63 -21.62 C-50.81 -23.4, -52.01 -25.36, -53.84 -26.85 C-55.66 -28.34, -57.92 -29.49, -60.59 -30.56 C-63.26 -31.62, -66.62 -32.73, -69.86 -33.26 C-73.1 -33.8, -76.71 -33.67, -80.03 -33.76 C-83.35 -33.84, -87.66 -33.57, -89.77 -33.76 C-91.89 -33.95, -91.85 -34.31, -92.73 -34.88 C-93.62 -35.45, -94.57 -36.13, -95.1 -37.21 C-95.63 -38.28, -95.93 -39.78, -95.91 -41.31 C-95.9 -42.84, -95.82 -44.38, -95.02 -46.39 C-94.21 -48.4, -92.72 -51.14, -91.06 -53.36 C-89.41 -55.59, -86.45 -57.71, -85.1 -59.77 C-83.75 -61.82, -83.11 -63.6, -82.98 -65.71 C-82.86 -67.81, -83.41 -70.4, -84.34 -72.42 C-85.28 -74.45, -86.81 -76.33, -88.6 -77.86 C-90.4 -79.38, -92.47 -80.62, -95.12 -81.57 C-97.76 -82.53, -101.9 -82.95, -104.48 -83.59 C-107.06 -84.24, -108.93 -84.45, -110.59 -85.45 C-112.25 -86.45, -113.62 -88.44, -114.42 -89.61 C-115.23 -90.78, -115.76 -91.89, -115.42 -92.47 C-115.07 -93.06, -115.43 -93.01, -112.37 -93.12 C-109.32 -93.23, -104.31 -93.12, -97.09 -93.12 C-89.87 -93.12, -80.9 -93.12, -69.06 -93.12 C-57.23 -93.12, -39.51 -93.12, -26.1 -93.12 C-12.68 -93.12, 3.64 -93.1, 11.43 -93.12 C19.23 -93.14, 18.53 -93.29, 20.67 -93.25 C22.81 -93.22, 23.49 -93.23, 24.29 -92.92 C25.09 -92.61, 25.33 -92.74, 25.46 -91.39 C25.6 -90.04, 25.43 -88.5, 25.09 -84.84 C24.75 -81.18, 24.3 -75.38, 23.41 -69.45 C22.52 -63.51, 21.76 -56.71, 19.77 -49.24 C17.78 -41.77, 14.09 -31.55, 11.47 -24.62 C8.85 -17.7, 5.95 -11.8, 4.04 -7.69 C2.13 -3.59, 0.67 -1.28, 0 0" stroke="#E1E1E1" stroke-width="4" fill="none"></path></g></g><mask></mask><g stroke-linecap="round"><g transform="translate(358.5241069230424 275.214888065726) rotate(0 -159.0103344754666 102.28521944774957)"><path d="M0 0 C2.13 0, 8.66 -0.02, 12.77 -0.02 C16.88 -0.03, 22.13 -0.07, 24.67 -0.02 C27.22 0.02, 27.17 -0.09, 28.02 0.26 C28.88 0.61, 29.43 1.18, 29.82 2.08 C30.21 2.99, 30.35 2.68, 30.36 5.67 C30.36 8.66, 30.32 14.17, 29.85 20.02 C29.38 25.88, 28.83 33.49, 27.55 40.78 C26.27 48.07, 24.61 55.71, 22.19 63.76 C19.76 71.81, 16.35 81.4, 13 89.07 C9.65 96.74, 5.96 103.14, 2.08 109.78 C-1.81 116.41, -5.73 122.73, -10.32 128.88 C-14.91 135.03, -20.07 141.08, -25.46 146.66 C-30.85 152.23, -37.05 157.6, -42.64 162.31 C-48.24 167.01, -52.68 170.82, -59.05 174.86 C-65.41 178.9, -73.65 183.12, -80.84 186.55 C-88.02 189.97, -94.67 192.87, -102.18 195.42 C-109.69 197.98, -118.05 200.36, -125.89 201.89 C-133.73 203.42, -141.74 204.16, -149.22 204.59 C-156.7 205.03, -163.24 205.05, -170.79 204.49 C-178.34 203.94, -186.85 202.79, -194.53 201.26 C-202.2 199.73, -208.94 198.06, -216.83 195.31 C-224.71 192.55, -234.32 188.46, -241.84 184.72 C-249.35 180.98, -255.38 177.36, -261.92 172.87 C-268.45 168.38, -275.13 163.06, -281.04 157.76 C-286.96 152.46, -292.47 146.58, -297.41 141.08 C-302.36 135.58, -306.74 130.2, -310.71 124.73 C-314.69 119.27, -317.59 114.98, -321.28 108.26 C-324.97 101.55, -329.45 92.78, -332.85 84.44 C-336.25 76.1, -339.36 66.67, -341.69 58.22 C-344.02 49.77, -345.75 40.81, -346.84 33.73 C-347.93 26.65, -347.95 20.78, -348.21 15.73 C-348.47 10.68, -348.67 6, -348.38 3.44 C-348.08 0.88, -347.66 0.95, -346.44 0.38 C-345.22 -0.19, -343.51 0.09, -341.04 0.03 C-338.57 -0.03, -335.05 0.03, -331.63 0.03 C-328.21 0.03, -322.36 0.03, -320.5 0.03 M0 0 C2.13 0, 8.66 -0.02, 12.77 -0.02 C16.88 -0.03, 22.13 -0.07, 24.67 -0.02 C27.22 0.02, 27.17 -0.09, 28.02 0.26 C28.88 0.61, 29.43 1.18, 29.82 2.08 C30.21 2.99, 30.35 2.68, 30.36 5.67 C30.36 8.66, 30.32 14.17, 29.85 20.02 C29.38 25.88, 28.83 33.49, 27.55 40.78 C26.27 48.07, 24.61 55.71, 22.19 63.76 C19.76 71.81, 16.35 81.4, 13 89.07 C9.65 96.74, 5.96 103.14, 2.08 109.78 C-1.81 116.41, -5.73 122.73, -10.32 128.88 C-14.91 135.03, -20.07 141.08, -25.46 146.66 C-30.85 152.23, -37.05 157.6, -42.64 162.31 C-48.24 167.01, -52.68 170.82, -59.05 174.86 C-65.41 178.9, -73.65 183.12, -80.84 186.55 C-88.02 189.97, -94.67 192.87, -102.18 195.42 C-109.69 197.98, -118.05 200.36, -125.89 201.89 C-133.73 203.42, -141.74 204.16, -149.22 204.59 C-156.7 205.03, -163.24 205.05, -170.79 204.49 C-178.34 203.94, -186.85 202.79, -194.53 201.26 C-202.2 199.73, -208.94 198.06, -216.83 195.31 C-224.71 192.55, -234.32 188.46, -241.84 184.72 C-249.35 180.98, -255.38 177.36, -261.92 172.87 C-268.45 168.38, -275.13 163.06, -281.04 157.76 C-286.96 152.46, -292.47 146.58, -297.41 141.08 C-302.36 135.58, -306.74 130.2, -310.71 124.73 C-314.69 119.27, -317.59 114.98, -321.28 108.26 C-324.97 101.55, -329.45 92.78, -332.85 84.44 C-336.25 76.1, -339.36 66.67, -341.69 58.22 C-344.02 49.77, -345.75 40.81, -346.84 33.73 C-347.93 26.65, -347.95 20.78, -348.21 15.73 C-348.47 10.68, -348.67 6, -348.38 3.44 C-348.08 0.88, -347.66 0.95, -346.44 0.38 C-345.22 -0.19, -343.51 0.09, -341.04 0.03 C-338.57 -0.03, -335.05 0.03, -331.63 0.03 C-328.21 0.03, -322.36 0.03, -320.5 0.03" stroke="#E1E1E1" stroke-width="4" fill="none"></path></g></g><mask></mask><g stroke-linecap="round"><g transform="translate(38.09795045231567 275.08046139388625) rotate(0 26.63870115557893 -89.16572898560844)"><path d="M0 0 C0 -6.01, 0 -23.43, 0 -36.07 C0 -48.7, 0 -57.43, 0 -75.81 C0 -94.19, 0 -132.73, 0 -146.37 C0 -160.01, -0.29 -155.28, 0 -157.65 C0.29 -160.02, 0.39 -159.7, 1.72 -160.59 C3.05 -161.48, 2.99 -161.23, 7.98 -162.99 C12.98 -164.75, 25.14 -168.95, 31.68 -171.18 C38.22 -173.41, 43.63 -175.16, 47.23 -176.35 C50.83 -177.54, 52.27 -178, 53.28 -178.33 M0 0 C0 -6.01, 0 -23.43, 0 -36.07 C0 -48.7, 0 -57.43, 0 -75.81 C0 -94.19, 0 -132.73, 0 -146.37 C0 -160.01, -0.29 -155.28, 0 -157.65 C0.29 -160.02, 0.39 -159.7, 1.72 -160.59 C3.05 -161.48, 2.99 -161.23, 7.98 -162.99 C12.98 -164.75, 25.14 -168.95, 31.68 -171.18 C38.22 -173.41, 43.63 -175.16, 47.23 -176.35 C50.83 -177.54, 52.27 -178, 53.28 -178.33" stroke="#E1E1E1" stroke-width="4" fill="none"></path></g></g><mask></mask><g stroke-linecap="round"><g transform="translate(91.47679950989368 96.54439598429599) rotate(0 66.66112734804437 -14.95934253787891)"><path d="M0 0 C0 -2.05, 0 -8.06, 0 -12.3 C0 -16.54, -0.22 -22.7, 0 -25.44 C0.22 -28.18, 0.21 -27.9, 1.31 -28.74 C2.42 -29.58, 3.31 -29.5, 6.62 -30.49 C9.93 -31.47, 15.32 -32.96, 21.17 -34.63 C27.01 -36.31, 34.32 -38.39, 41.67 -40.52 C49.01 -42.66, 58.43 -45.43, 65.25 -47.45 C72.08 -49.47, 78.93 -51.53, 82.64 -52.63 C86.34 -53.72, 86.19 -53.81, 87.5 -54.03 C88.82 -54.26, 89.3 -54.35, 90.54 -53.97 C91.79 -53.58, 91.65 -53.56, 94.96 -51.71 C98.28 -49.86, 106.12 -45.28, 110.44 -42.88 C114.76 -40.47, 117.59 -39.1, 120.89 -37.3 C124.2 -35.5, 128.25 -33.37, 130.27 -32.07 C132.28 -30.78, 132.49 -30.55, 133 -29.52 C133.51 -28.5, 133.27 -28.52, 133.32 -25.93 C133.38 -23.35, 133.32 -20.72, 133.32 -14.02 C133.32 -7.31, 133.32 7.97, 133.32 14.32 C133.32 20.68, 133.32 22.48, 133.32 24.12 M0 0 C0 -2.05, 0 -8.06, 0 -12.3 C0 -16.54, -0.22 -22.7, 0 -25.44 C0.22 -28.18, 0.21 -27.9, 1.31 -28.74 C2.42 -29.58, 3.31 -29.5, 6.62 -30.49 C9.93 -31.47, 15.32 -32.96, 21.17 -34.63 C27.01 -36.31, 34.32 -38.39, 41.67 -40.52 C49.01 -42.66, 58.43 -45.43, 65.25 -47.45 C72.08 -49.47, 78.93 -51.53, 82.64 -52.63 C86.34 -53.72, 86.19 -53.81, 87.5 -54.03 C88.82 -54.26, 89.3 -54.35, 90.54 -53.97 C91.79 -53.58, 91.65 -53.56, 94.96 -51.71 C98.28 -49.86, 106.12 -45.28, 110.44 -42.88 C114.76 -40.47, 117.59 -39.1, 120.89 -37.3 C124.2 -35.5, 128.25 -33.37, 130.27 -32.07 C132.28 -30.78, 132.49 -30.55, 133 -29.52 C133.51 -28.5, 133.27 -28.52, 133.32 -25.93 C133.38 -23.35, 133.32 -20.72, 133.32 -14.02 C133.32 -7.31, 133.32 7.97, 133.32 14.32 C133.32 20.68, 133.32 22.48, 133.32 24.12" stroke="#E1E1E1" stroke-width="4" fill="none"></path></g></g><mask></mask><g stroke-linecap="round"><g transform="translate(224.96707648006668 120.7200547587363) rotate(0 13.713548815575905 -1.9006300257519797)"><path d="M0 0 C4.57 -0.63, 22.86 -3.17, 27.43 -3.8 M0 0 C4.57 -0.63, 22.86 -3.17, 27.43 -3.8" stroke="#E1E1E1" stroke-width="4" fill="none"></path></g></g><mask></mask><g stroke-linecap="round"><g transform="translate(252.36412022882178 116.81807420307177) rotate(0 12.899746132937253 -49.7747216748121)"><path d="M0 0 C0 -2.61, 0 -4.44, 0 -15.63 C0 -26.82, 0 -55.04, 0 -67.14 C0 -79.25, -0.13 -83.88, 0 -88.24 C0.13 -92.61, 0.18 -92.19, 0.78 -93.35 C1.38 -94.5, 1.99 -94.64, 3.59 -95.17 C5.2 -95.71, 6.7 -95.83, 10.4 -96.56 C14.1 -97.29, 23.23 -99.05, 25.8 -99.55 M0 0 C0 -2.61, 0 -4.44, 0 -15.63 C0 -26.82, 0 -55.04, 0 -67.14 C0 -79.25, -0.13 -83.88, 0 -88.24 C0.13 -92.61, 0.18 -92.19, 0.78 -93.35 C1.38 -94.5, 1.99 -94.64, 3.59 -95.17 C5.2 -95.71, 6.7 -95.83, 10.4 -96.56 C14.1 -97.29, 23.23 -99.05, 25.8 -99.55" stroke="#E1E1E1" stroke-width="4" fill="none"></path></g></g><mask></mask></svg>