<svg version="1.1" xmlns="http://www.w3.org/2000/svg" viewBox="0 0 322.4852088341697 330.18682057803017" width="322.4852088341697" height="330.18682057803017" class="excalidraw-svg"><!-- svg-source:excalidraw --><metadata></metadata><defs><style class="style-fonts">
      </style></defs><rect x="0" y="0" width="322.4852088341697" height="330.18682057803017" fill="#000000"></rect><g stroke-linecap="round"><g transform="translate(160.30559147531176 227.4448203394095) rotate(0 -1.6350269650813516 46.326521362018866)"><path d="M0 0 C0.11 2.34, 0.5 9.79, 0.67 14.05 C0.85 18.3, 0.91 21.47, 1.04 25.51 C1.17 29.56, 1.41 34.05, 1.43 38.34 C1.45 42.62, 1.35 46.81, 1.14 51.22 C0.93 55.62, 0.7 60.74, 0.15 64.77 C-0.41 68.81, -1.36 72.87, -2.19 75.43 C-3.03 77.99, -4.03 79.04, -4.86 80.16 C-5.69 81.27, -6.23 81.73, -7.17 82.12 C-8.11 82.52, -9.92 82.26, -10.49 82.52 C-11.06 82.77, -10.64 83.07, -10.59 83.65 C-10.54 84.22, -10.41 85.12, -10.18 85.99 C-9.95 86.86, -9.81 87.97, -9.2 88.88 C-8.59 89.8, -7.5 90.88, -6.51 91.51 C-5.52 92.14, -4.4 92.49, -3.29 92.65 C-2.17 92.82, -0.79 92.74, 0.18 92.51 C1.14 92.28, 1.76 92.07, 2.52 91.26 C3.27 90.46, 4.09 89.08, 4.7 87.67 C5.31 86.25, 5.75 84.95, 6.15 82.77 C6.56 80.59, 6.96 77.89, 7.15 74.59 C7.34 71.29, 7.3 66.76, 7.32 62.97 C7.34 59.19, 7.36 55.79, 7.26 51.89 C7.17 47.99, 6.97 43.7, 6.74 39.56 C6.51 35.41, 6.2 31.11, 5.88 27.02 C5.57 22.94, 5.11 18.36, 4.84 15.04 C4.57 11.72, 4.39 9.08, 4.24 7.11 C4.1 5.14, 4.02 3.87, 3.97 3.22 M0 0 C0.11 2.34, 0.5 9.79, 0.67 14.05 C0.85 18.3, 0.91 21.47, 1.04 25.51 C1.17 29.56, 1.41 34.05, 1.43 38.34 C1.45 42.62, 1.35 46.81, 1.14 51.22 C0.93 55.62, 0.7 60.74, 0.15 64.77 C-0.41 68.81, -1.36 72.87, -2.19 75.43 C-3.03 77.99, -4.03 79.04, -4.86 80.16 C-5.69 81.27, -6.23 81.73, -7.17 82.12 C-8.11 82.52, -9.92 82.26, -10.49 82.52 C-11.06 82.77, -10.64 83.07, -10.59 83.65 C-10.54 84.22, -10.41 85.12, -10.18 85.99 C-9.95 86.86, -9.81 87.97, -9.2 88.88 C-8.59 89.8, -7.5 90.88, -6.51 91.51 C-5.52 92.14, -4.4 92.49, -3.29 92.65 C-2.17 92.82, -0.79 92.74, 0.18 92.51 C1.14 92.28, 1.76 92.07, 2.52 91.26 C3.27 90.46, 4.09 89.08, 4.7 87.67 C5.31 86.25, 5.75 84.95, 6.15 82.77 C6.56 80.59, 6.96 77.89, 7.15 74.59 C7.34 71.29, 7.3 66.76, 7.32 62.97 C7.34 59.19, 7.36 55.79, 7.26 51.89 C7.17 47.99, 6.97 43.7, 6.74 39.56 C6.51 35.41, 6.2 31.11, 5.88 27.02 C5.57 22.94, 5.11 18.36, 4.84 15.04 C4.57 11.72, 4.39 9.08, 4.24 7.11 C4.1 5.14, 4.02 3.87, 3.97 3.22" stroke="#E1E1E1" stroke-width="2" fill="none"></path></g></g><mask></mask><g stroke-linecap="round"><g transform="translate(158.93912392685888 228.70121414620007) rotate(0 2.2725472048558686 -87.7641446117816)"><path d="M0 0 C0.16 -0.19, 0.62 -0.85, 0.96 -1.12 C1.3 -1.39, 1.67 -1.67, 2.05 -1.62 C2.43 -1.56, 2.78 -1.24, 3.24 -0.78 C3.69 -0.32, 4.31 0.45, 4.78 1.15 C5.26 1.85, 5.4 2.23, 6.08 3.41 C6.76 4.6, 7.97 6.76, 8.86 8.28 C9.75 9.81, 10.43 11.02, 11.43 12.56 C12.42 14.11, 13.54 15.93, 14.85 17.55 C16.15 19.18, 17.59 20.68, 19.26 22.29 C20.93 23.9, 22.99 25.72, 24.87 27.2 C26.74 28.68, 28.4 29.86, 30.51 31.15 C32.63 32.44, 35.32 33.88, 37.55 34.93 C39.77 35.98, 41.46 36.61, 43.88 37.46 C46.31 38.3, 49.3 39.29, 52.08 39.98 C54.87 40.67, 57.8 41.18, 60.6 41.6 C63.4 42.02, 66.35 42.3, 68.89 42.5 C71.43 42.7, 74.23 42.74, 75.83 42.8 C77.43 42.86, 77.85 42.85, 78.5 42.85 C79.14 42.86, 79.52 43.03, 79.73 42.85 C79.93 42.67, 79.72 42.28, 79.7 41.78 C79.68 41.29, 79.65 40.35, 79.62 39.87 C79.59 39.38, 79.63 39.44, 79.51 38.88 C79.4 38.32, 79.32 37.74, 78.93 36.48 C78.54 35.23, 77.74 32.97, 77.18 31.35 C76.62 29.74, 75.98 28.15, 75.58 26.8 C75.19 25.45, 74.95 24.35, 74.81 23.24 C74.67 22.14, 74.58 21.26, 74.76 20.16 C74.93 19.07, 75.38 17.72, 75.86 16.68 C76.35 15.64, 76.9 14.78, 77.66 13.91 C78.42 13.03, 79.32 12.12, 80.42 11.43 C81.53 10.74, 83 10.21, 84.27 9.77 C85.54 9.32, 86.62 9.01, 88.06 8.78 C89.5 8.55, 90.87 8.44, 92.9 8.39 C94.93 8.34, 97.63 8.37, 100.24 8.47 C102.85 8.58, 106.18 8.9, 108.56 9.01 C110.95 9.13, 112.91 9.25, 114.54 9.18 C116.17 9.12, 117.76 9.01, 118.36 8.63 C118.97 8.25, 118.45 7.68, 118.15 6.91 C117.86 6.15, 117.13 4.91, 116.6 4.05 C116.06 3.19, 115.42 2.45, 114.94 1.75 C114.47 1.04, 114.03 0.39, 113.75 -0.19 C113.47 -0.77, 113.36 -0.95, 113.28 -1.73 C113.2 -2.51, 113.13 -3.94, 113.27 -4.88 C113.42 -5.82, 113.65 -6.59, 114.13 -7.37 C114.6 -8.15, 115.13 -8.86, 116.1 -9.55 C117.07 -10.24, 118.44 -10.9, 119.93 -11.51 C121.42 -12.12, 123.07 -12.67, 125.03 -13.21 C126.99 -13.76, 129.33 -14.28, 131.69 -14.78 C134.06 -15.28, 136.73 -15.66, 139.23 -16.22 C141.74 -16.77, 144.8 -17.52, 146.72 -18.1 C148.63 -18.68, 149.62 -19.18, 150.73 -19.71 C151.85 -20.23, 153.01 -20.83, 153.39 -21.24 C153.78 -21.66, 153.36 -21.84, 153.02 -22.2 C152.67 -22.56, 152.13 -22.93, 151.34 -23.41 C150.55 -23.9, 149.5 -24.57, 148.3 -25.12 C147.11 -25.68, 145.58 -26.24, 144.19 -26.74 C142.8 -27.23, 141.57 -27.61, 139.94 -28.08 C138.32 -28.55, 136.49 -29.02, 134.45 -29.56 C132.4 -30.1, 129.54 -30.77, 127.67 -31.34 C125.8 -31.91, 124.42 -32.43, 123.21 -32.98 C121.99 -33.54, 121.06 -34.12, 120.39 -34.67 C119.71 -35.22, 119.47 -35.56, 119.17 -36.28 C118.87 -37, 118.61 -38.07, 118.59 -39.01 C118.58 -39.94, 118.6 -40.61, 119.09 -41.9 C119.57 -43.18, 120.8 -45.29, 121.48 -46.73 C122.16 -48.17, 122.85 -49.72, 123.16 -50.53 C123.47 -51.34, 123.54 -51.43, 123.33 -51.58 C123.12 -51.73, 123.03 -51.63, 121.91 -51.43 C120.79 -51.22, 118.3 -50.69, 116.6 -50.35 C114.9 -50, 113.58 -49.68, 111.73 -49.34 C109.88 -49, 107.4 -48.51, 105.51 -48.31 C103.62 -48.11, 101.9 -48.05, 100.39 -48.11 C98.88 -48.18, 97.58 -48.36, 96.45 -48.69 C95.31 -49.03, 94.32 -49.58, 93.58 -50.1 C92.83 -50.62, 92.35 -51.1, 91.97 -51.81 C91.59 -52.53, 91.36 -53.51, 91.29 -54.4 C91.23 -55.29, 91.26 -56.1, 91.6 -57.14 C91.94 -58.18, 92.66 -59.42, 93.34 -60.64 C94.01 -61.86, 94.8 -63.16, 95.66 -64.47 C96.52 -65.77, 97.48 -67.15, 98.51 -68.47 C99.55 -69.79, 100.67 -71.01, 101.87 -72.38 C103.06 -73.75, 104.33 -75.21, 105.66 -76.69 C107 -78.18, 108.23 -79.48, 109.88 -81.29 C111.53 -83.1, 113.88 -85.67, 115.57 -87.54 C117.27 -89.41, 118.71 -90.93, 120.06 -92.5 C121.4 -94.06, 122.9 -95.98, 123.63 -96.95 C124.35 -97.91, 124.44 -97.95, 124.39 -98.27 C124.33 -98.6, 123.77 -98.67, 123.3 -98.89 C122.83 -99.1, 122.42 -99.35, 121.57 -99.59 C120.72 -99.82, 119.33 -100.06, 118.19 -100.29 C117.05 -100.51, 115.8 -100.64, 114.71 -100.94 C113.62 -101.24, 112.6 -101.51, 111.66 -102.1 C110.72 -102.69, 109.72 -103.75, 109.08 -104.48 C108.44 -105.21, 108.09 -105.74, 107.83 -106.48 C107.57 -107.23, 107.5 -108.02, 107.52 -108.94 C107.54 -109.87, 107.57 -110.81, 107.93 -112.05 C108.3 -113.3, 109.01 -114.85, 109.72 -116.4 C110.43 -117.94, 111.07 -119.3, 112.19 -121.32 C113.3 -123.33, 114.8 -125.75, 116.42 -128.48 C118.05 -131.21, 120.57 -135.28, 121.92 -137.7 C123.26 -140.12, 123.88 -141.6, 124.48 -143 C125.09 -144.4, 125.35 -145.36, 125.53 -146.11 C125.71 -146.86, 125.7 -147.27, 125.58 -147.49 C125.45 -147.71, 125.39 -147.54, 124.78 -147.42 C124.17 -147.3, 123.06 -147.09, 121.93 -146.77 C120.79 -146.46, 119.31 -146.04, 117.97 -145.53 C116.63 -145.02, 115.48 -144.48, 113.9 -143.7 C112.32 -142.92, 110.44 -141.9, 108.48 -140.85 C106.53 -139.8, 104.12 -138.41, 102.19 -137.41 C100.25 -136.4, 98.49 -135.48, 96.87 -134.82 C95.26 -134.16, 93.82 -133.6, 92.52 -133.44 C91.23 -133.27, 90.05 -133.44, 89.08 -133.83 C88.12 -134.22, 87.36 -135.19, 86.75 -135.77 C86.14 -136.35, 85.87 -136.53, 85.41 -137.29 C84.96 -138.04, 84.36 -139.14, 84.01 -140.3 C83.67 -141.47, 83.52 -143.2, 83.35 -144.3 C83.18 -145.4, 83.2 -146.47, 82.98 -146.91 C82.77 -147.35, 82.5 -147.09, 82.05 -146.93 C81.59 -146.77, 81.11 -146.47, 80.24 -145.96 C79.38 -145.44, 78.14 -144.76, 76.84 -143.85 C75.54 -142.95, 74.01 -141.81, 72.42 -140.55 C70.84 -139.28, 69.02 -137.69, 67.33 -136.25 C65.63 -134.81, 64.13 -133.52, 62.26 -131.92 C60.39 -130.32, 57.8 -128.03, 56.12 -126.66 C54.44 -125.28, 53.39 -124.48, 52.17 -123.66 C50.95 -122.85, 49.8 -122.22, 48.81 -121.76 C47.82 -121.29, 47.01 -120.95, 46.22 -120.87 C45.44 -120.79, 44.64 -120.93, 44.09 -121.28 C43.54 -121.63, 43.21 -122.29, 42.93 -122.95 C42.64 -123.61, 42.5 -124.06, 42.38 -125.25 C42.26 -126.45, 42.19 -128.54, 42.2 -130.15 C42.2 -131.76, 42.27 -133.36, 42.4 -134.92 C42.52 -136.48, 42.74 -137.71, 42.93 -139.49 C43.13 -141.27, 43.34 -143.64, 43.56 -145.59 C43.78 -147.55, 44 -149.4, 44.26 -151.2 C44.53 -153, 44.85 -154.59, 45.14 -156.38 C45.43 -158.18, 45.75 -160.09, 46 -161.99 C46.25 -163.89, 46.4 -165.56, 46.65 -167.79 C46.89 -170.02, 47.28 -172.84, 47.48 -175.37 C47.69 -177.9, 47.85 -181.36, 47.86 -182.96 C47.87 -184.56, 47.75 -184.61, 47.53 -184.98 C47.3 -185.35, 47.04 -185.18, 46.51 -185.16 C45.99 -185.14, 45.09 -185.01, 44.4 -184.85 C43.71 -184.69, 43.39 -184.64, 42.39 -184.22 C41.38 -183.8, 39.92 -183.16, 38.37 -182.33 C36.83 -181.51, 34.62 -180.11, 33.12 -179.28 C31.61 -178.45, 30.49 -177.87, 29.34 -177.37 C28.19 -176.87, 27.13 -176.43, 26.22 -176.26 C25.3 -176.1, 24.57 -176.08, 23.86 -176.38 C23.16 -176.69, 22.65 -177.32, 21.99 -178.08 C21.32 -178.85, 20.55 -179.88, 19.88 -180.97 C19.21 -182.06, 18.67 -183.1, 17.97 -184.62 C17.28 -186.15, 16.46 -188.14, 15.71 -190.11 C14.96 -192.08, 14.31 -194.11, 13.46 -196.45 C12.62 -198.78, 11.72 -201.31, 10.63 -204.12 C9.55 -206.94, 7.99 -211.11, 6.95 -213.35 C5.91 -215.59, 5.1 -216.7, 4.4 -217.58 C3.69 -218.46, 3.2 -218.5, 2.74 -218.65 C2.27 -218.79, 1.97 -218.62, 1.63 -218.46 C1.29 -218.3, 1.13 -218.24, 0.69 -217.7 C0.25 -217.16, -0.46 -216.14, -1.02 -215.2 C-1.59 -214.26, -1.97 -213.68, -2.71 -212.06 C-3.45 -210.44, -4.62 -207.73, -5.48 -205.49 C-6.34 -203.25, -7.09 -200.84, -7.88 -198.64 C-8.67 -196.43, -9.39 -194.4, -10.2 -192.26 C-11.01 -190.11, -11.92 -187.68, -12.73 -185.75 C-13.55 -183.83, -14.27 -182.11, -15.12 -180.71 C-15.97 -179.32, -17.13 -178.1, -17.82 -177.38 C-18.5 -176.66, -18.64 -176.59, -19.23 -176.41 C-19.83 -176.24, -20.25 -176.07, -21.38 -176.32 C-22.52 -176.57, -24.59 -177.29, -26.04 -177.91 C-27.49 -178.53, -28.37 -179.11, -30.07 -180.03 C-31.77 -180.96, -34.58 -182.66, -36.25 -183.47 C-37.91 -184.27, -38.94 -184.57, -40.04 -184.85 C-41.14 -185.12, -42.32 -185.28, -42.83 -185.11 C-43.34 -184.94, -43.07 -184.84, -43.08 -183.83 C-43.1 -182.83, -42.99 -180.72, -42.91 -179.08 C-42.83 -177.44, -42.77 -175.79, -42.6 -173.99 C-42.43 -172.2, -42.14 -170.56, -41.88 -168.33 C-41.62 -166.1, -41.36 -163.17, -41.04 -160.63 C-40.72 -158.08, -40.27 -155.36, -39.96 -153.05 C-39.65 -150.73, -39.49 -149.04, -39.19 -146.75 C-38.89 -144.46, -38.38 -141.6, -38.14 -139.31 C-37.9 -137.01, -37.85 -135.14, -37.76 -132.97 C-37.67 -130.81, -37.47 -128.1, -37.6 -126.31 C-37.73 -124.52, -38.13 -123.12, -38.52 -122.23 C-38.91 -121.34, -39.29 -121.17, -39.92 -120.98 C-40.55 -120.79, -41.41 -120.86, -42.3 -121.07 C-43.19 -121.27, -44.11 -121.57, -45.26 -122.21 C-46.42 -122.86, -47.67 -123.76, -49.23 -124.94 C-50.8 -126.12, -52.58 -127.58, -54.65 -129.3 C-56.71 -131.02, -59.31 -133.3, -61.63 -135.27 C-63.94 -137.23, -66.38 -139.35, -68.55 -141.08 C-70.73 -142.81, -73.12 -144.69, -74.68 -145.67 C-76.24 -146.64, -77.3 -146.83, -77.92 -146.95 C-78.53 -147.07, -78.23 -146.8, -78.36 -146.38 C-78.49 -145.95, -78.55 -145.31, -78.71 -144.41 C-78.87 -143.52, -79.01 -142.1, -79.31 -141 C-79.61 -139.9, -79.86 -138.86, -80.49 -137.83 C-81.12 -136.81, -82.26 -135.58, -83.08 -134.87 C-83.9 -134.16, -84.51 -133.79, -85.38 -133.59 C-86.25 -133.39, -87.16 -133.47, -88.29 -133.67 C-89.43 -133.87, -90.81 -134.26, -92.2 -134.81 C-93.6 -135.35, -94.73 -135.93, -96.68 -136.92 C-98.62 -137.92, -101.47 -139.54, -103.86 -140.79 C-106.25 -142.04, -109.17 -143.56, -111.01 -144.42 C-112.86 -145.29, -113.69 -145.54, -114.95 -145.97 C-116.21 -146.4, -117.57 -146.78, -118.57 -147.02 C-119.57 -147.26, -120.55 -147.53, -120.94 -147.41 C-121.33 -147.28, -121.09 -146.97, -120.91 -146.27 C-120.73 -145.57, -120.39 -144.49, -119.85 -143.19 C-119.3 -141.89, -118.74 -140.49, -117.64 -138.45 C-116.54 -136.41, -114.64 -133.25, -113.26 -130.94 C-111.89 -128.63, -110.6 -126.66, -109.38 -124.58 C-108.16 -122.5, -106.76 -119.96, -105.94 -118.45 C-105.11 -116.93, -104.91 -116.68, -104.42 -115.48 C-103.93 -114.27, -103.25 -112.53, -103.01 -111.2 C-102.77 -109.87, -102.72 -108.61, -102.98 -107.47 C-103.24 -106.34, -103.8 -105.33, -104.59 -104.38 C-105.37 -103.43, -106.56 -102.41, -107.68 -101.76 C-108.8 -101.11, -110.12 -100.78, -111.32 -100.49 C-112.53 -100.21, -113.85 -100.24, -114.92 -100.06 C-115.99 -99.88, -116.95 -99.69, -117.73 -99.41 C-118.52 -99.14, -119.42 -98.75, -119.65 -98.4 C-119.88 -98.06, -119.53 -97.93, -119.12 -97.32 C-118.72 -96.72, -118.12 -95.87, -117.25 -94.8 C-116.38 -93.72, -115.01 -92.17, -113.9 -90.89 C-112.79 -89.61, -111.89 -88.54, -110.6 -87.1 C-109.3 -85.66, -107.86 -84.08, -106.14 -82.25 C-104.42 -80.42, -102.23 -78.3, -100.28 -76.12 C-98.33 -73.94, -96.01 -71.09, -94.43 -69.18 C-92.86 -67.26, -92.03 -66.44, -90.83 -64.62 C-89.63 -62.8, -87.94 -59.89, -87.21 -58.26 C-86.49 -56.64, -86.45 -55.93, -86.48 -54.85 C-86.51 -53.76, -86.79 -52.71, -87.39 -51.78 C-88 -50.86, -88.89 -49.9, -90.11 -49.32 C-91.34 -48.74, -93.05 -48.45, -94.75 -48.29 C-96.45 -48.12, -98.23 -48.13, -100.31 -48.33 C-102.4 -48.53, -105.04 -49.08, -107.24 -49.48 C-109.44 -49.88, -112 -50.39, -113.53 -50.71 C-115.07 -51.03, -115.55 -51.19, -116.45 -51.39 C-117.35 -51.59, -118.52 -52.03, -118.93 -51.89 C-119.34 -51.76, -119.14 -51.23, -118.91 -50.57 C-118.68 -49.92, -118.07 -48.97, -117.52 -47.96 C-116.98 -46.94, -116.18 -45.53, -115.66 -44.49 C-115.14 -43.45, -114.7 -42.66, -114.43 -41.71 C-114.15 -40.76, -113.97 -39.64, -114 -38.77 C-114.03 -37.89, -114.33 -37.16, -114.62 -36.47 C-114.9 -35.79, -114.89 -35.29, -115.68 -34.66 C-116.47 -34.03, -117.94 -33.27, -119.35 -32.69 C-120.76 -32.11, -122.2 -31.73, -124.16 -31.18 C-126.12 -30.62, -128.68 -30.03, -131.11 -29.37 C-133.53 -28.71, -136.61 -27.88, -138.69 -27.23 C-140.77 -26.58, -142.22 -26.06, -143.59 -25.45 C-144.96 -24.85, -146.03 -24.15, -146.91 -23.58 C-147.79 -23.01, -148.63 -22.47, -148.85 -22.06 C-149.07 -21.65, -148.88 -21.53, -148.25 -21.11 C-147.62 -20.7, -146.36 -20.09, -145.06 -19.55 C-143.76 -19.01, -142.45 -18.46, -140.46 -17.89 C-138.47 -17.32, -135.44 -16.65, -133.12 -16.13 C-130.8 -15.61, -128.63 -15.2, -126.54 -14.76 C-124.45 -14.31, -122.47 -13.96, -120.55 -13.45 C-118.64 -12.93, -116.57 -12.3, -115.04 -11.67 C-113.52 -11.04, -112.39 -10.48, -111.4 -9.66 C-110.4 -8.84, -109.57 -7.7, -109.09 -6.76 C-108.6 -5.83, -108.55 -4.97, -108.49 -4.03 C-108.44 -3.08, -108.51 -1.98, -108.73 -1.11 C-108.95 -0.24, -109.29 0.35, -109.82 1.22 C-110.35 2.09, -111.36 3.25, -111.91 4.1 C-112.47 4.95, -112.81 5.57, -113.14 6.31 C-113.48 7.05, -114.13 8.11, -113.92 8.55 C-113.7 8.99, -112.6 8.84, -111.85 8.93 C-111.1 9.03, -110.58 9.08, -109.42 9.12 C-108.26 9.17, -106.59 9.25, -104.91 9.2 C-103.22 9.14, -101.54 8.94, -99.29 8.79 C-97.03 8.65, -93.56 8.38, -91.37 8.32 C-89.18 8.27, -87.95 8.32, -86.15 8.48 C-84.35 8.65, -82.14 8.93, -80.57 9.32 C-78.99 9.71, -77.86 10.21, -76.7 10.84 C-75.53 11.47, -74.5 12.17, -73.6 13.1 C-72.71 14.04, -71.89 15.34, -71.32 16.47 C-70.75 17.61, -70.36 18.64, -70.2 19.92 C-70.04 21.19, -70.09 22.52, -70.36 24.11 C-70.64 25.71, -71.28 27.71, -71.85 29.5 C-72.43 31.29, -73.3 33.22, -73.82 34.85 C-74.35 36.48, -74.77 37.94, -75.01 39.28 C-75.26 40.63, -75.49 42.28, -75.29 42.92 C-75.1 43.56, -74.79 43.11, -73.84 43.12 C-72.89 43.13, -71.07 43.06, -69.59 42.97 C-68.11 42.88, -66.93 42.81, -64.94 42.58 C-62.95 42.35, -60.17 41.98, -57.67 41.59 C-55.17 41.2, -52.81 40.89, -49.94 40.22 C-47.07 39.54, -43.48 38.61, -40.46 37.53 C-37.43 36.45, -34.69 35.25, -31.81 33.74 C-28.93 32.23, -25.9 30.45, -23.16 28.47 C-20.42 26.49, -17.91 24.42, -15.38 21.85 C-12.85 19.27, -10.04 15.83, -7.98 13.03 C-5.92 10.23, -4.34 7.22, -3.01 5.05 C-1.68 2.88, -0.5 0.84, 0 0 M0 0 C0.16 -0.19, 0.62 -0.85, 0.96 -1.12 C1.3 -1.39, 1.67 -1.67, 2.05 -1.62 C2.43 -1.56, 2.78 -1.24, 3.24 -0.78 C3.69 -0.32, 4.31 0.45, 4.78 1.15 C5.26 1.85, 5.4 2.23, 6.08 3.41 C6.76 4.6, 7.97 6.76, 8.86 8.28 C9.75 9.81, 10.43 11.02, 11.43 12.56 C12.42 14.11, 13.54 15.93, 14.85 17.55 C16.15 19.18, 17.59 20.68, 19.26 22.29 C20.93 23.9, 22.99 25.72, 24.87 27.2 C26.74 28.68, 28.4 29.86, 30.51 31.15 C32.63 32.44, 35.32 33.88, 37.55 34.93 C39.77 35.98, 41.46 36.61, 43.88 37.46 C46.31 38.3, 49.3 39.29, 52.08 39.98 C54.87 40.67, 57.8 41.18, 60.6 41.6 C63.4 42.02, 66.35 42.3, 68.89 42.5 C71.43 42.7, 74.23 42.74, 75.83 42.8 C77.43 42.86, 77.85 42.85, 78.5 42.85 C79.14 42.86, 79.52 43.03, 79.73 42.85 C79.93 42.67, 79.72 42.28, 79.7 41.78 C79.68 41.29, 79.65 40.35, 79.62 39.87 C79.59 39.38, 79.63 39.44, 79.51 38.88 C79.4 38.32, 79.32 37.74, 78.93 36.48 C78.54 35.23, 77.74 32.97, 77.18 31.35 C76.62 29.74, 75.98 28.15, 75.58 26.8 C75.19 25.45, 74.95 24.35, 74.81 23.24 C74.67 22.14, 74.58 21.26, 74.76 20.16 C74.93 19.07, 75.38 17.72, 75.86 16.68 C76.35 15.64, 76.9 14.78, 77.66 13.91 C78.42 13.03, 79.32 12.12, 80.42 11.43 C81.53 10.74, 83 10.21, 84.27 9.77 C85.54 9.32, 86.62 9.01, 88.06 8.78 C89.5 8.55, 90.87 8.44, 92.9 8.39 C94.93 8.34, 97.63 8.37, 100.24 8.47 C102.85 8.58, 106.18 8.9, 108.56 9.01 C110.95 9.13, 112.91 9.25, 114.54 9.18 C116.17 9.12, 117.76 9.01, 118.36 8.63 C118.97 8.25, 118.45 7.68, 118.15 6.91 C117.86 6.15, 117.13 4.91, 116.6 4.05 C116.06 3.19, 115.42 2.45, 114.94 1.75 C114.47 1.04, 114.03 0.39, 113.75 -0.19 C113.47 -0.77, 113.36 -0.95, 113.28 -1.73 C113.2 -2.51, 113.13 -3.94, 113.27 -4.88 C113.42 -5.82, 113.65 -6.59, 114.13 -7.37 C114.6 -8.15, 115.13 -8.86, 116.1 -9.55 C117.07 -10.24, 118.44 -10.9, 119.93 -11.51 C121.42 -12.12, 123.07 -12.67, 125.03 -13.21 C126.99 -13.76, 129.33 -14.28, 131.69 -14.78 C134.06 -15.28, 136.73 -15.66, 139.23 -16.22 C141.74 -16.77, 144.8 -17.52, 146.72 -18.1 C148.63 -18.68, 149.62 -19.18, 150.73 -19.71 C151.85 -20.23, 153.01 -20.83, 153.39 -21.24 C153.78 -21.66, 153.36 -21.84, 153.02 -22.2 C152.67 -22.56, 152.13 -22.93, 151.34 -23.41 C150.55 -23.9, 149.5 -24.57, 148.3 -25.12 C147.11 -25.68, 145.58 -26.24, 144.19 -26.74 C142.8 -27.23, 141.57 -27.61, 139.94 -28.08 C138.32 -28.55, 136.49 -29.02, 134.45 -29.56 C132.4 -30.1, 129.54 -30.77, 127.67 -31.34 C125.8 -31.91, 124.42 -32.43, 123.21 -32.98 C121.99 -33.54, 121.06 -34.12, 120.39 -34.67 C119.71 -35.22, 119.47 -35.56, 119.17 -36.28 C118.87 -37, 118.61 -38.07, 118.59 -39.01 C118.58 -39.94, 118.6 -40.61, 119.09 -41.9 C119.57 -43.18, 120.8 -45.29, 121.48 -46.73 C122.16 -48.17, 122.85 -49.72, 123.16 -50.53 C123.47 -51.34, 123.54 -51.43, 123.33 -51.58 C123.12 -51.73, 123.03 -51.63, 121.91 -51.43 C120.79 -51.22, 118.3 -50.69, 116.6 -50.35 C114.9 -50, 113.58 -49.68, 111.73 -49.34 C109.88 -49, 107.4 -48.51, 105.51 -48.31 C103.62 -48.11, 101.9 -48.05, 100.39 -48.11 C98.88 -48.18, 97.58 -48.36, 96.45 -48.69 C95.31 -49.03, 94.32 -49.58, 93.58 -50.1 C92.83 -50.62, 92.35 -51.1, 91.97 -51.81 C91.59 -52.53, 91.36 -53.51, 91.29 -54.4 C91.23 -55.29, 91.26 -56.1, 91.6 -57.14 C91.94 -58.18, 92.66 -59.42, 93.34 -60.64 C94.01 -61.86, 94.8 -63.16, 95.66 -64.47 C96.52 -65.77, 97.48 -67.15, 98.51 -68.47 C99.55 -69.79, 100.67 -71.01, 101.87 -72.38 C103.06 -73.75, 104.33 -75.21, 105.66 -76.69 C107 -78.18, 108.23 -79.48, 109.88 -81.29 C111.53 -83.1, 113.88 -85.67, 115.57 -87.54 C117.27 -89.41, 118.71 -90.93, 120.06 -92.5 C121.4 -94.06, 122.9 -95.98, 123.63 -96.95 C124.35 -97.91, 124.44 -97.95, 124.39 -98.27 C124.33 -98.6, 123.77 -98.67, 123.3 -98.89 C122.83 -99.1, 122.42 -99.35, 121.57 -99.59 C120.72 -99.82, 119.33 -100.06, 118.19 -100.29 C117.05 -100.51, 115.8 -100.64, 114.71 -100.94 C113.62 -101.24, 112.6 -101.51, 111.66 -102.1 C110.72 -102.69, 109.72 -103.75, 109.08 -104.48 C108.44 -105.21, 108.09 -105.74, 107.83 -106.48 C107.57 -107.23, 107.5 -108.02, 107.52 -108.94 C107.54 -109.87, 107.57 -110.81, 107.93 -112.05 C108.3 -113.3, 109.01 -114.85, 109.72 -116.4 C110.43 -117.94, 111.07 -119.3, 112.19 -121.32 C113.3 -123.33, 114.8 -125.75, 116.42 -128.48 C118.05 -131.21, 120.57 -135.28, 121.92 -137.7 C123.26 -140.12, 123.88 -141.6, 124.48 -143 C125.09 -144.4, 125.35 -145.36, 125.53 -146.11 C125.71 -146.86, 125.7 -147.27, 125.58 -147.49 C125.45 -147.71, 125.39 -147.54, 124.78 -147.42 C124.17 -147.3, 123.06 -147.09, 121.93 -146.77 C120.79 -146.46, 119.31 -146.04, 117.97 -145.53 C116.63 -145.02, 115.48 -144.48, 113.9 -143.7 C112.32 -142.92, 110.44 -141.9, 108.48 -140.85 C106.53 -139.8, 104.12 -138.41, 102.19 -137.41 C100.25 -136.4, 98.49 -135.48, 96.87 -134.82 C95.26 -134.16, 93.82 -133.6, 92.52 -133.44 C91.23 -133.27, 90.05 -133.44, 89.08 -133.83 C88.12 -134.22, 87.36 -135.19, 86.75 -135.77 C86.14 -136.35, 85.87 -136.53, 85.41 -137.29 C84.96 -138.04, 84.36 -139.14, 84.01 -140.3 C83.67 -141.47, 83.52 -143.2, 83.35 -144.3 C83.18 -145.4, 83.2 -146.47, 82.98 -146.91 C82.77 -147.35, 82.5 -147.09, 82.05 -146.93 C81.59 -146.77, 81.11 -146.47, 80.24 -145.96 C79.38 -145.44, 78.14 -144.76, 76.84 -143.85 C75.54 -142.95, 74.01 -141.81, 72.42 -140.55 C70.84 -139.28, 69.02 -137.69, 67.33 -136.25 C65.63 -134.81, 64.13 -133.52, 62.26 -131.92 C60.39 -130.32, 57.8 -128.03, 56.12 -126.66 C54.44 -125.28, 53.39 -124.48, 52.17 -123.66 C50.95 -122.85, 49.8 -122.22, 48.81 -121.76 C47.82 -121.29, 47.01 -120.95, 46.22 -120.87 C45.44 -120.79, 44.64 -120.93, 44.09 -121.28 C43.54 -121.63, 43.21 -122.29, 42.93 -122.95 C42.64 -123.61, 42.5 -124.06, 42.38 -125.25 C42.26 -126.45, 42.19 -128.54, 42.2 -130.15 C42.2 -131.76, 42.27 -133.36, 42.4 -134.92 C42.52 -136.48, 42.74 -137.71, 42.93 -139.49 C43.13 -141.27, 43.34 -143.64, 43.56 -145.59 C43.78 -147.55, 44 -149.4, 44.26 -151.2 C44.53 -153, 44.85 -154.59, 45.14 -156.38 C45.43 -158.18, 45.75 -160.09, 46 -161.99 C46.25 -163.89, 46.4 -165.56, 46.65 -167.79 C46.89 -170.02, 47.28 -172.84, 47.48 -175.37 C47.69 -177.9, 47.85 -181.36, 47.86 -182.96 C47.87 -184.56, 47.75 -184.61, 47.53 -184.98 C47.3 -185.35, 47.04 -185.18, 46.51 -185.16 C45.99 -185.14, 45.09 -185.01, 44.4 -184.85 C43.71 -184.69, 43.39 -184.64, 42.39 -184.22 C41.38 -183.8, 39.92 -183.16, 38.37 -182.33 C36.83 -181.51, 34.62 -180.11, 33.12 -179.28 C31.61 -178.45, 30.49 -177.87, 29.34 -177.37 C28.19 -176.87, 27.13 -176.43, 26.22 -176.26 C25.3 -176.1, 24.57 -176.08, 23.86 -176.38 C23.16 -176.69, 22.65 -177.32, 21.99 -178.08 C21.32 -178.85, 20.55 -179.88, 19.88 -180.97 C19.21 -182.06, 18.67 -183.1, 17.97 -184.62 C17.28 -186.15, 16.46 -188.14, 15.71 -190.11 C14.96 -192.08, 14.31 -194.11, 13.46 -196.45 C12.62 -198.78, 11.72 -201.31, 10.63 -204.12 C9.55 -206.94, 7.99 -211.11, 6.95 -213.35 C5.91 -215.59, 5.1 -216.7, 4.4 -217.58 C3.69 -218.46, 3.2 -218.5, 2.74 -218.65 C2.27 -218.79, 1.97 -218.62, 1.63 -218.46 C1.29 -218.3, 1.13 -218.24, 0.69 -217.7 C0.25 -217.16, -0.46 -216.14, -1.02 -215.2 C-1.59 -214.26, -1.97 -213.68, -2.71 -212.06 C-3.45 -210.44, -4.62 -207.73, -5.48 -205.49 C-6.34 -203.25, -7.09 -200.84, -7.88 -198.64 C-8.67 -196.43, -9.39 -194.4, -10.2 -192.26 C-11.01 -190.11, -11.92 -187.68, -12.73 -185.75 C-13.55 -183.83, -14.27 -182.11, -15.12 -180.71 C-15.97 -179.32, -17.13 -178.1, -17.82 -177.38 C-18.5 -176.66, -18.64 -176.59, -19.23 -176.41 C-19.83 -176.24, -20.25 -176.07, -21.38 -176.32 C-22.52 -176.57, -24.59 -177.29, -26.04 -177.91 C-27.49 -178.53, -28.37 -179.11, -30.07 -180.03 C-31.77 -180.96, -34.58 -182.66, -36.25 -183.47 C-37.91 -184.27, -38.94 -184.57, -40.04 -184.85 C-41.14 -185.12, -42.32 -185.28, -42.83 -185.11 C-43.34 -184.94, -43.07 -184.84, -43.08 -183.83 C-43.1 -182.83, -42.99 -180.72, -42.91 -179.08 C-42.83 -177.44, -42.77 -175.79, -42.6 -173.99 C-42.43 -172.2, -42.14 -170.56, -41.88 -168.33 C-41.62 -166.1, -41.36 -163.17, -41.04 -160.63 C-40.72 -158.08, -40.27 -155.36, -39.96 -153.05 C-39.65 -150.73, -39.49 -149.04, -39.19 -146.75 C-38.89 -144.46, -38.38 -141.6, -38.14 -139.31 C-37.9 -137.01, -37.85 -135.14, -37.76 -132.97 C-37.67 -130.81, -37.47 -128.1, -37.6 -126.31 C-37.73 -124.52, -38.13 -123.12, -38.52 -122.23 C-38.91 -121.34, -39.29 -121.17, -39.92 -120.98 C-40.55 -120.79, -41.41 -120.86, -42.3 -121.07 C-43.19 -121.27, -44.11 -121.57, -45.26 -122.21 C-46.42 -122.86, -47.67 -123.76, -49.23 -124.94 C-50.8 -126.12, -52.58 -127.58, -54.65 -129.3 C-56.71 -131.02, -59.31 -133.3, -61.63 -135.27 C-63.94 -137.23, -66.38 -139.35, -68.55 -141.08 C-70.73 -142.81, -73.12 -144.69, -74.68 -145.67 C-76.24 -146.64, -77.3 -146.83, -77.92 -146.95 C-78.53 -147.07, -78.23 -146.8, -78.36 -146.38 C-78.49 -145.95, -78.55 -145.31, -78.71 -144.41 C-78.87 -143.52, -79.01 -142.1, -79.31 -141 C-79.61 -139.9, -79.86 -138.86, -80.49 -137.83 C-81.12 -136.81, -82.26 -135.58, -83.08 -134.87 C-83.9 -134.16, -84.51 -133.79, -85.38 -133.59 C-86.25 -133.39, -87.16 -133.47, -88.29 -133.67 C-89.43 -133.87, -90.81 -134.26, -92.2 -134.81 C-93.6 -135.35, -94.73 -135.93, -96.68 -136.92 C-98.62 -137.92, -101.47 -139.54, -103.86 -140.79 C-106.25 -142.04, -109.17 -143.56, -111.01 -144.42 C-112.86 -145.29, -113.69 -145.54, -114.95 -145.97 C-116.21 -146.4, -117.57 -146.78, -118.57 -147.02 C-119.57 -147.26, -120.55 -147.53, -120.94 -147.41 C-121.33 -147.28, -121.09 -146.97, -120.91 -146.27 C-120.73 -145.57, -120.39 -144.49, -119.85 -143.19 C-119.3 -141.89, -118.74 -140.49, -117.64 -138.45 C-116.54 -136.41, -114.64 -133.25, -113.26 -130.94 C-111.89 -128.63, -110.6 -126.66, -109.38 -124.58 C-108.16 -122.5, -106.76 -119.96, -105.94 -118.45 C-105.11 -116.93, -104.91 -116.68, -104.42 -115.48 C-103.93 -114.27, -103.25 -112.53, -103.01 -111.2 C-102.77 -109.87, -102.72 -108.61, -102.98 -107.47 C-103.24 -106.34, -103.8 -105.33, -104.59 -104.38 C-105.37 -103.43, -106.56 -102.41, -107.68 -101.76 C-108.8 -101.11, -110.12 -100.78, -111.32 -100.49 C-112.53 -100.21, -113.85 -100.24, -114.92 -100.06 C-115.99 -99.88, -116.95 -99.69, -117.73 -99.41 C-118.52 -99.14, -119.42 -98.75, -119.65 -98.4 C-119.88 -98.06, -119.53 -97.93, -119.12 -97.32 C-118.72 -96.72, -118.12 -95.87, -117.25 -94.8 C-116.38 -93.72, -115.01 -92.17, -113.9 -90.89 C-112.79 -89.61, -111.89 -88.54, -110.6 -87.1 C-109.3 -85.66, -107.86 -84.08, -106.14 -82.25 C-104.42 -80.42, -102.23 -78.3, -100.28 -76.12 C-98.33 -73.94, -96.01 -71.09, -94.43 -69.18 C-92.86 -67.26, -92.03 -66.44, -90.83 -64.62 C-89.63 -62.8, -87.94 -59.89, -87.21 -58.26 C-86.49 -56.64, -86.45 -55.93, -86.48 -54.85 C-86.51 -53.76, -86.79 -52.71, -87.39 -51.78 C-88 -50.86, -88.89 -49.9, -90.11 -49.32 C-91.34 -48.74, -93.05 -48.45, -94.75 -48.29 C-96.45 -48.12, -98.23 -48.13, -100.31 -48.33 C-102.4 -48.53, -105.04 -49.08, -107.24 -49.48 C-109.44 -49.88, -112 -50.39, -113.53 -50.71 C-115.07 -51.03, -115.55 -51.19, -116.45 -51.39 C-117.35 -51.59, -118.52 -52.03, -118.93 -51.89 C-119.34 -51.76, -119.14 -51.23, -118.91 -50.57 C-118.68 -49.92, -118.07 -48.97, -117.52 -47.96 C-116.98 -46.94, -116.18 -45.53, -115.66 -44.49 C-115.14 -43.45, -114.7 -42.66, -114.43 -41.71 C-114.15 -40.76, -113.97 -39.64, -114 -38.77 C-114.03 -37.89, -114.33 -37.16, -114.62 -36.47 C-114.9 -35.79, -114.89 -35.29, -115.68 -34.66 C-116.47 -34.03, -117.94 -33.27, -119.35 -32.69 C-120.76 -32.11, -122.2 -31.73, -124.16 -31.18 C-126.12 -30.62, -128.68 -30.03, -131.11 -29.37 C-133.53 -28.71, -136.61 -27.88, -138.69 -27.23 C-140.77 -26.58, -142.22 -26.06, -143.59 -25.45 C-144.96 -24.85, -146.03 -24.15, -146.91 -23.58 C-147.79 -23.01, -148.63 -22.47, -148.85 -22.06 C-149.07 -21.65, -148.88 -21.53, -148.25 -21.11 C-147.62 -20.7, -146.36 -20.09, -145.06 -19.55 C-143.76 -19.01, -142.45 -18.46, -140.46 -17.89 C-138.47 -17.32, -135.44 -16.65, -133.12 -16.13 C-130.8 -15.61, -128.63 -15.2, -126.54 -14.76 C-124.45 -14.31, -122.47 -13.96, -120.55 -13.45 C-118.64 -12.93, -116.57 -12.3, -115.04 -11.67 C-113.52 -11.04, -112.39 -10.48, -111.4 -9.66 C-110.4 -8.84, -109.57 -7.7, -109.09 -6.76 C-108.6 -5.83, -108.55 -4.97, -108.49 -4.03 C-108.44 -3.08, -108.51 -1.98, -108.73 -1.11 C-108.95 -0.24, -109.29 0.35, -109.82 1.22 C-110.35 2.09, -111.36 3.25, -111.91 4.1 C-112.47 4.95, -112.81 5.57, -113.14 6.31 C-113.48 7.05, -114.13 8.11, -113.92 8.55 C-113.7 8.99, -112.6 8.84, -111.85 8.93 C-111.1 9.03, -110.58 9.08, -109.42 9.12 C-108.26 9.17, -106.59 9.25, -104.91 9.2 C-103.22 9.14, -101.54 8.94, -99.29 8.79 C-97.03 8.65, -93.56 8.38, -91.37 8.32 C-89.18 8.27, -87.95 8.32, -86.15 8.48 C-84.35 8.65, -82.14 8.93, -80.57 9.32 C-78.99 9.71, -77.86 10.21, -76.7 10.84 C-75.53 11.47, -74.5 12.17, -73.6 13.1 C-72.71 14.04, -71.89 15.34, -71.32 16.47 C-70.75 17.61, -70.36 18.64, -70.2 19.92 C-70.04 21.19, -70.09 22.52, -70.36 24.11 C-70.64 25.71, -71.28 27.71, -71.85 29.5 C-72.43 31.29, -73.3 33.22, -73.82 34.85 C-74.35 36.48, -74.77 37.94, -75.01 39.28 C-75.26 40.63, -75.49 42.28, -75.29 42.92 C-75.1 43.56, -74.79 43.11, -73.84 43.12 C-72.89 43.13, -71.07 43.06, -69.59 42.97 C-68.11 42.88, -66.93 42.81, -64.94 42.58 C-62.95 42.35, -60.17 41.98, -57.67 41.59 C-55.17 41.2, -52.81 40.89, -49.94 40.22 C-47.07 39.54, -43.48 38.61, -40.46 37.53 C-37.43 36.45, -34.69 35.25, -31.81 33.74 C-28.93 32.23, -25.9 30.45, -23.16 28.47 C-20.42 26.49, -17.91 24.42, -15.38 21.85 C-12.85 19.27, -10.04 15.83, -7.98 13.03 C-5.92 10.23, -4.34 7.22, -3.01 5.05 C-1.68 2.88, -0.5 0.84, 0 0" stroke="#E1E1E1" stroke-width="2" fill="none"></path></g></g><mask></mask><g stroke-linecap="round"><g transform="translate(161.3747200412422 10.053879149047134) rotate(0 -5.552527660429178 103.89109364250021)"><path d="M0 0 C0.06 1.3, 0.18 4.2, 0.35 7.77 C0.51 11.34, 0.78 17.04, 0.99 21.42 C1.21 25.8, 1.49 30.19, 1.65 34.07 C1.8 37.95, 1.81 40.97, 1.91 44.7 C2.02 48.42, 2.15 52.11, 2.27 56.43 C2.39 60.76, 2.54 66.31, 2.65 70.64 C2.76 74.97, 2.86 79.03, 2.92 82.42 C2.99 85.81, 2.89 89.55, 3.05 90.96 C3.21 92.37, 3.54 91.17, 3.87 90.89 C4.2 90.61, 4.13 90.39, 5.02 89.28 C5.92 88.17, 7.46 86.29, 9.22 84.25 C10.98 82.2, 13.33 79.61, 15.58 77.01 C17.83 74.4, 20.59 71.09, 22.71 68.62 C24.83 66.15, 27 63.63, 28.3 62.19 C29.59 60.75, 30.1 60.21, 30.47 59.99 C30.85 59.77, 30.88 60.16, 30.54 60.88 C30.19 61.6, 29.61 62.39, 28.39 64.3 C27.18 66.21, 24.97 69.67, 23.26 72.34 C21.55 75.02, 20.3 77.06, 18.15 80.34 C16 83.62, 12.61 88.66, 10.38 92.03 C8.15 95.41, 5.98 98.73, 4.78 100.58 C3.58 102.43, 3.49 102.31, 3.19 103.12 C2.9 103.93, 3.04 104.03, 3.02 105.44 C3 106.85, 3.04 108.86, 3.06 111.59 C3.08 114.32, 3.18 118.26, 3.14 121.83 C3.11 125.4, 2.92 130.56, 2.86 133.03 C2.79 135.5, 2.74 135.74, 2.73 136.65 C2.73 137.56, 2.64 138.32, 2.82 138.49 C2.99 138.67, 3.1 138.45, 3.76 137.72 C4.42 136.99, 5.44 135.63, 6.76 134.13 C8.08 132.63, 9.57 131.12, 11.68 128.73 C13.79 126.35, 17.47 121.99, 19.42 119.83 C21.38 117.66, 22.9 116.08, 23.42 115.73 C23.94 115.38, 23.34 116.21, 22.54 117.74 C21.74 119.26, 20.29 121.96, 18.63 124.9 C16.97 127.85, 14.55 131.85, 12.56 135.41 C10.58 138.96, 8.19 143.52, 6.72 146.22 C5.25 148.92, 4.42 150.33, 3.76 151.59 C3.09 152.84, 2.92 153.05, 2.71 153.73 C2.5 154.41, 2.54 153.97, 2.48 155.68 C2.42 157.39, 2.47 160.25, 2.36 164 C2.24 167.75, 1.96 172.42, 1.76 178.2 C1.57 183.97, 1.42 193.71, 1.17 198.64 C0.92 203.57, 0.55 206.94, 0.24 207.78 C-0.06 208.63, -0.17 205.9, -0.68 203.7 C-1.2 201.51, -1.69 198.79, -2.85 194.6 C-4 190.42, -5.65 184.62, -7.64 178.59 C-9.62 172.55, -12.17 165.29, -14.76 158.41 C-17.34 151.53, -20.1 144.52, -23.17 137.32 C-26.24 130.12, -30.29 121.5, -33.16 115.23 C-36.02 108.97, -38.95 102.72, -40.36 99.74 C-41.78 96.75, -41.43 97.74, -41.64 97.35 M0 0 C0.06 1.3, 0.18 4.2, 0.35 7.77 C0.51 11.34, 0.78 17.04, 0.99 21.42 C1.21 25.8, 1.49 30.19, 1.65 34.07 C1.8 37.95, 1.81 40.97, 1.91 44.7 C2.02 48.42, 2.15 52.11, 2.27 56.43 C2.39 60.76, 2.54 66.31, 2.65 70.64 C2.76 74.97, 2.86 79.03, 2.92 82.42 C2.99 85.81, 2.89 89.55, 3.05 90.96 C3.21 92.37, 3.54 91.17, 3.87 90.89 C4.2 90.61, 4.13 90.39, 5.02 89.28 C5.92 88.17, 7.46 86.29, 9.22 84.25 C10.98 82.2, 13.33 79.61, 15.58 77.01 C17.83 74.4, 20.59 71.09, 22.71 68.62 C24.83 66.15, 27 63.63, 28.3 62.19 C29.59 60.75, 30.1 60.21, 30.47 59.99 C30.85 59.77, 30.88 60.16, 30.54 60.88 C30.19 61.6, 29.61 62.39, 28.39 64.3 C27.18 66.21, 24.97 69.67, 23.26 72.34 C21.55 75.02, 20.3 77.06, 18.15 80.34 C16 83.62, 12.61 88.66, 10.38 92.03 C8.15 95.41, 5.98 98.73, 4.78 100.58 C3.58 102.43, 3.49 102.31, 3.19 103.12 C2.9 103.93, 3.04 104.03, 3.02 105.44 C3 106.85, 3.04 108.86, 3.06 111.59 C3.08 114.32, 3.18 118.26, 3.14 121.83 C3.11 125.4, 2.92 130.56, 2.86 133.03 C2.79 135.5, 2.74 135.74, 2.73 136.65 C2.73 137.56, 2.64 138.32, 2.82 138.49 C2.99 138.67, 3.1 138.45, 3.76 137.72 C4.42 136.99, 5.44 135.63, 6.76 134.13 C8.08 132.63, 9.57 131.12, 11.68 128.73 C13.79 126.35, 17.47 121.99, 19.42 119.83 C21.38 117.66, 22.9 116.08, 23.42 115.73 C23.94 115.38, 23.34 116.21, 22.54 117.74 C21.74 119.26, 20.29 121.96, 18.63 124.9 C16.97 127.85, 14.55 131.85, 12.56 135.41 C10.58 138.96, 8.19 143.52, 6.72 146.22 C5.25 148.92, 4.42 150.33, 3.76 151.59 C3.09 152.84, 2.92 153.05, 2.71 153.73 C2.5 154.41, 2.54 153.97, 2.48 155.68 C2.42 157.39, 2.47 160.25, 2.36 164 C2.24 167.75, 1.96 172.42, 1.76 178.2 C1.57 183.97, 1.42 193.71, 1.17 198.64 C0.92 203.57, 0.55 206.94, 0.24 207.78 C-0.06 208.63, -0.17 205.9, -0.68 203.7 C-1.2 201.51, -1.69 198.79, -2.85 194.6 C-4 190.42, -5.65 184.62, -7.64 178.59 C-9.62 172.55, -12.17 165.29, -14.76 158.41 C-17.34 151.53, -20.1 144.52, -23.17 137.32 C-26.24 130.12, -30.29 121.5, -33.16 115.23 C-36.02 108.97, -38.95 102.72, -40.36 99.74 C-41.78 96.75, -41.43 97.74, -41.64 97.35" stroke="#E1E1E1" stroke-width="2" fill="none"></path></g></g><mask></mask><g stroke-linecap="round"><g transform="translate(37.95814743949677 81.34562837365274) rotate(0 60.107434232268815 71.47567444647916)"><path d="M0 0 C0.69 0.6, 2.18 1.85, 4.16 3.62 C6.15 5.38, 9.25 8.11, 11.91 10.6 C14.57 13.08, 17.09 15.58, 20.11 18.52 C23.13 21.46, 26.96 25.15, 30.03 28.25 C33.1 31.35, 35.86 34.3, 38.52 37.12 C41.19 39.94, 44.14 43.1, 46.03 45.16 C47.91 47.22, 49.13 49.06, 49.84 49.48 C50.56 49.9, 50.25 49.17, 50.31 47.68 C50.38 46.18, 50.31 43.44, 50.22 40.5 C50.14 37.57, 49.92 33.36, 49.81 30.06 C49.7 26.77, 49.57 22.94, 49.57 20.73 C49.57 18.52, 49.64 17.11, 49.81 16.79 C49.98 16.47, 50.24 17.3, 50.59 18.82 C50.94 20.34, 51.32 22.83, 51.91 25.93 C52.5 29.04, 53.32 33.47, 54.15 37.45 C54.98 41.44, 56.17 46.36, 56.91 49.84 C57.65 53.32, 58.2 56.44, 58.58 58.34 C58.95 60.25, 58.85 60.5, 59.15 61.26 C59.46 62.02, 59.74 62.03, 60.41 62.9 C61.08 63.76, 61.48 64.36, 63.2 66.43 C64.92 68.51, 68.21 72.24, 70.73 75.34 C73.24 78.45, 76.38 82.62, 78.3 85.07 C80.21 87.52, 81.53 89.51, 82.22 90.04 C82.91 90.58, 82.49 89.99, 82.44 88.28 C82.4 86.58, 82.11 83.32, 81.94 79.81 C81.77 76.29, 81.64 71.57, 81.44 67.21 C81.23 62.86, 80.84 56.81, 80.7 53.68 C80.57 50.54, 80.62 49.7, 80.64 48.39 C80.66 47.08, 80.67 45.94, 80.8 45.82 C80.93 45.7, 81.12 46.15, 81.42 47.66 C81.72 49.17, 82.06 51.54, 82.63 54.9 C83.19 58.25, 84.05 63, 84.81 67.79 C85.57 72.58, 86.41 78.92, 87.19 83.64 C87.96 88.36, 88.96 93.42, 89.46 96.12 C89.97 98.81, 89.72 98.53, 90.23 99.82 C90.74 101.11, 91.23 101.95, 92.53 103.86 C93.83 105.77, 95.94 108.42, 98.02 111.29 C100.11 114.16, 102.76 117.83, 105.03 121.08 C107.31 124.32, 109.82 128.05, 111.68 130.75 C113.54 133.45, 114.75 135.25, 116.17 137.28 C117.6 139.32, 120.53 142.72, 120.21 142.95 C119.9 143.19, 116.18 140.02, 114.26 138.69 C112.33 137.37, 111.46 136.74, 108.67 135.01 C105.87 133.28, 101.98 130.94, 97.49 128.33 C93.01 125.73, 87.08 122.34, 81.75 119.38 C76.42 116.41, 72.28 114.09, 65.53 110.55 C58.79 107.02, 46.53 100.8, 41.27 98.16 C36.01 95.53, 35.19 95.31, 33.98 94.74 M0 0 C0.69 0.6, 2.18 1.85, 4.16 3.62 C6.15 5.38, 9.25 8.11, 11.91 10.6 C14.57 13.08, 17.09 15.58, 20.11 18.52 C23.13 21.46, 26.96 25.15, 30.03 28.25 C33.1 31.35, 35.86 34.3, 38.52 37.12 C41.19 39.94, 44.14 43.1, 46.03 45.16 C47.91 47.22, 49.13 49.06, 49.84 49.48 C50.56 49.9, 50.25 49.17, 50.31 47.68 C50.38 46.18, 50.31 43.44, 50.22 40.5 C50.14 37.57, 49.92 33.36, 49.81 30.06 C49.7 26.77, 49.57 22.94, 49.57 20.73 C49.57 18.52, 49.64 17.11, 49.81 16.79 C49.98 16.47, 50.24 17.3, 50.59 18.82 C50.94 20.34, 51.32 22.83, 51.91 25.93 C52.5 29.04, 53.32 33.47, 54.15 37.45 C54.98 41.44, 56.17 46.36, 56.91 49.84 C57.65 53.32, 58.2 56.44, 58.58 58.34 C58.95 60.25, 58.85 60.5, 59.15 61.26 C59.46 62.02, 59.74 62.03, 60.41 62.9 C61.08 63.76, 61.48 64.36, 63.2 66.43 C64.92 68.51, 68.21 72.24, 70.73 75.34 C73.24 78.45, 76.38 82.62, 78.3 85.07 C80.21 87.52, 81.53 89.51, 82.22 90.04 C82.91 90.58, 82.49 89.99, 82.44 88.28 C82.4 86.58, 82.11 83.32, 81.94 79.81 C81.77 76.29, 81.64 71.57, 81.44 67.21 C81.23 62.86, 80.84 56.81, 80.7 53.68 C80.57 50.54, 80.62 49.7, 80.64 48.39 C80.66 47.08, 80.67 45.94, 80.8 45.82 C80.93 45.7, 81.12 46.15, 81.42 47.66 C81.72 49.17, 82.06 51.54, 82.63 54.9 C83.19 58.25, 84.05 63, 84.81 67.79 C85.57 72.58, 86.41 78.92, 87.19 83.64 C87.96 88.36, 88.96 93.42, 89.46 96.12 C89.97 98.81, 89.72 98.53, 90.23 99.82 C90.74 101.11, 91.23 101.95, 92.53 103.86 C93.83 105.77, 95.94 108.42, 98.02 111.29 C100.11 114.16, 102.76 117.83, 105.03 121.08 C107.31 124.32, 109.82 128.05, 111.68 130.75 C113.54 133.45, 114.75 135.25, 116.17 137.28 C117.6 139.32, 120.53 142.72, 120.21 142.95 C119.9 143.19, 116.18 140.02, 114.26 138.69 C112.33 137.37, 111.46 136.74, 108.67 135.01 C105.87 133.28, 101.98 130.94, 97.49 128.33 C93.01 125.73, 87.08 122.34, 81.75 119.38 C76.42 116.41, 72.28 114.09, 65.53 110.55 C58.79 107.02, 46.53 100.8, 41.27 98.16 C36.01 95.53, 35.19 95.31, 33.98 94.74" stroke="#E1E1E1" stroke-width="2" fill="none"></path></g></g><mask></mask><g stroke-linecap="round"><g transform="translate(10.58027403856886 207.5266209270635) rotate(0 74.88450106431719 -0.16034910195708107)"><path d="M0 0 C0.94 -0.09, 2.21 -0.53, 5.63 -0.55 C9.06 -0.57, 14.27 -0.4, 20.57 -0.1 C26.86 0.2, 37.75 0.92, 43.39 1.24 C49.04 1.56, 52.15 1.68, 54.43 1.81 C56.71 1.94, 56.86 2.37, 57.05 2.05 C57.23 1.72, 56.41 1.17, 55.54 -0.12 C54.67 -1.41, 53.02 -3.88, 51.82 -5.7 C50.63 -7.52, 49.58 -9.25, 48.39 -11.05 C47.19 -12.85, 45.59 -15, 44.63 -16.5 C43.68 -17.99, 42.66 -19.66, 42.67 -19.99 C42.68 -20.32, 43.36 -19.59, 44.69 -18.47 C46.01 -17.35, 48.26 -15.33, 50.61 -13.26 C52.95 -11.19, 56.33 -8.29, 58.78 -6.04 C61.23 -3.79, 63.58 -1.34, 65.28 0.24 C66.99 1.83, 67.99 2.84, 69.01 3.46 C70.03 4.07, 69.98 3.74, 71.41 3.95 C72.84 4.16, 74.74 4.34, 77.59 4.73 C80.44 5.12, 85.59 5.87, 88.51 6.29 C91.43 6.71, 93.58 7.06, 95.1 7.26 C96.63 7.45, 97.41 7.81, 97.66 7.46 C97.91 7.11, 97.28 6.55, 96.59 5.16 C95.91 3.76, 94.39 0.77, 93.55 -0.91 C92.7 -2.59, 91.92 -4.01, 91.53 -4.91 C91.15 -5.8, 90.97 -6.26, 91.23 -6.27 C91.48 -6.28, 92.05 -5.8, 93.04 -4.97 C94.03 -4.14, 95.45 -2.92, 97.17 -1.28 C98.88 0.36, 101.8 3.31, 103.35 4.85 C104.89 6.4, 105.69 7.18, 106.45 7.98 C107.22 8.78, 107.47 9.32, 107.92 9.65 C108.36 9.98, 108.16 9.76, 109.11 9.97 C110.06 10.18, 111.24 10.43, 113.6 10.91 C115.96 11.39, 119.59 12.03, 123.26 12.85 C126.93 13.67, 131.83 14.86, 135.61 15.83 C139.39 16.8, 143.59 18, 145.95 18.64 C148.31 19.28, 149.13 19.5, 149.77 19.67 M0 0 C0.94 -0.09, 2.21 -0.53, 5.63 -0.55 C9.06 -0.57, 14.27 -0.4, 20.57 -0.1 C26.86 0.2, 37.75 0.92, 43.39 1.24 C49.04 1.56, 52.15 1.68, 54.43 1.81 C56.71 1.94, 56.86 2.37, 57.05 2.05 C57.23 1.72, 56.41 1.17, 55.54 -0.12 C54.67 -1.41, 53.02 -3.88, 51.82 -5.7 C50.63 -7.52, 49.58 -9.25, 48.39 -11.05 C47.19 -12.85, 45.59 -15, 44.63 -16.5 C43.68 -17.99, 42.66 -19.66, 42.67 -19.99 C42.68 -20.32, 43.36 -19.59, 44.69 -18.47 C46.01 -17.35, 48.26 -15.33, 50.61 -13.26 C52.95 -11.19, 56.33 -8.29, 58.78 -6.04 C61.23 -3.79, 63.58 -1.34, 65.28 0.24 C66.99 1.83, 67.99 2.84, 69.01 3.46 C70.03 4.07, 69.98 3.74, 71.41 3.95 C72.84 4.16, 74.74 4.34, 77.59 4.73 C80.44 5.12, 85.59 5.87, 88.51 6.29 C91.43 6.71, 93.58 7.06, 95.1 7.26 C96.63 7.45, 97.41 7.81, 97.66 7.46 C97.91 7.11, 97.28 6.55, 96.59 5.16 C95.91 3.76, 94.39 0.77, 93.55 -0.91 C92.7 -2.59, 91.92 -4.01, 91.53 -4.91 C91.15 -5.8, 90.97 -6.26, 91.23 -6.27 C91.48 -6.28, 92.05 -5.8, 93.04 -4.97 C94.03 -4.14, 95.45 -2.92, 97.17 -1.28 C98.88 0.36, 101.8 3.31, 103.35 4.85 C104.89 6.4, 105.69 7.18, 106.45 7.98 C107.22 8.78, 107.47 9.32, 107.92 9.65 C108.36 9.98, 108.16 9.76, 109.11 9.97 C110.06 10.18, 111.24 10.43, 113.6 10.91 C115.96 11.39, 119.59 12.03, 123.26 12.85 C126.93 13.67, 131.83 14.86, 135.61 15.83 C139.39 16.8, 143.59 18, 145.95 18.64 C148.31 19.28, 149.13 19.5, 149.77 19.67" stroke="#E1E1E1" stroke-width="2" fill="none"></path></g></g><mask></mask><g stroke-linecap="round"><g transform="translate(284.27348897859133 81.33032649244933) rotate(0 -60.0794361865901 70.07798303188974)"><path d="M0 0 C-0.77 0.49, -2.78 1.48, -4.64 2.92 C-6.5 4.36, -8.94 6.53, -11.16 8.64 C-13.39 10.75, -14.73 12.09, -17.98 15.57 C-21.23 19.05, -26.41 24.73, -30.66 29.52 C-34.92 34.32, -40.39 40.79, -43.5 44.36 C-46.61 47.92, -47.82 49.17, -49.3 50.9 C-50.78 52.64, -52.31 54.05, -52.37 54.76 C-52.44 55.48, -52.24 55.18, -49.7 55.2 C-47.15 55.22, -40.85 54.94, -37.12 54.88 C-33.38 54.82, -29.85 54.8, -27.29 54.84 C-24.74 54.88, -22.41 54.86, -21.79 55.13 C-21.17 55.4, -21.68 55.78, -23.57 56.45 C-25.46 57.12, -29.04 58.05, -33.15 59.13 C-37.26 60.2, -44.19 61.93, -48.21 62.91 C-52.24 63.9, -55.01 64.48, -57.28 65.06 C-59.56 65.64, -60.77 65.84, -61.86 66.39 C-62.95 66.95, -62.75 67.25, -63.81 68.39 C-64.87 69.53, -66.12 70.81, -68.2 73.24 C-70.29 75.68, -74.24 80.53, -76.3 83 C-78.37 85.46, -80.6 87.25, -80.57 88.04 C-80.54 88.82, -78.96 88.16, -76.12 87.73 C-73.28 87.3, -67.1 86.07, -63.54 85.46 C-59.98 84.85, -57.05 84.38, -54.76 84.07 C-52.48 83.77, -50.26 83.46, -49.83 83.63 C-49.39 83.79, -50.01 84.05, -52.17 85.06 C-54.33 86.07, -58.67 87.94, -62.79 89.68 C-66.91 91.42, -73.05 93.87, -76.91 95.48 C-80.77 97.09, -83.69 98.37, -85.93 99.33 C-88.17 100.3, -89.28 100.64, -90.36 101.25 C-91.43 101.86, -91.45 101.95, -92.39 103.02 C-93.32 104.09, -94.21 105.45, -95.96 107.67 C-97.71 109.9, -100.77 113.69, -102.88 116.38 C-104.98 119.08, -106.36 120.84, -108.57 123.85 C-110.79 126.87, -114.22 131.75, -116.15 134.46 C-118.08 137.18, -120 140.5, -120.16 140.16 C-120.32 139.81, -118.22 135.65, -117.12 132.39 C-116.02 129.13, -114.8 124.9, -113.55 120.57 C-112.3 116.23, -111.15 111.71, -109.62 106.37 C-108.1 101.03, -106.27 94.64, -104.4 88.52 C-102.54 82.4, -100.68 76.4, -98.46 69.65 C-96.23 62.91, -93.3 54.14, -91.05 48.06 C-88.8 41.99, -86.53 36.9, -84.96 33.18 C-83.39 29.46, -82.19 26.97, -81.64 25.73 M0 0 C-0.77 0.49, -2.78 1.48, -4.64 2.92 C-6.5 4.36, -8.94 6.53, -11.16 8.64 C-13.39 10.75, -14.73 12.09, -17.98 15.57 C-21.23 19.05, -26.41 24.73, -30.66 29.52 C-34.92 34.32, -40.39 40.79, -43.5 44.36 C-46.61 47.92, -47.82 49.17, -49.3 50.9 C-50.78 52.64, -52.31 54.05, -52.37 54.76 C-52.44 55.48, -52.24 55.18, -49.7 55.2 C-47.15 55.22, -40.85 54.94, -37.12 54.88 C-33.38 54.82, -29.85 54.8, -27.29 54.84 C-24.74 54.88, -22.41 54.86, -21.79 55.13 C-21.17 55.4, -21.68 55.78, -23.57 56.45 C-25.46 57.12, -29.04 58.05, -33.15 59.13 C-37.26 60.2, -44.19 61.93, -48.21 62.91 C-52.24 63.9, -55.01 64.48, -57.28 65.06 C-59.56 65.64, -60.77 65.84, -61.86 66.39 C-62.95 66.95, -62.75 67.25, -63.81 68.39 C-64.87 69.53, -66.12 70.81, -68.2 73.24 C-70.29 75.68, -74.24 80.53, -76.3 83 C-78.37 85.46, -80.6 87.25, -80.57 88.04 C-80.54 88.82, -78.96 88.16, -76.12 87.73 C-73.28 87.3, -67.1 86.07, -63.54 85.46 C-59.98 84.85, -57.05 84.38, -54.76 84.07 C-52.48 83.77, -50.26 83.46, -49.83 83.63 C-49.39 83.79, -50.01 84.05, -52.17 85.06 C-54.33 86.07, -58.67 87.94, -62.79 89.68 C-66.91 91.42, -73.05 93.87, -76.91 95.48 C-80.77 97.09, -83.69 98.37, -85.93 99.33 C-88.17 100.3, -89.28 100.64, -90.36 101.25 C-91.43 101.86, -91.45 101.95, -92.39 103.02 C-93.32 104.09, -94.21 105.45, -95.96 107.67 C-97.71 109.9, -100.77 113.69, -102.88 116.38 C-104.98 119.08, -106.36 120.84, -108.57 123.85 C-110.79 126.87, -114.22 131.75, -116.15 134.46 C-118.08 137.18, -120 140.5, -120.16 140.16 C-120.32 139.81, -118.22 135.65, -117.12 132.39 C-116.02 129.13, -114.8 124.9, -113.55 120.57 C-112.3 116.23, -111.15 111.71, -109.62 106.37 C-108.1 101.03, -106.27 94.64, -104.4 88.52 C-102.54 82.4, -100.68 76.4, -98.46 69.65 C-96.23 62.91, -93.3 54.14, -91.05 48.06 C-88.8 41.99, -86.53 36.9, -84.96 33.18 C-83.39 29.46, -82.19 26.97, -81.64 25.73" stroke="#E1E1E1" stroke-width="2" fill="none"></path></g></g><mask></mask><g stroke-linecap="round"><g transform="translate(312.33738956071375 207.11222030064482) rotate(0 -75.40835288236076 9.307108230622816)"><path d="M0 0 C-1.38 -0.17, -4.47 -0.75, -8.27 -1.01 C-12.06 -1.26, -17.47 -1.5, -22.76 -1.53 C-28.04 -1.55, -34.33 -1.44, -39.98 -1.17 C-45.63 -0.91, -52.1 -0.36, -56.68 0.04 C-61.27 0.45, -64.24 0.84, -67.47 1.25 C-70.71 1.67, -74.96 1.98, -76.08 2.54 C-77.2 3.09, -75.6 3.51, -74.18 4.59 C-72.76 5.68, -69.87 7.53, -67.54 9.05 C-65.21 10.57, -62.07 12.46, -60.19 13.72 C-58.32 14.98, -57.22 15.9, -56.29 16.62 C-55.35 17.34, -54.37 17.8, -54.56 18.04 C-54.76 18.28, -55.63 18.48, -57.47 18.04 C-59.31 17.6, -62.02 16.6, -65.62 15.39 C-69.21 14.19, -75.1 12.21, -79.04 10.81 C-82.98 9.42, -86.87 7.86, -89.24 7.03 C-91.62 6.2, -92.16 6.02, -93.28 5.83 C-94.41 5.64, -94.29 5.63, -95.99 5.89 C-97.68 6.14, -100.6 6.79, -103.45 7.37 C-106.29 7.95, -109.27 8.52, -113.05 9.38 C-116.84 10.23, -121.8 11.43, -126.18 12.5 C-130.56 13.56, -135.59 14.71, -139.34 15.79 C-143.09 16.87, -146.77 18.26, -148.68 18.99 C-150.59 19.71, -150.46 19.95, -150.82 20.14 M0 0 C-1.38 -0.17, -4.47 -0.75, -8.27 -1.01 C-12.06 -1.26, -17.47 -1.5, -22.76 -1.53 C-28.04 -1.55, -34.33 -1.44, -39.98 -1.17 C-45.63 -0.91, -52.1 -0.36, -56.68 0.04 C-61.27 0.45, -64.24 0.84, -67.47 1.25 C-70.71 1.67, -74.96 1.98, -76.08 2.54 C-77.2 3.09, -75.6 3.51, -74.18 4.59 C-72.76 5.68, -69.87 7.53, -67.54 9.05 C-65.21 10.57, -62.07 12.46, -60.19 13.72 C-58.32 14.98, -57.22 15.9, -56.29 16.62 C-55.35 17.34, -54.37 17.8, -54.56 18.04 C-54.76 18.28, -55.63 18.48, -57.47 18.04 C-59.31 17.6, -62.02 16.6, -65.62 15.39 C-69.21 14.19, -75.1 12.21, -79.04 10.81 C-82.98 9.42, -86.87 7.86, -89.24 7.03 C-91.62 6.2, -92.16 6.02, -93.28 5.83 C-94.41 5.64, -94.29 5.63, -95.99 5.89 C-97.68 6.14, -100.6 6.79, -103.45 7.37 C-106.29 7.95, -109.27 8.52, -113.05 9.38 C-116.84 10.23, -121.8 11.43, -126.18 12.5 C-130.56 13.56, -135.59 14.71, -139.34 15.79 C-143.09 16.87, -146.77 18.26, -148.68 18.99 C-150.59 19.71, -150.46 19.95, -150.82 20.14" stroke="#E1E1E1" stroke-width="2" fill="none"></path></g></g><mask></mask><g stroke-linecap="round"><g transform="translate(163.9998046770604 225.97205345185057) rotate(0 43.221415065821816 -25.103619707712824)"><path d="M0 0 C1.02 -0.74, 3.63 -2.61, 6.14 -4.42 C8.65 -6.23, 11.11 -8.03, 15.07 -10.86 C19.03 -13.68, 25.04 -18.04, 29.91 -21.37 C34.78 -24.7, 39.49 -27.85, 44.27 -30.82 C49.06 -33.8, 54.11 -36.78, 58.63 -39.23 C63.16 -41.67, 67.67 -43.87, 71.42 -45.48 C75.17 -47.08, 78.64 -48.05, 81.15 -48.83 C83.65 -49.62, 85.56 -49.98, 86.44 -50.21 M0 0 C1.02 -0.74, 3.63 -2.61, 6.14 -4.42 C8.65 -6.23, 11.11 -8.03, 15.07 -10.86 C19.03 -13.68, 25.04 -18.04, 29.91 -21.37 C34.78 -24.7, 39.49 -27.85, 44.27 -30.82 C49.06 -33.8, 54.11 -36.78, 58.63 -39.23 C63.16 -41.67, 67.67 -43.87, 71.42 -45.48 C75.17 -47.08, 78.64 -48.05, 81.15 -48.83 C83.65 -49.62, 85.56 -49.98, 86.44 -50.21" stroke="#E1E1E1" stroke-width="2" fill="none"></path></g></g><mask></mask><g stroke-linecap="round"><g transform="translate(236.1703632934466 242.8420434586883) rotate(0 -37.35457559081078 -7.853528944008303)"><path d="M0 0 C-0.53 -0.61, -1.47 -2.39, -3.15 -3.68 C-4.83 -4.98, -7.23 -6.58, -10.06 -7.78 C-12.88 -8.98, -15.96 -9.93, -20.11 -10.87 C-24.26 -11.81, -29.47 -12.75, -34.97 -13.43 C-40.47 -14.1, -47.6 -14.55, -53.09 -14.93 C-58.59 -15.31, -64.34 -15.6, -67.94 -15.71 C-71.55 -15.81, -73.58 -15.6, -74.71 -15.57 M0 0 C-0.53 -0.61, -1.47 -2.39, -3.15 -3.68 C-4.83 -4.98, -7.23 -6.58, -10.06 -7.78 C-12.88 -8.98, -15.96 -9.93, -20.11 -10.87 C-24.26 -11.81, -29.47 -12.75, -34.97 -13.43 C-40.47 -14.1, -47.6 -14.55, -53.09 -14.93 C-58.59 -15.31, -64.34 -15.6, -67.94 -15.71 C-71.55 -15.81, -73.58 -15.6, -74.71 -15.57" stroke="#E1E1E1" stroke-width="2" fill="none"></path></g></g><mask></mask></svg>