<svg version="1.1" xmlns="http://www.w3.org/2000/svg" viewBox="0 0 554.3286645113094 256.5008909182368" width="554.3286645113094" height="256.5008909182368" class="excalidraw-svg"><!-- svg-source:excalidraw --><metadata></metadata><defs><style class="style-fonts">
      </style></defs><rect x="0" y="0" width="554.3286645113094" height="256.5008909182368" fill="#000000"></rect><g stroke-linecap="round"><g transform="translate(217.56926027907684 128.8987919721826) rotate(0 10.195486151497263 -1.9908638857649024)"><path d="M0 0 C2.02 -0.99, 7.37 -3.53, 12.1 -5.95 C16.83 -8.36, 23.88 -12.32, 28.38 -14.51 C32.89 -16.7, 36.47 -17.95, 39.12 -19.1 C41.77 -20.25, 43.92 -20.67, 44.27 -21.42 C44.61 -22.16, 43.06 -23.66, 41.19 -23.57 C39.32 -23.49, 35.91 -21.65, 33.04 -20.89 C30.18 -20.13, 29.2 -20.77, 23.99 -19.03 C18.78 -17.29, 8.66 -13.49, 1.78 -10.45 C-5.1 -7.4, -13.36 -3.16, -17.28 -0.76 C-21.21 1.63, -20.66 1.46, -21.76 3.93 C-22.86 6.41, -23.56 11.47, -23.88 14.07 C-24.19 16.68, -23.68 18.67, -23.64 19.59 M0 0 C2.02 -0.99, 7.37 -3.53, 12.1 -5.95 C16.83 -8.36, 23.88 -12.32, 28.38 -14.51 C32.89 -16.7, 36.47 -17.95, 39.12 -19.1 C41.77 -20.25, 43.92 -20.67, 44.27 -21.42 C44.61 -22.16, 43.06 -23.66, 41.19 -23.57 C39.32 -23.49, 35.91 -21.65, 33.04 -20.89 C30.18 -20.13, 29.2 -20.77, 23.99 -19.03 C18.78 -17.29, 8.66 -13.49, 1.78 -10.45 C-5.1 -7.4, -13.36 -3.16, -17.28 -0.76 C-21.21 1.63, -20.66 1.46, -21.76 3.93 C-22.86 6.41, -23.56 11.47, -23.88 14.07 C-24.19 16.68, -23.68 18.67, -23.64 19.59" stroke="#E1E1E1" stroke-width="4" fill="none"></path></g></g><mask></mask><g stroke-linecap="round"><g transform="translate(194.85605490306352 139.23104267045164) rotate(0 45.99103964821683 -6.859183214697872)"><path d="M0 0 C0.5 0.65, 2.23 2.75, 3.02 3.91 C3.8 5.07, 5.49 6.01, 4.71 6.96 C3.93 7.91, 0.91 8.43, -1.65 9.61 C-4.21 10.79, -8.74 13.38, -10.66 14.04 C-12.59 14.7, -11.65 12.93, -13.2 13.58 C-14.75 14.24, -18.08 16.66, -19.98 17.98 C-21.88 19.31, -23.8 20.33, -24.61 21.55 C-25.42 22.76, -25.22 23.79, -24.83 25.29 C-24.43 26.8, -23.24 29.32, -22.24 30.57 C-21.24 31.81, -21.16 32.92, -18.83 32.79 C-16.5 32.66, -10.56 30.56, -8.25 29.79 C-5.94 29.01, -5.68 28.89, -4.98 28.14 C-4.28 27.4, -5.06 26.16, -4.06 25.31 C-3.06 24.46, -0.47 23.77, 1.02 23.05 C2.51 22.33, 3.79 20.85, 4.9 20.99 C6.02 21.13, 6.19 22.84, 7.71 23.9 C9.23 24.96, 11.65 26.23, 14.01 27.35 C16.37 28.48, 19.94 29.91, 21.86 30.65 C23.79 31.4, 24.28 31.96, 25.57 31.82 C26.85 31.69, 26.39 31.49, 29.59 29.82 C32.8 28.16, 39.91 24.51, 44.79 21.83 C49.68 19.16, 55.51 15.69, 58.92 13.76 C62.34 11.83, 63.27 11.92, 65.28 10.23 C67.29 8.55, 69.73 5.18, 70.97 3.67 C72.21 2.15, 71.07 2.28, 72.71 1.13 C74.36 -0.03, 78.94 -2.07, 80.85 -3.26 C82.76 -4.45, 83.68 -4.94, 84.17 -6.03 C84.66 -7.12, 83.46 -9.43, 83.78 -9.79 C84.09 -10.14, 84.62 -8.8, 86.06 -8.16 C87.49 -7.52, 90.2 -5.8, 92.39 -5.95 C94.58 -6.1, 96.95 -7.6, 99.2 -9.06 C101.46 -10.53, 104.84 -13.19, 105.92 -14.73 C107 -16.28, 106.84 -16.37, 105.67 -18.31 C104.49 -20.24, 99.38 -24.57, 98.88 -26.34 C98.39 -28.1, 101.6 -28.28, 102.69 -28.9 C103.78 -29.52, 104.41 -29.83, 105.44 -30.04 C106.47 -30.24, 107.34 -29.4, 108.89 -30.12 C110.44 -30.84, 113.41 -33.16, 114.73 -34.35 C116.05 -35.53, 116.87 -36.02, 116.81 -37.25 C116.75 -38.47, 115.16 -40.56, 114.37 -41.7 C113.57 -42.84, 113.1 -43.74, 112.04 -44.09 C110.98 -44.44, 109.71 -44.22, 108 -43.8 C106.29 -43.38, 103.05 -42.25, 101.8 -41.55 C100.54 -40.84, 101.25 -40.21, 100.49 -39.57 C99.73 -38.93, 98.54 -38.36, 97.24 -37.69 C95.94 -37.03, 93.88 -35.43, 92.69 -35.59 C91.49 -35.74, 91.27 -37.15, 90.08 -38.64 C88.88 -40.13, 86.67 -43.21, 85.52 -44.52 C84.38 -45.83, 84.21 -46.36, 83.2 -46.51 C82.2 -46.66, 80.89 -46.05, 79.5 -45.41 C78.1 -44.77, 76.1 -43.67, 74.83 -42.66 C73.57 -41.66, 72.59 -40.48, 71.9 -39.4 C71.2 -38.31, 70.89 -37.12, 70.68 -36.14 C70.47 -35.16, 71.33 -34.3, 70.64 -33.51 C69.95 -32.73, 67.22 -31.79, 66.54 -31.45 M0 0 C0.5 0.65, 2.23 2.75, 3.02 3.91 C3.8 5.07, 5.49 6.01, 4.71 6.96 C3.93 7.91, 0.91 8.43, -1.65 9.61 C-4.21 10.79, -8.74 13.38, -10.66 14.04 C-12.59 14.7, -11.65 12.93, -13.2 13.58 C-14.75 14.24, -18.08 16.66, -19.98 17.98 C-21.88 19.31, -23.8 20.33, -24.61 21.55 C-25.42 22.76, -25.22 23.79, -24.83 25.29 C-24.43 26.8, -23.24 29.32, -22.24 30.57 C-21.24 31.81, -21.16 32.92, -18.83 32.79 C-16.5 32.66, -10.56 30.56, -8.25 29.79 C-5.94 29.01, -5.68 28.89, -4.98 28.14 C-4.28 27.4, -5.06 26.16, -4.06 25.31 C-3.06 24.46, -0.47 23.77, 1.02 23.05 C2.51 22.33, 3.79 20.85, 4.9 20.99 C6.02 21.13, 6.19 22.84, 7.71 23.9 C9.23 24.96, 11.65 26.23, 14.01 27.35 C16.37 28.48, 19.94 29.91, 21.86 30.65 C23.79 31.4, 24.28 31.96, 25.57 31.82 C26.85 31.69, 26.39 31.49, 29.59 29.82 C32.8 28.16, 39.91 24.51, 44.79 21.83 C49.68 19.16, 55.51 15.69, 58.92 13.76 C62.34 11.83, 63.27 11.92, 65.28 10.23 C67.29 8.55, 69.73 5.18, 70.97 3.67 C72.21 2.15, 71.07 2.28, 72.71 1.13 C74.36 -0.03, 78.94 -2.07, 80.85 -3.26 C82.76 -4.45, 83.68 -4.94, 84.17 -6.03 C84.66 -7.12, 83.46 -9.43, 83.78 -9.79 C84.09 -10.14, 84.62 -8.8, 86.06 -8.16 C87.49 -7.52, 90.2 -5.8, 92.39 -5.95 C94.58 -6.1, 96.95 -7.6, 99.2 -9.06 C101.46 -10.53, 104.84 -13.19, 105.92 -14.73 C107 -16.28, 106.84 -16.37, 105.67 -18.31 C104.49 -20.24, 99.38 -24.57, 98.88 -26.34 C98.39 -28.1, 101.6 -28.28, 102.69 -28.9 C103.78 -29.52, 104.41 -29.83, 105.44 -30.04 C106.47 -30.24, 107.34 -29.4, 108.89 -30.12 C110.44 -30.84, 113.41 -33.16, 114.73 -34.35 C116.05 -35.53, 116.87 -36.02, 116.81 -37.25 C116.75 -38.47, 115.16 -40.56, 114.37 -41.7 C113.57 -42.84, 113.1 -43.74, 112.04 -44.09 C110.98 -44.44, 109.71 -44.22, 108 -43.8 C106.29 -43.38, 103.05 -42.25, 101.8 -41.55 C100.54 -40.84, 101.25 -40.21, 100.49 -39.57 C99.73 -38.93, 98.54 -38.36, 97.24 -37.69 C95.94 -37.03, 93.88 -35.43, 92.69 -35.59 C91.49 -35.74, 91.27 -37.15, 90.08 -38.64 C88.88 -40.13, 86.67 -43.21, 85.52 -44.52 C84.38 -45.83, 84.21 -46.36, 83.2 -46.51 C82.2 -46.66, 80.89 -46.05, 79.5 -45.41 C78.1 -44.77, 76.1 -43.67, 74.83 -42.66 C73.57 -41.66, 72.59 -40.48, 71.9 -39.4 C71.2 -38.31, 70.89 -37.12, 70.68 -36.14 C70.47 -35.16, 71.33 -34.3, 70.64 -33.51 C69.95 -32.73, 67.22 -31.79, 66.54 -31.45" stroke="#E1E1E1" stroke-width="4" fill="none"></path></g></g><mask></mask><g stroke-linecap="round"><g transform="translate(269.707779766346 97.2136924837298) rotate(0 -0.44425805693174425 4.2911954187768515)"><path d="M0 0 C0.27 0.34, 1.12 1.38, 1.65 2.06 C2.17 2.74, 3.38 3.38, 3.15 4.07 C2.92 4.76, 1.49 5.47, 0.29 6.22 C-0.91 6.97, -3.32 8.19, -4.04 8.58 M0 0 C0.27 0.34, 1.12 1.38, 1.65 2.06 C2.17 2.74, 3.38 3.38, 3.15 4.07 C2.92 4.76, 1.49 5.47, 0.29 6.22 C-0.91 6.97, -3.32 8.19, -4.04 8.58" stroke="#E1E1E1" stroke-width="4" fill="none"></path></g></g><mask></mask><g stroke-linecap="round"><g transform="translate(293.78151558906393 111.67960016809548) rotate(0 6.0280642212332864 -2.9341297946469638)"><path d="M0 0 C0.7 -0.43, 2.73 -1.75, 4.19 -2.57 C5.66 -3.38, 7.64 -4.34, 8.81 -4.89 C9.97 -5.44, 10.66 -6.06, 11.2 -5.87 C11.74 -5.67, 11.91 -4.08, 12.06 -3.73 M0 0 C0.7 -0.43, 2.73 -1.75, 4.19 -2.57 C5.66 -3.38, 7.64 -4.34, 8.81 -4.89 C9.97 -5.44, 10.66 -6.06, 11.2 -5.87 C11.74 -5.67, 11.91 -4.08, 12.06 -3.73" stroke="#E1E1E1" stroke-width="4" fill="none"></path></g></g><mask></mask><g stroke-linecap="round"><g transform="translate(278.734939766332 128.9641812584514) rotate(0 11.269041474162556 -2.876382658104319)"><path d="M0 0 C0.75 -0.48, 2.94 -1.95, 4.52 -2.9 C6.1 -3.86, 8.24 -5.72, 9.47 -5.75 C10.7 -5.79, 11.09 -3.82, 11.91 -3.12 C12.74 -2.42, 13.27 -1.61, 14.41 -1.55 C15.56 -1.49, 17.41 -2.15, 18.76 -2.76 C20.12 -3.37, 21.91 -4.81, 22.54 -5.22 M0 0 C0.75 -0.48, 2.94 -1.95, 4.52 -2.9 C6.1 -3.86, 8.24 -5.72, 9.47 -5.75 C10.7 -5.79, 11.09 -3.82, 11.91 -3.12 C12.74 -2.42, 13.27 -1.61, 14.41 -1.55 C15.56 -1.49, 17.41 -2.15, 18.76 -2.76 C20.12 -3.37, 21.91 -4.81, 22.54 -5.22" stroke="#E1E1E1" stroke-width="4" fill="none"></path></g></g><mask></mask><g stroke-linecap="round"><g transform="translate(285.84611750983186 124.08153180136583) rotate(0 -56.63026908707397 22.68868282229495)"><path d="M0 0 C-1.43 0.75, -5.08 2.67, -8.6 4.52 C-12.12 6.37, -16.86 8.94, -21.11 11.1 C-25.36 13.25, -30 15.5, -34.1 17.44 C-38.2 19.39, -42.6 21.22, -45.73 22.76 C-48.86 24.29, -51.4 26.37, -52.9 26.66 C-54.39 26.96, -54.03 24.69, -54.72 24.53 C-55.4 24.37, -55.26 24.84, -57 25.7 C-58.74 26.56, -62.49 28.44, -65.14 29.69 C-67.79 30.95, -71.2 33.06, -72.88 33.23 C-74.56 33.4, -74.24 31.31, -75.2 30.71 C-76.15 30.11, -77.54 29.96, -78.6 29.61 C-79.66 29.27, -79.78 28.21, -81.55 28.66 C-83.32 29.1, -85.6 30.49, -89.25 32.28 C-92.9 34.06, -99.93 37.58, -103.47 39.36 C-107.02 41.15, -109.28 42, -110.5 42.99 C-111.72 43.98, -110.33 44.92, -110.79 45.32 C-111.25 45.71, -112.85 45.37, -113.26 45.38 M0 0 C-1.43 0.75, -5.08 2.67, -8.6 4.52 C-12.12 6.37, -16.86 8.94, -21.11 11.1 C-25.36 13.25, -30 15.5, -34.1 17.44 C-38.2 19.39, -42.6 21.22, -45.73 22.76 C-48.86 24.29, -51.4 26.37, -52.9 26.66 C-54.39 26.96, -54.03 24.69, -54.72 24.53 C-55.4 24.37, -55.26 24.84, -57 25.7 C-58.74 26.56, -62.49 28.44, -65.14 29.69 C-67.79 30.95, -71.2 33.06, -72.88 33.23 C-74.56 33.4, -74.24 31.31, -75.2 30.71 C-76.15 30.11, -77.54 29.96, -78.6 29.61 C-79.66 29.27, -79.78 28.21, -81.55 28.66 C-83.32 29.1, -85.6 30.49, -89.25 32.28 C-92.9 34.06, -99.93 37.58, -103.47 39.36 C-107.02 41.15, -109.28 42, -110.5 42.99 C-111.72 43.98, -110.33 44.92, -110.79 45.32 C-111.25 45.71, -112.85 45.37, -113.26 45.38" stroke="#E1E1E1" stroke-width="4" fill="none"></path></g></g><mask></mask><g stroke-linecap="round"><g transform="translate(170.923070814556 160.8420085223338) rotate(0 24.123400861374137 -15.171328768169843)"><path d="M0 0 C0.2 0.26, 0.46 1.45, 1.19 1.57 C1.93 1.69, 2.02 1.81, 4.44 0.71 C6.86 -0.4, 12.35 -3.38, 15.71 -5.06 C19.07 -6.73, 22.93 -8.28, 24.6 -9.35 C26.28 -10.42, 24.88 -10.87, 25.77 -11.5 C26.66 -12.13, 28.96 -12.34, 29.95 -13.11 C30.94 -13.89, 31.48 -15.22, 31.73 -16.13 C31.97 -17.04, 31.29 -17.79, 31.4 -18.56 C31.51 -19.32, 30.88 -19.68, 32.39 -20.71 C33.9 -21.75, 37.83 -23.53, 40.47 -24.78 C43.12 -26.02, 47.23 -26.97, 48.25 -28.16 C49.26 -29.35, 46.84 -31.29, 46.56 -31.91 M0 0 C0.2 0.26, 0.46 1.45, 1.19 1.57 C1.93 1.69, 2.02 1.81, 4.44 0.71 C6.86 -0.4, 12.35 -3.38, 15.71 -5.06 C19.07 -6.73, 22.93 -8.28, 24.6 -9.35 C26.28 -10.42, 24.88 -10.87, 25.77 -11.5 C26.66 -12.13, 28.96 -12.34, 29.95 -13.11 C30.94 -13.89, 31.48 -15.22, 31.73 -16.13 C31.97 -17.04, 31.29 -17.79, 31.4 -18.56 C31.51 -19.32, 30.88 -19.68, 32.39 -20.71 C33.9 -21.75, 37.83 -23.53, 40.47 -24.78 C43.12 -26.02, 47.23 -26.97, 48.25 -28.16 C49.26 -29.35, 46.84 -31.29, 46.56 -31.91" stroke="#E1E1E1" stroke-width="4" fill="none"></path></g></g><mask></mask><g stroke-linecap="round"><g transform="translate(247.1936896357829 122.5778752179749) rotate(0 3.582452650354952 5.277993960826706)"><path d="M0 0 C0.45 0.05, 1.81 -0.27, 2.73 0.29 C3.64 0.84, 4.75 2.26, 5.49 3.31 C6.23 4.35, 6.92 5.56, 7.16 6.54 C7.41 7.53, 7.39 8.57, 6.98 9.24 C6.58 9.9, 5.55 10.59, 4.73 10.56 C3.92 10.52, 2.86 10.02, 2.1 9.05 C1.34 8.07, 0.54 6.22, 0.19 4.72 C-0.16 3.21, 0.03 0.79, 0 0 M0 0 C0.45 0.05, 1.81 -0.27, 2.73 0.29 C3.64 0.84, 4.75 2.26, 5.49 3.31 C6.23 4.35, 6.92 5.56, 7.16 6.54 C7.41 7.53, 7.39 8.57, 6.98 9.24 C6.58 9.9, 5.55 10.59, 4.73 10.56 C3.92 10.52, 2.86 10.02, 2.1 9.05 C1.34 8.07, 0.54 6.22, 0.19 4.72 C-0.16 3.21, 0.03 0.79, 0 0" stroke="#E1E1E1" stroke-width="4" fill="none"></path></g></g><mask></mask><g stroke-linecap="round"><g transform="translate(248.76198341366762 121.74485273700861) rotate(0 -0.9317711260756312 11.343412182655882)"><path d="M0 0 C0.44 0.31, 1.81 1.35, 2.65 1.88 C3.49 2.4, 4.39 2.21, 5.04 3.15 C5.69 4.09, 6.31 6.25, 6.55 7.51 C6.79 8.77, 7.26 9.79, 6.48 10.69 C5.7 11.58, 3.35 12.18, 1.88 12.88 C0.41 13.58, -0.8 14.13, -2.33 14.88 C-3.86 15.64, -6.28 16.54, -7.3 17.39 C-8.31 18.23, -8.75 19.07, -8.42 19.96 C-8.08 20.84, -5.8 22.23, -5.27 22.69 M0 0 C0.44 0.31, 1.81 1.35, 2.65 1.88 C3.49 2.4, 4.39 2.21, 5.04 3.15 C5.69 4.09, 6.31 6.25, 6.55 7.51 C6.79 8.77, 7.26 9.79, 6.48 10.69 C5.7 11.58, 3.35 12.18, 1.88 12.88 C0.41 13.58, -0.8 14.13, -2.33 14.88 C-3.86 15.64, -6.28 16.54, -7.3 17.39 C-8.31 18.23, -8.75 19.07, -8.42 19.96 C-8.08 20.84, -5.8 22.23, -5.27 22.69" stroke="#E1E1E1" stroke-width="4" fill="none"></path></g></g><mask></mask><g stroke-linecap="round"><g transform="translate(242.073936573609 126.84322663182638) rotate(0 -10.15700349696894 10.48018088096326)"><path d="M0 0 C0.48 0.89, 1.99 4.09, 2.86 5.34 C3.72 6.6, 4.68 7.57, 5.18 7.52 C5.68 7.47, 5.93 6.32, 5.85 5.06 C5.77 3.81, 5.38 1.26, 4.72 -0.01 C4.05 -1.29, 2.58 -2.78, 1.85 -2.58 C1.13 -2.38, 0.71 -0.3, 0.37 1.2 C0.03 2.71, -0.04 4.95, -0.19 6.44 C-0.34 7.93, 0.02 9.86, -0.53 10.15 C-1.07 10.44, -2.62 9.25, -3.46 8.18 C-4.31 7.11, -5.45 5.03, -5.6 3.74 C-5.74 2.45, -4.98 0.71, -4.35 0.44 C-3.73 0.16, -2.53 1.09, -1.85 2.09 C-1.17 3.09, -0.45 4.68, -0.27 6.45 C-0.1 8.22, -0.34 11.43, -0.8 12.7 C-1.25 13.96, -2.16 13.79, -3.01 14.03 C-3.85 14.28, -4.7 14.75, -5.89 14.18 C-7.07 13.6, -9.09 12, -10.13 10.58 C-11.16 9.15, -12.11 6.72, -12.12 5.62 C-12.12 4.52, -10.92 3.61, -10.14 3.96 C-9.37 4.32, -8.08 6.31, -7.47 7.75 C-6.85 9.2, -6.41 11.17, -6.47 12.62 C-6.53 14.07, -7.05 15.73, -7.83 16.44 C-8.61 17.15, -9.92 17.2, -11.15 16.86 C-12.39 16.52, -14.07 15.66, -15.23 14.41 C-16.38 13.16, -17.67 10.73, -18.06 9.38 C-18.46 8.02, -18.27 6.26, -17.61 6.27 C-16.95 6.27, -14.93 7.63, -14.11 9.4 C-13.3 11.17, -12.41 15.13, -12.73 16.88 C-13.05 18.62, -14.72 19.52, -16.05 19.87 C-17.37 20.21, -19.26 19.99, -20.68 18.94 C-22.1 17.89, -23.92 15.08, -24.58 13.55 C-25.24 12.03, -25.08 10.2, -24.65 9.78 C-24.22 9.37, -22.78 9.8, -22.01 11.06 C-21.23 12.32, -20.2 15.56, -20 17.36 C-19.8 19.15, -20.18 20.81, -20.8 21.84 C-21.42 22.87, -22.83 23.37, -23.72 23.54 C-24.61 23.72, -25.76 23, -26.16 22.89 M0 0 C0.48 0.89, 1.99 4.09, 2.86 5.34 C3.72 6.6, 4.68 7.57, 5.18 7.52 C5.68 7.47, 5.93 6.32, 5.85 5.06 C5.77 3.81, 5.38 1.26, 4.72 -0.01 C4.05 -1.29, 2.58 -2.78, 1.85 -2.58 C1.13 -2.38, 0.71 -0.3, 0.37 1.2 C0.03 2.71, -0.04 4.95, -0.19 6.44 C-0.34 7.93, 0.02 9.86, -0.53 10.15 C-1.07 10.44, -2.62 9.25, -3.46 8.18 C-4.31 7.11, -5.45 5.03, -5.6 3.74 C-5.74 2.45, -4.98 0.71, -4.35 0.44 C-3.73 0.16, -2.53 1.09, -1.85 2.09 C-1.17 3.09, -0.45 4.68, -0.27 6.45 C-0.1 8.22, -0.34 11.43, -0.8 12.7 C-1.25 13.96, -2.16 13.79, -3.01 14.03 C-3.85 14.28, -4.7 14.75, -5.89 14.18 C-7.07 13.6, -9.09 12, -10.13 10.58 C-11.16 9.15, -12.11 6.72, -12.12 5.62 C-12.12 4.52, -10.92 3.61, -10.14 3.96 C-9.37 4.32, -8.08 6.31, -7.47 7.75 C-6.85 9.2, -6.41 11.17, -6.47 12.62 C-6.53 14.07, -7.05 15.73, -7.83 16.44 C-8.61 17.15, -9.92 17.2, -11.15 16.86 C-12.39 16.52, -14.07 15.66, -15.23 14.41 C-16.38 13.16, -17.67 10.73, -18.06 9.38 C-18.46 8.02, -18.27 6.26, -17.61 6.27 C-16.95 6.27, -14.93 7.63, -14.11 9.4 C-13.3 11.17, -12.41 15.13, -12.73 16.88 C-13.05 18.62, -14.72 19.52, -16.05 19.87 C-17.37 20.21, -19.26 19.99, -20.68 18.94 C-22.1 17.89, -23.92 15.08, -24.58 13.55 C-25.24 12.03, -25.08 10.2, -24.65 9.78 C-24.22 9.37, -22.78 9.8, -22.01 11.06 C-21.23 12.32, -20.2 15.56, -20 17.36 C-19.8 19.15, -20.18 20.81, -20.8 21.84 C-21.42 22.87, -22.83 23.37, -23.72 23.54 C-24.61 23.72, -25.76 23, -26.16 22.89" stroke="#3FBF56" stroke-width="4" fill="none"></path></g></g><mask></mask><g stroke-linecap="round"><g transform="translate(216.11308794173328 152.68495491579438) rotate(0 -3.955360592997522 -6.375201128709165)"><path d="M0 0 C0 -0.99, 0.39 -4.21, 0 -5.91 C-0.39 -7.62, -1.46 -9.1, -2.35 -10.24 C-3.23 -11.38, -4.39 -12.45, -5.32 -12.75 C-6.24 -13.06, -7.48 -12.18, -7.91 -12.07 M0 0 C0 -0.99, 0.39 -4.21, 0 -5.91 C-0.39 -7.62, -1.46 -9.1, -2.35 -10.24 C-3.23 -11.38, -4.39 -12.45, -5.32 -12.75 C-6.24 -13.06, -7.48 -12.18, -7.91 -12.07" stroke="#E1E1E1" stroke-width="4" fill="none"></path></g></g><mask></mask><g stroke-linecap="round"><g transform="translate(190.17445714383302 162.55014822156113) rotate(0 37.430048389299714 -8.730276943515243)"><path d="M0 0 C1.48 -0.82, 6.4 -3.69, 8.9 -4.95 C11.41 -6.21, 13.69 -7.39, 15.01 -7.55 C16.34 -7.72, 16.02 -6.95, 16.84 -5.94 C17.66 -4.93, 18.39 -2.54, 19.94 -1.49 C21.49 -0.45, 23.92 -0.32, 26.14 0.32 C28.36 0.95, 30.58 2.79, 33.27 2.32 C35.96 1.85, 37.2 0.2, 42.29 -2.5 C47.38 -5.21, 58.38 -11.02, 63.81 -13.9 C69.24 -16.78, 73.02 -18.8, 74.86 -19.78 M0 0 C1.48 -0.82, 6.4 -3.69, 8.9 -4.95 C11.41 -6.21, 13.69 -7.39, 15.01 -7.55 C16.34 -7.72, 16.02 -6.95, 16.84 -5.94 C17.66 -4.93, 18.39 -2.54, 19.94 -1.49 C21.49 -0.45, 23.92 -0.32, 26.14 0.32 C28.36 0.95, 30.58 2.79, 33.27 2.32 C35.96 1.85, 37.2 0.2, 42.29 -2.5 C47.38 -5.21, 58.38 -11.02, 63.81 -13.9 C69.24 -16.78, 73.02 -18.8, 74.86 -19.78" stroke="#E1E1E1" stroke-width="4" fill="none"></path></g></g><mask></mask><g stroke-linecap="round"><g transform="translate(265.9538354070164 141.40541444124506) rotate(0 6.61396449866043 -4.654476587693054)"><path d="M0 0 C0.01 -0.38, -1.35 -1.07, 0.04 -2.26 C1.43 -3.44, 6.16 -5.92, 8.36 -7.1 C10.55 -8.28, 12.42 -8.94, 13.23 -9.31 M0 0 C0.01 -0.38, -1.35 -1.07, 0.04 -2.26 C1.43 -3.44, 6.16 -5.92, 8.36 -7.1 C10.55 -8.28, 12.42 -8.94, 13.23 -9.31" stroke="#E1E1E1" stroke-width="4" fill="none"></path></g></g><mask></mask><g stroke-linecap="round"><g transform="translate(236.53813805515892 149.9069776461431) rotate(0 14.340821665682654 -8.101345232548233)"><path d="M0 0 C4.78 -2.7, 23.9 -13.5, 28.68 -16.2" stroke="#E1E1E1" stroke-width="4.5" fill="none" stroke-dasharray="1.5 10"></path></g></g><mask></mask><g stroke-linecap="round"><g transform="translate(217.165185597255 128.3050076178081) rotate(0 16.502007684265536 -7.183613260058436)"><path d="M0 0 C5.5 -2.39, 27.5 -11.97, 33 -14.37" stroke="#E1E1E1" stroke-width="4.5" fill="none" stroke-dasharray="1.5 10"></path></g></g><mask></mask><g stroke-linecap="round"><g transform="translate(254.3512773745315 111.20325402464141) rotate(0 -1.6368596982286903 1.6561875895804121)"><path d="M0 0 C0.1 0.29, 0.83 1.21, 0.62 1.76 C0.41 2.31, -0.49 3.39, -1.24 3.31 C-2 3.24, -3.45 1.64, -3.89 1.31 M0 0 C0.1 0.29, 0.83 1.21, 0.62 1.76 C0.41 2.31, -0.49 3.39, -1.24 3.31 C-2 3.24, -3.45 1.64, -3.89 1.31" stroke="#E1E1E1" stroke-width="4" fill="none"></path></g></g><mask></mask><g stroke-linecap="round"><g transform="translate(269.45588574916746 132.4441442307043) rotate(0 -2.2717208184735966 0.23794576291187752)"><path d="M0 0 C-0.35 -0.25, -1.36 -1.38, -2.12 -1.51 C-2.87 -1.63, -4.26 -1.34, -4.54 -0.75 C-4.83 -0.17, -3.96 1.53, -3.84 1.98 M0 0 C-0.35 -0.25, -1.36 -1.38, -2.12 -1.51 C-2.87 -1.63, -4.26 -1.34, -4.54 -0.75 C-4.83 -0.17, -3.96 1.53, -3.84 1.98" stroke="#E1E1E1" stroke-width="4" fill="none"></path></g></g><mask></mask><g stroke-linecap="round"><g transform="translate(202.27493999583203 153.1737968302864) rotate(0 6.001199529691618 -4.945825495460504)"><path d="M0 0 C-0.19 -0.3, -0.96 -0.94, -1.13 -1.8 C-1.3 -2.66, -1.34 -3.82, -1.02 -5.15 C-0.71 -6.47, -0.04 -8.64, 0.77 -9.73 C1.58 -10.82, 2.74 -11.33, 3.81 -11.69 C4.89 -12.05, 6.19 -12.21, 7.21 -11.89 C8.23 -11.57, 9.1 -10.58, 9.93 -9.75 C10.75 -8.92, 11.62 -8.11, 12.15 -6.93 C12.69 -5.76, 13.12 -3.93, 13.13 -2.69 C13.14 -1.45, 12.85 -0.27, 12.2 0.51 C11.55 1.29, 9.74 1.75, 9.25 2 M0 0 C-0.19 -0.3, -0.96 -0.94, -1.13 -1.8 C-1.3 -2.66, -1.34 -3.82, -1.02 -5.15 C-0.71 -6.47, -0.04 -8.64, 0.77 -9.73 C1.58 -10.82, 2.74 -11.33, 3.81 -11.69 C4.89 -12.05, 6.19 -12.21, 7.21 -11.89 C8.23 -11.57, 9.1 -10.58, 9.93 -9.75 C10.75 -8.92, 11.62 -8.11, 12.15 -6.93 C12.69 -5.76, 13.12 -3.93, 13.13 -2.69 C13.14 -1.45, 12.85 -0.27, 12.2 0.51 C11.55 1.29, 9.74 1.75, 9.25 2" stroke="#E1E1E1" stroke-width="4" fill="none"></path></g></g><mask></mask><g stroke-linecap="round"><g transform="translate(394.25008067238196 152.58665376566194) rotate(0 -38.75886251759539 -24.047615994308984)"><path d="M0 0 C-12.92 -8.02, -64.6 -40.08, -77.52 -48.1 M0 0 C-12.92 -8.02, -64.6 -40.08, -77.52 -48.1" stroke="#E1E1E1" stroke-width="4" fill="none"></path></g><g transform="translate(394.25008067238196 152.58665376566194) rotate(0 -38.75886251759539 -24.047615994308984)"><path d="M-53.05 -42.98 C-58.16 -44.05, -63.28 -45.12, -77.52 -48.1 M-53.05 -42.98 C-60.82 -44.6, -68.59 -46.23, -77.52 -48.1" stroke="#E1E1E1" stroke-width="4" fill="none"></path></g><g transform="translate(394.25008067238196 152.58665376566194) rotate(0 -38.75886251759539 -24.047615994308984)"><path d="M-62.06 -28.44 C-65.29 -32.55, -68.53 -36.66, -77.52 -48.1 M-62.06 -28.44 C-66.97 -34.68, -71.88 -40.92, -77.52 -48.1" stroke="#E1E1E1" stroke-width="4" fill="none"></path></g></g><mask></mask><g transform="translate(409.8560082613094 134.67392339354421) rotate(0 67.236328125 23)"><text x="0" y="16.900390625" font-family="Helvetica, Segoe UI Emoji" font-size="20px" fill="#E1E1E1" text-anchor="start" style="white-space: pre;" direction="ltr" dominant-baseline="alphabetic">WASTE GATE </text><text x="0" y="39.900390625" font-family="Helvetica, Segoe UI Emoji" font-size="20px" fill="#E1E1E1" text-anchor="start" style="white-space: pre;" direction="ltr" dominant-baseline="alphabetic">ACTUATOR</text></g><g stroke-linecap="round"><g transform="translate(273.45593399614654 39.81011205660366) rotate(0 0.8643268473431363 27.51313888710615)"><path d="M0 0 C0.29 9.17, 1.44 45.86, 1.73 55.03 M0 0 C0.29 9.17, 1.44 45.86, 1.73 55.03" stroke="#E1E1E1" stroke-width="4" fill="none"></path></g><g transform="translate(273.45593399614654 39.81011205660366) rotate(0 0.8643268473431363 27.51313888710615)"><path d="M-7.56 31.81 C-5.53 36.88, -3.51 41.94, 1.73 55.03 M-7.56 31.81 C-3.88 41.01, -0.2 50.21, 1.73 55.03" stroke="#E1E1E1" stroke-width="4" fill="none"></path></g><g transform="translate(273.45593399614654 39.81011205660366) rotate(0 0.8643268473431363 27.51313888710615)"><path d="M9.54 31.28 C7.83 36.46, 6.13 41.63, 1.73 55.03 M9.54 31.28 C6.44 40.69, 3.35 50.1, 1.73 55.03" stroke="#E1E1E1" stroke-width="4" fill="none"></path></g></g><mask></mask><g transform="translate(242.28611243256728 10) rotate(0 27.7783203125 11.5)"><text x="0" y="16.900390625" font-family="Helvetica, Segoe UI Emoji" font-size="20px" fill="#E1E1E1" text-anchor="start" style="white-space: pre;" direction="ltr" dominant-baseline="alphabetic">STEM</text></g><g stroke-linecap="round"><g transform="translate(176.04343662561814 59.706390953875825) rotate(0 35.83618647735807 24.783867396837394)"><path d="M0 0 C11.95 8.26, 59.73 41.31, 71.67 49.57 M0 0 C11.95 8.26, 59.73 41.31, 71.67 49.57" stroke="#FF9B0F" stroke-width="4" fill="none"></path></g><g transform="translate(176.04343662561814 59.706390953875825) rotate(0 35.83618647735807 24.783867396837394)"><path d="M47.49 43.24 C54.12 44.97, 60.76 46.71, 71.67 49.57 M47.49 43.24 C54.21 45, 60.93 46.76, 71.67 49.57" stroke="#FF9B0F" stroke-width="4" fill="none"></path></g><g transform="translate(176.04343662561814 59.706390953875825) rotate(0 35.83618647735807 24.783867396837394)"><path d="M57.21 29.17 C61.18 34.77, 65.15 40.37, 71.67 49.57 M57.21 29.17 C61.23 34.84, 65.25 40.51, 71.67 49.57" stroke="#FF9B0F" stroke-width="4" fill="none"></path></g></g><mask></mask><g stroke-linecap="round"><g transform="translate(253.76350214570675 110.72470544805219) rotate(0 -0.2136840500834296 1.6792649757605034)"><path d="M0 0 C-0.29 0.36, -1.96 1.6, -1.74 2.16 C-1.52 2.72, 0.8 3.16, 1.31 3.36 M0 0 C-0.29 0.36, -1.96 1.6, -1.74 2.16 C-1.52 2.72, 0.8 3.16, 1.31 3.36" stroke="#FF9B0F" stroke-width="4" fill="none"></path></g></g><mask></mask><g stroke-linecap="round"><g transform="translate(267.06878987746677 130.94091296350575) rotate(0 -0.2136840500834296 1.6792649757605034)"><path d="M0 0 C-0.29 0.36, -1.96 1.6, -1.74 2.16 C-1.52 2.72, 0.8 3.16, 1.31 3.36 M0 0 C-0.29 0.36, -1.96 1.6, -1.74 2.16 C-1.52 2.72, 0.8 3.16, 1.31 3.36" stroke="#FF9B0F" stroke-width="4" fill="none"></path></g></g><mask></mask><g stroke-linecap="round"><g transform="translate(95.20822498885218 92.45071683608603) rotate(0 57.73452291335866 15.95920962852992)"><path d="M0 0 C19.24 5.32, 96.22 26.6, 115.47 31.92 M0 0 C19.24 5.32, 96.22 26.6, 115.47 31.92" stroke="#E1E1E1" stroke-width="4" fill="none"></path></g><g transform="translate(95.20822498885218 92.45071683608603) rotate(0 57.73452291335866 15.95920962852992)"><path d="M90.55 33.9 C98.43 33.27, 106.31 32.65, 115.47 31.92 M90.55 33.9 C98.24 33.29, 105.93 32.68, 115.47 31.92" stroke="#E1E1E1" stroke-width="4" fill="none"></path></g><g transform="translate(95.20822498885218 92.45071683608603) rotate(0 57.73452291335866 15.95920962852992)"><path d="M95.1 17.42 C101.55 22, 107.99 26.59, 115.47 31.92 M95.1 17.42 C101.39 21.89, 107.67 26.37, 115.47 31.92" stroke="#E1E1E1" stroke-width="4" fill="none"></path></g></g><mask></mask><g transform="translate(29.668526858607493 84.08056964093066) rotate(0 28.33984375 11.5)"><text x="0" y="16.900390625" font-family="Helvetica, Segoe UI Emoji" font-size="20px" fill="#E1E1E1" text-anchor="start" style="white-space: pre;" direction="ltr" dominant-baseline="alphabetic">BODY</text></g><g transform="translate(10 174.9069910571891) rotate(0 42.783203125 23)"><text x="0" y="16.900390625" font-family="Helvetica, Segoe UI Emoji" font-size="20px" fill="#E1E1E1" text-anchor="start" style="white-space: pre;" direction="ltr" dominant-baseline="alphabetic">BOOST </text><text x="0" y="39.900390625" font-family="Helvetica, Segoe UI Emoji" font-size="20px" fill="#E1E1E1" text-anchor="start" style="white-space: pre;" direction="ltr" dominant-baseline="alphabetic">SOURCE</text></g><g stroke-linecap="round" transform="translate(202.212251612194 140.48926594969612) rotate(0 6.320663050724534 6.374136187426018)"><path d="M12.64 6.37 C12.64 6.74, 12.61 7.12, 12.55 7.48 C12.48 7.84, 12.39 8.21, 12.26 8.55 C12.14 8.9, 11.98 9.24, 11.79 9.56 C11.61 9.88, 11.4 10.19, 11.16 10.47 C10.93 10.75, 10.66 11.02, 10.38 11.26 C10.1 11.49, 9.8 11.71, 9.48 11.89 C9.16 12.08, 8.83 12.24, 8.48 12.36 C8.14 12.49, 7.78 12.59, 7.42 12.65 C7.06 12.72, 6.69 12.75, 6.32 12.75 C5.95 12.75, 5.58 12.72, 5.22 12.65 C4.86 12.59, 4.5 12.49, 4.16 12.36 C3.82 12.24, 3.48 12.08, 3.16 11.89 C2.84 11.71, 2.54 11.49, 2.26 11.26 C1.98 11.02, 1.71 10.75, 1.48 10.47 C1.24 10.19, 1.03 9.88, 0.85 9.56 C0.66 9.24, 0.51 8.9, 0.38 8.55 C0.26 8.21, 0.16 7.84, 0.1 7.48 C0.03 7.12, 0 6.74, 0 6.37 C0 6.01, 0.03 5.63, 0.1 5.27 C0.16 4.9, 0.26 4.54, 0.38 4.19 C0.51 3.85, 0.66 3.51, 0.85 3.19 C1.03 2.87, 1.24 2.56, 1.48 2.28 C1.71 1.99, 1.98 1.73, 2.26 1.49 C2.54 1.25, 2.84 1.04, 3.16 0.85 C3.48 0.67, 3.82 0.51, 4.16 0.38 C4.5 0.26, 4.86 0.16, 5.22 0.1 C5.58 0.03, 5.95 0, 6.32 0 C6.69 0, 7.06 0.03, 7.42 0.1 C7.78 0.16, 8.14 0.26, 8.48 0.38 C8.83 0.51, 9.16 0.67, 9.48 0.85 C9.8 1.04, 10.1 1.25, 10.38 1.49 C10.66 1.73, 10.93 1.99, 11.16 2.28 C11.4 2.56, 11.61 2.87, 11.79 3.19 C11.98 3.51, 12.14 3.85, 12.26 4.19 C12.39 4.54, 12.48 4.9, 12.55 5.27 C12.61 5.63, 12.63 6.19, 12.64 6.37 C12.66 6.56, 12.66 6.19, 12.64 6.37" stroke="none" stroke-width="0" fill="#350541"></path><path d="M12.64 6.37 C12.64 6.74, 12.61 7.12, 12.55 7.48 C12.48 7.84, 12.39 8.21, 12.26 8.55 C12.14 8.9, 11.98 9.24, 11.79 9.56 C11.61 9.88, 11.4 10.19, 11.16 10.47 C10.93 10.75, 10.66 11.02, 10.38 11.26 C10.1 11.49, 9.8 11.71, 9.48 11.89 C9.16 12.08, 8.83 12.24, 8.48 12.36 C8.14 12.49, 7.78 12.59, 7.42 12.65 C7.06 12.72, 6.69 12.75, 6.32 12.75 C5.95 12.75, 5.58 12.72, 5.22 12.65 C4.86 12.59, 4.5 12.49, 4.16 12.36 C3.82 12.24, 3.48 12.08, 3.16 11.89 C2.84 11.71, 2.54 11.49, 2.26 11.26 C1.98 11.02, 1.71 10.75, 1.48 10.47 C1.24 10.19, 1.03 9.88, 0.85 9.56 C0.66 9.24, 0.51 8.9, 0.38 8.55 C0.26 8.21, 0.16 7.84, 0.1 7.48 C0.03 7.12, 0 6.74, 0 6.37 C0 6.01, 0.03 5.63, 0.1 5.27 C0.16 4.9, 0.26 4.54, 0.38 4.19 C0.51 3.85, 0.66 3.51, 0.85 3.19 C1.03 2.87, 1.24 2.56, 1.48 2.28 C1.71 1.99, 1.98 1.73, 2.26 1.49 C2.54 1.25, 2.84 1.04, 3.16 0.85 C3.48 0.67, 3.82 0.51, 4.16 0.38 C4.5 0.26, 4.86 0.16, 5.22 0.1 C5.58 0.03, 5.95 0, 6.32 0 C6.69 0, 7.06 0.03, 7.42 0.1 C7.78 0.16, 8.14 0.26, 8.48 0.38 C8.83 0.51, 9.16 0.67, 9.48 0.85 C9.8 1.04, 10.1 1.25, 10.38 1.49 C10.66 1.73, 10.93 1.99, 11.16 2.28 C11.4 2.56, 11.61 2.87, 11.79 3.19 C11.98 3.51, 12.14 3.85, 12.26 4.19 C12.39 4.54, 12.48 4.9, 12.55 5.27 C12.61 5.63, 12.63 6.19, 12.64 6.37 C12.66 6.56, 12.66 6.19, 12.64 6.37" stroke="#350541" stroke-width="4" fill="none"></path></g><g stroke-linecap="round"><g transform="translate(210.16960752377418 190.13769045118647) rotate(0 -0.3964387720980085 -16.140128752872698)"><path d="M0 0 C-0.13 -5.38, -0.66 -26.9, -0.79 -32.28 M0 0 C-0.13 -5.38, -0.66 -26.9, -0.79 -32.28" stroke="#350541" stroke-width="4" fill="none"></path></g></g><mask></mask><g stroke-linecap="round"><g transform="translate(205.20167653900535 163.25821975230292) rotate(0 1.9805804468830956 -2.866114029674293)"><path d="M0 0 C0.66 -0.96, 3.3 -4.78, 3.96 -5.73 M0 0 C0.66 -0.96, 3.3 -4.78, 3.96 -5.73" stroke="#350541" stroke-width="4" fill="none"></path></g></g><mask></mask><g stroke-linecap="round"><g transform="translate(214.85772649149249 162.7594444599656) rotate(0 -2.6270983281244753 -2.577543481612196)"><path d="M0 0 C-0.88 -0.86, -4.38 -4.3, -5.25 -5.16 M0 0 C-0.88 -0.86, -4.38 -4.3, -5.25 -5.16" stroke="#350541" stroke-width="4" fill="none"></path></g></g><mask></mask><g transform="translate(180.96002233738272 194.54074943371847) rotate(0 46.11328125 23)"><text x="0" y="16.900390625" font-family="Helvetica, Segoe UI Emoji" font-size="20px" fill="#350541" text-anchor="start" style="white-space: pre;" direction="ltr" dominant-baseline="alphabetic">CERAMIC</text><text x="0" y="39.900390625" font-family="Helvetica, Segoe UI Emoji" font-size="20px" fill="#350541" text-anchor="start" style="white-space: pre;" direction="ltr" dominant-baseline="alphabetic">BALL</text></g><g stroke-linecap="round"><g transform="translate(319.66282311071245 212.46271567727877) rotate(0 -34.53254539010095 -31.982463779593218)"><path d="M0 0 C-11.21 -10.66, -55.73 -54.04, -67.24 -63.96 C-78.75 -73.89, -68.76 -60.29, -69.07 -59.55 M0 0 C-11.21 -10.66, -55.73 -54.04, -67.24 -63.96 C-78.75 -73.89, -68.76 -60.29, -69.07 -59.55" stroke="#3FBF56" stroke-width="4" fill="none"></path></g></g><mask></mask><g stroke-linecap="round"><g transform="translate(247.1259000931068 144.28341868837208) rotate(0 4.750012131479707 1.5073333781000713)"><path d="M0 0 C1.58 0.5, 7.92 2.51, 9.5 3.01 M0 0 C1.58 0.5, 7.92 2.51, 9.5 3.01" stroke="#3FBF56" stroke-width="4" fill="none"></path></g></g><mask></mask><g transform="translate(318.62709634363637 223.5008909182368) rotate(0 38.33984375 11.5)"><text x="0" y="16.900390625" font-family="Helvetica, Segoe UI Emoji" font-size="20px" fill="#3FBF56" text-anchor="start" style="white-space: pre;" direction="ltr" dominant-baseline="alphabetic">SPRING</text></g><g transform="translate(98.48051704346335 30.5784484445752) rotate(0 36.1083984375 11.5)"><text x="0" y="16.900390625" font-family="Helvetica, Segoe UI Emoji" font-size="20px" fill="#FF9B0F" text-anchor="start" style="white-space: pre;" direction="ltr" dominant-baseline="alphabetic">O-RING</text></g><g stroke-linecap="round" transform="translate(171.4339834497764 162.53223257447826) rotate(0 2.2815067979040577 3.027291729318307)"><path d="M4.56 3.03 C4.56 3.2, 4.55 3.38, 4.53 3.55 C4.51 3.73, 4.47 3.9, 4.43 4.06 C4.38 4.23, 4.32 4.39, 4.26 4.54 C4.19 4.69, 4.11 4.84, 4.03 4.97 C3.94 5.11, 3.85 5.23, 3.75 5.35 C3.65 5.46, 3.54 5.56, 3.42 5.65 C3.31 5.74, 3.19 5.81, 3.06 5.87 C2.94 5.93, 2.81 5.98, 2.68 6.01 C2.55 6.04, 2.41 6.05, 2.28 6.05 C2.15 6.05, 2.02 6.04, 1.89 6.01 C1.76 5.98, 1.63 5.93, 1.5 5.87 C1.38 5.81, 1.26 5.74, 1.14 5.65 C1.03 5.56, 0.92 5.46, 0.81 5.35 C0.71 5.23, 0.62 5.11, 0.53 4.97 C0.45 4.84, 0.37 4.69, 0.31 4.54 C0.24 4.39, 0.18 4.23, 0.14 4.06 C0.09 3.9, 0.06 3.73, 0.03 3.55 C0.01 3.38, 0 3.2, 0 3.03 C0 2.85, 0.01 2.67, 0.03 2.5 C0.06 2.33, 0.09 2.16, 0.14 1.99 C0.18 1.83, 0.24 1.67, 0.31 1.51 C0.37 1.36, 0.45 1.22, 0.53 1.08 C0.62 0.95, 0.71 0.82, 0.81 0.71 C0.92 0.6, 1.03 0.49, 1.14 0.41 C1.26 0.32, 1.38 0.24, 1.5 0.18 C1.63 0.12, 1.76 0.08, 1.89 0.05 C2.02 0.02, 2.15 0, 2.28 0 C2.41 0, 2.55 0.02, 2.68 0.05 C2.81 0.08, 2.94 0.12, 3.06 0.18 C3.19 0.24, 3.31 0.32, 3.42 0.41 C3.54 0.49, 3.65 0.6, 3.75 0.71 C3.85 0.82, 3.94 0.95, 4.03 1.08 C4.11 1.22, 4.19 1.36, 4.26 1.51 C4.32 1.67, 4.38 1.83, 4.43 1.99 C4.47 2.16, 4.51 2.33, 4.53 2.5 C4.55 2.67, 4.56 2.94, 4.56 3.03 C4.57 3.11, 4.57 2.94, 4.56 3.03" stroke="none" stroke-width="0" fill="#0D4D16"></path><path d="M4.56 3.03 C4.56 3.2, 4.55 3.38, 4.53 3.55 C4.51 3.73, 4.47 3.9, 4.43 4.06 C4.38 4.23, 4.32 4.39, 4.26 4.54 C4.19 4.69, 4.11 4.84, 4.03 4.97 C3.94 5.11, 3.85 5.23, 3.75 5.35 C3.65 5.46, 3.54 5.56, 3.42 5.65 C3.31 5.74, 3.19 5.81, 3.06 5.87 C2.94 5.93, 2.81 5.98, 2.68 6.01 C2.55 6.04, 2.41 6.05, 2.28 6.05 C2.15 6.05, 2.02 6.04, 1.89 6.01 C1.76 5.98, 1.63 5.93, 1.5 5.87 C1.38 5.81, 1.26 5.74, 1.14 5.65 C1.03 5.56, 0.92 5.46, 0.81 5.35 C0.71 5.23, 0.62 5.11, 0.53 4.97 C0.45 4.84, 0.37 4.69, 0.31 4.54 C0.24 4.39, 0.18 4.23, 0.14 4.06 C0.09 3.9, 0.06 3.73, 0.03 3.55 C0.01 3.38, 0 3.2, 0 3.03 C0 2.85, 0.01 2.67, 0.03 2.5 C0.06 2.33, 0.09 2.16, 0.14 1.99 C0.18 1.83, 0.24 1.67, 0.31 1.51 C0.37 1.36, 0.45 1.22, 0.53 1.08 C0.62 0.95, 0.71 0.82, 0.81 0.71 C0.92 0.6, 1.03 0.49, 1.14 0.41 C1.26 0.32, 1.38 0.24, 1.5 0.18 C1.63 0.12, 1.76 0.08, 1.89 0.05 C2.02 0.02, 2.15 0, 2.28 0 C2.41 0, 2.55 0.02, 2.68 0.05 C2.81 0.08, 2.94 0.12, 3.06 0.18 C3.19 0.24, 3.31 0.32, 3.42 0.41 C3.54 0.49, 3.65 0.6, 3.75 0.71 C3.85 0.82, 3.94 0.95, 4.03 1.08 C4.11 1.22, 4.19 1.36, 4.26 1.51 C4.32 1.67, 4.38 1.83, 4.43 1.99 C4.47 2.16, 4.51 2.33, 4.53 2.5 C4.55 2.67, 4.56 2.94, 4.56 3.03 C4.57 3.11, 4.57 2.94, 4.56 3.03" stroke="#00335A" stroke-width="4" fill="none"></path></g><g stroke-linecap="round"><g transform="translate(98.19913215893621 195.3820498467985) rotate(0 33.333301963257554 -12.564794073663649)"><path d="M0 0 C11.11 -4.19, 55.56 -20.94, 66.67 -25.13 M0 0 C11.11 -4.19, 55.56 -20.94, 66.67 -25.13" stroke="#00335A" stroke-width="4" fill="none"></path></g></g><mask></mask><g stroke-linecap="round"><g transform="translate(161.82898074595232 177.8015514463808) rotate(0 1.7099986825237465 -3.3095964262156485)"><path d="M0 0 C0.57 -1.1, 2.85 -5.52, 3.42 -6.62 M0 0 C0.57 -1.1, 2.85 -5.52, 3.42 -6.62" stroke="#00335A" stroke-width="4" fill="none"></path></g></g><mask></mask><g stroke-linecap="round"><g transform="translate(157.03553734010666 169.30602898155576) rotate(0 4.039118048452565 0.25046909030140796)"><path d="M0 0 C1.35 0.08, 6.73 0.42, 8.08 0.5 M0 0 C1.35 0.08, 6.73 0.42, 8.08 0.5" stroke="#00335A" stroke-width="4" fill="none"></path></g></g><mask></mask></svg>