<svg version="1.1" xmlns="http://www.w3.org/2000/svg" viewBox="0 0 503.85315884355805 371.24013720495543" width="503.85315884355805" height="371.24013720495543" class="excalidraw-svg"><!-- svg-source:excalidraw --><metadata></metadata><defs><style class="style-fonts">
      </style></defs><rect x="0" y="0" width="503.85315884355805" height="371.24013720495543" fill="#000000"></rect><g transform="translate(10 160.30982611324134) rotate(0 61.60919952392578 9.812480941597308)"><text x="0" y="14.420413992466289" font-family="Helvetica, Segoe UI Emoji" font-size="17.065184246256187px" fill="#FF5252" text-anchor="start" style="white-space: pre;" direction="ltr" dominant-baseline="alphabetic">COOLANT OUT</text></g><g stroke-linecap="round"><g transform="translate(240.13377110912506 163.1373573495457) rotate(0 -21.077088639556692 76.50798628243912)"><path d="M0 0 C-2.78 0.58, -12.3 -0.41, -16.69 3.49 C-21.07 7.39, -23.17 14.55, -26.32 23.41 C-29.47 32.26, -32.94 42.61, -35.58 56.63 C-38.22 70.64, -41.59 91.44, -42.15 107.51 C-42.71 123.57, -39.47 145.43, -38.94 153.02 M0 0 C-2.78 0.58, -12.3 -0.41, -16.69 3.49 C-21.07 7.39, -23.17 14.55, -26.32 23.41 C-29.47 32.26, -32.94 42.61, -35.58 56.63 C-38.22 70.64, -41.59 91.44, -42.15 107.51 C-42.71 123.57, -39.47 145.43, -38.94 153.02" stroke="#E1E1E1" stroke-width="4" fill="none"></path></g></g><mask></mask><g stroke-linecap="round"><g transform="translate(240.02647580959592 163.46925747609066) rotate(0 10.361149424556487 18.932613252961964)"><path d="M0 0 C-0.3 2.12, -1.61 9.5, -1.8 12.71 C-2 15.93, -2.22 17.72, -1.17 19.31 C-0.12 20.89, 2.3 21.26, 4.49 22.23 C6.68 23.2, 10.65 23.59, 11.99 25.13 C13.33 26.68, 11.92 29.37, 12.52 31.49 C13.13 33.61, 13.96 37.66, 15.62 37.87 C17.29 38.07, 21.44 35.01, 22.52 32.71 C23.61 30.41, 22.73 26.63, 22.14 24.07 C21.56 21.52, 20.72 18.13, 19.04 17.39 C17.36 16.65, 13.31 18.23, 12.08 19.62 C10.84 21.01, 11.72 24.71, 11.65 25.72 M0 0 C-0.3 2.12, -1.61 9.5, -1.8 12.71 C-2 15.93, -2.22 17.72, -1.17 19.31 C-0.12 20.89, 2.3 21.26, 4.49 22.23 C6.68 23.2, 10.65 23.59, 11.99 25.13 C13.33 26.68, 11.92 29.37, 12.52 31.49 C13.13 33.61, 13.96 37.66, 15.62 37.87 C17.29 38.07, 21.44 35.01, 22.52 32.71 C23.61 30.41, 22.73 26.63, 22.14 24.07 C21.56 21.52, 20.72 18.13, 19.04 17.39 C17.36 16.65, 13.31 18.23, 12.08 19.62 C10.84 21.01, 11.72 24.71, 11.65 25.72" stroke="#E1E1E1" stroke-width="4" fill="none"></path></g></g><mask></mask><g stroke-linecap="round"><g transform="translate(255.822865291374 137.1673527452731) rotate(33.00602582143719 26.664456682761223 -12.773376058963493)"><path d="M0 0 C5.29 -2.54, 22.83 -11, 31.72 -15.26 C40.61 -19.51, 49.73 -23.83, 53.33 -25.55 M0 0 C5.29 -2.54, 22.83 -11, 31.72 -15.26 C40.61 -19.51, 49.73 -23.83, 53.33 -25.55" stroke="#E1E1E1" stroke-width="4" fill="none"></path></g></g><mask></mask><g stroke-linecap="round"><g transform="translate(313.2169601528167 144.88995754061443) rotate(33.00602582143719 27.276988454408045 -11.415187382380083)"><path d="M0 0 C-0.01 -0.45, -0.98 -1.76, -0.06 -2.73 C0.87 -3.7, 3.54 -5.17, 5.53 -5.82 C7.53 -6.47, 6.47 -4.53, 11.9 -6.64 C17.33 -8.75, 32.79 -15.81, 38.13 -18.48 C43.48 -21.14, 41.75 -21.31, 43.97 -22.63 C46.18 -23.96, 49.66 -26.74, 51.43 -26.42 C53.21 -26.11, 54.13 -22.69, 54.61 -20.75 C55.09 -18.81, 55.44 -16.36, 54.3 -14.78 C53.17 -13.21, 50.1 -12.13, 47.81 -11.28 C45.52 -10.44, 43.53 -10.7, 40.58 -9.69 C37.62 -8.67, 35.07 -7.41, 30.09 -5.2 C25.11 -2.99, 13.93 2.13, 10.7 3.59 M0 0 C-0.01 -0.45, -0.98 -1.76, -0.06 -2.73 C0.87 -3.7, 3.54 -5.17, 5.53 -5.82 C7.53 -6.47, 6.47 -4.53, 11.9 -6.64 C17.33 -8.75, 32.79 -15.81, 38.13 -18.48 C43.48 -21.14, 41.75 -21.31, 43.97 -22.63 C46.18 -23.96, 49.66 -26.74, 51.43 -26.42 C53.21 -26.11, 54.13 -22.69, 54.61 -20.75 C55.09 -18.81, 55.44 -16.36, 54.3 -14.78 C53.17 -13.21, 50.1 -12.13, 47.81 -11.28 C45.52 -10.44, 43.53 -10.7, 40.58 -9.69 C37.62 -8.67, 35.07 -7.41, 30.09 -5.2 C25.11 -2.99, 13.93 2.13, 10.7 3.59" stroke="#E1E1E1" stroke-width="4" fill="none"></path></g></g><mask></mask><g stroke-linecap="round"><g transform="translate(314.72468628045044 118.24416103384829) rotate(33.00602582143719 -30.385323678023404 13.951592048020416)"><path d="M0 0 C0 0.35, 0.91 1.33, 0 2.09 C-0.91 2.84, -3.53 4.14, -5.44 4.55 C-7.36 4.96, -5.74 2.17, -11.51 4.54 C-17.28 6.91, -31.86 14.88, -40.07 18.78 C-48.28 22.67, -57.32 26.38, -60.77 27.9 M0 0 C0 0.35, 0.91 1.33, 0 2.09 C-0.91 2.84, -3.53 4.14, -5.44 4.55 C-7.36 4.96, -5.74 2.17, -11.51 4.54 C-17.28 6.91, -31.86 14.88, -40.07 18.78 C-48.28 22.67, -57.32 26.38, -60.77 27.9" stroke="#E1E1E1" stroke-width="4" fill="none"></path></g></g><mask></mask><g stroke-linecap="round"><g transform="translate(246.89143775227922 126.66095097108405) rotate(33.00602582143719 2.0862777486812476 7.150107965399613)"><path d="M0 0 C0.7 1.66, 3.58 7.57, 4.17 9.95 C4.77 12.34, 3.68 13.58, 3.58 14.3 M0 0 C0.7 1.66, 3.58 7.57, 4.17 9.95 C4.77 12.34, 3.68 13.58, 3.58 14.3" stroke="#E1E1E1" stroke-width="4" fill="none"></path></g></g><mask></mask><g stroke-linecap="round"><g transform="translate(254.41565377462211 125.33198071292475) rotate(33.00602582143719 -29.946518253338112 -5.687683480639308)"><path d="M0 0 C0.26 0.71, 1.65 2.57, 1.57 4.26 C1.49 5.95, 0.67 8.38, -0.47 10.14 C-1.62 11.9, -3.88 14.78, -5.33 14.82 C-6.77 14.86, -7.62 10.61, -9.16 10.38 C-10.71 10.14, -12.83 12.36, -14.6 13.42 C-16.37 14.47, -19.31 15.25, -19.78 16.69 C-20.24 18.12, -16.84 20.89, -17.4 22.03 C-17.96 23.17, -21.8 24.22, -23.14 23.53 C-24.48 22.83, -23.88 18.37, -25.44 17.87 C-27.01 17.37, -29.87 19.36, -32.53 20.55 C-35.2 21.74, -39.11 25.62, -41.44 24.99 C-43.77 24.36, -44.71 19.9, -46.52 16.75 C-48.33 13.59, -50.25 10.37, -52.29 6.04 C-54.32 1.72, -57.19 -5.28, -58.72 -9.19 C-60.25 -13.1, -62.32 -15.29, -61.46 -17.44 C-60.6 -19.59, -56.23 -20.72, -53.55 -22.08 C-50.86 -23.45, -46.55 -24.02, -45.36 -25.63 C-44.16 -27.25, -47.18 -30.49, -46.39 -31.76 C-45.61 -33.04, -42.08 -33.93, -40.67 -33.3 C-39.27 -32.67, -39.82 -28.31, -37.97 -28 C-36.11 -27.69, -32.84 -30.06, -29.56 -31.46 C-26.28 -32.85, -20.86 -36.35, -18.29 -36.36 C-15.71 -36.38, -16.15 -34.27, -14.12 -31.53 C-12.09 -28.79, -7.45 -21.86, -6.11 -19.93 M0 0 C0.26 0.71, 1.65 2.57, 1.57 4.26 C1.49 5.95, 0.67 8.38, -0.47 10.14 C-1.62 11.9, -3.88 14.78, -5.33 14.82 C-6.77 14.86, -7.62 10.61, -9.16 10.38 C-10.71 10.14, -12.83 12.36, -14.6 13.42 C-16.37 14.47, -19.31 15.25, -19.78 16.69 C-20.24 18.12, -16.84 20.89, -17.4 22.03 C-17.96 23.17, -21.8 24.22, -23.14 23.53 C-24.48 22.83, -23.88 18.37, -25.44 17.87 C-27.01 17.37, -29.87 19.36, -32.53 20.55 C-35.2 21.74, -39.11 25.62, -41.44 24.99 C-43.77 24.36, -44.71 19.9, -46.52 16.75 C-48.33 13.59, -50.25 10.37, -52.29 6.04 C-54.32 1.72, -57.19 -5.28, -58.72 -9.19 C-60.25 -13.1, -62.32 -15.29, -61.46 -17.44 C-60.6 -19.59, -56.23 -20.72, -53.55 -22.08 C-50.86 -23.45, -46.55 -24.02, -45.36 -25.63 C-44.16 -27.25, -47.18 -30.49, -46.39 -31.76 C-45.61 -33.04, -42.08 -33.93, -40.67 -33.3 C-39.27 -32.67, -39.82 -28.31, -37.97 -28 C-36.11 -27.69, -32.84 -30.06, -29.56 -31.46 C-26.28 -32.85, -20.86 -36.35, -18.29 -36.36 C-15.71 -36.38, -16.15 -34.27, -14.12 -31.53 C-12.09 -28.79, -7.45 -21.86, -6.11 -19.93" stroke="#E1E1E1" stroke-width="4" fill="none"></path></g></g><mask></mask><g stroke-linecap="round"><g transform="translate(207.91463382354596 96.28237688391255) rotate(33.00602582143719 10.026788935839932 21.352328244837494)"><path d="M0 0 C3.34 7.12, 16.71 35.59, 20.05 42.7" stroke="#E1E1E1" stroke-width="4.5" fill="none" stroke-dasharray="8 12"></path></g></g><mask></mask><g stroke-linecap="round"><g transform="translate(216.7275586594451 98.33457580627942) rotate(33.00602582143719 10.026788935839932 21.352328244837494)"><path d="M0 0 C3.34 7.12, 16.71 35.59, 20.05 42.7" stroke="#E1E1E1" stroke-width="4.5" fill="none" stroke-dasharray="8 12"></path></g></g><mask></mask><g stroke-linecap="round"><g transform="translate(279.2648320406224 175.880929704035) rotate(0 38.68080148207172 -62.50462436907412)"><path d="M0 0 C0.44 -7.48, 1.16 -33.18, 2.64 -44.91 C4.11 -56.63, 4.64 -62.07, 8.86 -70.35 C13.07 -78.64, 20.85 -87.86, 27.92 -94.64 C34.99 -101.42, 43.06 -105.98, 51.3 -111.04 C59.54 -116.11, 73.02 -122.68, 77.36 -125.01 M0 0 C0.44 -7.48, 1.16 -33.18, 2.64 -44.91 C4.11 -56.63, 4.64 -62.07, 8.86 -70.35 C13.07 -78.64, 20.85 -87.86, 27.92 -94.64 C34.99 -101.42, 43.06 -105.98, 51.3 -111.04 C59.54 -116.11, 73.02 -122.68, 77.36 -125.01" stroke="#0D694E" stroke-width="4" fill="none"></path></g></g><mask></mask><g stroke-linecap="round"><g transform="translate(294.6120667191526 175.66976316054115) rotate(0 33.43963442247199 -55.461144135710725)"><path d="M0 0 C-0.09 -5.84, -1.97 -23.98, -0.54 -35.03 C0.89 -46.08, 3.58 -56.93, 8.61 -66.32 C13.63 -75.72, 21.46 -84.54, 29.6 -91.41 C37.74 -98.28, 51.13 -104.28, 57.43 -107.53 C63.73 -110.78, 65.75 -110.36, 67.42 -110.92 M0 0 C-0.09 -5.84, -1.97 -23.98, -0.54 -35.03 C0.89 -46.08, 3.58 -56.93, 8.61 -66.32 C13.63 -75.72, 21.46 -84.54, 29.6 -91.41 C37.74 -98.28, 51.13 -104.28, 57.43 -107.53 C63.73 -110.78, 65.75 -110.36, 67.42 -110.92" stroke="#0D694E" stroke-width="4" fill="none"></path></g></g><mask></mask><g stroke-linecap="round"><g transform="translate(155.3862611204222 310.9075606641716) rotate(0 66.62341391292928 -32.760487099901255)"><path d="M0 0 C0.51 4.36, 0.98 19.48, 3.08 26.18 C5.18 32.89, 7.82 37.59, 12.62 40.24 C17.41 42.9, 24.8 45.14, 31.85 42.12 C38.89 39.11, 46.52 34.12, 54.9 22.13 C63.28 10.15, 73.46 -11.82, 82.11 -29.77 C90.75 -47.71, 100.03 -73, 106.78 -85.55 C113.54 -98.09, 118.24 -101.36, 122.65 -105.04 C127.07 -108.73, 131.48 -107.21, 133.25 -107.65 M0 0 C0.51 4.36, 0.98 19.48, 3.08 26.18 C5.18 32.89, 7.82 37.59, 12.62 40.24 C17.41 42.9, 24.8 45.14, 31.85 42.12 C38.89 39.11, 46.52 34.12, 54.9 22.13 C63.28 10.15, 73.46 -11.82, 82.11 -29.77 C90.75 -47.71, 100.03 -73, 106.78 -85.55 C113.54 -98.09, 118.24 -101.36, 122.65 -105.04 C127.07 -108.73, 131.48 -107.21, 133.25 -107.65" stroke="#00335A" stroke-width="4" fill="none"></path></g></g><mask></mask><g stroke-linecap="round"><g transform="translate(299.20703723378756 187.07472702171094) rotate(0 -10.002670891220276 7.819540604418442)"><path d="M0 0 C0.34 1.92, 2.41 8.76, 2.02 11.55 C1.62 14.34, -0.42 15.9, -2.37 16.74 C-4.31 17.58, -8.62 18.17, -9.65 16.6 C-10.68 15.02, -8.32 9.99, -8.53 7.29 C-8.73 4.6, -8.62 1.8, -10.87 0.4 C-13.12 -1, -20.17 -0.85, -22.02 -1.1 M0 0 C0.34 1.92, 2.41 8.76, 2.02 11.55 C1.62 14.34, -0.42 15.9, -2.37 16.74 C-4.31 17.58, -8.62 18.17, -9.65 16.6 C-10.68 15.02, -8.32 9.99, -8.53 7.29 C-8.73 4.6, -8.62 1.8, -10.87 0.4 C-13.12 -1, -20.17 -0.85, -22.02 -1.1" stroke="#E1E1E1" stroke-width="4" fill="none"></path></g></g><mask></mask><g stroke-linecap="round"><g transform="translate(269.16905907910404 194.73429062260254) rotate(0 10.275260105688886 5.103798058140413)"><path d="M0 0 C1.11 0.52, 5.08 1.53, 6.67 3.14 C8.26 4.74, 8.04 9.04, 9.54 9.64 C11.04 10.25, 13.84 6.68, 15.67 6.78 C17.51 6.87, 19.74 9.64, 20.55 10.21 M0 0 C1.11 0.52, 5.08 1.53, 6.67 3.14 C8.26 4.74, 8.04 9.04, 9.54 9.64 C11.04 10.25, 13.84 6.68, 15.67 6.78 C17.51 6.87, 19.74 9.64, 20.55 10.21" stroke="#E1E1E1" stroke-width="4" fill="none"></path></g></g><mask></mask><g stroke-linecap="round"><g transform="translate(261.8139834305448 182.083057860302) rotate(0 4.730196173771368 2.820621729858807)"><path d="M0 0 C0.71 -0.09, 2.67 -1.55, 4.24 -0.52 C5.82 0.5, 8.59 5.05, 9.46 6.17 M0 0 C0.71 -0.09, 2.67 -1.55, 4.24 -0.52 C5.82 0.5, 8.59 5.05, 9.46 6.17" stroke="#E1E1E1" stroke-width="4" fill="none"></path></g></g><mask></mask><g stroke-linecap="round"><g transform="translate(278.367765299432 187.10999267473903) rotate(0 -51.027830982997415 75.34578546172098)"><path d="M0 0 C-2.22 1.44, -8.88 3.43, -13.32 8.65 C-17.76 13.86, -21.84 22.49, -26.65 31.28 C-31.45 40.06, -36.67 50.04, -42.14 61.35 C-47.61 72.65, -54.24 88.06, -59.49 99.11 C-64.75 110.16, -68.63 119.69, -73.66 127.64 C-78.69 135.59, -85.45 142.99, -89.67 146.83 C-93.89 150.67, -96.89 151.43, -98.96 150.69 C-101.02 149.96, -101.66 147.48, -102.06 142.43 C-102.46 137.37, -101.47 124.06, -101.36 120.38 M0 0 C-2.22 1.44, -8.88 3.43, -13.32 8.65 C-17.76 13.86, -21.84 22.49, -26.65 31.28 C-31.45 40.06, -36.67 50.04, -42.14 61.35 C-47.61 72.65, -54.24 88.06, -59.49 99.11 C-64.75 110.16, -68.63 119.69, -73.66 127.64 C-78.69 135.59, -85.45 142.99, -89.67 146.83 C-93.89 150.67, -96.89 151.43, -98.96 150.69 C-101.02 149.96, -101.66 147.48, -102.06 142.43 C-102.46 137.37, -101.47 124.06, -101.36 120.38" stroke="#00335A" stroke-width="4" fill="none"></path></g></g><mask></mask><g stroke-linecap="round"><g transform="translate(270.0805896792608 194.0789165537725) rotate(0 5.285524201119927 -3.3740165003667)"><path d="M0 0 C1.76 -1.12, 8.81 -5.62, 10.57 -6.75 M0 0 C1.76 -1.12, 8.81 -5.62, 10.57 -6.75" stroke="#E1E1E1" stroke-width="4" fill="none"></path></g></g><mask></mask><g stroke-linecap="round"><g transform="translate(276.877920729421 177.88402400337645) rotate(0 11.544443221283153 2.428170591297743)"><path d="M0 0 C1.38 0.17, 5.18 1.04, 8.26 1.05 C11.34 1.06, 15.96 0.83, 18.5 0.07 C21.03 -0.68, 22.83 -4.82, 23.5 -3.48 C24.17 -2.14, 24.72 6.14, 22.51 8.11 C20.29 10.07, 14.02 8.48, 10.2 8.34 C6.38 8.19, 1.29 8.61, -0.41 7.22 C-2.11 5.83, -0.07 1.2, 0 0 M0 0 C1.38 0.17, 5.18 1.04, 8.26 1.05 C11.34 1.06, 15.96 0.83, 18.5 0.07 C21.03 -0.68, 22.83 -4.82, 23.5 -3.48 C24.17 -2.14, 24.72 6.14, 22.51 8.11 C20.29 10.07, 14.02 8.48, 10.2 8.34 C6.38 8.19, 1.29 8.61, -0.41 7.22 C-2.11 5.83, -0.07 1.2, 0 0" stroke="#E1E1E1" stroke-width="4" fill="none"></path></g></g><mask></mask><g stroke-linecap="round"><g transform="translate(295.1926294051045 226.76159006584385) rotate(0 -14.928126005851851 6.214937427048184)"><path d="M0 0 C-0.32 -1.26, -0.26 -6.09, -1.94 -7.54 C-3.62 -9, -7.38 -8.67, -10.09 -8.74 C-12.8 -8.81, -15.99 -8.85, -18.21 -7.95 C-20.44 -7.04, -22.48 -5.58, -23.44 -3.3 C-24.41 -1.01, -23.51 3.05, -23.98 5.76 C-24.46 8.48, -25.32 10.42, -26.3 12.98 C-27.28 15.55, -29.26 19.8, -29.86 21.17 M0 0 C-0.32 -1.26, -0.26 -6.09, -1.94 -7.54 C-3.62 -9, -7.38 -8.67, -10.09 -8.74 C-12.8 -8.81, -15.99 -8.85, -18.21 -7.95 C-20.44 -7.04, -22.48 -5.58, -23.44 -3.3 C-24.41 -1.01, -23.51 3.05, -23.98 5.76 C-24.46 8.48, -25.32 10.42, -26.3 12.98 C-27.28 15.55, -29.26 19.8, -29.86 21.17" stroke="#E1E1E1" stroke-width="4" fill="none"></path></g></g><mask></mask><g stroke-linecap="round"><g transform="translate(261.3345357341768 234.8281042315985) rotate(0 6.3985968268683635 30.79678146446264)"><path d="M0 0 C-0.06 2.49, -0.34 10.03, -0.38 14.92 C-0.43 19.81, -0.51 24.56, -0.27 29.33 C-0.02 34.09, 0.54 39.18, 1.08 43.51 C1.61 47.84, 1.99 52.29, 2.93 55.3 C3.88 58.32, 5.35 61.66, 6.73 61.59 C8.11 61.53, 10.14 57.54, 11.21 54.93 C12.29 52.31, 12.85 47.41, 13.18 45.91 M0 0 C-0.06 2.49, -0.34 10.03, -0.38 14.92 C-0.43 19.81, -0.51 24.56, -0.27 29.33 C-0.02 34.09, 0.54 39.18, 1.08 43.51 C1.61 47.84, 1.99 52.29, 2.93 55.3 C3.88 58.32, 5.35 61.66, 6.73 61.59 C8.11 61.53, 10.14 57.54, 11.21 54.93 C12.29 52.31, 12.85 47.41, 13.18 45.91" stroke="#E1E1E1" stroke-width="4" fill="none"></path></g></g><mask></mask><g stroke-linecap="round"><g transform="translate(279.6328117267158 274.42603746109387) rotate(0 3.766950953139414 7.22941395394586)"><path d="M0 0 C-0.59 0.32, -2.91 0.49, -3.56 1.89 C-4.21 3.3, -4.66 6.35, -3.89 8.44 C-3.12 10.54, -0.91 13.81, 1.07 14.46 C3.04 15.11, 6.26 13.5, 7.99 12.32 C9.71 11.15, 10.85 8.24, 11.42 7.42 M0 0 C-0.59 0.32, -2.91 0.49, -3.56 1.89 C-4.21 3.3, -4.66 6.35, -3.89 8.44 C-3.12 10.54, -0.91 13.81, 1.07 14.46 C3.04 15.11, 6.26 13.5, 7.99 12.32 C9.71 11.15, 10.85 8.24, 11.42 7.42" stroke="#E1E1E1" stroke-width="4" fill="none"></path></g></g><mask></mask><g stroke-linecap="round"><g transform="translate(290.81090277678004 281.0658080787778) rotate(0 -5.819586403226452 -3.5876413812102346)"><path d="M0 0 C0.01 -0.73, 0.99 -3.19, 0.03 -4.39 C-0.93 -5.58, -3.8 -6.84, -5.75 -7.18 C-7.7 -7.51, -10.68 -6.55, -11.67 -6.43 M0 0 C0.01 -0.73, 0.99 -3.19, 0.03 -4.39 C-0.93 -5.58, -3.8 -6.84, -5.75 -7.18 C-7.7 -7.51, -10.68 -6.55, -11.67 -6.43" stroke="#E1E1E1" stroke-width="4" fill="none"></path></g></g><mask></mask><g stroke-linecap="round"><g transform="translate(268.60744796702784 251.95482657897298) rotate(0 50.079568502877144 -118.8962623010064)"><path d="M0 0 C6.49 -5.2, 26.45 -19.3, 38.92 -31.2 C51.38 -43.1, 66.35 -59.9, 74.79 -71.39 C83.23 -82.87, 85.66 -89.93, 89.56 -100.11 C93.46 -110.29, 96.43 -121.03, 98.19 -132.46 C99.96 -143.89, 99.89 -156.6, 100.16 -168.7 C100.43 -180.81, 100.21 -193.55, 99.82 -205.07 C99.43 -216.58, 98.15 -232.34, 97.82 -237.79 M0 0 C6.49 -5.2, 26.45 -19.3, 38.92 -31.2 C51.38 -43.1, 66.35 -59.9, 74.79 -71.39 C83.23 -82.87, 85.66 -89.93, 89.56 -100.11 C93.46 -110.29, 96.43 -121.03, 98.19 -132.46 C99.96 -143.89, 99.89 -156.6, 100.16 -168.7 C100.43 -180.81, 100.21 -193.55, 99.82 -205.07 C99.43 -216.58, 98.15 -232.34, 97.82 -237.79" stroke="#770000" stroke-width="4" fill="none"></path></g></g><mask></mask><g stroke-linecap="round"><g transform="translate(402.4371527302096 10) rotate(0 -60.64433382038764 130.4672878038439)"><path d="M0 0 C0.11 10.73, 1.88 45.15, 0.65 64.4 C-0.57 83.65, -4 99.59, -7.36 115.5 C-10.73 131.42, -14.68 146.99, -19.54 159.89 C-24.39 172.78, -30.16 183.14, -36.48 192.87 C-42.79 202.59, -49.14 210.09, -57.44 218.25 C-65.75 226.42, -77.29 235.23, -86.31 241.87 C-95.34 248.52, -105.64 254.96, -111.58 258.14 C-117.52 261.32, -120.21 260.47, -121.94 260.93 M0 0 C0.11 10.73, 1.88 45.15, 0.65 64.4 C-0.57 83.65, -4 99.59, -7.36 115.5 C-10.73 131.42, -14.68 146.99, -19.54 159.89 C-24.39 172.78, -30.16 183.14, -36.48 192.87 C-42.79 202.59, -49.14 210.09, -57.44 218.25 C-65.75 226.42, -77.29 235.23, -86.31 241.87 C-95.34 248.52, -105.64 254.96, -111.58 258.14 C-117.52 261.32, -120.21 260.47, -121.94 260.93" stroke="#770000" stroke-width="4" fill="none"></path></g></g><mask></mask><g stroke-linecap="round"><g transform="translate(268.62577208617677 252.07817267908575) rotate(0 9.748056334054965 10.115735077939906)"><path d="M0 0 C0.06 1.39, -0.48 5.48, 0.33 8.31 C1.14 11.14, 2.95 15.04, 4.86 16.99 C6.76 18.95, 9.32 19.5, 11.76 20.04 C14.19 20.58, 18.21 20.2, 19.5 20.23 M0 0 C0.06 1.39, -0.48 5.48, 0.33 8.31 C1.14 11.14, 2.95 15.04, 4.86 16.99 C6.76 18.95, 9.32 19.5, 11.76 20.04 C14.19 20.58, 18.21 20.2, 19.5 20.23" stroke="#FFFFFF" stroke-width="4" fill="none"></path></g></g><mask></mask><g stroke-linecap="round"><g transform="translate(295.3334498685758 227.02961886526964) rotate(0 -4.180500287787389 3.667999705965908)"><path d="M0 0 C-1.39 1.22, -7.44 7.13, -8.36 7.34 C-9.28 7.55, -6.01 2.28, -5.54 1.26 M0 0 C-1.39 1.22, -7.44 7.13, -8.36 7.34 C-9.28 7.55, -6.01 2.28, -5.54 1.26" stroke="#FFFFFF" stroke-width="4" fill="none"></path></g></g><mask></mask><g stroke-linecap="round"><g transform="translate(289.1932851475576 228.69928811331283) rotate(0 -10.523837393093373 9.666154663572215)"><path d="M0 0 C-0.68 -0.47, -2.11 -2.46, -4.07 -2.79 C-6.02 -3.12, -9.7 -2.96, -11.73 -2 C-13.76 -1.03, -15.64 1.13, -16.26 3 C-16.88 4.87, -16.32 7.54, -15.44 9.21 C-14.57 10.87, -10.65 11.74, -11.02 12.99 C-11.4 14.23, -16.01 15.16, -17.68 16.69 C-19.35 18.21, -20.49 21.22, -21.05 22.12 M0 0 C-0.68 -0.47, -2.11 -2.46, -4.07 -2.79 C-6.02 -3.12, -9.7 -2.96, -11.73 -2 C-13.76 -1.03, -15.64 1.13, -16.26 3 C-16.88 4.87, -16.32 7.54, -15.44 9.21 C-14.57 10.87, -10.65 11.74, -11.02 12.99 C-11.4 14.23, -16.01 15.16, -17.68 16.69 C-19.35 18.21, -20.49 21.22, -21.05 22.12" stroke="#FFFFFF" stroke-width="4" fill="none"></path></g></g><mask></mask><g stroke-linecap="round"><g transform="translate(281.8531839238899 207.1003503862902) rotate(0 11.292488589730233 2.6950209401642624)"><path d="M0 0 C1.27 0, 4.75 0.14, 7.63 0 C10.5 -0.14, 14.73 -0.35, 17.25 -0.86 C19.77 -1.37, 21.86 -3.81, 22.73 -3.07 C23.6 -2.33, 23.63 1.71, 22.45 3.56 C21.27 5.4, 18.36 7.46, 15.63 8 C12.91 8.54, 8.72 6.72, 6.09 6.79 C3.46 6.87, 0.89 8.18, -0.15 8.46 M0 0 C1.27 0, 4.75 0.14, 7.63 0 C10.5 -0.14, 14.73 -0.35, 17.25 -0.86 C19.77 -1.37, 21.86 -3.81, 22.73 -3.07 C23.6 -2.33, 23.63 1.71, 22.45 3.56 C21.27 5.4, 18.36 7.46, 15.63 8 C12.91 8.54, 8.72 6.72, 6.09 6.79 C3.46 6.87, 0.89 8.18, -0.15 8.46" stroke="#FFFFFF" stroke-width="4" fill="none"></path></g></g><mask></mask><g stroke-linecap="round"><g transform="translate(281.40523766408023 215.62275236025846) rotate(0 -1.6210514238184501 -4.273439955831456)"><path d="M0 0 C-0.82 0, -4.34 1.04, -4.94 0 C-5.55 -1.04, -4.74 -4.79, -3.63 -6.22 C-2.53 -7.64, 0.81 -8.16, 1.7 -8.55 M0 0 C-0.82 0, -4.34 1.04, -4.94 0 C-5.55 -1.04, -4.74 -4.79, -3.63 -6.22 C-2.53 -7.64, 0.81 -8.16, 1.7 -8.55" stroke="#FFFFFF" stroke-width="4" fill="none"></path></g></g><mask></mask><g stroke-linecap="round"><g transform="translate(299.340701219066 174.10409587621473) rotate(0 5.440334986314053 -5.056590497130443)"><path d="M0 0 C-0.26 -0.44, -1.23 -1.46, -1.54 -2.63 C-1.85 -3.79, -2.25 -5.76, -1.85 -6.99 C-1.45 -8.23, 0.11 -9.23, 0.84 -10.03 C1.58 -10.83, 1.31 -11.52, 2.56 -11.79 C3.82 -12.05, 6.67 -12.74, 8.37 -11.62 C10.06 -10.51, 12.6 -7.22, 12.73 -5.07 C12.86 -2.93, 10.97 0.13, 9.15 1.25 C7.33 2.37, 3.04 1.6, 1.82 1.67 M0 0 C-0.26 -0.44, -1.23 -1.46, -1.54 -2.63 C-1.85 -3.79, -2.25 -5.76, -1.85 -6.99 C-1.45 -8.23, 0.11 -9.23, 0.84 -10.03 C1.58 -10.83, 1.31 -11.52, 2.56 -11.79 C3.82 -12.05, 6.67 -12.74, 8.37 -11.62 C10.06 -10.51, 12.6 -7.22, 12.73 -5.07 C12.86 -2.93, 10.97 0.13, 9.15 1.25 C7.33 2.37, 3.04 1.6, 1.82 1.67" stroke="#FFFFFF" stroke-width="4" fill="none"></path></g></g><mask></mask><g stroke-linecap="round"><g transform="translate(295.6645563414604 166.85709269241738) rotate(0 9.692870863702474 2.4063213989326684)"><path d="M0 0 C0.71 -0.91, 2.6 -4.35, 4.24 -5.46 C5.88 -6.57, 7.89 -6.91, 9.85 -6.66 C11.81 -6.41, 14.4 -5.6, 15.99 -3.97 C17.58 -2.34, 19.21 1.02, 19.39 3.15 C19.56 5.27, 18.23 7.44, 17.03 8.79 C15.82 10.14, 13.91 10.8, 12.18 11.25 C10.45 11.7, 7.8 11.51, 6.64 11.47 C5.48 11.43, 5.44 11.09, 5.2 11.01 M0 0 C0.71 -0.91, 2.6 -4.35, 4.24 -5.46 C5.88 -6.57, 7.89 -6.91, 9.85 -6.66 C11.81 -6.41, 14.4 -5.6, 15.99 -3.97 C17.58 -2.34, 19.21 1.02, 19.39 3.15 C19.56 5.27, 18.23 7.44, 17.03 8.79 C15.82 10.14, 13.91 10.8, 12.18 11.25 C10.45 11.7, 7.8 11.51, 6.64 11.47 C5.48 11.43, 5.44 11.09, 5.2 11.01" stroke="#FFFFFF" stroke-width="4" fill="none"></path></g></g><mask></mask><g stroke-linecap="round"><g transform="translate(268.8224482199612 165.26354281600015) rotate(0 2.446173049787987 7.174448923477577)"><path d="M0 0 C-0.17 0.35, -0.88 0.55, -1.05 2.1 C-1.21 3.65, -1.24 7.33, -0.98 9.32 C-0.73 11.31, -0.5 13.2, 0.46 14.06 C1.43 14.92, 3.87 14.99, 4.78 14.47 C5.7 13.94, 5.78 12.79, 5.94 10.9 C6.09 9.02, 5.93 4.98, 5.71 3.14 C5.49 1.31, 5.57 0.4, 4.61 -0.12 C3.66 -0.64, 0.77 -0.02, 0 0 M0 0 C-0.17 0.35, -0.88 0.55, -1.05 2.1 C-1.21 3.65, -1.24 7.33, -0.98 9.32 C-0.73 11.31, -0.5 13.2, 0.46 14.06 C1.43 14.92, 3.87 14.99, 4.78 14.47 C5.7 13.94, 5.78 12.79, 5.94 10.9 C6.09 9.02, 5.93 4.98, 5.71 3.14 C5.49 1.31, 5.57 0.4, 4.61 -0.12 C3.66 -0.64, 0.77 -0.02, 0 0" stroke="#FFFFFF" stroke-width="4" fill="none"></path></g></g><mask></mask><g stroke-linecap="round"><g transform="translate(268.4641605888737 165.35011933095564) rotate(0 -2.2171704376850556 0)"><path d="M0 0 C-0.74 0, -3.7 0, -4.43 0 M0 0 C-0.74 0, -3.7 0, -4.43 0" stroke="#FFFFFF" stroke-width="4" fill="none"></path></g></g><mask></mask><g stroke-linecap="round"><g transform="translate(268.7664053866192 165.704928441353) rotate(0 -6.919357406198344 -6.017454291696836)"><path d="M0 0 C0 -0.85, 0.08 -3.55, 0 -5.11 C-0.08 -6.68, 0.24 -8.22, -0.51 -9.37 C-1.26 -10.52, -3.13 -11.68, -4.5 -12.03 C-5.87 -12.39, -7.71 -12.16, -8.73 -11.52 C-9.75 -10.88, -9.78 -8.63, -10.63 -8.2 C-11.49 -7.76, -13.3 -8.79, -13.84 -8.91 M0 0 C0 -0.85, 0.08 -3.55, 0 -5.11 C-0.08 -6.68, 0.24 -8.22, -0.51 -9.37 C-1.26 -10.52, -3.13 -11.68, -4.5 -12.03 C-5.87 -12.39, -7.71 -12.16, -8.73 -11.52 C-9.75 -10.88, -9.78 -8.63, -10.63 -8.2 C-11.49 -7.76, -13.3 -8.79, -13.84 -8.91" stroke="#FFFFFF" stroke-width="4" fill="none"></path></g></g><mask></mask><g stroke-linecap="round"><g transform="translate(253.4145340739983 181.34281145516593) rotate(0 1.3458010047972593 -26.702864078096965)"><path d="M0 0 C0.21 -1.43, 0.81 -5.79, 1.26 -8.6 C1.7 -11.41, 2.78 -14.32, 2.69 -16.87 C2.6 -19.41, 1.15 -20.88, 0.72 -23.88 C0.28 -26.88, 0.1 -31.38, 0.09 -34.87 C0.07 -38.35, 0.44 -41.73, 0.62 -44.82 C0.79 -47.91, 1.07 -51.97, 1.16 -53.41 M0 0 C0.21 -1.43, 0.81 -5.79, 1.26 -8.6 C1.7 -11.41, 2.78 -14.32, 2.69 -16.87 C2.6 -19.41, 1.15 -20.88, 0.72 -23.88 C0.28 -26.88, 0.1 -31.38, 0.09 -34.87 C0.07 -38.35, 0.44 -41.73, 0.62 -44.82 C0.79 -47.91, 1.07 -51.97, 1.16 -53.41" stroke="#FFFFFF" stroke-width="4" fill="none"></path></g></g><mask></mask><g stroke-linecap="round"><g transform="translate(240.28195896170564 149.42390560215892) rotate(0 -0.213349268997149 6.90525007228824)"><path d="M0 0 C-0.03 1.45, -0.11 6.37, -0.18 8.67 C-0.25 10.97, -0.39 12.95, -0.43 13.81 M0 0 C-0.03 1.45, -0.11 6.37, -0.18 8.67 C-0.25 10.97, -0.39 12.95, -0.43 13.81" stroke="#FFFFFF" stroke-width="4" fill="none"></path></g></g><mask></mask><g stroke-linecap="round"><g transform="translate(267.57829731977836 174.92030275421257) rotate(0 -3.3751313252131396 0.06299987472200996)"><path d="M0 0 C-1.13 0.02, -5.63 0.1, -6.75 0.13 M0 0 C-1.13 0.02, -5.63 0.1, -6.75 0.13" stroke="#FFFFFF" stroke-width="4" fill="none"></path></g></g><mask></mask><g stroke-linecap="round"><g transform="translate(261.7227874913242 178.0764805270943) rotate(0 -0.028214667820300576 0.5474805064030335)"><path d="M0 0 C-0.01 0.18, -0.05 0.91, -0.06 1.09 M0 0 C-0.01 0.18, -0.05 0.91, -0.06 1.09" stroke="#FFFFFF" stroke-width="4" fill="none"></path></g></g><mask></mask><g stroke-linecap="round"><g transform="translate(269.8856258018636 180.59715747997188) rotate(0 0 2.517986967701397)"><path d="M0 0 C0 0.84, 0 4.2, 0 5.04 M0 0 C0 0.84, 0 4.2, 0 5.04" stroke="#FFFFFF" stroke-width="4" fill="none"></path></g></g><mask></mask><g stroke-linecap="round"><g transform="translate(214.08289807992696 329.3786619855763) rotate(0 22.574125800416127 -33.01964107463578)"><path d="M0 0 C1.96 0.45, 6.94 2.2, 11.74 2.71 C16.54 3.23, 23.25 3.3, 28.81 3.08 C34.37 2.87, 42.39 3.16, 45.11 1.44 C47.83 -0.29, 46.29 -0.07, 45.15 -7.26 C44.01 -14.45, 39.95 -32.74, 38.26 -41.7 C36.57 -50.66, 35.42 -56.45, 34.99 -61.02 C34.55 -65.59, 35.23 -67.82, 35.65 -69.12 C36.07 -70.43, 37.2 -68.89, 37.51 -68.85 M0 0 C1.96 0.45, 6.94 2.2, 11.74 2.71 C16.54 3.23, 23.25 3.3, 28.81 3.08 C34.37 2.87, 42.39 3.16, 45.11 1.44 C47.83 -0.29, 46.29 -0.07, 45.15 -7.26 C44.01 -14.45, 39.95 -32.74, 38.26 -41.7 C36.57 -50.66, 35.42 -56.45, 34.99 -61.02 C34.55 -65.59, 35.23 -67.82, 35.65 -69.12 C36.07 -70.43, 37.2 -68.89, 37.51 -68.85" stroke="#FFFFFF" stroke-width="4" fill="none"></path></g></g><mask></mask><g stroke-linecap="round"><g transform="translate(251.15446609484252 274.1113566507687) rotate(0 -0.3043072999973262 -3.9954963283296046)"><path d="M0 0 C-0.1 -1.33, -0.51 -6.66, -0.61 -7.99 M0 0 C-0.1 -1.33, -0.51 -6.66, -0.61 -7.99" stroke="#FFFFFF" stroke-width="4" fill="none"></path></g></g><mask></mask><g stroke-linecap="round"><g transform="translate(250.4693566653159 266.3770187773489) rotate(0 4.593660815000078 -3.484276784515508)"><path d="M0 0 C0.17 -0.78, 0.8 -3.62, 1.05 -4.7 C1.29 -5.77, 0.8 -6.07, 1.46 -6.45 C2.12 -6.82, 4.05 -7.02, 5.01 -6.97 C5.98 -6.92, 6.55 -6.86, 7.25 -6.15 C7.94 -5.43, 8.86 -3.25, 9.19 -2.68 M0 0 C0.17 -0.78, 0.8 -3.62, 1.05 -4.7 C1.29 -5.77, 0.8 -6.07, 1.46 -6.45 C2.12 -6.82, 4.05 -7.02, 5.01 -6.97 C5.98 -6.92, 6.55 -6.86, 7.25 -6.15 C7.94 -5.43, 8.86 -3.25, 9.19 -2.68" stroke="#FFFFFF" stroke-width="4" fill="none"></path></g></g><mask></mask><g stroke-linecap="round"><g transform="translate(257.05167404588883 260.1316130503444) rotate(0 -0.24286063365152444 8.173451635297742)"><path d="M0 0 C-0.22 0.98, -1.2 3.76, -1.31 5.88 C-1.42 8.01, -1.02 11.01, -0.66 12.76 C-0.31 14.5, 0.57 15.75, 0.82 16.35 M0 0 C-0.22 0.98, -1.2 3.76, -1.31 5.88 C-1.42 8.01, -1.02 11.01, -0.66 12.76 C-0.31 14.5, 0.57 15.75, 0.82 16.35" stroke="#FFFFFF" stroke-width="4" fill="none"></path></g></g><mask></mask><g stroke-linecap="round"><g transform="translate(258.007232408243 276.4555260716269) rotate(0 0.8391440999238782 -6.339665749187784)"><path d="M0 0 C0.15 -0.22, 0.61 -0.46, 0.89 -1.31 C1.17 -2.17, 1.59 -4.25, 1.68 -5.15 C1.77 -6.05, 1.54 -6, 1.42 -6.72 C1.3 -7.45, 0.92 -8.51, 0.95 -9.5 C0.97 -10.49, 1.46 -12.15, 1.56 -12.68 M0 0 C0.15 -0.22, 0.61 -0.46, 0.89 -1.31 C1.17 -2.17, 1.59 -4.25, 1.68 -5.15 C1.77 -6.05, 1.54 -6, 1.42 -6.72 C1.3 -7.45, 0.92 -8.51, 0.95 -9.5 C0.97 -10.49, 1.46 -12.15, 1.56 -12.68" stroke="#FFFFFF" stroke-width="4" fill="none"></path></g></g><mask></mask><g stroke-linecap="round"><g transform="translate(256.2867257505659 274.82489038853714) rotate(0 -2.4984130935215774 -0.0652087071423324)"><path d="M0 0 C-0.83 -0.02, -4.16 -0.11, -5 -0.13 M0 0 C-0.83 -0.02, -4.16 -0.11, -5 -0.13" stroke="#FFFFFF" stroke-width="4" fill="none"></path></g></g><mask></mask><g stroke-linecap="round"><g transform="translate(257.5173310956102 276.69128062821807) rotate(0 -3.2211429310152155 -1.0567154593311976)"><path d="M0 0 C-0.62 -0.01, -2.78 -0.04, -3.71 -0.05 C-4.65 -0.07, -5.15 0.26, -5.6 -0.08 C-6.05 -0.42, -6.3 -1.77, -6.44 -2.11 M0 0 C-0.62 -0.01, -2.78 -0.04, -3.71 -0.05 C-4.65 -0.07, -5.15 0.26, -5.6 -0.08 C-6.05 -0.42, -6.3 -1.77, -6.44 -2.11" stroke="#FFFFFF" stroke-width="4" fill="none"></path></g></g><mask></mask><g stroke-linecap="round"><g transform="translate(255.30817713889883 277.48674325444733) rotate(0 3.012349666799949 14.722119650967166)"><path d="M0 0 C0.08 1.99, -0.07 8.32, 0.45 11.92 C0.97 15.52, 2.19 18.67, 3.12 21.59 C4.05 24.52, 5.54 28.14, 6.02 29.44 M0 0 C0.08 1.99, -0.07 8.32, 0.45 11.92 C0.97 15.52, 2.19 18.67, 3.12 21.59 C4.05 24.52, 5.54 28.14, 6.02 29.44" stroke="#FFFFFF" stroke-width="4" fill="none"></path></g></g><mask></mask><g stroke-linecap="round"><g transform="translate(263.40952299226046 311.0148868434327) rotate(0 0.9860726932604038 8.091731749103358)"><path d="M0 0 C-0.33 0.49, -1.56 1.17, -1.99 2.96 C-2.42 4.75, -2.55 8.53, -2.57 10.73 C-2.59 12.93, -3.01 15.21, -2.12 16.16 C-1.23 17.11, 1.99 17.11, 2.75 16.41 C3.51 15.71, 2.49 14.27, 2.44 11.99 C2.39 9.7, 2.11 4.55, 2.46 2.72 C2.81 0.89, 4.33 1.52, 4.54 1.03 C4.75 0.53, 4.46 -0.06, 3.7 -0.23 C2.95 -0.4, 0.62 -0.04, 0 0 M0 0 C-0.33 0.49, -1.56 1.17, -1.99 2.96 C-2.42 4.75, -2.55 8.53, -2.57 10.73 C-2.59 12.93, -3.01 15.21, -2.12 16.16 C-1.23 17.11, 1.99 17.11, 2.75 16.41 C3.51 15.71, 2.49 14.27, 2.44 11.99 C2.39 9.7, 2.11 4.55, 2.46 2.72 C2.81 0.89, 4.33 1.52, 4.54 1.03 C4.75 0.53, 4.46 -0.06, 3.7 -0.23 C2.95 -0.4, 0.62 -0.04, 0 0" stroke="#FFFFFF" stroke-width="4" fill="none"></path></g></g><mask></mask><g stroke-linecap="round"><g transform="translate(267.74464800362284 311.7777451160907) rotate(0 -0.17806993104231594 7.912198802195668)"><path d="M0 0 C0.16 0.89, 0.81 3.54, 0.93 5.34 C1.06 7.14, 0.87 9.39, 0.76 10.8 C0.65 12.22, 0.6 12.99, 0.26 13.83 C-0.08 14.67, -1.03 15.49, -1.29 15.82 M0 0 C0.16 0.89, 0.81 3.54, 0.93 5.34 C1.06 7.14, 0.87 9.39, 0.76 10.8 C0.65 12.22, 0.6 12.99, 0.26 13.83 C-0.08 14.67, -1.03 15.49, -1.29 15.82" stroke="#FFFFFF" stroke-width="4" fill="none"></path></g></g><mask></mask><g stroke-linecap="round"><g transform="translate(264.7471374977431 310.6495508816229) rotate(0 -1.7269857279378442 -1.9100717133757827)"><path d="M0 0 C-0.49 -0.12, -2.38 -0.47, -2.96 -0.74 C-3.54 -1.01, -3.37 -1.1, -3.45 -1.61 C-3.54 -2.13, -3.45 -3.45, -3.45 -3.82 M0 0 C-0.49 -0.12, -2.38 -0.47, -2.96 -0.74 C-3.54 -1.01, -3.37 -1.1, -3.45 -1.61 C-3.54 -2.13, -3.45 -3.45, -3.45 -3.82" stroke="#FFFFFF" stroke-width="4" fill="none"></path></g></g><mask></mask><g stroke-linecap="round"><g transform="translate(261.31991833197753 313.21275467775365) rotate(0 -1.2074060934644422 0)"><path d="M0 0 C-0.4 0, -2.01 0, -2.41 0 M0 0 C-0.4 0, -2.01 0, -2.41 0" stroke="#FFFFFF" stroke-width="4" fill="none"></path></g></g><mask></mask><g stroke-linecap="round"><g transform="translate(274.60870043941395 290.8587082639428) rotate(0 -6.425774682978286 8.131442179734925)"><path d="M0 0 C-0.46 1.48, -1.58 6.7, -2.74 8.87 C-3.9 11.03, -5.84 12.04, -6.94 12.99 C-8.05 13.95, -8.36 14.04, -9.35 14.58 C-10.33 15.13, -12.27 15.98, -12.85 16.26 M0 0 C-0.46 1.48, -1.58 6.7, -2.74 8.87 C-3.9 11.03, -5.84 12.04, -6.94 12.99 C-8.05 13.95, -8.36 14.04, -9.35 14.58 C-10.33 15.13, -12.27 15.98, -12.85 16.26" stroke="#FFFFFF" stroke-width="4" fill="none"></path></g></g><mask></mask><g stroke-linecap="round"><g transform="translate(297.4517574460815 266.0797510841168) rotate(0 5.786403912478093 10.936867996231099)"><path d="M0 0 C-0.06 1.34, -0.04 5.02, -0.35 8.04 C-0.66 11.06, -1.33 15.8, -1.87 18.1 C-2.41 20.41, -4.25 22.81, -3.58 21.87 C-2.92 20.94, 1.22 14.79, 2.12 12.51 C3.02 10.22, 1.79 9.94, 1.83 8.15 C1.88 6.36, 1.73 3.12, 2.4 1.77 C3.06 0.42, 4.12 0.25, 5.81 0.04 C7.5 -0.18, 10.97 0.35, 12.53 0.48 C14.09 0.61, 14.72 0.74, 15.16 0.8 M0 0 C-0.06 1.34, -0.04 5.02, -0.35 8.04 C-0.66 11.06, -1.33 15.8, -1.87 18.1 C-2.41 20.41, -4.25 22.81, -3.58 21.87 C-2.92 20.94, 1.22 14.79, 2.12 12.51 C3.02 10.22, 1.79 9.94, 1.83 8.15 C1.88 6.36, 1.73 3.12, 2.4 1.77 C3.06 0.42, 4.12 0.25, 5.81 0.04 C7.5 -0.18, 10.97 0.35, 12.53 0.48 C14.09 0.61, 14.72 0.74, 15.16 0.8" stroke="#FFFFFF" stroke-width="4" fill="none"></path></g></g><mask></mask><g stroke-linecap="round"><g transform="translate(311.7731834269848 256.42887778652533) rotate(0 45.441467671458454 31.387464497956145)"><path d="M0 0 C0.12 2.44, 0.24 9.73, 0.72 14.65 C1.2 19.56, 2.05 24.88, 2.88 29.51 C3.71 34.13, 4.38 40.1, 5.71 42.38 C7.04 44.67, 9.43 43.1, 10.85 43.23 C12.26 43.37, 12.9 41.62, 14.21 43.19 C15.52 44.76, 16.4 49.78, 18.73 52.66 C21.05 55.54, 25.51 58.84, 28.14 60.47 C30.77 62.1, 31.6 62.06, 34.51 62.44 C37.43 62.83, 41.93 63.85, 45.62 62.77 C49.31 61.7, 54.49 59.01, 56.66 55.96 C58.83 52.91, 56.49 46.59, 58.65 44.48 C60.82 42.37, 64.25 43.59, 69.63 43.28 C75 42.96, 87.34 42.7, 90.88 42.59 M0 0 C0.12 2.44, 0.24 9.73, 0.72 14.65 C1.2 19.56, 2.05 24.88, 2.88 29.51 C3.71 34.13, 4.38 40.1, 5.71 42.38 C7.04 44.67, 9.43 43.1, 10.85 43.23 C12.26 43.37, 12.9 41.62, 14.21 43.19 C15.52 44.76, 16.4 49.78, 18.73 52.66 C21.05 55.54, 25.51 58.84, 28.14 60.47 C30.77 62.1, 31.6 62.06, 34.51 62.44 C37.43 62.83, 41.93 63.85, 45.62 62.77 C49.31 61.7, 54.49 59.01, 56.66 55.96 C58.83 52.91, 56.49 46.59, 58.65 44.48 C60.82 42.37, 64.25 43.59, 69.63 43.28 C75 42.96, 87.34 42.7, 90.88 42.59" stroke="#FFFFFF" stroke-width="4" fill="none"></path></g></g><mask></mask><g stroke-linecap="round"><g transform="translate(344.2376735575949 318.897659822405) rotate(0 -2.257478835071005 -42.06974621644009)"><path d="M0 0 C-0.4 -4.43, -1.64 -15.02, -2.4 -26.58 C-3.15 -38.14, -4.32 -59.76, -4.51 -69.35 C-4.71 -78.94, -3.74 -81.67, -3.58 -84.14 M0 0 C-0.4 -4.43, -1.64 -15.02, -2.4 -26.58 C-3.15 -38.14, -4.32 -59.76, -4.51 -69.35 C-4.71 -78.94, -3.74 -81.67, -3.58 -84.14" stroke="#FFFFFF" stroke-width="4" fill="none"></path></g></g><mask></mask><g stroke-linecap="round"><g transform="translate(349.3513307552871 227.762078761951) rotate(0 0.22459052287406323 45.289711178089235)"><path d="M0 0 C-0.28 6.38, -1.66 27.24, -1.71 38.28 C-1.76 49.32, -0.96 57.5, -0.31 66.21 C0.33 74.93, 1.75 86.52, 2.16 90.58 M0 0 C-0.28 6.38, -1.66 27.24, -1.71 38.28 C-1.76 49.32, -0.96 57.5, -0.31 66.21 C0.33 74.93, 1.75 86.52, 2.16 90.58" stroke="#FFFFFF" stroke-width="4" fill="none"></path></g></g><mask></mask><g stroke-linecap="round"><g transform="translate(369.8078363470813 299.63229728228765) rotate(0 0.3312553812304344 -52.89075533663528)"><path d="M0 0 C-0.06 -6.15, -0.08 -22.81, -0.35 -36.88 C-0.62 -50.96, -2.05 -72.96, -1.61 -84.44 C-1.17 -95.93, 1.62 -102.23, 2.27 -105.78 M0 0 C-0.06 -6.15, -0.08 -22.81, -0.35 -36.88 C-0.62 -50.96, -2.05 -72.96, -1.61 -84.44 C-1.17 -95.93, 1.62 -102.23, 2.27 -105.78" stroke="#FFFFFF" stroke-width="4" fill="none"></path></g></g><mask></mask><g stroke-linecap="round"><g transform="translate(375.7698076088873 190.3417942892405) rotate(0 -2.637843843169485 45.54182811602284)"><path d="M0 0 C-0.19 6.67, -0.59 29.64, -1.16 40.03 C-1.74 50.41, -2.75 55.23, -3.44 62.32 C-4.12 69.41, -4.99 77.8, -5.28 82.59 C-5.56 87.38, -5.15 89.67, -5.12 91.08 M0 0 C-0.19 6.67, -0.59 29.64, -1.16 40.03 C-1.74 50.41, -2.75 55.23, -3.44 62.32 C-4.12 69.41, -4.99 77.8, -5.28 82.59 C-5.56 87.38, -5.15 89.67, -5.12 91.08" stroke="#FFFFFF" stroke-width="4" fill="none"></path></g></g><mask></mask><g stroke-linecap="round"><g transform="translate(378.6194171679158 186.69391869348044) rotate(0 12.264581909976721 5.510600614860358)"><path d="M0 0 C0.14 1.41, -0.97 6.69, 0.85 8.43 C2.67 10.18, 7 10.03, 10.94 10.46 C14.89 10.89, 22.26 10.93, 24.53 11.02 M0 0 C0.14 1.41, -0.97 6.69, 0.85 8.43 C2.67 10.18, 7 10.03, 10.94 10.46 C14.89 10.89, 22.26 10.93, 24.53 11.02" stroke="#FFFFFF" stroke-width="4" fill="none"></path></g></g><mask></mask><g stroke-linecap="round"><g transform="translate(403.690350884272 163.93082463974736) rotate(0 -0.8095268428936748 67.42188728664581)"><path d="M0 0 C-0.09 3.67, -0.38 12.39, -0.53 22 C-0.67 31.61, -0.69 46.14, -0.87 57.68 C-1.06 69.23, -1.63 79.29, -1.62 91.28 C-1.61 103.26, -0.96 122.33, -0.82 129.59 C-0.69 136.85, -0.82 133.97, -0.82 134.84 M0 0 C-0.09 3.67, -0.38 12.39, -0.53 22 C-0.67 31.61, -0.69 46.14, -0.87 57.68 C-1.06 69.23, -1.63 79.29, -1.62 91.28 C-1.61 103.26, -0.96 122.33, -0.82 129.59 C-0.69 136.85, -0.82 133.97, -0.82 134.84" stroke="#FFFFFF" stroke-width="4" fill="none"></path></g></g><mask></mask><g stroke-linecap="round"><g transform="translate(402.38159496824983 299.01670654549685) rotate(0 11.396561435081104 -12.424422797425898)"><path d="M0 0 C0.24 0.21, 0.42 1.04, 1.44 1.25 C2.47 1.46, 4.21 1.25, 6.14 1.25 C8.06 1.25, 11.44 1.58, 12.99 1.25 C14.54 0.91, 14.96 0.81, 15.45 -0.77 C15.94 -2.35, 14.81 -7.01, 15.93 -8.25 C17.05 -9.49, 21.02 -7.04, 22.16 -8.2 C23.3 -9.37, 23.74 -14.03, 22.79 -15.25 C21.85 -16.46, 17.71 -16.7, 16.5 -15.51 C15.28 -14.31, 15.6 -6.32, 15.52 -8.08 C15.44 -9.85, 15.93 -23.09, 16.02 -26.1 M0 0 C0.24 0.21, 0.42 1.04, 1.44 1.25 C2.47 1.46, 4.21 1.25, 6.14 1.25 C8.06 1.25, 11.44 1.58, 12.99 1.25 C14.54 0.91, 14.96 0.81, 15.45 -0.77 C15.94 -2.35, 14.81 -7.01, 15.93 -8.25 C17.05 -9.49, 21.02 -7.04, 22.16 -8.2 C23.3 -9.37, 23.74 -14.03, 22.79 -15.25 C21.85 -16.46, 17.71 -16.7, 16.5 -15.51 C15.28 -14.31, 15.6 -6.32, 15.52 -8.08 C15.44 -9.85, 15.93 -23.09, 16.02 -26.1" stroke="#FFFFFF" stroke-width="4" fill="none"></path></g></g><mask></mask><g stroke-linecap="round"><g transform="translate(418.52708860148095 274.61453959502387) rotate(0 3.138949717325371 4.199967897810606)"><path d="M0 0 C0.83 0, 3.95 -0.57, 5 0 C6.04 0.57, 6.07 2, 6.28 3.4 C6.48 4.8, 6.24 7.57, 6.24 8.4 M0 0 C0.83 0, 3.95 -0.57, 5 0 C6.04 0.57, 6.07 2, 6.28 3.4 C6.48 4.8, 6.24 7.57, 6.24 8.4" stroke="#FFFFFF" stroke-width="4" fill="none"></path></g></g><mask></mask><g stroke-linecap="round"><g transform="translate(417.85624062691113 272.88287784762804) rotate(0 30.239643744167985 -54.69404832322036)"><path d="M0 0 C0.99 -0.19, 4.65 -0.66, 5.91 -1.14 C7.18 -1.61, 4.24 -1.85, 7.58 -2.83 C10.93 -3.81, 22.88 -6.69, 25.98 -7.03 C29.08 -7.36, 24.48 -5.13, 26.19 -4.85 C27.89 -4.57, 34.69 -4.39, 36.2 -5.36 C37.71 -6.34, 33.3 -9.23, 35.26 -10.71 C37.23 -12.2, 45.2 -14.29, 47.99 -14.27 C50.79 -14.26, 49.3 -11.44, 52.04 -10.62 C54.78 -9.8, 61.91 -10.23, 64.42 -9.35 C66.92 -8.47, 66.19 -5.94, 67.07 -5.35 C67.96 -4.76, 68.73 -3.06, 69.71 -5.82 C70.68 -8.59, 72.16 -13.12, 72.94 -21.94 C73.72 -30.77, 74.28 -48.15, 74.39 -58.79 C74.49 -69.44, 73.97 -79.47, 73.57 -85.81 C73.17 -92.15, 73.1 -95.04, 71.97 -96.84 C70.84 -98.65, 68.15 -97.45, 66.79 -96.64 C65.43 -95.84, 66.11 -92.85, 63.82 -92.03 C61.53 -91.2, 55.3 -92.28, 53.05 -91.7 C50.81 -91.12, 53.78 -88.45, 50.36 -88.55 C46.93 -88.64, 38.86 -90.71, 32.49 -92.29 C26.12 -93.88, 16.42 -96.82, 12.14 -98.06 C7.86 -99.3, 7.78 -98.48, 6.81 -99.71 C5.85 -100.95, 7.64 -104.5, 6.35 -105.45 C5.06 -106.4, 0.33 -104.75, -0.94 -105.4 C-2.2 -106.06, 0.91 -108.75, -1.25 -109.39 C-3.41 -110.02, -11.8 -109.25, -13.91 -109.22 M0 0 C0.99 -0.19, 4.65 -0.66, 5.91 -1.14 C7.18 -1.61, 4.24 -1.85, 7.58 -2.83 C10.93 -3.81, 22.88 -6.69, 25.98 -7.03 C29.08 -7.36, 24.48 -5.13, 26.19 -4.85 C27.89 -4.57, 34.69 -4.39, 36.2 -5.36 C37.71 -6.34, 33.3 -9.23, 35.26 -10.71 C37.23 -12.2, 45.2 -14.29, 47.99 -14.27 C50.79 -14.26, 49.3 -11.44, 52.04 -10.62 C54.78 -9.8, 61.91 -10.23, 64.42 -9.35 C66.92 -8.47, 66.19 -5.94, 67.07 -5.35 C67.96 -4.76, 68.73 -3.06, 69.71 -5.82 C70.68 -8.59, 72.16 -13.12, 72.94 -21.94 C73.72 -30.77, 74.28 -48.15, 74.39 -58.79 C74.49 -69.44, 73.97 -79.47, 73.57 -85.81 C73.17 -92.15, 73.1 -95.04, 71.97 -96.84 C70.84 -98.65, 68.15 -97.45, 66.79 -96.64 C65.43 -95.84, 66.11 -92.85, 63.82 -92.03 C61.53 -91.2, 55.3 -92.28, 53.05 -91.7 C50.81 -91.12, 53.78 -88.45, 50.36 -88.55 C46.93 -88.64, 38.86 -90.71, 32.49 -92.29 C26.12 -93.88, 16.42 -96.82, 12.14 -98.06 C7.86 -99.3, 7.78 -98.48, 6.81 -99.71 C5.85 -100.95, 7.64 -104.5, 6.35 -105.45 C5.06 -106.4, 0.33 -104.75, -0.94 -105.4 C-2.2 -106.06, 0.91 -108.75, -1.25 -109.39 C-3.41 -110.02, -11.8 -109.25, -13.91 -109.22" stroke="#FFFFFF" stroke-width="4" fill="none"></path></g></g><mask></mask><g stroke-linecap="round"><g transform="translate(417.27014974319354 272.40772313321855) rotate(0 4.15256260804377 -49.21154748740114)"><path d="M0 0 C0.15 -0.95, 0.96 -4.03, 0.92 -5.71 C0.89 -7.39, -0.02 -7.73, -0.22 -10.09 C-0.42 -12.44, -0.31 -16.08, -0.29 -19.85 C-0.27 -23.63, -0.43 -27.88, -0.1 -32.75 C0.24 -37.63, 0.63 -46.34, 1.73 -49.09 C2.83 -51.84, 5.41 -48.78, 6.5 -49.27 C7.59 -49.76, 7.94 -49.82, 8.29 -52.03 C8.64 -54.25, 8.68 -60.07, 8.59 -62.57 C8.51 -65.06, 8.8 -66.26, 7.76 -67.01 C6.73 -67.75, 3.49 -65.62, 2.38 -67.03 C1.27 -68.44, 1.3 -73.27, 1.11 -75.47 C0.91 -77.67, 1.21 -77.93, 1.21 -80.24 C1.2 -82.55, 0.08 -87.63, 1.08 -89.35 C2.07 -91.07, 6.04 -89.05, 7.16 -90.56 C8.29 -92.07, 7.73 -97.11, 7.84 -98.42 M0 0 C0.15 -0.95, 0.96 -4.03, 0.92 -5.71 C0.89 -7.39, -0.02 -7.73, -0.22 -10.09 C-0.42 -12.44, -0.31 -16.08, -0.29 -19.85 C-0.27 -23.63, -0.43 -27.88, -0.1 -32.75 C0.24 -37.63, 0.63 -46.34, 1.73 -49.09 C2.83 -51.84, 5.41 -48.78, 6.5 -49.27 C7.59 -49.76, 7.94 -49.82, 8.29 -52.03 C8.64 -54.25, 8.68 -60.07, 8.59 -62.57 C8.51 -65.06, 8.8 -66.26, 7.76 -67.01 C6.73 -67.75, 3.49 -65.62, 2.38 -67.03 C1.27 -68.44, 1.3 -73.27, 1.11 -75.47 C0.91 -77.67, 1.21 -77.93, 1.21 -80.24 C1.2 -82.55, 0.08 -87.63, 1.08 -89.35 C2.07 -91.07, 6.04 -89.05, 7.16 -90.56 C8.29 -92.07, 7.73 -97.11, 7.84 -98.42" stroke="#FFFFFF" stroke-width="4" fill="none"></path></g></g><mask></mask><g stroke-linecap="round"><g transform="translate(405.06951219710436 176.09220425126534) rotate(0 5.855274671850193 3.3715706453593057)"><path d="M0 0 C1.62 0.03, 7.79 -0.92, 9.74 0.2 C11.69 1.32, 11.38 5.65, 11.71 6.74 M0 0 C1.62 0.03, 7.79 -0.92, 9.74 0.2 C11.69 1.32, 11.38 5.65, 11.71 6.74" stroke="#FFFFFF" stroke-width="4" fill="none"></path></g></g><mask></mask><g stroke-linecap="round"><g transform="translate(406.0630725367296 200.61787120847077) rotate(0 4.468069189743204 0.16690554041241512)"><path d="M0 0 C1.49 0.06, 7.45 0.28, 8.94 0.33 M0 0 C1.49 0.06, 7.45 0.28, 8.94 0.33" stroke="#FFFFFF" stroke-width="4" fill="none"></path></g></g><mask></mask><g stroke-linecap="round"><g transform="translate(418.57193422938326 207.8455896695848) rotate(0 0.007085612564772248 6.129054868446474)"><path d="M0 0 C0 0.89, -0.02 3.31, -0.01 5.36 C-0.01 7.4, 0.02 11.11, 0.03 12.26 M0 0 C0 0.89, -0.02 3.31, -0.01 5.36 C-0.01 7.4, 0.02 11.11, 0.03 12.26" stroke="#FFFFFF" stroke-width="4" fill="none"></path></g></g><mask></mask><g stroke-linecap="round"><g transform="translate(419.46865786395756 210.931373941502) rotate(0 2.290621084103453 0)"><path d="M0 0 C0.76 0, 3.82 0, 4.58 0 M0 0 C0.76 0, 3.82 0, 4.58 0" stroke="#FFFFFF" stroke-width="4" fill="none"></path></g></g><mask></mask><g stroke-linecap="round"><g transform="translate(420.2555545037794 220.45994826042408) rotate(0 2.1609150096555894 0)"><path d="M0 0 C0.72 0, 3.6 0, 4.32 0 M0 0 C0.72 0, 3.6 0, 4.32 0" stroke="#FFFFFF" stroke-width="4" fill="none"></path></g></g><mask></mask><g stroke-linecap="round"><g transform="translate(416.92413566295363 229.168166102413) rotate(0 -5.143957899384951 0.6536477590915837)"><path d="M0 0 C-1.71 0.22, -8.57 1.09, -10.29 1.31 M0 0 C-1.71 0.22, -8.57 1.09, -10.29 1.31" stroke="#FFFFFF" stroke-width="4" fill="none"></path></g></g><mask></mask><g stroke-linecap="round"><g transform="translate(415.7235179783829 240.47719740078168) rotate(0 -4.666269518982887 -0.49205642810265715)"><path d="M0 0 C-1.56 -0.16, -7.78 -0.82, -9.33 -0.98 M0 0 C-1.56 -0.16, -7.78 -0.82, -9.33 -0.98" stroke="#FFFFFF" stroke-width="4" fill="none"></path></g></g><mask></mask><g stroke-linecap="round"><g transform="translate(415.6132973384888 251.24063653167025) rotate(0 -5.133132657966694 -0.14309000929220161)"><path d="M0 0 C-1.71 -0.05, -8.56 -0.24, -10.27 -0.29 M0 0 C-1.71 -0.05, -8.56 -0.24, -10.27 -0.29" stroke="#FFFFFF" stroke-width="4" fill="none"></path></g></g><mask></mask><g stroke-linecap="round"><g transform="translate(414.35048372140636 261.0144517743588) rotate(0 -4.643831745861448 0)"><path d="M0 0 C-1.55 0, -7.74 0, -9.29 0 M0 0 C-1.55 0, -7.74 0, -9.29 0" stroke="#FFFFFF" stroke-width="4" fill="none"></path></g></g><mask></mask><g stroke-linecap="round"><g transform="translate(415.4306459923773 269.603395138176) rotate(0 -5.743282628813983 0)"><path d="M0 0 C-1.91 0, -9.57 0, -11.49 0 M0 0 C-1.91 0, -9.57 0, -11.49 0" stroke="#FFFFFF" stroke-width="4" fill="none"></path></g></g><mask></mask><g stroke-linecap="round"><g transform="translate(415.99001573984515 285.37636235229235) rotate(0 -6.201091929520775 0.05156751366519208)"><path d="M0 0 C-2.07 0.02, -10.34 0.09, -12.4 0.1 M0 0 C-2.07 0.02, -10.34 0.09, -12.4 0.1" stroke="#FFFFFF" stroke-width="4" fill="none"></path></g></g><mask></mask><g stroke-linecap="round"><g transform="translate(415.7109213338249 285.68222462800105) rotate(0 0 5.974942795164739)"><path d="M0 0 C0 1.99, 0 9.96, 0 11.95 M0 0 C0 1.99, 0 9.96, 0 11.95" stroke="#FFFFFF" stroke-width="4" fill="none"></path></g></g><mask></mask><g stroke-linecap="round"><g transform="translate(483.37327281482567 178.73214409999014) rotate(0 0.8916700417651029 42.88593122812093)"><path d="M0 0 C0.31 3.29, 1.57 12.53, 1.86 19.75 C2.15 26.97, 1.72 34.89, 1.76 43.3 C1.8 51.7, 2.44 63.09, 2.09 70.17 C1.75 77.25, 0.09 83.17, -0.31 85.77 M0 0 C0.31 3.29, 1.57 12.53, 1.86 19.75 C2.15 26.97, 1.72 34.89, 1.76 43.3 C1.8 51.7, 2.44 63.09, 2.09 70.17 C1.75 77.25, 0.09 83.17, -0.31 85.77" stroke="#FFFFFF" stroke-width="4" fill="none"></path></g></g><mask></mask><g stroke-linecap="round"><g transform="translate(474.12867005847284 181.19042199537694) rotate(0 -1.3558134930267371 40.7004654394816)"><path d="M0 0 C0.01 3.54, 0.24 13.94, 0.06 21.24 C-0.12 28.54, -0.91 38.04, -1.06 43.82 C-1.2 49.6, -0.8 51.29, -0.81 55.91 C-0.81 60.53, -0.76 67.29, -1.09 71.54 C-1.42 75.79, -2.49 79.76, -2.77 81.4 M0 0 C0.01 3.54, 0.24 13.94, 0.06 21.24 C-0.12 28.54, -0.91 38.04, -1.06 43.82 C-1.2 49.6, -0.8 51.29, -0.81 55.91 C-0.81 60.53, -0.76 67.29, -1.09 71.54 C-1.42 75.79, -2.49 79.76, -2.77 81.4" stroke="#FFFFFF" stroke-width="4" fill="none"></path></g></g><mask></mask><g stroke-linecap="round"><g transform="translate(416.0615862879863 207.802302845996) rotate(0 -4.805880504421978 0.3368091426718607)"><path d="M0 0 C-0.96 0.11, -4.17 0.62, -5.77 0.67 C-7.37 0.72, -8.97 0.36, -9.61 0.3 M0 0 C-0.96 0.11, -4.17 0.62, -5.77 0.67 C-7.37 0.72, -8.97 0.36, -9.61 0.3" stroke="#FFFFFF" stroke-width="4" fill="none"></path></g></g><mask></mask><g stroke-linecap="round"><g transform="translate(316.8597185986828 253.18606354549058) rotate(0 2.0065107373248914 23.102126468746413)"><path d="M0 0 C-0.05 2.69, -0.54 9.94, -0.3 16.16 C-0.07 22.38, 0.64 32.31, 1.41 37.31 C2.18 42.32, 3.83 44.72, 4.32 46.2 M0 0 C-0.05 2.69, -0.54 9.94, -0.3 16.16 C-0.07 22.38, 0.64 32.31, 1.41 37.31 C2.18 42.32, 3.83 44.72, 4.32 46.2" stroke="#FFFFFF" stroke-width="4" fill="none"></path></g></g><mask></mask><g stroke-linecap="round"><g transform="translate(209.71269039608796 198.42742777013882) rotate(0 -6.833592099736222 39.57062782885758)"><path d="M0 0 C-1.13 0.07, -5.03 -1.31, -6.8 0.43 C-8.56 2.17, -9.44 3.94, -10.59 10.46 C-11.73 16.97, -13.22 29.53, -13.67 39.51 C-14.11 49.48, -13.58 63.71, -13.27 70.32 C-12.96 76.92, -12.05 77.67, -11.81 79.14 M0 0 C-1.13 0.07, -5.03 -1.31, -6.8 0.43 C-8.56 2.17, -9.44 3.94, -10.59 10.46 C-11.73 16.97, -13.22 29.53, -13.67 39.51 C-14.11 49.48, -13.58 63.71, -13.27 70.32 C-12.96 76.92, -12.05 77.67, -11.81 79.14" stroke="#FFFFFF" stroke-width="4" fill="none"></path></g></g><mask></mask><g stroke-linecap="round"><g transform="translate(200.89564966954276 201.8694845318845) rotate(0 -19.004938411627464 41.7870500761133)"><path d="M0 0 C-2.7 -0.04, -12.11 -0.22, -16.2 -0.23 C-20.3 -0.24, -22.55 -0.41, -24.57 -0.08 C-26.59 0.25, -27.11 0.46, -28.31 1.75 C-29.51 3.05, -30.39 3.44, -31.75 7.69 C-33.11 11.94, -35.43 20.43, -36.48 27.25 C-37.52 34.07, -38.14 42.14, -38.01 48.62 C-37.88 55.09, -37.04 60.72, -35.72 66.09 C-34.4 71.46, -33.05 77.87, -30.06 80.82 C-27.08 83.77, -22.33 83.42, -17.79 83.8 C-13.24 84.19, -5.29 83.23, -2.79 83.12 M0 0 C-2.7 -0.04, -12.11 -0.22, -16.2 -0.23 C-20.3 -0.24, -22.55 -0.41, -24.57 -0.08 C-26.59 0.25, -27.11 0.46, -28.31 1.75 C-29.51 3.05, -30.39 3.44, -31.75 7.69 C-33.11 11.94, -35.43 20.43, -36.48 27.25 C-37.52 34.07, -38.14 42.14, -38.01 48.62 C-37.88 55.09, -37.04 60.72, -35.72 66.09 C-34.4 71.46, -33.05 77.87, -30.06 80.82 C-27.08 83.77, -22.33 83.42, -17.79 83.8 C-13.24 84.19, -5.29 83.23, -2.79 83.12" stroke="#FFFFFF" stroke-width="4" fill="none"></path></g></g><mask></mask><g stroke-linecap="round"><g transform="translate(178.16459174206648 201.9721828844631) rotate(0 -2.6566871773192133 41.954189803783365)"><path d="M0 0 C-1.03 2.58, -4.56 9.77, -6.16 15.5 C-7.76 21.23, -9.45 26.93, -9.62 34.36 C-9.78 41.78, -8.3 52.63, -7.16 60.05 C-6.02 67.47, -4.7 74.91, -2.79 78.88 C-0.88 82.86, 3.12 83.07, 4.3 83.91 M0 0 C-1.03 2.58, -4.56 9.77, -6.16 15.5 C-7.76 21.23, -9.45 26.93, -9.62 34.36 C-9.78 41.78, -8.3 52.63, -7.16 60.05 C-6.02 67.47, -4.7 74.91, -2.79 78.88 C-0.88 82.86, 3.12 83.07, 4.3 83.91" stroke="#FFFFFF" stroke-width="4" fill="none"></path></g></g><mask></mask><g stroke-linecap="round"><g transform="translate(168.61306658775493 210.51675417613785) rotate(0 -21.2913227182853 3.7238771830071045)"><path d="M0 0 C-2.34 0.44, -8.35 1.65, -14.04 2.62 C-19.72 3.59, -29.33 5.03, -34.09 5.83 C-38.85 6.64, -41.17 7.18, -42.58 7.45 M0 0 C-2.34 0.44, -8.35 1.65, -14.04 2.62 C-19.72 3.59, -29.33 5.03, -34.09 5.83 C-38.85 6.64, -41.17 7.18, -42.58 7.45" stroke="#FF5252" stroke-width="4" fill="none"></path></g></g><mask></mask><g stroke-linecap="round"><g transform="translate(165.12125722608107 224.34947495106917) rotate(0 -21.05089097243558 3.1560957614829945)"><path d="M0 0 C-2.96 0.41, -11.68 1.51, -17.73 2.44 C-23.78 3.37, -32.24 4.94, -36.3 5.58 C-40.36 6.23, -41.14 6.19, -42.1 6.31 M0 0 C-2.96 0.41, -11.68 1.51, -17.73 2.44 C-23.78 3.37, -32.24 4.94, -36.3 5.58 C-40.36 6.23, -41.14 6.19, -42.1 6.31" stroke="#FF5252" stroke-width="4" fill="none"></path></g></g><mask></mask><g stroke-linecap="round"><g transform="translate(403.78250128479567 164.14970838703346) rotate(0 -3.874923459074809 -15.531206113448306)"><path d="M0 0 C-0.78 -0.24, -3.66 0.94, -4.68 -1.45 C-5.69 -3.85, -5.57 -9.42, -6.09 -14.35 C-6.6 -19.29, -7.47 -28.28, -7.75 -31.06 M0 0 C-0.78 -0.24, -3.66 0.94, -4.68 -1.45 C-5.69 -3.85, -5.57 -9.42, -6.09 -14.35 C-6.6 -19.29, -7.47 -28.28, -7.75 -31.06" stroke="#FFFFFF" stroke-width="4" fill="none"></path></g></g><mask></mask><g stroke-linecap="round"><g transform="translate(399.21300377214766 163.79633623086647) rotate(0 -6.38590863272329 1.3104760772978707)"><path d="M0 0 C-0.77 0.44, -2.52 2.21, -4.64 2.62 C-6.77 3.03, -11.42 2.49, -12.77 2.47 M0 0 C-0.77 0.44, -2.52 2.21, -4.64 2.62 C-6.77 3.03, -11.42 2.49, -12.77 2.47" stroke="#FFFFFF" stroke-width="4" fill="none"></path></g></g><mask></mask><g stroke-linecap="round"><g transform="translate(296.3649038237322 157.66625379877996) rotate(0 13.134081681279525 -0.33756960468969055)"><path d="M0 0 C3.03 -0.08, 13.79 -0.37, 18.17 -0.48 C22.54 -0.59, 24.92 -0.64, 26.27 -0.68 M0 0 C3.03 -0.08, 13.79 -0.37, 18.17 -0.48 C22.54 -0.59, 24.92 -0.64, 26.27 -0.68" stroke="#FFFFFF" stroke-width="4" fill="none"></path></g></g><mask></mask><g stroke-linecap="round"><g transform="translate(324.54907490302776 164.16947219110227) rotate(0 -0.4825599750832943 -12.965296878934709)"><path d="M0 0 C-0.15 -2.66, -0.76 -11.62, -0.92 -15.94 C-1.08 -20.26, -0.96 -24.27, -0.97 -25.93 M0 0 C-0.15 -2.66, -0.76 -11.62, -0.92 -15.94 C-1.08 -20.26, -0.96 -24.27, -0.97 -25.93" stroke="#FFFFFF" stroke-width="4" fill="none"></path></g></g><mask></mask><g stroke-linecap="round"><g transform="translate(342.20409865501733 131.46925135420554) rotate(0 10.508243807645938 -0.0462545966900052)"><path d="M0 0 C2.44 0, 11.14 0.02, 14.64 0 C18.14 -0.02, 19.95 -0.08, 21.02 -0.09 M0 0 C2.44 0, 11.14 0.02, 14.64 0 C18.14 -0.02, 19.95 -0.08, 21.02 -0.09" stroke="#FFFFFF" stroke-width="4" fill="none"></path></g></g><mask></mask><g stroke-linecap="round"><g transform="translate(323.4538344285179 164.57543827110828) rotate(0 -4.189994982600915 19.014578254375074)"><path d="M0 0 C-1.05 1.23, -4.98 4.42, -6.28 7.36 C-7.58 10.31, -7.63 14.1, -7.79 17.69 C-7.95 21.27, -7.14 25.49, -7.24 28.88 C-7.33 32.27, -8.19 36.5, -8.38 38.03 M0 0 C-1.05 1.23, -4.98 4.42, -6.28 7.36 C-7.58 10.31, -7.63 14.1, -7.79 17.69 C-7.95 21.27, -7.14 25.49, -7.24 28.88 C-7.33 32.27, -8.19 36.5, -8.38 38.03" stroke="#FFFFFF" stroke-width="4" fill="none"></path></g></g><mask></mask><g stroke-linecap="round"><g transform="translate(314.501678632359 203.03671561139754) rotate(0 -6.0107376833736765 -3.184288945110545)"><path d="M0 0 C-0.81 -0.73, -2.87 -3.35, -4.88 -4.41 C-6.88 -5.47, -10.83 -6.04, -12.02 -6.37 M0 0 C-0.81 -0.73, -2.87 -3.35, -4.88 -4.41 C-6.88 -5.47, -10.83 -6.04, -12.02 -6.37" stroke="#FFFFFF" stroke-width="4" fill="none"></path></g></g><mask></mask><g stroke-linecap="round"><g transform="translate(325.68529073136915 164.84944102001157) rotate(0 1.4629699370671716 18.50986323824695)"><path d="M0 0 C0.78 0.4, 3.86 0.97, 4.69 2.42 C5.51 3.87, 5.56 7, 4.95 8.7 C4.33 10.41, 2.01 10.98, 0.98 12.65 C-0.05 14.32, -0.74 16.36, -1.24 18.72 C-1.74 21.07, -1.93 24.17, -2.02 26.77 C-2.11 29.38, -1.8 32.64, -1.79 34.35 C-1.78 36.06, -1.94 36.57, -1.97 37.02 M0 0 C0.78 0.4, 3.86 0.97, 4.69 2.42 C5.51 3.87, 5.56 7, 4.95 8.7 C4.33 10.41, 2.01 10.98, 0.98 12.65 C-0.05 14.32, -0.74 16.36, -1.24 18.72 C-1.74 21.07, -1.93 24.17, -2.02 26.77 C-2.11 29.38, -1.8 32.64, -1.79 34.35 C-1.78 36.06, -1.94 36.57, -1.97 37.02" stroke="#FFFFFF" stroke-width="4" fill="none"></path></g></g><mask></mask><g stroke-linecap="round"><g transform="translate(302.9702013770093 280.19885253681855) rotate(0 -13.643189742506046 14.746710004305875)"><path d="M0 0 C0.01 3.47, 0 16.26, 0.05 20.83 C0.1 25.39, 0.55 25.96, 0.31 27.4 C0.07 28.85, 0.11 29.15, -1.37 29.49 C-2.85 29.83, -6.08 29.51, -8.57 29.43 C-11.07 29.35, -13.58 29.4, -16.36 29.02 C-19.14 28.63, -23.53 29.17, -25.23 27.11 C-26.94 25.06, -26.2 20.89, -26.59 16.69 C-26.99 12.49, -27.43 4.37, -27.59 1.91 M0 0 C0.01 3.47, 0 16.26, 0.05 20.83 C0.1 25.39, 0.55 25.96, 0.31 27.4 C0.07 28.85, 0.11 29.15, -1.37 29.49 C-2.85 29.83, -6.08 29.51, -8.57 29.43 C-11.07 29.35, -13.58 29.4, -16.36 29.02 C-19.14 28.63, -23.53 29.17, -25.23 27.11 C-26.94 25.06, -26.2 20.89, -26.59 16.69 C-26.99 12.49, -27.43 4.37, -27.59 1.91" stroke="#FF5252" stroke-width="4" fill="none"></path></g></g><mask></mask><g transform="translate(408.53658474687836 11.926986950508763) rotate(0 42.658287048339844 9.8124809415973)"><text x="0" y="14.420413992466289" font-family="Helvetica, Segoe UI Emoji" font-size="17.065184246256187px" fill="#770000" text-anchor="start" style="white-space: pre;" direction="ltr" dominant-baseline="alphabetic">OIL DRAIN</text></g><g transform="translate(258.6442552859962 52.175658545985584) rotate(0 24.64867401123047 9.8124809415973)"><text x="0" y="14.420413992466289" font-family="Helvetica, Segoe UI Emoji" font-size="17.065184246256187px" fill="#0D694E" text-anchor="start" style="white-space: pre;" direction="ltr" dominant-baseline="alphabetic">OIL IN</text></g><g transform="translate(52.440204152765546 280.08030096818277) rotate(0 52.13374328613281 9.812480941597308)"><text x="0" y="14.420413992466289" font-family="Helvetica, Segoe UI Emoji" font-size="17.065184246256187px" fill="#00335A" text-anchor="start" style="white-space: pre;" direction="ltr" dominant-baseline="alphabetic">COOLANT IN</text></g><g stroke-linecap="round"><g transform="translate(256.2306378591984 201.60387359295453) rotate(0 0.31425606465467126 3.1550380341550692)"><path d="M0 0 C0 0.61, -0.14 2.59, -0.03 3.64 C0.08 4.69, 0.54 5.86, 0.66 6.31 M0 0 C0 0.61, -0.14 2.59, -0.03 3.64 C0.08 4.69, 0.54 5.86, 0.66 6.31" stroke="#FFFFFF" stroke-width="4" fill="none"></path></g></g><mask></mask><g stroke-linecap="round"><g transform="translate(252.1409564416149 194.20246136659625) rotate(0 2.3515523065201123 6.996622558589813)"><path d="M0 0 C0 1.56, -0.32 7.07, 0.02 9.39 C0.36 11.71, 1.25 13.16, 2.03 13.93 C2.82 14.7, 4.26 13.98, 4.7 13.99 M0 0 C0 1.56, -0.32 7.07, 0.02 9.39 C0.36 11.71, 1.25 13.16, 2.03 13.93 C2.82 14.7, 4.26 13.98, 4.7 13.99" stroke="#FFFFFF" stroke-width="4" fill="none"></path></g></g><mask></mask><g stroke-linecap="round"><g transform="translate(251.64302162448894 202.22019850646006) rotate(0 -0.8251035270964522 9.17973013239336)"><path d="M0 0 C-0.16 1.32, -0.66 5.38, -0.94 7.91 C-1.21 10.43, -1.56 13.39, -1.65 15.14 C-1.74 16.88, -1.53 17.82, -1.5 18.36 M0 0 C-0.16 1.32, -0.66 5.38, -0.94 7.91 C-1.21 10.43, -1.56 13.39, -1.65 15.14 C-1.74 16.88, -1.53 17.82, -1.5 18.36" stroke="#FFFFFF" stroke-width="4" fill="none"></path></g></g><mask></mask><g stroke-linecap="round"><g transform="translate(252.79853333712254 259.11794029406445) rotate(0 0.01559459153907028 -5.260835455698391)"><path d="M0 0 C0.01 -1.75, 0.03 -8.77, 0.03 -10.52 M0 0 C0.01 -1.75, 0.03 -8.77, 0.03 -10.52" stroke="#FFFFFF" stroke-width="4" fill="none"></path></g></g><mask></mask><g stroke-linecap="round"><g transform="translate(250.0902740283591 279.38097317804204) rotate(0 -2.4873131417005183 -0.10341165200502456)"><path d="M0 0 C-0.83 -0.03, -4.15 -0.17, -4.97 -0.21 M0 0 C-0.83 -0.03, -4.15 -0.17, -4.97 -0.21" stroke="#FFFFFF" stroke-width="4" fill="none"></path></g></g><mask></mask><g stroke-linecap="round"><g transform="translate(244.8923486862218 279.20289480780974) rotate(0 -2.9651100287610035 0.2832427621018896)"><path d="M0 0 C-0.99 0.09, -4.94 0.47, -5.93 0.57 M0 0 C-0.99 0.09, -4.94 0.47, -5.93 0.57" stroke="#FFFFFF" stroke-width="4" fill="none"></path></g></g><mask></mask><g stroke-linecap="round"><g transform="translate(33.40946117169375 181.59353214500538) rotate(0 127.8658715583461 89.82330252997502)"><path d="M0 0 C-0.12 57.51, -0.23 115.02, -0.36 179.65 M0 0 C-0.1 49.34, -0.2 98.68, -0.36 179.65 M-0.36 179.65 C96.55 179.65, 193.46 179.65, 256.1 179.65 M-0.36 179.65 C101.77 179.65, 203.9 179.65, 256.1 179.65 M256.1 179.65 C256.1 165.02, 256.1 150.39, 256.1 130.55 M256.1 179.65 C256.1 165.72, 256.1 151.79, 256.1 130.55" stroke="#FF5252" stroke-width="4" fill="none"></path></g><g transform="translate(33.40946117169375 181.59353214500538) rotate(0 127.8658715583461 89.82330252997502)"><path d="M264.49 153.62 C261.8 146.23, 259.12 138.85, 256.1 130.55 M264.49 153.62 C262.19 147.28, 259.88 140.95, 256.1 130.55" stroke="#FF5252" stroke-width="4" fill="none"></path></g><g transform="translate(33.40946117169375 181.59353214500538) rotate(0 127.8658715583461 89.82330252997502)"><path d="M247.7 153.62 C250.39 146.23, 253.08 138.85, 256.1 130.55 M247.7 153.62 C250.01 147.28, 252.31 140.95, 256.1 130.55" stroke="#FF5252" stroke-width="4" fill="none"></path></g></g><mask></mask></svg>