<svg version="1.1" xmlns="http://www.w3.org/2000/svg" viewBox="0 0 313.79430578801225 314.73210702743796" width="313.79430578801225" height="314.73210702743796" class="excalidraw-svg"><!-- svg-source:excalidraw --><metadata></metadata><defs><style class="style-fonts">
      </style></defs><rect x="0" y="0" width="313.79430578801225" height="314.73210702743796" fill="#000000"></rect><g stroke-linecap="round" transform="translate(67.89296715866897 89.53311612392974) rotate(0 67.9369318448021 67.9369318448021)"><path d="M135.87 67.94 C135.87 70.47, 135.73 73.02, 135.45 75.54 C135.16 78.06, 134.73 80.58, 134.17 83.05 C133.61 85.53, 132.9 87.98, 132.06 90.38 C131.22 92.77, 130.25 95.13, 129.15 97.41 C128.05 99.7, 126.81 101.93, 125.46 104.08 C124.11 106.23, 122.63 108.31, 121.05 110.29 C119.47 112.28, 117.77 114.18, 115.98 115.98 C114.18 117.77, 112.28 119.47, 110.29 121.05 C108.31 122.63, 106.23 124.11, 104.08 125.46 C101.93 126.81, 99.7 128.05, 97.41 129.15 C95.13 130.25, 92.77 131.22, 90.38 132.06 C87.98 132.9, 85.53 133.61, 83.05 134.17 C80.58 134.73, 78.06 135.16, 75.54 135.45 C73.02 135.73, 70.47 135.87, 67.94 135.87 C65.4 135.87, 62.85 135.73, 60.33 135.45 C57.81 135.16, 55.29 134.73, 52.82 134.17 C50.35 133.61, 47.89 132.9, 45.5 132.06 C43.11 131.22, 40.74 130.25, 38.46 129.15 C36.18 128.05, 33.94 126.81, 31.79 125.46 C29.65 124.11, 27.56 122.63, 25.58 121.05 C23.6 119.47, 21.69 117.77, 19.9 115.98 C18.11 114.18, 16.4 112.28, 14.82 110.29 C13.24 108.31, 11.76 106.23, 10.41 104.08 C9.06 101.93, 7.83 99.7, 6.73 97.41 C5.63 95.13, 4.65 92.77, 3.81 90.38 C2.97 87.98, 2.27 85.53, 1.7 83.05 C1.14 80.58, 0.71 78.06, 0.43 75.54 C0.14 73.02, 0 70.47, 0 67.94 C0 65.4, 0.14 62.85, 0.43 60.33 C0.71 57.81, 1.14 55.29, 1.7 52.82 C2.27 50.35, 2.97 47.89, 3.81 45.5 C4.65 43.11, 5.63 40.74, 6.73 38.46 C7.83 36.18, 9.06 33.94, 10.41 31.79 C11.76 29.65, 13.24 27.56, 14.82 25.58 C16.4 23.6, 18.11 21.69, 19.9 19.9 C21.69 18.11, 23.6 16.4, 25.58 14.82 C27.56 13.24, 29.65 11.76, 31.79 10.41 C33.94 9.06, 36.18 7.83, 38.46 6.73 C40.74 5.63, 43.11 4.65, 45.5 3.81 C47.89 2.97, 50.35 2.27, 52.82 1.7 C55.29 1.14, 57.81 0.71, 60.33 0.43 C62.85 0.14, 65.4 0, 67.94 0 C70.47 0, 73.02 0.14, 75.54 0.43 C78.06 0.71, 80.58 1.14, 83.05 1.7 C85.53 2.27, 87.98 2.97, 90.38 3.81 C92.77 4.65, 95.13 5.63, 97.41 6.73 C99.7 7.83, 101.93 9.06, 104.08 10.41 C106.23 11.76, 108.31 13.24, 110.29 14.82 C112.28 16.4, 114.18 18.11, 115.98 19.9 C117.77 21.69, 119.47 23.6, 121.05 25.58 C122.63 27.56, 124.11 29.65, 125.46 31.79 C126.81 33.94, 128.05 36.18, 129.15 38.46 C130.25 40.74, 131.22 43.11, 132.06 45.5 C132.9 47.89, 133.61 50.35, 134.17 52.82 C134.73 55.29, 135.16 57.81, 135.45 60.33 C135.73 62.85, 135.8 66.67, 135.87 67.94 C135.95 69.2, 135.95 66.67, 135.87 67.94" stroke="#E1E1E1" stroke-width="4" fill="none"></path></g><g stroke-linecap="round" transform="translate(86.30646774059107 106.44248358848711) rotate(0 50.38694316846414 50.386943168464136)"><path d="M100.77 50.39 C100.77 52.58, 100.63 54.79, 100.34 56.96 C100.06 59.14, 99.62 61.31, 99.06 63.43 C98.49 65.55, 97.78 67.64, 96.94 69.67 C96.1 71.69, 95.12 73.68, 94.02 75.58 C92.93 77.48, 91.7 79.32, 90.36 81.06 C89.03 82.8, 87.57 84.47, 86.02 86.02 C84.47 87.57, 82.8 89.03, 81.06 90.36 C79.32 91.7, 77.48 92.93, 75.58 94.02 C73.68 95.12, 71.69 96.1, 69.67 96.94 C67.64 97.78, 65.55 98.49, 63.43 99.06 C61.31 99.62, 59.14 100.06, 56.96 100.34 C54.79 100.63, 52.58 100.77, 50.39 100.77 C48.19 100.77, 45.98 100.63, 43.81 100.34 C41.64 100.06, 39.46 99.62, 37.35 99.06 C35.23 98.49, 33.13 97.78, 31.1 96.94 C29.08 96.1, 27.09 95.12, 25.19 94.02 C23.29 92.93, 21.45 91.7, 19.71 90.36 C17.97 89.03, 16.31 87.57, 14.76 86.02 C13.21 84.47, 11.75 82.8, 10.41 81.06 C9.08 79.32, 7.85 77.48, 6.75 75.58 C5.65 73.68, 4.67 71.69, 3.84 69.67 C3 67.64, 2.28 65.55, 1.72 63.43 C1.15 61.31, 0.72 59.14, 0.43 56.96 C0.14 54.79, 0 52.58, 0 50.39 C0 48.19, 0.14 45.98, 0.43 43.81 C0.72 41.64, 1.15 39.46, 1.72 37.35 C2.28 35.23, 3 33.13, 3.84 31.1 C4.67 29.08, 5.65 27.09, 6.75 25.19 C7.85 23.29, 9.08 21.45, 10.41 19.71 C11.75 17.97, 13.21 16.31, 14.76 14.76 C16.31 13.21, 17.97 11.75, 19.71 10.41 C21.45 9.08, 23.29 7.85, 25.19 6.75 C27.09 5.65, 29.08 4.67, 31.1 3.84 C33.13 3, 35.23 2.28, 37.35 1.72 C39.46 1.15, 41.64 0.72, 43.81 0.43 C45.98 0.14, 48.19 0, 50.39 0 C52.58 0, 54.79 0.14, 56.96 0.43 C59.14 0.72, 61.31 1.15, 63.43 1.72 C65.55 2.28, 67.64 3, 69.67 3.84 C71.69 4.67, 73.68 5.65, 75.58 6.75 C77.48 7.85, 79.32 9.08, 81.06 10.41 C82.8 11.75, 84.47 13.21, 86.02 14.76 C87.57 16.31, 89.03 17.97, 90.36 19.71 C91.7 21.45, 92.93 23.29, 94.02 25.19 C95.12 27.09, 96.1 29.08, 96.94 31.1 C97.78 33.13, 98.49 35.23, 99.06 37.35 C99.62 39.46, 100.06 41.64, 100.34 43.81 C100.63 45.98, 100.7 49.29, 100.77 50.39 C100.85 51.48, 100.85 49.29, 100.77 50.39" stroke="#E1E1E1" stroke-width="4" fill="none"></path></g><g stroke-linecap="round" transform="translate(125.14355064647009 145.9132394687441) rotate(0 11.306316920713272 11.306316920713272)"><path d="M22.61 11.31 C22.61 11.96, 22.55 12.63, 22.44 13.27 C22.33 13.91, 22.15 14.56, 21.93 15.17 C21.71 15.79, 21.43 16.39, 21.1 16.96 C20.77 17.53, 20.39 18.07, 19.97 18.57 C19.55 19.08, 19.08 19.55, 18.57 19.97 C18.07 20.39, 17.53 20.77, 16.96 21.1 C16.39 21.43, 15.79 21.71, 15.17 21.93 C14.56 22.15, 13.91 22.33, 13.27 22.44 C12.63 22.55, 11.96 22.61, 11.31 22.61 C10.65 22.61, 9.99 22.55, 9.34 22.44 C8.7 22.33, 8.05 22.15, 7.44 21.93 C6.82 21.71, 6.22 21.43, 5.65 21.1 C5.09 20.77, 4.54 20.39, 4.04 19.97 C3.54 19.55, 3.07 19.08, 2.65 18.57 C2.22 18.07, 1.84 17.53, 1.51 16.96 C1.19 16.39, 0.91 15.79, 0.68 15.17 C0.46 14.56, 0.29 13.91, 0.17 13.27 C0.06 12.63, 0 11.96, 0 11.31 C0 10.65, 0.06 9.99, 0.17 9.34 C0.29 8.7, 0.46 8.05, 0.68 7.44 C0.91 6.82, 1.19 6.22, 1.51 5.65 C1.84 5.09, 2.22 4.54, 2.65 4.04 C3.07 3.54, 3.54 3.07, 4.04 2.65 C4.54 2.22, 5.09 1.84, 5.65 1.51 C6.22 1.19, 6.82 0.91, 7.44 0.68 C8.05 0.46, 8.7 0.29, 9.34 0.17 C9.99 0.06, 10.65 0, 11.31 0 C11.96 0, 12.63 0.06, 13.27 0.17 C13.91 0.29, 14.56 0.46, 15.17 0.68 C15.79 0.91, 16.39 1.19, 16.96 1.51 C17.53 1.84, 18.07 2.22, 18.57 2.65 C19.08 3.07, 19.55 3.54, 19.97 4.04 C20.39 4.54, 20.77 5.09, 21.1 5.65 C21.43 6.22, 21.71 6.82, 21.93 7.44 C22.15 8.05, 22.33 8.7, 22.44 9.34 C22.55 9.99, 22.58 10.98, 22.61 11.31 C22.64 11.63, 22.64 10.98, 22.61 11.31" stroke="#E1E1E1" stroke-width="4" fill="none"></path></g><g stroke-linecap="round"><g transform="translate(136.79548087413616 106.56001867398516) rotate(0 0 19.358953366811036)"><path d="M0 0 C0 6.45, 0 32.26, 0 38.72 M0 0 C0 6.45, 0 32.26, 0 38.72" stroke="#E1E1E1" stroke-width="4" fill="none"></path></g></g><mask></mask><g stroke-linecap="round"><g transform="translate(172.26861627616665 122.00294286414385) rotate(0 -13.458028566847446 13.530530558350499)"><path d="M0 0 C-4.49 4.51, -22.43 22.55, -26.92 27.06 M0 0 C-4.49 4.51, -22.43 22.55, -26.92 27.06" stroke="#E1E1E1" stroke-width="4" fill="none"></path></g></g><mask></mask><g stroke-linecap="round"><g transform="translate(187.06885332130662 156.87701520078838) rotate(0 -19.354959613041785 0.1545275496866978)"><path d="M0 0 C-6.45 0.05, -32.26 0.26, -38.71 0.31 M0 0 C-6.45 0.05, -32.26 0.26, -38.71 0.31" stroke="#E1E1E1" stroke-width="4" fill="none"></path></g></g><mask></mask><g stroke-linecap="round"><g transform="translate(145.2628532885775 165.51888393376282) rotate(0 12.986458410248929 13.243287498793784)"><path d="M0 0 C4.33 4.41, 21.64 22.07, 25.97 26.49 M0 0 C4.33 4.41, 21.64 22.07, 25.97 26.49" stroke="#E1E1E1" stroke-width="4" fill="none"></path></g></g><mask></mask><g stroke-linecap="round"><g transform="translate(136.92758196034958 206.31477147470207) rotate(0 -0.07526689795872699 -18.71534458630687)"><path d="M0 0 C-0.03 -6.24, -0.13 -31.19, -0.15 -37.43 M0 0 C-0.03 -6.24, -0.13 -31.19, -0.15 -37.43" stroke="#E1E1E1" stroke-width="4" fill="none"></path></g></g><mask></mask><g stroke-linecap="round"><g transform="translate(102.39082821129125 192.38517275125594) rotate(0 12.8291659541066 -13.247588464391427)"><path d="M0 0 C4.28 -4.42, 21.38 -22.08, 25.66 -26.5 M0 0 C4.28 -4.42, 21.38 -22.08, 25.66 -26.5" stroke="#E1E1E1" stroke-width="4" fill="none"></path></g></g><mask></mask><g stroke-linecap="round"><g transform="translate(124.62436265646886 157.3826858703393) rotate(0 -18.83269950475679 -0.014131744106514077)"><path d="M0 0 C-6.28 0, -31.39 -0.02, -37.67 -0.03 M0 0 C-6.28 0, -31.39 -0.02, -37.67 -0.03" stroke="#E1E1E1" stroke-width="4" fill="none"></path></g></g><mask></mask><g stroke-linecap="round"><g transform="translate(128.79507043886736 148.5964275780151) rotate(0 -13.340059224740713 -13.144058078219615)"><path d="M0 0 C-4.45 -4.38, -22.23 -21.91, -26.68 -26.29 M0 0 C-4.45 -4.38, -22.23 -21.91, -26.68 -26.29" stroke="#E1E1E1" stroke-width="4" fill="none"></path></g></g><mask></mask><g stroke-linecap="round"><g transform="translate(162.04932278442732 94.70212028186972) rotate(0 35.1387650956399 0)"><path d="M0 0 C11.71 0, 58.56 0, 70.28 0 M0 0 C11.71 0, 58.56 0, 70.28 0" stroke="#E1E1E1" stroke-width="4" fill="none"></path></g></g><mask></mask><g stroke-linecap="round"><g transform="translate(214.9900382319762 94.47847288670448) rotate(0 0 -11.793417769550999)"><path d="M0 0 C0 -3.93, 0 -19.66, 0 -23.59 M0 0 C0 -3.93, 0 -19.66, 0 -23.59" stroke="#E1E1E1" stroke-width="4" fill="none"></path></g></g><mask></mask><g stroke-linecap="round" transform="translate(223.83765092701526 147.44902284976286) rotate(0 10.0482389886606 10.0482389886606)"><path d="M20.1 10.05 C20.1 10.63, 20.04 11.22, 19.94 11.79 C19.84 12.37, 19.69 12.94, 19.49 13.48 C19.29 14.03, 19.04 14.57, 18.75 15.07 C18.46 15.58, 18.12 16.06, 17.75 16.51 C17.37 16.95, 16.95 17.37, 16.51 17.75 C16.06 18.12, 15.58 18.46, 15.07 18.75 C14.57 19.04, 14.03 19.29, 13.48 19.49 C12.94 19.69, 12.37 19.84, 11.79 19.94 C11.22 20.04, 10.63 20.1, 10.05 20.1 C9.47 20.1, 8.88 20.04, 8.3 19.94 C7.73 19.84, 7.16 19.69, 6.61 19.49 C6.06 19.29, 5.53 19.04, 5.02 18.75 C4.52 18.46, 4.03 18.12, 3.59 17.75 C3.14 17.37, 2.72 16.95, 2.35 16.51 C1.98 16.06, 1.64 15.58, 1.35 15.07 C1.06 14.57, 0.8 14.03, 0.61 13.48 C0.41 12.94, 0.25 12.37, 0.15 11.79 C0.05 11.22, 0 10.63, 0 10.05 C0 9.47, 0.05 8.88, 0.15 8.3 C0.25 7.73, 0.41 7.16, 0.61 6.61 C0.8 6.06, 1.06 5.53, 1.35 5.02 C1.64 4.52, 1.98 4.03, 2.35 3.59 C2.72 3.14, 3.14 2.72, 3.59 2.35 C4.03 1.98, 4.52 1.64, 5.02 1.35 C5.53 1.06, 6.06 0.8, 6.61 0.61 C7.16 0.41, 7.73 0.25, 8.3 0.15 C8.88 0.05, 9.47 0, 10.05 0 C10.63 0, 11.22 0.05, 11.79 0.15 C12.37 0.25, 12.94 0.41, 13.48 0.61 C14.03 0.8, 14.57 1.06, 15.07 1.35 C15.58 1.64, 16.06 1.98, 16.51 2.35 C16.95 2.72, 17.37 3.14, 17.75 3.59 C18.12 4.03, 18.46 4.52, 18.75 5.02 C19.04 5.53, 19.29 6.06, 19.49 6.61 C19.69 7.16, 19.84 7.73, 19.94 8.3 C20.04 8.88, 20.07 9.76, 20.1 10.05 C20.12 10.34, 20.12 9.76, 20.1 10.05" stroke="#E1E1E1" stroke-width="4" fill="none"></path></g><g stroke-linecap="round"><g transform="translate(282.21376675411113 21.822877061061604) rotate(0 -24.21814337895735 42.778590861932216)"><path d="M0 0 C-3.41 0.37, -14 1.56, -20.45 2.19 C-26.9 2.83, -34.79 3.43, -38.71 3.8 C-42.64 4.17, -42.47 3.82, -44.01 4.42 C-45.54 5.01, -47.18 5.57, -47.92 7.37 C-48.66 9.17, -48.37 10.09, -48.44 15.2 C-48.51 20.3, -48.37 29.72, -48.33 37.99 C-48.29 46.27, -48.2 58.4, -48.19 64.84 C-48.19 71.28, -48.65 73.88, -48.31 76.65 C-47.97 79.43, -47.93 80.45, -46.16 81.49 C-44.38 82.53, -42.05 82.41, -37.67 82.9 C-33.3 83.39, -26.13 84.01, -19.91 84.45 C-13.69 84.89, -3.63 85.37, -0.37 85.56 M0 0 C-3.41 0.37, -14 1.56, -20.45 2.19 C-26.9 2.83, -34.79 3.43, -38.71 3.8 C-42.64 4.17, -42.47 3.82, -44.01 4.42 C-45.54 5.01, -47.18 5.57, -47.92 7.37 C-48.66 9.17, -48.37 10.09, -48.44 15.2 C-48.51 20.3, -48.37 29.72, -48.33 37.99 C-48.29 46.27, -48.2 58.4, -48.19 64.84 C-48.19 71.28, -48.65 73.88, -48.31 76.65 C-47.97 79.43, -47.93 80.45, -46.16 81.49 C-44.38 82.53, -42.05 82.41, -37.67 82.9 C-33.3 83.39, -26.13 84.01, -19.91 84.45 C-13.69 84.89, -3.63 85.37, -0.37 85.56" stroke="#E1E1E1" stroke-width="4" fill="none"></path></g></g><mask></mask><g stroke-linecap="round"><g transform="translate(282.6950786517233 22.269972473061102) rotate(0 10.28091337695514 41.963668229600955)"><path d="M0 0 C0.02 4.43, 0.14 13.67, 0.13 26.58 C0.13 39.48, 0.05 66.87, -0.03 77.45 C-0.11 88.04, -0.65 87.12, -0.34 90.07 C-0.03 93.01, 0.18 94.15, 1.85 95.12 C3.52 96.1, 7.18 95.84, 9.68 95.94 C12.18 96.04, 15.12 96.53, 16.85 95.71 C18.58 94.9, 19.51 95, 20.07 91.07 C20.62 87.13, 20.13 81.08, 20.19 72.11 C20.25 63.14, 20.31 48.37, 20.41 37.25 C20.5 26.14, 20.69 12.64, 20.78 5.42 C20.86 -1.81, 21.37 -3.37, 20.9 -6.11 C20.43 -8.85, 19.29 -10.04, 17.95 -11.02 C16.6 -12, 14.88 -11.82, 12.82 -11.99 C10.76 -12.15, 7.62 -12.52, 5.59 -12.01 C3.57 -11.51, 1.6 -10.97, 0.67 -8.97 C-0.27 -6.96, 0.11 -1.49, 0 0 M0 0 C0.02 4.43, 0.14 13.67, 0.13 26.58 C0.13 39.48, 0.05 66.87, -0.03 77.45 C-0.11 88.04, -0.65 87.12, -0.34 90.07 C-0.03 93.01, 0.18 94.15, 1.85 95.12 C3.52 96.1, 7.18 95.84, 9.68 95.94 C12.18 96.04, 15.12 96.53, 16.85 95.71 C18.58 94.9, 19.51 95, 20.07 91.07 C20.62 87.13, 20.13 81.08, 20.19 72.11 C20.25 63.14, 20.31 48.37, 20.41 37.25 C20.5 26.14, 20.69 12.64, 20.78 5.42 C20.86 -1.81, 21.37 -3.37, 20.9 -6.11 C20.43 -8.85, 19.29 -10.04, 17.95 -11.02 C16.6 -12, 14.88 -11.82, 12.82 -11.99 C10.76 -12.15, 7.62 -12.52, 5.59 -12.01 C3.57 -11.51, 1.6 -10.97, 0.67 -8.97 C-0.27 -6.96, 0.11 -1.49, 0 0" stroke="#E1E1E1" stroke-width="4" fill="none"></path></g></g><mask></mask><g stroke-linecap="round"><g transform="translate(233.133868635152 35.214677372339224) rotate(0 -96.65700114930098 123.90776397957916)"><path d="M0 0 C-7.42 0, -31.01 0, -44.52 0 C-58.04 0, -71.39 -0.02, -81.11 0 C-90.84 0.02, -96.32 -0.34, -102.89 0.09 C-109.47 0.53, -114.47 1.24, -120.58 2.6 C-126.69 3.97, -132.83 5.84, -139.55 8.27 C-146.27 10.7, -154.7 13.94, -160.87 17.2 C-167.04 20.46, -171.3 23.61, -176.59 27.83 C-181.87 32.05, -187.93 37.41, -192.56 42.52 C-197.2 47.62, -200.82 52.7, -204.39 58.46 C-207.97 64.23, -211.25 70.23, -214 77.11 C-216.75 83.99, -219.37 91.73, -220.88 99.74 C-222.4 107.76, -223.27 116.61, -223.12 125.18 C-222.97 133.75, -222.13 142.4, -219.98 151.16 C-217.84 159.92, -214.23 169.48, -210.24 177.75 C-206.26 186.01, -201.53 193.91, -196.08 200.75 C-190.62 207.59, -185.01 212.97, -177.5 218.8 C-169.99 224.63, -159.66 231.45, -151.02 235.71 C-142.38 239.97, -134.96 242.33, -125.66 244.35 C-116.36 246.37, -105.88 247.92, -95.23 247.82 C-84.58 247.71, -72.7 246.84, -61.75 243.7 C-50.8 240.57, -39 234.88, -29.52 228.99 C-20.05 223.1, -12.32 216.25, -4.93 208.37 C2.46 200.48, 9.58 191.33, 14.81 181.68 C20.04 172.02, 23.94 161.6, 26.44 150.45 C28.94 139.3, 29.94 124.9, 29.8 114.76 C29.67 104.62, 27.36 96.87, 25.63 89.59 C23.91 82.32, 20.48 74.2, 19.45 71.12 M0 0 C-7.42 0, -31.01 0, -44.52 0 C-58.04 0, -71.39 -0.02, -81.11 0 C-90.84 0.02, -96.32 -0.34, -102.89 0.09 C-109.47 0.53, -114.47 1.24, -120.58 2.6 C-126.69 3.97, -132.83 5.84, -139.55 8.27 C-146.27 10.7, -154.7 13.94, -160.87 17.2 C-167.04 20.46, -171.3 23.61, -176.59 27.83 C-181.87 32.05, -187.93 37.41, -192.56 42.52 C-197.2 47.62, -200.82 52.7, -204.39 58.46 C-207.97 64.23, -211.25 70.23, -214 77.11 C-216.75 83.99, -219.37 91.73, -220.88 99.74 C-222.4 107.76, -223.27 116.61, -223.12 125.18 C-222.97 133.75, -222.13 142.4, -219.98 151.16 C-217.84 159.92, -214.23 169.48, -210.24 177.75 C-206.26 186.01, -201.53 193.91, -196.08 200.75 C-190.62 207.59, -185.01 212.97, -177.5 218.8 C-169.99 224.63, -159.66 231.45, -151.02 235.71 C-142.38 239.97, -134.96 242.33, -125.66 244.35 C-116.36 246.37, -105.88 247.92, -95.23 247.82 C-84.58 247.71, -72.7 246.84, -61.75 243.7 C-50.8 240.57, -39 234.88, -29.52 228.99 C-20.05 223.1, -12.32 216.25, -4.93 208.37 C2.46 200.48, 9.58 191.33, 14.81 181.68 C20.04 172.02, 23.94 161.6, 26.44 150.45 C28.94 139.3, 29.94 124.9, 29.8 114.76 C29.67 104.62, 27.36 96.87, 25.63 89.59 C23.91 82.32, 20.48 74.2, 19.45 71.12" stroke="#E1E1E1" stroke-width="4" fill="none"></path></g></g><mask></mask><g stroke-linecap="round"><g transform="translate(244.2754729608106 224.37315559807405) rotate(0 -15.484139016615487 25.26037184709219)"><path d="M0 0 C1.28 2.06, 6.12 9.36, 7.66 12.39 C9.2 15.42, 9.3 16.1, 9.24 18.17 C9.17 20.24, 9.18 22.02, 7.25 24.79 C5.32 27.56, 1.2 31.06, -2.35 34.78 C-5.9 38.49, -11.1 44.45, -14.05 47.08 C-17 49.7, -18.12 49.96, -20.05 50.52 C-21.97 51.08, -23.64 51.17, -25.6 50.46 C-27.57 49.75, -29.39 47.98, -31.83 46.27 C-34.26 44.55, -38.81 41.19, -40.2 40.17 M0 0 C1.28 2.06, 6.12 9.36, 7.66 12.39 C9.2 15.42, 9.3 16.1, 9.24 18.17 C9.17 20.24, 9.18 22.02, 7.25 24.79 C5.32 27.56, 1.2 31.06, -2.35 34.78 C-5.9 38.49, -11.1 44.45, -14.05 47.08 C-17 49.7, -18.12 49.96, -20.05 50.52 C-21.97 51.08, -23.64 51.17, -25.6 50.46 C-27.57 49.75, -29.39 47.98, -31.83 46.27 C-34.26 44.55, -38.81 41.19, -40.2 40.17" stroke="#E1E1E1" stroke-width="4" fill="none"></path></g></g><mask></mask><g stroke-linecap="round"><g transform="translate(151.84933679965536 262.9751768832465) rotate(44.99999999999995 -15.484139016615472 25.26037184709219)"><path d="M0 0 C1.28 2.06, 6.12 9.36, 7.66 12.39 C9.2 15.42, 9.3 16.1, 9.24 18.17 C9.17 20.24, 9.18 22.02, 7.25 24.79 C5.32 27.56, 1.2 31.06, -2.35 34.78 C-5.9 38.49, -11.1 44.45, -14.05 47.08 C-17 49.7, -18.12 49.96, -20.05 50.52 C-21.97 51.08, -23.64 51.17, -25.6 50.46 C-27.57 49.75, -29.39 47.98, -31.83 46.27 C-34.26 44.55, -38.81 41.19, -40.2 40.17 M0 0 C1.28 2.06, 6.12 9.36, 7.66 12.39 C9.2 15.42, 9.3 16.1, 9.24 18.17 C9.17 20.24, 9.18 22.02, 7.25 24.79 C5.32 27.56, 1.2 31.06, -2.35 34.78 C-5.9 38.49, -11.1 44.45, -14.05 47.08 C-17 49.7, -18.12 49.96, -20.05 50.52 C-21.97 51.08, -23.64 51.17, -25.6 50.46 C-27.57 49.75, -29.39 47.98, -31.83 46.27 C-34.26 44.55, -38.81 41.19, -40.2 40.17" stroke="#E1E1E1" stroke-width="4" fill="none"></path></g></g><mask></mask><g stroke-linecap="round"><g transform="translate(58.72355434748181 223.53798970809692) rotate(89.99999999999994 -15.484139016615472 25.26037184709219)"><path d="M0 0 C1.28 2.06, 6.12 9.36, 7.66 12.39 C9.2 15.42, 9.3 16.1, 9.24 18.17 C9.17 20.24, 9.18 22.02, 7.25 24.79 C5.32 27.56, 1.2 31.06, -2.35 34.78 C-5.9 38.49, -11.1 44.45, -14.05 47.08 C-17 49.7, -18.12 49.96, -20.05 50.52 C-21.97 51.08, -23.64 51.17, -25.6 50.46 C-27.57 49.75, -29.39 47.98, -31.83 46.27 C-34.26 44.55, -38.81 41.19, -40.2 40.17 M0 0 C1.28 2.06, 6.12 9.36, 7.66 12.39 C9.2 15.42, 9.3 16.1, 9.24 18.17 C9.17 20.24, 9.18 22.02, 7.25 24.79 C5.32 27.56, 1.2 31.06, -2.35 34.78 C-5.9 38.49, -11.1 44.45, -14.05 47.08 C-17 49.7, -18.12 49.96, -20.05 50.52 C-21.97 51.08, -23.64 51.17, -25.6 50.46 C-27.57 49.75, -29.39 47.98, -31.83 46.27 C-34.26 44.55, -38.81 41.19, -40.2 40.17" stroke="#E1E1E1" stroke-width="4" fill="none"></path></g></g><mask></mask><g stroke-linecap="round"><g transform="translate(61.76146154798755 39.379615868558744) rotate(180 -16.088741834172055 25.865862046474888)"><path d="M0 0 C1.43 2.27, 6.87 10.37, 8.56 13.6 C10.25 16.83, 10.2 17.31, 10.13 19.38 C10.06 21.45, 10.08 23.24, 8.15 26 C6.22 28.77, 2.09 32.27, -1.46 35.99 C-5.01 39.7, -10.21 45.66, -13.16 48.29 C-16.11 50.91, -17.23 51.17, -19.15 51.73 C-21.08 52.3, -22.74 52.38, -24.71 51.67 C-26.67 50.96, -28 49.5, -30.93 47.48 C-33.86 45.46, -40.41 40.85, -42.31 39.53 M0 0 C1.43 2.27, 6.87 10.37, 8.56 13.6 C10.25 16.83, 10.2 17.31, 10.13 19.38 C10.06 21.45, 10.08 23.24, 8.15 26 C6.22 28.77, 2.09 32.27, -1.46 35.99 C-5.01 39.7, -10.21 45.66, -13.16 48.29 C-16.11 50.91, -17.23 51.17, -19.15 51.73 C-21.08 52.3, -22.74 52.38, -24.71 51.67 C-26.67 50.96, -28 49.5, -30.93 47.48 C-33.86 45.46, -40.41 40.85, -42.31 39.53" stroke="#E1E1E1" stroke-width="4" fill="none"></path></g></g><mask></mask><g stroke-linecap="round"><g transform="translate(215.55063952168905 35.94075003532555) rotate(0 0 11.523955035567397)"><path d="M0 0 C0 3.84, 0 19.21, 0 23.05 M0 0 C0 3.84, 0 19.21, 0 23.05" stroke="#E1E1E1" stroke-width="4" fill="none"></path></g></g><mask></mask><g stroke-linecap="round" transform="translate(39.66716472770452 98.81104638458066) rotate(29.999999999999964 4.527974275245498 4.527974275245498)"><path d="M2.26 0 C3.69 0, 5.12 0, 6.79 0 M2.26 0 C3.45 0, 4.63 0, 6.79 0 M6.79 0 C8.3 0, 9.06 0.75, 9.06 2.26 M6.79 0 C8.3 0, 9.06 0.75, 9.06 2.26 M9.06 2.26 C9.06 3.22, 9.06 4.18, 9.06 6.79 M9.06 2.26 C9.06 3.59, 9.06 4.91, 9.06 6.79 M9.06 6.79 C9.06 8.3, 8.3 9.06, 6.79 9.06 M9.06 6.79 C9.06 8.3, 8.3 9.06, 6.79 9.06 M6.79 9.06 C5.03 9.06, 3.27 9.06, 2.26 9.06 M6.79 9.06 C5.49 9.06, 4.2 9.06, 2.26 9.06 M2.26 9.06 C0.75 9.06, 0 8.3, 0 6.79 M2.26 9.06 C0.75 9.06, 0 8.3, 0 6.79 M0 6.79 C0 5.34, 0 3.88, 0 2.26 M0 6.79 C0 5.1, 0 3.4, 0 2.26 M0 2.26 C0 0.75, 0.75 0, 2.26 0 M0 2.26 C0 0.75, 0.75 0, 2.26 0" stroke="#E1E1E1" stroke-width="4" fill="none"></path></g><g stroke-linecap="round"><g transform="translate(33.815872169805175 114.03509625414438) rotate(0 47.65422617553682 77.92774705792337)"><path d="M0 0 C1.32 0.58, 7.08 1.21, 7.93 3.47 C8.77 5.74, 6.16 9.58, 5.07 13.59 C3.98 17.6, 2.15 22.06, 1.4 27.52 C0.66 32.98, 0.28 39.5, 0.59 46.35 C0.91 53.2, 2.14 62.98, 3.27 68.61 C4.39 74.25, 6.05 76.74, 7.37 80.16 C8.69 83.57, 9.4 85.45, 11.19 89.08 C12.98 92.7, 15.12 97.63, 18.11 101.9 C21.09 106.17, 25.09 110.63, 29.1 114.72 C33.11 118.8, 37.97 123.15, 42.16 126.41 C46.35 129.66, 49.68 131.85, 54.24 134.22 C58.8 136.59, 64.21 138.94, 69.51 140.63 C74.81 142.32, 81.28 143.58, 86.04 144.36 C90.79 145.15, 95.25 145.13, 98.05 145.36 C100.85 145.6, 101.97 144.89, 102.84 145.78 C103.71 146.68, 103.21 149.08, 103.27 150.73 C103.33 152.38, 104.04 154.81, 103.2 155.66 C102.36 156.51, 100.85 155.98, 98.22 155.86 C95.58 155.73, 91.33 155.54, 87.39 154.89 C83.46 154.24, 78.63 153.13, 74.59 151.95 C70.55 150.77, 67.2 149.47, 63.16 147.82 C59.13 146.16, 54.7 144.43, 50.4 142.01 C46.09 139.59, 40.9 135.94, 37.31 133.3 C33.72 130.66, 32.38 129.51, 28.85 126.16 C25.32 122.82, 19.75 117.67, 16.12 113.22 C12.5 108.78, 9.99 104.58, 7.09 99.48 C4.18 94.39, 0.76 87.85, -1.31 82.67 C-3.39 77.49, -4.27 73.52, -5.38 68.41 C-6.48 63.29, -7.5 57.52, -7.93 51.97 C-8.36 46.41, -8.27 40.32, -7.96 35.08 C-7.65 29.85, -6.88 25.09, -6.07 20.57 C-5.26 16.05, -4.11 11.4, -3.1 7.97 C-2.09 4.54, -0.52 1.33, 0 0 M0 0 C1.32 0.58, 7.08 1.21, 7.93 3.47 C8.77 5.74, 6.16 9.58, 5.07 13.59 C3.98 17.6, 2.15 22.06, 1.4 27.52 C0.66 32.98, 0.28 39.5, 0.59 46.35 C0.91 53.2, 2.14 62.98, 3.27 68.61 C4.39 74.25, 6.05 76.74, 7.37 80.16 C8.69 83.57, 9.4 85.45, 11.19 89.08 C12.98 92.7, 15.12 97.63, 18.11 101.9 C21.09 106.17, 25.09 110.63, 29.1 114.72 C33.11 118.8, 37.97 123.15, 42.16 126.41 C46.35 129.66, 49.68 131.85, 54.24 134.22 C58.8 136.59, 64.21 138.94, 69.51 140.63 C74.81 142.32, 81.28 143.58, 86.04 144.36 C90.79 145.15, 95.25 145.13, 98.05 145.36 C100.85 145.6, 101.97 144.89, 102.84 145.78 C103.71 146.68, 103.21 149.08, 103.27 150.73 C103.33 152.38, 104.04 154.81, 103.2 155.66 C102.36 156.51, 100.85 155.98, 98.22 155.86 C95.58 155.73, 91.33 155.54, 87.39 154.89 C83.46 154.24, 78.63 153.13, 74.59 151.95 C70.55 150.77, 67.2 149.47, 63.16 147.82 C59.13 146.16, 54.7 144.43, 50.4 142.01 C46.09 139.59, 40.9 135.94, 37.31 133.3 C33.72 130.66, 32.38 129.51, 28.85 126.16 C25.32 122.82, 19.75 117.67, 16.12 113.22 C12.5 108.78, 9.99 104.58, 7.09 99.48 C4.18 94.39, 0.76 87.85, -1.31 82.67 C-3.39 77.49, -4.27 73.52, -5.38 68.41 C-6.48 63.29, -7.5 57.52, -7.93 51.97 C-8.36 46.41, -8.27 40.32, -7.96 35.08 C-7.65 29.85, -6.88 25.09, -6.07 20.57 C-5.26 16.05, -4.11 11.4, -3.1 7.97 C-2.09 4.54, -0.52 1.33, 0 0" stroke="#E1E1E1" stroke-width="4" fill="none"></path></g></g><mask></mask></svg>