<svg version="1.1" xmlns="http://www.w3.org/2000/svg" viewBox="0 0 593.4016363897529 589.260256184449" width="593.4016363897529" height="589.260256184449" class="excalidraw-svg"><!-- svg-source:excalidraw --><metadata></metadata><defs><style class="style-fonts">
      </style></defs><rect x="0" y="0" width="593.4016363897529" height="589.260256184449" fill="#000000"></rect><g stroke-linecap="round"><g transform="translate(137.21634939564154 495.0283163137998) rotate(0 29.024569292808295 36.960705519130336)"><path d="M0 0 C4.75 0.07, 19.31 0.42, 28.49 0.41 C37.67 0.4, 50.1 -3.75, 55.08 -0.06 C60.06 3.62, 57.83 12.99, 58.38 22.53 C58.92 32.07, 60.53 50.73, 58.34 57.17 C56.15 63.6, 48.85 60.46, 45.21 61.14 C41.57 61.83, 37.96 59.43, 36.51 61.29 C35.06 63.15, 38.48 70.19, 36.51 72.31 C34.54 74.42, 29.96 73.71, 24.67 73.98 C19.39 74.25, 8.96 75.28, 4.8 73.92 C0.63 72.57, 0.54 73.17, -0.31 65.85 C-1.17 58.52, -0.38 40.94, -0.33 29.97 C-0.28 18.99, -0.05 4.99, 0 0 M0 0 C4.75 0.07, 19.31 0.42, 28.49 0.41 C37.67 0.4, 50.1 -3.75, 55.08 -0.06 C60.06 3.62, 57.83 12.99, 58.38 22.53 C58.92 32.07, 60.53 50.73, 58.34 57.17 C56.15 63.6, 48.85 60.46, 45.21 61.14 C41.57 61.83, 37.96 59.43, 36.51 61.29 C35.06 63.15, 38.48 70.19, 36.51 72.31 C34.54 74.42, 29.96 73.71, 24.67 73.98 C19.39 74.25, 8.96 75.28, 4.8 73.92 C0.63 72.57, 0.54 73.17, -0.31 65.85 C-1.17 58.52, -0.38 40.94, -0.33 29.97 C-0.28 18.99, -0.05 4.99, 0 0" stroke="#E1E1E1" stroke-width="4" fill="none"></path></g></g><mask></mask><g stroke-linecap="round"><g transform="translate(193.5993208971433 495.9096834466119) rotate(0 65.19357720481227 10.007732191531506)"><path d="M0 0 C1.75 -2.29, 6.23 -9.83, 10.51 -13.74 C14.79 -17.66, 20.24 -21.76, 25.7 -23.51 C31.16 -25.26, 37.69 -25.24, 43.27 -24.23 C48.85 -23.22, 54.55 -20.64, 59.18 -17.46 C63.8 -14.27, 65.66 -8.26, 71.03 -5.12 C76.39 -1.98, 84.38 -0.74, 91.37 1.37 C98.37 3.47, 107.34 5.51, 113 7.51 C118.67 9.51, 122.47 10.71, 125.36 13.35 C128.26 15.99, 129.76 19.73, 130.39 23.34 C131.02 26.95, 130.61 31.87, 129.15 35.03 C127.7 38.2, 124.71 40.79, 121.64 42.33 C118.57 43.87, 115.28 44.71, 110.75 44.24 C106.21 43.78, 100.39 41.47, 94.41 39.55 C88.42 37.63, 81.93 35.07, 74.83 32.74 C67.73 30.41, 55.63 26.77, 51.79 25.58 M0 0 C1.75 -2.29, 6.23 -9.83, 10.51 -13.74 C14.79 -17.66, 20.24 -21.76, 25.7 -23.51 C31.16 -25.26, 37.69 -25.24, 43.27 -24.23 C48.85 -23.22, 54.55 -20.64, 59.18 -17.46 C63.8 -14.27, 65.66 -8.26, 71.03 -5.12 C76.39 -1.98, 84.38 -0.74, 91.37 1.37 C98.37 3.47, 107.34 5.51, 113 7.51 C118.67 9.51, 122.47 10.71, 125.36 13.35 C128.26 15.99, 129.76 19.73, 130.39 23.34 C131.02 26.95, 130.61 31.87, 129.15 35.03 C127.7 38.2, 124.71 40.79, 121.64 42.33 C118.57 43.87, 115.28 44.71, 110.75 44.24 C106.21 43.78, 100.39 41.47, 94.41 39.55 C88.42 37.63, 81.93 35.07, 74.83 32.74 C67.73 30.41, 55.63 26.77, 51.79 25.58" stroke="#E1E1E1" stroke-width="4" fill="none"></path></g></g><mask></mask><g stroke-linecap="round"><g transform="translate(325.6327158296173 522.0334052631639) rotate(0 -27.040343634676475 20.88763464144747)"><path d="M0 0 C5.67 -1.64, 24.74 -7.25, 34.01 -9.82 C43.27 -12.39, 49.71 -15.27, 55.6 -15.41 C61.48 -15.55, 66.26 -13.92, 69.32 -10.65 C72.38 -7.37, 74.11 -0.17, 73.97 4.23 C73.83 8.64, 72.56 12.41, 68.5 15.8 C64.43 19.18, 59.42 20.85, 49.6 24.54 C39.77 28.24, 23.33 33.04, 9.57 37.97 C-4.2 42.91, -23.37 50.94, -33 54.14 C-42.63 57.34, -42.52 57.32, -48.23 57.18 C-53.95 57.05, -61.08 55.56, -67.29 53.35 C-73.51 51.15, -79.18 47.09, -85.51 43.95 C-91.84 40.81, -100.43 36.96, -105.28 34.53 C-110.13 32.1, -110.82 30.55, -114.61 29.35 C-118.41 28.16, -125.81 27.71, -128.05 27.39 M0 0 C5.67 -1.64, 24.74 -7.25, 34.01 -9.82 C43.27 -12.39, 49.71 -15.27, 55.6 -15.41 C61.48 -15.55, 66.26 -13.92, 69.32 -10.65 C72.38 -7.37, 74.11 -0.17, 73.97 4.23 C73.83 8.64, 72.56 12.41, 68.5 15.8 C64.43 19.18, 59.42 20.85, 49.6 24.54 C39.77 28.24, 23.33 33.04, 9.57 37.97 C-4.2 42.91, -23.37 50.94, -33 54.14 C-42.63 57.34, -42.52 57.32, -48.23 57.18 C-53.95 57.05, -61.08 55.56, -67.29 53.35 C-73.51 51.15, -79.18 47.09, -85.51 43.95 C-91.84 40.81, -100.43 36.96, -105.28 34.53 C-110.13 32.1, -110.82 30.55, -114.61 29.35 C-118.41 28.16, -125.81 27.71, -128.05 27.39" stroke="#E1E1E1" stroke-width="4" fill="none"></path></g></g><mask></mask><g stroke-linecap="round"><g transform="translate(173.53020807991032 495.91428188382736) rotate(0 0 30.471544203025196)"><path d="M0 0 C0 10.16, 0 50.79, 0 60.94 M0 0 C0 10.16, 0 50.79, 0 60.94" stroke="#E1E1E1" stroke-width="4" fill="none"></path></g></g><mask></mask><g stroke-linecap="round" transform="translate(223.47076904365366 510.89445751682354) rotate(0 4.107170838904722 4.107170838904722)"><path d="M8.21 4.11 C8.21 4.34, 8.19 4.59, 8.15 4.82 C8.11 5.05, 8.05 5.29, 7.97 5.51 C7.89 5.74, 7.78 5.95, 7.66 6.16 C7.55 6.37, 7.41 6.57, 7.25 6.75 C7.1 6.93, 6.93 7.1, 6.75 7.25 C6.57 7.41, 6.37 7.55, 6.16 7.66 C5.95 7.78, 5.74 7.89, 5.51 7.97 C5.29 8.05, 5.05 8.11, 4.82 8.15 C4.59 8.19, 4.34 8.21, 4.11 8.21 C3.87 8.21, 3.63 8.19, 3.39 8.15 C3.16 8.11, 2.93 8.05, 2.7 7.97 C2.48 7.89, 2.26 7.78, 2.05 7.66 C1.85 7.55, 1.65 7.41, 1.47 7.25 C1.29 7.1, 1.11 6.93, 0.96 6.75 C0.81 6.57, 0.67 6.37, 0.55 6.16 C0.43 5.95, 0.33 5.74, 0.25 5.51 C0.17 5.29, 0.1 5.05, 0.06 4.82 C0.02 4.59, 0 4.34, 0 4.11 C0 3.87, 0.02 3.63, 0.06 3.39 C0.1 3.16, 0.17 2.93, 0.25 2.7 C0.33 2.48, 0.43 2.26, 0.55 2.05 C0.67 1.85, 0.81 1.65, 0.96 1.47 C1.11 1.29, 1.29 1.11, 1.47 0.96 C1.65 0.81, 1.85 0.67, 2.05 0.55 C2.26 0.43, 2.48 0.33, 2.7 0.25 C2.93 0.17, 3.16 0.1, 3.39 0.06 C3.63 0.02, 3.87 0, 4.11 0 C4.34 0, 4.59 0.02, 4.82 0.06 C5.05 0.1, 5.29 0.17, 5.51 0.25 C5.74 0.33, 5.95 0.43, 6.16 0.55 C6.37 0.67, 6.57 0.81, 6.75 0.96 C6.93 1.11, 7.1 1.29, 7.25 1.47 C7.41 1.65, 7.55 1.85, 7.66 2.05 C7.78 2.26, 7.89 2.48, 7.97 2.7 C8.05 2.93, 8.11 3.16, 8.15 3.39 C8.19 3.63, 8.2 3.99, 8.21 4.11 C8.22 4.23, 8.22 3.99, 8.21 4.11" stroke="#E1E1E1" stroke-width="4" fill="none"></path></g><g stroke-linecap="round" transform="translate(488.318337059469 192.37092477430326) rotate(0 4.107170838904722 4.107170838904722)"><path d="M8.21 4.11 C8.21 4.34, 8.19 4.59, 8.15 4.82 C8.11 5.05, 8.05 5.29, 7.97 5.51 C7.89 5.74, 7.78 5.95, 7.66 6.16 C7.55 6.37, 7.41 6.57, 7.25 6.75 C7.1 6.93, 6.93 7.1, 6.75 7.25 C6.57 7.41, 6.37 7.55, 6.16 7.66 C5.95 7.78, 5.74 7.89, 5.51 7.97 C5.29 8.05, 5.05 8.11, 4.82 8.15 C4.59 8.19, 4.34 8.21, 4.11 8.21 C3.87 8.21, 3.63 8.19, 3.39 8.15 C3.16 8.11, 2.93 8.05, 2.7 7.97 C2.48 7.89, 2.26 7.78, 2.05 7.66 C1.85 7.55, 1.65 7.41, 1.47 7.25 C1.29 7.1, 1.11 6.93, 0.96 6.75 C0.81 6.57, 0.67 6.37, 0.55 6.16 C0.43 5.95, 0.33 5.74, 0.25 5.51 C0.17 5.29, 0.1 5.05, 0.06 4.82 C0.02 4.59, 0 4.34, 0 4.11 C0 3.87, 0.02 3.63, 0.06 3.39 C0.1 3.16, 0.17 2.93, 0.25 2.7 C0.33 2.48, 0.43 2.26, 0.55 2.05 C0.67 1.85, 0.81 1.65, 0.96 1.47 C1.11 1.29, 1.29 1.11, 1.47 0.96 C1.65 0.81, 1.85 0.67, 2.05 0.55 C2.26 0.43, 2.48 0.33, 2.7 0.25 C2.93 0.17, 3.16 0.1, 3.39 0.06 C3.63 0.02, 3.87 0, 4.11 0 C4.34 0, 4.59 0.02, 4.82 0.06 C5.05 0.1, 5.29 0.17, 5.51 0.25 C5.74 0.33, 5.95 0.43, 6.16 0.55 C6.37 0.67, 6.57 0.81, 6.75 0.96 C6.93 1.11, 7.1 1.29, 7.25 1.47 C7.41 1.65, 7.55 1.85, 7.66 2.05 C7.78 2.26, 7.89 2.48, 7.97 2.7 C8.05 2.93, 8.11 3.16, 8.15 3.39 C8.19 3.63, 8.2 3.99, 8.21 4.11 C8.22 4.23, 8.22 3.99, 8.21 4.11" stroke="#E1E1E1" stroke-width="4" fill="none"></path></g><g stroke-linecap="round"><g transform="translate(524.5512631047006 143.41401389809846) rotate(180.28619425078364 29.024569292808287 36.96070551913034)"><path d="M0 0 C4.75 0.07, 19.31 0.42, 28.49 0.41 C37.67 0.4, 50.1 -3.75, 55.08 -0.06 C60.06 3.62, 57.83 12.99, 58.38 22.53 C58.92 32.07, 60.53 50.73, 58.34 57.17 C56.15 63.6, 48.85 60.46, 45.21 61.14 C41.57 61.83, 37.96 59.43, 36.51 61.29 C35.06 63.15, 38.48 70.19, 36.51 72.31 C34.54 74.42, 29.96 73.71, 24.67 73.98 C19.39 74.25, 8.96 75.28, 4.8 73.92 C0.63 72.57, 0.54 73.17, -0.31 65.85 C-1.17 58.52, -0.38 40.94, -0.33 29.97 C-0.28 18.99, -0.05 4.99, 0 0 M0 0 C4.75 0.07, 19.31 0.42, 28.49 0.41 C37.67 0.4, 50.1 -3.75, 55.08 -0.06 C60.06 3.62, 57.83 12.99, 58.38 22.53 C58.92 32.07, 60.53 50.73, 58.34 57.17 C56.15 63.6, 48.85 60.46, 45.21 61.14 C41.57 61.83, 37.96 59.43, 36.51 61.29 C35.06 63.15, 38.48 70.19, 36.51 72.31 C34.54 74.42, 29.96 73.71, 24.67 73.98 C19.39 74.25, 8.96 75.28, 4.8 73.92 C0.63 72.57, 0.54 73.17, -0.31 65.85 C-1.17 58.52, -0.38 40.94, -0.33 29.97 C-0.28 18.99, -0.05 4.99, 0 0" stroke="#E1E1E1" stroke-width="4" fill="none"></path></g></g><mask></mask><g stroke-linecap="round"><g transform="translate(546.9644771186815 154.57126838558963) rotate(180.28619425078364 0 30.471544203025204)"><path d="M0 0 C0 10.16, 0 50.79, 0 60.94 M0 0 C0 10.16, 0 50.79, 0 60.94" stroke="#E1E1E1" stroke-width="4" fill="none"></path></g></g><mask></mask><g stroke-linecap="round"><g transform="translate(526.1611761176121 214.29703982006558) rotate(0 -65.33536235226468 -7.118380808311954)"><path d="M0 0 C-1.22 2.13, -4.01 9.12, -7.31 12.79 C-10.6 16.46, -14.82 19.67, -19.78 22.01 C-24.73 24.36, -31.29 26.79, -37.03 26.85 C-42.76 26.92, -49.46 24.19, -54.21 22.41 C-58.96 20.63, -62.93 18.49, -65.52 16.18 C-68.11 13.87, -65.75 10.83, -69.75 8.54 C-73.76 6.25, -82.89 4.57, -89.53 2.44 C-96.18 0.3, -103.65 -2.14, -109.61 -4.28 C-115.57 -6.42, -121.79 -7.76, -125.3 -10.41 C-128.81 -13.06, -130.16 -16.38, -130.67 -20.17 C-131.18 -23.97, -130.34 -29.76, -128.35 -33.18 C-126.36 -36.59, -122.77 -39.34, -118.73 -40.66 C-114.69 -41.98, -109.75 -41.95, -104.1 -41.09 C-98.46 -40.22, -91.47 -37.6, -84.85 -35.47 C-78.22 -33.34, -70.12 -30.34, -64.34 -28.32 C-58.57 -26.31, -52.56 -24.22, -50.21 -23.39 M0 0 C-1.22 2.13, -4.01 9.12, -7.31 12.79 C-10.6 16.46, -14.82 19.67, -19.78 22.01 C-24.73 24.36, -31.29 26.79, -37.03 26.85 C-42.76 26.92, -49.46 24.19, -54.21 22.41 C-58.96 20.63, -62.93 18.49, -65.52 16.18 C-68.11 13.87, -65.75 10.83, -69.75 8.54 C-73.76 6.25, -82.89 4.57, -89.53 2.44 C-96.18 0.3, -103.65 -2.14, -109.61 -4.28 C-115.57 -6.42, -121.79 -7.76, -125.3 -10.41 C-128.81 -13.06, -130.16 -16.38, -130.67 -20.17 C-131.18 -23.97, -130.34 -29.76, -128.35 -33.18 C-126.36 -36.59, -122.77 -39.34, -118.73 -40.66 C-114.69 -41.98, -109.75 -41.95, -104.1 -41.09 C-98.46 -40.22, -91.47 -37.6, -84.85 -35.47 C-78.22 -33.34, -70.12 -30.34, -64.34 -28.32 C-58.57 -26.31, -52.56 -24.22, -50.21 -23.39" stroke="#E1E1E1" stroke-width="4" fill="none"></path></g></g><mask></mask><g stroke-linecap="round"><g transform="translate(422.85115284038164 172.7808158336012) rotate(0 -26.21339134223902 40.179611569399995)"><path d="M0 0 C-2.18 -2.29, -7.56 -8.08, -13.1 -13.74 C-18.63 -19.41, -27.4 -28.24, -33.2 -33.99 C-39.01 -39.75, -43.58 -47.53, -47.92 -48.27 C-52.26 -49.01, -54.72 -42.81, -59.26 -38.43 C-63.8 -34.06, -68.95 -28.28, -75.14 -22.01 C-81.33 -15.73, -90.26 -6.88, -96.4 -0.79 C-102.53 5.31, -110.89 9.79, -111.95 14.56 C-113.01 19.32, -109.58 20.5, -102.74 27.81 C-95.9 35.12, -82.29 47.14, -70.91 58.43 C-59.54 69.71, -44.37 85.49, -34.49 95.52 C-24.6 105.56, -17.08 113.13, -11.6 118.65 C-6.11 124.17, -5.32 128.65, -1.57 128.63 C2.18 128.61, 4.64 124.55, 10.92 118.54 C17.2 112.53, 28.01 101.02, 36.11 92.57 C44.21 84.13, 55.62 71.98, 59.52 67.86 M0 0 C-2.18 -2.29, -7.56 -8.08, -13.1 -13.74 C-18.63 -19.41, -27.4 -28.24, -33.2 -33.99 C-39.01 -39.75, -43.58 -47.53, -47.92 -48.27 C-52.26 -49.01, -54.72 -42.81, -59.26 -38.43 C-63.8 -34.06, -68.95 -28.28, -75.14 -22.01 C-81.33 -15.73, -90.26 -6.88, -96.4 -0.79 C-102.53 5.31, -110.89 9.79, -111.95 14.56 C-113.01 19.32, -109.58 20.5, -102.74 27.81 C-95.9 35.12, -82.29 47.14, -70.91 58.43 C-59.54 69.71, -44.37 85.49, -34.49 95.52 C-24.6 105.56, -17.08 113.13, -11.6 118.65 C-6.11 124.17, -5.32 128.65, -1.57 128.63 C2.18 128.61, 4.64 124.55, 10.92 118.54 C17.2 112.53, 28.01 101.02, 36.11 92.57 C44.21 84.13, 55.62 71.98, 59.52 67.86" stroke="#E1E1E1" stroke-width="4" fill="none"></path></g></g><mask></mask><g stroke-linecap="round"><g transform="translate(457.17235539829034 224.2909766999529) rotate(0 4.029763812457649 16.434814605238387)"><path d="M0 0 C-0.08 1.66, -0.64 6.55, -0.51 9.98 C-0.37 13.4, -0.72 16.73, 0.79 20.54 C2.3 24.36, 7.27 30.81, 8.57 32.87 M0 0 C-0.08 1.66, -0.64 6.55, -0.51 9.98 C-0.37 13.4, -0.72 16.73, 0.79 20.54 C2.3 24.36, 7.27 30.81, 8.57 32.87" stroke="#E1E1E1" stroke-width="4" fill="none"></path></g></g><mask></mask><g stroke-linecap="round"><g transform="translate(444.79029679158174 279.72053888561106) rotate(0 -22.698652497824337 -5.041419999685218)"><path d="M0 0 C-1.97 -1.25, -8.05 -5.81, -11.8 -7.49 C-15.55 -9.17, -18.82 -9.87, -22.51 -10.08 C-26.19 -10.29, -30.11 -10.29, -33.92 -8.74 C-37.74 -7.2, -43.49 -2.12, -45.4 -0.79 M0 0 C-1.97 -1.25, -8.05 -5.81, -11.8 -7.49 C-15.55 -9.17, -18.82 -9.87, -22.51 -10.08 C-26.19 -10.29, -30.11 -10.29, -33.92 -8.74 C-37.74 -7.2, -43.49 -2.12, -45.4 -0.79" stroke="#E1E1E1" stroke-width="4" fill="none"></path></g></g><mask></mask><g stroke-linecap="round"><g transform="translate(332.027419413391 211.5149853051863) rotate(0 4.179979428136967 -22.51011657202268)"><path d="M0 0 C1.09 -1.99, 5.15 -7.51, 6.55 -11.96 C7.94 -16.41, 8.34 -22.8, 8.36 -26.7 C8.38 -30.6, 7.8 -32.32, 6.64 -35.37 C5.47 -38.42, 2.25 -43.41, 1.37 -45.02 M0 0 C1.09 -1.99, 5.15 -7.51, 6.55 -11.96 C7.94 -16.41, 8.34 -22.8, 8.36 -26.7 C8.38 -30.6, 7.8 -32.32, 6.64 -35.37 C5.47 -38.42, 2.25 -43.41, 1.37 -45.02" stroke="#E1E1E1" stroke-width="4" fill="none"></path></g></g><mask></mask><g stroke-linecap="round"><g transform="translate(353.4990555811002 145.30515347593212) rotate(0 21.870933799183334 3.7584560167919676)"><path d="M0 0 C2.28 1.27, 8.98 6.33, 13.69 7.59 C18.41 8.85, 23.27 8.84, 28.28 7.56 C33.29 6.28, 41.16 1.2, 43.74 -0.08 M0 0 C2.28 1.27, 8.98 6.33, 13.69 7.59 C18.41 8.85, 23.27 8.84, 28.28 7.56 C33.29 6.28, 41.16 1.2, 43.74 -0.08" stroke="#E1E1E1" stroke-width="4" fill="none"></path></g></g><mask></mask><g stroke-linecap="round"><g transform="translate(396.5174357243579 145.63164251817227) rotate(0 64.03630383911981 1.5343452172956233)"><path d="M0 0 C3.47 -1.29, 14.04 -5.7, 20.79 -7.74 C27.55 -9.79, 34.33 -11.59, 40.52 -12.27 C46.72 -12.94, 52.22 -13.06, 57.96 -11.79 C63.71 -10.51, 69.35 -7.16, 75 -4.61 C80.64 -2.06, 86.36 0.64, 91.82 3.51 C97.28 6.38, 101.74 10.64, 107.78 12.61 C113.83 14.58, 124.69 14.88, 128.07 15.34 M0 0 C3.47 -1.29, 14.04 -5.7, 20.79 -7.74 C27.55 -9.79, 34.33 -11.59, 40.52 -12.27 C46.72 -12.94, 52.22 -13.06, 57.96 -11.79 C63.71 -10.51, 69.35 -7.16, 75 -4.61 C80.64 -2.06, 86.36 0.64, 91.82 3.51 C97.28 6.38, 101.74 10.64, 107.78 12.61 C113.83 14.58, 124.69 14.88, 128.07 15.34" stroke="#E1E1E1" stroke-width="4" fill="none"></path></g></g><mask></mask><g stroke-linecap="round"><g transform="translate(396.53276384841064 184.0485198219477) rotate(0 2.5973506200873473 27.28099518224562)"><path d="M0 0 C-2.23 0.68, -9.58 1.48, -13.39 4.09 C-17.2 6.7, -20.81 11.3, -22.85 15.67 C-24.9 20.04, -25.93 25.49, -25.66 30.28 C-25.39 35.08, -24.25 40.44, -21.22 44.43 C-18.19 48.41, -12.99 52.5, -7.47 54.18 C-1.95 55.87, 6.55 55.78, 11.9 54.56 C17.25 53.34, 21.48 50.91, 24.64 46.87 C27.8 42.83, 29.82 33.07, 30.85 30.31 M0 0 C-2.23 0.68, -9.58 1.48, -13.39 4.09 C-17.2 6.7, -20.81 11.3, -22.85 15.67 C-24.9 20.04, -25.93 25.49, -25.66 30.28 C-25.39 35.08, -24.25 40.44, -21.22 44.43 C-18.19 48.41, -12.99 52.5, -7.47 54.18 C-1.95 55.87, 6.55 55.78, 11.9 54.56 C17.25 53.34, 21.48 50.91, 24.64 46.87 C27.8 42.83, 29.82 33.07, 30.85 30.31" stroke="#E1E1E1" stroke-width="4" fill="none"></path></g></g><mask></mask><g stroke-linecap="round"><g transform="translate(328.4490978081905 488.9129863309337) rotate(0 -1.4559248286891489 -65.02816137855781)"><path d="M0 0 C7.82 -8.85, 32.9 -37.43, 46.94 -53.1 C60.98 -68.78, 79.23 -84.79, 84.22 -94.06 C89.2 -103.34, 80.95 -102.96, 76.84 -108.75 C72.73 -114.54, 65.32 -125.27, 59.55 -128.82 C53.78 -132.37, 50.22 -129.96, 42.19 -130.06 C34.17 -130.15, 24.01 -129.6, 11.4 -129.41 C-1.21 -129.22, -21.94 -128.91, -33.46 -128.94 C-44.98 -128.96, -52.57 -130.43, -57.72 -129.55 C-62.87 -128.66, -61.46 -126.86, -64.37 -123.62 C-67.28 -120.39, -71.41 -114.76, -75.2 -110.15 C-79 -105.55, -86.31 -100.07, -87.13 -95.99 C-87.95 -91.91, -85.25 -91.83, -80.12 -85.65 C-74.98 -79.48, -64.54 -67.91, -56.34 -58.94 C-48.14 -49.97, -40.3 -41.66, -30.91 -31.84 C-21.52 -22.02, -5.15 -5.31, 0 0 M0 0 C7.82 -8.85, 32.9 -37.43, 46.94 -53.1 C60.98 -68.78, 79.23 -84.79, 84.22 -94.06 C89.2 -103.34, 80.95 -102.96, 76.84 -108.75 C72.73 -114.54, 65.32 -125.27, 59.55 -128.82 C53.78 -132.37, 50.22 -129.96, 42.19 -130.06 C34.17 -130.15, 24.01 -129.6, 11.4 -129.41 C-1.21 -129.22, -21.94 -128.91, -33.46 -128.94 C-44.98 -128.96, -52.57 -130.43, -57.72 -129.55 C-62.87 -128.66, -61.46 -126.86, -64.37 -123.62 C-67.28 -120.39, -71.41 -114.76, -75.2 -110.15 C-79 -105.55, -86.31 -100.07, -87.13 -95.99 C-87.95 -91.91, -85.25 -91.83, -80.12 -85.65 C-74.98 -79.48, -64.54 -67.91, -56.34 -58.94 C-48.14 -49.97, -40.3 -41.66, -30.91 -31.84 C-21.52 -22.02, -5.15 -5.31, 0 0" stroke="#E1E1E1" stroke-width="4" fill="none"></path></g></g><mask></mask><g stroke-linecap="round"><g transform="translate(329.56336103203483 487.5480568040376) rotate(0 16.173127224353824 -63.99974277904749)"><path d="M0 0 C5.39 -13.64, 28.39 -60.5, 32.35 -81.84 C36.3 -103.17, 25.17 -120.31, 23.74 -128 M0 0 C5.39 -13.64, 28.39 -60.5, 32.35 -81.84 C36.3 -103.17, 25.17 -120.31, 23.74 -128" stroke="#E1E1E1" stroke-width="4" fill="none"></path></g></g><mask></mask><g stroke-linecap="round"><g transform="translate(329.0379919311146 486.7685876150923) rotate(0 -17.19553670016093 -63.40312263993206)"><path d="M0 0 C-5.73 -13.39, -30.61 -59.22, -34.39 -80.35 C-38.18 -101.49, -24.65 -119.06, -22.71 -126.81 M0 0 C-5.73 -13.39, -30.61 -59.22, -34.39 -80.35 C-38.18 -101.49, -24.65 -119.06, -22.71 -126.81" stroke="#E1E1E1" stroke-width="4" fill="none"></path></g></g><mask></mask><g stroke-linecap="round"><g transform="translate(242.78646407869218 391.22523762485264) rotate(0 48.74429458881409 6.860702376700189)"><path d="M0 0 C8.49 2.07, 34.7 10.11, 50.95 12.4 C67.2 14.69, 89.73 13.5, 97.49 13.72 M0 0 C8.49 2.07, 34.7 10.11, 50.95 12.4 C67.2 14.69, 89.73 13.5, 97.49 13.72" stroke="#E1E1E1" stroke-width="4" fill="none"></path></g></g><mask></mask><g stroke-linecap="round"><g transform="translate(414.89291761912517 392.8425503472878) rotate(0 -26.360308793961412 6.737086117660603)"><path d="M0 0 C-8.79 2.25, -43.93 11.23, -52.72 13.47 M0 0 C-8.79 2.25, -43.93 11.23, -52.72 13.47" stroke="#E1E1E1" stroke-width="4" fill="none"></path></g></g><mask></mask><g stroke-linecap="round"><g transform="translate(473.76095188452217 348.65335996775104) rotate(0 -11.959830576401846 8.560636221465899)"><path d="M0 0 C0.04 -1.09, 0.88 -4.44, 0.21 -6.51 C-0.46 -8.58, -2.13 -10.89, -4.02 -12.43 C-5.91 -13.97, -8.71 -15.48, -11.14 -15.73 C-13.57 -15.98, -16.61 -15.2, -18.6 -13.94 C-20.59 -12.67, -22.21 -10.39, -23.09 -8.15 C-23.97 -5.9, -24.41 -2.99, -23.88 -0.47 C-23.35 2.04, -22.18 5.39, -19.92 6.92 C-17.67 8.45, -13.07 7.98, -10.36 8.72 C-7.65 9.45, -5.34 9.67, -3.64 11.34 C-1.95 13.01, -0.47 16.12, -0.19 18.74 C0.1 21.37, -0.35 24.74, -1.92 27.09 C-3.49 29.44, -7.03 32.04, -9.62 32.85 C-12.2 33.66, -15.18 33, -17.43 31.95 C-19.68 30.89, -22.02 28.95, -23.14 26.54 C-24.25 24.12, -23.96 18.97, -24.13 17.45 M0 0 C0.04 -1.09, 0.88 -4.44, 0.21 -6.51 C-0.46 -8.58, -2.13 -10.89, -4.02 -12.43 C-5.91 -13.97, -8.71 -15.48, -11.14 -15.73 C-13.57 -15.98, -16.61 -15.2, -18.6 -13.94 C-20.59 -12.67, -22.21 -10.39, -23.09 -8.15 C-23.97 -5.9, -24.41 -2.99, -23.88 -0.47 C-23.35 2.04, -22.18 5.39, -19.92 6.92 C-17.67 8.45, -13.07 7.98, -10.36 8.72 C-7.65 9.45, -5.34 9.67, -3.64 11.34 C-1.95 13.01, -0.47 16.12, -0.19 18.74 C0.1 21.37, -0.35 24.74, -1.92 27.09 C-3.49 29.44, -7.03 32.04, -9.62 32.85 C-12.2 33.66, -15.18 33, -17.43 31.95 C-19.68 30.89, -22.02 28.95, -23.14 26.54 C-24.25 24.12, -23.96 18.97, -24.13 17.45" stroke="#E1E1E1" stroke-width="4" fill="none"></path></g></g><mask></mask><g stroke-linecap="round"><g transform="translate(462.4346979391759 322.2702601823131) rotate(0 0 4.927389674890598)"><path d="M0 0 C0 1.64, 0 8.21, 0 9.85 M0 0 C0 1.64, 0 8.21, 0 9.85" stroke="#E1E1E1" stroke-width="4" fill="none"></path></g></g><mask></mask><g stroke-linecap="round"><g transform="translate(462.09238625771667 393.7237739213616) rotate(0 0.07612606637150421 -5.411570370321705)"><path d="M0 0 C0.03 -1.8, 0.13 -9.02, 0.15 -10.82 M0 0 C0.03 -1.8, 0.13 -9.02, 0.15 -10.82" stroke="#E1E1E1" stroke-width="4" fill="none"></path></g></g><mask></mask><g stroke-linecap="round"><g transform="translate(363.10419542581275 491.2445498968938) rotate(0 55.263117771558534 -38.82635576789045)"><path d="M0 0 C10.97 -11.45, 21.95 -22.89, 44.63 -46.56 M0 0 C13.95 -14.55, 27.89 -29.1, 44.63 -46.56 M44.63 -46.56 C48.95 -41.95, 53.26 -37.35, 60.88 -29.21 M44.63 -46.56 C50.68 -40.1, 56.72 -33.65, 60.88 -29.21 M60.88 -29.21 C78.86 -46.97, 96.84 -64.74, 109.09 -76.84 M60.88 -29.21 C72.64 -40.84, 84.41 -52.46, 109.09 -76.84 M109.09 -76.84 C109.21 -69.46, 109.34 -62.08, 109.51 -51.82 M109.09 -76.84 C109.23 -68.76, 109.36 -60.67, 109.51 -51.82 M109.51 -51.82 C109.88 -61.23, 110.25 -70.65, 110.53 -77.65 M109.51 -51.82 C109.81 -59.52, 110.12 -67.23, 110.53 -77.65 M110.53 -77.65 C101.68 -77.33, 92.84 -77, 82.97 -76.63 M110.53 -77.65 C100.82 -77.29, 91.12 -76.93, 82.97 -76.63 M82.97 -76.63 C91.5 -76.94, 100.02 -77.25, 110.51 -77.63 M82.97 -76.63 C92.91 -76.99, 102.86 -77.35, 110.51 -77.63" stroke="#E1E1E1" stroke-width="4" fill="none"></path></g></g><mask></mask><g stroke-linecap="round"><g transform="translate(374.2788823406319 345.97719206089516) rotate(0 7.442736729766537 -11.561384061925587)"><path d="M0 0 C4.38 -6.81, 8.76 -13.61, 14.89 -23.12 M0 0 C4.45 -6.91, 8.89 -13.81, 14.89 -23.12" stroke="#E1E1E1" stroke-width="4" fill="none"></path></g></g><mask></mask><g stroke-linecap="round"><g transform="translate(349.64558831940866 344.0870366390542) rotate(0 2.4935665607378823 -16.228829162793907)"><path d="M0 0 C1.56 -10.15, 3.12 -20.3, 4.99 -32.46 M0 0 C1.87 -12.19, 3.75 -24.39, 4.99 -32.46" stroke="#E1E1E1" stroke-width="4" fill="none"></path></g></g><mask></mask><g stroke-linecap="round"><g transform="translate(313.82854171060734 344.0830405387961) rotate(0 -2.87186405179002 -16.376684872324553)"><path d="M0 0 C-1.15 -6.58, -2.31 -13.16, -5.74 -32.75 M0 0 C-1.71 -9.73, -3.41 -19.46, -5.74 -32.75" stroke="#E1E1E1" stroke-width="4" fill="none"></path></g></g><mask></mask><g stroke-linecap="round"><g transform="translate(285.2217919999186 350.0688840334002) rotate(0 -6.76206765255661 -11.291647294538045)"><path d="M0 0 C-3.58 -5.98, -7.16 -11.96, -13.52 -22.58 M0 0 C-4.19 -6.99, -8.37 -13.98, -13.52 -22.58" stroke="#E1E1E1" stroke-width="4" fill="none"></path></g></g><mask></mask><g stroke-linecap="round"><g transform="translate(183.68062831265541 171.64662821773902) rotate(313.027265041783 -4.021879829904634 6.969296809186318)"><path d="M0 0 C-0.38 -0.42, -1.47 -1.67, -2.26 -2.5 C-3.05 -3.33, -3.89 -4.2, -4.73 -4.98 C-5.58 -5.77, -6.39 -6.66, -7.33 -7.22 C-8.28 -7.77, -9.4 -8.12, -10.41 -8.33 C-11.41 -8.54, -12.34 -8.59, -13.37 -8.47 C-14.41 -8.35, -15.67 -8.07, -16.65 -7.63 C-17.62 -7.18, -18.53 -6.45, -19.2 -5.82 C-19.88 -5.18, -20.18 -4.83, -20.7 -3.8 C-21.22 -2.77, -22.08 -1.23, -22.34 0.34 C-22.6 1.91, -22.65 3.98, -22.24 5.6 C-21.83 7.23, -20.93 8.72, -19.89 10.09 C-18.85 11.47, -17.24 12.67, -16 13.85 C-14.75 15.03, -13.76 16, -12.42 17.17 C-11.09 18.35, -9.37 20.01, -8 20.91 C-6.64 21.81, -5.62 22.62, -4.24 22.55 C-2.85 22.48, -1.25 21.52, 0.3 20.48 C1.86 19.43, 3.4 17.84, 5.09 16.28 C6.77 14.72, 9.02 12.76, 10.42 11.13 C11.81 9.5, 12.84 8.18, 13.48 6.5 C14.13 4.81, 14.43 2.74, 14.3 1.02 C14.16 -0.7, 13.48 -2.45, 12.65 -3.84 C11.82 -5.22, 10.6 -6.49, 9.31 -7.29 C8.03 -8.08, 6.38 -8.47, 4.95 -8.61 C3.52 -8.75, 1.77 -8.35, 0.74 -8.13 C-0.28 -7.91, -1.13 -7.7, -1.22 -7.3 C-1.32 -6.91, -0.47 -6.44, 0.19 -5.76 C0.86 -5.07, 2.24 -3.85, 2.77 -3.17 C3.29 -2.5, 3.35 -2.19, 3.35 -1.71 C3.35 -1.22, 3.14 -0.58, 2.76 -0.26 C2.38 0.05, 1.53 0.14, 1.07 0.18 C0.61 0.23, 0.18 0.03, 0 0 M0 0 C-0.38 -0.42, -1.47 -1.67, -2.26 -2.5 C-3.05 -3.33, -3.89 -4.2, -4.73 -4.98 C-5.58 -5.77, -6.39 -6.66, -7.33 -7.22 C-8.28 -7.77, -9.4 -8.12, -10.41 -8.33 C-11.41 -8.54, -12.34 -8.59, -13.37 -8.47 C-14.41 -8.35, -15.67 -8.07, -16.65 -7.63 C-17.62 -7.18, -18.53 -6.45, -19.2 -5.82 C-19.88 -5.18, -20.18 -4.83, -20.7 -3.8 C-21.22 -2.77, -22.08 -1.23, -22.34 0.34 C-22.6 1.91, -22.65 3.98, -22.24 5.6 C-21.83 7.23, -20.93 8.72, -19.89 10.09 C-18.85 11.47, -17.24 12.67, -16 13.85 C-14.75 15.03, -13.76 16, -12.42 17.17 C-11.09 18.35, -9.37 20.01, -8 20.91 C-6.64 21.81, -5.62 22.62, -4.24 22.55 C-2.85 22.48, -1.25 21.52, 0.3 20.48 C1.86 19.43, 3.4 17.84, 5.09 16.28 C6.77 14.72, 9.02 12.76, 10.42 11.13 C11.81 9.5, 12.84 8.18, 13.48 6.5 C14.13 4.81, 14.43 2.74, 14.3 1.02 C14.16 -0.7, 13.48 -2.45, 12.65 -3.84 C11.82 -5.22, 10.6 -6.49, 9.31 -7.29 C8.03 -8.08, 6.38 -8.47, 4.95 -8.61 C3.52 -8.75, 1.77 -8.35, 0.74 -8.13 C-0.28 -7.91, -1.13 -7.7, -1.22 -7.3 C-1.32 -6.91, -0.47 -6.44, 0.19 -5.76 C0.86 -5.07, 2.24 -3.85, 2.77 -3.17 C3.29 -2.5, 3.35 -2.19, 3.35 -1.71 C3.35 -1.22, 3.14 -0.58, 2.76 -0.26 C2.38 0.05, 1.53 0.14, 1.07 0.18 C0.61 0.23, 0.18 0.03, 0 0" stroke="#E1E1E1" stroke-width="4" fill="none"></path></g></g><mask></mask><g stroke-linecap="round"><g transform="translate(178.39143689776955 177.7462106559343) rotate(313.027265041783 1.9646584832374003 1.7496410390980657)"><path d="M0 0 C-0.01 -0.38, -0.18 -1.67, -0.04 -2.28 C0.09 -2.88, 0.41 -3.34, 0.82 -3.63 C1.22 -3.92, 1.88 -4.1, 2.37 -4 C2.86 -3.9, 3.5 -3.44, 3.76 -3.01 C4.02 -2.59, 3.91 -1.99, 3.94 -1.47 C3.96 -0.95, 3.6 -0.18, 3.9 0.11 C4.2 0.4, 5.25 0.22, 5.72 0.27 C6.19 0.32, 6.42 0.19, 6.72 0.4 C7.02 0.61, 7.45 1.08, 7.53 1.54 C7.62 2, 7.47 2.79, 7.24 3.18 C7.01 3.57, 6.55 3.77, 6.13 3.87 C5.71 3.98, 5.1 3.82, 4.71 3.82 C4.33 3.83, 3.98 3.66, 3.83 3.92 C3.68 4.17, 3.85 4.9, 3.81 5.36 C3.78 5.82, 3.83 6.29, 3.63 6.65 C3.43 7.01, 3.01 7.38, 2.61 7.5 C2.21 7.62, 1.64 7.52, 1.24 7.38 C0.83 7.23, 0.38 7.07, 0.17 6.66 C-0.04 6.24, 0.01 5.35, -0.03 4.9 C-0.07 4.45, 0.12 4.14, -0.09 3.96 C-0.3 3.77, -0.87 3.84, -1.29 3.79 C-1.71 3.73, -2.23 3.81, -2.6 3.62 C-2.97 3.42, -3.36 3.03, -3.52 2.61 C-3.69 2.2, -3.74 1.56, -3.6 1.14 C-3.46 0.72, -3.08 0.3, -2.68 0.09 C-2.29 -0.13, -1.68 -0.11, -1.24 -0.13 C-0.79 -0.14, -0.21 -0.02, 0 0 M0 0 C-0.01 -0.38, -0.18 -1.67, -0.04 -2.28 C0.09 -2.88, 0.41 -3.34, 0.82 -3.63 C1.22 -3.92, 1.88 -4.1, 2.37 -4 C2.86 -3.9, 3.5 -3.44, 3.76 -3.01 C4.02 -2.59, 3.91 -1.99, 3.94 -1.47 C3.96 -0.95, 3.6 -0.18, 3.9 0.11 C4.2 0.4, 5.25 0.22, 5.72 0.27 C6.19 0.32, 6.42 0.19, 6.72 0.4 C7.02 0.61, 7.45 1.08, 7.53 1.54 C7.62 2, 7.47 2.79, 7.24 3.18 C7.01 3.57, 6.55 3.77, 6.13 3.87 C5.71 3.98, 5.1 3.82, 4.71 3.82 C4.33 3.83, 3.98 3.66, 3.83 3.92 C3.68 4.17, 3.85 4.9, 3.81 5.36 C3.78 5.82, 3.83 6.29, 3.63 6.65 C3.43 7.01, 3.01 7.38, 2.61 7.5 C2.21 7.62, 1.64 7.52, 1.24 7.38 C0.83 7.23, 0.38 7.07, 0.17 6.66 C-0.04 6.24, 0.01 5.35, -0.03 4.9 C-0.07 4.45, 0.12 4.14, -0.09 3.96 C-0.3 3.77, -0.87 3.84, -1.29 3.79 C-1.71 3.73, -2.23 3.81, -2.6 3.62 C-2.97 3.42, -3.36 3.03, -3.52 2.61 C-3.69 2.2, -3.74 1.56, -3.6 1.14 C-3.46 0.72, -3.08 0.3, -2.68 0.09 C-2.29 -0.13, -1.68 -0.11, -1.24 -0.13 C-0.79 -0.14, -0.21 -0.02, 0 0" stroke="#E1E1E1" stroke-width="4" fill="none"></path></g></g><mask></mask><g stroke-linecap="round"><g transform="translate(26.670504733794758 176.80115900568683) rotate(313.027265041783 30.530673374890284 0.7501250040925811)"><path d="M0 0 C-0.06 -1.6, -1.45 -7.87, -0.33 -9.61 C0.78 -11.35, 0.78 -10.29, 6.68 -10.44 C12.58 -10.58, 26.83 -10.48, 35.08 -10.49 C43.32 -10.5, 51.87 -10.48, 56.16 -10.5 C60.44 -10.51, 59.91 -11.61, 60.78 -10.59 C61.66 -9.56, 61.3 -7.22, 61.4 -4.34 C61.49 -1.46, 61.48 4.06, 61.37 6.68 C61.26 9.3, 62.29 10.52, 60.73 11.39 C59.16 12.25, 56.65 11.78, 51.99 11.87 C47.33 11.97, 39.64 11.91, 32.76 11.94 C25.88 11.97, 15.72 12.02, 10.69 12.04 C5.66 12.06, 4.4 12.32, 2.59 12.09 C0.77 11.85, 0.21 12.64, -0.22 10.63 C-0.65 8.61, -0.04 1.77, 0 0 M0 0 C-0.06 -1.6, -1.45 -7.87, -0.33 -9.61 C0.78 -11.35, 0.78 -10.29, 6.68 -10.44 C12.58 -10.58, 26.83 -10.48, 35.08 -10.49 C43.32 -10.5, 51.87 -10.48, 56.16 -10.5 C60.44 -10.51, 59.91 -11.61, 60.78 -10.59 C61.66 -9.56, 61.3 -7.22, 61.4 -4.34 C61.49 -1.46, 61.48 4.06, 61.37 6.68 C61.26 9.3, 62.29 10.52, 60.73 11.39 C59.16 12.25, 56.65 11.78, 51.99 11.87 C47.33 11.97, 39.64 11.91, 32.76 11.94 C25.88 11.97, 15.72 12.02, 10.69 12.04 C5.66 12.06, 4.4 12.32, 2.59 12.09 C0.77 11.85, 0.21 12.64, -0.22 10.63 C-0.65 8.61, -0.04 1.77, 0 0" stroke="#E1E1E1" stroke-width="4" fill="none"></path></g></g><mask></mask><g stroke-linecap="round"><g transform="translate(84.38725593390899 132.67018810208322) rotate(313.027265041783 20.569308070225105 17.883256502855374)"><path d="M0 0 C2.6 0.02, 9.94 0.08, 15.59 0.14 C21.24 0.2, 29.84 -0.36, 33.9 0.38 C37.97 1.12, 38.81 2.36, 39.99 4.59 C41.16 6.82, 40.76 9.64, 40.94 13.77 C41.11 17.89, 41.02 25.69, 41.05 29.36 C41.08 33.02, 41.12 34.7, 41.14 35.77 M0 0 C2.6 0.02, 9.94 0.08, 15.59 0.14 C21.24 0.2, 29.84 -0.36, 33.9 0.38 C37.97 1.12, 38.81 2.36, 39.99 4.59 C41.16 6.82, 40.76 9.64, 40.94 13.77 C41.11 17.89, 41.02 25.69, 41.05 29.36 C41.08 33.02, 41.12 34.7, 41.14 35.77" stroke="#E1E1E1" stroke-width="4" fill="none"></path></g></g><mask></mask><g stroke-linecap="round"><g transform="translate(110.8805868477595 182.23314417816357) rotate(313.027265041783 -18.94865682317669 95.54189762119412)"><path d="M0 0 C-3 0.04, -12.29 0.17, -17.97 0.23 C-23.65 0.3, -30.28 -0.39, -34.09 0.39 C-37.89 1.18, -39.62 1.81, -40.82 4.96 C-42.03 8.11, -41.36 10.94, -41.32 19.3 C-41.28 27.66, -40.64 43.05, -40.58 55.1 C-40.53 67.14, -40.88 77.74, -40.99 91.55 C-41.09 105.36, -41.21 123.71, -41.2 137.96 C-41.19 152.21, -41.09 168.93, -40.92 177.05 C-40.75 185.17, -41.17 184.36, -40.16 186.7 C-39.16 189.04, -38.74 190.36, -34.89 191.08 C-31.03 191.8, -23.42 191.05, -17.04 191.02 C-10.65 190.99, 0.01 190.94, 3.42 190.92 M0 0 C-3 0.04, -12.29 0.17, -17.97 0.23 C-23.65 0.3, -30.28 -0.39, -34.09 0.39 C-37.89 1.18, -39.62 1.81, -40.82 4.96 C-42.03 8.11, -41.36 10.94, -41.32 19.3 C-41.28 27.66, -40.64 43.05, -40.58 55.1 C-40.53 67.14, -40.88 77.74, -40.99 91.55 C-41.09 105.36, -41.21 123.71, -41.2 137.96 C-41.19 152.21, -41.09 168.93, -40.92 177.05 C-40.75 185.17, -41.17 184.36, -40.16 186.7 C-39.16 189.04, -38.74 190.36, -34.89 191.08 C-31.03 191.8, -23.42 191.05, -17.04 191.02 C-10.65 190.99, 0.01 190.94, 3.42 190.92" stroke="#E1E1E1" stroke-width="4" fill="none"></path></g></g><mask></mask><g stroke-linecap="round"><g transform="translate(170.8712143905015 284.96761420378937) rotate(313.027265041783 34.38561809467805 -21.886741364358343)"><path d="M0 0 C0.8 0.03, -2.24 0.26, 4.79 0.16 C11.82 0.07, 33.49 1.3, 42.17 -0.55 C50.84 -2.41, 52.59 -6.6, 56.86 -10.98 C61.12 -15.37, 65.77 -21.36, 67.75 -26.85 C69.74 -32.34, 68.6 -41.09, 68.77 -43.94 M0 0 C0.8 0.03, -2.24 0.26, 4.79 0.16 C11.82 0.07, 33.49 1.3, 42.17 -0.55 C50.84 -2.41, 52.59 -6.6, 56.86 -10.98 C61.12 -15.37, 65.77 -21.36, 67.75 -26.85 C69.74 -32.34, 68.6 -41.09, 68.77 -43.94" stroke="#E1E1E1" stroke-width="4" fill="none"></path></g></g><mask></mask><g stroke-linecap="round"><g transform="translate(238.0325603432995 241.2059560063236) rotate(313.027265041783 -13.284126607947513 13.032421262047023)"><path d="M0 0 C-2.07 0.02, -8.91 -0.16, -12.43 0.09 C-15.94 0.35, -18.73 -0.12, -21.08 1.53 C-23.44 3.18, -25.72 5.89, -26.57 9.98 C-27.42 14.07, -26.26 23.38, -26.2 26.06 M0 0 C-2.07 0.02, -8.91 -0.16, -12.43 0.09 C-15.94 0.35, -18.73 -0.12, -21.08 1.53 C-23.44 3.18, -25.72 5.89, -26.57 9.98 C-27.42 14.07, -26.26 23.38, -26.2 26.06" stroke="#E1E1E1" stroke-width="4" fill="none"></path></g></g><mask></mask><g stroke-linecap="round"><g transform="translate(180.28600070583906 121.86379491023183) rotate(313.027265041783 -1.786875969399091 57.80755448681778)"><path d="M0 0 C5.72 1.9, 26.86 8.71, 34.31 11.39 C41.76 14.07, 42.73 14.17, 44.7 16.06 C46.67 17.95, 45.83 16.82, 46.13 22.74 C46.42 28.66, 46.41 44.62, 46.47 51.6 C46.52 58.57, 47.13 60.16, 46.46 64.6 C45.8 69.05, 44.3 73.81, 42.47 78.28 C40.63 82.74, 38.45 87.32, 35.47 91.37 C32.49 95.43, 28.72 99.34, 24.58 102.61 C20.44 105.88, 14.82 108.82, 10.63 110.99 C6.45 113.16, 2.93 115.37, -0.53 115.62 C-3.98 115.86, -6.53 113.97, -10.12 112.49 C-13.71 111.01, -18.06 109.41, -22.06 106.76 C-26.06 104.11, -30.41 100.76, -34.11 96.57 C-37.81 92.38, -41.59 87.43, -44.24 81.64 C-46.9 75.86, -49.08 68.84, -50.04 61.86 C-51.01 54.87, -50.1 47.16, -50.04 39.75 C-49.98 32.34, -51.97 22.35, -49.7 17.39 C-47.44 12.43, -44.73 12.89, -36.45 10 C-28.16 7.1, -6.07 1.67, 0 0 M0 0 C5.72 1.9, 26.86 8.71, 34.31 11.39 C41.76 14.07, 42.73 14.17, 44.7 16.06 C46.67 17.95, 45.83 16.82, 46.13 22.74 C46.42 28.66, 46.41 44.62, 46.47 51.6 C46.52 58.57, 47.13 60.16, 46.46 64.6 C45.8 69.05, 44.3 73.81, 42.47 78.28 C40.63 82.74, 38.45 87.32, 35.47 91.37 C32.49 95.43, 28.72 99.34, 24.58 102.61 C20.44 105.88, 14.82 108.82, 10.63 110.99 C6.45 113.16, 2.93 115.37, -0.53 115.62 C-3.98 115.86, -6.53 113.97, -10.12 112.49 C-13.71 111.01, -18.06 109.41, -22.06 106.76 C-26.06 104.11, -30.41 100.76, -34.11 96.57 C-37.81 92.38, -41.59 87.43, -44.24 81.64 C-46.9 75.86, -49.08 68.84, -50.04 61.86 C-51.01 54.87, -50.1 47.16, -50.04 39.75 C-49.98 32.34, -51.97 22.35, -49.7 17.39 C-47.44 12.43, -44.73 12.89, -36.45 10 C-28.16 7.1, -6.07 1.67, 0 0" stroke="#E1E1E1" stroke-width="4" fill="none"></path></g></g><mask></mask><g stroke-linecap="round"><g transform="translate(179.7389493736684 142.3744316566532) rotate(313.027265041783 -1.1094231854310266 35.89115436048421)"><path d="M0 0 C3.55 1.18, 16.68 5.41, 21.3 7.07 C25.93 8.73, 26.53 8.8, 27.75 9.97 C28.98 11.15, 28.46 10.44, 28.64 14.12 C28.82 17.8, 28.82 27.7, 28.85 32.03 C28.89 36.37, 29.26 37.35, 28.85 40.11 C28.43 42.87, 27.5 45.83, 26.37 48.6 C25.23 51.37, 23.87 54.21, 22.02 56.73 C20.17 59.25, 17.83 61.68, 15.26 63.71 C12.69 65.74, 9.2 67.57, 6.6 68.91 C4 70.26, 1.82 71.63, -0.33 71.78 C-2.47 71.94, -4.06 70.76, -6.28 69.84 C-8.51 68.93, -11.21 67.93, -13.7 66.28 C-16.18 64.64, -18.88 62.56, -21.18 59.96 C-23.47 57.36, -25.82 54.28, -27.47 50.69 C-29.12 47.1, -30.47 42.74, -31.07 38.4 C-31.67 34.07, -31.1 29.28, -31.07 24.68 C-31.03 20.08, -32.27 13.88, -30.86 10.8 C-29.45 7.72, -27.77 8.01, -22.63 6.21 C-17.49 4.41, -3.77 1.03, 0 0 M0 0 C3.55 1.18, 16.68 5.41, 21.3 7.07 C25.93 8.73, 26.53 8.8, 27.75 9.97 C28.98 11.15, 28.46 10.44, 28.64 14.12 C28.82 17.8, 28.82 27.7, 28.85 32.03 C28.89 36.37, 29.26 37.35, 28.85 40.11 C28.43 42.87, 27.5 45.83, 26.37 48.6 C25.23 51.37, 23.87 54.21, 22.02 56.73 C20.17 59.25, 17.83 61.68, 15.26 63.71 C12.69 65.74, 9.2 67.57, 6.6 68.91 C4 70.26, 1.82 71.63, -0.33 71.78 C-2.47 71.94, -4.06 70.76, -6.28 69.84 C-8.51 68.93, -11.21 67.93, -13.7 66.28 C-16.18 64.64, -18.88 62.56, -21.18 59.96 C-23.47 57.36, -25.82 54.28, -27.47 50.69 C-29.12 47.1, -30.47 42.74, -31.07 38.4 C-31.67 34.07, -31.1 29.28, -31.07 24.68 C-31.03 20.08, -32.27 13.88, -30.86 10.8 C-29.45 7.72, -27.77 8.01, -22.63 6.21 C-17.49 4.41, -3.77 1.03, 0 0" stroke="#E1E1E1" stroke-width="4" fill="none"></path></g></g><mask></mask><g stroke-linecap="round" transform="translate(70.80393334941817 240.30399795019693) rotate(269.2225213876453 2.9598880394008518 8.272714412090195)"><path d="M1.48 0 C2.1 0, 2.71 0, 4.44 0 C5.43 0, 5.92 0.49, 5.92 1.48 C5.92 6.89, 5.92 12.31, 5.92 15.07 C5.92 16.05, 5.43 16.55, 4.44 16.55 C3.44 16.55, 2.43 16.55, 1.48 16.55 C0.49 16.55, 0 16.05, 0 15.07 C0 11.68, 0 8.28, 0 1.48 C0 0.49, 0.49 0, 1.48 0" stroke="none" stroke-width="0" fill="#E1E1E1"></path><path d="M1.48 0 C2.58 0, 3.69 0, 4.44 0 M1.48 0 C2.2 0, 2.92 0, 4.44 0 M4.44 0 C5.43 0, 5.92 0.49, 5.92 1.48 M4.44 0 C5.43 0, 5.92 0.49, 5.92 1.48 M5.92 1.48 C5.92 4.86, 5.92 8.25, 5.92 15.07 M5.92 1.48 C5.92 4.39, 5.92 7.3, 5.92 15.07 M5.92 15.07 C5.92 16.05, 5.43 16.55, 4.44 16.55 M5.92 15.07 C5.92 16.05, 5.43 16.55, 4.44 16.55 M4.44 16.55 C3.83 16.55, 3.22 16.55, 1.48 16.55 M4.44 16.55 C3.43 16.55, 2.43 16.55, 1.48 16.55 M1.48 16.55 C0.49 16.55, 0 16.05, 0 15.07 M1.48 16.55 C0.49 16.55, 0 16.05, 0 15.07 M0 15.07 C0 10.58, 0 6.1, 0 1.48 M0 15.07 C0 10.37, 0 5.68, 0 1.48 M0 1.48 C0 0.49, 0.49 0, 1.48 0 M0 1.48 C0 0.49, 0.49 0, 1.48 0" stroke="#E1E1E1" stroke-width="4" fill="none"></path></g><g stroke-linecap="round" transform="translate(75.47651011857505 221.11243616795045) rotate(358.027265041783 3.0692801375954843 15.104527415102694)"><path d="M1.53 0 C2.58 0, 3.62 0, 4.6 0 C5.63 0, 6.14 0.51, 6.14 1.53 C6.14 10.8, 6.14 20.06, 6.14 28.67 C6.14 29.7, 5.63 30.21, 4.6 30.21 C3.63 30.21, 2.66 30.21, 1.53 30.21 C0.51 30.21, 0 29.7, 0 28.67 C0 18.56, 0 8.45, 0 1.53 C0 0.51, 0.51 0, 1.53 0" stroke="none" stroke-width="0" fill="#E1E1E1"></path><path d="M1.53 0 C2.63 0, 3.73 0, 4.6 0 M1.53 0 C2.7 0, 3.87 0, 4.6 0 M4.6 0 C5.63 0, 6.14 0.51, 6.14 1.53 M4.6 0 C5.63 0, 6.14 0.51, 6.14 1.53 M6.14 1.53 C6.14 8.65, 6.14 15.76, 6.14 28.67 M6.14 1.53 C6.14 9.52, 6.14 17.51, 6.14 28.67 M6.14 28.67 C6.14 29.7, 5.63 30.21, 4.6 30.21 M6.14 28.67 C6.14 29.7, 5.63 30.21, 4.6 30.21 M4.6 30.21 C3.76 30.21, 2.92 30.21, 1.53 30.21 M4.6 30.21 C3.48 30.21, 2.36 30.21, 1.53 30.21 M1.53 30.21 C0.51 30.21, 0 29.7, 0 28.67 M1.53 30.21 C0.51 30.21, 0 29.7, 0 28.67 M0 28.67 C0 17.88, 0 7.09, 0 1.53 M0 28.67 C0 20.54, 0 12.4, 0 1.53 M0 1.53 C0 0.51, 0.51 0, 1.53 0 M0 1.53 C0 0.51, 0.51 0, 1.53 0" stroke="#E1E1E1" stroke-width="4" fill="none"></path></g><g stroke-linecap="round" transform="translate(102.3093963664889 270.30954974838653) rotate(269.2225213876453 2.9598880394008518 8.272714412090195)"><path d="M1.48 0 C2.55 0, 3.62 0, 4.44 0 C5.43 0, 5.92 0.49, 5.92 1.48 C5.92 5.71, 5.92 9.95, 5.92 15.07 C5.92 16.05, 5.43 16.55, 4.44 16.55 C3.81 16.55, 3.18 16.55, 1.48 16.55 C0.49 16.55, 0 16.05, 0 15.07 C0 11.79, 0 8.51, 0 1.48 C0 0.49, 0.49 0, 1.48 0" stroke="none" stroke-width="0" fill="#E1E1E1"></path><path d="M1.48 0 C2.3 0, 3.13 0, 4.44 0 M1.48 0 C2.32 0, 3.17 0, 4.44 0 M4.44 0 C5.43 0, 5.92 0.49, 5.92 1.48 M4.44 0 C5.43 0, 5.92 0.49, 5.92 1.48 M5.92 1.48 C5.92 4.4, 5.92 7.33, 5.92 15.07 M5.92 1.48 C5.92 4.51, 5.92 7.55, 5.92 15.07 M5.92 15.07 C5.92 16.05, 5.43 16.55, 4.44 16.55 M5.92 15.07 C5.92 16.05, 5.43 16.55, 4.44 16.55 M4.44 16.55 C3.72 16.55, 3 16.55, 1.48 16.55 M4.44 16.55 C3.66 16.55, 2.88 16.55, 1.48 16.55 M1.48 16.55 C0.49 16.55, 0 16.05, 0 15.07 M1.48 16.55 C0.49 16.55, 0 16.05, 0 15.07 M0 15.07 C0 11.23, 0 7.39, 0 1.48 M0 15.07 C0 11.06, 0 7.05, 0 1.48 M0 1.48 C0 0.49, 0.49 0, 1.48 0 M0 1.48 C0 0.49, 0.49 0, 1.48 0" stroke="#E1E1E1" stroke-width="4" fill="none"></path></g><g stroke-linecap="round" transform="translate(106.98197313564577 251.11798796613775) rotate(358.027265041783 3.0692801375954843 15.104527415102694)"><path d="M1.53 0 C2.56 0, 3.59 0, 4.6 0 C5.63 0, 6.14 0.51, 6.14 1.53 C6.14 9.35, 6.14 17.17, 6.14 28.67 C6.14 29.7, 5.63 30.21, 4.6 30.21 C3.5 30.21, 2.39 30.21, 1.53 30.21 C0.51 30.21, 0 29.7, 0 28.67 C0 21.49, 0 14.3, 0 1.53 C0 0.51, 0.51 0, 1.53 0" stroke="none" stroke-width="0" fill="#E1E1E1"></path><path d="M1.53 0 C2.52 0, 3.51 0, 4.6 0 M1.53 0 C2.22 0, 2.91 0, 4.6 0 M4.6 0 C5.63 0, 6.14 0.51, 6.14 1.53 M4.6 0 C5.63 0, 6.14 0.51, 6.14 1.53 M6.14 1.53 C6.14 11.43, 6.14 21.32, 6.14 28.67 M6.14 1.53 C6.14 9.63, 6.14 17.72, 6.14 28.67 M6.14 28.67 C6.14 29.7, 5.63 30.21, 4.6 30.21 M6.14 28.67 C6.14 29.7, 5.63 30.21, 4.6 30.21 M4.6 30.21 C3.88 30.21, 3.15 30.21, 1.53 30.21 M4.6 30.21 C3.49 30.21, 2.37 30.21, 1.53 30.21 M1.53 30.21 C0.51 30.21, 0 29.7, 0 28.67 M1.53 30.21 C0.51 30.21, 0 29.7, 0 28.67 M0 28.67 C0 18.43, 0 8.18, 0 1.53 M0 28.67 C0 20.79, 0 12.9, 0 1.53 M0 1.53 C0 0.51, 0.51 0, 1.53 0 M0 1.53 C0 0.51, 0.51 0, 1.53 0" stroke="#E1E1E1" stroke-width="4" fill="none"></path></g><g stroke-linecap="round" transform="translate(135.34022393712638 301.0692922962095) rotate(269.2225213876453 2.9598880394008518 8.272714412090195)"><path d="M1.48 0 C2.45 0, 3.43 0, 4.44 0 C5.43 0, 5.92 0.49, 5.92 1.48 C5.92 6.13, 5.92 10.79, 5.92 15.07 C5.92 16.05, 5.43 16.55, 4.44 16.55 C3.57 16.55, 2.7 16.55, 1.48 16.55 C0.49 16.55, 0 16.05, 0 15.07 C0 10.36, 0 5.65, 0 1.48 C0 0.49, 0.49 0, 1.48 0" stroke="none" stroke-width="0" fill="#E1E1E1"></path><path d="M1.48 0 C2.32 0, 3.15 0, 4.44 0 M1.48 0 C2.54 0, 3.59 0, 4.44 0 M4.44 0 C5.43 0, 5.92 0.49, 5.92 1.48 M4.44 0 C5.43 0, 5.92 0.49, 5.92 1.48 M5.92 1.48 C5.92 6.53, 5.92 11.59, 5.92 15.07 M5.92 1.48 C5.92 5.69, 5.92 9.9, 5.92 15.07 M5.92 15.07 C5.92 16.05, 5.43 16.55, 4.44 16.55 M5.92 15.07 C5.92 16.05, 5.43 16.55, 4.44 16.55 M4.44 16.55 C3.3 16.55, 2.16 16.55, 1.48 16.55 M4.44 16.55 C3.59 16.55, 2.74 16.55, 1.48 16.55 M1.48 16.55 C0.49 16.55, 0 16.05, 0 15.07 M1.48 16.55 C0.49 16.55, 0 16.05, 0 15.07 M0 15.07 C0 11.22, 0 7.37, 0 1.48 M0 15.07 C0 10.45, 0 5.83, 0 1.48 M0 1.48 C0 0.49, 0.49 0, 1.48 0 M0 1.48 C0 0.49, 0.49 0, 1.48 0" stroke="#E1E1E1" stroke-width="4" fill="none"></path></g><g stroke-linecap="round" transform="translate(140.01280070628326 281.87773051396437) rotate(358.027265041783 3.0692801375954843 15.104527415102694)"><path d="M1.53 0 C2.21 0, 2.88 0, 4.6 0 C5.63 0, 6.14 0.51, 6.14 1.53 C6.14 8.07, 6.14 14.61, 6.14 28.67 C6.14 29.7, 5.63 30.21, 4.6 30.21 C3.5 30.21, 2.4 30.21, 1.53 30.21 C0.51 30.21, 0 29.7, 0 28.67 C0 20.97, 0 13.28, 0 1.53 C0 0.51, 0.51 0, 1.53 0" stroke="none" stroke-width="0" fill="#E1E1E1"></path><path d="M1.53 0 C2.64 0, 3.74 0, 4.6 0 M1.53 0 C2.57 0, 3.61 0, 4.6 0 M4.6 0 C5.63 0, 6.14 0.51, 6.14 1.53 M4.6 0 C5.63 0, 6.14 0.51, 6.14 1.53 M6.14 1.53 C6.14 9.86, 6.14 18.18, 6.14 28.67 M6.14 1.53 C6.14 10.85, 6.14 20.16, 6.14 28.67 M6.14 28.67 C6.14 29.7, 5.63 30.21, 4.6 30.21 M6.14 28.67 C6.14 29.7, 5.63 30.21, 4.6 30.21 M4.6 30.21 C3.9 30.21, 3.2 30.21, 1.53 30.21 M4.6 30.21 C3.53 30.21, 2.46 30.21, 1.53 30.21 M1.53 30.21 C0.51 30.21, 0 29.7, 0 28.67 M1.53 30.21 C0.51 30.21, 0 29.7, 0 28.67 M0 28.67 C0 23.11, 0 17.54, 0 1.53 M0 28.67 C0 18.1, 0 7.53, 0 1.53 M0 1.53 C0 0.51, 0.51 0, 1.53 0 M0 1.53 C0 0.51, 0.51 0, 1.53 0" stroke="#E1E1E1" stroke-width="4" fill="none"></path></g><g stroke-linecap="round"><g transform="translate(82.71059074302883 196.4689169102222) rotate(313.027265041783 19.716532118043403 -0.1473114236376034)"><path d="M0 0 C6.57 -0.05, 32.86 -0.25, 39.43 -0.29 M0 0 C6.57 -0.05, 32.86 -0.25, 39.43 -0.29" stroke="#E1E1E1" stroke-width="4" fill="none"></path></g></g><mask></mask><g stroke-linecap="round"><g transform="translate(98.34943718218545 214.16335043315493) rotate(313.027265041783 12.227428128153576 -0.12817253788936966)"><path d="M0 0 C4.08 -0.04, 20.38 -0.21, 24.45 -0.26 M0 0 C4.08 -0.04, 20.38 -0.21, 24.45 -0.26" stroke="#E1E1E1" stroke-width="4" fill="none"></path></g></g><mask></mask><g stroke-linecap="round"><g transform="translate(115.98959726482116 227.85423732142007) rotate(313.027265041783 17.397827111338586 -0.092214631332169)"><path d="M0 0 C5.8 -0.03, 29 -0.15, 34.8 -0.18 M0 0 C5.8 -0.03, 29 -0.15, 34.8 -0.18" stroke="#E1E1E1" stroke-width="4" fill="none"></path></g></g><mask></mask><g stroke-linecap="round"><g transform="translate(131.19852523225762 244.2760466223145) rotate(313.027265041783 12.41475722199192 -0.033638041617990666)"><path d="M0 0 C4.14 -0.01, 20.69 -0.06, 24.83 -0.07 M0 0 C4.14 -0.01, 20.69 -0.06, 24.83 -0.07" stroke="#E1E1E1" stroke-width="4" fill="none"></path></g></g><mask></mask><g stroke-linecap="round"><g transform="translate(147.17006300699194 255.03463031308556) rotate(313.027265041783 21.113670777661184 -0.0371178390267346)"><path d="M0 0 C7.04 -0.01, 35.19 -0.06, 42.23 -0.07 M0 0 C7.04 -0.01, 35.19 -0.06, 42.23 -0.07" stroke="#E1E1E1" stroke-width="4" fill="none"></path></g></g><mask></mask><g stroke-linecap="round"><g transform="translate(161.18304029710106 270.75548634485506) rotate(313.027265041783 16.98895091580907 -0.17978953278606014)"><path d="M0 0 C5.66 -0.06, 28.31 -0.3, 33.98 -0.36 M0 0 C5.66 -0.06, 28.31 -0.3, 33.98 -0.36" stroke="#E1E1E1" stroke-width="4" fill="none"></path></g></g><mask></mask><g stroke-linecap="round" transform="translate(184.12173322186408 311.6493355338072) rotate(313.027265041783 3.618025625949585 3.618025625949585)"><path d="M7.24 3.62 C7.24 3.83, 7.22 4.04, 7.18 4.25 C7.14 4.45, 7.09 4.66, 7.02 4.86 C6.95 5.05, 6.86 5.25, 6.75 5.43 C6.65 5.61, 6.52 5.78, 6.39 5.94 C6.25 6.1, 6.1 6.25, 5.94 6.39 C5.78 6.52, 5.61 6.65, 5.43 6.75 C5.25 6.86, 5.05 6.95, 4.86 7.02 C4.66 7.09, 4.45 7.14, 4.25 7.18 C4.04 7.22, 3.83 7.24, 3.62 7.24 C3.41 7.24, 3.2 7.22, 2.99 7.18 C2.78 7.14, 2.58 7.09, 2.38 7.02 C2.18 6.95, 1.99 6.86, 1.81 6.75 C1.63 6.65, 1.45 6.52, 1.29 6.39 C1.13 6.25, 0.98 6.1, 0.85 5.94 C0.71 5.78, 0.59 5.61, 0.48 5.43 C0.38 5.25, 0.29 5.05, 0.22 4.86 C0.15 4.66, 0.09 4.45, 0.05 4.25 C0.02 4.04, 0 3.83, 0 3.62 C0 3.41, 0.02 3.2, 0.05 2.99 C0.09 2.78, 0.15 2.58, 0.22 2.38 C0.29 2.18, 0.38 1.99, 0.48 1.81 C0.59 1.63, 0.71 1.45, 0.85 1.29 C0.98 1.13, 1.13 0.98, 1.29 0.85 C1.45 0.71, 1.63 0.59, 1.81 0.48 C1.99 0.38, 2.18 0.29, 2.38 0.22 C2.58 0.15, 2.78 0.09, 2.99 0.05 C3.2 0.02, 3.41 0, 3.62 0 C3.83 0, 4.04 0.02, 4.25 0.05 C4.45 0.09, 4.66 0.15, 4.86 0.22 C5.05 0.29, 5.25 0.38, 5.43 0.48 C5.61 0.59, 5.78 0.71, 5.94 0.85 C6.1 0.98, 6.25 1.13, 6.39 1.29 C6.52 1.45, 6.65 1.63, 6.75 1.81 C6.86 1.99, 6.95 2.18, 7.02 2.38 C7.09 2.58, 7.14 2.78, 7.18 2.99 C7.22 3.2, 7.23 3.51, 7.24 3.62 C7.25 3.72, 7.25 3.51, 7.24 3.62" stroke="#E1E1E1" stroke-width="4" fill="none"></path></g><g stroke-linecap="round"><g transform="translate(250.2359844048862 79.19244555945954) rotate(357.93939184074344 23.155625007553176 34.91683039002967)"><path d="M0 0 C3.52 3.35, 12.78 12.07, 21.12 20.13 C29.46 28.19, 43.73 42.1, 50.05 48.34 C56.36 54.57, 57.71 54.6, 59.01 57.54 C60.32 60.49, 59.12 63.96, 57.86 66.01 C56.6 68.06, 53.51 69.28, 51.48 69.83 C49.45 70.38, 47.69 70.23, 45.71 69.31 C43.72 68.39, 44.95 69.71, 39.57 64.31 C34.2 58.92, 21.23 44.73, 13.45 36.95 C5.66 29.17, -2.77 21.73, -7.12 17.65 C-11.48 13.57, -11.77 13.33, -12.7 12.46 M0 0 C3.52 3.35, 12.78 12.07, 21.12 20.13 C29.46 28.19, 43.73 42.1, 50.05 48.34 C56.36 54.57, 57.71 54.6, 59.01 57.54 C60.32 60.49, 59.12 63.96, 57.86 66.01 C56.6 68.06, 53.51 69.28, 51.48 69.83 C49.45 70.38, 47.69 70.23, 45.71 69.31 C43.72 68.39, 44.95 69.71, 39.57 64.31 C34.2 58.92, 21.23 44.73, 13.45 36.95 C5.66 29.17, -2.77 21.73, -7.12 17.65 C-11.48 13.57, -11.77 13.33, -12.7 12.46" stroke="#E1E1E1" stroke-width="4" fill="none"></path></g></g><mask></mask><g stroke-linecap="round"><g transform="translate(255.33493607136023 73.55979457139404) rotate(357.93939184074344 -31.08171851065819 -6.636768208693525)"><path d="M0 0 C-3.64 3.4, -17.43 16.09, -21.86 20.37 C-26.29 24.66, -25.92 23.8, -26.6 25.73 C-27.28 27.66, -24.71 29.42, -25.95 31.96 C-27.2 34.5, -31.51 38.37, -34.08 40.98 C-36.65 43.59, -39.42 46.14, -41.37 47.62 C-43.32 49.1, -44.06 50.36, -45.77 49.86 C-47.48 49.36, -48.62 47.57, -51.63 44.62 C-54.65 41.67, -58.94 37.08, -63.86 32.16 C-68.78 27.25, -77.23 19.07, -81.15 15.12 C-85.07 11.17, -86.5 10.59, -87.37 8.48 C-88.23 6.36, -88.17 5.16, -86.33 2.43 C-84.49 -0.31, -79.38 -5.1, -76.33 -7.93 C-73.27 -10.75, -70.43 -13.59, -68 -14.54 C-65.58 -15.49, -65.91 -10.7, -61.77 -13.62 C-57.64 -16.54, -47.36 -28.16, -43.18 -32.06 C-39.01 -35.95, -37.72 -34.98, -36.75 -36.97 C-35.77 -38.97, -38.6 -40.92, -37.33 -44.02 C-36.06 -47.12, -32.14 -52.4, -29.12 -55.58 C-26.1 -58.77, -23.22 -63.76, -19.21 -63.14 C-15.19 -62.51, -10.49 -56.78, -5.04 -51.83 C0.4 -46.88, 8.44 -38.48, 13.48 -33.43 C18.52 -28.38, 23.53 -25.09, 25.2 -21.54 C26.88 -17.98, 25.37 -15.24, 23.53 -12.1 C21.69 -8.95, 17.04 -5.26, 14.15 -2.67 C11.25 -0.08, 9.44 3.92, 6.17 3.44 C2.9 2.97, -3.54 -4, -5.49 -5.49 M0 0 C-3.64 3.4, -17.43 16.09, -21.86 20.37 C-26.29 24.66, -25.92 23.8, -26.6 25.73 C-27.28 27.66, -24.71 29.42, -25.95 31.96 C-27.2 34.5, -31.51 38.37, -34.08 40.98 C-36.65 43.59, -39.42 46.14, -41.37 47.62 C-43.32 49.1, -44.06 50.36, -45.77 49.86 C-47.48 49.36, -48.62 47.57, -51.63 44.62 C-54.65 41.67, -58.94 37.08, -63.86 32.16 C-68.78 27.25, -77.23 19.07, -81.15 15.12 C-85.07 11.17, -86.5 10.59, -87.37 8.48 C-88.23 6.36, -88.17 5.16, -86.33 2.43 C-84.49 -0.31, -79.38 -5.1, -76.33 -7.93 C-73.27 -10.75, -70.43 -13.59, -68 -14.54 C-65.58 -15.49, -65.91 -10.7, -61.77 -13.62 C-57.64 -16.54, -47.36 -28.16, -43.18 -32.06 C-39.01 -35.95, -37.72 -34.98, -36.75 -36.97 C-35.77 -38.97, -38.6 -40.92, -37.33 -44.02 C-36.06 -47.12, -32.14 -52.4, -29.12 -55.58 C-26.1 -58.77, -23.22 -63.76, -19.21 -63.14 C-15.19 -62.51, -10.49 -56.78, -5.04 -51.83 C0.4 -46.88, 8.44 -38.48, 13.48 -33.43 C18.52 -28.38, 23.53 -25.09, 25.2 -21.54 C26.88 -17.98, 25.37 -15.24, 23.53 -12.1 C21.69 -8.95, 17.04 -5.26, 14.15 -2.67 C11.25 -0.08, 9.44 3.92, 6.17 3.44 C2.9 2.97, -3.54 -4, -5.49 -5.49" stroke="#E1E1E1" stroke-width="4" fill="none"></path></g></g><mask></mask><g stroke-linecap="round"><g transform="translate(191.8278195756813 61.781980720751676) rotate(357.93939184074344 18.50536846093658 19.725444604350997)"><path d="M0 0 C6.17 6.58, 30.84 32.88, 37.01 39.45 M0 0 C6.17 6.58, 30.84 32.88, 37.01 39.45" stroke="#E1E1E1" stroke-width="4" fill="none"></path></g></g><mask></mask><g stroke-linecap="round"><g transform="translate(218.32624615847652 35.209137656857024) rotate(357.93939184074344 18.674383337946338 19.06992509872626)"><path d="M0 0 C6.22 6.36, 31.12 31.78, 37.35 38.14 M0 0 C6.22 6.36, 31.12 31.78, 37.35 38.14" stroke="#E1E1E1" stroke-width="4" fill="none"></path></g></g><mask></mask></svg>