<svg version="1.1" xmlns="http://www.w3.org/2000/svg" viewBox="0 0 856.1387042797883 857.4443483677501" width="856.1387042797883" height="857.4443483677501" class="excalidraw-svg"><!-- svg-source:excalidraw --><metadata></metadata><defs><style class="style-fonts">
      </style></defs><rect x="0" y="0" width="856.1387042797883" height="857.4443483677501" fill="#000000"></rect><g stroke-linecap="round" transform="translate(10 11.30564408796181) rotate(0 418.06935213989414 418.06935213989414)"><path d="M836.14 418.07 C836.14 424.7, 835.98 431.34, 835.67 437.96 C835.35 444.59, 834.88 451.21, 834.25 457.81 C833.62 464.41, 832.83 471, 831.88 477.57 C830.94 484.13, 829.84 490.68, 828.58 497.19 C827.33 503.7, 825.92 510.19, 824.35 516.63 C822.79 523.08, 821.07 529.49, 819.2 535.85 C817.34 542.22, 815.31 548.54, 813.15 554.81 C810.98 561.07, 808.66 567.29, 806.19 573.45 C803.73 579.61, 801.11 585.71, 798.36 591.74 C795.6 597.77, 792.7 603.75, 789.66 609.64 C786.63 615.53, 783.44 621.36, 780.13 627.1 C776.81 632.85, 773.36 638.52, 769.77 644.09 C766.19 649.67, 762.46 655.17, 758.62 660.57 C754.77 665.97, 750.79 671.29, 746.69 676.5 C742.6 681.71, 738.37 686.84, 734.03 691.85 C729.68 696.86, 725.22 701.77, 720.64 706.57 C716.06 711.37, 711.37 716.06, 706.57 720.64 C701.77 725.22, 696.86 729.68, 691.85 734.03 C686.84 738.37, 681.71 742.6, 676.5 746.69 C671.29 750.79, 665.97 754.77, 660.57 758.62 C655.17 762.46, 649.67 766.19, 644.09 769.77 C638.52 773.36, 632.85 776.81, 627.1 780.13 C621.36 783.44, 615.53 786.63, 609.64 789.66 C603.75 792.7, 597.77 795.6, 591.74 798.36 C585.71 801.11, 579.61 803.73, 573.45 806.19 C567.29 808.66, 561.07 810.98, 554.81 813.15 C548.54 815.31, 542.22 817.34, 535.85 819.2 C529.49 821.07, 523.08 822.79, 516.63 824.35 C510.19 825.92, 503.7 827.33, 497.19 828.58 C490.68 829.84, 484.13 830.94, 477.57 831.88 C471 832.83, 464.41 833.62, 457.81 834.25 C451.21 834.88, 444.59 835.35, 437.96 835.67 C431.34 835.98, 424.7 836.14, 418.07 836.14 C411.44 836.14, 404.8 835.98, 398.18 835.67 C391.55 835.35, 384.93 834.88, 378.33 834.25 C371.73 833.62, 365.14 832.83, 358.57 831.88 C352.01 830.94, 345.46 829.84, 338.95 828.58 C332.44 827.33, 325.95 825.92, 319.51 824.35 C313.06 822.79, 306.65 821.07, 300.29 819.2 C293.92 817.34, 287.6 815.31, 281.33 813.15 C275.07 810.98, 268.84 808.66, 262.69 806.19 C256.53 803.73, 250.43 801.11, 244.4 798.36 C238.37 795.6, 232.39 792.7, 226.5 789.66 C220.61 786.63, 214.78 783.44, 209.03 780.13 C203.29 776.81, 197.62 773.36, 192.04 769.77 C186.47 766.19, 180.97 762.46, 175.57 758.62 C170.16 754.77, 164.85 750.79, 159.64 746.69 C154.42 742.6, 149.3 738.37, 144.29 734.03 C139.28 729.68, 134.37 725.22, 129.57 720.64 C124.77 716.06, 120.07 711.37, 115.5 706.57 C110.92 701.77, 106.46 696.86, 102.11 691.85 C97.77 686.84, 93.54 681.71, 89.44 676.5 C85.35 671.29, 81.37 665.97, 77.52 660.57 C73.67 655.17, 69.95 649.67, 66.37 644.09 C62.78 638.52, 59.33 632.85, 56.01 627.1 C52.7 621.36, 49.51 615.53, 46.47 609.64 C43.44 603.75, 40.53 597.77, 37.78 591.74 C35.03 585.71, 32.41 579.61, 29.95 573.45 C27.48 567.29, 25.16 561.07, 22.99 554.81 C20.82 548.54, 18.8 542.22, 16.93 535.85 C15.07 529.49, 13.35 523.08, 11.78 516.63 C10.22 510.19, 8.81 503.7, 7.56 497.19 C6.3 490.68, 5.2 484.13, 4.26 477.57 C3.31 471, 2.52 464.41, 1.89 457.81 C1.26 451.21, 0.79 444.59, 0.47 437.96 C0.16 431.34, 0 424.7, 0 418.07 C0 411.44, 0.16 404.8, 0.47 398.18 C0.79 391.55, 1.26 384.93, 1.89 378.33 C2.52 371.73, 3.31 365.14, 4.26 358.57 C5.2 352.01, 6.3 345.46, 7.56 338.95 C8.81 332.44, 10.22 325.95, 11.78 319.51 C13.35 313.06, 15.07 306.65, 16.93 300.29 C18.8 293.92, 20.82 287.6, 22.99 281.33 C25.16 275.07, 27.48 268.84, 29.95 262.69 C32.41 256.53, 35.03 250.43, 37.78 244.4 C40.53 238.37, 43.44 232.39, 46.47 226.5 C49.51 220.61, 52.7 214.78, 56.01 209.03 C59.33 203.29, 62.78 197.62, 66.37 192.04 C69.95 186.47, 73.67 180.97, 77.52 175.57 C81.37 170.16, 85.35 164.85, 89.44 159.64 C93.54 154.42, 97.77 149.3, 102.11 144.29 C106.46 139.28, 110.92 134.37, 115.5 129.57 C120.07 124.77, 124.77 120.07, 129.57 115.5 C134.37 110.92, 139.28 106.46, 144.29 102.11 C149.3 97.77, 154.42 93.54, 159.64 89.44 C164.85 85.35, 170.16 81.37, 175.57 77.52 C180.97 73.67, 186.47 69.95, 192.04 66.37 C197.62 62.78, 203.29 59.33, 209.03 56.01 C214.78 52.7, 220.61 49.51, 226.5 46.47 C232.39 43.44, 238.37 40.53, 244.4 37.78 C250.43 35.03, 256.53 32.41, 262.69 29.95 C268.84 27.48, 275.07 25.16, 281.33 22.99 C287.6 20.82, 293.92 18.8, 300.29 16.93 C306.65 15.07, 313.06 13.35, 319.51 11.78 C325.95 10.22, 332.44 8.81, 338.95 7.56 C345.46 6.3, 352.01 5.2, 358.57 4.26 C365.14 3.31, 371.73 2.52, 378.33 1.89 C384.93 1.26, 391.55 0.79, 398.18 0.47 C404.8 0.16, 411.44 0, 418.07 0 C424.7 0, 431.34 0.16, 437.96 0.47 C444.59 0.79, 451.21 1.26, 457.81 1.89 C464.41 2.52, 471 3.31, 477.57 4.26 C484.13 5.2, 490.68 6.3, 497.19 7.56 C503.7 8.81, 510.19 10.22, 516.63 11.78 C523.08 13.35, 529.49 15.07, 535.85 16.93 C542.22 18.8, 548.54 20.82, 554.81 22.99 C561.07 25.16, 567.29 27.48, 573.45 29.95 C579.61 32.41, 585.71 35.03, 591.74 37.78 C597.77 40.53, 603.75 43.44, 609.64 46.47 C615.53 49.51, 621.36 52.7, 627.1 56.01 C632.85 59.33, 638.52 62.78, 644.09 66.37 C649.67 69.95, 655.17 73.67, 660.57 77.52 C665.97 81.37, 671.29 85.35, 676.5 89.44 C681.71 93.54, 686.84 97.77, 691.85 102.11 C696.86 106.46, 701.77 110.92, 706.57 115.5 C711.37 120.07, 716.06 124.77, 720.64 129.57 C725.22 134.37, 729.68 139.28, 734.03 144.29 C738.37 149.3, 742.6 154.42, 746.69 159.64 C750.79 164.85, 754.77 170.16, 758.62 175.57 C762.46 180.97, 766.19 186.47, 769.77 192.04 C773.36 197.62, 776.81 203.29, 780.13 209.03 C783.44 214.78, 786.63 220.61, 789.66 226.5 C792.7 232.39, 795.6 238.37, 798.36 244.4 C801.11 250.43, 803.73 256.53, 806.19 262.69 C808.66 268.84, 810.98 275.07, 813.15 281.33 C815.31 287.6, 817.34 293.92, 819.2 300.29 C821.07 306.65, 822.79 313.06, 824.35 319.51 C825.92 325.95, 827.33 332.44, 828.58 338.95 C829.84 345.46, 830.94 352.01, 831.88 358.57 C832.83 365.14, 833.62 371.73, 834.25 378.33 C834.88 384.93, 835.35 391.55, 835.67 398.18 C835.98 404.8, 836.14 411.44, 836.14 418.07" stroke="#E1E1E1" stroke-width="4" fill="none"></path></g><g stroke-linecap="round"><g transform="translate(429.5001394050828 10) rotate(0 0 37.611777247485406)"><path d="M0 0 C0 12.54, 0 62.69, 0 75.22 M0 0 C0 12.54, 0 62.69, 0 75.22" stroke="#E1E1E1" stroke-width="4" fill="none"></path></g></g><mask></mask><g stroke-linecap="round"><g transform="translate(131.25888423201195 135.70564676173717) rotate(0 24.1100915342455 24.110091534245385)"><path d="M0 0 C8.04 8.04, 40.18 40.18, 48.22 48.22 M0 0 C8.04 8.04, 40.18 40.18, 48.22 48.22" stroke="#E1E1E1" stroke-width="4" fill="none"></path></g></g><mask></mask><g stroke-linecap="round"><g transform="translate(727.8516475779172 137.85213485088502) rotate(0 -23.147961840995663 23.147961840995777)"><path d="M0 0 C-7.72 7.72, -38.58 38.58, -46.3 46.3 M0 0 C-7.72 7.72, -38.58 38.58, -46.3 46.3" stroke="#E1E1E1" stroke-width="4" fill="none"></path></g></g><mask></mask><g stroke-linecap="round"><g transform="translate(845.2986555761104 435.1906935883899) rotate(0 -30.63310690307253 0)"><path d="M0 0 C-10.21 0, -51.06 0, -61.27 0 M0 0 C-10.21 0, -51.06 0, -61.27 0" stroke="#E1E1E1" stroke-width="4" fill="none"></path></g></g><mask></mask><g stroke-linecap="round"><g transform="translate(722.9591707134061 726.1552507770612) rotate(0 -24.17210884661256 -24.172108846612446)"><path d="M0 0 C-8.06 -8.06, -40.29 -40.29, -48.34 -48.34 M0 0 C-8.06 -8.06, -40.29 -40.29, -48.34 -48.34" stroke="#E1E1E1" stroke-width="4" fill="none"></path></g></g><mask></mask><g stroke-linecap="round"><g transform="translate(430.2960282471257 845.6453846771228) rotate(0 0 -34.06473152071521)"><path d="M0 0 C0 -11.35, 0 -56.77, 0 -68.13 M0 0 C0 -11.35, 0 -56.77, 0 -68.13" stroke="#E1E1E1" stroke-width="4" fill="none"></path></g></g><mask></mask><g stroke-linecap="round"><g transform="translate(137.0540575320864 726.3792021828299) rotate(0 23.97744339390499 -23.977443393904878)"><path d="M0 0 C7.99 -7.99, 39.96 -39.96, 47.95 -47.95 M0 0 C7.99 -7.99, 39.96 -39.96, 47.95 -47.95" stroke="#E1E1E1" stroke-width="4" fill="none"></path></g></g><mask></mask><g stroke-linecap="round"><g transform="translate(411.308394444085 477.01447996746924) rotate(0 18.739763857064816 46.727742088062655)"><path d="M0 0 C0 -12.28, 0 -52.92, 0 -73.66 C0 -94.39, -0.42 -111.83, 0 -124.41 C0.42 -136.99, 0.03 -143.21, 2.52 -149.11 C5.01 -155.02, 10.94 -158.1, 14.96 -159.83 C18.97 -161.57, 23.09 -161.07, 26.6 -159.52 C30.11 -157.98, 34.22 -154.07, 36 -150.56 C37.78 -147.05, 37.08 -144.86, 37.29 -138.46 C37.51 -132.06, 37.29 -145.92, 37.29 -112.17 C37.29 -78.41, 37.29 19.26, 37.29 64.06 C37.29 108.86, 37.29 133.25, 37.29 156.63 C37.29 180.02, 37.26 192.56, 37.29 204.37 C37.33 216.19, 37.71 221.07, 37.5 227.54 C37.28 234, 37.62 239.18, 36.02 243.18 C34.43 247.19, 31.47 249.87, 27.91 251.55 C24.35 253.23, 18.58 254.24, 14.67 253.29 C10.77 252.33, 6.82 249.25, 4.48 245.81 C2.15 242.37, 1.41 240.92, 0.66 232.64 C-0.09 224.35, 0.1 214.05, -0.02 196.11 C-0.13 178.16, -0.02 157.66, -0.02 124.98 C-0.01 92.29, 0 20.83, 0 0 M0 0 C0 -12.28, 0 -52.92, 0 -73.66 C0 -94.39, -0.42 -111.83, 0 -124.41 C0.42 -136.99, 0.03 -143.21, 2.52 -149.11 C5.01 -155.02, 10.94 -158.1, 14.96 -159.83 C18.97 -161.57, 23.09 -161.07, 26.6 -159.52 C30.11 -157.98, 34.22 -154.07, 36 -150.56 C37.78 -147.05, 37.08 -144.86, 37.29 -138.46 C37.51 -132.06, 37.29 -145.92, 37.29 -112.17 C37.29 -78.41, 37.29 19.26, 37.29 64.06 C37.29 108.86, 37.29 133.25, 37.29 156.63 C37.29 180.02, 37.26 192.56, 37.29 204.37 C37.33 216.19, 37.71 221.07, 37.5 227.54 C37.28 234, 37.62 239.18, 36.02 243.18 C34.43 247.19, 31.47 249.87, 27.91 251.55 C24.35 253.23, 18.58 254.24, 14.67 253.29 C10.77 252.33, 6.82 249.25, 4.48 245.81 C2.15 242.37, 1.41 240.92, 0.66 232.64 C-0.09 224.35, 0.1 214.05, -0.02 196.11 C-0.13 178.16, -0.02 157.66, -0.02 124.98 C-0.01 92.29, 0 20.83, 0 0" stroke="#E1E1E1" stroke-width="4" fill="none"></path></g></g><mask></mask><g stroke-linecap="round"><g transform="translate(410.1458888710389 403.92108921705017) rotate(0 -153.05894114381334 44.57991582922841)" fill-rule="evenodd"><path d="M0 0 C-6.03 -2.38, -21.23 -8.25, -36.16 -14.27 C-51.1 -20.29, -70.03 -28.46, -89.59 -36.1 C-109.16 -43.75, -137.98 -54.22, -153.57 -60.14 C-169.15 -66.06, -175.27 -69.31, -183.09 -71.62 C-190.92 -73.94, -196.08 -74.32, -200.5 -74.06 C-204.91 -73.8, -207.54 -72.49, -209.61 -70.06 C-211.69 -67.64, -212.99 -62.97, -212.95 -59.5 C-212.91 -56.03, -212.07 -52.47, -209.35 -49.24 C-206.63 -46, -202.81 -43.22, -196.64 -40.08 C-190.48 -36.95, -184.2 -34.97, -172.38 -30.44 C-160.56 -25.92, -141.13 -18.94, -125.73 -12.92 C-110.34 -6.9, -93.08 0.52, -80 5.65 C-66.91 10.78, -54.74 15, -47.22 17.84 C-39.71 20.69, -38.36 21.43, -34.91 22.71 C-31.46 23.99, -26.28 24.21, -26.52 25.51 C-26.76 26.8, -27.23 26.8, -36.35 30.48 C-45.46 34.16, -59.75 39.21, -81.19 47.6 C-102.63 55.99, -141.62 71.65, -164.98 80.83 C-188.33 90.01, -204.02 96.05, -221.3 102.67 C-238.59 109.29, -256.27 115.87, -268.67 120.58 C-281.06 125.28, -289.82 127.97, -295.66 130.9 C-301.51 133.83, -301.98 135.29, -303.75 138.17 C-305.52 141.05, -306.44 144.89, -306.28 148.17 C-306.13 151.45, -304.77 155.35, -302.81 157.86 C-300.85 160.37, -297.72 162.36, -294.52 163.22 C-291.31 164.07, -288.25 164.15, -283.58 162.99 C-278.91 161.84, -276.58 160.23, -266.5 156.28 C-256.43 152.32, -243.3 147.15, -223.14 139.26 C-202.99 131.37, -169.42 118.38, -145.57 108.92 C-121.73 99.45, -97.23 89.34, -80.06 82.45 C-62.89 75.57, -53.73 71.92, -42.55 67.59 C-31.37 63.26, -19.99 59.43, -12.96 56.47 C-5.93 53.52, -2.56 52.51, -0.37 49.83 C1.81 47.16, 0.19 44.21, 0.16 40.45 C0.14 36.69, -0.48 34.01, -0.51 27.27 C-0.54 20.53, -0.09 4.54, 0 0" stroke="none" stroke-width="0" fill="#e1e1e1" fill-rule="evenodd"></path><path d="M0 0 C-6.03 -2.38, -21.23 -8.25, -36.16 -14.27 C-51.1 -20.29, -70.03 -28.46, -89.59 -36.1 C-109.16 -43.75, -137.98 -54.22, -153.57 -60.14 C-169.15 -66.06, -175.27 -69.31, -183.09 -71.62 C-190.92 -73.94, -196.08 -74.32, -200.5 -74.06 C-204.91 -73.8, -207.54 -72.49, -209.61 -70.06 C-211.69 -67.64, -212.99 -62.97, -212.95 -59.5 C-212.91 -56.03, -212.07 -52.47, -209.35 -49.24 C-206.63 -46, -202.81 -43.22, -196.64 -40.08 C-190.48 -36.95, -184.2 -34.97, -172.38 -30.44 C-160.56 -25.92, -141.13 -18.94, -125.73 -12.92 C-110.34 -6.9, -93.08 0.52, -80 5.65 C-66.91 10.78, -54.74 15, -47.22 17.84 C-39.71 20.69, -38.36 21.43, -34.91 22.71 C-31.46 23.99, -26.28 24.21, -26.52 25.51 C-26.76 26.8, -27.23 26.8, -36.35 30.48 C-45.46 34.16, -59.75 39.21, -81.19 47.6 C-102.63 55.99, -141.62 71.65, -164.98 80.83 C-188.33 90.01, -204.02 96.05, -221.3 102.67 C-238.59 109.29, -256.27 115.87, -268.67 120.58 C-281.06 125.28, -289.82 127.97, -295.66 130.9 C-301.51 133.83, -301.98 135.29, -303.75 138.17 C-305.52 141.05, -306.44 144.89, -306.28 148.17 C-306.13 151.45, -304.77 155.35, -302.81 157.86 C-300.85 160.37, -297.72 162.36, -294.52 163.22 C-291.31 164.07, -288.25 164.15, -283.58 162.99 C-278.91 161.84, -276.58 160.23, -266.5 156.28 C-256.43 152.32, -243.3 147.15, -223.14 139.26 C-202.99 131.37, -169.42 118.38, -145.57 108.92 C-121.73 99.45, -97.23 89.34, -80.06 82.45 C-62.89 75.57, -53.73 71.92, -42.55 67.59 C-31.37 63.26, -19.99 59.43, -12.96 56.47 C-5.93 53.52, -2.56 52.51, -0.37 49.83 C1.81 47.16, 0.19 44.21, 0.16 40.45 C0.14 36.69, -0.48 34.01, -0.51 27.27 C-0.54 20.53, -0.09 4.54, 0 0 M0 0 C-6.03 -2.38, -21.23 -8.25, -36.16 -14.27 C-51.1 -20.29, -70.03 -28.46, -89.59 -36.1 C-109.16 -43.75, -137.98 -54.22, -153.57 -60.14 C-169.15 -66.06, -175.27 -69.31, -183.09 -71.62 C-190.92 -73.94, -196.08 -74.32, -200.5 -74.06 C-204.91 -73.8, -207.54 -72.49, -209.61 -70.06 C-211.69 -67.64, -212.99 -62.97, -212.95 -59.5 C-212.91 -56.03, -212.07 -52.47, -209.35 -49.24 C-206.63 -46, -202.81 -43.22, -196.64 -40.08 C-190.48 -36.95, -184.2 -34.97, -172.38 -30.44 C-160.56 -25.92, -141.13 -18.94, -125.73 -12.92 C-110.34 -6.9, -93.08 0.52, -80 5.65 C-66.91 10.78, -54.74 15, -47.22 17.84 C-39.71 20.69, -38.36 21.43, -34.91 22.71 C-31.46 23.99, -26.28 24.21, -26.52 25.51 C-26.76 26.8, -27.23 26.8, -36.35 30.48 C-45.46 34.16, -59.75 39.21, -81.19 47.6 C-102.63 55.99, -141.62 71.65, -164.98 80.83 C-188.33 90.01, -204.02 96.05, -221.3 102.67 C-238.59 109.29, -256.27 115.87, -268.67 120.58 C-281.06 125.28, -289.82 127.97, -295.66 130.9 C-301.51 133.83, -301.98 135.29, -303.75 138.17 C-305.52 141.05, -306.44 144.89, -306.28 148.17 C-306.13 151.45, -304.77 155.35, -302.81 157.86 C-300.85 160.37, -297.72 162.36, -294.52 163.22 C-291.31 164.07, -288.25 164.15, -283.58 162.99 C-278.91 161.84, -276.58 160.23, -266.5 156.28 C-256.43 152.32, -243.3 147.15, -223.14 139.26 C-202.99 131.37, -169.42 118.38, -145.57 108.92 C-121.73 99.45, -97.23 89.34, -80.06 82.45 C-62.89 75.57, -53.73 71.92, -42.55 67.59 C-31.37 63.26, -19.99 59.43, -12.96 56.47 C-5.93 53.52, -2.56 52.51, -0.37 49.83 C1.81 47.16, 0.19 44.21, 0.16 40.45 C0.14 36.69, -0.48 34.01, -0.51 27.27 C-0.54 20.53, -0.09 4.54, 0 0" stroke="#E1E1E1" stroke-width="4" fill="none"></path></g></g><mask></mask><g stroke-linecap="round"><g transform="translate(449.2741253197986 392.60684640398586) rotate(0 12.411540420940241 36.911885964335056)" fill-rule="evenodd"><path d="M0 0 C0.05 5.56, 0.24 22.52, 0.32 33.34 C0.4 44.17, 0.42 58.21, 0.49 64.96 C0.56 71.7, -1.18 72.89, 0.76 73.82 C2.69 74.76, 8.73 73.06, 12.13 70.59 C15.52 68.12, 19.01 63.89, 21.12 59.02 C23.24 54.15, 24.51 47.3, 24.82 41.37 C25.13 35.44, 24.31 28.75, 22.99 23.42 C21.68 18.1, 19.25 12.9, 16.95 9.43 C14.66 5.96, 12.06 4.17, 9.23 2.6 C6.4 1.02, 1.54 0.43, 0 0" stroke="none" stroke-width="0" fill="#e1e1e1" fill-rule="evenodd"></path><path d="M0 0 C0.05 5.56, 0.24 22.52, 0.32 33.34 C0.4 44.17, 0.42 58.21, 0.49 64.96 C0.56 71.7, -1.18 72.89, 0.76 73.82 C2.69 74.76, 8.73 73.06, 12.13 70.59 C15.52 68.12, 19.01 63.89, 21.12 59.02 C23.24 54.15, 24.51 47.3, 24.82 41.37 C25.13 35.44, 24.31 28.75, 22.99 23.42 C21.68 18.1, 19.25 12.9, 16.95 9.43 C14.66 5.96, 12.06 4.17, 9.23 2.6 C6.4 1.02, 1.54 0.43, 0 0 M0 0 C0.05 5.56, 0.24 22.52, 0.32 33.34 C0.4 44.17, 0.42 58.21, 0.49 64.96 C0.56 71.7, -1.18 72.89, 0.76 73.82 C2.69 74.76, 8.73 73.06, 12.13 70.59 C15.52 68.12, 19.01 63.89, 21.12 59.02 C23.24 54.15, 24.51 47.3, 24.82 41.37 C25.13 35.44, 24.31 28.75, 22.99 23.42 C21.68 18.1, 19.25 12.9, 16.95 9.43 C14.66 5.96, 12.06 4.17, 9.23 2.6 C6.4 1.02, 1.54 0.43, 0 0" stroke="#E1E1E1" stroke-width="4" fill="none"></path></g></g><mask></mask></svg>