<svg version="1.1" xmlns="http://www.w3.org/2000/svg" viewBox="0 0 602.537422349 582.4548572321199" width="602.537422349" height="582.4548572321199" class="excalidraw-svg"><!-- svg-source:excalidraw --><metadata></metadata><defs><style class="style-fonts">
      </style></defs><rect x="0" y="0" width="602.537422349" height="582.4548572321199" fill="#000000"></rect><g stroke-linecap="round"><g transform="translate(11.692888319568567 40.21603804077699) rotate(0 236.31854583361113 184.97134013410817)"><path d="M0 0 C0.04 23.79, 0.32 101.3, 0.25 142.73 C0.17 184.16, -0.52 224.73, -0.45 248.58 C-0.38 272.43, -3.93 276.73, 0.68 285.81 C5.29 294.89, 16.25 300.44, 27.22 303.06 C38.18 305.67, 59.28 297.74, 66.49 301.51 C73.7 305.27, 69.94 309.3, 70.47 325.65 C70.99 342, 61.19 393.46, 69.66 399.62 C78.13 405.77, 98.26 380.06, 121.28 362.6 C144.31 345.13, 183.87 306.53, 207.78 294.82 C231.69 283.11, 228.77 293.08, 264.77 292.34 C300.76 291.59, 391.61 290.81, 423.77 290.36 C455.93 289.9, 450.27 296.21, 457.74 289.63 C465.22 283.04, 466.35 272.99, 468.61 250.83 C470.86 228.67, 470.52 197.79, 471.27 156.66 C472.01 115.53, 475.3 34.61, 473.09 4.03 C470.88 -26.54, 464.58 -21.2, 458.01 -26.82 C451.45 -32.43, 461.3 -29.31, 433.69 -29.67 C406.07 -30.04, 356.95 -29.35, 292.33 -29.01 C227.71 -28.67, 90.73 -28.35, 45.95 -27.64 C1.17 -26.93, 31.29 -29.36, 23.63 -24.76 C15.97 -20.15, 3.94 -4.13, 0 0 M0 0 C0.04 23.79, 0.32 101.3, 0.25 142.73 C0.17 184.16, -0.52 224.73, -0.45 248.58 C-0.38 272.43, -3.93 276.73, 0.68 285.81 C5.29 294.89, 16.25 300.44, 27.22 303.06 C38.18 305.67, 59.28 297.74, 66.49 301.51 C73.7 305.27, 69.94 309.3, 70.47 325.65 C70.99 342, 61.19 393.46, 69.66 399.62 C78.13 405.77, 98.26 380.06, 121.28 362.6 C144.31 345.13, 183.87 306.53, 207.78 294.82 C231.69 283.11, 228.77 293.08, 264.77 292.34 C300.76 291.59, 391.61 290.81, 423.77 290.36 C455.93 289.9, 450.27 296.21, 457.74 289.63 C465.22 283.04, 466.35 272.99, 468.61 250.83 C470.86 228.67, 470.52 197.79, 471.27 156.66 C472.01 115.53, 475.3 34.61, 473.09 4.03 C470.88 -26.54, 464.58 -21.2, 458.01 -26.82 C451.45 -32.43, 461.3 -29.31, 433.69 -29.67 C406.07 -30.04, 356.95 -29.35, 292.33 -29.01 C227.71 -28.67, 90.73 -28.35, 45.95 -27.64 C1.17 -26.93, 31.29 -29.36, 23.63 -24.76 C15.97 -20.15, 3.94 -4.13, 0 0" stroke="#E1E1E1" stroke-width="4" fill="none"></path></g></g><mask></mask><g stroke-linecap="round"><g transform="translate(235.824497559657 331.07769473194116) rotate(0 177.13984100290577 78.9378686366048)"><path d="M0 0 C-0.28 22.14, -2.91 105.65, -1.67 132.83 C-0.42 160, -0.4 157.49, 7.47 163.05 C15.33 168.61, 23.36 165.98, 45.52 166.21 C67.68 166.44, 117.48 164.74, 140.45 164.45 C163.41 164.15, 170.83 161.4, 183.32 164.45 C195.81 167.49, 203.48 174.42, 215.39 182.72 C227.29 191.01, 242.11 204.7, 254.75 214.2 C267.39 223.7, 284.68 247.9, 291.23 239.71 C297.79 231.53, 287 179.11, 294.07 165.08 C301.14 151.06, 323.54 157.32, 333.64 155.58 C343.73 153.85, 350.9 162.78, 354.62 154.68 C358.33 146.57, 355.98 128.39, 355.95 106.95 C355.91 85.5, 354.67 50.06, 354.41 26 C354.14 1.94, 354.37 -22.46, 354.36 -37.41 C354.35 -52.36, 358.03 -56.39, 354.36 -63.7 C350.69 -71.01, 341.97 -78.25, 332.36 -81.27 C322.76 -84.29, 310.13 -82.09, 296.75 -81.84 C283.38 -81.59, 259.56 -80.1, 252.12 -79.75 M0 0 C-0.28 22.14, -2.91 105.65, -1.67 132.83 C-0.42 160, -0.4 157.49, 7.47 163.05 C15.33 168.61, 23.36 165.98, 45.52 166.21 C67.68 166.44, 117.48 164.74, 140.45 164.45 C163.41 164.15, 170.83 161.4, 183.32 164.45 C195.81 167.49, 203.48 174.42, 215.39 182.72 C227.29 191.01, 242.11 204.7, 254.75 214.2 C267.39 223.7, 284.68 247.9, 291.23 239.71 C297.79 231.53, 287 179.11, 294.07 165.08 C301.14 151.06, 323.54 157.32, 333.64 155.58 C343.73 153.85, 350.9 162.78, 354.62 154.68 C358.33 146.57, 355.98 128.39, 355.95 106.95 C355.91 85.5, 354.67 50.06, 354.41 26 C354.14 1.94, 354.37 -22.46, 354.36 -37.41 C354.35 -52.36, 358.03 -56.39, 354.36 -63.7 C350.69 -71.01, 341.97 -78.25, 332.36 -81.27 C322.76 -84.29, 310.13 -82.09, 296.75 -81.84 C283.38 -81.59, 259.56 -80.1, 252.12 -79.75" stroke="#E1E1E1" stroke-width="4" fill="none"></path></g></g><mask></mask><g stroke-linecap="round" transform="translate(84.48604448894895 145.8669380555914) rotate(0 29.03947256831671 29.03947256831671)"><path d="M58.08 29.04 C58.08 30.72, 57.93 32.43, 57.64 34.08 C57.35 35.74, 56.9 37.39, 56.33 38.97 C55.75 40.55, 55.03 42.1, 54.19 43.56 C53.35 45.01, 52.37 46.42, 51.28 47.71 C50.2 48.99, 48.99 50.2, 47.71 51.28 C46.42 52.37, 45.01 53.35, 43.56 54.19 C42.1 55.03, 40.55 55.75, 38.97 56.33 C37.39 56.9, 35.74 57.35, 34.08 57.64 C32.43 57.93, 30.72 58.08, 29.04 58.08 C27.36 58.08, 25.65 57.93, 24 57.64 C22.34 57.35, 20.69 56.9, 19.11 56.33 C17.53 55.75, 15.98 55.03, 14.52 54.19 C13.06 53.35, 11.66 52.37, 10.37 51.28 C9.09 50.2, 7.87 48.99, 6.79 47.71 C5.71 46.42, 4.73 45.01, 3.89 43.56 C3.05 42.1, 2.33 40.55, 1.75 38.97 C1.18 37.39, 0.73 35.74, 0.44 34.08 C0.15 32.43, 0 30.72, 0 29.04 C0 27.36, 0.15 25.65, 0.44 24 C0.73 22.34, 1.18 20.69, 1.75 19.11 C2.33 17.53, 3.05 15.98, 3.89 14.52 C4.73 13.06, 5.71 11.66, 6.79 10.37 C7.87 9.09, 9.09 7.87, 10.37 6.79 C11.66 5.71, 13.06 4.73, 14.52 3.89 C15.98 3.05, 17.53 2.33, 19.11 1.75 C20.69 1.18, 22.34 0.73, 24 0.44 C25.65 0.15, 27.36 0, 29.04 0 C30.72 0, 32.43 0.15, 34.08 0.44 C35.74 0.73, 37.39 1.18, 38.97 1.75 C40.55 2.33, 42.1 3.05, 43.56 3.89 C45.01 4.73, 46.42 5.71, 47.71 6.79 C48.99 7.87, 50.2 9.09, 51.28 10.37 C52.37 11.66, 53.35 13.06, 54.19 14.52 C55.03 15.98, 55.75 17.53, 56.33 19.11 C56.9 20.69, 57.35 22.34, 57.64 24 C57.93 25.65, 58.01 28.2, 58.08 29.04 C58.15 29.88, 58.15 28.2, 58.08 29.04" stroke="#E1E1E1" stroke-width="4" fill="none"></path></g><g stroke-linecap="round" transform="translate(215.09146947360188 145.31098594525815) rotate(0 29.039472568316697 29.03947256831671)"><path d="M58.08 29.04 C58.08 30.72, 57.93 32.43, 57.64 34.08 C57.35 35.74, 56.9 37.39, 56.33 38.97 C55.75 40.55, 55.03 42.1, 54.19 43.56 C53.35 45.01, 52.37 46.42, 51.28 47.71 C50.2 48.99, 48.99 50.2, 47.71 51.28 C46.42 52.37, 45.01 53.35, 43.56 54.19 C42.1 55.03, 40.55 55.75, 38.97 56.33 C37.39 56.9, 35.74 57.35, 34.08 57.64 C32.43 57.93, 30.72 58.08, 29.04 58.08 C27.36 58.08, 25.65 57.93, 24 57.64 C22.34 57.35, 20.69 56.9, 19.11 56.33 C17.53 55.75, 15.98 55.03, 14.52 54.19 C13.06 53.35, 11.66 52.37, 10.37 51.28 C9.09 50.2, 7.87 48.99, 6.79 47.71 C5.71 46.42, 4.73 45.01, 3.89 43.56 C3.05 42.1, 2.33 40.55, 1.75 38.97 C1.18 37.39, 0.73 35.74, 0.44 34.08 C0.15 32.43, 0 30.72, 0 29.04 C0 27.36, 0.15 25.65, 0.44 24 C0.73 22.34, 1.18 20.69, 1.75 19.11 C2.33 17.53, 3.05 15.98, 3.89 14.52 C4.73 13.06, 5.71 11.66, 6.79 10.37 C7.87 9.09, 9.09 7.87, 10.37 6.79 C11.66 5.71, 13.06 4.73, 14.52 3.89 C15.98 3.05, 17.53 2.33, 19.11 1.75 C20.69 1.18, 22.34 0.73, 24 0.44 C25.65 0.15, 27.36 0, 29.04 0 C30.72 0, 32.43 0.15, 34.08 0.44 C35.74 0.73, 37.39 1.18, 38.97 1.75 C40.55 2.33, 42.1 3.05, 43.56 3.89 C45.01 4.73, 46.42 5.71, 47.71 6.79 C48.99 7.87, 50.2 9.09, 51.28 10.37 C52.37 11.66, 53.35 13.06, 54.19 14.52 C55.03 15.98, 55.75 17.53, 56.33 19.11 C56.9 20.69, 57.35 22.34, 57.64 24 C57.93 25.65, 58.01 28.2, 58.08 29.04 C58.15 29.88, 58.15 28.2, 58.08 29.04" stroke="#E1E1E1" stroke-width="4" fill="none"></path></g><g stroke-linecap="round" transform="translate(346.3250481413559 147.77546629582707) rotate(0 29.0394725683167 29.03947256831671)"><path d="M58.08 29.04 C58.08 30.72, 57.93 32.43, 57.64 34.08 C57.35 35.74, 56.9 37.39, 56.33 38.97 C55.75 40.55, 55.03 42.1, 54.19 43.56 C53.35 45.01, 52.37 46.42, 51.28 47.71 C50.2 48.99, 48.99 50.2, 47.71 51.28 C46.42 52.37, 45.01 53.35, 43.56 54.19 C42.1 55.03, 40.55 55.75, 38.97 56.33 C37.39 56.9, 35.74 57.35, 34.08 57.64 C32.43 57.93, 30.72 58.08, 29.04 58.08 C27.36 58.08, 25.65 57.93, 24 57.64 C22.34 57.35, 20.69 56.9, 19.11 56.33 C17.53 55.75, 15.98 55.03, 14.52 54.19 C13.06 53.35, 11.66 52.37, 10.37 51.28 C9.09 50.2, 7.87 48.99, 6.79 47.71 C5.71 46.42, 4.73 45.01, 3.89 43.56 C3.05 42.1, 2.33 40.55, 1.75 38.97 C1.18 37.39, 0.73 35.74, 0.44 34.08 C0.15 32.43, 0 30.72, 0 29.04 C0 27.36, 0.15 25.65, 0.44 24 C0.73 22.34, 1.18 20.69, 1.75 19.11 C2.33 17.53, 3.05 15.98, 3.89 14.52 C4.73 13.06, 5.71 11.66, 6.79 10.37 C7.87 9.09, 9.09 7.87, 10.37 6.79 C11.66 5.71, 13.06 4.73, 14.52 3.89 C15.98 3.05, 17.53 2.33, 19.11 1.75 C20.69 1.18, 22.34 0.73, 24 0.44 C25.65 0.15, 27.36 0, 29.04 0 C30.72 0, 32.43 0.15, 34.08 0.44 C35.74 0.73, 37.39 1.18, 38.97 1.75 C40.55 2.33, 42.1 3.05, 43.56 3.89 C45.01 4.73, 46.42 5.71, 47.71 6.79 C48.99 7.87, 50.2 9.09, 51.28 10.37 C52.37 11.66, 53.35 13.06, 54.19 14.52 C55.03 15.98, 55.75 17.53, 56.33 19.11 C56.9 20.69, 57.35 22.34, 57.64 24 C57.93 25.65, 58.01 28.2, 58.08 29.04 C58.15 29.88, 58.15 28.2, 58.08 29.04" stroke="#E1E1E1" stroke-width="4" fill="none"></path></g></svg>