<svg version="1.1" xmlns="http://www.w3.org/2000/svg" viewBox="0 0 304.4787720740488 210.0968426088759" width="304.4787720740488" height="210.0968426088759" class="excalidraw-svg"><!-- svg-source:excalidraw --><metadata></metadata><defs><style class="style-fonts">
      </style></defs><rect x="0" y="0" width="304.4787720740488" height="210.0968426088759" fill="#000000"></rect><g stroke-linecap="round"><g transform="translate(195.32211446030414 92.93578316418177) rotate(43.3206057619764 -4.144622043591426 -14.250733689832117)" fill-rule="evenodd"><path d="M0 0 L-8.93 0 L-8.93 -20.35 L-16.28 -20.35 L-16.28 -28.5 L8 -28.5 L6.72 -20.41 L-0.02 -20.41 L0 0" stroke="none" stroke-width="0" fill="#E1E1E1" fill-rule="evenodd"></path><path d="M0 0 C-2.09 0, -4.18 0, -8.93 0 M0 0 C-3.4 0, -6.8 0, -8.93 0 M-8.93 0 C-8.93 -5.91, -8.93 -11.81, -8.93 -20.35 M-8.93 0 C-8.93 -5.82, -8.93 -11.64, -8.93 -20.35 M-8.93 -20.35 C-11.31 -20.35, -13.69 -20.35, -16.28 -20.35 M-8.93 -20.35 C-10.5 -20.35, -12.07 -20.35, -16.28 -20.35 M-16.28 -20.35 C-16.28 -22.3, -16.28 -24.25, -16.28 -28.5 M-16.28 -20.35 C-16.28 -22.04, -16.28 -23.73, -16.28 -28.5 M-16.28 -28.5 C-11.36 -28.5, -6.44 -28.5, 8 -28.5 M-16.28 -28.5 C-6.96 -28.5, 2.36 -28.5, 8 -28.5 M8 -28.5 C7.64 -26.26, 7.29 -24.01, 6.72 -20.41 M8 -28.5 C7.62 -26.15, 7.25 -23.8, 6.72 -20.41 M6.72 -20.41 C4.95 -20.41, 3.19 -20.41, -0.02 -20.41 M6.72 -20.41 C4.89 -20.41, 3.05 -20.41, -0.02 -20.41 M-0.02 -20.41 C-0.01 -13.69, -0.01 -6.98, 0 0 M-0.02 -20.41 C-0.02 -15.71, -0.01 -11.02, 0 0 M0 0 C0 0, 0 0, 0 0 M0 0 C0 0, 0 0, 0 0" stroke="#E1E1E1" stroke-width="4" fill="none"></path></g></g><mask></mask><g stroke-linecap="round"><g transform="translate(200.712983230583 73.17041271994992) rotate(43.3206057619764 8.704182834941438 -8.043123628328118)" fill-rule="evenodd"><path d="M0 0 C0 -0.65, -0.02 -2.54, 0 -3.92 C0.02 -5.3, 0.01 -7.23, 0.09 -8.29 C0.17 -9.35, 0.22 -9.5, 0.48 -10.29 C0.74 -11.09, 1.23 -12.3, 1.65 -13.04 C2.07 -13.78, 2.41 -14.2, 3 -14.75 C3.59 -15.31, 4.42 -15.95, 5.19 -16.36 C5.96 -16.78, 6.87 -17.04, 7.62 -17.24 C8.37 -17.44, 8.89 -17.52, 9.68 -17.58 C10.47 -17.63, 11.34 -17.63, 12.35 -17.58 C13.35 -17.53, 14.9 -17.36, 15.71 -17.28 C16.52 -17.2, 16.92 -17.15, 17.2 -17.1 C17.49 -17.05, 17.38 -17.1, 17.41 -16.98 C17.44 -16.85, 17.38 -16.69, 17.37 -16.34 C17.36 -15.99, 17.37 -15.53, 17.36 -14.9 C17.35 -14.27, 17.33 -13.3, 17.32 -12.55 C17.32 -11.81, 17.36 -10.83, 17.35 -10.43 C17.34 -10.03, 17.38 -10.18, 17.27 -10.13 C17.15 -10.09, 17.03 -10.16, 16.63 -10.16 C16.23 -10.17, 15.45 -10.17, 14.87 -10.16 C14.28 -10.16, 13.6 -10.18, 13.11 -10.15 C12.62 -10.12, 12.35 -10.09, 11.92 -9.96 C11.5 -9.83, 10.92 -9.57, 10.56 -9.36 C10.21 -9.15, 10.04 -9.02, 9.79 -8.7 C9.54 -8.38, 9.25 -7.92, 9.08 -7.45 C8.91 -6.97, 8.83 -6.41, 8.78 -5.86 C8.74 -5.32, 8.8 -4.81, 8.8 -4.16 C8.8 -3.5, 8.8 -2.6, 8.79 -1.92 C8.79 -1.25, 8.79 -0.68, 8.79 -0.11 C8.8 0.46, 9.2 1.35, 8.83 1.49 C8.45 1.64, 8 0.99, 6.54 0.75 C5.08 0.52, 1.15 0.19, 0.07 0.08" stroke="none" stroke-width="0" fill="#E1E1E1" fill-rule="evenodd"></path><path d="M0 0 C0 -0.65, -0.02 -2.54, 0 -3.92 C0.02 -5.3, 0.01 -7.23, 0.09 -8.29 C0.17 -9.35, 0.22 -9.5, 0.48 -10.29 C0.74 -11.09, 1.23 -12.3, 1.65 -13.04 C2.07 -13.78, 2.41 -14.2, 3 -14.75 C3.59 -15.31, 4.42 -15.95, 5.19 -16.36 C5.96 -16.78, 6.87 -17.04, 7.62 -17.24 C8.37 -17.44, 8.89 -17.52, 9.68 -17.58 C10.47 -17.63, 11.34 -17.63, 12.35 -17.58 C13.35 -17.53, 14.9 -17.36, 15.71 -17.28 C16.52 -17.2, 16.92 -17.15, 17.2 -17.1 C17.49 -17.05, 17.38 -17.1, 17.41 -16.98 C17.44 -16.85, 17.38 -16.69, 17.37 -16.34 C17.36 -15.99, 17.37 -15.53, 17.36 -14.9 C17.35 -14.27, 17.33 -13.3, 17.32 -12.55 C17.32 -11.81, 17.36 -10.83, 17.35 -10.43 C17.34 -10.03, 17.38 -10.18, 17.27 -10.13 C17.15 -10.09, 17.03 -10.16, 16.63 -10.16 C16.23 -10.17, 15.45 -10.17, 14.87 -10.16 C14.28 -10.16, 13.6 -10.18, 13.11 -10.15 C12.62 -10.12, 12.35 -10.09, 11.92 -9.96 C11.5 -9.83, 10.92 -9.57, 10.56 -9.36 C10.21 -9.15, 10.04 -9.02, 9.79 -8.7 C9.54 -8.38, 9.25 -7.92, 9.08 -7.45 C8.91 -6.97, 8.83 -6.41, 8.78 -5.86 C8.74 -5.32, 8.8 -4.81, 8.8 -4.16 C8.8 -3.5, 8.8 -2.6, 8.79 -1.92 C8.79 -1.25, 8.79 -0.68, 8.79 -0.11 C8.8 0.46, 9.2 1.35, 8.83 1.49 C8.45 1.64, 8 0.99, 6.54 0.75 C5.08 0.52, 1.15 0.19, 0.07 0.08 M0 0 C0 -0.65, -0.02 -2.54, 0 -3.92 C0.02 -5.3, 0.01 -7.23, 0.09 -8.29 C0.17 -9.35, 0.22 -9.5, 0.48 -10.29 C0.74 -11.09, 1.23 -12.3, 1.65 -13.04 C2.07 -13.78, 2.41 -14.2, 3 -14.75 C3.59 -15.31, 4.42 -15.95, 5.19 -16.36 C5.96 -16.78, 6.87 -17.04, 7.62 -17.24 C8.37 -17.44, 8.89 -17.52, 9.68 -17.58 C10.47 -17.63, 11.34 -17.63, 12.35 -17.58 C13.35 -17.53, 14.9 -17.36, 15.71 -17.28 C16.52 -17.2, 16.92 -17.15, 17.2 -17.1 C17.49 -17.05, 17.38 -17.1, 17.41 -16.98 C17.44 -16.85, 17.38 -16.69, 17.37 -16.34 C17.36 -15.99, 17.37 -15.53, 17.36 -14.9 C17.35 -14.27, 17.33 -13.3, 17.32 -12.55 C17.32 -11.81, 17.36 -10.83, 17.35 -10.43 C17.34 -10.03, 17.38 -10.18, 17.27 -10.13 C17.15 -10.09, 17.03 -10.16, 16.63 -10.16 C16.23 -10.17, 15.45 -10.17, 14.87 -10.16 C14.28 -10.16, 13.6 -10.18, 13.11 -10.15 C12.62 -10.12, 12.35 -10.09, 11.92 -9.96 C11.5 -9.83, 10.92 -9.57, 10.56 -9.36 C10.21 -9.15, 10.04 -9.02, 9.79 -8.7 C9.54 -8.38, 9.25 -7.92, 9.08 -7.45 C8.91 -6.97, 8.83 -6.41, 8.78 -5.86 C8.74 -5.32, 8.8 -4.81, 8.8 -4.16 C8.8 -3.5, 8.8 -2.6, 8.79 -1.92 C8.79 -1.25, 8.79 -0.68, 8.79 -0.11 C8.8 0.46, 9.2 1.35, 8.83 1.49 C8.45 1.64, 8 0.99, 6.54 0.75 C5.08 0.52, 1.15 0.19, 0.07 0.08" stroke="#E1E1E1" stroke-width="4" fill="none"></path></g></g><mask></mask><g stroke-linecap="round"><g transform="translate(153.24821742492935 99.62402372317217) rotate(0 69.32787486997961 5.480898162358471)" fill-rule="evenodd"><path d="M0 0 C4.38 7.23, 18.79 31.42, 26.31 43.39 C33.83 55.35, 39.03 63.9, 45.12 71.78 C51.22 79.66, 56.17 85.94, 62.87 90.66 C69.57 95.37, 77.64 98.91, 85.33 100.06 C93.02 101.22, 102.35 99.79, 109 97.56 C115.65 95.34, 121.03 90.91, 125.23 86.69 C129.43 82.47, 131.71 77.76, 134.19 72.23 C136.67 66.69, 138.95 60.4, 140.11 53.48 C141.28 46.57, 141.33 38.96, 141.16 30.73 C141 22.51, 140.45 12.66, 139.12 4.15 C137.8 -4.37, 136.03 -12.04, 133.21 -20.36 C130.4 -28.69, 126.6 -38.06, 122.24 -45.79 C117.88 -53.52, 111.8 -61.33, 107.06 -66.75 C102.32 -72.17, 97.9 -75.34, 93.83 -78.31 C89.76 -81.28, 86.49 -82.87, 82.64 -84.57 C78.79 -86.27, 74.98 -87.75, 70.71 -88.5 C66.44 -89.26, 61.5 -89.52, 57.02 -89.1 C52.54 -88.68, 48.5 -87.98, 43.84 -85.99 C39.17 -83.99, 33.27 -80.19, 29.02 -77.12 C24.78 -74.06, 22.08 -71.42, 18.38 -67.62 C14.68 -63.81, 9.35 -57.37, 6.83 -54.27 C4.31 -51.17, 4.83 -51.2, 3.27 -49.02 C1.72 -46.83, -4.13 -44.33, -2.51 -41.16 C-0.88 -37.99, 10.5 -33.32, 13 -29.98 C15.5 -26.65, 12.03 -21.05, 12.51 -21.15 C12.98 -21.25, 13.88 -27.06, 15.83 -30.57 C17.77 -34.09, 21.15 -38.37, 24.17 -42.24 C27.19 -46.12, 30.42 -50.48, 33.95 -53.84 C37.49 -57.19, 41.67 -60.32, 45.39 -62.38 C49.11 -64.43, 52.47 -65.7, 56.28 -66.15 C60.09 -66.59, 64.78 -65.88, 68.26 -65.03 C71.74 -64.18, 74.45 -62.6, 77.15 -61.04 C79.85 -59.47, 81.96 -57.87, 84.45 -55.63 C86.95 -53.39, 89.61 -50.87, 92.12 -47.61 C94.63 -44.36, 97.23 -40.33, 99.51 -36.09 C101.8 -31.84, 104.14 -26.58, 105.83 -22.15 C107.52 -17.71, 108.41 -14.11, 109.65 -9.48 C110.89 -4.85, 112.36 0.22, 113.27 5.64 C114.18 11.05, 114.72 17.42, 115.11 23 C115.51 28.58, 115.77 34.48, 115.62 39.12 C115.47 43.76, 114.82 47.57, 114.21 50.83 C113.6 54.09, 113.03 56.33, 111.93 58.69 C110.84 61.05, 109.28 63.34, 107.67 64.99 C106.05 66.64, 104.34 67.66, 102.24 68.61 C100.13 69.57, 97.32 70.43, 95.05 70.7 C92.78 70.96, 90.72 70.67, 88.6 70.18 C86.49 69.69, 84.33 68.86, 82.35 67.75 C80.37 66.64, 78.89 65.62, 76.72 63.52 C74.55 61.41, 71.75 58.36, 69.33 55.13 C66.91 51.91, 64.84 48.27, 62.19 44.18 C59.53 40.09, 56.51 35.52, 53.4 30.6 C50.3 25.67, 47.19 20.71, 43.55 14.63 C39.9 8.54, 34.45 -1.11, 31.54 -5.91 C28.62 -10.7, 27.76 -11.43, 26.03 -14.12 C24.31 -16.82, 22.97 -19.26, 21.17 -22.1 C19.38 -24.94, 18.81 -30.19, 15.26 -31.18 C11.71 -32.16, 2.52 -30.99, -0.15 -27.99 C-2.81 -24.99, -0.66 -17.52, -0.75 -13.19 C-0.85 -8.86, -0.72 -3.88, -0.71 -2.01" stroke="none" stroke-width="0" fill="#E1E1E1" fill-rule="evenodd"></path><path d="M0 0 C4.38 7.23, 18.79 31.42, 26.31 43.39 C33.83 55.35, 39.03 63.9, 45.12 71.78 C51.22 79.66, 56.17 85.94, 62.87 90.66 C69.57 95.37, 77.64 98.91, 85.33 100.06 C93.02 101.22, 102.35 99.79, 109 97.56 C115.65 95.34, 121.03 90.91, 125.23 86.69 C129.43 82.47, 131.71 77.76, 134.19 72.23 C136.67 66.69, 138.95 60.4, 140.11 53.48 C141.28 46.57, 141.33 38.96, 141.16 30.73 C141 22.51, 140.45 12.66, 139.12 4.15 C137.8 -4.37, 136.03 -12.04, 133.21 -20.36 C130.4 -28.69, 126.6 -38.06, 122.24 -45.79 C117.88 -53.52, 111.8 -61.33, 107.06 -66.75 C102.32 -72.17, 97.9 -75.34, 93.83 -78.31 C89.76 -81.28, 86.49 -82.87, 82.64 -84.57 C78.79 -86.27, 74.98 -87.75, 70.71 -88.5 C66.44 -89.26, 61.5 -89.52, 57.02 -89.1 C52.54 -88.68, 48.5 -87.98, 43.84 -85.99 C39.17 -83.99, 33.27 -80.19, 29.02 -77.12 C24.78 -74.06, 22.08 -71.42, 18.38 -67.62 C14.68 -63.81, 9.35 -57.37, 6.83 -54.27 C4.31 -51.17, 4.83 -51.2, 3.27 -49.02 C1.72 -46.83, -4.13 -44.33, -2.51 -41.16 C-0.88 -37.99, 10.5 -33.32, 13 -29.98 C15.5 -26.65, 12.03 -21.05, 12.51 -21.15 C12.98 -21.25, 13.88 -27.06, 15.83 -30.57 C17.77 -34.09, 21.15 -38.37, 24.17 -42.24 C27.19 -46.12, 30.42 -50.48, 33.95 -53.84 C37.49 -57.19, 41.67 -60.32, 45.39 -62.38 C49.11 -64.43, 52.47 -65.7, 56.28 -66.15 C60.09 -66.59, 64.78 -65.88, 68.26 -65.03 C71.74 -64.18, 74.45 -62.6, 77.15 -61.04 C79.85 -59.47, 81.96 -57.87, 84.45 -55.63 C86.95 -53.39, 89.61 -50.87, 92.12 -47.61 C94.63 -44.36, 97.23 -40.33, 99.51 -36.09 C101.8 -31.84, 104.14 -26.58, 105.83 -22.15 C107.52 -17.71, 108.41 -14.11, 109.65 -9.48 C110.89 -4.85, 112.36 0.22, 113.27 5.64 C114.18 11.05, 114.72 17.42, 115.11 23 C115.51 28.58, 115.77 34.48, 115.62 39.12 C115.47 43.76, 114.82 47.57, 114.21 50.83 C113.6 54.09, 113.03 56.33, 111.93 58.69 C110.84 61.05, 109.28 63.34, 107.67 64.99 C106.05 66.64, 104.34 67.66, 102.24 68.61 C100.13 69.57, 97.32 70.43, 95.05 70.7 C92.78 70.96, 90.72 70.67, 88.6 70.18 C86.49 69.69, 84.33 68.86, 82.35 67.75 C80.37 66.64, 78.89 65.62, 76.72 63.52 C74.55 61.41, 71.75 58.36, 69.33 55.13 C66.91 51.91, 64.84 48.27, 62.19 44.18 C59.53 40.09, 56.51 35.52, 53.4 30.6 C50.3 25.67, 47.19 20.71, 43.55 14.63 C39.9 8.54, 34.45 -1.11, 31.54 -5.91 C28.62 -10.7, 27.76 -11.43, 26.03 -14.12 C24.31 -16.82, 22.97 -19.26, 21.17 -22.1 C19.38 -24.94, 18.81 -30.19, 15.26 -31.18 C11.71 -32.16, 2.52 -30.99, -0.15 -27.99 C-2.81 -24.99, -0.66 -17.52, -0.75 -13.19 C-0.85 -8.86, -0.72 -3.88, -0.71 -2.01 M0 0 C4.38 7.23, 18.79 31.42, 26.31 43.39 C33.83 55.35, 39.03 63.9, 45.12 71.78 C51.22 79.66, 56.17 85.94, 62.87 90.66 C69.57 95.37, 77.64 98.91, 85.33 100.06 C93.02 101.22, 102.35 99.79, 109 97.56 C115.65 95.34, 121.03 90.91, 125.23 86.69 C129.43 82.47, 131.71 77.76, 134.19 72.23 C136.67 66.69, 138.95 60.4, 140.11 53.48 C141.28 46.57, 141.33 38.96, 141.16 30.73 C141 22.51, 140.45 12.66, 139.12 4.15 C137.8 -4.37, 136.03 -12.04, 133.21 -20.36 C130.4 -28.69, 126.6 -38.06, 122.24 -45.79 C117.88 -53.52, 111.8 -61.33, 107.06 -66.75 C102.32 -72.17, 97.9 -75.34, 93.83 -78.31 C89.76 -81.28, 86.49 -82.87, 82.64 -84.57 C78.79 -86.27, 74.98 -87.75, 70.71 -88.5 C66.44 -89.26, 61.5 -89.52, 57.02 -89.1 C52.54 -88.68, 48.5 -87.98, 43.84 -85.99 C39.17 -83.99, 33.27 -80.19, 29.02 -77.12 C24.78 -74.06, 22.08 -71.42, 18.38 -67.62 C14.68 -63.81, 9.35 -57.37, 6.83 -54.27 C4.31 -51.17, 4.83 -51.2, 3.27 -49.02 C1.72 -46.83, -4.13 -44.33, -2.51 -41.16 C-0.88 -37.99, 10.5 -33.32, 13 -29.98 C15.5 -26.65, 12.03 -21.05, 12.51 -21.15 C12.98 -21.25, 13.88 -27.06, 15.83 -30.57 C17.77 -34.09, 21.15 -38.37, 24.17 -42.24 C27.19 -46.12, 30.42 -50.48, 33.95 -53.84 C37.49 -57.19, 41.67 -60.32, 45.39 -62.38 C49.11 -64.43, 52.47 -65.7, 56.28 -66.15 C60.09 -66.59, 64.78 -65.88, 68.26 -65.03 C71.74 -64.18, 74.45 -62.6, 77.15 -61.04 C79.85 -59.47, 81.96 -57.87, 84.45 -55.63 C86.95 -53.39, 89.61 -50.87, 92.12 -47.61 C94.63 -44.36, 97.23 -40.33, 99.51 -36.09 C101.8 -31.84, 104.14 -26.58, 105.83 -22.15 C107.52 -17.71, 108.41 -14.11, 109.65 -9.48 C110.89 -4.85, 112.36 0.22, 113.27 5.64 C114.18 11.05, 114.72 17.42, 115.11 23 C115.51 28.58, 115.77 34.48, 115.62 39.12 C115.47 43.76, 114.82 47.57, 114.21 50.83 C113.6 54.09, 113.03 56.33, 111.93 58.69 C110.84 61.05, 109.28 63.34, 107.67 64.99 C106.05 66.64, 104.34 67.66, 102.24 68.61 C100.13 69.57, 97.32 70.43, 95.05 70.7 C92.78 70.96, 90.72 70.67, 88.6 70.18 C86.49 69.69, 84.33 68.86, 82.35 67.75 C80.37 66.64, 78.89 65.62, 76.72 63.52 C74.55 61.41, 71.75 58.36, 69.33 55.13 C66.91 51.91, 64.84 48.27, 62.19 44.18 C59.53 40.09, 56.51 35.52, 53.4 30.6 C50.3 25.67, 47.19 20.71, 43.55 14.63 C39.9 8.54, 34.45 -1.11, 31.54 -5.91 C28.62 -10.7, 27.76 -11.43, 26.03 -14.12 C24.31 -16.82, 22.97 -19.26, 21.17 -22.1 C19.38 -24.94, 18.81 -30.19, 15.26 -31.18 C11.71 -32.16, 2.52 -30.99, -0.15 -27.99 C-2.81 -24.99, -0.66 -17.52, -0.75 -13.19 C-0.85 -8.86, -0.72 -3.88, -0.71 -2.01" stroke="#E1E1E1" stroke-width="4" fill="none"></path></g></g><mask></mask><g stroke-linecap="round"><g transform="translate(158.65213697248686 99.11144265156406) rotate(0 -72.97101379221904 5.469206999023683)" fill-rule="evenodd"><path d="M0 0 C-4.61 7.22, -19.77 31.36, -27.69 43.29 C-35.6 55.23, -41.08 63.76, -47.5 71.62 C-53.91 79.49, -59.12 85.76, -66.18 90.46 C-73.23 95.17, -81.72 98.7, -89.82 99.85 C-97.91 101, -107.73 99.58, -114.73 97.36 C-121.73 95.13, -127.4 90.72, -131.81 86.51 C-136.23 82.29, -138.63 77.6, -141.24 72.07 C-143.85 66.55, -146.25 60.27, -147.48 53.37 C-148.7 46.47, -148.75 38.87, -148.58 30.67 C-148.4 22.46, -147.83 12.64, -146.43 4.14 C-145.04 -4.36, -143.17 -12.01, -140.21 -20.32 C-137.25 -28.63, -133.25 -37.98, -128.67 -45.7 C-124.08 -53.41, -117.67 -61.2, -112.69 -66.6 C-107.7 -72.01, -103.04 -75.18, -98.76 -78.14 C-94.47 -81.11, -91.04 -82.69, -86.98 -84.39 C-82.93 -86.08, -78.92 -87.56, -74.43 -88.32 C-69.93 -89.07, -64.73 -89.33, -60.01 -88.91 C-55.3 -88.49, -51.05 -87.79, -46.14 -85.8 C-41.23 -83.81, -35.01 -80.01, -30.55 -76.96 C-26.08 -73.9, -23.24 -71.27, -19.35 -67.47 C-15.45 -63.67, -9.84 -57.25, -7.19 -54.16 C-4.54 -51.06, -5.08 -51.09, -3.44 -48.91 C-1.81 -46.73, 4.34 -44.24, 2.64 -41.07 C0.93 -37.91, -11.05 -33.24, -13.68 -29.92 C-16.32 -26.59, -12.67 -21, -13.16 -21.1 C-13.66 -21.2, -15.38 -30.11, -16.66 -30.51 C-17.94 -30.91, -17.82 -21.72, -20.87 -23.49 C-23.91 -25.26, -31.29 -36.91, -34.92 -41.14 C-38.54 -45.37, -39.92 -46.58, -42.62 -48.87 C-45.33 -51.16, -48.01 -53.29, -51.15 -54.88 C-54.29 -56.48, -57.87 -57.83, -61.48 -58.46 C-65.09 -59.09, -69.46 -59.19, -72.81 -58.67 C-76.16 -58.15, -78.72 -56.89, -81.57 -55.34 C-84.42 -53.79, -87.18 -51.94, -89.91 -49.4 C-92.65 -46.85, -95.69 -43.18, -97.96 -40.08 C-100.23 -36.98, -101.49 -34.61, -103.55 -30.79 C-105.6 -26.97, -108.41 -21.71, -110.27 -17.15 C-112.13 -12.6, -113.42 -8.31, -114.71 -3.46 C-116 1.39, -117.16 5.98, -118.01 11.94 C-118.85 17.9, -119.59 26.47, -119.76 32.3 C-119.92 38.13, -119.43 43.08, -118.99 46.93 C-118.54 50.77, -118.03 52.74, -117.07 55.36 C-116.12 57.99, -114.86 60.56, -113.24 62.69 C-111.62 64.82, -109.54 66.84, -107.35 68.15 C-105.15 69.46, -102.4 70.23, -100.05 70.55 C-97.7 70.86, -95.49 70.52, -93.26 70.03 C-91.03 69.54, -88.76 68.72, -86.68 67.61 C-84.59 66.5, -83.04 65.48, -80.75 63.38 C-78.47 61.28, -75.52 58.23, -72.97 55.02 C-70.42 51.8, -68.25 48.17, -65.45 44.09 C-62.66 40.01, -59.48 35.45, -56.21 30.53 C-52.94 25.62, -49.67 20.67, -45.84 14.59 C-42 8.52, -36.27 -1.11, -33.19 -5.89 C-30.12 -10.67, -29.22 -11.4, -27.4 -14.09 C-25.58 -16.79, -24.17 -19.22, -22.28 -22.06 C-20.39 -24.89, -19.8 -30.13, -16.06 -31.11 C-12.32 -32.09, -2.66 -30.92, 0.15 -27.93 C2.96 -24.94, 0.69 -17.48, 0.79 -13.16 C0.89 -8.84, 0.75 -3.87, 0.75 -2.01" stroke="none" stroke-width="0" fill="#E1E1E1" fill-rule="evenodd"></path><path d="M0 0 C-4.61 7.22, -19.77 31.36, -27.69 43.29 C-35.6 55.23, -41.08 63.76, -47.5 71.62 C-53.91 79.49, -59.12 85.76, -66.18 90.46 C-73.23 95.17, -81.72 98.7, -89.82 99.85 C-97.91 101, -107.73 99.58, -114.73 97.36 C-121.73 95.13, -127.4 90.72, -131.81 86.51 C-136.23 82.29, -138.63 77.6, -141.24 72.07 C-143.85 66.55, -146.25 60.27, -147.48 53.37 C-148.7 46.47, -148.75 38.87, -148.58 30.67 C-148.4 22.46, -147.83 12.64, -146.43 4.14 C-145.04 -4.36, -143.17 -12.01, -140.21 -20.32 C-137.25 -28.63, -133.25 -37.98, -128.67 -45.7 C-124.08 -53.41, -117.67 -61.2, -112.69 -66.6 C-107.7 -72.01, -103.04 -75.18, -98.76 -78.14 C-94.47 -81.11, -91.04 -82.69, -86.98 -84.39 C-82.93 -86.08, -78.92 -87.56, -74.43 -88.32 C-69.93 -89.07, -64.73 -89.33, -60.01 -88.91 C-55.3 -88.49, -51.05 -87.79, -46.14 -85.8 C-41.23 -83.81, -35.01 -80.01, -30.55 -76.96 C-26.08 -73.9, -23.24 -71.27, -19.35 -67.47 C-15.45 -63.67, -9.84 -57.25, -7.19 -54.16 C-4.54 -51.06, -5.08 -51.09, -3.44 -48.91 C-1.81 -46.73, 4.34 -44.24, 2.64 -41.07 C0.93 -37.91, -11.05 -33.24, -13.68 -29.92 C-16.32 -26.59, -12.67 -21, -13.16 -21.1 C-13.66 -21.2, -15.38 -30.11, -16.66 -30.51 C-17.94 -30.91, -17.82 -21.72, -20.87 -23.49 C-23.91 -25.26, -31.29 -36.91, -34.92 -41.14 C-38.54 -45.37, -39.92 -46.58, -42.62 -48.87 C-45.33 -51.16, -48.01 -53.29, -51.15 -54.88 C-54.29 -56.48, -57.87 -57.83, -61.48 -58.46 C-65.09 -59.09, -69.46 -59.19, -72.81 -58.67 C-76.16 -58.15, -78.72 -56.89, -81.57 -55.34 C-84.42 -53.79, -87.18 -51.94, -89.91 -49.4 C-92.65 -46.85, -95.69 -43.18, -97.96 -40.08 C-100.23 -36.98, -101.49 -34.61, -103.55 -30.79 C-105.6 -26.97, -108.41 -21.71, -110.27 -17.15 C-112.13 -12.6, -113.42 -8.31, -114.71 -3.46 C-116 1.39, -117.16 5.98, -118.01 11.94 C-118.85 17.9, -119.59 26.47, -119.76 32.3 C-119.92 38.13, -119.43 43.08, -118.99 46.93 C-118.54 50.77, -118.03 52.74, -117.07 55.36 C-116.12 57.99, -114.86 60.56, -113.24 62.69 C-111.62 64.82, -109.54 66.84, -107.35 68.15 C-105.15 69.46, -102.4 70.23, -100.05 70.55 C-97.7 70.86, -95.49 70.52, -93.26 70.03 C-91.03 69.54, -88.76 68.72, -86.68 67.61 C-84.59 66.5, -83.04 65.48, -80.75 63.38 C-78.47 61.28, -75.52 58.23, -72.97 55.02 C-70.42 51.8, -68.25 48.17, -65.45 44.09 C-62.66 40.01, -59.48 35.45, -56.21 30.53 C-52.94 25.62, -49.67 20.67, -45.84 14.59 C-42 8.52, -36.27 -1.11, -33.19 -5.89 C-30.12 -10.67, -29.22 -11.4, -27.4 -14.09 C-25.58 -16.79, -24.17 -19.22, -22.28 -22.06 C-20.39 -24.89, -19.8 -30.13, -16.06 -31.11 C-12.32 -32.09, -2.66 -30.92, 0.15 -27.93 C2.96 -24.94, 0.69 -17.48, 0.79 -13.16 C0.89 -8.84, 0.75 -3.87, 0.75 -2.01 M0 0 C-4.61 7.22, -19.77 31.36, -27.69 43.29 C-35.6 55.23, -41.08 63.76, -47.5 71.62 C-53.91 79.49, -59.12 85.76, -66.18 90.46 C-73.23 95.17, -81.72 98.7, -89.82 99.85 C-97.91 101, -107.73 99.58, -114.73 97.36 C-121.73 95.13, -127.4 90.72, -131.81 86.51 C-136.23 82.29, -138.63 77.6, -141.24 72.07 C-143.85 66.55, -146.25 60.27, -147.48 53.37 C-148.7 46.47, -148.75 38.87, -148.58 30.67 C-148.4 22.46, -147.83 12.64, -146.43 4.14 C-145.04 -4.36, -143.17 -12.01, -140.21 -20.32 C-137.25 -28.63, -133.25 -37.98, -128.67 -45.7 C-124.08 -53.41, -117.67 -61.2, -112.69 -66.6 C-107.7 -72.01, -103.04 -75.18, -98.76 -78.14 C-94.47 -81.11, -91.04 -82.69, -86.98 -84.39 C-82.93 -86.08, -78.92 -87.56, -74.43 -88.32 C-69.93 -89.07, -64.73 -89.33, -60.01 -88.91 C-55.3 -88.49, -51.05 -87.79, -46.14 -85.8 C-41.23 -83.81, -35.01 -80.01, -30.55 -76.96 C-26.08 -73.9, -23.24 -71.27, -19.35 -67.47 C-15.45 -63.67, -9.84 -57.25, -7.19 -54.16 C-4.54 -51.06, -5.08 -51.09, -3.44 -48.91 C-1.81 -46.73, 4.34 -44.24, 2.64 -41.07 C0.93 -37.91, -11.05 -33.24, -13.68 -29.92 C-16.32 -26.59, -12.67 -21, -13.16 -21.1 C-13.66 -21.2, -15.38 -30.11, -16.66 -30.51 C-17.94 -30.91, -17.82 -21.72, -20.87 -23.49 C-23.91 -25.26, -31.29 -36.91, -34.92 -41.14 C-38.54 -45.37, -39.92 -46.58, -42.62 -48.87 C-45.33 -51.16, -48.01 -53.29, -51.15 -54.88 C-54.29 -56.48, -57.87 -57.83, -61.48 -58.46 C-65.09 -59.09, -69.46 -59.19, -72.81 -58.67 C-76.16 -58.15, -78.72 -56.89, -81.57 -55.34 C-84.42 -53.79, -87.18 -51.94, -89.91 -49.4 C-92.65 -46.85, -95.69 -43.18, -97.96 -40.08 C-100.23 -36.98, -101.49 -34.61, -103.55 -30.79 C-105.6 -26.97, -108.41 -21.71, -110.27 -17.15 C-112.13 -12.6, -113.42 -8.31, -114.71 -3.46 C-116 1.39, -117.16 5.98, -118.01 11.94 C-118.85 17.9, -119.59 26.47, -119.76 32.3 C-119.92 38.13, -119.43 43.08, -118.99 46.93 C-118.54 50.77, -118.03 52.74, -117.07 55.36 C-116.12 57.99, -114.86 60.56, -113.24 62.69 C-111.62 64.82, -109.54 66.84, -107.35 68.15 C-105.15 69.46, -102.4 70.23, -100.05 70.55 C-97.7 70.86, -95.49 70.52, -93.26 70.03 C-91.03 69.54, -88.76 68.72, -86.68 67.61 C-84.59 66.5, -83.04 65.48, -80.75 63.38 C-78.47 61.28, -75.52 58.23, -72.97 55.02 C-70.42 51.8, -68.25 48.17, -65.45 44.09 C-62.66 40.01, -59.48 35.45, -56.21 30.53 C-52.94 25.62, -49.67 20.67, -45.84 14.59 C-42 8.52, -36.27 -1.11, -33.19 -5.89 C-30.12 -10.67, -29.22 -11.4, -27.4 -14.09 C-25.58 -16.79, -24.17 -19.22, -22.28 -22.06 C-20.39 -24.89, -19.8 -30.13, -16.06 -31.11 C-12.32 -32.09, -2.66 -30.92, 0.15 -27.93 C2.96 -24.94, 0.69 -17.48, 0.79 -13.16 C0.89 -8.84, 0.75 -3.87, 0.75 -2.01" stroke="#E1E1E1" stroke-width="4" fill="none"></path></g></g><mask></mask><g stroke-linecap="round"><g transform="translate(138.87005205113786 54.52293068572624) rotate(0 15.47261217384629 13.274958825286745)" fill-rule="evenodd"><path d="M0 0 C5.16 -0.23, 26.83 -6.04, 30.95 -1.36 C35.06 3.33, 28.96 23.64, 24.67 28.1 C20.38 32.56, 8.89 30.35, 5.2 25.41 C1.5 20.47, 2.97 2.94, 2.53 -1.55" stroke="none" stroke-width="0" fill="#E1E1E1" fill-rule="evenodd"></path><path d="M0 0 C5.16 -0.23, 26.83 -6.04, 30.95 -1.36 C35.06 3.33, 28.96 23.64, 24.67 28.1 C20.38 32.56, 8.89 30.35, 5.2 25.41 C1.5 20.47, 2.97 2.94, 2.53 -1.55 M0 0 C5.16 -0.23, 26.83 -6.04, 30.95 -1.36 C35.06 3.33, 28.96 23.64, 24.67 28.1 C20.38 32.56, 8.89 30.35, 5.2 25.41 C1.5 20.47, 2.97 2.94, 2.53 -1.55" stroke="#E1E1E1" stroke-width="4" fill="none"></path></g></g><mask></mask></svg>