<svg version="1.1" xmlns="http://www.w3.org/2000/svg" viewBox="0 0 119.5827693240193 140.96600935306287" width="119.5827693240193" height="140.96600935306287" class="excalidraw-svg"><!-- svg-source:excalidraw --><metadata></metadata><defs><style class="style-fonts">
      </style></defs><rect x="0" y="0" width="119.5827693240193" height="140.96600935306287" fill="#000000"></rect><g stroke-linecap="round"><g transform="translate(108.37783731873105 97.78973190477427) rotate(0 -48.58939371090821 -12.800824221549192)"><path d="M0 0 C0.18 0.06, 0.9 0.23, 1.09 0.36 C1.28 0.5, 1.18 0.58, 1.16 0.79 C1.13 1, 1.11 1.11, 0.93 1.64 C0.76 2.16, 0.65 2.7, 0.13 3.95 C-0.39 5.21, -1.27 7.34, -2.18 9.18 C-3.09 11.03, -4.27 13.23, -5.31 15 C-6.35 16.78, -7.36 18.34, -8.41 19.83 C-9.46 21.31, -10.5 22.57, -11.61 23.9 C-12.71 25.22, -14.09 26.78, -15.04 27.77 C-15.98 28.77, -16.41 29.23, -17.27 29.88 C-18.14 30.54, -19.19 31.22, -20.2 31.7 C-21.21 32.18, -22.21 32.52, -23.33 32.77 C-24.44 33.01, -25.74 33.17, -26.92 33.18 C-28.09 33.18, -29.3 33.04, -30.38 32.78 C-31.47 32.52, -32.33 32.11, -33.42 31.63 C-34.52 31.15, -35.63 30.41, -36.96 29.91 C-38.28 29.42, -40.07 28.96, -41.35 28.66 C-42.63 28.36, -43.43 28.19, -44.64 28.11 C-45.85 28.03, -47.22 28.01, -48.6 28.16 C-49.99 28.31, -51.52 28.6, -52.95 29.01 C-54.39 29.42, -56.05 30.14, -57.21 30.6 C-58.37 31.07, -58.87 31.4, -59.9 31.79 C-60.93 32.18, -62.13 32.72, -63.39 32.95 C-64.65 33.17, -66.26 33.19, -67.48 33.13 C-68.71 33.07, -69.61 32.94, -70.73 32.59 C-71.85 32.23, -73.13 31.69, -74.22 30.99 C-75.31 30.28, -76.02 29.55, -77.28 28.36 C-78.53 27.17, -80.41 25.39, -81.75 23.84 C-83.1 22.28, -84.07 20.96, -85.34 19.04 C-86.62 17.13, -88.19 14.64, -89.38 12.36 C-90.57 10.09, -91.51 7.78, -92.48 5.38 C-93.45 2.98, -94.46 0.21, -95.21 -2.02 C-95.97 -4.26, -96.52 -5.61, -97.02 -8.04 C-97.52 -10.47, -97.99 -14.1, -98.21 -16.6 C-98.43 -19.09, -98.39 -20.88, -98.33 -23.01 C-98.28 -25.14, -98.15 -27.18, -97.87 -29.37 C-97.58 -31.57, -97.16 -34.14, -96.65 -36.19 C-96.13 -38.23, -95.48 -40.1, -94.78 -41.65 C-94.08 -43.21, -93.44 -44.11, -92.46 -45.51 C-91.49 -46.91, -90.23 -48.69, -88.93 -50.04 C-87.64 -51.4, -86.32 -52.54, -84.67 -53.64 C-83.03 -54.74, -80.72 -55.91, -79.07 -56.62 C-77.43 -57.34, -76.25 -57.6, -74.8 -57.92 C-73.36 -58.24, -71.92 -58.44, -70.41 -58.55 C-68.89 -58.66, -67.28 -58.72, -65.71 -58.57 C-64.14 -58.43, -62.69 -58.16, -61 -57.69 C-59.3 -57.22, -57.13 -56.38, -55.54 -55.76 C-53.96 -55.14, -52.56 -54.32, -51.51 -53.96 C-50.45 -53.6, -49.93 -53.58, -49.2 -53.59 C-48.47 -53.59, -48.27 -53.62, -47.14 -54 C-46.01 -54.39, -44.08 -55.3, -42.41 -55.91 C-40.74 -56.53, -39.07 -57.23, -37.11 -57.7 C-35.15 -58.18, -32.74 -58.6, -30.66 -58.78 C-28.57 -58.95, -26.35 -58.89, -24.59 -58.74 C-22.83 -58.59, -21.8 -58.32, -20.1 -57.87 C-18.39 -57.41, -16.29 -56.87, -14.35 -56.02 C-12.41 -55.18, -10.1 -53.86, -8.45 -52.79 C-6.8 -51.71, -5.42 -50.4, -4.45 -49.57 C-3.48 -48.75, -2.95 -48.25, -2.62 -47.83 C-2.29 -47.42, -2.41 -47.27, -2.47 -47.08 C-2.54 -46.9, -2.55 -47.02, -3.01 -46.73 C-3.47 -46.43, -4.47 -45.83, -5.21 -45.31 C-5.96 -44.8, -6.57 -44.43, -7.47 -43.63 C-8.37 -42.83, -9.64 -41.69, -10.62 -40.5 C-11.6 -39.31, -12.57 -37.93, -13.33 -36.49 C-14.1 -35.06, -14.75 -33.29, -15.22 -31.89 C-15.7 -30.5, -15.94 -29.52, -16.16 -28.13 C-16.39 -26.74, -16.62 -25.2, -16.58 -23.55 C-16.55 -21.9, -16.35 -19.95, -15.96 -18.24 C-15.57 -16.52, -14.96 -14.8, -14.24 -13.27 C-13.53 -11.74, -12.86 -10.58, -11.66 -9.04 C-10.47 -7.5, -8.47 -5.28, -7.06 -4.03 C-5.64 -2.77, -4.34 -2.17, -3.16 -1.5 C-1.99 -0.82, -0.53 -0.25, 0 0 M0 0 C0.18 0.06, 0.9 0.23, 1.09 0.36 C1.28 0.5, 1.18 0.58, 1.16 0.79 C1.13 1, 1.11 1.11, 0.93 1.64 C0.76 2.16, 0.65 2.7, 0.13 3.95 C-0.39 5.21, -1.27 7.34, -2.18 9.18 C-3.09 11.03, -4.27 13.23, -5.31 15 C-6.35 16.78, -7.36 18.34, -8.41 19.83 C-9.46 21.31, -10.5 22.57, -11.61 23.9 C-12.71 25.22, -14.09 26.78, -15.04 27.77 C-15.98 28.77, -16.41 29.23, -17.27 29.88 C-18.14 30.54, -19.19 31.22, -20.2 31.7 C-21.21 32.18, -22.21 32.52, -23.33 32.77 C-24.44 33.01, -25.74 33.17, -26.92 33.18 C-28.09 33.18, -29.3 33.04, -30.38 32.78 C-31.47 32.52, -32.33 32.11, -33.42 31.63 C-34.52 31.15, -35.63 30.41, -36.96 29.91 C-38.28 29.42, -40.07 28.96, -41.35 28.66 C-42.63 28.36, -43.43 28.19, -44.64 28.11 C-45.85 28.03, -47.22 28.01, -48.6 28.16 C-49.99 28.31, -51.52 28.6, -52.95 29.01 C-54.39 29.42, -56.05 30.14, -57.21 30.6 C-58.37 31.07, -58.87 31.4, -59.9 31.79 C-60.93 32.18, -62.13 32.72, -63.39 32.95 C-64.65 33.17, -66.26 33.19, -67.48 33.13 C-68.71 33.07, -69.61 32.94, -70.73 32.59 C-71.85 32.23, -73.13 31.69, -74.22 30.99 C-75.31 30.28, -76.02 29.55, -77.28 28.36 C-78.53 27.17, -80.41 25.39, -81.75 23.84 C-83.1 22.28, -84.07 20.96, -85.34 19.04 C-86.62 17.13, -88.19 14.64, -89.38 12.36 C-90.57 10.09, -91.51 7.78, -92.48 5.38 C-93.45 2.98, -94.46 0.21, -95.21 -2.02 C-95.97 -4.26, -96.52 -5.61, -97.02 -8.04 C-97.52 -10.47, -97.99 -14.1, -98.21 -16.6 C-98.43 -19.09, -98.39 -20.88, -98.33 -23.01 C-98.28 -25.14, -98.15 -27.18, -97.87 -29.37 C-97.58 -31.57, -97.16 -34.14, -96.65 -36.19 C-96.13 -38.23, -95.48 -40.1, -94.78 -41.65 C-94.08 -43.21, -93.44 -44.11, -92.46 -45.51 C-91.49 -46.91, -90.23 -48.69, -88.93 -50.04 C-87.64 -51.4, -86.32 -52.54, -84.67 -53.64 C-83.03 -54.74, -80.72 -55.91, -79.07 -56.62 C-77.43 -57.34, -76.25 -57.6, -74.8 -57.92 C-73.36 -58.24, -71.92 -58.44, -70.41 -58.55 C-68.89 -58.66, -67.28 -58.72, -65.71 -58.57 C-64.14 -58.43, -62.69 -58.16, -61 -57.69 C-59.3 -57.22, -57.13 -56.38, -55.54 -55.76 C-53.96 -55.14, -52.56 -54.32, -51.51 -53.96 C-50.45 -53.6, -49.93 -53.58, -49.2 -53.59 C-48.47 -53.59, -48.27 -53.62, -47.14 -54 C-46.01 -54.39, -44.08 -55.3, -42.41 -55.91 C-40.74 -56.53, -39.07 -57.23, -37.11 -57.7 C-35.15 -58.18, -32.74 -58.6, -30.66 -58.78 C-28.57 -58.95, -26.35 -58.89, -24.59 -58.74 C-22.83 -58.59, -21.8 -58.32, -20.1 -57.87 C-18.39 -57.41, -16.29 -56.87, -14.35 -56.02 C-12.41 -55.18, -10.1 -53.86, -8.45 -52.79 C-6.8 -51.71, -5.42 -50.4, -4.45 -49.57 C-3.48 -48.75, -2.95 -48.25, -2.62 -47.83 C-2.29 -47.42, -2.41 -47.27, -2.47 -47.08 C-2.54 -46.9, -2.55 -47.02, -3.01 -46.73 C-3.47 -46.43, -4.47 -45.83, -5.21 -45.31 C-5.96 -44.8, -6.57 -44.43, -7.47 -43.63 C-8.37 -42.83, -9.64 -41.69, -10.62 -40.5 C-11.6 -39.31, -12.57 -37.93, -13.33 -36.49 C-14.1 -35.06, -14.75 -33.29, -15.22 -31.89 C-15.7 -30.5, -15.94 -29.52, -16.16 -28.13 C-16.39 -26.74, -16.62 -25.2, -16.58 -23.55 C-16.55 -21.9, -16.35 -19.95, -15.96 -18.24 C-15.57 -16.52, -14.96 -14.8, -14.24 -13.27 C-13.53 -11.74, -12.86 -10.58, -11.66 -9.04 C-10.47 -7.5, -8.47 -5.28, -7.06 -4.03 C-5.64 -2.77, -4.34 -2.17, -3.16 -1.5 C-1.99 -0.82, -0.53 -0.25, 0 0" stroke="#E1E1E1" stroke-width="2" fill="none"></path></g></g><mask></mask><g stroke-linecap="round"><g transform="translate(101.94342376816121 47.37717026510472) rotate(0 -42.12895953079749 37.561288948503716)"><path d="M0 0 C0.29 0.26, 1.24 1.1, 1.75 1.56 C2.25 2.02, 2.83 2.45, 3.02 2.76 C3.21 3.06, 3.17 3.13, 2.88 3.39 C2.59 3.66, 2.02 3.82, 1.27 4.33 C0.53 4.84, -0.68 5.7, -1.58 6.47 C-2.48 7.23, -3.37 8.08, -4.14 8.93 C-4.91 9.78, -5.5 10.43, -6.22 11.57 C-6.95 12.71, -7.81 14.22, -8.47 15.77 C-9.13 17.31, -9.82 19.18, -10.2 20.85 C-10.57 22.51, -10.67 24.25, -10.73 25.75 C-10.79 27.24, -10.72 28.5, -10.55 29.83 C-10.38 31.16, -10.18 32.28, -9.72 33.73 C-9.25 35.18, -8.56 37.02, -7.77 38.53 C-6.99 40.05, -6.12 41.44, -5.03 42.8 C-3.93 44.16, -2.62 45.53, -1.21 46.71 C0.2 47.88, 2.24 49.16, 3.45 49.86 C4.65 50.55, 5.43 50.67, 5.99 50.89 C6.56 51.12, 6.71 51.01, 6.84 51.21 C6.97 51.42, 6.98 51.44, 6.77 52.11 C6.56 52.78, 6.21 53.78, 5.57 55.25 C4.92 56.72, 3.87 59.02, 2.9 60.91 C1.94 62.8, 0.88 64.85, -0.2 66.58 C-1.27 68.31, -2.43 69.82, -3.55 71.31 C-4.68 72.81, -5.95 74.41, -6.96 75.58 C-7.96 76.74, -8.74 77.53, -9.59 78.33 C-10.43 79.13, -11.03 79.73, -12.03 80.37 C-13.03 81.01, -14.39 81.76, -15.59 82.18 C-16.79 82.6, -17.99 82.78, -19.23 82.88 C-20.48 82.98, -21.83 83.01, -23.08 82.79 C-24.32 82.56, -25.67 81.96, -26.71 81.52 C-27.75 81.09, -28.31 80.61, -29.29 80.18 C-30.28 79.75, -31.49 79.28, -32.63 78.93 C-33.77 78.58, -34.98 78.29, -36.12 78.1 C-37.26 77.92, -38.24 77.85, -39.45 77.83 C-40.67 77.81, -42.2 77.83, -43.38 77.97 C-44.57 78.1, -45.33 78.27, -46.57 78.66 C-47.82 79.04, -49.54 79.73, -50.88 80.28 C-52.21 80.83, -53.47 81.54, -54.58 81.96 C-55.69 82.38, -56.53 82.63, -57.53 82.79 C-58.54 82.95, -59.49 83.02, -60.61 82.93 C-61.73 82.83, -63.02 82.64, -64.26 82.2 C-65.51 81.76, -66.88 81.11, -68.09 80.27 C-69.31 79.44, -70.33 78.42, -71.56 77.19 C-72.78 75.97, -74.27 74.35, -75.45 72.91 C-76.63 71.48, -77.5 70.36, -78.63 68.6 C-79.76 66.83, -81.14 64.55, -82.26 62.33 C-83.38 60.12, -84.35 57.77, -85.37 55.3 C-86.38 52.82, -87.54 50.08, -88.35 47.48 C-89.17 44.88, -89.79 42.2, -90.25 39.71 C-90.7 37.23, -90.94 34.95, -91.08 32.59 C-91.22 30.23, -91.25 28.01, -91.1 25.56 C-90.95 23.1, -90.65 20.41, -90.17 17.89 C-89.68 15.36, -89.03 12.57, -88.2 10.39 C-87.38 8.21, -86.51 6.66, -85.21 4.82 C-83.91 2.99, -82.05 0.87, -80.42 -0.63 C-78.79 -2.13, -77.25 -3.18, -75.4 -4.17 C-73.56 -5.16, -71.45 -6.02, -69.35 -6.58 C-67.25 -7.15, -64.73 -7.45, -62.81 -7.58 C-60.9 -7.7, -60.03 -7.76, -57.85 -7.32 C-55.68 -6.89, -51.83 -5.64, -49.79 -4.98 C-47.74 -4.31, -46.67 -3.72, -45.6 -3.31 C-44.53 -2.9, -44.02 -2.64, -43.36 -2.49 C-42.69 -2.35, -42.26 -2.3, -41.62 -2.44 C-40.98 -2.58, -40.42 -2.92, -39.52 -3.31 C-38.61 -3.69, -37.44 -4.25, -36.18 -4.74 C-34.91 -5.23, -33.47 -5.82, -31.94 -6.26 C-30.42 -6.71, -28.91 -7.15, -27.02 -7.41 C-25.13 -7.66, -22.83 -7.9, -20.6 -7.8 C-18.36 -7.7, -15.84 -7.35, -13.61 -6.81 C-11.38 -6.28, -9.48 -5.73, -7.22 -4.59 C-4.95 -3.46, -1.2 -0.77, 0 0 M0 0 C0.29 0.26, 1.24 1.1, 1.75 1.56 C2.25 2.02, 2.83 2.45, 3.02 2.76 C3.21 3.06, 3.17 3.13, 2.88 3.39 C2.59 3.66, 2.02 3.82, 1.27 4.33 C0.53 4.84, -0.68 5.7, -1.58 6.47 C-2.48 7.23, -3.37 8.08, -4.14 8.93 C-4.91 9.78, -5.5 10.43, -6.22 11.57 C-6.95 12.71, -7.81 14.22, -8.47 15.77 C-9.13 17.31, -9.82 19.18, -10.2 20.85 C-10.57 22.51, -10.67 24.25, -10.73 25.75 C-10.79 27.24, -10.72 28.5, -10.55 29.83 C-10.38 31.16, -10.18 32.28, -9.72 33.73 C-9.25 35.18, -8.56 37.02, -7.77 38.53 C-6.99 40.05, -6.12 41.44, -5.03 42.8 C-3.93 44.16, -2.62 45.53, -1.21 46.71 C0.2 47.88, 2.24 49.16, 3.45 49.86 C4.65 50.55, 5.43 50.67, 5.99 50.89 C6.56 51.12, 6.71 51.01, 6.84 51.21 C6.97 51.42, 6.98 51.44, 6.77 52.11 C6.56 52.78, 6.21 53.78, 5.57 55.25 C4.92 56.72, 3.87 59.02, 2.9 60.91 C1.94 62.8, 0.88 64.85, -0.2 66.58 C-1.27 68.31, -2.43 69.82, -3.55 71.31 C-4.68 72.81, -5.95 74.41, -6.96 75.58 C-7.96 76.74, -8.74 77.53, -9.59 78.33 C-10.43 79.13, -11.03 79.73, -12.03 80.37 C-13.03 81.01, -14.39 81.76, -15.59 82.18 C-16.79 82.6, -17.99 82.78, -19.23 82.88 C-20.48 82.98, -21.83 83.01, -23.08 82.79 C-24.32 82.56, -25.67 81.96, -26.71 81.52 C-27.75 81.09, -28.31 80.61, -29.29 80.18 C-30.28 79.75, -31.49 79.28, -32.63 78.93 C-33.77 78.58, -34.98 78.29, -36.12 78.1 C-37.26 77.92, -38.24 77.85, -39.45 77.83 C-40.67 77.81, -42.2 77.83, -43.38 77.97 C-44.57 78.1, -45.33 78.27, -46.57 78.66 C-47.82 79.04, -49.54 79.73, -50.88 80.28 C-52.21 80.83, -53.47 81.54, -54.58 81.96 C-55.69 82.38, -56.53 82.63, -57.53 82.79 C-58.54 82.95, -59.49 83.02, -60.61 82.93 C-61.73 82.83, -63.02 82.64, -64.26 82.2 C-65.51 81.76, -66.88 81.11, -68.09 80.27 C-69.31 79.44, -70.33 78.42, -71.56 77.19 C-72.78 75.97, -74.27 74.35, -75.45 72.91 C-76.63 71.48, -77.5 70.36, -78.63 68.6 C-79.76 66.83, -81.14 64.55, -82.26 62.33 C-83.38 60.12, -84.35 57.77, -85.37 55.3 C-86.38 52.82, -87.54 50.08, -88.35 47.48 C-89.17 44.88, -89.79 42.2, -90.25 39.71 C-90.7 37.23, -90.94 34.95, -91.08 32.59 C-91.22 30.23, -91.25 28.01, -91.1 25.56 C-90.95 23.1, -90.65 20.41, -90.17 17.89 C-89.68 15.36, -89.03 12.57, -88.2 10.39 C-87.38 8.21, -86.51 6.66, -85.21 4.82 C-83.91 2.99, -82.05 0.87, -80.42 -0.63 C-78.79 -2.13, -77.25 -3.18, -75.4 -4.17 C-73.56 -5.16, -71.45 -6.02, -69.35 -6.58 C-67.25 -7.15, -64.73 -7.45, -62.81 -7.58 C-60.9 -7.7, -60.03 -7.76, -57.85 -7.32 C-55.68 -6.89, -51.83 -5.64, -49.79 -4.98 C-47.74 -4.31, -46.67 -3.72, -45.6 -3.31 C-44.53 -2.9, -44.02 -2.64, -43.36 -2.49 C-42.69 -2.35, -42.26 -2.3, -41.62 -2.44 C-40.98 -2.58, -40.42 -2.92, -39.52 -3.31 C-38.61 -3.69, -37.44 -4.25, -36.18 -4.74 C-34.91 -5.23, -33.47 -5.82, -31.94 -6.26 C-30.42 -6.71, -28.91 -7.15, -27.02 -7.41 C-25.13 -7.66, -22.83 -7.9, -20.6 -7.8 C-18.36 -7.7, -15.84 -7.35, -13.61 -6.81 C-11.38 -6.28, -9.48 -5.73, -7.22 -4.59 C-4.95 -3.46, -1.2 -0.77, 0 0" stroke="#E1E1E1" stroke-width="2" fill="none"></path></g></g><mask></mask><g stroke-linecap="round"><g transform="translate(62.23394230037496 37.163052949267694) rotate(0 1.8576280327296217 -10.410907350092202)"><path d="M0 0 C-0.31 0.07, -1.35 0.32, -1.89 0.42 C-2.42 0.51, -2.96 0.65, -3.23 0.58 C-3.5 0.51, -3.45 0.3, -3.51 0 C-3.56 -0.3, -3.59 -0.49, -3.54 -1.22 C-3.49 -1.96, -3.43 -3.2, -3.18 -4.42 C-2.93 -5.63, -2.65 -6.98, -2.06 -8.51 C-1.47 -10.05, -0.52 -12.11, 0.36 -13.6 C1.23 -15.09, 2.06 -16.16, 3.21 -17.46 C4.36 -18.76, 6.58 -20.75, 7.26 -21.41 M0 0 C-0.31 0.07, -1.35 0.32, -1.89 0.42 C-2.42 0.51, -2.96 0.65, -3.23 0.58 C-3.5 0.51, -3.45 0.3, -3.51 0 C-3.56 -0.3, -3.59 -0.49, -3.54 -1.22 C-3.49 -1.96, -3.43 -3.2, -3.18 -4.42 C-2.93 -5.63, -2.65 -6.98, -2.06 -8.51 C-1.47 -10.05, -0.52 -12.11, 0.36 -13.6 C1.23 -15.09, 2.06 -16.16, 3.21 -17.46 C4.36 -18.76, 6.58 -20.75, 7.26 -21.41" stroke="#E1E1E1" stroke-width="2" fill="none"></path></g></g><mask></mask><g stroke-linecap="round"><g transform="translate(69.50508574556721 15.736419291250058) rotate(0 3.1182047458230215 7.87458853504495)"><path d="M0 0 C0.42 -0.32, 1.58 -1.35, 2.54 -1.92 C3.49 -2.49, 4.62 -2.97, 5.73 -3.44 C6.84 -3.92, 8.17 -4.44, 9.18 -4.78 C10.19 -5.13, 11.08 -5.36, 11.78 -5.51 C12.48 -5.66, 13.08 -5.81, 13.38 -5.7 C13.68 -5.58, 13.57 -5.39, 13.59 -4.82 C13.6 -4.24, 13.6 -3.23, 13.47 -2.24 C13.35 -1.26, 13.17 -0.16, 12.84 1.08 C12.51 2.32, 12.18 3.61, 11.47 5.19 C10.76 6.77, 9.72 8.9, 8.57 10.54 C7.43 12.18, 6.09 13.69, 4.61 15.01 C3.13 16.34, 1.24 17.56, -0.3 18.48 C-1.84 19.41, -3.45 20.07, -4.62 20.57 C-5.8 21.06, -6.9 21.3, -7.35 21.44 M0 0 C0.42 -0.32, 1.58 -1.35, 2.54 -1.92 C3.49 -2.49, 4.62 -2.97, 5.73 -3.44 C6.84 -3.92, 8.17 -4.44, 9.18 -4.78 C10.19 -5.13, 11.08 -5.36, 11.78 -5.51 C12.48 -5.66, 13.08 -5.81, 13.38 -5.7 C13.68 -5.58, 13.57 -5.39, 13.59 -4.82 C13.6 -4.24, 13.6 -3.23, 13.47 -2.24 C13.35 -1.26, 13.17 -0.16, 12.84 1.08 C12.51 2.32, 12.18 3.61, 11.47 5.19 C10.76 6.77, 9.72 8.9, 8.57 10.54 C7.43 12.18, 6.09 13.69, 4.61 15.01 C3.13 16.34, 1.24 17.56, -0.3 18.48 C-1.84 19.41, -3.45 20.07, -4.62 20.57 C-5.8 21.06, -6.9 21.3, -7.35 21.44" stroke="#E1E1E1" stroke-width="2" fill="none"></path></g></g><mask></mask><g stroke-linecap="round"><g transform="translate(62.39331098610137 36.61403416786925) rotate(0 8.605856188151023 -12.678000882057404)"><path d="M0 0 C-0.32 0.08, -1.45 0.4, -1.9 0.47 C-2.34 0.54, -2.52 0.52, -2.69 0.43 C-2.85 0.34, -2.85 0.29, -2.89 -0.06 C-2.93 -0.4, -3.01 -0.75, -2.93 -1.63 C-2.85 -2.5, -2.77 -3.93, -2.41 -5.28 C-2.06 -6.63, -1.45 -8.28, -0.79 -9.72 C-0.12 -11.16, 0.77 -12.67, 1.59 -13.95 C2.41 -15.22, 2.93 -16.11, 4.14 -17.37 C5.36 -18.64, 7.28 -20.41, 8.88 -21.53 C10.47 -22.66, 12.19 -23.43, 13.74 -24.11 C15.29 -24.8, 17.14 -25.38, 18.19 -25.67 C19.23 -25.96, 19.66 -26.03, 19.98 -25.83 C20.31 -25.62, 20.2 -25.21, 20.14 -24.46 C20.09 -23.7, 19.95 -22.54, 19.67 -21.32 C19.39 -20.1, 19.15 -18.77, 18.48 -17.14 C17.81 -15.5, 16.73 -13.21, 15.63 -11.52 C14.53 -9.83, 13.27 -8.39, 11.85 -7.02 C10.43 -5.64, 8.68 -4.26, 7.13 -3.26 C5.58 -2.27, 3.76 -1.59, 2.57 -1.05 C1.38 -0.51, 0.43 -0.17, 0 0 M0 0 C-0.32 0.08, -1.45 0.4, -1.9 0.47 C-2.34 0.54, -2.52 0.52, -2.69 0.43 C-2.85 0.34, -2.85 0.29, -2.89 -0.06 C-2.93 -0.4, -3.01 -0.75, -2.93 -1.63 C-2.85 -2.5, -2.77 -3.93, -2.41 -5.28 C-2.06 -6.63, -1.45 -8.28, -0.79 -9.72 C-0.12 -11.16, 0.77 -12.67, 1.59 -13.95 C2.41 -15.22, 2.93 -16.11, 4.14 -17.37 C5.36 -18.64, 7.28 -20.41, 8.88 -21.53 C10.47 -22.66, 12.19 -23.43, 13.74 -24.11 C15.29 -24.8, 17.14 -25.38, 18.19 -25.67 C19.23 -25.96, 19.66 -26.03, 19.98 -25.83 C20.31 -25.62, 20.2 -25.21, 20.14 -24.46 C20.09 -23.7, 19.95 -22.54, 19.67 -21.32 C19.39 -20.1, 19.15 -18.77, 18.48 -17.14 C17.81 -15.5, 16.73 -13.21, 15.63 -11.52 C14.53 -9.83, 13.27 -8.39, 11.85 -7.02 C10.43 -5.64, 8.68 -4.26, 7.13 -3.26 C5.58 -2.27, 3.76 -1.59, 2.57 -1.05 C1.38 -0.51, 0.43 -0.17, 0 0" stroke="#E1E1E1" stroke-width="2" fill="none"></path></g></g><mask></mask></svg>