<svg version="1.1" xmlns="http://www.w3.org/2000/svg" viewBox="0 0 206.7170483604498 206.47881655143567" width="206.7170483604498" height="206.47881655143567" class="excalidraw-svg"><!-- svg-source:excalidraw --><metadata></metadata><defs><style class="style-fonts">
      </style></defs><rect x="0" y="0" width="206.7170483604498" height="206.47881655143567" fill="#000000"></rect><g stroke-linecap="round"><g transform="translate(13.076258203586804 72.03889379916063) rotate(0 18.83218877004105 62.00667429228669)" fill-rule="evenodd"><path d="M0 0 L37.68 0.01 L37.79 123.88 L-0.13 124.01 L0 0" stroke="none" stroke-width="0" fill="#E1E1E1" fill-rule="evenodd"></path><path d="M0 0 C14.14 0, 28.28 0.01, 37.68 0.01 M0 0 C15.02 0, 30.04 0.01, 37.68 0.01 M37.68 0.01 C37.72 44.56, 37.76 89.12, 37.79 123.88 M37.68 0.01 C37.72 39.08, 37.75 78.16, 37.79 123.88 M37.79 123.88 C22.95 123.93, 8.1 123.98, -0.13 124.01 M37.79 123.88 C29.03 123.91, 20.27 123.94, -0.13 124.01 M-0.13 124.01 C-0.1 94.38, -0.07 64.75, 0 0 M-0.13 124.01 C-0.09 85.08, -0.05 46.14, 0 0 M0 0 C0 0, 0 0, 0 0 M0 0 C0 0, 0 0, 0 0" stroke="#E1E1E1" stroke-width="4" fill="none"></path></g></g><mask></mask><g stroke-linecap="round"><g transform="translate(76.16677837353564 71.57874604920016) rotate(0 18.832188770041054 62.00667429228669)" fill-rule="evenodd"><path d="M0 0 L37.68 0.01 L37.79 123.88 L-0.13 124.01 L0 0" stroke="none" stroke-width="0" fill="#E1E1E1" fill-rule="evenodd"></path><path d="M0 0 C11.54 0, 23.08 0.01, 37.68 0.01 M0 0 C11.71 0, 23.41 0.01, 37.68 0.01 M37.68 0.01 C37.71 33.5, 37.74 66.98, 37.79 123.88 M37.68 0.01 C37.71 29.59, 37.73 59.16, 37.79 123.88 M37.79 123.88 C26.07 123.92, 14.35 123.96, -0.13 124.01 M37.79 123.88 C24.53 123.92, 11.26 123.97, -0.13 124.01 M-0.13 124.01 C-0.1 95.09, -0.07 66.17, 0 0 M-0.13 124.01 C-0.08 75.79, -0.03 27.57, 0 0 M0 0 C0 0, 0 0, 0 0 M0 0 C0 0, 0 0, 0 0" stroke="#E1E1E1" stroke-width="4" fill="none"></path></g></g><mask></mask><g stroke-linecap="round"><g transform="translate(113.70005744240098 128.80388928819457) rotate(0 40.62630047927484 3.905251949219874)" fill-rule="evenodd"><path d="M0 0 C0.14 -1.08, 0.37 -4.08, 0.86 -6.49 C1.36 -8.9, 1.82 -11.99, 2.95 -14.48 C4.07 -16.98, 5.52 -19.54, 7.6 -21.45 C9.69 -23.35, 12.94 -24.98, 15.46 -25.91 C17.98 -26.85, 20.37 -26.93, 22.71 -27.06 C25.06 -27.18, 27.45 -27.1, 29.55 -26.65 C31.65 -26.2, 33.67 -25.32, 35.32 -24.35 C36.97 -23.38, 38.28 -22.24, 39.43 -20.85 C40.58 -19.47, 41.43 -17.95, 42.22 -16.03 C43.02 -14.12, 43.73 -11.77, 44.2 -9.35 C44.67 -6.94, 44.88 -4.61, 45.04 -1.56 C45.2 1.5, 45.16 5.78, 45.18 8.99 C45.21 12.21, 45.19 14.21, 45.19 17.72 C45.19 21.22, 45.21 25.74, 45.2 30.02 C45.19 34.3, 45.14 37.91, 45.12 43.4 C45.11 48.89, 45.12 59, 45.11 62.95 C45.11 66.89, 44.52 66.29, 45.09 67.06 C45.65 67.82, 46.19 67.48, 48.51 67.54 C50.84 67.6, 54.19 67.44, 59.02 67.42 C63.86 67.4, 73.61 67.42, 77.52 67.42 C81.43 67.42, 81.57 67.99, 82.48 67.42 C83.38 66.86, 82.86 69.15, 82.94 64.02 C83.01 58.88, 82.94 47.75, 82.94 36.62 C82.94 25.49, 83.1 6.43, 82.94 -2.76 C82.78 -11.95, 82.64 -13.51, 81.98 -18.5 C81.32 -23.48, 80.26 -28.57, 78.97 -32.65 C77.69 -36.72, 75.9 -40.24, 74.28 -42.96 C72.66 -45.68, 71.35 -47.04, 69.27 -48.96 C67.18 -50.89, 64.82 -52.92, 61.77 -54.5 C58.72 -56.08, 54.54 -57.58, 50.96 -58.45 C47.37 -59.32, 43.64 -59.56, 40.26 -59.73 C36.87 -59.9, 33.95 -59.92, 30.66 -59.45 C27.38 -58.98, 23.71 -58.07, 20.54 -56.9 C17.37 -55.72, 14.02 -53.92, 11.64 -52.39 C9.26 -50.85, 7.82 -49.24, 6.28 -47.68 C4.75 -46.11, 3.73 -44.68, 2.43 -42.99 C1.13 -41.3, -0.84 -39.46, -1.53 -37.52 C-2.21 -35.58, -1.94 -37.59, -1.68 -31.34 C-1.43 -25.09, -0.28 -5.22, 0 0" stroke="none" stroke-width="0" fill="#E1E1E1" fill-rule="evenodd"></path><path d="M0 0 C0.14 -1.08, 0.37 -4.08, 0.86 -6.49 C1.36 -8.9, 1.82 -11.99, 2.95 -14.48 C4.07 -16.98, 5.52 -19.54, 7.6 -21.45 C9.69 -23.35, 12.94 -24.98, 15.46 -25.91 C17.98 -26.85, 20.37 -26.93, 22.71 -27.06 C25.06 -27.18, 27.45 -27.1, 29.55 -26.65 C31.65 -26.2, 33.67 -25.32, 35.32 -24.35 C36.97 -23.38, 38.28 -22.24, 39.43 -20.85 C40.58 -19.47, 41.43 -17.95, 42.22 -16.03 C43.02 -14.12, 43.73 -11.77, 44.2 -9.35 C44.67 -6.94, 44.88 -4.61, 45.04 -1.56 C45.2 1.5, 45.16 5.78, 45.18 8.99 C45.21 12.21, 45.19 14.21, 45.19 17.72 C45.19 21.22, 45.21 25.74, 45.2 30.02 C45.19 34.3, 45.14 37.91, 45.12 43.4 C45.11 48.89, 45.12 59, 45.11 62.95 C45.11 66.89, 44.52 66.29, 45.09 67.06 C45.65 67.82, 46.19 67.48, 48.51 67.54 C50.84 67.6, 54.19 67.44, 59.02 67.42 C63.86 67.4, 73.61 67.42, 77.52 67.42 C81.43 67.42, 81.57 67.99, 82.48 67.42 C83.38 66.86, 82.86 69.15, 82.94 64.02 C83.01 58.88, 82.94 47.75, 82.94 36.62 C82.94 25.49, 83.1 6.43, 82.94 -2.76 C82.78 -11.95, 82.64 -13.51, 81.98 -18.5 C81.32 -23.48, 80.26 -28.57, 78.97 -32.65 C77.69 -36.72, 75.9 -40.24, 74.28 -42.96 C72.66 -45.68, 71.35 -47.04, 69.27 -48.96 C67.18 -50.89, 64.82 -52.92, 61.77 -54.5 C58.72 -56.08, 54.54 -57.58, 50.96 -58.45 C47.37 -59.32, 43.64 -59.56, 40.26 -59.73 C36.87 -59.9, 33.95 -59.92, 30.66 -59.45 C27.38 -58.98, 23.71 -58.07, 20.54 -56.9 C17.37 -55.72, 14.02 -53.92, 11.64 -52.39 C9.26 -50.85, 7.82 -49.24, 6.28 -47.68 C4.75 -46.11, 3.73 -44.68, 2.43 -42.99 C1.13 -41.3, -0.84 -39.46, -1.53 -37.52 C-2.21 -35.58, -1.94 -37.59, -1.68 -31.34 C-1.43 -25.09, -0.28 -5.22, 0 0 M0 0 C0.14 -1.08, 0.37 -4.08, 0.86 -6.49 C1.36 -8.9, 1.82 -11.99, 2.95 -14.48 C4.07 -16.98, 5.52 -19.54, 7.6 -21.45 C9.69 -23.35, 12.94 -24.98, 15.46 -25.91 C17.98 -26.85, 20.37 -26.93, 22.71 -27.06 C25.06 -27.18, 27.45 -27.1, 29.55 -26.65 C31.65 -26.2, 33.67 -25.32, 35.32 -24.35 C36.97 -23.38, 38.28 -22.24, 39.43 -20.85 C40.58 -19.47, 41.43 -17.95, 42.22 -16.03 C43.02 -14.12, 43.73 -11.77, 44.2 -9.35 C44.67 -6.94, 44.88 -4.61, 45.04 -1.56 C45.2 1.5, 45.16 5.78, 45.18 8.99 C45.21 12.21, 45.19 14.21, 45.19 17.72 C45.19 21.22, 45.21 25.74, 45.2 30.02 C45.19 34.3, 45.14 37.91, 45.12 43.4 C45.11 48.89, 45.12 59, 45.11 62.95 C45.11 66.89, 44.52 66.29, 45.09 67.06 C45.65 67.82, 46.19 67.48, 48.51 67.54 C50.84 67.6, 54.19 67.44, 59.02 67.42 C63.86 67.4, 73.61 67.42, 77.52 67.42 C81.43 67.42, 81.57 67.99, 82.48 67.42 C83.38 66.86, 82.86 69.15, 82.94 64.02 C83.01 58.88, 82.94 47.75, 82.94 36.62 C82.94 25.49, 83.1 6.43, 82.94 -2.76 C82.78 -11.95, 82.64 -13.51, 81.98 -18.5 C81.32 -23.48, 80.26 -28.57, 78.97 -32.65 C77.69 -36.72, 75.9 -40.24, 74.28 -42.96 C72.66 -45.68, 71.35 -47.04, 69.27 -48.96 C67.18 -50.89, 64.82 -52.92, 61.77 -54.5 C58.72 -56.08, 54.54 -57.58, 50.96 -58.45 C47.37 -59.32, 43.64 -59.56, 40.26 -59.73 C36.87 -59.9, 33.95 -59.92, 30.66 -59.45 C27.38 -58.98, 23.71 -58.07, 20.54 -56.9 C17.37 -55.72, 14.02 -53.92, 11.64 -52.39 C9.26 -50.85, 7.82 -49.24, 6.28 -47.68 C4.75 -46.11, 3.73 -44.68, 2.43 -42.99 C1.13 -41.3, -0.84 -39.46, -1.53 -37.52 C-2.21 -35.58, -1.94 -37.59, -1.68 -31.34 C-1.43 -25.09, -0.28 -5.22, 0 0" stroke="#E1E1E1" stroke-width="4" fill="none"></path></g></g><mask></mask><g stroke-linecap="round" transform="translate(10 10) rotate(0 22.105247667627538 22.105247667627538)"><path d="M44.21 22.11 C44.21 23.38, 44.1 24.68, 43.87 25.94 C43.65 27.2, 43.32 28.46, 42.88 29.67 C42.44 30.87, 41.89 32.05, 41.25 33.16 C40.61 34.27, 39.86 35.33, 39.04 36.31 C38.22 37.29, 37.29 38.22, 36.31 39.04 C35.33 39.86, 34.27 40.61, 33.16 41.25 C32.05 41.89, 30.87 42.44, 29.67 42.88 C28.46 43.32, 27.2 43.65, 25.94 43.87 C24.68 44.1, 23.38 44.21, 22.11 44.21 C20.83 44.21, 19.53 44.1, 18.27 43.87 C17.01 43.65, 15.75 43.32, 14.54 42.88 C13.34 42.44, 12.16 41.89, 11.05 41.25 C9.94 40.61, 8.88 39.86, 7.9 39.04 C6.92 38.22, 5.99 37.29, 5.17 36.31 C4.35 35.33, 3.6 34.27, 2.96 33.16 C2.32 32.05, 1.77 30.87, 1.33 29.67 C0.9 28.46, 0.56 27.2, 0.34 25.94 C0.11 24.68, 0 23.38, 0 22.11 C0 20.83, 0.11 19.53, 0.34 18.27 C0.56 17.01, 0.9 15.75, 1.33 14.54 C1.77 13.34, 2.32 12.16, 2.96 11.05 C3.6 9.94, 4.35 8.88, 5.17 7.9 C5.99 6.92, 6.92 5.99, 7.9 5.17 C8.88 4.35, 9.94 3.6, 11.05 2.96 C12.16 2.32, 13.34 1.77, 14.54 1.33 C15.75 0.9, 17.01 0.56, 18.27 0.34 C19.53 0.11, 20.83 0, 22.11 0 C23.38 0, 24.68 0.11, 25.94 0.34 C27.2 0.56, 28.46 0.9, 29.67 1.33 C30.87 1.77, 32.05 2.32, 33.16 2.96 C34.27 3.6, 35.33 4.35, 36.31 5.17 C37.29 5.99, 38.22 6.92, 39.04 7.9 C39.86 8.88, 40.61 9.94, 41.25 11.05 C41.89 12.16, 42.44 13.34, 42.88 14.54 C43.32 15.75, 43.65 17.01, 43.87 18.27 C44.1 19.53, 44.15 21.47, 44.21 22.11 C44.27 22.75, 44.27 21.47, 44.21 22.11" stroke="none" stroke-width="0" fill="#E1E1E1"></path><path d="M44.21 22.11 C44.21 23.38, 44.1 24.68, 43.87 25.94 C43.65 27.2, 43.32 28.46, 42.88 29.67 C42.44 30.87, 41.89 32.05, 41.25 33.16 C40.61 34.27, 39.86 35.33, 39.04 36.31 C38.22 37.29, 37.29 38.22, 36.31 39.04 C35.33 39.86, 34.27 40.61, 33.16 41.25 C32.05 41.89, 30.87 42.44, 29.67 42.88 C28.46 43.32, 27.2 43.65, 25.94 43.87 C24.68 44.1, 23.38 44.21, 22.11 44.21 C20.83 44.21, 19.53 44.1, 18.27 43.87 C17.01 43.65, 15.75 43.32, 14.54 42.88 C13.34 42.44, 12.16 41.89, 11.05 41.25 C9.94 40.61, 8.88 39.86, 7.9 39.04 C6.92 38.22, 5.99 37.29, 5.17 36.31 C4.35 35.33, 3.6 34.27, 2.96 33.16 C2.32 32.05, 1.77 30.87, 1.33 29.67 C0.9 28.46, 0.56 27.2, 0.34 25.94 C0.11 24.68, 0 23.38, 0 22.11 C0 20.83, 0.11 19.53, 0.34 18.27 C0.56 17.01, 0.9 15.75, 1.33 14.54 C1.77 13.34, 2.32 12.16, 2.96 11.05 C3.6 9.94, 4.35 8.88, 5.17 7.9 C5.99 6.92, 6.92 5.99, 7.9 5.17 C8.88 4.35, 9.94 3.6, 11.05 2.96 C12.16 2.32, 13.34 1.77, 14.54 1.33 C15.75 0.9, 17.01 0.56, 18.27 0.34 C19.53 0.11, 20.83 0, 22.11 0 C23.38 0, 24.68 0.11, 25.94 0.34 C27.2 0.56, 28.46 0.9, 29.67 1.33 C30.87 1.77, 32.05 2.32, 33.16 2.96 C34.27 3.6, 35.33 4.35, 36.31 5.17 C37.29 5.99, 38.22 6.92, 39.04 7.9 C39.86 8.88, 40.61 9.94, 41.25 11.05 C41.89 12.16, 42.44 13.34, 42.88 14.54 C43.32 15.75, 43.65 17.01, 43.87 18.27 C44.1 19.53, 44.15 21.47, 44.21 22.11 C44.27 22.75, 44.27 21.47, 44.21 22.11" stroke="#E1E1E1" stroke-width="4" fill="none"></path></g></svg>