<svg version="1.1" xmlns="http://www.w3.org/2000/svg" viewBox="0 0 814.8188075335311 563.4130777730504" width="814.8188075335311" height="563.4130777730504" class="excalidraw-svg"><!-- svg-source:excalidraw --><metadata></metadata><defs><style class="style-fonts">
      </style></defs><rect x="0" y="0" width="814.8188075335311" height="563.4130777730504" fill="#000000"></rect><g stroke-linecap="round"><g transform="translate(357.035557794301 42.59247147985343) rotate(0 51.023318621417616 176.5517249143959)"><path d="M0 0 C-15.93 2.59, -64.92 7.39, -95.57 15.52 C-126.22 23.65, -157.17 33.87, -183.88 48.79 C-210.58 63.72, -239.23 87.84, -255.8 105.06 C-272.38 122.29, -279.97 132.29, -283.32 152.13 C-286.67 171.97, -287.78 200.74, -275.91 224.12 C-264.04 247.51, -238.05 274.35, -212.1 292.44 C-186.16 310.54, -159.57 322.32, -120.25 332.68 C-80.93 343.04, -26.32 353.02, 23.81 354.61 C73.93 356.19, 133.19 352.18, 180.49 342.2 C227.79 332.22, 274.6 314.96, 307.63 294.75 C340.66 274.53, 365.71 244.55, 378.67 220.91 C391.63 197.26, 390.49 174.76, 385.37 152.89 C380.25 131.01, 371.06 109.85, 347.95 89.66 C324.85 69.48, 278.55 45.34, 246.74 31.77 C214.92 18.2, 187.81 13.8, 157.08 8.26 C126.34 2.71, 88.51 -0.13, 62.33 -1.5 C36.15 -2.88, 10.39 -0.25, 0 0 M0 0 C-15.93 2.59, -64.92 7.39, -95.57 15.52 C-126.22 23.65, -157.17 33.87, -183.88 48.79 C-210.58 63.72, -239.23 87.84, -255.8 105.06 C-272.38 122.29, -279.97 132.29, -283.32 152.13 C-286.67 171.97, -287.78 200.74, -275.91 224.12 C-264.04 247.51, -238.05 274.35, -212.1 292.44 C-186.16 310.54, -159.57 322.32, -120.25 332.68 C-80.93 343.04, -26.32 353.02, 23.81 354.61 C73.93 356.19, 133.19 352.18, 180.49 342.2 C227.79 332.22, 274.6 314.96, 307.63 294.75 C340.66 274.53, 365.71 244.55, 378.67 220.91 C391.63 197.26, 390.49 174.76, 385.37 152.89 C380.25 131.01, 371.06 109.85, 347.95 89.66 C324.85 69.48, 278.55 45.34, 246.74 31.77 C214.92 18.2, 187.81 13.8, 157.08 8.26 C126.34 2.71, 88.51 -0.13, 62.33 -1.5 C36.15 -2.88, 10.39 -0.25, 0 0" stroke="#E1E1E1" stroke-width="2" fill="none"></path></g></g><mask></mask><g stroke-linecap="round"><g transform="translate(327.8708009592501 37.01607050571101) rotate(0 80.39638454747592 180.79538881182816)"><path d="M0 0 C-15.08 2.76, -61.88 8.54, -90.46 16.53 C-119.04 24.53, -148.28 35.61, -171.48 47.97 C-194.67 60.33, -213.9 76.15, -229.61 90.69 C-245.31 105.24, -257.7 118.75, -265.7 135.22 C-273.71 151.68, -280.16 169.92, -277.63 189.48 C-275.11 209.05, -266.16 232.48, -250.58 252.62 C-234.99 272.77, -211.74 294.33, -184.11 310.38 C-156.48 326.42, -121.01 339.34, -84.79 348.9 C-48.57 358.46, -6.39 364.8, 33.2 367.76 C72.8 370.73, 115.04 370.3, 152.8 366.69 C190.56 363.09, 226.94 356.07, 259.76 346.14 C292.58 336.2, 323.58 324.02, 349.71 307.08 C375.83 290.14, 401.73 266.54, 416.52 244.5 C431.3 222.46, 438.43 195.92, 438.43 174.83 C438.43 153.74, 428.77 135.83, 416.5 117.95 C404.24 100.07, 387.74 82.88, 364.84 67.56 C341.94 52.24, 310.31 37.08, 279.09 26.03 C247.86 14.98, 209.64 6.62, 177.48 1.25 C145.33 -4.12, 115.76 -5.97, 86.18 -6.17 C56.6 -6.38, 14.36 -1.03, 0 0 M0 0 C-15.08 2.76, -61.88 8.54, -90.46 16.53 C-119.04 24.53, -148.28 35.61, -171.48 47.97 C-194.67 60.33, -213.9 76.15, -229.61 90.69 C-245.31 105.24, -257.7 118.75, -265.7 135.22 C-273.71 151.68, -280.16 169.92, -277.63 189.48 C-275.11 209.05, -266.16 232.48, -250.58 252.62 C-234.99 272.77, -211.74 294.33, -184.11 310.38 C-156.48 326.42, -121.01 339.34, -84.79 348.9 C-48.57 358.46, -6.39 364.8, 33.2 367.76 C72.8 370.73, 115.04 370.3, 152.8 366.69 C190.56 363.09, 226.94 356.07, 259.76 346.14 C292.58 336.2, 323.58 324.02, 349.71 307.08 C375.83 290.14, 401.73 266.54, 416.52 244.5 C431.3 222.46, 438.43 195.92, 438.43 174.83 C438.43 153.74, 428.77 135.83, 416.5 117.95 C404.24 100.07, 387.74 82.88, 364.84 67.56 C341.94 52.24, 310.31 37.08, 279.09 26.03 C247.86 14.98, 209.64 6.62, 177.48 1.25 C145.33 -4.12, 115.76 -5.97, 86.18 -6.17 C56.6 -6.38, 14.36 -1.03, 0 0" stroke="#E1E1E1" stroke-width="2" fill="none"></path></g></g><mask></mask><g stroke-linecap="round"><g transform="translate(347.8124079203981 13.317211474718079) rotate(0 59.12787382376325 206.51405863124285)"><path d="M0 0 C-17.12 2.54, -67.61 6.71, -102.7 15.24 C-137.79 23.78, -179.71 36.32, -210.56 51.21 C-241.41 66.1, -268.08 86.21, -287.81 104.58 C-307.54 122.94, -321.05 140.84, -328.93 161.41 C-336.81 181.98, -340.33 205.3, -335.09 228 C-329.85 250.7, -319.17 274.87, -297.49 297.59 C-275.81 320.3, -242.6 346.77, -205.02 364.3 C-167.44 381.83, -115.07 394.41, -72 402.78 C-28.94 411.15, 3.71 415.63, 53.38 414.52 C103.06 413.41, 178.99 405.78, 226.04 396.12 C273.08 386.46, 303.09 373.74, 335.67 356.57 C368.24 339.4, 401.85 315.58, 421.47 293.09 C441.08 270.6, 450.76 247.41, 453.35 221.65 C455.94 195.89, 451.38 163.27, 436.99 138.53 C422.61 113.8, 394.99 91.57, 367.05 73.23 C339.11 54.89, 311.52 40.93, 269.36 28.48 C227.2 16.03, 158.96 3.25, 114.07 -1.49 C69.17 -6.24, 19.01 -0.25, 0 0 M0 0 C-17.12 2.54, -67.61 6.71, -102.7 15.24 C-137.79 23.78, -179.71 36.32, -210.56 51.21 C-241.41 66.1, -268.08 86.21, -287.81 104.58 C-307.54 122.94, -321.05 140.84, -328.93 161.41 C-336.81 181.98, -340.33 205.3, -335.09 228 C-329.85 250.7, -319.17 274.87, -297.49 297.59 C-275.81 320.3, -242.6 346.77, -205.02 364.3 C-167.44 381.83, -115.07 394.41, -72 402.78 C-28.94 411.15, 3.71 415.63, 53.38 414.52 C103.06 413.41, 178.99 405.78, 226.04 396.12 C273.08 386.46, 303.09 373.74, 335.67 356.57 C368.24 339.4, 401.85 315.58, 421.47 293.09 C441.08 270.6, 450.76 247.41, 453.35 221.65 C455.94 195.89, 451.38 163.27, 436.99 138.53 C422.61 113.8, 394.99 91.57, 367.05 73.23 C339.11 54.89, 311.52 40.93, 269.36 28.48 C227.2 16.03, 158.96 3.25, 114.07 -1.49 C69.17 -6.24, 19.01 -0.25, 0 0" stroke="#E1E1E1" stroke-width="2" fill="none"></path></g></g><mask></mask><g stroke-linecap="round"><g transform="translate(802.5752701173296 227.52817352789316) rotate(0 -395.24283284166813 159.98099097729607)"><path d="M0 0 C0.35 15.81, 2.18 71.25, 2.09 94.83 C2 118.42, 3.35 126.17, -0.56 141.5 C-4.47 156.82, -8.9 169.76, -21.39 186.79 C-33.89 203.82, -51.44 226.4, -75.53 243.68 C-99.62 260.96, -131.72 278.04, -165.93 290.45 C-200.15 302.85, -241.69 312.22, -280.81 318.1 C-319.93 323.98, -359.22 326.58, -400.68 325.73 C-442.15 324.88, -493.03 319.13, -529.59 313 C-566.16 306.88, -591.3 299.63, -620.07 288.97 C-648.84 278.31, -679.8 262.83, -702.22 249.06 C-724.63 235.3, -741.5 219.9, -754.55 206.39 C-767.6 192.88, -774.77 180.12, -780.52 168.01 C-786.27 155.9, -787.26 149.91, -789.05 133.75 C-790.83 117.6, -790.64 94.33, -791.22 71.08 C-791.81 47.83, -792.35 7.04, -792.58 -5.77 M0 0 C0.35 15.81, 2.18 71.25, 2.09 94.83 C2 118.42, 3.35 126.17, -0.56 141.5 C-4.47 156.82, -8.9 169.76, -21.39 186.79 C-33.89 203.82, -51.44 226.4, -75.53 243.68 C-99.62 260.96, -131.72 278.04, -165.93 290.45 C-200.15 302.85, -241.69 312.22, -280.81 318.1 C-319.93 323.98, -359.22 326.58, -400.68 325.73 C-442.15 324.88, -493.03 319.13, -529.59 313 C-566.16 306.88, -591.3 299.63, -620.07 288.97 C-648.84 278.31, -679.8 262.83, -702.22 249.06 C-724.63 235.3, -741.5 219.9, -754.55 206.39 C-767.6 192.88, -774.77 180.12, -780.52 168.01 C-786.27 155.9, -787.26 149.91, -789.05 133.75 C-790.83 117.6, -790.64 94.33, -791.22 71.08 C-791.81 47.83, -792.35 7.04, -792.58 -5.77" stroke="#E1E1E1" stroke-width="2" fill="none"></path></g></g><mask></mask><g stroke-linecap="round"><g transform="translate(79.52824427717042 221.66408559647016) rotate(0 11.788517485853845 0.10026182481431078)"><path d="M0 0 C3.93 0.03, 19.65 0.17, 23.58 0.2 M0 0 C3.93 0.03, 19.65 0.17, 23.58 0.2" stroke="#E1E1E1" stroke-width="2" fill="none"></path></g></g><mask></mask><g stroke-linecap="round"><g transform="translate(101.23340116747477 157.75988843399273) rotate(0 11.50280820451485 2.8635840819041505)"><path d="M0 0 C3.83 0.95, 19.17 4.77, 23.01 5.73 M0 0 C3.83 0.95, 19.17 4.77, 23.01 5.73" stroke="#E1E1E1" stroke-width="2" fill="none"></path></g></g><mask></mask><g stroke-linecap="round"><g transform="translate(166.65764872331056 103.15012226001772) rotate(0 8.291943593861788 5.204903785589636)"><path d="M0 0 C2.76 1.73, 13.82 8.67, 16.58 10.41 M0 0 C2.76 1.73, 13.82 8.67, 16.58 10.41" stroke="#E1E1E1" stroke-width="2" fill="none"></path></g></g><mask></mask><g stroke-linecap="round"><g transform="translate(255.95387505096915 65.21935507849275) rotate(0 18.91405163011359 5.2003145662381485)"><path d="M0 0 C6 3.1, 29.7 19.95, 36 18.59 C42.3 17.22, 39.1 -4.01, 37.83 -8.18 C36.55 -12.36, 34.65 -7.83, 28.34 -6.46 C22.04 -5.1, 4.72 -1.08, 0 0 M0 0 C6 3.1, 29.7 19.95, 36 18.59 C42.3 17.22, 39.1 -4.01, 37.83 -8.18 C36.55 -12.36, 34.65 -7.83, 28.34 -6.46 C22.04 -5.1, 4.72 -1.08, 0 0" stroke="#E1E1E1" stroke-width="2" fill="none"></path></g></g><mask></mask><g stroke-linecap="round"><g transform="translate(402.9747043839943 51.29924334398174) rotate(0 0 5.565307051547393)"><path d="M0 0 C0 1.86, 0 9.28, 0 11.13 M0 0 C0 1.86, 0 9.28, 0 11.13" stroke="#E1E1E1" stroke-width="2" fill="none"></path></g></g><mask></mask><g stroke-linecap="round"><g transform="translate(523.0386274863622 62.75509383358394) rotate(0 -4.347794634929869 4.918544910065293)"><path d="M0 0 C-1.45 1.64, -7.25 8.2, -8.7 9.84 M0 0 C-1.45 1.64, -7.25 8.2, -8.7 9.84" stroke="#E1E1E1" stroke-width="2" fill="none"></path></g></g><mask></mask><g stroke-linecap="round"><g transform="translate(627.5648184795755 93.6439703005376) rotate(0 -8.369259321918435 4.659057736446471)"><path d="M0 0 C-2.79 1.55, -13.95 7.77, -16.74 9.32 M0 0 C-2.79 1.55, -13.95 7.77, -16.74 9.32" stroke="#E1E1E1" stroke-width="2" fill="none"></path></g></g><mask></mask><g stroke-linecap="round"><g transform="translate(701.628014430994 138.9084969393839) rotate(0 -5.740281554338139 10.417013860629481)"><path d="M0 0 C-11.72 6.96, -23.45 13.92, -29.51 17.52 M0 0 C-9.01 5.35, -18.01 10.69, -29.51 17.52 M-29.51 17.52 C-18.94 18.26, -8.36 19, 18.03 20.83 M-29.51 17.52 C-11.06 18.81, 7.38 20.09, 18.03 20.83 M18.03 20.83 C14.32 16.55, 10.62 12.26, 0 0 M18.03 20.83 C11.34 13.1, 4.65 5.37, 0 0" stroke="#E1E1E1" stroke-width="2" fill="none"></path></g></g><mask></mask><g stroke-linecap="round"><g transform="translate(732.9891131572094 217.5354705822997) rotate(0 -11.302303248243902 0.0032806843022399335)"><path d="M0 0 C-6.82 0, -13.64 0, -22.6 0.01 M0 0 C-8.1 0, -16.2 0, -22.6 0.01" stroke="#E1E1E1" stroke-width="2" fill="none"></path></g></g><mask></mask><g stroke-linecap="round"><g transform="translate(712.4408134106488 280.2550135779161) rotate(0 -9.636575517180745 -1.7659802091986876)"><path d="M0 0 C-4.32 -0.79, -8.64 -1.58, -19.27 -3.53 M0 0 C-5.83 -1.07, -11.65 -2.14, -19.27 -3.53" stroke="#E1E1E1" stroke-width="2" fill="none"></path></g></g><mask></mask><g stroke-linecap="round"><g transform="translate(646.0804772672482 334.7530869387542) rotate(0 -7.351592920707844 -3.546382343976461)"><path d="M0 0 C-4.79 -2.31, -9.58 -4.62, -14.7 -7.09 M0 0 C-4.31 -2.08, -8.62 -4.16, -14.7 -7.09" stroke="#E1E1E1" stroke-width="2" fill="none"></path></g></g><mask></mask><g stroke-linecap="round"><g transform="translate(557.4373594760609 372.3795262545241) rotate(0 -18.731211897008507 -2.397675504255858)"><path d="M0 0 C-9.67 -4.52, -19.34 -9.05, -34.9 -16.32 M0 0 C-10.95 -5.12, -21.91 -10.25, -34.9 -16.32 M-34.9 -16.32 C-35.84 -6.08, -36.78 4.16, -37.46 11.53 M-34.9 -16.32 C-35.43 -10.56, -35.96 -4.8, -37.46 11.53 M-37.46 11.53 C-25.78 7.93, -14.09 4.34, 0 0 M-37.46 11.53 C-22.94 7.06, -8.43 2.59, 0 0" stroke="#E1E1E1" stroke-width="2" fill="none"></path></g></g><mask></mask><g stroke-linecap="round"><g transform="translate(411.43797260252904 391.4650333628142) rotate(0 -0.8322095980067843 -6.374575226136244)"><path d="M0 0 C-0.63 -4.83, -1.26 -9.67, -1.66 -12.75 M0 0 C-0.5 -3.87, -1.01 -7.73, -1.66 -12.75" stroke="#E1E1E1" stroke-width="2" fill="none"></path></g></g><mask></mask><g stroke-linecap="round"><g transform="translate(289.0541290178726 380.0672070559699) rotate(0 4.337961928702271 -5.815625133142021)"><path d="M0 0 C3.34 -4.48, 6.68 -8.96, 8.68 -11.63 M0 0 C3.33 -4.46, 6.65 -8.92, 8.68 -11.63" stroke="#E1E1E1" stroke-width="2" fill="none"></path></g></g><mask></mask><g stroke-linecap="round"><g transform="translate(188.1460000493007 347.1609901435231) rotate(0 7.849621360477386 -5.58103283883645)"><path d="M0 0 C3.49 -2.48, 6.99 -4.97, 15.7 -11.16 M0 0 C6.09 -4.33, 12.18 -8.66, 15.7 -11.16" stroke="#E1E1E1" stroke-width="2" fill="none"></path></g></g><mask></mask><g stroke-linecap="round"><g transform="translate(113.99045891011883 300.06420599523017) rotate(0 5.581032838836336 -10.390796426248471)"><path d="M0 0 C-3.88 -4.48, -7.75 -8.95, -18 -20.78 M0 0 C-5.23 -6.04, -10.46 -12.07, -18 -20.78 M-18 -20.78 C-7.23 -20.76, 3.54 -20.74, 29.16 -20.7 M-18 -20.78 C-5.69 -20.76, 6.62 -20.74, 29.16 -20.7 M29.16 -20.7 C18.81 -13.36, 8.47 -6.01, 0 0 M29.16 -20.7 C19.91 -14.14, 10.67 -7.57, 0 0" stroke="#E1E1E1" stroke-width="2" fill="none"></path></g></g><mask></mask><g stroke-linecap="round"><g transform="translate(79.51317743074651 222.1449535337365) rotate(0 11.198106471602614 -0.1408824914167326)"><path d="M0 0 C4.61 -0.06, 9.22 -0.12, 22.4 -0.28 M0 0 C7.44 -0.09, 14.88 -0.19, 22.4 -0.28" stroke="#E1E1E1" stroke-width="2" fill="none"></path></g></g><mask></mask><g stroke-linecap="round"><g transform="translate(373.00839186020676 247.23345864755038) rotate(0 -100.64025315061758 4.880415133395104)"><path d="M0 0 C-75.53 10.42, -151.07 20.83, -201.28 27.76 M0 0 C-50.44 6.96, -100.88 13.91, -201.28 27.76 M-201.28 27.76 C-133.6 11.74, -65.92 -4.28, -7.94 -18 M-201.28 27.76 C-140.99 13.49, -80.69 -0.78, -7.94 -18" stroke="#E1E1E1" stroke-width="2" fill="none"></path></g></g><mask></mask><g stroke-linecap="round"><g transform="translate(171.9367651395578 275.6573074419225) rotate(0 89.60122715429611 -28.310127751908908)"><path d="M0 0 C65.89 -20.82, 131.78 -41.64, 179.2 -56.62 M0 0 C37.09 -11.72, 74.17 -23.43, 179.2 -56.62" stroke="#E1E1E1" stroke-width="2" fill="none"></path></g></g><mask></mask><g stroke-linecap="round"><g transform="translate(366.23821844862596 219.33717379834434) rotate(0 -57.23622033824677 -15.593737409264122)"><path d="M0 0 C-3.86 -0.1, -4.04 4.61, -23.19 -0.59 C-42.33 -5.79, -118.81 -30, -114.87 -31.19 C-110.94 -32.38, -18.81 -11.63, 0.4 -7.72 M0 0 C-3.86 -0.1, -4.04 4.61, -23.19 -0.59 C-42.33 -5.79, -118.81 -30, -114.87 -31.19 C-110.94 -32.38, -18.81 -11.63, 0.4 -7.72" stroke="#E1E1E1" stroke-width="2" fill="none"></path></g></g><mask></mask><g stroke-linecap="round"><g transform="translate(378.3971661225187 213.98281339730556) rotate(0 30.58289373223397 5.310290303416878)"><path d="M0 0 C0 1.87, -2.45 7.98, 0 11.24 C2.45 14.49, 8.29 17.76, 14.72 19.55 C21.14 21.33, 32.14 22.66, 38.57 21.95 C45 21.25, 49.53 17.76, 53.29 15.31 C57.06 12.86, 60.59 10.38, 61.17 7.24 C61.74 4.1, 59.85 -0.56, 56.74 -3.53 C53.62 -6.49, 48.17 -9.24, 42.48 -10.55 C36.78 -11.85, 28.41 -11.76, 22.59 -11.33 C16.78 -10.91, 11.34 -9.9, 7.58 -8.01 C3.81 -6.12, 1.26 -1.33, 0 0 M0 0 C0 1.87, -2.45 7.98, 0 11.24 C2.45 14.49, 8.29 17.76, 14.72 19.55 C21.14 21.33, 32.14 22.66, 38.57 21.95 C45 21.25, 49.53 17.76, 53.29 15.31 C57.06 12.86, 60.59 10.38, 61.17 7.24 C61.74 4.1, 59.85 -0.56, 56.74 -3.53 C53.62 -6.49, 48.17 -9.24, 42.48 -10.55 C36.78 -11.85, 28.41 -11.76, 22.59 -11.33 C16.78 -10.91, 11.34 -9.9, 7.58 -8.01 C3.81 -6.12, 1.26 -1.33, 0 0" stroke="#E1E1E1" stroke-width="2" fill="none"></path></g></g><mask></mask><g stroke-linecap="round"><g transform="translate(399.37512948653875 210.24973993347749) rotate(0 7.529438788603784 9.60392732762773)"><path d="M0 0 C-2.06 0.88, -10.11 3.03, -12.37 5.3 C-14.62 7.57, -15.11 11.31, -13.53 13.61 C-11.95 15.9, -8.3 18.07, -2.89 19.08 C2.52 20.08, 13.67 20.72, 18.92 19.65 C24.17 18.58, 27.17 15.27, 28.59 12.67 C30.01 10.07, 29.91 6.22, 27.43 4.03 C24.96 1.85, 18.31 0.23, 13.74 -0.44 C9.17 -1.11, 2.29 -0.07, 0 0 M0 0 C-2.06 0.88, -10.11 3.03, -12.37 5.3 C-14.62 7.57, -15.11 11.31, -13.53 13.61 C-11.95 15.9, -8.3 18.07, -2.89 19.08 C2.52 20.08, 13.67 20.72, 18.92 19.65 C24.17 18.58, 27.17 15.27, 28.59 12.67 C30.01 10.07, 29.91 6.22, 27.43 4.03 C24.96 1.85, 18.31 0.23, 13.74 -0.44 C9.17 -1.11, 2.29 -0.07, 0 0" stroke="#E1E1E1" stroke-width="2" fill="none"></path></g></g><mask></mask><g stroke-linecap="round"><g transform="translate(369.5692053210196 210.11930166990305) rotate(0 37.949582021257356 9.051395256504861)"><path d="M0 0 C-0.49 1.58, -3.59 5.7, -2.94 9.46 C-2.29 13.21, -1.81 18.93, 3.91 22.52 C9.62 26.12, 22.06 29.99, 31.34 31.03 C40.62 32.07, 51.66 31.24, 59.58 28.77 C67.5 26.3, 76.26 21.07, 78.84 16.19 C81.42 11.31, 78.72 3.91, 75.05 -0.53 C71.38 -4.96, 64.14 -8.37, 56.82 -10.44 C49.51 -12.5, 39.17 -13.5, 31.14 -12.93 C23.11 -12.37, 13.85 -9.2, 8.66 -7.04 C3.47 -4.89, 1.44 -1.17, 0 0 M0 0 C-0.49 1.58, -3.59 5.7, -2.94 9.46 C-2.29 13.21, -1.81 18.93, 3.91 22.52 C9.62 26.12, 22.06 29.99, 31.34 31.03 C40.62 32.07, 51.66 31.24, 59.58 28.77 C67.5 26.3, 76.26 21.07, 78.84 16.19 C81.42 11.31, 78.72 3.91, 75.05 -0.53 C71.38 -4.96, 64.14 -8.37, 56.82 -10.44 C49.51 -12.5, 39.17 -13.5, 31.14 -12.93 C23.11 -12.37, 13.85 -9.2, 8.66 -7.04 C3.47 -4.89, 1.44 -1.17, 0 0" stroke="#E1E1E1" stroke-width="2" fill="none"></path></g></g><mask></mask><g stroke-linecap="round"><g transform="translate(251.69737810183506 187.41612282789583) rotate(0 58.87116017521976 8.438573281614708)"><path d="M0 0 C33.58 4.81, 67.15 9.63, 117.74 16.88 M0 0 C28.52 4.09, 57.05 8.18, 117.74 16.88" stroke="#E1E1E1" stroke-width="2" fill="none"></path></g></g><mask></mask><g stroke-linecap="round"><g transform="translate(356.42799805186223 201.27024835780458) rotate(0 -10.64367919860365 -52.52223925690953)"><path d="M0 0 C-18.58 -36.77, -37.16 -73.54, -53.07 -105.04 M0 0 C-16.55 -32.76, -33.1 -65.52, -53.07 -105.04 M-53.07 -105.04 C-28.26 -75.23, -3.46 -45.42, 31.78 -3.06 M-53.07 -105.04 C-27.66 -74.51, -2.26 -43.97, 31.78 -3.06" stroke="#E1E1E1" stroke-width="2" fill="none"></path></g></g><mask></mask><g stroke-linecap="round"><g transform="translate(303.4541003661452 96.06668044254229) rotate(0 54.92673173086587 45.01892609327149)"><path d="M0 0 C34.27 28.09, 68.53 56.17, 109.85 90.04 M0 0 C42.57 34.89, 85.14 69.78, 109.85 90.04" stroke="#E1E1E1" stroke-width="2" fill="none"></path></g></g><mask></mask><g stroke-linecap="round"><g transform="translate(411.5033230809004 185.3822287742828) rotate(0 0.03917589944126121 5.311293344002479)"><path d="M0 0 C0.02 3.15, 0.05 6.3, 0.08 10.62 M0 0 C0.02 2.51, 0.04 5.02, 0.08 10.62" stroke="#E1E1E1" stroke-width="2" fill="none"></path></g></g><mask></mask><g stroke-linecap="round"><g transform="translate(411.86364391752977 186.33644994161432) rotate(0 28.3556994286364 -17.59548124314324)"><path d="M0 0 C16.34 -13.68, 32.67 -27.35, 56.71 -47.48 M0 0 C17.13 -14.34, 34.27 -28.69, 56.71 -47.48 M56.71 -47.48 C41.34 -26.68, 25.97 -5.87, 12.54 12.29 M56.71 -47.48 C40.37 -25.37, 24.03 -3.26, 12.54 12.29" stroke="#E1E1E1" stroke-width="2" fill="none"></path></g></g><mask></mask><g stroke-linecap="round"><g transform="translate(468.78083804465587 139.26726590403405) rotate(0 -18.32430486175167 31.29665741290796)"><path d="M0 0 C-7.54 14.48, -15.09 28.96, -29.97 57.52 M0 0 C-7.03 13.5, -14.07 27, -29.97 57.52 M-29.97 57.52 C-31.95 59.02, -33.93 60.53, -36.65 62.59 M-29.97 57.52 C-32.07 59.12, -34.17 60.71, -36.65 62.59" stroke="#E1E1E1" stroke-width="2" fill="none"></path></g></g><mask></mask><g stroke-linecap="round"><g transform="translate(441.98002347342845 194.01753413760025) rotate(0 98.83812906788125 0.3301221504292471)"><path d="M0 0 C70.14 -10.08, 140.27 -20.15, 197.68 -28.4 M0 0 C62.68 -9, 125.35 -18.01, 197.68 -28.4 M197.68 -28.4 C148.61 -16.93, 99.54 -5.46, 10.04 15.45 M197.68 -28.4 C143.32 -15.69, 88.96 -2.99, 10.04 15.45 M10.04 15.45 C9.79 18.45, 9.53 21.46, 8.89 29.06 M10.04 15.45 C9.59 20.76, 9.15 26.07, 8.89 29.06" stroke="#E1E1E1" stroke-width="2" fill="none"></path></g></g><mask></mask><g stroke-linecap="round"><g transform="translate(451.39226974515987 220.69233815297957) rotate(0 53.50625431191952 14.804714257405635)"><path d="M0 0 C5.73 0.57, 11.46 1.14, 19.82 1.98 M0 0 C7.81 0.78, 15.61 1.56, 19.82 1.98 M19.82 1.98 C40.03 8.01, 60.25 14.04, 112.4 29.61 M19.82 1.98 C43.9 9.17, 67.99 16.36, 112.4 29.61 M112.4 29.61 C76.88 22.89, 41.37 16.18, -5.38 7.34 M112.4 29.61 C74.36 22.42, 36.32 15.23, -5.38 7.34" stroke="#E1E1E1" stroke-width="2" fill="none"></path></g></g><mask></mask><g stroke-linecap="round"><g transform="translate(562.4040731333816 250.26359380893564) rotate(0 -58.24441742991712 -10.653229577893399)"><path d="M0 0 C-32.6 -4, -65.2 -8, -111.51 -13.67 M0 0 C-33.39 -4.09, -66.78 -8.19, -111.51 -13.67 M-111.51 -13.67 C-112.71 -15.51, -113.91 -17.35, -116.49 -21.31 M-111.51 -13.67 C-113.38 -16.54, -115.25 -19.41, -116.49 -21.31" stroke="#E1E1E1" stroke-width="2" fill="none"></path></g></g><mask></mask><g stroke-linecap="round"><g transform="translate(472.3817537467621 222.26378750920185) rotate(0 83.79277820942752 -27.876009597750567)"><path d="M0 0 C45.37 -15.09, 90.73 -30.19, 167.59 -55.75 M0 0 C64.71 -21.53, 129.41 -43.05, 167.59 -55.75" stroke="#E1E1E1" stroke-width="2" fill="none"></path></g></g><mask></mask><g stroke-linecap="round"><g transform="translate(456.2789688447265 238.65461700910646) rotate(0 14.645983084743193 56.36231207520029)"><path d="M0 0 C13.4 24.8, 26.81 49.61, 60.91 112.72 M0 0 C21.45 39.7, 42.9 79.39, 60.91 112.72 M60.91 112.72 C32.82 79.22, 4.72 45.71, -31.62 2.37 M60.91 112.72 C38.33 85.79, 15.74 58.85, -31.62 2.37" stroke="#E1E1E1" stroke-width="2" fill="none"></path></g></g><mask></mask><g stroke-linecap="round"><g transform="translate(516.386634466352 350.7337988718605) rotate(0 -57.17817095833152 -54.036963085731486)"><path d="M0 0 C-39.8 -33, -79.61 -65.99, -114.36 -94.8 M0 0 C-42.3 -35.07, -84.61 -70.14, -114.36 -94.8 M-114.36 -94.8 C-113.6 -98.59, -112.84 -102.38, -111.7 -108.07 M-114.36 -94.8 C-113.34 -99.89, -112.32 -104.98, -111.7 -108.07" stroke="#E1E1E1" stroke-width="2" fill="none"></path></g></g><mask></mask><g stroke-linecap="round"><g transform="translate(401.9314500645596 255.1049841323379) rotate(0 -28.533524195302107 16.931446881785632)"><path d="M0 0 C-16.9 14.32, -33.81 28.63, -57.07 48.33 M0 0 C-17.93 15.18, -35.85 30.36, -57.07 48.33 M-57.07 48.33 C-41.16 25.82, -25.25 3.32, -12.68 -14.46 M-57.07 48.33 C-39.44 23.39, -21.81 -1.55, -12.68 -14.46" stroke="#E1E1E1" stroke-width="2" fill="none"></path></g></g><mask></mask><g stroke-linecap="round"><g transform="translate(345.035233814825 303.2886465645165) rotate(0 17.241364928992425 -33.52786387884794)"><path d="M0 0 C9.02 -17.54, 18.04 -35.07, 34.48 -67.06 M0 0 C9.99 -19.43, 19.98 -38.85, 34.48 -67.06" stroke="#E1E1E1" stroke-width="2" fill="none"></path></g></g><mask></mask><g stroke-linecap="round"><g transform="translate(236.79377451729852 266.1445415763833) rotate(0 117.67770971819891 27.70663936747019)"><path d="M0 0 C3.46 3.1, 10.63 12.53, 20.75 18.63 C30.86 24.72, 46.92 31.54, 60.68 36.6 C74.45 41.65, 86.03 45.81, 103.32 48.94 C120.61 52.08, 146.27 54.6, 164.43 55.41 C182.58 56.23, 200.43 54.85, 212.26 53.81 C224.08 52.78, 231.51 49.97, 235.36 49.21 M0 0 C3.46 3.1, 10.63 12.53, 20.75 18.63 C30.86 24.72, 46.92 31.54, 60.68 36.6 C74.45 41.65, 86.03 45.81, 103.32 48.94 C120.61 52.08, 146.27 54.6, 164.43 55.41 C182.58 56.23, 200.43 54.85, 212.26 53.81 C224.08 52.78, 231.51 49.97, 235.36 49.21" stroke="#E1E1E1" stroke-width="2" fill="none"></path></g></g><mask></mask><g stroke-linecap="round"><g transform="translate(496.5540654941151 309.6844069763906) rotate(0 51.83306397579304 -62.964396138256234)"><path d="M0 0 C6.39 -2.04, 27.5 -7.8, 38.32 -12.26 C49.14 -16.73, 56.7 -20.67, 64.9 -26.81 C73.09 -32.96, 81.02 -40.3, 87.48 -49.14 C93.94 -57.97, 101.38 -69.65, 103.67 -79.8 C105.96 -89.95, 103 -102.37, 101.22 -110.06 C99.44 -117.75, 94.36 -123.28, 92.99 -125.93 M0 0 C6.39 -2.04, 27.5 -7.8, 38.32 -12.26 C49.14 -16.73, 56.7 -20.67, 64.9 -26.81 C73.09 -32.96, 81.02 -40.3, 87.48 -49.14 C93.94 -57.97, 101.38 -69.65, 103.67 -79.8 C105.96 -89.95, 103 -102.37, 101.22 -110.06 C99.44 -117.75, 94.36 -123.28, 92.99 -125.93" stroke="#E1E1E1" stroke-width="2" fill="none"></path></g></g><mask></mask><g stroke-linecap="round"><g transform="translate(578.1205019521421 173.5366768762251) rotate(0 -120.26489762694519 -27.86604586571991)"><path d="M0 0 C-2.68 -2.39, -8.38 -8.98, -16.06 -14.36 C-23.74 -19.75, -34.1 -27.04, -46.07 -32.32 C-58.04 -37.59, -73.18 -42.37, -87.88 -46 C-102.58 -49.64, -118.1 -52.51, -134.28 -54.13 C-150.46 -55.76, -169.65 -56.01, -184.96 -55.73 C-200.26 -55.45, -216.86 -53.34, -226.13 -52.44 C-235.39 -51.54, -238.13 -50.67, -240.53 -50.31 M0 0 C-2.68 -2.39, -8.38 -8.98, -16.06 -14.36 C-23.74 -19.75, -34.1 -27.04, -46.07 -32.32 C-58.04 -37.59, -73.18 -42.37, -87.88 -46 C-102.58 -49.64, -118.1 -52.51, -134.28 -54.13 C-150.46 -55.76, -169.65 -56.01, -184.96 -55.73 C-200.26 -55.45, -216.86 -53.34, -226.13 -52.44 C-235.39 -51.54, -238.13 -50.67, -240.53 -50.31" stroke="#E1E1E1" stroke-width="2" fill="none"></path></g></g><mask></mask><g stroke-linecap="round"><g transform="translate(318.750494066001 128.6667546007725) rotate(0 -51.647814660172344 64.46548374421468)"><path d="M0 0 C-6.3 2.21, -25.69 7.26, -37.81 13.27 C-49.93 19.27, -62.99 27.68, -72.72 36.04 C-82.46 44.39, -91.13 54.48, -96.22 63.41 C-101.32 72.33, -102.65 81.48, -103.3 89.6 C-103.95 97.72, -102.18 105.58, -100.13 112.14 C-98.07 118.69, -92.49 126.13, -90.96 128.93 M0 0 C-6.3 2.21, -25.69 7.26, -37.81 13.27 C-49.93 19.27, -62.99 27.68, -72.72 36.04 C-82.46 44.39, -91.13 54.48, -96.22 63.41 C-101.32 72.33, -102.65 81.48, -103.3 89.6 C-103.95 97.72, -102.18 105.58, -100.13 112.14 C-98.07 118.69, -92.49 126.13, -90.96 128.93" stroke="#E1E1E1" stroke-width="2" fill="none"></path></g></g><mask></mask></svg>