<svg version="1.1" xmlns="http://www.w3.org/2000/svg" viewBox="0 0 247.90116171885424 251.87303797197333" width="247.90116171885424" height="251.87303797197333" class="excalidraw-svg"><!-- svg-source:excalidraw --><metadata></metadata><defs><style class="style-fonts">
      </style></defs><rect x="0" y="0" width="247.90116171885424" height="251.87303797197333" fill="#000000"></rect><g stroke-linecap="round"><g transform="translate(122.9330724878738 11.337144343824605) rotate(0 0.49519251922296803 115.01297345304437)"><path d="M0 0 C3.39 -0.02, 13.08 -0.11, 20.36 -0.14 C27.65 -0.17, 39.14 -2.79, 43.7 -0.18 C48.26 2.43, 45.56 9.33, 47.75 15.52 C49.95 21.71, 52.59 30.83, 56.88 36.98 C61.17 43.12, 67.93 48.27, 73.49 52.4 C79.06 56.53, 83.96 59.51, 90.27 61.75 C96.58 63.99, 107.46 61.8, 111.35 65.84 C115.24 69.87, 113.21 78.37, 113.62 85.95 C114.03 93.53, 116.33 106.76, 113.79 111.32 C111.25 115.88, 104.63 113.94, 98.37 113.29 C92.1 112.64, 82.35 109.37, 76.22 107.42 C70.08 105.47, 66.4 103.89, 61.54 101.61 C56.67 99.33, 49.63 92.59, 47.02 93.72 C44.42 94.85, 46.04 100.39, 45.9 108.39 C45.76 116.38, 46.17 132.56, 46.19 141.7 C46.21 150.84, 47.11 156.11, 46.02 163.23 C44.93 170.36, 43.12 177.41, 39.63 184.46 C36.14 191.52, 31.41 199.18, 25.1 205.57 C18.79 211.97, 10.49 218.71, 1.76 222.81 C-6.98 226.92, -18.19 229.36, -27.3 230.21 C-36.41 231.05, -44.35 230.26, -52.9 227.9 C-61.45 225.54, -71.91 220.05, -78.6 216.03 C-85.29 212.01, -88.04 210.63, -93.07 203.79 C-98.09 196.95, -105.48 184.49, -108.77 175 C-112.06 165.5, -113.38 156.51, -112.8 146.82 C-112.22 137.13, -109.22 125.66, -105.29 116.86 C-101.36 108.05, -95.12 100.15, -89.24 94 C-83.36 87.85, -76.69 83.45, -70.01 79.95 C-63.34 76.46, -53 71.46, -49.17 73.02 C-45.33 74.58, -47.37 84.18, -47 89.3 C-46.64 94.42, -46.99 98.67, -46.96 103.74 C-46.93 108.81, -45 115.45, -46.85 119.75 C-48.7 124.05, -54.95 125.68, -58.06 129.53 C-61.17 133.38, -64.37 137.89, -65.51 142.86 C-66.65 147.83, -66.64 154.17, -64.88 159.35 C-63.12 164.53, -59.12 170.09, -54.97 173.94 C-50.81 177.79, -45.27 181.01, -39.97 182.45 C-34.67 183.89, -28.24 184.07, -23.17 182.58 C-18.1 181.08, -13.1 177.06, -9.54 173.48 C-5.98 169.9, -3.34 165.72, -1.79 161.1 C-0.24 156.47, -0.49 153.91, -0.22 145.74 C0.04 137.57, -0.2 127.32, -0.22 112.09 C-0.24 96.87, -0.38 73.09, -0.34 54.4 C-0.3 35.72, -0.06 9.07, 0 0 M0 0 C3.39 -0.02, 13.08 -0.11, 20.36 -0.14 C27.65 -0.17, 39.14 -2.79, 43.7 -0.18 C48.26 2.43, 45.56 9.33, 47.75 15.52 C49.95 21.71, 52.59 30.83, 56.88 36.98 C61.17 43.12, 67.93 48.27, 73.49 52.4 C79.06 56.53, 83.96 59.51, 90.27 61.75 C96.58 63.99, 107.46 61.8, 111.35 65.84 C115.24 69.87, 113.21 78.37, 113.62 85.95 C114.03 93.53, 116.33 106.76, 113.79 111.32 C111.25 115.88, 104.63 113.94, 98.37 113.29 C92.1 112.64, 82.35 109.37, 76.22 107.42 C70.08 105.47, 66.4 103.89, 61.54 101.61 C56.67 99.33, 49.63 92.59, 47.02 93.72 C44.42 94.85, 46.04 100.39, 45.9 108.39 C45.76 116.38, 46.17 132.56, 46.19 141.7 C46.21 150.84, 47.11 156.11, 46.02 163.23 C44.93 170.36, 43.12 177.41, 39.63 184.46 C36.14 191.52, 31.41 199.18, 25.1 205.57 C18.79 211.97, 10.49 218.71, 1.76 222.81 C-6.98 226.92, -18.19 229.36, -27.3 230.21 C-36.41 231.05, -44.35 230.26, -52.9 227.9 C-61.45 225.54, -71.91 220.05, -78.6 216.03 C-85.29 212.01, -88.04 210.63, -93.07 203.79 C-98.09 196.95, -105.48 184.49, -108.77 175 C-112.06 165.5, -113.38 156.51, -112.8 146.82 C-112.22 137.13, -109.22 125.66, -105.29 116.86 C-101.36 108.05, -95.12 100.15, -89.24 94 C-83.36 87.85, -76.69 83.45, -70.01 79.95 C-63.34 76.46, -53 71.46, -49.17 73.02 C-45.33 74.58, -47.37 84.18, -47 89.3 C-46.64 94.42, -46.99 98.67, -46.96 103.74 C-46.93 108.81, -45 115.45, -46.85 119.75 C-48.7 124.05, -54.95 125.68, -58.06 129.53 C-61.17 133.38, -64.37 137.89, -65.51 142.86 C-66.65 147.83, -66.64 154.17, -64.88 159.35 C-63.12 164.53, -59.12 170.09, -54.97 173.94 C-50.81 177.79, -45.27 181.01, -39.97 182.45 C-34.67 183.89, -28.24 184.07, -23.17 182.58 C-18.1 181.08, -13.1 177.06, -9.54 173.48 C-5.98 169.9, -3.34 165.72, -1.79 161.1 C-0.24 156.47, -0.49 153.91, -0.22 145.74 C0.04 137.57, -0.2 127.32, -0.22 112.09 C-0.24 96.87, -0.38 73.09, -0.34 54.4 C-0.3 35.72, -0.06 9.07, 0 0" stroke="#E1E1E1" stroke-width="4" fill="none"></path></g></g><mask></mask></svg>