<svg version="1.1" xmlns="http://www.w3.org/2000/svg" viewBox="0 0 1606.082716606227 1593.5435286206773" width="1606.082716606227" height="1593.5435286206773" class="excalidraw-svg"><!-- svg-source:excalidraw --><metadata></metadata><defs><style class="style-fonts">
      </style></defs><rect x="0" y="0" width="1606.082716606227" height="1593.5435286206773" fill="#000000"></rect><g stroke-linecap="round"><g transform="translate(10.243306132907037 1579.7225436369083) rotate(0 29.086469129893203 -67.97649744257683)"><path d="M0 0 C9.7 -22.66, 48.48 -113.29, 58.17 -135.95 M0 0 C9.7 -22.66, 48.48 -113.29, 58.17 -135.95" stroke="#E1E1E1" stroke-width="8" fill="none"></path></g></g><mask></mask><g stroke-linecap="round"><g transform="translate(10 1580.2511052359807) rotate(0 785.9830833440737 1.6462116923482881)"><path d="M0 0 C261.99 0.55, 1309.97 2.74, 1571.97 3.29 M0 0 C261.99 0.55, 1309.97 2.74, 1571.97 3.29" stroke="#E1E1E1" stroke-width="8" fill="none"></path></g></g><mask></mask><g stroke-linecap="round"><g transform="translate(1583.1862930098152 1583.5435286206773) rotate(0 -6.8599145403388775 -11.038068133004344)"><path d="M0 0 C-2.29 -3.68, -11.43 -18.4, -13.72 -22.08 M0 0 C-2.29 -3.68, -11.43 -18.4, -13.72 -22.08" stroke="#E1E1E1" stroke-width="8" fill="none"></path></g></g><mask></mask><g stroke-linecap="round"><g transform="translate(1592.042396537126 1557.93765559896) rotate(0 -759.9499263992959 -31.3163758307403)"><path d="M0 0 C-18.08 0, -23.95 0, -108.49 0 C-193.03 0, -372.56 0, -507.23 0 C-641.91 0, -826.97 0, -916.56 0 C-1006.14 0, -1015.75 1.24, -1044.72 0 C-1073.69 -1.24, -1077.35 -2.89, -1090.37 -7.46 C-1103.38 -12.03, -1112.57 -20.44, -1122.81 -27.44 C-1133.06 -34.44, -1140.3 -43.79, -1151.84 -49.47 C-1163.39 -55.14, -1172.17 -59.29, -1192.1 -61.48 C-1212.03 -63.67, -1244.27 -64.3, -1271.43 -62.63 C-1298.58 -60.96, -1326.43 -55.54, -1355.04 -51.46 C-1383.66 -47.38, -1415.64 -43.08, -1443.11 -38.16 C-1470.59 -33.24, -1507.1 -24.64, -1519.9 -21.94 M0 0 C-18.08 0, -23.95 0, -108.49 0 C-193.03 0, -372.56 0, -507.23 0 C-641.91 0, -826.97 0, -916.56 0 C-1006.14 0, -1015.75 1.24, -1044.72 0 C-1073.69 -1.24, -1077.35 -2.89, -1090.37 -7.46 C-1103.38 -12.03, -1112.57 -20.44, -1122.81 -27.44 C-1133.06 -34.44, -1140.3 -43.79, -1151.84 -49.47 C-1163.39 -55.14, -1172.17 -59.29, -1192.1 -61.48 C-1212.03 -63.67, -1244.27 -64.3, -1271.43 -62.63 C-1298.58 -60.96, -1326.43 -55.54, -1355.04 -51.46 C-1383.66 -47.38, -1415.64 -43.08, -1443.11 -38.16 C-1470.59 -33.24, -1507.1 -24.64, -1519.9 -21.94" stroke="#E1E1E1" stroke-width="8" fill="none"></path></g></g><mask></mask><g stroke-linecap="round"><g transform="translate(72.6303545567257 1534.5479059257334) rotate(0 115.58000154948809 -338.6168159008208)"><path d="M0 0 C3.23 -4.3, 14.67 -17.15, 19.36 -25.8 C24.05 -34.45, 28.01 -44.33, 28.15 -51.9 C28.28 -59.48, 26.15 -63.85, 20.17 -71.27 C14.19 -78.68, -1.55 -88.55, -7.74 -96.38 C-13.94 -104.21, -16.56 -110.17, -16.99 -118.22 C-17.42 -126.28, -16.41 -130.06, -10.33 -144.71 C-4.24 -159.35, 2.7 -171.69, 19.52 -206.09 C36.33 -240.49, 64.06 -296.41, 90.57 -351.11 C117.08 -405.81, 152.3 -479.92, 178.56 -534.27 C204.82 -588.63, 236.55 -653.41, 248.15 -677.23 M0 0 C3.23 -4.3, 14.67 -17.15, 19.36 -25.8 C24.05 -34.45, 28.01 -44.33, 28.15 -51.9 C28.28 -59.48, 26.15 -63.85, 20.17 -71.27 C14.19 -78.68, -1.55 -88.55, -7.74 -96.38 C-13.94 -104.21, -16.56 -110.17, -16.99 -118.22 C-17.42 -126.28, -16.41 -130.06, -10.33 -144.71 C-4.24 -159.35, 2.7 -171.69, 19.52 -206.09 C36.33 -240.49, 64.06 -296.41, 90.57 -351.11 C117.08 -405.81, 152.3 -479.92, 178.56 -534.27 C204.82 -588.63, 236.55 -653.41, 248.15 -677.23" stroke="#E1E1E1" stroke-width="8" fill="none"></path></g></g><mask></mask><g stroke-linecap="round"><g transform="translate(321.4749980056099 856.924744600966) rotate(0 137.97195636732408 0)"><path d="M0 0 C45.99 0, 229.95 0, 275.94 0 M0 0 C45.99 0, 229.95 0, 275.94 0" stroke="#E1E1E1" stroke-width="8" fill="none"></path></g></g><mask></mask><g stroke-linecap="round"><g transform="translate(567.5557796688709 859.4381089394114) rotate(0 -45.30348209190129 207.03254443656954)"><path d="M0 0 C-15.1 69.01, -75.51 345.05, -90.61 414.07 M0 0 C-15.1 69.01, -75.51 345.05, -90.61 414.07" stroke="#E1E1E1" stroke-width="8" fill="none"></path></g></g><mask></mask><g stroke-linecap="round"><g transform="translate(285.5759571543431 1321.5040220330495) rotate(0 82.15657063673257 -231.8533656501411)"><path d="M0 0 C27.39 -77.28, 136.93 -386.42, 164.31 -463.71 M0 0 C27.39 -77.28, 136.93 -386.42, 164.31 -463.71" stroke="#E1E1E1" stroke-width="8" fill="none"></path></g></g><mask></mask><g stroke-linecap="round"><g transform="translate(274.9867468872176 954.7230230578591) rotate(0 172.8486320394336 0)"><path d="M0 0 C57.62 0, 288.08 0, 345.7 0 M0 0 C57.62 0, 288.08 0, 345.7 0" stroke="#E1E1E1" stroke-width="8" fill="none"></path></g></g><mask></mask><g stroke-linecap="round"><g transform="translate(225.19168975558068 1060.5839633672656) rotate(0 198.35049496693273 -1.232943750480672)"><path d="M0 0 C66.12 -0.41, 330.58 -2.05, 396.7 -2.47 M0 0 C66.12 -0.41, 330.58 -2.05, 396.7 -2.47" stroke="#E1E1E1" stroke-width="8" fill="none"></path></g></g><mask></mask><g stroke-linecap="round"><g transform="translate(169.78740749093504 1171.4416685440913) rotate(0 618.2007322100326 -93.16886989359114)"><path d="M0 0 C77 -0.21, 363.92 1.07, 461.98 -1.27 C560.04 -3.61, 552.89 -7.15, 588.37 -14.06 C623.85 -20.98, 647.21 -32.6, 674.88 -42.74 C702.54 -52.87, 714.68 -54.98, 754.36 -74.87 C794.04 -94.76, 876.76 -143.5, 912.94 -162.07 C949.13 -180.65, 957.71 -183.06, 971.47 -186.34 C985.22 -189.62, 989.26 -186.4, 995.47 -181.76 C1001.68 -177.13, 1006.38 -170.04, 1008.72 -158.51 C1011.07 -146.98, 1010.77 -129.83, 1009.53 -112.6 C1008.28 -95.37, 1002.57 -69.54, 1001.23 -55.15 C999.89 -40.76, 999.32 -33.79, 1001.46 -26.26 C1003.61 -18.73, 1003.09 -13.35, 1014.11 -9.99 C1025.12 -6.62, 1030.51 -6.18, 1067.56 -6.07 C1104.61 -5.96, 1208.26 -8.77, 1236.4 -9.31 M0 0 C77 -0.21, 363.92 1.07, 461.98 -1.27 C560.04 -3.61, 552.89 -7.15, 588.37 -14.06 C623.85 -20.98, 647.21 -32.6, 674.88 -42.74 C702.54 -52.87, 714.68 -54.98, 754.36 -74.87 C794.04 -94.76, 876.76 -143.5, 912.94 -162.07 C949.13 -180.65, 957.71 -183.06, 971.47 -186.34 C985.22 -189.62, 989.26 -186.4, 995.47 -181.76 C1001.68 -177.13, 1006.38 -170.04, 1008.72 -158.51 C1011.07 -146.98, 1010.77 -129.83, 1009.53 -112.6 C1008.28 -95.37, 1002.57 -69.54, 1001.23 -55.15 C999.89 -40.76, 999.32 -33.79, 1001.46 -26.26 C1003.61 -18.73, 1003.09 -13.35, 1014.11 -9.99 C1025.12 -6.62, 1030.51 -6.18, 1067.56 -6.07 C1104.61 -5.96, 1208.26 -8.77, 1236.4 -9.31" stroke="#E1E1E1" stroke-width="8" fill="none"></path></g></g><mask></mask><g stroke-linecap="round"><g transform="translate(1348.4953546027537 1036.542201199945) rotate(0 123.79368100173667 260.3765151619755)"><path d="M0 0 C14.45 30.37, 55.83 117.13, 86.72 182.22 C117.6 247.3, 158.52 334.08, 185.33 390.51 C212.15 446.93, 237.21 499.05, 247.59 520.75 M0 0 C14.45 30.37, 55.83 117.13, 86.72 182.22 C117.6 247.3, 158.52 334.08, 185.33 390.51 C212.15 446.93, 237.21 499.05, 247.59 520.75" stroke="#E1E1E1" stroke-width="8" fill="none"></path></g></g><mask></mask><g stroke-linecap="round"><g transform="translate(1522.913490982289 1409.0366993651044) rotate(0 -305.5984956921153 -2.1825638818829702)"><path d="M0 0 C-101.87 -0.73, -509.33 -3.64, -611.2 -4.37 M0 0 C-101.87 -0.73, -509.33 -3.64, -611.2 -4.37" stroke="#E1E1E1" stroke-width="8" fill="none"></path></g></g><mask></mask><g stroke-linecap="round"><g transform="translate(974.9149679823577 1553.6744047873951) rotate(0 42.621721144228104 -345.90041870708296)"><path d="M0 0 C-2.93 -29.3, -15.43 -138.75, -17.58 -175.78 C-19.73 -212.81, -18.75 -204.45, -12.89 -222.18 C-7.03 -239.9, 5.5 -261.33, 17.56 -282.13 C29.61 -302.94, 42.56 -319.17, 59.43 -347.01 C76.3 -374.85, 103.06 -420.2, 118.78 -449.19 C134.49 -478.18, 146.92 -501.64, 153.7 -520.93 C160.47 -540.23, 159.9 -554.71, 159.43 -564.95 C158.96 -575.18, 155.8 -578.33, 150.86 -582.34 C145.91 -586.34, 139.53 -590.14, 129.76 -588.99 C120 -587.83, 107.6 -582.6, 92.28 -575.39 C76.96 -568.17, 52.92 -553.52, 37.82 -545.7 C22.71 -537.87, 13.16 -532.15, 1.64 -528.43 C-9.89 -524.7, -21.93 -522.29, -31.34 -523.34 C-40.74 -524.39, -49.64 -527.57, -54.78 -534.72 C-59.92 -541.87, -58.95 -540.08, -62.18 -566.26 C-65.42 -592.44, -72.19 -670.88, -74.19 -691.8 M0 0 C-2.93 -29.3, -15.43 -138.75, -17.58 -175.78 C-19.73 -212.81, -18.75 -204.45, -12.89 -222.18 C-7.03 -239.9, 5.5 -261.33, 17.56 -282.13 C29.61 -302.94, 42.56 -319.17, 59.43 -347.01 C76.3 -374.85, 103.06 -420.2, 118.78 -449.19 C134.49 -478.18, 146.92 -501.64, 153.7 -520.93 C160.47 -540.23, 159.9 -554.71, 159.43 -564.95 C158.96 -575.18, 155.8 -578.33, 150.86 -582.34 C145.91 -586.34, 139.53 -590.14, 129.76 -588.99 C120 -587.83, 107.6 -582.6, 92.28 -575.39 C76.96 -568.17, 52.92 -553.52, 37.82 -545.7 C22.71 -537.87, 13.16 -532.15, 1.64 -528.43 C-9.89 -524.7, -21.93 -522.29, -31.34 -523.34 C-40.74 -524.39, -49.64 -527.57, -54.78 -534.72 C-59.92 -541.87, -58.95 -540.08, -62.18 -566.26 C-65.42 -592.44, -72.19 -670.88, -74.19 -691.8" stroke="#E1E1E1" stroke-width="8" fill="none"></path></g></g><mask></mask><g stroke-linecap="round"><g transform="translate(743.0046710942206 857.4329308095969) rotate(0 316.8199423390836 214.8267305562215)"><path d="M0 0 C31.69 0, 141.02 0, 190.15 0 C239.28 0, 272.37 0.07, 294.81 0 C317.25 -0.07, 315.41 1.16, 324.81 -0.41 C334.2 -1.98, 339.31 -1.98, 351.18 -9.42 C363.06 -16.87, 377.1 -22.74, 396.05 -45.08 C414.99 -67.42, 446.29 -113.23, 464.84 -143.46 C483.39 -173.7, 497.27 -206.88, 507.35 -226.48 C517.42 -246.07, 519.13 -253.89, 525.3 -261.04 C531.47 -268.18, 539.1 -272.15, 544.37 -269.33 C549.63 -266.5, 553.13 -261.47, 556.91 -244.1 C560.68 -226.73, 565.95 -195.85, 567.02 -165.1 C568.08 -134.35, 566.25 -94.11, 563.29 -59.61 C560.32 -25.1, 556.92 4.56, 549.24 41.95 C541.55 79.34, 525.93 133.96, 517.17 164.73 C508.41 195.49, 501.75 208.54, 496.67 226.53 C491.58 244.52, 486.2 257.19, 486.67 272.69 C487.15 288.19, 490.71 292.55, 499.52 319.53 C508.33 346.51, 523.94 390.08, 539.52 434.58 C555.09 479.09, 577.27 542.5, 592.96 586.57 C608.64 630.64, 626.86 680.24, 633.64 698.98 M0 0 C31.69 0, 141.02 0, 190.15 0 C239.28 0, 272.37 0.07, 294.81 0 C317.25 -0.07, 315.41 1.16, 324.81 -0.41 C334.2 -1.98, 339.31 -1.98, 351.18 -9.42 C363.06 -16.87, 377.1 -22.74, 396.05 -45.08 C414.99 -67.42, 446.29 -113.23, 464.84 -143.46 C483.39 -173.7, 497.27 -206.88, 507.35 -226.48 C517.42 -246.07, 519.13 -253.89, 525.3 -261.04 C531.47 -268.18, 539.1 -272.15, 544.37 -269.33 C549.63 -266.5, 553.13 -261.47, 556.91 -244.1 C560.68 -226.73, 565.95 -195.85, 567.02 -165.1 C568.08 -134.35, 566.25 -94.11, 563.29 -59.61 C560.32 -25.1, 556.92 4.56, 549.24 41.95 C541.55 79.34, 525.93 133.96, 517.17 164.73 C508.41 195.49, 501.75 208.54, 496.67 226.53 C491.58 244.52, 486.2 257.19, 486.67 272.69 C487.15 288.19, 490.71 292.55, 499.52 319.53 C508.33 346.51, 523.94 390.08, 539.52 434.58 C555.09 479.09, 577.27 542.5, 592.96 586.57 C608.64 630.64, 626.86 680.24, 633.64 698.98" stroke="#E1E1E1" stroke-width="8" fill="none"></path></g></g><mask></mask><g stroke-linecap="round"><g transform="translate(1167.3569350350149 1556.7594786105512) rotate(0 -35.91402275600308 -379.84042569512303)"><path d="M0 0 C-9.06 -41.97, -43.82 -200.17, -54.35 -251.81 C-64.89 -303.45, -62.99 -293.66, -63.21 -309.82 C-63.42 -325.98, -63.47 -329.18, -55.64 -348.77 C-47.81 -368.36, -30.63 -398.35, -16.22 -427.37 C-1.82 -456.4, 16.19 -486.09, 30.77 -522.91 C45.35 -559.72, 63.7 -615, 71.27 -648.27 C78.84 -681.53, 76.8 -704.75, 76.21 -722.52 C75.61 -740.28, 72.06 -748.67, 67.71 -754.87 C63.35 -761.06, 56.97 -761.19, 50.07 -759.68 C43.16 -758.17, 38.9 -756.81, 26.27 -745.79 C13.63 -734.76, -7.71 -709.54, -25.72 -693.52 C-43.74 -677.5, -67.23 -659.58, -81.81 -649.66 C-96.39 -639.74, -104.67 -636.25, -113.2 -634.02 C-121.74 -631.8, -128.25 -632.2, -133.03 -636.3 C-137.81 -640.4, -139.39 -648.44, -141.9 -658.62 C-144.4 -668.79, -147.01 -690.9, -148.03 -697.35 M0 0 C-9.06 -41.97, -43.82 -200.17, -54.35 -251.81 C-64.89 -303.45, -62.99 -293.66, -63.21 -309.82 C-63.42 -325.98, -63.47 -329.18, -55.64 -348.77 C-47.81 -368.36, -30.63 -398.35, -16.22 -427.37 C-1.82 -456.4, 16.19 -486.09, 30.77 -522.91 C45.35 -559.72, 63.7 -615, 71.27 -648.27 C78.84 -681.53, 76.8 -704.75, 76.21 -722.52 C75.61 -740.28, 72.06 -748.67, 67.71 -754.87 C63.35 -761.06, 56.97 -761.19, 50.07 -759.68 C43.16 -758.17, 38.9 -756.81, 26.27 -745.79 C13.63 -734.76, -7.71 -709.54, -25.72 -693.52 C-43.74 -677.5, -67.23 -659.58, -81.81 -649.66 C-96.39 -639.74, -104.67 -636.25, -113.2 -634.02 C-121.74 -631.8, -128.25 -632.2, -133.03 -636.3 C-137.81 -640.4, -139.39 -648.44, -141.9 -658.62 C-144.4 -668.79, -147.01 -690.9, -148.03 -697.35" stroke="#E1E1E1" stroke-width="8" fill="none"></path></g></g><mask></mask><g stroke-linecap="round"><g transform="translate(724.9077287259879 953.0198801275139) rotate(0 312.7993983842373 -127.12685516731437)"><path d="M0 0 C22.7 0, 94.38 0, 136.18 0 C177.99 0, 223.83 2.28, 250.83 0 C277.84 -2.28, 278.06 -3.74, 298.21 -13.65 C318.36 -23.56, 347.19 -38.31, 371.72 -59.44 C396.24 -80.57, 420.8 -108.38, 445.37 -140.43 C469.93 -172.48, 499.3 -220.07, 519.13 -251.73 C538.95 -283.39, 554.16 -315.25, 564.31 -330.41 C574.46 -345.57, 575.42 -343.25, 580.02 -342.71 C584.62 -342.16, 587.92 -342.74, 591.92 -327.13 C595.93 -311.51, 601.44 -283.09, 604.05 -249 C606.66 -214.92, 606.81 -159.74, 607.57 -122.63 C608.33 -85.51, 608.52 -50.71, 608.6 -26.34 C608.67 -1.96, 607.32 9.55, 608 23.63 C608.68 37.71, 609.76 47.35, 612.7 58.15 C615.63 68.96, 623.45 83.4, 625.6 88.45 M0 0 C22.7 0, 94.38 0, 136.18 0 C177.99 0, 223.83 2.28, 250.83 0 C277.84 -2.28, 278.06 -3.74, 298.21 -13.65 C318.36 -23.56, 347.19 -38.31, 371.72 -59.44 C396.24 -80.57, 420.8 -108.38, 445.37 -140.43 C469.93 -172.48, 499.3 -220.07, 519.13 -251.73 C538.95 -283.39, 554.16 -315.25, 564.31 -330.41 C574.46 -345.57, 575.42 -343.25, 580.02 -342.71 C584.62 -342.16, 587.92 -342.74, 591.92 -327.13 C595.93 -311.51, 601.44 -283.09, 604.05 -249 C606.66 -214.92, 606.81 -159.74, 607.57 -122.63 C608.33 -85.51, 608.52 -50.71, 608.6 -26.34 C608.67 -1.96, 607.32 9.55, 608 23.63 C608.68 37.71, 609.76 47.35, 612.7 58.15 C615.63 68.96, 623.45 83.4, 625.6 88.45" stroke="#E1E1E1" stroke-width="8" fill="none"></path></g></g><mask></mask><g stroke-linecap="round"><g transform="translate(1354.6259500205638 1056.2224312606338) rotate(0 -318.90722130684844 -119.70661738986337)"><path d="M0 0 C-5.55 0, -24.47 0.59, -33.28 0 C-42.08 -0.59, -46.78 0.54, -52.84 -3.54 C-58.9 -7.61, -65.32 -14, -69.63 -24.44 C-73.94 -34.88, -77.43 -48.61, -78.71 -66.18 C-79.98 -83.75, -77.85 -108.71, -77.29 -129.84 C-76.73 -150.97, -74.11 -176.38, -75.37 -192.97 C-76.62 -209.56, -80.1 -221.2, -84.82 -229.4 C-89.54 -237.6, -96.9 -240.94, -103.67 -242.18 C-110.45 -243.43, -114.07 -244.41, -125.44 -236.87 C-136.82 -229.33, -152.28 -214.38, -171.91 -196.93 C-191.53 -179.48, -218.33 -152.81, -243.19 -132.19 C-268.05 -111.57, -296.04 -90.29, -321.06 -73.24 C-346.08 -56.19, -370.93 -41.23, -393.32 -29.89 C-415.71 -18.55, -434.9 -10.59, -455.41 -5.2 C-475.93 0.19, -486 1.13, -516.4 2.45 C-546.8 3.78, -617.58 2.72, -637.81 2.77 M0 0 C-5.55 0, -24.47 0.59, -33.28 0 C-42.08 -0.59, -46.78 0.54, -52.84 -3.54 C-58.9 -7.61, -65.32 -14, -69.63 -24.44 C-73.94 -34.88, -77.43 -48.61, -78.71 -66.18 C-79.98 -83.75, -77.85 -108.71, -77.29 -129.84 C-76.73 -150.97, -74.11 -176.38, -75.37 -192.97 C-76.62 -209.56, -80.1 -221.2, -84.82 -229.4 C-89.54 -237.6, -96.9 -240.94, -103.67 -242.18 C-110.45 -243.43, -114.07 -244.41, -125.44 -236.87 C-136.82 -229.33, -152.28 -214.38, -171.91 -196.93 C-191.53 -179.48, -218.33 -152.81, -243.19 -132.19 C-268.05 -111.57, -296.04 -90.29, -321.06 -73.24 C-346.08 -56.19, -370.93 -41.23, -393.32 -29.89 C-415.71 -18.55, -434.9 -10.59, -455.41 -5.2 C-475.93 0.19, -486 1.13, -516.4 2.45 C-546.8 3.78, -617.58 2.72, -637.81 2.77" stroke="#E1E1E1" stroke-width="8" fill="none"></path></g></g><mask></mask><g stroke-linecap="round"><g transform="translate(792.3179101695591 859.7713065007279) rotate(0 86.32993001988211 348.0656035794726)"><path d="M0 0 C0 21.23, 0.32 88.65, 0 127.36 C-0.32 166.07, -2.57 211.07, -1.93 232.26 C-1.28 253.44, -0.36 249.12, 3.86 254.49 C8.09 259.85, 14.43 262.4, 23.43 264.43 C32.44 266.46, 44.95 267.46, 57.89 266.66 C70.84 265.87, 87.53 262.13, 101.08 259.66 C114.63 257.18, 128.63 252.62, 139.17 251.82 C149.71 251.03, 157.86 251.68, 164.3 254.89 C170.74 258.1, 175.33 262.35, 177.82 271.09 C180.31 279.82, 181.14 293.8, 179.25 307.31 C177.36 320.82, 176.32 331.61, 166.49 352.14 C156.66 372.68, 140.29 401.93, 120.28 430.52 C100.27 459.11, 65.25 499.7, 46.43 523.68 C27.62 547.65, 15.98 559.67, 7.38 574.37 C-1.22 589.07, -2.83 591.6, -5.16 611.89 C-7.48 632.18, -6.35 682.09, -6.59 696.13 M0 0 C0 21.23, 0.32 88.65, 0 127.36 C-0.32 166.07, -2.57 211.07, -1.93 232.26 C-1.28 253.44, -0.36 249.12, 3.86 254.49 C8.09 259.85, 14.43 262.4, 23.43 264.43 C32.44 266.46, 44.95 267.46, 57.89 266.66 C70.84 265.87, 87.53 262.13, 101.08 259.66 C114.63 257.18, 128.63 252.62, 139.17 251.82 C149.71 251.03, 157.86 251.68, 164.3 254.89 C170.74 258.1, 175.33 262.35, 177.82 271.09 C180.31 279.82, 181.14 293.8, 179.25 307.31 C177.36 320.82, 176.32 331.61, 166.49 352.14 C156.66 372.68, 140.29 401.93, 120.28 430.52 C100.27 459.11, 65.25 499.7, 46.43 523.68 C27.62 547.65, 15.98 559.67, 7.38 574.37 C-1.22 589.07, -2.83 591.6, -5.16 611.89 C-7.48 632.18, -6.35 682.09, -6.59 696.13" stroke="#E1E1E1" stroke-width="8" fill="none"></path></g></g><mask></mask><g stroke-linecap="round"><g transform="translate(910.38370935278 1404.3755291637633) rotate(0 -425.0060742634564 -55.93344313990815)"><path d="M0 0 C-4.63 0.05, -19.94 0.58, -27.77 0.29 C-35.61 0, -42.39 0.86, -47.02 -1.75 C-51.64 -4.36, -54.57 -5.81, -55.52 -15.39 C-56.46 -24.96, -53.13 -47.45, -52.69 -59.18 C-52.25 -70.92, -51.01 -78.14, -52.89 -85.8 C-54.77 -93.46, -58.91 -100.75, -63.96 -105.15 C-69.01 -109.54, -73.26 -111.4, -83.19 -112.16 C-93.12 -112.92, -101.24 -113.72, -123.53 -109.72 C-145.82 -105.72, -180.98 -95.89, -216.93 -88.15 C-252.89 -80.42, -300.09 -70.47, -339.27 -63.3 C-378.46 -56.13, -413.59 -50.79, -452.05 -45.14 C-490.52 -39.5, -536.78 -34.22, -570.06 -29.41 C-603.34 -24.61, -618.66 -20.6, -651.75 -16.32 C-684.83 -12.04, -735.51 -5.88, -768.55 -3.75 C-801.6 -1.61, -836.44 -3.55, -850.01 -3.51 M0 0 C-4.63 0.05, -19.94 0.58, -27.77 0.29 C-35.61 0, -42.39 0.86, -47.02 -1.75 C-51.64 -4.36, -54.57 -5.81, -55.52 -15.39 C-56.46 -24.96, -53.13 -47.45, -52.69 -59.18 C-52.25 -70.92, -51.01 -78.14, -52.89 -85.8 C-54.77 -93.46, -58.91 -100.75, -63.96 -105.15 C-69.01 -109.54, -73.26 -111.4, -83.19 -112.16 C-93.12 -112.92, -101.24 -113.72, -123.53 -109.72 C-145.82 -105.72, -180.98 -95.89, -216.93 -88.15 C-252.89 -80.42, -300.09 -70.47, -339.27 -63.3 C-378.46 -56.13, -413.59 -50.79, -452.05 -45.14 C-490.52 -39.5, -536.78 -34.22, -570.06 -29.41 C-603.34 -24.61, -618.66 -20.6, -651.75 -16.32 C-684.83 -12.04, -735.51 -5.88, -768.55 -3.75 C-801.6 -1.61, -836.44 -3.55, -850.01 -3.51" stroke="#E1E1E1" stroke-width="8" fill="none"></path></g></g><mask></mask><g stroke-linecap="round"><g transform="translate(287.8292356265797 1314.2911338171377) rotate(0 63.2967496793633 89.20645572911872)"><path d="M0 0 C-1.34 4.62, -7.65 20.37, -8.05 27.7 C-8.45 35.02, -6.61 39.08, -2.37 43.95 C1.86 48.82, 5.51 52.99, 17.37 56.91 C29.23 60.83, 54.34 64.67, 68.77 67.48 C83.19 70.29, 93.33 69.58, 103.94 73.78 C114.55 77.98, 127.32 84.77, 132.44 92.67 C137.55 100.57, 137.03 110.93, 134.64 121.17 C132.26 131.4, 124.78 144.55, 118.14 154.09 C111.5 163.64, 98.69 174.36, 94.79 178.41 M0 0 C-1.34 4.62, -7.65 20.37, -8.05 27.7 C-8.45 35.02, -6.61 39.08, -2.37 43.95 C1.86 48.82, 5.51 52.99, 17.37 56.91 C29.23 60.83, 54.34 64.67, 68.77 67.48 C83.19 70.29, 93.33 69.58, 103.94 73.78 C114.55 77.98, 127.32 84.77, 132.44 92.67 C137.55 100.57, 137.03 110.93, 134.64 121.17 C132.26 131.4, 124.78 144.55, 118.14 154.09 C111.5 163.64, 98.69 174.36, 94.79 178.41" stroke="#E1E1E1" stroke-width="8" fill="none"></path></g></g><mask></mask><g stroke-linecap="round"><g transform="translate(474.1669754137629 1532.760864328867) rotate(0 89.39223134784038 -128.9324743260488)"><path d="M0 0 C9.35 -7.5, 34.7 -28.29, 56.1 -44.99 C77.5 -61.69, 110.18 -83.88, 128.39 -100.2 C146.6 -116.52, 156.95 -130.02, 165.35 -142.91 C173.75 -155.8, 177.57 -167.69, 178.78 -177.52 C180 -187.35, 179.23 -194.66, 172.62 -201.88 C166.01 -209.1, 150.97 -216.51, 139.13 -220.84 C127.29 -225.16, 115.85 -226.04, 101.59 -227.84 C87.32 -229.64, 67.59 -229.07, 53.53 -231.65 C39.48 -234.23, 25.8 -238.94, 17.28 -243.31 C8.76 -247.68, 4.89 -255.44, 2.41 -257.86 M0 0 C9.35 -7.5, 34.7 -28.29, 56.1 -44.99 C77.5 -61.69, 110.18 -83.88, 128.39 -100.2 C146.6 -116.52, 156.95 -130.02, 165.35 -142.91 C173.75 -155.8, 177.57 -167.69, 178.78 -177.52 C180 -187.35, 179.23 -194.66, 172.62 -201.88 C166.01 -209.1, 150.97 -216.51, 139.13 -220.84 C127.29 -225.16, 115.85 -226.04, 101.59 -227.84 C87.32 -229.64, 67.59 -229.07, 53.53 -231.65 C39.48 -234.23, 25.8 -238.94, 17.28 -243.31 C8.76 -247.68, 4.89 -255.44, 2.41 -257.86" stroke="#E1E1E1" stroke-width="8" fill="none"></path></g></g><mask></mask><g stroke-linecap="round"><g transform="translate(119.3475291794798 1278.002563442745) rotate(0 670.0758769951601 -69.35603123063242)"><path d="M0 0 C40.41 -0.2, 172.1 0.34, 242.48 -1.18 C312.85 -2.71, 369.12 -2.77, 422.23 -9.14 C475.34 -15.5, 511 -25.64, 561.13 -39.37 C611.26 -53.09, 679.3 -76.89, 723.02 -91.5 C766.74 -106.11, 798.51 -119.15, 823.47 -127.01 C848.43 -134.88, 859.35 -138.02, 872.79 -138.71 C886.22 -139.4, 896.73 -135.06, 904.07 -131.15 C911.41 -127.25, 914.61 -125.73, 916.82 -115.29 C919.02 -104.85, 918.11 -82.66, 917.3 -68.52 C916.5 -54.39, 911.12 -40.3, 911.99 -30.5 C912.86 -20.71, 916.07 -14.32, 922.54 -9.75 C929.01 -5.18, 922.61 -4.08, 950.79 -3.1 C978.97 -2.12, 1054 -3.75, 1091.61 -3.88 C1129.21 -4.01, 1134.99 -3.88, 1176.42 -3.88 C1217.84 -3.88, 1312.86 -3.88, 1340.15 -3.88 M0 0 C40.41 -0.2, 172.1 0.34, 242.48 -1.18 C312.85 -2.71, 369.12 -2.77, 422.23 -9.14 C475.34 -15.5, 511 -25.64, 561.13 -39.37 C611.26 -53.09, 679.3 -76.89, 723.02 -91.5 C766.74 -106.11, 798.51 -119.15, 823.47 -127.01 C848.43 -134.88, 859.35 -138.02, 872.79 -138.71 C886.22 -139.4, 896.73 -135.06, 904.07 -131.15 C911.41 -127.25, 914.61 -125.73, 916.82 -115.29 C919.02 -104.85, 918.11 -82.66, 917.3 -68.52 C916.5 -54.39, 911.12 -40.3, 911.99 -30.5 C912.86 -20.71, 916.07 -14.32, 922.54 -9.75 C929.01 -5.18, 922.61 -4.08, 950.79 -3.1 C978.97 -2.12, 1054 -3.75, 1091.61 -3.88 C1129.21 -4.01, 1134.99 -3.88, 1176.42 -3.88 C1217.84 -3.88, 1312.86 -3.88, 1340.15 -3.88" stroke="#E1E1E1" stroke-width="8" fill="none"></path></g></g><mask></mask><g stroke-linecap="round"><g transform="translate(608.2490300355362 1556.1685922877757) rotate(0 115.18507854065797 -241.31234102401208)"><path d="M0 0 C0.93 -3.3, 1.59 -11.55, 5.59 -19.82 C9.58 -28.09, 12.53 -36.06, 23.99 -49.6 C35.45 -63.14, 53.81 -80.62, 74.35 -101.05 C94.88 -121.47, 124.91 -148.53, 147.21 -172.18 C169.5 -195.83, 194.24 -223.85, 208.1 -242.92 C221.96 -261.99, 226.69 -274.64, 230.37 -286.6 C234.05 -298.56, 232.35 -307.33, 230.18 -314.7 C228.02 -322.07, 223.48 -326.76, 217.37 -330.82 C211.27 -334.87, 207.33 -337.78, 193.57 -339.03 C179.8 -340.28, 154.34 -338.29, 134.78 -338.32 C115.23 -338.35, 90.75 -336.9, 76.23 -339.2 C61.71 -341.49, 53.42 -345.06, 47.67 -352.11 C41.91 -359.16, 40.56 -359.74, 41.71 -381.5 C42.87 -403.25, 52.45 -465.77, 54.6 -482.62 M0 0 C0.93 -3.3, 1.59 -11.55, 5.59 -19.82 C9.58 -28.09, 12.53 -36.06, 23.99 -49.6 C35.45 -63.14, 53.81 -80.62, 74.35 -101.05 C94.88 -121.47, 124.91 -148.53, 147.21 -172.18 C169.5 -195.83, 194.24 -223.85, 208.1 -242.92 C221.96 -261.99, 226.69 -274.64, 230.37 -286.6 C234.05 -298.56, 232.35 -307.33, 230.18 -314.7 C228.02 -322.07, 223.48 -326.76, 217.37 -330.82 C211.27 -334.87, 207.33 -337.78, 193.57 -339.03 C179.8 -340.28, 154.34 -338.29, 134.78 -338.32 C115.23 -338.35, 90.75 -336.9, 76.23 -339.2 C61.71 -341.49, 53.42 -345.06, 47.67 -352.11 C41.91 -359.16, 40.56 -359.74, 41.71 -381.5 C42.87 -403.25, 52.45 -465.77, 54.6 -482.62" stroke="#E1E1E1" stroke-width="8" fill="none"></path></g></g><mask></mask><g stroke-linecap="round"><g transform="translate(1334.1977718558187 911.31843802039) rotate(0 -310.3002313364259 -425.0957529215275)"><path d="M0 0 C1.53 -14.35, 7.4 -50.83, 9.19 -86.09 C10.99 -121.35, 12.93 -172.1, 10.76 -211.56 C8.58 -251.03, 3.97 -288.29, -3.87 -322.87 C-11.71 -357.45, -20.77 -385.22, -36.3 -419.05 C-51.83 -452.88, -73.73 -492.17, -97.05 -525.83 C-120.38 -559.48, -147.4 -592.24, -176.27 -620.98 C-205.14 -649.72, -235.76 -673.21, -270.29 -698.29 C-304.82 -723.37, -343.66 -750.4, -383.43 -771.45 C-423.2 -792.49, -467.59 -811.44, -508.91 -824.56 C-550.23 -837.69, -610.95 -845.92, -631.36 -850.19 M0 0 C1.53 -14.35, 7.4 -50.83, 9.19 -86.09 C10.99 -121.35, 12.93 -172.1, 10.76 -211.56 C8.58 -251.03, 3.97 -288.29, -3.87 -322.87 C-11.71 -357.45, -20.77 -385.22, -36.3 -419.05 C-51.83 -452.88, -73.73 -492.17, -97.05 -525.83 C-120.38 -559.48, -147.4 -592.24, -176.27 -620.98 C-205.14 -649.72, -235.76 -673.21, -270.29 -698.29 C-304.82 -723.37, -343.66 -750.4, -383.43 -771.45 C-423.2 -792.49, -467.59 -811.44, -508.91 -824.56 C-550.23 -837.69, -610.95 -845.92, -631.36 -850.19" stroke="#E1E1E1" stroke-width="8" fill="none"></path></g></g><mask></mask><g stroke-linecap="round"><g transform="translate(727.4596535321753 65.84916791039836) rotate(0 252.15954849641503 332.08892214851096)"><path d="M0 0 C14.36 3.41, 58.07 10.98, 86.18 20.48 C114.3 29.98, 141.91 43.53, 168.67 56.99 C195.43 70.45, 221.83 84.49, 246.74 101.22 C271.64 117.95, 294.98 136.37, 318.11 157.38 C341.23 178.39, 365.95 204.32, 385.51 227.27 C405.07 250.22, 420.24 269.78, 435.48 295.09 C450.72 320.41, 466.56 351.79, 476.95 379.17 C487.34 406.54, 493.27 435.75, 497.83 459.34 C502.39 482.92, 504.09 499.11, 504.32 520.7 C504.55 542.28, 504.84 564.94, 499.19 588.85 C493.55 612.76, 475.25 651.62, 470.46 664.18 M0 0 C14.36 3.41, 58.07 10.98, 86.18 20.48 C114.3 29.98, 141.91 43.53, 168.67 56.99 C195.43 70.45, 221.83 84.49, 246.74 101.22 C271.64 117.95, 294.98 136.37, 318.11 157.38 C341.23 178.39, 365.95 204.32, 385.51 227.27 C405.07 250.22, 420.24 269.78, 435.48 295.09 C450.72 320.41, 466.56 351.79, 476.95 379.17 C487.34 406.54, 493.27 435.75, 497.83 459.34 C502.39 482.92, 504.09 499.11, 504.32 520.7 C504.55 542.28, 504.84 564.94, 499.19 588.85 C493.55 612.76, 475.25 651.62, 470.46 664.18" stroke="#E1E1E1" stroke-width="8" fill="none"></path></g></g><mask></mask><g stroke-linecap="round"><g transform="translate(68.90165766813243 1451.2026936163509) rotate(0 726.296235446134 63.64418897135829)" fill-rule="evenodd"><path d="M0 0 C-2.8 7.27, -10.54 27.48, -16.81 43.64 C-23.07 59.79, -31.9 83.47, -37.59 96.93 C-43.29 110.39, -52.2 119.7, -50.97 124.37 C-49.74 129.04, -58.86 124.77, -30.2 124.95 C-1.55 125.12, 41.41 125.55, 120.94 125.42 C200.47 125.29, 350.63 124.36, 447 124.18 C543.36 124.01, 625.61 124.13, 699.11 124.37 C772.61 124.6, 829.36 125.18, 887.99 125.58 C946.62 125.98, 976.59 126.71, 1050.9 126.78 C1125.2 126.85, 1266.63 125.9, 1333.82 125.99 C1401 126.07, 1425.71 127.11, 1454 127.29 C1482.29 127.46, 1496.62 129.54, 1503.56 127.04 C1510.5 124.53, 1502.39 114.76, 1495.64 112.27 C1488.89 109.77, 1495.26 111.94, 1463.07 112.05 C1430.87 112.15, 1366.95 112.94, 1302.47 112.89 C1237.99 112.85, 1173.05 112.04, 1076.18 111.77 C979.31 111.51, 824.19 111.83, 721.25 111.29 C618.31 110.75, 510.47 111.92, 458.56 108.56 C406.65 105.2, 425.02 99.51, 409.8 91.14 C394.58 82.77, 380.4 65.44, 367.25 58.32 C354.1 51.21, 348.73 50.14, 330.9 48.45 C313.07 46.77, 285.32 46.62, 260.27 48.22 C235.21 49.81, 215.27 53.11, 180.56 58.02 C145.85 62.93, 82.32 72.83, 52.02 77.68 C21.73 82.53, 5.13 89.81, -1.22 87.12 C-7.56 84.42, 9.34 70.37, 13.95 61.5 C18.55 52.63, 25.44 41.49, 26.43 33.9 C27.42 26.32, 24.27 21.64, 19.86 15.99 C15.46 10.34, 3.31 2.67, 0 0" stroke="none" stroke-width="0" fill="#e1e1e1" fill-rule="evenodd"></path><path d="M0 0 C-2.8 7.27, -10.54 27.48, -16.81 43.64 C-23.07 59.79, -31.9 83.47, -37.59 96.93 C-43.29 110.39, -52.2 119.7, -50.97 124.37 C-49.74 129.04, -58.86 124.77, -30.2 124.95 C-1.55 125.12, 41.41 125.55, 120.94 125.42 C200.47 125.29, 350.63 124.36, 447 124.18 C543.36 124.01, 625.61 124.13, 699.11 124.37 C772.61 124.6, 829.36 125.18, 887.99 125.58 C946.62 125.98, 976.59 126.71, 1050.9 126.78 C1125.2 126.85, 1266.63 125.9, 1333.82 125.99 C1401 126.07, 1425.71 127.11, 1454 127.29 C1482.29 127.46, 1496.62 129.54, 1503.56 127.04 C1510.5 124.53, 1502.39 114.76, 1495.64 112.27 C1488.89 109.77, 1495.26 111.94, 1463.07 112.05 C1430.87 112.15, 1366.95 112.94, 1302.47 112.89 C1237.99 112.85, 1173.05 112.04, 1076.18 111.77 C979.31 111.51, 824.19 111.83, 721.25 111.29 C618.31 110.75, 510.47 111.92, 458.56 108.56 C406.65 105.2, 425.02 99.51, 409.8 91.14 C394.58 82.77, 380.4 65.44, 367.25 58.32 C354.1 51.21, 348.73 50.14, 330.9 48.45 C313.07 46.77, 285.32 46.62, 260.27 48.22 C235.21 49.81, 215.27 53.11, 180.56 58.02 C145.85 62.93, 82.32 72.83, 52.02 77.68 C21.73 82.53, 5.13 89.81, -1.22 87.12 C-7.56 84.42, 9.34 70.37, 13.95 61.5 C18.55 52.63, 25.44 41.49, 26.43 33.9 C27.42 26.32, 24.27 21.64, 19.86 15.99 C15.46 10.34, 3.31 2.67, 0 0 M0 0 C-2.8 7.27, -10.54 27.48, -16.81 43.64 C-23.07 59.79, -31.9 83.47, -37.59 96.93 C-43.29 110.39, -52.2 119.7, -50.97 124.37 C-49.74 129.04, -58.86 124.77, -30.2 124.95 C-1.55 125.12, 41.41 125.55, 120.94 125.42 C200.47 125.29, 350.63 124.36, 447 124.18 C543.36 124.01, 625.61 124.13, 699.11 124.37 C772.61 124.6, 829.36 125.18, 887.99 125.58 C946.62 125.98, 976.59 126.71, 1050.9 126.78 C1125.2 126.85, 1266.63 125.9, 1333.82 125.99 C1401 126.07, 1425.71 127.11, 1454 127.29 C1482.29 127.46, 1496.62 129.54, 1503.56 127.04 C1510.5 124.53, 1502.39 114.76, 1495.64 112.27 C1488.89 109.77, 1495.26 111.94, 1463.07 112.05 C1430.87 112.15, 1366.95 112.94, 1302.47 112.89 C1237.99 112.85, 1173.05 112.04, 1076.18 111.77 C979.31 111.51, 824.19 111.83, 721.25 111.29 C618.31 110.75, 510.47 111.92, 458.56 108.56 C406.65 105.2, 425.02 99.51, 409.8 91.14 C394.58 82.77, 380.4 65.44, 367.25 58.32 C354.1 51.21, 348.73 50.14, 330.9 48.45 C313.07 46.77, 285.32 46.62, 260.27 48.22 C235.21 49.81, 215.27 53.11, 180.56 58.02 C145.85 62.93, 82.32 72.83, 52.02 77.68 C21.73 82.53, 5.13 89.81, -1.22 87.12 C-7.56 84.42, 9.34 70.37, 13.95 61.5 C18.55 52.63, 25.44 41.49, 26.43 33.9 C27.42 26.32, 24.27 21.64, 19.86 15.99 C15.46 10.34, 3.31 2.67, 0 0" stroke="#E1E1E1" stroke-width="8" fill="none"></path></g></g><mask></mask><g stroke-linecap="round"><g transform="translate(674.1409815766287 553.1584870518327) rotate(0 -5.1540043836985205 23.691651240439)"><path d="M0 0 C-0.18 5.71, 0.66 26.35, -1.06 34.24 C-2.78 42.14, -8.77 45.19, -10.31 47.38 M0 0 C-0.18 5.71, 0.66 26.35, -1.06 34.24 C-2.78 42.14, -8.77 45.19, -10.31 47.38" stroke="#E1E1E1" stroke-width="4" fill="none"></path></g></g><mask></mask><g stroke-linecap="round"><g transform="translate(660.2804450846093 600.996058812183) rotate(0 -15.300090995815026 235.67924968910904)"><path d="M0 0 C0.71 0.36, 2.88 0.18, 4.26 2.15 C5.63 4.11, 7.26 7.23, 8.23 11.79 C9.2 16.36, 9.74 20.23, 10.05 29.53 C10.36 38.83, 11.06 57.43, 10.11 67.59 C9.17 77.75, 5.39 83.25, 4.4 90.47 C3.4 97.69, 2.67 102.62, 4.14 110.92 C5.61 119.21, 12.12 130.22, 13.23 140.23 C14.35 150.24, 12.22 161.73, 10.82 170.97 C9.41 180.22, 5.48 187.08, 4.81 195.7 C4.14 204.33, 5.66 214.85, 6.79 222.75 C7.92 230.65, 10.78 234.7, 11.6 243.11 C12.42 251.52, 12.78 262.04, 11.71 273.21 C10.63 284.39, 7.02 297.22, 5.16 310.16 C3.31 323.1, 1.2 339.28, 0.58 350.87 C-0.03 362.46, 0.46 371.37, 1.47 379.7 C2.47 388.03, 5.99 392.92, 6.64 400.85 C7.29 408.79, 5.01 419.55, 5.37 427.32 C5.72 435.08, 8.2 441.77, 8.76 447.45 C9.33 453.12, 10.54 457.41, 8.76 461.37 C6.98 465.34, 1.84 469.59, -1.93 471.25 C-5.69 472.91, -9.45 473.28, -13.84 471.36 C-18.24 469.43, -23.31 463.32, -28.31 459.7 C-33.3 456.09, -41.25 451.36, -43.83 449.69 M0 0 C0.71 0.36, 2.88 0.18, 4.26 2.15 C5.63 4.11, 7.26 7.23, 8.23 11.79 C9.2 16.36, 9.74 20.23, 10.05 29.53 C10.36 38.83, 11.06 57.43, 10.11 67.59 C9.17 77.75, 5.39 83.25, 4.4 90.47 C3.4 97.69, 2.67 102.62, 4.14 110.92 C5.61 119.21, 12.12 130.22, 13.23 140.23 C14.35 150.24, 12.22 161.73, 10.82 170.97 C9.41 180.22, 5.48 187.08, 4.81 195.7 C4.14 204.33, 5.66 214.85, 6.79 222.75 C7.92 230.65, 10.78 234.7, 11.6 243.11 C12.42 251.52, 12.78 262.04, 11.71 273.21 C10.63 284.39, 7.02 297.22, 5.16 310.16 C3.31 323.1, 1.2 339.28, 0.58 350.87 C-0.03 362.46, 0.46 371.37, 1.47 379.7 C2.47 388.03, 5.99 392.92, 6.64 400.85 C7.29 408.79, 5.01 419.55, 5.37 427.32 C5.72 435.08, 8.2 441.77, 8.76 447.45 C9.33 453.12, 10.54 457.41, 8.76 461.37 C6.98 465.34, 1.84 469.59, -1.93 471.25 C-5.69 472.91, -9.45 473.28, -13.84 471.36 C-18.24 469.43, -23.31 463.32, -28.31 459.7 C-33.3 456.09, -41.25 451.36, -43.83 449.69" stroke="#E1E1E1" stroke-width="4" fill="none"></path></g></g><mask></mask><g stroke-linecap="round"><g transform="translate(616.9341059271655 1051.1148076410193) rotate(0 9.77788006723199 -8.318806180333468)"><path d="M0 0 C-0.37 -0.6, -2.94 -1.72, -2.23 -3.61 C-1.51 -5.49, 1.2 -9.16, 4.29 -11.33 C7.37 -13.5, 13.36 -16.4, 16.28 -16.64 C19.2 -16.88, 20.87 -13.41, 21.78 -12.76 M0 0 C-0.37 -0.6, -2.94 -1.72, -2.23 -3.61 C-1.51 -5.49, 1.2 -9.16, 4.29 -11.33 C7.37 -13.5, 13.36 -16.4, 16.28 -16.64 C19.2 -16.88, 20.87 -13.41, 21.78 -12.76" stroke="#E1E1E1" stroke-width="4" fill="none"></path></g></g><mask></mask><g stroke-linecap="round"><g transform="translate(637.8615463469105 1035.8834781084054) rotate(0 -33.932229411663 -349.1769208492565)"><path d="M0 0 C0.18 -4.93, 1.72 -21.25, 1.08 -29.58 C0.43 -37.9, -1.08 -40.79, -3.85 -49.97 C-6.62 -59.14, -10.78 -69.31, -15.55 -84.63 C-20.32 -99.94, -28.84 -124.88, -32.47 -141.88 C-36.11 -158.88, -37.8 -172.52, -37.35 -186.6 C-36.91 -200.68, -31.35 -216.63, -29.8 -226.35 C-28.25 -236.07, -27.51 -236.32, -28.07 -244.93 C-28.62 -253.53, -31.99 -267.44, -33.15 -278 C-34.31 -288.57, -33.37 -298.8, -35.04 -308.32 C-36.7 -317.84, -40.08 -323.52, -43.15 -335.13 C-46.22 -346.73, -50.63 -366.98, -53.45 -377.95 C-56.27 -388.93, -58.29 -391.22, -60.08 -400.98 C-61.86 -410.73, -62.69 -423.22, -64.17 -436.49 C-65.65 -449.77, -68.38 -468.28, -68.94 -480.6 C-69.5 -492.92, -68.86 -498.65, -67.54 -510.42 C-66.21 -522.19, -63.53 -537.98, -60.98 -551.2 C-58.43 -564.41, -54.47 -578.97, -52.23 -589.74 C-49.99 -600.5, -49.42 -608.14, -47.54 -615.77 C-45.65 -623.4, -42.31 -627.17, -40.92 -635.52 C-39.53 -643.87, -38.51 -657.46, -39.2 -665.89 C-39.89 -674.32, -43.39 -680.71, -45.05 -686.12 C-46.71 -691.53, -48.48 -696.32, -49.16 -698.35 M0 0 C0.18 -4.93, 1.72 -21.25, 1.08 -29.58 C0.43 -37.9, -1.08 -40.79, -3.85 -49.97 C-6.62 -59.14, -10.78 -69.31, -15.55 -84.63 C-20.32 -99.94, -28.84 -124.88, -32.47 -141.88 C-36.11 -158.88, -37.8 -172.52, -37.35 -186.6 C-36.91 -200.68, -31.35 -216.63, -29.8 -226.35 C-28.25 -236.07, -27.51 -236.32, -28.07 -244.93 C-28.62 -253.53, -31.99 -267.44, -33.15 -278 C-34.31 -288.57, -33.37 -298.8, -35.04 -308.32 C-36.7 -317.84, -40.08 -323.52, -43.15 -335.13 C-46.22 -346.73, -50.63 -366.98, -53.45 -377.95 C-56.27 -388.93, -58.29 -391.22, -60.08 -400.98 C-61.86 -410.73, -62.69 -423.22, -64.17 -436.49 C-65.65 -449.77, -68.38 -468.28, -68.94 -480.6 C-69.5 -492.92, -68.86 -498.65, -67.54 -510.42 C-66.21 -522.19, -63.53 -537.98, -60.98 -551.2 C-58.43 -564.41, -54.47 -578.97, -52.23 -589.74 C-49.99 -600.5, -49.42 -608.14, -47.54 -615.77 C-45.65 -623.4, -42.31 -627.17, -40.92 -635.52 C-39.53 -643.87, -38.51 -657.46, -39.2 -665.89 C-39.89 -674.32, -43.39 -680.71, -45.05 -686.12 C-46.71 -691.53, -48.48 -696.32, -49.16 -698.35" stroke="#E1E1E1" stroke-width="4" fill="none"></path></g></g><mask></mask><g stroke-linecap="round"><g transform="translate(584.7652753298617 279.7975119060386) rotate(0 -12.951110688388098 133.23398558830684)"><path d="M0 0 C0.06 1.95, -0.01 7.07, 0.37 11.71 C0.76 16.36, 1.8 21.47, 2.31 27.88 C2.82 34.29, 3.68 43.09, 3.42 50.17 C3.17 57.25, 3 62.96, 0.77 70.37 C-1.45 77.78, -7.09 86.64, -9.93 94.63 C-12.77 102.62, -15.84 109.19, -16.25 118.32 C-16.67 127.44, -12.11 137.69, -12.41 149.38 C-12.71 161.07, -15.47 175.07, -18.06 188.45 C-20.65 201.82, -26.09 219.11, -27.97 229.63 C-29.84 240.15, -30.07 246.01, -29.33 251.59 C-28.59 257.16, -25.67 260.59, -23.53 263.07 C-21.38 265.55, -17.64 265.9, -16.46 266.47 M0 0 C0.06 1.95, -0.01 7.07, 0.37 11.71 C0.76 16.36, 1.8 21.47, 2.31 27.88 C2.82 34.29, 3.68 43.09, 3.42 50.17 C3.17 57.25, 3 62.96, 0.77 70.37 C-1.45 77.78, -7.09 86.64, -9.93 94.63 C-12.77 102.62, -15.84 109.19, -16.25 118.32 C-16.67 127.44, -12.11 137.69, -12.41 149.38 C-12.71 161.07, -15.47 175.07, -18.06 188.45 C-20.65 201.82, -26.09 219.11, -27.97 229.63 C-29.84 240.15, -30.07 246.01, -29.33 251.59 C-28.59 257.16, -25.67 260.59, -23.53 263.07 C-21.38 265.55, -17.64 265.9, -16.46 266.47" stroke="#E1E1E1" stroke-width="4" fill="none"></path></g></g><mask></mask><g stroke-linecap="round"><g transform="translate(577.1367455156028 634.5330207160223) rotate(0 96.90486465614731 -307.8965309442565)"><path d="M0 0 C-1.03 -0.3, -3.52 -0.14, -6.16 -1.82 C-8.8 -3.5, -11.58 -3.59, -15.81 -10.06 C-20.05 -16.52, -26.5 -29.96, -31.57 -40.59 C-36.64 -51.23, -43.24 -65.41, -46.23 -73.86 C-49.22 -82.31, -48.02 -82.33, -49.52 -91.29 C-51.02 -100.24, -53.85 -113.62, -55.23 -127.57 C-56.61 -141.51, -57.17 -160.99, -57.8 -174.95 C-58.44 -188.91, -60.21 -198.99, -59.02 -211.31 C-57.83 -223.64, -52.44 -235.82, -50.68 -248.9 C-48.91 -261.98, -49.83 -277.74, -48.43 -289.79 C-47.03 -301.84, -44.05 -308.12, -42.3 -321.2 C-40.56 -334.28, -40.21 -354.44, -37.96 -368.27 C-35.71 -382.1, -32.89 -393.4, -28.8 -404.19 C-24.72 -414.98, -19.9 -426.4, -13.43 -433.01 C-6.96 -439.62, -0.82 -437.42, 10.03 -443.87 C20.87 -450.32, 42.42 -464.57, 51.65 -471.72 C60.88 -478.87, 63.26 -480.44, 65.42 -486.75 C67.59 -493.05, 66.18 -504.28, 64.65 -509.54 C63.12 -514.79, 58.77 -513.47, 56.26 -518.27 C53.74 -523.07, 50.82 -533.02, 49.57 -538.33 C48.32 -543.63, 48.36 -546.84, 48.76 -550.11 C49.16 -553.38, 51.57 -554.28, 51.99 -557.95 C52.4 -561.61, 50.83 -565.94, 51.23 -572.1 C51.64 -578.27, 51.22 -587.49, 54.41 -594.96 C57.6 -602.43, 63.61 -612.04, 70.38 -616.93 C77.15 -621.82, 87.48 -623.5, 95.03 -624.28 C102.57 -625.06, 109.31 -624.01, 115.63 -621.62 C121.95 -619.22, 128.47 -614.82, 132.94 -609.9 C137.41 -604.97, 140.65 -598.19, 142.46 -592.08 C144.27 -585.96, 143.83 -578.53, 143.78 -573.18 C143.73 -567.83, 141.85 -564.05, 142.16 -560 C142.47 -555.95, 145.67 -554.32, 145.64 -548.86 C145.61 -543.41, 144.35 -533.23, 141.98 -527.27 C139.61 -521.32, 133.87 -517.95, 131.4 -513.14 C128.94 -508.33, 127.36 -503.41, 127.17 -498.43 C126.98 -493.46, 126.05 -489.75, 130.28 -483.29 C134.52 -476.84, 144.87 -466.51, 152.58 -459.68 C160.28 -452.85, 167.87 -446.82, 176.52 -442.29 C185.17 -437.77, 196.56 -437.37, 204.48 -432.54 C212.39 -427.7, 219.18 -420.08, 224 -413.28 C228.82 -406.48, 230.89 -401.71, 233.39 -391.75 C235.88 -381.78, 236.63 -366.02, 238.95 -353.51 C241.26 -340.99, 245.84 -331.21, 247.28 -316.66 C248.72 -302.11, 246.68 -283.8, 247.61 -266.2 C248.53 -248.59, 252.11 -226.79, 252.83 -211.03 C253.55 -195.28, 254.02 -186.2, 251.93 -171.68 C249.85 -157.16, 242.44 -138.91, 240.31 -123.93 C238.17 -108.95, 241.68 -96.33, 239.13 -81.81 C236.58 -67.28, 230.74 -50.17, 225.01 -36.77 C219.27 -23.36, 210.06 -8.92, 204.75 -1.38 C199.44 6.16, 195.09 6.84, 193.16 8.48 M0 0 C-1.03 -0.3, -3.52 -0.14, -6.16 -1.82 C-8.8 -3.5, -11.58 -3.59, -15.81 -10.06 C-20.05 -16.52, -26.5 -29.96, -31.57 -40.59 C-36.64 -51.23, -43.24 -65.41, -46.23 -73.86 C-49.22 -82.31, -48.02 -82.33, -49.52 -91.29 C-51.02 -100.24, -53.85 -113.62, -55.23 -127.57 C-56.61 -141.51, -57.17 -160.99, -57.8 -174.95 C-58.44 -188.91, -60.21 -198.99, -59.02 -211.31 C-57.83 -223.64, -52.44 -235.82, -50.68 -248.9 C-48.91 -261.98, -49.83 -277.74, -48.43 -289.79 C-47.03 -301.84, -44.05 -308.12, -42.3 -321.2 C-40.56 -334.28, -40.21 -354.44, -37.96 -368.27 C-35.71 -382.1, -32.89 -393.4, -28.8 -404.19 C-24.72 -414.98, -19.9 -426.4, -13.43 -433.01 C-6.96 -439.62, -0.82 -437.42, 10.03 -443.87 C20.87 -450.32, 42.42 -464.57, 51.65 -471.72 C60.88 -478.87, 63.26 -480.44, 65.42 -486.75 C67.59 -493.05, 66.18 -504.28, 64.65 -509.54 C63.12 -514.79, 58.77 -513.47, 56.26 -518.27 C53.74 -523.07, 50.82 -533.02, 49.57 -538.33 C48.32 -543.63, 48.36 -546.84, 48.76 -550.11 C49.16 -553.38, 51.57 -554.28, 51.99 -557.95 C52.4 -561.61, 50.83 -565.94, 51.23 -572.1 C51.64 -578.27, 51.22 -587.49, 54.41 -594.96 C57.6 -602.43, 63.61 -612.04, 70.38 -616.93 C77.15 -621.82, 87.48 -623.5, 95.03 -624.28 C102.57 -625.06, 109.31 -624.01, 115.63 -621.62 C121.95 -619.22, 128.47 -614.82, 132.94 -609.9 C137.41 -604.97, 140.65 -598.19, 142.46 -592.08 C144.27 -585.96, 143.83 -578.53, 143.78 -573.18 C143.73 -567.83, 141.85 -564.05, 142.16 -560 C142.47 -555.95, 145.67 -554.32, 145.64 -548.86 C145.61 -543.41, 144.35 -533.23, 141.98 -527.27 C139.61 -521.32, 133.87 -517.95, 131.4 -513.14 C128.94 -508.33, 127.36 -503.41, 127.17 -498.43 C126.98 -493.46, 126.05 -489.75, 130.28 -483.29 C134.52 -476.84, 144.87 -466.51, 152.58 -459.68 C160.28 -452.85, 167.87 -446.82, 176.52 -442.29 C185.17 -437.77, 196.56 -437.37, 204.48 -432.54 C212.39 -427.7, 219.18 -420.08, 224 -413.28 C228.82 -406.48, 230.89 -401.71, 233.39 -391.75 C235.88 -381.78, 236.63 -366.02, 238.95 -353.51 C241.26 -340.99, 245.84 -331.21, 247.28 -316.66 C248.72 -302.11, 246.68 -283.8, 247.61 -266.2 C248.53 -248.59, 252.11 -226.79, 252.83 -211.03 C253.55 -195.28, 254.02 -186.2, 251.93 -171.68 C249.85 -157.16, 242.44 -138.91, 240.31 -123.93 C238.17 -108.95, 241.68 -96.33, 239.13 -81.81 C236.58 -67.28, 230.74 -50.17, 225.01 -36.77 C219.27 -23.36, 210.06 -8.92, 204.75 -1.38 C199.44 6.16, 195.09 6.84, 193.16 8.48" stroke="#E1E1E1" stroke-width="4" fill="none"></path></g></g><mask></mask><g stroke-linecap="round"><g transform="translate(769.8427424379315 286.7863383013523) rotate(0 -44.35691085532949 392.035719051485)"><path d="M0 0 C-0.05 4.61, 0.99 17.43, -0.29 27.64 C-1.58 37.85, -5.22 49.86, -7.72 61.26 C-10.22 72.67, -14.24 85.95, -15.28 96.08 C-16.32 106.21, -15.77 112.97, -13.95 122.03 C-12.14 131.1, -6.7 141.8, -4.39 150.46 C-2.07 159.12, -1.74 165.82, -0.07 174 C1.6 182.17, 4 190.16, 5.62 199.51 C7.25 208.85, 9.19 214.88, 9.69 230.07 C10.18 245.27, 10.26 270.32, 8.58 290.7 C6.91 311.09, 2.31 335.46, -0.36 352.36 C-3.03 369.26, -3.55 377.44, -7.45 392.1 C-11.36 406.76, -19.33 427.6, -23.79 440.32 C-28.26 453.04, -32.25 456.48, -34.24 468.42 C-36.24 480.37, -36.46 499.04, -35.76 511.99 C-35.05 524.94, -30.84 534.21, -30.04 546.13 C-29.24 558.05, -29.57 569.98, -30.95 583.51 C-32.32 597.04, -35.02 611.83, -38.31 627.3 C-41.6 642.77, -47.07 662.43, -50.7 676.35 C-54.32 690.27, -57.86 701.64, -60.06 710.82 C-62.26 719.99, -63.69 725.19, -63.89 731.38 C-64.09 737.58, -64.14 744.75, -61.26 747.98 C-58.39 751.21, -50.59 750.08, -46.63 750.78 C-42.67 751.48, -38.97 750.53, -37.5 752.17 C-36.02 753.81, -34.31 757.08, -37.77 760.61 C-41.24 764.15, -53.14 769.99, -58.28 773.37 C-63.42 776.74, -64.22 779.08, -68.63 780.86 C-73.04 782.64, -80.22 784.8, -84.73 784.07 C-89.24 783.35, -93.77 780.37, -95.68 776.51 C-97.6 772.65, -96.66 765.71, -96.25 760.91 C-95.85 756.11, -93.57 752.04, -93.25 747.74 C-92.92 743.44, -93.59 738.75, -94.29 735.1 C-94.99 731.45, -97.72 730.13, -97.44 725.84 C-97.16 721.55, -93.81 715.31, -92.63 709.37 C-91.46 703.43, -90.8 699.13, -90.39 690.21 C-89.98 681.3, -90.36 666.53, -90.19 655.87 C-90.02 645.21, -88.71 634.78, -89.34 626.25 C-89.98 617.72, -92.94 612.84, -94 604.69 C-95.05 596.53, -96.45 587.61, -95.67 577.31 C-94.9 567, -90.63 551.93, -89.34 542.88 C-88.04 533.83, -87.29 530.92, -87.91 523 C-88.53 515.08, -91.89 505.53, -93.05 495.35 C-94.21 485.16, -95.42 472.9, -94.88 461.9 C-94.34 450.9, -90.2 438.7, -89.81 429.35 C-89.41 420, -91.41 413.2, -92.51 405.81 C-93.6 398.42, -95.39 394.4, -96.38 385 C-97.36 375.6, -99.21 359.81, -98.4 349.42 C-97.59 339.04, -92.68 327.15, -91.53 322.7 M0 0 C-0.05 4.61, 0.99 17.43, -0.29 27.64 C-1.58 37.85, -5.22 49.86, -7.72 61.26 C-10.22 72.67, -14.24 85.95, -15.28 96.08 C-16.32 106.21, -15.77 112.97, -13.95 122.03 C-12.14 131.1, -6.7 141.8, -4.39 150.46 C-2.07 159.12, -1.74 165.82, -0.07 174 C1.6 182.17, 4 190.16, 5.62 199.51 C7.25 208.85, 9.19 214.88, 9.69 230.07 C10.18 245.27, 10.26 270.32, 8.58 290.7 C6.91 311.09, 2.31 335.46, -0.36 352.36 C-3.03 369.26, -3.55 377.44, -7.45 392.1 C-11.36 406.76, -19.33 427.6, -23.79 440.32 C-28.26 453.04, -32.25 456.48, -34.24 468.42 C-36.24 480.37, -36.46 499.04, -35.76 511.99 C-35.05 524.94, -30.84 534.21, -30.04 546.13 C-29.24 558.05, -29.57 569.98, -30.95 583.51 C-32.32 597.04, -35.02 611.83, -38.31 627.3 C-41.6 642.77, -47.07 662.43, -50.7 676.35 C-54.32 690.27, -57.86 701.64, -60.06 710.82 C-62.26 719.99, -63.69 725.19, -63.89 731.38 C-64.09 737.58, -64.14 744.75, -61.26 747.98 C-58.39 751.21, -50.59 750.08, -46.63 750.78 C-42.67 751.48, -38.97 750.53, -37.5 752.17 C-36.02 753.81, -34.31 757.08, -37.77 760.61 C-41.24 764.15, -53.14 769.99, -58.28 773.37 C-63.42 776.74, -64.22 779.08, -68.63 780.86 C-73.04 782.64, -80.22 784.8, -84.73 784.07 C-89.24 783.35, -93.77 780.37, -95.68 776.51 C-97.6 772.65, -96.66 765.71, -96.25 760.91 C-95.85 756.11, -93.57 752.04, -93.25 747.74 C-92.92 743.44, -93.59 738.75, -94.29 735.1 C-94.99 731.45, -97.72 730.13, -97.44 725.84 C-97.16 721.55, -93.81 715.31, -92.63 709.37 C-91.46 703.43, -90.8 699.13, -90.39 690.21 C-89.98 681.3, -90.36 666.53, -90.19 655.87 C-90.02 645.21, -88.71 634.78, -89.34 626.25 C-89.98 617.72, -92.94 612.84, -94 604.69 C-95.05 596.53, -96.45 587.61, -95.67 577.31 C-94.9 567, -90.63 551.93, -89.34 542.88 C-88.04 533.83, -87.29 530.92, -87.91 523 C-88.53 515.08, -91.89 505.53, -93.05 495.35 C-94.21 485.16, -95.42 472.9, -94.88 461.9 C-94.34 450.9, -90.2 438.7, -89.81 429.35 C-89.41 420, -91.41 413.2, -92.51 405.81 C-93.6 398.42, -95.39 394.4, -96.38 385 C-97.36 375.6, -99.21 359.81, -98.4 349.42 C-97.59 339.04, -92.68 327.15, -91.53 322.7" stroke="#E1E1E1" stroke-width="4" fill="none"></path></g></g><mask></mask><g stroke-linecap="round"><g transform="translate(687.5090972676717 601.6801244654439) rotate(0 -6.6782907550523305 -18.576242000601837)"><path d="M0 0 C-0.89 0.02, -3.38 1.94, -5.34 0.12 C-7.31 -1.7, -10.46 -4.68, -11.8 -10.91 C-13.13 -17.14, -13.1 -32.88, -13.36 -37.27 M0 0 C-0.89 0.02, -3.38 1.94, -5.34 0.12 C-7.31 -1.7, -10.46 -4.68, -11.8 -10.91 C-13.13 -17.14, -13.1 -32.88, -13.36 -37.27" stroke="#E1E1E1" stroke-width="4" fill="none"></path></g></g><mask></mask><g stroke-linecap="round"><g transform="translate(681.2300666215306 602.308293703464) rotate(0 -1.6511623615190274 4.26321071848372)"><path d="M0 0 C-0.55 1.42, -2.75 7.11, -3.3 8.53 M0 0 C-0.55 1.42, -2.75 7.11, -3.3 8.53" stroke="#E1E1E1" stroke-width="4" fill="none"></path></g></g><mask></mask><g stroke-linecap="round"><g transform="translate(669.0668292147266 610.6679131393751) rotate(0 3.665651422146766 6.497736461355885)" fill-rule="evenodd"><path d="M0 0 C0.44 2.17, 1.4 13.06, 2.62 13.05 C3.84 13.04, 6.55 2.13, 7.33 -0.05" stroke="none" stroke-width="0" fill="#e1e1e1" fill-rule="evenodd"></path><path d="M0 0 C0.44 2.17, 1.4 13.06, 2.62 13.05 C3.84 13.04, 6.55 2.13, 7.33 -0.05 M0 0 C0.44 2.17, 1.4 13.06, 2.62 13.05 C3.84 13.04, 6.55 2.13, 7.33 -0.05" stroke="#E1E1E1" stroke-width="4" fill="none"></path></g></g><mask></mask><g stroke-linecap="round"><g transform="translate(678.3970943376348 915.5030062929704) rotate(0 -1.9585926453803495 20.368032644926075)"><path d="M0 0 C-0.48 4.53, -2.24 20.41, -2.89 27.2 C-3.54 33.99, -3.75 38.48, -3.92 40.74 M0 0 C-0.48 4.53, -2.24 20.41, -2.89 27.2 C-3.54 33.99, -3.75 38.48, -3.92 40.74" stroke="#E1E1E1" stroke-width="4" fill="none"></path></g></g><mask></mask><g stroke-linecap="round"><g transform="translate(674.1285601510326 953.0290203071775) rotate(0 -4.339957383863293 0)"><path d="M0 0 C-1.45 0, -7.23 0, -8.68 0 M0 0 C-1.45 0, -7.23 0, -8.68 0" stroke="#E1E1E1" stroke-width="4" fill="none"></path></g></g><mask></mask><g stroke-linecap="round"><g transform="translate(664.4726762281903 945.5096215893525) rotate(0 -0.5452118598352627 6.45026887062977)"><path d="M0 0 C-0.18 2.15, -0.91 10.75, -1.09 12.9 M0 0 C-0.18 2.15, -0.91 10.75, -1.09 12.9" stroke="#E1E1E1" stroke-width="4" fill="none"></path></g></g><mask></mask><g stroke-linecap="round"><g transform="translate(672.4294865764446 966.1575799328596) rotate(0 -1.927982703697353 16.473915716013607)"><path d="M0 0 C-0.64 2.71, -3.27 10.78, -3.86 16.27 C-4.44 21.76, -3.56 30.17, -3.5 32.95 M0 0 C-0.64 2.71, -3.27 10.78, -3.86 16.27 C-4.44 21.76, -3.56 30.17, -3.5 32.95" stroke="#E1E1E1" stroke-width="4" fill="none"></path></g></g><mask></mask><g stroke-linecap="round"><g transform="translate(763.5119896484566 348.05614246628375) rotate(0 10.302570766280724 113.49286252165632)"><path d="M0 0 C1.56 4.95, 6.82 21.53, 9.35 29.69 C11.88 37.85, 14.22 38.8, 15.19 48.94 C16.17 59.08, 14.3 77.27, 15.19 90.52 C16.09 103.78, 19.68 117.2, 20.58 128.46 C21.48 139.72, 20.6 146.64, 20.61 158.1 C20.61 169.56, 20.82 187.76, 20.6 197.22 C20.38 206.68, 20.05 209.9, 19.27 214.86 C18.49 219.82, 16.49 224.96, 15.94 226.99 M0 0 C1.56 4.95, 6.82 21.53, 9.35 29.69 C11.88 37.85, 14.22 38.8, 15.19 48.94 C16.17 59.08, 14.3 77.27, 15.19 90.52 C16.09 103.78, 19.68 117.2, 20.58 128.46 C21.48 139.72, 20.6 146.64, 20.61 158.1 C20.61 169.56, 20.82 187.76, 20.6 197.22 C20.38 206.68, 20.05 209.9, 19.27 214.86 C18.49 219.82, 16.49 224.96, 15.94 226.99" stroke="#E1E1E1" stroke-width="4" fill="none"></path></g></g><mask></mask><g stroke-linecap="round" transform="translate(647.778706516332 27.304995823209765) rotate(0 27.79619930576132 27.796199305761206)"><path d="M55.59 27.8 C55.59 29.41, 55.45 31.04, 55.17 32.62 C54.89 34.21, 54.47 35.79, 53.92 37.3 C53.37 38.81, 52.67 40.3, 51.87 41.69 C51.06 43.09, 50.12 44.43, 49.09 45.66 C48.06 46.9, 46.9 48.06, 45.66 49.09 C44.43 50.12, 43.09 51.06, 41.69 51.87 C40.3 52.67, 38.81 53.37, 37.3 53.92 C35.79 54.47, 34.21 54.89, 32.62 55.17 C31.04 55.45, 29.41 55.59, 27.8 55.59 C26.19 55.59, 24.55 55.45, 22.97 55.17 C21.38 54.89, 19.8 54.47, 18.29 53.92 C16.78 53.37, 15.29 52.67, 13.9 51.87 C12.5 51.06, 11.16 50.12, 9.93 49.09 C8.7 48.06, 7.54 46.9, 6.5 45.66 C5.47 44.43, 4.53 43.09, 3.72 41.69 C2.92 40.3, 2.23 38.81, 1.68 37.3 C1.13 35.79, 0.7 34.21, 0.42 32.62 C0.14 31.04, 0 29.41, 0 27.8 C0 26.19, 0.14 24.55, 0.42 22.97 C0.7 21.38, 1.13 19.8, 1.68 18.29 C2.23 16.78, 2.92 15.29, 3.72 13.9 C4.53 12.5, 5.47 11.16, 6.5 9.93 C7.54 8.7, 8.7 7.54, 9.93 6.5 C11.16 5.47, 12.5 4.53, 13.9 3.72 C15.29 2.92, 16.78 2.23, 18.29 1.68 C19.8 1.13, 21.38 0.7, 22.97 0.42 C24.55 0.14, 26.19 0, 27.8 0 C29.41 0, 31.04 0.14, 32.62 0.42 C34.21 0.7, 35.79 1.13, 37.3 1.68 C38.81 2.23, 40.3 2.92, 41.69 3.72 C43.09 4.53, 44.43 5.47, 45.66 6.5 C46.9 7.54, 48.06 8.7, 49.09 9.93 C50.12 11.16, 51.06 12.5, 51.87 13.9 C52.67 15.29, 53.37 16.78, 53.92 18.29 C54.47 19.8, 54.89 21.38, 55.17 22.97 C55.45 24.55, 55.52 26.99, 55.59 27.8 C55.66 28.6, 55.66 26.99, 55.59 27.8" stroke="none" stroke-width="0" fill="#e1e1e1"></path><path d="M55.59 27.8 C55.59 29.41, 55.45 31.04, 55.17 32.62 C54.89 34.21, 54.47 35.79, 53.92 37.3 C53.37 38.81, 52.67 40.3, 51.87 41.69 C51.06 43.09, 50.12 44.43, 49.09 45.66 C48.06 46.9, 46.9 48.06, 45.66 49.09 C44.43 50.12, 43.09 51.06, 41.69 51.87 C40.3 52.67, 38.81 53.37, 37.3 53.92 C35.79 54.47, 34.21 54.89, 32.62 55.17 C31.04 55.45, 29.41 55.59, 27.8 55.59 C26.19 55.59, 24.55 55.45, 22.97 55.17 C21.38 54.89, 19.8 54.47, 18.29 53.92 C16.78 53.37, 15.29 52.67, 13.9 51.87 C12.5 51.06, 11.16 50.12, 9.93 49.09 C8.7 48.06, 7.54 46.9, 6.5 45.66 C5.47 44.43, 4.53 43.09, 3.72 41.69 C2.92 40.3, 2.23 38.81, 1.68 37.3 C1.13 35.79, 0.7 34.21, 0.42 32.62 C0.14 31.04, 0 29.41, 0 27.8 C0 26.19, 0.14 24.55, 0.42 22.97 C0.7 21.38, 1.13 19.8, 1.68 18.29 C2.23 16.78, 2.92 15.29, 3.72 13.9 C4.53 12.5, 5.47 11.16, 6.5 9.93 C7.54 8.7, 8.7 7.54, 9.93 6.5 C11.16 5.47, 12.5 4.53, 13.9 3.72 C15.29 2.92, 16.78 2.23, 18.29 1.68 C19.8 1.13, 21.38 0.7, 22.97 0.42 C24.55 0.14, 26.19 0, 27.8 0 C29.41 0, 31.04 0.14, 32.62 0.42 C34.21 0.7, 35.79 1.13, 37.3 1.68 C38.81 2.23, 40.3 2.92, 41.69 3.72 C43.09 4.53, 44.43 5.47, 45.66 6.5 C46.9 7.54, 48.06 8.7, 49.09 9.93 C50.12 11.16, 51.06 12.5, 51.87 13.9 C52.67 15.29, 53.37 16.78, 53.92 18.29 C54.47 19.8, 54.89 21.38, 55.17 22.97 C55.45 24.55, 55.52 26.99, 55.59 27.8 C55.66 28.6, 55.66 26.99, 55.59 27.8" stroke="#E1E1E1" stroke-width="4" fill="none"></path></g></svg>