<svg version="1.1" xmlns="http://www.w3.org/2000/svg" viewBox="0 0 1311.6978434023058 1115.0347856667668" width="1311.6978434023058" height="1115.0347856667668" class="excalidraw-svg"><!-- svg-source:excalidraw --><metadata></metadata><defs><style class="style-fonts">
      </style></defs><rect x="0" y="0" width="1311.6978434023058" height="1115.0347856667668" fill="#000000"></rect><g stroke-linecap="round"><g transform="translate(1074.6485527054874 428.65531942986627) rotate(0 109.0266637501777 137.67461607690598)"><path d="M0 0 C4.09 -0.82, 14.83 -3.69, 24.56 -4.9 C34.29 -6.11, 46.16 -7.62, 58.37 -7.25 C70.58 -6.87, 85.88 -4.8, 97.82 -2.65 C109.75 -0.5, 119.08 1.39, 129.98 5.66 C140.88 9.93, 152.84 15.82, 163.22 22.97 C173.6 30.13, 184.22 39.62, 192.28 48.61 C200.34 57.6, 206.37 66.88, 211.58 76.9 C216.79 86.93, 220.97 98, 223.54 108.77 C226.1 119.55, 227.37 130.26, 226.98 141.55 C226.6 152.84, 224.37 165.54, 221.22 176.5 C218.08 187.45, 215.1 196.32, 208.12 207.26 C201.14 218.19, 189.7 232.5, 179.34 242.11 C168.97 251.71, 157.52 258.99, 145.92 264.87 C134.32 270.74, 123.55 274.4, 109.74 277.36 C95.92 280.31, 78.93 282.22, 63.03 282.6 C47.12 282.97, 26.31 280.89, 14.32 279.59 C2.33 278.29, -5.05 275.6, -8.93 274.81 M0 0 C4.09 -0.82, 14.83 -3.69, 24.56 -4.9 C34.29 -6.11, 46.16 -7.62, 58.37 -7.25 C70.58 -6.87, 85.88 -4.8, 97.82 -2.65 C109.75 -0.5, 119.08 1.39, 129.98 5.66 C140.88 9.93, 152.84 15.82, 163.22 22.97 C173.6 30.13, 184.22 39.62, 192.28 48.61 C200.34 57.6, 206.37 66.88, 211.58 76.9 C216.79 86.93, 220.97 98, 223.54 108.77 C226.1 119.55, 227.37 130.26, 226.98 141.55 C226.6 152.84, 224.37 165.54, 221.22 176.5 C218.08 187.45, 215.1 196.32, 208.12 207.26 C201.14 218.19, 189.7 232.5, 179.34 242.11 C168.97 251.71, 157.52 258.99, 145.92 264.87 C134.32 270.74, 123.55 274.4, 109.74 277.36 C95.92 280.31, 78.93 282.22, 63.03 282.6 C47.12 282.97, 26.31 280.89, 14.32 279.59 C2.33 278.29, -5.05 275.6, -8.93 274.81" stroke="#E1E1E1" stroke-width="4" fill="none"></path></g></g><mask></mask><g stroke-linecap="round"><g transform="translate(1161.408597385629 710.1624359191087) rotate(0 -94.2578502843412 -145.17851583786853)"><path d="M0 0 C-0.34 5.38, -0.06 18.33, -2.06 32.26 C-4.06 46.19, -7.99 68.14, -12.01 83.61 C-16.03 99.08, -20.73 111.75, -26.19 125.09 C-31.64 138.43, -37.8 152.86, -44.73 163.63 C-51.65 174.41, -60 184.61, -67.75 189.71 C-75.49 194.82, -83.64 194.99, -91.22 194.24 C-98.8 193.49, -105.68 191.5, -113.21 185.21 C-120.75 178.92, -129.77 168.04, -136.41 156.5 C-143.05 144.95, -147.54 131.81, -153.06 115.93 C-158.59 100.05, -164.79 80.58, -169.54 61.21 C-174.28 41.85, -178.46 22.05, -181.54 -0.26 C-184.61 -22.58, -186.36 -49.49, -188.01 -72.69 C-189.65 -95.9, -191.32 -111.19, -191.39 -139.47 C-191.46 -167.75, -190.59 -211.3, -188.43 -242.38 C-186.26 -273.45, -183.48 -298.87, -178.4 -325.93 C-173.33 -352.98, -165.6 -382.49, -157.95 -404.71 C-150.3 -426.93, -142.1 -445.98, -132.5 -459.25 C-122.9 -472.52, -109.81 -480.11, -100.35 -484.33 C-90.88 -488.56, -83.68 -487.86, -75.72 -484.6 C-67.77 -481.33, -59.56 -473.63, -52.6 -464.75 C-45.64 -455.86, -39.14 -442.18, -33.97 -431.28 C-28.8 -420.39, -26.16 -413.54, -21.59 -399.37 C-17.03 -385.19, -10.18 -361.67, -6.59 -346.23 C-3 -330.8, -1.62 -316.74, -0.04 -306.75 C1.54 -296.76, 2.39 -289.69, 2.88 -286.28 M0 0 C-0.34 5.38, -0.06 18.33, -2.06 32.26 C-4.06 46.19, -7.99 68.14, -12.01 83.61 C-16.03 99.08, -20.73 111.75, -26.19 125.09 C-31.64 138.43, -37.8 152.86, -44.73 163.63 C-51.65 174.41, -60 184.61, -67.75 189.71 C-75.49 194.82, -83.64 194.99, -91.22 194.24 C-98.8 193.49, -105.68 191.5, -113.21 185.21 C-120.75 178.92, -129.77 168.04, -136.41 156.5 C-143.05 144.95, -147.54 131.81, -153.06 115.93 C-158.59 100.05, -164.79 80.58, -169.54 61.21 C-174.28 41.85, -178.46 22.05, -181.54 -0.26 C-184.61 -22.58, -186.36 -49.49, -188.01 -72.69 C-189.65 -95.9, -191.32 -111.19, -191.39 -139.47 C-191.46 -167.75, -190.59 -211.3, -188.43 -242.38 C-186.26 -273.45, -183.48 -298.87, -178.4 -325.93 C-173.33 -352.98, -165.6 -382.49, -157.95 -404.71 C-150.3 -426.93, -142.1 -445.98, -132.5 -459.25 C-122.9 -472.52, -109.81 -480.11, -100.35 -484.33 C-90.88 -488.56, -83.68 -487.86, -75.72 -484.6 C-67.77 -481.33, -59.56 -473.63, -52.6 -464.75 C-45.64 -455.86, -39.14 -442.18, -33.97 -431.28 C-28.8 -420.39, -26.16 -413.54, -21.59 -399.37 C-17.03 -385.19, -10.18 -361.67, -6.59 -346.23 C-3 -330.8, -1.62 -316.74, -0.04 -306.75 C1.54 -296.76, 2.39 -289.69, 2.88 -286.28" stroke="#E1E1E1" stroke-width="4" fill="none"></path></g></g><mask></mask><g stroke-linecap="round"><g transform="translate(1109.4440181364535 421.79984702241245) rotate(0 -31.886570867915452 145.3235901151122)"><path d="M0 0 C-1.21 -1.5, -4.12 -7.28, -7.28 -9.01 C-10.43 -10.73, -15 -11.41, -18.94 -10.38 C-22.87 -9.34, -27.15 -6.44, -30.89 -2.81 C-34.63 0.83, -37.78 4.73, -41.38 11.43 C-44.98 18.14, -49.28 26.27, -52.5 37.45 C-55.71 48.62, -58.57 62.06, -60.66 78.46 C-62.76 94.86, -64.78 116.23, -65.06 135.86 C-65.33 155.48, -63.89 177.56, -62.3 196.2 C-60.72 214.85, -58.44 233.78, -55.55 247.73 C-52.65 261.68, -49.81 271.05, -44.9 279.9 C-40 288.75, -32.51 297.31, -26.12 300.83 C-19.74 304.35, -11.14 302.94, -6.57 301.02 C-2.01 299.11, -0.03 291.29, 1.28 289.34 M0 0 C-1.21 -1.5, -4.12 -7.28, -7.28 -9.01 C-10.43 -10.73, -15 -11.41, -18.94 -10.38 C-22.87 -9.34, -27.15 -6.44, -30.89 -2.81 C-34.63 0.83, -37.78 4.73, -41.38 11.43 C-44.98 18.14, -49.28 26.27, -52.5 37.45 C-55.71 48.62, -58.57 62.06, -60.66 78.46 C-62.76 94.86, -64.78 116.23, -65.06 135.86 C-65.33 155.48, -63.89 177.56, -62.3 196.2 C-60.72 214.85, -58.44 233.78, -55.55 247.73 C-52.65 261.68, -49.81 271.05, -44.9 279.9 C-40 288.75, -32.51 297.31, -26.12 300.83 C-19.74 304.35, -11.14 302.94, -6.57 301.02 C-2.01 299.11, -0.03 291.29, 1.28 289.34" stroke="#E1E1E1" stroke-width="4" fill="none"></path></g></g><mask></mask><g stroke-linecap="round"><g transform="translate(1068.2365074711033 223.38673743975642) rotate(0 -126.83017632797737 43.06583119096956)"><path d="M0 0 C-4.86 0.18, -15.7 -0.24, -29.17 1.1 C-42.64 2.44, -63.11 4.09, -80.81 8.04 C-98.51 11.99, -116.31 17.85, -135.36 24.79 C-154.4 31.73, -178.81 41.96, -195.07 49.69 C-211.33 57.43, -223.15 65.13, -232.92 71.2 C-242.68 77.28, -250.2 83.64, -253.66 86.13 M0 0 C-4.86 0.18, -15.7 -0.24, -29.17 1.1 C-42.64 2.44, -63.11 4.09, -80.81 8.04 C-98.51 11.99, -116.31 17.85, -135.36 24.79 C-154.4 31.73, -178.81 41.96, -195.07 49.69 C-211.33 57.43, -223.15 65.13, -232.92 71.2 C-242.68 77.28, -250.2 83.64, -253.66 86.13" stroke="#E1E1E1" stroke-width="4" fill="none"></path></g></g><mask></mask><g stroke-linecap="round"><g transform="translate(908.2901877676577 256.42389123743396) rotate(0 -58.106486095354285 297.9271078291008)"><path d="M0 0 C-0.83 -3.12, -1.73 -11.18, -5.01 -18.73 C-8.28 -26.29, -14.52 -39.13, -19.66 -45.32 C-24.79 -51.51, -30.39 -55.47, -35.81 -55.89 C-41.23 -56.3, -46.96 -52.78, -52.18 -47.82 C-57.4 -42.87, -62.3 -34.97, -67.13 -26.14 C-71.97 -17.31, -77.16 -6.15, -81.21 5.16 C-85.25 16.48, -88 25.07, -91.39 41.75 C-94.78 58.43, -98.2 81.53, -101.55 105.22 C-104.89 128.91, -109.02 156.69, -111.47 183.89 C-113.91 211.09, -116.66 238.32, -116.21 268.42 C-115.76 298.51, -111.17 333.24, -108.77 364.46 C-106.37 395.68, -103.89 428.96, -101.81 455.73 C-99.73 482.51, -99.49 502.75, -96.28 525.11 C-93.07 547.47, -88.63 571.06, -82.55 589.91 C-76.46 608.76, -67.22 627.89, -59.77 638.19 C-52.32 648.5, -44.43 651.17, -37.84 651.74 C-31.25 652.31, -25.97 647.37, -20.23 641.61 C-14.5 635.85, -6.22 621.25, -3.42 617.18 M0 0 C-0.83 -3.12, -1.73 -11.18, -5.01 -18.73 C-8.28 -26.29, -14.52 -39.13, -19.66 -45.32 C-24.79 -51.51, -30.39 -55.47, -35.81 -55.89 C-41.23 -56.3, -46.96 -52.78, -52.18 -47.82 C-57.4 -42.87, -62.3 -34.97, -67.13 -26.14 C-71.97 -17.31, -77.16 -6.15, -81.21 5.16 C-85.25 16.48, -88 25.07, -91.39 41.75 C-94.78 58.43, -98.2 81.53, -101.55 105.22 C-104.89 128.91, -109.02 156.69, -111.47 183.89 C-113.91 211.09, -116.66 238.32, -116.21 268.42 C-115.76 298.51, -111.17 333.24, -108.77 364.46 C-106.37 395.68, -103.89 428.96, -101.81 455.73 C-99.73 482.51, -99.49 502.75, -96.28 525.11 C-93.07 547.47, -88.63 571.06, -82.55 589.91 C-76.46 608.76, -67.22 627.89, -59.77 638.19 C-52.32 648.5, -44.43 651.17, -37.84 651.74 C-31.25 652.31, -25.97 647.37, -20.23 641.61 C-14.5 635.85, -6.22 621.25, -3.42 617.18" stroke="#E1E1E1" stroke-width="4" fill="none"></path></g></g><mask></mask><g stroke-linecap="round"><g transform="translate(1079.9410112546848 905.4105405835526) rotate(0 -129.77142563643065 -40.02493604713686)"><path d="M0 0 C-6.27 0.02, -20.76 1.9, -37.61 0.12 C-54.45 -1.65, -81.96 -6.58, -101.08 -10.67 C-120.2 -14.76, -136.69 -19.48, -152.31 -24.41 C-167.93 -29.34, -179.69 -32.83, -194.81 -40.23 C-209.93 -47.64, -232.23 -62.21, -243.02 -68.86 C-253.81 -75.52, -256.79 -78.29, -259.54 -80.17 M0 0 C-6.27 0.02, -20.76 1.9, -37.61 0.12 C-54.45 -1.65, -81.96 -6.58, -101.08 -10.67 C-120.2 -14.76, -136.69 -19.48, -152.31 -24.41 C-167.93 -29.34, -179.69 -32.83, -194.81 -40.23 C-209.93 -47.64, -232.23 -62.21, -243.02 -68.86 C-253.81 -75.52, -256.79 -78.29, -259.54 -80.17" stroke="#E1E1E1" stroke-width="4" fill="none"></path></g></g><mask></mask><g stroke-linecap="round"><g transform="translate(953.2287582662047 239.5094417115556) rotate(0 -135.73493709389913 311.3124448910172)"><path d="M0 0 C-2.05 -9.3, -5.89 -34.71, -12.3 -55.83 C-18.71 -76.95, -30 -108.09, -38.44 -126.72 C-46.89 -145.35, -54.3 -156.31, -62.95 -167.6 C-71.6 -178.89, -81.79 -188.58, -90.35 -194.48 C-98.91 -200.38, -105.8 -202.41, -114.3 -202.98 C-122.8 -203.55, -132.04 -202.7, -141.35 -197.91 C-150.66 -193.11, -160.28 -186.57, -170.17 -174.22 C-180.07 -161.86, -190.84 -145.09, -200.71 -123.76 C-210.59 -102.43, -221.19 -74.53, -229.41 -46.24 C-237.62 -17.96, -244.38 15.39, -250 45.97 C-255.62 76.54, -259.81 106.86, -263.12 137.21 C-266.42 167.55, -268.41 196.82, -269.81 228.04 C-271.2 259.26, -272 289.93, -271.47 324.54 C-270.94 359.15, -269.08 398.98, -266.61 435.7 C-264.15 472.43, -261.84 509.93, -256.7 544.87 C-251.55 579.8, -244.16 613.42, -235.75 645.3 C-227.35 677.17, -217.55 710.28, -206.25 736.13 C-194.96 761.98, -178.67 786.05, -167.97 800.41 C-157.26 814.78, -150.15 818.12, -142.03 822.32 C-133.9 826.52, -127.05 826.01, -119.24 825.6 C-111.42 825.2, -103.36 824.71, -95.11 819.88 C-86.87 815.04, -78.25 807.41, -69.77 796.6 C-61.29 785.79, -51.7 769.07, -44.23 755.02 C-36.76 740.96, -30.41 726.67, -24.94 712.27 C-19.46 697.87, -14.57 679.39, -11.4 668.63 C-8.23 657.88, -6.84 651.23, -5.92 647.75 M0 0 C-2.05 -9.3, -5.89 -34.71, -12.3 -55.83 C-18.71 -76.95, -30 -108.09, -38.44 -126.72 C-46.89 -145.35, -54.3 -156.31, -62.95 -167.6 C-71.6 -178.89, -81.79 -188.58, -90.35 -194.48 C-98.91 -200.38, -105.8 -202.41, -114.3 -202.98 C-122.8 -203.55, -132.04 -202.7, -141.35 -197.91 C-150.66 -193.11, -160.28 -186.57, -170.17 -174.22 C-180.07 -161.86, -190.84 -145.09, -200.71 -123.76 C-210.59 -102.43, -221.19 -74.53, -229.41 -46.24 C-237.62 -17.96, -244.38 15.39, -250 45.97 C-255.62 76.54, -259.81 106.86, -263.12 137.21 C-266.42 167.55, -268.41 196.82, -269.81 228.04 C-271.2 259.26, -272 289.93, -271.47 324.54 C-270.94 359.15, -269.08 398.98, -266.61 435.7 C-264.15 472.43, -261.84 509.93, -256.7 544.87 C-251.55 579.8, -244.16 613.42, -235.75 645.3 C-227.35 677.17, -217.55 710.28, -206.25 736.13 C-194.96 761.98, -178.67 786.05, -167.97 800.41 C-157.26 814.78, -150.15 818.12, -142.03 822.32 C-133.9 826.52, -127.05 826.01, -119.24 825.6 C-111.42 825.2, -103.36 824.71, -95.11 819.88 C-86.87 815.04, -78.25 807.41, -69.77 796.6 C-61.29 785.79, -51.7 769.07, -44.23 755.02 C-36.76 740.96, -30.41 726.67, -24.94 712.27 C-19.46 697.87, -14.57 679.39, -11.4 668.63 C-8.23 657.88, -6.84 651.23, -5.92 647.75" stroke="#E1E1E1" stroke-width="4" fill="none"></path></g></g><mask></mask><g stroke-linecap="round"><g transform="translate(1143.660395438932 712.0203422848303) rotate(0 -55.38469654582332 95.0283860281072)"><path d="M0 0 C-1.67 7.92, -4.61 29.91, -10.04 47.49 C-15.48 65.07, -24.18 90.17, -32.61 105.48 C-41.04 120.8, -51.07 134.06, -60.61 139.39 C-70.15 144.71, -81.49 139.73, -89.85 137.45 C-98.21 135.17, -109.07 123.54, -110.77 125.68 C-112.47 127.83, -104.68 142.15, -100.05 150.3 C-95.42 158.45, -87.5 168.59, -82.99 174.59 C-78.48 180.58, -77.36 183.68, -72.98 186.26 C-68.6 188.84, -59.44 189.42, -56.73 190.06 M0 0 C-1.67 7.92, -4.61 29.91, -10.04 47.49 C-15.48 65.07, -24.18 90.17, -32.61 105.48 C-41.04 120.8, -51.07 134.06, -60.61 139.39 C-70.15 144.71, -81.49 139.73, -89.85 137.45 C-98.21 135.17, -109.07 123.54, -110.77 125.68 C-112.47 127.83, -104.68 142.15, -100.05 150.3 C-95.42 158.45, -87.5 168.59, -82.99 174.59 C-78.48 180.58, -77.36 183.68, -72.98 186.26 C-68.6 188.84, -59.44 189.42, -56.73 190.06" stroke="#E1E1E1" stroke-width="4" fill="none"></path></g></g><mask></mask><g stroke-linecap="round"><g transform="translate(1033.0098989331746 838.3978784218398) rotate(0 8.902798561988675 -304.80033398903834)"><path d="M0 0 C-1.75 -5.21, -6.26 -16.95, -10.52 -31.23 C-14.77 -45.51, -21.4 -65.76, -25.52 -85.67 C-29.63 -105.58, -32.98 -126.61, -35.19 -150.7 C-37.41 -174.79, -37.82 -204.53, -38.81 -230.21 C-39.8 -255.89, -41.32 -280.81, -41.12 -304.78 C-40.93 -328.76, -39.54 -350.74, -37.65 -374.06 C-35.76 -397.37, -34.04 -421.15, -29.77 -444.67 C-25.49 -468.19, -18.5 -494.31, -12.01 -515.19 C-5.51 -536.07, 1.08 -554.89, 9.23 -569.94 C17.38 -584.99, 28.6 -598.88, 36.88 -605.49 C45.16 -612.1, 55.26 -608.92, 58.93 -609.6 M0 0 C-1.75 -5.21, -6.26 -16.95, -10.52 -31.23 C-14.77 -45.51, -21.4 -65.76, -25.52 -85.67 C-29.63 -105.58, -32.98 -126.61, -35.19 -150.7 C-37.41 -174.79, -37.82 -204.53, -38.81 -230.21 C-39.8 -255.89, -41.32 -280.81, -41.12 -304.78 C-40.93 -328.76, -39.54 -350.74, -37.65 -374.06 C-35.76 -397.37, -34.04 -421.15, -29.77 -444.67 C-25.49 -468.19, -18.5 -494.31, -12.01 -515.19 C-5.51 -536.07, 1.08 -554.89, 9.23 -569.94 C17.38 -584.99, 28.6 -598.88, 36.88 -605.49 C45.16 -612.1, 55.26 -608.92, 58.93 -609.6" stroke="#E1E1E1" stroke-width="4" fill="none"></path></g></g><mask></mask><g stroke-linecap="round" transform="translate(1112.460844493031 451.4518906549897) rotate(0 62.18598308184937 53.715119134336874)"><path d="M124.37 53.72 C124.37 55.87, 124.22 58.05, 123.92 60.19 C123.62 62.33, 123.16 64.47, 122.56 66.57 C121.97 68.67, 121.22 70.74, 120.33 72.76 C119.44 74.78, 118.41 76.77, 117.25 78.68 C116.09 80.59, 114.78 82.45, 113.36 84.23 C111.94 86, 110.39 87.72, 108.73 89.33 C107.08 90.95, 105.29 92.49, 103.42 93.92 C101.55 95.35, 99.57 96.7, 97.51 97.92 C95.46 99.15, 93.3 100.27, 91.09 101.28 C88.87 102.28, 86.57 103.17, 84.24 103.94 C81.9 104.7, 79.49 105.35, 77.07 105.87 C74.64 106.39, 72.16 106.78, 69.68 107.04 C67.2 107.3, 64.68 107.43, 62.19 107.43 C59.69 107.43, 57.17 107.3, 54.69 107.04 C52.21 106.78, 49.73 106.39, 47.3 105.87 C44.88 105.35, 42.47 104.7, 40.13 103.94 C37.8 103.17, 35.5 102.28, 33.29 101.28 C31.07 100.27, 28.92 99.15, 26.86 97.92 C24.8 96.7, 22.82 95.35, 20.95 93.92 C19.08 92.49, 17.3 90.95, 15.64 89.33 C13.98 87.72, 12.43 86, 11.01 84.23 C9.59 82.45, 8.28 80.59, 7.12 78.68 C5.96 76.77, 4.93 74.78, 4.04 72.76 C3.16 70.74, 2.4 68.67, 1.81 66.57 C1.21 64.47, 0.75 62.33, 0.45 60.19 C0.15 58.05, 0 55.87, 0 53.72 C0 51.56, 0.15 49.38, 0.45 47.24 C0.75 45.1, 1.21 42.96, 1.81 40.86 C2.4 38.76, 3.16 36.69, 4.04 34.67 C4.93 32.65, 5.96 30.66, 7.12 28.75 C8.28 26.84, 9.59 24.98, 11.01 23.2 C12.43 21.43, 13.98 19.71, 15.64 18.1 C17.3 16.48, 19.08 14.94, 20.95 13.51 C22.82 12.08, 24.8 10.73, 26.86 9.51 C28.92 8.28, 31.07 7.16, 33.29 6.15 C35.5 5.15, 37.8 4.26, 40.13 3.49 C42.47 2.73, 44.88 2.08, 47.3 1.56 C49.73 1.04, 52.21 0.65, 54.69 0.39 C57.17 0.13, 59.69 0, 62.19 0 C64.68 0, 67.2 0.13, 69.68 0.39 C72.16 0.65, 74.64 1.04, 77.07 1.56 C79.49 2.08, 81.9 2.73, 84.24 3.49 C86.57 4.26, 88.87 5.15, 91.09 6.15 C93.3 7.16, 95.46 8.28, 97.51 9.51 C99.57 10.73, 101.55 12.08, 103.42 13.51 C105.29 14.94, 107.08 16.48, 108.73 18.1 C110.39 19.71, 111.94 21.43, 113.36 23.2 C114.78 24.98, 116.09 26.84, 117.25 28.75 C118.41 30.66, 119.44 32.65, 120.33 34.67 C121.22 36.69, 121.97 38.76, 122.56 40.86 C123.16 42.96, 123.62 45.1, 123.92 47.24 C124.22 49.38, 124.37 51.56, 124.37 53.72" stroke="#E1E1E1" stroke-width="4" fill="none"></path></g><g stroke-linecap="round"><g transform="translate(1046.9278909515642 602.3517216013702) rotate(0 117.48811522694677 -56.29942947143536)"><path d="M0 0 C5.06 5.26, 17.79 22.51, 30.34 31.54 C42.9 40.57, 57.55 49.04, 75.31 54.18 C93.07 59.33, 117.99 63.68, 136.9 62.42 C155.8 61.16, 174.81 54.98, 188.75 46.6 C202.69 38.23, 212.83 26.67, 220.53 12.17 C228.24 -2.33, 235.38 -20.64, 234.98 -40.37 C234.57 -60.1, 226.94 -87.94, 218.12 -106.22 C209.29 -124.5, 195.75 -138.6, 182.03 -150.06 C168.32 -161.53, 143.51 -170.86, 135.81 -175.02 M0 0 C5.06 5.26, 17.79 22.51, 30.34 31.54 C42.9 40.57, 57.55 49.04, 75.31 54.18 C93.07 59.33, 117.99 63.68, 136.9 62.42 C155.8 61.16, 174.81 54.98, 188.75 46.6 C202.69 38.23, 212.83 26.67, 220.53 12.17 C228.24 -2.33, 235.38 -20.64, 234.98 -40.37 C234.57 -60.1, 226.94 -87.94, 218.12 -106.22 C209.29 -124.5, 195.75 -138.6, 182.03 -150.06 C168.32 -161.53, 143.51 -170.86, 135.81 -175.02" stroke="#E1E1E1" stroke-width="4" fill="none"></path></g></g><mask></mask><g stroke-linecap="round"><g transform="translate(1002.9839026856935 811.4781346762529) rotate(0 -105.17710217714512 -143.40837196906637)"><path d="M0 0 C-9.53 -5.22, -37.79 -19.01, -57.15 -31.32 C-76.52 -43.63, -99.04 -58.2, -116.2 -73.85 C-133.36 -89.51, -147.68 -106.75, -160.09 -125.26 C-172.5 -143.77, -183.06 -166.58, -190.64 -184.91 C-198.22 -203.24, -202.28 -218.26, -205.57 -235.24 C-208.86 -252.23, -209.56 -278.22, -210.35 -286.82 M0 0 C-9.53 -5.22, -37.79 -19.01, -57.15 -31.32 C-76.52 -43.63, -99.04 -58.2, -116.2 -73.85 C-133.36 -89.51, -147.68 -106.75, -160.09 -125.26 C-172.5 -143.77, -183.06 -166.58, -190.64 -184.91 C-198.22 -203.24, -202.28 -218.26, -205.57 -235.24 C-208.86 -252.23, -209.56 -278.22, -210.35 -286.82" stroke="#E1E1E1" stroke-width="4" fill="none"></path></g></g><mask></mask><g stroke-linecap="round"><g transform="translate(846.6434587873027 1063.1372247626732) rotate(0 -61.77479968903117 -510.38724819457593)"><path d="M0 0 C-3.92 -2.13, -15.3 -5.35, -23.5 -12.75 C-31.7 -20.15, -39.99 -28.74, -49.19 -44.42 C-58.38 -60.1, -70.65 -87.69, -78.67 -106.84 C-86.69 -125.99, -91.43 -138.8, -97.31 -159.33 C-103.19 -179.85, -108.96 -204.19, -113.92 -229.99 C-118.88 -255.79, -123.41 -279.12, -127.06 -314.12 C-130.71 -349.13, -134.6 -396.93, -135.84 -440 C-137.07 -483.07, -135.65 -530.98, -134.47 -572.53 C-133.29 -614.08, -132.87 -650.03, -128.73 -689.29 C-124.6 -728.56, -118.75 -769.13, -109.66 -808.13 C-100.58 -847.12, -85.97 -892.3, -74.24 -923.28 C-62.51 -954.25, -50.58 -978.11, -39.28 -993.99 C-27.98 -1009.87, -15.03 -1014.09, -6.43 -1018.56 C2.16 -1023.02, 9.17 -1020.4, 12.29 -1020.77 M0 0 C-3.92 -2.13, -15.3 -5.35, -23.5 -12.75 C-31.7 -20.15, -39.99 -28.74, -49.19 -44.42 C-58.38 -60.1, -70.65 -87.69, -78.67 -106.84 C-86.69 -125.99, -91.43 -138.8, -97.31 -159.33 C-103.19 -179.85, -108.96 -204.19, -113.92 -229.99 C-118.88 -255.79, -123.41 -279.12, -127.06 -314.12 C-130.71 -349.13, -134.6 -396.93, -135.84 -440 C-137.07 -483.07, -135.65 -530.98, -134.47 -572.53 C-133.29 -614.08, -132.87 -650.03, -128.73 -689.29 C-124.6 -728.56, -118.75 -769.13, -109.66 -808.13 C-100.58 -847.12, -85.97 -892.3, -74.24 -923.28 C-62.51 -954.25, -50.58 -978.11, -39.28 -993.99 C-27.98 -1009.87, -15.03 -1014.09, -6.43 -1018.56 C2.16 -1023.02, 9.17 -1020.4, 12.29 -1020.77" stroke="#E1E1E1" stroke-width="4" fill="none"></path></g></g><mask></mask><g stroke-linecap="round"><g transform="translate(825.7041913569092 36.91275240680784) rotate(0 -108.59456806337266 17.701017757084855)"><path d="M0 0 C-5.06 0.11, -16.2 -0.32, -30.36 0.66 C-44.51 1.64, -65.3 2.96, -84.94 5.9 C-104.57 8.83, -129.31 14.25, -148.17 18.3 C-167.02 22.34, -186.55 27.31, -198.05 30.16 C-209.56 33.01, -214 34.53, -217.19 35.4 M0 0 C-5.06 0.11, -16.2 -0.32, -30.36 0.66 C-44.51 1.64, -65.3 2.96, -84.94 5.9 C-104.57 8.83, -129.31 14.25, -148.17 18.3 C-167.02 22.34, -186.55 27.31, -198.05 30.16 C-209.56 33.01, -214 34.53, -217.19 35.4" stroke="#E1E1E1" stroke-width="4" fill="none"></path></g></g><mask></mask><g stroke-linecap="round"><g transform="translate(704.5644074513566 48.65300900470493) rotate(0 -110.11077837508356 509.3848847733856)"><path d="M0 0 C-3.15 -3.48, -11.43 -14.71, -18.9 -20.9 C-26.37 -27.1, -35.87 -34.6, -44.8 -37.16 C-53.72 -39.72, -62.49 -38.71, -72.46 -36.26 C-82.43 -33.8, -94.29 -31.63, -104.61 -22.44 C-114.93 -13.25, -124.42 0.95, -134.38 18.9 C-144.34 36.85, -155.4 58.84, -164.37 85.26 C-173.33 111.68, -180.76 143.55, -188.17 177.41 C-195.58 211.27, -203.67 254.14, -208.85 288.42 C-214.02 322.71, -216.74 353.26, -219.21 383.12 C-221.68 412.99, -223.01 439.1, -223.66 467.64 C-224.32 496.18, -224.21 523.31, -223.13 554.39 C-222.06 585.46, -220.05 620.41, -217.22 654.07 C-214.38 687.73, -210.92 723.97, -206.13 756.37 C-201.33 788.77, -195.02 820.49, -188.44 848.49 C-181.85 876.5, -175.59 899.18, -166.61 924.4 C-157.62 949.62, -146.87 979.32, -134.51 999.8 C-122.14 1020.27, -104.62 1037.88, -92.41 1047.24 C-80.2 1056.59, -72.17 1056.46, -61.24 1055.93 C-50.31 1055.4, -36 1049.89, -26.84 1044.06 C-17.69 1038.24, -11.35 1027.08, -6.3 1020.98 C-1.25 1014.88, 1.82 1009.71, 3.44 1007.46 M0 0 C-3.15 -3.48, -11.43 -14.71, -18.9 -20.9 C-26.37 -27.1, -35.87 -34.6, -44.8 -37.16 C-53.72 -39.72, -62.49 -38.71, -72.46 -36.26 C-82.43 -33.8, -94.29 -31.63, -104.61 -22.44 C-114.93 -13.25, -124.42 0.95, -134.38 18.9 C-144.34 36.85, -155.4 58.84, -164.37 85.26 C-173.33 111.68, -180.76 143.55, -188.17 177.41 C-195.58 211.27, -203.67 254.14, -208.85 288.42 C-214.02 322.71, -216.74 353.26, -219.21 383.12 C-221.68 412.99, -223.01 439.1, -223.66 467.64 C-224.32 496.18, -224.21 523.31, -223.13 554.39 C-222.06 585.46, -220.05 620.41, -217.22 654.07 C-214.38 687.73, -210.92 723.97, -206.13 756.37 C-201.33 788.77, -195.02 820.49, -188.44 848.49 C-181.85 876.5, -175.59 899.18, -166.61 924.4 C-157.62 949.62, -146.87 979.32, -134.51 999.8 C-122.14 1020.27, -104.62 1037.88, -92.41 1047.24 C-80.2 1056.59, -72.17 1056.46, -61.24 1055.93 C-50.31 1055.4, -36 1049.89, -26.84 1044.06 C-17.69 1038.24, -11.35 1027.08, -6.3 1020.98 C-1.25 1014.88, 1.82 1009.71, 3.44 1007.46" stroke="#E1E1E1" stroke-width="4" fill="none"></path></g></g><mask></mask><g stroke-linecap="round"><g transform="translate(819.9149750310644 1065.3929516997177) rotate(0 -110.05480065708707 -20.268137887311696)"><path d="M0 0 C-7.25 -0.34, -24.94 -0.23, -43.48 -2.04 C-62.02 -3.86, -88.59 -6.75, -111.24 -10.9 C-133.88 -15.05, -161.21 -22, -179.35 -26.94 C-197.5 -31.88, -213.32 -38.27, -220.11 -40.54 M0 0 C-7.25 -0.34, -24.94 -0.23, -43.48 -2.04 C-62.02 -3.86, -88.59 -6.75, -111.24 -10.9 C-133.88 -15.05, -161.21 -22, -179.35 -26.94 C-197.5 -31.88, -213.32 -38.27, -220.11 -40.54" stroke="#E1E1E1" stroke-width="4" fill="none"></path></g></g><mask></mask><g stroke-linecap="round"><g transform="translate(694.5182559683153 1052.0932493093715) rotate(0 -84.4976393289503 -495.5137183795166)"><path d="M0 0 C-2.63 2.7, -10.42 11.9, -15.81 16.2 C-21.19 20.5, -24.83 24.43, -32.34 25.81 C-39.84 27.2, -52.78 27.54, -60.84 24.53 C-68.9 21.53, -73.1 17.91, -80.7 7.77 C-88.29 -2.37, -98.52 -18.34, -106.43 -36.31 C-114.34 -54.27, -122.12 -79.95, -128.15 -100.01 C-134.18 -120.07, -138.08 -132.27, -142.6 -156.68 C-147.12 -181.09, -151.27 -213.97, -155.28 -246.46 C-159.28 -278.95, -164.33 -319.92, -166.62 -351.62 C-168.91 -383.32, -169.36 -385.85, -169 -436.67 C-168.63 -487.48, -168.9 -589.89, -164.42 -656.53 C-159.93 -723.16, -150.88 -788.1, -142.07 -836.48 C-133.27 -884.86, -123.32 -918.17, -111.58 -946.8 C-99.85 -975.43, -83.97 -996.57, -71.66 -1008.25 C-59.34 -1019.92, -47.69 -1018.44, -37.67 -1016.84 C-27.65 -1015.24, -15.9 -1001.66, -11.54 -998.63 M0 0 C-2.63 2.7, -10.42 11.9, -15.81 16.2 C-21.19 20.5, -24.83 24.43, -32.34 25.81 C-39.84 27.2, -52.78 27.54, -60.84 24.53 C-68.9 21.53, -73.1 17.91, -80.7 7.77 C-88.29 -2.37, -98.52 -18.34, -106.43 -36.31 C-114.34 -54.27, -122.12 -79.95, -128.15 -100.01 C-134.18 -120.07, -138.08 -132.27, -142.6 -156.68 C-147.12 -181.09, -151.27 -213.97, -155.28 -246.46 C-159.28 -278.95, -164.33 -319.92, -166.62 -351.62 C-168.91 -383.32, -169.36 -385.85, -169 -436.67 C-168.63 -487.48, -168.9 -589.89, -164.42 -656.53 C-159.93 -723.16, -150.88 -788.1, -142.07 -836.48 C-133.27 -884.86, -123.32 -918.17, -111.58 -946.8 C-99.85 -975.43, -83.97 -996.57, -71.66 -1008.25 C-59.34 -1019.92, -47.69 -1018.44, -37.67 -1016.84 C-27.65 -1015.24, -15.9 -1001.66, -11.54 -998.63" stroke="#E1E1E1" stroke-width="4" fill="none"></path></g></g><mask></mask><g stroke-linecap="round"><g transform="translate(607.7013201031759 72.57099468815477) rotate(0 -35.54791070041756 476.10605948287207)"><path d="M0 0 C-1.81 5.1, -6.48 17.94, -10.89 30.59 C-15.29 43.24, -21.92 60.32, -26.42 75.92 C-30.91 91.52, -34.25 106.99, -37.85 124.19 C-41.46 141.4, -44.51 158.16, -48.07 179.16 C-51.62 200.17, -56.22 227.01, -59.18 250.24 C-62.14 273.47, -64.08 294.94, -65.83 318.56 C-67.57 342.18, -68.78 368.05, -69.65 391.97 C-70.53 415.9, -70.89 439.01, -71.1 462.13 C-71.3 485.24, -71.38 504.56, -70.88 530.67 C-70.38 556.77, -69.36 595.06, -68.07 618.75 C-66.78 642.45, -65.18 651.49, -63.12 672.84 C-61.05 694.2, -58.69 724.27, -55.68 746.87 C-52.68 769.46, -48.36 790.83, -45.1 808.4 C-41.84 825.97, -40.14 835.5, -36.11 852.29 C-32.07 869.07, -25.71 892.45, -20.88 909.1 C-16.04 925.75, -9.39 945.03, -7.09 952.21 M0 0 C-1.81 5.1, -6.48 17.94, -10.89 30.59 C-15.29 43.24, -21.92 60.32, -26.42 75.92 C-30.91 91.52, -34.25 106.99, -37.85 124.19 C-41.46 141.4, -44.51 158.16, -48.07 179.16 C-51.62 200.17, -56.22 227.01, -59.18 250.24 C-62.14 273.47, -64.08 294.94, -65.83 318.56 C-67.57 342.18, -68.78 368.05, -69.65 391.97 C-70.53 415.9, -70.89 439.01, -71.1 462.13 C-71.3 485.24, -71.38 504.56, -70.88 530.67 C-70.38 556.77, -69.36 595.06, -68.07 618.75 C-66.78 642.45, -65.18 651.49, -63.12 672.84 C-61.05 694.2, -58.69 724.27, -55.68 746.87 C-52.68 769.46, -48.36 790.83, -45.1 808.4 C-41.84 825.97, -40.14 835.5, -36.11 852.29 C-32.07 869.07, -25.71 892.45, -20.88 909.1 C-16.04 925.75, -9.39 945.03, -7.09 952.21" stroke="#E1E1E1" stroke-width="4" fill="none"></path></g></g><mask></mask><g stroke-linecap="round"><g transform="translate(727.669683500113 921.1566272198722) rotate(0 -88.27331358246101 -55.509769048578164)"><path d="M0 0 C-7.75 -3.58, -29.48 -12.6, -46.51 -21.46 C-63.53 -30.33, -84.91 -42.59, -102.14 -53.19 C-119.38 -63.78, -137.51 -75.4, -149.91 -85.03 C-162.31 -94.67, -172.11 -106.69, -176.55 -111.02 M0 0 C-7.75 -3.58, -29.48 -12.6, -46.51 -21.46 C-63.53 -30.33, -84.91 -42.59, -102.14 -53.19 C-119.38 -63.78, -137.51 -75.4, -149.91 -85.03 C-162.31 -94.67, -172.11 -106.69, -176.55 -111.02" stroke="#E1E1E1" stroke-width="4" fill="none"></path></g></g><mask></mask><g stroke-linecap="round"><g transform="translate(911.866368376378 877.2238455332858) rotate(0 -67.16749413950538 53.36509427465512)"><path d="M0 0 C-2.5 6.71, -8.14 26.76, -14.99 40.26 C-21.84 53.75, -31.28 70.25, -41.09 80.99 C-50.9 91.73, -62.85 100.41, -73.86 104.7 C-84.86 108.99, -97.04 107.82, -107.12 106.73 C-117.2 105.64, -129.8 99.6, -134.33 98.17 M0 0 C-2.5 6.71, -8.14 26.76, -14.99 40.26 C-21.84 53.75, -31.28 70.25, -41.09 80.99 C-50.9 91.73, -62.85 100.41, -73.86 104.7 C-84.86 108.99, -97.04 107.82, -107.12 106.73 C-117.2 105.64, -129.8 99.6, -134.33 98.17" stroke="#E1E1E1" stroke-width="4" fill="none"></path></g></g><mask></mask><g stroke-linecap="round"><g transform="translate(817.6950149158938 807.7817777420614) rotate(0 116.57895364122032 45.04643444555086)"><path d="M0 0 C11.91 6.89, 46.52 29.24, 71.46 41.35 C96.4 53.46, 126.41 64.97, 149.63 72.64 C172.85 80.31, 196.87 84.46, 210.79 87.37 C224.71 90.28, 229.43 89.64, 233.16 90.09 M0 0 C11.91 6.89, 46.52 29.24, 71.46 41.35 C96.4 53.46, 126.41 64.97, 149.63 72.64 C172.85 80.31, 196.87 84.46, 210.79 87.37 C224.71 90.28, 229.43 89.64, 233.16 90.09" stroke="#E1E1E1" stroke-width="4" fill="none"></path></g></g><mask></mask><g stroke-linecap="round"><g transform="translate(636.9626922414827 1105.0347856667668) rotate(0 -306.4438604732013 -547.4810424946832)"><path d="M0 0 C-11.2 -0.57, -40.51 -0.26, -67.22 -3.4 C-93.92 -6.53, -128.46 -11.03, -160.25 -18.81 C-192.04 -26.59, -225.29 -36.91, -257.96 -50.07 C-290.62 -63.24, -327.85 -81.45, -356.25 -97.8 C-384.64 -114.16, -405.43 -129.35, -428.32 -148.21 C-451.22 -167.06, -473.29 -188.18, -493.63 -210.94 C-513.98 -233.7, -533.62 -257.87, -550.39 -284.77 C-567.16 -311.67, -583.54 -347.42, -594.24 -372.33 C-604.94 -397.24, -609.31 -408.72, -614.61 -434.21 C-619.91 -459.7, -624.61 -494.64, -626.03 -525.28 C-627.45 -555.92, -627.79 -586.61, -623.12 -618.04 C-618.46 -649.48, -611.73 -679.37, -598.03 -713.88 C-584.32 -748.39, -566.02 -789.04, -540.88 -825.08 C-515.73 -861.12, -482.78 -898.8, -447.14 -930.11 C-411.5 -961.42, -367.21 -990.88, -327.03 -1012.94 C-286.85 -1035, -243.87 -1050.38, -206.06 -1062.48 C-168.25 -1074.58, -129.11 -1080.28, -100.19 -1085.53 C-71.26 -1090.77, -51.39 -1092.37, -32.5 -1093.95 C-13.61 -1095.52, 5.53 -1094.79, 13.14 -1094.96 M0 0 C-11.2 -0.57, -40.51 -0.26, -67.22 -3.4 C-93.92 -6.53, -128.46 -11.03, -160.25 -18.81 C-192.04 -26.59, -225.29 -36.91, -257.96 -50.07 C-290.62 -63.24, -327.85 -81.45, -356.25 -97.8 C-384.64 -114.16, -405.43 -129.35, -428.32 -148.21 C-451.22 -167.06, -473.29 -188.18, -493.63 -210.94 C-513.98 -233.7, -533.62 -257.87, -550.39 -284.77 C-567.16 -311.67, -583.54 -347.42, -594.24 -372.33 C-604.94 -397.24, -609.31 -408.72, -614.61 -434.21 C-619.91 -459.7, -624.61 -494.64, -626.03 -525.28 C-627.45 -555.92, -627.79 -586.61, -623.12 -618.04 C-618.46 -649.48, -611.73 -679.37, -598.03 -713.88 C-584.32 -748.39, -566.02 -789.04, -540.88 -825.08 C-515.73 -861.12, -482.78 -898.8, -447.14 -930.11 C-411.5 -961.42, -367.21 -990.88, -327.03 -1012.94 C-286.85 -1035, -243.87 -1050.38, -206.06 -1062.48 C-168.25 -1074.58, -129.11 -1080.28, -100.19 -1085.53 C-71.26 -1090.77, -51.39 -1092.37, -32.5 -1093.95 C-13.61 -1095.52, 5.53 -1094.79, 13.14 -1094.96" stroke="#E1E1E1" stroke-width="4" fill="none"></path></g></g><mask></mask><g stroke-linecap="round"><g transform="translate(603.7243213104539 22.40973741720859) rotate(0 -280.38826773626306 534.4048102892417)"><path d="M0 0 C-9.98 1.42, -37.18 3.87, -59.85 8.51 C-82.53 13.14, -107.46 19.08, -136.05 27.82 C-164.64 36.55, -202.66 48.43, -231.39 60.92 C-260.13 73.41, -283.81 86.9, -308.44 102.76 C-333.06 118.62, -357.97 137.83, -379.16 156.08 C-400.35 174.33, -417.07 190.61, -435.58 212.27 C-454.09 233.92, -475.25 262.57, -490.23 285.98 C-505.21 309.4, -515.13 327.43, -525.47 352.76 C-535.81 378.08, -546.08 410.09, -552.26 437.91 C-558.45 465.73, -560.87 495.38, -562.58 519.69 C-564.29 544.01, -565.14 560.2, -562.54 583.79 C-559.94 607.38, -554.59 635.98, -546.99 661.26 C-539.38 686.54, -528.06 712.1, -516.89 735.44 C-505.72 758.79, -494.04 780.43, -479.98 801.34 C-465.92 822.25, -449.64 842.08, -432.53 860.9 C-415.42 879.72, -395.79 898.37, -377.34 914.29 C-358.89 930.21, -342.64 942.66, -321.83 956.45 C-301.01 970.23, -278.83 984.26, -252.45 996.99 C-226.07 1009.72, -190.88 1023.07, -163.56 1032.81 C-136.24 1042.55, -110.39 1050.09, -88.53 1055.43 C-66.67 1060.78, -47.46 1062.68, -32.41 1064.91 C-17.35 1067.14, -3.9 1068.16, 1.8 1068.81 M0 0 C-9.98 1.42, -37.18 3.87, -59.85 8.51 C-82.53 13.14, -107.46 19.08, -136.05 27.82 C-164.64 36.55, -202.66 48.43, -231.39 60.92 C-260.13 73.41, -283.81 86.9, -308.44 102.76 C-333.06 118.62, -357.97 137.83, -379.16 156.08 C-400.35 174.33, -417.07 190.61, -435.58 212.27 C-454.09 233.92, -475.25 262.57, -490.23 285.98 C-505.21 309.4, -515.13 327.43, -525.47 352.76 C-535.81 378.08, -546.08 410.09, -552.26 437.91 C-558.45 465.73, -560.87 495.38, -562.58 519.69 C-564.29 544.01, -565.14 560.2, -562.54 583.79 C-559.94 607.38, -554.59 635.98, -546.99 661.26 C-539.38 686.54, -528.06 712.1, -516.89 735.44 C-505.72 758.79, -494.04 780.43, -479.98 801.34 C-465.92 822.25, -449.64 842.08, -432.53 860.9 C-415.42 879.72, -395.79 898.37, -377.34 914.29 C-358.89 930.21, -342.64 942.66, -321.83 956.45 C-301.01 970.23, -278.83 984.26, -252.45 996.99 C-226.07 1009.72, -190.88 1023.07, -163.56 1032.81 C-136.24 1042.55, -110.39 1050.09, -88.53 1055.43 C-66.67 1060.78, -47.46 1062.68, -32.41 1064.91 C-17.35 1067.14, -3.9 1068.16, 1.8 1068.81" stroke="#E1E1E1" stroke-width="4" fill="none"></path></g></g><mask></mask><g stroke-linecap="round"><g transform="translate(530.1870744487815 950.7895545157858) rotate(0 -140.61480230011057 -453.6713662389808)"><path d="M0 0 C-6.39 -2.31, -21.63 -5.86, -38.34 -13.83 C-55.05 -21.81, -77.31 -32.67, -100.26 -47.84 C-123.21 -63.01, -153.47 -85.04, -176.03 -104.84 C-198.6 -124.65, -219.05 -146.67, -235.66 -166.66 C-252.27 -186.65, -263.69 -203.89, -275.72 -224.77 C-287.74 -245.66, -299.46 -271.83, -307.79 -291.98 C-316.12 -312.12, -321.07 -319.54, -325.7 -345.64 C-330.32 -371.73, -336.1 -412.73, -335.53 -448.55 C-334.96 -484.38, -331.5 -525.73, -322.27 -560.58 C-313.04 -595.42, -298.47 -625.86, -280.15 -657.62 C-261.82 -689.39, -238.53 -722.76, -212.34 -751.18 C-186.15 -779.61, -152.21 -807.54, -123.01 -828.16 C-93.82 -848.77, -60.76 -863.47, -37.17 -874.87 C-13.57 -886.27, 3.33 -891.17, 18.57 -896.58 C33.82 -901.99, 48.34 -905.55, 54.3 -907.34 M0 0 C-6.39 -2.31, -21.63 -5.86, -38.34 -13.83 C-55.05 -21.81, -77.31 -32.67, -100.26 -47.84 C-123.21 -63.01, -153.47 -85.04, -176.03 -104.84 C-198.6 -124.65, -219.05 -146.67, -235.66 -166.66 C-252.27 -186.65, -263.69 -203.89, -275.72 -224.77 C-287.74 -245.66, -299.46 -271.83, -307.79 -291.98 C-316.12 -312.12, -321.07 -319.54, -325.7 -345.64 C-330.32 -371.73, -336.1 -412.73, -335.53 -448.55 C-334.96 -484.38, -331.5 -525.73, -322.27 -560.58 C-313.04 -595.42, -298.47 -625.86, -280.15 -657.62 C-261.82 -689.39, -238.53 -722.76, -212.34 -751.18 C-186.15 -779.61, -152.21 -807.54, -123.01 -828.16 C-93.82 -848.77, -60.76 -863.47, -37.17 -874.87 C-13.57 -886.27, 3.33 -891.17, 18.57 -896.58 C33.82 -901.99, 48.34 -905.55, 54.3 -907.34" stroke="#E1E1E1" stroke-width="4" fill="none"></path></g></g><mask></mask><g stroke-linecap="round"><g transform="translate(786.0805044536337 61.388729527528994) rotate(0 -104.58232896028494 52.72300843030894)"><path d="M0 0 C-9.99 4.12, -34.89 13.68, -59.96 24.72 C-85.03 35.77, -125.54 52.82, -150.4 66.27 C-175.27 79.73, -199.37 98.92, -209.16 105.45 M0 0 C-9.99 4.12, -34.89 13.68, -59.96 24.72 C-85.03 35.77, -125.54 52.82, -150.4 66.27 C-175.27 79.73, -199.37 98.92, -209.16 105.45" stroke="#E1E1E1" stroke-width="4" fill="none"></path></g></g><mask></mask><g stroke-linecap="round"><g transform="translate(1034.0240544006829 244.62684832316086) rotate(0 -120.46904920034649 141.94446137025943)"><path d="M0 0 C-9.9 4.25, -40.24 15.71, -59.38 25.49 C-78.51 35.27, -96.47 45.6, -114.79 58.69 C-133.12 71.79, -154.03 86.74, -169.31 104.07 C-184.59 121.41, -196.69 145.11, -206.46 162.69 C-216.23 180.27, -222.81 194.78, -227.92 209.56 C-233.04 224.34, -235 238.96, -237.17 251.35 C-239.34 263.74, -240.31 278.47, -240.94 283.89 M0 0 C-9.9 4.25, -40.24 15.71, -59.38 25.49 C-78.51 35.27, -96.47 45.6, -114.79 58.69 C-133.12 71.79, -154.03 86.74, -169.31 104.07 C-184.59 121.41, -196.69 145.11, -206.46 162.69 C-216.23 180.27, -222.81 194.78, -227.92 209.56 C-233.04 224.34, -235 238.96, -237.17 251.35 C-239.34 263.74, -240.31 278.47, -240.94 283.89" stroke="#E1E1E1" stroke-width="4" fill="none"></path></g></g><mask></mask><g stroke-linecap="round"><g transform="translate(997.4045398035723 229.98611596747196) rotate(0 -92.90578256238496 50.80231412808257)"><path d="M0 0 C-12.75 5.21, -50.82 18.54, -76.49 31.26 C-102.15 43.98, -135.76 64.62, -153.98 76.34 C-172.21 88.07, -180.51 97.39, -185.81 101.6 M0 0 C-12.75 5.21, -50.82 18.54, -76.49 31.26 C-102.15 43.98, -135.76 64.62, -153.98 76.34 C-172.21 88.07, -180.51 97.39, -185.81 101.6" stroke="#E1E1E1" stroke-width="4" fill="none"></path></g></g><mask></mask><g stroke-linecap="round"><g transform="translate(595.2354806592602 1004.0229362292221) rotate(0 102.50979337307717 25.55962528845771)"><path d="M0 0 C13.63 4.32, 55.03 18.54, 81.77 25.92 C108.51 33.3, 139.89 40.07, 160.44 44.27 C180.98 48.47, 197.59 49.98, 205.02 51.12 M0 0 C13.63 4.32, 55.03 18.54, 81.77 25.92 C108.51 33.3, 139.89 40.07, 160.44 44.27 C180.98 48.47, 197.59 49.98, 205.02 51.12" stroke="#E1E1E1" stroke-width="4" fill="none"></path></g></g><mask></mask></svg>