<svg version="1.1" xmlns="http://www.w3.org/2000/svg" viewBox="0 0 702.4491402256417 553.8518013482735" width="702.4491402256417" height="553.8518013482735" class="excalidraw-svg"><!-- svg-source:excalidraw --><metadata></metadata><defs><style class="style-fonts">
      </style></defs><rect x="0" y="0" width="702.4491402256417" height="553.8518013482735" fill="#000000"></rect><g stroke-linecap="round" transform="translate(111.41432202981025 206.84309702283758) rotate(316.19525634586233 61.226862824350704 171.12551007051133)"><path d="M30.61 0 C53.79 0, 76.97 0, 91.84 0 C112.25 0, 122.45 10.2, 122.45 30.61 C122.45 107.88, 122.45 185.14, 122.45 311.64 C122.45 332.05, 112.25 342.25, 91.84 342.25 C68.76 342.25, 45.69 342.25, 30.61 342.25 C10.2 342.25, 0 332.05, 0 311.64 C0 249.79, 0 187.95, 0 30.61 C0 10.2, 10.2 0, 30.61 0" stroke="none" stroke-width="0" fill="#E1E1E1"></path><path d="M30.61 0 C51.49 0, 72.36 0, 91.84 0 M30.61 0 C54.04 0, 77.47 0, 91.84 0 M91.84 0 C112.25 0, 122.45 10.2, 122.45 30.61 M91.84 0 C112.25 0, 122.45 10.2, 122.45 30.61 M122.45 30.61 C122.45 116.89, 122.45 203.17, 122.45 311.64 M122.45 30.61 C122.45 91.66, 122.45 152.71, 122.45 311.64 M122.45 311.64 C122.45 332.05, 112.25 342.25, 91.84 342.25 M122.45 311.64 C122.45 332.05, 112.25 342.25, 91.84 342.25 M91.84 342.25 C78.87 342.25, 65.91 342.25, 30.61 342.25 M91.84 342.25 C77.31 342.25, 62.78 342.25, 30.61 342.25 M30.61 342.25 C10.2 342.25, 0 332.05, 0 311.64 M30.61 342.25 C10.2 342.25, 0 332.05, 0 311.64 M0 311.64 C0 237.47, 0 163.3, 0 30.61 M0 311.64 C0 243.24, 0 174.83, 0 30.61 M0 30.61 C0 10.2, 10.2 0, 30.61 0 M0 30.61 C0 10.2, 10.2 0, 30.61 0" stroke="#E1E1E1" stroke-width="4" fill="none"></path></g><g stroke-linecap="round" transform="translate(363.13332453597116 -36.61908698673028) rotate(44.99999999999995 63.489696722482705 312.44520595391845)"><path d="M31.74 0 C48.32 0, 64.9 0, 95.23 0 C116.4 0, 126.98 10.58, 126.98 31.74 C126.98 145.67, 126.98 259.6, 126.98 593.15 C126.98 614.31, 116.4 624.89, 95.23 624.89 C77.65 624.89, 60.07 624.89, 31.74 624.89 C10.58 624.89, 0 614.31, 0 593.15 C0 385.55, 0 177.95, 0 31.74 C0 10.58, 10.58 0, 31.74 0" stroke="none" stroke-width="0" fill="#E1E1E1"></path><path d="M31.74 0 C53.48 0, 75.22 0, 95.23 0 M31.74 0 C45.39 0, 59.03 0, 95.23 0 M95.23 0 C116.4 0, 126.98 10.58, 126.98 31.74 M95.23 0 C116.4 0, 126.98 10.58, 126.98 31.74 M126.98 31.74 C126.98 148.49, 126.98 265.23, 126.98 593.15 M126.98 31.74 C126.98 247.78, 126.98 463.81, 126.98 593.15 M126.98 593.15 C126.98 614.31, 116.4 624.89, 95.23 624.89 M126.98 593.15 C126.98 614.31, 116.4 624.89, 95.23 624.89 M95.23 624.89 C81.68 624.89, 68.12 624.89, 31.74 624.89 M95.23 624.89 C71.93 624.89, 48.63 624.89, 31.74 624.89 M31.74 624.89 C10.58 624.89, 0 614.31, 0 593.15 M31.74 624.89 C10.58 624.89, 0 614.31, 0 593.15 M0 593.15 C0 432.2, 0 271.26, 0 31.74 M0 593.15 C0 400.44, 0 207.73, 0 31.74 M0 31.74 C0 10.58, 10.58 0, 31.74 0 M0 31.74 C0 10.58, 10.58 0, 31.74 0" stroke="#E1E1E1" stroke-width="4" fill="none"></path></g></svg>