<svg version="1.1" xmlns="http://www.w3.org/2000/svg" viewBox="0 0 462.774845960379 473.21568042979743" width="462.774845960379" height="473.21568042979743" class="excalidraw-svg">
  <!-- svg-source:excalidraw -->
  
  <defs>
    <style class="style-fonts">
      @font-face {
        font-family: "Virgil";
        src: url("https://excalidraw.com/Virgil.woff2");
      }
      @font-face {
        font-family: "Cascadia";
        src: url("https://excalidraw.com/Cascadia.woff2");
      }
      @font-face {
        font-family: "Assistant";
        src: url("https://excalidraw.com/Assistant-Regular.woff2");
      }
    </style>
    
  </defs>
  <rect x="0" y="0" width="462.774845960379" height="473.21568042979743" fill="#000000"/><g stroke-linecap="round"><g transform="translate(120.44822482476957 232.01394192589396) rotate(0 -6.1660751355368575 -12.115307928594575)"><path d="M0 0 C-2.06 -4.04, -10.28 -20.19, -12.33 -24.23 M0 0 C-2.06 -4.04, -10.28 -20.19, -12.33 -24.23" stroke="#E1E1E1" stroke-width="4" fill="none"/></g></g><mask/><g stroke-linecap="round"><g transform="translate(147.84108705523613 230.24173547512146) rotate(0 -45.356583615132195 -54.15336413298883)"><path d="M0 0 C-1.11 -4.27, -3.19 -17.61, -6.68 -25.65 C-10.17 -33.68, -14.48 -40.11, -20.95 -48.23 C-27.42 -56.35, -37.5 -66.91, -45.5 -74.36 C-53.5 -81.82, -61.41 -87.33, -68.95 -92.99 C-76.48 -98.65, -87.09 -105.75, -90.71 -108.31 M0 0 C-1.11 -4.27, -3.19 -17.61, -6.68 -25.65 C-10.17 -33.68, -14.48 -40.11, -20.95 -48.23 C-27.42 -56.35, -37.5 -66.91, -45.5 -74.36 C-53.5 -81.82, -61.41 -87.33, -68.95 -92.99 C-76.48 -98.65, -87.09 -105.75, -90.71 -108.31" stroke="#E1E1E1" stroke-width="4" fill="none"/></g></g><mask/><g stroke-linecap="round"><g transform="translate(177.93434330835953 232.0076400527687) rotate(0 -28.702065532091865 -54.266630441003144)"><path d="M0 0 C-1.01 -5.32, -1.21 -19.68, -6.05 -31.93 C-10.9 -44.18, -22.16 -62.52, -29.05 -73.5 C-35.94 -84.48, -42.65 -91.99, -47.37 -97.83 C-52.1 -103.66, -55.73 -106.75, -57.4 -108.53 M0 0 C-1.01 -5.32, -1.21 -19.68, -6.05 -31.93 C-10.9 -44.18, -22.16 -62.52, -29.05 -73.5 C-35.94 -84.48, -42.65 -91.99, -47.37 -97.83 C-52.1 -103.66, -55.73 -106.75, -57.4 -108.53" stroke="#E1E1E1" stroke-width="4" fill="none"/></g></g><mask/><g stroke-linecap="round"><g transform="translate(210.20685045913706 233.5770315965965) rotate(0 -37.64540491484149 -81.43077855520278)"><path d="M0 0 C-0.84 -5.5, -1.68 -20.1, -5.06 -33 C-8.43 -45.9, -14.39 -63.96, -20.23 -77.42 C-26.07 -90.88, -32.62 -101.79, -40.11 -113.76 C-47.61 -125.74, -59.36 -141.09, -65.22 -149.27 C-71.08 -157.45, -73.61 -160.6, -75.29 -162.86 M0 0 C-0.84 -5.5, -1.68 -20.1, -5.06 -33 C-8.43 -45.9, -14.39 -63.96, -20.23 -77.42 C-26.07 -90.88, -32.62 -101.79, -40.11 -113.76 C-47.61 -125.74, -59.36 -141.09, -65.22 -149.27 C-71.08 -157.45, -73.61 -160.6, -75.29 -162.86" stroke="#E1E1E1" stroke-width="4" fill="none"/></g></g><mask/><g stroke-linecap="round"><g transform="translate(194.17688340795576 166.90025108803275) rotate(0 -6.327479842238063 -35.27688062044763)"><path d="M0 0 C0.09 -5.75, 1.34 -25.63, 0.51 -34.51 C-0.31 -43.38, -2.7 -47.24, -4.98 -53.25 C-7.26 -59.26, -11.8 -67.67, -13.17 -70.55 M0 0 C0.09 -5.75, 1.34 -25.63, 0.51 -34.51 C-0.31 -43.38, -2.7 -47.24, -4.98 -53.25 C-7.26 -59.26, -11.8 -67.67, -13.17 -70.55" stroke="#E1E1E1" stroke-width="4" fill="none"/></g></g><mask/><g stroke-linecap="round"><g transform="translate(209.31325403056326 216.29000885660753) rotate(0 10.409648740458351 -52.63849368757428)"><path d="M0 0 C2.51 -4, 11.58 -16.08, 15.05 -24 C18.52 -31.93, 19.86 -39.05, 20.82 -47.53 C21.78 -56.02, 21.66 -65.28, 20.82 -74.91 C19.98 -84.53, 16.64 -100.22, 15.8 -105.28 M0 0 C2.51 -4, 11.58 -16.08, 15.05 -24 C18.52 -31.93, 19.86 -39.05, 20.82 -47.53 C21.78 -56.02, 21.66 -65.28, 20.82 -74.91 C19.98 -84.53, 16.64 -100.22, 15.8 -105.28" stroke="#E1E1E1" stroke-width="4" fill="none"/></g></g><mask/><g stroke-linecap="round"><g transform="translate(257.77041682238996 112.48156344484414) rotate(0 0.9243314769539666 22.526300438355975)"><path d="M0 0 C0.33 3.41, 2.02 12.98, 2 20.49 C1.97 28, 0.21 40.96, -0.15 45.05 M0 0 C0.33 3.41, 2.02 12.98, 2 20.49 C1.97 28, 0.21 40.96, -0.15 45.05" stroke="#E1E1E1" stroke-width="4" fill="none"/></g></g><mask/><g stroke-linecap="round"><g transform="translate(248.50180506179458 231.94184142655467) rotate(0 21.149500468528004 -65.16161935543141)"><path d="M0 0 C3.28 -5.19, 14.67 -22.28, 19.69 -31.12 C24.72 -39.95, 26.98 -44.65, 30.14 -53.01 C33.29 -61.36, 36.59 -71.41, 38.62 -81.24 C40.65 -91.07, 41.87 -103.81, 42.3 -111.99 C42.73 -120.17, 41.39 -127.27, 41.21 -130.32 M0 0 C3.28 -5.19, 14.67 -22.28, 19.69 -31.12 C24.72 -39.95, 26.98 -44.65, 30.14 -53.01 C33.29 -61.36, 36.59 -71.41, 38.62 -81.24 C40.65 -91.07, 41.87 -103.81, 42.3 -111.99 C42.73 -120.17, 41.39 -127.27, 41.21 -130.32" stroke="#E1E1E1" stroke-width="4" fill="none"/></g></g><mask/><g stroke-linecap="round"><g transform="translate(291.0189187734577 232.20465081761176) rotate(0 17.116069073248127 -46.66619473533319)"><path d="M0 0 C0.42 -5.44, -0.01 -21.87, 2.51 -32.66 C5.03 -43.46, 9.83 -54.66, 15.12 -64.78 C20.4 -74.89, 31.05 -88.57, 34.23 -93.33 M0 0 C0.42 -5.44, -0.01 -21.87, 2.51 -32.66 C5.03 -43.46, 9.83 -54.66, 15.12 -64.78 C20.4 -74.89, 31.05 -88.57, 34.23 -93.33" stroke="#E1E1E1" stroke-width="4" fill="none"/></g></g><mask/><g stroke-linecap="round"><g transform="translate(322.67902720403436 192.87597244038807) rotate(0 9.37080876635946 -16.178752096618155)"><path d="M0 0 C3.12 -5.39, 15.62 -26.96, 18.74 -32.36 M0 0 C3.12 -5.39, 15.62 -26.96, 18.74 -32.36" stroke="#E1E1E1" stroke-width="4" fill="none"/></g></g><mask/><g stroke-linecap="round"><g transform="translate(327.23880361580814 231.75858596709622) rotate(0 19.37284225425128 -35.029808874689024)"><path d="M0 0 C4.04 -5.36, 18.54 -23.35, 24.26 -32.17 C29.98 -40.98, 31.91 -46.57, 34.33 -52.89 C36.74 -59.2, 38.01 -67.2, 38.75 -70.06 M0 0 C4.04 -5.36, 18.54 -23.35, 24.26 -32.17 C29.98 -40.98, 31.91 -46.57, 34.33 -52.89 C36.74 -59.2, 38.01 -67.2, 38.75 -70.06" stroke="#E1E1E1" stroke-width="4" fill="none"/></g></g><mask/><g stroke-linecap="round"><g transform="translate(370.26734201752697 223.48869767712677) rotate(0 12.246506694660184 -18.912790028451127)"><path d="M0 0 C2.78 -3.28, 12.58 -13.4, 16.66 -19.71 C20.74 -26.01, 23.19 -34.81, 24.49 -37.83 M0 0 C2.78 -3.28, 12.58 -13.4, 16.66 -19.71 C20.74 -26.01, 23.19 -34.81, 24.49 -37.83" stroke="#E1E1E1" stroke-width="4" fill="none"/></g></g><mask/><g stroke-linecap="round"><g transform="translate(420.04902577632674 196.49538535014653) rotate(0 15.775021106684335 -5.471617363577025)"><path d="M0 0 C2.8 -1.59, 11.55 -7.72, 16.81 -9.55 C22.07 -11.37, 29.09 -10.71, 31.55 -10.94 M0 0 C2.8 -1.59, 11.55 -7.72, 16.81 -9.55 C22.07 -11.37, 29.09 -10.71, 31.55 -10.94" stroke="#E1E1E1" stroke-width="4" fill="none"/></g></g><mask/><g stroke-linecap="round"><g transform="translate(61.3777197190102 170.94936598708227) rotate(0 -20.47813298942242 -9.087488773423502)"><path d="M0 0 C-3.03 -1.73, -11.35 -7.35, -18.18 -10.38 C-25 -13.41, -37.16 -16.88, -40.96 -18.17 M0 0 C-3.03 -1.73, -11.35 -7.35, -18.18 -10.38 C-25 -13.41, -37.16 -16.88, -40.96 -18.17" stroke="#E1E1E1" stroke-width="4" fill="none"/></g></g><mask/><g stroke-linecap="round"><g transform="translate(68.49613454152859 94.23575589976826) rotate(0 -1.2761204681823983 -31.592540212308904)"><path d="M0 0 C-5.42 2.24, -27.73 14.32, -32.54 13.43 C-37.35 12.54, -29.88 -0.04, -28.86 -5.35 C-27.84 -10.66, -24.93 -14.83, -26.43 -18.45 C-27.94 -22.08, -34.01 -24.33, -37.9 -27.1 C-41.79 -29.88, -49.98 -33.34, -49.77 -35.11 C-49.55 -36.89, -43.2 -36.02, -36.6 -37.74 C-30.01 -39.46, -16.27 -38.96, -10.19 -45.44 C-4.12 -51.92, -4.16 -76.55, -0.15 -76.61 C3.86 -76.67, 5.95 -52.06, 13.84 -45.8 C21.74 -39.54, 44.57 -43.74, 47.21 -39.06 C49.85 -34.38, 31.21 -26.16, 29.68 -17.74 C28.15 -9.31, 42.98 8.54, 38.03 11.49 C33.09 14.45, 6.34 1.92, 0 0 M0 0 C-5.42 2.24, -27.73 14.32, -32.54 13.43 C-37.35 12.54, -29.88 -0.04, -28.86 -5.35 C-27.84 -10.66, -24.93 -14.83, -26.43 -18.45 C-27.94 -22.08, -34.01 -24.33, -37.9 -27.1 C-41.79 -29.88, -49.98 -33.34, -49.77 -35.11 C-49.55 -36.89, -43.2 -36.02, -36.6 -37.74 C-30.01 -39.46, -16.27 -38.96, -10.19 -45.44 C-4.12 -51.92, -4.16 -76.55, -0.15 -76.61 C3.86 -76.67, 5.95 -52.06, 13.84 -45.8 C21.74 -39.54, 44.57 -43.74, 47.21 -39.06 C49.85 -34.38, 31.21 -26.16, 29.68 -17.74 C28.15 -9.31, 42.98 8.54, 38.03 11.49 C33.09 14.45, 6.34 1.92, 0 0" stroke="#E1E1E1" stroke-width="4" fill="none"/></g></g><mask/><g stroke-linecap="round"><g transform="translate(58.6425820311415 254.68443927404405) rotate(327.03849428459336 -1.5549110670693551 -26.146315439187845)"><path d="M0 0 C-4.49 1.87, -22.98 11.95, -26.97 11.2 C-30.96 10.46, -24.76 -0.03, -23.92 -4.46 C-23.08 -8.9, -21.03 -11.79, -21.91 -15.4 C-22.78 -19, -25.61 -21.84, -29.15 -26.1 C-32.69 -30.35, -43.75 -38.59, -43.13 -40.93 C-42.51 -43.28, -31.21 -40.67, -25.43 -40.17 C-19.65 -39.67, -12.67 -33.95, -8.45 -37.91 C-4.23 -41.87, -4.04 -63.17, -0.13 -63.92 C3.79 -64.67, 8.38 -45.88, 15.07 -42.41 C21.76 -38.95, 38.43 -47.74, 40.02 -43.14 C41.61 -38.54, 26.81 -23.93, 24.6 -14.8 C22.39 -5.67, 30.88 9.16, 26.78 11.63 C22.68 14.09, 4.46 1.94, 0 0 M0 0 C-4.49 1.87, -22.98 11.95, -26.97 11.2 C-30.96 10.46, -24.76 -0.03, -23.92 -4.46 C-23.08 -8.9, -21.03 -11.79, -21.91 -15.4 C-22.78 -19, -25.61 -21.84, -29.15 -26.1 C-32.69 -30.35, -43.75 -38.59, -43.13 -40.93 C-42.51 -43.28, -31.21 -40.67, -25.43 -40.17 C-19.65 -39.67, -12.67 -33.95, -8.45 -37.91 C-4.23 -41.87, -4.04 -63.17, -0.13 -63.92 C3.79 -64.67, 8.38 -45.88, 15.07 -42.41 C21.76 -38.95, 38.43 -47.74, 40.02 -43.14 C41.61 -38.54, 26.81 -23.93, 24.6 -14.8 C22.39 -5.67, 30.88 9.16, 26.78 11.63 C22.68 14.09, 4.46 1.94, 0 0" stroke="#E1E1E1" stroke-width="4" fill="none"/></g></g><mask/><g stroke-linecap="round"><g transform="translate(159.96835526086943 45.62512811176566) rotate(0 -4.976987875909799 -9.119362272628678)"><path d="M0 0 C-1.66 -3.04, -8.29 -15.2, -9.95 -18.24 M0 0 C-1.66 -3.04, -8.29 -15.2, -9.95 -18.24" stroke="#E1E1E1" stroke-width="4" fill="none"/></g></g><mask/><g stroke-linecap="round" transform="translate(100.85127773482236 11.44965396385669) rotate(0 7.193966820634159 7.193966820634159)"><path d="M14.39 7.19 C14.39 7.61, 14.35 8.03, 14.28 8.44 C14.21 8.85, 14.1 9.26, 13.95 9.65 C13.81 10.05, 13.63 10.43, 13.42 10.79 C13.22 11.15, 12.97 11.5, 12.7 11.82 C12.44 12.14, 12.14 12.44, 11.82 12.7 C11.5 12.97, 11.15 13.22, 10.79 13.42 C10.43 13.63, 10.05 13.81, 9.65 13.95 C9.26 14.1, 8.85 14.21, 8.44 14.28 C8.03 14.35, 7.61 14.39, 7.19 14.39 C6.78 14.39, 6.35 14.35, 5.94 14.28 C5.53 14.21, 5.12 14.1, 4.73 13.95 C4.34 13.81, 3.96 13.63, 3.6 13.42 C3.24 13.22, 2.89 12.97, 2.57 12.7 C2.25 12.44, 1.95 12.14, 1.68 11.82 C1.42 11.5, 1.17 11.15, 0.96 10.79 C0.76 10.43, 0.58 10.05, 0.43 9.65 C0.29 9.26, 0.18 8.85, 0.11 8.44 C0.04 8.03, 0 7.61, 0 7.19 C0 6.78, 0.04 6.35, 0.11 5.94 C0.18 5.53, 0.29 5.12, 0.43 4.73 C0.58 4.34, 0.76 3.96, 0.96 3.6 C1.17 3.24, 1.42 2.89, 1.68 2.57 C1.95 2.25, 2.25 1.95, 2.57 1.68 C2.89 1.42, 3.24 1.17, 3.6 0.96 C3.96 0.76, 4.34 0.58, 4.73 0.43 C5.12 0.29, 5.53 0.18, 5.94 0.11 C6.35 0.04, 6.78 0, 7.19 0 C7.61 0, 8.03 0.04, 8.44 0.11 C8.85 0.18, 9.26 0.29, 9.65 0.43 C10.05 0.58, 10.43 0.76, 10.79 0.96 C11.15 1.17, 11.5 1.42, 11.82 1.68 C12.14 1.95, 12.44 2.25, 12.7 2.57 C12.97 2.89, 13.22 3.24, 13.42 3.6 C13.63 3.96, 13.81 4.34, 13.95 4.73 C14.1 5.12, 14.21 5.53, 14.28 5.94 C14.35 6.35, 14.37 6.99, 14.39 7.19 C14.41 7.4, 14.41 6.99, 14.39 7.19" stroke="#E1E1E1" stroke-width="4" fill="none"/></g><g stroke-linecap="round" transform="translate(306.3763226105075 115.04797038085962) rotate(0 7.229381819751097 7.229381819751097)"><path d="M14.46 7.23 C14.46 7.65, 14.42 8.07, 14.35 8.48 C14.28 8.9, 14.17 9.31, 14.02 9.7 C13.88 10.1, 13.7 10.48, 13.49 10.84 C13.28 11.21, 13.04 11.56, 12.77 11.88 C12.5 12.2, 12.2 12.5, 11.88 12.77 C11.56 13.04, 11.21 13.28, 10.84 13.49 C10.48 13.7, 10.1 13.88, 9.7 14.02 C9.31 14.17, 8.9 14.28, 8.48 14.35 C8.07 14.42, 7.65 14.46, 7.23 14.46 C6.81 14.46, 6.39 14.42, 5.97 14.35 C5.56 14.28, 5.15 14.17, 4.76 14.02 C4.36 13.88, 3.98 13.7, 3.61 13.49 C3.25 13.28, 2.9 13.04, 2.58 12.77 C2.26 12.5, 1.96 12.2, 1.69 11.88 C1.42 11.56, 1.18 11.21, 0.97 10.84 C0.76 10.48, 0.58 10.1, 0.44 9.7 C0.29 9.31, 0.18 8.9, 0.11 8.48 C0.04 8.07, 0 7.65, 0 7.23 C0 6.81, 0.04 6.39, 0.11 5.97 C0.18 5.56, 0.29 5.15, 0.44 4.76 C0.58 4.36, 0.76 3.98, 0.97 3.61 C1.18 3.25, 1.42 2.9, 1.69 2.58 C1.96 2.26, 2.26 1.96, 2.58 1.69 C2.9 1.42, 3.25 1.18, 3.61 0.97 C3.98 0.76, 4.36 0.58, 4.76 0.44 C5.15 0.29, 5.56 0.18, 5.97 0.11 C6.39 0.04, 6.81 0, 7.23 0 C7.65 0, 8.07 0.04, 8.48 0.11 C8.9 0.18, 9.31 0.29, 9.7 0.44 C10.1 0.58, 10.48 0.76, 10.84 0.97 C11.21 1.18, 11.56 1.42, 11.88 1.69 C12.2 1.96, 12.5 2.26, 12.77 2.58 C13.04 2.9, 13.28 3.25, 13.49 3.61 C13.7 3.98, 13.88 4.36, 14.02 4.76 C14.17 5.15, 14.28 5.56, 14.35 5.97 C14.42 6.39, 14.44 7.02, 14.46 7.23 C14.48 7.44, 14.48 7.02, 14.46 7.23" stroke="#E1E1E1" stroke-width="4" fill="none"/></g><g stroke-linecap="round"><g transform="translate(342.95057269860627 10) rotate(0 -2.7021644326273417 15.52947711280649)"><path d="M0 0 C-0.22 2.77, -0.42 11.43, -1.32 16.61 C-2.22 21.79, -4.72 28.65, -5.4 31.06 M0 0 C-0.22 2.77, -0.42 11.43, -1.32 16.61 C-2.22 21.79, -4.72 28.65, -5.4 31.06" stroke="#E1E1E1" stroke-width="4" fill="none"/></g></g><mask/><g stroke-linecap="round"><g transform="translate(352.21041446773233 95.96636885661974) rotate(0 48.05343180189266 -22.18395544689156)"><path d="M0 0 C3.67 -5.45, 14.87 -22.38, 22.01 -32.68 C29.15 -42.98, 34.9 -54.64, 42.84 -61.79 C50.78 -68.94, 61.67 -72.73, 69.64 -75.59 C77.62 -78.46, 86.28 -83.07, 90.69 -78.98 C95.1 -74.89, 96.32 -59.86, 96.11 -51.05 C95.9 -42.25, 95.19 -36.94, 89.42 -26.16 C83.66 -15.38, 68.39 3.47, 61.5 13.6 C54.61 23.73, 50.31 31.11, 48.07 34.61 M0 0 C3.67 -5.45, 14.87 -22.38, 22.01 -32.68 C29.15 -42.98, 34.9 -54.64, 42.84 -61.79 C50.78 -68.94, 61.67 -72.73, 69.64 -75.59 C77.62 -78.46, 86.28 -83.07, 90.69 -78.98 C95.1 -74.89, 96.32 -59.86, 96.11 -51.05 C95.9 -42.25, 95.19 -36.94, 89.42 -26.16 C83.66 -15.38, 68.39 3.47, 61.5 13.6 C54.61 23.73, 50.31 31.11, 48.07 34.61" stroke="#E1E1E1" stroke-width="4" fill="none"/></g></g><mask/><g stroke-linecap="round"><g transform="translate(423.1419356992119 98.25417779957752) rotate(0 -45.54368886446764 13.663106659339974)"><path d="M0 0 C2.01 3.88, 10.94 16.71, 12.03 23.27 C13.13 29.83, 10.06 32.73, 6.56 39.35 C3.05 45.98, -6.35 63.29, -9.02 63.02 C-11.68 62.74, -7.18 42.76, -9.44 37.7 C-11.7 32.64, -15.6 37.17, -22.56 32.66 C-29.52 28.16, -42.89 16.65, -51.19 10.66 C-59.5 4.67, -67.39 0.65, -72.4 -3.27 C-77.4 -7.19, -76.11 -12.54, -81.23 -12.85 C-86.35 -13.16, -102.68 -1.32, -103.12 -5.13 C-103.56 -8.94, -92.71 -30.64, -83.87 -35.69 C-75.03 -40.73, -55.72 -35.44, -50.08 -35.4 M0 0 C2.01 3.88, 10.94 16.71, 12.03 23.27 C13.13 29.83, 10.06 32.73, 6.56 39.35 C3.05 45.98, -6.35 63.29, -9.02 63.02 C-11.68 62.74, -7.18 42.76, -9.44 37.7 C-11.7 32.64, -15.6 37.17, -22.56 32.66 C-29.52 28.16, -42.89 16.65, -51.19 10.66 C-59.5 4.67, -67.39 0.65, -72.4 -3.27 C-77.4 -7.19, -76.11 -12.54, -81.23 -12.85 C-86.35 -13.16, -102.68 -1.32, -103.12 -5.13 C-103.56 -8.94, -92.71 -30.64, -83.87 -35.69 C-75.03 -40.73, -55.72 -35.44, -50.08 -35.4" stroke="#E1E1E1" stroke-width="4" fill="none"/></g></g><mask/><g stroke-linecap="round"><g transform="translate(361.57886223415335 102.31273669838629) rotate(0 1.3445894664755542 21.468572464727913)"><path d="M0 0 C-3.55 2.7, -19.55 11.42, -21.32 16.23 C-23.09 21.03, -16.76 24.39, -10.63 28.84 C-4.49 33.29, 9.71 44.44, 15.49 42.94 C21.26 41.44, 22.59 23.69, 24.01 19.84 M0 0 C-3.55 2.7, -19.55 11.42, -21.32 16.23 C-23.09 21.03, -16.76 24.39, -10.63 28.84 C-4.49 33.29, 9.71 44.44, 15.49 42.94 C21.26 41.44, 22.59 23.69, 24.01 19.84" stroke="#E1E1E1" stroke-width="4" fill="none"/></g></g><mask/><g stroke-linecap="round" transform="translate(402.0227912257724 43.88743215509567) rotate(0 12.815507680473502 12.815507680473502)"><path d="M25.63 12.82 C25.63 13.56, 25.57 14.31, 25.44 15.04 C25.31 15.77, 25.11 16.5, 24.86 17.2 C24.6 17.9, 24.28 18.58, 23.91 19.22 C23.54 19.87, 23.11 20.48, 22.63 21.05 C22.16 21.62, 21.62 22.16, 21.05 22.63 C20.48 23.11, 19.87 23.54, 19.22 23.91 C18.58 24.28, 17.9 24.6, 17.2 24.86 C16.5 25.11, 15.77 25.31, 15.04 25.44 C14.31 25.57, 13.56 25.63, 12.82 25.63 C12.07 25.63, 11.32 25.57, 10.59 25.44 C9.86 25.31, 9.13 25.11, 8.43 24.86 C7.74 24.6, 7.05 24.28, 6.41 23.91 C5.77 23.54, 5.15 23.11, 4.58 22.63 C4.01 22.16, 3.48 21.62, 3 21.05 C2.52 20.48, 2.09 19.87, 1.72 19.22 C1.35 18.58, 1.03 17.9, 0.77 17.2 C0.52 16.5, 0.32 15.77, 0.19 15.04 C0.07 14.31, 0 13.56, 0 12.82 C0 12.07, 0.07 11.32, 0.19 10.59 C0.32 9.86, 0.52 9.13, 0.77 8.43 C1.03 7.74, 1.35 7.05, 1.72 6.41 C2.09 5.77, 2.52 5.15, 3 4.58 C3.48 4.01, 4.01 3.48, 4.58 3 C5.15 2.52, 5.77 2.09, 6.41 1.72 C7.05 1.35, 7.74 1.03, 8.43 0.77 C9.13 0.52, 9.86 0.32, 10.59 0.19 C11.32 0.07, 12.07 0, 12.82 0 C13.56 0, 14.31 0.07, 15.04 0.19 C15.77 0.32, 16.5 0.52, 17.2 0.77 C17.9 1.03, 18.58 1.35, 19.22 1.72 C19.87 2.09, 20.48 2.52, 21.05 3 C21.62 3.48, 22.16 4.01, 22.63 4.58 C23.11 5.15, 23.54 5.77, 23.91 6.41 C24.28 7.05, 24.6 7.74, 24.86 8.43 C25.11 9.13, 25.31 9.86, 25.44 10.59 C25.57 11.32, 25.6 12.44, 25.63 12.82 C25.66 13.19, 25.66 12.44, 25.63 12.82" stroke="#E1E1E1" stroke-width="4" fill="none"/></g><g stroke-linecap="round"><g transform="translate(432.071237476579 243.92079116769855) rotate(0 0.3281789918175946 20.471049989599123)"><path d="M0 0 C0.11 6.82, 0.55 34.12, 0.66 40.94 M0 0 C0.11 6.82, 0.55 34.12, 0.66 40.94" stroke="#E1E1E1" stroke-width="4" fill="none"/></g></g><mask/><g stroke-linecap="round"><g transform="translate(452.774845960379 262.2492337107178) rotate(0 -20.783882481799537 0)"><path d="M0 0 C-6.93 0, -34.64 0, -41.57 0 M0 0 C-6.93 0, -34.64 0, -41.57 0" stroke="#E1E1E1" stroke-width="4" fill="none"/></g></g><mask/><g stroke-linecap="round"><g transform="translate(47.53045506426133 360.7111947557896) rotate(0 0.3281789918175946 20.471049989599123)"><path d="M0 0 C0.11 6.82, 0.55 34.12, 0.66 40.94 M0 0 C0.11 6.82, 0.55 34.12, 0.66 40.94" stroke="#E1E1E1" stroke-width="4" fill="none"/></g></g><mask/><g stroke-linecap="round"><g transform="translate(68.23406354806139 379.0396372988107) rotate(0 -20.783882481799537 0)"><path d="M0 0 C-6.93 0, -34.64 0, -41.57 0 M0 0 C-6.93 0, -34.64 0, -41.57 0" stroke="#E1E1E1" stroke-width="4" fill="none"/></g></g><mask/><g stroke-linecap="round" transform="translate(268.69004155012954 247.62992207522257) rotate(0 7.229381819751097 7.229381819751097)"><path d="M14.46 7.23 C14.46 7.65, 14.42 8.07, 14.35 8.48 C14.28 8.9, 14.17 9.31, 14.02 9.7 C13.88 10.1, 13.7 10.48, 13.49 10.84 C13.28 11.21, 13.04 11.56, 12.77 11.88 C12.5 12.2, 12.2 12.5, 11.88 12.77 C11.56 13.04, 11.21 13.28, 10.84 13.49 C10.48 13.7, 10.1 13.88, 9.7 14.02 C9.31 14.17, 8.9 14.28, 8.48 14.35 C8.07 14.42, 7.65 14.46, 7.23 14.46 C6.81 14.46, 6.39 14.42, 5.97 14.35 C5.56 14.28, 5.15 14.17, 4.76 14.02 C4.36 13.88, 3.98 13.7, 3.61 13.49 C3.25 13.28, 2.9 13.04, 2.58 12.77 C2.26 12.5, 1.96 12.2, 1.69 11.88 C1.42 11.56, 1.18 11.21, 0.97 10.84 C0.76 10.48, 0.58 10.1, 0.44 9.7 C0.29 9.31, 0.18 8.9, 0.11 8.48 C0.04 8.07, 0 7.65, 0 7.23 C0 6.81, 0.04 6.39, 0.11 5.97 C0.18 5.56, 0.29 5.15, 0.44 4.76 C0.58 4.36, 0.76 3.98, 0.97 3.61 C1.18 3.25, 1.42 2.9, 1.69 2.58 C1.96 2.26, 2.26 1.96, 2.58 1.69 C2.9 1.42, 3.25 1.18, 3.61 0.97 C3.98 0.76, 4.36 0.58, 4.76 0.44 C5.15 0.29, 5.56 0.18, 5.97 0.11 C6.39 0.04, 6.81 0, 7.23 0 C7.65 0, 8.07 0.04, 8.48 0.11 C8.9 0.18, 9.31 0.29, 9.7 0.44 C10.1 0.58, 10.48 0.76, 10.84 0.97 C11.21 1.18, 11.56 1.42, 11.88 1.69 C12.2 1.96, 12.5 2.26, 12.77 2.58 C13.04 2.9, 13.28 3.25, 13.49 3.61 C13.7 3.98, 13.88 4.36, 14.02 4.76 C14.17 5.15, 14.28 5.56, 14.35 5.97 C14.42 6.39, 14.44 7.02, 14.46 7.23 C14.48 7.44, 14.48 7.02, 14.46 7.23" stroke="#E1E1E1" stroke-width="4" fill="none"/></g><g stroke-linecap="round" transform="translate(395.0129824005453 315.3245123874058) rotate(0 7.229381819751097 7.229381819751097)"><path d="M14.46 7.23 C14.46 7.65, 14.42 8.07, 14.35 8.48 C14.28 8.9, 14.17 9.31, 14.02 9.7 C13.88 10.1, 13.7 10.48, 13.49 10.84 C13.28 11.21, 13.04 11.56, 12.77 11.88 C12.5 12.2, 12.2 12.5, 11.88 12.77 C11.56 13.04, 11.21 13.28, 10.84 13.49 C10.48 13.7, 10.1 13.88, 9.7 14.02 C9.31 14.17, 8.9 14.28, 8.48 14.35 C8.07 14.42, 7.65 14.46, 7.23 14.46 C6.81 14.46, 6.39 14.42, 5.97 14.35 C5.56 14.28, 5.15 14.17, 4.76 14.02 C4.36 13.88, 3.98 13.7, 3.61 13.49 C3.25 13.28, 2.9 13.04, 2.58 12.77 C2.26 12.5, 1.96 12.2, 1.69 11.88 C1.42 11.56, 1.18 11.21, 0.97 10.84 C0.76 10.48, 0.58 10.1, 0.44 9.7 C0.29 9.31, 0.18 8.9, 0.11 8.48 C0.04 8.07, 0 7.65, 0 7.23 C0 6.81, 0.04 6.39, 0.11 5.97 C0.18 5.56, 0.29 5.15, 0.44 4.76 C0.58 4.36, 0.76 3.98, 0.97 3.61 C1.18 3.25, 1.42 2.9, 1.69 2.58 C1.96 2.26, 2.26 1.96, 2.58 1.69 C2.9 1.42, 3.25 1.18, 3.61 0.97 C3.98 0.76, 4.36 0.58, 4.76 0.44 C5.15 0.29, 5.56 0.18, 5.97 0.11 C6.39 0.04, 6.81 0, 7.23 0 C7.65 0, 8.07 0.04, 8.48 0.11 C8.9 0.18, 9.31 0.29, 9.7 0.44 C10.1 0.58, 10.48 0.76, 10.84 0.97 C11.21 1.18, 11.56 1.42, 11.88 1.69 C12.2 1.96, 12.5 2.26, 12.77 2.58 C13.04 2.9, 13.28 3.25, 13.49 3.61 C13.7 3.98, 13.88 4.36, 14.02 4.76 C14.17 5.15, 14.28 5.56, 14.35 5.97 C14.42 6.39, 14.44 7.02, 14.46 7.23 C14.48 7.44, 14.48 7.02, 14.46 7.23" stroke="#E1E1E1" stroke-width="4" fill="none"/></g><g stroke-linecap="round" transform="translate(417.9807898278923 344.94089564898604) rotate(0 7.229381819751097 7.229381819751097)"><path d="M14.46 7.23 C14.46 7.65, 14.42 8.07, 14.35 8.48 C14.28 8.9, 14.17 9.31, 14.02 9.7 C13.88 10.1, 13.7 10.48, 13.49 10.84 C13.28 11.21, 13.04 11.56, 12.77 11.88 C12.5 12.2, 12.2 12.5, 11.88 12.77 C11.56 13.04, 11.21 13.28, 10.84 13.49 C10.48 13.7, 10.1 13.88, 9.7 14.02 C9.31 14.17, 8.9 14.28, 8.48 14.35 C8.07 14.42, 7.65 14.46, 7.23 14.46 C6.81 14.46, 6.39 14.42, 5.97 14.35 C5.56 14.28, 5.15 14.17, 4.76 14.02 C4.36 13.88, 3.98 13.7, 3.61 13.49 C3.25 13.28, 2.9 13.04, 2.58 12.77 C2.26 12.5, 1.96 12.2, 1.69 11.88 C1.42 11.56, 1.18 11.21, 0.97 10.84 C0.76 10.48, 0.58 10.1, 0.44 9.7 C0.29 9.31, 0.18 8.9, 0.11 8.48 C0.04 8.07, 0 7.65, 0 7.23 C0 6.81, 0.04 6.39, 0.11 5.97 C0.18 5.56, 0.29 5.15, 0.44 4.76 C0.58 4.36, 0.76 3.98, 0.97 3.61 C1.18 3.25, 1.42 2.9, 1.69 2.58 C1.96 2.26, 2.26 1.96, 2.58 1.69 C2.9 1.42, 3.25 1.18, 3.61 0.97 C3.98 0.76, 4.36 0.58, 4.76 0.44 C5.15 0.29, 5.56 0.18, 5.97 0.11 C6.39 0.04, 6.81 0, 7.23 0 C7.65 0, 8.07 0.04, 8.48 0.11 C8.9 0.18, 9.31 0.29, 9.7 0.44 C10.1 0.58, 10.48 0.76, 10.84 0.97 C11.21 1.18, 11.56 1.42, 11.88 1.69 C12.2 1.96, 12.5 2.26, 12.77 2.58 C13.04 2.9, 13.28 3.25, 13.49 3.61 C13.7 3.98, 13.88 4.36, 14.02 4.76 C14.17 5.15, 14.28 5.56, 14.35 5.97 C14.42 6.39, 14.44 7.02, 14.46 7.23 C14.48 7.44, 14.48 7.02, 14.46 7.23" stroke="#E1E1E1" stroke-width="4" fill="none"/></g><g stroke-linecap="round" transform="translate(10 321.97308822163905) rotate(0 7.229381819751097 7.229381819751097)"><path d="M14.46 7.23 C14.46 7.65, 14.42 8.07, 14.35 8.48 C14.28 8.9, 14.17 9.31, 14.02 9.7 C13.88 10.1, 13.7 10.48, 13.49 10.84 C13.28 11.21, 13.04 11.56, 12.77 11.88 C12.5 12.2, 12.2 12.5, 11.88 12.77 C11.56 13.04, 11.21 13.28, 10.84 13.49 C10.48 13.7, 10.1 13.88, 9.7 14.02 C9.31 14.17, 8.9 14.28, 8.48 14.35 C8.07 14.42, 7.65 14.46, 7.23 14.46 C6.81 14.46, 6.39 14.42, 5.97 14.35 C5.56 14.28, 5.15 14.17, 4.76 14.02 C4.36 13.88, 3.98 13.7, 3.61 13.49 C3.25 13.28, 2.9 13.04, 2.58 12.77 C2.26 12.5, 1.96 12.2, 1.69 11.88 C1.42 11.56, 1.18 11.21, 0.97 10.84 C0.76 10.48, 0.58 10.1, 0.44 9.7 C0.29 9.31, 0.18 8.9, 0.11 8.48 C0.04 8.07, 0 7.65, 0 7.23 C0 6.81, 0.04 6.39, 0.11 5.97 C0.18 5.56, 0.29 5.15, 0.44 4.76 C0.58 4.36, 0.76 3.98, 0.97 3.61 C1.18 3.25, 1.42 2.9, 1.69 2.58 C1.96 2.26, 2.26 1.96, 2.58 1.69 C2.9 1.42, 3.25 1.18, 3.61 0.97 C3.98 0.76, 4.36 0.58, 4.76 0.44 C5.15 0.29, 5.56 0.18, 5.97 0.11 C6.39 0.04, 6.81 0, 7.23 0 C7.65 0, 8.07 0.04, 8.48 0.11 C8.9 0.18, 9.31 0.29, 9.7 0.44 C10.1 0.58, 10.48 0.76, 10.84 0.97 C11.21 1.18, 11.56 1.42, 11.88 1.69 C12.2 1.96, 12.5 2.26, 12.77 2.58 C13.04 2.9, 13.28 3.25, 13.49 3.61 C13.7 3.98, 13.88 4.36, 14.02 4.76 C14.17 5.15, 14.28 5.56, 14.35 5.97 C14.42 6.39, 14.44 7.02, 14.46 7.23 C14.48 7.44, 14.48 7.02, 14.46 7.23" stroke="#E1E1E1" stroke-width="4" fill="none"/></g><g stroke-linecap="round" transform="translate(247.3869299536018 33.051808965763485) rotate(0 7.229381819751097 7.229381819751097)"><path d="M14.46 7.23 C14.46 7.65, 14.42 8.07, 14.35 8.48 C14.28 8.9, 14.17 9.31, 14.02 9.7 C13.88 10.1, 13.7 10.48, 13.49 10.84 C13.28 11.21, 13.04 11.56, 12.77 11.88 C12.5 12.2, 12.2 12.5, 11.88 12.77 C11.56 13.04, 11.21 13.28, 10.84 13.49 C10.48 13.7, 10.1 13.88, 9.7 14.02 C9.31 14.17, 8.9 14.28, 8.48 14.35 C8.07 14.42, 7.65 14.46, 7.23 14.46 C6.81 14.46, 6.39 14.42, 5.97 14.35 C5.56 14.28, 5.15 14.17, 4.76 14.02 C4.36 13.88, 3.98 13.7, 3.61 13.49 C3.25 13.28, 2.9 13.04, 2.58 12.77 C2.26 12.5, 1.96 12.2, 1.69 11.88 C1.42 11.56, 1.18 11.21, 0.97 10.84 C0.76 10.48, 0.58 10.1, 0.44 9.7 C0.29 9.31, 0.18 8.9, 0.11 8.48 C0.04 8.07, 0 7.65, 0 7.23 C0 6.81, 0.04 6.39, 0.11 5.97 C0.18 5.56, 0.29 5.15, 0.44 4.76 C0.58 4.36, 0.76 3.98, 0.97 3.61 C1.18 3.25, 1.42 2.9, 1.69 2.58 C1.96 2.26, 2.26 1.96, 2.58 1.69 C2.9 1.42, 3.25 1.18, 3.61 0.97 C3.98 0.76, 4.36 0.58, 4.76 0.44 C5.15 0.29, 5.56 0.18, 5.97 0.11 C6.39 0.04, 6.81 0, 7.23 0 C7.65 0, 8.07 0.04, 8.48 0.11 C8.9 0.18, 9.31 0.29, 9.7 0.44 C10.1 0.58, 10.48 0.76, 10.84 0.97 C11.21 1.18, 11.56 1.42, 11.88 1.69 C12.2 1.96, 12.5 2.26, 12.77 2.58 C13.04 2.9, 13.28 3.25, 13.49 3.61 C13.7 3.98, 13.88 4.36, 14.02 4.76 C14.17 5.15, 14.28 5.56, 14.35 5.97 C14.42 6.39, 14.44 7.02, 14.46 7.23 C14.48 7.44, 14.48 7.02, 14.46 7.23" stroke="#E1E1E1" stroke-width="4" fill="none"/></g><g stroke-linecap="round"><g transform="translate(232.9043775512182 21.58589318877057) rotate(0 12.577439424884687 36.011522640206294)"><path d="M0 0 C3.04 -0.73, 12.37 -4.44, 18.26 -4.38 C24.14 -4.32, 30.64 -2.37, 35.3 0.36 C39.96 3.09, 43.56 7.29, 46.23 12.01 C48.9 16.73, 50.65 22.43, 51.31 28.67 C51.98 34.92, 52.39 43.01, 50.22 49.5 C48.05 55.99, 44.13 63.15, 38.29 67.63 C32.44 72.11, 23.54 76.07, 15.16 76.4 C6.77 76.73, -5.13 75.09, -12.02 69.63 C-18.91 64.16, -23.82 51.72, -26.16 43.61 C-28.49 35.49, -26.99 26.57, -26.03 20.94 C-25.08 15.31, -21.35 11.67, -20.41 9.81 M0 0 C3.04 -0.73, 12.37 -4.44, 18.26 -4.38 C24.14 -4.32, 30.64 -2.37, 35.3 0.36 C39.96 3.09, 43.56 7.29, 46.23 12.01 C48.9 16.73, 50.65 22.43, 51.31 28.67 C51.98 34.92, 52.39 43.01, 50.22 49.5 C48.05 55.99, 44.13 63.15, 38.29 67.63 C32.44 72.11, 23.54 76.07, 15.16 76.4 C6.77 76.73, -5.13 75.09, -12.02 69.63 C-18.91 64.16, -23.82 51.72, -26.16 43.61 C-28.49 35.49, -26.99 26.57, -26.03 20.94 C-25.08 15.31, -21.35 11.67, -20.41 9.81" stroke="#E1E1E1" stroke-width="4" fill="none"/></g></g><mask/><g stroke-linecap="round"><g transform="translate(205.74246769406818 45.49974207645573) rotate(0 39.45446726783871 8.91728071991929)"><path d="M0 0 C-2.94 0.79, -13.36 2.63, -17.65 4.73 C-21.94 6.82, -24.25 8.91, -25.75 12.58 C-27.25 16.25, -28.05 23.05, -26.65 26.75 C-25.26 30.46, -20.83 33.26, -17.37 34.79 C-13.91 36.31, -9.84 36.3, -5.9 35.91 C-1.96 35.52, -4.67 34.99, 6.29 32.43 C17.25 29.87, 46.57 23.8, 59.85 20.55 C73.12 17.29, 79.17 14.79, 85.92 12.9 C92.67 11.01, 97.09 11.78, 100.36 9.21 C103.64 6.64, 105.51 1.28, 105.56 -2.51 C105.62 -6.3, 103.1 -10.91, 100.69 -13.51 C98.28 -16.1, 95.82 -17.85, 91.09 -18.08 C86.37 -18.3, 75.46 -15.38, 72.34 -14.85 M0 0 C-2.94 0.79, -13.36 2.63, -17.65 4.73 C-21.94 6.82, -24.25 8.91, -25.75 12.58 C-27.25 16.25, -28.05 23.05, -26.65 26.75 C-25.26 30.46, -20.83 33.26, -17.37 34.79 C-13.91 36.31, -9.84 36.3, -5.9 35.91 C-1.96 35.52, -4.67 34.99, 6.29 32.43 C17.25 29.87, 46.57 23.8, 59.85 20.55 C73.12 17.29, 79.17 14.79, 85.92 12.9 C92.67 11.01, 97.09 11.78, 100.36 9.21 C103.64 6.64, 105.51 1.28, 105.56 -2.51 C105.62 -6.3, 103.1 -10.91, 100.69 -13.51 C98.28 -16.1, 95.82 -17.85, 91.09 -18.08 C86.37 -18.3, 75.46 -15.38, 72.34 -14.85" stroke="#E1E1E1" stroke-width="4" fill="none"/></g></g><mask/><g stroke-linecap="round"><g transform="translate(133.59546950615186 463.21568042979743) rotate(0 116.54211229997827 -115.28801424791472)"><path d="M0 0 C2.22 -3.93, 9.52 -15.19, 13.32 -23.58 C17.11 -31.98, 21.13 -41.06, 22.78 -50.39 C24.42 -59.71, 24.4 -70, 23.2 -79.52 C22 -89.04, 19.13 -98.71, 15.57 -107.5 C12 -116.28, 5.99 -124.68, 1.79 -132.23 C-2.41 -139.78, -6.47 -144.89, -9.66 -152.8 C-12.85 -160.71, -16.14 -170.37, -17.34 -179.69 C-18.54 -189, -17.41 -200.37, -16.85 -208.71 C-16.29 -217.05, -24.67 -226.15, -13.96 -229.72 C-3.25 -233.29, 31.16 -230.11, 47.41 -230.13 C63.65 -230.15, 75.49 -229.84, 83.51 -229.83 C91.54 -229.83, 89.94 -229.99, 95.57 -230.11 C101.19 -230.24, 109.05 -230.62, 117.24 -230.58 C125.43 -230.53, 135.21 -229.91, 144.7 -229.85 C154.2 -229.8, 166.04 -230.13, 174.23 -230.22 C182.43 -230.32, 187.81 -230.81, 193.89 -230.41 C199.97 -230, 207.04 -232.01, 210.7 -227.78 C214.35 -223.55, 212.97 -212.14, 215.8 -205.02 C218.62 -197.9, 227.66 -190.78, 227.65 -185.07 C227.63 -179.35, 217.6 -175.31, 215.69 -170.74 C213.78 -166.17, 214.52 -162.82, 216.17 -157.66 C217.83 -152.51, 221.49 -145.11, 225.59 -139.8 C229.7 -134.48, 236.65 -129.73, 240.79 -125.77 C244.93 -121.81, 250.74 -118.75, 250.42 -116.04 C250.1 -113.32, 244.13 -111.52, 238.85 -109.48 C233.57 -107.44, 220.99 -107.27, 218.75 -103.8 C216.51 -100.32, 226.71 -93.04, 225.42 -88.64 C224.13 -84.25, 212.05 -81.57, 211.01 -77.43 C209.96 -73.29, 219.14 -67.59, 219.14 -63.8 C219.13 -60.02, 212.05 -58.7, 211 -54.73 C209.94 -50.77, 213.08 -44.4, 212.82 -40.03 C212.55 -35.66, 211.89 -31.27, 209.4 -28.53 C206.91 -25.79, 202.82 -24.06, 197.87 -23.59 C192.93 -23.11, 187.13 -24.45, 179.73 -25.67 C172.33 -26.9, 157.85 -30.07, 153.47 -30.95 M0 0 C2.22 -3.93, 9.52 -15.19, 13.32 -23.58 C17.11 -31.98, 21.13 -41.06, 22.78 -50.39 C24.42 -59.71, 24.4 -70, 23.2 -79.52 C22 -89.04, 19.13 -98.71, 15.57 -107.5 C12 -116.28, 5.99 -124.68, 1.79 -132.23 C-2.41 -139.78, -6.47 -144.89, -9.66 -152.8 C-12.85 -160.71, -16.14 -170.37, -17.34 -179.69 C-18.54 -189, -17.41 -200.37, -16.85 -208.71 C-16.29 -217.05, -24.67 -226.15, -13.96 -229.72 C-3.25 -233.29, 31.16 -230.11, 47.41 -230.13 C63.65 -230.15, 75.49 -229.84, 83.51 -229.83 C91.54 -229.83, 89.94 -229.99, 95.57 -230.11 C101.19 -230.24, 109.05 -230.62, 117.24 -230.58 C125.43 -230.53, 135.21 -229.91, 144.7 -229.85 C154.2 -229.8, 166.04 -230.13, 174.23 -230.22 C182.43 -230.32, 187.81 -230.81, 193.89 -230.41 C199.97 -230, 207.04 -232.01, 210.7 -227.78 C214.35 -223.55, 212.97 -212.14, 215.8 -205.02 C218.62 -197.9, 227.66 -190.78, 227.65 -185.07 C227.63 -179.35, 217.6 -175.31, 215.69 -170.74 C213.78 -166.17, 214.52 -162.82, 216.17 -157.66 C217.83 -152.51, 221.49 -145.11, 225.59 -139.8 C229.7 -134.48, 236.65 -129.73, 240.79 -125.77 C244.93 -121.81, 250.74 -118.75, 250.42 -116.04 C250.1 -113.32, 244.13 -111.52, 238.85 -109.48 C233.57 -107.44, 220.99 -107.27, 218.75 -103.8 C216.51 -100.32, 226.71 -93.04, 225.42 -88.64 C224.13 -84.25, 212.05 -81.57, 211.01 -77.43 C209.96 -73.29, 219.14 -67.59, 219.14 -63.8 C219.13 -60.02, 212.05 -58.7, 211 -54.73 C209.94 -50.77, 213.08 -44.4, 212.82 -40.03 C212.55 -35.66, 211.89 -31.27, 209.4 -28.53 C206.91 -25.79, 202.82 -24.06, 197.87 -23.59 C192.93 -23.11, 187.13 -24.45, 179.73 -25.67 C172.33 -26.9, 157.85 -30.07, 153.47 -30.95" stroke="#E1E1E1" stroke-width="4" fill="none"/></g></g><mask/></svg>