<svg version="1.1" xmlns="http://www.w3.org/2000/svg" viewBox="0 0 1145.516037926151 1144.6174346571738" width="1145.516037926151" height="1144.6174346571738" class="excalidraw-svg">
  <!-- svg-source:excalidraw -->
  
  <defs>
    <style class="style-fonts">
      
    </style>
    
  </defs>
  <rect x="0" y="0" width="1145.516037926151" height="1144.6174346571738" fill="#000000"></rect><g stroke-linecap="round"><g transform="translate(571.6960738980299 720.292456947069) rotate(0 114.5868292041697 -115.10171733120944)"><path d="M0 0 C0.47 0, 1.58 0.66, 2.84 0 C4.09 -0.66, -0.66 3.27, 7.55 -3.94 C15.76 -11.14, 35.75 -28.2, 52.09 -43.23 C68.43 -58.27, 88.84 -77.67, 105.58 -94.16 C122.31 -110.65, 137.92 -126.69, 152.51 -142.16 C167.1 -157.63, 182.36 -174.8, 193.1 -186.99 C203.83 -199.19, 210.89 -208.15, 216.9 -215.35 C222.92 -222.55, 227.13 -227.73, 229.17 -230.2 M0 0 C0.47 0, 1.58 0.66, 2.84 0 C4.09 -0.66, -0.66 3.27, 7.55 -3.94 C15.76 -11.14, 35.75 -28.2, 52.09 -43.23 C68.43 -58.27, 88.84 -77.67, 105.58 -94.16 C122.31 -110.65, 137.92 -126.69, 152.51 -142.16 C167.1 -157.63, 182.36 -174.8, 193.1 -186.99 C203.83 -199.19, 210.89 -208.15, 216.9 -215.35 C222.92 -222.55, 227.13 -227.73, 229.17 -230.2" stroke="#E1E1E1" stroke-width="4" fill="none"></path></g></g><mask></mask><g stroke-linecap="round"><g transform="translate(801.1228552829299 489.73756037049543) rotate(0 -227.87581198136337 -73.29190274371103)"><path d="M0 0 C-0.56 -1.27, -1.22 -3.25, -3.34 -7.64 C-5.46 -12.04, -8.53 -19.25, -12.71 -26.38 C-16.88 -33.51, -22.17 -42.23, -28.38 -50.41 C-34.6 -58.59, -42.95 -68.13, -49.98 -75.47 C-57.01 -82.81, -62.2 -88.01, -70.57 -94.47 C-78.94 -100.92, -90.74 -108.58, -100.21 -114.18 C-109.68 -119.77, -117.35 -123.99, -127.39 -128.02 C-137.43 -132.06, -150.14 -135.67, -160.45 -138.39 C-170.75 -141.1, -178.54 -142.88, -189.23 -144.3 C-199.93 -145.73, -213.21 -146.69, -224.59 -146.91 C-235.97 -147.13, -245.21 -147.04, -257.52 -145.63 C-269.84 -144.21, -284.72 -142.2, -298.48 -138.41 C-312.24 -134.63, -327.66 -128.63, -340.1 -122.92 C-352.55 -117.21, -363.53 -110.56, -373.15 -104.15 C-382.78 -97.73, -390.47 -91.12, -397.85 -84.43 C-405.24 -77.73, -411.93 -70.3, -417.45 -63.99 C-422.97 -57.68, -426.21 -53.81, -430.99 -46.59 C-435.78 -39.37, -442.02 -28.49, -446.15 -20.67 C-450.27 -12.85, -454.15 -3.17, -455.75 0.33 M0 0 C-0.56 -1.27, -1.22 -3.25, -3.34 -7.64 C-5.46 -12.04, -8.53 -19.25, -12.71 -26.38 C-16.88 -33.51, -22.17 -42.23, -28.38 -50.41 C-34.6 -58.59, -42.95 -68.13, -49.98 -75.47 C-57.01 -82.81, -62.2 -88.01, -70.57 -94.47 C-78.94 -100.92, -90.74 -108.58, -100.21 -114.18 C-109.68 -119.77, -117.35 -123.99, -127.39 -128.02 C-137.43 -132.06, -150.14 -135.67, -160.45 -138.39 C-170.75 -141.1, -178.54 -142.88, -189.23 -144.3 C-199.93 -145.73, -213.21 -146.69, -224.59 -146.91 C-235.97 -147.13, -245.21 -147.04, -257.52 -145.63 C-269.84 -144.21, -284.72 -142.2, -298.48 -138.41 C-312.24 -134.63, -327.66 -128.63, -340.1 -122.92 C-352.55 -117.21, -363.53 -110.56, -373.15 -104.15 C-382.78 -97.73, -390.47 -91.12, -397.85 -84.43 C-405.24 -77.73, -411.93 -70.3, -417.45 -63.99 C-422.97 -57.68, -426.21 -53.81, -430.99 -46.59 C-435.78 -39.37, -442.02 -28.49, -446.15 -20.67 C-450.27 -12.85, -454.15 -3.17, -455.75 0.33" stroke="#E1E1E1" stroke-width="4" fill="none"></path></g></g><mask></mask><g stroke-linecap="round"><g transform="translate(345.2348976825899 490.43673091557775) rotate(0 113.33482095472777 115.05198449409693)"><path d="M0 0 C1.65 1.93, 4.39 5.11, 9.89 11.56 C15.39 18.02, 24.15 28.62, 33.02 38.74 C41.89 48.86, 52.35 60.6, 63.12 72.3 C73.89 84.01, 85.16 96.18, 97.65 108.97 C110.14 121.75, 125.39 136.78, 138.04 149.02 C150.69 161.25, 161.02 170.83, 173.55 182.38 C186.09 193.94, 204.41 210.38, 213.26 218.33 C222.11 226.29, 224.43 228.14, 226.67 230.1 M0 0 C1.65 1.93, 4.39 5.11, 9.89 11.56 C15.39 18.02, 24.15 28.62, 33.02 38.74 C41.89 48.86, 52.35 60.6, 63.12 72.3 C73.89 84.01, 85.16 96.18, 97.65 108.97 C110.14 121.75, 125.39 136.78, 138.04 149.02 C150.69 161.25, 161.02 170.83, 173.55 182.38 C186.09 193.94, 204.41 210.38, 213.26 218.33 C222.11 226.29, 224.43 228.14, 226.67 230.1" stroke="#E1E1E1" stroke-width="4" fill="none"></path></g></g><mask></mask><g stroke-linecap="round"><g transform="translate(545.9642101706536 742.7193391122278) rotate(0 -105.7445310105893 -106.25152685893306)"><path d="M0 0 C-3 -2.63, -9.73 -8.46, -18.01 -15.76 C-26.29 -23.06, -39.2 -34.22, -49.66 -43.81 C-60.12 -53.41, -70.53 -63.39, -80.76 -73.31 C-90.99 -83.23, -100.81 -93.04, -111.06 -103.33 C-121.31 -113.62, -131.8 -124.15, -142.25 -135.04 C-152.7 -145.94, -164.65 -158.67, -173.76 -168.7 C-182.86 -178.73, -190.61 -187.9, -196.9 -195.21 C-203.19 -202.51, -209.06 -209.62, -211.49 -212.5 M0 0 C-3 -2.63, -9.73 -8.46, -18.01 -15.76 C-26.29 -23.06, -39.2 -34.22, -49.66 -43.81 C-60.12 -53.41, -70.53 -63.39, -80.76 -73.31 C-90.99 -83.23, -100.81 -93.04, -111.06 -103.33 C-121.31 -113.62, -131.8 -124.15, -142.25 -135.04 C-152.7 -145.94, -164.65 -158.67, -173.76 -168.7 C-182.86 -178.73, -190.61 -187.9, -196.9 -195.21 C-203.19 -202.51, -209.06 -209.62, -211.49 -212.5" stroke="#E1E1E1" stroke-width="4" fill="none"></path></g></g><mask></mask><g stroke-linecap="round"><g transform="translate(334.10045613361103 530.0009997855923) rotate(0 50.111835759075234 143.03410641766243)"><path d="M0 0 C-0.4 0.84, -1.41 0.95, -2.38 5.02 C-3.34 9.09, -4.95 13.47, -5.8 24.41 C-6.66 35.36, -8.03 56.71, -7.51 70.7 C-7 84.69, -5.43 95.69, -2.72 108.34 C0 120.99, 3.88 134.39, 8.78 146.59 C13.67 158.8, 20.03 170.2, 26.67 181.56 C33.31 192.92, 40.75 204.13, 48.62 214.74 C56.49 225.35, 65.57 235.27, 73.89 245.22 C82.2 255.17, 92.86 267.64, 98.5 274.45 C104.14 281.26, 106.2 284.13, 107.74 286.07 M0 0 C-0.4 0.84, -1.41 0.95, -2.38 5.02 C-3.34 9.09, -4.95 13.47, -5.8 24.41 C-6.66 35.36, -8.03 56.71, -7.51 70.7 C-7 84.69, -5.43 95.69, -2.72 108.34 C0 120.99, 3.88 134.39, 8.78 146.59 C13.67 158.8, 20.03 170.2, 26.67 181.56 C33.31 192.92, 40.75 204.13, 48.62 214.74 C56.49 225.35, 65.57 235.27, 73.89 245.22 C82.2 255.17, 92.86 267.64, 98.5 274.45 C104.14 281.26, 106.2 284.13, 107.74 286.07" stroke="#E1E1E1" stroke-width="4" fill="none"></path></g></g><mask></mask><g stroke-linecap="round"><g transform="translate(441.99860368473855 816.7874180859851) rotate(0 1.836961863357942 0)"><path d="M0 0 C0.61 0, 3.06 0, 3.67 0 M0 0 C0.61 0, 3.06 0, 3.67 0" stroke="#E1E1E1" stroke-width="4" fill="none"></path></g></g><mask></mask><g stroke-linecap="round"><g transform="translate(445.9436922218979 816.1333300617493) rotate(0 50.145253436890926 -36.566737692786205)"><path d="M0 0 C2.31 -1.46, 6.45 -3.6, 13.84 -8.77 C21.23 -13.95, 34.51 -23.87, 44.34 -31.03 C54.16 -38.18, 63.46 -44.69, 72.79 -51.71 C82.11 -58.73, 95.71 -69.56, 100.29 -73.13 M0 0 C2.31 -1.46, 6.45 -3.6, 13.84 -8.77 C21.23 -13.95, 34.51 -23.87, 44.34 -31.03 C54.16 -38.18, 63.46 -44.69, 72.79 -51.71 C82.11 -58.73, 95.71 -69.56, 100.29 -73.13" stroke="#E1E1E1" stroke-width="4" fill="none"></path></g></g><mask></mask><g stroke-linecap="round"><g transform="translate(462.9988293854965 844.9710873200511) rotate(0 6.357457959870317 22.008217389289484)"><path d="M0 0 C0.07 0.51, -0.33 1.08, 0.42 3.06 C1.18 5.03, 3.16 8.68, 4.53 11.85 C5.9 15.02, 7.47 18.65, 8.64 22.06 C9.81 25.47, 10.87 28.65, 11.55 32.3 C12.23 35.96, 12.52 42.06, 12.71 44.02 M0 0 C0.07 0.51, -0.33 1.08, 0.42 3.06 C1.18 5.03, 3.16 8.68, 4.53 11.85 C5.9 15.02, 7.47 18.65, 8.64 22.06 C9.81 25.47, 10.87 28.65, 11.55 32.3 C12.23 35.96, 12.52 42.06, 12.71 44.02" stroke="#E1E1E1" stroke-width="4" fill="none"></path></g></g><mask></mask><g stroke-linecap="round"><g transform="translate(475.8450677662788 889.1543992508077) rotate(0 97.11407949591899 0)"><path d="M0 0 C7.49 0, 17.34 0, 44.96 0 C72.58 0, 140.84 0, 165.71 0 C190.59 0, 189.48 0, 194.23 0 M0 0 C7.49 0, 17.34 0, 44.96 0 C72.58 0, 140.84 0, 165.71 0 C190.59 0, 189.48 0, 194.23 0" stroke="#E1E1E1" stroke-width="4" fill="none"></path></g></g><mask></mask><g stroke-linecap="round"><g transform="translate(670.4788579388191 889.0506960146358) rotate(0 6.584398564679248 -21.81075665439107)"><path d="M0 0 C0.03 -1.7, -0.63 -5.75, 0.21 -10.2 C1.04 -14.64, 2.85 -21.09, 5.01 -26.66 C7.17 -32.23, 11.81 -40.79, 13.17 -43.62 M0 0 C0.03 -1.7, -0.63 -5.75, 0.21 -10.2 C1.04 -14.64, 2.85 -21.09, 5.01 -26.66 C7.17 -32.23, 11.81 -40.79, 13.17 -43.62" stroke="#E1E1E1" stroke-width="4" fill="none"></path></g></g><mask></mask><g stroke-linecap="round"><g transform="translate(683.6366355431497 844.9521622539851) rotate(0 -55.49680655278513 -40.02902492820601)"><path d="M0 0 C-3.01 -1.97, -10.44 -6.63, -18.06 -11.82 C-25.68 -17, -36.05 -24.16, -45.73 -31.13 C-55.4 -38.1, -66.24 -46.2, -76.11 -53.66 C-85.98 -61.11, -99.14 -71.45, -104.95 -75.85 C-110.77 -80.25, -109.99 -79.36, -110.99 -80.06 M0 0 C-3.01 -1.97, -10.44 -6.63, -18.06 -11.82 C-25.68 -17, -36.05 -24.16, -45.73 -31.13 C-55.4 -38.1, -66.24 -46.2, -76.11 -53.66 C-85.98 -61.11, -99.14 -71.45, -104.95 -75.85 C-110.77 -80.25, -109.99 -79.36, -110.99 -80.06" stroke="#E1E1E1" stroke-width="4" fill="none"></path></g></g><mask></mask><g stroke-linecap="round"><g transform="translate(572.0314423191537 764.7782419158755) rotate(0 -54.43152653641528 40.008239217099344)"><path d="M0 0 C-2.41 1.98, -5.84 5.17, -14.47 11.88 C-23.1 18.58, -39.44 31.15, -51.81 40.26 C-64.17 49.37, -79.17 59.91, -88.68 66.54 C-98.19 73.17, -105.5 77.77, -108.86 80.02 M0 0 C-2.41 1.98, -5.84 5.17, -14.47 11.88 C-23.1 18.58, -39.44 31.15, -51.81 40.26 C-64.17 49.37, -79.17 59.91, -88.68 66.54 C-98.19 73.17, -105.5 77.77, -108.86 80.02" stroke="#E1E1E1" stroke-width="4" fill="none"></path></g></g><mask></mask><g stroke-linecap="round"><g transform="translate(433.5523567955331 863.674744729668) rotate(0 4.64703364489651 13.248256765929)"><path d="M0 0 C0.79 1.55, 3.21 4.86, 4.76 9.28 C6.31 13.69, 8.54 23.63, 9.29 26.5 M0 0 C0.79 1.55, 3.21 4.86, 4.76 9.28 C6.31 13.69, 8.54 23.63, 9.29 26.5" stroke="#E1E1E1" stroke-width="4" fill="none"></path></g></g><mask></mask><g stroke-linecap="round"><g transform="translate(442.3572803365835 890.5795145363966) rotate(0 -0.5865105636803492 16.358083178204424)"><path d="M0 0 C-0.88 0.76, -3.69 2.42, -5.28 4.57 C-6.88 6.71, -9.04 10.17, -9.59 12.88 C-10.14 15.59, -9.55 18.28, -8.58 20.85 C-7.62 23.42, -5.78 26.45, -3.8 28.32 C-1.83 30.18, 1.22 31.32, 3.26 32.06 C5.29 32.79, 7.55 32.61, 8.41 32.72 M0 0 C-0.88 0.76, -3.69 2.42, -5.28 4.57 C-6.88 6.71, -9.04 10.17, -9.59 12.88 C-10.14 15.59, -9.55 18.28, -8.58 20.85 C-7.62 23.42, -5.78 26.45, -3.8 28.32 C-1.83 30.18, 1.22 31.32, 3.26 32.06 C5.29 32.79, 7.55 32.61, 8.41 32.72" stroke="#E1E1E1" stroke-width="4" fill="none"></path></g></g><mask></mask><g stroke-linecap="round"><g transform="translate(451.06016883259804 923.4787225615648) rotate(0 0 18.090141662990845)"><path d="M0 0 C0 6.03, 0 30.15, 0 36.18 M0 0 C0 6.03, 0 30.15, 0 36.18" stroke="#E1E1E1" stroke-width="4" fill="none"></path></g></g><mask></mask><g stroke-linecap="round"><g transform="translate(450.62265668637974 959.7215381739645) rotate(0 -8.313405960641717 16.64361510553681)"><path d="M0 0 C-1.28 0.13, -5.62 0.05, -7.7 0.76 C-9.78 1.46, -11.04 2.47, -12.48 4.22 C-13.92 5.96, -15.55 8.76, -16.33 11.22 C-17.11 13.69, -17.54 16.37, -17.15 18.98 C-16.75 21.59, -15.52 24.71, -13.95 26.88 C-12.39 29.05, -9.52 30.97, -7.74 32.01 C-5.96 33.05, -4.66 32.91, -3.29 33.12 C-1.91 33.33, -0.11 33.26, 0.52 33.29 M0 0 C-1.28 0.13, -5.62 0.05, -7.7 0.76 C-9.78 1.46, -11.04 2.47, -12.48 4.22 C-13.92 5.96, -15.55 8.76, -16.33 11.22 C-17.11 13.69, -17.54 16.37, -17.15 18.98 C-16.75 21.59, -15.52 24.71, -13.95 26.88 C-12.39 29.05, -9.52 30.97, -7.74 32.01 C-5.96 33.05, -4.66 32.91, -3.29 33.12 C-1.91 33.33, -0.11 33.26, 0.52 33.29" stroke="#E1E1E1" stroke-width="4" fill="none"></path></g></g><mask></mask><g stroke-linecap="round"><g transform="translate(451.00366125151595 993.3826758961704) rotate(0 26.216489993836603 34.96668250864889)"><path d="M0 0 C0 2.11, -0.11 7.83, 0.03 12.67 C0.16 17.5, -0.34 23.66, 0.79 29.02 C1.92 34.38, 3.8 39.83, 6.79 44.81 C9.78 49.78, 13.89 55, 18.74 58.87 C23.58 62.75, 30.24 66.21, 35.86 68.05 C41.48 69.89, 49.67 69.62, 52.43 69.93 M0 0 C0 2.11, -0.11 7.83, 0.03 12.67 C0.16 17.5, -0.34 23.66, 0.79 29.02 C1.92 34.38, 3.8 39.83, 6.79 44.81 C9.78 49.78, 13.89 55, 18.74 58.87 C23.58 62.75, 30.24 66.21, 35.86 68.05 C41.48 69.89, 49.67 69.62, 52.43 69.93" stroke="#E1E1E1" stroke-width="4" fill="none"></path></g></g><mask></mask><g stroke-linecap="round"><g transform="translate(503.402264979331 1063.843550914548) rotate(0 69.84399957318954 34.47002162629599)"><path d="M0 0 C0.01 2.84, -0.36 11.2, 0.05 17.02 C0.47 22.84, 0.88 29.72, 2.49 34.92 C4.11 40.12, 6.6 44.04, 9.74 48.24 C12.89 52.45, 16.51 56.84, 21.36 60.17 C26.21 63.49, 32.05 66.59, 38.84 68.19 C45.63 69.8, 53.16 69.53, 62.09 69.8 C71.02 70.07, 84.89 70.47, 92.44 69.8 C99.99 69.13, 102.79 67.75, 107.39 65.79 C111.99 63.83, 116.17 61.3, 120.06 58.03 C123.95 54.76, 127.88 50.85, 130.73 46.18 C133.58 41.51, 135.76 34.35, 137.16 30 C138.56 25.66, 138.72 25.26, 139.14 20.11 C139.56 14.97, 139.6 2.63, 139.69 -0.86 M0 0 C0.01 2.84, -0.36 11.2, 0.05 17.02 C0.47 22.84, 0.88 29.72, 2.49 34.92 C4.11 40.12, 6.6 44.04, 9.74 48.24 C12.89 52.45, 16.51 56.84, 21.36 60.17 C26.21 63.49, 32.05 66.59, 38.84 68.19 C45.63 69.8, 53.16 69.53, 62.09 69.8 C71.02 70.07, 84.89 70.47, 92.44 69.8 C99.99 69.13, 102.79 67.75, 107.39 65.79 C111.99 63.83, 116.17 61.3, 120.06 58.03 C123.95 54.76, 127.88 50.85, 130.73 46.18 C133.58 41.51, 135.76 34.35, 137.16 30 C138.56 25.66, 138.72 25.26, 139.14 20.11 C139.56 14.97, 139.6 2.63, 139.69 -0.86" stroke="#E1E1E1" stroke-width="4" fill="none"></path></g></g><mask></mask><g stroke-linecap="round"><g transform="translate(643.3463141024886 1062.901982957343) rotate(0 25.836175886816932 -34.82165880804405)"><path d="M0 0 C1.41 -0.01, 4.91 0.58, 8.49 -0.08 C12.07 -0.75, 17.18 -2.01, 21.46 -3.97 C25.74 -5.93, 30.23 -8.18, 34.19 -11.86 C38.14 -15.54, 42.42 -21.41, 45.21 -26.04 C48 -30.68, 49.83 -33.93, 50.91 -39.68 C51.98 -45.43, 51.54 -55.54, 51.67 -60.54 C51.8 -65.53, 51.67 -68.13, 51.67 -69.64 M0 0 C1.41 -0.01, 4.91 0.58, 8.49 -0.08 C12.07 -0.75, 17.18 -2.01, 21.46 -3.97 C25.74 -5.93, 30.23 -8.18, 34.19 -11.86 C38.14 -15.54, 42.42 -21.41, 45.21 -26.04 C48 -30.68, 49.83 -33.93, 50.91 -39.68 C51.98 -45.43, 51.54 -55.54, 51.67 -60.54 C51.8 -65.53, 51.67 -68.13, 51.67 -69.64" stroke="#E1E1E1" stroke-width="4" fill="none"></path></g></g><mask></mask><g stroke-linecap="round"><g transform="translate(695.378406775367 993.0128805824929) rotate(0 8.287519891518116 -17.022465044182923)"><path d="M0 0 C1.26 -0.26, 5.11 -0.49, 7.55 -1.58 C9.98 -2.67, 13.03 -4.41, 14.61 -6.53 C16.2 -8.65, 16.73 -11.6, 17.05 -14.3 C17.36 -17, 17.29 -20.32, 16.51 -22.75 C15.73 -25.19, 13.93 -27.27, 12.34 -28.92 C10.75 -30.58, 9.09 -31.84, 6.96 -32.69 C4.82 -33.54, 0.76 -33.82, -0.47 -34.04 M0 0 C1.26 -0.26, 5.11 -0.49, 7.55 -1.58 C9.98 -2.67, 13.03 -4.41, 14.61 -6.53 C16.2 -8.65, 16.73 -11.6, 17.05 -14.3 C17.36 -17, 17.29 -20.32, 16.51 -22.75 C15.73 -25.19, 13.93 -27.27, 12.34 -28.92 C10.75 -30.58, 9.09 -31.84, 6.96 -32.69 C4.82 -33.54, 0.76 -33.82, -0.47 -34.04" stroke="#E1E1E1" stroke-width="4" fill="none"></path></g></g><mask></mask><g stroke-linecap="round"><g transform="translate(695.1917325636844 958.6757599231441) rotate(0 0 -17.905520494911457)"><path d="M0 0 C0 -5.97, 0 -29.84, 0 -35.81 M0 0 C0 -5.97, 0 -29.84, 0 -35.81" stroke="#E1E1E1" stroke-width="4" fill="none"></path></g></g><mask></mask><g stroke-linecap="round"><g transform="translate(695.3375780927555 922.7076427669197) rotate(0 134.07588836194526 -210.6813227744458)"><path d="M0 0 C0.91 -0.09, 3.57 0.11, 5.49 -0.55 C7.4 -1.22, 9.81 -2.51, 11.49 -3.99 C13.17 -5.47, 14.63 -7.55, 15.55 -9.42 C16.47 -11.29, 16.89 -13.09, 17.03 -15.22 C17.17 -17.35, 16.93 -20.18, 16.39 -22.18 C15.84 -24.18, 15.03 -25.73, 13.76 -27.23 C12.5 -28.73, 9.85 -30.02, 8.79 -31.15 C7.73 -32.29, 7.54 -33.03, 7.4 -34.05 C7.26 -35.07, 7.31 -34.79, 7.96 -37.27 C8.6 -39.75, 9.86 -45.34, 11.27 -48.94 C12.68 -52.53, 15 -57.19, 16.43 -58.83 C17.87 -60.46, 17.78 -59.7, 19.87 -58.74 C21.97 -57.77, 24.58 -55.74, 29.01 -53.03 C33.45 -50.32, 40.21 -45.93, 46.48 -42.49 C52.75 -39.04, 58.85 -36.12, 66.64 -32.35 C74.43 -28.58, 83.92 -23.76, 93.2 -19.87 C102.47 -15.98, 112.48 -12.31, 122.29 -9.01 C132.11 -5.72, 143.43 -2.23, 152.1 -0.08 C160.77 2.06, 167.53 3.04, 174.33 3.84 C181.12 4.63, 186.24 4.81, 192.85 4.66 C199.46 4.51, 206.91 4.64, 213.98 2.95 C221.06 1.26, 229.25 -2.01, 235.31 -5.47 C241.37 -8.93, 246.09 -13.14, 250.33 -17.81 C254.58 -22.48, 258.06 -27.83, 260.78 -33.5 C263.51 -39.16, 265.47 -44.81, 266.7 -51.8 C267.93 -58.79, 268.16 -68.44, 268.15 -75.45 C268.15 -82.45, 267.65 -86.85, 266.68 -93.84 C265.7 -100.83, 264.2 -109.9, 262.3 -117.36 C260.41 -124.82, 258.23 -130.4, 255.32 -138.62 C252.41 -146.84, 248.81 -157.27, 244.84 -166.69 C240.86 -176.12, 236.25 -185.58, 231.48 -195.17 C226.72 -204.75, 220.13 -216.71, 216.23 -224.19 C212.32 -231.68, 210.72 -236.37, 208.04 -240.07 C205.36 -243.77, 202.95 -245.21, 200.15 -246.4 C197.36 -247.59, 193.94 -247.52, 191.27 -247.19 C188.59 -246.86, 186.23 -245.79, 184.1 -244.4 C181.98 -243.01, 179.81 -241.1, 178.5 -238.87 C177.19 -236.64, 176.18 -234.09, 176.25 -231.02 C176.33 -227.96, 177 -224.75, 178.95 -220.49 C180.9 -216.23, 184.35 -212.13, 187.96 -205.45 C191.57 -198.77, 196.8 -188.07, 200.62 -180.41 C204.45 -172.75, 207.37 -167.59, 210.91 -159.48 C214.46 -151.37, 218.97 -139.72, 221.88 -131.74 C224.8 -123.77, 226.55 -118.9, 228.4 -111.62 C230.25 -104.34, 232.04 -95.5, 232.98 -88.06 C233.92 -80.63, 234.59 -73.92, 234.03 -67 C233.47 -60.09, 231.65 -51.48, 229.62 -46.57 C227.58 -41.66, 225.81 -40.29, 221.81 -37.53 C217.81 -34.78, 211.63 -31.47, 205.64 -30.07 C199.64 -28.66, 193.85 -28.68, 185.84 -29.13 C177.83 -29.58, 167.78 -30.43, 157.59 -32.75 C147.4 -35.08, 135.96 -38.93, 124.72 -43.1 C113.47 -47.26, 101.01 -52.67, 90.14 -57.73 C79.27 -62.79, 67.69 -69.09, 59.51 -73.47 C51.33 -77.85, 44.7 -81.73, 41.09 -84.01 C37.47 -86.3, 38.05 -86.02, 37.82 -87.17 C37.6 -88.32, 37.65 -88.14, 39.74 -90.93 C41.83 -93.72, 46.25 -98.81, 50.35 -103.9 C54.45 -109, 59.33 -115.44, 64.34 -121.51 C69.35 -127.59, 75.35 -134.25, 80.4 -140.36 C85.45 -146.48, 90.15 -152.18, 94.65 -158.21 C99.14 -164.23, 103.38 -170.44, 107.39 -176.54 C111.41 -182.64, 114.94 -188.26, 118.74 -194.8 C122.55 -201.33, 126.68 -208.61, 130.21 -215.76 C133.74 -222.91, 137.13 -230.23, 139.92 -237.69 C142.7 -245.14, 144.72 -252.31, 146.92 -260.46 C149.12 -268.62, 151.57 -277.64, 153.12 -286.62 C154.67 -295.61, 155.55 -304.34, 156.24 -314.37 C156.92 -324.4, 157.72 -335.05, 157.23 -346.82 C156.74 -358.6, 154.75 -374.36, 153.28 -385.01 C151.81 -395.66, 150.06 -403.91, 148.41 -410.75 C146.75 -417.58, 144.19 -423.48, 143.34 -426.02 M0 0 C0.91 -0.09, 3.57 0.11, 5.49 -0.55 C7.4 -1.22, 9.81 -2.51, 11.49 -3.99 C13.17 -5.47, 14.63 -7.55, 15.55 -9.42 C16.47 -11.29, 16.89 -13.09, 17.03 -15.22 C17.17 -17.35, 16.93 -20.18, 16.39 -22.18 C15.84 -24.18, 15.03 -25.73, 13.76 -27.23 C12.5 -28.73, 9.85 -30.02, 8.79 -31.15 C7.73 -32.29, 7.54 -33.03, 7.4 -34.05 C7.26 -35.07, 7.31 -34.79, 7.96 -37.27 C8.6 -39.75, 9.86 -45.34, 11.27 -48.94 C12.68 -52.53, 15 -57.19, 16.43 -58.83 C17.87 -60.46, 17.78 -59.7, 19.87 -58.74 C21.97 -57.77, 24.58 -55.74, 29.01 -53.03 C33.45 -50.32, 40.21 -45.93, 46.48 -42.49 C52.75 -39.04, 58.85 -36.12, 66.64 -32.35 C74.43 -28.58, 83.92 -23.76, 93.2 -19.87 C102.47 -15.98, 112.48 -12.31, 122.29 -9.01 C132.11 -5.72, 143.43 -2.23, 152.1 -0.08 C160.77 2.06, 167.53 3.04, 174.33 3.84 C181.12 4.63, 186.24 4.81, 192.85 4.66 C199.46 4.51, 206.91 4.64, 213.98 2.95 C221.06 1.26, 229.25 -2.01, 235.31 -5.47 C241.37 -8.93, 246.09 -13.14, 250.33 -17.81 C254.58 -22.48, 258.06 -27.83, 260.78 -33.5 C263.51 -39.16, 265.47 -44.81, 266.7 -51.8 C267.93 -58.79, 268.16 -68.44, 268.15 -75.45 C268.15 -82.45, 267.65 -86.85, 266.68 -93.84 C265.7 -100.83, 264.2 -109.9, 262.3 -117.36 C260.41 -124.82, 258.23 -130.4, 255.32 -138.62 C252.41 -146.84, 248.81 -157.27, 244.84 -166.69 C240.86 -176.12, 236.25 -185.58, 231.48 -195.17 C226.72 -204.75, 220.13 -216.71, 216.23 -224.19 C212.32 -231.68, 210.72 -236.37, 208.04 -240.07 C205.36 -243.77, 202.95 -245.21, 200.15 -246.4 C197.36 -247.59, 193.94 -247.52, 191.27 -247.19 C188.59 -246.86, 186.23 -245.79, 184.1 -244.4 C181.98 -243.01, 179.81 -241.1, 178.5 -238.87 C177.19 -236.64, 176.18 -234.09, 176.25 -231.02 C176.33 -227.96, 177 -224.75, 178.95 -220.49 C180.9 -216.23, 184.35 -212.13, 187.96 -205.45 C191.57 -198.77, 196.8 -188.07, 200.62 -180.41 C204.45 -172.75, 207.37 -167.59, 210.91 -159.48 C214.46 -151.37, 218.97 -139.72, 221.88 -131.74 C224.8 -123.77, 226.55 -118.9, 228.4 -111.62 C230.25 -104.34, 232.04 -95.5, 232.98 -88.06 C233.92 -80.63, 234.59 -73.92, 234.03 -67 C233.47 -60.09, 231.65 -51.48, 229.62 -46.57 C227.58 -41.66, 225.81 -40.29, 221.81 -37.53 C217.81 -34.78, 211.63 -31.47, 205.64 -30.07 C199.64 -28.66, 193.85 -28.68, 185.84 -29.13 C177.83 -29.58, 167.78 -30.43, 157.59 -32.75 C147.4 -35.08, 135.96 -38.93, 124.72 -43.1 C113.47 -47.26, 101.01 -52.67, 90.14 -57.73 C79.27 -62.79, 67.69 -69.09, 59.51 -73.47 C51.33 -77.85, 44.7 -81.73, 41.09 -84.01 C37.47 -86.3, 38.05 -86.02, 37.82 -87.17 C37.6 -88.32, 37.65 -88.14, 39.74 -90.93 C41.83 -93.72, 46.25 -98.81, 50.35 -103.9 C54.45 -109, 59.33 -115.44, 64.34 -121.51 C69.35 -127.59, 75.35 -134.25, 80.4 -140.36 C85.45 -146.48, 90.15 -152.18, 94.65 -158.21 C99.14 -164.23, 103.38 -170.44, 107.39 -176.54 C111.41 -182.64, 114.94 -188.26, 118.74 -194.8 C122.55 -201.33, 126.68 -208.61, 130.21 -215.76 C133.74 -222.91, 137.13 -230.23, 139.92 -237.69 C142.7 -245.14, 144.72 -252.31, 146.92 -260.46 C149.12 -268.62, 151.57 -277.64, 153.12 -286.62 C154.67 -295.61, 155.55 -304.34, 156.24 -314.37 C156.92 -324.4, 157.72 -335.05, 157.23 -346.82 C156.74 -358.6, 154.75 -374.36, 153.28 -385.01 C151.81 -395.66, 150.06 -403.91, 148.41 -410.75 C146.75 -417.58, 144.19 -423.48, 143.34 -426.02" stroke="#E1E1E1" stroke-width="4" fill="none"></path></g></g><mask></mask><g stroke-linecap="round"><g transform="translate(838.6280516278513 496.348594821259) rotate(0 -20.052706229365867 -189.9848537137417)"><path d="M0 0 C2.42 -3.07, 9.14 -11.41, 14.55 -18.43 C19.95 -25.45, 26.3 -33.76, 32.44 -42.13 C38.58 -50.49, 45.23 -59.68, 51.39 -68.6 C57.54 -77.52, 63.57 -86.84, 69.38 -95.65 C75.18 -104.46, 80.12 -111.48, 86.2 -121.46 C92.28 -131.44, 99.68 -144.34, 105.86 -155.52 C112.04 -166.71, 118.07 -177.84, 123.29 -188.55 C128.5 -199.26, 133.03 -208.73, 137.13 -219.77 C141.23 -230.81, 145 -242.75, 147.87 -254.8 C150.75 -266.85, 153.39 -281.57, 154.39 -292.09 C155.4 -302.6, 154.92 -310.2, 153.9 -317.87 C152.88 -325.53, 151.06 -331.63, 148.27 -338.08 C145.47 -344.52, 141.62 -351.38, 137.14 -356.54 C132.67 -361.7, 127.27 -365.6, 121.4 -369.04 C115.53 -372.47, 108.31 -375.33, 101.91 -377.15 C95.52 -378.97, 90.17 -379.68, 83.03 -379.97 C75.89 -380.26, 68.19 -380.15, 59.08 -378.88 C49.96 -377.6, 39.64 -375.51, 28.33 -372.32 C17.02 -369.14, 3.42 -364.52, -8.77 -359.77 C-20.97 -355.02, -32.63 -349.8, -44.82 -343.82 C-57.01 -337.83, -70.58 -330.47, -81.92 -323.87 C-93.26 -317.26, -102.43 -310.79, -112.86 -304.17 C-123.29 -297.55, -135.29 -290.22, -144.49 -284.16 C-153.69 -278.09, -160.96 -272.8, -168.07 -267.78 C-175.18 -262.76, -182.73 -258.06, -187.14 -254.03 C-191.54 -249.99, -193.67 -247.37, -194.5 -243.59 C-195.33 -239.8, -194.33 -234.6, -192.13 -231.29 C-189.92 -227.98, -185.28 -224.63, -181.26 -223.74 C-177.25 -222.85, -173.77 -223.04, -168.03 -225.93 C-162.3 -228.83, -154.1 -235.94, -146.84 -241.09 C-139.58 -246.25, -133.01 -250.96, -124.49 -256.87 C-115.98 -262.78, -106.15 -270.1, -95.75 -276.55 C-85.34 -282.99, -71.93 -290.08, -62.07 -295.55 C-52.21 -301.02, -46.49 -304.45, -36.57 -309.36 C-26.65 -314.27, -12.43 -320.72, -2.55 -324.99 C7.34 -329.26, 14.13 -331.97, 22.76 -334.99 C31.4 -338.01, 40.11 -341.21, 49.28 -343.11 C58.46 -345.01, 69.57 -346.22, 77.81 -346.37 C86.06 -346.51, 93.14 -345.66, 98.77 -343.97 C104.4 -342.27, 108.15 -340.06, 111.57 -336.2 C114.99 -332.35, 117.68 -326.5, 119.28 -320.83 C120.88 -315.16, 121.35 -309.72, 121.19 -302.18 C121.02 -294.65, 120.21 -285.19, 118.32 -275.61 C116.42 -266.03, 114.37 -257.23, 109.82 -244.69 C105.28 -232.15, 97.53 -214.2, 91.03 -200.37 C84.52 -186.54, 78.04 -174.53, 70.82 -161.71 C63.59 -148.89, 55.86 -136.28, 47.69 -123.46 C39.53 -110.64, 30.35 -96.94, 21.83 -84.78 C13.31 -72.63, 2.64 -58.49, -3.43 -50.53 C-9.51 -42.58, -12.76 -39.31, -14.63 -37.07 M0 0 C2.42 -3.07, 9.14 -11.41, 14.55 -18.43 C19.95 -25.45, 26.3 -33.76, 32.44 -42.13 C38.58 -50.49, 45.23 -59.68, 51.39 -68.6 C57.54 -77.52, 63.57 -86.84, 69.38 -95.65 C75.18 -104.46, 80.12 -111.48, 86.2 -121.46 C92.28 -131.44, 99.68 -144.34, 105.86 -155.52 C112.04 -166.71, 118.07 -177.84, 123.29 -188.55 C128.5 -199.26, 133.03 -208.73, 137.13 -219.77 C141.23 -230.81, 145 -242.75, 147.87 -254.8 C150.75 -266.85, 153.39 -281.57, 154.39 -292.09 C155.4 -302.6, 154.92 -310.2, 153.9 -317.87 C152.88 -325.53, 151.06 -331.63, 148.27 -338.08 C145.47 -344.52, 141.62 -351.38, 137.14 -356.54 C132.67 -361.7, 127.27 -365.6, 121.4 -369.04 C115.53 -372.47, 108.31 -375.33, 101.91 -377.15 C95.52 -378.97, 90.17 -379.68, 83.03 -379.97 C75.89 -380.26, 68.19 -380.15, 59.08 -378.88 C49.96 -377.6, 39.64 -375.51, 28.33 -372.32 C17.02 -369.14, 3.42 -364.52, -8.77 -359.77 C-20.97 -355.02, -32.63 -349.8, -44.82 -343.82 C-57.01 -337.83, -70.58 -330.47, -81.92 -323.87 C-93.26 -317.26, -102.43 -310.79, -112.86 -304.17 C-123.29 -297.55, -135.29 -290.22, -144.49 -284.16 C-153.69 -278.09, -160.96 -272.8, -168.07 -267.78 C-175.18 -262.76, -182.73 -258.06, -187.14 -254.03 C-191.54 -249.99, -193.67 -247.37, -194.5 -243.59 C-195.33 -239.8, -194.33 -234.6, -192.13 -231.29 C-189.92 -227.98, -185.28 -224.63, -181.26 -223.74 C-177.25 -222.85, -173.77 -223.04, -168.03 -225.93 C-162.3 -228.83, -154.1 -235.94, -146.84 -241.09 C-139.58 -246.25, -133.01 -250.96, -124.49 -256.87 C-115.98 -262.78, -106.15 -270.1, -95.75 -276.55 C-85.34 -282.99, -71.93 -290.08, -62.07 -295.55 C-52.21 -301.02, -46.49 -304.45, -36.57 -309.36 C-26.65 -314.27, -12.43 -320.72, -2.55 -324.99 C7.34 -329.26, 14.13 -331.97, 22.76 -334.99 C31.4 -338.01, 40.11 -341.21, 49.28 -343.11 C58.46 -345.01, 69.57 -346.22, 77.81 -346.37 C86.06 -346.51, 93.14 -345.66, 98.77 -343.97 C104.4 -342.27, 108.15 -340.06, 111.57 -336.2 C114.99 -332.35, 117.68 -326.5, 119.28 -320.83 C120.88 -315.16, 121.35 -309.72, 121.19 -302.18 C121.02 -294.65, 120.21 -285.19, 118.32 -275.61 C116.42 -266.03, 114.37 -257.23, 109.82 -244.69 C105.28 -232.15, 97.53 -214.2, 91.03 -200.37 C84.52 -186.54, 78.04 -174.53, 70.82 -161.71 C63.59 -148.89, 55.86 -136.28, 47.69 -123.46 C39.53 -110.64, 30.35 -96.94, 21.83 -84.78 C13.31 -72.63, 2.64 -58.49, -3.43 -50.53 C-9.51 -42.58, -12.76 -39.31, -14.63 -37.07" stroke="#E1E1E1" stroke-width="4" fill="none"></path></g></g><mask></mask><g stroke-linecap="round"><g transform="translate(823.8163013388803 459.1926300189134) rotate(0 -251.17088504889375 -74.4407810042328)"><path d="M0 0 C-2.03 -3.63, -7.17 -13.7, -12.16 -21.76 C-17.16 -29.82, -23.2 -39.78, -29.98 -48.36 C-36.76 -56.93, -45.42 -65.9, -52.85 -73.2 C-60.29 -80.5, -66.32 -85.87, -74.57 -92.16 C-82.82 -98.46, -92.87 -105.34, -102.38 -110.97 C-111.9 -116.59, -120.7 -121.24, -131.66 -125.92 C-142.62 -130.6, -155.38 -135.49, -168.12 -139.05 C-180.87 -142.6, -194.41 -145.51, -208.11 -147.26 C-221.81 -149, -234.72 -149.77, -250.35 -149.54 C-265.97 -149.31, -286.52 -147.98, -301.87 -145.87 C-317.22 -143.77, -328.98 -141.11, -342.44 -136.91 C-355.9 -132.71, -369.73 -127.05, -382.64 -120.66 C-395.55 -114.28, -408.54 -106.86, -419.9 -98.6 C-431.26 -90.35, -441.52 -80.35, -450.79 -71.12 C-460.07 -61.89, -468.58 -52.15, -475.53 -43.22 C-482.47 -34.28, -487.99 -24.82, -492.46 -17.5 C-496.93 -10.19, -500.69 -2.37, -502.34 0.66 M0 0 C-2.03 -3.63, -7.17 -13.7, -12.16 -21.76 C-17.16 -29.82, -23.2 -39.78, -29.98 -48.36 C-36.76 -56.93, -45.42 -65.9, -52.85 -73.2 C-60.29 -80.5, -66.32 -85.87, -74.57 -92.16 C-82.82 -98.46, -92.87 -105.34, -102.38 -110.97 C-111.9 -116.59, -120.7 -121.24, -131.66 -125.92 C-142.62 -130.6, -155.38 -135.49, -168.12 -139.05 C-180.87 -142.6, -194.41 -145.51, -208.11 -147.26 C-221.81 -149, -234.72 -149.77, -250.35 -149.54 C-265.97 -149.31, -286.52 -147.98, -301.87 -145.87 C-317.22 -143.77, -328.98 -141.11, -342.44 -136.91 C-355.9 -132.71, -369.73 -127.05, -382.64 -120.66 C-395.55 -114.28, -408.54 -106.86, -419.9 -98.6 C-431.26 -90.35, -441.52 -80.35, -450.79 -71.12 C-460.07 -61.89, -468.58 -52.15, -475.53 -43.22 C-482.47 -34.28, -487.99 -24.82, -492.46 -17.5 C-496.93 -10.19, -500.69 -2.37, -502.34 0.66" stroke="#E1E1E1" stroke-width="4" fill="none"></path></g></g><mask></mask><g stroke-linecap="round"><g transform="translate(320.97743194838745 459.6391181206475) rotate(0 6.048559747359036 -153.36521523774104)"><path d="M0 0 C-2.48 -3.1, -9.64 -11.62, -14.86 -18.63 C-20.07 -25.64, -24.63 -32.42, -31.3 -42.04 C-37.96 -51.67, -47.59 -65.38, -54.86 -76.38 C-62.14 -87.39, -67.92 -96.23, -74.94 -108.06 C-81.95 -119.89, -90.32 -134.46, -96.96 -147.36 C-103.6 -160.26, -109.85 -173.93, -114.77 -185.45 C-119.69 -196.98, -123.36 -206.29, -126.48 -216.49 C-129.6 -226.69, -132.13 -237.29, -133.49 -246.64 C-134.86 -255.98, -135.07 -265.3, -134.67 -272.56 C-134.27 -279.82, -133.32 -285.23, -131.1 -290.18 C-128.89 -295.13, -125.36 -299.21, -121.37 -302.26 C-117.39 -305.32, -113.38 -307.28, -107.18 -308.52 C-100.98 -309.75, -93.21 -310.39, -84.19 -309.69 C-75.16 -308.98, -63.85 -307.01, -53.05 -304.27 C-42.26 -301.54, -30.68 -297.65, -19.42 -293.27 C-8.17 -288.89, 3.09 -283.52, 14.47 -277.99 C25.86 -272.47, 36.98 -266.9, 48.9 -260.12 C60.83 -253.34, 73.04 -245.71, 86.02 -237.33 C99 -228.95, 116.3 -217.09, 126.78 -209.83 C137.27 -202.58, 143.08 -197.66, 148.94 -193.8 C154.8 -189.94, 157.86 -187.55, 161.95 -186.69 C166.05 -185.83, 170.63 -186.89, 173.52 -188.65 C176.41 -190.41, 178.09 -194.3, 179.29 -197.24 C180.49 -200.19, 181.16 -203.29, 180.72 -206.33 C180.28 -209.37, 180.38 -211.83, 176.68 -215.5 C172.98 -219.16, 166.11 -222.99, 158.52 -228.34 C150.92 -233.69, 141.29 -240.84, 131.14 -247.62 C120.99 -254.41, 108.38 -262.36, 97.59 -269.06 C86.8 -275.75, 77.48 -281.53, 66.38 -287.8 C55.28 -294.07, 41.51 -301.42, 31.01 -306.67 C20.5 -311.92, 13.05 -315.27, 3.35 -319.31 C-6.35 -323.34, -15.81 -327.35, -27.17 -330.9 C-38.52 -334.45, -53.51 -338.57, -64.76 -340.61 C-76.01 -342.65, -85.97 -343.17, -94.68 -343.15 C-103.39 -343.13, -109.67 -342.48, -117.02 -340.52 C-124.37 -338.55, -132.7 -335.35, -138.78 -331.36 C-144.85 -327.37, -149.24 -322.05, -153.5 -316.59 C-157.75 -311.13, -161.77 -306.09, -164.29 -298.59 C-166.81 -291.08, -168.11 -280.73, -168.62 -271.55 C-169.14 -262.37, -168.85 -253.88, -167.37 -243.49 C-165.89 -233.11, -162.96 -219.97, -159.75 -209.24 C-156.54 -198.52, -152.47 -189.63, -148.11 -179.12 C-143.76 -168.61, -138.68 -156.61, -133.64 -146.2 C-128.6 -135.8, -123.51 -126.77, -117.88 -116.68 C-112.24 -106.6, -106.1 -96.07, -99.83 -85.7 C-93.56 -75.32, -87.65 -65.47, -80.26 -54.43 C-72.86 -43.38, -63.7 -30.88, -55.47 -19.43 C-47.24 -7.97, -37.83 4.98, -30.9 14.29 C-23.98 23.6, -16.75 32.73, -13.92 36.42 M0 0 C-2.48 -3.1, -9.64 -11.62, -14.86 -18.63 C-20.07 -25.64, -24.63 -32.42, -31.3 -42.04 C-37.96 -51.67, -47.59 -65.38, -54.86 -76.38 C-62.14 -87.39, -67.92 -96.23, -74.94 -108.06 C-81.95 -119.89, -90.32 -134.46, -96.96 -147.36 C-103.6 -160.26, -109.85 -173.93, -114.77 -185.45 C-119.69 -196.98, -123.36 -206.29, -126.48 -216.49 C-129.6 -226.69, -132.13 -237.29, -133.49 -246.64 C-134.86 -255.98, -135.07 -265.3, -134.67 -272.56 C-134.27 -279.82, -133.32 -285.23, -131.1 -290.18 C-128.89 -295.13, -125.36 -299.21, -121.37 -302.26 C-117.39 -305.32, -113.38 -307.28, -107.18 -308.52 C-100.98 -309.75, -93.21 -310.39, -84.19 -309.69 C-75.16 -308.98, -63.85 -307.01, -53.05 -304.27 C-42.26 -301.54, -30.68 -297.65, -19.42 -293.27 C-8.17 -288.89, 3.09 -283.52, 14.47 -277.99 C25.86 -272.47, 36.98 -266.9, 48.9 -260.12 C60.83 -253.34, 73.04 -245.71, 86.02 -237.33 C99 -228.95, 116.3 -217.09, 126.78 -209.83 C137.27 -202.58, 143.08 -197.66, 148.94 -193.8 C154.8 -189.94, 157.86 -187.55, 161.95 -186.69 C166.05 -185.83, 170.63 -186.89, 173.52 -188.65 C176.41 -190.41, 178.09 -194.3, 179.29 -197.24 C180.49 -200.19, 181.16 -203.29, 180.72 -206.33 C180.28 -209.37, 180.38 -211.83, 176.68 -215.5 C172.98 -219.16, 166.11 -222.99, 158.52 -228.34 C150.92 -233.69, 141.29 -240.84, 131.14 -247.62 C120.99 -254.41, 108.38 -262.36, 97.59 -269.06 C86.8 -275.75, 77.48 -281.53, 66.38 -287.8 C55.28 -294.07, 41.51 -301.42, 31.01 -306.67 C20.5 -311.92, 13.05 -315.27, 3.35 -319.31 C-6.35 -323.34, -15.81 -327.35, -27.17 -330.9 C-38.52 -334.45, -53.51 -338.57, -64.76 -340.61 C-76.01 -342.65, -85.97 -343.17, -94.68 -343.15 C-103.39 -343.13, -109.67 -342.48, -117.02 -340.52 C-124.37 -338.55, -132.7 -335.35, -138.78 -331.36 C-144.85 -327.37, -149.24 -322.05, -153.5 -316.59 C-157.75 -311.13, -161.77 -306.09, -164.29 -298.59 C-166.81 -291.08, -168.11 -280.73, -168.62 -271.55 C-169.14 -262.37, -168.85 -253.88, -167.37 -243.49 C-165.89 -233.11, -162.96 -219.97, -159.75 -209.24 C-156.54 -198.52, -152.47 -189.63, -148.11 -179.12 C-143.76 -168.61, -138.68 -156.61, -133.64 -146.2 C-128.6 -135.8, -123.51 -126.77, -117.88 -116.68 C-112.24 -106.6, -106.1 -96.07, -99.83 -85.7 C-93.56 -75.32, -87.65 -65.47, -80.26 -54.43 C-72.86 -43.38, -63.7 -30.88, -55.47 -19.43 C-47.24 -7.97, -37.83 4.98, -30.9 14.29 C-23.98 23.6, -16.75 32.73, -13.92 36.42" stroke="#E1E1E1" stroke-width="4" fill="none"></path></g></g><mask></mask><g stroke-linecap="round"><g transform="translate(307.2395578894316 496.61367880091757) rotate(0 46.14693319945013 169.67406814120773)"><path d="M0 0 C-0.78 3.03, -3.05 11.02, -4.67 18.2 C-6.29 25.38, -8.35 34.64, -9.74 43.09 C-11.13 51.54, -12.25 60.11, -13.02 68.88 C-13.79 77.66, -14.61 85.25, -14.35 95.72 C-14.08 106.19, -12.98 120.38, -11.43 131.7 C-9.87 143.02, -7.76 153.55, -5.02 163.63 C-2.28 173.7, 1.15 182.61, 5.02 192.14 C8.89 201.67, 12.61 210.58, 18.2 220.81 C23.8 231.05, 31.37 243.03, 38.59 253.56 C45.82 264.08, 54.27 274.66, 61.56 283.96 C68.86 293.26, 74.85 300.14, 82.36 309.37 C89.87 318.61, 102.59 334.35, 106.64 339.35 M0 0 C-0.78 3.03, -3.05 11.02, -4.67 18.2 C-6.29 25.38, -8.35 34.64, -9.74 43.09 C-11.13 51.54, -12.25 60.11, -13.02 68.88 C-13.79 77.66, -14.61 85.25, -14.35 95.72 C-14.08 106.19, -12.98 120.38, -11.43 131.7 C-9.87 143.02, -7.76 153.55, -5.02 163.63 C-2.28 173.7, 1.15 182.61, 5.02 192.14 C8.89 201.67, 12.61 210.58, 18.2 220.81 C23.8 231.05, 31.37 243.03, 38.59 253.56 C45.82 264.08, 54.27 274.66, 61.56 283.96 C68.86 293.26, 74.85 300.14, 82.36 309.37 C89.87 318.61, 102.59 334.35, 106.64 339.35" stroke="#E1E1E1" stroke-width="4" fill="none"></path></g></g><mask></mask><g stroke-linecap="round"><g transform="translate(413.82240001905825 836.2788942253196) rotate(0 -105.92295053274927 -34.55418419353646)"><path d="M0 0 C-3.76 2.09, -12.52 7.21, -22.56 12.52 C-32.61 17.82, -48.13 26.3, -60.29 31.84 C-72.46 37.39, -84.33 41.95, -95.54 45.81 C-106.76 49.67, -117.87 53, -127.58 54.98 C-137.3 56.96, -146.1 57.6, -153.83 57.67 C-161.56 57.74, -168.29 57.14, -173.94 55.41 C-179.59 53.67, -184.23 50.68, -187.74 47.24 C-191.25 43.81, -193.43 39.85, -195 34.81 C-196.57 29.77, -197.09 24.25, -197.14 17.01 C-197.2 9.77, -197.17 1.46, -195.33 -8.62 C-193.49 -18.7, -190.12 -31.45, -186.09 -43.46 C-182.06 -55.47, -176.32 -69.14, -171.15 -80.67 C-165.98 -92.2, -160.08 -103.16, -155.07 -112.64 C-150.05 -122.12, -143.65 -131.55, -141.07 -137.56 C-138.48 -143.56, -138.94 -145.6, -139.56 -148.68 C-140.17 -151.76, -142.29 -154.02, -144.75 -156.02 C-147.21 -158.02, -151.06 -160.1, -154.31 -160.67 C-157.56 -161.23, -161.33 -160.85, -164.24 -159.41 C-167.16 -157.97, -168.24 -157.62, -171.8 -152.02 C-175.36 -146.42, -180.55 -135.84, -185.62 -125.8 C-190.69 -115.76, -196.75 -103.86, -202.2 -91.77 C-207.66 -79.67, -214.22 -64.63, -218.34 -53.24 C-222.46 -41.85, -224.75 -34.31, -226.94 -23.41 C-229.12 -12.51, -231.37 0.69, -231.45 12.14 C-231.53 23.58, -230.15 36.12, -227.42 45.26 C-224.69 54.4, -220.41 60.83, -215.05 66.97 C-209.69 73.11, -203.41 78.01, -195.25 82.11 C-187.08 86.2, -176.37 90.25, -166.06 91.56 C-155.74 92.86, -144.32 91.46, -133.35 89.94 C-122.38 88.43, -111.45 85.63, -100.26 82.48 C-89.06 79.32, -78.77 76.2, -66.16 70.99 C-53.56 65.79, -37.21 57.63, -24.63 51.26 C-12.04 44.89, 1.96 36.79, 9.33 32.77 C16.7 28.75, 17.89 28.09, 19.6 27.15 M0 0 C-3.76 2.09, -12.52 7.21, -22.56 12.52 C-32.61 17.82, -48.13 26.3, -60.29 31.84 C-72.46 37.39, -84.33 41.95, -95.54 45.81 C-106.76 49.67, -117.87 53, -127.58 54.98 C-137.3 56.96, -146.1 57.6, -153.83 57.67 C-161.56 57.74, -168.29 57.14, -173.94 55.41 C-179.59 53.67, -184.23 50.68, -187.74 47.24 C-191.25 43.81, -193.43 39.85, -195 34.81 C-196.57 29.77, -197.09 24.25, -197.14 17.01 C-197.2 9.77, -197.17 1.46, -195.33 -8.62 C-193.49 -18.7, -190.12 -31.45, -186.09 -43.46 C-182.06 -55.47, -176.32 -69.14, -171.15 -80.67 C-165.98 -92.2, -160.08 -103.16, -155.07 -112.64 C-150.05 -122.12, -143.65 -131.55, -141.07 -137.56 C-138.48 -143.56, -138.94 -145.6, -139.56 -148.68 C-140.17 -151.76, -142.29 -154.02, -144.75 -156.02 C-147.21 -158.02, -151.06 -160.1, -154.31 -160.67 C-157.56 -161.23, -161.33 -160.85, -164.24 -159.41 C-167.16 -157.97, -168.24 -157.62, -171.8 -152.02 C-175.36 -146.42, -180.55 -135.84, -185.62 -125.8 C-190.69 -115.76, -196.75 -103.86, -202.2 -91.77 C-207.66 -79.67, -214.22 -64.63, -218.34 -53.24 C-222.46 -41.85, -224.75 -34.31, -226.94 -23.41 C-229.12 -12.51, -231.37 0.69, -231.45 12.14 C-231.53 23.58, -230.15 36.12, -227.42 45.26 C-224.69 54.4, -220.41 60.83, -215.05 66.97 C-209.69 73.11, -203.41 78.01, -195.25 82.11 C-187.08 86.2, -176.37 90.25, -166.06 91.56 C-155.74 92.86, -144.32 91.46, -133.35 89.94 C-122.38 88.43, -111.45 85.63, -100.26 82.48 C-89.06 79.32, -78.77 76.2, -66.16 70.99 C-53.56 65.79, -37.21 57.63, -24.63 51.26 C-12.04 44.89, 1.96 36.79, 9.33 32.77 C16.7 28.75, 17.89 28.09, 19.6 27.15" stroke="#E1E1E1" stroke-width="4" fill="none"></path></g></g><mask></mask><g stroke-linecap="round"><g transform="translate(484.4418509143927 922.6063593859205) rotate(0 88.48741315151972 18.429603946877364)"><path d="M0 0 C0 9.78, 0 19.57, 0 36.86 M0 0 C0 8.5, 0 17.01, 0 36.86 M0 36.86 C39 36.86, 78 36.86, 176.97 36.86 M0 36.86 C53.14 36.86, 106.27 36.86, 176.97 36.86 M176.97 36.86 C176.97 28.49, 176.97 20.13, 176.97 0.26 M176.97 36.86 C176.97 23.1, 176.97 9.35, 176.97 0.26 M176.97 0.26 C128.12 0.19, 79.27 0.12, 0 0 M176.97 0.26 C135.88 0.2, 94.78 0.14, 0 0" stroke="#E1E1E1" stroke-width="4" fill="none"></path></g></g><mask></mask><g stroke-linecap="round"><g transform="translate(484.64097986712545 993.3255338980732) rotate(0 88.21500883172814 0)"><path d="M0 0 C52.68 0, 105.36 0, 176.43 0 M0 0 C53.46 0, 106.92 0, 176.43 0" stroke="#E1E1E1" stroke-width="4" fill="none"></path></g></g><mask></mask><g stroke-linecap="round"><g transform="translate(661.3035321448042 993.2241470212084) rotate(0 -88.35202364797715 18.01067725017151)"><path d="M0 0 C0 2.8, 0.05 12.82, 0 16.78 C-0.05 20.74, 0.11 21.69, -0.27 23.77 C-0.66 25.86, -0.92 27.61, -2.31 29.28 C-3.69 30.94, -5.95 32.64, -8.61 33.76 C-11.27 34.89, -11.61 35.65, -18.27 36.02 C-24.93 36.4, -35.74 36.02, -48.57 36.02 C-61.4 36.02, -77.83 36.02, -95.26 36.02 C-112.69 36.02, -141.45 36.22, -153.14 36.02 C-164.83 35.82, -162.19 35.9, -165.39 34.84 C-168.59 33.77, -170.58 31.67, -172.34 29.63 C-174.09 27.59, -175.18 26.09, -175.91 22.58 C-176.64 19.07, -176.57 12.29, -176.7 8.55 C-176.84 4.81, -176.7 1.52, -176.7 0.12 M0 0 C0 2.8, 0.05 12.82, 0 16.78 C-0.05 20.74, 0.11 21.69, -0.27 23.77 C-0.66 25.86, -0.92 27.61, -2.31 29.28 C-3.69 30.94, -5.95 32.64, -8.61 33.76 C-11.27 34.89, -11.61 35.65, -18.27 36.02 C-24.93 36.4, -35.74 36.02, -48.57 36.02 C-61.4 36.02, -77.83 36.02, -95.26 36.02 C-112.69 36.02, -141.45 36.22, -153.14 36.02 C-164.83 35.82, -162.19 35.9, -165.39 34.84 C-168.59 33.77, -170.58 31.67, -172.34 29.63 C-174.09 27.59, -175.18 26.09, -175.91 22.58 C-176.64 19.07, -176.57 12.29, -176.7 8.55 C-176.84 4.81, -176.7 1.52, -176.7 0.12" stroke="#E1E1E1" stroke-width="4" fill="none"></path></g></g><mask></mask><g stroke-linecap="round"><g transform="translate(537.4038674590322 1063.596826102687) rotate(0 35.57700275104048 18.160810315565868)"><path d="M0 0 C0 2.04, -0.01 8.74, 0 12.26 C0.01 15.79, -0.41 18.41, 0.03 21.17 C0.48 23.94, 1 26.53, 2.69 28.86 C4.37 31.19, 7.08 33.89, 10.14 35.14 C13.2 36.38, 15.61 36.12, 21.03 36.32 C26.44 36.52, 36.8 36.32, 42.62 36.32 C48.45 36.32, 52.49 36.76, 55.98 36.32 C59.46 35.88, 61.35 35.15, 63.51 33.68 C65.68 32.2, 67.7 29.8, 68.97 27.48 C70.24 25.16, 70.8 23.06, 71.15 19.75 C71.51 16.44, 71.15 10.86, 71.11 7.63 C71.08 4.41, 70.98 1.59, 70.96 0.38 M0 0 C0 2.04, -0.01 8.74, 0 12.26 C0.01 15.79, -0.41 18.41, 0.03 21.17 C0.48 23.94, 1 26.53, 2.69 28.86 C4.37 31.19, 7.08 33.89, 10.14 35.14 C13.2 36.38, 15.61 36.12, 21.03 36.32 C26.44 36.52, 36.8 36.32, 42.62 36.32 C48.45 36.32, 52.49 36.76, 55.98 36.32 C59.46 35.88, 61.35 35.15, 63.51 33.68 C65.68 32.2, 67.7 29.8, 68.97 27.48 C70.24 25.16, 70.8 23.06, 71.15 19.75 C71.51 16.44, 71.15 10.86, 71.11 7.63 C71.08 4.41, 70.98 1.59, 70.96 0.38" stroke="#E1E1E1" stroke-width="4" fill="none"></path></g></g><mask></mask><g stroke-linecap="round"><g transform="translate(608.3648861323409 1063.5485629708967) rotate(0 -35.464711063961886 0)"><path d="M0 0 C-11.82 0, -59.11 0, -70.93 0 M0 0 C-11.82 0, -59.11 0, -70.93 0" stroke="#E1E1E1" stroke-width="4" fill="none"></path></g></g><mask></mask><g stroke-linecap="round"><g transform="translate(811.6326133798709 529.8256976982004) rotate(0 -51.88942692215534 143.14013714850455)"><path d="M0 0 C0.49 0.96, 1.76 1.32, 2.93 5.75 C4.1 10.18, 6.18 18.01, 7.02 26.6 C7.86 35.19, 8.1 46.76, 7.97 57.29 C7.83 67.81, 7.6 78.83, 6.2 89.77 C4.81 100.72, 2.6 112.17, -0.41 122.96 C-3.41 133.74, -7.29 144.22, -11.83 154.46 C-16.38 164.69, -21.77 174.49, -27.7 184.37 C-33.63 194.25, -40.84 204.64, -47.42 213.74 C-54 222.84, -59.01 229.11, -67.18 238.97 C-75.35 248.83, -89.68 265.01, -96.43 272.9 C-103.19 280.78, -105.14 284.06, -107.7 286.28 C-110.25 288.5, -111.07 286.21, -111.75 286.2 M0 0 C0.49 0.96, 1.76 1.32, 2.93 5.75 C4.1 10.18, 6.18 18.01, 7.02 26.6 C7.86 35.19, 8.1 46.76, 7.97 57.29 C7.83 67.81, 7.6 78.83, 6.2 89.77 C4.81 100.72, 2.6 112.17, -0.41 122.96 C-3.41 133.74, -7.29 144.22, -11.83 154.46 C-16.38 164.69, -21.77 174.49, -27.7 184.37 C-33.63 194.25, -40.84 204.64, -47.42 213.74 C-54 222.84, -59.01 229.11, -67.18 238.97 C-75.35 248.83, -89.68 265.01, -96.43 272.9 C-103.19 280.78, -105.14 284.06, -107.7 286.28 C-110.25 288.5, -111.07 286.21, -111.75 286.2" stroke="#E1E1E1" stroke-width="4" fill="none"></path></g></g><mask></mask><g stroke-linecap="round"><g transform="translate(699.8927679310692 815.9756897349771) rotate(0 -50.04623169143787 -36.86185871594978)"><path d="M0 0 C-1.91 -1.22, -5.86 -3.58, -11.45 -7.34 C-17.03 -11.09, -25.28 -16.7, -33.52 -22.51 C-41.75 -28.31, -52.5 -35.86, -60.86 -42.14 C-69.22 -48.42, -77.13 -54.94, -83.67 -60.2 C-90.21 -65.46, -97.36 -71.47, -100.09 -73.72 M0 0 C-1.91 -1.22, -5.86 -3.58, -11.45 -7.34 C-17.03 -11.09, -25.28 -16.7, -33.52 -22.51 C-41.75 -28.31, -52.5 -35.86, -60.86 -42.14 C-69.22 -48.42, -77.13 -54.94, -83.67 -60.2 C-90.21 -65.46, -97.36 -71.47, -100.09 -73.72" stroke="#E1E1E1" stroke-width="4" fill="none"></path></g></g><mask></mask><g stroke-linecap="round"><g transform="translate(599.8589757823629 742.1214655209606) rotate(0 105.83920183085286 -106.18723538101585)"><path d="M0 0 C3.21 -2.69, 12.3 -10.07, 19.24 -16.13 C26.17 -22.19, 33.79 -29.29, 41.6 -36.37 C49.41 -43.44, 57.66 -50.61, 66.11 -58.6 C74.55 -66.58, 84.67 -76.79, 92.27 -84.28 C99.88 -91.77, 104.13 -95.91, 111.73 -103.54 C119.33 -111.16, 128.91 -120.62, 137.89 -130.03 C146.87 -139.44, 156.47 -150.03, 165.63 -160.01 C174.79 -169.99, 185.17 -181.17, 192.85 -189.9 C200.52 -198.62, 208.54 -208.63, 211.68 -212.37 M0 0 C3.21 -2.69, 12.3 -10.07, 19.24 -16.13 C26.17 -22.19, 33.79 -29.29, 41.6 -36.37 C49.41 -43.44, 57.66 -50.61, 66.11 -58.6 C74.55 -66.58, 84.67 -76.79, 92.27 -84.28 C99.88 -91.77, 104.13 -95.91, 111.73 -103.54 C119.33 -111.16, 128.91 -120.62, 137.89 -130.03 C146.87 -139.44, 156.47 -150.03, 165.63 -160.01 C174.79 -169.99, 185.17 -181.17, 192.85 -189.9 C200.52 -198.62, 208.54 -208.63, 211.68 -212.37" stroke="#E1E1E1" stroke-width="4" fill="none"></path></g></g><mask></mask><g stroke-linecap="round"><g transform="translate(494.42417323664176 395.15493106401664) rotate(0 23.35398439617927 18.701093271014656)"><path d="M0 0 C3.1 -1.06, 11.05 -4.21, 18.61 -6.34 C26.17 -8.47, 36.6 -11.26, 45.37 -12.79 C54.14 -14.32, 64.69 -15.15, 71.23 -15.52 C77.76 -15.9, 81.24 -15.85, 84.58 -15.01 C87.91 -14.18, 89.45 -12.36, 91.24 -10.53 C93.03 -8.69, 94.55 -6.55, 95.31 -4.01 C96.08 -1.47, 96.33 1.9, 95.85 4.73 C95.37 7.56, 94.29 10.84, 92.41 12.97 C90.52 15.1, 87.96 16.54, 84.55 17.49 C81.15 18.44, 76.4 18.45, 71.98 18.68 C67.57 18.91, 63.06 18.4, 58.06 18.86 C53.06 19.33, 48.2 20.02, 41.97 21.48 C35.73 22.94, 28.87 24.52, 20.63 27.63 C12.38 30.73, -0.2 36.38, -7.49 40.12 C-14.78 43.86, -19.28 47.93, -23.13 50.06 C-26.98 52.2, -27.8 52.68, -30.6 52.93 C-33.39 53.17, -37.1 53.02, -39.88 51.53 C-42.65 50.03, -45.69 46.69, -47.23 43.94 C-48.78 41.19, -49.25 37.82, -49.14 35.03 C-49.04 32.23, -49.34 30.25, -46.61 27.18 C-43.89 24.11, -37.77 19.87, -32.79 16.6 C-27.82 13.33, -22.23 10.3, -16.76 7.53 C-11.29 4.77, -2.79 1.26, 0 0 M0 0 C3.1 -1.06, 11.05 -4.21, 18.61 -6.34 C26.17 -8.47, 36.6 -11.26, 45.37 -12.79 C54.14 -14.32, 64.69 -15.15, 71.23 -15.52 C77.76 -15.9, 81.24 -15.85, 84.58 -15.01 C87.91 -14.18, 89.45 -12.36, 91.24 -10.53 C93.03 -8.69, 94.55 -6.55, 95.31 -4.01 C96.08 -1.47, 96.33 1.9, 95.85 4.73 C95.37 7.56, 94.29 10.84, 92.41 12.97 C90.52 15.1, 87.96 16.54, 84.55 17.49 C81.15 18.44, 76.4 18.45, 71.98 18.68 C67.57 18.91, 63.06 18.4, 58.06 18.86 C53.06 19.33, 48.2 20.02, 41.97 21.48 C35.73 22.94, 28.87 24.52, 20.63 27.63 C12.38 30.73, -0.2 36.38, -7.49 40.12 C-14.78 43.86, -19.28 47.93, -23.13 50.06 C-26.98 52.2, -27.8 52.68, -30.6 52.93 C-33.39 53.17, -37.1 53.02, -39.88 51.53 C-42.65 50.03, -45.69 46.69, -47.23 43.94 C-48.78 41.19, -49.25 37.82, -49.14 35.03 C-49.04 32.23, -49.34 30.25, -46.61 27.18 C-43.89 24.11, -37.77 19.87, -32.79 16.6 C-27.82 13.33, -22.23 10.3, -16.76 7.53 C-11.29 4.77, -2.79 1.26, 0 0" stroke="#E1E1E1" stroke-width="4" fill="none"></path></g></g><mask></mask><g stroke-linecap="round" transform="translate(397.3077905791681 467.1638695946117) rotate(0 17.1780262459896 17.1780262459896)"><path d="M34.36 17.18 C34.36 18.17, 34.27 19.18, 34.1 20.16 C33.92 21.14, 33.66 22.12, 33.32 23.05 C32.98 23.99, 32.55 24.91, 32.05 25.77 C31.56 26.63, 30.98 27.46, 30.34 28.22 C29.7 28.98, 28.98 29.7, 28.22 30.34 C27.46 30.98, 26.63 31.56, 25.77 32.05 C24.91 32.55, 23.99 32.98, 23.05 33.32 C22.12 33.66, 21.14 33.92, 20.16 34.1 C19.18 34.27, 18.17 34.36, 17.18 34.36 C16.18 34.36, 15.17 34.27, 14.2 34.1 C13.22 33.92, 12.24 33.66, 11.3 33.32 C10.37 32.98, 9.45 32.55, 8.59 32.05 C7.73 31.56, 6.9 30.98, 6.14 30.34 C5.37 29.7, 4.66 28.98, 4.02 28.22 C3.38 27.46, 2.8 26.63, 2.3 25.77 C1.8 24.91, 1.38 23.99, 1.04 23.05 C0.7 22.12, 0.43 21.14, 0.26 20.16 C0.09 19.18, 0 18.17, 0 17.18 C0 16.18, 0.09 15.17, 0.26 14.2 C0.43 13.22, 0.7 12.24, 1.04 11.3 C1.38 10.37, 1.8 9.45, 2.3 8.59 C2.8 7.73, 3.38 6.9, 4.02 6.14 C4.66 5.37, 5.37 4.66, 6.14 4.02 C6.9 3.38, 7.73 2.8, 8.59 2.3 C9.45 1.8, 10.37 1.38, 11.3 1.04 C12.24 0.7, 13.22 0.43, 14.2 0.26 C15.17 0.09, 16.18 0, 17.18 0 C18.17 0, 19.18 0.09, 20.16 0.26 C21.14 0.43, 22.12 0.7, 23.05 1.04 C23.99 1.38, 24.91 1.8, 25.77 2.3 C26.63 2.8, 27.46 3.38, 28.22 4.02 C28.98 4.66, 29.7 5.37, 30.34 6.14 C30.98 6.9, 31.56 7.73, 32.05 8.59 C32.55 9.45, 32.98 10.37, 33.32 11.3 C33.66 12.24, 33.92 13.22, 34.1 14.2 C34.27 15.17, 34.31 16.68, 34.36 17.18 C34.4 17.68, 34.4 16.68, 34.36 17.18" stroke="#E1E1E1" stroke-width="4" fill="none"></path></g><g stroke-linecap="round"><g transform="translate(341.10798247650155 333.8869847034889) rotate(0 -16.711637780152387 7.5708644432698975)"><path d="M0 0 C-2.65 -2.63, -11.76 -12.14, -15.89 -15.75 C-20.01 -19.36, -21.77 -20.7, -24.75 -21.66 C-27.74 -22.63, -31.09 -22.45, -33.81 -21.55 C-36.52 -20.65, -39.17 -18.16, -41.04 -16.27 C-42.91 -14.39, -44.13 -12.46, -45.01 -10.23 C-45.88 -8.01, -46.82 -5.65, -46.29 -2.91 C-45.76 -0.18, -44.95 2.3, -41.85 6.18 C-38.75 10.05, -32.46 15.64, -27.69 20.32 C-22.92 25, -17.16 31.52, -13.23 34.27 C-9.3 37.01, -7.25 36.76, -4.12 36.8 C-0.99 36.84, 2.82 36.2, 5.55 34.51 C8.28 32.83, 11.03 29.39, 12.24 26.69 C13.46 24, 13.05 20.73, 12.87 18.36 C12.69 15.98, 12.25 14.42, 11.16 12.45 C10.07 10.48, 8.19 8.6, 6.33 6.53 C4.47 4.45, 1.05 1.09, 0 0 M0 0 C-2.65 -2.63, -11.76 -12.14, -15.89 -15.75 C-20.01 -19.36, -21.77 -20.7, -24.75 -21.66 C-27.74 -22.63, -31.09 -22.45, -33.81 -21.55 C-36.52 -20.65, -39.17 -18.16, -41.04 -16.27 C-42.91 -14.39, -44.13 -12.46, -45.01 -10.23 C-45.88 -8.01, -46.82 -5.65, -46.29 -2.91 C-45.76 -0.18, -44.95 2.3, -41.85 6.18 C-38.75 10.05, -32.46 15.64, -27.69 20.32 C-22.92 25, -17.16 31.52, -13.23 34.27 C-9.3 37.01, -7.25 36.76, -4.12 36.8 C-0.99 36.84, 2.82 36.2, 5.55 34.51 C8.28 32.83, 11.03 29.39, 12.24 26.69 C13.46 24, 13.05 20.73, 12.87 18.36 C12.69 15.98, 12.25 14.42, 11.16 12.45 C10.07 10.48, 8.19 8.6, 6.33 6.53 C4.47 4.45, 1.05 1.09, 0 0" stroke="#E1E1E1" stroke-width="4" fill="none"></path></g></g><mask></mask><g stroke-linecap="round"><g transform="translate(556.1081136913663 241.87727932060443) rotate(0 16.84353337314178 -3.5416082472361268)"><path d="M0 0 C-0.03 -3.36, -0.6 -14.9, -0.17 -20.13 C0.26 -25.37, 0.8 -28.52, 2.57 -31.39 C4.35 -34.27, 7.88 -36.25, 10.46 -37.37 C13.04 -38.48, 16.03 -38.07, 18.06 -38.11 C20.09 -38.15, 21.03 -38.18, 22.64 -37.62 C24.25 -37.06, 26.16 -36.31, 27.71 -34.77 C29.26 -33.23, 31.01 -30.82, 31.95 -28.4 C32.9 -25.98, 33.08 -25.35, 33.36 -20.25 C33.64 -15.15, 33.55 -4.08, 33.63 2.21 C33.71 8.51, 34.36 13.65, 33.86 17.55 C33.35 21.44, 32.52 23.32, 30.6 25.57 C28.67 27.82, 25.27 30.13, 22.31 31.03 C19.36 31.93, 15.82 31.65, 12.87 30.96 C9.92 30.27, 6.61 28.82, 4.61 26.9 C2.6 24.98, 1.61 22.62, 0.82 19.45 C0.03 16.28, 0.01 11.13, -0.13 7.89 C-0.26 4.65, -0.02 1.31, 0 0 M0 0 C-0.03 -3.36, -0.6 -14.9, -0.17 -20.13 C0.26 -25.37, 0.8 -28.52, 2.57 -31.39 C4.35 -34.27, 7.88 -36.25, 10.46 -37.37 C13.04 -38.48, 16.03 -38.07, 18.06 -38.11 C20.09 -38.15, 21.03 -38.18, 22.64 -37.62 C24.25 -37.06, 26.16 -36.31, 27.71 -34.77 C29.26 -33.23, 31.01 -30.82, 31.95 -28.4 C32.9 -25.98, 33.08 -25.35, 33.36 -20.25 C33.64 -15.15, 33.55 -4.08, 33.63 2.21 C33.71 8.51, 34.36 13.65, 33.86 17.55 C33.35 21.44, 32.52 23.32, 30.6 25.57 C28.67 27.82, 25.27 30.13, 22.31 31.03 C19.36 31.93, 15.82 31.65, 12.87 30.96 C9.92 30.27, 6.61 28.82, 4.61 26.9 C2.6 24.98, 1.61 22.62, 0.82 19.45 C0.03 16.28, 0.01 11.13, -0.13 7.89 C-0.26 4.65, -0.02 1.31, 0 0" stroke="#E1E1E1" stroke-width="4" fill="none"></path></g></g><mask></mask><g stroke-linecap="round"><g transform="translate(804.30010279938 334.9713424572192) rotate(0 17.144624041353495 6.155741371290333)"><path d="M0 0 C2.95 -2.96, 13.37 -13.91, 17.7 -17.75 C22.04 -21.6, 22.62 -22.44, 26 -23.08 C29.39 -23.72, 34.75 -23.35, 38.03 -21.58 C41.3 -19.81, 44.19 -15.42, 45.65 -12.44 C47.11 -9.47, 47.22 -6.6, 46.79 -3.73 C46.36 -0.87, 46.54 0.51, 43.05 4.74 C39.56 8.97, 31 16.74, 25.85 21.66 C20.7 26.57, 16.05 31.93, 12.15 34.22 C8.25 36.51, 5.28 35.65, 2.46 35.39 C-0.36 35.14, -2.49 34.34, -4.79 32.7 C-7.08 31.05, -10.02 28.15, -11.31 25.51 C-12.59 22.87, -12.85 19.49, -12.5 16.85 C-12.15 14.21, -11.28 12.49, -9.2 9.68 C-7.12 6.87, -1.53 1.61, 0 0 M0 0 C2.95 -2.96, 13.37 -13.91, 17.7 -17.75 C22.04 -21.6, 22.62 -22.44, 26 -23.08 C29.39 -23.72, 34.75 -23.35, 38.03 -21.58 C41.3 -19.81, 44.19 -15.42, 45.65 -12.44 C47.11 -9.47, 47.22 -6.6, 46.79 -3.73 C46.36 -0.87, 46.54 0.51, 43.05 4.74 C39.56 8.97, 31 16.74, 25.85 21.66 C20.7 26.57, 16.05 31.93, 12.15 34.22 C8.25 36.51, 5.28 35.65, 2.46 35.39 C-0.36 35.14, -2.49 34.34, -4.79 32.7 C-7.08 31.05, -10.02 28.15, -11.31 25.51 C-12.59 22.87, -12.85 19.49, -12.5 16.85 C-12.15 14.21, -11.28 12.49, -9.2 9.68 C-7.12 6.87, -1.53 1.61, 0 0" stroke="#E1E1E1" stroke-width="4" fill="none"></path></g></g><mask></mask><g stroke-linecap="round"><g transform="translate(1055.9902564936738 70.21209933196587) rotate(0 12.659630692019505 13.964831972609147)"><path d="M0 0 C0.88 1.34, 2.56 4.62, 5.27 8.07 C7.98 11.52, 12.91 17.38, 16.25 20.69 C19.6 24, 23.81 26.72, 25.32 27.93 M0 0 C0.88 1.34, 2.56 4.62, 5.27 8.07 C7.98 11.52, 12.91 17.38, 16.25 20.69 C19.6 24, 23.81 26.72, 25.32 27.93" stroke="#E1E1E1" stroke-width="4" fill="none"></path></g></g><mask></mask><g stroke-linecap="round"><g transform="translate(1081.3922143945351 98.53299085955337) rotate(0 -12.699440711996033 13.479774403771387)"><path d="M0 0 C-1.26 1.04, -4.51 3.49, -7.54 6.24 C-10.58 8.99, -15.21 13.05, -18.18 16.5 C-21.16 19.96, -24.2 25.22, -25.4 26.96 M0 0 C-1.26 1.04, -4.51 3.49, -7.54 6.24 C-10.58 8.99, -15.21 13.05, -18.18 16.5 C-21.16 19.96, -24.2 25.22, -25.4 26.96" stroke="#E1E1E1" stroke-width="4" fill="none"></path></g></g><mask></mask><g stroke-linecap="round"><g transform="translate(1055.7983825660003 125.68250358695718) rotate(0 -12.497228867037961 -13.544874973621745)"><path d="M0 0 C-1.16 -1.54, -4.24 -6, -6.96 -9.24 C-9.67 -12.49, -13.26 -16.51, -16.27 -19.48 C-19.28 -22.46, -23.54 -25.82, -24.99 -27.09 M0 0 C-1.16 -1.54, -4.24 -6, -6.96 -9.24 C-9.67 -12.49, -13.26 -16.51, -16.27 -19.48 C-19.28 -22.46, -23.54 -25.82, -24.99 -27.09" stroke="#E1E1E1" stroke-width="4" fill="none"></path></g></g><mask></mask><g stroke-linecap="round"><g transform="translate(1030.5925551816513 97.87063425747897) rotate(0 12.567465993612473 -14.157125419855504)"><path d="M0 0 C1.54 -1.44, 6.16 -5.56, 9.23 -8.64 C12.31 -11.73, 15.79 -15.23, 18.44 -18.5 C21.09 -21.78, 24.02 -26.68, 25.13 -28.31 M0 0 C1.54 -1.44, 6.16 -5.56, 9.23 -8.64 C12.31 -11.73, 15.79 -15.23, 18.44 -18.5 C21.09 -21.78, 24.02 -26.68, 25.13 -28.31" stroke="#E1E1E1" stroke-width="4" fill="none"></path></g></g><mask></mask><g stroke-linecap="round"><g transform="translate(1026.6353015522811 51.40958173242643) rotate(0 29.185128683465337 46.64609086426458)"><path d="M0 0 C-1.46 1.93, -4.84 7.57, -8.74 11.55 C-12.63 15.54, -18.97 20.94, -23.39 23.93 C-27.81 26.91, -32.07 28.02, -35.27 29.47 C-38.47 30.92, -40.58 31.09, -42.6 32.64 C-44.63 34.19, -46.31 36.32, -47.42 38.76 C-48.53 41.2, -49.5 44.31, -49.25 47.28 C-49.01 50.25, -47.5 54.14, -45.97 56.58 C-44.44 59.02, -42.82 60.34, -40.08 61.91 C-37.34 63.47, -33.28 64.02, -29.54 65.95 C-25.8 67.88, -21.47 70.48, -17.66 73.5 C-13.85 76.52, -10.52 79.43, -6.69 84.07 C-2.86 88.72, 2.42 96.05, 5.34 101.37 C8.27 106.69, 9.2 111.74, 10.85 115.98 C12.5 120.21, 13 123.86, 15.22 126.8 C17.43 129.73, 20.95 132.48, 24.14 133.59 C27.33 134.71, 31.24 134.32, 34.33 133.48 C37.43 132.65, 40.45 131.62, 42.69 128.58 C44.92 125.53, 45.99 119.83, 47.74 115.22 C49.49 110.61, 50.59 105.86, 53.2 100.9 C55.82 95.93, 59.47 90.16, 63.43 85.44 C67.38 80.71, 71.64 76.32, 76.95 72.55 C82.25 68.79, 90.8 65.32, 95.25 62.85 C99.7 60.38, 101.58 60.16, 103.64 57.73 C105.7 55.29, 107.29 51.7, 107.62 48.24 C107.96 44.77, 107.44 39.81, 105.67 36.92 C103.9 34.02, 100.93 32.99, 96.99 30.86 C93.04 28.74, 86.68 27.09, 82 24.16 C77.33 21.24, 73.06 17.61, 68.92 13.31 C64.78 9, 60.64 3.97, 57.18 -1.68 C53.72 -7.33, 50.5 -15.43, 48.16 -20.6 C45.82 -25.78, 45.31 -29.6, 43.16 -32.73 C41.01 -35.85, 38.03 -38.08, 35.26 -39.34 C32.49 -40.6, 29.29 -40.78, 26.52 -40.3 C23.75 -39.82, 20.8 -38.24, 18.64 -36.46 C16.48 -34.68, 15.09 -33.1, 13.57 -29.63 C12.05 -26.15, 11.2 -19.69, 9.52 -15.61 C7.83 -11.53, 5.04 -7.77, 3.45 -5.17 C1.87 -2.56, 0.58 -0.86, 0 0 M0 0 C-1.46 1.93, -4.84 7.57, -8.74 11.55 C-12.63 15.54, -18.97 20.94, -23.39 23.93 C-27.81 26.91, -32.07 28.02, -35.27 29.47 C-38.47 30.92, -40.58 31.09, -42.6 32.64 C-44.63 34.19, -46.31 36.32, -47.42 38.76 C-48.53 41.2, -49.5 44.31, -49.25 47.28 C-49.01 50.25, -47.5 54.14, -45.97 56.58 C-44.44 59.02, -42.82 60.34, -40.08 61.91 C-37.34 63.47, -33.28 64.02, -29.54 65.95 C-25.8 67.88, -21.47 70.48, -17.66 73.5 C-13.85 76.52, -10.52 79.43, -6.69 84.07 C-2.86 88.72, 2.42 96.05, 5.34 101.37 C8.27 106.69, 9.2 111.74, 10.85 115.98 C12.5 120.21, 13 123.86, 15.22 126.8 C17.43 129.73, 20.95 132.48, 24.14 133.59 C27.33 134.71, 31.24 134.32, 34.33 133.48 C37.43 132.65, 40.45 131.62, 42.69 128.58 C44.92 125.53, 45.99 119.83, 47.74 115.22 C49.49 110.61, 50.59 105.86, 53.2 100.9 C55.82 95.93, 59.47 90.16, 63.43 85.44 C67.38 80.71, 71.64 76.32, 76.95 72.55 C82.25 68.79, 90.8 65.32, 95.25 62.85 C99.7 60.38, 101.58 60.16, 103.64 57.73 C105.7 55.29, 107.29 51.7, 107.62 48.24 C107.96 44.77, 107.44 39.81, 105.67 36.92 C103.9 34.02, 100.93 32.99, 96.99 30.86 C93.04 28.74, 86.68 27.09, 82 24.16 C77.33 21.24, 73.06 17.61, 68.92 13.31 C64.78 9, 60.64 3.97, 57.18 -1.68 C53.72 -7.33, 50.5 -15.43, 48.16 -20.6 C45.82 -25.78, 45.31 -29.6, 43.16 -32.73 C41.01 -35.85, 38.03 -38.08, 35.26 -39.34 C32.49 -40.6, 29.29 -40.78, 26.52 -40.3 C23.75 -39.82, 20.8 -38.24, 18.64 -36.46 C16.48 -34.68, 15.09 -33.1, 13.57 -29.63 C12.05 -26.15, 11.2 -19.69, 9.52 -15.61 C7.83 -11.53, 5.04 -7.77, 3.45 -5.17 C1.87 -2.56, 0.58 -0.86, 0 0" stroke="#E1E1E1" stroke-width="4" fill="none"></path></g></g><mask></mask><g stroke-linecap="round"><g transform="translate(1047.5400813260023 441.9210835853105) rotate(0 15.41101839484719 16.999886303673748)"><path d="M0 0 C1.07 1.64, 3.12 5.62, 6.42 9.82 C9.72 14.02, 15.72 21.16, 19.79 25.19 C23.85 29.22, 28.98 32.53, 30.82 34 M0 0 C1.07 1.64, 3.12 5.62, 6.42 9.82 C9.72 14.02, 15.72 21.16, 19.79 25.19 C23.85 29.22, 28.98 32.53, 30.82 34" stroke="#E1E1E1" stroke-width="4" fill="none"></path></g></g><mask></mask><g stroke-linecap="round"><g transform="translate(1078.4627875248561 476.3971114338367) rotate(0 -15.459480547107603 16.409408485025324)"><path d="M0 0 C-1.53 1.27, -5.5 4.25, -9.18 7.6 C-12.87 10.95, -18.51 15.89, -22.14 20.09 C-25.76 24.3, -29.46 30.7, -30.92 32.82 M0 0 C-1.53 1.27, -5.5 4.25, -9.18 7.6 C-12.87 10.95, -18.51 15.89, -22.14 20.09 C-25.76 24.3, -29.46 30.7, -30.92 32.82" stroke="#E1E1E1" stroke-width="4" fill="none"></path></g></g><mask></mask><g stroke-linecap="round"><g transform="translate(1047.3065063741892 509.44717823530436) rotate(0 -15.213320881149173 -16.488657722533503)"><path d="M0 0 C-1.41 -1.88, -5.17 -7.3, -8.47 -11.25 C-11.77 -15.21, -16.15 -20.1, -19.81 -23.72 C-23.47 -27.34, -28.66 -31.43, -30.43 -32.98 M0 0 C-1.41 -1.88, -5.17 -7.3, -8.47 -11.25 C-11.77 -15.21, -16.15 -20.1, -19.81 -23.72 C-23.47 -27.34, -28.66 -31.43, -30.43 -32.98" stroke="#E1E1E1" stroke-width="4" fill="none"></path></g></g><mask></mask><g stroke-linecap="round"><g transform="translate(1016.622556824032 475.590801200399) rotate(0 15.29882303172326 -17.233971951574176)"><path d="M0 0 C1.87 -1.75, 7.5 -6.77, 11.24 -10.52 C14.98 -14.27, 19.22 -18.53, 22.45 -22.53 C25.67 -26.52, 29.24 -32.48, 30.6 -34.47 M0 0 C1.87 -1.75, 7.5 -6.77, 11.24 -10.52 C14.98 -14.27, 19.22 -18.53, 22.45 -22.53 C25.67 -26.52, 29.24 -32.48, 30.6 -34.47" stroke="#E1E1E1" stroke-width="4" fill="none"></path></g></g><mask></mask><g stroke-linecap="round"><g transform="translate(1014.7992083561021 424.01965988679876) rotate(0 32.70581612923445 52.27314525491602)"><path d="M0 0 C-1.63 2.16, -5.42 8.48, -9.79 12.95 C-14.16 17.42, -21.26 23.47, -26.21 26.81 C-31.17 30.16, -35.94 31.4, -39.53 33.03 C-43.11 34.65, -45.47 34.85, -47.74 36.58 C-50.01 38.32, -51.9 40.7, -53.14 43.44 C-54.38 46.17, -55.47 49.66, -55.2 52.99 C-54.93 56.31, -53.23 60.67, -51.52 63.4 C-49.81 66.13, -47.99 67.62, -44.92 69.37 C-41.85 71.12, -37.29 71.74, -33.1 73.9 C-28.91 76.07, -24.06 78.98, -19.79 82.36 C-15.53 85.75, -11.79 89.01, -7.5 94.22 C-3.2 99.42, 2.71 107.64, 5.99 113.6 C9.26 119.56, 10.31 125.22, 12.16 129.97 C14 134.72, 14.57 138.8, 17.05 142.09 C19.53 145.38, 23.48 148.46, 27.05 149.71 C30.62 150.96, 35.01 150.52, 38.48 149.58 C41.94 148.65, 45.33 147.5, 47.84 144.09 C50.34 140.68, 51.54 134.29, 53.5 129.12 C55.46 123.95, 56.69 118.63, 59.62 113.07 C62.55 107.51, 66.64 101.04, 71.08 95.75 C75.51 90.45, 80.28 85.52, 86.23 81.3 C92.17 77.08, 101.76 73.2, 106.74 70.44 C111.73 67.67, 113.83 67.42, 116.14 64.69 C118.45 61.96, 120.23 57.94, 120.61 54.05 C120.99 50.17, 120.4 44.61, 118.42 41.37 C116.43 38.12, 113.11 36.97, 108.69 34.59 C104.27 32.2, 97.14 30.36, 91.9 27.08 C86.65 23.8, 81.87 19.74, 77.23 14.91 C72.6 10.08, 67.95 4.45, 64.08 -1.88 C60.2 -8.22, 56.59 -17.29, 53.97 -23.09 C51.35 -28.89, 50.78 -33.17, 48.37 -36.67 C45.96 -40.17, 42.62 -42.67, 39.51 -44.09 C36.4 -45.5, 32.82 -45.7, 29.72 -45.16 C26.62 -44.62, 23.31 -42.85, 20.89 -40.85 C18.47 -38.86, 16.91 -37.09, 15.2 -33.2 C13.5 -29.31, 12.55 -22.06, 10.67 -17.49 C8.78 -12.93, 5.65 -8.7, 3.87 -5.79 C2.09 -2.87, 0.64 -0.96, 0 0 M0 0 C-1.63 2.16, -5.42 8.48, -9.79 12.95 C-14.16 17.42, -21.26 23.47, -26.21 26.81 C-31.17 30.16, -35.94 31.4, -39.53 33.03 C-43.11 34.65, -45.47 34.85, -47.74 36.58 C-50.01 38.32, -51.9 40.7, -53.14 43.44 C-54.38 46.17, -55.47 49.66, -55.2 52.99 C-54.93 56.31, -53.23 60.67, -51.52 63.4 C-49.81 66.13, -47.99 67.62, -44.92 69.37 C-41.85 71.12, -37.29 71.74, -33.1 73.9 C-28.91 76.07, -24.06 78.98, -19.79 82.36 C-15.53 85.75, -11.79 89.01, -7.5 94.22 C-3.2 99.42, 2.71 107.64, 5.99 113.6 C9.26 119.56, 10.31 125.22, 12.16 129.97 C14 134.72, 14.57 138.8, 17.05 142.09 C19.53 145.38, 23.48 148.46, 27.05 149.71 C30.62 150.96, 35.01 150.52, 38.48 149.58 C41.94 148.65, 45.33 147.5, 47.84 144.09 C50.34 140.68, 51.54 134.29, 53.5 129.12 C55.46 123.95, 56.69 118.63, 59.62 113.07 C62.55 107.51, 66.64 101.04, 71.08 95.75 C75.51 90.45, 80.28 85.52, 86.23 81.3 C92.17 77.08, 101.76 73.2, 106.74 70.44 C111.73 67.67, 113.83 67.42, 116.14 64.69 C118.45 61.96, 120.23 57.94, 120.61 54.05 C120.99 50.17, 120.4 44.61, 118.42 41.37 C116.43 38.12, 113.11 36.97, 108.69 34.59 C104.27 32.2, 97.14 30.36, 91.9 27.08 C86.65 23.8, 81.87 19.74, 77.23 14.91 C72.6 10.08, 67.95 4.45, 64.08 -1.88 C60.2 -8.22, 56.59 -17.29, 53.97 -23.09 C51.35 -28.89, 50.78 -33.17, 48.37 -36.67 C45.96 -40.17, 42.62 -42.67, 39.51 -44.09 C36.4 -45.5, 32.82 -45.7, 29.72 -45.16 C26.62 -44.62, 23.31 -42.85, 20.89 -40.85 C18.47 -38.86, 16.91 -37.09, 15.2 -33.2 C13.5 -29.31, 12.55 -22.06, 10.67 -17.49 C8.78 -12.93, 5.65 -8.7, 3.87 -5.79 C2.09 -2.87, 0.64 -0.96, 0 0" stroke="#E1E1E1" stroke-width="4" fill="none"></path></g></g><mask></mask><g stroke-linecap="round"><g transform="translate(98.43412175298977 441.7516915735864) rotate(0 15.411018394847247 16.999886303673748)"><path d="M0 0 C1.07 1.64, 3.12 5.62, 6.42 9.82 C9.72 14.02, 15.72 21.16, 19.79 25.19 C23.85 29.22, 28.98 32.53, 30.82 34 M0 0 C1.07 1.64, 3.12 5.62, 6.42 9.82 C9.72 14.02, 15.72 21.16, 19.79 25.19 C23.85 29.22, 28.98 32.53, 30.82 34" stroke="#E1E1E1" stroke-width="4" fill="none"></path></g></g><mask></mask><g stroke-linecap="round"><g transform="translate(129.35682795184334 476.22771942211284) rotate(0 -15.45948054710766 16.409408485025324)"><path d="M0 0 C-1.53 1.27, -5.5 4.25, -9.18 7.6 C-12.87 10.95, -18.51 15.89, -22.14 20.09 C-25.76 24.3, -29.46 30.7, -30.92 32.82 M0 0 C-1.53 1.27, -5.5 4.25, -9.18 7.6 C-12.87 10.95, -18.51 15.89, -22.14 20.09 C-25.76 24.3, -29.46 30.7, -30.92 32.82" stroke="#E1E1E1" stroke-width="4" fill="none"></path></g></g><mask></mask><g stroke-linecap="round"><g transform="translate(98.20054680117642 509.27778622358073) rotate(0 -15.213320881149116 -16.488657722533503)"><path d="M0 0 C-1.41 -1.88, -5.17 -7.3, -8.47 -11.25 C-11.77 -15.21, -16.15 -20.1, -19.81 -23.72 C-23.47 -27.34, -28.66 -31.43, -30.43 -32.98 M0 0 C-1.41 -1.88, -5.17 -7.3, -8.47 -11.25 C-11.77 -15.21, -16.15 -20.1, -19.81 -23.72 C-23.47 -27.34, -28.66 -31.43, -30.43 -32.98" stroke="#E1E1E1" stroke-width="4" fill="none"></path></g></g><mask></mask><g stroke-linecap="round"><g transform="translate(67.51659725101945 475.42140918867517) rotate(0 15.29882303172326 -17.233971951574176)"><path d="M0 0 C1.87 -1.75, 7.5 -6.77, 11.24 -10.52 C14.98 -14.27, 19.22 -18.53, 22.45 -22.53 C25.67 -26.52, 29.24 -32.48, 30.6 -34.47 M0 0 C1.87 -1.75, 7.5 -6.77, 11.24 -10.52 C14.98 -14.27, 19.22 -18.53, 22.45 -22.53 C25.67 -26.52, 29.24 -32.48, 30.6 -34.47" stroke="#E1E1E1" stroke-width="4" fill="none"></path></g></g><mask></mask><g stroke-linecap="round"><g transform="translate(65.69324878308953 423.85026787507513) rotate(0 32.70581612923445 52.27314525491602)"><path d="M0 0 C-1.63 2.16, -5.42 8.48, -9.79 12.95 C-14.16 17.42, -21.26 23.47, -26.21 26.81 C-31.17 30.16, -35.94 31.4, -39.53 33.03 C-43.11 34.65, -45.47 34.85, -47.74 36.58 C-50.01 38.32, -51.9 40.7, -53.14 43.44 C-54.38 46.17, -55.47 49.66, -55.2 52.99 C-54.93 56.31, -53.23 60.67, -51.52 63.4 C-49.81 66.13, -47.99 67.62, -44.92 69.37 C-41.85 71.12, -37.29 71.74, -33.1 73.9 C-28.91 76.07, -24.06 78.98, -19.79 82.36 C-15.53 85.75, -11.79 89.01, -7.5 94.22 C-3.2 99.42, 2.71 107.64, 5.99 113.6 C9.26 119.56, 10.31 125.22, 12.16 129.97 C14 134.72, 14.57 138.8, 17.05 142.09 C19.53 145.38, 23.48 148.46, 27.05 149.71 C30.62 150.96, 35.01 150.52, 38.48 149.58 C41.94 148.65, 45.33 147.5, 47.84 144.09 C50.34 140.68, 51.54 134.29, 53.5 129.12 C55.46 123.95, 56.69 118.63, 59.62 113.07 C62.55 107.51, 66.64 101.04, 71.08 95.75 C75.51 90.45, 80.28 85.52, 86.23 81.3 C92.17 77.08, 101.76 73.2, 106.74 70.44 C111.73 67.67, 113.83 67.42, 116.14 64.69 C118.45 61.96, 120.23 57.94, 120.61 54.05 C120.99 50.17, 120.4 44.61, 118.42 41.37 C116.43 38.12, 113.11 36.97, 108.69 34.59 C104.27 32.2, 97.14 30.36, 91.9 27.08 C86.65 23.8, 81.87 19.74, 77.23 14.91 C72.6 10.08, 67.95 4.45, 64.08 -1.88 C60.2 -8.22, 56.59 -17.29, 53.97 -23.09 C51.35 -28.89, 50.78 -33.17, 48.37 -36.67 C45.96 -40.17, 42.62 -42.67, 39.51 -44.09 C36.4 -45.5, 32.82 -45.7, 29.72 -45.16 C26.62 -44.62, 23.31 -42.85, 20.89 -40.85 C18.47 -38.86, 16.91 -37.09, 15.2 -33.2 C13.5 -29.31, 12.55 -22.06, 10.67 -17.49 C8.78 -12.93, 5.65 -8.7, 3.87 -5.79 C2.09 -2.87, 0.64 -0.96, 0 0 M0 0 C-1.63 2.16, -5.42 8.48, -9.79 12.95 C-14.16 17.42, -21.26 23.47, -26.21 26.81 C-31.17 30.16, -35.94 31.4, -39.53 33.03 C-43.11 34.65, -45.47 34.85, -47.74 36.58 C-50.01 38.32, -51.9 40.7, -53.14 43.44 C-54.38 46.17, -55.47 49.66, -55.2 52.99 C-54.93 56.31, -53.23 60.67, -51.52 63.4 C-49.81 66.13, -47.99 67.62, -44.92 69.37 C-41.85 71.12, -37.29 71.74, -33.1 73.9 C-28.91 76.07, -24.06 78.98, -19.79 82.36 C-15.53 85.75, -11.79 89.01, -7.5 94.22 C-3.2 99.42, 2.71 107.64, 5.99 113.6 C9.26 119.56, 10.31 125.22, 12.16 129.97 C14 134.72, 14.57 138.8, 17.05 142.09 C19.53 145.38, 23.48 148.46, 27.05 149.71 C30.62 150.96, 35.01 150.52, 38.48 149.58 C41.94 148.65, 45.33 147.5, 47.84 144.09 C50.34 140.68, 51.54 134.29, 53.5 129.12 C55.46 123.95, 56.69 118.63, 59.62 113.07 C62.55 107.51, 66.64 101.04, 71.08 95.75 C75.51 90.45, 80.28 85.52, 86.23 81.3 C92.17 77.08, 101.76 73.2, 106.74 70.44 C111.73 67.67, 113.83 67.42, 116.14 64.69 C118.45 61.96, 120.23 57.94, 120.61 54.05 C120.99 50.17, 120.4 44.61, 118.42 41.37 C116.43 38.12, 113.11 36.97, 108.69 34.59 C104.27 32.2, 97.14 30.36, 91.9 27.08 C86.65 23.8, 81.87 19.74, 77.23 14.91 C72.6 10.08, 67.95 4.45, 64.08 -1.88 C60.2 -8.22, 56.59 -17.29, 53.97 -23.09 C51.35 -28.89, 50.78 -33.17, 48.37 -36.67 C45.96 -40.17, 42.62 -42.67, 39.51 -44.09 C36.4 -45.5, 32.82 -45.7, 29.72 -45.16 C26.62 -44.62, 23.31 -42.85, 20.89 -40.85 C18.47 -38.86, 16.91 -37.09, 15.2 -33.2 C13.5 -29.31, 12.55 -22.06, 10.67 -17.49 C8.78 -12.93, 5.65 -8.7, 3.87 -5.79 C2.09 -2.87, 0.64 -0.96, 0 0" stroke="#E1E1E1" stroke-width="4" fill="none"></path></g></g><mask></mask><g stroke-linecap="round"><g transform="translate(89.97534183319908 69.34853450900346) rotate(0 12.659630692019505 13.964831972609147)"><path d="M0 0 C0.88 1.34, 2.56 4.62, 5.27 8.07 C7.98 11.52, 12.91 17.38, 16.25 20.69 C19.6 24, 23.81 26.72, 25.32 27.93 M0 0 C0.88 1.34, 2.56 4.62, 5.27 8.07 C7.98 11.52, 12.91 17.38, 16.25 20.69 C19.6 24, 23.81 26.72, 25.32 27.93" stroke="#E1E1E1" stroke-width="4" fill="none"></path></g></g><mask></mask><g stroke-linecap="round"><g transform="translate(115.37729973406044 97.66942603659118) rotate(0 -12.699440711995976 13.479774403771387)"><path d="M0 0 C-1.26 1.04, -4.51 3.49, -7.54 6.24 C-10.58 8.99, -15.21 13.05, -18.18 16.5 C-21.16 19.96, -24.2 25.22, -25.4 26.96 M0 0 C-1.26 1.04, -4.51 3.49, -7.54 6.24 C-10.58 8.99, -15.21 13.05, -18.18 16.5 C-21.16 19.96, -24.2 25.22, -25.4 26.96" stroke="#E1E1E1" stroke-width="4" fill="none"></path></g></g><mask></mask><g stroke-linecap="round"><g transform="translate(89.78346790552587 124.81893876399465) rotate(0 -12.497228867037961 -13.544874973621745)"><path d="M0 0 C-1.16 -1.54, -4.24 -6, -6.96 -9.24 C-9.67 -12.49, -13.26 -16.51, -16.27 -19.48 C-19.28 -22.46, -23.54 -25.82, -24.99 -27.09 M0 0 C-1.16 -1.54, -4.24 -6, -6.96 -9.24 C-9.67 -12.49, -13.26 -16.51, -16.27 -19.48 C-19.28 -22.46, -23.54 -25.82, -24.99 -27.09" stroke="#E1E1E1" stroke-width="4" fill="none"></path></g></g><mask></mask><g stroke-linecap="round"><g transform="translate(64.57764052117682 97.00706943451655) rotate(0 12.567465993612473 -14.157125419855504)"><path d="M0 0 C1.54 -1.44, 6.16 -5.56, 9.23 -8.64 C12.31 -11.73, 15.79 -15.23, 18.44 -18.5 C21.09 -21.78, 24.02 -26.68, 25.13 -28.31 M0 0 C1.54 -1.44, 6.16 -5.56, 9.23 -8.64 C12.31 -11.73, 15.79 -15.23, 18.44 -18.5 C21.09 -21.78, 24.02 -26.68, 25.13 -28.31" stroke="#E1E1E1" stroke-width="4" fill="none"></path></g></g><mask></mask><g stroke-linecap="round"><g transform="translate(60.62038689180645 50.54601690946424) rotate(0 29.185128683465337 46.64609086426458)"><path d="M0 0 C-1.46 1.93, -4.84 7.57, -8.74 11.55 C-12.63 15.54, -18.97 20.94, -23.39 23.93 C-27.81 26.91, -32.07 28.02, -35.27 29.47 C-38.47 30.92, -40.58 31.09, -42.6 32.64 C-44.63 34.19, -46.31 36.32, -47.42 38.76 C-48.53 41.2, -49.5 44.31, -49.25 47.28 C-49.01 50.25, -47.5 54.14, -45.97 56.58 C-44.44 59.02, -42.82 60.34, -40.08 61.91 C-37.34 63.47, -33.28 64.02, -29.54 65.95 C-25.8 67.88, -21.47 70.48, -17.66 73.5 C-13.85 76.52, -10.52 79.43, -6.69 84.07 C-2.86 88.72, 2.42 96.05, 5.34 101.37 C8.27 106.69, 9.2 111.74, 10.85 115.98 C12.5 120.21, 13 123.86, 15.22 126.8 C17.43 129.73, 20.95 132.48, 24.14 133.59 C27.33 134.71, 31.24 134.32, 34.33 133.48 C37.43 132.65, 40.45 131.62, 42.69 128.58 C44.92 125.53, 45.99 119.83, 47.74 115.22 C49.49 110.61, 50.59 105.86, 53.2 100.9 C55.82 95.93, 59.47 90.16, 63.43 85.44 C67.38 80.71, 71.64 76.32, 76.95 72.55 C82.25 68.79, 90.8 65.32, 95.25 62.85 C99.7 60.38, 101.58 60.16, 103.64 57.73 C105.7 55.29, 107.29 51.7, 107.62 48.24 C107.96 44.77, 107.44 39.81, 105.67 36.92 C103.9 34.02, 100.93 32.99, 96.99 30.86 C93.04 28.74, 86.68 27.09, 82 24.16 C77.33 21.24, 73.06 17.61, 68.92 13.31 C64.78 9, 60.64 3.97, 57.18 -1.68 C53.72 -7.33, 50.5 -15.43, 48.16 -20.6 C45.82 -25.78, 45.31 -29.6, 43.16 -32.73 C41.01 -35.85, 38.03 -38.08, 35.26 -39.34 C32.49 -40.6, 29.29 -40.78, 26.52 -40.3 C23.75 -39.82, 20.8 -38.24, 18.64 -36.46 C16.48 -34.68, 15.09 -33.1, 13.57 -29.63 C12.05 -26.15, 11.2 -19.69, 9.52 -15.61 C7.83 -11.53, 5.04 -7.77, 3.45 -5.17 C1.87 -2.56, 0.58 -0.86, 0 0 M0 0 C-1.46 1.93, -4.84 7.57, -8.74 11.55 C-12.63 15.54, -18.97 20.94, -23.39 23.93 C-27.81 26.91, -32.07 28.02, -35.27 29.47 C-38.47 30.92, -40.58 31.09, -42.6 32.64 C-44.63 34.19, -46.31 36.32, -47.42 38.76 C-48.53 41.2, -49.5 44.31, -49.25 47.28 C-49.01 50.25, -47.5 54.14, -45.97 56.58 C-44.44 59.02, -42.82 60.34, -40.08 61.91 C-37.34 63.47, -33.28 64.02, -29.54 65.95 C-25.8 67.88, -21.47 70.48, -17.66 73.5 C-13.85 76.52, -10.52 79.43, -6.69 84.07 C-2.86 88.72, 2.42 96.05, 5.34 101.37 C8.27 106.69, 9.2 111.74, 10.85 115.98 C12.5 120.21, 13 123.86, 15.22 126.8 C17.43 129.73, 20.95 132.48, 24.14 133.59 C27.33 134.71, 31.24 134.32, 34.33 133.48 C37.43 132.65, 40.45 131.62, 42.69 128.58 C44.92 125.53, 45.99 119.83, 47.74 115.22 C49.49 110.61, 50.59 105.86, 53.2 100.9 C55.82 95.93, 59.47 90.16, 63.43 85.44 C67.38 80.71, 71.64 76.32, 76.95 72.55 C82.25 68.79, 90.8 65.32, 95.25 62.85 C99.7 60.38, 101.58 60.16, 103.64 57.73 C105.7 55.29, 107.29 51.7, 107.62 48.24 C107.96 44.77, 107.44 39.81, 105.67 36.92 C103.9 34.02, 100.93 32.99, 96.99 30.86 C93.04 28.74, 86.68 27.09, 82 24.16 C77.33 21.24, 73.06 17.61, 68.92 13.31 C64.78 9, 60.64 3.97, 57.18 -1.68 C53.72 -7.33, 50.5 -15.43, 48.16 -20.6 C45.82 -25.78, 45.31 -29.6, 43.16 -32.73 C41.01 -35.85, 38.03 -38.08, 35.26 -39.34 C32.49 -40.6, 29.29 -40.78, 26.52 -40.3 C23.75 -39.82, 20.8 -38.24, 18.64 -36.46 C16.48 -34.68, 15.09 -33.1, 13.57 -29.63 C12.05 -26.15, 11.2 -19.69, 9.52 -15.61 C7.83 -11.53, 5.04 -7.77, 3.45 -5.17 C1.87 -2.56, 0.58 -0.86, 0 0" stroke="#E1E1E1" stroke-width="4" fill="none"></path></g></g><mask></mask><g stroke-linecap="round"><g transform="translate(204.5170311871882 593.1142630761647) rotate(270 16.84353337314178 -3.5416082472361268)"><path d="M0 0 C-0.03 -3.36, -0.6 -14.9, -0.17 -20.13 C0.26 -25.37, 0.8 -28.52, 2.57 -31.39 C4.35 -34.27, 7.88 -36.25, 10.46 -37.37 C13.04 -38.48, 16.03 -38.07, 18.06 -38.11 C20.09 -38.15, 21.03 -38.18, 22.64 -37.62 C24.25 -37.06, 26.16 -36.31, 27.71 -34.77 C29.26 -33.23, 31.01 -30.82, 31.95 -28.4 C32.9 -25.98, 33.08 -25.35, 33.36 -20.25 C33.64 -15.15, 33.55 -4.08, 33.63 2.21 C33.71 8.51, 34.36 13.65, 33.86 17.55 C33.35 21.44, 32.52 23.32, 30.6 25.57 C28.67 27.82, 25.27 30.13, 22.31 31.03 C19.36 31.93, 15.82 31.65, 12.87 30.96 C9.92 30.27, 6.61 28.82, 4.61 26.9 C2.6 24.98, 1.61 22.62, 0.82 19.45 C0.03 16.28, 0.01 11.13, -0.13 7.89 C-0.26 4.65, -0.02 1.31, 0 0 M0 0 C-0.03 -3.36, -0.6 -14.9, -0.17 -20.13 C0.26 -25.37, 0.8 -28.52, 2.57 -31.39 C4.35 -34.27, 7.88 -36.25, 10.46 -37.37 C13.04 -38.48, 16.03 -38.07, 18.06 -38.11 C20.09 -38.15, 21.03 -38.18, 22.64 -37.62 C24.25 -37.06, 26.16 -36.31, 27.71 -34.77 C29.26 -33.23, 31.01 -30.82, 31.95 -28.4 C32.9 -25.98, 33.08 -25.35, 33.36 -20.25 C33.64 -15.15, 33.55 -4.08, 33.63 2.21 C33.71 8.51, 34.36 13.65, 33.86 17.55 C33.35 21.44, 32.52 23.32, 30.6 25.57 C28.67 27.82, 25.27 30.13, 22.31 31.03 C19.36 31.93, 15.82 31.65, 12.87 30.96 C9.92 30.27, 6.61 28.82, 4.61 26.9 C2.6 24.98, 1.61 22.62, 0.82 19.45 C0.03 16.28, 0.01 11.13, -0.13 7.89 C-0.26 4.65, -0.02 1.31, 0 0" stroke="#E1E1E1" stroke-width="4" fill="none"></path></g></g><mask></mask><g stroke-linecap="round"><g transform="translate(907.9340923702323 592.5527022341253) rotate(270 16.843533373141724 -3.5416082472361268)"><path d="M0 0 C-0.03 -3.36, -0.6 -14.9, -0.17 -20.13 C0.26 -25.37, 0.8 -28.52, 2.57 -31.39 C4.35 -34.27, 7.88 -36.25, 10.46 -37.37 C13.04 -38.48, 16.03 -38.07, 18.06 -38.11 C20.09 -38.15, 21.03 -38.18, 22.64 -37.62 C24.25 -37.06, 26.16 -36.31, 27.71 -34.77 C29.26 -33.23, 31.01 -30.82, 31.95 -28.4 C32.9 -25.98, 33.08 -25.35, 33.36 -20.25 C33.64 -15.15, 33.55 -4.08, 33.63 2.21 C33.71 8.51, 34.36 13.65, 33.86 17.55 C33.35 21.44, 32.52 23.32, 30.6 25.57 C28.67 27.82, 25.27 30.13, 22.31 31.03 C19.36 31.93, 15.82 31.65, 12.87 30.96 C9.92 30.27, 6.61 28.82, 4.61 26.9 C2.6 24.98, 1.61 22.62, 0.82 19.45 C0.03 16.28, 0.01 11.13, -0.13 7.89 C-0.26 4.65, -0.02 1.31, 0 0 M0 0 C-0.03 -3.36, -0.6 -14.9, -0.17 -20.13 C0.26 -25.37, 0.8 -28.52, 2.57 -31.39 C4.35 -34.27, 7.88 -36.25, 10.46 -37.37 C13.04 -38.48, 16.03 -38.07, 18.06 -38.11 C20.09 -38.15, 21.03 -38.18, 22.64 -37.62 C24.25 -37.06, 26.16 -36.31, 27.71 -34.77 C29.26 -33.23, 31.01 -30.82, 31.95 -28.4 C32.9 -25.98, 33.08 -25.35, 33.36 -20.25 C33.64 -15.15, 33.55 -4.08, 33.63 2.21 C33.71 8.51, 34.36 13.65, 33.86 17.55 C33.35 21.44, 32.52 23.32, 30.6 25.57 C28.67 27.82, 25.27 30.13, 22.31 31.03 C19.36 31.93, 15.82 31.65, 12.87 30.96 C9.92 30.27, 6.61 28.82, 4.61 26.9 C2.6 24.98, 1.61 22.62, 0.82 19.45 C0.03 16.28, 0.01 11.13, -0.13 7.89 C-0.26 4.65, -0.02 1.31, 0 0" stroke="#E1E1E1" stroke-width="4" fill="none"></path></g></g><mask></mask><g stroke-linecap="round"><g transform="translate(1012.2828457973993 918.463008512756) rotate(0 33.24270786508373 37.83576016033123)"><path d="M0 0 C1.85 3.4, 5.95 12.69, 11.1 20.42 C16.25 28.14, 24.42 39.07, 30.9 46.36 C37.37 53.65, 44.01 59.25, 49.94 64.14 C55.87 69.02, 63.73 73.75, 66.49 75.67 M0 0 C1.85 3.4, 5.95 12.69, 11.1 20.42 C16.25 28.14, 24.42 39.07, 30.9 46.36 C37.37 53.65, 44.01 59.25, 49.94 64.14 C55.87 69.02, 63.73 73.75, 66.49 75.67" stroke="#E1E1E1" stroke-width="4" fill="none"></path></g></g><mask></mask><g stroke-linecap="round"><g transform="translate(1079.180651375205 994.5204270351751) rotate(0 -33.6745765477566 37.495203222566374)"><path d="M0 0 C-2.94 1.88, -11.83 6.74, -17.63 11.28 C-23.43 15.83, -28.93 20.84, -34.79 27.27 C-40.64 33.69, -47.92 43.06, -52.75 49.82 C-57.59 56.57, -61.37 63.61, -63.8 67.81 C-66.24 72, -66.76 73.79, -67.35 74.99 M0 0 C-2.94 1.88, -11.83 6.74, -17.63 11.28 C-23.43 15.83, -28.93 20.84, -34.79 27.27 C-40.64 33.69, -47.92 43.06, -52.75 49.82 C-57.59 56.57, -61.37 63.61, -63.8 67.81 C-66.24 72, -66.76 73.79, -67.35 74.99" stroke="#E1E1E1" stroke-width="4" fill="none"></path></g></g><mask></mask><g stroke-linecap="round"><g transform="translate(1011.7384602216841 1069.253844079154) rotate(0 -33.183854570990945 -37.477031222681376)"><path d="M0 0 C-1.68 -3.21, -5.13 -11.6, -10.11 -19.23 C-15.08 -26.86, -22.88 -38.06, -29.86 -45.77 C-36.84 -53.48, -45.89 -60.6, -51.97 -65.47 C-58.06 -70.33, -63.97 -73.37, -66.37 -74.95 M0 0 C-1.68 -3.21, -5.13 -11.6, -10.11 -19.23 C-15.08 -26.86, -22.88 -38.06, -29.86 -45.77 C-36.84 -53.48, -45.89 -60.6, -51.97 -65.47 C-58.06 -70.33, -63.97 -73.37, -66.37 -74.95" stroke="#E1E1E1" stroke-width="4" fill="none"></path></g></g><mask></mask><g stroke-linecap="round"><g transform="translate(945.2928196057953 993.9923311864948) rotate(0 33.3993290999598 -38.043368133267904)"><path d="M0 0 C3.83 -2.82, 15.76 -10.55, 22.98 -16.93 C30.2 -23.31, 37.19 -30.85, 43.32 -38.28 C49.44 -45.71, 55.82 -55.2, 59.74 -61.5 C63.65 -67.8, 65.62 -73.66, 66.8 -76.09 M0 0 C3.83 -2.82, 15.76 -10.55, 22.98 -16.93 C30.2 -23.31, 37.19 -30.85, 43.32 -38.28 C49.44 -45.71, 55.82 -55.2, 59.74 -61.5 C63.65 -67.8, 65.62 -73.66, 66.8 -76.09" stroke="#E1E1E1" stroke-width="4" fill="none"></path></g></g><mask></mask><g stroke-linecap="round"><g transform="translate(1053.5662522004563 921.0892147500344) rotate(0 -41.2526231750781 72.77077248790533)"><path d="M0 0 C1.95 2.53, 6.29 9.21, 11.72 15.16 C17.15 21.11, 25.22 29.67, 32.57 35.69 C39.92 41.71, 49.64 47.74, 55.81 51.26 C61.98 54.79, 66.05 55.14, 69.59 56.87 C73.12 58.59, 75.06 59.15, 77.03 61.6 C79 64.05, 81.17 68.15, 81.41 71.56 C81.65 74.98, 80.18 79.33, 78.46 82.09 C76.75 84.86, 74.9 86.17, 71.13 88.13 C67.35 90.1, 61.15 91.24, 55.81 93.86 C50.47 96.48, 44.45 100, 39.09 103.86 C33.73 107.72, 29.48 111, 23.65 117.02 C17.81 123.05, 9.79 132.17, 4.07 140 C-1.66 147.82, -6.44 156.21, -10.69 163.97 C-14.94 171.73, -18.85 180.05, -21.42 186.55 C-23.98 193.06, -24.12 198.84, -26.08 203 C-28.05 207.16, -30.24 209.8, -33.21 211.52 C-36.18 213.24, -40.57 213.9, -43.92 213.33 C-47.26 212.76, -50.43 212.22, -53.28 208.11 C-56.12 203.99, -57.33 197.11, -60.99 188.66 C-64.64 180.2, -69.17 167.72, -75.22 157.37 C-81.27 147.02, -88.71 135.84, -97.28 126.53 C-105.84 117.22, -117.97 107.5, -126.61 101.52 C-135.26 95.54, -143.86 93.33, -149.17 90.66 C-154.48 87.98, -156.04 87.97, -158.5 85.47 C-160.95 82.98, -163.32 79.36, -163.92 75.7 C-164.51 72.05, -164.31 66.74, -162.05 63.54 C-159.79 60.33, -156.05 59.57, -150.35 56.47 C-144.65 53.37, -135.98 50.52, -127.85 44.93 C-119.72 39.35, -109.79 31.65, -101.56 22.96 C-93.33 14.28, -85.06 3.63, -78.47 -7.19 C-71.88 -18, -65.65 -33.5, -62.02 -41.93 C-58.38 -50.36, -58.66 -53.79, -56.67 -57.76 C-54.68 -61.72, -52.56 -64.05, -50.09 -65.72 C-47.62 -67.39, -44.61 -67.74, -41.85 -67.79 C-39.08 -67.83, -35.84 -67.38, -33.5 -65.99 C-31.15 -64.59, -29.36 -62.48, -27.76 -59.42 C-26.17 -56.36, -25.58 -52.35, -23.94 -47.65 C-22.3 -42.95, -20.33 -36.78, -17.92 -31.22 C-15.51 -25.65, -12.47 -19.47, -9.48 -14.26 C-6.49 -9.06, -1.58 -2.38, 0 0 M0 0 C1.95 2.53, 6.29 9.21, 11.72 15.16 C17.15 21.11, 25.22 29.67, 32.57 35.69 C39.92 41.71, 49.64 47.74, 55.81 51.26 C61.98 54.79, 66.05 55.14, 69.59 56.87 C73.12 58.59, 75.06 59.15, 77.03 61.6 C79 64.05, 81.17 68.15, 81.41 71.56 C81.65 74.98, 80.18 79.33, 78.46 82.09 C76.75 84.86, 74.9 86.17, 71.13 88.13 C67.35 90.1, 61.15 91.24, 55.81 93.86 C50.47 96.48, 44.45 100, 39.09 103.86 C33.73 107.72, 29.48 111, 23.65 117.02 C17.81 123.05, 9.79 132.17, 4.07 140 C-1.66 147.82, -6.44 156.21, -10.69 163.97 C-14.94 171.73, -18.85 180.05, -21.42 186.55 C-23.98 193.06, -24.12 198.84, -26.08 203 C-28.05 207.16, -30.24 209.8, -33.21 211.52 C-36.18 213.24, -40.57 213.9, -43.92 213.33 C-47.26 212.76, -50.43 212.22, -53.28 208.11 C-56.12 203.99, -57.33 197.11, -60.99 188.66 C-64.64 180.2, -69.17 167.72, -75.22 157.37 C-81.27 147.02, -88.71 135.84, -97.28 126.53 C-105.84 117.22, -117.97 107.5, -126.61 101.52 C-135.26 95.54, -143.86 93.33, -149.17 90.66 C-154.48 87.98, -156.04 87.97, -158.5 85.47 C-160.95 82.98, -163.32 79.36, -163.92 75.7 C-164.51 72.05, -164.31 66.74, -162.05 63.54 C-159.79 60.33, -156.05 59.57, -150.35 56.47 C-144.65 53.37, -135.98 50.52, -127.85 44.93 C-119.72 39.35, -109.79 31.65, -101.56 22.96 C-93.33 14.28, -85.06 3.63, -78.47 -7.19 C-71.88 -18, -65.65 -33.5, -62.02 -41.93 C-58.38 -50.36, -58.66 -53.79, -56.67 -57.76 C-54.68 -61.72, -52.56 -64.05, -50.09 -65.72 C-47.62 -67.39, -44.61 -67.74, -41.85 -67.79 C-39.08 -67.83, -35.84 -67.38, -33.5 -65.99 C-31.15 -64.59, -29.36 -62.48, -27.76 -59.42 C-26.17 -56.36, -25.58 -52.35, -23.94 -47.65 C-22.3 -42.95, -20.33 -36.78, -17.92 -31.22 C-15.51 -25.65, -12.47 -19.47, -9.48 -14.26 C-6.49 -9.06, -1.58 -2.38, 0 0" stroke="#E1E1E1" stroke-width="4" fill="none"></path></g></g><mask></mask><g stroke-linecap="round"><g transform="translate(132.91841344673549 918.352754984373) rotate(0 33.24270786508373 37.83576016033123)"><path d="M0 0 C1.85 3.4, 5.95 12.69, 11.1 20.42 C16.25 28.14, 24.42 39.07, 30.9 46.36 C37.37 53.65, 44.01 59.25, 49.94 64.14 C55.87 69.02, 63.73 73.75, 66.49 75.67 M0 0 C1.85 3.4, 5.95 12.69, 11.1 20.42 C16.25 28.14, 24.42 39.07, 30.9 46.36 C37.37 53.65, 44.01 59.25, 49.94 64.14 C55.87 69.02, 63.73 73.75, 66.49 75.67" stroke="#E1E1E1" stroke-width="4" fill="none"></path></g></g><mask></mask><g stroke-linecap="round"><g transform="translate(199.81621902454094 994.410173506792) rotate(0 -33.6745765477566 37.495203222566374)"><path d="M0 0 C-2.94 1.88, -11.83 6.74, -17.63 11.28 C-23.43 15.83, -28.93 20.84, -34.79 27.27 C-40.64 33.69, -47.92 43.06, -52.75 49.82 C-57.59 56.57, -61.37 63.61, -63.8 67.81 C-66.24 72, -66.76 73.79, -67.35 74.99 M0 0 C-2.94 1.88, -11.83 6.74, -17.63 11.28 C-23.43 15.83, -28.93 20.84, -34.79 27.27 C-40.64 33.69, -47.92 43.06, -52.75 49.82 C-57.59 56.57, -61.37 63.61, -63.8 67.81 C-66.24 72, -66.76 73.79, -67.35 74.99" stroke="#E1E1E1" stroke-width="4" fill="none"></path></g></g><mask></mask><g stroke-linecap="round"><g transform="translate(132.37402787101996 1069.1435905507715) rotate(0 -33.18385457099089 -37.477031222681376)"><path d="M0 0 C-1.68 -3.21, -5.13 -11.6, -10.11 -19.23 C-15.08 -26.86, -22.88 -38.06, -29.86 -45.77 C-36.84 -53.48, -45.89 -60.6, -51.97 -65.47 C-58.06 -70.33, -63.97 -73.37, -66.37 -74.95 M0 0 C-1.68 -3.21, -5.13 -11.6, -10.11 -19.23 C-15.08 -26.86, -22.88 -38.06, -29.86 -45.77 C-36.84 -53.48, -45.89 -60.6, -51.97 -65.47 C-58.06 -70.33, -63.97 -73.37, -66.37 -74.95" stroke="#E1E1E1" stroke-width="4" fill="none"></path></g></g><mask></mask><g stroke-linecap="round"><g transform="translate(65.92838725513138 993.8820776581119) rotate(0 33.3993290999598 -38.043368133267904)"><path d="M0 0 C3.83 -2.82, 15.76 -10.55, 22.98 -16.93 C30.2 -23.31, 37.19 -30.85, 43.32 -38.28 C49.44 -45.71, 55.82 -55.2, 59.74 -61.5 C63.65 -67.8, 65.62 -73.66, 66.8 -76.09 M0 0 C3.83 -2.82, 15.76 -10.55, 22.98 -16.93 C30.2 -23.31, 37.19 -30.85, 43.32 -38.28 C49.44 -45.71, 55.82 -55.2, 59.74 -61.5 C63.65 -67.8, 65.62 -73.66, 66.8 -76.09" stroke="#E1E1E1" stroke-width="4" fill="none"></path></g></g><mask></mask><g stroke-linecap="round"><g transform="translate(174.2018198497924 920.9789612216516) rotate(0 -41.25262317507804 72.77077248790545)"><path d="M0 0 C1.95 2.53, 6.29 9.21, 11.72 15.16 C17.15 21.11, 25.22 29.67, 32.57 35.69 C39.92 41.71, 49.64 47.74, 55.81 51.26 C61.98 54.79, 66.05 55.14, 69.59 56.87 C73.12 58.59, 75.06 59.15, 77.03 61.6 C79 64.05, 81.17 68.15, 81.41 71.56 C81.65 74.98, 80.18 79.33, 78.46 82.09 C76.75 84.86, 74.9 86.17, 71.13 88.13 C67.35 90.1, 61.15 91.24, 55.81 93.86 C50.47 96.48, 44.45 100, 39.09 103.86 C33.73 107.72, 29.48 111, 23.65 117.02 C17.81 123.05, 9.79 132.17, 4.07 140 C-1.66 147.82, -6.44 156.21, -10.69 163.97 C-14.94 171.73, -18.85 180.05, -21.42 186.55 C-23.98 193.06, -24.12 198.84, -26.08 203 C-28.05 207.16, -30.24 209.8, -33.21 211.52 C-36.18 213.24, -40.57 213.9, -43.92 213.33 C-47.26 212.76, -50.43 212.22, -53.28 208.11 C-56.12 203.99, -57.33 197.11, -60.99 188.66 C-64.64 180.2, -69.17 167.72, -75.22 157.37 C-81.27 147.02, -88.71 135.84, -97.28 126.53 C-105.84 117.22, -117.97 107.5, -126.61 101.52 C-135.26 95.54, -143.86 93.33, -149.17 90.66 C-154.48 87.98, -156.04 87.97, -158.5 85.47 C-160.95 82.98, -163.32 79.36, -163.92 75.7 C-164.51 72.05, -164.31 66.74, -162.05 63.54 C-159.79 60.33, -156.05 59.57, -150.35 56.47 C-144.65 53.37, -135.98 50.52, -127.85 44.93 C-119.72 39.35, -109.79 31.65, -101.56 22.96 C-93.33 14.28, -85.06 3.63, -78.47 -7.19 C-71.88 -18, -65.65 -33.5, -62.02 -41.93 C-58.38 -50.36, -58.66 -53.79, -56.67 -57.76 C-54.68 -61.72, -52.56 -64.05, -50.09 -65.72 C-47.62 -67.39, -44.61 -67.74, -41.85 -67.79 C-39.08 -67.83, -35.84 -67.38, -33.5 -65.99 C-31.15 -64.59, -29.36 -62.48, -27.76 -59.42 C-26.17 -56.36, -25.58 -52.35, -23.94 -47.65 C-22.3 -42.95, -20.33 -36.78, -17.92 -31.22 C-15.51 -25.65, -12.47 -19.47, -9.48 -14.26 C-6.49 -9.06, -1.58 -2.38, 0 0 M0 0 C1.95 2.53, 6.29 9.21, 11.72 15.16 C17.15 21.11, 25.22 29.67, 32.57 35.69 C39.92 41.71, 49.64 47.74, 55.81 51.26 C61.98 54.79, 66.05 55.14, 69.59 56.87 C73.12 58.59, 75.06 59.15, 77.03 61.6 C79 64.05, 81.17 68.15, 81.41 71.56 C81.65 74.98, 80.18 79.33, 78.46 82.09 C76.75 84.86, 74.9 86.17, 71.13 88.13 C67.35 90.1, 61.15 91.24, 55.81 93.86 C50.47 96.48, 44.45 100, 39.09 103.86 C33.73 107.72, 29.48 111, 23.65 117.02 C17.81 123.05, 9.79 132.17, 4.07 140 C-1.66 147.82, -6.44 156.21, -10.69 163.97 C-14.94 171.73, -18.85 180.05, -21.42 186.55 C-23.98 193.06, -24.12 198.84, -26.08 203 C-28.05 207.16, -30.24 209.8, -33.21 211.52 C-36.18 213.24, -40.57 213.9, -43.92 213.33 C-47.26 212.76, -50.43 212.22, -53.28 208.11 C-56.12 203.99, -57.33 197.11, -60.99 188.66 C-64.64 180.2, -69.17 167.72, -75.22 157.37 C-81.27 147.02, -88.71 135.84, -97.28 126.53 C-105.84 117.22, -117.97 107.5, -126.61 101.52 C-135.26 95.54, -143.86 93.33, -149.17 90.66 C-154.48 87.98, -156.04 87.97, -158.5 85.47 C-160.95 82.98, -163.32 79.36, -163.92 75.7 C-164.51 72.05, -164.31 66.74, -162.05 63.54 C-159.79 60.33, -156.05 59.57, -150.35 56.47 C-144.65 53.37, -135.98 50.52, -127.85 44.93 C-119.72 39.35, -109.79 31.65, -101.56 22.96 C-93.33 14.28, -85.06 3.63, -78.47 -7.19 C-71.88 -18, -65.65 -33.5, -62.02 -41.93 C-58.38 -50.36, -58.66 -53.79, -56.67 -57.76 C-54.68 -61.72, -52.56 -64.05, -50.09 -65.72 C-47.62 -67.39, -44.61 -67.74, -41.85 -67.79 C-39.08 -67.83, -35.84 -67.38, -33.5 -65.99 C-31.15 -64.59, -29.36 -62.48, -27.76 -59.42 C-26.17 -56.36, -25.58 -52.35, -23.94 -47.65 C-22.3 -42.95, -20.33 -36.78, -17.92 -31.22 C-15.51 -25.65, -12.47 -19.47, -9.48 -14.26 C-6.49 -9.06, -1.58 -2.38, 0 0" stroke="#E1E1E1" stroke-width="4" fill="none"></path></g></g><mask></mask></svg>