<svg version="1.1" xmlns="http://www.w3.org/2000/svg" viewBox="0 0 534.8657357063753 563.8236516474599" width="534.8657357063753" height="563.8236516474599" class="excalidraw-svg"><!-- svg-source:excalidraw --><metadata></metadata><defs><style class="style-fonts">
      </style></defs><rect x="0" y="0" width="534.8657357063753" height="563.8236516474599" fill="#000000"></rect><g stroke-linecap="round"><g transform="translate(514.3237126470981 134.10120767494118) rotate(0 -4.049349115519362 4.769681978530116)"><path d="M0 0 C-0.8 -2.46, -1.6 -4.92, -3.88 -11.93 M0 0 C-1.52 -4.68, -3.05 -9.36, -3.88 -11.93 M-3.88 -11.93 C-5.03 -8.6, -6.18 -5.27, -7.86 -0.4 M-3.88 -11.93 C-4.85 -9.12, -5.82 -6.32, -7.86 -0.4 M-7.86 -0.4 C-11.14 1, -14.42 2.39, -18.64 4.19 M-7.86 -0.4 C-11.85 1.3, -15.84 2.99, -18.64 4.19 M-18.64 4.19 C-15.97 5.57, -13.29 6.95, -8.33 9.52 M-18.64 4.19 C-15.88 5.61, -13.13 7.04, -8.33 9.52 M-8.33 9.52 C-7.12 13.08, -5.91 16.64, -4.26 21.47 M-8.33 9.52 C-6.97 13.52, -5.61 17.52, -4.26 21.47 M-4.26 21.47 C-2.61 17.02, -0.96 12.57, 0.19 9.47 M-4.26 21.47 C-2.91 17.83, -1.56 14.19, 0.19 9.47 M0.19 9.47 C3.35 7.92, 6.51 6.36, 10.54 4.38 M0.19 9.47 C3 8.09, 5.8 6.71, 10.54 4.38 M10.54 4.38 C7.67 3.19, 4.8 2, 0 0 M10.54 4.38 C7.06 2.93, 3.57 1.48, 0 0" stroke="#FFFFFF" stroke-width="2" fill="none"></path></g></g><mask></mask><g stroke-linecap="round"><g transform="translate(452.25844922248734 73.6325737265397) rotate(0 7.615689693425566 -5.259436301736969)"><path d="M0 0 C-4.75 -1.79, -9.5 -3.59, -12.9 -4.88 M0 0 C-3.25 -1.23, -6.5 -2.45, -12.9 -4.88 M-12.9 -4.88 C-7.64 -7.74, -2.38 -10.6, 1.45 -12.68 M-12.9 -4.88 C-7.76 -7.67, -2.62 -10.47, 1.45 -12.68 M1.45 -12.68 C3.57 -18.41, 5.7 -24.13, 6.98 -27.6 M1.45 -12.68 C3.27 -17.58, 5.08 -22.48, 6.98 -27.6 M6.98 -27.6 C8.93 -22.09, 10.88 -16.57, 12.66 -11.54 M6.98 -27.6 C9.02 -21.84, 11.05 -16.08, 12.66 -11.54 M12.66 -11.54 C18.39 -8.89, 24.12 -6.24, 28.14 -4.38 M12.66 -11.54 C17.09 -9.49, 21.53 -7.44, 28.14 -4.38 M28.14 -4.38 C24.31 -3.13, 20.48 -1.88, 13.29 0.46 M28.14 -4.38 C24.86 -3.31, 21.59 -2.24, 13.29 0.46 M13.29 0.46 C11.2 6.08, 9.1 11.69, 7.09 17.08 M13.29 0.46 C10.99 6.63, 8.69 12.8, 7.09 17.08 M7.09 17.08 C4.62 11.12, 2.14 5.16, 0 0 M7.09 17.08 C5.08 12.24, 3.07 7.4, 0 0" stroke="#FFFFFF" stroke-width="2" fill="none"></path></g></g><mask></mask><g stroke-linecap="round"><g transform="translate(499.9831473984473 242.44818033071442) rotate(0 4.117998371986005 4.435869522682879)"><path d="M0 0 C0.87 -2.51, 1.74 -5.01, 4.29 -12.34 M0 0 C1.68 -4.84, 3.37 -9.69, 4.29 -12.34 M4.29 -12.34 C5.44 -8.48, 6.59 -4.62, 7.99 0.06 M4.29 -12.34 C5.76 -7.4, 7.23 -2.47, 7.99 0.06 M7.99 0.06 C10.25 0.82, 12.51 1.59, 18.91 3.75 M7.99 0.06 C10.29 0.84, 12.6 1.62, 18.91 3.75 M18.91 3.75 C16.34 5.04, 13.77 6.33, 8.33 9.08 M18.91 3.75 C16.33 5.05, 13.75 6.34, 8.33 9.08 M8.33 9.08 C6.61 13.72, 4.9 18.37, 3.86 21.21 M8.33 9.08 C6.83 13.14, 5.33 17.21, 3.86 21.21 M3.86 21.21 C2.71 17.75, 1.56 14.28, -0.3 8.64 M3.86 21.21 C2.26 16.38, 0.66 11.55, -0.3 8.64 M-0.3 8.64 C-3.6 7.3, -6.91 5.95, -10.67 4.42 M-0.3 8.64 C-4.24 7.04, -8.19 5.43, -10.67 4.42 M-10.67 4.42 C-7.16 2.96, -3.65 1.51, 0 0 M-10.67 4.42 C-8.19 3.39, -5.71 2.36, 0 0" stroke="#FFFFFF" stroke-width="2" fill="none"></path></g></g><mask></mask><g stroke-linecap="round"><g transform="translate(476.2867463279922 349.97044362060115) rotate(0 4.43987012881712 4.301011623652357)"><path d="M0 0 C1.02 -2.58, 2.04 -5.15, 4.74 -11.96 M0 0 C1.12 -2.82, 2.24 -5.64, 4.74 -11.96 M4.74 -11.96 C6.05 -7.56, 7.35 -3.16, 8.2 -0.3 M4.74 -11.96 C5.99 -7.74, 7.24 -3.53, 8.2 -0.3 M8.2 -0.3 C10.6 0.65, 13.01 1.6, 18.98 3.97 M8.2 -0.3 C10.56 0.63, 12.91 1.57, 18.98 3.97 M18.98 3.97 C16.1 5.26, 13.22 6.56, 8.43 8.72 M18.98 3.97 C16.65 5.01, 14.32 6.06, 8.43 8.72 M8.43 8.72 C7.37 11.85, 6.32 14.98, 4.43 20.56 M8.43 8.72 C7.33 11.98, 6.23 15.23, 4.43 20.56 M4.43 20.56 C2.78 15.98, 1.13 11.41, 0.07 8.5 M4.43 20.56 C3.34 17.53, 2.24 14.5, 0.07 8.5 M0.07 8.5 C-2.75 7.28, -5.58 6.07, -10.1 4.13 M0.07 8.5 C-2.49 7.4, -5.05 6.3, -10.1 4.13 M-10.1 4.13 C-6.78 2.77, -3.45 1.41, 0 0 M-10.1 4.13 C-7.29 2.98, -4.48 1.83, 0 0" stroke="#FFFFFF" stroke-width="2" fill="none"></path></g></g><mask></mask><g stroke-linecap="round"><g transform="translate(93.38735138427137 343.8317165077624) rotate(0 -3.6253130695690743 5.512838707154515)"><path d="M0 0 C-1.28 -3.38, -2.57 -6.76, -4.05 -10.65 M0 0 C-1.4 -3.7, -2.81 -7.4, -4.05 -10.65 M-4.05 -10.65 C-5.99 -6.72, -7.93 -2.8, -9.13 -0.38 M-4.05 -10.65 C-5.41 -7.9, -6.77 -5.15, -9.13 -0.38 M-9.13 -0.38 C-12.69 1.29, -16.25 2.96, -19.39 4.44 M-9.13 -0.38 C-12.22 1.07, -15.32 2.52, -19.39 4.44 M-19.39 4.44 C-17.24 5.58, -15.09 6.73, -8.97 10.01 M-19.39 4.44 C-15.38 6.58, -11.38 8.72, -8.97 10.01 M-8.97 10.01 C-7.19 14.52, -5.41 19.03, -4.37 21.67 M-8.97 10.01 C-7.32 14.2, -5.67 18.39, -4.37 21.67 M-4.37 21.67 C-3.41 19.23, -2.45 16.78, 0.07 10.4 M-4.37 21.67 C-3.44 19.3, -2.5 16.92, 0.07 10.4 M0.07 10.4 C4.81 8.29, 9.55 6.18, 12.14 5.02 M0.07 10.4 C3.61 8.82, 7.15 7.24, 12.14 5.02 M12.14 5.02 C9.11 3.77, 6.08 2.52, 0 0 M12.14 5.02 C7.7 3.19, 3.26 1.35, 0 0" stroke="#FFFFFF" stroke-width="2" fill="none"></path></g></g><mask></mask><g stroke-linecap="round"><g transform="translate(50.814306790683986 267.44187798577605) rotate(0 7.020523850713289 -6.791108434791568)"><path d="M0 0 C3.06 8.14, 6.12 16.28, 8.19 21.8 M0 0 C2.6 6.92, 5.2 13.85, 8.19 21.8 M8.19 21.8 C10.48 14.77, 12.77 7.73, 15.48 -0.61 M8.19 21.8 C9.72 17.09, 11.25 12.39, 15.48 -0.61 M15.48 -0.61 C20.82 -2.58, 26.16 -4.54, 34.84 -7.74 M15.48 -0.61 C21.46 -2.81, 27.44 -5.01, 34.84 -7.74 M34.84 -7.74 C29.4 -9.61, 23.97 -11.48, 14.14 -14.86 M34.84 -7.74 C30.03 -9.39, 25.23 -11.05, 14.14 -14.86 M14.14 -14.86 C11.59 -21.38, 9.03 -27.9, 6.09 -35.38 M14.14 -14.86 C11.99 -20.36, 9.83 -25.85, 6.09 -35.38 M6.09 -35.38 C3.85 -27.97, 1.61 -20.56, -0.22 -14.51 M6.09 -35.38 C4.57 -30.35, 3.05 -25.32, -0.22 -14.51 M-0.22 -14.51 C-8.3 -11.52, -16.37 -8.54, -20.8 -6.9 M-0.22 -14.51 C-8.13 -11.59, -16.03 -8.67, -20.8 -6.9 M-20.8 -6.9 C-12.89 -4.28, -4.98 -1.65, 0 0 M-20.8 -6.9 C-16.53 -5.49, -12.26 -4.07, 0 0" stroke="#FFFFFF" stroke-width="2" fill="none"></path></g></g><mask></mask><g stroke-linecap="round"><g transform="translate(207.67358852071175 29.375937196999075) rotate(0 -4.530625484583652 98.28505844791653)"><path d="M0 0 C-0.02 4.16, -0.12 11.56, -0.14 24.98 C-0.16 38.41, -0.14 69.35, -0.14 80.53 C-0.14 91.71, -0.14 88.92, -0.14 92.06 C-0.14 95.19, -0.39 98.03, -0.14 99.35 C0.11 100.67, 0.38 99.44, 1.37 100 C2.35 100.56, 4.46 101.5, 5.76 102.71 C7.06 103.93, 8.31 105.51, 9.17 107.28 C10.03 109.05, 10.83 111.33, 10.93 113.34 C11.03 115.35, 9.82 118, 9.77 119.33 C9.72 120.66, 10.03 120.49, 10.62 121.31 C11.21 122.12, 12.4 124.22, 13.31 124.22 C14.23 124.22, 14.42 123.39, 16.12 121.31 C17.82 119.23, 21.69 114.09, 23.53 111.74 C25.37 109.39, 26.46 108.2, 27.16 107.21 C27.86 106.23, 28.02 106.52, 27.72 105.83 C27.42 105.13, 27.44 105.32, 25.37 103.05 C23.3 100.79, 18.02 95.16, 15.3 92.24 C12.58 89.32, 10.23 87.29, 9.04 85.53 C7.86 83.77, 7.91 82.53, 8.2 81.66 C8.49 80.8, 9.83 80.45, 10.78 80.34 C11.72 80.23, 12.62 80.11, 13.88 80.99 C15.14 81.87, 15.54 82.6, 18.35 85.64 C21.16 88.68, 28.01 96.14, 30.75 99.23 C33.49 102.31, 34.06 102.52, 34.77 104.15 C35.48 105.78, 35.64 107.14, 34.99 109.03 C34.33 110.91, 33.54 112.02, 30.84 115.46 C28.14 118.91, 21.73 126.48, 18.78 129.7 C15.83 132.93, 15.33 133.44, 13.11 134.81 C10.9 136.18, 6.81 136.69, 5.48 137.93 C4.16 139.18, 4.79 141.62, 5.16 142.27 C5.54 142.92, 5.65 142.71, 7.76 141.86 C9.87 141.01, 14.28 138.48, 17.83 137.14 C21.38 135.8, 26.5 134.64, 29.07 133.82 C31.64 133, 31.91 132.31, 33.25 132.22 C34.59 132.14, 35.14 132.17, 37.12 133.31 C39.11 134.44, 42.67 137.34, 45.15 139.02 C47.63 140.69, 51.32 142.25, 51.99 143.36 C52.66 144.48, 49.72 144.76, 49.2 145.72 C48.68 146.67, 50.6 149.6, 48.86 149.1 C47.13 148.6, 41.33 144.53, 38.81 142.73 C36.29 140.94, 35.67 138.68, 33.75 138.33 C31.83 137.98, 30.74 139.23, 27.3 140.63 C23.86 142.03, 16.04 145.47, 13.1 146.74 C10.15 148, 9.32 147.6, 9.64 148.21 C9.96 148.83, 11.17 148.96, 15.04 150.44 C18.91 151.91, 29.22 155.35, 32.87 157.06 C36.52 158.77, 36.01 159.59, 36.92 160.69 C37.84 161.79, 38.06 162.27, 38.34 163.65 C38.62 165.04, 39.18 166.61, 38.61 169 C38.05 171.4, 36.29 174.58, 34.94 178.03 C33.59 181.49, 31.73 186.89, 30.52 189.74 C29.31 192.59, 28.76 194.03, 27.66 195.13 C26.57 196.24, 24.96 196.61, 23.95 196.38 C22.93 196.15, 21.61 195.37, 21.55 193.74 C21.48 192.12, 22.29 190.29, 23.54 186.64 C24.79 182.99, 27.59 175.53, 29.04 171.86 C30.49 168.19, 32.07 165.92, 32.24 164.61 C32.42 163.29, 32.02 164.64, 30.1 163.98 C28.17 163.32, 23.84 161.76, 20.7 160.65 C17.56 159.53, 13.03 157.53, 11.25 157.29 C9.46 157.04, 10.45 157.84, 10.01 159.17 C9.56 160.5, 9.45 163.21, 8.59 165.27 C7.72 167.33, 6.72 170.1, 4.82 171.54 C2.92 172.99, -0.4 173.85, -2.82 173.95 C-5.25 174.05, -7.78 172.98, -9.72 172.14 C-11.67 171.29, -13.23 170.81, -14.5 168.88 C-15.77 166.95, -16.74 162.58, -17.35 160.55 C-17.97 158.52, -17.61 157.25, -18.19 156.71 C-18.78 156.16, -18.4 156.42, -20.87 157.27 C-23.35 158.12, -29.92 160.63, -33.04 161.81 C-36.16 162.99, -38.45 163.53, -39.6 164.37 C-40.76 165.21, -40.66 164.9, -39.98 166.83 C-39.31 168.76, -37.21 172.46, -35.53 175.95 C-33.85 179.45, -31.09 184.96, -29.91 187.81 C-28.73 190.66, -28.48 191.69, -28.46 193.06 C-28.45 194.42, -29.07 195.4, -29.82 195.99 C-30.57 196.57, -32.11 196.88, -32.97 196.57 C-33.84 196.26, -33.97 195.88, -35.01 194.13 C-36.05 192.39, -37.42 189.84, -39.23 186.08 C-41.04 182.33, -44.41 175.02, -45.85 171.59 C-47.28 168.15, -47.79 167.31, -47.84 165.47 C-47.89 163.62, -47.12 161.89, -46.13 160.51 C-45.14 159.13, -44.71 158.6, -41.9 157.2 C-39.1 155.79, -32.73 153.42, -29.29 152.07 C-25.85 150.72, -23.01 149.73, -21.24 149.09 C-19.47 148.46, -18.6 148.67, -18.68 148.25 C-18.77 147.84, -20.25 147.24, -21.75 146.62 C-23.25 145.99, -25.31 145.39, -27.7 144.52 C-30.09 143.65, -33.74 142.34, -36.07 141.41 C-38.4 140.47, -40.27 139.31, -41.67 138.89 C-43.08 138.47, -43.16 138.25, -44.51 138.89 C-45.85 139.53, -47.65 141.41, -49.73 142.74 C-51.82 144.08, -55.25 146.2, -57.01 146.91 C-58.78 147.63, -59.63 147.6, -60.3 147.02 C-60.98 146.45, -62.53 145.17, -61.05 143.45 C-59.57 141.72, -54.12 138.65, -51.44 136.65 C-48.76 134.66, -46.9 132.22, -44.98 131.45 C-43.06 130.68, -41.4 131.52, -39.91 132.01 C-38.43 132.5, -38.83 133.28, -36.04 134.38 C-33.25 135.48, -26.37 137.51, -23.18 138.61 C-19.99 139.71, -18.44 140.35, -16.9 141 C-15.35 141.64, -14.41 142.92, -13.92 142.47 C-13.42 142.01, -13.3 139.26, -13.91 138.28 C-14.52 137.29, -15.74 137.66, -17.58 136.57 C-19.43 135.48, -22.07 134.35, -24.97 131.73 C-27.86 129.11, -32.22 124.13, -34.96 120.87 C-37.71 117.61, -40.08 114.25, -41.45 112.17 C-42.83 110.09, -43.07 109.91, -43.2 108.38 C-43.34 106.85, -43.35 104.98, -42.28 102.98 C-41.2 100.98, -39.51 99.36, -36.77 96.37 C-34.03 93.38, -28.61 87.78, -25.83 85.05 C-23.04 82.32, -21.57 80.75, -20.06 80 C-18.56 79.24, -17.41 79.88, -16.78 80.51 C-16.15 81.15, -15.27 82.01, -16.28 83.8 C-17.29 85.58, -19.95 88.03, -22.84 91.24 C-25.73 94.45, -31.48 100.61, -33.64 103.06 C-35.8 105.51, -35.46 105.01, -35.79 105.94 C-36.12 106.88, -36.49 107.3, -35.63 108.65 C-34.76 110.01, -32.35 112.02, -30.59 114.07 C-28.83 116.12, -26.48 119.25, -25.07 120.95 C-23.65 122.65, -22.98 124.02, -22.09 124.29 C-21.2 124.56, -20.61 123.38, -19.74 122.55 C-18.87 121.72, -17.31 120.33, -16.87 119.28 C-16.42 118.23, -16.8 117.25, -17.07 116.26 C-17.34 115.28, -18.28 114.73, -18.48 113.37 C-18.69 112.01, -18.76 109.67, -18.31 108.09 C-17.86 106.51, -16.9 105.09, -15.78 103.89 C-14.67 102.69, -12.91 101.6, -11.61 100.88 C-10.31 100.17, -8.58 99.81, -7.97 99.59 M0 0 C-0.02 4.16, -0.12 11.56, -0.14 24.98 C-0.16 38.41, -0.14 69.35, -0.14 80.53 C-0.14 91.71, -0.14 88.92, -0.14 92.06 C-0.14 95.19, -0.39 98.03, -0.14 99.35 C0.11 100.67, 0.38 99.44, 1.37 100 C2.35 100.56, 4.46 101.5, 5.76 102.71 C7.06 103.93, 8.31 105.51, 9.17 107.28 C10.03 109.05, 10.83 111.33, 10.93 113.34 C11.03 115.35, 9.82 118, 9.77 119.33 C9.72 120.66, 10.03 120.49, 10.62 121.31 C11.21 122.12, 12.4 124.22, 13.31 124.22 C14.23 124.22, 14.42 123.39, 16.12 121.31 C17.82 119.23, 21.69 114.09, 23.53 111.74 C25.37 109.39, 26.46 108.2, 27.16 107.21 C27.86 106.23, 28.02 106.52, 27.72 105.83 C27.42 105.13, 27.44 105.32, 25.37 103.05 C23.3 100.79, 18.02 95.16, 15.3 92.24 C12.58 89.32, 10.23 87.29, 9.04 85.53 C7.86 83.77, 7.91 82.53, 8.2 81.66 C8.49 80.8, 9.83 80.45, 10.78 80.34 C11.72 80.23, 12.62 80.11, 13.88 80.99 C15.14 81.87, 15.54 82.6, 18.35 85.64 C21.16 88.68, 28.01 96.14, 30.75 99.23 C33.49 102.31, 34.06 102.52, 34.77 104.15 C35.48 105.78, 35.64 107.14, 34.99 109.03 C34.33 110.91, 33.54 112.02, 30.84 115.46 C28.14 118.91, 21.73 126.48, 18.78 129.7 C15.83 132.93, 15.33 133.44, 13.11 134.81 C10.9 136.18, 6.81 136.69, 5.48 137.93 C4.16 139.18, 4.79 141.62, 5.16 142.27 C5.54 142.92, 5.65 142.71, 7.76 141.86 C9.87 141.01, 14.28 138.48, 17.83 137.14 C21.38 135.8, 26.5 134.64, 29.07 133.82 C31.64 133, 31.91 132.31, 33.25 132.22 C34.59 132.14, 35.14 132.17, 37.12 133.31 C39.11 134.44, 42.67 137.34, 45.15 139.02 C47.63 140.69, 51.32 142.25, 51.99 143.36 C52.66 144.48, 49.72 144.76, 49.2 145.72 C48.68 146.67, 50.6 149.6, 48.86 149.1 C47.13 148.6, 41.33 144.53, 38.81 142.73 C36.29 140.94, 35.67 138.68, 33.75 138.33 C31.83 137.98, 30.74 139.23, 27.3 140.63 C23.86 142.03, 16.04 145.47, 13.1 146.74 C10.15 148, 9.32 147.6, 9.64 148.21 C9.96 148.83, 11.17 148.96, 15.04 150.44 C18.91 151.91, 29.22 155.35, 32.87 157.06 C36.52 158.77, 36.01 159.59, 36.92 160.69 C37.84 161.79, 38.06 162.27, 38.34 163.65 C38.62 165.04, 39.18 166.61, 38.61 169 C38.05 171.4, 36.29 174.58, 34.94 178.03 C33.59 181.49, 31.73 186.89, 30.52 189.74 C29.31 192.59, 28.76 194.03, 27.66 195.13 C26.57 196.24, 24.96 196.61, 23.95 196.38 C22.93 196.15, 21.61 195.37, 21.55 193.74 C21.48 192.12, 22.29 190.29, 23.54 186.64 C24.79 182.99, 27.59 175.53, 29.04 171.86 C30.49 168.19, 32.07 165.92, 32.24 164.61 C32.42 163.29, 32.02 164.64, 30.1 163.98 C28.17 163.32, 23.84 161.76, 20.7 160.65 C17.56 159.53, 13.03 157.53, 11.25 157.29 C9.46 157.04, 10.45 157.84, 10.01 159.17 C9.56 160.5, 9.45 163.21, 8.59 165.27 C7.72 167.33, 6.72 170.1, 4.82 171.54 C2.92 172.99, -0.4 173.85, -2.82 173.95 C-5.25 174.05, -7.78 172.98, -9.72 172.14 C-11.67 171.29, -13.23 170.81, -14.5 168.88 C-15.77 166.95, -16.74 162.58, -17.35 160.55 C-17.97 158.52, -17.61 157.25, -18.19 156.71 C-18.78 156.16, -18.4 156.42, -20.87 157.27 C-23.35 158.12, -29.92 160.63, -33.04 161.81 C-36.16 162.99, -38.45 163.53, -39.6 164.37 C-40.76 165.21, -40.66 164.9, -39.98 166.83 C-39.31 168.76, -37.21 172.46, -35.53 175.95 C-33.85 179.45, -31.09 184.96, -29.91 187.81 C-28.73 190.66, -28.48 191.69, -28.46 193.06 C-28.45 194.42, -29.07 195.4, -29.82 195.99 C-30.57 196.57, -32.11 196.88, -32.97 196.57 C-33.84 196.26, -33.97 195.88, -35.01 194.13 C-36.05 192.39, -37.42 189.84, -39.23 186.08 C-41.04 182.33, -44.41 175.02, -45.85 171.59 C-47.28 168.15, -47.79 167.31, -47.84 165.47 C-47.89 163.62, -47.12 161.89, -46.13 160.51 C-45.14 159.13, -44.71 158.6, -41.9 157.2 C-39.1 155.79, -32.73 153.42, -29.29 152.07 C-25.85 150.72, -23.01 149.73, -21.24 149.09 C-19.47 148.46, -18.6 148.67, -18.68 148.25 C-18.77 147.84, -20.25 147.24, -21.75 146.62 C-23.25 145.99, -25.31 145.39, -27.7 144.52 C-30.09 143.65, -33.74 142.34, -36.07 141.41 C-38.4 140.47, -40.27 139.31, -41.67 138.89 C-43.08 138.47, -43.16 138.25, -44.51 138.89 C-45.85 139.53, -47.65 141.41, -49.73 142.74 C-51.82 144.08, -55.25 146.2, -57.01 146.91 C-58.78 147.63, -59.63 147.6, -60.3 147.02 C-60.98 146.45, -62.53 145.17, -61.05 143.45 C-59.57 141.72, -54.12 138.65, -51.44 136.65 C-48.76 134.66, -46.9 132.22, -44.98 131.45 C-43.06 130.68, -41.4 131.52, -39.91 132.01 C-38.43 132.5, -38.83 133.28, -36.04 134.38 C-33.25 135.48, -26.37 137.51, -23.18 138.61 C-19.99 139.71, -18.44 140.35, -16.9 141 C-15.35 141.64, -14.41 142.92, -13.92 142.47 C-13.42 142.01, -13.3 139.26, -13.91 138.28 C-14.52 137.29, -15.74 137.66, -17.58 136.57 C-19.43 135.48, -22.07 134.35, -24.97 131.73 C-27.86 129.11, -32.22 124.13, -34.96 120.87 C-37.71 117.61, -40.08 114.25, -41.45 112.17 C-42.83 110.09, -43.07 109.91, -43.2 108.38 C-43.34 106.85, -43.35 104.98, -42.28 102.98 C-41.2 100.98, -39.51 99.36, -36.77 96.37 C-34.03 93.38, -28.61 87.78, -25.83 85.05 C-23.04 82.32, -21.57 80.75, -20.06 80 C-18.56 79.24, -17.41 79.88, -16.78 80.51 C-16.15 81.15, -15.27 82.01, -16.28 83.8 C-17.29 85.58, -19.95 88.03, -22.84 91.24 C-25.73 94.45, -31.48 100.61, -33.64 103.06 C-35.8 105.51, -35.46 105.01, -35.79 105.94 C-36.12 106.88, -36.49 107.3, -35.63 108.65 C-34.76 110.01, -32.35 112.02, -30.59 114.07 C-28.83 116.12, -26.48 119.25, -25.07 120.95 C-23.65 122.65, -22.98 124.02, -22.09 124.29 C-21.2 124.56, -20.61 123.38, -19.74 122.55 C-18.87 121.72, -17.31 120.33, -16.87 119.28 C-16.42 118.23, -16.8 117.25, -17.07 116.26 C-17.34 115.28, -18.28 114.73, -18.48 113.37 C-18.69 112.01, -18.76 109.67, -18.31 108.09 C-17.86 106.51, -16.9 105.09, -15.78 103.89 C-14.67 102.69, -12.91 101.6, -11.61 100.88 C-10.31 100.17, -8.58 99.81, -7.97 99.59" stroke="#FFFFFF" stroke-width="2" fill="none"></path></g></g><mask></mask><g stroke-linecap="round"><g transform="translate(199.94284845384254 128.85562902189577) rotate(0 -0.5418148922203727 -50.813728244856975)"><path d="M0 0 C-0.18 -16.94, -0.9 -84.69, -1.08 -101.63 M0 0 C-0.18 -16.94, -0.9 -84.69, -1.08 -101.63" stroke="#FFFFFF" stroke-width="2" fill="none"></path></g></g><mask></mask><g stroke-linecap="round"><g transform="translate(198.91960716550602 27.228172532181816) rotate(0 118.41027057676456 174.8425197493607)"><path d="M0 0 C-1.66 -0.36, -7.32 -1.41, -9.95 -2.15 C-12.58 -2.88, -14.65 -3.2, -15.77 -4.4 C-16.89 -5.61, -16.92 -7.79, -16.68 -9.38 C-16.44 -10.97, -15.85 -12.88, -14.31 -13.93 C-12.77 -14.98, -11.26 -15.17, -7.43 -15.7 C-3.61 -16.24, 2.21 -16.98, 8.65 -17.13 C15.09 -17.28, 23.06 -17.36, 31.2 -16.58 C39.35 -15.8, 47.75 -14.47, 57.54 -12.45 C67.33 -10.42, 78.39 -8.38, 89.96 -4.45 C101.52 -0.52, 114.74 4.6, 126.94 11.11 C139.13 17.62, 153.12 26.98, 163.14 34.59 C173.16 42.2, 179.16 48.34, 187.08 56.76 C194.99 65.18, 203.4 74.74, 210.65 85.1 C217.9 95.46, 225.25 108.25, 230.58 118.91 C235.92 129.57, 239.63 139.81, 242.67 149.06 C245.71 158.31, 247.01 163.31, 248.81 174.39 C250.62 185.48, 252.98 204.18, 253.5 215.6 C254.02 227.03, 253.36 231.77, 251.91 242.95 C250.45 254.13, 248.54 269.03, 244.77 282.68 C240.99 296.33, 234.32 313.68, 229.25 324.84 C224.17 336, 218.89 342.62, 214.31 349.62 C209.74 356.61, 203.87 363.95, 201.78 366.82 M0 0 C-1.66 -0.36, -7.32 -1.41, -9.95 -2.15 C-12.58 -2.88, -14.65 -3.2, -15.77 -4.4 C-16.89 -5.61, -16.92 -7.79, -16.68 -9.38 C-16.44 -10.97, -15.85 -12.88, -14.31 -13.93 C-12.77 -14.98, -11.26 -15.17, -7.43 -15.7 C-3.61 -16.24, 2.21 -16.98, 8.65 -17.13 C15.09 -17.28, 23.06 -17.36, 31.2 -16.58 C39.35 -15.8, 47.75 -14.47, 57.54 -12.45 C67.33 -10.42, 78.39 -8.38, 89.96 -4.45 C101.52 -0.52, 114.74 4.6, 126.94 11.11 C139.13 17.62, 153.12 26.98, 163.14 34.59 C173.16 42.2, 179.16 48.34, 187.08 56.76 C194.99 65.18, 203.4 74.74, 210.65 85.1 C217.9 95.46, 225.25 108.25, 230.58 118.91 C235.92 129.57, 239.63 139.81, 242.67 149.06 C245.71 158.31, 247.01 163.31, 248.81 174.39 C250.62 185.48, 252.98 204.18, 253.5 215.6 C254.02 227.03, 253.36 231.77, 251.91 242.95 C250.45 254.13, 248.54 269.03, 244.77 282.68 C240.99 296.33, 234.32 313.68, 229.25 324.84 C224.17 336, 218.89 342.62, 214.31 349.62 C209.74 356.61, 203.87 363.95, 201.78 366.82" stroke="#FFFFFF" stroke-width="2" fill="none"></path></g></g><mask></mask><g stroke-linecap="round"><g transform="translate(400.5830644759585 394.10286991780595) rotate(0 -5.226459898963867 -2.4225189314620366)"><path d="M0 0 C-0.78 -0.52, -2.92 -2.33, -4.66 -3.13 C-6.4 -3.94, -9.49 -4.56, -10.45 -4.85 M0 0 C-0.78 -0.52, -2.92 -2.33, -4.66 -3.13 C-6.4 -3.94, -9.49 -4.56, -10.45 -4.85" stroke="#FFFFFF" stroke-width="2" fill="none"></path></g></g><mask></mask><g stroke-linecap="round"><g transform="translate(390.1746439155686 389.27250213319076) rotate(0 -56.27270888502221 -182.3987071485194)"><path d="M0 0 C0.1 -0.25, -0.71 0.46, 0.58 -1.49 C1.88 -3.43, 4.97 -7.42, 7.77 -11.68 C10.57 -15.93, 14.5 -22, 17.39 -27.02 C20.28 -32.04, 22.47 -36.19, 25.12 -41.77 C27.76 -47.36, 30.45 -52.67, 33.27 -60.54 C36.08 -68.41, 39.65 -79.13, 41.99 -89 C44.33 -98.88, 46.23 -110.33, 47.31 -119.81 C48.39 -129.3, 48.72 -136.2, 48.46 -145.92 C48.21 -155.64, 47.57 -167.49, 45.77 -178.16 C43.96 -188.83, 40.84 -199.87, 37.65 -209.93 C34.46 -219.98, 31.36 -228.84, 26.62 -238.48 C21.88 -248.12, 15.39 -258.72, 9.2 -267.75 C3.01 -276.78, -3.4 -284.85, -10.53 -292.67 C-17.65 -300.48, -25.89 -308.25, -33.55 -314.64 C-41.2 -321.03, -47.99 -325.8, -56.46 -331 C-64.93 -336.21, -72.87 -341.09, -84.35 -345.85 C-95.82 -350.6, -112.54 -356.37, -125.32 -359.53 C-138.1 -362.69, -156.2 -364.57, -161.01 -364.8 C-165.82 -365.03, -155.34 -361.57, -154.2 -360.92 M0 0 C0.1 -0.25, -0.71 0.46, 0.58 -1.49 C1.88 -3.43, 4.97 -7.42, 7.77 -11.68 C10.57 -15.93, 14.5 -22, 17.39 -27.02 C20.28 -32.04, 22.47 -36.19, 25.12 -41.77 C27.76 -47.36, 30.45 -52.67, 33.27 -60.54 C36.08 -68.41, 39.65 -79.13, 41.99 -89 C44.33 -98.88, 46.23 -110.33, 47.31 -119.81 C48.39 -129.3, 48.72 -136.2, 48.46 -145.92 C48.21 -155.64, 47.57 -167.49, 45.77 -178.16 C43.96 -188.83, 40.84 -199.87, 37.65 -209.93 C34.46 -219.98, 31.36 -228.84, 26.62 -238.48 C21.88 -248.12, 15.39 -258.72, 9.2 -267.75 C3.01 -276.78, -3.4 -284.85, -10.53 -292.67 C-17.65 -300.48, -25.89 -308.25, -33.55 -314.64 C-41.2 -321.03, -47.99 -325.8, -56.46 -331 C-64.93 -336.21, -72.87 -341.09, -84.35 -345.85 C-95.82 -350.6, -112.54 -356.37, -125.32 -359.53 C-138.1 -362.69, -156.2 -364.57, -161.01 -364.8 C-165.82 -365.03, -155.34 -361.57, -154.2 -360.92" stroke="#FFFFFF" stroke-width="2" fill="none"></path></g></g><mask></mask><g stroke-linecap="round"><g transform="translate(235.78820679719502 28.434541971810177) rotate(0 -39.98329843177248 224.2969398022551)"><path d="M0 0 C2.24 1.2, 7.77 3.6, 13.43 7.2 C19.1 10.8, 27.42 16.3, 33.98 21.61 C40.55 26.92, 46.37 32.61, 52.82 39.05 C59.28 45.48, 66.85 53.11, 72.7 60.21 C78.55 67.31, 83.2 73.73, 87.94 81.64 C92.68 89.55, 97.36 99.47, 101.14 107.69 C104.93 115.91, 107.97 121.86, 110.66 130.97 C113.35 140.09, 116.01 152.49, 117.29 162.36 C118.57 172.23, 118.53 180.3, 118.32 190.2 C118.12 200.11, 118.34 209.52, 116.04 221.8 C113.73 234.07, 108.92 251.69, 104.5 263.87 C100.08 276.06, 95.89 284.55, 89.54 294.9 C83.19 305.25, 74.17 317.07, 66.4 325.97 C58.63 334.88, 50.8 341.72, 42.94 348.33 C35.08 354.94, 28.86 360.18, 19.24 365.63 C9.63 371.08, -3.61 377.04, -14.75 381.04 C-25.88 385.04, -36.73 387.73, -47.57 389.64 C-58.41 391.55, -67.27 392.61, -79.79 392.49 C-92.31 392.36, -108.89 392, -122.67 388.9 C-136.45 385.8, -150.72 379.32, -162.48 373.91 C-174.23 368.49, -187.21 359.88, -193.18 356.4 C-199.15 352.91, -198.49 352.19, -198.29 353 C-198.09 353.82, -194.85 357.5, -192 361.29 C-189.15 365.09, -184.41 371.64, -181.2 375.78 C-177.98 379.91, -177.02 381.85, -172.73 386.11 C-168.44 390.37, -161.91 396.3, -155.44 401.34 C-148.98 406.37, -142.56 411.25, -133.95 416.32 C-125.33 421.39, -113.03 427.64, -103.74 431.75 C-94.45 435.87, -86.99 438.64, -78.19 441.01 C-69.39 443.38, -61.54 444.74, -50.93 445.99 C-40.31 447.23, -23.54 448.05, -14.51 448.49 C-5.47 448.92, 0.3 448.58, 3.26 448.59 M0 0 C2.24 1.2, 7.77 3.6, 13.43 7.2 C19.1 10.8, 27.42 16.3, 33.98 21.61 C40.55 26.92, 46.37 32.61, 52.82 39.05 C59.28 45.48, 66.85 53.11, 72.7 60.21 C78.55 67.31, 83.2 73.73, 87.94 81.64 C92.68 89.55, 97.36 99.47, 101.14 107.69 C104.93 115.91, 107.97 121.86, 110.66 130.97 C113.35 140.09, 116.01 152.49, 117.29 162.36 C118.57 172.23, 118.53 180.3, 118.32 190.2 C118.12 200.11, 118.34 209.52, 116.04 221.8 C113.73 234.07, 108.92 251.69, 104.5 263.87 C100.08 276.06, 95.89 284.55, 89.54 294.9 C83.19 305.25, 74.17 317.07, 66.4 325.97 C58.63 334.88, 50.8 341.72, 42.94 348.33 C35.08 354.94, 28.86 360.18, 19.24 365.63 C9.63 371.08, -3.61 377.04, -14.75 381.04 C-25.88 385.04, -36.73 387.73, -47.57 389.64 C-58.41 391.55, -67.27 392.61, -79.79 392.49 C-92.31 392.36, -108.89 392, -122.67 388.9 C-136.45 385.8, -150.72 379.32, -162.48 373.91 C-174.23 368.49, -187.21 359.88, -193.18 356.4 C-199.15 352.91, -198.49 352.19, -198.29 353 C-198.09 353.82, -194.85 357.5, -192 361.29 C-189.15 365.09, -184.41 371.64, -181.2 375.78 C-177.98 379.91, -177.02 381.85, -172.73 386.11 C-168.44 390.37, -161.91 396.3, -155.44 401.34 C-148.98 406.37, -142.56 411.25, -133.95 416.32 C-125.33 421.39, -113.03 427.64, -103.74 431.75 C-94.45 435.87, -86.99 438.64, -78.19 441.01 C-69.39 443.38, -61.54 444.74, -50.93 445.99 C-40.31 447.23, -23.54 448.05, -14.51 448.49 C-5.47 448.92, 0.3 448.58, 3.26 448.59" stroke="#FFFFFF" stroke-width="2" fill="none"></path></g></g><mask></mask><g stroke-linecap="round"><g transform="translate(239.24985627555952 476.9012808976395) rotate(0 -0.5251888034699732 6.271947479800929)"><path d="M0 0 C-0.18 1.12, -0.98 4.65, -1.05 6.74 C-1.12 8.83, -0.54 11.58, -0.43 12.54 M0 0 C-0.18 1.12, -0.98 4.65, -1.05 6.74 C-1.12 8.83, -0.54 11.58, -0.43 12.54" stroke="#FFFFFF" stroke-width="2" fill="none"></path></g></g><mask></mask><g stroke-linecap="round"><g transform="translate(238.73004650080293 489.44028583113777) rotate(0 -63.022411915093244 -229.186476902717)"><path d="M0 0 C-2.53 0.25, -8.9 1.31, -15.19 1.5 C-21.48 1.69, -28.66 2, -37.75 1.11 C-46.84 0.22, -59.5 -1.66, -69.74 -3.83 C-79.98 -6, -89.37 -8.42, -99.19 -11.93 C-109.01 -15.44, -118.9 -19.83, -128.67 -24.89 C-138.45 -29.95, -149.13 -36.09, -157.85 -42.3 C-166.57 -48.51, -173.46 -54.63, -181.01 -62.16 C-188.56 -69.69, -196.8 -79.13, -203.13 -87.47 C-209.46 -95.8, -214.94 -104.73, -218.99 -112.16 C-223.04 -119.6, -225.88 -127.48, -227.44 -132.08 C-228.99 -136.68, -228.95 -137.7, -228.33 -139.77 C-227.71 -141.84, -225.29 -144.05, -223.74 -144.5 C-222.18 -144.95, -221.52 -144.65, -218.99 -142.48 C-216.45 -140.31, -213.4 -135.8, -208.53 -131.47 C-203.67 -127.14, -196.86 -121.45, -189.79 -116.52 C-182.72 -111.6, -174.34 -106.25, -166.1 -101.91 C-157.87 -97.58, -150.44 -93.71, -140.36 -90.51 C-130.28 -87.32, -117.73 -84.1, -105.64 -82.73 C-93.55 -81.36, -79.84 -81.27, -67.79 -82.28 C-55.75 -83.28, -44.84 -85.34, -33.38 -88.78 C-21.92 -92.21, -10 -97.04, 0.98 -102.87 C11.96 -108.71, 23.49 -116.68, 32.5 -123.8 C41.52 -130.91, 47.71 -136.85, 55.07 -145.56 C62.44 -154.26, 70.55 -164.96, 76.71 -176.02 C82.88 -187.09, 88.13 -200.76, 92.08 -211.92 C96.02 -223.09, 98.68 -231.42, 100.38 -243.02 C102.08 -254.62, 102.85 -269.19, 102.29 -281.53 C101.72 -293.86, 99.74 -305.82, 96.97 -317.05 C94.2 -328.27, 90.72 -337.95, 85.64 -348.89 C80.56 -359.84, 73.15 -373.03, 66.52 -382.72 C59.89 -392.41, 54.55 -398.17, 45.86 -407.05 C37.17 -415.93, 24.13 -428.56, 14.39 -436 C4.65 -443.44, -5 -447.73, -12.57 -451.7 C-20.13 -455.68, -27.94 -458.51, -31.01 -459.87 M0 0 C-2.53 0.25, -8.9 1.31, -15.19 1.5 C-21.48 1.69, -28.66 2, -37.75 1.11 C-46.84 0.22, -59.5 -1.66, -69.74 -3.83 C-79.98 -6, -89.37 -8.42, -99.19 -11.93 C-109.01 -15.44, -118.9 -19.83, -128.67 -24.89 C-138.45 -29.95, -149.13 -36.09, -157.85 -42.3 C-166.57 -48.51, -173.46 -54.63, -181.01 -62.16 C-188.56 -69.69, -196.8 -79.13, -203.13 -87.47 C-209.46 -95.8, -214.94 -104.73, -218.99 -112.16 C-223.04 -119.6, -225.88 -127.48, -227.44 -132.08 C-228.99 -136.68, -228.95 -137.7, -228.33 -139.77 C-227.71 -141.84, -225.29 -144.05, -223.74 -144.5 C-222.18 -144.95, -221.52 -144.65, -218.99 -142.48 C-216.45 -140.31, -213.4 -135.8, -208.53 -131.47 C-203.67 -127.14, -196.86 -121.45, -189.79 -116.52 C-182.72 -111.6, -174.34 -106.25, -166.1 -101.91 C-157.87 -97.58, -150.44 -93.71, -140.36 -90.51 C-130.28 -87.32, -117.73 -84.1, -105.64 -82.73 C-93.55 -81.36, -79.84 -81.27, -67.79 -82.28 C-55.75 -83.28, -44.84 -85.34, -33.38 -88.78 C-21.92 -92.21, -10 -97.04, 0.98 -102.87 C11.96 -108.71, 23.49 -116.68, 32.5 -123.8 C41.52 -130.91, 47.71 -136.85, 55.07 -145.56 C62.44 -154.26, 70.55 -164.96, 76.71 -176.02 C82.88 -187.09, 88.13 -200.76, 92.08 -211.92 C96.02 -223.09, 98.68 -231.42, 100.38 -243.02 C102.08 -254.62, 102.85 -269.19, 102.29 -281.53 C101.72 -293.86, 99.74 -305.82, 96.97 -317.05 C94.2 -328.27, 90.72 -337.95, 85.64 -348.89 C80.56 -359.84, 73.15 -373.03, 66.52 -382.72 C59.89 -392.41, 54.55 -398.17, 45.86 -407.05 C37.17 -415.93, 24.13 -428.56, 14.39 -436 C4.65 -443.44, -5 -447.73, -12.57 -451.7 C-20.13 -455.68, -27.94 -458.51, -31.01 -459.87" stroke="#FFFFFF" stroke-width="2" fill="none"></path></g></g><mask></mask><g stroke-linecap="round"><g transform="translate(318.7850901511292 438.49191714892186) rotate(0 58.23428288425134 35.84066207300066)"><path d="M0 0 C0.59 -1.66, 1.92 -6.86, 3.54 -9.97 C5.17 -13.09, 7.04 -16.18, 9.74 -18.69 C12.43 -21.21, 15.48 -23.38, 19.7 -25.06 C23.92 -26.74, 28.81 -28.43, 35.06 -28.78 C41.31 -29.14, 50.44 -28.88, 57.2 -27.18 C63.96 -25.48, 71.15 -22.38, 75.63 -18.58 C80.12 -14.79, 82.09 -7.95, 84.11 -4.39 C86.13 -0.83, 86.33 1.59, 87.75 2.75 C89.16 3.92, 90.33 2.88, 92.59 2.58 C94.85 2.28, 97.19 1.1, 101.32 0.96 C105.44 0.81, 112.81 0.27, 117.35 1.71 C121.89 3.14, 125.99 6.85, 128.56 9.58 C131.12 12.31, 131.69 15.89, 132.73 18.09 C133.78 20.29, 134.1 21.82, 134.81 22.78 C135.53 23.75, 134.04 22.99, 137 23.89 C139.97 24.78, 148.16 26.34, 152.6 28.16 C157.05 29.98, 160.72 31.98, 163.67 34.82 C166.62 37.66, 169.17 41.2, 170.29 45.2 C171.41 49.19, 171.74 54.51, 170.38 58.78 C169.01 63.05, 166.52 66.83, 162.11 70.84 C157.7 74.85, 150.61 80.06, 143.91 82.85 C137.21 85.63, 129.21 86.75, 121.9 87.55 C114.59 88.34, 106.95 88.15, 100.05 87.62 C93.15 87.09, 85.92 85.51, 80.49 84.37 C75.07 83.23, 70.35 80.89, 67.48 80.77 C64.62 80.65, 65.95 81.4, 63.3 83.67 C60.64 85.94, 55.14 91.8, 51.58 94.38 C48.02 96.96, 45.78 98.11, 41.95 99.13 C38.11 100.14, 33.03 100.93, 28.58 100.47 C24.12 100, 19.31 98.81, 15.21 96.32 C11.11 93.83, 6.79 88.38, 3.99 85.52 C1.19 82.66, 0.06 80.09, -1.61 79.15 C-3.27 78.22, -3.08 79.32, -5.98 79.91 C-8.89 80.49, -14.62 82.46, -19.03 82.65 C-23.43 82.85, -27.88 82.97, -32.44 81.08 C-36.99 79.18, -42.87 75.2, -46.35 71.28 C-49.83 67.36, -52.05 62.97, -53.31 57.54 C-54.57 52.12, -55.39 44.97, -53.91 38.72 C-52.42 32.46, -48.19 24.75, -44.38 20.02 C-40.56 15.29, -36.47 12.38, -31.02 10.33 C-25.56 8.28, -16.44 8.21, -11.65 7.71 C-6.85 7.2, -4.19 8.6, -2.25 7.32 C-0.31 6.04, -0.37 1.22, 0 0 M0 0 C0.59 -1.66, 1.92 -6.86, 3.54 -9.97 C5.17 -13.09, 7.04 -16.18, 9.74 -18.69 C12.43 -21.21, 15.48 -23.38, 19.7 -25.06 C23.92 -26.74, 28.81 -28.43, 35.06 -28.78 C41.31 -29.14, 50.44 -28.88, 57.2 -27.18 C63.96 -25.48, 71.15 -22.38, 75.63 -18.58 C80.12 -14.79, 82.09 -7.95, 84.11 -4.39 C86.13 -0.83, 86.33 1.59, 87.75 2.75 C89.16 3.92, 90.33 2.88, 92.59 2.58 C94.85 2.28, 97.19 1.1, 101.32 0.96 C105.44 0.81, 112.81 0.27, 117.35 1.71 C121.89 3.14, 125.99 6.85, 128.56 9.58 C131.12 12.31, 131.69 15.89, 132.73 18.09 C133.78 20.29, 134.1 21.82, 134.81 22.78 C135.53 23.75, 134.04 22.99, 137 23.89 C139.97 24.78, 148.16 26.34, 152.6 28.16 C157.05 29.98, 160.72 31.98, 163.67 34.82 C166.62 37.66, 169.17 41.2, 170.29 45.2 C171.41 49.19, 171.74 54.51, 170.38 58.78 C169.01 63.05, 166.52 66.83, 162.11 70.84 C157.7 74.85, 150.61 80.06, 143.91 82.85 C137.21 85.63, 129.21 86.75, 121.9 87.55 C114.59 88.34, 106.95 88.15, 100.05 87.62 C93.15 87.09, 85.92 85.51, 80.49 84.37 C75.07 83.23, 70.35 80.89, 67.48 80.77 C64.62 80.65, 65.95 81.4, 63.3 83.67 C60.64 85.94, 55.14 91.8, 51.58 94.38 C48.02 96.96, 45.78 98.11, 41.95 99.13 C38.11 100.14, 33.03 100.93, 28.58 100.47 C24.12 100, 19.31 98.81, 15.21 96.32 C11.11 93.83, 6.79 88.38, 3.99 85.52 C1.19 82.66, 0.06 80.09, -1.61 79.15 C-3.27 78.22, -3.08 79.32, -5.98 79.91 C-8.89 80.49, -14.62 82.46, -19.03 82.65 C-23.43 82.85, -27.88 82.97, -32.44 81.08 C-36.99 79.18, -42.87 75.2, -46.35 71.28 C-49.83 67.36, -52.05 62.97, -53.31 57.54 C-54.57 52.12, -55.39 44.97, -53.91 38.72 C-52.42 32.46, -48.19 24.75, -44.38 20.02 C-40.56 15.29, -36.47 12.38, -31.02 10.33 C-25.56 8.28, -16.44 8.21, -11.65 7.71 C-6.85 7.2, -4.19 8.6, -2.25 7.32 C-0.31 6.04, -0.37 1.22, 0 0" stroke="#FFFFFF" stroke-width="2" fill="none"></path></g></g><mask></mask><g stroke-linecap="round"><g transform="translate(305.92136903145774 431.97415820603055) rotate(0 71.3447427266799 42.60603625276235)"><path d="M0 0 C0.88 -2.12, 2.78 -8.71, 5.26 -12.73 C7.75 -16.75, 10.61 -20.79, 14.92 -24.11 C19.23 -27.43, 25.43 -30.58, 31.13 -32.63 C36.82 -34.67, 42.05 -35.95, 49.09 -36.37 C56.13 -36.8, 65.84 -36.99, 73.37 -35.19 C80.9 -33.39, 88.98 -29.11, 94.29 -25.58 C99.59 -22.06, 102.94 -17.3, 105.22 -14.04 C107.51 -10.78, 106.77 -7.37, 108.01 -6.04 C109.25 -4.7, 109.23 -5.97, 112.63 -6.04 C116.04 -6.1, 124.07 -6.9, 128.43 -6.42 C132.79 -5.94, 134.86 -5.34, 138.8 -3.17 C142.73 -0.99, 149.14 3.24, 152.03 6.63 C154.92 10.03, 154.61 15.19, 156.13 17.2 C157.65 19.21, 159.03 18.2, 161.16 18.68 C163.29 19.15, 165.4 18.76, 168.9 20.05 C172.41 21.34, 178.17 23.25, 182.2 26.44 C186.22 29.63, 190.43 34.27, 193.04 39.21 C195.64 44.15, 197.27 50.96, 197.81 56.08 C198.35 61.21, 198.62 64.57, 196.27 69.95 C193.93 75.32, 189.05 83.38, 183.74 88.35 C178.42 93.31, 171.27 96.71, 164.39 99.73 C157.51 102.75, 150.85 105.13, 142.45 106.46 C134.05 107.78, 122.63 108.05, 113.99 107.69 C105.35 107.33, 95.62 105.06, 90.59 104.29 C85.57 103.53, 85.8 102.62, 83.84 103.11 C81.87 103.61, 81.66 105.07, 78.78 107.26 C75.91 109.45, 71.65 113.86, 66.6 116.25 C61.55 118.64, 54.63 120.98, 48.5 121.58 C42.36 122.19, 35.25 121.81, 29.8 119.89 C24.34 117.97, 19.66 113.07, 15.78 110.05 C11.89 107.03, 8.76 103.12, 6.49 101.76 C4.22 100.41, 5.14 101.63, 2.18 101.92 C-0.79 102.21, -5.9 104, -11.32 103.52 C-16.74 103.04, -24.81 101.93, -30.35 99.04 C-35.89 96.15, -40.7 91.06, -44.56 86.17 C-48.41 81.28, -51.72 76.23, -53.48 69.72 C-55.24 63.21, -56.33 54.91, -55.12 47.13 C-53.91 39.35, -50.2 29.47, -46.22 23.03 C-42.23 16.59, -36.43 12.03, -31.21 8.48 C-26 4.93, -19.13 3.13, -14.94 1.74 C-10.74 0.35, -8.55 0.43, -6.06 0.14 C-3.57 -0.15, -1.01 0.02, 0 0 M0 0 C0.88 -2.12, 2.78 -8.71, 5.26 -12.73 C7.75 -16.75, 10.61 -20.79, 14.92 -24.11 C19.23 -27.43, 25.43 -30.58, 31.13 -32.63 C36.82 -34.67, 42.05 -35.95, 49.09 -36.37 C56.13 -36.8, 65.84 -36.99, 73.37 -35.19 C80.9 -33.39, 88.98 -29.11, 94.29 -25.58 C99.59 -22.06, 102.94 -17.3, 105.22 -14.04 C107.51 -10.78, 106.77 -7.37, 108.01 -6.04 C109.25 -4.7, 109.23 -5.97, 112.63 -6.04 C116.04 -6.1, 124.07 -6.9, 128.43 -6.42 C132.79 -5.94, 134.86 -5.34, 138.8 -3.17 C142.73 -0.99, 149.14 3.24, 152.03 6.63 C154.92 10.03, 154.61 15.19, 156.13 17.2 C157.65 19.21, 159.03 18.2, 161.16 18.68 C163.29 19.15, 165.4 18.76, 168.9 20.05 C172.41 21.34, 178.17 23.25, 182.2 26.44 C186.22 29.63, 190.43 34.27, 193.04 39.21 C195.64 44.15, 197.27 50.96, 197.81 56.08 C198.35 61.21, 198.62 64.57, 196.27 69.95 C193.93 75.32, 189.05 83.38, 183.74 88.35 C178.42 93.31, 171.27 96.71, 164.39 99.73 C157.51 102.75, 150.85 105.13, 142.45 106.46 C134.05 107.78, 122.63 108.05, 113.99 107.69 C105.35 107.33, 95.62 105.06, 90.59 104.29 C85.57 103.53, 85.8 102.62, 83.84 103.11 C81.87 103.61, 81.66 105.07, 78.78 107.26 C75.91 109.45, 71.65 113.86, 66.6 116.25 C61.55 118.64, 54.63 120.98, 48.5 121.58 C42.36 122.19, 35.25 121.81, 29.8 119.89 C24.34 117.97, 19.66 113.07, 15.78 110.05 C11.89 107.03, 8.76 103.12, 6.49 101.76 C4.22 100.41, 5.14 101.63, 2.18 101.92 C-0.79 102.21, -5.9 104, -11.32 103.52 C-16.74 103.04, -24.81 101.93, -30.35 99.04 C-35.89 96.15, -40.7 91.06, -44.56 86.17 C-48.41 81.28, -51.72 76.23, -53.48 69.72 C-55.24 63.21, -56.33 54.91, -55.12 47.13 C-53.91 39.35, -50.2 29.47, -46.22 23.03 C-42.23 16.59, -36.43 12.03, -31.21 8.48 C-26 4.93, -19.13 3.13, -14.94 1.74 C-10.74 0.35, -8.55 0.43, -6.06 0.14 C-3.57 -0.15, -1.01 0.02, 0 0" stroke="#FFFFFF" stroke-width="2" fill="none"></path></g></g><mask></mask></svg>