<svg version="1.1" xmlns="http://www.w3.org/2000/svg" viewBox="0 0 199.36442092280674 260.08359502047495" width="199.36442092280674" height="260.08359502047495" class="excalidraw-svg"><!-- svg-source:excalidraw --><metadata></metadata><defs><style class="style-fonts">
      </style></defs><rect x="0" y="0" width="199.36442092280674" height="260.08359502047495" fill="#000000"></rect><g stroke-linecap="round"><g transform="translate(188.8232367384215 44.70668541577447) rotate(0 -89.17637358013356 85.35315162544974)"><path d="M0 0 C-0.81 -1.72, -1.7 -6.83, -4.88 -10.34 C-8.07 -13.85, -11.69 -17.61, -19.1 -21.08 C-26.52 -24.55, -37.81 -28.89, -49.35 -31.15 C-60.89 -33.42, -75.79 -34.44, -88.35 -34.65 C-100.92 -34.86, -113.01 -34.5, -124.74 -32.42 C-136.46 -30.33, -150.63 -25.84, -158.71 -22.13 C-166.79 -18.42, -169.94 -14.31, -173.23 -10.18 C-176.51 -6.04, -177.52 -4.41, -178.4 2.69 C-179.28 9.8, -178.52 18.34, -178.5 32.44 C-178.48 46.53, -178.33 69.65, -178.28 87.24 C-178.24 104.83, -178.24 124.4, -178.23 137.97 C-178.23 151.53, -178.96 161.69, -178.26 168.63 C-177.56 175.58, -176.98 175.88, -174.02 179.62 C-171.06 183.36, -167.12 187.55, -160.49 191.09 C-153.86 194.64, -146.18 198.53, -134.22 200.91 C-122.27 203.28, -104.57 205.59, -88.76 205.36 C-72.95 205.13, -52.47 202.64, -39.36 199.51 C-26.24 196.37, -16.58 191.22, -10.07 186.57 C-3.56 181.92, -1.97 178.8, -0.29 171.61 C1.39 164.41, -0.01 157.29, 0.02 143.4 C0.05 129.51, -0.13 107.88, -0.11 88.27 C-0.09 68.65, 0.12 40.42, 0.14 25.71 C0.16 11, 0.02 4.29, 0 0 M0 0 C-0.81 -1.72, -1.7 -6.83, -4.88 -10.34 C-8.07 -13.85, -11.69 -17.61, -19.1 -21.08 C-26.52 -24.55, -37.81 -28.89, -49.35 -31.15 C-60.89 -33.42, -75.79 -34.44, -88.35 -34.65 C-100.92 -34.86, -113.01 -34.5, -124.74 -32.42 C-136.46 -30.33, -150.63 -25.84, -158.71 -22.13 C-166.79 -18.42, -169.94 -14.31, -173.23 -10.18 C-176.51 -6.04, -177.52 -4.41, -178.4 2.69 C-179.28 9.8, -178.52 18.34, -178.5 32.44 C-178.48 46.53, -178.33 69.65, -178.28 87.24 C-178.24 104.83, -178.24 124.4, -178.23 137.97 C-178.23 151.53, -178.96 161.69, -178.26 168.63 C-177.56 175.58, -176.98 175.88, -174.02 179.62 C-171.06 183.36, -167.12 187.55, -160.49 191.09 C-153.86 194.64, -146.18 198.53, -134.22 200.91 C-122.27 203.28, -104.57 205.59, -88.76 205.36 C-72.95 205.13, -52.47 202.64, -39.36 199.51 C-26.24 196.37, -16.58 191.22, -10.07 186.57 C-3.56 181.92, -1.97 178.8, -0.29 171.61 C1.39 164.41, -0.01 157.29, 0.02 143.4 C0.05 129.51, -0.13 107.88, -0.11 88.27 C-0.09 68.65, 0.12 40.42, 0.14 25.71 C0.16 11, 0.02 4.29, 0 0" stroke="#E1E1E1" stroke-width="4" fill="none"></path></g></g><mask></mask><g stroke-linecap="round"><g transform="translate(150.73402088430234 58.70443780784694) rotate(0 -51.50057208413388 -11.126132913844117)"><path d="M0 0 C2.32 -1.09, 11.02 -4.74, 13.92 -6.54 C16.82 -8.33, 17.18 -9.49, 17.39 -10.79 C17.61 -12.08, 17.74 -12.6, 15.2 -14.33 C12.65 -16.05, 8.91 -18.87, 2.11 -21.14 C-4.69 -23.42, -15.51 -26.5, -25.61 -28 C-35.72 -29.51, -47.8 -30.44, -58.53 -30.18 C-69.26 -29.93, -81.57 -28.15, -89.98 -26.45 C-98.4 -24.75, -103.95 -22.3, -109.02 -19.98 C-114.09 -17.66, -118.57 -14.51, -120.39 -12.55 C-122.22 -10.58, -122.45 -10.22, -119.99 -8.21 C-117.54 -6.2, -112.85 -2.94, -105.67 -0.48 C-98.48 1.98, -86.43 5.16, -76.86 6.56 C-67.3 7.96, -58.28 8.24, -48.27 7.93 C-38.25 7.62, -24.82 6.04, -16.78 4.71 C-8.73 3.39, -2.8 0.79, 0 0 M0 0 C2.32 -1.09, 11.02 -4.74, 13.92 -6.54 C16.82 -8.33, 17.18 -9.49, 17.39 -10.79 C17.61 -12.08, 17.74 -12.6, 15.2 -14.33 C12.65 -16.05, 8.91 -18.87, 2.11 -21.14 C-4.69 -23.42, -15.51 -26.5, -25.61 -28 C-35.72 -29.51, -47.8 -30.44, -58.53 -30.18 C-69.26 -29.93, -81.57 -28.15, -89.98 -26.45 C-98.4 -24.75, -103.95 -22.3, -109.02 -19.98 C-114.09 -17.66, -118.57 -14.51, -120.39 -12.55 C-122.22 -10.58, -122.45 -10.22, -119.99 -8.21 C-117.54 -6.2, -112.85 -2.94, -105.67 -0.48 C-98.48 1.98, -86.43 5.16, -76.86 6.56 C-67.3 7.96, -58.28 8.24, -48.27 7.93 C-38.25 7.62, -24.82 6.04, -16.78 4.71 C-8.73 3.39, -2.8 0.79, 0 0" stroke="#E1E1E1" stroke-width="4" fill="none"></path></g></g><mask></mask><g stroke-linecap="round"><g transform="translate(142.98427402410547 115.5769658898696) rotate(0 -43.198458269213916 -18.478872355169543)"><path d="M0 0 C3.01 -1.13, 13.8 -4.66, 18.08 -6.8 C22.36 -8.94, 24.33 -10.7, 25.69 -12.83 C27.04 -14.96, 26.14 -15.76, 26.19 -19.57 C26.25 -23.37, 26.07 -31.96, 26.02 -35.67 C25.97 -39.38, 26.79 -41.02, 25.87 -41.84 C24.96 -42.66, 23.94 -41.89, 20.51 -40.6 C17.07 -39.3, 10.97 -35.76, 5.25 -34.07 C-0.46 -32.38, -5.75 -31.37, -13.8 -30.47 C-21.84 -29.58, -32.76 -28.65, -43.01 -28.7 C-53.27 -28.74, -66.76 -29.69, -75.33 -30.73 C-83.9 -31.78, -89.21 -33.5, -94.46 -34.96 C-99.71 -36.43, -103.81 -38.47, -106.83 -39.54 C-109.85 -40.6, -111.63 -42.09, -112.59 -41.36 C-113.55 -40.63, -112.66 -39.06, -112.59 -35.15 C-112.52 -31.24, -112.29 -21.76, -112.14 -17.91 C-112 -14.06, -112.99 -13.93, -111.71 -12.06 C-110.43 -10.2, -108.41 -8.63, -104.46 -6.73 C-100.51 -4.82, -94.73 -2.37, -88.01 -0.63 C-81.3 1.11, -72.14 2.81, -64.15 3.73 C-56.15 4.65, -48.37 5.03, -40.06 4.88 C-31.75 4.74, -20.95 3.7, -14.27 2.88 C-7.59 2.07, -2.38 0.48, 0 0 M0 0 C3.01 -1.13, 13.8 -4.66, 18.08 -6.8 C22.36 -8.94, 24.33 -10.7, 25.69 -12.83 C27.04 -14.96, 26.14 -15.76, 26.19 -19.57 C26.25 -23.37, 26.07 -31.96, 26.02 -35.67 C25.97 -39.38, 26.79 -41.02, 25.87 -41.84 C24.96 -42.66, 23.94 -41.89, 20.51 -40.6 C17.07 -39.3, 10.97 -35.76, 5.25 -34.07 C-0.46 -32.38, -5.75 -31.37, -13.8 -30.47 C-21.84 -29.58, -32.76 -28.65, -43.01 -28.7 C-53.27 -28.74, -66.76 -29.69, -75.33 -30.73 C-83.9 -31.78, -89.21 -33.5, -94.46 -34.96 C-99.71 -36.43, -103.81 -38.47, -106.83 -39.54 C-109.85 -40.6, -111.63 -42.09, -112.59 -41.36 C-113.55 -40.63, -112.66 -39.06, -112.59 -35.15 C-112.52 -31.24, -112.29 -21.76, -112.14 -17.91 C-112 -14.06, -112.99 -13.93, -111.71 -12.06 C-110.43 -10.2, -108.41 -8.63, -104.46 -6.73 C-100.51 -4.82, -94.73 -2.37, -88.01 -0.63 C-81.3 1.11, -72.14 2.81, -64.15 3.73 C-56.15 4.65, -48.37 5.03, -40.06 4.88 C-31.75 4.74, -20.95 3.7, -14.27 2.88 C-7.59 2.07, -2.38 0.48, 0 0" stroke="#E1E1E1" stroke-width="4" fill="none"></path></g></g><mask></mask><g stroke-linecap="round"><g transform="translate(142.3594066986751 170.49052123477873) rotate(0 -43.198458269213916 -18.478872355169543)"><path d="M0 0 C3.01 -1.13, 13.8 -4.66, 18.08 -6.8 C22.36 -8.94, 24.33 -10.7, 25.69 -12.83 C27.04 -14.96, 26.14 -15.76, 26.19 -19.57 C26.25 -23.37, 26.07 -31.96, 26.02 -35.67 C25.97 -39.38, 26.79 -41.02, 25.87 -41.84 C24.96 -42.66, 23.94 -41.89, 20.51 -40.6 C17.07 -39.3, 10.97 -35.76, 5.25 -34.07 C-0.46 -32.38, -5.75 -31.37, -13.8 -30.47 C-21.84 -29.58, -32.76 -28.65, -43.01 -28.7 C-53.27 -28.74, -66.76 -29.69, -75.33 -30.73 C-83.9 -31.78, -89.21 -33.5, -94.46 -34.96 C-99.71 -36.43, -103.81 -38.47, -106.83 -39.54 C-109.85 -40.6, -111.63 -42.09, -112.59 -41.36 C-113.55 -40.63, -112.66 -39.06, -112.59 -35.15 C-112.52 -31.24, -112.29 -21.76, -112.14 -17.91 C-112 -14.06, -112.99 -13.93, -111.71 -12.06 C-110.43 -10.2, -108.41 -8.63, -104.46 -6.73 C-100.51 -4.82, -94.73 -2.37, -88.01 -0.63 C-81.3 1.11, -72.14 2.81, -64.15 3.73 C-56.15 4.65, -48.37 5.03, -40.06 4.88 C-31.75 4.74, -20.95 3.7, -14.27 2.88 C-7.59 2.07, -2.38 0.48, 0 0 M0 0 C3.01 -1.13, 13.8 -4.66, 18.08 -6.8 C22.36 -8.94, 24.33 -10.7, 25.69 -12.83 C27.04 -14.96, 26.14 -15.76, 26.19 -19.57 C26.25 -23.37, 26.07 -31.96, 26.02 -35.67 C25.97 -39.38, 26.79 -41.02, 25.87 -41.84 C24.96 -42.66, 23.94 -41.89, 20.51 -40.6 C17.07 -39.3, 10.97 -35.76, 5.25 -34.07 C-0.46 -32.38, -5.75 -31.37, -13.8 -30.47 C-21.84 -29.58, -32.76 -28.65, -43.01 -28.7 C-53.27 -28.74, -66.76 -29.69, -75.33 -30.73 C-83.9 -31.78, -89.21 -33.5, -94.46 -34.96 C-99.71 -36.43, -103.81 -38.47, -106.83 -39.54 C-109.85 -40.6, -111.63 -42.09, -112.59 -41.36 C-113.55 -40.63, -112.66 -39.06, -112.59 -35.15 C-112.52 -31.24, -112.29 -21.76, -112.14 -17.91 C-112 -14.06, -112.99 -13.93, -111.71 -12.06 C-110.43 -10.2, -108.41 -8.63, -104.46 -6.73 C-100.51 -4.82, -94.73 -2.37, -88.01 -0.63 C-81.3 1.11, -72.14 2.81, -64.15 3.73 C-56.15 4.65, -48.37 5.03, -40.06 4.88 C-31.75 4.74, -20.95 3.7, -14.27 2.88 C-7.59 2.07, -2.38 0.48, 0 0" stroke="#E1E1E1" stroke-width="4" fill="none"></path></g></g><mask></mask><g stroke-linecap="round"><g transform="translate(142.44175231204858 224.77261346235923) rotate(0 -43.198458269213916 -18.478872355169546)"><path d="M0 0 C3.01 -1.13, 13.8 -4.66, 18.08 -6.8 C22.36 -8.94, 24.33 -10.7, 25.69 -12.83 C27.04 -14.96, 26.14 -15.76, 26.19 -19.57 C26.25 -23.37, 26.07 -31.96, 26.02 -35.67 C25.97 -39.38, 26.79 -41.02, 25.87 -41.84 C24.96 -42.66, 23.94 -41.89, 20.51 -40.6 C17.07 -39.3, 10.97 -35.76, 5.25 -34.07 C-0.46 -32.38, -5.75 -31.37, -13.8 -30.47 C-21.84 -29.58, -32.76 -28.65, -43.01 -28.7 C-53.27 -28.74, -66.76 -29.69, -75.33 -30.73 C-83.9 -31.78, -89.21 -33.5, -94.46 -34.96 C-99.71 -36.43, -103.81 -38.47, -106.83 -39.54 C-109.85 -40.6, -111.63 -42.09, -112.59 -41.36 C-113.55 -40.63, -112.66 -39.06, -112.59 -35.15 C-112.52 -31.24, -112.29 -21.76, -112.14 -17.91 C-112 -14.06, -112.99 -13.93, -111.71 -12.06 C-110.43 -10.2, -108.41 -8.63, -104.46 -6.73 C-100.51 -4.82, -94.73 -2.37, -88.01 -0.63 C-81.3 1.11, -72.14 2.81, -64.15 3.73 C-56.15 4.65, -48.37 5.03, -40.06 4.88 C-31.75 4.74, -20.95 3.7, -14.27 2.88 C-7.59 2.07, -2.38 0.48, 0 0 M0 0 C3.01 -1.13, 13.8 -4.66, 18.08 -6.8 C22.36 -8.94, 24.33 -10.7, 25.69 -12.83 C27.04 -14.96, 26.14 -15.76, 26.19 -19.57 C26.25 -23.37, 26.07 -31.96, 26.02 -35.67 C25.97 -39.38, 26.79 -41.02, 25.87 -41.84 C24.96 -42.66, 23.94 -41.89, 20.51 -40.6 C17.07 -39.3, 10.97 -35.76, 5.25 -34.07 C-0.46 -32.38, -5.75 -31.37, -13.8 -30.47 C-21.84 -29.58, -32.76 -28.65, -43.01 -28.7 C-53.27 -28.74, -66.76 -29.69, -75.33 -30.73 C-83.9 -31.78, -89.21 -33.5, -94.46 -34.96 C-99.71 -36.43, -103.81 -38.47, -106.83 -39.54 C-109.85 -40.6, -111.63 -42.09, -112.59 -41.36 C-113.55 -40.63, -112.66 -39.06, -112.59 -35.15 C-112.52 -31.24, -112.29 -21.76, -112.14 -17.91 C-112 -14.06, -112.99 -13.93, -111.71 -12.06 C-110.43 -10.2, -108.41 -8.63, -104.46 -6.73 C-100.51 -4.82, -94.73 -2.37, -88.01 -0.63 C-81.3 1.11, -72.14 2.81, -64.15 3.73 C-56.15 4.65, -48.37 5.03, -40.06 4.88 C-31.75 4.74, -20.95 3.7, -14.27 2.88 C-7.59 2.07, -2.38 0.48, 0 0" stroke="#E1E1E1" stroke-width="4" fill="none"></path></g></g><mask></mask></svg>