<svg version="1.1" xmlns="http://www.w3.org/2000/svg" viewBox="0 0 822.0169424571865 459.5024751463953" width="822.0169424571865" height="459.5024751463953" class="excalidraw-svg"><!-- svg-source:excalidraw --><metadata></metadata><defs><style class="style-fonts">
      </style></defs><rect x="0" y="0" width="822.0169424571865" height="459.5024751463953" fill="#000000"></rect><g stroke-linecap="round"><g transform="translate(96.04401467668308 323.02479126292747) rotate(0 -24.057788857715423 -35.58273553487743)"><path d="M0 0 C-2.17 -1.11, -8.53 -3.78, -13.03 -6.65 C-17.53 -9.53, -22.71 -13.08, -27 -17.27 C-31.28 -21.45, -35.21 -26.02, -38.73 -31.75 C-42.25 -37.49, -46.58 -45.11, -48.12 -51.68 C-49.65 -58.25, -47.96 -67.92, -47.93 -71.17 M0 0 C-2.17 -1.11, -8.53 -3.78, -13.03 -6.65 C-17.53 -9.53, -22.71 -13.08, -27 -17.27 C-31.28 -21.45, -35.21 -26.02, -38.73 -31.75 C-42.25 -37.49, -46.58 -45.11, -48.12 -51.68 C-49.65 -58.25, -47.96 -67.92, -47.93 -71.17" stroke="#E1E1E1" stroke-width="4" fill="none"></path></g></g><mask></mask><g stroke-linecap="round"><g transform="translate(84.63888134882822 273.0031752271025) rotate(0 -37.28298756827553 -43.48767277245497)"><path d="M0 0 C-3.32 -2.03, -13.43 -8.17, -19.9 -12.21 C-26.37 -16.24, -31.16 -18.3, -38.82 -24.22 C-46.49 -30.14, -59.92 -41.4, -65.88 -47.73 C-71.84 -54.06, -73.93 -57.23, -74.57 -62.21 C-75.21 -67.2, -71.47 -73.52, -69.72 -77.65 C-67.97 -81.77, -65.03 -85.42, -64.09 -86.98 M0 0 C-3.32 -2.03, -13.43 -8.17, -19.9 -12.21 C-26.37 -16.24, -31.16 -18.3, -38.82 -24.22 C-46.49 -30.14, -59.92 -41.4, -65.88 -47.73 C-71.84 -54.06, -73.93 -57.23, -74.57 -62.21 C-75.21 -67.2, -71.47 -73.52, -69.72 -77.65 C-67.97 -81.77, -65.03 -85.42, -64.09 -86.98" stroke="#E1E1E1" stroke-width="4" fill="none"></path></g></g><mask></mask><g stroke-linecap="round"><g transform="translate(98.03785514618161 247.19483102139202) rotate(0 -42.88952063160377 -54.59464463559743)"><path d="M0 0 C-4.04 -2.12, -15.34 -7.2, -24.22 -12.7 C-33.09 -18.21, -44.86 -25.94, -53.23 -33.03 C-61.59 -40.12, -68.98 -48.05, -74.41 -55.27 C-79.83 -62.48, -84.13 -70.17, -85.78 -76.31 C-87.43 -82.44, -86.31 -87.39, -84.3 -92.06 C-82.29 -96.74, -77.3 -101.49, -73.73 -104.35 C-70.16 -107.2, -64.69 -108.38, -62.88 -109.19 M0 0 C-4.04 -2.12, -15.34 -7.2, -24.22 -12.7 C-33.09 -18.21, -44.86 -25.94, -53.23 -33.03 C-61.59 -40.12, -68.98 -48.05, -74.41 -55.27 C-79.83 -62.48, -84.13 -70.17, -85.78 -76.31 C-87.43 -82.44, -86.31 -87.39, -84.3 -92.06 C-82.29 -96.74, -77.3 -101.49, -73.73 -104.35 C-70.16 -107.2, -64.69 -108.38, -62.88 -109.19" stroke="#E1E1E1" stroke-width="4" fill="none"></path></g></g><mask></mask><g stroke-linecap="round"><g transform="translate(142.14197217388377 242.28522751667333) rotate(0 -3.8276249380141962 -16.38150305012732)"><path d="M0 0 C-4.6 -3.22, -18.36 -12.02, -27.6 -19.32 C-36.84 -26.63, -45.96 -34.54, -55.45 -43.84 C-64.94 -53.14, -76.24 -65.08, -84.56 -75.15 C-92.87 -85.21, -101.13 -97.38, -105.34 -104.23 C-109.55 -111.08, -109.78 -111.73, -109.81 -116.24 C-109.84 -120.75, -108.65 -127.52, -105.53 -131.28 C-102.41 -135.04, -96.29 -138, -91.07 -138.81 C-85.86 -139.62, -79.56 -138.7, -74.24 -136.12 C-68.93 -133.54, -64.03 -129.11, -59.17 -123.33 C-54.31 -117.55, -50.59 -108.27, -45.08 -101.45 C-39.57 -94.63, -33.57 -88.81, -26.09 -82.4 C-18.61 -75.98, -10.24 -68.69, -0.18 -62.96 C9.88 -57.23, 23.66 -53.09, 34.26 -48.01 C44.85 -42.94, 54.56 -39.31, 63.39 -32.53 C72.23 -25.76, 81.26 -16.24, 87.27 -7.37 C93.27 1.5, 96.95 10.34, 99.43 20.68 C101.91 31.03, 102.76 44.17, 102.15 54.7 C101.54 65.22, 98.88 75.99, 95.78 83.81 C92.68 91.63, 88.61 97.93, 83.54 101.64 C78.47 105.35, 72.67 105.89, 65.35 106.05 C58.04 106.21, 50.18 104.19, 39.67 102.59 C29.16 101, 12.81 98.95, 2.31 96.47 C-8.19 93.99, -19.04 89.18, -23.32 87.73 M0 0 C-4.6 -3.22, -18.36 -12.02, -27.6 -19.32 C-36.84 -26.63, -45.96 -34.54, -55.45 -43.84 C-64.94 -53.14, -76.24 -65.08, -84.56 -75.15 C-92.87 -85.21, -101.13 -97.38, -105.34 -104.23 C-109.55 -111.08, -109.78 -111.73, -109.81 -116.24 C-109.84 -120.75, -108.65 -127.52, -105.53 -131.28 C-102.41 -135.04, -96.29 -138, -91.07 -138.81 C-85.86 -139.62, -79.56 -138.7, -74.24 -136.12 C-68.93 -133.54, -64.03 -129.11, -59.17 -123.33 C-54.31 -117.55, -50.59 -108.27, -45.08 -101.45 C-39.57 -94.63, -33.57 -88.81, -26.09 -82.4 C-18.61 -75.98, -10.24 -68.69, -0.18 -62.96 C9.88 -57.23, 23.66 -53.09, 34.26 -48.01 C44.85 -42.94, 54.56 -39.31, 63.39 -32.53 C72.23 -25.76, 81.26 -16.24, 87.27 -7.37 C93.27 1.5, 96.95 10.34, 99.43 20.68 C101.91 31.03, 102.76 44.17, 102.15 54.7 C101.54 65.22, 98.88 75.99, 95.78 83.81 C92.68 91.63, 88.61 97.93, 83.54 101.64 C78.47 105.35, 72.67 105.89, 65.35 106.05 C58.04 106.21, 50.18 104.19, 39.67 102.59 C29.16 101, 12.81 98.95, 2.31 96.47 C-8.19 93.99, -19.04 89.18, -23.32 87.73" stroke="#E1E1E1" stroke-width="4" fill="none"></path></g></g><mask></mask><g stroke-linecap="round"><g transform="translate(652.0157270027247 161.5093278983477) rotate(0 24.541615283571446 75.93331068788484)"><path d="M0 0 C-4.66 2.22, -19.51 8.22, -27.95 13.33 C-36.38 18.44, -44.32 23.34, -50.61 30.67 C-56.89 38, -61.85 47.86, -65.65 57.31 C-69.46 66.77, -72.86 77.12, -73.44 87.38 C-74.03 97.64, -71.57 109.82, -69.15 118.88 C-66.73 127.94, -63.37 136.25, -58.94 141.75 C-54.5 147.25, -51.94 150.72, -42.55 151.87 C-33.16 153.01, -16.66 150.88, -2.6 148.62 C11.45 146.36, 27.77 142.75, 41.77 138.3 C55.77 133.86, 70.04 127.94, 81.42 121.98 C92.8 116.02, 103.26 110.54, 110.07 102.54 C116.88 94.53, 120.22 81.54, 122.29 73.95 C124.37 66.37, 122.49 59.84, 122.53 57.01 M0 0 C-4.66 2.22, -19.51 8.22, -27.95 13.33 C-36.38 18.44, -44.32 23.34, -50.61 30.67 C-56.89 38, -61.85 47.86, -65.65 57.31 C-69.46 66.77, -72.86 77.12, -73.44 87.38 C-74.03 97.64, -71.57 109.82, -69.15 118.88 C-66.73 127.94, -63.37 136.25, -58.94 141.75 C-54.5 147.25, -51.94 150.72, -42.55 151.87 C-33.16 153.01, -16.66 150.88, -2.6 148.62 C11.45 146.36, 27.77 142.75, 41.77 138.3 C55.77 133.86, 70.04 127.94, 81.42 121.98 C92.8 116.02, 103.26 110.54, 110.07 102.54 C116.88 94.53, 120.22 81.54, 122.29 73.95 C124.37 66.37, 122.49 59.84, 122.53 57.01" stroke="#E1E1E1" stroke-width="4" fill="none"></path></g></g><mask></mask><g stroke-linecap="round"><g transform="translate(738.618774826842 236.7502820562222) rotate(0 36.475390717554546 -43.955950901072356)"><path d="M0 0 C4.16 -1.83, 17.37 -6.62, 24.97 -10.98 C32.57 -15.33, 39.48 -20.89, 45.59 -26.13 C51.71 -31.37, 57.28 -37.59, 61.64 -42.43 C65.99 -47.27, 69.86 -50.67, 71.74 -55.18 C73.63 -59.68, 73.71 -65.22, 72.95 -69.45 C72.19 -73.69, 69.45 -77.52, 67.2 -80.6 C64.95 -83.67, 60.72 -86.69, 59.43 -87.91 M0 0 C4.16 -1.83, 17.37 -6.62, 24.97 -10.98 C32.57 -15.33, 39.48 -20.89, 45.59 -26.13 C51.71 -31.37, 57.28 -37.59, 61.64 -42.43 C65.99 -47.27, 69.86 -50.67, 71.74 -55.18 C73.63 -59.68, 73.71 -65.22, 72.95 -69.45 C72.19 -73.69, 69.45 -77.52, 67.2 -80.6 C64.95 -83.67, 60.72 -86.69, 59.43 -87.91" stroke="#E1E1E1" stroke-width="4" fill="none"></path></g></g><mask></mask><g stroke-linecap="round"><g transform="translate(725.4585663151737 210.11879270255304) rotate(0 40.46032783940154 -53.02060819155304)"><path d="M0 0 C5.82 -3.37, 25.23 -13.44, 34.95 -20.2 C44.67 -26.96, 52 -33.73, 58.32 -40.58 C64.65 -47.43, 69.12 -55.38, 72.88 -61.3 C76.65 -67.21, 79.67 -70.86, 80.92 -76.08 C82.17 -81.3, 82.19 -88.17, 80.4 -92.64 C78.62 -97.11, 73.91 -100.69, 70.23 -102.92 C66.56 -105.16, 60.35 -105.52, 58.37 -106.04 M0 0 C5.82 -3.37, 25.23 -13.44, 34.95 -20.2 C44.67 -26.96, 52 -33.73, 58.32 -40.58 C64.65 -47.43, 69.12 -55.38, 72.88 -61.3 C76.65 -67.21, 79.67 -70.86, 80.92 -76.08 C82.17 -81.3, 82.19 -88.17, 80.4 -92.64 C78.62 -97.11, 73.91 -100.69, 70.23 -102.92 C66.56 -105.16, 60.35 -105.52, 58.37 -106.04" stroke="#E1E1E1" stroke-width="4" fill="none"></path></g></g><mask></mask><g stroke-linecap="round"><g transform="translate(679.8398622152234 207.0877893466204) rotate(0 48.55367385528916 -68.60274584243962)"><path d="M0 0 C5.84 -4.41, 23.45 -17.03, 35.02 -26.43 C46.6 -35.83, 60.15 -46.81, 69.45 -56.4 C78.74 -65.98, 85.16 -75.56, 90.81 -83.95 C96.45 -92.33, 101.19 -99.64, 103.32 -106.71 C105.45 -113.78, 105.92 -121.29, 103.6 -126.37 C101.27 -131.45, 94.98 -135.69, 89.37 -137.21 C83.76 -138.72, 75.91 -139.29, 69.96 -135.49 C64 -131.68, 59.16 -121.66, 53.64 -114.39 C48.11 -107.11, 42.65 -98.6, 36.82 -91.82 C30.99 -85.03, 25.88 -79.56, 18.67 -73.7 C11.45 -67.85, -2.3 -59.52, -6.49 -56.68 M0 0 C5.84 -4.41, 23.45 -17.03, 35.02 -26.43 C46.6 -35.83, 60.15 -46.81, 69.45 -56.4 C78.74 -65.98, 85.16 -75.56, 90.81 -83.95 C96.45 -92.33, 101.19 -99.64, 103.32 -106.71 C105.45 -113.78, 105.92 -121.29, 103.6 -126.37 C101.27 -131.45, 94.98 -135.69, 89.37 -137.21 C83.76 -138.72, 75.91 -139.29, 69.96 -135.49 C64 -131.68, 59.16 -121.66, 53.64 -114.39 C48.11 -107.11, 42.65 -98.6, 36.82 -91.82 C30.99 -85.03, 25.88 -79.56, 18.67 -73.7 C11.45 -67.85, -2.3 -59.52, -6.49 -56.68" stroke="#E1E1E1" stroke-width="4" fill="none"></path></g></g><mask></mask><g stroke-linecap="round" transform="translate(276.2260164959788 10) rotate(0 123.87141790090209 30.82964017238463)"><path d="M247.74 30.83 C247.74 31.84, 247.54 32.85, 247.15 33.85 C246.75 34.85, 246.15 35.86, 245.36 36.84 C244.57 37.83, 243.58 38.82, 242.41 39.78 C241.23 40.74, 239.86 41.7, 238.31 42.63 C236.76 43.56, 235.02 44.47, 233.12 45.36 C231.21 46.25, 229.12 47.12, 226.87 47.96 C224.62 48.8, 222.19 49.61, 219.63 50.39 C217.06 51.17, 214.32 51.92, 211.46 52.63 C208.6 53.34, 205.58 54.02, 202.45 54.66 C199.33 55.3, 196.06 55.9, 192.69 56.46 C189.33 57.02, 185.83 57.54, 182.26 58.02 C178.69 58.49, 175.01 58.93, 171.27 59.31 C167.54 59.7, 163.7 60.04, 159.83 60.33 C155.96 60.62, 152.01 60.87, 148.04 61.07 C144.07 61.26, 140.04 61.41, 136.01 61.51 C131.99 61.61, 127.92 61.66, 123.87 61.66 C119.82 61.66, 115.76 61.61, 111.73 61.51 C107.7 61.41, 103.67 61.26, 99.71 61.07 C95.74 60.87, 91.79 60.62, 87.91 60.33 C84.04 60.04, 80.21 59.7, 76.47 59.31 C72.73 58.93, 69.05 58.49, 65.48 58.02 C61.91 57.54, 58.42 57.02, 55.05 56.46 C51.69 55.9, 48.42 55.3, 45.29 54.66 C42.16 54.02, 39.14 53.34, 36.28 52.63 C33.42 51.92, 30.69 51.17, 28.12 50.39 C25.55 49.61, 23.12 48.8, 20.88 47.96 C18.63 47.12, 16.53 46.25, 14.63 45.36 C12.72 44.47, 10.98 43.56, 9.43 42.63 C7.88 41.7, 6.51 40.74, 5.33 39.78 C4.16 38.82, 3.17 37.83, 2.38 36.84 C1.59 35.86, 0.99 34.85, 0.6 33.85 C0.2 32.85, 0 31.84, 0 30.83 C0 29.82, 0.2 28.81, 0.6 27.81 C0.99 26.81, 1.59 25.8, 2.38 24.82 C3.17 23.83, 4.16 22.84, 5.33 21.88 C6.51 20.92, 7.88 19.96, 9.43 19.03 C10.98 18.1, 12.72 17.18, 14.63 16.3 C16.53 15.41, 18.63 14.54, 20.88 13.7 C23.12 12.86, 25.55 12.05, 28.12 11.27 C30.69 10.49, 33.42 9.74, 36.28 9.03 C39.14 8.32, 42.16 7.64, 45.29 7 C48.42 6.36, 51.69 5.76, 55.05 5.2 C58.42 4.64, 61.91 4.12, 65.48 3.64 C69.05 3.17, 72.73 2.73, 76.47 2.35 C80.21 1.96, 84.04 1.62, 87.91 1.33 C91.79 1.04, 95.74 0.79, 99.71 0.59 C103.67 0.4, 107.7 0.25, 111.73 0.15 C115.76 0.05, 119.82 0, 123.87 0 C127.92 0, 131.99 0.05, 136.01 0.15 C140.04 0.25, 144.07 0.4, 148.04 0.59 C152.01 0.79, 155.96 1.04, 159.83 1.33 C163.7 1.62, 167.54 1.96, 171.27 2.35 C175.01 2.73, 178.69 3.17, 182.26 3.64 C185.83 4.12, 189.33 4.64, 192.69 5.2 C196.06 5.76, 199.33 6.36, 202.45 7 C205.58 7.64, 208.6 8.32, 211.46 9.03 C214.32 9.74, 217.06 10.49, 219.63 11.27 C222.19 12.05, 224.62 12.86, 226.87 13.7 C229.12 14.54, 231.21 15.41, 233.12 16.3 C235.02 17.18, 236.76 18.1, 238.31 19.03 C239.86 19.96, 241.23 20.92, 242.41 21.88 C243.58 22.84, 244.57 23.83, 245.36 24.82 C246.15 25.8, 246.75 26.81, 247.15 27.81 C247.54 28.81, 247.64 30.33, 247.74 30.83 C247.84 31.33, 247.84 30.33, 247.74 30.83" stroke="#E1E1E1" stroke-width="4" fill="none"></path></g><g stroke-linecap="round" transform="translate(244.63586152317825 120.54635145602333) rotate(0 164.00133927182347 164.47806184518598)"><path d="M328 164.48 C328 168.58, 327.85 172.68, 327.54 176.77 C327.24 180.86, 326.78 184.94, 326.17 188.99 C325.56 193.04, 324.8 197.08, 323.89 201.08 C322.98 205.07, 321.92 209.04, 320.72 212.96 C319.51 216.87, 318.16 220.75, 316.67 224.57 C315.17 228.38, 313.53 232.15, 311.76 235.84 C309.99 239.53, 308.07 243.17, 306.03 246.72 C303.99 250.27, 301.81 253.75, 299.51 257.13 C297.2 260.52, 294.77 263.83, 292.22 267.03 C289.68 270.23, 287 273.35, 284.22 276.35 C281.44 279.35, 278.55 282.26, 275.55 285.05 C272.56 287.84, 269.45 290.52, 266.25 293.07 C263.06 295.63, 259.76 298.07, 256.39 300.38 C253.01 302.68, 249.54 304.87, 246 306.92 C242.46 308.97, 238.84 310.89, 235.16 312.67 C231.48 314.45, 227.72 316.09, 223.92 317.59 C220.11 319.08, 216.25 320.44, 212.34 321.65 C208.44 322.86, 204.48 323.92, 200.5 324.83 C196.51 325.74, 192.48 326.51, 188.44 327.12 C184.4 327.73, 180.33 328.19, 176.26 328.5 C172.18 328.8, 168.09 328.96, 164 328.96 C159.92 328.96, 155.82 328.8, 151.75 328.5 C147.67 328.19, 143.6 327.73, 139.56 327.12 C135.52 326.51, 131.49 325.74, 127.51 324.83 C123.52 323.92, 119.56 322.86, 115.66 321.65 C111.76 320.44, 107.89 319.08, 104.08 317.59 C100.28 316.09, 96.52 314.45, 92.84 312.67 C89.16 310.89, 85.54 308.97, 82 306.92 C78.46 304.87, 74.99 302.68, 71.62 300.38 C68.24 298.07, 64.94 295.63, 61.75 293.07 C58.55 290.52, 55.45 287.84, 52.45 285.05 C49.46 282.26, 46.56 279.35, 43.78 276.35 C41 273.35, 38.33 270.23, 35.78 267.03 C33.23 263.83, 30.8 260.52, 28.5 257.13 C26.2 253.75, 24.01 250.27, 21.97 246.72 C19.93 243.17, 18.01 239.53, 16.24 235.84 C14.47 232.15, 12.83 228.38, 11.34 224.57 C9.84 220.75, 8.49 216.87, 7.29 212.96 C6.08 209.04, 5.02 205.07, 4.11 201.08 C3.2 197.08, 2.44 193.04, 1.83 188.99 C1.22 184.94, 0.76 180.86, 0.46 176.77 C0.15 172.68, 0 168.58, 0 164.48 C0 160.38, 0.15 156.27, 0.46 152.19 C0.76 148.1, 1.22 144.02, 1.83 139.96 C2.44 135.91, 3.2 131.87, 4.11 127.88 C5.02 123.88, 6.08 119.91, 7.29 116 C8.49 112.08, 9.84 108.2, 11.34 104.39 C12.83 100.57, 14.47 96.81, 16.24 93.11 C18.01 89.42, 19.93 85.79, 21.97 82.24 C24.01 78.69, 26.2 75.21, 28.5 71.82 C30.8 68.44, 33.23 65.13, 35.78 61.93 C38.33 58.72, 41 55.61, 43.78 52.6 C46.56 49.6, 49.46 46.69, 52.45 43.91 C55.45 41.12, 58.55 38.44, 61.75 35.88 C64.94 33.33, 68.24 30.89, 71.62 28.58 C74.99 26.27, 78.46 24.08, 82 22.04 C85.54 19.99, 89.16 18.07, 92.84 16.29 C96.52 14.51, 100.28 12.87, 104.08 11.37 C107.89 9.87, 111.76 8.51, 115.66 7.31 C119.56 6.1, 123.52 5.04, 127.51 4.12 C131.49 3.21, 135.52 2.45, 139.56 1.84 C143.6 1.23, 147.67 0.77, 151.75 0.46 C155.82 0.15, 159.92 0, 164 0 C168.09 0, 172.18 0.15, 176.26 0.46 C180.33 0.77, 184.4 1.23, 188.44 1.84 C192.48 2.45, 196.51 3.21, 200.5 4.12 C204.48 5.04, 208.44 6.1, 212.34 7.31 C216.25 8.51, 220.11 9.87, 223.92 11.37 C227.72 12.87, 231.48 14.51, 235.16 16.29 C238.84 18.07, 242.46 19.99, 246 22.04 C249.54 24.08, 253.01 26.27, 256.39 28.58 C259.76 30.89, 263.06 33.33, 266.25 35.88 C269.45 38.44, 272.56 41.12, 275.55 43.91 C278.55 46.69, 281.44 49.6, 284.22 52.6 C287 55.61, 289.68 58.72, 292.22 61.93 C294.77 65.13, 297.2 68.44, 299.51 71.82 C301.81 75.21, 303.99 78.69, 306.03 82.24 C308.07 85.79, 309.99 89.42, 311.76 93.11 C313.53 96.81, 315.17 100.57, 316.67 104.39 C318.16 108.2, 319.51 112.08, 320.72 116 C321.92 119.91, 322.98 123.88, 323.89 127.88 C324.8 131.87, 325.56 135.91, 326.17 139.96 C326.78 144.02, 327.24 148.1, 327.54 152.19 C327.85 156.27, 328 160.38, 328 164.48" stroke="#E1E1E1" stroke-width="4" fill="none"></path></g></svg>