<svg version="1.1" xmlns="http://www.w3.org/2000/svg" viewBox="0 0 491.6771170002389 542.6947287712845" width="491.6771170002389" height="542.6947287712845" class="excalidraw-svg"><!-- svg-source:excalidraw --><metadata></metadata><defs><style class="style-fonts">
      </style></defs><rect x="0" y="0" width="491.6771170002389" height="542.6947287712845" fill="#000000"></rect><g stroke-linecap="round"><g transform="translate(257.52336273657033 238.38353651076875) rotate(82.49491413009318 -32.15562222610146 59.7448940609093)" fill-rule="evenodd"><path d="M0 0 C-2.02 0.51, -9.74 3.46, -12.12 3.07 C-14.51 2.69, -14.3 0.57, -14.33 -2.3 C-14.35 -5.17, -14.44 -11.82, -12.26 -14.15 C-10.07 -16.47, -5.38 -15.46, -1.22 -16.22 C2.93 -16.99, 7.75 -17.98, 12.66 -18.75 C17.57 -19.52, 22.85 -20.32, 28.23 -20.83 C33.62 -21.34, 38.58 -21.9, 44.96 -21.8 C51.35 -21.7, 59.87 -21.2, 66.53 -20.23 C73.19 -19.27, 78 -18.29, 84.9 -16 C91.81 -13.71, 100.5 -10.22, 107.95 -6.48 C115.39 -2.74, 122.28 0.96, 129.57 6.43 C136.87 11.89, 145.83 20.46, 151.7 26.32 C157.56 32.18, 160.16 34.9, 164.77 41.6 C169.38 48.31, 175.33 58.06, 179.35 66.56 C183.37 75.06, 186.52 82.85, 188.88 92.6 C191.24 102.35, 192.87 115.8, 193.51 125.09 C194.16 134.38, 193.47 141.17, 192.72 148.33 C191.98 155.49, 190.69 161.31, 189.06 168.05 C187.42 174.79, 185.96 181.42, 182.92 188.77 C179.87 196.13, 175.27 204.78, 170.78 212.18 C166.3 219.59, 162.24 226.33, 156.02 233.23 C149.79 240.14, 141.72 247.48, 133.44 253.61 C125.15 259.73, 116.29 265.35, 106.3 269.97 C96.31 274.6, 84.2 278.8, 73.52 281.36 C62.84 283.93, 53.8 285.39, 42.23 285.38 C30.66 285.36, 14.9 283.53, 4.12 281.3 C-6.66 279.07, -13.1 276.34, -22.46 272 C-31.82 267.65, -43.45 261.45, -52.03 255.24 C-60.62 249.03, -67.05 242.57, -73.97 234.73 C-80.89 226.9, -88.02 217.9, -93.56 208.24 C-99.09 198.58, -104.01 186.72, -107.18 176.79 C-110.36 166.85, -111.78 158.61, -112.6 148.64 C-113.43 138.67, -113.09 127.93, -112.15 116.94 C-111.21 105.94, -109.43 93.85, -106.97 82.68 C-104.51 71.52, -102.04 64.59, -97.38 49.94 C-92.72 35.3, -83.76 10.38, -79.01 -5.18 C-74.26 -20.73, -70.82 -31.38, -68.88 -43.39 C-66.93 -55.39, -66.01 -66.53, -67.34 -77.19 C-68.67 -87.85, -72.62 -99.3, -76.88 -107.35 C-81.15 -115.4, -87.05 -120.17, -92.94 -125.47 C-98.82 -130.76, -105.49 -135.64, -112.21 -139.12 C-118.93 -142.61, -124.97 -144.85, -133.25 -146.37 C-141.52 -147.9, -153.52 -148.81, -161.88 -148.26 C-170.24 -147.72, -176.08 -146.09, -183.42 -143.09 C-190.75 -140.09, -199.42 -135.25, -205.91 -130.25 C-212.41 -125.25, -217.61 -119.68, -222.39 -113.09 C-227.17 -106.5, -231.71 -98.39, -234.6 -90.71 C-237.48 -83.04, -239.15 -75.96, -239.69 -67.04 C-240.23 -58.13, -239.78 -46.15, -237.82 -37.23 C-235.87 -28.32, -232.17 -20.63, -227.97 -13.53 C-223.76 -6.42, -218.74 -0.08, -212.59 5.38 C-206.44 10.84, -198.44 16, -191.07 19.23 C-183.7 22.46, -177.97 24.15, -168.34 24.78 C-158.71 25.41, -143.57 24.44, -133.31 23.01 C-123.05 21.57, -113.45 17.95, -106.78 16.18 C-100.1 14.4, -97.02 13.52, -93.24 12.38 C-89.47 11.24, -85.45 9.13, -84.11 9.33 C-82.77 9.54, -84.24 10.66, -85.19 13.61 C-86.15 16.55, -88.39 24.35, -89.82 26.99 C-91.25 29.63, -90.03 28.22, -93.75 29.45 C-97.46 30.68, -104.87 32.78, -112.11 34.37 C-119.34 35.97, -129.08 37.95, -137.16 39.02 C-145.24 40.09, -152.09 41.07, -160.56 40.81 C-169.03 40.54, -180.1 39.52, -187.98 37.44 C-195.85 35.37, -201.42 32.25, -207.81 28.35 C-214.2 24.45, -221.1 19.14, -226.34 14.04 C-231.57 8.93, -235.27 3.88, -239.22 -2.27 C-243.17 -8.41, -247.25 -16.06, -250.04 -22.86 C-252.83 -29.65, -254.67 -35.58, -255.97 -43.03 C-257.27 -50.49, -258.4 -59.18, -257.83 -67.56 C-257.26 -75.94, -255.39 -84.88, -252.55 -93.29 C-249.71 -101.71, -245.61 -110.61, -240.79 -118.05 C-235.97 -125.5, -230.55 -131.84, -223.62 -137.95 C-216.69 -144.07, -207.67 -150.35, -199.2 -154.76 C-190.72 -159.16, -180.94 -162.54, -172.76 -164.39 C-164.58 -166.25, -159.5 -166.35, -150.12 -165.89 C-140.75 -165.42, -125.69 -164.12, -116.5 -161.61 C-107.31 -159.1, -101.14 -155.02, -94.98 -150.83 C-88.83 -146.64, -84.17 -141.15, -79.57 -136.48 C-74.97 -131.81, -70.68 -127.18, -67.41 -122.81 C-64.14 -118.43, -62.09 -114.65, -59.94 -110.22 C-57.79 -105.78, -56 -101.58, -54.52 -96.19 C-53.03 -90.81, -51.72 -84.51, -51.05 -77.91 C-50.38 -71.31, -50.03 -63.66, -50.5 -56.59 C-50.97 -49.52, -52.52 -42.56, -53.87 -35.49 C-55.21 -28.43, -56.4 -22.02, -58.59 -14.21 C-60.78 -6.4, -64.07 2.44, -67.02 11.37 C-69.97 20.3, -73.19 29.67, -76.31 39.38 C-79.43 49.09, -83.23 60.94, -85.76 69.63 C-88.29 78.32, -89.86 83.86, -91.49 91.5 C-93.12 99.15, -94.62 107.94, -95.52 115.52 C-96.43 123.09, -96.87 130.53, -96.91 136.94 C-96.95 143.35, -96.69 147.88, -95.74 153.98 C-94.79 160.08, -93.02 167.46, -91.21 173.54 C-89.39 179.62, -88.09 184.06, -84.85 190.45 C-81.6 196.85, -76.59 205.29, -71.76 211.92 C-66.94 218.54, -61.69 224.46, -55.89 230.19 C-50.09 235.92, -43.73 241.54, -36.94 246.28 C-30.15 251.03, -22.95 255.2, -15.16 258.66 C-7.37 262.12, 0.69 265.04, 9.79 267.05 C18.9 269.06, 30.8 270.28, 39.47 270.72 C48.13 271.17, 54.14 270.77, 61.79 269.71 C69.44 268.65, 77.1 267.38, 85.37 264.37 C93.63 261.36, 103.49 256.44, 111.39 251.67 C119.29 246.9, 126.31 241.31, 132.77 235.74 C139.22 230.17, 144.8 224.92, 150.13 218.24 C155.45 211.55, 160.48 204.4, 164.73 195.64 C168.98 186.88, 173.24 175.53, 175.63 165.69 C178.02 155.85, 178.74 145.49, 179.08 136.59 C179.42 127.68, 178.81 119.96, 177.68 112.26 C176.56 104.57, 175.41 98.7, 172.33 90.41 C169.24 82.11, 164.14 70.9, 159.17 62.5 C154.21 54.1, 148.59 46.66, 142.53 40 C136.47 33.34, 129.49 27.71, 122.82 22.53 C116.14 17.36, 109.77 12.77, 102.46 8.97 C95.15 5.18, 87.96 2.15, 78.96 -0.22 C69.96 -2.59, 58.04 -4.59, 48.45 -5.23 C38.86 -5.86, 28.14 -4.56, 21.42 -4.02 C14.7 -3.48, 11.71 -2.67, 8.14 -2 C4.57 -1.33, 1.36 -0.33, 0 0" stroke="none" stroke-width="0" fill="#E1E1E1" fill-rule="evenodd"></path><path d="M0 0 C-2.02 0.51, -9.74 3.46, -12.12 3.07 C-14.51 2.69, -14.3 0.57, -14.33 -2.3 C-14.35 -5.17, -14.44 -11.82, -12.26 -14.15 C-10.07 -16.47, -5.38 -15.46, -1.22 -16.22 C2.93 -16.99, 7.75 -17.98, 12.66 -18.75 C17.57 -19.52, 22.85 -20.32, 28.23 -20.83 C33.62 -21.34, 38.58 -21.9, 44.96 -21.8 C51.35 -21.7, 59.87 -21.2, 66.53 -20.23 C73.19 -19.27, 78 -18.29, 84.9 -16 C91.81 -13.71, 100.5 -10.22, 107.95 -6.48 C115.39 -2.74, 122.28 0.96, 129.57 6.43 C136.87 11.89, 145.83 20.46, 151.7 26.32 C157.56 32.18, 160.16 34.9, 164.77 41.6 C169.38 48.31, 175.33 58.06, 179.35 66.56 C183.37 75.06, 186.52 82.85, 188.88 92.6 C191.24 102.35, 192.87 115.8, 193.51 125.09 C194.16 134.38, 193.47 141.17, 192.72 148.33 C191.98 155.49, 190.69 161.31, 189.06 168.05 C187.42 174.79, 185.96 181.42, 182.92 188.77 C179.87 196.13, 175.27 204.78, 170.78 212.18 C166.3 219.59, 162.24 226.33, 156.02 233.23 C149.79 240.14, 141.72 247.48, 133.44 253.61 C125.15 259.73, 116.29 265.35, 106.3 269.97 C96.31 274.6, 84.2 278.8, 73.52 281.36 C62.84 283.93, 53.8 285.39, 42.23 285.38 C30.66 285.36, 14.9 283.53, 4.12 281.3 C-6.66 279.07, -13.1 276.34, -22.46 272 C-31.82 267.65, -43.45 261.45, -52.03 255.24 C-60.62 249.03, -67.05 242.57, -73.97 234.73 C-80.89 226.9, -88.02 217.9, -93.56 208.24 C-99.09 198.58, -104.01 186.72, -107.18 176.79 C-110.36 166.85, -111.78 158.61, -112.6 148.64 C-113.43 138.67, -113.09 127.93, -112.15 116.94 C-111.21 105.94, -109.43 93.85, -106.97 82.68 C-104.51 71.52, -102.04 64.59, -97.38 49.94 C-92.72 35.3, -83.76 10.38, -79.01 -5.18 C-74.26 -20.73, -70.82 -31.38, -68.88 -43.39 C-66.93 -55.39, -66.01 -66.53, -67.34 -77.19 C-68.67 -87.85, -72.62 -99.3, -76.88 -107.35 C-81.15 -115.4, -87.05 -120.17, -92.94 -125.47 C-98.82 -130.76, -105.49 -135.64, -112.21 -139.12 C-118.93 -142.61, -124.97 -144.85, -133.25 -146.37 C-141.52 -147.9, -153.52 -148.81, -161.88 -148.26 C-170.24 -147.72, -176.08 -146.09, -183.42 -143.09 C-190.75 -140.09, -199.42 -135.25, -205.91 -130.25 C-212.41 -125.25, -217.61 -119.68, -222.39 -113.09 C-227.17 -106.5, -231.71 -98.39, -234.6 -90.71 C-237.48 -83.04, -239.15 -75.96, -239.69 -67.04 C-240.23 -58.13, -239.78 -46.15, -237.82 -37.23 C-235.87 -28.32, -232.17 -20.63, -227.97 -13.53 C-223.76 -6.42, -218.74 -0.08, -212.59 5.38 C-206.44 10.84, -198.44 16, -191.07 19.23 C-183.7 22.46, -177.97 24.15, -168.34 24.78 C-158.71 25.41, -143.57 24.44, -133.31 23.01 C-123.05 21.57, -113.45 17.95, -106.78 16.18 C-100.1 14.4, -97.02 13.52, -93.24 12.38 C-89.47 11.24, -85.45 9.13, -84.11 9.33 C-82.77 9.54, -84.24 10.66, -85.19 13.61 C-86.15 16.55, -88.39 24.35, -89.82 26.99 C-91.25 29.63, -90.03 28.22, -93.75 29.45 C-97.46 30.68, -104.87 32.78, -112.11 34.37 C-119.34 35.97, -129.08 37.95, -137.16 39.02 C-145.24 40.09, -152.09 41.07, -160.56 40.81 C-169.03 40.54, -180.1 39.52, -187.98 37.44 C-195.85 35.37, -201.42 32.25, -207.81 28.35 C-214.2 24.45, -221.1 19.14, -226.34 14.04 C-231.57 8.93, -235.27 3.88, -239.22 -2.27 C-243.17 -8.41, -247.25 -16.06, -250.04 -22.86 C-252.83 -29.65, -254.67 -35.58, -255.97 -43.03 C-257.27 -50.49, -258.4 -59.18, -257.83 -67.56 C-257.26 -75.94, -255.39 -84.88, -252.55 -93.29 C-249.71 -101.71, -245.61 -110.61, -240.79 -118.05 C-235.97 -125.5, -230.55 -131.84, -223.62 -137.95 C-216.69 -144.07, -207.67 -150.35, -199.2 -154.76 C-190.72 -159.16, -180.94 -162.54, -172.76 -164.39 C-164.58 -166.25, -159.5 -166.35, -150.12 -165.89 C-140.75 -165.42, -125.69 -164.12, -116.5 -161.61 C-107.31 -159.1, -101.14 -155.02, -94.98 -150.83 C-88.83 -146.64, -84.17 -141.15, -79.57 -136.48 C-74.97 -131.81, -70.68 -127.18, -67.41 -122.81 C-64.14 -118.43, -62.09 -114.65, -59.94 -110.22 C-57.79 -105.78, -56 -101.58, -54.52 -96.19 C-53.03 -90.81, -51.72 -84.51, -51.05 -77.91 C-50.38 -71.31, -50.03 -63.66, -50.5 -56.59 C-50.97 -49.52, -52.52 -42.56, -53.87 -35.49 C-55.21 -28.43, -56.4 -22.02, -58.59 -14.21 C-60.78 -6.4, -64.07 2.44, -67.02 11.37 C-69.97 20.3, -73.19 29.67, -76.31 39.38 C-79.43 49.09, -83.23 60.94, -85.76 69.63 C-88.29 78.32, -89.86 83.86, -91.49 91.5 C-93.12 99.15, -94.62 107.94, -95.52 115.52 C-96.43 123.09, -96.87 130.53, -96.91 136.94 C-96.95 143.35, -96.69 147.88, -95.74 153.98 C-94.79 160.08, -93.02 167.46, -91.21 173.54 C-89.39 179.62, -88.09 184.06, -84.85 190.45 C-81.6 196.85, -76.59 205.29, -71.76 211.92 C-66.94 218.54, -61.69 224.46, -55.89 230.19 C-50.09 235.92, -43.73 241.54, -36.94 246.28 C-30.15 251.03, -22.95 255.2, -15.16 258.66 C-7.37 262.12, 0.69 265.04, 9.79 267.05 C18.9 269.06, 30.8 270.28, 39.47 270.72 C48.13 271.17, 54.14 270.77, 61.79 269.71 C69.44 268.65, 77.1 267.38, 85.37 264.37 C93.63 261.36, 103.49 256.44, 111.39 251.67 C119.29 246.9, 126.31 241.31, 132.77 235.74 C139.22 230.17, 144.8 224.92, 150.13 218.24 C155.45 211.55, 160.48 204.4, 164.73 195.64 C168.98 186.88, 173.24 175.53, 175.63 165.69 C178.02 155.85, 178.74 145.49, 179.08 136.59 C179.42 127.68, 178.81 119.96, 177.68 112.26 C176.56 104.57, 175.41 98.7, 172.33 90.41 C169.24 82.11, 164.14 70.9, 159.17 62.5 C154.21 54.1, 148.59 46.66, 142.53 40 C136.47 33.34, 129.49 27.71, 122.82 22.53 C116.14 17.36, 109.77 12.77, 102.46 8.97 C95.15 5.18, 87.96 2.15, 78.96 -0.22 C69.96 -2.59, 58.04 -4.59, 48.45 -5.23 C38.86 -5.86, 28.14 -4.56, 21.42 -4.02 C14.7 -3.48, 11.71 -2.67, 8.14 -2 C4.57 -1.33, 1.36 -0.33, 0 0 M0 0 C-2.02 0.51, -9.74 3.46, -12.12 3.07 C-14.51 2.69, -14.3 0.57, -14.33 -2.3 C-14.35 -5.17, -14.44 -11.82, -12.26 -14.15 C-10.07 -16.47, -5.38 -15.46, -1.22 -16.22 C2.93 -16.99, 7.75 -17.98, 12.66 -18.75 C17.57 -19.52, 22.85 -20.32, 28.23 -20.83 C33.62 -21.34, 38.58 -21.9, 44.96 -21.8 C51.35 -21.7, 59.87 -21.2, 66.53 -20.23 C73.19 -19.27, 78 -18.29, 84.9 -16 C91.81 -13.71, 100.5 -10.22, 107.95 -6.48 C115.39 -2.74, 122.28 0.96, 129.57 6.43 C136.87 11.89, 145.83 20.46, 151.7 26.32 C157.56 32.18, 160.16 34.9, 164.77 41.6 C169.38 48.31, 175.33 58.06, 179.35 66.56 C183.37 75.06, 186.52 82.85, 188.88 92.6 C191.24 102.35, 192.87 115.8, 193.51 125.09 C194.16 134.38, 193.47 141.17, 192.72 148.33 C191.98 155.49, 190.69 161.31, 189.06 168.05 C187.42 174.79, 185.96 181.42, 182.92 188.77 C179.87 196.13, 175.27 204.78, 170.78 212.18 C166.3 219.59, 162.24 226.33, 156.02 233.23 C149.79 240.14, 141.72 247.48, 133.44 253.61 C125.15 259.73, 116.29 265.35, 106.3 269.97 C96.31 274.6, 84.2 278.8, 73.52 281.36 C62.84 283.93, 53.8 285.39, 42.23 285.38 C30.66 285.36, 14.9 283.53, 4.12 281.3 C-6.66 279.07, -13.1 276.34, -22.46 272 C-31.82 267.65, -43.45 261.45, -52.03 255.24 C-60.62 249.03, -67.05 242.57, -73.97 234.73 C-80.89 226.9, -88.02 217.9, -93.56 208.24 C-99.09 198.58, -104.01 186.72, -107.18 176.79 C-110.36 166.85, -111.78 158.61, -112.6 148.64 C-113.43 138.67, -113.09 127.93, -112.15 116.94 C-111.21 105.94, -109.43 93.85, -106.97 82.68 C-104.51 71.52, -102.04 64.59, -97.38 49.94 C-92.72 35.3, -83.76 10.38, -79.01 -5.18 C-74.26 -20.73, -70.82 -31.38, -68.88 -43.39 C-66.93 -55.39, -66.01 -66.53, -67.34 -77.19 C-68.67 -87.85, -72.62 -99.3, -76.88 -107.35 C-81.15 -115.4, -87.05 -120.17, -92.94 -125.47 C-98.82 -130.76, -105.49 -135.64, -112.21 -139.12 C-118.93 -142.61, -124.97 -144.85, -133.25 -146.37 C-141.52 -147.9, -153.52 -148.81, -161.88 -148.26 C-170.24 -147.72, -176.08 -146.09, -183.42 -143.09 C-190.75 -140.09, -199.42 -135.25, -205.91 -130.25 C-212.41 -125.25, -217.61 -119.68, -222.39 -113.09 C-227.17 -106.5, -231.71 -98.39, -234.6 -90.71 C-237.48 -83.04, -239.15 -75.96, -239.69 -67.04 C-240.23 -58.13, -239.78 -46.15, -237.82 -37.23 C-235.87 -28.32, -232.17 -20.63, -227.97 -13.53 C-223.76 -6.42, -218.74 -0.08, -212.59 5.38 C-206.44 10.84, -198.44 16, -191.07 19.23 C-183.7 22.46, -177.97 24.15, -168.34 24.78 C-158.71 25.41, -143.57 24.44, -133.31 23.01 C-123.05 21.57, -113.45 17.95, -106.78 16.18 C-100.1 14.4, -97.02 13.52, -93.24 12.38 C-89.47 11.24, -85.45 9.13, -84.11 9.33 C-82.77 9.54, -84.24 10.66, -85.19 13.61 C-86.15 16.55, -88.39 24.35, -89.82 26.99 C-91.25 29.63, -90.03 28.22, -93.75 29.45 C-97.46 30.68, -104.87 32.78, -112.11 34.37 C-119.34 35.97, -129.08 37.95, -137.16 39.02 C-145.24 40.09, -152.09 41.07, -160.56 40.81 C-169.03 40.54, -180.1 39.52, -187.98 37.44 C-195.85 35.37, -201.42 32.25, -207.81 28.35 C-214.2 24.45, -221.1 19.14, -226.34 14.04 C-231.57 8.93, -235.27 3.88, -239.22 -2.27 C-243.17 -8.41, -247.25 -16.06, -250.04 -22.86 C-252.83 -29.65, -254.67 -35.58, -255.97 -43.03 C-257.27 -50.49, -258.4 -59.18, -257.83 -67.56 C-257.26 -75.94, -255.39 -84.88, -252.55 -93.29 C-249.71 -101.71, -245.61 -110.61, -240.79 -118.05 C-235.97 -125.5, -230.55 -131.84, -223.62 -137.95 C-216.69 -144.07, -207.67 -150.35, -199.2 -154.76 C-190.72 -159.16, -180.94 -162.54, -172.76 -164.39 C-164.58 -166.25, -159.5 -166.35, -150.12 -165.89 C-140.75 -165.42, -125.69 -164.12, -116.5 -161.61 C-107.31 -159.1, -101.14 -155.02, -94.98 -150.83 C-88.83 -146.64, -84.17 -141.15, -79.57 -136.48 C-74.97 -131.81, -70.68 -127.18, -67.41 -122.81 C-64.14 -118.43, -62.09 -114.65, -59.94 -110.22 C-57.79 -105.78, -56 -101.58, -54.52 -96.19 C-53.03 -90.81, -51.72 -84.51, -51.05 -77.91 C-50.38 -71.31, -50.03 -63.66, -50.5 -56.59 C-50.97 -49.52, -52.52 -42.56, -53.87 -35.49 C-55.21 -28.43, -56.4 -22.02, -58.59 -14.21 C-60.78 -6.4, -64.07 2.44, -67.02 11.37 C-69.97 20.3, -73.19 29.67, -76.31 39.38 C-79.43 49.09, -83.23 60.94, -85.76 69.63 C-88.29 78.32, -89.86 83.86, -91.49 91.5 C-93.12 99.15, -94.62 107.94, -95.52 115.52 C-96.43 123.09, -96.87 130.53, -96.91 136.94 C-96.95 143.35, -96.69 147.88, -95.74 153.98 C-94.79 160.08, -93.02 167.46, -91.21 173.54 C-89.39 179.62, -88.09 184.06, -84.85 190.45 C-81.6 196.85, -76.59 205.29, -71.76 211.92 C-66.94 218.54, -61.69 224.46, -55.89 230.19 C-50.09 235.92, -43.73 241.54, -36.94 246.28 C-30.15 251.03, -22.95 255.2, -15.16 258.66 C-7.37 262.12, 0.69 265.04, 9.79 267.05 C18.9 269.06, 30.8 270.28, 39.47 270.72 C48.13 271.17, 54.14 270.77, 61.79 269.71 C69.44 268.65, 77.1 267.38, 85.37 264.37 C93.63 261.36, 103.49 256.44, 111.39 251.67 C119.29 246.9, 126.31 241.31, 132.77 235.74 C139.22 230.17, 144.8 224.92, 150.13 218.24 C155.45 211.55, 160.48 204.4, 164.73 195.64 C168.98 186.88, 173.24 175.53, 175.63 165.69 C178.02 155.85, 178.74 145.49, 179.08 136.59 C179.42 127.68, 178.81 119.96, 177.68 112.26 C176.56 104.57, 175.41 98.7, 172.33 90.41 C169.24 82.11, 164.14 70.9, 159.17 62.5 C154.21 54.1, 148.59 46.66, 142.53 40 C136.47 33.34, 129.49 27.71, 122.82 22.53 C116.14 17.36, 109.77 12.77, 102.46 8.97 C95.15 5.18, 87.96 2.15, 78.96 -0.22 C69.96 -2.59, 58.04 -4.59, 48.45 -5.23 C38.86 -5.86, 28.14 -4.56, 21.42 -4.02 C14.7 -3.48, 11.71 -2.67, 8.14 -2 C4.57 -1.33, 1.36 -0.33, 0 0" stroke="#E1E1E1" stroke-width="4" fill="none"></path></g></g><mask></mask><g stroke-linecap="round"><g transform="translate(298.4649987158716 184.82140413869718) rotate(262.49491413009315 -32.15562222610146 59.7448940609093)" fill-rule="evenodd"><path d="M0 0 C-2.02 0.51, -9.74 3.46, -12.12 3.07 C-14.51 2.69, -14.3 0.57, -14.33 -2.3 C-14.35 -5.17, -14.44 -11.82, -12.26 -14.15 C-10.07 -16.47, -5.38 -15.46, -1.22 -16.22 C2.93 -16.99, 7.75 -17.98, 12.66 -18.75 C17.57 -19.52, 22.85 -20.32, 28.23 -20.83 C33.62 -21.34, 38.58 -21.9, 44.96 -21.8 C51.35 -21.7, 59.87 -21.2, 66.53 -20.23 C73.19 -19.27, 78 -18.29, 84.9 -16 C91.81 -13.71, 100.5 -10.22, 107.95 -6.48 C115.39 -2.74, 122.28 0.96, 129.57 6.43 C136.87 11.89, 145.83 20.46, 151.7 26.32 C157.56 32.18, 160.16 34.9, 164.77 41.6 C169.38 48.31, 175.33 58.06, 179.35 66.56 C183.37 75.06, 186.52 82.85, 188.88 92.6 C191.24 102.35, 192.87 115.8, 193.51 125.09 C194.16 134.38, 193.47 141.17, 192.72 148.33 C191.98 155.49, 190.69 161.31, 189.06 168.05 C187.42 174.79, 185.96 181.42, 182.92 188.77 C179.87 196.13, 175.27 204.78, 170.78 212.18 C166.3 219.59, 162.24 226.33, 156.02 233.23 C149.79 240.14, 141.72 247.48, 133.44 253.61 C125.15 259.73, 116.29 265.35, 106.3 269.97 C96.31 274.6, 84.2 278.8, 73.52 281.36 C62.84 283.93, 53.8 285.39, 42.23 285.38 C30.66 285.36, 14.9 283.53, 4.12 281.3 C-6.66 279.07, -13.1 276.34, -22.46 272 C-31.82 267.65, -43.45 261.45, -52.03 255.24 C-60.62 249.03, -67.05 242.57, -73.97 234.73 C-80.89 226.9, -88.02 217.9, -93.56 208.24 C-99.09 198.58, -104.01 186.72, -107.18 176.79 C-110.36 166.85, -111.78 158.61, -112.6 148.64 C-113.43 138.67, -113.09 127.93, -112.15 116.94 C-111.21 105.94, -109.43 93.85, -106.97 82.68 C-104.51 71.52, -102.04 64.59, -97.38 49.94 C-92.72 35.3, -83.76 10.38, -79.01 -5.18 C-74.26 -20.73, -70.82 -31.38, -68.88 -43.39 C-66.93 -55.39, -66.01 -66.53, -67.34 -77.19 C-68.67 -87.85, -72.62 -99.3, -76.88 -107.35 C-81.15 -115.4, -87.05 -120.17, -92.94 -125.47 C-98.82 -130.76, -105.49 -135.64, -112.21 -139.12 C-118.93 -142.61, -124.97 -144.85, -133.25 -146.37 C-141.52 -147.9, -153.52 -148.81, -161.88 -148.26 C-170.24 -147.72, -176.08 -146.09, -183.42 -143.09 C-190.75 -140.09, -199.42 -135.25, -205.91 -130.25 C-212.41 -125.25, -217.61 -119.68, -222.39 -113.09 C-227.17 -106.5, -231.71 -98.39, -234.6 -90.71 C-237.48 -83.04, -239.15 -75.96, -239.69 -67.04 C-240.23 -58.13, -239.78 -46.15, -237.82 -37.23 C-235.87 -28.32, -232.17 -20.63, -227.97 -13.53 C-223.76 -6.42, -218.74 -0.08, -212.59 5.38 C-206.44 10.84, -198.44 16, -191.07 19.23 C-183.7 22.46, -177.97 24.15, -168.34 24.78 C-158.71 25.41, -143.57 24.44, -133.31 23.01 C-123.05 21.57, -113.45 17.95, -106.78 16.18 C-100.1 14.4, -97.02 13.52, -93.24 12.38 C-89.47 11.24, -85.45 9.13, -84.11 9.33 C-82.77 9.54, -84.24 10.66, -85.19 13.61 C-86.15 16.55, -88.39 24.35, -89.82 26.99 C-91.25 29.63, -90.03 28.22, -93.75 29.45 C-97.46 30.68, -104.87 32.78, -112.11 34.37 C-119.34 35.97, -129.08 37.95, -137.16 39.02 C-145.24 40.09, -152.09 41.07, -160.56 40.81 C-169.03 40.54, -180.1 39.52, -187.98 37.44 C-195.85 35.37, -201.42 32.25, -207.81 28.35 C-214.2 24.45, -221.1 19.14, -226.34 14.04 C-231.57 8.93, -235.27 3.88, -239.22 -2.27 C-243.17 -8.41, -247.25 -16.06, -250.04 -22.86 C-252.83 -29.65, -254.67 -35.58, -255.97 -43.03 C-257.27 -50.49, -258.4 -59.18, -257.83 -67.56 C-257.26 -75.94, -255.39 -84.88, -252.55 -93.29 C-249.71 -101.71, -245.61 -110.61, -240.79 -118.05 C-235.97 -125.5, -230.55 -131.84, -223.62 -137.95 C-216.69 -144.07, -207.67 -150.35, -199.2 -154.76 C-190.72 -159.16, -180.94 -162.54, -172.76 -164.39 C-164.58 -166.25, -159.5 -166.35, -150.12 -165.89 C-140.75 -165.42, -125.69 -164.12, -116.5 -161.61 C-107.31 -159.1, -101.14 -155.02, -94.98 -150.83 C-88.83 -146.64, -84.17 -141.15, -79.57 -136.48 C-74.97 -131.81, -70.68 -127.18, -67.41 -122.81 C-64.14 -118.43, -62.09 -114.65, -59.94 -110.22 C-57.79 -105.78, -56 -101.58, -54.52 -96.19 C-53.03 -90.81, -51.72 -84.51, -51.05 -77.91 C-50.38 -71.31, -50.03 -63.66, -50.5 -56.59 C-50.97 -49.52, -52.52 -42.56, -53.87 -35.49 C-55.21 -28.43, -56.4 -22.02, -58.59 -14.21 C-60.78 -6.4, -64.07 2.44, -67.02 11.37 C-69.97 20.3, -73.19 29.67, -76.31 39.38 C-79.43 49.09, -83.23 60.94, -85.76 69.63 C-88.29 78.32, -89.86 83.86, -91.49 91.5 C-93.12 99.15, -94.62 107.94, -95.52 115.52 C-96.43 123.09, -96.87 130.53, -96.91 136.94 C-96.95 143.35, -96.69 147.88, -95.74 153.98 C-94.79 160.08, -93.02 167.46, -91.21 173.54 C-89.39 179.62, -88.09 184.06, -84.85 190.45 C-81.6 196.85, -76.59 205.29, -71.76 211.92 C-66.94 218.54, -61.69 224.46, -55.89 230.19 C-50.09 235.92, -43.73 241.54, -36.94 246.28 C-30.15 251.03, -22.95 255.2, -15.16 258.66 C-7.37 262.12, 0.69 265.04, 9.79 267.05 C18.9 269.06, 30.8 270.28, 39.47 270.72 C48.13 271.17, 54.14 270.77, 61.79 269.71 C69.44 268.65, 77.1 267.38, 85.37 264.37 C93.63 261.36, 103.49 256.44, 111.39 251.67 C119.29 246.9, 126.31 241.31, 132.77 235.74 C139.22 230.17, 144.8 224.92, 150.13 218.24 C155.45 211.55, 160.48 204.4, 164.73 195.64 C168.98 186.88, 173.24 175.53, 175.63 165.69 C178.02 155.85, 178.74 145.49, 179.08 136.59 C179.42 127.68, 178.81 119.96, 177.68 112.26 C176.56 104.57, 175.41 98.7, 172.33 90.41 C169.24 82.11, 164.14 70.9, 159.17 62.5 C154.21 54.1, 148.59 46.66, 142.53 40 C136.47 33.34, 129.49 27.71, 122.82 22.53 C116.14 17.36, 109.77 12.77, 102.46 8.97 C95.15 5.18, 87.96 2.15, 78.96 -0.22 C69.96 -2.59, 58.04 -4.59, 48.45 -5.23 C38.86 -5.86, 28.14 -4.56, 21.42 -4.02 C14.7 -3.48, 11.71 -2.67, 8.14 -2 C4.57 -1.33, 1.36 -0.33, 0 0" stroke="none" stroke-width="0" fill="#E1E1E1" fill-rule="evenodd"></path><path d="M0 0 C-2.02 0.51, -9.74 3.46, -12.12 3.07 C-14.51 2.69, -14.3 0.57, -14.33 -2.3 C-14.35 -5.17, -14.44 -11.82, -12.26 -14.15 C-10.07 -16.47, -5.38 -15.46, -1.22 -16.22 C2.93 -16.99, 7.75 -17.98, 12.66 -18.75 C17.57 -19.52, 22.85 -20.32, 28.23 -20.83 C33.62 -21.34, 38.58 -21.9, 44.96 -21.8 C51.35 -21.7, 59.87 -21.2, 66.53 -20.23 C73.19 -19.27, 78 -18.29, 84.9 -16 C91.81 -13.71, 100.5 -10.22, 107.95 -6.48 C115.39 -2.74, 122.28 0.96, 129.57 6.43 C136.87 11.89, 145.83 20.46, 151.7 26.32 C157.56 32.18, 160.16 34.9, 164.77 41.6 C169.38 48.31, 175.33 58.06, 179.35 66.56 C183.37 75.06, 186.52 82.85, 188.88 92.6 C191.24 102.35, 192.87 115.8, 193.51 125.09 C194.16 134.38, 193.47 141.17, 192.72 148.33 C191.98 155.49, 190.69 161.31, 189.06 168.05 C187.42 174.79, 185.96 181.42, 182.92 188.77 C179.87 196.13, 175.27 204.78, 170.78 212.18 C166.3 219.59, 162.24 226.33, 156.02 233.23 C149.79 240.14, 141.72 247.48, 133.44 253.61 C125.15 259.73, 116.29 265.35, 106.3 269.97 C96.31 274.6, 84.2 278.8, 73.52 281.36 C62.84 283.93, 53.8 285.39, 42.23 285.38 C30.66 285.36, 14.9 283.53, 4.12 281.3 C-6.66 279.07, -13.1 276.34, -22.46 272 C-31.82 267.65, -43.45 261.45, -52.03 255.24 C-60.62 249.03, -67.05 242.57, -73.97 234.73 C-80.89 226.9, -88.02 217.9, -93.56 208.24 C-99.09 198.58, -104.01 186.72, -107.18 176.79 C-110.36 166.85, -111.78 158.61, -112.6 148.64 C-113.43 138.67, -113.09 127.93, -112.15 116.94 C-111.21 105.94, -109.43 93.85, -106.97 82.68 C-104.51 71.52, -102.04 64.59, -97.38 49.94 C-92.72 35.3, -83.76 10.38, -79.01 -5.18 C-74.26 -20.73, -70.82 -31.38, -68.88 -43.39 C-66.93 -55.39, -66.01 -66.53, -67.34 -77.19 C-68.67 -87.85, -72.62 -99.3, -76.88 -107.35 C-81.15 -115.4, -87.05 -120.17, -92.94 -125.47 C-98.82 -130.76, -105.49 -135.64, -112.21 -139.12 C-118.93 -142.61, -124.97 -144.85, -133.25 -146.37 C-141.52 -147.9, -153.52 -148.81, -161.88 -148.26 C-170.24 -147.72, -176.08 -146.09, -183.42 -143.09 C-190.75 -140.09, -199.42 -135.25, -205.91 -130.25 C-212.41 -125.25, -217.61 -119.68, -222.39 -113.09 C-227.17 -106.5, -231.71 -98.39, -234.6 -90.71 C-237.48 -83.04, -239.15 -75.96, -239.69 -67.04 C-240.23 -58.13, -239.78 -46.15, -237.82 -37.23 C-235.87 -28.32, -232.17 -20.63, -227.97 -13.53 C-223.76 -6.42, -218.74 -0.08, -212.59 5.38 C-206.44 10.84, -198.44 16, -191.07 19.23 C-183.7 22.46, -177.97 24.15, -168.34 24.78 C-158.71 25.41, -143.57 24.44, -133.31 23.01 C-123.05 21.57, -113.45 17.95, -106.78 16.18 C-100.1 14.4, -97.02 13.52, -93.24 12.38 C-89.47 11.24, -85.45 9.13, -84.11 9.33 C-82.77 9.54, -84.24 10.66, -85.19 13.61 C-86.15 16.55, -88.39 24.35, -89.82 26.99 C-91.25 29.63, -90.03 28.22, -93.75 29.45 C-97.46 30.68, -104.87 32.78, -112.11 34.37 C-119.34 35.97, -129.08 37.95, -137.16 39.02 C-145.24 40.09, -152.09 41.07, -160.56 40.81 C-169.03 40.54, -180.1 39.52, -187.98 37.44 C-195.85 35.37, -201.42 32.25, -207.81 28.35 C-214.2 24.45, -221.1 19.14, -226.34 14.04 C-231.57 8.93, -235.27 3.88, -239.22 -2.27 C-243.17 -8.41, -247.25 -16.06, -250.04 -22.86 C-252.83 -29.65, -254.67 -35.58, -255.97 -43.03 C-257.27 -50.49, -258.4 -59.18, -257.83 -67.56 C-257.26 -75.94, -255.39 -84.88, -252.55 -93.29 C-249.71 -101.71, -245.61 -110.61, -240.79 -118.05 C-235.97 -125.5, -230.55 -131.84, -223.62 -137.95 C-216.69 -144.07, -207.67 -150.35, -199.2 -154.76 C-190.72 -159.16, -180.94 -162.54, -172.76 -164.39 C-164.58 -166.25, -159.5 -166.35, -150.12 -165.89 C-140.75 -165.42, -125.69 -164.12, -116.5 -161.61 C-107.31 -159.1, -101.14 -155.02, -94.98 -150.83 C-88.83 -146.64, -84.17 -141.15, -79.57 -136.48 C-74.97 -131.81, -70.68 -127.18, -67.41 -122.81 C-64.14 -118.43, -62.09 -114.65, -59.94 -110.22 C-57.79 -105.78, -56 -101.58, -54.52 -96.19 C-53.03 -90.81, -51.72 -84.51, -51.05 -77.91 C-50.38 -71.31, -50.03 -63.66, -50.5 -56.59 C-50.97 -49.52, -52.52 -42.56, -53.87 -35.49 C-55.21 -28.43, -56.4 -22.02, -58.59 -14.21 C-60.78 -6.4, -64.07 2.44, -67.02 11.37 C-69.97 20.3, -73.19 29.67, -76.31 39.38 C-79.43 49.09, -83.23 60.94, -85.76 69.63 C-88.29 78.32, -89.86 83.86, -91.49 91.5 C-93.12 99.15, -94.62 107.94, -95.52 115.52 C-96.43 123.09, -96.87 130.53, -96.91 136.94 C-96.95 143.35, -96.69 147.88, -95.74 153.98 C-94.79 160.08, -93.02 167.46, -91.21 173.54 C-89.39 179.62, -88.09 184.06, -84.85 190.45 C-81.6 196.85, -76.59 205.29, -71.76 211.92 C-66.94 218.54, -61.69 224.46, -55.89 230.19 C-50.09 235.92, -43.73 241.54, -36.94 246.28 C-30.15 251.03, -22.95 255.2, -15.16 258.66 C-7.37 262.12, 0.69 265.04, 9.79 267.05 C18.9 269.06, 30.8 270.28, 39.47 270.72 C48.13 271.17, 54.14 270.77, 61.79 269.71 C69.44 268.65, 77.1 267.38, 85.37 264.37 C93.63 261.36, 103.49 256.44, 111.39 251.67 C119.29 246.9, 126.31 241.31, 132.77 235.74 C139.22 230.17, 144.8 224.92, 150.13 218.24 C155.45 211.55, 160.48 204.4, 164.73 195.64 C168.98 186.88, 173.24 175.53, 175.63 165.69 C178.02 155.85, 178.74 145.49, 179.08 136.59 C179.42 127.68, 178.81 119.96, 177.68 112.26 C176.56 104.57, 175.41 98.7, 172.33 90.41 C169.24 82.11, 164.14 70.9, 159.17 62.5 C154.21 54.1, 148.59 46.66, 142.53 40 C136.47 33.34, 129.49 27.71, 122.82 22.53 C116.14 17.36, 109.77 12.77, 102.46 8.97 C95.15 5.18, 87.96 2.15, 78.96 -0.22 C69.96 -2.59, 58.04 -4.59, 48.45 -5.23 C38.86 -5.86, 28.14 -4.56, 21.42 -4.02 C14.7 -3.48, 11.71 -2.67, 8.14 -2 C4.57 -1.33, 1.36 -0.33, 0 0 M0 0 C-2.02 0.51, -9.74 3.46, -12.12 3.07 C-14.51 2.69, -14.3 0.57, -14.33 -2.3 C-14.35 -5.17, -14.44 -11.82, -12.26 -14.15 C-10.07 -16.47, -5.38 -15.46, -1.22 -16.22 C2.93 -16.99, 7.75 -17.98, 12.66 -18.75 C17.57 -19.52, 22.85 -20.32, 28.23 -20.83 C33.62 -21.34, 38.58 -21.9, 44.96 -21.8 C51.35 -21.7, 59.87 -21.2, 66.53 -20.23 C73.19 -19.27, 78 -18.29, 84.9 -16 C91.81 -13.71, 100.5 -10.22, 107.95 -6.48 C115.39 -2.74, 122.28 0.96, 129.57 6.43 C136.87 11.89, 145.83 20.46, 151.7 26.32 C157.56 32.18, 160.16 34.9, 164.77 41.6 C169.38 48.31, 175.33 58.06, 179.35 66.56 C183.37 75.06, 186.52 82.85, 188.88 92.6 C191.24 102.35, 192.87 115.8, 193.51 125.09 C194.16 134.38, 193.47 141.17, 192.72 148.33 C191.98 155.49, 190.69 161.31, 189.06 168.05 C187.42 174.79, 185.96 181.42, 182.92 188.77 C179.87 196.13, 175.27 204.78, 170.78 212.18 C166.3 219.59, 162.24 226.33, 156.02 233.23 C149.79 240.14, 141.72 247.48, 133.44 253.61 C125.15 259.73, 116.29 265.35, 106.3 269.97 C96.31 274.6, 84.2 278.8, 73.52 281.36 C62.84 283.93, 53.8 285.39, 42.23 285.38 C30.66 285.36, 14.9 283.53, 4.12 281.3 C-6.66 279.07, -13.1 276.34, -22.46 272 C-31.82 267.65, -43.45 261.45, -52.03 255.24 C-60.62 249.03, -67.05 242.57, -73.97 234.73 C-80.89 226.9, -88.02 217.9, -93.56 208.24 C-99.09 198.58, -104.01 186.72, -107.18 176.79 C-110.36 166.85, -111.78 158.61, -112.6 148.64 C-113.43 138.67, -113.09 127.93, -112.15 116.94 C-111.21 105.94, -109.43 93.85, -106.97 82.68 C-104.51 71.52, -102.04 64.59, -97.38 49.94 C-92.72 35.3, -83.76 10.38, -79.01 -5.18 C-74.26 -20.73, -70.82 -31.38, -68.88 -43.39 C-66.93 -55.39, -66.01 -66.53, -67.34 -77.19 C-68.67 -87.85, -72.62 -99.3, -76.88 -107.35 C-81.15 -115.4, -87.05 -120.17, -92.94 -125.47 C-98.82 -130.76, -105.49 -135.64, -112.21 -139.12 C-118.93 -142.61, -124.97 -144.85, -133.25 -146.37 C-141.52 -147.9, -153.52 -148.81, -161.88 -148.26 C-170.24 -147.72, -176.08 -146.09, -183.42 -143.09 C-190.75 -140.09, -199.42 -135.25, -205.91 -130.25 C-212.41 -125.25, -217.61 -119.68, -222.39 -113.09 C-227.17 -106.5, -231.71 -98.39, -234.6 -90.71 C-237.48 -83.04, -239.15 -75.96, -239.69 -67.04 C-240.23 -58.13, -239.78 -46.15, -237.82 -37.23 C-235.87 -28.32, -232.17 -20.63, -227.97 -13.53 C-223.76 -6.42, -218.74 -0.08, -212.59 5.38 C-206.44 10.84, -198.44 16, -191.07 19.23 C-183.7 22.46, -177.97 24.15, -168.34 24.78 C-158.71 25.41, -143.57 24.44, -133.31 23.01 C-123.05 21.57, -113.45 17.95, -106.78 16.18 C-100.1 14.4, -97.02 13.52, -93.24 12.38 C-89.47 11.24, -85.45 9.13, -84.11 9.33 C-82.77 9.54, -84.24 10.66, -85.19 13.61 C-86.15 16.55, -88.39 24.35, -89.82 26.99 C-91.25 29.63, -90.03 28.22, -93.75 29.45 C-97.46 30.68, -104.87 32.78, -112.11 34.37 C-119.34 35.97, -129.08 37.95, -137.16 39.02 C-145.24 40.09, -152.09 41.07, -160.56 40.81 C-169.03 40.54, -180.1 39.52, -187.98 37.44 C-195.85 35.37, -201.42 32.25, -207.81 28.35 C-214.2 24.45, -221.1 19.14, -226.34 14.04 C-231.57 8.93, -235.27 3.88, -239.22 -2.27 C-243.17 -8.41, -247.25 -16.06, -250.04 -22.86 C-252.83 -29.65, -254.67 -35.58, -255.97 -43.03 C-257.27 -50.49, -258.4 -59.18, -257.83 -67.56 C-257.26 -75.94, -255.39 -84.88, -252.55 -93.29 C-249.71 -101.71, -245.61 -110.61, -240.79 -118.05 C-235.97 -125.5, -230.55 -131.84, -223.62 -137.95 C-216.69 -144.07, -207.67 -150.35, -199.2 -154.76 C-190.72 -159.16, -180.94 -162.54, -172.76 -164.39 C-164.58 -166.25, -159.5 -166.35, -150.12 -165.89 C-140.75 -165.42, -125.69 -164.12, -116.5 -161.61 C-107.31 -159.1, -101.14 -155.02, -94.98 -150.83 C-88.83 -146.64, -84.17 -141.15, -79.57 -136.48 C-74.97 -131.81, -70.68 -127.18, -67.41 -122.81 C-64.14 -118.43, -62.09 -114.65, -59.94 -110.22 C-57.79 -105.78, -56 -101.58, -54.52 -96.19 C-53.03 -90.81, -51.72 -84.51, -51.05 -77.91 C-50.38 -71.31, -50.03 -63.66, -50.5 -56.59 C-50.97 -49.52, -52.52 -42.56, -53.87 -35.49 C-55.21 -28.43, -56.4 -22.02, -58.59 -14.21 C-60.78 -6.4, -64.07 2.44, -67.02 11.37 C-69.97 20.3, -73.19 29.67, -76.31 39.38 C-79.43 49.09, -83.23 60.94, -85.76 69.63 C-88.29 78.32, -89.86 83.86, -91.49 91.5 C-93.12 99.15, -94.62 107.94, -95.52 115.52 C-96.43 123.09, -96.87 130.53, -96.91 136.94 C-96.95 143.35, -96.69 147.88, -95.74 153.98 C-94.79 160.08, -93.02 167.46, -91.21 173.54 C-89.39 179.62, -88.09 184.06, -84.85 190.45 C-81.6 196.85, -76.59 205.29, -71.76 211.92 C-66.94 218.54, -61.69 224.46, -55.89 230.19 C-50.09 235.92, -43.73 241.54, -36.94 246.28 C-30.15 251.03, -22.95 255.2, -15.16 258.66 C-7.37 262.12, 0.69 265.04, 9.79 267.05 C18.9 269.06, 30.8 270.28, 39.47 270.72 C48.13 271.17, 54.14 270.77, 61.79 269.71 C69.44 268.65, 77.1 267.38, 85.37 264.37 C93.63 261.36, 103.49 256.44, 111.39 251.67 C119.29 246.9, 126.31 241.31, 132.77 235.74 C139.22 230.17, 144.8 224.92, 150.13 218.24 C155.45 211.55, 160.48 204.4, 164.73 195.64 C168.98 186.88, 173.24 175.53, 175.63 165.69 C178.02 155.85, 178.74 145.49, 179.08 136.59 C179.42 127.68, 178.81 119.96, 177.68 112.26 C176.56 104.57, 175.41 98.7, 172.33 90.41 C169.24 82.11, 164.14 70.9, 159.17 62.5 C154.21 54.1, 148.59 46.66, 142.53 40 C136.47 33.34, 129.49 27.71, 122.82 22.53 C116.14 17.36, 109.77 12.77, 102.46 8.97 C95.15 5.18, 87.96 2.15, 78.96 -0.22 C69.96 -2.59, 58.04 -4.59, 48.45 -5.23 C38.86 -5.86, 28.14 -4.56, 21.42 -4.02 C14.7 -3.48, 11.71 -2.67, 8.14 -2 C4.57 -1.33, 1.36 -0.33, 0 0" stroke="#E1E1E1" stroke-width="4" fill="none"></path></g></g><mask></mask><g stroke-linecap="round"><g transform="translate(-27.33436712732444 394.11670293324903) rotate(82.49491413009318 81.6086038952481 22.454114016668676)" fill-rule="evenodd"><path d="M0 0 C2.96 2.18, 11.68 9.01, 17.75 13.05 C23.81 17.1, 30.38 21.01, 36.39 24.27 C42.41 27.54, 48.3 30.36, 53.84 32.63 C59.38 34.89, 63.54 36.33, 69.64 37.84 C75.74 39.36, 83.7 40.75, 90.46 41.72 C97.22 42.68, 104.03 43.11, 110.21 43.64 C116.38 44.18, 121.4 47.66, 127.49 44.91 C133.58 42.16, 140.79 33.9, 146.74 27.16 C152.7 20.42, 162.03 6.97, 163.22 4.48 C164.41 2, 156.61 10.21, 153.88 12.24 C151.14 14.26, 150.09 14.98, 146.81 16.64 C143.53 18.31, 138.74 20.75, 134.2 22.24 C129.67 23.74, 125.21 24.96, 119.59 25.62 C113.98 26.27, 105.85 26.25, 100.49 26.17 C95.12 26.09, 91.66 25.69, 87.39 25.14 C83.12 24.58, 78.94 23.84, 74.89 22.85 C70.84 21.85, 65.82 20.27, 63.09 19.16 C60.35 18.04, 60.09 17.68, 58.47 16.18 C56.85 14.67, 56.58 11.27, 53.38 10.12 C50.19 8.98, 46.58 10.88, 39.29 9.33 C32.01 7.77, 16.23 2.36, 9.69 0.81 C3.14 -0.74, 1.61 0.13, 0 0" stroke="none" stroke-width="0" fill="#E1E1E1" fill-rule="evenodd"></path><path d="M0 0 C2.96 2.18, 11.68 9.01, 17.75 13.05 C23.81 17.1, 30.38 21.01, 36.39 24.27 C42.41 27.54, 48.3 30.36, 53.84 32.63 C59.38 34.89, 63.54 36.33, 69.64 37.84 C75.74 39.36, 83.7 40.75, 90.46 41.72 C97.22 42.68, 104.03 43.11, 110.21 43.64 C116.38 44.18, 121.4 47.66, 127.49 44.91 C133.58 42.16, 140.79 33.9, 146.74 27.16 C152.7 20.42, 162.03 6.97, 163.22 4.48 C164.41 2, 156.61 10.21, 153.88 12.24 C151.14 14.26, 150.09 14.98, 146.81 16.64 C143.53 18.31, 138.74 20.75, 134.2 22.24 C129.67 23.74, 125.21 24.96, 119.59 25.62 C113.98 26.27, 105.85 26.25, 100.49 26.17 C95.12 26.09, 91.66 25.69, 87.39 25.14 C83.12 24.58, 78.94 23.84, 74.89 22.85 C70.84 21.85, 65.82 20.27, 63.09 19.16 C60.35 18.04, 60.09 17.68, 58.47 16.18 C56.85 14.67, 56.58 11.27, 53.38 10.12 C50.19 8.98, 46.58 10.88, 39.29 9.33 C32.01 7.77, 16.23 2.36, 9.69 0.81 C3.14 -0.74, 1.61 0.13, 0 0 M0 0 C2.96 2.18, 11.68 9.01, 17.75 13.05 C23.81 17.1, 30.38 21.01, 36.39 24.27 C42.41 27.54, 48.3 30.36, 53.84 32.63 C59.38 34.89, 63.54 36.33, 69.64 37.84 C75.74 39.36, 83.7 40.75, 90.46 41.72 C97.22 42.68, 104.03 43.11, 110.21 43.64 C116.38 44.18, 121.4 47.66, 127.49 44.91 C133.58 42.16, 140.79 33.9, 146.74 27.16 C152.7 20.42, 162.03 6.97, 163.22 4.48 C164.41 2, 156.61 10.21, 153.88 12.24 C151.14 14.26, 150.09 14.98, 146.81 16.64 C143.53 18.31, 138.74 20.75, 134.2 22.24 C129.67 23.74, 125.21 24.96, 119.59 25.62 C113.98 26.27, 105.85 26.25, 100.49 26.17 C95.12 26.09, 91.66 25.69, 87.39 25.14 C83.12 24.58, 78.94 23.84, 74.89 22.85 C70.84 21.85, 65.82 20.27, 63.09 19.16 C60.35 18.04, 60.09 17.68, 58.47 16.18 C56.85 14.67, 56.58 11.27, 53.38 10.12 C50.19 8.98, 46.58 10.88, 39.29 9.33 C32.01 7.77, 16.23 2.36, 9.69 0.81 C3.14 -0.74, 1.61 0.13, 0 0" stroke="#E1E1E1" stroke-width="4" fill="none"></path></g></g><mask></mask><g stroke-linecap="round"><g transform="translate(355.60947161161266 103.53851084916175) rotate(262.49491413009315 81.60860389524808 22.454114016668683)" fill-rule="evenodd"><path d="M0 0 C2.96 2.18, 11.68 9.01, 17.75 13.05 C23.81 17.1, 30.38 21.01, 36.39 24.27 C42.41 27.54, 48.3 30.36, 53.84 32.63 C59.38 34.89, 63.54 36.33, 69.64 37.84 C75.74 39.36, 83.7 40.75, 90.46 41.72 C97.22 42.68, 104.03 43.11, 110.21 43.64 C116.38 44.18, 121.4 47.66, 127.49 44.91 C133.58 42.16, 140.79 33.9, 146.74 27.16 C152.7 20.42, 162.03 6.97, 163.22 4.48 C164.41 2, 156.61 10.21, 153.88 12.24 C151.14 14.26, 150.09 14.98, 146.81 16.64 C143.53 18.31, 138.74 20.75, 134.2 22.24 C129.67 23.74, 125.21 24.96, 119.59 25.62 C113.98 26.27, 105.85 26.25, 100.49 26.17 C95.12 26.09, 91.66 25.69, 87.39 25.14 C83.12 24.58, 78.94 23.84, 74.89 22.85 C70.84 21.85, 65.82 20.27, 63.09 19.16 C60.35 18.04, 60.09 17.68, 58.47 16.18 C56.85 14.67, 56.58 11.27, 53.38 10.12 C50.19 8.98, 46.58 10.88, 39.29 9.33 C32.01 7.77, 16.23 2.36, 9.69 0.81 C3.14 -0.74, 1.61 0.13, 0 0" stroke="none" stroke-width="0" fill="#E1E1E1" fill-rule="evenodd"></path><path d="M0 0 C2.96 2.18, 11.68 9.01, 17.75 13.05 C23.81 17.1, 30.38 21.01, 36.39 24.27 C42.41 27.54, 48.3 30.36, 53.84 32.63 C59.38 34.89, 63.54 36.33, 69.64 37.84 C75.74 39.36, 83.7 40.75, 90.46 41.72 C97.22 42.68, 104.03 43.11, 110.21 43.64 C116.38 44.18, 121.4 47.66, 127.49 44.91 C133.58 42.16, 140.79 33.9, 146.74 27.16 C152.7 20.42, 162.03 6.97, 163.22 4.48 C164.41 2, 156.61 10.21, 153.88 12.24 C151.14 14.26, 150.09 14.98, 146.81 16.64 C143.53 18.31, 138.74 20.75, 134.2 22.24 C129.67 23.74, 125.21 24.96, 119.59 25.62 C113.98 26.27, 105.85 26.25, 100.49 26.17 C95.12 26.09, 91.66 25.69, 87.39 25.14 C83.12 24.58, 78.94 23.84, 74.89 22.85 C70.84 21.85, 65.82 20.27, 63.09 19.16 C60.35 18.04, 60.09 17.68, 58.47 16.18 C56.85 14.67, 56.58 11.27, 53.38 10.12 C50.19 8.98, 46.58 10.88, 39.29 9.33 C32.01 7.77, 16.23 2.36, 9.69 0.81 C3.14 -0.74, 1.61 0.13, 0 0 M0 0 C2.96 2.18, 11.68 9.01, 17.75 13.05 C23.81 17.1, 30.38 21.01, 36.39 24.27 C42.41 27.54, 48.3 30.36, 53.84 32.63 C59.38 34.89, 63.54 36.33, 69.64 37.84 C75.74 39.36, 83.7 40.75, 90.46 41.72 C97.22 42.68, 104.03 43.11, 110.21 43.64 C116.38 44.18, 121.4 47.66, 127.49 44.91 C133.58 42.16, 140.79 33.9, 146.74 27.16 C152.7 20.42, 162.03 6.97, 163.22 4.48 C164.41 2, 156.61 10.21, 153.88 12.24 C151.14 14.26, 150.09 14.98, 146.81 16.64 C143.53 18.31, 138.74 20.75, 134.2 22.24 C129.67 23.74, 125.21 24.96, 119.59 25.62 C113.98 26.27, 105.85 26.25, 100.49 26.17 C95.12 26.09, 91.66 25.69, 87.39 25.14 C83.12 24.58, 78.94 23.84, 74.89 22.85 C70.84 21.85, 65.82 20.27, 63.09 19.16 C60.35 18.04, 60.09 17.68, 58.47 16.18 C56.85 14.67, 56.58 11.27, 53.38 10.12 C50.19 8.98, 46.58 10.88, 39.29 9.33 C32.01 7.77, 16.23 2.36, 9.69 0.81 C3.14 -0.74, 1.61 0.13, 0 0" stroke="#E1E1E1" stroke-width="4" fill="none"></path></g></g><mask></mask><g stroke-linecap="round"><g transform="translate(157.00364796287406 327.1154261760993) rotate(169.06061514823764 -0.4552491340824574 48.89177980432502)"><path d="M0 0 C-1.32 0.77, -6.01 3.37, -7.9 4.61 C-9.8 5.86, -10.53 6.49, -11.37 7.48 C-12.2 8.47, -12.62 9.45, -12.92 10.57 C-13.22 11.69, -13.13 12.85, -13.19 14.2 C-13.25 15.54, -13.28 17.51, -13.3 18.64 C-13.31 19.76, -12.98 20.18, -13.27 20.94 C-13.56 21.71, -14.31 22.34, -15.04 23.22 C-15.77 24.11, -16.91 25.32, -17.65 26.26 C-18.39 27.2, -18.92 28.13, -19.47 28.89 C-20.02 29.64, -20.09 30.51, -20.96 30.81 C-21.84 31.11, -23.41 30.81, -24.71 30.7 C-26 30.6, -27.69 30, -28.75 30.16 C-29.8 30.32, -30.37 30.87, -31.06 31.66 C-31.75 32.45, -32.09 33.25, -32.87 34.9 C-33.64 36.56, -34.66 39.1, -35.7 41.59 C-36.74 44.08, -38.15 47.45, -39.09 49.86 C-40.02 52.26, -40.83 54.37, -41.31 56.03 C-41.8 57.68, -42.03 58.73, -42 59.78 C-41.98 60.82, -41.78 61.75, -41.16 62.31 C-40.54 62.86, -39.43 62.95, -38.28 63.09 C-37.13 63.23, -34.95 62.69, -34.27 63.14 C-33.59 63.59, -34.2 64.5, -34.2 65.79 C-34.2 67.08, -34.26 69.52, -34.26 70.88 C-34.27 72.24, -33.89 73, -34.23 73.96 C-34.56 74.91, -35.47 75.57, -36.27 76.63 C-37.07 77.69, -38.2 79.22, -39.03 80.33 C-39.85 81.44, -40.76 82.26, -41.23 83.29 C-41.71 84.31, -41.91 85.43, -41.86 86.48 C-41.81 87.53, -41.58 88.36, -40.94 89.57 C-40.29 90.79, -38.98 92.33, -37.99 93.78 C-36.99 95.22, -35.88 97, -34.97 98.26 C-34.06 99.52, -33.36 100.8, -32.5 101.33 C-31.64 101.86, -30.65 101.73, -29.83 101.44 C-29 101.15, -28.32 100.42, -27.55 99.58 C-26.77 98.73, -25.99 97.44, -25.17 96.39 C-24.36 95.34, -23.3 94.05, -22.63 93.26 C-21.96 92.47, -21.81 91.84, -21.13 91.65 C-20.45 91.46, -19.37 91.96, -18.55 92.09 C-17.72 92.22, -17.03 92.35, -16.15 92.44 C-15.28 92.53, -13.83 92.2, -13.31 92.62 C-12.8 93.04, -13.13 93.78, -13.09 94.94 C-13.05 96.1, -13.09 98.33, -13.09 99.57 C-13.08 100.82, -13.41 101.74, -13.06 102.42 C-12.71 103.1, -11.7 103.59, -10.99 103.65 C-10.29 103.7, -10.37 103.58, -8.83 102.76 C-7.3 101.93, -3.89 99.92, -1.79 98.72 C0.31 97.52, 2.09 96.56, 3.78 95.54 C5.48 94.53, 7.19 93.65, 8.39 92.66 C9.59 91.67, 10.35 90.67, 10.96 89.59 C11.57 88.51, 11.86 87.73, 12.04 86.2 C12.23 84.66, 12.05 81.73, 12.05 80.37 C12.05 79, 11.74 78.81, 12.05 78.01 C12.36 77.21, 13.02 76.64, 13.89 75.58 C14.76 74.53, 16.24 72.93, 17.26 71.7 C18.27 70.47, 19.01 68.81, 19.98 68.19 C20.94 67.56, 21.97 67.96, 23.04 67.93 C24.12 67.9, 25.41 68.12, 26.44 68 C27.48 67.88, 28.43 67.82, 29.24 67.21 C30.06 66.59, 30.63 65.65, 31.35 64.28 C32.07 62.92, 32.83 60.81, 33.57 59.01 C34.3 57.22, 34.95 55.65, 35.78 53.52 C36.61 51.39, 37.71 48.52, 38.53 46.24 C39.35 43.96, 40.35 41.43, 40.71 39.86 C41.06 38.3, 40.98 37.59, 40.65 36.87 C40.31 36.15, 39.58 35.8, 38.7 35.55 C37.82 35.29, 36.29 35.41, 35.36 35.33 C34.44 35.26, 33.51 35.6, 33.15 35.1 C32.78 34.6, 33.17 33.28, 33.19 32.32 C33.21 31.36, 33.3 30.42, 33.28 29.34 C33.26 28.26, 33.05 26.81, 33.05 25.86 C33.06 24.9, 32.69 24.74, 33.34 23.61 C33.98 22.49, 35.83 20.53, 36.93 19.1 C38.03 17.66, 39.24 16.18, 39.93 15 C40.63 13.82, 40.98 12.94, 41.09 12.02 C41.2 11.09, 41.17 10.57, 40.6 9.45 C40.04 8.33, 38.69 6.72, 37.69 5.29 C36.69 3.85, 35.49 2.09, 34.6 0.85 C33.71 -0.39, 33 -1.4, 32.35 -2.15 C31.69 -2.91, 31.31 -3.47, 30.66 -3.66 C30.01 -3.84, 29.12 -3.63, 28.44 -3.28 C27.76 -2.93, 27.22 -2.27, 26.58 -1.57 C25.94 -0.88, 25.24 0.03, 24.6 0.89 C23.95 1.74, 23.33 2.72, 22.7 3.57 C22.07 4.42, 21.62 5.59, 20.81 6.01 C20.01 6.42, 18.9 6.13, 17.87 6.05 C16.84 5.97, 15.54 5.57, 14.63 5.53 C13.73 5.5, 12.86 6.22, 12.45 5.84 C12.04 5.45, 12.22 4.38, 12.16 3.22 C12.1 2.05, 12.13 0.04, 12.09 -1.17 C12.05 -2.38, 12.3 -3.24, 11.93 -4.02 C11.55 -4.81, 10.65 -5.83, 9.83 -5.86 C9.01 -5.89, 8.05 -4.8, 7 -4.2 C5.95 -3.6, 4.69 -2.94, 3.53 -2.24 C2.36 -1.54, 0.59 -0.37, 0 0 M0 0 C-1.32 0.77, -6.01 3.37, -7.9 4.61 C-9.8 5.86, -10.53 6.49, -11.37 7.48 C-12.2 8.47, -12.62 9.45, -12.92 10.57 C-13.22 11.69, -13.13 12.85, -13.19 14.2 C-13.25 15.54, -13.28 17.51, -13.3 18.64 C-13.31 19.76, -12.98 20.18, -13.27 20.94 C-13.56 21.71, -14.31 22.34, -15.04 23.22 C-15.77 24.11, -16.91 25.32, -17.65 26.26 C-18.39 27.2, -18.92 28.13, -19.47 28.89 C-20.02 29.64, -20.09 30.51, -20.96 30.81 C-21.84 31.11, -23.41 30.81, -24.71 30.7 C-26 30.6, -27.69 30, -28.75 30.16 C-29.8 30.32, -30.37 30.87, -31.06 31.66 C-31.75 32.45, -32.09 33.25, -32.87 34.9 C-33.64 36.56, -34.66 39.1, -35.7 41.59 C-36.74 44.08, -38.15 47.45, -39.09 49.86 C-40.02 52.26, -40.83 54.37, -41.31 56.03 C-41.8 57.68, -42.03 58.73, -42 59.78 C-41.98 60.82, -41.78 61.75, -41.16 62.31 C-40.54 62.86, -39.43 62.95, -38.28 63.09 C-37.13 63.23, -34.95 62.69, -34.27 63.14 C-33.59 63.59, -34.2 64.5, -34.2 65.79 C-34.2 67.08, -34.26 69.52, -34.26 70.88 C-34.27 72.24, -33.89 73, -34.23 73.96 C-34.56 74.91, -35.47 75.57, -36.27 76.63 C-37.07 77.69, -38.2 79.22, -39.03 80.33 C-39.85 81.44, -40.76 82.26, -41.23 83.29 C-41.71 84.31, -41.91 85.43, -41.86 86.48 C-41.81 87.53, -41.58 88.36, -40.94 89.57 C-40.29 90.79, -38.98 92.33, -37.99 93.78 C-36.99 95.22, -35.88 97, -34.97 98.26 C-34.06 99.52, -33.36 100.8, -32.5 101.33 C-31.64 101.86, -30.65 101.73, -29.83 101.44 C-29 101.15, -28.32 100.42, -27.55 99.58 C-26.77 98.73, -25.99 97.44, -25.17 96.39 C-24.36 95.34, -23.3 94.05, -22.63 93.26 C-21.96 92.47, -21.81 91.84, -21.13 91.65 C-20.45 91.46, -19.37 91.96, -18.55 92.09 C-17.72 92.22, -17.03 92.35, -16.15 92.44 C-15.28 92.53, -13.83 92.2, -13.31 92.62 C-12.8 93.04, -13.13 93.78, -13.09 94.94 C-13.05 96.1, -13.09 98.33, -13.09 99.57 C-13.08 100.82, -13.41 101.74, -13.06 102.42 C-12.71 103.1, -11.7 103.59, -10.99 103.65 C-10.29 103.7, -10.37 103.58, -8.83 102.76 C-7.3 101.93, -3.89 99.92, -1.79 98.72 C0.31 97.52, 2.09 96.56, 3.78 95.54 C5.48 94.53, 7.19 93.65, 8.39 92.66 C9.59 91.67, 10.35 90.67, 10.96 89.59 C11.57 88.51, 11.86 87.73, 12.04 86.2 C12.23 84.66, 12.05 81.73, 12.05 80.37 C12.05 79, 11.74 78.81, 12.05 78.01 C12.36 77.21, 13.02 76.64, 13.89 75.58 C14.76 74.53, 16.24 72.93, 17.26 71.7 C18.27 70.47, 19.01 68.81, 19.98 68.19 C20.94 67.56, 21.97 67.96, 23.04 67.93 C24.12 67.9, 25.41 68.12, 26.44 68 C27.48 67.88, 28.43 67.82, 29.24 67.21 C30.06 66.59, 30.63 65.65, 31.35 64.28 C32.07 62.92, 32.83 60.81, 33.57 59.01 C34.3 57.22, 34.95 55.65, 35.78 53.52 C36.61 51.39, 37.71 48.52, 38.53 46.24 C39.35 43.96, 40.35 41.43, 40.71 39.86 C41.06 38.3, 40.98 37.59, 40.65 36.87 C40.31 36.15, 39.58 35.8, 38.7 35.55 C37.82 35.29, 36.29 35.41, 35.36 35.33 C34.44 35.26, 33.51 35.6, 33.15 35.1 C32.78 34.6, 33.17 33.28, 33.19 32.32 C33.21 31.36, 33.3 30.42, 33.28 29.34 C33.26 28.26, 33.05 26.81, 33.05 25.86 C33.06 24.9, 32.69 24.74, 33.34 23.61 C33.98 22.49, 35.83 20.53, 36.93 19.1 C38.03 17.66, 39.24 16.18, 39.93 15 C40.63 13.82, 40.98 12.94, 41.09 12.02 C41.2 11.09, 41.17 10.57, 40.6 9.45 C40.04 8.33, 38.69 6.72, 37.69 5.29 C36.69 3.85, 35.49 2.09, 34.6 0.85 C33.71 -0.39, 33 -1.4, 32.35 -2.15 C31.69 -2.91, 31.31 -3.47, 30.66 -3.66 C30.01 -3.84, 29.12 -3.63, 28.44 -3.28 C27.76 -2.93, 27.22 -2.27, 26.58 -1.57 C25.94 -0.88, 25.24 0.03, 24.6 0.89 C23.95 1.74, 23.33 2.72, 22.7 3.57 C22.07 4.42, 21.62 5.59, 20.81 6.01 C20.01 6.42, 18.9 6.13, 17.87 6.05 C16.84 5.97, 15.54 5.57, 14.63 5.53 C13.73 5.5, 12.86 6.22, 12.45 5.84 C12.04 5.45, 12.22 4.38, 12.16 3.22 C12.1 2.05, 12.13 0.04, 12.09 -1.17 C12.05 -2.38, 12.3 -3.24, 11.93 -4.02 C11.55 -4.81, 10.65 -5.83, 9.83 -5.86 C9.01 -5.89, 8.05 -4.8, 7 -4.2 C5.95 -3.6, 4.69 -2.94, 3.53 -2.24 C2.36 -1.54, 0.59 -0.37, 0 0" stroke="#E1E1E1" stroke-width="4" fill="none"></path></g></g><mask></mask><g stroke-linecap="round"><g transform="translate(135.98378223135634 436.3034940538463) rotate(169.06061514823764 10.174875708716584 -1.3465089690175915)"><path d="M0 0 C0.52 -0.56, 2.27 -2.59, 3.15 -3.37 C4.03 -4.15, 4.55 -4.44, 5.27 -4.66 C5.98 -4.88, 6.7 -4.94, 7.45 -4.7 C8.19 -4.45, 8.68 -3.81, 9.73 -3.19 C10.79 -2.57, 12.51 -1.63, 13.78 -0.99 C15.05 -0.35, 16.27 0.15, 17.37 0.65 C18.46 1.15, 19.85 1.78, 20.35 2.01 M0 0 C0.52 -0.56, 2.27 -2.59, 3.15 -3.37 C4.03 -4.15, 4.55 -4.44, 5.27 -4.66 C5.98 -4.88, 6.7 -4.94, 7.45 -4.7 C8.19 -4.45, 8.68 -3.81, 9.73 -3.19 C10.79 -2.57, 12.51 -1.63, 13.78 -0.99 C15.05 -0.35, 16.27 0.15, 17.37 0.65 C18.46 1.15, 19.85 1.78, 20.35 2.01" stroke="#E1E1E1" stroke-width="4" fill="none"></path></g></g><mask></mask><g stroke-linecap="round"><g transform="translate(215.3357096256038 364.09506106577726) rotate(169.06061514823764 -32.75558200834934 31.045667545623743)"><path d="M0 0 C-1.37 -0.67, -6.48 -3.15, -8.23 -4.01 C-9.98 -4.87, -9.66 -4.73, -10.49 -5.15 C-11.33 -5.57, -12.36 -6.38, -13.26 -6.52 C-14.17 -6.66, -14.78 -6.52, -15.92 -5.99 C-17.06 -5.46, -18.4 -4.34, -20.12 -3.35 C-21.84 -2.35, -24.59 -0.91, -26.25 -0.03 C-27.91 0.86, -29.02 1.37, -30.07 1.97 C-31.13 2.57, -31.74 2.87, -32.59 3.59 C-33.45 4.31, -34.51 5.32, -35.2 6.28 C-35.88 7.23, -36.4 8.19, -36.72 9.3 C-37.03 10.42, -37.02 11.57, -37.08 12.95 C-37.13 14.33, -36.98 16.45, -37.04 17.59 C-37.1 18.74, -36.88 18.87, -37.43 19.83 C-37.98 20.78, -39.38 22.1, -40.34 23.31 C-41.3 24.52, -42.46 26.16, -43.18 27.1 C-43.89 28.03, -43.94 28.6, -44.62 28.92 C-45.3 29.23, -46.21 29.04, -47.26 29 C-48.3 28.95, -49.89 28.6, -50.9 28.67 C-51.91 28.73, -52.59 29.07, -53.3 29.41 C-54 29.74, -54.64 30.06, -55.15 30.68 C-55.66 31.3, -55.75 31.78, -56.35 33.12 C-56.95 34.46, -57.92 36.65, -58.74 38.69 C-59.55 40.74, -60.24 42.73, -61.22 45.38 C-62.19 48.03, -63.88 52.54, -64.6 54.6 C-65.31 56.66, -65.47 56.75, -65.51 57.73 C-65.56 58.7, -65.38 59.7, -64.87 60.47 C-64.36 61.24, -63.52 61.63, -62.44 62.32 C-61.36 63.01, -59.73 63.84, -58.39 64.61 C-57.06 65.37, -55.74 66.24, -54.44 66.91 C-53.13 67.58, -51.21 68.33, -50.57 68.62 M0 0 C-1.37 -0.67, -6.48 -3.15, -8.23 -4.01 C-9.98 -4.87, -9.66 -4.73, -10.49 -5.15 C-11.33 -5.57, -12.36 -6.38, -13.26 -6.52 C-14.17 -6.66, -14.78 -6.52, -15.92 -5.99 C-17.06 -5.46, -18.4 -4.34, -20.12 -3.35 C-21.84 -2.35, -24.59 -0.91, -26.25 -0.03 C-27.91 0.86, -29.02 1.37, -30.07 1.97 C-31.13 2.57, -31.74 2.87, -32.59 3.59 C-33.45 4.31, -34.51 5.32, -35.2 6.28 C-35.88 7.23, -36.4 8.19, -36.72 9.3 C-37.03 10.42, -37.02 11.57, -37.08 12.95 C-37.13 14.33, -36.98 16.45, -37.04 17.59 C-37.1 18.74, -36.88 18.87, -37.43 19.83 C-37.98 20.78, -39.38 22.1, -40.34 23.31 C-41.3 24.52, -42.46 26.16, -43.18 27.1 C-43.89 28.03, -43.94 28.6, -44.62 28.92 C-45.3 29.23, -46.21 29.04, -47.26 29 C-48.3 28.95, -49.89 28.6, -50.9 28.67 C-51.91 28.73, -52.59 29.07, -53.3 29.41 C-54 29.74, -54.64 30.06, -55.15 30.68 C-55.66 31.3, -55.75 31.78, -56.35 33.12 C-56.95 34.46, -57.92 36.65, -58.74 38.69 C-59.55 40.74, -60.24 42.73, -61.22 45.38 C-62.19 48.03, -63.88 52.54, -64.6 54.6 C-65.31 56.66, -65.47 56.75, -65.51 57.73 C-65.56 58.7, -65.38 59.7, -64.87 60.47 C-64.36 61.24, -63.52 61.63, -62.44 62.32 C-61.36 63.01, -59.73 63.84, -58.39 64.61 C-57.06 65.37, -55.74 66.24, -54.44 66.91 C-53.13 67.58, -51.21 68.33, -50.57 68.62" stroke="#E1E1E1" stroke-width="4" fill="none"></path></g></g><mask></mask><g stroke-linecap="round"><g transform="translate(204.62322313266097 388.9076124015181) rotate(169.06061514823764 -6.354811570747518 -3.464103996757629)"><path d="M0 0 C-1.39 -0.78, -6.23 -3.5, -8.35 -4.65 C-10.47 -5.81, -11.98 -6.55, -12.71 -6.93 M0 0 C-1.39 -0.78, -6.23 -3.5, -8.35 -4.65 C-10.47 -5.81, -11.98 -6.55, -12.71 -6.93" stroke="#E1E1E1" stroke-width="4" fill="none"></path></g></g><mask></mask><g stroke-linecap="round"><g transform="translate(194.73982813624363 395.9547913809482) rotate(169.06061514823764 -6.954050686331129 -3.647057807584247)"><path d="M0 0 C-1.27 -0.67, -5.32 -2.83, -7.64 -4.05 C-9.96 -5.26, -12.86 -6.75, -13.91 -7.29 M0 0 C-1.27 -0.67, -5.32 -2.83, -7.64 -4.05 C-9.96 -5.26, -12.86 -6.75, -13.91 -7.29" stroke="#E1E1E1" stroke-width="4" fill="none"></path></g></g><mask></mask><g stroke-linecap="round"><g transform="translate(188.1774220223085 407.2038760749664) rotate(169.06061514823764 -6.431592390607754 -3.5973028399700553)"><path d="M0 0 C-1.32 -0.76, -5.8 -3.38, -7.95 -4.58 C-10.09 -5.78, -12.04 -6.76, -12.86 -7.19 M0 0 C-1.32 -0.76, -5.8 -3.38, -7.95 -4.58 C-10.09 -5.78, -12.04 -6.76, -12.86 -7.19" stroke="#E1E1E1" stroke-width="4" fill="none"></path></g></g><mask></mask><g stroke-linecap="round"><g transform="translate(188.76897838488887 315.5634352489204) rotate(169.06061514823764 4.194602305030553 21.09560880554166)"><path d="M0 0 C0 0.82, -0.08 3.6, -0.02 4.9 C0.04 6.19, 0.56 6.97, 0.38 7.75 C0.2 8.54, -0.22 8.55, -1.08 9.6 C-1.95 10.66, -3.82 12.81, -4.79 14.08 C-5.75 15.34, -6.46 16.13, -6.89 17.18 C-7.32 18.22, -7.46 19.31, -7.37 20.35 C-7.29 21.38, -7.2 21.98, -6.38 23.37 C-5.55 24.76, -3.63 27.07, -2.43 28.68 C-1.24 30.29, 0.04 32.04, 0.81 33.04 C1.59 34.05, 1.56 34.2, 2.23 34.72 C2.89 35.24, 3.65 35.51, 4.79 36.17 C5.93 36.83, 7.7 37.88, 9.08 38.7 C10.47 39.52, 11.98 40.52, 13.09 41.1 C14.21 41.68, 15.32 42.01, 15.76 42.19 M0 0 C0 0.82, -0.08 3.6, -0.02 4.9 C0.04 6.19, 0.56 6.97, 0.38 7.75 C0.2 8.54, -0.22 8.55, -1.08 9.6 C-1.95 10.66, -3.82 12.81, -4.79 14.08 C-5.75 15.34, -6.46 16.13, -6.89 17.18 C-7.32 18.22, -7.46 19.31, -7.37 20.35 C-7.29 21.38, -7.2 21.98, -6.38 23.37 C-5.55 24.76, -3.63 27.07, -2.43 28.68 C-1.24 30.29, 0.04 32.04, 0.81 33.04 C1.59 34.05, 1.56 34.2, 2.23 34.72 C2.89 35.24, 3.65 35.51, 4.79 36.17 C5.93 36.83, 7.7 37.88, 9.08 38.7 C10.47 39.52, 11.98 40.52, 13.09 41.1 C14.21 41.68, 15.32 42.01, 15.76 42.19" stroke="#E1E1E1" stroke-width="4" fill="none"></path></g></g><mask></mask><g stroke-linecap="round"><g transform="translate(158.03738616246275 319.0442383954495) rotate(169.06061514823764 6.14644479905499 3.7173605694276546)"><path d="M0 0 C0.73 0.43, 3.02 1.72, 4.36 2.56 C5.7 3.4, 6.72 4.2, 8.05 5.01 C9.37 5.83, 11.58 7.03, 12.29 7.43 M0 0 C0.73 0.43, 3.02 1.72, 4.36 2.56 C5.7 3.4, 6.72 4.2, 8.05 5.01 C9.37 5.83, 11.58 7.03, 12.29 7.43" stroke="#E1E1E1" stroke-width="4" fill="none"></path></g></g><mask></mask><g stroke-linecap="round"><g transform="translate(203.0968529087365 334.97729793966835) rotate(169.06061514823764 -6.3098240982587726 -3.224877915087717)"><path d="M0 0 C-1.34 -0.69, -5.94 -3.05, -8.05 -4.12 C-10.15 -5.2, -11.86 -6.06, -12.62 -6.45 M0 0 C-1.34 -0.69, -5.94 -3.05, -8.05 -4.12 C-10.15 -5.2, -11.86 -6.06, -12.62 -6.45" stroke="#E1E1E1" stroke-width="4" fill="none"></path></g></g><mask></mask><g stroke-linecap="round"><g transform="translate(198.79159701032378 351.16758261695475) rotate(169.06061514823764 -6.518088740554859 -3.5688872237135456)"><path d="M0 0 C-1.19 -0.67, -4.96 -2.82, -7.13 -4.01 C-9.3 -5.2, -12.05 -6.62, -13.04 -7.14 M0 0 C-1.19 -0.67, -4.96 -2.82, -7.13 -4.01 C-9.3 -5.2, -12.05 -6.62, -13.04 -7.14" stroke="#E1E1E1" stroke-width="4" fill="none"></path></g></g><mask></mask><g stroke-linecap="round"><g transform="translate(187.09775059907562 423.12906842605196) rotate(169.06061514823764 -6.3731623949982605 -3.6870423988128707)"><path d="M0 0 C-1.41 -0.8, -6.31 -3.57, -8.43 -4.8 C-10.56 -6.03, -12.03 -6.94, -12.75 -7.37 M0 0 C-1.41 -0.8, -6.31 -3.57, -8.43 -4.8 C-10.56 -6.03, -12.03 -6.94, -12.75 -7.37" stroke="#E1E1E1" stroke-width="4" fill="none"></path></g></g><mask></mask><g stroke-linecap="round"><g transform="translate(157.55103352189664 352.2741211231977) rotate(169.06061514823764 -0.9807574525179135 23.61480826114972)"><path d="M0 0 C-0.72 0.44, -2.99 1.63, -4.31 2.63 C-5.64 3.64, -6.64 4.59, -7.95 6.03 C-9.27 7.46, -10.9 9.51, -12.21 11.25 C-13.51 13, -14.77 14.71, -15.77 16.49 C-16.77 18.27, -17.48 20.06, -18.19 21.93 C-18.91 23.81, -19.59 25.7, -20.08 27.74 C-20.56 29.77, -21 32.14, -21.09 34.13 C-21.18 36.13, -20.94 38.02, -20.6 39.73 C-20.26 41.44, -19.9 42.96, -19.04 44.39 C-18.19 45.83, -16.73 47.44, -15.46 48.34 C-14.19 49.24, -12.92 49.65, -11.41 49.78 C-9.89 49.9, -8.12 49.67, -6.36 49.12 C-4.6 48.56, -2.78 47.6, -0.84 46.44 C1.1 45.28, 3.45 43.86, 5.3 42.15 C7.16 40.43, 8.78 38.2, 10.29 36.15 C11.81 34.11, 13.28 31.94, 14.4 29.87 C15.52 27.81, 16.3 26, 17.04 23.78 C17.79 21.57, 18.53 18.67, 18.88 16.59 C19.23 14.5, 19.19 13.08, 19.13 11.27 C19.07 9.46, 19.13 7.59, 18.54 5.75 C17.95 3.9, 16.91 1.52, 15.57 0.19 C14.23 -1.14, 12.17 -1.75, 10.5 -2.21 C8.83 -2.66, 7.31 -2.91, 5.56 -2.55 C3.81 -2.18, 0.93 -0.42, 0 0 M0 0 C-0.72 0.44, -2.99 1.63, -4.31 2.63 C-5.64 3.64, -6.64 4.59, -7.95 6.03 C-9.27 7.46, -10.9 9.51, -12.21 11.25 C-13.51 13, -14.77 14.71, -15.77 16.49 C-16.77 18.27, -17.48 20.06, -18.19 21.93 C-18.91 23.81, -19.59 25.7, -20.08 27.74 C-20.56 29.77, -21 32.14, -21.09 34.13 C-21.18 36.13, -20.94 38.02, -20.6 39.73 C-20.26 41.44, -19.9 42.96, -19.04 44.39 C-18.19 45.83, -16.73 47.44, -15.46 48.34 C-14.19 49.24, -12.92 49.65, -11.41 49.78 C-9.89 49.9, -8.12 49.67, -6.36 49.12 C-4.6 48.56, -2.78 47.6, -0.84 46.44 C1.1 45.28, 3.45 43.86, 5.3 42.15 C7.16 40.43, 8.78 38.2, 10.29 36.15 C11.81 34.11, 13.28 31.94, 14.4 29.87 C15.52 27.81, 16.3 26, 17.04 23.78 C17.79 21.57, 18.53 18.67, 18.88 16.59 C19.23 14.5, 19.19 13.08, 19.13 11.27 C19.07 9.46, 19.13 7.59, 18.54 5.75 C17.95 3.9, 16.91 1.52, 15.57 0.19 C14.23 -1.14, 12.17 -1.75, 10.5 -2.21 C8.83 -2.66, 7.31 -2.91, 5.56 -2.55 C3.81 -2.18, 0.93 -0.42, 0 0" stroke="#9E75ED" stroke-width="4" fill="none"></path></g></g><mask></mask><g stroke-linecap="round"><g transform="translate(326.32320503386427 107.16712529651602) rotate(197.92927413374747 -0.4552491340824574 48.89177980432501)"><path d="M0 0 C-1.32 0.77, -6.01 3.37, -7.9 4.61 C-9.8 5.86, -10.53 6.49, -11.37 7.48 C-12.2 8.47, -12.62 9.45, -12.92 10.57 C-13.22 11.69, -13.13 12.85, -13.19 14.2 C-13.25 15.54, -13.28 17.51, -13.3 18.64 C-13.31 19.76, -12.98 20.18, -13.27 20.94 C-13.56 21.71, -14.31 22.34, -15.04 23.22 C-15.77 24.11, -16.91 25.32, -17.65 26.26 C-18.39 27.2, -18.92 28.13, -19.47 28.89 C-20.02 29.64, -20.09 30.51, -20.96 30.81 C-21.84 31.11, -23.41 30.81, -24.71 30.7 C-26 30.6, -27.69 30, -28.75 30.16 C-29.8 30.32, -30.37 30.87, -31.06 31.66 C-31.75 32.45, -32.09 33.25, -32.87 34.9 C-33.64 36.56, -34.66 39.1, -35.7 41.59 C-36.74 44.08, -38.15 47.45, -39.09 49.86 C-40.02 52.26, -40.83 54.37, -41.31 56.03 C-41.8 57.68, -42.03 58.73, -42 59.78 C-41.98 60.82, -41.78 61.75, -41.16 62.31 C-40.54 62.86, -39.43 62.95, -38.28 63.09 C-37.13 63.23, -34.95 62.69, -34.27 63.14 C-33.59 63.59, -34.2 64.5, -34.2 65.79 C-34.2 67.08, -34.26 69.52, -34.26 70.88 C-34.27 72.24, -33.89 73, -34.23 73.96 C-34.56 74.91, -35.47 75.57, -36.27 76.63 C-37.07 77.69, -38.2 79.22, -39.03 80.33 C-39.85 81.44, -40.76 82.26, -41.23 83.29 C-41.71 84.31, -41.91 85.43, -41.86 86.48 C-41.81 87.53, -41.58 88.36, -40.94 89.57 C-40.29 90.79, -38.98 92.33, -37.99 93.78 C-36.99 95.22, -35.88 97, -34.97 98.26 C-34.06 99.52, -33.36 100.8, -32.5 101.33 C-31.64 101.86, -30.65 101.73, -29.83 101.44 C-29 101.15, -28.32 100.42, -27.55 99.58 C-26.77 98.73, -25.99 97.44, -25.17 96.39 C-24.36 95.34, -23.3 94.05, -22.63 93.26 C-21.96 92.47, -21.81 91.84, -21.13 91.65 C-20.45 91.46, -19.37 91.96, -18.55 92.09 C-17.72 92.22, -17.03 92.35, -16.15 92.44 C-15.28 92.53, -13.83 92.2, -13.31 92.62 C-12.8 93.04, -13.13 93.78, -13.09 94.94 C-13.05 96.1, -13.09 98.33, -13.09 99.57 C-13.08 100.82, -13.41 101.74, -13.06 102.42 C-12.71 103.1, -11.7 103.59, -10.99 103.65 C-10.29 103.7, -10.37 103.58, -8.83 102.76 C-7.3 101.93, -3.89 99.92, -1.79 98.72 C0.31 97.52, 2.09 96.56, 3.78 95.54 C5.48 94.53, 7.19 93.65, 8.39 92.66 C9.59 91.67, 10.35 90.67, 10.96 89.59 C11.57 88.51, 11.86 87.73, 12.04 86.2 C12.23 84.66, 12.05 81.73, 12.05 80.37 C12.05 79, 11.74 78.81, 12.05 78.01 C12.36 77.21, 13.02 76.64, 13.89 75.58 C14.76 74.53, 16.24 72.93, 17.26 71.7 C18.27 70.47, 19.01 68.81, 19.98 68.19 C20.94 67.56, 21.97 67.96, 23.04 67.93 C24.12 67.9, 25.41 68.12, 26.44 68 C27.48 67.88, 28.43 67.82, 29.24 67.21 C30.06 66.59, 30.63 65.65, 31.35 64.28 C32.07 62.92, 32.83 60.81, 33.57 59.01 C34.3 57.22, 34.95 55.65, 35.78 53.52 C36.61 51.39, 37.71 48.52, 38.53 46.24 C39.35 43.96, 40.35 41.43, 40.71 39.86 C41.06 38.3, 40.98 37.59, 40.65 36.87 C40.31 36.15, 39.58 35.8, 38.7 35.55 C37.82 35.29, 36.29 35.41, 35.36 35.33 C34.44 35.26, 33.51 35.6, 33.15 35.1 C32.78 34.6, 33.17 33.28, 33.19 32.32 C33.21 31.36, 33.3 30.42, 33.28 29.34 C33.26 28.26, 33.05 26.81, 33.05 25.86 C33.06 24.9, 32.69 24.74, 33.34 23.61 C33.98 22.49, 35.83 20.53, 36.93 19.1 C38.03 17.66, 39.24 16.18, 39.93 15 C40.63 13.82, 40.98 12.94, 41.09 12.02 C41.2 11.09, 41.17 10.57, 40.6 9.45 C40.04 8.33, 38.69 6.72, 37.69 5.29 C36.69 3.85, 35.49 2.09, 34.6 0.85 C33.71 -0.39, 33 -1.4, 32.35 -2.15 C31.69 -2.91, 31.31 -3.47, 30.66 -3.66 C30.01 -3.84, 29.12 -3.63, 28.44 -3.28 C27.76 -2.93, 27.22 -2.27, 26.58 -1.57 C25.94 -0.88, 25.24 0.03, 24.6 0.89 C23.95 1.74, 23.33 2.72, 22.7 3.57 C22.07 4.42, 21.62 5.59, 20.81 6.01 C20.01 6.42, 18.9 6.13, 17.87 6.05 C16.84 5.97, 15.54 5.57, 14.63 5.53 C13.73 5.5, 12.86 6.22, 12.45 5.84 C12.04 5.45, 12.22 4.38, 12.16 3.22 C12.1 2.05, 12.13 0.04, 12.09 -1.17 C12.05 -2.38, 12.3 -3.24, 11.93 -4.02 C11.55 -4.81, 10.65 -5.83, 9.83 -5.86 C9.01 -5.89, 8.05 -4.8, 7 -4.2 C5.95 -3.6, 4.69 -2.94, 3.53 -2.24 C2.36 -1.54, 0.59 -0.37, 0 0 M0 0 C-1.32 0.77, -6.01 3.37, -7.9 4.61 C-9.8 5.86, -10.53 6.49, -11.37 7.48 C-12.2 8.47, -12.62 9.45, -12.92 10.57 C-13.22 11.69, -13.13 12.85, -13.19 14.2 C-13.25 15.54, -13.28 17.51, -13.3 18.64 C-13.31 19.76, -12.98 20.18, -13.27 20.94 C-13.56 21.71, -14.31 22.34, -15.04 23.22 C-15.77 24.11, -16.91 25.32, -17.65 26.26 C-18.39 27.2, -18.92 28.13, -19.47 28.89 C-20.02 29.64, -20.09 30.51, -20.96 30.81 C-21.84 31.11, -23.41 30.81, -24.71 30.7 C-26 30.6, -27.69 30, -28.75 30.16 C-29.8 30.32, -30.37 30.87, -31.06 31.66 C-31.75 32.45, -32.09 33.25, -32.87 34.9 C-33.64 36.56, -34.66 39.1, -35.7 41.59 C-36.74 44.08, -38.15 47.45, -39.09 49.86 C-40.02 52.26, -40.83 54.37, -41.31 56.03 C-41.8 57.68, -42.03 58.73, -42 59.78 C-41.98 60.82, -41.78 61.75, -41.16 62.31 C-40.54 62.86, -39.43 62.95, -38.28 63.09 C-37.13 63.23, -34.95 62.69, -34.27 63.14 C-33.59 63.59, -34.2 64.5, -34.2 65.79 C-34.2 67.08, -34.26 69.52, -34.26 70.88 C-34.27 72.24, -33.89 73, -34.23 73.96 C-34.56 74.91, -35.47 75.57, -36.27 76.63 C-37.07 77.69, -38.2 79.22, -39.03 80.33 C-39.85 81.44, -40.76 82.26, -41.23 83.29 C-41.71 84.31, -41.91 85.43, -41.86 86.48 C-41.81 87.53, -41.58 88.36, -40.94 89.57 C-40.29 90.79, -38.98 92.33, -37.99 93.78 C-36.99 95.22, -35.88 97, -34.97 98.26 C-34.06 99.52, -33.36 100.8, -32.5 101.33 C-31.64 101.86, -30.65 101.73, -29.83 101.44 C-29 101.15, -28.32 100.42, -27.55 99.58 C-26.77 98.73, -25.99 97.44, -25.17 96.39 C-24.36 95.34, -23.3 94.05, -22.63 93.26 C-21.96 92.47, -21.81 91.84, -21.13 91.65 C-20.45 91.46, -19.37 91.96, -18.55 92.09 C-17.72 92.22, -17.03 92.35, -16.15 92.44 C-15.28 92.53, -13.83 92.2, -13.31 92.62 C-12.8 93.04, -13.13 93.78, -13.09 94.94 C-13.05 96.1, -13.09 98.33, -13.09 99.57 C-13.08 100.82, -13.41 101.74, -13.06 102.42 C-12.71 103.1, -11.7 103.59, -10.99 103.65 C-10.29 103.7, -10.37 103.58, -8.83 102.76 C-7.3 101.93, -3.89 99.92, -1.79 98.72 C0.31 97.52, 2.09 96.56, 3.78 95.54 C5.48 94.53, 7.19 93.65, 8.39 92.66 C9.59 91.67, 10.35 90.67, 10.96 89.59 C11.57 88.51, 11.86 87.73, 12.04 86.2 C12.23 84.66, 12.05 81.73, 12.05 80.37 C12.05 79, 11.74 78.81, 12.05 78.01 C12.36 77.21, 13.02 76.64, 13.89 75.58 C14.76 74.53, 16.24 72.93, 17.26 71.7 C18.27 70.47, 19.01 68.81, 19.98 68.19 C20.94 67.56, 21.97 67.96, 23.04 67.93 C24.12 67.9, 25.41 68.12, 26.44 68 C27.48 67.88, 28.43 67.82, 29.24 67.21 C30.06 66.59, 30.63 65.65, 31.35 64.28 C32.07 62.92, 32.83 60.81, 33.57 59.01 C34.3 57.22, 34.95 55.65, 35.78 53.52 C36.61 51.39, 37.71 48.52, 38.53 46.24 C39.35 43.96, 40.35 41.43, 40.71 39.86 C41.06 38.3, 40.98 37.59, 40.65 36.87 C40.31 36.15, 39.58 35.8, 38.7 35.55 C37.82 35.29, 36.29 35.41, 35.36 35.33 C34.44 35.26, 33.51 35.6, 33.15 35.1 C32.78 34.6, 33.17 33.28, 33.19 32.32 C33.21 31.36, 33.3 30.42, 33.28 29.34 C33.26 28.26, 33.05 26.81, 33.05 25.86 C33.06 24.9, 32.69 24.74, 33.34 23.61 C33.98 22.49, 35.83 20.53, 36.93 19.1 C38.03 17.66, 39.24 16.18, 39.93 15 C40.63 13.82, 40.98 12.94, 41.09 12.02 C41.2 11.09, 41.17 10.57, 40.6 9.45 C40.04 8.33, 38.69 6.72, 37.69 5.29 C36.69 3.85, 35.49 2.09, 34.6 0.85 C33.71 -0.39, 33 -1.4, 32.35 -2.15 C31.69 -2.91, 31.31 -3.47, 30.66 -3.66 C30.01 -3.84, 29.12 -3.63, 28.44 -3.28 C27.76 -2.93, 27.22 -2.27, 26.58 -1.57 C25.94 -0.88, 25.24 0.03, 24.6 0.89 C23.95 1.74, 23.33 2.72, 22.7 3.57 C22.07 4.42, 21.62 5.59, 20.81 6.01 C20.01 6.42, 18.9 6.13, 17.87 6.05 C16.84 5.97, 15.54 5.57, 14.63 5.53 C13.73 5.5, 12.86 6.22, 12.45 5.84 C12.04 5.45, 12.22 4.38, 12.16 3.22 C12.1 2.05, 12.13 0.04, 12.09 -1.17 C12.05 -2.38, 12.3 -3.24, 11.93 -4.02 C11.55 -4.81, 10.65 -5.83, 9.83 -5.86 C9.01 -5.89, 8.05 -4.8, 7 -4.2 C5.95 -3.6, 4.69 -2.94, 3.53 -2.24 C2.36 -1.54, 0.59 -0.37, 0 0" stroke="#E1E1E1" stroke-width="4" fill="none"></path></g></g><mask></mask><g stroke-linecap="round"><g transform="translate(278.17729215746795 204.01190403258158) rotate(197.92927413374747 10.174875708716588 -1.3465089690175773)"><path d="M0 0 C0.52 -0.56, 2.27 -2.59, 3.15 -3.37 C4.03 -4.15, 4.55 -4.44, 5.27 -4.66 C5.98 -4.88, 6.7 -4.94, 7.45 -4.7 C8.19 -4.45, 8.68 -3.81, 9.73 -3.19 C10.79 -2.57, 12.51 -1.63, 13.78 -0.99 C15.05 -0.35, 16.27 0.15, 17.37 0.65 C18.46 1.15, 19.85 1.78, 20.35 2.01 M0 0 C0.52 -0.56, 2.27 -2.59, 3.15 -3.37 C4.03 -4.15, 4.55 -4.44, 5.27 -4.66 C5.98 -4.88, 6.7 -4.94, 7.45 -4.7 C8.19 -4.45, 8.68 -3.81, 9.73 -3.19 C10.79 -2.57, 12.51 -1.63, 13.78 -0.99 C15.05 -0.35, 16.27 0.15, 17.37 0.65 C18.46 1.15, 19.85 1.78, 20.35 2.01" stroke="#E1E1E1" stroke-width="4" fill="none"></path></g></g><mask></mask><g stroke-linecap="round"><g transform="translate(372.2007070622017 154.32743378772182) rotate(197.92927413374747 -32.75558200834934 31.04566754562373)"><path d="M0 0 C-1.37 -0.67, -6.48 -3.15, -8.23 -4.01 C-9.98 -4.87, -9.66 -4.73, -10.49 -5.15 C-11.33 -5.57, -12.36 -6.38, -13.26 -6.52 C-14.17 -6.66, -14.78 -6.52, -15.92 -5.99 C-17.06 -5.46, -18.4 -4.34, -20.12 -3.35 C-21.84 -2.35, -24.59 -0.91, -26.25 -0.03 C-27.91 0.86, -29.02 1.37, -30.07 1.97 C-31.13 2.57, -31.74 2.87, -32.59 3.59 C-33.45 4.31, -34.51 5.32, -35.2 6.28 C-35.88 7.23, -36.4 8.19, -36.72 9.3 C-37.03 10.42, -37.02 11.57, -37.08 12.95 C-37.13 14.33, -36.98 16.45, -37.04 17.59 C-37.1 18.74, -36.88 18.87, -37.43 19.83 C-37.98 20.78, -39.38 22.1, -40.34 23.31 C-41.3 24.52, -42.46 26.16, -43.18 27.1 C-43.89 28.03, -43.94 28.6, -44.62 28.92 C-45.3 29.23, -46.21 29.04, -47.26 29 C-48.3 28.95, -49.89 28.6, -50.9 28.67 C-51.91 28.73, -52.59 29.07, -53.3 29.41 C-54 29.74, -54.64 30.06, -55.15 30.68 C-55.66 31.3, -55.75 31.78, -56.35 33.12 C-56.95 34.46, -57.92 36.65, -58.74 38.69 C-59.55 40.74, -60.24 42.73, -61.22 45.38 C-62.19 48.03, -63.88 52.54, -64.6 54.6 C-65.31 56.66, -65.47 56.75, -65.51 57.73 C-65.56 58.7, -65.38 59.7, -64.87 60.47 C-64.36 61.24, -63.52 61.63, -62.44 62.32 C-61.36 63.01, -59.73 63.84, -58.39 64.61 C-57.06 65.37, -55.74 66.24, -54.44 66.91 C-53.13 67.58, -51.21 68.33, -50.57 68.62 M0 0 C-1.37 -0.67, -6.48 -3.15, -8.23 -4.01 C-9.98 -4.87, -9.66 -4.73, -10.49 -5.15 C-11.33 -5.57, -12.36 -6.38, -13.26 -6.52 C-14.17 -6.66, -14.78 -6.52, -15.92 -5.99 C-17.06 -5.46, -18.4 -4.34, -20.12 -3.35 C-21.84 -2.35, -24.59 -0.91, -26.25 -0.03 C-27.91 0.86, -29.02 1.37, -30.07 1.97 C-31.13 2.57, -31.74 2.87, -32.59 3.59 C-33.45 4.31, -34.51 5.32, -35.2 6.28 C-35.88 7.23, -36.4 8.19, -36.72 9.3 C-37.03 10.42, -37.02 11.57, -37.08 12.95 C-37.13 14.33, -36.98 16.45, -37.04 17.59 C-37.1 18.74, -36.88 18.87, -37.43 19.83 C-37.98 20.78, -39.38 22.1, -40.34 23.31 C-41.3 24.52, -42.46 26.16, -43.18 27.1 C-43.89 28.03, -43.94 28.6, -44.62 28.92 C-45.3 29.23, -46.21 29.04, -47.26 29 C-48.3 28.95, -49.89 28.6, -50.9 28.67 C-51.91 28.73, -52.59 29.07, -53.3 29.41 C-54 29.74, -54.64 30.06, -55.15 30.68 C-55.66 31.3, -55.75 31.78, -56.35 33.12 C-56.95 34.46, -57.92 36.65, -58.74 38.69 C-59.55 40.74, -60.24 42.73, -61.22 45.38 C-62.19 48.03, -63.88 52.54, -64.6 54.6 C-65.31 56.66, -65.47 56.75, -65.51 57.73 C-65.56 58.7, -65.38 59.7, -64.87 60.47 C-64.36 61.24, -63.52 61.63, -62.44 62.32 C-61.36 63.01, -59.73 63.84, -58.39 64.61 C-57.06 65.37, -55.74 66.24, -54.44 66.91 C-53.13 67.58, -51.21 68.33, -50.57 68.62" stroke="#E1E1E1" stroke-width="4" fill="none"></path></g></g><mask></mask><g stroke-linecap="round"><g transform="translate(364.20797335860743 187.91803539674663) rotate(197.92927413374747 -6.354811570747522 -3.464103996757615)"><path d="M0 0 C-1.39 -0.78, -6.23 -3.5, -8.35 -4.65 C-10.47 -5.81, -11.98 -6.55, -12.71 -6.93 M0 0 C-1.39 -0.78, -6.23 -3.5, -8.35 -4.65 C-10.47 -5.81, -11.98 -6.55, -12.71 -6.93" stroke="#E1E1E1" stroke-width="4" fill="none"></path></g></g><mask></mask><g stroke-linecap="round"><g transform="translate(352.3131969261881 189.0511368685501) rotate(197.92927413374747 -6.954050686331129 -3.647057807584247)"><path d="M0 0 C-1.27 -0.67, -5.32 -2.83, -7.64 -4.05 C-9.96 -5.26, -12.86 -6.75, -13.91 -7.29 M0 0 C-1.27 -0.67, -5.32 -2.83, -7.64 -4.05 C-9.96 -5.26, -12.86 -6.75, -13.91 -7.29" stroke="#E1E1E1" stroke-width="4" fill="none"></path></g></g><mask></mask><g stroke-linecap="round"><g transform="translate(341.04626413089545 195.9799931577753) rotate(197.92927413374747 -6.431592390607754 -3.597302839970041)"><path d="M0 0 C-1.32 -0.76, -5.8 -3.38, -7.95 -4.58 C-10.09 -5.78, -12.04 -6.76, -12.86 -7.19 M0 0 C-1.32 -0.76, -5.8 -3.38, -7.95 -4.58 C-10.09 -5.78, -12.04 -6.76, -12.86 -7.19" stroke="#E1E1E1" stroke-width="4" fill="none"></path></g></g><mask></mask><g stroke-linecap="round"><g transform="translate(372.5677795503966 118.06932162910459) rotate(197.92927413374747 4.19460230503055 21.095608805541644)"><path d="M0 0 C0 0.82, -0.08 3.6, -0.02 4.9 C0.04 6.19, 0.56 6.97, 0.38 7.75 C0.2 8.54, -0.22 8.55, -1.08 9.6 C-1.95 10.66, -3.82 12.81, -4.79 14.08 C-5.75 15.34, -6.46 16.13, -6.89 17.18 C-7.32 18.22, -7.46 19.31, -7.37 20.35 C-7.29 21.38, -7.2 21.98, -6.38 23.37 C-5.55 24.76, -3.63 27.07, -2.43 28.68 C-1.24 30.29, 0.04 32.04, 0.81 33.04 C1.59 34.05, 1.56 34.2, 2.23 34.72 C2.89 35.24, 3.65 35.51, 4.79 36.17 C5.93 36.83, 7.7 37.88, 9.08 38.7 C10.47 39.52, 11.98 40.52, 13.09 41.1 C14.21 41.68, 15.32 42.01, 15.76 42.19 M0 0 C0 0.82, -0.08 3.6, -0.02 4.9 C0.04 6.19, 0.56 6.97, 0.38 7.75 C0.2 8.54, -0.22 8.55, -1.08 9.6 C-1.95 10.66, -3.82 12.81, -4.79 14.08 C-5.75 15.34, -6.46 16.13, -6.89 17.18 C-7.32 18.22, -7.46 19.31, -7.37 20.35 C-7.29 21.38, -7.2 21.98, -6.38 23.37 C-5.55 24.76, -3.63 27.07, -2.43 28.68 C-1.24 30.29, 0.04 32.04, 0.81 33.04 C1.59 34.05, 1.56 34.2, 2.23 34.72 C2.89 35.24, 3.65 35.51, 4.79 36.17 C5.93 36.83, 7.7 37.88, 9.08 38.7 C10.47 39.52, 11.98 40.52, 13.09 41.1 C14.21 41.68, 15.32 42.01, 15.76 42.19" stroke="#E1E1E1" stroke-width="4" fill="none"></path></g></g><mask></mask><g stroke-linecap="round"><g transform="translate(352.12091049163837 109.38806804685271) rotate(197.92927413374747 6.14644479905499 3.7173605694276546)"><path d="M0 0 C0.73 0.43, 3.02 1.72, 4.36 2.56 C5.7 3.4, 6.72 4.2, 8.05 5.01 C9.37 5.83, 11.58 7.03, 12.29 7.43 M0 0 C0.73 0.43, 3.02 1.72, 4.36 2.56 C5.7 3.4, 6.72 4.2, 8.05 5.01 C9.37 5.83, 11.58 7.03, 12.29 7.43" stroke="#E1E1E1" stroke-width="4" fill="none"></path></g></g><mask></mask><g stroke-linecap="round"><g transform="translate(388.7879379642768 139.94476275025124) rotate(197.92927413374747 -6.3098240982587726 -3.224877915087717)"><path d="M0 0 C-1.34 -0.69, -5.94 -3.05, -8.05 -4.12 C-10.15 -5.2, -11.86 -6.06, -12.62 -6.45 M0 0 C-1.34 -0.69, -5.94 -3.05, -8.05 -4.12 C-10.15 -5.2, -11.86 -6.06, -12.62 -6.45" stroke="#E1E1E1" stroke-width="4" fill="none"></path></g></g><mask></mask><g stroke-linecap="round"><g transform="translate(377.3929468137144 151.98666784129534) rotate(197.92927413374747 -6.518088740554859 -3.5688872237135456)"><path d="M0 0 C-1.19 -0.67, -4.96 -2.82, -7.13 -4.01 C-9.3 -5.2, -12.05 -6.62, -13.04 -7.14 M0 0 C-1.19 -0.67, -4.96 -2.82, -7.13 -4.01 C-9.3 -5.2, -12.05 -6.62, -13.04 -7.14" stroke="#E1E1E1" stroke-width="4" fill="none"></path></g></g><mask></mask><g stroke-linecap="round"><g transform="translate(332.4480927535037 209.44423518665724) rotate(197.92927413374747 -6.3731623949982605 -3.6870423988128778)"><path d="M0 0 C-1.41 -0.8, -6.31 -3.57, -8.43 -4.8 C-10.56 -6.03, -12.03 -6.94, -12.75 -7.37 M0 0 C-1.41 -0.8, -6.31 -3.57, -8.43 -4.8 C-10.56 -6.03, -12.03 -6.94, -12.75 -7.37" stroke="#E1E1E1" stroke-width="4" fill="none"></path></g></g><mask></mask><g stroke-linecap="round"><g transform="translate(326.9638672564947 132.35344641749987) rotate(197.92927413374747 -0.9807574525179135 23.614808261149733)"><path d="M0 0 C-0.72 0.44, -2.99 1.63, -4.31 2.63 C-5.64 3.64, -6.64 4.59, -7.95 6.03 C-9.27 7.46, -10.9 9.51, -12.21 11.25 C-13.51 13, -14.77 14.71, -15.77 16.49 C-16.77 18.27, -17.48 20.06, -18.19 21.93 C-18.91 23.81, -19.59 25.7, -20.08 27.74 C-20.56 29.77, -21 32.14, -21.09 34.13 C-21.18 36.13, -20.94 38.02, -20.6 39.73 C-20.26 41.44, -19.9 42.96, -19.04 44.39 C-18.19 45.83, -16.73 47.44, -15.46 48.34 C-14.19 49.24, -12.92 49.65, -11.41 49.78 C-9.89 49.9, -8.12 49.67, -6.36 49.12 C-4.6 48.56, -2.78 47.6, -0.84 46.44 C1.1 45.28, 3.45 43.86, 5.3 42.15 C7.16 40.43, 8.78 38.2, 10.29 36.15 C11.81 34.11, 13.28 31.94, 14.4 29.87 C15.52 27.81, 16.3 26, 17.04 23.78 C17.79 21.57, 18.53 18.67, 18.88 16.59 C19.23 14.5, 19.19 13.08, 19.13 11.27 C19.07 9.46, 19.13 7.59, 18.54 5.75 C17.95 3.9, 16.91 1.52, 15.57 0.19 C14.23 -1.14, 12.17 -1.75, 10.5 -2.21 C8.83 -2.66, 7.31 -2.91, 5.56 -2.55 C3.81 -2.18, 0.93 -0.42, 0 0 M0 0 C-0.72 0.44, -2.99 1.63, -4.31 2.63 C-5.64 3.64, -6.64 4.59, -7.95 6.03 C-9.27 7.46, -10.9 9.51, -12.21 11.25 C-13.51 13, -14.77 14.71, -15.77 16.49 C-16.77 18.27, -17.48 20.06, -18.19 21.93 C-18.91 23.81, -19.59 25.7, -20.08 27.74 C-20.56 29.77, -21 32.14, -21.09 34.13 C-21.18 36.13, -20.94 38.02, -20.6 39.73 C-20.26 41.44, -19.9 42.96, -19.04 44.39 C-18.19 45.83, -16.73 47.44, -15.46 48.34 C-14.19 49.24, -12.92 49.65, -11.41 49.78 C-9.89 49.9, -8.12 49.67, -6.36 49.12 C-4.6 48.56, -2.78 47.6, -0.84 46.44 C1.1 45.28, 3.45 43.86, 5.3 42.15 C7.16 40.43, 8.78 38.2, 10.29 36.15 C11.81 34.11, 13.28 31.94, 14.4 29.87 C15.52 27.81, 16.3 26, 17.04 23.78 C17.79 21.57, 18.53 18.67, 18.88 16.59 C19.23 14.5, 19.19 13.08, 19.13 11.27 C19.07 9.46, 19.13 7.59, 18.54 5.75 C17.95 3.9, 16.91 1.52, 15.57 0.19 C14.23 -1.14, 12.17 -1.75, 10.5 -2.21 C8.83 -2.66, 7.31 -2.91, 5.56 -2.55 C3.81 -2.18, 0.93 -0.42, 0 0" stroke="#B3A2FA" stroke-width="4" fill="none"></path></g></g><mask></mask></svg>