<svg version="1.1" xmlns="http://www.w3.org/2000/svg" viewBox="0 0 506.0862042150279 557.8508874291005" width="506.0862042150279" height="557.8508874291005" class="excalidraw-svg"><!-- svg-source:excalidraw --><metadata></metadata><defs><style class="style-fonts">
      </style></defs><rect x="0" y="0" width="506.0862042150279" height="557.8508874291005" fill="#000000"></rect><g stroke-linecap="round"><g transform="translate(161.02039465033772 333.72544153672385) rotate(169.06061514823764 -0.4552491340824574 48.891779804325026)"><path d="M0 0 C-1.32 0.77, -6.01 3.37, -7.9 4.61 C-9.8 5.86, -10.53 6.49, -11.37 7.48 C-12.2 8.47, -12.62 9.45, -12.92 10.57 C-13.22 11.69, -13.13 12.85, -13.19 14.2 C-13.25 15.54, -13.28 17.51, -13.3 18.64 C-13.31 19.76, -12.98 20.18, -13.27 20.94 C-13.56 21.71, -14.31 22.34, -15.04 23.22 C-15.77 24.11, -16.91 25.32, -17.65 26.26 C-18.39 27.2, -18.92 28.13, -19.47 28.89 C-20.02 29.64, -20.09 30.51, -20.96 30.81 C-21.84 31.11, -23.41 30.81, -24.71 30.7 C-26 30.6, -27.69 30, -28.75 30.16 C-29.8 30.32, -30.37 30.87, -31.06 31.66 C-31.75 32.45, -32.09 33.25, -32.87 34.9 C-33.64 36.56, -34.66 39.1, -35.7 41.59 C-36.74 44.08, -38.15 47.45, -39.09 49.86 C-40.02 52.26, -40.83 54.37, -41.31 56.03 C-41.8 57.68, -42.03 58.73, -42 59.78 C-41.98 60.82, -41.78 61.75, -41.16 62.31 C-40.54 62.86, -39.43 62.95, -38.28 63.09 C-37.13 63.23, -34.95 62.69, -34.27 63.14 C-33.59 63.59, -34.2 64.5, -34.2 65.79 C-34.2 67.08, -34.26 69.52, -34.26 70.88 C-34.27 72.24, -33.89 73, -34.23 73.96 C-34.56 74.91, -35.47 75.57, -36.27 76.63 C-37.07 77.69, -38.2 79.22, -39.03 80.33 C-39.85 81.44, -40.76 82.26, -41.23 83.29 C-41.71 84.31, -41.91 85.43, -41.86 86.48 C-41.81 87.53, -41.58 88.36, -40.94 89.57 C-40.29 90.79, -38.98 92.33, -37.99 93.78 C-36.99 95.22, -35.88 97, -34.97 98.26 C-34.06 99.52, -33.36 100.8, -32.5 101.33 C-31.64 101.86, -30.65 101.73, -29.83 101.44 C-29 101.15, -28.32 100.42, -27.55 99.58 C-26.77 98.73, -25.99 97.44, -25.17 96.39 C-24.36 95.34, -23.3 94.05, -22.63 93.26 C-21.96 92.47, -21.81 91.84, -21.13 91.65 C-20.45 91.46, -19.37 91.96, -18.55 92.09 C-17.72 92.22, -17.03 92.35, -16.15 92.44 C-15.28 92.53, -13.83 92.2, -13.31 92.62 C-12.8 93.04, -13.13 93.78, -13.09 94.94 C-13.05 96.1, -13.09 98.33, -13.09 99.57 C-13.08 100.82, -13.41 101.74, -13.06 102.42 C-12.71 103.1, -11.7 103.59, -10.99 103.65 C-10.29 103.7, -10.37 103.58, -8.83 102.76 C-7.3 101.93, -3.89 99.92, -1.79 98.72 C0.31 97.52, 2.09 96.56, 3.78 95.54 C5.48 94.53, 7.19 93.65, 8.39 92.66 C9.59 91.67, 10.35 90.67, 10.96 89.59 C11.57 88.51, 11.86 87.73, 12.04 86.2 C12.23 84.66, 12.05 81.73, 12.05 80.37 C12.05 79, 11.74 78.81, 12.05 78.01 C12.36 77.21, 13.02 76.64, 13.89 75.58 C14.76 74.53, 16.24 72.93, 17.26 71.7 C18.27 70.47, 19.01 68.81, 19.98 68.19 C20.94 67.56, 21.97 67.96, 23.04 67.93 C24.12 67.9, 25.41 68.12, 26.44 68 C27.48 67.88, 28.43 67.82, 29.24 67.21 C30.06 66.59, 30.63 65.65, 31.35 64.28 C32.07 62.92, 32.83 60.81, 33.57 59.01 C34.3 57.22, 34.95 55.65, 35.78 53.52 C36.61 51.39, 37.71 48.52, 38.53 46.24 C39.35 43.96, 40.35 41.43, 40.71 39.86 C41.06 38.3, 40.98 37.59, 40.65 36.87 C40.31 36.15, 39.58 35.8, 38.7 35.55 C37.82 35.29, 36.29 35.41, 35.36 35.33 C34.44 35.26, 33.51 35.6, 33.15 35.1 C32.78 34.6, 33.17 33.28, 33.19 32.32 C33.21 31.36, 33.3 30.42, 33.28 29.34 C33.26 28.26, 33.05 26.81, 33.05 25.86 C33.06 24.9, 32.69 24.74, 33.34 23.61 C33.98 22.49, 35.83 20.53, 36.93 19.1 C38.03 17.66, 39.24 16.18, 39.93 15 C40.63 13.82, 40.98 12.94, 41.09 12.02 C41.2 11.09, 41.17 10.57, 40.6 9.45 C40.04 8.33, 38.69 6.72, 37.69 5.29 C36.69 3.85, 35.49 2.09, 34.6 0.85 C33.71 -0.39, 33 -1.4, 32.35 -2.15 C31.69 -2.91, 31.31 -3.47, 30.66 -3.66 C30.01 -3.84, 29.12 -3.63, 28.44 -3.28 C27.76 -2.93, 27.22 -2.27, 26.58 -1.57 C25.94 -0.88, 25.24 0.03, 24.6 0.89 C23.95 1.74, 23.33 2.72, 22.7 3.57 C22.07 4.42, 21.62 5.59, 20.81 6.01 C20.01 6.42, 18.9 6.13, 17.87 6.05 C16.84 5.97, 15.54 5.57, 14.63 5.53 C13.73 5.5, 12.86 6.22, 12.45 5.84 C12.04 5.45, 12.22 4.38, 12.16 3.22 C12.1 2.05, 12.13 0.04, 12.09 -1.17 C12.05 -2.38, 12.3 -3.24, 11.93 -4.02 C11.55 -4.81, 10.65 -5.83, 9.83 -5.86 C9.01 -5.89, 8.05 -4.8, 7 -4.2 C5.95 -3.6, 4.69 -2.94, 3.53 -2.24 C2.36 -1.54, 0.59 -0.37, 0 0 M0 0 C-1.32 0.77, -6.01 3.37, -7.9 4.61 C-9.8 5.86, -10.53 6.49, -11.37 7.48 C-12.2 8.47, -12.62 9.45, -12.92 10.57 C-13.22 11.69, -13.13 12.85, -13.19 14.2 C-13.25 15.54, -13.28 17.51, -13.3 18.64 C-13.31 19.76, -12.98 20.18, -13.27 20.94 C-13.56 21.71, -14.31 22.34, -15.04 23.22 C-15.77 24.11, -16.91 25.32, -17.65 26.26 C-18.39 27.2, -18.92 28.13, -19.47 28.89 C-20.02 29.64, -20.09 30.51, -20.96 30.81 C-21.84 31.11, -23.41 30.81, -24.71 30.7 C-26 30.6, -27.69 30, -28.75 30.16 C-29.8 30.32, -30.37 30.87, -31.06 31.66 C-31.75 32.45, -32.09 33.25, -32.87 34.9 C-33.64 36.56, -34.66 39.1, -35.7 41.59 C-36.74 44.08, -38.15 47.45, -39.09 49.86 C-40.02 52.26, -40.83 54.37, -41.31 56.03 C-41.8 57.68, -42.03 58.73, -42 59.78 C-41.98 60.82, -41.78 61.75, -41.16 62.31 C-40.54 62.86, -39.43 62.95, -38.28 63.09 C-37.13 63.23, -34.95 62.69, -34.27 63.14 C-33.59 63.59, -34.2 64.5, -34.2 65.79 C-34.2 67.08, -34.26 69.52, -34.26 70.88 C-34.27 72.24, -33.89 73, -34.23 73.96 C-34.56 74.91, -35.47 75.57, -36.27 76.63 C-37.07 77.69, -38.2 79.22, -39.03 80.33 C-39.85 81.44, -40.76 82.26, -41.23 83.29 C-41.71 84.31, -41.91 85.43, -41.86 86.48 C-41.81 87.53, -41.58 88.36, -40.94 89.57 C-40.29 90.79, -38.98 92.33, -37.99 93.78 C-36.99 95.22, -35.88 97, -34.97 98.26 C-34.06 99.52, -33.36 100.8, -32.5 101.33 C-31.64 101.86, -30.65 101.73, -29.83 101.44 C-29 101.15, -28.32 100.42, -27.55 99.58 C-26.77 98.73, -25.99 97.44, -25.17 96.39 C-24.36 95.34, -23.3 94.05, -22.63 93.26 C-21.96 92.47, -21.81 91.84, -21.13 91.65 C-20.45 91.46, -19.37 91.96, -18.55 92.09 C-17.72 92.22, -17.03 92.35, -16.15 92.44 C-15.28 92.53, -13.83 92.2, -13.31 92.62 C-12.8 93.04, -13.13 93.78, -13.09 94.94 C-13.05 96.1, -13.09 98.33, -13.09 99.57 C-13.08 100.82, -13.41 101.74, -13.06 102.42 C-12.71 103.1, -11.7 103.59, -10.99 103.65 C-10.29 103.7, -10.37 103.58, -8.83 102.76 C-7.3 101.93, -3.89 99.92, -1.79 98.72 C0.31 97.52, 2.09 96.56, 3.78 95.54 C5.48 94.53, 7.19 93.65, 8.39 92.66 C9.59 91.67, 10.35 90.67, 10.96 89.59 C11.57 88.51, 11.86 87.73, 12.04 86.2 C12.23 84.66, 12.05 81.73, 12.05 80.37 C12.05 79, 11.74 78.81, 12.05 78.01 C12.36 77.21, 13.02 76.64, 13.89 75.58 C14.76 74.53, 16.24 72.93, 17.26 71.7 C18.27 70.47, 19.01 68.81, 19.98 68.19 C20.94 67.56, 21.97 67.96, 23.04 67.93 C24.12 67.9, 25.41 68.12, 26.44 68 C27.48 67.88, 28.43 67.82, 29.24 67.21 C30.06 66.59, 30.63 65.65, 31.35 64.28 C32.07 62.92, 32.83 60.81, 33.57 59.01 C34.3 57.22, 34.95 55.65, 35.78 53.52 C36.61 51.39, 37.71 48.52, 38.53 46.24 C39.35 43.96, 40.35 41.43, 40.71 39.86 C41.06 38.3, 40.98 37.59, 40.65 36.87 C40.31 36.15, 39.58 35.8, 38.7 35.55 C37.82 35.29, 36.29 35.41, 35.36 35.33 C34.44 35.26, 33.51 35.6, 33.15 35.1 C32.78 34.6, 33.17 33.28, 33.19 32.32 C33.21 31.36, 33.3 30.42, 33.28 29.34 C33.26 28.26, 33.05 26.81, 33.05 25.86 C33.06 24.9, 32.69 24.74, 33.34 23.61 C33.98 22.49, 35.83 20.53, 36.93 19.1 C38.03 17.66, 39.24 16.18, 39.93 15 C40.63 13.82, 40.98 12.94, 41.09 12.02 C41.2 11.09, 41.17 10.57, 40.6 9.45 C40.04 8.33, 38.69 6.72, 37.69 5.29 C36.69 3.85, 35.49 2.09, 34.6 0.85 C33.71 -0.39, 33 -1.4, 32.35 -2.15 C31.69 -2.91, 31.31 -3.47, 30.66 -3.66 C30.01 -3.84, 29.12 -3.63, 28.44 -3.28 C27.76 -2.93, 27.22 -2.27, 26.58 -1.57 C25.94 -0.88, 25.24 0.03, 24.6 0.89 C23.95 1.74, 23.33 2.72, 22.7 3.57 C22.07 4.42, 21.62 5.59, 20.81 6.01 C20.01 6.42, 18.9 6.13, 17.87 6.05 C16.84 5.97, 15.54 5.57, 14.63 5.53 C13.73 5.5, 12.86 6.22, 12.45 5.84 C12.04 5.45, 12.22 4.38, 12.16 3.22 C12.1 2.05, 12.13 0.04, 12.09 -1.17 C12.05 -2.38, 12.3 -3.24, 11.93 -4.02 C11.55 -4.81, 10.65 -5.83, 9.83 -5.86 C9.01 -5.89, 8.05 -4.8, 7 -4.2 C5.95 -3.6, 4.69 -2.94, 3.53 -2.24 C2.36 -1.54, 0.59 -0.37, 0 0" stroke="#E1E1E1" stroke-width="4" fill="none"></path></g></g><mask></mask><g stroke-linecap="round"><g transform="translate(140.00052891882 442.91350941447087) rotate(169.06061514823764 10.174875708716588 -1.3465089690175773)"><path d="M0 0 C0.52 -0.56, 2.27 -2.59, 3.15 -3.37 C4.03 -4.15, 4.55 -4.44, 5.27 -4.66 C5.98 -4.88, 6.7 -4.94, 7.45 -4.7 C8.19 -4.45, 8.68 -3.81, 9.73 -3.19 C10.79 -2.57, 12.51 -1.63, 13.78 -0.99 C15.05 -0.35, 16.27 0.15, 17.37 0.65 C18.46 1.15, 19.85 1.78, 20.35 2.01 M0 0 C0.52 -0.56, 2.27 -2.59, 3.15 -3.37 C4.03 -4.15, 4.55 -4.44, 5.27 -4.66 C5.98 -4.88, 6.7 -4.94, 7.45 -4.7 C8.19 -4.45, 8.68 -3.81, 9.73 -3.19 C10.79 -2.57, 12.51 -1.63, 13.78 -0.99 C15.05 -0.35, 16.27 0.15, 17.37 0.65 C18.46 1.15, 19.85 1.78, 20.35 2.01" stroke="#E1E1E1" stroke-width="4" fill="none"></path></g></g><mask></mask><g stroke-linecap="round"><g transform="translate(219.35245631306748 370.70507642640183) rotate(169.06061514823764 -32.75558200834934 31.04566754562373)"><path d="M0 0 C-1.37 -0.67, -6.48 -3.15, -8.23 -4.01 C-9.98 -4.87, -9.66 -4.73, -10.49 -5.15 C-11.33 -5.57, -12.36 -6.38, -13.26 -6.52 C-14.17 -6.66, -14.78 -6.52, -15.92 -5.99 C-17.06 -5.46, -18.4 -4.34, -20.12 -3.35 C-21.84 -2.35, -24.59 -0.91, -26.25 -0.03 C-27.91 0.86, -29.02 1.37, -30.07 1.97 C-31.13 2.57, -31.74 2.87, -32.59 3.59 C-33.45 4.31, -34.51 5.32, -35.2 6.28 C-35.88 7.23, -36.4 8.19, -36.72 9.3 C-37.03 10.42, -37.02 11.57, -37.08 12.95 C-37.13 14.33, -36.98 16.45, -37.04 17.59 C-37.1 18.74, -36.88 18.87, -37.43 19.83 C-37.98 20.78, -39.38 22.1, -40.34 23.31 C-41.3 24.52, -42.46 26.16, -43.18 27.1 C-43.89 28.03, -43.94 28.6, -44.62 28.92 C-45.3 29.23, -46.21 29.04, -47.26 29 C-48.3 28.95, -49.89 28.6, -50.9 28.67 C-51.91 28.73, -52.59 29.07, -53.3 29.41 C-54 29.74, -54.64 30.06, -55.15 30.68 C-55.66 31.3, -55.75 31.78, -56.35 33.12 C-56.95 34.46, -57.92 36.65, -58.74 38.69 C-59.55 40.74, -60.24 42.73, -61.22 45.38 C-62.19 48.03, -63.88 52.54, -64.6 54.6 C-65.31 56.66, -65.47 56.75, -65.51 57.73 C-65.56 58.7, -65.38 59.7, -64.87 60.47 C-64.36 61.24, -63.52 61.63, -62.44 62.32 C-61.36 63.01, -59.73 63.84, -58.39 64.61 C-57.06 65.37, -55.74 66.24, -54.44 66.91 C-53.13 67.58, -51.21 68.33, -50.57 68.62 M0 0 C-1.37 -0.67, -6.48 -3.15, -8.23 -4.01 C-9.98 -4.87, -9.66 -4.73, -10.49 -5.15 C-11.33 -5.57, -12.36 -6.38, -13.26 -6.52 C-14.17 -6.66, -14.78 -6.52, -15.92 -5.99 C-17.06 -5.46, -18.4 -4.34, -20.12 -3.35 C-21.84 -2.35, -24.59 -0.91, -26.25 -0.03 C-27.91 0.86, -29.02 1.37, -30.07 1.97 C-31.13 2.57, -31.74 2.87, -32.59 3.59 C-33.45 4.31, -34.51 5.32, -35.2 6.28 C-35.88 7.23, -36.4 8.19, -36.72 9.3 C-37.03 10.42, -37.02 11.57, -37.08 12.95 C-37.13 14.33, -36.98 16.45, -37.04 17.59 C-37.1 18.74, -36.88 18.87, -37.43 19.83 C-37.98 20.78, -39.38 22.1, -40.34 23.31 C-41.3 24.52, -42.46 26.16, -43.18 27.1 C-43.89 28.03, -43.94 28.6, -44.62 28.92 C-45.3 29.23, -46.21 29.04, -47.26 29 C-48.3 28.95, -49.89 28.6, -50.9 28.67 C-51.91 28.73, -52.59 29.07, -53.3 29.41 C-54 29.74, -54.64 30.06, -55.15 30.68 C-55.66 31.3, -55.75 31.78, -56.35 33.12 C-56.95 34.46, -57.92 36.65, -58.74 38.69 C-59.55 40.74, -60.24 42.73, -61.22 45.38 C-62.19 48.03, -63.88 52.54, -64.6 54.6 C-65.31 56.66, -65.47 56.75, -65.51 57.73 C-65.56 58.7, -65.38 59.7, -64.87 60.47 C-64.36 61.24, -63.52 61.63, -62.44 62.32 C-61.36 63.01, -59.73 63.84, -58.39 64.61 C-57.06 65.37, -55.74 66.24, -54.44 66.91 C-53.13 67.58, -51.21 68.33, -50.57 68.62" stroke="#E1E1E1" stroke-width="4" fill="none"></path></g></g><mask></mask><g stroke-linecap="round"><g transform="translate(208.63996982012463 395.5176277621427) rotate(169.06061514823764 -6.354811570747522 -3.464103996757615)"><path d="M0 0 C-1.39 -0.78, -6.23 -3.5, -8.35 -4.65 C-10.47 -5.81, -11.98 -6.55, -12.71 -6.93 M0 0 C-1.39 -0.78, -6.23 -3.5, -8.35 -4.65 C-10.47 -5.81, -11.98 -6.55, -12.71 -6.93" stroke="#E1E1E1" stroke-width="4" fill="none"></path></g></g><mask></mask><g stroke-linecap="round"><g transform="translate(198.7565748237073 402.5648067415728) rotate(169.06061514823764 -6.954050686331129 -3.647057807584247)"><path d="M0 0 C-1.27 -0.67, -5.32 -2.83, -7.64 -4.05 C-9.96 -5.26, -12.86 -6.75, -13.91 -7.29 M0 0 C-1.27 -0.67, -5.32 -2.83, -7.64 -4.05 C-9.96 -5.26, -12.86 -6.75, -13.91 -7.29" stroke="#E1E1E1" stroke-width="4" fill="none"></path></g></g><mask></mask><g stroke-linecap="round"><g transform="translate(192.19416870977216 413.81389143559096) rotate(169.06061514823764 -6.431592390607754 -3.597302839970041)"><path d="M0 0 C-1.32 -0.76, -5.8 -3.38, -7.95 -4.58 C-10.09 -5.78, -12.04 -6.76, -12.86 -7.19 M0 0 C-1.32 -0.76, -5.8 -3.38, -7.95 -4.58 C-10.09 -5.78, -12.04 -6.76, -12.86 -7.19" stroke="#E1E1E1" stroke-width="4" fill="none"></path></g></g><mask></mask><g stroke-linecap="round"><g transform="translate(192.78572507235253 322.173450609545) rotate(169.06061514823764 4.19460230503055 21.095608805541644)"><path d="M0 0 C0 0.82, -0.08 3.6, -0.02 4.9 C0.04 6.19, 0.56 6.97, 0.38 7.75 C0.2 8.54, -0.22 8.55, -1.08 9.6 C-1.95 10.66, -3.82 12.81, -4.79 14.08 C-5.75 15.34, -6.46 16.13, -6.89 17.18 C-7.32 18.22, -7.46 19.31, -7.37 20.35 C-7.29 21.38, -7.2 21.98, -6.38 23.37 C-5.55 24.76, -3.63 27.07, -2.43 28.68 C-1.24 30.29, 0.04 32.04, 0.81 33.04 C1.59 34.05, 1.56 34.2, 2.23 34.72 C2.89 35.24, 3.65 35.51, 4.79 36.17 C5.93 36.83, 7.7 37.88, 9.08 38.7 C10.47 39.52, 11.98 40.52, 13.09 41.1 C14.21 41.68, 15.32 42.01, 15.76 42.19 M0 0 C0 0.82, -0.08 3.6, -0.02 4.9 C0.04 6.19, 0.56 6.97, 0.38 7.75 C0.2 8.54, -0.22 8.55, -1.08 9.6 C-1.95 10.66, -3.82 12.81, -4.79 14.08 C-5.75 15.34, -6.46 16.13, -6.89 17.18 C-7.32 18.22, -7.46 19.31, -7.37 20.35 C-7.29 21.38, -7.2 21.98, -6.38 23.37 C-5.55 24.76, -3.63 27.07, -2.43 28.68 C-1.24 30.29, 0.04 32.04, 0.81 33.04 C1.59 34.05, 1.56 34.2, 2.23 34.72 C2.89 35.24, 3.65 35.51, 4.79 36.17 C5.93 36.83, 7.7 37.88, 9.08 38.7 C10.47 39.52, 11.98 40.52, 13.09 41.1 C14.21 41.68, 15.32 42.01, 15.76 42.19" stroke="#E1E1E1" stroke-width="4" fill="none"></path></g></g><mask></mask><g stroke-linecap="round"><g transform="translate(162.05413284992642 325.65425375607407) rotate(169.06061514823764 6.14644479905499 3.7173605694276546)"><path d="M0 0 C0.73 0.43, 3.02 1.72, 4.36 2.56 C5.7 3.4, 6.72 4.2, 8.05 5.01 C9.37 5.83, 11.58 7.03, 12.29 7.43 M0 0 C0.73 0.43, 3.02 1.72, 4.36 2.56 C5.7 3.4, 6.72 4.2, 8.05 5.01 C9.37 5.83, 11.58 7.03, 12.29 7.43" stroke="#E1E1E1" stroke-width="4" fill="none"></path></g></g><mask></mask><g stroke-linecap="round"><g transform="translate(207.11359959620017 341.5873133002929) rotate(169.06061514823764 -6.3098240982587726 -3.224877915087717)"><path d="M0 0 C-1.34 -0.69, -5.94 -3.05, -8.05 -4.12 C-10.15 -5.2, -11.86 -6.06, -12.62 -6.45 M0 0 C-1.34 -0.69, -5.94 -3.05, -8.05 -4.12 C-10.15 -5.2, -11.86 -6.06, -12.62 -6.45" stroke="#E1E1E1" stroke-width="4" fill="none"></path></g></g><mask></mask><g stroke-linecap="round"><g transform="translate(202.80834369778745 357.7775979775793) rotate(169.06061514823764 -6.518088740554859 -3.5688872237135456)"><path d="M0 0 C-1.19 -0.67, -4.96 -2.82, -7.13 -4.01 C-9.3 -5.2, -12.05 -6.62, -13.04 -7.14 M0 0 C-1.19 -0.67, -4.96 -2.82, -7.13 -4.01 C-9.3 -5.2, -12.05 -6.62, -13.04 -7.14" stroke="#E1E1E1" stroke-width="4" fill="none"></path></g></g><mask></mask><g stroke-linecap="round"><g transform="translate(191.1144972865393 429.73908378667653) rotate(169.06061514823764 -6.3731623949982605 -3.6870423988128778)"><path d="M0 0 C-1.41 -0.8, -6.31 -3.57, -8.43 -4.8 C-10.56 -6.03, -12.03 -6.94, -12.75 -7.37 M0 0 C-1.41 -0.8, -6.31 -3.57, -8.43 -4.8 C-10.56 -6.03, -12.03 -6.94, -12.75 -7.37" stroke="#E1E1E1" stroke-width="4" fill="none"></path></g></g><mask></mask><g stroke-linecap="round"><g transform="translate(161.5677802093603 358.88413648382226) rotate(169.06061514823764 -0.980757452517917 23.614808261149733)"><path d="M0 0 C-0.72 0.44, -2.99 1.63, -4.31 2.63 C-5.64 3.64, -6.64 4.59, -7.95 6.03 C-9.27 7.46, -10.9 9.51, -12.21 11.25 C-13.51 13, -14.77 14.71, -15.77 16.49 C-16.77 18.27, -17.48 20.06, -18.19 21.93 C-18.91 23.81, -19.59 25.7, -20.08 27.74 C-20.56 29.77, -21 32.14, -21.09 34.13 C-21.18 36.13, -20.94 38.02, -20.6 39.73 C-20.26 41.44, -19.9 42.96, -19.04 44.39 C-18.19 45.83, -16.73 47.44, -15.46 48.34 C-14.19 49.24, -12.92 49.65, -11.41 49.78 C-9.89 49.9, -8.12 49.67, -6.36 49.12 C-4.6 48.56, -2.78 47.6, -0.84 46.44 C1.1 45.28, 3.45 43.86, 5.3 42.15 C7.16 40.43, 8.78 38.2, 10.29 36.15 C11.81 34.11, 13.28 31.94, 14.4 29.87 C15.52 27.81, 16.3 26, 17.04 23.78 C17.79 21.57, 18.53 18.67, 18.88 16.59 C19.23 14.5, 19.19 13.08, 19.13 11.27 C19.07 9.46, 19.13 7.59, 18.54 5.75 C17.95 3.9, 16.91 1.52, 15.57 0.19 C14.23 -1.14, 12.17 -1.75, 10.5 -2.21 C8.83 -2.66, 7.31 -2.91, 5.56 -2.55 C3.81 -2.18, 0.93 -0.42, 0 0 M0 0 C-0.72 0.44, -2.99 1.63, -4.31 2.63 C-5.64 3.64, -6.64 4.59, -7.95 6.03 C-9.27 7.46, -10.9 9.51, -12.21 11.25 C-13.51 13, -14.77 14.71, -15.77 16.49 C-16.77 18.27, -17.48 20.06, -18.19 21.93 C-18.91 23.81, -19.59 25.7, -20.08 27.74 C-20.56 29.77, -21 32.14, -21.09 34.13 C-21.18 36.13, -20.94 38.02, -20.6 39.73 C-20.26 41.44, -19.9 42.96, -19.04 44.39 C-18.19 45.83, -16.73 47.44, -15.46 48.34 C-14.19 49.24, -12.92 49.65, -11.41 49.78 C-9.89 49.9, -8.12 49.67, -6.36 49.12 C-4.6 48.56, -2.78 47.6, -0.84 46.44 C1.1 45.28, 3.45 43.86, 5.3 42.15 C7.16 40.43, 8.78 38.2, 10.29 36.15 C11.81 34.11, 13.28 31.94, 14.4 29.87 C15.52 27.81, 16.3 26, 17.04 23.78 C17.79 21.57, 18.53 18.67, 18.88 16.59 C19.23 14.5, 19.19 13.08, 19.13 11.27 C19.07 9.46, 19.13 7.59, 18.54 5.75 C17.95 3.9, 16.91 1.52, 15.57 0.19 C14.23 -1.14, 12.17 -1.75, 10.5 -2.21 C8.83 -2.66, 7.31 -2.91, 5.56 -2.55 C3.81 -2.18, 0.93 -0.42, 0 0" stroke="#E1E1E1" stroke-width="4" fill="none"></path></g></g><mask></mask><g stroke-linecap="round"><g transform="translate(332.57756967465 108.73156774047396) rotate(197.92927413374747 -0.4552491340824645 48.891779804325026)"><path d="M0 0 C-1.32 0.77, -6.01 3.37, -7.9 4.61 C-9.8 5.86, -10.53 6.49, -11.37 7.48 C-12.2 8.47, -12.62 9.45, -12.92 10.57 C-13.22 11.69, -13.13 12.85, -13.19 14.2 C-13.25 15.54, -13.28 17.51, -13.3 18.64 C-13.31 19.76, -12.98 20.18, -13.27 20.94 C-13.56 21.71, -14.31 22.34, -15.04 23.22 C-15.77 24.11, -16.91 25.32, -17.65 26.26 C-18.39 27.2, -18.92 28.13, -19.47 28.89 C-20.02 29.64, -20.09 30.51, -20.96 30.81 C-21.84 31.11, -23.41 30.81, -24.71 30.7 C-26 30.6, -27.69 30, -28.75 30.16 C-29.8 30.32, -30.37 30.87, -31.06 31.66 C-31.75 32.45, -32.09 33.25, -32.87 34.9 C-33.64 36.56, -34.66 39.1, -35.7 41.59 C-36.74 44.08, -38.15 47.45, -39.09 49.86 C-40.02 52.26, -40.83 54.37, -41.31 56.03 C-41.8 57.68, -42.03 58.73, -42 59.78 C-41.98 60.82, -41.78 61.75, -41.16 62.31 C-40.54 62.86, -39.43 62.95, -38.28 63.09 C-37.13 63.23, -34.95 62.69, -34.27 63.14 C-33.59 63.59, -34.2 64.5, -34.2 65.79 C-34.2 67.08, -34.26 69.52, -34.26 70.88 C-34.27 72.24, -33.89 73, -34.23 73.96 C-34.56 74.91, -35.47 75.57, -36.27 76.63 C-37.07 77.69, -38.2 79.22, -39.03 80.33 C-39.85 81.44, -40.76 82.26, -41.23 83.29 C-41.71 84.31, -41.91 85.43, -41.86 86.48 C-41.81 87.53, -41.58 88.36, -40.94 89.57 C-40.29 90.79, -38.98 92.33, -37.99 93.78 C-36.99 95.22, -35.88 97, -34.97 98.26 C-34.06 99.52, -33.36 100.8, -32.5 101.33 C-31.64 101.86, -30.65 101.73, -29.83 101.44 C-29 101.15, -28.32 100.42, -27.55 99.58 C-26.77 98.73, -25.99 97.44, -25.17 96.39 C-24.36 95.34, -23.3 94.05, -22.63 93.26 C-21.96 92.47, -21.81 91.84, -21.13 91.65 C-20.45 91.46, -19.37 91.96, -18.55 92.09 C-17.72 92.22, -17.03 92.35, -16.15 92.44 C-15.28 92.53, -13.83 92.2, -13.31 92.62 C-12.8 93.04, -13.13 93.78, -13.09 94.94 C-13.05 96.1, -13.09 98.33, -13.09 99.57 C-13.08 100.82, -13.41 101.74, -13.06 102.42 C-12.71 103.1, -11.7 103.59, -10.99 103.65 C-10.29 103.7, -10.37 103.58, -8.83 102.76 C-7.3 101.93, -3.89 99.92, -1.79 98.72 C0.31 97.52, 2.09 96.56, 3.78 95.54 C5.48 94.53, 7.19 93.65, 8.39 92.66 C9.59 91.67, 10.35 90.67, 10.96 89.59 C11.57 88.51, 11.86 87.73, 12.04 86.2 C12.23 84.66, 12.05 81.73, 12.05 80.37 C12.05 79, 11.74 78.81, 12.05 78.01 C12.36 77.21, 13.02 76.64, 13.89 75.58 C14.76 74.53, 16.24 72.93, 17.26 71.7 C18.27 70.47, 19.01 68.81, 19.98 68.19 C20.94 67.56, 21.97 67.96, 23.04 67.93 C24.12 67.9, 25.41 68.12, 26.44 68 C27.48 67.88, 28.43 67.82, 29.24 67.21 C30.06 66.59, 30.63 65.65, 31.35 64.28 C32.07 62.92, 32.83 60.81, 33.57 59.01 C34.3 57.22, 34.95 55.65, 35.78 53.52 C36.61 51.39, 37.71 48.52, 38.53 46.24 C39.35 43.96, 40.35 41.43, 40.71 39.86 C41.06 38.3, 40.98 37.59, 40.65 36.87 C40.31 36.15, 39.58 35.8, 38.7 35.55 C37.82 35.29, 36.29 35.41, 35.36 35.33 C34.44 35.26, 33.51 35.6, 33.15 35.1 C32.78 34.6, 33.17 33.28, 33.19 32.32 C33.21 31.36, 33.3 30.42, 33.28 29.34 C33.26 28.26, 33.05 26.81, 33.05 25.86 C33.06 24.9, 32.69 24.74, 33.34 23.61 C33.98 22.49, 35.83 20.53, 36.93 19.1 C38.03 17.66, 39.24 16.18, 39.93 15 C40.63 13.82, 40.98 12.94, 41.09 12.02 C41.2 11.09, 41.17 10.57, 40.6 9.45 C40.04 8.33, 38.69 6.72, 37.69 5.29 C36.69 3.85, 35.49 2.09, 34.6 0.85 C33.71 -0.39, 33 -1.4, 32.35 -2.15 C31.69 -2.91, 31.31 -3.47, 30.66 -3.66 C30.01 -3.84, 29.12 -3.63, 28.44 -3.28 C27.76 -2.93, 27.22 -2.27, 26.58 -1.57 C25.94 -0.88, 25.24 0.03, 24.6 0.89 C23.95 1.74, 23.33 2.72, 22.7 3.57 C22.07 4.42, 21.62 5.59, 20.81 6.01 C20.01 6.42, 18.9 6.13, 17.87 6.05 C16.84 5.97, 15.54 5.57, 14.63 5.53 C13.73 5.5, 12.86 6.22, 12.45 5.84 C12.04 5.45, 12.22 4.38, 12.16 3.22 C12.1 2.05, 12.13 0.04, 12.09 -1.17 C12.05 -2.38, 12.3 -3.24, 11.93 -4.02 C11.55 -4.81, 10.65 -5.83, 9.83 -5.86 C9.01 -5.89, 8.05 -4.8, 7 -4.2 C5.95 -3.6, 4.69 -2.94, 3.53 -2.24 C2.36 -1.54, 0.59 -0.37, 0 0 M0 0 C-1.32 0.77, -6.01 3.37, -7.9 4.61 C-9.8 5.86, -10.53 6.49, -11.37 7.48 C-12.2 8.47, -12.62 9.45, -12.92 10.57 C-13.22 11.69, -13.13 12.85, -13.19 14.2 C-13.25 15.54, -13.28 17.51, -13.3 18.64 C-13.31 19.76, -12.98 20.18, -13.27 20.94 C-13.56 21.71, -14.31 22.34, -15.04 23.22 C-15.77 24.11, -16.91 25.32, -17.65 26.26 C-18.39 27.2, -18.92 28.13, -19.47 28.89 C-20.02 29.64, -20.09 30.51, -20.96 30.81 C-21.84 31.11, -23.41 30.81, -24.71 30.7 C-26 30.6, -27.69 30, -28.75 30.16 C-29.8 30.32, -30.37 30.87, -31.06 31.66 C-31.75 32.45, -32.09 33.25, -32.87 34.9 C-33.64 36.56, -34.66 39.1, -35.7 41.59 C-36.74 44.08, -38.15 47.45, -39.09 49.86 C-40.02 52.26, -40.83 54.37, -41.31 56.03 C-41.8 57.68, -42.03 58.73, -42 59.78 C-41.98 60.82, -41.78 61.75, -41.16 62.31 C-40.54 62.86, -39.43 62.95, -38.28 63.09 C-37.13 63.23, -34.95 62.69, -34.27 63.14 C-33.59 63.59, -34.2 64.5, -34.2 65.79 C-34.2 67.08, -34.26 69.52, -34.26 70.88 C-34.27 72.24, -33.89 73, -34.23 73.96 C-34.56 74.91, -35.47 75.57, -36.27 76.63 C-37.07 77.69, -38.2 79.22, -39.03 80.33 C-39.85 81.44, -40.76 82.26, -41.23 83.29 C-41.71 84.31, -41.91 85.43, -41.86 86.48 C-41.81 87.53, -41.58 88.36, -40.94 89.57 C-40.29 90.79, -38.98 92.33, -37.99 93.78 C-36.99 95.22, -35.88 97, -34.97 98.26 C-34.06 99.52, -33.36 100.8, -32.5 101.33 C-31.64 101.86, -30.65 101.73, -29.83 101.44 C-29 101.15, -28.32 100.42, -27.55 99.58 C-26.77 98.73, -25.99 97.44, -25.17 96.39 C-24.36 95.34, -23.3 94.05, -22.63 93.26 C-21.96 92.47, -21.81 91.84, -21.13 91.65 C-20.45 91.46, -19.37 91.96, -18.55 92.09 C-17.72 92.22, -17.03 92.35, -16.15 92.44 C-15.28 92.53, -13.83 92.2, -13.31 92.62 C-12.8 93.04, -13.13 93.78, -13.09 94.94 C-13.05 96.1, -13.09 98.33, -13.09 99.57 C-13.08 100.82, -13.41 101.74, -13.06 102.42 C-12.71 103.1, -11.7 103.59, -10.99 103.65 C-10.29 103.7, -10.37 103.58, -8.83 102.76 C-7.3 101.93, -3.89 99.92, -1.79 98.72 C0.31 97.52, 2.09 96.56, 3.78 95.54 C5.48 94.53, 7.19 93.65, 8.39 92.66 C9.59 91.67, 10.35 90.67, 10.96 89.59 C11.57 88.51, 11.86 87.73, 12.04 86.2 C12.23 84.66, 12.05 81.73, 12.05 80.37 C12.05 79, 11.74 78.81, 12.05 78.01 C12.36 77.21, 13.02 76.64, 13.89 75.58 C14.76 74.53, 16.24 72.93, 17.26 71.7 C18.27 70.47, 19.01 68.81, 19.98 68.19 C20.94 67.56, 21.97 67.96, 23.04 67.93 C24.12 67.9, 25.41 68.12, 26.44 68 C27.48 67.88, 28.43 67.82, 29.24 67.21 C30.06 66.59, 30.63 65.65, 31.35 64.28 C32.07 62.92, 32.83 60.81, 33.57 59.01 C34.3 57.22, 34.95 55.65, 35.78 53.52 C36.61 51.39, 37.71 48.52, 38.53 46.24 C39.35 43.96, 40.35 41.43, 40.71 39.86 C41.06 38.3, 40.98 37.59, 40.65 36.87 C40.31 36.15, 39.58 35.8, 38.7 35.55 C37.82 35.29, 36.29 35.41, 35.36 35.33 C34.44 35.26, 33.51 35.6, 33.15 35.1 C32.78 34.6, 33.17 33.28, 33.19 32.32 C33.21 31.36, 33.3 30.42, 33.28 29.34 C33.26 28.26, 33.05 26.81, 33.05 25.86 C33.06 24.9, 32.69 24.74, 33.34 23.61 C33.98 22.49, 35.83 20.53, 36.93 19.1 C38.03 17.66, 39.24 16.18, 39.93 15 C40.63 13.82, 40.98 12.94, 41.09 12.02 C41.2 11.09, 41.17 10.57, 40.6 9.45 C40.04 8.33, 38.69 6.72, 37.69 5.29 C36.69 3.85, 35.49 2.09, 34.6 0.85 C33.71 -0.39, 33 -1.4, 32.35 -2.15 C31.69 -2.91, 31.31 -3.47, 30.66 -3.66 C30.01 -3.84, 29.12 -3.63, 28.44 -3.28 C27.76 -2.93, 27.22 -2.27, 26.58 -1.57 C25.94 -0.88, 25.24 0.03, 24.6 0.89 C23.95 1.74, 23.33 2.72, 22.7 3.57 C22.07 4.42, 21.62 5.59, 20.81 6.01 C20.01 6.42, 18.9 6.13, 17.87 6.05 C16.84 5.97, 15.54 5.57, 14.63 5.53 C13.73 5.5, 12.86 6.22, 12.45 5.84 C12.04 5.45, 12.22 4.38, 12.16 3.22 C12.1 2.05, 12.13 0.04, 12.09 -1.17 C12.05 -2.38, 12.3 -3.24, 11.93 -4.02 C11.55 -4.81, 10.65 -5.83, 9.83 -5.86 C9.01 -5.89, 8.05 -4.8, 7 -4.2 C5.95 -3.6, 4.69 -2.94, 3.53 -2.24 C2.36 -1.54, 0.59 -0.37, 0 0" stroke="#E1E1E1" stroke-width="4" fill="none"></path></g></g><mask></mask><g stroke-linecap="round"><g transform="translate(284.4316567982537 205.57634647653953) rotate(197.92927413374747 10.174875708716584 -1.3465089690175915)"><path d="M0 0 C0.52 -0.56, 2.27 -2.59, 3.15 -3.37 C4.03 -4.15, 4.55 -4.44, 5.27 -4.66 C5.98 -4.88, 6.7 -4.94, 7.45 -4.7 C8.19 -4.45, 8.68 -3.81, 9.73 -3.19 C10.79 -2.57, 12.51 -1.63, 13.78 -0.99 C15.05 -0.35, 16.27 0.15, 17.37 0.65 C18.46 1.15, 19.85 1.78, 20.35 2.01 M0 0 C0.52 -0.56, 2.27 -2.59, 3.15 -3.37 C4.03 -4.15, 4.55 -4.44, 5.27 -4.66 C5.98 -4.88, 6.7 -4.94, 7.45 -4.7 C8.19 -4.45, 8.68 -3.81, 9.73 -3.19 C10.79 -2.57, 12.51 -1.63, 13.78 -0.99 C15.05 -0.35, 16.27 0.15, 17.37 0.65 C18.46 1.15, 19.85 1.78, 20.35 2.01" stroke="#E1E1E1" stroke-width="4" fill="none"></path></g></g><mask></mask><g stroke-linecap="round"><g transform="translate(378.4550717029874 155.89187623167976) rotate(197.92927413374747 -32.755582008349336 31.045667545623736)"><path d="M0 0 C-1.37 -0.67, -6.48 -3.15, -8.23 -4.01 C-9.98 -4.87, -9.66 -4.73, -10.49 -5.15 C-11.33 -5.57, -12.36 -6.38, -13.26 -6.52 C-14.17 -6.66, -14.78 -6.52, -15.92 -5.99 C-17.06 -5.46, -18.4 -4.34, -20.12 -3.35 C-21.84 -2.35, -24.59 -0.91, -26.25 -0.03 C-27.91 0.86, -29.02 1.37, -30.07 1.97 C-31.13 2.57, -31.74 2.87, -32.59 3.59 C-33.45 4.31, -34.51 5.32, -35.2 6.28 C-35.88 7.23, -36.4 8.19, -36.72 9.3 C-37.03 10.42, -37.02 11.57, -37.08 12.95 C-37.13 14.33, -36.98 16.45, -37.04 17.59 C-37.1 18.74, -36.88 18.87, -37.43 19.83 C-37.98 20.78, -39.38 22.1, -40.34 23.31 C-41.3 24.52, -42.46 26.16, -43.18 27.1 C-43.89 28.03, -43.94 28.6, -44.62 28.92 C-45.3 29.23, -46.21 29.04, -47.26 29 C-48.3 28.95, -49.89 28.6, -50.9 28.67 C-51.91 28.73, -52.59 29.07, -53.3 29.41 C-54 29.74, -54.64 30.06, -55.15 30.68 C-55.66 31.3, -55.75 31.78, -56.35 33.12 C-56.95 34.46, -57.92 36.65, -58.74 38.69 C-59.55 40.74, -60.24 42.73, -61.22 45.38 C-62.19 48.03, -63.88 52.54, -64.6 54.6 C-65.31 56.66, -65.47 56.75, -65.51 57.73 C-65.56 58.7, -65.38 59.7, -64.87 60.47 C-64.36 61.24, -63.52 61.63, -62.44 62.32 C-61.36 63.01, -59.73 63.84, -58.39 64.61 C-57.06 65.37, -55.74 66.24, -54.44 66.91 C-53.13 67.58, -51.21 68.33, -50.57 68.62 M0 0 C-1.37 -0.67, -6.48 -3.15, -8.23 -4.01 C-9.98 -4.87, -9.66 -4.73, -10.49 -5.15 C-11.33 -5.57, -12.36 -6.38, -13.26 -6.52 C-14.17 -6.66, -14.78 -6.52, -15.92 -5.99 C-17.06 -5.46, -18.4 -4.34, -20.12 -3.35 C-21.84 -2.35, -24.59 -0.91, -26.25 -0.03 C-27.91 0.86, -29.02 1.37, -30.07 1.97 C-31.13 2.57, -31.74 2.87, -32.59 3.59 C-33.45 4.31, -34.51 5.32, -35.2 6.28 C-35.88 7.23, -36.4 8.19, -36.72 9.3 C-37.03 10.42, -37.02 11.57, -37.08 12.95 C-37.13 14.33, -36.98 16.45, -37.04 17.59 C-37.1 18.74, -36.88 18.87, -37.43 19.83 C-37.98 20.78, -39.38 22.1, -40.34 23.31 C-41.3 24.52, -42.46 26.16, -43.18 27.1 C-43.89 28.03, -43.94 28.6, -44.62 28.92 C-45.3 29.23, -46.21 29.04, -47.26 29 C-48.3 28.95, -49.89 28.6, -50.9 28.67 C-51.91 28.73, -52.59 29.07, -53.3 29.41 C-54 29.74, -54.64 30.06, -55.15 30.68 C-55.66 31.3, -55.75 31.78, -56.35 33.12 C-56.95 34.46, -57.92 36.65, -58.74 38.69 C-59.55 40.74, -60.24 42.73, -61.22 45.38 C-62.19 48.03, -63.88 52.54, -64.6 54.6 C-65.31 56.66, -65.47 56.75, -65.51 57.73 C-65.56 58.7, -65.38 59.7, -64.87 60.47 C-64.36 61.24, -63.52 61.63, -62.44 62.32 C-61.36 63.01, -59.73 63.84, -58.39 64.61 C-57.06 65.37, -55.74 66.24, -54.44 66.91 C-53.13 67.58, -51.21 68.33, -50.57 68.62" stroke="#E1E1E1" stroke-width="4" fill="none"></path></g></g><mask></mask><g stroke-linecap="round"><g transform="translate(370.4623379993932 189.48247784070458) rotate(197.92927413374747 -6.354811570747515 -3.464103996757629)"><path d="M0 0 C-1.39 -0.78, -6.23 -3.5, -8.35 -4.65 C-10.47 -5.81, -11.98 -6.55, -12.71 -6.93 M0 0 C-1.39 -0.78, -6.23 -3.5, -8.35 -4.65 C-10.47 -5.81, -11.98 -6.55, -12.71 -6.93" stroke="#E1E1E1" stroke-width="4" fill="none"></path></g></g><mask></mask><g stroke-linecap="round"><g transform="translate(358.56756156697384 190.61557931250803) rotate(197.92927413374747 -6.954050686331129 -3.647057807584247)"><path d="M0 0 C-1.27 -0.67, -5.32 -2.83, -7.64 -4.05 C-9.96 -5.26, -12.86 -6.75, -13.91 -7.29 M0 0 C-1.27 -0.67, -5.32 -2.83, -7.64 -4.05 C-9.96 -5.26, -12.86 -6.75, -13.91 -7.29" stroke="#E1E1E1" stroke-width="4" fill="none"></path></g></g><mask></mask><g stroke-linecap="round"><g transform="translate(347.3006287716812 197.54443560173326) rotate(197.92927413374747 -6.431592390607747 -3.5973028399700553)"><path d="M0 0 C-1.32 -0.76, -5.8 -3.38, -7.95 -4.58 C-10.09 -5.78, -12.04 -6.76, -12.86 -7.19 M0 0 C-1.32 -0.76, -5.8 -3.38, -7.95 -4.58 C-10.09 -5.78, -12.04 -6.76, -12.86 -7.19" stroke="#E1E1E1" stroke-width="4" fill="none"></path></g></g><mask></mask><g stroke-linecap="round"><g transform="translate(378.82214419118236 119.63376407306254) rotate(197.92927413374747 4.194602305030571 21.09560880554166)"><path d="M0 0 C0 0.82, -0.08 3.6, -0.02 4.9 C0.04 6.19, 0.56 6.97, 0.38 7.75 C0.2 8.54, -0.22 8.55, -1.08 9.6 C-1.95 10.66, -3.82 12.81, -4.79 14.08 C-5.75 15.34, -6.46 16.13, -6.89 17.18 C-7.32 18.22, -7.46 19.31, -7.37 20.35 C-7.29 21.38, -7.2 21.98, -6.38 23.37 C-5.55 24.76, -3.63 27.07, -2.43 28.68 C-1.24 30.29, 0.04 32.04, 0.81 33.04 C1.59 34.05, 1.56 34.2, 2.23 34.72 C2.89 35.24, 3.65 35.51, 4.79 36.17 C5.93 36.83, 7.7 37.88, 9.08 38.7 C10.47 39.52, 11.98 40.52, 13.09 41.1 C14.21 41.68, 15.32 42.01, 15.76 42.19 M0 0 C0 0.82, -0.08 3.6, -0.02 4.9 C0.04 6.19, 0.56 6.97, 0.38 7.75 C0.2 8.54, -0.22 8.55, -1.08 9.6 C-1.95 10.66, -3.82 12.81, -4.79 14.08 C-5.75 15.34, -6.46 16.13, -6.89 17.18 C-7.32 18.22, -7.46 19.31, -7.37 20.35 C-7.29 21.38, -7.2 21.98, -6.38 23.37 C-5.55 24.76, -3.63 27.07, -2.43 28.68 C-1.24 30.29, 0.04 32.04, 0.81 33.04 C1.59 34.05, 1.56 34.2, 2.23 34.72 C2.89 35.24, 3.65 35.51, 4.79 36.17 C5.93 36.83, 7.7 37.88, 9.08 38.7 C10.47 39.52, 11.98 40.52, 13.09 41.1 C14.21 41.68, 15.32 42.01, 15.76 42.19" stroke="#E1E1E1" stroke-width="4" fill="none"></path></g></g><mask></mask><g stroke-linecap="round"><g transform="translate(358.3752751324241 110.95251049081065) rotate(197.92927413374747 6.14644479905499 3.7173605694276546)"><path d="M0 0 C0.73 0.43, 3.02 1.72, 4.36 2.56 C5.7 3.4, 6.72 4.2, 8.05 5.01 C9.37 5.83, 11.58 7.03, 12.29 7.43 M0 0 C0.73 0.43, 3.02 1.72, 4.36 2.56 C5.7 3.4, 6.72 4.2, 8.05 5.01 C9.37 5.83, 11.58 7.03, 12.29 7.43" stroke="#E1E1E1" stroke-width="4" fill="none"></path></g></g><mask></mask><g stroke-linecap="round"><g transform="translate(395.04230260506256 141.5092051942092) rotate(197.92927413374747 -6.309824098258787 -3.2248779150877134)"><path d="M0 0 C-1.34 -0.69, -5.94 -3.05, -8.05 -4.12 C-10.15 -5.2, -11.86 -6.06, -12.62 -6.45 M0 0 C-1.34 -0.69, -5.94 -3.05, -8.05 -4.12 C-10.15 -5.2, -11.86 -6.06, -12.62 -6.45" stroke="#E1E1E1" stroke-width="4" fill="none"></path></g></g><mask></mask><g stroke-linecap="round"><g transform="translate(383.64731145450014 153.5511102852533) rotate(197.92927413374747 -6.518088740554873 -3.5688872237135456)"><path d="M0 0 C-1.19 -0.67, -4.96 -2.82, -7.13 -4.01 C-9.3 -5.2, -12.05 -6.62, -13.04 -7.14 M0 0 C-1.19 -0.67, -4.96 -2.82, -7.13 -4.01 C-9.3 -5.2, -12.05 -6.62, -13.04 -7.14" stroke="#E1E1E1" stroke-width="4" fill="none"></path></g></g><mask></mask><g stroke-linecap="round"><g transform="translate(338.70245739428947 211.00867763061518) rotate(197.92927413374747 -6.3731623949982605 -3.6870423988128707)"><path d="M0 0 C-1.41 -0.8, -6.31 -3.57, -8.43 -4.8 C-10.56 -6.03, -12.03 -6.94, -12.75 -7.37 M0 0 C-1.41 -0.8, -6.31 -3.57, -8.43 -4.8 C-10.56 -6.03, -12.03 -6.94, -12.75 -7.37" stroke="#E1E1E1" stroke-width="4" fill="none"></path></g></g><mask></mask><g stroke-linecap="round"><g transform="translate(333.2182318972805 133.9178888614578) rotate(197.92927413374747 -0.9807574525179064 23.614808261149726)"><path d="M0 0 C-0.72 0.44, -2.99 1.63, -4.31 2.63 C-5.64 3.64, -6.64 4.59, -7.95 6.03 C-9.27 7.46, -10.9 9.51, -12.21 11.25 C-13.51 13, -14.77 14.71, -15.77 16.49 C-16.77 18.27, -17.48 20.06, -18.19 21.93 C-18.91 23.81, -19.59 25.7, -20.08 27.74 C-20.56 29.77, -21 32.14, -21.09 34.13 C-21.18 36.13, -20.94 38.02, -20.6 39.73 C-20.26 41.44, -19.9 42.96, -19.04 44.39 C-18.19 45.83, -16.73 47.44, -15.46 48.34 C-14.19 49.24, -12.92 49.65, -11.41 49.78 C-9.89 49.9, -8.12 49.67, -6.36 49.12 C-4.6 48.56, -2.78 47.6, -0.84 46.44 C1.1 45.28, 3.45 43.86, 5.3 42.15 C7.16 40.43, 8.78 38.2, 10.29 36.15 C11.81 34.11, 13.28 31.94, 14.4 29.87 C15.52 27.81, 16.3 26, 17.04 23.78 C17.79 21.57, 18.53 18.67, 18.88 16.59 C19.23 14.5, 19.19 13.08, 19.13 11.27 C19.07 9.46, 19.13 7.59, 18.54 5.75 C17.95 3.9, 16.91 1.52, 15.57 0.19 C14.23 -1.14, 12.17 -1.75, 10.5 -2.21 C8.83 -2.66, 7.31 -2.91, 5.56 -2.55 C3.81 -2.18, 0.93 -0.42, 0 0 M0 0 C-0.72 0.44, -2.99 1.63, -4.31 2.63 C-5.64 3.64, -6.64 4.59, -7.95 6.03 C-9.27 7.46, -10.9 9.51, -12.21 11.25 C-13.51 13, -14.77 14.71, -15.77 16.49 C-16.77 18.27, -17.48 20.06, -18.19 21.93 C-18.91 23.81, -19.59 25.7, -20.08 27.74 C-20.56 29.77, -21 32.14, -21.09 34.13 C-21.18 36.13, -20.94 38.02, -20.6 39.73 C-20.26 41.44, -19.9 42.96, -19.04 44.39 C-18.19 45.83, -16.73 47.44, -15.46 48.34 C-14.19 49.24, -12.92 49.65, -11.41 49.78 C-9.89 49.9, -8.12 49.67, -6.36 49.12 C-4.6 48.56, -2.78 47.6, -0.84 46.44 C1.1 45.28, 3.45 43.86, 5.3 42.15 C7.16 40.43, 8.78 38.2, 10.29 36.15 C11.81 34.11, 13.28 31.94, 14.4 29.87 C15.52 27.81, 16.3 26, 17.04 23.78 C17.79 21.57, 18.53 18.67, 18.88 16.59 C19.23 14.5, 19.19 13.08, 19.13 11.27 C19.07 9.46, 19.13 7.59, 18.54 5.75 C17.95 3.9, 16.91 1.52, 15.57 0.19 C14.23 -1.14, 12.17 -1.75, 10.5 -2.21 C8.83 -2.66, 7.31 -2.91, 5.56 -2.55 C3.81 -2.18, 0.93 -0.42, 0 0" stroke="#E1E1E1" stroke-width="4" fill="none"></path></g></g><mask></mask><g stroke-linecap="round"><g transform="translate(446.2526279466413 154.7415339539188) rotate(0 -122.24601394730307 -21.21992500939743)"><path d="M0 0 C0.33 -0.6, 1.3 -1.5, 1.96 -3.6 C2.62 -5.71, 3.42 -8.76, 3.94 -12.65 C4.46 -16.55, 4.88 -22.25, 5.08 -26.97 C5.27 -31.69, 5.62 -35.1, 5.08 -40.96 C4.55 -46.83, 3.64 -55.38, 1.89 -62.14 C0.15 -68.9, -2.24 -75.63, -5.4 -81.52 C-8.55 -87.4, -11.85 -92.31, -17.03 -97.45 C-22.2 -102.58, -28.91 -107.89, -36.44 -112.31 C-43.97 -116.73, -53.98 -121.12, -62.21 -123.95 C-70.43 -126.78, -78.19 -128.2, -85.78 -129.31 C-93.38 -130.41, -100.33 -130.66, -107.79 -130.58 C-115.24 -130.5, -123.45 -129.89, -130.5 -128.82 C-137.56 -127.75, -143.85 -126.2, -150.14 -124.17 C-156.42 -122.14, -162.33 -119.64, -168.23 -116.66 C-174.13 -113.68, -179.52 -110.44, -185.53 -106.28 C-191.55 -102.12, -198.96 -96.56, -204.32 -91.7 C-209.68 -86.83, -213.34 -82.75, -217.68 -77.1 C-222.03 -71.44, -226.45 -64.54, -230.38 -57.78 C-234.32 -51.01, -238.38 -43.85, -241.29 -36.52 C-244.19 -29.19, -246.43 -21.06, -247.81 -13.8 C-249.2 -6.55, -249.43 -0.19, -249.58 7.01 C-249.73 14.22, -249.55 22.23, -248.72 29.42 C-247.88 36.6, -246.02 44.23, -244.58 50.12 C-243.13 56, -241.43 60.65, -240.03 64.72 C-238.63 68.8, -237.18 72.04, -236.16 74.55 C-235.14 77.05, -234.54 78.74, -233.92 79.76 C-233.29 80.78, -233.23 80.41, -232.39 80.67 C-231.55 80.93, -230.65 81.01, -228.88 81.33 C-227.1 81.65, -224.53 82.1, -221.73 82.6 C-218.92 83.11, -215.73 83.7, -212.05 84.33 C-208.38 84.97, -203.24 85.8, -199.67 86.44 C-196.11 87.07, -192.08 88.14, -190.67 88.14 C-189.27 88.13, -190.7 87.78, -191.25 86.4 C-191.8 85.02, -192.78 82.78, -193.98 79.88 C-195.17 76.97, -196.78 73.32, -198.42 68.99 C-200.07 64.65, -202.03 59.61, -203.84 53.88 C-205.65 48.14, -207.9 40.14, -209.27 34.59 C-210.65 29.05, -211.4 25.55, -212.08 20.6 C-212.75 15.65, -213.19 9.8, -213.31 4.91 C-213.43 0.03, -213.22 -4.57, -212.78 -8.69 C-212.33 -12.82, -212.14 -15.2, -210.63 -19.84 C-209.12 -24.47, -206.27 -31.4, -203.73 -36.52 C-201.19 -41.64, -198.56 -46.15, -195.42 -50.55 C-192.27 -54.96, -188.95 -58.96, -184.86 -62.94 C-180.76 -66.92, -175.58 -71.04, -170.86 -74.43 C-166.15 -77.82, -161.19 -80.77, -156.56 -83.27 C-151.93 -85.77, -147.59 -87.75, -143.08 -89.45 C-138.58 -91.15, -134.01 -92.4, -129.53 -93.45 C-125.06 -94.5, -121.27 -95.4, -116.21 -95.75 C-111.15 -96.11, -104.56 -96.05, -99.16 -95.6 C-93.76 -95.15, -88.9 -94.24, -83.8 -93.04 C-78.7 -91.83, -73.6 -90.33, -68.55 -88.35 C-63.5 -86.38, -58.62 -84.29, -53.48 -81.18 C-48.35 -78.08, -42.33 -73.66, -37.74 -69.73 C-33.15 -65.79, -29.6 -61.84, -25.92 -57.56 C-22.24 -53.28, -18.72 -48.79, -15.66 -44.05 C-12.61 -39.31, -9.74 -33.69, -7.6 -29.12 C-5.47 -24.55, -4 -20.35, -2.86 -16.64 C-1.72 -12.92, -1.23 -9.61, -0.76 -6.84 C-0.28 -4.06, -0.13 -1.14, 0 0 M0 0 C0.33 -0.6, 1.3 -1.5, 1.96 -3.6 C2.62 -5.71, 3.42 -8.76, 3.94 -12.65 C4.46 -16.55, 4.88 -22.25, 5.08 -26.97 C5.27 -31.69, 5.62 -35.1, 5.08 -40.96 C4.55 -46.83, 3.64 -55.38, 1.89 -62.14 C0.15 -68.9, -2.24 -75.63, -5.4 -81.52 C-8.55 -87.4, -11.85 -92.31, -17.03 -97.45 C-22.2 -102.58, -28.91 -107.89, -36.44 -112.31 C-43.97 -116.73, -53.98 -121.12, -62.21 -123.95 C-70.43 -126.78, -78.19 -128.2, -85.78 -129.31 C-93.38 -130.41, -100.33 -130.66, -107.79 -130.58 C-115.24 -130.5, -123.45 -129.89, -130.5 -128.82 C-137.56 -127.75, -143.85 -126.2, -150.14 -124.17 C-156.42 -122.14, -162.33 -119.64, -168.23 -116.66 C-174.13 -113.68, -179.52 -110.44, -185.53 -106.28 C-191.55 -102.12, -198.96 -96.56, -204.32 -91.7 C-209.68 -86.83, -213.34 -82.75, -217.68 -77.1 C-222.03 -71.44, -226.45 -64.54, -230.38 -57.78 C-234.32 -51.01, -238.38 -43.85, -241.29 -36.52 C-244.19 -29.19, -246.43 -21.06, -247.81 -13.8 C-249.2 -6.55, -249.43 -0.19, -249.58 7.01 C-249.73 14.22, -249.55 22.23, -248.72 29.42 C-247.88 36.6, -246.02 44.23, -244.58 50.12 C-243.13 56, -241.43 60.65, -240.03 64.72 C-238.63 68.8, -237.18 72.04, -236.16 74.55 C-235.14 77.05, -234.54 78.74, -233.92 79.76 C-233.29 80.78, -233.23 80.41, -232.39 80.67 C-231.55 80.93, -230.65 81.01, -228.88 81.33 C-227.1 81.65, -224.53 82.1, -221.73 82.6 C-218.92 83.11, -215.73 83.7, -212.05 84.33 C-208.38 84.97, -203.24 85.8, -199.67 86.44 C-196.11 87.07, -192.08 88.14, -190.67 88.14 C-189.27 88.13, -190.7 87.78, -191.25 86.4 C-191.8 85.02, -192.78 82.78, -193.98 79.88 C-195.17 76.97, -196.78 73.32, -198.42 68.99 C-200.07 64.65, -202.03 59.61, -203.84 53.88 C-205.65 48.14, -207.9 40.14, -209.27 34.59 C-210.65 29.05, -211.4 25.55, -212.08 20.6 C-212.75 15.65, -213.19 9.8, -213.31 4.91 C-213.43 0.03, -213.22 -4.57, -212.78 -8.69 C-212.33 -12.82, -212.14 -15.2, -210.63 -19.84 C-209.12 -24.47, -206.27 -31.4, -203.73 -36.52 C-201.19 -41.64, -198.56 -46.15, -195.42 -50.55 C-192.27 -54.96, -188.95 -58.96, -184.86 -62.94 C-180.76 -66.92, -175.58 -71.04, -170.86 -74.43 C-166.15 -77.82, -161.19 -80.77, -156.56 -83.27 C-151.93 -85.77, -147.59 -87.75, -143.08 -89.45 C-138.58 -91.15, -134.01 -92.4, -129.53 -93.45 C-125.06 -94.5, -121.27 -95.4, -116.21 -95.75 C-111.15 -96.11, -104.56 -96.05, -99.16 -95.6 C-93.76 -95.15, -88.9 -94.24, -83.8 -93.04 C-78.7 -91.83, -73.6 -90.33, -68.55 -88.35 C-63.5 -86.38, -58.62 -84.29, -53.48 -81.18 C-48.35 -78.08, -42.33 -73.66, -37.74 -69.73 C-33.15 -65.79, -29.6 -61.84, -25.92 -57.56 C-22.24 -53.28, -18.72 -48.79, -15.66 -44.05 C-12.61 -39.31, -9.74 -33.69, -7.6 -29.12 C-5.47 -24.55, -4 -20.35, -2.86 -16.64 C-1.72 -12.92, -1.23 -9.61, -0.76 -6.84 C-0.28 -4.06, -0.13 -1.14, 0 0" stroke="#E1E1E1" stroke-width="4" fill="none"></path></g></g><mask></mask><g stroke-linecap="round"><g transform="translate(276.3021687609567 247.1064209824412) rotate(0 62.532277144383784 -80.8547246830986)"><path d="M0 0 C-1 -2.1, -3.8 -7.72, -6.01 -12.58 C-8.21 -17.44, -11.1 -24.07, -13.25 -29.15 C-15.4 -34.24, -17.14 -37.8, -18.88 -43.11 C-20.62 -48.43, -22.34 -55, -23.7 -61.04 C-25.05 -67.08, -26.4 -73.7, -27.01 -79.36 C-27.61 -85.01, -27.73 -89.93, -27.33 -94.99 C-26.92 -100.05, -25.9 -105.21, -24.59 -109.7 C-23.29 -114.18, -21.79 -117.54, -19.5 -121.9 C-17.22 -126.27, -14.48 -131.35, -10.89 -135.88 C-7.3 -140.41, -2.1 -145.43, 2.04 -149.07 C6.18 -152.7, 9.55 -155.1, 13.95 -157.69 C18.36 -160.28, 23.67 -162.89, 28.45 -164.61 C33.24 -166.34, 37.21 -167.16, 42.64 -168.06 C48.08 -168.95, 55.14 -169.89, 61.08 -169.98 C67.01 -170.07, 72.55 -169.66, 78.27 -168.59 C84 -167.52, 89.99 -165.71, 95.43 -163.56 C100.87 -161.41, 106.35 -158.44, 110.92 -155.69 C115.48 -152.93, 119.14 -150.28, 122.81 -147.04 C126.49 -143.81, 129.72 -140.36, 132.97 -136.29 C136.22 -132.22, 139.72 -127.2, 142.33 -122.63 C144.94 -118.07, 147.18 -113.08, 148.62 -108.91 C150.07 -104.74, 150.38 -102.33, 151.01 -97.63 C151.64 -92.93, 152.29 -86.29, 152.39 -80.71 C152.49 -75.12, 152.55 -69.86, 151.62 -64.13 C150.68 -58.4, 149.01 -51.99, 146.79 -46.32 C144.58 -40.66, 141.43 -35.18, 138.3 -30.12 C135.18 -25.07, 131.44 -19.81, 128.03 -15.99 C124.62 -12.18, 122.13 -10.1, 117.85 -7.23 C113.58 -4.36, 108.07 -1.13, 102.36 1.21 C96.66 3.55, 90.3 5.62, 83.6 6.8 C76.91 7.98, 69.69 8.28, 62.19 8.27 C54.68 8.26, 46.74 7.69, 38.58 6.76 C30.42 5.82, 19.66 3.82, 13.23 2.69 C6.8 1.56, 2.21 0.45, 0 0 M0 0 C-1 -2.1, -3.8 -7.72, -6.01 -12.58 C-8.21 -17.44, -11.1 -24.07, -13.25 -29.15 C-15.4 -34.24, -17.14 -37.8, -18.88 -43.11 C-20.62 -48.43, -22.34 -55, -23.7 -61.04 C-25.05 -67.08, -26.4 -73.7, -27.01 -79.36 C-27.61 -85.01, -27.73 -89.93, -27.33 -94.99 C-26.92 -100.05, -25.9 -105.21, -24.59 -109.7 C-23.29 -114.18, -21.79 -117.54, -19.5 -121.9 C-17.22 -126.27, -14.48 -131.35, -10.89 -135.88 C-7.3 -140.41, -2.1 -145.43, 2.04 -149.07 C6.18 -152.7, 9.55 -155.1, 13.95 -157.69 C18.36 -160.28, 23.67 -162.89, 28.45 -164.61 C33.24 -166.34, 37.21 -167.16, 42.64 -168.06 C48.08 -168.95, 55.14 -169.89, 61.08 -169.98 C67.01 -170.07, 72.55 -169.66, 78.27 -168.59 C84 -167.52, 89.99 -165.71, 95.43 -163.56 C100.87 -161.41, 106.35 -158.44, 110.92 -155.69 C115.48 -152.93, 119.14 -150.28, 122.81 -147.04 C126.49 -143.81, 129.72 -140.36, 132.97 -136.29 C136.22 -132.22, 139.72 -127.2, 142.33 -122.63 C144.94 -118.07, 147.18 -113.08, 148.62 -108.91 C150.07 -104.74, 150.38 -102.33, 151.01 -97.63 C151.64 -92.93, 152.29 -86.29, 152.39 -80.71 C152.49 -75.12, 152.55 -69.86, 151.62 -64.13 C150.68 -58.4, 149.01 -51.99, 146.79 -46.32 C144.58 -40.66, 141.43 -35.18, 138.3 -30.12 C135.18 -25.07, 131.44 -19.81, 128.03 -15.99 C124.62 -12.18, 122.13 -10.1, 117.85 -7.23 C113.58 -4.36, 108.07 -1.13, 102.36 1.21 C96.66 3.55, 90.3 5.62, 83.6 6.8 C76.91 7.98, 69.69 8.28, 62.19 8.27 C54.68 8.26, 46.74 7.69, 38.58 6.76 C30.42 5.82, 19.66 3.82, 13.23 2.69 C6.8 1.56, 2.21 0.45, 0 0" stroke="#E1E1E1" stroke-width="4" fill="none"></path></g></g><mask></mask><g stroke-linecap="round"><g transform="translate(467.72743811381184 104.02904624550223) rotate(0 -221.21521017597303 174.5018774247248)"><path d="M0 0 C0.02 2.2, 0.21 8.3, 0.15 13.2 C0.09 18.09, 0.05 23.89, -0.38 29.36 C-0.82 34.83, -1.35 40.51, -2.46 46.01 C-3.57 51.51, -4.75 55.59, -7.07 62.34 C-9.38 69.09, -12.82 78.74, -16.36 86.5 C-19.9 94.26, -24.52 102.65, -28.3 108.91 C-32.08 115.17, -35.18 119.08, -39.04 124.06 C-42.89 129.03, -47.37 134.56, -51.44 138.78 C-55.52 143.01, -58.98 146.2, -63.49 149.4 C-68.01 152.6, -72.81 155.52, -78.53 158.01 C-84.25 160.49, -91.73 162.77, -97.81 164.32 C-103.89 165.88, -107.78 166.82, -115.03 167.33 C-122.27 167.84, -132.94 167.73, -141.28 167.38 C-149.63 167.03, -156.08 166.57, -165.1 165.22 C-174.12 163.88, -184.67 161.35, -195.42 159.31 C-206.17 157.28, -218.81 154.92, -229.59 153 C-240.38 151.08, -250.81 149.09, -260.15 147.81 C-269.48 146.52, -278.16 145.77, -285.61 145.31 C-293.05 144.84, -297.83 144.71, -304.79 145.02 C-311.75 145.34, -320.78 146.25, -327.35 147.22 C-333.92 148.2, -338.7 149.21, -344.2 150.86 C-349.71 152.52, -355.25 154.8, -360.41 157.17 C-365.57 159.54, -369.91 161.61, -375.17 165.08 C-380.44 168.55, -386.73 173.39, -391.99 177.97 C-397.25 182.55, -402.29 187.5, -406.75 192.56 C-411.21 197.62, -414.91 202.5, -418.77 208.33 C-422.62 214.15, -426.75 220.91, -429.88 227.5 C-433 234.09, -435.53 241.2, -437.5 247.86 C-439.47 254.52, -440.85 260.09, -441.7 267.46 C-442.54 274.82, -442.71 284.54, -442.58 292.05 C-442.45 299.56, -441.99 305.78, -440.92 312.5 C-439.85 319.22, -437.83 326.66, -436.15 332.36 C-434.48 338.06, -431.9 343.95, -430.86 346.72 C-429.81 349.49, -430.04 348.62, -429.87 349 M0 0 C0.02 2.2, 0.21 8.3, 0.15 13.2 C0.09 18.09, 0.05 23.89, -0.38 29.36 C-0.82 34.83, -1.35 40.51, -2.46 46.01 C-3.57 51.51, -4.75 55.59, -7.07 62.34 C-9.38 69.09, -12.82 78.74, -16.36 86.5 C-19.9 94.26, -24.52 102.65, -28.3 108.91 C-32.08 115.17, -35.18 119.08, -39.04 124.06 C-42.89 129.03, -47.37 134.56, -51.44 138.78 C-55.52 143.01, -58.98 146.2, -63.49 149.4 C-68.01 152.6, -72.81 155.52, -78.53 158.01 C-84.25 160.49, -91.73 162.77, -97.81 164.32 C-103.89 165.88, -107.78 166.82, -115.03 167.33 C-122.27 167.84, -132.94 167.73, -141.28 167.38 C-149.63 167.03, -156.08 166.57, -165.1 165.22 C-174.12 163.88, -184.67 161.35, -195.42 159.31 C-206.17 157.28, -218.81 154.92, -229.59 153 C-240.38 151.08, -250.81 149.09, -260.15 147.81 C-269.48 146.52, -278.16 145.77, -285.61 145.31 C-293.05 144.84, -297.83 144.71, -304.79 145.02 C-311.75 145.34, -320.78 146.25, -327.35 147.22 C-333.92 148.2, -338.7 149.21, -344.2 150.86 C-349.71 152.52, -355.25 154.8, -360.41 157.17 C-365.57 159.54, -369.91 161.61, -375.17 165.08 C-380.44 168.55, -386.73 173.39, -391.99 177.97 C-397.25 182.55, -402.29 187.5, -406.75 192.56 C-411.21 197.62, -414.91 202.5, -418.77 208.33 C-422.62 214.15, -426.75 220.91, -429.88 227.5 C-433 234.09, -435.53 241.2, -437.5 247.86 C-439.47 254.52, -440.85 260.09, -441.7 267.46 C-442.54 274.82, -442.71 284.54, -442.58 292.05 C-442.45 299.56, -441.99 305.78, -440.92 312.5 C-439.85 319.22, -437.83 326.66, -436.15 332.36 C-434.48 338.06, -431.9 343.95, -430.86 346.72 C-429.81 349.49, -430.04 348.62, -429.87 349" stroke="#E1E1E1" stroke-width="4" fill="none"></path></g></g><mask></mask><g stroke-linecap="round"><g transform="translate(37.85512156337569 453.03280109495205) rotate(0 221.24937277332603 -174.40206905206594)"><path d="M0 0 C-0.03 -2.25, -0.27 -8.25, -0.19 -13.52 C-0.1 -18.8, -0.14 -25.61, 0.51 -31.65 C1.17 -37.69, 2.06 -43.2, 3.72 -49.78 C5.39 -56.36, 7.6 -63.69, 10.52 -71.14 C13.43 -78.59, 17.66 -87.58, 21.21 -94.49 C24.76 -101.4, 27.9 -106.75, 31.81 -112.6 C35.72 -118.45, 40.51 -124.57, 44.64 -129.59 C48.78 -134.61, 52.56 -138.94, 56.63 -142.7 C60.71 -146.46, 64.06 -149.18, 69.08 -152.13 C74.11 -155.08, 81.06 -158.24, 86.77 -160.39 C92.48 -162.54, 97.37 -163.82, 103.35 -165.03 C109.33 -166.23, 114.64 -167.4, 122.64 -167.62 C130.63 -167.84, 142.85 -167.08, 151.31 -166.37 C159.77 -165.66, 163.61 -165.04, 173.39 -163.36 C183.17 -161.68, 200.05 -158.17, 210 -156.28 C219.95 -154.38, 224.36 -153.55, 233.07 -152 C241.79 -150.45, 253.51 -148.16, 262.28 -146.98 C271.06 -145.8, 278.36 -145.3, 285.71 -144.93 C293.06 -144.56, 298.81 -144.41, 306.4 -144.76 C313.99 -145.12, 323.8 -145.72, 331.26 -147.05 C338.72 -148.39, 344.36 -150.29, 351.14 -152.8 C357.91 -155.31, 365.26 -158.24, 371.92 -162.13 C378.58 -166.02, 384.68 -170.48, 391.1 -176.14 C397.52 -181.8, 404.96 -189.52, 410.44 -196.1 C415.92 -202.68, 420.31 -209.51, 424.01 -215.61 C427.71 -221.71, 430.11 -226.5, 432.64 -232.69 C435.16 -238.87, 437.49 -245.95, 439.17 -252.72 C440.84 -259.49, 442.1 -265.82, 442.69 -273.29 C443.27 -280.76, 443.01 -290.46, 442.67 -297.54 C442.33 -304.63, 441.79 -309.6, 440.65 -315.78 C439.5 -321.96, 437.17 -329.99, 435.81 -334.64 C434.45 -339.29, 433.49 -341.32, 432.51 -343.68 C431.53 -346.04, 430.36 -347.95, 429.94 -348.8 M0 0 C-0.03 -2.25, -0.27 -8.25, -0.19 -13.52 C-0.1 -18.8, -0.14 -25.61, 0.51 -31.65 C1.17 -37.69, 2.06 -43.2, 3.72 -49.78 C5.39 -56.36, 7.6 -63.69, 10.52 -71.14 C13.43 -78.59, 17.66 -87.58, 21.21 -94.49 C24.76 -101.4, 27.9 -106.75, 31.81 -112.6 C35.72 -118.45, 40.51 -124.57, 44.64 -129.59 C48.78 -134.61, 52.56 -138.94, 56.63 -142.7 C60.71 -146.46, 64.06 -149.18, 69.08 -152.13 C74.11 -155.08, 81.06 -158.24, 86.77 -160.39 C92.48 -162.54, 97.37 -163.82, 103.35 -165.03 C109.33 -166.23, 114.64 -167.4, 122.64 -167.62 C130.63 -167.84, 142.85 -167.08, 151.31 -166.37 C159.77 -165.66, 163.61 -165.04, 173.39 -163.36 C183.17 -161.68, 200.05 -158.17, 210 -156.28 C219.95 -154.38, 224.36 -153.55, 233.07 -152 C241.79 -150.45, 253.51 -148.16, 262.28 -146.98 C271.06 -145.8, 278.36 -145.3, 285.71 -144.93 C293.06 -144.56, 298.81 -144.41, 306.4 -144.76 C313.99 -145.12, 323.8 -145.72, 331.26 -147.05 C338.72 -148.39, 344.36 -150.29, 351.14 -152.8 C357.91 -155.31, 365.26 -158.24, 371.92 -162.13 C378.58 -166.02, 384.68 -170.48, 391.1 -176.14 C397.52 -181.8, 404.96 -189.52, 410.44 -196.1 C415.92 -202.68, 420.31 -209.51, 424.01 -215.61 C427.71 -221.71, 430.11 -226.5, 432.64 -232.69 C435.16 -238.87, 437.49 -245.95, 439.17 -252.72 C440.84 -259.49, 442.1 -265.82, 442.69 -273.29 C443.27 -280.76, 443.01 -290.46, 442.67 -297.54 C442.33 -304.63, 441.79 -309.6, 440.65 -315.78 C439.5 -321.96, 437.17 -329.99, 435.81 -334.64 C434.45 -339.29, 433.49 -341.32, 432.51 -343.68 C431.53 -346.04, 430.36 -347.95, 429.94 -348.8" stroke="#E1E1E1" stroke-width="4" fill="none"></path></g></g><mask></mask><g stroke-linecap="round"><g transform="translate(59.672424999536645 403.57456913694074) rotate(0 122.24601394730307 21.219925009397443)"><path d="M0 0 C-0.33 0.6, -1.3 1.5, -1.96 3.6 C-2.62 5.71, -3.42 8.76, -3.94 12.65 C-4.46 16.55, -4.88 22.25, -5.08 26.97 C-5.27 31.69, -5.62 35.1, -5.08 40.96 C-4.55 46.83, -3.64 55.38, -1.89 62.14 C-0.15 68.9, 2.24 75.63, 5.4 81.52 C8.55 87.4, 11.85 92.31, 17.03 97.45 C22.2 102.58, 28.91 107.89, 36.44 112.31 C43.97 116.73, 53.98 121.12, 62.21 123.95 C70.43 126.78, 78.19 128.2, 85.78 129.31 C93.38 130.41, 100.33 130.66, 107.79 130.58 C115.24 130.5, 123.45 129.89, 130.5 128.82 C137.56 127.75, 143.85 126.2, 150.14 124.17 C156.42 122.14, 162.33 119.64, 168.23 116.66 C174.13 113.68, 179.52 110.44, 185.53 106.28 C191.55 102.12, 198.96 96.56, 204.32 91.7 C209.68 86.83, 213.34 82.75, 217.68 77.1 C222.03 71.44, 226.45 64.54, 230.38 57.78 C234.32 51.01, 238.38 43.85, 241.29 36.52 C244.19 29.19, 246.43 21.06, 247.81 13.8 C249.2 6.55, 249.43 0.19, 249.58 -7.01 C249.73 -14.22, 249.55 -22.23, 248.72 -29.42 C247.88 -36.6, 246.02 -44.23, 244.58 -50.12 C243.13 -56, 241.43 -60.65, 240.03 -64.72 C238.63 -68.8, 237.18 -72.04, 236.16 -74.55 C235.14 -77.05, 234.54 -78.74, 233.92 -79.76 C233.29 -80.78, 233.23 -80.41, 232.39 -80.67 C231.55 -80.93, 230.65 -81.01, 228.88 -81.33 C227.1 -81.65, 224.53 -82.1, 221.73 -82.6 C218.92 -83.11, 215.73 -83.7, 212.05 -84.33 C208.38 -84.97, 203.24 -85.8, 199.67 -86.44 C196.11 -87.07, 192.08 -88.14, 190.67 -88.14 C189.27 -88.13, 190.7 -87.78, 191.25 -86.4 C191.8 -85.02, 192.78 -82.78, 193.98 -79.88 C195.17 -76.97, 196.78 -73.32, 198.42 -68.99 C200.07 -64.65, 202.03 -59.61, 203.84 -53.88 C205.65 -48.14, 207.9 -40.14, 209.27 -34.59 C210.65 -29.05, 211.4 -25.55, 212.08 -20.6 C212.75 -15.65, 213.19 -9.8, 213.31 -4.91 C213.43 -0.03, 213.22 4.57, 212.78 8.69 C212.33 12.82, 212.14 15.2, 210.63 19.84 C209.12 24.47, 206.27 31.4, 203.73 36.52 C201.19 41.64, 198.56 46.15, 195.42 50.55 C192.27 54.96, 188.95 58.96, 184.86 62.94 C180.76 66.92, 175.58 71.04, 170.86 74.43 C166.15 77.82, 161.19 80.77, 156.56 83.27 C151.93 85.77, 147.59 87.75, 143.08 89.45 C138.58 91.15, 134.01 92.4, 129.53 93.45 C125.06 94.5, 121.27 95.4, 116.21 95.75 C111.15 96.11, 104.56 96.05, 99.16 95.6 C93.76 95.15, 88.9 94.24, 83.8 93.04 C78.7 91.83, 73.6 90.33, 68.55 88.35 C63.5 86.38, 58.62 84.29, 53.48 81.18 C48.35 78.08, 42.33 73.66, 37.74 69.73 C33.15 65.79, 29.6 61.84, 25.92 57.56 C22.24 53.28, 18.72 48.79, 15.66 44.05 C12.61 39.31, 9.74 33.69, 7.6 29.12 C5.47 24.55, 4 20.35, 2.86 16.64 C1.72 12.92, 1.23 9.61, 0.76 6.84 C0.28 4.06, 0.13 1.14, 0 0 M0 0 C-0.33 0.6, -1.3 1.5, -1.96 3.6 C-2.62 5.71, -3.42 8.76, -3.94 12.65 C-4.46 16.55, -4.88 22.25, -5.08 26.97 C-5.27 31.69, -5.62 35.1, -5.08 40.96 C-4.55 46.83, -3.64 55.38, -1.89 62.14 C-0.15 68.9, 2.24 75.63, 5.4 81.52 C8.55 87.4, 11.85 92.31, 17.03 97.45 C22.2 102.58, 28.91 107.89, 36.44 112.31 C43.97 116.73, 53.98 121.12, 62.21 123.95 C70.43 126.78, 78.19 128.2, 85.78 129.31 C93.38 130.41, 100.33 130.66, 107.79 130.58 C115.24 130.5, 123.45 129.89, 130.5 128.82 C137.56 127.75, 143.85 126.2, 150.14 124.17 C156.42 122.14, 162.33 119.64, 168.23 116.66 C174.13 113.68, 179.52 110.44, 185.53 106.28 C191.55 102.12, 198.96 96.56, 204.32 91.7 C209.68 86.83, 213.34 82.75, 217.68 77.1 C222.03 71.44, 226.45 64.54, 230.38 57.78 C234.32 51.01, 238.38 43.85, 241.29 36.52 C244.19 29.19, 246.43 21.06, 247.81 13.8 C249.2 6.55, 249.43 0.19, 249.58 -7.01 C249.73 -14.22, 249.55 -22.23, 248.72 -29.42 C247.88 -36.6, 246.02 -44.23, 244.58 -50.12 C243.13 -56, 241.43 -60.65, 240.03 -64.72 C238.63 -68.8, 237.18 -72.04, 236.16 -74.55 C235.14 -77.05, 234.54 -78.74, 233.92 -79.76 C233.29 -80.78, 233.23 -80.41, 232.39 -80.67 C231.55 -80.93, 230.65 -81.01, 228.88 -81.33 C227.1 -81.65, 224.53 -82.1, 221.73 -82.6 C218.92 -83.11, 215.73 -83.7, 212.05 -84.33 C208.38 -84.97, 203.24 -85.8, 199.67 -86.44 C196.11 -87.07, 192.08 -88.14, 190.67 -88.14 C189.27 -88.13, 190.7 -87.78, 191.25 -86.4 C191.8 -85.02, 192.78 -82.78, 193.98 -79.88 C195.17 -76.97, 196.78 -73.32, 198.42 -68.99 C200.07 -64.65, 202.03 -59.61, 203.84 -53.88 C205.65 -48.14, 207.9 -40.14, 209.27 -34.59 C210.65 -29.05, 211.4 -25.55, 212.08 -20.6 C212.75 -15.65, 213.19 -9.8, 213.31 -4.91 C213.43 -0.03, 213.22 4.57, 212.78 8.69 C212.33 12.82, 212.14 15.2, 210.63 19.84 C209.12 24.47, 206.27 31.4, 203.73 36.52 C201.19 41.64, 198.56 46.15, 195.42 50.55 C192.27 54.96, 188.95 58.96, 184.86 62.94 C180.76 66.92, 175.58 71.04, 170.86 74.43 C166.15 77.82, 161.19 80.77, 156.56 83.27 C151.93 85.77, 147.59 87.75, 143.08 89.45 C138.58 91.15, 134.01 92.4, 129.53 93.45 C125.06 94.5, 121.27 95.4, 116.21 95.75 C111.15 96.11, 104.56 96.05, 99.16 95.6 C93.76 95.15, 88.9 94.24, 83.8 93.04 C78.7 91.83, 73.6 90.33, 68.55 88.35 C63.5 86.38, 58.62 84.29, 53.48 81.18 C48.35 78.08, 42.33 73.66, 37.74 69.73 C33.15 65.79, 29.6 61.84, 25.92 57.56 C22.24 53.28, 18.72 48.79, 15.66 44.05 C12.61 39.31, 9.74 33.69, 7.6 29.12 C5.47 24.55, 4 20.35, 2.86 16.64 C1.72 12.92, 1.23 9.61, 0.76 6.84 C0.28 4.06, 0.13 1.14, 0 0" stroke="#E1E1E1" stroke-width="4" fill="none"></path></g></g><mask></mask><g stroke-linecap="round"><g transform="translate(312.6491288135638 324.8428259781621) rotate(0 -144.39759616098684 65.20376046069046)"><path d="M0 0 C0.9 3, 3.73 12.01, 5.4 18.01 C7.07 24.02, 8.81 30.53, 10.02 36.01 C11.24 41.49, 12.05 45.1, 12.69 50.91 C13.33 56.71, 13.88 64.73, 13.85 70.83 C13.82 76.92, 13.46 81.39, 12.5 87.49 C11.55 93.59, 10.28 100.28, 8.15 107.43 C6.01 114.59, 2.96 123.33, -0.3 130.41 C-3.57 137.48, -7.47 143.67, -11.45 149.86 C-15.42 156.05, -19.84 162.28, -24.16 167.55 C-28.49 172.82, -31.78 176.47, -37.42 181.46 C-43.06 186.45, -51.39 193.01, -57.99 197.47 C-64.59 201.94, -70.44 205.19, -77.02 208.25 C-83.6 211.31, -90.66 213.72, -97.46 215.84 C-104.27 217.95, -111.62 219.79, -117.85 220.93 C-124.07 222.08, -128.54 222.44, -134.81 222.73 C-141.08 223.03, -148.34 223.18, -155.49 222.7 C-162.64 222.21, -170.26 221.43, -177.72 219.83 C-185.17 218.23, -192.14 216.22, -200.24 213.1 C-208.33 209.99, -218.08 206.07, -226.27 201.16 C-234.46 196.25, -243.25 188.91, -249.37 183.64 C-255.5 178.37, -258.57 174.73, -263.01 169.54 C-267.46 164.34, -271.84 158.99, -276.03 152.46 C-280.21 145.94, -284.66 137.77, -288.12 130.39 C-291.59 123.02, -294.66 115.06, -296.81 108.22 C-298.97 101.37, -300.08 96.54, -301.05 89.32 C-302.03 82.09, -302.64 73.37, -302.65 64.89 C-302.66 56.42, -302.31 46.35, -301.12 38.47 C-299.92 30.59, -297.85 24.92, -295.47 17.62 C-293.09 10.31, -290.36 1.96, -286.84 -5.36 C-283.31 -12.67, -280.06 -18.63, -274.31 -26.28 C-268.56 -33.92, -259.48 -44.37, -252.34 -51.22 C-245.2 -58.07, -238.47 -62.75, -231.46 -67.38 C-224.44 -72.01, -217.19 -75.8, -210.26 -79.01 C-203.32 -82.22, -196.78 -84.7, -189.85 -86.64 C-182.92 -88.57, -176.71 -89.68, -168.69 -90.63 C-160.66 -91.58, -149.96 -92.09, -141.72 -92.33 C-133.48 -92.56, -122.97 -92.1, -119.22 -92.05 M0 0 C0.9 3, 3.73 12.01, 5.4 18.01 C7.07 24.02, 8.81 30.53, 10.02 36.01 C11.24 41.49, 12.05 45.1, 12.69 50.91 C13.33 56.71, 13.88 64.73, 13.85 70.83 C13.82 76.92, 13.46 81.39, 12.5 87.49 C11.55 93.59, 10.28 100.28, 8.15 107.43 C6.01 114.59, 2.96 123.33, -0.3 130.41 C-3.57 137.48, -7.47 143.67, -11.45 149.86 C-15.42 156.05, -19.84 162.28, -24.16 167.55 C-28.49 172.82, -31.78 176.47, -37.42 181.46 C-43.06 186.45, -51.39 193.01, -57.99 197.47 C-64.59 201.94, -70.44 205.19, -77.02 208.25 C-83.6 211.31, -90.66 213.72, -97.46 215.84 C-104.27 217.95, -111.62 219.79, -117.85 220.93 C-124.07 222.08, -128.54 222.44, -134.81 222.73 C-141.08 223.03, -148.34 223.18, -155.49 222.7 C-162.64 222.21, -170.26 221.43, -177.72 219.83 C-185.17 218.23, -192.14 216.22, -200.24 213.1 C-208.33 209.99, -218.08 206.07, -226.27 201.16 C-234.46 196.25, -243.25 188.91, -249.37 183.64 C-255.5 178.37, -258.57 174.73, -263.01 169.54 C-267.46 164.34, -271.84 158.99, -276.03 152.46 C-280.21 145.94, -284.66 137.77, -288.12 130.39 C-291.59 123.02, -294.66 115.06, -296.81 108.22 C-298.97 101.37, -300.08 96.54, -301.05 89.32 C-302.03 82.09, -302.64 73.37, -302.65 64.89 C-302.66 56.42, -302.31 46.35, -301.12 38.47 C-299.92 30.59, -297.85 24.92, -295.47 17.62 C-293.09 10.31, -290.36 1.96, -286.84 -5.36 C-283.31 -12.67, -280.06 -18.63, -274.31 -26.28 C-268.56 -33.92, -259.48 -44.37, -252.34 -51.22 C-245.2 -58.07, -238.47 -62.75, -231.46 -67.38 C-224.44 -72.01, -217.19 -75.8, -210.26 -79.01 C-203.32 -82.22, -196.78 -84.7, -189.85 -86.64 C-182.92 -88.57, -176.71 -89.68, -168.69 -90.63 C-160.66 -91.58, -149.96 -92.09, -141.72 -92.33 C-133.48 -92.56, -122.97 -92.1, -119.22 -92.05" stroke="#E1E1E1" stroke-width="4" fill="none"></path></g></g><mask></mask><g stroke-linecap="round"><g transform="translate(193.43707540146426 233.00806145093833) rotate(0 144.39759616098684 -65.20376046069046)"><path d="M0 0 C-0.9 -3, -3.73 -12.01, -5.4 -18.01 C-7.07 -24.02, -8.81 -30.53, -10.02 -36.01 C-11.24 -41.49, -12.05 -45.1, -12.69 -50.91 C-13.33 -56.71, -13.88 -64.73, -13.85 -70.83 C-13.82 -76.92, -13.46 -81.39, -12.5 -87.49 C-11.55 -93.59, -10.28 -100.28, -8.15 -107.43 C-6.01 -114.59, -2.96 -123.33, 0.3 -130.41 C3.57 -137.48, 7.47 -143.67, 11.45 -149.86 C15.42 -156.05, 19.84 -162.28, 24.16 -167.55 C28.49 -172.82, 31.78 -176.47, 37.42 -181.46 C43.06 -186.45, 51.39 -193.01, 57.99 -197.47 C64.59 -201.94, 70.44 -205.19, 77.02 -208.25 C83.6 -211.31, 90.66 -213.72, 97.46 -215.84 C104.27 -217.95, 111.62 -219.79, 117.85 -220.93 C124.07 -222.08, 128.54 -222.44, 134.81 -222.73 C141.08 -223.03, 148.34 -223.18, 155.49 -222.7 C162.64 -222.21, 170.26 -221.43, 177.72 -219.83 C185.17 -218.23, 192.14 -216.22, 200.24 -213.1 C208.33 -209.99, 218.08 -206.07, 226.27 -201.16 C234.46 -196.25, 243.25 -188.91, 249.37 -183.64 C255.5 -178.37, 258.57 -174.73, 263.01 -169.54 C267.46 -164.34, 271.84 -158.99, 276.03 -152.46 C280.21 -145.94, 284.66 -137.77, 288.12 -130.39 C291.59 -123.02, 294.66 -115.06, 296.81 -108.22 C298.97 -101.37, 300.08 -96.54, 301.05 -89.32 C302.03 -82.09, 302.64 -73.37, 302.65 -64.89 C302.66 -56.42, 302.31 -46.35, 301.12 -38.47 C299.92 -30.59, 297.85 -24.92, 295.47 -17.62 C293.09 -10.31, 290.36 -1.96, 286.84 5.36 C283.31 12.67, 280.06 18.63, 274.31 26.28 C268.56 33.92, 259.48 44.37, 252.34 51.22 C245.2 58.07, 238.47 62.75, 231.46 67.38 C224.44 72.01, 217.19 75.8, 210.26 79.01 C203.32 82.22, 196.78 84.7, 189.85 86.64 C182.92 88.57, 176.71 89.68, 168.69 90.63 C160.66 91.58, 149.96 92.09, 141.72 92.33 C133.48 92.56, 122.97 92.1, 119.22 92.05 M0 0 C-0.9 -3, -3.73 -12.01, -5.4 -18.01 C-7.07 -24.02, -8.81 -30.53, -10.02 -36.01 C-11.24 -41.49, -12.05 -45.1, -12.69 -50.91 C-13.33 -56.71, -13.88 -64.73, -13.85 -70.83 C-13.82 -76.92, -13.46 -81.39, -12.5 -87.49 C-11.55 -93.59, -10.28 -100.28, -8.15 -107.43 C-6.01 -114.59, -2.96 -123.33, 0.3 -130.41 C3.57 -137.48, 7.47 -143.67, 11.45 -149.86 C15.42 -156.05, 19.84 -162.28, 24.16 -167.55 C28.49 -172.82, 31.78 -176.47, 37.42 -181.46 C43.06 -186.45, 51.39 -193.01, 57.99 -197.47 C64.59 -201.94, 70.44 -205.19, 77.02 -208.25 C83.6 -211.31, 90.66 -213.72, 97.46 -215.84 C104.27 -217.95, 111.62 -219.79, 117.85 -220.93 C124.07 -222.08, 128.54 -222.44, 134.81 -222.73 C141.08 -223.03, 148.34 -223.18, 155.49 -222.7 C162.64 -222.21, 170.26 -221.43, 177.72 -219.83 C185.17 -218.23, 192.14 -216.22, 200.24 -213.1 C208.33 -209.99, 218.08 -206.07, 226.27 -201.16 C234.46 -196.25, 243.25 -188.91, 249.37 -183.64 C255.5 -178.37, 258.57 -174.73, 263.01 -169.54 C267.46 -164.34, 271.84 -158.99, 276.03 -152.46 C280.21 -145.94, 284.66 -137.77, 288.12 -130.39 C291.59 -123.02, 294.66 -115.06, 296.81 -108.22 C298.97 -101.37, 300.08 -96.54, 301.05 -89.32 C302.03 -82.09, 302.64 -73.37, 302.65 -64.89 C302.66 -56.42, 302.31 -46.35, 301.12 -38.47 C299.92 -30.59, 297.85 -24.92, 295.47 -17.62 C293.09 -10.31, 290.36 -1.96, 286.84 5.36 C283.31 12.67, 280.06 18.63, 274.31 26.28 C268.56 33.92, 259.48 44.37, 252.34 51.22 C245.2 58.07, 238.47 62.75, 231.46 67.38 C224.44 72.01, 217.19 75.8, 210.26 79.01 C203.32 82.22, 196.78 84.7, 189.85 86.64 C182.92 88.57, 176.71 89.68, 168.69 90.63 C160.66 91.58, 149.96 92.09, 141.72 92.33 C133.48 92.56, 122.97 92.1, 119.22 92.05" stroke="#E1E1E1" stroke-width="4" fill="none"></path></g></g><mask></mask><g stroke-linecap="round"><g transform="translate(229.72839180151124 310.8201196975128) rotate(0 -62.53227714438377 80.85472468309858)"><path d="M0 0 C1 2.1, 3.8 7.72, 6.01 12.58 C8.21 17.44, 11.1 24.07, 13.25 29.15 C15.4 34.24, 17.14 37.8, 18.88 43.11 C20.62 48.43, 22.34 55, 23.7 61.04 C25.05 67.08, 26.4 73.7, 27.01 79.36 C27.61 85.01, 27.73 89.93, 27.33 94.99 C26.92 100.05, 25.9 105.21, 24.59 109.7 C23.29 114.18, 21.79 117.54, 19.5 121.9 C17.22 126.27, 14.48 131.35, 10.89 135.88 C7.3 140.41, 2.1 145.43, -2.04 149.07 C-6.18 152.7, -9.55 155.1, -13.95 157.69 C-18.36 160.28, -23.67 162.89, -28.45 164.61 C-33.24 166.34, -37.21 167.16, -42.64 168.06 C-48.08 168.95, -55.14 169.89, -61.08 169.98 C-67.01 170.07, -72.55 169.66, -78.27 168.59 C-84 167.52, -89.99 165.71, -95.43 163.56 C-100.87 161.41, -106.35 158.44, -110.92 155.69 C-115.48 152.93, -119.14 150.28, -122.81 147.04 C-126.49 143.81, -129.72 140.36, -132.97 136.29 C-136.22 132.22, -139.72 127.2, -142.33 122.63 C-144.94 118.07, -147.18 113.08, -148.62 108.91 C-150.07 104.74, -150.38 102.33, -151.01 97.63 C-151.64 92.93, -152.29 86.29, -152.39 80.71 C-152.49 75.12, -152.55 69.86, -151.62 64.13 C-150.68 58.4, -149.01 51.99, -146.79 46.32 C-144.58 40.66, -141.43 35.18, -138.3 30.12 C-135.18 25.07, -131.44 19.81, -128.03 15.99 C-124.62 12.18, -122.13 10.1, -117.85 7.23 C-113.58 4.36, -108.07 1.13, -102.36 -1.21 C-96.66 -3.55, -90.3 -5.62, -83.6 -6.8 C-76.91 -7.98, -69.69 -8.28, -62.19 -8.27 C-54.68 -8.26, -46.74 -7.69, -38.58 -6.76 C-30.42 -5.82, -19.66 -3.82, -13.23 -2.69 C-6.8 -1.56, -2.21 -0.45, 0 0 M0 0 C1 2.1, 3.8 7.72, 6.01 12.58 C8.21 17.44, 11.1 24.07, 13.25 29.15 C15.4 34.24, 17.14 37.8, 18.88 43.11 C20.62 48.43, 22.34 55, 23.7 61.04 C25.05 67.08, 26.4 73.7, 27.01 79.36 C27.61 85.01, 27.73 89.93, 27.33 94.99 C26.92 100.05, 25.9 105.21, 24.59 109.7 C23.29 114.18, 21.79 117.54, 19.5 121.9 C17.22 126.27, 14.48 131.35, 10.89 135.88 C7.3 140.41, 2.1 145.43, -2.04 149.07 C-6.18 152.7, -9.55 155.1, -13.95 157.69 C-18.36 160.28, -23.67 162.89, -28.45 164.61 C-33.24 166.34, -37.21 167.16, -42.64 168.06 C-48.08 168.95, -55.14 169.89, -61.08 169.98 C-67.01 170.07, -72.55 169.66, -78.27 168.59 C-84 167.52, -89.99 165.71, -95.43 163.56 C-100.87 161.41, -106.35 158.44, -110.92 155.69 C-115.48 152.93, -119.14 150.28, -122.81 147.04 C-126.49 143.81, -129.72 140.36, -132.97 136.29 C-136.22 132.22, -139.72 127.2, -142.33 122.63 C-144.94 118.07, -147.18 113.08, -148.62 108.91 C-150.07 104.74, -150.38 102.33, -151.01 97.63 C-151.64 92.93, -152.29 86.29, -152.39 80.71 C-152.49 75.12, -152.55 69.86, -151.62 64.13 C-150.68 58.4, -149.01 51.99, -146.79 46.32 C-144.58 40.66, -141.43 35.18, -138.3 30.12 C-135.18 25.07, -131.44 19.81, -128.03 15.99 C-124.62 12.18, -122.13 10.1, -117.85 7.23 C-113.58 4.36, -108.07 1.13, -102.36 -1.21 C-96.66 -3.55, -90.3 -5.62, -83.6 -6.8 C-76.91 -7.98, -69.69 -8.28, -62.19 -8.27 C-54.68 -8.26, -46.74 -7.69, -38.58 -6.76 C-30.42 -5.82, -19.66 -3.82, -13.23 -2.69 C-6.8 -1.56, -2.21 -0.45, 0 0" stroke="#E1E1E1" stroke-width="4" fill="none"></path></g></g><mask></mask></svg>