<svg version="1.1" xmlns="http://www.w3.org/2000/svg" viewBox="0 0 848.5178810632947 769.6977650233397" width="848.5178810632947" height="769.6977650233397" class="excalidraw-svg"><!-- svg-source:excalidraw --><metadata></metadata><defs><style class="style-fonts">
      </style></defs><rect x="0" y="0" width="848.5178810632947" height="769.6977650233397" fill="#000000"></rect><g stroke-linecap="round"><g transform="translate(781.2224608931261 467.47222514473333) rotate(0 -357.0016218615221 -197.91787289608948)" fill-rule="evenodd"><path d="M0 0 C-4.37 3.66, -17.64 16.86, -26.19 21.99 C-34.75 27.11, -42.87 28.6, -51.33 30.74 C-59.79 32.88, -70.35 33.15, -76.97 34.85 C-83.59 36.54, -88.81 37.38, -91.04 40.9 C-93.27 44.43, -93.07 52.7, -90.37 56 C-87.67 59.3, -83.7 60.89, -74.84 60.7 C-65.99 60.5, -49.27 58.54, -37.26 54.81 C-25.25 51.09, -13 45.05, -2.78 38.36 C7.44 31.67, 16.57 23.33, 24.07 14.68 C31.56 6.03, 37.1 -3.05, 42.19 -13.54 C47.29 -24.04, 52.19 -35.95, 54.63 -48.28 C57.07 -60.6, 57.91 -75.54, 56.83 -87.49 C55.76 -99.44, 52.42 -109.19, 48.17 -119.96 C43.92 -130.73, 37.54 -142.66, 31.32 -152.09 C25.1 -161.52, 16.4 -170.85, 10.83 -176.53 C5.27 -182.2, 0.36 -181.66, -2.08 -186.15 C-4.51 -190.64, -1.87 -196.22, -3.78 -203.47 C-5.69 -210.71, -9.41 -220.9, -13.54 -229.63 C-17.68 -238.36, -23.33 -248.65, -28.59 -255.83 C-33.85 -263.01, -38.07 -266.73, -45.11 -272.71 C-52.15 -278.69, -62.33 -286.75, -70.82 -291.7 C-79.31 -296.65, -87.62 -299.92, -96.06 -302.41 C-104.5 -304.89, -114.62 -305.92, -121.47 -306.63 C-128.32 -307.34, -132.99 -304.03, -137.15 -306.65 C-141.32 -309.26, -142.57 -316.86, -146.48 -322.31 C-150.38 -327.76, -154.96 -333.71, -160.59 -339.34 C-166.22 -344.97, -172.47 -351, -180.28 -356.08 C-188.08 -361.16, -198.05 -365.97, -207.41 -369.83 C-216.76 -373.69, -225.4 -377.51, -236.4 -379.23 C-247.4 -380.95, -262.31 -381.46, -273.41 -380.16 C-284.51 -378.86, -294.77 -374.23, -302.99 -371.42 C-311.21 -368.6, -317.53 -363.1, -322.75 -363.27 C-327.97 -363.44, -329.34 -367.44, -334.31 -372.42 C-339.28 -377.41, -345.65 -386.12, -352.57 -393.19 C-359.49 -400.26, -366.03 -407.61, -375.85 -414.83 C-385.68 -422.05, -399.17 -430.65, -411.52 -436.51 C-423.87 -442.36, -436.36 -446.51, -449.95 -449.94 C-463.55 -453.38, -478.09 -456.32, -493.07 -457.11 C-508.05 -457.89, -523.95 -457.55, -539.83 -454.67 C-555.7 -451.79, -572.7 -446.72, -588.31 -439.84 C-603.91 -432.95, -620.52 -423.25, -633.47 -413.36 C-646.41 -403.47, -656.44 -392.37, -665.98 -380.49 C-675.52 -368.6, -683.79 -355.26, -690.7 -342.05 C-697.6 -328.83, -703.44 -317.33, -707.39 -301.18 C-711.34 -285.04, -713.77 -259.85, -714.42 -245.18 C-715.07 -230.5, -712.45 -222.43, -711.32 -213.12 C-710.18 -203.8, -706.06 -194.79, -707.63 -189.28 C-709.19 -183.78, -714.41 -185.85, -720.69 -180.08 C-726.97 -174.32, -739.05 -162.74, -745.3 -154.68 C-751.54 -146.62, -754.28 -140.54, -758.18 -131.74 C-762.08 -122.93, -766.61 -113.52, -768.72 -101.85 C-770.83 -90.18, -771.83 -74.42, -770.84 -61.73 C-769.85 -49.04, -766.61 -36.84, -762.78 -25.71 C-758.95 -14.59, -753.99 -4.2, -747.83 5.01 C-741.68 14.23, -735.48 22.02, -725.84 29.59 C-716.2 37.16, -701.17 45.39, -690.01 50.43 C-678.84 55.48, -667.98 58.07, -658.85 59.88 C-649.73 61.69, -641.21 62.23, -635.26 61.27 C-629.32 60.31, -624.96 57.63, -623.18 54.11 C-621.39 50.58, -621.48 43.45, -624.56 40.13 C-627.64 36.8, -634.95 35.54, -641.66 34.18 C-648.37 32.81, -657.09 33.8, -664.83 31.94 C-672.57 30.08, -681.11 26.56, -688.1 23.02 C-695.09 19.48, -700.54 16.15, -706.78 10.71 C-713.02 5.27, -720.07 -1.89, -725.54 -9.64 C-731.01 -17.38, -736.09 -26.2, -739.61 -35.78 C-743.12 -45.36, -745.75 -57.39, -746.62 -67.11 C-747.48 -76.82, -747.35 -83.62, -744.82 -94.06 C-742.28 -104.5, -737.44 -119.17, -731.42 -129.75 C-725.4 -140.32, -715.77 -150.73, -708.7 -157.5 C-701.62 -164.27, -693.87 -166.32, -688.98 -170.37 C-684.09 -174.41, -680.42 -176.78, -679.36 -181.77 C-678.3 -186.76, -681.3 -193.44, -682.63 -200.33 C-683.95 -207.21, -685.99 -214.84, -687.31 -223.08 C-688.63 -231.32, -691.23 -237.2, -690.54 -249.76 C-689.86 -262.31, -687.61 -283.07, -683.22 -298.41 C-678.83 -313.76, -673.26 -327.34, -664.2 -341.82 C-655.13 -356.3, -642.8 -372.86, -628.83 -385.29 C-614.85 -397.71, -597.26 -408.49, -580.35 -416.39 C-563.44 -424.29, -543.14 -429.89, -527.37 -432.68 C-511.6 -435.46, -500.52 -434.94, -485.71 -433.11 C-470.9 -431.28, -451.71 -426.31, -438.49 -421.69 C-425.26 -417.07, -416.81 -412.06, -406.36 -405.41 C-395.91 -398.77, -384.14 -389.76, -375.78 -381.84 C-367.43 -373.92, -361.92 -365.55, -356.23 -357.9 C-350.54 -350.25, -346.36 -340.36, -341.65 -335.93 C-336.93 -331.5, -333.91 -330.36, -327.95 -331.31 C-321.99 -332.26, -312.86 -338.45, -305.89 -341.61 C-298.92 -344.77, -294.1 -348.16, -286.13 -350.28 C-278.16 -352.4, -268.81 -354.49, -258.06 -354.33 C-247.31 -354.17, -232.21 -352.83, -221.62 -349.3 C-211.03 -345.78, -201.81 -338.07, -194.52 -333.19 C-187.23 -328.31, -182.79 -325.14, -177.86 -320.03 C-172.93 -314.91, -168.55 -308.17, -164.95 -302.49 C-161.34 -296.8, -159.88 -289.65, -156.25 -285.91 C-152.61 -282.17, -149.28 -281.11, -143.15 -280.03 C-137.02 -278.95, -127.81 -280.79, -119.49 -279.44 C-111.16 -278.09, -101.06 -275.15, -93.18 -271.95 C-85.3 -268.75, -78.8 -265.02, -72.21 -260.24 C-65.62 -255.46, -59.73 -250.95, -53.65 -243.28 C-47.57 -235.61, -40.01 -222.88, -35.74 -214.22 C-31.47 -205.55, -29.46 -198.33, -28.02 -191.28 C-26.58 -184.24, -29.74 -177.21, -27.12 -171.96 C-24.49 -166.71, -17.68 -164.63, -12.27 -159.79 C-6.86 -154.94, -0.15 -149.94, 5.36 -142.9 C10.86 -135.87, 16.97 -125.74, 20.77 -117.59 C24.57 -109.44, 26.73 -104, 28.16 -94.03 C29.59 -84.06, 30.57 -68.69, 29.35 -57.77 C28.13 -46.85, 23.84 -36.02, 20.85 -28.49 C17.85 -20.96, 14.75 -17.13, 11.39 -12.61 C8.02 -8.09, 2.46 -3.23, 0.68 -1.36" stroke="none" stroke-width="0" fill="#FFFFFF" fill-rule="evenodd"></path><path d="M0 0 C-4.37 3.66, -17.64 16.86, -26.19 21.99 C-34.75 27.11, -42.87 28.6, -51.33 30.74 C-59.79 32.88, -70.35 33.15, -76.97 34.85 C-83.59 36.54, -88.81 37.38, -91.04 40.9 C-93.27 44.43, -93.07 52.7, -90.37 56 C-87.67 59.3, -83.7 60.89, -74.84 60.7 C-65.99 60.5, -49.27 58.54, -37.26 54.81 C-25.25 51.09, -13 45.05, -2.78 38.36 C7.44 31.67, 16.57 23.33, 24.07 14.68 C31.56 6.03, 37.1 -3.05, 42.19 -13.54 C47.29 -24.04, 52.19 -35.95, 54.63 -48.28 C57.07 -60.6, 57.91 -75.54, 56.83 -87.49 C55.76 -99.44, 52.42 -109.19, 48.17 -119.96 C43.92 -130.73, 37.54 -142.66, 31.32 -152.09 C25.1 -161.52, 16.4 -170.85, 10.83 -176.53 C5.27 -182.2, 0.36 -181.66, -2.08 -186.15 C-4.51 -190.64, -1.87 -196.22, -3.78 -203.47 C-5.69 -210.71, -9.41 -220.9, -13.54 -229.63 C-17.68 -238.36, -23.33 -248.65, -28.59 -255.83 C-33.85 -263.01, -38.07 -266.73, -45.11 -272.71 C-52.15 -278.69, -62.33 -286.75, -70.82 -291.7 C-79.31 -296.65, -87.62 -299.92, -96.06 -302.41 C-104.5 -304.89, -114.62 -305.92, -121.47 -306.63 C-128.32 -307.34, -132.99 -304.03, -137.15 -306.65 C-141.32 -309.26, -142.57 -316.86, -146.48 -322.31 C-150.38 -327.76, -154.96 -333.71, -160.59 -339.34 C-166.22 -344.97, -172.47 -351, -180.28 -356.08 C-188.08 -361.16, -198.05 -365.97, -207.41 -369.83 C-216.76 -373.69, -225.4 -377.51, -236.4 -379.23 C-247.4 -380.95, -262.31 -381.46, -273.41 -380.16 C-284.51 -378.86, -294.77 -374.23, -302.99 -371.42 C-311.21 -368.6, -317.53 -363.1, -322.75 -363.27 C-327.97 -363.44, -329.34 -367.44, -334.31 -372.42 C-339.28 -377.41, -345.65 -386.12, -352.57 -393.19 C-359.49 -400.26, -366.03 -407.61, -375.85 -414.83 C-385.68 -422.05, -399.17 -430.65, -411.52 -436.51 C-423.87 -442.36, -436.36 -446.51, -449.95 -449.94 C-463.55 -453.38, -478.09 -456.32, -493.07 -457.11 C-508.05 -457.89, -523.95 -457.55, -539.83 -454.67 C-555.7 -451.79, -572.7 -446.72, -588.31 -439.84 C-603.91 -432.95, -620.52 -423.25, -633.47 -413.36 C-646.41 -403.47, -656.44 -392.37, -665.98 -380.49 C-675.52 -368.6, -683.79 -355.26, -690.7 -342.05 C-697.6 -328.83, -703.44 -317.33, -707.39 -301.18 C-711.34 -285.04, -713.77 -259.85, -714.42 -245.18 C-715.07 -230.5, -712.45 -222.43, -711.32 -213.12 C-710.18 -203.8, -706.06 -194.79, -707.63 -189.28 C-709.19 -183.78, -714.41 -185.85, -720.69 -180.08 C-726.97 -174.32, -739.05 -162.74, -745.3 -154.68 C-751.54 -146.62, -754.28 -140.54, -758.18 -131.74 C-762.08 -122.93, -766.61 -113.52, -768.72 -101.85 C-770.83 -90.18, -771.83 -74.42, -770.84 -61.73 C-769.85 -49.04, -766.61 -36.84, -762.78 -25.71 C-758.95 -14.59, -753.99 -4.2, -747.83 5.01 C-741.68 14.23, -735.48 22.02, -725.84 29.59 C-716.2 37.16, -701.17 45.39, -690.01 50.43 C-678.84 55.48, -667.98 58.07, -658.85 59.88 C-649.73 61.69, -641.21 62.23, -635.26 61.27 C-629.32 60.31, -624.96 57.63, -623.18 54.11 C-621.39 50.58, -621.48 43.45, -624.56 40.13 C-627.64 36.8, -634.95 35.54, -641.66 34.18 C-648.37 32.81, -657.09 33.8, -664.83 31.94 C-672.57 30.08, -681.11 26.56, -688.1 23.02 C-695.09 19.48, -700.54 16.15, -706.78 10.71 C-713.02 5.27, -720.07 -1.89, -725.54 -9.64 C-731.01 -17.38, -736.09 -26.2, -739.61 -35.78 C-743.12 -45.36, -745.75 -57.39, -746.62 -67.11 C-747.48 -76.82, -747.35 -83.62, -744.82 -94.06 C-742.28 -104.5, -737.44 -119.17, -731.42 -129.75 C-725.4 -140.32, -715.77 -150.73, -708.7 -157.5 C-701.62 -164.27, -693.87 -166.32, -688.98 -170.37 C-684.09 -174.41, -680.42 -176.78, -679.36 -181.77 C-678.3 -186.76, -681.3 -193.44, -682.63 -200.33 C-683.95 -207.21, -685.99 -214.84, -687.31 -223.08 C-688.63 -231.32, -691.23 -237.2, -690.54 -249.76 C-689.86 -262.31, -687.61 -283.07, -683.22 -298.41 C-678.83 -313.76, -673.26 -327.34, -664.2 -341.82 C-655.13 -356.3, -642.8 -372.86, -628.83 -385.29 C-614.85 -397.71, -597.26 -408.49, -580.35 -416.39 C-563.44 -424.29, -543.14 -429.89, -527.37 -432.68 C-511.6 -435.46, -500.52 -434.94, -485.71 -433.11 C-470.9 -431.28, -451.71 -426.31, -438.49 -421.69 C-425.26 -417.07, -416.81 -412.06, -406.36 -405.41 C-395.91 -398.77, -384.14 -389.76, -375.78 -381.84 C-367.43 -373.92, -361.92 -365.55, -356.23 -357.9 C-350.54 -350.25, -346.36 -340.36, -341.65 -335.93 C-336.93 -331.5, -333.91 -330.36, -327.95 -331.31 C-321.99 -332.26, -312.86 -338.45, -305.89 -341.61 C-298.92 -344.77, -294.1 -348.16, -286.13 -350.28 C-278.16 -352.4, -268.81 -354.49, -258.06 -354.33 C-247.31 -354.17, -232.21 -352.83, -221.62 -349.3 C-211.03 -345.78, -201.81 -338.07, -194.52 -333.19 C-187.23 -328.31, -182.79 -325.14, -177.86 -320.03 C-172.93 -314.91, -168.55 -308.17, -164.95 -302.49 C-161.34 -296.8, -159.88 -289.65, -156.25 -285.91 C-152.61 -282.17, -149.28 -281.11, -143.15 -280.03 C-137.02 -278.95, -127.81 -280.79, -119.49 -279.44 C-111.16 -278.09, -101.06 -275.15, -93.18 -271.95 C-85.3 -268.75, -78.8 -265.02, -72.21 -260.24 C-65.62 -255.46, -59.73 -250.95, -53.65 -243.28 C-47.57 -235.61, -40.01 -222.88, -35.74 -214.22 C-31.47 -205.55, -29.46 -198.33, -28.02 -191.28 C-26.58 -184.24, -29.74 -177.21, -27.12 -171.96 C-24.49 -166.71, -17.68 -164.63, -12.27 -159.79 C-6.86 -154.94, -0.15 -149.94, 5.36 -142.9 C10.86 -135.87, 16.97 -125.74, 20.77 -117.59 C24.57 -109.44, 26.73 -104, 28.16 -94.03 C29.59 -84.06, 30.57 -68.69, 29.35 -57.77 C28.13 -46.85, 23.84 -36.02, 20.85 -28.49 C17.85 -20.96, 14.75 -17.13, 11.39 -12.61 C8.02 -8.09, 2.46 -3.23, 0.68 -1.36 M0 0 C-4.37 3.66, -17.64 16.86, -26.19 21.99 C-34.75 27.11, -42.87 28.6, -51.33 30.74 C-59.79 32.88, -70.35 33.15, -76.97 34.85 C-83.59 36.54, -88.81 37.38, -91.04 40.9 C-93.27 44.43, -93.07 52.7, -90.37 56 C-87.67 59.3, -83.7 60.89, -74.84 60.7 C-65.99 60.5, -49.27 58.54, -37.26 54.81 C-25.25 51.09, -13 45.05, -2.78 38.36 C7.44 31.67, 16.57 23.33, 24.07 14.68 C31.56 6.03, 37.1 -3.05, 42.19 -13.54 C47.29 -24.04, 52.19 -35.95, 54.63 -48.28 C57.07 -60.6, 57.91 -75.54, 56.83 -87.49 C55.76 -99.44, 52.42 -109.19, 48.17 -119.96 C43.92 -130.73, 37.54 -142.66, 31.32 -152.09 C25.1 -161.52, 16.4 -170.85, 10.83 -176.53 C5.27 -182.2, 0.36 -181.66, -2.08 -186.15 C-4.51 -190.64, -1.87 -196.22, -3.78 -203.47 C-5.69 -210.71, -9.41 -220.9, -13.54 -229.63 C-17.68 -238.36, -23.33 -248.65, -28.59 -255.83 C-33.85 -263.01, -38.07 -266.73, -45.11 -272.71 C-52.15 -278.69, -62.33 -286.75, -70.82 -291.7 C-79.31 -296.65, -87.62 -299.92, -96.06 -302.41 C-104.5 -304.89, -114.62 -305.92, -121.47 -306.63 C-128.32 -307.34, -132.99 -304.03, -137.15 -306.65 C-141.32 -309.26, -142.57 -316.86, -146.48 -322.31 C-150.38 -327.76, -154.96 -333.71, -160.59 -339.34 C-166.22 -344.97, -172.47 -351, -180.28 -356.08 C-188.08 -361.16, -198.05 -365.97, -207.41 -369.83 C-216.76 -373.69, -225.4 -377.51, -236.4 -379.23 C-247.4 -380.95, -262.31 -381.46, -273.41 -380.16 C-284.51 -378.86, -294.77 -374.23, -302.99 -371.42 C-311.21 -368.6, -317.53 -363.1, -322.75 -363.27 C-327.97 -363.44, -329.34 -367.44, -334.31 -372.42 C-339.28 -377.41, -345.65 -386.12, -352.57 -393.19 C-359.49 -400.26, -366.03 -407.61, -375.85 -414.83 C-385.68 -422.05, -399.17 -430.65, -411.52 -436.51 C-423.87 -442.36, -436.36 -446.51, -449.95 -449.94 C-463.55 -453.38, -478.09 -456.32, -493.07 -457.11 C-508.05 -457.89, -523.95 -457.55, -539.83 -454.67 C-555.7 -451.79, -572.7 -446.72, -588.31 -439.84 C-603.91 -432.95, -620.52 -423.25, -633.47 -413.36 C-646.41 -403.47, -656.44 -392.37, -665.98 -380.49 C-675.52 -368.6, -683.79 -355.26, -690.7 -342.05 C-697.6 -328.83, -703.44 -317.33, -707.39 -301.18 C-711.34 -285.04, -713.77 -259.85, -714.42 -245.18 C-715.07 -230.5, -712.45 -222.43, -711.32 -213.12 C-710.18 -203.8, -706.06 -194.79, -707.63 -189.28 C-709.19 -183.78, -714.41 -185.85, -720.69 -180.08 C-726.97 -174.32, -739.05 -162.74, -745.3 -154.68 C-751.54 -146.62, -754.28 -140.54, -758.18 -131.74 C-762.08 -122.93, -766.61 -113.52, -768.72 -101.85 C-770.83 -90.18, -771.83 -74.42, -770.84 -61.73 C-769.85 -49.04, -766.61 -36.84, -762.78 -25.71 C-758.95 -14.59, -753.99 -4.2, -747.83 5.01 C-741.68 14.23, -735.48 22.02, -725.84 29.59 C-716.2 37.16, -701.17 45.39, -690.01 50.43 C-678.84 55.48, -667.98 58.07, -658.85 59.88 C-649.73 61.69, -641.21 62.23, -635.26 61.27 C-629.32 60.31, -624.96 57.63, -623.18 54.11 C-621.39 50.58, -621.48 43.45, -624.56 40.13 C-627.64 36.8, -634.95 35.54, -641.66 34.18 C-648.37 32.81, -657.09 33.8, -664.83 31.94 C-672.57 30.08, -681.11 26.56, -688.1 23.02 C-695.09 19.48, -700.54 16.15, -706.78 10.71 C-713.02 5.27, -720.07 -1.89, -725.54 -9.64 C-731.01 -17.38, -736.09 -26.2, -739.61 -35.78 C-743.12 -45.36, -745.75 -57.39, -746.62 -67.11 C-747.48 -76.82, -747.35 -83.62, -744.82 -94.06 C-742.28 -104.5, -737.44 -119.17, -731.42 -129.75 C-725.4 -140.32, -715.77 -150.73, -708.7 -157.5 C-701.62 -164.27, -693.87 -166.32, -688.98 -170.37 C-684.09 -174.41, -680.42 -176.78, -679.36 -181.77 C-678.3 -186.76, -681.3 -193.44, -682.63 -200.33 C-683.95 -207.21, -685.99 -214.84, -687.31 -223.08 C-688.63 -231.32, -691.23 -237.2, -690.54 -249.76 C-689.86 -262.31, -687.61 -283.07, -683.22 -298.41 C-678.83 -313.76, -673.26 -327.34, -664.2 -341.82 C-655.13 -356.3, -642.8 -372.86, -628.83 -385.29 C-614.85 -397.71, -597.26 -408.49, -580.35 -416.39 C-563.44 -424.29, -543.14 -429.89, -527.37 -432.68 C-511.6 -435.46, -500.52 -434.94, -485.71 -433.11 C-470.9 -431.28, -451.71 -426.31, -438.49 -421.69 C-425.26 -417.07, -416.81 -412.06, -406.36 -405.41 C-395.91 -398.77, -384.14 -389.76, -375.78 -381.84 C-367.43 -373.92, -361.92 -365.55, -356.23 -357.9 C-350.54 -350.25, -346.36 -340.36, -341.65 -335.93 C-336.93 -331.5, -333.91 -330.36, -327.95 -331.31 C-321.99 -332.26, -312.86 -338.45, -305.89 -341.61 C-298.92 -344.77, -294.1 -348.16, -286.13 -350.28 C-278.16 -352.4, -268.81 -354.49, -258.06 -354.33 C-247.31 -354.17, -232.21 -352.83, -221.62 -349.3 C-211.03 -345.78, -201.81 -338.07, -194.52 -333.19 C-187.23 -328.31, -182.79 -325.14, -177.86 -320.03 C-172.93 -314.91, -168.55 -308.17, -164.95 -302.49 C-161.34 -296.8, -159.88 -289.65, -156.25 -285.91 C-152.61 -282.17, -149.28 -281.11, -143.15 -280.03 C-137.02 -278.95, -127.81 -280.79, -119.49 -279.44 C-111.16 -278.09, -101.06 -275.15, -93.18 -271.95 C-85.3 -268.75, -78.8 -265.02, -72.21 -260.24 C-65.62 -255.46, -59.73 -250.95, -53.65 -243.28 C-47.57 -235.61, -40.01 -222.88, -35.74 -214.22 C-31.47 -205.55, -29.46 -198.33, -28.02 -191.28 C-26.58 -184.24, -29.74 -177.21, -27.12 -171.96 C-24.49 -166.71, -17.68 -164.63, -12.27 -159.79 C-6.86 -154.94, -0.15 -149.94, 5.36 -142.9 C10.86 -135.87, 16.97 -125.74, 20.77 -117.59 C24.57 -109.44, 26.73 -104, 28.16 -94.03 C29.59 -84.06, 30.57 -68.69, 29.35 -57.77 C28.13 -46.85, 23.84 -36.02, 20.85 -28.49 C17.85 -20.96, 14.75 -17.13, 11.39 -12.61 C8.02 -8.09, 2.46 -3.23, 0.68 -1.36" stroke="#FFFFFF" stroke-width="4" fill="none"></path></g></g><mask></mask><g stroke-linecap="round"><g transform="translate(508.0986244044376 727.3155167687391) rotate(0 -35.96258732223728 -258.6622364042099)" fill-rule="evenodd"><path d="M0 0 C-6.5 -1.22, -28.87 -5.54, -38.98 -7.35 C-49.1 -9.15, -58.49 -8.36, -60.7 -10.84 C-62.91 -13.32, -55.58 -18.4, -52.25 -22.21 C-48.93 -26.02, -46.62 -32.26, -40.73 -33.71 C-34.85 -35.16, -25.68 -32.18, -16.94 -30.89 C-8.2 -29.6, 3.06 -27.46, 11.71 -25.98 C20.37 -24.51, 30.22 -19.94, 34.99 -22.04 C39.77 -24.15, 37.77 -25.98, 40.35 -38.61 C42.92 -51.23, 46.09 -73.8, 50.43 -97.81 C54.76 -121.82, 60.58 -151.47, 66.35 -182.66 C72.13 -213.84, 78.95 -250.64, 85.07 -284.94 C91.2 -319.24, 98.84 -364.4, 103.09 -388.47 C107.35 -412.54, 109.09 -420.17, 110.61 -429.36 C112.12 -438.56, 114.42 -440.35, 112.18 -443.64 C109.94 -446.93, 106.76 -446.89, 97.19 -449.08 C87.62 -451.27, 72.19 -453.62, 54.75 -456.76 C37.31 -459.91, 13.1 -464.28, -7.44 -467.97 C-27.99 -471.65, -48.47 -475.43, -68.52 -478.87 C-88.58 -482.31, -111.93 -486.08, -127.76 -488.62 C-143.59 -491.16, -156.17 -495.52, -163.49 -494.1 C-170.8 -492.68, -168.92 -489.61, -171.64 -480.12 C-174.36 -470.62, -177.9 -447.4, -179.83 -437.14 C-181.76 -426.88, -177.67 -421.77, -183.22 -418.57 C-188.76 -415.37, -208.93 -414.98, -213.08 -417.94 C-217.23 -420.89, -209.94 -428.25, -208.11 -436.31 C-206.27 -444.38, -204.1 -456.79, -202.08 -466.33 C-200.06 -475.87, -197.73 -485.58, -195.98 -493.56 C-194.24 -501.54, -194.27 -509.25, -191.61 -514.22 C-188.96 -519.18, -186.72 -522.36, -180.04 -523.35 C-173.36 -524.33, -165.46 -522.53, -151.54 -520.13 C-137.62 -517.73, -115.61 -512.57, -96.52 -508.95 C-77.43 -505.32, -59.84 -502.4, -37 -498.38 C-14.15 -494.37, 15.55 -489.3, 40.55 -484.86 C65.55 -480.42, 97.57 -474.54, 112.99 -471.72 C128.41 -468.91, 128.37 -470.61, 133.06 -467.96 C137.75 -465.31, 140.71 -463.47, 141.15 -455.82 C141.6 -448.17, 138.75 -439.24, 135.74 -422.05 C132.74 -404.86, 128.21 -380.35, 123.13 -352.67 C118.05 -324.99, 110.44 -285.09, 105.26 -255.98 C100.08 -226.88, 97.31 -207.44, 92.05 -178.04 C86.79 -148.63, 78.65 -106.98, 73.7 -79.56 C68.76 -52.14, 65.57 -27.39, 62.41 -13.52 C59.24 0.34, 58.89 0.35, 54.73 3.61 C50.57 6.87, 46.57 6.63, 37.45 6.02 C28.33 5.42, 6.24 1, 0 0" stroke="none" stroke-width="0" fill="#FFFFFF" fill-rule="evenodd"></path><path d="M0 0 C-6.5 -1.22, -28.87 -5.54, -38.98 -7.35 C-49.1 -9.15, -58.49 -8.36, -60.7 -10.84 C-62.91 -13.32, -55.58 -18.4, -52.25 -22.21 C-48.93 -26.02, -46.62 -32.26, -40.73 -33.71 C-34.85 -35.16, -25.68 -32.18, -16.94 -30.89 C-8.2 -29.6, 3.06 -27.46, 11.71 -25.98 C20.37 -24.51, 30.22 -19.94, 34.99 -22.04 C39.77 -24.15, 37.77 -25.98, 40.35 -38.61 C42.92 -51.23, 46.09 -73.8, 50.43 -97.81 C54.76 -121.82, 60.58 -151.47, 66.35 -182.66 C72.13 -213.84, 78.95 -250.64, 85.07 -284.94 C91.2 -319.24, 98.84 -364.4, 103.09 -388.47 C107.35 -412.54, 109.09 -420.17, 110.61 -429.36 C112.12 -438.56, 114.42 -440.35, 112.18 -443.64 C109.94 -446.93, 106.76 -446.89, 97.19 -449.08 C87.62 -451.27, 72.19 -453.62, 54.75 -456.76 C37.31 -459.91, 13.1 -464.28, -7.44 -467.97 C-27.99 -471.65, -48.47 -475.43, -68.52 -478.87 C-88.58 -482.31, -111.93 -486.08, -127.76 -488.62 C-143.59 -491.16, -156.17 -495.52, -163.49 -494.1 C-170.8 -492.68, -168.92 -489.61, -171.64 -480.12 C-174.36 -470.62, -177.9 -447.4, -179.83 -437.14 C-181.76 -426.88, -177.67 -421.77, -183.22 -418.57 C-188.76 -415.37, -208.93 -414.98, -213.08 -417.94 C-217.23 -420.89, -209.94 -428.25, -208.11 -436.31 C-206.27 -444.38, -204.1 -456.79, -202.08 -466.33 C-200.06 -475.87, -197.73 -485.58, -195.98 -493.56 C-194.24 -501.54, -194.27 -509.25, -191.61 -514.22 C-188.96 -519.18, -186.72 -522.36, -180.04 -523.35 C-173.36 -524.33, -165.46 -522.53, -151.54 -520.13 C-137.62 -517.73, -115.61 -512.57, -96.52 -508.95 C-77.43 -505.32, -59.84 -502.4, -37 -498.38 C-14.15 -494.37, 15.55 -489.3, 40.55 -484.86 C65.55 -480.42, 97.57 -474.54, 112.99 -471.72 C128.41 -468.91, 128.37 -470.61, 133.06 -467.96 C137.75 -465.31, 140.71 -463.47, 141.15 -455.82 C141.6 -448.17, 138.75 -439.24, 135.74 -422.05 C132.74 -404.86, 128.21 -380.35, 123.13 -352.67 C118.05 -324.99, 110.44 -285.09, 105.26 -255.98 C100.08 -226.88, 97.31 -207.44, 92.05 -178.04 C86.79 -148.63, 78.65 -106.98, 73.7 -79.56 C68.76 -52.14, 65.57 -27.39, 62.41 -13.52 C59.24 0.34, 58.89 0.35, 54.73 3.61 C50.57 6.87, 46.57 6.63, 37.45 6.02 C28.33 5.42, 6.24 1, 0 0 M0 0 C-6.5 -1.22, -28.87 -5.54, -38.98 -7.35 C-49.1 -9.15, -58.49 -8.36, -60.7 -10.84 C-62.91 -13.32, -55.58 -18.4, -52.25 -22.21 C-48.93 -26.02, -46.62 -32.26, -40.73 -33.71 C-34.85 -35.16, -25.68 -32.18, -16.94 -30.89 C-8.2 -29.6, 3.06 -27.46, 11.71 -25.98 C20.37 -24.51, 30.22 -19.94, 34.99 -22.04 C39.77 -24.15, 37.77 -25.98, 40.35 -38.61 C42.92 -51.23, 46.09 -73.8, 50.43 -97.81 C54.76 -121.82, 60.58 -151.47, 66.35 -182.66 C72.13 -213.84, 78.95 -250.64, 85.07 -284.94 C91.2 -319.24, 98.84 -364.4, 103.09 -388.47 C107.35 -412.54, 109.09 -420.17, 110.61 -429.36 C112.12 -438.56, 114.42 -440.35, 112.18 -443.64 C109.94 -446.93, 106.76 -446.89, 97.19 -449.08 C87.62 -451.27, 72.19 -453.62, 54.75 -456.76 C37.31 -459.91, 13.1 -464.28, -7.44 -467.97 C-27.99 -471.65, -48.47 -475.43, -68.52 -478.87 C-88.58 -482.31, -111.93 -486.08, -127.76 -488.62 C-143.59 -491.16, -156.17 -495.52, -163.49 -494.1 C-170.8 -492.68, -168.92 -489.61, -171.64 -480.12 C-174.36 -470.62, -177.9 -447.4, -179.83 -437.14 C-181.76 -426.88, -177.67 -421.77, -183.22 -418.57 C-188.76 -415.37, -208.93 -414.98, -213.08 -417.94 C-217.23 -420.89, -209.94 -428.25, -208.11 -436.31 C-206.27 -444.38, -204.1 -456.79, -202.08 -466.33 C-200.06 -475.87, -197.73 -485.58, -195.98 -493.56 C-194.24 -501.54, -194.27 -509.25, -191.61 -514.22 C-188.96 -519.18, -186.72 -522.36, -180.04 -523.35 C-173.36 -524.33, -165.46 -522.53, -151.54 -520.13 C-137.62 -517.73, -115.61 -512.57, -96.52 -508.95 C-77.43 -505.32, -59.84 -502.4, -37 -498.38 C-14.15 -494.37, 15.55 -489.3, 40.55 -484.86 C65.55 -480.42, 97.57 -474.54, 112.99 -471.72 C128.41 -468.91, 128.37 -470.61, 133.06 -467.96 C137.75 -465.31, 140.71 -463.47, 141.15 -455.82 C141.6 -448.17, 138.75 -439.24, 135.74 -422.05 C132.74 -404.86, 128.21 -380.35, 123.13 -352.67 C118.05 -324.99, 110.44 -285.09, 105.26 -255.98 C100.08 -226.88, 97.31 -207.44, 92.05 -178.04 C86.79 -148.63, 78.65 -106.98, 73.7 -79.56 C68.76 -52.14, 65.57 -27.39, 62.41 -13.52 C59.24 0.34, 58.89 0.35, 54.73 3.61 C50.57 6.87, 46.57 6.63, 37.45 6.02 C28.33 5.42, 6.24 1, 0 0" stroke="#FFFFFF" stroke-width="4" fill="none"></path></g></g><mask></mask><g stroke-linecap="round"><g transform="translate(346.36007271895653 758.9567828427016) rotate(0 18.382523564962554 -232.38028237718993)" fill-rule="evenodd"><path d="M0 0 C-12.5 -0.15, -52.78 -0.61, -75.02 -0.88 C-97.25 -1.15, -121.36 -0.78, -133.42 -1.62 C-145.48 -2.46, -144.42 -2.78, -147.4 -5.92 C-150.38 -9.06, -150.77 -10.39, -151.32 -20.45 C-151.88 -30.51, -150.84 -39.65, -150.75 -66.29 C-150.65 -92.94, -150.75 -146.57, -150.75 -180.34 C-150.75 -214.12, -150.75 -236.43, -150.75 -268.95 C-150.75 -301.47, -150.75 -346.27, -150.75 -375.46 C-150.75 -404.66, -151.51 -429.78, -150.75 -444.12 C-149.99 -458.46, -149.81 -458, -146.19 -461.5 C-142.57 -465.01, -140.17 -464.51, -129.01 -465.14 C-117.86 -465.77, -98.96 -465.4, -79.25 -465.3 C-59.54 -465.19, -38.86 -464.64, -10.76 -464.5 C17.34 -464.37, 62.43 -464.5, 89.33 -464.5 C116.23 -464.5, 135.87 -464.5, 150.62 -464.5 C165.37 -464.5, 171.78 -466.29, 177.82 -464.5 C183.86 -462.72, 185.15 -461.65, 186.86 -453.77 C188.57 -445.89, 187.88 -438.07, 188.09 -417.22 C188.29 -396.37, 188.09 -365.78, 188.09 -328.66 C188.09 -291.54, 188.09 -229.93, 188.09 -194.5 C188.09 -159.07, 190.7 -132.25, 188.09 -116.07 C185.48 -99.89, 178.82 -104.61, 172.43 -97.41 C166.04 -90.21, 156.08 -79.25, 149.77 -72.86 C143.46 -66.46, 141.17 -60.06, 134.56 -59.04 C127.95 -58.02, 111.7 -62.35, 110.09 -66.72 C108.48 -71.09, 118.84 -78.42, 124.89 -85.26 C130.94 -92.1, 140.55 -100.32, 146.39 -107.76 C152.23 -115.2, 157.31 -117.41, 159.91 -129.91 C162.51 -142.4, 161.63 -155.41, 161.97 -182.75 C162.32 -210.08, 161.97 -254.68, 161.97 -293.89 C161.97 -333.1, 161.97 -394.26, 161.97 -418.02 C161.97 -441.77, 164.24 -432.87, 161.97 -436.44 C159.71 -440.01, 163.29 -438.94, 148.38 -439.44 C133.47 -439.94, 108.51 -439.44, 72.5 -439.44 C36.49 -439.44, -35.47 -439.44, -67.67 -439.44 C-99.87 -439.44, -111.23 -441.77, -120.69 -439.44 C-130.15 -437.12, -123.81 -449.06, -124.44 -425.49 C-125.06 -401.92, -124.44 -342.4, -124.44 -298.02 C-124.44 -253.64, -124.52 -201.38, -124.44 -159.22 C-124.36 -117.05, -126.7 -66.86, -123.97 -45.01 C-121.23 -23.16, -117.53 -30.88, -108.01 -28.14 C-98.48 -25.39, -81.58 -28.55, -66.82 -28.54 C-52.06 -28.52, -34.82 -28.18, -19.46 -28.05 C-4.11 -27.92, 12.55 -27.44, 25.32 -27.75 C38.1 -28.05, 46.88 -26.66, 57.18 -29.89 C67.49 -33.12, 79.33 -47.2, 87.15 -47.12 C94.97 -47.05, 103.18 -34.86, 104.11 -29.44 C105.04 -24.02, 96.72 -19.2, 92.72 -14.62 C88.72 -10.03, 86.59 -4.47, 80.1 -1.94 C73.62 0.59, 64.33 0.12, 53.81 0.54 C43.29 0.95, 25.94 0.63, 16.97 0.54 C8 0.45, 2.83 0.09, 0 0" stroke="none" stroke-width="0" fill="#FFFFFF" fill-rule="evenodd"></path><path d="M0 0 C-12.5 -0.15, -52.78 -0.61, -75.02 -0.88 C-97.25 -1.15, -121.36 -0.78, -133.42 -1.62 C-145.48 -2.46, -144.42 -2.78, -147.4 -5.92 C-150.38 -9.06, -150.77 -10.39, -151.32 -20.45 C-151.88 -30.51, -150.84 -39.65, -150.75 -66.29 C-150.65 -92.94, -150.75 -146.57, -150.75 -180.34 C-150.75 -214.12, -150.75 -236.43, -150.75 -268.95 C-150.75 -301.47, -150.75 -346.27, -150.75 -375.46 C-150.75 -404.66, -151.51 -429.78, -150.75 -444.12 C-149.99 -458.46, -149.81 -458, -146.19 -461.5 C-142.57 -465.01, -140.17 -464.51, -129.01 -465.14 C-117.86 -465.77, -98.96 -465.4, -79.25 -465.3 C-59.54 -465.19, -38.86 -464.64, -10.76 -464.5 C17.34 -464.37, 62.43 -464.5, 89.33 -464.5 C116.23 -464.5, 135.87 -464.5, 150.62 -464.5 C165.37 -464.5, 171.78 -466.29, 177.82 -464.5 C183.86 -462.72, 185.15 -461.65, 186.86 -453.77 C188.57 -445.89, 187.88 -438.07, 188.09 -417.22 C188.29 -396.37, 188.09 -365.78, 188.09 -328.66 C188.09 -291.54, 188.09 -229.93, 188.09 -194.5 C188.09 -159.07, 190.7 -132.25, 188.09 -116.07 C185.48 -99.89, 178.82 -104.61, 172.43 -97.41 C166.04 -90.21, 156.08 -79.25, 149.77 -72.86 C143.46 -66.46, 141.17 -60.06, 134.56 -59.04 C127.95 -58.02, 111.7 -62.35, 110.09 -66.72 C108.48 -71.09, 118.84 -78.42, 124.89 -85.26 C130.94 -92.1, 140.55 -100.32, 146.39 -107.76 C152.23 -115.2, 157.31 -117.41, 159.91 -129.91 C162.51 -142.4, 161.63 -155.41, 161.97 -182.75 C162.32 -210.08, 161.97 -254.68, 161.97 -293.89 C161.97 -333.1, 161.97 -394.26, 161.97 -418.02 C161.97 -441.77, 164.24 -432.87, 161.97 -436.44 C159.71 -440.01, 163.29 -438.94, 148.38 -439.44 C133.47 -439.94, 108.51 -439.44, 72.5 -439.44 C36.49 -439.44, -35.47 -439.44, -67.67 -439.44 C-99.87 -439.44, -111.23 -441.77, -120.69 -439.44 C-130.15 -437.12, -123.81 -449.06, -124.44 -425.49 C-125.06 -401.92, -124.44 -342.4, -124.44 -298.02 C-124.44 -253.64, -124.52 -201.38, -124.44 -159.22 C-124.36 -117.05, -126.7 -66.86, -123.97 -45.01 C-121.23 -23.16, -117.53 -30.88, -108.01 -28.14 C-98.48 -25.39, -81.58 -28.55, -66.82 -28.54 C-52.06 -28.52, -34.82 -28.18, -19.46 -28.05 C-4.11 -27.92, 12.55 -27.44, 25.32 -27.75 C38.1 -28.05, 46.88 -26.66, 57.18 -29.89 C67.49 -33.12, 79.33 -47.2, 87.15 -47.12 C94.97 -47.05, 103.18 -34.86, 104.11 -29.44 C105.04 -24.02, 96.72 -19.2, 92.72 -14.62 C88.72 -10.03, 86.59 -4.47, 80.1 -1.94 C73.62 0.59, 64.33 0.12, 53.81 0.54 C43.29 0.95, 25.94 0.63, 16.97 0.54 C8 0.45, 2.83 0.09, 0 0 M0 0 C-12.5 -0.15, -52.78 -0.61, -75.02 -0.88 C-97.25 -1.15, -121.36 -0.78, -133.42 -1.62 C-145.48 -2.46, -144.42 -2.78, -147.4 -5.92 C-150.38 -9.06, -150.77 -10.39, -151.32 -20.45 C-151.88 -30.51, -150.84 -39.65, -150.75 -66.29 C-150.65 -92.94, -150.75 -146.57, -150.75 -180.34 C-150.75 -214.12, -150.75 -236.43, -150.75 -268.95 C-150.75 -301.47, -150.75 -346.27, -150.75 -375.46 C-150.75 -404.66, -151.51 -429.78, -150.75 -444.12 C-149.99 -458.46, -149.81 -458, -146.19 -461.5 C-142.57 -465.01, -140.17 -464.51, -129.01 -465.14 C-117.86 -465.77, -98.96 -465.4, -79.25 -465.3 C-59.54 -465.19, -38.86 -464.64, -10.76 -464.5 C17.34 -464.37, 62.43 -464.5, 89.33 -464.5 C116.23 -464.5, 135.87 -464.5, 150.62 -464.5 C165.37 -464.5, 171.78 -466.29, 177.82 -464.5 C183.86 -462.72, 185.15 -461.65, 186.86 -453.77 C188.57 -445.89, 187.88 -438.07, 188.09 -417.22 C188.29 -396.37, 188.09 -365.78, 188.09 -328.66 C188.09 -291.54, 188.09 -229.93, 188.09 -194.5 C188.09 -159.07, 190.7 -132.25, 188.09 -116.07 C185.48 -99.89, 178.82 -104.61, 172.43 -97.41 C166.04 -90.21, 156.08 -79.25, 149.77 -72.86 C143.46 -66.46, 141.17 -60.06, 134.56 -59.04 C127.95 -58.02, 111.7 -62.35, 110.09 -66.72 C108.48 -71.09, 118.84 -78.42, 124.89 -85.26 C130.94 -92.1, 140.55 -100.32, 146.39 -107.76 C152.23 -115.2, 157.31 -117.41, 159.91 -129.91 C162.51 -142.4, 161.63 -155.41, 161.97 -182.75 C162.32 -210.08, 161.97 -254.68, 161.97 -293.89 C161.97 -333.1, 161.97 -394.26, 161.97 -418.02 C161.97 -441.77, 164.24 -432.87, 161.97 -436.44 C159.71 -440.01, 163.29 -438.94, 148.38 -439.44 C133.47 -439.94, 108.51 -439.44, 72.5 -439.44 C36.49 -439.44, -35.47 -439.44, -67.67 -439.44 C-99.87 -439.44, -111.23 -441.77, -120.69 -439.44 C-130.15 -437.12, -123.81 -449.06, -124.44 -425.49 C-125.06 -401.92, -124.44 -342.4, -124.44 -298.02 C-124.44 -253.64, -124.52 -201.38, -124.44 -159.22 C-124.36 -117.05, -126.7 -66.86, -123.97 -45.01 C-121.23 -23.16, -117.53 -30.88, -108.01 -28.14 C-98.48 -25.39, -81.58 -28.55, -66.82 -28.54 C-52.06 -28.52, -34.82 -28.18, -19.46 -28.05 C-4.11 -27.92, 12.55 -27.44, 25.32 -27.75 C38.1 -28.05, 46.88 -26.66, 57.18 -29.89 C67.49 -33.12, 79.33 -47.2, 87.15 -47.12 C94.97 -47.05, 103.18 -34.86, 104.11 -29.44 C105.04 -24.02, 96.72 -19.2, 92.72 -14.62 C88.72 -10.03, 86.59 -4.47, 80.1 -1.94 C73.62 0.59, 64.33 0.12, 53.81 0.54 C43.29 0.95, 25.94 0.63, 16.97 0.54 C8 0.45, 2.83 0.09, 0 0" stroke="#FFFFFF" stroke-width="4" fill="none"></path></g></g><mask></mask><g stroke-linecap="round"><g transform="translate(532.0704049566754 652.3245193419116) rotate(0 -57.865763677564885 48.05331053095002)" fill-rule="evenodd"><path d="M0 0 C-6.24 6.84, -23.06 26.17, -37.45 41.06 C-51.84 55.95, -75.24 78.9, -86.33 89.36 C-97.42 99.83, -99.11 103.21, -104.01 103.85 C-108.91 104.48, -115.7 99.8, -115.73 93.19 C-115.77 86.59, -109.43 72.13, -104.23 64.21 C-99.03 56.29, -92.06 53.17, -84.54 45.69 C-77.02 38.21, -68.58 28.25, -59.11 19.34 C-49.63 10.44, -37.54 -4.52, -27.69 -7.74 C-17.84 -10.96, -4.62 -1.29, 0 0" stroke="none" stroke-width="0" fill="#FFFFFF" fill-rule="evenodd"></path><path d="M0 0 C-6.24 6.84, -23.06 26.17, -37.45 41.06 C-51.84 55.95, -75.24 78.9, -86.33 89.36 C-97.42 99.83, -99.11 103.21, -104.01 103.85 C-108.91 104.48, -115.7 99.8, -115.73 93.19 C-115.77 86.59, -109.43 72.13, -104.23 64.21 C-99.03 56.29, -92.06 53.17, -84.54 45.69 C-77.02 38.21, -68.58 28.25, -59.11 19.34 C-49.63 10.44, -37.54 -4.52, -27.69 -7.74 C-17.84 -10.96, -4.62 -1.29, 0 0 M0 0 C-6.24 6.84, -23.06 26.17, -37.45 41.06 C-51.84 55.95, -75.24 78.9, -86.33 89.36 C-97.42 99.83, -99.11 103.21, -104.01 103.85 C-108.91 104.48, -115.7 99.8, -115.73 93.19 C-115.77 86.59, -109.43 72.13, -104.23 64.21 C-99.03 56.29, -92.06 53.17, -84.54 45.69 C-77.02 38.21, -68.58 28.25, -59.11 19.34 C-49.63 10.44, -37.54 -4.52, -27.69 -7.74 C-17.84 -10.96, -4.62 -1.29, 0 0" stroke="#FFFFFF" stroke-width="4" fill="none"></path></g></g><mask></mask><g stroke-linecap="round"><g transform="translate(431.9752578613785 721.9775961981322) rotate(0 33.03661309357382 -36.65526973195979)" fill-rule="evenodd"><path d="M0 0 C0 -7.37, 0 -33.19, 0 -44.2 C0 -55.21, -3.08 -62, 0 -66.03 C3.08 -70.06, 7.87 -67.99, 18.47 -68.38 C29.07 -68.77, 51.82 -68.57, 63.58 -68.38 C75.35 -68.18, 84.34 -62.78, 89.05 -67.22 C93.76 -71.65, 95.18 -90.79, 91.85 -94.98 C88.52 -99.18, 78.71 -92.83, 69.09 -92.4 C59.47 -91.97, 45.89 -92.4, 34.13 -92.4 C22.38 -92.4, 7.01 -92.4, -1.44 -92.4 C-9.89 -92.4, -12.53 -94.44, -16.58 -92.4 C-20.64 -90.36, -24.24 -90.91, -25.78 -80.16 C-27.31 -69.41, -26.21 -44.87, -25.78 -27.9 C-25.34 -10.93, -27.09 18.08, -23.18 21.67 C-19.28 25.27, -5.81 -1.67, -2.33 -6.33" stroke="none" stroke-width="0" fill="#FFFFFF" fill-rule="evenodd"></path><path d="M0 0 C0 -7.37, 0 -33.19, 0 -44.2 C0 -55.21, -3.08 -62, 0 -66.03 C3.08 -70.06, 7.87 -67.99, 18.47 -68.38 C29.07 -68.77, 51.82 -68.57, 63.58 -68.38 C75.35 -68.18, 84.34 -62.78, 89.05 -67.22 C93.76 -71.65, 95.18 -90.79, 91.85 -94.98 C88.52 -99.18, 78.71 -92.83, 69.09 -92.4 C59.47 -91.97, 45.89 -92.4, 34.13 -92.4 C22.38 -92.4, 7.01 -92.4, -1.44 -92.4 C-9.89 -92.4, -12.53 -94.44, -16.58 -92.4 C-20.64 -90.36, -24.24 -90.91, -25.78 -80.16 C-27.31 -69.41, -26.21 -44.87, -25.78 -27.9 C-25.34 -10.93, -27.09 18.08, -23.18 21.67 C-19.28 25.27, -5.81 -1.67, -2.33 -6.33 M0 0 C0 -7.37, 0 -33.19, 0 -44.2 C0 -55.21, -3.08 -62, 0 -66.03 C3.08 -70.06, 7.87 -67.99, 18.47 -68.38 C29.07 -68.77, 51.82 -68.57, 63.58 -68.38 C75.35 -68.18, 84.34 -62.78, 89.05 -67.22 C93.76 -71.65, 95.18 -90.79, 91.85 -94.98 C88.52 -99.18, 78.71 -92.83, 69.09 -92.4 C59.47 -91.97, 45.89 -92.4, 34.13 -92.4 C22.38 -92.4, 7.01 -92.4, -1.44 -92.4 C-9.89 -92.4, -12.53 -94.44, -16.58 -92.4 C-20.64 -90.36, -24.24 -90.91, -25.78 -80.16 C-27.31 -69.41, -26.21 -44.87, -25.78 -27.9 C-25.34 -10.93, -27.09 18.08, -23.18 21.67 C-19.28 25.27, -5.81 -1.67, -2.33 -6.33" stroke="#FFFFFF" stroke-width="4" fill="none"></path></g></g><mask></mask><g stroke-linecap="round"><g transform="translate(450.45445510991124 489.7535612835477) rotate(0 -84.61414039958085 -16.096997295773207)" fill-rule="evenodd"><path d="M0 0 C-2.26 5.86, -7.75 25.86, -13.56 35.13 C-19.37 44.4, -26.02 49.86, -34.87 55.62 C-43.73 61.38, -56.05 67.12, -66.69 69.71 C-77.33 72.29, -88.4 72.69, -98.7 71.14 C-109 69.59, -119.34 66.03, -128.48 60.42 C-137.62 54.8, -146.57 46.92, -153.55 37.47 C-160.53 28.03, -167.66 15.94, -170.37 3.72 C-173.07 -8.5, -172.62 -23.17, -169.79 -35.83 C-166.95 -48.49, -160.71 -62.5, -153.36 -72.26 C-146.01 -82.02, -135.94 -89.26, -125.68 -94.39 C-115.42 -99.51, -102.27 -101.98, -91.79 -102.99 C-81.3 -104.01, -70.18 -100.99, -62.76 -100.49 C-55.33 -100, -51.09 -98.11, -47.23 -100.03 C-43.38 -101.94, -39.54 -107.99, -39.62 -111.99 C-39.69 -115.98, -41.81 -121.29, -47.67 -124 C-53.53 -126.71, -65.51 -127.61, -74.79 -128.25 C-84.07 -128.9, -93.54 -129.62, -103.35 -127.86 C-113.16 -126.1, -122.59 -123.69, -133.64 -117.71 C-144.68 -111.72, -160.4 -101.78, -169.62 -91.95 C-178.84 -82.12, -184.24 -70.19, -188.97 -58.72 C-193.7 -47.26, -197.27 -35.83, -198.01 -23.18 C-198.74 -10.52, -197.39 4.62, -193.4 17.23 C-189.4 29.83, -181.43 42.53, -174.06 52.44 C-166.69 62.34, -159.58 69.75, -149.18 76.66 C-138.77 83.57, -122.83 90.68, -111.63 93.91 C-100.42 97.15, -93.54 96.81, -81.94 96.06 C-70.33 95.31, -54.27 94.16, -42 89.4 C-29.72 84.64, -17.66 76.03, -8.28 67.51 C1.1 58.98, 8.69 48.14, 14.28 38.25 C19.87 28.35, 22.83 19.39, 25.24 8.14 C27.66 -3.11, 29.67 -18.2, 28.78 -29.25 C27.89 -40.29, 23.49 -49.23, 19.9 -58.13 C16.3 -67.03, 11.52 -77.49, 7.21 -82.64 C2.9 -87.78, -1.76 -89.31, -5.97 -89.02 C-10.19 -88.73, -16.74 -85.01, -18.06 -80.89 C-19.38 -76.77, -16.51 -70.2, -13.91 -64.32 C-11.3 -58.44, -5.06 -52.33, -2.43 -45.6 C0.2 -38.87, 1.47 -31.53, 1.87 -23.93 C2.28 -16.33, 0.31 -3.99, 0 0" stroke="none" stroke-width="0" fill="#FFFFFF" fill-rule="evenodd"></path><path d="M0 0 C-2.26 5.86, -7.75 25.86, -13.56 35.13 C-19.37 44.4, -26.02 49.86, -34.87 55.62 C-43.73 61.38, -56.05 67.12, -66.69 69.71 C-77.33 72.29, -88.4 72.69, -98.7 71.14 C-109 69.59, -119.34 66.03, -128.48 60.42 C-137.62 54.8, -146.57 46.92, -153.55 37.47 C-160.53 28.03, -167.66 15.94, -170.37 3.72 C-173.07 -8.5, -172.62 -23.17, -169.79 -35.83 C-166.95 -48.49, -160.71 -62.5, -153.36 -72.26 C-146.01 -82.02, -135.94 -89.26, -125.68 -94.39 C-115.42 -99.51, -102.27 -101.98, -91.79 -102.99 C-81.3 -104.01, -70.18 -100.99, -62.76 -100.49 C-55.33 -100, -51.09 -98.11, -47.23 -100.03 C-43.38 -101.94, -39.54 -107.99, -39.62 -111.99 C-39.69 -115.98, -41.81 -121.29, -47.67 -124 C-53.53 -126.71, -65.51 -127.61, -74.79 -128.25 C-84.07 -128.9, -93.54 -129.62, -103.35 -127.86 C-113.16 -126.1, -122.59 -123.69, -133.64 -117.71 C-144.68 -111.72, -160.4 -101.78, -169.62 -91.95 C-178.84 -82.12, -184.24 -70.19, -188.97 -58.72 C-193.7 -47.26, -197.27 -35.83, -198.01 -23.18 C-198.74 -10.52, -197.39 4.62, -193.4 17.23 C-189.4 29.83, -181.43 42.53, -174.06 52.44 C-166.69 62.34, -159.58 69.75, -149.18 76.66 C-138.77 83.57, -122.83 90.68, -111.63 93.91 C-100.42 97.15, -93.54 96.81, -81.94 96.06 C-70.33 95.31, -54.27 94.16, -42 89.4 C-29.72 84.64, -17.66 76.03, -8.28 67.51 C1.1 58.98, 8.69 48.14, 14.28 38.25 C19.87 28.35, 22.83 19.39, 25.24 8.14 C27.66 -3.11, 29.67 -18.2, 28.78 -29.25 C27.89 -40.29, 23.49 -49.23, 19.9 -58.13 C16.3 -67.03, 11.52 -77.49, 7.21 -82.64 C2.9 -87.78, -1.76 -89.31, -5.97 -89.02 C-10.19 -88.73, -16.74 -85.01, -18.06 -80.89 C-19.38 -76.77, -16.51 -70.2, -13.91 -64.32 C-11.3 -58.44, -5.06 -52.33, -2.43 -45.6 C0.2 -38.87, 1.47 -31.53, 1.87 -23.93 C2.28 -16.33, 0.31 -3.99, 0 0 M0 0 C-2.26 5.86, -7.75 25.86, -13.56 35.13 C-19.37 44.4, -26.02 49.86, -34.87 55.62 C-43.73 61.38, -56.05 67.12, -66.69 69.71 C-77.33 72.29, -88.4 72.69, -98.7 71.14 C-109 69.59, -119.34 66.03, -128.48 60.42 C-137.62 54.8, -146.57 46.92, -153.55 37.47 C-160.53 28.03, -167.66 15.94, -170.37 3.72 C-173.07 -8.5, -172.62 -23.17, -169.79 -35.83 C-166.95 -48.49, -160.71 -62.5, -153.36 -72.26 C-146.01 -82.02, -135.94 -89.26, -125.68 -94.39 C-115.42 -99.51, -102.27 -101.98, -91.79 -102.99 C-81.3 -104.01, -70.18 -100.99, -62.76 -100.49 C-55.33 -100, -51.09 -98.11, -47.23 -100.03 C-43.38 -101.94, -39.54 -107.99, -39.62 -111.99 C-39.69 -115.98, -41.81 -121.29, -47.67 -124 C-53.53 -126.71, -65.51 -127.61, -74.79 -128.25 C-84.07 -128.9, -93.54 -129.62, -103.35 -127.86 C-113.16 -126.1, -122.59 -123.69, -133.64 -117.71 C-144.68 -111.72, -160.4 -101.78, -169.62 -91.95 C-178.84 -82.12, -184.24 -70.19, -188.97 -58.72 C-193.7 -47.26, -197.27 -35.83, -198.01 -23.18 C-198.74 -10.52, -197.39 4.62, -193.4 17.23 C-189.4 29.83, -181.43 42.53, -174.06 52.44 C-166.69 62.34, -159.58 69.75, -149.18 76.66 C-138.77 83.57, -122.83 90.68, -111.63 93.91 C-100.42 97.15, -93.54 96.81, -81.94 96.06 C-70.33 95.31, -54.27 94.16, -42 89.4 C-29.72 84.64, -17.66 76.03, -8.28 67.51 C1.1 58.98, 8.69 48.14, 14.28 38.25 C19.87 28.35, 22.83 19.39, 25.24 8.14 C27.66 -3.11, 29.67 -18.2, 28.78 -29.25 C27.89 -40.29, 23.49 -49.23, 19.9 -58.13 C16.3 -67.03, 11.52 -77.49, 7.21 -82.64 C2.9 -87.78, -1.76 -89.31, -5.97 -89.02 C-10.19 -88.73, -16.74 -85.01, -18.06 -80.89 C-19.38 -76.77, -16.51 -70.2, -13.91 -64.32 C-11.3 -58.44, -5.06 -52.33, -2.43 -45.6 C0.2 -38.87, 1.47 -31.53, 1.87 -23.93 C2.28 -16.33, 0.31 -3.99, 0 0" stroke="#FFFFFF" stroke-width="4" fill="none"></path></g></g><mask></mask><g stroke-linecap="round"><g transform="translate(351.3840363854739 452.21243897504655) rotate(0 13.734899047613176 22.348370965082744)" fill-rule="evenodd"><path d="M0 0 C0 -3.86, -1.23 -17.17, 0 -23.16 C1.23 -29.14, 3.67 -33.8, 7.38 -35.93 C11.08 -38.06, 18.96 -38.22, 22.24 -35.93 C25.51 -33.65, 26.24 -30.66, 27.05 -22.22 C27.85 -13.78, 27.05 5.25, 27.05 14.69 C27.05 24.12, 24.98 32.24, 27.05 34.39 C29.11 36.54, 35.28 27.49, 39.43 27.58 C43.57 27.67, 50.04 31.4, 51.94 34.93 C53.83 38.47, 55.11 42.16, 50.8 48.8 C46.49 55.45, 32.4 69.51, 26.08 74.81 C19.75 80.11, 18.18 82.04, 12.85 80.63 C7.52 79.22, -0.52 70.99, -5.93 66.35 C-11.33 61.72, -16.49 57.31, -19.58 52.82 C-22.67 48.34, -25.08 43.27, -24.47 39.44 C-23.85 35.6, -20.02 31.39, -15.87 29.82 C-11.72 28.25, -2.2 35, 0.44 30.03 C3.09 25.06, 0.07 5, 0 0" stroke="none" stroke-width="0" fill="#FFFFFF" fill-rule="evenodd"></path><path d="M0 0 C0 -3.86, -1.23 -17.17, 0 -23.16 C1.23 -29.14, 3.67 -33.8, 7.38 -35.93 C11.08 -38.06, 18.96 -38.22, 22.24 -35.93 C25.51 -33.65, 26.24 -30.66, 27.05 -22.22 C27.85 -13.78, 27.05 5.25, 27.05 14.69 C27.05 24.12, 24.98 32.24, 27.05 34.39 C29.11 36.54, 35.28 27.49, 39.43 27.58 C43.57 27.67, 50.04 31.4, 51.94 34.93 C53.83 38.47, 55.11 42.16, 50.8 48.8 C46.49 55.45, 32.4 69.51, 26.08 74.81 C19.75 80.11, 18.18 82.04, 12.85 80.63 C7.52 79.22, -0.52 70.99, -5.93 66.35 C-11.33 61.72, -16.49 57.31, -19.58 52.82 C-22.67 48.34, -25.08 43.27, -24.47 39.44 C-23.85 35.6, -20.02 31.39, -15.87 29.82 C-11.72 28.25, -2.2 35, 0.44 30.03 C3.09 25.06, 0.07 5, 0 0 M0 0 C0 -3.86, -1.23 -17.17, 0 -23.16 C1.23 -29.14, 3.67 -33.8, 7.38 -35.93 C11.08 -38.06, 18.96 -38.22, 22.24 -35.93 C25.51 -33.65, 26.24 -30.66, 27.05 -22.22 C27.85 -13.78, 27.05 5.25, 27.05 14.69 C27.05 24.12, 24.98 32.24, 27.05 34.39 C29.11 36.54, 35.28 27.49, 39.43 27.58 C43.57 27.67, 50.04 31.4, 51.94 34.93 C53.83 38.47, 55.11 42.16, 50.8 48.8 C46.49 55.45, 32.4 69.51, 26.08 74.81 C19.75 80.11, 18.18 82.04, 12.85 80.63 C7.52 79.22, -0.52 70.99, -5.93 66.35 C-11.33 61.72, -16.49 57.31, -19.58 52.82 C-22.67 48.34, -25.08 43.27, -24.47 39.44 C-23.85 35.6, -20.02 31.39, -15.87 29.82 C-11.72 28.25, -2.2 35, 0.44 30.03 C3.09 25.06, 0.07 5, 0 0" stroke="#FFFFFF" stroke-width="4" fill="none"></path></g></g><mask></mask></svg>