<svg version="1.1" xmlns="http://www.w3.org/2000/svg" viewBox="0 0 337.8386212090639 337.187199730578" width="337.8386212090639" height="337.187199730578" class="excalidraw-svg"><!-- svg-source:excalidraw --><metadata></metadata><defs><style class="style-fonts">
      </style></defs><rect x="0" y="0" width="337.8386212090639" height="337.187199730578" fill="#000000"></rect><g stroke-linecap="round"><g transform="translate(114.76360381219399 227.6972081533814) rotate(0 54.32194498088552 35.39920123257764)" fill-rule="evenodd"><path d="M0 0 C-6.92 -0.07, -31.27 -0.54, -41.52 -0.44 C-51.77 -0.35, -56.36 -0.02, -61.51 0.57 C-66.67 1.15, -69.82 1.49, -72.45 3.05 C-75.09 4.62, -76.64 6.45, -77.34 9.96 C-78.03 13.47, -76.62 16.03, -76.62 24.1 C-76.62 32.18, -77.78 51.03, -77.35 58.41 C-76.92 65.79, -76.07 65.97, -74.05 68.37 C-72.03 70.77, -71.15 71.99, -65.23 72.81 C-59.31 73.63, -54.34 73.22, -38.52 73.3 C-22.7 73.38, 2.84 73.3, 29.69 73.3 C56.55 73.3, 99.41 73.3, 122.62 73.3 C145.82 73.3, 159 73.67, 168.92 73.3 C178.84 72.93, 179.27 72.85, 182.14 71.08 C185 69.31, 185.45 68.22, 186.11 62.68 C186.77 57.15, 186.11 46.57, 186.11 37.88 C186.11 29.2, 186.8 16.28, 186.11 10.57 C185.42 4.86, 183.79 5.5, 181.98 3.62 C180.17 1.73, 179.67 -0.01, 175.25 -0.73 C170.82 -1.46, 164.54 -0.73, 155.43 -0.73 C146.33 -0.73, 128.42 -0.73, 120.62 -0.73 C112.82 -0.73, 109.2 0.82, 108.66 -0.73 C108.12 -2.28, 114.31 -6.98, 117.36 -10.03 C120.41 -13.08, 124.14 -16.21, 126.97 -19.03 C129.79 -21.84, 130.07 -25.37, 134.31 -26.91 C138.56 -28.44, 145.49 -28.16, 152.46 -28.23 C159.43 -28.29, 169.54 -28.1, 176.12 -27.28 C182.7 -26.47, 187.41 -25.57, 191.93 -23.32 C196.45 -21.08, 200.09 -17.56, 203.24 -13.81 C206.39 -10.06, 209.26 -5.12, 210.84 -0.8 C212.42 3.52, 212.35 5.67, 212.72 12.09 C213.08 18.51, 213.14 28.79, 213.01 37.7 C212.89 46.61, 213.12 58.23, 211.95 65.55 C210.77 72.87, 208.85 77.02, 205.97 81.62 C203.1 86.22, 198.77 90.38, 194.7 93.16 C190.62 95.94, 189.29 97.31, 181.51 98.29 C173.73 99.27, 168.01 98.9, 148.01 99.03 C128 99.15, 88.48 99.03, 61.47 99.03 C34.47 99.03, 7.66 99.03, -14.01 99.03 C-35.67 99.03, -56.51 100.07, -68.51 99.03 C-80.5 97.98, -81.33 95.56, -85.99 92.75 C-90.65 89.95, -93.65 86.54, -96.47 82.2 C-99.28 77.86, -101.57 71.59, -102.89 66.7 C-104.21 61.8, -104.12 60.98, -104.37 52.83 C-104.62 44.69, -105.12 27.64, -104.37 17.82 C-103.62 7.99, -102.66 0.15, -99.89 -6.1 C-97.12 -12.34, -92.27 -16.31, -87.74 -19.64 C-83.22 -22.98, -77.99 -24.83, -72.73 -26.11 C-67.47 -27.39, -62.08 -27.16, -56.17 -27.32 C-50.25 -27.48, -42.36 -27.12, -37.23 -27.06 C-32.09 -27, -28.35 -27.93, -25.36 -26.98 C-22.37 -26.02, -23.49 -25.82, -19.27 -21.33 C-15.04 -16.83, -3.21 -3.55, 0 0" stroke="none" stroke-width="0" fill="#e1e1e1" fill-rule="evenodd"></path><path d="M0 0 C-6.92 -0.07, -31.27 -0.54, -41.52 -0.44 C-51.77 -0.35, -56.36 -0.02, -61.51 0.57 C-66.67 1.15, -69.82 1.49, -72.45 3.05 C-75.09 4.62, -76.64 6.45, -77.34 9.96 C-78.03 13.47, -76.62 16.03, -76.62 24.1 C-76.62 32.18, -77.78 51.03, -77.35 58.41 C-76.92 65.79, -76.07 65.97, -74.05 68.37 C-72.03 70.77, -71.15 71.99, -65.23 72.81 C-59.31 73.63, -54.34 73.22, -38.52 73.3 C-22.7 73.38, 2.84 73.3, 29.69 73.3 C56.55 73.3, 99.41 73.3, 122.62 73.3 C145.82 73.3, 159 73.67, 168.92 73.3 C178.84 72.93, 179.27 72.85, 182.14 71.08 C185 69.31, 185.45 68.22, 186.11 62.68 C186.77 57.15, 186.11 46.57, 186.11 37.88 C186.11 29.2, 186.8 16.28, 186.11 10.57 C185.42 4.86, 183.79 5.5, 181.98 3.62 C180.17 1.73, 179.67 -0.01, 175.25 -0.73 C170.82 -1.46, 164.54 -0.73, 155.43 -0.73 C146.33 -0.73, 128.42 -0.73, 120.62 -0.73 C112.82 -0.73, 109.2 0.82, 108.66 -0.73 C108.12 -2.28, 114.31 -6.98, 117.36 -10.03 C120.41 -13.08, 124.14 -16.21, 126.97 -19.03 C129.79 -21.84, 130.07 -25.37, 134.31 -26.91 C138.56 -28.44, 145.49 -28.16, 152.46 -28.23 C159.43 -28.29, 169.54 -28.1, 176.12 -27.28 C182.7 -26.47, 187.41 -25.57, 191.93 -23.32 C196.45 -21.08, 200.09 -17.56, 203.24 -13.81 C206.39 -10.06, 209.26 -5.12, 210.84 -0.8 C212.42 3.52, 212.35 5.67, 212.72 12.09 C213.08 18.51, 213.14 28.79, 213.01 37.7 C212.89 46.61, 213.12 58.23, 211.95 65.55 C210.77 72.87, 208.85 77.02, 205.97 81.62 C203.1 86.22, 198.77 90.38, 194.7 93.16 C190.62 95.94, 189.29 97.31, 181.51 98.29 C173.73 99.27, 168.01 98.9, 148.01 99.03 C128 99.15, 88.48 99.03, 61.47 99.03 C34.47 99.03, 7.66 99.03, -14.01 99.03 C-35.67 99.03, -56.51 100.07, -68.51 99.03 C-80.5 97.98, -81.33 95.56, -85.99 92.75 C-90.65 89.95, -93.65 86.54, -96.47 82.2 C-99.28 77.86, -101.57 71.59, -102.89 66.7 C-104.21 61.8, -104.12 60.98, -104.37 52.83 C-104.62 44.69, -105.12 27.64, -104.37 17.82 C-103.62 7.99, -102.66 0.15, -99.89 -6.1 C-97.12 -12.34, -92.27 -16.31, -87.74 -19.64 C-83.22 -22.98, -77.99 -24.83, -72.73 -26.11 C-67.47 -27.39, -62.08 -27.16, -56.17 -27.32 C-50.25 -27.48, -42.36 -27.12, -37.23 -27.06 C-32.09 -27, -28.35 -27.93, -25.36 -26.98 C-22.37 -26.02, -23.49 -25.82, -19.27 -21.33 C-15.04 -16.83, -3.21 -3.55, 0 0 M0 0 C-6.92 -0.07, -31.27 -0.54, -41.52 -0.44 C-51.77 -0.35, -56.36 -0.02, -61.51 0.57 C-66.67 1.15, -69.82 1.49, -72.45 3.05 C-75.09 4.62, -76.64 6.45, -77.34 9.96 C-78.03 13.47, -76.62 16.03, -76.62 24.1 C-76.62 32.18, -77.78 51.03, -77.35 58.41 C-76.92 65.79, -76.07 65.97, -74.05 68.37 C-72.03 70.77, -71.15 71.99, -65.23 72.81 C-59.31 73.63, -54.34 73.22, -38.52 73.3 C-22.7 73.38, 2.84 73.3, 29.69 73.3 C56.55 73.3, 99.41 73.3, 122.62 73.3 C145.82 73.3, 159 73.67, 168.92 73.3 C178.84 72.93, 179.27 72.85, 182.14 71.08 C185 69.31, 185.45 68.22, 186.11 62.68 C186.77 57.15, 186.11 46.57, 186.11 37.88 C186.11 29.2, 186.8 16.28, 186.11 10.57 C185.42 4.86, 183.79 5.5, 181.98 3.62 C180.17 1.73, 179.67 -0.01, 175.25 -0.73 C170.82 -1.46, 164.54 -0.73, 155.43 -0.73 C146.33 -0.73, 128.42 -0.73, 120.62 -0.73 C112.82 -0.73, 109.2 0.82, 108.66 -0.73 C108.12 -2.28, 114.31 -6.98, 117.36 -10.03 C120.41 -13.08, 124.14 -16.21, 126.97 -19.03 C129.79 -21.84, 130.07 -25.37, 134.31 -26.91 C138.56 -28.44, 145.49 -28.16, 152.46 -28.23 C159.43 -28.29, 169.54 -28.1, 176.12 -27.28 C182.7 -26.47, 187.41 -25.57, 191.93 -23.32 C196.45 -21.08, 200.09 -17.56, 203.24 -13.81 C206.39 -10.06, 209.26 -5.12, 210.84 -0.8 C212.42 3.52, 212.35 5.67, 212.72 12.09 C213.08 18.51, 213.14 28.79, 213.01 37.7 C212.89 46.61, 213.12 58.23, 211.95 65.55 C210.77 72.87, 208.85 77.02, 205.97 81.62 C203.1 86.22, 198.77 90.38, 194.7 93.16 C190.62 95.94, 189.29 97.31, 181.51 98.29 C173.73 99.27, 168.01 98.9, 148.01 99.03 C128 99.15, 88.48 99.03, 61.47 99.03 C34.47 99.03, 7.66 99.03, -14.01 99.03 C-35.67 99.03, -56.51 100.07, -68.51 99.03 C-80.5 97.98, -81.33 95.56, -85.99 92.75 C-90.65 89.95, -93.65 86.54, -96.47 82.2 C-99.28 77.86, -101.57 71.59, -102.89 66.7 C-104.21 61.8, -104.12 60.98, -104.37 52.83 C-104.62 44.69, -105.12 27.64, -104.37 17.82 C-103.62 7.99, -102.66 0.15, -99.89 -6.1 C-97.12 -12.34, -92.27 -16.31, -87.74 -19.64 C-83.22 -22.98, -77.99 -24.83, -72.73 -26.11 C-67.47 -27.39, -62.08 -27.16, -56.17 -27.32 C-50.25 -27.48, -42.36 -27.12, -37.23 -27.06 C-32.09 -27, -28.35 -27.93, -25.36 -26.98 C-22.37 -26.02, -23.49 -25.82, -19.27 -21.33 C-15.04 -16.83, -3.21 -3.55, 0 0" stroke="#e1e1e1" stroke-width="4" fill="none"></path></g></g><mask></mask><g stroke-linecap="round"><g transform="translate(155.20749707981247 137.59622976531986) rotate(0 13.624607600076615 -11.40617316348046)" fill-rule="evenodd"><path d="M0 0 C0 -14.74, 0.04 -70.42, 0 -88.42 C-0.04 -106.42, -0.57 -102.8, -0.27 -108 C0.04 -113.2, 0.3 -116.56, 1.82 -119.64 C3.33 -122.71, 6.15 -125.22, 8.83 -126.46 C11.51 -127.7, 15.09 -127.95, 17.89 -127.08 C20.69 -126.2, 24 -123.79, 25.63 -121.21 C27.27 -118.62, 27.3 -119.41, 27.7 -111.56 C28.1 -103.71, 27.96 -91.96, 28.02 -74.09 C28.07 -56.22, 28.02 -22.21, 28.02 -4.35 C28.02 13.51, 28.02 24.43, 28.02 33.08 C28.02 41.73, 28.02 43.8, 28.02 47.56 C28.02 51.31, 26.29 55.79, 28.02 55.61 C29.74 55.43, 32.86 51.67, 38.38 46.47 C43.89 41.26, 54.85 30.5, 61.11 24.39 C67.37 18.28, 71.3 14.42, 75.93 9.79 C80.55 5.17, 85.31 -0.54, 88.86 -3.36 C92.41 -6.19, 94.33 -6.79, 97.21 -7.14 C100.09 -7.5, 103.72 -7.04, 106.15 -5.48 C108.59 -3.92, 110.9 -0.83, 111.81 2.2 C112.72 5.22, 113.18 9.19, 111.6 12.67 C110.02 16.15, 109.74 15.48, 102.35 23.06 C94.96 30.64, 76.53 48.87, 67.26 58.14 C58 67.41, 52.51 72.9, 46.74 78.66 C40.98 84.43, 36.37 89.03, 32.68 92.73 C28.98 96.43, 27.31 98.93, 24.55 100.85 C21.79 102.77, 18.94 103.95, 16.11 104.27 C13.28 104.58, 11.34 105, 7.57 102.76 C3.81 100.52, -2.34 94.62, -6.5 90.82 C-10.65 87.02, -12.61 84.71, -17.36 79.97 C-22.1 75.22, -29.01 68.32, -34.98 62.34 C-40.96 56.37, -47.45 49.87, -53.21 44.12 C-58.96 38.36, -64.85 32.56, -69.52 27.8 C-74.19 23.05, -78.71 19.26, -81.22 15.6 C-83.72 11.93, -84.61 8.88, -84.56 5.79 C-84.51 2.7, -82.8 -0.72, -80.9 -2.96 C-79.01 -5.19, -75.91 -7.18, -73.19 -7.64 C-70.47 -8.11, -67.12 -7.01, -64.56 -5.75 C-61.99 -4.48, -60.92 -3.11, -57.79 -0.05 C-54.65 3, -49.55 8.68, -45.74 12.59 C-41.93 16.5, -39.34 18.99, -34.92 23.41 C-30.51 27.82, -23.76 34.57, -19.23 39.1 C-14.71 43.62, -10.74 47.59, -7.78 50.55 C-4.82 53.51, -2.72 57.29, -1.47 56.86 C-0.22 56.43, -0.46 52.51, -0.26 47.97 C-0.06 43.43, -0.3 37.62, -0.26 29.62 C-0.21 21.63, -0.04 4.94, 0 0" stroke="none" stroke-width="0" fill="#b3a2fa" fill-rule="evenodd"></path><path d="M0 0 C0 -14.74, 0.04 -70.42, 0 -88.42 C-0.04 -106.42, -0.57 -102.8, -0.27 -108 C0.04 -113.2, 0.3 -116.56, 1.82 -119.64 C3.33 -122.71, 6.15 -125.22, 8.83 -126.46 C11.51 -127.7, 15.09 -127.95, 17.89 -127.08 C20.69 -126.2, 24 -123.79, 25.63 -121.21 C27.27 -118.62, 27.3 -119.41, 27.7 -111.56 C28.1 -103.71, 27.96 -91.96, 28.02 -74.09 C28.07 -56.22, 28.02 -22.21, 28.02 -4.35 C28.02 13.51, 28.02 24.43, 28.02 33.08 C28.02 41.73, 28.02 43.8, 28.02 47.56 C28.02 51.31, 26.29 55.79, 28.02 55.61 C29.74 55.43, 32.86 51.67, 38.38 46.47 C43.89 41.26, 54.85 30.5, 61.11 24.39 C67.37 18.28, 71.3 14.42, 75.93 9.79 C80.55 5.17, 85.31 -0.54, 88.86 -3.36 C92.41 -6.19, 94.33 -6.79, 97.21 -7.14 C100.09 -7.5, 103.72 -7.04, 106.15 -5.48 C108.59 -3.92, 110.9 -0.83, 111.81 2.2 C112.72 5.22, 113.18 9.19, 111.6 12.67 C110.02 16.15, 109.74 15.48, 102.35 23.06 C94.96 30.64, 76.53 48.87, 67.26 58.14 C58 67.41, 52.51 72.9, 46.74 78.66 C40.98 84.43, 36.37 89.03, 32.68 92.73 C28.98 96.43, 27.31 98.93, 24.55 100.85 C21.79 102.77, 18.94 103.95, 16.11 104.27 C13.28 104.58, 11.34 105, 7.57 102.76 C3.81 100.52, -2.34 94.62, -6.5 90.82 C-10.65 87.02, -12.61 84.71, -17.36 79.97 C-22.1 75.22, -29.01 68.32, -34.98 62.34 C-40.96 56.37, -47.45 49.87, -53.21 44.12 C-58.96 38.36, -64.85 32.56, -69.52 27.8 C-74.19 23.05, -78.71 19.26, -81.22 15.6 C-83.72 11.93, -84.61 8.88, -84.56 5.79 C-84.51 2.7, -82.8 -0.72, -80.9 -2.96 C-79.01 -5.19, -75.91 -7.18, -73.19 -7.64 C-70.47 -8.11, -67.12 -7.01, -64.56 -5.75 C-61.99 -4.48, -60.92 -3.11, -57.79 -0.05 C-54.65 3, -49.55 8.68, -45.74 12.59 C-41.93 16.5, -39.34 18.99, -34.92 23.41 C-30.51 27.82, -23.76 34.57, -19.23 39.1 C-14.71 43.62, -10.74 47.59, -7.78 50.55 C-4.82 53.51, -2.72 57.29, -1.47 56.86 C-0.22 56.43, -0.46 52.51, -0.26 47.97 C-0.06 43.43, -0.3 37.62, -0.26 29.62 C-0.21 21.63, -0.04 4.94, 0 0 M0 0 C0 -14.74, 0.04 -70.42, 0 -88.42 C-0.04 -106.42, -0.57 -102.8, -0.27 -108 C0.04 -113.2, 0.3 -116.56, 1.82 -119.64 C3.33 -122.71, 6.15 -125.22, 8.83 -126.46 C11.51 -127.7, 15.09 -127.95, 17.89 -127.08 C20.69 -126.2, 24 -123.79, 25.63 -121.21 C27.27 -118.62, 27.3 -119.41, 27.7 -111.56 C28.1 -103.71, 27.96 -91.96, 28.02 -74.09 C28.07 -56.22, 28.02 -22.21, 28.02 -4.35 C28.02 13.51, 28.02 24.43, 28.02 33.08 C28.02 41.73, 28.02 43.8, 28.02 47.56 C28.02 51.31, 26.29 55.79, 28.02 55.61 C29.74 55.43, 32.86 51.67, 38.38 46.47 C43.89 41.26, 54.85 30.5, 61.11 24.39 C67.37 18.28, 71.3 14.42, 75.93 9.79 C80.55 5.17, 85.31 -0.54, 88.86 -3.36 C92.41 -6.19, 94.33 -6.79, 97.21 -7.14 C100.09 -7.5, 103.72 -7.04, 106.15 -5.48 C108.59 -3.92, 110.9 -0.83, 111.81 2.2 C112.72 5.22, 113.18 9.19, 111.6 12.67 C110.02 16.15, 109.74 15.48, 102.35 23.06 C94.96 30.64, 76.53 48.87, 67.26 58.14 C58 67.41, 52.51 72.9, 46.74 78.66 C40.98 84.43, 36.37 89.03, 32.68 92.73 C28.98 96.43, 27.31 98.93, 24.55 100.85 C21.79 102.77, 18.94 103.95, 16.11 104.27 C13.28 104.58, 11.34 105, 7.57 102.76 C3.81 100.52, -2.34 94.62, -6.5 90.82 C-10.65 87.02, -12.61 84.71, -17.36 79.97 C-22.1 75.22, -29.01 68.32, -34.98 62.34 C-40.96 56.37, -47.45 49.87, -53.21 44.12 C-58.96 38.36, -64.85 32.56, -69.52 27.8 C-74.19 23.05, -78.71 19.26, -81.22 15.6 C-83.72 11.93, -84.61 8.88, -84.56 5.79 C-84.51 2.7, -82.8 -0.72, -80.9 -2.96 C-79.01 -5.19, -75.91 -7.18, -73.19 -7.64 C-70.47 -8.11, -67.12 -7.01, -64.56 -5.75 C-61.99 -4.48, -60.92 -3.11, -57.79 -0.05 C-54.65 3, -49.55 8.68, -45.74 12.59 C-41.93 16.5, -39.34 18.99, -34.92 23.41 C-30.51 27.82, -23.76 34.57, -19.23 39.1 C-14.71 43.62, -10.74 47.59, -7.78 50.55 C-4.82 53.51, -2.72 57.29, -1.47 56.86 C-0.22 56.43, -0.46 52.51, -0.26 47.97 C-0.06 43.43, -0.3 37.62, -0.26 29.62 C-0.21 21.63, -0.04 4.94, 0 0" stroke="#b3a2fa" stroke-width="4" fill="none"></path></g></g><mask></mask><g stroke-linecap="round" transform="translate(250.89471520496716 250.6456891706749) rotate(0 13.133527520385215 13.133527520385215)"><path d="M26.27 13.13 C26.27 13.89, 26.2 14.67, 26.07 15.41 C25.94 16.16, 25.74 16.91, 25.48 17.63 C25.22 18.34, 24.89 19.04, 24.51 19.7 C24.13 20.36, 23.68 20.99, 23.19 21.58 C22.71 22.16, 22.16 22.71, 21.58 23.19 C20.99 23.68, 20.36 24.13, 19.7 24.51 C19.04 24.89, 18.34 25.22, 17.63 25.48 C16.91 25.74, 16.16 25.94, 15.41 26.07 C14.67 26.2, 13.89 26.27, 13.13 26.27 C12.37 26.27, 11.6 26.2, 10.85 26.07 C10.1 25.94, 9.36 25.74, 8.64 25.48 C7.93 25.22, 7.23 24.89, 6.57 24.51 C5.91 24.13, 5.27 23.68, 4.69 23.19 C4.11 22.71, 3.56 22.16, 3.07 21.58 C2.58 20.99, 2.14 20.36, 1.76 19.7 C1.38 19.04, 1.05 18.34, 0.79 17.63 C0.53 16.91, 0.33 16.16, 0.2 15.41 C0.07 14.67, 0 13.89, 0 13.13 C0 12.37, 0.07 11.6, 0.2 10.85 C0.33 10.1, 0.53 9.36, 0.79 8.64 C1.05 7.93, 1.38 7.23, 1.76 6.57 C2.14 5.91, 2.58 5.27, 3.07 4.69 C3.56 4.11, 4.11 3.56, 4.69 3.07 C5.27 2.58, 5.91 2.14, 6.57 1.76 C7.23 1.38, 7.93 1.05, 8.64 0.79 C9.36 0.53, 10.1 0.33, 10.85 0.2 C11.6 0.07, 12.37 0, 13.13 0 C13.89 0, 14.67 0.07, 15.41 0.2 C16.16 0.33, 16.91 0.53, 17.63 0.79 C18.34 1.05, 19.04 1.38, 19.7 1.76 C20.36 2.14, 20.99 2.58, 21.58 3.07 C22.16 3.56, 22.71 4.11, 23.19 4.69 C23.68 5.27, 24.13 5.91, 24.51 6.57 C24.89 7.23, 25.22 7.93, 25.48 8.64 C25.74 9.36, 25.94 10.1, 26.07 10.85 C26.2 11.6, 26.23 12.75, 26.27 13.13 C26.3 13.51, 26.3 12.75, 26.27 13.13" stroke="none" stroke-width="0" fill="#9e75ed"></path><path d="M26.27 13.13 C26.27 13.89, 26.2 14.67, 26.07 15.41 C25.94 16.16, 25.74 16.91, 25.48 17.63 C25.22 18.34, 24.89 19.04, 24.51 19.7 C24.13 20.36, 23.68 20.99, 23.19 21.58 C22.71 22.16, 22.16 22.71, 21.58 23.19 C20.99 23.68, 20.36 24.13, 19.7 24.51 C19.04 24.89, 18.34 25.22, 17.63 25.48 C16.91 25.74, 16.16 25.94, 15.41 26.07 C14.67 26.2, 13.89 26.27, 13.13 26.27 C12.37 26.27, 11.6 26.2, 10.85 26.07 C10.1 25.94, 9.36 25.74, 8.64 25.48 C7.93 25.22, 7.23 24.89, 6.57 24.51 C5.91 24.13, 5.27 23.68, 4.69 23.19 C4.11 22.71, 3.56 22.16, 3.07 21.58 C2.58 20.99, 2.14 20.36, 1.76 19.7 C1.38 19.04, 1.05 18.34, 0.79 17.63 C0.53 16.91, 0.33 16.16, 0.2 15.41 C0.07 14.67, 0 13.89, 0 13.13 C0 12.37, 0.07 11.6, 0.2 10.85 C0.33 10.1, 0.53 9.36, 0.79 8.64 C1.05 7.93, 1.38 7.23, 1.76 6.57 C2.14 5.91, 2.58 5.27, 3.07 4.69 C3.56 4.11, 4.11 3.56, 4.69 3.07 C5.27 2.58, 5.91 2.14, 6.57 1.76 C7.23 1.38, 7.93 1.05, 8.64 0.79 C9.36 0.53, 10.1 0.33, 10.85 0.2 C11.6 0.07, 12.37 0, 13.13 0 C13.89 0, 14.67 0.07, 15.41 0.2 C16.16 0.33, 16.91 0.53, 17.63 0.79 C18.34 1.05, 19.04 1.38, 19.7 1.76 C20.36 2.14, 20.99 2.58, 21.58 3.07 C22.16 3.56, 22.71 4.11, 23.19 4.69 C23.68 5.27, 24.13 5.91, 24.51 6.57 C24.89 7.23, 25.22 7.93, 25.48 8.64 C25.74 9.36, 25.94 10.1, 26.07 10.85 C26.2 11.6, 26.23 12.75, 26.27 13.13 C26.3 13.51, 26.3 12.75, 26.27 13.13" stroke="#9e75ed" stroke-width="4" fill="none"></path></g></svg>