<svg version="1.1" xmlns="http://www.w3.org/2000/svg" viewBox="0 0 891.1969252203617 971.7355108717134" width="891.1969252203617" height="971.7355108717134" class="excalidraw-svg"><!-- svg-source:excalidraw --><metadata></metadata><defs><style class="style-fonts">
      </style></defs><rect x="0" y="0" width="891.1969252203617" height="971.7355108717134" fill="#000000"></rect><g stroke-linecap="round"><g transform="translate(755.9007442526417 308.3501539884203) rotate(0 -311.97674992570023 118.67602679898289)"><path d="M0 0 C-5.52 -3.71, -20.79 -15.3, -33.14 -22.26 C-45.49 -29.22, -57.2 -35.01, -74.08 -41.76 C-90.95 -48.51, -113.32 -56.87, -134.39 -62.73 C-155.47 -68.6, -175.9 -73.49, -200.53 -76.93 C-225.16 -80.37, -252.03 -82.88, -282.19 -83.38 C-312.36 -83.88, -348.47 -83.82, -381.54 -79.92 C-414.61 -76.01, -449.53 -68.78, -480.61 -59.96 C-511.69 -51.14, -544.8 -38.13, -568.02 -26.99 C-591.23 -15.86, -604.16 -5.86, -619.88 6.84 C-635.6 19.55, -651.46 34.08, -662.36 49.23 C-673.25 64.38, -681.17 81.41, -685.25 97.74 C-689.33 114.06, -689.87 131.36, -686.85 147.17 C-683.82 162.98, -676.94 178.01, -667.09 192.59 C-657.25 207.18, -645.41 221.1, -627.8 234.66 C-610.2 248.21, -586.55 262.65, -561.47 273.92 C-536.4 285.19, -507.42 295.12, -477.34 302.28 C-447.25 309.44, -408.82 313.8, -380.97 316.88 C-353.12 319.95, -339.72 321.91, -310.23 320.73 C-280.73 319.55, -240.04 316.78, -204.01 309.8 C-167.98 302.82, -126.3 291.8, -94.03 278.87 C-61.77 265.93, -33.13 249.19, -10.43 232.18 C12.27 215.17, 29.95 195.25, 42.17 176.82 C54.39 158.38, 61.29 140.91, 62.89 121.58 C64.49 102.25, 58.62 77.93, 51.77 60.85 C44.92 43.76, 30.44 29.22, 21.82 19.08 C13.19 8.94, 3.64 3.18, 0 0 M0 0 C-5.52 -3.71, -20.79 -15.3, -33.14 -22.26 C-45.49 -29.22, -57.2 -35.01, -74.08 -41.76 C-90.95 -48.51, -113.32 -56.87, -134.39 -62.73 C-155.47 -68.6, -175.9 -73.49, -200.53 -76.93 C-225.16 -80.37, -252.03 -82.88, -282.19 -83.38 C-312.36 -83.88, -348.47 -83.82, -381.54 -79.92 C-414.61 -76.01, -449.53 -68.78, -480.61 -59.96 C-511.69 -51.14, -544.8 -38.13, -568.02 -26.99 C-591.23 -15.86, -604.16 -5.86, -619.88 6.84 C-635.6 19.55, -651.46 34.08, -662.36 49.23 C-673.25 64.38, -681.17 81.41, -685.25 97.74 C-689.33 114.06, -689.87 131.36, -686.85 147.17 C-683.82 162.98, -676.94 178.01, -667.09 192.59 C-657.25 207.18, -645.41 221.1, -627.8 234.66 C-610.2 248.21, -586.55 262.65, -561.47 273.92 C-536.4 285.19, -507.42 295.12, -477.34 302.28 C-447.25 309.44, -408.82 313.8, -380.97 316.88 C-353.12 319.95, -339.72 321.91, -310.23 320.73 C-280.73 319.55, -240.04 316.78, -204.01 309.8 C-167.98 302.82, -126.3 291.8, -94.03 278.87 C-61.77 265.93, -33.13 249.19, -10.43 232.18 C12.27 215.17, 29.95 195.25, 42.17 176.82 C54.39 158.38, 61.29 140.91, 62.89 121.58 C64.49 102.25, 58.62 77.93, 51.77 60.85 C44.92 43.76, 30.44 29.22, 21.82 19.08 C13.19 8.94, 3.64 3.18, 0 0" stroke="#E1E1E1" stroke-width="4" fill="none"></path></g></g><mask></mask><g stroke-linecap="round"><g transform="translate(699.6172569397004 315.77743833441605) rotate(0 -258.1475849977985 108.71172653681299)"><path d="M0 0 C-6.24 -3.75, -22.13 -15.23, -37.45 -22.52 C-52.77 -29.81, -69.51 -37.46, -91.94 -43.74 C-114.36 -50.02, -144.35 -56.73, -171.99 -60.21 C-199.64 -63.69, -227.39 -65.42, -257.81 -64.62 C-288.23 -63.81, -322.89 -61.39, -354.53 -55.36 C-386.17 -49.33, -422.84 -37.78, -447.64 -28.46 C-472.45 -19.13, -487.45 -9.61, -503.36 0.62 C-519.26 10.85, -531.82 21.04, -543.07 32.92 C-554.33 44.8, -564.55 57.09, -570.88 71.92 C-577.22 86.75, -581.99 105.86, -581.09 121.9 C-580.18 137.94, -574.5 153.36, -565.44 168.17 C-556.38 182.97, -541.2 198.71, -526.74 210.73 C-512.28 222.74, -498.73 230.96, -478.67 240.25 C-458.61 249.54, -431.98 259.77, -406.39 266.46 C-380.8 273.16, -355.97 277.81, -325.12 280.4 C-294.27 283, -256.47 284.8, -221.29 282.04 C-186.1 279.28, -147.79 273.6, -114.01 263.86 C-80.22 254.11, -44.26 238.61, -18.58 223.56 C7.1 208.52, 26.18 189.86, 40.08 173.59 C53.97 157.32, 61.15 142.82, 64.79 125.96 C68.44 109.1, 66.63 88.34, 61.95 72.44 C57.26 56.54, 47.01 42.64, 36.69 30.56 C26.36 18.49, 6.11 5.09, 0 0 M0 0 C-6.24 -3.75, -22.13 -15.23, -37.45 -22.52 C-52.77 -29.81, -69.51 -37.46, -91.94 -43.74 C-114.36 -50.02, -144.35 -56.73, -171.99 -60.21 C-199.64 -63.69, -227.39 -65.42, -257.81 -64.62 C-288.23 -63.81, -322.89 -61.39, -354.53 -55.36 C-386.17 -49.33, -422.84 -37.78, -447.64 -28.46 C-472.45 -19.13, -487.45 -9.61, -503.36 0.62 C-519.26 10.85, -531.82 21.04, -543.07 32.92 C-554.33 44.8, -564.55 57.09, -570.88 71.92 C-577.22 86.75, -581.99 105.86, -581.09 121.9 C-580.18 137.94, -574.5 153.36, -565.44 168.17 C-556.38 182.97, -541.2 198.71, -526.74 210.73 C-512.28 222.74, -498.73 230.96, -478.67 240.25 C-458.61 249.54, -431.98 259.77, -406.39 266.46 C-380.8 273.16, -355.97 277.81, -325.12 280.4 C-294.27 283, -256.47 284.8, -221.29 282.04 C-186.1 279.28, -147.79 273.6, -114.01 263.86 C-80.22 254.11, -44.26 238.61, -18.58 223.56 C7.1 208.52, 26.18 189.86, 40.08 173.59 C53.97 157.32, 61.15 142.82, 64.79 125.96 C68.44 109.1, 66.63 88.34, 61.95 72.44 C57.26 56.54, 47.01 42.64, 36.69 30.56 C26.36 18.49, 6.11 5.09, 0 0" stroke="#E1E1E1" stroke-width="4" fill="none"></path></g></g><mask></mask><g stroke-linecap="round"><g transform="translate(647.885697203672 334.58724402567645) rotate(0 -205.20913209159335 98.51772202147288)"><path d="M0 0 C-6.77 -3.51, -24.5 -14.82, -40.64 -21.03 C-56.78 -27.25, -73.01 -32.89, -96.82 -37.29 C-120.64 -41.69, -152.55 -47.07, -183.55 -47.44 C-214.54 -47.81, -252.64 -44.64, -282.79 -39.51 C-312.93 -34.39, -341.11 -25.78, -364.41 -16.68 C-387.72 -7.58, -405.54 1.68, -422.61 15.1 C-439.69 28.53, -457.81 49.1, -466.87 63.87 C-475.94 78.64, -477.96 88.78, -477.01 103.73 C-476.05 118.68, -470.74 138.65, -461.16 153.56 C-451.58 168.47, -436.35 181.57, -419.54 193.18 C-402.74 204.78, -385.94 214.64, -360.34 223.19 C-334.74 231.74, -297.93 240.96, -265.94 244.48 C-233.95 247.99, -197.43 246.45, -168.38 244.29 C-139.33 242.13, -119.66 240.13, -91.64 231.51 C-63.62 222.88, -24.04 207, -0.27 192.53 C23.51 178.05, 39.86 162.83, 51.01 144.66 C62.15 126.49, 68.02 101.9, 66.59 83.53 C65.15 65.15, 53.5 48.32, 42.4 34.4 C31.3 20.48, 7.07 5.73, 0 0 M0 0 C-6.77 -3.51, -24.5 -14.82, -40.64 -21.03 C-56.78 -27.25, -73.01 -32.89, -96.82 -37.29 C-120.64 -41.69, -152.55 -47.07, -183.55 -47.44 C-214.54 -47.81, -252.64 -44.64, -282.79 -39.51 C-312.93 -34.39, -341.11 -25.78, -364.41 -16.68 C-387.72 -7.58, -405.54 1.68, -422.61 15.1 C-439.69 28.53, -457.81 49.1, -466.87 63.87 C-475.94 78.64, -477.96 88.78, -477.01 103.73 C-476.05 118.68, -470.74 138.65, -461.16 153.56 C-451.58 168.47, -436.35 181.57, -419.54 193.18 C-402.74 204.78, -385.94 214.64, -360.34 223.19 C-334.74 231.74, -297.93 240.96, -265.94 244.48 C-233.95 247.99, -197.43 246.45, -168.38 244.29 C-139.33 242.13, -119.66 240.13, -91.64 231.51 C-63.62 222.88, -24.04 207, -0.27 192.53 C23.51 178.05, 39.86 162.83, 51.01 144.66 C62.15 126.49, 68.02 101.9, 66.59 83.53 C65.15 65.15, 53.5 48.32, 42.4 34.4 C31.3 20.48, 7.07 5.73, 0 0" stroke="#E1E1E1" stroke-width="4" fill="none"></path></g></g><mask></mask><g stroke-linecap="round"><g transform="translate(605.0169382757931 377.17062919902423) rotate(0 -190.20106691042656 83.18266607991507)"><path d="M0 0 C-6.95 -3.23, -25.02 -13.9, -41.71 -19.39 C-58.41 -24.89, -74.89 -30.48, -100.19 -32.95 C-125.48 -35.42, -164.01 -37, -193.48 -34.2 C-222.94 -31.39, -254.65 -23.1, -276.98 -16.11 C-299.3 -9.12, -312.63 -2.06, -327.42 7.75 C-342.21 17.55, -356.89 30.16, -365.72 42.73 C-374.55 55.29, -379.61 69.81, -380.4 83.15 C-381.19 96.49, -377.69 110.33, -370.47 122.74 C-363.25 135.15, -351.44 147.34, -337.08 157.61 C-322.73 167.87, -300.95 177.19, -284.33 184.35 C-267.71 191.51, -245.19 197.86, -237.37 200.56 M0 0 C-6.95 -3.23, -25.02 -13.9, -41.71 -19.39 C-58.41 -24.89, -74.89 -30.48, -100.19 -32.95 C-125.48 -35.42, -164.01 -37, -193.48 -34.2 C-222.94 -31.39, -254.65 -23.1, -276.98 -16.11 C-299.3 -9.12, -312.63 -2.06, -327.42 7.75 C-342.21 17.55, -356.89 30.16, -365.72 42.73 C-374.55 55.29, -379.61 69.81, -380.4 83.15 C-381.19 96.49, -377.69 110.33, -370.47 122.74 C-363.25 135.15, -351.44 147.34, -337.08 157.61 C-322.73 167.87, -300.95 177.19, -284.33 184.35 C-267.71 191.51, -245.19 197.86, -237.37 200.56" stroke="#E1E1E1" stroke-width="4" fill="none"></path></g></g><mask></mask><g stroke-linecap="round"><g transform="translate(530.3877933336043 572.6772955865608) rotate(0 64.7693399077989 -98.13615198943262)"><path d="M0 0 C8.05 -3.48, 31.68 -11.99, 48.29 -20.88 C64.89 -29.78, 86.08 -40.97, 99.62 -53.37 C113.16 -65.77, 124.89 -81.02, 129.54 -95.29 C134.19 -109.55, 131.56 -125.98, 127.5 -138.95 C123.44 -151.92, 114.23 -163.58, 105.17 -173.13 C96.12 -182.68, 78.5 -192.42, 73.17 -196.27 M0 0 C8.05 -3.48, 31.68 -11.99, 48.29 -20.88 C64.89 -29.78, 86.08 -40.97, 99.62 -53.37 C113.16 -65.77, 124.89 -81.02, 129.54 -95.29 C134.19 -109.55, 131.56 -125.98, 127.5 -138.95 C123.44 -151.92, 114.23 -163.58, 105.17 -173.13 C96.12 -182.68, 78.5 -192.42, 73.17 -196.27" stroke="#E1E1E1" stroke-width="4" fill="none"></path></g></g><mask></mask><g stroke-linecap="round"><g transform="translate(590.6929401059479 545.0025384056755) rotate(0 -145.61674656949072 -55.635246287959035)"><path d="M0 0 C2.71 -3.76, 12.98 -13.9, 16.26 -22.58 C19.53 -31.26, 22.04 -41.9, 19.64 -52.09 C17.24 -62.28, 10.85 -74.15, 1.88 -83.72 C-7.09 -93.29, -18.5 -102.08, -34.19 -109.5 C-49.88 -116.92, -70.73 -124.65, -92.26 -128.23 C-113.79 -131.82, -142.12 -132.28, -163.35 -131.03 C-184.59 -129.77, -201.95 -126.01, -219.66 -120.71 C-237.36 -115.41, -256.49 -106.96, -269.59 -99.24 C-282.68 -91.53, -291.35 -83.08, -298.23 -74.42 C-305.11 -65.76, -309.34 -57.17, -310.87 -47.29 C-312.41 -37.41, -311.19 -24.16, -307.45 -15.14 C-303.71 -6.12, -295.88 1.01, -288.44 6.83 C-281.01 12.65, -267.12 17.6, -262.86 19.76 M0 0 C2.71 -3.76, 12.98 -13.9, 16.26 -22.58 C19.53 -31.26, 22.04 -41.9, 19.64 -52.09 C17.24 -62.28, 10.85 -74.15, 1.88 -83.72 C-7.09 -93.29, -18.5 -102.08, -34.19 -109.5 C-49.88 -116.92, -70.73 -124.65, -92.26 -128.23 C-113.79 -131.82, -142.12 -132.28, -163.35 -131.03 C-184.59 -129.77, -201.95 -126.01, -219.66 -120.71 C-237.36 -115.41, -256.49 -106.96, -269.59 -99.24 C-282.68 -91.53, -291.35 -83.08, -298.23 -74.42 C-305.11 -65.76, -309.34 -57.17, -310.87 -47.29 C-312.41 -37.41, -311.19 -24.16, -307.45 -15.14 C-303.71 -6.12, -295.88 1.01, -288.44 6.83 C-281.01 12.65, -267.12 17.6, -262.86 19.76" stroke="#E1E1E1" stroke-width="4" fill="none"></path></g></g><mask></mask><g stroke-linecap="round"><g transform="translate(335.5097826028086 568.224394262619) rotate(0 109.93609502371646 -36.11268607334341)"><path d="M0 0 C-1.08 -1.51, -6.44 -4.24, -6.46 -9.08 C-6.47 -13.93, -4.91 -22.43, -0.09 -29.1 C4.72 -35.76, 12.06 -43, 22.43 -49.05 C32.79 -55.11, 48.17 -61.58, 62.1 -65.44 C76.03 -69.31, 88.76 -72.24, 106.03 -72.23 C123.3 -72.22, 150.58 -68.72, 165.74 -65.39 C180.91 -62.05, 188.13 -57.52, 197.03 -52.23 C205.93 -46.94, 214.25 -39.17, 219.14 -33.64 C224.02 -28.12, 225.24 -23.29, 226.33 -19.08 C227.42 -14.87, 228.2 -11.36, 225.68 -8.39 C223.16 -5.42, 213.6 -2.45, 211.19 -1.26 M0 0 C-1.08 -1.51, -6.44 -4.24, -6.46 -9.08 C-6.47 -13.93, -4.91 -22.43, -0.09 -29.1 C4.72 -35.76, 12.06 -43, 22.43 -49.05 C32.79 -55.11, 48.17 -61.58, 62.1 -65.44 C76.03 -69.31, 88.76 -72.24, 106.03 -72.23 C123.3 -72.22, 150.58 -68.72, 165.74 -65.39 C180.91 -62.05, 188.13 -57.52, 197.03 -52.23 C205.93 -46.94, 214.25 -39.17, 219.14 -33.64 C224.02 -28.12, 225.24 -23.29, 226.33 -19.08 C227.42 -14.87, 228.2 -11.36, 225.68 -8.39 C223.16 -5.42, 213.6 -2.45, 211.19 -1.26" stroke="#E1E1E1" stroke-width="4" fill="none"></path></g></g><mask></mask><g stroke-linecap="round"><g transform="translate(518.149433443501 573.7014137962351) rotate(0 -70.0902378734977 -5.782880341203509)"><path d="M0 0 C-4.13 -1.63, -15.18 -7.03, -24.8 -9.78 C-34.41 -12.54, -47.04 -15.54, -57.69 -16.54 C-68.34 -17.53, -78.17 -17.28, -88.71 -15.74 C-99.25 -14.2, -112.33 -10.74, -120.91 -7.28 C-129.49 -3.83, -136.97 2.93, -140.18 4.97 M0 0 C-4.13 -1.63, -15.18 -7.03, -24.8 -9.78 C-34.41 -12.54, -47.04 -15.54, -57.69 -16.54 C-68.34 -17.53, -78.17 -17.28, -88.71 -15.74 C-99.25 -14.2, -112.33 -10.74, -120.91 -7.28 C-129.49 -3.83, -136.97 2.93, -140.18 4.97" stroke="#E1E1E1" stroke-width="4" fill="none"></path></g></g><mask></mask><g stroke-linecap="round"><g transform="translate(366.0320673700662 625.6651474649727) rotate(0 80.98251948420375 67.73418342050468)"><path d="M0 0 C1.92 2.91, 6.57 8.32, 11.53 17.43 C16.5 26.55, 24.59 41.77, 29.81 54.7 C35.03 67.62, 39.38 83.89, 42.85 95 C46.31 106.1, 48.19 115.29, 50.6 121.33 C53 127.36, 53.26 128.3, 57.27 131.22 C61.28 134.13, 68.26 137.62, 74.64 138.82 C81.01 140.02, 89.16 139.87, 95.52 138.41 C101.88 136.94, 108.71 134.24, 112.8 130.05 C116.88 125.86, 117.35 121.29, 120.01 113.26 C122.66 105.23, 125.97 92.39, 128.75 81.89 C131.52 71.4, 133.61 59.89, 136.65 50.28 C139.68 40.67, 142.73 33.18, 146.95 24.24 C151.17 15.3, 159.46 1.25, 161.97 -3.35 M0 0 C1.92 2.91, 6.57 8.32, 11.53 17.43 C16.5 26.55, 24.59 41.77, 29.81 54.7 C35.03 67.62, 39.38 83.89, 42.85 95 C46.31 106.1, 48.19 115.29, 50.6 121.33 C53 127.36, 53.26 128.3, 57.27 131.22 C61.28 134.13, 68.26 137.62, 74.64 138.82 C81.01 140.02, 89.16 139.87, 95.52 138.41 C101.88 136.94, 108.71 134.24, 112.8 130.05 C116.88 125.86, 117.35 121.29, 120.01 113.26 C122.66 105.23, 125.97 92.39, 128.75 81.89 C131.52 71.4, 133.61 59.89, 136.65 50.28 C139.68 40.67, 142.73 33.18, 146.95 24.24 C151.17 15.3, 159.46 1.25, 161.97 -3.35" stroke="#E1E1E1" stroke-width="4" fill="none"></path></g></g><mask></mask><g stroke-linecap="round"><g transform="translate(523.211113113699 624.195605949147) rotate(0 -76.32081832377708 68.8348420626229)"><path d="M0 0 C-2.11 3.54, -8.36 11.07, -12.66 21.25 C-16.96 31.43, -22.12 48.26, -25.81 61.07 C-29.5 73.87, -31.52 86.89, -34.81 98.08 C-38.09 109.27, -41.16 121.75, -45.51 128.22 C-49.87 134.7, -55.31 135.36, -60.93 136.93 C-66.55 138.51, -72.98 138.44, -79.23 137.67 C-85.48 136.9, -94.01 135.4, -98.44 132.32 C-102.87 129.24, -102.79 127.85, -105.8 119.19 C-108.81 110.52, -112.49 92.99, -116.5 80.32 C-120.51 67.65, -125.21 53.86, -129.86 43.15 C-134.52 32.45, -140.64 22.93, -144.43 16.09 C-148.23 9.26, -151.27 4.48, -152.64 2.16 M0 0 C-2.11 3.54, -8.36 11.07, -12.66 21.25 C-16.96 31.43, -22.12 48.26, -25.81 61.07 C-29.5 73.87, -31.52 86.89, -34.81 98.08 C-38.09 109.27, -41.16 121.75, -45.51 128.22 C-49.87 134.7, -55.31 135.36, -60.93 136.93 C-66.55 138.51, -72.98 138.44, -79.23 137.67 C-85.48 136.9, -94.01 135.4, -98.44 132.32 C-102.87 129.24, -102.79 127.85, -105.8 119.19 C-108.81 110.52, -112.49 92.99, -116.5 80.32 C-120.51 67.65, -125.21 53.86, -129.86 43.15 C-134.52 32.45, -140.64 22.93, -144.43 16.09 C-148.23 9.26, -151.27 4.48, -152.64 2.16" stroke="#E1E1E1" stroke-width="4" fill="none"></path></g></g><mask></mask><g stroke-linecap="round"><g transform="translate(377.9551205789694 637.066074170631) rotate(0 70.67925643116087 7.052701113145758)"><path d="M0 0 C2.86 1.59, 8.89 6.59, 17.15 9.52 C25.41 12.44, 37.97 16.2, 49.54 17.57 C61.11 18.94, 74.15 19.28, 86.57 17.73 C98.99 16.18, 114.93 11.84, 124.06 8.28 C133.19 4.72, 138.48 -1.64, 141.36 -3.62 M0 0 C2.86 1.59, 8.89 6.59, 17.15 9.52 C25.41 12.44, 37.97 16.2, 49.54 17.57 C61.11 18.94, 74.15 19.28, 86.57 17.73 C98.99 16.18, 114.93 11.84, 124.06 8.28 C133.19 4.72, 138.48 -1.64, 141.36 -3.62" stroke="#E1E1E1" stroke-width="4" fill="none"></path></g></g><mask></mask><g stroke-linecap="round"><g transform="translate(519.3136334412911 633.3842337423939) rotate(0 -4.3172773676551515 7.567839307552049)"><path d="M0 0 C-1.44 2.52, -7.2 12.61, -8.63 15.14 M0 0 C-1.44 2.52, -7.2 12.61, -8.63 15.14" stroke="#E1E1E1" stroke-width="4" fill="none"></path></g></g><mask></mask><g stroke-linecap="round"><g transform="translate(502.7962663357639 667.8216213703879) rotate(0 -53.875368663240806 7.63472740643806)"><path d="M0 0 C-3.17 1.51, -11.21 6.5, -19.05 9.04 C-26.89 11.59, -36.55 14.55, -47.05 15.27 C-57.54 15.99, -71.92 15.53, -82.03 13.37 C-92.15 11.22, -103.46 4.19, -107.75 2.36 M0 0 C-3.17 1.51, -11.21 6.5, -19.05 9.04 C-26.89 11.59, -36.55 14.55, -47.05 15.27 C-57.54 15.99, -71.92 15.53, -82.03 13.37 C-92.15 11.22, -103.46 4.19, -107.75 2.36" stroke="#E1E1E1" stroke-width="4" fill="none"></path></g></g><mask></mask><g stroke-linecap="round"><g transform="translate(408.6587546273504 712.8672618157477) rotate(0 42.900728796752446 2.33908680134482)"><path d="M0 0 C3.13 1.32, 12.2 6.12, 18.8 7.89 C25.41 9.66, 31.67 10.8, 39.64 10.63 C47.6 10.45, 58.89 9.61, 66.58 6.84 C74.28 4.08, 82.6 -3.82, 85.8 -5.95 M0 0 C3.13 1.32, 12.2 6.12, 18.8 7.89 C25.41 9.66, 31.67 10.8, 39.64 10.63 C47.6 10.45, 58.89 9.61, 66.58 6.84 C74.28 4.08, 82.6 -3.82, 85.8 -5.95" stroke="#E1E1E1" stroke-width="4" fill="none"></path></g></g><mask></mask><g stroke-linecap="round"><g transform="translate(377.7474679734705 626.134362487008) rotate(0 23.097359042216794 64.74468473223044)"><path d="M0 0 C2.43 4.36, 9.64 16.44, 14.56 26.16 C19.47 35.87, 25.38 46.53, 29.51 58.3 C33.65 70.08, 36.58 84.95, 39.36 96.81 C42.14 108.68, 45.06 124.04, 46.19 129.49 M0 0 C2.43 4.36, 9.64 16.44, 14.56 26.16 C19.47 35.87, 25.38 46.53, 29.51 58.3 C33.65 70.08, 36.58 84.95, 39.36 96.81 C42.14 108.68, 45.06 124.04, 46.19 129.49" stroke="#E1E1E1" stroke-width="2" fill="none"></path></g></g><mask></mask><g stroke-linecap="round"><g transform="translate(428.7251842931764 756.9365356833375) rotate(0 -19.827329670554263 -64.30142628588078)"><path d="M0 0 C-0.77 -5.98, -1.93 -22.11, -4.65 -35.88 C-7.37 -49.65, -11.9 -69.89, -16.31 -82.63 C-20.73 -95.37, -27.27 -104.65, -31.16 -112.31 C-35.05 -119.98, -38.24 -125.89, -39.65 -128.6 M0 0 C-0.77 -5.98, -1.93 -22.11, -4.65 -35.88 C-7.37 -49.65, -11.9 -69.89, -16.31 -82.63 C-20.73 -95.37, -27.27 -104.65, -31.16 -112.31 C-35.05 -119.98, -38.24 -125.89, -39.65 -128.6" stroke="#E1E1E1" stroke-width="2" fill="none"></path></g></g><mask></mask><g stroke-linecap="round"><g transform="translate(405.6428001984714 629.6554718119519) rotate(0 14.86463206514054 65.5643135260434)"><path d="M0 0 C1.5 3.58, 5.39 11.35, 8.98 21.47 C12.58 31.58, 18.44 47.84, 21.58 60.7 C24.72 73.57, 26.46 86.91, 27.81 98.65 C29.17 110.39, 29.41 125.72, 29.73 131.13 M0 0 C1.5 3.58, 5.39 11.35, 8.98 21.47 C12.58 31.58, 18.44 47.84, 21.58 60.7 C24.72 73.57, 26.46 86.91, 27.81 98.65 C29.17 110.39, 29.41 125.72, 29.73 131.13" stroke="#E1E1E1" stroke-width="2" fill="none"></path></g></g><mask></mask><g stroke-linecap="round"><g transform="translate(444.1194303353177 762.6699439206927) rotate(0 -9.074319027240108 -66.51522269304337)"><path d="M0 0 C-0.51 -6.56, -1.49 -23.54, -3.09 -39.36 C-4.69 -55.19, -7.08 -79.33, -9.59 -94.94 C-12.1 -110.55, -16.72 -126.68, -18.15 -133.03 M0 0 C-0.51 -6.56, -1.49 -23.54, -3.09 -39.36 C-4.69 -55.19, -7.08 -79.33, -9.59 -94.94 C-12.1 -110.55, -16.72 -126.68, -18.15 -133.03" stroke="#E1E1E1" stroke-width="2" fill="none"></path></g></g><mask></mask><g stroke-linecap="round"><g transform="translate(448.8994335810876 630.1785966450311) rotate(0 1.4221208487051626 66.40989889554373)"><path d="M0 0 C0.08 7.43, 0.01 27.77, 0.48 44.55 C0.96 61.34, 2.5 86, 2.84 100.71 C3.19 115.42, 2.58 127.47, 2.53 132.82 M0 0 C0.08 7.43, 0.01 27.77, 0.48 44.55 C0.96 61.34, 2.5 86, 2.84 100.71 C3.19 115.42, 2.58 127.47, 2.53 132.82" stroke="#E1E1E1" stroke-width="2" fill="none"></path></g></g><mask></mask><g stroke-linecap="round"><g transform="translate(460.4121732281683 762.9125380703842) rotate(0 6.019429734830737 -67.2015744540015)"><path d="M0 0 C0 -7.76, -0.45 -31.86, 0 -46.57 C0.45 -61.29, 1.63 -76.96, 2.67 -88.29 C3.71 -99.63, 4.68 -106.9, 6.24 -114.58 C7.8 -122.27, 11.07 -131.1, 12.04 -134.4 M0 0 C0 -7.76, -0.45 -31.86, 0 -46.57 C0.45 -61.29, 1.63 -76.96, 2.67 -88.29 C3.71 -99.63, 4.68 -106.9, 6.24 -114.58 C7.8 -122.27, 11.07 -131.1, 12.04 -134.4" stroke="#E1E1E1" stroke-width="2" fill="none"></path></g></g><mask></mask><g stroke-linecap="round"><g transform="translate(467.96254176362254 759.8636387569795) rotate(0 11.683454048714793 -66.39692060770017)"><path d="M0 0 C0.29 -6.72, 0.06 -25.04, 1.75 -40.35 C3.44 -55.66, 6.53 -76.45, 10.13 -91.86 C13.73 -107.27, 21.16 -125.97, 23.37 -132.79 M0 0 C0.29 -6.72, 0.06 -25.04, 1.75 -40.35 C3.44 -55.66, 6.53 -76.45, 10.13 -91.86 C13.73 -107.27, 21.16 -125.97, 23.37 -132.79" stroke="#E1E1E1" stroke-width="2" fill="none"></path></g></g><mask></mask><g stroke-linecap="round"><g transform="translate(474.3119195086301 756.0819653453302) rotate(0 16.244323895895377 -65.34118680811741)"><path d="M0 0 C0.44 -6.96, 0.63 -27.77, 2.64 -41.75 C4.65 -55.73, 7.09 -69.06, 12.07 -83.88 C17.04 -98.7, 29.08 -122.88, 32.49 -130.68 M0 0 C0.44 -6.96, 0.63 -27.77, 2.64 -41.75 C4.65 -55.73, 7.09 -69.06, 12.07 -83.88 C17.04 -98.7, 29.08 -122.88, 32.49 -130.68" stroke="#E1E1E1" stroke-width="2" fill="none"></path></g></g><mask></mask><g stroke-linecap="round"><g transform="translate(517.3638952752517 624.4471850673442) rotate(0 -18.533993370450844 61.10477415702621)"><path d="M0 0 C-3.04 5.75, -13.11 20.67, -18.26 34.48 C-23.41 48.28, -27.78 68.21, -30.91 82.83 C-34.05 97.45, -36.04 115.65, -37.07 122.21 M0 0 C-3.04 5.75, -13.11 20.67, -18.26 34.48 C-23.41 48.28, -27.78 68.21, -30.91 82.83 C-34.05 97.45, -36.04 115.65, -37.07 122.21" stroke="#E1E1E1" stroke-width="2" fill="none"></path></g></g><mask></mask><g stroke-linecap="round"><g transform="translate(377.1681629748482 622.2982640160394) rotate(0 8.12672087493138 -20.466440613324835)"><path d="M0 0 C1.39 -4.15, 5.65 -18.05, 8.36 -24.87 C11.07 -31.7, 14.94 -38.26, 16.25 -40.93 M0 0 C1.39 -4.15, 5.65 -18.05, 8.36 -24.87 C11.07 -31.7, 14.94 -38.26, 16.25 -40.93" stroke="#E1E1E1" stroke-width="2" fill="none"></path></g></g><mask></mask><g stroke-linecap="round"><g transform="translate(303.70329334698 614.1669185539902) rotate(0 18.216248653320235 -21.156825404342158)"><path d="M0 0 C2.71 -3.81, 10.18 -15.81, 16.25 -22.86 C22.32 -29.91, 33.07 -39.07, 36.43 -42.31 M0 0 C2.71 -3.81, 10.18 -15.81, 16.25 -22.86 C22.32 -29.91, 33.07 -39.07, 36.43 -42.31" stroke="#E1E1E1" stroke-width="2" fill="none"></path></g></g><mask></mask><g stroke-linecap="round"><g transform="translate(235.53291531261493 596.717690706766) rotate(0 37.68311779410078 -19.149093940321563)"><path d="M0 0 C4.35 -3.72, 17.32 -16.17, 26.11 -22.32 C34.89 -28.48, 44.5 -34.27, 52.71 -36.93 C60.92 -39.59, 71.59 -38.07, 75.37 -38.3 M0 0 C4.35 -3.72, 17.32 -16.17, 26.11 -22.32 C34.89 -28.48, 44.5 -34.27, 52.71 -36.93 C60.92 -39.59, 71.59 -38.07, 75.37 -38.3" stroke="#E1E1E1" stroke-width="2" fill="none"></path></g></g><mask></mask><g stroke-linecap="round"><g transform="translate(177.78239270784525 572.7702573050483) rotate(0 58.84654975146668 -15.60533889820033)"><path d="M0 0 C5.17 -3.16, 22.21 -14.38, 31 -18.94 C39.8 -23.51, 45.88 -25.34, 52.77 -27.39 C59.66 -29.43, 64.48 -30.84, 72.35 -31.21 C80.22 -31.58, 92.42 -30.99, 99.97 -29.63 C107.53 -28.26, 114.74 -24.14, 117.69 -23.04 M0 0 C5.17 -3.16, 22.21 -14.38, 31 -18.94 C39.8 -23.51, 45.88 -25.34, 52.77 -27.39 C59.66 -29.43, 64.48 -30.84, 72.35 -31.21 C80.22 -31.58, 92.42 -30.99, 99.97 -29.63 C107.53 -28.26, 114.74 -24.14, 117.69 -23.04" stroke="#E1E1E1" stroke-width="2" fill="none"></path></g></g><mask></mask><g stroke-linecap="round"><g transform="translate(128.41954982245625 543.3803455220859) rotate(0 83.13091735741273 -10.722435558096208)"><path d="M0 0 C6.75 -2.77, 27.13 -12.68, 40.5 -16.63 C53.88 -20.58, 68.03 -23.09, 80.23 -23.72 C92.44 -24.34, 103.3 -22.83, 113.73 -20.38 C124.16 -17.93, 134.07 -12.8, 142.82 -9.02 C151.58 -5.24, 162.36 0.39, 166.26 2.27 M0 0 C6.75 -2.77, 27.13 -12.68, 40.5 -16.63 C53.88 -20.58, 68.03 -23.09, 80.23 -23.72 C92.44 -24.34, 103.3 -22.83, 113.73 -20.38 C124.16 -17.93, 134.07 -12.8, 142.82 -9.02 C151.58 -5.24, 162.36 0.39, 166.26 2.27" stroke="#E1E1E1" stroke-width="2" fill="none"></path></g></g><mask></mask><g stroke-linecap="round"><g transform="translate(93.57130393099214 507.0046645714526) rotate(0 98.31872210449046 10.27318995245821)"><path d="M0 0 C8.03 -1.73, 32.82 -8.17, 48.17 -10.4 C63.52 -12.64, 78.05 -14.33, 92.1 -13.43 C106.15 -12.53, 120.2 -9.22, 132.47 -4.98 C144.74 -0.74, 155.04 5.51, 165.73 12 C176.43 18.5, 191.49 30.32, 196.64 33.98 M0 0 C8.03 -1.73, 32.82 -8.17, 48.17 -10.4 C63.52 -12.64, 78.05 -14.33, 92.1 -13.43 C106.15 -12.53, 120.2 -9.22, 132.47 -4.98 C144.74 -0.74, 155.04 5.51, 165.73 12 C176.43 18.5, 191.49 30.32, 196.64 33.98" stroke="#E1E1E1" stroke-width="2" fill="none"></path></g></g><mask></mask><g stroke-linecap="round"><g transform="translate(72.90864869284997 470.01061025776426) rotate(0 121.02544484828422 41.115882745417025)"><path d="M0 0 C8.22 -0.92, 33.16 -4.92, 49.3 -5.54 C65.45 -6.17, 81.96 -6.09, 96.89 -3.76 C111.81 -1.42, 124.66 2.24, 138.86 8.46 C153.06 14.69, 169.13 24.5, 182.09 33.61 C195.04 42.72, 206.58 54.1, 216.58 63.13 C226.57 72.16, 237.81 83.67, 242.05 87.77 M0 0 C8.22 -0.92, 33.16 -4.92, 49.3 -5.54 C65.45 -6.17, 81.96 -6.09, 96.89 -3.76 C111.81 -1.42, 124.66 2.24, 138.86 8.46 C153.06 14.69, 169.13 24.5, 182.09 33.61 C195.04 42.72, 206.58 54.1, 216.58 63.13 C226.57 72.16, 237.81 83.67, 242.05 87.77" stroke="#E1E1E1" stroke-width="2" fill="none"></path></g></g><mask></mask><g stroke-linecap="round"><g transform="translate(66.59146269121084 427.678461100611) rotate(0 131.40962489154708 68.70550882931457)"><path d="M0 0 C10.68 0.26, 45.84 -0.28, 64.11 1.53 C82.37 3.34, 94.23 5.46, 109.61 10.87 C124.99 16.27, 141.42 24.45, 156.39 33.95 C171.35 43.44, 186.13 55.8, 199.41 67.85 C212.68 79.9, 225.46 94.65, 236.03 106.24 C246.6 117.83, 258.35 132.22, 262.82 137.41 M0 0 C10.68 0.26, 45.84 -0.28, 64.11 1.53 C82.37 3.34, 94.23 5.46, 109.61 10.87 C124.99 16.27, 141.42 24.45, 156.39 33.95 C171.35 43.44, 186.13 55.8, 199.41 67.85 C212.68 79.9, 225.46 94.65, 236.03 106.24 C246.6 117.83, 258.35 132.22, 262.82 137.41" stroke="#E1E1E1" stroke-width="2" fill="none"></path></g></g><mask></mask><g stroke-linecap="round"><g transform="translate(76.6056757651304 389.8400893104431) rotate(0 133.98948384745336 90.0836537599638)"><path d="M0 0 C5.34 0.4, 19.07 0.5, 32.01 2.39 C44.95 4.28, 62.87 6.93, 77.63 11.33 C92.4 15.74, 107.4 21.68, 120.59 28.82 C133.78 35.96, 144.35 43.86, 156.77 54.19 C169.18 64.52, 183.26 78.62, 195.09 90.8 C206.91 102.98, 217.38 114.63, 227.7 127.27 C238.02 139.92, 250.31 157.83, 257.02 166.65 C263.73 175.46, 266.15 177.91, 267.98 180.17 M0 0 C5.34 0.4, 19.07 0.5, 32.01 2.39 C44.95 4.28, 62.87 6.93, 77.63 11.33 C92.4 15.74, 107.4 21.68, 120.59 28.82 C133.78 35.96, 144.35 43.86, 156.77 54.19 C169.18 64.52, 183.26 78.62, 195.09 90.8 C206.91 102.98, 217.38 114.63, 227.7 127.27 C238.02 139.92, 250.31 157.83, 257.02 166.65 C263.73 175.46, 266.15 177.91, 267.98 180.17" stroke="#E1E1E1" stroke-width="2" fill="none"></path></g></g><mask></mask><g stroke-linecap="round"><g transform="translate(355.0481021395899 573.0477325320558) rotate(0 -127.88502885319531 -110.18078805924233)"><path d="M0 0 C-2.14 -4.25, -6 -14.34, -12.84 -25.48 C-19.69 -36.62, -30.12 -51.63, -41.08 -66.84 C-52.03 -82.04, -66.28 -102, -78.56 -116.73 C-90.84 -131.45, -102.57 -143.92, -114.76 -155.2 C-126.95 -166.48, -137.88 -175.86, -151.69 -184.42 C-165.51 -192.98, -180.33 -200.57, -197.67 -206.56 C-215.02 -212.55, -246.09 -218.06, -255.77 -220.36 M0 0 C-2.14 -4.25, -6 -14.34, -12.84 -25.48 C-19.69 -36.62, -30.12 -51.63, -41.08 -66.84 C-52.03 -82.04, -66.28 -102, -78.56 -116.73 C-90.84 -131.45, -102.57 -143.92, -114.76 -155.2 C-126.95 -166.48, -137.88 -175.86, -151.69 -184.42 C-165.51 -192.98, -180.33 -200.57, -197.67 -206.56 C-215.02 -212.55, -246.09 -218.06, -255.77 -220.36" stroke="#E1E1E1" stroke-width="2" fill="none"></path></g></g><mask></mask><g stroke-linecap="round"><g transform="translate(133.4960251661705 318.4140019458066) rotate(0 119.19080507349554 129.20369683680417)"><path d="M0 0 C5.86 2.05, 22.69 6.92, 35.16 12.33 C47.62 17.74, 60.34 22.48, 74.8 32.44 C89.25 42.41, 106.96 56.57, 121.89 72.13 C136.82 87.69, 151.17 106.82, 164.4 125.78 C177.63 144.75, 188.96 163.79, 201.29 185.9 C213.62 208, 232.2 246.32, 238.38 258.41 M0 0 C5.86 2.05, 22.69 6.92, 35.16 12.33 C47.62 17.74, 60.34 22.48, 74.8 32.44 C89.25 42.41, 106.96 56.57, 121.89 72.13 C136.82 87.69, 151.17 106.82, 164.4 125.78 C177.63 144.75, 188.96 163.79, 201.29 185.9 C213.62 208, 232.2 246.32, 238.38 258.41" stroke="#E1E1E1" stroke-width="2" fill="none"></path></g></g><mask></mask><g stroke-linecap="round"><g transform="translate(387.4862774878766 578.5324928526534) rotate(0 -105.33025682895641 -145.8224809688993)"><path d="M0 0 C-1.77 -4.1, -3.8 -8.89, -10.63 -24.63 C-17.47 -40.37, -30.02 -71.61, -41 -94.44 C-51.98 -117.27, -65.25 -142.11, -76.53 -161.61 C-87.8 -181.1, -97.03 -196.55, -108.63 -211.4 C-120.23 -226.24, -133.22 -239.49, -146.11 -250.66 C-159 -261.84, -175.23 -271.61, -185.99 -278.44 C-196.75 -285.27, -206.55 -289.44, -210.66 -291.64 M0 0 C-1.77 -4.1, -3.8 -8.89, -10.63 -24.63 C-17.47 -40.37, -30.02 -71.61, -41 -94.44 C-51.98 -117.27, -65.25 -142.11, -76.53 -161.61 C-87.8 -181.1, -97.03 -196.55, -108.63 -211.4 C-120.23 -226.24, -133.22 -239.49, -146.11 -250.66 C-159 -261.84, -175.23 -271.61, -185.99 -278.44 C-196.75 -285.27, -206.55 -289.44, -210.66 -291.64" stroke="#E1E1E1" stroke-width="2" fill="none"></path></g></g><mask></mask><g stroke-linecap="round"><g transform="translate(234.66085031344028 262.34682905157297) rotate(0 83.45926304271188 159.2806901342709)"><path d="M0 0 C5.39 4.57, 22.07 17.01, 32.34 27.4 C42.6 37.79, 51.97 48.14, 61.59 62.33 C71.21 76.53, 80.51 93.31, 90.06 112.55 C99.61 131.78, 110.04 155.68, 118.87 177.75 C127.69 199.82, 136.18 224.79, 143 244.95 C149.82 265.11, 155.82 286.43, 159.81 298.7 C163.79 310.97, 165.73 315.25, 166.92 318.56 M0 0 C5.39 4.57, 22.07 17.01, 32.34 27.4 C42.6 37.79, 51.97 48.14, 61.59 62.33 C71.21 76.53, 80.51 93.31, 90.06 112.55 C99.61 131.78, 110.04 155.68, 118.87 177.75 C127.69 199.82, 136.18 224.79, 143 244.95 C149.82 265.11, 155.82 286.43, 159.81 298.7 C163.79 310.97, 165.73 315.25, 166.92 318.56" stroke="#E1E1E1" stroke-width="2" fill="none"></path></g></g><mask></mask><g stroke-linecap="round"><g transform="translate(416.6436386043915 581.7604546602224) rotate(0 -60.65740593537021 -168.61971348912311)"><path d="M0 0 C-1.36 -5.95, -3.85 -17.04, -8.18 -35.73 C-12.52 -54.42, -19.7 -87.41, -26 -112.16 C-32.3 -136.91, -38.62 -160.43, -45.97 -184.22 C-53.31 -208.02, -61.86 -234.86, -70.06 -254.94 C-78.25 -275.01, -86.58 -290.94, -95.13 -304.65 C-103.67 -318.37, -116.95 -331.81, -121.31 -337.24 M0 0 C-1.36 -5.95, -3.85 -17.04, -8.18 -35.73 C-12.52 -54.42, -19.7 -87.41, -26 -112.16 C-32.3 -136.91, -38.62 -160.43, -45.97 -184.22 C-53.31 -208.02, -61.86 -234.86, -70.06 -254.94 C-78.25 -275.01, -86.58 -290.94, -95.13 -304.65 C-103.67 -318.37, -116.95 -331.81, -121.31 -337.24" stroke="#E1E1E1" stroke-width="2" fill="none"></path></g></g><mask></mask><g stroke-linecap="round"><g transform="translate(363.104132897176 229.74745380950776) rotate(0 33.79119740761007 175.17407474432173)"><path d="M0 0 C3.13 8.83, 12.88 31.16, 18.8 52.99 C24.72 74.83, 30.03 101.96, 35.53 131 C41.03 160.03, 47.28 197.01, 51.81 227.21 C56.33 257.4, 60.03 291.64, 62.66 312.17 C65.29 332.69, 66.76 343.98, 67.58 350.35 M0 0 C3.13 8.83, 12.88 31.16, 18.8 52.99 C24.72 74.83, 30.03 101.96, 35.53 131 C41.03 160.03, 47.28 197.01, 51.81 227.21 C56.33 257.4, 60.03 291.64, 62.66 312.17 C65.29 332.69, 66.76 343.98, 67.58 350.35" stroke="#E1E1E1" stroke-width="2" fill="none"></path></g></g><mask></mask><g stroke-linecap="round"><g transform="translate(445.6767965240533 579.0980137915137) rotate(0 -4.359664340597192 -176.71075897772482)"><path d="M0 0 C-0.3 -12.03, -1.01 -42.64, -1.83 -72.16 C-2.64 -101.69, -3.97 -141.47, -4.88 -177.15 C-5.79 -212.83, -6.66 -256.88, -7.3 -286.26 C-7.94 -315.64, -8.48 -342.23, -8.72 -353.42 M0 0 C-0.3 -12.03, -1.01 -42.64, -1.83 -72.16 C-2.64 -101.69, -3.97 -141.47, -4.88 -177.15 C-5.79 -212.83, -6.66 -256.88, -7.3 -286.26 C-7.94 -315.64, -8.48 -342.23, -8.72 -353.42" stroke="#E1E1E1" stroke-width="2" fill="none"></path></g></g><mask></mask><g stroke-linecap="round"><g transform="translate(450.4070884893008 581.4182352135745) rotate(0 0.9863583664964608 22.73314895588976)"><path d="M0 0 C0.15 2.92, 0.56 9.94, 0.89 17.52 C1.22 25.1, 1.79 40.81, 1.97 45.47 M0 0 C0.15 2.92, 0.56 9.94, 0.89 17.52 C1.22 25.1, 1.79 40.81, 1.97 45.47" stroke="#E1E1E1" stroke-width="2" fill="none"></path></g></g><mask></mask><g stroke-linecap="round"><g transform="translate(505.540094785928 577.5441525202473) rotate(0 11.273422080305409 20.837728893278722)"><path d="M0 0 C1.41 1.59, 4.67 2.56, 8.43 9.51 C12.19 16.46, 20.19 36.31, 22.55 41.68 M0 0 C1.41 1.59, 4.67 2.56, 8.43 9.51 C12.19 16.46, 20.19 36.31, 22.55 41.68" stroke="#E1E1E1" stroke-width="2" fill="none"></path></g></g><mask></mask><g stroke-linecap="round"><g transform="translate(558.9038661827044 566.2324124324016) rotate(0 21.52811368429593 19.86194101162073)"><path d="M0 0 C1.87 1.26, 5.99 3.15, 11.22 7.53 C16.45 11.92, 26.06 20.95, 31.37 26.31 C36.67 31.68, 41.11 37.49, 43.06 39.72 M0 0 C1.87 1.26, 5.99 3.15, 11.22 7.53 C16.45 11.92, 26.06 20.95, 31.37 26.31 C36.67 31.68, 41.11 37.49, 43.06 39.72" stroke="#E1E1E1" stroke-width="2" fill="none"></path></g></g><mask></mask><g stroke-linecap="round"><g transform="translate(585.4873142410324 549.0236631152536) rotate(0 40.00928511388247 17.15986082476843)"><path d="M0 0 C2.45 0.01, 9.51 -0.44, 14.7 0.08 C19.89 0.6, 23.69 -0.05, 31.14 3.14 C38.6 6.33, 51.28 14.02, 59.42 19.21 C67.57 24.41, 76.59 31.8, 80.02 34.32 M0 0 C2.45 0.01, 9.51 -0.44, 14.7 0.08 C19.89 0.6, 23.69 -0.05, 31.14 3.14 C38.6 6.33, 51.28 14.02, 59.42 19.21 C67.57 24.41, 76.59 31.8, 80.02 34.32" stroke="#E1E1E1" stroke-width="2" fill="none"></path></g></g><mask></mask><g stroke-linecap="round"><g transform="translate(611.2396579289289 534.7257610605195) rotate(0 56.08236796618803 6.72150704670787)"><path d="M0 0 C3.05 -0.66, 11.15 -2.97, 18.3 -3.96 C25.45 -4.96, 33.14 -7.27, 42.89 -5.95 C52.64 -4.63, 65.24 -0.26, 76.79 3.97 C88.34 8.19, 106.27 16.82, 112.16 19.39 M0 0 C3.05 -0.66, 11.15 -2.97, 18.3 -3.96 C25.45 -4.96, 33.14 -7.27, 42.89 -5.95 C52.64 -4.63, 65.24 -0.26, 76.79 3.97 C88.34 8.19, 106.27 16.82, 112.16 19.39" stroke="#E1E1E1" stroke-width="2" fill="none"></path></g></g><mask></mask><g stroke-linecap="round"><g transform="translate(631.2879037358298 518.7577224012962) rotate(0 67.67092262574215 -7.066369114565418)"><path d="M0 0 C3.55 -1.67, 12.3 -7.46, 21.27 -10.04 C30.24 -12.61, 41.67 -15.52, 53.82 -15.46 C65.96 -15.39, 80.58 -12.45, 94.16 -9.65 C107.75 -6.86, 128.48 -0.51, 135.34 1.32 M0 0 C3.55 -1.67, 12.3 -7.46, 21.27 -10.04 C30.24 -12.61, 41.67 -15.52, 53.82 -15.46 C65.96 -15.39, 80.58 -12.45, 94.16 -9.65 C107.75 -6.86, 128.48 -0.51, 135.34 1.32" stroke="#E1E1E1" stroke-width="2" fill="none"></path></g></g><mask></mask><g stroke-linecap="round"><g transform="translate(606.0627629792507 526.3803632804884) rotate(0 96.67369040149265 -25.253548934579726)"><path d="M0 0 C4.65 -3.37, 17.05 -13.51, 27.91 -20.22 C38.77 -26.93, 51.61 -35.23, 65.16 -40.28 C78.7 -45.32, 92.43 -49.3, 109.18 -50.51 C125.92 -51.71, 151.6 -48.82, 165.63 -47.52 C179.66 -46.23, 188.73 -43.54, 193.35 -42.75 M0 0 C4.65 -3.37, 17.05 -13.51, 27.91 -20.22 C38.77 -26.93, 51.61 -35.23, 65.16 -40.28 C78.7 -45.32, 92.43 -49.3, 109.18 -50.51 C125.92 -51.71, 151.6 -48.82, 165.63 -47.52 C179.66 -46.23, 188.73 -43.54, 193.35 -42.75" stroke="#E1E1E1" stroke-width="2" fill="none"></path></g></g><mask></mask><g stroke-linecap="round"><g transform="translate(573.3841091008917 552.9439916797455) rotate(0 121.673547699947 -55.47786836448381)"><path d="M0 0 C5.24 -5.54, 21.79 -23.53, 31.45 -33.25 C41.11 -42.97, 47.55 -49.75, 57.98 -58.32 C68.42 -66.9, 79.78 -76.81, 94.07 -84.7 C108.36 -92.6, 126.79 -101.31, 143.74 -105.69 C160.68 -110.06, 179.14 -110.39, 195.74 -110.96 C212.34 -111.52, 235.41 -109.4, 243.35 -109.09 M0 0 C5.24 -5.54, 21.79 -23.53, 31.45 -33.25 C41.11 -42.97, 47.55 -49.75, 57.98 -58.32 C68.42 -66.9, 79.78 -76.81, 94.07 -84.7 C108.36 -92.6, 126.79 -101.31, 143.74 -105.69 C160.68 -110.06, 179.14 -110.39, 195.74 -110.96 C212.34 -111.52, 235.41 -109.4, 243.35 -109.09" stroke="#E1E1E1" stroke-width="2" fill="none"></path></g></g><mask></mask><g stroke-linecap="round"><g transform="translate(563.442568110243 557.7152442737424) rotate(0 126.6244985361991 -76.87120836708834)"><path d="M0 0 C4.31 -5.97, 16.66 -24.35, 25.86 -35.85 C35.05 -47.35, 44.86 -58.53, 55.16 -69.03 C65.46 -79.53, 75.48 -89.05, 87.66 -98.86 C99.84 -108.66, 114.38 -120.26, 128.24 -127.86 C142.09 -135.45, 155.95 -140.41, 170.78 -144.42 C185.62 -148.44, 203.48 -150.37, 217.22 -151.92 C230.96 -153.47, 247.24 -153.44, 253.25 -153.74 M0 0 C4.31 -5.97, 16.66 -24.35, 25.86 -35.85 C35.05 -47.35, 44.86 -58.53, 55.16 -69.03 C65.46 -79.53, 75.48 -89.05, 87.66 -98.86 C99.84 -108.66, 114.38 -120.26, 128.24 -127.86 C142.09 -135.45, 155.95 -140.41, 170.78 -144.42 C185.62 -148.44, 203.48 -150.37, 217.22 -151.92 C230.96 -153.47, 247.24 -153.44, 253.25 -153.74" stroke="#E1E1E1" stroke-width="2" fill="none"></path></g></g><mask></mask><g stroke-linecap="round"><g transform="translate(546.4201235883747 565.5122981527722) rotate(0 129.415767188877 -99.98357346656098)"><path d="M0 0 C3.03 -4.69, 10.64 -16.82, 18.2 -28.15 C25.76 -39.48, 35.34 -54.64, 45.36 -67.98 C55.39 -81.33, 67.41 -96.12, 78.35 -108.22 C89.3 -120.32, 100.33 -131.2, 111.03 -140.6 C121.73 -150.01, 131.27 -157.75, 142.55 -164.65 C153.83 -171.55, 165.73 -177.17, 178.7 -181.99 C191.66 -186.81, 206.99 -190.57, 220.34 -193.57 C233.7 -196.56, 252.42 -198.9, 258.83 -199.97 M0 0 C3.03 -4.69, 10.64 -16.82, 18.2 -28.15 C25.76 -39.48, 35.34 -54.64, 45.36 -67.98 C55.39 -81.33, 67.41 -96.12, 78.35 -108.22 C89.3 -120.32, 100.33 -131.2, 111.03 -140.6 C121.73 -150.01, 131.27 -157.75, 142.55 -164.65 C153.83 -171.55, 165.73 -177.17, 178.7 -181.99 C191.66 -186.81, 206.99 -190.57, 220.34 -193.57 C233.7 -196.56, 252.42 -198.9, 258.83 -199.97" stroke="#E1E1E1" stroke-width="2" fill="none"></path></g></g><mask></mask><g stroke-linecap="round"><g transform="translate(533.8597449789777 570.2809081255596) rotate(0 123.05497793728387 -119.79728664110587)"><path d="M0 0 C3.28 -6.57, 11.29 -24.35, 19.7 -39.39 C28.1 -54.43, 40.28 -74.52, 50.43 -90.22 C60.57 -105.93, 70.32 -120.39, 80.57 -133.61 C90.82 -146.84, 100.2 -158.27, 111.94 -169.59 C123.67 -180.92, 138.91 -193.04, 151 -201.57 C163.08 -210.09, 172.8 -215.4, 184.44 -220.75 C196.07 -226.1, 210.52 -230.51, 220.8 -233.66 C231.08 -236.8, 241.89 -238.6, 246.11 -239.59 M0 0 C3.28 -6.57, 11.29 -24.35, 19.7 -39.39 C28.1 -54.43, 40.28 -74.52, 50.43 -90.22 C60.57 -105.93, 70.32 -120.39, 80.57 -133.61 C90.82 -146.84, 100.2 -158.27, 111.94 -169.59 C123.67 -180.92, 138.91 -193.04, 151 -201.57 C163.08 -210.09, 172.8 -215.4, 184.44 -220.75 C196.07 -226.1, 210.52 -230.51, 220.8 -233.66 C231.08 -236.8, 241.89 -238.6, 246.11 -239.59" stroke="#E1E1E1" stroke-width="2" fill="none"></path></g></g><mask></mask><g stroke-linecap="round"><g transform="translate(516.4224089271938 575.0363049922985) rotate(0 112.00419669389089 -138.85256752848534)"><path d="M0 0 C3.55 -7.63, 12.95 -28.22, 21.32 -45.8 C29.69 -63.38, 39.73 -85.96, 50.21 -105.47 C60.69 -124.97, 73.58 -146.34, 84.22 -162.83 C94.86 -179.31, 102.01 -190.94, 114.06 -204.38 C126.11 -217.81, 143.09 -233.34, 156.51 -243.44 C169.93 -253.53, 183.32 -259.23, 194.57 -264.95 C205.82 -270.66, 219.1 -275.58, 224.01 -277.71 M0 0 C3.55 -7.63, 12.95 -28.22, 21.32 -45.8 C29.69 -63.38, 39.73 -85.96, 50.21 -105.47 C60.69 -124.97, 73.58 -146.34, 84.22 -162.83 C94.86 -179.31, 102.01 -190.94, 114.06 -204.38 C126.11 -217.81, 143.09 -233.34, 156.51 -243.44 C169.93 -253.53, 183.32 -259.23, 194.57 -264.95 C205.82 -270.66, 219.1 -275.58, 224.01 -277.71" stroke="#E1E1E1" stroke-width="2" fill="none"></path></g></g><mask></mask><g stroke-linecap="round"><g transform="translate(503.9888761358552 574.9411706287533) rotate(0 93.85665619202155 -152.17005711444403)"><path d="M0 0 C2.17 -6.03, 7.09 -19.84, 13.05 -36.19 C19.01 -52.54, 27.25 -76.94, 35.75 -98.11 C44.25 -119.29, 53.78 -142.75, 64.06 -163.25 C74.34 -183.76, 86.47 -204.72, 97.44 -221.14 C108.42 -237.56, 118.29 -249.99, 129.91 -261.75 C141.52 -273.52, 157.48 -284.62, 167.11 -291.71 C176.75 -298.81, 184.28 -302.24, 187.71 -304.34 M0 0 C2.17 -6.03, 7.09 -19.84, 13.05 -36.19 C19.01 -52.54, 27.25 -76.94, 35.75 -98.11 C44.25 -119.29, 53.78 -142.75, 64.06 -163.25 C74.34 -183.76, 86.47 -204.72, 97.44 -221.14 C108.42 -237.56, 118.29 -249.99, 129.91 -261.75 C141.52 -273.52, 157.48 -284.62, 167.11 -291.71 C176.75 -298.81, 184.28 -302.24, 187.71 -304.34" stroke="#E1E1E1" stroke-width="2" fill="none"></path></g></g><mask></mask><g stroke-linecap="round"><g transform="translate(490.8312651330807 576.9548479904954) rotate(0 71.07858267556821 -163.68990362254772)"><path d="M0 0 C1.95 -8.82, 5.93 -30.95, 11.69 -52.93 C17.45 -74.9, 26.72 -107.12, 34.56 -131.86 C42.4 -156.6, 50.07 -179.75, 58.73 -201.39 C67.39 -223.03, 77.07 -244.84, 86.5 -261.69 C95.93 -278.54, 106.03 -291.54, 115.3 -302.49 C124.58 -313.44, 137.68 -323.23, 142.16 -327.38 M0 0 C1.95 -8.82, 5.93 -30.95, 11.69 -52.93 C17.45 -74.9, 26.72 -107.12, 34.56 -131.86 C42.4 -156.6, 50.07 -179.75, 58.73 -201.39 C67.39 -223.03, 77.07 -244.84, 86.5 -261.69 C95.93 -278.54, 106.03 -291.54, 115.3 -302.49 C124.58 -313.44, 137.68 -323.23, 142.16 -327.38" stroke="#E1E1E1" stroke-width="2" fill="none"></path></g></g><mask></mask><g stroke-linecap="round"><g transform="translate(476.04579946516697 579.3160300413056) rotate(0 47.70261611043361 -172.92256147371177)"><path d="M0 0 C1.89 -13.4, 5.95 -49.54, 11.36 -80.42 C16.78 -111.29, 25.26 -154.23, 32.5 -185.24 C39.74 -216.25, 47.5 -244.39, 54.83 -266.49 C62.16 -288.58, 69.73 -304.59, 76.5 -317.82 C83.26 -331.05, 92.25 -341.17, 95.41 -345.85 M0 0 C1.89 -13.4, 5.95 -49.54, 11.36 -80.42 C16.78 -111.29, 25.26 -154.23, 32.5 -185.24 C39.74 -216.25, 47.5 -244.39, 54.83 -266.49 C62.16 -288.58, 69.73 -304.59, 76.5 -317.82 C83.26 -331.05, 92.25 -341.17, 95.41 -345.85" stroke="#E1E1E1" stroke-width="2" fill="none"></path></g></g><mask></mask><g stroke-linecap="round"><g transform="translate(461.130845357985 577.6366442625822) rotate(0 21.035925484001837 -175.7263825771355)"><path d="M0 0 C0.62 -13.26, 1.73 -49.62, 3.75 -79.53 C5.77 -109.44, 8.73 -146.56, 12.14 -179.47 C15.55 -212.37, 20.52 -252.57, 24.21 -276.98 C27.89 -301.39, 31.28 -313.52, 34.26 -325.94 C37.24 -338.35, 40.77 -347.2, 42.07 -351.45 M0 0 C0.62 -13.26, 1.73 -49.62, 3.75 -79.53 C5.77 -109.44, 8.73 -146.56, 12.14 -179.47 C15.55 -212.37, 20.52 -252.57, 24.21 -276.98 C27.89 -301.39, 31.28 -313.52, 34.26 -325.94 C37.24 -338.35, 40.77 -347.2, 42.07 -351.45" stroke="#E1E1E1" stroke-width="2" fill="none"></path></g></g><mask></mask><g stroke-linecap="round"><g stroke-opacity="0.5" fill-opacity="0.5" transform="translate(11.443653349932902 207.03897048540216) rotate(0 217.13466266285468 -98.51948524270108)"><path d="M0 0 C72.38 -32.84, 361.89 -164.2, 434.27 -197.04 M0 0 C72.38 -32.84, 361.89 -164.2, 434.27 -197.04" stroke="#E1E1E1" stroke-width="2" fill="none"></path></g></g><mask></mask><g stroke-linecap="round"><g stroke-opacity="0.5" fill-opacity="0.5" transform="translate(445.85753174189904 10.382971759932616) rotate(0 217.6696967392313 98.37023889508055)"><path d="M0 0 C72.56 32.79, 362.78 163.95, 435.34 196.74 M0 0 C72.56 32.79, 362.78 163.95, 435.34 196.74" stroke="#E1E1E1" stroke-width="2" fill="none"></path></g></g><mask></mask><g stroke-linecap="round"><g stroke-opacity="0.5" fill-opacity="0.5" transform="translate(880.8308492733659 207.1328361128369) rotate(0 -12.093647438659673 254.26227293829675)"><path d="M0 0 C-4.03 84.75, -20.16 423.77, -24.19 508.52 M0 0 C-4.03 84.75, -20.16 423.77, -24.19 508.52" stroke="#E1E1E1" stroke-width="2" fill="none"></path></g></g><mask></mask><g stroke-linecap="round"><g stroke-opacity="0.5" fill-opacity="0.5" transform="translate(855.8119049369748 716.6241979520064) rotate(0 -204.94339497166197 122.55565645985348)"><path d="M0 0 C-68.31 40.85, -341.57 204.26, -409.89 245.11 M0 0 C-68.31 40.85, -341.57 204.26, -409.89 245.11" stroke="#E1E1E1" stroke-width="2" fill="none"></path></g></g><mask></mask><g stroke-linecap="round"><g stroke-opacity="0.5" fill-opacity="0.5" transform="translate(445.9251149936508 961.7355108717134) rotate(0 -205.82259470483496 -123.5223136513539)"><path d="M0 0 C-68.61 -41.17, -343.04 -205.87, -411.65 -247.04 M0 0 C-68.61 -41.17, -343.04 -205.87, -411.65 -247.04" stroke="#E1E1E1" stroke-width="2" fill="none"></path></g></g><mask></mask><g stroke-linecap="round"><g stroke-opacity="0.5" fill-opacity="0.5" transform="translate(34.328093318468746 713.3557968047362) rotate(0 -12.164046659234373 -252.96129534205454)"><path d="M0 0 C-4.05 -84.32, -20.27 -421.6, -24.33 -505.92 M0 0 C-4.05 -84.32, -20.27 -421.6, -24.33 -505.92" stroke="#E1E1E1" stroke-width="2" fill="none"></path></g></g><mask></mask><g stroke-linecap="round"><g stroke-opacity="0.5" fill-opacity="0.5" transform="translate(35.251833754048675 714.3732804329513) rotate(0 106.76692633209495 -55.392446529055405)"><path d="M0 0 C35.59 -18.46, 177.94 -92.32, 213.53 -110.78 M0 0 C35.59 -18.46, 177.94 -92.32, 213.53 -110.78" stroke="#E1E1E1" stroke-width="2" fill="none"></path></g></g><mask></mask><g stroke-linecap="round"><g stroke-opacity="0.5" fill-opacity="0.5" transform="translate(632.3275241147121 599.0030496702557) rotate(0 112.2117468716649 58.556072070495475)"><path d="M0 0 C37.4 19.52, 187.02 97.59, 224.42 117.11 M0 0 C37.4 19.52, 187.02 97.59, 224.42 117.11" stroke="#E1E1E1" stroke-width="2" fill="none"></path></g></g><mask></mask><g stroke-linecap="round"><g stroke-opacity="0.5" fill-opacity="0.5" transform="translate(783.770626425282 677.4069557808396) rotate(0 3.941757053514266 -91.27663718744475)"><path d="M0 0 C1.31 -30.43, 6.57 -152.13, 7.88 -182.55 M0 0 C1.31 -30.43, 6.57 -152.13, 7.88 -182.55" stroke="#E1E1E1" stroke-width="2" fill="none"></path></g></g><mask></mask><g stroke-linecap="round"><g stroke-opacity="0.5" fill-opacity="0.5" transform="translate(716.1304429167722 561.7098013513662) rotate(0 -1.1742576956621633 39.57744599605394)"><path d="M0 0 C-0.39 13.19, -1.96 65.96, -2.35 79.15 M0 0 C-0.39 13.19, -1.96 65.96, -2.35 79.15" stroke="#E1E1E1" stroke-width="2" fill="none"></path></g></g><mask></mask><g stroke-linecap="round"><g stroke-opacity="0.5" fill-opacity="0.5" transform="translate(713.7819275254478 640.8646933434741) rotate(0 -204.85927019520386 117.94459912711773)"><path d="M0 0 C-68.29 39.31, -341.43 196.57, -409.72 235.89 M0 0 C-68.29 39.31, -341.43 196.57, -409.72 235.89" stroke="#E1E1E1" stroke-width="2" fill="none"></path></g></g><mask></mask><g stroke-linecap="round"><g stroke-opacity="0.5" fill-opacity="0.5" transform="translate(375.6606414385278 918.3999177910778) rotate(0 204.1015462674336 -120.01685462238402)"><path d="M0 0 C68.03 -40.01, 340.17 -200.03, 408.2 -240.03 M0 0 C68.03 -40.01, 340.17 -200.03, 408.2 -240.03" stroke="#E1E1E1" stroke-width="2" fill="none"></path></g></g><mask></mask><g stroke-linecap="round"><g stroke-opacity="0.5" fill-opacity="0.5" transform="translate(789.5163422235605 755.7140790453534) rotate(0 -123.905932405253 -67.25427722354937)"><path d="M0 0 C-41.3 -22.42, -206.51 -112.09, -247.81 -134.51 M0 0 C-41.3 -22.42, -206.51 -112.09, -247.81 -134.51" stroke="#E1E1E1" stroke-width="2" fill="none"></path></g></g><mask></mask><g stroke-linecap="round"><g stroke-opacity="0.5" fill-opacity="0.5" transform="translate(722.7974334016853 794.8841795183946) rotate(0 -108.74839110156881 -61.05159937989981)"><path d="M0 0 C-36.25 -20.35, -181.25 -101.75, -217.5 -122.1 M0 0 C-36.25 -20.35, -181.25 -101.75, -217.5 -122.1" stroke="#E1E1E1" stroke-width="2" fill="none"></path></g></g><mask></mask><g stroke-linecap="round"><g stroke-opacity="0.5" fill-opacity="0.5" transform="translate(643.925858308935 606.2706577777233) rotate(0 -70.91671163271212 38.83503580975105)"><path d="M0 0 C-23.64 12.95, -118.19 64.73, -141.83 77.67 M0 0 C-23.64 12.95, -118.19 64.73, -141.83 77.67" stroke="#E1E1E1" stroke-width="2" fill="none"></path></g></g><mask></mask><g stroke-linecap="round"><g stroke-opacity="0.5" fill-opacity="0.5" transform="translate(411.8513003718117 735.7155577892331) rotate(0 -88.12935704122037 49.595695663532524)"><path d="M0 0 C-29.38 16.53, -146.88 82.66, -176.26 99.19 M0 0 C-29.38 16.53, -146.88 82.66, -176.26 99.19" stroke="#E1E1E1" stroke-width="2" fill="none"></path></g></g><mask></mask><g stroke-linecap="round"><g stroke-opacity="0.5" fill-opacity="0.5" transform="translate(168.1729206579812 795.2027053408997) rotate(0 111.35233970055697 -61.84668883684799)"><path d="M0 0 C37.12 -20.62, 185.59 -103.08, 222.7 -123.69 M0 0 C37.12 -20.62, 185.59 -103.08, 222.7 -123.69" stroke="#E1E1E1" stroke-width="2" fill="none"></path></g></g><mask></mask><g stroke-linecap="round"><g stroke-opacity="0.5" fill-opacity="0.5" transform="translate(588.7054127224746 875.9673778359813) rotate(0 -205.1845340639552 -117.91519674350172)"><path d="M0 0 C-68.39 -39.31, -341.97 -196.53, -410.37 -235.83 M0 0 C-68.39 -39.31, -341.97 -196.53, -410.37 -235.83" stroke="#E1E1E1" stroke-width="2" fill="none"></path></g></g><mask></mask><g stroke-linecap="round"><g stroke-opacity="0.5" fill-opacity="0.5" transform="translate(106.08488725562074 677.8933202098194) rotate(0 205.20291055371626 120.6416552742229)"><path d="M0 0 C68.4 40.21, 342 201.07, 410.41 241.28 M0 0 C68.4 40.21, 342 201.07, 410.41 241.28" stroke="#E1E1E1" stroke-width="2" fill="none"></path></g></g><mask></mask><g stroke-linecap="round"><g stroke-opacity="0.5" fill-opacity="0.5" transform="translate(656.7731558927371 834.4781643552308) rotate(0 -84.73583193221202 -47.125895439792316)"><path d="M0 0 C-28.25 -15.71, -141.23 -78.54, -169.47 -94.25 M0 0 C-28.25 -15.71, -141.23 -78.54, -169.47 -94.25" stroke="#E1E1E1" stroke-width="2" fill="none"></path></g></g><mask></mask><g stroke-linecap="round"><g stroke-opacity="0.5" fill-opacity="0.5" transform="translate(400.4750281110728 691.4784465397056) rotate(0 -76.72368239686284 -43.54064228762172)"><path d="M0 0 C-25.57 -14.51, -127.87 -72.57, -153.45 -87.08 M0 0 C-25.57 -14.51, -127.87 -72.57, -153.45 -87.08" stroke="#E1E1E1" stroke-width="2" fill="none"></path></g></g><mask></mask><g stroke-linecap="round"><g stroke-opacity="0.5" fill-opacity="0.5" transform="translate(101.22859356171557 754.7425752867036) rotate(0 123.09185390888615 -66.02672770758318)"><path d="M0 0 C41.03 -22.01, 205.15 -110.04, 246.18 -132.05 M0 0 C41.03 -22.01, 205.15 -110.04, 246.18 -132.05" stroke="#E1E1E1" stroke-width="2" fill="none"></path></g></g><mask></mask><g stroke-linecap="round"><g stroke-opacity="0.5" fill-opacity="0.5" transform="translate(859.8394932370229 634.8598436751113) rotate(0 -71.42819059769818 -36.39586306894398)"><path d="M0 0 C-23.81 -12.13, -119.05 -60.66, -142.86 -72.79 M0 0 C-23.81 -12.13, -119.05 -60.66, -142.86 -72.79" stroke="#E1E1E1" stroke-width="2" fill="none"></path></g></g><mask></mask><g stroke-linecap="round"><g stroke-opacity="0.5" fill-opacity="0.5" transform="translate(864.4899702456119 552.1552517754908) rotate(0 -42.090737245559694 -20.503874724519278)"><path d="M0 0 C-14.03 -6.83, -70.15 -34.17, -84.18 -41.01 M0 0 C-14.03 -6.83, -70.15 -34.17, -84.18 -41.01" stroke="#E1E1E1" stroke-width="2" fill="none"></path></g></g><mask></mask><g stroke-linecap="round"><g stroke-opacity="0.5" fill-opacity="0.5" transform="translate(867.3787544358779 467.6001219925854) rotate(0 -25.1929423616059 -11.790968379657443)"><path d="M0 0 C-8.4 -3.93, -41.99 -19.65, -50.39 -23.58 M0 0 C-8.4 -3.93, -41.99 -19.65, -50.39 -23.58" stroke="#E1E1E1" stroke-width="2" fill="none"></path></g></g><mask></mask><g stroke-linecap="round"><g stroke-opacity="0.5" fill-opacity="0.5" transform="translate(872.0243310471974 381.85052037528203) rotate(0 -37.413920601646396 -16.908208228151125)"><path d="M0 0 C-12.47 -5.64, -62.36 -28.18, -74.83 -33.82 M0 0 C-12.47 -5.64, -62.36 -28.18, -74.83 -33.82" stroke="#E1E1E1" stroke-width="2" fill="none"></path></g></g><mask></mask><g stroke-linecap="round"><g stroke-opacity="0.5" fill-opacity="0.5" transform="translate(804.8408738401158 173.01183437403552) rotate(0 -3.7979666876967713 87.27071040747057)"><path d="M0 0 C-1.27 29.09, -6.33 145.45, -7.6 174.54 M0 0 C-1.27 29.09, -6.33 145.45, -7.6 174.54" stroke="#E1E1E1" stroke-width="2" fill="none"></path></g></g><mask></mask><g stroke-linecap="round"><g stroke-opacity="0.5" fill-opacity="0.5" transform="translate(875.3952392443161 295.4375172435325) rotate(0 -214.41660631244667 -99.51378265417281)"><path d="M0 0 C-71.47 -33.17, -357.36 -165.86, -428.83 -199.03 M0 0 C-71.47 -33.17, -357.36 -165.86, -428.83 -199.03" stroke="#E1E1E1" stroke-width="2" fill="none"></path></g></g><mask></mask><g stroke-linecap="round"><g stroke-opacity="0.5" fill-opacity="0.5" transform="translate(728.899178677545 139.3725208688188) rotate(0 -1.7241723045653998 72.94502448196158)"><path d="M0 0 C-0.57 24.32, -2.87 121.58, -3.45 145.89 M0 0 C-0.57 24.32, -2.87 121.58, -3.45 145.89" stroke="#E1E1E1" stroke-width="2" fill="none"></path></g></g><mask></mask><g stroke-linecap="round"><g stroke-opacity="0.5" fill-opacity="0.5" transform="translate(652.9432645122961 255.0750205253196) rotate(0 1.1093414060428586 -74.89471877594394)"><path d="M0 0 C0.37 -24.96, 1.85 -124.82, 2.22 -149.79 M0 0 C0.37 -24.96, 1.85 -124.82, 2.22 -149.79" stroke="#E1E1E1" stroke-width="2" fill="none"></path></g></g><mask></mask><g stroke-linecap="round"><g stroke-opacity="0.5" fill-opacity="0.5" transform="translate(581.4418148821433 234.5541394972347) rotate(0 0.7275918932309651 -80.82380526866132)"><path d="M0 0 C0.24 -26.94, 1.21 -134.71, 1.46 -161.65 M0 0 C0.24 -26.94, 1.21 -134.71, 1.46 -161.65" stroke="#E1E1E1" stroke-width="2" fill="none"></path></g></g><mask></mask><g stroke-linecap="round"><g stroke-opacity="0.5" fill-opacity="0.5" transform="translate(515.2416617428853 42.527835055873766) rotate(0 -0.9115372030346407 92.06147780835408)"><path d="M0 0 C-0.3 30.69, -1.52 153.44, -1.82 184.12 M0 0 C-0.3 30.69, -1.52 153.44, -1.82 184.12" stroke="#E1E1E1" stroke-width="2" fill="none"></path></g></g><mask></mask><g stroke-linecap="round"><g stroke-opacity="0.5" fill-opacity="0.5" transform="translate(554.20153033921 231.83779642917307) rotate(0 -53.943851949042255 -25.76620226573857)"><path d="M0 0 C-17.98 -8.59, -89.91 -42.94, -107.89 -51.53 M0 0 C-17.98 -8.59, -89.91 -42.94, -107.89 -51.53" stroke="#E1E1E1" stroke-width="2" fill="none"></path></g></g><mask></mask><g stroke-linecap="round"><g stroke-opacity="0.5" fill-opacity="0.5" transform="translate(445.71159453642576 224.1965066760215) rotate(0 0.02393808826127497 -106.61394562266184)"><path d="M0 0 C0.01 -35.54, 0.04 -177.69, 0.05 -213.23 M0 0 C0.01 -35.54, 0.04 -177.69, 0.05 -213.23" stroke="#E1E1E1" stroke-width="2" fill="none"></path></g></g><mask></mask><g stroke-linecap="round"><g stroke-opacity="0.5" fill-opacity="0.5" transform="translate(377.65938930530046 41.09154976014452) rotate(0 0.14488842895480047 92.68323815347856)"><path d="M0 0 C0.05 30.89, 0.24 154.47, 0.29 185.37 M0 0 C0.05 30.89, 0.24 154.47, 0.29 185.37" stroke="#E1E1E1" stroke-width="2" fill="none"></path></g></g><mask></mask><g stroke-linecap="round"><g stroke-opacity="0.5" fill-opacity="0.5" transform="translate(445.23535256994 179.89592459847427) rotate(0 -56.76728646459242 27.311468858028775)"><path d="M0 0 C-18.92 9.1, -94.61 45.52, -113.53 54.62 M0 0 C-18.92 9.1, -94.61 45.52, -113.53 54.62" stroke="#E1E1E1" stroke-width="2" fill="none"></path></g></g><mask></mask><g stroke-linecap="round"><g stroke-opacity="0.5" fill-opacity="0.5" transform="translate(309.4160394775645 238.7206267542283) rotate(0 -1.0381570909476068 -82.57191566148867)"><path d="M0 0 C-0.35 -27.52, -1.73 -137.62, -2.08 -165.14 M0 0 C-0.35 -27.52, -1.73 -137.62, -2.08 -165.14" stroke="#E1E1E1" stroke-width="2" fill="none"></path></g></g><mask></mask><g stroke-linecap="round"><g stroke-opacity="0.5" fill-opacity="0.5" transform="translate(444.9140782274735 96.39861284074618) rotate(0 -214.93379500884703 99.60512535938403)"><path d="M0 0 C-71.64 33.2, -358.22 166.01, -429.87 199.21 M0 0 C-71.64 33.2, -358.22 166.01, -429.87 199.21" stroke="#E1E1E1" stroke-width="2" fill="none"></path></g></g><mask></mask><g stroke-linecap="round"><g stroke-opacity="0.5" fill-opacity="0.5" transform="translate(87.8472542124764 172.24581554964834) rotate(0 2.9015482772470023 91.91910917816358)"><path d="M0 0 C0.97 30.64, 4.84 153.2, 5.8 183.84 M0 0 C0.97 30.64, 4.84 153.2, 5.8 183.84" stroke="#E1E1E1" stroke-width="2" fill="none"></path></g></g><mask></mask><g stroke-linecap="round"><g stroke-opacity="0.5" fill-opacity="0.5" transform="translate(167.67195927103785 291.45245549757874) rotate(0 -2.6212206647041967 -76.07461454739087)"><path d="M0 0 C-0.87 -25.36, -4.37 -126.79, -5.24 -152.15 M0 0 C-0.87 -25.36, -4.37 -126.79, -5.24 -152.15" stroke="#E1E1E1" stroke-width="2" fill="none"></path></g></g><mask></mask><g stroke-linecap="round"><g stroke-opacity="0.5" fill-opacity="0.5" transform="translate(238.29309934249613 258.60057910624687) rotate(0 -1.0885530662362726 -76.85134251652823)"><path d="M0 0 C-0.36 -25.62, -1.81 -128.09, -2.18 -153.7 M0 0 C-0.36 -25.62, -1.81 -128.09, -2.18 -153.7" stroke="#E1E1E1" stroke-width="2" fill="none"></path></g></g><mask></mask><g stroke-linecap="round"><g stroke-opacity="0.5" fill-opacity="0.5" transform="translate(645.3149338624489 594.6245636394347) rotate(0 -0.3370230847435778 5.3577221228816825)"><path d="M0 0 C-0.11 1.79, -0.56 8.93, -0.67 10.72 M0 0 C-0.11 1.79, -0.56 8.93, -0.67 10.72" stroke="#E1E1E1" stroke-width="2" fill="none"></path></g></g><mask></mask><g stroke-linecap="round"><g stroke-opacity="0.5" fill-opacity="0.5" transform="translate(177.187979304932 574.2255327419455) rotate(0 0.3174946443191402 32.64021329511945)"><path d="M0 0 C0.11 10.88, 0.53 54.4, 0.63 65.28 M0 0 C0.11 10.88, 0.53 54.4, 0.63 65.28" stroke="#E1E1E1" stroke-width="2" fill="none"></path></g></g><mask></mask><g stroke-linecap="round"><g stroke-opacity="0.5" fill-opacity="0.5" transform="translate(106.5983367180279 677.368455566598) rotate(0 -2.2930168756365674 -78.6315803436022)"><path d="M0 0 C-0.76 -26.21, -3.82 -131.05, -4.59 -157.26 M0 0 C-0.76 -26.21, -3.82 -131.05, -4.59 -157.26" stroke="#E1E1E1" stroke-width="2" fill="none"></path></g></g><mask></mask><g stroke-linecap="round"><g stroke-opacity="0.5" fill-opacity="0.5" transform="translate(30.860745255380607 635.8610704194284) rotate(0 66.20519273678701 -34.332258165438134)"><path d="M0 0 C22.07 -11.44, 110.34 -57.22, 132.41 -68.66 M0 0 C22.07 -11.44, 110.34 -57.22, 132.41 -68.66" stroke="#E1E1E1" stroke-width="2" fill="none"></path></g></g><mask></mask><g stroke-linecap="round"><g stroke-opacity="0.5" fill-opacity="0.5" transform="translate(27.082307008110547 552.9193742892587) rotate(0 36.04509137556306 -18.116093216911395)"><path d="M0 0 C12.02 -6.04, 60.08 -30.19, 72.09 -36.23 M0 0 C12.02 -6.04, 60.08 -30.19, 72.09 -36.23" stroke="#E1E1E1" stroke-width="2" fill="none"></path></g></g><mask></mask><g stroke-linecap="round"><g stroke-opacity="0.5" fill-opacity="0.5" transform="translate(23.261032181842893 469.4208026321485) rotate(0 21.50207280662198 -10.848993580278488)"><path d="M0 0 C7.17 -3.62, 35.84 -18.08, 43 -21.7 M0 0 C7.17 -3.62, 35.84 -18.08, 43 -21.7" stroke="#E1E1E1" stroke-width="2" fill="none"></path></g></g><mask></mask><g stroke-linecap="round"><g stroke-opacity="0.5" fill-opacity="0.5" transform="translate(19.438497456193545 382.57089861833856) rotate(0 36.778352816014376 -17.77025083649255)"><path d="M0 0 C12.26 -5.92, 61.3 -29.62, 73.56 -35.54 M0 0 C12.26 -5.92, 61.3 -29.62, 73.56 -35.54" stroke="#E1E1E1" stroke-width="2" fill="none"></path></g></g><mask></mask></svg>