<svg version="1.1" xmlns="http://www.w3.org/2000/svg" viewBox="0 0 264.5613536229357 298.8729206900607" width="264.5613536229357" height="298.8729206900607" class="excalidraw-svg"><!-- svg-source:excalidraw --><metadata></metadata><defs><style class="style-fonts">
      </style></defs><rect x="0" y="0" width="264.5613536229357" height="298.8729206900607" fill="#000000"></rect><g stroke-linecap="round"><g transform="translate(119.41153099348958 21.888486748111973) rotate(0 -46.87371803903579 85.28671394349567)"><path d="M0 0 C0.97 -0.52, 4.31 -2.31, 5.79 -3.11 C7.28 -3.91, 8.18 -4.45, 8.9 -4.78 C9.62 -5.12, 9.84 -5.17, 10.09 -5.12 C10.34 -5.06, 10.37 -5.02, 10.43 -4.44 C10.48 -3.86, 10.44 -2.6, 10.44 -1.65 C10.44 -0.69, 10.53 0.69, 10.44 1.28 C10.35 1.87, 10.14 1.81, 9.89 1.88 C9.65 1.95, 9.43 1.78, 8.96 1.7 C8.5 1.61, 8 1.44, 7.11 1.39 C6.23 1.34, 4.98 1.2, 3.67 1.41 C2.36 1.62, 0.7 2.06, -0.72 2.67 C-2.14 3.27, -3.63 4.24, -4.82 5.06 C-6.02 5.88, -6.62 6.4, -7.87 7.58 C-9.13 8.76, -10.97 10.51, -12.34 12.14 C-13.7 13.76, -14.93 15.42, -16.06 17.34 C-17.19 19.26, -18.14 21.36, -19.12 23.66 C-20.09 25.95, -21.18 28.6, -21.91 31.12 C-22.65 33.64, -23.21 36.39, -23.55 38.79 C-23.88 41.19, -23.96 43.16, -23.91 45.53 C-23.87 47.91, -23.67 50.83, -23.28 53.03 C-22.9 55.24, -22.33 57, -21.61 58.75 C-20.9 60.51, -20.07 62.13, -18.97 63.55 C-17.86 64.97, -16.32 66.37, -14.99 67.29 C-13.66 68.2, -12.29 68.66, -10.99 69.02 C-9.69 69.39, -8.67 69.53, -7.18 69.48 C-5.69 69.42, -3.84 69.31, -2.06 68.71 C-0.27 68.11, 2.21 66.63, 3.52 65.87 C4.83 65.11, 5 64.73, 5.81 64.15 C6.62 63.57, 8.02 62.48, 8.36 62.37 C8.7 62.26, 8.27 62.67, 7.85 63.47 C7.43 64.26, 6.88 65.2, 5.85 67.16 C4.81 69.13, 3.18 72.34, 1.64 75.24 C0.1 78.15, -1.59 81.26, -3.38 84.59 C-5.18 87.92, -7.33 91.88, -9.12 95.24 C-10.91 98.6, -13.17 102.93, -14.12 104.75 C-15.06 106.56, -14.57 105.78, -14.77 106.15 C-14.98 106.53, -15.13 106.87, -15.35 106.98 C-15.57 107.09, -15.52 107.13, -16.1 106.84 C-16.68 106.54, -17.36 106.1, -18.81 105.22 C-20.25 104.34, -22.58 102.88, -24.78 101.56 C-26.98 100.24, -30.15 98.44, -32.02 97.29 C-33.9 96.15, -35.07 95.14, -36.02 94.69 C-36.97 94.24, -37.24 94.44, -37.72 94.58 C-38.2 94.72, -38.47 95.08, -38.91 95.53 C-39.35 95.97, -39.37 96.06, -40.36 97.27 C-41.35 98.48, -43.09 100.59, -44.85 102.77 C-46.61 104.95, -48.78 107.71, -50.94 110.36 C-53.1 113.01, -56.02 116.48, -57.8 118.68 C-59.58 120.89, -59.86 121.37, -61.63 123.58 C-63.39 125.79, -65.95 128.97, -68.4 131.95 C-70.85 134.94, -73.67 138.22, -76.33 141.51 C-78.99 144.8, -81.45 148.03, -84.38 151.68 C-87.32 155.33, -91.28 160.14, -93.91 163.4 C-96.55 166.66, -98.61 169.33, -100.19 171.26 C-101.76 173.2, -102.71 174.3, -103.36 175.04 C-104.02 175.77, -103.99 175.86, -104.12 175.69 C-104.25 175.52, -104.14 175.32, -104.14 174.04 C-104.14 172.76, -104.14 171.16, -104.14 168.03 C-104.14 164.91, -104.14 160.33, -104.14 155.29 C-104.14 150.26, -104.14 143.83, -104.14 137.81 C-104.14 131.79, -104.14 126.09, -104.14 119.19 C-104.14 112.3, -104.14 105.12, -104.14 96.46 C-104.14 87.79, -104.14 73.54, -104.14 67.19 C-104.14 60.84, -104.13 60.4, -104.14 58.34 C-104.15 56.28, -104.33 55.59, -104.19 54.85 C-104.05 54.1, -103.89 54.26, -103.31 53.87 C-102.73 53.49, -102.28 53.33, -100.69 52.52 C-99.09 51.71, -98.21 51.34, -93.75 49.04 C-89.29 46.73, -79.92 41.81, -73.91 38.67 C-67.91 35.53, -63.55 33.24, -57.74 30.2 C-51.93 27.15, -47.35 24.77, -39.07 20.43 C-30.79 16.09, -14.57 7.58, -8.06 4.17 C-1.55 0.77, -1.34 0.7, 0 0 M0 0 C0.97 -0.52, 4.31 -2.31, 5.79 -3.11 C7.28 -3.91, 8.18 -4.45, 8.9 -4.78 C9.62 -5.12, 9.84 -5.17, 10.09 -5.12 C10.34 -5.06, 10.37 -5.02, 10.43 -4.44 C10.48 -3.86, 10.44 -2.6, 10.44 -1.65 C10.44 -0.69, 10.53 0.69, 10.44 1.28 C10.35 1.87, 10.14 1.81, 9.89 1.88 C9.65 1.95, 9.43 1.78, 8.96 1.7 C8.5 1.61, 8 1.44, 7.11 1.39 C6.23 1.34, 4.98 1.2, 3.67 1.41 C2.36 1.62, 0.7 2.06, -0.72 2.67 C-2.14 3.27, -3.63 4.24, -4.82 5.06 C-6.02 5.88, -6.62 6.4, -7.87 7.58 C-9.13 8.76, -10.97 10.51, -12.34 12.14 C-13.7 13.76, -14.93 15.42, -16.06 17.34 C-17.19 19.26, -18.14 21.36, -19.12 23.66 C-20.09 25.95, -21.18 28.6, -21.91 31.12 C-22.65 33.64, -23.21 36.39, -23.55 38.79 C-23.88 41.19, -23.96 43.16, -23.91 45.53 C-23.87 47.91, -23.67 50.83, -23.28 53.03 C-22.9 55.24, -22.33 57, -21.61 58.75 C-20.9 60.51, -20.07 62.13, -18.97 63.55 C-17.86 64.97, -16.32 66.37, -14.99 67.29 C-13.66 68.2, -12.29 68.66, -10.99 69.02 C-9.69 69.39, -8.67 69.53, -7.18 69.48 C-5.69 69.42, -3.84 69.31, -2.06 68.71 C-0.27 68.11, 2.21 66.63, 3.52 65.87 C4.83 65.11, 5 64.73, 5.81 64.15 C6.62 63.57, 8.02 62.48, 8.36 62.37 C8.7 62.26, 8.27 62.67, 7.85 63.47 C7.43 64.26, 6.88 65.2, 5.85 67.16 C4.81 69.13, 3.18 72.34, 1.64 75.24 C0.1 78.15, -1.59 81.26, -3.38 84.59 C-5.18 87.92, -7.33 91.88, -9.12 95.24 C-10.91 98.6, -13.17 102.93, -14.12 104.75 C-15.06 106.56, -14.57 105.78, -14.77 106.15 C-14.98 106.53, -15.13 106.87, -15.35 106.98 C-15.57 107.09, -15.52 107.13, -16.1 106.84 C-16.68 106.54, -17.36 106.1, -18.81 105.22 C-20.25 104.34, -22.58 102.88, -24.78 101.56 C-26.98 100.24, -30.15 98.44, -32.02 97.29 C-33.9 96.15, -35.07 95.14, -36.02 94.69 C-36.97 94.24, -37.24 94.44, -37.72 94.58 C-38.2 94.72, -38.47 95.08, -38.91 95.53 C-39.35 95.97, -39.37 96.06, -40.36 97.27 C-41.35 98.48, -43.09 100.59, -44.85 102.77 C-46.61 104.95, -48.78 107.71, -50.94 110.36 C-53.1 113.01, -56.02 116.48, -57.8 118.68 C-59.58 120.89, -59.86 121.37, -61.63 123.58 C-63.39 125.79, -65.95 128.97, -68.4 131.95 C-70.85 134.94, -73.67 138.22, -76.33 141.51 C-78.99 144.8, -81.45 148.03, -84.38 151.68 C-87.32 155.33, -91.28 160.14, -93.91 163.4 C-96.55 166.66, -98.61 169.33, -100.19 171.26 C-101.76 173.2, -102.71 174.3, -103.36 175.04 C-104.02 175.77, -103.99 175.86, -104.12 175.69 C-104.25 175.52, -104.14 175.32, -104.14 174.04 C-104.14 172.76, -104.14 171.16, -104.14 168.03 C-104.14 164.91, -104.14 160.33, -104.14 155.29 C-104.14 150.26, -104.14 143.83, -104.14 137.81 C-104.14 131.79, -104.14 126.09, -104.14 119.19 C-104.14 112.3, -104.14 105.12, -104.14 96.46 C-104.14 87.79, -104.14 73.54, -104.14 67.19 C-104.14 60.84, -104.13 60.4, -104.14 58.34 C-104.15 56.28, -104.33 55.59, -104.19 54.85 C-104.05 54.1, -103.89 54.26, -103.31 53.87 C-102.73 53.49, -102.28 53.33, -100.69 52.52 C-99.09 51.71, -98.21 51.34, -93.75 49.04 C-89.29 46.73, -79.92 41.81, -73.91 38.67 C-67.91 35.53, -63.55 33.24, -57.74 30.2 C-51.93 27.15, -47.35 24.77, -39.07 20.43 C-30.79 16.09, -14.57 7.58, -8.06 4.17 C-1.55 0.77, -1.34 0.7, 0 0" stroke="#E1E1E1" stroke-width="2" fill="none"></path></g></g><mask></mask><g stroke-linecap="round"><g transform="translate(129.83491896679152 45.343872233661386) rotate(0 -14.81534387765987 12.014683948989841)"><path d="M0 0 C0 3.24, 0 15.59, 0 19.42 C0 23.26, 0 21.8, 0 23.02 C0 24.24, -0.02 25.92, -0.03 26.77 C-0.03 27.61, 0.07 27.64, -0.04 28.07 C-0.14 28.5, -0.19 28.65, -0.67 29.36 C-1.15 30.06, -2.05 31.26, -2.92 32.29 C-3.78 33.31, -4.67 34.43, -5.83 35.5 C-6.99 36.56, -8.58 37.79, -9.88 38.67 C-11.19 39.55, -12.48 40.3, -13.66 40.77 C-14.84 41.23, -15.75 41.48, -16.96 41.47 C-18.16 41.45, -19.68 41.12, -20.88 40.68 C-22.07 40.23, -23.11 39.8, -24.15 38.8 C-25.19 37.8, -26.32 36.32, -27.12 34.7 C-27.91 33.08, -28.5 31.06, -28.92 29.06 C-29.34 27.05, -29.57 24.89, -29.63 22.67 C-29.69 20.46, -29.68 18.34, -29.27 15.77 C-28.86 13.19, -28.13 10.11, -27.16 7.23 C-26.19 4.35, -24.69 0.93, -23.43 -1.52 C-22.18 -3.98, -21.11 -5.57, -19.65 -7.49 C-18.19 -9.4, -16.42 -11.49, -14.68 -13 C-12.95 -14.5, -10.85 -15.76, -9.24 -16.5 C-7.62 -17.24, -6.2 -17.34, -4.97 -17.44 C-3.75 -17.53, -2.65 -17.24, -1.87 -17.06 C-1.09 -16.87, -0.61 -16.86, -0.31 -16.34 C-0.02 -15.82, -0.14 -16.67, -0.09 -13.95 C-0.04 -11.23, -0.02 -2.32, 0 0 M0 0 C0 3.24, 0 15.59, 0 19.42 C0 23.26, 0 21.8, 0 23.02 C0 24.24, -0.02 25.92, -0.03 26.77 C-0.03 27.61, 0.07 27.64, -0.04 28.07 C-0.14 28.5, -0.19 28.65, -0.67 29.36 C-1.15 30.06, -2.05 31.26, -2.92 32.29 C-3.78 33.31, -4.67 34.43, -5.83 35.5 C-6.99 36.56, -8.58 37.79, -9.88 38.67 C-11.19 39.55, -12.48 40.3, -13.66 40.77 C-14.84 41.23, -15.75 41.48, -16.96 41.47 C-18.16 41.45, -19.68 41.12, -20.88 40.68 C-22.07 40.23, -23.11 39.8, -24.15 38.8 C-25.19 37.8, -26.32 36.32, -27.12 34.7 C-27.91 33.08, -28.5 31.06, -28.92 29.06 C-29.34 27.05, -29.57 24.89, -29.63 22.67 C-29.69 20.46, -29.68 18.34, -29.27 15.77 C-28.86 13.19, -28.13 10.11, -27.16 7.23 C-26.19 4.35, -24.69 0.93, -23.43 -1.52 C-22.18 -3.98, -21.11 -5.57, -19.65 -7.49 C-18.19 -9.4, -16.42 -11.49, -14.68 -13 C-12.95 -14.5, -10.85 -15.76, -9.24 -16.5 C-7.62 -17.24, -6.2 -17.34, -4.97 -17.44 C-3.75 -17.53, -2.65 -17.24, -1.87 -17.06 C-1.09 -16.87, -0.61 -16.86, -0.31 -16.34 C-0.02 -15.82, -0.14 -16.67, -0.09 -13.95 C-0.04 -11.23, -0.02 -2.32, 0 0" stroke="#E1E1E1" stroke-width="2" fill="none"></path></g></g><mask></mask><g stroke-linecap="round"><g transform="translate(135.0779897852699 45.17494976791022) rotate(0 1.3820839837139829 8.143298867204521)"><path d="M0 0 C0 2.47, 0 11.54, 0 14.8 C0 18.07, -0.07 18.55, 0 19.6 C0.07 20.65, 0.23 21.04, 0.42 21.12 C0.62 21.19, 0.87 20.74, 1.16 20.06 C1.44 19.39, 1.88 18.17, 2.14 17.05 C2.41 15.93, 2.7 14.93, 2.77 13.36 C2.83 11.79, 2.69 9.62, 2.52 7.62 C2.35 5.63, 2.02 3.21, 1.75 1.38 C1.47 -0.44, 1.1 -2.29, 0.87 -3.33 C0.64 -4.36, 0.54 -4.87, 0.4 -4.83 C0.25 -4.79, 0.06 -3.9, 0 -3.09 C-0.07 -2.29, 0 -0.52, 0 0 M0 0 C0 2.47, 0 11.54, 0 14.8 C0 18.07, -0.07 18.55, 0 19.6 C0.07 20.65, 0.23 21.04, 0.42 21.12 C0.62 21.19, 0.87 20.74, 1.16 20.06 C1.44 19.39, 1.88 18.17, 2.14 17.05 C2.41 15.93, 2.7 14.93, 2.77 13.36 C2.83 11.79, 2.69 9.62, 2.52 7.62 C2.35 5.63, 2.02 3.21, 1.75 1.38 C1.47 -0.44, 1.1 -2.29, 0.87 -3.33 C0.64 -4.36, 0.54 -4.87, 0.4 -4.83 C0.25 -4.79, 0.06 -3.9, 0 -3.09 C-0.07 -2.29, 0 -0.52, 0 0" stroke="#E1E1E1" stroke-width="2" fill="none"></path></g></g><mask></mask><g stroke-linecap="round"><g transform="translate(135.2078451177049 74.8927846017823) rotate(0 57.04349941651253 10.802823050743882)"><path d="M0 0 C0.5 -0.67, 2 -2.38, 3 -4.02 C3.99 -5.66, 5.25 -7.87, 5.97 -9.84 C6.69 -11.81, 7.13 -13.7, 7.34 -15.84 C7.56 -17.98, 7.5 -20.05, 7.26 -22.69 C7.03 -25.33, 6.53 -28.87, 5.92 -31.68 C5.32 -34.49, 4.43 -37.37, 3.65 -39.55 C2.87 -41.74, 1.88 -43.34, 1.25 -44.78 C0.63 -46.22, 0.16 -47.13, -0.11 -48.2 C-0.39 -49.26, -0.36 -50.09, -0.41 -51.17 C-0.46 -52.24, -0.41 -53.55, -0.41 -54.63 C-0.41 -55.71, -0.6 -57.07, -0.41 -57.63 C-0.22 -58.18, 0.25 -58.04, 0.72 -57.96 C1.18 -57.88, 0.47 -58.16, 2.38 -57.15 C4.29 -56.15, 8.03 -54.12, 12.19 -51.93 C16.34 -49.73, 21.32 -47.12, 27.33 -43.98 C33.34 -40.84, 41.46 -36.64, 48.23 -33.1 C55.01 -29.55, 59.6 -27.08, 67.98 -22.7 C76.36 -18.32, 92.14 -10.09, 98.5 -6.82 C104.86 -3.55, 103.95 -4.15, 106.15 -3.05 C108.34 -1.95, 110.34 -0.95, 111.67 -0.21 C113 0.53, 113.64 0.9, 114.11 1.4 C114.58 1.9, 114.42 1.83, 114.49 2.78 C114.55 3.72, 114.49 5.09, 114.5 7.06 C114.5 9.02, 114.5 11.3, 114.5 14.55 C114.5 17.79, 114.5 21.12, 114.5 26.53 C114.5 31.94, 114.5 40.93, 114.5 46.99 C114.5 53.05, 114.5 59.33, 114.5 62.88 C114.5 66.44, 114.52 66.59, 114.5 68.33 C114.48 70.07, 114.53 72.3, 114.38 73.31 C114.22 74.32, 113.97 74.14, 113.57 74.38 C113.16 74.62, 113.77 74.47, 111.94 74.76 C110.11 75.06, 106.39 75.57, 102.59 76.14 C98.78 76.71, 92.52 77.66, 89.11 78.18 C85.7 78.71, 83.61 79.06, 82.13 79.29 C80.66 79.52, 80.74 79.57, 80.26 79.57 C79.78 79.56, 79.7 79.84, 79.24 79.25 C78.79 78.67, 78.51 77.79, 77.51 76.04 C76.5 74.29, 75.21 72.18, 73.23 68.76 C71.25 65.33, 68.88 61.15, 65.63 55.5 C62.37 49.85, 57.9 42.13, 53.7 34.86 C49.49 27.6, 44.76 19.45, 40.42 11.92 C36.08 4.38, 30.51 -5.42, 27.67 -10.36 C24.84 -15.29, 24.46 -16.23, 23.4 -17.68 C22.35 -19.13, 22.03 -18.96, 21.34 -19.04 C20.66 -19.12, 20.39 -19, 19.3 -18.16 C18.22 -17.32, 16.94 -15.99, 14.82 -13.98 C12.69 -11.98, 9.03 -8.46, 6.56 -6.13 C4.09 -3.8, 1.09 -1.02, 0 0 M0 0 C0.5 -0.67, 2 -2.38, 3 -4.02 C3.99 -5.66, 5.25 -7.87, 5.97 -9.84 C6.69 -11.81, 7.13 -13.7, 7.34 -15.84 C7.56 -17.98, 7.5 -20.05, 7.26 -22.69 C7.03 -25.33, 6.53 -28.87, 5.92 -31.68 C5.32 -34.49, 4.43 -37.37, 3.65 -39.55 C2.87 -41.74, 1.88 -43.34, 1.25 -44.78 C0.63 -46.22, 0.16 -47.13, -0.11 -48.2 C-0.39 -49.26, -0.36 -50.09, -0.41 -51.17 C-0.46 -52.24, -0.41 -53.55, -0.41 -54.63 C-0.41 -55.71, -0.6 -57.07, -0.41 -57.63 C-0.22 -58.18, 0.25 -58.04, 0.72 -57.96 C1.18 -57.88, 0.47 -58.16, 2.38 -57.15 C4.29 -56.15, 8.03 -54.12, 12.19 -51.93 C16.34 -49.73, 21.32 -47.12, 27.33 -43.98 C33.34 -40.84, 41.46 -36.64, 48.23 -33.1 C55.01 -29.55, 59.6 -27.08, 67.98 -22.7 C76.36 -18.32, 92.14 -10.09, 98.5 -6.82 C104.86 -3.55, 103.95 -4.15, 106.15 -3.05 C108.34 -1.95, 110.34 -0.95, 111.67 -0.21 C113 0.53, 113.64 0.9, 114.11 1.4 C114.58 1.9, 114.42 1.83, 114.49 2.78 C114.55 3.72, 114.49 5.09, 114.5 7.06 C114.5 9.02, 114.5 11.3, 114.5 14.55 C114.5 17.79, 114.5 21.12, 114.5 26.53 C114.5 31.94, 114.5 40.93, 114.5 46.99 C114.5 53.05, 114.5 59.33, 114.5 62.88 C114.5 66.44, 114.52 66.59, 114.5 68.33 C114.48 70.07, 114.53 72.3, 114.38 73.31 C114.22 74.32, 113.97 74.14, 113.57 74.38 C113.16 74.62, 113.77 74.47, 111.94 74.76 C110.11 75.06, 106.39 75.57, 102.59 76.14 C98.78 76.71, 92.52 77.66, 89.11 78.18 C85.7 78.71, 83.61 79.06, 82.13 79.29 C80.66 79.52, 80.74 79.57, 80.26 79.57 C79.78 79.56, 79.7 79.84, 79.24 79.25 C78.79 78.67, 78.51 77.79, 77.51 76.04 C76.5 74.29, 75.21 72.18, 73.23 68.76 C71.25 65.33, 68.88 61.15, 65.63 55.5 C62.37 49.85, 57.9 42.13, 53.7 34.86 C49.49 27.6, 44.76 19.45, 40.42 11.92 C36.08 4.38, 30.51 -5.42, 27.67 -10.36 C24.84 -15.29, 24.46 -16.23, 23.4 -17.68 C22.35 -19.13, 22.03 -18.96, 21.34 -19.04 C20.66 -19.12, 20.39 -19, 19.3 -18.16 C18.22 -17.32, 16.94 -15.99, 14.82 -13.98 C12.69 -11.98, 9.03 -8.46, 6.56 -6.13 C4.09 -3.8, 1.09 -1.02, 0 0" stroke="#E1E1E1" stroke-width="2" fill="none"></path></g></g><mask></mask><g stroke-linecap="round"><g transform="translate(135.17676194377054 100.68005090607494) rotate(0 49.41467060025525 29.84157469400725)"><path d="M0 0 C0 5.74, 0 25.46, 0 34.43 C0 43.4, 0 49.86, 0 53.81 C0 57.75, -0.04 57.17, 0 58.11 C0.04 59.05, -0.1 59.1, 0.24 59.46 C0.57 59.83, 0.77 59.76, 2 60.29 C3.24 60.81, 3.93 61.17, 7.65 62.61 C11.38 64.05, 18.65 66.76, 24.33 68.93 C30.01 71.1, 36.76 73.74, 41.72 75.65 C46.67 77.55, 48.77 78.34, 54.06 80.38 C59.36 82.43, 67.88 85.71, 73.48 87.9 C79.08 90.1, 84.01 92.1, 87.64 93.54 C91.28 94.99, 93.42 95.86, 95.3 96.58 C97.18 97.31, 98.45 97.94, 98.93 97.88 C99.41 97.81, 99.08 97.8, 98.19 96.19 C97.3 94.57, 95.78 92.03, 93.61 88.18 C91.44 84.33, 88.24 78.41, 85.16 73.08 C82.09 67.74, 78.7 62.29, 75.16 56.17 C71.61 50.05, 67.96 43.46, 63.88 36.36 C59.8 29.27, 55.11 21.34, 50.66 13.61 C46.22 5.89, 41.46 -2.57, 37.22 -10 C32.98 -17.44, 27.85 -26.43, 25.23 -30.98 C22.61 -35.52, 22.26 -36.05, 21.49 -37.25 C20.72 -38.45, 20.95 -38.13, 20.62 -38.19 C20.3 -38.26, 20.05 -38.05, 19.52 -37.62 C18.99 -37.19, 19.12 -37.25, 17.45 -35.61 C15.77 -33.96, 12.08 -30.25, 9.49 -27.76 C6.89 -25.28, 3.4 -22.14, 1.88 -20.71 C0.35 -19.28, 0.67 -19.68, 0.34 -19.19 C0.01 -18.7, -0.04 -19.23, -0.1 -17.77 C-0.17 -16.31, -0.07 -13.39, -0.06 -10.42 C-0.04 -7.46, -0.01 -1.74, 0 0 M0 0 C0 5.74, 0 25.46, 0 34.43 C0 43.4, 0 49.86, 0 53.81 C0 57.75, -0.04 57.17, 0 58.11 C0.04 59.05, -0.1 59.1, 0.24 59.46 C0.57 59.83, 0.77 59.76, 2 60.29 C3.24 60.81, 3.93 61.17, 7.65 62.61 C11.38 64.05, 18.65 66.76, 24.33 68.93 C30.01 71.1, 36.76 73.74, 41.72 75.65 C46.67 77.55, 48.77 78.34, 54.06 80.38 C59.36 82.43, 67.88 85.71, 73.48 87.9 C79.08 90.1, 84.01 92.1, 87.64 93.54 C91.28 94.99, 93.42 95.86, 95.3 96.58 C97.18 97.31, 98.45 97.94, 98.93 97.88 C99.41 97.81, 99.08 97.8, 98.19 96.19 C97.3 94.57, 95.78 92.03, 93.61 88.18 C91.44 84.33, 88.24 78.41, 85.16 73.08 C82.09 67.74, 78.7 62.29, 75.16 56.17 C71.61 50.05, 67.96 43.46, 63.88 36.36 C59.8 29.27, 55.11 21.34, 50.66 13.61 C46.22 5.89, 41.46 -2.57, 37.22 -10 C32.98 -17.44, 27.85 -26.43, 25.23 -30.98 C22.61 -35.52, 22.26 -36.05, 21.49 -37.25 C20.72 -38.45, 20.95 -38.13, 20.62 -38.19 C20.3 -38.26, 20.05 -38.05, 19.52 -37.62 C18.99 -37.19, 19.12 -37.25, 17.45 -35.61 C15.77 -33.96, 12.08 -30.25, 9.49 -27.76 C6.89 -25.28, 3.4 -22.14, 1.88 -20.71 C0.35 -19.28, 0.67 -19.68, 0.34 -19.19 C0.01 -18.7, -0.04 -19.23, -0.1 -17.77 C-0.17 -16.31, -0.07 -13.39, -0.06 -10.42 C-0.04 -7.46, -0.01 -1.74, 0 0" stroke="#E1E1E1" stroke-width="2" fill="none"></path></g></g><mask></mask><g stroke-linecap="round"><g transform="translate(129.8637391662969 121.6355681264522) rotate(0 -56.30294234832263 26.067082159808706)"><path d="M0 0 C0 2.44, 0 10.11, 0 14.65 C0 19.19, 0 24.03, 0 27.25 C0 30.48, 0.03 32.26, 0 34 C-0.03 35.73, -0.01 36.88, -0.19 37.67 C-0.36 38.47, -0.31 38.35, -1.05 38.77 C-1.8 39.19, -2.37 39.3, -4.67 40.17 C-6.97 41.04, -9.85 42.09, -14.83 43.99 C-19.81 45.9, -27.92 49.03, -34.55 51.6 C-41.19 54.17, -46.21 56.15, -54.64 59.42 C-63.06 62.68, -76.86 68.02, -85.12 71.21 C-93.37 74.4, -99.91 76.91, -104.15 78.56 C-108.38 80.22, -109.12 80.58, -110.53 81.13 C-111.94 81.68, -112.47 82.02, -112.61 81.87 C-112.74 81.73, -112.32 81.5, -111.33 80.23 C-110.33 78.97, -109.74 78.14, -106.63 74.29 C-103.53 70.45, -97.57 63.22, -92.67 57.17 C-87.78 51.11, -82.16 44.04, -77.26 37.94 C-72.36 31.84, -67.4 25.68, -63.26 20.57 C-59.12 15.46, -54.94 10.41, -52.42 7.3 C-49.91 4.18, -49.09 3.01, -48.16 1.88 C-47.23 0.75, -47.31 0.63, -46.83 0.5 C-46.34 0.37, -46.38 0.46, -45.26 1.11 C-44.13 1.76, -43.48 2.32, -40.06 4.4 C-36.64 6.49, -28.84 11.17, -24.73 13.63 C-20.62 16.09, -17.89 17.67, -15.4 19.15 C-12.91 20.63, -11.12 21.93, -9.8 22.5 C-8.47 23.06, -8 22.77, -7.45 22.53 C-6.9 22.29, -6.6 21.56, -6.49 21.03 C-6.38 20.51, -6.46 19.91, -6.8 19.36 C-7.14 18.82, -7.21 18.65, -8.52 17.76 C-9.84 16.87, -12.8 15.19, -14.72 14.02 C-16.63 12.86, -18.92 11.46, -20.04 10.78 C-21.16 10.09, -21.22 10.22, -21.42 9.89 C-21.62 9.57, -21.55 9.54, -21.22 8.83 C-20.89 8.12, -20.6 7.82, -19.42 5.61 C-18.24 3.41, -16.35 -0.29, -14.15 -4.41 C-11.95 -8.52, -8.25 -15.31, -6.21 -19.09 C-4.17 -22.87, -2.88 -25.3, -1.92 -27.08 C-0.96 -28.85, -0.74 -29.49, -0.45 -29.74 C-0.16 -29.99, -0.24 -29.79, -0.18 -28.59 C-0.13 -27.39, -0.16 -25.82, -0.15 -22.54 C-0.14 -19.25, -0.15 -12.65, -0.12 -8.9 C-0.1 -5.14, -0.02 -1.48, 0 0 M0 0 C0 2.44, 0 10.11, 0 14.65 C0 19.19, 0 24.03, 0 27.25 C0 30.48, 0.03 32.26, 0 34 C-0.03 35.73, -0.01 36.88, -0.19 37.67 C-0.36 38.47, -0.31 38.35, -1.05 38.77 C-1.8 39.19, -2.37 39.3, -4.67 40.17 C-6.97 41.04, -9.85 42.09, -14.83 43.99 C-19.81 45.9, -27.92 49.03, -34.55 51.6 C-41.19 54.17, -46.21 56.15, -54.64 59.42 C-63.06 62.68, -76.86 68.02, -85.12 71.21 C-93.37 74.4, -99.91 76.91, -104.15 78.56 C-108.38 80.22, -109.12 80.58, -110.53 81.13 C-111.94 81.68, -112.47 82.02, -112.61 81.87 C-112.74 81.73, -112.32 81.5, -111.33 80.23 C-110.33 78.97, -109.74 78.14, -106.63 74.29 C-103.53 70.45, -97.57 63.22, -92.67 57.17 C-87.78 51.11, -82.16 44.04, -77.26 37.94 C-72.36 31.84, -67.4 25.68, -63.26 20.57 C-59.12 15.46, -54.94 10.41, -52.42 7.3 C-49.91 4.18, -49.09 3.01, -48.16 1.88 C-47.23 0.75, -47.31 0.63, -46.83 0.5 C-46.34 0.37, -46.38 0.46, -45.26 1.11 C-44.13 1.76, -43.48 2.32, -40.06 4.4 C-36.64 6.49, -28.84 11.17, -24.73 13.63 C-20.62 16.09, -17.89 17.67, -15.4 19.15 C-12.91 20.63, -11.12 21.93, -9.8 22.5 C-8.47 23.06, -8 22.77, -7.45 22.53 C-6.9 22.29, -6.6 21.56, -6.49 21.03 C-6.38 20.51, -6.46 19.91, -6.8 19.36 C-7.14 18.82, -7.21 18.65, -8.52 17.76 C-9.84 16.87, -12.8 15.19, -14.72 14.02 C-16.63 12.86, -18.92 11.46, -20.04 10.78 C-21.16 10.09, -21.22 10.22, -21.42 9.89 C-21.62 9.57, -21.55 9.54, -21.22 8.83 C-20.89 8.12, -20.6 7.82, -19.42 5.61 C-18.24 3.41, -16.35 -0.29, -14.15 -4.41 C-11.95 -8.52, -8.25 -15.31, -6.21 -19.09 C-4.17 -22.87, -2.88 -25.3, -1.92 -27.08 C-0.96 -28.85, -0.74 -29.49, -0.45 -29.74 C-0.16 -29.99, -0.24 -29.79, -0.18 -28.59 C-0.13 -27.39, -0.16 -25.82, -0.15 -22.54 C-0.14 -19.25, -0.15 -12.65, -0.12 -8.9 C-0.1 -5.14, -0.02 -1.48, 0 0" stroke="#E1E1E1" stroke-width="2" fill="none"></path></g></g><mask></mask><g stroke-linecap="round"><g transform="translate(135.22360389998175 182.62970814713208) rotate(0 57.14426514952447 20.261054414494538)"><path d="M0 0 C0 -2.25, 0 -10.67, 0 -13.51 C0 -16.35, -0.18 -16.47, 0 -17.02 C0.18 -17.58, 0.42 -17.08, 1.09 -16.85 C1.76 -16.62, 1.81 -16.51, 4.02 -15.64 C6.23 -14.77, 9.09 -13.7, 14.33 -11.64 C19.57 -9.58, 26.16 -6.84, 35.45 -3.26 C44.75 0.32, 59.08 5.63, 70.07 9.84 C81.07 14.04, 94.52 19.3, 101.42 21.98 C108.32 24.65, 109.4 25.01, 111.49 25.88 C113.59 26.76, 113.5 26.7, 113.98 27.23 C114.46 27.76, 114.3 27.39, 114.35 29.04 C114.39 30.7, 114.26 33.54, 114.24 37.14 C114.22 40.75, 114.24 47.7, 114.24 50.66 C114.24 53.62, 114.27 53.78, 114.24 54.92 C114.21 56.06, 114.35 57.07, 114.06 57.51 C113.77 57.95, 113.97 57.96, 112.51 57.54 C111.05 57.13, 109.12 56.37, 105.32 55.04 C101.52 53.72, 95.77 51.76, 89.72 49.62 C83.67 47.48, 77.05 45.05, 69.01 42.23 C60.97 39.4, 51.34 36.11, 41.49 32.65 C31.64 29.2, 16.43 23.78, 9.9 21.49 C3.38 19.2, 3.94 19.49, 2.33 18.91 C0.72 18.32, 0.65 18.59, 0.25 17.97 C-0.15 17.36, -0.02 17.47, -0.06 15.21 C-0.1 12.96, -0.02 6.96, -0.01 4.43 C0 1.89, 0 0.74, 0 0 M0 0 C0 -2.25, 0 -10.67, 0 -13.51 C0 -16.35, -0.18 -16.47, 0 -17.02 C0.18 -17.58, 0.42 -17.08, 1.09 -16.85 C1.76 -16.62, 1.81 -16.51, 4.02 -15.64 C6.23 -14.77, 9.09 -13.7, 14.33 -11.64 C19.57 -9.58, 26.16 -6.84, 35.45 -3.26 C44.75 0.32, 59.08 5.63, 70.07 9.84 C81.07 14.04, 94.52 19.3, 101.42 21.98 C108.32 24.65, 109.4 25.01, 111.49 25.88 C113.59 26.76, 113.5 26.7, 113.98 27.23 C114.46 27.76, 114.3 27.39, 114.35 29.04 C114.39 30.7, 114.26 33.54, 114.24 37.14 C114.22 40.75, 114.24 47.7, 114.24 50.66 C114.24 53.62, 114.27 53.78, 114.24 54.92 C114.21 56.06, 114.35 57.07, 114.06 57.51 C113.77 57.95, 113.97 57.96, 112.51 57.54 C111.05 57.13, 109.12 56.37, 105.32 55.04 C101.52 53.72, 95.77 51.76, 89.72 49.62 C83.67 47.48, 77.05 45.05, 69.01 42.23 C60.97 39.4, 51.34 36.11, 41.49 32.65 C31.64 29.2, 16.43 23.78, 9.9 21.49 C3.38 19.2, 3.94 19.49, 2.33 18.91 C0.72 18.32, 0.65 18.59, 0.25 17.97 C-0.15 17.36, -0.02 17.47, -0.06 15.21 C-0.1 12.96, -0.02 6.96, -0.01 4.43 C0 1.89, 0 0.74, 0 0" stroke="#E1E1E1" stroke-width="2" fill="none"></path></g></g><mask></mask><g stroke-linecap="round"><g transform="translate(110.0360279152128 213.20772406214655) rotate(0 22.21482155856802 -0.05195838969166289)"><path d="M0 0 C5.55 -1.99, 11.1 -3.99, 22.33 -8.02 M0 0 C5.86 -2.11, 11.72 -4.21, 22.33 -8.02 M22.33 -8.02 C30.32 -5.12, 38.3 -2.23, 44.43 0 M22.33 -8.02 C27.95 -5.99, 33.56 -3.95, 44.43 0 M44.43 0 C38.38 2.16, 32.34 4.33, 22.32 7.92 M44.43 0 C37.31 2.55, 30.18 5.1, 22.32 7.92 M22.32 7.92 C13.43 4.77, 4.55 1.62, 0 0 M22.32 7.92 C13.73 4.87, 5.13 1.82, 0 0" stroke="#E1E1E1" stroke-width="2" fill="none"></path></g></g><mask></mask><g stroke-linecap="round"><g transform="translate(80.2501882537008 223.63075097734236) rotate(0 22.21482155856802 -0.05195838969166289)"><path d="M0 0 C6.62 -2.38, 13.24 -4.76, 22.33 -8.02 M0 0 C8.56 -3.07, 17.12 -6.15, 22.33 -8.02 M22.33 -8.02 C31.06 -4.85, 39.8 -1.68, 44.43 0 M22.33 -8.02 C29.22 -5.52, 36.11 -3.02, 44.43 0 M44.43 0 C39.27 1.85, 34.1 3.7, 22.32 7.92 M44.43 0 C37.24 2.57, 30.05 5.15, 22.32 7.92 M22.32 7.92 C14.44 5.12, 6.56 2.33, 0 0 M22.32 7.92 C16.54 5.87, 10.76 3.82, 0 0" stroke="#E1E1E1" stroke-width="2" fill="none"></path></g></g><mask></mask><g stroke-linecap="round"><g transform="translate(109.83912394141862 233.9704206264687) rotate(0 22.21482155856802 -0.05195838969166289)"><path d="M0 0 C7.91 -2.84, 15.83 -5.69, 22.33 -8.02 M0 0 C7.92 -2.85, 15.85 -5.69, 22.33 -8.02 M22.33 -8.02 C29.94 -5.26, 37.55 -2.5, 44.43 0 M22.33 -8.02 C29.6 -5.38, 36.87 -2.75, 44.43 0 M44.43 0 C35.98 3.02, 27.53 6.05, 22.32 7.92 M44.43 0 C38.26 2.21, 32.08 4.42, 22.32 7.92 M22.32 7.92 C14 4.97, 5.68 2.02, 0 0 M22.32 7.92 C16.89 5.99, 11.46 4.06, 0 0" stroke="#E1E1E1" stroke-width="2" fill="none"></path></g></g><mask></mask><g stroke-linecap="round"><g transform="translate(139.80875800260856 223.57320989080745) rotate(0 22.21482155856802 -0.05195838969166289)"><path d="M0 0 C7.14 -2.57, 14.28 -5.13, 22.33 -8.02 M0 0 C4.91 -1.76, 9.82 -3.53, 22.33 -8.02 M22.33 -8.02 C26.89 -6.37, 31.44 -4.72, 44.43 0 M22.33 -8.02 C28.68 -5.72, 35.02 -3.42, 44.43 0 M44.43 0 C38.72 2.04, 33.02 4.09, 22.32 7.92 M44.43 0 C37.98 2.31, 31.54 4.62, 22.32 7.92 M22.32 7.92 C15.16 5.38, 7.99 2.84, 0 0 M22.32 7.92 C16.02 5.68, 9.73 3.45, 0 0" stroke="#E1E1E1" stroke-width="2" fill="none"></path></g></g><mask></mask><g stroke-linecap="round"><g transform="translate(169.616131653901 234.01269014501304) rotate(0 22.21482155856802 -0.05195838969166289)"><path d="M0 0 C6.79 -2.44, 13.58 -4.88, 22.33 -8.02 M0 0 C6.55 -2.35, 13.1 -4.71, 22.33 -8.02 M22.33 -8.02 C27.03 -6.32, 31.73 -4.61, 44.43 0 M22.33 -8.02 C27.42 -6.18, 32.5 -4.33, 44.43 0 M44.43 0 C36.43 2.86, 28.42 5.73, 22.32 7.92 M44.43 0 C37.64 2.43, 30.85 4.86, 22.32 7.92 M22.32 7.92 C17.25 6.12, 12.18 4.32, 0 0 M22.32 7.92 C15.93 5.65, 9.54 3.38, 0 0" stroke="#E1E1E1" stroke-width="2" fill="none"></path></g></g><mask></mask><g stroke-linecap="round"><g transform="translate(199.587401954519 244.52825553259845) rotate(0 22.21482155856802 -0.05195838969166289)"><path d="M0 0 C5.08 -1.83, 10.16 -3.65, 22.33 -8.02 M0 0 C7.96 -2.86, 15.91 -5.72, 22.33 -8.02 M22.33 -8.02 C29.06 -5.58, 35.78 -3.14, 44.43 0 M22.33 -8.02 C28.7 -5.71, 35.08 -3.4, 44.43 0 M44.43 0 C36.86 2.71, 29.3 5.42, 22.32 7.92 M44.43 0 C36.74 2.75, 29.04 5.51, 22.32 7.92 M22.32 7.92 C14.51 5.15, 6.7 2.38, 0 0 M22.32 7.92 C13.65 4.84, 4.99 1.77, 0 0" stroke="#E1E1E1" stroke-width="2" fill="none"></path></g></g><mask></mask><g stroke-linecap="round"><g transform="translate(169.76721109437676 254.9440103151046) rotate(0 22.21482155856802 -0.05195838969166289)"><path d="M0 0 C5.87 -2.11, 11.74 -4.22, 22.33 -8.02 M0 0 C4.71 -1.69, 9.42 -3.38, 22.33 -8.02 M22.33 -8.02 C27.19 -6.26, 32.04 -4.5, 44.43 0 M22.33 -8.02 C30.64 -5.01, 38.94 -2, 44.43 0 M44.43 0 C37.62 2.44, 30.81 4.88, 22.32 7.92 M44.43 0 C36.23 2.94, 28.02 5.88, 22.32 7.92 M22.32 7.92 C15.09 5.35, 7.86 2.79, 0 0 M22.32 7.92 C14.87 5.27, 7.41 2.63, 0 0" stroke="#E1E1E1" stroke-width="2" fill="none"></path></g></g><mask></mask><g stroke-linecap="round"><g transform="translate(139.91211379311426 244.59234157684295) rotate(0 22.21482155856802 -0.05195838969166289)"><path d="M0 0 C5.03 -1.81, 10.07 -3.62, 22.33 -8.02 M0 0 C5.38 -1.93, 10.76 -3.87, 22.33 -8.02 M22.33 -8.02 C29.9 -5.28, 37.46 -2.53, 44.43 0 M22.33 -8.02 C29.58 -5.39, 36.82 -2.76, 44.43 0 M44.43 0 C37.62 2.44, 30.82 4.87, 22.32 7.92 M44.43 0 C36.38 2.88, 28.32 5.77, 22.32 7.92 M22.32 7.92 C16.7 5.93, 11.08 3.93, 0 0 M22.32 7.92 C14.18 5.03, 6.05 2.15, 0 0" stroke="#E1E1E1" stroke-width="2" fill="none"></path></g></g><mask></mask><g stroke-linecap="round"><g transform="translate(50.331823027907376 233.97096603961108) rotate(0 22.21482155856802 -0.05195838969166289)"><path d="M0 0 C5.9 -2.12, 11.8 -4.24, 22.33 -8.02 M0 0 C5.86 -2.11, 11.72 -4.21, 22.33 -8.02 M22.33 -8.02 C30.49 -5.06, 38.65 -2.1, 44.43 0 M22.33 -8.02 C26.94 -6.35, 31.56 -4.68, 44.43 0 M44.43 0 C38.32 2.19, 32.2 4.38, 22.32 7.92 M44.43 0 C38.08 2.27, 31.73 4.55, 22.32 7.92 M22.32 7.92 C14.62 5.19, 6.92 2.46, 0 0 M22.32 7.92 C16.93 6.01, 11.55 4.1, 0 0" stroke="#E1E1E1" stroke-width="2" fill="none"></path></g></g><mask></mask><g stroke-linecap="round"><g transform="translate(79.89730595049696 244.62615719167934) rotate(0 22.21482155856802 -0.05195838969166289)"><path d="M0 0 C8.52 -3.06, 17.04 -6.12, 22.33 -8.02 M0 0 C6.22 -2.24, 12.45 -4.47, 22.33 -8.02 M22.33 -8.02 C28.51 -5.78, 34.68 -3.54, 44.43 0 M22.33 -8.02 C30.23 -5.16, 38.13 -2.29, 44.43 0 M44.43 0 C36.63 2.79, 28.82 5.59, 22.32 7.92 M44.43 0 C38.79 2.02, 33.14 4.04, 22.32 7.92 M22.32 7.92 C13.66 4.85, 5.01 1.78, 0 0 M22.32 7.92 C14.84 5.27, 7.37 2.62, 0 0" stroke="#E1E1E1" stroke-width="2" fill="none"></path></g></g><mask></mask><g stroke-linecap="round"><g transform="translate(109.74013145605295 254.89001441399614) rotate(0 22.21482155856802 -0.05195838969166289)"><path d="M0 0 C5.35 -1.92, 10.69 -3.84, 22.33 -8.02 M0 0 C6.02 -2.16, 12.03 -4.32, 22.33 -8.02 M22.33 -8.02 C27.14 -6.28, 31.94 -4.54, 44.43 0 M22.33 -8.02 C26.99 -6.33, 31.65 -4.64, 44.43 0 M44.43 0 C39.4 1.8, 34.38 3.6, 22.32 7.92 M44.43 0 C38.94 1.96, 33.45 3.93, 22.32 7.92 M22.32 7.92 C15.98 5.67, 9.64 3.42, 0 0 M22.32 7.92 C15.72 5.58, 9.12 3.24, 0 0" stroke="#E1E1E1" stroke-width="2" fill="none"></path></g></g><mask></mask><g stroke-linecap="round"><g transform="translate(139.6115911515908 265.4044889752968) rotate(0 22.21482155856802 -0.05195838969166289)"><path d="M0 0 C7.93 -2.85, 15.87 -5.7, 22.33 -8.02 M0 0 C6.47 -2.33, 12.95 -4.65, 22.33 -8.02 M22.33 -8.02 C30.01 -5.24, 37.69 -2.45, 44.43 0 M22.33 -8.02 C30.55 -5.04, 38.77 -2.06, 44.43 0 M44.43 0 C35.8 3.09, 27.17 6.18, 22.32 7.92 M44.43 0 C39.77 1.67, 35.11 3.34, 22.32 7.92 M22.32 7.92 C13.53 4.8, 4.73 1.68, 0 0 M22.32 7.92 C14.92 5.29, 7.52 2.67, 0 0" stroke="#E1E1E1" stroke-width="2" fill="none"></path></g></g><mask></mask><g stroke-linecap="round"><g transform="translate(110.08292361612075 275.9366894637287) rotate(0 22.21482155856802 -0.05195838969166289)"><path d="M0 0 C8.87 -3.19, 17.74 -6.37, 22.33 -8.02 M0 0 C8.02 -2.88, 16.04 -5.76, 22.33 -8.02 M22.33 -8.02 C29.75 -5.33, 37.16 -2.64, 44.43 0 M22.33 -8.02 C30.55 -5.04, 38.77 -2.06, 44.43 0 M44.43 0 C38.98 1.95, 33.53 3.9, 22.32 7.92 M44.43 0 C36.86 2.71, 29.28 5.42, 22.32 7.92 M22.32 7.92 C14.67 5.2, 7.01 2.49, 0 0 M22.32 7.92 C14.92 5.29, 7.52 2.67, 0 0" stroke="#E1E1E1" stroke-width="2" fill="none"></path></g></g><mask></mask><g stroke-linecap="round"><g transform="translate(80.24146164342073 265.3834905693093) rotate(0 22.21482155856802 -0.05195838969166289)"><path d="M0 0 C6.05 -2.17, 12.09 -4.34, 22.33 -8.02 M0 0 C8.93 -3.21, 17.86 -6.41, 22.33 -8.02 M22.33 -8.02 C28.53 -5.77, 34.74 -3.52, 44.43 0 M22.33 -8.02 C28.67 -5.72, 35 -3.42, 44.43 0 M44.43 0 C39.69 1.7, 34.95 3.39, 22.32 7.92 M44.43 0 C37.97 2.31, 31.52 4.62, 22.32 7.92 M22.32 7.92 C15.03 5.33, 7.75 2.75, 0 0 M22.32 7.92 C14.36 5.1, 6.41 2.27, 0 0" stroke="#E1E1E1" stroke-width="2" fill="none"></path></g></g><mask></mask><g stroke-linecap="round"><g transform="translate(50.13738324260248 254.88237863000086) rotate(0 22.21482155856802 -0.05195838969166289)"><path d="M0 0 C7.25 -2.6, 14.49 -5.21, 22.33 -8.02 M0 0 C5.38 -1.93, 10.76 -3.87, 22.33 -8.02 M22.33 -8.02 C27.3 -6.22, 32.28 -4.41, 44.43 0 M22.33 -8.02 C30.71 -4.98, 39.1 -1.94, 44.43 0 M44.43 0 C35.84 3.08, 27.25 6.15, 22.32 7.92 M44.43 0 C39.85 1.64, 35.27 3.28, 22.32 7.92 M22.32 7.92 C17.54 6.22, 12.76 4.53, 0 0 M22.32 7.92 C16.43 5.83, 10.55 3.74, 0 0" stroke="#E1E1E1" stroke-width="2" fill="none"></path></g></g><mask></mask><g stroke-linecap="round"><g transform="translate(20.423547945249993 244.57516106285402) rotate(0 22.21482155856802 -0.05195838969166289)"><path d="M0 0 C5.26 -1.89, 10.52 -3.78, 22.33 -8.02 M0 0 C7.75 -2.79, 15.51 -5.57, 22.33 -8.02 M22.33 -8.02 C28.42 -5.81, 34.5 -3.61, 44.43 0 M22.33 -8.02 C28.24 -5.88, 34.16 -3.73, 44.43 0 M44.43 0 C36.63 2.79, 28.84 5.58, 22.32 7.92 M44.43 0 C36.91 2.69, 29.38 5.39, 22.32 7.92 M22.32 7.92 C17.25 6.12, 12.18 4.32, 0 0 M22.32 7.92 C13.69 4.86, 5.06 1.8, 0 0" stroke="#E1E1E1" stroke-width="2" fill="none"></path></g></g><mask></mask><g stroke-linecap="round"><g transform="translate(15.201815819889816 225.45807159847664) rotate(0 57.18673527680221 -22.267112964049375)"><path d="M0 0 C0 -1.44, 0 -6.41, 0 -8.62 C0 -10.83, -0.04 -12.12, 0 -13.26 C0.04 -14.41, -0.08 -14.97, 0.26 -15.52 C0.6 -16.06, 0.61 -15.92, 2.05 -16.52 C3.48 -17.12, 5.53 -17.82, 8.89 -19.11 C12.25 -20.4, 14.59 -21.31, 22.19 -24.25 C29.79 -27.19, 44.51 -32.9, 54.49 -36.77 C64.48 -40.64, 74.19 -44.41, 82.1 -47.48 C90.01 -50.55, 97.5 -53.49, 101.93 -55.2 C106.36 -56.91, 106.71 -57, 108.68 -57.76 C110.65 -58.52, 112.76 -59.52, 113.73 -59.76 C114.71 -59.99, 114.38 -59.75, 114.52 -59.17 C114.65 -58.59, 114.53 -60.39, 114.53 -56.27 C114.54 -52.15, 114.53 -39.22, 114.53 -34.46 C114.53 -29.7, 114.57 -29.27, 114.53 -27.71 C114.5 -26.15, 114.65 -25.68, 114.34 -25.09 C114.04 -24.5, 113.62 -24.53, 112.72 -24.17 C111.83 -23.8, 112.36 -24.1, 108.97 -22.91 C105.58 -21.71, 99.81 -19.6, 92.38 -17.01 C84.96 -14.42, 75.06 -11.1, 64.42 -7.37 C53.78 -3.63, 38.42 1.89, 28.52 5.39 C18.62 8.9, 9.73 12.03, 5.02 13.67 C0.32 15.31, 1.16 15.25, 0.3 15.22 C-0.55 15.19, -0.04 14.17, -0.12 13.47 C-0.19 12.77, -0.18 13.26, -0.16 11.01 C-0.14 8.77, -0.03 1.84, 0 0 M0 0 C0 -1.44, 0 -6.41, 0 -8.62 C0 -10.83, -0.04 -12.12, 0 -13.26 C0.04 -14.41, -0.08 -14.97, 0.26 -15.52 C0.6 -16.06, 0.61 -15.92, 2.05 -16.52 C3.48 -17.12, 5.53 -17.82, 8.89 -19.11 C12.25 -20.4, 14.59 -21.31, 22.19 -24.25 C29.79 -27.19, 44.51 -32.9, 54.49 -36.77 C64.48 -40.64, 74.19 -44.41, 82.1 -47.48 C90.01 -50.55, 97.5 -53.49, 101.93 -55.2 C106.36 -56.91, 106.71 -57, 108.68 -57.76 C110.65 -58.52, 112.76 -59.52, 113.73 -59.76 C114.71 -59.99, 114.38 -59.75, 114.52 -59.17 C114.65 -58.59, 114.53 -60.39, 114.53 -56.27 C114.54 -52.15, 114.53 -39.22, 114.53 -34.46 C114.53 -29.7, 114.57 -29.27, 114.53 -27.71 C114.5 -26.15, 114.65 -25.68, 114.34 -25.09 C114.04 -24.5, 113.62 -24.53, 112.72 -24.17 C111.83 -23.8, 112.36 -24.1, 108.97 -22.91 C105.58 -21.71, 99.81 -19.6, 92.38 -17.01 C84.96 -14.42, 75.06 -11.1, 64.42 -7.37 C53.78 -3.63, 38.42 1.89, 28.52 5.39 C18.62 8.9, 9.73 12.03, 5.02 13.67 C0.32 15.31, 1.16 15.25, 0.3 15.22 C-0.55 15.19, -0.04 14.17, -0.12 13.47 C-0.19 12.77, -0.18 13.26, -0.16 11.01 C-0.14 8.77, -0.03 1.84, 0 0" stroke="#E1E1E1" stroke-width="2" fill="none"></path></g></g><mask></mask><g stroke-linecap="round"><g transform="translate(32.067881078111895 130.17160752430937) rotate(0 3.449468593732945 1.1905044338986954)"><path d="M0 0 C1.42 -0.65, 6.42 -2.95, 8.49 -3.88 C10.56 -4.81, 11.43 -5.28, 12.43 -5.57 C13.43 -5.86, 13.93 -5.95, 14.5 -5.62 C15.07 -5.3, 15.72 -4.27, 15.85 -3.63 C15.97 -3, 15.77 -2.37, 15.27 -1.81 C14.76 -1.24, 14.35 -1.02, 12.8 -0.25 C11.25 0.53, 8.25 1.83, 5.96 2.85 C3.66 3.87, 0.92 5.06, -0.95 5.89 C-2.83 6.71, -4.22 7.46, -5.28 7.81 C-6.35 8.16, -6.75 8.15, -7.35 8 C-7.94 7.86, -8.6 7.47, -8.87 6.93 C-9.13 6.39, -9.19 5.36, -8.95 4.77 C-8.7 4.17, -8.38 3.94, -7.4 3.37 C-6.42 2.8, -4.27 1.91, -3.04 1.35 C-1.81 0.79, -0.51 0.23, 0 0 M0 0 C1.42 -0.65, 6.42 -2.95, 8.49 -3.88 C10.56 -4.81, 11.43 -5.28, 12.43 -5.57 C13.43 -5.86, 13.93 -5.95, 14.5 -5.62 C15.07 -5.3, 15.72 -4.27, 15.85 -3.63 C15.97 -3, 15.77 -2.37, 15.27 -1.81 C14.76 -1.24, 14.35 -1.02, 12.8 -0.25 C11.25 0.53, 8.25 1.83, 5.96 2.85 C3.66 3.87, 0.92 5.06, -0.95 5.89 C-2.83 6.71, -4.22 7.46, -5.28 7.81 C-6.35 8.16, -6.75 8.15, -7.35 8 C-7.94 7.86, -8.6 7.47, -8.87 6.93 C-9.13 6.39, -9.19 5.36, -8.95 4.77 C-8.7 4.17, -8.38 3.94, -7.4 3.37 C-6.42 2.8, -4.27 1.91, -3.04 1.35 C-1.81 0.79, -0.51 0.23, 0 0" stroke="#E1E1E1" stroke-width="2" fill="none"></path></g></g><mask></mask><g stroke-linecap="round"><g transform="translate(95.35819980951237 189.23881932559652) rotate(0 -0.932226837197959 2.9696816875325567)"><path d="M0 0 C-1.94 0.71, -7.89 2.85, -11.65 4.27 C-15.42 5.69, -19.95 7.48, -22.59 8.52 C-25.22 9.57, -26.34 9.98, -27.48 10.53 C-28.62 11.08, -29.01 11.22, -29.42 11.82 C-29.84 12.41, -30.07 13.47, -29.95 14.1 C-29.84 14.74, -29.38 15.4, -28.73 15.62 C-28.07 15.84, -28.12 16.13, -26.01 15.42 C-23.89 14.72, -20.88 13.32, -16.03 11.39 C-11.18 9.45, -3.53 6.4, 3.09 3.81 C9.71 1.22, 19.65 -2.55, 23.69 -4.15 C27.72 -5.74, 26.56 -5.21, 27.3 -5.77 C28.03 -6.32, 28.08 -6.87, 28.09 -7.45 C28.1 -8.02, 27.7 -8.85, 27.35 -9.22 C26.99 -9.6, 26.61 -9.7, 25.94 -9.68 C25.27 -9.67, 25.1 -9.71, 23.33 -9.11 C21.55 -8.5, 18.38 -7.27, 15.29 -6.07 C12.2 -4.88, 7.34 -2.92, 4.79 -1.91 C2.24 -0.9, 0.8 -0.32, 0 0 M0 0 C-1.94 0.71, -7.89 2.85, -11.65 4.27 C-15.42 5.69, -19.95 7.48, -22.59 8.52 C-25.22 9.57, -26.34 9.98, -27.48 10.53 C-28.62 11.08, -29.01 11.22, -29.42 11.82 C-29.84 12.41, -30.07 13.47, -29.95 14.1 C-29.84 14.74, -29.38 15.4, -28.73 15.62 C-28.07 15.84, -28.12 16.13, -26.01 15.42 C-23.89 14.72, -20.88 13.32, -16.03 11.39 C-11.18 9.45, -3.53 6.4, 3.09 3.81 C9.71 1.22, 19.65 -2.55, 23.69 -4.15 C27.72 -5.74, 26.56 -5.21, 27.3 -5.77 C28.03 -6.32, 28.08 -6.87, 28.09 -7.45 C28.1 -8.02, 27.7 -8.85, 27.35 -9.22 C26.99 -9.6, 26.61 -9.7, 25.94 -9.68 C25.27 -9.67, 25.1 -9.71, 23.33 -9.11 C21.55 -8.5, 18.38 -7.27, 15.29 -6.07 C12.2 -4.88, 7.34 -2.92, 4.79 -1.91 C2.24 -0.9, 0.8 -0.32, 0 0" stroke="#E1E1E1" stroke-width="2" fill="none"></path></g></g><mask></mask><g stroke-linecap="round"><g transform="translate(158.67361181890556 192.94640909762165) rotate(0 10.525647606324128 6.604139050729373)"><path d="M0 0 C2.99 1.14, 13.29 5.11, 17.93 6.87 C22.56 8.63, 25.27 9.57, 27.81 10.56 C30.35 11.56, 32.06 12.12, 33.17 12.83 C34.28 13.54, 34.32 14.19, 34.45 14.82 C34.59 15.45, 34.3 16.2, 33.96 16.62 C33.62 17.04, 33.08 17.27, 32.43 17.34 C31.78 17.42, 31.06 17.34, 30.05 17.06 C29.04 16.78, 29.46 16.91, 26.38 15.68 C23.29 14.46, 16.69 11.74, 11.52 9.71 C6.36 7.68, -0.76 4.99, -4.6 3.5 C-8.44 2.02, -10.05 1.49, -11.52 0.8 C-12.98 0.12, -13.12 -0.02, -13.4 -0.63 C-13.69 -1.24, -13.56 -2.26, -13.23 -2.85 C-12.91 -3.43, -12.31 -4.06, -11.44 -4.14 C-10.57 -4.21, -9.56 -3.83, -8.02 -3.31 C-6.48 -2.78, -3.55 -1.53, -2.22 -0.98 C-0.88 -0.43, -0.37 -0.16, 0 0 M0 0 C2.99 1.14, 13.29 5.11, 17.93 6.87 C22.56 8.63, 25.27 9.57, 27.81 10.56 C30.35 11.56, 32.06 12.12, 33.17 12.83 C34.28 13.54, 34.32 14.19, 34.45 14.82 C34.59 15.45, 34.3 16.2, 33.96 16.62 C33.62 17.04, 33.08 17.27, 32.43 17.34 C31.78 17.42, 31.06 17.34, 30.05 17.06 C29.04 16.78, 29.46 16.91, 26.38 15.68 C23.29 14.46, 16.69 11.74, 11.52 9.71 C6.36 7.68, -0.76 4.99, -4.6 3.5 C-8.44 2.02, -10.05 1.49, -11.52 0.8 C-12.98 0.12, -13.12 -0.02, -13.4 -0.63 C-13.69 -1.24, -13.56 -2.26, -13.23 -2.85 C-12.91 -3.43, -12.31 -4.06, -11.44 -4.14 C-10.57 -4.21, -9.56 -3.83, -8.02 -3.31 C-6.48 -2.78, -3.55 -1.53, -2.22 -0.98 C-0.88 -0.43, -0.37 -0.16, 0 0" stroke="#E1E1E1" stroke-width="2" fill="none"></path></g></g><mask></mask><g stroke-linecap="round"><g transform="translate(219.0601069883105 203.42786366968448) rotate(0 1.787438262661908 3.1441644144847487)"><path d="M0 0 C-1.98 -0.79, -8.78 -3.5, -11.86 -4.71 C-14.93 -5.92, -16.99 -6.79, -18.45 -7.24 C-19.91 -7.7, -20.02 -7.61, -20.62 -7.43 C-21.23 -7.25, -21.87 -6.75, -22.1 -6.18 C-22.32 -5.6, -22.75 -4.75, -21.98 -3.99 C-21.21 -3.22, -20.2 -2.71, -17.5 -1.56 C-14.79 -0.41, -10.58 1.07, -5.74 2.94 C-0.91 4.8, 6.89 7.88, 11.5 9.64 C16.11 11.4, 19.69 12.83, 21.91 13.5 C24.13 14.18, 24.18 13.91, 24.8 13.72 C25.43 13.53, 25.56 12.86, 25.67 12.36 C25.78 11.87, 25.81 11.23, 25.46 10.73 C25.11 10.23, 25.02 10.03, 23.57 9.34 C22.13 8.65, 20.72 8.16, 16.79 6.6 C12.86 5.05, 2.8 1.1, 0 0 M0 0 C-1.98 -0.79, -8.78 -3.5, -11.86 -4.71 C-14.93 -5.92, -16.99 -6.79, -18.45 -7.24 C-19.91 -7.7, -20.02 -7.61, -20.62 -7.43 C-21.23 -7.25, -21.87 -6.75, -22.1 -6.18 C-22.32 -5.6, -22.75 -4.75, -21.98 -3.99 C-21.21 -3.22, -20.2 -2.71, -17.5 -1.56 C-14.79 -0.41, -10.58 1.07, -5.74 2.94 C-0.91 4.8, 6.89 7.88, 11.5 9.64 C16.11 11.4, 19.69 12.83, 21.91 13.5 C24.13 14.18, 24.18 13.91, 24.8 13.72 C25.43 13.53, 25.56 12.86, 25.67 12.36 C25.78 11.87, 25.81 11.23, 25.46 10.73 C25.11 10.23, 25.02 10.03, 23.57 9.34 C22.13 8.65, 20.72 8.16, 16.79 6.6 C12.86 5.05, 2.8 1.1, 0 0" stroke="#E1E1E1" stroke-width="2" fill="none"></path></g></g><mask></mask><g stroke-linecap="round"><g transform="translate(249.6638965297534 192.10447513720737) rotate(0 -15.841616366071776 -12.945159574395348)"><path d="M0 0 C0 1.52, 0.02 7.17, 0 9.09 C-0.02 11.01, 0.03 11.07, -0.15 11.53 C-0.32 11.99, -0.48 11.93, -1.04 11.85 C-1.59 11.78, -2.41 11.5, -3.48 11.07 C-4.55 10.63, -6.52 9.92, -7.47 9.24 C-8.41 8.56, -7.96 8.89, -9.12 7.01 C-10.29 5.13, -11.76 2.61, -14.45 -2.03 C-17.15 -6.67, -22.66 -16.27, -25.29 -20.84 C-27.92 -25.41, -29.15 -27.54, -30.22 -29.45 C-31.28 -31.35, -31.7 -31.68, -31.68 -32.27 C-31.66 -32.85, -31.78 -32.61, -30.1 -32.96 C-28.43 -33.31, -25.29 -33.77, -21.63 -34.37 C-17.97 -34.98, -11.48 -36.05, -8.15 -36.61 C-4.82 -37.18, -2.94 -37.67, -1.64 -37.74 C-0.34 -37.82, -0.57 -37.42, -0.33 -37.06 C-0.09 -36.69, -0.27 -37.8, -0.22 -35.54 C-0.18 -33.29, -0.11 -29.46, -0.07 -23.54 C-0.03 -17.61, -0.01 -3.92, 0 0 M0 0 C0 1.52, 0.02 7.17, 0 9.09 C-0.02 11.01, 0.03 11.07, -0.15 11.53 C-0.32 11.99, -0.48 11.93, -1.04 11.85 C-1.59 11.78, -2.41 11.5, -3.48 11.07 C-4.55 10.63, -6.52 9.92, -7.47 9.24 C-8.41 8.56, -7.96 8.89, -9.12 7.01 C-10.29 5.13, -11.76 2.61, -14.45 -2.03 C-17.15 -6.67, -22.66 -16.27, -25.29 -20.84 C-27.92 -25.41, -29.15 -27.54, -30.22 -29.45 C-31.28 -31.35, -31.7 -31.68, -31.68 -32.27 C-31.66 -32.85, -31.78 -32.61, -30.1 -32.96 C-28.43 -33.31, -25.29 -33.77, -21.63 -34.37 C-17.97 -34.98, -11.48 -36.05, -8.15 -36.61 C-4.82 -37.18, -2.94 -37.67, -1.64 -37.74 C-0.34 -37.82, -0.57 -37.42, -0.33 -37.06 C-0.09 -36.69, -0.27 -37.8, -0.22 -35.54 C-0.18 -33.29, -0.11 -29.46, -0.07 -23.54 C-0.03 -17.61, -0.01 -3.92, 0 0" stroke="#E1E1E1" stroke-width="2" fill="none"></path></g></g><mask></mask><g stroke-linecap="round"><g transform="translate(216.9922054123208 106.58199780093673) rotate(0 3.932639720736006 4.818062989576447)"><path d="M0 0 C-0.73 -0.32, -3.24 -1.55, -4.4 -1.94 C-5.55 -2.34, -6.26 -2.54, -6.93 -2.36 C-7.6 -2.19, -8.17 -1.46, -8.41 -0.9 C-8.66 -0.34, -8.81 0.36, -8.4 0.99 C-7.98 1.61, -7.55 1.99, -5.92 2.87 C-4.29 3.76, -1.52 4.91, 1.37 6.31 C4.25 7.7, 9.29 10.28, 11.41 11.23 C13.53 12.18, 13.39 11.98, 14.09 12 C14.8 12.02, 15.27 11.65, 15.63 11.32 C16 10.99, 16.17 10.5, 16.28 10.03 C16.39 9.57, 16.46 8.99, 16.27 8.53 C16.09 8.06, 16.24 7.84, 15.19 7.22 C14.13 6.61, 12.12 5.86, 9.95 4.83 C7.78 3.8, 3.84 1.85, 2.18 1.04 C0.52 0.24, 0.36 0.17, 0 0 M0 0 C-0.73 -0.32, -3.24 -1.55, -4.4 -1.94 C-5.55 -2.34, -6.26 -2.54, -6.93 -2.36 C-7.6 -2.19, -8.17 -1.46, -8.41 -0.9 C-8.66 -0.34, -8.81 0.36, -8.4 0.99 C-7.98 1.61, -7.55 1.99, -5.92 2.87 C-4.29 3.76, -1.52 4.91, 1.37 6.31 C4.25 7.7, 9.29 10.28, 11.41 11.23 C13.53 12.18, 13.39 11.98, 14.09 12 C14.8 12.02, 15.27 11.65, 15.63 11.32 C16 10.99, 16.17 10.5, 16.28 10.03 C16.39 9.57, 16.46 8.99, 16.27 8.53 C16.09 8.06, 16.24 7.84, 15.19 7.22 C14.13 6.61, 12.12 5.86, 9.95 4.83 C7.78 3.8, 3.84 1.85, 2.18 1.04 C0.52 0.24, 0.36 0.17, 0 0" stroke="#E1E1E1" stroke-width="2" fill="none"></path></g></g><mask></mask><g stroke-linecap="round"><g transform="translate(208.01106500883907 87.37531255686463) rotate(0 -0.4214808324618389 2.6388898562818213)"><path d="M0 0 C-1.3 -0.67, -6.06 -3.21, -7.78 -4.01 C-9.5 -4.81, -9.61 -4.73, -10.32 -4.81 C-11.02 -4.88, -11.56 -4.84, -12.01 -4.46 C-12.47 -4.07, -13.07 -3.11, -13.05 -2.48 C-13.04 -1.84, -12.96 -1.43, -11.91 -0.66 C-10.85 0.12, -8.65 1.16, -6.72 2.16 C-4.79 3.16, -2.59 4.23, -0.33 5.32 C1.93 6.42, 5.12 7.94, 6.85 8.73 C8.59 9.53, 9.27 9.98, 10.08 10.08 C10.89 10.18, 11.36 9.7, 11.71 9.34 C12.07 8.97, 12.2 8.39, 12.21 7.9 C12.23 7.41, 12.35 7, 11.8 6.42 C11.26 5.84, 10.51 5.32, 8.93 4.44 C7.34 3.56, 3.79 1.87, 2.3 1.13 C0.81 0.39, 0.38 0.19, 0 0 M0 0 C-1.3 -0.67, -6.06 -3.21, -7.78 -4.01 C-9.5 -4.81, -9.61 -4.73, -10.32 -4.81 C-11.02 -4.88, -11.56 -4.84, -12.01 -4.46 C-12.47 -4.07, -13.07 -3.11, -13.05 -2.48 C-13.04 -1.84, -12.96 -1.43, -11.91 -0.66 C-10.85 0.12, -8.65 1.16, -6.72 2.16 C-4.79 3.16, -2.59 4.23, -0.33 5.32 C1.93 6.42, 5.12 7.94, 6.85 8.73 C8.59 9.53, 9.27 9.98, 10.08 10.08 C10.89 10.18, 11.36 9.7, 11.71 9.34 C12.07 8.97, 12.2 8.39, 12.21 7.9 C12.23 7.41, 12.35 7, 11.8 6.42 C11.26 5.84, 10.51 5.32, 8.93 4.44 C7.34 3.56, 3.79 1.87, 2.3 1.13 C0.81 0.39, 0.38 0.19, 0 0" stroke="#E1E1E1" stroke-width="2" fill="none"></path></g></g><mask></mask><g stroke-linecap="round"><g transform="translate(233.74470536931676 83.1842227525749) rotate(0 0.6035272916310532 3.0348119383920675)"><path d="M0 0 C-0.95 -0.49, -4.26 -2.21, -5.7 -2.92 C-7.15 -3.64, -7.85 -4.13, -8.67 -4.29 C-9.5 -4.45, -10.18 -4.22, -10.67 -3.9 C-11.15 -3.57, -11.52 -2.85, -11.57 -2.33 C-11.61 -1.81, -11.49 -1.34, -10.94 -0.77 C-10.38 -0.2, -9.6 0.3, -8.24 1.1 C-6.87 1.91, -5.27 2.74, -2.74 4.06 C-0.22 5.37, 4.78 7.94, 6.91 9 C9.04 10.05, 9.23 10.16, 10.04 10.36 C10.86 10.56, 11.34 10.45, 11.8 10.2 C12.25 9.95, 12.63 9.36, 12.78 8.86 C12.93 8.36, 13 7.74, 12.69 7.18 C12.38 6.63, 12.37 6.39, 10.93 5.54 C9.5 4.69, 5.89 3.01, 4.07 2.09 C2.25 1.16, 0.68 0.35, 0 0 M0 0 C-0.95 -0.49, -4.26 -2.21, -5.7 -2.92 C-7.15 -3.64, -7.85 -4.13, -8.67 -4.29 C-9.5 -4.45, -10.18 -4.22, -10.67 -3.9 C-11.15 -3.57, -11.52 -2.85, -11.57 -2.33 C-11.61 -1.81, -11.49 -1.34, -10.94 -0.77 C-10.38 -0.2, -9.6 0.3, -8.24 1.1 C-6.87 1.91, -5.27 2.74, -2.74 4.06 C-0.22 5.37, 4.78 7.94, 6.91 9 C9.04 10.05, 9.23 10.16, 10.04 10.36 C10.86 10.56, 11.34 10.45, 11.8 10.2 C12.25 9.95, 12.63 9.36, 12.78 8.86 C12.93 8.36, 13 7.74, 12.69 7.18 C12.38 6.63, 12.37 6.39, 10.93 5.54 C9.5 4.69, 5.89 3.01, 4.07 2.09 C2.25 1.16, 0.68 0.35, 0 0" stroke="#E1E1E1" stroke-width="2" fill="none"></path></g></g><mask></mask><g stroke-linecap="round"><g transform="translate(57.46947477191861 68.57019672024126) rotate(0 -0.04270861269242232 2.894414688955294)"><path d="M0 0 C-1.46 0.72, -6.78 3.32, -8.75 4.34 C-10.73 5.35, -11.17 5.55, -11.83 6.1 C-12.5 6.65, -12.69 7.05, -12.75 7.64 C-12.81 8.24, -12.57 9.2, -12.2 9.66 C-11.84 10.12, -11.48 10.51, -10.58 10.41 C-9.67 10.3, -9.04 10.14, -6.77 9.03 C-4.5 7.92, 0.2 5.21, 3.03 3.74 C5.87 2.26, 8.74 0.99, 10.26 0.19 C11.78 -0.61, 11.74 -0.54, 12.14 -1.06 C12.54 -1.57, 12.71 -2.32, 12.66 -2.88 C12.62 -3.44, 12.28 -4.12, 11.87 -4.41 C11.47 -4.7, 11.04 -4.74, 10.24 -4.62 C9.43 -4.5, 8.29 -4.21, 7.03 -3.66 C5.78 -3.12, 3.88 -1.95, 2.71 -1.34 C1.54 -0.73, 0.45 -0.22, 0 0 M0 0 C-1.46 0.72, -6.78 3.32, -8.75 4.34 C-10.73 5.35, -11.17 5.55, -11.83 6.1 C-12.5 6.65, -12.69 7.05, -12.75 7.64 C-12.81 8.24, -12.57 9.2, -12.2 9.66 C-11.84 10.12, -11.48 10.51, -10.58 10.41 C-9.67 10.3, -9.04 10.14, -6.77 9.03 C-4.5 7.92, 0.2 5.21, 3.03 3.74 C5.87 2.26, 8.74 0.99, 10.26 0.19 C11.78 -0.61, 11.74 -0.54, 12.14 -1.06 C12.54 -1.57, 12.71 -2.32, 12.66 -2.88 C12.62 -3.44, 12.28 -4.12, 11.87 -4.41 C11.47 -4.7, 11.04 -4.74, 10.24 -4.62 C9.43 -4.5, 8.29 -4.21, 7.03 -3.66 C5.78 -3.12, 3.88 -1.95, 2.71 -1.34 C1.54 -0.73, 0.45 -0.22, 0 0" stroke="#E1E1E1" stroke-width="2" fill="none"></path></g></g><mask></mask><g stroke-linecap="round"><g transform="translate(197.51368842674856 43.70719881777404) rotate(0 -65.22838296536202 105.68545515457299)"><path d="M0 0 C2.83 1.5, 10.72 5.69, 16.96 8.97 C23.21 12.26, 31.74 16.69, 37.49 19.71 C43.24 22.73, 48.56 25.52, 51.47 27.09 C54.39 28.67, 54.15 28.54, 54.99 29.15 C55.83 29.75, 56.2 30.02, 56.51 30.72 C56.81 31.42, 56.77 31.77, 56.82 33.37 C56.87 34.97, 56.81 36.81, 56.8 40.33 C56.78 43.84, 56.74 46.69, 56.72 54.48 C56.71 62.26, 56.67 73.01, 56.7 87.05 C56.73 101.1, 56.86 122.92, 56.9 138.75 C56.94 154.57, 56.92 172.42, 56.94 182 C56.96 191.58, 57 193.04, 57.01 196.21 C57.01 199.39, 57.12 199.94, 56.97 201.05 C56.82 202.15, 56.92 202.3, 56.12 202.85 C55.33 203.4, 55.26 203.28, 52.2 204.35 C49.14 205.42, 45.67 206.55, 37.77 209.28 C29.86 212.01, 15.81 216.83, 4.76 220.73 C-6.29 224.63, -18.26 229.05, -28.54 232.67 C-38.81 236.3, -51.1 240.44, -56.89 242.46 C-62.67 244.49, -61.65 244.41, -63.25 244.83 C-64.84 245.25, -65.05 245.25, -66.47 244.98 C-67.9 244.7, -67.98 244.48, -71.8 243.16 C-75.62 241.84, -81.59 239.8, -89.41 237.06 C-97.23 234.33, -110.12 229.81, -118.75 226.76 C-127.37 223.72, -131.07 222.33, -141.17 218.79 C-151.27 215.26, -171.81 208.26, -179.35 205.56 C-186.88 202.86, -185.04 203.49, -186.38 202.59 C-187.72 201.69, -187.22 201.2, -187.4 200.17 C-187.58 199.13, -187.45 202.81, -187.47 196.36 C-187.48 189.91, -187.47 173.35, -187.47 161.44 C-187.47 149.53, -187.47 136.25, -187.47 124.9 C-187.47 113.56, -187.47 101.34, -187.47 93.37 C-187.47 85.41, -187.47 84.46, -187.47 77.13 C-187.47 69.8, -187.47 56.51, -187.47 49.41 C-187.47 42.31, -187.57 37.75, -187.47 34.52 C-187.36 31.29, -187.77 31.32, -186.81 30.04 C-185.86 28.75, -185.69 28.99, -181.72 26.81 C-177.76 24.63, -170.64 20.94, -163.04 16.97 C-155.43 13.01, -144.73 7.53, -136.1 3.02 C-127.47 -1.49, -121.04 -4.98, -111.26 -10.09 C-101.48 -15.21, -84.7 -23.86, -77.42 -27.67 C-70.14 -31.47, -69.67 -31.92, -67.59 -32.91 C-65.5 -33.9, -65.89 -33.74, -64.91 -33.6 C-63.93 -33.47, -63.76 -33.1, -61.72 -32.07 C-59.67 -31.04, -56.65 -29.51, -52.65 -27.44 C-48.65 -25.36, -44.6 -23.23, -37.72 -19.63 C-30.83 -16.03, -17.62 -9.09, -11.34 -5.82 C-5.05 -2.55, -1.89 -0.97, 0 0 M0 0 C2.83 1.5, 10.72 5.69, 16.96 8.97 C23.21 12.26, 31.74 16.69, 37.49 19.71 C43.24 22.73, 48.56 25.52, 51.47 27.09 C54.39 28.67, 54.15 28.54, 54.99 29.15 C55.83 29.75, 56.2 30.02, 56.51 30.72 C56.81 31.42, 56.77 31.77, 56.82 33.37 C56.87 34.97, 56.81 36.81, 56.8 40.33 C56.78 43.84, 56.74 46.69, 56.72 54.48 C56.71 62.26, 56.67 73.01, 56.7 87.05 C56.73 101.1, 56.86 122.92, 56.9 138.75 C56.94 154.57, 56.92 172.42, 56.94 182 C56.96 191.58, 57 193.04, 57.01 196.21 C57.01 199.39, 57.12 199.94, 56.97 201.05 C56.82 202.15, 56.92 202.3, 56.12 202.85 C55.33 203.4, 55.26 203.28, 52.2 204.35 C49.14 205.42, 45.67 206.55, 37.77 209.28 C29.86 212.01, 15.81 216.83, 4.76 220.73 C-6.29 224.63, -18.26 229.05, -28.54 232.67 C-38.81 236.3, -51.1 240.44, -56.89 242.46 C-62.67 244.49, -61.65 244.41, -63.25 244.83 C-64.84 245.25, -65.05 245.25, -66.47 244.98 C-67.9 244.7, -67.98 244.48, -71.8 243.16 C-75.62 241.84, -81.59 239.8, -89.41 237.06 C-97.23 234.33, -110.12 229.81, -118.75 226.76 C-127.37 223.72, -131.07 222.33, -141.17 218.79 C-151.27 215.26, -171.81 208.26, -179.35 205.56 C-186.88 202.86, -185.04 203.49, -186.38 202.59 C-187.72 201.69, -187.22 201.2, -187.4 200.17 C-187.58 199.13, -187.45 202.81, -187.47 196.36 C-187.48 189.91, -187.47 173.35, -187.47 161.44 C-187.47 149.53, -187.47 136.25, -187.47 124.9 C-187.47 113.56, -187.47 101.34, -187.47 93.37 C-187.47 85.41, -187.47 84.46, -187.47 77.13 C-187.47 69.8, -187.47 56.51, -187.47 49.41 C-187.47 42.31, -187.57 37.75, -187.47 34.52 C-187.36 31.29, -187.77 31.32, -186.81 30.04 C-185.86 28.75, -185.69 28.99, -181.72 26.81 C-177.76 24.63, -170.64 20.94, -163.04 16.97 C-155.43 13.01, -144.73 7.53, -136.1 3.02 C-127.47 -1.49, -121.04 -4.98, -111.26 -10.09 C-101.48 -15.21, -84.7 -23.86, -77.42 -27.67 C-70.14 -31.47, -69.67 -31.92, -67.59 -32.91 C-65.5 -33.9, -65.89 -33.74, -64.91 -33.6 C-63.93 -33.47, -63.76 -33.1, -61.72 -32.07 C-59.67 -31.04, -56.65 -29.51, -52.65 -27.44 C-48.65 -25.36, -44.6 -23.23, -37.72 -19.63 C-30.83 -16.03, -17.62 -9.09, -11.34 -5.82 C-5.05 -2.55, -1.89 -0.97, 0 0" stroke="#E1E1E1" stroke-width="2" fill="none"></path></g></g><mask></mask></svg>