<svg version="1.1" xmlns="http://www.w3.org/2000/svg" viewBox="0 0 414.9622901664952 414.60912116657255" width="414.9622901664952" height="414.60912116657255" class="excalidraw-svg"><!-- svg-source:excalidraw --><metadata></metadata><defs><style class="style-fonts">
      </style></defs><rect x="0" y="0" width="414.9622901664952" height="414.60912116657255" fill="#000000"></rect><g stroke-linecap="round"><g transform="translate(15.962355432104232 349.6973735636984) rotate(0 3.3507498484059397 -1.185598363651934)"><path d="M0 0 C0 -0.53, 0 -2.15, 0 -3.19 C0 -4.23, -0.08 -5.46, 0 -6.24 C0.08 -7.01, 0.11 -7.51, 0.46 -7.84 C0.81 -8.16, 1.36 -8.11, 2.08 -8.17 C2.81 -8.23, 4.11 -8.26, 4.8 -8.21 C5.49 -8.16, 5.92 -8.19, 6.22 -7.87 C6.51 -7.55, 6.49 -7.37, 6.57 -6.28 C6.65 -5.19, 6.69 -2.9, 6.7 -1.31 C6.71 0.28, 6.7 2.1, 6.63 3.27 C6.56 4.43, 6.88 5.25, 6.28 5.68 C5.67 6.11, 3.97 5.83, 3.02 5.84 C2.08 5.85, 1.11 5.94, 0.62 5.72 C0.13 5.5, 0.2 5.46, 0.09 4.51 C-0.01 3.56, 0.02 0.75, 0 0 M0 0 C0 -0.53, 0 -2.15, 0 -3.19 C0 -4.23, -0.08 -5.46, 0 -6.24 C0.08 -7.01, 0.11 -7.51, 0.46 -7.84 C0.81 -8.16, 1.36 -8.11, 2.08 -8.17 C2.81 -8.23, 4.11 -8.26, 4.8 -8.21 C5.49 -8.16, 5.92 -8.19, 6.22 -7.87 C6.51 -7.55, 6.49 -7.37, 6.57 -6.28 C6.65 -5.19, 6.69 -2.9, 6.7 -1.31 C6.71 0.28, 6.7 2.1, 6.63 3.27 C6.56 4.43, 6.88 5.25, 6.28 5.68 C5.67 6.11, 3.97 5.83, 3.02 5.84 C2.08 5.85, 1.11 5.94, 0.62 5.72 C0.13 5.5, 0.2 5.46, 0.09 4.51 C-0.01 3.56, 0.02 0.75, 0 0" stroke="#E1E1E1" stroke-width="2" fill="none"></path></g></g><mask></mask><g stroke-linecap="round"><g transform="translate(28.170770166956572 347.52749906771805) rotate(0 3.3507498484059397 -1.5913779699908446)"><path d="M0 0 C0 -0.71, 0 -2.88, 0 -4.28 C0 -5.67, -0.08 -7.33, 0 -8.37 C0.08 -9.41, 0.11 -10.08, 0.46 -10.52 C0.81 -10.95, 1.36 -10.88, 2.08 -10.97 C2.81 -11.05, 4.11 -11.09, 4.8 -11.02 C5.49 -10.95, 5.92 -11, 6.22 -10.56 C6.51 -10.13, 6.49 -9.9, 6.57 -8.43 C6.65 -6.96, 6.69 -3.89, 6.7 -1.76 C6.71 0.38, 6.7 2.82, 6.63 4.38 C6.56 5.95, 6.88 7.05, 6.28 7.62 C5.67 8.2, 3.97 7.83, 3.02 7.84 C2.08 7.85, 1.11 7.98, 0.62 7.68 C0.13 7.38, 0.2 7.33, 0.09 6.05 C-0.01 4.77, 0.02 1.01, 0 0 M0 0 C0 -0.71, 0 -2.88, 0 -4.28 C0 -5.67, -0.08 -7.33, 0 -8.37 C0.08 -9.41, 0.11 -10.08, 0.46 -10.52 C0.81 -10.95, 1.36 -10.88, 2.08 -10.97 C2.81 -11.05, 4.11 -11.09, 4.8 -11.02 C5.49 -10.95, 5.92 -11, 6.22 -10.56 C6.51 -10.13, 6.49 -9.9, 6.57 -8.43 C6.65 -6.96, 6.69 -3.89, 6.7 -1.76 C6.71 0.38, 6.7 2.82, 6.63 4.38 C6.56 5.95, 6.88 7.05, 6.28 7.62 C5.67 8.2, 3.97 7.83, 3.02 7.84 C2.08 7.85, 1.11 7.98, 0.62 7.68 C0.13 7.38, 0.2 7.33, 0.09 6.05 C-0.01 4.77, 0.02 1.01, 0 0" stroke="#E1E1E1" stroke-width="2" fill="none"></path></g></g><mask></mask><g stroke-linecap="round"><g transform="translate(40.65205680535655 337.86328238105943) rotate(0 3.6767011253132296 -3.362800769077694)"><path d="M0 0 C0 -1.56, 0 -6.32, 0 -9.39 C0 -12.45, -0.08 -16.1, 0 -18.38 C0.08 -20.66, 0.12 -22.14, 0.5 -23.09 C0.88 -24.04, 1.49 -23.89, 2.28 -24.08 C3.08 -24.26, 4.51 -24.34, 5.27 -24.19 C6.03 -24.04, 6.5 -24.14, 6.82 -23.19 C7.15 -22.24, 7.12 -21.73, 7.21 -18.5 C7.3 -15.28, 7.34 -8.55, 7.35 -3.86 C7.36 0.83, 7.34 6.23, 7.28 9.63 C7.22 13.02, 7.57 15.19, 7.01 16.5 C6.45 17.81, 4.99 17.41, 3.93 17.47 C2.88 17.53, 1.32 17.55, 0.68 16.86 C0.04 16.16, 0.22 16.1, 0.1 13.29 C-0.01 10.48, 0.02 2.21, 0 0 M0 0 C0 -1.56, 0 -6.32, 0 -9.39 C0 -12.45, -0.08 -16.1, 0 -18.38 C0.08 -20.66, 0.12 -22.14, 0.5 -23.09 C0.88 -24.04, 1.49 -23.89, 2.28 -24.08 C3.08 -24.26, 4.51 -24.34, 5.27 -24.19 C6.03 -24.04, 6.5 -24.14, 6.82 -23.19 C7.15 -22.24, 7.12 -21.73, 7.21 -18.5 C7.3 -15.28, 7.34 -8.55, 7.35 -3.86 C7.36 0.83, 7.34 6.23, 7.28 9.63 C7.22 13.02, 7.57 15.19, 7.01 16.5 C6.45 17.81, 4.99 17.41, 3.93 17.47 C2.88 17.53, 1.32 17.55, 0.68 16.86 C0.04 16.16, 0.22 16.1, 0.1 13.29 C-0.01 10.48, 0.02 2.21, 0 0" stroke="#E1E1E1" stroke-width="2" fill="none"></path></g></g><mask></mask><g stroke-linecap="round"><g transform="translate(53.16834923850729 327.39041084868586) rotate(0 3.7516077996697277 -5.22633830447603)"><path d="M0 0 C0 -2.5, 0 -10.09, 0 -14.97 C0 -19.86, -0.03 -25.6, 0 -29.31 C0.03 -33.03, -0.19 -35.76, 0.19 -37.28 C0.57 -38.79, 1.35 -38.21, 2.28 -38.4 C3.22 -38.6, 4.95 -38.71, 5.79 -38.46 C6.62 -38.2, 7.04 -38.38, 7.3 -36.88 C7.56 -35.39, 7.34 -34.61, 7.35 -29.49 C7.36 -24.37, 7.33 -13.63, 7.35 -6.15 C7.38 1.32, 7.51 10.04, 7.51 15.37 C7.52 20.7, 7.51 23.76, 7.39 25.85 C7.28 27.94, 7.43 27.54, 6.85 27.9 C6.27 28.26, 4.9 27.99, 3.89 28 C2.87 28.02, 1.42 28.34, 0.77 27.99 C0.12 27.65, 0.12 27.09, -0.01 25.96 C-0.14 24.82, -0.01 25.52, -0.01 21.19 C-0.01 16.87, 0 3.53, 0 0 M0 0 C0 -2.5, 0 -10.09, 0 -14.97 C0 -19.86, -0.03 -25.6, 0 -29.31 C0.03 -33.03, -0.19 -35.76, 0.19 -37.28 C0.57 -38.79, 1.35 -38.21, 2.28 -38.4 C3.22 -38.6, 4.95 -38.71, 5.79 -38.46 C6.62 -38.2, 7.04 -38.38, 7.3 -36.88 C7.56 -35.39, 7.34 -34.61, 7.35 -29.49 C7.36 -24.37, 7.33 -13.63, 7.35 -6.15 C7.38 1.32, 7.51 10.04, 7.51 15.37 C7.52 20.7, 7.51 23.76, 7.39 25.85 C7.28 27.94, 7.43 27.54, 6.85 27.9 C6.27 28.26, 4.9 27.99, 3.89 28 C2.87 28.02, 1.42 28.34, 0.77 27.99 C0.12 27.65, 0.12 27.09, -0.01 25.96 C-0.14 24.82, -0.01 25.52, -0.01 21.19 C-0.01 16.87, 0 3.53, 0 0" stroke="#E1E1E1" stroke-width="2" fill="none"></path></g></g><mask></mask><g stroke-linecap="round"><g transform="translate(65.79913671795839 316.1895098008072) rotate(0 3.7516077996697277 -7.072361571893907)"><path d="M0 0 C0 -3.46, 0 -13.99, 0 -20.77 C0 -27.55, -0.03 -35.51, 0 -40.66 C0.03 -45.82, -0.09 -49.6, 0.19 -51.71 C0.48 -53.82, 0.64 -53.07, 1.7 -53.34 C2.76 -53.61, 5.62 -53.7, 6.55 -53.33 C7.49 -52.97, 7.16 -53.23, 7.3 -51.16 C7.43 -49.09, 7.34 -48.01, 7.35 -40.91 C7.36 -33.8, 7.33 -18.91, 7.35 -8.54 C7.38 1.84, 7.51 13.92, 7.51 21.32 C7.52 28.72, 7.51 32.96, 7.39 35.86 C7.28 38.76, 7.43 38.15, 6.85 38.71 C6.27 39.26, 4.93 39.17, 3.91 39.19 C2.9 39.21, 1.42 39.37, 0.77 38.83 C0.12 38.3, 0.12 37.58, -0.01 36.01 C-0.14 34.43, -0.01 35.4, -0.01 29.4 C-0.01 23.4, 0 4.9, 0 0 M0 0 C0 -3.46, 0 -13.99, 0 -20.77 C0 -27.55, -0.03 -35.51, 0 -40.66 C0.03 -45.82, -0.09 -49.6, 0.19 -51.71 C0.48 -53.82, 0.64 -53.07, 1.7 -53.34 C2.76 -53.61, 5.62 -53.7, 6.55 -53.33 C7.49 -52.97, 7.16 -53.23, 7.3 -51.16 C7.43 -49.09, 7.34 -48.01, 7.35 -40.91 C7.36 -33.8, 7.33 -18.91, 7.35 -8.54 C7.38 1.84, 7.51 13.92, 7.51 21.32 C7.52 28.72, 7.51 32.96, 7.39 35.86 C7.28 38.76, 7.43 38.15, 6.85 38.71 C6.27 39.26, 4.93 39.17, 3.91 39.19 C2.9 39.21, 1.42 39.37, 0.77 38.83 C0.12 38.3, 0.12 37.58, -0.01 36.01 C-0.14 34.43, -0.01 35.4, -0.01 29.4 C-0.01 23.4, 0 4.9, 0 0" stroke="#E1E1E1" stroke-width="2" fill="none"></path></g></g><mask></mask><g stroke-linecap="round"><g transform="translate(78.7582352716363 320.5804154474263) rotate(0 3.4899466573979225 -6.12118187692613)"><path d="M0 0 C0 -3.05, 0 -12.34, 0 -18.31 C0 -24.28, 0.01 -31.34, 0 -35.84 C-0.01 -40.35, -0.24 -43.51, -0.04 -45.33 C0.17 -47.15, 0.24 -46.53, 1.22 -46.77 C2.19 -47.01, 4.88 -47.07, 5.81 -46.79 C6.74 -46.51, 6.64 -46.89, 6.81 -45.1 C6.99 -43.31, 6.85 -42.32, 6.86 -36.06 C6.87 -29.8, 6.84 -16.67, 6.87 -7.52 C6.89 1.62, 7.01 12.27, 7.02 18.79 C7.02 25.32, 7.01 29.06, 6.9 31.61 C6.8 34.16, 6.94 33.63, 6.4 34.12 C5.85 34.61, 4.6 34.53, 3.65 34.55 C2.71 34.57, 1.33 34.7, 0.72 34.23 C0.11 33.76, 0.11 33.12, -0.01 31.74 C-0.13 30.35, -0.01 31.2, -0.01 25.92 C-0.01 20.63, 0 4.32, 0 0 M0 0 C0 -3.05, 0 -12.34, 0 -18.31 C0 -24.28, 0.01 -31.34, 0 -35.84 C-0.01 -40.35, -0.24 -43.51, -0.04 -45.33 C0.17 -47.15, 0.24 -46.53, 1.22 -46.77 C2.19 -47.01, 4.88 -47.07, 5.81 -46.79 C6.74 -46.51, 6.64 -46.89, 6.81 -45.1 C6.99 -43.31, 6.85 -42.32, 6.86 -36.06 C6.87 -29.8, 6.84 -16.67, 6.87 -7.52 C6.89 1.62, 7.01 12.27, 7.02 18.79 C7.02 25.32, 7.01 29.06, 6.9 31.61 C6.8 34.16, 6.94 33.63, 6.4 34.12 C5.85 34.61, 4.6 34.53, 3.65 34.55 C2.71 34.57, 1.33 34.7, 0.72 34.23 C0.11 33.76, 0.11 33.12, -0.01 31.74 C-0.13 30.35, -0.01 31.2, -0.01 25.92 C-0.01 20.63, 0 4.32, 0 0" stroke="#E1E1E1" stroke-width="2" fill="none"></path></g></g><mask></mask><g stroke-linecap="round"><g transform="translate(91.3326438690674 322.97426109590015) rotate(0 3.4899466573979225 -5.703511534115023)"><path d="M0 0 C0 -2.84, 0 -11.49, 0 -17.06 C0 -22.63, 0.01 -29.2, 0 -33.4 C-0.01 -37.59, -0.24 -40.54, -0.04 -42.24 C0.17 -43.93, 0.24 -43.35, 1.22 -43.58 C2.19 -43.81, 4.88 -43.86, 5.81 -43.6 C6.74 -43.34, 6.64 -43.69, 6.81 -42.02 C6.99 -40.35, 6.85 -39.43, 6.86 -33.6 C6.87 -27.76, 6.84 -15.53, 6.87 -7.01 C6.89 1.51, 7.01 11.43, 7.02 17.51 C7.02 23.59, 7.01 27.07, 6.9 29.45 C6.8 31.83, 6.94 31.33, 6.4 31.79 C5.85 32.25, 4.6 32.17, 3.65 32.19 C2.71 32.21, 1.33 32.33, 0.72 31.89 C0.11 31.46, 0.11 30.86, -0.01 29.57 C-0.13 28.28, -0.01 29.08, -0.01 24.15 C-0.01 19.22, 0 4.02, 0 0 M0 0 C0 -2.84, 0 -11.49, 0 -17.06 C0 -22.63, 0.01 -29.2, 0 -33.4 C-0.01 -37.59, -0.24 -40.54, -0.04 -42.24 C0.17 -43.93, 0.24 -43.35, 1.22 -43.58 C2.19 -43.81, 4.88 -43.86, 5.81 -43.6 C6.74 -43.34, 6.64 -43.69, 6.81 -42.02 C6.99 -40.35, 6.85 -39.43, 6.86 -33.6 C6.87 -27.76, 6.84 -15.53, 6.87 -7.01 C6.89 1.51, 7.01 11.43, 7.02 17.51 C7.02 23.59, 7.01 27.07, 6.9 29.45 C6.8 31.83, 6.94 31.33, 6.4 31.79 C5.85 32.25, 4.6 32.17, 3.65 32.19 C2.71 32.21, 1.33 32.33, 0.72 31.89 C0.11 31.46, 0.11 30.86, -0.01 29.57 C-0.13 28.28, -0.01 29.08, -0.01 24.15 C-0.01 19.22, 0 4.02, 0 0" stroke="#E1E1E1" stroke-width="2" fill="none"></path></g></g><mask></mask><g stroke-linecap="round"><g transform="translate(103.8067011189487 327.0771861794792) rotate(0 3.2793848924829945 -4.998147496717138)"><path d="M0 0 C0 -2.49, 0 -10.07, 0 -14.95 C0 -19.83, 0.02 -25.75, 0 -29.27 C-0.02 -32.78, -0.34 -34.56, -0.15 -36.05 C0.05 -37.53, 0.21 -37.83, 1.16 -38.19 C2.12 -38.55, 4.64 -38.57, 5.56 -38.21 C6.47 -37.84, 6.48 -37.45, 6.65 -35.99 C6.81 -34.53, 6.57 -34.42, 6.56 -29.44 C6.55 -24.47, 6.54 -13.61, 6.56 -6.14 C6.59 1.32, 6.7 10.02, 6.71 15.35 C6.71 20.67, 6.7 23.72, 6.6 25.81 C6.5 27.9, 6.63 27.46, 6.11 27.86 C5.6 28.26, 4.4 28.19, 3.49 28.21 C2.59 28.22, 1.27 28.33, 0.69 27.95 C0.1 27.57, 0.11 27.05, -0.01 25.91 C-0.12 24.78, -0.01 25.48, -0.01 21.16 C-0.01 16.84, 0 3.53, 0 0 M0 0 C0 -2.49, 0 -10.07, 0 -14.95 C0 -19.83, 0.02 -25.75, 0 -29.27 C-0.02 -32.78, -0.34 -34.56, -0.15 -36.05 C0.05 -37.53, 0.21 -37.83, 1.16 -38.19 C2.12 -38.55, 4.64 -38.57, 5.56 -38.21 C6.47 -37.84, 6.48 -37.45, 6.65 -35.99 C6.81 -34.53, 6.57 -34.42, 6.56 -29.44 C6.55 -24.47, 6.54 -13.61, 6.56 -6.14 C6.59 1.32, 6.7 10.02, 6.71 15.35 C6.71 20.67, 6.7 23.72, 6.6 25.81 C6.5 27.9, 6.63 27.46, 6.11 27.86 C5.6 28.26, 4.4 28.19, 3.49 28.21 C2.59 28.22, 1.27 28.33, 0.69 27.95 C0.1 27.57, 0.11 27.05, -0.01 25.91 C-0.12 24.78, -0.01 25.48, -0.01 21.16 C-0.01 16.84, 0 3.53, 0 0" stroke="#E1E1E1" stroke-width="2" fill="none"></path></g></g><mask></mask><g stroke-linecap="round"><g transform="translate(116.112840491518 346.27145397943514) rotate(0 3.3707008891442456 -1.7185914864408005)"><path d="M0 0 C0 -0.81, 0 -3.27, 0 -4.86 C0 -6.44, -0.08 -8.33, 0 -9.51 C0.08 -10.69, 0.11 -11.46, 0.46 -11.95 C0.81 -12.44, 1.36 -12.36, 2.08 -12.46 C2.81 -12.55, 4.11 -12.6, 4.8 -12.52 C5.49 -12.44, 5.92 -12.49, 6.22 -12 C6.51 -11.51, 6.49 -11.24, 6.57 -9.58 C6.65 -7.91, 6.67 -4.55, 6.7 -2 C6.73 0.56, 6.81 3.97, 6.74 5.75 C6.67 7.53, 6.88 8.1, 6.28 8.66 C5.67 9.21, 4.08 9.07, 3.14 9.08 C2.2 9.09, 1.13 9.09, 0.62 8.72 C0.11 8.36, 0.2 8.33, 0.09 6.88 C-0.01 5.42, 0.02 1.15, 0 0 M0 0 C0 -0.81, 0 -3.27, 0 -4.86 C0 -6.44, -0.08 -8.33, 0 -9.51 C0.08 -10.69, 0.11 -11.46, 0.46 -11.95 C0.81 -12.44, 1.36 -12.36, 2.08 -12.46 C2.81 -12.55, 4.11 -12.6, 4.8 -12.52 C5.49 -12.44, 5.92 -12.49, 6.22 -12 C6.51 -11.51, 6.49 -11.24, 6.57 -9.58 C6.65 -7.91, 6.67 -4.55, 6.7 -2 C6.73 0.56, 6.81 3.97, 6.74 5.75 C6.67 7.53, 6.88 8.1, 6.28 8.66 C5.67 9.21, 4.08 9.07, 3.14 9.08 C2.2 9.09, 1.13 9.09, 0.62 8.72 C0.11 8.36, 0.2 8.33, 0.09 6.88 C-0.01 5.42, 0.02 1.15, 0 0" stroke="#E1E1E1" stroke-width="2" fill="none"></path></g></g><mask></mask><g stroke-linecap="round"><g transform="translate(141.20774828325193 345.6126009558784) rotate(0 3.3507498484059397 -1.8424107644814285)"><path d="M0 0 C0 -0.87, 0 -3.51, 0 -5.21 C0 -6.91, -0.08 -8.93, 0 -10.2 C0.08 -11.46, 0.11 -12.28, 0.46 -12.81 C0.81 -13.34, 1.36 -13.25, 2.08 -13.36 C2.81 -13.46, 4.11 -13.5, 4.8 -13.42 C5.49 -13.34, 5.92 -13.39, 6.22 -12.87 C6.51 -12.34, 6.49 -12.05, 6.57 -10.27 C6.65 -8.48, 6.69 -4.74, 6.7 -2.14 C6.71 0.46, 6.7 3.44, 6.63 5.34 C6.56 7.24, 6.86 8.55, 6.28 9.28 C5.69 10.02, 4.08 9.73, 3.14 9.74 C2.2 9.75, 1.13 9.75, 0.62 9.35 C0.11 8.96, 0.2 8.93, 0.09 7.37 C-0.01 5.81, 0.02 1.23, 0 0 M0 0 C0 -0.87, 0 -3.51, 0 -5.21 C0 -6.91, -0.08 -8.93, 0 -10.2 C0.08 -11.46, 0.11 -12.28, 0.46 -12.81 C0.81 -13.34, 1.36 -13.25, 2.08 -13.36 C2.81 -13.46, 4.11 -13.5, 4.8 -13.42 C5.49 -13.34, 5.92 -13.39, 6.22 -12.87 C6.51 -12.34, 6.49 -12.05, 6.57 -10.27 C6.65 -8.48, 6.69 -4.74, 6.7 -2.14 C6.71 0.46, 6.7 3.44, 6.63 5.34 C6.56 7.24, 6.86 8.55, 6.28 9.28 C5.69 10.02, 4.08 9.73, 3.14 9.74 C2.2 9.75, 1.13 9.75, 0.62 9.35 C0.11 8.96, 0.2 8.93, 0.09 7.37 C-0.01 5.81, 0.02 1.23, 0 0" stroke="#E1E1E1" stroke-width="2" fill="none"></path></g></g><mask></mask><g stroke-linecap="round"><g transform="translate(128.55818997940332 349.638242005607) rotate(0 3.3707008891442456 -1.058489288214787)"><path d="M0 0 C0 -0.5, 0 -2.02, 0 -2.99 C0 -3.97, -0.08 -5.13, 0 -5.86 C0.08 -6.59, 0.11 -7.06, 0.46 -7.36 C0.81 -7.66, 1.36 -7.62, 2.08 -7.67 C2.81 -7.73, 4.11 -7.76, 4.8 -7.71 C5.49 -7.66, 5.92 -7.69, 6.22 -7.39 C6.51 -7.09, 6.49 -6.93, 6.57 -5.9 C6.65 -4.87, 6.67 -2.8, 6.7 -1.23 C6.73 0.34, 6.81 2.45, 6.74 3.54 C6.67 4.64, 6.88 4.99, 6.28 5.33 C5.67 5.68, 4.08 5.59, 3.14 5.59 C2.2 5.6, 1.13 5.6, 0.62 5.37 C0.11 5.15, 0.2 5.13, 0.09 4.24 C-0.01 3.34, 0.02 0.71, 0 0 M0 0 C0 -0.5, 0 -2.02, 0 -2.99 C0 -3.97, -0.08 -5.13, 0 -5.86 C0.08 -6.59, 0.11 -7.06, 0.46 -7.36 C0.81 -7.66, 1.36 -7.62, 2.08 -7.67 C2.81 -7.73, 4.11 -7.76, 4.8 -7.71 C5.49 -7.66, 5.92 -7.69, 6.22 -7.39 C6.51 -7.09, 6.49 -6.93, 6.57 -5.9 C6.65 -4.87, 6.67 -2.8, 6.7 -1.23 C6.73 0.34, 6.81 2.45, 6.74 3.54 C6.67 4.64, 6.88 4.99, 6.28 5.33 C5.67 5.68, 4.08 5.59, 3.14 5.59 C2.2 5.6, 1.13 5.6, 0.62 5.37 C0.11 5.15, 0.2 5.13, 0.09 4.24 C-0.01 3.34, 0.02 0.71, 0 0" stroke="#E1E1E1" stroke-width="2" fill="none"></path></g></g><mask></mask><g stroke-linecap="round"><g transform="translate(153.920180880501 326.9804708810807) rotate(0 3.2793848924829945 -4.985285627181838)"><path d="M0 0 C0 -2.49, 0 -10.05, 0 -14.91 C0 -19.78, 0.02 -25.69, 0 -29.19 C-0.02 -32.7, -0.34 -34.47, -0.15 -35.95 C0.05 -37.44, 0.21 -37.73, 1.16 -38.09 C2.12 -38.45, 4.64 -38.47, 5.56 -38.11 C6.47 -37.74, 6.48 -37.35, 6.65 -35.89 C6.81 -34.44, 6.57 -34.33, 6.56 -29.37 C6.55 -24.41, 6.54 -13.57, 6.56 -6.13 C6.59 1.32, 6.7 9.99, 6.71 15.31 C6.71 20.62, 6.7 23.66, 6.6 25.74 C6.5 27.82, 6.63 27.39, 6.11 27.79 C5.6 28.18, 4.4 28.12, 3.49 28.14 C2.59 28.15, 1.27 28.26, 0.69 27.88 C0.1 27.5, 0.11 26.98, -0.01 25.85 C-0.12 24.72, -0.01 25.41, -0.01 21.11 C-0.01 16.8, 0 3.52, 0 0 M0 0 C0 -2.49, 0 -10.05, 0 -14.91 C0 -19.78, 0.02 -25.69, 0 -29.19 C-0.02 -32.7, -0.34 -34.47, -0.15 -35.95 C0.05 -37.44, 0.21 -37.73, 1.16 -38.09 C2.12 -38.45, 4.64 -38.47, 5.56 -38.11 C6.47 -37.74, 6.48 -37.35, 6.65 -35.89 C6.81 -34.44, 6.57 -34.33, 6.56 -29.37 C6.55 -24.41, 6.54 -13.57, 6.56 -6.13 C6.59 1.32, 6.7 9.99, 6.71 15.31 C6.71 20.62, 6.7 23.66, 6.6 25.74 C6.5 27.82, 6.63 27.39, 6.11 27.79 C5.6 28.18, 4.4 28.12, 3.49 28.14 C2.59 28.15, 1.27 28.26, 0.69 27.88 C0.1 27.5, 0.11 26.98, -0.01 25.85 C-0.12 24.72, -0.01 25.41, -0.01 21.11 C-0.01 16.8, 0 3.52, 0 0" stroke="#E1E1E1" stroke-width="2" fill="none"></path></g></g><mask></mask><g stroke-linecap="round"><g transform="translate(179.37765436855443 328.5239462640884) rotate(0 3.2793848924829945 -4.757760691985368)"><path d="M0 0 C0 -2.37, 0 -9.59, 0 -14.23 C0 -18.87, 0.02 -24.51, 0 -27.86 C-0.02 -31.21, -0.34 -32.9, -0.15 -34.31 C0.05 -35.73, 0.21 -36.01, 1.16 -36.35 C2.12 -36.7, 4.64 -36.72, 5.56 -36.37 C6.47 -36.02, 6.48 -35.65, 6.65 -34.26 C6.81 -32.87, 6.57 -32.76, 6.56 -28.03 C6.55 -23.29, 6.54 -12.95, 6.56 -5.85 C6.59 1.26, 6.7 9.54, 6.71 14.61 C6.71 19.68, 6.7 22.58, 6.6 24.57 C6.5 26.55, 6.63 26.14, 6.11 26.52 C5.6 26.9, 4.4 26.84, 3.49 26.85 C2.59 26.87, 1.27 26.97, 0.69 26.61 C0.1 26.24, 0.11 25.75, -0.01 24.67 C-0.12 23.59, -0.01 24.25, -0.01 20.14 C-0.01 16.03, 0 3.36, 0 0 M0 0 C0 -2.37, 0 -9.59, 0 -14.23 C0 -18.87, 0.02 -24.51, 0 -27.86 C-0.02 -31.21, -0.34 -32.9, -0.15 -34.31 C0.05 -35.73, 0.21 -36.01, 1.16 -36.35 C2.12 -36.7, 4.64 -36.72, 5.56 -36.37 C6.47 -36.02, 6.48 -35.65, 6.65 -34.26 C6.81 -32.87, 6.57 -32.76, 6.56 -28.03 C6.55 -23.29, 6.54 -12.95, 6.56 -5.85 C6.59 1.26, 6.7 9.54, 6.71 14.61 C6.71 19.68, 6.7 22.58, 6.6 24.57 C6.5 26.55, 6.63 26.14, 6.11 26.52 C5.6 26.9, 4.4 26.84, 3.49 26.85 C2.59 26.87, 1.27 26.97, 0.69 26.61 C0.1 26.24, 0.11 25.75, -0.01 24.67 C-0.12 23.59, -0.01 24.25, -0.01 20.14 C-0.01 16.03, 0 3.36, 0 0" stroke="#E1E1E1" stroke-width="2" fill="none"></path></g></g><mask></mask><g stroke-linecap="round"><g transform="translate(166.48156825855585 338.0715820186424) rotate(0 3.371470548346224 -9.80343144641256)"><path d="M0 0 C0 -2.54, 0 -10.64, -0.01 -15.21 C-0.02 -19.79, -0.07 -24.15, -0.08 -27.43 C-0.08 -30.71, -0.26 -33.35, -0.04 -34.88 C0.19 -36.4, 0.33 -36.32, 1.28 -36.61 C2.23 -36.9, 4.76 -36.92, 5.67 -36.62 C6.58 -36.32, 6.59 -36.01, 6.76 -34.83 C6.93 -33.65, 6.69 -33.56, 6.67 -29.54 C6.66 -25.53, 6.65 -16.76, 6.68 -10.73 C6.7 -4.7, 6.81 2.32, 6.82 6.63 C6.83 10.93, 6.81 13.39, 6.71 15.08 C6.62 16.76, 6.75 16.41, 6.23 16.73 C5.71 17.05, 4.51 17, 3.61 17.01 C2.7 17.03, 1.38 17.11, 0.8 16.8 C0.22 16.5, 0.25 16.06, 0.11 15.16 C-0.04 14.26, -0.02 13.92, -0.04 11.39 C-0.06 8.87, -0.01 1.9, 0 0 M0 0 C0 -2.54, 0 -10.64, -0.01 -15.21 C-0.02 -19.79, -0.07 -24.15, -0.08 -27.43 C-0.08 -30.71, -0.26 -33.35, -0.04 -34.88 C0.19 -36.4, 0.33 -36.32, 1.28 -36.61 C2.23 -36.9, 4.76 -36.92, 5.67 -36.62 C6.58 -36.32, 6.59 -36.01, 6.76 -34.83 C6.93 -33.65, 6.69 -33.56, 6.67 -29.54 C6.66 -25.53, 6.65 -16.76, 6.68 -10.73 C6.7 -4.7, 6.81 2.32, 6.82 6.63 C6.83 10.93, 6.81 13.39, 6.71 15.08 C6.62 16.76, 6.75 16.41, 6.23 16.73 C5.71 17.05, 4.51 17, 3.61 17.01 C2.7 17.03, 1.38 17.11, 0.8 16.8 C0.22 16.5, 0.25 16.06, 0.11 15.16 C-0.04 14.26, -0.02 13.92, -0.04 11.39 C-0.06 8.87, -0.01 1.9, 0 0" stroke="#E1E1E1" stroke-width="2" fill="none"></path></g></g><mask></mask><g stroke-linecap="round"><g transform="translate(191.57326969550195 339.42407164349424) rotate(0 3.371470548346224 -9.314426953388647)"><path d="M0 0 C0 -2.41, 0 -10.11, -0.01 -14.45 C-0.02 -18.8, -0.07 -22.95, -0.08 -26.06 C-0.08 -29.18, -0.26 -31.68, -0.04 -33.14 C0.19 -34.59, 0.33 -34.51, 1.28 -34.78 C2.23 -35.06, 4.76 -35.08, 5.67 -34.79 C6.58 -34.51, 6.59 -34.21, 6.76 -33.09 C6.93 -31.97, 6.69 -31.89, 6.67 -28.07 C6.66 -24.25, 6.65 -15.92, 6.68 -10.19 C6.7 -4.47, 6.82 2.41, 6.82 6.29 C6.82 10.18, 6.8 11.53, 6.7 13.13 C6.6 14.73, 6.74 15.39, 6.23 15.89 C5.71 16.4, 4.51 16.15, 3.61 16.16 C2.7 16.18, 1.38 16.26, 0.8 15.97 C0.22 15.67, 0.25 15.26, 0.11 14.4 C-0.04 13.55, -0.02 13.22, -0.04 10.82 C-0.06 8.42, -0.01 1.8, 0 0 M0 0 C0 -2.41, 0 -10.11, -0.01 -14.45 C-0.02 -18.8, -0.07 -22.95, -0.08 -26.06 C-0.08 -29.18, -0.26 -31.68, -0.04 -33.14 C0.19 -34.59, 0.33 -34.51, 1.28 -34.78 C2.23 -35.06, 4.76 -35.08, 5.67 -34.79 C6.58 -34.51, 6.59 -34.21, 6.76 -33.09 C6.93 -31.97, 6.69 -31.89, 6.67 -28.07 C6.66 -24.25, 6.65 -15.92, 6.68 -10.19 C6.7 -4.47, 6.82 2.41, 6.82 6.29 C6.82 10.18, 6.8 11.53, 6.7 13.13 C6.6 14.73, 6.74 15.39, 6.23 15.89 C5.71 16.4, 4.51 16.15, 3.61 16.16 C2.7 16.18, 1.38 16.26, 0.8 15.97 C0.22 15.67, 0.25 15.26, 0.11 14.4 C-0.04 13.55, -0.02 13.22, -0.04 10.82 C-0.06 8.42, -0.01 1.8, 0 0" stroke="#E1E1E1" stroke-width="2" fill="none"></path></g></g><mask></mask><g stroke-linecap="round"><g transform="translate(150.2046383534289 360.23855962424386) rotate(0 57.32972402539417 -97.78829307813248)"><path d="M0 0 C-3.43 0, -13.72 0, -20.6 0 C-27.49 0, -35.54 0, -41.31 0 C-47.08 0, -50.2 0, -55.23 0 C-60.26 0, -62.83 0, -71.51 0 C-80.18 0, -98.08 0, -107.28 0 C-116.49 0, -122.11 0, -126.74 0 C-131.37 0, -133.22 0.02, -135.06 0 C-136.89 -0.02, -137.06 0.04, -137.74 -0.11 C-138.43 -0.26, -138.81 -0.51, -139.16 -0.89 C-139.51 -1.28, -139.71 -1.67, -139.84 -2.43 C-139.98 -3.19, -139.93 -3.27, -139.95 -5.44 C-139.97 -7.62, -139.95 -13.01, -139.95 -15.49 C-139.95 -17.97, -140 -19.12, -139.95 -20.31 C-139.91 -21.5, -140 -22.06, -139.67 -22.64 C-139.33 -23.23, -138.8 -23.59, -137.95 -23.81 C-137.11 -24.03, -135.75 -23.95, -134.6 -23.98 C-133.46 -24.01, -132.07 -23.97, -131.09 -23.98 C-130.11 -23.99, -129.23 -23.89, -128.71 -24.03 C-128.19 -24.17, -128.15 -24.37, -127.97 -24.82 C-127.79 -25.27, -127.78 -26.15, -127.62 -26.72 C-127.47 -27.29, -127.35 -27.81, -127.03 -28.24 C-126.72 -28.68, -126.4 -29.14, -125.74 -29.34 C-125.09 -29.54, -124.3 -29.43, -123.09 -29.45 C-121.88 -29.46, -119.65 -29.42, -118.49 -29.45 C-117.32 -29.47, -116.62 -29.34, -116.09 -29.6 C-115.56 -29.86, -115.46 -30.13, -115.31 -31 C-115.16 -31.88, -115.2 -32.71, -115.18 -34.85 C-115.16 -36.99, -115.18 -41.48, -115.18 -43.84 C-115.18 -46.21, -115.22 -47.85, -115.18 -49.03 C-115.15 -50.21, -115.15 -50.43, -114.97 -50.92 C-114.79 -51.41, -114.52 -51.72, -114.08 -51.97 C-113.64 -52.22, -113.17 -52.35, -112.34 -52.43 C-111.51 -52.51, -110.11 -52.45, -109.09 -52.45 C-108.06 -52.45, -107.17 -52.45, -106.19 -52.45 C-105.21 -52.45, -103.79 -52.27, -103.18 -52.45 C-102.58 -52.63, -102.69 -53.1, -102.56 -53.53 C-102.43 -53.96, -102.43 -54.6, -102.39 -55.03 C-102.36 -55.46, -102.35 -54.6, -102.34 -56.11 C-102.34 -57.61, -102.34 -61.5, -102.34 -64.06 C-102.34 -66.61, -102.35 -69.66, -102.34 -71.45 C-102.33 -73.24, -102.44 -74, -102.28 -74.8 C-102.11 -75.61, -101.77 -75.92, -101.34 -76.28 C-100.91 -76.63, -100.52 -76.8, -99.72 -76.92 C-98.92 -77.04, -97.73 -76.99, -96.54 -77.01 C-95.34 -77.02, -93.64 -76.9, -92.55 -77.01 C-91.46 -77.11, -90.54 -77.24, -90.01 -77.64 C-89.48 -78.04, -89.45 -78.39, -89.34 -79.41 C-89.23 -80.43, -89.34 -80.99, -89.34 -83.77 C-89.34 -86.56, -89.34 -93.32, -89.34 -96.11 C-89.34 -98.9, -89.45 -99.48, -89.34 -100.52 C-89.23 -101.56, -89.03 -101.86, -88.66 -102.34 C-88.29 -102.82, -87.92 -103.19, -87.12 -103.39 C-86.31 -103.6, -85.37 -103.54, -83.81 -103.57 C-82.25 -103.6, -79.35 -103.57, -77.75 -103.57 C-76.14 -103.57, -75.04 -103.77, -74.18 -103.57 C-73.31 -103.36, -72.9 -103.03, -72.54 -102.34 C-72.18 -101.66, -72.11 -100.72, -72.02 -99.46 C-71.92 -98.21, -72.1 -95.88, -71.98 -94.83 C-71.85 -93.79, -71.67 -93.54, -71.28 -93.19 C-70.9 -92.83, -70.38 -92.79, -69.66 -92.71 C-68.94 -92.63, -68.11 -92.71, -66.97 -92.71 C-65.84 -92.71, -63.91 -92.72, -62.84 -92.71 C-61.77 -92.69, -61.12 -92.89, -60.55 -92.63 C-59.99 -92.38, -59.71 -91.76, -59.46 -91.2 C-59.21 -90.63, -59.16 -89.89, -59.03 -89.25 C-58.9 -88.61, -58.95 -87.79, -58.69 -87.33 C-58.44 -86.87, -58.19 -86.63, -57.51 -86.49 C-56.83 -86.35, -55.73 -86.49, -54.63 -86.49 C-53.53 -86.49, -51.88 -86.49, -50.89 -86.49 C-49.9 -86.49, -49.28 -86.65, -48.7 -86.49 C-48.11 -86.32, -47.71 -85.9, -47.37 -85.49 C-47.04 -85.07, -46.85 -84.9, -46.69 -83.99 C-46.53 -83.09, -46.53 -81.07, -46.43 -80.07 C-46.33 -79.06, -46.35 -78.45, -46.09 -77.98 C-45.82 -77.51, -45.46 -77.37, -44.86 -77.25 C-44.26 -77.12, -43.54 -77.23, -42.49 -77.23 C-41.44 -77.22, -39.58 -77.23, -38.57 -77.23 C-37.56 -77.23, -37.03 -77.39, -36.42 -77.23 C-35.8 -77.07, -35.26 -76.83, -34.89 -76.26 C-34.53 -75.68, -34.33 -75.2, -34.21 -73.78 C-34.1 -72.36, -34.19 -70.63, -34.19 -67.74 C-34.19 -64.84, -34.19 -60.2, -34.19 -56.41 C-34.19 -52.62, -34.19 -48, -34.19 -45.01 C-34.19 -42.02, -34.19 -40.32, -34.19 -38.47 C-34.19 -36.62, -34.29 -34.92, -34.19 -33.93 C-34.09 -32.94, -34.08 -32.81, -33.58 -32.55 C-33.09 -32.29, -32.62 -32.41, -31.23 -32.38 C-29.84 -32.35, -26.66 -32.42, -25.25 -32.38 C-23.85 -32.35, -23.42 -32.48, -22.82 -32.17 C-22.21 -31.86, -21.85 -31.23, -21.64 -30.51 C-21.43 -29.79, -21.58 -28.71, -21.55 -27.82 C-21.52 -26.94, -21.64 -25.76, -21.47 -25.21 C-21.29 -24.66, -21.12 -24.64, -20.5 -24.51 C-19.88 -24.38, -18.58 -24.45, -17.77 -24.44 C-16.96 -24.44, -16.1 -24.33, -15.64 -24.49 C-15.18 -24.66, -15.11 -24.83, -15 -25.42 C-14.89 -26.01, -14.98 -27.05, -14.97 -28.03 C-14.96 -29.01, -15.14 -30.47, -14.96 -31.3 C-14.79 -32.14, -14.4 -32.6, -13.94 -33.03 C-13.48 -33.45, -13.07 -33.69, -12.21 -33.86 C-11.35 -34.02, -10.05 -33.99, -8.8 -34.01 C-7.55 -34.04, -5.76 -33.96, -4.73 -34.01 C-3.7 -34.07, -3.08 -33.99, -2.63 -34.36 C-2.17 -34.72, -2.12 -34.89, -2.01 -36.18 C-1.91 -37.48, -2.01 -38.78, -2.01 -42.13 C-2.01 -45.47, -2.01 -51.32, -2.01 -56.23 C-2.01 -61.15, -2.01 -68.42, -2.01 -71.62 C-2.01 -74.82, -2.16 -74.49, -2.01 -75.42 C-1.87 -76.36, -1.64 -76.82, -1.15 -77.22 C-0.67 -77.63, -0.34 -77.75, 0.9 -77.85 C2.14 -77.95, 4.4 -77.85, 6.3 -77.85 C8.19 -77.85, 10.78 -77.91, 12.27 -77.85 C13.75 -77.79, 14.55 -77.82, 15.21 -77.5 C15.87 -77.18, 16.06 -76.8, 16.25 -75.91 C16.44 -75.01, 16.32 -73.46, 16.33 -72.14 C16.35 -70.82, 16.34 -69.02, 16.33 -68 C16.33 -66.98, 16.13 -66.48, 16.3 -66 C16.48 -65.52, 16.75 -65.28, 17.37 -65.12 C17.98 -64.96, 19.16 -65.02, 20.01 -65.04 C20.85 -65.07, 21.91 -65, 22.43 -65.28 C22.96 -65.55, 23.04 -65.84, 23.16 -66.67 C23.28 -67.5, 23.15 -69.28, 23.18 -70.26 C23.2 -71.25, 23.07 -71.92, 23.32 -72.57 C23.58 -73.22, 23.94 -73.84, 24.72 -74.15 C25.49 -74.47, 26.27 -74.4, 27.97 -74.45 C29.66 -74.49, 33.01 -74.45, 34.89 -74.45 C36.76 -74.45, 38.23 -74.64, 39.23 -74.45 C40.22 -74.25, 40.47 -73.83, 40.85 -73.25 C41.23 -72.68, 41.38 -72.11, 41.51 -71 C41.64 -69.89, 41.63 -67.94, 41.65 -66.6 C41.67 -65.26, 41.5 -63.72, 41.65 -62.95 C41.8 -62.17, 41.88 -62.12, 42.55 -61.93 C43.21 -61.75, 44.5 -61.86, 45.64 -61.84 C46.77 -61.83, 48.29 -61.84, 49.36 -61.84 C50.43 -61.84, 51.37 -62.01, 52.07 -61.84 C52.77 -61.68, 53.25 -61.43, 53.57 -60.84 C53.88 -60.26, 53.9 -60.03, 53.97 -58.35 C54.03 -56.68, 53.97 -55.01, 53.97 -50.8 C53.97 -46.59, 53.97 -38.41, 53.97 -33.11 C53.97 -27.82, 53.97 -22.9, 53.97 -19.04 C53.97 -15.19, 53.93 -12.08, 53.97 -10.01 C54 -7.93, 54.04 -7.41, 54.17 -6.62 C54.29 -5.83, 54.34 -5.57, 54.7 -5.27 C55.07 -4.97, 55.36 -4.86, 56.36 -4.79 C57.36 -4.73, 59.29 -4.85, 60.69 -4.86 C62.09 -4.88, 63.85 -4.77, 64.76 -4.86 C65.67 -4.96, 65.85 -4.86, 66.15 -5.43 C66.44 -6, 66.65 -6.47, 66.53 -8.29 C66.41 -10.1, 65.88 -12.97, 65.43 -16.34 C64.98 -19.71, 64.41 -23.94, 63.81 -28.5 C63.2 -33.05, 62.46 -38.78, 61.81 -43.66 C61.16 -48.54, 60.78 -51.3, 59.89 -57.78 C58.99 -64.25, 57.36 -75.91, 56.44 -82.51 C55.51 -89.12, 54.94 -93.47, 54.35 -97.39 C53.77 -101.3, 53.44 -104.88, 52.92 -105.99 C52.39 -107.11, 51.98 -105.33, 51.22 -104.08 C50.45 -102.82, 49.22 -99.7, 48.31 -98.47 C47.4 -97.25, 46.53 -96.84, 45.78 -96.73 C45.02 -96.62, 44.35 -96.78, 43.78 -97.8 C43.21 -98.83, 43.1 -99.39, 42.35 -102.86 C41.6 -106.33, 40.51 -112.19, 39.28 -118.61 C38.05 -125.02, 36.04 -135.55, 34.98 -141.35 C33.92 -147.16, 33.55 -150.16, 32.91 -153.43 C32.28 -156.7, 31.57 -159.35, 31.16 -160.98 C30.75 -162.62, 30.88 -163.19, 30.45 -163.24 C30.02 -163.3, 29.33 -162.33, 28.57 -161.3 C27.81 -160.26, 26.64 -158.1, 25.87 -157.04 C25.11 -155.98, 24.67 -155.31, 24 -154.93 C23.34 -154.56, 22.51 -154.53, 21.9 -154.81 C21.29 -155.09, 20.79 -155.77, 20.34 -156.62 C19.88 -157.46, 19.53 -158.78, 19.16 -159.89 C18.8 -160.99, 18.5 -162.71, 18.13 -163.24 C17.76 -163.77, 17.28 -163.14, 16.93 -163.07 C16.58 -162.99, 16.33 -163.17, 16.04 -162.79 C15.75 -162.41, 15.58 -161.7, 15.19 -160.78 C14.8 -159.87, 14.23 -158.27, 13.7 -157.32 C13.18 -156.38, 12.67 -155.59, 12.04 -155.12 C11.41 -154.65, 10.61 -154.41, 9.93 -154.5 C9.25 -154.6, 8.55 -154.68, 7.95 -155.69 C7.36 -156.7, 6.88 -158.8, 6.36 -160.56 C5.84 -162.32, 5.32 -164.59, 4.83 -166.28 C4.33 -167.97, 4.03 -169.29, 3.39 -170.7 C2.76 -172.11, 1.62 -174.57, 1 -174.73 C0.38 -174.88, 0.13 -173.71, -0.32 -171.62 C-0.77 -169.54, -0.8 -166.73, -1.69 -162.21 C-2.57 -157.68, -4.29 -150.38, -5.63 -144.46 C-6.97 -138.55, -8.76 -131.08, -9.72 -126.74 C-10.68 -122.4, -10.8 -120.29, -11.39 -118.41 C-11.99 -116.53, -12.53 -115.92, -13.29 -115.46 C-14.05 -115, -15.07 -114.9, -15.95 -115.68 C-16.84 -116.45, -17.77 -118.78, -18.59 -120.1 C-19.42 -121.43, -20.32 -122.81, -20.9 -123.65 C-21.49 -124.49, -21.6 -125.15, -22.09 -125.16 C-22.59 -125.17, -23.02 -124.47, -23.86 -123.71 C-24.71 -122.95, -26.01 -121.4, -27.16 -120.61 C-28.31 -119.82, -29.48 -119.27, -30.74 -118.97 C-32 -118.67, -33.5 -118.69, -34.72 -118.8 C-35.95 -118.91, -36.92 -118.78, -38.08 -119.63 C-39.23 -120.48, -40.64 -122.18, -41.65 -123.89 C-42.67 -125.6, -43.24 -127.36, -44.18 -129.87 C-45.11 -132.39, -46.34 -135.78, -47.28 -138.99 C-48.21 -142.2, -48.75 -145.01, -49.78 -149.14 C-50.82 -153.27, -52.29 -159.2, -53.47 -163.75 C-54.65 -168.29, -55.59 -172.64, -56.87 -176.41 C-58.14 -180.19, -59.76 -183.73, -61.1 -186.39 C-62.44 -189.05, -63.5 -190.69, -64.9 -192.35 C-66.31 -194.02, -67.88 -195.46, -69.55 -196.38 C-71.21 -197.31, -73.02 -197.78, -74.88 -197.91 C-76.73 -198.04, -78.81 -197.74, -80.68 -197.16 C-82.55 -196.58, -84.41 -195.63, -86.1 -194.41 C-87.79 -193.18, -89.43 -191.54, -90.8 -189.79 C-92.17 -188.04, -92.9 -186.79, -94.32 -183.9 C-95.73 -181.02, -97.81 -176.73, -99.27 -172.49 C-100.74 -168.25, -101.88 -163.65, -103.09 -158.47 C-104.31 -153.29, -105.41 -147.48, -106.56 -141.41 C-107.72 -135.34, -108.75 -128.9, -110.01 -122.07 C-111.26 -115.24, -112.88 -106.36, -114.1 -100.44 C-115.33 -94.51, -115.99 -91.26, -117.36 -86.52 C-118.74 -81.78, -120.42 -76.32, -122.36 -71.97 C-124.29 -67.63, -126.98 -63.34, -128.95 -60.47 C-130.92 -57.59, -132.74 -55.99, -134.18 -54.73 C-135.63 -53.47, -136.71 -52.98, -137.62 -52.92 C-138.54 -52.85, -139.29 -53.62, -139.69 -54.33 C-140.1 -55.04, -140.41 -56.28, -140.04 -57.15 C-139.68 -58.01, -138.44 -58.54, -137.51 -59.51 C-136.58 -60.48, -135.62 -61.36, -134.45 -62.96 C-133.27 -64.56, -131.76 -66.7, -130.44 -69.11 C-129.13 -71.52, -127.87 -74.06, -126.54 -77.42 C-125.21 -80.77, -123.76 -84.74, -122.48 -89.24 C-121.21 -93.74, -119.98 -99.47, -118.89 -104.43 C-117.79 -109.39, -116.84 -114.06, -115.92 -119 C-114.99 -123.95, -114.19 -129.02, -113.31 -134.09 C-112.43 -139.17, -111.64 -144.33, -110.63 -149.45 C-109.63 -154.57, -108.5 -159.92, -107.28 -164.81 C-106.06 -169.7, -104.6 -175.17, -103.32 -178.78 C-102.05 -182.4, -101.2 -183.76, -99.66 -186.52 C-98.11 -189.28, -96.02 -193.06, -94.05 -195.33 C-92.08 -197.6, -89.87 -198.93, -87.86 -200.12 C-85.84 -201.31, -84.04 -201.91, -81.94 -202.46 C-79.83 -203.02, -77.28 -203.43, -75.23 -203.47 C-73.18 -203.5, -71.62 -203.39, -69.61 -202.68 C-67.6 -201.98, -65.02 -200.79, -63.17 -199.23 C-61.32 -197.67, -59.88 -195.46, -58.51 -193.33 C-57.14 -191.21, -56.13 -188.94, -54.96 -186.49 C-53.79 -184.04, -52.65 -181.96, -51.48 -178.62 C-50.31 -175.29, -49.08 -170.98, -47.95 -166.51 C-46.82 -162.04, -45.78 -156.34, -44.71 -151.8 C-43.64 -147.27, -42.48 -142.77, -41.52 -139.29 C-40.56 -135.81, -39.79 -133.17, -38.93 -130.93 C-38.07 -128.69, -37.32 -126.99, -36.37 -125.87 C-35.41 -124.74, -34.26 -124.26, -33.22 -124.19 C-32.17 -124.11, -31.05 -124.62, -30.08 -125.41 C-29.1 -126.2, -28.12 -127.78, -27.38 -128.92 C-26.64 -130.06, -26.19 -131.35, -25.62 -132.26 C-25.06 -133.17, -24.71 -133.99, -24.01 -134.36 C-23.3 -134.73, -22.13 -134.88, -21.39 -134.48 C-20.65 -134.07, -20.18 -132.84, -19.55 -131.93 C-18.93 -131.03, -18.21 -129.83, -17.65 -129.04 C-17.1 -128.25, -16.57 -127.24, -16.21 -127.19 C-15.85 -127.15, -15.9 -127.37, -15.49 -128.75 C-15.07 -130.12, -14.32 -132.95, -13.72 -135.45 C-13.12 -137.94, -12.64 -140.23, -11.89 -143.73 C-11.15 -147.22, -10.2 -152.2, -9.26 -156.41 C-8.32 -160.62, -7.25 -164.76, -6.26 -169.01 C-5.26 -173.26, -4.03 -178.59, -3.29 -181.93 C-2.56 -185.27, -2.43 -187.54, -1.85 -189.06 C-1.27 -190.59, -0.48 -190.81, 0.19 -191.09 C0.86 -191.37, 1.54 -191.42, 2.17 -190.76 C2.8 -190.09, 3.19 -189.27, 3.98 -187.09 C4.77 -184.91, 6.1 -180.43, 6.92 -177.66 C7.74 -174.89, 8.34 -172.2, 8.92 -170.45 C9.5 -168.7, 9.86 -167.72, 10.39 -167.16 C10.93 -166.6, 11.5 -166.45, 12.14 -167.09 C12.77 -167.73, 13.48 -169.78, 14.2 -170.99 C14.92 -172.21, 15.65 -173.68, 16.45 -174.38 C17.24 -175.09, 18.29 -175.53, 18.97 -175.23 C19.65 -174.93, 20.05 -173.69, 20.53 -172.6 C21 -171.51, 21.34 -169.86, 21.82 -168.68 C22.31 -167.5, 22.9 -166.05, 23.43 -165.53 C23.97 -165.01, 24.37 -164.83, 25.03 -165.58 C25.69 -166.32, 26.57 -168.61, 27.39 -170 C28.21 -171.39, 29.1 -173.14, 29.93 -173.91 C30.75 -174.68, 31.55 -174.73, 32.35 -174.62 C33.14 -174.52, 34.04 -174.72, 34.7 -173.28 C35.35 -171.83, 35.65 -169.16, 36.27 -165.97 C36.89 -162.78, 37.67 -158.29, 38.42 -154.14 C39.17 -149.99, 39.94 -145.31, 40.77 -141.09 C41.6 -136.87, 42.56 -133.03, 43.4 -128.8 C44.24 -124.57, 45.21 -118.76, 45.82 -115.7 C46.42 -112.63, 46.52 -110.88, 47.02 -110.43 C47.52 -109.97, 48.11 -111.62, 48.81 -112.96 C49.52 -114.31, 50.43 -117.16, 51.24 -118.5 C52.05 -119.84, 52.8 -120.66, 53.66 -121.03 C54.51 -121.4, 55.72 -121.42, 56.39 -120.72 C57.05 -120.03, 57.22 -119.05, 57.64 -116.87 C58.06 -114.68, 58.39 -111.6, 58.92 -107.61 C59.45 -103.62, 60.03 -98.92, 60.83 -92.94 C61.63 -86.96, 62.59 -79.68, 63.72 -71.73 C64.84 -63.77, 66.5 -52.92, 67.59 -45.21 C68.67 -37.49, 69.46 -31.5, 70.23 -25.43 C71.01 -19.36, 71.77 -12.13, 72.22 -8.81 C72.66 -5.48, 72.33 -6.07, 72.89 -5.46 C73.46 -4.86, 74.54 -5.2, 75.61 -5.16 C76.68 -5.12, 78.5 -4.96, 79.28 -5.21 C80.07 -5.47, 80.02 -5.61, 80.34 -6.7 C80.65 -7.79, 80.77 -8.97, 81.19 -11.74 C81.61 -14.52, 82.12 -18.44, 82.84 -23.36 C83.55 -28.28, 84.49 -34.69, 85.49 -41.26 C86.49 -47.84, 87.65 -55.26, 88.82 -62.81 C89.99 -70.36, 91.31 -78.42, 92.51 -86.58 C93.7 -94.73, 95.1 -105.61, 95.99 -111.75 C96.89 -117.89, 97.18 -120.85, 97.86 -123.4 C98.54 -125.95, 98.99 -125.9, 100.07 -127.03 C101.16 -128.16, 102.82 -129.49, 104.36 -130.2 C105.9 -130.9, 107.68 -131.24, 109.31 -131.27 C110.93 -131.3, 112.73 -130.99, 114.12 -130.37 C115.51 -129.76, 116.5 -128.49, 117.66 -127.58 C118.82 -126.68, 119.91 -125.6, 121.08 -124.96 C122.24 -124.32, 123.61 -123.67, 124.64 -123.76 C125.68 -123.84, 126.42 -124.31, 127.26 -125.48 C128.1 -126.64, 128.6 -127.49, 129.69 -130.75 C130.77 -134.02, 132.55 -140.26, 133.78 -145.07 C135 -149.88, 135.91 -155.3, 137.04 -159.63 C138.16 -163.96, 139.28 -167.64, 140.55 -171.07 C141.81 -174.51, 143.23 -177.73, 144.65 -180.22 C146.06 -182.71, 147.3 -184.43, 149.03 -186.02 C150.77 -187.61, 153.02 -189.06, 155.05 -189.77 C157.09 -190.49, 159.23 -190.69, 161.24 -190.32 C163.25 -189.94, 165.33 -189.13, 167.11 -187.52 C168.89 -185.92, 170.6 -183.28, 171.93 -180.68 C173.26 -178.09, 173.98 -175.46, 175.11 -171.92 C176.25 -168.39, 177.63 -163.82, 178.73 -159.47 C179.84 -155.12, 180.72 -150.15, 181.75 -145.83 C182.78 -141.51, 183.77 -136.82, 184.91 -133.54 C186.06 -130.26, 187.45 -127.9, 188.61 -126.15 C189.78 -124.41, 190.7 -123.61, 191.91 -123.07 C193.13 -122.53, 194.74 -122.58, 195.9 -122.92 C197.07 -123.27, 197.95 -123.95, 198.89 -125.14 C199.83 -126.32, 200.73 -127.94, 201.53 -130.01 C202.34 -132.09, 203.06 -134.5, 203.71 -137.6 C204.36 -140.7, 204.89 -144.08, 205.43 -148.62 C205.97 -153.17, 206.49 -160.23, 206.95 -164.86 C207.41 -169.49, 207.54 -172.51, 208.17 -176.4 C208.81 -180.3, 209.85 -185.48, 210.78 -188.23 C211.72 -190.98, 212.72 -191.84, 213.8 -192.92 C214.88 -194.01, 215.8 -194.39, 217.28 -194.73 C218.76 -195.08, 221.14 -195.35, 222.67 -194.99 C224.19 -194.64, 225.41 -193.12, 226.42 -192.62 C227.42 -192.12, 227.88 -191.8, 228.7 -191.99 C229.53 -192.18, 230.6 -192.55, 231.38 -193.75 C232.17 -194.96, 232.61 -196.46, 233.42 -199.24 C234.22 -202.01, 235.38 -206.74, 236.22 -210.38 C237.05 -214.03, 237.62 -217.89, 238.43 -221.12 C239.24 -224.35, 239.99 -227.3, 241.07 -229.77 C242.15 -232.25, 243.47 -234.38, 244.9 -235.98 C246.34 -237.59, 248.4 -238.78, 249.69 -239.41 C250.97 -240.04, 251.8 -240.01, 252.62 -239.75 C253.43 -239.49, 254.35 -238.55, 254.58 -237.83 C254.82 -237.12, 254.64 -236.22, 254.03 -235.45 C253.42 -234.68, 252.09 -234.31, 250.93 -233.21 C249.78 -232.12, 248.24 -230.89, 247.09 -228.87 C245.95 -226.85, 244.82 -224.03, 244.05 -221.11 C243.27 -218.19, 243.18 -214.93, 242.45 -211.35 C241.71 -207.77, 240.6 -202.95, 239.64 -199.64 C238.68 -196.33, 237.85 -193.59, 236.69 -191.5 C235.53 -189.4, 234.09 -187.99, 232.66 -187.07 C231.24 -186.15, 229.61 -185.91, 228.15 -185.96 C226.7 -186, 225.17 -186.76, 223.94 -187.33 C222.71 -187.9, 221.67 -189.01, 220.75 -189.37 C219.83 -189.73, 219.14 -189.78, 218.44 -189.49 C217.74 -189.21, 217.08 -188.66, 216.55 -187.63 C216.02 -186.6, 215.7 -185.64, 215.24 -183.31 C214.79 -180.98, 214.28 -177.66, 213.81 -173.66 C213.35 -169.66, 212.94 -164.46, 212.45 -159.31 C211.95 -154.16, 211.44 -147.21, 210.84 -142.77 C210.24 -138.34, 209.78 -135.86, 208.85 -132.7 C207.91 -129.53, 206.61 -126.19, 205.21 -123.81 C203.81 -121.43, 202.44 -119.61, 200.46 -118.44 C198.47 -117.26, 195.45 -116.7, 193.3 -116.76 C191.16 -116.82, 189.15 -117.76, 187.6 -118.79 C186.05 -119.82, 185.29 -120.83, 184 -122.95 C182.72 -125.07, 181.17 -127.78, 179.88 -131.5 C178.58 -135.22, 177.33 -140.73, 176.23 -145.28 C175.12 -149.83, 174.24 -154.73, 173.26 -158.82 C172.27 -162.9, 171.35 -166.57, 170.31 -169.79 C169.26 -173.01, 168.13 -175.92, 166.99 -178.11 C165.84 -180.3, 164.86 -181.89, 163.45 -182.93 C162.03 -183.97, 160.08 -184.35, 158.51 -184.35 C156.94 -184.35, 155.7 -184.49, 154.02 -182.93 C152.33 -181.37, 150.2 -178.6, 148.4 -174.99 C146.6 -171.38, 144.65 -166.16, 143.21 -161.26 C141.77 -156.36, 141.11 -150.88, 139.77 -145.57 C138.43 -140.27, 136.39 -133.23, 135.18 -129.42 C133.97 -125.6, 133.74 -124.51, 132.5 -122.68 C131.25 -120.86, 129.31 -119.21, 127.7 -118.47 C126.1 -117.72, 124.58 -117.91, 122.87 -118.2 C121.17 -118.48, 119.06 -119.25, 117.48 -120.16 C115.9 -121.07, 114.52 -122.83, 113.4 -123.66 C112.27 -124.49, 111.75 -124.89, 110.71 -125.13 C109.66 -125.38, 108.13 -125.45, 107.12 -125.15 C106.1 -124.85, 105.32 -124.41, 104.62 -123.32 C103.92 -122.24, 103.54 -121.79, 102.91 -118.65 C102.27 -115.5, 101.7 -110.41, 100.81 -104.45 C99.92 -98.5, 98.87 -91.29, 97.56 -82.93 C96.26 -74.57, 94.3 -63.04, 92.97 -54.29 C91.64 -45.55, 90.57 -37.38, 89.56 -30.48 C88.55 -23.58, 87.45 -16.63, 86.91 -12.91 C86.38 -9.18, 86.37 -9.41, 86.36 -8.12 C86.35 -6.84, 86.31 -5.73, 86.85 -5.21 C87.38 -4.69, 88.09 -5.02, 89.55 -5 C91.01 -4.99, 94.11 -4.95, 95.59 -5.11 C97.06 -5.27, 97.85 -5.06, 98.39 -5.97 C98.93 -6.88, 98.77 -8.24, 98.83 -10.58 C98.89 -12.92, 98.76 -16.61, 98.74 -19.98 C98.73 -23.35, 98.74 -27.56, 98.74 -30.79 C98.74 -34.02, 98.74 -37.51, 98.74 -39.37 C98.74 -41.23, 98.55 -41.28, 98.74 -41.95 C98.94 -42.62, 99.26 -43.08, 99.92 -43.41 C100.59 -43.74, 101.56 -43.82, 102.74 -43.91 C103.92 -43.99, 105.85 -43.91, 106.98 -43.91 C108.1 -43.91, 108.88 -43.65, 109.5 -43.91 C110.12 -44.16, 110.5 -44.12, 110.71 -45.42 C110.92 -46.71, 110.76 -49.45, 110.77 -51.66 C110.78 -53.87, 110.56 -57.17, 110.77 -58.69 C110.98 -60.21, 111.1 -60.35, 112.02 -60.76 C112.94 -61.17, 114.06 -61.08, 116.28 -61.15 C118.5 -61.21, 123.41 -61.22, 125.35 -61.15 C127.28 -61.08, 127.29 -61.25, 127.9 -60.74 C128.51 -60.22, 128.79 -60.36, 129.02 -58.08 C129.25 -55.8, 129.24 -49.95, 129.28 -47.06 C129.33 -44.16, 129.07 -42.02, 129.28 -40.7 C129.5 -39.38, 129.87 -39.39, 130.58 -39.12 C131.29 -38.85, 132.77 -39.06, 133.55 -39.09 C134.34 -39.12, 134.9 -39.04, 135.27 -39.32 C135.65 -39.6, 135.73 -39.53, 135.82 -40.77 C135.91 -42.02, 135.82 -43.47, 135.82 -46.79 C135.82 -50.1, 135.82 -56.08, 135.82 -60.69 C135.82 -65.3, 135.82 -71.14, 135.82 -74.44 C135.82 -77.73, 135.55 -79.18, 135.82 -80.47 C136.09 -81.75, 136.31 -81.85, 137.43 -82.13 C138.56 -82.4, 140.84 -82.07, 142.56 -82.13 C144.28 -82.18, 146.79 -81.99, 147.76 -82.46 C148.72 -82.93, 148.27 -83.51, 148.37 -84.95 C148.47 -86.39, 148.25 -89.6, 148.37 -91.09 C148.49 -92.59, 148.54 -93.32, 149.09 -93.91 C149.65 -94.51, 150.15 -94.51, 151.72 -94.65 C153.28 -94.8, 156.22 -94.81, 158.46 -94.79 C160.71 -94.77, 163.83 -94.96, 165.18 -94.54 C166.54 -94.12, 166.33 -93.75, 166.6 -92.25 C166.88 -90.75, 166.7 -87.16, 166.84 -85.54 C166.97 -83.93, 166.64 -83.15, 167.44 -82.56 C168.23 -81.98, 169.94 -82.08, 171.63 -82.03 C173.31 -81.98, 176.34 -82.49, 177.55 -82.27 C178.76 -82.04, 178.61 -81.75, 178.89 -80.69 C179.17 -79.63, 179.09 -77, 179.23 -75.93 C179.38 -74.85, 179.06 -74.53, 179.75 -74.22 C180.45 -73.92, 181.82 -74.1, 183.38 -74.08 C184.94 -74.05, 187.85 -74.22, 189.12 -74.08 C190.39 -73.94, 190.57 -73.84, 190.97 -73.23 C191.38 -72.62, 191.42 -72.15, 191.55 -70.42 C191.68 -68.68, 191.7 -64.61, 191.75 -62.83 C191.8 -61.05, 191.57 -60.37, 191.86 -59.75 C192.16 -59.12, 192.46 -59.19, 193.5 -59.08 C194.55 -58.98, 196.66 -59.09, 198.15 -59.09 C199.64 -59.09, 201.48 -59.27, 202.45 -59.09 C203.41 -58.91, 203.65 -58.68, 203.92 -58.03 C204.19 -57.39, 203.98 -56.1, 204.06 -55.24 C204.14 -54.38, 204.1 -53.45, 204.4 -52.89 C204.71 -52.33, 204.87 -52.03, 205.89 -51.87 C206.91 -51.71, 209.03 -51.94, 210.52 -51.92 C212.01 -51.91, 213.81 -52.21, 214.83 -51.78 C215.86 -51.35, 216.3 -51.04, 216.67 -49.34 C217.04 -47.64, 217 -44.2, 217.06 -41.59 C217.13 -38.98, 217.01 -35.52, 217.06 -33.68 C217.11 -31.84, 217.04 -31.24, 217.36 -30.56 C217.67 -29.87, 218.03 -29.71, 218.96 -29.57 C219.89 -29.43, 222.15 -29.41, 222.93 -29.73 C223.72 -30.04, 223.49 -30.72, 223.66 -31.47 C223.83 -32.22, 223.63 -33.52, 223.94 -34.2 C224.24 -34.89, 224.56 -35.31, 225.48 -35.58 C226.39 -35.86, 227.86 -35.8, 229.41 -35.84 C230.96 -35.89, 233.64 -35.68, 234.77 -35.84 C235.91 -36.01, 235.95 -35.9, 236.2 -36.83 C236.45 -37.75, 236.25 -38.81, 236.26 -41.41 C236.27 -44.02, 236.26 -49.32, 236.26 -52.45 C236.26 -55.58, 236.26 -58.29, 236.26 -60.19 C236.26 -62.1, 235.96 -63.01, 236.26 -63.89 C236.56 -64.78, 236.86 -65.25, 238.05 -65.52 C239.24 -65.79, 241.27 -65.52, 243.38 -65.52 C245.49 -65.52, 249.04 -65.6, 250.73 -65.52 C252.42 -65.45, 252.87 -65.52, 253.53 -65.07 C254.18 -64.63, 254.46 -64.5, 254.66 -62.83 C254.86 -61.17, 254.7 -60.31, 254.7 -55.1 C254.71 -49.88, 254.7 -37.83, 254.7 -31.55 C254.7 -25.27, 254.7 -21.7, 254.7 -17.39 C254.7 -13.09, 254.74 -8.31, 254.7 -5.71 C254.66 -3.1, 254.83 -2.74, 254.46 -1.76 C254.09 -0.78, 253.89 -0.17, 252.5 0.18 C251.11 0.52, 257.81 0.27, 246.09 0.29 C234.37 0.31, 205.86 0.29, 182.19 0.29 C158.53 0.29, 118.78 0.29, 104.11 0.29 C89.45 0.29, 97.23 0.29, 94.19 0.29 C91.16 0.29, 87.43 -0.09, 85.88 0.29 C84.33 0.68, 85.54 -0.76, 84.9 2.61 C84.26 5.98, 82.77 15.77, 82.03 20.51 C81.29 25.25, 80.95 27.76, 80.44 31.06 C79.94 34.35, 79.52 38.17, 79 40.28 C78.49 42.39, 78.02 43.07, 77.35 43.72 C76.68 44.37, 75.7 44.56, 74.99 44.18 C74.29 43.8, 73.66 43.35, 73.12 41.44 C72.59 39.52, 72.3 36.37, 71.77 32.68 C71.25 28.99, 70.49 23.33, 69.98 19.3 C69.47 15.27, 69.14 11.51, 68.73 8.49 C68.32 5.47, 67.99 2.58, 67.52 1.2 C67.04 -0.18, 66.86 0.36, 65.88 0.19 C64.9 0.02, 68.36 0.18, 61.65 0.17 C54.95 0.17, 35.9 0.2, 25.63 0.17 C15.35 0.14, 4.27 0.03, 0 0 M0 0 C-3.43 0, -13.72 0, -20.6 0 C-27.49 0, -35.54 0, -41.31 0 C-47.08 0, -50.2 0, -55.23 0 C-60.26 0, -62.83 0, -71.51 0 C-80.18 0, -98.08 0, -107.28 0 C-116.49 0, -122.11 0, -126.74 0 C-131.37 0, -133.22 0.02, -135.06 0 C-136.89 -0.02, -137.06 0.04, -137.74 -0.11 C-138.43 -0.26, -138.81 -0.51, -139.16 -0.89 C-139.51 -1.28, -139.71 -1.67, -139.84 -2.43 C-139.98 -3.19, -139.93 -3.27, -139.95 -5.44 C-139.97 -7.62, -139.95 -13.01, -139.95 -15.49 C-139.95 -17.97, -140 -19.12, -139.95 -20.31 C-139.91 -21.5, -140 -22.06, -139.67 -22.64 C-139.33 -23.23, -138.8 -23.59, -137.95 -23.81 C-137.11 -24.03, -135.75 -23.95, -134.6 -23.98 C-133.46 -24.01, -132.07 -23.97, -131.09 -23.98 C-130.11 -23.99, -129.23 -23.89, -128.71 -24.03 C-128.19 -24.17, -128.15 -24.37, -127.97 -24.82 C-127.79 -25.27, -127.78 -26.15, -127.62 -26.72 C-127.47 -27.29, -127.35 -27.81, -127.03 -28.24 C-126.72 -28.68, -126.4 -29.14, -125.74 -29.34 C-125.09 -29.54, -124.3 -29.43, -123.09 -29.45 C-121.88 -29.46, -119.65 -29.42, -118.49 -29.45 C-117.32 -29.47, -116.62 -29.34, -116.09 -29.6 C-115.56 -29.86, -115.46 -30.13, -115.31 -31 C-115.16 -31.88, -115.2 -32.71, -115.18 -34.85 C-115.16 -36.99, -115.18 -41.48, -115.18 -43.84 C-115.18 -46.21, -115.22 -47.85, -115.18 -49.03 C-115.15 -50.21, -115.15 -50.43, -114.97 -50.92 C-114.79 -51.41, -114.52 -51.72, -114.08 -51.97 C-113.64 -52.22, -113.17 -52.35, -112.34 -52.43 C-111.51 -52.51, -110.11 -52.45, -109.09 -52.45 C-108.06 -52.45, -107.17 -52.45, -106.19 -52.45 C-105.21 -52.45, -103.79 -52.27, -103.18 -52.45 C-102.58 -52.63, -102.69 -53.1, -102.56 -53.53 C-102.43 -53.96, -102.43 -54.6, -102.39 -55.03 C-102.36 -55.46, -102.35 -54.6, -102.34 -56.11 C-102.34 -57.61, -102.34 -61.5, -102.34 -64.06 C-102.34 -66.61, -102.35 -69.66, -102.34 -71.45 C-102.33 -73.24, -102.44 -74, -102.28 -74.8 C-102.11 -75.61, -101.77 -75.92, -101.34 -76.28 C-100.91 -76.63, -100.52 -76.8, -99.72 -76.92 C-98.92 -77.04, -97.73 -76.99, -96.54 -77.01 C-95.34 -77.02, -93.64 -76.9, -92.55 -77.01 C-91.46 -77.11, -90.54 -77.24, -90.01 -77.64 C-89.48 -78.04, -89.45 -78.39, -89.34 -79.41 C-89.23 -80.43, -89.34 -80.99, -89.34 -83.77 C-89.34 -86.56, -89.34 -93.32, -89.34 -96.11 C-89.34 -98.9, -89.45 -99.48, -89.34 -100.52 C-89.23 -101.56, -89.03 -101.86, -88.66 -102.34 C-88.29 -102.82, -87.92 -103.19, -87.12 -103.39 C-86.31 -103.6, -85.37 -103.54, -83.81 -103.57 C-82.25 -103.6, -79.35 -103.57, -77.75 -103.57 C-76.14 -103.57, -75.04 -103.77, -74.18 -103.57 C-73.31 -103.36, -72.9 -103.03, -72.54 -102.34 C-72.18 -101.66, -72.11 -100.72, -72.02 -99.46 C-71.92 -98.21, -72.1 -95.88, -71.98 -94.83 C-71.85 -93.79, -71.67 -93.54, -71.28 -93.19 C-70.9 -92.83, -70.38 -92.79, -69.66 -92.71 C-68.94 -92.63, -68.11 -92.71, -66.97 -92.71 C-65.84 -92.71, -63.91 -92.72, -62.84 -92.71 C-61.77 -92.69, -61.12 -92.89, -60.55 -92.63 C-59.99 -92.38, -59.71 -91.76, -59.46 -91.2 C-59.21 -90.63, -59.16 -89.89, -59.03 -89.25 C-58.9 -88.61, -58.95 -87.79, -58.69 -87.33 C-58.44 -86.87, -58.19 -86.63, -57.51 -86.49 C-56.83 -86.35, -55.73 -86.49, -54.63 -86.49 C-53.53 -86.49, -51.88 -86.49, -50.89 -86.49 C-49.9 -86.49, -49.28 -86.65, -48.7 -86.49 C-48.11 -86.32, -47.71 -85.9, -47.37 -85.49 C-47.04 -85.07, -46.85 -84.9, -46.69 -83.99 C-46.53 -83.09, -46.53 -81.07, -46.43 -80.07 C-46.33 -79.06, -46.35 -78.45, -46.09 -77.98 C-45.82 -77.51, -45.46 -77.37, -44.86 -77.25 C-44.26 -77.12, -43.54 -77.23, -42.49 -77.23 C-41.44 -77.22, -39.58 -77.23, -38.57 -77.23 C-37.56 -77.23, -37.03 -77.39, -36.42 -77.23 C-35.8 -77.07, -35.26 -76.83, -34.89 -76.26 C-34.53 -75.68, -34.33 -75.2, -34.21 -73.78 C-34.1 -72.36, -34.19 -70.63, -34.19 -67.74 C-34.19 -64.84, -34.19 -60.2, -34.19 -56.41 C-34.19 -52.62, -34.19 -48, -34.19 -45.01 C-34.19 -42.02, -34.19 -40.32, -34.19 -38.47 C-34.19 -36.62, -34.29 -34.92, -34.19 -33.93 C-34.09 -32.94, -34.08 -32.81, -33.58 -32.55 C-33.09 -32.29, -32.62 -32.41, -31.23 -32.38 C-29.84 -32.35, -26.66 -32.42, -25.25 -32.38 C-23.85 -32.35, -23.42 -32.48, -22.82 -32.17 C-22.21 -31.86, -21.85 -31.23, -21.64 -30.51 C-21.43 -29.79, -21.58 -28.71, -21.55 -27.82 C-21.52 -26.94, -21.64 -25.76, -21.47 -25.21 C-21.29 -24.66, -21.12 -24.64, -20.5 -24.51 C-19.88 -24.38, -18.58 -24.45, -17.77 -24.44 C-16.96 -24.44, -16.1 -24.33, -15.64 -24.49 C-15.18 -24.66, -15.11 -24.83, -15 -25.42 C-14.89 -26.01, -14.98 -27.05, -14.97 -28.03 C-14.96 -29.01, -15.14 -30.47, -14.96 -31.3 C-14.79 -32.14, -14.4 -32.6, -13.94 -33.03 C-13.48 -33.45, -13.07 -33.69, -12.21 -33.86 C-11.35 -34.02, -10.05 -33.99, -8.8 -34.01 C-7.55 -34.04, -5.76 -33.96, -4.73 -34.01 C-3.7 -34.07, -3.08 -33.99, -2.63 -34.36 C-2.17 -34.72, -2.12 -34.89, -2.01 -36.18 C-1.91 -37.48, -2.01 -38.78, -2.01 -42.13 C-2.01 -45.47, -2.01 -51.32, -2.01 -56.23 C-2.01 -61.15, -2.01 -68.42, -2.01 -71.62 C-2.01 -74.82, -2.16 -74.49, -2.01 -75.42 C-1.87 -76.36, -1.64 -76.82, -1.15 -77.22 C-0.67 -77.63, -0.34 -77.75, 0.9 -77.85 C2.14 -77.95, 4.4 -77.85, 6.3 -77.85 C8.19 -77.85, 10.78 -77.91, 12.27 -77.85 C13.75 -77.79, 14.55 -77.82, 15.21 -77.5 C15.87 -77.18, 16.06 -76.8, 16.25 -75.91 C16.44 -75.01, 16.32 -73.46, 16.33 -72.14 C16.35 -70.82, 16.34 -69.02, 16.33 -68 C16.33 -66.98, 16.13 -66.48, 16.3 -66 C16.48 -65.52, 16.75 -65.28, 17.37 -65.12 C17.98 -64.96, 19.16 -65.02, 20.01 -65.04 C20.85 -65.07, 21.91 -65, 22.43 -65.28 C22.96 -65.55, 23.04 -65.84, 23.16 -66.67 C23.28 -67.5, 23.15 -69.28, 23.18 -70.26 C23.2 -71.25, 23.07 -71.92, 23.32 -72.57 C23.58 -73.22, 23.94 -73.84, 24.72 -74.15 C25.49 -74.47, 26.27 -74.4, 27.97 -74.45 C29.66 -74.49, 33.01 -74.45, 34.89 -74.45 C36.76 -74.45, 38.23 -74.64, 39.23 -74.45 C40.22 -74.25, 40.47 -73.83, 40.85 -73.25 C41.23 -72.68, 41.38 -72.11, 41.51 -71 C41.64 -69.89, 41.63 -67.94, 41.65 -66.6 C41.67 -65.26, 41.5 -63.72, 41.65 -62.95 C41.8 -62.17, 41.88 -62.12, 42.55 -61.93 C43.21 -61.75, 44.5 -61.86, 45.64 -61.84 C46.77 -61.83, 48.29 -61.84, 49.36 -61.84 C50.43 -61.84, 51.37 -62.01, 52.07 -61.84 C52.77 -61.68, 53.25 -61.43, 53.57 -60.84 C53.88 -60.26, 53.9 -60.03, 53.97 -58.35 C54.03 -56.68, 53.97 -55.01, 53.97 -50.8 C53.97 -46.59, 53.97 -38.41, 53.97 -33.11 C53.97 -27.82, 53.97 -22.9, 53.97 -19.04 C53.97 -15.19, 53.93 -12.08, 53.97 -10.01 C54 -7.93, 54.04 -7.41, 54.17 -6.62 C54.29 -5.83, 54.34 -5.57, 54.7 -5.27 C55.07 -4.97, 55.36 -4.86, 56.36 -4.79 C57.36 -4.73, 59.29 -4.85, 60.69 -4.86 C62.09 -4.88, 63.85 -4.77, 64.76 -4.86 C65.67 -4.96, 65.85 -4.86, 66.15 -5.43 C66.44 -6, 66.65 -6.47, 66.53 -8.29 C66.41 -10.1, 65.88 -12.97, 65.43 -16.34 C64.98 -19.71, 64.41 -23.94, 63.81 -28.5 C63.2 -33.05, 62.46 -38.78, 61.81 -43.66 C61.16 -48.54, 60.78 -51.3, 59.89 -57.78 C58.99 -64.25, 57.36 -75.91, 56.44 -82.51 C55.51 -89.12, 54.94 -93.47, 54.35 -97.39 C53.77 -101.3, 53.44 -104.88, 52.92 -105.99 C52.39 -107.11, 51.98 -105.33, 51.22 -104.08 C50.45 -102.82, 49.22 -99.7, 48.31 -98.47 C47.4 -97.25, 46.53 -96.84, 45.78 -96.73 C45.02 -96.62, 44.35 -96.78, 43.78 -97.8 C43.21 -98.83, 43.1 -99.39, 42.35 -102.86 C41.6 -106.33, 40.51 -112.19, 39.28 -118.61 C38.05 -125.02, 36.04 -135.55, 34.98 -141.35 C33.92 -147.16, 33.55 -150.16, 32.91 -153.43 C32.28 -156.7, 31.57 -159.35, 31.16 -160.98 C30.75 -162.62, 30.88 -163.19, 30.45 -163.24 C30.02 -163.3, 29.33 -162.33, 28.57 -161.3 C27.81 -160.26, 26.64 -158.1, 25.87 -157.04 C25.11 -155.98, 24.67 -155.31, 24 -154.93 C23.34 -154.56, 22.51 -154.53, 21.9 -154.81 C21.29 -155.09, 20.79 -155.77, 20.34 -156.62 C19.88 -157.46, 19.53 -158.78, 19.16 -159.89 C18.8 -160.99, 18.5 -162.71, 18.13 -163.24 C17.76 -163.77, 17.28 -163.14, 16.93 -163.07 C16.58 -162.99, 16.33 -163.17, 16.04 -162.79 C15.75 -162.41, 15.58 -161.7, 15.19 -160.78 C14.8 -159.87, 14.23 -158.27, 13.7 -157.32 C13.18 -156.38, 12.67 -155.59, 12.04 -155.12 C11.41 -154.65, 10.61 -154.41, 9.93 -154.5 C9.25 -154.6, 8.55 -154.68, 7.95 -155.69 C7.36 -156.7, 6.88 -158.8, 6.36 -160.56 C5.84 -162.32, 5.32 -164.59, 4.83 -166.28 C4.33 -167.97, 4.03 -169.29, 3.39 -170.7 C2.76 -172.11, 1.62 -174.57, 1 -174.73 C0.38 -174.88, 0.13 -173.71, -0.32 -171.62 C-0.77 -169.54, -0.8 -166.73, -1.69 -162.21 C-2.57 -157.68, -4.29 -150.38, -5.63 -144.46 C-6.97 -138.55, -8.76 -131.08, -9.72 -126.74 C-10.68 -122.4, -10.8 -120.29, -11.39 -118.41 C-11.99 -116.53, -12.53 -115.92, -13.29 -115.46 C-14.05 -115, -15.07 -114.9, -15.95 -115.68 C-16.84 -116.45, -17.77 -118.78, -18.59 -120.1 C-19.42 -121.43, -20.32 -122.81, -20.9 -123.65 C-21.49 -124.49, -21.6 -125.15, -22.09 -125.16 C-22.59 -125.17, -23.02 -124.47, -23.86 -123.71 C-24.71 -122.95, -26.01 -121.4, -27.16 -120.61 C-28.31 -119.82, -29.48 -119.27, -30.74 -118.97 C-32 -118.67, -33.5 -118.69, -34.72 -118.8 C-35.95 -118.91, -36.92 -118.78, -38.08 -119.63 C-39.23 -120.48, -40.64 -122.18, -41.65 -123.89 C-42.67 -125.6, -43.24 -127.36, -44.18 -129.87 C-45.11 -132.39, -46.34 -135.78, -47.28 -138.99 C-48.21 -142.2, -48.75 -145.01, -49.78 -149.14 C-50.82 -153.27, -52.29 -159.2, -53.47 -163.75 C-54.65 -168.29, -55.59 -172.64, -56.87 -176.41 C-58.14 -180.19, -59.76 -183.73, -61.1 -186.39 C-62.44 -189.05, -63.5 -190.69, -64.9 -192.35 C-66.31 -194.02, -67.88 -195.46, -69.55 -196.38 C-71.21 -197.31, -73.02 -197.78, -74.88 -197.91 C-76.73 -198.04, -78.81 -197.74, -80.68 -197.16 C-82.55 -196.58, -84.41 -195.63, -86.1 -194.41 C-87.79 -193.18, -89.43 -191.54, -90.8 -189.79 C-92.17 -188.04, -92.9 -186.79, -94.32 -183.9 C-95.73 -181.02, -97.81 -176.73, -99.27 -172.49 C-100.74 -168.25, -101.88 -163.65, -103.09 -158.47 C-104.31 -153.29, -105.41 -147.48, -106.56 -141.41 C-107.72 -135.34, -108.75 -128.9, -110.01 -122.07 C-111.26 -115.24, -112.88 -106.36, -114.1 -100.44 C-115.33 -94.51, -115.99 -91.26, -117.36 -86.52 C-118.74 -81.78, -120.42 -76.32, -122.36 -71.97 C-124.29 -67.63, -126.98 -63.34, -128.95 -60.47 C-130.92 -57.59, -132.74 -55.99, -134.18 -54.73 C-135.63 -53.47, -136.71 -52.98, -137.62 -52.92 C-138.54 -52.85, -139.29 -53.62, -139.69 -54.33 C-140.1 -55.04, -140.41 -56.28, -140.04 -57.15 C-139.68 -58.01, -138.44 -58.54, -137.51 -59.51 C-136.58 -60.48, -135.62 -61.36, -134.45 -62.96 C-133.27 -64.56, -131.76 -66.7, -130.44 -69.11 C-129.13 -71.52, -127.87 -74.06, -126.54 -77.42 C-125.21 -80.77, -123.76 -84.74, -122.48 -89.24 C-121.21 -93.74, -119.98 -99.47, -118.89 -104.43 C-117.79 -109.39, -116.84 -114.06, -115.92 -119 C-114.99 -123.95, -114.19 -129.02, -113.31 -134.09 C-112.43 -139.17, -111.64 -144.33, -110.63 -149.45 C-109.63 -154.57, -108.5 -159.92, -107.28 -164.81 C-106.06 -169.7, -104.6 -175.17, -103.32 -178.78 C-102.05 -182.4, -101.2 -183.76, -99.66 -186.52 C-98.11 -189.28, -96.02 -193.06, -94.05 -195.33 C-92.08 -197.6, -89.87 -198.93, -87.86 -200.12 C-85.84 -201.31, -84.04 -201.91, -81.94 -202.46 C-79.83 -203.02, -77.28 -203.43, -75.23 -203.47 C-73.18 -203.5, -71.62 -203.39, -69.61 -202.68 C-67.6 -201.98, -65.02 -200.79, -63.17 -199.23 C-61.32 -197.67, -59.88 -195.46, -58.51 -193.33 C-57.14 -191.21, -56.13 -188.94, -54.96 -186.49 C-53.79 -184.04, -52.65 -181.96, -51.48 -178.62 C-50.31 -175.29, -49.08 -170.98, -47.95 -166.51 C-46.82 -162.04, -45.78 -156.34, -44.71 -151.8 C-43.64 -147.27, -42.48 -142.77, -41.52 -139.29 C-40.56 -135.81, -39.79 -133.17, -38.93 -130.93 C-38.07 -128.69, -37.32 -126.99, -36.37 -125.87 C-35.41 -124.74, -34.26 -124.26, -33.22 -124.19 C-32.17 -124.11, -31.05 -124.62, -30.08 -125.41 C-29.1 -126.2, -28.12 -127.78, -27.38 -128.92 C-26.64 -130.06, -26.19 -131.35, -25.62 -132.26 C-25.06 -133.17, -24.71 -133.99, -24.01 -134.36 C-23.3 -134.73, -22.13 -134.88, -21.39 -134.48 C-20.65 -134.07, -20.18 -132.84, -19.55 -131.93 C-18.93 -131.03, -18.21 -129.83, -17.65 -129.04 C-17.1 -128.25, -16.57 -127.24, -16.21 -127.19 C-15.85 -127.15, -15.9 -127.37, -15.49 -128.75 C-15.07 -130.12, -14.32 -132.95, -13.72 -135.45 C-13.12 -137.94, -12.64 -140.23, -11.89 -143.73 C-11.15 -147.22, -10.2 -152.2, -9.26 -156.41 C-8.32 -160.62, -7.25 -164.76, -6.26 -169.01 C-5.26 -173.26, -4.03 -178.59, -3.29 -181.93 C-2.56 -185.27, -2.43 -187.54, -1.85 -189.06 C-1.27 -190.59, -0.48 -190.81, 0.19 -191.09 C0.86 -191.37, 1.54 -191.42, 2.17 -190.76 C2.8 -190.09, 3.19 -189.27, 3.98 -187.09 C4.77 -184.91, 6.1 -180.43, 6.92 -177.66 C7.74 -174.89, 8.34 -172.2, 8.92 -170.45 C9.5 -168.7, 9.86 -167.72, 10.39 -167.16 C10.93 -166.6, 11.5 -166.45, 12.14 -167.09 C12.77 -167.73, 13.48 -169.78, 14.2 -170.99 C14.92 -172.21, 15.65 -173.68, 16.45 -174.38 C17.24 -175.09, 18.29 -175.53, 18.97 -175.23 C19.65 -174.93, 20.05 -173.69, 20.53 -172.6 C21 -171.51, 21.34 -169.86, 21.82 -168.68 C22.31 -167.5, 22.9 -166.05, 23.43 -165.53 C23.97 -165.01, 24.37 -164.83, 25.03 -165.58 C25.69 -166.32, 26.57 -168.61, 27.39 -170 C28.21 -171.39, 29.1 -173.14, 29.93 -173.91 C30.75 -174.68, 31.55 -174.73, 32.35 -174.62 C33.14 -174.52, 34.04 -174.72, 34.7 -173.28 C35.35 -171.83, 35.65 -169.16, 36.27 -165.97 C36.89 -162.78, 37.67 -158.29, 38.42 -154.14 C39.17 -149.99, 39.94 -145.31, 40.77 -141.09 C41.6 -136.87, 42.56 -133.03, 43.4 -128.8 C44.24 -124.57, 45.21 -118.76, 45.82 -115.7 C46.42 -112.63, 46.52 -110.88, 47.02 -110.43 C47.52 -109.97, 48.11 -111.62, 48.81 -112.96 C49.52 -114.31, 50.43 -117.16, 51.24 -118.5 C52.05 -119.84, 52.8 -120.66, 53.66 -121.03 C54.51 -121.4, 55.72 -121.42, 56.39 -120.72 C57.05 -120.03, 57.22 -119.05, 57.64 -116.87 C58.06 -114.68, 58.39 -111.6, 58.92 -107.61 C59.45 -103.62, 60.03 -98.92, 60.83 -92.94 C61.63 -86.96, 62.59 -79.68, 63.72 -71.73 C64.84 -63.77, 66.5 -52.92, 67.59 -45.21 C68.67 -37.49, 69.46 -31.5, 70.23 -25.43 C71.01 -19.36, 71.77 -12.13, 72.22 -8.81 C72.66 -5.48, 72.33 -6.07, 72.89 -5.46 C73.46 -4.86, 74.54 -5.2, 75.61 -5.16 C76.68 -5.12, 78.5 -4.96, 79.28 -5.21 C80.07 -5.47, 80.02 -5.61, 80.34 -6.7 C80.65 -7.79, 80.77 -8.97, 81.19 -11.74 C81.61 -14.52, 82.12 -18.44, 82.84 -23.36 C83.55 -28.28, 84.49 -34.69, 85.49 -41.26 C86.49 -47.84, 87.65 -55.26, 88.82 -62.81 C89.99 -70.36, 91.31 -78.42, 92.51 -86.58 C93.7 -94.73, 95.1 -105.61, 95.99 -111.75 C96.89 -117.89, 97.18 -120.85, 97.86 -123.4 C98.54 -125.95, 98.99 -125.9, 100.07 -127.03 C101.16 -128.16, 102.82 -129.49, 104.36 -130.2 C105.9 -130.9, 107.68 -131.24, 109.31 -131.27 C110.93 -131.3, 112.73 -130.99, 114.12 -130.37 C115.51 -129.76, 116.5 -128.49, 117.66 -127.58 C118.82 -126.68, 119.91 -125.6, 121.08 -124.96 C122.24 -124.32, 123.61 -123.67, 124.64 -123.76 C125.68 -123.84, 126.42 -124.31, 127.26 -125.48 C128.1 -126.64, 128.6 -127.49, 129.69 -130.75 C130.77 -134.02, 132.55 -140.26, 133.78 -145.07 C135 -149.88, 135.91 -155.3, 137.04 -159.63 C138.16 -163.96, 139.28 -167.64, 140.55 -171.07 C141.81 -174.51, 143.23 -177.73, 144.65 -180.22 C146.06 -182.71, 147.3 -184.43, 149.03 -186.02 C150.77 -187.61, 153.02 -189.06, 155.05 -189.77 C157.09 -190.49, 159.23 -190.69, 161.24 -190.32 C163.25 -189.94, 165.33 -189.13, 167.11 -187.52 C168.89 -185.92, 170.6 -183.28, 171.93 -180.68 C173.26 -178.09, 173.98 -175.46, 175.11 -171.92 C176.25 -168.39, 177.63 -163.82, 178.73 -159.47 C179.84 -155.12, 180.72 -150.15, 181.75 -145.83 C182.78 -141.51, 183.77 -136.82, 184.91 -133.54 C186.06 -130.26, 187.45 -127.9, 188.61 -126.15 C189.78 -124.41, 190.7 -123.61, 191.91 -123.07 C193.13 -122.53, 194.74 -122.58, 195.9 -122.92 C197.07 -123.27, 197.95 -123.95, 198.89 -125.14 C199.83 -126.32, 200.73 -127.94, 201.53 -130.01 C202.34 -132.09, 203.06 -134.5, 203.71 -137.6 C204.36 -140.7, 204.89 -144.08, 205.43 -148.62 C205.97 -153.17, 206.49 -160.23, 206.95 -164.86 C207.41 -169.49, 207.54 -172.51, 208.17 -176.4 C208.81 -180.3, 209.85 -185.48, 210.78 -188.23 C211.72 -190.98, 212.72 -191.84, 213.8 -192.92 C214.88 -194.01, 215.8 -194.39, 217.28 -194.73 C218.76 -195.08, 221.14 -195.35, 222.67 -194.99 C224.19 -194.64, 225.41 -193.12, 226.42 -192.62 C227.42 -192.12, 227.88 -191.8, 228.7 -191.99 C229.53 -192.18, 230.6 -192.55, 231.38 -193.75 C232.17 -194.96, 232.61 -196.46, 233.42 -199.24 C234.22 -202.01, 235.38 -206.74, 236.22 -210.38 C237.05 -214.03, 237.62 -217.89, 238.43 -221.12 C239.24 -224.35, 239.99 -227.3, 241.07 -229.77 C242.15 -232.25, 243.47 -234.38, 244.9 -235.98 C246.34 -237.59, 248.4 -238.78, 249.69 -239.41 C250.97 -240.04, 251.8 -240.01, 252.62 -239.75 C253.43 -239.49, 254.35 -238.55, 254.58 -237.83 C254.82 -237.12, 254.64 -236.22, 254.03 -235.45 C253.42 -234.68, 252.09 -234.31, 250.93 -233.21 C249.78 -232.12, 248.24 -230.89, 247.09 -228.87 C245.95 -226.85, 244.82 -224.03, 244.05 -221.11 C243.27 -218.19, 243.18 -214.93, 242.45 -211.35 C241.71 -207.77, 240.6 -202.95, 239.64 -199.64 C238.68 -196.33, 237.85 -193.59, 236.69 -191.5 C235.53 -189.4, 234.09 -187.99, 232.66 -187.07 C231.24 -186.15, 229.61 -185.91, 228.15 -185.96 C226.7 -186, 225.17 -186.76, 223.94 -187.33 C222.71 -187.9, 221.67 -189.01, 220.75 -189.37 C219.83 -189.73, 219.14 -189.78, 218.44 -189.49 C217.74 -189.21, 217.08 -188.66, 216.55 -187.63 C216.02 -186.6, 215.7 -185.64, 215.24 -183.31 C214.79 -180.98, 214.28 -177.66, 213.81 -173.66 C213.35 -169.66, 212.94 -164.46, 212.45 -159.31 C211.95 -154.16, 211.44 -147.21, 210.84 -142.77 C210.24 -138.34, 209.78 -135.86, 208.85 -132.7 C207.91 -129.53, 206.61 -126.19, 205.21 -123.81 C203.81 -121.43, 202.44 -119.61, 200.46 -118.44 C198.47 -117.26, 195.45 -116.7, 193.3 -116.76 C191.16 -116.82, 189.15 -117.76, 187.6 -118.79 C186.05 -119.82, 185.29 -120.83, 184 -122.95 C182.72 -125.07, 181.17 -127.78, 179.88 -131.5 C178.58 -135.22, 177.33 -140.73, 176.23 -145.28 C175.12 -149.83, 174.24 -154.73, 173.26 -158.82 C172.27 -162.9, 171.35 -166.57, 170.31 -169.79 C169.26 -173.01, 168.13 -175.92, 166.99 -178.11 C165.84 -180.3, 164.86 -181.89, 163.45 -182.93 C162.03 -183.97, 160.08 -184.35, 158.51 -184.35 C156.94 -184.35, 155.7 -184.49, 154.02 -182.93 C152.33 -181.37, 150.2 -178.6, 148.4 -174.99 C146.6 -171.38, 144.65 -166.16, 143.21 -161.26 C141.77 -156.36, 141.11 -150.88, 139.77 -145.57 C138.43 -140.27, 136.39 -133.23, 135.18 -129.42 C133.97 -125.6, 133.74 -124.51, 132.5 -122.68 C131.25 -120.86, 129.31 -119.21, 127.7 -118.47 C126.1 -117.72, 124.58 -117.91, 122.87 -118.2 C121.17 -118.48, 119.06 -119.25, 117.48 -120.16 C115.9 -121.07, 114.52 -122.83, 113.4 -123.66 C112.27 -124.49, 111.75 -124.89, 110.71 -125.13 C109.66 -125.38, 108.13 -125.45, 107.12 -125.15 C106.1 -124.85, 105.32 -124.41, 104.62 -123.32 C103.92 -122.24, 103.54 -121.79, 102.91 -118.65 C102.27 -115.5, 101.7 -110.41, 100.81 -104.45 C99.92 -98.5, 98.87 -91.29, 97.56 -82.93 C96.26 -74.57, 94.3 -63.04, 92.97 -54.29 C91.64 -45.55, 90.57 -37.38, 89.56 -30.48 C88.55 -23.58, 87.45 -16.63, 86.91 -12.91 C86.38 -9.18, 86.37 -9.41, 86.36 -8.12 C86.35 -6.84, 86.31 -5.73, 86.85 -5.21 C87.38 -4.69, 88.09 -5.02, 89.55 -5 C91.01 -4.99, 94.11 -4.95, 95.59 -5.11 C97.06 -5.27, 97.85 -5.06, 98.39 -5.97 C98.93 -6.88, 98.77 -8.24, 98.83 -10.58 C98.89 -12.92, 98.76 -16.61, 98.74 -19.98 C98.73 -23.35, 98.74 -27.56, 98.74 -30.79 C98.74 -34.02, 98.74 -37.51, 98.74 -39.37 C98.74 -41.23, 98.55 -41.28, 98.74 -41.95 C98.94 -42.62, 99.26 -43.08, 99.92 -43.41 C100.59 -43.74, 101.56 -43.82, 102.74 -43.91 C103.92 -43.99, 105.85 -43.91, 106.98 -43.91 C108.1 -43.91, 108.88 -43.65, 109.5 -43.91 C110.12 -44.16, 110.5 -44.12, 110.71 -45.42 C110.92 -46.71, 110.76 -49.45, 110.77 -51.66 C110.78 -53.87, 110.56 -57.17, 110.77 -58.69 C110.98 -60.21, 111.1 -60.35, 112.02 -60.76 C112.94 -61.17, 114.06 -61.08, 116.28 -61.15 C118.5 -61.21, 123.41 -61.22, 125.35 -61.15 C127.28 -61.08, 127.29 -61.25, 127.9 -60.74 C128.51 -60.22, 128.79 -60.36, 129.02 -58.08 C129.25 -55.8, 129.24 -49.95, 129.28 -47.06 C129.33 -44.16, 129.07 -42.02, 129.28 -40.7 C129.5 -39.38, 129.87 -39.39, 130.58 -39.12 C131.29 -38.85, 132.77 -39.06, 133.55 -39.09 C134.34 -39.12, 134.9 -39.04, 135.27 -39.32 C135.65 -39.6, 135.73 -39.53, 135.82 -40.77 C135.91 -42.02, 135.82 -43.47, 135.82 -46.79 C135.82 -50.1, 135.82 -56.08, 135.82 -60.69 C135.82 -65.3, 135.82 -71.14, 135.82 -74.44 C135.82 -77.73, 135.55 -79.18, 135.82 -80.47 C136.09 -81.75, 136.31 -81.85, 137.43 -82.13 C138.56 -82.4, 140.84 -82.07, 142.56 -82.13 C144.28 -82.18, 146.79 -81.99, 147.76 -82.46 C148.72 -82.93, 148.27 -83.51, 148.37 -84.95 C148.47 -86.39, 148.25 -89.6, 148.37 -91.09 C148.49 -92.59, 148.54 -93.32, 149.09 -93.91 C149.65 -94.51, 150.15 -94.51, 151.72 -94.65 C153.28 -94.8, 156.22 -94.81, 158.46 -94.79 C160.71 -94.77, 163.83 -94.96, 165.18 -94.54 C166.54 -94.12, 166.33 -93.75, 166.6 -92.25 C166.88 -90.75, 166.7 -87.16, 166.84 -85.54 C166.97 -83.93, 166.64 -83.15, 167.44 -82.56 C168.23 -81.98, 169.94 -82.08, 171.63 -82.03 C173.31 -81.98, 176.34 -82.49, 177.55 -82.27 C178.76 -82.04, 178.61 -81.75, 178.89 -80.69 C179.17 -79.63, 179.09 -77, 179.23 -75.93 C179.38 -74.85, 179.06 -74.53, 179.75 -74.22 C180.45 -73.92, 181.82 -74.1, 183.38 -74.08 C184.94 -74.05, 187.85 -74.22, 189.12 -74.08 C190.39 -73.94, 190.57 -73.84, 190.97 -73.23 C191.38 -72.62, 191.42 -72.15, 191.55 -70.42 C191.68 -68.68, 191.7 -64.61, 191.75 -62.83 C191.8 -61.05, 191.57 -60.37, 191.86 -59.75 C192.16 -59.12, 192.46 -59.19, 193.5 -59.08 C194.55 -58.98, 196.66 -59.09, 198.15 -59.09 C199.64 -59.09, 201.48 -59.27, 202.45 -59.09 C203.41 -58.91, 203.65 -58.68, 203.92 -58.03 C204.19 -57.39, 203.98 -56.1, 204.06 -55.24 C204.14 -54.38, 204.1 -53.45, 204.4 -52.89 C204.71 -52.33, 204.87 -52.03, 205.89 -51.87 C206.91 -51.71, 209.03 -51.94, 210.52 -51.92 C212.01 -51.91, 213.81 -52.21, 214.83 -51.78 C215.86 -51.35, 216.3 -51.04, 216.67 -49.34 C217.04 -47.64, 217 -44.2, 217.06 -41.59 C217.13 -38.98, 217.01 -35.52, 217.06 -33.68 C217.11 -31.84, 217.04 -31.24, 217.36 -30.56 C217.67 -29.87, 218.03 -29.71, 218.96 -29.57 C219.89 -29.43, 222.15 -29.41, 222.93 -29.73 C223.72 -30.04, 223.49 -30.72, 223.66 -31.47 C223.83 -32.22, 223.63 -33.52, 223.94 -34.2 C224.24 -34.89, 224.56 -35.31, 225.48 -35.58 C226.39 -35.86, 227.86 -35.8, 229.41 -35.84 C230.96 -35.89, 233.64 -35.68, 234.77 -35.84 C235.91 -36.01, 235.95 -35.9, 236.2 -36.83 C236.45 -37.75, 236.25 -38.81, 236.26 -41.41 C236.27 -44.02, 236.26 -49.32, 236.26 -52.45 C236.26 -55.58, 236.26 -58.29, 236.26 -60.19 C236.26 -62.1, 235.96 -63.01, 236.26 -63.89 C236.56 -64.78, 236.86 -65.25, 238.05 -65.52 C239.24 -65.79, 241.27 -65.52, 243.38 -65.52 C245.49 -65.52, 249.04 -65.6, 250.73 -65.52 C252.42 -65.45, 252.87 -65.52, 253.53 -65.07 C254.18 -64.63, 254.46 -64.5, 254.66 -62.83 C254.86 -61.17, 254.7 -60.31, 254.7 -55.1 C254.71 -49.88, 254.7 -37.83, 254.7 -31.55 C254.7 -25.27, 254.7 -21.7, 254.7 -17.39 C254.7 -13.09, 254.74 -8.31, 254.7 -5.71 C254.66 -3.1, 254.83 -2.74, 254.46 -1.76 C254.09 -0.78, 253.89 -0.17, 252.5 0.18 C251.11 0.52, 257.81 0.27, 246.09 0.29 C234.37 0.31, 205.86 0.29, 182.19 0.29 C158.53 0.29, 118.78 0.29, 104.11 0.29 C89.45 0.29, 97.23 0.29, 94.19 0.29 C91.16 0.29, 87.43 -0.09, 85.88 0.29 C84.33 0.68, 85.54 -0.76, 84.9 2.61 C84.26 5.98, 82.77 15.77, 82.03 20.51 C81.29 25.25, 80.95 27.76, 80.44 31.06 C79.94 34.35, 79.52 38.17, 79 40.28 C78.49 42.39, 78.02 43.07, 77.35 43.72 C76.68 44.37, 75.7 44.56, 74.99 44.18 C74.29 43.8, 73.66 43.35, 73.12 41.44 C72.59 39.52, 72.3 36.37, 71.77 32.68 C71.25 28.99, 70.49 23.33, 69.98 19.3 C69.47 15.27, 69.14 11.51, 68.73 8.49 C68.32 5.47, 67.99 2.58, 67.52 1.2 C67.04 -0.18, 66.86 0.36, 65.88 0.19 C64.9 0.02, 68.36 0.18, 61.65 0.17 C54.95 0.17, 35.9 0.2, 25.63 0.17 C15.35 0.14, 4.27 0.03, 0 0" stroke="#E1E1E1" stroke-width="2" fill="none"></path></g></g><mask></mask><g stroke-linecap="round"><g transform="translate(224.12637903163522 364.6056048011724) rotate(0 2.388426222497401 4.647452102362877)"><path d="M0 0 C0.16 1.24, 0.54 5.22, 0.93 7.47 C1.33 9.71, 1.96 13.22, 2.39 13.46 C2.83 13.7, 3.19 10.66, 3.56 8.9 C3.93 7.15, 4.37 4.92, 4.62 2.92 C4.86 0.92, 5.15 -1.92, 5.02 -3.1 C4.88 -4.28, 4.62 -4.01, 3.83 -4.17 C3.03 -4.32, 0.93 -4.37, 0.25 -4.03 C-0.43 -3.69, -0.2 -2.81, -0.24 -2.14 C-0.28 -1.47, -0.04 -0.36, 0 0 M0 0 C0.16 1.24, 0.54 5.22, 0.93 7.47 C1.33 9.71, 1.96 13.22, 2.39 13.46 C2.83 13.7, 3.19 10.66, 3.56 8.9 C3.93 7.15, 4.37 4.92, 4.62 2.92 C4.86 0.92, 5.15 -1.92, 5.02 -3.1 C4.88 -4.28, 4.62 -4.01, 3.83 -4.17 C3.03 -4.32, 0.93 -4.37, 0.25 -4.03 C-0.43 -3.69, -0.2 -2.81, -0.24 -2.14 C-0.28 -1.47, -0.04 -0.36, 0 0" stroke="#E1E1E1" stroke-width="2" fill="none"></path></g></g><mask></mask><g stroke-linecap="round"><g transform="translate(266.98362179096875 339.1947820565274) rotate(0 3.371470548346224 -9.191473357012)"><path d="M0 0 C0 -2.38, 0 -9.98, -0.01 -14.26 C-0.02 -18.55, -0.07 -22.65, -0.08 -25.72 C-0.08 -28.79, -0.26 -31.26, -0.04 -32.7 C0.19 -34.13, 0.33 -34.05, 1.28 -34.32 C2.23 -34.6, 4.76 -34.61, 5.67 -34.33 C6.58 -34.06, 6.59 -33.76, 6.76 -32.65 C6.93 -31.55, 6.69 -31.47, 6.67 -27.7 C6.66 -23.93, 6.65 -15.71, 6.68 -10.06 C6.7 -4.41, 6.82 2.38, 6.82 6.21 C6.82 10.05, 6.8 11.38, 6.7 12.96 C6.6 14.53, 6.74 15.19, 6.23 15.68 C5.71 16.18, 4.51 15.94, 3.61 15.95 C2.7 15.96, 1.38 16.04, 0.8 15.76 C0.22 15.47, 0.25 15.06, 0.11 14.21 C-0.04 13.37, -0.02 13.05, -0.04 10.68 C-0.06 8.31, -0.01 1.78, 0 0 M0 0 C0 -2.38, 0 -9.98, -0.01 -14.26 C-0.02 -18.55, -0.07 -22.65, -0.08 -25.72 C-0.08 -28.79, -0.26 -31.26, -0.04 -32.7 C0.19 -34.13, 0.33 -34.05, 1.28 -34.32 C2.23 -34.6, 4.76 -34.61, 5.67 -34.33 C6.58 -34.06, 6.59 -33.76, 6.76 -32.65 C6.93 -31.55, 6.69 -31.47, 6.67 -27.7 C6.66 -23.93, 6.65 -15.71, 6.68 -10.06 C6.7 -4.41, 6.82 2.38, 6.82 6.21 C6.82 10.05, 6.8 11.38, 6.7 12.96 C6.6 14.53, 6.74 15.19, 6.23 15.68 C5.71 16.18, 4.51 15.94, 3.61 15.95 C2.7 15.96, 1.38 16.04, 0.8 15.76 C0.22 15.47, 0.25 15.06, 0.11 14.21 C-0.04 13.37, -0.02 13.05, -0.04 10.68 C-0.06 8.31, -0.01 1.78, 0 0" stroke="#E1E1E1" stroke-width="2" fill="none"></path></g></g><mask></mask><g stroke-linecap="round"><g transform="translate(254.32871014508237 344.7306378715921) rotate(0 3.371470548346224 -6.157425072785827)"><path d="M0 0 C0 -1.59, 0 -6.68, -0.01 -9.56 C-0.02 -12.43, -0.07 -15.17, -0.08 -17.23 C-0.08 -19.29, -0.26 -20.94, -0.04 -21.9 C0.19 -22.87, 0.33 -22.81, 1.28 -22.99 C2.23 -23.18, 4.79 -23.19, 5.67 -23 C6.55 -22.81, 6.4 -22.6, 6.57 -21.86 C6.74 -21.12, 6.66 -21.08, 6.67 -18.56 C6.69 -16.04, 6.65 -10.52, 6.68 -6.74 C6.7 -2.95, 6.82 1.59, 6.82 4.16 C6.82 6.73, 6.8 7.62, 6.7 8.68 C6.6 9.74, 6.74 10.17, 6.23 10.51 C5.71 10.84, 4.51 10.68, 3.61 10.69 C2.7 10.69, 1.38 10.75, 0.8 10.55 C0.22 10.36, 0.25 10.09, 0.11 9.52 C-0.04 8.96, -0.02 8.74, -0.04 7.16 C-0.06 5.57, -0.01 1.19, 0 0 M0 0 C0 -1.59, 0 -6.68, -0.01 -9.56 C-0.02 -12.43, -0.07 -15.17, -0.08 -17.23 C-0.08 -19.29, -0.26 -20.94, -0.04 -21.9 C0.19 -22.87, 0.33 -22.81, 1.28 -22.99 C2.23 -23.18, 4.79 -23.19, 5.67 -23 C6.55 -22.81, 6.4 -22.6, 6.57 -21.86 C6.74 -21.12, 6.66 -21.08, 6.67 -18.56 C6.69 -16.04, 6.65 -10.52, 6.68 -6.74 C6.7 -2.95, 6.82 1.59, 6.82 4.16 C6.82 6.73, 6.8 7.62, 6.7 8.68 C6.6 9.74, 6.74 10.17, 6.23 10.51 C5.71 10.84, 4.51 10.68, 3.61 10.69 C2.7 10.69, 1.38 10.75, 0.8 10.55 C0.22 10.36, 0.25 10.09, 0.11 9.52 C-0.04 8.96, -0.02 8.74, -0.04 7.16 C-0.06 5.57, -0.01 1.19, 0 0" stroke="#E1E1E1" stroke-width="2" fill="none"></path></g></g><mask></mask><g stroke-linecap="round"><g transform="translate(354.66585392376874 342.4137661386694) rotate(0 3.371470548346224 -7.602947185102948)"><path d="M0 0 C0 -1.97, 0 -8.25, -0.01 -11.8 C-0.02 -15.34, -0.07 -18.73, -0.08 -21.27 C-0.08 -23.82, -0.26 -25.86, -0.04 -27.05 C0.19 -28.23, 0.33 -28.17, 1.28 -28.39 C2.23 -28.62, 4.79 -28.63, 5.67 -28.4 C6.55 -28.17, 6.4 -27.91, 6.57 -26.99 C6.74 -26.08, 6.66 -26.02, 6.67 -22.91 C6.69 -19.8, 6.65 -13, 6.68 -8.32 C6.7 -3.65, 6.82 1.97, 6.82 5.14 C6.82 8.31, 6.8 9.41, 6.7 10.72 C6.6 12.02, 6.74 12.56, 6.23 12.97 C5.71 13.39, 4.51 13.18, 3.61 13.19 C2.7 13.2, 1.38 13.27, 0.8 13.03 C0.22 12.79, 0.25 12.46, 0.11 11.76 C-0.04 11.06, -0.02 10.79, -0.04 8.84 C-0.06 6.88, -0.01 1.47, 0 0 M0 0 C0 -1.97, 0 -8.25, -0.01 -11.8 C-0.02 -15.34, -0.07 -18.73, -0.08 -21.27 C-0.08 -23.82, -0.26 -25.86, -0.04 -27.05 C0.19 -28.23, 0.33 -28.17, 1.28 -28.39 C2.23 -28.62, 4.79 -28.63, 5.67 -28.4 C6.55 -28.17, 6.4 -27.91, 6.57 -26.99 C6.74 -26.08, 6.66 -26.02, 6.67 -22.91 C6.69 -19.8, 6.65 -13, 6.68 -8.32 C6.7 -3.65, 6.82 1.97, 6.82 5.14 C6.82 8.31, 6.8 9.41, 6.7 10.72 C6.6 12.02, 6.74 12.56, 6.23 12.97 C5.71 13.39, 4.51 13.18, 3.61 13.19 C2.7 13.2, 1.38 13.27, 0.8 13.03 C0.22 12.79, 0.25 12.46, 0.11 11.76 C-0.04 11.06, -0.02 10.79, -0.04 8.84 C-0.06 6.88, -0.01 1.47, 0 0" stroke="#E1E1E1" stroke-width="2" fill="none"></path></g></g><mask></mask><g stroke-linecap="round"><g transform="translate(342.16704505971757 339.68370946462073) rotate(0 3.371470548346224 -8.706977766263208)"><path d="M0 0 C0 -2.25, 0 -9.45, -0.01 -13.51 C-0.02 -17.57, -0.07 -21.45, -0.08 -24.36 C-0.08 -27.27, -0.26 -29.62, -0.04 -30.97 C0.19 -32.33, 0.33 -32.26, 1.28 -32.51 C2.23 -32.77, 4.76 -32.79, 5.67 -32.52 C6.58 -32.26, 6.59 -31.98, 6.76 -30.93 C6.93 -29.89, 6.69 -29.81, 6.67 -26.24 C6.66 -22.67, 6.65 -14.88, 6.68 -9.53 C6.7 -4.17, 6.82 2.25, 6.82 5.88 C6.82 9.52, 6.8 10.78, 6.7 12.27 C6.6 13.77, 6.74 14.39, 6.23 14.86 C5.71 15.33, 4.51 15.1, 3.61 15.11 C2.7 15.12, 1.38 15.2, 0.8 14.92 C0.22 14.65, 0.25 14.27, 0.11 13.46 C-0.04 12.66, -0.02 12.36, -0.04 10.12 C-0.06 7.87, -0.01 1.69, 0 0 M0 0 C0 -2.25, 0 -9.45, -0.01 -13.51 C-0.02 -17.57, -0.07 -21.45, -0.08 -24.36 C-0.08 -27.27, -0.26 -29.62, -0.04 -30.97 C0.19 -32.33, 0.33 -32.26, 1.28 -32.51 C2.23 -32.77, 4.76 -32.79, 5.67 -32.52 C6.58 -32.26, 6.59 -31.98, 6.76 -30.93 C6.93 -29.89, 6.69 -29.81, 6.67 -26.24 C6.66 -22.67, 6.65 -14.88, 6.68 -9.53 C6.7 -4.17, 6.82 2.25, 6.82 5.88 C6.82 9.52, 6.8 10.78, 6.7 12.27 C6.6 13.77, 6.74 14.39, 6.23 14.86 C5.71 15.33, 4.51 15.1, 3.61 15.11 C2.7 15.12, 1.38 15.2, 0.8 14.92 C0.22 14.65, 0.25 14.27, 0.11 13.46 C-0.04 12.66, -0.02 12.36, -0.04 10.12 C-0.06 7.87, -0.01 1.69, 0 0" stroke="#E1E1E1" stroke-width="2" fill="none"></path></g></g><mask></mask><g stroke-linecap="round"><g transform="translate(279.5901376130787 346.3847488251222) rotate(0 3.371470548346224 -5.1708558423324575)"><path d="M0 0 C0 -1.34, 0 -5.61, -0.01 -8.02 C-0.02 -10.44, -0.07 -12.74, -0.08 -14.47 C-0.08 -16.2, -0.26 -17.59, -0.04 -18.4 C0.19 -19.2, 0.33 -19.16, 1.28 -19.31 C2.23 -19.46, 4.79 -19.47, 5.67 -19.32 C6.55 -19.16, 6.4 -18.98, 6.57 -18.36 C6.74 -17.74, 6.66 -17.7, 6.67 -15.58 C6.69 -13.47, 6.65 -8.84, 6.68 -5.66 C6.7 -2.48, 6.82 1.34, 6.82 3.49 C6.82 5.65, 6.8 6.4, 6.7 7.29 C6.6 8.18, 6.74 8.54, 6.23 8.82 C5.71 9.1, 4.51 8.97, 3.61 8.97 C2.7 8.98, 1.38 9.03, 0.8 8.86 C0.22 8.7, 0.25 8.47, 0.11 8 C-0.04 7.52, -0.02 7.34, -0.04 6.01 C-0.06 4.68, -0.01 1, 0 0 M0 0 C0 -1.34, 0 -5.61, -0.01 -8.02 C-0.02 -10.44, -0.07 -12.74, -0.08 -14.47 C-0.08 -16.2, -0.26 -17.59, -0.04 -18.4 C0.19 -19.2, 0.33 -19.16, 1.28 -19.31 C2.23 -19.46, 4.79 -19.47, 5.67 -19.32 C6.55 -19.16, 6.4 -18.98, 6.57 -18.36 C6.74 -17.74, 6.66 -17.7, 6.67 -15.58 C6.69 -13.47, 6.65 -8.84, 6.68 -5.66 C6.7 -2.48, 6.82 1.34, 6.82 3.49 C6.82 5.65, 6.8 6.4, 6.7 7.29 C6.6 8.18, 6.74 8.54, 6.23 8.82 C5.71 9.1, 4.51 8.97, 3.61 8.97 C2.7 8.98, 1.38 9.03, 0.8 8.86 C0.22 8.7, 0.25 8.47, 0.11 8 C-0.04 7.52, -0.02 7.34, -0.04 6.01 C-0.06 4.68, -0.01 1, 0 0" stroke="#E1E1E1" stroke-width="2" fill="none"></path></g></g><mask></mask><g stroke-linecap="round"><g transform="translate(379.99591611487995 347.5594497414795) rotate(0 3.371470548346224 -4.471139831361597)"><path d="M0 0 C0 -1.16, 0 -4.85, -0.01 -6.94 C-0.02 -9.02, -0.07 -11.02, -0.08 -12.51 C-0.08 -14.01, -0.26 -15.21, -0.04 -15.91 C0.19 -16.6, 0.33 -16.56, 1.28 -16.7 C2.23 -16.83, 4.79 -16.84, 5.67 -16.7 C6.55 -16.56, 6.4 -16.41, 6.57 -15.87 C6.74 -15.34, 6.66 -15.3, 6.67 -13.47 C6.69 -11.64, 6.65 -7.64, 6.68 -4.89 C6.7 -2.14, 6.82 1.16, 6.82 3.02 C6.82 4.89, 6.8 5.53, 6.7 6.3 C6.6 7.07, 6.74 7.39, 6.23 7.63 C5.71 7.87, 4.51 7.75, 3.61 7.76 C2.7 7.76, 1.38 7.8, 0.8 7.66 C0.22 7.52, 0.25 7.33, 0.11 6.91 C-0.04 6.5, -0.02 6.35, -0.04 5.2 C-0.06 4.04, -0.01 0.87, 0 0 M0 0 C0 -1.16, 0 -4.85, -0.01 -6.94 C-0.02 -9.02, -0.07 -11.02, -0.08 -12.51 C-0.08 -14.01, -0.26 -15.21, -0.04 -15.91 C0.19 -16.6, 0.33 -16.56, 1.28 -16.7 C2.23 -16.83, 4.79 -16.84, 5.67 -16.7 C6.55 -16.56, 6.4 -16.41, 6.57 -15.87 C6.74 -15.34, 6.66 -15.3, 6.67 -13.47 C6.69 -11.64, 6.65 -7.64, 6.68 -4.89 C6.7 -2.14, 6.82 1.16, 6.82 3.02 C6.82 4.89, 6.8 5.53, 6.7 6.3 C6.6 7.07, 6.74 7.39, 6.23 7.63 C5.71 7.87, 4.51 7.75, 3.61 7.76 C2.7 7.76, 1.38 7.8, 0.8 7.66 C0.22 7.52, 0.25 7.33, 0.11 6.91 C-0.04 6.5, -0.02 6.35, -0.04 5.2 C-0.06 4.04, -0.01 0.87, 0 0" stroke="#E1E1E1" stroke-width="2" fill="none"></path></g></g><mask></mask><g stroke-linecap="round"><g transform="translate(367.30160377037464 349.1284954716011) rotate(0 3.371470548346224 -3.4357139965668466)"><path d="M0 0 C0 -0.89, 0 -3.73, -0.01 -5.33 C-0.02 -6.93, -0.07 -8.47, -0.08 -9.61 C-0.08 -10.76, -0.26 -11.69, -0.04 -12.22 C0.19 -12.76, 0.33 -12.73, 1.28 -12.83 C2.23 -12.93, 4.79 -12.94, 5.67 -12.83 C6.55 -12.73, 6.4 -12.61, 6.57 -12.2 C6.74 -11.78, 6.66 -11.76, 6.67 -10.35 C6.69 -8.95, 6.65 -5.87, 6.68 -3.76 C6.7 -1.65, 6.82 0.89, 6.82 2.32 C6.82 3.76, 6.8 4.25, 6.7 4.84 C6.6 5.43, 6.74 5.68, 6.23 5.86 C5.71 6.05, 4.51 5.96, 3.61 5.96 C2.7 5.97, 1.38 6, 0.8 5.89 C0.22 5.78, 0.25 5.63, 0.11 5.31 C-0.04 5, -0.02 4.88, -0.04 3.99 C-0.06 3.11, -0.01 0.67, 0 0 M0 0 C0 -0.89, 0 -3.73, -0.01 -5.33 C-0.02 -6.93, -0.07 -8.47, -0.08 -9.61 C-0.08 -10.76, -0.26 -11.69, -0.04 -12.22 C0.19 -12.76, 0.33 -12.73, 1.28 -12.83 C2.23 -12.93, 4.79 -12.94, 5.67 -12.83 C6.55 -12.73, 6.4 -12.61, 6.57 -12.2 C6.74 -11.78, 6.66 -11.76, 6.67 -10.35 C6.69 -8.95, 6.65 -5.87, 6.68 -3.76 C6.7 -1.65, 6.82 0.89, 6.82 2.32 C6.82 3.76, 6.8 4.25, 6.7 4.84 C6.6 5.43, 6.74 5.68, 6.23 5.86 C5.71 6.05, 4.51 5.96, 3.61 5.96 C2.7 5.97, 1.38 6, 0.8 5.89 C0.22 5.78, 0.25 5.63, 0.11 5.31 C-0.04 5, -0.02 4.88, -0.04 3.99 C-0.06 3.11, -0.01 0.67, 0 0" stroke="#E1E1E1" stroke-width="2" fill="none"></path></g></g><mask></mask><g stroke-linecap="round"><g transform="translate(392.26123394162096 337.72973111940337) rotate(0 3.371470548346224 -9.974419878668868)"><path d="M0 0 C0 -2.58, 0 -10.83, -0.01 -15.48 C-0.02 -20.13, -0.07 -24.58, -0.08 -27.91 C-0.08 -31.24, -0.26 -33.93, -0.04 -35.48 C0.19 -37.04, 0.33 -36.95, 1.28 -37.25 C2.23 -37.54, 4.76 -37.56, 5.67 -37.26 C6.58 -36.96, 6.59 -36.64, 6.76 -35.44 C6.93 -34.24, 6.69 -34.15, 6.67 -30.06 C6.66 -25.97, 6.65 -17.05, 6.68 -10.92 C6.7 -4.78, 6.82 2.58, 6.82 6.74 C6.82 10.9, 6.8 12.35, 6.7 14.06 C6.6 15.77, 6.74 16.48, 6.23 17.02 C5.71 17.56, 4.51 17.3, 3.61 17.31 C2.7 17.32, 1.38 17.41, 0.8 17.1 C0.22 16.78, 0.25 16.34, 0.11 15.42 C-0.04 14.51, -0.02 14.16, -0.04 11.59 C-0.06 9.02, -0.01 1.93, 0 0 M0 0 C0 -2.58, 0 -10.83, -0.01 -15.48 C-0.02 -20.13, -0.07 -24.58, -0.08 -27.91 C-0.08 -31.24, -0.26 -33.93, -0.04 -35.48 C0.19 -37.04, 0.33 -36.95, 1.28 -37.25 C2.23 -37.54, 4.76 -37.56, 5.67 -37.26 C6.58 -36.96, 6.59 -36.64, 6.76 -35.44 C6.93 -34.24, 6.69 -34.15, 6.67 -30.06 C6.66 -25.97, 6.65 -17.05, 6.68 -10.92 C6.7 -4.78, 6.82 2.58, 6.82 6.74 C6.82 10.9, 6.8 12.35, 6.7 14.06 C6.6 15.77, 6.74 16.48, 6.23 17.02 C5.71 17.56, 4.51 17.3, 3.61 17.31 C2.7 17.32, 1.38 17.41, 0.8 17.1 C0.22 16.78, 0.25 16.34, 0.11 15.42 C-0.04 14.51, -0.02 14.16, -0.04 11.59 C-0.06 9.02, -0.01 1.93, 0 0" stroke="#E1E1E1" stroke-width="2" fill="none"></path></g></g><mask></mask><g stroke-linecap="round"><g transform="translate(329.2699917067621 335.3326594884602) rotate(0 3.371470548346224 -11.506139071283087)"><path d="M0 0 C0 -2.98, 0 -12.49, -0.01 -17.86 C-0.02 -23.22, -0.07 -28.35, -0.08 -32.2 C-0.08 -36.04, -0.26 -39.14, -0.04 -40.93 C0.19 -42.73, 0.33 -42.62, 1.28 -42.97 C2.23 -43.31, 4.76 -43.33, 5.67 -42.98 C6.58 -42.63, 6.59 -42.26, 6.76 -40.88 C6.93 -39.49, 6.69 -39.39, 6.67 -34.68 C6.66 -29.96, 6.65 -19.67, 6.68 -12.59 C6.7 -5.52, 6.82 2.97, 6.82 7.78 C6.82 12.58, 6.8 14.24, 6.7 16.22 C6.6 18.2, 6.74 19.01, 6.23 19.63 C5.71 20.26, 4.51 19.95, 3.61 19.97 C2.7 19.98, 1.38 20.09, 0.8 19.72 C0.22 19.36, 0.25 18.85, 0.11 17.79 C-0.04 16.73, -0.02 16.34, -0.04 13.37 C-0.06 10.41, -0.01 2.23, 0 0 M0 0 C0 -2.98, 0 -12.49, -0.01 -17.86 C-0.02 -23.22, -0.07 -28.35, -0.08 -32.2 C-0.08 -36.04, -0.26 -39.14, -0.04 -40.93 C0.19 -42.73, 0.33 -42.62, 1.28 -42.97 C2.23 -43.31, 4.76 -43.33, 5.67 -42.98 C6.58 -42.63, 6.59 -42.26, 6.76 -40.88 C6.93 -39.49, 6.69 -39.39, 6.67 -34.68 C6.66 -29.96, 6.65 -19.67, 6.68 -12.59 C6.7 -5.52, 6.82 2.97, 6.82 7.78 C6.82 12.58, 6.8 14.24, 6.7 16.22 C6.6 18.2, 6.74 19.01, 6.23 19.63 C5.71 20.26, 4.51 19.95, 3.61 19.97 C2.7 19.98, 1.38 20.09, 0.8 19.72 C0.22 19.36, 0.25 18.85, 0.11 17.79 C-0.04 16.73, -0.02 16.34, -0.04 13.37 C-0.06 10.41, -0.01 2.23, 0 0" stroke="#E1E1E1" stroke-width="2" fill="none"></path></g></g><mask></mask><g stroke-linecap="round"><g transform="translate(316.62940266732767 332.68927563892976) rotate(0 3.371470548346224 -13.032691410754524)"><path d="M0 0 C0 -3.37, 0 -14.15, -0.01 -20.22 C-0.02 -26.3, -0.07 -32.11, -0.08 -36.47 C-0.08 -40.82, -0.26 -44.33, -0.04 -46.36 C0.19 -48.4, 0.33 -48.28, 1.28 -48.67 C2.23 -49.05, 4.76 -49.08, 5.67 -48.68 C6.58 -48.29, 6.59 -47.87, 6.76 -46.3 C6.93 -44.73, 6.69 -44.62, 6.67 -39.28 C6.66 -33.94, 6.65 -22.28, 6.68 -14.26 C6.7 -6.25, 6.82 3.37, 6.82 8.81 C6.82 14.25, 6.8 16.13, 6.7 18.37 C6.6 20.61, 6.74 21.53, 6.23 22.24 C5.71 22.95, 4.51 22.6, 3.61 22.62 C2.7 22.63, 1.38 22.75, 0.8 22.34 C0.22 21.93, 0.25 21.35, 0.11 20.15 C-0.04 18.96, -0.02 18.5, -0.04 15.15 C-0.06 11.79, -0.01 2.52, 0 0 M0 0 C0 -3.37, 0 -14.15, -0.01 -20.22 C-0.02 -26.3, -0.07 -32.11, -0.08 -36.47 C-0.08 -40.82, -0.26 -44.33, -0.04 -46.36 C0.19 -48.4, 0.33 -48.28, 1.28 -48.67 C2.23 -49.05, 4.76 -49.08, 5.67 -48.68 C6.58 -48.29, 6.59 -47.87, 6.76 -46.3 C6.93 -44.73, 6.69 -44.62, 6.67 -39.28 C6.66 -33.94, 6.65 -22.28, 6.68 -14.26 C6.7 -6.25, 6.82 3.37, 6.82 8.81 C6.82 14.25, 6.8 16.13, 6.7 18.37 C6.6 20.61, 6.74 21.53, 6.23 22.24 C5.71 22.95, 4.51 22.6, 3.61 22.62 C2.7 22.63, 1.38 22.75, 0.8 22.34 C0.22 21.93, 0.25 21.35, 0.11 20.15 C-0.04 18.96, -0.02 18.5, -0.04 15.15 C-0.06 11.79, -0.01 2.52, 0 0" stroke="#E1E1E1" stroke-width="2" fill="none"></path></g></g><mask></mask><g stroke-linecap="round"><g transform="translate(291.9354420931777 332.76555974226176) rotate(0 3.371470548346224 -13.032691410754524)"><path d="M0 0 C0 -3.37, 0 -14.15, -0.01 -20.22 C-0.02 -26.3, -0.07 -32.11, -0.08 -36.47 C-0.08 -40.82, -0.26 -44.33, -0.04 -46.36 C0.19 -48.4, 0.33 -48.28, 1.28 -48.67 C2.23 -49.05, 4.76 -49.08, 5.67 -48.68 C6.58 -48.29, 6.59 -47.87, 6.76 -46.3 C6.93 -44.73, 6.69 -44.62, 6.67 -39.28 C6.66 -33.94, 6.65 -22.28, 6.68 -14.26 C6.7 -6.25, 6.82 3.37, 6.82 8.81 C6.82 14.25, 6.8 16.13, 6.7 18.37 C6.6 20.61, 6.74 21.53, 6.23 22.24 C5.71 22.95, 4.51 22.6, 3.61 22.62 C2.7 22.63, 1.38 22.75, 0.8 22.34 C0.22 21.93, 0.25 21.35, 0.11 20.15 C-0.04 18.96, -0.02 18.5, -0.04 15.15 C-0.06 11.79, -0.01 2.52, 0 0 M0 0 C0 -3.37, 0 -14.15, -0.01 -20.22 C-0.02 -26.3, -0.07 -32.11, -0.08 -36.47 C-0.08 -40.82, -0.26 -44.33, -0.04 -46.36 C0.19 -48.4, 0.33 -48.28, 1.28 -48.67 C2.23 -49.05, 4.76 -49.08, 5.67 -48.68 C6.58 -48.29, 6.59 -47.87, 6.76 -46.3 C6.93 -44.73, 6.69 -44.62, 6.67 -39.28 C6.66 -33.94, 6.65 -22.28, 6.68 -14.26 C6.7 -6.25, 6.82 3.37, 6.82 8.81 C6.82 14.25, 6.8 16.13, 6.7 18.37 C6.6 20.61, 6.74 21.53, 6.23 22.24 C5.71 22.95, 4.51 22.6, 3.61 22.62 C2.7 22.63, 1.38 22.75, 0.8 22.34 C0.22 21.93, 0.25 21.35, 0.11 20.15 C-0.04 18.96, -0.02 18.5, -0.04 15.15 C-0.06 11.79, -0.01 2.52, 0 0" stroke="#E1E1E1" stroke-width="2" fill="none"></path></g></g><mask></mask><g stroke-linecap="round"><g transform="translate(304.3200876095034 328.87939631436166) rotate(0 3.371470548346224 -15.292689832839642)"><path d="M0 0 C0 -3.96, 0 -16.6, -0.01 -23.73 C-0.02 -30.86, -0.07 -37.68, -0.08 -42.79 C-0.08 -47.9, -0.26 -52.02, -0.04 -54.4 C0.19 -56.79, 0.33 -56.65, 1.28 -57.11 C2.23 -57.56, 4.76 -57.59, 5.67 -57.12 C6.58 -56.66, 6.59 -56.17, 6.76 -54.33 C6.93 -52.49, 6.69 -52.35, 6.67 -46.09 C6.66 -39.82, 6.65 -26.14, 6.68 -16.74 C6.7 -7.33, 6.82 3.95, 6.82 10.33 C6.82 16.72, 6.8 18.93, 6.7 21.56 C6.6 24.18, 6.74 25.27, 6.23 26.1 C5.71 26.93, 4.51 26.52, 3.61 26.54 C2.7 26.56, 1.38 26.69, 0.8 26.21 C0.22 25.73, 0.25 25.06, 0.11 23.65 C-0.04 22.24, -0.02 21.71, -0.04 17.77 C-0.06 13.83, -0.01 2.96, 0 0 M0 0 C0 -3.96, 0 -16.6, -0.01 -23.73 C-0.02 -30.86, -0.07 -37.68, -0.08 -42.79 C-0.08 -47.9, -0.26 -52.02, -0.04 -54.4 C0.19 -56.79, 0.33 -56.65, 1.28 -57.11 C2.23 -57.56, 4.76 -57.59, 5.67 -57.12 C6.58 -56.66, 6.59 -56.17, 6.76 -54.33 C6.93 -52.49, 6.69 -52.35, 6.67 -46.09 C6.66 -39.82, 6.65 -26.14, 6.68 -16.74 C6.7 -7.33, 6.82 3.95, 6.82 10.33 C6.82 16.72, 6.8 18.93, 6.7 21.56 C6.6 24.18, 6.74 25.27, 6.23 26.1 C5.71 26.93, 4.51 26.52, 3.61 26.54 C2.7 26.56, 1.38 26.69, 0.8 26.21 C0.22 25.73, 0.25 25.06, 0.11 23.65 C-0.04 22.24, -0.02 21.71, -0.04 17.77 C-0.06 13.83, -0.01 2.96, 0 0" stroke="#E1E1E1" stroke-width="2" fill="none"></path></g></g><mask></mask><g stroke-linecap="round"><g transform="translate(36.655089772086285 138.7456010046344) rotate(0 170.85807111442955 -41.54728762570721)"><path d="M0 0 C3.32 -2.59, 14.54 -11.32, 19.94 -15.55 C25.35 -19.79, 29.2 -22.84, 32.43 -25.4 C35.66 -27.96, 37.56 -29.57, 39.34 -30.91 C41.13 -32.25, 42.02 -33.09, 43.14 -33.46 C44.25 -33.83, 44.63 -33.65, 46.03 -33.14 C47.44 -32.62, 48.08 -32.15, 51.57 -30.38 C55.05 -28.62, 62.78 -24.65, 66.93 -22.54 C71.07 -20.42, 73.93 -18.96, 76.43 -17.69 C78.92 -16.41, 80.57 -15.17, 81.88 -14.87 C83.18 -14.57, 82.99 -14.96, 84.24 -15.91 C85.5 -16.86, 86.58 -18.2, 89.41 -20.57 C92.24 -22.94, 97.66 -27.18, 101.21 -30.13 C104.77 -33.09, 108.53 -36.45, 110.76 -38.28 C112.99 -40.11, 113.49 -40.65, 114.59 -41.1 C115.69 -41.56, 115.97 -41.67, 117.36 -41.02 C118.76 -40.38, 120.97 -38.59, 122.97 -37.21 C124.97 -35.84, 127.61 -33.98, 129.35 -32.78 C131.09 -31.59, 132.36 -30.44, 133.4 -30.06 C134.44 -29.68, 134.46 -29.81, 135.61 -30.51 C136.76 -31.21, 138.37 -32.7, 140.33 -34.25 C142.28 -35.81, 145.63 -38.66, 147.35 -39.82 C149.08 -40.98, 149.67 -41.2, 150.69 -41.22 C151.71 -41.24, 151.96 -41.04, 153.48 -39.96 C155 -38.88, 156.67 -37.3, 159.82 -34.72 C162.97 -32.14, 167.79 -28.26, 172.35 -24.46 C176.92 -20.66, 183.52 -14.97, 187.2 -11.91 C190.89 -8.85, 192.7 -7.26, 194.47 -6.11 C196.23 -4.96, 196.78 -4.87, 197.78 -5.01 C198.79 -5.16, 199.27 -5.92, 200.49 -6.99 C201.72 -8.07, 201.74 -8.19, 205.14 -11.47 C208.53 -14.76, 216.35 -22.37, 220.87 -26.71 C225.38 -31.05, 229.43 -34.86, 232.23 -37.53 C235.04 -40.21, 236.26 -41.71, 237.68 -42.75 C239.11 -43.79, 238.8 -43.59, 240.79 -43.76 C242.78 -43.94, 247.54 -43.76, 249.6 -43.81 C251.67 -43.86, 251.94 -43.44, 253.17 -44.05 C254.4 -44.66, 255.37 -45.89, 256.99 -47.47 C258.6 -49.04, 260.71 -51.37, 262.84 -53.52 C264.97 -55.66, 268.19 -58.9, 269.75 -60.33 C271.32 -61.77, 270.81 -61.79, 272.23 -62.13 C273.65 -62.47, 276.03 -62.35, 278.28 -62.39 C280.54 -62.43, 284.19 -62.28, 285.76 -62.36 C287.33 -62.43, 286.89 -62.27, 287.7 -62.83 C288.51 -63.39, 289.05 -64.09, 290.62 -65.72 C292.18 -67.36, 294.47 -69.93, 297.11 -72.63 C299.75 -75.32, 303 -78.46, 306.46 -81.89 C309.91 -85.32, 314.74 -90.17, 317.82 -93.22 C320.89 -96.27, 323.63 -98.69, 324.89 -100.21 C326.16 -101.73, 325.66 -101.82, 325.41 -102.34 C325.16 -102.87, 324.65 -102.83, 323.38 -103.35 C322.12 -103.87, 319.48 -104.79, 317.84 -105.48 C316.19 -106.17, 314.42 -106.86, 313.52 -107.51 C312.62 -108.16, 312.48 -108.72, 312.43 -109.37 C312.39 -110.02, 312.28 -110.7, 313.26 -111.38 C314.23 -112.07, 315.34 -112.47, 318.29 -113.49 C321.24 -114.51, 325.89 -115.88, 330.96 -117.51 C336.03 -119.13, 343.31 -121.45, 348.72 -123.24 C354.13 -125.03, 360.34 -127.41, 363.42 -128.26 C366.51 -129.1, 366.45 -128.68, 367.23 -128.29 C368.01 -127.89, 368.29 -127.22, 368.13 -125.88 C367.96 -124.55, 367.17 -123.26, 366.24 -120.27 C365.31 -117.29, 363.7 -112.04, 362.54 -107.97 C361.38 -103.89, 360.66 -100.62, 359.28 -95.81 C357.89 -90.99, 355.33 -82.71, 354.21 -79.06 C353.09 -75.41, 353.26 -75.07, 352.55 -73.92 C351.84 -72.76, 350.8 -72.15, 349.93 -72.15 C349.06 -72.16, 348.04 -72.85, 347.33 -73.95 C346.61 -75.04, 346.21 -77.24, 345.65 -78.7 C345.09 -80.17, 344.43 -81.64, 343.97 -82.73 C343.5 -83.81, 343.29 -84.56, 342.86 -85.2 C342.42 -85.83, 341.92 -86.55, 341.36 -86.52 C340.79 -86.5, 340.57 -86.08, 339.48 -85.05 C338.4 -84.03, 337.06 -82.59, 334.86 -80.37 C332.66 -78.16, 330.21 -75.72, 326.28 -71.76 C322.35 -67.8, 315.32 -60.69, 311.28 -56.61 C307.24 -52.54, 304.48 -49.76, 302.03 -47.3 C299.59 -44.83, 297.86 -43.06, 296.6 -41.82 C295.35 -40.58, 295.3 -40.23, 294.49 -39.87 C293.67 -39.51, 293.13 -39.69, 291.74 -39.66 C290.36 -39.64, 288.19 -39.71, 286.17 -39.73 C284.15 -39.74, 281 -39.96, 279.62 -39.73 C278.25 -39.49, 278.65 -39, 277.91 -38.29 C277.17 -37.59, 276.96 -37.25, 275.18 -35.51 C273.4 -33.76, 269.55 -30.09, 267.25 -27.84 C264.95 -25.59, 262.8 -23.09, 261.38 -21.98 C259.95 -20.87, 259.59 -21.32, 258.69 -21.19 C257.79 -21.05, 257.93 -21.19, 255.98 -21.19 C254.03 -21.19, 248.85 -21.36, 246.99 -21.19 C245.13 -21.01, 245.89 -21.01, 244.82 -20.15 C243.75 -19.29, 242.87 -18.2, 240.58 -16.02 C238.28 -13.85, 234.95 -10.83, 231.06 -7.11 C227.17 -3.39, 221.51 2.24, 217.24 6.27 C212.98 10.31, 208.48 14.27, 205.46 17.09 C202.44 19.91, 200.74 22.09, 199.13 23.18 C197.52 24.28, 197.68 24.67, 195.8 23.67 C193.92 22.67, 192.98 21.39, 187.86 17.18 C182.75 12.98, 170.56 2.97, 165.1 -1.57 C159.65 -6.1, 157.6 -8.09, 155.14 -10.03 C152.68 -11.97, 151.56 -12.86, 150.35 -13.23 C149.15 -13.59, 148.97 -12.93, 147.9 -12.24 C146.84 -11.54, 145.47 -10.25, 143.98 -9.05 C142.49 -7.85, 140.34 -6.06, 138.98 -5.03 C137.61 -4, 136.77 -3.09, 135.77 -2.89 C134.77 -2.68, 134.27 -3.1, 132.97 -3.78 C131.67 -4.47, 129.86 -5.74, 127.95 -6.99 C126.05 -8.24, 123.19 -10.17, 121.56 -11.28 C119.92 -12.38, 119.16 -13.3, 118.12 -13.61 C117.09 -13.92, 116.68 -13.91, 115.35 -13.15 C114.02 -12.38, 113.23 -11.58, 110.15 -9.02 C107.06 -6.46, 100.36 -0.74, 96.82 2.24 C93.28 5.21, 90.71 7.46, 88.89 8.85 C87.06 10.24, 86.72 10.33, 85.86 10.58 C85 10.83, 84.93 10.77, 83.71 10.35 C82.49 9.93, 81.22 9.38, 78.53 8.07 C75.84 6.76, 71.89 4.66, 67.56 2.47 C63.23 0.27, 56 -3.49, 52.57 -5.1 C49.14 -6.7, 48.29 -6.9, 46.98 -7.17 C45.66 -7.44, 45.77 -7.34, 44.66 -6.72 C43.55 -6.11, 42.88 -5.47, 40.31 -3.48 C37.73 -1.49, 35.62 0.26, 29.22 5.21 C22.82 10.17, 9.16 20.63, 1.89 26.24 C-5.37 31.85, -10.34 35.72, -14.34 38.88 C-18.35 42.04, -20.23 44.2, -22.15 45.19 C-24.07 46.19, -25.14 45.33, -25.85 44.84 C-26.56 44.35, -26.32 44, -26.41 42.24 C-26.5 40.47, -26.41 37.01, -26.41 34.24 C-26.41 31.46, -26.41 27.68, -26.41 25.57 C-26.41 23.45, -26.69 22.56, -26.41 21.56 C-26.13 20.56, -26.29 20.9, -24.76 19.57 C-23.23 18.24, -21.37 16.84, -17.25 13.58 C-13.12 10.32, -2.87 2.26, 0 0 M0 0 C3.32 -2.59, 14.54 -11.32, 19.94 -15.55 C25.35 -19.79, 29.2 -22.84, 32.43 -25.4 C35.66 -27.96, 37.56 -29.57, 39.34 -30.91 C41.13 -32.25, 42.02 -33.09, 43.14 -33.46 C44.25 -33.83, 44.63 -33.65, 46.03 -33.14 C47.44 -32.62, 48.08 -32.15, 51.57 -30.38 C55.05 -28.62, 62.78 -24.65, 66.93 -22.54 C71.07 -20.42, 73.93 -18.96, 76.43 -17.69 C78.92 -16.41, 80.57 -15.17, 81.88 -14.87 C83.18 -14.57, 82.99 -14.96, 84.24 -15.91 C85.5 -16.86, 86.58 -18.2, 89.41 -20.57 C92.24 -22.94, 97.66 -27.18, 101.21 -30.13 C104.77 -33.09, 108.53 -36.45, 110.76 -38.28 C112.99 -40.11, 113.49 -40.65, 114.59 -41.1 C115.69 -41.56, 115.97 -41.67, 117.36 -41.02 C118.76 -40.38, 120.97 -38.59, 122.97 -37.21 C124.97 -35.84, 127.61 -33.98, 129.35 -32.78 C131.09 -31.59, 132.36 -30.44, 133.4 -30.06 C134.44 -29.68, 134.46 -29.81, 135.61 -30.51 C136.76 -31.21, 138.37 -32.7, 140.33 -34.25 C142.28 -35.81, 145.63 -38.66, 147.35 -39.82 C149.08 -40.98, 149.67 -41.2, 150.69 -41.22 C151.71 -41.24, 151.96 -41.04, 153.48 -39.96 C155 -38.88, 156.67 -37.3, 159.82 -34.72 C162.97 -32.14, 167.79 -28.26, 172.35 -24.46 C176.92 -20.66, 183.52 -14.97, 187.2 -11.91 C190.89 -8.85, 192.7 -7.26, 194.47 -6.11 C196.23 -4.96, 196.78 -4.87, 197.78 -5.01 C198.79 -5.16, 199.27 -5.92, 200.49 -6.99 C201.72 -8.07, 201.74 -8.19, 205.14 -11.47 C208.53 -14.76, 216.35 -22.37, 220.87 -26.71 C225.38 -31.05, 229.43 -34.86, 232.23 -37.53 C235.04 -40.21, 236.26 -41.71, 237.68 -42.75 C239.11 -43.79, 238.8 -43.59, 240.79 -43.76 C242.78 -43.94, 247.54 -43.76, 249.6 -43.81 C251.67 -43.86, 251.94 -43.44, 253.17 -44.05 C254.4 -44.66, 255.37 -45.89, 256.99 -47.47 C258.6 -49.04, 260.71 -51.37, 262.84 -53.52 C264.97 -55.66, 268.19 -58.9, 269.75 -60.33 C271.32 -61.77, 270.81 -61.79, 272.23 -62.13 C273.65 -62.47, 276.03 -62.35, 278.28 -62.39 C280.54 -62.43, 284.19 -62.28, 285.76 -62.36 C287.33 -62.43, 286.89 -62.27, 287.7 -62.83 C288.51 -63.39, 289.05 -64.09, 290.62 -65.72 C292.18 -67.36, 294.47 -69.93, 297.11 -72.63 C299.75 -75.32, 303 -78.46, 306.46 -81.89 C309.91 -85.32, 314.74 -90.17, 317.82 -93.22 C320.89 -96.27, 323.63 -98.69, 324.89 -100.21 C326.16 -101.73, 325.66 -101.82, 325.41 -102.34 C325.16 -102.87, 324.65 -102.83, 323.38 -103.35 C322.12 -103.87, 319.48 -104.79, 317.84 -105.48 C316.19 -106.17, 314.42 -106.86, 313.52 -107.51 C312.62 -108.16, 312.48 -108.72, 312.43 -109.37 C312.39 -110.02, 312.28 -110.7, 313.26 -111.38 C314.23 -112.07, 315.34 -112.47, 318.29 -113.49 C321.24 -114.51, 325.89 -115.88, 330.96 -117.51 C336.03 -119.13, 343.31 -121.45, 348.72 -123.24 C354.13 -125.03, 360.34 -127.41, 363.42 -128.26 C366.51 -129.1, 366.45 -128.68, 367.23 -128.29 C368.01 -127.89, 368.29 -127.22, 368.13 -125.88 C367.96 -124.55, 367.17 -123.26, 366.24 -120.27 C365.31 -117.29, 363.7 -112.04, 362.54 -107.97 C361.38 -103.89, 360.66 -100.62, 359.28 -95.81 C357.89 -90.99, 355.33 -82.71, 354.21 -79.06 C353.09 -75.41, 353.26 -75.07, 352.55 -73.92 C351.84 -72.76, 350.8 -72.15, 349.93 -72.15 C349.06 -72.16, 348.04 -72.85, 347.33 -73.95 C346.61 -75.04, 346.21 -77.24, 345.65 -78.7 C345.09 -80.17, 344.43 -81.64, 343.97 -82.73 C343.5 -83.81, 343.29 -84.56, 342.86 -85.2 C342.42 -85.83, 341.92 -86.55, 341.36 -86.52 C340.79 -86.5, 340.57 -86.08, 339.48 -85.05 C338.4 -84.03, 337.06 -82.59, 334.86 -80.37 C332.66 -78.16, 330.21 -75.72, 326.28 -71.76 C322.35 -67.8, 315.32 -60.69, 311.28 -56.61 C307.24 -52.54, 304.48 -49.76, 302.03 -47.3 C299.59 -44.83, 297.86 -43.06, 296.6 -41.82 C295.35 -40.58, 295.3 -40.23, 294.49 -39.87 C293.67 -39.51, 293.13 -39.69, 291.74 -39.66 C290.36 -39.64, 288.19 -39.71, 286.17 -39.73 C284.15 -39.74, 281 -39.96, 279.62 -39.73 C278.25 -39.49, 278.65 -39, 277.91 -38.29 C277.17 -37.59, 276.96 -37.25, 275.18 -35.51 C273.4 -33.76, 269.55 -30.09, 267.25 -27.84 C264.95 -25.59, 262.8 -23.09, 261.38 -21.98 C259.95 -20.87, 259.59 -21.32, 258.69 -21.19 C257.79 -21.05, 257.93 -21.19, 255.98 -21.19 C254.03 -21.19, 248.85 -21.36, 246.99 -21.19 C245.13 -21.01, 245.89 -21.01, 244.82 -20.15 C243.75 -19.29, 242.87 -18.2, 240.58 -16.02 C238.28 -13.85, 234.95 -10.83, 231.06 -7.11 C227.17 -3.39, 221.51 2.24, 217.24 6.27 C212.98 10.31, 208.48 14.27, 205.46 17.09 C202.44 19.91, 200.74 22.09, 199.13 23.18 C197.52 24.28, 197.68 24.67, 195.8 23.67 C193.92 22.67, 192.98 21.39, 187.86 17.18 C182.75 12.98, 170.56 2.97, 165.1 -1.57 C159.65 -6.1, 157.6 -8.09, 155.14 -10.03 C152.68 -11.97, 151.56 -12.86, 150.35 -13.23 C149.15 -13.59, 148.97 -12.93, 147.9 -12.24 C146.84 -11.54, 145.47 -10.25, 143.98 -9.05 C142.49 -7.85, 140.34 -6.06, 138.98 -5.03 C137.61 -4, 136.77 -3.09, 135.77 -2.89 C134.77 -2.68, 134.27 -3.1, 132.97 -3.78 C131.67 -4.47, 129.86 -5.74, 127.95 -6.99 C126.05 -8.24, 123.19 -10.17, 121.56 -11.28 C119.92 -12.38, 119.16 -13.3, 118.12 -13.61 C117.09 -13.92, 116.68 -13.91, 115.35 -13.15 C114.02 -12.38, 113.23 -11.58, 110.15 -9.02 C107.06 -6.46, 100.36 -0.74, 96.82 2.24 C93.28 5.21, 90.71 7.46, 88.89 8.85 C87.06 10.24, 86.72 10.33, 85.86 10.58 C85 10.83, 84.93 10.77, 83.71 10.35 C82.49 9.93, 81.22 9.38, 78.53 8.07 C75.84 6.76, 71.89 4.66, 67.56 2.47 C63.23 0.27, 56 -3.49, 52.57 -5.1 C49.14 -6.7, 48.29 -6.9, 46.98 -7.17 C45.66 -7.44, 45.77 -7.34, 44.66 -6.72 C43.55 -6.11, 42.88 -5.47, 40.31 -3.48 C37.73 -1.49, 35.62 0.26, 29.22 5.21 C22.82 10.17, 9.16 20.63, 1.89 26.24 C-5.37 31.85, -10.34 35.72, -14.34 38.88 C-18.35 42.04, -20.23 44.2, -22.15 45.19 C-24.07 46.19, -25.14 45.33, -25.85 44.84 C-26.56 44.35, -26.32 44, -26.41 42.24 C-26.5 40.47, -26.41 37.01, -26.41 34.24 C-26.41 31.46, -26.41 27.68, -26.41 25.57 C-26.41 23.45, -26.69 22.56, -26.41 21.56 C-26.13 20.56, -26.29 20.9, -24.76 19.57 C-23.23 18.24, -21.37 16.84, -17.25 13.58 C-13.12 10.32, -2.87 2.26, 0 0" stroke="#E1E1E1" stroke-width="2" fill="none"></path></g></g><mask></mask></svg>