<svg version="1.1" xmlns="http://www.w3.org/2000/svg" viewBox="0 0 559.762455109775 517.4818580907813" width="559.762455109775" height="517.4818580907813" class="excalidraw-svg"><!-- svg-source:excalidraw --><metadata></metadata><defs><style class="style-fonts">
      </style></defs><rect x="0" y="0" width="559.762455109775" height="517.4818580907813" fill="#000000"></rect><g stroke-linecap="round"><g transform="translate(361.4622228904009 124.23840292573263) rotate(0 -117.60773264153431 -32.90522061113634)"><path d="M0 0 C6.74 -3.15, 32.27 -14.6, 40.42 -18.9 C48.58 -23.21, 47.22 -23.73, 48.92 -25.82 C50.62 -27.91, 50.49 -28.82, 50.6 -31.45 C50.72 -34.07, 51.47 -38.63, 49.63 -41.57 C47.79 -44.51, 44.01 -46.53, 39.56 -49.08 C35.11 -51.63, 33.57 -52.11, 22.92 -56.89 C12.27 -61.66, -7.55 -70.59, -24.36 -77.71 C-41.17 -84.84, -63.77 -93.68, -77.93 -99.64 C-92.09 -105.6, -100.73 -111.58, -109.32 -113.45 C-117.91 -115.33, -120.17 -113.61, -129.46 -110.88 C-138.75 -108.16, -150.75 -103.18, -165.07 -97.12 C-179.38 -91.07, -196.55 -82.74, -215.34 -74.55 C-234.14 -66.35, -266.11 -55.64, -277.85 -47.94 C-289.6 -40.25, -286.41 -34.1, -285.82 -28.37 C-285.23 -22.63, -281.53 -18.2, -274.34 -13.55 C-267.14 -8.9, -256.39 -5.75, -242.66 -0.44 C-228.93 4.86, -208.24 11.55, -191.97 18.29 C-175.71 25.03, -156.25 35.11, -145.06 40.01 C-133.87 44.9, -131.4 46.55, -124.83 47.64 C-118.26 48.74, -115.6 49.44, -105.62 46.58 C-95.64 43.72, -82.54 38.26, -64.94 30.5 C-47.34 22.73, -10.82 5.08, 0 0 M0 0 C6.74 -3.15, 32.27 -14.6, 40.42 -18.9 C48.58 -23.21, 47.22 -23.73, 48.92 -25.82 C50.62 -27.91, 50.49 -28.82, 50.6 -31.45 C50.72 -34.07, 51.47 -38.63, 49.63 -41.57 C47.79 -44.51, 44.01 -46.53, 39.56 -49.08 C35.11 -51.63, 33.57 -52.11, 22.92 -56.89 C12.27 -61.66, -7.55 -70.59, -24.36 -77.71 C-41.17 -84.84, -63.77 -93.68, -77.93 -99.64 C-92.09 -105.6, -100.73 -111.58, -109.32 -113.45 C-117.91 -115.33, -120.17 -113.61, -129.46 -110.88 C-138.75 -108.16, -150.75 -103.18, -165.07 -97.12 C-179.38 -91.07, -196.55 -82.74, -215.34 -74.55 C-234.14 -66.35, -266.11 -55.64, -277.85 -47.94 C-289.6 -40.25, -286.41 -34.1, -285.82 -28.37 C-285.23 -22.63, -281.53 -18.2, -274.34 -13.55 C-267.14 -8.9, -256.39 -5.75, -242.66 -0.44 C-228.93 4.86, -208.24 11.55, -191.97 18.29 C-175.71 25.03, -156.25 35.11, -145.06 40.01 C-133.87 44.9, -131.4 46.55, -124.83 47.64 C-118.26 48.74, -115.6 49.44, -105.62 46.58 C-95.64 43.72, -82.54 38.26, -64.94 30.5 C-47.34 22.73, -10.82 5.08, 0 0" stroke="#E1E1E1" stroke-width="4" fill="none"></path></g></g><mask></mask><g stroke-linecap="round"><g transform="translate(382.2493299680973 114.24079428360241) rotate(0 -57.71226823745424 -10.507937620121666)"><path d="M0 0 C-19.24 -3.5, -96.19 -17.51, -115.42 -21.02 M0 0 C-19.24 -3.5, -96.19 -17.51, -115.42 -21.02" stroke="#E1E1E1" stroke-width="4" fill="none"></path></g></g><mask></mask><g stroke-linecap="round"><g transform="translate(266.7038103303021 92.65299863698996) rotate(0 -21.582296411936923 -2.400965859820346)"><path d="M0 0 C-1.21 -1.64, -3.19 -7.61, -7.27 -9.83 C-11.34 -12.05, -18.52 -13.82, -24.46 -13.31 C-30.4 -12.81, -39.79 -9.43, -42.91 -6.79 C-46.02 -4.15, -45.68 -0.02, -43.16 2.53 C-40.65 5.08, -33.34 7.55, -27.84 8.51 C-22.35 9.47, -14.83 9.71, -10.19 8.29 C-5.55 6.87, -1.7 1.38, 0 0 M0 0 C-1.21 -1.64, -3.19 -7.61, -7.27 -9.83 C-11.34 -12.05, -18.52 -13.82, -24.46 -13.31 C-30.4 -12.81, -39.79 -9.43, -42.91 -6.79 C-46.02 -4.15, -45.68 -0.02, -43.16 2.53 C-40.65 5.08, -33.34 7.55, -27.84 8.51 C-22.35 9.47, -14.83 9.71, -10.19 8.29 C-5.55 6.87, -1.7 1.38, 0 0" stroke="#E1E1E1" stroke-width="4" fill="none"></path></g></g><mask></mask><g stroke-linecap="round"><g transform="translate(146.00660764743225 134.39658922041858) rotate(0 100.09706958418067 45.85811796849158)"><path d="M0 0 C-0.03 7.02, -0.9 32.33, -0.18 42.15 C0.54 51.96, 0.76 53.19, 4.33 58.9 C7.9 64.61, 13.92 71.66, 21.24 76.43 C28.55 81.2, 36.84 84.5, 48.25 87.5 C59.65 90.51, 76.44 93.48, 89.68 94.45 C102.91 95.42, 114.97 95.36, 127.65 93.33 C140.34 91.3, 154.97 87.37, 165.8 82.27 C176.63 77.16, 187 69.2, 192.64 62.7 C198.29 56.2, 198.36 54.2, 199.65 43.29 C200.94 32.39, 200.26 4.94, 200.38 -2.73 M0 0 C-0.03 7.02, -0.9 32.33, -0.18 42.15 C0.54 51.96, 0.76 53.19, 4.33 58.9 C7.9 64.61, 13.92 71.66, 21.24 76.43 C28.55 81.2, 36.84 84.5, 48.25 87.5 C59.65 90.51, 76.44 93.48, 89.68 94.45 C102.91 95.42, 114.97 95.36, 127.65 93.33 C140.34 91.3, 154.97 87.37, 165.8 82.27 C176.63 77.16, 187 69.2, 192.64 62.7 C198.29 56.2, 198.36 54.2, 199.65 43.29 C200.94 32.39, 200.26 4.94, 200.38 -2.73" stroke="#E1E1E1" stroke-width="4" fill="none"></path></g></g><mask></mask><g stroke-linecap="round"><g transform="translate(347.18840936371635 154.6469709936749) rotate(0 -63.42707291341745 26.50081190672273)"><path d="M0 0 C-1.87 3.23, -5.08 12.94, -11.19 19.4 C-17.3 25.86, -27.58 33.89, -36.64 38.78 C-45.71 43.67, -54.52 46.37, -65.6 48.75 C-76.69 51.12, -92.94 52.76, -103.14 53 C-113.35 53.24, -122.9 50.67, -126.85 50.2 M0 0 C-1.87 3.23, -5.08 12.94, -11.19 19.4 C-17.3 25.86, -27.58 33.89, -36.64 38.78 C-45.71 43.67, -54.52 46.37, -65.6 48.75 C-76.69 51.12, -92.94 52.76, -103.14 53 C-113.35 53.24, -122.9 50.67, -126.85 50.2" stroke="#E1E1E1" stroke-width="4" fill="none"></path></g></g><mask></mask><g stroke-linecap="round"><g transform="translate(209.78233203934724 202.37372890528817) rotate(0 -9.09023492048405 -2.7265205526774103)"><path d="M0 0 C-3.03 -0.91, -15.15 -4.54, -18.18 -5.45 M0 0 C-3.03 -0.91, -15.15 -4.54, -18.18 -5.45" stroke="#E1E1E1" stroke-width="4" fill="none"></path></g></g><mask></mask><g stroke-linecap="round"><g transform="translate(180.4186185599683 196.130997700366) rotate(0 -17.58985203669704 -20.275678252767648)"><path d="M0 0 C-3.25 -2.09, -14.21 -8.09, -19.48 -12.52 C-24.75 -16.94, -29.01 -21.86, -31.62 -26.53 C-34.24 -31.2, -34.59 -38.21, -35.18 -40.55 M0 0 C-3.25 -2.09, -14.21 -8.09, -19.48 -12.52 C-24.75 -16.94, -29.01 -21.86, -31.62 -26.53 C-34.24 -31.2, -34.59 -38.21, -35.18 -40.55" stroke="#E1E1E1" stroke-width="4" fill="none"></path></g></g><mask></mask><g stroke-linecap="round"><g transform="translate(379.8692612000523 116.08853713495077) rotate(0 0.2782612746378952 42.494786040259214)"><path d="M0 0 C0.09 14.16, 0.46 70.82, 0.56 84.99 M0 0 C0.09 14.16, 0.46 70.82, 0.56 84.99" stroke="#E1E1E1" stroke-width="4" fill="none"></path></g></g><mask></mask><g stroke-linecap="round"><g transform="translate(380.6501525241292 199.64830819954327) rotate(0 0.7863905587592654 42.03834956209789)"><path d="M0 0 C0.98 0.45, 4.22 1.01, 5.9 2.69 C7.59 4.37, 9.66 7.21, 10.1 10.08 C10.54 12.95, 9.97 17.52, 8.55 19.91 C7.14 22.3, 1.01 22.76, 1.6 24.43 C2.2 26.11, 10.02 25.76, 12.12 29.98 C14.22 34.21, 13.37 42.32, 14.2 49.77 C15.02 57.22, 16.53 69.08, 17.07 74.68 C17.6 80.28, 20.88 81.91, 17.41 83.37 C13.94 84.84, 1.79 83.36, -3.75 83.48 C-9.3 83.59, -13.87 85.63, -15.84 84.08 C-17.81 82.53, -16.16 80.29, -15.58 74.18 C-15 68.07, -13.35 55.26, -12.34 47.43 C-11.32 39.59, -11.8 31.05, -9.49 27.19 C-7.18 23.34, 1.53 25.74, 1.5 24.29 C1.46 22.84, -7.69 20.92, -9.71 18.47 C-11.73 16.02, -10.82 11.98, -10.61 9.6 C-10.4 7.22, -10.24 5.78, -8.47 4.18 C-6.7 2.58, -1.41 0.7, 0 0 M0 0 C0.98 0.45, 4.22 1.01, 5.9 2.69 C7.59 4.37, 9.66 7.21, 10.1 10.08 C10.54 12.95, 9.97 17.52, 8.55 19.91 C7.14 22.3, 1.01 22.76, 1.6 24.43 C2.2 26.11, 10.02 25.76, 12.12 29.98 C14.22 34.21, 13.37 42.32, 14.2 49.77 C15.02 57.22, 16.53 69.08, 17.07 74.68 C17.6 80.28, 20.88 81.91, 17.41 83.37 C13.94 84.84, 1.79 83.36, -3.75 83.48 C-9.3 83.59, -13.87 85.63, -15.84 84.08 C-17.81 82.53, -16.16 80.29, -15.58 74.18 C-15 68.07, -13.35 55.26, -12.34 47.43 C-11.32 39.59, -11.8 31.05, -9.49 27.19 C-7.18 23.34, 1.53 25.74, 1.5 24.29 C1.46 22.84, -7.69 20.92, -9.71 18.47 C-11.73 16.02, -10.82 11.98, -10.61 9.6 C-10.4 7.22, -10.24 5.78, -8.47 4.18 C-6.7 2.58, -1.41 0.7, 0 0" stroke="#E1E1E1" stroke-width="4" fill="none"></path></g></g><mask></mask><g stroke-linecap="round"><g transform="translate(431.2258355496597 448.469348010983) rotate(0 -115.37278052108081 -19.083591423582746)"><path d="M0 0 C2.31 4.89, 12.14 21.24, 13.89 29.31 C15.63 37.39, 13.55 43.61, 10.47 48.44 C7.4 53.28, 1.3 57.41, -4.58 58.33 C-10.45 59.25, -19.4 56.96, -24.79 53.96 C-30.19 50.95, -30.22 44.81, -36.94 40.28 C-43.67 35.75, -56.6 30.82, -65.12 26.78 C-73.64 22.75, -82.36 20.38, -88.06 16.06 C-93.75 11.74, -96.89 5.73, -99.29 0.87 C-101.7 -3.99, -100.17 -10.69, -102.5 -13.1 C-104.84 -15.51, -108.51 -12.96, -113.33 -13.6 C-118.14 -14.24, -126.74 -15.86, -131.4 -16.93 C-136.06 -18.01, -138.39 -20.53, -141.26 -20.04 C-144.13 -19.55, -145.28 -16.7, -148.62 -14 C-151.95 -11.3, -154.07 -6.42, -161.28 -3.85 C-168.49 -1.28, -182.06 2.51, -191.89 1.45 C-201.72 0.38, -213.06 -5.68, -220.26 -10.25 C-227.46 -14.82, -231.63 -21.37, -235.09 -25.98 C-238.54 -30.58, -239.39 -32.59, -240.98 -37.89 C-242.57 -43.19, -244.23 -51.35, -244.63 -57.77 C-245.04 -64.19, -245.32 -69.96, -243.42 -76.41 C-241.52 -82.87, -234.94 -93.15, -233.24 -96.49 M0 0 C2.31 4.89, 12.14 21.24, 13.89 29.31 C15.63 37.39, 13.55 43.61, 10.47 48.44 C7.4 53.28, 1.3 57.41, -4.58 58.33 C-10.45 59.25, -19.4 56.96, -24.79 53.96 C-30.19 50.95, -30.22 44.81, -36.94 40.28 C-43.67 35.75, -56.6 30.82, -65.12 26.78 C-73.64 22.75, -82.36 20.38, -88.06 16.06 C-93.75 11.74, -96.89 5.73, -99.29 0.87 C-101.7 -3.99, -100.17 -10.69, -102.5 -13.1 C-104.84 -15.51, -108.51 -12.96, -113.33 -13.6 C-118.14 -14.24, -126.74 -15.86, -131.4 -16.93 C-136.06 -18.01, -138.39 -20.53, -141.26 -20.04 C-144.13 -19.55, -145.28 -16.7, -148.62 -14 C-151.95 -11.3, -154.07 -6.42, -161.28 -3.85 C-168.49 -1.28, -182.06 2.51, -191.89 1.45 C-201.72 0.38, -213.06 -5.68, -220.26 -10.25 C-227.46 -14.82, -231.63 -21.37, -235.09 -25.98 C-238.54 -30.58, -239.39 -32.59, -240.98 -37.89 C-242.57 -43.19, -244.23 -51.35, -244.63 -57.77 C-245.04 -64.19, -245.32 -69.96, -243.42 -76.41 C-241.52 -82.87, -234.94 -93.15, -233.24 -96.49" stroke="#E1E1E1" stroke-width="4" fill="none"></path></g></g><mask></mask><g stroke-linecap="round"><g transform="translate(327.4359493261072 434.7887363042372) rotate(0 16.892147795130633 -3.503170919646834)"><path d="M0 0 C3.29 -0.23, 14.09 -0.23, 19.72 -1.39 C25.35 -2.56, 31.44 -6.07, 33.78 -7.01 M0 0 C3.29 -0.23, 14.09 -0.23, 19.72 -1.39 C25.35 -2.56, 31.44 -6.07, 33.78 -7.01" stroke="#E1E1E1" stroke-width="4" fill="none"></path></g></g><mask></mask><g stroke-linecap="round"><g transform="translate(185.9511955140515 378.34698948845323) rotate(0 -17.451040092289844 -18.325504656096243)"><path d="M0 0 C-2.72 -0.44, -11.4 -0.71, -16.34 -2.63 C-21.29 -4.55, -26.58 -7.87, -29.67 -11.52 C-32.77 -15.18, -34.05 -20.36, -34.9 -24.55 C-35.75 -28.73, -34.79 -34.63, -34.76 -36.65 M0 0 C-2.72 -0.44, -11.4 -0.71, -16.34 -2.63 C-21.29 -4.55, -26.58 -7.87, -29.67 -11.52 C-32.77 -15.18, -34.05 -20.36, -34.9 -24.55 C-35.75 -28.73, -34.79 -34.63, -34.76 -36.65" stroke="#E1E1E1" stroke-width="4" fill="none"></path></g></g><mask></mask><g stroke-linecap="round"><g transform="translate(451.53128995316 260.0552034756291) rotate(0 -16.879397400518595 4.571016468401822)"><path d="M0 0 C-2.64 0.3, -10.18 0.25, -15.81 1.77 C-21.44 3.3, -30.77 7.91, -33.76 9.14 M0 0 C-2.64 0.3, -10.18 0.25, -15.81 1.77 C-21.44 3.3, -30.77 7.91, -33.76 9.14" stroke="#E1E1E1" stroke-width="4" fill="none"></path></g></g><mask></mask><g stroke-linecap="round"><g transform="translate(475.40852892990006 314.2890069577687) rotate(0 -9.429979348457964 6.688644506878056)"><path d="M0 0 C-3.14 2.23, -15.72 11.15, -18.86 13.38 M0 0 C-3.14 2.23, -15.72 11.15, -18.86 13.38" stroke="#E1E1E1" stroke-width="4" fill="none"></path></g></g><mask></mask><g stroke-linecap="round"><g transform="translate(393.82300393925107 345.9928631605038) rotate(0 -24.812267914951207 23.82517486540536)"><path d="M0 0 C0.99 2.96, 5.78 11.81, 5.93 17.79 C6.08 23.76, 5.73 30.88, 0.9 35.85 C-3.93 40.83, -15.64 46.34, -23.04 47.65 C-30.44 48.97, -38.08 47.1, -43.5 43.74 C-48.92 40.38, -53.55 30.2, -55.56 27.49 M0 0 C0.99 2.96, 5.78 11.81, 5.93 17.79 C6.08 23.76, 5.73 30.88, 0.9 35.85 C-3.93 40.83, -15.64 46.34, -23.04 47.65 C-30.44 48.97, -38.08 47.1, -43.5 43.74 C-48.92 40.38, -53.55 30.2, -55.56 27.49" stroke="#E1E1E1" stroke-width="4" fill="none"></path></g></g><mask></mask><g stroke-linecap="round"><g transform="translate(469.78135477446995 394.0937268342726) rotate(0 -36.56919428009876 32.042804192839)"><path d="M0 0 C-0.39 2.32, -0.98 9.66, -2.32 13.94 C-3.67 18.23, -3.9 20.31, -8.04 25.69 C-12.18 31.07, -20.5 41.05, -27.16 46.22 C-33.82 51.4, -40.33 53.78, -48 56.76 C-55.66 59.73, -68.95 62.86, -73.14 64.09 M0 0 C-0.39 2.32, -0.98 9.66, -2.32 13.94 C-3.67 18.23, -3.9 20.31, -8.04 25.69 C-12.18 31.07, -20.5 41.05, -27.16 46.22 C-33.82 51.4, -40.33 53.78, -48 56.76 C-55.66 59.73, -68.95 62.86, -73.14 64.09" stroke="#E1E1E1" stroke-width="4" fill="none"></path></g></g><mask></mask><g stroke-linecap="round"><g transform="translate(354.0098967632839 289.1601042432866) rotate(0 -51.696474954351956 26.009742475594607)"><path d="M0 0 C-0.87 2.85, -2.39 10.76, -5.25 17.1 C-8.1 23.44, -10.29 32.23, -17.15 38.05 C-24 43.87, -36.36 49.94, -46.36 52.02 C-56.36 54.1, -67.62 54.24, -77.13 50.54 C-86.63 46.83, -99.02 33.25, -103.39 29.79 M0 0 C-0.87 2.85, -2.39 10.76, -5.25 17.1 C-8.1 23.44, -10.29 32.23, -17.15 38.05 C-24 43.87, -36.36 49.94, -46.36 52.02 C-56.36 54.1, -67.62 54.24, -77.13 50.54 C-86.63 46.83, -99.02 33.25, -103.39 29.79" stroke="#E1E1E1" stroke-width="4" fill="none"></path></g></g><mask></mask><g stroke-linecap="round"><g transform="translate(297.62977685478836 343.11977424126724) rotate(0 -24.8271433753316 17.625295485320606)"><path d="M0 0 C-1.09 2.79, -2.58 11.29, -6.52 16.71 C-10.46 22.13, -16.46 29.44, -23.65 32.53 C-30.84 35.62, -45.32 34.8, -49.65 35.25 M0 0 C-1.09 2.79, -2.58 11.29, -6.52 16.71 C-10.46 22.13, -16.46 29.44, -23.65 32.53 C-30.84 35.62, -45.32 34.8, -49.65 35.25" stroke="#E1E1E1" stroke-width="4" fill="none"></path></g></g><mask></mask><g stroke-linecap="round"><g transform="translate(517.7313387786635 304.5710811976568) rotate(0 16.015558165555774 0)"><path d="M0 0 C5.34 0, 26.69 0, 32.03 0 M0 0 C5.34 0, 26.69 0, 32.03 0" stroke="#E1E1E1" stroke-width="4" fill="none"></path></g></g><mask></mask><g stroke-linecap="round"><g transform="translate(501.75084419829 397.3769534468637) rotate(0 13.792739371530558 14.954087814106728)"><path d="M0 0 C4.6 4.98, 22.99 24.92, 27.59 29.91 M0 0 C4.6 4.98, 22.99 24.92, 27.59 29.91" stroke="#E1E1E1" stroke-width="4" fill="none"></path></g></g><mask></mask><g stroke-linecap="round"><g transform="translate(529.5955809651277 181.8102818733249) rotate(0 -14.710767783594463 14.41538364174975)"><path d="M0 0 C-4.9 4.81, -24.52 24.03, -29.42 28.83 M0 0 C-4.9 4.81, -24.52 24.03, -29.42 28.83" stroke="#E1E1E1" stroke-width="4" fill="none"></path></g></g><mask></mask><g stroke-linecap="round"><g transform="translate(29.93736704163166 180.02522662764554) rotate(0 13.351788224532214 15.415227085907368)"><path d="M0 0 C4.45 5.14, 22.25 25.69, 26.7 30.83 M0 0 C4.45 5.14, 22.25 25.69, 26.7 30.83" stroke="#E1E1E1" stroke-width="4" fill="none"></path></g></g><mask></mask><g stroke-linecap="round"><g transform="translate(10 304.1800690962217) rotate(0 15.748862411588135 -0.07118970325032592)"><path d="M0 0 C5.25 -0.02, 26.25 -0.12, 31.5 -0.14 M0 0 C5.25 -0.02, 26.25 -0.12, 31.5 -0.14" stroke="#E1E1E1" stroke-width="4" fill="none"></path></g></g><mask></mask><g stroke-linecap="round"><g transform="translate(29.841739082039567 426.1354684942256) rotate(0 13.04577875384416 -12.751457144883815)"><path d="M0 0 C4.35 -4.25, 21.74 -21.25, 26.09 -25.5 M0 0 C4.35 -4.25, 21.74 -21.25, 26.09 -25.5" stroke="#E1E1E1" stroke-width="4" fill="none"></path></g></g><mask></mask><g stroke-linecap="round"><g transform="translate(115.21616268363505 241.42490705565646) rotate(0 -5.425684023692639 33.291576032141386)"><path d="M0 0 C0.35 0.37, 1.73 2.16, 2.09 2.22 C2.46 2.27, 0.81 0.38, 2.18 0.32 C3.55 0.27, 13.45 -0.27, 10.31 1.89 C7.18 4.06, -11.39 8.33, -16.63 13.34 C-21.88 18.35, -21.52 26.01, -21.16 31.94 C-20.81 37.88, -18.13 43.17, -14.48 48.94 C-10.82 54.72, -1.78 63.64, 0.76 66.58 M0 0 C0.35 0.37, 1.73 2.16, 2.09 2.22 C2.46 2.27, 0.81 0.38, 2.18 0.32 C3.55 0.27, 13.45 -0.27, 10.31 1.89 C7.18 4.06, -11.39 8.33, -16.63 13.34 C-21.88 18.35, -21.52 26.01, -21.16 31.94 C-20.81 37.88, -18.13 43.17, -14.48 48.94 C-10.82 54.72, -1.78 63.64, 0.76 66.58" stroke="#E1E1E1" stroke-width="4" fill="none"></path></g></g><mask></mask><g stroke-linecap="round"><g transform="translate(254.7479999115494 249.75686591754388) rotate(0 -24.034865345218478 24.73440368145544)"><path d="M0 0 C-2.73 0.46, -10.69 0.89, -16.37 2.75 C-22.04 4.61, -29.34 7.11, -34.04 11.17 C-38.74 15.22, -42.23 22.05, -44.56 27.07 C-46.9 32.09, -47.67 37.55, -48.07 41.28 C-48.47 45.02, -47.16 48.1, -46.98 49.47 M0 0 C-2.73 0.46, -10.69 0.89, -16.37 2.75 C-22.04 4.61, -29.34 7.11, -34.04 11.17 C-38.74 15.22, -42.23 22.05, -44.56 27.07 C-46.9 32.09, -47.67 37.55, -48.07 41.28 C-48.47 45.02, -47.16 48.1, -46.98 49.47" stroke="#E1E1E1" stroke-width="4" fill="none"></path></g></g><mask></mask><g stroke-linecap="round"><g transform="translate(142.82448562406717 194.43408901968436) rotate(0 143.60918231290546 153.29935309159083)"><path d="M0 0 C-2.46 3.23, -11.06 12.99, -14.74 19.37 C-18.42 25.75, -20.28 33.45, -22.1 38.29 C-23.92 43.12, -22.74 45.35, -25.66 48.36 C-28.59 51.38, -36.03 52.1, -39.66 56.37 C-43.29 60.64, -46.53 67.97, -47.45 73.96 C-48.37 79.96, -44.11 87.55, -45.19 92.34 C-46.26 97.13, -51.67 96.35, -53.92 102.72 C-56.17 109.09, -57.96 121.5, -58.66 130.55 C-59.37 139.6, -60.39 147.76, -58.17 157.01 C-55.94 166.27, -51.04 178.3, -45.31 186.1 C-39.58 193.9, -32.31 198.49, -23.79 203.84 C-15.27 209.2, -4.47 216.04, 5.84 218.24 C16.15 220.44, 30.73 217.82, 38.05 217.04 C45.37 216.26, 46.54 211.07, 49.76 213.59 C52.98 216.1, 52.42 225.97, 57.37 232.11 C62.33 238.24, 70.73 246.82, 79.51 250.39 C88.29 253.97, 100.75 254.3, 110.06 253.54 C119.36 252.79, 129.19 249.35, 135.33 245.86 C141.46 242.37, 141.7 233.57, 146.86 232.6 C152.02 231.64, 159.54 238.8, 166.29 240.07 C173.04 241.34, 183.26 236.93, 187.35 240.22 C191.44 243.51, 188.19 254.78, 190.82 259.82 C193.45 264.86, 194.15 265.31, 203.12 270.46 C212.08 275.61, 235.41 285.96, 244.61 290.72 C253.8 295.49, 254.93 296.12, 258.31 299.04 C261.69 301.96, 260.09 305.93, 264.88 308.22 C269.67 310.52, 281.16 314.01, 287.05 312.8 C292.95 311.59, 297.55 305.65, 300.24 300.97 C302.93 296.28, 304.46 291.44, 303.2 284.69 C301.93 277.95, 295.19 265.9, 292.64 260.49 C290.08 255.09, 285.41 255.33, 287.85 252.25 C290.29 249.17, 301.53 246.89, 307.29 242.02 C313.04 237.14, 318.95 230.1, 322.36 223.01 C325.76 215.91, 323.97 206.87, 327.7 199.43 C331.42 191.99, 341.67 187.9, 344.7 178.36 C347.73 168.81, 347.56 151.34, 345.88 142.17 C344.2 133, 335.67 130.57, 334.61 123.32 C333.56 116.06, 339.81 106.57, 339.56 98.64 C339.3 90.7, 336.54 80.85, 333.08 75.72 C329.62 70.58, 323.86 69.72, 318.81 67.81 C313.75 65.91, 306.57 69.14, 302.76 64.28 C298.94 59.41, 298.96 46.67, 295.91 38.63 C292.85 30.6, 290.03 22.54, 284.41 16.09 C278.78 9.65, 268.23 3.71, 262.15 -0.01 C256.08 -3.72, 250.33 -5.17, 247.97 -6.2 M0 0 C-2.46 3.23, -11.06 12.99, -14.74 19.37 C-18.42 25.75, -20.28 33.45, -22.1 38.29 C-23.92 43.12, -22.74 45.35, -25.66 48.36 C-28.59 51.38, -36.03 52.1, -39.66 56.37 C-43.29 60.64, -46.53 67.97, -47.45 73.96 C-48.37 79.96, -44.11 87.55, -45.19 92.34 C-46.26 97.13, -51.67 96.35, -53.92 102.72 C-56.17 109.09, -57.96 121.5, -58.66 130.55 C-59.37 139.6, -60.39 147.76, -58.17 157.01 C-55.94 166.27, -51.04 178.3, -45.31 186.1 C-39.58 193.9, -32.31 198.49, -23.79 203.84 C-15.27 209.2, -4.47 216.04, 5.84 218.24 C16.15 220.44, 30.73 217.82, 38.05 217.04 C45.37 216.26, 46.54 211.07, 49.76 213.59 C52.98 216.1, 52.42 225.97, 57.37 232.11 C62.33 238.24, 70.73 246.82, 79.51 250.39 C88.29 253.97, 100.75 254.3, 110.06 253.54 C119.36 252.79, 129.19 249.35, 135.33 245.86 C141.46 242.37, 141.7 233.57, 146.86 232.6 C152.02 231.64, 159.54 238.8, 166.29 240.07 C173.04 241.34, 183.26 236.93, 187.35 240.22 C191.44 243.51, 188.19 254.78, 190.82 259.82 C193.45 264.86, 194.15 265.31, 203.12 270.46 C212.08 275.61, 235.41 285.96, 244.61 290.72 C253.8 295.49, 254.93 296.12, 258.31 299.04 C261.69 301.96, 260.09 305.93, 264.88 308.22 C269.67 310.52, 281.16 314.01, 287.05 312.8 C292.95 311.59, 297.55 305.65, 300.24 300.97 C302.93 296.28, 304.46 291.44, 303.2 284.69 C301.93 277.95, 295.19 265.9, 292.64 260.49 C290.08 255.09, 285.41 255.33, 287.85 252.25 C290.29 249.17, 301.53 246.89, 307.29 242.02 C313.04 237.14, 318.95 230.1, 322.36 223.01 C325.76 215.91, 323.97 206.87, 327.7 199.43 C331.42 191.99, 341.67 187.9, 344.7 178.36 C347.73 168.81, 347.56 151.34, 345.88 142.17 C344.2 133, 335.67 130.57, 334.61 123.32 C333.56 116.06, 339.81 106.57, 339.56 98.64 C339.3 90.7, 336.54 80.85, 333.08 75.72 C329.62 70.58, 323.86 69.72, 318.81 67.81 C313.75 65.91, 306.57 69.14, 302.76 64.28 C298.94 59.41, 298.96 46.67, 295.91 38.63 C292.85 30.6, 290.03 22.54, 284.41 16.09 C278.78 9.65, 268.23 3.71, 262.15 -0.01 C256.08 -3.72, 250.33 -5.17, 247.97 -6.2" stroke="#E1E1E1" stroke-width="4" fill="none"></path></g></g><mask></mask><g stroke-linecap="round"><g transform="translate(345.94803559629145 176.52363847161254) rotate(0 13.062740058335294 3.171585285057507)"><path d="M0 0 C1.74 0.17, 6.08 -0.03, 10.44 1.03 C14.79 2.09, 23.51 5.46, 26.13 6.34 M0 0 C1.74 0.17, 6.08 -0.03, 10.44 1.03 C14.79 2.09, 23.51 5.46, 26.13 6.34" stroke="#E1E1E1" stroke-width="4" fill="none"></path></g></g><mask></mask></svg>