<svg version="1.1" xmlns="http://www.w3.org/2000/svg" viewBox="0 0 183.09525631544122 177.28476025552953" width="183.09525631544122" height="177.28476025552953" class="excalidraw-svg"><!-- svg-source:excalidraw --><metadata></metadata><defs><style class="style-fonts">
      </style></defs><rect x="0" y="0" width="183.09525631544122" height="177.28476025552953" fill="#000000"></rect><g stroke-linecap="round"><g transform="translate(141.40623358300272 40.76106302464022) rotate(0 -45.16665265128016 62.92998228726234)"><path d="M0 0 C-0.13 1.61, -0.08 5.27, -0.76 9.69 C-1.44 14.1, -2.24 19.87, -4.09 26.48 C-5.94 33.08, -8.91 42.09, -11.85 49.32 C-14.79 56.55, -17.43 62.37, -21.73 69.86 C-26.03 77.34, -31.9 86.91, -37.66 94.23 C-43.42 101.55, -50.58 108.85, -56.27 113.77 C-61.96 118.68, -67.45 121.7, -71.8 123.71 C-76.15 125.73, -79.3 125.75, -82.39 125.86 C-85.47 125.97, -89.01 124.62, -90.33 124.37 M0 0 C-0.13 1.61, -0.08 5.27, -0.76 9.69 C-1.44 14.1, -2.24 19.87, -4.09 26.48 C-5.94 33.08, -8.91 42.09, -11.85 49.32 C-14.79 56.55, -17.43 62.37, -21.73 69.86 C-26.03 77.34, -31.9 86.91, -37.66 94.23 C-43.42 101.55, -50.58 108.85, -56.27 113.77 C-61.96 118.68, -67.45 121.7, -71.8 123.71 C-76.15 125.73, -79.3 125.75, -82.39 125.86 C-85.47 125.97, -89.01 124.62, -90.33 124.37" stroke="#E1E1E1" stroke-width="2" fill="none"></path></g></g><mask></mask><g stroke-linecap="round"><g transform="translate(48.45286657811755 163.82505210344712) rotate(0 35.885651338070936 -76.45149984971329)"><path d="M-0.53 1.02 C-1.22 0.1, -1.92 -2.53, -3.17 -4.74 C-4.42 -6.95, -7.15 -8.96, -8.04 -12.24 C-8.93 -15.52, -8.7 -19.87, -8.49 -24.43 C-8.28 -28.99, -7.48 -34.81, -6.79 -39.61 C-6.11 -44.41, -5.51 -48.3, -4.39 -53.23 C-3.27 -58.16, -1.73 -64.08, -0.07 -69.2 C1.59 -74.33, 2.66 -78.21, 5.57 -83.99 C8.47 -89.78, 13.44 -97.5, 17.38 -103.94 C21.32 -110.37, 24.59 -116.78, 29.21 -122.59 C33.82 -128.4, 39.94 -134.48, 45.08 -138.8 C50.21 -143.12, 55.92 -146.15, 60.02 -148.5 C64.11 -150.86, 66.49 -152.07, 69.64 -152.93 C72.78 -153.8, 77.24 -153.79, 78.89 -153.69" stroke="#E1E1E1" stroke-width="2.5" fill="none" stroke-dasharray="1.5 8"></path></g></g><mask></mask><g stroke-linecap="round"><g transform="translate(129.5446806756272 11.036671054323136) rotate(0 5.265970912135096 7.772662320379872)"><path d="M0 0 C1.01 0.82, 4.63 3.25, 6.05 4.93 C7.47 6.61, 7.77 8.33, 8.52 10.1 C9.27 11.87, 10.2 14.64, 10.53 15.55 M0 0 C1.01 0.82, 4.63 3.25, 6.05 4.93 C7.47 6.61, 7.77 8.33, 8.52 10.1 C9.27 11.87, 10.2 14.64, 10.53 15.55" stroke="#E1E1E1" stroke-width="2" fill="none"></path></g></g><mask></mask><g stroke-linecap="round" transform="translate(134.61108683054363 27.149922264631613) rotate(0 6.627137537321566 6.627137537321566)"><path d="M13.25 6.63 C13.25 7.01, 13.22 7.4, 13.15 7.78 C13.09 8.16, 12.99 8.53, 12.85 8.89 C12.72 9.25, 12.56 9.61, 12.37 9.94 C12.17 10.27, 11.95 10.59, 11.7 10.89 C11.46 11.18, 11.18 11.46, 10.89 11.7 C10.59 11.95, 10.27 12.17, 9.94 12.37 C9.61 12.56, 9.25 12.72, 8.89 12.85 C8.53 12.99, 8.16 13.09, 7.78 13.15 C7.4 13.22, 7.01 13.25, 6.63 13.25 C6.24 13.25, 5.85 13.22, 5.48 13.15 C5.1 13.09, 4.72 12.99, 4.36 12.85 C4 12.72, 3.65 12.56, 3.31 12.37 C2.98 12.17, 2.66 11.95, 2.37 11.7 C2.07 11.46, 1.8 11.18, 1.55 10.89 C1.3 10.59, 1.08 10.27, 0.89 9.94 C0.7 9.61, 0.53 9.25, 0.4 8.89 C0.27 8.53, 0.17 8.16, 0.1 7.78 C0.03 7.4, 0 7.01, 0 6.63 C0 6.24, 0.03 5.85, 0.1 5.48 C0.17 5.1, 0.27 4.72, 0.4 4.36 C0.53 4, 0.7 3.65, 0.89 3.31 C1.08 2.98, 1.3 2.66, 1.55 2.37 C1.8 2.07, 2.07 1.8, 2.37 1.55 C2.66 1.3, 2.98 1.08, 3.31 0.89 C3.65 0.7, 4 0.53, 4.36 0.4 C4.72 0.27, 5.1 0.17, 5.48 0.1 C5.85 0.03, 6.24 0, 6.63 0 C7.01 0, 7.4 0.03, 7.78 0.1 C8.16 0.17, 8.53 0.27, 8.89 0.4 C9.25 0.53, 9.61 0.7, 9.94 0.89 C10.27 1.08, 10.59 1.3, 10.89 1.55 C11.18 1.8, 11.46 2.07, 11.7 2.37 C11.95 2.66, 12.17 2.98, 12.37 3.31 C12.56 3.65, 12.72 4, 12.85 4.36 C12.99 4.72, 13.09 5.1, 13.15 5.48 C13.22 5.85, 13.24 6.44, 13.25 6.63 C13.27 6.82, 13.27 6.44, 13.25 6.63" stroke="#E1E1E1" stroke-width="2" fill="none"></path></g><g stroke-linecap="round" transform="translate(138.31442683675152 30.607826453467965) rotate(0 3.0255556281667637 3.0255556281667637)"><path d="M6.05 3.03 C6.05 3.2, 6.04 3.38, 6.01 3.55 C5.97 3.72, 5.93 3.9, 5.87 4.06 C5.81 4.22, 5.73 4.39, 5.65 4.54 C5.56 4.69, 5.46 4.84, 5.34 4.97 C5.23 5.1, 5.1 5.23, 4.97 5.34 C4.84 5.46, 4.69 5.56, 4.54 5.65 C4.39 5.73, 4.22 5.81, 4.06 5.87 C3.9 5.93, 3.72 5.97, 3.55 6.01 C3.38 6.04, 3.2 6.05, 3.03 6.05 C2.85 6.05, 2.67 6.04, 2.5 6.01 C2.33 5.97, 2.16 5.93, 1.99 5.87 C1.83 5.81, 1.66 5.73, 1.51 5.65 C1.36 5.56, 1.21 5.46, 1.08 5.34 C0.95 5.23, 0.82 5.1, 0.71 4.97 C0.6 4.84, 0.49 4.69, 0.41 4.54 C0.32 4.39, 0.24 4.22, 0.18 4.06 C0.12 3.9, 0.08 3.72, 0.05 3.55 C0.02 3.38, 0 3.2, 0 3.03 C0 2.85, 0.02 2.67, 0.05 2.5 C0.08 2.33, 0.12 2.16, 0.18 1.99 C0.24 1.83, 0.32 1.66, 0.41 1.51 C0.49 1.36, 0.6 1.21, 0.71 1.08 C0.82 0.95, 0.95 0.82, 1.08 0.71 C1.21 0.6, 1.36 0.49, 1.51 0.41 C1.66 0.32, 1.83 0.24, 1.99 0.18 C2.16 0.12, 2.33 0.08, 2.5 0.05 C2.67 0.02, 2.85 0, 3.03 0 C3.2 0, 3.38 0.02, 3.55 0.05 C3.72 0.08, 3.9 0.12, 4.06 0.18 C4.22 0.24, 4.39 0.32, 4.54 0.41 C4.69 0.49, 4.84 0.6, 4.97 0.71 C5.1 0.82, 5.23 0.95, 5.34 1.08 C5.46 1.21, 5.56 1.36, 5.65 1.51 C5.73 1.66, 5.81 1.83, 5.87 1.99 C5.93 2.16, 5.97 2.33, 6.01 2.5 C6.04 2.67, 6.04 2.94, 6.05 3.03 C6.06 3.11, 6.06 2.94, 6.05 3.03" stroke="#E1E1E1" stroke-width="2" fill="none"></path></g><g stroke-linecap="round"><g transform="translate(51.39769591234358 11.764121090235705) rotate(0 45.36019873648133 63.09209531363534)"><path d="M0 0 C0.8 -0.23, 3.04 -1.12, 4.77 -1.39 C6.5 -1.67, 8.32 -1.9, 10.38 -1.67 C12.45 -1.45, 14.53 -1.06, 17.16 -0.06 C19.8 0.94, 22.89 2.17, 26.2 4.31 C29.51 6.46, 33.59 9.76, 37.03 12.81 C40.48 15.86, 43.8 19.2, 46.88 22.61 C49.96 26.03, 52.75 29.35, 55.5 33.3 C58.25 37.25, 60.55 41.54, 63.39 46.32 C66.23 51.11, 69.56 56.21, 72.53 62.02 C75.49 67.83, 78.81 74.93, 81.15 81.16 C83.5 87.4, 85.21 93.79, 86.6 99.43 C87.99 105.06, 88.81 110.23, 89.5 114.96 C90.18 119.7, 90.52 125.71, 90.72 127.86 M0 0 C0.8 -0.23, 3.04 -1.12, 4.77 -1.39 C6.5 -1.67, 8.32 -1.9, 10.38 -1.67 C12.45 -1.45, 14.53 -1.06, 17.16 -0.06 C19.8 0.94, 22.89 2.17, 26.2 4.31 C29.51 6.46, 33.59 9.76, 37.03 12.81 C40.48 15.86, 43.8 19.2, 46.88 22.61 C49.96 26.03, 52.75 29.35, 55.5 33.3 C58.25 37.25, 60.55 41.54, 63.39 46.32 C66.23 51.11, 69.56 56.21, 72.53 62.02 C75.49 67.83, 78.81 74.93, 81.15 81.16 C83.5 87.4, 85.21 93.79, 86.6 99.43 C87.99 105.06, 88.81 110.23, 89.5 114.96 C90.18 119.7, 90.52 125.71, 90.72 127.86" stroke="#E1E1E1" stroke-width="2" fill="none"></path></g></g><mask></mask><g stroke-linecap="round" transform="translate(135.9016043449854 140.07482288572777) rotate(0 5.976854869623814 5.945816318153945)"><path d="M11.95 5.95 C11.95 6.29, 11.92 6.64, 11.86 6.98 C11.8 7.32, 11.71 7.66, 11.59 7.98 C11.47 8.3, 11.33 8.62, 11.15 8.92 C10.98 9.22, 10.78 9.5, 10.56 9.77 C10.33 10.03, 10.08 10.28, 9.82 10.5 C9.55 10.72, 9.26 10.92, 8.97 11.1 C8.67 11.27, 8.35 11.42, 8.02 11.53 C7.7 11.65, 7.36 11.74, 7.01 11.8 C6.67 11.86, 6.32 11.89, 5.98 11.89 C5.63 11.89, 5.28 11.86, 4.94 11.8 C4.6 11.74, 4.26 11.65, 3.93 11.53 C3.61 11.42, 3.29 11.27, 2.99 11.1 C2.69 10.92, 2.4 10.72, 2.14 10.5 C1.87 10.28, 1.62 10.03, 1.4 9.77 C1.18 9.5, 0.97 9.22, 0.8 8.92 C0.63 8.62, 0.48 8.3, 0.36 7.98 C0.24 7.66, 0.15 7.32, 0.09 6.98 C0.03 6.64, 0 6.29, 0 5.95 C0 5.6, 0.03 5.25, 0.09 4.91 C0.15 4.57, 0.24 4.24, 0.36 3.91 C0.48 3.59, 0.63 3.27, 0.8 2.97 C0.97 2.67, 1.18 2.39, 1.4 2.12 C1.62 1.86, 1.87 1.61, 2.14 1.39 C2.4 1.17, 2.69 0.97, 2.99 0.8 C3.29 0.62, 3.61 0.48, 3.93 0.36 C4.26 0.24, 4.6 0.15, 4.94 0.09 C5.28 0.03, 5.63 0, 5.98 0 C6.32 0, 6.67 0.03, 7.01 0.09 C7.36 0.15, 7.7 0.24, 8.02 0.36 C8.35 0.48, 8.67 0.62, 8.97 0.8 C9.26 0.97, 9.55 1.17, 9.82 1.39 C10.08 1.61, 10.33 1.86, 10.56 2.12 C10.78 2.39, 10.98 2.67, 11.15 2.97 C11.33 3.27, 11.47 3.59, 11.59 3.91 C11.71 4.24, 11.8 4.57, 11.86 4.91 C11.92 5.25, 11.94 5.77, 11.95 5.95 C11.97 6.12, 11.97 5.77, 11.95 5.95" stroke="#E1E1E1" stroke-width="2" fill="none"></path></g><g stroke-linecap="round"><g transform="translate(140.30630204207444 152.0975512569979) rotate(0 -4.890703897580593 6.818961512058877)"><path d="M0 0 C-0.31 0.96, -0.88 3.92, -1.88 5.73 C-2.89 7.54, -4.71 9.54, -6.03 10.86 C-7.35 12.17, -9.16 13.17, -9.78 13.64 M0 0 C-0.31 0.96, -0.88 3.92, -1.88 5.73 C-2.89 7.54, -4.71 9.54, -6.03 10.86 C-7.35 12.17, -9.16 13.17, -9.78 13.64" stroke="#E1E1E1" stroke-width="2" fill="none"></path></g></g><mask></mask><g stroke-linecap="round"><g transform="translate(128.86144086791276 166.36301274329657) rotate(0 -18.672550905443302 -7.92174544683408)"><path d="M0 0 C-1.22 0.14, -4.17 1.27, -7.33 0.82 C-10.5 0.37, -15.38 -0.97, -18.99 -2.69 C-22.61 -4.4, -25.96 -7.15, -29.02 -9.48 C-32.08 -11.81, -35.96 -15.46, -37.35 -16.66" stroke="#E1E1E1" stroke-width="2.5" fill="none" stroke-dasharray="8 10"></path></g></g><mask></mask><g stroke-linecap="round"><g transform="translate(89.75484562418967 147.37913091493945) rotate(0 -24.314201960396744 -67.42052640032006)"><path d="M0 0 C-1.51 -1.6, -6.18 -6.21, -9.04 -9.61 C-11.89 -13, -14.29 -16.06, -17.14 -20.36 C-19.99 -24.65, -23.19 -29.77, -26.14 -35.37 C-29.08 -40.97, -32.46 -48.78, -34.82 -53.94 C-37.17 -59.1, -38.41 -61.4, -40.26 -66.33 C-42.11 -71.26, -44.52 -77.46, -45.92 -83.52 C-47.31 -89.58, -48.34 -96.56, -48.63 -102.7 C-48.92 -108.84, -48.45 -115.72, -47.67 -120.36 C-46.9 -125, -45.37 -128.12, -43.97 -130.53 C-42.58 -132.94, -40.07 -134.12, -39.29 -134.84" stroke="#E1E1E1" stroke-width="2.5" fill="none" stroke-dasharray="1.5 8"></path></g></g><mask></mask><g stroke-linecap="round"><g transform="translate(140.8423021144724 59.60986676903008) rotate(0 -1.1049998414193922 -0.4413426885292395)"><path d="M0 0 C-0.37 -0.15, -1.84 -0.74, -2.21 -0.88 M0 0 C-0.37 -0.15, -1.84 -0.74, -2.21 -0.88" stroke="#E1E1E1" stroke-width="2" fill="none"></path></g></g><mask></mask><g stroke-linecap="round"><g transform="translate(172.05076210224436 88.08687478313738) rotate(0 -70.91862351408311 17.934445620139712)"><path d="M0 0 C-0.06 0.9, 0.34 3.26, -0.39 5.37 C-1.11 7.48, -2.41 10.35, -4.35 12.66 C-6.29 14.97, -9.48 17.44, -12.02 19.24 C-14.57 21.04, -16.63 22.02, -19.63 23.45 C-22.63 24.88, -25.77 26.34, -30 27.8 C-34.23 29.26, -39.96 31.01, -45.04 32.21 C-50.11 33.42, -54.66 34.42, -60.44 35.03 C-66.22 35.64, -72.9 35.88, -79.71 35.87 C-86.53 35.86, -95.3 35.51, -101.35 34.98 C-107.41 34.45, -111.12 33.77, -116.04 32.68 C-120.96 31.59, -126.57 29.89, -130.87 28.44 C-135.17 26.98, -140.01 24.7, -141.84 23.95 M0 0 C-0.06 0.9, 0.34 3.26, -0.39 5.37 C-1.11 7.48, -2.41 10.35, -4.35 12.66 C-6.29 14.97, -9.48 17.44, -12.02 19.24 C-14.57 21.04, -16.63 22.02, -19.63 23.45 C-22.63 24.88, -25.77 26.34, -30 27.8 C-34.23 29.26, -39.96 31.01, -45.04 32.21 C-50.11 33.42, -54.66 34.42, -60.44 35.03 C-66.22 35.64, -72.9 35.88, -79.71 35.87 C-86.53 35.86, -95.3 35.51, -101.35 34.98 C-107.41 34.45, -111.12 33.77, -116.04 32.68 C-120.96 31.59, -126.57 29.89, -130.87 28.44 C-135.17 26.98, -140.01 24.7, -141.84 23.95" stroke="#E1E1E1" stroke-width="2" fill="none"></path></g></g><mask></mask><g stroke-linecap="round" transform="translate(18.216654137582907 102.74528697088476) rotate(0 6.244976382592327 6.244976382592327)"><path d="M12.49 6.24 C12.49 6.61, 12.46 6.97, 12.4 7.33 C12.33 7.69, 12.24 8.04, 12.11 8.38 C11.99 8.72, 11.83 9.05, 11.65 9.37 C11.47 9.68, 11.26 9.98, 11.03 10.26 C10.8 10.54, 10.54 10.8, 10.26 11.03 C9.98 11.26, 9.68 11.47, 9.37 11.65 C9.05 11.83, 8.72 11.99, 8.38 12.11 C8.04 12.24, 7.69 12.33, 7.33 12.4 C6.97 12.46, 6.61 12.49, 6.24 12.49 C5.88 12.49, 5.52 12.46, 5.16 12.4 C4.8 12.33, 4.45 12.24, 4.11 12.11 C3.77 11.99, 3.44 11.83, 3.12 11.65 C2.81 11.47, 2.51 11.26, 2.23 11.03 C1.95 10.8, 1.69 10.54, 1.46 10.26 C1.23 9.98, 1.02 9.68, 0.84 9.37 C0.66 9.05, 0.5 8.72, 0.38 8.38 C0.25 8.04, 0.16 7.69, 0.09 7.33 C0.03 6.97, 0 6.61, 0 6.24 C0 5.88, 0.03 5.52, 0.09 5.16 C0.16 4.8, 0.25 4.45, 0.38 4.11 C0.5 3.77, 0.66 3.44, 0.84 3.12 C1.02 2.81, 1.23 2.51, 1.46 2.23 C1.69 1.95, 1.95 1.69, 2.23 1.46 C2.51 1.23, 2.81 1.02, 3.12 0.84 C3.44 0.66, 3.77 0.5, 4.11 0.38 C4.45 0.25, 4.8 0.16, 5.16 0.09 C5.52 0.03, 5.88 0, 6.24 0 C6.61 0, 6.97 0.03, 7.33 0.09 C7.69 0.16, 8.04 0.25, 8.38 0.38 C8.72 0.5, 9.05 0.66, 9.37 0.84 C9.68 1.02, 9.98 1.23, 10.26 1.46 C10.54 1.69, 10.8 1.95, 11.03 2.23 C11.26 2.51, 11.47 2.81, 11.65 3.12 C11.83 3.44, 11.99 3.77, 12.11 4.11 C12.24 4.45, 12.33 4.8, 12.4 5.16 C12.46 5.52, 12.47 6.06, 12.49 6.24 C12.51 6.43, 12.51 6.06, 12.49 6.24" stroke="#E1E1E1" stroke-width="2" fill="none"></path></g><g stroke-linecap="round"><g transform="translate(19.000420135292075 105.25924201196116) rotate(0 -4.495810683631092 -8.617811373735279)"><path d="M0 0 C-0.68 -0.64, -2.88 -2.38, -4.1 -3.85 C-5.32 -5.31, -6.52 -7.14, -7.3 -8.78 C-8.09 -10.43, -8.54 -12.31, -8.82 -13.71 C-9.1 -15.12, -8.96 -16.65, -8.99 -17.24 M0 0 C-0.68 -0.64, -2.88 -2.38, -4.1 -3.85 C-5.32 -5.31, -6.52 -7.14, -7.3 -8.78 C-8.09 -10.43, -8.54 -12.31, -8.82 -13.71 C-9.1 -15.12, -8.96 -16.65, -8.99 -17.24" stroke="#E1E1E1" stroke-width="2" fill="none"></path></g></g><mask></mask><g stroke-linecap="round" transform="translate(31.19054098220701 137.9369389579547) rotate(0 1.7005896780990355 1.7005896780990355)"><path d="M3.4 1.7 C3.4 1.8, 3.39 1.9, 3.38 2 C3.36 2.09, 3.33 2.19, 3.3 2.28 C3.26 2.37, 3.22 2.47, 3.17 2.55 C3.12 2.64, 3.07 2.72, 3 2.79 C2.94 2.87, 2.87 2.94, 2.79 3 C2.72 3.07, 2.64 3.12, 2.55 3.17 C2.47 3.22, 2.37 3.26, 2.28 3.3 C2.19 3.33, 2.09 3.36, 2 3.38 C1.9 3.39, 1.8 3.4, 1.7 3.4 C1.6 3.4, 1.5 3.39, 1.41 3.38 C1.31 3.36, 1.21 3.33, 1.12 3.3 C1.03 3.26, 0.94 3.22, 0.85 3.17 C0.77 3.12, 0.68 3.07, 0.61 3 C0.53 2.94, 0.46 2.87, 0.4 2.79 C0.33 2.72, 0.28 2.64, 0.23 2.55 C0.18 2.47, 0.14 2.37, 0.1 2.28 C0.07 2.19, 0.04 2.09, 0.03 2 C0.01 1.9, 0 1.8, 0 1.7 C0 1.6, 0.01 1.5, 0.03 1.41 C0.04 1.31, 0.07 1.21, 0.1 1.12 C0.14 1.03, 0.18 0.94, 0.23 0.85 C0.28 0.77, 0.33 0.68, 0.4 0.61 C0.46 0.53, 0.53 0.46, 0.61 0.4 C0.68 0.33, 0.77 0.28, 0.85 0.23 C0.94 0.18, 1.03 0.14, 1.12 0.1 C1.21 0.07, 1.31 0.04, 1.41 0.03 C1.5 0.01, 1.6 0, 1.7 0 C1.8 0, 1.9 0.01, 2 0.03 C2.09 0.04, 2.19 0.07, 2.28 0.1 C2.37 0.14, 2.47 0.18, 2.55 0.23 C2.64 0.28, 2.72 0.33, 2.79 0.4 C2.87 0.46, 2.94 0.53, 3 0.61 C3.07 0.68, 3.12 0.77, 3.17 0.85 C3.22 0.94, 3.26 1.03, 3.3 1.12 C3.33 1.21, 3.36 1.31, 3.38 1.41 C3.39 1.5, 3.4 1.65, 3.4 1.7 C3.41 1.75, 3.41 1.65, 3.4 1.7" stroke="#E1E1E1" stroke-width="2" fill="none"></path></g><g stroke-linecap="round"><g transform="translate(61.01738555136899 138.40894704323068) rotate(0 -0.04819504092989746 1.0194709013782557)"><path d="M0 0 C-0.02 0.34, -0.08 1.7, -0.1 2.04 M0 0 C-0.02 0.34, -0.08 1.7, -0.1 2.04" stroke="#E1E1E1" stroke-width="2" fill="none"></path></g></g><mask></mask><g stroke-linecap="round"><g transform="translate(66.7616855898886 143.7289249064458) rotate(0 -1.4830694623515654 0)"><path d="M0 0 C-0.49 0, -2.47 0, -2.97 0 M0 0 C-0.49 0, -2.47 0, -2.97 0" stroke="#E1E1E1" stroke-width="2" fill="none"></path></g></g><mask></mask><g stroke-linecap="round"><g transform="translate(58.43714997930735 143.86133263455213) rotate(0 -1.5681397125338776 0)"><path d="M0 0 C-0.52 0, -2.61 0, -3.14 0 M0 0 C-0.52 0, -2.61 0, -3.14 0" stroke="#E1E1E1" stroke-width="2" fill="none"></path></g></g><mask></mask><g stroke-linecap="round"><g transform="translate(61.17071781681855 146.57774921194593) rotate(0 0 1.3849642544800531)"><path d="M0 0 C0 0.46, 0 2.31, 0 2.77 M0 0 C0 0.46, 0 2.31, 0 2.77" stroke="#E1E1E1" stroke-width="2" fill="none"></path></g></g><mask></mask><g stroke-linecap="round"><g transform="translate(167.59222869407117 137.31332454693114) rotate(0 0 -1.0903056056631186)"><path d="M0 0 C0 -0.36, 0 -1.82, 0 -2.18 M0 0 C0 -0.36, 0 -1.82, 0 -2.18" stroke="#E1E1E1" stroke-width="2" fill="none"></path></g></g><mask></mask><g stroke-linecap="round"><g transform="translate(170.11689418335246 140.31479506747615) rotate(0 1.4891810660443774 0.39902486403030935)"><path d="M0 0 C0.5 0.13, 2.48 0.67, 2.98 0.8 M0 0 C0.5 0.13, 2.48 0.67, 2.98 0.8" stroke="#E1E1E1" stroke-width="2" fill="none"></path></g></g><mask></mask><g stroke-linecap="round"><g transform="translate(167.08558047020318 143.05728156024838) rotate(0 0 1.7756699599544135)"><path d="M0 0 C0 0.59, 0 2.96, 0 3.55 M0 0 C0 0.59, 0 2.96, 0 3.55" stroke="#E1E1E1" stroke-width="2" fill="none"></path></g></g><mask></mask><g stroke-linecap="round"><g transform="translate(164.3808267496892 140.19199204503556) rotate(0 -1.1978440065992189 0)"><path d="M0 0 C-0.4 0, -2 0, -2.4 0 M0 0 C-0.4 0, -2 0, -2.4 0" stroke="#E1E1E1" stroke-width="2" fill="none"></path></g></g><mask></mask><g stroke-linecap="round" transform="translate(156.80202792901252 132.85296784080012) rotate(0 1.1822363598923786 1.1822363598923715)"><path d="M2.36 1.18 C2.36 1.25, 2.36 1.32, 2.35 1.39 C2.33 1.45, 2.32 1.52, 2.29 1.59 C2.27 1.65, 2.24 1.71, 2.21 1.77 C2.17 1.83, 2.13 1.89, 2.09 1.94 C2.04 1.99, 1.99 2.04, 1.94 2.09 C1.89 2.13, 1.83 2.17, 1.77 2.21 C1.71 2.24, 1.65 2.27, 1.59 2.29 C1.52 2.32, 1.45 2.33, 1.39 2.35 C1.32 2.36, 1.25 2.36, 1.18 2.36 C1.11 2.36, 1.04 2.36, 0.98 2.35 C0.91 2.33, 0.84 2.32, 0.78 2.29 C0.71 2.27, 0.65 2.24, 0.59 2.21 C0.53 2.17, 0.47 2.13, 0.42 2.09 C0.37 2.04, 0.32 1.99, 0.28 1.94 C0.23 1.89, 0.19 1.83, 0.16 1.77 C0.12 1.71, 0.09 1.65, 0.07 1.59 C0.05 1.52, 0.03 1.45, 0.02 1.39 C0.01 1.32, 0 1.25, 0 1.18 C0 1.11, 0.01 1.04, 0.02 0.98 C0.03 0.91, 0.05 0.84, 0.07 0.78 C0.09 0.71, 0.12 0.65, 0.16 0.59 C0.19 0.53, 0.23 0.47, 0.28 0.42 C0.32 0.37, 0.37 0.32, 0.42 0.28 C0.47 0.23, 0.53 0.19, 0.59 0.16 C0.65 0.12, 0.71 0.09, 0.78 0.07 C0.84 0.05, 0.91 0.03, 0.98 0.02 C1.04 0.01, 1.11 0, 1.18 0 C1.25 0, 1.32 0.01, 1.39 0.02 C1.45 0.03, 1.52 0.05, 1.59 0.07 C1.65 0.09, 1.71 0.12, 1.77 0.16 C1.83 0.19, 1.89 0.23, 1.94 0.28 C1.99 0.32, 2.04 0.37, 2.09 0.42 C2.13 0.47, 2.17 0.53, 2.21 0.59 C2.24 0.65, 2.27 0.71, 2.29 0.78 C2.32 0.84, 2.33 0.91, 2.35 0.98 C2.36 1.04, 2.36 1.15, 2.36 1.18 C2.37 1.22, 2.37 1.15, 2.36 1.18" stroke="#E1E1E1" stroke-width="2" fill="none"></path></g><g stroke-linecap="round"><g transform="translate(78.77305301302164 57.92940585852722) rotate(0 12.225828559030433 30.11823736814062)"><path d="M0 0 C0.99 -0.31, 3.84 -1.45, 5.92 -1.84 C7.99 -2.24, 10.38 -2.38, 12.46 -2.38 C14.54 -2.38, 16.28 -2.29, 18.41 -1.84 C20.53 -1.39, 22.86 -0.73, 25.19 0.31 C27.52 1.35, 30.39 2.93, 32.37 4.4 C34.35 5.86, 35.69 7.48, 37.09 9.12 C38.48 10.75, 39.7 12.27, 40.73 14.2 C41.77 16.14, 42.67 18.45, 43.31 20.72 C43.96 22.98, 44.44 25.29, 44.61 27.82 C44.77 30.35, 44.68 33.4, 44.29 35.9 C43.9 38.4, 43.3 40.56, 42.27 42.83 C41.23 45.1, 39.45 47.6, 38.07 49.51 C36.69 51.42, 35.92 52.65, 34.01 54.29 C32.09 55.93, 28.97 58.09, 26.59 59.34 C24.22 60.59, 22.2 61.25, 19.74 61.79 C17.28 62.34, 14.39 62.6, 11.84 62.62 C9.29 62.63, 6.7 62.39, 4.43 61.89 C2.16 61.38, 0.19 60.56, -1.78 59.58 C-3.74 58.61, -5.74 57.24, -7.34 56.05 C-8.95 54.86, -10.11 53.81, -11.4 52.43 C-12.69 51.04, -13.97 49.44, -15.07 47.76 C-16.16 46.08, -17.2 44.27, -17.95 42.35 C-18.69 40.43, -19.17 38.5, -19.54 36.23 C-19.9 33.97, -20.2 31.07, -20.15 28.76 C-20.11 26.44, -19.8 24.5, -19.26 22.34 C-18.72 20.18, -17.72 17.64, -16.89 15.8 C-16.06 13.96, -15.09 12.49, -14.27 11.29 C-13.45 10.08, -12.37 9.03, -11.99 8.58 M0 0 C0.99 -0.31, 3.84 -1.45, 5.92 -1.84 C7.99 -2.24, 10.38 -2.38, 12.46 -2.38 C14.54 -2.38, 16.28 -2.29, 18.41 -1.84 C20.53 -1.39, 22.86 -0.73, 25.19 0.31 C27.52 1.35, 30.39 2.93, 32.37 4.4 C34.35 5.86, 35.69 7.48, 37.09 9.12 C38.48 10.75, 39.7 12.27, 40.73 14.2 C41.77 16.14, 42.67 18.45, 43.31 20.72 C43.96 22.98, 44.44 25.29, 44.61 27.82 C44.77 30.35, 44.68 33.4, 44.29 35.9 C43.9 38.4, 43.3 40.56, 42.27 42.83 C41.23 45.1, 39.45 47.6, 38.07 49.51 C36.69 51.42, 35.92 52.65, 34.01 54.29 C32.09 55.93, 28.97 58.09, 26.59 59.34 C24.22 60.59, 22.2 61.25, 19.74 61.79 C17.28 62.34, 14.39 62.6, 11.84 62.62 C9.29 62.63, 6.7 62.39, 4.43 61.89 C2.16 61.38, 0.19 60.56, -1.78 59.58 C-3.74 58.61, -5.74 57.24, -7.34 56.05 C-8.95 54.86, -10.11 53.81, -11.4 52.43 C-12.69 51.04, -13.97 49.44, -15.07 47.76 C-16.16 46.08, -17.2 44.27, -17.95 42.35 C-18.69 40.43, -19.17 38.5, -19.54 36.23 C-19.9 33.97, -20.2 31.07, -20.15 28.76 C-20.11 26.44, -19.8 24.5, -19.26 22.34 C-18.72 20.18, -17.72 17.64, -16.89 15.8 C-16.06 13.96, -15.09 12.49, -14.27 11.29 C-13.45 10.08, -12.37 9.03, -11.99 8.58" stroke="#E1E1E1" stroke-width="2" fill="none"></path></g></g><mask></mask><g stroke-linecap="round" transform="translate(67.68811813091429 63.85745595442617) rotate(0 0.7292396469736104 0.7292396469736246)"><path d="M1.46 0.73 C1.46 0.77, 1.45 0.81, 1.45 0.86 C1.44 0.9, 1.43 0.94, 1.41 0.98 C1.4 1.02, 1.38 1.06, 1.36 1.09 C1.34 1.13, 1.32 1.17, 1.29 1.2 C1.26 1.23, 1.23 1.26, 1.2 1.29 C1.17 1.32, 1.13 1.34, 1.09 1.36 C1.06 1.38, 1.02 1.4, 0.98 1.41 C0.94 1.43, 0.9 1.44, 0.86 1.45 C0.81 1.45, 0.77 1.46, 0.73 1.46 C0.69 1.46, 0.64 1.45, 0.6 1.45 C0.56 1.44, 0.52 1.43, 0.48 1.41 C0.44 1.4, 0.4 1.38, 0.36 1.36 C0.33 1.34, 0.29 1.32, 0.26 1.29 C0.23 1.26, 0.2 1.23, 0.17 1.2 C0.14 1.17, 0.12 1.13, 0.1 1.09 C0.08 1.06, 0.06 1.02, 0.04 0.98 C0.03 0.94, 0.02 0.9, 0.01 0.86 C0 0.81, 0 0.77, 0 0.73 C0 0.69, 0 0.64, 0.01 0.6 C0.02 0.56, 0.03 0.52, 0.04 0.48 C0.06 0.44, 0.08 0.4, 0.1 0.36 C0.12 0.33, 0.14 0.29, 0.17 0.26 C0.2 0.23, 0.23 0.2, 0.26 0.17 C0.29 0.14, 0.33 0.12, 0.36 0.1 C0.4 0.08, 0.44 0.06, 0.48 0.04 C0.52 0.03, 0.56 0.02, 0.6 0.01 C0.64 0, 0.69 0, 0.73 0 C0.77 0, 0.81 0, 0.86 0.01 C0.9 0.02, 0.94 0.03, 0.98 0.04 C1.02 0.06, 1.06 0.08, 1.09 0.1 C1.13 0.12, 1.17 0.14, 1.2 0.17 C1.23 0.2, 1.26 0.23, 1.29 0.26 C1.32 0.29, 1.34 0.33, 1.36 0.36 C1.38 0.4, 1.4 0.44, 1.41 0.48 C1.43 0.52, 1.44 0.56, 1.45 0.6 C1.45 0.64, 1.46 0.71, 1.46 0.73 C1.46 0.75, 1.46 0.71, 1.46 0.73" stroke="#E1E1E1" stroke-width="2" fill="none"></path></g><g stroke-linecap="round" transform="translate(75.3118938036692 58.56648032407905) rotate(0 0.6841200406121857 0.6841200406121857)"><path d="M1.37 0.68 C1.37 0.72, 1.36 0.76, 1.36 0.8 C1.35 0.84, 1.34 0.88, 1.33 0.92 C1.31 0.96, 1.3 0.99, 1.28 1.03 C1.26 1.06, 1.23 1.09, 1.21 1.12 C1.18 1.15, 1.15 1.18, 1.12 1.21 C1.09 1.23, 1.06 1.26, 1.03 1.28 C0.99 1.3, 0.96 1.31, 0.92 1.33 C0.88 1.34, 0.84 1.35, 0.8 1.36 C0.76 1.36, 0.72 1.37, 0.68 1.37 C0.64 1.37, 0.6 1.36, 0.57 1.36 C0.53 1.35, 0.49 1.34, 0.45 1.33 C0.41 1.31, 0.38 1.3, 0.34 1.28 C0.31 1.26, 0.27 1.23, 0.24 1.21 C0.21 1.18, 0.19 1.15, 0.16 1.12 C0.13 1.09, 0.11 1.06, 0.09 1.03 C0.07 0.99, 0.05 0.96, 0.04 0.92 C0.03 0.88, 0.02 0.84, 0.01 0.8 C0 0.76, 0 0.72, 0 0.68 C0 0.64, 0 0.6, 0.01 0.57 C0.02 0.53, 0.03 0.49, 0.04 0.45 C0.05 0.41, 0.07 0.38, 0.09 0.34 C0.11 0.31, 0.13 0.27, 0.16 0.24 C0.19 0.21, 0.21 0.19, 0.24 0.16 C0.27 0.13, 0.31 0.11, 0.34 0.09 C0.38 0.07, 0.41 0.05, 0.45 0.04 C0.49 0.03, 0.53 0.02, 0.57 0.01 C0.6 0, 0.64 0, 0.68 0 C0.72 0, 0.76 0, 0.8 0.01 C0.84 0.02, 0.88 0.03, 0.92 0.04 C0.96 0.05, 0.99 0.07, 1.03 0.09 C1.06 0.11, 1.09 0.13, 1.12 0.16 C1.15 0.19, 1.18 0.21, 1.21 0.24 C1.23 0.27, 1.26 0.31, 1.28 0.34 C1.3 0.38, 1.31 0.41, 1.33 0.45 C1.34 0.49, 1.35 0.53, 1.36 0.57 C1.36 0.6, 1.37 0.66, 1.37 0.68 C1.37 0.7, 1.37 0.66, 1.37 0.68" stroke="#E1E1E1" stroke-width="2" fill="none"></path></g><g stroke-linecap="round"><g transform="translate(89.7948416266739 58.21039465279286) rotate(0 1.3970705052674433 29.689054034408585)"><path d="M0 0 C-0.84 0.13, -3.45 0.41, -5.05 0.77 C-6.66 1.12, -8.01 1.48, -9.61 2.11 C-11.2 2.75, -12.98 3.56, -14.63 4.6 C-16.28 5.63, -18.02 6.79, -19.52 8.32 C-21.02 9.85, -22.48 11.95, -23.65 13.78 C-24.82 15.62, -25.81 17.48, -26.53 19.33 C-27.25 21.18, -27.65 22.81, -27.97 24.89 C-28.3 26.96, -28.53 29.71, -28.47 31.76 C-28.42 33.82, -28.1 35.47, -27.65 37.21 C-27.2 38.96, -26.58 40.59, -25.77 42.25 C-24.96 43.91, -23.99 45.54, -22.8 47.17 C-21.61 48.8, -20.26 50.58, -18.62 52.03 C-16.97 53.49, -14.73 54.89, -12.92 55.9 C-11.11 56.92, -9.72 57.53, -7.77 58.12 C-5.82 58.7, -3.59 59.22, -1.21 59.4 C1.17 59.59, 3.89 59.7, 6.5 59.21 C9.11 58.72, 12.1 57.58, 14.45 56.47 C16.79 55.35, 18.83 53.89, 20.58 52.52 C22.34 51.14, 23.7 49.79, 24.96 48.22 C26.23 46.65, 27.3 44.89, 28.19 43.09 C29.08 41.29, 29.78 39.65, 30.29 37.41 C30.8 35.16, 31.22 31.82, 31.27 29.6 C31.32 27.38, 31.13 26.32, 30.58 24.08 C30.02 21.84, 29.21 18.63, 27.94 16.15 C26.67 13.67, 24.76 11.13, 22.97 9.19 C21.19 7.26, 19.45 5.92, 17.22 4.56 C14.99 3.19, 11.95 1.77, 9.59 1 C7.24 0.24, 4.69 0.14, 3.1 -0.03 C1.5 -0.19, 0.52 0, 0 0 M0 0 C-0.84 0.13, -3.45 0.41, -5.05 0.77 C-6.66 1.12, -8.01 1.48, -9.61 2.11 C-11.2 2.75, -12.98 3.56, -14.63 4.6 C-16.28 5.63, -18.02 6.79, -19.52 8.32 C-21.02 9.85, -22.48 11.95, -23.65 13.78 C-24.82 15.62, -25.81 17.48, -26.53 19.33 C-27.25 21.18, -27.65 22.81, -27.97 24.89 C-28.3 26.96, -28.53 29.71, -28.47 31.76 C-28.42 33.82, -28.1 35.47, -27.65 37.21 C-27.2 38.96, -26.58 40.59, -25.77 42.25 C-24.96 43.91, -23.99 45.54, -22.8 47.17 C-21.61 48.8, -20.26 50.58, -18.62 52.03 C-16.97 53.49, -14.73 54.89, -12.92 55.9 C-11.11 56.92, -9.72 57.53, -7.77 58.12 C-5.82 58.7, -3.59 59.22, -1.21 59.4 C1.17 59.59, 3.89 59.7, 6.5 59.21 C9.11 58.72, 12.1 57.58, 14.45 56.47 C16.79 55.35, 18.83 53.89, 20.58 52.52 C22.34 51.14, 23.7 49.79, 24.96 48.22 C26.23 46.65, 27.3 44.89, 28.19 43.09 C29.08 41.29, 29.78 39.65, 30.29 37.41 C30.8 35.16, 31.22 31.82, 31.27 29.6 C31.32 27.38, 31.13 26.32, 30.58 24.08 C30.02 21.84, 29.21 18.63, 27.94 16.15 C26.67 13.67, 24.76 11.13, 22.97 9.19 C21.19 7.26, 19.45 5.92, 17.22 4.56 C14.99 3.19, 11.95 1.77, 9.59 1 C7.24 0.24, 4.69 0.14, 3.1 -0.03 C1.5 -0.19, 0.52 0, 0 0" stroke="#E1E1E1" stroke-width="2" fill="none"></path></g></g><mask></mask><g stroke-linecap="round"><g transform="translate(91.16792086985859 60.36110949057036) rotate(0 13.941047957480144 13.961143959298525)"><path d="M0 0 C0.87 0.05, 3.37 -0.09, 5.25 0.29 C7.12 0.67, 9.09 1.2, 11.25 2.29 C13.41 3.38, 16.18 5.14, 18.22 6.84 C20.25 8.55, 22.15 10.49, 23.48 12.53 C24.81 14.57, 25.54 17.15, 26.2 19.08 C26.86 21, 27.16 22.62, 27.44 24.09 C27.72 25.57, 27.81 27.28, 27.88 27.92 M0 0 C0.87 0.05, 3.37 -0.09, 5.25 0.29 C7.12 0.67, 9.09 1.2, 11.25 2.29 C13.41 3.38, 16.18 5.14, 18.22 6.84 C20.25 8.55, 22.15 10.49, 23.48 12.53 C24.81 14.57, 25.54 17.15, 26.2 19.08 C26.86 21, 27.16 22.62, 27.44 24.09 C27.72 25.57, 27.81 27.28, 27.88 27.92" stroke="#E1E1E1" stroke-width="2" fill="none"></path></g></g><mask></mask><g stroke-linecap="round"><g transform="translate(117.15585795263445 88.08473913568537) rotate(0 -13.269646733733325 -13.167484680436417)"><path d="M0 0 C-0.12 -1.04, -0.25 -4.14, -0.74 -6.23 C-1.24 -8.32, -2.04 -10.71, -2.97 -12.55 C-3.89 -14.39, -5.03 -15.82, -6.29 -17.29 C-7.55 -18.75, -9.1 -20.25, -10.52 -21.34 C-11.94 -22.43, -13.38 -23.18, -14.82 -23.85 C-16.26 -24.52, -17.65 -24.96, -19.15 -25.35 C-20.65 -25.74, -22.57 -26.03, -23.8 -26.19 C-25.03 -26.36, -26.08 -26.31, -26.54 -26.33 M0 0 C-0.12 -1.04, -0.25 -4.14, -0.74 -6.23 C-1.24 -8.32, -2.04 -10.71, -2.97 -12.55 C-3.89 -14.39, -5.03 -15.82, -6.29 -17.29 C-7.55 -18.75, -9.1 -20.25, -10.52 -21.34 C-11.94 -22.43, -13.38 -23.18, -14.82 -23.85 C-16.26 -24.52, -17.65 -24.96, -19.15 -25.35 C-20.65 -25.74, -22.57 -26.03, -23.8 -26.19 C-25.03 -26.36, -26.08 -26.31, -26.54 -26.33" stroke="#E1E1E1" stroke-width="2" fill="none"></path></g></g><mask></mask><g stroke-linecap="round"><g transform="translate(90.96961671094604 60.2685085306496) rotate(0 -0.023725676155606834 0.6219137126610477)"><path d="M0 0 C-0.01 0.21, -0.04 1.04, -0.05 1.24 M0 0 C-0.01 0.21, -0.04 1.04, -0.05 1.24" stroke="#E1E1E1" stroke-width="2" fill="none"></path></g></g><mask></mask><g stroke-linecap="round"><g transform="translate(118.91014152987164 88.30641485618406) rotate(0 -1.0385295036621685 -0.05302865678063995)"><path d="M0 0 C-0.35 -0.02, -1.73 -0.09, -2.08 -0.11 M0 0 C-0.35 -0.02, -1.73 -0.09, -2.08 -0.11" stroke="#E1E1E1" stroke-width="2" fill="none"></path></g></g><mask></mask><g stroke-linecap="round" transform="translate(117.24119956388074 89.98914643842605) rotate(0 0.7811767402876981 0.781176740287691)"><path d="M1.56 0.78 C1.56 0.83, 1.56 0.87, 1.55 0.92 C1.54 0.96, 1.53 1.01, 1.52 1.05 C1.5 1.09, 1.48 1.13, 1.46 1.17 C1.44 1.21, 1.41 1.25, 1.38 1.28 C1.35 1.32, 1.32 1.35, 1.28 1.38 C1.25 1.41, 1.21 1.44, 1.17 1.46 C1.13 1.48, 1.09 1.5, 1.05 1.52 C1.01 1.53, 0.96 1.54, 0.92 1.55 C0.87 1.56, 0.83 1.56, 0.78 1.56 C0.74 1.56, 0.69 1.56, 0.65 1.55 C0.6 1.54, 0.56 1.53, 0.51 1.52 C0.47 1.5, 0.43 1.48, 0.39 1.46 C0.35 1.44, 0.31 1.41, 0.28 1.38 C0.24 1.35, 0.21 1.32, 0.18 1.28 C0.15 1.25, 0.13 1.21, 0.1 1.17 C0.08 1.13, 0.06 1.09, 0.05 1.05 C0.03 1.01, 0.02 0.96, 0.01 0.92 C0 0.87, 0 0.83, 0 0.78 C0 0.74, 0 0.69, 0.01 0.65 C0.02 0.6, 0.03 0.56, 0.05 0.51 C0.06 0.47, 0.08 0.43, 0.1 0.39 C0.13 0.35, 0.15 0.31, 0.18 0.28 C0.21 0.24, 0.24 0.21, 0.28 0.18 C0.31 0.15, 0.35 0.13, 0.39 0.1 C0.43 0.08, 0.47 0.06, 0.51 0.05 C0.56 0.03, 0.6 0.02, 0.65 0.01 C0.69 0, 0.74 0, 0.78 0 C0.83 0, 0.87 0, 0.92 0.01 C0.96 0.02, 1.01 0.03, 1.05 0.05 C1.09 0.06, 1.13 0.08, 1.17 0.1 C1.21 0.13, 1.25 0.15, 1.28 0.18 C1.32 0.21, 1.35 0.24, 1.38 0.28 C1.41 0.31, 1.44 0.35, 1.46 0.39 C1.48 0.43, 1.5 0.47, 1.52 0.51 C1.53 0.56, 1.54 0.6, 1.55 0.65 C1.56 0.69, 1.56 0.76, 1.56 0.78 C1.56 0.8, 1.56 0.76, 1.56 0.78" stroke="#E1E1E1" stroke-width="2" fill="none"></path></g><g stroke-linecap="round"><g transform="translate(118.64154562891598 99.59859730526122) rotate(0 -1.96099795717506 0.6556431254046515)"><path d="M0 0 C-0.65 0.22, -3.27 1.09, -3.92 1.31 M0 0 C-0.65 0.22, -3.27 1.09, -3.92 1.31" stroke="#E1E1E1" stroke-width="2" fill="none"></path></g></g><mask></mask><g stroke-linecap="round"><g transform="translate(114.59596372981497 100.79391103456362) rotate(0 -4.41580868149935 -14.080834683785028)"><path d="M0 0 C-0.29 -1.29, -1 -4.99, -1.71 -7.72 C-2.43 -10.44, -3.41 -13.7, -4.28 -16.36 C-5.15 -19.02, -6.17 -21.71, -6.93 -23.68 C-7.69 -25.64, -8.51 -27.41, -8.83 -28.16 M0 0 C-0.29 -1.29, -1 -4.99, -1.71 -7.72 C-2.43 -10.44, -3.41 -13.7, -4.28 -16.36 C-5.15 -19.02, -6.17 -21.71, -6.93 -23.68 C-7.69 -25.64, -8.51 -27.41, -8.83 -28.16" stroke="#E1E1E1" stroke-width="2" fill="none"></path></g></g><mask></mask><g stroke-linecap="round"><g transform="translate(105.73725660225055 72.44863326271471) rotate(0 0.9224684535128915 -2.324850677322658)"><path d="M0 0 C0.31 -0.77, 1.54 -3.87, 1.84 -4.65 M0 0 C0.31 -0.77, 1.54 -3.87, 1.84 -4.65" stroke="#E1E1E1" stroke-width="2" fill="none"></path></g></g><mask></mask><g stroke-linecap="round"><g transform="translate(105.78364561085331 66.34989508972973) rotate(0 -0.669719179541751 1.6358322537438852)"><path d="M0 0 C-0.22 0.55, -1.12 2.73, -1.34 3.27 M0 0 C-0.22 0.55, -1.12 2.73, -1.34 3.27" stroke="#E1E1E1" stroke-width="2" fill="none"></path></g></g><mask></mask><g stroke-linecap="round"><g transform="translate(104.39834941502129 69.45601103598244) rotate(0 -1.2141703301275797 -2.6561248570774865)"><path d="M0 0 C-0.4 -0.89, -2.02 -4.43, -2.43 -5.31 M0 0 C-0.4 -0.89, -2.02 -4.43, -2.43 -5.31" stroke="#E1E1E1" stroke-width="2" fill="none"></path></g></g><mask></mask><g stroke-linecap="round"><g transform="translate(99.46500229021711 63.38170676829208) rotate(0 1.9595814988971156 4.54364404108405)"><path d="M0 0 C0.37 0.87, 1.54 3.72, 2.19 5.24 C2.84 6.75, 3.63 8.45, 3.92 9.09 M0 0 C0.37 0.87, 1.54 3.72, 2.19 5.24 C2.84 6.75, 3.63 8.45, 3.92 9.09" stroke="#E1E1E1" stroke-width="2" fill="none"></path></g></g><mask></mask><g stroke-linecap="round"><g transform="translate(103.40913036516014 72.5580546646861) rotate(0 -8.997785624730327 17.386936833155374)"><path d="M0 0 C-0.88 1.92, -3.79 8.38, -5.29 11.53 C-6.78 14.68, -7.72 16.5, -8.98 18.89 C-10.24 21.27, -11.32 23.18, -12.82 25.83 C-14.33 28.48, -17.13 33.28, -18 34.77 M0 0 C-0.88 1.92, -3.79 8.38, -5.29 11.53 C-6.78 14.68, -7.72 16.5, -8.98 18.89 C-10.24 21.27, -11.32 23.18, -12.82 25.83 C-14.33 28.48, -17.13 33.28, -18 34.77" stroke="#E1E1E1" stroke-width="2" fill="none"></path></g></g><mask></mask><g stroke-linecap="round"><g transform="translate(85.34415266008008 107.2267563038593) rotate(0 -8.006441887452269 0.4607030549022113)"><path d="M0 0 C-1.29 0.11, -5.06 0.53, -7.73 0.69 C-10.4 0.84, -14.63 0.88, -16.01 0.92 M0 0 C-1.29 0.11, -5.06 0.53, -7.73 0.69 C-10.4 0.84, -14.63 0.88, -16.01 0.92" stroke="#E1E1E1" stroke-width="2" fill="none"></path></g></g><mask></mask><g stroke-linecap="round"><g transform="translate(71.36052242561917 110.23478251436421) rotate(0 6.415051012178978 -0.4138714030875974)"><path d="M0 0 C1.19 -0.04, 4.99 -0.09, 7.12 -0.23 C9.26 -0.37, 11.88 -0.73, 12.83 -0.83 M0 0 C1.19 -0.04, 4.99 -0.09, 7.12 -0.23 C9.26 -0.37, 11.88 -0.73, 12.83 -0.83" stroke="#E1E1E1" stroke-width="2" fill="none"></path></g></g><mask></mask><g stroke-linecap="round"><g transform="translate(84.21275661057001 109.48051848135748) rotate(0 -2.0239418219013317 2.8310574544039184)"><path d="M0 0 C-0.67 0.94, -3.37 4.72, -4.05 5.66 M0 0 C-0.67 0.94, -3.37 4.72, -4.05 5.66" stroke="#E1E1E1" stroke-width="2" fill="none"></path></g></g><mask></mask><g stroke-linecap="round"><g transform="translate(81.9834283383664 115.9632939049508) rotate(0 2.4015164816165395 -3.5383127783112656)"><path d="M0 0 C0.42 -0.61, 1.72 -2.5, 2.52 -3.68 C3.32 -4.86, 4.42 -6.51, 4.8 -7.08 M0 0 C0.42 -0.61, 1.72 -2.5, 2.52 -3.68 C3.32 -4.86, 4.42 -6.51, 4.8 -7.08" stroke="#E1E1E1" stroke-width="2" fill="none"></path></g></g><mask></mask><g stroke-linecap="round"><g transform="translate(86.92633655654674 108.83620702217641) rotate(0 13.00627402267758 -2.689500155251608)"><path d="M0 0 C0.89 -0.09, 3.11 -0.17, 5.33 -0.55 C7.56 -0.92, 10.75 -1.66, 13.33 -2.25 C15.91 -2.83, 18.69 -3.53, 20.8 -4.05 C22.92 -4.57, 25.14 -5.16, 26.01 -5.38 M0 0 C0.89 -0.09, 3.11 -0.17, 5.33 -0.55 C7.56 -0.92, 10.75 -1.66, 13.33 -2.25 C15.91 -2.83, 18.69 -3.53, 20.8 -4.05 C22.92 -4.57, 25.14 -5.16, 26.01 -5.38" stroke="#E1E1E1" stroke-width="2" fill="none"></path></g></g><mask></mask><g stroke-linecap="round"><g transform="translate(112.83424374661857 103.44817679015128) rotate(0 0.4449449565600574 1.7659693580302473)"><path d="M0 0 C0.15 0.59, 0.74 2.94, 0.89 3.53 M0 0 C0.15 0.59, 0.74 2.94, 0.89 3.53" stroke="#E1E1E1" stroke-width="2" fill="none"></path></g></g><mask></mask><g stroke-linecap="round"><g transform="translate(115.30897341547647 105.52523579747566) rotate(0 1.0099347521761146 -1.7381713643255523)"><path d="M0 0 C-0.05 -0.43, -0.71 -2.01, -0.32 -2.59 C0.07 -3.17, 1.9 -3.33, 2.34 -3.48 M0 0 C-0.05 -0.43, -0.71 -2.01, -0.32 -2.59 C0.07 -3.17, 1.9 -3.33, 2.34 -3.48" stroke="#E1E1E1" stroke-width="2" fill="none"></path></g><g transform="translate(115.30897341547647 105.52523579747566) rotate(0 1.0099347521761146 -1.7381713643255523)"><path d="M1.15 -2.73 C1.47 -2.93, 1.79 -3.13, 2.34 -3.48 M1.15 -2.73 C1.63 -3.03, 2.1 -3.33, 2.34 -3.48" stroke="#E1E1E1" stroke-width="2" fill="none"></path></g><g transform="translate(115.30897341547647 105.52523579747566) rotate(0 1.0099347521761146 -1.7381713643255523)"><path d="M0.95 -3.67 C1.32 -3.62, 1.69 -3.57, 2.34 -3.48 M0.95 -3.67 C1.51 -3.59, 2.06 -3.52, 2.34 -3.48" stroke="#E1E1E1" stroke-width="2" fill="none"></path></g></g><mask></mask><g stroke-linecap="round"><g transform="translate(104.66729943054644 75.2047069570298) rotate(0 3.9167727244501904 13.129505892858958)"><path d="M0 0 C0.34 0.99, 1.34 3.88, 2.02 5.94 C2.7 8, 3.43 10.14, 4.09 12.34 C4.74 14.54, 5.33 16.83, 5.95 19.15 C6.58 21.47, 7.52 25.07, 7.83 26.26 M0 0 C0.34 0.99, 1.34 3.88, 2.02 5.94 C2.7 8, 3.43 10.14, 4.09 12.34 C4.74 14.54, 5.33 16.83, 5.95 19.15 C6.58 21.47, 7.52 25.07, 7.83 26.26" stroke="#E1E1E1" stroke-width="2" fill="none"></path></g></g><mask></mask><g stroke-linecap="round"><g transform="translate(104.7083767206069 75.15158977160684) rotate(0 -8.163314641734885 15.723749228918635)"><path d="M0 0 C-0.47 1.09, -1.54 3.84, -2.8 6.54 C-4.05 9.23, -6.1 13.39, -7.52 16.17 C-8.95 18.95, -10.31 21.29, -11.37 23.2 C-12.43 25.12, -13.05 26.3, -13.87 27.67 C-14.7 29.05, -15.92 30.82, -16.33 31.45 M0 0 C-0.47 1.09, -1.54 3.84, -2.8 6.54 C-4.05 9.23, -6.1 13.39, -7.52 16.17 C-8.95 18.95, -10.31 21.29, -11.37 23.2 C-12.43 25.12, -13.05 26.3, -13.87 27.67 C-14.7 29.05, -15.92 30.82, -16.33 31.45" stroke="#E1E1E1" stroke-width="2" fill="none"></path></g></g><mask></mask><g stroke-linecap="round"><g transform="translate(88.4380516536855 106.848207829078) rotate(0 12.116207052272728 -2.538381762723148)"><path d="M0 0 C1.44 -0.22, 5.6 -0.76, 8.63 -1.33 C11.66 -1.9, 15.6 -2.79, 18.2 -3.42 C20.8 -4.04, 23.23 -4.8, 24.23 -5.08 M0 0 C1.44 -0.22, 5.6 -0.76, 8.63 -1.33 C11.66 -1.9, 15.6 -2.79, 18.2 -3.42 C20.8 -4.04, 23.23 -4.8, 24.23 -5.08" stroke="#E1E1E1" stroke-width="2" fill="none"></path></g></g><mask></mask><g stroke-linecap="round" transform="translate(87.55676596186163 60.49842068193496) rotate(0 0.781176740287691 0.7811767402876981)"><path d="M1.56 0.78 C1.56 0.83, 1.56 0.87, 1.55 0.92 C1.54 0.96, 1.53 1.01, 1.52 1.05 C1.5 1.09, 1.48 1.13, 1.46 1.17 C1.44 1.21, 1.41 1.25, 1.38 1.28 C1.35 1.32, 1.32 1.35, 1.28 1.38 C1.25 1.41, 1.21 1.44, 1.17 1.46 C1.13 1.48, 1.09 1.5, 1.05 1.52 C1.01 1.53, 0.96 1.54, 0.92 1.55 C0.87 1.56, 0.83 1.56, 0.78 1.56 C0.74 1.56, 0.69 1.56, 0.65 1.55 C0.6 1.54, 0.56 1.53, 0.51 1.52 C0.47 1.5, 0.43 1.48, 0.39 1.46 C0.35 1.44, 0.31 1.41, 0.28 1.38 C0.24 1.35, 0.21 1.32, 0.18 1.28 C0.15 1.25, 0.13 1.21, 0.1 1.17 C0.08 1.13, 0.06 1.09, 0.05 1.05 C0.03 1.01, 0.02 0.96, 0.01 0.92 C0 0.87, 0 0.83, 0 0.78 C0 0.74, 0 0.69, 0.01 0.65 C0.02 0.6, 0.03 0.56, 0.05 0.51 C0.06 0.47, 0.08 0.43, 0.1 0.39 C0.13 0.35, 0.15 0.31, 0.18 0.28 C0.21 0.24, 0.24 0.21, 0.28 0.18 C0.31 0.15, 0.35 0.13, 0.39 0.1 C0.43 0.08, 0.47 0.06, 0.51 0.05 C0.56 0.03, 0.6 0.02, 0.65 0.01 C0.69 0, 0.74 0, 0.78 0 C0.83 0, 0.87 0, 0.92 0.01 C0.96 0.02, 1.01 0.03, 1.05 0.05 C1.09 0.06, 1.13 0.08, 1.17 0.1 C1.21 0.13, 1.25 0.15, 1.28 0.18 C1.32 0.21, 1.35 0.24, 1.38 0.28 C1.41 0.31, 1.44 0.35, 1.46 0.39 C1.48 0.43, 1.5 0.47, 1.52 0.51 C1.53 0.56, 1.54 0.6, 1.55 0.65 C1.56 0.69, 1.56 0.76, 1.56 0.78 C1.56 0.8, 1.56 0.76, 1.56 0.78" stroke="#E1E1E1" stroke-width="2" fill="none"></path></g><g stroke-linecap="round"><g transform="translate(97.51086230908618 58.95706169059952) rotate(0 0.4421014718888472 0.975583739083298)"><path d="M0 0 C0.15 0.33, 0.74 1.63, 0.88 1.95 M0 0 C0.15 0.33, 0.74 1.63, 0.88 1.95" stroke="#E1E1E1" stroke-width="2" fill="none"></path></g></g><mask></mask><g stroke-linecap="round"><g transform="translate(99.74439578685798 59.28021681409922) rotate(0 0.5980211874210823 1.2886073705188892)"><path d="M0 0 C0.2 0.43, 1 2.15, 1.2 2.58 M0 0 C0.2 0.43, 1 2.15, 1.2 2.58" stroke="#E1E1E1" stroke-width="2" fill="none"></path></g></g><mask></mask><g stroke-linecap="round"><g transform="translate(107.17498996006604 62.91860666548928) rotate(0 -0.38822035500239593 1.0326885125356142)"><path d="M0 0 C-0.13 0.34, -0.65 1.72, -0.78 2.07 M0 0 C-0.13 0.34, -0.65 1.72, -0.78 2.07" stroke="#E1E1E1" stroke-width="2" fill="none"></path></g></g><mask></mask><g stroke-linecap="round"><g transform="translate(109.01997413828794 64.05780742251717) rotate(0 -0.4044702156506972 1.0308464230694128)"><path d="M0 0 C-0.13 0.34, -0.67 1.72, -0.81 2.06 M0 0 C-0.13 0.34, -0.67 1.72, -0.81 2.06" stroke="#E1E1E1" stroke-width="2" fill="none"></path></g></g><mask></mask><g stroke-linecap="round"><g transform="translate(82.32718351434659 116.4383325447819) rotate(0 29.200850213323 -7.487836056958642)"><path d="M0 0 C0.4 1.06, 1.21 4.29, 2.41 6.36 C3.61 8.44, 5.17 10.54, 7.2 12.46 C9.23 14.37, 11.97 16.46, 14.59 17.84 C17.2 19.23, 20.08 20.27, 22.87 20.77 C25.67 21.28, 28.33 21.23, 31.36 20.89 C34.39 20.54, 37.84 20.21, 41.05 18.69 C44.27 17.17, 48.16 14.43, 50.65 11.76 C53.15 9.09, 54.7 5.94, 56 2.66 C57.29 -0.61, 58.37 -4.07, 58.4 -7.86 C58.43 -11.65, 57.32 -16.75, 56.17 -20.09 C55.02 -23.44, 53.35 -25.68, 51.51 -27.95 C49.66 -30.23, 46.95 -32.43, 45.09 -33.74 C43.24 -35.06, 41.18 -35.51, 40.39 -35.86 M0 0 C0.4 1.06, 1.21 4.29, 2.41 6.36 C3.61 8.44, 5.17 10.54, 7.2 12.46 C9.23 14.37, 11.97 16.46, 14.59 17.84 C17.2 19.23, 20.08 20.27, 22.87 20.77 C25.67 21.28, 28.33 21.23, 31.36 20.89 C34.39 20.54, 37.84 20.21, 41.05 18.69 C44.27 17.17, 48.16 14.43, 50.65 11.76 C53.15 9.09, 54.7 5.94, 56 2.66 C57.29 -0.61, 58.37 -4.07, 58.4 -7.86 C58.43 -11.65, 57.32 -16.75, 56.17 -20.09 C55.02 -23.44, 53.35 -25.68, 51.51 -27.95 C49.66 -30.23, 46.95 -32.43, 45.09 -33.74 C43.24 -35.06, 41.18 -35.51, 40.39 -35.86" stroke="#E1E1E1" stroke-width="0.5" fill="none"></path></g></g><mask></mask><g stroke-linecap="round"><g transform="translate(122.85733231790628 80.65121049878985) rotate(0 -1.5974507378228822 -0.5242856423590894)"><path d="M0 0 C-0.27 -0.1, -1.11 -0.41, -1.64 -0.58 C-2.17 -0.75, -2.94 -0.97, -3.19 -1.05 M0 0 C-0.27 -0.1, -1.11 -0.41, -1.64 -0.58 C-2.17 -0.75, -2.94 -0.97, -3.19 -1.05" stroke="#E1E1E1" stroke-width="1" fill="none"></path></g></g><mask></mask><g stroke-linecap="round"><g transform="translate(19.44607795843035 28.265209059868425) rotate(270 0 -1.0903056056631186)"><path d="M0 0 C0 -0.36, 0 -1.82, 0 -2.18 M0 0 C0 -0.36, 0 -1.82, 0 -2.18" stroke="#E1E1E1" stroke-width="2" fill="none"></path></g></g><mask></mask><g stroke-linecap="round"><g transform="translate(22.447697882624396 22.76203203484934) rotate(270 1.489181066044381 0.39902486403030935)"><path d="M0 0 C0.5 0.13, 2.48 0.67, 2.98 0.8 M0 0 C0.5 0.13, 2.48 0.67, 2.98 0.8" stroke="#E1E1E1" stroke-width="2" fill="none"></path></g></g><mask></mask><g stroke-linecap="round"><g transform="translate(28.056010537365125 25.905881718118877) rotate(270 0 1.7756699599544135)"><path d="M0 0 C0 0.59, 0 2.96, 0 3.55 M0 0 C0 0.59, 0 2.96, 0 3.55" stroke="#E1E1E1" stroke-width="2" fill="none"></path></g></g><mask></mask><g stroke-linecap="round"><g transform="translate(24.612895068797087 31.58414940518651) rotate(270 -1.1978440065992118 0)"><path d="M0 0 C-0.4 0, -2 0, -2.4 0 M0 0 C-0.4 0, -2 0, -2.4 0" stroke="#E1E1E1" stroke-width="2" fill="none"></path></g></g><mask></mask><g stroke-linecap="round" transform="translate(20.64447301779464 41.61044487661687) rotate(0 2.819751885007733 2.819751885007733)"><path d="M5.64 2.82 C5.64 2.98, 5.63 3.15, 5.6 3.31 C5.57 3.47, 5.53 3.63, 5.47 3.78 C5.41 3.94, 5.34 4.09, 5.26 4.23 C5.18 4.37, 5.08 4.51, 4.98 4.63 C4.87 4.76, 4.76 4.87, 4.63 4.98 C4.51 5.08, 4.37 5.18, 4.23 5.26 C4.09 5.34, 3.94 5.41, 3.78 5.47 C3.63 5.53, 3.47 5.57, 3.31 5.6 C3.15 5.63, 2.98 5.64, 2.82 5.64 C2.66 5.64, 2.49 5.63, 2.33 5.6 C2.17 5.57, 2.01 5.53, 1.86 5.47 C1.7 5.41, 1.55 5.34, 1.41 5.26 C1.27 5.18, 1.13 5.08, 1.01 4.98 C0.88 4.87, 0.76 4.76, 0.66 4.63 C0.55 4.51, 0.46 4.37, 0.38 4.23 C0.3 4.09, 0.23 3.94, 0.17 3.78 C0.11 3.63, 0.07 3.47, 0.04 3.31 C0.01 3.15, 0 2.98, 0 2.82 C0 2.66, 0.01 2.49, 0.04 2.33 C0.07 2.17, 0.11 2.01, 0.17 1.86 C0.23 1.7, 0.3 1.55, 0.38 1.41 C0.46 1.27, 0.55 1.13, 0.66 1.01 C0.76 0.88, 0.88 0.76, 1.01 0.66 C1.13 0.55, 1.27 0.46, 1.41 0.38 C1.55 0.3, 1.7 0.23, 1.86 0.17 C2.01 0.11, 2.17 0.07, 2.33 0.04 C2.49 0.01, 2.66 0, 2.82 0 C2.98 0, 3.15 0.01, 3.31 0.04 C3.47 0.07, 3.63 0.11, 3.78 0.17 C3.94 0.23, 4.09 0.3, 4.23 0.38 C4.37 0.46, 4.51 0.55, 4.63 0.66 C4.76 0.76, 4.87 0.88, 4.98 1.01 C5.08 1.13, 5.18 1.27, 5.26 1.41 C5.34 1.55, 5.41 1.7, 5.47 1.86 C5.53 2.01, 5.57 2.17, 5.6 2.33 C5.63 2.49, 5.63 2.74, 5.64 2.82 C5.65 2.9, 5.65 2.74, 5.64 2.82" stroke="#E1E1E1" stroke-width="2" fill="none"></path></g><g stroke-linecap="round" transform="translate(62.44667338770083 28.696535110435917) rotate(0 1.119379720857765 1.119379720857765)"><path d="M2.24 1.12 C2.24 1.18, 2.23 1.25, 2.22 1.31 C2.21 1.38, 2.19 1.44, 2.17 1.5 C2.15 1.56, 2.12 1.62, 2.09 1.68 C2.06 1.74, 2.02 1.79, 1.98 1.84 C1.94 1.89, 1.89 1.94, 1.84 1.98 C1.79 2.02, 1.74 2.06, 1.68 2.09 C1.62 2.12, 1.56 2.15, 1.5 2.17 C1.44 2.19, 1.38 2.21, 1.31 2.22 C1.25 2.23, 1.18 2.24, 1.12 2.24 C1.05 2.24, 0.99 2.23, 0.93 2.22 C0.86 2.21, 0.8 2.19, 0.74 2.17 C0.68 2.15, 0.62 2.12, 0.56 2.09 C0.5 2.06, 0.45 2.02, 0.4 1.98 C0.35 1.94, 0.3 1.89, 0.26 1.84 C0.22 1.79, 0.18 1.74, 0.15 1.68 C0.12 1.62, 0.09 1.56, 0.07 1.5 C0.05 1.44, 0.03 1.38, 0.02 1.31 C0.01 1.25, 0 1.18, 0 1.12 C0 1.05, 0.01 0.99, 0.02 0.93 C0.03 0.86, 0.05 0.8, 0.07 0.74 C0.09 0.68, 0.12 0.62, 0.15 0.56 C0.18 0.5, 0.22 0.45, 0.26 0.4 C0.3 0.35, 0.35 0.3, 0.4 0.26 C0.45 0.22, 0.5 0.18, 0.56 0.15 C0.62 0.12, 0.68 0.09, 0.74 0.07 C0.8 0.05, 0.86 0.03, 0.93 0.02 C0.99 0.01, 1.05 0, 1.12 0 C1.18 0, 1.25 0.01, 1.31 0.02 C1.38 0.03, 1.44 0.05, 1.5 0.07 C1.56 0.09, 1.62 0.12, 1.68 0.15 C1.74 0.18, 1.79 0.22, 1.84 0.26 C1.89 0.3, 1.94 0.35, 1.98 0.4 C2.02 0.45, 2.06 0.5, 2.09 0.56 C2.12 0.62, 2.15 0.68, 2.17 0.74 C2.19 0.8, 2.21 0.86, 2.22 0.93 C2.23 0.99, 2.24 1.09, 2.24 1.12 C2.24 1.15, 2.24 1.09, 2.24 1.12" stroke="#E1E1E1" stroke-width="2" fill="none"></path></g><g stroke-linecap="round" transform="translate(21.340331325594008 106.11170021333996) rotate(0 3.1212449796722552 3.1212449796722552)"><path d="M6.24 3.12 C6.24 3.3, 6.23 3.49, 6.2 3.66 C6.16 3.84, 6.12 4.02, 6.05 4.19 C5.99 4.36, 5.91 4.53, 5.82 4.68 C5.73 4.84, 5.63 4.99, 5.51 5.13 C5.4 5.27, 5.27 5.4, 5.13 5.51 C4.99 5.63, 4.84 5.73, 4.68 5.82 C4.53 5.91, 4.36 5.99, 4.19 6.05 C4.02 6.12, 3.84 6.16, 3.66 6.2 C3.49 6.23, 3.3 6.24, 3.12 6.24 C2.94 6.24, 2.76 6.23, 2.58 6.2 C2.4 6.16, 2.22 6.12, 2.05 6.05 C1.88 5.99, 1.72 5.91, 1.56 5.82 C1.4 5.73, 1.25 5.63, 1.11 5.51 C0.98 5.4, 0.85 5.27, 0.73 5.13 C0.61 4.99, 0.51 4.84, 0.42 4.68 C0.33 4.53, 0.25 4.36, 0.19 4.19 C0.13 4.02, 0.08 3.84, 0.05 3.66 C0.02 3.49, 0 3.3, 0 3.12 C0 2.94, 0.02 2.76, 0.05 2.58 C0.08 2.4, 0.13 2.22, 0.19 2.05 C0.25 1.88, 0.33 1.72, 0.42 1.56 C0.51 1.4, 0.61 1.25, 0.73 1.11 C0.85 0.98, 0.98 0.85, 1.11 0.73 C1.25 0.61, 1.4 0.51, 1.56 0.42 C1.72 0.33, 1.88 0.25, 2.05 0.19 C2.22 0.13, 2.4 0.08, 2.58 0.05 C2.76 0.02, 2.94 0, 3.12 0 C3.3 0, 3.49 0.02, 3.66 0.05 C3.84 0.08, 4.02 0.13, 4.19 0.19 C4.36 0.25, 4.53 0.33, 4.68 0.42 C4.84 0.51, 4.99 0.61, 5.13 0.73 C5.27 0.85, 5.4 0.98, 5.51 1.11 C5.63 1.25, 5.73 1.4, 5.82 1.56 C5.91 1.72, 5.99 1.88, 6.05 2.05 C6.12 2.22, 6.16 2.4, 6.2 2.58 C6.23 2.76, 6.23 3.03, 6.24 3.12 C6.25 3.21, 6.25 3.03, 6.24 3.12" stroke="#E1E1E1" stroke-width="2" fill="none"></path></g><g stroke-linecap="round" transform="translate(138.9909370298744 143.34417176988842) rotate(0 3.080756002408023 3.120644080082215)"><path d="M6.16 3.12 C6.16 3.3, 6.15 3.48, 6.11 3.66 C6.08 3.84, 6.04 4.02, 5.98 4.19 C5.91 4.36, 5.84 4.52, 5.75 4.68 C5.66 4.84, 5.56 4.99, 5.44 5.13 C5.33 5.26, 5.2 5.4, 5.06 5.51 C4.92 5.63, 4.78 5.73, 4.62 5.82 C4.47 5.91, 4.3 5.99, 4.13 6.05 C3.97 6.11, 3.79 6.16, 3.62 6.19 C3.44 6.23, 3.26 6.24, 3.08 6.24 C2.9 6.24, 2.72 6.23, 2.55 6.19 C2.37 6.16, 2.19 6.11, 2.03 6.05 C1.86 5.99, 1.69 5.91, 1.54 5.82 C1.39 5.73, 1.24 5.63, 1.1 5.51 C0.96 5.4, 0.84 5.26, 0.72 5.13 C0.61 4.99, 0.5 4.84, 0.41 4.68 C0.32 4.52, 0.25 4.36, 0.19 4.19 C0.12 4.02, 0.08 3.84, 0.05 3.66 C0.02 3.48, 0 3.3, 0 3.12 C0 2.94, 0.02 2.76, 0.05 2.58 C0.08 2.4, 0.12 2.22, 0.19 2.05 C0.25 1.88, 0.32 1.72, 0.41 1.56 C0.5 1.4, 0.61 1.25, 0.72 1.11 C0.84 0.98, 0.96 0.85, 1.1 0.73 C1.24 0.61, 1.39 0.51, 1.54 0.42 C1.69 0.33, 1.86 0.25, 2.03 0.19 C2.19 0.13, 2.37 0.08, 2.55 0.05 C2.72 0.02, 2.9 0, 3.08 0 C3.26 0, 3.44 0.02, 3.62 0.05 C3.79 0.08, 3.97 0.13, 4.13 0.19 C4.3 0.25, 4.47 0.33, 4.62 0.42 C4.78 0.51, 4.92 0.61, 5.06 0.73 C5.2 0.85, 5.33 0.98, 5.44 1.11 C5.56 1.25, 5.66 1.4, 5.75 1.56 C5.84 1.72, 5.91 1.88, 5.98 2.05 C6.04 2.22, 6.08 2.4, 6.11 2.58 C6.15 2.76, 6.15 3.03, 6.16 3.12 C6.17 3.21, 6.17 3.03, 6.16 3.12" stroke="#E1E1E1" stroke-width="2" fill="none"></path></g><g stroke-linecap="round"><g transform="translate(171.32918032013 85.11793886884797) rotate(0 -80.60187401271784 -16.580294849687967)"><path d="M0 0 C-0.42 -1.38, -0.66 -5.44, -2.53 -8.27 C-4.4 -11.09, -7.66 -14.34, -11.21 -16.96 C-14.77 -19.58, -18.81 -21.83, -23.85 -23.98 C-28.88 -26.12, -34.34 -28.3, -41.42 -29.83 C-48.51 -31.36, -56.09 -32.78, -66.37 -33.16 C-76.66 -33.54, -91.21 -33.77, -103.14 -32.13 C-115.06 -30.49, -128.92 -27, -137.94 -23.34 C-146.96 -19.69, -153.38 -13.92, -157.26 -10.2 C-161.13 -6.47, -160.55 -2.52, -161.2 -0.99" stroke="#E1E1E1" stroke-width="2.5" fill="none" stroke-dasharray="1.5 8"></path></g></g><mask></mask></svg>