<svg version="1.1" xmlns="http://www.w3.org/2000/svg" viewBox="0 0 184.5315968258302 185.54672960586305" width="184.5315968258302" height="185.54672960586305" class="excalidraw-svg"><!-- svg-source:excalidraw --><metadata></metadata><defs><style class="style-fonts">
      </style></defs><rect x="0" y="0" width="184.5315968258302" height="185.54672960586305" fill="#000000"></rect><g stroke-linecap="round" transform="translate(16.353950026812527 16.703955186424537) rotate(0 75.25554579506866 75.25066145669751)"><path d="M150.51 75.25 C150.51 78.06, 150.35 80.89, 150.04 83.68 C149.72 86.47, 149.25 89.26, 148.62 92 C148 94.73, 147.22 97.45, 146.29 100.1 C145.36 102.76, 144.28 105.37, 143.06 107.9 C141.84 110.43, 140.47 112.91, 138.98 115.29 C137.48 117.66, 135.84 119.97, 134.09 122.17 C132.34 124.36, 130.46 126.48, 128.47 128.46 C126.48 130.45, 124.37 132.33, 122.18 134.08 C119.98 135.84, 117.67 137.47, 115.29 138.97 C112.92 140.46, 110.44 141.83, 107.91 143.05 C105.38 144.27, 102.76 145.35, 100.11 146.28 C97.46 147.21, 94.74 147.99, 92 148.61 C89.26 149.24, 86.47 149.71, 83.68 150.03 C80.89 150.34, 78.06 150.5, 75.26 150.5 C72.45 150.5, 69.62 150.34, 66.83 150.03 C64.04 149.71, 61.25 149.24, 58.51 148.61 C55.77 147.99, 53.05 147.21, 50.4 146.28 C47.75 145.35, 45.13 144.27, 42.6 143.05 C40.07 141.83, 37.6 140.46, 35.22 138.97 C32.84 137.47, 30.53 135.84, 28.33 134.08 C26.14 132.33, 24.03 130.45, 22.04 128.46 C20.06 126.48, 18.17 124.36, 16.42 122.17 C14.67 119.97, 13.03 117.66, 11.53 115.29 C10.04 112.91, 8.67 110.43, 7.45 107.9 C6.23 105.37, 5.15 102.76, 4.22 100.1 C3.3 97.45, 2.51 94.73, 1.89 92 C1.26 89.26, 0.79 86.47, 0.47 83.68 C0.16 80.89, 0 78.06, 0 75.25 C0 72.44, 0.16 69.62, 0.47 66.83 C0.79 64.03, 1.26 61.24, 1.89 58.51 C2.51 55.77, 3.3 53.05, 4.22 50.4 C5.15 47.75, 6.23 45.13, 7.45 42.6 C8.67 40.07, 10.04 37.59, 11.53 35.21 C13.03 32.84, 14.67 30.53, 16.42 28.33 C18.17 26.14, 20.06 24.03, 22.04 22.04 C24.03 20.05, 26.14 18.17, 28.33 16.42 C30.53 14.67, 32.84 13.03, 35.22 11.53 C37.6 10.04, 40.07 8.67, 42.6 7.45 C45.13 6.23, 47.75 5.15, 50.4 4.22 C53.05 3.3, 55.77 2.51, 58.51 1.89 C61.25 1.26, 64.04 0.79, 66.83 0.47 C69.62 0.16, 72.45 0, 75.26 0 C78.06 0, 80.89 0.16, 83.68 0.47 C86.47 0.79, 89.26 1.26, 92 1.89 C94.74 2.51, 97.46 3.3, 100.11 4.22 C102.76 5.15, 105.38 6.23, 107.91 7.45 C110.44 8.67, 112.92 10.04, 115.29 11.53 C117.67 13.03, 119.98 14.67, 122.18 16.42 C124.37 18.17, 126.48 20.05, 128.47 22.04 C130.46 24.03, 132.34 26.14, 134.09 28.33 C135.84 30.53, 137.48 32.84, 138.98 35.21 C140.47 37.59, 141.84 40.07, 143.06 42.6 C144.28 45.13, 145.36 47.75, 146.29 50.4 C147.22 53.05, 148 55.77, 148.62 58.51 C149.25 61.24, 149.72 64.03, 150.04 66.83 C150.35 69.62, 150.43 73.85, 150.51 75.25 C150.59 76.65, 150.59 73.85, 150.51 75.25" stroke="#E1E1E1" stroke-width="2" fill="none"></path></g><g stroke-linecap="round" transform="translate(10 10) rotate(0 82.2657984129151 82.77336480293152)"><path d="M164.53 82.77 C164.53 85.66, 164.38 88.56, 164.08 91.43 C163.78 94.29, 163.33 97.16, 162.73 99.98 C162.14 102.8, 161.39 105.61, 160.51 108.35 C159.62 111.09, 158.59 113.81, 157.42 116.44 C156.25 119.08, 154.94 121.66, 153.51 124.16 C152.08 126.66, 150.51 129.09, 148.82 131.43 C147.14 133.76, 145.32 136.02, 143.4 138.16 C141.48 140.3, 139.44 142.36, 137.31 144.29 C135.18 146.22, 132.94 148.04, 130.62 149.74 C128.3 151.43, 125.88 153.02, 123.4 154.46 C120.92 155.9, 118.34 157.22, 115.73 158.39 C113.11 159.56, 110.41 160.6, 107.69 161.5 C104.96 162.39, 102.17 163.14, 99.37 163.74 C96.57 164.34, 93.72 164.79, 90.86 165.09 C88.01 165.39, 85.13 165.55, 82.27 165.55 C79.4 165.55, 76.52 165.39, 73.67 165.09 C70.82 164.79, 67.97 164.34, 65.16 163.74 C62.36 163.14, 59.57 162.39, 56.84 161.5 C54.12 160.6, 51.42 159.56, 48.81 158.39 C46.19 157.22, 43.62 155.9, 41.13 154.46 C38.65 153.02, 36.23 151.43, 33.91 149.74 C31.59 148.04, 29.35 146.22, 27.22 144.29 C25.09 142.36, 23.05 140.3, 21.13 138.16 C19.21 136.02, 17.4 133.76, 15.71 131.43 C14.03 129.09, 12.45 126.66, 11.02 124.16 C9.59 121.66, 8.28 119.08, 7.11 116.44 C5.95 113.81, 4.91 111.09, 4.03 108.35 C3.14 105.61, 2.39 102.8, 1.8 99.98 C1.2 97.16, 0.75 94.29, 0.45 91.43 C0.15 88.56, 0 85.66, 0 82.77 C0 79.89, 0.15 76.99, 0.45 74.12 C0.75 71.25, 1.2 68.38, 1.8 65.56 C2.39 62.74, 3.14 59.94, 4.03 57.19 C4.91 54.45, 5.95 51.74, 7.11 49.11 C8.28 46.47, 9.59 43.88, 11.02 41.39 C12.45 38.89, 14.03 36.45, 15.71 34.12 C17.4 31.79, 19.21 29.53, 21.13 27.39 C23.05 25.24, 25.09 23.19, 27.22 21.26 C29.35 19.33, 31.59 17.5, 33.91 15.81 C36.23 14.11, 38.65 12.53, 41.13 11.09 C43.62 9.65, 46.19 8.33, 48.81 7.16 C51.42 5.98, 54.12 4.94, 56.84 4.05 C59.57 3.16, 62.36 2.41, 65.16 1.81 C67.97 1.21, 70.82 0.75, 73.67 0.45 C76.52 0.15, 79.4 0, 82.27 0 C85.13 0, 88.01 0.15, 90.86 0.45 C93.72 0.75, 96.57 1.21, 99.37 1.81 C102.17 2.41, 104.96 3.16, 107.69 4.05 C110.41 4.94, 113.11 5.98, 115.73 7.16 C118.34 8.33, 120.92 9.65, 123.4 11.09 C125.88 12.53, 128.3 14.11, 130.62 15.81 C132.94 17.5, 135.18 19.33, 137.31 21.26 C139.44 23.19, 141.48 25.24, 143.4 27.39 C145.32 29.53, 147.14 31.79, 148.82 34.12 C150.51 36.45, 152.08 38.89, 153.51 41.39 C154.94 43.88, 156.25 46.47, 157.42 49.11 C158.59 51.74, 159.62 54.45, 160.51 57.19 C161.39 59.94, 162.14 62.74, 162.73 65.56 C163.33 68.38, 163.78 71.25, 164.08 74.12 C164.38 76.99, 164.46 81.33, 164.53 82.77 C164.61 84.22, 164.61 81.33, 164.53 82.77" stroke="#E1E1E1" stroke-width="2" fill="none"></path></g><g stroke-linecap="round"><g transform="translate(59.91661778494199 73.81503236925982) rotate(0 -0.8660592452997378 -3.854922577548905)"><path d="M0 0 C-1.94 -0.41, -8.38 -2, -11.62 -2.47 C-14.86 -2.93, -17.9 -2.27, -19.44 -2.8 C-20.98 -3.33, -20.97 -4.61, -20.85 -5.65 C-20.74 -6.68, -20.17 -8.49, -18.76 -9.03 C-17.35 -9.58, -15.51 -9.17, -12.4 -8.92 C-9.28 -8.67, -4.09 -8.06, -0.06 -7.53 C3.97 -7, 8.61 -6.38, 11.78 -5.76 C14.95 -5.14, 17.76 -4.75, 18.99 -3.83 C20.21 -2.9, 19.64 -1.05, 19.12 -0.19 C18.6 0.67, 17.17 1.16, 15.89 1.32 C14.61 1.48, 12.18 0.85, 11.44 0.76 M0 0 C-1.94 -0.41, -8.38 -2, -11.62 -2.47 C-14.86 -2.93, -17.9 -2.27, -19.44 -2.8 C-20.98 -3.33, -20.97 -4.61, -20.85 -5.65 C-20.74 -6.68, -20.17 -8.49, -18.76 -9.03 C-17.35 -9.58, -15.51 -9.17, -12.4 -8.92 C-9.28 -8.67, -4.09 -8.06, -0.06 -7.53 C3.97 -7, 8.61 -6.38, 11.78 -5.76 C14.95 -5.14, 17.76 -4.75, 18.99 -3.83 C20.21 -2.9, 19.64 -1.05, 19.12 -0.19 C18.6 0.67, 17.17 1.16, 15.89 1.32 C14.61 1.48, 12.18 0.85, 11.44 0.76" stroke="#E1E1E1" stroke-width="2" fill="none"></path></g></g><mask></mask><g stroke-linecap="round"><g transform="translate(71.35273725447769 74.57485443915903) rotate(0 -6.6205369975978385 13.368644802167182)"><path d="M0 0 C0.55 0.7, 2.57 2.37, 3.31 4.19 C4.06 6.01, 4.51 8.44, 4.46 10.94 C4.41 13.44, 3.85 16.81, 3 19.19 C2.16 21.58, 0.81 23.86, -0.6 25.25 C-2.01 26.64, -3.77 27.26, -5.46 27.55 C-7.15 27.84, -9.07 27.9, -10.75 26.98 C-12.43 26.06, -14.39 24.24, -15.55 22.05 C-16.71 19.87, -17.38 16.37, -17.7 13.86 C-18.02 11.35, -18 9.08, -17.48 7.02 C-16.96 4.95, -15.59 2.76, -14.58 1.45 C-13.57 0.15, -11.95 -0.44, -11.43 -0.81 M0 0 C0.55 0.7, 2.57 2.37, 3.31 4.19 C4.06 6.01, 4.51 8.44, 4.46 10.94 C4.41 13.44, 3.85 16.81, 3 19.19 C2.16 21.58, 0.81 23.86, -0.6 25.25 C-2.01 26.64, -3.77 27.26, -5.46 27.55 C-7.15 27.84, -9.07 27.9, -10.75 26.98 C-12.43 26.06, -14.39 24.24, -15.55 22.05 C-16.71 19.87, -17.38 16.37, -17.7 13.86 C-18.02 11.35, -18 9.08, -17.48 7.02 C-16.96 4.95, -15.59 2.76, -14.58 1.45 C-13.57 0.15, -11.95 -0.44, -11.43 -0.81" stroke="#E1E1E1" stroke-width="2" fill="none"></path></g></g><mask></mask><g stroke-linecap="round" transform="translate(58.55385125911562 77.51846461353034) rotate(0 3.0466149813507 3.2636146479386525)"><path d="M6.09 3.26 C6.09 3.45, 6.08 3.64, 6.05 3.83 C6.02 4.02, 5.97 4.2, 5.91 4.38 C5.85 4.56, 5.77 4.73, 5.69 4.9 C5.6 5.06, 5.49 5.22, 5.38 5.36 C5.27 5.51, 5.14 5.64, 5 5.76 C4.87 5.89, 4.72 6, 4.57 6.09 C4.42 6.18, 4.25 6.27, 4.09 6.33 C3.92 6.4, 3.75 6.44, 3.58 6.48 C3.4 6.51, 3.22 6.53, 3.05 6.53 C2.87 6.53, 2.69 6.51, 2.52 6.48 C2.34 6.44, 2.17 6.4, 2 6.33 C1.84 6.27, 1.68 6.18, 1.52 6.09 C1.37 6, 1.22 5.89, 1.09 5.76 C0.95 5.64, 0.83 5.51, 0.71 5.36 C0.6 5.22, 0.5 5.06, 0.41 4.9 C0.32 4.73, 0.24 4.56, 0.18 4.38 C0.12 4.2, 0.08 4.02, 0.05 3.83 C0.02 3.64, 0 3.45, 0 3.26 C0 3.07, 0.02 2.88, 0.05 2.7 C0.08 2.51, 0.12 2.32, 0.18 2.15 C0.24 1.97, 0.32 1.8, 0.41 1.63 C0.5 1.47, 0.6 1.31, 0.71 1.17 C0.83 1.02, 0.95 0.88, 1.09 0.76 C1.22 0.64, 1.37 0.53, 1.52 0.44 C1.68 0.34, 1.84 0.26, 2 0.2 C2.17 0.13, 2.34 0.08, 2.52 0.05 C2.69 0.02, 2.87 0, 3.05 0 C3.22 0, 3.4 0.02, 3.58 0.05 C3.75 0.08, 3.92 0.13, 4.09 0.2 C4.25 0.26, 4.42 0.34, 4.57 0.44 C4.72 0.53, 4.87 0.64, 5 0.76 C5.14 0.88, 5.27 1.02, 5.38 1.17 C5.49 1.31, 5.6 1.47, 5.69 1.63 C5.77 1.8, 5.85 1.97, 5.91 2.15 C5.97 2.32, 6.02 2.51, 6.05 2.7 C6.08 2.88, 6.09 3.17, 6.09 3.26 C6.1 3.36, 6.1 3.17, 6.09 3.26" stroke="#E1E1E1" stroke-width="2" fill="none"></path></g><g stroke-linecap="round"><g transform="translate(116.97093727301217 73.39094563257186) rotate(0 9.105797330029361 -3.9424120161134795)"><path d="M0 0 C-0.87 0.22, -3.7 1.16, -5.24 1.33 C-6.78 1.5, -8.25 1.56, -9.22 1.04 C-10.19 0.51, -11.02 -1.07, -11.08 -1.81 C-11.13 -2.56, -11.04 -2.91, -9.55 -3.44 C-8.06 -3.98, -5.45 -4.42, -2.13 -5.04 C1.19 -5.66, 6.22 -6.47, 10.36 -7.17 C14.49 -7.87, 19.86 -8.88, 22.66 -9.22 C25.45 -9.56, 26.02 -9.78, 27.13 -9.22 C28.23 -8.66, 29.39 -6.82, 29.29 -5.85 C29.19 -4.87, 28.76 -4.02, 26.54 -3.37 C24.32 -2.73, 18.54 -2.33, 15.98 -1.99 C13.42 -1.66, 11.97 -1.47, 11.17 -1.37 M0 0 C-0.87 0.22, -3.7 1.16, -5.24 1.33 C-6.78 1.5, -8.25 1.56, -9.22 1.04 C-10.19 0.51, -11.02 -1.07, -11.08 -1.81 C-11.13 -2.56, -11.04 -2.91, -9.55 -3.44 C-8.06 -3.98, -5.45 -4.42, -2.13 -5.04 C1.19 -5.66, 6.22 -6.47, 10.36 -7.17 C14.49 -7.87, 19.86 -8.88, 22.66 -9.22 C25.45 -9.56, 26.02 -9.78, 27.13 -9.22 C28.23 -8.66, 29.39 -6.82, 29.29 -5.85 C29.19 -4.87, 28.76 -4.02, 26.54 -3.37 C24.32 -2.73, 18.54 -2.33, 15.98 -1.99 C13.42 -1.66, 11.97 -1.47, 11.17 -1.37" stroke="#E1E1E1" stroke-width="2" fill="none"></path></g></g><mask></mask><g stroke-linecap="round"><g transform="translate(128.13036600580745 72.02042142254322) rotate(0 -4.943799752592412 15.185451345367653)"><path d="M0 0 C0.83 0.9, 3.77 3.25, 4.97 5.41 C6.16 7.58, 7.2 10.1, 7.17 12.97 C7.14 15.84, 6.18 19.92, 4.81 22.64 C3.44 25.37, 0.98 28.04, -1.06 29.33 C-3.1 30.62, -5.57 30.72, -7.4 30.37 C-9.24 30.02, -10.66 28.76, -12.07 27.24 C-13.47 25.73, -15.02 23.59, -15.85 21.28 C-16.68 18.96, -17.07 15.74, -17.06 13.36 C-17.05 10.98, -16.79 9.03, -15.79 7 C-14.79 4.98, -11.85 2.17, -11.06 1.2 M0 0 C0.83 0.9, 3.77 3.25, 4.97 5.41 C6.16 7.58, 7.2 10.1, 7.17 12.97 C7.14 15.84, 6.18 19.92, 4.81 22.64 C3.44 25.37, 0.98 28.04, -1.06 29.33 C-3.1 30.62, -5.57 30.72, -7.4 30.37 C-9.24 30.02, -10.66 28.76, -12.07 27.24 C-13.47 25.73, -15.02 23.59, -15.85 21.28 C-16.68 18.96, -17.07 15.74, -17.06 13.36 C-17.05 10.98, -16.79 9.03, -15.79 7 C-14.79 4.98, -11.85 2.17, -11.06 1.2" stroke="#E1E1E1" stroke-width="2" fill="none"></path></g></g><mask></mask><g stroke-linecap="round" transform="translate(116.0658741154457 78.08003475367786) rotate(0 3.1073835076445278 2.939084858582774)"><path d="M6.21 2.94 C6.21 3.11, 6.2 3.28, 6.17 3.45 C6.14 3.62, 6.09 3.78, 6.03 3.94 C5.97 4.1, 5.89 4.26, 5.8 4.41 C5.71 4.56, 5.6 4.7, 5.49 4.83 C5.37 4.96, 5.24 5.08, 5.1 5.19 C4.97 5.3, 4.82 5.4, 4.66 5.48 C4.51 5.57, 4.34 5.64, 4.17 5.7 C4 5.76, 3.82 5.8, 3.65 5.83 C3.47 5.86, 3.29 5.88, 3.11 5.88 C2.93 5.88, 2.74 5.86, 2.57 5.83 C2.39 5.8, 2.21 5.76, 2.04 5.7 C1.88 5.64, 1.71 5.57, 1.55 5.48 C1.4 5.4, 1.25 5.3, 1.11 5.19 C0.97 5.08, 0.84 4.96, 0.73 4.83 C0.61 4.7, 0.51 4.56, 0.42 4.41 C0.33 4.26, 0.25 4.1, 0.19 3.94 C0.13 3.78, 0.08 3.62, 0.05 3.45 C0.02 3.28, 0 3.11, 0 2.94 C0 2.77, 0.02 2.6, 0.05 2.43 C0.08 2.26, 0.13 2.09, 0.19 1.93 C0.25 1.77, 0.33 1.62, 0.42 1.47 C0.51 1.32, 0.61 1.18, 0.73 1.05 C0.84 0.92, 0.97 0.8, 1.11 0.69 C1.25 0.58, 1.4 0.48, 1.55 0.39 C1.71 0.31, 1.88 0.24, 2.04 0.18 C2.21 0.12, 2.39 0.07, 2.57 0.04 C2.74 0.02, 2.93 0, 3.11 0 C3.29 0, 3.47 0.02, 3.65 0.04 C3.82 0.07, 4 0.12, 4.17 0.18 C4.34 0.24, 4.51 0.31, 4.66 0.39 C4.82 0.48, 4.97 0.58, 5.1 0.69 C5.24 0.8, 5.37 0.92, 5.49 1.05 C5.6 1.18, 5.71 1.32, 5.8 1.47 C5.89 1.62, 5.97 1.77, 6.03 1.93 C6.09 2.09, 6.14 2.26, 6.17 2.43 C6.2 2.6, 6.21 2.85, 6.21 2.94 C6.22 3.02, 6.22 2.85, 6.21 2.94" stroke="#E1E1E1" stroke-width="2" fill="none"></path></g><g stroke-linecap="round"><g transform="translate(77.07058149801014 135.38431205311008) rotate(0 15.73085964341513 -3.7560121039003604)"><path d="M0 0 C1.22 -0.59, 4.74 -2.71, 7.32 -3.52 C9.89 -4.33, 12.5 -4.79, 15.45 -4.86 C18.39 -4.93, 21.97 -4.78, 24.99 -3.94 C28.01 -3.11, 30.86 -1.63, 33.57 0.14 C36.28 1.92, 39.3 5.21, 41.25 6.69 C43.19 8.18, 44.1 9.01, 45.23 9.05 C46.37 9.08, 47.77 8.32, 48.06 6.88 C48.34 5.45, 48.3 3.18, 46.94 0.45 C45.58 -2.27, 43.02 -6.74, 39.9 -9.46 C36.78 -12.19, 32.14 -14.55, 28.23 -15.89 C24.31 -17.23, 20.58 -17.57, 16.41 -17.52 C12.24 -17.46, 7.28 -17.01, 3.21 -15.56 C-0.86 -14.11, -5.01 -11.28, -8.01 -8.81 C-11.01 -6.34, -13.34 -3.36, -14.77 -0.73 C-16.2 1.91, -16.76 5.21, -16.6 7 C-16.44 8.79, -14.82 9.69, -13.81 10.01 C-12.8 10.32, -11.92 9.93, -10.53 8.89 C-9.15 7.84, -7.25 5.23, -5.5 3.74 C-3.74 2.26, -0.92 0.62, 0 0 M0 0 C1.22 -0.59, 4.74 -2.71, 7.32 -3.52 C9.89 -4.33, 12.5 -4.79, 15.45 -4.86 C18.39 -4.93, 21.97 -4.78, 24.99 -3.94 C28.01 -3.11, 30.86 -1.63, 33.57 0.14 C36.28 1.92, 39.3 5.21, 41.25 6.69 C43.19 8.18, 44.1 9.01, 45.23 9.05 C46.37 9.08, 47.77 8.32, 48.06 6.88 C48.34 5.45, 48.3 3.18, 46.94 0.45 C45.58 -2.27, 43.02 -6.74, 39.9 -9.46 C36.78 -12.19, 32.14 -14.55, 28.23 -15.89 C24.31 -17.23, 20.58 -17.57, 16.41 -17.52 C12.24 -17.46, 7.28 -17.01, 3.21 -15.56 C-0.86 -14.11, -5.01 -11.28, -8.01 -8.81 C-11.01 -6.34, -13.34 -3.36, -14.77 -0.73 C-16.2 1.91, -16.76 5.21, -16.6 7 C-16.44 8.79, -14.82 9.69, -13.81 10.01 C-12.8 10.32, -11.92 9.93, -10.53 8.89 C-9.15 7.84, -7.25 5.23, -5.5 3.74 C-3.74 2.26, -0.92 0.62, 0 0" stroke="#E1E1E1" stroke-width="2" fill="none"></path></g></g><mask></mask></svg>