<svg version="1.1" xmlns="http://www.w3.org/2000/svg" viewBox="0 0 177.8857033553668 182.39709429878462" width="177.8857033553668" height="182.39709429878462" class="excalidraw-svg"><!-- svg-source:excalidraw --><metadata></metadata><defs><style class="style-fonts">
      </style></defs><rect x="0" y="0" width="177.8857033553668" height="182.39709429878462" fill="#000000"></rect><g stroke-linecap="round" transform="translate(15.690837846201248 16.776225637269818) rotate(0 72.30676229994953 73.8189681772875)"><path d="M144.61 73.82 C144.61 76.57, 144.46 79.35, 144.16 82.08 C143.86 84.82, 143.4 87.56, 142.8 90.25 C142.2 92.93, 141.45 95.6, 140.56 98.2 C139.66 100.8, 138.62 103.37, 137.45 105.85 C136.28 108.33, 134.97 110.76, 133.53 113.09 C132.09 115.43, 130.52 117.69, 128.84 119.84 C127.16 122, 125.34 124.07, 123.44 126.02 C121.53 127.96, 119.5 129.82, 117.39 131.53 C115.28 133.25, 113.06 134.86, 110.78 136.32 C108.49 137.79, 106.11 139.13, 103.68 140.33 C101.25 141.52, 98.74 142.59, 96.19 143.5 C93.64 144.41, 91.03 145.17, 88.4 145.79 C85.77 146.4, 83.08 146.87, 80.4 147.17 C77.72 147.48, 75.01 147.64, 72.31 147.64 C69.61 147.64, 66.89 147.48, 64.21 147.17 C61.53 146.87, 58.85 146.4, 56.22 145.79 C53.59 145.17, 50.97 144.41, 48.43 143.5 C45.88 142.59, 43.37 141.52, 40.93 140.33 C38.5 139.13, 36.12 137.79, 33.84 136.32 C31.55 134.86, 29.33 133.25, 27.22 131.53 C25.11 129.82, 23.09 127.96, 21.18 126.02 C19.27 124.07, 17.46 122, 15.78 119.84 C14.09 117.69, 12.52 115.43, 11.08 113.09 C9.65 110.76, 8.33 108.33, 7.16 105.85 C5.99 103.37, 4.95 100.8, 4.06 98.2 C3.17 95.6, 2.41 92.93, 1.81 90.25 C1.21 87.56, 0.76 84.82, 0.45 82.08 C0.15 79.35, 0 76.57, 0 73.82 C0 71.06, 0.15 68.29, 0.45 65.55 C0.76 62.82, 1.21 60.08, 1.81 57.39 C2.41 54.71, 3.17 52.04, 4.06 49.44 C4.95 46.84, 5.99 44.27, 7.16 41.79 C8.33 39.31, 9.65 36.88, 11.08 34.54 C12.52 32.21, 14.09 29.95, 15.78 27.79 C17.46 25.64, 19.27 23.57, 21.18 21.62 C23.09 19.67, 25.11 17.82, 27.22 16.1 C29.33 14.39, 31.55 12.78, 33.84 11.31 C36.12 9.85, 38.5 8.51, 40.93 7.31 C43.37 6.12, 45.88 5.05, 48.43 4.14 C50.97 3.23, 53.59 2.46, 56.22 1.85 C58.85 1.24, 61.53 0.77, 64.21 0.46 C66.89 0.16, 69.61 0, 72.31 0 C75.01 0, 77.72 0.16, 80.4 0.46 C83.08 0.77, 85.77 1.24, 88.4 1.85 C91.03 2.46, 93.64 3.23, 96.19 4.14 C98.74 5.05, 101.25 6.12, 103.68 7.31 C106.11 8.51, 108.49 9.85, 110.78 11.31 C113.06 12.78, 115.28 14.39, 117.39 16.1 C119.5 17.82, 121.53 19.67, 123.44 21.62 C125.34 23.57, 127.16 25.64, 128.84 27.79 C130.52 29.95, 132.09 32.21, 133.53 34.54 C134.97 36.88, 136.28 39.31, 137.45 41.79 C138.62 44.27, 139.66 46.84, 140.56 49.44 C141.45 52.04, 142.2 54.71, 142.8 57.39 C143.4 60.08, 143.86 62.82, 144.16 65.55 C144.46 68.29, 144.54 72.44, 144.61 73.82 C144.69 75.2, 144.69 72.44, 144.61 73.82" stroke="#E1E1E1" stroke-width="2" fill="none"></path></g><g stroke-linecap="round" transform="translate(10 10) rotate(0 78.9428516776834 81.19854714939231)"><path d="M157.89 81.2 C157.89 84.03, 157.74 86.87, 157.45 89.69 C157.17 92.5, 156.73 95.31, 156.16 98.08 C155.59 100.85, 154.87 103.6, 154.02 106.29 C153.17 108.98, 152.18 111.64, 151.06 114.22 C149.94 116.81, 148.68 119.35, 147.31 121.8 C145.93 124.25, 144.43 126.64, 142.81 128.93 C141.19 131.21, 139.45 133.43, 137.61 135.53 C135.77 137.63, 133.81 139.65, 131.77 141.54 C129.72 143.43, 127.57 145.23, 125.34 146.89 C123.12 148.55, 120.8 150.1, 118.41 151.52 C116.03 152.93, 113.56 154.23, 111.05 155.38 C108.54 156.53, 105.95 157.55, 103.34 158.42 C100.72 159.3, 98.05 160.03, 95.36 160.62 C92.67 161.21, 89.93 161.66, 87.19 161.95 C84.46 162.25, 81.69 162.4, 78.94 162.4 C76.19 162.4, 73.43 162.25, 70.69 161.95 C67.96 161.66, 65.22 161.21, 62.53 160.62 C59.84 160.03, 57.16 159.3, 54.55 158.42 C51.93 157.55, 49.35 156.53, 46.83 155.38 C44.32 154.23, 41.85 152.93, 39.47 151.52 C37.09 150.1, 34.77 148.55, 32.54 146.89 C30.32 145.23, 28.16 143.43, 26.12 141.54 C24.08 139.65, 22.12 137.63, 20.28 135.53 C18.44 133.43, 16.69 131.21, 15.08 128.93 C13.46 126.64, 11.95 124.25, 10.58 121.8 C9.2 119.35, 7.94 116.81, 6.82 114.22 C5.71 111.64, 4.71 108.98, 3.86 106.29 C3.01 103.6, 2.3 100.85, 1.73 98.08 C1.15 95.31, 0.72 92.5, 0.43 89.69 C0.14 86.87, 0 84.03, 0 81.2 C0 78.37, 0.14 75.52, 0.43 72.71 C0.72 69.9, 1.15 67.08, 1.73 64.32 C2.3 61.55, 3.01 58.8, 3.86 56.11 C4.71 53.42, 5.71 50.76, 6.82 48.17 C7.94 45.59, 9.2 43.05, 10.58 40.6 C11.95 38.15, 13.46 35.76, 15.08 33.47 C16.69 31.18, 18.44 28.97, 20.28 26.87 C22.12 24.76, 24.08 22.75, 26.12 20.86 C28.16 18.96, 30.32 17.17, 32.54 15.51 C34.77 13.84, 37.09 12.29, 39.47 10.88 C41.85 9.46, 44.32 8.17, 46.83 7.02 C49.35 5.87, 51.93 4.85, 54.55 3.97 C57.16 3.1, 59.84 2.36, 62.53 1.77 C65.22 1.19, 67.96 0.74, 70.69 0.44 C73.43 0.15, 76.19 0, 78.94 0 C81.69 0, 84.46 0.15, 87.19 0.44 C89.93 0.74, 92.67 1.19, 95.36 1.77 C98.05 2.36, 100.72 3.1, 103.34 3.97 C105.95 4.85, 108.54 5.87, 111.05 7.02 C113.56 8.17, 116.03 9.46, 118.41 10.88 C120.8 12.29, 123.12 13.84, 125.34 15.51 C127.57 17.17, 129.72 18.96, 131.77 20.86 C133.81 22.75, 135.77 24.76, 137.61 26.87 C139.45 28.97, 141.19 31.18, 142.81 33.47 C144.43 35.76, 145.93 38.15, 147.31 40.6 C148.68 43.05, 149.94 45.59, 151.06 48.17 C152.18 50.76, 153.17 53.42, 154.02 56.11 C154.87 58.8, 155.59 61.55, 156.16 64.32 C156.73 67.08, 157.17 69.9, 157.45 72.71 C157.74 75.52, 157.81 79.78, 157.89 81.2 C157.96 82.61, 157.96 79.78, 157.89 81.2" stroke="#E1E1E1" stroke-width="2" fill="none"></path></g><g stroke-linecap="round"><g transform="translate(40.407684931808944 79.47144551998008) rotate(0 16.82714861678494 0.24830010997584395)"><path d="M0 0 C2.64 0.81, 10.84 3.7, 15.82 4.87 C20.8 6.05, 26.08 7.01, 29.87 7.04 C33.65 7.07, 36.94 6.11, 38.53 5.06 C40.12 4, 40.13 1.71, 39.41 0.69 C38.68 -0.34, 38.01 -0.48, 34.17 -1.09 C30.33 -1.7, 22.26 -2.07, 16.37 -2.97 C10.48 -3.88, 2.52 -5.96, -1.16 -6.54 C-4.85 -7.13, -5 -7, -5.75 -6.47 C-6.51 -5.94, -6.65 -4.45, -5.69 -3.37 C-4.73 -2.29, -0.95 -0.56, 0 0 M0 0 C2.64 0.81, 10.84 3.7, 15.82 4.87 C20.8 6.05, 26.08 7.01, 29.87 7.04 C33.65 7.07, 36.94 6.11, 38.53 5.06 C40.12 4, 40.13 1.71, 39.41 0.69 C38.68 -0.34, 38.01 -0.48, 34.17 -1.09 C30.33 -1.7, 22.26 -2.07, 16.37 -2.97 C10.48 -3.88, 2.52 -5.96, -1.16 -6.54 C-4.85 -7.13, -5 -7, -5.75 -6.47 C-6.51 -5.94, -6.65 -4.45, -5.69 -3.37 C-4.73 -2.29, -0.95 -0.56, 0 0" stroke="#E1E1E1" stroke-width="2" fill="none"></path></g></g><mask></mask><g stroke-linecap="round"><g transform="translate(41.96009574870368 80.58772575577677) rotate(0 17.02166820725094 12.337144149647656)"><path d="M0 0 C-0.12 0.97, -0.92 3.57, -0.73 5.83 C-0.53 8.09, -0.11 11, 1.17 13.55 C2.45 16.1, 4.54 19.28, 6.94 21.13 C9.33 22.98, 12.4 24.43, 15.56 24.67 C18.71 24.92, 23.06 23.98, 25.87 22.6 C28.68 21.23, 30.93 18.43, 32.4 16.41 C33.87 14.38, 34.29 12.33, 34.69 10.45 C35.08 8.57, 34.76 6.02, 34.77 5.13 M0 0 C-0.12 0.97, -0.92 3.57, -0.73 5.83 C-0.53 8.09, -0.11 11, 1.17 13.55 C2.45 16.1, 4.54 19.28, 6.94 21.13 C9.33 22.98, 12.4 24.43, 15.56 24.67 C18.71 24.92, 23.06 23.98, 25.87 22.6 C28.68 21.23, 30.93 18.43, 32.4 16.41 C33.87 14.38, 34.29 12.33, 34.69 10.45 C35.08 8.57, 34.76 6.02, 34.77 5.13" stroke="#E1E1E1" stroke-width="2" fill="none"></path></g></g><mask></mask><g stroke-linecap="round"><g transform="translate(80.47390440186518 81.73504350531948) rotate(0 1.2586246953944737 -6.5406208926269755)"><path d="M0 0 C0.21 -0.47, 0.83 -0.65, 1.25 -2.83 C1.67 -5.01, 2.31 -11.37, 2.52 -13.08 M0 0 C0.21 -0.47, 0.83 -0.65, 1.25 -2.83 C1.67 -5.01, 2.31 -11.37, 2.52 -13.08" stroke="#E1E1E1" stroke-width="1" fill="none"></path></g></g><mask></mask><g stroke-linecap="round"><g transform="translate(111.04478518353517 85.12080815147692) rotate(0 8.770238151709208 -6.18074627202634)"><path d="M0 0 C2.01 -0.17, 8.24 -0.31, 12.05 -1 C15.86 -1.69, 19.78 -2.96, 22.87 -4.14 C25.95 -5.32, 29.19 -6.9, 30.57 -8.1 C31.96 -9.3, 31.5 -10.63, 31.15 -11.34 C30.81 -12.05, 31.21 -12.64, 28.51 -12.36 C25.8 -12.09, 19.05 -10.43, 14.91 -9.7 C10.77 -8.98, 7.66 -8.51, 3.66 -8.02 C-0.34 -7.52, -6.22 -7.13, -9.1 -6.74 C-11.97 -6.36, -13 -6.4, -13.61 -5.7 C-14.23 -4.99, -13.96 -3.45, -12.78 -2.52 C-11.61 -1.58, -8.7 -0.48, -6.57 -0.06 C-4.44 0.36, -1.09 -0.01, 0 0 M0 0 C2.01 -0.17, 8.24 -0.31, 12.05 -1 C15.86 -1.69, 19.78 -2.96, 22.87 -4.14 C25.95 -5.32, 29.19 -6.9, 30.57 -8.1 C31.96 -9.3, 31.5 -10.63, 31.15 -11.34 C30.81 -12.05, 31.21 -12.64, 28.51 -12.36 C25.8 -12.09, 19.05 -10.43, 14.91 -9.7 C10.77 -8.98, 7.66 -8.51, 3.66 -8.02 C-0.34 -7.52, -6.22 -7.13, -9.1 -6.74 C-11.97 -6.36, -13 -6.4, -13.61 -5.7 C-14.23 -4.99, -13.96 -3.45, -12.78 -2.52 C-11.61 -1.58, -8.7 -0.48, -6.57 -0.06 C-4.44 0.36, -1.09 -0.01, 0 0" stroke="#E1E1E1" stroke-width="2" fill="none"></path></g></g><mask></mask><g stroke-linecap="round"><g transform="translate(100.38072356371322 83.9547608677758) rotate(0 19.12767054089261 8.255609736614986)"><path d="M0 0 C0 0.8, -0.52 2.45, 0 4.81 C0.52 7.17, 0.95 11.53, 3.11 14.16 C5.27 16.8, 8.78 19.87, 12.96 20.63 C17.14 21.39, 24.44 20.28, 28.18 18.75 C31.92 17.21, 33.73 14.21, 35.4 11.41 C37.08 8.61, 38.03 4.51, 38.26 1.92 C38.48 -0.67, 37 -3.11, 36.75 -4.12 M0 0 C0 0.8, -0.52 2.45, 0 4.81 C0.52 7.17, 0.95 11.53, 3.11 14.16 C5.27 16.8, 8.78 19.87, 12.96 20.63 C17.14 21.39, 24.44 20.28, 28.18 18.75 C31.92 17.21, 33.73 14.21, 35.4 11.41 C37.08 8.61, 38.03 4.51, 38.26 1.92 C38.48 -0.67, 37 -3.11, 36.75 -4.12" stroke="#E1E1E1" stroke-width="2" fill="none"></path></g></g><mask></mask><g stroke-linecap="round"><g transform="translate(132.82579276710567 81.66168335582279) rotate(0 -6.610125172185576 7.870167326846001)"><path d="M0 0 C0.23 0.53, 1.17 1.55, 1.41 3.16 C1.64 4.77, 2.07 7.79, 1.39 9.68 C0.72 11.57, -1.03 13.5, -2.66 14.51 C-4.29 15.52, -6.74 15.93, -8.38 15.74 C-10.02 15.55, -11.45 14.46, -12.48 13.36 C-13.51 12.26, -14.2 10.43, -14.56 9.14 C-14.92 7.85, -14.71 6.61, -14.63 5.63 C-14.54 4.64, -14.16 3.62, -14.07 3.22 M0 0 C0.23 0.53, 1.17 1.55, 1.41 3.16 C1.64 4.77, 2.07 7.79, 1.39 9.68 C0.72 11.57, -1.03 13.5, -2.66 14.51 C-4.29 15.52, -6.74 15.93, -8.38 15.74 C-10.02 15.55, -11.45 14.46, -12.48 13.36 C-13.51 12.26, -14.2 10.43, -14.56 9.14 C-14.92 7.85, -14.71 6.61, -14.63 5.63 C-14.54 4.64, -14.16 3.62, -14.07 3.22" stroke="#E1E1E1" stroke-width="2" fill="none"></path></g></g><mask></mask><g stroke-linecap="round"><g transform="translate(57.59013511125613 84.80893444135927) rotate(0 8.175622944921628 6.265343994570344)"><path d="M0 0 C-0.07 0.66, -0.66 2.33, -0.44 3.98 C-0.22 5.62, 0.24 8.44, 1.33 9.86 C2.41 11.29, 4.4 12.11, 6.09 12.53 C7.78 12.96, 9.94 13.01, 11.46 12.42 C12.97 11.82, 14.29 10.16, 15.18 8.95 C16.07 7.73, 16.52 6.33, 16.79 5.12 C17.05 3.91, 16.77 2.26, 16.76 1.69 M0 0 C-0.07 0.66, -0.66 2.33, -0.44 3.98 C-0.22 5.62, 0.24 8.44, 1.33 9.86 C2.41 11.29, 4.4 12.11, 6.09 12.53 C7.78 12.96, 9.94 13.01, 11.46 12.42 C12.97 11.82, 14.29 10.16, 15.18 8.95 C16.07 7.73, 16.52 6.33, 16.79 5.12 C17.05 3.91, 16.77 2.26, 16.76 1.69" stroke="#E1E1E1" stroke-width="2" fill="none"></path></g></g><mask></mask><g stroke-linecap="round"><g transform="translate(97.44614091377662 81.35826903837278) rotate(0 -1.2008130121104728 -6.526266233797571)"><path d="M0 0 C-0.27 -0.33, -1.22 0.19, -1.62 -1.98 C-2.02 -4.16, -2.27 -11.21, -2.4 -13.05 M0 0 C-0.27 -0.33, -1.22 0.19, -1.62 -1.98 C-2.02 -4.16, -2.27 -11.21, -2.4 -13.05" stroke="#E1E1E1" stroke-width="1" fill="none"></path></g></g><mask></mask><g stroke-linecap="round"><g transform="translate(68.1732695444407 127.27986975280146) rotate(0 20.187855056117 1.6197510435153788)"><path d="M0 0 C1.1 -0.67, 3.76 -3, 6.62 -4.01 C9.47 -5.02, 13.64 -5.94, 17.15 -6.05 C20.66 -6.17, 24.77 -5.45, 27.67 -4.71 C30.57 -3.97, 32.38 -3.02, 34.55 -1.61 C36.71 -0.19, 39.3 2.12, 40.64 3.78 C41.98 5.44, 42.73 7.41, 42.61 8.33 C42.48 9.25, 41.84 10.05, 39.9 9.29 C37.95 8.54, 34.18 5.16, 30.94 3.8 C27.7 2.44, 23.98 1.42, 20.45 1.12 C16.93 0.81, 12.88 1.16, 9.79 1.97 C6.71 2.77, 3.78 5.12, 1.95 5.94 C0.12 6.76, -0.5 7.29, -1.2 6.89 C-1.89 6.49, -2.43 4.7, -2.23 3.55 C-2.03 2.4, -0.37 0.59, 0 0 M0 0 C1.1 -0.67, 3.76 -3, 6.62 -4.01 C9.47 -5.02, 13.64 -5.94, 17.15 -6.05 C20.66 -6.17, 24.77 -5.45, 27.67 -4.71 C30.57 -3.97, 32.38 -3.02, 34.55 -1.61 C36.71 -0.19, 39.3 2.12, 40.64 3.78 C41.98 5.44, 42.73 7.41, 42.61 8.33 C42.48 9.25, 41.84 10.05, 39.9 9.29 C37.95 8.54, 34.18 5.16, 30.94 3.8 C27.7 2.44, 23.98 1.42, 20.45 1.12 C16.93 0.81, 12.88 1.16, 9.79 1.97 C6.71 2.77, 3.78 5.12, 1.95 5.94 C0.12 6.76, -0.5 7.29, -1.2 6.89 C-1.89 6.49, -2.43 4.7, -2.23 3.55 C-2.03 2.4, -0.37 0.59, 0 0" stroke="#E1E1E1" stroke-width="2" fill="none"></path></g></g><mask></mask></svg>