<svg version="1.1" xmlns="http://www.w3.org/2000/svg" viewBox="0 0 179.90304194930275 184.4720758766582" width="179.90304194930275" height="184.4720758766582" class="excalidraw-svg"><!-- svg-source:excalidraw --><metadata></metadata><defs><style class="style-fonts">
      </style></defs><rect x="0" y="0" width="179.90304194930275" height="184.4720758766582" fill="#000000"></rect><g stroke-linecap="round" transform="translate(15.763550869451137 16.862806886925682) rotate(0 73.23064089750645 74.76216854504588)"><path d="M146.46 74.76 C146.46 77.55, 146.31 80.36, 146 83.13 C145.69 85.91, 145.23 88.68, 144.63 91.4 C144.02 94.12, 143.25 96.82, 142.35 99.45 C141.45 102.09, 140.4 104.69, 139.21 107.2 C138.02 109.71, 136.69 112.18, 135.24 114.54 C133.78 116.9, 132.19 119.19, 130.48 121.38 C128.78 123.56, 126.95 125.65, 125.01 127.63 C123.08 129.6, 121.03 131.47, 118.89 133.21 C116.75 134.95, 114.51 136.58, 112.19 138.07 C109.88 139.55, 107.47 140.91, 105 142.12 C102.54 143.33, 100 144.41, 97.42 145.33 C94.84 146.25, 92.19 147.03, 89.53 147.65 C86.86 148.27, 84.15 148.74, 81.43 149.05 C78.71 149.37, 75.96 149.52, 73.23 149.52 C70.5 149.52, 67.75 149.37, 65.03 149.05 C62.32 148.74, 59.6 148.27, 56.94 147.65 C54.27 147.03, 51.62 146.25, 49.04 145.33 C46.46 144.41, 43.92 143.33, 41.46 142.12 C38.99 140.91, 36.58 139.55, 34.27 138.07 C31.96 136.58, 29.71 134.95, 27.57 133.21 C25.44 131.47, 23.38 129.6, 21.45 127.63 C19.52 125.65, 17.68 123.56, 15.98 121.38 C14.27 119.19, 12.68 116.9, 11.22 114.54 C9.77 112.18, 8.44 109.71, 7.25 107.2 C6.07 104.69, 5.01 102.09, 4.11 99.45 C3.21 96.82, 2.44 94.12, 1.84 91.4 C1.23 88.68, 0.77 85.91, 0.46 83.13 C0.15 80.36, 0 77.55, 0 74.76 C0 71.97, 0.15 69.16, 0.46 66.39 C0.77 63.62, 1.23 60.85, 1.84 58.13 C2.44 55.41, 3.21 52.7, 4.11 50.07 C5.01 47.44, 6.07 44.84, 7.25 42.32 C8.44 39.81, 9.77 37.35, 11.22 34.99 C12.68 32.62, 14.27 30.33, 15.98 28.15 C17.68 25.97, 19.52 23.87, 21.45 21.9 C23.38 19.92, 25.44 18.05, 27.57 16.31 C29.71 14.57, 31.96 12.94, 34.27 11.46 C36.58 9.97, 38.99 8.61, 41.46 7.4 C43.92 6.19, 46.46 5.12, 49.04 4.2 C51.62 3.27, 54.27 2.5, 56.94 1.87 C59.6 1.25, 62.32 0.78, 65.03 0.47 C67.75 0.16, 70.5 0, 73.23 0 C75.96 0, 78.71 0.16, 81.43 0.47 C84.15 0.78, 86.86 1.25, 89.53 1.87 C92.19 2.5, 94.84 3.27, 97.42 4.2 C100 5.12, 102.54 6.19, 105 7.4 C107.47 8.61, 109.88 9.97, 112.19 11.46 C114.51 12.94, 116.75 14.57, 118.89 16.31 C121.03 18.05, 123.08 19.92, 125.01 21.9 C126.95 23.87, 128.78 25.97, 130.48 28.15 C132.19 30.33, 133.78 32.62, 135.24 34.99 C136.69 37.35, 138.02 39.81, 139.21 42.32 C140.4 44.84, 141.45 47.44, 142.35 50.07 C143.25 52.7, 144.02 55.41, 144.63 58.13 C145.23 60.85, 145.69 63.62, 146 66.39 C146.31 69.16, 146.38 73.37, 146.46 74.76 C146.54 76.16, 146.54 73.37, 146.46 74.76" stroke="#E1E1E1" stroke-width="2" fill="none"></path></g><g stroke-linecap="round" transform="translate(46.18361982528222 67.65277016452274) rotate(0 12.522226983478447 15.557240517532676)"><path d="M25.04 15.56 C25.04 16.46, 24.98 17.37, 24.85 18.26 C24.73 19.15, 24.54 20.03, 24.29 20.88 C24.04 21.72, 23.73 22.56, 23.37 23.34 C23 24.12, 22.58 24.87, 22.11 25.56 C21.65 26.25, 21.13 26.9, 20.57 27.47 C20.02 28.05, 19.41 28.58, 18.78 29.03 C18.16 29.48, 17.49 29.87, 16.81 30.18 C16.12 30.48, 15.41 30.72, 14.7 30.88 C13.98 31.03, 13.25 31.11, 12.52 31.11 C11.8 31.11, 11.06 31.03, 10.35 30.88 C9.63 30.72, 8.92 30.48, 8.24 30.18 C7.56 29.87, 6.89 29.48, 6.26 29.03 C5.63 28.58, 5.03 28.05, 4.47 27.47 C3.92 26.9, 3.4 26.25, 2.93 25.56 C2.46 24.87, 2.04 24.12, 1.68 23.34 C1.32 22.56, 1 21.72, 0.76 20.88 C0.51 20.03, 0.32 19.15, 0.19 18.26 C0.06 17.37, 0 16.46, 0 15.56 C0 14.66, 0.06 13.74, 0.19 12.86 C0.32 11.97, 0.51 11.08, 0.76 10.24 C1 9.39, 1.32 8.56, 1.68 7.78 C2.04 7, 2.46 6.25, 2.93 5.56 C3.4 4.87, 3.92 4.22, 4.47 3.64 C5.03 3.06, 5.63 2.53, 6.26 2.08 C6.89 1.63, 7.56 1.25, 8.24 0.94 C8.92 0.63, 9.63 0.39, 10.35 0.24 C11.06 0.08, 11.8 0, 12.52 0 C13.25 0, 13.98 0.08, 14.7 0.24 C15.41 0.39, 16.12 0.63, 16.81 0.94 C17.49 1.25, 18.16 1.63, 18.78 2.08 C19.41 2.53, 20.02 3.06, 20.57 3.64 C21.13 4.22, 21.65 4.87, 22.11 5.56 C22.58 6.25, 23 7, 23.37 7.78 C23.73 8.56, 24.04 9.39, 24.29 10.24 C24.54 11.08, 24.73 11.97, 24.85 12.86 C24.98 13.74, 25.01 15.11, 25.04 15.56 C25.08 16.01, 25.08 15.11, 25.04 15.56" stroke="#E1E1E1" stroke-width="2" fill="none"></path></g><g stroke-linecap="round" transform="translate(54.93969229576214 71.48162452156066) rotate(28.323074741529595 2.532415782791645 3.6611520385042695)"><path d="M5.06 3.66 C5.06 3.87, 5.05 4.09, 5.03 4.3 C5 4.51, 4.96 4.71, 4.91 4.91 C4.86 5.11, 4.8 5.31, 4.73 5.49 C4.65 5.68, 4.57 5.85, 4.47 6.01 C4.38 6.18, 4.27 6.33, 4.16 6.47 C4.05 6.6, 3.93 6.73, 3.8 6.83 C3.67 6.94, 3.54 7.03, 3.4 7.1 C3.26 7.17, 3.12 7.23, 2.97 7.27 C2.83 7.3, 2.68 7.32, 2.53 7.32 C2.39 7.32, 2.24 7.3, 2.09 7.27 C1.95 7.23, 1.8 7.17, 1.67 7.1 C1.53 7.03, 1.39 6.94, 1.27 6.83 C1.14 6.73, 1.02 6.6, 0.9 6.47 C0.79 6.33, 0.69 6.18, 0.59 6.01 C0.5 5.85, 0.41 5.68, 0.34 5.49 C0.27 5.31, 0.2 5.11, 0.15 4.91 C0.1 4.71, 0.06 4.51, 0.04 4.3 C0.01 4.09, 0 3.87, 0 3.66 C0 3.45, 0.01 3.23, 0.04 3.03 C0.06 2.82, 0.1 2.61, 0.15 2.41 C0.2 2.21, 0.27 2.01, 0.34 1.83 C0.41 1.65, 0.5 1.47, 0.59 1.31 C0.69 1.15, 0.79 0.99, 0.9 0.86 C1.02 0.72, 1.14 0.6, 1.27 0.49 C1.39 0.38, 1.53 0.29, 1.67 0.22 C1.8 0.15, 1.95 0.09, 2.09 0.06 C2.24 0.02, 2.39 0, 2.53 0 C2.68 0, 2.83 0.02, 2.97 0.06 C3.12 0.09, 3.26 0.15, 3.4 0.22 C3.54 0.29, 3.67 0.38, 3.8 0.49 C3.93 0.6, 4.05 0.72, 4.16 0.86 C4.27 0.99, 4.38 1.15, 4.47 1.31 C4.57 1.47, 4.65 1.65, 4.73 1.83 C4.8 2.01, 4.86 2.21, 4.91 2.41 C4.96 2.61, 5 2.82, 5.03 3.03 C5.05 3.23, 5.06 3.56, 5.06 3.66 C5.07 3.77, 5.07 3.56, 5.06 3.66" stroke="#E1E1E1" stroke-width="2" fill="none"></path></g><g stroke-linecap="round"><g transform="translate(46.15119079154829 51.462235374812735) rotate(0 6.685064038068731 2.2173277570066716)"><path d="M0 0 C1.24 -0.58, 5.25 -2.6, 7.43 -3.5 C9.62 -4.41, 11.28 -4.97, 13.08 -5.42 C14.88 -5.87, 16.79 -6.35, 18.24 -6.22 C19.69 -6.09, 21.15 -5.46, 21.78 -4.63 C22.41 -3.8, 22.84 -2.3, 22.01 -1.24 C21.18 -0.18, 19.33 0.67, 16.79 1.73 C14.25 2.79, 9.96 3.88, 6.75 5.12 C3.54 6.35, -0.22 8.22, -2.46 9.14 C-4.71 10.06, -5.67 10.55, -6.7 10.65 C-7.73 10.75, -8.32 10.34, -8.64 9.73 C-8.96 9.12, -9.17 8.04, -8.63 6.99 C-8.1 5.95, -6.84 4.6, -5.41 3.43 C-3.97 2.27, -0.9 0.57, 0 0 M0 0 C1.24 -0.58, 5.25 -2.6, 7.43 -3.5 C9.62 -4.41, 11.28 -4.97, 13.08 -5.42 C14.88 -5.87, 16.79 -6.35, 18.24 -6.22 C19.69 -6.09, 21.15 -5.46, 21.78 -4.63 C22.41 -3.8, 22.84 -2.3, 22.01 -1.24 C21.18 -0.18, 19.33 0.67, 16.79 1.73 C14.25 2.79, 9.96 3.88, 6.75 5.12 C3.54 6.35, -0.22 8.22, -2.46 9.14 C-4.71 10.06, -5.67 10.55, -6.7 10.65 C-7.73 10.75, -8.32 10.34, -8.64 9.73 C-8.96 9.12, -9.17 8.04, -8.63 6.99 C-8.1 5.95, -6.84 4.6, -5.41 3.43 C-3.97 2.27, -0.9 0.57, 0 0" stroke="#E1E1E1" stroke-width="2" fill="none"></path></g></g><mask></mask><g stroke-linecap="round"><g transform="translate(126.75005133935338 50.53139207375534) rotate(0 1.5639596986750348 5.6537871617058215)"><path d="M0 0 C1.22 0.57, 5.05 2.08, 7.3 3.4 C9.56 4.73, 12.05 6.63, 13.51 7.95 C14.97 9.27, 15.71 10.24, 16.04 11.32 C16.37 12.4, 16.03 13.82, 15.49 14.44 C14.94 15.07, 14.46 15.56, 12.76 15.06 C11.06 14.55, 7.93 12.89, 5.3 11.41 C2.67 9.94, -0.31 7.66, -3.05 6.21 C-5.78 4.77, -9.45 3.85, -11.1 2.76 C-12.74 1.67, -12.91 0.67, -12.91 -0.32 C-12.92 -1.3, -11.85 -2.59, -11.13 -3.16 C-10.4 -3.74, -9.66 -3.91, -8.58 -3.75 C-7.49 -3.59, -6.05 -2.83, -4.62 -2.2 C-3.19 -1.58, -0.77 -0.37, 0 0 M0 0 C1.22 0.57, 5.05 2.08, 7.3 3.4 C9.56 4.73, 12.05 6.63, 13.51 7.95 C14.97 9.27, 15.71 10.24, 16.04 11.32 C16.37 12.4, 16.03 13.82, 15.49 14.44 C14.94 15.07, 14.46 15.56, 12.76 15.06 C11.06 14.55, 7.93 12.89, 5.3 11.41 C2.67 9.94, -0.31 7.66, -3.05 6.21 C-5.78 4.77, -9.45 3.85, -11.1 2.76 C-12.74 1.67, -12.91 0.67, -12.91 -0.32 C-12.92 -1.3, -11.85 -2.59, -11.13 -3.16 C-10.4 -3.74, -9.66 -3.91, -8.58 -3.75 C-7.49 -3.59, -6.05 -2.83, -4.62 -2.2 C-3.19 -1.58, -0.77 -0.37, 0 0" stroke="#E1E1E1" stroke-width="2" fill="none"></path></g></g><mask></mask><g stroke-linecap="round"><g transform="translate(107.44699765727455 80.04804363410949) rotate(0 10.362387573220559 10.90207768482722)"><path d="M0 0 C-0.26 0.6, -1.29 1.87, -1.56 3.6 C-1.83 5.33, -1.97 8.2, -1.63 10.36 C-1.29 12.53, -0.52 14.95, 0.47 16.61 C1.46 18.27, 2.99 19.36, 4.31 20.32 C5.63 21.28, 6.82 22.1, 8.41 22.37 C10.01 22.65, 12.13 22.75, 13.88 21.96 C15.63 21.17, 17.61 19.37, 18.92 17.63 C20.22 15.9, 21.13 13.5, 21.71 11.55 C22.28 9.61, 22.55 7.97, 22.35 5.94 C22.16 3.92, 20.86 0.52, 20.56 -0.57 M0 0 C-0.26 0.6, -1.29 1.87, -1.56 3.6 C-1.83 5.33, -1.97 8.2, -1.63 10.36 C-1.29 12.53, -0.52 14.95, 0.47 16.61 C1.46 18.27, 2.99 19.36, 4.31 20.32 C5.63 21.28, 6.82 22.1, 8.41 22.37 C10.01 22.65, 12.13 22.75, 13.88 21.96 C15.63 21.17, 17.61 19.37, 18.92 17.63 C20.22 15.9, 21.13 13.5, 21.71 11.55 C22.28 9.61, 22.55 7.97, 22.35 5.94 C22.16 3.92, 20.86 0.52, 20.56 -0.57" stroke="#E1E1E1" stroke-width="2" fill="none"></path></g></g><mask></mask><g stroke-linecap="round"><g transform="translate(127.8739715498632 79.34353953410755) rotate(0 -8.036301358466346 -2.958569679496634)"><path d="M0 0 C0.94 0.15, 4.19 0.79, 5.63 0.89 C7.08 0.99, 7.93 1.11, 8.67 0.61 C9.41 0.12, 10.11 -1.12, 10.07 -2.09 C10.03 -3.06, 9.21 -4.55, 8.43 -5.2 C7.66 -5.85, 7.52 -5.79, 5.41 -5.98 C3.3 -6.18, -0.56 -6.23, -4.24 -6.36 C-7.91 -6.5, -13.23 -6.8, -16.63 -6.8 C-20.03 -6.81, -23.06 -6.89, -24.64 -6.41 C-26.23 -5.93, -26.03 -4.85, -26.14 -3.93 C-26.26 -3.01, -25.78 -1.63, -25.33 -0.9 C-24.88 -0.17, -24.23 0.21, -23.43 0.46 C-22.63 0.71, -21 0.58, -20.51 0.6 M0 0 C0.94 0.15, 4.19 0.79, 5.63 0.89 C7.08 0.99, 7.93 1.11, 8.67 0.61 C9.41 0.12, 10.11 -1.12, 10.07 -2.09 C10.03 -3.06, 9.21 -4.55, 8.43 -5.2 C7.66 -5.85, 7.52 -5.79, 5.41 -5.98 C3.3 -6.18, -0.56 -6.23, -4.24 -6.36 C-7.91 -6.5, -13.23 -6.8, -16.63 -6.8 C-20.03 -6.81, -23.06 -6.89, -24.64 -6.41 C-26.23 -5.93, -26.03 -4.85, -26.14 -3.93 C-26.26 -3.01, -25.78 -1.63, -25.33 -0.9 C-24.88 -0.17, -24.23 0.21, -23.43 0.46 C-22.63 0.71, -21 0.58, -20.51 0.6" stroke="#E1E1E1" stroke-width="2" fill="none"></path></g></g><mask></mask><g stroke-linecap="round" transform="translate(109.04138685356884 79.68791700510337) rotate(18.944419229537512 2.305939636479877 3.5122532272444573)"><path d="M4.61 3.51 C4.61 3.72, 4.6 3.92, 4.58 4.12 C4.55 4.32, 4.52 4.52, 4.47 4.71 C4.43 4.9, 4.37 5.09, 4.3 5.27 C4.24 5.44, 4.16 5.61, 4.07 5.77 C3.99 5.93, 3.89 6.07, 3.79 6.2 C3.69 6.33, 3.57 6.45, 3.46 6.55 C3.34 6.66, 3.22 6.74, 3.09 6.81 C2.97 6.88, 2.84 6.94, 2.71 6.97 C2.57 7.01, 2.44 7.02, 2.31 7.02 C2.17 7.02, 2.04 7.01, 1.91 6.97 C1.77 6.94, 1.64 6.88, 1.52 6.81 C1.39 6.74, 1.27 6.66, 1.15 6.55 C1.04 6.45, 0.93 6.33, 0.82 6.2 C0.72 6.07, 0.63 5.93, 0.54 5.77 C0.45 5.61, 0.38 5.44, 0.31 5.27 C0.24 5.09, 0.18 4.9, 0.14 4.71 C0.09 4.52, 0.06 4.32, 0.04 4.12 C0.01 3.92, 0 3.72, 0 3.51 C0 3.31, 0.01 3.1, 0.04 2.9 C0.06 2.7, 0.09 2.5, 0.14 2.31 C0.18 2.12, 0.24 1.93, 0.31 1.76 C0.38 1.58, 0.45 1.41, 0.54 1.25 C0.63 1.1, 0.72 0.95, 0.82 0.82 C0.93 0.69, 1.04 0.57, 1.15 0.47 C1.27 0.37, 1.39 0.28, 1.52 0.21 C1.64 0.14, 1.77 0.09, 1.91 0.05 C2.04 0.02, 2.17 0, 2.31 0 C2.44 0, 2.57 0.02, 2.71 0.05 C2.84 0.09, 2.97 0.14, 3.09 0.21 C3.22 0.28, 3.34 0.37, 3.46 0.47 C3.57 0.57, 3.69 0.69, 3.79 0.82 C3.89 0.95, 3.99 1.1, 4.07 1.25 C4.16 1.41, 4.24 1.58, 4.3 1.76 C4.37 1.93, 4.43 2.12, 4.47 2.31 C4.52 2.5, 4.55 2.7, 4.58 2.9 C4.6 3.1, 4.61 3.41, 4.61 3.51 C4.62 3.61, 4.62 3.41, 4.61 3.51" stroke="#E1E1E1" stroke-width="2" fill="none"></path></g><g stroke-linecap="round"><g transform="translate(72.95665996133175 134.94719788469047) rotate(0 16.159052133655877 -4.897502983685229)"><path d="M0 0 C1.34 -0.43, 5 -2.12, 8.06 -2.58 C11.12 -3.05, 15.13 -3.01, 18.38 -2.77 C21.63 -2.52, 24.7 -1.85, 27.56 -1.11 C30.42 -0.38, 33.56 0.99, 35.52 1.65 C37.48 2.3, 38.61 3.09, 39.31 2.84 C40.02 2.58, 39.92 1.12, 39.77 0.11 C39.63 -0.9, 39.57 -1.92, 38.45 -3.23 C37.34 -4.55, 35.6 -6.41, 33.06 -7.77 C30.52 -9.14, 26.55 -10.62, 23.21 -11.43 C19.87 -12.24, 16.07 -12.62, 13.01 -12.63 C9.96 -12.64, 7.33 -12.12, 4.91 -11.48 C2.48 -10.83, 0.23 -9.83, -1.53 -8.77 C-3.28 -7.7, -4.64 -6.39, -5.62 -5.08 C-6.61 -3.77, -7.39 -2.03, -7.45 -0.92 C-7.52 0.19, -6.78 1.25, -6.03 1.58 C-5.27 1.92, -3.94 1.36, -2.94 1.1 C-1.93 0.84, -0.49 0.18, 0 0 M0 0 C1.34 -0.43, 5 -2.12, 8.06 -2.58 C11.12 -3.05, 15.13 -3.01, 18.38 -2.77 C21.63 -2.52, 24.7 -1.85, 27.56 -1.11 C30.42 -0.38, 33.56 0.99, 35.52 1.65 C37.48 2.3, 38.61 3.09, 39.31 2.84 C40.02 2.58, 39.92 1.12, 39.77 0.11 C39.63 -0.9, 39.57 -1.92, 38.45 -3.23 C37.34 -4.55, 35.6 -6.41, 33.06 -7.77 C30.52 -9.14, 26.55 -10.62, 23.21 -11.43 C19.87 -12.24, 16.07 -12.62, 13.01 -12.63 C9.96 -12.64, 7.33 -12.12, 4.91 -11.48 C2.48 -10.83, 0.23 -9.83, -1.53 -8.77 C-3.28 -7.7, -4.64 -6.39, -5.62 -5.08 C-6.61 -3.77, -7.39 -2.03, -7.45 -0.92 C-7.52 0.19, -6.78 1.25, -6.03 1.58 C-5.27 1.92, -3.94 1.36, -2.94 1.1 C-1.93 0.84, -0.49 0.18, 0 0" stroke="#E1E1E1" stroke-width="2" fill="none"></path></g></g><mask></mask><g stroke-linecap="round" transform="translate(10 10) rotate(0 79.95152097465137 82.2360379383291)"><path d="M159.9 82.24 C159.9 85.1, 159.76 87.98, 159.47 90.83 C159.17 93.68, 158.74 96.53, 158.16 99.33 C157.58 102.14, 156.85 104.92, 155.99 107.65 C155.13 110.37, 154.12 113.07, 152.99 115.68 C151.86 118.3, 150.58 120.87, 149.19 123.35 C147.8 125.84, 146.27 128.26, 144.63 130.57 C143 132.89, 141.23 135.13, 139.37 137.26 C137.5 139.39, 135.52 141.43, 133.45 143.35 C131.38 145.27, 129.2 147.08, 126.95 148.77 C124.69 150.45, 122.34 152.02, 119.93 153.45 C117.51 154.89, 115.02 156.2, 112.47 157.36 C109.93 158.53, 107.31 159.56, 104.66 160.45 C102.01 161.33, 99.3 162.08, 96.57 162.68 C93.85 163.27, 91.08 163.72, 88.31 164.02 C85.54 164.32, 82.74 164.47, 79.95 164.47 C77.17 164.47, 74.36 164.32, 71.59 164.02 C68.82 163.72, 66.05 163.27, 63.33 162.68 C60.6 162.08, 57.89 161.33, 55.25 160.45 C52.6 159.56, 49.98 158.53, 47.43 157.36 C44.89 156.2, 42.39 154.89, 39.98 153.45 C37.56 152.02, 35.21 150.45, 32.96 148.77 C30.7 147.08, 28.52 145.27, 26.45 143.35 C24.38 141.43, 22.4 139.39, 20.54 137.26 C18.67 135.13, 16.91 132.89, 15.27 130.57 C13.63 128.26, 12.1 125.84, 10.71 123.35 C9.32 120.87, 8.05 118.3, 6.91 115.68 C5.78 113.07, 4.77 110.37, 3.91 107.65 C3.05 104.92, 2.33 102.14, 1.75 99.33 C1.17 96.53, 0.73 93.68, 0.44 90.83 C0.15 87.98, 0 85.1, 0 82.24 C0 79.37, 0.15 76.49, 0.44 73.64 C0.73 70.79, 1.17 67.94, 1.75 65.14 C2.33 62.34, 3.05 59.55, 3.91 56.82 C4.77 54.1, 5.78 51.41, 6.91 48.79 C8.05 46.17, 9.32 43.6, 10.71 41.12 C12.1 38.64, 13.63 36.22, 15.27 33.9 C16.91 31.58, 18.67 29.34, 20.54 27.21 C22.4 25.08, 24.38 23.04, 26.45 21.12 C28.52 19.21, 30.7 17.39, 32.96 15.71 C35.21 14.02, 37.56 12.45, 39.98 11.02 C42.39 9.58, 44.89 8.28, 47.43 7.11 C49.98 5.94, 52.6 4.91, 55.25 4.02 C57.89 3.14, 60.6 2.39, 63.33 1.8 C66.05 1.2, 68.82 0.75, 71.59 0.45 C74.36 0.15, 77.17 0, 79.95 0 C82.74 0, 85.54 0.15, 88.31 0.45 C91.08 0.75, 93.85 1.2, 96.57 1.8 C99.3 2.39, 102.01 3.14, 104.66 4.02 C107.31 4.91, 109.93 5.94, 112.47 7.11 C115.02 8.28, 117.51 9.58, 119.93 11.02 C122.34 12.45, 124.69 14.02, 126.95 15.71 C129.2 17.39, 131.38 19.21, 133.45 21.12 C135.52 23.04, 137.5 25.08, 139.37 27.21 C141.23 29.34, 143 31.58, 144.63 33.9 C146.27 36.22, 147.8 38.64, 149.19 41.12 C150.58 43.6, 151.86 46.17, 152.99 48.79 C154.12 51.41, 155.13 54.1, 155.99 56.82 C156.85 59.55, 157.58 62.34, 158.16 65.14 C158.74 67.94, 159.17 70.79, 159.47 73.64 C159.76 76.49, 159.83 80.8, 159.9 82.24 C159.98 83.67, 159.98 80.8, 159.9 82.24" stroke="#E1E1E1" stroke-width="2" fill="none"></path></g></svg>