<svg version="1.1" xmlns="http://www.w3.org/2000/svg" viewBox="0 0 178.8979896631203 183.07865095039256" width="178.8979896631203" height="183.07865095039256" class="excalidraw-svg"><!-- svg-source:excalidraw --><metadata></metadata><defs><style class="style-fonts">
      </style></defs><rect x="0" y="0" width="178.8979896631203" height="183.07865095039256" fill="#000000"></rect><g stroke-linecap="round" transform="translate(16.336051001045348 16.77970988901029) rotate(0 72.67877519292387 74.12877549861491)"><path d="M145.36 74.13 C145.36 76.9, 145.2 79.68, 144.9 82.43 C144.6 85.18, 144.14 87.93, 143.54 90.62 C142.93 93.32, 142.17 96, 141.28 98.61 C140.38 101.22, 139.34 103.8, 138.16 106.29 C136.98 108.78, 135.66 111.23, 134.22 113.57 C132.77 115.91, 131.19 118.18, 129.5 120.35 C127.81 122.51, 125.99 124.59, 124.07 126.55 C122.15 128.5, 120.11 130.36, 117.99 132.08 C115.87 133.81, 113.64 135.42, 111.35 136.9 C109.05 138.37, 106.66 139.72, 104.21 140.92 C101.77 142.12, 99.24 143.18, 96.68 144.1 C94.12 145.01, 91.5 145.78, 88.85 146.4 C86.21 147.01, 83.51 147.48, 80.82 147.79 C78.12 148.1, 75.39 148.26, 72.68 148.26 C69.97 148.26, 67.24 148.1, 64.54 147.79 C61.85 147.48, 59.15 147.01, 56.51 146.4 C53.86 145.78, 51.23 145.01, 48.67 144.1 C46.11 143.18, 43.59 142.12, 41.14 140.92 C38.7 139.72, 36.31 138.37, 34.01 136.9 C31.71 135.42, 29.49 133.81, 27.36 132.08 C25.24 130.36, 23.21 128.5, 21.29 126.55 C19.37 124.59, 17.55 122.51, 15.86 120.35 C14.17 118.18, 12.58 115.91, 11.14 113.57 C9.7 111.23, 8.37 108.78, 7.2 106.29 C6.02 103.8, 4.97 101.22, 4.08 98.61 C3.18 96, 2.43 93.32, 1.82 90.62 C1.22 87.93, 0.76 85.18, 0.46 82.43 C0.15 79.68, 0 76.9, 0 74.13 C0 71.36, 0.15 68.58, 0.46 65.83 C0.76 63.08, 1.22 60.33, 1.82 57.63 C2.43 54.94, 3.18 52.26, 4.08 49.65 C4.97 47.03, 6.02 44.46, 7.2 41.97 C8.37 39.47, 9.7 37.03, 11.14 34.69 C12.58 32.35, 14.17 30.07, 15.86 27.91 C17.55 25.75, 19.37 23.67, 21.29 21.71 C23.21 19.76, 25.24 17.9, 27.36 16.17 C29.49 14.45, 31.71 12.83, 34.01 11.36 C36.31 9.89, 38.7 8.54, 41.14 7.34 C43.59 6.14, 46.11 5.07, 48.67 4.16 C51.23 3.25, 53.86 2.47, 56.51 1.86 C59.15 1.24, 61.85 0.78, 64.54 0.47 C67.24 0.16, 69.97 0, 72.68 0 C75.39 0, 78.12 0.16, 80.82 0.47 C83.51 0.78, 86.21 1.24, 88.85 1.86 C91.5 2.47, 94.12 3.25, 96.68 4.16 C99.24 5.07, 101.77 6.14, 104.21 7.34 C106.66 8.54, 109.05 9.89, 111.35 11.36 C113.64 12.83, 115.87 14.45, 117.99 16.17 C120.11 17.9, 122.15 19.76, 124.07 21.71 C125.99 23.67, 127.81 25.75, 129.5 27.91 C131.19 30.07, 132.77 32.35, 134.22 34.69 C135.66 37.03, 136.98 39.47, 138.16 41.97 C139.34 44.46, 140.38 47.03, 141.28 49.65 C142.17 52.26, 142.93 54.94, 143.54 57.63 C144.14 60.33, 144.6 63.08, 144.9 65.83 C145.2 68.58, 145.28 72.75, 145.36 74.13 C145.43 75.51, 145.43 72.75, 145.36 74.13" stroke="#E1E1E1" stroke-width="2" fill="none"></path></g><g stroke-linecap="round" transform="translate(10 10) rotate(0 79.44899483156013 81.53932547519628)"><path d="M158.9 81.54 C158.9 84.38, 158.75 87.24, 158.46 90.06 C158.17 92.89, 157.74 95.71, 157.16 98.49 C156.59 101.27, 155.86 104.03, 155.01 106.74 C154.15 109.44, 153.16 112.11, 152.03 114.7 C150.9 117.3, 149.64 119.85, 148.25 122.31 C146.87 124.77, 145.35 127.17, 143.72 129.47 C142.1 131.77, 140.34 133.99, 138.49 136.1 C136.64 138.21, 134.67 140.23, 132.61 142.13 C130.55 144.04, 128.39 145.84, 126.15 147.51 C123.91 149.18, 121.57 150.73, 119.17 152.15 C116.78 153.57, 114.29 154.87, 111.76 156.03 C109.23 157.18, 106.63 158.21, 104 159.09 C101.37 159.97, 98.68 160.71, 95.97 161.3 C93.26 161.89, 90.51 162.33, 87.75 162.63 C85 162.93, 82.22 163.08, 79.45 163.08 C76.68 163.08, 73.9 162.93, 71.14 162.63 C68.39 162.33, 65.64 161.89, 62.93 161.3 C60.22 160.71, 57.53 159.97, 54.9 159.09 C52.27 158.21, 49.66 157.18, 47.13 156.03 C44.61 154.87, 42.12 153.57, 39.72 152.15 C37.33 150.73, 34.99 149.18, 32.75 147.51 C30.51 145.84, 28.34 144.04, 26.29 142.13 C24.23 140.23, 22.26 138.21, 20.41 136.1 C18.55 133.99, 16.8 131.77, 15.17 129.47 C13.55 127.17, 12.03 124.77, 10.64 122.31 C9.26 119.85, 7.99 117.3, 6.87 114.7 C5.74 112.11, 4.74 109.44, 3.89 106.74 C3.03 104.03, 2.31 101.27, 1.74 98.49 C1.16 95.71, 0.72 92.89, 0.44 90.06 C0.15 87.24, 0 84.38, 0 81.54 C0 78.7, 0.15 75.84, 0.44 73.02 C0.72 70.19, 1.16 67.37, 1.74 64.59 C2.31 61.81, 3.03 59.04, 3.89 56.34 C4.74 53.64, 5.74 50.97, 6.87 48.37 C7.99 45.78, 9.26 43.23, 10.64 40.77 C12.03 38.31, 13.55 35.91, 15.17 33.61 C16.8 31.31, 18.55 29.09, 20.41 26.98 C22.26 24.87, 24.23 22.84, 26.29 20.94 C28.34 19.04, 30.51 17.24, 32.75 15.57 C34.99 13.9, 37.33 12.34, 39.72 10.92 C42.12 9.5, 44.61 8.21, 47.13 7.05 C49.66 5.89, 52.27 4.87, 54.9 3.99 C57.53 3.11, 60.22 2.37, 62.93 1.78 C65.64 1.19, 68.39 0.74, 71.14 0.45 C73.9 0.15, 76.68 0, 79.45 0 C82.22 0, 85 0.15, 87.75 0.45 C90.51 0.74, 93.26 1.19, 95.97 1.78 C98.68 2.37, 101.37 3.11, 104 3.99 C106.63 4.87, 109.23 5.89, 111.76 7.05 C114.29 8.21, 116.78 9.5, 119.17 10.92 C121.57 12.34, 123.91 13.9, 126.15 15.57 C128.39 17.24, 130.55 19.04, 132.61 20.94 C134.67 22.84, 136.64 24.87, 138.49 26.98 C140.34 29.09, 142.1 31.31, 143.72 33.61 C145.35 35.91, 146.87 38.31, 148.25 40.77 C149.64 43.23, 150.9 45.78, 152.03 48.37 C153.16 50.97, 154.15 53.64, 155.01 56.34 C155.86 59.04, 156.59 61.81, 157.16 64.59 C157.74 67.37, 158.17 70.19, 158.46 73.02 C158.75 75.84, 158.83 80.12, 158.9 81.54 C158.97 82.96, 158.97 80.12, 158.9 81.54" stroke="#E1E1E1" stroke-width="2" fill="none"></path></g><g stroke-linecap="round"><g transform="translate(42.359871600615406 44.14323592939115) rotate(0 8.95973497341214 -4.36925142110897)"><path d="M0 0 C1.15 -0.61, 4.71 -2.8, 6.91 -3.67 C9.11 -4.55, 11.03 -5.02, 13.18 -5.26 C15.33 -5.5, 18.16 -5.25, 19.8 -5.13 C21.43 -5.01, 22.12 -4.25, 22.98 -4.55 C23.83 -4.84, 24.97 -5.79, 24.93 -6.88 C24.88 -7.97, 24.04 -10.07, 22.71 -11.09 C21.38 -12.11, 18.92 -12.74, 16.96 -13 C15 -13.26, 13.14 -13.2, 10.94 -12.64 C8.74 -12.07, 5.82 -10.77, 3.76 -9.61 C1.71 -8.44, 0.12 -7.01, -1.38 -5.68 C-2.88 -4.35, -4.31 -2.91, -5.25 -1.63 C-6.18 -0.34, -6.94 1.06, -7.01 2.04 C-7.07 3.02, -6.34 4.21, -5.63 4.26 C-4.93 4.31, -3.72 3.07, -2.78 2.36 C-1.84 1.65, -0.46 0.39, 0 0 M0 0 C1.15 -0.61, 4.71 -2.8, 6.91 -3.67 C9.11 -4.55, 11.03 -5.02, 13.18 -5.26 C15.33 -5.5, 18.16 -5.25, 19.8 -5.13 C21.43 -5.01, 22.12 -4.25, 22.98 -4.55 C23.83 -4.84, 24.97 -5.79, 24.93 -6.88 C24.88 -7.97, 24.04 -10.07, 22.71 -11.09 C21.38 -12.11, 18.92 -12.74, 16.96 -13 C15 -13.26, 13.14 -13.2, 10.94 -12.64 C8.74 -12.07, 5.82 -10.77, 3.76 -9.61 C1.71 -8.44, 0.12 -7.01, -1.38 -5.68 C-2.88 -4.35, -4.31 -2.91, -5.25 -1.63 C-6.18 -0.34, -6.94 1.06, -7.01 2.04 C-7.07 3.02, -6.34 4.21, -5.63 4.26 C-4.93 4.31, -3.72 3.07, -2.78 2.36 C-1.84 1.65, -0.46 0.39, 0 0" stroke="#E1E1E1" stroke-width="2" fill="none"></path></g></g><mask></mask><g stroke-linecap="round"><g transform="translate(121.02070241613023 38.15433243201369) rotate(0 5.416527735393231 0.8611419121742188)"><path d="M0 0 C1.22 0.3, 5.1 1.02, 7.34 1.82 C9.58 2.61, 11.64 3.69, 13.43 4.77 C15.22 5.86, 16.79 7.61, 18.09 8.31 C19.4 9.02, 20.77 9.34, 21.25 9.01 C21.74 8.67, 21.55 7.47, 21.01 6.32 C20.48 5.18, 19.56 3.73, 18.06 2.15 C16.56 0.58, 14.12 -1.72, 11.99 -3.13 C9.86 -4.55, 7.29 -5.64, 5.26 -6.33 C3.22 -7.03, 1.81 -7.25, -0.22 -7.28 C-2.24 -7.32, -5.3 -7.01, -6.89 -6.53 C-8.47 -6.05, -9.14 -5.24, -9.73 -4.42 C-10.32 -3.6, -10.61 -2.42, -10.42 -1.61 C-10.23 -0.8, -9.53 0.14, -8.58 0.44 C-7.62 0.75, -6.13 0.27, -4.7 0.2 C-3.28 0.12, -0.78 0.03, 0 0 M0 0 C1.22 0.3, 5.1 1.02, 7.34 1.82 C9.58 2.61, 11.64 3.69, 13.43 4.77 C15.22 5.86, 16.79 7.61, 18.09 8.31 C19.4 9.02, 20.77 9.34, 21.25 9.01 C21.74 8.67, 21.55 7.47, 21.01 6.32 C20.48 5.18, 19.56 3.73, 18.06 2.15 C16.56 0.58, 14.12 -1.72, 11.99 -3.13 C9.86 -4.55, 7.29 -5.64, 5.26 -6.33 C3.22 -7.03, 1.81 -7.25, -0.22 -7.28 C-2.24 -7.32, -5.3 -7.01, -6.89 -6.53 C-8.47 -6.05, -9.14 -5.24, -9.73 -4.42 C-10.32 -3.6, -10.61 -2.42, -10.42 -1.61 C-10.23 -0.8, -9.53 0.14, -8.58 0.44 C-7.62 0.75, -6.13 0.27, -4.7 0.2 C-3.28 0.12, -0.78 0.03, 0 0" stroke="#E1E1E1" stroke-width="2" fill="none"></path></g></g><mask></mask><g stroke-linecap="round" transform="translate(101.73327613470474 57.11456499193889) rotate(0 20.91914752645141 23.99719552503919)"><path d="M41.84 24 C41.84 25.39, 41.73 26.8, 41.52 28.16 C41.31 29.53, 40.99 30.9, 40.58 32.2 C40.16 33.51, 39.64 34.79, 39.04 36 C38.43 37.2, 37.72 38.36, 36.94 39.42 C36.17 40.49, 35.29 41.49, 34.37 42.38 C33.44 43.27, 32.43 44.08, 31.38 44.78 C30.33 45.47, 29.21 46.07, 28.07 46.55 C26.94 47.02, 25.74 47.39, 24.55 47.63 C23.36 47.87, 22.13 47.99, 20.92 47.99 C19.71 47.99, 18.48 47.87, 17.29 47.63 C16.09 47.39, 14.9 47.02, 13.76 46.55 C12.63 46.07, 11.51 45.47, 10.46 44.78 C9.41 44.08, 8.4 43.27, 7.47 42.38 C6.55 41.49, 5.67 40.49, 4.89 39.42 C4.12 38.36, 3.41 37.2, 2.8 36 C2.2 34.79, 1.68 33.51, 1.26 32.2 C0.85 30.9, 0.53 29.53, 0.32 28.16 C0.11 26.8, 0 25.39, 0 24 C0 22.61, 0.11 21.2, 0.32 19.83 C0.53 18.46, 0.85 17.09, 1.26 15.79 C1.68 14.48, 2.2 13.2, 2.8 12 C3.41 10.8, 4.12 9.64, 4.89 8.57 C5.67 7.51, 6.55 6.51, 7.47 5.61 C8.4 4.72, 9.41 3.91, 10.46 3.22 C11.51 2.52, 12.63 1.92, 13.76 1.45 C14.9 0.97, 16.09 0.61, 17.29 0.36 C18.48 0.12, 19.71 0, 20.92 0 C22.13 0, 23.36 0.12, 24.55 0.36 C25.74 0.61, 26.94 0.97, 28.07 1.45 C29.21 1.92, 30.33 2.52, 31.38 3.22 C32.43 3.91, 33.44 4.72, 34.37 5.61 C35.29 6.51, 36.17 7.51, 36.94 8.57 C37.72 9.64, 38.43 10.8, 39.04 12 C39.64 13.2, 40.16 14.48, 40.58 15.79 C40.99 17.09, 41.31 18.46, 41.52 19.83 C41.73 21.2, 41.79 23.3, 41.84 24 C41.89 24.69, 41.89 23.3, 41.84 24" stroke="#E1E1E1" stroke-width="2" fill="none"></path></g><g stroke-linecap="round" transform="translate(36.74470674371844 56.110186263417745) rotate(0 20.91914752645141 24.99250999138215)"><path d="M41.84 24.99 C41.84 26.44, 41.73 27.91, 41.52 29.33 C41.31 30.76, 40.99 32.18, 40.58 33.54 C40.16 34.9, 39.64 36.24, 39.04 37.49 C38.43 38.74, 37.72 39.95, 36.94 41.06 C36.17 42.17, 35.29 43.21, 34.37 44.14 C33.44 45.07, 32.43 45.91, 31.38 46.64 C30.33 47.36, 29.21 47.98, 28.07 48.48 C26.94 48.97, 25.74 49.35, 24.55 49.61 C23.36 49.86, 22.13 49.99, 20.92 49.99 C19.71 49.99, 18.48 49.86, 17.29 49.61 C16.09 49.35, 14.9 48.97, 13.76 48.48 C12.63 47.98, 11.51 47.36, 10.46 46.64 C9.41 45.91, 8.4 45.07, 7.47 44.14 C6.55 43.21, 5.67 42.17, 4.89 41.06 C4.12 39.95, 3.41 38.74, 2.8 37.49 C2.2 36.24, 1.68 34.9, 1.26 33.54 C0.85 32.18, 0.53 30.76, 0.32 29.33 C0.11 27.91, 0 26.44, 0 24.99 C0 23.55, 0.11 22.08, 0.32 20.65 C0.53 19.23, 0.85 17.8, 1.26 16.44 C1.68 15.09, 2.2 13.75, 2.8 12.5 C3.41 11.24, 4.12 10.04, 4.89 8.93 C5.67 7.82, 6.55 6.78, 7.47 5.85 C8.4 4.92, 9.41 4.07, 10.46 3.35 C11.51 2.63, 12.63 2, 13.76 1.51 C14.9 1.01, 16.09 0.63, 17.29 0.38 C18.48 0.13, 19.71 0, 20.92 0 C22.13 0, 23.36 0.13, 24.55 0.38 C25.74 0.63, 26.94 1.01, 28.07 1.51 C29.21 2, 30.33 2.63, 31.38 3.35 C32.43 4.07, 33.44 4.92, 34.37 5.85 C35.29 6.78, 36.17 7.82, 36.94 8.93 C37.72 10.04, 38.43 11.24, 39.04 12.5 C39.64 13.75, 40.16 15.09, 40.58 16.44 C40.99 17.8, 41.31 19.23, 41.52 20.65 C41.73 22.08, 41.79 24.27, 41.84 24.99 C41.89 25.72, 41.89 24.27, 41.84 24.99" stroke="#E1E1E1" stroke-width="2" fill="none"></path></g><g stroke-linecap="round" transform="translate(52.93783558487394 70.02767124291188) rotate(0 9.030630481411151 11.24813240519859)"><path d="M18.06 11.25 C18.06 11.9, 18.01 12.56, 17.92 13.2 C17.83 13.84, 17.7 14.48, 17.52 15.1 C17.34 15.71, 17.11 16.31, 16.85 16.87 C16.59 17.44, 16.28 17.98, 15.95 18.48 C15.61 18.98, 15.24 19.45, 14.84 19.86 C14.43 20.28, 14 20.66, 13.55 20.99 C13.09 21.31, 12.61 21.6, 12.12 21.82 C11.63 22.04, 11.11 22.21, 10.6 22.33 C10.08 22.44, 9.55 22.5, 9.03 22.5 C8.51 22.5, 7.98 22.44, 7.46 22.33 C6.95 22.21, 6.43 22.04, 5.94 21.82 C5.45 21.6, 4.97 21.31, 4.52 20.99 C4.06 20.66, 3.63 20.28, 3.23 19.86 C2.83 19.45, 2.45 18.98, 2.11 18.48 C1.78 17.98, 1.47 17.44, 1.21 16.87 C0.95 16.31, 0.72 15.71, 0.54 15.1 C0.37 14.48, 0.23 13.84, 0.14 13.2 C0.05 12.56, 0 11.9, 0 11.25 C0 10.6, 0.05 9.94, 0.14 9.29 C0.23 8.65, 0.37 8.01, 0.54 7.4 C0.72 6.79, 0.95 6.19, 1.21 5.62 C1.47 5.06, 1.78 4.52, 2.11 4.02 C2.45 3.52, 2.83 3.05, 3.23 2.63 C3.63 2.21, 4.06 1.83, 4.52 1.51 C4.97 1.18, 5.45 0.9, 5.94 0.68 C6.43 0.46, 6.95 0.28, 7.46 0.17 C7.98 0.06, 8.51 0, 9.03 0 C9.55 0, 10.08 0.06, 10.6 0.17 C11.11 0.28, 11.63 0.46, 12.12 0.68 C12.61 0.9, 13.09 1.18, 13.55 1.51 C14 1.83, 14.43 2.21, 14.84 2.63 C15.24 3.05, 15.61 3.52, 15.95 4.02 C16.28 4.52, 16.59 5.06, 16.85 5.62 C17.11 6.19, 17.34 6.79, 17.52 7.4 C17.7 8.01, 17.83 8.65, 17.92 9.29 C18.01 9.94, 18.04 10.92, 18.06 11.25 C18.08 11.57, 18.08 10.92, 18.06 11.25" stroke="#E1E1E1" stroke-width="2" fill="none"></path></g><g stroke-linecap="round" transform="translate(58.92026302077818 75.38103813962402) rotate(0 2.1826549464287837 2.3349289776987803)"><path d="M4.37 2.33 C4.37 2.47, 4.35 2.61, 4.33 2.74 C4.31 2.87, 4.28 3.01, 4.23 3.13 C4.19 3.26, 4.14 3.39, 4.07 3.5 C4.01 3.62, 3.94 3.73, 3.85 3.84 C3.77 3.94, 3.68 4.04, 3.59 4.12 C3.49 4.21, 3.38 4.29, 3.27 4.36 C3.16 4.42, 3.05 4.48, 2.93 4.53 C2.81 4.58, 2.69 4.61, 2.56 4.63 C2.44 4.66, 2.31 4.67, 2.18 4.67 C2.06 4.67, 1.93 4.66, 1.8 4.63 C1.68 4.61, 1.55 4.58, 1.44 4.53 C1.32 4.48, 1.2 4.42, 1.09 4.36 C0.98 4.29, 0.88 4.21, 0.78 4.12 C0.68 4.04, 0.59 3.94, 0.51 3.84 C0.43 3.73, 0.36 3.62, 0.29 3.5 C0.23 3.39, 0.17 3.26, 0.13 3.13 C0.09 3.01, 0.06 2.87, 0.03 2.74 C0.01 2.61, 0 2.47, 0 2.33 C0 2.2, 0.01 2.06, 0.03 1.93 C0.06 1.8, 0.09 1.66, 0.13 1.54 C0.17 1.41, 0.23 1.28, 0.29 1.17 C0.36 1.05, 0.43 0.94, 0.51 0.83 C0.59 0.73, 0.68 0.63, 0.78 0.55 C0.88 0.46, 0.98 0.38, 1.09 0.31 C1.2 0.25, 1.32 0.19, 1.44 0.14 C1.55 0.09, 1.68 0.06, 1.8 0.04 C1.93 0.01, 2.06 0, 2.18 0 C2.31 0, 2.44 0.01, 2.56 0.04 C2.69 0.06, 2.81 0.09, 2.93 0.14 C3.05 0.19, 3.16 0.25, 3.27 0.31 C3.38 0.38, 3.49 0.46, 3.59 0.55 C3.68 0.63, 3.77 0.73, 3.85 0.83 C3.94 0.94, 4.01 1.05, 4.07 1.17 C4.14 1.28, 4.19 1.41, 4.23 1.54 C4.28 1.66, 4.31 1.8, 4.33 1.93 C4.35 2.06, 4.36 2.27, 4.37 2.33 C4.37 2.4, 4.37 2.27, 4.37 2.33" stroke="#E1E1E1" stroke-width="2" fill="none"></path></g><g stroke-linecap="round" transform="translate(108.37538367955995 70.17105203516849) rotate(8.848020042176005 9.196153623864575 11.686260547613244)"><path d="M18.39 11.69 C18.39 12.36, 18.35 13.05, 18.25 13.72 C18.16 14.38, 18.02 15.05, 17.84 15.68 C17.66 16.32, 17.43 16.94, 17.16 17.53 C16.89 18.12, 16.58 18.68, 16.24 19.2 C15.9 19.72, 15.52 20.2, 15.11 20.64 C14.7 21.07, 14.26 21.47, 13.79 21.81 C13.33 22.15, 12.84 22.44, 12.34 22.67 C11.84 22.9, 11.32 23.08, 10.79 23.19 C10.27 23.31, 9.73 23.37, 9.2 23.37 C8.66 23.37, 8.12 23.31, 7.6 23.19 C7.08 23.08, 6.55 22.9, 6.05 22.67 C5.55 22.44, 5.06 22.15, 4.6 21.81 C4.14 21.47, 3.69 21.07, 3.28 20.64 C2.88 20.2, 2.49 19.72, 2.15 19.2 C1.81 18.68, 1.5 18.12, 1.23 17.53 C0.97 16.94, 0.74 16.32, 0.55 15.68 C0.37 15.05, 0.23 14.38, 0.14 13.72 C0.05 13.05, 0 12.36, 0 11.69 C0 11.01, 0.05 10.32, 0.14 9.66 C0.23 8.99, 0.37 8.32, 0.55 7.69 C0.74 7.05, 0.97 6.43, 1.23 5.84 C1.5 5.26, 1.81 4.69, 2.15 4.17 C2.49 3.66, 2.88 3.17, 3.28 2.73 C3.69 2.3, 4.14 1.9, 4.6 1.57 C5.06 1.23, 5.55 0.94, 6.05 0.7 C6.55 0.47, 7.08 0.3, 7.6 0.18 C8.12 0.06, 8.66 0, 9.2 0 C9.73 0, 10.27 0.06, 10.79 0.18 C11.32 0.3, 11.84 0.47, 12.34 0.7 C12.84 0.94, 13.33 1.23, 13.79 1.57 C14.26 1.9, 14.7 2.3, 15.11 2.73 C15.52 3.17, 15.9 3.66, 16.24 4.17 C16.58 4.69, 16.89 5.26, 17.16 5.84 C17.43 6.43, 17.66 7.05, 17.84 7.69 C18.02 8.32, 18.16 8.99, 18.25 9.66 C18.35 10.32, 18.37 11.35, 18.39 11.69 C18.42 12.02, 18.42 11.35, 18.39 11.69" stroke="#E1E1E1" stroke-width="2" fill="none"></path></g><g stroke-linecap="round" transform="translate(113.32583240056283 75.1253121443209) rotate(0 2.1826549464287837 2.3349289776987803)"><path d="M4.37 2.33 C4.37 2.47, 4.35 2.61, 4.33 2.74 C4.31 2.87, 4.28 3.01, 4.23 3.13 C4.19 3.26, 4.14 3.39, 4.07 3.5 C4.01 3.62, 3.94 3.73, 3.85 3.84 C3.77 3.94, 3.68 4.04, 3.59 4.12 C3.49 4.21, 3.38 4.29, 3.27 4.36 C3.16 4.42, 3.05 4.48, 2.93 4.53 C2.81 4.58, 2.69 4.61, 2.56 4.63 C2.44 4.66, 2.31 4.67, 2.18 4.67 C2.06 4.67, 1.93 4.66, 1.8 4.63 C1.68 4.61, 1.55 4.58, 1.44 4.53 C1.32 4.48, 1.2 4.42, 1.09 4.36 C0.98 4.29, 0.88 4.21, 0.78 4.12 C0.68 4.04, 0.59 3.94, 0.51 3.84 C0.43 3.73, 0.36 3.62, 0.29 3.5 C0.23 3.39, 0.17 3.26, 0.13 3.13 C0.09 3.01, 0.06 2.87, 0.03 2.74 C0.01 2.61, 0 2.47, 0 2.33 C0 2.2, 0.01 2.06, 0.03 1.93 C0.06 1.8, 0.09 1.66, 0.13 1.54 C0.17 1.41, 0.23 1.28, 0.29 1.17 C0.36 1.05, 0.43 0.94, 0.51 0.83 C0.59 0.73, 0.68 0.63, 0.78 0.55 C0.88 0.46, 0.98 0.38, 1.09 0.31 C1.2 0.25, 1.32 0.19, 1.44 0.14 C1.55 0.09, 1.68 0.06, 1.8 0.04 C1.93 0.01, 2.06 0, 2.18 0 C2.31 0, 2.44 0.01, 2.56 0.04 C2.69 0.06, 2.81 0.09, 2.93 0.14 C3.05 0.19, 3.16 0.25, 3.27 0.31 C3.38 0.38, 3.49 0.46, 3.59 0.55 C3.68 0.63, 3.77 0.73, 3.85 0.83 C3.94 0.94, 4.01 1.05, 4.07 1.17 C4.14 1.28, 4.19 1.41, 4.23 1.54 C4.28 1.66, 4.31 1.8, 4.33 1.93 C4.35 2.06, 4.36 2.27, 4.37 2.33 C4.37 2.4, 4.37 2.27, 4.37 2.33" stroke="#E1E1E1" stroke-width="2" fill="none"></path></g><g stroke-linecap="round"><g transform="translate(75.7612593338913 132.55009906046803) rotate(0 13.736163890936837 2.115194584733075)"><path d="M0 0 C0.56 -1.69, 1.84 -7.56, 3.36 -10.16 C4.87 -12.76, 7.06 -14.49, 9.11 -15.59 C11.15 -16.68, 13.45 -17.1, 15.62 -16.73 C17.79 -16.36, 20.3 -15.2, 22.1 -13.37 C23.91 -11.54, 25.52 -8.81, 26.43 -5.75 C27.35 -2.7, 27.94 1.42, 27.61 4.94 C27.27 8.46, 25.94 12.86, 24.41 15.35 C22.87 17.83, 20.73 18.92, 18.41 19.85 C16.09 20.79, 12.82 21.29, 10.49 20.96 C8.16 20.64, 6.13 19.62, 4.43 17.88 C2.74 16.15, 1.07 12.95, 0.3 10.57 C-0.46 8.18, -0.08 5.35, -0.13 3.59 C-0.18 1.83, -0.02 0.6, 0 0 M0 0 C0.56 -1.69, 1.84 -7.56, 3.36 -10.16 C4.87 -12.76, 7.06 -14.49, 9.11 -15.59 C11.15 -16.68, 13.45 -17.1, 15.62 -16.73 C17.79 -16.36, 20.3 -15.2, 22.1 -13.37 C23.91 -11.54, 25.52 -8.81, 26.43 -5.75 C27.35 -2.7, 27.94 1.42, 27.61 4.94 C27.27 8.46, 25.94 12.86, 24.41 15.35 C22.87 17.83, 20.73 18.92, 18.41 19.85 C16.09 20.79, 12.82 21.29, 10.49 20.96 C8.16 20.64, 6.13 19.62, 4.43 17.88 C2.74 16.15, 1.07 12.95, 0.3 10.57 C-0.46 8.18, -0.08 5.35, -0.13 3.59 C-0.18 1.83, -0.02 0.6, 0 0" stroke="#E1E1E1" stroke-width="2" fill="none"></path></g></g><mask></mask></svg>