<svg version="1.1" xmlns="http://www.w3.org/2000/svg" viewBox="0 0 176.4428337769932 180.91299648625136" width="176.4428337769932" height="180.91299648625136" class="excalidraw-svg"><!-- svg-source:excalidraw --><metadata></metadata><defs><style class="style-fonts">
      </style></defs><rect x="0" y="0" width="176.4428337769932" height="180.91299648625136" fill="#000000"></rect><g stroke-linecap="round" transform="translate(15.638831004357371 16.71429976545005) rotate(0 71.64597271979056 73.14435900605554)"><path d="M143.29 73.14 C143.29 75.87, 143.14 78.62, 142.84 81.33 C142.54 84.05, 142.09 86.76, 141.5 89.42 C140.9 92.08, 140.15 94.73, 139.27 97.3 C138.39 99.88, 137.36 102.42, 136.2 104.88 C135.04 107.34, 133.73 109.75, 132.31 112.06 C130.89 114.37, 129.33 116.61, 127.66 118.75 C125.99 120.88, 124.2 122.93, 122.31 124.87 C120.42 126.8, 118.41 128.63, 116.32 130.33 C114.23 132.03, 112.03 133.63, 109.76 135.08 C107.5 136.53, 105.14 137.86, 102.73 139.05 C100.32 140.23, 97.83 141.28, 95.31 142.18 C92.79 143.09, 90.2 143.85, 87.59 144.45 C84.98 145.06, 82.32 145.52, 79.67 145.83 C77.01 146.13, 74.32 146.29, 71.65 146.29 C68.97 146.29, 66.28 146.13, 63.62 145.83 C60.97 145.52, 58.31 145.06, 55.7 144.45 C53.1 143.85, 50.51 143.09, 47.98 142.18 C45.46 141.28, 42.97 140.23, 40.56 139.05 C38.15 137.86, 35.79 136.53, 33.53 135.08 C31.26 133.63, 29.07 132.03, 26.98 130.33 C24.88 128.63, 22.88 126.8, 20.98 124.87 C19.09 122.93, 17.3 120.88, 15.63 118.75 C13.96 116.61, 12.4 114.37, 10.98 112.06 C9.56 109.75, 8.26 107.34, 7.1 104.88 C5.94 102.42, 4.9 99.88, 4.02 97.3 C3.14 94.73, 2.39 92.08, 1.8 89.42 C1.2 86.76, 0.75 84.05, 0.45 81.33 C0.15 78.62, 0 75.87, 0 73.14 C0 70.41, 0.15 67.67, 0.45 64.95 C0.75 62.24, 1.2 59.53, 1.8 56.87 C2.39 54.21, 3.14 51.56, 4.02 48.99 C4.9 46.41, 5.94 43.87, 7.1 41.41 C8.26 38.95, 9.56 36.54, 10.98 34.23 C12.4 31.92, 13.96 29.67, 15.63 27.54 C17.3 25.41, 19.09 23.35, 20.98 21.42 C22.88 19.49, 24.88 17.66, 26.98 15.96 C29.07 14.26, 31.26 12.66, 33.53 11.21 C35.79 9.76, 38.15 8.43, 40.56 7.24 C42.97 6.06, 45.46 5.01, 47.98 4.1 C50.51 3.2, 53.1 2.44, 55.7 1.83 C58.31 1.23, 60.97 0.77, 63.62 0.46 C66.28 0.15, 68.97 0, 71.65 0 C74.32 0, 77.01 0.15, 79.67 0.46 C82.32 0.77, 84.98 1.23, 87.59 1.83 C90.2 2.44, 92.79 3.2, 95.31 4.1 C97.83 5.01, 100.32 6.06, 102.73 7.24 C105.14 8.43, 107.5 9.76, 109.76 11.21 C112.03 12.66, 114.23 14.26, 116.32 15.96 C118.41 17.66, 120.42 19.49, 122.31 21.42 C124.2 23.35, 125.99 25.41, 127.66 27.54 C129.33 29.67, 130.89 31.92, 132.31 34.23 C133.73 36.54, 135.04 38.95, 136.2 41.41 C137.36 43.87, 138.39 46.41, 139.27 48.99 C140.15 51.56, 140.9 54.21, 141.5 56.87 C142.09 59.53, 142.54 62.24, 142.84 64.95 C143.14 67.67, 143.22 71.78, 143.29 73.14 C143.37 74.51, 143.37 71.78, 143.29 73.14" stroke="#E1E1E1" stroke-width="2" fill="none"></path></g><g stroke-linecap="round" transform="translate(10 10) rotate(0 78.22141688849658 80.45649824312562)"><path d="M156.44 80.46 C156.44 83.26, 156.3 86.08, 156.01 88.87 C155.73 91.65, 155.3 94.44, 154.73 97.18 C154.17 99.93, 153.46 102.65, 152.61 105.32 C151.77 107.99, 150.79 110.62, 149.68 113.18 C148.57 115.74, 147.33 118.26, 145.96 120.68 C144.6 123.11, 143.11 125.48, 141.5 127.75 C139.9 130.02, 138.17 132.21, 136.35 134.29 C134.53 136.38, 132.59 138.37, 130.56 140.25 C128.54 142.12, 126.4 143.9, 124.2 145.55 C121.99 147.19, 119.69 148.73, 117.33 150.13 C114.97 151.54, 112.53 152.82, 110.04 153.96 C107.55 155.1, 104.99 156.11, 102.39 156.98 C99.8 157.84, 97.15 158.57, 94.48 159.15 C91.82 159.74, 89.11 160.18, 86.4 160.47 C83.69 160.77, 80.95 160.91, 78.22 160.91 C75.5 160.91, 72.76 160.77, 70.05 160.47 C67.33 160.18, 64.62 159.74, 61.96 159.15 C59.29 158.57, 56.64 157.84, 54.05 156.98 C51.46 156.11, 48.9 155.1, 46.41 153.96 C43.92 152.82, 41.47 151.54, 39.11 150.13 C36.75 148.73, 34.45 147.19, 32.24 145.55 C30.04 143.9, 27.91 142.12, 25.88 140.25 C23.86 138.37, 21.92 136.38, 20.09 134.29 C18.27 132.21, 16.54 130.02, 14.94 127.75 C13.34 125.48, 11.84 123.11, 10.48 120.68 C9.12 118.26, 7.87 115.74, 6.76 113.18 C5.65 110.62, 4.67 107.99, 3.83 105.32 C2.99 102.65, 2.28 99.93, 1.71 97.18 C1.14 94.44, 0.71 91.65, 0.43 88.87 C0.14 86.08, 0 83.26, 0 80.46 C0 77.65, 0.14 74.83, 0.43 72.05 C0.71 69.26, 1.14 66.47, 1.71 63.73 C2.28 60.99, 2.99 58.26, 3.83 55.59 C4.67 52.93, 5.65 50.29, 6.76 47.73 C7.87 45.17, 9.12 42.66, 10.48 40.23 C11.84 37.8, 13.34 35.43, 14.94 33.17 C16.54 30.9, 18.27 28.7, 20.09 26.62 C21.92 24.54, 23.86 22.54, 25.88 20.67 C27.91 18.79, 30.04 17.01, 32.24 15.37 C34.45 13.72, 36.75 12.18, 39.11 10.78 C41.47 9.38, 43.92 8.1, 46.41 6.96 C48.9 5.82, 51.46 4.8, 54.05 3.94 C56.64 3.07, 59.29 2.34, 61.96 1.76 C64.62 1.18, 67.33 0.73, 70.05 0.44 C72.76 0.15, 75.5 0, 78.22 0 C80.95 0, 83.69 0.15, 86.4 0.44 C89.11 0.73, 91.82 1.18, 94.48 1.76 C97.15 2.34, 99.8 3.07, 102.39 3.94 C104.99 4.8, 107.55 5.82, 110.04 6.96 C112.53 8.1, 114.97 9.38, 117.33 10.78 C119.69 12.18, 121.99 13.72, 124.2 15.37 C126.4 17.01, 128.54 18.79, 130.56 20.67 C132.59 22.54, 134.53 24.54, 136.35 26.62 C138.17 28.7, 139.9 30.9, 141.5 33.17 C143.11 35.43, 144.6 37.8, 145.96 40.23 C147.33 42.66, 148.57 45.17, 149.68 47.73 C150.79 50.29, 151.77 52.93, 152.61 55.59 C153.46 58.26, 154.17 60.99, 154.73 63.73 C155.3 66.47, 155.73 69.26, 156.01 72.05 C156.3 74.83, 156.37 79.05, 156.44 80.46 C156.51 81.86, 156.51 79.05, 156.44 80.46" stroke="#E1E1E1" stroke-width="2" fill="none"></path></g><g stroke-linecap="round"><g transform="translate(63.19356009946148 73.84334478129495) rotate(0 -11.021650040159358 1.1803579508150506)"><path d="M0 0 C-1.94 -0.67, -7.89 -3.02, -11.63 -4.02 C-15.37 -5.02, -19.22 -5.82, -22.43 -6.01 C-25.65 -6.2, -28.94 -5.81, -30.93 -5.15 C-32.93 -4.49, -34.97 -2.92, -34.4 -2.06 C-33.82 -1.2, -30.34 -0.58, -27.5 -0.01 C-24.66 0.57, -20.91 0.53, -17.36 1.4 C-13.81 2.27, -9.41 4.07, -6.2 5.23 C-2.99 6.39, -0.35 8.11, 1.89 8.37 C4.12 8.64, 5.49 8.07, 7.23 6.83 C8.98 5.6, 12.24 1.84, 12.35 0.99 C12.46 0.13, 9.29 1.63, 7.89 1.71 C6.48 1.78, 5.22 1.73, 3.9 1.44 C2.59 1.16, 0.65 0.24, 0 0 M0 0 C-1.94 -0.67, -7.89 -3.02, -11.63 -4.02 C-15.37 -5.02, -19.22 -5.82, -22.43 -6.01 C-25.65 -6.2, -28.94 -5.81, -30.93 -5.15 C-32.93 -4.49, -34.97 -2.92, -34.4 -2.06 C-33.82 -1.2, -30.34 -0.58, -27.5 -0.01 C-24.66 0.57, -20.91 0.53, -17.36 1.4 C-13.81 2.27, -9.41 4.07, -6.2 5.23 C-2.99 6.39, -0.35 8.11, 1.89 8.37 C4.12 8.64, 5.49 8.07, 7.23 6.83 C8.98 5.6, 12.24 1.84, 12.35 0.99 C12.46 0.13, 9.29 1.63, 7.89 1.71 C6.48 1.78, 5.22 1.73, 3.9 1.44 C2.59 1.16, 0.65 0.24, 0 0" stroke="#E1E1E1" stroke-width="2" fill="none"></path></g></g><mask></mask><g stroke-linecap="round"><g transform="translate(147.43892867454088 67.40280806645342) rotate(0 -26.202100926568477 -3.1507876410698827)"><path d="M0 0 C-0.57 -1.1, -2.05 -4.94, -3.44 -6.61 C-4.83 -8.28, -6.2 -9.24, -8.34 -10 C-10.47 -10.77, -12.97 -11.22, -16.24 -11.2 C-19.51 -11.17, -23.93 -10.93, -27.94 -9.88 C-31.95 -8.83, -36.54 -6.47, -40.29 -4.9 C-44.04 -3.33, -48.44 -2.1, -50.46 -0.47 C-52.48 1.16, -53.2 4.05, -52.4 4.89 C-51.61 5.74, -48.14 5.46, -45.68 4.6 C-43.22 3.74, -41.4 1.33, -37.63 -0.27 C-33.86 -1.87, -26.99 -4.05, -23.06 -5.01 C-19.12 -5.97, -16.7 -6.15, -14.04 -6.01 C-11.37 -5.88, -9.4 -5.18, -7.06 -4.18 C-4.72 -3.18, -1.18 -0.7, 0 0 M0 0 C-0.57 -1.1, -2.05 -4.94, -3.44 -6.61 C-4.83 -8.28, -6.2 -9.24, -8.34 -10 C-10.47 -10.77, -12.97 -11.22, -16.24 -11.2 C-19.51 -11.17, -23.93 -10.93, -27.94 -9.88 C-31.95 -8.83, -36.54 -6.47, -40.29 -4.9 C-44.04 -3.33, -48.44 -2.1, -50.46 -0.47 C-52.48 1.16, -53.2 4.05, -52.4 4.89 C-51.61 5.74, -48.14 5.46, -45.68 4.6 C-43.22 3.74, -41.4 1.33, -37.63 -0.27 C-33.86 -1.87, -26.99 -4.05, -23.06 -5.01 C-19.12 -5.97, -16.7 -6.15, -14.04 -6.01 C-11.37 -5.88, -9.4 -5.18, -7.06 -4.18 C-4.72 -3.18, -1.18 -0.7, 0 0" stroke="#E1E1E1" stroke-width="2" fill="none"></path></g></g><mask></mask><g stroke-linecap="round"><g transform="translate(101.71193222631359 90.23210875048994) rotate(0 20.14017983402846 -2.0388247704124183)"><path d="M0 0 C-0.38 -0.33, -2.5 -1.41, -2.26 -2 C-2.02 -2.58, -1.82 -3.2, 1.46 -3.5 C4.75 -3.81, 11.44 -3.74, 17.45 -3.83 C23.46 -3.93, 33.35 -4.07, 37.53 -4.08 C41.71 -4.08, 41.88 -4.48, 42.54 -3.87 C43.2 -3.26, 42.31 -0.77, 41.47 -0.43 C40.62 -0.09, 42.44 -1.61, 37.46 -1.8 C32.49 -1.99, 17.87 -1.85, 11.63 -1.55 C5.38 -1.25, 1.94 -0.26, 0 0 M0 0 C-0.38 -0.33, -2.5 -1.41, -2.26 -2 C-2.02 -2.58, -1.82 -3.2, 1.46 -3.5 C4.75 -3.81, 11.44 -3.74, 17.45 -3.83 C23.46 -3.93, 33.35 -4.07, 37.53 -4.08 C41.71 -4.08, 41.88 -4.48, 42.54 -3.87 C43.2 -3.26, 42.31 -0.77, 41.47 -0.43 C40.62 -0.09, 42.44 -1.61, 37.46 -1.8 C32.49 -1.99, 17.87 -1.85, 11.63 -1.55 C5.38 -1.25, 1.94 -0.26, 0 0" stroke="#E1E1E1" stroke-width="2" fill="none"></path></g></g><mask></mask><g stroke-linecap="round"><g transform="translate(102.75142888109008 90.3656420022262) rotate(0 8.735300217747948 6.2405082462848895)"><path d="M0 0 C0.05 1.37, -0.61 5.89, 0.31 8.23 C1.22 10.57, 3.7 13, 5.47 14.03 C7.25 15.05, 9.3 15.11, 10.96 14.35 C12.63 13.6, 14.41 11.31, 15.48 9.5 C16.55 7.68, 17.06 5.37, 17.4 3.48 C17.73 1.58, 17.46 -0.98, 17.47 -1.87 M0 0 C0.05 1.37, -0.61 5.89, 0.31 8.23 C1.22 10.57, 3.7 13, 5.47 14.03 C7.25 15.05, 9.3 15.11, 10.96 14.35 C12.63 13.6, 14.41 11.31, 15.48 9.5 C16.55 7.68, 17.06 5.37, 17.4 3.48 C17.73 1.58, 17.46 -0.98, 17.47 -1.87" stroke="#E1E1E1" stroke-width="2" fill="none"></path></g></g><mask></mask><g stroke-linecap="round"><g transform="translate(107.25356217336889 103.8964686934055) rotate(0 17.880699507393274 -4.670135493142709)"><path d="M0 0 C1.17 0.62, 4.28 2.9, 7.02 3.72 C9.75 4.54, 13.28 5.24, 16.42 4.93 C19.56 4.62, 23.19 3.77, 25.87 1.87 C28.56 -0.04, 30.88 -3.79, 32.53 -6.48 C34.18 -9.17, 35.22 -12.97, 35.76 -14.27 M0 0 C1.17 0.62, 4.28 2.9, 7.02 3.72 C9.75 4.54, 13.28 5.24, 16.42 4.93 C19.56 4.62, 23.19 3.77, 25.87 1.87 C28.56 -0.04, 30.88 -3.79, 32.53 -6.48 C34.18 -9.17, 35.22 -12.97, 35.76 -14.27" stroke="#E1E1E1" stroke-width="2" fill="none"></path></g></g><mask></mask><g stroke-linecap="round"><g transform="translate(74.54551495133182 93.1258720228725) rotate(0 -20.741622284938217 -2.3528450392312266)"><path d="M0 0 C-1.86 -0.2, -6.54 -0.83, -11.15 -1.21 C-15.77 -1.58, -23.15 -1.98, -27.69 -2.24 C-32.23 -2.51, -36.09 -2.4, -38.38 -2.81 C-40.68 -3.22, -41.99 -4.39, -41.48 -4.71 C-40.97 -5.02, -38.29 -4.74, -35.32 -4.71 C-32.34 -4.67, -27.57 -4.58, -23.63 -4.49 C-19.68 -4.41, -15.35 -4.3, -11.63 -4.19 C-7.9 -4.07, -3.2 -4.5, -1.26 -3.8 C0.68 -3.11, -0.21 -0.63, 0 0 M0 0 C-1.86 -0.2, -6.54 -0.83, -11.15 -1.21 C-15.77 -1.58, -23.15 -1.98, -27.69 -2.24 C-32.23 -2.51, -36.09 -2.4, -38.38 -2.81 C-40.68 -3.22, -41.99 -4.39, -41.48 -4.71 C-40.97 -5.02, -38.29 -4.74, -35.32 -4.71 C-32.34 -4.67, -27.57 -4.58, -23.63 -4.49 C-19.68 -4.41, -15.35 -4.3, -11.63 -4.19 C-7.9 -4.07, -3.2 -4.5, -1.26 -3.8 C0.68 -3.11, -0.21 -0.63, 0 0" stroke="#E1E1E1" stroke-width="2" fill="none"></path></g></g><mask></mask><g stroke-linecap="round"><g transform="translate(37.69088029021668 90.83463683759283) rotate(0 18.4113041967112 8.574626061187189)"><path d="M0 0 C0.2 0.81, 0.17 2.79, 1.17 4.87 C2.17 6.95, 3.7 10.54, 6.01 12.5 C8.32 14.47, 12.07 15.9, 15.04 16.67 C18.02 17.44, 21.18 17.56, 23.84 17.15 C26.49 16.74, 28.98 15.77, 30.97 14.23 C32.95 12.68, 34.78 9.86, 35.76 7.86 C36.74 5.87, 36.65 3.19, 36.82 2.26 M0 0 C0.2 0.81, 0.17 2.79, 1.17 4.87 C2.17 6.95, 3.7 10.54, 6.01 12.5 C8.32 14.47, 12.07 15.9, 15.04 16.67 C18.02 17.44, 21.18 17.56, 23.84 17.15 C26.49 16.74, 28.98 15.77, 30.97 14.23 C32.95 12.68, 34.78 9.86, 35.76 7.86 C36.74 5.87, 36.65 3.19, 36.82 2.26" stroke="#E1E1E1" stroke-width="2" fill="none"></path></g></g><mask></mask><g stroke-linecap="round"><g transform="translate(54.741882337126526 91.43227956182704) rotate(0 -4.779513339584952 6.523316474555713)"><path d="M0 0 C0 0.67, 0.26 2.25, 0 4.02 C-0.26 5.8, -0.64 9.14, -1.55 10.65 C-2.46 12.15, -4.1 12.67, -5.44 13.05 C-6.77 13.42, -8.87 12.93, -9.56 12.9 M0 0 C0 0.67, 0.26 2.25, 0 4.02 C-0.26 5.8, -0.64 9.14, -1.55 10.65 C-2.46 12.15, -4.1 12.67, -5.44 13.05 C-6.77 13.42, -8.87 12.93, -9.56 12.9" stroke="#E1E1E1" stroke-width="2" fill="none"></path></g></g><mask></mask><g stroke-linecap="round"><g transform="translate(113.77226469410266 124.73525541761751) rotate(0 -15.440732163675648 6.720902261677622)"><path d="M0 0 C0.54 0.34, 3.39 1.38, 3.23 2.06 C3.06 2.74, 1.64 3.17, -0.99 4.06 C-3.62 4.95, -7.45 6.09, -12.54 7.39 C-17.63 8.68, -26.57 10.92, -31.54 11.85 C-36.51 12.78, -41.58 12.38, -42.36 12.97 C-43.14 13.56, -40.5 14.84, -36.23 15.37 C-31.96 15.91, -22.73 16.86, -16.72 16.16 C-10.71 15.46, -4.08 13.11, -0.18 11.15 C3.72 9.19, 4.74 5.3, 6.68 4.38 C8.62 3.45, 10.82 6.24, 11.48 5.6 C12.14 4.95, 11.45 1.87, 10.66 0.51 C9.88 -0.85, 8.28 -2.02, 6.76 -2.56 C5.24 -3.09, 3.03 -3, 1.55 -2.72 C0.07 -2.43, -1.85 -1.29, -2.1 -0.83 C-2.36 -0.38, -0.35 -0.14, 0 0 M0 0 C0.54 0.34, 3.39 1.38, 3.23 2.06 C3.06 2.74, 1.64 3.17, -0.99 4.06 C-3.62 4.95, -7.45 6.09, -12.54 7.39 C-17.63 8.68, -26.57 10.92, -31.54 11.85 C-36.51 12.78, -41.58 12.38, -42.36 12.97 C-43.14 13.56, -40.5 14.84, -36.23 15.37 C-31.96 15.91, -22.73 16.86, -16.72 16.16 C-10.71 15.46, -4.08 13.11, -0.18 11.15 C3.72 9.19, 4.74 5.3, 6.68 4.38 C8.62 3.45, 10.82 6.24, 11.48 5.6 C12.14 4.95, 11.45 1.87, 10.66 0.51 C9.88 -0.85, 8.28 -2.02, 6.76 -2.56 C5.24 -3.09, 3.03 -3, 1.55 -2.72 C0.07 -2.43, -1.85 -1.29, -2.1 -0.83 C-2.36 -0.38, -0.35 -0.14, 0 0" stroke="#E1E1E1" stroke-width="2" fill="none"></path></g></g><mask></mask><g stroke-linecap="round"><g transform="translate(75.46223912009896 75.67386933205466) rotate(0 -2.9772433235921483 0.3919704017748131)"><path d="M0 0 C0.3 -1.9, 0.96 -10.88, 1.78 -11.39 C2.61 -11.9, 4.61 -6.24, 4.97 -3.06 C5.34 0.12, 5.1 5.16, 3.97 7.7 C2.85 10.24, 0.7 12.24, -1.78 12.18 C-4.26 12.11, -9.4 8.14, -10.93 7.33 M0 0 C0.3 -1.9, 0.96 -10.88, 1.78 -11.39 C2.61 -11.9, 4.61 -6.24, 4.97 -3.06 C5.34 0.12, 5.1 5.16, 3.97 7.7 C2.85 10.24, 0.7 12.24, -1.78 12.18 C-4.26 12.11, -9.4 8.14, -10.93 7.33" stroke="#E1E1E1" stroke-width="1" fill="none"></path></g></g><mask></mask><g stroke-linecap="round"><g transform="translate(95.5602966792469 72.45884617255138) rotate(0 20.603589479194454 -1.5272525595064508)"><path d="M0 0 C0.23 0.88, 0.51 4.1, 1.36 5.25 C2.2 6.41, 2.08 8, 5.08 6.93 C8.08 5.86, 15.2 1.17, 19.36 -1.14 C23.51 -3.45, 26.39 -5.46, 30.03 -6.93 C33.67 -8.41, 39.34 -9.48, 41.21 -9.98 M0 0 C0.23 0.88, 0.51 4.1, 1.36 5.25 C2.2 6.41, 2.08 8, 5.08 6.93 C8.08 5.86, 15.2 1.17, 19.36 -1.14 C23.51 -3.45, 26.39 -5.46, 30.03 -6.93 C33.67 -8.41, 39.34 -9.48, 41.21 -9.98" stroke="#E1E1E1" stroke-width="1" fill="none"></path></g></g><mask></mask></svg>