<svg version="1.1" xmlns="http://www.w3.org/2000/svg" viewBox="0 0 177.8857033553668 182.39709429878462" width="177.8857033553668" height="182.39709429878462" class="excalidraw-svg"><!-- svg-source:excalidraw --><metadata></metadata><defs><style class="style-fonts">
      </style></defs><rect x="0" y="0" width="177.8857033553668" height="182.39709429878462" fill="#000000"></rect><g stroke-linecap="round" transform="translate(15.753337846201248 16.776225637269818) rotate(0 72.30676229994953 73.8189681772875)"><path d="M144.61 73.82 C144.61 76.57, 144.46 79.35, 144.16 82.08 C143.86 84.82, 143.4 87.56, 142.8 90.25 C142.2 92.93, 141.45 95.6, 140.56 98.2 C139.66 100.8, 138.62 103.37, 137.45 105.85 C136.28 108.33, 134.97 110.76, 133.53 113.09 C132.09 115.43, 130.52 117.69, 128.84 119.84 C127.16 122, 125.34 124.07, 123.44 126.02 C121.53 127.96, 119.5 129.82, 117.39 131.53 C115.28 133.25, 113.06 134.86, 110.78 136.32 C108.49 137.79, 106.11 139.13, 103.68 140.33 C101.25 141.52, 98.74 142.59, 96.19 143.5 C93.64 144.41, 91.03 145.17, 88.4 145.79 C85.77 146.4, 83.08 146.87, 80.4 147.17 C77.72 147.48, 75.01 147.64, 72.31 147.64 C69.61 147.64, 66.89 147.48, 64.21 147.17 C61.53 146.87, 58.85 146.4, 56.22 145.79 C53.59 145.17, 50.97 144.41, 48.43 143.5 C45.88 142.59, 43.37 141.52, 40.93 140.33 C38.5 139.13, 36.12 137.79, 33.84 136.32 C31.55 134.86, 29.33 133.25, 27.22 131.53 C25.11 129.82, 23.09 127.96, 21.18 126.02 C19.27 124.07, 17.46 122, 15.78 119.84 C14.09 117.69, 12.52 115.43, 11.08 113.09 C9.65 110.76, 8.33 108.33, 7.16 105.85 C5.99 103.37, 4.95 100.8, 4.06 98.2 C3.17 95.6, 2.41 92.93, 1.81 90.25 C1.21 87.56, 0.76 84.82, 0.45 82.08 C0.15 79.35, 0 76.57, 0 73.82 C0 71.06, 0.15 68.29, 0.45 65.55 C0.76 62.82, 1.21 60.08, 1.81 57.39 C2.41 54.71, 3.17 52.04, 4.06 49.44 C4.95 46.84, 5.99 44.27, 7.16 41.79 C8.33 39.31, 9.65 36.88, 11.08 34.54 C12.52 32.21, 14.09 29.95, 15.78 27.79 C17.46 25.64, 19.27 23.57, 21.18 21.62 C23.09 19.67, 25.11 17.82, 27.22 16.1 C29.33 14.39, 31.55 12.78, 33.84 11.31 C36.12 9.85, 38.5 8.51, 40.93 7.31 C43.37 6.12, 45.88 5.05, 48.43 4.14 C50.97 3.23, 53.59 2.46, 56.22 1.85 C58.85 1.24, 61.53 0.77, 64.21 0.46 C66.89 0.16, 69.61 0, 72.31 0 C75.01 0, 77.72 0.16, 80.4 0.46 C83.08 0.77, 85.77 1.24, 88.4 1.85 C91.03 2.46, 93.64 3.23, 96.19 4.14 C98.74 5.05, 101.25 6.12, 103.68 7.31 C106.11 8.51, 108.49 9.85, 110.78 11.31 C113.06 12.78, 115.28 14.39, 117.39 16.1 C119.5 17.82, 121.53 19.67, 123.44 21.62 C125.34 23.57, 127.16 25.64, 128.84 27.79 C130.52 29.95, 132.09 32.21, 133.53 34.54 C134.97 36.88, 136.28 39.31, 137.45 41.79 C138.62 44.27, 139.66 46.84, 140.56 49.44 C141.45 52.04, 142.2 54.71, 142.8 57.39 C143.4 60.08, 143.86 62.82, 144.16 65.55 C144.46 68.29, 144.54 72.44, 144.61 73.82 C144.69 75.2, 144.69 72.44, 144.61 73.82" stroke="#E1E1E1" stroke-width="2" fill="none"></path></g><g stroke-linecap="round" transform="translate(10 10) rotate(0 78.9428516776834 81.19854714939231)"><path d="M157.89 81.2 C157.89 84.03, 157.74 86.87, 157.45 89.69 C157.17 92.5, 156.73 95.31, 156.16 98.08 C155.59 100.85, 154.87 103.6, 154.02 106.29 C153.17 108.98, 152.18 111.64, 151.06 114.22 C149.94 116.81, 148.68 119.35, 147.31 121.8 C145.93 124.25, 144.43 126.64, 142.81 128.93 C141.19 131.21, 139.45 133.43, 137.61 135.53 C135.77 137.63, 133.81 139.65, 131.77 141.54 C129.72 143.43, 127.57 145.23, 125.34 146.89 C123.12 148.55, 120.8 150.1, 118.41 151.52 C116.03 152.93, 113.56 154.23, 111.05 155.38 C108.54 156.53, 105.95 157.55, 103.34 158.42 C100.72 159.3, 98.05 160.03, 95.36 160.62 C92.67 161.21, 89.93 161.66, 87.19 161.95 C84.46 162.25, 81.69 162.4, 78.94 162.4 C76.19 162.4, 73.43 162.25, 70.69 161.95 C67.96 161.66, 65.22 161.21, 62.53 160.62 C59.84 160.03, 57.16 159.3, 54.55 158.42 C51.93 157.55, 49.35 156.53, 46.83 155.38 C44.32 154.23, 41.85 152.93, 39.47 151.52 C37.09 150.1, 34.77 148.55, 32.54 146.89 C30.32 145.23, 28.16 143.43, 26.12 141.54 C24.08 139.65, 22.12 137.63, 20.28 135.53 C18.44 133.43, 16.69 131.21, 15.08 128.93 C13.46 126.64, 11.95 124.25, 10.58 121.8 C9.2 119.35, 7.94 116.81, 6.82 114.22 C5.71 111.64, 4.71 108.98, 3.86 106.29 C3.01 103.6, 2.3 100.85, 1.73 98.08 C1.15 95.31, 0.72 92.5, 0.43 89.69 C0.14 86.87, 0 84.03, 0 81.2 C0 78.37, 0.14 75.52, 0.43 72.71 C0.72 69.9, 1.15 67.08, 1.73 64.32 C2.3 61.55, 3.01 58.8, 3.86 56.11 C4.71 53.42, 5.71 50.76, 6.82 48.17 C7.94 45.59, 9.2 43.05, 10.58 40.6 C11.95 38.15, 13.46 35.76, 15.08 33.47 C16.69 31.18, 18.44 28.97, 20.28 26.87 C22.12 24.76, 24.08 22.75, 26.12 20.86 C28.16 18.96, 30.32 17.17, 32.54 15.51 C34.77 13.84, 37.09 12.29, 39.47 10.88 C41.85 9.46, 44.32 8.17, 46.83 7.02 C49.35 5.87, 51.93 4.85, 54.55 3.97 C57.16 3.1, 59.84 2.36, 62.53 1.77 C65.22 1.19, 67.96 0.74, 70.69 0.44 C73.43 0.15, 76.19 0, 78.94 0 C81.69 0, 84.46 0.15, 87.19 0.44 C89.93 0.74, 92.67 1.19, 95.36 1.77 C98.05 2.36, 100.72 3.1, 103.34 3.97 C105.95 4.85, 108.54 5.87, 111.05 7.02 C113.56 8.17, 116.03 9.46, 118.41 10.88 C120.8 12.29, 123.12 13.84, 125.34 15.51 C127.57 17.17, 129.72 18.96, 131.77 20.86 C133.81 22.75, 135.77 24.76, 137.61 26.87 C139.45 28.97, 141.19 31.18, 142.81 33.47 C144.43 35.76, 145.93 38.15, 147.31 40.6 C148.68 43.05, 149.94 45.59, 151.06 48.17 C152.18 50.76, 153.17 53.42, 154.02 56.11 C154.87 58.8, 155.59 61.55, 156.16 64.32 C156.73 67.08, 157.17 69.9, 157.45 72.71 C157.74 75.52, 157.81 79.78, 157.89 81.2 C157.96 82.61, 157.96 79.78, 157.89 81.2" stroke="#E1E1E1" stroke-width="2" fill="none"></path></g><g stroke-linecap="round"><g transform="translate(46.32915705720279 76.34671871633691) rotate(0 10.823659150222113 -0.7191543519329855)"><path d="M0 0 C1.89 0.97, 7.39 4.16, 11.33 5.79 C15.28 7.43, 20.46 9.03, 23.68 9.8 C26.9 10.57, 28.86 10.83, 30.66 10.41 C32.47 10, 34.54 8.3, 34.5 7.31 C34.45 6.32, 33.03 5.69, 30.39 4.49 C27.74 3.29, 23.24 1.99, 18.63 0.09 C14.01 -1.82, 7.26 -4.95, 2.69 -6.94 C-1.87 -8.93, -6.17 -11.2, -8.76 -11.85 C-11.35 -12.5, -12.39 -11.57, -12.85 -10.81 C-13.32 -10.06, -13.03 -8.72, -11.55 -7.33 C-10.07 -5.94, -5.87 -3.7, -3.94 -2.48 C-2.02 -1.25, -0.66 -0.41, 0 0 M0 0 C1.89 0.97, 7.39 4.16, 11.33 5.79 C15.28 7.43, 20.46 9.03, 23.68 9.8 C26.9 10.57, 28.86 10.83, 30.66 10.41 C32.47 10, 34.54 8.3, 34.5 7.31 C34.45 6.32, 33.03 5.69, 30.39 4.49 C27.74 3.29, 23.24 1.99, 18.63 0.09 C14.01 -1.82, 7.26 -4.95, 2.69 -6.94 C-1.87 -8.93, -6.17 -11.2, -8.76 -11.85 C-11.35 -12.5, -12.39 -11.57, -12.85 -10.81 C-13.32 -10.06, -13.03 -8.72, -11.55 -7.33 C-10.07 -5.94, -5.87 -3.7, -3.94 -2.48 C-2.02 -1.25, -0.66 -0.41, 0 0" stroke="#E1E1E1" stroke-width="2" fill="none"></path></g></g><mask></mask><g stroke-linecap="round"><g transform="translate(55.39967871904173 81.39669962352946) rotate(0 6.636845184704981 8.428598036267317)"><path d="M0 0 C-0.27 0.91, -1.52 3.29, -1.65 5.43 C-1.78 7.58, -1.8 10.96, -0.8 12.86 C0.21 14.76, 2.47 16.2, 4.37 16.86 C6.27 17.51, 8.9 17.63, 10.61 16.8 C12.31 15.97, 13.89 13.81, 14.61 11.85 C15.33 9.89, 14.87 6.17, 14.92 5.03 M0 0 C-0.27 0.91, -1.52 3.29, -1.65 5.43 C-1.78 7.58, -1.8 10.96, -0.8 12.86 C0.21 14.76, 2.47 16.2, 4.37 16.86 C6.27 17.51, 8.9 17.63, 10.61 16.8 C12.31 15.97, 13.89 13.81, 14.61 11.85 C15.33 9.89, 14.87 6.17, 14.92 5.03" stroke="#E1E1E1" stroke-width="2" fill="none"></path></g></g><mask></mask><g stroke-linecap="round"><g transform="translate(53.38577395459561 86.36354392528847) rotate(0 -6.875806138031919 -1.2075251215651974)"><path d="M0 0 C-2.29 -0.4, -11.46 -2.01, -13.75 -2.42 M0 0 C-2.29 -0.4, -11.46 -2.01, -13.75 -2.42" stroke="#E1E1E1" stroke-width="2" fill="none"></path></g></g><mask></mask><g stroke-linecap="round"><g transform="translate(39.6196241300413 83.93395613366556) rotate(0 18.899040187987964 11.098282527191941)"><path d="M0 0 C0.04 1.22, -0.47 4.66, 0.24 7.34 C0.95 10.02, 2.38 13.82, 4.28 16.08 C6.18 18.33, 8.89 19.85, 11.65 20.87 C14.42 21.89, 17.96 22.34, 20.89 22.2 C23.82 22.05, 26.79 21.5, 29.22 20.02 C31.65 18.54, 34.07 15.63, 35.5 13.31 C36.93 10.99, 37.48 7.81, 37.8 6.08 C38.12 4.36, 37.47 3.48, 37.41 2.96 M0 0 C0.04 1.22, -0.47 4.66, 0.24 7.34 C0.95 10.02, 2.38 13.82, 4.28 16.08 C6.18 18.33, 8.89 19.85, 11.65 20.87 C14.42 21.89, 17.96 22.34, 20.89 22.2 C23.82 22.05, 26.79 21.5, 29.22 20.02 C31.65 18.54, 34.07 15.63, 35.5 13.31 C36.93 10.99, 37.48 7.81, 37.8 6.08 C38.12 4.36, 37.47 3.48, 37.41 2.96" stroke="#E1E1E1" stroke-width="2" fill="none"></path></g></g><mask></mask><g stroke-linecap="round"><g transform="translate(107.86705411959974 87.8472824681885) rotate(0 13.29413379697587 -9.785814477454863)"><path d="M0 0 C1.36 -0.29, 4.4 -0.41, 8.15 -1.75 C11.89 -3.09, 17.88 -5.72, 22.48 -8.03 C27.07 -10.34, 33.5 -13.69, 35.73 -15.6 C37.96 -17.52, 36.55 -18.81, 35.86 -19.5 C35.17 -20.19, 34.45 -20.6, 31.61 -19.76 C28.76 -18.92, 23.09 -16.18, 18.78 -14.46 C14.47 -12.75, 9.56 -10.8, 5.75 -9.49 C1.93 -8.17, -1.61 -7.34, -4.11 -6.58 C-6.62 -5.82, -8.45 -5.77, -9.27 -4.94 C-10.09 -4.11, -9.92 -2.45, -9.04 -1.6 C-8.17 -0.75, -5.55 -0.08, -4.04 0.19 C-2.53 0.45, -0.67 0.03, 0 0 M0 0 C1.36 -0.29, 4.4 -0.41, 8.15 -1.75 C11.89 -3.09, 17.88 -5.72, 22.48 -8.03 C27.07 -10.34, 33.5 -13.69, 35.73 -15.6 C37.96 -17.52, 36.55 -18.81, 35.86 -19.5 C35.17 -20.19, 34.45 -20.6, 31.61 -19.76 C28.76 -18.92, 23.09 -16.18, 18.78 -14.46 C14.47 -12.75, 9.56 -10.8, 5.75 -9.49 C1.93 -8.17, -1.61 -7.34, -4.11 -6.58 C-6.62 -5.82, -8.45 -5.77, -9.27 -4.94 C-10.09 -4.11, -9.92 -2.45, -9.04 -1.6 C-8.17 -0.75, -5.55 -0.08, -4.04 0.19 C-2.53 0.45, -0.67 0.03, 0 0" stroke="#E1E1E1" stroke-width="2" fill="none"></path></g></g><mask></mask><g stroke-linecap="round"><g transform="translate(107.47226881838014 87.89452950078521) rotate(0 9.026681867170481 3.107628139227387)"><path d="M0 0 C0.09 0.71, -0.08 2.7, 0.53 4.26 C1.14 5.82, 2.04 8.23, 3.66 9.38 C5.29 10.53, 8.25 11.47, 10.29 11.18 C12.33 10.89, 14.6 9.09, 15.89 7.64 C17.19 6.18, 17.75 4.04, 18.05 2.47 C18.35 0.89, 17.97 -0.59, 17.7 -1.83 C17.43 -3.07, 16.64 -4.45, 16.42 -4.97 M0 0 C0.09 0.71, -0.08 2.7, 0.53 4.26 C1.14 5.82, 2.04 8.23, 3.66 9.38 C5.29 10.53, 8.25 11.47, 10.29 11.18 C12.33 10.89, 14.6 9.09, 15.89 7.64 C17.19 6.18, 17.75 4.04, 18.05 2.47 C18.35 0.89, 17.97 -0.59, 17.7 -1.83 C17.43 -3.07, 16.64 -4.45, 16.42 -4.97" stroke="#E1E1E1" stroke-width="2" fill="none"></path></g></g><mask></mask><g stroke-linecap="round"><g transform="translate(125.95630742677895 87.54971702250532) rotate(0 6.943950896585278 -1.9618875987506783)"><path d="M0 0 C2.31 -0.65, 11.57 -3.27, 13.89 -3.92 M0 0 C2.31 -0.65, 11.57 -3.27, 13.89 -3.92" stroke="#E1E1E1" stroke-width="2" fill="none"></path></g></g><mask></mask><g stroke-linecap="round"><g transform="translate(139.84420921995024 83.62594182500379) rotate(0 -18.84475153034046 11.881038653774738)"><path d="M0 0 C-0.04 1.26, 0.66 4.75, -0.24 7.58 C-1.14 10.41, -3.3 14.5, -5.41 16.99 C-7.53 19.48, -10.4 21.4, -12.92 22.53 C-15.45 23.66, -18.23 23.72, -20.55 23.76 C-22.87 23.8, -24.81 23.54, -26.84 22.78 C-28.86 22.02, -31.15 20.58, -32.7 19.22 C-34.25 17.86, -35.35 16.23, -36.15 14.6 C-36.94 12.98, -37.2 11.19, -37.46 9.46 C-37.72 7.72, -37.65 5.07, -37.69 4.2 M0 0 C-0.04 1.26, 0.66 4.75, -0.24 7.58 C-1.14 10.41, -3.3 14.5, -5.41 16.99 C-7.53 19.48, -10.4 21.4, -12.92 22.53 C-15.45 23.66, -18.23 23.72, -20.55 23.76 C-22.87 23.8, -24.81 23.54, -26.84 22.78 C-28.86 22.02, -31.15 20.58, -32.7 19.22 C-34.25 17.86, -35.35 16.23, -36.15 14.6 C-36.94 12.98, -37.2 11.19, -37.46 9.46 C-37.72 7.72, -37.65 5.07, -37.69 4.2" stroke="#E1E1E1" stroke-width="2" fill="none"></path></g></g><mask></mask><g stroke-linecap="round"><g transform="translate(111.47227692157048 87.59741495417165) rotate(0 1.930005480797007 1.350244234358172)"><path d="M0 0 C-0.1 0.24, -0.63 0.89, -0.57 1.47 C-0.52 2.05, -0.36 3.11, 0.33 3.47 C1.01 3.82, 2.83 4.11, 3.51 3.58 C4.2 3.06, 4.52 1.08, 4.43 0.34 C4.34 -0.41, 3.21 -0.68, 2.97 -0.88 M0 0 C-0.1 0.24, -0.63 0.89, -0.57 1.47 C-0.52 2.05, -0.36 3.11, 0.33 3.47 C1.01 3.82, 2.83 4.11, 3.51 3.58 C4.2 3.06, 4.52 1.08, 4.43 0.34 C4.34 -0.41, 3.21 -0.68, 2.97 -0.88" stroke="#E1E1E1" stroke-width="2" fill="none"></path></g></g><mask></mask><g stroke-linecap="round"><g transform="translate(66.38791979832786 85.33780073962043) rotate(0 -1.930005480797007 1.350244234358172)"><path d="M0 0 C0.1 0.24, 0.63 0.89, 0.57 1.47 C0.52 2.05, 0.36 3.11, -0.33 3.47 C-1.01 3.82, -2.83 4.11, -3.51 3.58 C-4.2 3.06, -4.52 1.08, -4.43 0.34 C-4.34 -0.41, -3.21 -0.68, -2.97 -0.88 M0 0 C0.1 0.24, 0.63 0.89, 0.57 1.47 C0.52 2.05, 0.36 3.11, -0.33 3.47 C-1.01 3.82, -2.83 4.11, -3.51 3.58 C-4.2 3.06, -4.52 1.08, -4.43 0.34 C-4.34 -0.41, -3.21 -0.68, -2.97 -0.88" stroke="#E1E1E1" stroke-width="2" fill="none"></path></g></g><mask></mask><g stroke-linecap="round"><g transform="translate(81.01119780270801 83.92991905064719) rotate(0 1.3545782435881506 -7.2111985078540215)"><path d="M0 0 C0.36 -0.2, 1.69 0.26, 2.14 -1.19 C2.59 -2.65, 2.67 -6.53, 2.71 -8.74 C2.75 -10.94, 2.43 -13.47, 2.37 -14.42 M0 0 C0.36 -0.2, 1.69 0.26, 2.14 -1.19 C2.59 -2.65, 2.67 -6.53, 2.71 -8.74 C2.75 -10.94, 2.43 -13.47, 2.37 -14.42" stroke="#E1E1E1" stroke-width="1" fill="none"></path></g></g><mask></mask><g stroke-linecap="round"><g transform="translate(95.44492521094435 74.11422110239164) rotate(0 1.6956826923367885 6.624105273950107)"><path d="M0 0 C0 1.6, -0.57 7.41, 0 9.61 C0.57 11.82, 2.83 12.64, 3.39 13.25 M0 0 C0 1.6, -0.57 7.41, 0 9.61 C0.57 11.82, 2.83 12.64, 3.39 13.25" stroke="#E1E1E1" stroke-width="1" fill="none"></path></g></g><mask></mask><g stroke-linecap="round"><g transform="translate(70.5785336020972 125.99368852298267) rotate(0 19.78540933297603 1.8973925981381683)"><path d="M0 0 C3.03 -0.67, 13.54 -2.85, 18.18 -4.04 C22.83 -5.23, 24.96 -6.47, 27.87 -7.14 C30.78 -7.8, 32.99 -8.33, 35.64 -8.04 C38.29 -7.76, 41.46 -7.14, 43.78 -5.43 C46.1 -3.73, 48.64 -0.11, 49.56 2.18 C50.49 4.47, 50.07 6.78, 49.34 8.31 C48.6 9.83, 47.26 10.92, 45.17 11.34 C43.08 11.77, 39.76 11.26, 36.81 10.85 C33.86 10.45, 31.05 9.23, 27.47 8.92 C23.89 8.6, 19.19 8.79, 15.35 8.96 C11.51 9.13, 7.89 9.44, 4.42 9.92 C0.95 10.4, -3.2 11.7, -5.45 11.84 C-7.7 11.98, -8.32 11.61, -9.08 10.77 C-9.84 9.92, -10.49 8.19, -9.99 6.76 C-9.5 5.34, -7.78 3.34, -6.11 2.22 C-4.45 1.09, -1.02 0.37, 0 0 M0 0 C3.03 -0.67, 13.54 -2.85, 18.18 -4.04 C22.83 -5.23, 24.96 -6.47, 27.87 -7.14 C30.78 -7.8, 32.99 -8.33, 35.64 -8.04 C38.29 -7.76, 41.46 -7.14, 43.78 -5.43 C46.1 -3.73, 48.64 -0.11, 49.56 2.18 C50.49 4.47, 50.07 6.78, 49.34 8.31 C48.6 9.83, 47.26 10.92, 45.17 11.34 C43.08 11.77, 39.76 11.26, 36.81 10.85 C33.86 10.45, 31.05 9.23, 27.47 8.92 C23.89 8.6, 19.19 8.79, 15.35 8.96 C11.51 9.13, 7.89 9.44, 4.42 9.92 C0.95 10.4, -3.2 11.7, -5.45 11.84 C-7.7 11.98, -8.32 11.61, -9.08 10.77 C-9.84 9.92, -10.49 8.19, -9.99 6.76 C-9.5 5.34, -7.78 3.34, -6.11 2.22 C-4.45 1.09, -1.02 0.37, 0 0" stroke="#E1E1E1" stroke-width="2" fill="none"></path></g></g><mask></mask><g stroke-linecap="round"><g transform="translate(68.77582790476117 126.65550012436506) rotate(0 24.025389080382666 -1.5148242954317368)"><path d="M0 0 C1.49 0.12, 5 0.65, 8.92 0.71 C12.83 0.76, 18.83 0.72, 23.51 0.34 C28.18 -0.04, 32.88 -0.9, 36.97 -1.58 C41.06 -2.25, 46.2 -3.38, 48.05 -3.74 M0 0 C1.49 0.12, 5 0.65, 8.92 0.71 C12.83 0.76, 18.83 0.72, 23.51 0.34 C28.18 -0.04, 32.88 -0.9, 36.97 -1.58 C41.06 -2.25, 46.2 -3.38, 48.05 -3.74" stroke="#E1E1E1" stroke-width="2" fill="none"></path></g></g><mask></mask><g stroke-linecap="round"><g transform="translate(99.25172057280815 145.41044784587848) rotate(0 -9.267189710412936 -0.956337698081029)"><path d="M0 0 C-0.94 -0.32, -3.33 -1.62, -5.62 -1.91 C-7.91 -2.21, -11.58 -1.84, -13.74 -1.76 C-15.89 -1.68, -17.73 -1.49, -18.53 -1.43 M0 0 C-0.94 -0.32, -3.33 -1.62, -5.62 -1.91 C-7.91 -2.21, -11.58 -1.84, -13.74 -1.76 C-15.89 -1.68, -17.73 -1.49, -18.53 -1.43" stroke="#E1E1E1" stroke-width="2" fill="none"></path></g></g><mask></mask></svg>