<svg version="1.1" xmlns="http://www.w3.org/2000/svg" viewBox="0 0 177.74739794258483 185.2897931087807" width="177.74739794258483" height="185.2897931087807" class="excalidraw-svg"><!-- svg-source:excalidraw --><metadata></metadata><defs><style class="style-fonts">
      </style></defs><rect x="0" y="0" width="177.74739794258483" height="185.2897931087807" fill="#000000"></rect><g stroke-linecap="round"><g transform="translate(41.88718359574523 58.61825065746416) rotate(0 8.849140261930955 -5.0171290145804335)"><path d="M0 0 C0.92 -0.7, 3.41 -3.05, 5.54 -4.19 C7.66 -5.34, 10.11 -6.3, 12.77 -6.85 C15.42 -7.4, 19.46 -7.11, 21.47 -7.5 C23.49 -7.89, 24.48 -8.39, 24.85 -9.17 C25.22 -9.95, 24.87 -11.28, 23.7 -12.19 C22.53 -13.09, 20.1 -14.22, 17.84 -14.58 C15.57 -14.94, 12.67 -14.91, 10.1 -14.34 C7.54 -13.77, 4.69 -12.55, 2.45 -11.17 C0.2 -9.79, -1.78 -7.9, -3.38 -6.06 C-4.98 -4.21, -6.53 -1.77, -7.15 -0.1 C-7.78 1.57, -7.57 3.2, -7.14 3.98 C-6.7 4.75, -5.44 4.85, -4.56 4.55 C-3.67 4.25, -2.57 2.94, -1.81 2.18 C-1.05 1.42, -0.3 0.36, 0 0 M0 0 C0.92 -0.7, 3.41 -3.05, 5.54 -4.19 C7.66 -5.34, 10.11 -6.3, 12.77 -6.85 C15.42 -7.4, 19.46 -7.11, 21.47 -7.5 C23.49 -7.89, 24.48 -8.39, 24.85 -9.17 C25.22 -9.95, 24.87 -11.28, 23.7 -12.19 C22.53 -13.09, 20.1 -14.22, 17.84 -14.58 C15.57 -14.94, 12.67 -14.91, 10.1 -14.34 C7.54 -13.77, 4.69 -12.55, 2.45 -11.17 C0.2 -9.79, -1.78 -7.9, -3.38 -6.06 C-4.98 -4.21, -6.53 -1.77, -7.15 -0.1 C-7.78 1.57, -7.57 3.2, -7.14 3.98 C-6.7 4.75, -5.44 4.85, -4.56 4.55 C-3.67 4.25, -2.57 2.94, -1.81 2.18 C-1.05 1.42, -0.3 0.36, 0 0" stroke="#E1E1E1" stroke-width="2" fill="none"></path></g></g><mask></mask><g stroke-linecap="round"><g transform="translate(121.84565589101294 44.20484548841523) rotate(0 5.845660851847867 9.412756151230752)"><path d="M0 0 C1.42 0.38, 5.77 1.02, 8.5 2.25 C11.22 3.49, 14.23 5.44, 16.37 7.41 C18.51 9.38, 20.48 12.17, 21.33 14.07 C22.17 15.97, 22.09 18.22, 21.44 18.83 C20.79 19.43, 19.17 18.81, 17.43 17.7 C15.69 16.59, 13.21 13.78, 11 12.18 C8.78 10.57, 6.41 9.04, 4.14 8.09 C1.87 7.15, -0.39 6.82, -2.61 6.49 C-4.84 6.17, -8.02 6.68, -9.21 6.14 C-10.4 5.59, -10.3 4.19, -9.74 3.23 C-9.19 2.26, -7.48 0.87, -5.86 0.34 C-4.23 -0.2, -0.98 0.06, 0 0 M0 0 C1.42 0.38, 5.77 1.02, 8.5 2.25 C11.22 3.49, 14.23 5.44, 16.37 7.41 C18.51 9.38, 20.48 12.17, 21.33 14.07 C22.17 15.97, 22.09 18.22, 21.44 18.83 C20.79 19.43, 19.17 18.81, 17.43 17.7 C15.69 16.59, 13.21 13.78, 11 12.18 C8.78 10.57, 6.41 9.04, 4.14 8.09 C1.87 7.15, -0.39 6.82, -2.61 6.49 C-4.84 6.17, -8.02 6.68, -9.21 6.14 C-10.4 5.59, -10.3 4.19, -9.74 3.23 C-9.19 2.26, -7.48 0.87, -5.86 0.34 C-4.23 -0.2, -0.98 0.06, 0 0" stroke="#E1E1E1" stroke-width="2" fill="none"></path></g></g><mask></mask><g stroke-linecap="round" transform="translate(43.39145130578254 76.91227156919103) rotate(0 11.715582833731418 15.336931190940987)"><path d="M23.43 15.34 C23.43 16.22, 23.37 17.13, 23.25 18 C23.14 18.87, 22.96 19.75, 22.72 20.58 C22.49 21.42, 22.2 22.24, 21.86 23.01 C21.52 23.77, 21.13 24.52, 20.69 25.2 C20.25 25.88, 19.77 26.52, 19.25 27.09 C18.73 27.66, 18.16 28.18, 17.57 28.62 C16.99 29.06, 16.36 29.45, 15.72 29.75 C15.09 30.05, 14.42 30.29, 13.75 30.44 C13.08 30.6, 12.39 30.67, 11.72 30.67 C11.04 30.67, 10.35 30.6, 9.68 30.44 C9.01 30.29, 8.35 30.05, 7.71 29.75 C7.07 29.45, 6.45 29.06, 5.86 28.62 C5.27 28.18, 4.7 27.66, 4.18 27.09 C3.67 26.52, 3.18 25.88, 2.74 25.2 C2.31 24.52, 1.91 23.77, 1.57 23.01 C1.23 22.24, 0.94 21.42, 0.71 20.58 C0.47 19.75, 0.3 18.87, 0.18 18 C0.06 17.13, 0 16.22, 0 15.34 C0 14.45, 0.06 13.55, 0.18 12.67 C0.3 11.8, 0.47 10.93, 0.71 10.09 C0.94 9.26, 1.23 8.44, 1.57 7.67 C1.91 6.9, 2.31 6.16, 2.74 5.48 C3.18 4.8, 3.67 4.16, 4.18 3.59 C4.7 3.02, 5.27 2.5, 5.86 2.05 C6.45 1.61, 7.07 1.23, 7.71 0.92 C8.35 0.62, 9.01 0.39, 9.68 0.23 C10.35 0.08, 11.04 0, 11.72 0 C12.39 0, 13.08 0.08, 13.75 0.23 C14.42 0.39, 15.09 0.62, 15.72 0.92 C16.36 1.23, 16.99 1.61, 17.57 2.05 C18.16 2.5, 18.73 3.02, 19.25 3.59 C19.77 4.16, 20.25 4.8, 20.69 5.48 C21.13 6.16, 21.52 6.9, 21.86 7.67 C22.2 8.44, 22.49 9.26, 22.72 10.09 C22.96 10.93, 23.14 11.8, 23.25 12.67 C23.37 13.55, 23.4 14.89, 23.43 15.34 C23.46 15.78, 23.46 14.89, 23.43 15.34" stroke="#E1E1E1" stroke-width="2" fill="none"></path></g><g stroke-linecap="round" transform="translate(56.824992468255004 82.3062826177511) rotate(0 3.200406331682615 3.433100991756419)"><path d="M6.4 3.43 C6.4 3.63, 6.38 3.83, 6.35 4.03 C6.32 4.22, 6.27 4.42, 6.21 4.61 C6.14 4.79, 6.06 4.98, 5.97 5.15 C5.88 5.32, 5.77 5.49, 5.65 5.64 C5.53 5.79, 5.4 5.94, 5.26 6.06 C5.12 6.19, 4.96 6.31, 4.8 6.41 C4.64 6.51, 4.47 6.59, 4.3 6.66 C4.12 6.73, 3.94 6.78, 3.76 6.81 C3.57 6.85, 3.39 6.87, 3.2 6.87 C3.02 6.87, 2.83 6.85, 2.64 6.81 C2.46 6.78, 2.28 6.73, 2.11 6.66 C1.93 6.59, 1.76 6.51, 1.6 6.41 C1.44 6.31, 1.29 6.19, 1.14 6.06 C1 5.94, 0.87 5.79, 0.75 5.64 C0.63 5.49, 0.52 5.32, 0.43 5.15 C0.34 4.98, 0.26 4.79, 0.19 4.61 C0.13 4.42, 0.08 4.22, 0.05 4.03 C0.02 3.83, 0 3.63, 0 3.43 C0 3.23, 0.02 3.03, 0.05 2.84 C0.08 2.64, 0.13 2.45, 0.19 2.26 C0.26 2.07, 0.34 1.89, 0.43 1.72 C0.52 1.54, 0.63 1.38, 0.75 1.23 C0.87 1.07, 1 0.93, 1.14 0.8 C1.29 0.68, 1.44 0.56, 1.6 0.46 C1.76 0.36, 1.93 0.28, 2.11 0.21 C2.28 0.14, 2.46 0.09, 2.64 0.05 C2.83 0.02, 3.02 0, 3.2 0 C3.39 0, 3.57 0.02, 3.76 0.05 C3.94 0.09, 4.12 0.14, 4.3 0.21 C4.47 0.28, 4.64 0.36, 4.8 0.46 C4.96 0.56, 5.12 0.68, 5.26 0.8 C5.4 0.93, 5.53 1.07, 5.65 1.23 C5.77 1.38, 5.88 1.54, 5.97 1.72 C6.06 1.89, 6.14 2.07, 6.21 2.26 C6.27 2.45, 6.32 2.64, 6.35 2.84 C6.38 3.03, 6.39 3.33, 6.4 3.43 C6.41 3.53, 6.41 3.33, 6.4 3.43" stroke="#E1E1E1" stroke-width="2" fill="none"></path></g><g stroke-linecap="round"><g transform="translate(126.6000047397265 91.76008140032263) rotate(0 -3.2512894336692 3.113925170202833)"><path d="M0 0 C-0.92 0.06, -3.72 0.69, -5.5 0.37 C-7.28 0.04, -9.04 -0.86, -10.68 -1.95 C-12.32 -3.03, -14.1 -5.14, -15.33 -6.14 C-16.57 -7.13, -17.2 -7.71, -18.09 -7.93 C-18.99 -8.14, -20.22 -8.08, -20.71 -7.43 C-21.2 -6.79, -21.18 -5.55, -21.06 -4.06 C-20.94 -2.56, -20.84 -0.47, -19.97 1.54 C-19.11 3.54, -17.58 6.06, -15.85 7.95 C-14.11 9.84, -11.71 11.84, -9.56 12.88 C-7.4 13.91, -5.23 14.13, -2.92 14.15 C-0.61 14.18, 2.1 14.01, 4.31 13.04 C6.53 12.06, 8.7 10.2, 10.36 8.29 C12.02 6.38, 13.56 3.61, 14.26 1.55 C14.96 -0.5, 14.81 -2.72, 14.56 -4.04 C14.3 -5.36, 13.57 -6.07, 12.72 -6.36 C11.86 -6.65, 10.73 -6.43, 9.42 -5.76 C8.12 -5.1, 6.48 -3.33, 4.91 -2.37 C3.34 -1.41, 0.82 -0.4, 0 0 M0 0 C-0.92 0.06, -3.72 0.69, -5.5 0.37 C-7.28 0.04, -9.04 -0.86, -10.68 -1.95 C-12.32 -3.03, -14.1 -5.14, -15.33 -6.14 C-16.57 -7.13, -17.2 -7.71, -18.09 -7.93 C-18.99 -8.14, -20.22 -8.08, -20.71 -7.43 C-21.2 -6.79, -21.18 -5.55, -21.06 -4.06 C-20.94 -2.56, -20.84 -0.47, -19.97 1.54 C-19.11 3.54, -17.58 6.06, -15.85 7.95 C-14.11 9.84, -11.71 11.84, -9.56 12.88 C-7.4 13.91, -5.23 14.13, -2.92 14.15 C-0.61 14.18, 2.1 14.01, 4.31 13.04 C6.53 12.06, 8.7 10.2, 10.36 8.29 C12.02 6.38, 13.56 3.61, 14.26 1.55 C14.96 -0.5, 14.81 -2.72, 14.56 -4.04 C14.3 -5.36, 13.57 -6.07, 12.72 -6.36 C11.86 -6.65, 10.73 -6.43, 9.42 -5.76 C8.12 -5.1, 6.48 -3.33, 4.91 -2.37 C3.34 -1.41, 0.82 -0.4, 0 0" stroke="#E1E1E1" stroke-width="2" fill="none"></path></g></g><mask></mask><g stroke-linecap="round"><g transform="translate(85.46536651273709 135.1231102069505) rotate(0 5.133260217039492 -1.5398654689236366)"><path d="M0 0 C1.68 -0.03, 6.94 0.36, 10.05 -0.16 C13.16 -0.67, 16.13 -1.68, 18.65 -3.09 C21.18 -4.49, 23.43 -7.13, 25.21 -8.59 C26.98 -10.04, 28 -11.47, 29.29 -11.79 C30.58 -12.12, 32.21 -11.32, 32.96 -10.51 C33.71 -9.7, 34.38 -8.53, 33.81 -6.95 C33.24 -5.37, 31.7 -3.08, 29.56 -1.04 C27.43 0.99, 24.02 3.64, 20.97 5.26 C17.93 6.87, 14.26 8.09, 11.31 8.67 C8.36 9.24, 6.09 8.85, 3.27 8.71 C0.44 8.58, -2.7 8.57, -5.66 7.86 C-8.63 7.15, -11.94 5.86, -14.55 4.43 C-17.16 3, -19.82 1, -21.32 -0.7 C-22.82 -2.4, -23.56 -4.54, -23.54 -5.77 C-23.53 -6.99, -22.43 -8.15, -21.25 -8.07 C-20.07 -7.99, -18.27 -6.35, -16.49 -5.3 C-14.71 -4.26, -12.29 -2.58, -10.57 -1.79 C-8.85 -0.99, -7.93 -0.84, -6.17 -0.54 C-4.41 -0.24, -1.03 -0.09, 0 0 M0 0 C1.68 -0.03, 6.94 0.36, 10.05 -0.16 C13.16 -0.67, 16.13 -1.68, 18.65 -3.09 C21.18 -4.49, 23.43 -7.13, 25.21 -8.59 C26.98 -10.04, 28 -11.47, 29.29 -11.79 C30.58 -12.12, 32.21 -11.32, 32.96 -10.51 C33.71 -9.7, 34.38 -8.53, 33.81 -6.95 C33.24 -5.37, 31.7 -3.08, 29.56 -1.04 C27.43 0.99, 24.02 3.64, 20.97 5.26 C17.93 6.87, 14.26 8.09, 11.31 8.67 C8.36 9.24, 6.09 8.85, 3.27 8.71 C0.44 8.58, -2.7 8.57, -5.66 7.86 C-8.63 7.15, -11.94 5.86, -14.55 4.43 C-17.16 3, -19.82 1, -21.32 -0.7 C-22.82 -2.4, -23.56 -4.54, -23.54 -5.77 C-23.53 -6.99, -22.43 -8.15, -21.25 -8.07 C-20.07 -7.99, -18.27 -6.35, -16.49 -5.3 C-14.71 -4.26, -12.29 -2.58, -10.57 -1.79 C-8.85 -0.99, -7.93 -0.84, -6.17 -0.54 C-4.41 -0.24, -1.03 -0.09, 0 0" stroke="#E1E1E1" stroke-width="2" fill="none"></path></g></g><mask></mask><g stroke-linecap="round" transform="translate(16.281591698911143 14.697257915843693) rotate(0 72.15250297781952 76.91675708281258)"><path d="M144.31 76.92 C144.31 79.79, 144.15 82.68, 143.85 85.53 C143.55 88.38, 143.1 91.23, 142.5 94.03 C141.9 96.83, 141.15 99.61, 140.26 102.32 C139.37 105.03, 138.33 107.7, 137.16 110.29 C135.99 112.88, 134.68 115.41, 133.25 117.84 C131.81 120.27, 130.24 122.63, 128.56 124.87 C126.88 127.12, 125.08 129.28, 123.17 131.31 C121.27 133.33, 119.24 135.26, 117.14 137.05 C115.03 138.84, 112.82 140.52, 110.54 142.04 C108.26 143.57, 105.88 144.97, 103.46 146.22 C101.03 147.46, 98.52 148.57, 95.98 149.52 C93.44 150.47, 90.83 151.27, 88.21 151.91 C85.58 152.54, 82.91 153.03, 80.23 153.35 C77.56 153.67, 74.85 153.83, 72.15 153.83 C69.46 153.83, 66.75 153.67, 64.07 153.35 C61.4 153.03, 58.72 152.54, 56.1 151.91 C53.47 151.27, 50.86 150.47, 48.32 149.52 C45.78 148.57, 43.27 147.46, 40.85 146.22 C38.42 144.97, 36.05 143.57, 33.77 142.04 C31.48 140.52, 29.27 138.84, 27.17 137.05 C25.06 135.26, 23.04 133.33, 21.13 131.31 C19.23 129.28, 17.42 127.12, 15.74 124.87 C14.06 122.63, 12.49 120.27, 11.06 117.84 C9.63 115.41, 8.31 112.88, 7.15 110.29 C5.98 107.7, 4.94 105.03, 4.05 102.32 C3.16 99.61, 2.41 96.83, 1.81 94.03 C1.21 91.23, 0.76 88.38, 0.45 85.53 C0.15 82.68, 0 79.79, 0 76.92 C0 74.05, 0.15 71.16, 0.45 68.3 C0.76 65.45, 1.21 62.6, 1.81 59.8 C2.41 57, 3.16 54.22, 4.05 51.51 C4.94 48.8, 5.98 46.13, 7.15 43.54 C8.31 40.96, 9.63 38.43, 11.06 35.99 C12.49 33.56, 14.06 31.2, 15.74 28.96 C17.42 26.72, 19.23 24.56, 21.13 22.53 C23.04 20.5, 25.06 18.57, 27.17 16.78 C29.27 14.99, 31.48 13.32, 33.77 11.79 C36.05 10.26, 38.42 8.86, 40.85 7.62 C43.27 6.37, 45.78 5.26, 48.32 4.32 C50.86 3.37, 53.47 2.57, 56.1 1.93 C58.72 1.29, 61.4 0.81, 64.07 0.48 C66.75 0.16, 69.46 0, 72.15 0 C74.85 0, 77.56 0.16, 80.23 0.48 C82.91 0.81, 85.58 1.29, 88.21 1.93 C90.83 2.57, 93.44 3.37, 95.98 4.32 C98.52 5.26, 101.03 6.37, 103.46 7.62 C105.88 8.86, 108.26 10.26, 110.54 11.79 C112.82 13.32, 115.03 14.99, 117.14 16.78 C119.24 18.57, 121.27 20.5, 123.17 22.53 C125.08 24.56, 126.88 26.72, 128.56 28.96 C130.24 31.2, 131.81 33.56, 133.25 35.99 C134.68 38.43, 135.99 40.96, 137.16 43.54 C138.33 46.13, 139.37 48.8, 140.26 51.51 C141.15 54.22, 141.9 57, 142.5 59.8 C143.1 62.6, 143.55 65.45, 143.85 68.3 C144.15 71.16, 144.23 75.48, 144.31 76.92 C144.38 78.35, 144.38 75.48, 144.31 76.92" stroke="#E1E1E1" stroke-width="2" fill="none"></path></g><g stroke-linecap="round" transform="translate(10 10) rotate(0 78.87369897129241 82.64489655439036)"><path d="M157.75 82.64 C157.75 85.52, 157.6 88.42, 157.32 91.28 C157.03 94.15, 156.6 97.01, 156.02 99.83 C155.45 102.64, 154.74 105.44, 153.89 108.18 C153.04 110.92, 152.05 113.63, 150.93 116.26 C149.81 118.89, 148.55 121.47, 147.18 123.97 C145.81 126.46, 144.3 128.89, 142.68 131.22 C141.07 133.55, 139.33 135.81, 137.49 137.95 C135.65 140.09, 133.69 142.14, 131.65 144.06 C129.61 145.99, 127.46 147.81, 125.23 149.51 C123.01 151.2, 120.69 152.78, 118.31 154.22 C115.93 155.66, 113.47 156.97, 110.95 158.14 C108.44 159.32, 105.86 160.36, 103.25 161.24 C100.63 162.13, 97.96 162.89, 95.27 163.48 C92.58 164.08, 89.85 164.54, 87.12 164.84 C84.39 165.14, 81.62 165.29, 78.87 165.29 C76.13 165.29, 73.36 165.14, 70.63 164.84 C67.9 164.54, 65.16 164.08, 62.47 163.48 C59.79 162.89, 57.11 162.13, 54.5 161.24 C51.89 160.36, 49.3 159.32, 46.79 158.14 C44.28 156.97, 41.82 155.66, 39.44 154.22 C37.06 152.78, 34.74 151.2, 32.51 149.51 C30.29 147.81, 28.14 145.99, 26.1 144.06 C24.05 142.14, 22.1 140.09, 20.26 137.95 C18.42 135.81, 16.68 133.55, 15.06 131.22 C13.45 128.89, 11.94 126.46, 10.57 123.97 C9.19 121.47, 7.94 118.89, 6.82 116.26 C5.7 113.63, 4.71 110.92, 3.86 108.18 C3.01 105.44, 2.29 102.64, 1.72 99.83 C1.15 97.01, 0.72 94.15, 0.43 91.28 C0.14 88.42, 0 85.52, 0 82.64 C0 79.77, 0.14 76.87, 0.43 74.01 C0.72 71.14, 1.15 68.28, 1.72 65.46 C2.29 62.65, 3.01 59.84, 3.86 57.11 C4.71 54.37, 5.7 51.66, 6.82 49.03 C7.94 46.4, 9.19 43.82, 10.57 41.32 C11.94 38.83, 13.45 36.4, 15.06 34.07 C16.68 31.74, 18.42 29.48, 20.26 27.34 C22.1 25.2, 24.05 23.15, 26.1 21.23 C28.14 19.3, 30.29 17.48, 32.51 15.78 C34.74 14.09, 37.06 12.51, 39.44 11.07 C41.82 9.63, 44.28 8.32, 46.79 7.15 C49.3 5.97, 51.89 4.93, 54.5 4.04 C57.11 3.16, 59.79 2.4, 62.47 1.81 C65.16 1.21, 67.9 0.75, 70.63 0.45 C73.36 0.15, 76.13 0, 78.87 0 C81.62 0, 84.39 0.15, 87.12 0.45 C89.85 0.75, 92.58 1.21, 95.27 1.81 C97.96 2.4, 100.63 3.16, 103.25 4.04 C105.86 4.93, 108.44 5.97, 110.95 7.15 C113.47 8.32, 115.93 9.63, 118.31 11.07 C120.69 12.51, 123.01 14.09, 125.23 15.78 C127.46 17.48, 129.61 19.3, 131.65 21.23 C133.69 23.15, 135.65 25.2, 137.49 27.34 C139.33 29.48, 141.07 31.74, 142.68 34.07 C144.3 36.4, 145.81 38.83, 147.18 41.32 C148.55 43.82, 149.81 46.4, 150.93 49.03 C152.05 51.66, 153.04 54.37, 153.89 57.11 C154.74 59.84, 155.45 62.65, 156.02 65.46 C156.6 68.28, 157.03 71.14, 157.32 74.01 C157.6 76.87, 157.68 81.21, 157.75 82.64 C157.82 84.08, 157.82 81.21, 157.75 82.64" stroke="#E1E1E1" stroke-width="2" fill="none"></path></g></svg>