<svg version="1.1" xmlns="http://www.w3.org/2000/svg" viewBox="0 0 182.29047634187782 184.58961152304914" width="182.29047634187782" height="184.58961152304914" class="excalidraw-svg"><!-- svg-source:excalidraw --><metadata></metadata><defs><style class="style-fonts">
      </style></defs><rect x="0" y="0" width="182.29047634187782" height="184.58961152304914" fill="#000000"></rect><g stroke-linecap="round" transform="translate(10 10) rotate(0 81.14523817093891 82.29480576152457)"><path d="M162.29 82.29 C162.29 85.16, 162.14 88.05, 161.85 90.9 C161.55 93.75, 161.11 96.6, 160.52 99.4 C159.93 102.21, 159.19 105, 158.32 107.73 C157.45 110.45, 156.43 113.15, 155.28 115.77 C154.13 118.39, 152.83 120.96, 151.42 123.44 C150.01 125.93, 148.45 128.35, 146.79 130.67 C145.13 132.99, 143.34 135.23, 141.45 137.36 C139.56 139.49, 137.54 141.53, 135.44 143.45 C133.34 145.37, 131.13 147.19, 128.84 148.87 C126.55 150.56, 124.17 152.13, 121.72 153.56 C119.27 155, 116.73 156.31, 114.15 157.47 C111.57 158.64, 108.91 159.68, 106.22 160.56 C103.53 161.45, 100.78 162.2, 98.02 162.79 C95.25 163.39, 92.44 163.84, 89.63 164.14 C86.82 164.44, 83.97 164.59, 81.15 164.59 C78.32 164.59, 75.48 164.44, 72.66 164.14 C69.85 163.84, 67.04 163.39, 64.27 162.79 C61.51 162.2, 58.76 161.45, 56.07 160.56 C53.38 159.68, 50.72 158.64, 48.14 157.47 C45.56 156.31, 43.02 155, 40.57 153.56 C38.12 152.13, 35.74 150.56, 33.45 148.87 C31.16 147.19, 28.95 145.37, 26.85 143.45 C24.75 141.53, 22.73 139.49, 20.84 137.36 C18.95 135.23, 17.16 132.99, 15.5 130.67 C13.84 128.35, 12.29 125.93, 10.87 123.44 C9.46 120.96, 8.17 118.39, 7.02 115.77 C5.87 113.15, 4.85 110.45, 3.97 107.73 C3.1 105, 2.36 102.21, 1.77 99.4 C1.19 96.6, 0.74 93.75, 0.44 90.9 C0.15 88.05, 0 85.16, 0 82.29 C0 79.43, 0.15 76.54, 0.44 73.69 C0.74 70.84, 1.19 67.99, 1.77 65.18 C2.36 62.38, 3.1 59.59, 3.97 56.86 C4.85 54.14, 5.87 51.44, 7.02 48.82 C8.17 46.2, 9.46 43.63, 10.87 41.15 C12.29 38.66, 13.84 36.24, 15.5 33.92 C17.16 31.6, 18.95 29.36, 20.84 27.23 C22.73 25.1, 24.75 23.06, 26.85 21.14 C28.95 19.22, 31.16 17.4, 33.45 15.72 C35.74 14.03, 38.12 12.46, 40.57 11.03 C43.02 9.59, 45.56 8.28, 48.14 7.11 C50.72 5.95, 53.38 4.91, 56.07 4.03 C58.76 3.14, 61.51 2.39, 64.27 1.8 C67.04 1.2, 69.85 0.75, 72.66 0.45 C75.48 0.15, 78.32 0, 81.15 0 C83.97 0, 86.82 0.15, 89.63 0.45 C92.44 0.75, 95.25 1.2, 98.02 1.8 C100.78 2.39, 103.53 3.14, 106.22 4.03 C108.91 4.91, 111.57 5.95, 114.15 7.11 C116.73 8.28, 119.27 9.59, 121.72 11.03 C124.17 12.46, 126.55 14.03, 128.84 15.72 C131.13 17.4, 133.34 19.22, 135.44 21.14 C137.54 23.06, 139.56 25.1, 141.45 27.23 C143.34 29.36, 145.13 31.6, 146.79 33.92 C148.45 36.24, 150.01 38.66, 151.42 41.15 C152.83 43.63, 154.13 46.2, 155.28 48.82 C156.43 51.44, 157.45 54.14, 158.32 56.86 C159.19 59.59, 159.93 62.38, 160.52 65.18 C161.11 67.99, 161.55 70.84, 161.85 73.69 C162.14 76.54, 162.22 80.86, 162.29 82.29 C162.36 83.73, 162.36 80.86, 162.29 82.29" stroke="#E1E1E1" stroke-width="2" fill="none"></path></g><g stroke-linecap="round"><g transform="translate(33.87556209026843 102.84858982686455) rotate(0 1.8708801262146153 18.738993540197214)"><path d="M0 0 C-0.63 1.21, -2.71 4.4, -3.78 7.28 C-4.85 10.17, -5.95 13.7, -6.4 17.29 C-6.86 20.87, -7.01 25.67, -6.5 28.79 C-5.99 31.92, -4.86 34.59, -3.34 36.03 C-1.83 37.48, 0.67 37.79, 2.56 37.48 C4.45 37.17, 6.71 35.71, 7.99 34.17 C9.27 32.63, 10.03 30.52, 10.24 28.23 C10.46 25.94, 10.12 23.68, 9.27 20.43 C8.43 17.19, 6.71 12.15, 5.16 8.75 C3.62 5.34, 0.86 1.46, 0 0 M0 0 C-0.63 1.21, -2.71 4.4, -3.78 7.28 C-4.85 10.17, -5.95 13.7, -6.4 17.29 C-6.86 20.87, -7.01 25.67, -6.5 28.79 C-5.99 31.92, -4.86 34.59, -3.34 36.03 C-1.83 37.48, 0.67 37.79, 2.56 37.48 C4.45 37.17, 6.71 35.71, 7.99 34.17 C9.27 32.63, 10.03 30.52, 10.24 28.23 C10.46 25.94, 10.12 23.68, 9.27 20.43 C8.43 17.19, 6.71 12.15, 5.16 8.75 C3.62 5.34, 0.86 1.46, 0 0" stroke="#E1E1E1" stroke-width="2" fill="none"></path></g></g><mask></mask><g stroke-linecap="round"><g transform="translate(33.14678296486636 104.58985138006028) rotate(0 2.8695678062761374 13.85695423477084)"><path d="M0 0 C-0.3 1.43, -1.38 6, -1.79 8.58 C-2.2 11.16, -2.56 12.81, -2.47 15.49 C-2.37 18.17, -2 22.42, -1.23 24.68 C-0.46 26.93, 0.85 28.51, 2.14 29.04 C3.43 29.56, 5.48 28.9, 6.49 27.83 C7.5 26.76, 8.28 25.24, 8.2 22.62 C8.12 20.01, 6.97 15.37, 6.01 12.15 C5.04 8.93, 3.25 5.53, 2.41 3.29 C1.57 1.04, 1.2 -0.55, 0.96 -1.32 M0 0 C-0.3 1.43, -1.38 6, -1.79 8.58 C-2.2 11.16, -2.56 12.81, -2.47 15.49 C-2.37 18.17, -2 22.42, -1.23 24.68 C-0.46 26.93, 0.85 28.51, 2.14 29.04 C3.43 29.56, 5.48 28.9, 6.49 27.83 C7.5 26.76, 8.28 25.24, 8.2 22.62 C8.12 20.01, 6.97 15.37, 6.01 12.15 C5.04 8.93, 3.25 5.53, 2.41 3.29 C1.57 1.04, 1.2 -0.55, 0.96 -1.32" stroke="#E1E1E1" stroke-width="2" fill="none"></path></g></g><mask></mask><g stroke-linecap="round"><g transform="translate(27.145807423685255 128.84686879192395) rotate(0 63.55266307430148 -37.33535459442123)"><path d="M0 0 C-0.93 -1.75, -3.9 -6.31, -5.56 -10.49 C-7.22 -14.68, -9.18 -18.9, -9.95 -25.12 C-10.73 -31.35, -11.29 -40.27, -10.23 -47.86 C-9.16 -55.44, -7.12 -63.91, -3.56 -70.63 C-0.01 -77.36, 5.09 -82.72, 11.11 -88.22 C17.12 -93.73, 25.45 -99.89, 32.53 -103.68 C39.62 -107.47, 46.59 -109.58, 53.62 -110.97 C60.65 -112.35, 67.57 -113.16, 74.71 -112.01 C81.85 -110.85, 89.45 -107.78, 96.46 -104.03 C103.46 -100.29, 111.23 -94.73, 116.73 -89.53 C122.23 -84.32, 126.07 -79.31, 129.48 -72.81 C132.88 -66.32, 135.86 -58.49, 137.17 -50.56 C138.47 -42.64, 138.51 -33.06, 137.33 -25.24 C136.15 -17.41, 133.73 -10.57, 130.1 -3.62 C126.48 3.32, 121.34 10.62, 115.59 16.42 C109.83 22.21, 103.07 27.68, 95.59 31.17 C88.12 34.66, 79.98 36.91, 70.73 37.34 C61.48 37.76, 49.03 36.42, 40.1 33.72 C31.17 31.01, 22.61 24.74, 17.15 21.11 C11.68 17.48, 8.93 13.45, 7.29 11.91 M0 0 C-0.93 -1.75, -3.9 -6.31, -5.56 -10.49 C-7.22 -14.68, -9.18 -18.9, -9.95 -25.12 C-10.73 -31.35, -11.29 -40.27, -10.23 -47.86 C-9.16 -55.44, -7.12 -63.91, -3.56 -70.63 C-0.01 -77.36, 5.09 -82.72, 11.11 -88.22 C17.12 -93.73, 25.45 -99.89, 32.53 -103.68 C39.62 -107.47, 46.59 -109.58, 53.62 -110.97 C60.65 -112.35, 67.57 -113.16, 74.71 -112.01 C81.85 -110.85, 89.45 -107.78, 96.46 -104.03 C103.46 -100.29, 111.23 -94.73, 116.73 -89.53 C122.23 -84.32, 126.07 -79.31, 129.48 -72.81 C132.88 -66.32, 135.86 -58.49, 137.17 -50.56 C138.47 -42.64, 138.51 -33.06, 137.33 -25.24 C136.15 -17.41, 133.73 -10.57, 130.1 -3.62 C126.48 3.32, 121.34 10.62, 115.59 16.42 C109.83 22.21, 103.07 27.68, 95.59 31.17 C88.12 34.66, 79.98 36.91, 70.73 37.34 C61.48 37.76, 49.03 36.42, 40.1 33.72 C31.17 31.01, 22.61 24.74, 17.15 21.11 C11.68 17.48, 8.93 13.45, 7.29 11.91" stroke="#E1E1E1" stroke-width="2" fill="none"></path></g></g><mask></mask><g stroke-linecap="round"><g transform="translate(74.86834678118976 135.44375676705295) rotate(0 17.650770139014128 -3.884132460141629)"><path d="M0 0 C1.47 -0.56, 5.58 -2.71, 8.82 -3.36 C12.06 -4.01, 15.8 -4.3, 19.44 -3.89 C23.08 -3.47, 26.98 -2.44, 30.65 -0.88 C34.33 0.68, 38.93 4.28, 41.5 5.46 C44.06 6.65, 45.19 6.89, 46.04 6.25 C46.88 5.61, 47.27 3.68, 46.58 1.62 C45.89 -0.45, 44.33 -3.81, 41.89 -6.13 C39.45 -8.46, 35.35 -10.94, 31.94 -12.33 C28.54 -13.71, 25.03 -14.14, 21.45 -14.43 C17.87 -14.73, 14.24 -14.85, 10.46 -14.08 C6.67 -13.31, 1.93 -11.69, -1.29 -9.84 C-4.51 -7.98, -7.21 -5.12, -8.87 -2.93 C-10.54 -0.74, -11.1 1.68, -11.28 3.28 C-11.46 4.88, -10.68 6.25, -9.94 6.67 C-9.21 7.08, -8.04 6.5, -6.86 5.76 C-5.68 5.01, -4.03 3.16, -2.89 2.2 C-1.74 1.24, -0.48 0.37, 0 0 M0 0 C1.47 -0.56, 5.58 -2.71, 8.82 -3.36 C12.06 -4.01, 15.8 -4.3, 19.44 -3.89 C23.08 -3.47, 26.98 -2.44, 30.65 -0.88 C34.33 0.68, 38.93 4.28, 41.5 5.46 C44.06 6.65, 45.19 6.89, 46.04 6.25 C46.88 5.61, 47.27 3.68, 46.58 1.62 C45.89 -0.45, 44.33 -3.81, 41.89 -6.13 C39.45 -8.46, 35.35 -10.94, 31.94 -12.33 C28.54 -13.71, 25.03 -14.14, 21.45 -14.43 C17.87 -14.73, 14.24 -14.85, 10.46 -14.08 C6.67 -13.31, 1.93 -11.69, -1.29 -9.84 C-4.51 -7.98, -7.21 -5.12, -8.87 -2.93 C-10.54 -0.74, -11.1 1.68, -11.28 3.28 C-11.46 4.88, -10.68 6.25, -9.94 6.67 C-9.21 7.08, -8.04 6.5, -6.86 5.76 C-5.68 5.01, -4.03 3.16, -2.89 2.2 C-1.74 1.24, -0.48 0.37, 0 0" stroke="#E1E1E1" stroke-width="2" fill="none"></path></g></g><mask></mask><g stroke-linecap="round"><g transform="translate(71.5685390126655 95.60296365079466) rotate(0 -16.20856830549559 -3.843008495208892)"><path d="M0 0 C-0.59 0.74, -2.12 3.21, -3.57 4.47 C-5.02 5.73, -6.75 6.87, -8.7 7.57 C-10.65 8.27, -13.01 8.67, -15.28 8.67 C-17.54 8.67, -19.9 8.59, -22.29 7.57 C-24.69 6.55, -27.79 4.33, -29.66 2.55 C-31.54 0.76, -32.5 -1.03, -33.54 -3.15 C-34.58 -5.27, -36.47 -9.4, -35.9 -10.15 C-35.33 -10.91, -32.56 -8.38, -30.14 -7.68 C-27.72 -6.98, -24.39 -5.93, -21.39 -5.93 C-18.39 -5.93, -15.1 -6.52, -12.14 -7.68 C-9.18 -8.83, -5.75 -11.43, -3.63 -12.87 C-1.51 -14.32, -0.59 -16.37, 0.6 -16.36 C1.78 -16.35, 3.05 -14.49, 3.48 -12.79 C3.92 -11.09, 3.78 -8.3, 3.2 -6.17 C2.62 -4.04, 0.53 -1.03, 0 0 M0 0 C-0.59 0.74, -2.12 3.21, -3.57 4.47 C-5.02 5.73, -6.75 6.87, -8.7 7.57 C-10.65 8.27, -13.01 8.67, -15.28 8.67 C-17.54 8.67, -19.9 8.59, -22.29 7.57 C-24.69 6.55, -27.79 4.33, -29.66 2.55 C-31.54 0.76, -32.5 -1.03, -33.54 -3.15 C-34.58 -5.27, -36.47 -9.4, -35.9 -10.15 C-35.33 -10.91, -32.56 -8.38, -30.14 -7.68 C-27.72 -6.98, -24.39 -5.93, -21.39 -5.93 C-18.39 -5.93, -15.1 -6.52, -12.14 -7.68 C-9.18 -8.83, -5.75 -11.43, -3.63 -12.87 C-1.51 -14.32, -0.59 -16.37, 0.6 -16.36 C1.78 -16.35, 3.05 -14.49, 3.48 -12.79 C3.92 -11.09, 3.78 -8.3, 3.2 -6.17 C2.62 -4.04, 0.53 -1.03, 0 0" stroke="#E1E1E1" stroke-width="2" fill="none"></path></g></g><mask></mask><g stroke-linecap="round"><g transform="translate(119.69034521958201 86.96484878868796) rotate(0 5.756574255910692 4.646747759224638)"><path d="M0 0 C0.6 0.32, 2.02 1.58, 3.63 1.93 C5.24 2.29, 7.41 2.51, 9.68 2.15 C11.96 1.79, 14.91 0.72, 17.28 -0.21 C19.66 -1.14, 22.82 -3.7, 23.95 -3.42 C25.09 -3.14, 24.69 -0.56, 24.1 1.47 C23.51 3.49, 21.99 6.6, 20.42 8.73 C18.84 10.85, 16.59 12.95, 14.63 14.22 C12.67 15.49, 10.64 15.99, 8.65 16.34 C6.67 16.69, 4.84 16.78, 2.74 16.34 C0.63 15.89, -1.86 15.13, -3.95 13.67 C-6.04 12.21, -8.39 9.51, -9.81 7.56 C-11.23 5.61, -12.01 3.94, -12.47 1.96 C-12.93 -0.02, -12.99 -2.8, -12.59 -4.3 C-12.19 -5.8, -11.15 -7.03, -10.08 -7.05 C-9.01 -7.07, -7.63 -5.44, -6.19 -4.43 C-4.76 -3.41, -2.51 -1.7, -1.48 -0.96 C-0.44 -0.23, -0.25 -0.16, 0 0 M0 0 C0.6 0.32, 2.02 1.58, 3.63 1.93 C5.24 2.29, 7.41 2.51, 9.68 2.15 C11.96 1.79, 14.91 0.72, 17.28 -0.21 C19.66 -1.14, 22.82 -3.7, 23.95 -3.42 C25.09 -3.14, 24.69 -0.56, 24.1 1.47 C23.51 3.49, 21.99 6.6, 20.42 8.73 C18.84 10.85, 16.59 12.95, 14.63 14.22 C12.67 15.49, 10.64 15.99, 8.65 16.34 C6.67 16.69, 4.84 16.78, 2.74 16.34 C0.63 15.89, -1.86 15.13, -3.95 13.67 C-6.04 12.21, -8.39 9.51, -9.81 7.56 C-11.23 5.61, -12.01 3.94, -12.47 1.96 C-12.93 -0.02, -12.99 -2.8, -12.59 -4.3 C-12.19 -5.8, -11.15 -7.03, -10.08 -7.05 C-9.01 -7.07, -7.63 -5.44, -6.19 -4.43 C-4.76 -3.41, -2.51 -1.7, -1.48 -0.96 C-0.44 -0.23, -0.25 -0.16, 0 0" stroke="#E1E1E1" stroke-width="2" fill="none"></path></g></g><mask></mask><g stroke-linecap="round"><g transform="translate(125.12547582553088 59.88289593217269) rotate(0 5.9330429155616855 -4.968711965697622)"><path d="M0 0 C-1.36 -1.1, -6.15 -4.38, -8.14 -6.57 C-10.14 -8.76, -11.42 -11.49, -11.97 -13.15 C-12.52 -14.81, -12.08 -15.93, -11.44 -16.55 C-10.79 -17.16, -9.57 -17.65, -8.11 -16.85 C-6.64 -16.06, -4.83 -13.52, -2.63 -11.77 C-0.42 -10.02, 2.67 -7.81, 5.14 -6.36 C7.61 -4.91, 10.08 -3.97, 12.2 -3.07 C14.33 -2.18, 16.05 -1.36, 17.88 -0.99 C19.71 -0.62, 22.22 -1.51, 23.21 -0.84 C24.2 -0.18, 24.18 1.91, 23.84 3 C23.5 4.09, 22.39 5.03, 21.18 5.68 C19.97 6.34, 18.72 7.18, 16.57 6.91 C14.42 6.65, 11.04 5.26, 8.28 4.11 C5.51 2.96, 1.38 0.68, 0 0 M0 0 C-1.36 -1.1, -6.15 -4.38, -8.14 -6.57 C-10.14 -8.76, -11.42 -11.49, -11.97 -13.15 C-12.52 -14.81, -12.08 -15.93, -11.44 -16.55 C-10.79 -17.16, -9.57 -17.65, -8.11 -16.85 C-6.64 -16.06, -4.83 -13.52, -2.63 -11.77 C-0.42 -10.02, 2.67 -7.81, 5.14 -6.36 C7.61 -4.91, 10.08 -3.97, 12.2 -3.07 C14.33 -2.18, 16.05 -1.36, 17.88 -0.99 C19.71 -0.62, 22.22 -1.51, 23.21 -0.84 C24.2 -0.18, 24.18 1.91, 23.84 3 C23.5 4.09, 22.39 5.03, 21.18 5.68 C19.97 6.34, 18.72 7.18, 16.57 6.91 C14.42 6.65, 11.04 5.26, 8.28 4.11 C5.51 2.96, 1.38 0.68, 0 0" stroke="#E1E1E1" stroke-width="2" fill="none"></path></g></g><mask></mask><g stroke-linecap="round"><g transform="translate(61.614457272688014 57.83814992889802) rotate(0 -9.412963239363535 -3.7113076961175437)"><path d="M0 0 C-0.83 0.65, -2.53 2.63, -4.96 3.89 C-7.38 5.16, -11.81 6.89, -14.54 7.61 C-17.27 8.33, -19.47 8.37, -21.32 8.22 C-23.18 8.08, -24.68 7.62, -25.67 6.74 C-26.66 5.86, -27.44 3.84, -27.24 2.93 C-27.05 2.03, -25.97 1.51, -24.5 1.3 C-23.02 1.08, -20.69 2.11, -18.37 1.65 C-16.06 1.2, -13.15 -0.08, -10.62 -1.41 C-8.1 -2.75, -5.46 -4.57, -3.23 -6.34 C-1.01 -8.12, 1.15 -10.5, 2.72 -12.05 C4.29 -13.6, 5.23 -15.54, 6.18 -15.64 C7.13 -15.74, 8.21 -13.96, 8.42 -12.65 C8.63 -11.34, 8.39 -9.51, 7.45 -7.79 C6.51 -6.07, 4.03 -3.63, 2.78 -2.34 C1.54 -1.04, 0.46 -0.39, 0 0 M0 0 C-0.83 0.65, -2.53 2.63, -4.96 3.89 C-7.38 5.16, -11.81 6.89, -14.54 7.61 C-17.27 8.33, -19.47 8.37, -21.32 8.22 C-23.18 8.08, -24.68 7.62, -25.67 6.74 C-26.66 5.86, -27.44 3.84, -27.24 2.93 C-27.05 2.03, -25.97 1.51, -24.5 1.3 C-23.02 1.08, -20.69 2.11, -18.37 1.65 C-16.06 1.2, -13.15 -0.08, -10.62 -1.41 C-8.1 -2.75, -5.46 -4.57, -3.23 -6.34 C-1.01 -8.12, 1.15 -10.5, 2.72 -12.05 C4.29 -13.6, 5.23 -15.54, 6.18 -15.64 C7.13 -15.74, 8.21 -13.96, 8.42 -12.65 C8.63 -11.34, 8.39 -9.51, 7.45 -7.79 C6.51 -6.07, 4.03 -3.63, 2.78 -2.34 C1.54 -1.04, 0.46 -0.39, 0 0" stroke="#E1E1E1" stroke-width="2" fill="none"></path></g></g><mask></mask></svg>