<svg version="1.1" xmlns="http://www.w3.org/2000/svg" viewBox="0 0 179.43134343453846 182.19508778458112" width="179.43134343453846" height="182.19508778458112" class="excalidraw-svg"><!-- svg-source:excalidraw --><metadata></metadata><defs><style class="style-fonts">
      </style></defs><rect x="0" y="0" width="179.43134343453846" height="182.19508778458112" fill="#000000"></rect><g stroke-linecap="round" transform="translate(16.297037287880812 16.780635237016213) rotate(0 72.92272729661869 73.72714441339578)"><path d="M145.85 73.73 C145.85 76.48, 145.69 79.25, 145.39 81.98 C145.08 84.72, 144.62 87.45, 144.02 90.13 C143.41 92.82, 142.65 95.48, 141.75 98.08 C140.85 100.67, 139.8 103.24, 138.62 105.72 C137.44 108.2, 136.12 110.62, 134.67 112.95 C133.22 115.28, 131.63 117.54, 129.94 119.7 C128.24 121.85, 126.41 123.91, 124.49 125.86 C122.56 127.81, 120.52 129.65, 118.39 131.37 C116.26 133.08, 114.02 134.69, 111.72 136.15 C109.42 137.62, 107.01 138.96, 104.56 140.15 C102.11 141.35, 99.58 142.41, 97.01 143.32 C94.44 144.23, 91.8 144.99, 89.15 145.61 C86.5 146.22, 83.79 146.68, 81.09 146.99 C78.38 147.3, 75.64 147.45, 72.92 147.45 C70.2 147.45, 67.46 147.3, 64.76 146.99 C62.05 146.68, 59.35 146.22, 56.7 145.61 C54.04 144.99, 51.41 144.23, 48.84 143.32 C46.27 142.41, 43.73 141.35, 41.28 140.15 C38.83 138.96, 36.43 137.62, 34.13 136.15 C31.82 134.69, 29.58 133.08, 27.46 131.37 C25.33 129.65, 23.28 127.81, 21.36 125.86 C19.43 123.91, 17.61 121.85, 15.91 119.7 C14.21 117.54, 12.63 115.28, 11.18 112.95 C9.73 110.62, 8.4 108.2, 7.22 105.72 C6.04 103.24, 4.99 100.67, 4.09 98.08 C3.19 95.48, 2.43 92.82, 1.83 90.13 C1.22 87.45, 0.76 84.72, 0.46 81.98 C0.15 79.25, 0 76.48, 0 73.73 C0 70.98, 0.15 68.21, 0.46 65.47 C0.76 62.74, 1.22 60, 1.83 57.32 C2.43 54.64, 3.19 51.97, 4.09 49.38 C4.99 46.78, 6.04 44.22, 7.22 41.74 C8.4 39.26, 9.73 36.83, 11.18 34.5 C12.63 32.17, 14.21 29.91, 15.91 27.76 C17.61 25.61, 19.43 23.54, 21.36 21.59 C23.28 19.65, 25.33 17.8, 27.46 16.08 C29.58 14.37, 31.82 12.76, 34.13 11.3 C36.43 9.84, 38.83 8.5, 41.28 7.3 C43.73 6.11, 46.27 5.05, 48.84 4.14 C51.41 3.23, 54.04 2.46, 56.7 1.85 C59.35 1.24, 62.05 0.77, 64.76 0.46 C67.46 0.16, 70.2 0, 72.92 0 C75.64 0, 78.38 0.16, 81.09 0.46 C83.79 0.77, 86.5 1.24, 89.15 1.85 C91.8 2.46, 94.44 3.23, 97.01 4.14 C99.58 5.05, 102.11 6.11, 104.56 7.3 C107.01 8.5, 109.42 9.84, 111.72 11.3 C114.02 12.76, 116.26 14.37, 118.39 16.08 C120.52 17.8, 122.56 19.65, 124.49 21.59 C126.41 23.54, 128.24 25.61, 129.94 27.76 C131.63 29.91, 133.22 32.17, 134.67 34.5 C136.12 36.83, 137.44 39.26, 138.62 41.74 C139.8 44.22, 140.85 46.78, 141.75 49.38 C142.65 51.97, 143.41 54.64, 144.02 57.32 C144.62 60, 145.08 62.74, 145.39 65.47 C145.69 68.21, 145.77 72.35, 145.85 73.73 C145.92 75.1, 145.92 72.35, 145.85 73.73" stroke="#E1E1E1" stroke-width="2" fill="none"></path></g><g stroke-linecap="round" transform="translate(10 10) rotate(0 79.71567171726923 81.09754389229055)"><path d="M159.43 81.1 C159.43 83.92, 159.28 86.76, 158.99 89.57 C158.7 92.38, 158.27 95.19, 157.69 97.96 C157.11 100.72, 156.39 103.47, 155.53 106.16 C154.67 108.85, 153.67 111.5, 152.54 114.08 C151.41 116.66, 150.14 119.2, 148.75 121.65 C147.36 124.09, 145.84 126.48, 144.21 128.77 C142.57 131.05, 140.81 133.26, 138.96 135.36 C137.1 137.46, 135.12 139.47, 133.06 141.36 C130.99 143.26, 128.82 145.05, 126.57 146.71 C124.32 148.37, 121.98 149.92, 119.57 151.33 C117.17 152.74, 114.68 154.03, 112.14 155.18 C109.6 156.33, 106.99 157.35, 104.35 158.23 C101.71 159.1, 99.01 159.84, 96.29 160.42 C93.57 161.01, 90.81 161.46, 88.05 161.75 C85.29 162.05, 82.49 162.2, 79.72 162.2 C76.94 162.2, 74.15 162.05, 71.38 161.75 C68.62 161.46, 65.86 161.01, 63.14 160.42 C60.43 159.84, 57.72 159.1, 55.08 158.23 C52.44 157.35, 49.83 156.33, 47.29 155.18 C44.75 154.03, 42.26 152.74, 39.86 151.33 C37.45 149.92, 35.11 148.37, 32.86 146.71 C30.61 145.05, 28.44 143.26, 26.38 141.36 C24.31 139.47, 22.33 137.46, 20.48 135.36 C18.62 133.26, 16.86 131.05, 15.22 128.77 C13.59 126.48, 12.07 124.09, 10.68 121.65 C9.29 119.2, 8.02 116.66, 6.89 114.08 C5.76 111.5, 4.76 108.85, 3.9 106.16 C3.04 103.47, 2.32 100.72, 1.74 97.96 C1.16 95.19, 0.73 92.38, 0.44 89.57 C0.15 86.76, 0 83.92, 0 81.1 C0 78.27, 0.15 75.43, 0.44 72.62 C0.73 69.81, 1.16 67, 1.74 64.24 C2.32 61.47, 3.04 58.72, 3.9 56.04 C4.76 53.35, 5.76 50.69, 6.89 48.11 C8.02 45.53, 9.29 43, 10.68 40.55 C12.07 38.1, 13.59 35.72, 15.22 33.43 C16.86 31.14, 18.62 28.93, 20.48 26.83 C22.33 24.73, 24.31 22.72, 26.38 20.83 C28.44 18.94, 30.61 17.15, 32.86 15.49 C35.11 13.83, 37.45 12.28, 39.86 10.87 C42.26 9.45, 44.75 8.16, 47.29 7.01 C49.83 5.86, 52.44 4.84, 55.08 3.97 C57.72 3.1, 60.43 2.36, 63.14 1.77 C65.86 1.18, 68.62 0.74, 71.38 0.44 C74.15 0.15, 76.94 0, 79.72 0 C82.49 0, 85.29 0.15, 88.05 0.44 C90.81 0.74, 93.57 1.18, 96.29 1.77 C99.01 2.36, 101.71 3.1, 104.35 3.97 C106.99 4.84, 109.6 5.86, 112.14 7.01 C114.68 8.16, 117.17 9.45, 119.57 10.87 C121.98 12.28, 124.32 13.83, 126.57 15.49 C128.82 17.15, 130.99 18.94, 133.06 20.83 C135.12 22.72, 137.1 24.73, 138.96 26.83 C140.81 28.93, 142.57 31.14, 144.21 33.43 C145.84 35.72, 147.36 38.1, 148.75 40.55 C150.14 43, 151.41 45.53, 152.54 48.11 C153.67 50.69, 154.67 53.35, 155.53 56.04 C156.39 58.72, 157.11 61.47, 157.69 64.24 C158.27 67, 158.7 69.81, 158.99 72.62 C159.28 75.43, 159.36 79.68, 159.43 81.1 C159.5 82.51, 159.5 79.68, 159.43 81.1" stroke="#E1E1E1" stroke-width="2" fill="none"></path></g><g stroke-linecap="round"><g transform="translate(58.55062499830092 83.23071366911336) rotate(0 6.738938366767769 13.054783354198392)"><path d="M0 0 C-0.4 0.33, -1.56 0.78, -2.4 2 C-3.23 3.22, -4.58 5.09, -5 7.32 C-5.43 9.54, -5.52 12.69, -4.95 15.34 C-4.38 17.98, -3.18 21.38, -1.59 23.17 C0.01 24.97, 2.49 25.73, 4.64 26.11 C6.79 26.49, 9.35 26.58, 11.32 25.47 C13.29 24.36, 15.26 21.36, 16.45 19.47 C17.65 17.57, 18.15 16.08, 18.48 14.09 C18.81 12.1, 18.43 8.61, 18.42 7.51 M0 0 C-0.4 0.33, -1.56 0.78, -2.4 2 C-3.23 3.22, -4.58 5.09, -5 7.32 C-5.43 9.54, -5.52 12.69, -4.95 15.34 C-4.38 17.98, -3.18 21.38, -1.59 23.17 C0.01 24.97, 2.49 25.73, 4.64 26.11 C6.79 26.49, 9.35 26.58, 11.32 25.47 C13.29 24.36, 15.26 21.36, 16.45 19.47 C17.65 17.57, 18.15 16.08, 18.48 14.09 C18.81 12.1, 18.43 8.61, 18.42 7.51" stroke="#E1E1E1" stroke-width="2" fill="none"></path></g></g><mask></mask><g stroke-linecap="round"><g transform="translate(76.96577839332713 90.74254259990721) rotate(0 -17.448805867120086 -9.665162403743949)"><path d="M0 0 C0.35 0, 1.32 0.22, 2.09 0 C2.86 -0.22, 4.23 -0.58, 4.62 -1.32 C5.01 -2.06, 5.59 -3.22, 4.43 -4.45 C3.27 -5.67, 0.92 -7.1, -2.33 -8.67 C-5.57 -10.24, -11.4 -12.51, -15.05 -13.87 C-18.7 -15.23, -21.27 -15.93, -24.23 -16.84 C-27.18 -17.75, -30.55 -19.06, -32.79 -19.33 C-35.02 -19.6, -36.51 -19.19, -37.64 -18.49 C-38.76 -17.79, -39.87 -16.16, -39.52 -15.13 C-39.17 -14.11, -37.85 -13.26, -35.53 -12.33 C-33.21 -11.4, -28.45 -10.35, -25.58 -9.55 C-22.7 -8.74, -19.48 -7.83, -18.26 -7.48 M0 0 C0.35 0, 1.32 0.22, 2.09 0 C2.86 -0.22, 4.23 -0.58, 4.62 -1.32 C5.01 -2.06, 5.59 -3.22, 4.43 -4.45 C3.27 -5.67, 0.92 -7.1, -2.33 -8.67 C-5.57 -10.24, -11.4 -12.51, -15.05 -13.87 C-18.7 -15.23, -21.27 -15.93, -24.23 -16.84 C-27.18 -17.75, -30.55 -19.06, -32.79 -19.33 C-35.02 -19.6, -36.51 -19.19, -37.64 -18.49 C-38.76 -17.79, -39.87 -16.16, -39.52 -15.13 C-39.17 -14.11, -37.85 -13.26, -35.53 -12.33 C-33.21 -11.4, -28.45 -10.35, -25.58 -9.55 C-22.7 -8.74, -19.48 -7.83, -18.26 -7.48" stroke="#E1E1E1" stroke-width="2" fill="none"></path></g></g><mask></mask><g stroke-linecap="round"><g transform="translate(105.80811217482005 89.92972341833683) rotate(0 16.16284194055723 -9.170834871039872)"><path d="M0 0 C-0.41 0.14, -1.62 0.78, -2.47 0.87 C-3.32 0.95, -4.55 1.11, -5.11 0.51 C-5.67 -0.09, -6.94 -1.21, -5.85 -2.72 C-4.75 -4.23, -2.49 -6.38, 1.47 -8.53 C5.43 -10.68, 12.99 -13.84, 17.89 -15.62 C22.8 -17.4, 27.84 -18.64, 30.9 -19.21 C33.96 -19.79, 35.05 -19.75, 36.26 -19.06 C37.47 -18.38, 38.5 -16.28, 38.17 -15.12 C37.84 -13.97, 36.47 -13, 34.26 -12.15 C32.06 -11.3, 27.97 -10.75, 24.94 -10.01 C21.91 -9.28, 17.55 -8.14, 16.07 -7.76 M0 0 C-0.41 0.14, -1.62 0.78, -2.47 0.87 C-3.32 0.95, -4.55 1.11, -5.11 0.51 C-5.67 -0.09, -6.94 -1.21, -5.85 -2.72 C-4.75 -4.23, -2.49 -6.38, 1.47 -8.53 C5.43 -10.68, 12.99 -13.84, 17.89 -15.62 C22.8 -17.4, 27.84 -18.64, 30.9 -19.21 C33.96 -19.79, 35.05 -19.75, 36.26 -19.06 C37.47 -18.38, 38.5 -16.28, 38.17 -15.12 C37.84 -13.97, 36.47 -13, 34.26 -12.15 C32.06 -11.3, 27.97 -10.75, 24.94 -10.01 C21.91 -9.28, 17.55 -8.14, 16.07 -7.76" stroke="#E1E1E1" stroke-width="2" fill="none"></path></g></g><mask></mask><g stroke-linecap="round"><g transform="translate(121.87778734110725 82.16894986735588) rotate(0 -4.073656281071408 14.030503797021012)"><path d="M0 0 C0.86 0.66, 3.8 1.99, 5.16 3.96 C6.51 5.92, 7.95 8.86, 8.13 11.79 C8.3 14.72, 7.51 18.95, 6.21 21.55 C4.91 24.15, 2.48 26.33, 0.3 27.41 C-1.87 28.5, -4.77 28.48, -6.84 28.06 C-8.91 27.65, -10.71 26.45, -12.14 24.92 C-13.57 23.39, -14.71 20.99, -15.4 18.89 C-16.09 16.78, -16.17 14.13, -16.27 12.31 C-16.38 10.5, -16.07 8.72, -16.03 8 M0 0 C0.86 0.66, 3.8 1.99, 5.16 3.96 C6.51 5.92, 7.95 8.86, 8.13 11.79 C8.3 14.72, 7.51 18.95, 6.21 21.55 C4.91 24.15, 2.48 26.33, 0.3 27.41 C-1.87 28.5, -4.77 28.48, -6.84 28.06 C-8.91 27.65, -10.71 26.45, -12.14 24.92 C-13.57 23.39, -14.71 20.99, -15.4 18.89 C-16.09 16.78, -16.17 14.13, -16.27 12.31 C-16.38 10.5, -16.07 8.72, -16.03 8" stroke="#E1E1E1" stroke-width="2" fill="none"></path></g></g><mask></mask><g stroke-linecap="round" transform="translate(109.4974589231424 88.9882412995239) rotate(17.144428599271368 2.2655602870106577 2.8244341809811715)"><path d="M4.53 2.82 C4.53 2.99, 4.52 3.15, 4.5 3.31 C4.47 3.48, 4.44 3.64, 4.39 3.79 C4.35 3.94, 4.29 4.1, 4.23 4.24 C4.16 4.38, 4.09 4.51, 4 4.64 C3.92 4.77, 3.82 4.88, 3.72 4.99 C3.62 5.09, 3.51 5.19, 3.4 5.27 C3.28 5.35, 3.16 5.42, 3.04 5.48 C2.92 5.53, 2.79 5.58, 2.66 5.61 C2.53 5.63, 2.4 5.65, 2.27 5.65 C2.13 5.65, 2 5.63, 1.87 5.61 C1.74 5.58, 1.61 5.53, 1.49 5.48 C1.37 5.42, 1.25 5.35, 1.13 5.27 C1.02 5.19, 0.91 5.09, 0.81 4.99 C0.71 4.88, 0.61 4.77, 0.53 4.64 C0.45 4.51, 0.37 4.38, 0.3 4.24 C0.24 4.1, 0.18 3.94, 0.14 3.79 C0.09 3.64, 0.06 3.48, 0.03 3.31 C0.01 3.15, 0 2.99, 0 2.82 C0 2.66, 0.01 2.49, 0.03 2.33 C0.06 2.17, 0.09 2.01, 0.14 1.86 C0.18 1.7, 0.24 1.55, 0.3 1.41 C0.37 1.27, 0.45 1.13, 0.53 1.01 C0.61 0.88, 0.71 0.77, 0.81 0.66 C0.91 0.56, 1.02 0.46, 1.13 0.38 C1.25 0.3, 1.37 0.23, 1.49 0.17 C1.61 0.11, 1.74 0.07, 1.87 0.04 C2 0.01, 2.13 0, 2.27 0 C2.4 0, 2.53 0.01, 2.66 0.04 C2.79 0.07, 2.92 0.11, 3.04 0.17 C3.16 0.23, 3.28 0.3, 3.4 0.38 C3.51 0.46, 3.62 0.56, 3.72 0.66 C3.82 0.77, 3.92 0.88, 4 1.01 C4.09 1.13, 4.16 1.27, 4.23 1.41 C4.29 1.55, 4.35 1.7, 4.39 1.86 C4.44 2.01, 4.47 2.17, 4.5 2.33 C4.52 2.49, 4.53 2.74, 4.53 2.82 C4.54 2.91, 4.54 2.74, 4.53 2.82" stroke="#E1E1E1" stroke-width="2" fill="none"></path></g><g stroke-linecap="round" transform="translate(60.63261053333372 86.92269107502307) rotate(333.1420566882918 1.7731209034872677 2.9325976191192353)"><path d="M3.55 2.93 C3.55 3.1, 3.54 3.27, 3.52 3.44 C3.5 3.61, 3.47 3.78, 3.44 3.94 C3.4 4.1, 3.36 4.25, 3.31 4.4 C3.26 4.55, 3.2 4.69, 3.13 4.82 C3.07 4.95, 2.99 5.07, 2.91 5.18 C2.83 5.29, 2.75 5.39, 2.66 5.47 C2.57 5.56, 2.48 5.63, 2.38 5.69 C2.28 5.75, 2.18 5.79, 2.08 5.82 C1.98 5.85, 1.88 5.87, 1.77 5.87 C1.67 5.87, 1.57 5.85, 1.47 5.82 C1.36 5.79, 1.26 5.75, 1.17 5.69 C1.07 5.63, 0.98 5.56, 0.89 5.47 C0.8 5.39, 0.71 5.29, 0.63 5.18 C0.55 5.07, 0.48 4.95, 0.41 4.82 C0.35 4.69, 0.29 4.55, 0.24 4.4 C0.19 4.25, 0.14 4.1, 0.11 3.94 C0.07 3.78, 0.04 3.61, 0.03 3.44 C0.01 3.27, 0 3.1, 0 2.93 C0 2.76, 0.01 2.59, 0.03 2.42 C0.04 2.26, 0.07 2.09, 0.11 1.93 C0.14 1.77, 0.19 1.61, 0.24 1.47 C0.29 1.32, 0.35 1.18, 0.41 1.05 C0.48 0.92, 0.55 0.8, 0.63 0.69 C0.71 0.58, 0.8 0.48, 0.89 0.39 C0.98 0.31, 1.07 0.23, 1.17 0.18 C1.26 0.12, 1.36 0.07, 1.47 0.04 C1.57 0.02, 1.67 0, 1.77 0 C1.88 0, 1.98 0.02, 2.08 0.04 C2.18 0.07, 2.28 0.12, 2.38 0.18 C2.48 0.23, 2.57 0.31, 2.66 0.39 C2.75 0.48, 2.83 0.58, 2.91 0.69 C2.99 0.8, 3.07 0.92, 3.13 1.05 C3.2 1.18, 3.26 1.32, 3.31 1.47 C3.36 1.61, 3.4 1.77, 3.44 1.93 C3.47 2.09, 3.5 2.26, 3.52 2.42 C3.54 2.59, 3.54 2.85, 3.55 2.93 C3.55 3.02, 3.55 2.85, 3.55 2.93" stroke="#E1E1E1" stroke-width="2" fill="none"></path></g><g stroke-linecap="round"><g transform="translate(88.71196333573425 78.9077327311361) rotate(0 2.131250019636127 0.526093648914923)"><path d="M0 0 C0.02 0.6, -0.2 2.55, 0.11 3.61 C0.41 4.66, 1.19 6.13, 1.84 6.34 C2.49 6.54, 3.59 5.91, 4 4.83 C4.4 3.75, 4.32 1.35, 4.27 -0.14 C4.22 -1.62, 4.15 -3.2, 3.7 -4.06 C3.25 -4.92, 2.17 -5.41, 1.55 -5.28 C0.94 -5.16, 0.25 -4.2, -0.01 -3.32 C-0.26 -2.43, 0 -0.55, 0 0 M0 0 C0.02 0.6, -0.2 2.55, 0.11 3.61 C0.41 4.66, 1.19 6.13, 1.84 6.34 C2.49 6.54, 3.59 5.91, 4 4.83 C4.4 3.75, 4.32 1.35, 4.27 -0.14 C4.22 -1.62, 4.15 -3.2, 3.7 -4.06 C3.25 -4.92, 2.17 -5.41, 1.55 -5.28 C0.94 -5.16, 0.25 -4.2, -0.01 -3.32 C-0.26 -2.43, 0 -0.55, 0 0" stroke="#E1E1E1" stroke-width="2" fill="none"></path></g></g><mask></mask><g stroke-linecap="round"><g transform="translate(76.2024424605097 136.8948423224274) rotate(0 15.44474711861207 -5.125414936229191)"><path d="M0 0 C1.24 -0.6, 4.85 -2.83, 7.41 -3.61 C9.98 -4.39, 12.7 -4.64, 15.39 -4.67 C18.07 -4.69, 20.72 -4.67, 23.51 -3.76 C26.3 -2.86, 29.87 -0.7, 32.1 0.76 C34.33 2.22, 35.56 4.39, 36.89 4.99 C38.22 5.6, 39.55 5.11, 40.08 4.38 C40.61 3.65, 40.7 2.39, 40.08 0.63 C39.46 -1.14, 38.04 -4.09, 36.35 -6.24 C34.66 -8.38, 32.35 -10.81, 29.92 -12.26 C27.5 -13.71, 24.58 -14.44, 21.78 -14.94 C18.97 -15.43, 15.77 -15.52, 13.08 -15.25 C10.39 -14.97, 8.08 -14.33, 5.65 -13.27 C3.21 -12.2, 0.51 -10.46, -1.56 -8.85 C-3.62 -7.24, -5.49 -5.4, -6.76 -3.61 C-8.03 -1.81, -9.08 0.55, -9.19 1.91 C-9.3 3.27, -8.21 4.2, -7.43 4.55 C-6.65 4.91, -5.41 4.49, -4.51 4.06 C-3.61 3.62, -2.8 2.61, -2.05 1.93 C-1.3 1.25, -0.34 0.32, 0 0 M0 0 C1.24 -0.6, 4.85 -2.83, 7.41 -3.61 C9.98 -4.39, 12.7 -4.64, 15.39 -4.67 C18.07 -4.69, 20.72 -4.67, 23.51 -3.76 C26.3 -2.86, 29.87 -0.7, 32.1 0.76 C34.33 2.22, 35.56 4.39, 36.89 4.99 C38.22 5.6, 39.55 5.11, 40.08 4.38 C40.61 3.65, 40.7 2.39, 40.08 0.63 C39.46 -1.14, 38.04 -4.09, 36.35 -6.24 C34.66 -8.38, 32.35 -10.81, 29.92 -12.26 C27.5 -13.71, 24.58 -14.44, 21.78 -14.94 C18.97 -15.43, 15.77 -15.52, 13.08 -15.25 C10.39 -14.97, 8.08 -14.33, 5.65 -13.27 C3.21 -12.2, 0.51 -10.46, -1.56 -8.85 C-3.62 -7.24, -5.49 -5.4, -6.76 -3.61 C-8.03 -1.81, -9.08 0.55, -9.19 1.91 C-9.3 3.27, -8.21 4.2, -7.43 4.55 C-6.65 4.91, -5.41 4.49, -4.51 4.06 C-3.61 3.62, -2.8 2.61, -2.05 1.93 C-1.3 1.25, -0.34 0.32, 0 0" stroke="#E1E1E1" stroke-width="2" fill="none"></path></g></g><mask></mask></svg>