<svg version="1.1" xmlns="http://www.w3.org/2000/svg" viewBox="0 0 186.26956046900023 185.51810503298503" width="186.26956046900023" height="185.51810503298503" class="excalidraw-svg"><!-- svg-source:excalidraw --><metadata></metadata><defs><style class="style-fonts">
      </style></defs><rect x="0" y="0" width="186.26956046900023" height="185.51810503298503" fill="#000000"></rect><g stroke-linecap="round" transform="translate(16.5924785642801 16.859008523874763) rotate(0 76.05047762009195 75.23764991579839)"><path d="M152.1 75.24 C152.1 78.05, 151.94 80.87, 151.62 83.66 C151.3 86.45, 150.83 89.24, 150.19 91.98 C149.56 94.72, 148.77 97.44, 147.83 100.09 C146.9 102.74, 145.8 105.35, 144.57 107.88 C143.34 110.41, 141.95 112.89, 140.44 115.27 C138.93 117.64, 137.28 119.95, 135.51 122.15 C133.74 124.34, 131.83 126.45, 129.83 128.44 C127.82 130.42, 125.69 132.31, 123.47 134.06 C121.25 135.81, 118.92 137.45, 116.51 138.94 C114.11 140.44, 111.6 141.81, 109.05 143.02 C106.49 144.24, 103.85 145.33, 101.17 146.25 C98.49 147.18, 95.74 147.96, 92.97 148.59 C90.21 149.21, 87.39 149.69, 84.57 150 C81.74 150.32, 78.89 150.48, 76.05 150.48 C73.21 150.48, 70.36 150.32, 67.54 150 C64.72 149.69, 61.89 149.21, 59.13 148.59 C56.36 147.96, 53.61 147.18, 50.93 146.25 C48.25 145.33, 45.61 144.24, 43.05 143.02 C40.5 141.81, 37.99 140.44, 35.59 138.94 C33.19 137.45, 30.85 135.81, 28.63 134.06 C26.41 132.31, 24.28 130.42, 22.27 128.44 C20.27 126.45, 18.36 124.34, 16.59 122.15 C14.82 119.95, 13.17 117.64, 11.66 115.27 C10.15 112.89, 8.76 110.41, 7.53 107.88 C6.3 105.35, 5.21 102.74, 4.27 100.09 C3.33 97.44, 2.54 94.72, 1.91 91.98 C1.28 89.24, 0.8 86.45, 0.48 83.66 C0.16 80.87, 0 78.05, 0 75.24 C0 72.43, 0.16 69.6, 0.48 66.81 C0.8 64.02, 1.28 61.23, 1.91 58.5 C2.54 55.76, 3.33 53.04, 4.27 50.39 C5.21 47.74, 6.3 45.12, 7.53 42.59 C8.76 40.06, 10.15 37.59, 11.66 35.21 C13.17 32.83, 14.82 30.52, 16.59 28.33 C18.36 26.13, 20.27 24.02, 22.27 22.04 C24.28 20.05, 26.41 18.17, 28.63 16.41 C30.85 14.66, 33.19 13.03, 35.59 11.53 C37.99 10.04, 40.5 8.67, 43.05 7.45 C45.61 6.23, 48.25 5.15, 50.93 4.22 C53.61 3.29, 56.36 2.51, 59.13 1.89 C61.89 1.26, 64.72 0.79, 67.54 0.47 C70.36 0.16, 73.21 0, 76.05 0 C78.89 0, 81.74 0.16, 84.57 0.47 C87.39 0.79, 90.21 1.26, 92.97 1.89 C95.74 2.51, 98.49 3.29, 101.17 4.22 C103.85 5.15, 106.49 6.23, 109.05 7.45 C111.6 8.67, 114.11 10.04, 116.51 11.53 C118.92 13.03, 121.25 14.66, 123.47 16.41 C125.69 18.17, 127.82 20.05, 129.83 22.04 C131.83 24.02, 133.74 26.13, 135.51 28.33 C137.28 30.52, 138.93 32.83, 140.44 35.21 C141.95 37.59, 143.34 40.06, 144.57 42.59 C145.8 45.12, 146.9 47.74, 147.83 50.39 C148.77 53.04, 149.56 55.76, 150.19 58.5 C150.83 61.23, 151.3 64.02, 151.62 66.81 C151.94 69.6, 152.02 73.83, 152.1 75.24 C152.18 76.64, 152.18 73.83, 152.1 75.24" stroke="#E1E1E1" stroke-width="2" fill="none"></path></g><g stroke-linecap="round" transform="translate(10 10) rotate(0 83.13478023450014 82.75905251649255)"><path d="M166.27 82.76 C166.27 85.64, 166.12 88.54, 165.81 91.41 C165.51 94.28, 165.06 97.15, 164.45 99.97 C163.85 102.79, 163.1 105.59, 162.2 108.33 C161.31 111.08, 160.26 113.79, 159.08 116.42 C157.9 119.05, 156.58 121.64, 155.13 124.14 C153.68 126.64, 152.09 129.07, 150.39 131.4 C148.69 133.74, 146.85 135.99, 144.92 138.14 C142.98 140.28, 140.92 142.33, 138.76 144.26 C136.61 146.19, 134.34 148.02, 132 149.71 C129.66 151.41, 127.21 152.99, 124.7 154.43 C122.19 155.87, 119.59 157.19, 116.95 158.36 C114.3 159.54, 111.58 160.58, 108.82 161.47 C106.07 162.36, 103.25 163.11, 100.42 163.71 C97.59 164.31, 94.71 164.76, 91.82 165.06 C88.94 165.37, 86.03 165.52, 83.13 165.52 C80.24 165.52, 77.33 165.37, 74.44 165.06 C71.56 164.76, 68.68 164.31, 65.85 163.71 C63.02 163.11, 60.2 162.36, 57.44 161.47 C54.69 160.58, 51.97 159.54, 49.32 158.36 C46.67 157.19, 44.08 155.87, 41.57 154.43 C39.06 152.99, 36.61 151.41, 34.27 149.71 C31.93 148.02, 29.66 146.19, 27.51 144.26 C25.35 142.33, 23.29 140.28, 21.35 138.14 C19.42 135.99, 17.58 133.74, 15.88 131.4 C14.17 129.07, 12.59 126.64, 11.14 124.14 C9.69 121.64, 8.37 119.05, 7.19 116.42 C6.01 113.79, 4.96 111.08, 4.07 108.33 C3.17 105.59, 2.42 102.79, 1.82 99.97 C1.21 97.15, 0.76 94.28, 0.46 91.41 C0.15 88.54, 0 85.64, 0 82.76 C0 79.88, 0.15 76.98, 0.46 74.11 C0.76 71.24, 1.21 68.37, 1.82 65.55 C2.42 62.73, 3.17 59.93, 4.07 57.19 C4.96 54.44, 6.01 51.73, 7.19 49.1 C8.37 46.46, 9.69 43.88, 11.14 41.38 C12.59 38.88, 14.17 36.45, 15.88 34.11 C17.58 31.78, 19.42 29.53, 21.35 27.38 C23.29 25.24, 25.35 23.19, 27.51 21.26 C29.66 19.33, 31.93 17.5, 34.27 15.81 C36.61 14.11, 39.06 12.53, 41.57 11.09 C44.08 9.65, 46.67 8.33, 49.32 7.15 C51.97 5.98, 54.69 4.94, 57.44 4.05 C60.2 3.16, 63.02 2.41, 65.85 1.81 C68.68 1.21, 71.56 0.75, 74.44 0.45 C77.33 0.15, 80.24 0, 83.13 0 C86.03 0, 88.94 0.15, 91.82 0.45 C94.71 0.75, 97.59 1.21, 100.42 1.81 C103.25 2.41, 106.07 3.16, 108.82 4.05 C111.58 4.94, 114.3 5.98, 116.95 7.15 C119.59 8.33, 122.19 9.65, 124.7 11.09 C127.21 12.53, 129.66 14.11, 132 15.81 C134.34 17.5, 136.61 19.33, 138.76 21.26 C140.92 23.19, 142.98 25.24, 144.92 27.38 C146.85 29.53, 148.69 31.78, 150.39 34.11 C152.09 36.45, 153.68 38.88, 155.13 41.38 C156.58 43.88, 157.9 46.46, 159.08 49.1 C160.26 51.73, 161.31 54.44, 162.2 57.19 C163.1 59.93, 163.85 62.73, 164.45 65.55 C165.06 68.37, 165.51 71.24, 165.81 74.11 C166.12 76.98, 166.19 81.32, 166.27 82.76 C166.35 84.2, 166.35 81.32, 166.27 82.76" stroke="#E1E1E1" stroke-width="2" fill="none"></path></g><g stroke-linecap="round"><g transform="translate(46.27799110064916 60.13082197830863) rotate(0 10.147879238094248 -4.03523235493185)"><path d="M0 0 C0.97 -0.69, 3.93 -3.15, 5.83 -4.13 C7.74 -5.11, 9.1 -5.69, 11.44 -5.89 C13.77 -6.09, 17.41 -5.49, 19.84 -5.32 C22.27 -5.15, 24.6 -4.56, 26.01 -4.85 C27.42 -5.14, 28.21 -6.23, 28.31 -7.05 C28.41 -7.86, 27.74 -8.83, 26.62 -9.73 C25.5 -10.63, 23.74 -11.89, 21.6 -12.45 C19.45 -13, 16.31 -13.27, 13.76 -13.07 C11.2 -12.88, 8.94 -12.45, 6.26 -11.29 C3.58 -10.14, -0.03 -8.1, -2.34 -6.14 C-4.64 -4.17, -6.62 -1.13, -7.57 0.51 C-8.51 2.14, -8.2 2.94, -8.01 3.69 C-7.83 4.44, -7.13 4.97, -6.45 5 C-5.77 5.03, -4.73 4.44, -3.94 3.89 C-3.14 3.33, -2.34 2.31, -1.69 1.66 C-1.03 1.01, -0.28 0.28, 0 0 M0 0 C0.97 -0.69, 3.93 -3.15, 5.83 -4.13 C7.74 -5.11, 9.1 -5.69, 11.44 -5.89 C13.77 -6.09, 17.41 -5.49, 19.84 -5.32 C22.27 -5.15, 24.6 -4.56, 26.01 -4.85 C27.42 -5.14, 28.21 -6.23, 28.31 -7.05 C28.41 -7.86, 27.74 -8.83, 26.62 -9.73 C25.5 -10.63, 23.74 -11.89, 21.6 -12.45 C19.45 -13, 16.31 -13.27, 13.76 -13.07 C11.2 -12.88, 8.94 -12.45, 6.26 -11.29 C3.58 -10.14, -0.03 -8.1, -2.34 -6.14 C-4.64 -4.17, -6.62 -1.13, -7.57 0.51 C-8.51 2.14, -8.2 2.94, -8.01 3.69 C-7.83 4.44, -7.13 4.97, -6.45 5 C-5.77 5.03, -4.73 4.44, -3.94 3.89 C-3.14 3.33, -2.34 2.31, -1.69 1.66 C-1.03 1.01, -0.28 0.28, 0 0" stroke="#E1E1E1" stroke-width="2" fill="none"></path></g></g><mask></mask><g stroke-linecap="round"><g transform="translate(62.1929422224639 77.70955483742364) rotate(0 -1.5692937355432548 9.425277288961752)"><path d="M0 0 C-0.63 0.02, -2.28 -0.18, -3.8 0.1 C-5.32 0.38, -7.28 0.79, -9.14 1.68 C-10.99 2.57, -13.23 4.27, -14.94 5.43 C-16.65 6.59, -18.44 8.49, -19.4 8.64 C-20.36 8.8, -20.76 7.48, -20.71 6.36 C-20.66 5.25, -20.26 3.39, -19.1 1.95 C-17.94 0.51, -15.84 -1.06, -13.74 -2.3 C-11.64 -3.53, -8.97 -4.81, -6.5 -5.46 C-4.03 -6.11, -1.38 -6.31, 1.09 -6.21 C3.57 -6.12, 6.17 -5.79, 8.35 -4.88 C10.53 -3.96, 12.63 -2.57, 14.17 -0.73 C15.7 1.11, 17.08 3.32, 17.57 6.16 C18.06 9, 17.72 13.59, 17.1 16.29 C16.48 18.98, 15.28 20.87, 13.87 22.33 C12.45 23.8, 10.39 24.82, 8.61 25.06 C6.83 25.31, 4.77 24.76, 3.19 23.81 C1.61 22.86, 0.15 21.08, -0.89 19.36 C-1.93 17.63, -2.69 15.58, -3.06 13.45 C-3.42 11.32, -3.6 8.83, -3.09 6.58 C-2.58 4.34, -0.51 1.1, 0 0 M0 0 C-0.63 0.02, -2.28 -0.18, -3.8 0.1 C-5.32 0.38, -7.28 0.79, -9.14 1.68 C-10.99 2.57, -13.23 4.27, -14.94 5.43 C-16.65 6.59, -18.44 8.49, -19.4 8.64 C-20.36 8.8, -20.76 7.48, -20.71 6.36 C-20.66 5.25, -20.26 3.39, -19.1 1.95 C-17.94 0.51, -15.84 -1.06, -13.74 -2.3 C-11.64 -3.53, -8.97 -4.81, -6.5 -5.46 C-4.03 -6.11, -1.38 -6.31, 1.09 -6.21 C3.57 -6.12, 6.17 -5.79, 8.35 -4.88 C10.53 -3.96, 12.63 -2.57, 14.17 -0.73 C15.7 1.11, 17.08 3.32, 17.57 6.16 C18.06 9, 17.72 13.59, 17.1 16.29 C16.48 18.98, 15.28 20.87, 13.87 22.33 C12.45 23.8, 10.39 24.82, 8.61 25.06 C6.83 25.31, 4.77 24.76, 3.19 23.81 C1.61 22.86, 0.15 21.08, -0.89 19.36 C-1.93 17.63, -2.69 15.58, -3.06 13.45 C-3.42 11.32, -3.6 8.83, -3.09 6.58 C-2.58 4.34, -0.51 1.1, 0 0" stroke="#E1E1E1" stroke-width="2" fill="none"></path></g></g><mask></mask><g stroke-linecap="round" transform="translate(63.33181998355212 80.25319827504427) rotate(0 2.556990693812935 3.0113260085747697)"><path d="M5.11 3.01 C5.11 3.19, 5.1 3.36, 5.08 3.53 C5.05 3.71, 5.01 3.88, 4.96 4.04 C4.91 4.21, 4.85 4.37, 4.77 4.52 C4.7 4.67, 4.61 4.81, 4.52 4.95 C4.42 5.08, 4.31 5.21, 4.2 5.32 C4.09 5.43, 3.96 5.53, 3.84 5.62 C3.71 5.71, 3.57 5.78, 3.43 5.84 C3.29 5.9, 3.15 5.95, 3 5.98 C2.86 6.01, 2.7 6.02, 2.56 6.02 C2.41 6.02, 2.26 6.01, 2.11 5.98 C1.97 5.95, 1.82 5.9, 1.68 5.84 C1.54 5.78, 1.41 5.71, 1.28 5.62 C1.15 5.53, 1.03 5.43, 0.91 5.32 C0.8 5.21, 0.69 5.08, 0.6 4.95 C0.5 4.81, 0.42 4.67, 0.34 4.52 C0.27 4.37, 0.2 4.21, 0.15 4.04 C0.1 3.88, 0.06 3.71, 0.04 3.53 C0.01 3.36, 0 3.19, 0 3.01 C0 2.84, 0.01 2.66, 0.04 2.49 C0.06 2.32, 0.1 2.15, 0.15 1.98 C0.2 1.82, 0.27 1.66, 0.34 1.51 C0.42 1.35, 0.5 1.21, 0.6 1.08 C0.69 0.94, 0.8 0.82, 0.91 0.7 C1.03 0.59, 1.15 0.49, 1.28 0.4 C1.41 0.32, 1.54 0.24, 1.68 0.18 C1.82 0.12, 1.97 0.08, 2.11 0.05 C2.26 0.02, 2.41 0, 2.56 0 C2.7 0, 2.86 0.02, 3 0.05 C3.15 0.08, 3.29 0.12, 3.43 0.18 C3.57 0.24, 3.71 0.32, 3.84 0.4 C3.96 0.49, 4.09 0.59, 4.2 0.7 C4.31 0.82, 4.42 0.94, 4.52 1.08 C4.61 1.21, 4.7 1.35, 4.77 1.51 C4.85 1.66, 4.91 1.82, 4.96 1.98 C5.01 2.15, 5.05 2.32, 5.08 2.49 C5.1 2.66, 5.11 2.92, 5.11 3.01 C5.12 3.1, 5.12 2.92, 5.11 3.01" stroke="#E1E1E1" stroke-width="2" fill="none"></path></g><g stroke-linecap="round"><g transform="translate(129.5011729371472 80.75299355149309) rotate(0 -0.2394577051622946 8.845134173253598)"><path d="M0 0 C-0.35 0.67, -1.66 2.34, -2.1 4.03 C-2.54 5.71, -2.73 8.18, -2.64 10.11 C-2.55 12.03, -2.14 13.8, -1.54 15.58 C-0.93 17.37, -0.16 19.48, 0.98 20.82 C2.12 22.16, 3.72 23.17, 5.31 23.61 C6.9 24.04, 8.98 24.06, 10.53 23.44 C12.09 22.82, 13.39 21.31, 14.62 19.88 C15.85 18.45, 17.21 16.69, 17.91 14.87 C18.62 13.05, 18.84 10.81, 18.85 8.95 C18.86 7.1, 18.72 5.42, 17.97 3.75 C17.21 2.08, 15.8 0.32, 14.34 -1.05 C12.87 -2.42, 10.94 -3.67, 9.18 -4.47 C7.42 -5.26, 5.81 -5.59, 3.77 -5.84 C1.73 -6.08, -0.94 -6.06, -3.06 -5.92 C-5.19 -5.77, -7.04 -5.46, -8.97 -4.94 C-10.9 -4.43, -12.96 -3.76, -14.66 -2.82 C-16.35 -1.89, -18.34 -0.57, -19.12 0.66 C-19.9 1.89, -19.76 3.93, -19.33 4.56 C-18.9 5.2, -17.76 4.85, -16.54 4.45 C-15.33 4.05, -13.66 2.88, -12.03 2.18 C-10.4 1.48, -8.32 0.66, -6.76 0.26 C-5.2 -0.14, -3.81 -0.17, -2.69 -0.22 C-1.56 -0.26, -0.45 -0.04, 0 0 M0 0 C-0.35 0.67, -1.66 2.34, -2.1 4.03 C-2.54 5.71, -2.73 8.18, -2.64 10.11 C-2.55 12.03, -2.14 13.8, -1.54 15.58 C-0.93 17.37, -0.16 19.48, 0.98 20.82 C2.12 22.16, 3.72 23.17, 5.31 23.61 C6.9 24.04, 8.98 24.06, 10.53 23.44 C12.09 22.82, 13.39 21.31, 14.62 19.88 C15.85 18.45, 17.21 16.69, 17.91 14.87 C18.62 13.05, 18.84 10.81, 18.85 8.95 C18.86 7.1, 18.72 5.42, 17.97 3.75 C17.21 2.08, 15.8 0.32, 14.34 -1.05 C12.87 -2.42, 10.94 -3.67, 9.18 -4.47 C7.42 -5.26, 5.81 -5.59, 3.77 -5.84 C1.73 -6.08, -0.94 -6.06, -3.06 -5.92 C-5.19 -5.77, -7.04 -5.46, -8.97 -4.94 C-10.9 -4.43, -12.96 -3.76, -14.66 -2.82 C-16.35 -1.89, -18.34 -0.57, -19.12 0.66 C-19.9 1.89, -19.76 3.93, -19.33 4.56 C-18.9 5.2, -17.76 4.85, -16.54 4.45 C-15.33 4.05, -13.66 2.88, -12.03 2.18 C-10.4 1.48, -8.32 0.66, -6.76 0.26 C-5.2 -0.14, -3.81 -0.17, -2.69 -0.22 C-1.56 -0.26, -0.45 -0.04, 0 0" stroke="#E1E1E1" stroke-width="2" fill="none"></path></g></g><mask></mask><g stroke-linecap="round" transform="translate(134.1853991055741 83.60137731367467) rotate(0 1.5910986590266702 2.7047355692938595)"><path d="M3.18 2.7 C3.18 2.86, 3.17 3.02, 3.16 3.17 C3.14 3.33, 3.12 3.48, 3.09 3.63 C3.05 3.78, 3.02 3.92, 2.97 4.06 C2.92 4.19, 2.87 4.32, 2.81 4.44 C2.75 4.56, 2.68 4.68, 2.61 4.78 C2.54 4.88, 2.47 4.97, 2.39 5.05 C2.31 5.13, 2.22 5.19, 2.14 5.25 C2.05 5.3, 1.96 5.34, 1.87 5.37 C1.78 5.4, 1.68 5.41, 1.59 5.41 C1.5 5.41, 1.41 5.4, 1.31 5.37 C1.22 5.34, 1.13 5.3, 1.05 5.25 C0.96 5.19, 0.88 5.13, 0.8 5.05 C0.72 4.97, 0.64 4.88, 0.57 4.78 C0.5 4.68, 0.43 4.56, 0.37 4.44 C0.31 4.32, 0.26 4.19, 0.21 4.06 C0.17 3.92, 0.13 3.78, 0.1 3.63 C0.06 3.48, 0.04 3.33, 0.02 3.17 C0.01 3.02, 0 2.86, 0 2.7 C0 2.55, 0.01 2.39, 0.02 2.24 C0.04 2.08, 0.06 1.93, 0.1 1.78 C0.13 1.63, 0.17 1.49, 0.21 1.35 C0.26 1.22, 0.31 1.09, 0.37 0.97 C0.43 0.85, 0.5 0.73, 0.57 0.63 C0.64 0.53, 0.72 0.44, 0.8 0.36 C0.88 0.28, 0.96 0.22, 1.05 0.16 C1.13 0.11, 1.22 0.07, 1.31 0.04 C1.41 0.01, 1.5 0, 1.59 0 C1.68 0, 1.78 0.01, 1.87 0.04 C1.96 0.07, 2.05 0.11, 2.14 0.16 C2.22 0.22, 2.31 0.28, 2.39 0.36 C2.47 0.44, 2.54 0.53, 2.61 0.63 C2.68 0.73, 2.75 0.85, 2.81 0.97 C2.87 1.09, 2.92 1.22, 2.97 1.35 C3.02 1.49, 3.05 1.63, 3.09 1.78 C3.12 1.93, 3.14 2.08, 3.16 2.24 C3.17 2.39, 3.18 2.63, 3.18 2.7 C3.19 2.78, 3.19 2.63, 3.18 2.7" stroke="#E1E1E1" stroke-width="2" fill="none"></path></g><g stroke-linecap="round"><g transform="translate(123.17547608266614 126.1479112089637) rotate(0 -26.33532966923164 6.6759915475039975)"><path d="M0 0 C-0.55 0.45, -1.34 1.54, -3.29 2.72 C-5.24 3.91, -8.77 5.96, -11.69 7.09 C-14.6 8.22, -16.99 9.07, -20.77 9.51 C-24.56 9.94, -30.11 10.14, -34.4 9.69 C-38.69 9.25, -42.96 7.92, -46.52 6.82 C-50.08 5.72, -53.66 3.94, -55.78 3.08 C-57.9 2.21, -58.29 1.62, -59.25 1.63 C-60.21 1.65, -61.34 2.3, -61.55 3.16 C-61.75 4.01, -61.54 5.56, -60.48 6.77 C-59.42 7.98, -57.51 9.15, -55.17 10.41 C-52.83 11.67, -49.5 13.3, -46.44 14.33 C-43.37 15.37, -40.18 16.18, -36.76 16.63 C-33.34 17.08, -29.85 17.33, -25.89 17.04 C-21.94 16.76, -16.73 15.96, -13.05 14.89 C-9.37 13.82, -6.16 12.06, -3.81 10.63 C-1.47 9.2, -0.18 7.58, 1.03 6.31 C2.23 5.04, 2.64 3.31, 3.4 3.02 C4.17 2.73, 4.81 4.34, 5.61 4.57 C6.41 4.79, 7.66 4.8, 8.21 4.39 C8.75 3.97, 9.07 3.04, 8.88 2.06 C8.69 1.09, 8.02 -0.52, 7.05 -1.48 C6.09 -2.44, 4.26 -3.4, 3.08 -3.69 C1.9 -3.99, 0.51 -3.86, 0 -3.24 C-0.52 -2.63, 0 -0.54, 0 0 M0 0 C-0.55 0.45, -1.34 1.54, -3.29 2.72 C-5.24 3.91, -8.77 5.96, -11.69 7.09 C-14.6 8.22, -16.99 9.07, -20.77 9.51 C-24.56 9.94, -30.11 10.14, -34.4 9.69 C-38.69 9.25, -42.96 7.92, -46.52 6.82 C-50.08 5.72, -53.66 3.94, -55.78 3.08 C-57.9 2.21, -58.29 1.62, -59.25 1.63 C-60.21 1.65, -61.34 2.3, -61.55 3.16 C-61.75 4.01, -61.54 5.56, -60.48 6.77 C-59.42 7.98, -57.51 9.15, -55.17 10.41 C-52.83 11.67, -49.5 13.3, -46.44 14.33 C-43.37 15.37, -40.18 16.18, -36.76 16.63 C-33.34 17.08, -29.85 17.33, -25.89 17.04 C-21.94 16.76, -16.73 15.96, -13.05 14.89 C-9.37 13.82, -6.16 12.06, -3.81 10.63 C-1.47 9.2, -0.18 7.58, 1.03 6.31 C2.23 5.04, 2.64 3.31, 3.4 3.02 C4.17 2.73, 4.81 4.34, 5.61 4.57 C6.41 4.79, 7.66 4.8, 8.21 4.39 C8.75 3.97, 9.07 3.04, 8.88 2.06 C8.69 1.09, 8.02 -0.52, 7.05 -1.48 C6.09 -2.44, 4.26 -3.4, 3.08 -3.69 C1.9 -3.99, 0.51 -3.86, 0 -3.24 C-0.52 -2.63, 0 -0.54, 0 0" stroke="#E1E1E1" stroke-width="2" fill="none"></path></g></g><mask></mask><g stroke-linecap="round"><g transform="translate(128.56088616952002 52.57090091374994) rotate(0 4.7599024609449145 2.056192857927954)"><path d="M0 0 C1.19 0.2, 4.93 0.34, 7.17 1.19 C9.4 2.05, 11.28 3.49, 13.38 5.13 C15.49 6.77, 18.31 10.42, 19.79 11.03 C21.26 11.64, 22.32 10.24, 22.26 8.79 C22.19 7.34, 20.77 4.25, 19.39 2.31 C18.02 0.36, 16.16 -1.39, 13.99 -2.87 C11.83 -4.35, 9.05 -5.88, 6.38 -6.55 C3.71 -7.22, 0.57 -7.15, -2 -6.92 C-4.57 -6.68, -7.25 -5.89, -9.04 -5.14 C-10.83 -4.4, -12.24 -3.45, -12.74 -2.46 C-13.23 -1.47, -12.92 0.27, -12.03 0.79 C-11.13 1.31, -8.77 0.82, -7.39 0.68 C-6 0.54, -4.93 0.06, -3.7 -0.06 C-2.47 -0.17, -0.62 -0.01, 0 0 M0 0 C1.19 0.2, 4.93 0.34, 7.17 1.19 C9.4 2.05, 11.28 3.49, 13.38 5.13 C15.49 6.77, 18.31 10.42, 19.79 11.03 C21.26 11.64, 22.32 10.24, 22.26 8.79 C22.19 7.34, 20.77 4.25, 19.39 2.31 C18.02 0.36, 16.16 -1.39, 13.99 -2.87 C11.83 -4.35, 9.05 -5.88, 6.38 -6.55 C3.71 -7.22, 0.57 -7.15, -2 -6.92 C-4.57 -6.68, -7.25 -5.89, -9.04 -5.14 C-10.83 -4.4, -12.24 -3.45, -12.74 -2.46 C-13.23 -1.47, -12.92 0.27, -12.03 0.79 C-11.13 1.31, -8.77 0.82, -7.39 0.68 C-6 0.54, -4.93 0.06, -3.7 -0.06 C-2.47 -0.17, -0.62 -0.01, 0 0" stroke="#E1E1E1" stroke-width="2" fill="none"></path></g></g><mask></mask></svg>