<svg version="1.1" xmlns="http://www.w3.org/2000/svg" viewBox="0 0 187.16712137854915 189.9589199847676" width="187.16712137854915" height="189.9589199847676" class="excalidraw-svg"><!-- svg-source:excalidraw --><metadata></metadata><defs><style class="style-fonts">
      </style></defs><rect x="0" y="0" width="187.16712137854915" height="189.9589199847676" fill="#000000"></rect><g stroke-linecap="round" transform="translate(16.628066263192522 17.10520557332984) rotate(0 76.46101539785337 77.25625978700535)"><path d="M152.92 77.26 C152.92 80.14, 152.76 83.04, 152.44 85.91 C152.12 88.77, 151.64 91.64, 151 94.45 C150.37 97.26, 149.57 100.05, 148.63 102.77 C147.69 105.49, 146.59 108.18, 145.35 110.78 C144.11 113.37, 142.72 115.92, 141.2 118.36 C139.68 120.8, 138.02 123.17, 136.24 125.42 C134.46 127.68, 132.54 129.85, 130.53 131.88 C128.51 133.92, 126.36 135.86, 124.13 137.66 C121.9 139.46, 119.56 141.14, 117.14 142.67 C114.72 144.21, 112.21 145.61, 109.64 146.86 C107.07 148.11, 104.41 149.22, 101.71 150.18 C99.02 151.13, 96.26 151.93, 93.48 152.58 C90.69 153.22, 87.86 153.7, 85.02 154.03 C82.19 154.35, 79.31 154.51, 76.46 154.51 C73.61 154.51, 70.74 154.35, 67.9 154.03 C65.06 153.7, 62.23 153.22, 59.45 152.58 C56.66 151.93, 53.9 151.13, 51.21 150.18 C48.51 149.22, 45.86 148.11, 43.29 146.86 C40.71 145.61, 38.2 144.21, 35.78 142.67 C33.37 141.14, 31.02 139.46, 28.79 137.66 C26.56 135.86, 24.41 133.92, 22.39 131.88 C20.38 129.85, 18.46 127.68, 16.68 125.42 C14.9 123.17, 13.24 120.8, 11.72 118.36 C10.2 115.92, 8.81 113.37, 7.57 110.78 C6.33 108.18, 5.23 105.49, 4.29 102.77 C3.35 100.05, 2.55 97.26, 1.92 94.45 C1.28 91.64, 0.8 88.77, 0.48 85.91 C0.16 83.04, 0 80.14, 0 77.26 C0 74.37, 0.16 71.47, 0.48 68.61 C0.8 65.74, 1.28 62.88, 1.92 60.07 C2.55 57.25, 3.35 54.46, 4.29 51.74 C5.23 49.02, 6.33 46.33, 7.57 43.74 C8.81 41.14, 10.2 38.59, 11.72 36.15 C13.24 33.71, 14.9 31.34, 16.68 29.09 C18.46 26.83, 20.38 24.67, 22.39 22.63 C24.41 20.59, 26.56 18.65, 28.79 16.85 C31.02 15.06, 33.37 13.38, 35.78 11.84 C38.2 10.31, 40.71 8.9, 43.29 7.65 C45.86 6.4, 48.51 5.29, 51.21 4.34 C53.9 3.38, 56.66 2.58, 59.45 1.94 C62.23 1.3, 65.06 0.81, 67.9 0.49 C70.74 0.16, 73.61 0, 76.46 0 C79.31 0, 82.19 0.16, 85.02 0.49 C87.86 0.81, 90.69 1.3, 93.48 1.94 C96.26 2.58, 99.02 3.38, 101.71 4.34 C104.41 5.29, 107.07 6.4, 109.64 7.65 C112.21 8.9, 114.72 10.31, 117.14 11.84 C119.56 13.38, 121.9 15.06, 124.13 16.85 C126.36 18.65, 128.51 20.59, 130.53 22.63 C132.54 24.67, 134.46 26.83, 136.24 29.09 C138.02 31.34, 139.68 33.71, 141.2 36.15 C142.72 38.59, 144.11 41.14, 145.35 43.74 C146.59 46.33, 147.69 49.02, 148.63 51.74 C149.57 54.46, 150.37 57.25, 151 60.07 C151.64 62.88, 152.12 65.74, 152.44 68.61 C152.76 71.47, 152.84 75.81, 152.92 77.26 C153 78.7, 153 75.81, 152.92 77.26" stroke="#E1E1E1" stroke-width="2" fill="none"></path></g><g stroke-linecap="round" transform="translate(10 10) rotate(0 83.58356068927458 84.9794599923838)"><path d="M167.17 84.98 C167.17 87.94, 167.01 90.92, 166.71 93.86 C166.4 96.81, 165.95 99.75, 165.34 102.65 C164.74 105.54, 163.98 108.42, 163.08 111.24 C162.18 114.06, 161.13 116.84, 159.94 119.54 C158.76 122.25, 157.43 124.9, 155.97 127.47 C154.51 130.03, 152.92 132.53, 151.2 134.93 C149.49 137.32, 147.65 139.64, 145.7 141.84 C143.75 144.04, 141.68 146.15, 139.51 148.13 C137.35 150.11, 135.07 151.99, 132.71 153.73 C130.36 155.47, 127.9 157.09, 125.38 158.57 C122.85 160.05, 120.24 161.41, 117.58 162.61 C114.92 163.82, 112.18 164.88, 109.41 165.8 C106.64 166.71, 103.81 167.49, 100.96 168.1 C98.11 168.72, 95.22 169.18, 92.32 169.49 C89.42 169.8, 86.5 169.96, 83.58 169.96 C80.67 169.96, 77.74 169.8, 74.85 169.49 C71.95 169.18, 69.05 168.72, 66.21 168.1 C63.36 167.49, 60.52 166.71, 57.75 165.8 C54.99 164.88, 52.25 163.82, 49.59 162.61 C46.93 161.41, 44.31 160.05, 41.79 158.57 C39.27 157.09, 36.81 155.47, 34.45 153.73 C32.1 151.99, 29.82 150.11, 27.66 148.13 C25.49 146.15, 23.42 144.04, 21.47 141.84 C19.52 139.64, 17.67 137.32, 15.96 134.93 C14.25 132.53, 12.65 130.03, 11.2 127.47 C9.74 124.9, 8.41 122.25, 7.23 119.54 C6.04 116.84, 4.99 114.06, 4.09 111.24 C3.19 108.42, 2.43 105.54, 1.83 102.65 C1.22 99.75, 0.76 96.81, 0.46 93.86 C0.15 90.92, 0 87.94, 0 84.98 C0 82.02, 0.15 79.04, 0.46 76.1 C0.76 73.15, 1.22 70.21, 1.83 67.31 C2.43 64.42, 3.19 61.54, 4.09 58.72 C4.99 55.9, 6.04 53.12, 7.23 50.42 C8.41 47.71, 9.74 45.05, 11.2 42.49 C12.65 39.93, 14.25 37.43, 15.96 35.03 C17.67 32.63, 19.52 30.32, 21.47 28.12 C23.42 25.92, 25.49 23.81, 27.66 21.83 C29.82 19.85, 32.1 17.97, 34.45 16.23 C36.81 14.49, 39.27 12.87, 41.79 11.39 C44.31 9.9, 46.93 8.55, 49.59 7.35 C52.25 6.14, 54.99 5.07, 57.75 4.16 C60.52 3.24, 63.36 2.47, 66.21 1.86 C69.05 1.24, 71.95 0.78, 74.85 0.47 C77.74 0.16, 80.67 0, 83.58 0 C86.5 0, 89.42 0.16, 92.32 0.47 C95.22 0.78, 98.11 1.24, 100.96 1.86 C103.81 2.47, 106.64 3.24, 109.41 4.16 C112.18 5.07, 114.92 6.14, 117.58 7.35 C120.24 8.55, 122.85 9.9, 125.38 11.39 C127.9 12.87, 130.36 14.49, 132.71 16.23 C135.07 17.97, 137.35 19.85, 139.51 21.83 C141.68 23.81, 143.75 25.92, 145.7 28.12 C147.65 30.32, 149.49 32.63, 151.2 35.03 C152.92 37.43, 154.51 39.93, 155.97 42.49 C157.43 45.05, 158.76 47.71, 159.94 50.42 C161.13 53.12, 162.18 55.9, 163.08 58.72 C163.98 61.54, 164.74 64.42, 165.34 67.31 C165.95 70.21, 166.4 73.15, 166.71 76.1 C167.01 79.04, 167.09 83.5, 167.17 84.98 C167.24 86.46, 167.24 83.5, 167.17 84.98" stroke="#E1E1E1" stroke-width="2" fill="none"></path></g><g stroke-linecap="round"><g transform="translate(57.966778972748216 65.07788256327967) rotate(0 -1.437879095241101 -9.19555172317223)"><path d="M0 0 C1.55 -1.01, 6.62 -3.83, 9.32 -6.04 C12.02 -8.24, 14.9 -11.17, 16.21 -13.22 C17.52 -15.27, 17.33 -17.06, 17.18 -18.34 C17.04 -19.62, 16.28 -20.71, 15.33 -20.9 C14.39 -21.09, 12.99 -20.67, 11.51 -19.49 C10.02 -18.3, 8.68 -15.72, 6.42 -13.77 C4.17 -11.82, 1.03 -9.32, -2.01 -7.78 C-5.04 -6.24, -9.04 -5.27, -11.78 -4.52 C-14.51 -3.76, -17.01 -3.96, -18.39 -3.25 C-19.77 -2.54, -20.32 -1.12, -20.06 -0.26 C-19.79 0.6, -18.22 1.44, -16.82 1.9 C-15.42 2.37, -13.5 2.49, -11.64 2.51 C-9.79 2.53, -7.66 2.43, -5.71 2.01 C-3.77 1.59, -0.95 0.34, 0 0 M0 0 C1.55 -1.01, 6.62 -3.83, 9.32 -6.04 C12.02 -8.24, 14.9 -11.17, 16.21 -13.22 C17.52 -15.27, 17.33 -17.06, 17.18 -18.34 C17.04 -19.62, 16.28 -20.71, 15.33 -20.9 C14.39 -21.09, 12.99 -20.67, 11.51 -19.49 C10.02 -18.3, 8.68 -15.72, 6.42 -13.77 C4.17 -11.82, 1.03 -9.32, -2.01 -7.78 C-5.04 -6.24, -9.04 -5.27, -11.78 -4.52 C-14.51 -3.76, -17.01 -3.96, -18.39 -3.25 C-19.77 -2.54, -20.32 -1.12, -20.06 -0.26 C-19.79 0.6, -18.22 1.44, -16.82 1.9 C-15.42 2.37, -13.5 2.49, -11.64 2.51 C-9.79 2.53, -7.66 2.43, -5.71 2.01 C-3.77 1.59, -0.95 0.34, 0 0" stroke="#E1E1E1" stroke-width="2" fill="none"></path></g></g><mask></mask><g stroke-linecap="round"><g transform="translate(123.4551120339529 61.809414193332486) rotate(0 7.582517301557004 -5.62966919739938)"><path d="M0 0 C-1 -0.82, -4.31 -3.18, -5.99 -4.95 C-7.68 -6.71, -9.34 -8.78, -10.14 -10.59 C-10.93 -12.41, -10.99 -14.69, -10.75 -15.84 C-10.51 -16.99, -9.73 -17.72, -8.67 -17.51 C-7.61 -17.3, -6.09 -15.95, -4.38 -14.56 C-2.66 -13.16, -0.73 -10.77, 1.61 -9.16 C3.95 -7.55, 6.93 -6.22, 9.66 -4.91 C12.39 -3.61, 15.35 -2.27, 17.99 -1.35 C20.63 -0.42, 24.15 -0.21, 25.48 0.62 C26.8 1.45, 26.42 2.79, 25.92 3.64 C25.42 4.49, 24.24 5.3, 22.48 5.74 C20.72 6.17, 17.93 6.55, 15.36 6.25 C12.78 5.95, 9.56 5, 7.01 3.95 C4.45 2.91, 1.17 0.66, 0 0 M0 0 C-1 -0.82, -4.31 -3.18, -5.99 -4.95 C-7.68 -6.71, -9.34 -8.78, -10.14 -10.59 C-10.93 -12.41, -10.99 -14.69, -10.75 -15.84 C-10.51 -16.99, -9.73 -17.72, -8.67 -17.51 C-7.61 -17.3, -6.09 -15.95, -4.38 -14.56 C-2.66 -13.16, -0.73 -10.77, 1.61 -9.16 C3.95 -7.55, 6.93 -6.22, 9.66 -4.91 C12.39 -3.61, 15.35 -2.27, 17.99 -1.35 C20.63 -0.42, 24.15 -0.21, 25.48 0.62 C26.8 1.45, 26.42 2.79, 25.92 3.64 C25.42 4.49, 24.24 5.3, 22.48 5.74 C20.72 6.17, 17.93 6.55, 15.36 6.25 C12.78 5.95, 9.56 5, 7.01 3.95 C4.45 2.91, 1.17 0.66, 0 0" stroke="#E1E1E1" stroke-width="2" fill="none"></path></g></g><mask></mask><g stroke-linecap="round"><g transform="translate(121.24704347774423 94.08698010715034) rotate(0 8.368555129316292 3.4378606538521126)"><path d="M0 0 C0.82 0.33, 2.9 1.61, 4.95 1.95 C6.99 2.29, 9.94 2.32, 12.25 2.05 C14.57 1.77, 16.84 1.09, 18.86 0.29 C20.88 -0.51, 22.91 -2.17, 24.38 -2.75 C25.85 -3.34, 26.92 -3.7, 27.68 -3.24 C28.45 -2.79, 29.45 -1.53, 28.94 -0.02 C28.43 1.48, 26.65 3.86, 24.63 5.79 C22.61 7.71, 19.6 10.25, 16.8 11.53 C14.01 12.81, 10.75 13.44, 7.87 13.45 C4.98 13.46, 2.05 12.71, -0.51 11.58 C-3.08 10.44, -5.78 8.46, -7.52 6.67 C-9.26 4.87, -10.2 2.56, -10.98 0.81 C-11.76 -0.95, -12.38 -2.62, -12.21 -3.85 C-12.03 -5.08, -10.89 -6.55, -9.95 -6.57 C-9.01 -6.6, -7.6 -4.77, -6.58 -4.01 C-5.56 -3.25, -4.94 -2.66, -3.84 -1.99 C-2.75 -1.32, -0.64 -0.33, 0 0 M0 0 C0.82 0.33, 2.9 1.61, 4.95 1.95 C6.99 2.29, 9.94 2.32, 12.25 2.05 C14.57 1.77, 16.84 1.09, 18.86 0.29 C20.88 -0.51, 22.91 -2.17, 24.38 -2.75 C25.85 -3.34, 26.92 -3.7, 27.68 -3.24 C28.45 -2.79, 29.45 -1.53, 28.94 -0.02 C28.43 1.48, 26.65 3.86, 24.63 5.79 C22.61 7.71, 19.6 10.25, 16.8 11.53 C14.01 12.81, 10.75 13.44, 7.87 13.45 C4.98 13.46, 2.05 12.71, -0.51 11.58 C-3.08 10.44, -5.78 8.46, -7.52 6.67 C-9.26 4.87, -10.2 2.56, -10.98 0.81 C-11.76 -0.95, -12.38 -2.62, -12.21 -3.85 C-12.03 -5.08, -10.89 -6.55, -9.95 -6.57 C-9.01 -6.6, -7.6 -4.77, -6.58 -4.01 C-5.56 -3.25, -4.94 -2.66, -3.84 -1.99 C-2.75 -1.32, -0.64 -0.33, 0 0" stroke="#E1E1E1" stroke-width="2" fill="none"></path></g></g><mask></mask><g stroke-linecap="round"><g transform="translate(61.266532430376174 95.8945172119893) rotate(0 -3.3559431216577025 1.2141495537971707)"><path d="M0 0 C-1.18 0.08, -4.99 0.66, -7.1 0.49 C-9.21 0.32, -10.76 -0.29, -12.66 -1.03 C-14.55 -1.77, -16.96 -3.28, -18.48 -3.96 C-19.99 -4.64, -20.87 -5.08, -21.76 -5.08 C-22.66 -5.08, -23.66 -4.88, -23.84 -3.96 C-24.01 -3.04, -23.68 -1.15, -22.83 0.43 C-21.97 2, -20.56 3.93, -18.69 5.47 C-16.83 7.02, -13.88 8.78, -11.65 9.72 C-9.43 10.66, -7.75 10.95, -5.35 11.11 C-2.95 11.27, 0.16 11.36, 2.74 10.67 C5.32 9.99, 8.19 8.4, 10.13 7.02 C12.07 5.63, 13.23 4.04, 14.39 2.36 C15.54 0.69, 16.59 -1.37, 17.05 -3.05 C17.51 -4.73, 17.54 -6.79, 17.12 -7.73 C16.71 -8.67, 15.76 -9.1, 14.56 -8.69 C13.35 -8.27, 11.68 -6.51, 9.9 -5.23 C8.12 -3.95, 5.51 -1.85, 3.86 -0.98 C2.2 -0.11, 0.64 -0.16, 0 0 M0 0 C-1.18 0.08, -4.99 0.66, -7.1 0.49 C-9.21 0.32, -10.76 -0.29, -12.66 -1.03 C-14.55 -1.77, -16.96 -3.28, -18.48 -3.96 C-19.99 -4.64, -20.87 -5.08, -21.76 -5.08 C-22.66 -5.08, -23.66 -4.88, -23.84 -3.96 C-24.01 -3.04, -23.68 -1.15, -22.83 0.43 C-21.97 2, -20.56 3.93, -18.69 5.47 C-16.83 7.02, -13.88 8.78, -11.65 9.72 C-9.43 10.66, -7.75 10.95, -5.35 11.11 C-2.95 11.27, 0.16 11.36, 2.74 10.67 C5.32 9.99, 8.19 8.4, 10.13 7.02 C12.07 5.63, 13.23 4.04, 14.39 2.36 C15.54 0.69, 16.59 -1.37, 17.05 -3.05 C17.51 -4.73, 17.54 -6.79, 17.12 -7.73 C16.71 -8.67, 15.76 -9.1, 14.56 -8.69 C13.35 -8.27, 11.68 -6.51, 9.9 -5.23 C8.12 -3.95, 5.51 -1.85, 3.86 -0.98 C2.2 -0.11, 0.64 -0.16, 0 0" stroke="#E1E1E1" stroke-width="2" fill="none"></path></g></g><mask></mask><g stroke-linecap="round"><g transform="translate(78.66309940544488 140.0546533987008) rotate(0 15.130456348318802 -2.5186553805416168)"><path d="M0 0 C0.69 -0.28, 2.2 -1.17, 4.17 -1.66 C6.13 -2.15, 9.23 -2.73, 11.79 -2.95 C14.35 -3.18, 16.59 -3.23, 19.52 -3 C22.44 -2.77, 26.29 -2.6, 29.32 -1.58 C32.34 -0.55, 35.53 1.7, 37.65 3.14 C39.78 4.57, 40.71 6.44, 42.05 7.05 C43.4 7.65, 45.08 7.4, 45.73 6.77 C46.37 6.15, 46.41 4.72, 45.92 3.32 C45.44 1.92, 44.54 0.19, 42.8 -1.6 C41.06 -3.39, 38.36 -5.79, 35.47 -7.41 C32.58 -9.04, 29.06 -10.47, 25.46 -11.35 C21.86 -12.24, 17.65 -12.81, 13.88 -12.73 C10.12 -12.66, 6.4 -12.12, 2.88 -10.93 C-0.65 -9.73, -4.38 -7.58, -7.26 -5.58 C-10.14 -3.58, -12.99 -0.8, -14.39 1.06 C-15.79 2.92, -15.82 4.48, -15.66 5.58 C-15.51 6.69, -14.49 7.65, -13.46 7.7 C-12.43 7.74, -10.9 6.74, -9.47 5.87 C-8.03 4.99, -6.43 3.42, -4.85 2.44 C-3.28 1.46, -0.81 0.41, 0 0 M0 0 C0.69 -0.28, 2.2 -1.17, 4.17 -1.66 C6.13 -2.15, 9.23 -2.73, 11.79 -2.95 C14.35 -3.18, 16.59 -3.23, 19.52 -3 C22.44 -2.77, 26.29 -2.6, 29.32 -1.58 C32.34 -0.55, 35.53 1.7, 37.65 3.14 C39.78 4.57, 40.71 6.44, 42.05 7.05 C43.4 7.65, 45.08 7.4, 45.73 6.77 C46.37 6.15, 46.41 4.72, 45.92 3.32 C45.44 1.92, 44.54 0.19, 42.8 -1.6 C41.06 -3.39, 38.36 -5.79, 35.47 -7.41 C32.58 -9.04, 29.06 -10.47, 25.46 -11.35 C21.86 -12.24, 17.65 -12.81, 13.88 -12.73 C10.12 -12.66, 6.4 -12.12, 2.88 -10.93 C-0.65 -9.73, -4.38 -7.58, -7.26 -5.58 C-10.14 -3.58, -12.99 -0.8, -14.39 1.06 C-15.79 2.92, -15.82 4.48, -15.66 5.58 C-15.51 6.69, -14.49 7.65, -13.46 7.7 C-12.43 7.74, -10.9 6.74, -9.47 5.87 C-8.03 4.99, -6.43 3.42, -4.85 2.44 C-3.28 1.46, -0.81 0.41, 0 0" stroke="#E1E1E1" stroke-width="2" fill="none"></path></g></g><mask></mask><g stroke-linecap="round"><g transform="translate(19.098856193268148 77.71411944396459) rotate(0 73.59502283011335 -2.454772978789464)"><path d="M0 0 C3.49 -0.24, 8.08 -1.39, 20.93 -1.42 C33.77 -1.44, 59.11 -0.34, 77.06 -0.17 C95.01 0, 116.95 0.37, 128.64 -0.42 C140.33 -1.21, 144.1 -4.16, 147.19 -4.91 M0 0 C3.49 -0.24, 8.08 -1.39, 20.93 -1.42 C33.77 -1.44, 59.11 -0.34, 77.06 -0.17 C95.01 0, 116.95 0.37, 128.64 -0.42 C140.33 -1.21, 144.1 -4.16, 147.19 -4.91" stroke="#E1E1E1" stroke-width="1" fill="none"></path></g></g><mask></mask></svg>