<svg version="1.1" xmlns="http://www.w3.org/2000/svg" viewBox="0 0 184.1597858172554 184.4720758766582" width="184.1597858172554" height="184.4720758766582" class="excalidraw-svg"><!-- svg-source:excalidraw --><metadata></metadata><defs><style class="style-fonts">
      </style></defs><rect x="0" y="0" width="184.1597858172554" height="184.4720758766582" fill="#000000"></rect><g stroke-linecap="round" transform="translate(16.508827388877762 16.875825701178655) rotate(0 75.08548216642393 74.76216854504588)"><path d="M150.17 74.76 C150.17 77.55, 150.01 80.36, 149.7 83.13 C149.39 85.91, 148.91 88.68, 148.29 91.4 C147.66 94.12, 146.88 96.82, 145.96 99.45 C145.03 102.09, 143.95 104.69, 142.74 107.2 C141.52 109.71, 140.15 112.18, 138.66 114.54 C137.17 116.9, 135.54 119.19, 133.79 121.38 C132.04 123.56, 130.16 125.65, 128.18 127.63 C126.2 129.6, 124.09 131.47, 121.9 133.21 C119.71 134.95, 117.41 136.58, 115.03 138.07 C112.66 139.55, 110.19 140.91, 107.66 142.12 C105.14 143.33, 102.53 144.41, 99.88 145.33 C97.24 146.25, 94.53 147.03, 91.79 147.65 C89.06 148.27, 86.28 148.74, 83.49 149.05 C80.71 149.37, 77.89 149.52, 75.09 149.52 C72.28 149.52, 69.46 149.37, 66.68 149.05 C63.89 148.74, 61.11 148.27, 58.38 147.65 C55.65 147.03, 52.93 146.25, 50.29 145.33 C47.64 144.41, 45.03 143.33, 42.51 142.12 C39.98 140.91, 37.51 139.55, 35.14 138.07 C32.76 136.58, 30.46 134.95, 28.27 133.21 C26.08 131.47, 23.97 129.6, 21.99 127.63 C20.01 125.65, 18.13 123.56, 16.38 121.38 C14.63 119.19, 13 116.9, 11.51 114.54 C10.02 112.18, 8.65 109.71, 7.44 107.2 C6.22 104.69, 5.14 102.09, 4.21 99.45 C3.29 96.82, 2.51 94.12, 1.88 91.4 C1.26 88.68, 0.79 85.91, 0.47 83.13 C0.16 80.36, 0 77.55, 0 74.76 C0 71.97, 0.16 69.16, 0.47 66.39 C0.79 63.62, 1.26 60.85, 1.88 58.13 C2.51 55.41, 3.29 52.7, 4.21 50.07 C5.14 47.44, 6.22 44.84, 7.44 42.32 C8.65 39.81, 10.02 37.35, 11.51 34.99 C13 32.62, 14.63 30.33, 16.38 28.15 C18.13 25.97, 20.01 23.87, 21.99 21.9 C23.97 19.92, 26.08 18.05, 28.27 16.31 C30.46 14.57, 32.76 12.94, 35.14 11.46 C37.51 9.97, 39.98 8.61, 42.51 7.4 C45.03 6.19, 47.64 5.12, 50.29 4.2 C52.93 3.27, 55.65 2.5, 58.38 1.87 C61.11 1.25, 63.89 0.78, 66.68 0.47 C69.46 0.16, 72.28 0, 75.09 0 C77.89 0, 80.71 0.16, 83.49 0.47 C86.28 0.78, 89.06 1.25, 91.79 1.87 C94.53 2.5, 97.24 3.27, 99.88 4.2 C102.53 5.12, 105.14 6.19, 107.66 7.4 C110.19 8.61, 112.66 9.97, 115.03 11.46 C117.41 12.94, 119.71 14.57, 121.9 16.31 C124.09 18.05, 126.2 19.92, 128.18 21.9 C130.16 23.87, 132.04 25.97, 133.79 28.15 C135.54 30.33, 137.17 32.62, 138.66 34.99 C140.15 37.35, 141.52 39.81, 142.74 42.32 C143.95 44.84, 145.03 47.44, 145.96 50.07 C146.88 52.7, 147.66 55.41, 148.29 58.13 C148.91 60.85, 149.39 63.62, 149.7 66.39 C150.01 69.16, 150.09 73.37, 150.17 74.76 C150.25 76.16, 150.25 73.37, 150.17 74.76" stroke="#E1E1E1" stroke-width="2" fill="none"></path></g><g stroke-linecap="round" transform="translate(10 10) rotate(0 82.07989290862767 82.2360379383291)"><path d="M164.16 82.24 C164.16 85.1, 164.01 87.98, 163.71 90.83 C163.41 93.68, 162.96 96.53, 162.37 99.33 C161.77 102.14, 161.03 104.92, 160.14 107.65 C159.26 110.37, 158.23 113.07, 157.06 115.68 C155.9 118.3, 154.59 120.87, 153.16 123.35 C151.73 125.84, 150.16 128.26, 148.48 130.57 C146.8 132.89, 144.99 135.13, 143.08 137.26 C141.16 139.39, 139.13 141.43, 137 143.35 C134.88 145.27, 132.64 147.08, 130.33 148.77 C128.01 150.45, 125.6 152.02, 123.12 153.45 C120.64 154.89, 118.08 156.2, 115.46 157.36 C112.85 158.53, 110.16 159.56, 107.44 160.45 C104.72 161.33, 101.94 162.08, 99.15 162.68 C96.35 163.27, 93.5 163.72, 90.66 164.02 C87.82 164.32, 84.94 164.47, 82.08 164.47 C79.22 164.47, 76.34 164.32, 73.5 164.02 C70.66 163.72, 67.81 163.27, 65.01 162.68 C62.22 162.08, 59.44 161.33, 56.72 160.45 C54 159.56, 51.31 158.53, 48.69 157.36 C46.08 156.2, 43.52 154.89, 41.04 153.45 C38.56 152.02, 36.15 150.45, 33.83 148.77 C31.52 147.08, 29.28 145.27, 27.16 143.35 C25.03 141.43, 23 139.39, 21.08 137.26 C19.17 135.13, 17.36 132.89, 15.68 130.57 C13.99 128.26, 12.43 125.84, 11 123.35 C9.57 120.87, 8.26 118.3, 7.1 115.68 C5.93 113.07, 4.9 110.37, 4.02 107.65 C3.13 104.92, 2.39 102.14, 1.79 99.33 C1.2 96.53, 0.75 93.68, 0.45 90.83 C0.15 87.98, 0 85.1, 0 82.24 C0 79.37, 0.15 76.49, 0.45 73.64 C0.75 70.79, 1.2 67.94, 1.79 65.14 C2.39 62.34, 3.13 59.55, 4.02 56.82 C4.9 54.1, 5.93 51.41, 7.1 48.79 C8.26 46.17, 9.57 43.6, 11 41.12 C12.43 38.64, 13.99 36.22, 15.68 33.9 C17.36 31.58, 19.17 29.34, 21.08 27.21 C23 25.08, 25.03 23.04, 27.16 21.12 C29.28 19.21, 31.52 17.39, 33.83 15.71 C36.15 14.02, 38.56 12.45, 41.04 11.02 C43.52 9.58, 46.08 8.28, 48.69 7.11 C51.31 5.94, 54 4.91, 56.72 4.02 C59.44 3.14, 62.22 2.39, 65.01 1.8 C67.81 1.2, 70.66 0.75, 73.5 0.45 C76.34 0.15, 79.22 0, 82.08 0 C84.94 0, 87.82 0.15, 90.66 0.45 C93.5 0.75, 96.35 1.2, 99.15 1.8 C101.94 2.39, 104.72 3.14, 107.44 4.02 C110.16 4.91, 112.85 5.94, 115.46 7.11 C118.08 8.28, 120.64 9.58, 123.12 11.02 C125.6 12.45, 128.01 14.02, 130.33 15.71 C132.64 17.39, 134.88 19.21, 137 21.12 C139.13 23.04, 141.16 25.08, 143.08 27.21 C144.99 29.34, 146.8 31.58, 148.48 33.9 C150.16 36.22, 151.73 38.64, 153.16 41.12 C154.59 43.6, 155.9 46.17, 157.06 48.79 C158.23 51.41, 159.26 54.1, 160.14 56.82 C161.03 59.55, 161.77 62.34, 162.37 65.14 C162.96 67.94, 163.41 70.79, 163.71 73.64 C164.01 76.49, 164.08 80.8, 164.16 82.24 C164.23 83.67, 164.23 80.8, 164.16 82.24" stroke="#E1E1E1" stroke-width="2" fill="none"></path></g><g stroke-linecap="round"><g transform="translate(46.67519677798009 61.62931559624758) rotate(0 6.015991876317884 -6.477305692481536)"><path d="M0 0 C1.41 -1.01, 5.81 -4.44, 8.44 -6.04 C11.07 -7.64, 13.88 -8.65, 15.78 -9.62 C17.68 -10.59, 19.18 -10.91, 19.84 -11.86 C20.51 -12.81, 20.3 -14.44, 19.77 -15.32 C19.24 -16.2, 18.49 -17.29, 16.67 -17.13 C14.86 -16.96, 11.37 -15.56, 8.87 -14.35 C6.38 -13.13, 4.09 -11.61, 1.69 -9.85 C-0.71 -8.09, -3.94 -5.49, -5.53 -3.78 C-7.11 -2.06, -7.52 -0.88, -7.81 0.45 C-8.11 1.77, -7.92 3.8, -7.28 4.17 C-6.64 4.54, -5.18 3.36, -3.97 2.67 C-2.76 1.97, -0.66 0.44, 0 0 M0 0 C1.41 -1.01, 5.81 -4.44, 8.44 -6.04 C11.07 -7.64, 13.88 -8.65, 15.78 -9.62 C17.68 -10.59, 19.18 -10.91, 19.84 -11.86 C20.51 -12.81, 20.3 -14.44, 19.77 -15.32 C19.24 -16.2, 18.49 -17.29, 16.67 -17.13 C14.86 -16.96, 11.37 -15.56, 8.87 -14.35 C6.38 -13.13, 4.09 -11.61, 1.69 -9.85 C-0.71 -8.09, -3.94 -5.49, -5.53 -3.78 C-7.11 -2.06, -7.52 -0.88, -7.81 0.45 C-8.11 1.77, -7.92 3.8, -7.28 4.17 C-6.64 4.54, -5.18 3.36, -3.97 2.67 C-2.76 1.97, -0.66 0.44, 0 0" stroke="#E1E1E1" stroke-width="2" fill="none"></path></g></g><mask></mask><g stroke-linecap="round"><g transform="translate(135.01788366555593 57.034507784924244) rotate(0 -2.640588797597502 -1.4096912263080696)"><path d="M0 0 C-1.2 -0.54, -5.02 -2.45, -7.21 -3.25 C-9.4 -4.06, -11.5 -4.37, -13.14 -4.83 C-14.78 -5.3, -16.27 -5.26, -17.05 -6.06 C-17.84 -6.86, -18.34 -8.74, -17.85 -9.64 C-17.37 -10.53, -15.85 -11.31, -14.16 -11.43 C-12.47 -11.55, -10.19 -11.19, -7.73 -10.35 C-5.27 -9.51, -1.91 -7.88, 0.6 -6.37 C3.11 -4.87, 5.32 -3.2, 7.31 -1.31 C9.31 0.57, 11.67 3.38, 12.55 4.92 C13.42 6.46, 12.97 7.31, 12.57 7.93 C12.18 8.54, 11.22 9.07, 10.18 8.61 C9.15 8.14, 7.6 6.26, 6.37 5.14 C5.14 4.03, 3.87 2.79, 2.81 1.94 C1.75 1.08, 0.47 0.32, 0 0 M0 0 C-1.2 -0.54, -5.02 -2.45, -7.21 -3.25 C-9.4 -4.06, -11.5 -4.37, -13.14 -4.83 C-14.78 -5.3, -16.27 -5.26, -17.05 -6.06 C-17.84 -6.86, -18.34 -8.74, -17.85 -9.64 C-17.37 -10.53, -15.85 -11.31, -14.16 -11.43 C-12.47 -11.55, -10.19 -11.19, -7.73 -10.35 C-5.27 -9.51, -1.91 -7.88, 0.6 -6.37 C3.11 -4.87, 5.32 -3.2, 7.31 -1.31 C9.31 0.57, 11.67 3.38, 12.55 4.92 C13.42 6.46, 12.97 7.31, 12.57 7.93 C12.18 8.54, 11.22 9.07, 10.18 8.61 C9.15 8.14, 7.6 6.26, 6.37 5.14 C5.14 4.03, 3.87 2.79, 2.81 1.94 C1.75 1.08, 0.47 0.32, 0 0" stroke="#E1E1E1" stroke-width="2" fill="none"></path></g></g><mask></mask><g stroke-linecap="round"><g transform="translate(54.684977948061714 80.33500165184341) rotate(0 3.2888430911399666 11.297605908425155)"><path d="M0 0 C-0.41 0.63, -1.72 2.14, -2.46 3.78 C-3.2 5.42, -4.13 7.74, -4.46 9.86 C-4.79 11.97, -4.8 14.35, -4.45 16.48 C-4.1 18.6, -3.55 20.91, -2.36 22.63 C-1.18 24.34, 0.73 25.92, 2.66 26.79 C4.59 27.66, 7.13 28.21, 9.23 27.85 C11.33 27.5, 13.66 26.33, 15.27 24.64 C16.88 22.95, 18.15 19.96, 18.89 17.72 C19.63 15.48, 19.78 13.19, 19.73 11.18 C19.68 9.17, 19.15 7.41, 18.57 5.66 C18 3.91, 16.46 1.79, 16.26 0.69 C16.05 -0.41, 17.72 -0.25, 17.33 -0.94 C16.95 -1.62, 15.5 -2.69, 13.96 -3.41 C12.42 -4.13, 10.17 -4.97, 8.09 -5.26 C6.02 -5.55, 3.91 -5.56, 1.49 -5.18 C-0.93 -4.8, -4.27 -3.73, -6.42 -2.99 C-8.57 -2.24, -10.26 -1.65, -11.39 -0.71 C-12.51 0.23, -13.07 1.81, -13.15 2.66 C-13.23 3.52, -12.69 4.42, -11.88 4.41 C-11.06 4.41, -9.47 3.14, -8.26 2.63 C-7.05 2.12, -5.99 1.81, -4.62 1.37 C-3.24 0.93, -0.77 0.23, 0 0 M0 0 C-0.41 0.63, -1.72 2.14, -2.46 3.78 C-3.2 5.42, -4.13 7.74, -4.46 9.86 C-4.79 11.97, -4.8 14.35, -4.45 16.48 C-4.1 18.6, -3.55 20.91, -2.36 22.63 C-1.18 24.34, 0.73 25.92, 2.66 26.79 C4.59 27.66, 7.13 28.21, 9.23 27.85 C11.33 27.5, 13.66 26.33, 15.27 24.64 C16.88 22.95, 18.15 19.96, 18.89 17.72 C19.63 15.48, 19.78 13.19, 19.73 11.18 C19.68 9.17, 19.15 7.41, 18.57 5.66 C18 3.91, 16.46 1.79, 16.26 0.69 C16.05 -0.41, 17.72 -0.25, 17.33 -0.94 C16.95 -1.62, 15.5 -2.69, 13.96 -3.41 C12.42 -4.13, 10.17 -4.97, 8.09 -5.26 C6.02 -5.55, 3.91 -5.56, 1.49 -5.18 C-0.93 -4.8, -4.27 -3.73, -6.42 -2.99 C-8.57 -2.24, -10.26 -1.65, -11.39 -0.71 C-12.51 0.23, -13.07 1.81, -13.15 2.66 C-13.23 3.52, -12.69 4.42, -11.88 4.41 C-11.06 4.41, -9.47 3.14, -8.26 2.63 C-7.05 2.12, -5.99 1.81, -4.62 1.37 C-3.24 0.93, -0.77 0.23, 0 0" stroke="#E1E1E1" stroke-width="2" fill="none"></path></g></g><mask></mask><g stroke-linecap="round" transform="translate(55.21076111262846 82.8955671876356) rotate(27.90626094297234 2.72947644870942 3.5788269436168463)"><path d="M5.46 3.58 C5.46 3.79, 5.44 4, 5.42 4.2 C5.39 4.4, 5.35 4.61, 5.29 4.8 C5.24 5, 5.17 5.19, 5.09 5.37 C5.01 5.55, 4.92 5.72, 4.82 5.88 C4.72 6.04, 4.6 6.19, 4.48 6.32 C4.36 6.45, 4.23 6.57, 4.09 6.68 C3.96 6.78, 3.81 6.87, 3.66 6.94 C3.51 7.01, 3.36 7.07, 3.2 7.1 C3.05 7.14, 2.89 7.16, 2.73 7.16 C2.57 7.16, 2.41 7.14, 2.26 7.1 C2.1 7.07, 1.94 7.01, 1.8 6.94 C1.65 6.87, 1.5 6.78, 1.36 6.68 C1.23 6.57, 1.1 6.45, 0.98 6.32 C0.85 6.19, 0.74 6.04, 0.64 5.88 C0.54 5.72, 0.44 5.55, 0.37 5.37 C0.29 5.19, 0.22 5, 0.16 4.8 C0.11 4.61, 0.07 4.4, 0.04 4.2 C0.01 4, 0 3.79, 0 3.58 C0 3.37, 0.01 3.16, 0.04 2.96 C0.07 2.75, 0.11 2.55, 0.16 2.35 C0.22 2.16, 0.29 1.97, 0.37 1.79 C0.44 1.61, 0.54 1.44, 0.64 1.28 C0.74 1.12, 0.85 0.97, 0.98 0.84 C1.1 0.7, 1.23 0.58, 1.36 0.48 C1.5 0.38, 1.65 0.29, 1.8 0.22 C1.94 0.14, 2.1 0.09, 2.26 0.05 C2.41 0.02, 2.57 0, 2.73 0 C2.89 0, 3.05 0.02, 3.2 0.05 C3.36 0.09, 3.51 0.14, 3.66 0.22 C3.81 0.29, 3.96 0.38, 4.09 0.48 C4.23 0.58, 4.36 0.7, 4.48 0.84 C4.6 0.97, 4.72 1.12, 4.82 1.28 C4.92 1.44, 5.01 1.61, 5.09 1.79 C5.17 1.97, 5.24 2.16, 5.29 2.35 C5.35 2.55, 5.39 2.75, 5.42 2.96 C5.44 3.16, 5.45 3.48, 5.46 3.58 C5.47 3.68, 5.47 3.48, 5.46 3.58" stroke="#E1E1E1" stroke-width="2" fill="none"></path></g><g stroke-linecap="round"><g transform="translate(130.31862195324902 79.99661756594196) rotate(0 -2.8326210389521407 11.343431784203062)"><path d="M0 0 C0.44 0.97, 2.02 3.66, 2.62 5.84 C3.22 8.02, 3.7 10.69, 3.58 13.06 C3.47 15.42, 2.76 17.94, 1.93 20.02 C1.09 22.1, -0.17 24.22, -1.43 25.53 C-2.7 26.84, -4.12 27.44, -5.67 27.88 C-7.21 28.32, -9.05 28.55, -10.72 28.17 C-12.38 27.8, -14.26 26.85, -15.65 25.62 C-17.05 24.4, -18.35 22.65, -19.07 20.8 C-19.78 18.94, -19.91 16.71, -19.96 14.49 C-20.02 12.28, -19.95 9.63, -19.41 7.49 C-18.87 5.36, -17.48 3.08, -16.74 1.69 C-16 0.31, -15.58 0.1, -14.96 -0.83 C-14.33 -1.75, -13.96 -3.08, -12.98 -3.85 C-11.99 -4.63, -10.6 -5.21, -9.05 -5.48 C-7.49 -5.76, -5.84 -5.84, -3.65 -5.48 C-1.46 -5.13, 1.89 -4.07, 4.11 -3.33 C6.32 -2.59, 7.95 -2.11, 9.64 -1.03 C11.34 0.06, 13.72 2.08, 14.3 3.19 C14.87 4.29, 14.13 5.5, 13.1 5.61 C12.06 5.71, 9.8 4.52, 8.11 3.82 C6.41 3.11, 4.27 2.01, 2.92 1.37 C1.56 0.74, 0.49 0.23, 0 0 M0 0 C0.44 0.97, 2.02 3.66, 2.62 5.84 C3.22 8.02, 3.7 10.69, 3.58 13.06 C3.47 15.42, 2.76 17.94, 1.93 20.02 C1.09 22.1, -0.17 24.22, -1.43 25.53 C-2.7 26.84, -4.12 27.44, -5.67 27.88 C-7.21 28.32, -9.05 28.55, -10.72 28.17 C-12.38 27.8, -14.26 26.85, -15.65 25.62 C-17.05 24.4, -18.35 22.65, -19.07 20.8 C-19.78 18.94, -19.91 16.71, -19.96 14.49 C-20.02 12.28, -19.95 9.63, -19.41 7.49 C-18.87 5.36, -17.48 3.08, -16.74 1.69 C-16 0.31, -15.58 0.1, -14.96 -0.83 C-14.33 -1.75, -13.96 -3.08, -12.98 -3.85 C-11.99 -4.63, -10.6 -5.21, -9.05 -5.48 C-7.49 -5.76, -5.84 -5.84, -3.65 -5.48 C-1.46 -5.13, 1.89 -4.07, 4.11 -3.33 C6.32 -2.59, 7.95 -2.11, 9.64 -1.03 C11.34 0.06, 13.72 2.08, 14.3 3.19 C14.87 4.29, 14.13 5.5, 13.1 5.61 C12.06 5.71, 9.8 4.52, 8.11 3.82 C6.41 3.11, 4.27 2.01, 2.92 1.37 C1.56 0.74, 0.49 0.23, 0 0" stroke="#E1E1E1" stroke-width="2" fill="none"></path></g></g><mask></mask><g stroke-linecap="round" transform="translate(115.20277497922143 84.01532865320041) rotate(25.590024451205526 2.327809010542495 3.353726712082832)"><path d="M4.66 3.35 C4.66 3.55, 4.64 3.74, 4.62 3.94 C4.6 4.13, 4.56 4.32, 4.52 4.5 C4.47 4.68, 4.41 4.86, 4.34 5.03 C4.28 5.2, 4.2 5.36, 4.11 5.51 C4.02 5.66, 3.93 5.8, 3.82 5.92 C3.72 6.05, 3.61 6.16, 3.49 6.26 C3.38 6.36, 3.25 6.44, 3.12 6.51 C3 6.57, 2.86 6.62, 2.73 6.66 C2.6 6.69, 2.46 6.71, 2.33 6.71 C2.19 6.71, 2.06 6.69, 1.92 6.66 C1.79 6.62, 1.66 6.57, 1.53 6.51 C1.41 6.44, 1.28 6.36, 1.16 6.26 C1.05 6.16, 0.93 6.05, 0.83 5.92 C0.73 5.8, 0.63 5.66, 0.54 5.51 C0.46 5.36, 0.38 5.2, 0.31 5.03 C0.24 4.86, 0.19 4.68, 0.14 4.5 C0.09 4.32, 0.06 4.13, 0.04 3.94 C0.01 3.74, 0 3.55, 0 3.35 C0 3.16, 0.01 2.96, 0.04 2.77 C0.06 2.58, 0.09 2.39, 0.14 2.21 C0.19 2.02, 0.24 1.84, 0.31 1.68 C0.38 1.51, 0.46 1.35, 0.54 1.2 C0.63 1.05, 0.73 0.91, 0.83 0.78 C0.93 0.66, 1.05 0.55, 1.16 0.45 C1.28 0.35, 1.41 0.27, 1.53 0.2 C1.66 0.14, 1.79 0.08, 1.92 0.05 C2.06 0.02, 2.19 0, 2.33 0 C2.46 0, 2.6 0.02, 2.73 0.05 C2.86 0.08, 3 0.14, 3.12 0.2 C3.25 0.27, 3.38 0.35, 3.49 0.45 C3.61 0.55, 3.72 0.66, 3.82 0.78 C3.93 0.91, 4.02 1.05, 4.11 1.2 C4.2 1.35, 4.28 1.51, 4.34 1.68 C4.41 1.84, 4.47 2.02, 4.52 2.21 C4.56 2.39, 4.6 2.58, 4.62 2.77 C4.64 2.96, 4.65 3.26, 4.66 3.35 C4.66 3.45, 4.66 3.26, 4.66 3.35" stroke="#E1E1E1" stroke-width="2" fill="none"></path></g><g stroke-linecap="round"><g transform="translate(84.3815832239925 137.50245118216026) rotate(0 8.012636032451297 -3.8936459109133494)"><path d="M0 0 C0.63 -0.11, 1.74 -0.55, 3.8 -0.68 C5.85 -0.81, 9.63 -1.08, 12.33 -0.79 C15.03 -0.51, 17.86 0.27, 19.98 1.02 C22.11 1.76, 23.66 3.26, 25.1 3.69 C26.53 4.11, 27.89 4.16, 28.58 3.55 C29.27 2.94, 29.66 1.49, 29.24 0.02 C28.81 -1.45, 27.86 -3.55, 26.03 -5.27 C24.19 -6.98, 21.23 -9.2, 18.22 -10.27 C15.22 -11.33, 11.41 -11.73, 7.99 -11.67 C4.56 -11.6, 0.53 -10.74, -2.34 -9.87 C-5.22 -9, -7.46 -7.95, -9.27 -6.45 C-11.08 -4.95, -12.56 -2.58, -13.21 -0.86 C-13.86 0.86, -13.7 3.18, -13.15 3.88 C-12.6 4.58, -11.14 3.72, -9.93 3.33 C-8.71 2.95, -7.51 2.13, -5.85 1.57 C-4.2 1.02, -0.98 0.26, 0 0 M0 0 C0.63 -0.11, 1.74 -0.55, 3.8 -0.68 C5.85 -0.81, 9.63 -1.08, 12.33 -0.79 C15.03 -0.51, 17.86 0.27, 19.98 1.02 C22.11 1.76, 23.66 3.26, 25.1 3.69 C26.53 4.11, 27.89 4.16, 28.58 3.55 C29.27 2.94, 29.66 1.49, 29.24 0.02 C28.81 -1.45, 27.86 -3.55, 26.03 -5.27 C24.19 -6.98, 21.23 -9.2, 18.22 -10.27 C15.22 -11.33, 11.41 -11.73, 7.99 -11.67 C4.56 -11.6, 0.53 -10.74, -2.34 -9.87 C-5.22 -9, -7.46 -7.95, -9.27 -6.45 C-11.08 -4.95, -12.56 -2.58, -13.21 -0.86 C-13.86 0.86, -13.7 3.18, -13.15 3.88 C-12.6 4.58, -11.14 3.72, -9.93 3.33 C-8.71 2.95, -7.51 2.13, -5.85 1.57 C-4.2 1.02, -0.98 0.26, 0 0" stroke="#E1E1E1" stroke-width="2" fill="none"></path></g></g><mask></mask></svg>