<svg version="1.1" xmlns="http://www.w3.org/2000/svg" viewBox="0 0 116.98693236831059 189.01231078579667" width="116.98693236831059" height="189.01231078579667" class="excalidraw-svg"><!-- svg-source:excalidraw --><metadata></metadata><defs><style class="style-fonts">
      </style></defs><rect x="0" y="0" width="116.98693236831059" height="189.01231078579667" fill="#000000"></rect><g stroke-linecap="round"><g transform="translate(95.44484031605225 79.71579764271655) rotate(44.91159614220586 -44.85955022519238 0.9496935618153657)"><path d="M0 0 C1.25 6.02, 5.29 25.87, 7.53 36.12 C9.76 46.37, 12.02 55.29, 13.42 61.49 C14.83 67.69, 15.56 70.4, 15.96 73.31 C16.36 76.21, 16.33 77.66, 15.84 78.9 C15.34 80.14, 14.26 80.97, 12.99 80.73 C11.72 80.5, 10.67 80.52, 8.2 77.5 C5.72 74.47, 1.91 68.04, -1.84 62.59 C-5.59 57.14, -10.78 49.77, -14.3 44.81 C-17.82 39.85, -20.62 36.15, -22.95 32.83 C-25.28 29.51, -27.17 26.31, -28.27 24.9 C-29.37 23.5, -29.02 24.2, -29.55 24.4 C-30.08 24.6, -28.85 23.42, -31.46 26.09 C-34.07 28.76, -41.75 36.95, -45.22 40.42 C-48.69 43.89, -50.45 45.82, -52.27 46.91 C-54.1 48, -54.71 48.02, -56.15 46.95 C-57.6 45.89, -58.03 45.2, -60.94 40.5 C-63.84 35.8, -69.44 25.82, -73.58 18.73 C-77.71 11.65, -81.51 4.97, -85.75 -2.01 C-89.99 -8.99, -95.69 -17.79, -99.01 -23.15 C-102.33 -28.51, -104.96 -31.43, -105.68 -34.17 C-106.4 -36.91, -105.44 -36.92, -103.34 -39.58 C-101.24 -42.25, -97.64 -45.56, -93.07 -50.16 C-88.5 -54.75, -80.41 -62.61, -75.92 -67.16 C-71.43 -71.71, -68.62 -75.51, -66.16 -77.46 C-63.69 -79.4, -62.71 -80.11, -61.14 -78.83 C-59.58 -77.55, -58.24 -73.05, -56.78 -69.79 C-55.31 -66.53, -54.48 -64.26, -52.33 -59.27 C-50.19 -54.27, -46.11 -44.91, -43.89 -39.81 C-41.67 -34.72, -40.05 -31.02, -39.01 -28.7 C-37.97 -26.39, -38.39 -26.09, -37.67 -25.92 C-36.94 -25.76, -36.67 -25.94, -34.68 -27.71 C-32.68 -29.48, -28.31 -33.96, -25.67 -36.54 C-23.04 -39.13, -20.73 -41.6, -18.87 -43.24 C-17 -44.88, -15.8 -46.18, -14.46 -46.4 C-13.13 -46.63, -11.84 -46.29, -10.86 -44.59 C-9.88 -42.89, -9.67 -40.32, -8.6 -36.18 C-7.52 -32.04, -5.85 -25.77, -4.42 -19.74 C-2.98 -13.71, -0.74 -3.29, 0 0 M0 0 C1.25 6.02, 5.29 25.87, 7.53 36.12 C9.76 46.37, 12.02 55.29, 13.42 61.49 C14.83 67.69, 15.56 70.4, 15.96 73.31 C16.36 76.21, 16.33 77.66, 15.84 78.9 C15.34 80.14, 14.26 80.97, 12.99 80.73 C11.72 80.5, 10.67 80.52, 8.2 77.5 C5.72 74.47, 1.91 68.04, -1.84 62.59 C-5.59 57.14, -10.78 49.77, -14.3 44.81 C-17.82 39.85, -20.62 36.15, -22.95 32.83 C-25.28 29.51, -27.17 26.31, -28.27 24.9 C-29.37 23.5, -29.02 24.2, -29.55 24.4 C-30.08 24.6, -28.85 23.42, -31.46 26.09 C-34.07 28.76, -41.75 36.95, -45.22 40.42 C-48.69 43.89, -50.45 45.82, -52.27 46.91 C-54.1 48, -54.71 48.02, -56.15 46.95 C-57.6 45.89, -58.03 45.2, -60.94 40.5 C-63.84 35.8, -69.44 25.82, -73.58 18.73 C-77.71 11.65, -81.51 4.97, -85.75 -2.01 C-89.99 -8.99, -95.69 -17.79, -99.01 -23.15 C-102.33 -28.51, -104.96 -31.43, -105.68 -34.17 C-106.4 -36.91, -105.44 -36.92, -103.34 -39.58 C-101.24 -42.25, -97.64 -45.56, -93.07 -50.16 C-88.5 -54.75, -80.41 -62.61, -75.92 -67.16 C-71.43 -71.71, -68.62 -75.51, -66.16 -77.46 C-63.69 -79.4, -62.71 -80.11, -61.14 -78.83 C-59.58 -77.55, -58.24 -73.05, -56.78 -69.79 C-55.31 -66.53, -54.48 -64.26, -52.33 -59.27 C-50.19 -54.27, -46.11 -44.91, -43.89 -39.81 C-41.67 -34.72, -40.05 -31.02, -39.01 -28.7 C-37.97 -26.39, -38.39 -26.09, -37.67 -25.92 C-36.94 -25.76, -36.67 -25.94, -34.68 -27.71 C-32.68 -29.48, -28.31 -33.96, -25.67 -36.54 C-23.04 -39.13, -20.73 -41.6, -18.87 -43.24 C-17 -44.88, -15.8 -46.18, -14.46 -46.4 C-13.13 -46.63, -11.84 -46.29, -10.86 -44.59 C-9.88 -42.89, -9.67 -40.32, -8.6 -36.18 C-7.52 -32.04, -5.85 -25.77, -4.42 -19.74 C-2.98 -13.71, -0.74 -3.29, 0 0" stroke="#E1E1E1" stroke-width="2" fill="none"></path></g></g><mask></mask></svg>