<svg version="1.1" xmlns="http://www.w3.org/2000/svg" viewBox="0 0 263.0124320387513 254.58368929511835" width="263.0124320387513" height="254.58368929511835" class="excalidraw-svg"><!-- svg-source:excalidraw --><metadata></metadata><defs><style class="style-fonts">
      </style></defs><rect x="0" y="0" width="263.0124320387513" height="254.58368929511835" fill="#000000"></rect><g stroke-linecap="round"><g transform="translate(90.25971679757913 155.01851000373927) rotate(0 41.187063669743566 0)"><path d="M0 0 C2.1 0, -1.15 0, 12.58 0 C26.31 0, 70.74 0, 82.37 0 M0 0 C2.1 0, -1.15 0, 12.58 0 C26.31 0, 70.74 0, 82.37 0" stroke="#E1E1E1" stroke-width="2" fill="none"></path></g></g><mask></mask><g stroke-linecap="round"><g transform="translate(90.2385938315665 155.03386526072745) rotate(0 41.194569047850564 18.586542223823017)"><path d="M0 0 C0.12 0.68, 0.37 2.61, 0.7 4.08 C1.04 5.54, 1.48 7.23, 2.01 8.8 C2.54 10.36, 3.19 11.97, 3.87 13.45 C4.55 14.93, 5.21 16.23, 6.1 17.67 C6.98 19.1, 8.16 20.76, 9.21 22.05 C10.25 23.33, 11.17 24.28, 12.35 25.4 C13.54 26.52, 14.96 27.75, 16.31 28.78 C17.65 29.81, 18.89 30.68, 20.44 31.56 C21.99 32.45, 23.89 33.37, 25.63 34.08 C27.36 34.8, 28.96 35.37, 30.84 35.85 C32.71 36.32, 35.19 36.72, 36.88 36.94 C38.56 37.16, 39.48 37.18, 40.93 37.19 C42.38 37.19, 43.91 37.16, 45.57 36.97 C47.23 36.78, 49.16 36.48, 50.88 36.06 C52.6 35.64, 54.27 35.07, 55.91 34.45 C57.55 33.82, 59.13 33.19, 60.73 32.32 C62.32 31.46, 64.02 30.31, 65.48 29.25 C66.93 28.18, 68.26 27.03, 69.46 25.91 C70.65 24.8, 71.57 23.81, 72.64 22.55 C73.7 21.28, 74.87 19.78, 75.84 18.3 C76.8 16.83, 77.74 15.16, 78.44 13.72 C79.15 12.27, 79.57 11.1, 80.08 9.63 C80.6 8.15, 81.17 6.47, 81.55 4.86 C81.93 3.25, 82.25 0.8, 82.39 -0.01 M0 0 C0.12 0.68, 0.37 2.61, 0.7 4.08 C1.04 5.54, 1.48 7.23, 2.01 8.8 C2.54 10.36, 3.19 11.97, 3.87 13.45 C4.55 14.93, 5.21 16.23, 6.1 17.67 C6.98 19.1, 8.16 20.76, 9.21 22.05 C10.25 23.33, 11.17 24.28, 12.35 25.4 C13.54 26.52, 14.96 27.75, 16.31 28.78 C17.65 29.81, 18.89 30.68, 20.44 31.56 C21.99 32.45, 23.89 33.37, 25.63 34.08 C27.36 34.8, 28.96 35.37, 30.84 35.85 C32.71 36.32, 35.19 36.72, 36.88 36.94 C38.56 37.16, 39.48 37.18, 40.93 37.19 C42.38 37.19, 43.91 37.16, 45.57 36.97 C47.23 36.78, 49.16 36.48, 50.88 36.06 C52.6 35.64, 54.27 35.07, 55.91 34.45 C57.55 33.82, 59.13 33.19, 60.73 32.32 C62.32 31.46, 64.02 30.31, 65.48 29.25 C66.93 28.18, 68.26 27.03, 69.46 25.91 C70.65 24.8, 71.57 23.81, 72.64 22.55 C73.7 21.28, 74.87 19.78, 75.84 18.3 C76.8 16.83, 77.74 15.16, 78.44 13.72 C79.15 12.27, 79.57 11.1, 80.08 9.63 C80.6 8.15, 81.17 6.47, 81.55 4.86 C81.93 3.25, 82.25 0.8, 82.39 -0.01" stroke="#E1E1E1" stroke-width="2" fill="none"></path></g></g><mask></mask><g stroke-linecap="round"><g transform="translate(181.0752233723997 155.14369443835176) rotate(0 20.68961703933519 0.328487793613931)"><path d="M0 0 C1.94 0, 8.32 0, 11.66 0 C15 0, 17.5 0, 20.04 0 C22.58 0, 24.92 0.02, 26.9 0 C28.88 -0.02, 30.6 0.05, 31.91 -0.1 C33.23 -0.26, 33.89 -0.54, 34.8 -0.95 C35.71 -1.35, 36.62 -1.9, 37.38 -2.52 C38.15 -3.14, 38.88 -4, 39.41 -4.65 C39.95 -5.29, 40.32 -5.84, 40.62 -6.4 C40.92 -6.96, 41.08 -8.01, 41.21 -8.02 C41.34 -8.03, 41.35 -7.62, 41.38 -6.46 C41.41 -5.31, 41.38 -2.97, 41.38 -1.07 C41.38 0.84, 41.38 3.5, 41.38 4.95 C41.38 6.4, 41.38 7.01, 41.38 7.63 C41.38 8.25, 41.38 8.5, 41.38 8.67 M0 0 C1.94 0, 8.32 0, 11.66 0 C15 0, 17.5 0, 20.04 0 C22.58 0, 24.92 0.02, 26.9 0 C28.88 -0.02, 30.6 0.05, 31.91 -0.1 C33.23 -0.26, 33.89 -0.54, 34.8 -0.95 C35.71 -1.35, 36.62 -1.9, 37.38 -2.52 C38.15 -3.14, 38.88 -4, 39.41 -4.65 C39.95 -5.29, 40.32 -5.84, 40.62 -6.4 C40.92 -6.96, 41.08 -8.01, 41.21 -8.02 C41.34 -8.03, 41.35 -7.62, 41.38 -6.46 C41.41 -5.31, 41.38 -2.97, 41.38 -1.07 C41.38 0.84, 41.38 3.5, 41.38 4.95 C41.38 6.4, 41.38 7.01, 41.38 7.63 C41.38 8.25, 41.38 8.5, 41.38 8.67" stroke="#E1E1E1" stroke-width="2" fill="none"></path></g></g><mask></mask><g stroke-linecap="round"><g transform="translate(222.4452108316782 163.79834210549916) rotate(0 -91.03290589400467 30.73664086847566)"><path d="M0 0 C-0.36 0.03, -1.27 0.08, -2.17 0.17 C-3.08 0.26, -3.97 0.36, -5.44 0.56 C-6.91 0.75, -9.44 1.15, -11.01 1.35 C-12.58 1.55, -13.89 1.6, -14.86 1.77 C-15.83 1.93, -16.25 2.03, -16.82 2.34 C-17.39 2.65, -17.88 2.95, -18.28 3.63 C-18.68 4.32, -18.88 5.38, -19.22 6.44 C-19.56 7.51, -19.89 8.78, -20.3 10.03 C-20.72 11.28, -21.14 12.49, -21.71 13.97 C-22.28 15.44, -23.05 17.38, -23.73 18.86 C-24.41 20.34, -25.24 21.79, -25.79 22.84 C-26.34 23.89, -26.7 24.52, -27.04 25.15 C-27.37 25.77, -27.68 26.09, -27.82 26.61 C-27.97 27.12, -28 27.75, -27.92 28.24 C-27.84 28.74, -27.7 29, -27.35 29.58 C-27.01 30.16, -26.6 30.71, -25.84 31.73 C-25.08 32.76, -23.78 34.42, -22.79 35.71 C-21.79 37, -20.59 38.57, -19.89 39.47 C-19.19 40.37, -18.94 40.67, -18.57 41.12 C-18.21 41.56, -17.82 41.91, -17.72 42.16 C-17.62 42.42, -17.8 42.43, -17.99 42.66 C-18.17 42.88, -18.27 42.95, -18.84 43.51 C-19.41 44.08, -20.33 44.97, -21.42 46.05 C-22.51 47.13, -24.08 48.68, -25.39 49.98 C-26.7 51.28, -27.87 52.44, -29.28 53.85 C-30.69 55.27, -32.91 57.53, -33.84 58.47 C-34.77 59.42, -34.54 59.21, -34.85 59.53 C-35.15 59.86, -35.32 60.42, -35.67 60.41 C-36.02 60.41, -36.39 59.93, -36.96 59.49 C-37.54 59.06, -38.23 58.52, -39.14 57.79 C-40.05 57.07, -41.23 56.05, -42.41 55.13 C-43.59 54.22, -45.15 53.08, -46.23 52.3 C-47.31 51.53, -48.21 50.86, -48.89 50.5 C-49.58 50.13, -49.83 50.14, -50.33 50.12 C-50.83 50.1, -51.15 50.05, -51.9 50.37 C-52.64 50.69, -53.58 51.38, -54.8 52.04 C-56.03 52.7, -57.64 53.58, -59.26 54.33 C-60.88 55.08, -62.92 55.94, -64.54 56.56 C-66.17 57.18, -67.66 57.61, -69.02 58.04 C-70.38 58.47, -71.8 58.83, -72.7 59.13 C-73.6 59.42, -73.95 59.54, -74.42 59.81 C-74.89 60.07, -75.24 60.35, -75.52 60.72 C-75.8 61.1, -75.93 61.39, -76.1 62.05 C-76.28 62.71, -76.4 63.53, -76.55 64.69 C-76.71 65.85, -76.84 67.42, -77.04 68.99 C-77.23 70.57, -77.56 72.81, -77.72 74.13 C-77.89 75.45, -77.97 76.28, -78.04 76.91 C-78.11 77.54, -78.01 77.72, -78.16 77.91 C-78.31 78.1, -78.42 78.03, -78.95 78.05 C-79.48 78.08, -79.54 78.05, -81.33 78.05 C-83.12 78.05, -87.3 78.05, -89.7 78.05 C-92.1 78.05, -93.7 78.05, -95.74 78.05 C-97.78 78.05, -100.64 78.05, -101.95 78.05 C-103.26 78.05, -103.31 78.16, -103.62 78.05 C-103.94 77.95, -103.79 77.79, -103.85 77.45 C-103.91 77.1, -103.9 76.67, -103.99 75.97 C-104.08 75.28, -104.21 74.42, -104.37 73.26 C-104.53 72.1, -104.79 70.2, -104.94 69.01 C-105.09 67.83, -105.11 67.37, -105.28 66.17 C-105.46 64.97, -105.64 62.88, -105.99 61.83 C-106.35 60.78, -106.67 60.39, -107.43 59.88 C-108.19 59.38, -109.39 59.19, -110.56 58.82 C-111.73 58.44, -112.79 58.18, -114.44 57.62 C-116.09 57.05, -118.87 56.08, -120.46 55.42 C-122.05 54.75, -122.77 54.24, -123.99 53.63 C-125.2 53.02, -126.73 52.3, -127.75 51.76 C-128.76 51.21, -129.39 50.63, -130.06 50.37 C-130.73 50.11, -131.21 50.16, -131.76 50.2 C-132.3 50.23, -132.76 50.31, -133.34 50.58 C-133.91 50.86, -134.27 51.12, -135.22 51.85 C-136.18 52.59, -137.82 54, -139.05 54.97 C-140.29 55.94, -141.67 56.93, -142.64 57.67 C-143.6 58.41, -144.24 58.95, -144.82 59.41 C-145.41 59.87, -145.77 60.36, -146.13 60.43 C-146.48 60.5, -146.54 60.26, -146.98 59.84 C-147.42 59.41, -147.86 58.81, -148.77 57.88 C-149.69 56.94, -151.17 55.5, -152.47 54.21 C-153.76 52.91, -155.06 51.6, -156.57 50.09 C-158.08 48.57, -160.26 46.37, -161.53 45.1 C-162.79 43.84, -163.77 43.06, -164.16 42.47 C-164.54 41.88, -164.13 42.04, -163.84 41.56 C-163.55 41.09, -162.92 40.28, -162.42 39.64 C-161.91 38.99, -161.54 38.62, -160.8 37.72 C-160.06 36.82, -158.78 35.25, -157.98 34.24 C-157.18 33.23, -156.62 32.52, -156.01 31.68 C-155.4 30.84, -154.69 29.77, -154.35 29.19 C-154.01 28.61, -154.02 28.62, -153.96 28.21 C-153.9 27.8, -153.87 27.19, -153.98 26.73 C-154.08 26.27, -154.2 26.12, -154.57 25.46 C-154.94 24.79, -155.56 23.87, -156.18 22.76 C-156.79 21.65, -157.56 20.23, -158.24 18.78 C-158.92 17.32, -159.65 15.59, -160.26 14.03 C-160.86 12.47, -161.44 10.82, -161.89 9.39 C-162.35 7.97, -162.69 6.45, -163 5.49 C-163.32 4.53, -163.45 4.11, -163.76 3.61 C-164.08 3.11, -164.33 2.82, -164.92 2.5 C-165.5 2.17, -166.44 1.84, -167.25 1.66 C-168.06 1.48, -168.67 1.55, -169.8 1.43 C-170.92 1.3, -172.38 1.12, -174.02 0.93 C-175.67 0.74, -178.32 0.45, -179.64 0.27 C-180.97 0.1, -181.57 0.05, -181.96 -0.12 C-182.35 -0.29, -182 -0.32, -182.01 -0.73 C-182.02 -1.14, -182 -1.33, -182.01 -2.59 C-182.02 -3.85, -182.05 -6.67, -182.06 -8.3 C-182.06 -9.93, -182.02 -11.31, -182.02 -12.38 C-182.01 -13.45, -182.02 -14.18, -182.03 -14.72 C-182.03 -15.25, -182.09 -15.31, -182.07 -15.62 C-182.04 -15.93, -181.99 -16.6, -181.9 -16.58 C-181.8 -16.56, -181.69 -15.9, -181.51 -15.51 C-181.33 -15.12, -181.15 -14.73, -180.82 -14.24 C-180.49 -13.75, -180.1 -13.14, -179.54 -12.57 C-178.98 -12, -178.23 -11.34, -177.44 -10.81 C-176.64 -10.29, -175.74 -9.79, -174.77 -9.45 C-173.81 -9.1, -173.15 -8.88, -171.65 -8.75 C-170.14 -8.62, -167.81 -8.7, -165.75 -8.69 C-163.69 -8.68, -162.17 -8.7, -159.3 -8.69 C-156.43 -8.67, -151.06 -8.6, -148.53 -8.58 C-146 -8.56, -145.2 -8.57, -144.13 -8.57 C-143.07 -8.57, -142.73 -8.57, -142.14 -8.58 C-141.56 -8.6, -140.92 -8.79, -140.64 -8.64 C-140.37 -8.5, -140.55 -8.15, -140.49 -7.69 C-140.43 -7.23, -140.42 -6.73, -140.3 -5.87 C-140.17 -5.01, -139.98 -3.71, -139.72 -2.53 C-139.47 -1.35, -139.16 -0.04, -138.78 1.22 C-138.41 2.49, -137.94 3.81, -137.45 5.08 C-136.96 6.35, -136.49 7.57, -135.85 8.86 C-135.21 10.16, -134.42 11.58, -133.62 12.84 C-132.83 14.11, -132.01 15.23, -131.1 16.45 C-130.18 17.67, -129.13 19.01, -128.13 20.15 C-127.14 21.3, -126.2 22.32, -125.13 23.33 C-124.07 24.33, -123.21 25.1, -121.74 26.19 C-120.27 27.28, -117.9 28.9, -116.32 29.87 C-114.75 30.85, -113.75 31.35, -112.3 32.03 C-110.84 32.72, -109.59 33.32, -107.61 33.98 C-105.63 34.64, -102.8 35.51, -100.41 35.98 C-98.03 36.45, -95.63 36.66, -93.29 36.8 C-90.95 36.94, -88.8 37.05, -86.37 36.8 C-83.95 36.55, -81.24 35.96, -78.73 35.3 C-76.21 34.64, -73.31 33.67, -71.27 32.84 C-69.23 32.02, -68.15 31.35, -66.47 30.36 C-64.79 29.38, -62.81 28.13, -61.2 26.94 C-59.58 25.76, -58.18 24.58, -56.79 23.27 C-55.39 21.97, -54.05 20.55, -52.84 19.1 C-51.63 17.66, -50.65 16.33, -49.53 14.59 C-48.4 12.85, -47.21 11.09, -46.09 8.68 C-44.98 6.28, -43.53 2.4, -42.83 0.14 C-42.12 -2.13, -42.11 -3.45, -41.88 -4.92 C-41.64 -6.39, -41.5 -8.03, -41.42 -8.66 M0 0 C-0.36 0.03, -1.27 0.08, -2.17 0.17 C-3.08 0.26, -3.97 0.36, -5.44 0.56 C-6.91 0.75, -9.44 1.15, -11.01 1.35 C-12.58 1.55, -13.89 1.6, -14.86 1.77 C-15.83 1.93, -16.25 2.03, -16.82 2.34 C-17.39 2.65, -17.88 2.95, -18.28 3.63 C-18.68 4.32, -18.88 5.38, -19.22 6.44 C-19.56 7.51, -19.89 8.78, -20.3 10.03 C-20.72 11.28, -21.14 12.49, -21.71 13.97 C-22.28 15.44, -23.05 17.38, -23.73 18.86 C-24.41 20.34, -25.24 21.79, -25.79 22.84 C-26.34 23.89, -26.7 24.52, -27.04 25.15 C-27.37 25.77, -27.68 26.09, -27.82 26.61 C-27.97 27.12, -28 27.75, -27.92 28.24 C-27.84 28.74, -27.7 29, -27.35 29.58 C-27.01 30.16, -26.6 30.71, -25.84 31.73 C-25.08 32.76, -23.78 34.42, -22.79 35.71 C-21.79 37, -20.59 38.57, -19.89 39.47 C-19.19 40.37, -18.94 40.67, -18.57 41.12 C-18.21 41.56, -17.82 41.91, -17.72 42.16 C-17.62 42.42, -17.8 42.43, -17.99 42.66 C-18.17 42.88, -18.27 42.95, -18.84 43.51 C-19.41 44.08, -20.33 44.97, -21.42 46.05 C-22.51 47.13, -24.08 48.68, -25.39 49.98 C-26.7 51.28, -27.87 52.44, -29.28 53.85 C-30.69 55.27, -32.91 57.53, -33.84 58.47 C-34.77 59.42, -34.54 59.21, -34.85 59.53 C-35.15 59.86, -35.32 60.42, -35.67 60.41 C-36.02 60.41, -36.39 59.93, -36.96 59.49 C-37.54 59.06, -38.23 58.52, -39.14 57.79 C-40.05 57.07, -41.23 56.05, -42.41 55.13 C-43.59 54.22, -45.15 53.08, -46.23 52.3 C-47.31 51.53, -48.21 50.86, -48.89 50.5 C-49.58 50.13, -49.83 50.14, -50.33 50.12 C-50.83 50.1, -51.15 50.05, -51.9 50.37 C-52.64 50.69, -53.58 51.38, -54.8 52.04 C-56.03 52.7, -57.64 53.58, -59.26 54.33 C-60.88 55.08, -62.92 55.94, -64.54 56.56 C-66.17 57.18, -67.66 57.61, -69.02 58.04 C-70.38 58.47, -71.8 58.83, -72.7 59.13 C-73.6 59.42, -73.95 59.54, -74.42 59.81 C-74.89 60.07, -75.24 60.35, -75.52 60.72 C-75.8 61.1, -75.93 61.39, -76.1 62.05 C-76.28 62.71, -76.4 63.53, -76.55 64.69 C-76.71 65.85, -76.84 67.42, -77.04 68.99 C-77.23 70.57, -77.56 72.81, -77.72 74.13 C-77.89 75.45, -77.97 76.28, -78.04 76.91 C-78.11 77.54, -78.01 77.72, -78.16 77.91 C-78.31 78.1, -78.42 78.03, -78.95 78.05 C-79.48 78.08, -79.54 78.05, -81.33 78.05 C-83.12 78.05, -87.3 78.05, -89.7 78.05 C-92.1 78.05, -93.7 78.05, -95.74 78.05 C-97.78 78.05, -100.64 78.05, -101.95 78.05 C-103.26 78.05, -103.31 78.16, -103.62 78.05 C-103.94 77.95, -103.79 77.79, -103.85 77.45 C-103.91 77.1, -103.9 76.67, -103.99 75.97 C-104.08 75.28, -104.21 74.42, -104.37 73.26 C-104.53 72.1, -104.79 70.2, -104.94 69.01 C-105.09 67.83, -105.11 67.37, -105.28 66.17 C-105.46 64.97, -105.64 62.88, -105.99 61.83 C-106.35 60.78, -106.67 60.39, -107.43 59.88 C-108.19 59.38, -109.39 59.19, -110.56 58.82 C-111.73 58.44, -112.79 58.18, -114.44 57.62 C-116.09 57.05, -118.87 56.08, -120.46 55.42 C-122.05 54.75, -122.77 54.24, -123.99 53.63 C-125.2 53.02, -126.73 52.3, -127.75 51.76 C-128.76 51.21, -129.39 50.63, -130.06 50.37 C-130.73 50.11, -131.21 50.16, -131.76 50.2 C-132.3 50.23, -132.76 50.31, -133.34 50.58 C-133.91 50.86, -134.27 51.12, -135.22 51.85 C-136.18 52.59, -137.82 54, -139.05 54.97 C-140.29 55.94, -141.67 56.93, -142.64 57.67 C-143.6 58.41, -144.24 58.95, -144.82 59.41 C-145.41 59.87, -145.77 60.36, -146.13 60.43 C-146.48 60.5, -146.54 60.26, -146.98 59.84 C-147.42 59.41, -147.86 58.81, -148.77 57.88 C-149.69 56.94, -151.17 55.5, -152.47 54.21 C-153.76 52.91, -155.06 51.6, -156.57 50.09 C-158.08 48.57, -160.26 46.37, -161.53 45.1 C-162.79 43.84, -163.77 43.06, -164.16 42.47 C-164.54 41.88, -164.13 42.04, -163.84 41.56 C-163.55 41.09, -162.92 40.28, -162.42 39.64 C-161.91 38.99, -161.54 38.62, -160.8 37.72 C-160.06 36.82, -158.78 35.25, -157.98 34.24 C-157.18 33.23, -156.62 32.52, -156.01 31.68 C-155.4 30.84, -154.69 29.77, -154.35 29.19 C-154.01 28.61, -154.02 28.62, -153.96 28.21 C-153.9 27.8, -153.87 27.19, -153.98 26.73 C-154.08 26.27, -154.2 26.12, -154.57 25.46 C-154.94 24.79, -155.56 23.87, -156.18 22.76 C-156.79 21.65, -157.56 20.23, -158.24 18.78 C-158.92 17.32, -159.65 15.59, -160.26 14.03 C-160.86 12.47, -161.44 10.82, -161.89 9.39 C-162.35 7.97, -162.69 6.45, -163 5.49 C-163.32 4.53, -163.45 4.11, -163.76 3.61 C-164.08 3.11, -164.33 2.82, -164.92 2.5 C-165.5 2.17, -166.44 1.84, -167.25 1.66 C-168.06 1.48, -168.67 1.55, -169.8 1.43 C-170.92 1.3, -172.38 1.12, -174.02 0.93 C-175.67 0.74, -178.32 0.45, -179.64 0.27 C-180.97 0.1, -181.57 0.05, -181.96 -0.12 C-182.35 -0.29, -182 -0.32, -182.01 -0.73 C-182.02 -1.14, -182 -1.33, -182.01 -2.59 C-182.02 -3.85, -182.05 -6.67, -182.06 -8.3 C-182.06 -9.93, -182.02 -11.31, -182.02 -12.38 C-182.01 -13.45, -182.02 -14.18, -182.03 -14.72 C-182.03 -15.25, -182.09 -15.31, -182.07 -15.62 C-182.04 -15.93, -181.99 -16.6, -181.9 -16.58 C-181.8 -16.56, -181.69 -15.9, -181.51 -15.51 C-181.33 -15.12, -181.15 -14.73, -180.82 -14.24 C-180.49 -13.75, -180.1 -13.14, -179.54 -12.57 C-178.98 -12, -178.23 -11.34, -177.44 -10.81 C-176.64 -10.29, -175.74 -9.79, -174.77 -9.45 C-173.81 -9.1, -173.15 -8.88, -171.65 -8.75 C-170.14 -8.62, -167.81 -8.7, -165.75 -8.69 C-163.69 -8.68, -162.17 -8.7, -159.3 -8.69 C-156.43 -8.67, -151.06 -8.6, -148.53 -8.58 C-146 -8.56, -145.2 -8.57, -144.13 -8.57 C-143.07 -8.57, -142.73 -8.57, -142.14 -8.58 C-141.56 -8.6, -140.92 -8.79, -140.64 -8.64 C-140.37 -8.5, -140.55 -8.15, -140.49 -7.69 C-140.43 -7.23, -140.42 -6.73, -140.3 -5.87 C-140.17 -5.01, -139.98 -3.71, -139.72 -2.53 C-139.47 -1.35, -139.16 -0.04, -138.78 1.22 C-138.41 2.49, -137.94 3.81, -137.45 5.08 C-136.96 6.35, -136.49 7.57, -135.85 8.86 C-135.21 10.16, -134.42 11.58, -133.62 12.84 C-132.83 14.11, -132.01 15.23, -131.1 16.45 C-130.18 17.67, -129.13 19.01, -128.13 20.15 C-127.14 21.3, -126.2 22.32, -125.13 23.33 C-124.07 24.33, -123.21 25.1, -121.74 26.19 C-120.27 27.28, -117.9 28.9, -116.32 29.87 C-114.75 30.85, -113.75 31.35, -112.3 32.03 C-110.84 32.72, -109.59 33.32, -107.61 33.98 C-105.63 34.64, -102.8 35.51, -100.41 35.98 C-98.03 36.45, -95.63 36.66, -93.29 36.8 C-90.95 36.94, -88.8 37.05, -86.37 36.8 C-83.95 36.55, -81.24 35.96, -78.73 35.3 C-76.21 34.64, -73.31 33.67, -71.27 32.84 C-69.23 32.02, -68.15 31.35, -66.47 30.36 C-64.79 29.38, -62.81 28.13, -61.2 26.94 C-59.58 25.76, -58.18 24.58, -56.79 23.27 C-55.39 21.97, -54.05 20.55, -52.84 19.1 C-51.63 17.66, -50.65 16.33, -49.53 14.59 C-48.4 12.85, -47.21 11.09, -46.09 8.68 C-44.98 6.28, -43.53 2.4, -42.83 0.14 C-42.12 -2.13, -42.11 -3.45, -41.88 -4.92 C-41.64 -6.39, -41.5 -8.03, -41.42 -8.66" stroke="#E1E1E1" stroke-width="2" fill="none"></path></g></g><mask></mask><g stroke-linecap="round"><g transform="translate(10.386466921368083 178.65430725538363) rotate(0 4.555723770024542 1.325799082123467)"><path d="M0 0 C-0.05 -0.31, -0.58 -1.45, -0.31 -1.85 C-0.05 -2.25, 0.96 -2.25, 1.58 -2.41 C2.19 -2.56, 2.59 -2.61, 3.35 -2.78 C4.12 -2.95, 5.51 -3.29, 6.17 -3.44 C6.84 -3.58, 7.09 -3.77, 7.34 -3.63 C7.59 -3.48, 7.47 -3.37, 7.69 -2.56 C7.91 -1.76, 8.37 0.12, 8.66 1.2 C8.95 2.29, 9.45 3.38, 9.42 3.94 C9.4 4.5, 9.24 4.29, 8.54 4.56 C7.83 4.83, 6.28 5.26, 5.18 5.55 C4.07 5.84, 2.6 6.52, 1.91 6.28 C1.23 6.04, 1.31 4.86, 1.06 4.09 C0.81 3.33, 0.6 2.37, 0.42 1.68 C0.24 1, 0.07 0.28, 0 0 M0 0 C-0.05 -0.31, -0.58 -1.45, -0.31 -1.85 C-0.05 -2.25, 0.96 -2.25, 1.58 -2.41 C2.19 -2.56, 2.59 -2.61, 3.35 -2.78 C4.12 -2.95, 5.51 -3.29, 6.17 -3.44 C6.84 -3.58, 7.09 -3.77, 7.34 -3.63 C7.59 -3.48, 7.47 -3.37, 7.69 -2.56 C7.91 -1.76, 8.37 0.12, 8.66 1.2 C8.95 2.29, 9.45 3.38, 9.42 3.94 C9.4 4.5, 9.24 4.29, 8.54 4.56 C7.83 4.83, 6.28 5.26, 5.18 5.55 C4.07 5.84, 2.6 6.52, 1.91 6.28 C1.23 6.04, 1.31 4.86, 1.06 4.09 C0.81 3.33, 0.6 2.37, 0.42 1.68 C0.24 1, 0.07 0.28, 0 0" stroke="#E1E1E1" stroke-width="2" fill="none"></path></g></g><mask></mask><g stroke-linecap="round"><g transform="translate(17.80198414505594 192.71109391080563) rotate(0 17.271355225940624 25.065307974019333)"><path d="M0 0 C0.43 -0.16, 1.87 -0.7, 2.59 -0.98 C3.32 -1.26, 3.97 -1.71, 4.36 -1.69 C4.75 -1.67, 4.59 -1.62, 4.94 -0.87 C5.29 -0.12, 5.8 1.31, 6.44 2.8 C7.09 4.29, 7.89 6.18, 8.79 8.06 C9.69 9.94, 10.74 12.09, 11.85 14.1 C12.96 16.1, 14.08 18, 15.44 20.09 C16.8 22.17, 18.39 24.4, 20.01 26.59 C21.63 28.77, 23.25 30.95, 25.15 33.18 C27.04 35.42, 29.65 38.18, 31.38 39.98 C33.1 41.77, 34.51 43, 35.5 43.96 C36.48 44.91, 37.08 45.25, 37.3 45.71 C37.51 46.17, 37.32 46.03, 36.79 46.71 C36.25 47.39, 34.84 48.94, 34.08 49.79 C33.32 50.64, 32.71 51.6, 32.23 51.82 C31.75 52.04, 31.76 51.57, 31.22 51.09 C30.68 50.61, 29.93 49.85, 28.99 48.96 C28.05 48.07, 26.72 46.89, 25.59 45.76 C24.46 44.63, 23.46 43.61, 22.19 42.2 C20.92 40.79, 19.37 39.01, 17.95 37.3 C16.53 35.59, 15.03 33.8, 13.67 31.95 C12.3 30.1, 11.1 28.29, 9.77 26.21 C8.45 24.12, 6.95 21.59, 5.72 19.44 C4.49 17.29, 3.37 15.23, 2.4 13.3 C1.43 11.37, 0.58 9.38, -0.12 7.84 C-0.81 6.3, -1.31 5.16, -1.75 4.08 C-2.19 3.01, -2.77 1.98, -2.76 1.4 C-2.75 0.82, -2.15 0.86, -1.69 0.62 C-1.23 0.39, -0.28 0.1, 0 0 M0 0 C0.43 -0.16, 1.87 -0.7, 2.59 -0.98 C3.32 -1.26, 3.97 -1.71, 4.36 -1.69 C4.75 -1.67, 4.59 -1.62, 4.94 -0.87 C5.29 -0.12, 5.8 1.31, 6.44 2.8 C7.09 4.29, 7.89 6.18, 8.79 8.06 C9.69 9.94, 10.74 12.09, 11.85 14.1 C12.96 16.1, 14.08 18, 15.44 20.09 C16.8 22.17, 18.39 24.4, 20.01 26.59 C21.63 28.77, 23.25 30.95, 25.15 33.18 C27.04 35.42, 29.65 38.18, 31.38 39.98 C33.1 41.77, 34.51 43, 35.5 43.96 C36.48 44.91, 37.08 45.25, 37.3 45.71 C37.51 46.17, 37.32 46.03, 36.79 46.71 C36.25 47.39, 34.84 48.94, 34.08 49.79 C33.32 50.64, 32.71 51.6, 32.23 51.82 C31.75 52.04, 31.76 51.57, 31.22 51.09 C30.68 50.61, 29.93 49.85, 28.99 48.96 C28.05 48.07, 26.72 46.89, 25.59 45.76 C24.46 44.63, 23.46 43.61, 22.19 42.2 C20.92 40.79, 19.37 39.01, 17.95 37.3 C16.53 35.59, 15.03 33.8, 13.67 31.95 C12.3 30.1, 11.1 28.29, 9.77 26.21 C8.45 24.12, 6.95 21.59, 5.72 19.44 C4.49 17.29, 3.37 15.23, 2.4 13.3 C1.43 11.37, 0.58 9.38, -0.12 7.84 C-0.81 6.3, -1.31 5.16, -1.75 4.08 C-2.19 3.01, -2.77 1.98, -2.76 1.4 C-2.75 0.82, -2.15 0.86, -1.69 0.62 C-1.23 0.39, -0.28 0.1, 0 0" stroke="#E1E1E1" stroke-width="2" fill="none"></path></g></g><mask></mask><g stroke-linecap="round"><g transform="translate(81.62078910737455 194.83850461512475) rotate(0 0.027923700748033298 5.865260352777568)"><path d="M0 0 C1.3 1.28, 2.6 2.56, 5.92 5.83 M0 0 C2.29 2.25, 4.57 4.5, 5.92 5.83 M5.92 5.83 C3.96 7.78, 2 9.72, -0.03 11.73 M5.92 5.83 C4.5 7.24, 3.09 8.64, -0.03 11.73 M-0.03 11.73 C-1.98 9.74, -3.93 7.75, -5.87 5.77 M-0.03 11.73 C-2.04 9.68, -4.05 7.63, -5.87 5.77 M-5.87 5.77 C-3.88 3.82, -1.89 1.86, 0 0 M-5.87 5.77 C-4.51 4.44, -3.16 3.11, 0 0" stroke="#E1E1E1" stroke-width="2" fill="none"></path></g></g><mask></mask><g stroke-linecap="round"><g transform="translate(131.5095099751279 215.4495999649057) rotate(315 0.027923700748033298 5.865260352777568)"><path d="M0 0 C1.64 1.62, 3.28 3.23, 5.92 5.83 M0 0 C1.4 1.38, 2.8 2.76, 5.92 5.83 M5.92 5.83 C3.86 7.88, 1.8 9.92, -0.03 11.73 M5.92 5.83 C4.63 7.12, 3.33 8.4, -0.03 11.73 M-0.03 11.73 C-2.14 9.58, -4.25 7.43, -5.87 5.77 M-0.03 11.73 C-1.49 10.24, -2.94 8.76, -5.87 5.77 M-5.87 5.77 C-4.1 4.03, -2.33 2.29, 0 0 M-5.87 5.77 C-4.16 4.09, -2.45 2.41, 0 0" stroke="#E1E1E1" stroke-width="2" fill="none"></path></g></g><mask></mask><g stroke-linecap="round"><g transform="translate(181.3214004889669 194.85960314470776) rotate(358.98889543479487 0.027923700748033298 5.865260352777568)"><path d="M0 0 C1.75 1.73, 3.51 3.46, 5.92 5.83 M0 0 C1.9 1.87, 3.8 3.74, 5.92 5.83 M5.92 5.83 C4.64 7.11, 3.35 8.38, -0.03 11.73 M5.92 5.83 C3.58 8.15, 1.24 10.47, -0.03 11.73 M-0.03 11.73 C-1.25 10.48, -2.48 9.23, -5.87 5.77 M-0.03 11.73 C-2.26 9.45, -4.5 7.17, -5.87 5.77 M-5.87 5.77 C-4.09 4.03, -2.31 2.28, 0 0 M-5.87 5.77 C-3.61 3.55, -1.35 1.33, 0 0" stroke="#E1E1E1" stroke-width="2" fill="none"></path></g></g><mask></mask><g stroke-linecap="round"><g transform="translate(131.49087161431635 128.3240973224738) rotate(0 0.10159780464437063 -3.1714255346269056)"><path d="M0 0 C-0.72 -0.75, -1.43 -1.5, -1.91 -2.01 M0 0 C-0.71 -0.75, -1.42 -1.49, -1.91 -2.01 M-1.91 -2.01 C-2.21 -2.29, -2.51 -2.56, -3.02 -3.03 M-1.91 -2.01 C-2.18 -2.25, -2.45 -2.5, -3.02 -3.03 M-3.02 -3.03 C-2.53 -4.02, -2.05 -5.01, -1.42 -6.3 M-3.02 -3.03 C-2.43 -4.24, -1.84 -5.45, -1.42 -6.3 M-1.42 -6.3 C-0.4 -6.32, 0.62 -6.33, 1.23 -6.34 M-1.42 -6.3 C-0.57 -6.32, 0.28 -6.33, 1.23 -6.34 M1.23 -6.34 C1.87 -5.34, 2.5 -4.34, 3.22 -3.2 M1.23 -6.34 C1.69 -5.62, 2.14 -4.9, 3.22 -3.2 M3.22 -3.2 C1.95 -1.94, 0.69 -0.69, 0 0 M3.22 -3.2 C1.99 -1.98, 0.77 -0.76, 0 0" stroke="#E1E1E1" stroke-width="2" fill="none"></path></g></g><mask></mask><g stroke-linecap="round"><g transform="translate(110.14388357350163 117.86866605122577) rotate(0 5.684178708268973 3.546069844426711)"><path d="M0 0 C0.18 0.37, 0.65 1.22, 1.06 2.21 C1.47 3.21, 2.17 5.15, 2.46 5.97 C2.74 6.79, 2.5 6.99, 2.77 7.13 C3.03 7.27, 3.13 7.12, 4.05 6.82 C4.97 6.52, 7.35 5.67, 8.29 5.34 C9.22 5.01, 9.3 5.08, 9.65 4.83 C10 4.58, 10.09 4.29, 10.38 3.83 C10.67 3.36, 11.32 2.44, 11.37 2.03 C11.42 1.61, 11.05 1.56, 10.69 1.32 C10.32 1.09, 9.63 0.82, 9.19 0.61 C8.76 0.41, 8.6 0.22, 8.09 0.11 C7.58 0, 7.1 -0.02, 6.14 -0.04 C5.19 -0.06, 3.37 -0.02, 2.35 -0.01 C1.32 0, 0.39 0, 0 0 M0 0 C0.18 0.37, 0.65 1.22, 1.06 2.21 C1.47 3.21, 2.17 5.15, 2.46 5.97 C2.74 6.79, 2.5 6.99, 2.77 7.13 C3.03 7.27, 3.13 7.12, 4.05 6.82 C4.97 6.52, 7.35 5.67, 8.29 5.34 C9.22 5.01, 9.3 5.08, 9.65 4.83 C10 4.58, 10.09 4.29, 10.38 3.83 C10.67 3.36, 11.32 2.44, 11.37 2.03 C11.42 1.61, 11.05 1.56, 10.69 1.32 C10.32 1.09, 9.63 0.82, 9.19 0.61 C8.76 0.41, 8.6 0.22, 8.09 0.11 C7.58 0, 7.1 -0.02, 6.14 -0.04 C5.19 -0.06, 3.37 -0.02, 2.35 -0.01 C1.32 0, 0.39 0, 0 0" stroke="#E1E1E1" stroke-width="2" fill="none"></path></g></g><mask></mask><g stroke-linecap="round"><g transform="translate(152.6634935565071 117.8521713614141) rotate(0 -5.684178708268973 3.546069844426711)"><path d="M0 0 C-0.18 0.37, -0.65 1.22, -1.06 2.21 C-1.47 3.21, -2.17 5.15, -2.46 5.97 C-2.74 6.79, -2.5 6.99, -2.77 7.13 C-3.03 7.27, -3.13 7.12, -4.05 6.82 C-4.97 6.52, -7.35 5.67, -8.29 5.34 C-9.22 5.01, -9.3 5.08, -9.65 4.83 C-10 4.58, -10.09 4.29, -10.38 3.83 C-10.67 3.36, -11.32 2.44, -11.37 2.03 C-11.42 1.61, -11.05 1.56, -10.69 1.32 C-10.32 1.09, -9.63 0.82, -9.19 0.61 C-8.76 0.41, -8.6 0.22, -8.09 0.11 C-7.58 0, -7.1 -0.02, -6.14 -0.04 C-5.19 -0.06, -3.37 -0.02, -2.35 -0.01 C-1.32 0, -0.39 0, 0 0 M0 0 C-0.18 0.37, -0.65 1.22, -1.06 2.21 C-1.47 3.21, -2.17 5.15, -2.46 5.97 C-2.74 6.79, -2.5 6.99, -2.77 7.13 C-3.03 7.27, -3.13 7.12, -4.05 6.82 C-4.97 6.52, -7.35 5.67, -8.29 5.34 C-9.22 5.01, -9.3 5.08, -9.65 4.83 C-10 4.58, -10.09 4.29, -10.38 3.83 C-10.67 3.36, -11.32 2.44, -11.37 2.03 C-11.42 1.61, -11.05 1.56, -10.69 1.32 C-10.32 1.09, -9.63 0.82, -9.19 0.61 C-8.76 0.41, -8.6 0.22, -8.09 0.11 C-7.58 0, -7.1 -0.02, -6.14 -0.04 C-5.19 -0.06, -3.37 -0.02, -2.35 -0.01 C-1.32 0, -0.39 0, 0 0" stroke="#E1E1E1" stroke-width="2" fill="none"></path></g></g><mask></mask><g stroke-linecap="round"><g transform="translate(131.13778650901259 146.60802191282028) rotate(0 0.2451411320716943 -4.534771443487216)"><path d="M0 0 C0.76 0, 3.42 0, 4.55 0 C5.67 0, 6.38 0.12, 6.73 0 C7.09 -0.12, 6.88 -0.12, 6.66 -0.74 C6.44 -1.37, 5.77 -2.81, 5.4 -3.77 C5.02 -4.73, 4.68 -5.72, 4.41 -6.49 C4.13 -7.26, 3.96 -7.93, 3.75 -8.37 C3.55 -8.81, 3.4 -9.11, 3.19 -9.14 C2.97 -9.17, 2.75 -8.73, 2.45 -8.55 C2.14 -8.38, 1.85 -8.19, 1.36 -8.1 C0.87 -8.02, 0.01 -8, -0.5 -8.04 C-1.01 -8.08, -1.38 -8.16, -1.7 -8.32 C-2.01 -8.49, -2.21 -9.01, -2.42 -9.04 C-2.62 -9.07, -2.7 -8.94, -2.92 -8.5 C-3.15 -8.06, -3.41 -7.31, -3.76 -6.39 C-4.11 -5.47, -4.69 -3.87, -5.04 -2.97 C-5.39 -2.06, -5.66 -1.45, -5.86 -0.96 C-6.06 -0.47, -6.34 -0.2, -6.24 -0.03 C-6.14 0.14, -6.3 0.07, -5.26 0.07 C-4.22 0.08, -0.88 0.01, 0 0 M0 0 C0.76 0, 3.42 0, 4.55 0 C5.67 0, 6.38 0.12, 6.73 0 C7.09 -0.12, 6.88 -0.12, 6.66 -0.74 C6.44 -1.37, 5.77 -2.81, 5.4 -3.77 C5.02 -4.73, 4.68 -5.72, 4.41 -6.49 C4.13 -7.26, 3.96 -7.93, 3.75 -8.37 C3.55 -8.81, 3.4 -9.11, 3.19 -9.14 C2.97 -9.17, 2.75 -8.73, 2.45 -8.55 C2.14 -8.38, 1.85 -8.19, 1.36 -8.1 C0.87 -8.02, 0.01 -8, -0.5 -8.04 C-1.01 -8.08, -1.38 -8.16, -1.7 -8.32 C-2.01 -8.49, -2.21 -9.01, -2.42 -9.04 C-2.62 -9.07, -2.7 -8.94, -2.92 -8.5 C-3.15 -8.06, -3.41 -7.31, -3.76 -6.39 C-4.11 -5.47, -4.69 -3.87, -5.04 -2.97 C-5.39 -2.06, -5.66 -1.45, -5.86 -0.96 C-6.06 -0.47, -6.34 -0.2, -6.24 -0.03 C-6.14 0.14, -6.3 0.07, -5.26 0.07 C-4.22 0.08, -0.88 0.01, 0 0" stroke="#E1E1E1" stroke-width="2" fill="none"></path></g></g><mask></mask><g stroke-linecap="round"><g transform="translate(131.7544014745672 113.58645114471938) rotate(0 -0.3181038892116703 -2.5688581698748294)"><path d="M0 0 C-0.45 0, -2.09 0, -2.67 0 C-3.26 0, -3.24 0.07, -3.51 0 C-3.77 -0.07, -3.83 -0.18, -4.26 -0.41 C-4.69 -0.64, -5.52 -1.12, -6.08 -1.41 C-6.63 -1.7, -7.2 -1.96, -7.59 -2.16 C-7.99 -2.37, -8.29 -2.42, -8.45 -2.65 C-8.61 -2.87, -8.56 -3.18, -8.57 -3.49 C-8.59 -3.8, -8.57 -4.24, -8.55 -4.51 C-8.53 -4.79, -8.64 -5.09, -8.47 -5.16 C-8.3 -5.23, -8.06 -5.04, -7.54 -4.92 C-7.03 -4.79, -6.27 -4.55, -5.4 -4.4 C-4.54 -4.25, -3.42 -4.11, -2.37 -4.04 C-1.31 -3.97, -0.09 -3.97, 0.92 -3.99 C1.92 -4.01, 2.8 -4.07, 3.66 -4.17 C4.52 -4.27, 5.43 -4.45, 6.08 -4.58 C6.72 -4.71, 7.22 -4.97, 7.52 -4.95 C7.82 -4.94, 7.82 -4.81, 7.88 -4.48 C7.95 -4.16, 8 -3.38, 7.94 -3.02 C7.88 -2.67, 7.98 -2.63, 7.53 -2.34 C7.08 -2.05, 5.8 -1.56, 5.21 -1.27 C4.62 -0.99, 4.36 -0.83, 3.98 -0.63 C3.59 -0.43, 3.4 -0.19, 2.88 -0.08 C2.37 0.03, 1.37 0.01, 0.89 0.02 C0.41 0.03, 0.15 0, 0 0 M0 0 C-0.45 0, -2.09 0, -2.67 0 C-3.26 0, -3.24 0.07, -3.51 0 C-3.77 -0.07, -3.83 -0.18, -4.26 -0.41 C-4.69 -0.64, -5.52 -1.12, -6.08 -1.41 C-6.63 -1.7, -7.2 -1.96, -7.59 -2.16 C-7.99 -2.37, -8.29 -2.42, -8.45 -2.65 C-8.61 -2.87, -8.56 -3.18, -8.57 -3.49 C-8.59 -3.8, -8.57 -4.24, -8.55 -4.51 C-8.53 -4.79, -8.64 -5.09, -8.47 -5.16 C-8.3 -5.23, -8.06 -5.04, -7.54 -4.92 C-7.03 -4.79, -6.27 -4.55, -5.4 -4.4 C-4.54 -4.25, -3.42 -4.11, -2.37 -4.04 C-1.31 -3.97, -0.09 -3.97, 0.92 -3.99 C1.92 -4.01, 2.8 -4.07, 3.66 -4.17 C4.52 -4.27, 5.43 -4.45, 6.08 -4.58 C6.72 -4.71, 7.22 -4.97, 7.52 -4.95 C7.82 -4.94, 7.82 -4.81, 7.88 -4.48 C7.95 -4.16, 8 -3.38, 7.94 -3.02 C7.88 -2.67, 7.98 -2.63, 7.53 -2.34 C7.08 -2.05, 5.8 -1.56, 5.21 -1.27 C4.62 -0.99, 4.36 -0.83, 3.98 -0.63 C3.59 -0.43, 3.4 -0.19, 2.88 -0.08 C2.37 0.03, 1.37 0.01, 0.89 0.02 C0.41 0.03, 0.15 0, 0 0" stroke="#E1E1E1" stroke-width="2" fill="none"></path></g></g><mask></mask><g stroke-linecap="round"><g transform="translate(164.97995743054344 146.67799491272172) rotate(0 14.888163303550755 -26.832217011334933)"><path d="M0 0 C3.29 0, 13.09 0, 19.76 0 C26.42 0, 35.85 0, 39.98 0 C44.12 0, 43.44 0.02, 44.58 0 C45.72 -0.02, 46.17 0.04, 46.81 -0.12 C47.44 -0.28, 47.95 -0.63, 48.37 -0.97 C48.79 -1.31, 49.09 -1.61, 49.34 -2.16 C49.6 -2.72, 49.69 -2.97, 49.87 -4.29 C50.06 -5.62, 50.23 -7.68, 50.46 -10.11 C50.69 -12.54, 50.94 -15.64, 51.24 -18.88 C51.54 -22.12, 52 -26.92, 52.25 -29.56 C52.51 -32.2, 52.61 -32.88, 52.78 -34.72 C52.94 -36.56, 53.22 -39.19, 53.24 -40.58 C53.25 -41.97, 53.08 -41.83, 52.87 -43.07 C52.66 -44.32, 52.28 -46.55, 51.99 -48.04 C51.7 -49.54, 51.35 -51.11, 51.15 -52.02 C50.95 -52.94, 51.03 -53.24, 50.78 -53.53 C50.53 -53.82, 50.33 -53.73, 49.65 -53.77 C48.98 -53.8, 47.84 -53.75, 46.71 -53.74 C45.58 -53.73, 43.78 -53.72, 42.87 -53.71 C41.95 -53.71, 41.53 -53.85, 41.22 -53.73 C40.92 -53.6, 41.06 -53.73, 41.04 -52.96 C41.02 -52.19, 41.08 -51.04, 41.09 -49.11 C41.09 -47.19, 41.07 -44.61, 41.06 -41.42 C41.05 -38.24, 41.03 -32.47, 41.03 -30.01 C41.03 -27.55, 41.1 -27.49, 41.07 -26.66 C41.04 -25.83, 41.07 -25.56, 40.84 -25.04 C40.62 -24.53, 40.17 -23.98, 39.72 -23.58 C39.26 -23.18, 38.72 -22.82, 38.1 -22.64 C37.49 -22.46, 36.68 -22.36, 36.02 -22.49 C35.37 -22.63, 34.82 -22.99, 34.16 -23.43 C33.49 -23.86, 32.76 -24.59, 32.01 -25.1 C31.26 -25.62, 30.63 -26.07, 29.67 -26.55 C28.7 -27.02, 27.34 -27.6, 26.21 -27.95 C25.09 -28.31, 23.96 -28.51, 22.91 -28.66 C21.86 -28.8, 20.89 -28.83, 19.91 -28.82 C18.94 -28.81, 18.07 -28.76, 17.06 -28.59 C16.06 -28.41, 14.97 -28.16, 13.87 -27.75 C12.78 -27.35, 11.38 -26.62, 10.51 -26.16 C9.65 -25.69, 9.24 -25.3, 8.69 -24.96 C8.14 -24.61, 7.81 -24.24, 7.21 -24.09 C6.62 -23.93, 5.75 -23.9, 5.13 -24.02 C4.52 -24.14, 4.17 -24.43, 3.52 -24.8 C2.87 -25.17, 2.06 -25.82, 1.25 -26.25 C0.45 -26.68, -0.56 -27.07, -1.32 -27.37 C-2.09 -27.67, -2.84 -28.16, -3.31 -28.05 C-3.79 -27.95, -3.8 -27.54, -4.17 -26.73 C-4.55 -25.92, -5.02 -24.57, -5.56 -23.2 C-6.11 -21.84, -6.93 -19.81, -7.43 -18.54 C-7.94 -17.26, -8.14 -16.44, -8.59 -15.54 C-9.04 -14.65, -9.53 -13.72, -10.12 -13.17 C-10.72 -12.61, -11.44 -12.33, -12.16 -12.21 C-12.88 -12.09, -13.65 -12.27, -14.43 -12.44 C-15.21 -12.62, -15.88 -12.95, -16.83 -13.26 C-17.78 -13.58, -19.28 -14.08, -20.13 -14.36 C-20.98 -14.64, -21.39 -14.77, -21.94 -14.95 C-22.5 -15.13, -23.32 -15.72, -23.46 -15.45 C-23.6 -15.17, -23.11 -14.29, -22.78 -13.3 C-22.45 -12.32, -22.02 -11.14, -21.46 -9.54 C-20.9 -7.93, -19.93 -5.17, -19.4 -3.66 C-18.87 -2.14, -18.64 -1.07, -18.26 -0.44 C-17.89 0.18, -18.17 0.02, -17.15 0.1 C-16.12 0.19, -14.97 0.09, -12.11 0.07 C-9.26 0.06, -2.02 0.01, 0 0 M0 0 C3.29 0, 13.09 0, 19.76 0 C26.42 0, 35.85 0, 39.98 0 C44.12 0, 43.44 0.02, 44.58 0 C45.72 -0.02, 46.17 0.04, 46.81 -0.12 C47.44 -0.28, 47.95 -0.63, 48.37 -0.97 C48.79 -1.31, 49.09 -1.61, 49.34 -2.16 C49.6 -2.72, 49.69 -2.97, 49.87 -4.29 C50.06 -5.62, 50.23 -7.68, 50.46 -10.11 C50.69 -12.54, 50.94 -15.64, 51.24 -18.88 C51.54 -22.12, 52 -26.92, 52.25 -29.56 C52.51 -32.2, 52.61 -32.88, 52.78 -34.72 C52.94 -36.56, 53.22 -39.19, 53.24 -40.58 C53.25 -41.97, 53.08 -41.83, 52.87 -43.07 C52.66 -44.32, 52.28 -46.55, 51.99 -48.04 C51.7 -49.54, 51.35 -51.11, 51.15 -52.02 C50.95 -52.94, 51.03 -53.24, 50.78 -53.53 C50.53 -53.82, 50.33 -53.73, 49.65 -53.77 C48.98 -53.8, 47.84 -53.75, 46.71 -53.74 C45.58 -53.73, 43.78 -53.72, 42.87 -53.71 C41.95 -53.71, 41.53 -53.85, 41.22 -53.73 C40.92 -53.6, 41.06 -53.73, 41.04 -52.96 C41.02 -52.19, 41.08 -51.04, 41.09 -49.11 C41.09 -47.19, 41.07 -44.61, 41.06 -41.42 C41.05 -38.24, 41.03 -32.47, 41.03 -30.01 C41.03 -27.55, 41.1 -27.49, 41.07 -26.66 C41.04 -25.83, 41.07 -25.56, 40.84 -25.04 C40.62 -24.53, 40.17 -23.98, 39.72 -23.58 C39.26 -23.18, 38.72 -22.82, 38.1 -22.64 C37.49 -22.46, 36.68 -22.36, 36.02 -22.49 C35.37 -22.63, 34.82 -22.99, 34.16 -23.43 C33.49 -23.86, 32.76 -24.59, 32.01 -25.1 C31.26 -25.62, 30.63 -26.07, 29.67 -26.55 C28.7 -27.02, 27.34 -27.6, 26.21 -27.95 C25.09 -28.31, 23.96 -28.51, 22.91 -28.66 C21.86 -28.8, 20.89 -28.83, 19.91 -28.82 C18.94 -28.81, 18.07 -28.76, 17.06 -28.59 C16.06 -28.41, 14.97 -28.16, 13.87 -27.75 C12.78 -27.35, 11.38 -26.62, 10.51 -26.16 C9.65 -25.69, 9.24 -25.3, 8.69 -24.96 C8.14 -24.61, 7.81 -24.24, 7.21 -24.09 C6.62 -23.93, 5.75 -23.9, 5.13 -24.02 C4.52 -24.14, 4.17 -24.43, 3.52 -24.8 C2.87 -25.17, 2.06 -25.82, 1.25 -26.25 C0.45 -26.68, -0.56 -27.07, -1.32 -27.37 C-2.09 -27.67, -2.84 -28.16, -3.31 -28.05 C-3.79 -27.95, -3.8 -27.54, -4.17 -26.73 C-4.55 -25.92, -5.02 -24.57, -5.56 -23.2 C-6.11 -21.84, -6.93 -19.81, -7.43 -18.54 C-7.94 -17.26, -8.14 -16.44, -8.59 -15.54 C-9.04 -14.65, -9.53 -13.72, -10.12 -13.17 C-10.72 -12.61, -11.44 -12.33, -12.16 -12.21 C-12.88 -12.09, -13.65 -12.27, -14.43 -12.44 C-15.21 -12.62, -15.88 -12.95, -16.83 -13.26 C-17.78 -13.58, -19.28 -14.08, -20.13 -14.36 C-20.98 -14.64, -21.39 -14.77, -21.94 -14.95 C-22.5 -15.13, -23.32 -15.72, -23.46 -15.45 C-23.6 -15.17, -23.11 -14.29, -22.78 -13.3 C-22.45 -12.32, -22.02 -11.14, -21.46 -9.54 C-20.9 -7.93, -19.93 -5.17, -19.4 -3.66 C-18.87 -2.14, -18.64 -1.07, -18.26 -0.44 C-17.89 0.18, -18.17 0.02, -17.15 0.1 C-16.12 0.19, -14.97 0.09, -12.11 0.07 C-9.26 0.06, -2.02 0.01, 0 0" stroke="#E1E1E1" stroke-width="2" fill="none"></path></g></g><mask></mask><g stroke-linecap="round"><g transform="translate(97.878599605001 146.65062310314488) rotate(0 -14.888163303550755 -26.832217011334933)"><path d="M0 0 C-3.29 0, -13.09 0, -19.76 0 C-26.42 0, -35.85 0, -39.98 0 C-44.12 0, -43.44 0.02, -44.58 0 C-45.72 -0.02, -46.17 0.04, -46.81 -0.12 C-47.44 -0.28, -47.95 -0.63, -48.37 -0.97 C-48.79 -1.31, -49.09 -1.61, -49.34 -2.16 C-49.6 -2.72, -49.69 -2.97, -49.87 -4.29 C-50.06 -5.62, -50.23 -7.68, -50.46 -10.11 C-50.69 -12.54, -50.94 -15.64, -51.24 -18.88 C-51.54 -22.12, -52 -26.92, -52.25 -29.56 C-52.51 -32.2, -52.61 -32.88, -52.78 -34.72 C-52.94 -36.56, -53.22 -39.19, -53.24 -40.58 C-53.25 -41.97, -53.08 -41.83, -52.87 -43.07 C-52.66 -44.32, -52.28 -46.55, -51.99 -48.04 C-51.7 -49.54, -51.35 -51.11, -51.15 -52.02 C-50.95 -52.94, -51.03 -53.24, -50.78 -53.53 C-50.53 -53.82, -50.33 -53.73, -49.65 -53.77 C-48.98 -53.8, -47.84 -53.75, -46.71 -53.74 C-45.58 -53.73, -43.78 -53.72, -42.87 -53.71 C-41.95 -53.71, -41.53 -53.85, -41.22 -53.73 C-40.92 -53.6, -41.06 -53.73, -41.04 -52.96 C-41.02 -52.19, -41.08 -51.04, -41.09 -49.11 C-41.09 -47.19, -41.07 -44.61, -41.06 -41.42 C-41.05 -38.24, -41.03 -32.47, -41.03 -30.01 C-41.03 -27.55, -41.1 -27.49, -41.07 -26.66 C-41.04 -25.83, -41.07 -25.56, -40.84 -25.04 C-40.62 -24.53, -40.17 -23.98, -39.72 -23.58 C-39.26 -23.18, -38.72 -22.82, -38.1 -22.64 C-37.49 -22.46, -36.68 -22.36, -36.02 -22.49 C-35.37 -22.63, -34.82 -22.99, -34.16 -23.43 C-33.49 -23.86, -32.76 -24.59, -32.01 -25.1 C-31.26 -25.62, -30.63 -26.07, -29.67 -26.55 C-28.7 -27.02, -27.34 -27.6, -26.21 -27.95 C-25.09 -28.31, -23.96 -28.51, -22.91 -28.66 C-21.86 -28.8, -20.89 -28.83, -19.91 -28.82 C-18.94 -28.81, -18.07 -28.76, -17.06 -28.59 C-16.06 -28.41, -14.97 -28.16, -13.87 -27.75 C-12.78 -27.35, -11.38 -26.62, -10.51 -26.16 C-9.65 -25.69, -9.24 -25.3, -8.69 -24.96 C-8.14 -24.61, -7.81 -24.24, -7.21 -24.09 C-6.62 -23.93, -5.75 -23.9, -5.13 -24.02 C-4.52 -24.14, -4.17 -24.43, -3.52 -24.8 C-2.87 -25.17, -2.06 -25.82, -1.25 -26.25 C-0.45 -26.68, 0.56 -27.07, 1.32 -27.37 C2.09 -27.67, 2.84 -28.16, 3.31 -28.05 C3.79 -27.95, 3.8 -27.54, 4.17 -26.73 C4.55 -25.92, 5.02 -24.57, 5.56 -23.2 C6.11 -21.84, 6.93 -19.81, 7.43 -18.54 C7.94 -17.26, 8.14 -16.44, 8.59 -15.54 C9.04 -14.65, 9.53 -13.72, 10.12 -13.17 C10.72 -12.61, 11.44 -12.33, 12.16 -12.21 C12.88 -12.09, 13.65 -12.27, 14.43 -12.44 C15.21 -12.62, 15.88 -12.95, 16.83 -13.26 C17.78 -13.58, 19.28 -14.08, 20.13 -14.36 C20.98 -14.64, 21.39 -14.77, 21.94 -14.95 C22.5 -15.13, 23.32 -15.72, 23.46 -15.45 C23.6 -15.17, 23.11 -14.29, 22.78 -13.3 C22.45 -12.32, 22.02 -11.14, 21.46 -9.54 C20.9 -7.93, 19.93 -5.17, 19.4 -3.66 C18.87 -2.14, 18.64 -1.07, 18.26 -0.44 C17.89 0.18, 18.17 0.02, 17.15 0.1 C16.12 0.19, 14.97 0.09, 12.11 0.07 C9.26 0.06, 2.02 0.01, 0 0 M0 0 C-3.29 0, -13.09 0, -19.76 0 C-26.42 0, -35.85 0, -39.98 0 C-44.12 0, -43.44 0.02, -44.58 0 C-45.72 -0.02, -46.17 0.04, -46.81 -0.12 C-47.44 -0.28, -47.95 -0.63, -48.37 -0.97 C-48.79 -1.31, -49.09 -1.61, -49.34 -2.16 C-49.6 -2.72, -49.69 -2.97, -49.87 -4.29 C-50.06 -5.62, -50.23 -7.68, -50.46 -10.11 C-50.69 -12.54, -50.94 -15.64, -51.24 -18.88 C-51.54 -22.12, -52 -26.92, -52.25 -29.56 C-52.51 -32.2, -52.61 -32.88, -52.78 -34.72 C-52.94 -36.56, -53.22 -39.19, -53.24 -40.58 C-53.25 -41.97, -53.08 -41.83, -52.87 -43.07 C-52.66 -44.32, -52.28 -46.55, -51.99 -48.04 C-51.7 -49.54, -51.35 -51.11, -51.15 -52.02 C-50.95 -52.94, -51.03 -53.24, -50.78 -53.53 C-50.53 -53.82, -50.33 -53.73, -49.65 -53.77 C-48.98 -53.8, -47.84 -53.75, -46.71 -53.74 C-45.58 -53.73, -43.78 -53.72, -42.87 -53.71 C-41.95 -53.71, -41.53 -53.85, -41.22 -53.73 C-40.92 -53.6, -41.06 -53.73, -41.04 -52.96 C-41.02 -52.19, -41.08 -51.04, -41.09 -49.11 C-41.09 -47.19, -41.07 -44.61, -41.06 -41.42 C-41.05 -38.24, -41.03 -32.47, -41.03 -30.01 C-41.03 -27.55, -41.1 -27.49, -41.07 -26.66 C-41.04 -25.83, -41.07 -25.56, -40.84 -25.04 C-40.62 -24.53, -40.17 -23.98, -39.72 -23.58 C-39.26 -23.18, -38.72 -22.82, -38.1 -22.64 C-37.49 -22.46, -36.68 -22.36, -36.02 -22.49 C-35.37 -22.63, -34.82 -22.99, -34.16 -23.43 C-33.49 -23.86, -32.76 -24.59, -32.01 -25.1 C-31.26 -25.62, -30.63 -26.07, -29.67 -26.55 C-28.7 -27.02, -27.34 -27.6, -26.21 -27.95 C-25.09 -28.31, -23.96 -28.51, -22.91 -28.66 C-21.86 -28.8, -20.89 -28.83, -19.91 -28.82 C-18.94 -28.81, -18.07 -28.76, -17.06 -28.59 C-16.06 -28.41, -14.97 -28.16, -13.87 -27.75 C-12.78 -27.35, -11.38 -26.62, -10.51 -26.16 C-9.65 -25.69, -9.24 -25.3, -8.69 -24.96 C-8.14 -24.61, -7.81 -24.24, -7.21 -24.09 C-6.62 -23.93, -5.75 -23.9, -5.13 -24.02 C-4.52 -24.14, -4.17 -24.43, -3.52 -24.8 C-2.87 -25.17, -2.06 -25.82, -1.25 -26.25 C-0.45 -26.68, 0.56 -27.07, 1.32 -27.37 C2.09 -27.67, 2.84 -28.16, 3.31 -28.05 C3.79 -27.95, 3.8 -27.54, 4.17 -26.73 C4.55 -25.92, 5.02 -24.57, 5.56 -23.2 C6.11 -21.84, 6.93 -19.81, 7.43 -18.54 C7.94 -17.26, 8.14 -16.44, 8.59 -15.54 C9.04 -14.65, 9.53 -13.72, 10.12 -13.17 C10.72 -12.61, 11.44 -12.33, 12.16 -12.21 C12.88 -12.09, 13.65 -12.27, 14.43 -12.44 C15.21 -12.62, 15.88 -12.95, 16.83 -13.26 C17.78 -13.58, 19.28 -14.08, 20.13 -14.36 C20.98 -14.64, 21.39 -14.77, 21.94 -14.95 C22.5 -15.13, 23.32 -15.72, 23.46 -15.45 C23.6 -15.17, 23.11 -14.29, 22.78 -13.3 C22.45 -12.32, 22.02 -11.14, 21.46 -9.54 C20.9 -7.93, 19.93 -5.17, 19.4 -3.66 C18.87 -2.14, 18.64 -1.07, 18.26 -0.44 C17.89 0.18, 18.17 0.02, 17.15 0.1 C16.12 0.19, 14.97 0.09, 12.11 0.07 C9.26 0.06, 2.02 0.01, 0 0" stroke="#E1E1E1" stroke-width="2" fill="none"></path></g></g><mask></mask><g stroke-linecap="round"><g transform="translate(53.94763036923996 84.56695363054178) rotate(0 5.082593165845992 -8.21265472058235)"><path d="M0 0 C-0.6 0, -2.73 0.01, -3.59 0 C-4.45 -0.01, -4.94 0.08, -5.17 -0.05 C-5.4 -0.17, -5.12 -0.24, -4.98 -0.74 C-4.84 -1.23, -4.52 -2.15, -4.33 -3.02 C-4.15 -3.89, -4.09 -4.91, -3.86 -5.94 C-3.63 -6.98, -3.42 -8.21, -2.97 -9.23 C-2.52 -10.24, -1.83 -11.23, -1.17 -12.03 C-0.52 -12.83, 0.1 -13.4, 0.97 -14.02 C1.84 -14.63, 3.03 -15.33, 4.05 -15.72 C5.08 -16.1, 6.04 -16.21, 7.12 -16.33 C8.2 -16.45, 9.58 -16.47, 10.53 -16.43 C11.47 -16.38, 12.12 -16.39, 12.79 -16.07 C13.47 -15.76, 14.14 -15.14, 14.56 -14.55 C14.99 -13.96, 15.3 -13.23, 15.33 -12.54 C15.36 -11.85, 15.07 -10.99, 14.73 -10.4 C14.39 -9.82, 13.78 -9.38, 13.29 -9.04 C12.79 -8.7, 12.43 -8.49, 11.75 -8.36 C11.07 -8.23, 10.05 -8.29, 9.21 -8.28 C8.37 -8.27, 7.39 -8.35, 6.73 -8.28 C6.08 -8.22, 5.75 -8.14, 5.28 -7.89 C4.8 -7.64, 4.24 -7.2, 3.87 -6.77 C3.49 -6.33, 3.2 -5.93, 3.04 -5.27 C2.88 -4.6, 2.92 -3.47, 2.9 -2.78 C2.87 -2.09, 2.9 -1.57, 2.9 -1.13 C2.9 -0.69, 3.05 -0.33, 2.9 -0.14 C2.74 0.05, 2.48 -0.03, 1.99 -0.01 C1.51 0.02, 0.33 0, 0 0 M0 0 C-0.6 0, -2.73 0.01, -3.59 0 C-4.45 -0.01, -4.94 0.08, -5.17 -0.05 C-5.4 -0.17, -5.12 -0.24, -4.98 -0.74 C-4.84 -1.23, -4.52 -2.15, -4.33 -3.02 C-4.15 -3.89, -4.09 -4.91, -3.86 -5.94 C-3.63 -6.98, -3.42 -8.21, -2.97 -9.23 C-2.52 -10.24, -1.83 -11.23, -1.17 -12.03 C-0.52 -12.83, 0.1 -13.4, 0.97 -14.02 C1.84 -14.63, 3.03 -15.33, 4.05 -15.72 C5.08 -16.1, 6.04 -16.21, 7.12 -16.33 C8.2 -16.45, 9.58 -16.47, 10.53 -16.43 C11.47 -16.38, 12.12 -16.39, 12.79 -16.07 C13.47 -15.76, 14.14 -15.14, 14.56 -14.55 C14.99 -13.96, 15.3 -13.23, 15.33 -12.54 C15.36 -11.85, 15.07 -10.99, 14.73 -10.4 C14.39 -9.82, 13.78 -9.38, 13.29 -9.04 C12.79 -8.7, 12.43 -8.49, 11.75 -8.36 C11.07 -8.23, 10.05 -8.29, 9.21 -8.28 C8.37 -8.27, 7.39 -8.35, 6.73 -8.28 C6.08 -8.22, 5.75 -8.14, 5.28 -7.89 C4.8 -7.64, 4.24 -7.2, 3.87 -6.77 C3.49 -6.33, 3.2 -5.93, 3.04 -5.27 C2.88 -4.6, 2.92 -3.47, 2.9 -2.78 C2.87 -2.09, 2.9 -1.57, 2.9 -1.13 C2.9 -0.69, 3.05 -0.33, 2.9 -0.14 C2.74 0.05, 2.48 -0.03, 1.99 -0.01 C1.51 0.02, 0.33 0, 0 0" stroke="#E1E1E1" stroke-width="2" fill="none"></path></g></g><mask></mask><g stroke-linecap="round"><g transform="translate(208.98610908466435 84.51986639339248) rotate(0 -5.082593165845992 -8.21265472058235)"><path d="M0 0 C0.6 0, 2.73 0.01, 3.59 0 C4.45 -0.01, 4.94 0.08, 5.17 -0.05 C5.4 -0.17, 5.12 -0.24, 4.98 -0.74 C4.84 -1.23, 4.52 -2.15, 4.33 -3.02 C4.15 -3.89, 4.09 -4.91, 3.86 -5.94 C3.63 -6.98, 3.42 -8.21, 2.97 -9.23 C2.52 -10.24, 1.83 -11.23, 1.17 -12.03 C0.52 -12.83, -0.1 -13.4, -0.97 -14.02 C-1.84 -14.63, -3.03 -15.33, -4.05 -15.72 C-5.08 -16.1, -6.04 -16.21, -7.12 -16.33 C-8.2 -16.45, -9.58 -16.47, -10.53 -16.43 C-11.47 -16.38, -12.12 -16.39, -12.79 -16.07 C-13.47 -15.76, -14.14 -15.14, -14.56 -14.55 C-14.99 -13.96, -15.3 -13.23, -15.33 -12.54 C-15.36 -11.85, -15.07 -10.99, -14.73 -10.4 C-14.39 -9.82, -13.78 -9.38, -13.29 -9.04 C-12.79 -8.7, -12.43 -8.49, -11.75 -8.36 C-11.07 -8.23, -10.05 -8.29, -9.21 -8.28 C-8.37 -8.27, -7.39 -8.35, -6.73 -8.28 C-6.08 -8.22, -5.75 -8.14, -5.28 -7.89 C-4.8 -7.64, -4.24 -7.2, -3.87 -6.77 C-3.49 -6.33, -3.2 -5.93, -3.04 -5.27 C-2.88 -4.6, -2.92 -3.47, -2.9 -2.78 C-2.87 -2.09, -2.9 -1.57, -2.9 -1.13 C-2.9 -0.69, -3.05 -0.33, -2.9 -0.14 C-2.74 0.05, -2.48 -0.03, -1.99 -0.01 C-1.51 0.02, -0.33 0, 0 0 M0 0 C0.6 0, 2.73 0.01, 3.59 0 C4.45 -0.01, 4.94 0.08, 5.17 -0.05 C5.4 -0.17, 5.12 -0.24, 4.98 -0.74 C4.84 -1.23, 4.52 -2.15, 4.33 -3.02 C4.15 -3.89, 4.09 -4.91, 3.86 -5.94 C3.63 -6.98, 3.42 -8.21, 2.97 -9.23 C2.52 -10.24, 1.83 -11.23, 1.17 -12.03 C0.52 -12.83, -0.1 -13.4, -0.97 -14.02 C-1.84 -14.63, -3.03 -15.33, -4.05 -15.72 C-5.08 -16.1, -6.04 -16.21, -7.12 -16.33 C-8.2 -16.45, -9.58 -16.47, -10.53 -16.43 C-11.47 -16.38, -12.12 -16.39, -12.79 -16.07 C-13.47 -15.76, -14.14 -15.14, -14.56 -14.55 C-14.99 -13.96, -15.3 -13.23, -15.33 -12.54 C-15.36 -11.85, -15.07 -10.99, -14.73 -10.4 C-14.39 -9.82, -13.78 -9.38, -13.29 -9.04 C-12.79 -8.7, -12.43 -8.49, -11.75 -8.36 C-11.07 -8.23, -10.05 -8.29, -9.21 -8.28 C-8.37 -8.27, -7.39 -8.35, -6.73 -8.28 C-6.08 -8.22, -5.75 -8.14, -5.28 -7.89 C-4.8 -7.64, -4.24 -7.2, -3.87 -6.77 C-3.49 -6.33, -3.2 -5.93, -3.04 -5.27 C-2.88 -4.6, -2.92 -3.47, -2.9 -2.78 C-2.87 -2.09, -2.9 -1.57, -2.9 -1.13 C-2.9 -0.69, -3.05 -0.33, -2.9 -0.14 C-2.74 0.05, -2.48 -0.03, -1.99 -0.01 C-1.51 0.02, -0.33 0, 0 0" stroke="#E1E1E1" stroke-width="2" fill="none"></path></g></g><mask></mask><g stroke-linecap="round"><g transform="translate(164.66245180808164 71.20544342071844) rotate(0 1.9393832006562661 1.0722308421723028)"><path d="M0 0 C0 0.58, 0 2.61, 0 3.47 C0 4.33, -0.18 4.92, 0 5.16 C0.18 5.41, 0.66 5.12, 1.05 4.95 C1.45 4.78, 1.99 4.51, 2.39 4.17 C2.79 3.82, 3.2 3.34, 3.46 2.88 C3.72 2.43, 3.88 1.95, 3.92 1.42 C3.96 0.9, 3.89 0.28, 3.71 -0.26 C3.53 -0.79, 3.22 -1.38, 2.84 -1.8 C2.45 -2.22, 1.84 -2.56, 1.39 -2.77 C0.94 -2.97, 0.36 -3.15, 0.12 -3.02 C-0.11 -2.89, -0.02 -2.49, -0.04 -1.99 C-0.06 -1.49, -0.01 -0.33, 0 0 M0 0 C0 0.58, 0 2.61, 0 3.47 C0 4.33, -0.18 4.92, 0 5.16 C0.18 5.41, 0.66 5.12, 1.05 4.95 C1.45 4.78, 1.99 4.51, 2.39 4.17 C2.79 3.82, 3.2 3.34, 3.46 2.88 C3.72 2.43, 3.88 1.95, 3.92 1.42 C3.96 0.9, 3.89 0.28, 3.71 -0.26 C3.53 -0.79, 3.22 -1.38, 2.84 -1.8 C2.45 -2.22, 1.84 -2.56, 1.39 -2.77 C0.94 -2.97, 0.36 -3.15, 0.12 -3.02 C-0.11 -2.89, -0.02 -2.49, -0.04 -1.99 C-0.06 -1.49, -0.01 -0.33, 0 0" stroke="#E1E1E1" stroke-width="2" fill="none"></path></g></g><mask></mask><g stroke-linecap="round"><g transform="translate(98.14977072996135 71.11759005919475) rotate(0 -1.9393832006562661 1.0722308421723028)"><path d="M0 0 C0 0.58, 0 2.61, 0 3.47 C0 4.33, 0.18 4.92, 0 5.16 C-0.18 5.41, -0.66 5.12, -1.05 4.95 C-1.45 4.78, -1.99 4.51, -2.39 4.17 C-2.79 3.82, -3.2 3.34, -3.46 2.88 C-3.72 2.43, -3.88 1.95, -3.92 1.42 C-3.96 0.9, -3.89 0.28, -3.71 -0.26 C-3.53 -0.79, -3.22 -1.38, -2.84 -1.8 C-2.45 -2.22, -1.84 -2.56, -1.39 -2.77 C-0.94 -2.97, -0.36 -3.15, -0.12 -3.02 C0.11 -2.89, 0.02 -2.49, 0.04 -1.99 C0.06 -1.49, 0.01 -0.33, 0 0 M0 0 C0 0.58, 0 2.61, 0 3.47 C0 4.33, 0.18 4.92, 0 5.16 C-0.18 5.41, -0.66 5.12, -1.05 4.95 C-1.45 4.78, -1.99 4.51, -2.39 4.17 C-2.79 3.82, -3.2 3.34, -3.46 2.88 C-3.72 2.43, -3.88 1.95, -3.92 1.42 C-3.96 0.9, -3.89 0.28, -3.71 -0.26 C-3.53 -0.79, -3.22 -1.38, -2.84 -1.8 C-2.45 -2.22, -1.84 -2.56, -1.39 -2.77 C-0.94 -2.97, -0.36 -3.15, -0.12 -3.02 C0.11 -2.89, 0.02 -2.49, 0.04 -1.99 C0.06 -1.49, 0.01 -0.33, 0 0" stroke="#E1E1E1" stroke-width="2" fill="none"></path></g></g><mask></mask><g stroke-linecap="round"><g transform="translate(130.18487103504594 59.852202763538116) rotate(0 1.2203302000557414 20.597310053288993)"><path d="M0 0 C1.87 0, 8.26 0, 11.22 0 C14.19 0, 15.89 0, 17.82 0 C19.75 0, 21.65 0, 22.8 0 C23.94 0, 24.18 0, 24.67 0 C25.16 0, 25.52 -0.13, 25.74 0 C25.97 0.13, 25.96 -0.04, 26.01 0.78 C26.06 1.6, 26.04 2.96, 26.05 4.93 C26.06 6.9, 26.07 10.4, 26.06 12.59 C26.05 14.79, 26.11 16.42, 25.99 18.09 C25.86 19.77, 25.74 21.08, 25.31 22.66 C24.89 24.24, 24.27 25.99, 23.44 27.59 C22.6 29.2, 21.47 30.87, 20.28 32.3 C19.1 33.72, 17.74 35.05, 16.34 36.14 C14.93 37.24, 13.41 38.14, 11.84 38.88 C10.28 39.62, 8.47 40.19, 6.97 40.57 C5.46 40.96, 4.32 41.11, 2.83 41.19 C1.34 41.28, -0.13 41.37, -1.99 41.06 C-3.85 40.76, -6.4 40.16, -8.33 39.38 C-10.26 38.6, -12.03 37.55, -13.59 36.38 C-15.15 35.2, -16.6 33.59, -17.71 32.33 C-18.82 31.08, -19.52 30.14, -20.24 28.87 C-20.96 27.59, -21.56 26.13, -22.04 24.67 C-22.53 23.22, -22.93 21.57, -23.17 20.12 C-23.42 18.67, -23.44 17.69, -23.5 15.95 C-23.56 14.2, -23.51 12.29, -23.53 9.64 C-23.55 6.98, -23.6 1.64, -23.62 0.04 M0 0 C1.87 0, 8.26 0, 11.22 0 C14.19 0, 15.89 0, 17.82 0 C19.75 0, 21.65 0, 22.8 0 C23.94 0, 24.18 0, 24.67 0 C25.16 0, 25.52 -0.13, 25.74 0 C25.97 0.13, 25.96 -0.04, 26.01 0.78 C26.06 1.6, 26.04 2.96, 26.05 4.93 C26.06 6.9, 26.07 10.4, 26.06 12.59 C26.05 14.79, 26.11 16.42, 25.99 18.09 C25.86 19.77, 25.74 21.08, 25.31 22.66 C24.89 24.24, 24.27 25.99, 23.44 27.59 C22.6 29.2, 21.47 30.87, 20.28 32.3 C19.1 33.72, 17.74 35.05, 16.34 36.14 C14.93 37.24, 13.41 38.14, 11.84 38.88 C10.28 39.62, 8.47 40.19, 6.97 40.57 C5.46 40.96, 4.32 41.11, 2.83 41.19 C1.34 41.28, -0.13 41.37, -1.99 41.06 C-3.85 40.76, -6.4 40.16, -8.33 39.38 C-10.26 38.6, -12.03 37.55, -13.59 36.38 C-15.15 35.2, -16.6 33.59, -17.71 32.33 C-18.82 31.08, -19.52 30.14, -20.24 28.87 C-20.96 27.59, -21.56 26.13, -22.04 24.67 C-22.53 23.22, -22.93 21.57, -23.17 20.12 C-23.42 18.67, -23.44 17.69, -23.5 15.95 C-23.56 14.2, -23.51 12.29, -23.53 9.64 C-23.55 6.98, -23.6 1.64, -23.62 0.04" stroke="#E1E1E1" stroke-width="2" fill="none"></path></g></g><mask></mask><g stroke-linecap="round"><g transform="translate(106.56803893079541 59.89314440772387) rotate(0 11.78581415804183 -0.03219364768506239)"><path d="M0 0 C3.93 -0.01, 19.64 -0.05, 23.57 -0.06 M0 0 C3.93 -0.01, 19.64 -0.05, 23.57 -0.06" stroke="#E1E1E1" stroke-width="2" fill="none"></path></g></g><mask></mask><g stroke-linecap="round"><g transform="translate(119.09215045479505 66.35275225571877) rotate(315 0.027923700748033298 5.865260352777568)"><path d="M0 0 C2.35 2.31, 4.7 4.63, 5.92 5.83 M0 0 C1.22 1.2, 2.44 2.41, 5.92 5.83 M5.92 5.83 C4.17 7.57, 2.42 9.3, -0.03 11.73 M5.92 5.83 C4.31 7.43, 2.7 9.02, -0.03 11.73 M-0.03 11.73 C-1.96 9.76, -3.88 7.8, -5.87 5.77 M-0.03 11.73 C-1.95 9.77, -3.87 7.81, -5.87 5.77 M-5.87 5.77 C-4.32 4.26, -2.78 2.74, 0 0 M-5.87 5.77 C-4.02 3.96, -2.18 2.15, 0 0" stroke="#E1E1E1" stroke-width="2" fill="none"></path></g></g><mask></mask><g stroke-linecap="round"><g transform="translate(143.90393362559735 66.32460229898243) rotate(315 0.027923700748033298 5.865260352777568)"><path d="M0 0 C2.16 2.13, 4.32 4.25, 5.92 5.83 M0 0 C2.18 2.15, 4.37 4.3, 5.92 5.83 M5.92 5.83 C4.26 7.48, 2.6 9.12, -0.03 11.73 M5.92 5.83 C3.87 7.86, 1.82 9.89, -0.03 11.73 M-0.03 11.73 C-2.09 9.63, -4.14 7.53, -5.87 5.77 M-0.03 11.73 C-1.38 10.36, -2.72 8.98, -5.87 5.77 M-5.87 5.77 C-3.81 3.75, -1.76 1.73, 0 0 M-5.87 5.77 C-4.47 4.4, -3.08 3.03, 0 0" stroke="#E1E1E1" stroke-width="2" fill="none"></path></g></g><mask></mask><g stroke-linecap="round"><g transform="translate(143.87725802635578 20.31877599624977) rotate(0 5.910777793462785 7.304285225154445)"><path d="M0 0 C0 0.88, 0 3.35, 0 5.28 C0 7.21, 0 10.33, 0 11.58 C0 12.83, 0 12.29, 0 12.77 C0 13.24, -0.15 14.12, 0 14.42 C0.15 14.73, 0.14 14.58, 0.9 14.61 C1.65 14.64, 3.34 14.61, 4.54 14.61 C5.75 14.61, 7.12 14.61, 8.12 14.61 C9.12 14.61, 9.92 14.61, 10.53 14.61 C11.15 14.61, 11.62 14.78, 11.82 14.61 C12.02 14.43, 11.87 14.14, 11.72 13.55 C11.57 12.96, 11.29 11.92, 10.94 11.05 C10.58 10.19, 10.12 9.22, 9.59 8.35 C9.06 7.48, 8.42 6.64, 7.76 5.82 C7.09 4.99, 6.45 4.15, 5.6 3.39 C4.74 2.62, 3.58 1.76, 2.64 1.2 C1.71 0.64, 0.44 0.2, 0 0 M0 0 C0 0.88, 0 3.35, 0 5.28 C0 7.21, 0 10.33, 0 11.58 C0 12.83, 0 12.29, 0 12.77 C0 13.24, -0.15 14.12, 0 14.42 C0.15 14.73, 0.14 14.58, 0.9 14.61 C1.65 14.64, 3.34 14.61, 4.54 14.61 C5.75 14.61, 7.12 14.61, 8.12 14.61 C9.12 14.61, 9.92 14.61, 10.53 14.61 C11.15 14.61, 11.62 14.78, 11.82 14.61 C12.02 14.43, 11.87 14.14, 11.72 13.55 C11.57 12.96, 11.29 11.92, 10.94 11.05 C10.58 10.19, 10.12 9.22, 9.59 8.35 C9.06 7.48, 8.42 6.64, 7.76 5.82 C7.09 4.99, 6.45 4.15, 5.6 3.39 C4.74 2.62, 3.58 1.76, 2.64 1.2 C1.71 0.64, 0.44 0.2, 0 0" stroke="#E1E1E1" stroke-width="2" fill="none"></path></g></g><mask></mask><g stroke-linecap="round"><g transform="translate(127.25604272130659 10.041456909613771) rotate(0 4.179981611074709 12.377755062560254)"><path d="M0 0 C0 6.79, 0 13.58, 0 24.8 M0 0 C0 9.57, 0 19.13, 0 24.8 M0 24.8 C2.39 24.8, 4.78 24.8, 8.36 24.8 M0 24.8 C1.7 24.8, 3.39 24.8, 8.36 24.8 M8.36 24.8 C8.36 18.66, 8.36 12.52, 8.36 -0.04 M8.36 24.8 C8.36 17.26, 8.36 9.73, 8.36 -0.04 M8.36 -0.04 C5.04 -0.02, 1.71 -0.01, 0 0 M8.36 -0.04 C6.5 -0.03, 4.64 -0.02, 0 0" stroke="#E1E1E1" stroke-width="2" fill="none"></path></g></g><mask></mask><g stroke-linecap="round"><g transform="translate(118.95415911597502 20.276347121950494) rotate(0 -5.910777793462785 7.304285225154445)"><path d="M0 0 C0 0.88, 0 3.35, 0 5.28 C0 7.21, 0 10.33, 0 11.58 C0 12.83, 0 12.29, 0 12.77 C0 13.24, 0.15 14.12, 0 14.42 C-0.15 14.73, -0.14 14.58, -0.9 14.61 C-1.65 14.64, -3.34 14.61, -4.54 14.61 C-5.75 14.61, -7.12 14.61, -8.12 14.61 C-9.12 14.61, -9.92 14.61, -10.53 14.61 C-11.15 14.61, -11.62 14.78, -11.82 14.61 C-12.02 14.43, -11.87 14.14, -11.72 13.55 C-11.57 12.96, -11.29 11.92, -10.94 11.05 C-10.58 10.19, -10.12 9.22, -9.59 8.35 C-9.06 7.48, -8.42 6.64, -7.76 5.82 C-7.09 4.99, -6.45 4.15, -5.6 3.39 C-4.74 2.62, -3.58 1.76, -2.64 1.2 C-1.71 0.64, -0.44 0.2, 0 0 M0 0 C0 0.88, 0 3.35, 0 5.28 C0 7.21, 0 10.33, 0 11.58 C0 12.83, 0 12.29, 0 12.77 C0 13.24, 0.15 14.12, 0 14.42 C-0.15 14.73, -0.14 14.58, -0.9 14.61 C-1.65 14.64, -3.34 14.61, -4.54 14.61 C-5.75 14.61, -7.12 14.61, -8.12 14.61 C-9.12 14.61, -9.92 14.61, -10.53 14.61 C-11.15 14.61, -11.62 14.78, -11.82 14.61 C-12.02 14.43, -11.87 14.14, -11.72 13.55 C-11.57 12.96, -11.29 11.92, -10.94 11.05 C-10.58 10.19, -10.12 9.22, -9.59 8.35 C-9.06 7.48, -8.42 6.64, -7.76 5.82 C-7.09 4.99, -6.45 4.15, -5.6 3.39 C-4.74 2.62, -3.58 1.76, -2.64 1.2 C-1.71 0.64, -0.44 0.2, 0 0" stroke="#E1E1E1" stroke-width="2" fill="none"></path></g></g><mask></mask><g stroke-linecap="round"><g transform="translate(120.75179852168094 43.2571639829207) rotate(0 10.720072171712673 4.075845747642461)"><path d="M0 0 C2.56 0, 11.13 0, 15.38 0 C19.62 0, 22.39 0, 25.49 0 C28.59 0, 31.86 0, 33.98 0 C36.11 0, 37.14 -0.02, 38.25 0 C39.35 0.02, 39.9 -0.08, 40.62 0.12 C41.35 0.32, 42.09 0.68, 42.6 1.19 C43.11 1.71, 43.53 2.51, 43.7 3.22 C43.86 3.93, 43.82 4.78, 43.59 5.44 C43.36 6.09, 42.81 6.74, 42.32 7.17 C41.84 7.59, 41.46 7.84, 40.7 8.01 C39.93 8.18, 39.95 8.15, 37.75 8.18 C35.55 8.21, 32.16 8.18, 27.47 8.18 C22.79 8.18, 15.87 8.18, 9.64 8.18 C3.4 8.18, -5.53 8.18, -9.92 8.18 C-14.31 8.18, -15.15 8.19, -16.7 8.18 C-18.25 8.17, -18.52 8.27, -19.21 8.11 C-19.89 7.95, -20.34 7.64, -20.8 7.21 C-21.27 6.78, -21.73 6.2, -21.98 5.53 C-22.22 4.87, -22.4 3.96, -22.26 3.24 C-22.11 2.51, -21.62 1.71, -21.1 1.19 C-20.58 0.66, -20.1 0.29, -19.14 0.08 C-18.18 -0.12, -18.51 -0.02, -15.32 -0.03 C-12.14 -0.04, -2.55 -0.01, 0 0 M0 0 C2.56 0, 11.13 0, 15.38 0 C19.62 0, 22.39 0, 25.49 0 C28.59 0, 31.86 0, 33.98 0 C36.11 0, 37.14 -0.02, 38.25 0 C39.35 0.02, 39.9 -0.08, 40.62 0.12 C41.35 0.32, 42.09 0.68, 42.6 1.19 C43.11 1.71, 43.53 2.51, 43.7 3.22 C43.86 3.93, 43.82 4.78, 43.59 5.44 C43.36 6.09, 42.81 6.74, 42.32 7.17 C41.84 7.59, 41.46 7.84, 40.7 8.01 C39.93 8.18, 39.95 8.15, 37.75 8.18 C35.55 8.21, 32.16 8.18, 27.47 8.18 C22.79 8.18, 15.87 8.18, 9.64 8.18 C3.4 8.18, -5.53 8.18, -9.92 8.18 C-14.31 8.18, -15.15 8.19, -16.7 8.18 C-18.25 8.17, -18.52 8.27, -19.21 8.11 C-19.89 7.95, -20.34 7.64, -20.8 7.21 C-21.27 6.78, -21.73 6.2, -21.98 5.53 C-22.22 4.87, -22.4 3.96, -22.26 3.24 C-22.11 2.51, -21.62 1.71, -21.1 1.19 C-20.58 0.66, -20.1 0.29, -19.14 0.08 C-18.18 -0.12, -18.51 -0.02, -15.32 -0.03 C-12.14 -0.04, -2.55 -0.01, 0 0" stroke="#E1E1E1" stroke-width="2" fill="none"></path></g></g><mask></mask><g stroke-linecap="round"><g transform="translate(65.25288000152705 93.55802259846223) rotate(0 24.688688977451875 -0.10099716579520646)"><path d="M0 0 C0 1.71, 0 7.54, 0 10.29 C0 13.04, 0 15.1, 0 16.49 C0 17.87, -0.18 18.31, 0 18.6 C0.18 18.88, 0.46 18.45, 1.08 18.21 C1.7 17.97, 2.68 17.49, 3.73 17.16 C4.77 16.83, 6.09 16.44, 7.33 16.24 C8.56 16.04, 9.68 15.98, 11.14 15.96 C12.6 15.93, 14.4 15.84, 16.09 16.08 C17.77 16.32, 19.91 16.97, 21.23 17.4 C22.55 17.82, 23.15 18.21, 24 18.63 C24.84 19.04, 25.71 19.73, 26.29 19.87 C26.88 20.01, 26.9 19.75, 27.49 19.49 C28.09 19.22, 28.92 18.7, 29.86 18.29 C30.79 17.89, 31.87 17.43, 33.11 17.06 C34.34 16.68, 35.72 16.27, 37.26 16.07 C38.81 15.86, 40.83 15.88, 42.38 15.85 C43.93 15.81, 45.44 15.84, 46.58 15.85 C47.71 15.85, 48.71 16.03, 49.19 15.89 C49.68 15.75, 49.44 15.41, 49.49 15 C49.55 14.58, 49.53 13.93, 49.52 13.4 C49.52 12.87, 49.57 12.2, 49.47 11.8 C49.38 11.41, 49.59 11.52, 48.95 11.03 C48.3 10.54, 46.72 9.72, 45.59 8.85 C44.47 7.98, 43.3 7, 42.19 5.82 C41.08 4.65, 39.91 3.25, 38.93 1.81 C37.95 0.37, 36.99 -1.51, 36.32 -2.81 C35.65 -4.12, 35.3 -5.04, 34.91 -6.02 C34.53 -7.01, 34.32 -8.23, 34.01 -8.72 C33.69 -9.21, 33.54 -8.91, 33.03 -8.97 C32.52 -9.02, 31.78 -8.89, 30.95 -9.06 C30.11 -9.23, 28.75 -9.74, 28.04 -9.97 C27.33 -10.2, 27.07 -10.47, 26.71 -10.47 C26.35 -10.47, 26.19 -9.95, 25.88 -9.97 C25.56 -9.98, 25.53 -10.05, 24.83 -10.57 C24.13 -11.1, 22.88 -12.17, 21.67 -13.11 C20.47 -14.05, 18.79 -15.3, 17.61 -16.22 C16.43 -17.15, 15.42 -18.01, 14.6 -18.65 C13.78 -19.29, 13.09 -20.04, 12.68 -20.07 C12.28 -20.11, 12.37 -19.45, 12.15 -18.85 C11.94 -18.25, 11.79 -17.36, 11.37 -16.47 C10.95 -15.58, 10.29 -14.36, 9.64 -13.5 C8.99 -12.64, 8.26 -11.92, 7.46 -11.32 C6.66 -10.71, 5.68 -10.24, 4.85 -9.88 C4.02 -9.52, 3.28 -9.32, 2.5 -9.16 C1.71 -9, 0.57 -9.13, 0.13 -8.92 C-0.31 -8.71, -0.13 -9.39, -0.15 -7.9 C-0.17 -6.42, -0.02 -1.32, 0 0 M0 0 C0 1.71, 0 7.54, 0 10.29 C0 13.04, 0 15.1, 0 16.49 C0 17.87, -0.18 18.31, 0 18.6 C0.18 18.88, 0.46 18.45, 1.08 18.21 C1.7 17.97, 2.68 17.49, 3.73 17.16 C4.77 16.83, 6.09 16.44, 7.33 16.24 C8.56 16.04, 9.68 15.98, 11.14 15.96 C12.6 15.93, 14.4 15.84, 16.09 16.08 C17.77 16.32, 19.91 16.97, 21.23 17.4 C22.55 17.82, 23.15 18.21, 24 18.63 C24.84 19.04, 25.71 19.73, 26.29 19.87 C26.88 20.01, 26.9 19.75, 27.49 19.49 C28.09 19.22, 28.92 18.7, 29.86 18.29 C30.79 17.89, 31.87 17.43, 33.11 17.06 C34.34 16.68, 35.72 16.27, 37.26 16.07 C38.81 15.86, 40.83 15.88, 42.38 15.85 C43.93 15.81, 45.44 15.84, 46.58 15.85 C47.71 15.85, 48.71 16.03, 49.19 15.89 C49.68 15.75, 49.44 15.41, 49.49 15 C49.55 14.58, 49.53 13.93, 49.52 13.4 C49.52 12.87, 49.57 12.2, 49.47 11.8 C49.38 11.41, 49.59 11.52, 48.95 11.03 C48.3 10.54, 46.72 9.72, 45.59 8.85 C44.47 7.98, 43.3 7, 42.19 5.82 C41.08 4.65, 39.91 3.25, 38.93 1.81 C37.95 0.37, 36.99 -1.51, 36.32 -2.81 C35.65 -4.12, 35.3 -5.04, 34.91 -6.02 C34.53 -7.01, 34.32 -8.23, 34.01 -8.72 C33.69 -9.21, 33.54 -8.91, 33.03 -8.97 C32.52 -9.02, 31.78 -8.89, 30.95 -9.06 C30.11 -9.23, 28.75 -9.74, 28.04 -9.97 C27.33 -10.2, 27.07 -10.47, 26.71 -10.47 C26.35 -10.47, 26.19 -9.95, 25.88 -9.97 C25.56 -9.98, 25.53 -10.05, 24.83 -10.57 C24.13 -11.1, 22.88 -12.17, 21.67 -13.11 C20.47 -14.05, 18.79 -15.3, 17.61 -16.22 C16.43 -17.15, 15.42 -18.01, 14.6 -18.65 C13.78 -19.29, 13.09 -20.04, 12.68 -20.07 C12.28 -20.11, 12.37 -19.45, 12.15 -18.85 C11.94 -18.25, 11.79 -17.36, 11.37 -16.47 C10.95 -15.58, 10.29 -14.36, 9.64 -13.5 C8.99 -12.64, 8.26 -11.92, 7.46 -11.32 C6.66 -10.71, 5.68 -10.24, 4.85 -9.88 C4.02 -9.52, 3.28 -9.32, 2.5 -9.16 C1.71 -9, 0.57 -9.13, 0.13 -8.92 C-0.31 -8.71, -0.13 -9.39, -0.15 -7.9 C-0.17 -6.42, -0.02 -1.32, 0 0" stroke="#E1E1E1" stroke-width="2" fill="none"></path></g></g><mask></mask><g stroke-linecap="round"><g transform="translate(217.9560267639299 240.02387516898716) rotate(60.925711928450056 -4.555723770024542 -1.325799082123467)"><path d="M0 0 C0.05 0.31, 0.58 1.45, 0.31 1.85 C0.05 2.25, -0.96 2.25, -1.58 2.41 C-2.19 2.56, -2.59 2.61, -3.35 2.78 C-4.12 2.95, -5.51 3.29, -6.17 3.44 C-6.84 3.58, -7.09 3.77, -7.34 3.63 C-7.59 3.48, -7.47 3.37, -7.69 2.56 C-7.91 1.76, -8.37 -0.12, -8.66 -1.2 C-8.95 -2.29, -9.45 -3.38, -9.42 -3.94 C-9.4 -4.5, -9.24 -4.29, -8.54 -4.56 C-7.83 -4.83, -6.28 -5.26, -5.18 -5.55 C-4.07 -5.84, -2.6 -6.52, -1.91 -6.28 C-1.23 -6.04, -1.31 -4.86, -1.06 -4.09 C-0.81 -3.33, -0.6 -2.37, -0.42 -1.68 C-0.24 -1, -0.07 -0.28, 0 0 M0 0 C0.05 0.31, 0.58 1.45, 0.31 1.85 C0.05 2.25, -0.96 2.25, -1.58 2.41 C-2.19 2.56, -2.59 2.61, -3.35 2.78 C-4.12 2.95, -5.51 3.29, -6.17 3.44 C-6.84 3.58, -7.09 3.77, -7.34 3.63 C-7.59 3.48, -7.47 3.37, -7.69 2.56 C-7.91 1.76, -8.37 -0.12, -8.66 -1.2 C-8.95 -2.29, -9.45 -3.38, -9.42 -3.94 C-9.4 -4.5, -9.24 -4.29, -8.54 -4.56 C-7.83 -4.83, -6.28 -5.26, -5.18 -5.55 C-4.07 -5.84, -2.6 -6.52, -1.91 -6.28 C-1.23 -6.04, -1.31 -4.86, -1.06 -4.09 C-0.81 -3.33, -0.6 -2.37, -0.42 -1.68 C-0.24 -1, -0.07 -0.28, 0 0" stroke="#E1E1E1" stroke-width="2" fill="none"></path></g></g><mask></mask><g stroke-linecap="round"><g transform="translate(253.98712807315496 227.74647674307062) rotate(60.925711928450056 -17.271355225940624 -25.065307974019333)"><path d="M0 0 C-0.43 0.16, -1.87 0.7, -2.59 0.98 C-3.32 1.26, -3.97 1.71, -4.36 1.69 C-4.75 1.67, -4.59 1.62, -4.94 0.87 C-5.29 0.12, -5.8 -1.31, -6.44 -2.8 C-7.09 -4.29, -7.89 -6.18, -8.79 -8.06 C-9.69 -9.94, -10.74 -12.09, -11.85 -14.1 C-12.96 -16.1, -14.08 -18, -15.44 -20.09 C-16.8 -22.17, -18.39 -24.4, -20.01 -26.59 C-21.63 -28.77, -23.25 -30.95, -25.15 -33.18 C-27.04 -35.42, -29.65 -38.18, -31.38 -39.98 C-33.1 -41.77, -34.51 -43, -35.5 -43.96 C-36.48 -44.91, -37.08 -45.25, -37.3 -45.71 C-37.51 -46.17, -37.32 -46.03, -36.79 -46.71 C-36.25 -47.39, -34.84 -48.94, -34.08 -49.79 C-33.32 -50.64, -32.71 -51.6, -32.23 -51.82 C-31.75 -52.04, -31.76 -51.57, -31.22 -51.09 C-30.68 -50.61, -29.93 -49.85, -28.99 -48.96 C-28.05 -48.07, -26.72 -46.89, -25.59 -45.76 C-24.46 -44.63, -23.46 -43.61, -22.19 -42.2 C-20.92 -40.79, -19.37 -39.01, -17.95 -37.3 C-16.53 -35.59, -15.03 -33.8, -13.67 -31.95 C-12.3 -30.1, -11.1 -28.29, -9.77 -26.21 C-8.45 -24.12, -6.95 -21.59, -5.72 -19.44 C-4.49 -17.29, -3.37 -15.23, -2.4 -13.3 C-1.43 -11.37, -0.58 -9.38, 0.12 -7.84 C0.81 -6.3, 1.31 -5.16, 1.75 -4.08 C2.19 -3.01, 2.77 -1.98, 2.76 -1.4 C2.75 -0.82, 2.15 -0.86, 1.69 -0.62 C1.23 -0.39, 0.28 -0.1, 0 0 M0 0 C-0.43 0.16, -1.87 0.7, -2.59 0.98 C-3.32 1.26, -3.97 1.71, -4.36 1.69 C-4.75 1.67, -4.59 1.62, -4.94 0.87 C-5.29 0.12, -5.8 -1.31, -6.44 -2.8 C-7.09 -4.29, -7.89 -6.18, -8.79 -8.06 C-9.69 -9.94, -10.74 -12.09, -11.85 -14.1 C-12.96 -16.1, -14.08 -18, -15.44 -20.09 C-16.8 -22.17, -18.39 -24.4, -20.01 -26.59 C-21.63 -28.77, -23.25 -30.95, -25.15 -33.18 C-27.04 -35.42, -29.65 -38.18, -31.38 -39.98 C-33.1 -41.77, -34.51 -43, -35.5 -43.96 C-36.48 -44.91, -37.08 -45.25, -37.3 -45.71 C-37.51 -46.17, -37.32 -46.03, -36.79 -46.71 C-36.25 -47.39, -34.84 -48.94, -34.08 -49.79 C-33.32 -50.64, -32.71 -51.6, -32.23 -51.82 C-31.75 -52.04, -31.76 -51.57, -31.22 -51.09 C-30.68 -50.61, -29.93 -49.85, -28.99 -48.96 C-28.05 -48.07, -26.72 -46.89, -25.59 -45.76 C-24.46 -44.63, -23.46 -43.61, -22.19 -42.2 C-20.92 -40.79, -19.37 -39.01, -17.95 -37.3 C-16.53 -35.59, -15.03 -33.8, -13.67 -31.95 C-12.3 -30.1, -11.1 -28.29, -9.77 -26.21 C-8.45 -24.12, -6.95 -21.59, -5.72 -19.44 C-4.49 -17.29, -3.37 -15.23, -2.4 -13.3 C-1.43 -11.37, -0.58 -9.38, 0.12 -7.84 C0.81 -6.3, 1.31 -5.16, 1.75 -4.08 C2.19 -3.01, 2.77 -1.98, 2.76 -1.4 C2.75 -0.82, 2.15 -0.86, 1.69 -0.62 C1.23 -0.39, 0.28 -0.1, 0 0" stroke="#E1E1E1" stroke-width="2" fill="none"></path></g></g><mask></mask></svg>