<svg version="1.1" xmlns="http://www.w3.org/2000/svg" viewBox="0 0 425.85260381428344 239.0395151572984" width="425.85260381428344" height="239.0395151572984" class="excalidraw-svg"><!-- svg-source:excalidraw --><metadata></metadata><defs><style class="style-fonts">
      </style></defs><rect x="0" y="0" width="425.85260381428344" height="239.0395151572984" fill="#000000"></rect><g stroke-linecap="round"><g transform="translate(214.70001865868292 45.06128621028148) rotate(0 -28.068699229719115 17.26159927668465)"><path d="M0 0 C-8.79 0, -17.58 0, -26.58 0 M-26.58 0 C-32.56 0, -38.54 0, -47.61 0 M-47.61 0 C-49.97 0, -52.33 0, -56.14 0 M-56.14 0 C-56.14 11.79, -56.14 23.59, -56.14 34.52" stroke="#E1E1E1" stroke-width="1.5" fill="none" stroke-dasharray="1.5 7"></path></g></g><mask></mask><g stroke-linecap="round"><g transform="translate(267.38718749323 118.41533262402601) rotate(180 -28.068699229719115 17.26159927668465)"><path d="M0 0 C-8.79 0, -17.59 0, -26.58 0 M-26.58 0 C-32.57 0, -38.55 0, -47.61 0 M-47.61 0 C-50.36 0, -53.1 0, -56.14 0 M-56.14 0 C-56.14 12.1, -56.14 24.21, -56.14 34.52" stroke="#E1E1E1" stroke-width="1.5" fill="none" stroke-dasharray="1.5 7"></path></g></g><mask></mask></svg>