<svg version="1.1" xmlns="http://www.w3.org/2000/svg" viewBox="0 0 448.3979781740608 516.6458907551976" width="448.3979781740608" height="516.6458907551976" class="excalidraw-svg"><!-- svg-source:excalidraw --><metadata></metadata><defs><style class="style-fonts">
      </style></defs><rect x="0" y="0" width="448.3979781740608" height="516.6458907551976" fill="#000000"></rect><g stroke-linecap="round"><g transform="translate(10.302537755371304 247.5346288913894) rotate(0 212.2257533525888 0.43302688669002265)" fill-rule="evenodd"><path d="M0 0 C16.19 -1.19, 54.94 -5.6, 97.15 -7.16 C139.37 -8.72, 198.75 -10.62, 253.3 -9.35 C307.85 -8.07, 417.12 -2.76, 424.45 0.5 C431.78 3.76, 353.22 8.8, 297.28 10.21 C241.33 11.63, 138.33 10.71, 88.79 9.01 C39.24 7.3, 14.8 1.5, 0 0" stroke="none" stroke-width="0" fill="#E1E1E1" fill-rule="evenodd"></path><path d="M0 0 C16.19 -1.19, 54.94 -5.6, 97.15 -7.16 C139.37 -8.72, 198.75 -10.62, 253.3 -9.35 C307.85 -8.07, 417.12 -2.76, 424.45 0.5 C431.78 3.76, 353.22 8.8, 297.28 10.21 C241.33 11.63, 138.33 10.71, 88.79 9.01 C39.24 7.3, 14.8 1.5, 0 0 M0 0 C16.19 -1.19, 54.94 -5.6, 97.15 -7.16 C139.37 -8.72, 198.75 -10.62, 253.3 -9.35 C307.85 -8.07, 417.12 -2.76, 424.45 0.5 C431.78 3.76, 353.22 8.8, 297.28 10.21 C241.33 11.63, 138.33 10.71, 88.79 9.01 C39.24 7.3, 14.8 1.5, 0 0" stroke="#E1E1E1" stroke-width="4" fill="none"></path></g></g><mask></mask><g stroke-linecap="round"><g transform="translate(343.75068764467505 255.0846266532277) rotate(0 -30.298595945396073 89.56238069214305)" fill-rule="evenodd"><path d="M0 0 L-78.84 180.49 L-60.73 180.89 L18.25 -1.77 L0 0" stroke="none" stroke-width="0" fill="#E1E1E1" fill-rule="evenodd"></path><path d="M0 0 C-30.03 68.74, -60.05 137.47, -78.84 180.49 M0 0 C-16.24 37.17, -32.47 74.34, -78.84 180.49 M-78.84 180.49 C-73.55 180.61, -68.25 180.73, -60.73 180.89 M-78.84 180.49 C-74.65 180.58, -70.46 180.68, -60.73 180.89 M-60.73 180.89 C-30.88 111.84, -1.02 42.79, 18.25 -1.77 M-60.73 180.89 C-32.72 116.11, -4.71 51.32, 18.25 -1.77 M18.25 -1.77 C13.31 -1.29, 8.37 -0.81, 0 0 M18.25 -1.77 C11.59 -1.12, 4.94 -0.48, 0 0 M0 0 C0 0, 0 0, 0 0 M0 0 C0 0, 0 0, 0 0" stroke="#E1E1E1" stroke-width="4" fill="none"></path></g></g><mask></mask><g stroke-linecap="round"><g transform="translate(104.1676776350323 254.06272134619542) rotate(0 26.69727614626619 90.0598872231992)" fill-rule="evenodd"><path d="M0 0 L77.18 182 L58.06 183.01 L-23.79 -2.89 L0 0" stroke="none" stroke-width="0" fill="#E1E1E1" fill-rule="evenodd"></path><path d="M0 0 C19.2 45.28, 38.4 90.55, 77.18 182 M0 0 C26.54 62.57, 53.07 125.15, 77.18 182 M77.18 182 C72.25 182.26, 67.31 182.52, 58.06 183.01 M77.18 182 C72.09 182.27, 67 182.54, 58.06 183.01 M58.06 183.01 C40.62 143.41, 23.19 103.8, -23.79 -2.89 M58.06 183.01 C40.23 142.51, 22.4 102.01, -23.79 -2.89 M-23.79 -2.89 C-16.88 -2.05, -9.97 -1.21, 0 0 M-23.79 -2.89 C-15.61 -1.9, -7.42 -0.9, 0 0 M0 0 C0 0, 0 0, 0 0 M0 0 C0 0, 0 0, 0 0" stroke="#E1E1E1" stroke-width="4" fill="none"></path></g></g><mask></mask><g stroke-linecap="round"><g transform="translate(10 248.49826766776062) rotate(0 72.78946343228195 127.99139868560911)" fill-rule="evenodd"><path d="M0 0 L117.27 255.98 L145.58 233.74 L131.84 233.74 L17.34 1.3 L0 0" stroke="none" stroke-width="0" fill="#E1E1E1" fill-rule="evenodd"></path><path d="M0 0 C26.49 57.82, 52.98 115.65, 117.27 255.98 M0 0 C41.66 90.93, 83.32 181.86, 117.27 255.98 M117.27 255.98 C127.72 247.77, 138.17 239.56, 145.58 233.74 M117.27 255.98 C126.06 249.08, 134.84 242.18, 145.58 233.74 M145.58 233.74 C140.97 233.74, 136.35 233.74, 131.84 233.74 M145.58 233.74 C142.56 233.74, 139.54 233.74, 131.84 233.74 M131.84 233.74 C103.61 176.44, 75.39 119.14, 17.34 1.3 M131.84 233.74 C87.73 144.2, 43.63 54.67, 17.34 1.3 M17.34 1.3 C13.38 1, 9.43 0.7, 0 0 M17.34 1.3 C13.84 1.03, 10.35 0.77, 0 0 M0 0 C0 0, 0 0, 0 0 M0 0 C0 0, 0 0, 0 0" stroke="#E1E1E1" stroke-width="4" fill="none"></path></g></g><mask></mask><g stroke-linecap="round"><g transform="translate(436.43032772735023 248.09488399393342) rotate(0 -71.40675383921192 128.4608924615382)" fill-rule="evenodd"><path d="M0 0 L-116.6 256.92 L-142.81 235.1 L-127.25 234.78 L-18.93 3.36 L0 0" stroke="none" stroke-width="0" fill="#E1E1E1" fill-rule="evenodd"></path><path d="M0 0 C-41.48 91.4, -82.97 182.8, -116.6 256.92 M0 0 C-40.78 89.85, -81.56 179.7, -116.6 256.92 M-116.6 256.92 C-124.8 250.1, -132.99 243.28, -142.81 235.1 M-116.6 256.92 C-125.24 249.73, -133.87 242.55, -142.81 235.1 M-142.81 235.1 C-138.5 235.01, -134.19 234.92, -127.25 234.78 M-142.81 235.1 C-136.86 234.98, -130.91 234.86, -127.25 234.78 M-127.25 234.78 C-93.26 162.16, -59.27 89.54, -18.93 3.36 M-127.25 234.78 C-87.52 149.9, -47.79 65.02, -18.93 3.36 M-18.93 3.36 C-13.39 2.38, -7.84 1.39, 0 0 M-18.93 3.36 C-14.51 2.58, -10.09 1.79, 0 0 M0 0 C0 0, 0 0, 0 0 M0 0 C0 0, 0 0, 0 0" stroke="#E1E1E1" stroke-width="4" fill="none"></path></g></g><mask></mask><g stroke-linecap="round"><g transform="translate(319.29443190857273 505.57468299914) rotate(0 -95.23888539108478 -11.030302458819776)" fill-rule="evenodd"><path d="M0 0 L-190.48 1.07 L-167.61 -22.56 L-20.13 -23.13 L0 0" stroke="none" stroke-width="0" fill="#E1E1E1" fill-rule="evenodd"></path><path d="M0 0 C-54.89 0.31, -109.78 0.62, -190.48 1.07 M0 0 C-62.98 0.35, -125.96 0.71, -190.48 1.07 M-190.48 1.07 C-181.73 -7.97, -172.99 -17, -167.61 -22.56 M-190.48 1.07 C-181.71 -7.99, -172.95 -17.04, -167.61 -22.56 M-167.61 -22.56 C-112.34 -22.78, -57.07 -22.99, -20.13 -23.13 M-167.61 -22.56 C-134.87 -22.69, -102.12 -22.82, -20.13 -23.13 M-20.13 -23.13 C-14.63 -16.81, -9.13 -10.49, 0 0 M-20.13 -23.13 C-14.88 -17.1, -9.63 -11.07, 0 0 M0 0 C0 0, 0 0, 0 0 M0 0 C0 0, 0 0, 0 0" stroke="#E1E1E1" stroke-width="4" fill="none"></path></g></g><mask></mask><g stroke-linecap="round"><g transform="translate(141.51798590732142 480.64790679952023) rotate(0 17.007766077346798 -12.55396623490293)" fill-rule="evenodd"><path d="M0 0 L17.75 -26.51 L34.02 -26.51 L9.74 1.41 L0 0" stroke="none" stroke-width="0" fill="#E1E1E1" fill-rule="evenodd"></path><path d="M0 0 C4.95 -7.4, 9.91 -14.8, 17.75 -26.51 M0 0 C7.01 -10.47, 14.02 -20.95, 17.75 -26.51 M17.75 -26.51 C22.27 -26.51, 26.8 -26.51, 34.02 -26.51 M17.75 -26.51 C21.41 -26.51, 25.07 -26.51, 34.02 -26.51 M34.02 -26.51 C24.99 -16.13, 15.96 -5.75, 9.74 1.41 M34.02 -26.51 C25.58 -16.81, 17.14 -7.1, 9.74 1.41 M9.74 1.41 C6.7 0.97, 3.66 0.53, 0 0 M9.74 1.41 C6.5 0.94, 3.25 0.47, 0 0 M0 0 C0 0, 0 0, 0 0 M0 0 C0 0, 0 0, 0 0" stroke="#E1E1E1" stroke-width="4" fill="none"></path></g></g><mask></mask><g stroke-linecap="round"><g transform="translate(112.34912443294161 445.83230764727307) rotate(0 116.57571812971827 -1.3518474289366793)" fill-rule="evenodd"><path d="M0 0 L49.05 8.07 L106.55 9.06 L139.81 8.51 L184.55 5.63 L216.93 1.79 L233.15 2.26 L212.69 -4.12 L171.46 -9.77 L134.89 -11.6 L102.19 -11.77 L73.92 -10.84 L40.7 -8.35 L6.39 -3.45" stroke="none" stroke-width="0" fill="#E1E1E1" fill-rule="evenodd"></path><path d="M0 0 C19.18 3.16, 38.37 6.32, 49.05 8.07 M0 0 C16.37 2.69, 32.74 5.39, 49.05 8.07 M49.05 8.07 C66.64 8.38, 84.23 8.68, 106.55 9.06 M49.05 8.07 C66.41 8.37, 83.77 8.67, 106.55 9.06 M106.55 9.06 C113.82 8.94, 121.08 8.82, 139.81 8.51 M106.55 9.06 C115.29 8.92, 124.04 8.77, 139.81 8.51 M139.81 8.51 C149.85 7.87, 159.88 7.22, 184.55 5.63 M139.81 8.51 C155.15 7.52, 170.49 6.53, 184.55 5.63 M184.55 5.63 C191.84 4.76, 199.13 3.9, 216.93 1.79 M184.55 5.63 C196.28 4.24, 208.01 2.85, 216.93 1.79 M216.93 1.79 C222.27 1.95, 227.61 2.1, 233.15 2.26 M216.93 1.79 C220.74 1.9, 224.54 2.01, 233.15 2.26 M233.15 2.26 C228.03 0.66, 222.91 -0.94, 212.69 -4.12 M233.15 2.26 C225.63 -0.09, 218.1 -2.44, 212.69 -4.12 M212.69 -4.12 C199.94 -5.87, 187.19 -7.62, 171.46 -9.77 M212.69 -4.12 C201.84 -5.61, 190.99 -7.09, 171.46 -9.77 M171.46 -9.77 C162.95 -10.2, 154.43 -10.62, 134.89 -11.6 M171.46 -9.77 C159.92 -10.35, 148.38 -10.93, 134.89 -11.6 M134.89 -11.6 C123.32 -11.66, 111.74 -11.72, 102.19 -11.77 M134.89 -11.6 C127.89 -11.64, 120.88 -11.67, 102.19 -11.77 M102.19 -11.77 C96.2 -11.57, 90.21 -11.37, 73.92 -10.84 M102.19 -11.77 C92.53 -11.45, 82.88 -11.13, 73.92 -10.84 M73.92 -10.84 C62.22 -9.96, 50.52 -9.08, 40.7 -8.35 M73.92 -10.84 C61.5 -9.91, 49.08 -8.98, 40.7 -8.35 M40.7 -8.35 C29.5 -6.75, 18.29 -5.15, 6.39 -3.45 M40.7 -8.35 C31.05 -6.97, 21.39 -5.59, 6.39 -3.45 M6.39 -3.45 C4.51 -2.44, 2.64 -1.43, 0 0 M6.39 -3.45 C4.29 -2.32, 2.2 -1.19, 0 0" stroke="#E1E1E1" stroke-width="4" fill="none"></path></g></g><mask></mask><g stroke-linecap="round"><g transform="translate(285.8210461913586 451.75151459873416) rotate(0 1.5224531741745722 18.174386317754767)" fill-rule="evenodd"><path d="M0 0 L24.93 36.35 L12.74 33.04 L-21.88 1.89 L-2.43 3.49" stroke="none" stroke-width="0" fill="#E1E1E1" fill-rule="evenodd"></path><path d="M0 0 C7.29 10.63, 14.58 21.26, 24.93 36.35 M0 0 C5.77 8.41, 11.54 16.82, 24.93 36.35 M24.93 36.35 C20.32 35.1, 15.72 33.85, 12.74 33.04 M24.93 36.35 C20.61 35.18, 16.29 34, 12.74 33.04 M12.74 33.04 C3.38 24.61, -5.99 16.19, -21.88 1.89 M12.74 33.04 C0.11 21.68, -12.51 10.32, -21.88 1.89 M-21.88 1.89 C-17.82 2.22, -13.75 2.56, -2.43 3.49 M-21.88 1.89 C-15.19 2.44, -8.5 2.99, -2.43 3.49 M-2.43 3.49 C-1.85 2.66, -1.27 1.82, 0 0 M-2.43 3.49 C-1.78 2.55, -1.12 1.61, 0 0" stroke="#E1E1E1" stroke-width="4" fill="none"></path></g></g><mask></mask><g stroke-linecap="round"><g transform="translate(330.8333410517371 410.0473463793602) rotate(0 -45.3071990771465 -121.6622065627549)"><path d="M0 0 C-5.28 -3.34, -22.9 -14.62, -31.67 -20.04 C-40.45 -25.47, -47.93 -29.03, -52.65 -32.54 C-57.38 -36.05, -59 -37.76, -60.02 -41.1 C-61.04 -44.45, -60.19 -48.3, -58.79 -52.58 C-57.39 -56.86, -54.37 -60.89, -51.62 -66.81 C-48.87 -72.73, -45.23 -81.29, -42.28 -88.08 C-39.34 -94.87, -36.15 -102.31, -33.95 -107.56 C-31.76 -112.81, -29.52 -115.94, -29.12 -119.57 C-28.71 -123.19, -29.61 -125.78, -31.52 -129.3 C-33.43 -132.83, -37.39 -136.84, -40.59 -140.72 C-43.79 -144.6, -45.08 -145.74, -50.74 -152.58 C-56.41 -159.41, -68.62 -174.57, -74.58 -181.73 C-80.54 -188.9, -83.84 -192.03, -86.51 -195.56 C-89.19 -199.1, -90.01 -198.67, -90.61 -202.97 C-91.22 -207.26, -90.29 -215.74, -90.15 -221.33 C-90.01 -226.92, -90.83 -232.85, -89.77 -236.5 C-88.71 -240.16, -86.61 -242.12, -83.79 -243.26 C-80.98 -244.4, -79.7 -243.35, -72.88 -243.32 C-66.07 -243.3, -47.9 -243.13, -42.91 -243.1 M0 0 C-5.28 -3.34, -22.9 -14.62, -31.67 -20.04 C-40.45 -25.47, -47.93 -29.03, -52.65 -32.54 C-57.38 -36.05, -59 -37.76, -60.02 -41.1 C-61.04 -44.45, -60.19 -48.3, -58.79 -52.58 C-57.39 -56.86, -54.37 -60.89, -51.62 -66.81 C-48.87 -72.73, -45.23 -81.29, -42.28 -88.08 C-39.34 -94.87, -36.15 -102.31, -33.95 -107.56 C-31.76 -112.81, -29.52 -115.94, -29.12 -119.57 C-28.71 -123.19, -29.61 -125.78, -31.52 -129.3 C-33.43 -132.83, -37.39 -136.84, -40.59 -140.72 C-43.79 -144.6, -45.08 -145.74, -50.74 -152.58 C-56.41 -159.41, -68.62 -174.57, -74.58 -181.73 C-80.54 -188.9, -83.84 -192.03, -86.51 -195.56 C-89.19 -199.1, -90.01 -198.67, -90.61 -202.97 C-91.22 -207.26, -90.29 -215.74, -90.15 -221.33 C-90.01 -226.92, -90.83 -232.85, -89.77 -236.5 C-88.71 -240.16, -86.61 -242.12, -83.79 -243.26 C-80.98 -244.4, -79.7 -243.35, -72.88 -243.32 C-66.07 -243.3, -47.9 -243.13, -42.91 -243.1" stroke="#E1E1E1" stroke-width="4" fill="none"></path></g></g><mask></mask><g stroke-linecap="round"><g transform="translate(274.36446419444474 353.51510167383424) rotate(0 8.370242824720876 8.513226687396966)"><path d="M0 0 C2.79 2.84, 13.95 14.19, 16.74 17.03 M0 0 C2.79 2.84, 13.95 14.19, 16.74 17.03" stroke="#E1E1E1" stroke-width="4" fill="none"></path></g></g><mask></mask><g stroke-linecap="round"><g transform="translate(282.46417505171485 337.4586638219695) rotate(0 8.17607723847334 8.105397715446173)"><path d="M0 0 C2.73 2.7, 13.63 13.51, 16.35 16.21 M0 0 C2.73 2.7, 13.63 13.51, 16.35 16.21" stroke="#E1E1E1" stroke-width="4" fill="none"></path></g></g><mask></mask><g stroke-linecap="round"><g transform="translate(289.8635899451983 321.11788306137134) rotate(0 8.263004927714036 7.810493498676578)"><path d="M0 0 C2.75 2.6, 13.77 13.02, 16.53 15.62 M0 0 C2.75 2.6, 13.77 13.02, 16.53 15.62" stroke="#E1E1E1" stroke-width="4" fill="none"></path></g></g><mask></mask><g stroke-linecap="round"><g transform="translate(296.9737874800885 304.2344135492564) rotate(0 9.010420573520193 8.688706882499119)"><path d="M0 0 C3 2.9, 15.02 14.48, 18.02 17.38 M0 0 C3 2.9, 15.02 14.48, 18.02 17.38" stroke="#E1E1E1" stroke-width="4" fill="none"></path></g></g><mask></mask><g stroke-linecap="round"><g transform="translate(301.3884142402094 282.86320052905614) rotate(0 14.460055521421395 15.071798979347811)"><path d="M0 0 C4.82 5.02, 24.1 25.12, 28.92 30.14 M0 0 C4.82 5.02, 24.1 25.12, 28.92 30.14" stroke="#E1E1E1" stroke-width="4" fill="none"></path></g></g><mask></mask><g stroke-linecap="round"><g transform="translate(298.9251922422918 256.8726338544508) rotate(0 16.004443719984764 15.85333577420191)"><path d="M0 0 C5.33 5.28, 26.67 26.42, 32.01 31.71 M0 0 C5.33 5.28, 26.67 26.42, 32.01 31.71" stroke="#E1E1E1" stroke-width="4" fill="none"></path></g></g><mask></mask><g stroke-linecap="round"><g transform="translate(320.86184144670915 255.09508447072915) rotate(0 9.938190864292991 9.093286221207407)"><path d="M0 0 C3.31 3.03, 16.56 15.16, 19.88 18.19 M0 0 C3.31 3.03, 16.56 15.16, 19.88 18.19" stroke="#E1E1E1" stroke-width="4" fill="none"></path></g></g><mask></mask><g stroke-linecap="round"><g transform="translate(437.2068356161908 249.02151994024064) rotate(0 -77.20722380348832 -35.01236096447562)" fill-rule="evenodd"><path d="M0 0 C-0.56 -1.12, 4.74 -2.15, -3.35 -6.71 C-11.44 -11.27, -26.97 -17.53, -48.53 -27.38 C-70.08 -37.24, -116.84 -58.74, -132.71 -65.83 C-148.57 -72.92, -140.11 -69.22, -143.73 -69.92 C-147.34 -70.62, -154.65 -71.38, -154.41 -70.02 C-154.18 -68.67, -150.89 -72.22, -142.33 -61.81 C-133.77 -51.4, -111.36 -16.66, -103.06 -7.57 C-94.77 1.52, -96.89 -7.76, -92.58 -7.26 C-88.27 -6.77, -76.3 -1.55, -77.21 -4.58 C-78.12 -7.61, -90.63 -18.06, -98.06 -25.46 C-105.49 -32.87, -119.51 -45.62, -121.78 -49.02 C-124.05 -52.43, -118.75 -49.54, -111.66 -45.91 C-104.58 -42.28, -89.08 -32.52, -79.27 -27.23 C-69.46 -21.94, -60.51 -18.02, -52.8 -14.16 C-45.08 -10.29, -41.71 -5.63, -32.99 -4.05 C-24.27 -2.46, -5.88 -4.54, -0.46 -4.64" stroke="none" stroke-width="0" fill="#E1E1E1" fill-rule="evenodd"></path><path d="M0 0 C-0.56 -1.12, 4.74 -2.15, -3.35 -6.71 C-11.44 -11.27, -26.97 -17.53, -48.53 -27.38 C-70.08 -37.24, -116.84 -58.74, -132.71 -65.83 C-148.57 -72.92, -140.11 -69.22, -143.73 -69.92 C-147.34 -70.62, -154.65 -71.38, -154.41 -70.02 C-154.18 -68.67, -150.89 -72.22, -142.33 -61.81 C-133.77 -51.4, -111.36 -16.66, -103.06 -7.57 C-94.77 1.52, -96.89 -7.76, -92.58 -7.26 C-88.27 -6.77, -76.3 -1.55, -77.21 -4.58 C-78.12 -7.61, -90.63 -18.06, -98.06 -25.46 C-105.49 -32.87, -119.51 -45.62, -121.78 -49.02 C-124.05 -52.43, -118.75 -49.54, -111.66 -45.91 C-104.58 -42.28, -89.08 -32.52, -79.27 -27.23 C-69.46 -21.94, -60.51 -18.02, -52.8 -14.16 C-45.08 -10.29, -41.71 -5.63, -32.99 -4.05 C-24.27 -2.46, -5.88 -4.54, -0.46 -4.64 M0 0 C-0.56 -1.12, 4.74 -2.15, -3.35 -6.71 C-11.44 -11.27, -26.97 -17.53, -48.53 -27.38 C-70.08 -37.24, -116.84 -58.74, -132.71 -65.83 C-148.57 -72.92, -140.11 -69.22, -143.73 -69.92 C-147.34 -70.62, -154.65 -71.38, -154.41 -70.02 C-154.18 -68.67, -150.89 -72.22, -142.33 -61.81 C-133.77 -51.4, -111.36 -16.66, -103.06 -7.57 C-94.77 1.52, -96.89 -7.76, -92.58 -7.26 C-88.27 -6.77, -76.3 -1.55, -77.21 -4.58 C-78.12 -7.61, -90.63 -18.06, -98.06 -25.46 C-105.49 -32.87, -119.51 -45.62, -121.78 -49.02 C-124.05 -52.43, -118.75 -49.54, -111.66 -45.91 C-104.58 -42.28, -89.08 -32.52, -79.27 -27.23 C-69.46 -21.94, -60.51 -18.02, -52.8 -14.16 C-45.08 -10.29, -41.71 -5.63, -32.99 -4.05 C-24.27 -2.46, -5.88 -4.54, -0.46 -4.64" stroke="#E1E1E1" stroke-width="4" fill="none"></path></g></g><mask></mask><g stroke-linecap="round"><g transform="translate(12.536918140805938 247.72665124661182) rotate(0 73.03295923605434 -33.11939226807216)" fill-rule="evenodd"><path d="M0 0 C0.53 -1.06, -4.48 -2.03, 3.17 -6.35 C10.82 -10.67, 25.51 -16.58, 45.9 -25.9 C66.3 -35.23, 110.52 -55.57, 125.53 -62.27 C140.54 -68.98, 132.53 -65.48, 135.96 -66.14 C139.38 -66.8, 145.44 -67.42, 146.07 -66.24 C146.69 -65.05, 147.78 -68.87, 139.69 -59.03 C131.59 -49.18, 106.18 -15.85, 97.49 -7.16 C88.81 1.54, 91.65 -7.34, 87.58 -6.87 C83.5 -6.4, 72.17 -1.46, 73.04 -4.33 C73.9 -7.2, 85.73 -17.08, 92.76 -24.09 C99.79 -31.09, 112.91 -43.26, 115.2 -46.37 C117.48 -49.49, 113.16 -46.2, 106.46 -42.77 C99.76 -39.33, 84.4 -30.65, 74.98 -25.76 C65.56 -20.86, 57.24 -17.04, 49.94 -13.39 C42.64 -9.74, 39.46 -5.33, 31.21 -3.83 C22.96 -2.33, 5.56 -4.3, 0.43 -4.39" stroke="none" stroke-width="0" fill="#E1E1E1" fill-rule="evenodd"></path><path d="M0 0 C0.53 -1.06, -4.48 -2.03, 3.17 -6.35 C10.82 -10.67, 25.51 -16.58, 45.9 -25.9 C66.3 -35.23, 110.52 -55.57, 125.53 -62.27 C140.54 -68.98, 132.53 -65.48, 135.96 -66.14 C139.38 -66.8, 145.44 -67.42, 146.07 -66.24 C146.69 -65.05, 147.78 -68.87, 139.69 -59.03 C131.59 -49.18, 106.18 -15.85, 97.49 -7.16 C88.81 1.54, 91.65 -7.34, 87.58 -6.87 C83.5 -6.4, 72.17 -1.46, 73.04 -4.33 C73.9 -7.2, 85.73 -17.08, 92.76 -24.09 C99.79 -31.09, 112.91 -43.26, 115.2 -46.37 C117.48 -49.49, 113.16 -46.2, 106.46 -42.77 C99.76 -39.33, 84.4 -30.65, 74.98 -25.76 C65.56 -20.86, 57.24 -17.04, 49.94 -13.39 C42.64 -9.74, 39.46 -5.33, 31.21 -3.83 C22.96 -2.33, 5.56 -4.3, 0.43 -4.39 M0 0 C0.53 -1.06, -4.48 -2.03, 3.17 -6.35 C10.82 -10.67, 25.51 -16.58, 45.9 -25.9 C66.3 -35.23, 110.52 -55.57, 125.53 -62.27 C140.54 -68.98, 132.53 -65.48, 135.96 -66.14 C139.38 -66.8, 145.44 -67.42, 146.07 -66.24 C146.69 -65.05, 147.78 -68.87, 139.69 -59.03 C131.59 -49.18, 106.18 -15.85, 97.49 -7.16 C88.81 1.54, 91.65 -7.34, 87.58 -6.87 C83.5 -6.4, 72.17 -1.46, 73.04 -4.33 C73.9 -7.2, 85.73 -17.08, 92.76 -24.09 C99.79 -31.09, 112.91 -43.26, 115.2 -46.37 C117.48 -49.49, 113.16 -46.2, 106.46 -42.77 C99.76 -39.33, 84.4 -30.65, 74.98 -25.76 C65.56 -20.86, 57.24 -17.04, 49.94 -13.39 C42.64 -9.74, 39.46 -5.33, 31.21 -3.83 C22.96 -2.33, 5.56 -4.3, 0.43 -4.39" stroke="#E1E1E1" stroke-width="4" fill="none"></path></g></g><mask></mask><g stroke-linecap="round"><g transform="translate(151.92591259772234 178.83410174802668) rotate(0 72.06303187948382 -19.36973505533453)" fill-rule="evenodd"><path d="M0 0 C-0.67 -5.72, -4.57 -27.68, -4.03 -34.34 C-3.49 -40.99, -3.04 -38.52, 3.24 -39.93 C9.52 -41.34, 24.26 -42.28, 33.64 -42.81 C43.02 -43.33, 50.26 -43.07, 59.51 -43.08 C68.76 -43.08, 80.23 -43, 89.16 -42.85 C98.09 -42.7, 105.57 -42.61, 113.1 -42.18 C120.62 -41.75, 128.62 -41.19, 134.3 -40.28 C139.98 -39.37, 144.86 -39.15, 147.17 -36.72 C149.48 -34.3, 148.75 -31.67, 148.16 -25.73 C147.57 -19.79, 146.12 -5.25, 143.62 -1.08 C141.12 3.08, 133.99 0.27, 133.16 -0.74 C132.34 -1.74, 138.4 -3.33, 138.67 -7.12 C138.95 -10.92, 136.89 -20.76, 134.81 -23.51 C132.73 -26.26, 131.03 -23.8, 126.18 -23.62 C121.33 -23.44, 113.76 -22.76, 105.72 -22.42 C97.67 -22.07, 86.55 -21.62, 77.92 -21.54 C69.29 -21.47, 61.31 -21.72, 53.95 -21.96 C46.59 -22.2, 41.02 -22.57, 33.77 -22.96 C26.52 -23.35, 14.78 -25.41, 10.46 -24.3 C6.13 -23.18, 8.42 -20.96, 7.82 -16.27 C7.23 -11.58, 8.5 0.4, 6.89 3.84 C5.27 7.27, -0.4 4.25, -1.86 4.34" stroke="none" stroke-width="0" fill="#E1E1E1" fill-rule="evenodd"></path><path d="M0 0 C-0.67 -5.72, -4.57 -27.68, -4.03 -34.34 C-3.49 -40.99, -3.04 -38.52, 3.24 -39.93 C9.52 -41.34, 24.26 -42.28, 33.64 -42.81 C43.02 -43.33, 50.26 -43.07, 59.51 -43.08 C68.76 -43.08, 80.23 -43, 89.16 -42.85 C98.09 -42.7, 105.57 -42.61, 113.1 -42.18 C120.62 -41.75, 128.62 -41.19, 134.3 -40.28 C139.98 -39.37, 144.86 -39.15, 147.17 -36.72 C149.48 -34.3, 148.75 -31.67, 148.16 -25.73 C147.57 -19.79, 146.12 -5.25, 143.62 -1.08 C141.12 3.08, 133.99 0.27, 133.16 -0.74 C132.34 -1.74, 138.4 -3.33, 138.67 -7.12 C138.95 -10.92, 136.89 -20.76, 134.81 -23.51 C132.73 -26.26, 131.03 -23.8, 126.18 -23.62 C121.33 -23.44, 113.76 -22.76, 105.72 -22.42 C97.67 -22.07, 86.55 -21.62, 77.92 -21.54 C69.29 -21.47, 61.31 -21.72, 53.95 -21.96 C46.59 -22.2, 41.02 -22.57, 33.77 -22.96 C26.52 -23.35, 14.78 -25.41, 10.46 -24.3 C6.13 -23.18, 8.42 -20.96, 7.82 -16.27 C7.23 -11.58, 8.5 0.4, 6.89 3.84 C5.27 7.27, -0.4 4.25, -1.86 4.34 M0 0 C-0.67 -5.72, -4.57 -27.68, -4.03 -34.34 C-3.49 -40.99, -3.04 -38.52, 3.24 -39.93 C9.52 -41.34, 24.26 -42.28, 33.64 -42.81 C43.02 -43.33, 50.26 -43.07, 59.51 -43.08 C68.76 -43.08, 80.23 -43, 89.16 -42.85 C98.09 -42.7, 105.57 -42.61, 113.1 -42.18 C120.62 -41.75, 128.62 -41.19, 134.3 -40.28 C139.98 -39.37, 144.86 -39.15, 147.17 -36.72 C149.48 -34.3, 148.75 -31.67, 148.16 -25.73 C147.57 -19.79, 146.12 -5.25, 143.62 -1.08 C141.12 3.08, 133.99 0.27, 133.16 -0.74 C132.34 -1.74, 138.4 -3.33, 138.67 -7.12 C138.95 -10.92, 136.89 -20.76, 134.81 -23.51 C132.73 -26.26, 131.03 -23.8, 126.18 -23.62 C121.33 -23.44, 113.76 -22.76, 105.72 -22.42 C97.67 -22.07, 86.55 -21.62, 77.92 -21.54 C69.29 -21.47, 61.31 -21.72, 53.95 -21.96 C46.59 -22.2, 41.02 -22.57, 33.77 -22.96 C26.52 -23.35, 14.78 -25.41, 10.46 -24.3 C6.13 -23.18, 8.42 -20.96, 7.82 -16.27 C7.23 -11.58, 8.5 0.4, 6.89 3.84 C5.27 7.27, -0.4 4.25, -1.86 4.34" stroke="#E1E1E1" stroke-width="4" fill="none"></path></g></g><mask></mask><g stroke-linecap="round"><g transform="translate(157.69557179877302 177.6118434775923) rotate(0 68.35355304928368 4.173452224643995)" fill-rule="evenodd"><path d="M0 0 C11.51 0.4, 46.93 2.45, 69.05 2.39 C91.18 2.34, 120.22 -1.24, 132.73 -0.33 C145.25 0.58, 155.22 7.06, 144.12 7.85 C133.03 8.64, 85.54 4.66, 66.16 4.42 C46.78 4.18, 40.1 5.71, 27.84 6.42 C15.57 7.13, -2.78 9.75, -7.42 8.68 C-12.06 7.61, -1.24 1.45, 0 0" stroke="none" stroke-width="0" fill="#E1E1E1" fill-rule="evenodd"></path><path d="M0 0 C11.51 0.4, 46.93 2.45, 69.05 2.39 C91.18 2.34, 120.22 -1.24, 132.73 -0.33 C145.25 0.58, 155.22 7.06, 144.12 7.85 C133.03 8.64, 85.54 4.66, 66.16 4.42 C46.78 4.18, 40.1 5.71, 27.84 6.42 C15.57 7.13, -2.78 9.75, -7.42 8.68 C-12.06 7.61, -1.24 1.45, 0 0 M0 0 C11.51 0.4, 46.93 2.45, 69.05 2.39 C91.18 2.34, 120.22 -1.24, 132.73 -0.33 C145.25 0.58, 155.22 7.06, 144.12 7.85 C133.03 8.64, 85.54 4.66, 66.16 4.42 C46.78 4.18, 40.1 5.71, 27.84 6.42 C15.57 7.13, -2.78 9.75, -7.42 8.68 C-12.06 7.61, -1.24 1.45, 0 0" stroke="#E1E1E1" stroke-width="4" fill="none"></path></g></g><mask></mask><g stroke-linecap="round"><g transform="translate(226.31631350679163 62.41602127363842) rotate(0 -2.054409557485613 11.4273646228431)" fill-rule="evenodd"><path d="M0 0 C5.57 0.23, 23.22 0.76, 33.41 1.37 C43.6 1.98, 51.56 2.7, 61.13 3.66 C70.7 4.61, 82.94 6.16, 90.83 7.09 C98.73 8.02, 103 8.63, 108.48 9.26 C113.97 9.88, 122.99 10.11, 123.73 10.83 C124.47 11.55, 119.53 12.45, 112.93 13.57 C106.34 14.68, 94.36 16.31, 84.15 17.51 C73.93 18.72, 61.95 19.99, 51.63 20.79 C41.31 21.58, 32.13 21.94, 22.2 22.28 C12.28 22.63, 1.45 22.87, -7.91 22.85 C-17.27 22.84, -24.84 22.61, -33.95 22.17 C-43.07 21.73, -52.52 21.07, -62.59 20.22 C-72.65 19.37, -83.49 18.04, -94.36 17.05 C-105.24 16.05, -124.22 15.18, -127.84 14.25 C-131.47 13.33, -121.66 12.66, -116.12 11.51 C-110.57 10.36, -102.05 8.56, -94.58 7.36 C-87.11 6.15, -80.06 5.19, -71.28 4.3 C-62.49 3.41, -49.91 2.63, -41.89 2 C-33.88 1.37, -30.18 0.83, -23.2 0.5 C-16.21 0.17, -3.87 0.08, 0 0" stroke="none" stroke-width="0" fill="#E1E1E1" fill-rule="evenodd"></path><path d="M0 0 C5.57 0.23, 23.22 0.76, 33.41 1.37 C43.6 1.98, 51.56 2.7, 61.13 3.66 C70.7 4.61, 82.94 6.16, 90.83 7.09 C98.73 8.02, 103 8.63, 108.48 9.26 C113.97 9.88, 122.99 10.11, 123.73 10.83 C124.47 11.55, 119.53 12.45, 112.93 13.57 C106.34 14.68, 94.36 16.31, 84.15 17.51 C73.93 18.72, 61.95 19.99, 51.63 20.79 C41.31 21.58, 32.13 21.94, 22.2 22.28 C12.28 22.63, 1.45 22.87, -7.91 22.85 C-17.27 22.84, -24.84 22.61, -33.95 22.17 C-43.07 21.73, -52.52 21.07, -62.59 20.22 C-72.65 19.37, -83.49 18.04, -94.36 17.05 C-105.24 16.05, -124.22 15.18, -127.84 14.25 C-131.47 13.33, -121.66 12.66, -116.12 11.51 C-110.57 10.36, -102.05 8.56, -94.58 7.36 C-87.11 6.15, -80.06 5.19, -71.28 4.3 C-62.49 3.41, -49.91 2.63, -41.89 2 C-33.88 1.37, -30.18 0.83, -23.2 0.5 C-16.21 0.17, -3.87 0.08, 0 0 M0 0 C5.57 0.23, 23.22 0.76, 33.41 1.37 C43.6 1.98, 51.56 2.7, 61.13 3.66 C70.7 4.61, 82.94 6.16, 90.83 7.09 C98.73 8.02, 103 8.63, 108.48 9.26 C113.97 9.88, 122.99 10.11, 123.73 10.83 C124.47 11.55, 119.53 12.45, 112.93 13.57 C106.34 14.68, 94.36 16.31, 84.15 17.51 C73.93 18.72, 61.95 19.99, 51.63 20.79 C41.31 21.58, 32.13 21.94, 22.2 22.28 C12.28 22.63, 1.45 22.87, -7.91 22.85 C-17.27 22.84, -24.84 22.61, -33.95 22.17 C-43.07 21.73, -52.52 21.07, -62.59 20.22 C-72.65 19.37, -83.49 18.04, -94.36 17.05 C-105.24 16.05, -124.22 15.18, -127.84 14.25 C-131.47 13.33, -121.66 12.66, -116.12 11.51 C-110.57 10.36, -102.05 8.56, -94.58 7.36 C-87.11 6.15, -80.06 5.19, -71.28 4.3 C-62.49 3.41, -49.91 2.63, -41.89 2 C-33.88 1.37, -30.18 0.83, -23.2 0.5 C-16.21 0.17, -3.87 0.08, 0 0" stroke="#E1E1E1" stroke-width="4" fill="none"></path></g></g><mask></mask><g stroke-linecap="round"><g transform="translate(349.7540113568066 71.4346483984624) rotate(0 -65.55470856787859 -29.026037056851237)" fill-rule="evenodd"><path d="M0 0 C-3.98 -5.08, -16.68 -21.62, -23.9 -30.49 C-31.13 -39.36, -39 -48.23, -43.35 -53.22 C-47.71 -58.21, -47.13 -59.13, -50.03 -60.42 C-52.94 -61.71, -54.75 -61.3, -60.79 -60.97 C-66.84 -60.63, -79.13 -59.21, -86.3 -58.39 C-93.47 -57.56, -97.8 -56.92, -103.84 -56 C-109.88 -55.09, -117.99 -53.65, -122.56 -52.91 C-127.14 -52.16, -132.37 -52.28, -131.27 -51.55 C-130.17 -50.82, -121.69 -49.52, -115.96 -48.51 C-110.23 -47.51, -103.25 -46.37, -96.89 -45.52 C-90.52 -44.67, -83.79 -43.95, -77.76 -43.42 C-71.73 -42.9, -64.45 -43.59, -60.68 -42.37 C-56.91 -41.15, -57.75 -39.29, -55.13 -36.11 C-52.5 -32.93, -49.22 -28.87, -44.94 -23.3 C-40.66 -17.72, -36.98 -7.02, -29.46 -2.65 C-21.94 1.72, -4.77 1.99, 0.16 2.91" stroke="none" stroke-width="0" fill="#E1E1E1" fill-rule="evenodd"></path><path d="M0 0 C-3.98 -5.08, -16.68 -21.62, -23.9 -30.49 C-31.13 -39.36, -39 -48.23, -43.35 -53.22 C-47.71 -58.21, -47.13 -59.13, -50.03 -60.42 C-52.94 -61.71, -54.75 -61.3, -60.79 -60.97 C-66.84 -60.63, -79.13 -59.21, -86.3 -58.39 C-93.47 -57.56, -97.8 -56.92, -103.84 -56 C-109.88 -55.09, -117.99 -53.65, -122.56 -52.91 C-127.14 -52.16, -132.37 -52.28, -131.27 -51.55 C-130.17 -50.82, -121.69 -49.52, -115.96 -48.51 C-110.23 -47.51, -103.25 -46.37, -96.89 -45.52 C-90.52 -44.67, -83.79 -43.95, -77.76 -43.42 C-71.73 -42.9, -64.45 -43.59, -60.68 -42.37 C-56.91 -41.15, -57.75 -39.29, -55.13 -36.11 C-52.5 -32.93, -49.22 -28.87, -44.94 -23.3 C-40.66 -17.72, -36.98 -7.02, -29.46 -2.65 C-21.94 1.72, -4.77 1.99, 0.16 2.91 M0 0 C-3.98 -5.08, -16.68 -21.62, -23.9 -30.49 C-31.13 -39.36, -39 -48.23, -43.35 -53.22 C-47.71 -58.21, -47.13 -59.13, -50.03 -60.42 C-52.94 -61.71, -54.75 -61.3, -60.79 -60.97 C-66.84 -60.63, -79.13 -59.21, -86.3 -58.39 C-93.47 -57.56, -97.8 -56.92, -103.84 -56 C-109.88 -55.09, -117.99 -53.65, -122.56 -52.91 C-127.14 -52.16, -132.37 -52.28, -131.27 -51.55 C-130.17 -50.82, -121.69 -49.52, -115.96 -48.51 C-110.23 -47.51, -103.25 -46.37, -96.89 -45.52 C-90.52 -44.67, -83.79 -43.95, -77.76 -43.42 C-71.73 -42.9, -64.45 -43.59, -60.68 -42.37 C-56.91 -41.15, -57.75 -39.29, -55.13 -36.11 C-52.5 -32.93, -49.22 -28.87, -44.94 -23.3 C-40.66 -17.72, -36.98 -7.02, -29.46 -2.65 C-21.94 1.72, -4.77 1.99, 0.16 2.91" stroke="#E1E1E1" stroke-width="4" fill="none"></path></g></g><mask></mask><g stroke-linecap="round"><g transform="translate(97.46054012227978 72.55780660446146) rotate(0 66.89550477193995 -29.619709138612876)" fill-rule="evenodd"><path d="M0 0 C4.07 -5.19, 17.02 -22.06, 24.39 -31.11 C31.76 -40.17, 39.79 -49.22, 44.24 -54.31 C48.68 -59.4, 48.09 -60.34, 51.06 -61.65 C54.02 -62.97, 55.87 -62.56, 62.04 -62.21 C68.2 -61.87, 80.74 -60.42, 88.07 -59.58 C95.39 -58.74, 99.8 -58.08, 105.96 -57.15 C112.13 -56.22, 120.4 -54.75, 125.07 -53.99 C129.74 -53.23, 135.08 -53.35, 133.96 -52.6 C132.84 -51.86, 124.18 -50.53, 118.33 -49.5 C112.48 -48.48, 105.37 -47.31, 98.87 -46.45 C92.37 -45.58, 85.55 -44.91, 79.35 -44.31 C73.16 -43.71, 65.59 -44.21, 61.7 -42.86 C57.82 -41.51, 58.76 -39.4, 56.03 -36.22 C53.3 -33.04, 49.66 -29.36, 45.33 -23.77 C41 -18.19, 37.64 -7.16, 30.06 -2.7 C22.48 1.76, 4.87 2.03, -0.17 2.97" stroke="none" stroke-width="0" fill="#E1E1E1" fill-rule="evenodd"></path><path d="M0 0 C4.07 -5.19, 17.02 -22.06, 24.39 -31.11 C31.76 -40.17, 39.79 -49.22, 44.24 -54.31 C48.68 -59.4, 48.09 -60.34, 51.06 -61.65 C54.02 -62.97, 55.87 -62.56, 62.04 -62.21 C68.2 -61.87, 80.74 -60.42, 88.07 -59.58 C95.39 -58.74, 99.8 -58.08, 105.96 -57.15 C112.13 -56.22, 120.4 -54.75, 125.07 -53.99 C129.74 -53.23, 135.08 -53.35, 133.96 -52.6 C132.84 -51.86, 124.18 -50.53, 118.33 -49.5 C112.48 -48.48, 105.37 -47.31, 98.87 -46.45 C92.37 -45.58, 85.55 -44.91, 79.35 -44.31 C73.16 -43.71, 65.59 -44.21, 61.7 -42.86 C57.82 -41.51, 58.76 -39.4, 56.03 -36.22 C53.3 -33.04, 49.66 -29.36, 45.33 -23.77 C41 -18.19, 37.64 -7.16, 30.06 -2.7 C22.48 1.76, 4.87 2.03, -0.17 2.97 M0 0 C4.07 -5.19, 17.02 -22.06, 24.39 -31.11 C31.76 -40.17, 39.79 -49.22, 44.24 -54.31 C48.68 -59.4, 48.09 -60.34, 51.06 -61.65 C54.02 -62.97, 55.87 -62.56, 62.04 -62.21 C68.2 -61.87, 80.74 -60.42, 88.07 -59.58 C95.39 -58.74, 99.8 -58.08, 105.96 -57.15 C112.13 -56.22, 120.4 -54.75, 125.07 -53.99 C129.74 -53.23, 135.08 -53.35, 133.96 -52.6 C132.84 -51.86, 124.18 -50.53, 118.33 -49.5 C112.48 -48.48, 105.37 -47.31, 98.87 -46.45 C92.37 -45.58, 85.55 -44.91, 79.35 -44.31 C73.16 -43.71, 65.59 -44.21, 61.7 -42.86 C57.82 -41.51, 58.76 -39.4, 56.03 -36.22 C53.3 -33.04, 49.66 -29.36, 45.33 -23.77 C41 -18.19, 37.64 -7.16, 30.06 -2.7 C22.48 1.76, 4.87 2.03, -0.17 2.97" stroke="#E1E1E1" stroke-width="4" fill="none"></path></g></g><mask></mask><g stroke-linecap="round"><g transform="translate(98.14885702385072 77.84255955753872) rotate(0 30.49817154593676 32.41235033868355)" fill-rule="evenodd"><path d="M0 0 C8.34 10.69, 39.87 53.32, 50.04 64.16 C60.2 75.01, 61.72 69.47, 61 65.06 C60.27 60.65, 51.57 48.16, 45.7 37.71 C39.82 27.25, 30.18 8.66, 25.72 2.34 C21.27 -3.99, 23.26 0.16, 18.97 -0.23 C14.68 -0.62, 3.16 -0.04, 0 0" stroke="none" stroke-width="0" fill="#E1E1E1" fill-rule="evenodd"></path><path d="M0 0 C8.34 10.69, 39.87 53.32, 50.04 64.16 C60.2 75.01, 61.72 69.47, 61 65.06 C60.27 60.65, 51.57 48.16, 45.7 37.71 C39.82 27.25, 30.18 8.66, 25.72 2.34 C21.27 -3.99, 23.26 0.16, 18.97 -0.23 C14.68 -0.62, 3.16 -0.04, 0 0 M0 0 C8.34 10.69, 39.87 53.32, 50.04 64.16 C60.2 75.01, 61.72 69.47, 61 65.06 C60.27 60.65, 51.57 48.16, 45.7 37.71 C39.82 27.25, 30.18 8.66, 25.72 2.34 C21.27 -3.99, 23.26 0.16, 18.97 -0.23 C14.68 -0.62, 3.16 -0.04, 0 0" stroke="#E1E1E1" stroke-width="4" fill="none"></path></g></g><mask></mask><g stroke-linecap="round"><g transform="translate(351.4621439357761 75.51976298813645) rotate(0 -30.958893437392007 32.90198885134183)" fill-rule="evenodd"><path d="M0 0 C-8.47 10.86, -40.47 54.12, -50.79 65.13 C-61.11 76.14, -62.65 70.52, -61.92 66.04 C-61.18 61.56, -52.35 48.89, -46.39 38.27 C-40.42 27.66, -30.63 8.79, -26.11 2.37 C-21.59 -4.05, -23.61 0.16, -19.26 -0.24 C-14.91 -0.63, -3.21 -0.04, 0 0" stroke="none" stroke-width="0" fill="#E1E1E1" fill-rule="evenodd"></path><path d="M0 0 C-8.47 10.86, -40.47 54.12, -50.79 65.13 C-61.11 76.14, -62.65 70.52, -61.92 66.04 C-61.18 61.56, -52.35 48.89, -46.39 38.27 C-40.42 27.66, -30.63 8.79, -26.11 2.37 C-21.59 -4.05, -23.61 0.16, -19.26 -0.24 C-14.91 -0.63, -3.21 -0.04, 0 0 M0 0 C-8.47 10.86, -40.47 54.12, -50.79 65.13 C-61.11 76.14, -62.65 70.52, -61.92 66.04 C-61.18 61.56, -52.35 48.89, -46.39 38.27 C-40.42 27.66, -30.63 8.79, -26.11 2.37 C-21.59 -4.05, -23.61 0.16, -19.26 -0.24 C-14.91 -0.63, -3.21 -0.04, 0 0" stroke="#E1E1E1" stroke-width="4" fill="none"></path></g></g><mask></mask><g stroke-linecap="round"><g transform="translate(279.20581798529383 83.15747866552886) rotate(0 6.9797987634227425 25.955964347350985)" fill-rule="evenodd"><path d="M0 0 C-1.03 3.14, -4.51 13.12, -6.16 18.81 C-7.8 24.5, -8.83 28.4, -9.87 34.12 C-10.9 39.85, -13.57 49.7, -12.36 53.15 C-11.15 56.61, -5.19 56.17, -2.61 54.84 C-0.02 53.52, 0.56 49.91, 3.16 45.2 C5.75 40.48, 9.97 32.24, 12.96 26.54 C15.96 20.84, 18.91 15.91, 21.13 11 C23.36 6.08, 27.46 -0.81, 26.32 -2.93 C25.18 -5.06, 18.68 -2.23, 14.29 -1.74 C9.9 -1.26, 2.38 -0.29, 0 0" stroke="none" stroke-width="0" fill="#E1E1E1" fill-rule="evenodd"></path><path d="M0 0 C-1.03 3.14, -4.51 13.12, -6.16 18.81 C-7.8 24.5, -8.83 28.4, -9.87 34.12 C-10.9 39.85, -13.57 49.7, -12.36 53.15 C-11.15 56.61, -5.19 56.17, -2.61 54.84 C-0.02 53.52, 0.56 49.91, 3.16 45.2 C5.75 40.48, 9.97 32.24, 12.96 26.54 C15.96 20.84, 18.91 15.91, 21.13 11 C23.36 6.08, 27.46 -0.81, 26.32 -2.93 C25.18 -5.06, 18.68 -2.23, 14.29 -1.74 C9.9 -1.26, 2.38 -0.29, 0 0 M0 0 C-1.03 3.14, -4.51 13.12, -6.16 18.81 C-7.8 24.5, -8.83 28.4, -9.87 34.12 C-10.9 39.85, -13.57 49.7, -12.36 53.15 C-11.15 56.61, -5.19 56.17, -2.61 54.84 C-0.02 53.52, 0.56 49.91, 3.16 45.2 C5.75 40.48, 9.97 32.24, 12.96 26.54 C15.96 20.84, 18.91 15.91, 21.13 11 C23.36 6.08, 27.46 -0.81, 26.32 -2.93 C25.18 -5.06, 18.68 -2.23, 14.29 -1.74 C9.9 -1.26, 2.38 -0.29, 0 0" stroke="#E1E1E1" stroke-width="4" fill="none"></path></g></g><mask></mask><g stroke-linecap="round"><g transform="translate(169.0141706993054 83.70181235691746) rotate(0 -6.945023738841037 25.826645533325745)" fill-rule="evenodd"><path d="M0 0 C1.02 3.12, 4.49 13.06, 6.12 18.72 C7.76 24.38, 8.79 28.26, 9.82 33.95 C10.85 39.65, 13.51 49.45, 12.3 52.89 C11.1 56.32, 5.17 55.89, 2.59 54.57 C0.02 53.25, -0.56 49.66, -3.14 44.97 C-5.72 40.28, -9.92 32.08, -12.9 26.41 C-15.88 20.74, -18.81 15.83, -21.03 10.94 C-23.24 6.05, -27.33 -0.8, -26.19 -2.92 C-25.06 -5.03, -18.58 -2.22, -14.22 -1.74 C-9.85 -1.25, -2.37 -0.29, 0 0" stroke="none" stroke-width="0" fill="#E1E1E1" fill-rule="evenodd"></path><path d="M0 0 C1.02 3.12, 4.49 13.06, 6.12 18.72 C7.76 24.38, 8.79 28.26, 9.82 33.95 C10.85 39.65, 13.51 49.45, 12.3 52.89 C11.1 56.32, 5.17 55.89, 2.59 54.57 C0.02 53.25, -0.56 49.66, -3.14 44.97 C-5.72 40.28, -9.92 32.08, -12.9 26.41 C-15.88 20.74, -18.81 15.83, -21.03 10.94 C-23.24 6.05, -27.33 -0.8, -26.19 -2.92 C-25.06 -5.03, -18.58 -2.22, -14.22 -1.74 C-9.85 -1.25, -2.37 -0.29, 0 0 M0 0 C1.02 3.12, 4.49 13.06, 6.12 18.72 C7.76 24.38, 8.79 28.26, 9.82 33.95 C10.85 39.65, 13.51 49.45, 12.3 52.89 C11.1 56.32, 5.17 55.89, 2.59 54.57 C0.02 53.25, -0.56 49.66, -3.14 44.97 C-5.72 40.28, -9.92 32.08, -12.9 26.41 C-15.88 20.74, -18.81 15.83, -21.03 10.94 C-23.24 6.05, -27.33 -0.8, -26.19 -2.92 C-25.06 -5.03, -18.58 -2.22, -14.22 -1.74 C-9.85 -1.25, -2.37 -0.29, 0 0" stroke="#E1E1E1" stroke-width="4" fill="none"></path></g></g><mask></mask><g stroke-linecap="round"><g transform="translate(143.51437503873967 66.37826172916868) rotate(0 25.59644267479128 -21.20312246098905)" fill-rule="evenodd"><path d="M0 0 C6.38 -6.77, 30.24 -33.44, 38.3 -40.63 C46.37 -47.82, 46.25 -44.01, 48.4 -43.14 C50.55 -42.27, 54.19 -42.3, 51.19 -35.41 C48.2 -28.53, 35.98 -7.75, 30.42 -1.82 C24.87 4.1, 22.42 -0.28, 17.85 0.15 C13.28 0.58, 5.5 0.63, 3.03 0.73" stroke="none" stroke-width="0" fill="#E1E1E1" fill-rule="evenodd"></path><path d="M0 0 C6.38 -6.77, 30.24 -33.44, 38.3 -40.63 C46.37 -47.82, 46.25 -44.01, 48.4 -43.14 C50.55 -42.27, 54.19 -42.3, 51.19 -35.41 C48.2 -28.53, 35.98 -7.75, 30.42 -1.82 C24.87 4.1, 22.42 -0.28, 17.85 0.15 C13.28 0.58, 5.5 0.63, 3.03 0.73 M0 0 C6.38 -6.77, 30.24 -33.44, 38.3 -40.63 C46.37 -47.82, 46.25 -44.01, 48.4 -43.14 C50.55 -42.27, 54.19 -42.3, 51.19 -35.41 C48.2 -28.53, 35.98 -7.75, 30.42 -1.82 C24.87 4.1, 22.42 -0.28, 17.85 0.15 C13.28 0.58, 5.5 0.63, 3.03 0.73" stroke="#E1E1E1" stroke-width="4" fill="none"></path></g></g><mask></mask><g stroke-linecap="round"><g transform="translate(302.75334859947543 64.37942691051978) rotate(0 -23.913514182738254 -19.80904831703657)" fill-rule="evenodd"><path d="M0 0 C-5.96 -6.33, -28.25 -31.25, -35.78 -37.96 C-43.32 -44.68, -43.21 -41.11, -45.22 -40.3 C-47.22 -39.49, -50.63 -39.52, -47.83 -33.08 C-45.03 -26.65, -33.62 -7.24, -28.42 -1.7 C-23.23 3.83, -20.94 -0.26, -16.68 0.14 C-12.41 0.54, -5.14 0.59, -2.83 0.68" stroke="none" stroke-width="0" fill="#E1E1E1" fill-rule="evenodd"></path><path d="M0 0 C-5.96 -6.33, -28.25 -31.25, -35.78 -37.96 C-43.32 -44.68, -43.21 -41.11, -45.22 -40.3 C-47.22 -39.49, -50.63 -39.52, -47.83 -33.08 C-45.03 -26.65, -33.62 -7.24, -28.42 -1.7 C-23.23 3.83, -20.94 -0.26, -16.68 0.14 C-12.41 0.54, -5.14 0.59, -2.83 0.68 M0 0 C-5.96 -6.33, -28.25 -31.25, -35.78 -37.96 C-43.32 -44.68, -43.21 -41.11, -45.22 -40.3 C-47.22 -39.49, -50.63 -39.52, -47.83 -33.08 C-45.03 -26.65, -33.62 -7.24, -28.42 -1.7 C-23.23 3.83, -20.94 -0.26, -16.68 0.14 C-12.41 0.54, -5.14 0.59, -2.83 0.68" stroke="#E1E1E1" stroke-width="4" fill="none"></path></g></g><mask></mask></svg>