<svg version="1.1" xmlns="http://www.w3.org/2000/svg" viewBox="0 0 136.64494177546658 106.11813394669173" width="136.64494177546658" height="106.11813394669173" class="excalidraw-svg"><!-- svg-source:excalidraw --><metadata></metadata><defs><style class="style-fonts">
      </style></defs><rect x="0" y="0" width="136.64494177546658" height="106.11813394669173" fill="#000000"></rect><g stroke-linecap="round"><g transform="translate(57.904432637055834 53.2057638929719) rotate(0 19.958177113945567 -0.002613569479223088)"><path d="M0 0 C0.65 0.75, 2.63 3.08, 3.91 4.51 C5.2 5.94, 6.49 7.38, 7.7 8.6 C8.91 9.81, 9.81 10.79, 11.16 11.82 C12.51 12.84, 14.26 14, 15.8 14.75 C17.35 15.5, 18.85 16, 20.43 16.32 C22.01 16.64, 23.58 16.91, 25.3 16.68 C27.02 16.45, 29.07 15.79, 30.75 14.94 C32.44 14.08, 34.13 12.86, 35.41 11.57 C36.69 10.29, 37.7 8.73, 38.45 7.22 C39.19 5.72, 39.65 4.13, 39.9 2.54 C40.14 0.94, 40.15 -0.72, 39.92 -2.35 C39.69 -3.99, 39.22 -5.77, 38.52 -7.29 C37.82 -8.82, 36.81 -10.26, 35.71 -11.49 C34.61 -12.72, 33.36 -13.8, 31.89 -14.66 C30.43 -15.53, 28.7 -16.35, 26.92 -16.69 C25.14 -17.02, 22.99 -16.89, 21.23 -16.68 C19.46 -16.46, 17.82 -15.99, 16.35 -15.39 C14.88 -14.79, 13.82 -14.11, 12.43 -13.08 C11.04 -12.04, 9.36 -10.49, 8.03 -9.17 C6.7 -7.85, 5.76 -6.68, 4.43 -5.15 C3.09 -3.62, 0.74 -0.86, 0 0 M0 0 C0.65 0.75, 2.63 3.08, 3.91 4.51 C5.2 5.94, 6.49 7.38, 7.7 8.6 C8.91 9.81, 9.81 10.79, 11.16 11.82 C12.51 12.84, 14.26 14, 15.8 14.75 C17.35 15.5, 18.85 16, 20.43 16.32 C22.01 16.64, 23.58 16.91, 25.3 16.68 C27.02 16.45, 29.07 15.79, 30.75 14.94 C32.44 14.08, 34.13 12.86, 35.41 11.57 C36.69 10.29, 37.7 8.73, 38.45 7.22 C39.19 5.72, 39.65 4.13, 39.9 2.54 C40.14 0.94, 40.15 -0.72, 39.92 -2.35 C39.69 -3.99, 39.22 -5.77, 38.52 -7.29 C37.82 -8.82, 36.81 -10.26, 35.71 -11.49 C34.61 -12.72, 33.36 -13.8, 31.89 -14.66 C30.43 -15.53, 28.7 -16.35, 26.92 -16.69 C25.14 -17.02, 22.99 -16.89, 21.23 -16.68 C19.46 -16.46, 17.82 -15.99, 16.35 -15.39 C14.88 -14.79, 13.82 -14.11, 12.43 -13.08 C11.04 -12.04, 9.36 -10.49, 8.03 -9.17 C6.7 -7.85, 5.76 -6.68, 4.43 -5.15 C3.09 -3.62, 0.74 -0.86, 0 0" stroke="#E1E1E1" stroke-width="2" fill="none"></path></g></g><mask></mask><g stroke-linecap="round"><g transform="translate(13.25583949619977 53.53626073274194) rotate(180 19.958177113945567 -0.002613569479223088)"><path d="M0 0 C0.65 0.75, 2.63 3.08, 3.91 4.51 C5.2 5.94, 6.49 7.38, 7.7 8.6 C8.91 9.81, 9.81 10.79, 11.16 11.82 C12.51 12.84, 14.26 14, 15.8 14.75 C17.35 15.5, 18.85 16, 20.43 16.32 C22.01 16.64, 23.58 16.91, 25.3 16.68 C27.02 16.45, 29.07 15.79, 30.75 14.94 C32.44 14.08, 34.13 12.86, 35.41 11.57 C36.69 10.29, 37.7 8.73, 38.45 7.22 C39.19 5.72, 39.65 4.13, 39.9 2.54 C40.14 0.94, 40.15 -0.72, 39.92 -2.35 C39.69 -3.99, 39.22 -5.77, 38.52 -7.29 C37.82 -8.82, 36.81 -10.26, 35.71 -11.49 C34.61 -12.72, 33.36 -13.8, 31.89 -14.66 C30.43 -15.53, 28.7 -16.35, 26.92 -16.69 C25.14 -17.02, 22.99 -16.89, 21.23 -16.68 C19.46 -16.46, 17.82 -15.99, 16.35 -15.39 C14.88 -14.79, 13.82 -14.11, 12.43 -13.08 C11.04 -12.04, 9.36 -10.49, 8.03 -9.17 C6.7 -7.85, 5.76 -6.68, 4.43 -5.15 C3.09 -3.62, 0.74 -0.86, 0 0 M0 0 C0.65 0.75, 2.63 3.08, 3.91 4.51 C5.2 5.94, 6.49 7.38, 7.7 8.6 C8.91 9.81, 9.81 10.79, 11.16 11.82 C12.51 12.84, 14.26 14, 15.8 14.75 C17.35 15.5, 18.85 16, 20.43 16.32 C22.01 16.64, 23.58 16.91, 25.3 16.68 C27.02 16.45, 29.07 15.79, 30.75 14.94 C32.44 14.08, 34.13 12.86, 35.41 11.57 C36.69 10.29, 37.7 8.73, 38.45 7.22 C39.19 5.72, 39.65 4.13, 39.9 2.54 C40.14 0.94, 40.15 -0.72, 39.92 -2.35 C39.69 -3.99, 39.22 -5.77, 38.52 -7.29 C37.82 -8.82, 36.81 -10.26, 35.71 -11.49 C34.61 -12.72, 33.36 -13.8, 31.89 -14.66 C30.43 -15.53, 28.7 -16.35, 26.92 -16.69 C25.14 -17.02, 22.99 -16.89, 21.23 -16.68 C19.46 -16.46, 17.82 -15.99, 16.35 -15.39 C14.88 -14.79, 13.82 -14.11, 12.43 -13.08 C11.04 -12.04, 9.36 -10.49, 8.03 -9.17 C6.7 -7.85, 5.76 -6.68, 4.43 -5.15 C3.09 -3.62, 0.74 -0.86, 0 0" stroke="#E1E1E1" stroke-width="2" fill="none"></path></g></g><mask></mask><g stroke-linecap="round"><g transform="translate(55.71101275176625 56.19677721989342) rotate(0 22.848320602177864 -3.291185537606779)"><path d="M0 0 C0.52 0.61, 2.03 2.4, 3.15 3.68 C4.27 4.96, 5.44 6.36, 6.73 7.67 C8.02 8.98, 9.49 10.44, 10.9 11.55 C12.32 12.65, 13.67 13.54, 15.22 14.29 C16.76 15.04, 18.71 15.63, 20.16 16.04 C21.6 16.46, 22.49 16.67, 23.88 16.8 C25.27 16.93, 26.9 17.01, 28.49 16.8 C30.08 16.59, 31.91 16.13, 33.42 15.54 C34.94 14.94, 36.34 14.13, 37.58 13.22 C38.82 12.31, 39.95 11.07, 40.86 10.07 C41.76 9.07, 42.36 8.39, 43.02 7.23 C43.67 6.08, 44.34 4.64, 44.79 3.15 C45.24 1.65, 45.62 0.12, 45.7 -1.73 C45.77 -3.58, 45.63 -6.19, 45.25 -7.97 C44.87 -9.75, 44.23 -10.91, 43.42 -12.42 C42.62 -13.93, 41.58 -15.73, 40.44 -17.02 C39.31 -18.3, 38 -19.23, 36.61 -20.12 C35.23 -21.02, 33.56 -21.86, 32.12 -22.41 C30.68 -22.95, 29.6 -23.26, 27.97 -23.38 C26.34 -23.51, 24.08 -23.41, 22.35 -23.14 C20.62 -22.87, 19.1 -22.38, 17.56 -21.76 C16.02 -21.15, 14.53 -20.42, 13.11 -19.47 C11.69 -18.52, 10.54 -17.47, 9.06 -16.05 C7.58 -14.63, 5.57 -12.46, 4.25 -10.94 C2.93 -9.42, 1.81 -7.81, 1.12 -6.95 C0.43 -6.08, 0.3 -5.95, 0.13 -5.75 M0 0 C0.52 0.61, 2.03 2.4, 3.15 3.68 C4.27 4.96, 5.44 6.36, 6.73 7.67 C8.02 8.98, 9.49 10.44, 10.9 11.55 C12.32 12.65, 13.67 13.54, 15.22 14.29 C16.76 15.04, 18.71 15.63, 20.16 16.04 C21.6 16.46, 22.49 16.67, 23.88 16.8 C25.27 16.93, 26.9 17.01, 28.49 16.8 C30.08 16.59, 31.91 16.13, 33.42 15.54 C34.94 14.94, 36.34 14.13, 37.58 13.22 C38.82 12.31, 39.95 11.07, 40.86 10.07 C41.76 9.07, 42.36 8.39, 43.02 7.23 C43.67 6.08, 44.34 4.64, 44.79 3.15 C45.24 1.65, 45.62 0.12, 45.7 -1.73 C45.77 -3.58, 45.63 -6.19, 45.25 -7.97 C44.87 -9.75, 44.23 -10.91, 43.42 -12.42 C42.62 -13.93, 41.58 -15.73, 40.44 -17.02 C39.31 -18.3, 38 -19.23, 36.61 -20.12 C35.23 -21.02, 33.56 -21.86, 32.12 -22.41 C30.68 -22.95, 29.6 -23.26, 27.97 -23.38 C26.34 -23.51, 24.08 -23.41, 22.35 -23.14 C20.62 -22.87, 19.1 -22.38, 17.56 -21.76 C16.02 -21.15, 14.53 -20.42, 13.11 -19.47 C11.69 -18.52, 10.54 -17.47, 9.06 -16.05 C7.58 -14.63, 5.57 -12.46, 4.25 -10.94 C2.93 -9.42, 1.81 -7.81, 1.12 -6.95 C0.43 -6.08, 0.3 -5.95, 0.13 -5.75" stroke="#E1E1E1" stroke-width="2" fill="none"></path></g></g><mask></mask><g stroke-linecap="round"><g transform="translate(10.020287499974984 56.962471247162114) rotate(180 22.848320602177864 -3.291185537606779)"><path d="M0 0 C0.52 0.61, 2.03 2.4, 3.15 3.68 C4.27 4.96, 5.44 6.36, 6.73 7.67 C8.02 8.98, 9.49 10.44, 10.9 11.55 C12.32 12.65, 13.67 13.54, 15.22 14.29 C16.76 15.04, 18.71 15.63, 20.16 16.04 C21.6 16.46, 22.49 16.67, 23.88 16.8 C25.27 16.93, 26.9 17.01, 28.49 16.8 C30.08 16.59, 31.91 16.13, 33.42 15.54 C34.94 14.94, 36.34 14.13, 37.58 13.22 C38.82 12.31, 39.95 11.07, 40.86 10.07 C41.76 9.07, 42.36 8.39, 43.02 7.23 C43.67 6.08, 44.34 4.64, 44.79 3.15 C45.24 1.65, 45.62 0.12, 45.7 -1.73 C45.77 -3.58, 45.63 -6.19, 45.25 -7.97 C44.87 -9.75, 44.23 -10.91, 43.42 -12.42 C42.62 -13.93, 41.58 -15.73, 40.44 -17.02 C39.31 -18.3, 38 -19.23, 36.61 -20.12 C35.23 -21.02, 33.56 -21.86, 32.12 -22.41 C30.68 -22.95, 29.6 -23.26, 27.97 -23.38 C26.34 -23.51, 24.08 -23.41, 22.35 -23.14 C20.62 -22.87, 19.1 -22.38, 17.56 -21.76 C16.02 -21.15, 14.53 -20.42, 13.11 -19.47 C11.69 -18.52, 10.54 -17.47, 9.06 -16.05 C7.58 -14.63, 5.57 -12.46, 4.25 -10.94 C2.93 -9.42, 1.81 -7.81, 1.12 -6.95 C0.43 -6.08, 0.3 -5.95, 0.13 -5.75 M0 0 C0.52 0.61, 2.03 2.4, 3.15 3.68 C4.27 4.96, 5.44 6.36, 6.73 7.67 C8.02 8.98, 9.49 10.44, 10.9 11.55 C12.32 12.65, 13.67 13.54, 15.22 14.29 C16.76 15.04, 18.71 15.63, 20.16 16.04 C21.6 16.46, 22.49 16.67, 23.88 16.8 C25.27 16.93, 26.9 17.01, 28.49 16.8 C30.08 16.59, 31.91 16.13, 33.42 15.54 C34.94 14.94, 36.34 14.13, 37.58 13.22 C38.82 12.31, 39.95 11.07, 40.86 10.07 C41.76 9.07, 42.36 8.39, 43.02 7.23 C43.67 6.08, 44.34 4.64, 44.79 3.15 C45.24 1.65, 45.62 0.12, 45.7 -1.73 C45.77 -3.58, 45.63 -6.19, 45.25 -7.97 C44.87 -9.75, 44.23 -10.91, 43.42 -12.42 C42.62 -13.93, 41.58 -15.73, 40.44 -17.02 C39.31 -18.3, 38 -19.23, 36.61 -20.12 C35.23 -21.02, 33.56 -21.86, 32.12 -22.41 C30.68 -22.95, 29.6 -23.26, 27.97 -23.38 C26.34 -23.51, 24.08 -23.41, 22.35 -23.14 C20.62 -22.87, 19.1 -22.38, 17.56 -21.76 C16.02 -21.15, 14.53 -20.42, 13.11 -19.47 C11.69 -18.52, 10.54 -17.47, 9.06 -16.05 C7.58 -14.63, 5.57 -12.46, 4.25 -10.94 C2.93 -9.42, 1.81 -7.81, 1.12 -6.95 C0.43 -6.08, 0.3 -5.95, 0.13 -5.75" stroke="#E1E1E1" stroke-width="2" fill="none"></path></g></g><mask></mask><g stroke-linecap="round"><g transform="translate(63.173661436291695 18.793049833478563) rotate(0 23.862528483454298 34.21245365100427)"><path d="M0 0 C-0.58 0.37, -2.42 1.45, -3.47 2.19 C-4.52 2.93, -5.5 3.75, -6.3 4.44 C-7.11 5.12, -7.76 5.96, -8.31 6.31 C-8.85 6.65, -9.22 6.57, -9.59 6.54 C-9.97 6.5, -10.32 6.31, -10.56 6.12 C-10.79 5.92, -10.95 5.71, -11.01 5.37 C-11.08 5.04, -11.22 4.58, -10.95 4.09 C-10.68 3.61, -10.13 3.14, -9.38 2.47 C-8.64 1.8, -7.62 0.91, -6.47 0.07 C-5.33 -0.76, -3.75 -1.79, -2.49 -2.54 C-1.23 -3.29, -0.26 -3.82, 1.07 -4.44 C2.4 -5.06, 3.97 -5.75, 5.48 -6.28 C6.99 -6.81, 8.49 -7.24, 10.13 -7.63 C11.76 -8.01, 13.52 -8.4, 15.28 -8.59 C17.04 -8.79, 19.07 -8.79, 20.69 -8.79 C22.31 -8.8, 23.41 -8.81, 25 -8.62 C26.59 -8.44, 28.62 -8.04, 30.23 -7.67 C31.84 -7.3, 33.09 -6.95, 34.65 -6.38 C36.22 -5.82, 38.13 -5.03, 39.62 -4.29 C41.11 -3.54, 42.23 -2.8, 43.59 -1.91 C44.95 -1.02, 46.53 0.07, 47.77 1.06 C49.01 2.04, 49.94 2.9, 51.05 4.02 C52.16 5.14, 53.32 6.28, 54.43 7.78 C55.54 9.28, 56.89 11.69, 57.71 13.03 C58.53 14.38, 58.81 14.73, 59.33 15.86 C59.85 16.99, 60.39 18.5, 60.83 19.81 C61.28 21.12, 61.64 22.25, 62.01 23.73 C62.37 25.21, 62.78 27.2, 63.03 28.69 C63.27 30.18, 63.43 31.09, 63.47 32.67 C63.5 34.24, 63.4 36.35, 63.22 38.14 C63.03 39.92, 62.74 41.65, 62.35 43.37 C61.97 45.1, 61.44 46.94, 60.91 48.49 C60.38 50.04, 59.85 51.29, 59.18 52.66 C58.52 54.04, 57.74 55.39, 56.93 56.72 C56.12 58.04, 55.28 59.35, 54.3 60.62 C53.31 61.89, 52.13 63.2, 51.01 64.35 C49.89 65.5, 48.74 66.56, 47.57 67.52 C46.41 68.48, 45.39 69.22, 44.03 70.12 C42.66 71.01, 40.98 72.1, 39.39 72.89 C37.8 73.68, 36.13 74.28, 34.48 74.85 C32.82 75.43, 31.39 75.95, 29.45 76.34 C27.52 76.74, 25.19 77.08, 22.87 77.22 C20.55 77.35, 17.93 77.39, 15.55 77.16 C13.17 76.92, 10.76 76.38, 8.57 75.8 C6.39 75.23, 4.41 74.59, 2.43 73.71 C0.45 72.83, -1.65 71.55, -3.33 70.51 C-5 69.48, -6.48 68.36, -7.6 67.48 C-8.72 66.61, -9.32 66, -10.05 65.28 C-10.78 64.56, -11.63 63.36, -11.99 63.17 C-12.34 62.98, -12.16 63.44, -12.18 64.15 C-12.2 64.86, -12.15 66.52, -12.12 67.44 C-12.09 68.36, -11.89 69.11, -12.01 69.67 C-12.12 70.23, -12.43 70.5, -12.79 70.78 C-13.16 71.06, -13.79 71.36, -14.19 71.35 C-14.59 71.33, -14.93 70.93, -15.18 70.7 C-15.43 70.47, -15.6 70.3, -15.7 69.96 C-15.79 69.62, -15.74 69.5, -15.74 68.65 C-15.74 67.8, -15.72 66.26, -15.69 64.87 C-15.67 63.47, -15.62 61.48, -15.6 60.3 C-15.59 59.12, -15.69 58.32, -15.6 57.79 C-15.52 57.26, -15.29 57.28, -15.1 57.13 C-14.91 56.98, -14.78 56.95, -14.48 56.9 C-14.18 56.84, -13.98 56.8, -13.3 56.79 C-12.62 56.78, -11.69 56.82, -10.41 56.82 C-9.14 56.82, -6.93 56.81, -5.65 56.8 C-4.38 56.79, -3.38 56.67, -2.76 56.75 C-2.13 56.83, -2.11 57.03, -1.88 57.27 C-1.64 57.51, -1.43 57.85, -1.35 58.19 C-1.26 58.52, -1.24 58.98, -1.35 59.3 C-1.46 59.62, -1.74 59.94, -2.01 60.1 C-2.29 60.26, -2.33 60.22, -2.99 60.25 C-3.65 60.29, -4.89 60.29, -5.98 60.3 C-7.07 60.31, -8.91 60.22, -9.53 60.31 C-10.16 60.39, -9.85 60.59, -9.73 60.81 C-9.61 61.03, -9.31 61.18, -8.83 61.62 C-8.35 62.07, -7.55 62.87, -6.85 63.48 C-6.14 64.08, -5.48 64.59, -4.59 65.24 C-3.71 65.9, -2.61 66.72, -1.53 67.42 C-0.46 68.11, 0.55 68.74, 1.85 69.4 C3.16 70.05, 5 70.83, 6.32 71.35 C7.64 71.88, 8.39 72.21, 9.77 72.55 C11.16 72.89, 12.92 73.2, 14.64 73.4 C16.35 73.61, 18.25 73.73, 20.04 73.76 C21.83 73.79, 23.56 73.82, 25.4 73.6 C27.23 73.38, 28.99 73.05, 31.05 72.43 C33.11 71.8, 35.71 70.85, 37.78 69.85 C39.85 68.85, 41.71 67.7, 43.45 66.45 C45.2 65.21, 46.76 63.85, 48.24 62.39 C49.72 60.93, 51.05 59.48, 52.33 57.71 C53.6 55.93, 54.99 53.56, 55.91 51.75 C56.84 49.95, 57.29 48.63, 57.87 46.89 C58.46 45.15, 59.06 43.17, 59.41 41.33 C59.76 39.48, 59.89 37.6, 59.97 35.81 C60.04 34.02, 60.04 32.41, 59.86 30.57 C59.69 28.72, 59.36 26.51, 58.94 24.72 C58.52 22.92, 58.03 21.49, 57.36 19.82 C56.69 18.14, 55.78 16.21, 54.93 14.64 C54.07 13.07, 53.3 11.8, 52.22 10.39 C51.15 8.98, 49.87 7.51, 48.48 6.16 C47.09 4.81, 45.37 3.39, 43.87 2.27 C42.38 1.16, 41.33 0.43, 39.52 -0.52 C37.71 -1.48, 35.12 -2.7, 33 -3.46 C30.89 -4.21, 29.24 -4.7, 26.85 -5.05 C24.46 -5.39, 21.06 -5.54, 18.66 -5.52 C16.26 -5.49, 14.57 -5.33, 12.47 -4.92 C10.37 -4.51, 8.15 -3.89, 6.08 -3.07 C4 -2.25, 1.01 -0.51, 0 0 M0 0 C-0.58 0.37, -2.42 1.45, -3.47 2.19 C-4.52 2.93, -5.5 3.75, -6.3 4.44 C-7.11 5.12, -7.76 5.96, -8.31 6.31 C-8.85 6.65, -9.22 6.57, -9.59 6.54 C-9.97 6.5, -10.32 6.31, -10.56 6.12 C-10.79 5.92, -10.95 5.71, -11.01 5.37 C-11.08 5.04, -11.22 4.58, -10.95 4.09 C-10.68 3.61, -10.13 3.14, -9.38 2.47 C-8.64 1.8, -7.62 0.91, -6.47 0.07 C-5.33 -0.76, -3.75 -1.79, -2.49 -2.54 C-1.23 -3.29, -0.26 -3.82, 1.07 -4.44 C2.4 -5.06, 3.97 -5.75, 5.48 -6.28 C6.99 -6.81, 8.49 -7.24, 10.13 -7.63 C11.76 -8.01, 13.52 -8.4, 15.28 -8.59 C17.04 -8.79, 19.07 -8.79, 20.69 -8.79 C22.31 -8.8, 23.41 -8.81, 25 -8.62 C26.59 -8.44, 28.62 -8.04, 30.23 -7.67 C31.84 -7.3, 33.09 -6.95, 34.65 -6.38 C36.22 -5.82, 38.13 -5.03, 39.62 -4.29 C41.11 -3.54, 42.23 -2.8, 43.59 -1.91 C44.95 -1.02, 46.53 0.07, 47.77 1.06 C49.01 2.04, 49.94 2.9, 51.05 4.02 C52.16 5.14, 53.32 6.28, 54.43 7.78 C55.54 9.28, 56.89 11.69, 57.71 13.03 C58.53 14.38, 58.81 14.73, 59.33 15.86 C59.85 16.99, 60.39 18.5, 60.83 19.81 C61.28 21.12, 61.64 22.25, 62.01 23.73 C62.37 25.21, 62.78 27.2, 63.03 28.69 C63.27 30.18, 63.43 31.09, 63.47 32.67 C63.5 34.24, 63.4 36.35, 63.22 38.14 C63.03 39.92, 62.74 41.65, 62.35 43.37 C61.97 45.1, 61.44 46.94, 60.91 48.49 C60.38 50.04, 59.85 51.29, 59.18 52.66 C58.52 54.04, 57.74 55.39, 56.93 56.72 C56.12 58.04, 55.28 59.35, 54.3 60.62 C53.31 61.89, 52.13 63.2, 51.01 64.35 C49.89 65.5, 48.74 66.56, 47.57 67.52 C46.41 68.48, 45.39 69.22, 44.03 70.12 C42.66 71.01, 40.98 72.1, 39.39 72.89 C37.8 73.68, 36.13 74.28, 34.48 74.85 C32.82 75.43, 31.39 75.95, 29.45 76.34 C27.52 76.74, 25.19 77.08, 22.87 77.22 C20.55 77.35, 17.93 77.39, 15.55 77.16 C13.17 76.92, 10.76 76.38, 8.57 75.8 C6.39 75.23, 4.41 74.59, 2.43 73.71 C0.45 72.83, -1.65 71.55, -3.33 70.51 C-5 69.48, -6.48 68.36, -7.6 67.48 C-8.72 66.61, -9.32 66, -10.05 65.28 C-10.78 64.56, -11.63 63.36, -11.99 63.17 C-12.34 62.98, -12.16 63.44, -12.18 64.15 C-12.2 64.86, -12.15 66.52, -12.12 67.44 C-12.09 68.36, -11.89 69.11, -12.01 69.67 C-12.12 70.23, -12.43 70.5, -12.79 70.78 C-13.16 71.06, -13.79 71.36, -14.19 71.35 C-14.59 71.33, -14.93 70.93, -15.18 70.7 C-15.43 70.47, -15.6 70.3, -15.7 69.96 C-15.79 69.62, -15.74 69.5, -15.74 68.65 C-15.74 67.8, -15.72 66.26, -15.69 64.87 C-15.67 63.47, -15.62 61.48, -15.6 60.3 C-15.59 59.12, -15.69 58.32, -15.6 57.79 C-15.52 57.26, -15.29 57.28, -15.1 57.13 C-14.91 56.98, -14.78 56.95, -14.48 56.9 C-14.18 56.84, -13.98 56.8, -13.3 56.79 C-12.62 56.78, -11.69 56.82, -10.41 56.82 C-9.14 56.82, -6.93 56.81, -5.65 56.8 C-4.38 56.79, -3.38 56.67, -2.76 56.75 C-2.13 56.83, -2.11 57.03, -1.88 57.27 C-1.64 57.51, -1.43 57.85, -1.35 58.19 C-1.26 58.52, -1.24 58.98, -1.35 59.3 C-1.46 59.62, -1.74 59.94, -2.01 60.1 C-2.29 60.26, -2.33 60.22, -2.99 60.25 C-3.65 60.29, -4.89 60.29, -5.98 60.3 C-7.07 60.31, -8.91 60.22, -9.53 60.31 C-10.16 60.39, -9.85 60.59, -9.73 60.81 C-9.61 61.03, -9.31 61.18, -8.83 61.62 C-8.35 62.07, -7.55 62.87, -6.85 63.48 C-6.14 64.08, -5.48 64.59, -4.59 65.24 C-3.71 65.9, -2.61 66.72, -1.53 67.42 C-0.46 68.11, 0.55 68.74, 1.85 69.4 C3.16 70.05, 5 70.83, 6.32 71.35 C7.64 71.88, 8.39 72.21, 9.77 72.55 C11.16 72.89, 12.92 73.2, 14.64 73.4 C16.35 73.61, 18.25 73.73, 20.04 73.76 C21.83 73.79, 23.56 73.82, 25.4 73.6 C27.23 73.38, 28.99 73.05, 31.05 72.43 C33.11 71.8, 35.71 70.85, 37.78 69.85 C39.85 68.85, 41.71 67.7, 43.45 66.45 C45.2 65.21, 46.76 63.85, 48.24 62.39 C49.72 60.93, 51.05 59.48, 52.33 57.71 C53.6 55.93, 54.99 53.56, 55.91 51.75 C56.84 49.95, 57.29 48.63, 57.87 46.89 C58.46 45.15, 59.06 43.17, 59.41 41.33 C59.76 39.48, 59.89 37.6, 59.97 35.81 C60.04 34.02, 60.04 32.41, 59.86 30.57 C59.69 28.72, 59.36 26.51, 58.94 24.72 C58.52 22.92, 58.03 21.49, 57.36 19.82 C56.69 18.14, 55.78 16.21, 54.93 14.64 C54.07 13.07, 53.3 11.8, 52.22 10.39 C51.15 8.98, 49.87 7.51, 48.48 6.16 C47.09 4.81, 45.37 3.39, 43.87 2.27 C42.38 1.16, 41.33 0.43, 39.52 -0.52 C37.71 -1.48, 35.12 -2.7, 33 -3.46 C30.89 -4.21, 29.24 -4.7, 26.85 -5.05 C24.46 -5.39, 21.06 -5.54, 18.66 -5.52 C16.26 -5.49, 14.57 -5.33, 12.47 -4.92 C10.37 -4.51, 8.15 -3.89, 6.08 -3.07 C4 -2.25, 1.01 -0.51, 0 0" stroke="#E1E1E1" stroke-width="2" fill="none"></path></g></g><mask></mask></svg>