<svg version="1.1" xmlns="http://www.w3.org/2000/svg" viewBox="0 0 1744.603820408582 3190.0675131633993" width="1744.603820408582" height="3190.0675131633993" class="excalidraw-svg"><!-- svg-source:excalidraw --><metadata></metadata><defs><style class="style-fonts">
      </style></defs><rect x="0" y="0" width="1744.603820408582" height="3190.0675131633993" fill="#000000"></rect><g stroke-linecap="round"><g transform="translate(1243.8853897071008 1391.3525403551653) rotate(0 -361.94387802611857 892.7147389490923)" fill-rule="evenodd"><path d="M0 0 C8.2 68.11, 33.21 278.05, 49.22 408.67 C65.23 539.3, 80.67 664.79, 96.06 783.74 C111.46 902.69, 130.71 1043.23, 141.58 1122.38 C152.45 1201.53, 159.81 1224.81, 161.31 1258.63 C162.8 1292.45, 165.18 1301.27, 150.54 1325.3 C135.91 1349.34, 130 1347.26, 73.51 1402.84 C17.02 1458.42, -130.09 1601.43, -188.41 1658.8 C-246.74 1716.16, -253.11 1726.3, -276.42 1747.04 C-299.74 1767.78, -310.3 1776.83, -328.28 1783.23 C-346.27 1789.63, -366.81 1790.51, -384.32 1785.43 C-401.84 1780.34, -401.27 1782.23, -433.35 1752.73 C-465.43 1723.22, -521.74 1663.1, -576.82 1608.4 C-631.91 1553.7, -715.96 1470.06, -763.86 1424.52 C-811.77 1378.97, -844.04 1359.54, -864.26 1335.13 C-884.48 1310.71, -887.17 1300.61, -885.2 1278.01 C-883.22 1255.41, -871.26 1235.33, -852.41 1199.54 C-833.57 1163.75, -794.94 1101.51, -772.13 1063.25 C-749.33 1024.99, -729.23 977.93, -715.57 969.98 C-701.91 962.03, -702.21 981.5, -690.17 1015.53 C-678.14 1049.57, -652.25 1139.94, -643.37 1174.19 C-634.5 1208.43, -633.79 1207.24, -636.93 1221 C-640.07 1234.76, -664.86 1243.4, -662.19 1256.74 C-659.53 1270.07, -648.13 1273.3, -620.94 1301.01 C-593.76 1328.72, -527.86 1396.89, -499.09 1423 C-470.31 1449.1, -462.99 1463.96, -448.31 1457.64 C-433.62 1451.33, -421.85 1384.4, -410.99 1385.09 C-400.12 1385.78, -394.88 1472.91, -383.11 1461.8 C-371.34 1450.69, -359.41 1321.49, -340.39 1318.41 C-321.36 1315.34, -290.7 1427.25, -268.95 1443.35 C-247.21 1459.46, -233.08 1433.9, -209.92 1415.05 C-186.75 1396.21, -155.32 1357.42, -129.97 1330.27 C-104.62 1303.12, -71.29 1275.24, -57.83 1252.15 C-44.37 1229.06, -45.95 1235.44, -49.2 1191.73 C-52.45 1148.02, -65.9 1077.83, -77.34 989.87 C-88.77 901.91, -105.69 759.25, -117.82 663.97 C-129.95 568.68, -142 500.89, -150.13 418.15 C-158.26 335.4, -191.62 237.18, -166.6 167.49 C-141.58 97.8, -27.77 27.92, 0 0" stroke="none" stroke-width="0" fill="#FFFFFF" fill-rule="evenodd"></path><path d="M0 0 C8.2 68.11, 33.21 278.05, 49.22 408.67 C65.23 539.3, 80.67 664.79, 96.06 783.74 C111.46 902.69, 130.71 1043.23, 141.58 1122.38 C152.45 1201.53, 159.81 1224.81, 161.31 1258.63 C162.8 1292.45, 165.18 1301.27, 150.54 1325.3 C135.91 1349.34, 130 1347.26, 73.51 1402.84 C17.02 1458.42, -130.09 1601.43, -188.41 1658.8 C-246.74 1716.16, -253.11 1726.3, -276.42 1747.04 C-299.74 1767.78, -310.3 1776.83, -328.28 1783.23 C-346.27 1789.63, -366.81 1790.51, -384.32 1785.43 C-401.84 1780.34, -401.27 1782.23, -433.35 1752.73 C-465.43 1723.22, -521.74 1663.1, -576.82 1608.4 C-631.91 1553.7, -715.96 1470.06, -763.86 1424.52 C-811.77 1378.97, -844.04 1359.54, -864.26 1335.13 C-884.48 1310.71, -887.17 1300.61, -885.2 1278.01 C-883.22 1255.41, -871.26 1235.33, -852.41 1199.54 C-833.57 1163.75, -794.94 1101.51, -772.13 1063.25 C-749.33 1024.99, -729.23 977.93, -715.57 969.98 C-701.91 962.03, -702.21 981.5, -690.17 1015.53 C-678.14 1049.57, -652.25 1139.94, -643.37 1174.19 C-634.5 1208.43, -633.79 1207.24, -636.93 1221 C-640.07 1234.76, -664.86 1243.4, -662.19 1256.74 C-659.53 1270.07, -648.13 1273.3, -620.94 1301.01 C-593.76 1328.72, -527.86 1396.89, -499.09 1423 C-470.31 1449.1, -462.99 1463.96, -448.31 1457.64 C-433.62 1451.33, -421.85 1384.4, -410.99 1385.09 C-400.12 1385.78, -394.88 1472.91, -383.11 1461.8 C-371.34 1450.69, -359.41 1321.49, -340.39 1318.41 C-321.36 1315.34, -290.7 1427.25, -268.95 1443.35 C-247.21 1459.46, -233.08 1433.9, -209.92 1415.05 C-186.75 1396.21, -155.32 1357.42, -129.97 1330.27 C-104.62 1303.12, -71.29 1275.24, -57.83 1252.15 C-44.37 1229.06, -45.95 1235.44, -49.2 1191.73 C-52.45 1148.02, -65.9 1077.83, -77.34 989.87 C-88.77 901.91, -105.69 759.25, -117.82 663.97 C-129.95 568.68, -142 500.89, -150.13 418.15 C-158.26 335.4, -191.62 237.18, -166.6 167.49 C-141.58 97.8, -27.77 27.92, 0 0 M0 0 C8.2 68.11, 33.21 278.05, 49.22 408.67 C65.23 539.3, 80.67 664.79, 96.06 783.74 C111.46 902.69, 130.71 1043.23, 141.58 1122.38 C152.45 1201.53, 159.81 1224.81, 161.31 1258.63 C162.8 1292.45, 165.18 1301.27, 150.54 1325.3 C135.91 1349.34, 130 1347.26, 73.51 1402.84 C17.02 1458.42, -130.09 1601.43, -188.41 1658.8 C-246.74 1716.16, -253.11 1726.3, -276.42 1747.04 C-299.74 1767.78, -310.3 1776.83, -328.28 1783.23 C-346.27 1789.63, -366.81 1790.51, -384.32 1785.43 C-401.84 1780.34, -401.27 1782.23, -433.35 1752.73 C-465.43 1723.22, -521.74 1663.1, -576.82 1608.4 C-631.91 1553.7, -715.96 1470.06, -763.86 1424.52 C-811.77 1378.97, -844.04 1359.54, -864.26 1335.13 C-884.48 1310.71, -887.17 1300.61, -885.2 1278.01 C-883.22 1255.41, -871.26 1235.33, -852.41 1199.54 C-833.57 1163.75, -794.94 1101.51, -772.13 1063.25 C-749.33 1024.99, -729.23 977.93, -715.57 969.98 C-701.91 962.03, -702.21 981.5, -690.17 1015.53 C-678.14 1049.57, -652.25 1139.94, -643.37 1174.19 C-634.5 1208.43, -633.79 1207.24, -636.93 1221 C-640.07 1234.76, -664.86 1243.4, -662.19 1256.74 C-659.53 1270.07, -648.13 1273.3, -620.94 1301.01 C-593.76 1328.72, -527.86 1396.89, -499.09 1423 C-470.31 1449.1, -462.99 1463.96, -448.31 1457.64 C-433.62 1451.33, -421.85 1384.4, -410.99 1385.09 C-400.12 1385.78, -394.88 1472.91, -383.11 1461.8 C-371.34 1450.69, -359.41 1321.49, -340.39 1318.41 C-321.36 1315.34, -290.7 1427.25, -268.95 1443.35 C-247.21 1459.46, -233.08 1433.9, -209.92 1415.05 C-186.75 1396.21, -155.32 1357.42, -129.97 1330.27 C-104.62 1303.12, -71.29 1275.24, -57.83 1252.15 C-44.37 1229.06, -45.95 1235.44, -49.2 1191.73 C-52.45 1148.02, -65.9 1077.83, -77.34 989.87 C-88.77 901.91, -105.69 759.25, -117.82 663.97 C-129.95 568.68, -142 500.89, -150.13 418.15 C-158.26 335.4, -191.62 237.18, -166.6 167.49 C-141.58 97.8, -27.77 27.92, 0 0" stroke="#FFFFFF" stroke-width="2" fill="none"></path></g></g><mask></mask><g stroke-linecap="round"><g transform="translate(981.2591199259072 1870.5577810643783) rotate(0 -102.92586595387263 526.4870752763827)" fill-rule="evenodd"><path d="M0 0 C1.32 70.79, 7.17 256.09, 7.95 424.75 C8.72 593.4, 12.35 915.83, 4.66 1011.92 C-3.04 1108.02, -10.98 999.33, -38.2 1001.3 C-65.42 1003.27, -129.39 1015.12, -158.65 1023.73 C-187.92 1032.34, -207.43 1062.23, -213.8 1052.97 C-220.17 1043.72, -199.38 1026.12, -196.9 968.18 C-194.42 910.23, -198.79 798.65, -198.92 705.29 C-199.05 611.93, -197.64 478.73, -197.68 407.99 C-197.71 337.25, -214.14 331.1, -199.14 280.86 C-184.14 230.62, -140.87 153.37, -107.68 106.56 C-74.49 59.75, -17.95 17.76, 0 0" stroke="none" stroke-width="0" fill="#FFFFFF" fill-rule="evenodd"></path><path d="M0 0 C1.32 70.79, 7.17 256.09, 7.95 424.75 C8.72 593.4, 12.35 915.83, 4.66 1011.92 C-3.04 1108.02, -10.98 999.33, -38.2 1001.3 C-65.42 1003.27, -129.39 1015.12, -158.65 1023.73 C-187.92 1032.34, -207.43 1062.23, -213.8 1052.97 C-220.17 1043.72, -199.38 1026.12, -196.9 968.18 C-194.42 910.23, -198.79 798.65, -198.92 705.29 C-199.05 611.93, -197.64 478.73, -197.68 407.99 C-197.71 337.25, -214.14 331.1, -199.14 280.86 C-184.14 230.62, -140.87 153.37, -107.68 106.56 C-74.49 59.75, -17.95 17.76, 0 0 M0 0 C1.32 70.79, 7.17 256.09, 7.95 424.75 C8.72 593.4, 12.35 915.83, 4.66 1011.92 C-3.04 1108.02, -10.98 999.33, -38.2 1001.3 C-65.42 1003.27, -129.39 1015.12, -158.65 1023.73 C-187.92 1032.34, -207.43 1062.23, -213.8 1052.97 C-220.17 1043.72, -199.38 1026.12, -196.9 968.18 C-194.42 910.23, -198.79 798.65, -198.92 705.29 C-199.05 611.93, -197.64 478.73, -197.68 407.99 C-197.71 337.25, -214.14 331.1, -199.14 280.86 C-184.14 230.62, -140.87 153.37, -107.68 106.56 C-74.49 59.75, -17.95 17.76, 0 0" stroke="#FFFFFF" stroke-width="2" fill="none"></path></g></g><mask></mask><g stroke-linecap="round"><g transform="translate(1570.5020065208043 991.2609904076494) rotate(0 -462.04474979081897 643.8957629345489)" fill-rule="evenodd"><path d="M0 0 C-44.14 74.39, -205.24 346.03, -264.81 446.31 C-324.39 546.59, -307.97 519.51, -357.44 601.66 C-406.9 683.8, -495.2 832.02, -561.6 939.17 C-628 1046.32, -725.34 1185.88, -755.85 1244.56 C-786.37 1303.24, -736.4 1273.08, -744.7 1291.26 C-753.01 1309.44, -781.06 1317.72, -805.69 1353.65 C-830.31 1389.57, -860.51 1451.03, -892.44 1506.79 C-924.38 1562.55, -974.63 1663.93, -997.28 1688.2 C-1019.93 1712.48, -1013.8 1686.18, -1028.34 1652.45 C-1042.89 1618.72, -1081.39 1532.02, -1084.55 1485.82 C-1087.71 1439.62, -1067.52 1416.85, -1047.29 1375.24 C-1027.06 1333.63, -1008.4 1311.72, -963.15 1236.16 C-917.91 1160.59, -840.82 1032.1, -775.82 921.86 C-710.83 811.61, -647.86 700.09, -573.18 574.69 C-498.49 449.3, -403.03 295.87, -327.69 169.47 C-252.36 43.08, -171.64 -97.23, -121.19 -183.68 C-70.73 -270.13, -49.11 -314.2, -24.95 -349.23 C-0.79 -384.25, 5.62 -385.3, 23.77 -393.83 C41.91 -402.36, 66.69 -403.32, 83.92 -400.41 C101.16 -397.5, 114.98 -387.96, 127.18 -376.38 C139.38 -364.8, 151.57 -347.92, 157.11 -330.91 C162.66 -313.91, 167.81 -296.93, 160.46 -274.36 C153.12 -251.78, 139.79 -241.2, 113.05 -195.47 C86.3 -149.74, 18.84 -32.58, 0 0" stroke="none" stroke-width="0" fill="#FFFFFF" fill-rule="evenodd"></path><path d="M0 0 C-44.14 74.39, -205.24 346.03, -264.81 446.31 C-324.39 546.59, -307.97 519.51, -357.44 601.66 C-406.9 683.8, -495.2 832.02, -561.6 939.17 C-628 1046.32, -725.34 1185.88, -755.85 1244.56 C-786.37 1303.24, -736.4 1273.08, -744.7 1291.26 C-753.01 1309.44, -781.06 1317.72, -805.69 1353.65 C-830.31 1389.57, -860.51 1451.03, -892.44 1506.79 C-924.38 1562.55, -974.63 1663.93, -997.28 1688.2 C-1019.93 1712.48, -1013.8 1686.18, -1028.34 1652.45 C-1042.89 1618.72, -1081.39 1532.02, -1084.55 1485.82 C-1087.71 1439.62, -1067.52 1416.85, -1047.29 1375.24 C-1027.06 1333.63, -1008.4 1311.72, -963.15 1236.16 C-917.91 1160.59, -840.82 1032.1, -775.82 921.86 C-710.83 811.61, -647.86 700.09, -573.18 574.69 C-498.49 449.3, -403.03 295.87, -327.69 169.47 C-252.36 43.08, -171.64 -97.23, -121.19 -183.68 C-70.73 -270.13, -49.11 -314.2, -24.95 -349.23 C-0.79 -384.25, 5.62 -385.3, 23.77 -393.83 C41.91 -402.36, 66.69 -403.32, 83.92 -400.41 C101.16 -397.5, 114.98 -387.96, 127.18 -376.38 C139.38 -364.8, 151.57 -347.92, 157.11 -330.91 C162.66 -313.91, 167.81 -296.93, 160.46 -274.36 C153.12 -251.78, 139.79 -241.2, 113.05 -195.47 C86.3 -149.74, 18.84 -32.58, 0 0 M0 0 C-44.14 74.39, -205.24 346.03, -264.81 446.31 C-324.39 546.59, -307.97 519.51, -357.44 601.66 C-406.9 683.8, -495.2 832.02, -561.6 939.17 C-628 1046.32, -725.34 1185.88, -755.85 1244.56 C-786.37 1303.24, -736.4 1273.08, -744.7 1291.26 C-753.01 1309.44, -781.06 1317.72, -805.69 1353.65 C-830.31 1389.57, -860.51 1451.03, -892.44 1506.79 C-924.38 1562.55, -974.63 1663.93, -997.28 1688.2 C-1019.93 1712.48, -1013.8 1686.18, -1028.34 1652.45 C-1042.89 1618.72, -1081.39 1532.02, -1084.55 1485.82 C-1087.71 1439.62, -1067.52 1416.85, -1047.29 1375.24 C-1027.06 1333.63, -1008.4 1311.72, -963.15 1236.16 C-917.91 1160.59, -840.82 1032.1, -775.82 921.86 C-710.83 811.61, -647.86 700.09, -573.18 574.69 C-498.49 449.3, -403.03 295.87, -327.69 169.47 C-252.36 43.08, -171.64 -97.23, -121.19 -183.68 C-70.73 -270.13, -49.11 -314.2, -24.95 -349.23 C-0.79 -384.25, 5.62 -385.3, 23.77 -393.83 C41.91 -402.36, 66.69 -403.32, 83.92 -400.41 C101.16 -397.5, 114.98 -387.96, 127.18 -376.38 C139.38 -364.8, 151.57 -347.92, 157.11 -330.91 C162.66 -313.91, 167.81 -296.93, 160.46 -274.36 C153.12 -251.78, 139.79 -241.2, 113.05 -195.47 C86.3 -149.74, 18.84 -32.58, 0 0" stroke="#FFFFFF" stroke-width="2" fill="none"></path></g></g><mask></mask><g stroke-linecap="round"><g transform="translate(1227.0725283651104 13.285494910049238) rotate(180 -361.94387802611857 892.7147389490923)" fill-rule="evenodd"><path d="M0 0 C8.2 68.11, 33.21 278.05, 49.22 408.67 C65.23 539.3, 80.67 664.79, 96.06 783.74 C111.46 902.69, 130.71 1043.23, 141.58 1122.38 C152.45 1201.53, 159.81 1224.81, 161.31 1258.63 C162.8 1292.45, 165.18 1301.27, 150.54 1325.3 C135.91 1349.34, 130 1347.26, 73.51 1402.84 C17.02 1458.42, -130.09 1601.43, -188.41 1658.8 C-246.74 1716.16, -253.11 1726.3, -276.42 1747.04 C-299.74 1767.78, -310.3 1776.83, -328.28 1783.23 C-346.27 1789.63, -366.81 1790.51, -384.32 1785.43 C-401.84 1780.34, -401.27 1782.23, -433.35 1752.73 C-465.43 1723.22, -521.74 1663.1, -576.82 1608.4 C-631.91 1553.7, -715.96 1470.06, -763.86 1424.52 C-811.77 1378.97, -844.04 1359.54, -864.26 1335.13 C-884.48 1310.71, -887.17 1300.61, -885.2 1278.01 C-883.22 1255.41, -871.26 1235.33, -852.41 1199.54 C-833.57 1163.75, -794.94 1101.51, -772.13 1063.25 C-749.33 1024.99, -729.23 977.93, -715.57 969.98 C-701.91 962.03, -702.21 981.5, -690.17 1015.53 C-678.14 1049.57, -652.25 1139.94, -643.37 1174.19 C-634.5 1208.43, -633.79 1207.24, -636.93 1221 C-640.07 1234.76, -664.86 1243.4, -662.19 1256.74 C-659.53 1270.07, -640.05 1283.18, -620.94 1301.01 C-601.83 1318.84, -575.7 1337.43, -547.53 1363.73 C-519.36 1390.03, -475.16 1435.9, -451.94 1458.82 C-428.71 1481.74, -422.76 1487.83, -408.17 1501.25 C-393.59 1514.68, -378.06 1535.25, -364.43 1539.37 C-350.8 1543.5, -340.02 1535.51, -326.42 1526.02 C-312.81 1516.52, -302.22 1500.89, -282.8 1482.4 C-263.39 1463.91, -235.39 1440.41, -209.92 1415.05 C-184.44 1389.7, -155.32 1357.42, -129.97 1330.27 C-104.62 1303.12, -71.29 1275.24, -57.83 1252.15 C-44.37 1229.06, -45.95 1235.44, -49.2 1191.73 C-52.45 1148.02, -65.9 1077.83, -77.34 989.87 C-88.77 901.91, -105.69 759.25, -117.82 663.97 C-129.95 568.68, -142 500.89, -150.13 418.15 C-158.26 335.4, -191.62 237.18, -166.6 167.49 C-141.58 97.8, -27.77 27.92, 0 0" stroke="none" stroke-width="0" fill="#FFFFFF" fill-rule="evenodd"></path><path d="M0 0 C8.2 68.11, 33.21 278.05, 49.22 408.67 C65.23 539.3, 80.67 664.79, 96.06 783.74 C111.46 902.69, 130.71 1043.23, 141.58 1122.38 C152.45 1201.53, 159.81 1224.81, 161.31 1258.63 C162.8 1292.45, 165.18 1301.27, 150.54 1325.3 C135.91 1349.34, 130 1347.26, 73.51 1402.84 C17.02 1458.42, -130.09 1601.43, -188.41 1658.8 C-246.74 1716.16, -253.11 1726.3, -276.42 1747.04 C-299.74 1767.78, -310.3 1776.83, -328.28 1783.23 C-346.27 1789.63, -366.81 1790.51, -384.32 1785.43 C-401.84 1780.34, -401.27 1782.23, -433.35 1752.73 C-465.43 1723.22, -521.74 1663.1, -576.82 1608.4 C-631.91 1553.7, -715.96 1470.06, -763.86 1424.52 C-811.77 1378.97, -844.04 1359.54, -864.26 1335.13 C-884.48 1310.71, -887.17 1300.61, -885.2 1278.01 C-883.22 1255.41, -871.26 1235.33, -852.41 1199.54 C-833.57 1163.75, -794.94 1101.51, -772.13 1063.25 C-749.33 1024.99, -729.23 977.93, -715.57 969.98 C-701.91 962.03, -702.21 981.5, -690.17 1015.53 C-678.14 1049.57, -652.25 1139.94, -643.37 1174.19 C-634.5 1208.43, -633.79 1207.24, -636.93 1221 C-640.07 1234.76, -664.86 1243.4, -662.19 1256.74 C-659.53 1270.07, -640.05 1283.18, -620.94 1301.01 C-601.83 1318.84, -575.7 1337.43, -547.53 1363.73 C-519.36 1390.03, -475.16 1435.9, -451.94 1458.82 C-428.71 1481.74, -422.76 1487.83, -408.17 1501.25 C-393.59 1514.68, -378.06 1535.25, -364.43 1539.37 C-350.8 1543.5, -340.02 1535.51, -326.42 1526.02 C-312.81 1516.52, -302.22 1500.89, -282.8 1482.4 C-263.39 1463.91, -235.39 1440.41, -209.92 1415.05 C-184.44 1389.7, -155.32 1357.42, -129.97 1330.27 C-104.62 1303.12, -71.29 1275.24, -57.83 1252.15 C-44.37 1229.06, -45.95 1235.44, -49.2 1191.73 C-52.45 1148.02, -65.9 1077.83, -77.34 989.87 C-88.77 901.91, -105.69 759.25, -117.82 663.97 C-129.95 568.68, -142 500.89, -150.13 418.15 C-158.26 335.4, -191.62 237.18, -166.6 167.49 C-141.58 97.8, -27.77 27.92, 0 0 M0 0 C8.2 68.11, 33.21 278.05, 49.22 408.67 C65.23 539.3, 80.67 664.79, 96.06 783.74 C111.46 902.69, 130.71 1043.23, 141.58 1122.38 C152.45 1201.53, 159.81 1224.81, 161.31 1258.63 C162.8 1292.45, 165.18 1301.27, 150.54 1325.3 C135.91 1349.34, 130 1347.26, 73.51 1402.84 C17.02 1458.42, -130.09 1601.43, -188.41 1658.8 C-246.74 1716.16, -253.11 1726.3, -276.42 1747.04 C-299.74 1767.78, -310.3 1776.83, -328.28 1783.23 C-346.27 1789.63, -366.81 1790.51, -384.32 1785.43 C-401.84 1780.34, -401.27 1782.23, -433.35 1752.73 C-465.43 1723.22, -521.74 1663.1, -576.82 1608.4 C-631.91 1553.7, -715.96 1470.06, -763.86 1424.52 C-811.77 1378.97, -844.04 1359.54, -864.26 1335.13 C-884.48 1310.71, -887.17 1300.61, -885.2 1278.01 C-883.22 1255.41, -871.26 1235.33, -852.41 1199.54 C-833.57 1163.75, -794.94 1101.51, -772.13 1063.25 C-749.33 1024.99, -729.23 977.93, -715.57 969.98 C-701.91 962.03, -702.21 981.5, -690.17 1015.53 C-678.14 1049.57, -652.25 1139.94, -643.37 1174.19 C-634.5 1208.43, -633.79 1207.24, -636.93 1221 C-640.07 1234.76, -664.86 1243.4, -662.19 1256.74 C-659.53 1270.07, -640.05 1283.18, -620.94 1301.01 C-601.83 1318.84, -575.7 1337.43, -547.53 1363.73 C-519.36 1390.03, -475.16 1435.9, -451.94 1458.82 C-428.71 1481.74, -422.76 1487.83, -408.17 1501.25 C-393.59 1514.68, -378.06 1535.25, -364.43 1539.37 C-350.8 1543.5, -340.02 1535.51, -326.42 1526.02 C-312.81 1516.52, -302.22 1500.89, -282.8 1482.4 C-263.39 1463.91, -235.39 1440.41, -209.92 1415.05 C-184.44 1389.7, -155.32 1357.42, -129.97 1330.27 C-104.62 1303.12, -71.29 1275.24, -57.83 1252.15 C-44.37 1229.06, -45.95 1235.44, -49.2 1191.73 C-52.45 1148.02, -65.9 1077.83, -77.34 989.87 C-88.77 901.91, -105.69 759.25, -117.82 663.97 C-129.95 568.68, -142 500.89, -150.13 418.15 C-158.26 335.4, -191.62 237.18, -166.6 167.49 C-141.58 97.8, -27.77 27.92, 0 0" stroke="#FFFFFF" stroke-width="2" fill="none"></path></g></g><mask></mask><g stroke-linecap="round"><g transform="translate(1121.2847671646466 907.1351614124478) rotate(180 -473.59147663843464 643.8957629345489)" fill-rule="evenodd"><path d="M0 0 C-44.14 74.39, -205.24 346.03, -264.81 446.31 C-324.39 546.59, -307.97 519.51, -357.44 601.66 C-406.9 683.8, -495.2 832.02, -561.6 939.17 C-628 1046.32, -725.34 1185.88, -755.85 1244.56 C-786.37 1303.24, -736.4 1273.08, -744.7 1291.26 C-753.01 1309.44, -781.06 1317.72, -805.69 1353.65 C-830.31 1389.57, -860.51 1451.03, -892.44 1506.79 C-924.38 1562.55, -974.63 1663.93, -997.28 1688.2 C-1019.93 1712.48, -1009.95 1680.84, -1028.34 1652.45 C-1046.74 1624.07, -1102.51 1560.67, -1107.64 1517.89 C-1112.78 1475.11, -1083.21 1442.72, -1059.13 1395.77 C-1035.05 1348.81, -1010.37 1315.14, -963.15 1236.16 C-915.94 1157.17, -840.82 1032.1, -775.82 921.86 C-710.83 811.61, -647.86 700.09, -573.18 574.69 C-498.49 449.3, -403.03 295.87, -327.69 169.47 C-252.36 43.08, -171.64 -97.23, -121.19 -183.68 C-70.73 -270.13, -49.11 -314.2, -24.95 -349.23 C-0.79 -384.25, 5.62 -385.3, 23.77 -393.83 C41.91 -402.36, 66.69 -403.32, 83.92 -400.41 C101.16 -397.5, 114.98 -387.96, 127.18 -376.38 C139.38 -364.8, 151.57 -347.92, 157.11 -330.91 C162.66 -313.91, 167.81 -296.93, 160.46 -274.36 C153.12 -251.78, 139.79 -241.2, 113.05 -195.47 C86.3 -149.74, 18.84 -32.58, 0 0" stroke="none" stroke-width="0" fill="#FFFFFF" fill-rule="evenodd"></path><path d="M0 0 C-44.14 74.39, -205.24 346.03, -264.81 446.31 C-324.39 546.59, -307.97 519.51, -357.44 601.66 C-406.9 683.8, -495.2 832.02, -561.6 939.17 C-628 1046.32, -725.34 1185.88, -755.85 1244.56 C-786.37 1303.24, -736.4 1273.08, -744.7 1291.26 C-753.01 1309.44, -781.06 1317.72, -805.69 1353.65 C-830.31 1389.57, -860.51 1451.03, -892.44 1506.79 C-924.38 1562.55, -974.63 1663.93, -997.28 1688.2 C-1019.93 1712.48, -1009.95 1680.84, -1028.34 1652.45 C-1046.74 1624.07, -1102.51 1560.67, -1107.64 1517.89 C-1112.78 1475.11, -1083.21 1442.72, -1059.13 1395.77 C-1035.05 1348.81, -1010.37 1315.14, -963.15 1236.16 C-915.94 1157.17, -840.82 1032.1, -775.82 921.86 C-710.83 811.61, -647.86 700.09, -573.18 574.69 C-498.49 449.3, -403.03 295.87, -327.69 169.47 C-252.36 43.08, -171.64 -97.23, -121.19 -183.68 C-70.73 -270.13, -49.11 -314.2, -24.95 -349.23 C-0.79 -384.25, 5.62 -385.3, 23.77 -393.83 C41.91 -402.36, 66.69 -403.32, 83.92 -400.41 C101.16 -397.5, 114.98 -387.96, 127.18 -376.38 C139.38 -364.8, 151.57 -347.92, 157.11 -330.91 C162.66 -313.91, 167.81 -296.93, 160.46 -274.36 C153.12 -251.78, 139.79 -241.2, 113.05 -195.47 C86.3 -149.74, 18.84 -32.58, 0 0 M0 0 C-44.14 74.39, -205.24 346.03, -264.81 446.31 C-324.39 546.59, -307.97 519.51, -357.44 601.66 C-406.9 683.8, -495.2 832.02, -561.6 939.17 C-628 1046.32, -725.34 1185.88, -755.85 1244.56 C-786.37 1303.24, -736.4 1273.08, -744.7 1291.26 C-753.01 1309.44, -781.06 1317.72, -805.69 1353.65 C-830.31 1389.57, -860.51 1451.03, -892.44 1506.79 C-924.38 1562.55, -974.63 1663.93, -997.28 1688.2 C-1019.93 1712.48, -1009.95 1680.84, -1028.34 1652.45 C-1046.74 1624.07, -1102.51 1560.67, -1107.64 1517.89 C-1112.78 1475.11, -1083.21 1442.72, -1059.13 1395.77 C-1035.05 1348.81, -1010.37 1315.14, -963.15 1236.16 C-915.94 1157.17, -840.82 1032.1, -775.82 921.86 C-710.83 811.61, -647.86 700.09, -573.18 574.69 C-498.49 449.3, -403.03 295.87, -327.69 169.47 C-252.36 43.08, -171.64 -97.23, -121.19 -183.68 C-70.73 -270.13, -49.11 -314.2, -24.95 -349.23 C-0.79 -384.25, 5.62 -385.3, 23.77 -393.83 C41.91 -402.36, 66.69 -403.32, 83.92 -400.41 C101.16 -397.5, 114.98 -387.96, 127.18 -376.38 C139.38 -364.8, 151.57 -347.92, 157.11 -330.91 C162.66 -313.91, 167.81 -296.93, 160.46 -274.36 C153.12 -251.78, 139.79 -241.2, 113.05 -195.47 C86.3 -149.74, 18.84 -32.58, 0 0" stroke="#FFFFFF" stroke-width="2" fill="none"></path></g></g><mask></mask><g stroke-linecap="round"><g transform="translate(338.23302622540393 879.1541014852814) rotate(0 349.88001680878386 115.36722721096169)" fill-rule="evenodd"><path d="M0 0 C62.78 0, 264.44 0, 376.69 0 C488.94 0, 601.46 -3.25, 673.52 0 C745.59 3.25, 805.41 -4.71, 809.07 19.49 C812.73 43.68, 745.73 109.98, 695.5 145.18 C645.28 180.39, 534.26 223.51, 507.72 230.73 C481.17 237.96, 541.85 194.95, 536.25 188.54 C530.64 182.13, 510.49 191.67, 474.07 192.29 C437.66 192.92, 394.14 192.29, 317.76 192.29 C241.38 192.29, 75.87 192.46, 15.81 192.29 C-44.26 192.13, -25.68 196.21, -42.62 191.32 C-59.56 186.43, -74.73 176.04, -85.84 162.94 C-96.96 149.84, -106.16 130.45, -109.31 112.74 C-112.47 95.03, -111.17 72.52, -104.77 56.68 C-98.38 40.84, -82.92 26.53, -70.92 17.72 C-58.93 8.91, -44.61 6.77, -32.79 3.81 C-20.97 0.86, -5.47 0.64, 0 0" stroke="none" stroke-width="0" fill="#FFFFFF" fill-rule="evenodd"></path><path d="M0 0 C62.78 0, 264.44 0, 376.69 0 C488.94 0, 601.46 -3.25, 673.52 0 C745.59 3.25, 805.41 -4.71, 809.07 19.49 C812.73 43.68, 745.73 109.98, 695.5 145.18 C645.28 180.39, 534.26 223.51, 507.72 230.73 C481.17 237.96, 541.85 194.95, 536.25 188.54 C530.64 182.13, 510.49 191.67, 474.07 192.29 C437.66 192.92, 394.14 192.29, 317.76 192.29 C241.38 192.29, 75.87 192.46, 15.81 192.29 C-44.26 192.13, -25.68 196.21, -42.62 191.32 C-59.56 186.43, -74.73 176.04, -85.84 162.94 C-96.96 149.84, -106.16 130.45, -109.31 112.74 C-112.47 95.03, -111.17 72.52, -104.77 56.68 C-98.38 40.84, -82.92 26.53, -70.92 17.72 C-58.93 8.91, -44.61 6.77, -32.79 3.81 C-20.97 0.86, -5.47 0.64, 0 0 M0 0 C62.78 0, 264.44 0, 376.69 0 C488.94 0, 601.46 -3.25, 673.52 0 C745.59 3.25, 805.41 -4.71, 809.07 19.49 C812.73 43.68, 745.73 109.98, 695.5 145.18 C645.28 180.39, 534.26 223.51, 507.72 230.73 C481.17 237.96, 541.85 194.95, 536.25 188.54 C530.64 182.13, 510.49 191.67, 474.07 192.29 C437.66 192.92, 394.14 192.29, 317.76 192.29 C241.38 192.29, 75.87 192.46, 15.81 192.29 C-44.26 192.13, -25.68 196.21, -42.62 191.32 C-59.56 186.43, -74.73 176.04, -85.84 162.94 C-96.96 149.84, -106.16 130.45, -109.31 112.74 C-112.47 95.03, -111.17 72.52, -104.77 56.68 C-98.38 40.84, -82.92 26.53, -70.92 17.72 C-58.93 8.91, -44.61 6.77, -32.79 3.81 C-20.97 0.86, -5.47 0.64, 0 0" stroke="#FFFFFF" stroke-width="2" fill="none"></path></g></g><mask></mask><g stroke-linecap="round"><g transform="translate(772.2029311866976 522.2555743964867) rotate(0 98.0063277792691 -0.3246255885173923)" fill-rule="evenodd"><path d="M0 0 C0.88 -9.62, 0.31 -42.07, 5.25 -57.71 C10.2 -73.35, 19.41 -83.44, 29.68 -93.84 C39.95 -104.23, 52.49 -115.07, 66.88 -120.11 C81.28 -125.14, 100.17 -126.97, 116.07 -124.03 C131.98 -121.09, 150.04 -112.56, 162.32 -102.48 C174.59 -92.4, 184.08 -78.93, 189.7 -63.55 C195.31 -48.17, 195.56 -30.19, 196.01 -10.19 C196.47 9.81, 198.46 37.41, 192.44 56.43 C186.42 75.45, 171.55 92.88, 159.88 103.93 C148.21 114.98, 137.95 119.51, 122.42 122.75 C106.89 125.99, 81.75 126.91, 66.69 123.38 C51.62 119.85, 42.06 111.08, 32.05 101.59 C22.03 92.09, 11.7 79.86, 6.61 66.42 C1.51 52.98, 2.59 32.02, 1.49 20.95 C0.39 9.88, 0.25 3.49, 0 0" stroke="none" stroke-width="0" fill="#FFFFFF" fill-rule="evenodd"></path><path d="M0 0 C0.88 -9.62, 0.31 -42.07, 5.25 -57.71 C10.2 -73.35, 19.41 -83.44, 29.68 -93.84 C39.95 -104.23, 52.49 -115.07, 66.88 -120.11 C81.28 -125.14, 100.17 -126.97, 116.07 -124.03 C131.98 -121.09, 150.04 -112.56, 162.32 -102.48 C174.59 -92.4, 184.08 -78.93, 189.7 -63.55 C195.31 -48.17, 195.56 -30.19, 196.01 -10.19 C196.47 9.81, 198.46 37.41, 192.44 56.43 C186.42 75.45, 171.55 92.88, 159.88 103.93 C148.21 114.98, 137.95 119.51, 122.42 122.75 C106.89 125.99, 81.75 126.91, 66.69 123.38 C51.62 119.85, 42.06 111.08, 32.05 101.59 C22.03 92.09, 11.7 79.86, 6.61 66.42 C1.51 52.98, 2.59 32.02, 1.49 20.95 C0.39 9.88, 0.25 3.49, 0 0 M0 0 C0.88 -9.62, 0.31 -42.07, 5.25 -57.71 C10.2 -73.35, 19.41 -83.44, 29.68 -93.84 C39.95 -104.23, 52.49 -115.07, 66.88 -120.11 C81.28 -125.14, 100.17 -126.97, 116.07 -124.03 C131.98 -121.09, 150.04 -112.56, 162.32 -102.48 C174.59 -92.4, 184.08 -78.93, 189.7 -63.55 C195.31 -48.17, 195.56 -30.19, 196.01 -10.19 C196.47 9.81, 198.46 37.41, 192.44 56.43 C186.42 75.45, 171.55 92.88, 159.88 103.93 C148.21 114.98, 137.95 119.51, 122.42 122.75 C106.89 125.99, 81.75 126.91, 66.69 123.38 C51.62 119.85, 42.06 111.08, 32.05 101.59 C22.03 92.09, 11.7 79.86, 6.61 66.42 C1.51 52.98, 2.59 32.02, 1.49 20.95 C0.39 9.88, 0.25 3.49, 0 0" stroke="#FFFFFF" stroke-width="2" fill="none"></path></g></g><mask></mask></svg>