<svg version="1.1" xmlns="http://www.w3.org/2000/svg" viewBox="0 0 746.8684097620455 197.8320758087657" width="746.8684097620455" height="197.8320758087657" class="excalidraw-svg"><!-- svg-source:excalidraw --><metadata></metadata><defs><style class="style-fonts">
      </style></defs><rect x="0" y="0" width="746.8684097620455" height="197.8320758087657" fill="#000000"></rect><g stroke-linecap="round"><g transform="translate(175.6906130901021 44.69965224678663) rotate(0 -66.2817214501533 54.157710223405275)"><path d="M0 0 C-7.51 0, -29.68 0, -45.07 0 C-60.47 0, -80.43 0, -92.36 0 C-104.3 0, -111.09 0.01, -116.7 0 C-122.31 -0.01, -123.88 -0.18, -126.05 -0.06 C-128.21 0.06, -128.69 0.1, -129.69 0.71 C-130.69 1.32, -131.58 2.11, -132.06 3.61 C-132.54 5.11, -132.48 6.01, -132.56 9.74 C-132.65 13.46, -132.56 13.16, -132.56 25.96 C-132.56 38.75, -132.56 74.48, -132.56 86.5 C-132.56 98.52, -132.64 95.18, -132.56 98.08 C-132.49 100.98, -132.48 102.42, -132.13 103.9 C-131.79 105.39, -131.17 106.29, -130.49 107 C-129.81 107.71, -129.3 107.94, -128.06 108.17 C-126.82 108.4, -129.67 108.34, -123.05 108.37 C-116.43 108.41, -105.73 108.37, -88.35 108.37 C-70.97 108.37, -33.47 108.37, -18.76 108.37 C-4.05 108.37, -3.2 108.37, -0.09 108.37 M0 0 C-7.51 0, -29.68 0, -45.07 0 C-60.47 0, -80.43 0, -92.36 0 C-104.3 0, -111.09 0.01, -116.7 0 C-122.31 -0.01, -123.88 -0.18, -126.05 -0.06 C-128.21 0.06, -128.69 0.1, -129.69 0.71 C-130.69 1.32, -131.58 2.11, -132.06 3.61 C-132.54 5.11, -132.48 6.01, -132.56 9.74 C-132.65 13.46, -132.56 13.16, -132.56 25.96 C-132.56 38.75, -132.56 74.48, -132.56 86.5 C-132.56 98.52, -132.64 95.18, -132.56 98.08 C-132.49 100.98, -132.48 102.42, -132.13 103.9 C-131.79 105.39, -131.17 106.29, -130.49 107 C-129.81 107.71, -129.3 107.94, -128.06 108.17 C-126.82 108.4, -129.67 108.34, -123.05 108.37 C-116.43 108.41, -105.73 108.37, -88.35 108.37 C-70.97 108.37, -33.47 108.37, -18.76 108.37 C-4.05 108.37, -3.2 108.37, -0.09 108.37" stroke="#E1E1E1" stroke-width="4" fill="none"></path></g></g><mask></mask><g stroke-linecap="round"><g transform="translate(175.60119698316691 152.91694722559714) rotate(0 0 -53.99455485945168)"><path d="M0 0 C0 -18, 0 -89.99, 0 -107.99 M0 0 C0 -18, 0 -89.99, 0 -107.99" stroke="#E1E1E1" stroke-width="4" fill="none"></path></g></g><mask></mask><g stroke-linecap="round"><g transform="translate(184.92892268393348 44.814035188775506) rotate(0 0 54.240449153524196)"><path d="M0 0 C0 18.08, 0 90.4, 0 108.48 M0 0 C0 18.08, 0 90.4, 0 108.48" stroke="#E1E1E1" stroke-width="4" fill="none"></path></g></g><mask></mask><g stroke-linecap="round"><g transform="translate(185.025306279721 153.2949334958239) rotate(0 253.4601160297853 -54.307801545761095)"><path d="M0 0 C52.24 0, 252.79 0, 313.47 0 C374.14 0, 346.29 0, 364.04 0 C381.8 0, 402.56 0, 419.97 0 C437.38 0, 456.75 0, 468.52 0 C480.3 0, 485.18 -0.01, 490.62 0 C496.07 0.01, 498.79 0.41, 501.19 0.03 C503.59 -0.34, 504.1 -1.16, 505.02 -2.23 C505.94 -3.3, 506.38 -4.75, 506.7 -6.38 C507.01 -8.02, 506.88 -4.72, 506.92 -12.02 C506.96 -19.32, 506.92 -36.9, 506.92 -50.18 C506.92 -63.46, 506.96 -83.07, 506.92 -91.71 C506.88 -100.35, 506.92 -99.82, 506.69 -102.03 C506.46 -104.23, 506.25 -104.04, 505.54 -104.94 C504.83 -105.83, 503.52 -106.83, 502.45 -107.39 C501.37 -107.94, 501.3 -108.07, 499.1 -108.28 C496.89 -108.49, 495.08 -108.59, 489.22 -108.65 C483.35 -108.71, 479.4 -108.65, 463.92 -108.65 C448.44 -108.65, 416.92 -108.65, 396.33 -108.65 C375.74 -108.65, 357.47 -108.65, 340.39 -108.65 C323.3 -108.65, 309.01 -108.65, 293.85 -108.65 C278.68 -108.65, 264.77 -108.65, 249.37 -108.65 C233.97 -108.65, 220.01 -108.65, 201.43 -108.65 C182.85 -108.65, 158.91 -108.65, 137.9 -108.65 C116.9 -108.65, 98.35 -108.65, 75.38 -108.65 C52.42 -108.65, 12.65 -108.65, 0.1 -108.65 M0 0 C52.24 0, 252.79 0, 313.47 0 C374.14 0, 346.29 0, 364.04 0 C381.8 0, 402.56 0, 419.97 0 C437.38 0, 456.75 0, 468.52 0 C480.3 0, 485.18 -0.01, 490.62 0 C496.07 0.01, 498.79 0.41, 501.19 0.03 C503.59 -0.34, 504.1 -1.16, 505.02 -2.23 C505.94 -3.3, 506.38 -4.75, 506.7 -6.38 C507.01 -8.02, 506.88 -4.72, 506.92 -12.02 C506.96 -19.32, 506.92 -36.9, 506.92 -50.18 C506.92 -63.46, 506.96 -83.07, 506.92 -91.71 C506.88 -100.35, 506.92 -99.82, 506.69 -102.03 C506.46 -104.23, 506.25 -104.04, 505.54 -104.94 C504.83 -105.83, 503.52 -106.83, 502.45 -107.39 C501.37 -107.94, 501.3 -108.07, 499.1 -108.28 C496.89 -108.49, 495.08 -108.59, 489.22 -108.65 C483.35 -108.71, 479.4 -108.65, 463.92 -108.65 C448.44 -108.65, 416.92 -108.65, 396.33 -108.65 C375.74 -108.65, 357.47 -108.65, 340.39 -108.65 C323.3 -108.65, 309.01 -108.65, 293.85 -108.65 C278.68 -108.65, 264.77 -108.65, 249.37 -108.65 C233.97 -108.65, 220.01 -108.65, 201.43 -108.65 C182.85 -108.65, 158.91 -108.65, 137.9 -108.65 C116.9 -108.65, 98.35 -108.65, 75.38 -108.65 C52.42 -108.65, 12.65 -108.65, 0.1 -108.65" stroke="#E1E1E1" stroke-width="4" fill="none"></path></g></g><mask></mask><g stroke-linecap="round"><g transform="translate(437.7749978183413 44.74560449469254) rotate(0 6.717239877508192 54.26986743978864)"><path d="M0 0 C1.1 0.57, 4.8 1.75, 6.59 3.39 C8.38 5.04, 9.55 7.47, 10.72 9.86 C11.89 12.24, 13.04 15.3, 13.6 17.72 C14.16 20.14, 14 20.36, 14.08 24.38 C14.16 28.4, 14.08 32.8, 14.08 41.84 C14.08 50.88, 14.06 70.62, 14.08 78.62 C14.1 86.62, 14.51 86.68, 14.2 89.84 C13.89 92.99, 13.36 95.14, 12.22 97.56 C11.08 99.98, 9.53 102.51, 7.36 104.34 C5.2 106.17, 0.59 107.84, -0.77 108.54 M0 0 C1.1 0.57, 4.8 1.75, 6.59 3.39 C8.38 5.04, 9.55 7.47, 10.72 9.86 C11.89 12.24, 13.04 15.3, 13.6 17.72 C14.16 20.14, 14 20.36, 14.08 24.38 C14.16 28.4, 14.08 32.8, 14.08 41.84 C14.08 50.88, 14.06 70.62, 14.08 78.62 C14.1 86.62, 14.51 86.68, 14.2 89.84 C13.89 92.99, 13.36 95.14, 12.22 97.56 C11.08 99.98, 9.53 102.51, 7.36 104.34 C5.2 106.17, 0.59 107.84, -0.77 108.54" stroke="#E1E1E1" stroke-width="2" fill="none"></path></g></g><mask></mask><g stroke-linecap="round"><g transform="translate(118.47226466510779 67.92513764882824) rotate(0 0 30.754361005497003)"><path d="M0 0 C0 10.25, 0 51.26, 0 61.51 M0 0 C0 10.25, 0 51.26, 0 61.51" stroke="#E1E1E1" stroke-width="4" fill="none"></path></g></g><mask></mask><g stroke-linecap="round"><g transform="translate(118.47083384150426 129.38855024571012) rotate(0 6.028536782995133 0)"><path d="M0 0 C2.01 0, 10.05 0, 12.06 0 M0 0 C2.01 0, 10.05 0, 12.06 0" stroke="#E1E1E1" stroke-width="4" fill="none"></path></g></g><mask></mask><g stroke-linecap="round"><g transform="translate(130.72549460832204 129.44101377784045) rotate(0 0 -10.487460072886051)"><path d="M0 0 C0 -3.5, 0 -17.48, 0 -20.97 M0 0 C0 -3.5, 0 -17.48, 0 -20.97" stroke="#E1E1E1" stroke-width="4" fill="none"></path></g></g><mask></mask><g stroke-linecap="round"><g transform="translate(130.89992154441978 108.29916421165308) rotate(0 7.342509792263485 -20.18701328141242)"><path d="M0 0 C1.2 0, 5 0.08, 7.2 0 C9.41 -0.08, 11.1 0.04, 13.22 -0.49 C15.35 -1.03, 17.96 -1.85, 19.96 -3.19 C21.95 -4.53, 24.05 -6.78, 25.2 -8.52 C26.35 -10.27, 26.53 -11.58, 26.86 -13.67 C27.18 -15.76, 27.24 -18.75, 27.15 -21.05 C27.06 -23.36, 26.93 -25.53, 26.29 -27.5 C25.65 -29.47, 24.5 -31.3, 23.31 -32.87 C22.11 -34.44, 20.64 -35.86, 19.1 -36.94 C17.55 -38.02, 15.8 -38.84, 14.04 -39.36 C12.29 -39.89, 11.03 -39.93, 8.54 -40.09 C6.05 -40.26, 2.61 -40.33, -0.89 -40.37 C-4.39 -40.42, -10.54 -40.37, -12.46 -40.37 M0 0 C1.2 0, 5 0.08, 7.2 0 C9.41 -0.08, 11.1 0.04, 13.22 -0.49 C15.35 -1.03, 17.96 -1.85, 19.96 -3.19 C21.95 -4.53, 24.05 -6.78, 25.2 -8.52 C26.35 -10.27, 26.53 -11.58, 26.86 -13.67 C27.18 -15.76, 27.24 -18.75, 27.15 -21.05 C27.06 -23.36, 26.93 -25.53, 26.29 -27.5 C25.65 -29.47, 24.5 -31.3, 23.31 -32.87 C22.11 -34.44, 20.64 -35.86, 19.1 -36.94 C17.55 -38.02, 15.8 -38.84, 14.04 -39.36 C12.29 -39.89, 11.03 -39.93, 8.54 -40.09 C6.05 -40.26, 2.61 -40.33, -0.89 -40.37 C-4.39 -40.42, -10.54 -40.37, -12.46 -40.37" stroke="#E1E1E1" stroke-width="4" fill="none"></path></g></g><mask></mask><g stroke-linecap="round"><g transform="translate(130.39340998876008 79.1151321110624) rotate(0 0 8.876114224678076)"><path d="M0 0 C0 2.96, 0 14.79, 0 17.75 M0 0 C0 2.96, 0 14.79, 0 17.75" stroke="#E1E1E1" stroke-width="4" fill="none"></path></g></g><mask></mask><g stroke-linecap="round"><g transform="translate(130.88179777877463 96.86736056041809) rotate(0 6.993865774196223 -8.858467400234076)"><path d="M0 0 C1.5 0, 6.91 0.14, 9.01 0 C11.11 -0.14, 11.7 -0.2, 12.59 -0.83 C13.48 -1.46, 14.01 -2.5, 14.32 -3.76 C14.64 -5.02, 14.46 -6.88, 14.48 -8.39 C14.51 -9.9, 14.65 -11.68, 14.45 -12.82 C14.26 -13.96, 13.9 -14.54, 13.32 -15.23 C12.75 -15.91, 11.98 -16.55, 11.02 -16.92 C10.05 -17.28, 9.45 -17.28, 7.53 -17.42 C5.61 -17.55, 0.84 -17.67, -0.5 -17.72 M0 0 C1.5 0, 6.91 0.14, 9.01 0 C11.11 -0.14, 11.7 -0.2, 12.59 -0.83 C13.48 -1.46, 14.01 -2.5, 14.32 -3.76 C14.64 -5.02, 14.46 -6.88, 14.48 -8.39 C14.51 -9.9, 14.65 -11.68, 14.45 -12.82 C14.26 -13.96, 13.9 -14.54, 13.32 -15.23 C12.75 -15.91, 11.98 -16.55, 11.02 -16.92 C10.05 -17.28, 9.45 -17.28, 7.53 -17.42 C5.61 -17.55, 0.84 -17.67, -0.5 -17.72" stroke="#E1E1E1" stroke-width="4" fill="none"></path></g></g><mask></mask><g stroke-linecap="round"><g transform="translate(91.76989437549673 97.92029979430117) rotate(0 -6.896197056292181 0.6251150198081632)"><path d="M0 0 C5.9 -9.61, 11.8 -19.22, 18.28 -29.77 M0 0 C3.88 -6.33, 7.77 -12.65, 18.28 -29.77 M18.28 -29.77 C13.4 -29.77, 8.53 -29.77, 3.95 -29.77 M18.28 -29.77 C13.96 -29.77, 9.65 -29.77, 3.95 -29.77 M3.95 -29.77 C1.51 -25.33, -0.92 -20.9, -6.3 -11.09 M3.95 -29.77 C1.1 -24.58, -1.75 -19.39, -6.3 -11.09 M-6.3 -11.09 C-10.38 -17.63, -14.46 -24.16, -18.17 -30.09 M-6.3 -11.09 C-9.98 -16.98, -13.65 -22.86, -18.17 -30.09 M-18.17 -30.09 C-22.24 -30.09, -26.32 -30.09, -31.51 -30.09 M-18.17 -30.09 C-22.23 -30.09, -26.29 -30.09, -31.51 -30.09 M-31.51 -30.09 C-27.54 -23.63, -23.57 -17.17, -13.37 -0.54 M-31.51 -30.09 C-26.44 -21.83, -21.37 -13.58, -13.37 -0.54 M-13.37 -0.54 C-20.48 10.88, -27.59 22.3, -33.15 31.24 M-13.37 -0.54 C-19.91 9.98, -26.46 20.5, -33.15 31.24 M-33.15 31.24 C-28.43 31.24, -23.72 31.24, -18.24 31.24 M-33.15 31.24 C-30.12 31.24, -27.1 31.24, -18.24 31.24 M-18.24 31.24 C-14.5 24.71, -10.77 18.17, -6.61 10.91 M-18.24 31.24 C-15.27 26.04, -12.29 20.84, -6.61 10.91 M-6.61 10.91 C-2.28 18.69, 2.05 26.46, 4.77 31.34 M-6.61 10.91 C-3.95 15.69, -1.29 20.47, 4.77 31.34 M4.77 31.34 C7.77 31.34, 10.77 31.34, 19.36 31.34 M4.77 31.34 C8.22 31.34, 11.67 31.34, 19.36 31.34 M19.36 31.34 C12.68 20.52, 6 9.71, 0 0 M19.36 31.34 C13.86 22.43, 8.36 13.53, 0 0" stroke="#E1E1E1" stroke-width="4" fill="none"></path></g></g><mask></mask><g stroke-linecap="round"><g transform="translate(98.59141259569031 164.15492377311284) rotate(0 269.2621086938863 -64.81456991057667)"><path d="M0 0 C16.67 0, 59.65 0, 100 0 C140.35 0, 196.9 0, 242.09 0 C287.28 0, 322.5 0, 371.12 0 C419.74 0, 501.52 0, 533.81 0 C566.11 0, 556.57 0.02, 564.9 0 C573.22 -0.02, 579.15 0.16, 583.78 -0.12 C588.41 -0.4, 589.99 -0.41, 592.68 -1.68 C595.36 -2.95, 598.13 -5.09, 599.88 -7.74 C601.63 -10.39, 602.56 -13.47, 603.18 -17.58 C603.8 -21.69, 603.52 -24.22, 603.59 -32.4 C603.66 -40.58, 603.59 -55.17, 603.59 -66.67 C603.59 -78.18, 603.68 -93.46, 603.59 -101.44 C603.5 -109.41, 603.49 -111.28, 603.05 -114.53 C602.62 -117.78, 602.22 -118.99, 600.97 -120.93 C599.72 -122.87, 597.63 -124.83, 595.57 -126.16 C593.5 -127.49, 591.75 -128.33, 588.57 -128.91 C585.4 -129.49, 583.22 -129.51, 576.52 -129.63 C569.83 -129.75, 566.21 -129.63, 548.4 -129.63 C530.6 -129.63, 498.56 -129.63, 469.72 -129.63 C440.88 -129.63, 406.58 -129.63, 375.36 -129.63 C344.15 -129.63, 314.52 -129.63, 282.43 -129.63 C250.35 -129.63, 219.67 -129.63, 182.84 -129.63 C146 -129.63, 95.84 -129.63, 61.41 -129.63 C26.99 -129.63, -5.77 -129.63, -23.73 -129.63 C-41.69 -129.63, -41.15 -129.88, -46.34 -129.63 C-51.54 -129.38, -52.46 -129.05, -54.91 -128.13 C-57.35 -127.21, -59.45 -126.04, -61.03 -124.1 C-62.6 -122.15, -63.7 -121.12, -64.37 -116.48 C-65.05 -111.84, -64.95 -104.85, -65.07 -96.25 C-65.18 -87.66, -65.07 -75.51, -65.07 -64.9 C-65.07 -54.29, -65.07 -40.24, -65.07 -32.57 C-65.07 -24.9, -65.4 -22.56, -65.07 -18.87 C-64.74 -15.19, -64.29 -13.09, -63.09 -10.47 C-61.9 -7.85, -60.14 -4.81, -57.91 -3.16 C-55.67 -1.51, -55.2 -1, -49.67 -0.57 C-44.13 -0.14, -32.95 -0.67, -24.68 -0.57 C-16.4 -0.48, -4.11 -0.1, 0 0 M0 0 C16.67 0, 59.65 0, 100 0 C140.35 0, 196.9 0, 242.09 0 C287.28 0, 322.5 0, 371.12 0 C419.74 0, 501.52 0, 533.81 0 C566.11 0, 556.57 0.02, 564.9 0 C573.22 -0.02, 579.15 0.16, 583.78 -0.12 C588.41 -0.4, 589.99 -0.41, 592.68 -1.68 C595.36 -2.95, 598.13 -5.09, 599.88 -7.74 C601.63 -10.39, 602.56 -13.47, 603.18 -17.58 C603.8 -21.69, 603.52 -24.22, 603.59 -32.4 C603.66 -40.58, 603.59 -55.17, 603.59 -66.67 C603.59 -78.18, 603.68 -93.46, 603.59 -101.44 C603.5 -109.41, 603.49 -111.28, 603.05 -114.53 C602.62 -117.78, 602.22 -118.99, 600.97 -120.93 C599.72 -122.87, 597.63 -124.83, 595.57 -126.16 C593.5 -127.49, 591.75 -128.33, 588.57 -128.91 C585.4 -129.49, 583.22 -129.51, 576.52 -129.63 C569.83 -129.75, 566.21 -129.63, 548.4 -129.63 C530.6 -129.63, 498.56 -129.63, 469.72 -129.63 C440.88 -129.63, 406.58 -129.63, 375.36 -129.63 C344.15 -129.63, 314.52 -129.63, 282.43 -129.63 C250.35 -129.63, 219.67 -129.63, 182.84 -129.63 C146 -129.63, 95.84 -129.63, 61.41 -129.63 C26.99 -129.63, -5.77 -129.63, -23.73 -129.63 C-41.69 -129.63, -41.15 -129.88, -46.34 -129.63 C-51.54 -129.38, -52.46 -129.05, -54.91 -128.13 C-57.35 -127.21, -59.45 -126.04, -61.03 -124.1 C-62.6 -122.15, -63.7 -121.12, -64.37 -116.48 C-65.05 -111.84, -64.95 -104.85, -65.07 -96.25 C-65.18 -87.66, -65.07 -75.51, -65.07 -64.9 C-65.07 -54.29, -65.07 -40.24, -65.07 -32.57 C-65.07 -24.9, -65.4 -22.56, -65.07 -18.87 C-64.74 -15.19, -64.29 -13.09, -63.09 -10.47 C-61.9 -7.85, -60.14 -4.81, -57.91 -3.16 C-55.67 -1.51, -55.2 -1, -49.67 -0.57 C-44.13 -0.14, -32.95 -0.67, -24.68 -0.57 C-16.4 -0.48, -4.11 -0.1, 0 0" stroke="#E1E1E1" stroke-width="4" fill="none"></path></g></g><mask></mask><g stroke-linecap="round" transform="translate(483.7839387870928 84.72113507073118) rotate(0 5.43159496798031 5.431594967980345)"><path d="M10.86 5.43 C10.86 5.75, 10.84 6.07, 10.78 6.37 C10.73 6.68, 10.64 6.99, 10.54 7.29 C10.43 7.58, 10.29 7.88, 10.14 8.15 C9.98 8.42, 9.79 8.68, 9.59 8.92 C9.39 9.16, 9.16 9.39, 8.92 9.59 C8.68 9.79, 8.42 9.98, 8.15 10.14 C7.88 10.29, 7.58 10.43, 7.29 10.54 C6.99 10.64, 6.68 10.73, 6.37 10.78 C6.07 10.84, 5.75 10.86, 5.43 10.86 C5.12 10.86, 4.8 10.84, 4.49 10.78 C4.18 10.73, 3.87 10.64, 3.57 10.54 C3.28 10.43, 2.99 10.29, 2.72 10.14 C2.44 9.98, 2.18 9.79, 1.94 9.59 C1.7 9.39, 1.47 9.16, 1.27 8.92 C1.07 8.68, 0.88 8.42, 0.73 8.15 C0.57 7.88, 0.44 7.58, 0.33 7.29 C0.22 6.99, 0.14 6.68, 0.08 6.37 C0.03 6.07, 0 5.75, 0 5.43 C0 5.12, 0.03 4.8, 0.08 4.49 C0.14 4.18, 0.22 3.87, 0.33 3.57 C0.44 3.28, 0.57 2.99, 0.73 2.72 C0.88 2.44, 1.07 2.18, 1.27 1.94 C1.47 1.7, 1.7 1.47, 1.94 1.27 C2.18 1.07, 2.44 0.88, 2.72 0.73 C2.99 0.57, 3.28 0.44, 3.57 0.33 C3.87 0.22, 4.18 0.14, 4.49 0.08 C4.8 0.03, 5.12 0, 5.43 0 C5.75 0, 6.07 0.03, 6.37 0.08 C6.68 0.14, 6.99 0.22, 7.29 0.33 C7.58 0.44, 7.88 0.57, 8.15 0.73 C8.42 0.88, 8.68 1.07, 8.92 1.27 C9.16 1.47, 9.39 1.7, 9.59 1.94 C9.79 2.18, 9.98 2.44, 10.14 2.72 C10.29 2.99, 10.43 3.28, 10.54 3.57 C10.64 3.87, 10.73 4.18, 10.78 4.49 C10.84 4.8, 10.85 5.27, 10.86 5.43 C10.88 5.59, 10.88 5.27, 10.86 5.43" stroke="#E1E1E1" stroke-width="4" fill="none"></path></g><g stroke-linecap="round" transform="translate(483.3632273501845 100.98402645928763) rotate(0 6.116012568389181 6.116012568389124)"><path d="M12.23 6.12 C12.23 6.47, 12.2 6.83, 12.14 7.18 C12.08 7.53, 11.98 7.88, 11.86 8.21 C11.74 8.54, 11.59 8.87, 11.41 9.17 C11.24 9.48, 11.03 9.78, 10.8 10.05 C10.57 10.32, 10.32 10.57, 10.05 10.8 C9.78 11.03, 9.48 11.24, 9.17 11.41 C8.87 11.59, 8.54 11.74, 8.21 11.86 C7.88 11.98, 7.53 12.08, 7.18 12.14 C6.83 12.2, 6.47 12.23, 6.12 12.23 C5.76 12.23, 5.4 12.2, 5.05 12.14 C4.71 12.08, 4.36 11.98, 4.02 11.86 C3.69 11.74, 3.36 11.59, 3.06 11.41 C2.75 11.24, 2.46 11.03, 2.18 10.8 C1.91 10.57, 1.66 10.32, 1.43 10.05 C1.2 9.78, 1 9.48, 0.82 9.17 C0.64 8.87, 0.49 8.54, 0.37 8.21 C0.25 7.88, 0.15 7.53, 0.09 7.18 C0.03 6.83, 0 6.47, 0 6.12 C0 5.76, 0.03 5.4, 0.09 5.05 C0.15 4.71, 0.25 4.36, 0.37 4.02 C0.49 3.69, 0.64 3.36, 0.82 3.06 C1 2.75, 1.2 2.46, 1.43 2.18 C1.66 1.91, 1.91 1.66, 2.18 1.43 C2.46 1.2, 2.75 1, 3.06 0.82 C3.36 0.64, 3.69 0.49, 4.02 0.37 C4.36 0.25, 4.71 0.15, 5.05 0.09 C5.4 0.03, 5.76 0, 6.12 0 C6.47 0, 6.83 0.03, 7.18 0.09 C7.53 0.15, 7.88 0.25, 8.21 0.37 C8.54 0.49, 8.87 0.64, 9.17 0.82 C9.48 1, 9.78 1.2, 10.05 1.43 C10.32 1.66, 10.57 1.91, 10.8 2.18 C11.03 2.46, 11.24 2.75, 11.41 3.06 C11.59 3.36, 11.74 3.69, 11.86 4.02 C11.98 4.36, 12.08 4.71, 12.14 5.05 C12.2 5.4, 12.22 5.94, 12.23 6.12 C12.25 6.29, 12.25 5.94, 12.23 6.12" stroke="#E1E1E1" stroke-width="4" fill="none"></path></g><g stroke-linecap="round"><g transform="translate(481.0441134182015 98.10865365001382) rotate(0 8.48065813806378 10.637995857740407)"><path d="M0 0 C-0.4 0.43, -1.8 1.53, -2.41 2.57 C-3.01 3.61, -3.39 4.73, -3.62 6.25 C-3.85 7.77, -3.98 10.03, -3.79 11.69 C-3.6 13.36, -3.19 14.97, -2.46 16.26 C-1.73 17.55, -0.65 18.58, 0.59 19.44 C1.84 20.29, 3.54 20.99, 5 21.4 C6.46 21.81, 7.85 21.96, 9.34 21.91 C10.84 21.86, 12.56 21.73, 13.97 21.1 C15.38 20.48, 16.82 19.28, 17.81 18.15 C18.8 17.03, 19.42 15.86, 19.91 14.36 C20.4 12.86, 20.73 10.86, 20.75 9.16 C20.77 7.47, 20.48 5.59, 20.05 4.21 C19.62 2.83, 18.65 1.69, 18.17 0.89 C17.69 0.08, 17.33 -0.38, 17.16 -0.64 M0 0 C-0.4 0.43, -1.8 1.53, -2.41 2.57 C-3.01 3.61, -3.39 4.73, -3.62 6.25 C-3.85 7.77, -3.98 10.03, -3.79 11.69 C-3.6 13.36, -3.19 14.97, -2.46 16.26 C-1.73 17.55, -0.65 18.58, 0.59 19.44 C1.84 20.29, 3.54 20.99, 5 21.4 C6.46 21.81, 7.85 21.96, 9.34 21.91 C10.84 21.86, 12.56 21.73, 13.97 21.1 C15.38 20.48, 16.82 19.28, 17.81 18.15 C18.8 17.03, 19.42 15.86, 19.91 14.36 C20.4 12.86, 20.73 10.86, 20.75 9.16 C20.77 7.47, 20.48 5.59, 20.05 4.21 C19.62 2.83, 18.65 1.69, 18.17 0.89 C17.69 0.08, 17.33 -0.38, 17.16 -0.64" stroke="#E1E1E1" stroke-width="4" fill="none"></path></g></g><mask></mask><g stroke-linecap="round"><g transform="translate(498.20670363601107 97.47250731613258) rotate(0 -8.998496769607371 -9.242008069500798)"><path d="M0 0 C0.31 -0.44, 1.44 -1.54, 1.88 -2.61 C2.31 -3.68, 2.55 -5.06, 2.64 -6.43 C2.72 -7.8, 2.82 -9.33, 2.37 -10.82 C1.92 -12.31, 0.89 -14.14, -0.08 -15.36 C-1.04 -16.58, -2.3 -17.52, -3.43 -18.15 C-4.55 -18.79, -5.53 -18.99, -6.81 -19.16 C-8.1 -19.33, -9.84 -19.34, -11.14 -19.2 C-12.44 -19.07, -13.48 -18.97, -14.6 -18.35 C-15.73 -17.73, -16.99 -16.6, -17.9 -15.5 C-18.82 -14.4, -19.63 -13.02, -20.08 -11.74 C-20.54 -10.46, -20.72 -9.14, -20.63 -7.82 C-20.54 -6.5, -20.12 -5.26, -19.56 -3.84 C-18.99 -2.42, -17.63 -0.04, -17.24 0.72 M0 0 C0.31 -0.44, 1.44 -1.54, 1.88 -2.61 C2.31 -3.68, 2.55 -5.06, 2.64 -6.43 C2.72 -7.8, 2.82 -9.33, 2.37 -10.82 C1.92 -12.31, 0.89 -14.14, -0.08 -15.36 C-1.04 -16.58, -2.3 -17.52, -3.43 -18.15 C-4.55 -18.79, -5.53 -18.99, -6.81 -19.16 C-8.1 -19.33, -9.84 -19.34, -11.14 -19.2 C-12.44 -19.07, -13.48 -18.97, -14.6 -18.35 C-15.73 -17.73, -16.99 -16.6, -17.9 -15.5 C-18.82 -14.4, -19.63 -13.02, -20.08 -11.74 C-20.54 -10.46, -20.72 -9.14, -20.63 -7.82 C-20.54 -6.5, -20.12 -5.26, -19.56 -3.84 C-18.99 -2.42, -17.63 -0.04, -17.24 0.72" stroke="#E1E1E1" stroke-width="4" fill="none"></path></g></g><mask></mask><g stroke-linecap="round"><g transform="translate(736.8684097620455 103.14988154315051) rotate(0 0 0)"><path d="M0 0 C0 0, 0 0, 0 0 M0 0 C0 0, 0 0, 0 0" stroke="#E1E1E1" stroke-width="4" fill="none"></path></g><g transform="translate(736.8684097620455 103.14988154315051) rotate(0 0 0)"><path d="MNaN NaN CNaN NaN, NaN NaN, 0 0 MNaN NaN CNaN NaN, NaN NaN, 0 0" stroke="#E1E1E1" stroke-width="4" fill="none"></path></g><g transform="translate(736.8684097620455 103.14988154315051) rotate(0 0 0)"><path d="MNaN NaN CNaN NaN, NaN NaN, 0 0 MNaN NaN CNaN NaN, NaN NaN, 0 0" stroke="#E1E1E1" stroke-width="4" fill="none"></path></g></g><mask></mask><g stroke-linecap="round"><g transform="translate(578.5118942713855 76.73917853621424) rotate(0 -8.316449633179753 21.775728622076713)"><path d="M0 0 C-2.77 7.26, -13.86 36.29, -16.63 43.55 M0 0 C-2.77 7.26, -13.86 36.29, -16.63 43.55" stroke="#E1E1E1" stroke-width="4" fill="none"></path></g></g><mask></mask><g stroke-linecap="round"><g transform="translate(578.4437973061056 76.68444236791993) rotate(0 3.904800667320128 0)"><path d="M0 0 C1.3 0, 6.51 0, 7.81 0 M0 0 C1.3 0, 6.51 0, 7.81 0" stroke="#E1E1E1" stroke-width="4" fill="none"></path></g></g><mask></mask><g stroke-linecap="round"><g transform="translate(586.253398640746 76.68444236791993) rotate(0 -7.89601552159358 21.775944118802272)"><path d="M0 0 C-2.63 7.26, -13.16 36.29, -15.79 43.55 M0 0 C-2.63 7.26, -13.16 36.29, -15.79 43.55" stroke="#E1E1E1" stroke-width="4" fill="none"></path></g></g><mask></mask><g stroke-linecap="round"><g transform="translate(570.4613675975588 120.23633060552402) rotate(0 -4.390530286753851 0.16765645249301997)"><path d="M0 0 C-1.46 0.06, -7.32 0.28, -8.78 0.34 M0 0 C-1.46 0.06, -7.32 0.28, -8.78 0.34" stroke="#E1E1E1" stroke-width="4" fill="none"></path></g></g><mask></mask><g stroke-linecap="round"><g transform="translate(594.6504440492887 87.51185984743597) rotate(0 -2.7197841734131827 1.5431720518035945)"><path d="M0 0 C-0.91 0.51, -4.53 2.57, -5.44 3.09 M0 0 C-0.91 0.51, -4.53 2.57, -5.44 3.09" stroke="#E1E1E1" stroke-width="4" fill="none"></path></g></g><mask></mask><g stroke-linecap="round"><g transform="translate(589.2108757024623 90.5982039510427) rotate(0 -1.0014132837216623 -3.129443448720849)"><path d="M0 0 C-0.33 -1.04, -1.67 -5.22, -2 -6.26 M0 0 C-0.33 -1.04, -1.67 -5.22, -2 -6.26" stroke="#E1E1E1" stroke-width="4" fill="none"></path></g></g><mask></mask><g stroke-linecap="round"><g transform="translate(587.2080491350189 84.33931705360055) rotate(0 4.784242804369401 -2.0293326646883543)"><path d="M0 0 C1.59 -0.68, 7.97 -3.38, 9.57 -4.06 M0 0 C1.59 -0.68, 7.97 -3.38, 9.57 -4.06" stroke="#E1E1E1" stroke-width="4" fill="none"></path></g></g><mask></mask><g stroke-linecap="round"><g transform="translate(596.7765347437578 80.28065172422475) rotate(0 2.925152552880972 -0.013576293710912068)"><path d="M0 0 C0.98 0, 4.88 -0.02, 5.85 -0.03 M0 0 C0.98 0, 4.88 -0.02, 5.85 -0.03" stroke="#E1E1E1" stroke-width="4" fill="none"></path></g></g><mask></mask><g stroke-linecap="round"><g transform="translate(602.6406316399563 80.26729092723872) rotate(0 -0.1374098178968115 20.545085966529996)"><path d="M0 0 C-0.05 6.85, -0.23 34.24, -0.27 41.09 M0 0 C-0.05 6.85, -0.23 34.24, -0.27 41.09" stroke="#E1E1E1" stroke-width="4" fill="none"></path></g></g><mask></mask><g stroke-linecap="round"><g transform="translate(602.2547688439937 121.27194784673884) rotate(0 -3.699216791126762 -0.013576293710912068)"><path d="M0 0 C-1.23 0, -6.17 -0.02, -7.4 -0.03 M0 0 C-1.23 0, -6.17 -0.02, -7.4 -0.03" stroke="#E1E1E1" stroke-width="4" fill="none"></path></g></g><mask></mask><g stroke-linecap="round"><g transform="translate(594.5616593983541 121.35475861122995) rotate(0 0.18899062832449243 -16.889555866512865)"><path d="M0 0 C0.06 -5.63, 0.31 -28.15, 0.38 -33.78 M0 0 C0.06 -5.63, 0.31 -28.15, 0.38 -33.78" stroke="#E1E1E1" stroke-width="4" fill="none"></path></g></g><mask></mask><g stroke-linecap="round"><g transform="translate(134.47045422364738 187.3801206866301) rotate(0 233.18752290762075 -88.37815846222816)"><path d="M0 0 C20.6 0, 71.51 0, 123.59 0 C175.67 0, 257.28 0, 312.49 0 C367.69 0, 421.26 0, 454.83 0 C488.39 0, 498.81 0, 513.9 0 C528.99 0, 537.56 0.16, 545.36 0 C553.16 -0.16, 555.76 0.41, 560.7 -0.96 C565.63 -2.34, 571.17 -5.33, 574.98 -8.24 C578.79 -11.15, 581.15 -14.54, 583.55 -18.43 C585.96 -22.32, 588.19 -26.32, 589.39 -31.58 C590.58 -36.84, 590.5 -40.12, 590.73 -49.97 C590.95 -59.83, 590.73 -78.45, 590.73 -90.73 C590.73 -103, 590.73 -115.08, 590.73 -123.61 C590.73 -132.14, 591.4 -136.7, 590.73 -141.93 C590.05 -147.16, 588.96 -150.65, 586.65 -154.99 C584.35 -159.34, 580.77 -164.61, 576.9 -168.02 C573.02 -171.43, 568.9 -173.98, 563.39 -175.46 C557.88 -176.95, 552.53 -176.68, 543.85 -176.92 C535.16 -177.16, 539.29 -176.92, 511.27 -176.92 C483.25 -176.92, 421.32 -176.92, 375.72 -176.92 C330.13 -176.92, 279.41 -176.92, 237.71 -176.92 C196.01 -176.92, 162.94 -176.92, 125.52 -176.92 C88.09 -176.92, 47.94 -176.92, 13.14 -176.92 C-21.65 -176.92, -63.3 -177.96, -83.24 -176.92 C-103.18 -175.88, -100.86 -173.35, -106.51 -170.7 C-112.16 -168.05, -114.38 -165.06, -117.13 -161.04 C-119.87 -157.02, -121.78 -152.64, -122.98 -146.56 C-124.19 -140.47, -124.12 -137.94, -124.35 -124.52 C-124.58 -111.11, -124.35 -78.8, -124.35 -66.09 C-124.35 -53.38, -124.62 -54.17, -124.35 -48.28 C-124.08 -42.39, -124.18 -36.24, -122.74 -30.73 C-121.3 -25.22, -119.06 -19.74, -115.7 -15.22 C-112.34 -10.71, -107.62 -6.22, -102.57 -3.65 C-97.53 -1.09, -94.16 -0.47, -85.43 0.16 C-76.7 0.8, -64.44 0.19, -50.2 0.16 C-35.96 0.14, -8.37 0.03, 0 0 M0 0 C20.6 0, 71.51 0, 123.59 0 C175.67 0, 257.28 0, 312.49 0 C367.69 0, 421.26 0, 454.83 0 C488.39 0, 498.81 0, 513.9 0 C528.99 0, 537.56 0.16, 545.36 0 C553.16 -0.16, 555.76 0.41, 560.7 -0.96 C565.63 -2.34, 571.17 -5.33, 574.98 -8.24 C578.79 -11.15, 581.15 -14.54, 583.55 -18.43 C585.96 -22.32, 588.19 -26.32, 589.39 -31.58 C590.58 -36.84, 590.5 -40.12, 590.73 -49.97 C590.95 -59.83, 590.73 -78.45, 590.73 -90.73 C590.73 -103, 590.73 -115.08, 590.73 -123.61 C590.73 -132.14, 591.4 -136.7, 590.73 -141.93 C590.05 -147.16, 588.96 -150.65, 586.65 -154.99 C584.35 -159.34, 580.77 -164.61, 576.9 -168.02 C573.02 -171.43, 568.9 -173.98, 563.39 -175.46 C557.88 -176.95, 552.53 -176.68, 543.85 -176.92 C535.16 -177.16, 539.29 -176.92, 511.27 -176.92 C483.25 -176.92, 421.32 -176.92, 375.72 -176.92 C330.13 -176.92, 279.41 -176.92, 237.71 -176.92 C196.01 -176.92, 162.94 -176.92, 125.52 -176.92 C88.09 -176.92, 47.94 -176.92, 13.14 -176.92 C-21.65 -176.92, -63.3 -177.96, -83.24 -176.92 C-103.18 -175.88, -100.86 -173.35, -106.51 -170.7 C-112.16 -168.05, -114.38 -165.06, -117.13 -161.04 C-119.87 -157.02, -121.78 -152.64, -122.98 -146.56 C-124.19 -140.47, -124.12 -137.94, -124.35 -124.52 C-124.58 -111.11, -124.35 -78.8, -124.35 -66.09 C-124.35 -53.38, -124.62 -54.17, -124.35 -48.28 C-124.08 -42.39, -124.18 -36.24, -122.74 -30.73 C-121.3 -25.22, -119.06 -19.74, -115.7 -15.22 C-112.34 -10.71, -107.62 -6.22, -102.57 -3.65 C-97.53 -1.09, -94.16 -0.47, -85.43 0.16 C-76.7 0.8, -64.44 0.19, -50.2 0.16 C-35.96 0.14, -8.37 0.03, 0 0" stroke="#E1E1E1" stroke-width="4" fill="none"></path></g></g><mask></mask><g stroke-linecap="round" transform="translate(513.439227306844 84.63668084845222) rotate(0 5.43159496798031 5.431594967980345)"><path d="M10.86 5.43 C10.86 5.75, 10.84 6.07, 10.78 6.37 C10.73 6.68, 10.64 6.99, 10.54 7.29 C10.43 7.58, 10.29 7.88, 10.14 8.15 C9.98 8.42, 9.79 8.68, 9.59 8.92 C9.39 9.16, 9.16 9.39, 8.92 9.59 C8.68 9.79, 8.42 9.98, 8.15 10.14 C7.88 10.29, 7.58 10.43, 7.29 10.54 C6.99 10.64, 6.68 10.73, 6.37 10.78 C6.07 10.84, 5.75 10.86, 5.43 10.86 C5.12 10.86, 4.8 10.84, 4.49 10.78 C4.18 10.73, 3.87 10.64, 3.57 10.54 C3.28 10.43, 2.99 10.29, 2.72 10.14 C2.44 9.98, 2.18 9.79, 1.94 9.59 C1.7 9.39, 1.47 9.16, 1.27 8.92 C1.07 8.68, 0.88 8.42, 0.73 8.15 C0.57 7.88, 0.44 7.58, 0.33 7.29 C0.22 6.99, 0.14 6.68, 0.08 6.37 C0.03 6.07, 0 5.75, 0 5.43 C0 5.12, 0.03 4.8, 0.08 4.49 C0.14 4.18, 0.22 3.87, 0.33 3.57 C0.44 3.28, 0.57 2.99, 0.73 2.72 C0.88 2.44, 1.07 2.18, 1.27 1.94 C1.47 1.7, 1.7 1.47, 1.94 1.27 C2.18 1.07, 2.44 0.88, 2.72 0.73 C2.99 0.57, 3.28 0.44, 3.57 0.33 C3.87 0.22, 4.18 0.14, 4.49 0.08 C4.8 0.03, 5.12 0, 5.43 0 C5.75 0, 6.07 0.03, 6.37 0.08 C6.68 0.14, 6.99 0.22, 7.29 0.33 C7.58 0.44, 7.88 0.57, 8.15 0.73 C8.42 0.88, 8.68 1.07, 8.92 1.27 C9.16 1.47, 9.39 1.7, 9.59 1.94 C9.79 2.18, 9.98 2.44, 10.14 2.72 C10.29 2.99, 10.43 3.28, 10.54 3.57 C10.64 3.87, 10.73 4.18, 10.78 4.49 C10.84 4.8, 10.85 5.27, 10.86 5.43 C10.88 5.59, 10.88 5.27, 10.86 5.43" stroke="#E1E1E1" stroke-width="4" fill="none"></path></g><g stroke-linecap="round" transform="translate(513.0185158699358 100.89957223700867) rotate(0 6.116012568389181 6.116012568389124)"><path d="M12.23 6.12 C12.23 6.47, 12.2 6.83, 12.14 7.18 C12.08 7.53, 11.98 7.88, 11.86 8.21 C11.74 8.54, 11.59 8.87, 11.41 9.17 C11.24 9.48, 11.03 9.78, 10.8 10.05 C10.57 10.32, 10.32 10.57, 10.05 10.8 C9.78 11.03, 9.48 11.24, 9.17 11.41 C8.87 11.59, 8.54 11.74, 8.21 11.86 C7.88 11.98, 7.53 12.08, 7.18 12.14 C6.83 12.2, 6.47 12.23, 6.12 12.23 C5.76 12.23, 5.4 12.2, 5.05 12.14 C4.71 12.08, 4.36 11.98, 4.02 11.86 C3.69 11.74, 3.36 11.59, 3.06 11.41 C2.75 11.24, 2.46 11.03, 2.18 10.8 C1.91 10.57, 1.66 10.32, 1.43 10.05 C1.2 9.78, 1 9.48, 0.82 9.17 C0.64 8.87, 0.49 8.54, 0.37 8.21 C0.25 7.88, 0.15 7.53, 0.09 7.18 C0.03 6.83, 0 6.47, 0 6.12 C0 5.76, 0.03 5.4, 0.09 5.05 C0.15 4.71, 0.25 4.36, 0.37 4.02 C0.49 3.69, 0.64 3.36, 0.82 3.06 C1 2.75, 1.2 2.46, 1.43 2.18 C1.66 1.91, 1.91 1.66, 2.18 1.43 C2.46 1.2, 2.75 1, 3.06 0.82 C3.36 0.64, 3.69 0.49, 4.02 0.37 C4.36 0.25, 4.71 0.15, 5.05 0.09 C5.4 0.03, 5.76 0, 6.12 0 C6.47 0, 6.83 0.03, 7.18 0.09 C7.53 0.15, 7.88 0.25, 8.21 0.37 C8.54 0.49, 8.87 0.64, 9.17 0.82 C9.48 1, 9.78 1.2, 10.05 1.43 C10.32 1.66, 10.57 1.91, 10.8 2.18 C11.03 2.46, 11.24 2.75, 11.41 3.06 C11.59 3.36, 11.74 3.69, 11.86 4.02 C11.98 4.36, 12.08 4.71, 12.14 5.05 C12.2 5.4, 12.22 5.94, 12.23 6.12 C12.25 6.29, 12.25 5.94, 12.23 6.12" stroke="#E1E1E1" stroke-width="4" fill="none"></path></g><g stroke-linecap="round"><g transform="translate(510.69940193795276 98.02419942773531) rotate(0 8.48065813806378 10.637995857740407)"><path d="M0 0 C-0.4 0.43, -1.8 1.53, -2.41 2.57 C-3.01 3.61, -3.39 4.73, -3.62 6.25 C-3.85 7.77, -3.98 10.03, -3.79 11.69 C-3.6 13.36, -3.19 14.97, -2.46 16.26 C-1.73 17.55, -0.65 18.58, 0.59 19.44 C1.84 20.29, 3.54 20.99, 5 21.4 C6.46 21.81, 7.85 21.96, 9.34 21.91 C10.84 21.86, 12.56 21.73, 13.97 21.1 C15.38 20.48, 16.82 19.28, 17.81 18.15 C18.8 17.03, 19.42 15.86, 19.91 14.36 C20.4 12.86, 20.73 10.86, 20.75 9.16 C20.77 7.47, 20.48 5.59, 20.05 4.21 C19.62 2.83, 18.65 1.69, 18.17 0.89 C17.69 0.08, 17.33 -0.38, 17.16 -0.64 M0 0 C-0.4 0.43, -1.8 1.53, -2.41 2.57 C-3.01 3.61, -3.39 4.73, -3.62 6.25 C-3.85 7.77, -3.98 10.03, -3.79 11.69 C-3.6 13.36, -3.19 14.97, -2.46 16.26 C-1.73 17.55, -0.65 18.58, 0.59 19.44 C1.84 20.29, 3.54 20.99, 5 21.4 C6.46 21.81, 7.85 21.96, 9.34 21.91 C10.84 21.86, 12.56 21.73, 13.97 21.1 C15.38 20.48, 16.82 19.28, 17.81 18.15 C18.8 17.03, 19.42 15.86, 19.91 14.36 C20.4 12.86, 20.73 10.86, 20.75 9.16 C20.77 7.47, 20.48 5.59, 20.05 4.21 C19.62 2.83, 18.65 1.69, 18.17 0.89 C17.69 0.08, 17.33 -0.38, 17.16 -0.64" stroke="#E1E1E1" stroke-width="4" fill="none"></path></g></g><mask></mask><g stroke-linecap="round"><g transform="translate(527.8619921557623 97.38805309385452) rotate(0 -8.998496769607375 -9.242008069500798)"><path d="M0 0 C0.31 -0.44, 1.44 -1.54, 1.88 -2.61 C2.31 -3.68, 2.55 -5.06, 2.64 -6.43 C2.72 -7.8, 2.82 -9.33, 2.37 -10.82 C1.92 -12.31, 0.89 -14.14, -0.08 -15.36 C-1.04 -16.58, -2.3 -17.52, -3.43 -18.15 C-4.55 -18.79, -5.53 -18.99, -6.81 -19.16 C-8.1 -19.33, -9.84 -19.34, -11.14 -19.2 C-12.44 -19.07, -13.48 -18.97, -14.6 -18.35 C-15.73 -17.73, -16.99 -16.6, -17.9 -15.5 C-18.82 -14.4, -19.63 -13.02, -20.08 -11.74 C-20.54 -10.46, -20.72 -9.14, -20.63 -7.82 C-20.54 -6.5, -20.12 -5.26, -19.56 -3.84 C-18.99 -2.42, -17.63 -0.04, -17.24 0.72 M0 0 C0.31 -0.44, 1.44 -1.54, 1.88 -2.61 C2.31 -3.68, 2.55 -5.06, 2.64 -6.43 C2.72 -7.8, 2.82 -9.33, 2.37 -10.82 C1.92 -12.31, 0.89 -14.14, -0.08 -15.36 C-1.04 -16.58, -2.3 -17.52, -3.43 -18.15 C-4.55 -18.79, -5.53 -18.99, -6.81 -19.16 C-8.1 -19.33, -9.84 -19.34, -11.14 -19.2 C-12.44 -19.07, -13.48 -18.97, -14.6 -18.35 C-15.73 -17.73, -16.99 -16.6, -17.9 -15.5 C-18.82 -14.4, -19.63 -13.02, -20.08 -11.74 C-20.54 -10.46, -20.72 -9.14, -20.63 -7.82 C-20.54 -6.5, -20.12 -5.26, -19.56 -3.84 C-18.99 -2.42, -17.63 -0.04, -17.24 0.72" stroke="#E1E1E1" stroke-width="4" fill="none"></path></g></g><mask></mask><g stroke-linecap="round" transform="translate(543.1755775252916 85.03295323476277) rotate(0 5.43159496798031 5.431594967980345)"><path d="M10.86 5.43 C10.86 5.75, 10.84 6.07, 10.78 6.37 C10.73 6.68, 10.64 6.99, 10.54 7.29 C10.43 7.58, 10.29 7.88, 10.14 8.15 C9.98 8.42, 9.79 8.68, 9.59 8.92 C9.39 9.16, 9.16 9.39, 8.92 9.59 C8.68 9.79, 8.42 9.98, 8.15 10.14 C7.88 10.29, 7.58 10.43, 7.29 10.54 C6.99 10.64, 6.68 10.73, 6.37 10.78 C6.07 10.84, 5.75 10.86, 5.43 10.86 C5.12 10.86, 4.8 10.84, 4.49 10.78 C4.18 10.73, 3.87 10.64, 3.57 10.54 C3.28 10.43, 2.99 10.29, 2.72 10.14 C2.44 9.98, 2.18 9.79, 1.94 9.59 C1.7 9.39, 1.47 9.16, 1.27 8.92 C1.07 8.68, 0.88 8.42, 0.73 8.15 C0.57 7.88, 0.44 7.58, 0.33 7.29 C0.22 6.99, 0.14 6.68, 0.08 6.37 C0.03 6.07, 0 5.75, 0 5.43 C0 5.12, 0.03 4.8, 0.08 4.49 C0.14 4.18, 0.22 3.87, 0.33 3.57 C0.44 3.28, 0.57 2.99, 0.73 2.72 C0.88 2.44, 1.07 2.18, 1.27 1.94 C1.47 1.7, 1.7 1.47, 1.94 1.27 C2.18 1.07, 2.44 0.88, 2.72 0.73 C2.99 0.57, 3.28 0.44, 3.57 0.33 C3.87 0.22, 4.18 0.14, 4.49 0.08 C4.8 0.03, 5.12 0, 5.43 0 C5.75 0, 6.07 0.03, 6.37 0.08 C6.68 0.14, 6.99 0.22, 7.29 0.33 C7.58 0.44, 7.88 0.57, 8.15 0.73 C8.42 0.88, 8.68 1.07, 8.92 1.27 C9.16 1.47, 9.39 1.7, 9.59 1.94 C9.79 2.18, 9.98 2.44, 10.14 2.72 C10.29 2.99, 10.43 3.28, 10.54 3.57 C10.64 3.87, 10.73 4.18, 10.78 4.49 C10.84 4.8, 10.85 5.27, 10.86 5.43 C10.88 5.59, 10.88 5.27, 10.86 5.43" stroke="#E1E1E1" stroke-width="4" fill="none"></path></g><g stroke-linecap="round" transform="translate(542.7548660883833 101.29584462331923) rotate(0 6.116012568389181 6.116012568389124)"><path d="M12.23 6.12 C12.23 6.47, 12.2 6.83, 12.14 7.18 C12.08 7.53, 11.98 7.88, 11.86 8.21 C11.74 8.54, 11.59 8.87, 11.41 9.17 C11.24 9.48, 11.03 9.78, 10.8 10.05 C10.57 10.32, 10.32 10.57, 10.05 10.8 C9.78 11.03, 9.48 11.24, 9.17 11.41 C8.87 11.59, 8.54 11.74, 8.21 11.86 C7.88 11.98, 7.53 12.08, 7.18 12.14 C6.83 12.2, 6.47 12.23, 6.12 12.23 C5.76 12.23, 5.4 12.2, 5.05 12.14 C4.71 12.08, 4.36 11.98, 4.02 11.86 C3.69 11.74, 3.36 11.59, 3.06 11.41 C2.75 11.24, 2.46 11.03, 2.18 10.8 C1.91 10.57, 1.66 10.32, 1.43 10.05 C1.2 9.78, 1 9.48, 0.82 9.17 C0.64 8.87, 0.49 8.54, 0.37 8.21 C0.25 7.88, 0.15 7.53, 0.09 7.18 C0.03 6.83, 0 6.47, 0 6.12 C0 5.76, 0.03 5.4, 0.09 5.05 C0.15 4.71, 0.25 4.36, 0.37 4.02 C0.49 3.69, 0.64 3.36, 0.82 3.06 C1 2.75, 1.2 2.46, 1.43 2.18 C1.66 1.91, 1.91 1.66, 2.18 1.43 C2.46 1.2, 2.75 1, 3.06 0.82 C3.36 0.64, 3.69 0.49, 4.02 0.37 C4.36 0.25, 4.71 0.15, 5.05 0.09 C5.4 0.03, 5.76 0, 6.12 0 C6.47 0, 6.83 0.03, 7.18 0.09 C7.53 0.15, 7.88 0.25, 8.21 0.37 C8.54 0.49, 8.87 0.64, 9.17 0.82 C9.48 1, 9.78 1.2, 10.05 1.43 C10.32 1.66, 10.57 1.91, 10.8 2.18 C11.03 2.46, 11.24 2.75, 11.41 3.06 C11.59 3.36, 11.74 3.69, 11.86 4.02 C11.98 4.36, 12.08 4.71, 12.14 5.05 C12.2 5.4, 12.22 5.94, 12.23 6.12 C12.25 6.29, 12.25 5.94, 12.23 6.12" stroke="#E1E1E1" stroke-width="4" fill="none"></path></g><g stroke-linecap="round"><g transform="translate(540.4357521564002 98.42047181404587) rotate(0 8.480658138063783 10.637995857740407)"><path d="M0 0 C-0.4 0.43, -1.8 1.53, -2.41 2.57 C-3.01 3.61, -3.39 4.73, -3.62 6.25 C-3.85 7.77, -3.98 10.03, -3.79 11.69 C-3.6 13.36, -3.19 14.97, -2.46 16.26 C-1.73 17.55, -0.65 18.58, 0.59 19.44 C1.84 20.29, 3.54 20.99, 5 21.4 C6.46 21.81, 7.85 21.96, 9.34 21.91 C10.84 21.86, 12.56 21.73, 13.97 21.1 C15.38 20.48, 16.82 19.28, 17.81 18.15 C18.8 17.03, 19.42 15.86, 19.91 14.36 C20.4 12.86, 20.73 10.86, 20.75 9.16 C20.77 7.47, 20.48 5.59, 20.05 4.21 C19.62 2.83, 18.65 1.69, 18.17 0.89 C17.69 0.08, 17.33 -0.38, 17.16 -0.64 M0 0 C-0.4 0.43, -1.8 1.53, -2.41 2.57 C-3.01 3.61, -3.39 4.73, -3.62 6.25 C-3.85 7.77, -3.98 10.03, -3.79 11.69 C-3.6 13.36, -3.19 14.97, -2.46 16.26 C-1.73 17.55, -0.65 18.58, 0.59 19.44 C1.84 20.29, 3.54 20.99, 5 21.4 C6.46 21.81, 7.85 21.96, 9.34 21.91 C10.84 21.86, 12.56 21.73, 13.97 21.1 C15.38 20.48, 16.82 19.28, 17.81 18.15 C18.8 17.03, 19.42 15.86, 19.91 14.36 C20.4 12.86, 20.73 10.86, 20.75 9.16 C20.77 7.47, 20.48 5.59, 20.05 4.21 C19.62 2.83, 18.65 1.69, 18.17 0.89 C17.69 0.08, 17.33 -0.38, 17.16 -0.64" stroke="#E1E1E1" stroke-width="4" fill="none"></path></g></g><mask></mask><g stroke-linecap="round"><g transform="translate(557.5983423742099 97.78432548016508) rotate(0 -8.998496769607375 -9.242008069500798)"><path d="M0 0 C0.31 -0.44, 1.44 -1.54, 1.88 -2.61 C2.31 -3.68, 2.55 -5.06, 2.64 -6.43 C2.72 -7.8, 2.82 -9.33, 2.37 -10.82 C1.92 -12.31, 0.89 -14.14, -0.08 -15.36 C-1.04 -16.58, -2.3 -17.52, -3.43 -18.15 C-4.55 -18.79, -5.53 -18.99, -6.81 -19.16 C-8.1 -19.33, -9.84 -19.34, -11.14 -19.2 C-12.44 -19.07, -13.48 -18.97, -14.6 -18.35 C-15.73 -17.73, -16.99 -16.6, -17.9 -15.5 C-18.82 -14.4, -19.63 -13.02, -20.08 -11.74 C-20.54 -10.46, -20.72 -9.14, -20.63 -7.82 C-20.54 -6.5, -20.12 -5.26, -19.56 -3.84 C-18.99 -2.42, -17.63 -0.04, -17.24 0.72 M0 0 C0.31 -0.44, 1.44 -1.54, 1.88 -2.61 C2.31 -3.68, 2.55 -5.06, 2.64 -6.43 C2.72 -7.8, 2.82 -9.33, 2.37 -10.82 C1.92 -12.31, 0.89 -14.14, -0.08 -15.36 C-1.04 -16.58, -2.3 -17.52, -3.43 -18.15 C-4.55 -18.79, -5.53 -18.99, -6.81 -19.16 C-8.1 -19.33, -9.84 -19.34, -11.14 -19.2 C-12.44 -19.07, -13.48 -18.97, -14.6 -18.35 C-15.73 -17.73, -16.99 -16.6, -17.9 -15.5 C-18.82 -14.4, -19.63 -13.02, -20.08 -11.74 C-20.54 -10.46, -20.72 -9.14, -20.63 -7.82 C-20.54 -6.5, -20.12 -5.26, -19.56 -3.84 C-18.99 -2.42, -17.63 -0.04, -17.24 0.72" stroke="#E1E1E1" stroke-width="4" fill="none"></path></g></g><mask></mask><g stroke-linecap="round"><g transform="translate(618.1145693781937 87.43198052912612) rotate(0 -2.719784173413183 1.5431720518035945)"><path d="M0 0 C-0.91 0.51, -4.53 2.57, -5.44 3.09 M0 0 C-0.91 0.51, -4.53 2.57, -5.44 3.09" stroke="#E1E1E1" stroke-width="4" fill="none"></path></g></g><mask></mask><g stroke-linecap="round"><g transform="translate(612.6750010313673 90.51832463273331) rotate(0 -1.0014132837216625 -3.129443448720849)"><path d="M0 0 C-0.33 -1.04, -1.67 -5.22, -2 -6.26 M0 0 C-0.33 -1.04, -1.67 -5.22, -2 -6.26" stroke="#E1E1E1" stroke-width="4" fill="none"></path></g></g><mask></mask><g stroke-linecap="round"><g transform="translate(610.6721744639239 84.25943773529161) rotate(0 4.784242804369402 -2.0293326646883543)"><path d="M0 0 C1.59 -0.68, 7.97 -3.38, 9.57 -4.06 M0 0 C1.59 -0.68, 7.97 -3.38, 9.57 -4.06" stroke="#E1E1E1" stroke-width="4" fill="none"></path></g></g><mask></mask><g stroke-linecap="round"><g transform="translate(620.2406600726628 80.20077240591581) rotate(0 2.9251525528809736 -0.013576293710912068)"><path d="M0 0 C0.98 0, 4.88 -0.02, 5.85 -0.03 M0 0 C0.98 0, 4.88 -0.02, 5.85 -0.03" stroke="#E1E1E1" stroke-width="4" fill="none"></path></g></g><mask></mask><g stroke-linecap="round"><g transform="translate(626.1047569688612 80.18741160892932) rotate(0 -0.13740981789681328 20.545085966529996)"><path d="M0 0 C-0.05 6.85, -0.23 34.24, -0.27 41.09 M0 0 C-0.05 6.85, -0.23 34.24, -0.27 41.09" stroke="#E1E1E1" stroke-width="4" fill="none"></path></g></g><mask></mask><g stroke-linecap="round"><g transform="translate(625.7188941728987 121.19206852842944) rotate(0 -3.699216791126762 -0.013576293710912068)"><path d="M0 0 C-1.23 0, -6.17 -0.02, -7.4 -0.03 M0 0 C-1.23 0, -6.17 -0.02, -7.4 -0.03" stroke="#E1E1E1" stroke-width="4" fill="none"></path></g></g><mask></mask><g stroke-linecap="round"><g transform="translate(618.0257847272591 121.27487929292056) rotate(0 0.18899062832449331 -16.889555866512865)"><path d="M0 0 C0.06 -5.63, 0.31 -28.15, 0.38 -33.78 M0 0 C0.06 -5.63, 0.31 -28.15, 0.38 -33.78" stroke="#E1E1E1" stroke-width="4" fill="none"></path></g></g><mask></mask><g stroke-linecap="round"><g transform="translate(641.1480647185252 87.33154908440429) rotate(0 -2.7197841734131813 1.5431720518035945)"><path d="M0 0 C-0.91 0.51, -4.53 2.57, -5.44 3.09 M0 0 C-0.91 0.51, -4.53 2.57, -5.44 3.09" stroke="#E1E1E1" stroke-width="4" fill="none"></path></g></g><mask></mask><g stroke-linecap="round"><g transform="translate(635.7084963716989 90.41789318801148) rotate(0 -1.0014132837216607 -3.129443448720849)"><path d="M0 0 C-0.33 -1.04, -1.67 -5.22, -2 -6.26 M0 0 C-0.33 -1.04, -1.67 -5.22, -2 -6.26" stroke="#E1E1E1" stroke-width="4" fill="none"></path></g></g><mask></mask><g stroke-linecap="round"><g transform="translate(633.7056698042554 84.15900629056978) rotate(0 4.784242804369402 -2.0293326646883543)"><path d="M0 0 C1.59 -0.68, 7.97 -3.38, 9.57 -4.06 M0 0 C1.59 -0.68, 7.97 -3.38, 9.57 -4.06" stroke="#E1E1E1" stroke-width="4" fill="none"></path></g></g><mask></mask><g stroke-linecap="round"><g transform="translate(643.2741554129943 80.10034096119398) rotate(0 2.9251525528809736 -0.013576293710912068)"><path d="M0 0 C0.98 0, 4.88 -0.02, 5.85 -0.03 M0 0 C0.98 0, 4.88 -0.02, 5.85 -0.03" stroke="#E1E1E1" stroke-width="4" fill="none"></path></g></g><mask></mask><g stroke-linecap="round"><g transform="translate(649.1382523091928 80.08698016420749) rotate(0 -0.13740981789680973 20.545085966529996)"><path d="M0 0 C-0.05 6.85, -0.23 34.24, -0.27 41.09 M0 0 C-0.05 6.85, -0.23 34.24, -0.27 41.09" stroke="#E1E1E1" stroke-width="4" fill="none"></path></g></g><mask></mask><g stroke-linecap="round"><g transform="translate(648.7523895132302 121.09163708370761) rotate(0 -3.699216791126762 -0.013576293710912068)"><path d="M0 0 C-1.23 0, -6.17 -0.02, -7.4 -0.03 M0 0 C-1.23 0, -6.17 -0.02, -7.4 -0.03" stroke="#E1E1E1" stroke-width="4" fill="none"></path></g></g><mask></mask><g stroke-linecap="round"><g transform="translate(641.0592800675906 121.17444784819872) rotate(0 0.18899062832449331 -16.889555866512865)"><path d="M0 0 C0.06 -5.63, 0.31 -28.15, 0.38 -33.78 M0 0 C0.06 -5.63, 0.31 -28.15, 0.38 -33.78" stroke="#E1E1E1" stroke-width="4" fill="none"></path></g></g><mask></mask><g stroke-linecap="round"><g transform="translate(663.8766136721566 87.87205285963364) rotate(0 -2.7197841734131813 1.5431720518035945)"><path d="M0 0 C-0.91 0.51, -4.53 2.57, -5.44 3.09 M0 0 C-0.91 0.51, -4.53 2.57, -5.44 3.09" stroke="#E1E1E1" stroke-width="4" fill="none"></path></g></g><mask></mask><g stroke-linecap="round"><g transform="translate(658.4370453253302 90.95839696324083) rotate(0 -1.0014132837216607 -3.129443448720849)"><path d="M0 0 C-0.33 -1.04, -1.67 -5.22, -2 -6.26 M0 0 C-0.33 -1.04, -1.67 -5.22, -2 -6.26" stroke="#E1E1E1" stroke-width="4" fill="none"></path></g></g><mask></mask><g stroke-linecap="round"><g transform="translate(656.4342187578868 84.69951006579913) rotate(0 4.7842428043693985 -2.0293326646883543)"><path d="M0 0 C1.59 -0.68, 7.97 -3.38, 9.57 -4.06 M0 0 C1.59 -0.68, 7.97 -3.38, 9.57 -4.06" stroke="#E1E1E1" stroke-width="4" fill="none"></path></g></g><mask></mask><g stroke-linecap="round"><g transform="translate(666.0027043666257 80.64084473642333) rotate(0 2.9251525528809736 -0.013576293710912068)"><path d="M0 0 C0.98 0, 4.88 -0.02, 5.85 -0.03 M0 0 C0.98 0, 4.88 -0.02, 5.85 -0.03" stroke="#E1E1E1" stroke-width="4" fill="none"></path></g></g><mask></mask><g stroke-linecap="round"><g transform="translate(671.8668012628242 80.62748393943684) rotate(0 -0.13740981789680973 20.545085966529996)"><path d="M0 0 C-0.05 6.85, -0.23 34.24, -0.27 41.09 M0 0 C-0.05 6.85, -0.23 34.24, -0.27 41.09" stroke="#E1E1E1" stroke-width="4" fill="none"></path></g></g><mask></mask><g stroke-linecap="round"><g transform="translate(671.4809384668616 121.63214085893696) rotate(0 -3.6992167911267586 -0.013576293710912068)"><path d="M0 0 C-1.23 0, -6.17 -0.02, -7.4 -0.03 M0 0 C-1.23 0, -6.17 -0.02, -7.4 -0.03" stroke="#E1E1E1" stroke-width="4" fill="none"></path></g></g><mask></mask><g stroke-linecap="round"><g transform="translate(663.787829021222 121.71495162342808) rotate(0 0.18899062832448976 -16.889555866512865)"><path d="M0 0 C0.06 -5.63, 0.31 -28.15, 0.38 -33.78 M0 0 C0.06 -5.63, 0.31 -28.15, 0.38 -33.78" stroke="#E1E1E1" stroke-width="4" fill="none"></path></g></g><mask></mask><g stroke-linecap="round"><g transform="translate(186.41113400101875 45.80183119314006) rotate(0 132.75390030952616 53.04334564439)" fill-rule="evenodd"><path d="M0 0 C0 0, 0 0, 0 0 M0 0 C0 0, 0 0, 0 0 M0.13 12.04 C2.88 8.88, 5.62 5.73, 10.63 -0.03 M0.13 12.04 C2.31 9.53, 4.49 7.03, 10.63 -0.03 M0.27 24.08 C6.8 16.56, 13.34 9.04, 21.26 -0.07 M0.27 24.08 C7.41 15.87, 14.55 7.66, 21.26 -0.07 M0.4 36.12 C12.59 22.1, 24.77 8.08, 31.89 -0.1 M0.4 36.12 C8.83 26.42, 17.27 16.72, 31.89 -0.1 M0.53 48.16 C16.19 30.15, 31.85 12.13, 42.52 -0.14 M0.53 48.16 C9.4 37.96, 18.28 27.75, 42.52 -0.14 M0.67 60.2 C15.85 42.73, 31.04 25.26, 53.15 -0.17 M0.67 60.2 C13.24 45.74, 25.82 31.27, 53.15 -0.17 M1.45 71.49 C24.7 44.75, 47.95 18, 63.78 -0.21 M1.45 71.49 C19.52 50.71, 37.58 29.93, 63.78 -0.21 M1.59 83.53 C27.68 53.51, 53.78 23.49, 74.41 -0.24 M1.59 83.53 C29.66 51.24, 57.73 18.94, 74.41 -0.24 M1.72 95.57 C31.64 61.15, 61.56 26.73, 85.04 -0.28 M1.72 95.57 C23.01 71.09, 44.29 46.6, 85.04 -0.28 M3.17 106.1 C35.47 68.94, 67.78 31.78, 95.67 -0.31 M3.17 106.1 C35.78 68.58, 68.4 31.06, 95.67 -0.31 M13.8 106.07 C36.4 80.07, 59.01 54.06, 106.3 -0.34 M13.8 106.07 C39 77.07, 64.21 48.08, 106.3 -0.34 M24.43 106.03 C59.85 65.28, 95.28 24.53, 116.93 -0.38 M24.43 106.03 C58.87 66.42, 93.3 26.8, 116.93 -0.38 M35.06 106 C54.26 83.91, 73.46 61.82, 127.56 -0.41 M35.06 106 C71.08 64.56, 107.11 23.12, 127.56 -0.41 M45.69 105.97 C77.7 69.14, 109.72 32.31, 138.19 -0.45 M45.69 105.97 C69.77 78.26, 93.86 50.55, 138.19 -0.45 M56.32 105.93 C83.43 74.74, 110.54 43.55, 148.82 -0.48 M56.32 105.93 C87.7 69.83, 119.09 33.72, 148.82 -0.48 M66.95 105.9 C93.66 75.16, 120.38 44.43, 158.8 0.24 M66.95 105.9 C86.87 82.98, 106.8 60.05, 158.8 0.24 M77.58 105.86 C96.95 83.58, 116.32 61.29, 169.43 0.2 M77.58 105.86 C108.75 70.01, 139.91 34.15, 169.43 0.2 M88.21 105.83 C109.8 80.99, 131.39 56.15, 180.06 0.17 M88.21 105.83 C109.02 81.89, 129.82 57.95, 180.06 0.17 M98.84 105.79 C129.77 70.21, 160.69 34.63, 190.69 0.13 M98.84 105.79 C125.6 75.01, 152.36 44.22, 190.69 0.13 M109.47 105.76 C142.73 67.49, 176 29.22, 201.32 0.1 M109.47 105.76 C133.17 78.49, 156.88 51.22, 201.32 0.1 M120.1 105.72 C148.73 72.78, 177.37 39.84, 211.95 0.06 M120.1 105.72 C155.13 65.43, 190.16 25.13, 211.95 0.06 M130.73 105.69 C151.05 82.31, 171.37 58.94, 222.58 0.03 M130.73 105.69 C155.05 77.71, 179.38 49.72, 222.58 0.03 M141.36 105.66 C163.67 79.99, 185.98 54.32, 233.21 0 M141.36 105.66 C167.07 76.08, 192.77 46.51, 233.21 0 M151.33 106.38 C181.58 71.58, 211.82 36.79, 243.84 -0.04 M151.33 106.38 C186.9 65.46, 222.46 24.55, 243.84 -0.04 M161.96 106.34 C189.56 74.59, 217.16 42.84, 253.15 1.44 M161.96 106.34 C193.12 70.49, 224.29 34.64, 253.15 1.44 M172.59 106.31 C203.74 70.48, 234.88 34.65, 259.19 6.68 M172.59 106.31 C201.94 72.54, 231.29 38.78, 259.19 6.68 M183.22 106.27 C209.57 75.96, 235.91 45.66, 263.26 14.2 M183.22 106.27 C199.72 87.3, 216.21 68.32, 263.26 14.2 M193.85 106.24 C219.73 76.46, 245.62 46.69, 264.71 24.73 M193.85 106.24 C210.48 87.11, 227.11 67.98, 264.71 24.73 M204.48 106.2 C218.28 90.33, 232.08 74.45, 265.5 36.01 M204.48 106.2 C228.68 78.37, 252.87 50.54, 265.5 36.01 M215.11 106.17 C233.3 85.25, 251.49 64.32, 266.28 47.3 M215.11 106.17 C233.66 84.83, 252.21 63.49, 266.28 47.3 M225.74 106.13 C240.51 89.14, 255.28 72.15, 266.42 59.34 M225.74 106.13 C238.8 91.11, 251.86 76.09, 266.42 59.34 M236.37 106.1 C245.44 95.67, 254.51 85.23, 265.9 72.14 M236.37 106.1 C248.11 92.6, 259.84 79.1, 265.9 72.14 M246.35 106.82 C253.48 98.61, 260.61 90.41, 265.37 84.93 M246.35 106.82 C251.52 100.87, 256.7 94.91, 265.37 84.93" stroke="#e1e1e1" stroke-width="1" fill="none"></path><path d="M0 0 C16.24 0, 67.24 0, 97.42 0 C127.6 0, 158.94 0, 181.08 0 C203.21 0, 219.24 0, 230.2 0 C241.17 0, 242.51 -0.54, 246.86 0 C251.21 0.54, 253.59 0.95, 256.29 3.24 C258.99 5.54, 261.52 7.52, 263.06 13.77 C264.59 20.01, 265.16 28.26, 265.51 40.71 C265.85 53.16, 266.21 78.45, 265.13 88.46 C264.05 98.47, 261.61 97.91, 259.02 100.76 C256.43 103.61, 256.82 104.66, 249.61 105.55 C242.39 106.44, 247.02 106.1, 215.72 106.09 C184.41 106.08, 94.4 105.6, 61.79 105.49 C29.18 105.38, 30.11 105.45, 20.07 105.42 C10.02 105.4, 4.62 107, 1.53 105.35 C-1.56 103.7, 1.6 103.46, 1.53 95.54 C1.45 87.62, 1.33 73.75, 1.08 57.83 C0.82 41.91, 0.18 9.64, 0 0 M0 0 C16.24 0, 67.24 0, 97.42 0 C127.6 0, 158.94 0, 181.08 0 C203.21 0, 219.24 0, 230.2 0 C241.17 0, 242.51 -0.54, 246.86 0 C251.21 0.54, 253.59 0.95, 256.29 3.24 C258.99 5.54, 261.52 7.52, 263.06 13.77 C264.59 20.01, 265.16 28.26, 265.51 40.71 C265.85 53.16, 266.21 78.45, 265.13 88.46 C264.05 98.47, 261.61 97.91, 259.02 100.76 C256.43 103.61, 256.82 104.66, 249.61 105.55 C242.39 106.44, 247.02 106.1, 215.72 106.09 C184.41 106.08, 94.4 105.6, 61.79 105.49 C29.18 105.38, 30.11 105.45, 20.07 105.42 C10.02 105.4, 4.62 107, 1.53 105.35 C-1.56 103.7, 1.6 103.46, 1.53 95.54 C1.45 87.62, 1.33 73.75, 1.08 57.83 C0.82 41.91, 0.18 9.64, 0 0" stroke="#E1E1E1" stroke-width="2" fill="none"></path></g></g><mask></mask></svg>