<svg version="1.1" xmlns="http://www.w3.org/2000/svg" viewBox="0 0 1610.375328581269 409.0934620328908" width="1610.375328581269" height="409.0934620328908" class="excalidraw-svg"><!-- svg-source:excalidraw --><metadata></metadata><defs><style class="style-fonts">
      </style></defs><rect x="0" y="0" width="1610.375328581269" height="409.0934620328908" fill="#000000"></rect><g stroke-linecap="round"><g transform="translate(372.52815461091257 85.92223035488087) rotate(0 -145.02324370476998 118.49611984094076)"><path d="M0 0 C-16.44 0, -64.94 0, -98.62 0 C-132.3 0, -175.97 0, -202.09 0 C-228.21 0, -243.06 0.02, -255.34 0 C-267.62 -0.02, -271.05 -0.38, -275.79 -0.12 C-280.52 0.14, -281.57 0.22, -283.76 1.56 C-285.95 2.9, -287.89 4.61, -288.94 7.9 C-289.98 11.19, -289.86 13.16, -290.05 21.31 C-290.23 29.46, -290.05 28.8, -290.05 56.8 C-290.05 84.79, -290.05 162.96, -290.05 189.26 C-290.05 215.57, -290.2 208.26, -290.05 214.61 C-289.89 220.95, -289.86 224.09, -289.11 227.34 C-288.35 230.59, -287 232.56, -285.51 234.11 C-284.03 235.67, -282.91 236.17, -280.2 236.67 C-277.49 237.17, -283.72 237.04, -269.24 237.12 C-254.76 237.19, -231.34 237.12, -193.31 237.12 C-155.28 237.12, -73.22 237.12, -41.04 237.12 C-8.85 237.12, -7 237.12, -0.2 237.12 M0 0 C-16.44 0, -64.94 0, -98.62 0 C-132.3 0, -175.97 0, -202.09 0 C-228.21 0, -243.06 0.02, -255.34 0 C-267.62 -0.02, -271.05 -0.38, -275.79 -0.12 C-280.52 0.14, -281.57 0.22, -283.76 1.56 C-285.95 2.9, -287.89 4.61, -288.94 7.9 C-289.98 11.19, -289.86 13.16, -290.05 21.31 C-290.23 29.46, -290.05 28.8, -290.05 56.8 C-290.05 84.79, -290.05 162.96, -290.05 189.26 C-290.05 215.57, -290.2 208.26, -290.05 214.61 C-289.89 220.95, -289.86 224.09, -289.11 227.34 C-288.35 230.59, -287 232.56, -285.51 234.11 C-284.03 235.67, -282.91 236.17, -280.2 236.67 C-277.49 237.17, -283.72 237.04, -269.24 237.12 C-254.76 237.19, -231.34 237.12, -193.31 237.12 C-155.28 237.12, -73.22 237.12, -41.04 237.12 C-8.85 237.12, -7 237.12, -0.2 237.12" stroke="#E1E1E1" stroke-width="4" fill="none"></path></g></g><mask></mask><g stroke-linecap="round"><g transform="translate(372.3325137376295 322.6997732342629) rotate(0 0 -118.13913876696256)"><path d="M0 0 C0 -39.38, 0 -196.9, 0 -236.28 M0 0 C0 -39.38, 0 -196.9, 0 -236.28" stroke="#E1E1E1" stroke-width="4" fill="none"></path></g></g><mask></mask><g stroke-linecap="round"><g transform="translate(392.7414139278703 86.17249822524991) rotate(0 0 118.67715116849195)"><path d="M0 0 C0 39.56, 0 197.8, 0 237.35 M0 0 C0 39.56, 0 197.8, 0 237.35" stroke="#E1E1E1" stroke-width="4" fill="none"></path></g></g><mask></mask><g stroke-linecap="round"><g transform="translate(392.95229954452634 323.5268005622338) rotate(0 554.5662872390864 -118.82451702109483)"><path d="M0 0 C114.31 0, 553.11 0, 685.86 0 C818.61 0, 757.68 0, 796.52 0 C835.36 0, 880.79 0, 918.89 0 C956.99 0, 999.36 0, 1025.12 0 C1050.89 0, 1061.56 -0.01, 1073.48 0 C1085.39 0.01, 1091.35 0.89, 1096.6 0.08 C1101.84 -0.74, 1102.97 -2.54, 1104.97 -4.88 C1106.98 -7.22, 1107.95 -10.39, 1108.64 -13.97 C1109.34 -17.54, 1109.05 -10.34, 1109.13 -26.31 C1109.21 -42.28, 1109.13 -80.74, 1109.13 -109.8 C1109.13 -138.85, 1109.22 -181.76, 1109.13 -200.66 C1109.05 -219.57, 1109.12 -218.41, 1108.62 -223.23 C1108.11 -228.05, 1107.66 -227.64, 1106.11 -229.6 C1104.57 -231.55, 1101.69 -233.74, 1099.34 -234.96 C1096.99 -236.18, 1096.84 -236.45, 1092.02 -236.91 C1087.19 -237.37, 1083.23 -237.59, 1070.4 -237.73 C1057.57 -237.86, 1048.91 -237.73, 1015.04 -237.73 C981.17 -237.73, 912.22 -237.73, 867.17 -237.73 C822.12 -237.73, 782.13 -237.73, 744.76 -237.73 C707.39 -237.73, 676.12 -237.73, 642.93 -237.73 C609.74 -237.73, 579.32 -237.73, 545.62 -237.73 C511.92 -237.73, 481.37 -237.73, 440.73 -237.73 C400.08 -237.73, 347.69 -237.73, 301.73 -237.73 C255.76 -237.73, 215.19 -237.73, 164.94 -237.73 C114.69 -237.73, 27.67 -237.73, 0.21 -237.73 M0 0 C114.31 0, 553.11 0, 685.86 0 C818.61 0, 757.68 0, 796.52 0 C835.36 0, 880.79 0, 918.89 0 C956.99 0, 999.36 0, 1025.12 0 C1050.89 0, 1061.56 -0.01, 1073.48 0 C1085.39 0.01, 1091.35 0.89, 1096.6 0.08 C1101.84 -0.74, 1102.97 -2.54, 1104.97 -4.88 C1106.98 -7.22, 1107.95 -10.39, 1108.64 -13.97 C1109.34 -17.54, 1109.05 -10.34, 1109.13 -26.31 C1109.21 -42.28, 1109.13 -80.74, 1109.13 -109.8 C1109.13 -138.85, 1109.22 -181.76, 1109.13 -200.66 C1109.05 -219.57, 1109.12 -218.41, 1108.62 -223.23 C1108.11 -228.05, 1107.66 -227.64, 1106.11 -229.6 C1104.57 -231.55, 1101.69 -233.74, 1099.34 -234.96 C1096.99 -236.18, 1096.84 -236.45, 1092.02 -236.91 C1087.19 -237.37, 1083.23 -237.59, 1070.4 -237.73 C1057.57 -237.86, 1048.91 -237.73, 1015.04 -237.73 C981.17 -237.73, 912.22 -237.73, 867.17 -237.73 C822.12 -237.73, 782.13 -237.73, 744.76 -237.73 C707.39 -237.73, 676.12 -237.73, 642.93 -237.73 C609.74 -237.73, 579.32 -237.73, 545.62 -237.73 C511.92 -237.73, 481.37 -237.73, 440.73 -237.73 C400.08 -237.73, 347.69 -237.73, 301.73 -237.73 C255.76 -237.73, 215.19 -237.73, 164.94 -237.73 C114.69 -237.73, 27.67 -237.73, 0.21 -237.73" stroke="#E1E1E1" stroke-width="4" fill="none"></path></g></g><mask></mask><g stroke-linecap="round"><g transform="translate(945.9641904604343 86.02277306712494) rotate(0 14.69720300659173 118.74151786273228)"><path d="M0 0 C2.4 1.24, 10.51 3.83, 14.42 7.42 C18.33 11.02, 20.9 16.34, 23.46 21.56 C26.01 26.79, 28.53 33.48, 29.75 38.78 C30.97 44.08, 30.63 44.55, 30.8 53.34 C30.97 62.14, 30.8 71.77, 30.8 91.55 C30.8 111.33, 30.75 154.51, 30.8 172.01 C30.85 189.51, 31.75 189.65, 31.08 196.56 C30.4 203.47, 29.24 208.17, 26.74 213.46 C24.25 218.75, 20.84 224.29, 16.11 228.3 C11.37 232.3, 1.28 235.95, -1.68 237.48 M0 0 C2.4 1.24, 10.51 3.83, 14.42 7.42 C18.33 11.02, 20.9 16.34, 23.46 21.56 C26.01 26.79, 28.53 33.48, 29.75 38.78 C30.97 44.08, 30.63 44.55, 30.8 53.34 C30.97 62.14, 30.8 71.77, 30.8 91.55 C30.8 111.33, 30.75 154.51, 30.8 172.01 C30.85 189.51, 31.75 189.65, 31.08 196.56 C30.4 203.47, 29.24 208.17, 26.74 213.46 C24.25 218.75, 20.84 224.29, 16.11 228.3 C11.37 232.3, 1.28 235.95, -1.68 237.48" stroke="#E1E1E1" stroke-width="2" fill="none"></path></g></g><mask></mask><g stroke-linecap="round"><g transform="translate(247.3354120798839 136.7391849530636) rotate(0 0 67.29000233403508)"><path d="M0 0 C0 22.43, 0 112.15, 0 134.58 M0 0 C0 22.43, 0 112.15, 0 134.58" stroke="#E1E1E1" stroke-width="4" fill="none"></path></g></g><mask></mask><g stroke-linecap="round"><g transform="translate(247.3322814629413 271.220053417951) rotate(0 13.19033271821354 0)"><path d="M0 0 C4.4 0, 21.98 0, 26.38 0 M0 0 C4.4 0, 21.98 0, 26.38 0" stroke="#E1E1E1" stroke-width="4" fill="none"></path></g></g><mask></mask><g stroke-linecap="round"><g transform="translate(274.14526422836377 271.33484270584677) rotate(0 0 -22.94637865037953)"><path d="M0 0 C0 -7.65, 0 -38.24, 0 -45.89 M0 0 C0 -7.65, 0 -38.24, 0 -45.89" stroke="#E1E1E1" stroke-width="4" fill="none"></path></g></g><mask></mask><g stroke-linecap="round"><g transform="translate(274.52690730444795 225.07684676178314) rotate(0 16.065282610514032 -44.168830904359766)"><path d="M0 0 C2.63 0, 10.94 0.18, 15.76 0 C20.58 -0.18, 24.28 0.08, 28.93 -1.08 C33.58 -2.24, 39.3 -4.06, 43.66 -6.98 C48.03 -9.91, 52.62 -14.82, 55.13 -18.65 C57.65 -22.47, 58.05 -25.34, 58.77 -29.91 C59.48 -34.48, 59.61 -41.02, 59.4 -46.06 C59.2 -51.11, 58.93 -55.87, 57.53 -60.18 C56.13 -64.49, 53.62 -68.48, 50.99 -71.92 C48.37 -75.36, 45.16 -78.45, 41.79 -80.82 C38.41 -83.19, 34.58 -84.97, 30.73 -86.12 C26.88 -87.27, 24.14 -87.36, 18.69 -87.73 C13.24 -88.1, 5.71 -88.24, -1.95 -88.34 C-9.61 -88.44, -23.05 -88.34, -27.27 -88.34 M0 0 C2.63 0, 10.94 0.18, 15.76 0 C20.58 -0.18, 24.28 0.08, 28.93 -1.08 C33.58 -2.24, 39.3 -4.06, 43.66 -6.98 C48.03 -9.91, 52.62 -14.82, 55.13 -18.65 C57.65 -22.47, 58.05 -25.34, 58.77 -29.91 C59.48 -34.48, 59.61 -41.02, 59.4 -46.06 C59.2 -51.11, 58.93 -55.87, 57.53 -60.18 C56.13 -64.49, 53.62 -68.48, 50.99 -71.92 C48.37 -75.36, 45.16 -78.45, 41.79 -80.82 C38.41 -83.19, 34.58 -84.97, 30.73 -86.12 C26.88 -87.27, 24.14 -87.36, 18.69 -87.73 C13.24 -88.1, 5.71 -88.24, -1.95 -88.34 C-9.61 -88.44, -23.05 -88.34, -27.27 -88.34" stroke="#E1E1E1" stroke-width="4" fill="none"></path></g></g><mask></mask><g stroke-linecap="round"><g transform="translate(273.4186689067627 161.2226965222667) rotate(0 0 19.420782203505723)"><path d="M0 0 C0 6.47, 0 32.37, 0 38.84 M0 0 C0 6.47, 0 32.37, 0 38.84" stroke="#E1E1E1" stroke-width="4" fill="none"></path></g></g><mask></mask><g stroke-linecap="round"><g transform="translate(274.4872528231748 200.06426092927813) rotate(0 15.302455615497081 -19.382171261213443)"><path d="M0 0 C3.28 0, 15.12 0.3, 19.71 0 C24.3 -0.3, 25.61 -0.45, 27.55 -1.82 C29.49 -3.19, 30.65 -5.48, 31.34 -8.23 C32.03 -10.99, 31.64 -15.05, 31.69 -18.35 C31.74 -21.65, 32.05 -25.55, 31.63 -28.04 C31.2 -30.54, 30.41 -31.82, 29.15 -33.32 C27.9 -34.81, 26.22 -36.21, 24.11 -37.01 C21.99 -37.81, 20.67 -37.81, 16.47 -38.1 C12.27 -38.4, 1.84 -38.65, -1.09 -38.76 M0 0 C3.28 0, 15.12 0.3, 19.71 0 C24.3 -0.3, 25.61 -0.45, 27.55 -1.82 C29.49 -3.19, 30.65 -5.48, 31.34 -8.23 C32.03 -10.99, 31.64 -15.05, 31.69 -18.35 C31.74 -21.65, 32.05 -25.55, 31.63 -28.04 C31.2 -30.54, 30.41 -31.82, 29.15 -33.32 C27.9 -34.81, 26.22 -36.21, 24.11 -37.01 C21.99 -37.81, 20.67 -37.81, 16.47 -38.1 C12.27 -38.4, 1.84 -38.65, -1.09 -38.76" stroke="#E1E1E1" stroke-width="4" fill="none"></path></g></g><mask></mask><g stroke-linecap="round"><g transform="translate(188.91109434520445 202.36807350054005) rotate(0 -15.088758174195902 1.3677406964952752)"><path d="M0 0 C12.91 -21.02, 25.81 -42.05, 39.99 -65.14 M0 0 C8.5 -13.84, 17 -27.69, 39.99 -65.14 M39.99 -65.14 C29.33 -65.14, 18.67 -65.14, 8.64 -65.14 M39.99 -65.14 C30.55 -65.14, 21.12 -65.14, 8.64 -65.14 M8.64 -65.14 C3.31 -55.43, -2.02 -45.72, -13.79 -24.27 M8.64 -65.14 C2.41 -53.78, -3.83 -42.43, -13.79 -24.27 M-13.79 -24.27 C-22.72 -38.57, -31.65 -52.86, -39.74 -65.83 M-13.79 -24.27 C-21.83 -37.15, -29.87 -50.02, -39.74 -65.83 M-39.74 -65.83 C-48.67 -65.83, -57.59 -65.83, -68.93 -65.83 M-39.74 -65.83 C-48.63 -65.83, -57.51 -65.83, -68.93 -65.83 M-68.93 -65.83 C-60.26 -51.7, -51.58 -37.57, -29.24 -1.18 M-68.93 -65.83 C-57.85 -47.77, -46.76 -29.71, -29.24 -1.18 M-29.24 -1.18 C-44.8 23.81, -60.36 48.8, -72.54 68.36 M-29.24 -1.18 C-43.57 21.83, -57.9 44.85, -72.54 68.36 M-72.54 68.36 C-62.21 68.36, -51.89 68.36, -39.91 68.36 M-72.54 68.36 C-65.91 68.36, -59.29 68.36, -39.91 68.36 M-39.91 68.36 C-31.73 54.06, -23.55 39.76, -14.47 23.87 M-39.91 68.36 C-33.4 56.98, -26.9 45.61, -14.47 23.87 M-14.47 23.87 C-4.99 40.88, 4.49 57.89, 10.44 68.57 M-14.47 23.87 C-8.64 34.33, -2.82 44.78, 10.44 68.57 M10.44 68.57 C17 68.57, 23.56 68.57, 42.36 68.57 M10.44 68.57 C17.98 68.57, 25.53 68.57, 42.36 68.57 M42.36 68.57 C27.75 44.91, 13.13 21.25, 0 0 M42.36 68.57 C30.33 49.09, 18.29 29.61, 0 0" stroke="#E1E1E1" stroke-width="4" fill="none"></path></g></g><mask></mask><g stroke-linecap="round"><g transform="translate(203.83645653616145 347.28826876428) rotate(0 589.1407699623562 -141.8131418754765)"><path d="M0 0 C36.47 0, 130.52 0, 218.8 0 C307.08 0, 430.82 0, 529.69 0 C628.56 0, 705.63 0, 812.01 0 C918.39 0, 1097.31 0, 1167.97 0 C1238.63 0, 1217.76 0.04, 1235.98 0 C1254.2 -0.04, 1267.17 0.36, 1277.3 -0.26 C1287.43 -0.87, 1290.9 -0.89, 1296.77 -3.67 C1302.64 -6.45, 1308.69 -11.14, 1312.52 -16.94 C1316.35 -22.74, 1318.39 -29.48, 1319.75 -38.47 C1321.1 -47.46, 1320.5 -52.99, 1320.65 -70.9 C1320.8 -88.8, 1320.65 -120.7, 1320.65 -145.88 C1320.65 -171.05, 1320.84 -204.49, 1320.65 -221.94 C1320.45 -239.4, 1320.43 -243.49, 1319.47 -250.6 C1318.52 -257.71, 1317.64 -260.36, 1314.91 -264.6 C1312.18 -268.84, 1307.61 -273.13, 1303.09 -276.04 C1298.57 -278.95, 1294.73 -280.79, 1287.79 -282.06 C1280.84 -283.32, 1276.07 -283.36, 1261.42 -283.63 C1246.77 -283.89, 1238.85 -283.63, 1199.9 -283.63 C1160.95 -283.63, 1090.84 -283.63, 1027.74 -283.63 C964.63 -283.63, 889.58 -283.63, 821.28 -283.63 C752.99 -283.63, 688.17 -283.63, 617.96 -283.63 C547.75 -283.63, 480.64 -283.63, 400.04 -283.63 C319.44 -283.63, 209.7 -283.63, 134.37 -283.63 C59.05 -283.63, -12.63 -283.63, -51.92 -283.63 C-91.22 -283.63, -90.03 -284.17, -101.39 -283.63 C-112.76 -283.08, -114.78 -282.36, -120.14 -280.34 C-125.49 -278.32, -130.07 -275.77, -133.52 -271.52 C-136.97 -267.27, -139.38 -265, -140.85 -254.85 C-142.32 -244.7, -142.11 -229.41, -142.37 -210.6 C-142.62 -191.79, -142.37 -165.22, -142.37 -142 C-142.37 -118.77, -142.37 -88.05, -142.37 -71.27 C-142.37 -54.49, -143.09 -49.36, -142.37 -41.29 C-141.65 -33.23, -140.65 -28.63, -138.04 -22.9 C-135.43 -17.17, -131.59 -10.51, -126.7 -6.91 C-121.8 -3.3, -120.79 -2.19, -108.67 -1.25 C-96.55 -0.31, -72.1 -1.46, -53.99 -1.25 C-35.88 -1.04, -9 -0.21, 0 0 M0 0 C36.47 0, 130.52 0, 218.8 0 C307.08 0, 430.82 0, 529.69 0 C628.56 0, 705.63 0, 812.01 0 C918.39 0, 1097.31 0, 1167.97 0 C1238.63 0, 1217.76 0.04, 1235.98 0 C1254.2 -0.04, 1267.17 0.36, 1277.3 -0.26 C1287.43 -0.87, 1290.9 -0.89, 1296.77 -3.67 C1302.64 -6.45, 1308.69 -11.14, 1312.52 -16.94 C1316.35 -22.74, 1318.39 -29.48, 1319.75 -38.47 C1321.1 -47.46, 1320.5 -52.99, 1320.65 -70.9 C1320.8 -88.8, 1320.65 -120.7, 1320.65 -145.88 C1320.65 -171.05, 1320.84 -204.49, 1320.65 -221.94 C1320.45 -239.4, 1320.43 -243.49, 1319.47 -250.6 C1318.52 -257.71, 1317.64 -260.36, 1314.91 -264.6 C1312.18 -268.84, 1307.61 -273.13, 1303.09 -276.04 C1298.57 -278.95, 1294.73 -280.79, 1287.79 -282.06 C1280.84 -283.32, 1276.07 -283.36, 1261.42 -283.63 C1246.77 -283.89, 1238.85 -283.63, 1199.9 -283.63 C1160.95 -283.63, 1090.84 -283.63, 1027.74 -283.63 C964.63 -283.63, 889.58 -283.63, 821.28 -283.63 C752.99 -283.63, 688.17 -283.63, 617.96 -283.63 C547.75 -283.63, 480.64 -283.63, 400.04 -283.63 C319.44 -283.63, 209.7 -283.63, 134.37 -283.63 C59.05 -283.63, -12.63 -283.63, -51.92 -283.63 C-91.22 -283.63, -90.03 -284.17, -101.39 -283.63 C-112.76 -283.08, -114.78 -282.36, -120.14 -280.34 C-125.49 -278.32, -130.07 -275.77, -133.52 -271.52 C-136.97 -267.27, -139.38 -265, -140.85 -254.85 C-142.32 -244.7, -142.11 -229.41, -142.37 -210.6 C-142.62 -191.79, -142.37 -165.22, -142.37 -142 C-142.37 -118.77, -142.37 -88.05, -142.37 -71.27 C-142.37 -54.49, -143.09 -49.36, -142.37 -41.29 C-141.65 -33.23, -140.65 -28.63, -138.04 -22.9 C-135.43 -17.17, -131.59 -10.51, -126.7 -6.91 C-121.8 -3.3, -120.79 -2.19, -108.67 -1.25 C-96.55 -0.31, -72.1 -1.46, -53.99 -1.25 C-35.88 -1.04, -9 -0.21, 0 0" stroke="#E1E1E1" stroke-width="4" fill="none"></path></g></g><mask></mask><g stroke-linecap="round"><g transform="translate(1600.375328581269 213.81030662068815) rotate(0 0 0)"><path d="M0 0 C0 0, 0 0, 0 0 M0 0 C0 0, 0 0, 0 0" stroke="#E1E1E1" stroke-width="4" fill="none"></path></g><g transform="translate(1600.375328581269 213.81030662068815) rotate(0 0 0)"><path d="MNaN NaN CNaN NaN, NaN NaN, 0 0 MNaN NaN CNaN NaN, NaN NaN, 0 0" stroke="#E1E1E1" stroke-width="4" fill="none"></path></g><g transform="translate(1600.375328581269 213.81030662068815) rotate(0 0 0)"><path d="MNaN NaN CNaN NaN, NaN NaN, 0 0 MNaN NaN CNaN NaN, NaN NaN, 0 0" stroke="#E1E1E1" stroke-width="4" fill="none"></path></g></g><mask></mask><g stroke-linecap="round"><g transform="translate(282.33917016616135 398.1045921546324) rotate(0 510.21020914454994 -193.36986023341797)"><path d="M0 0 C45.07 0, 156.46 0, 270.41 0 C384.37 0, 562.92 0, 683.71 0 C804.5 0, 921.7 0, 995.15 0 C1068.6 0, 1091.38 0, 1124.4 0 C1157.41 0, 1176.17 0.35, 1193.23 0 C1210.3 -0.35, 1215.99 0.9, 1226.79 -2.11 C1237.59 -5.11, 1249.7 -11.67, 1258.04 -18.04 C1266.37 -24.41, 1271.55 -31.81, 1276.81 -40.32 C1282.06 -48.83, 1286.95 -57.6, 1289.57 -69.1 C1292.18 -80.6, 1292.01 -87.78, 1292.5 -109.34 C1292.99 -130.91, 1292.5 -171.65, 1292.5 -198.51 C1292.5 -225.36, 1292.5 -251.79, 1292.5 -270.46 C1292.5 -289.13, 1293.98 -299.09, 1292.5 -310.54 C1291.01 -321.98, 1288.63 -329.61, 1283.59 -339.12 C1278.55 -348.64, 1270.72 -360.16, 1262.24 -367.62 C1253.75 -375.09, 1244.74 -380.67, 1232.68 -383.91 C1220.63 -387.16, 1208.93 -386.57, 1189.93 -387.1 C1170.92 -387.63, 1179.96 -387.1, 1118.65 -387.1 C1057.34 -387.1, 921.84 -387.1, 822.08 -387.1 C722.32 -387.1, 611.34 -387.1, 520.1 -387.1 C428.86 -387.1, 356.52 -387.1, 274.63 -387.1 C192.74 -387.1, 104.88 -387.1, 28.76 -387.1 C-47.37 -387.1, -138.5 -389.36, -182.13 -387.1 C-225.77 -384.83, -220.69 -379.28, -233.05 -373.49 C-245.4 -367.7, -250.27 -361.16, -256.28 -352.36 C-262.28 -343.55, -266.45 -333.98, -269.08 -320.66 C-271.72 -307.35, -271.58 -301.8, -272.08 -272.46 C-272.58 -243.11, -272.08 -172.41, -272.08 -144.6 C-272.08 -116.8, -272.67 -118.53, -272.08 -105.64 C-271.49 -92.74, -271.7 -79.29, -268.55 -67.24 C-265.39 -55.18, -260.5 -43.18, -253.15 -33.31 C-245.79 -23.44, -235.47 -13.6, -224.43 -7.99 C-213.39 -2.38, -206.01 -1.03, -186.91 0.36 C-167.82 1.75, -141 0.42, -109.84 0.36 C-78.69 0.3, -18.31 0.06, 0 0 M0 0 C45.07 0, 156.46 0, 270.41 0 C384.37 0, 562.92 0, 683.71 0 C804.5 0, 921.7 0, 995.15 0 C1068.6 0, 1091.38 0, 1124.4 0 C1157.41 0, 1176.17 0.35, 1193.23 0 C1210.3 -0.35, 1215.99 0.9, 1226.79 -2.11 C1237.59 -5.11, 1249.7 -11.67, 1258.04 -18.04 C1266.37 -24.41, 1271.55 -31.81, 1276.81 -40.32 C1282.06 -48.83, 1286.95 -57.6, 1289.57 -69.1 C1292.18 -80.6, 1292.01 -87.78, 1292.5 -109.34 C1292.99 -130.91, 1292.5 -171.65, 1292.5 -198.51 C1292.5 -225.36, 1292.5 -251.79, 1292.5 -270.46 C1292.5 -289.13, 1293.98 -299.09, 1292.5 -310.54 C1291.01 -321.98, 1288.63 -329.61, 1283.59 -339.12 C1278.55 -348.64, 1270.72 -360.16, 1262.24 -367.62 C1253.75 -375.09, 1244.74 -380.67, 1232.68 -383.91 C1220.63 -387.16, 1208.93 -386.57, 1189.93 -387.1 C1170.92 -387.63, 1179.96 -387.1, 1118.65 -387.1 C1057.34 -387.1, 921.84 -387.1, 822.08 -387.1 C722.32 -387.1, 611.34 -387.1, 520.1 -387.1 C428.86 -387.1, 356.52 -387.1, 274.63 -387.1 C192.74 -387.1, 104.88 -387.1, 28.76 -387.1 C-47.37 -387.1, -138.5 -389.36, -182.13 -387.1 C-225.77 -384.83, -220.69 -379.28, -233.05 -373.49 C-245.4 -367.7, -250.27 -361.16, -256.28 -352.36 C-262.28 -343.55, -266.45 -333.98, -269.08 -320.66 C-271.72 -307.35, -271.58 -301.8, -272.08 -272.46 C-272.58 -243.11, -272.08 -172.41, -272.08 -144.6 C-272.08 -116.8, -272.67 -118.53, -272.08 -105.64 C-271.49 -92.74, -271.7 -79.29, -268.55 -67.24 C-265.39 -55.18, -260.5 -43.18, -253.15 -33.31 C-245.79 -23.44, -235.47 -13.6, -224.43 -7.99 C-213.39 -2.38, -206.01 -1.03, -186.91 0.36 C-167.82 1.75, -141 0.42, -109.84 0.36 C-78.69 0.3, -18.31 0.06, 0 0" stroke="#E1E1E1" stroke-width="4" fill="none"></path></g></g><mask></mask><g stroke-linecap="round" transform="translate(1224.4757564488498 159.02354087485446) rotate(0 18.839267296064463 18.839267296064463)"><path d="M37.68 18.84 C37.68 19.93, 37.58 21.04, 37.39 22.11 C37.2 23.18, 36.92 24.26, 36.54 25.28 C36.17 26.31, 35.7 27.31, 35.15 28.26 C34.61 29.2, 33.97 30.11, 33.27 30.95 C32.57 31.78, 31.78 32.57, 30.95 33.27 C30.11 33.97, 29.2 34.61, 28.26 35.15 C27.31 35.7, 26.31 36.17, 25.28 36.54 C24.26 36.92, 23.18 37.2, 22.11 37.39 C21.04 37.58, 19.93 37.68, 18.84 37.68 C17.75 37.68, 16.64 37.58, 15.57 37.39 C14.49 37.2, 13.42 36.92, 12.4 36.54 C11.37 36.17, 10.36 35.7, 9.42 35.15 C8.48 34.61, 7.56 33.97, 6.73 33.27 C5.89 32.57, 5.11 31.78, 4.41 30.95 C3.71 30.11, 3.07 29.2, 2.52 28.26 C1.98 27.31, 1.51 26.31, 1.14 25.28 C0.76 24.26, 0.48 23.18, 0.29 22.11 C0.1 21.04, 0 19.93, 0 18.84 C0 17.75, 0.1 16.64, 0.29 15.57 C0.48 14.49, 0.76 13.42, 1.14 12.4 C1.51 11.37, 1.98 10.36, 2.52 9.42 C3.07 8.48, 3.71 7.56, 4.41 6.73 C5.11 5.89, 5.89 5.11, 6.73 4.41 C7.56 3.71, 8.48 3.07, 9.42 2.52 C10.36 1.98, 11.37 1.51, 12.4 1.14 C13.42 0.76, 14.49 0.48, 15.57 0.29 C16.64 0.1, 17.75 0, 18.84 0 C19.93 0, 21.04 0.1, 22.11 0.29 C23.18 0.48, 24.26 0.76, 25.28 1.14 C26.31 1.51, 27.31 1.98, 28.26 2.52 C29.2 3.07, 30.11 3.71, 30.95 4.41 C31.78 5.11, 32.57 5.89, 33.27 6.73 C33.97 7.56, 34.61 8.48, 35.15 9.42 C35.7 10.36, 36.17 11.37, 36.54 12.4 C36.92 13.42, 37.2 14.49, 37.39 15.57 C37.58 16.64, 37.63 18.29, 37.68 18.84 C37.73 19.38, 37.73 18.29, 37.68 18.84" stroke="#E1E1E1" stroke-width="4" fill="none"></path></g><g stroke-linecap="round" transform="translate(1223.0165358587376 215.43072139586548) rotate(0 21.21314204045251 21.213142040452567)"><path d="M42.43 21.21 C42.43 22.44, 42.32 23.69, 42.1 24.9 C41.89 26.11, 41.57 27.31, 41.15 28.47 C40.73 29.62, 40.2 30.76, 39.58 31.82 C38.97 32.88, 38.25 33.91, 37.46 34.85 C36.67 35.79, 35.79 36.67, 34.85 37.46 C33.91 38.25, 32.88 38.97, 31.82 39.58 C30.76 40.2, 29.62 40.73, 28.47 41.15 C27.31 41.57, 26.11 41.89, 24.9 42.1 C23.69 42.32, 22.44 42.43, 21.21 42.43 C19.99 42.43, 18.74 42.32, 17.53 42.1 C16.32 41.89, 15.11 41.57, 13.96 41.15 C12.8 40.73, 11.67 40.2, 10.61 39.58 C9.54 38.97, 8.52 38.25, 7.58 37.46 C6.64 36.67, 5.75 35.79, 4.96 34.85 C4.17 33.91, 3.46 32.88, 2.84 31.82 C2.23 30.76, 1.7 29.62, 1.28 28.47 C0.86 27.31, 0.54 26.11, 0.32 24.9 C0.11 23.69, 0 22.44, 0 21.21 C0 19.99, 0.11 18.74, 0.32 17.53 C0.54 16.32, 0.86 15.11, 1.28 13.96 C1.7 12.8, 2.23 11.67, 2.84 10.61 C3.46 9.54, 4.17 8.52, 4.96 7.58 C5.75 6.64, 6.64 5.75, 7.58 4.96 C8.52 4.17, 9.54 3.46, 10.61 2.84 C11.67 2.23, 12.8 1.7, 13.96 1.28 C15.11 0.86, 16.32 0.54, 17.53 0.32 C18.74 0.11, 19.99 0, 21.21 0 C22.44 0, 23.69 0.11, 24.9 0.32 C26.11 0.54, 27.31 0.86, 28.47 1.28 C29.62 1.7, 30.76 2.23, 31.82 2.84 C32.88 3.46, 33.91 4.17, 34.85 4.96 C35.79 5.75, 36.67 6.64, 37.46 7.58 C38.25 8.52, 38.97 9.54, 39.58 10.61 C40.2 11.67, 40.73 12.8, 41.15 13.96 C41.57 15.11, 41.89 16.32, 42.1 17.53 C42.32 18.74, 42.37 20.6, 42.43 21.21 C42.48 21.83, 42.48 20.6, 42.43 21.21" stroke="#E1E1E1" stroke-width="4" fill="none"></path></g><g stroke-linecap="round"><g transform="translate(1214.972783054596 205.45760719108966) rotate(0 29.414819486979667 36.897458046824795)"><path d="M0 0 C-1.39 1.49, -6.26 5.31, -8.35 8.92 C-10.45 12.54, -11.76 16.4, -12.56 21.67 C-13.36 26.95, -13.81 34.77, -13.14 40.56 C-12.47 46.35, -11.08 51.93, -8.55 56.41 C-6.01 60.88, -2.25 64.45, 2.06 67.42 C6.37 70.39, 12.27 72.8, 17.33 74.23 C22.39 75.66, 27.23 76.17, 32.41 76 C37.6 75.83, 43.55 75.37, 48.44 73.2 C53.34 71.03, 58.36 66.86, 61.79 62.97 C65.22 59.07, 67.35 55, 69.04 49.81 C70.74 44.61, 71.89 37.65, 71.97 31.79 C72.05 25.92, 71.03 19.38, 69.54 14.59 C68.05 9.81, 64.7 5.87, 63.03 3.07 C61.36 0.27, 60.11 -1.33, 59.53 -2.21 M0 0 C-1.39 1.49, -6.26 5.31, -8.35 8.92 C-10.45 12.54, -11.76 16.4, -12.56 21.67 C-13.36 26.95, -13.81 34.77, -13.14 40.56 C-12.47 46.35, -11.08 51.93, -8.55 56.41 C-6.01 60.88, -2.25 64.45, 2.06 67.42 C6.37 70.39, 12.27 72.8, 17.33 74.23 C22.39 75.66, 27.23 76.17, 32.41 76 C37.6 75.83, 43.55 75.37, 48.44 73.2 C53.34 71.03, 58.36 66.86, 61.79 62.97 C65.22 59.07, 67.35 55, 69.04 49.81 C70.74 44.61, 71.89 37.65, 71.97 31.79 C72.05 25.92, 71.03 19.38, 69.54 14.59 C68.05 9.81, 64.7 5.87, 63.03 3.07 C61.36 0.27, 60.11 -1.33, 59.53 -2.21" stroke="#E1E1E1" stroke-width="4" fill="none"></path></g></g><mask></mask><g stroke-linecap="round"><g transform="translate(1274.5005325484726 203.25115938081444) rotate(0 -31.210921820343714 -32.05553090761009)"><path d="M0 0 C1.08 -1.51, 4.98 -5.35, 6.51 -9.06 C8.03 -12.78, 8.86 -17.56, 9.14 -22.3 C9.42 -27.05, 9.78 -32.36, 8.21 -37.52 C6.64 -42.68, 3.08 -49.04, -0.27 -53.28 C-3.61 -57.52, -7.99 -60.77, -11.88 -62.97 C-15.77 -65.16, -19.17 -65.85, -23.63 -66.46 C-28.09 -67.06, -34.14 -67.07, -38.64 -66.6 C-43.14 -66.13, -46.74 -65.79, -50.65 -63.65 C-54.56 -61.51, -58.92 -57.57, -62.09 -53.75 C-65.26 -49.93, -68.08 -45.17, -69.66 -40.73 C-71.24 -36.29, -71.87 -31.69, -71.56 -27.12 C-71.26 -22.56, -69.8 -18.26, -67.84 -13.32 C-65.87 -8.39, -61.13 -0.15, -59.79 2.49 M0 0 C1.08 -1.51, 4.98 -5.35, 6.51 -9.06 C8.03 -12.78, 8.86 -17.56, 9.14 -22.3 C9.42 -27.05, 9.78 -32.36, 8.21 -37.52 C6.64 -42.68, 3.08 -49.04, -0.27 -53.28 C-3.61 -57.52, -7.99 -60.77, -11.88 -62.97 C-15.77 -65.16, -19.17 -65.85, -23.63 -66.46 C-28.09 -67.06, -34.14 -67.07, -38.64 -66.6 C-43.14 -66.13, -46.74 -65.79, -50.65 -63.65 C-54.56 -61.51, -58.92 -57.57, -62.09 -53.75 C-65.26 -49.93, -68.08 -45.17, -69.66 -40.73 C-71.24 -36.29, -71.87 -31.69, -71.56 -27.12 C-71.26 -22.56, -69.8 -18.26, -67.84 -13.32 C-65.87 -8.39, -61.13 -0.15, -59.79 2.49" stroke="#E1E1E1" stroke-width="4" fill="none"></path></g></g><mask></mask><g stroke-linecap="round"><g transform="translate(1135.2346295852005 163.06654681905957) rotate(0 17.5013467065006 0)"><path d="M0 0 C5.83 0, 29.17 0, 35 0 M0 0 C5.83 0, 29.17 0, 35 0" stroke="#E1E1E1" stroke-width="4" fill="none"></path></g></g><mask></mask><g stroke-linecap="round"><g transform="translate(1170.237322998202 162.98731800202404) rotate(0 2.302867785724075 -12.115282031418701)"><path d="M0 0 C0.77 -4.04, 3.84 -20.19, 4.61 -24.23 M0 0 C0.77 -4.04, 3.84 -20.19, 4.61 -24.23" stroke="#E1E1E1" stroke-width="4" fill="none"></path></g></g><mask></mask><g stroke-linecap="round"><g transform="translate(1174.908833436623 139.01686364039824) rotate(0 -29.256361852908285 0)"><path d="M0 0 C-9.75 0, -48.76 0, -58.51 0 M0 0 C-9.75 0, -48.76 0, -58.51 0" stroke="#E1E1E1" stroke-width="4" fill="none"></path></g></g><mask></mask><g stroke-linecap="round"><g transform="translate(1116.4454408810363 139.3875947087913) rotate(0 -4.516042571030454 35.40332214820023)"><path d="M0 0 C-1.51 11.8, -7.53 59.01, -9.03 70.81 M0 0 C-1.51 11.8, -7.53 59.01, -9.03 70.81" stroke="#E1E1E1" stroke-width="4" fill="none"></path></g></g><mask></mask><g stroke-linecap="round"><g transform="translate(1135.5201523031972 163.23995328653382) rotate(0 -2.0883520263918314 13.1370347945101)"><path d="M0 0 C-0.7 4.38, -3.48 21.9, -4.18 26.27 M0 0 C-0.7 4.38, -3.48 21.9, -4.18 26.27" stroke="#E1E1E1" stroke-width="4" fill="none"></path></g></g><mask></mask><g stroke-linecap="round"><g transform="translate(1131.6543438658412 189.5404058856052) rotate(0 7.1594540085542775 44.91974949251653)"><path d="M0 0 C2.67 0.12, 10.99 -0.25, 16.01 0.71 C21.02 1.67, 25.73 2.88, 30.11 5.76 C34.48 8.64, 39.15 13.4, 42.26 18 C45.36 22.6, 47.67 27.22, 48.75 33.37 C49.84 39.52, 49.48 48.64, 48.75 54.9 C48.02 61.15, 46.61 66.2, 44.37 70.89 C42.12 75.59, 39.02 80.09, 35.28 83.05 C31.54 86.02, 26.43 87.56, 21.93 88.7 C17.42 89.83, 13.37 90.31, 8.25 89.84 C3.13 89.37, -1.67 88.35, -8.78 85.87 C-15.9 83.4, -30.16 76.8, -34.43 74.98 M0 0 C2.67 0.12, 10.99 -0.25, 16.01 0.71 C21.02 1.67, 25.73 2.88, 30.11 5.76 C34.48 8.64, 39.15 13.4, 42.26 18 C45.36 22.6, 47.67 27.22, 48.75 33.37 C49.84 39.52, 49.48 48.64, 48.75 54.9 C48.02 61.15, 46.61 66.2, 44.37 70.89 C42.12 75.59, 39.02 80.09, 35.28 83.05 C31.54 86.02, 26.43 87.56, 21.93 88.7 C17.42 89.83, 13.37 90.31, 8.25 89.84 C3.13 89.37, -1.67 88.35, -8.78 85.87 C-15.9 83.4, -30.16 76.8, -34.43 74.98" stroke="#E1E1E1" stroke-width="4" fill="none"></path></g></g><mask></mask><g stroke-linecap="round"><g transform="translate(1097.573698310099 263.7874643947989) rotate(0 4.2903040554461995 -10.749627971630389)"><path d="M0 0 C1.43 -3.58, 7.15 -17.92, 8.58 -21.5 M0 0 C1.43 -3.58, 7.15 -17.92, 8.58 -21.5" stroke="#E1E1E1" stroke-width="4" fill="none"></path></g></g><mask></mask><g stroke-linecap="round"><g transform="translate(1106.2677533642095 242.33042126761939) rotate(0 26.21005047343779 -9.178511363851158)"><path d="M0 0 C3.1 1.76, 12.42 8.44, 18.59 10.55 C24.77 12.67, 32.3 13.25, 37.05 12.71 C41.8 12.17, 44.54 10.43, 47.1 7.3 C49.66 4.18, 51.98 -1.8, 52.42 -6.05 C52.86 -10.29, 51.84 -14.83, 49.75 -18.17 C47.67 -21.51, 44.05 -24.2, 39.92 -26.07 C35.79 -27.95, 29.84 -28.72, 24.97 -29.42 C20.1 -30.12, 14.67 -29.97, 10.68 -30.25 C6.69 -30.52, 2.64 -30.93, 1.04 -31.07 M0 0 C3.1 1.76, 12.42 8.44, 18.59 10.55 C24.77 12.67, 32.3 13.25, 37.05 12.71 C41.8 12.17, 44.54 10.43, 47.1 7.3 C49.66 4.18, 51.98 -1.8, 52.42 -6.05 C52.86 -10.29, 51.84 -14.83, 49.75 -18.17 C47.67 -21.51, 44.05 -24.2, 39.92 -26.07 C35.79 -27.95, 29.84 -28.72, 24.97 -29.42 C20.1 -30.12, 14.67 -29.97, 10.68 -30.25 C6.69 -30.52, 2.64 -30.93, 1.04 -31.07" stroke="#E1E1E1" stroke-width="4" fill="none"></path></g></g><mask></mask><g stroke-linecap="round"><g transform="translate(1335.8925202519276 156.72839831051442) rotate(0 10.444464572314416 4.21309289563419)"><path d="M0 0 C-0.08 1.83, -0.64 7.6, -0.45 11.01 C-0.27 14.42, 0.12 18.25, 1.09 20.45 C2.07 22.66, 3.42 23.56, 5.41 24.24 C7.4 24.92, 10.84 24.98, 13.05 24.53 C15.26 24.08, 17.39 22.81, 18.66 21.55 C19.92 20.3, 20.23 19.06, 20.66 17 C21.1 14.94, 21.15 12.49, 21.26 9.19 C21.37 5.88, 21.51 0.14, 21.34 -2.81 C21.17 -5.76, 20.88 -6.73, 20.24 -8.51 C19.61 -10.3, 18.75 -12.24, 17.52 -13.5 C16.3 -14.77, 14.38 -15.67, 12.89 -16.11 C11.39 -16.54, 9.93 -16.55, 8.55 -16.11 C7.16 -15.67, 5.74 -14.69, 4.57 -13.46 C3.4 -12.23, 2.32 -10.96, 1.56 -8.72 C0.8 -6.47, 0.26 -1.45, 0 0 M0 0 C-0.08 1.83, -0.64 7.6, -0.45 11.01 C-0.27 14.42, 0.12 18.25, 1.09 20.45 C2.07 22.66, 3.42 23.56, 5.41 24.24 C7.4 24.92, 10.84 24.98, 13.05 24.53 C15.26 24.08, 17.39 22.81, 18.66 21.55 C19.92 20.3, 20.23 19.06, 20.66 17 C21.1 14.94, 21.15 12.49, 21.26 9.19 C21.37 5.88, 21.51 0.14, 21.34 -2.81 C21.17 -5.76, 20.88 -6.73, 20.24 -8.51 C19.61 -10.3, 18.75 -12.24, 17.52 -13.5 C16.3 -14.77, 14.38 -15.67, 12.89 -16.11 C11.39 -16.54, 9.93 -16.55, 8.55 -16.11 C7.16 -15.67, 5.74 -14.69, 4.57 -13.46 C3.4 -12.23, 2.32 -10.96, 1.56 -8.72 C0.8 -6.47, 0.26 -1.45, 0 0" stroke="#E1E1E1" stroke-width="4" fill="none"></path></g></g><mask></mask><g stroke-linecap="round"><g transform="translate(1324.7633768339906 145.03798534394082) rotate(0 22.095992590985674 17.403294638522993)"><path d="M0 0 C-0.51 1.67, -2.38 6.42, -3.04 10.02 C-3.7 13.63, -4.39 17.66, -3.97 21.63 C-3.55 25.6, -2.13 30.28, -0.53 33.84 C1.06 37.4, 3.06 40.74, 5.59 42.99 C8.12 45.24, 11.3 46.5, 14.63 47.36 C17.95 48.22, 21.85 48.68, 25.54 48.14 C29.23 47.59, 33.8 45.81, 36.78 44.07 C39.76 42.34, 41.67 40.13, 43.42 37.71 C45.17 35.3, 46.48 32.6, 47.27 29.58 C48.06 26.56, 48.06 22.88, 48.16 19.58 C48.26 16.29, 48.41 13.08, 47.87 9.78 C47.34 6.49, 46.45 2.8, 44.97 -0.18 C43.49 -3.15, 41.25 -6.1, 39 -8.07 C36.75 -10.03, 34.22 -11.09, 31.47 -11.96 C28.72 -12.84, 25.67 -13.27, 22.48 -13.33 C19.29 -13.39, 15.19 -13.08, 12.36 -12.29 C9.52 -11.51, 7.52 -10.66, 5.46 -8.61 C3.4 -6.56, 0.91 -1.43, 0 0 M0 0 C-0.51 1.67, -2.38 6.42, -3.04 10.02 C-3.7 13.63, -4.39 17.66, -3.97 21.63 C-3.55 25.6, -2.13 30.28, -0.53 33.84 C1.06 37.4, 3.06 40.74, 5.59 42.99 C8.12 45.24, 11.3 46.5, 14.63 47.36 C17.95 48.22, 21.85 48.68, 25.54 48.14 C29.23 47.59, 33.8 45.81, 36.78 44.07 C39.76 42.34, 41.67 40.13, 43.42 37.71 C45.17 35.3, 46.48 32.6, 47.27 29.58 C48.06 26.56, 48.06 22.88, 48.16 19.58 C48.26 16.29, 48.41 13.08, 47.87 9.78 C47.34 6.49, 46.45 2.8, 44.97 -0.18 C43.49 -3.15, 41.25 -6.1, 39 -8.07 C36.75 -10.03, 34.22 -11.09, 31.47 -11.96 C28.72 -12.84, 25.67 -13.27, 22.48 -13.33 C19.29 -13.39, 15.19 -13.08, 12.36 -12.29 C9.52 -11.51, 7.52 -10.66, 5.46 -8.61 C3.4 -6.56, 0.91 -1.43, 0 0" stroke="#E1E1E1" stroke-width="4" fill="none"></path></g></g><mask></mask><g stroke-linecap="round"><g transform="translate(1406.6183305166119 132.81561242729003) rotate(0 -28.845268934327237 75.52823332672142)"><path d="M0 0 C-9.62 25.18, -48.08 125.88, -57.69 151.06 M0 0 C-9.62 25.18, -48.08 125.88, -57.69 151.06" stroke="#E1E1E1" stroke-width="4" fill="none"></path></g></g><mask></mask><g stroke-linecap="round"><g transform="translate(1406.3821389488453 132.62576224307304) rotate(0 13.54364306307042 0)"><path d="M0 0 C4.51 0, 22.57 0, 27.09 0 M0 0 C4.51 0, 22.57 0, 27.09 0" stroke="#E1E1E1" stroke-width="4" fill="none"></path></g></g><mask></mask><g stroke-linecap="round"><g transform="translate(1433.4694250749862 132.62576224307304) rotate(0 -27.387010235869724 75.52898076839165)"><path d="M0 0 C-9.13 25.18, -45.65 125.88, -54.77 151.06 M0 0 C-9.13 25.18, -45.65 125.88, -54.77 151.06" stroke="#E1E1E1" stroke-width="4" fill="none"></path></g></g><mask></mask><g stroke-linecap="round"><g transform="translate(1378.695404603247 283.6837237798559) rotate(0 -15.228376587582488 0.5815096193746285)"><path d="M0 0 C-5.08 0.19, -25.38 0.97, -30.46 1.16 M0 0 C-5.08 0.19, -25.38 0.97, -30.46 1.16" stroke="#E1E1E1" stroke-width="4" fill="none"></path></g></g><mask></mask><g stroke-linecap="round"><g transform="translate(1428.5448360088806 248.768953430515) rotate(0 10.444464572314445 4.21309289563419)"><path d="M0 0 C-0.08 1.83, -0.64 7.6, -0.45 11.01 C-0.27 14.42, 0.12 18.25, 1.09 20.45 C2.07 22.66, 3.42 23.56, 5.41 24.24 C7.4 24.92, 10.84 24.98, 13.05 24.53 C15.26 24.08, 17.39 22.81, 18.66 21.55 C19.92 20.3, 20.23 19.06, 20.66 17 C21.1 14.94, 21.15 12.49, 21.26 9.19 C21.37 5.88, 21.51 0.14, 21.34 -2.81 C21.17 -5.76, 20.88 -6.73, 20.24 -8.51 C19.61 -10.3, 18.75 -12.24, 17.52 -13.5 C16.3 -14.77, 14.38 -15.67, 12.89 -16.11 C11.39 -16.54, 9.93 -16.55, 8.55 -16.11 C7.16 -15.67, 5.74 -14.69, 4.57 -13.46 C3.4 -12.23, 2.32 -10.96, 1.56 -8.72 C0.8 -6.47, 0.26 -1.45, 0 0 M0 0 C-0.08 1.83, -0.64 7.6, -0.45 11.01 C-0.27 14.42, 0.12 18.25, 1.09 20.45 C2.07 22.66, 3.42 23.56, 5.41 24.24 C7.4 24.92, 10.84 24.98, 13.05 24.53 C15.26 24.08, 17.39 22.81, 18.66 21.55 C19.92 20.3, 20.23 19.06, 20.66 17 C21.1 14.94, 21.15 12.49, 21.26 9.19 C21.37 5.88, 21.51 0.14, 21.34 -2.81 C21.17 -5.76, 20.88 -6.73, 20.24 -8.51 C19.61 -10.3, 18.75 -12.24, 17.52 -13.5 C16.3 -14.77, 14.38 -15.67, 12.89 -16.11 C11.39 -16.54, 9.93 -16.55, 8.55 -16.11 C7.16 -15.67, 5.74 -14.69, 4.57 -13.46 C3.4 -12.23, 2.32 -10.96, 1.56 -8.72 C0.8 -6.47, 0.26 -1.45, 0 0" stroke="#E1E1E1" stroke-width="4" fill="none"></path></g></g><mask></mask><g stroke-linecap="round"><g transform="translate(1417.311350277141 237.0785404639414) rotate(0 22.095992590985674 17.403294638522993)"><path d="M0 0 C-0.51 1.67, -2.38 6.42, -3.04 10.02 C-3.7 13.63, -4.39 17.66, -3.97 21.63 C-3.55 25.6, -2.13 30.28, -0.53 33.84 C1.06 37.4, 3.06 40.74, 5.59 42.99 C8.12 45.24, 11.3 46.5, 14.63 47.36 C17.95 48.22, 21.85 48.68, 25.54 48.14 C29.23 47.59, 33.8 45.81, 36.78 44.07 C39.76 42.34, 41.67 40.13, 43.42 37.71 C45.17 35.3, 46.48 32.6, 47.27 29.58 C48.06 26.56, 48.06 22.88, 48.16 19.58 C48.26 16.29, 48.41 13.08, 47.87 9.78 C47.34 6.49, 46.45 2.8, 44.97 -0.18 C43.49 -3.15, 41.25 -6.1, 39 -8.07 C36.75 -10.03, 34.22 -11.09, 31.47 -11.96 C28.72 -12.84, 25.67 -13.27, 22.48 -13.33 C19.29 -13.39, 15.19 -13.08, 12.36 -12.29 C9.52 -11.51, 7.52 -10.66, 5.46 -8.61 C3.4 -6.56, 0.91 -1.43, 0 0 M0 0 C-0.51 1.67, -2.38 6.42, -3.04 10.02 C-3.7 13.63, -4.39 17.66, -3.97 21.63 C-3.55 25.6, -2.13 30.28, -0.53 33.84 C1.06 37.4, 3.06 40.74, 5.59 42.99 C8.12 45.24, 11.3 46.5, 14.63 47.36 C17.95 48.22, 21.85 48.68, 25.54 48.14 C29.23 47.59, 33.8 45.81, 36.78 44.07 C39.76 42.34, 41.67 40.13, 43.42 37.71 C45.17 35.3, 46.48 32.6, 47.27 29.58 C48.06 26.56, 48.06 22.88, 48.16 19.58 C48.26 16.29, 48.41 13.08, 47.87 9.78 C47.34 6.49, 46.45 2.8, 44.97 -0.18 C43.49 -3.15, 41.25 -6.1, 39 -8.07 C36.75 -10.03, 34.22 -11.09, 31.47 -11.96 C28.72 -12.84, 25.67 -13.27, 22.48 -13.33 C19.29 -13.39, 15.19 -13.08, 12.36 -12.29 C9.52 -11.51, 7.52 -10.66, 5.46 -8.61 C3.4 -6.56, 0.91 -1.43, 0 0" stroke="#E1E1E1" stroke-width="4" fill="none"></path></g></g><mask></mask></svg>