<svg version="1.1" xmlns="http://www.w3.org/2000/svg" viewBox="0 0 700.2195235139079 1015.0055243277975" width="700.2195235139079" height="1015.0055243277975" class="excalidraw-svg"><!-- svg-source:excalidraw --><metadata></metadata><defs><style class="style-fonts">
      </style></defs><rect x="0" y="0" width="700.2195235139079" height="1015.0055243277975" fill="#000000"></rect><g stroke-linecap="round"><g transform="translate(344.7061428179045 18.089743313702456) rotate(0 21.706446706983343 453.558888783321)"><path d="M0 0 C3.14 0.2, 8.88 -0.14, 18.86 1.22 C28.84 2.57, 46.05 5.06, 59.87 8.13 C73.7 11.19, 87.28 14.37, 101.79 19.61 C116.31 24.86, 132.23 31.58, 146.97 39.61 C161.71 47.65, 176.91 57.69, 190.24 67.83 C203.57 77.98, 215.77 89.28, 226.95 100.47 C238.13 111.67, 248.58 123.25, 257.33 135.02 C266.08 146.8, 273.93 160.38, 279.47 171.14 C285.02 181.9, 287.86 187.12, 290.6 199.58 C293.34 212.05, 294.88 230.05, 295.92 245.94 C296.96 261.83, 296.74 281.71, 296.87 294.94 C296.99 308.17, 297.26 313.94, 296.67 325.31 C296.09 336.69, 293.71 352.54, 293.36 363.19 C293.01 373.84, 295.36 383.32, 294.58 389.21 C293.8 395.1, 291.03 393.42, 288.65 398.55 C286.28 403.67, 282.01 411.39, 280.32 419.95 C278.63 428.52, 278.79 440.45, 278.51 449.93 C278.23 459.42, 278.2 471.23, 278.64 476.87 C279.07 482.52, 280.19 486.09, 281.14 483.79 C282.08 481.49, 283.77 470.5, 284.3 463.07 C284.82 455.63, 283.56 446.93, 284.3 439.19 C285.05 431.46, 286.88 423.45, 288.77 416.66 C290.66 409.88, 291.79 402.78, 295.64 398.49 C299.49 394.19, 307.81 391.44, 311.85 390.88 C315.89 390.33, 317.1 391.81, 319.9 395.15 C322.69 398.49, 326.22 403.28, 328.62 410.92 C331.01 418.55, 333.12 430.41, 334.27 440.94 C335.42 451.47, 336.11 462.1, 335.54 474.09 C334.98 486.07, 333.57 501.89, 330.89 512.84 C328.21 523.79, 322.81 532.74, 319.46 539.77 C316.11 546.8, 312.74 549.97, 310.79 555.03 C308.83 560.09, 309.82 563.62, 307.71 570.15 C305.59 576.68, 302.42 588.09, 298.1 594.22 C293.78 600.35, 286.85 604.41, 281.77 606.92 C276.69 609.43, 270.96 608.59, 267.61 609.31 C264.26 610.02, 262.39 614.44, 261.65 611.2 C260.92 607.96, 262.07 596.77, 263.2 589.86 C264.33 582.95, 267.11 576.06, 268.42 569.74 C269.74 563.41, 269.7 556.17, 271.08 551.91 C272.46 547.66, 275.09 544.05, 276.71 544.19 C278.32 544.34, 277.96 551.21, 280.76 552.77 C283.56 554.33, 289.65 555.19, 293.5 553.55 C297.35 551.92, 303.15 544.57, 303.84 542.96 C304.53 541.35, 300.18 543.68, 297.65 543.92 C295.12 544.16, 290.85 544.58, 288.67 544.4 C286.49 544.22, 285.22 544.44, 284.58 542.82 C283.93 541.21, 284.09 537.25, 284.78 534.68 C285.47 532.12, 287.28 530.53, 288.71 527.44 C290.13 524.34, 292.57 519.87, 293.35 516.11 C294.13 512.36, 294.62 507.52, 293.37 504.9 C292.12 502.28, 287.68 502.58, 285.85 500.38 C284.03 498.17, 284.08 492.91, 282.4 491.69 C280.72 490.48, 277.16 491.35, 275.78 493.09 C274.39 494.83, 274.38 498.66, 274.1 502.15 C273.82 505.64, 274.43 511.07, 274.1 514.02 C273.77 516.98, 272.82 517.29, 272.1 519.89 C271.38 522.5, 270.37 526.32, 269.76 529.65 C269.16 532.98, 269.91 536.81, 268.47 539.87 C267.03 542.93, 262.51 544.77, 261.13 548.03 C259.74 551.29, 261.17 555.06, 260.18 559.41 C259.18 563.77, 256.6 570.09, 255.17 574.17 C253.74 578.24, 254.94 578.97, 251.58 583.85 C248.23 588.73, 238.99 598.46, 235.06 603.43 C231.12 608.4, 232.09 608.14, 227.98 613.67 C223.87 619.2, 215.08 630.04, 210.37 636.59 C205.67 643.15, 202.51 647.85, 199.75 653.02 C196.99 658.18, 193.49 665.56, 193.81 667.6 C194.14 669.64, 198.61 668.39, 201.7 665.24 C204.78 662.09, 208.81 654.1, 212.33 648.69 C215.85 643.28, 219.05 637.93, 222.83 632.78 C226.61 627.63, 231.46 622.36, 235.01 617.79 C238.56 613.21, 241.34 609.19, 244.14 605.33 C246.95 601.47, 250.55 593.69, 251.83 594.61 C253.1 595.53, 252.35 603.8, 251.77 610.84 C251.2 617.88, 249.5 628.01, 248.4 636.84 C247.3 645.68, 246.78 652.75, 245.18 663.85 C243.58 674.96, 241.84 690.57, 238.8 703.47 C235.76 716.36, 232.04 729.3, 226.95 741.24 C221.86 753.19, 215.01 764.62, 208.26 775.15 C201.51 785.68, 193.66 795.63, 186.44 804.42 C179.22 813.21, 173.46 818.93, 164.94 827.88 C156.42 836.83, 145.69 848.56, 135.3 858.13 C124.91 867.71, 112.57 878.51, 102.59 885.32 C92.61 892.14, 82.88 895.68, 75.44 899.04 C68.01 902.39, 63.86 904.17, 57.98 905.45 C52.1 906.73, 46.71 906.33, 40.17 906.72 C33.63 907.11, 23.6 907.35, 18.74 907.79 C13.88 908.23, 11.24 908.37, 11.01 909.35 C10.77 910.33, 12.98 912.79, 17.36 913.67 C21.74 914.55, 29.6 914.76, 37.3 914.63 C45 914.51, 55.07 914.33, 63.55 912.91 C72.04 911.49, 80.61 909.33, 88.19 906.12 C95.77 902.92, 101.43 899.23, 109.02 893.67 C116.61 888.1, 125.71 880, 133.73 872.73 C141.74 865.47, 147.54 859.74, 157.11 850.08 C166.67 840.42, 180.28 827.56, 191.11 814.76 C201.94 801.96, 213.84 786.33, 222.1 773.28 C230.35 760.24, 236.07 749.23, 240.66 736.51 C245.25 723.79, 247.18 709.88, 249.64 696.96 C252.09 684.04, 253.84 671.22, 255.4 658.99 C256.96 646.76, 256.92 630.24, 259 623.57 C261.08 616.9, 264.62 620.1, 267.89 618.98 C271.15 617.85, 274.13 618.44, 278.6 616.83 C283.07 615.23, 290.19 612.95, 294.72 609.34 C299.25 605.74, 302.76 599.7, 305.78 595.2 C308.79 590.71, 310.44 587.76, 312.8 582.38 C315.16 577, 318.37 567.49, 319.95 562.94 C321.54 558.39, 320.53 558.74, 322.32 555.09 C324.12 551.43, 328.11 546.4, 330.72 541.03 C333.34 535.66, 336.2 529.89, 338.02 522.89 C339.84 515.88, 340.39 507.48, 341.64 498.99 C342.88 490.5, 345.3 482.18, 345.5 471.96 C345.69 461.75, 344.18 447.44, 342.81 437.72 C341.45 428, 339.59 420.9, 337.31 413.63 C335.02 406.36, 332.49 399.08, 329.1 394.1 C325.71 389.13, 320.54 385.46, 316.98 383.78 C313.43 382.1, 310.18 383.76, 307.76 384.01 C305.35 384.26, 303.45 386.71, 302.49 385.3 C301.54 383.88, 301.98 379.32, 302.03 375.52 C302.08 371.71, 302.2 367.42, 302.77 362.47 C303.34 357.53, 304.77 352.14, 305.44 345.85 C306.11 339.56, 306.52 333.99, 306.76 324.73 C307.01 315.47, 306.9 301.8, 306.92 290.29 C306.95 278.79, 307.23 267.43, 306.91 255.72 C306.59 244.01, 306.04 230.42, 305 220.03 C303.97 209.64, 303.28 202.26, 300.69 193.37 C298.09 184.48, 295.09 177.11, 289.44 166.68 C283.79 156.25, 275.06 142.16, 266.77 130.79 C258.49 119.42, 249.38 108.74, 239.74 98.49 C230.09 88.23, 220.15 78.34, 208.9 69.23 C197.66 60.12, 185.05 51.78, 172.28 43.84 C159.51 35.89, 145.32 27.67, 132.26 21.57 C119.21 15.47, 106.1 11.08, 93.93 7.25 C81.76 3.42, 72.07 1.05, 59.25 -1.41 C46.43 -3.87, 29.99 -6.57, 17.01 -7.52 C4.03 -8.46, -6.51 -8.18, -18.61 -7.09 C-30.72 -6, -45.48 -2.88, -55.62 -0.97 C-65.77 0.95, -69.54 1.5, -79.46 4.4 C-89.38 7.31, -103.27 11.52, -115.16 16.46 C-127.04 21.41, -140.57 28.7, -150.75 34.1 C-160.94 39.5, -167.28 42.91, -176.27 48.86 C-185.27 54.81, -195.51 62.18, -204.72 69.78 C-213.94 77.39, -222.71 85.25, -231.55 94.49 C-240.4 103.73, -250.62 115.64, -257.8 125.23 C-264.97 134.82, -270.56 145.71, -274.61 152.04 C-278.65 158.37, -279.04 157.56, -282.09 163.21 C-285.14 168.87, -290.43 179.03, -292.9 185.97 C-295.36 192.91, -295.39 195.72, -296.87 204.86 C-298.35 214, -300.91 228.18, -301.78 240.8 C-302.65 253.43, -302.32 266.59, -302.08 280.61 C-301.85 294.64, -300.96 313.35, -300.38 324.96 C-299.79 336.56, -299.22 342.17, -298.57 350.22 C-297.91 358.26, -297.39 368.49, -296.47 373.24 C-295.56 377.98, -293.88 380.75, -293.06 378.71 C-292.24 376.66, -291.74 368.23, -291.56 360.97 C-291.39 353.7, -291.95 344.76, -292 335.1 C-292.05 325.43, -291.84 314.23, -291.87 302.96 C-291.91 291.7, -292.55 279.54, -292.21 267.49 C-291.87 255.44, -290.51 240.11, -289.82 230.65 C-289.12 221.19, -289.79 218.93, -288.02 210.74 C-286.25 202.54, -283.16 191.22, -279.19 181.48 C-275.22 171.74, -269.43 161.17, -264.2 152.27 C-258.98 143.37, -253.89 135.95, -247.86 128.07 C-241.82 120.18, -236.63 113.77, -227.97 104.98 C-219.3 96.19, -207.82 84.99, -195.86 75.3 C-183.91 65.61, -169.06 54.64, -156.25 46.82 C-143.43 39, -131.03 33.46, -118.96 28.38 C-106.9 23.3, -94.64 19.45, -83.86 16.34 C-73.08 13.24, -63.72 11.83, -54.28 9.78 C-44.85 7.72, -34.31 5.73, -27.23 4.01 C-20.16 2.3, -16.4 0.15, -11.86 -0.52 C-7.32 -1.19, -1.98 -0.09, 0 0 M0 0 C3.14 0.2, 8.88 -0.14, 18.86 1.22 C28.84 2.57, 46.05 5.06, 59.87 8.13 C73.7 11.19, 87.28 14.37, 101.79 19.61 C116.31 24.86, 132.23 31.58, 146.97 39.61 C161.71 47.65, 176.91 57.69, 190.24 67.83 C203.57 77.98, 215.77 89.28, 226.95 100.47 C238.13 111.67, 248.58 123.25, 257.33 135.02 C266.08 146.8, 273.93 160.38, 279.47 171.14 C285.02 181.9, 287.86 187.12, 290.6 199.58 C293.34 212.05, 294.88 230.05, 295.92 245.94 C296.96 261.83, 296.74 281.71, 296.87 294.94 C296.99 308.17, 297.26 313.94, 296.67 325.31 C296.09 336.69, 293.71 352.54, 293.36 363.19 C293.01 373.84, 295.36 383.32, 294.58 389.21 C293.8 395.1, 291.03 393.42, 288.65 398.55 C286.28 403.67, 282.01 411.39, 280.32 419.95 C278.63 428.52, 278.79 440.45, 278.51 449.93 C278.23 459.42, 278.2 471.23, 278.64 476.87 C279.07 482.52, 280.19 486.09, 281.14 483.79 C282.08 481.49, 283.77 470.5, 284.3 463.07 C284.82 455.63, 283.56 446.93, 284.3 439.19 C285.05 431.46, 286.88 423.45, 288.77 416.66 C290.66 409.88, 291.79 402.78, 295.64 398.49 C299.49 394.19, 307.81 391.44, 311.85 390.88 C315.89 390.33, 317.1 391.81, 319.9 395.15 C322.69 398.49, 326.22 403.28, 328.62 410.92 C331.01 418.55, 333.12 430.41, 334.27 440.94 C335.42 451.47, 336.11 462.1, 335.54 474.09 C334.98 486.07, 333.57 501.89, 330.89 512.84 C328.21 523.79, 322.81 532.74, 319.46 539.77 C316.11 546.8, 312.74 549.97, 310.79 555.03 C308.83 560.09, 309.82 563.62, 307.71 570.15 C305.59 576.68, 302.42 588.09, 298.1 594.22 C293.78 600.35, 286.85 604.41, 281.77 606.92 C276.69 609.43, 270.96 608.59, 267.61 609.31 C264.26 610.02, 262.39 614.44, 261.65 611.2 C260.92 607.96, 262.07 596.77, 263.2 589.86 C264.33 582.95, 267.11 576.06, 268.42 569.74 C269.74 563.41, 269.7 556.17, 271.08 551.91 C272.46 547.66, 275.09 544.05, 276.71 544.19 C278.32 544.34, 277.96 551.21, 280.76 552.77 C283.56 554.33, 289.65 555.19, 293.5 553.55 C297.35 551.92, 303.15 544.57, 303.84 542.96 C304.53 541.35, 300.18 543.68, 297.65 543.92 C295.12 544.16, 290.85 544.58, 288.67 544.4 C286.49 544.22, 285.22 544.44, 284.58 542.82 C283.93 541.21, 284.09 537.25, 284.78 534.68 C285.47 532.12, 287.28 530.53, 288.71 527.44 C290.13 524.34, 292.57 519.87, 293.35 516.11 C294.13 512.36, 294.62 507.52, 293.37 504.9 C292.12 502.28, 287.68 502.58, 285.85 500.38 C284.03 498.17, 284.08 492.91, 282.4 491.69 C280.72 490.48, 277.16 491.35, 275.78 493.09 C274.39 494.83, 274.38 498.66, 274.1 502.15 C273.82 505.64, 274.43 511.07, 274.1 514.02 C273.77 516.98, 272.82 517.29, 272.1 519.89 C271.38 522.5, 270.37 526.32, 269.76 529.65 C269.16 532.98, 269.91 536.81, 268.47 539.87 C267.03 542.93, 262.51 544.77, 261.13 548.03 C259.74 551.29, 261.17 555.06, 260.18 559.41 C259.18 563.77, 256.6 570.09, 255.17 574.17 C253.74 578.24, 254.94 578.97, 251.58 583.85 C248.23 588.73, 238.99 598.46, 235.06 603.43 C231.12 608.4, 232.09 608.14, 227.98 613.67 C223.87 619.2, 215.08 630.04, 210.37 636.59 C205.67 643.15, 202.51 647.85, 199.75 653.02 C196.99 658.18, 193.49 665.56, 193.81 667.6 C194.14 669.64, 198.61 668.39, 201.7 665.24 C204.78 662.09, 208.81 654.1, 212.33 648.69 C215.85 643.28, 219.05 637.93, 222.83 632.78 C226.61 627.63, 231.46 622.36, 235.01 617.79 C238.56 613.21, 241.34 609.19, 244.14 605.33 C246.95 601.47, 250.55 593.69, 251.83 594.61 C253.1 595.53, 252.35 603.8, 251.77 610.84 C251.2 617.88, 249.5 628.01, 248.4 636.84 C247.3 645.68, 246.78 652.75, 245.18 663.85 C243.58 674.96, 241.84 690.57, 238.8 703.47 C235.76 716.36, 232.04 729.3, 226.95 741.24 C221.86 753.19, 215.01 764.62, 208.26 775.15 C201.51 785.68, 193.66 795.63, 186.44 804.42 C179.22 813.21, 173.46 818.93, 164.94 827.88 C156.42 836.83, 145.69 848.56, 135.3 858.13 C124.91 867.71, 112.57 878.51, 102.59 885.32 C92.61 892.14, 82.88 895.68, 75.44 899.04 C68.01 902.39, 63.86 904.17, 57.98 905.45 C52.1 906.73, 46.71 906.33, 40.17 906.72 C33.63 907.11, 23.6 907.35, 18.74 907.79 C13.88 908.23, 11.24 908.37, 11.01 909.35 C10.77 910.33, 12.98 912.79, 17.36 913.67 C21.74 914.55, 29.6 914.76, 37.3 914.63 C45 914.51, 55.07 914.33, 63.55 912.91 C72.04 911.49, 80.61 909.33, 88.19 906.12 C95.77 902.92, 101.43 899.23, 109.02 893.67 C116.61 888.1, 125.71 880, 133.73 872.73 C141.74 865.47, 147.54 859.74, 157.11 850.08 C166.67 840.42, 180.28 827.56, 191.11 814.76 C201.94 801.96, 213.84 786.33, 222.1 773.28 C230.35 760.24, 236.07 749.23, 240.66 736.51 C245.25 723.79, 247.18 709.88, 249.64 696.96 C252.09 684.04, 253.84 671.22, 255.4 658.99 C256.96 646.76, 256.92 630.24, 259 623.57 C261.08 616.9, 264.62 620.1, 267.89 618.98 C271.15 617.85, 274.13 618.44, 278.6 616.83 C283.07 615.23, 290.19 612.95, 294.72 609.34 C299.25 605.74, 302.76 599.7, 305.78 595.2 C308.79 590.71, 310.44 587.76, 312.8 582.38 C315.16 577, 318.37 567.49, 319.95 562.94 C321.54 558.39, 320.53 558.74, 322.32 555.09 C324.12 551.43, 328.11 546.4, 330.72 541.03 C333.34 535.66, 336.2 529.89, 338.02 522.89 C339.84 515.88, 340.39 507.48, 341.64 498.99 C342.88 490.5, 345.3 482.18, 345.5 471.96 C345.69 461.75, 344.18 447.44, 342.81 437.72 C341.45 428, 339.59 420.9, 337.31 413.63 C335.02 406.36, 332.49 399.08, 329.1 394.1 C325.71 389.13, 320.54 385.46, 316.98 383.78 C313.43 382.1, 310.18 383.76, 307.76 384.01 C305.35 384.26, 303.45 386.71, 302.49 385.3 C301.54 383.88, 301.98 379.32, 302.03 375.52 C302.08 371.71, 302.2 367.42, 302.77 362.47 C303.34 357.53, 304.77 352.14, 305.44 345.85 C306.11 339.56, 306.52 333.99, 306.76 324.73 C307.01 315.47, 306.9 301.8, 306.92 290.29 C306.95 278.79, 307.23 267.43, 306.91 255.72 C306.59 244.01, 306.04 230.42, 305 220.03 C303.97 209.64, 303.28 202.26, 300.69 193.37 C298.09 184.48, 295.09 177.11, 289.44 166.68 C283.79 156.25, 275.06 142.16, 266.77 130.79 C258.49 119.42, 249.38 108.74, 239.74 98.49 C230.09 88.23, 220.15 78.34, 208.9 69.23 C197.66 60.12, 185.05 51.78, 172.28 43.84 C159.51 35.89, 145.32 27.67, 132.26 21.57 C119.21 15.47, 106.1 11.08, 93.93 7.25 C81.76 3.42, 72.07 1.05, 59.25 -1.41 C46.43 -3.87, 29.99 -6.57, 17.01 -7.52 C4.03 -8.46, -6.51 -8.18, -18.61 -7.09 C-30.72 -6, -45.48 -2.88, -55.62 -0.97 C-65.77 0.95, -69.54 1.5, -79.46 4.4 C-89.38 7.31, -103.27 11.52, -115.16 16.46 C-127.04 21.41, -140.57 28.7, -150.75 34.1 C-160.94 39.5, -167.28 42.91, -176.27 48.86 C-185.27 54.81, -195.51 62.18, -204.72 69.78 C-213.94 77.39, -222.71 85.25, -231.55 94.49 C-240.4 103.73, -250.62 115.64, -257.8 125.23 C-264.97 134.82, -270.56 145.71, -274.61 152.04 C-278.65 158.37, -279.04 157.56, -282.09 163.21 C-285.14 168.87, -290.43 179.03, -292.9 185.97 C-295.36 192.91, -295.39 195.72, -296.87 204.86 C-298.35 214, -300.91 228.18, -301.78 240.8 C-302.65 253.43, -302.32 266.59, -302.08 280.61 C-301.85 294.64, -300.96 313.35, -300.38 324.96 C-299.79 336.56, -299.22 342.17, -298.57 350.22 C-297.91 358.26, -297.39 368.49, -296.47 373.24 C-295.56 377.98, -293.88 380.75, -293.06 378.71 C-292.24 376.66, -291.74 368.23, -291.56 360.97 C-291.39 353.7, -291.95 344.76, -292 335.1 C-292.05 325.43, -291.84 314.23, -291.87 302.96 C-291.91 291.7, -292.55 279.54, -292.21 267.49 C-291.87 255.44, -290.51 240.11, -289.82 230.65 C-289.12 221.19, -289.79 218.93, -288.02 210.74 C-286.25 202.54, -283.16 191.22, -279.19 181.48 C-275.22 171.74, -269.43 161.17, -264.2 152.27 C-258.98 143.37, -253.89 135.95, -247.86 128.07 C-241.82 120.18, -236.63 113.77, -227.97 104.98 C-219.3 96.19, -207.82 84.99, -195.86 75.3 C-183.91 65.61, -169.06 54.64, -156.25 46.82 C-143.43 39, -131.03 33.46, -118.96 28.38 C-106.9 23.3, -94.64 19.45, -83.86 16.34 C-73.08 13.24, -63.72 11.83, -54.28 9.78 C-44.85 7.72, -34.31 5.73, -27.23 4.01 C-20.16 2.3, -16.4 0.15, -11.86 -0.52 C-7.32 -1.19, -1.98 -0.09, 0 0" stroke="#E1E1E1" stroke-width="2" fill="none"></path></g></g><mask></mask><g stroke-linecap="round"><g transform="translate(75.20252352609168 454.42810624078083) rotate(0 3.8216462214370495 247.18028229386255)"><path d="M0 0 C0.01 4.69, -0.35 20.1, 0.08 28.16 C0.51 36.22, 1.64 47.35, 2.59 48.36 C3.54 49.36, 4.83 37.67, 5.79 34.19 C6.75 30.71, 7.76 31.33, 8.35 27.48 C8.95 23.62, 9.57 15.62, 9.36 11.04 C9.15 6.46, 7.67 3.3, 7.09 -0.03 C6.52 -3.35, 6.73 -4.8, 5.92 -8.9 C5.12 -12.99, 4.66 -19.41, 2.26 -24.61 C-0.15 -29.82, -5.67 -36.64, -8.52 -40.12 C-11.38 -43.59, -12.57 -44.37, -14.86 -45.46 C-17.15 -46.55, -20.92 -44.95, -22.26 -46.68 C-23.61 -48.41, -22.25 -55.09, -22.93 -55.84 C-23.6 -56.59, -24.71 -51.74, -26.32 -51.18 C-27.93 -50.63, -29.99 -52.77, -32.58 -52.5 C-35.17 -52.24, -38.72 -51.68, -41.84 -49.62 C-44.95 -47.55, -48.38 -44.35, -51.26 -40.12 C-54.13 -35.89, -57.15 -30.53, -59.09 -24.23 C-61.03 -17.94, -61.86 -12.61, -62.88 -2.33 C-63.9 7.95, -65.3 24.48, -65.2 37.47 C-65.09 50.46, -64.78 63.99, -62.25 75.62 C-59.71 87.25, -53.66 99.27, -49.97 107.24 C-46.29 115.2, -42.8 116.6, -40.16 123.39 C-37.52 130.19, -37.24 140.6, -34.12 147.98 C-30.99 155.36, -26.47 162.58, -21.4 167.67 C-16.32 172.76, -9.67 175.86, -3.66 178.5 C2.34 181.13, 10.97 182.52, 14.66 183.48 C18.35 184.45, 17.48 181.76, 18.49 184.3 C19.51 186.84, 20.17 192.82, 20.76 198.74 C21.35 204.66, 21.22 213.23, 22.04 219.83 C22.85 226.44, 24.14 229.78, 25.64 238.38 C27.14 246.97, 28.43 259.73, 31.02 271.41 C33.61 283.09, 37.42 298.21, 41.18 308.46 C44.93 318.7, 50.07 326.91, 53.54 332.86 C57.01 338.81, 60.49 340.64, 62.02 344.16 C63.54 347.69, 62.5 349.25, 62.67 354 C62.84 358.76, 63.2 365.63, 63.06 372.69 C62.91 379.75, 62.02 385.15, 61.82 396.39 C61.62 407.62, 62.02 426.16, 61.86 440.11 C61.71 454.07, 60.96 469.32, 60.89 480.1 C60.81 490.89, 61.13 495.13, 61.41 504.82 C61.7 514.52, 61.93 530.71, 62.59 538.27 C63.26 545.83, 64.18 552.22, 65.39 550.2 C66.6 548.18, 68.7 535.61, 69.85 526.15 C71 516.69, 71.8 505.37, 72.29 493.45 C72.79 481.53, 73.35 471.84, 72.84 454.62 C72.33 437.41, 70.06 404.93, 69.25 390.18 C68.44 375.43, 68.38 371.69, 67.99 366.12 C67.6 360.56, 67.65 359.01, 66.91 356.79 C66.18 354.57, 64.13 353.46, 63.58 352.8 M0 0 C0.01 4.69, -0.35 20.1, 0.08 28.16 C0.51 36.22, 1.64 47.35, 2.59 48.36 C3.54 49.36, 4.83 37.67, 5.79 34.19 C6.75 30.71, 7.76 31.33, 8.35 27.48 C8.95 23.62, 9.57 15.62, 9.36 11.04 C9.15 6.46, 7.67 3.3, 7.09 -0.03 C6.52 -3.35, 6.73 -4.8, 5.92 -8.9 C5.12 -12.99, 4.66 -19.41, 2.26 -24.61 C-0.15 -29.82, -5.67 -36.64, -8.52 -40.12 C-11.38 -43.59, -12.57 -44.37, -14.86 -45.46 C-17.15 -46.55, -20.92 -44.95, -22.26 -46.68 C-23.61 -48.41, -22.25 -55.09, -22.93 -55.84 C-23.6 -56.59, -24.71 -51.74, -26.32 -51.18 C-27.93 -50.63, -29.99 -52.77, -32.58 -52.5 C-35.17 -52.24, -38.72 -51.68, -41.84 -49.62 C-44.95 -47.55, -48.38 -44.35, -51.26 -40.12 C-54.13 -35.89, -57.15 -30.53, -59.09 -24.23 C-61.03 -17.94, -61.86 -12.61, -62.88 -2.33 C-63.9 7.95, -65.3 24.48, -65.2 37.47 C-65.09 50.46, -64.78 63.99, -62.25 75.62 C-59.71 87.25, -53.66 99.27, -49.97 107.24 C-46.29 115.2, -42.8 116.6, -40.16 123.39 C-37.52 130.19, -37.24 140.6, -34.12 147.98 C-30.99 155.36, -26.47 162.58, -21.4 167.67 C-16.32 172.76, -9.67 175.86, -3.66 178.5 C2.34 181.13, 10.97 182.52, 14.66 183.48 C18.35 184.45, 17.48 181.76, 18.49 184.3 C19.51 186.84, 20.17 192.82, 20.76 198.74 C21.35 204.66, 21.22 213.23, 22.04 219.83 C22.85 226.44, 24.14 229.78, 25.64 238.38 C27.14 246.97, 28.43 259.73, 31.02 271.41 C33.61 283.09, 37.42 298.21, 41.18 308.46 C44.93 318.7, 50.07 326.91, 53.54 332.86 C57.01 338.81, 60.49 340.64, 62.02 344.16 C63.54 347.69, 62.5 349.25, 62.67 354 C62.84 358.76, 63.2 365.63, 63.06 372.69 C62.91 379.75, 62.02 385.15, 61.82 396.39 C61.62 407.62, 62.02 426.16, 61.86 440.11 C61.71 454.07, 60.96 469.32, 60.89 480.1 C60.81 490.89, 61.13 495.13, 61.41 504.82 C61.7 514.52, 61.93 530.71, 62.59 538.27 C63.26 545.83, 64.18 552.22, 65.39 550.2 C66.6 548.18, 68.7 535.61, 69.85 526.15 C71 516.69, 71.8 505.37, 72.29 493.45 C72.79 481.53, 73.35 471.84, 72.84 454.62 C72.33 437.41, 70.06 404.93, 69.25 390.18 C68.44 375.43, 68.38 371.69, 67.99 366.12 C67.6 360.56, 67.65 359.01, 66.91 356.79 C66.18 354.57, 64.13 353.46, 63.58 352.8" stroke="#E1E1E1" stroke-width="2" fill="none"></path></g></g><mask></mask><g stroke-linecap="round"><g transform="translate(138.44843863056622 799.8835844889227) rotate(0 82.10427713550894 -26.636381178480406)"><path d="M0 0 C2.75 4, 10.15 15.79, 16.52 24.02 C22.9 32.25, 30.39 41.09, 38.23 49.38 C46.07 57.66, 55.55 66.34, 63.57 73.75 C71.6 81.15, 78.34 86.83, 86.38 93.81 C94.42 100.79, 102.7 109.59, 111.81 115.64 C120.92 121.69, 131.57 127.18, 141.04 130.1 C150.52 133.03, 158.93 132.75, 168.67 133.2 C178.4 133.65, 194.18 133.64, 199.44 132.81 C204.7 131.97, 201.94 129.42, 200.23 128.19 C198.51 126.96, 194.66 125.98, 189.17 125.43 C183.68 124.87, 173.72 125.35, 167.29 124.85 C160.85 124.35, 157.51 124.55, 150.55 122.43 C143.59 120.31, 134.67 117.47, 125.5 112.12 C116.34 106.77, 104.74 97.82, 95.54 90.34 C86.34 82.86, 78.99 75.78, 70.32 67.25 C61.64 58.71, 51.06 47.54, 43.47 39.13 C35.89 30.71, 30.85 24.18, 24.79 16.74 C18.72 9.31, 12.32 2.41, 7.09 -5.49 C1.87 -13.39, -2.9 -23.19, -6.57 -30.65 C-10.24 -38.11, -12.18 -41.81, -14.92 -50.25 C-17.67 -58.68, -20.62 -70.32, -23.05 -81.27 C-25.48 -92.22, -27.9 -105.95, -29.49 -115.93 C-31.09 -125.91, -31.68 -133.98, -32.61 -141.16 C-33.55 -148.34, -34.52 -151.46, -35.09 -159.02 C-35.66 -166.57, -35.86 -181.89, -36.02 -186.47 M0 0 C2.75 4, 10.15 15.79, 16.52 24.02 C22.9 32.25, 30.39 41.09, 38.23 49.38 C46.07 57.66, 55.55 66.34, 63.57 73.75 C71.6 81.15, 78.34 86.83, 86.38 93.81 C94.42 100.79, 102.7 109.59, 111.81 115.64 C120.92 121.69, 131.57 127.18, 141.04 130.1 C150.52 133.03, 158.93 132.75, 168.67 133.2 C178.4 133.65, 194.18 133.64, 199.44 132.81 C204.7 131.97, 201.94 129.42, 200.23 128.19 C198.51 126.96, 194.66 125.98, 189.17 125.43 C183.68 124.87, 173.72 125.35, 167.29 124.85 C160.85 124.35, 157.51 124.55, 150.55 122.43 C143.59 120.31, 134.67 117.47, 125.5 112.12 C116.34 106.77, 104.74 97.82, 95.54 90.34 C86.34 82.86, 78.99 75.78, 70.32 67.25 C61.64 58.71, 51.06 47.54, 43.47 39.13 C35.89 30.71, 30.85 24.18, 24.79 16.74 C18.72 9.31, 12.32 2.41, 7.09 -5.49 C1.87 -13.39, -2.9 -23.19, -6.57 -30.65 C-10.24 -38.11, -12.18 -41.81, -14.92 -50.25 C-17.67 -58.68, -20.62 -70.32, -23.05 -81.27 C-25.48 -92.22, -27.9 -105.95, -29.49 -115.93 C-31.09 -125.91, -31.68 -133.98, -32.61 -141.16 C-33.55 -148.34, -34.52 -151.46, -35.09 -159.02 C-35.66 -166.57, -35.86 -181.89, -36.02 -186.47" stroke="#E1E1E1" stroke-width="2" fill="none"></path></g></g><mask></mask><g stroke-linecap="round"><g transform="translate(102.2356562781888 613.2307092832061) rotate(0 -13.744825153720285 -60.817795473943534)"><path d="M0 0 C1.78 2.5, 6.67 9.58, 10.7 15.02 C14.72 20.46, 19.76 26.74, 24.15 32.64 C28.55 38.54, 33.25 44.62, 37.07 50.4 C40.89 56.19, 44.26 62.08, 47.07 67.35 C49.88 72.61, 52.45 82.32, 53.93 82.01 C55.41 81.69, 57.16 70.79, 55.96 65.48 C54.76 60.17, 50.39 55.8, 46.75 50.14 C43.11 44.48, 38.6 37.88, 34.12 31.51 C29.65 25.14, 24.65 18.26, 19.92 11.91 C15.19 5.56, 9.6 -1.32, 5.73 -6.6 C1.85 -11.87, -0.82 -14.28, -3.31 -19.73 C-5.8 -25.18, -7.16 -32.73, -9.21 -39.29 C-11.26 -45.85, -14.25 -53.59, -15.61 -59.07 C-16.97 -64.56, -16.45 -68.76, -17.36 -72.21 C-18.27 -75.67, -20.03 -75.04, -21.08 -79.79 C-22.13 -84.54, -22.76 -100.75, -23.65 -100.71 C-24.54 -100.66, -26.45 -84.97, -26.41 -79.51 C-26.37 -74.05, -23.74 -70.99, -23.39 -67.93 C-23.04 -64.87, -23.57 -60.73, -24.3 -61.14 C-25.04 -61.55, -26.11 -67.29, -27.8 -70.41 C-29.49 -73.52, -33.36 -77.37, -34.44 -79.85 C-35.53 -82.33, -34.79 -83.18, -34.31 -85.29 C-33.83 -87.4, -31.08 -90.99, -31.55 -92.52 C-32.02 -94.05, -35.26 -95.46, -37.13 -94.47 C-39 -93.47, -42.36 -89.77, -42.78 -86.56 C-43.2 -83.34, -40.5 -78.86, -39.68 -75.19 C-38.85 -71.51, -38.95 -66.74, -37.84 -64.51 C-36.72 -62.27, -34 -63.83, -33.01 -61.76 C-32.01 -59.69, -31.24 -53.81, -31.86 -52.08 C-32.47 -50.35, -34.84 -51.6, -36.7 -51.37 C-38.57 -51.13, -41.18 -51.43, -43.03 -50.64 C-44.89 -49.85, -47.86 -48.3, -47.85 -46.63 C-47.83 -44.95, -45.49 -41.73, -42.94 -40.6 C-40.39 -39.48, -35.33 -39.71, -32.56 -39.85 C-29.79 -40, -27.68 -39.78, -26.32 -41.48 C-24.97 -43.18, -25.17 -49.91, -24.42 -50.05 C-23.67 -50.18, -22.8 -45.88, -21.84 -42.28 C-20.89 -38.68, -19.89 -32.8, -18.68 -28.44 C-17.47 -24.08, -15.59 -20.71, -14.57 -16.09 C-13.55 -11.48, -13.32 -5.79, -12.56 -0.77 C-11.79 4.25, -9.78 11.23, -10.01 14.02 C-10.24 16.81, -11.19 16.27, -13.92 15.98 C-16.65 15.69, -22.19 13.96, -26.37 12.27 C-30.55 10.57, -35.53 8.42, -39 5.81 C-42.46 3.19, -44.95 0.35, -47.17 -3.43 C-49.38 -7.21, -50.96 -13.03, -52.3 -16.86 C-53.63 -20.69, -54.54 -23.14, -55.18 -26.39 C-55.81 -29.63, -55.1 -32.93, -56.11 -36.33 C-57.13 -39.73, -59.08 -43.23, -61.26 -46.8 C-63.44 -50.36, -66.71 -53.19, -69.21 -57.7 C-71.7 -62.22, -74.62 -68.46, -76.23 -73.88 C-77.83 -79.29, -77.8 -85.49, -78.83 -90.21 C-79.85 -94.94, -81.61 -96.37, -82.38 -102.23 C-83.15 -108.09, -83.36 -117.52, -83.45 -125.38 C-83.54 -133.25, -83.66 -141.59, -82.89 -149.44 C-82.12 -157.29, -80.47 -165.61, -78.83 -172.47 C-77.18 -179.34, -75.09 -185.82, -73.01 -190.63 C-70.93 -195.44, -68.73 -199.16, -66.32 -201.33 C-63.91 -203.5, -61.41 -203.86, -58.58 -203.64 C-55.74 -203.42, -52.1 -201.04, -49.32 -200 C-46.55 -198.96, -44.03 -199.68, -41.93 -197.4 C-39.83 -195.12, -38.24 -189.14, -36.73 -186.32 C-35.21 -183.5, -34.15 -183.09, -32.83 -180.47 C-31.51 -177.85, -29.73 -174.32, -28.8 -170.62 C-27.86 -166.92, -27.49 -160.33, -27.23 -158.27 M0 0 C1.78 2.5, 6.67 9.58, 10.7 15.02 C14.72 20.46, 19.76 26.74, 24.15 32.64 C28.55 38.54, 33.25 44.62, 37.07 50.4 C40.89 56.19, 44.26 62.08, 47.07 67.35 C49.88 72.61, 52.45 82.32, 53.93 82.01 C55.41 81.69, 57.16 70.79, 55.96 65.48 C54.76 60.17, 50.39 55.8, 46.75 50.14 C43.11 44.48, 38.6 37.88, 34.12 31.51 C29.65 25.14, 24.65 18.26, 19.92 11.91 C15.19 5.56, 9.6 -1.32, 5.73 -6.6 C1.85 -11.87, -0.82 -14.28, -3.31 -19.73 C-5.8 -25.18, -7.16 -32.73, -9.21 -39.29 C-11.26 -45.85, -14.25 -53.59, -15.61 -59.07 C-16.97 -64.56, -16.45 -68.76, -17.36 -72.21 C-18.27 -75.67, -20.03 -75.04, -21.08 -79.79 C-22.13 -84.54, -22.76 -100.75, -23.65 -100.71 C-24.54 -100.66, -26.45 -84.97, -26.41 -79.51 C-26.37 -74.05, -23.74 -70.99, -23.39 -67.93 C-23.04 -64.87, -23.57 -60.73, -24.3 -61.14 C-25.04 -61.55, -26.11 -67.29, -27.8 -70.41 C-29.49 -73.52, -33.36 -77.37, -34.44 -79.85 C-35.53 -82.33, -34.79 -83.18, -34.31 -85.29 C-33.83 -87.4, -31.08 -90.99, -31.55 -92.52 C-32.02 -94.05, -35.26 -95.46, -37.13 -94.47 C-39 -93.47, -42.36 -89.77, -42.78 -86.56 C-43.2 -83.34, -40.5 -78.86, -39.68 -75.19 C-38.85 -71.51, -38.95 -66.74, -37.84 -64.51 C-36.72 -62.27, -34 -63.83, -33.01 -61.76 C-32.01 -59.69, -31.24 -53.81, -31.86 -52.08 C-32.47 -50.35, -34.84 -51.6, -36.7 -51.37 C-38.57 -51.13, -41.18 -51.43, -43.03 -50.64 C-44.89 -49.85, -47.86 -48.3, -47.85 -46.63 C-47.83 -44.95, -45.49 -41.73, -42.94 -40.6 C-40.39 -39.48, -35.33 -39.71, -32.56 -39.85 C-29.79 -40, -27.68 -39.78, -26.32 -41.48 C-24.97 -43.18, -25.17 -49.91, -24.42 -50.05 C-23.67 -50.18, -22.8 -45.88, -21.84 -42.28 C-20.89 -38.68, -19.89 -32.8, -18.68 -28.44 C-17.47 -24.08, -15.59 -20.71, -14.57 -16.09 C-13.55 -11.48, -13.32 -5.79, -12.56 -0.77 C-11.79 4.25, -9.78 11.23, -10.01 14.02 C-10.24 16.81, -11.19 16.27, -13.92 15.98 C-16.65 15.69, -22.19 13.96, -26.37 12.27 C-30.55 10.57, -35.53 8.42, -39 5.81 C-42.46 3.19, -44.95 0.35, -47.17 -3.43 C-49.38 -7.21, -50.96 -13.03, -52.3 -16.86 C-53.63 -20.69, -54.54 -23.14, -55.18 -26.39 C-55.81 -29.63, -55.1 -32.93, -56.11 -36.33 C-57.13 -39.73, -59.08 -43.23, -61.26 -46.8 C-63.44 -50.36, -66.71 -53.19, -69.21 -57.7 C-71.7 -62.22, -74.62 -68.46, -76.23 -73.88 C-77.83 -79.29, -77.8 -85.49, -78.83 -90.21 C-79.85 -94.94, -81.61 -96.37, -82.38 -102.23 C-83.15 -108.09, -83.36 -117.52, -83.45 -125.38 C-83.54 -133.25, -83.66 -141.59, -82.89 -149.44 C-82.12 -157.29, -80.47 -165.61, -78.83 -172.47 C-77.18 -179.34, -75.09 -185.82, -73.01 -190.63 C-70.93 -195.44, -68.73 -199.16, -66.32 -201.33 C-63.91 -203.5, -61.41 -203.86, -58.58 -203.64 C-55.74 -203.42, -52.1 -201.04, -49.32 -200 C-46.55 -198.96, -44.03 -199.68, -41.93 -197.4 C-39.83 -195.12, -38.24 -189.14, -36.73 -186.32 C-35.21 -183.5, -34.15 -183.09, -32.83 -180.47 C-31.51 -177.85, -29.73 -174.32, -28.8 -170.62 C-27.86 -166.92, -27.49 -160.33, -27.23 -158.27" stroke="#E1E1E1" stroke-width="2" fill="none"></path></g></g><mask></mask><g stroke-linecap="round"><g transform="translate(42.93091935860684 414.1687954984318) rotate(0 8.686664666255865 23.7696400210325)"><path d="M0 0 C0.86 0.7, 3.08 0.88, 5.17 4.2 C7.26 7.52, 9.91 14.42, 12.54 19.94 C15.17 25.46, 19.59 32.71, 20.96 37.31 C22.34 41.91, 21.72 46.28, 20.8 47.54 C19.87 48.8, 17.43 47.4, 15.4 44.89 C13.38 42.38, 10.49 36.82, 8.65 32.47 C6.8 28.11, 5.68 22.45, 4.33 18.75 C2.98 15.05, 1.85 12.58, 0.53 10.27 C-0.79 7.96, -2.92 6.4, -3.59 4.88 C-4.26 3.36, -4.12 1.97, -3.52 1.16 C-2.92 0.34, -0.59 0.19, 0 0 M0 0 C0.86 0.7, 3.08 0.88, 5.17 4.2 C7.26 7.52, 9.91 14.42, 12.54 19.94 C15.17 25.46, 19.59 32.71, 20.96 37.31 C22.34 41.91, 21.72 46.28, 20.8 47.54 C19.87 48.8, 17.43 47.4, 15.4 44.89 C13.38 42.38, 10.49 36.82, 8.65 32.47 C6.8 28.11, 5.68 22.45, 4.33 18.75 C2.98 15.05, 1.85 12.58, 0.53 10.27 C-0.79 7.96, -2.92 6.4, -3.59 4.88 C-4.26 3.36, -4.12 1.97, -3.52 1.16 C-2.92 0.34, -0.59 0.19, 0 0" stroke="#E1E1E1" stroke-width="2" fill="none"></path></g></g><mask></mask><g stroke-linecap="round"><g transform="translate(23.450585924508232 444.8284064638374) rotate(0 6.196753088514697 42.73841717085179)"><path d="M0 0 C0.44 1.56, 1.9 10.01, 2.66 9.38 C3.41 8.74, 3.42 -0.66, 4.51 -3.8 C5.6 -6.93, 7.97 -9.93, 9.22 -9.43 C10.46 -8.93, 11.99 -5.17, 11.98 -0.79 C11.97 3.58, 9.63 9.64, 9.17 16.8 C8.71 23.96, 9.49 35.63, 9.21 42.17 C8.93 48.7, 7.26 51.18, 7.48 56.02 C7.69 60.87, 9.7 66.15, 10.52 71.21 C11.34 76.26, 13.32 82.42, 12.39 86.37 C11.47 90.32, 6.23 93.48, 4.99 94.91 M0 0 C0.44 1.56, 1.9 10.01, 2.66 9.38 C3.41 8.74, 3.42 -0.66, 4.51 -3.8 C5.6 -6.93, 7.97 -9.93, 9.22 -9.43 C10.46 -8.93, 11.99 -5.17, 11.98 -0.79 C11.97 3.58, 9.63 9.64, 9.17 16.8 C8.71 23.96, 9.49 35.63, 9.21 42.17 C8.93 48.7, 7.26 51.18, 7.48 56.02 C7.69 60.87, 9.7 66.15, 10.52 71.21 C11.34 76.26, 13.32 82.42, 12.39 86.37 C11.47 90.32, 6.23 93.48, 4.99 94.91" stroke="#E1E1E1" stroke-width="2" fill="none"></path></g></g><mask></mask><g stroke-linecap="round"><g transform="translate(25.843251159099054 530.3572405862533) rotate(0 -0.4058684182864454 -9.979230643960364)"><path d="M0 0 C0.23 -1.41, 1.41 -5.12, 1.4 -8.45 C1.38 -11.78, 0.51 -19.88, -0.09 -19.96 C-0.69 -20.03, -1.85 -10.74, -2.21 -8.89 M0 0 C0.23 -1.41, 1.41 -5.12, 1.4 -8.45 C1.38 -11.78, 0.51 -19.88, -0.09 -19.96 C-0.69 -20.03, -1.85 -10.74, -2.21 -8.89" stroke="#E1E1E1" stroke-width="2" fill="none"></path></g></g><mask></mask><g stroke-linecap="round"><g transform="translate(19.82613367668182 505.4621767398057) rotate(0 2.0924846822974814 -22.37611343012668)"><path d="M0 0 C0.54 -1.29, 2.51 -3.38, 3.21 -7.73 C3.91 -12.08, 4.07 -20.76, 4.18 -26.11 C4.3 -31.45, 4.47 -36.67, 3.9 -39.78 C3.34 -42.89, 1.3 -43.92, 0.78 -44.75 M0 0 C0.54 -1.29, 2.51 -3.38, 3.21 -7.73 C3.91 -12.08, 4.07 -20.76, 4.18 -26.11 C4.3 -31.45, 4.47 -36.67, 3.9 -39.78 C3.34 -42.89, 1.3 -43.92, 0.78 -44.75" stroke="#E1E1E1" stroke-width="2" fill="none"></path></g></g><mask></mask><g stroke-linecap="round"><g transform="translate(38.93909203665726 508.5848648698511) rotate(0 11.54395131811998 5.269536219450856)"><path d="M0 0 C0.23 3.07, 1.17 14.24, 1.36 18.44 C1.56 22.64, 2.07 23.55, 1.17 25.22 C0.27 26.9, -3.43 25.79, -4.05 28.47 C-4.67 31.16, -3.26 40.79, -2.55 41.34 C-1.84 41.89, -0.63 34.12, 0.23 31.78 C1.08 29.44, 1.8 27.27, 2.58 27.32 C3.37 27.37, 3.85 29.77, 4.95 32.09 C6.04 34.42, 7.54 39.7, 9.14 41.27 C10.74 42.85, 13.76 42.84, 14.56 41.54 C15.37 40.23, 14.56 35.74, 13.99 33.45 C13.41 31.15, 11.58 30.45, 11.1 27.78 C10.62 25.11, 11.49 21.23, 11.1 17.44 C10.71 13.65, 8.99 8.46, 8.75 5.04 C8.52 1.63, 9.44 -0.28, 9.7 -3.05 C9.96 -5.82, 9.36 -9.62, 10.31 -11.6 C11.25 -13.57, 13.83 -13.58, 15.37 -14.91 C16.91 -16.24, 17.92 -18.63, 19.53 -19.57 C21.15 -20.51, 23.8 -19.01, 25.07 -20.56 C26.33 -22.11, 27.4 -27.12, 27.14 -28.86 C26.87 -30.6, 25.63 -31.96, 23.48 -31 C21.33 -30.03, 17.36 -25.48, 14.24 -23.06 C11.11 -20.64, 7.09 -18.89, 4.72 -16.45 C2.34 -14.02, 0.79 -11.19, 0 -8.45 C-0.78 -5.7, 0 -1.41, 0 0 M0 0 C0.23 3.07, 1.17 14.24, 1.36 18.44 C1.56 22.64, 2.07 23.55, 1.17 25.22 C0.27 26.9, -3.43 25.79, -4.05 28.47 C-4.67 31.16, -3.26 40.79, -2.55 41.34 C-1.84 41.89, -0.63 34.12, 0.23 31.78 C1.08 29.44, 1.8 27.27, 2.58 27.32 C3.37 27.37, 3.85 29.77, 4.95 32.09 C6.04 34.42, 7.54 39.7, 9.14 41.27 C10.74 42.85, 13.76 42.84, 14.56 41.54 C15.37 40.23, 14.56 35.74, 13.99 33.45 C13.41 31.15, 11.58 30.45, 11.1 27.78 C10.62 25.11, 11.49 21.23, 11.1 17.44 C10.71 13.65, 8.99 8.46, 8.75 5.04 C8.52 1.63, 9.44 -0.28, 9.7 -3.05 C9.96 -5.82, 9.36 -9.62, 10.31 -11.6 C11.25 -13.57, 13.83 -13.58, 15.37 -14.91 C16.91 -16.24, 17.92 -18.63, 19.53 -19.57 C21.15 -20.51, 23.8 -19.01, 25.07 -20.56 C26.33 -22.11, 27.4 -27.12, 27.14 -28.86 C26.87 -30.6, 25.63 -31.96, 23.48 -31 C21.33 -30.03, 17.36 -25.48, 14.24 -23.06 C11.11 -20.64, 7.09 -18.89, 4.72 -16.45 C2.34 -14.02, 0.79 -11.19, 0 -8.45 C-0.78 -5.7, 0 -1.41, 0 0" stroke="#E1E1E1" stroke-width="2" fill="none"></path></g></g><mask></mask><g stroke-linecap="round"><g transform="translate(117.84777223947822 972.3454103609884) rotate(0 -5.901043985290698 6.275029027603523)"><path d="M0 0 C-2.53 1.54, -10.71 6.6, -15.21 9.22 C-19.71 11.85, -25.32 13.66, -27 15.75 C-28.68 17.83, -27.12 20.8, -25.28 21.73 C-23.43 22.65, -19.64 22.51, -15.91 21.28 C-12.19 20.05, -7.42 17.09, -2.92 14.36 C1.58 11.64, 8.07 7.48, 11.09 4.92 C14.11 2.36, 14.67 1.35, 15.2 -1 C15.72 -3.35, 15.7 -8.59, 14.26 -9.18 C12.82 -9.76, 8.93 -6.03, 6.55 -4.5 C4.18 -2.98, 1.09 -0.75, 0 0 M0 0 C-2.53 1.54, -10.71 6.6, -15.21 9.22 C-19.71 11.85, -25.32 13.66, -27 15.75 C-28.68 17.83, -27.12 20.8, -25.28 21.73 C-23.43 22.65, -19.64 22.51, -15.91 21.28 C-12.19 20.05, -7.42 17.09, -2.92 14.36 C1.58 11.64, 8.07 7.48, 11.09 4.92 C14.11 2.36, 14.67 1.35, 15.2 -1 C15.72 -3.35, 15.7 -8.59, 14.26 -9.18 C12.82 -9.76, 8.93 -6.03, 6.55 -4.5 C4.18 -2.98, 1.09 -0.75, 0 0" stroke="#E1E1E1" stroke-width="2" fill="none"></path></g></g><mask></mask><g stroke-linecap="round"><g transform="translate(332.0188313788617 961.2243051542182) rotate(0 -0.8407651232491844 7.104079619379718)"><path d="M0 0 C-0.86 0, -4.35 -1.11, -5.17 0 C-5.98 1.11, -5.8 4.3, -4.87 6.66 C-3.94 9.03, -0.99 13.55, 0.4 14.21 C1.79 14.87, 2.94 12.64, 3.45 10.63 C3.97 8.62, 4.06 3.92, 3.48 2.15 C2.91 0.37, 0.58 0.36, 0 0 M0 0 C-0.86 0, -4.35 -1.11, -5.17 0 C-5.98 1.11, -5.8 4.3, -4.87 6.66 C-3.94 9.03, -0.99 13.55, 0.4 14.21 C1.79 14.87, 2.94 12.64, 3.45 10.63 C3.97 8.62, 4.06 3.92, 3.48 2.15 C2.91 0.37, 0.58 0.36, 0 0" stroke="#E1E1E1" stroke-width="2" fill="none"></path></g></g><mask></mask><g stroke-linecap="round"><g transform="translate(356.19638688747 981.7438744655055) rotate(0 -0.9478458405112633 -3.1552513044111947)"><path d="M0 0 C0.73 -1.89, 3.39 -7.07, 4.41 -11.33 C5.43 -15.59, 5.01 -23.83, 6.13 -25.54 C7.26 -27.26, 10.32 -24.51, 11.17 -21.62 C12.01 -18.73, 12.03 -13.41, 11.19 -8.2 C10.36 -2.98, 8.48 5.1, 6.16 9.67 C3.83 14.24, 0.39 17.82, -2.75 19.23 C-5.88 20.64, -10.93 19.74, -12.65 18.12 C-14.38 16.5, -14.65 11.21, -13.09 9.51 C-11.53 7.81, -5.45 9.51, -3.27 7.93 C-1.09 6.34, -0.54 1.32, 0 0 M0 0 C0.73 -1.89, 3.39 -7.07, 4.41 -11.33 C5.43 -15.59, 5.01 -23.83, 6.13 -25.54 C7.26 -27.26, 10.32 -24.51, 11.17 -21.62 C12.01 -18.73, 12.03 -13.41, 11.19 -8.2 C10.36 -2.98, 8.48 5.1, 6.16 9.67 C3.83 14.24, 0.39 17.82, -2.75 19.23 C-5.88 20.64, -10.93 19.74, -12.65 18.12 C-14.38 16.5, -14.65 11.21, -13.09 9.51 C-11.53 7.81, -5.45 9.51, -3.27 7.93 C-1.09 6.34, -0.54 1.32, 0 0" stroke="#E1E1E1" stroke-width="2" fill="none"></path></g></g><mask></mask><g stroke-linecap="round"><g transform="translate(336.8665024942384 819.0646708879367) rotate(0 11.427690444766085 5.939803685080278)"><path d="M0 0 C4.16 -0.06, 19.82 -1.86, 24.99 -0.38 C30.15 1.11, 31.98 6.79, 31.01 8.9 C30.05 11, 25 11.71, 19.2 12.26 C13.39 12.8, 0.73 12.79, -3.83 12.16 C-8.39 11.53, -7.62 10.03, -8.16 8.47 C-8.69 6.91, -8.42 4.2, -7.06 2.79 C-5.7 1.38, -1.18 0.46, 0 0 M0 0 C4.16 -0.06, 19.82 -1.86, 24.99 -0.38 C30.15 1.11, 31.98 6.79, 31.01 8.9 C30.05 11, 25 11.71, 19.2 12.26 C13.39 12.8, 0.73 12.79, -3.83 12.16 C-8.39 11.53, -7.62 10.03, -8.16 8.47 C-8.69 6.91, -8.42 4.2, -7.06 2.79 C-5.7 1.38, -1.18 0.46, 0 0" stroke="#E1E1E1" stroke-width="2" fill="none"></path></g></g><mask></mask><g stroke-linecap="round"><g transform="translate(318.6972641804841 782.2960564639689) rotate(0 29.91771717845404 -0.7872247646182586)"><path d="M0 0 C3.02 0.18, 12.27 0.96, 18.11 1.07 C23.96 1.18, 27.94 0.86, 35.08 0.65 C42.22 0.44, 54.03 0.87, 60.95 -0.17 C67.87 -1.2, 71.99 -3.74, 76.57 -5.57 C81.15 -7.4, 86.57 -11.59, 88.44 -11.14 C90.32 -10.68, 89.6 -5.52, 87.83 -2.85 C86.07 -0.17, 84.21 2.89, 77.85 4.91 C71.49 6.94, 56.83 8.7, 49.68 9.31 C42.53 9.91, 38.94 8.67, 34.95 8.55 C30.96 8.42, 28.72 8.38, 25.74 8.55 C22.76 8.71, 21.22 9.71, 17.08 9.56 C12.93 9.42, 6.21 8.34, 0.89 7.66 C-4.44 6.98, -10.31 7.06, -14.88 5.48 C-19.45 3.9, -24.24 0.77, -26.53 -1.83 C-28.82 -4.43, -29.38 -8.68, -28.61 -10.11 C-27.84 -11.55, -24.52 -11.5, -21.9 -10.45 C-19.28 -9.41, -16.56 -5.59, -12.91 -3.85 C-9.26 -2.11, -2.15 -0.64, 0 0 M0 0 C3.02 0.18, 12.27 0.96, 18.11 1.07 C23.96 1.18, 27.94 0.86, 35.08 0.65 C42.22 0.44, 54.03 0.87, 60.95 -0.17 C67.87 -1.2, 71.99 -3.74, 76.57 -5.57 C81.15 -7.4, 86.57 -11.59, 88.44 -11.14 C90.32 -10.68, 89.6 -5.52, 87.83 -2.85 C86.07 -0.17, 84.21 2.89, 77.85 4.91 C71.49 6.94, 56.83 8.7, 49.68 9.31 C42.53 9.91, 38.94 8.67, 34.95 8.55 C30.96 8.42, 28.72 8.38, 25.74 8.55 C22.76 8.71, 21.22 9.71, 17.08 9.56 C12.93 9.42, 6.21 8.34, 0.89 7.66 C-4.44 6.98, -10.31 7.06, -14.88 5.48 C-19.45 3.9, -24.24 0.77, -26.53 -1.83 C-28.82 -4.43, -29.38 -8.68, -28.61 -10.11 C-27.84 -11.55, -24.52 -11.5, -21.9 -10.45 C-19.28 -9.41, -16.56 -5.59, -12.91 -3.85 C-9.26 -2.11, -2.15 -0.64, 0 0" stroke="#E1E1E1" stroke-width="2" fill="none"></path></g></g><mask></mask><g stroke-linecap="round"><g transform="translate(515.4871209882856 740.7060873720857) rotate(0 2.121196411867004 5.462931507781377)"><path d="M0 0 C-0.55 1.8, -1.74 7.09, -3.31 10.82 C-4.87 14.55, -8.17 19.15, -9.39 22.38 C-10.62 25.61, -11.73 28.88, -10.64 30.2 C-9.56 31.51, -4.53 31.61, -2.91 30.27 C-1.29 28.94, -2.67 25.96, -0.91 22.19 C0.85 18.43, 5.65 11.85, 7.65 7.69 C9.64 3.52, 9.86 0.63, 11.07 -2.78 C12.28 -6.18, 14.97 -9.97, 14.89 -12.73 C14.8 -15.5, 12.31 -19.27, 10.56 -19.35 C8.8 -19.42, 6.11 -16.4, 4.35 -13.18 C2.59 -9.95, 0.73 -2.2, 0 0 M0 0 C-0.55 1.8, -1.74 7.09, -3.31 10.82 C-4.87 14.55, -8.17 19.15, -9.39 22.38 C-10.62 25.61, -11.73 28.88, -10.64 30.2 C-9.56 31.51, -4.53 31.61, -2.91 30.27 C-1.29 28.94, -2.67 25.96, -0.91 22.19 C0.85 18.43, 5.65 11.85, 7.65 7.69 C9.64 3.52, 9.86 0.63, 11.07 -2.78 C12.28 -6.18, 14.97 -9.97, 14.89 -12.73 C14.8 -15.5, 12.31 -19.27, 10.56 -19.35 C8.8 -19.42, 6.11 -16.4, 4.35 -13.18 C2.59 -9.95, 0.73 -2.2, 0 0" stroke="#E1E1E1" stroke-width="2" fill="none"></path></g></g><mask></mask><g stroke-linecap="round"><g transform="translate(339.05885027719523 698.1939122374442) rotate(0 -3.498996796980464 -4.480775494810132)"><path d="M0 0 C-0.37 0.75, -1.55 2.18, -2.19 4.51 C-2.83 6.84, -2.79 12.82, -3.85 13.99 C-4.91 15.17, -7.85 14.04, -8.54 11.57 C-9.22 9.09, -8.26 3.08, -7.98 -0.85 C-7.7 -4.78, -7.06 -8.32, -6.86 -12 C-6.66 -15.69, -7.98 -21.44, -6.77 -22.96 C-5.56 -24.47, -0.96 -23.18, 0.4 -21.11 C1.76 -19.04, 1.2 -13.57, 1.39 -10.54 C1.58 -7.52, 1.77 -4.72, 1.54 -2.96 C1.31 -1.2, 0.26 -0.49, 0 0 M0 0 C-0.37 0.75, -1.55 2.18, -2.19 4.51 C-2.83 6.84, -2.79 12.82, -3.85 13.99 C-4.91 15.17, -7.85 14.04, -8.54 11.57 C-9.22 9.09, -8.26 3.08, -7.98 -0.85 C-7.7 -4.78, -7.06 -8.32, -6.86 -12 C-6.66 -15.69, -7.98 -21.44, -6.77 -22.96 C-5.56 -24.47, -0.96 -23.18, 0.4 -21.11 C1.76 -19.04, 1.2 -13.57, 1.39 -10.54 C1.58 -7.52, 1.77 -4.72, 1.54 -2.96 C1.31 -1.2, 0.26 -0.49, 0 0" stroke="#E1E1E1" stroke-width="2" fill="none"></path></g></g><mask></mask><g stroke-linecap="round"><g transform="translate(354.82921299030477 677.2867121300887) rotate(0 5.892986338300716 15.9534699363644)"><path d="M0 0 C0.47 0.48, 2.36 1.19, 2.84 2.87 C3.31 4.55, 2.34 7.38, 2.84 10.09 C3.33 12.8, 5.02 15.89, 5.8 19.11 C6.57 22.34, 6.91 26.51, 7.48 29.45 C8.06 32.39, 8.27 35.54, 9.26 36.76 C10.24 37.97, 12.57 38.2, 13.38 36.76 C14.19 35.31, 14.3 31.09, 14.14 28.07 C13.98 25.04, 13.33 20.64, 12.43 18.6 C11.53 16.57, 9.55 17.53, 8.74 15.84 C7.94 14.15, 7.65 10.66, 7.6 8.46 C7.54 6.25, 9.29 4.84, 8.42 2.62 C7.54 0.4, 4.14 -3.82, 2.34 -4.85 C0.55 -5.88, -1.96 -4.39, -2.35 -3.58 C-2.75 -2.77, -0.39 -0.6, 0 0 M0 0 C0.47 0.48, 2.36 1.19, 2.84 2.87 C3.31 4.55, 2.34 7.38, 2.84 10.09 C3.33 12.8, 5.02 15.89, 5.8 19.11 C6.57 22.34, 6.91 26.51, 7.48 29.45 C8.06 32.39, 8.27 35.54, 9.26 36.76 C10.24 37.97, 12.57 38.2, 13.38 36.76 C14.19 35.31, 14.3 31.09, 14.14 28.07 C13.98 25.04, 13.33 20.64, 12.43 18.6 C11.53 16.57, 9.55 17.53, 8.74 15.84 C7.94 14.15, 7.65 10.66, 7.6 8.46 C7.54 6.25, 9.29 4.84, 8.42 2.62 C7.54 0.4, 4.14 -3.82, 2.34 -4.85 C0.55 -5.88, -1.96 -4.39, -2.35 -3.58 C-2.75 -2.77, -0.39 -0.6, 0 0" stroke="#E1E1E1" stroke-width="2" fill="none"></path></g></g><mask></mask><g stroke-linecap="round"><g transform="translate(337.5876285750255 732.1893736771535) rotate(0 11.727540355752126 7.035020015092869)"><path d="M0 0 C1.08 0.67, 4.07 3.31, 6.49 4 C8.91 4.7, 11.97 4.57, 14.52 4.15 C17.07 3.73, 19.41 2.51, 21.76 1.47 C24.11 0.43, 27 -0.92, 28.63 -2.08 C30.26 -3.23, 29.7 -4.89, 31.55 -5.46 C33.39 -6.02, 36.38 -5.58, 39.7 -5.46 C43.02 -5.34, 47.54 -5.61, 51.45 -4.73 C55.36 -3.85, 58.93 -1.8, 63.16 -0.16 C67.4 1.48, 73.36 3.56, 76.88 5.11 C80.4 6.66, 83.99 8.19, 84.28 9.16 C84.57 10.14, 83.05 10.62, 78.62 10.96 C74.19 11.31, 63.82 11.02, 57.71 11.25 C51.59 11.49, 46.76 11.3, 41.94 12.37 C37.12 13.44, 32.63 16.31, 28.78 17.69 C24.94 19.07, 22.56 20.08, 18.86 20.63 C15.17 21.19, 10.67 21.42, 6.63 21.02 C2.59 20.63, -1.99 19.51, -5.36 18.24 C-8.73 16.97, -9.62 14.59, -13.59 13.43 C-17.56 12.27, -23.45 11.76, -29.19 11.27 C-34.93 10.79, -42.74 10.49, -48.02 10.51 C-53.29 10.53, -59.7 11.89, -60.82 11.38 C-61.95 10.87, -58.37 9.17, -54.78 7.45 C-51.18 5.74, -43.84 3.14, -39.25 1.1 C-34.67 -0.95, -31.27 -3.66, -27.26 -4.79 C-23.26 -5.92, -18.44 -5.34, -15.2 -5.7 C-11.96 -6.06, -10.36 -7.9, -7.83 -6.95 C-5.3 -6, -1.31 -1.16, 0 0 M0 0 C1.08 0.67, 4.07 3.31, 6.49 4 C8.91 4.7, 11.97 4.57, 14.52 4.15 C17.07 3.73, 19.41 2.51, 21.76 1.47 C24.11 0.43, 27 -0.92, 28.63 -2.08 C30.26 -3.23, 29.7 -4.89, 31.55 -5.46 C33.39 -6.02, 36.38 -5.58, 39.7 -5.46 C43.02 -5.34, 47.54 -5.61, 51.45 -4.73 C55.36 -3.85, 58.93 -1.8, 63.16 -0.16 C67.4 1.48, 73.36 3.56, 76.88 5.11 C80.4 6.66, 83.99 8.19, 84.28 9.16 C84.57 10.14, 83.05 10.62, 78.62 10.96 C74.19 11.31, 63.82 11.02, 57.71 11.25 C51.59 11.49, 46.76 11.3, 41.94 12.37 C37.12 13.44, 32.63 16.31, 28.78 17.69 C24.94 19.07, 22.56 20.08, 18.86 20.63 C15.17 21.19, 10.67 21.42, 6.63 21.02 C2.59 20.63, -1.99 19.51, -5.36 18.24 C-8.73 16.97, -9.62 14.59, -13.59 13.43 C-17.56 12.27, -23.45 11.76, -29.19 11.27 C-34.93 10.79, -42.74 10.49, -48.02 10.51 C-53.29 10.53, -59.7 11.89, -60.82 11.38 C-61.95 10.87, -58.37 9.17, -54.78 7.45 C-51.18 5.74, -43.84 3.14, -39.25 1.1 C-34.67 -0.95, -31.27 -3.66, -27.26 -4.79 C-23.26 -5.92, -18.44 -5.34, -15.2 -5.7 C-11.96 -6.06, -10.36 -7.9, -7.83 -6.95 C-5.3 -6, -1.31 -1.16, 0 0" stroke="#E1E1E1" stroke-width="2" fill="none"></path></g></g><mask></mask><g stroke-linecap="round"><g transform="translate(419.34023082114027 731.3018966456457) rotate(0 -69.81360631342864 7.814310472356738)"><path d="M0 0 C2.62 1.19, 11.73 4.92, 15.71 7.14 C19.69 9.36, 22.71 11.13, 23.9 13.32 C25.09 15.51, 24.76 18.75, 22.86 20.29 C20.96 21.84, 19.01 22.42, 12.5 22.59 C5.99 22.77, -8.55 21.54, -16.21 21.36 C-23.88 21.18, -29.51 20.75, -33.48 21.5 C-37.46 22.25, -36.5 25.01, -40.06 25.86 C-43.62 26.71, -50.89 26.53, -54.86 26.62 C-58.82 26.71, -61.22 26.82, -63.85 26.4 C-66.48 25.98, -68.03 24.19, -70.66 24.09 C-73.29 23.98, -76.21 25.52, -79.61 25.77 C-83 26.02, -87.44 25.52, -91.02 25.61 C-94.61 25.7, -98.41 26.64, -101.13 26.31 C-103.86 25.99, -104.09 24.27, -107.37 23.65 C-110.66 23.03, -115.34 22.88, -120.84 22.61 C-126.35 22.34, -135.16 22.11, -140.38 22.02 C-145.6 21.93, -148.72 22.33, -152.16 22.06 C-155.61 21.79, -159.16 21.51, -161.05 20.4 C-162.95 19.3, -164.15 17.44, -163.53 15.45 C-162.91 13.46, -160.39 10.58, -157.34 8.48 C-154.3 6.37, -149.27 4.6, -145.25 2.82 C-141.23 1.03, -137.8 -0.42, -133.21 -2.21 C-128.63 -4, -121.89 -6.46, -117.75 -7.92 C-113.62 -9.38, -111.7 -10.84, -108.39 -10.99 C-105.09 -11.14, -101.04 -9.15, -97.92 -8.82 C-94.81 -8.49, -92.08 -8.87, -89.73 -9.01 C-87.37 -9.15, -85.68 -10.22, -83.79 -9.65 C-81.9 -9.07, -80.27 -6.8, -78.41 -5.58 C-76.54 -4.36, -74.57 -2.88, -72.59 -2.33 C-70.62 -1.79, -68.6 -1.81, -66.53 -2.32 C-64.46 -2.83, -62.2 -4.13, -60.16 -5.39 C-58.12 -6.64, -56.53 -9.04, -54.28 -9.86 C-52.03 -10.67, -49.72 -10.09, -46.67 -10.27 C-43.62 -10.46, -39.55 -10.98, -35.95 -10.95 C-32.35 -10.92, -28.43 -10.92, -25.08 -10.11 C-21.73 -9.31, -18.57 -7.23, -15.85 -6.14 C-13.14 -5.05, -11.44 -4.61, -8.8 -3.59 C-6.16 -2.56, -1.47 -0.6, 0 0 M0 0 C2.62 1.19, 11.73 4.92, 15.71 7.14 C19.69 9.36, 22.71 11.13, 23.9 13.32 C25.09 15.51, 24.76 18.75, 22.86 20.29 C20.96 21.84, 19.01 22.42, 12.5 22.59 C5.99 22.77, -8.55 21.54, -16.21 21.36 C-23.88 21.18, -29.51 20.75, -33.48 21.5 C-37.46 22.25, -36.5 25.01, -40.06 25.86 C-43.62 26.71, -50.89 26.53, -54.86 26.62 C-58.82 26.71, -61.22 26.82, -63.85 26.4 C-66.48 25.98, -68.03 24.19, -70.66 24.09 C-73.29 23.98, -76.21 25.52, -79.61 25.77 C-83 26.02, -87.44 25.52, -91.02 25.61 C-94.61 25.7, -98.41 26.64, -101.13 26.31 C-103.86 25.99, -104.09 24.27, -107.37 23.65 C-110.66 23.03, -115.34 22.88, -120.84 22.61 C-126.35 22.34, -135.16 22.11, -140.38 22.02 C-145.6 21.93, -148.72 22.33, -152.16 22.06 C-155.61 21.79, -159.16 21.51, -161.05 20.4 C-162.95 19.3, -164.15 17.44, -163.53 15.45 C-162.91 13.46, -160.39 10.58, -157.34 8.48 C-154.3 6.37, -149.27 4.6, -145.25 2.82 C-141.23 1.03, -137.8 -0.42, -133.21 -2.21 C-128.63 -4, -121.89 -6.46, -117.75 -7.92 C-113.62 -9.38, -111.7 -10.84, -108.39 -10.99 C-105.09 -11.14, -101.04 -9.15, -97.92 -8.82 C-94.81 -8.49, -92.08 -8.87, -89.73 -9.01 C-87.37 -9.15, -85.68 -10.22, -83.79 -9.65 C-81.9 -9.07, -80.27 -6.8, -78.41 -5.58 C-76.54 -4.36, -74.57 -2.88, -72.59 -2.33 C-70.62 -1.79, -68.6 -1.81, -66.53 -2.32 C-64.46 -2.83, -62.2 -4.13, -60.16 -5.39 C-58.12 -6.64, -56.53 -9.04, -54.28 -9.86 C-52.03 -10.67, -49.72 -10.09, -46.67 -10.27 C-43.62 -10.46, -39.55 -10.98, -35.95 -10.95 C-32.35 -10.92, -28.43 -10.92, -25.08 -10.11 C-21.73 -9.31, -18.57 -7.23, -15.85 -6.14 C-13.14 -5.05, -11.44 -4.61, -8.8 -3.59 C-6.16 -2.56, -1.47 -0.6, 0 0" stroke="#E1E1E1" stroke-width="2" fill="none"></path></g></g><mask></mask><g stroke-linecap="round"><g transform="translate(563.1984564476543 799.8709104383634) rotate(0 -6.093074737984011 101.17268204069433)"><path d="M0 0 C-0.47 1.43, -2.69 5.15, -2.8 8.6 C-2.9 12.06, -1.01 14.63, -0.63 20.74 C-0.25 26.84, -0.49 35.4, -0.51 45.24 C-0.53 55.07, -0.64 68.56, -0.75 79.75 C-0.85 90.94, -1.19 101.16, -1.13 112.36 C-1.08 123.57, -0.47 137.39, -0.42 146.97 C-0.37 156.56, -0.69 163.38, -0.82 169.89 C-0.94 176.4, -0.97 180.63, -1.17 186.04 C-1.38 191.45, -1.23 200.17, -2.06 202.35 C-2.89 204.52, -4.89 203.37, -6.16 199.08 C-7.42 194.79, -8.63 184.49, -9.64 176.59 C-10.64 168.7, -11.84 161.38, -12.19 151.71 C-12.54 142.04, -11.9 129.87, -11.73 118.56 C-11.56 107.24, -11.35 94.97, -11.17 83.84 C-10.99 72.72, -10.89 61.45, -10.66 51.8 C-10.43 42.15, -10.63 32.7, -9.81 25.93 C-8.98 19.17, -5.49 13.37, -5.72 11.2 C-5.94 9.02, -10.23 12.62, -11.13 12.91 M0 0 C-0.47 1.43, -2.69 5.15, -2.8 8.6 C-2.9 12.06, -1.01 14.63, -0.63 20.74 C-0.25 26.84, -0.49 35.4, -0.51 45.24 C-0.53 55.07, -0.64 68.56, -0.75 79.75 C-0.85 90.94, -1.19 101.16, -1.13 112.36 C-1.08 123.57, -0.47 137.39, -0.42 146.97 C-0.37 156.56, -0.69 163.38, -0.82 169.89 C-0.94 176.4, -0.97 180.63, -1.17 186.04 C-1.38 191.45, -1.23 200.17, -2.06 202.35 C-2.89 204.52, -4.89 203.37, -6.16 199.08 C-7.42 194.79, -8.63 184.49, -9.64 176.59 C-10.64 168.7, -11.84 161.38, -12.19 151.71 C-12.54 142.04, -11.9 129.87, -11.73 118.56 C-11.56 107.24, -11.35 94.97, -11.17 83.84 C-10.99 72.72, -10.89 61.45, -10.66 51.8 C-10.43 42.15, -10.63 32.7, -9.81 25.93 C-8.98 19.17, -5.49 13.37, -5.72 11.2 C-5.94 9.02, -10.23 12.62, -11.13 12.91" stroke="#E1E1E1" stroke-width="2" fill="none"></path></g></g><mask></mask><g stroke-linecap="round"><g transform="translate(567.5700416660634 965.6496962712135) rotate(0 19.625838670888243 15.113562389814433)"><path d="M0 0 C2.74 1.54, 10.36 5.96, 16.44 9.25 C22.52 12.53, 32.03 16.88, 36.5 19.72 C40.96 22.55, 43.48 24.53, 43.22 26.28 C42.95 28.03, 38.92 30.78, 34.89 30.23 C30.87 29.67, 23.77 25.49, 19.05 22.95 C14.33 20.4, 10.12 17.21, 6.57 14.96 C3.01 12.72, -0.53 11.85, -2.29 9.5 C-4.04 7.15, -4.35 2.43, -3.97 0.85 C-3.58 -0.73, -0.66 0.14, 0 0 M0 0 C2.74 1.54, 10.36 5.96, 16.44 9.25 C22.52 12.53, 32.03 16.88, 36.5 19.72 C40.96 22.55, 43.48 24.53, 43.22 26.28 C42.95 28.03, 38.92 30.78, 34.89 30.23 C30.87 29.67, 23.77 25.49, 19.05 22.95 C14.33 20.4, 10.12 17.21, 6.57 14.96 C3.01 12.72, -0.53 11.85, -2.29 9.5 C-4.04 7.15, -4.35 2.43, -3.97 0.85 C-3.58 -0.73, -0.66 0.14, 0 0" stroke="#E1E1E1" stroke-width="2" fill="none"></path></g></g><mask></mask><g stroke-linecap="round"><g transform="translate(646.1649824033343 424.9835303077316) rotate(0 -7.0347396987879165 13.520586428986007)"><path d="M0 0 C-0.97 2.36, -4.03 9.67, -5.79 14.17 C-7.55 18.68, -9.17 25.95, -10.55 27.04 C-11.93 28.13, -13.48 21.75, -14.07 20.69 M0 0 C-0.97 2.36, -4.03 9.67, -5.79 14.17 C-7.55 18.68, -9.17 25.95, -10.55 27.04 C-11.93 28.13, -13.48 21.75, -14.07 20.69" stroke="#E1E1E1" stroke-width="2" fill="none"></path></g></g><mask></mask><g stroke-linecap="round"><g transform="translate(646.0010993050585 424.8727361004467) rotate(0 4.921109373565628 -5.811156172086612)"><path d="M0 0 C0.83 -1.3, 3.36 -5.99, 5 -7.78 C6.64 -9.57, 10.44 -10.09, 9.84 -10.73 C9.25 -11.37, 2.82 -11.47, 1.42 -11.62 M0 0 C0.83 -1.3, 3.36 -5.99, 5 -7.78 C6.64 -9.57, 10.44 -10.09, 9.84 -10.73 C9.25 -11.37, 2.82 -11.47, 1.42 -11.62" stroke="#E1E1E1" stroke-width="2" fill="none"></path></g></g><mask></mask><g stroke-linecap="round"><g transform="translate(663.9045199172183 415.04205841657495) rotate(0 -17.1532515003355 23.944243943096808)"><path d="M0 0 C-0.74 0.63, -3.06 1.66, -4.43 3.77 C-5.79 5.88, -6.79 9.61, -8.19 12.67 C-9.6 15.73, -11.58 19.12, -12.84 22.12 C-14.1 25.11, -14.8 28.04, -15.76 30.62 C-16.72 33.21, -17.31 35.42, -18.6 37.62 C-19.89 39.82, -22.15 42.11, -23.52 43.82 C-24.88 45.54, -25 48.26, -26.8 47.89 C-28.6 47.52, -33.05 42.65, -34.31 41.6 M0 0 C-0.74 0.63, -3.06 1.66, -4.43 3.77 C-5.79 5.88, -6.79 9.61, -8.19 12.67 C-9.6 15.73, -11.58 19.12, -12.84 22.12 C-14.1 25.11, -14.8 28.04, -15.76 30.62 C-16.72 33.21, -17.31 35.42, -18.6 37.62 C-19.89 39.82, -22.15 42.11, -23.52 43.82 C-24.88 45.54, -25 48.26, -26.8 47.89 C-28.6 47.52, -33.05 42.65, -34.31 41.6" stroke="#E1E1E1" stroke-width="2" fill="none"></path></g></g><mask></mask><g stroke-linecap="round"><g transform="translate(670.9713437718656 429.15816370971606) rotate(0 -5.109228704684483 -2.888266491155264)"><path d="M0 0 C-0.01 0.86, 1.31 6.07, -0.04 5.19 C-1.4 4.3, -6.43 -2.64, -8.13 -5.34 C-9.83 -8.03, -9.87 -10.02, -10.22 -10.96 M0 0 C-0.01 0.86, 1.31 6.07, -0.04 5.19 C-1.4 4.3, -6.43 -2.64, -8.13 -5.34 C-9.83 -8.03, -9.87 -10.02, -10.22 -10.96" stroke="#E1E1E1" stroke-width="2" fill="none"></path></g></g><mask></mask><g stroke-linecap="round"><g transform="translate(661.88160234921 437.9515306278845) rotate(0 -9.837371500562654 55.109500345979086)"><path d="M0 0 C0.51 4.46, 2.3 18.61, 3.07 26.73 C3.84 34.85, 4.28 41.73, 4.6 48.71 C4.93 55.68, 5.73 63.21, 5.02 68.6 C4.32 73.99, 1.36 81.88, 0.39 81.06 C-0.59 80.24, 0.54 68.26, -0.81 63.65 C-2.15 59.05, -5 57.16, -7.68 53.43 C-10.36 49.7, -14.05 43.27, -16.89 41.27 C-19.72 39.27, -23.45 40.3, -24.7 41.44 C-25.95 42.59, -25.51 45.84, -24.38 48.15 C-23.25 50.47, -19.87 53.35, -17.91 55.34 C-15.95 57.34, -13.67 57.76, -12.63 60.12 C-11.6 62.47, -12.41 67.27, -11.69 69.49 C-10.97 71.72, -8.76 71.59, -8.3 73.48 C-7.84 75.37, -8.41 79.2, -8.92 80.84 C-9.43 82.48, -10.81 80.98, -11.35 83.32 C-11.89 85.67, -11.48 91.92, -12.15 94.91 C-12.81 97.89, -14.13 98.67, -15.34 101.22 C-16.55 103.77, -20.26 109.28, -19.41 110.22 C-18.56 111.16, -12.33 109.22, -10.23 106.85 C-8.12 104.48, -7.38 98.94, -6.77 96.01 C-6.16 93.09, -7.26 91.74, -6.57 89.31 C-5.88 86.88, -3.05 85.18, -2.65 81.43 C-2.26 77.68, -3.7 70.9, -4.2 66.81 C-4.7 62.71, -5.41 58.51, -5.65 56.85 M0 0 C0.51 4.46, 2.3 18.61, 3.07 26.73 C3.84 34.85, 4.28 41.73, 4.6 48.71 C4.93 55.68, 5.73 63.21, 5.02 68.6 C4.32 73.99, 1.36 81.88, 0.39 81.06 C-0.59 80.24, 0.54 68.26, -0.81 63.65 C-2.15 59.05, -5 57.16, -7.68 53.43 C-10.36 49.7, -14.05 43.27, -16.89 41.27 C-19.72 39.27, -23.45 40.3, -24.7 41.44 C-25.95 42.59, -25.51 45.84, -24.38 48.15 C-23.25 50.47, -19.87 53.35, -17.91 55.34 C-15.95 57.34, -13.67 57.76, -12.63 60.12 C-11.6 62.47, -12.41 67.27, -11.69 69.49 C-10.97 71.72, -8.76 71.59, -8.3 73.48 C-7.84 75.37, -8.41 79.2, -8.92 80.84 C-9.43 82.48, -10.81 80.98, -11.35 83.32 C-11.89 85.67, -11.48 91.92, -12.15 94.91 C-12.81 97.89, -14.13 98.67, -15.34 101.22 C-16.55 103.77, -20.26 109.28, -19.41 110.22 C-18.56 111.16, -12.33 109.22, -10.23 106.85 C-8.12 104.48, -7.38 98.94, -6.77 96.01 C-6.16 93.09, -7.26 91.74, -6.57 89.31 C-5.88 86.88, -3.05 85.18, -2.65 81.43 C-2.26 77.68, -3.7 70.9, -4.2 66.81 C-4.7 62.71, -5.41 58.51, -5.65 56.85" stroke="#E1E1E1" stroke-width="2" fill="none"></path></g></g><mask></mask><g stroke-linecap="round"><g transform="translate(611.4924737753054 432.75990404229924) rotate(0 -4.361462171750986 8.993242993423792)"><path d="M0 0 C0.18 2.86, 0.57 11.45, 1.1 17.19 C1.63 22.92, 2.39 28.69, 3.18 34.4 C3.96 40.1, 5.18 45.61, 5.81 51.41 C6.45 57.21, 7.47 66.11, 7.01 69.18 C6.54 72.26, 4.73 71.88, 3.03 69.85 C1.33 67.82, -1.4 62.95, -3.18 57 C-4.96 51.05, -6.37 40.13, -7.64 34.14 C-8.92 28.16, -10.06 27.87, -10.83 21.09 C-11.6 14.31, -11.46 1.55, -12.28 -6.52 C-13.1 -14.6, -15.48 -19.82, -15.73 -27.37 C-15.98 -34.93, -15.08 -48.82, -13.76 -51.86 C-12.44 -54.9, -9.59 -49.72, -7.83 -45.62 C-6.06 -41.52, -4.39 -33.23, -3.16 -27.26 C-1.94 -21.3, -1 -14.36, -0.47 -9.81 C0.06 -5.27, -0.08 -1.64, 0 0 M0 0 C0.18 2.86, 0.57 11.45, 1.1 17.19 C1.63 22.92, 2.39 28.69, 3.18 34.4 C3.96 40.1, 5.18 45.61, 5.81 51.41 C6.45 57.21, 7.47 66.11, 7.01 69.18 C6.54 72.26, 4.73 71.88, 3.03 69.85 C1.33 67.82, -1.4 62.95, -3.18 57 C-4.96 51.05, -6.37 40.13, -7.64 34.14 C-8.92 28.16, -10.06 27.87, -10.83 21.09 C-11.6 14.31, -11.46 1.55, -12.28 -6.52 C-13.1 -14.6, -15.48 -19.82, -15.73 -27.37 C-15.98 -34.93, -15.08 -48.82, -13.76 -51.86 C-12.44 -54.9, -9.59 -49.72, -7.83 -45.62 C-6.06 -41.52, -4.39 -33.23, -3.16 -27.26 C-1.94 -21.3, -1 -14.36, -0.47 -9.81 C0.06 -5.27, -0.08 -1.64, 0 0" stroke="#E1E1E1" stroke-width="2" fill="none"></path></g></g><mask></mask><g stroke-linecap="round"><g transform="translate(552.0927754032232 335.38360601232125) rotate(0 5.600320202585976 8.042718254142983)"><path d="M0 0 C-0.01 2.45, -0.6 10.74, -0.09 14.71 C0.42 18.68, 0.76 19.16, 3.05 23.82 C5.35 28.48, 10.94 37.22, 13.68 42.67 C16.43 48.13, 18.75 52.12, 19.53 56.55 C20.31 60.99, 20.04 69.97, 18.36 69.28 C16.67 68.59, 12.85 58.78, 9.41 52.42 C5.98 46.05, 0.51 35.76, -2.25 31.1 C-5 26.44, -6.09 27.74, -7.1 24.48 C-8.11 21.22, -8.2 18.04, -8.33 11.53 C-8.45 5.02, -8.71 -7.74, -7.85 -14.57 C-6.99 -21.4, -4.02 -24.37, -3.19 -29.46 C-2.36 -34.54, -3.18 -41.11, -2.87 -45.07 C-2.55 -49.03, -2.28 -52.44, -1.3 -53.19 C-0.32 -53.95, 2.22 -52.49, 3.02 -49.59 C3.82 -46.69, 3.44 -40.19, 3.5 -35.81 C3.56 -31.42, 3.97 -26.68, 3.38 -23.28 C2.78 -19.87, 0.52 -19.26, -0.05 -15.38 C-0.61 -11.5, -0.01 -2.56, 0 0 M0 0 C-0.01 2.45, -0.6 10.74, -0.09 14.71 C0.42 18.68, 0.76 19.16, 3.05 23.82 C5.35 28.48, 10.94 37.22, 13.68 42.67 C16.43 48.13, 18.75 52.12, 19.53 56.55 C20.31 60.99, 20.04 69.97, 18.36 69.28 C16.67 68.59, 12.85 58.78, 9.41 52.42 C5.98 46.05, 0.51 35.76, -2.25 31.1 C-5 26.44, -6.09 27.74, -7.1 24.48 C-8.11 21.22, -8.2 18.04, -8.33 11.53 C-8.45 5.02, -8.71 -7.74, -7.85 -14.57 C-6.99 -21.4, -4.02 -24.37, -3.19 -29.46 C-2.36 -34.54, -3.18 -41.11, -2.87 -45.07 C-2.55 -49.03, -2.28 -52.44, -1.3 -53.19 C-0.32 -53.95, 2.22 -52.49, 3.02 -49.59 C3.82 -46.69, 3.44 -40.19, 3.5 -35.81 C3.56 -31.42, 3.97 -26.68, 3.38 -23.28 C2.78 -19.87, 0.52 -19.26, -0.05 -15.38 C-0.61 -11.5, -0.01 -2.56, 0 0" stroke="#E1E1E1" stroke-width="2" fill="none"></path></g></g><mask></mask><g stroke-linecap="round"><g transform="translate(539.208604611078 400.6476462670307) rotate(0 -54.8118461104865 12.297019437431572)"><path d="M0 0 C-1.85 -0.84, -7.58 -2.94, -11.11 -5.05 C-14.63 -7.15, -18.56 -10.72, -21.13 -12.62 C-23.71 -14.52, -26.72 -15.36, -26.56 -16.44 C-26.39 -17.53, -22.99 -19.26, -20.15 -19.14 C-17.31 -19.02, -14.22 -17.64, -9.51 -15.71 C-4.8 -13.78, 3.08 -10.85, 8.13 -7.56 C13.17 -4.28, 17.52 0.36, 20.76 4 C24 7.65, 26.02 10.1, 27.56 14.31 C29.1 18.52, 30.77 26.67, 30 29.27 C29.23 31.86, 26.49 31.09, 22.92 29.88 C19.35 28.66, 14.07 24.19, 8.58 21.97 C3.09 19.76, -6.57 18.12, -10.03 16.62 C-13.48 15.11, -10.37 13.74, -12.16 12.93 C-13.96 12.12, -18.22 11.34, -20.81 11.74 C-23.4 12.14, -23.03 14.22, -27.7 15.31 C-32.38 16.4, -42.92 17.33, -48.87 18.28 C-54.82 19.22, -56.98 19.34, -63.4 20.99 C-69.82 22.63, -79.28 25.84, -87.41 28.14 C-95.53 30.44, -104.66 32.18, -112.14 34.78 C-119.63 37.38, -127.76 42.32, -132.34 43.73 C-136.92 45.14, -140.17 44.65, -139.62 43.23 C-139.08 41.81, -133.99 38.17, -129.09 35.2 C-124.2 32.22, -118.57 28.64, -110.25 25.39 C-101.93 22.15, -87.91 18.11, -79.17 15.72 C-70.43 13.32, -65.92 12.19, -57.83 11.03 C-49.74 9.88, -36.99 9.41, -30.62 8.78 C-24.26 8.16, -23.85 7.25, -19.61 7.28 C-15.37 7.32, -9.21 8.4, -5.2 9.01 C-1.18 9.62, 1.68 10.2, 4.48 10.97 C7.28 11.74, 9.43 13.02, 11.61 13.64 C13.79 14.27, 17.24 15.46, 17.56 14.72 C17.89 13.98, 15.62 11.22, 13.57 9.21 C11.52 7.19, 7.54 4.17, 5.28 2.64 C3.02 1.1, 0.88 0.44, 0 0 M0 0 C-1.85 -0.84, -7.58 -2.94, -11.11 -5.05 C-14.63 -7.15, -18.56 -10.72, -21.13 -12.62 C-23.71 -14.52, -26.72 -15.36, -26.56 -16.44 C-26.39 -17.53, -22.99 -19.26, -20.15 -19.14 C-17.31 -19.02, -14.22 -17.64, -9.51 -15.71 C-4.8 -13.78, 3.08 -10.85, 8.13 -7.56 C13.17 -4.28, 17.52 0.36, 20.76 4 C24 7.65, 26.02 10.1, 27.56 14.31 C29.1 18.52, 30.77 26.67, 30 29.27 C29.23 31.86, 26.49 31.09, 22.92 29.88 C19.35 28.66, 14.07 24.19, 8.58 21.97 C3.09 19.76, -6.57 18.12, -10.03 16.62 C-13.48 15.11, -10.37 13.74, -12.16 12.93 C-13.96 12.12, -18.22 11.34, -20.81 11.74 C-23.4 12.14, -23.03 14.22, -27.7 15.31 C-32.38 16.4, -42.92 17.33, -48.87 18.28 C-54.82 19.22, -56.98 19.34, -63.4 20.99 C-69.82 22.63, -79.28 25.84, -87.41 28.14 C-95.53 30.44, -104.66 32.18, -112.14 34.78 C-119.63 37.38, -127.76 42.32, -132.34 43.73 C-136.92 45.14, -140.17 44.65, -139.62 43.23 C-139.08 41.81, -133.99 38.17, -129.09 35.2 C-124.2 32.22, -118.57 28.64, -110.25 25.39 C-101.93 22.15, -87.91 18.11, -79.17 15.72 C-70.43 13.32, -65.92 12.19, -57.83 11.03 C-49.74 9.88, -36.99 9.41, -30.62 8.78 C-24.26 8.16, -23.85 7.25, -19.61 7.28 C-15.37 7.32, -9.21 8.4, -5.2 9.01 C-1.18 9.62, 1.68 10.2, 4.48 10.97 C7.28 11.74, 9.43 13.02, 11.61 13.64 C13.79 14.27, 17.24 15.46, 17.56 14.72 C17.89 13.98, 15.62 11.22, 13.57 9.21 C11.52 7.19, 7.54 4.17, 5.28 2.64 C3.02 1.1, 0.88 0.44, 0 0" stroke="#E1E1E1" stroke-width="2" fill="none"></path></g></g><mask></mask><g stroke-linecap="round"><g transform="translate(476.16053372898114 388.4176554029682) rotate(0 14.971293719833398 -0.9365052265184204)"><path d="M0 0 C1.87 -0.91, 7.5 -4.21, 11.24 -5.48 C14.97 -6.75, 19.3 -7.71, 22.42 -7.62 C25.54 -7.53, 29.76 -6.53, 29.94 -4.93 C30.12 -3.34, 26.94 0.18, 23.49 1.96 C20.04 3.74, 12.98 5.12, 9.23 5.75 C5.49 6.38, 2.55 6.68, 1.01 5.72 C-0.53 4.77, 0.17 0.95, 0 0 M0 0 C1.87 -0.91, 7.5 -4.21, 11.24 -5.48 C14.97 -6.75, 19.3 -7.71, 22.42 -7.62 C25.54 -7.53, 29.76 -6.53, 29.94 -4.93 C30.12 -3.34, 26.94 0.18, 23.49 1.96 C20.04 3.74, 12.98 5.12, 9.23 5.75 C5.49 6.38, 2.55 6.68, 1.01 5.72 C-0.53 4.77, 0.17 0.95, 0 0" stroke="#E1E1E1" stroke-width="2" fill="none"></path></g></g><mask></mask><g stroke-linecap="round"><g transform="translate(430.04677005113444 398.8158477283614) rotate(0 16.391446814978508 -0.07010762444315333)"><path d="M0 0 C3.15 -0.99, 13.05 -4.24, 18.89 -5.93 C24.72 -7.63, 31.53 -10.19, 34.99 -10.16 C38.44 -10.13, 39.37 -7.46, 39.63 -5.75 C39.88 -4.03, 39.94 -1.87, 36.52 0.14 C33.09 2.15, 24.48 4.81, 19.08 6.31 C13.68 7.82, 7.79 8.55, 4.1 9.17 C0.41 9.79, -1.25 10.29, -3.07 10.02 C-4.9 9.75, -6.46 8.77, -6.84 7.55 C-7.23 6.32, -6.51 3.92, -5.37 2.67 C-4.23 1.41, -0.9 0.44, 0 0 M0 0 C3.15 -0.99, 13.05 -4.24, 18.89 -5.93 C24.72 -7.63, 31.53 -10.19, 34.99 -10.16 C38.44 -10.13, 39.37 -7.46, 39.63 -5.75 C39.88 -4.03, 39.94 -1.87, 36.52 0.14 C33.09 2.15, 24.48 4.81, 19.08 6.31 C13.68 7.82, 7.79 8.55, 4.1 9.17 C0.41 9.79, -1.25 10.29, -3.07 10.02 C-4.9 9.75, -6.46 8.77, -6.84 7.55 C-7.23 6.32, -6.51 3.92, -5.37 2.67 C-4.23 1.41, -0.9 0.44, 0 0" stroke="#E1E1E1" stroke-width="2" fill="none"></path></g></g><mask></mask><g stroke-linecap="round"><g transform="translate(415.35164352758875 406.690165573792) rotate(0 -5.723245395444565 11.099031719745653)"><path d="M0 0 C-2.08 1.75, -9.71 6.81, -12.45 10.51 C-15.2 14.21, -17.72 21.46, -16.44 22.2 C-15.16 22.93, -8.36 17.85, -4.79 14.92 C-1.21 12, 3.49 6.98, 4.99 4.65 C6.5 2.33, 5.1 1.74, 4.27 0.97 C3.44 0.19, 0.71 0.16, 0 0 M0 0 C-2.08 1.75, -9.71 6.81, -12.45 10.51 C-15.2 14.21, -17.72 21.46, -16.44 22.2 C-15.16 22.93, -8.36 17.85, -4.79 14.92 C-1.21 12, 3.49 6.98, 4.99 4.65 C6.5 2.33, 5.1 1.74, 4.27 0.97 C3.44 0.19, 0.71 0.16, 0 0" stroke="#E1E1E1" stroke-width="2" fill="none"></path></g></g><mask></mask><g stroke-linecap="round"><g transform="translate(379.141055502545 443.78230960619476) rotate(0 -5.003221144403824 17.831732167142945)"><path d="M0 0 C-1.68 1.44, -7.18 4.88, -10.07 8.65 C-12.96 12.42, -16.52 18.11, -17.35 22.61 C-18.18 27.11, -16.11 35.34, -15.05 35.66 C-13.99 35.99, -13.01 28.55, -11 24.55 C-8.99 20.56, -6.05 15.57, -2.99 11.69 C0.07 7.8, 6.73 3.09, 7.35 1.25 C7.97 -0.58, 1.83 0.76, 0.73 0.67 M0 0 C-1.68 1.44, -7.18 4.88, -10.07 8.65 C-12.96 12.42, -16.52 18.11, -17.35 22.61 C-18.18 27.11, -16.11 35.34, -15.05 35.66 C-13.99 35.99, -13.01 28.55, -11 24.55 C-8.99 20.56, -6.05 15.57, -2.99 11.69 C0.07 7.8, 6.73 3.09, 7.35 1.25 C7.97 -0.58, 1.83 0.76, 0.73 0.67" stroke="#E1E1E1" stroke-width="2" fill="none"></path></g></g><mask></mask><g stroke-linecap="round"><g transform="translate(411.9661084472009 466.0130583570817) rotate(0 -0.4291723496337454 11.807924016904963)"><path d="M0 0 C-0.8 1.54, -4.29 5.76, -4.79 9.22 C-5.28 12.68, -3.99 18.36, -2.96 20.76 C-1.93 23.16, 0.29 24.63, 1.41 23.62 C2.53 22.6, 3.33 17.71, 3.75 14.66 C4.17 11.61, 4.55 7.77, 3.93 5.32 C3.3 2.88, 0.65 0.89, 0 0 M0 0 C-0.8 1.54, -4.29 5.76, -4.79 9.22 C-5.28 12.68, -3.99 18.36, -2.96 20.76 C-1.93 23.16, 0.29 24.63, 1.41 23.62 C2.53 22.6, 3.33 17.71, 3.75 14.66 C4.17 11.61, 4.55 7.77, 3.93 5.32 C3.3 2.88, 0.65 0.89, 0 0" stroke="#E1E1E1" stroke-width="2" fill="none"></path></g></g><mask></mask><g stroke-linecap="round"><g transform="translate(362.0935339588218 497.74717982137827) rotate(0 6.117363932856506 36.25558954073358)"><path d="M0 0 C0.95 1.73, 4.53 6.92, 5.72 10.37 C6.9 13.81, 6.19 17.42, 7.11 20.65 C8.03 23.88, 10.3 24.74, 11.26 29.75 C12.23 34.76, 12.91 44.4, 12.89 50.72 C12.86 57.03, 11.94 63.99, 11.11 67.63 C10.28 71.26, 9.58 72.19, 7.9 72.51 C6.22 72.83, 1.99 71.57, 1.02 69.56 C0.05 67.55, 1.53 62.95, 2.1 60.46 C2.67 57.98, 4.08 57.99, 4.42 54.65 C4.76 51.32, 4.2 44.06, 4.15 40.43 C4.11 36.8, 4.79 35.09, 4.15 32.88 C3.52 30.67, 1.17 30.04, 0.37 27.17 C-0.43 24.3, -0.74 19.12, -0.65 15.64 C-0.56 12.16, 0.79 8.9, 0.9 6.29 C1 3.69, 0.15 1.05, 0 0 M0 0 C0.95 1.73, 4.53 6.92, 5.72 10.37 C6.9 13.81, 6.19 17.42, 7.11 20.65 C8.03 23.88, 10.3 24.74, 11.26 29.75 C12.23 34.76, 12.91 44.4, 12.89 50.72 C12.86 57.03, 11.94 63.99, 11.11 67.63 C10.28 71.26, 9.58 72.19, 7.9 72.51 C6.22 72.83, 1.99 71.57, 1.02 69.56 C0.05 67.55, 1.53 62.95, 2.1 60.46 C2.67 57.98, 4.08 57.99, 4.42 54.65 C4.76 51.32, 4.2 44.06, 4.15 40.43 C4.11 36.8, 4.79 35.09, 4.15 32.88 C3.52 30.67, 1.17 30.04, 0.37 27.17 C-0.43 24.3, -0.74 19.12, -0.65 15.64 C-0.56 12.16, 0.79 8.9, 0.9 6.29 C1 3.69, 0.15 1.05, 0 0" stroke="#E1E1E1" stroke-width="2" fill="none"></path></g></g><mask></mask><g stroke-linecap="round"><g transform="translate(332.24473915185627 513.1973844081867) rotate(0 -1.505419124873697 23.451947776665293)"><path d="M0 0 C-1.27 2.19, -6.28 8.01, -7.61 13.16 C-8.95 18.31, -9.29 25.3, -8.04 30.89 C-6.79 36.48, -2.28 44.01, -0.1 46.68 C2.08 49.35, 4.9 48.67, 5.03 46.9 C5.16 45.14, 1.54 40.33, 0.68 36.1 C-0.18 31.87, -0.03 25.14, -0.13 21.53 C-0.24 17.92, -0.55 16.87, 0.06 14.45 C0.67 12.04, 2.96 9.37, 3.52 7.06 C4.09 4.76, 4.05 1.79, 3.46 0.61 C2.87 -0.56, 0.58 0.1, 0 0 M0 0 C-1.27 2.19, -6.28 8.01, -7.61 13.16 C-8.95 18.31, -9.29 25.3, -8.04 30.89 C-6.79 36.48, -2.28 44.01, -0.1 46.68 C2.08 49.35, 4.9 48.67, 5.03 46.9 C5.16 45.14, 1.54 40.33, 0.68 36.1 C-0.18 31.87, -0.03 25.14, -0.13 21.53 C-0.24 17.92, -0.55 16.87, 0.06 14.45 C0.67 12.04, 2.96 9.37, 3.52 7.06 C4.09 4.76, 4.05 1.79, 3.46 0.61 C2.87 -0.56, 0.58 0.1, 0 0" stroke="#E1E1E1" stroke-width="2" fill="none"></path></g></g><mask></mask><g stroke-linecap="round"><g transform="translate(440.9255699480814 487.2576294091432) rotate(0 0.9139204797944558 5.715828770694316)"><path d="M0 0 C1.89 1.4, 11.31 6.48, 11.33 8.38 C11.35 10.29, 3.59 11.76, 0.12 11.43 C-3.35 11.11, -8.68 8.02, -9.5 6.43 C-10.32 4.85, -6.39 3.01, -4.81 1.94 C-3.22 0.87, -0.8 0.32, 0 0 M0 0 C1.89 1.4, 11.31 6.48, 11.33 8.38 C11.35 10.29, 3.59 11.76, 0.12 11.43 C-3.35 11.11, -8.68 8.02, -9.5 6.43 C-10.32 4.85, -6.39 3.01, -4.81 1.94 C-3.22 0.87, -0.8 0.32, 0 0" stroke="#E1E1E1" stroke-width="2" fill="none"></path></g></g><mask></mask><g stroke-linecap="round"><g transform="translate(516.8514643235469 483.2723039240982) rotate(0 -37.9097626854774 -17.700906179891717)"><path d="M0 0 C-1.31 0.85, -4.55 3.31, -7.84 5.09 C-11.13 6.87, -19.66 9.33, -19.73 10.68 C-19.81 12.04, -12.2 13.81, -8.29 13.23 C-4.38 12.65, 0.32 9.12, 3.71 7.21 C7.09 5.3, 10.73 3.61, 12.01 1.8 C13.29 -0.02, 10.94 -1.89, 11.39 -3.68 C11.83 -5.47, 13.96 -6.92, 14.7 -8.93 C15.43 -10.94, 16.77 -13.55, 15.79 -15.75 C14.8 -17.94, 12 -19.6, 8.8 -22.11 C5.6 -24.63, -0.32 -28.72, -3.4 -30.83 C-6.48 -32.95, -6.85 -33.9, -9.67 -34.81 C-12.5 -35.72, -17.61 -36, -20.36 -36.29 C-23.1 -36.58, -26.43 -35.95, -26.15 -36.56 C-25.87 -37.17, -21.59 -39.46, -18.68 -39.96 C-15.78 -40.47, -11.86 -40.36, -8.72 -39.6 C-5.57 -38.83, -2.86 -37.04, 0.2 -35.39 C3.26 -33.74, 6.85 -31.94, 9.66 -29.71 C12.47 -27.48, 15.26 -23.24, 17.07 -21.99 C18.88 -20.75, 20.77 -20.76, 20.51 -22.26 C20.25 -23.77, 17.39 -28.35, 15.5 -31.03 C13.61 -33.72, 11.63 -36.42, 9.17 -38.36 C6.72 -40.3, 3.35 -41.38, 0.77 -42.67 C-1.81 -43.96, -3.45 -45.55, -6.3 -46.08 C-9.16 -46.6, -13.29 -45.59, -16.36 -45.8 C-19.42 -46.02, -21.22 -46.89, -24.68 -47.36 C-28.13 -47.84, -33.45 -49.08, -37.08 -48.64 C-40.71 -48.19, -43.81 -46.14, -46.47 -44.72 C-49.13 -43.3, -50.93 -41.48, -53.05 -40.13 C-55.17 -38.77, -56.63 -37.55, -59.18 -36.59 C-61.73 -35.62, -65.84 -35.69, -68.32 -34.34 C-70.81 -32.99, -71.72 -30.57, -74.11 -28.5 C-76.49 -26.42, -80.42 -22.93, -82.65 -21.91 C-84.88 -20.89, -87.4 -21.59, -87.49 -22.4 C-87.57 -23.2, -85.14 -24.87, -83.16 -26.75 C-81.18 -28.63, -78.68 -31.42, -75.61 -33.69 C-72.55 -35.96, -65.38 -39.01, -64.78 -40.38 C-64.19 -41.74, -69.01 -42.51, -72.06 -41.87 C-75.1 -41.23, -79.81 -38.8, -83.05 -36.54 C-86.28 -34.29, -89.33 -31.21, -91.46 -28.36 C-93.59 -25.5, -95 -22.7, -95.81 -19.43 C-96.62 -16.15, -96.9 -11.32, -96.33 -8.7 C-95.76 -6.09, -94.15 -4.51, -92.39 -3.72 C-90.64 -2.93, -88.69 -4.16, -85.81 -3.98 C-82.93 -3.8, -78.23 -3.14, -75.12 -2.64 C-72 -2.14, -69.13 -1.07, -67.11 -0.97 C-65.09 -0.88, -63.9 -2.97, -63 -2.07 C-62.1 -1.17, -63.78 3.09, -61.7 4.45 C-59.63 5.8, -55.75 6.08, -50.56 6.05 C-45.36 6.01, -35.93 5.24, -30.52 4.25 C-25.11 3.25, -22.16 1.47, -18.1 0.09 C-14.03 -1.29, -9.61 -2.56, -6.12 -4.03 C-2.63 -5.51, 1.81 -7.1, 2.83 -8.77 C3.85 -10.43, 2.04 -13.62, -0.01 -14.03 C-2.06 -14.43, -6.87 -11.94, -9.45 -11.19 C-12.02 -10.44, -14.48 -8.83, -15.47 -9.54 C-16.46 -10.25, -15.38 -12.89, -15.39 -15.46 C-15.41 -18.02, -17.15 -23.92, -15.56 -24.94 C-13.98 -25.96, -9.07 -22.91, -5.87 -21.57 C-2.67 -20.23, 1.63 -18.64, 3.63 -16.9 C5.62 -15.16, 6.14 -13.15, 6.1 -11.12 C6.05 -9.09, 4.38 -6.59, 3.37 -4.74 C2.35 -2.88, 0.56 -0.79, 0 0 M0 0 C-1.31 0.85, -4.55 3.31, -7.84 5.09 C-11.13 6.87, -19.66 9.33, -19.73 10.68 C-19.81 12.04, -12.2 13.81, -8.29 13.23 C-4.38 12.65, 0.32 9.12, 3.71 7.21 C7.09 5.3, 10.73 3.61, 12.01 1.8 C13.29 -0.02, 10.94 -1.89, 11.39 -3.68 C11.83 -5.47, 13.96 -6.92, 14.7 -8.93 C15.43 -10.94, 16.77 -13.55, 15.79 -15.75 C14.8 -17.94, 12 -19.6, 8.8 -22.11 C5.6 -24.63, -0.32 -28.72, -3.4 -30.83 C-6.48 -32.95, -6.85 -33.9, -9.67 -34.81 C-12.5 -35.72, -17.61 -36, -20.36 -36.29 C-23.1 -36.58, -26.43 -35.95, -26.15 -36.56 C-25.87 -37.17, -21.59 -39.46, -18.68 -39.96 C-15.78 -40.47, -11.86 -40.36, -8.72 -39.6 C-5.57 -38.83, -2.86 -37.04, 0.2 -35.39 C3.26 -33.74, 6.85 -31.94, 9.66 -29.71 C12.47 -27.48, 15.26 -23.24, 17.07 -21.99 C18.88 -20.75, 20.77 -20.76, 20.51 -22.26 C20.25 -23.77, 17.39 -28.35, 15.5 -31.03 C13.61 -33.72, 11.63 -36.42, 9.17 -38.36 C6.72 -40.3, 3.35 -41.38, 0.77 -42.67 C-1.81 -43.96, -3.45 -45.55, -6.3 -46.08 C-9.16 -46.6, -13.29 -45.59, -16.36 -45.8 C-19.42 -46.02, -21.22 -46.89, -24.68 -47.36 C-28.13 -47.84, -33.45 -49.08, -37.08 -48.64 C-40.71 -48.19, -43.81 -46.14, -46.47 -44.72 C-49.13 -43.3, -50.93 -41.48, -53.05 -40.13 C-55.17 -38.77, -56.63 -37.55, -59.18 -36.59 C-61.73 -35.62, -65.84 -35.69, -68.32 -34.34 C-70.81 -32.99, -71.72 -30.57, -74.11 -28.5 C-76.49 -26.42, -80.42 -22.93, -82.65 -21.91 C-84.88 -20.89, -87.4 -21.59, -87.49 -22.4 C-87.57 -23.2, -85.14 -24.87, -83.16 -26.75 C-81.18 -28.63, -78.68 -31.42, -75.61 -33.69 C-72.55 -35.96, -65.38 -39.01, -64.78 -40.38 C-64.19 -41.74, -69.01 -42.51, -72.06 -41.87 C-75.1 -41.23, -79.81 -38.8, -83.05 -36.54 C-86.28 -34.29, -89.33 -31.21, -91.46 -28.36 C-93.59 -25.5, -95 -22.7, -95.81 -19.43 C-96.62 -16.15, -96.9 -11.32, -96.33 -8.7 C-95.76 -6.09, -94.15 -4.51, -92.39 -3.72 C-90.64 -2.93, -88.69 -4.16, -85.81 -3.98 C-82.93 -3.8, -78.23 -3.14, -75.12 -2.64 C-72 -2.14, -69.13 -1.07, -67.11 -0.97 C-65.09 -0.88, -63.9 -2.97, -63 -2.07 C-62.1 -1.17, -63.78 3.09, -61.7 4.45 C-59.63 5.8, -55.75 6.08, -50.56 6.05 C-45.36 6.01, -35.93 5.24, -30.52 4.25 C-25.11 3.25, -22.16 1.47, -18.1 0.09 C-14.03 -1.29, -9.61 -2.56, -6.12 -4.03 C-2.63 -5.51, 1.81 -7.1, 2.83 -8.77 C3.85 -10.43, 2.04 -13.62, -0.01 -14.03 C-2.06 -14.43, -6.87 -11.94, -9.45 -11.19 C-12.02 -10.44, -14.48 -8.83, -15.47 -9.54 C-16.46 -10.25, -15.38 -12.89, -15.39 -15.46 C-15.41 -18.02, -17.15 -23.92, -15.56 -24.94 C-13.98 -25.96, -9.07 -22.91, -5.87 -21.57 C-2.67 -20.23, 1.63 -18.64, 3.63 -16.9 C5.62 -15.16, 6.14 -13.15, 6.1 -11.12 C6.05 -9.09, 4.38 -6.59, 3.37 -4.74 C2.35 -2.88, 0.56 -0.79, 0 0" stroke="#E1E1E1" stroke-width="2" fill="none"></path></g></g><mask></mask><g stroke-linecap="round"><g transform="translate(489.0530288239379 456.2851829541778) rotate(0 -14.399954855944884 10.609555589072897)"><path d="M0 0 C0.32 0.44, 1.59 0.99, 1.9 2.65 C2.21 4.31, 2 7.66, 1.86 9.96 C1.73 12.25, 2.09 14.76, 1.08 16.42 C0.07 18.07, -2.32 19.03, -4.2 19.87 C-6.07 20.72, -7.78 21.1, -10.17 21.5 C-12.56 21.89, -16.18 22.22, -18.54 22.24 C-20.89 22.25, -22.76 22.18, -24.3 21.56 C-25.85 20.94, -27.33 19.85, -27.81 18.53 C-28.29 17.22, -27.07 15.69, -27.17 13.68 C-27.26 11.67, -27.79 8.36, -28.38 6.47 C-28.97 4.58, -31.26 3.42, -30.7 2.34 C-30.13 1.26, -26.7 0.11, -25 0 C-23.31 -0.11, -21.07 0.58, -20.52 1.68 C-19.96 2.78, -21.57 4.53, -21.68 6.62 C-21.79 8.71, -22.2 12.43, -21.17 14.22 C-20.15 16, -17.44 17.13, -15.53 17.35 C-13.61 17.56, -11.2 16.34, -9.68 15.51 C-8.16 14.68, -7.46 13.69, -6.39 12.38 C-5.32 11.07, -3.35 9.18, -3.26 7.66 C-3.17 6.14, -5.53 4.7, -5.85 3.26 C-6.17 1.81, -6.16 -0.47, -5.19 -1.02 C-4.21 -1.56, -0.86 -0.17, 0 0 M0 0 C0.32 0.44, 1.59 0.99, 1.9 2.65 C2.21 4.31, 2 7.66, 1.86 9.96 C1.73 12.25, 2.09 14.76, 1.08 16.42 C0.07 18.07, -2.32 19.03, -4.2 19.87 C-6.07 20.72, -7.78 21.1, -10.17 21.5 C-12.56 21.89, -16.18 22.22, -18.54 22.24 C-20.89 22.25, -22.76 22.18, -24.3 21.56 C-25.85 20.94, -27.33 19.85, -27.81 18.53 C-28.29 17.22, -27.07 15.69, -27.17 13.68 C-27.26 11.67, -27.79 8.36, -28.38 6.47 C-28.97 4.58, -31.26 3.42, -30.7 2.34 C-30.13 1.26, -26.7 0.11, -25 0 C-23.31 -0.11, -21.07 0.58, -20.52 1.68 C-19.96 2.78, -21.57 4.53, -21.68 6.62 C-21.79 8.71, -22.2 12.43, -21.17 14.22 C-20.15 16, -17.44 17.13, -15.53 17.35 C-13.61 17.56, -11.2 16.34, -9.68 15.51 C-8.16 14.68, -7.46 13.69, -6.39 12.38 C-5.32 11.07, -3.35 9.18, -3.26 7.66 C-3.17 6.14, -5.53 4.7, -5.85 3.26 C-6.17 1.81, -6.16 -0.47, -5.19 -1.02 C-4.21 -1.56, -0.86 -0.17, 0 0" stroke="#E1E1E1" stroke-width="2" fill="none"></path></g></g><mask></mask><g stroke-linecap="round"><g transform="translate(449.7592147283517 460.9318025333032) rotate(0 -6.709526003871929 6.943587987854244)"><path d="M0 0 C-0.03 1.17, -0.67 4.89, -0.19 7.02 C0.29 9.16, 3.71 11.67, 2.89 12.81 C2.07 13.95, -2.55 13.8, -5.1 13.89 C-7.64 13.98, -10.53 13.48, -12.4 13.34 C-14.27 13.2, -16.02 13.77, -16.31 13.06 C-16.59 12.35, -15.27 10.22, -14.12 9.07 C-12.96 7.91, -10.71 7.06, -9.38 6.12 C-8.04 5.17, -7.34 4.16, -6.12 3.38 C-4.91 2.59, -3.09 1.97, -2.07 1.4 C-1.05 0.84, -0.35 0.23, 0 0 M0 0 C-0.03 1.17, -0.67 4.89, -0.19 7.02 C0.29 9.16, 3.71 11.67, 2.89 12.81 C2.07 13.95, -2.55 13.8, -5.1 13.89 C-7.64 13.98, -10.53 13.48, -12.4 13.34 C-14.27 13.2, -16.02 13.77, -16.31 13.06 C-16.59 12.35, -15.27 10.22, -14.12 9.07 C-12.96 7.91, -10.71 7.06, -9.38 6.12 C-8.04 5.17, -7.34 4.16, -6.12 3.38 C-4.91 2.59, -3.09 1.97, -2.07 1.4 C-1.05 0.84, -0.35 0.23, 0 0" stroke="#E1E1E1" stroke-width="2" fill="none"></path></g></g><mask></mask><g stroke-linecap="round"><g transform="translate(445.0508810569863 463.05316173647225) rotate(0 -3.1842966373956187 -3.4085746799255503)"><path d="M0 0 C-0.93 0.01, -4.49 0.66, -5.56 0.05 C-6.62 -0.57, -6.67 -2.53, -6.37 -3.68 C-6.07 -4.83, -4.2 -6.33, -3.77 -6.86 M0 0 C-0.93 0.01, -4.49 0.66, -5.56 0.05 C-6.62 -0.57, -6.67 -2.53, -6.37 -3.68 C-6.07 -4.83, -4.2 -6.33, -3.77 -6.86" stroke="#E1E1E1" stroke-width="2" fill="none"></path></g></g><mask></mask><g stroke-linecap="round"><g transform="translate(456.82823786303516 447.5112453037973) rotate(0 16.802288788009832 -2.08071821559588)"><path d="M0 0 C1.14 0, 4.38 0.62, 6.84 -0.02 C9.31 -0.65, 11.41 -3.12, 14.78 -3.81 C18.15 -4.5, 23.94 -4.56, 27.08 -4.16 C30.22 -3.76, 32.52 -1.85, 33.6 -1.39 M0 0 C1.14 0, 4.38 0.62, 6.84 -0.02 C9.31 -0.65, 11.41 -3.12, 14.78 -3.81 C18.15 -4.5, 23.94 -4.56, 27.08 -4.16 C30.22 -3.76, 32.52 -1.85, 33.6 -1.39" stroke="#E1E1E1" stroke-width="2" fill="none"></path></g></g><mask></mask><g stroke-linecap="round"><g transform="translate(374.7824748534008 592.0650372787068) rotate(0 14.138994494531062 36.91225956750577)"><path d="M0 0 C1.47 1.84, 7.14 6.92, 8.83 11.02 C10.53 15.12, 10.49 19.82, 10.17 24.59 C9.84 29.36, 9.71 35.18, 6.89 39.62 C4.07 44.06, -6.33 49.53, -6.77 51.25 C-7.2 52.97, 0.46 50.18, 4.27 49.96 C8.08 49.75, 12.62 48.83, 16.11 49.98 C19.59 51.14, 22.61 56.53, 25.16 56.89 C27.7 57.24, 30.56 54.83, 31.36 52.11 C32.16 49.4, 30.79 44.13, 29.93 40.6 C29.07 37.07, 27.88 33.66, 26.2 30.93 C24.52 28.2, 21.56 26.8, 19.86 24.21 C18.17 21.62, 14.69 16.04, 16.02 15.39 C17.35 14.74, 24.11 17.63, 27.83 20.33 C31.56 23.02, 36.03 27.14, 38.38 31.53 C40.73 35.93, 41.89 42.07, 41.94 46.7 C41.99 51.34, 40.77 55.98, 38.67 59.34 C36.58 62.7, 32.55 65.13, 29.38 66.88 C26.22 68.64, 22.06 70.52, 19.68 69.87 C17.29 69.22, 16.95 64.22, 15.07 62.97 C13.19 61.71, 11.14 61.82, 8.4 62.33 C5.66 62.85, 1.68 64.12, -1.37 66.03 C-4.43 67.95, -7.9 73.52, -9.95 73.82 C-11.99 74.13, -13.76 70.39, -13.66 67.89 C-13.56 65.39, -11.25 61.28, -9.33 58.83 C-7.42 56.38, -4.45 54.49, -2.18 53.16 C0.09 51.83, 3.21 51.25, 4.29 50.87 M0 0 C1.47 1.84, 7.14 6.92, 8.83 11.02 C10.53 15.12, 10.49 19.82, 10.17 24.59 C9.84 29.36, 9.71 35.18, 6.89 39.62 C4.07 44.06, -6.33 49.53, -6.77 51.25 C-7.2 52.97, 0.46 50.18, 4.27 49.96 C8.08 49.75, 12.62 48.83, 16.11 49.98 C19.59 51.14, 22.61 56.53, 25.16 56.89 C27.7 57.24, 30.56 54.83, 31.36 52.11 C32.16 49.4, 30.79 44.13, 29.93 40.6 C29.07 37.07, 27.88 33.66, 26.2 30.93 C24.52 28.2, 21.56 26.8, 19.86 24.21 C18.17 21.62, 14.69 16.04, 16.02 15.39 C17.35 14.74, 24.11 17.63, 27.83 20.33 C31.56 23.02, 36.03 27.14, 38.38 31.53 C40.73 35.93, 41.89 42.07, 41.94 46.7 C41.99 51.34, 40.77 55.98, 38.67 59.34 C36.58 62.7, 32.55 65.13, 29.38 66.88 C26.22 68.64, 22.06 70.52, 19.68 69.87 C17.29 69.22, 16.95 64.22, 15.07 62.97 C13.19 61.71, 11.14 61.82, 8.4 62.33 C5.66 62.85, 1.68 64.12, -1.37 66.03 C-4.43 67.95, -7.9 73.52, -9.95 73.82 C-11.99 74.13, -13.76 70.39, -13.66 67.89 C-13.56 65.39, -11.25 61.28, -9.33 58.83 C-7.42 56.38, -4.45 54.49, -2.18 53.16 C0.09 51.83, 3.21 51.25, 4.29 50.87" stroke="#E1E1E1" stroke-width="2" fill="none"></path></g></g><mask></mask><g stroke-linecap="round"><g transform="translate(360.37817408883257 646.0891700763968) rotate(0 -38.91730407956334 -8.36553362388031)"><path d="M0 0 C-3.77 -0.13, -18.16 -1.6, -22.63 -0.75 C-27.11 0.09, -24.78 5.28, -26.86 5.06 C-28.95 4.85, -31.82 -0.54, -35.14 -2.04 C-38.45 -3.55, -43.22 -4, -46.76 -3.97 C-50.29 -3.95, -53.95 -3.54, -56.32 -1.92 C-58.69 -0.29, -59.47 5.44, -60.96 5.76 C-62.44 6.09, -64 2.56, -65.23 0.03 C-66.47 -2.51, -68.63 -5.83, -68.37 -9.44 C-68.1 -13.05, -65.85 -17.74, -63.66 -21.63 C-61.46 -25.52, -55.88 -30.38, -55.18 -32.78 C-54.48 -35.17, -57.05 -36.51, -59.44 -36 C-61.83 -35.5, -66.47 -32.76, -69.54 -29.74 C-72.6 -26.73, -76.33 -22.4, -77.85 -17.91 C-79.37 -13.42, -79.55 -7.12, -78.67 -2.79 C-77.78 1.54, -75.15 4.98, -72.54 8.08 C-69.93 11.18, -65.88 14.61, -63 15.79 C-60.13 16.96, -57.42 16.52, -55.28 15.13 C-53.14 13.75, -52.24 8.79, -50.16 7.45 C-48.09 6.12, -45.69 6.32, -42.83 7.13 C-39.97 7.95, -36.03 10.32, -32.99 12.34 C-29.95 14.36, -26.46 19.11, -24.58 19.27 C-22.7 19.43, -22.24 15.29, -21.7 13.28 C-21.15 11.27, -22.78 7.45, -21.3 7.19 C-19.82 6.94, -15.53 11.32, -12.8 11.76 C-10.07 12.2, -7.19 10.92, -4.92 9.81 C-2.65 8.7, 0.01 6.73, 0.83 5.09 C1.65 3.46, 0.14 0.85, 0 0 M0 0 C-3.77 -0.13, -18.16 -1.6, -22.63 -0.75 C-27.11 0.09, -24.78 5.28, -26.86 5.06 C-28.95 4.85, -31.82 -0.54, -35.14 -2.04 C-38.45 -3.55, -43.22 -4, -46.76 -3.97 C-50.29 -3.95, -53.95 -3.54, -56.32 -1.92 C-58.69 -0.29, -59.47 5.44, -60.96 5.76 C-62.44 6.09, -64 2.56, -65.23 0.03 C-66.47 -2.51, -68.63 -5.83, -68.37 -9.44 C-68.1 -13.05, -65.85 -17.74, -63.66 -21.63 C-61.46 -25.52, -55.88 -30.38, -55.18 -32.78 C-54.48 -35.17, -57.05 -36.51, -59.44 -36 C-61.83 -35.5, -66.47 -32.76, -69.54 -29.74 C-72.6 -26.73, -76.33 -22.4, -77.85 -17.91 C-79.37 -13.42, -79.55 -7.12, -78.67 -2.79 C-77.78 1.54, -75.15 4.98, -72.54 8.08 C-69.93 11.18, -65.88 14.61, -63 15.79 C-60.13 16.96, -57.42 16.52, -55.28 15.13 C-53.14 13.75, -52.24 8.79, -50.16 7.45 C-48.09 6.12, -45.69 6.32, -42.83 7.13 C-39.97 7.95, -36.03 10.32, -32.99 12.34 C-29.95 14.36, -26.46 19.11, -24.58 19.27 C-22.7 19.43, -22.24 15.29, -21.7 13.28 C-21.15 11.27, -22.78 7.45, -21.3 7.19 C-19.82 6.94, -15.53 11.32, -12.8 11.76 C-10.07 12.2, -7.19 10.92, -4.92 9.81 C-2.65 8.7, 0.01 6.73, 0.83 5.09 C1.65 3.46, 0.14 0.85, 0 0" stroke="#E1E1E1" stroke-width="2" fill="none"></path></g></g><mask></mask><g stroke-linecap="round"><g transform="translate(157.4475289413258 390.1725077590663) rotate(0 58.65338480678838 4.738021639672752)"><path d="M0 0 C2.3 -1.05, 9.05 -4.86, 13.78 -6.29 C18.51 -7.71, 22.6 -8.15, 28.38 -8.54 C34.16 -8.94, 42.06 -9.44, 48.46 -8.66 C54.85 -7.87, 60.63 -5.28, 66.75 -3.83 C72.86 -2.39, 79.51 -1.23, 85.17 0.02 C90.83 1.28, 96.45 2.39, 100.71 3.72 C104.97 5.06, 107.96 6.61, 110.73 8.03 C113.5 9.45, 117.27 10.55, 117.31 12.24 C117.34 13.92, 114.36 17.98, 110.93 18.13 C107.49 18.28, 102.37 14.72, 96.7 13.14 C91.03 11.56, 83.81 10.36, 76.89 8.64 C69.97 6.93, 60.87 4.21, 55.2 2.82 C49.54 1.44, 46.17 1.27, 42.91 0.34 C39.65 -0.6, 37.78 -1.62, 35.66 -2.78 C33.54 -3.94, 30.09 -5.66, 30.2 -6.61 C30.31 -7.57, 35.3 -8.19, 36.32 -8.51 M0 0 C2.3 -1.05, 9.05 -4.86, 13.78 -6.29 C18.51 -7.71, 22.6 -8.15, 28.38 -8.54 C34.16 -8.94, 42.06 -9.44, 48.46 -8.66 C54.85 -7.87, 60.63 -5.28, 66.75 -3.83 C72.86 -2.39, 79.51 -1.23, 85.17 0.02 C90.83 1.28, 96.45 2.39, 100.71 3.72 C104.97 5.06, 107.96 6.61, 110.73 8.03 C113.5 9.45, 117.27 10.55, 117.31 12.24 C117.34 13.92, 114.36 17.98, 110.93 18.13 C107.49 18.28, 102.37 14.72, 96.7 13.14 C91.03 11.56, 83.81 10.36, 76.89 8.64 C69.97 6.93, 60.87 4.21, 55.2 2.82 C49.54 1.44, 46.17 1.27, 42.91 0.34 C39.65 -0.6, 37.78 -1.62, 35.66 -2.78 C33.54 -3.94, 30.09 -5.66, 30.2 -6.61 C30.31 -7.57, 35.3 -8.19, 36.32 -8.51" stroke="#E1E1E1" stroke-width="2" fill="none"></path></g></g><mask></mask><g stroke-linecap="round"><g transform="translate(282.45373458615495 405.1071124383516) rotate(0 4.956476742869199 9.163447302948953)"><path d="M0 0 C2.05 1.5, 9.83 6.42, 12.27 9.01 C14.71 11.59, 14.97 13.95, 14.65 15.5 C14.33 17.05, 12.76 18.97, 10.36 18.33 C7.95 17.69, 2.7 13.63, 0.21 11.65 C-2.28 9.67, -3.76 7.99, -4.58 6.44 C-5.41 4.89, -5.5 3.42, -4.74 2.35 C-3.97 1.27, -0.79 0.39, 0 0 M0 0 C2.05 1.5, 9.83 6.42, 12.27 9.01 C14.71 11.59, 14.97 13.95, 14.65 15.5 C14.33 17.05, 12.76 18.97, 10.36 18.33 C7.95 17.69, 2.7 13.63, 0.21 11.65 C-2.28 9.67, -3.76 7.99, -4.58 6.44 C-5.41 4.89, -5.5 3.42, -4.74 2.35 C-3.97 1.27, -0.79 0.39, 0 0" stroke="#E1E1E1" stroke-width="2" fill="none"></path></g></g><mask></mask><g stroke-linecap="round"><g transform="translate(184.63493034794965 382.67422743978113) rotate(0 -27.684256015182882 25.764828211592885)"><path d="M0 0 C-0.65 0.97, -0.54 3.52, -3.92 5.81 C-7.3 8.1, -15.3 10.87, -20.29 13.74 C-25.28 16.62, -30.05 20.12, -33.87 23.05 C-37.69 25.98, -42.81 29.87, -43.23 31.33 C-43.66 32.79, -38.68 32.27, -36.43 31.81 C-34.18 31.35, -32.23 29.21, -29.72 28.56 C-27.21 27.91, -24.68 28.27, -21.38 27.91 C-18.09 27.55, -10.79 25.33, -9.97 26.4 C-9.15 27.46, -12.69 31.93, -16.44 34.28 C-20.18 36.64, -27.38 38.05, -32.44 40.51 C-37.5 42.96, -42.96 47.16, -46.78 49 C-50.6 50.84, -54.15 52.7, -55.37 51.53 C-56.59 50.36, -54.71 45.44, -54.1 41.98 C-53.48 38.52, -53.05 34.25, -51.67 30.78 C-50.29 27.31, -48.45 24.28, -45.82 21.16 C-43.18 18.04, -39 14.29, -35.86 12.07 C-32.72 9.86, -28.46 8.55, -26.98 7.84 M0 0 C-0.65 0.97, -0.54 3.52, -3.92 5.81 C-7.3 8.1, -15.3 10.87, -20.29 13.74 C-25.28 16.62, -30.05 20.12, -33.87 23.05 C-37.69 25.98, -42.81 29.87, -43.23 31.33 C-43.66 32.79, -38.68 32.27, -36.43 31.81 C-34.18 31.35, -32.23 29.21, -29.72 28.56 C-27.21 27.91, -24.68 28.27, -21.38 27.91 C-18.09 27.55, -10.79 25.33, -9.97 26.4 C-9.15 27.46, -12.69 31.93, -16.44 34.28 C-20.18 36.64, -27.38 38.05, -32.44 40.51 C-37.5 42.96, -42.96 47.16, -46.78 49 C-50.6 50.84, -54.15 52.7, -55.37 51.53 C-56.59 50.36, -54.71 45.44, -54.1 41.98 C-53.48 38.52, -53.05 34.25, -51.67 30.78 C-50.29 27.31, -48.45 24.28, -45.82 21.16 C-43.18 18.04, -39 14.29, -35.86 12.07 C-32.72 9.86, -28.46 8.55, -26.98 7.84" stroke="#E1E1E1" stroke-width="2" fill="none"></path></g></g><mask></mask><g stroke-linecap="round"><g transform="translate(154.70617889863843 377.36291202100256) rotate(0 -8.06674636130424 6.7745220676274585)"><path d="M0 0 C-1.95 0.68, -9 1.84, -11.72 4.1 C-14.45 6.36, -16.95 12.88, -16.36 13.55 C-15.76 14.21, -10.91 10.04, -8.14 8.09 C-5.38 6.13, -1.13 3.16, 0.22 1.81 C1.58 0.46, 0.04 0.3, 0 0 M0 0 C-1.95 0.68, -9 1.84, -11.72 4.1 C-14.45 6.36, -16.95 12.88, -16.36 13.55 C-15.76 14.21, -10.91 10.04, -8.14 8.09 C-5.38 6.13, -1.13 3.16, 0.22 1.81 C1.58 0.46, 0.04 0.3, 0 0" stroke="#E1E1E1" stroke-width="2" fill="none"></path></g></g><mask></mask><g stroke-linecap="round"><g transform="translate(165.03029465963755 330.32063722037856) rotate(0 -5.625118329447787 1.3972275753235408)"><path d="M0 0 C-0.07 2.31, 0 9.44, -0.44 13.89 C-0.88 18.34, -1.61 25.85, -2.63 26.72 C-3.66 27.58, -5.91 22.7, -6.59 19.08 C-7.26 15.47, -6.4 8.85, -6.69 5.02 C-6.97 1.18, -7.53 -1.11, -8.29 -3.93 C-9.05 -6.76, -10.93 -8.69, -11.25 -11.94 C-11.57 -15.19, -11.04 -21.43, -10.19 -23.43 C-9.33 -25.43, -6.96 -25.34, -6.12 -23.92 C-5.27 -22.51, -6 -18.16, -5.11 -14.95 C-4.21 -11.74, -1.61 -7.17, -0.76 -4.68 C0.09 -2.19, -0.13 -0.78, 0 0 M0 0 C-0.07 2.31, 0 9.44, -0.44 13.89 C-0.88 18.34, -1.61 25.85, -2.63 26.72 C-3.66 27.58, -5.91 22.7, -6.59 19.08 C-7.26 15.47, -6.4 8.85, -6.69 5.02 C-6.97 1.18, -7.53 -1.11, -8.29 -3.93 C-9.05 -6.76, -10.93 -8.69, -11.25 -11.94 C-11.57 -15.19, -11.04 -21.43, -10.19 -23.43 C-9.33 -25.43, -6.96 -25.34, -6.12 -23.92 C-5.27 -22.51, -6 -18.16, -5.11 -14.95 C-4.21 -11.74, -1.61 -7.17, -0.76 -4.68 C0.09 -2.19, -0.13 -0.78, 0 0" stroke="#E1E1E1" stroke-width="2" fill="none"></path></g></g><mask></mask><g stroke-linecap="round"><g transform="translate(227.8512235069593 425.3787804675476) rotate(0 14.879488014205663 3.2245260628324104)"><path d="M0 0 C3.94 1.18, 15.07 4.84, 23.65 7.07 C32.23 9.3, 43.91 11.2, 51.5 13.37 C59.09 15.54, 66.72 20.06, 69.19 20.07 C71.66 20.08, 70.36 16.34, 66.3 13.44 C62.25 10.55, 53.74 6.03, 44.85 2.7 C35.96 -0.63, 21.47 -3.97, 12.96 -6.54 C4.44 -9.12, 1.41 -11.56, -6.24 -12.74 C-13.9 -13.92, -27.42 -14.2, -32.95 -13.62 C-38.48 -13.05, -41.13 -10.24, -39.43 -9.29 C-37.73 -8.33, -26.89 -8.47, -22.75 -7.9 C-18.62 -7.34, -18.43 -7.2, -14.64 -5.88 C-10.84 -4.56, -2.44 -0.98, 0 0 M0 0 C3.94 1.18, 15.07 4.84, 23.65 7.07 C32.23 9.3, 43.91 11.2, 51.5 13.37 C59.09 15.54, 66.72 20.06, 69.19 20.07 C71.66 20.08, 70.36 16.34, 66.3 13.44 C62.25 10.55, 53.74 6.03, 44.85 2.7 C35.96 -0.63, 21.47 -3.97, 12.96 -6.54 C4.44 -9.12, 1.41 -11.56, -6.24 -12.74 C-13.9 -13.92, -27.42 -14.2, -32.95 -13.62 C-38.48 -13.05, -41.13 -10.24, -39.43 -9.29 C-37.73 -8.33, -26.89 -8.47, -22.75 -7.9 C-18.62 -7.34, -18.43 -7.2, -14.64 -5.88 C-10.84 -4.56, -2.44 -0.98, 0 0" stroke="#E1E1E1" stroke-width="2" fill="none"></path></g></g><mask></mask><g stroke-linecap="round"><g transform="translate(283.4377883290981 474.42939389645016) rotate(0 5.026076619209789 5.0099841622522945)"><path d="M0 0 C0.08 -1.37, -0.49 -7.31, 0.47 -8.24 C1.44 -9.18, 4.14 -7.57, 5.81 -5.61 C7.48 -3.65, 10.51 0.06, 10.48 3.55 C10.46 7.03, 7.49 12.84, 5.67 15.3 C3.85 17.75, 0.47 19.03, -0.43 18.26 C-1.34 17.49, 0.11 12.81, 0.24 10.69 C0.37 8.57, 0.38 7.31, 0.34 5.53 C0.3 3.75, 0.06 0.92, 0 0 M0 0 C0.08 -1.37, -0.49 -7.31, 0.47 -8.24 C1.44 -9.18, 4.14 -7.57, 5.81 -5.61 C7.48 -3.65, 10.51 0.06, 10.48 3.55 C10.46 7.03, 7.49 12.84, 5.67 15.3 C3.85 17.75, 0.47 19.03, -0.43 18.26 C-1.34 17.49, 0.11 12.81, 0.24 10.69 C0.37 8.57, 0.38 7.31, 0.34 5.53 C0.3 3.75, 0.06 0.92, 0 0" stroke="#E1E1E1" stroke-width="2" fill="none"></path></g></g><mask></mask><g stroke-linecap="round"><g transform="translate(253.9636487888315 489.23204042868474) rotate(0 1.5786700275175463 3.4506250830836507)"><path d="M0 0 C1.12 -0.25, 5.43 -2.26, 6.71 -1.51 C7.98 -0.76, 9.08 2.85, 7.65 4.5 C6.21 6.15, 0.13 8.3, -1.89 8.41 C-3.91 8.52, -4.8 6.56, -4.49 5.16 C-4.17 3.76, -0.75 0.86, 0 0 M0 0 C1.12 -0.25, 5.43 -2.26, 6.71 -1.51 C7.98 -0.76, 9.08 2.85, 7.65 4.5 C6.21 6.15, 0.13 8.3, -1.89 8.41 C-3.91 8.52, -4.8 6.56, -4.49 5.16 C-4.17 3.76, -0.75 0.86, 0 0" stroke="#E1E1E1" stroke-width="2" fill="none"></path></g></g><mask></mask><g stroke-linecap="round"><g transform="translate(175.50809338457884 476.8191237546189) rotate(0 11.510934461604847 9.391155568895556)"><path d="M0 0 C2.82 1.89, 12.59 8.76, 16.9 11.34 C21.21 13.92, 26.31 14.23, 25.84 15.47 C25.37 16.71, 18 19.22, 14.07 18.78 C10.15 18.35, 5.1 14.7, 2.29 12.87 C-0.53 11.04, -2.44 9.95, -2.82 7.8 C-3.2 5.66, -0.47 1.3, 0 0 M0 0 C2.82 1.89, 12.59 8.76, 16.9 11.34 C21.21 13.92, 26.31 14.23, 25.84 15.47 C25.37 16.71, 18 19.22, 14.07 18.78 C10.15 18.35, 5.1 14.7, 2.29 12.87 C-0.53 11.04, -2.44 9.95, -2.82 7.8 C-3.2 5.66, -0.47 1.3, 0 0" stroke="#E1E1E1" stroke-width="2" fill="none"></path></g></g><mask></mask><g stroke-linecap="round"><g transform="translate(232.07549345826828 453.9187528814382) rotate(0 -9.604782935004778 11.980431893336117)"><path d="M0 0 C1.11 0.66, 5.77 1.42, 6.64 3.99 C7.51 6.56, 6.1 12.3, 5.22 15.4 C4.33 18.51, 3.56 21.1, 1.31 22.62 C-0.93 24.13, -4.82 24.5, -8.24 24.49 C-11.66 24.49, -16.29 23.56, -19.21 22.6 C-22.13 21.64, -24.91 20.36, -25.78 18.72 C-26.66 17.08, -24.44 14.8, -24.45 12.76 C-24.46 10.73, -26.11 8.24, -25.85 6.49 C-25.59 4.74, -23.92 3.43, -22.87 2.26 C-21.81 1.09, -20.22 -1.32, -19.54 -0.53 C-18.86 0.25, -18.85 4.44, -18.8 6.98 C-18.74 9.52, -19.96 12.91, -19.21 14.72 C-18.46 16.53, -16.51 17.32, -14.3 17.84 C-12.1 18.35, -8.28 18.65, -5.97 17.81 C-3.66 16.97, -1.36 14.36, -0.43 12.79 C0.49 11.22, -0.58 9.97, -0.43 8.41 C-0.29 6.85, 0.36 4.85, 0.43 3.45 C0.5 2.05, 0.07 0.57, 0 0 M0 0 C1.11 0.66, 5.77 1.42, 6.64 3.99 C7.51 6.56, 6.1 12.3, 5.22 15.4 C4.33 18.51, 3.56 21.1, 1.31 22.62 C-0.93 24.13, -4.82 24.5, -8.24 24.49 C-11.66 24.49, -16.29 23.56, -19.21 22.6 C-22.13 21.64, -24.91 20.36, -25.78 18.72 C-26.66 17.08, -24.44 14.8, -24.45 12.76 C-24.46 10.73, -26.11 8.24, -25.85 6.49 C-25.59 4.74, -23.92 3.43, -22.87 2.26 C-21.81 1.09, -20.22 -1.32, -19.54 -0.53 C-18.86 0.25, -18.85 4.44, -18.8 6.98 C-18.74 9.52, -19.96 12.91, -19.21 14.72 C-18.46 16.53, -16.51 17.32, -14.3 17.84 C-12.1 18.35, -8.28 18.65, -5.97 17.81 C-3.66 16.97, -1.36 14.36, -0.43 12.79 C0.49 11.22, -0.58 9.97, -0.43 8.41 C-0.29 6.85, 0.36 4.85, 0.43 3.45 C0.5 2.05, 0.07 0.57, 0 0" stroke="#E1E1E1" stroke-width="2" fill="none"></path></g></g><mask></mask><g stroke-linecap="round"><g transform="translate(243.00066248662506 438.957595648174) rotate(0 -23.839365736643913 22.34075568248909)"><path d="M0 0 C1.83 0.29, 6.97 0.38, 11 1.77 C15.03 3.16, 20.79 5.63, 24.2 8.34 C27.61 11.05, 29.92 14.96, 31.46 18.01 C32.99 21.05, 33.09 23.14, 33.42 26.62 C33.75 30.09, 34.86 36.16, 33.42 38.86 C31.98 41.57, 28.16 42.27, 24.76 42.84 C21.36 43.41, 16.46 41.76, 13.03 42.28 C9.6 42.8, 7.88 44.95, 4.15 45.98 C0.43 47, -3.98 48.03, -9.32 48.43 C-14.66 48.83, -22.27 49.09, -27.91 48.37 C-33.55 47.65, -38.1 45.96, -43.15 44.11 C-48.21 42.26, -54.69 39.16, -58.24 37.26 C-61.79 35.36, -64.57 33.7, -64.46 32.7 C-64.34 31.69, -60.03 31.13, -57.56 31.23 C-55.09 31.33, -52.04 32.68, -49.65 33.3 C-47.25 33.92, -43.99 36.03, -43.18 34.94 C-42.38 33.85, -44.54 29.62, -44.83 26.76 C-45.13 23.9, -43.68 18.79, -44.95 17.76 C-46.21 16.72, -49.86 19.1, -52.43 20.56 C-55.01 22.03, -57.27 24.53, -60.39 26.57 C-63.52 28.6, -68.37 32.1, -71.17 32.78 C-73.97 33.47, -77.03 31.94, -77.19 30.68 C-77.35 29.43, -74.62 27.53, -72.13 25.24 C-69.64 22.96, -65.37 19.47, -62.22 16.97 C-59.08 14.48, -53.8 11.57, -53.28 10.27 C-52.76 8.96, -56.35 8.01, -59.11 9.16 C-61.88 10.31, -66.32 14.86, -69.89 17.18 C-73.46 19.5, -78.68 23.18, -80.55 23.07 C-82.42 22.97, -82.82 19.15, -81.1 16.54 C-79.38 13.94, -73.63 9.91, -70.25 7.42 C-66.87 4.93, -64.22 3.12, -60.84 1.62 C-57.45 0.12, -53.9 -1.28, -49.94 -1.56 C-45.98 -1.84, -41.15 0.31, -37.1 -0.05 C-33.05 -0.42, -29.2 -3.61, -25.66 -3.75 C-22.13 -3.89, -19.33 -2.57, -15.89 -0.9 C-12.45 0.77, -8.56 4.76, -5.03 6.26 C-1.5 7.75, 2.43 6.56, 5.29 8.06 C8.16 9.56, 9.57 12.54, 12.17 15.25 C14.76 17.96, 18.48 22.55, 20.84 24.32 C23.2 26.08, 25.84 26.65, 26.31 25.83 C26.78 25.02, 25.4 21.79, 23.65 19.44 C21.9 17.09, 18.18 13.83, 15.79 11.74 C13.4 9.65, 11.43 8.25, 9.31 6.91 C7.19 5.56, 4.62 4.82, 3.07 3.67 C1.51 2.52, 0.51 0.61, 0 0 M0 0 C1.83 0.29, 6.97 0.38, 11 1.77 C15.03 3.16, 20.79 5.63, 24.2 8.34 C27.61 11.05, 29.92 14.96, 31.46 18.01 C32.99 21.05, 33.09 23.14, 33.42 26.62 C33.75 30.09, 34.86 36.16, 33.42 38.86 C31.98 41.57, 28.16 42.27, 24.76 42.84 C21.36 43.41, 16.46 41.76, 13.03 42.28 C9.6 42.8, 7.88 44.95, 4.15 45.98 C0.43 47, -3.98 48.03, -9.32 48.43 C-14.66 48.83, -22.27 49.09, -27.91 48.37 C-33.55 47.65, -38.1 45.96, -43.15 44.11 C-48.21 42.26, -54.69 39.16, -58.24 37.26 C-61.79 35.36, -64.57 33.7, -64.46 32.7 C-64.34 31.69, -60.03 31.13, -57.56 31.23 C-55.09 31.33, -52.04 32.68, -49.65 33.3 C-47.25 33.92, -43.99 36.03, -43.18 34.94 C-42.38 33.85, -44.54 29.62, -44.83 26.76 C-45.13 23.9, -43.68 18.79, -44.95 17.76 C-46.21 16.72, -49.86 19.1, -52.43 20.56 C-55.01 22.03, -57.27 24.53, -60.39 26.57 C-63.52 28.6, -68.37 32.1, -71.17 32.78 C-73.97 33.47, -77.03 31.94, -77.19 30.68 C-77.35 29.43, -74.62 27.53, -72.13 25.24 C-69.64 22.96, -65.37 19.47, -62.22 16.97 C-59.08 14.48, -53.8 11.57, -53.28 10.27 C-52.76 8.96, -56.35 8.01, -59.11 9.16 C-61.88 10.31, -66.32 14.86, -69.89 17.18 C-73.46 19.5, -78.68 23.18, -80.55 23.07 C-82.42 22.97, -82.82 19.15, -81.1 16.54 C-79.38 13.94, -73.63 9.91, -70.25 7.42 C-66.87 4.93, -64.22 3.12, -60.84 1.62 C-57.45 0.12, -53.9 -1.28, -49.94 -1.56 C-45.98 -1.84, -41.15 0.31, -37.1 -0.05 C-33.05 -0.42, -29.2 -3.61, -25.66 -3.75 C-22.13 -3.89, -19.33 -2.57, -15.89 -0.9 C-12.45 0.77, -8.56 4.76, -5.03 6.26 C-1.5 7.75, 2.43 6.56, 5.29 8.06 C8.16 9.56, 9.57 12.54, 12.17 15.25 C14.76 17.96, 18.48 22.55, 20.84 24.32 C23.2 26.08, 25.84 26.65, 26.31 25.83 C26.78 25.02, 25.4 21.79, 23.65 19.44 C21.9 17.09, 18.18 13.83, 15.79 11.74 C13.4 9.65, 11.43 8.25, 9.31 6.91 C7.19 5.56, 4.62 4.82, 3.07 3.67 C1.51 2.52, 0.51 0.61, 0 0" stroke="#E1E1E1" stroke-width="2" fill="none"></path></g></g><mask></mask><g stroke-linecap="round"><g transform="translate(248.8140625624742 465.5029080221984) rotate(0 7.060163178620996 3.45022277165981)"><path d="M0 0 C0.04 0.7, 0.78 3.06, 0.25 4.22 C-0.28 5.39, -3.33 5.9, -3.2 7 C-3.08 8.1, -0.58 10.56, 1.01 10.85 C2.6 11.14, 3.63 9.03, 6.34 8.75 C9.06 8.47, 15.92 9.78, 17.32 9.15 C18.72 8.52, 16.06 6.42, 14.75 4.98 C13.44 3.55, 11.58 2.02, 9.48 0.54 C7.39 -0.95, 3.81 -3.38, 2.16 -3.95 C0.52 -4.51, -0.02 -3.51, -0.38 -2.85 C-0.74 -2.2, -0.06 -0.48, 0 0 M0 0 C0.04 0.7, 0.78 3.06, 0.25 4.22 C-0.28 5.39, -3.33 5.9, -3.2 7 C-3.08 8.1, -0.58 10.56, 1.01 10.85 C2.6 11.14, 3.63 9.03, 6.34 8.75 C9.06 8.47, 15.92 9.78, 17.32 9.15 C18.72 8.52, 16.06 6.42, 14.75 4.98 C13.44 3.55, 11.58 2.02, 9.48 0.54 C7.39 -0.95, 3.81 -3.38, 2.16 -3.95 C0.52 -4.51, -0.02 -3.51, -0.38 -2.85 C-0.74 -2.2, -0.06 -0.48, 0 0" stroke="#E1E1E1" stroke-width="2" fill="none"></path></g></g><mask></mask><g stroke-linecap="round"><g transform="translate(191.92561797248482 446.21046599885904) rotate(0 6.6908412914494875 -1.6840756205883736)"><path d="M0 0 C1.99 0.08, 9.34 0.78, 11.93 0.47 C14.52 0.16, 16.62 -1.14, 15.54 -1.86 C14.47 -2.58, 8.43 -4.09, 5.47 -3.84 C2.52 -3.59, -1.52 -0.95, -2.16 -0.37 C-2.8 0.22, 1 -0.32, 1.64 -0.31 M0 0 C1.99 0.08, 9.34 0.78, 11.93 0.47 C14.52 0.16, 16.62 -1.14, 15.54 -1.86 C14.47 -2.58, 8.43 -4.09, 5.47 -3.84 C2.52 -3.59, -1.52 -0.95, -2.16 -0.37 C-2.8 0.22, 1 -0.32, 1.64 -0.31" stroke="#E1E1E1" stroke-width="2" fill="none"></path></g></g><mask></mask><g stroke-linecap="round"><g transform="translate(376.6490404416927 595.1359263736931) rotate(0 -1.1535494276445206 21.912938096267226)"><path d="M0 0 C-0.59 2.06, -3.81 8, -3.56 12.37 C-3.31 16.75, 1.55 21.02, 1.51 26.26 C1.47 31.5, -2.93 40.9, -3.82 43.83 M0 0 C-0.59 2.06, -3.81 8, -3.56 12.37 C-3.31 16.75, 1.55 21.02, 1.51 26.26 C1.47 31.5, -2.93 40.9, -3.82 43.83" stroke="#E1E1E1" stroke-width="2" fill="none"></path></g></g><mask></mask><g stroke-linecap="round"><g transform="translate(672.8858766445401 520.1117255869694) rotate(0 -6.2063937068277255 14.971390052207425)"><path d="M0 0 C-0.76 1.93, -2.49 6.59, -4.56 11.58 C-6.63 16.57, -11.52 29.05, -12.41 29.94 C-13.3 30.83, -10.33 19.1, -9.91 16.93 M0 0 C-0.76 1.93, -2.49 6.59, -4.56 11.58 C-6.63 16.57, -11.52 29.05, -12.41 29.94 C-13.3 30.83, -10.33 19.1, -9.91 16.93" stroke="#E1E1E1" stroke-width="2" fill="none"></path></g></g><mask></mask></svg>