<svg version="1.1" xmlns="http://www.w3.org/2000/svg" viewBox="0 0 760.1103704846703 721.2462109679722" width="760.1103704846703" height="721.2462109679722" class="excalidraw-svg"><!-- svg-source:excalidraw --><metadata></metadata><defs><style class="style-fonts">
      </style></defs><rect x="0" y="0" width="760.1103704846703" height="721.2462109679722" fill="#000000"></rect><g stroke-linecap="round"><g transform="translate(435.89975633653546 388.5015655665954) rotate(0 -67.85997603435739 65.06355461623542)"><path d="M0 0 C-1.27 -1.05, -4.23 -4.26, -7.62 -6.32 C-11.01 -8.39, -15.47 -10.55, -20.35 -12.38 C-25.23 -14.21, -30.88 -16.31, -36.89 -17.3 C-42.9 -18.3, -50.01 -18.5, -56.42 -18.37 C-62.83 -18.24, -69.44 -17.69, -75.33 -16.52 C-81.23 -15.34, -86.17 -13.88, -91.81 -11.31 C-97.45 -8.73, -104.14 -5.12, -109.17 -1.05 C-114.21 3.03, -118.23 7.94, -122 13.14 C-125.76 18.34, -129.02 23.28, -131.75 30.14 C-134.48 37.01, -137.4 46.05, -138.36 54.34 C-139.31 62.64, -139.14 71.27, -137.48 79.91 C-135.82 88.56, -132.41 98.62, -128.38 106.22 C-124.34 113.82, -119.26 120.02, -113.26 125.54 C-107.27 131.06, -100.12 135.52, -92.42 139.34 C-84.72 143.17, -75.76 147.08, -67.06 148.5 C-58.36 149.91, -49.17 149.16, -40.24 147.81 C-31.31 146.47, -20.64 143.97, -13.49 140.43 C-6.35 136.89, -0.05 128.87, 2.64 126.56 M0 0 C-1.27 -1.05, -4.23 -4.26, -7.62 -6.32 C-11.01 -8.39, -15.47 -10.55, -20.35 -12.38 C-25.23 -14.21, -30.88 -16.31, -36.89 -17.3 C-42.9 -18.3, -50.01 -18.5, -56.42 -18.37 C-62.83 -18.24, -69.44 -17.69, -75.33 -16.52 C-81.23 -15.34, -86.17 -13.88, -91.81 -11.31 C-97.45 -8.73, -104.14 -5.12, -109.17 -1.05 C-114.21 3.03, -118.23 7.94, -122 13.14 C-125.76 18.34, -129.02 23.28, -131.75 30.14 C-134.48 37.01, -137.4 46.05, -138.36 54.34 C-139.31 62.64, -139.14 71.27, -137.48 79.91 C-135.82 88.56, -132.41 98.62, -128.38 106.22 C-124.34 113.82, -119.26 120.02, -113.26 125.54 C-107.27 131.06, -100.12 135.52, -92.42 139.34 C-84.72 143.17, -75.76 147.08, -67.06 148.5 C-58.36 149.91, -49.17 149.16, -40.24 147.81 C-31.31 146.47, -20.64 143.97, -13.49 140.43 C-6.35 136.89, -0.05 128.87, 2.64 126.56" stroke="#E1E1E1" stroke-width="4" fill="none"></path></g></g><mask></mask><g stroke-linecap="round"><g transform="translate(453.8333610008557 390.41522152902616) rotate(0 -0.82441316286004 61.49433937122178)"><path d="M0 0 C-4.28 -0.1, -20.2 -0.65, -25.7 -0.63 C-31.2 -0.6, -30.84 -0.78, -32.99 0.13 C-35.14 1.04, -37.37 2.54, -38.61 4.81 C-39.84 7.09, -41.06 11.2, -40.4 13.76 C-39.73 16.32, -38.13 18.77, -34.63 20.17 C-31.14 21.57, -23.88 21.82, -19.43 22.15 C-14.98 22.48, -11.33 21.02, -7.94 22.15 C-4.56 23.28, -0.93 25.54, 0.87 28.93 C2.66 32.32, 2.49 37.47, 2.82 42.49 C3.16 47.52, 2.93 51.18, 2.87 59.07 C2.81 66.95, 3.27 83.3, 2.45 89.8 C1.63 96.3, 0.39 95.63, -2.03 98.05 C-4.46 100.47, -8.55 103.19, -12.11 104.31 C-15.67 105.42, -20.16 104.51, -23.39 104.74 C-26.61 104.97, -29.24 105, -31.46 105.69 C-33.68 106.38, -35.73 106.92, -36.71 108.89 C-37.7 110.86, -38.68 115.15, -37.36 117.51 C-36.05 119.87, -33.1 122.04, -28.81 123.05 C-24.53 124.07, -18.19 123.61, -11.65 123.62 C-5.1 123.62, 3.93 123.2, 10.45 123.1 C16.97 123, 23.11 123.6, 27.47 123 C31.82 122.4, 34.68 122.13, 36.56 119.52 C38.44 116.91, 38.42 112.11, 38.75 107.35 C39.08 102.58, 38.69 97.89, 38.55 90.92 C38.41 83.96, 38.04 72.82, 37.91 65.54 C37.78 58.26, 37.78 50.32, 37.76 47.27 M0 0 C-4.28 -0.1, -20.2 -0.65, -25.7 -0.63 C-31.2 -0.6, -30.84 -0.78, -32.99 0.13 C-35.14 1.04, -37.37 2.54, -38.61 4.81 C-39.84 7.09, -41.06 11.2, -40.4 13.76 C-39.73 16.32, -38.13 18.77, -34.63 20.17 C-31.14 21.57, -23.88 21.82, -19.43 22.15 C-14.98 22.48, -11.33 21.02, -7.94 22.15 C-4.56 23.28, -0.93 25.54, 0.87 28.93 C2.66 32.32, 2.49 37.47, 2.82 42.49 C3.16 47.52, 2.93 51.18, 2.87 59.07 C2.81 66.95, 3.27 83.3, 2.45 89.8 C1.63 96.3, 0.39 95.63, -2.03 98.05 C-4.46 100.47, -8.55 103.19, -12.11 104.31 C-15.67 105.42, -20.16 104.51, -23.39 104.74 C-26.61 104.97, -29.24 105, -31.46 105.69 C-33.68 106.38, -35.73 106.92, -36.71 108.89 C-37.7 110.86, -38.68 115.15, -37.36 117.51 C-36.05 119.87, -33.1 122.04, -28.81 123.05 C-24.53 124.07, -18.19 123.61, -11.65 123.62 C-5.1 123.62, 3.93 123.2, 10.45 123.1 C16.97 123, 23.11 123.6, 27.47 123 C31.82 122.4, 34.68 122.13, 36.56 119.52 C38.44 116.91, 38.42 112.11, 38.75 107.35 C39.08 102.58, 38.69 97.89, 38.55 90.92 C38.41 83.96, 38.04 72.82, 37.91 65.54 C37.78 58.26, 37.78 50.32, 37.76 47.27" stroke="#E1E1E1" stroke-width="4" fill="none"></path></g></g><mask></mask><g stroke-linecap="round"><g transform="translate(491.9029953308162 428.2170337970044) rotate(0 -20.188397107929376 -19.258500954177318)"><path d="M0 0 C0 -3.19, 0.04 -13.89, 0 -19.15 C-0.04 -24.41, 0.61 -28.49, -0.24 -31.55 C-1.09 -34.61, -2.49 -36.33, -5.09 -37.49 C-7.68 -38.65, -11.61 -38.45, -15.82 -38.52 C-20.03 -38.58, -26.25 -38.04, -30.34 -37.89 C-34.44 -37.74, -38.7 -37.66, -40.38 -37.61 M0 0 C0 -3.19, 0.04 -13.89, 0 -19.15 C-0.04 -24.41, 0.61 -28.49, -0.24 -31.55 C-1.09 -34.61, -2.49 -36.33, -5.09 -37.49 C-7.68 -38.65, -11.61 -38.45, -15.82 -38.52 C-20.03 -38.58, -26.25 -38.04, -30.34 -37.89 C-34.44 -37.74, -38.7 -37.66, -40.38 -37.61" stroke="#E1E1E1" stroke-width="4" fill="none"></path></g></g><mask></mask><g stroke-linecap="round"><g transform="translate(460.95383693924475 389.88855468088303) rotate(0 -48.006730557064344 -18.64131324151009)"><path d="M0 0 C-1.8 -2.03, -6.72 -8.41, -10.78 -12.18 C-14.84 -15.95, -18.98 -19.33, -24.37 -22.62 C-29.76 -25.91, -37.22 -29.69, -43.14 -31.92 C-49.05 -34.15, -53.71 -35.11, -59.87 -36.01 C-66.04 -36.9, -74.08 -37.36, -80.1 -37.28 C-86.13 -37.2, -93.36 -35.82, -96.01 -35.53 M0 0 C-1.8 -2.03, -6.72 -8.41, -10.78 -12.18 C-14.84 -15.95, -18.98 -19.33, -24.37 -22.62 C-29.76 -25.91, -37.22 -29.69, -43.14 -31.92 C-49.05 -34.15, -53.71 -35.11, -59.87 -36.01 C-66.04 -36.9, -74.08 -37.36, -80.1 -37.28 C-86.13 -37.2, -93.36 -35.82, -96.01 -35.53" stroke="#E1E1E1" stroke-width="4" fill="none"></path></g></g><mask></mask><g stroke-linecap="round"><g transform="translate(365.35183430022687 354.27270907522336) rotate(0 -27.23106998920285 13.483868282565425)"><path d="M0 0 C-2.39 0.52, -8.97 1.4, -14.31 3.12 C-19.65 4.83, -26.96 7.9, -32.04 10.29 C-37.12 12.67, -41.04 14.66, -44.77 17.44 C-48.51 20.22, -52.85 25.38, -54.46 26.97 M0 0 C-2.39 0.52, -8.97 1.4, -14.31 3.12 C-19.65 4.83, -26.96 7.9, -32.04 10.29 C-37.12 12.67, -41.04 14.66, -44.77 17.44 C-48.51 20.22, -52.85 25.38, -54.46 26.97" stroke="#E1E1E1" stroke-width="4" fill="none"></path></g></g><mask></mask><g stroke-linecap="round"><g transform="translate(305.13974915871574 387.9763949310911) rotate(0 65.95828977302348 82.2707480454017)"><path d="M0 0 C-1.85 2.73, -8.14 11.27, -11.12 16.4 C-14.09 21.53, -15.96 25.36, -17.84 30.79 C-19.72 36.22, -21.46 42.15, -22.4 48.98 C-23.34 55.82, -23.9 64.5, -23.49 71.81 C-23.09 79.13, -21.81 86.23, -19.96 92.86 C-18.11 99.49, -15.24 106.07, -12.37 111.58 C-9.49 117.09, -6.37 121.26, -2.72 125.91 C0.94 130.56, 4.89 135.28, 9.59 139.48 C14.28 143.67, 19.44 147.59, 25.45 151.08 C31.45 154.57, 38.37 158.19, 45.62 160.43 C52.87 162.68, 60.99 163.91, 68.95 164.54 C76.91 165.18, 86.12 165.2, 93.4 164.25 C100.67 163.29, 106.73 160.97, 112.59 158.79 C118.44 156.61, 123.26 154.48, 128.52 151.18 C133.78 147.88, 140.52 142.05, 144.13 138.99 C147.74 135.94, 148.29 135.1, 150.17 132.86 C152.06 130.61, 154.54 126.74, 155.41 125.52 M0 0 C-1.85 2.73, -8.14 11.27, -11.12 16.4 C-14.09 21.53, -15.96 25.36, -17.84 30.79 C-19.72 36.22, -21.46 42.15, -22.4 48.98 C-23.34 55.82, -23.9 64.5, -23.49 71.81 C-23.09 79.13, -21.81 86.23, -19.96 92.86 C-18.11 99.49, -15.24 106.07, -12.37 111.58 C-9.49 117.09, -6.37 121.26, -2.72 125.91 C0.94 130.56, 4.89 135.28, 9.59 139.48 C14.28 143.67, 19.44 147.59, 25.45 151.08 C31.45 154.57, 38.37 158.19, 45.62 160.43 C52.87 162.68, 60.99 163.91, 68.95 164.54 C76.91 165.18, 86.12 165.2, 93.4 164.25 C100.67 163.29, 106.73 160.97, 112.59 158.79 C118.44 156.61, 123.26 154.48, 128.52 151.18 C133.78 147.88, 140.52 142.05, 144.13 138.99 C147.74 135.94, 148.29 135.1, 150.17 132.86 C152.06 130.61, 154.54 126.74, 155.41 125.52" stroke="#E1E1E1" stroke-width="4" fill="none"></path></g></g><mask></mask><g stroke-linecap="round" transform="translate(465.4050695336317 486.74737593478557) rotate(0 6.866119790135137 6.866119790135137)"><path d="M13.73 6.87 C13.73 7.26, 13.7 7.67, 13.63 8.06 C13.56 8.45, 13.45 8.84, 13.32 9.21 C13.18 9.59, 13.01 9.95, 12.81 10.3 C12.61 10.64, 12.38 10.98, 12.13 11.28 C11.87 11.58, 11.58 11.87, 11.28 12.13 C10.98 12.38, 10.64 12.61, 10.3 12.81 C9.95 13.01, 9.59 13.18, 9.21 13.32 C8.84 13.45, 8.45 13.56, 8.06 13.63 C7.67 13.7, 7.26 13.73, 6.87 13.73 C6.47 13.73, 6.07 13.7, 5.67 13.63 C5.28 13.56, 4.89 13.45, 4.52 13.32 C4.14 13.18, 3.78 13.01, 3.43 12.81 C3.09 12.61, 2.76 12.38, 2.45 12.13 C2.15 11.87, 1.86 11.58, 1.61 11.28 C1.35 10.98, 1.12 10.64, 0.92 10.3 C0.72 9.95, 0.55 9.59, 0.41 9.21 C0.28 8.84, 0.17 8.45, 0.1 8.06 C0.04 7.67, 0 7.26, 0 6.87 C0 6.47, 0.04 6.07, 0.1 5.67 C0.17 5.28, 0.28 4.89, 0.41 4.52 C0.55 4.14, 0.72 3.78, 0.92 3.43 C1.12 3.09, 1.35 2.76, 1.61 2.45 C1.86 2.15, 2.15 1.86, 2.45 1.61 C2.76 1.35, 3.09 1.12, 3.43 0.92 C3.78 0.72, 4.14 0.55, 4.52 0.41 C4.89 0.28, 5.28 0.17, 5.67 0.1 C6.07 0.04, 6.47 0, 6.87 0 C7.26 0, 7.67 0.04, 8.06 0.1 C8.45 0.17, 8.84 0.28, 9.21 0.41 C9.59 0.55, 9.95 0.72, 10.3 0.92 C10.64 1.12, 10.98 1.35, 11.28 1.61 C11.58 1.86, 11.87 2.15, 12.13 2.45 C12.38 2.76, 12.61 3.09, 12.81 3.43 C13.01 3.78, 13.18 4.14, 13.32 4.52 C13.45 4.89, 13.56 5.28, 13.63 5.67 C13.7 6.07, 13.71 6.67, 13.73 6.87 C13.75 7.06, 13.75 6.67, 13.73 6.87" stroke="#E1E1E1" stroke-width="4" fill="none"></path></g><g stroke-linecap="round" transform="translate(465.3407323902519 403.39336994036074) rotate(0 6.866119790135137 6.866119790135141)"><path d="M13.73 6.87 C13.73 7.26, 13.7 7.67, 13.63 8.06 C13.56 8.45, 13.45 8.84, 13.32 9.21 C13.18 9.59, 13.01 9.95, 12.81 10.3 C12.61 10.64, 12.38 10.98, 12.13 11.28 C11.87 11.58, 11.58 11.87, 11.28 12.13 C10.98 12.38, 10.64 12.61, 10.3 12.81 C9.95 13.01, 9.59 13.18, 9.21 13.32 C8.84 13.45, 8.45 13.56, 8.06 13.63 C7.67 13.7, 7.26 13.73, 6.87 13.73 C6.47 13.73, 6.07 13.7, 5.67 13.63 C5.28 13.56, 4.89 13.45, 4.52 13.32 C4.14 13.18, 3.78 13.01, 3.43 12.81 C3.09 12.61, 2.76 12.38, 2.45 12.13 C2.15 11.87, 1.86 11.58, 1.61 11.28 C1.35 10.98, 1.12 10.64, 0.92 10.3 C0.72 9.95, 0.55 9.59, 0.41 9.21 C0.28 8.84, 0.17 8.45, 0.1 8.06 C0.04 7.67, 0 7.26, 0 6.87 C0 6.47, 0.04 6.07, 0.1 5.67 C0.17 5.28, 0.28 4.89, 0.41 4.52 C0.55 4.14, 0.72 3.78, 0.92 3.43 C1.12 3.09, 1.35 2.76, 1.61 2.45 C1.86 2.15, 2.15 1.86, 2.45 1.61 C2.76 1.35, 3.09 1.12, 3.43 0.92 C3.78 0.72, 4.14 0.55, 4.52 0.41 C4.89 0.28, 5.28 0.17, 5.67 0.1 C6.07 0.04, 6.47 0, 6.87 0 C7.26 0, 7.67 0.04, 8.06 0.1 C8.45 0.17, 8.84 0.28, 9.21 0.41 C9.59 0.55, 9.95 0.72, 10.3 0.92 C10.64 1.12, 10.98 1.35, 11.28 1.61 C11.58 1.86, 11.87 2.15, 12.13 2.45 C12.38 2.76, 12.61 3.09, 12.81 3.43 C13.01 3.78, 13.18 4.14, 13.32 4.52 C13.45 4.89, 13.56 5.28, 13.63 5.67 C13.7 6.07, 13.71 6.67, 13.73 6.87 C13.75 7.06, 13.75 6.67, 13.73 6.87" stroke="#E1E1E1" stroke-width="4" fill="none"></path></g><g stroke-linecap="round" transform="translate(375.0682391634035 382.0050102977445) rotate(0 6.866119790135144 6.866119790135141)"><path d="M13.73 6.87 C13.73 7.26, 13.7 7.67, 13.63 8.06 C13.56 8.45, 13.45 8.84, 13.32 9.21 C13.18 9.59, 13.01 9.95, 12.81 10.3 C12.61 10.64, 12.38 10.98, 12.13 11.28 C11.87 11.58, 11.58 11.87, 11.28 12.13 C10.98 12.38, 10.64 12.61, 10.3 12.81 C9.95 13.01, 9.59 13.18, 9.21 13.32 C8.84 13.45, 8.45 13.56, 8.06 13.63 C7.67 13.7, 7.26 13.73, 6.87 13.73 C6.47 13.73, 6.07 13.7, 5.67 13.63 C5.28 13.56, 4.89 13.45, 4.52 13.32 C4.14 13.18, 3.78 13.01, 3.43 12.81 C3.09 12.61, 2.76 12.38, 2.45 12.13 C2.15 11.87, 1.86 11.58, 1.61 11.28 C1.35 10.98, 1.12 10.64, 0.92 10.3 C0.72 9.95, 0.55 9.59, 0.41 9.21 C0.28 8.84, 0.17 8.45, 0.1 8.06 C0.04 7.67, 0 7.26, 0 6.87 C0 6.47, 0.04 6.07, 0.1 5.67 C0.17 5.28, 0.28 4.89, 0.41 4.52 C0.55 4.14, 0.72 3.78, 0.92 3.43 C1.12 3.09, 1.35 2.76, 1.61 2.45 C1.86 2.15, 2.15 1.86, 2.45 1.61 C2.76 1.35, 3.09 1.12, 3.43 0.92 C3.78 0.72, 4.14 0.55, 4.52 0.41 C4.89 0.28, 5.28 0.17, 5.67 0.1 C6.07 0.04, 6.47 0, 6.87 0 C7.26 0, 7.67 0.04, 8.06 0.1 C8.45 0.17, 8.84 0.28, 9.21 0.41 C9.59 0.55, 9.95 0.72, 10.3 0.92 C10.64 1.12, 10.98 1.35, 11.28 1.61 C11.58 1.86, 11.87 2.15, 12.13 2.45 C12.38 2.76, 12.61 3.09, 12.81 3.43 C13.01 3.78, 13.18 4.14, 13.32 4.52 C13.45 4.89, 13.56 5.28, 13.63 5.67 C13.7 6.07, 13.71 6.67, 13.73 6.87 C13.75 7.06, 13.75 6.67, 13.73 6.87" stroke="#E1E1E1" stroke-width="4" fill="none"></path></g><g stroke-linecap="round" transform="translate(330.4167654442989 400.209429449316) rotate(0 6.866119790135144 6.866119790135141)"><path d="M13.73 6.87 C13.73 7.26, 13.7 7.67, 13.63 8.06 C13.56 8.45, 13.45 8.84, 13.32 9.21 C13.18 9.59, 13.01 9.95, 12.81 10.3 C12.61 10.64, 12.38 10.98, 12.13 11.28 C11.87 11.58, 11.58 11.87, 11.28 12.13 C10.98 12.38, 10.64 12.61, 10.3 12.81 C9.95 13.01, 9.59 13.18, 9.21 13.32 C8.84 13.45, 8.45 13.56, 8.06 13.63 C7.67 13.7, 7.26 13.73, 6.87 13.73 C6.47 13.73, 6.07 13.7, 5.67 13.63 C5.28 13.56, 4.89 13.45, 4.52 13.32 C4.14 13.18, 3.78 13.01, 3.43 12.81 C3.09 12.61, 2.76 12.38, 2.45 12.13 C2.15 11.87, 1.86 11.58, 1.61 11.28 C1.35 10.98, 1.12 10.64, 0.92 10.3 C0.72 9.95, 0.55 9.59, 0.41 9.21 C0.28 8.84, 0.17 8.45, 0.1 8.06 C0.04 7.67, 0 7.26, 0 6.87 C0 6.47, 0.04 6.07, 0.1 5.67 C0.17 5.28, 0.28 4.89, 0.41 4.52 C0.55 4.14, 0.72 3.78, 0.92 3.43 C1.12 3.09, 1.35 2.76, 1.61 2.45 C1.86 2.15, 2.15 1.86, 2.45 1.61 C2.76 1.35, 3.09 1.12, 3.43 0.92 C3.78 0.72, 4.14 0.55, 4.52 0.41 C4.89 0.28, 5.28 0.17, 5.67 0.1 C6.07 0.04, 6.47 0, 6.87 0 C7.26 0, 7.67 0.04, 8.06 0.1 C8.45 0.17, 8.84 0.28, 9.21 0.41 C9.59 0.55, 9.95 0.72, 10.3 0.92 C10.64 1.12, 10.98 1.35, 11.28 1.61 C11.58 1.86, 11.87 2.15, 12.13 2.45 C12.38 2.76, 12.61 3.09, 12.81 3.43 C13.01 3.78, 13.18 4.14, 13.32 4.52 C13.45 4.89, 13.56 5.28, 13.63 5.67 C13.7 6.07, 13.71 6.67, 13.73 6.87 C13.75 7.06, 13.75 6.67, 13.73 6.87" stroke="#E1E1E1" stroke-width="4" fill="none"></path></g><g stroke-linecap="round" transform="translate(311.43581193424313 445.4219829072137) rotate(0 6.866119790135144 6.866119790135141)"><path d="M13.73 6.87 C13.73 7.26, 13.7 7.67, 13.63 8.06 C13.56 8.45, 13.45 8.84, 13.32 9.21 C13.18 9.59, 13.01 9.95, 12.81 10.3 C12.61 10.64, 12.38 10.98, 12.13 11.28 C11.87 11.58, 11.58 11.87, 11.28 12.13 C10.98 12.38, 10.64 12.61, 10.3 12.81 C9.95 13.01, 9.59 13.18, 9.21 13.32 C8.84 13.45, 8.45 13.56, 8.06 13.63 C7.67 13.7, 7.26 13.73, 6.87 13.73 C6.47 13.73, 6.07 13.7, 5.67 13.63 C5.28 13.56, 4.89 13.45, 4.52 13.32 C4.14 13.18, 3.78 13.01, 3.43 12.81 C3.09 12.61, 2.76 12.38, 2.45 12.13 C2.15 11.87, 1.86 11.58, 1.61 11.28 C1.35 10.98, 1.12 10.64, 0.92 10.3 C0.72 9.95, 0.55 9.59, 0.41 9.21 C0.28 8.84, 0.17 8.45, 0.1 8.06 C0.04 7.67, 0 7.26, 0 6.87 C0 6.47, 0.04 6.07, 0.1 5.67 C0.17 5.28, 0.28 4.89, 0.41 4.52 C0.55 4.14, 0.72 3.78, 0.92 3.43 C1.12 3.09, 1.35 2.76, 1.61 2.45 C1.86 2.15, 2.15 1.86, 2.45 1.61 C2.76 1.35, 3.09 1.12, 3.43 0.92 C3.78 0.72, 4.14 0.55, 4.52 0.41 C4.89 0.28, 5.28 0.17, 5.67 0.1 C6.07 0.04, 6.47 0, 6.87 0 C7.26 0, 7.67 0.04, 8.06 0.1 C8.45 0.17, 8.84 0.28, 9.21 0.41 C9.59 0.55, 9.95 0.72, 10.3 0.92 C10.64 1.12, 10.98 1.35, 11.28 1.61 C11.58 1.86, 11.87 2.15, 12.13 2.45 C12.38 2.76, 12.61 3.09, 12.81 3.43 C13.01 3.78, 13.18 4.14, 13.32 4.52 C13.45 4.89, 13.56 5.28, 13.63 5.67 C13.7 6.07, 13.71 6.67, 13.73 6.87 C13.75 7.06, 13.75 6.67, 13.73 6.87" stroke="#E1E1E1" stroke-width="4" fill="none"></path></g><g stroke-linecap="round" transform="translate(330.1818600603218 489.7622443978741) rotate(0 6.866119790135144 6.866119790135137)"><path d="M13.73 6.87 C13.73 7.26, 13.7 7.67, 13.63 8.06 C13.56 8.45, 13.45 8.84, 13.32 9.21 C13.18 9.59, 13.01 9.95, 12.81 10.3 C12.61 10.64, 12.38 10.98, 12.13 11.28 C11.87 11.58, 11.58 11.87, 11.28 12.13 C10.98 12.38, 10.64 12.61, 10.3 12.81 C9.95 13.01, 9.59 13.18, 9.21 13.32 C8.84 13.45, 8.45 13.56, 8.06 13.63 C7.67 13.7, 7.26 13.73, 6.87 13.73 C6.47 13.73, 6.07 13.7, 5.67 13.63 C5.28 13.56, 4.89 13.45, 4.52 13.32 C4.14 13.18, 3.78 13.01, 3.43 12.81 C3.09 12.61, 2.76 12.38, 2.45 12.13 C2.15 11.87, 1.86 11.58, 1.61 11.28 C1.35 10.98, 1.12 10.64, 0.92 10.3 C0.72 9.95, 0.55 9.59, 0.41 9.21 C0.28 8.84, 0.17 8.45, 0.1 8.06 C0.04 7.67, 0 7.26, 0 6.87 C0 6.47, 0.04 6.07, 0.1 5.67 C0.17 5.28, 0.28 4.89, 0.41 4.52 C0.55 4.14, 0.72 3.78, 0.92 3.43 C1.12 3.09, 1.35 2.76, 1.61 2.45 C1.86 2.15, 2.15 1.86, 2.45 1.61 C2.76 1.35, 3.09 1.12, 3.43 0.92 C3.78 0.72, 4.14 0.55, 4.52 0.41 C4.89 0.28, 5.28 0.17, 5.67 0.1 C6.07 0.04, 6.47 0, 6.87 0 C7.26 0, 7.67 0.04, 8.06 0.1 C8.45 0.17, 8.84 0.28, 9.21 0.41 C9.59 0.55, 9.95 0.72, 10.3 0.92 C10.64 1.12, 10.98 1.35, 11.28 1.61 C11.58 1.86, 11.87 2.15, 12.13 2.45 C12.38 2.76, 12.61 3.09, 12.81 3.43 C13.01 3.78, 13.18 4.14, 13.32 4.52 C13.45 4.89, 13.56 5.28, 13.63 5.67 C13.7 6.07, 13.71 6.67, 13.73 6.87 C13.75 7.06, 13.75 6.67, 13.73 6.87" stroke="#E1E1E1" stroke-width="4" fill="none"></path></g><g stroke-linecap="round" transform="translate(374.70017085475945 508.8913229589727) rotate(0 6.866119790135144 6.866119790135137)"><path d="M13.73 6.87 C13.73 7.26, 13.7 7.67, 13.63 8.06 C13.56 8.45, 13.45 8.84, 13.32 9.21 C13.18 9.59, 13.01 9.95, 12.81 10.3 C12.61 10.64, 12.38 10.98, 12.13 11.28 C11.87 11.58, 11.58 11.87, 11.28 12.13 C10.98 12.38, 10.64 12.61, 10.3 12.81 C9.95 13.01, 9.59 13.18, 9.21 13.32 C8.84 13.45, 8.45 13.56, 8.06 13.63 C7.67 13.7, 7.26 13.73, 6.87 13.73 C6.47 13.73, 6.07 13.7, 5.67 13.63 C5.28 13.56, 4.89 13.45, 4.52 13.32 C4.14 13.18, 3.78 13.01, 3.43 12.81 C3.09 12.61, 2.76 12.38, 2.45 12.13 C2.15 11.87, 1.86 11.58, 1.61 11.28 C1.35 10.98, 1.12 10.64, 0.92 10.3 C0.72 9.95, 0.55 9.59, 0.41 9.21 C0.28 8.84, 0.17 8.45, 0.1 8.06 C0.04 7.67, 0 7.26, 0 6.87 C0 6.47, 0.04 6.07, 0.1 5.67 C0.17 5.28, 0.28 4.89, 0.41 4.52 C0.55 4.14, 0.72 3.78, 0.92 3.43 C1.12 3.09, 1.35 2.76, 1.61 2.45 C1.86 2.15, 2.15 1.86, 2.45 1.61 C2.76 1.35, 3.09 1.12, 3.43 0.92 C3.78 0.72, 4.14 0.55, 4.52 0.41 C4.89 0.28, 5.28 0.17, 5.67 0.1 C6.07 0.04, 6.47 0, 6.87 0 C7.26 0, 7.67 0.04, 8.06 0.1 C8.45 0.17, 8.84 0.28, 9.21 0.41 C9.59 0.55, 9.95 0.72, 10.3 0.92 C10.64 1.12, 10.98 1.35, 11.28 1.61 C11.58 1.86, 11.87 2.15, 12.13 2.45 C12.38 2.76, 12.61 3.09, 12.81 3.43 C13.01 3.78, 13.18 4.14, 13.32 4.52 C13.45 4.89, 13.56 5.28, 13.63 5.67 C13.7 6.07, 13.71 6.67, 13.73 6.87 C13.75 7.06, 13.75 6.67, 13.73 6.87" stroke="#E1E1E1" stroke-width="4" fill="none"></path></g><g stroke-linecap="round" transform="translate(357.49360598299234 427.33436747459126) rotate(337.3156372409554 23.94456007321172 23.944560073211715)"><path d="M47.89 23.94 C47.89 25.33, 47.77 26.74, 47.53 28.1 C47.28 29.47, 46.92 30.83, 46.45 32.13 C45.97 33.44, 45.37 34.72, 44.68 35.92 C43.99 37.12, 43.18 38.27, 42.29 39.34 C41.4 40.4, 40.4 41.4, 39.34 42.29 C38.27 43.18, 37.12 43.99, 35.92 44.68 C34.72 45.37, 33.44 45.97, 32.13 46.45 C30.83 46.92, 29.47 47.28, 28.1 47.53 C26.74 47.77, 25.33 47.89, 23.94 47.89 C22.56 47.89, 21.15 47.77, 19.79 47.53 C18.42 47.28, 17.06 46.92, 15.76 46.45 C14.45 45.97, 13.17 45.37, 11.97 44.68 C10.77 43.99, 9.62 43.18, 8.55 42.29 C7.49 41.4, 6.49 40.4, 5.6 39.34 C4.71 38.27, 3.9 37.12, 3.21 35.92 C2.51 34.72, 1.92 33.44, 1.44 32.13 C0.97 30.83, 0.6 29.47, 0.36 28.1 C0.12 26.74, 0 25.33, 0 23.94 C0 22.56, 0.12 21.15, 0.36 19.79 C0.6 18.42, 0.97 17.06, 1.44 15.76 C1.92 14.45, 2.51 13.17, 3.21 11.97 C3.9 10.77, 4.71 9.62, 5.6 8.55 C6.49 7.49, 7.49 6.49, 8.55 5.6 C9.62 4.71, 10.77 3.9, 11.97 3.21 C13.17 2.51, 14.45 1.92, 15.76 1.44 C17.06 0.97, 18.42 0.6, 19.79 0.36 C21.15 0.12, 22.56 0, 23.94 0 C25.33 0, 26.74 0.12, 28.1 0.36 C29.47 0.6, 30.83 0.97, 32.13 1.44 C33.44 1.92, 34.72 2.51, 35.92 3.21 C37.12 3.9, 38.27 4.71, 39.34 5.6 C40.4 6.49, 41.4 7.49, 42.29 8.55 C43.18 9.62, 43.99 10.77, 44.68 11.97 C45.37 13.17, 45.97 14.45, 46.45 15.76 C46.92 17.06, 47.28 18.42, 47.53 19.79 C47.77 21.15, 47.83 23.25, 47.89 23.94 C47.95 24.64, 47.95 23.25, 47.89 23.94" stroke="#E1E1E1" stroke-width="4" fill="none"></path></g><g stroke-linecap="round"><g transform="translate(362.71961150543746 429.8103662820146) rotate(337.3156372409554 5.0158649735811025 -12.934140861419234)"><path d="M0 0 C-0.06 -2.64, -0.3 -12.03, -0.34 -15.87 C-0.38 -19.71, -0.79 -21.3, -0.24 -23.04 C0.32 -24.77, 1.84 -25.72, 2.98 -26.29 C4.11 -26.86, 5.5 -26.83, 6.56 -26.45 C7.61 -26.08, 8.72 -25.06, 9.29 -24.04 C9.86 -23.02, 9.86 -22.03, 9.98 -20.32 C10.09 -18.62, 9.91 -17.32, 9.98 -13.83 C10.04 -10.35, 10.3 -1.82, 10.37 0.58 M0 0 C-0.06 -2.64, -0.3 -12.03, -0.34 -15.87 C-0.38 -19.71, -0.79 -21.3, -0.24 -23.04 C0.32 -24.77, 1.84 -25.72, 2.98 -26.29 C4.11 -26.86, 5.5 -26.83, 6.56 -26.45 C7.61 -26.08, 8.72 -25.06, 9.29 -24.04 C9.86 -23.02, 9.86 -22.03, 9.98 -20.32 C10.09 -18.62, 9.91 -17.32, 9.98 -13.83 C10.04 -10.35, 10.3 -1.82, 10.37 0.58" stroke="#E1E1E1" stroke-width="4" fill="none"></path></g></g><mask></mask><g stroke-linecap="round"><g transform="translate(342.3462712071922 450.0459143930918) rotate(292.3156372409554 5.0158649735811025 -12.934140861419234)"><path d="M0 0 C-0.06 -2.64, -0.3 -12.03, -0.34 -15.87 C-0.38 -19.71, -0.79 -21.3, -0.24 -23.04 C0.32 -24.77, 1.84 -25.72, 2.98 -26.29 C4.11 -26.86, 5.5 -26.83, 6.56 -26.45 C7.61 -26.08, 8.72 -25.06, 9.29 -24.04 C9.86 -23.02, 9.86 -22.03, 9.98 -20.32 C10.09 -18.62, 9.91 -17.32, 9.98 -13.83 C10.04 -10.35, 10.3 -1.82, 10.37 0.58 M0 0 C-0.06 -2.64, -0.3 -12.03, -0.34 -15.87 C-0.38 -19.71, -0.79 -21.3, -0.24 -23.04 C0.32 -24.77, 1.84 -25.72, 2.98 -26.29 C4.11 -26.86, 5.5 -26.83, 6.56 -26.45 C7.61 -26.08, 8.72 -25.06, 9.29 -24.04 C9.86 -23.02, 9.86 -22.03, 9.98 -20.32 C10.09 -18.62, 9.91 -17.32, 9.98 -13.83 C10.04 -10.35, 10.3 -1.82, 10.37 0.58" stroke="#E1E1E1" stroke-width="4" fill="none"></path></g></g><mask></mask><g stroke-linecap="round"><g transform="translate(390.8633734989579 429.9279783957556) rotate(22.315637240955372 5.0158649735811025 -12.934140861419234)"><path d="M0 0 C-0.06 -2.64, -0.3 -12.03, -0.34 -15.87 C-0.38 -19.71, -0.79 -21.3, -0.24 -23.04 C0.32 -24.77, 1.84 -25.72, 2.98 -26.29 C4.11 -26.86, 5.5 -26.83, 6.56 -26.45 C7.61 -26.08, 8.72 -25.06, 9.29 -24.04 C9.86 -23.02, 9.86 -22.03, 9.98 -20.32 C10.09 -18.62, 9.91 -17.32, 9.98 -13.83 C10.04 -10.35, 10.3 -1.82, 10.37 0.58 M0 0 C-0.06 -2.64, -0.3 -12.03, -0.34 -15.87 C-0.38 -19.71, -0.79 -21.3, -0.24 -23.04 C0.32 -24.77, 1.84 -25.72, 2.98 -26.29 C4.11 -26.86, 5.5 -26.83, 6.56 -26.45 C7.61 -26.08, 8.72 -25.06, 9.29 -24.04 C9.86 -23.02, 9.86 -22.03, 9.98 -20.32 C10.09 -18.62, 9.91 -17.32, 9.98 -13.83 C10.04 -10.35, 10.3 -1.82, 10.37 0.58" stroke="#E1E1E1" stroke-width="4" fill="none"></path></g></g><mask></mask><g stroke-linecap="round"><g transform="translate(411.2809815061263 449.80488091830256) rotate(67.31563724095538 5.0158649735811025 -12.934140861419234)"><path d="M0 0 C-0.06 -2.64, -0.3 -12.03, -0.34 -15.87 C-0.38 -19.71, -0.79 -21.3, -0.24 -23.04 C0.32 -24.77, 1.84 -25.72, 2.98 -26.29 C4.11 -26.86, 5.5 -26.83, 6.56 -26.45 C7.61 -26.08, 8.72 -25.06, 9.29 -24.04 C9.86 -23.02, 9.86 -22.03, 9.98 -20.32 C10.09 -18.62, 9.91 -17.32, 9.98 -13.83 C10.04 -10.35, 10.3 -1.82, 10.37 0.58 M0 0 C-0.06 -2.64, -0.3 -12.03, -0.34 -15.87 C-0.38 -19.71, -0.79 -21.3, -0.24 -23.04 C0.32 -24.77, 1.84 -25.72, 2.98 -26.29 C4.11 -26.86, 5.5 -26.83, 6.56 -26.45 C7.61 -26.08, 8.72 -25.06, 9.29 -24.04 C9.86 -23.02, 9.86 -22.03, 9.98 -20.32 C10.09 -18.62, 9.91 -17.32, 9.98 -13.83 C10.04 -10.35, 10.3 -1.82, 10.37 0.58" stroke="#E1E1E1" stroke-width="4" fill="none"></path></g></g><mask></mask><g stroke-linecap="round"><g transform="translate(391.59583957161146 498.6403315398931) rotate(157.31563724095548 5.0158649735811025 -12.934140861419234)"><path d="M0 0 C-0.06 -2.64, -0.3 -12.03, -0.34 -15.87 C-0.38 -19.71, -0.79 -21.3, -0.24 -23.04 C0.32 -24.77, 1.84 -25.72, 2.98 -26.29 C4.11 -26.86, 5.5 -26.83, 6.56 -26.45 C7.61 -26.08, 8.72 -25.06, 9.29 -24.04 C9.86 -23.02, 9.86 -22.03, 9.98 -20.32 C10.09 -18.62, 9.91 -17.32, 9.98 -13.83 C10.04 -10.35, 10.3 -1.82, 10.37 0.58 M0 0 C-0.06 -2.64, -0.3 -12.03, -0.34 -15.87 C-0.38 -19.71, -0.79 -21.3, -0.24 -23.04 C0.32 -24.77, 1.84 -25.72, 2.98 -26.29 C4.11 -26.86, 5.5 -26.83, 6.56 -26.45 C7.61 -26.08, 8.72 -25.06, 9.29 -24.04 C9.86 -23.02, 9.86 -22.03, 9.98 -20.32 C10.09 -18.62, 9.91 -17.32, 9.98 -13.83 C10.04 -10.35, 10.3 -1.82, 10.37 0.58" stroke="#E1E1E1" stroke-width="4" fill="none"></path></g></g><mask></mask><g stroke-linecap="round"><g transform="translate(362.7456323853438 498.86667804894176) rotate(202.31563724095534 5.0158649735811025 -12.934140861419234)"><path d="M0 0 C-0.06 -2.64, -0.3 -12.03, -0.34 -15.87 C-0.38 -19.71, -0.79 -21.3, -0.24 -23.04 C0.32 -24.77, 1.84 -25.72, 2.98 -26.29 C4.11 -26.86, 5.5 -26.83, 6.56 -26.45 C7.61 -26.08, 8.72 -25.06, 9.29 -24.04 C9.86 -23.02, 9.86 -22.03, 9.98 -20.32 C10.09 -18.62, 9.91 -17.32, 9.98 -13.83 C10.04 -10.35, 10.3 -1.82, 10.37 0.58 M0 0 C-0.06 -2.64, -0.3 -12.03, -0.34 -15.87 C-0.38 -19.71, -0.79 -21.3, -0.24 -23.04 C0.32 -24.77, 1.84 -25.72, 2.98 -26.29 C4.11 -26.86, 5.5 -26.83, 6.56 -26.45 C7.61 -26.08, 8.72 -25.06, 9.29 -24.04 C9.86 -23.02, 9.86 -22.03, 9.98 -20.32 C10.09 -18.62, 9.91 -17.32, 9.98 -13.83 C10.04 -10.35, 10.3 -1.82, 10.37 0.58" stroke="#E1E1E1" stroke-width="4" fill="none"></path></g></g><mask></mask><g stroke-linecap="round"><g transform="translate(341.7569015375119 478.5658455759546) rotate(247.31563724095537 5.0158649735811025 -12.934140861419234)"><path d="M0 0 C-0.06 -2.64, -0.3 -12.03, -0.34 -15.87 C-0.38 -19.71, -0.79 -21.3, -0.24 -23.04 C0.32 -24.77, 1.84 -25.72, 2.98 -26.29 C4.11 -26.86, 5.5 -26.83, 6.56 -26.45 C7.61 -26.08, 8.72 -25.06, 9.29 -24.04 C9.86 -23.02, 9.86 -22.03, 9.98 -20.32 C10.09 -18.62, 9.91 -17.32, 9.98 -13.83 C10.04 -10.35, 10.3 -1.82, 10.37 0.58 M0 0 C-0.06 -2.64, -0.3 -12.03, -0.34 -15.87 C-0.38 -19.71, -0.79 -21.3, -0.24 -23.04 C0.32 -24.77, 1.84 -25.72, 2.98 -26.29 C4.11 -26.86, 5.5 -26.83, 6.56 -26.45 C7.61 -26.08, 8.72 -25.06, 9.29 -24.04 C9.86 -23.02, 9.86 -22.03, 9.98 -20.32 C10.09 -18.62, 9.91 -17.32, 9.98 -13.83 C10.04 -10.35, 10.3 -1.82, 10.37 0.58" stroke="#E1E1E1" stroke-width="4" fill="none"></path></g></g><mask></mask><g stroke-linecap="round"><g transform="translate(411.03622641102254 478.21152379501035) rotate(112.31563724095543 5.0158649735811025 -12.934140861419234)"><path d="M0 0 C-0.06 -2.64, -0.3 -12.03, -0.34 -15.87 C-0.38 -19.71, -0.79 -21.3, -0.24 -23.04 C0.32 -24.77, 1.84 -25.72, 2.98 -26.29 C4.11 -26.86, 5.5 -26.83, 6.56 -26.45 C7.61 -26.08, 8.72 -25.06, 9.29 -24.04 C9.86 -23.02, 9.86 -22.03, 9.98 -20.32 C10.09 -18.62, 9.91 -17.32, 9.98 -13.83 C10.04 -10.35, 10.3 -1.82, 10.37 0.58 M0 0 C-0.06 -2.64, -0.3 -12.03, -0.34 -15.87 C-0.38 -19.71, -0.79 -21.3, -0.24 -23.04 C0.32 -24.77, 1.84 -25.72, 2.98 -26.29 C4.11 -26.86, 5.5 -26.83, 6.56 -26.45 C7.61 -26.08, 8.72 -25.06, 9.29 -24.04 C9.86 -23.02, 9.86 -22.03, 9.98 -20.32 C10.09 -18.62, 9.91 -17.32, 9.98 -13.83 C10.04 -10.35, 10.3 -1.82, 10.37 0.58" stroke="#E1E1E1" stroke-width="4" fill="none"></path></g></g><mask></mask><g stroke-linecap="round"><g transform="translate(417.27180157758437 444.20169131939764) rotate(337.3156372409554 -3.1828849112008584 6.76437286747035)"><path d="M0 0 C-0.28 1.08, -0.64 4.25, -1.7 6.51 C-2.76 8.76, -5.59 12.36, -6.37 13.53 M0 0 C-0.28 1.08, -0.64 4.25, -1.7 6.51 C-2.76 8.76, -5.59 12.36, -6.37 13.53" stroke="#E1E1E1" stroke-width="4" fill="none"></path></g></g><mask></mask><g stroke-linecap="round"><g transform="translate(412.00218010457854 470.75589985293635) rotate(337.3156372409554 -6.781201307286821 3.160117022037248)"><path d="M0 0 C-1.03 0.7, -3.95 3.12, -6.21 4.17 C-8.47 5.22, -12.34 5.96, -13.56 6.32 M0 0 C-1.03 0.7, -3.95 3.12, -6.21 4.17 C-8.47 5.22, -12.34 5.96, -13.56 6.32" stroke="#E1E1E1" stroke-width="4" fill="none"></path></g></g><mask></mask><g stroke-linecap="round"><g transform="translate(389.1299050365632 486.0676968399659) rotate(337.3156372409554 -6.991061850882517 -2.681001441375269)"><path d="M0 0 C-1.07 -0.15, -4.68 -0.45, -6.42 -0.92 C-8.16 -1.39, -9.17 -2.05, -10.43 -2.79 C-11.69 -3.53, -13.39 -4.93, -13.98 -5.36 M0 0 C-1.07 -0.15, -4.68 -0.45, -6.42 -0.92 C-8.16 -1.39, -9.17 -2.05, -10.43 -2.79 C-11.69 -3.53, -13.39 -4.93, -13.98 -5.36" stroke="#E1E1E1" stroke-width="4" fill="none"></path></g></g><mask></mask><g stroke-linecap="round"><g transform="translate(361.82284838670046 480.8349819936199) rotate(337.3156372409554 -3.2439292517122027 -7.114140440129466)"><path d="M0 0 C-0.58 -0.71, -2.51 -2.84, -3.45 -4.28 C-4.39 -5.71, -5.14 -6.95, -5.64 -8.61 C-6.15 -10.27, -6.35 -13.29, -6.49 -14.23 M0 0 C-0.58 -0.71, -2.51 -2.84, -3.45 -4.28 C-4.39 -5.71, -5.14 -6.95, -5.64 -8.61 C-6.15 -10.27, -6.35 -13.29, -6.49 -14.23" stroke="#E1E1E1" stroke-width="4" fill="none"></path></g></g><mask></mask><g stroke-linecap="round"><g transform="translate(345.96962554861955 458.0342905730833) rotate(337.3156372409554 2.7278570973354164 -7.144497625681224)"><path d="M0 0 C0.26 -0.98, 0.95 -4.09, 1.56 -5.9 C2.16 -7.71, 2.99 -9.45, 3.64 -10.85 C4.29 -12.25, 5.15 -13.72, 5.46 -14.29 M0 0 C0.26 -0.98, 0.95 -4.09, 1.56 -5.9 C2.16 -7.71, 2.99 -9.45, 3.64 -10.85 C4.29 -12.25, 5.15 -13.72, 5.46 -14.29" stroke="#E1E1E1" stroke-width="4" fill="none"></path></g></g><mask></mask><g stroke-linecap="round"><g transform="translate(352.0980159635691 431.04741380260174) rotate(337.3156372409554 6.732035865469626 -3.121180631873207)"><path d="M0 0 C1.11 -0.7, 4.41 -3.14, 6.65 -4.19 C8.9 -5.23, 12.33 -5.9, 13.46 -6.24 M0 0 C1.11 -0.7, 4.41 -3.14, 6.65 -4.19 C8.9 -5.23, 12.33 -5.9, 13.46 -6.24" stroke="#E1E1E1" stroke-width="4" fill="none"></path></g></g><mask></mask><g stroke-linecap="round"><g transform="translate(374.92025161951995 415.35273540734914) rotate(337.3156372409554 7.072894264108513 2.506777593861896)"><path d="M0 0 C0.99 0.25, 4.06 0.87, 5.93 1.49 C7.8 2.1, 9.87 3.08, 11.24 3.66 C12.61 4.25, 13.66 4.79, 14.15 5.01 M0 0 C0.99 0.25, 4.06 0.87, 5.93 1.49 C7.8 2.1, 9.87 3.08, 11.24 3.66 C12.61 4.25, 13.66 4.79, 14.15 5.01" stroke="#E1E1E1" stroke-width="4" fill="none"></path></g></g><mask></mask><g stroke-linecap="round"><g transform="translate(401.9394528671072 420.7413145563966) rotate(337.3156372409554 2.6288662748847145 6.969283869943439)"><path d="M0 0 C0.56 0.91, 2.58 3.85, 3.33 5.47 C4.08 7.09, 4.17 8.32, 4.49 9.73 C4.81 11.14, 5.13 13.24, 5.26 13.94 M0 0 C0.56 0.91, 2.58 3.85, 3.33 5.47 C4.08 7.09, 4.17 8.32, 4.49 9.73 C4.81 11.14, 5.13 13.24, 5.26 13.94" stroke="#E1E1E1" stroke-width="4" fill="none"></path></g></g><mask></mask><g stroke-linecap="round"><g transform="translate(387.3154916950042 447.2431092515082) rotate(359.8772259233309 -5.341785034486435 3.8235557068624244)"><path d="M0 0 C0.02 -0.48, 0.39 -1.98, 0.09 -2.91 C-0.21 -3.83, -0.95 -4.87, -1.8 -5.55 C-2.64 -6.24, -3.89 -6.91, -4.98 -7.02 C-6.06 -7.14, -7.42 -6.79, -8.31 -6.22 C-9.2 -5.66, -9.92 -4.64, -10.31 -3.64 C-10.71 -2.64, -10.9 -1.33, -10.66 -0.21 C-10.43 0.91, -9.9 2.41, -8.9 3.09 C-7.89 3.77, -5.84 3.56, -4.63 3.89 C-3.41 4.22, -2.39 4.32, -1.63 5.06 C-0.87 5.81, -0.21 7.2, -0.08 8.37 C0.05 9.54, -0.16 11.05, -0.86 12.1 C-1.56 13.15, -3.14 14.31, -4.3 14.67 C-5.45 15.03, -6.78 14.74, -7.79 14.27 C-8.79 13.8, -9.84 12.93, -10.33 11.85 C-10.83 10.77, -10.7 8.47, -10.78 7.8 M0 0 C0.02 -0.48, 0.39 -1.98, 0.09 -2.91 C-0.21 -3.83, -0.95 -4.87, -1.8 -5.55 C-2.64 -6.24, -3.89 -6.91, -4.98 -7.02 C-6.06 -7.14, -7.42 -6.79, -8.31 -6.22 C-9.2 -5.66, -9.92 -4.64, -10.31 -3.64 C-10.71 -2.64, -10.9 -1.33, -10.66 -0.21 C-10.43 0.91, -9.9 2.41, -8.9 3.09 C-7.89 3.77, -5.84 3.56, -4.63 3.89 C-3.41 4.22, -2.39 4.32, -1.63 5.06 C-0.87 5.81, -0.21 7.2, -0.08 8.37 C0.05 9.54, -0.16 11.05, -0.86 12.1 C-1.56 13.15, -3.14 14.31, -4.3 14.67 C-5.45 15.03, -6.78 14.74, -7.79 14.27 C-8.79 13.8, -9.84 12.93, -10.33 11.85 C-10.83 10.77, -10.7 8.47, -10.78 7.8" stroke="#E1E1E1" stroke-width="4" fill="none"></path></g></g><mask></mask><g stroke-linecap="round"><g transform="translate(382.0971536957603 435.3881190017061) rotate(359.8772259233309 0 2.200788402165837)"><path d="M0 0 C0 0.73, 0 3.67, 0 4.4 M0 0 C0 0.73, 0 3.67, 0 4.4" stroke="#E1E1E1" stroke-width="4" fill="none"></path></g></g><mask></mask><g stroke-linecap="round"><g transform="translate(382.1334109225826 467.37327326045187) rotate(359.8772259233309 0.03400124102761026 -2.417044742614701)"><path d="M0 0 C0.01 -0.81, 0.06 -4.03, 0.07 -4.83 M0 0 C0.01 -0.81, 0.06 -4.03, 0.07 -4.83" stroke="#E1E1E1" stroke-width="4" fill="none"></path></g></g><mask></mask><g stroke-linecap="round"><g transform="translate(448.4784598648365 44.67942027968331) rotate(0 -68.94267303722336 80.27435810480043)"><path d="M0 0 C-7.56 -4.11, -34.72 -18.95, -45.37 -24.69 C-56.03 -30.42, -58.89 -33.47, -63.93 -34.43 C-68.97 -35.4, -69.45 -33.43, -75.62 -30.48 C-81.79 -27.54, -76.81 -29.31, -100.96 -16.77 C-125.11 -4.22, -180.24 23.66, -220.54 44.79 C-260.83 65.91, -310.55 93.13, -342.73 109.98 C-374.9 126.84, -398.09 137.81, -413.58 145.93 C-429.08 154.04, -431.63 153.25, -435.69 158.69 C-439.74 164.13, -438.31 173.12, -437.89 178.57 C-437.47 184.02, -440.89 189.13, -433.17 191.39 C-425.44 193.65, -427.17 191.86, -391.54 192.12 C-355.91 192.38, -279.99 192.79, -219.38 192.95 C-158.77 193.12, -87.95 193.32, -27.85 193.1 C32.24 192.88, 89.92 191.32, 141.17 191.63 C192.42 191.95, 253.19 198.22, 279.66 194.98 C306.13 191.74, 300.04 180.22, 300.01 172.19 C299.97 164.15, 305.98 162.88, 279.45 146.77 C252.92 130.66, 176.56 93.95, 140.83 75.54 C105.11 57.14, 83.22 46.36, 65.1 36.34 C46.98 26.31, 37.61 18.89, 32.11 15.4 M0 0 C-7.56 -4.11, -34.72 -18.95, -45.37 -24.69 C-56.03 -30.42, -58.89 -33.47, -63.93 -34.43 C-68.97 -35.4, -69.45 -33.43, -75.62 -30.48 C-81.79 -27.54, -76.81 -29.31, -100.96 -16.77 C-125.11 -4.22, -180.24 23.66, -220.54 44.79 C-260.83 65.91, -310.55 93.13, -342.73 109.98 C-374.9 126.84, -398.09 137.81, -413.58 145.93 C-429.08 154.04, -431.63 153.25, -435.69 158.69 C-439.74 164.13, -438.31 173.12, -437.89 178.57 C-437.47 184.02, -440.89 189.13, -433.17 191.39 C-425.44 193.65, -427.17 191.86, -391.54 192.12 C-355.91 192.38, -279.99 192.79, -219.38 192.95 C-158.77 193.12, -87.95 193.32, -27.85 193.1 C32.24 192.88, 89.92 191.32, 141.17 191.63 C192.42 191.95, 253.19 198.22, 279.66 194.98 C306.13 191.74, 300.04 180.22, 300.01 172.19 C299.97 164.15, 305.98 162.88, 279.45 146.77 C252.92 130.66, 176.56 93.95, 140.83 75.54 C105.11 57.14, 83.22 46.36, 65.1 36.34 C46.98 26.31, 37.61 18.89, 32.11 15.4" stroke="#E1E1E1" stroke-width="4" fill="none"></path></g></g><mask></mask><g stroke-linecap="round"><g transform="translate(46.27343345857469 238.34665261598786) rotate(0 334.78132137140415 20.12370445642847)"><path d="M0 0 C0 4.21, -0.96 18.97, 0 25.27 C0.96 31.58, 1.25 35.54, 5.76 37.84 C10.26 40.14, 10.43 38.8, 27.02 39.07 C43.61 39.35, 64.46 39.29, 105.29 39.49 C146.13 39.69, 214.62 40.21, 272.04 40.25 C329.46 40.29, 398.1 39.81, 449.81 39.74 C501.53 39.68, 547.79 39.82, 582.34 39.85 C616.89 39.88, 642.61 41.2, 657.11 39.92 C671.62 38.64, 667.29 38.18, 669.36 32.14 C671.44 26.11, 669.53 8.45, 669.56 3.72 M0 0 C0 4.21, -0.96 18.97, 0 25.27 C0.96 31.58, 1.25 35.54, 5.76 37.84 C10.26 40.14, 10.43 38.8, 27.02 39.07 C43.61 39.35, 64.46 39.29, 105.29 39.49 C146.13 39.69, 214.62 40.21, 272.04 40.25 C329.46 40.29, 398.1 39.81, 449.81 39.74 C501.53 39.68, 547.79 39.82, 582.34 39.85 C616.89 39.88, 642.61 41.2, 657.11 39.92 C671.62 38.64, 667.29 38.18, 669.36 32.14 C671.44 26.11, 669.53 8.45, 669.56 3.72" stroke="#E1E1E1" stroke-width="4" fill="none"></path></g></g><mask></mask><g stroke-linecap="round"><g transform="translate(664.9103288625937 280.59775682759766) rotate(0 -52.29517971090228 22.91386622693463)"><path d="M0 0 C0 3.37, 0 13.7, 0 20.2 C0 26.71, 1.89 34.51, 0 39.04 C-1.88 43.58, -5.08 46.02, -11.3 47.42 C-17.52 48.83, -27.19 47.37, -37.31 47.47 C-47.43 47.58, -62.35 47.97, -72.01 48.03 C-81.68 48.09, -89.89 49.66, -95.32 47.83 C-100.75 46.01, -103.05 41.23, -104.59 37.07 C-106.14 32.91, -104.66 29.43, -104.59 22.88 C-104.53 16.34, -104.26 1.98, -104.19 -2.2 M0 0 C0 3.37, 0 13.7, 0 20.2 C0 26.71, 1.89 34.51, 0 39.04 C-1.88 43.58, -5.08 46.02, -11.3 47.42 C-17.52 48.83, -27.19 47.37, -37.31 47.47 C-47.43 47.58, -62.35 47.97, -72.01 48.03 C-81.68 48.09, -89.89 49.66, -95.32 47.83 C-100.75 46.01, -103.05 41.23, -104.59 37.07 C-106.14 32.91, -104.66 29.43, -104.59 22.88 C-104.53 16.34, -104.26 1.98, -104.19 -2.2" stroke="#E1E1E1" stroke-width="4" fill="none"></path></g></g><mask></mask><g stroke-linecap="round"><g transform="translate(666.1070194354432 568.4081368390032) rotate(180 -52.29517971090228 22.91386622693463)"><path d="M0 0 C0 3.37, 0 13.7, 0 20.2 C0 26.71, 1.89 34.51, 0 39.04 C-1.88 43.58, -5.08 46.02, -11.3 47.42 C-17.52 48.83, -27.19 47.37, -37.31 47.47 C-47.43 47.58, -62.35 47.97, -72.01 48.03 C-81.68 48.09, -89.89 49.66, -95.32 47.83 C-100.75 46.01, -103.05 41.23, -104.59 37.07 C-106.14 32.91, -104.66 29.43, -104.59 22.88 C-104.53 16.34, -104.26 1.98, -104.19 -2.2 M0 0 C0 3.37, 0 13.7, 0 20.2 C0 26.71, 1.89 34.51, 0 39.04 C-1.88 43.58, -5.08 46.02, -11.3 47.42 C-17.52 48.83, -27.19 47.37, -37.31 47.47 C-47.43 47.58, -62.35 47.97, -72.01 48.03 C-81.68 48.09, -89.89 49.66, -95.32 47.83 C-100.75 46.01, -103.05 41.23, -104.59 37.07 C-106.14 32.91, -104.66 29.43, -104.59 22.88 C-104.53 16.34, -104.26 1.98, -104.19 -2.2" stroke="#E1E1E1" stroke-width="4" fill="none"></path></g></g><mask></mask><g stroke-linecap="round"><g transform="translate(584.7463770837311 329.1099273586266) rotate(0 0 117.99714128300748)"><path d="M0 0 C0 39.33, 0 196.66, 0 235.99 M0 0 C0 39.33, 0 196.66, 0 235.99" stroke="#E1E1E1" stroke-width="4" fill="none"></path></g></g><mask></mask><g stroke-linecap="round"><g transform="translate(643.453806002828 330.2669614740513) rotate(0 0 116.20886069054775)"><path d="M0 0 C0 38.74, 0 193.68, 0 232.42 M0 0 C0 38.74, 0 193.68, 0 232.42" stroke="#E1E1E1" stroke-width="4" fill="none"></path></g></g><mask></mask><g stroke-linecap="round"><g transform="translate(509.98902464325135 281.24994767292367) rotate(0 -52.29517971090229 22.91386622693463)"><path d="M0 0 C0 3.37, 0 13.7, 0 20.2 C0 26.71, 1.89 34.51, 0 39.04 C-1.88 43.58, -5.08 46.02, -11.3 47.42 C-17.52 48.83, -27.19 47.37, -37.31 47.47 C-47.43 47.58, -62.35 47.97, -72.01 48.03 C-81.68 48.09, -89.89 49.66, -95.32 47.83 C-100.75 46.01, -103.05 41.23, -104.59 37.07 C-106.14 32.91, -104.66 29.43, -104.59 22.88 C-104.53 16.34, -104.26 1.98, -104.19 -2.2 M0 0 C0 3.37, 0 13.7, 0 20.2 C0 26.71, 1.89 34.51, 0 39.04 C-1.88 43.58, -5.08 46.02, -11.3 47.42 C-17.52 48.83, -27.19 47.37, -37.31 47.47 C-47.43 47.58, -62.35 47.97, -72.01 48.03 C-81.68 48.09, -89.89 49.66, -95.32 47.83 C-100.75 46.01, -103.05 41.23, -104.59 37.07 C-106.14 32.91, -104.66 29.43, -104.59 22.88 C-104.53 16.34, -104.26 1.98, -104.19 -2.2" stroke="#E1E1E1" stroke-width="4" fill="none"></path></g></g><mask></mask><g stroke-linecap="round"><g transform="translate(511.1857152161009 569.0603276843292) rotate(180 -52.29517971090229 22.91386622693463)"><path d="M0 0 C0 3.37, 0 13.7, 0 20.2 C0 26.71, 1.89 34.51, 0 39.04 C-1.88 43.58, -5.08 46.02, -11.3 47.42 C-17.52 48.83, -27.19 47.37, -37.31 47.47 C-47.43 47.58, -62.35 47.97, -72.01 48.03 C-81.68 48.09, -89.89 49.66, -95.32 47.83 C-100.75 46.01, -103.05 41.23, -104.59 37.07 C-106.14 32.91, -104.66 29.43, -104.59 22.88 C-104.53 16.34, -104.26 1.98, -104.19 -2.2 M0 0 C0 3.37, 0 13.7, 0 20.2 C0 26.71, 1.89 34.51, 0 39.04 C-1.88 43.58, -5.08 46.02, -11.3 47.42 C-17.52 48.83, -27.19 47.37, -37.31 47.47 C-47.43 47.58, -62.35 47.97, -72.01 48.03 C-81.68 48.09, -89.89 49.66, -95.32 47.83 C-100.75 46.01, -103.05 41.23, -104.59 37.07 C-106.14 32.91, -104.66 29.43, -104.59 22.88 C-104.53 16.34, -104.26 1.98, -104.19 -2.2" stroke="#E1E1E1" stroke-width="4" fill="none"></path></g></g><mask></mask><g stroke-linecap="round"><g transform="translate(354.06511859623595 282.82580403325085) rotate(0 -52.29517971090229 22.91386622693463)"><path d="M0 0 C0 3.37, 0 13.7, 0 20.2 C0 26.71, 1.89 34.51, 0 39.04 C-1.88 43.58, -5.08 46.02, -11.3 47.42 C-17.52 48.83, -27.19 47.37, -37.31 47.47 C-47.43 47.58, -62.35 47.97, -72.01 48.03 C-81.68 48.09, -89.89 49.66, -95.32 47.83 C-100.75 46.01, -103.05 41.23, -104.59 37.07 C-106.14 32.91, -104.66 29.43, -104.59 22.88 C-104.53 16.34, -104.26 1.98, -104.19 -2.2 M0 0 C0 3.37, 0 13.7, 0 20.2 C0 26.71, 1.89 34.51, 0 39.04 C-1.88 43.58, -5.08 46.02, -11.3 47.42 C-17.52 48.83, -27.19 47.37, -37.31 47.47 C-47.43 47.58, -62.35 47.97, -72.01 48.03 C-81.68 48.09, -89.89 49.66, -95.32 47.83 C-100.75 46.01, -103.05 41.23, -104.59 37.07 C-106.14 32.91, -104.66 29.43, -104.59 22.88 C-104.53 16.34, -104.26 1.98, -104.19 -2.2" stroke="#E1E1E1" stroke-width="4" fill="none"></path></g></g><mask></mask><g stroke-linecap="round"><g transform="translate(355.2618091690837 570.6361840446568) rotate(180 -52.29517971090229 22.91386622693463)"><path d="M0 0 C0 3.37, 0 13.7, 0 20.2 C0 26.71, 1.89 34.51, 0 39.04 C-1.88 43.58, -5.08 46.02, -11.3 47.42 C-17.52 48.83, -27.19 47.37, -37.31 47.47 C-47.43 47.58, -62.35 47.97, -72.01 48.03 C-81.68 48.09, -89.89 49.66, -95.32 47.83 C-100.75 46.01, -103.05 41.23, -104.59 37.07 C-106.14 32.91, -104.66 29.43, -104.59 22.88 C-104.53 16.34, -104.26 1.98, -104.19 -2.2 M0 0 C0 3.37, 0 13.7, 0 20.2 C0 26.71, 1.89 34.51, 0 39.04 C-1.88 43.58, -5.08 46.02, -11.3 47.42 C-17.52 48.83, -27.19 47.37, -37.31 47.47 C-47.43 47.58, -62.35 47.97, -72.01 48.03 C-81.68 48.09, -89.89 49.66, -95.32 47.83 C-100.75 46.01, -103.05 41.23, -104.59 37.07 C-106.14 32.91, -104.66 29.43, -104.59 22.88 C-104.53 16.34, -104.26 1.98, -104.19 -2.2" stroke="#E1E1E1" stroke-width="4" fill="none"></path></g></g><mask></mask><g stroke-linecap="round"><g transform="translate(198.724249271443 280.8687892989575) rotate(0 -52.29517971090229 22.91386622693463)"><path d="M0 0 C0 3.37, 0 13.7, 0 20.2 C0 26.71, 1.89 34.51, 0 39.04 C-1.88 43.58, -5.08 46.02, -11.3 47.42 C-17.52 48.83, -27.19 47.37, -37.31 47.47 C-47.43 47.58, -62.35 47.97, -72.01 48.03 C-81.68 48.09, -89.89 49.66, -95.32 47.83 C-100.75 46.01, -103.05 41.23, -104.59 37.07 C-106.14 32.91, -104.66 29.43, -104.59 22.88 C-104.53 16.34, -104.26 1.98, -104.19 -2.2 M0 0 C0 3.37, 0 13.7, 0 20.2 C0 26.71, 1.89 34.51, 0 39.04 C-1.88 43.58, -5.08 46.02, -11.3 47.42 C-17.52 48.83, -27.19 47.37, -37.31 47.47 C-47.43 47.58, -62.35 47.97, -72.01 48.03 C-81.68 48.09, -89.89 49.66, -95.32 47.83 C-100.75 46.01, -103.05 41.23, -104.59 37.07 C-106.14 32.91, -104.66 29.43, -104.59 22.88 C-104.53 16.34, -104.26 1.98, -104.19 -2.2" stroke="#E1E1E1" stroke-width="4" fill="none"></path></g></g><mask></mask><g stroke-linecap="round"><g transform="translate(199.92093984429437 568.679169310363) rotate(180 -52.29517971090229 22.91386622693463)"><path d="M0 0 C0 3.37, 0 13.7, 0 20.2 C0 26.71, 1.89 34.51, 0 39.04 C-1.88 43.58, -5.08 46.02, -11.3 47.42 C-17.52 48.83, -27.19 47.37, -37.31 47.47 C-47.43 47.58, -62.35 47.97, -72.01 48.03 C-81.68 48.09, -89.89 49.66, -95.32 47.83 C-100.75 46.01, -103.05 41.23, -104.59 37.07 C-106.14 32.91, -104.66 29.43, -104.59 22.88 C-104.53 16.34, -104.26 1.98, -104.19 -2.2 M0 0 C0 3.37, 0 13.7, 0 20.2 C0 26.71, 1.89 34.51, 0 39.04 C-1.88 43.58, -5.08 46.02, -11.3 47.42 C-17.52 48.83, -27.19 47.37, -37.31 47.47 C-47.43 47.58, -62.35 47.97, -72.01 48.03 C-81.68 48.09, -89.89 49.66, -95.32 47.83 C-100.75 46.01, -103.05 41.23, -104.59 37.07 C-106.14 32.91, -104.66 29.43, -104.59 22.88 C-104.53 16.34, -104.26 1.98, -104.19 -2.2" stroke="#E1E1E1" stroke-width="4" fill="none"></path></g></g><mask></mask><g stroke-linecap="round"><g transform="translate(118.56029749257675 329.3809598299864) rotate(0 0 81.41354385660816)"><path d="M0 0 C0 27.14, 0 135.69, 0 162.83 M0 0 C0 27.14, 0 135.69, 0 162.83" stroke="#E1E1E1" stroke-width="4" fill="none"></path></g></g><mask></mask><g stroke-linecap="round"><g transform="translate(177.2677264116827 330.5379939454075) rotate(0 0 116.20886069054775)"><path d="M0 0 C0 38.74, 0 193.68, 0 232.42 M0 0 C0 38.74, 0 193.68, 0 232.42" stroke="#E1E1E1" stroke-width="4" fill="none"></path></g></g><mask></mask><g stroke-linecap="round"><g transform="translate(119.17874867037233 524.5251553686878) rotate(0 0 21.185174129039083)"><path d="M0 0 C0 7.06, 0 35.31, 0 42.37 M0 0 C0 7.06, 0 35.31, 0 42.37" stroke="#E1E1E1" stroke-width="4" fill="none"></path></g></g><mask></mask><g stroke-linecap="round"><g transform="translate(40.260099727964075 619.2006797482547) rotate(180 339.1866324490794 20.12370445642847)"><path d="M0 0 C0 4.21, -0.97 18.97, 0 25.27 C0.97 31.58, 1.27 35.54, 5.83 37.84 C10.4 40.14, 10.57 38.8, 27.37 39.07 C44.18 39.35, 65.31 39.29, 106.68 39.49 C148.05 39.69, 217.44 40.21, 275.62 40.25 C333.79 40.29, 403.34 39.81, 455.73 39.74 C508.13 39.68, 555 39.82, 590.01 39.85 C625.01 39.88, 651.07 41.2, 665.76 39.92 C680.46 38.64, 676.07 38.18, 678.17 32.14 C680.27 26.11, 678.34 8.45, 678.37 3.72 M0 0 C0 4.21, -0.97 18.97, 0 25.27 C0.97 31.58, 1.27 35.54, 5.83 37.84 C10.4 40.14, 10.57 38.8, 27.37 39.07 C44.18 39.35, 65.31 39.29, 106.68 39.49 C148.05 39.69, 217.44 40.21, 275.62 40.25 C333.79 40.29, 403.34 39.81, 455.73 39.74 C508.13 39.68, 555 39.82, 590.01 39.85 C625.01 39.88, 651.07 41.2, 665.76 39.92 C680.46 38.64, 676.07 38.18, 678.17 32.14 C680.27 26.11, 678.34 8.45, 678.37 3.72" stroke="#E1E1E1" stroke-width="4" fill="none"></path></g></g><mask></mask><g stroke-linecap="round"><g transform="translate(11.022488880787819 661.5568688651467) rotate(180 369.30871661266343 24.844671051412774)"><path d="M0 0 C0 5.2, -1.06 23.42, 0 31.2 C1.06 38.99, 1.38 43.87, 6.35 46.71 C11.32 49.55, 11.51 47.9, 29.81 48.24 C48.11 48.58, 71.11 48.51, 116.15 48.75 C161.2 49, 236.75 49.64, 300.09 49.69 C363.44 49.74, 439.15 49.15, 496.21 49.07 C553.26 48.98, 604.29 49.16, 642.4 49.2 C680.52 49.24, 708.89 50.87, 724.88 49.28 C740.88 47.7, 736.11 47.13, 738.4 39.69 C740.69 32.24, 738.58 10.44, 738.62 4.59 M0 0 C0 5.2, -1.06 23.42, 0 31.2 C1.06 38.99, 1.38 43.87, 6.35 46.71 C11.32 49.55, 11.51 47.9, 29.81 48.24 C48.11 48.58, 71.11 48.51, 116.15 48.75 C161.2 49, 236.75 49.64, 300.09 49.69 C363.44 49.74, 439.15 49.15, 496.21 49.07 C553.26 48.98, 604.29 49.16, 642.4 49.2 C680.52 49.24, 708.89 50.87, 724.88 49.28 C740.88 47.7, 736.11 47.13, 738.4 39.69 C740.69 32.24, 738.58 10.44, 738.62 4.59" stroke="#E1E1E1" stroke-width="4" fill="none"></path></g></g><mask></mask><g stroke-linecap="round"><g transform="translate(750.0094544479379 710.9033076414164) rotate(0 -369.08552064714064 0)"><path d="M0 0 C-123.03 0, -615.14 0, -738.17 0 M0 0 C-123.03 0, -615.14 0, -738.17 0" stroke="#E1E1E1" stroke-width="4" fill="none"></path></g></g><mask></mask><g stroke-linecap="round" transform="translate(295.25496456876124 45.14460722249862) rotate(0 89.20047396778348 89.45976379848783)"><path d="M178.4 89.46 C178.4 92.38, 178.26 95.32, 177.97 98.23 C177.69 101.14, 177.26 104.05, 176.69 106.91 C176.12 109.78, 175.41 112.63, 174.56 115.43 C173.71 118.23, 172.73 120.99, 171.61 123.69 C170.5 126.39, 169.24 129.05, 167.87 131.63 C166.49 134.21, 164.99 136.73, 163.37 139.16 C161.75 141.59, 160 143.95, 158.15 146.21 C156.3 148.47, 154.34 150.65, 152.27 152.72 C150.21 154.78, 148.04 156.76, 145.79 158.61 C143.54 160.47, 141.18 162.22, 138.76 163.84 C136.33 165.47, 133.82 166.98, 131.25 168.36 C128.68 169.73, 126.03 170.99, 123.34 172.11 C120.64 173.23, 117.88 174.22, 115.09 175.07 C112.31 175.92, 109.46 176.63, 106.6 177.2 C103.74 177.77, 100.84 178.2, 97.94 178.49 C95.04 178.78, 92.11 178.92, 89.2 178.92 C86.29 178.92, 83.36 178.78, 80.46 178.49 C77.56 178.2, 74.66 177.77, 71.8 177.2 C68.94 176.63, 66.1 175.92, 63.31 175.07 C60.52 174.22, 57.76 173.23, 55.06 172.11 C52.37 170.99, 49.72 169.73, 47.15 168.36 C44.58 166.98, 42.07 165.47, 39.64 163.84 C37.22 162.22, 34.87 160.47, 32.61 158.61 C30.36 156.76, 28.19 154.78, 26.13 152.72 C24.07 150.65, 22.1 148.47, 20.25 146.21 C18.4 143.95, 16.65 141.59, 15.03 139.16 C13.41 136.73, 11.91 134.21, 10.53 131.63 C9.16 129.05, 7.91 126.39, 6.79 123.69 C5.67 120.99, 4.69 118.23, 3.84 115.43 C2.99 112.63, 2.28 109.78, 1.71 106.91 C1.15 104.05, 0.72 101.14, 0.43 98.23 C0.14 95.32, 0 92.38, 0 89.46 C0 86.54, 0.14 83.6, 0.43 80.69 C0.72 77.78, 1.15 74.87, 1.71 72.01 C2.28 69.14, 2.99 66.29, 3.84 63.49 C4.69 60.69, 5.67 57.93, 6.79 55.22 C7.91 52.52, 9.16 49.87, 10.53 47.29 C11.91 44.71, 13.41 42.19, 15.03 39.76 C16.65 37.33, 18.4 34.97, 20.25 32.71 C22.1 30.45, 24.07 28.27, 26.13 26.2 C28.19 24.14, 30.36 22.16, 32.61 20.31 C34.87 18.45, 37.22 16.7, 39.64 15.08 C42.07 13.45, 44.58 11.94, 47.15 10.56 C49.72 9.19, 52.37 7.93, 55.06 6.81 C57.76 5.69, 60.52 4.7, 63.31 3.85 C66.1 3, 68.94 2.29, 71.8 1.72 C74.66 1.15, 77.56 0.72, 80.46 0.43 C83.36 0.14, 86.29 0, 89.2 0 C92.11 0, 95.04 0.14, 97.94 0.43 C100.84 0.72, 103.74 1.15, 106.6 1.72 C109.46 2.29, 112.31 3, 115.09 3.85 C117.88 4.7, 120.64 5.69, 123.34 6.81 C126.03 7.93, 128.68 9.19, 131.25 10.56 C133.82 11.94, 136.33 13.45, 138.76 15.08 C141.18 16.7, 143.54 18.45, 145.79 20.31 C148.04 22.16, 150.21 24.14, 152.27 26.2 C154.34 28.27, 156.3 30.45, 158.15 32.71 C160 34.97, 161.75 37.33, 163.37 39.76 C164.99 42.19, 166.49 44.71, 167.87 47.29 C169.24 49.87, 170.5 52.52, 171.61 55.22 C172.73 57.93, 173.71 60.69, 174.56 63.49 C175.41 66.29, 176.12 69.14, 176.69 72.01 C177.26 74.87, 177.69 77.78, 177.97 80.69 C178.26 83.6, 178.33 88, 178.4 89.46 C178.47 90.92, 178.47 88, 178.4 89.46" stroke="#E1E1E1" stroke-width="4" fill="none"></path></g><g stroke-linecap="round"><g transform="translate(350.68923496543164 217.62649797984534) rotate(0 -15.122580603511452 -41.78167129093535)"><path d="M0 0 C-0.25 -1.45, -0.6 -5.96, -1.51 -8.72 C-2.42 -11.48, -3.3 -13.03, -5.44 -16.58 C-7.59 -20.12, -11.28 -25.61, -14.36 -29.99 C-17.44 -34.38, -21.28 -39.04, -23.93 -42.9 C-26.57 -46.76, -29.2 -48.46, -30.25 -53.15 C-31.29 -57.84, -30.21 -65.95, -30.2 -71.02 C-30.19 -76.09, -30.16 -81.47, -30.16 -83.56 M0 0 C-0.25 -1.45, -0.6 -5.96, -1.51 -8.72 C-2.42 -11.48, -3.3 -13.03, -5.44 -16.58 C-7.59 -20.12, -11.28 -25.61, -14.36 -29.99 C-17.44 -34.38, -21.28 -39.04, -23.93 -42.9 C-26.57 -46.76, -29.2 -48.46, -30.25 -53.15 C-31.29 -57.84, -30.21 -65.95, -30.2 -71.02 C-30.19 -76.09, -30.16 -81.47, -30.16 -83.56" stroke="#E1E1E1" stroke-width="4" fill="none"></path></g></g><mask></mask><g stroke-linecap="round"><g transform="translate(321.0745756505984 127.84113557044577) rotate(0 18.662419171431836 20.235033590746568)"><path d="M0 0 C0 -1.49, 0.01 -6.23, 0 -8.92 C-0.01 -11.6, -1.04 -14.79, -0.08 -16.1 C0.88 -17.41, 3.8 -17.31, 5.76 -16.78 C7.71 -16.24, 10.26 -14.67, 11.65 -12.9 C13.04 -11.13, 13.67 -9.22, 14.12 -6.14 C14.57 -3.07, 14.3 0.61, 14.34 5.55 C14.37 10.48, 14.34 19.18, 14.34 23.46 C14.34 27.74, 13.67 28.93, 14.34 31.25 C15.01 33.57, 16.5 35.19, 18.34 37.36 C20.18 39.53, 22.22 40.97, 25.4 44.28 C28.57 47.6, 35.4 55.09, 37.4 57.25 M0 0 C0 -1.49, 0.01 -6.23, 0 -8.92 C-0.01 -11.6, -1.04 -14.79, -0.08 -16.1 C0.88 -17.41, 3.8 -17.31, 5.76 -16.78 C7.71 -16.24, 10.26 -14.67, 11.65 -12.9 C13.04 -11.13, 13.67 -9.22, 14.12 -6.14 C14.57 -3.07, 14.3 0.61, 14.34 5.55 C14.37 10.48, 14.34 19.18, 14.34 23.46 C14.34 27.74, 13.67 28.93, 14.34 31.25 C15.01 33.57, 16.5 35.19, 18.34 37.36 C20.18 39.53, 22.22 40.97, 25.4 44.28 C28.57 47.6, 35.4 55.09, 37.4 57.25" stroke="#E1E1E1" stroke-width="4" fill="none"></path></g></g><mask></mask><g stroke-linecap="round"><g transform="translate(335.2208248021142 153.9632803623855) rotate(0 23.91029173366337 29.872393344667074)"><path d="M0 0 C0.65 -0.62, 2.49 -3, 3.87 -3.71 C5.25 -4.43, 6.78 -4.6, 8.29 -4.27 C9.79 -3.93, 11.05 -3.26, 12.9 -1.69 C14.75 -0.12, 16.55 2.37, 19.36 5.18 C22.17 7.98, 26.52 11.93, 29.76 15.15 C33.01 18.37, 36.04 21.49, 38.84 24.48 C41.65 27.46, 45.09 29.97, 46.59 33.06 C48.09 36.15, 47.73 40.31, 47.82 43 C47.91 45.7, 47.64 47.09, 47.11 49.23 C46.58 51.38, 45.26 53.4, 44.63 55.87 C44 58.33, 43.55 62.65, 43.33 64.01 M0 0 C0.65 -0.62, 2.49 -3, 3.87 -3.71 C5.25 -4.43, 6.78 -4.6, 8.29 -4.27 C9.79 -3.93, 11.05 -3.26, 12.9 -1.69 C14.75 -0.12, 16.55 2.37, 19.36 5.18 C22.17 7.98, 26.52 11.93, 29.76 15.15 C33.01 18.37, 36.04 21.49, 38.84 24.48 C41.65 27.46, 45.09 29.97, 46.59 33.06 C48.09 36.15, 47.73 40.31, 47.82 43 C47.91 45.7, 47.64 47.09, 47.11 49.23 C46.58 51.38, 45.26 53.4, 44.63 55.87 C44 58.33, 43.55 62.65, 43.33 64.01" stroke="#E1E1E1" stroke-width="4" fill="none"></path></g></g><mask></mask><g stroke-linecap="round"><g transform="translate(388.01771361945055 217.56825300135063) rotate(0 -0.3480137464964628 -19.634382250036026)"><path d="M0 0 C-0.17 -1.25, -0.39 -4.95, -1.04 -7.53 C-1.68 -10.1, -3.28 -12.85, -3.88 -15.45 C-4.47 -18.05, -4.76 -20.51, -4.61 -23.12 C-4.47 -25.73, -4.43 -28.41, -3.01 -31.1 C-1.59 -33.79, 2.76 -37.91, 3.92 -39.27 M0 0 C-0.17 -1.25, -0.39 -4.95, -1.04 -7.53 C-1.68 -10.1, -3.28 -12.85, -3.88 -15.45 C-4.47 -18.05, -4.76 -20.51, -4.61 -23.12 C-4.47 -25.73, -4.43 -28.41, -3.01 -31.1 C-1.59 -33.79, 2.76 -37.91, 3.92 -39.27" stroke="#E1E1E1" stroke-width="4" fill="none"></path></g></g><mask></mask><g stroke-linecap="round"><g transform="translate(383.3450102198366 190.02201848525294) rotate(0 0 -13.229254771369114)"><path d="M0 0 C0 -4.41, 0 -22.05, 0 -26.46 M0 0 C0 -4.41, 0 -22.05, 0 -26.46" stroke="#E1E1E1" stroke-width="4" fill="none"></path></g></g><mask></mask><g stroke-linecap="round"><g transform="translate(359.89485381627117 144.91201070454883) rotate(0 -7.718187712571634 -7.203447715138594)"><path d="M0 0 C0 1.56, 0 6.53, 0 9.34 C0 12.15, -0.28 15.03, 0 16.88 C0.28 18.73, 0.86 19.69, 1.7 20.45 C2.54 21.21, 3.94 21.69, 5.06 21.45 C6.18 21.21, 7.82 20.86, 8.41 19.01 C9 17.15, 8.61 13.22, 8.61 10.33 C8.62 7.44, 8.58 4.4, 8.45 1.66 C8.32 -1.08, 8.37 -4.09, 7.81 -6.1 C7.26 -8.11, 6.6 -9.41, 5.11 -10.38 C3.62 -11.35, 0.66 -11.65, -1.15 -11.92 C-2.96 -12.2, -4.77 -11.32, -5.76 -12.04 C-6.76 -12.75, -7.15 -15.06, -7.14 -16.23 C-7.13 -17.39, -6.41 -17.92, -5.68 -19.02 C-4.95 -20.12, -3.33 -21.36, -2.76 -22.85 C-2.19 -24.35, -2.22 -26.47, -2.24 -28.01 C-2.27 -29.56, -2.19 -30.93, -2.92 -32.12 C-3.66 -33.32, -5.19 -34.57, -6.66 -35.19 C-8.14 -35.81, -10.28 -35.91, -11.8 -35.86 C-13.32 -35.81, -14.57 -35.7, -15.76 -34.89 C-16.95 -34.09, -18.34 -32.6, -18.93 -31.02 C-19.52 -29.44, -19.49 -27.25, -19.3 -25.41 C-19.12 -23.57, -18.6 -21.29, -17.83 -19.98 C-17.06 -18.68, -15.05 -18.7, -14.68 -17.59 C-14.31 -16.49, -14.87 -14.31, -15.61 -13.35 C-16.34 -12.39, -17.69 -12.17, -19.09 -11.8 C-20.5 -11.44, -23.22 -11.26, -24.05 -11.15 M0 0 C0 1.56, 0 6.53, 0 9.34 C0 12.15, -0.28 15.03, 0 16.88 C0.28 18.73, 0.86 19.69, 1.7 20.45 C2.54 21.21, 3.94 21.69, 5.06 21.45 C6.18 21.21, 7.82 20.86, 8.41 19.01 C9 17.15, 8.61 13.22, 8.61 10.33 C8.62 7.44, 8.58 4.4, 8.45 1.66 C8.32 -1.08, 8.37 -4.09, 7.81 -6.1 C7.26 -8.11, 6.6 -9.41, 5.11 -10.38 C3.62 -11.35, 0.66 -11.65, -1.15 -11.92 C-2.96 -12.2, -4.77 -11.32, -5.76 -12.04 C-6.76 -12.75, -7.15 -15.06, -7.14 -16.23 C-7.13 -17.39, -6.41 -17.92, -5.68 -19.02 C-4.95 -20.12, -3.33 -21.36, -2.76 -22.85 C-2.19 -24.35, -2.22 -26.47, -2.24 -28.01 C-2.27 -29.56, -2.19 -30.93, -2.92 -32.12 C-3.66 -33.32, -5.19 -34.57, -6.66 -35.19 C-8.14 -35.81, -10.28 -35.91, -11.8 -35.86 C-13.32 -35.81, -14.57 -35.7, -15.76 -34.89 C-16.95 -34.09, -18.34 -32.6, -18.93 -31.02 C-19.52 -29.44, -19.49 -27.25, -19.3 -25.41 C-19.12 -23.57, -18.6 -21.29, -17.83 -19.98 C-17.06 -18.68, -15.05 -18.7, -14.68 -17.59 C-14.31 -16.49, -14.87 -14.31, -15.61 -13.35 C-16.34 -12.39, -17.69 -12.17, -19.09 -11.8 C-20.5 -11.44, -23.22 -11.26, -24.05 -11.15" stroke="#E1E1E1" stroke-width="4" fill="none"></path></g></g><mask></mask><g stroke-linecap="round"><g transform="translate(343.9867104546846 132.58123148135894) rotate(0 4.972096079213983 1.9297379633715934)"><path d="M0 0 C0.36 0.5, 1.17 2.35, 2.17 2.99 C3.16 3.63, 4.89 3.9, 5.96 3.86 C7.02 3.82, 7.88 3.33, 8.55 2.76 C9.21 2.18, 9.71 0.79, 9.94 0.4 M0 0 C0.36 0.5, 1.17 2.35, 2.17 2.99 C3.16 3.63, 4.89 3.9, 5.96 3.86 C7.02 3.82, 7.88 3.33, 8.55 2.76 C9.21 2.18, 9.71 0.79, 9.94 0.4" stroke="#E1E1E1" stroke-width="4" fill="none"></path></g></g><mask></mask><g stroke-linecap="round"><g transform="translate(361.0679421631975 133.21339114648265) rotate(0 15.923388930491413 -21.00435429344168)"><path d="M0 0 C0.05 -0.74, -0.26 -2.94, 0.29 -4.41 C0.85 -5.89, 1.96 -7.68, 3.33 -8.82 C4.7 -9.96, 6.78 -10.77, 8.53 -11.25 C10.27 -11.74, 12.45 -11.45, 13.8 -11.75 C15.15 -12.05, 16.11 -12.13, 16.64 -13.04 C17.16 -13.94, 17.21 -16.05, 16.96 -17.21 C16.7 -18.37, 15.84 -18.91, 15.11 -19.98 C14.37 -21.05, 13.09 -22.07, 12.55 -23.62 C12 -25.17, 11.9 -27.22, 11.83 -29.28 C11.75 -31.33, 11.47 -34.1, 12.1 -35.95 C12.74 -37.79, 14.32 -39.35, 15.62 -40.35 C16.92 -41.34, 18.29 -41.61, 19.91 -41.89 C21.53 -42.17, 23.84 -42.29, 25.34 -42.01 C26.84 -41.73, 27.95 -40.96, 28.9 -40.22 C29.84 -39.48, 30.52 -38.84, 31.01 -37.58 C31.5 -36.31, 31.71 -33.47, 31.85 -32.65 M0 0 C0.05 -0.74, -0.26 -2.94, 0.29 -4.41 C0.85 -5.89, 1.96 -7.68, 3.33 -8.82 C4.7 -9.96, 6.78 -10.77, 8.53 -11.25 C10.27 -11.74, 12.45 -11.45, 13.8 -11.75 C15.15 -12.05, 16.11 -12.13, 16.64 -13.04 C17.16 -13.94, 17.21 -16.05, 16.96 -17.21 C16.7 -18.37, 15.84 -18.91, 15.11 -19.98 C14.37 -21.05, 13.09 -22.07, 12.55 -23.62 C12 -25.17, 11.9 -27.22, 11.83 -29.28 C11.75 -31.33, 11.47 -34.1, 12.1 -35.95 C12.74 -37.79, 14.32 -39.35, 15.62 -40.35 C16.92 -41.34, 18.29 -41.61, 19.91 -41.89 C21.53 -42.17, 23.84 -42.29, 25.34 -42.01 C26.84 -41.73, 27.95 -40.96, 28.9 -40.22 C29.84 -39.48, 30.52 -38.84, 31.01 -37.58 C31.5 -36.31, 31.71 -33.47, 31.85 -32.65" stroke="#E1E1E1" stroke-width="4" fill="none"></path></g></g><mask></mask><g stroke-linecap="round"><g transform="translate(393.0855610540401 106.4076200322221) rotate(0 3.8326773338233693 13.611292471711465)"><path d="M0 0 C-0.04 0.6, 0.12 2.46, -0.26 3.58 C-0.64 4.69, -1.54 5.86, -2.26 6.71 C-2.98 7.55, -4.1 7.84, -4.57 8.63 C-5.04 9.42, -5.24 10.47, -5.09 11.45 C-4.94 12.43, -4.49 13.85, -3.67 14.5 C-2.85 15.14, -1.59 15.04, -0.18 15.3 C1.23 15.55, 3.43 15.67, 4.79 16.03 C6.15 16.4, 6.95 16.8, 7.97 17.49 C8.99 18.18, 10.2 19.04, 10.92 20.18 C11.63 21.32, 11.95 23.16, 12.26 24.34 C12.56 25.51, 12.67 26.74, 12.75 27.22 M0 0 C-0.04 0.6, 0.12 2.46, -0.26 3.58 C-0.64 4.69, -1.54 5.86, -2.26 6.71 C-2.98 7.55, -4.1 7.84, -4.57 8.63 C-5.04 9.42, -5.24 10.47, -5.09 11.45 C-4.94 12.43, -4.49 13.85, -3.67 14.5 C-2.85 15.14, -1.59 15.04, -0.18 15.3 C1.23 15.55, 3.43 15.67, 4.79 16.03 C6.15 16.4, 6.95 16.8, 7.97 17.49 C8.99 18.18, 10.2 19.04, 10.92 20.18 C11.63 21.32, 11.95 23.16, 12.26 24.34 C12.56 25.51, 12.67 26.74, 12.75 27.22" stroke="#E1E1E1" stroke-width="4" fill="none"></path></g></g><mask></mask><g stroke-linecap="round"><g transform="translate(406.5757813113122 144.97079524371168) rotate(0 8.225971660601346 -7.38253380308322)"><path d="M0 0 C0.01 0.81, 0.02 3.21, 0.07 4.88 C0.12 6.55, 0.25 8.35, 0.3 10.03 C0.35 11.7, 0.37 13.58, 0.36 14.93 C0.35 16.28, 0.58 17.18, 0.24 18.14 C-0.1 19.09, -0.91 20.17, -1.66 20.65 C-2.41 21.13, -3.45 21.11, -4.29 21.03 C-5.13 20.95, -6.17 20.71, -6.7 20.16 C-7.23 19.61, -7.33 19.36, -7.46 17.75 C-7.59 16.14, -7.45 13.48, -7.46 10.52 C-7.47 7.55, -7.54 2.61, -7.51 -0.03 C-7.48 -2.67, -7.61 -3.83, -7.26 -5.32 C-6.91 -6.81, -6.37 -8.01, -5.42 -8.96 C-4.46 -9.9, -2.84 -10.52, -1.51 -11 C-0.19 -11.47, 1.3 -11.58, 2.54 -11.81 C3.79 -12.04, 5.19 -11.55, 5.96 -12.36 C6.72 -13.17, 7.23 -15.53, 7.12 -16.66 C7.01 -17.79, 5.97 -18.25, 5.32 -19.13 C4.66 -20, 3.68 -20.66, 3.19 -21.9 C2.7 -23.15, 2.34 -24.91, 2.38 -26.6 C2.41 -28.29, 2.74 -30.7, 3.4 -32.04 C4.05 -33.38, 5.12 -33.99, 6.31 -34.62 C7.49 -35.25, 9 -35.76, 10.5 -35.79 C12 -35.83, 13.95 -35.79, 15.31 -34.83 C16.67 -33.87, 18.09 -31.82, 18.65 -30.02 C19.2 -28.22, 19.01 -25.78, 18.65 -24.04 C18.28 -22.3, 17.3 -20.76, 16.45 -19.59 C15.6 -18.42, 13.93 -18.1, 13.55 -17.03 C13.17 -15.96, 13.43 -14.02, 14.19 -13.17 C14.95 -12.32, 16.48 -12.32, 18.11 -11.93 C19.74 -11.54, 22.99 -11.01, 23.96 -10.82 M0 0 C0.01 0.81, 0.02 3.21, 0.07 4.88 C0.12 6.55, 0.25 8.35, 0.3 10.03 C0.35 11.7, 0.37 13.58, 0.36 14.93 C0.35 16.28, 0.58 17.18, 0.24 18.14 C-0.1 19.09, -0.91 20.17, -1.66 20.65 C-2.41 21.13, -3.45 21.11, -4.29 21.03 C-5.13 20.95, -6.17 20.71, -6.7 20.16 C-7.23 19.61, -7.33 19.36, -7.46 17.75 C-7.59 16.14, -7.45 13.48, -7.46 10.52 C-7.47 7.55, -7.54 2.61, -7.51 -0.03 C-7.48 -2.67, -7.61 -3.83, -7.26 -5.32 C-6.91 -6.81, -6.37 -8.01, -5.42 -8.96 C-4.46 -9.9, -2.84 -10.52, -1.51 -11 C-0.19 -11.47, 1.3 -11.58, 2.54 -11.81 C3.79 -12.04, 5.19 -11.55, 5.96 -12.36 C6.72 -13.17, 7.23 -15.53, 7.12 -16.66 C7.01 -17.79, 5.97 -18.25, 5.32 -19.13 C4.66 -20, 3.68 -20.66, 3.19 -21.9 C2.7 -23.15, 2.34 -24.91, 2.38 -26.6 C2.41 -28.29, 2.74 -30.7, 3.4 -32.04 C4.05 -33.38, 5.12 -33.99, 6.31 -34.62 C7.49 -35.25, 9 -35.76, 10.5 -35.79 C12 -35.83, 13.95 -35.79, 15.31 -34.83 C16.67 -33.87, 18.09 -31.82, 18.65 -30.02 C19.2 -28.22, 19.01 -25.78, 18.65 -24.04 C18.28 -22.3, 17.3 -20.76, 16.45 -19.59 C15.6 -18.42, 13.93 -18.1, 13.55 -17.03 C13.17 -15.96, 13.43 -14.02, 14.19 -13.17 C14.95 -12.32, 16.48 -12.32, 18.11 -11.93 C19.74 -11.54, 22.99 -11.01, 23.96 -10.82" stroke="#E1E1E1" stroke-width="4" fill="none"></path></g></g><mask></mask><g stroke-linecap="round"><g transform="translate(396.5411439017788 174.53538578979817) rotate(0 17.291074262001786 -6.99395420574686)"><path d="M0 0 C1.03 -1.06, 4.29 -4.47, 6.2 -6.38 C8.12 -8.28, 9.69 -9.67, 11.49 -11.44 C13.29 -13.21, 15.31 -15.26, 17.02 -17 C18.74 -18.75, 20.45 -20.62, 21.76 -21.92 C23.06 -23.21, 23.43 -24.34, 24.87 -24.78 C26.3 -25.22, 28.9 -25.09, 30.34 -24.54 C31.78 -24, 32.81 -22.61, 33.52 -21.49 C34.22 -20.37, 34.42 -19.03, 34.58 -17.8 C34.74 -16.57, 34.86 -15.22, 34.46 -14.11 C34.07 -13.01, 33.67 -12.8, 32.23 -11.17 C30.78 -9.55, 28.09 -6.81, 25.8 -4.35 C23.5 -1.89, 20.83 1.06, 18.46 3.58 C16.08 6.11, 12.69 9.59, 11.54 10.79 M0 0 C1.03 -1.06, 4.29 -4.47, 6.2 -6.38 C8.12 -8.28, 9.69 -9.67, 11.49 -11.44 C13.29 -13.21, 15.31 -15.26, 17.02 -17 C18.74 -18.75, 20.45 -20.62, 21.76 -21.92 C23.06 -23.21, 23.43 -24.34, 24.87 -24.78 C26.3 -25.22, 28.9 -25.09, 30.34 -24.54 C31.78 -24, 32.81 -22.61, 33.52 -21.49 C34.22 -20.37, 34.42 -19.03, 34.58 -17.8 C34.74 -16.57, 34.86 -15.22, 34.46 -14.11 C34.07 -13.01, 33.67 -12.8, 32.23 -11.17 C30.78 -9.55, 28.09 -6.81, 25.8 -4.35 C23.5 -1.89, 20.83 1.06, 18.46 3.58 C16.08 6.11, 12.69 9.59, 11.54 10.79" stroke="#E1E1E1" stroke-width="4" fill="none"></path></g></g><mask></mask><g stroke-linecap="round"><g transform="translate(430.92948117341973 154.4144279701028) rotate(0 7.481832160776783 -11.582734696948762)"><path d="M0 0 C0.02 -1.38, 0.15 -4.9, 0.12 -8.25 C0.09 -11.6, -0.11 -15.98, -0.17 -20.09 C-0.22 -24.21, -0.45 -29.85, -0.2 -32.92 C0.06 -35.99, 0.48 -37.04, 1.38 -38.52 C2.28 -40, 3.62 -41.07, 5.19 -41.82 C6.77 -42.56, 9.36 -42.88, 10.83 -43 C12.29 -43.12, 13.27 -43.12, 13.99 -42.53 C14.71 -41.95, 14.97 -41, 15.16 -39.5 C15.35 -38, 15.14 -36.64, 15.12 -33.52 C15.1 -30.4, 15.07 -25.84, 15.06 -20.78 C15.05 -15.72, 15.05 -8.07, 15.06 -3.16 C15.06 1.74, 15.22 6.05, 15.08 8.65 C14.93 11.25, 15.05 10.58, 14.18 12.44 C13.3 14.31, 10.55 18.6, 9.82 19.83 M0 0 C0.02 -1.38, 0.15 -4.9, 0.12 -8.25 C0.09 -11.6, -0.11 -15.98, -0.17 -20.09 C-0.22 -24.21, -0.45 -29.85, -0.2 -32.92 C0.06 -35.99, 0.48 -37.04, 1.38 -38.52 C2.28 -40, 3.62 -41.07, 5.19 -41.82 C6.77 -42.56, 9.36 -42.88, 10.83 -43 C12.29 -43.12, 13.27 -43.12, 13.99 -42.53 C14.71 -41.95, 14.97 -41, 15.16 -39.5 C15.35 -38, 15.14 -36.64, 15.12 -33.52 C15.1 -30.4, 15.07 -25.84, 15.06 -20.78 C15.05 -15.72, 15.05 -8.07, 15.06 -3.16 C15.06 1.74, 15.22 6.05, 15.08 8.65 C14.93 11.25, 15.05 10.58, 14.18 12.44 C13.3 14.31, 10.55 18.6, 9.82 19.83" stroke="#E1E1E1" stroke-width="4" fill="none"></path></g></g><mask></mask><g stroke-linecap="round"><g transform="translate(436.87254769966773 179.07152618776274) rotate(0 -10.664882889447796 19.62159475341393)"><path d="M0 0 C-1.07 1.56, -4.2 6.13, -6.44 9.36 C-8.68 12.6, -11.39 16.35, -13.45 19.41 C-15.51 22.46, -17.48 25.26, -18.8 27.67 C-20.11 30.09, -20.91 31.97, -21.33 33.9 C-21.75 35.83, -21.33 38.35, -21.33 39.24 M0 0 C-1.07 1.56, -4.2 6.13, -6.44 9.36 C-8.68 12.6, -11.39 16.35, -13.45 19.41 C-15.51 22.46, -17.48 25.26, -18.8 27.67 C-20.11 30.09, -20.91 31.97, -21.33 33.9 C-21.75 35.83, -21.33 38.35, -21.33 39.24" stroke="#E1E1E1" stroke-width="4" fill="none"></path></g></g><mask></mask><g stroke-linecap="round"><g transform="translate(388.14648466967253 115.22579274171733) rotate(0 -5.184570637363294 0.713033990185636)"><path d="M0 0 C-0.48 0.2, -1.8 0.96, -2.9 1.2 C-4 1.44, -5.34 1.59, -6.59 1.43 C-7.83 1.26, -9.74 0.41, -10.37 0.2 M0 0 C-0.48 0.2, -1.8 0.96, -2.9 1.2 C-4 1.44, -5.34 1.59, -6.59 1.43 C-7.83 1.26, -9.74 0.41, -10.37 0.2" stroke="#E1E1E1" stroke-width="4" fill="none"></path></g></g><mask></mask><g stroke-linecap="round"><g transform="translate(389.0585939215506 120.80085716162523) rotate(0 -6.645811770941648 2.1314452297226296)"><path d="M0 0 C-0.24 0.47, -0.65 2.11, -1.47 2.82 C-2.29 3.53, -3.82 4.05, -4.93 4.26 C-6.05 4.48, -7.13 4.37, -8.18 4.11 C-9.22 3.85, -10.33 3.31, -11.18 2.7 C-12.03 2.1, -12.94 0.85, -13.29 0.48 M0 0 C-0.24 0.47, -0.65 2.11, -1.47 2.82 C-2.29 3.53, -3.82 4.05, -4.93 4.26 C-6.05 4.48, -7.13 4.37, -8.18 4.11 C-9.22 3.85, -10.33 3.31, -11.18 2.7 C-12.03 2.1, -12.94 0.85, -13.29 0.48" stroke="#E1E1E1" stroke-width="4" fill="none"></path></g></g><mask></mask><g stroke-linecap="round"><g transform="translate(412.5322471340222 132.74489431668837) rotate(0 4.920413078583067 2.002716274447664)"><path d="M0 0 C0.35 0.54, 1.28 2.6, 2.08 3.26 C2.89 3.93, 3.85 3.99, 4.82 4.01 C5.79 4.02, 7.05 4, 7.89 3.36 C8.73 2.71, 9.52 0.66, 9.84 0.13 M0 0 C0.35 0.54, 1.28 2.6, 2.08 3.26 C2.89 3.93, 3.85 3.99, 4.82 4.01 C5.79 4.02, 7.05 4, 7.89 3.36 C8.73 2.71, 9.52 0.66, 9.84 0.13" stroke="#E1E1E1" stroke-width="4" fill="none"></path></g></g><mask></mask></svg>