<svg version="1.1" xmlns="http://www.w3.org/2000/svg" viewBox="0 0 768.9662616567293 315.27332525152224" width="768.9662616567293" height="315.27332525152224" class="excalidraw-svg"><!-- svg-source:excalidraw --><metadata></metadata><defs><style class="style-fonts">
      </style></defs><rect x="0" y="0" width="768.9662616567293" height="315.27332525152224" fill="#000000"></rect><g stroke-linecap="round"><g transform="translate(11.600670373771209 53.64429535853742) rotate(0 0 -19.152617010326367)"><path d="M0 0 C0 -6.38, 0 -31.92, 0 -38.31 M0 0 C0 -6.38, 0 -31.92, 0 -38.31" stroke="#E1E1E1" stroke-width="4" fill="none"></path></g></g><mask></mask><g stroke-linecap="round"><g transform="translate(11.767242745424483 15.008851065061663) rotate(0 163.54331975378318 56.82992118062498)"><path d="M0 0 C7.83 -0.31, 30.87 -1.26, 46.97 -1.85 C63.07 -2.44, 79.84 -3.09, 96.6 -3.56 C113.37 -4.03, 132.12 -4.44, 147.56 -4.68 C163.01 -4.91, 177.12 -5.06, 189.26 -4.99 C201.39 -4.92, 211.3 -4.72, 220.37 -4.24 C229.44 -3.76, 238.05 -3.05, 243.68 -2.12 C249.31 -1.18, 250.5 -1.07, 254.14 1.37 C257.79 3.81, 261.06 6.89, 265.58 12.52 C270.1 18.14, 275.69 26.25, 281.27 35.15 C286.86 44.04, 293.39 55.68, 299.09 65.9 C304.79 76.12, 310.8 87.68, 315.47 96.47 C320.13 105.27, 325.15 114.95, 327.09 118.65 M0 0 C7.83 -0.31, 30.87 -1.26, 46.97 -1.85 C63.07 -2.44, 79.84 -3.09, 96.6 -3.56 C113.37 -4.03, 132.12 -4.44, 147.56 -4.68 C163.01 -4.91, 177.12 -5.06, 189.26 -4.99 C201.39 -4.92, 211.3 -4.72, 220.37 -4.24 C229.44 -3.76, 238.05 -3.05, 243.68 -2.12 C249.31 -1.18, 250.5 -1.07, 254.14 1.37 C257.79 3.81, 261.06 6.89, 265.58 12.52 C270.1 18.14, 275.69 26.25, 281.27 35.15 C286.86 44.04, 293.39 55.68, 299.09 65.9 C304.79 76.12, 310.8 87.68, 315.47 96.47 C320.13 105.27, 325.15 114.95, 327.09 118.65" stroke="#E1E1E1" stroke-width="4" fill="none"></path></g></g><mask></mask><g stroke-linecap="round"><g transform="translate(11.554064632478912 53.78918353947074) rotate(0 123.25925102828614 6.706560876353251)"><path d="M0 0 C7.78 -0.37, 27.61 -1.45, 46.68 -2.19 C65.75 -2.93, 93.24 -3.97, 114.43 -4.45 C135.62 -4.94, 157.8 -5.19, 173.79 -5.1 C189.79 -5.01, 201.12 -4.61, 210.41 -3.93 C219.71 -3.26, 224.84 -2.59, 229.56 -1.04 C234.27 0.52, 236.23 2.79, 238.71 5.4 C241.18 8.01, 243.11 12.44, 244.42 14.62 C245.72 16.81, 246.17 17.87, 246.52 18.51 M0 0 C7.78 -0.37, 27.61 -1.45, 46.68 -2.19 C65.75 -2.93, 93.24 -3.97, 114.43 -4.45 C135.62 -4.94, 157.8 -5.19, 173.79 -5.1 C189.79 -5.01, 201.12 -4.61, 210.41 -3.93 C219.71 -3.26, 224.84 -2.59, 229.56 -1.04 C234.27 0.52, 236.23 2.79, 238.71 5.4 C241.18 8.01, 243.11 12.44, 244.42 14.62 C245.72 16.81, 246.17 17.87, 246.52 18.51" stroke="#E1E1E1" stroke-width="4" fill="none"></path></g></g><mask></mask><g stroke-linecap="round"><g transform="translate(10 77.4297684137232) rotate(0 0 18.763077353837843)"><path d="M0 0 C0 6.25, 0 31.27, 0 37.53 M0 0 C0 6.25, 0 31.27, 0 37.53" stroke="#E1E1E1" stroke-width="4" fill="none"></path></g></g><mask></mask><g stroke-linecap="round"><g transform="translate(10.255542737579162 77.30635550440002) rotate(0 164.85017335855537 25.29607914112694)"><path d="M0 0 C11.01 -0.49, 44.05 -2.06, 66.08 -2.93 C88.1 -3.8, 110.07 -4.71, 132.15 -5.23 C154.24 -5.75, 179.52 -6.12, 198.57 -6.04 C217.62 -5.96, 234.34 -5.3, 246.43 -4.73 C258.52 -4.16, 264.33 -3.82, 271.1 -2.63 C277.87 -1.44, 282.21 -0.79, 287.05 2.42 C291.9 5.63, 295.87 11.17, 300.17 16.64 C304.46 22.1, 309.95 30.92, 312.83 35.2 C315.7 39.48, 315.4 39.06, 317.39 42.31 C319.38 45.56, 322.73 52.32, 324.78 54.7 C326.83 57.09, 328.88 56.31, 329.7 56.63 M0 0 C11.01 -0.49, 44.05 -2.06, 66.08 -2.93 C88.1 -3.8, 110.07 -4.71, 132.15 -5.23 C154.24 -5.75, 179.52 -6.12, 198.57 -6.04 C217.62 -5.96, 234.34 -5.3, 246.43 -4.73 C258.52 -4.16, 264.33 -3.82, 271.1 -2.63 C277.87 -1.44, 282.21 -0.79, 287.05 2.42 C291.9 5.63, 295.87 11.17, 300.17 16.64 C304.46 22.1, 309.95 30.92, 312.83 35.2 C315.7 39.48, 315.4 39.06, 317.39 42.31 C319.38 45.56, 322.73 52.32, 324.78 54.7 C326.83 57.09, 328.88 56.31, 329.7 56.63" stroke="#E1E1E1" stroke-width="4" fill="none"></path></g></g><mask></mask><g stroke-linecap="round"><g transform="translate(10.124366800630924 114.9135248653588) rotate(0 174.72522950848997 30.96692867086699)"><path d="M0 0 C9.81 -0.34, 36.89 -1.3, 58.85 -2.02 C80.8 -2.73, 109.23 -3.8, 131.75 -4.27 C154.27 -4.73, 175.9 -5.02, 193.96 -4.81 C212.03 -4.61, 229.06 -3.73, 240.15 -3.05 C251.25 -2.37, 255.71 -2.01, 260.53 -0.73 C265.35 0.54, 266.04 1.16, 269.08 4.61 C272.12 8.07, 275.24 13.59, 278.78 19.99 C282.32 26.39, 287.07 36.65, 290.32 43.01 C293.56 49.38, 295.57 54.44, 298.24 58.18 C300.9 61.91, 302.45 64.02, 306.31 65.45 C310.17 66.87, 315.82 66.85, 321.4 66.75 C326.99 66.64, 335.15 65.48, 339.82 64.83 C344.5 64.19, 347.85 63.2, 349.45 62.87 M0 0 C9.81 -0.34, 36.89 -1.3, 58.85 -2.02 C80.8 -2.73, 109.23 -3.8, 131.75 -4.27 C154.27 -4.73, 175.9 -5.02, 193.96 -4.81 C212.03 -4.61, 229.06 -3.73, 240.15 -3.05 C251.25 -2.37, 255.71 -2.01, 260.53 -0.73 C265.35 0.54, 266.04 1.16, 269.08 4.61 C272.12 8.07, 275.24 13.59, 278.78 19.99 C282.32 26.39, 287.07 36.65, 290.32 43.01 C293.56 49.38, 295.57 54.44, 298.24 58.18 C300.9 61.91, 302.45 64.02, 306.31 65.45 C310.17 66.87, 315.82 66.85, 321.4 66.75 C326.99 66.64, 335.15 65.48, 339.82 64.83 C344.5 64.19, 347.85 63.2, 349.45 62.87" stroke="#E1E1E1" stroke-width="4" fill="none"></path></g></g><mask></mask><g stroke-linecap="round"><g transform="translate(301.00591210218863 159.23271645596515) rotate(0 -144.72638344472261 22.70049112429615)"><path d="M0 0 C-1.88 3.78, -7.88 16.55, -11.27 22.66 C-14.67 28.76, -17.76 33.57, -20.38 36.64 C-23 39.7, -23.45 39.9, -27 41.06 C-30.54 42.21, -35 42.97, -41.65 43.58 C-48.3 44.2, -54.4 44.46, -66.89 44.76 C-79.39 45.06, -100.41 45.4, -116.62 45.4 C-132.84 45.4, -146.2 45.2, -164.18 44.77 C-182.16 44.33, -203.6 43.55, -224.48 42.78 C-245.36 42.01, -278.62 40.59, -289.45 40.15 M0 0 C-1.88 3.78, -7.88 16.55, -11.27 22.66 C-14.67 28.76, -17.76 33.57, -20.38 36.64 C-23 39.7, -23.45 39.9, -27 41.06 C-30.54 42.21, -35 42.97, -41.65 43.58 C-48.3 44.2, -54.4 44.46, -66.89 44.76 C-79.39 45.06, -100.41 45.4, -116.62 45.4 C-132.84 45.4, -146.2 45.2, -164.18 44.77 C-182.16 44.33, -203.6 43.55, -224.48 42.78 C-245.36 42.01, -278.62 40.59, -289.45 40.15" stroke="#E1E1E1" stroke-width="4" fill="none"></path></g></g><mask></mask><g stroke-linecap="round"><g transform="translate(11.554520360397873 199.4307688215763) rotate(0 0 18.988714369134414)"><path d="M0 0 C0 6.33, 0 31.65, 0 37.98 M0 0 C0 6.33, 0 31.65, 0 37.98" stroke="#E1E1E1" stroke-width="4" fill="none"></path></g></g><mask></mask><g stroke-linecap="round"><g transform="translate(11.465135762911814 237.40819755984512) rotate(0 162.8577052577307 -25.27913914123883)"><path d="M0 0 C6.6 0.31, 22.35 1.16, 39.59 1.85 C56.83 2.54, 83.27 3.55, 103.44 4.15 C123.62 4.75, 140.57 5.23, 160.64 5.45 C180.7 5.66, 206.98 5.74, 223.82 5.44 C240.66 5.14, 252.41 4.31, 261.68 3.63 C270.95 2.95, 274.71 2.71, 279.42 1.34 C284.13 -0.03, 285.99 -1.02, 289.93 -4.57 C293.87 -8.13, 297.1 -11.41, 303.06 -19.98 C309.02 -28.55, 321.94 -50, 325.72 -56.01 M0 0 C6.6 0.31, 22.35 1.16, 39.59 1.85 C56.83 2.54, 83.27 3.55, 103.44 4.15 C123.62 4.75, 140.57 5.23, 160.64 5.45 C180.7 5.66, 206.98 5.74, 223.82 5.44 C240.66 5.14, 252.41 4.31, 261.68 3.63 C270.95 2.95, 274.71 2.71, 279.42 1.34 C284.13 -0.03, 285.99 -1.02, 289.93 -4.57 C293.87 -8.13, 297.1 -11.41, 303.06 -19.98 C309.02 -28.55, 321.94 -50, 325.72 -56.01" stroke="#E1E1E1" stroke-width="4" fill="none"></path></g></g><mask></mask><g stroke-linecap="round"><g transform="translate(339.17794824525936 181.25037755885887) rotate(0 -163.75017608493135 62.01103223358814)"><path d="M0 0 C-3.76 7.09, -14.74 28.48, -22.56 42.55 C-30.38 56.62, -40.39 73.9, -46.92 84.39 C-53.45 94.88, -57.48 100.2, -61.73 105.49 C-65.97 110.78, -68.78 113.63, -72.4 116.12 C-76.02 118.61, -76.76 119.33, -83.45 120.43 C-90.15 121.54, -97.89 122.16, -112.57 122.76 C-127.25 123.36, -151.83 124.05, -171.54 124.02 C-191.26 123.99, -204.86 123.62, -230.85 122.58 C-256.84 121.55, -311.39 118.62, -327.5 117.83 M0 0 C-3.76 7.09, -14.74 28.48, -22.56 42.55 C-30.38 56.62, -40.39 73.9, -46.92 84.39 C-53.45 94.88, -57.48 100.2, -61.73 105.49 C-65.97 110.78, -68.78 113.63, -72.4 116.12 C-76.02 118.61, -76.76 119.33, -83.45 120.43 C-90.15 121.54, -97.89 122.16, -112.57 122.76 C-127.25 123.36, -151.83 124.05, -171.54 124.02 C-191.26 123.99, -204.86 123.62, -230.85 122.58 C-256.84 121.55, -311.39 118.62, -327.5 117.83" stroke="#E1E1E1" stroke-width="4" fill="none"></path></g></g><mask></mask><g stroke-linecap="round"><g transform="translate(11.742756423855099 299.01993361384166) rotate(0 0 -18.863892370136)"><path d="M0 0 C0 -6.29, 0 -31.44, 0 -37.73 M0 0 C0 -6.29, 0 -31.44, 0 -37.73" stroke="#E1E1E1" stroke-width="4" fill="none"></path></g></g><mask></mask><g stroke-linecap="round"><g transform="translate(11.843988941485804 261.0888098106848) rotate(0 123.47278888416531 -7.113511770876357)"><path d="M0 0 C10.51 0.51, 36.75 2.25, 63.03 3.06 C89.31 3.87, 134.14 4.69, 157.67 4.85 C181.2 5.01, 192.32 4.58, 204.21 4 C216.09 3.42, 222.88 3.57, 229 1.37 C235.12 -0.83, 237.94 -5.81, 240.93 -9.22 C243.92 -12.63, 245.94 -17.43, 246.95 -19.08 M0 0 C10.51 0.51, 36.75 2.25, 63.03 3.06 C89.31 3.87, 134.14 4.69, 157.67 4.85 C181.2 5.01, 192.32 4.58, 204.21 4 C216.09 3.42, 222.88 3.57, 229 1.37 C235.12 -0.83, 237.94 -5.81, 240.93 -9.22 C243.92 -12.63, 245.94 -17.43, 246.95 -19.08" stroke="#E1E1E1" stroke-width="4" fill="none"></path></g></g><mask></mask><g stroke-linecap="round"><g transform="translate(351.9189167919603 162.60845170917355) rotate(0 15.255753447341249 -4.739099219540776)"><path d="M0 0 C-1.74 -3.5, -8.48 -16.26, -10.46 -21.02 C-12.45 -25.78, -11.96 -26.33, -11.91 -28.58 C-11.86 -30.83, -11.18 -32.76, -10.19 -34.53 C-9.19 -36.3, -7.51 -37.98, -5.93 -39.2 C-4.34 -40.43, -2.62 -41.44, -0.65 -41.87 C1.32 -42.29, 3.64 -42.22, 5.87 -41.78 C8.11 -41.33, 10.77 -40.77, 12.78 -39.17 C14.79 -37.57, 15.95 -35.6, 17.93 -32.19 C19.91 -28.79, 21.82 -24.2, 24.66 -18.73 C27.51 -13.26, 32.03 -4.81, 34.99 0.64 C37.95 6.09, 41.2 10.41, 42.42 13.98 C43.64 17.55, 43.01 19.64, 42.32 22.07 C41.64 24.49, 40.1 26.84, 38.3 28.53 C36.51 30.22, 33.97 31.57, 31.52 32.22 C29.08 32.86, 26.12 32.89, 23.65 32.39 C21.17 31.89, 18.86 31.25, 16.69 29.22 C14.52 27.19, 13.4 25.09, 10.62 20.22 C7.84 15.35, 1.77 3.37, 0 0 M0 0 C-1.74 -3.5, -8.48 -16.26, -10.46 -21.02 C-12.45 -25.78, -11.96 -26.33, -11.91 -28.58 C-11.86 -30.83, -11.18 -32.76, -10.19 -34.53 C-9.19 -36.3, -7.51 -37.98, -5.93 -39.2 C-4.34 -40.43, -2.62 -41.44, -0.65 -41.87 C1.32 -42.29, 3.64 -42.22, 5.87 -41.78 C8.11 -41.33, 10.77 -40.77, 12.78 -39.17 C14.79 -37.57, 15.95 -35.6, 17.93 -32.19 C19.91 -28.79, 21.82 -24.2, 24.66 -18.73 C27.51 -13.26, 32.03 -4.81, 34.99 0.64 C37.95 6.09, 41.2 10.41, 42.42 13.98 C43.64 17.55, 43.01 19.64, 42.32 22.07 C41.64 24.49, 40.1 26.84, 38.3 28.53 C36.51 30.22, 33.97 31.57, 31.52 32.22 C29.08 32.86, 26.12 32.89, 23.65 32.39 C21.17 31.89, 18.86 31.25, 16.69 29.22 C14.52 27.19, 13.4 25.09, 10.62 20.22 C7.84 15.35, 1.77 3.37, 0 0" stroke="#E1E1E1" stroke-width="4" fill="none"></path></g></g><mask></mask><g stroke-linecap="round"><g transform="translate(375.09343950881885 140.73977283607474) rotate(0 27.254758847059747 17.049400509094767)"><path d="M0 0 C0.01 -1.44, -0.67 -5.97, 0.06 -8.62 C0.79 -11.26, 2.47 -13.96, 4.39 -15.86 C6.31 -17.76, 9.01 -19.33, 11.57 -20.02 C14.13 -20.71, 17.25 -20.79, 19.75 -20.02 C22.26 -19.25, 24.58 -17.65, 26.61 -15.4 C28.64 -13.15, 29.27 -11.72, 31.95 -6.52 C34.63 -1.32, 39.25 9.07, 42.68 15.81 C46.12 22.54, 50.59 29.88, 52.56 33.91 C54.53 37.94, 54.42 37.87, 54.51 40 C54.59 42.12, 54.13 44.65, 53.07 46.67 C52.02 48.68, 50.02 50.85, 48.17 52.09 C46.32 53.33, 44.34 53.89, 41.96 54.12 C39.58 54.36, 36.14 54.03, 33.88 53.48 C31.62 52.93, 29.99 52.25, 28.4 50.82 C26.81 49.4, 25.99 47.74, 24.33 44.94 C22.67 42.14, 19.42 35.84, 18.43 34.02 M0 0 C0.01 -1.44, -0.67 -5.97, 0.06 -8.62 C0.79 -11.26, 2.47 -13.96, 4.39 -15.86 C6.31 -17.76, 9.01 -19.33, 11.57 -20.02 C14.13 -20.71, 17.25 -20.79, 19.75 -20.02 C22.26 -19.25, 24.58 -17.65, 26.61 -15.4 C28.64 -13.15, 29.27 -11.72, 31.95 -6.52 C34.63 -1.32, 39.25 9.07, 42.68 15.81 C46.12 22.54, 50.59 29.88, 52.56 33.91 C54.53 37.94, 54.42 37.87, 54.51 40 C54.59 42.12, 54.13 44.65, 53.07 46.67 C52.02 48.68, 50.02 50.85, 48.17 52.09 C46.32 53.33, 44.34 53.89, 41.96 54.12 C39.58 54.36, 36.14 54.03, 33.88 53.48 C31.62 52.93, 29.99 52.25, 28.4 50.82 C26.81 49.4, 25.99 47.74, 24.33 44.94 C22.67 42.14, 19.42 35.84, 18.43 34.02" stroke="#E1E1E1" stroke-width="4" fill="none"></path></g></g><mask></mask><g stroke-linecap="round"><g transform="translate(409.14259927007606 138.06973421377234) rotate(0 27.534914586493414 19.863956555915138)"><path d="M0 0 C0.03 -0.82, -0.3 -3.12, 0.18 -4.95 C0.66 -6.77, 1.52 -9.18, 2.89 -10.96 C4.26 -12.73, 6.31 -14.53, 8.42 -15.6 C10.52 -16.68, 13 -17.46, 15.52 -17.41 C18.03 -17.35, 21.38 -16.33, 23.51 -15.25 C25.64 -14.17, 26.44 -13.67, 28.3 -10.91 C30.17 -8.15, 31.15 -5.25, 34.68 1.32 C38.21 7.9, 46.21 22.48, 49.47 28.53 C52.73 34.58, 53.3 35.44, 54.24 37.63 C55.17 39.82, 55.19 39.89, 55.07 41.68 C54.95 43.48, 54.52 46.34, 53.5 48.4 C52.49 50.46, 50.92 52.6, 48.98 54.05 C47.04 55.51, 44.27 56.7, 41.86 57.13 C39.45 57.57, 36.65 57.21, 34.51 56.65 C32.37 56.1, 30.92 55.67, 29.02 53.79 C27.13 51.91, 24.62 47.7, 23.14 45.39 C21.65 43.08, 20.62 40.83, 20.12 39.92 M0 0 C0.03 -0.82, -0.3 -3.12, 0.18 -4.95 C0.66 -6.77, 1.52 -9.18, 2.89 -10.96 C4.26 -12.73, 6.31 -14.53, 8.42 -15.6 C10.52 -16.68, 13 -17.46, 15.52 -17.41 C18.03 -17.35, 21.38 -16.33, 23.51 -15.25 C25.64 -14.17, 26.44 -13.67, 28.3 -10.91 C30.17 -8.15, 31.15 -5.25, 34.68 1.32 C38.21 7.9, 46.21 22.48, 49.47 28.53 C52.73 34.58, 53.3 35.44, 54.24 37.63 C55.17 39.82, 55.19 39.89, 55.07 41.68 C54.95 43.48, 54.52 46.34, 53.5 48.4 C52.49 50.46, 50.92 52.6, 48.98 54.05 C47.04 55.51, 44.27 56.7, 41.86 57.13 C39.45 57.57, 36.65 57.21, 34.51 56.65 C32.37 56.1, 30.92 55.67, 29.02 53.79 C27.13 51.91, 24.62 47.7, 23.14 45.39 C21.65 43.08, 20.62 40.83, 20.12 39.92" stroke="#E1E1E1" stroke-width="4" fill="none"></path></g></g><mask></mask><g stroke-linecap="round"><g transform="translate(444.2559513321048 139.938956213869) rotate(0 27.240276643060497 17.684741024642562)"><path d="M0 0 C0.03 -1.15, -0.33 -4.73, 0.19 -6.91 C0.71 -9.1, 1.54 -11.27, 3.1 -13.13 C4.67 -14.99, 7.22 -17.03, 9.56 -18.07 C11.89 -19.11, 14.78 -19.47, 17.11 -19.39 C19.44 -19.3, 21.67 -18.64, 23.54 -17.56 C25.4 -16.47, 26.42 -15.71, 28.27 -12.88 C30.13 -10.05, 32 -5.56, 34.65 -0.6 C37.29 4.37, 41.16 11.42, 44.14 16.89 C47.11 22.37, 50.78 28.86, 52.5 32.26 C54.22 35.65, 54.16 35.29, 54.48 37.25 C54.8 39.22, 55.11 41.8, 54.44 44.04 C53.78 46.28, 52.33 48.91, 50.49 50.69 C48.65 52.48, 45.94 54.14, 43.4 54.76 C40.86 55.37, 37.7 55.01, 35.24 54.4 C32.79 53.79, 30.55 52.87, 28.66 51.1 C26.76 49.33, 25.38 46.15, 23.85 43.78 C22.32 41.4, 20.22 37.99, 19.5 36.84 M0 0 C0.03 -1.15, -0.33 -4.73, 0.19 -6.91 C0.71 -9.1, 1.54 -11.27, 3.1 -13.13 C4.67 -14.99, 7.22 -17.03, 9.56 -18.07 C11.89 -19.11, 14.78 -19.47, 17.11 -19.39 C19.44 -19.3, 21.67 -18.64, 23.54 -17.56 C25.4 -16.47, 26.42 -15.71, 28.27 -12.88 C30.13 -10.05, 32 -5.56, 34.65 -0.6 C37.29 4.37, 41.16 11.42, 44.14 16.89 C47.11 22.37, 50.78 28.86, 52.5 32.26 C54.22 35.65, 54.16 35.29, 54.48 37.25 C54.8 39.22, 55.11 41.8, 54.44 44.04 C53.78 46.28, 52.33 48.91, 50.49 50.69 C48.65 52.48, 45.94 54.14, 43.4 54.76 C40.86 55.37, 37.7 55.01, 35.24 54.4 C32.79 53.79, 30.55 52.87, 28.66 51.1 C26.76 49.33, 25.38 46.15, 23.85 43.78 C22.32 41.4, 20.22 37.99, 19.5 36.84" stroke="#E1E1E1" stroke-width="4" fill="none"></path></g></g><mask></mask><g stroke-linecap="round"><g transform="translate(479.01389858963466 138.9978771424826) rotate(0 102.39122174005024 0)"><path d="M0 0 C23.3 0, 105.7 0, 139.83 0 C173.96 0, 193.96 0, 204.78 0 M0 0 C23.3 0, 105.7 0, 139.83 0 C173.96 0, 193.96 0, 204.78 0" stroke="#E1E1E1" stroke-width="4" fill="none"></path></g></g><mask></mask><g stroke-linecap="round"><g transform="translate(498.85008962695156 176.87592632909718) rotate(0 92.59852155470026 0)"><path d="M0 0 C30.87 0, 154.33 0, 185.2 0 M0 0 C30.87 0, 154.33 0, 185.2 0" stroke="#E1E1E1" stroke-width="4" fill="none"></path></g></g><mask></mask><g stroke-linecap="round"><g transform="translate(684.0050598780099 176.9757794767952) rotate(0 0 11.506290287203228)"><path d="M0 0 C0 3.84, 0 19.18, 0 23.01 M0 0 C0 3.84, 0 19.18, 0 23.01" stroke="#E1E1E1" stroke-width="4" fill="none"></path></g></g><mask></mask><g stroke-linecap="round"><g transform="translate(684.016011435504 138.9722236805178) rotate(0 0 -11.600174832031144)"><path d="M0 0 C0 -3.87, 0 -19.33, 0 -23.2 M0 0 C0 -3.87, 0 -19.33, 0 -23.2" stroke="#E1E1E1" stroke-width="4" fill="none"></path></g></g><mask></mask><g stroke-linecap="round"><g transform="translate(684.2022798008529 115.65500824528499) rotate(0 37.381990927938205 21.064960696140815)"><path d="M0 0 C12.46 7.02, 62.3 35.11, 74.76 42.13 M0 0 C12.46 7.02, 62.3 35.11, 74.76 42.13" stroke="#E1E1E1" stroke-width="4" fill="none"></path></g></g><mask></mask><g stroke-linecap="round"><g transform="translate(684.0555289304311 200.06166777176304) rotate(0 37.416865319160024 -21.084612610395652)"><path d="M0 0 C12.47 -7.03, 62.36 -35.14, 74.83 -42.17 M0 0 C12.47 -7.03, 62.36 -35.14, 74.83 -42.17" stroke="#E1E1E1" stroke-width="4" fill="none"></path></g></g><mask></mask></svg>