<svg version="1.1" xmlns="http://www.w3.org/2000/svg" viewBox="0 0 1020.0569461551286 1020.0569461551286" width="1020.0569461551286" height="1020.0569461551286" class="excalidraw-svg"><!-- svg-source:excalidraw --><metadata></metadata><defs><style class="style-fonts">
      </style></defs><rect x="0" y="0" width="1020.0569461551286" height="1020.0569461551286" fill="#000000"></rect><g stroke-linecap="round" transform="translate(343.9629314722156 344.16145854824936) rotate(0 166.2996334604593 166.2996334604593)"><path d="M332.6 166.3 C332.6 170.44, 332.44 174.6, 332.13 178.73 C331.82 182.86, 331.36 186.99, 330.74 191.09 C330.12 195.18, 329.35 199.27, 328.43 203.3 C327.51 207.34, 326.43 211.36, 325.21 215.32 C323.99 219.28, 322.62 223.2, 321.1 227.06 C319.59 230.91, 317.93 234.72, 316.13 238.45 C314.33 242.19, 312.39 245.86, 310.32 249.45 C308.25 253.04, 306.04 256.56, 303.7 259.98 C301.37 263.4, 298.9 266.75, 296.32 269.99 C293.74 273.22, 291.02 276.38, 288.21 279.41 C285.39 282.45, 282.45 285.39, 279.41 288.21 C276.38 291.02, 273.22 293.74, 269.99 296.32 C266.75 298.9, 263.4 301.37, 259.98 303.7 C256.56 306.04, 253.04 308.25, 249.45 310.32 C245.86 312.39, 242.19 314.33, 238.45 316.13 C234.72 317.93, 230.91 319.59, 227.06 321.1 C223.2 322.62, 219.28 323.99, 215.32 325.21 C211.36 326.43, 207.34 327.51, 203.3 328.43 C199.27 329.35, 195.18 330.12, 191.09 330.74 C186.99 331.36, 182.86 331.82, 178.73 332.13 C174.6 332.44, 170.44 332.6, 166.3 332.6 C162.16 332.6, 158 332.44, 153.87 332.13 C149.74 331.82, 145.61 331.36, 141.51 330.74 C137.42 330.12, 133.33 329.35, 129.29 328.43 C125.26 327.51, 121.24 326.43, 117.28 325.21 C113.32 323.99, 109.4 322.62, 105.54 321.1 C101.69 319.59, 97.88 317.93, 94.14 316.13 C90.41 314.33, 86.74 312.39, 83.15 310.32 C79.56 308.25, 76.04 306.04, 72.62 303.7 C69.2 301.37, 65.85 298.9, 62.61 296.32 C59.37 293.74, 56.22 291.02, 53.19 288.21 C50.15 285.39, 47.21 282.45, 44.39 279.41 C41.58 276.38, 38.86 273.22, 36.28 269.99 C33.7 266.75, 31.23 263.4, 28.9 259.98 C26.56 256.56, 24.35 253.04, 22.28 249.45 C20.21 245.86, 18.27 242.19, 16.47 238.45 C14.67 234.72, 13.01 230.91, 11.5 227.06 C9.98 223.2, 8.61 219.28, 7.39 215.32 C6.17 211.36, 5.09 207.34, 4.17 203.3 C3.25 199.27, 2.47 195.18, 1.86 191.09 C1.24 186.99, 0.77 182.86, 0.47 178.73 C0.16 174.6, 0 170.44, 0 166.3 C0 162.16, 0.16 158, 0.47 153.87 C0.77 149.74, 1.24 145.61, 1.86 141.51 C2.47 137.42, 3.25 133.33, 4.17 129.29 C5.09 125.26, 6.17 121.24, 7.39 117.28 C8.61 113.32, 9.98 109.4, 11.5 105.54 C13.01 101.69, 14.67 97.88, 16.47 94.14 C18.27 90.41, 20.21 86.74, 22.28 83.15 C24.35 79.56, 26.56 76.04, 28.9 72.62 C31.23 69.2, 33.7 65.85, 36.28 62.61 C38.86 59.37, 41.58 56.22, 44.39 53.19 C47.21 50.15, 50.15 47.21, 53.19 44.39 C56.22 41.58, 59.37 38.86, 62.61 36.28 C65.85 33.7, 69.2 31.23, 72.62 28.9 C76.04 26.56, 79.56 24.35, 83.15 22.28 C86.74 20.21, 90.41 18.27, 94.14 16.47 C97.88 14.67, 101.69 13.01, 105.54 11.5 C109.4 9.98, 113.32 8.61, 117.28 7.39 C121.24 6.17, 125.26 5.09, 129.29 4.17 C133.33 3.25, 137.42 2.47, 141.51 1.86 C145.61 1.24, 149.74 0.77, 153.87 0.47 C158 0.16, 162.16 0, 166.3 0 C170.44 0, 174.6 0.16, 178.73 0.47 C182.86 0.77, 186.99 1.24, 191.09 1.86 C195.18 2.47, 199.27 3.25, 203.3 4.17 C207.34 5.09, 211.36 6.17, 215.32 7.39 C219.28 8.61, 223.2 9.98, 227.06 11.5 C230.91 13.01, 234.72 14.67, 238.45 16.47 C242.19 18.27, 245.86 20.21, 249.45 22.28 C253.04 24.35, 256.56 26.56, 259.98 28.9 C263.4 31.23, 266.75 33.7, 269.99 36.28 C273.22 38.86, 276.38 41.58, 279.41 44.39 C282.45 47.21, 285.39 50.15, 288.21 53.19 C291.02 56.22, 293.74 59.37, 296.32 62.61 C298.9 65.85, 301.37 69.2, 303.7 72.62 C306.04 76.04, 308.25 79.56, 310.32 83.15 C312.39 86.74, 314.33 90.41, 316.13 94.14 C317.93 97.88, 319.59 101.69, 321.1 105.54 C322.62 109.4, 323.99 113.32, 325.21 117.28 C326.43 121.24, 327.51 125.26, 328.43 129.29 C329.35 133.33, 330.12 137.42, 330.74 141.51 C331.36 145.61, 331.82 149.74, 332.13 153.87 C332.44 158, 332.6 162.16, 332.6 166.3" stroke="#E1E1E1" stroke-width="4" fill="none"></path></g><g stroke-linecap="round" transform="translate(344.2970900077321 177.97589457372624) rotate(0 166.2996334604593 166.2996334604593)"><path d="M332.6 166.3 C332.6 170.44, 332.44 174.6, 332.13 178.73 C331.82 182.86, 331.36 186.99, 330.74 191.09 C330.12 195.18, 329.35 199.27, 328.43 203.3 C327.51 207.34, 326.43 211.36, 325.21 215.32 C323.99 219.28, 322.62 223.2, 321.1 227.06 C319.59 230.91, 317.93 234.72, 316.13 238.45 C314.33 242.19, 312.39 245.86, 310.32 249.45 C308.25 253.04, 306.04 256.56, 303.7 259.98 C301.37 263.4, 298.9 266.75, 296.32 269.99 C293.74 273.22, 291.02 276.38, 288.21 279.41 C285.39 282.45, 282.45 285.39, 279.41 288.21 C276.38 291.02, 273.22 293.74, 269.99 296.32 C266.75 298.9, 263.4 301.37, 259.98 303.7 C256.56 306.04, 253.04 308.25, 249.45 310.32 C245.86 312.39, 242.19 314.33, 238.45 316.13 C234.72 317.93, 230.91 319.59, 227.06 321.1 C223.2 322.62, 219.28 323.99, 215.32 325.21 C211.36 326.43, 207.34 327.51, 203.3 328.43 C199.27 329.35, 195.18 330.12, 191.09 330.74 C186.99 331.36, 182.86 331.82, 178.73 332.13 C174.6 332.44, 170.44 332.6, 166.3 332.6 C162.16 332.6, 158 332.44, 153.87 332.13 C149.74 331.82, 145.61 331.36, 141.51 330.74 C137.42 330.12, 133.33 329.35, 129.29 328.43 C125.26 327.51, 121.24 326.43, 117.28 325.21 C113.32 323.99, 109.4 322.62, 105.54 321.1 C101.69 319.59, 97.88 317.93, 94.14 316.13 C90.41 314.33, 86.74 312.39, 83.15 310.32 C79.56 308.25, 76.04 306.04, 72.62 303.7 C69.2 301.37, 65.85 298.9, 62.61 296.32 C59.37 293.74, 56.22 291.02, 53.19 288.21 C50.15 285.39, 47.21 282.45, 44.39 279.41 C41.58 276.38, 38.86 273.22, 36.28 269.99 C33.7 266.75, 31.23 263.4, 28.9 259.98 C26.56 256.56, 24.35 253.04, 22.28 249.45 C20.21 245.86, 18.27 242.19, 16.47 238.45 C14.67 234.72, 13.01 230.91, 11.5 227.06 C9.98 223.2, 8.61 219.28, 7.39 215.32 C6.17 211.36, 5.09 207.34, 4.17 203.3 C3.25 199.27, 2.47 195.18, 1.86 191.09 C1.24 186.99, 0.77 182.86, 0.47 178.73 C0.16 174.6, 0 170.44, 0 166.3 C0 162.16, 0.16 158, 0.47 153.87 C0.77 149.74, 1.24 145.61, 1.86 141.51 C2.47 137.42, 3.25 133.33, 4.17 129.29 C5.09 125.26, 6.17 121.24, 7.39 117.28 C8.61 113.32, 9.98 109.4, 11.5 105.54 C13.01 101.69, 14.67 97.88, 16.47 94.14 C18.27 90.41, 20.21 86.74, 22.28 83.15 C24.35 79.56, 26.56 76.04, 28.9 72.62 C31.23 69.2, 33.7 65.85, 36.28 62.61 C38.86 59.37, 41.58 56.22, 44.39 53.19 C47.21 50.15, 50.15 47.21, 53.19 44.39 C56.22 41.58, 59.37 38.86, 62.61 36.28 C65.85 33.7, 69.2 31.23, 72.62 28.9 C76.04 26.56, 79.56 24.35, 83.15 22.28 C86.74 20.21, 90.41 18.27, 94.14 16.47 C97.88 14.67, 101.69 13.01, 105.54 11.5 C109.4 9.98, 113.32 8.61, 117.28 7.39 C121.24 6.17, 125.26 5.09, 129.29 4.17 C133.33 3.25, 137.42 2.47, 141.51 1.86 C145.61 1.24, 149.74 0.77, 153.87 0.47 C158 0.16, 162.16 0, 166.3 0 C170.44 0, 174.6 0.16, 178.73 0.47 C182.86 0.77, 186.99 1.24, 191.09 1.86 C195.18 2.47, 199.27 3.25, 203.3 4.17 C207.34 5.09, 211.36 6.17, 215.32 7.39 C219.28 8.61, 223.2 9.98, 227.06 11.5 C230.91 13.01, 234.72 14.67, 238.45 16.47 C242.19 18.27, 245.86 20.21, 249.45 22.28 C253.04 24.35, 256.56 26.56, 259.98 28.9 C263.4 31.23, 266.75 33.7, 269.99 36.28 C273.22 38.86, 276.38 41.58, 279.41 44.39 C282.45 47.21, 285.39 50.15, 288.21 53.19 C291.02 56.22, 293.74 59.37, 296.32 62.61 C298.9 65.85, 301.37 69.2, 303.7 72.62 C306.04 76.04, 308.25 79.56, 310.32 83.15 C312.39 86.74, 314.33 90.41, 316.13 94.14 C317.93 97.88, 319.59 101.69, 321.1 105.54 C322.62 109.4, 323.99 113.32, 325.21 117.28 C326.43 121.24, 327.51 125.26, 328.43 129.29 C329.35 133.33, 330.12 137.42, 330.74 141.51 C331.36 145.61, 331.82 149.74, 332.13 153.87 C332.44 158, 332.6 162.16, 332.6 166.3" stroke="#E1E1E1" stroke-width="4" fill="none"></path></g><g stroke-linecap="round" transform="translate(489.6085846418496 261.1385595681445) rotate(0 166.2996334604593 166.2996334604593)"><path d="M332.6 166.3 C332.6 170.44, 332.44 174.6, 332.13 178.73 C331.82 182.86, 331.36 186.99, 330.74 191.09 C330.12 195.18, 329.35 199.27, 328.43 203.3 C327.51 207.34, 326.43 211.36, 325.21 215.32 C323.99 219.28, 322.62 223.2, 321.1 227.06 C319.59 230.91, 317.93 234.72, 316.13 238.45 C314.33 242.19, 312.39 245.86, 310.32 249.45 C308.25 253.04, 306.04 256.56, 303.7 259.98 C301.37 263.4, 298.9 266.75, 296.32 269.99 C293.74 273.22, 291.02 276.38, 288.21 279.41 C285.39 282.45, 282.45 285.39, 279.41 288.21 C276.38 291.02, 273.22 293.74, 269.99 296.32 C266.75 298.9, 263.4 301.37, 259.98 303.7 C256.56 306.04, 253.04 308.25, 249.45 310.32 C245.86 312.39, 242.19 314.33, 238.45 316.13 C234.72 317.93, 230.91 319.59, 227.06 321.1 C223.2 322.62, 219.28 323.99, 215.32 325.21 C211.36 326.43, 207.34 327.51, 203.3 328.43 C199.27 329.35, 195.18 330.12, 191.09 330.74 C186.99 331.36, 182.86 331.82, 178.73 332.13 C174.6 332.44, 170.44 332.6, 166.3 332.6 C162.16 332.6, 158 332.44, 153.87 332.13 C149.74 331.82, 145.61 331.36, 141.51 330.74 C137.42 330.12, 133.33 329.35, 129.29 328.43 C125.26 327.51, 121.24 326.43, 117.28 325.21 C113.32 323.99, 109.4 322.62, 105.54 321.1 C101.69 319.59, 97.88 317.93, 94.14 316.13 C90.41 314.33, 86.74 312.39, 83.15 310.32 C79.56 308.25, 76.04 306.04, 72.62 303.7 C69.2 301.37, 65.85 298.9, 62.61 296.32 C59.37 293.74, 56.22 291.02, 53.19 288.21 C50.15 285.39, 47.21 282.45, 44.39 279.41 C41.58 276.38, 38.86 273.22, 36.28 269.99 C33.7 266.75, 31.23 263.4, 28.9 259.98 C26.56 256.56, 24.35 253.04, 22.28 249.45 C20.21 245.86, 18.27 242.19, 16.47 238.45 C14.67 234.72, 13.01 230.91, 11.5 227.06 C9.98 223.2, 8.61 219.28, 7.39 215.32 C6.17 211.36, 5.09 207.34, 4.17 203.3 C3.25 199.27, 2.47 195.18, 1.86 191.09 C1.24 186.99, 0.77 182.86, 0.47 178.73 C0.16 174.6, 0 170.44, 0 166.3 C0 162.16, 0.16 158, 0.47 153.87 C0.77 149.74, 1.24 145.61, 1.86 141.51 C2.47 137.42, 3.25 133.33, 4.17 129.29 C5.09 125.26, 6.17 121.24, 7.39 117.28 C8.61 113.32, 9.98 109.4, 11.5 105.54 C13.01 101.69, 14.67 97.88, 16.47 94.14 C18.27 90.41, 20.21 86.74, 22.28 83.15 C24.35 79.56, 26.56 76.04, 28.9 72.62 C31.23 69.2, 33.7 65.85, 36.28 62.61 C38.86 59.37, 41.58 56.22, 44.39 53.19 C47.21 50.15, 50.15 47.21, 53.19 44.39 C56.22 41.58, 59.37 38.86, 62.61 36.28 C65.85 33.7, 69.2 31.23, 72.62 28.9 C76.04 26.56, 79.56 24.35, 83.15 22.28 C86.74 20.21, 90.41 18.27, 94.14 16.47 C97.88 14.67, 101.69 13.01, 105.54 11.5 C109.4 9.98, 113.32 8.61, 117.28 7.39 C121.24 6.17, 125.26 5.09, 129.29 4.17 C133.33 3.25, 137.42 2.47, 141.51 1.86 C145.61 1.24, 149.74 0.77, 153.87 0.47 C158 0.16, 162.16 0, 166.3 0 C170.44 0, 174.6 0.16, 178.73 0.47 C182.86 0.77, 186.99 1.24, 191.09 1.86 C195.18 2.47, 199.27 3.25, 203.3 4.17 C207.34 5.09, 211.36 6.17, 215.32 7.39 C219.28 8.61, 223.2 9.98, 227.06 11.5 C230.91 13.01, 234.72 14.67, 238.45 16.47 C242.19 18.27, 245.86 20.21, 249.45 22.28 C253.04 24.35, 256.56 26.56, 259.98 28.9 C263.4 31.23, 266.75 33.7, 269.99 36.28 C273.22 38.86, 276.38 41.58, 279.41 44.39 C282.45 47.21, 285.39 50.15, 288.21 53.19 C291.02 56.22, 293.74 59.37, 296.32 62.61 C298.9 65.85, 301.37 69.2, 303.7 72.62 C306.04 76.04, 308.25 79.56, 310.32 83.15 C312.39 86.74, 314.33 90.41, 316.13 94.14 C317.93 97.88, 319.59 101.69, 321.1 105.54 C322.62 109.4, 323.99 113.32, 325.21 117.28 C326.43 121.24, 327.51 125.26, 328.43 129.29 C329.35 133.33, 330.12 137.42, 330.74 141.51 C331.36 145.61, 331.82 149.74, 332.13 153.87 C332.44 158, 332.6 162.16, 332.6 166.3" stroke="#E1E1E1" stroke-width="4" fill="none"></path></g><g stroke-linecap="round" transform="translate(489.5877048887205 426.64776445483494) rotate(0 166.2996334604593 166.2996334604593)"><path d="M332.6 166.3 C332.6 170.44, 332.44 174.6, 332.13 178.73 C331.82 182.86, 331.36 186.99, 330.74 191.09 C330.12 195.18, 329.35 199.27, 328.43 203.3 C327.51 207.34, 326.43 211.36, 325.21 215.32 C323.99 219.28, 322.62 223.2, 321.1 227.06 C319.59 230.91, 317.93 234.72, 316.13 238.45 C314.33 242.19, 312.39 245.86, 310.32 249.45 C308.25 253.04, 306.04 256.56, 303.7 259.98 C301.37 263.4, 298.9 266.75, 296.32 269.99 C293.74 273.22, 291.02 276.38, 288.21 279.41 C285.39 282.45, 282.45 285.39, 279.41 288.21 C276.38 291.02, 273.22 293.74, 269.99 296.32 C266.75 298.9, 263.4 301.37, 259.98 303.7 C256.56 306.04, 253.04 308.25, 249.45 310.32 C245.86 312.39, 242.19 314.33, 238.45 316.13 C234.72 317.93, 230.91 319.59, 227.06 321.1 C223.2 322.62, 219.28 323.99, 215.32 325.21 C211.36 326.43, 207.34 327.51, 203.3 328.43 C199.27 329.35, 195.18 330.12, 191.09 330.74 C186.99 331.36, 182.86 331.82, 178.73 332.13 C174.6 332.44, 170.44 332.6, 166.3 332.6 C162.16 332.6, 158 332.44, 153.87 332.13 C149.74 331.82, 145.61 331.36, 141.51 330.74 C137.42 330.12, 133.33 329.35, 129.29 328.43 C125.26 327.51, 121.24 326.43, 117.28 325.21 C113.32 323.99, 109.4 322.62, 105.54 321.1 C101.69 319.59, 97.88 317.93, 94.14 316.13 C90.41 314.33, 86.74 312.39, 83.15 310.32 C79.56 308.25, 76.04 306.04, 72.62 303.7 C69.2 301.37, 65.85 298.9, 62.61 296.32 C59.37 293.74, 56.22 291.02, 53.19 288.21 C50.15 285.39, 47.21 282.45, 44.39 279.41 C41.58 276.38, 38.86 273.22, 36.28 269.99 C33.7 266.75, 31.23 263.4, 28.9 259.98 C26.56 256.56, 24.35 253.04, 22.28 249.45 C20.21 245.86, 18.27 242.19, 16.47 238.45 C14.67 234.72, 13.01 230.91, 11.5 227.06 C9.98 223.2, 8.61 219.28, 7.39 215.32 C6.17 211.36, 5.09 207.34, 4.17 203.3 C3.25 199.27, 2.47 195.18, 1.86 191.09 C1.24 186.99, 0.77 182.86, 0.47 178.73 C0.16 174.6, 0 170.44, 0 166.3 C0 162.16, 0.16 158, 0.47 153.87 C0.77 149.74, 1.24 145.61, 1.86 141.51 C2.47 137.42, 3.25 133.33, 4.17 129.29 C5.09 125.26, 6.17 121.24, 7.39 117.28 C8.61 113.32, 9.98 109.4, 11.5 105.54 C13.01 101.69, 14.67 97.88, 16.47 94.14 C18.27 90.41, 20.21 86.74, 22.28 83.15 C24.35 79.56, 26.56 76.04, 28.9 72.62 C31.23 69.2, 33.7 65.85, 36.28 62.61 C38.86 59.37, 41.58 56.22, 44.39 53.19 C47.21 50.15, 50.15 47.21, 53.19 44.39 C56.22 41.58, 59.37 38.86, 62.61 36.28 C65.85 33.7, 69.2 31.23, 72.62 28.9 C76.04 26.56, 79.56 24.35, 83.15 22.28 C86.74 20.21, 90.41 18.27, 94.14 16.47 C97.88 14.67, 101.69 13.01, 105.54 11.5 C109.4 9.98, 113.32 8.61, 117.28 7.39 C121.24 6.17, 125.26 5.09, 129.29 4.17 C133.33 3.25, 137.42 2.47, 141.51 1.86 C145.61 1.24, 149.74 0.77, 153.87 0.47 C158 0.16, 162.16 0, 166.3 0 C170.44 0, 174.6 0.16, 178.73 0.47 C182.86 0.77, 186.99 1.24, 191.09 1.86 C195.18 2.47, 199.27 3.25, 203.3 4.17 C207.34 5.09, 211.36 6.17, 215.32 7.39 C219.28 8.61, 223.2 9.98, 227.06 11.5 C230.91 13.01, 234.72 14.67, 238.45 16.47 C242.19 18.27, 245.86 20.21, 249.45 22.28 C253.04 24.35, 256.56 26.56, 259.98 28.9 C263.4 31.23, 266.75 33.7, 269.99 36.28 C273.22 38.86, 276.38 41.58, 279.41 44.39 C282.45 47.21, 285.39 50.15, 288.21 53.19 C291.02 56.22, 293.74 59.37, 296.32 62.61 C298.9 65.85, 301.37 69.2, 303.7 72.62 C306.04 76.04, 308.25 79.56, 310.32 83.15 C312.39 86.74, 314.33 90.41, 316.13 94.14 C317.93 97.88, 319.59 101.69, 321.1 105.54 C322.62 109.4, 323.99 113.32, 325.21 117.28 C326.43 121.24, 327.51 125.26, 328.43 129.29 C329.35 133.33, 330.12 137.42, 330.74 141.51 C331.36 145.61, 331.82 149.74, 332.13 153.87 C332.44 158, 332.6 162.16, 332.6 166.3" stroke="#E1E1E1" stroke-width="4" fill="none"></path></g><g stroke-linecap="round" transform="translate(344.1580750003918 511.6455036434272) rotate(0 166.2996334604593 166.2996334604593)"><path d="M332.6 166.3 C332.6 170.44, 332.44 174.6, 332.13 178.73 C331.82 182.86, 331.36 186.99, 330.74 191.09 C330.12 195.18, 329.35 199.27, 328.43 203.3 C327.51 207.34, 326.43 211.36, 325.21 215.32 C323.99 219.28, 322.62 223.2, 321.1 227.06 C319.59 230.91, 317.93 234.72, 316.13 238.45 C314.33 242.19, 312.39 245.86, 310.32 249.45 C308.25 253.04, 306.04 256.56, 303.7 259.98 C301.37 263.4, 298.9 266.75, 296.32 269.99 C293.74 273.22, 291.02 276.38, 288.21 279.41 C285.39 282.45, 282.45 285.39, 279.41 288.21 C276.38 291.02, 273.22 293.74, 269.99 296.32 C266.75 298.9, 263.4 301.37, 259.98 303.7 C256.56 306.04, 253.04 308.25, 249.45 310.32 C245.86 312.39, 242.19 314.33, 238.45 316.13 C234.72 317.93, 230.91 319.59, 227.06 321.1 C223.2 322.62, 219.28 323.99, 215.32 325.21 C211.36 326.43, 207.34 327.51, 203.3 328.43 C199.27 329.35, 195.18 330.12, 191.09 330.74 C186.99 331.36, 182.86 331.82, 178.73 332.13 C174.6 332.44, 170.44 332.6, 166.3 332.6 C162.16 332.6, 158 332.44, 153.87 332.13 C149.74 331.82, 145.61 331.36, 141.51 330.74 C137.42 330.12, 133.33 329.35, 129.29 328.43 C125.26 327.51, 121.24 326.43, 117.28 325.21 C113.32 323.99, 109.4 322.62, 105.54 321.1 C101.69 319.59, 97.88 317.93, 94.14 316.13 C90.41 314.33, 86.74 312.39, 83.15 310.32 C79.56 308.25, 76.04 306.04, 72.62 303.7 C69.2 301.37, 65.85 298.9, 62.61 296.32 C59.37 293.74, 56.22 291.02, 53.19 288.21 C50.15 285.39, 47.21 282.45, 44.39 279.41 C41.58 276.38, 38.86 273.22, 36.28 269.99 C33.7 266.75, 31.23 263.4, 28.9 259.98 C26.56 256.56, 24.35 253.04, 22.28 249.45 C20.21 245.86, 18.27 242.19, 16.47 238.45 C14.67 234.72, 13.01 230.91, 11.5 227.06 C9.98 223.2, 8.61 219.28, 7.39 215.32 C6.17 211.36, 5.09 207.34, 4.17 203.3 C3.25 199.27, 2.47 195.18, 1.86 191.09 C1.24 186.99, 0.77 182.86, 0.47 178.73 C0.16 174.6, 0 170.44, 0 166.3 C0 162.16, 0.16 158, 0.47 153.87 C0.77 149.74, 1.24 145.61, 1.86 141.51 C2.47 137.42, 3.25 133.33, 4.17 129.29 C5.09 125.26, 6.17 121.24, 7.39 117.28 C8.61 113.32, 9.98 109.4, 11.5 105.54 C13.01 101.69, 14.67 97.88, 16.47 94.14 C18.27 90.41, 20.21 86.74, 22.28 83.15 C24.35 79.56, 26.56 76.04, 28.9 72.62 C31.23 69.2, 33.7 65.85, 36.28 62.61 C38.86 59.37, 41.58 56.22, 44.39 53.19 C47.21 50.15, 50.15 47.21, 53.19 44.39 C56.22 41.58, 59.37 38.86, 62.61 36.28 C65.85 33.7, 69.2 31.23, 72.62 28.9 C76.04 26.56, 79.56 24.35, 83.15 22.28 C86.74 20.21, 90.41 18.27, 94.14 16.47 C97.88 14.67, 101.69 13.01, 105.54 11.5 C109.4 9.98, 113.32 8.61, 117.28 7.39 C121.24 6.17, 125.26 5.09, 129.29 4.17 C133.33 3.25, 137.42 2.47, 141.51 1.86 C145.61 1.24, 149.74 0.77, 153.87 0.47 C158 0.16, 162.16 0, 166.3 0 C170.44 0, 174.6 0.16, 178.73 0.47 C182.86 0.77, 186.99 1.24, 191.09 1.86 C195.18 2.47, 199.27 3.25, 203.3 4.17 C207.34 5.09, 211.36 6.17, 215.32 7.39 C219.28 8.61, 223.2 9.98, 227.06 11.5 C230.91 13.01, 234.72 14.67, 238.45 16.47 C242.19 18.27, 245.86 20.21, 249.45 22.28 C253.04 24.35, 256.56 26.56, 259.98 28.9 C263.4 31.23, 266.75 33.7, 269.99 36.28 C273.22 38.86, 276.38 41.58, 279.41 44.39 C282.45 47.21, 285.39 50.15, 288.21 53.19 C291.02 56.22, 293.74 59.37, 296.32 62.61 C298.9 65.85, 301.37 69.2, 303.7 72.62 C306.04 76.04, 308.25 79.56, 310.32 83.15 C312.39 86.74, 314.33 90.41, 316.13 94.14 C317.93 97.88, 319.59 101.69, 321.1 105.54 C322.62 109.4, 323.99 113.32, 325.21 117.28 C326.43 121.24, 327.51 125.26, 328.43 129.29 C329.35 133.33, 330.12 137.42, 330.74 141.51 C331.36 145.61, 331.82 149.74, 332.13 153.87 C332.44 158, 332.6 162.16, 332.6 166.3" stroke="#E1E1E1" stroke-width="4" fill="none"></path></g><g stroke-linecap="round" transform="translate(198.18758113904323 428.2510398034292) rotate(0 166.2996334604593 166.2996334604593)"><path d="M332.6 166.3 C332.6 170.44, 332.44 174.6, 332.13 178.73 C331.82 182.86, 331.36 186.99, 330.74 191.09 C330.12 195.18, 329.35 199.27, 328.43 203.3 C327.51 207.34, 326.43 211.36, 325.21 215.32 C323.99 219.28, 322.62 223.2, 321.1 227.06 C319.59 230.91, 317.93 234.72, 316.13 238.45 C314.33 242.19, 312.39 245.86, 310.32 249.45 C308.25 253.04, 306.04 256.56, 303.7 259.98 C301.37 263.4, 298.9 266.75, 296.32 269.99 C293.74 273.22, 291.02 276.38, 288.21 279.41 C285.39 282.45, 282.45 285.39, 279.41 288.21 C276.38 291.02, 273.22 293.74, 269.99 296.32 C266.75 298.9, 263.4 301.37, 259.98 303.7 C256.56 306.04, 253.04 308.25, 249.45 310.32 C245.86 312.39, 242.19 314.33, 238.45 316.13 C234.72 317.93, 230.91 319.59, 227.06 321.1 C223.2 322.62, 219.28 323.99, 215.32 325.21 C211.36 326.43, 207.34 327.51, 203.3 328.43 C199.27 329.35, 195.18 330.12, 191.09 330.74 C186.99 331.36, 182.86 331.82, 178.73 332.13 C174.6 332.44, 170.44 332.6, 166.3 332.6 C162.16 332.6, 158 332.44, 153.87 332.13 C149.74 331.82, 145.61 331.36, 141.51 330.74 C137.42 330.12, 133.33 329.35, 129.29 328.43 C125.26 327.51, 121.24 326.43, 117.28 325.21 C113.32 323.99, 109.4 322.62, 105.54 321.1 C101.69 319.59, 97.88 317.93, 94.14 316.13 C90.41 314.33, 86.74 312.39, 83.15 310.32 C79.56 308.25, 76.04 306.04, 72.62 303.7 C69.2 301.37, 65.85 298.9, 62.61 296.32 C59.37 293.74, 56.22 291.02, 53.19 288.21 C50.15 285.39, 47.21 282.45, 44.39 279.41 C41.58 276.38, 38.86 273.22, 36.28 269.99 C33.7 266.75, 31.23 263.4, 28.9 259.98 C26.56 256.56, 24.35 253.04, 22.28 249.45 C20.21 245.86, 18.27 242.19, 16.47 238.45 C14.67 234.72, 13.01 230.91, 11.5 227.06 C9.98 223.2, 8.61 219.28, 7.39 215.32 C6.17 211.36, 5.09 207.34, 4.17 203.3 C3.25 199.27, 2.47 195.18, 1.86 191.09 C1.24 186.99, 0.77 182.86, 0.47 178.73 C0.16 174.6, 0 170.44, 0 166.3 C0 162.16, 0.16 158, 0.47 153.87 C0.77 149.74, 1.24 145.61, 1.86 141.51 C2.47 137.42, 3.25 133.33, 4.17 129.29 C5.09 125.26, 6.17 121.24, 7.39 117.28 C8.61 113.32, 9.98 109.4, 11.5 105.54 C13.01 101.69, 14.67 97.88, 16.47 94.14 C18.27 90.41, 20.21 86.74, 22.28 83.15 C24.35 79.56, 26.56 76.04, 28.9 72.62 C31.23 69.2, 33.7 65.85, 36.28 62.61 C38.86 59.37, 41.58 56.22, 44.39 53.19 C47.21 50.15, 50.15 47.21, 53.19 44.39 C56.22 41.58, 59.37 38.86, 62.61 36.28 C65.85 33.7, 69.2 31.23, 72.62 28.9 C76.04 26.56, 79.56 24.35, 83.15 22.28 C86.74 20.21, 90.41 18.27, 94.14 16.47 C97.88 14.67, 101.69 13.01, 105.54 11.5 C109.4 9.98, 113.32 8.61, 117.28 7.39 C121.24 6.17, 125.26 5.09, 129.29 4.17 C133.33 3.25, 137.42 2.47, 141.51 1.86 C145.61 1.24, 149.74 0.77, 153.87 0.47 C158 0.16, 162.16 0, 166.3 0 C170.44 0, 174.6 0.16, 178.73 0.47 C182.86 0.77, 186.99 1.24, 191.09 1.86 C195.18 2.47, 199.27 3.25, 203.3 4.17 C207.34 5.09, 211.36 6.17, 215.32 7.39 C219.28 8.61, 223.2 9.98, 227.06 11.5 C230.91 13.01, 234.72 14.67, 238.45 16.47 C242.19 18.27, 245.86 20.21, 249.45 22.28 C253.04 24.35, 256.56 26.56, 259.98 28.9 C263.4 31.23, 266.75 33.7, 269.99 36.28 C273.22 38.86, 276.38 41.58, 279.41 44.39 C282.45 47.21, 285.39 50.15, 288.21 53.19 C291.02 56.22, 293.74 59.37, 296.32 62.61 C298.9 65.85, 301.37 69.2, 303.7 72.62 C306.04 76.04, 308.25 79.56, 310.32 83.15 C312.39 86.74, 314.33 90.41, 316.13 94.14 C317.93 97.88, 319.59 101.69, 321.1 105.54 C322.62 109.4, 323.99 113.32, 325.21 117.28 C326.43 121.24, 327.51 125.26, 328.43 129.29 C329.35 133.33, 330.12 137.42, 330.74 141.51 C331.36 145.61, 331.82 149.74, 332.13 153.87 C332.44 158, 332.6 162.16, 332.6 166.3" stroke="#E1E1E1" stroke-width="4" fill="none"></path></g><g stroke-linecap="round" transform="translate(200.60698158978448 261.2882629892474) rotate(0 166.2996334604593 166.2996334604593)"><path d="M332.6 166.3 C332.6 170.44, 332.44 174.6, 332.13 178.73 C331.82 182.86, 331.36 186.99, 330.74 191.09 C330.12 195.18, 329.35 199.27, 328.43 203.3 C327.51 207.34, 326.43 211.36, 325.21 215.32 C323.99 219.28, 322.62 223.2, 321.1 227.06 C319.59 230.91, 317.93 234.72, 316.13 238.45 C314.33 242.19, 312.39 245.86, 310.32 249.45 C308.25 253.04, 306.04 256.56, 303.7 259.98 C301.37 263.4, 298.9 266.75, 296.32 269.99 C293.74 273.22, 291.02 276.38, 288.21 279.41 C285.39 282.45, 282.45 285.39, 279.41 288.21 C276.38 291.02, 273.22 293.74, 269.99 296.32 C266.75 298.9, 263.4 301.37, 259.98 303.7 C256.56 306.04, 253.04 308.25, 249.45 310.32 C245.86 312.39, 242.19 314.33, 238.45 316.13 C234.72 317.93, 230.91 319.59, 227.06 321.1 C223.2 322.62, 219.28 323.99, 215.32 325.21 C211.36 326.43, 207.34 327.51, 203.3 328.43 C199.27 329.35, 195.18 330.12, 191.09 330.74 C186.99 331.36, 182.86 331.82, 178.73 332.13 C174.6 332.44, 170.44 332.6, 166.3 332.6 C162.16 332.6, 158 332.44, 153.87 332.13 C149.74 331.82, 145.61 331.36, 141.51 330.74 C137.42 330.12, 133.33 329.35, 129.29 328.43 C125.26 327.51, 121.24 326.43, 117.28 325.21 C113.32 323.99, 109.4 322.62, 105.54 321.1 C101.69 319.59, 97.88 317.93, 94.14 316.13 C90.41 314.33, 86.74 312.39, 83.15 310.32 C79.56 308.25, 76.04 306.04, 72.62 303.7 C69.2 301.37, 65.85 298.9, 62.61 296.32 C59.37 293.74, 56.22 291.02, 53.19 288.21 C50.15 285.39, 47.21 282.45, 44.39 279.41 C41.58 276.38, 38.86 273.22, 36.28 269.99 C33.7 266.75, 31.23 263.4, 28.9 259.98 C26.56 256.56, 24.35 253.04, 22.28 249.45 C20.21 245.86, 18.27 242.19, 16.47 238.45 C14.67 234.72, 13.01 230.91, 11.5 227.06 C9.98 223.2, 8.61 219.28, 7.39 215.32 C6.17 211.36, 5.09 207.34, 4.17 203.3 C3.25 199.27, 2.47 195.18, 1.86 191.09 C1.24 186.99, 0.77 182.86, 0.47 178.73 C0.16 174.6, 0 170.44, 0 166.3 C0 162.16, 0.16 158, 0.47 153.87 C0.77 149.74, 1.24 145.61, 1.86 141.51 C2.47 137.42, 3.25 133.33, 4.17 129.29 C5.09 125.26, 6.17 121.24, 7.39 117.28 C8.61 113.32, 9.98 109.4, 11.5 105.54 C13.01 101.69, 14.67 97.88, 16.47 94.14 C18.27 90.41, 20.21 86.74, 22.28 83.15 C24.35 79.56, 26.56 76.04, 28.9 72.62 C31.23 69.2, 33.7 65.85, 36.28 62.61 C38.86 59.37, 41.58 56.22, 44.39 53.19 C47.21 50.15, 50.15 47.21, 53.19 44.39 C56.22 41.58, 59.37 38.86, 62.61 36.28 C65.85 33.7, 69.2 31.23, 72.62 28.9 C76.04 26.56, 79.56 24.35, 83.15 22.28 C86.74 20.21, 90.41 18.27, 94.14 16.47 C97.88 14.67, 101.69 13.01, 105.54 11.5 C109.4 9.98, 113.32 8.61, 117.28 7.39 C121.24 6.17, 125.26 5.09, 129.29 4.17 C133.33 3.25, 137.42 2.47, 141.51 1.86 C145.61 1.24, 149.74 0.77, 153.87 0.47 C158 0.16, 162.16 0, 166.3 0 C170.44 0, 174.6 0.16, 178.73 0.47 C182.86 0.77, 186.99 1.24, 191.09 1.86 C195.18 2.47, 199.27 3.25, 203.3 4.17 C207.34 5.09, 211.36 6.17, 215.32 7.39 C219.28 8.61, 223.2 9.98, 227.06 11.5 C230.91 13.01, 234.72 14.67, 238.45 16.47 C242.19 18.27, 245.86 20.21, 249.45 22.28 C253.04 24.35, 256.56 26.56, 259.98 28.9 C263.4 31.23, 266.75 33.7, 269.99 36.28 C273.22 38.86, 276.38 41.58, 279.41 44.39 C282.45 47.21, 285.39 50.15, 288.21 53.19 C291.02 56.22, 293.74 59.37, 296.32 62.61 C298.9 65.85, 301.37 69.2, 303.7 72.62 C306.04 76.04, 308.25 79.56, 310.32 83.15 C312.39 86.74, 314.33 90.41, 316.13 94.14 C317.93 97.88, 319.59 101.69, 321.1 105.54 C322.62 109.4, 323.99 113.32, 325.21 117.28 C326.43 121.24, 327.51 125.26, 328.43 129.29 C329.35 133.33, 330.12 137.42, 330.74 141.51 C331.36 145.61, 331.82 149.74, 332.13 153.87 C332.44 158, 332.6 162.16, 332.6 166.3" stroke="#E1E1E1" stroke-width="4" fill="none"></path></g><g stroke-linecap="round" transform="translate(344.2900250336925 10.81549039071524) rotate(0 166.2996334604593 166.2996334604593)"><path d="M332.6 166.3 C332.6 170.44, 332.44 174.6, 332.13 178.73 C331.82 182.86, 331.36 186.99, 330.74 191.09 C330.12 195.18, 329.35 199.27, 328.43 203.3 C327.51 207.34, 326.43 211.36, 325.21 215.32 C323.99 219.28, 322.62 223.2, 321.1 227.06 C319.59 230.91, 317.93 234.72, 316.13 238.45 C314.33 242.19, 312.39 245.86, 310.32 249.45 C308.25 253.04, 306.04 256.56, 303.7 259.98 C301.37 263.4, 298.9 266.75, 296.32 269.99 C293.74 273.22, 291.02 276.38, 288.21 279.41 C285.39 282.45, 282.45 285.39, 279.41 288.21 C276.38 291.02, 273.22 293.74, 269.99 296.32 C266.75 298.9, 263.4 301.37, 259.98 303.7 C256.56 306.04, 253.04 308.25, 249.45 310.32 C245.86 312.39, 242.19 314.33, 238.45 316.13 C234.72 317.93, 230.91 319.59, 227.06 321.1 C223.2 322.62, 219.28 323.99, 215.32 325.21 C211.36 326.43, 207.34 327.51, 203.3 328.43 C199.27 329.35, 195.18 330.12, 191.09 330.74 C186.99 331.36, 182.86 331.82, 178.73 332.13 C174.6 332.44, 170.44 332.6, 166.3 332.6 C162.16 332.6, 158 332.44, 153.87 332.13 C149.74 331.82, 145.61 331.36, 141.51 330.74 C137.42 330.12, 133.33 329.35, 129.29 328.43 C125.26 327.51, 121.24 326.43, 117.28 325.21 C113.32 323.99, 109.4 322.62, 105.54 321.1 C101.69 319.59, 97.88 317.93, 94.14 316.13 C90.41 314.33, 86.74 312.39, 83.15 310.32 C79.56 308.25, 76.04 306.04, 72.62 303.7 C69.2 301.37, 65.85 298.9, 62.61 296.32 C59.37 293.74, 56.22 291.02, 53.19 288.21 C50.15 285.39, 47.21 282.45, 44.39 279.41 C41.58 276.38, 38.86 273.22, 36.28 269.99 C33.7 266.75, 31.23 263.4, 28.9 259.98 C26.56 256.56, 24.35 253.04, 22.28 249.45 C20.21 245.86, 18.27 242.19, 16.47 238.45 C14.67 234.72, 13.01 230.91, 11.5 227.06 C9.98 223.2, 8.61 219.28, 7.39 215.32 C6.17 211.36, 5.09 207.34, 4.17 203.3 C3.25 199.27, 2.47 195.18, 1.86 191.09 C1.24 186.99, 0.77 182.86, 0.47 178.73 C0.16 174.6, 0 170.44, 0 166.3 C0 162.16, 0.16 158, 0.47 153.87 C0.77 149.74, 1.24 145.61, 1.86 141.51 C2.47 137.42, 3.25 133.33, 4.17 129.29 C5.09 125.26, 6.17 121.24, 7.39 117.28 C8.61 113.32, 9.98 109.4, 11.5 105.54 C13.01 101.69, 14.67 97.88, 16.47 94.14 C18.27 90.41, 20.21 86.74, 22.28 83.15 C24.35 79.56, 26.56 76.04, 28.9 72.62 C31.23 69.2, 33.7 65.85, 36.28 62.61 C38.86 59.37, 41.58 56.22, 44.39 53.19 C47.21 50.15, 50.15 47.21, 53.19 44.39 C56.22 41.58, 59.37 38.86, 62.61 36.28 C65.85 33.7, 69.2 31.23, 72.62 28.9 C76.04 26.56, 79.56 24.35, 83.15 22.28 C86.74 20.21, 90.41 18.27, 94.14 16.47 C97.88 14.67, 101.69 13.01, 105.54 11.5 C109.4 9.98, 113.32 8.61, 117.28 7.39 C121.24 6.17, 125.26 5.09, 129.29 4.17 C133.33 3.25, 137.42 2.47, 141.51 1.86 C145.61 1.24, 149.74 0.77, 153.87 0.47 C158 0.16, 162.16 0, 166.3 0 C170.44 0, 174.6 0.16, 178.73 0.47 C182.86 0.77, 186.99 1.24, 191.09 1.86 C195.18 2.47, 199.27 3.25, 203.3 4.17 C207.34 5.09, 211.36 6.17, 215.32 7.39 C219.28 8.61, 223.2 9.98, 227.06 11.5 C230.91 13.01, 234.72 14.67, 238.45 16.47 C242.19 18.27, 245.86 20.21, 249.45 22.28 C253.04 24.35, 256.56 26.56, 259.98 28.9 C263.4 31.23, 266.75 33.7, 269.99 36.28 C273.22 38.86, 276.38 41.58, 279.41 44.39 C282.45 47.21, 285.39 50.15, 288.21 53.19 C291.02 56.22, 293.74 59.37, 296.32 62.61 C298.9 65.85, 301.37 69.2, 303.7 72.62 C306.04 76.04, 308.25 79.56, 310.32 83.15 C312.39 86.74, 314.33 90.41, 316.13 94.14 C317.93 97.88, 319.59 101.69, 321.1 105.54 C322.62 109.4, 323.99 113.32, 325.21 117.28 C326.43 121.24, 327.51 125.26, 328.43 129.29 C329.35 133.33, 330.12 137.42, 330.74 141.51 C331.36 145.61, 331.82 149.74, 332.13 153.87 C332.44 158, 332.6 162.16, 332.6 166.3" stroke="#E1E1E1" stroke-width="4" fill="none"></path></g><g stroke-linecap="round" transform="translate(489.0918663819066 93.12016982535738) rotate(0 166.2996334604593 166.29963346045918)"><path d="M332.6 166.3 C332.6 170.44, 332.44 174.6, 332.13 178.73 C331.82 182.86, 331.36 186.99, 330.74 191.09 C330.12 195.18, 329.35 199.27, 328.43 203.3 C327.51 207.34, 326.43 211.36, 325.21 215.32 C323.99 219.28, 322.62 223.2, 321.1 227.06 C319.59 230.91, 317.93 234.72, 316.13 238.45 C314.33 242.19, 312.39 245.86, 310.32 249.45 C308.25 253.04, 306.04 256.56, 303.7 259.98 C301.37 263.4, 298.9 266.75, 296.32 269.99 C293.74 273.22, 291.02 276.38, 288.21 279.41 C285.39 282.45, 282.45 285.39, 279.41 288.21 C276.38 291.02, 273.22 293.74, 269.99 296.32 C266.75 298.9, 263.4 301.37, 259.98 303.7 C256.56 306.04, 253.04 308.25, 249.45 310.32 C245.86 312.39, 242.19 314.33, 238.45 316.13 C234.72 317.93, 230.91 319.59, 227.06 321.1 C223.2 322.62, 219.28 323.99, 215.32 325.21 C211.36 326.43, 207.34 327.51, 203.3 328.43 C199.27 329.35, 195.18 330.12, 191.09 330.74 C186.99 331.36, 182.86 331.82, 178.73 332.13 C174.6 332.44, 170.44 332.6, 166.3 332.6 C162.16 332.6, 158 332.44, 153.87 332.13 C149.74 331.82, 145.61 331.36, 141.51 330.74 C137.42 330.12, 133.33 329.35, 129.29 328.43 C125.26 327.51, 121.24 326.43, 117.28 325.21 C113.32 323.99, 109.4 322.62, 105.54 321.1 C101.69 319.59, 97.88 317.93, 94.14 316.13 C90.41 314.33, 86.74 312.39, 83.15 310.32 C79.56 308.25, 76.04 306.04, 72.62 303.7 C69.2 301.37, 65.85 298.9, 62.61 296.32 C59.37 293.74, 56.22 291.02, 53.19 288.21 C50.15 285.39, 47.21 282.45, 44.39 279.41 C41.58 276.38, 38.86 273.22, 36.28 269.99 C33.7 266.75, 31.23 263.4, 28.9 259.98 C26.56 256.56, 24.35 253.04, 22.28 249.45 C20.21 245.86, 18.27 242.19, 16.47 238.45 C14.67 234.72, 13.01 230.91, 11.5 227.06 C9.98 223.2, 8.61 219.28, 7.39 215.32 C6.17 211.36, 5.09 207.34, 4.17 203.3 C3.25 199.27, 2.47 195.18, 1.86 191.09 C1.24 186.99, 0.77 182.86, 0.47 178.73 C0.16 174.6, 0 170.44, 0 166.3 C0 162.16, 0.16 158, 0.47 153.87 C0.77 149.74, 1.24 145.61, 1.86 141.51 C2.47 137.42, 3.25 133.33, 4.17 129.29 C5.09 125.26, 6.17 121.24, 7.39 117.28 C8.61 113.32, 9.98 109.4, 11.5 105.54 C13.01 101.69, 14.67 97.88, 16.47 94.14 C18.27 90.41, 20.21 86.74, 22.28 83.15 C24.35 79.56, 26.56 76.04, 28.9 72.62 C31.23 69.2, 33.7 65.85, 36.28 62.61 C38.86 59.37, 41.58 56.22, 44.39 53.19 C47.21 50.15, 50.15 47.21, 53.19 44.39 C56.22 41.58, 59.37 38.86, 62.61 36.28 C65.85 33.7, 69.2 31.23, 72.62 28.9 C76.04 26.56, 79.56 24.35, 83.15 22.28 C86.74 20.21, 90.41 18.27, 94.14 16.47 C97.88 14.67, 101.69 13.01, 105.54 11.5 C109.4 9.98, 113.32 8.61, 117.28 7.39 C121.24 6.17, 125.26 5.09, 129.29 4.17 C133.33 3.25, 137.42 2.47, 141.51 1.86 C145.61 1.24, 149.74 0.77, 153.87 0.47 C158 0.16, 162.16 0, 166.3 0 C170.44 0, 174.6 0.16, 178.73 0.47 C182.86 0.77, 186.99 1.24, 191.09 1.86 C195.18 2.47, 199.27 3.25, 203.3 4.17 C207.34 5.09, 211.36 6.17, 215.32 7.39 C219.28 8.61, 223.2 9.98, 227.06 11.5 C230.91 13.01, 234.72 14.67, 238.45 16.47 C242.19 18.27, 245.86 20.21, 249.45 22.28 C253.04 24.35, 256.56 26.56, 259.98 28.9 C263.4 31.23, 266.75 33.7, 269.99 36.28 C273.22 38.86, 276.38 41.58, 279.41 44.39 C282.45 47.21, 285.39 50.15, 288.21 53.19 C291.02 56.22, 293.74 59.37, 296.32 62.61 C298.9 65.85, 301.37 69.2, 303.7 72.62 C306.04 76.04, 308.25 79.56, 310.32 83.15 C312.39 86.74, 314.33 90.41, 316.13 94.14 C317.93 97.88, 319.59 101.69, 321.1 105.54 C322.62 109.4, 323.99 113.32, 325.21 117.28 C326.43 121.24, 327.51 125.26, 328.43 129.29 C329.35 133.33, 330.12 137.42, 330.74 141.51 C331.36 145.61, 331.82 149.74, 332.13 153.87 C332.44 158, 332.6 162.16, 332.6 166.3" stroke="#E1E1E1" stroke-width="4" fill="none"></path></g><g stroke-linecap="round" transform="translate(632.7250552169885 178.9562105248233) rotate(0 166.2996334604593 166.2996334604593)"><path d="M332.6 166.3 C332.6 170.44, 332.44 174.6, 332.13 178.73 C331.82 182.86, 331.36 186.99, 330.74 191.09 C330.12 195.18, 329.35 199.27, 328.43 203.3 C327.51 207.34, 326.43 211.36, 325.21 215.32 C323.99 219.28, 322.62 223.2, 321.1 227.06 C319.59 230.91, 317.93 234.72, 316.13 238.45 C314.33 242.19, 312.39 245.86, 310.32 249.45 C308.25 253.04, 306.04 256.56, 303.7 259.98 C301.37 263.4, 298.9 266.75, 296.32 269.99 C293.74 273.22, 291.02 276.38, 288.21 279.41 C285.39 282.45, 282.45 285.39, 279.41 288.21 C276.38 291.02, 273.22 293.74, 269.99 296.32 C266.75 298.9, 263.4 301.37, 259.98 303.7 C256.56 306.04, 253.04 308.25, 249.45 310.32 C245.86 312.39, 242.19 314.33, 238.45 316.13 C234.72 317.93, 230.91 319.59, 227.06 321.1 C223.2 322.62, 219.28 323.99, 215.32 325.21 C211.36 326.43, 207.34 327.51, 203.3 328.43 C199.27 329.35, 195.18 330.12, 191.09 330.74 C186.99 331.36, 182.86 331.82, 178.73 332.13 C174.6 332.44, 170.44 332.6, 166.3 332.6 C162.16 332.6, 158 332.44, 153.87 332.13 C149.74 331.82, 145.61 331.36, 141.51 330.74 C137.42 330.12, 133.33 329.35, 129.29 328.43 C125.26 327.51, 121.24 326.43, 117.28 325.21 C113.32 323.99, 109.4 322.62, 105.54 321.1 C101.69 319.59, 97.88 317.93, 94.14 316.13 C90.41 314.33, 86.74 312.39, 83.15 310.32 C79.56 308.25, 76.04 306.04, 72.62 303.7 C69.2 301.37, 65.85 298.9, 62.61 296.32 C59.37 293.74, 56.22 291.02, 53.19 288.21 C50.15 285.39, 47.21 282.45, 44.39 279.41 C41.58 276.38, 38.86 273.22, 36.28 269.99 C33.7 266.75, 31.23 263.4, 28.9 259.98 C26.56 256.56, 24.35 253.04, 22.28 249.45 C20.21 245.86, 18.27 242.19, 16.47 238.45 C14.67 234.72, 13.01 230.91, 11.5 227.06 C9.98 223.2, 8.61 219.28, 7.39 215.32 C6.17 211.36, 5.09 207.34, 4.17 203.3 C3.25 199.27, 2.47 195.18, 1.86 191.09 C1.24 186.99, 0.77 182.86, 0.47 178.73 C0.16 174.6, 0 170.44, 0 166.3 C0 162.16, 0.16 158, 0.47 153.87 C0.77 149.74, 1.24 145.61, 1.86 141.51 C2.47 137.42, 3.25 133.33, 4.17 129.29 C5.09 125.26, 6.17 121.24, 7.39 117.28 C8.61 113.32, 9.98 109.4, 11.5 105.54 C13.01 101.69, 14.67 97.88, 16.47 94.14 C18.27 90.41, 20.21 86.74, 22.28 83.15 C24.35 79.56, 26.56 76.04, 28.9 72.62 C31.23 69.2, 33.7 65.85, 36.28 62.61 C38.86 59.37, 41.58 56.22, 44.39 53.19 C47.21 50.15, 50.15 47.21, 53.19 44.39 C56.22 41.58, 59.37 38.86, 62.61 36.28 C65.85 33.7, 69.2 31.23, 72.62 28.9 C76.04 26.56, 79.56 24.35, 83.15 22.28 C86.74 20.21, 90.41 18.27, 94.14 16.47 C97.88 14.67, 101.69 13.01, 105.54 11.5 C109.4 9.98, 113.32 8.61, 117.28 7.39 C121.24 6.17, 125.26 5.09, 129.29 4.17 C133.33 3.25, 137.42 2.47, 141.51 1.86 C145.61 1.24, 149.74 0.77, 153.87 0.47 C158 0.16, 162.16 0, 166.3 0 C170.44 0, 174.6 0.16, 178.73 0.47 C182.86 0.77, 186.99 1.24, 191.09 1.86 C195.18 2.47, 199.27 3.25, 203.3 4.17 C207.34 5.09, 211.36 6.17, 215.32 7.39 C219.28 8.61, 223.2 9.98, 227.06 11.5 C230.91 13.01, 234.72 14.67, 238.45 16.47 C242.19 18.27, 245.86 20.21, 249.45 22.28 C253.04 24.35, 256.56 26.56, 259.98 28.9 C263.4 31.23, 266.75 33.7, 269.99 36.28 C273.22 38.86, 276.38 41.58, 279.41 44.39 C282.45 47.21, 285.39 50.15, 288.21 53.19 C291.02 56.22, 293.74 59.37, 296.32 62.61 C298.9 65.85, 301.37 69.2, 303.7 72.62 C306.04 76.04, 308.25 79.56, 310.32 83.15 C312.39 86.74, 314.33 90.41, 316.13 94.14 C317.93 97.88, 319.59 101.69, 321.1 105.54 C322.62 109.4, 323.99 113.32, 325.21 117.28 C326.43 121.24, 327.51 125.26, 328.43 129.29 C329.35 133.33, 330.12 137.42, 330.74 141.51 C331.36 145.61, 331.82 149.74, 332.13 153.87 C332.44 158, 332.6 162.16, 332.6 166.3" stroke="#E1E1E1" stroke-width="4" fill="none"></path></g><g stroke-linecap="round" transform="translate(633.3045523309383 343.9776720072732) rotate(0 166.2996334604593 166.2996334604593)"><path d="M332.6 166.3 C332.6 170.44, 332.44 174.6, 332.13 178.73 C331.82 182.86, 331.36 186.99, 330.74 191.09 C330.12 195.18, 329.35 199.27, 328.43 203.3 C327.51 207.34, 326.43 211.36, 325.21 215.32 C323.99 219.28, 322.62 223.2, 321.1 227.06 C319.59 230.91, 317.93 234.72, 316.13 238.45 C314.33 242.19, 312.39 245.86, 310.32 249.45 C308.25 253.04, 306.04 256.56, 303.7 259.98 C301.37 263.4, 298.9 266.75, 296.32 269.99 C293.74 273.22, 291.02 276.38, 288.21 279.41 C285.39 282.45, 282.45 285.39, 279.41 288.21 C276.38 291.02, 273.22 293.74, 269.99 296.32 C266.75 298.9, 263.4 301.37, 259.98 303.7 C256.56 306.04, 253.04 308.25, 249.45 310.32 C245.86 312.39, 242.19 314.33, 238.45 316.13 C234.72 317.93, 230.91 319.59, 227.06 321.1 C223.2 322.62, 219.28 323.99, 215.32 325.21 C211.36 326.43, 207.34 327.51, 203.3 328.43 C199.27 329.35, 195.18 330.12, 191.09 330.74 C186.99 331.36, 182.86 331.82, 178.73 332.13 C174.6 332.44, 170.44 332.6, 166.3 332.6 C162.16 332.6, 158 332.44, 153.87 332.13 C149.74 331.82, 145.61 331.36, 141.51 330.74 C137.42 330.12, 133.33 329.35, 129.29 328.43 C125.26 327.51, 121.24 326.43, 117.28 325.21 C113.32 323.99, 109.4 322.62, 105.54 321.1 C101.69 319.59, 97.88 317.93, 94.14 316.13 C90.41 314.33, 86.74 312.39, 83.15 310.32 C79.56 308.25, 76.04 306.04, 72.62 303.7 C69.2 301.37, 65.85 298.9, 62.61 296.32 C59.37 293.74, 56.22 291.02, 53.19 288.21 C50.15 285.39, 47.21 282.45, 44.39 279.41 C41.58 276.38, 38.86 273.22, 36.28 269.99 C33.7 266.75, 31.23 263.4, 28.9 259.98 C26.56 256.56, 24.35 253.04, 22.28 249.45 C20.21 245.86, 18.27 242.19, 16.47 238.45 C14.67 234.72, 13.01 230.91, 11.5 227.06 C9.98 223.2, 8.61 219.28, 7.39 215.32 C6.17 211.36, 5.09 207.34, 4.17 203.3 C3.25 199.27, 2.47 195.18, 1.86 191.09 C1.24 186.99, 0.77 182.86, 0.47 178.73 C0.16 174.6, 0 170.44, 0 166.3 C0 162.16, 0.16 158, 0.47 153.87 C0.77 149.74, 1.24 145.61, 1.86 141.51 C2.47 137.42, 3.25 133.33, 4.17 129.29 C5.09 125.26, 6.17 121.24, 7.39 117.28 C8.61 113.32, 9.98 109.4, 11.5 105.54 C13.01 101.69, 14.67 97.88, 16.47 94.14 C18.27 90.41, 20.21 86.74, 22.28 83.15 C24.35 79.56, 26.56 76.04, 28.9 72.62 C31.23 69.2, 33.7 65.85, 36.28 62.61 C38.86 59.37, 41.58 56.22, 44.39 53.19 C47.21 50.15, 50.15 47.21, 53.19 44.39 C56.22 41.58, 59.37 38.86, 62.61 36.28 C65.85 33.7, 69.2 31.23, 72.62 28.9 C76.04 26.56, 79.56 24.35, 83.15 22.28 C86.74 20.21, 90.41 18.27, 94.14 16.47 C97.88 14.67, 101.69 13.01, 105.54 11.5 C109.4 9.98, 113.32 8.61, 117.28 7.39 C121.24 6.17, 125.26 5.09, 129.29 4.17 C133.33 3.25, 137.42 2.47, 141.51 1.86 C145.61 1.24, 149.74 0.77, 153.87 0.47 C158 0.16, 162.16 0, 166.3 0 C170.44 0, 174.6 0.16, 178.73 0.47 C182.86 0.77, 186.99 1.24, 191.09 1.86 C195.18 2.47, 199.27 3.25, 203.3 4.17 C207.34 5.09, 211.36 6.17, 215.32 7.39 C219.28 8.61, 223.2 9.98, 227.06 11.5 C230.91 13.01, 234.72 14.67, 238.45 16.47 C242.19 18.27, 245.86 20.21, 249.45 22.28 C253.04 24.35, 256.56 26.56, 259.98 28.9 C263.4 31.23, 266.75 33.7, 269.99 36.28 C273.22 38.86, 276.38 41.58, 279.41 44.39 C282.45 47.21, 285.39 50.15, 288.21 53.19 C291.02 56.22, 293.74 59.37, 296.32 62.61 C298.9 65.85, 301.37 69.2, 303.7 72.62 C306.04 76.04, 308.25 79.56, 310.32 83.15 C312.39 86.74, 314.33 90.41, 316.13 94.14 C317.93 97.88, 319.59 101.69, 321.1 105.54 C322.62 109.4, 323.99 113.32, 325.21 117.28 C326.43 121.24, 327.51 125.26, 328.43 129.29 C329.35 133.33, 330.12 137.42, 330.74 141.51 C331.36 145.61, 331.82 149.74, 332.13 153.87 C332.44 158, 332.6 162.16, 332.6 166.3" stroke="#E1E1E1" stroke-width="4" fill="none"></path></g><g stroke-linecap="round" transform="translate(633.3914768980317 510.1871025733185) rotate(0 166.2996334604593 166.2996334604593)"><path d="M332.6 166.3 C332.6 170.44, 332.44 174.6, 332.13 178.73 C331.82 182.86, 331.36 186.99, 330.74 191.09 C330.12 195.18, 329.35 199.27, 328.43 203.3 C327.51 207.34, 326.43 211.36, 325.21 215.32 C323.99 219.28, 322.62 223.2, 321.1 227.06 C319.59 230.91, 317.93 234.72, 316.13 238.45 C314.33 242.19, 312.39 245.86, 310.32 249.45 C308.25 253.04, 306.04 256.56, 303.7 259.98 C301.37 263.4, 298.9 266.75, 296.32 269.99 C293.74 273.22, 291.02 276.38, 288.21 279.41 C285.39 282.45, 282.45 285.39, 279.41 288.21 C276.38 291.02, 273.22 293.74, 269.99 296.32 C266.75 298.9, 263.4 301.37, 259.98 303.7 C256.56 306.04, 253.04 308.25, 249.45 310.32 C245.86 312.39, 242.19 314.33, 238.45 316.13 C234.72 317.93, 230.91 319.59, 227.06 321.1 C223.2 322.62, 219.28 323.99, 215.32 325.21 C211.36 326.43, 207.34 327.51, 203.3 328.43 C199.27 329.35, 195.18 330.12, 191.09 330.74 C186.99 331.36, 182.86 331.82, 178.73 332.13 C174.6 332.44, 170.44 332.6, 166.3 332.6 C162.16 332.6, 158 332.44, 153.87 332.13 C149.74 331.82, 145.61 331.36, 141.51 330.74 C137.42 330.12, 133.33 329.35, 129.29 328.43 C125.26 327.51, 121.24 326.43, 117.28 325.21 C113.32 323.99, 109.4 322.62, 105.54 321.1 C101.69 319.59, 97.88 317.93, 94.14 316.13 C90.41 314.33, 86.74 312.39, 83.15 310.32 C79.56 308.25, 76.04 306.04, 72.62 303.7 C69.2 301.37, 65.85 298.9, 62.61 296.32 C59.37 293.74, 56.22 291.02, 53.19 288.21 C50.15 285.39, 47.21 282.45, 44.39 279.41 C41.58 276.38, 38.86 273.22, 36.28 269.99 C33.7 266.75, 31.23 263.4, 28.9 259.98 C26.56 256.56, 24.35 253.04, 22.28 249.45 C20.21 245.86, 18.27 242.19, 16.47 238.45 C14.67 234.72, 13.01 230.91, 11.5 227.06 C9.98 223.2, 8.61 219.28, 7.39 215.32 C6.17 211.36, 5.09 207.34, 4.17 203.3 C3.25 199.27, 2.47 195.18, 1.86 191.09 C1.24 186.99, 0.77 182.86, 0.47 178.73 C0.16 174.6, 0 170.44, 0 166.3 C0 162.16, 0.16 158, 0.47 153.87 C0.77 149.74, 1.24 145.61, 1.86 141.51 C2.47 137.42, 3.25 133.33, 4.17 129.29 C5.09 125.26, 6.17 121.24, 7.39 117.28 C8.61 113.32, 9.98 109.4, 11.5 105.54 C13.01 101.69, 14.67 97.88, 16.47 94.14 C18.27 90.41, 20.21 86.74, 22.28 83.15 C24.35 79.56, 26.56 76.04, 28.9 72.62 C31.23 69.2, 33.7 65.85, 36.28 62.61 C38.86 59.37, 41.58 56.22, 44.39 53.19 C47.21 50.15, 50.15 47.21, 53.19 44.39 C56.22 41.58, 59.37 38.86, 62.61 36.28 C65.85 33.7, 69.2 31.23, 72.62 28.9 C76.04 26.56, 79.56 24.35, 83.15 22.28 C86.74 20.21, 90.41 18.27, 94.14 16.47 C97.88 14.67, 101.69 13.01, 105.54 11.5 C109.4 9.98, 113.32 8.61, 117.28 7.39 C121.24 6.17, 125.26 5.09, 129.29 4.17 C133.33 3.25, 137.42 2.47, 141.51 1.86 C145.61 1.24, 149.74 0.77, 153.87 0.47 C158 0.16, 162.16 0, 166.3 0 C170.44 0, 174.6 0.16, 178.73 0.47 C182.86 0.77, 186.99 1.24, 191.09 1.86 C195.18 2.47, 199.27 3.25, 203.3 4.17 C207.34 5.09, 211.36 6.17, 215.32 7.39 C219.28 8.61, 223.2 9.98, 227.06 11.5 C230.91 13.01, 234.72 14.67, 238.45 16.47 C242.19 18.27, 245.86 20.21, 249.45 22.28 C253.04 24.35, 256.56 26.56, 259.98 28.9 C263.4 31.23, 266.75 33.7, 269.99 36.28 C273.22 38.86, 276.38 41.58, 279.41 44.39 C282.45 47.21, 285.39 50.15, 288.21 53.19 C291.02 56.22, 293.74 59.37, 296.32 62.61 C298.9 65.85, 301.37 69.2, 303.7 72.62 C306.04 76.04, 308.25 79.56, 310.32 83.15 C312.39 86.74, 314.33 90.41, 316.13 94.14 C317.93 97.88, 319.59 101.69, 321.1 105.54 C322.62 109.4, 323.99 113.32, 325.21 117.28 C326.43 121.24, 327.51 125.26, 328.43 129.29 C329.35 133.33, 330.12 137.42, 330.74 141.51 C331.36 145.61, 331.82 149.74, 332.13 153.87 C332.44 158, 332.6 162.16, 332.6 166.3" stroke="#E1E1E1" stroke-width="4" fill="none"></path></g><g stroke-linecap="round" transform="translate(489.84521263004126 593.4753252757591) rotate(0 166.2996334604593 166.2996334604593)"><path d="M332.6 166.3 C332.6 170.44, 332.44 174.6, 332.13 178.73 C331.82 182.86, 331.36 186.99, 330.74 191.09 C330.12 195.18, 329.35 199.27, 328.43 203.3 C327.51 207.34, 326.43 211.36, 325.21 215.32 C323.99 219.28, 322.62 223.2, 321.1 227.06 C319.59 230.91, 317.93 234.72, 316.13 238.45 C314.33 242.19, 312.39 245.86, 310.32 249.45 C308.25 253.04, 306.04 256.56, 303.7 259.98 C301.37 263.4, 298.9 266.75, 296.32 269.99 C293.74 273.22, 291.02 276.38, 288.21 279.41 C285.39 282.45, 282.45 285.39, 279.41 288.21 C276.38 291.02, 273.22 293.74, 269.99 296.32 C266.75 298.9, 263.4 301.37, 259.98 303.7 C256.56 306.04, 253.04 308.25, 249.45 310.32 C245.86 312.39, 242.19 314.33, 238.45 316.13 C234.72 317.93, 230.91 319.59, 227.06 321.1 C223.2 322.62, 219.28 323.99, 215.32 325.21 C211.36 326.43, 207.34 327.51, 203.3 328.43 C199.27 329.35, 195.18 330.12, 191.09 330.74 C186.99 331.36, 182.86 331.82, 178.73 332.13 C174.6 332.44, 170.44 332.6, 166.3 332.6 C162.16 332.6, 158 332.44, 153.87 332.13 C149.74 331.82, 145.61 331.36, 141.51 330.74 C137.42 330.12, 133.33 329.35, 129.29 328.43 C125.26 327.51, 121.24 326.43, 117.28 325.21 C113.32 323.99, 109.4 322.62, 105.54 321.1 C101.69 319.59, 97.88 317.93, 94.14 316.13 C90.41 314.33, 86.74 312.39, 83.15 310.32 C79.56 308.25, 76.04 306.04, 72.62 303.7 C69.2 301.37, 65.85 298.9, 62.61 296.32 C59.37 293.74, 56.22 291.02, 53.19 288.21 C50.15 285.39, 47.21 282.45, 44.39 279.41 C41.58 276.38, 38.86 273.22, 36.28 269.99 C33.7 266.75, 31.23 263.4, 28.9 259.98 C26.56 256.56, 24.35 253.04, 22.28 249.45 C20.21 245.86, 18.27 242.19, 16.47 238.45 C14.67 234.72, 13.01 230.91, 11.5 227.06 C9.98 223.2, 8.61 219.28, 7.39 215.32 C6.17 211.36, 5.09 207.34, 4.17 203.3 C3.25 199.27, 2.47 195.18, 1.86 191.09 C1.24 186.99, 0.77 182.86, 0.47 178.73 C0.16 174.6, 0 170.44, 0 166.3 C0 162.16, 0.16 158, 0.47 153.87 C0.77 149.74, 1.24 145.61, 1.86 141.51 C2.47 137.42, 3.25 133.33, 4.17 129.29 C5.09 125.26, 6.17 121.24, 7.39 117.28 C8.61 113.32, 9.98 109.4, 11.5 105.54 C13.01 101.69, 14.67 97.88, 16.47 94.14 C18.27 90.41, 20.21 86.74, 22.28 83.15 C24.35 79.56, 26.56 76.04, 28.9 72.62 C31.23 69.2, 33.7 65.85, 36.28 62.61 C38.86 59.37, 41.58 56.22, 44.39 53.19 C47.21 50.15, 50.15 47.21, 53.19 44.39 C56.22 41.58, 59.37 38.86, 62.61 36.28 C65.85 33.7, 69.2 31.23, 72.62 28.9 C76.04 26.56, 79.56 24.35, 83.15 22.28 C86.74 20.21, 90.41 18.27, 94.14 16.47 C97.88 14.67, 101.69 13.01, 105.54 11.5 C109.4 9.98, 113.32 8.61, 117.28 7.39 C121.24 6.17, 125.26 5.09, 129.29 4.17 C133.33 3.25, 137.42 2.47, 141.51 1.86 C145.61 1.24, 149.74 0.77, 153.87 0.47 C158 0.16, 162.16 0, 166.3 0 C170.44 0, 174.6 0.16, 178.73 0.47 C182.86 0.77, 186.99 1.24, 191.09 1.86 C195.18 2.47, 199.27 3.25, 203.3 4.17 C207.34 5.09, 211.36 6.17, 215.32 7.39 C219.28 8.61, 223.2 9.98, 227.06 11.5 C230.91 13.01, 234.72 14.67, 238.45 16.47 C242.19 18.27, 245.86 20.21, 249.45 22.28 C253.04 24.35, 256.56 26.56, 259.98 28.9 C263.4 31.23, 266.75 33.7, 269.99 36.28 C273.22 38.86, 276.38 41.58, 279.41 44.39 C282.45 47.21, 285.39 50.15, 288.21 53.19 C291.02 56.22, 293.74 59.37, 296.32 62.61 C298.9 65.85, 301.37 69.2, 303.7 72.62 C306.04 76.04, 308.25 79.56, 310.32 83.15 C312.39 86.74, 314.33 90.41, 316.13 94.14 C317.93 97.88, 319.59 101.69, 321.1 105.54 C322.62 109.4, 323.99 113.32, 325.21 117.28 C326.43 121.24, 327.51 125.26, 328.43 129.29 C329.35 133.33, 330.12 137.42, 330.74 141.51 C331.36 145.61, 331.82 149.74, 332.13 153.87 C332.44 158, 332.6 162.16, 332.6 166.3" stroke="#E1E1E1" stroke-width="4" fill="none"></path></g><g stroke-linecap="round" transform="translate(345.0047381408958 677.1547085301158) rotate(0 166.2996334604593 166.2996334604593)"><path d="M332.6 166.3 C332.6 170.44, 332.44 174.6, 332.13 178.73 C331.82 182.86, 331.36 186.99, 330.74 191.09 C330.12 195.18, 329.35 199.27, 328.43 203.3 C327.51 207.34, 326.43 211.36, 325.21 215.32 C323.99 219.28, 322.62 223.2, 321.1 227.06 C319.59 230.91, 317.93 234.72, 316.13 238.45 C314.33 242.19, 312.39 245.86, 310.32 249.45 C308.25 253.04, 306.04 256.56, 303.7 259.98 C301.37 263.4, 298.9 266.75, 296.32 269.99 C293.74 273.22, 291.02 276.38, 288.21 279.41 C285.39 282.45, 282.45 285.39, 279.41 288.21 C276.38 291.02, 273.22 293.74, 269.99 296.32 C266.75 298.9, 263.4 301.37, 259.98 303.7 C256.56 306.04, 253.04 308.25, 249.45 310.32 C245.86 312.39, 242.19 314.33, 238.45 316.13 C234.72 317.93, 230.91 319.59, 227.06 321.1 C223.2 322.62, 219.28 323.99, 215.32 325.21 C211.36 326.43, 207.34 327.51, 203.3 328.43 C199.27 329.35, 195.18 330.12, 191.09 330.74 C186.99 331.36, 182.86 331.82, 178.73 332.13 C174.6 332.44, 170.44 332.6, 166.3 332.6 C162.16 332.6, 158 332.44, 153.87 332.13 C149.74 331.82, 145.61 331.36, 141.51 330.74 C137.42 330.12, 133.33 329.35, 129.29 328.43 C125.26 327.51, 121.24 326.43, 117.28 325.21 C113.32 323.99, 109.4 322.62, 105.54 321.1 C101.69 319.59, 97.88 317.93, 94.14 316.13 C90.41 314.33, 86.74 312.39, 83.15 310.32 C79.56 308.25, 76.04 306.04, 72.62 303.7 C69.2 301.37, 65.85 298.9, 62.61 296.32 C59.37 293.74, 56.22 291.02, 53.19 288.21 C50.15 285.39, 47.21 282.45, 44.39 279.41 C41.58 276.38, 38.86 273.22, 36.28 269.99 C33.7 266.75, 31.23 263.4, 28.9 259.98 C26.56 256.56, 24.35 253.04, 22.28 249.45 C20.21 245.86, 18.27 242.19, 16.47 238.45 C14.67 234.72, 13.01 230.91, 11.5 227.06 C9.98 223.2, 8.61 219.28, 7.39 215.32 C6.17 211.36, 5.09 207.34, 4.17 203.3 C3.25 199.27, 2.47 195.18, 1.86 191.09 C1.24 186.99, 0.77 182.86, 0.47 178.73 C0.16 174.6, 0 170.44, 0 166.3 C0 162.16, 0.16 158, 0.47 153.87 C0.77 149.74, 1.24 145.61, 1.86 141.51 C2.47 137.42, 3.25 133.33, 4.17 129.29 C5.09 125.26, 6.17 121.24, 7.39 117.28 C8.61 113.32, 9.98 109.4, 11.5 105.54 C13.01 101.69, 14.67 97.88, 16.47 94.14 C18.27 90.41, 20.21 86.74, 22.28 83.15 C24.35 79.56, 26.56 76.04, 28.9 72.62 C31.23 69.2, 33.7 65.85, 36.28 62.61 C38.86 59.37, 41.58 56.22, 44.39 53.19 C47.21 50.15, 50.15 47.21, 53.19 44.39 C56.22 41.58, 59.37 38.86, 62.61 36.28 C65.85 33.7, 69.2 31.23, 72.62 28.9 C76.04 26.56, 79.56 24.35, 83.15 22.28 C86.74 20.21, 90.41 18.27, 94.14 16.47 C97.88 14.67, 101.69 13.01, 105.54 11.5 C109.4 9.98, 113.32 8.61, 117.28 7.39 C121.24 6.17, 125.26 5.09, 129.29 4.17 C133.33 3.25, 137.42 2.47, 141.51 1.86 C145.61 1.24, 149.74 0.77, 153.87 0.47 C158 0.16, 162.16 0, 166.3 0 C170.44 0, 174.6 0.16, 178.73 0.47 C182.86 0.77, 186.99 1.24, 191.09 1.86 C195.18 2.47, 199.27 3.25, 203.3 4.17 C207.34 5.09, 211.36 6.17, 215.32 7.39 C219.28 8.61, 223.2 9.98, 227.06 11.5 C230.91 13.01, 234.72 14.67, 238.45 16.47 C242.19 18.27, 245.86 20.21, 249.45 22.28 C253.04 24.35, 256.56 26.56, 259.98 28.9 C263.4 31.23, 266.75 33.7, 269.99 36.28 C273.22 38.86, 276.38 41.58, 279.41 44.39 C282.45 47.21, 285.39 50.15, 288.21 53.19 C291.02 56.22, 293.74 59.37, 296.32 62.61 C298.9 65.85, 301.37 69.2, 303.7 72.62 C306.04 76.04, 308.25 79.56, 310.32 83.15 C312.39 86.74, 314.33 90.41, 316.13 94.14 C317.93 97.88, 319.59 101.69, 321.1 105.54 C322.62 109.4, 323.99 113.32, 325.21 117.28 C326.43 121.24, 327.51 125.26, 328.43 129.29 C329.35 133.33, 330.12 137.42, 330.74 141.51 C331.36 145.61, 331.82 149.74, 332.13 153.87 C332.44 158, 332.6 162.16, 332.6 166.3" stroke="#E1E1E1" stroke-width="4" fill="none"></path></g><g stroke-linecap="round" transform="translate(200.16426365174993 593.7892195458153) rotate(0 166.2996334604593 166.2996334604593)"><path d="M332.6 166.3 C332.6 170.44, 332.44 174.6, 332.13 178.73 C331.82 182.86, 331.36 186.99, 330.74 191.09 C330.12 195.18, 329.35 199.27, 328.43 203.3 C327.51 207.34, 326.43 211.36, 325.21 215.32 C323.99 219.28, 322.62 223.2, 321.1 227.06 C319.59 230.91, 317.93 234.72, 316.13 238.45 C314.33 242.19, 312.39 245.86, 310.32 249.45 C308.25 253.04, 306.04 256.56, 303.7 259.98 C301.37 263.4, 298.9 266.75, 296.32 269.99 C293.74 273.22, 291.02 276.38, 288.21 279.41 C285.39 282.45, 282.45 285.39, 279.41 288.21 C276.38 291.02, 273.22 293.74, 269.99 296.32 C266.75 298.9, 263.4 301.37, 259.98 303.7 C256.56 306.04, 253.04 308.25, 249.45 310.32 C245.86 312.39, 242.19 314.33, 238.45 316.13 C234.72 317.93, 230.91 319.59, 227.06 321.1 C223.2 322.62, 219.28 323.99, 215.32 325.21 C211.36 326.43, 207.34 327.51, 203.3 328.43 C199.27 329.35, 195.18 330.12, 191.09 330.74 C186.99 331.36, 182.86 331.82, 178.73 332.13 C174.6 332.44, 170.44 332.6, 166.3 332.6 C162.16 332.6, 158 332.44, 153.87 332.13 C149.74 331.82, 145.61 331.36, 141.51 330.74 C137.42 330.12, 133.33 329.35, 129.29 328.43 C125.26 327.51, 121.24 326.43, 117.28 325.21 C113.32 323.99, 109.4 322.62, 105.54 321.1 C101.69 319.59, 97.88 317.93, 94.14 316.13 C90.41 314.33, 86.74 312.39, 83.15 310.32 C79.56 308.25, 76.04 306.04, 72.62 303.7 C69.2 301.37, 65.85 298.9, 62.61 296.32 C59.37 293.74, 56.22 291.02, 53.19 288.21 C50.15 285.39, 47.21 282.45, 44.39 279.41 C41.58 276.38, 38.86 273.22, 36.28 269.99 C33.7 266.75, 31.23 263.4, 28.9 259.98 C26.56 256.56, 24.35 253.04, 22.28 249.45 C20.21 245.86, 18.27 242.19, 16.47 238.45 C14.67 234.72, 13.01 230.91, 11.5 227.06 C9.98 223.2, 8.61 219.28, 7.39 215.32 C6.17 211.36, 5.09 207.34, 4.17 203.3 C3.25 199.27, 2.47 195.18, 1.86 191.09 C1.24 186.99, 0.77 182.86, 0.47 178.73 C0.16 174.6, 0 170.44, 0 166.3 C0 162.16, 0.16 158, 0.47 153.87 C0.77 149.74, 1.24 145.61, 1.86 141.51 C2.47 137.42, 3.25 133.33, 4.17 129.29 C5.09 125.26, 6.17 121.24, 7.39 117.28 C8.61 113.32, 9.98 109.4, 11.5 105.54 C13.01 101.69, 14.67 97.88, 16.47 94.14 C18.27 90.41, 20.21 86.74, 22.28 83.15 C24.35 79.56, 26.56 76.04, 28.9 72.62 C31.23 69.2, 33.7 65.85, 36.28 62.61 C38.86 59.37, 41.58 56.22, 44.39 53.19 C47.21 50.15, 50.15 47.21, 53.19 44.39 C56.22 41.58, 59.37 38.86, 62.61 36.28 C65.85 33.7, 69.2 31.23, 72.62 28.9 C76.04 26.56, 79.56 24.35, 83.15 22.28 C86.74 20.21, 90.41 18.27, 94.14 16.47 C97.88 14.67, 101.69 13.01, 105.54 11.5 C109.4 9.98, 113.32 8.61, 117.28 7.39 C121.24 6.17, 125.26 5.09, 129.29 4.17 C133.33 3.25, 137.42 2.47, 141.51 1.86 C145.61 1.24, 149.74 0.77, 153.87 0.47 C158 0.16, 162.16 0, 166.3 0 C170.44 0, 174.6 0.16, 178.73 0.47 C182.86 0.77, 186.99 1.24, 191.09 1.86 C195.18 2.47, 199.27 3.25, 203.3 4.17 C207.34 5.09, 211.36 6.17, 215.32 7.39 C219.28 8.61, 223.2 9.98, 227.06 11.5 C230.91 13.01, 234.72 14.67, 238.45 16.47 C242.19 18.27, 245.86 20.21, 249.45 22.28 C253.04 24.35, 256.56 26.56, 259.98 28.9 C263.4 31.23, 266.75 33.7, 269.99 36.28 C273.22 38.86, 276.38 41.58, 279.41 44.39 C282.45 47.21, 285.39 50.15, 288.21 53.19 C291.02 56.22, 293.74 59.37, 296.32 62.61 C298.9 65.85, 301.37 69.2, 303.7 72.62 C306.04 76.04, 308.25 79.56, 310.32 83.15 C312.39 86.74, 314.33 90.41, 316.13 94.14 C317.93 97.88, 319.59 101.69, 321.1 105.54 C322.62 109.4, 323.99 113.32, 325.21 117.28 C326.43 121.24, 327.51 125.26, 328.43 129.29 C329.35 133.33, 330.12 137.42, 330.74 141.51 C331.36 145.61, 331.82 149.74, 332.13 153.87 C332.44 158, 332.6 162.16, 332.6 166.3" stroke="#E1E1E1" stroke-width="4" fill="none"></path></g><g stroke-linecap="round" transform="translate(55.584562863884 511.28331794720816) rotate(0 166.2996334604593 166.2996334604593)"><path d="M332.6 166.3 C332.6 170.44, 332.44 174.6, 332.13 178.73 C331.82 182.86, 331.36 186.99, 330.74 191.09 C330.12 195.18, 329.35 199.27, 328.43 203.3 C327.51 207.34, 326.43 211.36, 325.21 215.32 C323.99 219.28, 322.62 223.2, 321.1 227.06 C319.59 230.91, 317.93 234.72, 316.13 238.45 C314.33 242.19, 312.39 245.86, 310.32 249.45 C308.25 253.04, 306.04 256.56, 303.7 259.98 C301.37 263.4, 298.9 266.75, 296.32 269.99 C293.74 273.22, 291.02 276.38, 288.21 279.41 C285.39 282.45, 282.45 285.39, 279.41 288.21 C276.38 291.02, 273.22 293.74, 269.99 296.32 C266.75 298.9, 263.4 301.37, 259.98 303.7 C256.56 306.04, 253.04 308.25, 249.45 310.32 C245.86 312.39, 242.19 314.33, 238.45 316.13 C234.72 317.93, 230.91 319.59, 227.06 321.1 C223.2 322.62, 219.28 323.99, 215.32 325.21 C211.36 326.43, 207.34 327.51, 203.3 328.43 C199.27 329.35, 195.18 330.12, 191.09 330.74 C186.99 331.36, 182.86 331.82, 178.73 332.13 C174.6 332.44, 170.44 332.6, 166.3 332.6 C162.16 332.6, 158 332.44, 153.87 332.13 C149.74 331.82, 145.61 331.36, 141.51 330.74 C137.42 330.12, 133.33 329.35, 129.29 328.43 C125.26 327.51, 121.24 326.43, 117.28 325.21 C113.32 323.99, 109.4 322.62, 105.54 321.1 C101.69 319.59, 97.88 317.93, 94.14 316.13 C90.41 314.33, 86.74 312.39, 83.15 310.32 C79.56 308.25, 76.04 306.04, 72.62 303.7 C69.2 301.37, 65.85 298.9, 62.61 296.32 C59.37 293.74, 56.22 291.02, 53.19 288.21 C50.15 285.39, 47.21 282.45, 44.39 279.41 C41.58 276.38, 38.86 273.22, 36.28 269.99 C33.7 266.75, 31.23 263.4, 28.9 259.98 C26.56 256.56, 24.35 253.04, 22.28 249.45 C20.21 245.86, 18.27 242.19, 16.47 238.45 C14.67 234.72, 13.01 230.91, 11.5 227.06 C9.98 223.2, 8.61 219.28, 7.39 215.32 C6.17 211.36, 5.09 207.34, 4.17 203.3 C3.25 199.27, 2.47 195.18, 1.86 191.09 C1.24 186.99, 0.77 182.86, 0.47 178.73 C0.16 174.6, 0 170.44, 0 166.3 C0 162.16, 0.16 158, 0.47 153.87 C0.77 149.74, 1.24 145.61, 1.86 141.51 C2.47 137.42, 3.25 133.33, 4.17 129.29 C5.09 125.26, 6.17 121.24, 7.39 117.28 C8.61 113.32, 9.98 109.4, 11.5 105.54 C13.01 101.69, 14.67 97.88, 16.47 94.14 C18.27 90.41, 20.21 86.74, 22.28 83.15 C24.35 79.56, 26.56 76.04, 28.9 72.62 C31.23 69.2, 33.7 65.85, 36.28 62.61 C38.86 59.37, 41.58 56.22, 44.39 53.19 C47.21 50.15, 50.15 47.21, 53.19 44.39 C56.22 41.58, 59.37 38.86, 62.61 36.28 C65.85 33.7, 69.2 31.23, 72.62 28.9 C76.04 26.56, 79.56 24.35, 83.15 22.28 C86.74 20.21, 90.41 18.27, 94.14 16.47 C97.88 14.67, 101.69 13.01, 105.54 11.5 C109.4 9.98, 113.32 8.61, 117.28 7.39 C121.24 6.17, 125.26 5.09, 129.29 4.17 C133.33 3.25, 137.42 2.47, 141.51 1.86 C145.61 1.24, 149.74 0.77, 153.87 0.47 C158 0.16, 162.16 0, 166.3 0 C170.44 0, 174.6 0.16, 178.73 0.47 C182.86 0.77, 186.99 1.24, 191.09 1.86 C195.18 2.47, 199.27 3.25, 203.3 4.17 C207.34 5.09, 211.36 6.17, 215.32 7.39 C219.28 8.61, 223.2 9.98, 227.06 11.5 C230.91 13.01, 234.72 14.67, 238.45 16.47 C242.19 18.27, 245.86 20.21, 249.45 22.28 C253.04 24.35, 256.56 26.56, 259.98 28.9 C263.4 31.23, 266.75 33.7, 269.99 36.28 C273.22 38.86, 276.38 41.58, 279.41 44.39 C282.45 47.21, 285.39 50.15, 288.21 53.19 C291.02 56.22, 293.74 59.37, 296.32 62.61 C298.9 65.85, 301.37 69.2, 303.7 72.62 C306.04 76.04, 308.25 79.56, 310.32 83.15 C312.39 86.74, 314.33 90.41, 316.13 94.14 C317.93 97.88, 319.59 101.69, 321.1 105.54 C322.62 109.4, 323.99 113.32, 325.21 117.28 C326.43 121.24, 327.51 125.26, 328.43 129.29 C329.35 133.33, 330.12 137.42, 330.74 141.51 C331.36 145.61, 331.82 149.74, 332.13 153.87 C332.44 158, 332.6 162.16, 332.6 166.3" stroke="#E1E1E1" stroke-width="4" fill="none"></path></g><g stroke-linecap="round" transform="translate(55.801874281616165 346.2715147499939) rotate(0 166.2996334604593 166.2996334604593)"><path d="M332.6 166.3 C332.6 170.44, 332.44 174.6, 332.13 178.73 C331.82 182.86, 331.36 186.99, 330.74 191.09 C330.12 195.18, 329.35 199.27, 328.43 203.3 C327.51 207.34, 326.43 211.36, 325.21 215.32 C323.99 219.28, 322.62 223.2, 321.1 227.06 C319.59 230.91, 317.93 234.72, 316.13 238.45 C314.33 242.19, 312.39 245.86, 310.32 249.45 C308.25 253.04, 306.04 256.56, 303.7 259.98 C301.37 263.4, 298.9 266.75, 296.32 269.99 C293.74 273.22, 291.02 276.38, 288.21 279.41 C285.39 282.45, 282.45 285.39, 279.41 288.21 C276.38 291.02, 273.22 293.74, 269.99 296.32 C266.75 298.9, 263.4 301.37, 259.98 303.7 C256.56 306.04, 253.04 308.25, 249.45 310.32 C245.86 312.39, 242.19 314.33, 238.45 316.13 C234.72 317.93, 230.91 319.59, 227.06 321.1 C223.2 322.62, 219.28 323.99, 215.32 325.21 C211.36 326.43, 207.34 327.51, 203.3 328.43 C199.27 329.35, 195.18 330.12, 191.09 330.74 C186.99 331.36, 182.86 331.82, 178.73 332.13 C174.6 332.44, 170.44 332.6, 166.3 332.6 C162.16 332.6, 158 332.44, 153.87 332.13 C149.74 331.82, 145.61 331.36, 141.51 330.74 C137.42 330.12, 133.33 329.35, 129.29 328.43 C125.26 327.51, 121.24 326.43, 117.28 325.21 C113.32 323.99, 109.4 322.62, 105.54 321.1 C101.69 319.59, 97.88 317.93, 94.14 316.13 C90.41 314.33, 86.74 312.39, 83.15 310.32 C79.56 308.25, 76.04 306.04, 72.62 303.7 C69.2 301.37, 65.85 298.9, 62.61 296.32 C59.37 293.74, 56.22 291.02, 53.19 288.21 C50.15 285.39, 47.21 282.45, 44.39 279.41 C41.58 276.38, 38.86 273.22, 36.28 269.99 C33.7 266.75, 31.23 263.4, 28.9 259.98 C26.56 256.56, 24.35 253.04, 22.28 249.45 C20.21 245.86, 18.27 242.19, 16.47 238.45 C14.67 234.72, 13.01 230.91, 11.5 227.06 C9.98 223.2, 8.61 219.28, 7.39 215.32 C6.17 211.36, 5.09 207.34, 4.17 203.3 C3.25 199.27, 2.47 195.18, 1.86 191.09 C1.24 186.99, 0.77 182.86, 0.47 178.73 C0.16 174.6, 0 170.44, 0 166.3 C0 162.16, 0.16 158, 0.47 153.87 C0.77 149.74, 1.24 145.61, 1.86 141.51 C2.47 137.42, 3.25 133.33, 4.17 129.29 C5.09 125.26, 6.17 121.24, 7.39 117.28 C8.61 113.32, 9.98 109.4, 11.5 105.54 C13.01 101.69, 14.67 97.88, 16.47 94.14 C18.27 90.41, 20.21 86.74, 22.28 83.15 C24.35 79.56, 26.56 76.04, 28.9 72.62 C31.23 69.2, 33.7 65.85, 36.28 62.61 C38.86 59.37, 41.58 56.22, 44.39 53.19 C47.21 50.15, 50.15 47.21, 53.19 44.39 C56.22 41.58, 59.37 38.86, 62.61 36.28 C65.85 33.7, 69.2 31.23, 72.62 28.9 C76.04 26.56, 79.56 24.35, 83.15 22.28 C86.74 20.21, 90.41 18.27, 94.14 16.47 C97.88 14.67, 101.69 13.01, 105.54 11.5 C109.4 9.98, 113.32 8.61, 117.28 7.39 C121.24 6.17, 125.26 5.09, 129.29 4.17 C133.33 3.25, 137.42 2.47, 141.51 1.86 C145.61 1.24, 149.74 0.77, 153.87 0.47 C158 0.16, 162.16 0, 166.3 0 C170.44 0, 174.6 0.16, 178.73 0.47 C182.86 0.77, 186.99 1.24, 191.09 1.86 C195.18 2.47, 199.27 3.25, 203.3 4.17 C207.34 5.09, 211.36 6.17, 215.32 7.39 C219.28 8.61, 223.2 9.98, 227.06 11.5 C230.91 13.01, 234.72 14.67, 238.45 16.47 C242.19 18.27, 245.86 20.21, 249.45 22.28 C253.04 24.35, 256.56 26.56, 259.98 28.9 C263.4 31.23, 266.75 33.7, 269.99 36.28 C273.22 38.86, 276.38 41.58, 279.41 44.39 C282.45 47.21, 285.39 50.15, 288.21 53.19 C291.02 56.22, 293.74 59.37, 296.32 62.61 C298.9 65.85, 301.37 69.2, 303.7 72.62 C306.04 76.04, 308.25 79.56, 310.32 83.15 C312.39 86.74, 314.33 90.41, 316.13 94.14 C317.93 97.88, 319.59 101.69, 321.1 105.54 C322.62 109.4, 323.99 113.32, 325.21 117.28 C326.43 121.24, 327.51 125.26, 328.43 129.29 C329.35 133.33, 330.12 137.42, 330.74 141.51 C331.36 145.61, 331.82 149.74, 332.13 153.87 C332.44 158, 332.6 162.16, 332.6 166.3" stroke="#E1E1E1" stroke-width="4" fill="none"></path></g><g stroke-linecap="round" transform="translate(56.01918569934742 177.41571403024273) rotate(0 166.2996334604593 166.2996334604593)"><path d="M332.6 166.3 C332.6 170.44, 332.44 174.6, 332.13 178.73 C331.82 182.86, 331.36 186.99, 330.74 191.09 C330.12 195.18, 329.35 199.27, 328.43 203.3 C327.51 207.34, 326.43 211.36, 325.21 215.32 C323.99 219.28, 322.62 223.2, 321.1 227.06 C319.59 230.91, 317.93 234.72, 316.13 238.45 C314.33 242.19, 312.39 245.86, 310.32 249.45 C308.25 253.04, 306.04 256.56, 303.7 259.98 C301.37 263.4, 298.9 266.75, 296.32 269.99 C293.74 273.22, 291.02 276.38, 288.21 279.41 C285.39 282.45, 282.45 285.39, 279.41 288.21 C276.38 291.02, 273.22 293.74, 269.99 296.32 C266.75 298.9, 263.4 301.37, 259.98 303.7 C256.56 306.04, 253.04 308.25, 249.45 310.32 C245.86 312.39, 242.19 314.33, 238.45 316.13 C234.72 317.93, 230.91 319.59, 227.06 321.1 C223.2 322.62, 219.28 323.99, 215.32 325.21 C211.36 326.43, 207.34 327.51, 203.3 328.43 C199.27 329.35, 195.18 330.12, 191.09 330.74 C186.99 331.36, 182.86 331.82, 178.73 332.13 C174.6 332.44, 170.44 332.6, 166.3 332.6 C162.16 332.6, 158 332.44, 153.87 332.13 C149.74 331.82, 145.61 331.36, 141.51 330.74 C137.42 330.12, 133.33 329.35, 129.29 328.43 C125.26 327.51, 121.24 326.43, 117.28 325.21 C113.32 323.99, 109.4 322.62, 105.54 321.1 C101.69 319.59, 97.88 317.93, 94.14 316.13 C90.41 314.33, 86.74 312.39, 83.15 310.32 C79.56 308.25, 76.04 306.04, 72.62 303.7 C69.2 301.37, 65.85 298.9, 62.61 296.32 C59.37 293.74, 56.22 291.02, 53.19 288.21 C50.15 285.39, 47.21 282.45, 44.39 279.41 C41.58 276.38, 38.86 273.22, 36.28 269.99 C33.7 266.75, 31.23 263.4, 28.9 259.98 C26.56 256.56, 24.35 253.04, 22.28 249.45 C20.21 245.86, 18.27 242.19, 16.47 238.45 C14.67 234.72, 13.01 230.91, 11.5 227.06 C9.98 223.2, 8.61 219.28, 7.39 215.32 C6.17 211.36, 5.09 207.34, 4.17 203.3 C3.25 199.27, 2.47 195.18, 1.86 191.09 C1.24 186.99, 0.77 182.86, 0.47 178.73 C0.16 174.6, 0 170.44, 0 166.3 C0 162.16, 0.16 158, 0.47 153.87 C0.77 149.74, 1.24 145.61, 1.86 141.51 C2.47 137.42, 3.25 133.33, 4.17 129.29 C5.09 125.26, 6.17 121.24, 7.39 117.28 C8.61 113.32, 9.98 109.4, 11.5 105.54 C13.01 101.69, 14.67 97.88, 16.47 94.14 C18.27 90.41, 20.21 86.74, 22.28 83.15 C24.35 79.56, 26.56 76.04, 28.9 72.62 C31.23 69.2, 33.7 65.85, 36.28 62.61 C38.86 59.37, 41.58 56.22, 44.39 53.19 C47.21 50.15, 50.15 47.21, 53.19 44.39 C56.22 41.58, 59.37 38.86, 62.61 36.28 C65.85 33.7, 69.2 31.23, 72.62 28.9 C76.04 26.56, 79.56 24.35, 83.15 22.28 C86.74 20.21, 90.41 18.27, 94.14 16.47 C97.88 14.67, 101.69 13.01, 105.54 11.5 C109.4 9.98, 113.32 8.61, 117.28 7.39 C121.24 6.17, 125.26 5.09, 129.29 4.17 C133.33 3.25, 137.42 2.47, 141.51 1.86 C145.61 1.24, 149.74 0.77, 153.87 0.47 C158 0.16, 162.16 0, 166.3 0 C170.44 0, 174.6 0.16, 178.73 0.47 C182.86 0.77, 186.99 1.24, 191.09 1.86 C195.18 2.47, 199.27 3.25, 203.3 4.17 C207.34 5.09, 211.36 6.17, 215.32 7.39 C219.28 8.61, 223.2 9.98, 227.06 11.5 C230.91 13.01, 234.72 14.67, 238.45 16.47 C242.19 18.27, 245.86 20.21, 249.45 22.28 C253.04 24.35, 256.56 26.56, 259.98 28.9 C263.4 31.23, 266.75 33.7, 269.99 36.28 C273.22 38.86, 276.38 41.58, 279.41 44.39 C282.45 47.21, 285.39 50.15, 288.21 53.19 C291.02 56.22, 293.74 59.37, 296.32 62.61 C298.9 65.85, 301.37 69.2, 303.7 72.62 C306.04 76.04, 308.25 79.56, 310.32 83.15 C312.39 86.74, 314.33 90.41, 316.13 94.14 C317.93 97.88, 319.59 101.69, 321.1 105.54 C322.62 109.4, 323.99 113.32, 325.21 117.28 C326.43 121.24, 327.51 125.26, 328.43 129.29 C329.35 133.33, 330.12 137.42, 330.74 141.51 C331.36 145.61, 331.82 149.74, 332.13 153.87 C332.44 158, 332.6 162.16, 332.6 166.3" stroke="#E1E1E1" stroke-width="4" fill="none"></path></g><g stroke-linecap="round" transform="translate(200.3075747475782 95.093319851052) rotate(0 166.2996334604593 166.2996334604593)"><path d="M332.6 166.3 C332.6 170.44, 332.44 174.6, 332.13 178.73 C331.82 182.86, 331.36 186.99, 330.74 191.09 C330.12 195.18, 329.35 199.27, 328.43 203.3 C327.51 207.34, 326.43 211.36, 325.21 215.32 C323.99 219.28, 322.62 223.2, 321.1 227.06 C319.59 230.91, 317.93 234.72, 316.13 238.45 C314.33 242.19, 312.39 245.86, 310.32 249.45 C308.25 253.04, 306.04 256.56, 303.7 259.98 C301.37 263.4, 298.9 266.75, 296.32 269.99 C293.74 273.22, 291.02 276.38, 288.21 279.41 C285.39 282.45, 282.45 285.39, 279.41 288.21 C276.38 291.02, 273.22 293.74, 269.99 296.32 C266.75 298.9, 263.4 301.37, 259.98 303.7 C256.56 306.04, 253.04 308.25, 249.45 310.32 C245.86 312.39, 242.19 314.33, 238.45 316.13 C234.72 317.93, 230.91 319.59, 227.06 321.1 C223.2 322.62, 219.28 323.99, 215.32 325.21 C211.36 326.43, 207.34 327.51, 203.3 328.43 C199.27 329.35, 195.18 330.12, 191.09 330.74 C186.99 331.36, 182.86 331.82, 178.73 332.13 C174.6 332.44, 170.44 332.6, 166.3 332.6 C162.16 332.6, 158 332.44, 153.87 332.13 C149.74 331.82, 145.61 331.36, 141.51 330.74 C137.42 330.12, 133.33 329.35, 129.29 328.43 C125.26 327.51, 121.24 326.43, 117.28 325.21 C113.32 323.99, 109.4 322.62, 105.54 321.1 C101.69 319.59, 97.88 317.93, 94.14 316.13 C90.41 314.33, 86.74 312.39, 83.15 310.32 C79.56 308.25, 76.04 306.04, 72.62 303.7 C69.2 301.37, 65.85 298.9, 62.61 296.32 C59.37 293.74, 56.22 291.02, 53.19 288.21 C50.15 285.39, 47.21 282.45, 44.39 279.41 C41.58 276.38, 38.86 273.22, 36.28 269.99 C33.7 266.75, 31.23 263.4, 28.9 259.98 C26.56 256.56, 24.35 253.04, 22.28 249.45 C20.21 245.86, 18.27 242.19, 16.47 238.45 C14.67 234.72, 13.01 230.91, 11.5 227.06 C9.98 223.2, 8.61 219.28, 7.39 215.32 C6.17 211.36, 5.09 207.34, 4.17 203.3 C3.25 199.27, 2.47 195.18, 1.86 191.09 C1.24 186.99, 0.77 182.86, 0.47 178.73 C0.16 174.6, 0 170.44, 0 166.3 C0 162.16, 0.16 158, 0.47 153.87 C0.77 149.74, 1.24 145.61, 1.86 141.51 C2.47 137.42, 3.25 133.33, 4.17 129.29 C5.09 125.26, 6.17 121.24, 7.39 117.28 C8.61 113.32, 9.98 109.4, 11.5 105.54 C13.01 101.69, 14.67 97.88, 16.47 94.14 C18.27 90.41, 20.21 86.74, 22.28 83.15 C24.35 79.56, 26.56 76.04, 28.9 72.62 C31.23 69.2, 33.7 65.85, 36.28 62.61 C38.86 59.37, 41.58 56.22, 44.39 53.19 C47.21 50.15, 50.15 47.21, 53.19 44.39 C56.22 41.58, 59.37 38.86, 62.61 36.28 C65.85 33.7, 69.2 31.23, 72.62 28.9 C76.04 26.56, 79.56 24.35, 83.15 22.28 C86.74 20.21, 90.41 18.27, 94.14 16.47 C97.88 14.67, 101.69 13.01, 105.54 11.5 C109.4 9.98, 113.32 8.61, 117.28 7.39 C121.24 6.17, 125.26 5.09, 129.29 4.17 C133.33 3.25, 137.42 2.47, 141.51 1.86 C145.61 1.24, 149.74 0.77, 153.87 0.47 C158 0.16, 162.16 0, 166.3 0 C170.44 0, 174.6 0.16, 178.73 0.47 C182.86 0.77, 186.99 1.24, 191.09 1.86 C195.18 2.47, 199.27 3.25, 203.3 4.17 C207.34 5.09, 211.36 6.17, 215.32 7.39 C219.28 8.61, 223.2 9.98, 227.06 11.5 C230.91 13.01, 234.72 14.67, 238.45 16.47 C242.19 18.27, 245.86 20.21, 249.45 22.28 C253.04 24.35, 256.56 26.56, 259.98 28.9 C263.4 31.23, 266.75 33.7, 269.99 36.28 C273.22 38.86, 276.38 41.58, 279.41 44.39 C282.45 47.21, 285.39 50.15, 288.21 53.19 C291.02 56.22, 293.74 59.37, 296.32 62.61 C298.9 65.85, 301.37 69.2, 303.7 72.62 C306.04 76.04, 308.25 79.56, 310.32 83.15 C312.39 86.74, 314.33 90.41, 316.13 94.14 C317.93 97.88, 319.59 101.69, 321.1 105.54 C322.62 109.4, 323.99 113.32, 325.21 117.28 C326.43 121.24, 327.51 125.26, 328.43 129.29 C329.35 133.33, 330.12 137.42, 330.74 141.51 C331.36 145.61, 331.82 149.74, 332.13 153.87 C332.44 158, 332.6 162.16, 332.6 166.3" stroke="#E1E1E1" stroke-width="4" fill="none"></path></g><g stroke-linecap="round" transform="translate(10 10) rotate(0 500.0284730775643 500.0284730775643)"><path d="M1000.06 500.03 C1000.06 507.3, 999.9 514.58, 999.58 521.84 C999.26 529.1, 998.79 536.37, 998.15 543.61 C997.52 550.85, 996.73 558.09, 995.78 565.3 C994.83 572.5, 993.72 579.7, 992.46 586.86 C991.2 594.02, 989.78 601.16, 988.2 608.25 C986.63 615.35, 984.9 622.42, 983.02 629.45 C981.14 636.47, 979.1 643.46, 976.91 650.39 C974.73 657.32, 972.39 664.22, 969.9 671.05 C967.41 677.88, 964.78 684.66, 961.99 691.38 C959.21 698.1, 956.28 704.76, 953.21 711.35 C950.14 717.94, 946.92 724.47, 943.56 730.92 C940.2 737.36, 936.7 743.75, 933.07 750.04 C929.43 756.34, 925.65 762.56, 921.75 768.69 C917.84 774.83, 913.8 780.88, 909.63 786.83 C905.46 792.79, 901.15 798.66, 896.73 804.43 C892.3 810.19, 887.75 815.87, 883.07 821.44 C878.4 827.01, 873.6 832.48, 868.69 837.84 C863.78 843.2, 858.74 848.46, 853.6 853.6 C848.46 858.74, 843.2 863.78, 837.84 868.69 C832.48 873.6, 827.01 878.4, 821.44 883.07 C815.87 887.75, 810.19 892.3, 804.43 896.73 C798.66 901.15, 792.79 905.46, 786.83 909.63 C780.88 913.8, 774.83 917.84, 768.69 921.75 C762.56 925.65, 756.34 929.43, 750.04 933.07 C743.75 936.7, 737.36 940.2, 730.92 943.56 C724.47 946.92, 717.94 950.14, 711.35 953.21 C704.76 956.28, 698.1 959.21, 691.38 961.99 C684.66 964.78, 677.88 967.41, 671.05 969.9 C664.22 972.39, 657.32 974.73, 650.39 976.91 C643.46 979.1, 636.47 981.14, 629.45 983.02 C622.42 984.9, 615.35 986.63, 608.25 988.2 C601.16 989.78, 594.02 991.2, 586.86 992.46 C579.7 993.72, 572.5 994.83, 565.3 995.78 C558.09 996.73, 550.85 997.52, 543.61 998.15 C536.37 998.79, 529.1 999.26, 521.84 999.58 C514.58 999.9, 507.3 1000.06, 500.03 1000.06 C492.76 1000.06, 485.48 999.9, 478.22 999.58 C470.95 999.26, 463.69 998.79, 456.45 998.15 C449.21 997.52, 441.97 996.73, 434.76 995.78 C427.55 994.83, 420.36 993.72, 413.2 992.46 C406.04 991.2, 398.9 989.78, 391.8 988.2 C384.7 986.63, 377.63 984.9, 370.61 983.02 C363.59 981.14, 356.6 979.1, 349.67 976.91 C342.73 974.73, 335.84 972.39, 329.01 969.9 C322.18 967.41, 315.39 964.78, 308.68 961.99 C301.96 959.21, 295.3 956.28, 288.71 953.21 C282.12 950.14, 275.59 946.92, 269.14 943.56 C262.69 940.2, 256.31 936.7, 250.01 933.07 C243.72 929.43, 237.5 925.65, 231.36 921.75 C225.23 917.84, 219.18 913.8, 213.22 909.63 C207.27 905.46, 201.4 901.15, 195.63 896.73 C189.86 892.3, 184.19 887.75, 178.62 883.07 C173.05 878.4, 167.57 873.6, 162.21 868.69 C156.85 863.78, 151.6 858.74, 146.45 853.6 C141.31 848.46, 136.28 843.2, 131.37 837.84 C126.46 832.48, 121.66 827.01, 116.98 821.44 C112.31 815.87, 107.76 810.19, 103.33 804.43 C98.9 798.66, 94.6 792.79, 90.43 786.83 C86.26 780.88, 82.22 774.83, 78.31 768.69 C74.4 762.56, 70.63 756.34, 66.99 750.04 C63.36 743.75, 59.85 737.36, 56.5 730.92 C53.14 724.47, 49.92 717.94, 46.85 711.35 C43.78 704.76, 40.84 698.1, 38.06 691.38 C35.28 684.66, 32.64 677.88, 30.16 671.05 C27.67 664.22, 25.33 657.32, 23.14 650.39 C20.96 643.46, 18.92 636.47, 17.04 629.45 C15.16 622.42, 13.43 615.35, 11.85 608.25 C10.28 601.16, 8.86 594.02, 7.6 586.86 C6.33 579.7, 5.23 572.5, 4.28 565.3 C3.33 558.09, 2.54 550.85, 1.9 543.61 C1.27 536.37, 0.79 529.1, 0.48 521.84 C0.16 514.58, 0 507.3, 0 500.03 C0 492.76, 0.16 485.48, 0.48 478.22 C0.79 470.95, 1.27 463.69, 1.9 456.45 C2.54 449.21, 3.33 441.97, 4.28 434.76 C5.23 427.55, 6.33 420.36, 7.6 413.2 C8.86 406.04, 10.28 398.9, 11.85 391.8 C13.43 384.7, 15.16 377.63, 17.04 370.61 C18.92 363.59, 20.96 356.6, 23.14 349.67 C25.33 342.73, 27.67 335.84, 30.16 329.01 C32.64 322.18, 35.28 315.39, 38.06 308.68 C40.84 301.96, 43.78 295.3, 46.85 288.71 C49.92 282.12, 53.14 275.59, 56.5 269.14 C59.85 262.69, 63.36 256.31, 66.99 250.01 C70.63 243.72, 74.4 237.5, 78.31 231.36 C82.22 225.23, 86.26 219.18, 90.43 213.22 C94.6 207.27, 98.9 201.4, 103.33 195.63 C107.76 189.86, 112.31 184.19, 116.98 178.62 C121.66 173.05, 126.46 167.57, 131.37 162.21 C136.28 156.85, 141.31 151.6, 146.45 146.45 C151.6 141.31, 156.85 136.28, 162.21 131.37 C167.57 126.46, 173.05 121.66, 178.62 116.98 C184.19 112.31, 189.86 107.76, 195.63 103.33 C201.4 98.9, 207.27 94.6, 213.22 90.43 C219.18 86.26, 225.23 82.22, 231.36 78.31 C237.5 74.4, 243.72 70.63, 250.01 66.99 C256.31 63.36, 262.69 59.85, 269.14 56.5 C275.59 53.14, 282.12 49.92, 288.71 46.85 C295.3 43.78, 301.96 40.84, 308.68 38.06 C315.39 35.28, 322.18 32.64, 329.01 30.16 C335.84 27.67, 342.73 25.33, 349.67 23.14 C356.6 20.96, 363.59 18.92, 370.61 17.04 C377.63 15.16, 384.7 13.43, 391.8 11.85 C398.9 10.28, 406.04 8.86, 413.2 7.6 C420.36 6.33, 427.55 5.23, 434.76 4.28 C441.97 3.33, 449.21 2.54, 456.45 1.9 C463.69 1.27, 470.95 0.79, 478.22 0.48 C485.48 0.16, 492.76 0, 500.03 0 C507.3 0, 514.58 0.16, 521.84 0.48 C529.1 0.79, 536.37 1.27, 543.61 1.9 C550.85 2.54, 558.09 3.33, 565.3 4.28 C572.5 5.23, 579.7 6.33, 586.86 7.6 C594.02 8.86, 601.16 10.28, 608.25 11.85 C615.35 13.43, 622.42 15.16, 629.45 17.04 C636.47 18.92, 643.46 20.96, 650.39 23.14 C657.32 25.33, 664.22 27.67, 671.05 30.16 C677.88 32.64, 684.66 35.28, 691.38 38.06 C698.1 40.84, 704.76 43.78, 711.35 46.85 C717.94 49.92, 724.47 53.14, 730.92 56.5 C737.36 59.85, 743.75 63.36, 750.04 66.99 C756.34 70.63, 762.56 74.4, 768.69 78.31 C774.83 82.22, 780.88 86.26, 786.83 90.43 C792.79 94.6, 798.66 98.9, 804.43 103.33 C810.19 107.76, 815.87 112.31, 821.44 116.98 C827.01 121.66, 832.48 126.46, 837.84 131.37 C843.2 136.28, 848.46 141.31, 853.6 146.45 C858.74 151.6, 863.78 156.85, 868.69 162.21 C873.6 167.57, 878.4 173.05, 883.07 178.62 C887.75 184.19, 892.3 189.86, 896.73 195.63 C901.15 201.4, 905.46 207.27, 909.63 213.22 C913.8 219.18, 917.84 225.23, 921.75 231.36 C925.65 237.5, 929.43 243.72, 933.07 250.01 C936.7 256.31, 940.2 262.69, 943.56 269.14 C946.92 275.59, 950.14 282.12, 953.21 288.71 C956.28 295.3, 959.21 301.96, 961.99 308.68 C964.78 315.39, 967.41 322.18, 969.9 329.01 C972.39 335.84, 974.73 342.73, 976.91 349.67 C979.1 356.6, 981.14 363.59, 983.02 370.61 C984.9 377.63, 986.63 384.7, 988.2 391.8 C989.78 398.9, 991.2 406.04, 992.46 413.2 C993.72 420.36, 994.83 427.55, 995.78 434.76 C996.73 441.97, 997.52 449.21, 998.15 456.45 C998.79 463.69, 999.26 470.95, 999.58 478.22 C999.9 485.48, 999.98 496.39, 1000.06 500.03 C1000.14 503.66, 1000.14 496.39, 1000.06 500.03" stroke="#E1E1E1" stroke-width="4" fill="none"></path></g></svg>