<svg version="1.1" xmlns="http://www.w3.org/2000/svg" viewBox="0 0 301.6865189213504 301.62991282220946" width="301.6865189213504" height="301.62991282220946" class="excalidraw-svg"><!-- svg-source:excalidraw --><metadata></metadata><defs><style class="style-fonts">
      </style></defs><rect x="0" y="0" width="301.6865189213504" height="301.62991282220946" fill="#000000"></rect><g stroke-linecap="round"><g transform="translate(23.116481138157724 23.02057065940744) rotate(0 33.61917128952882 33.75732529498714)"><path d="M0 0 C0 5.17, 0 20.57, 0 31.04 C0 41.51, -0.01 55.98, 0 62.83 C0.01 69.67, 0.15 69.86, 0.06 72.11 C-0.04 74.35, -0.06 75.08, -0.59 76.28 C-1.12 77.48, -2.11 78.61, -3.14 79.31 C-4.18 80, -5.61 80.45, -6.78 80.44 C-7.96 80.44, -9.25 79.95, -10.21 79.26 C-11.17 78.57, -12.08 77.73, -12.55 76.31 C-13.03 74.89, -12.97 74.49, -13.05 70.76 C-13.13 67.03, -13.05 60.67, -13.05 53.92 C-13.05 47.17, -13.05 37.85, -13.05 30.26 C-13.05 22.68, -13.05 14.1, -13.05 8.4 C-13.05 2.71, -13.1 -1.09, -13.05 -3.92 C-13 -6.76, -13.16 -7.32, -12.75 -8.61 C-12.34 -9.9, -11.44 -10.96, -10.59 -11.67 C-9.73 -12.37, -9.27 -12.64, -7.61 -12.85 C-5.96 -13.06, -5.01 -12.92, -0.68 -12.93 C3.65 -12.94, 9.33 -12.93, 18.38 -12.93 C27.43 -12.93, 45.5 -12.93, 53.6 -12.93 C61.7 -12.93, 63.64 -12.93, 66.98 -12.93 C70.32 -12.93, 71.88 -13.14, 73.66 -12.93 C75.45 -12.72, 76.59 -12.57, 77.69 -11.69 C78.8 -10.8, 80.01 -9.07, 80.29 -7.62 C80.56 -6.17, 80.12 -4.22, 79.33 -3 C78.55 -1.78, 77.65 -0.81, 75.57 -0.3 C73.48 0.2, 72.93 -0.02, 66.82 0.04 C60.7 0.09, 50 0.04, 38.86 0.04 C27.73 0.03, 6.48 0.01, 0 0 M0 0 C0 5.17, 0 20.57, 0 31.04 C0 41.51, -0.01 55.98, 0 62.83 C0.01 69.67, 0.15 69.86, 0.06 72.11 C-0.04 74.35, -0.06 75.08, -0.59 76.28 C-1.12 77.48, -2.11 78.61, -3.14 79.31 C-4.18 80, -5.61 80.45, -6.78 80.44 C-7.96 80.44, -9.25 79.95, -10.21 79.26 C-11.17 78.57, -12.08 77.73, -12.55 76.31 C-13.03 74.89, -12.97 74.49, -13.05 70.76 C-13.13 67.03, -13.05 60.67, -13.05 53.92 C-13.05 47.17, -13.05 37.85, -13.05 30.26 C-13.05 22.68, -13.05 14.1, -13.05 8.4 C-13.05 2.71, -13.1 -1.09, -13.05 -3.92 C-13 -6.76, -13.16 -7.32, -12.75 -8.61 C-12.34 -9.9, -11.44 -10.96, -10.59 -11.67 C-9.73 -12.37, -9.27 -12.64, -7.61 -12.85 C-5.96 -13.06, -5.01 -12.92, -0.68 -12.93 C3.65 -12.94, 9.33 -12.93, 18.38 -12.93 C27.43 -12.93, 45.5 -12.93, 53.6 -12.93 C61.7 -12.93, 63.64 -12.93, 66.98 -12.93 C70.32 -12.93, 71.88 -13.14, 73.66 -12.93 C75.45 -12.72, 76.59 -12.57, 77.69 -11.69 C78.8 -10.8, 80.01 -9.07, 80.29 -7.62 C80.56 -6.17, 80.12 -4.22, 79.33 -3 C78.55 -1.78, 77.65 -0.81, 75.57 -0.3 C73.48 0.2, 72.93 -0.02, 66.82 0.04 C60.7 0.09, 50 0.04, 38.86 0.04 C27.73 0.03, 6.48 0.01, 0 0" stroke="#E1E1E1" stroke-width="4" fill="none"></path></g></g><mask></mask><g stroke-linecap="round"><g transform="translate(23.08563500193941 278.609342162802) rotate(0 33.61917128952882 -33.75732529498714)"><path d="M0 0 C0 -5.17, 0 -20.57, 0 -31.04 C0 -41.51, -0.01 -55.98, 0 -62.83 C0.01 -69.67, 0.15 -69.86, 0.06 -72.11 C-0.04 -74.35, -0.06 -75.08, -0.59 -76.28 C-1.12 -77.48, -2.11 -78.61, -3.14 -79.31 C-4.18 -80, -5.61 -80.45, -6.78 -80.44 C-7.96 -80.44, -9.25 -79.95, -10.21 -79.26 C-11.17 -78.57, -12.08 -77.73, -12.55 -76.31 C-13.03 -74.89, -12.97 -74.49, -13.05 -70.76 C-13.13 -67.03, -13.05 -60.67, -13.05 -53.92 C-13.05 -47.17, -13.05 -37.85, -13.05 -30.26 C-13.05 -22.68, -13.05 -14.1, -13.05 -8.4 C-13.05 -2.71, -13.1 1.09, -13.05 3.92 C-13 6.76, -13.16 7.32, -12.75 8.61 C-12.34 9.9, -11.44 10.96, -10.59 11.67 C-9.73 12.37, -9.27 12.64, -7.61 12.85 C-5.96 13.06, -5.01 12.92, -0.68 12.93 C3.65 12.94, 9.33 12.93, 18.38 12.93 C27.43 12.93, 45.5 12.93, 53.6 12.93 C61.7 12.93, 63.64 12.93, 66.98 12.93 C70.32 12.93, 71.88 13.14, 73.66 12.93 C75.45 12.72, 76.59 12.57, 77.69 11.69 C78.8 10.8, 80.01 9.07, 80.29 7.62 C80.56 6.17, 80.12 4.22, 79.33 3 C78.55 1.78, 77.65 0.81, 75.57 0.3 C73.48 -0.2, 72.93 0.02, 66.82 -0.04 C60.7 -0.09, 50 -0.04, 38.86 -0.04 C27.73 -0.03, 6.48 -0.01, 0 0 M0 0 C0 -5.17, 0 -20.57, 0 -31.04 C0 -41.51, -0.01 -55.98, 0 -62.83 C0.01 -69.67, 0.15 -69.86, 0.06 -72.11 C-0.04 -74.35, -0.06 -75.08, -0.59 -76.28 C-1.12 -77.48, -2.11 -78.61, -3.14 -79.31 C-4.18 -80, -5.61 -80.45, -6.78 -80.44 C-7.96 -80.44, -9.25 -79.95, -10.21 -79.26 C-11.17 -78.57, -12.08 -77.73, -12.55 -76.31 C-13.03 -74.89, -12.97 -74.49, -13.05 -70.76 C-13.13 -67.03, -13.05 -60.67, -13.05 -53.92 C-13.05 -47.17, -13.05 -37.85, -13.05 -30.26 C-13.05 -22.68, -13.05 -14.1, -13.05 -8.4 C-13.05 -2.71, -13.1 1.09, -13.05 3.92 C-13 6.76, -13.16 7.32, -12.75 8.61 C-12.34 9.9, -11.44 10.96, -10.59 11.67 C-9.73 12.37, -9.27 12.64, -7.61 12.85 C-5.96 13.06, -5.01 12.92, -0.68 12.93 C3.65 12.94, 9.33 12.93, 18.38 12.93 C27.43 12.93, 45.5 12.93, 53.6 12.93 C61.7 12.93, 63.64 12.93, 66.98 12.93 C70.32 12.93, 71.88 13.14, 73.66 12.93 C75.45 12.72, 76.59 12.57, 77.69 11.69 C78.8 10.8, 80.01 9.07, 80.29 7.62 C80.56 6.17, 80.12 4.22, 79.33 3 C78.55 1.78, 77.65 0.81, 75.57 0.3 C73.48 -0.2, 72.93 0.02, 66.82 -0.04 C60.7 -0.09, 50 -0.04, 38.86 -0.04 C27.73 -0.03, 6.48 -0.01, 0 0" stroke="#E1E1E1" stroke-width="4" fill="none"></path></g></g><mask></mask><g stroke-linecap="round"><g transform="translate(278.600883919411 278.3733520540236) rotate(0 -33.61917128952882 -33.75732529498714)"><path d="M0 0 C0 -5.17, 0 -20.57, 0 -31.04 C0 -41.51, 0.01 -55.98, 0 -62.83 C-0.01 -69.67, -0.15 -69.86, -0.06 -72.11 C0.04 -74.35, 0.06 -75.08, 0.59 -76.28 C1.12 -77.48, 2.11 -78.61, 3.14 -79.31 C4.18 -80, 5.61 -80.45, 6.78 -80.44 C7.96 -80.44, 9.25 -79.95, 10.21 -79.26 C11.17 -78.57, 12.08 -77.73, 12.55 -76.31 C13.03 -74.89, 12.97 -74.49, 13.05 -70.76 C13.13 -67.03, 13.05 -60.67, 13.05 -53.92 C13.05 -47.17, 13.05 -37.85, 13.05 -30.26 C13.05 -22.68, 13.05 -14.1, 13.05 -8.4 C13.05 -2.71, 13.1 1.09, 13.05 3.92 C13 6.76, 13.16 7.32, 12.75 8.61 C12.34 9.9, 11.44 10.96, 10.59 11.67 C9.73 12.37, 9.27 12.64, 7.61 12.85 C5.96 13.06, 5.01 12.92, 0.68 12.93 C-3.65 12.94, -9.33 12.93, -18.38 12.93 C-27.43 12.93, -45.5 12.93, -53.6 12.93 C-61.7 12.93, -63.64 12.93, -66.98 12.93 C-70.32 12.93, -71.88 13.14, -73.66 12.93 C-75.45 12.72, -76.59 12.57, -77.69 11.69 C-78.8 10.8, -80.01 9.07, -80.29 7.62 C-80.56 6.17, -80.12 4.22, -79.33 3 C-78.55 1.78, -77.65 0.81, -75.57 0.3 C-73.48 -0.2, -72.93 0.02, -66.82 -0.04 C-60.7 -0.09, -50 -0.04, -38.86 -0.04 C-27.73 -0.03, -6.48 -0.01, 0 0 M0 0 C0 -5.17, 0 -20.57, 0 -31.04 C0 -41.51, 0.01 -55.98, 0 -62.83 C-0.01 -69.67, -0.15 -69.86, -0.06 -72.11 C0.04 -74.35, 0.06 -75.08, 0.59 -76.28 C1.12 -77.48, 2.11 -78.61, 3.14 -79.31 C4.18 -80, 5.61 -80.45, 6.78 -80.44 C7.96 -80.44, 9.25 -79.95, 10.21 -79.26 C11.17 -78.57, 12.08 -77.73, 12.55 -76.31 C13.03 -74.89, 12.97 -74.49, 13.05 -70.76 C13.13 -67.03, 13.05 -60.67, 13.05 -53.92 C13.05 -47.17, 13.05 -37.85, 13.05 -30.26 C13.05 -22.68, 13.05 -14.1, 13.05 -8.4 C13.05 -2.71, 13.1 1.09, 13.05 3.92 C13 6.76, 13.16 7.32, 12.75 8.61 C12.34 9.9, 11.44 10.96, 10.59 11.67 C9.73 12.37, 9.27 12.64, 7.61 12.85 C5.96 13.06, 5.01 12.92, 0.68 12.93 C-3.65 12.94, -9.33 12.93, -18.38 12.93 C-27.43 12.93, -45.5 12.93, -53.6 12.93 C-61.7 12.93, -63.64 12.93, -66.98 12.93 C-70.32 12.93, -71.88 13.14, -73.66 12.93 C-75.45 12.72, -76.59 12.57, -77.69 11.69 C-78.8 10.8, -80.01 9.07, -80.29 7.62 C-80.56 6.17, -80.12 4.22, -79.33 3 C-78.55 1.78, -77.65 0.81, -75.57 0.3 C-73.48 -0.2, -72.93 0.02, -66.82 -0.04 C-60.7 -0.09, -50 -0.04, -38.86 -0.04 C-27.73 -0.03, -6.48 -0.01, 0 0" stroke="#E1E1E1" stroke-width="4" fill="none"></path></g></g><mask></mask><g stroke-linecap="round"><g transform="translate(278.54612378367256 23.05923360739098) rotate(0 -33.61917128952882 33.75732529498714)"><path d="M0 0 C0 5.17, 0 20.57, 0 31.04 C0 41.51, 0.01 55.98, 0 62.83 C-0.01 69.67, -0.15 69.86, -0.06 72.11 C0.04 74.35, 0.06 75.08, 0.59 76.28 C1.12 77.48, 2.11 78.61, 3.14 79.31 C4.18 80, 5.61 80.45, 6.78 80.44 C7.96 80.44, 9.25 79.95, 10.21 79.26 C11.17 78.57, 12.08 77.73, 12.55 76.31 C13.03 74.89, 12.97 74.49, 13.05 70.76 C13.13 67.03, 13.05 60.67, 13.05 53.92 C13.05 47.17, 13.05 37.85, 13.05 30.26 C13.05 22.68, 13.05 14.1, 13.05 8.4 C13.05 2.71, 13.1 -1.09, 13.05 -3.92 C13 -6.76, 13.16 -7.32, 12.75 -8.61 C12.34 -9.9, 11.44 -10.96, 10.59 -11.67 C9.73 -12.37, 9.27 -12.64, 7.61 -12.85 C5.96 -13.06, 5.01 -12.92, 0.68 -12.93 C-3.65 -12.94, -9.33 -12.93, -18.38 -12.93 C-27.43 -12.93, -45.5 -12.93, -53.6 -12.93 C-61.7 -12.93, -63.64 -12.93, -66.98 -12.93 C-70.32 -12.93, -71.88 -13.14, -73.66 -12.93 C-75.45 -12.72, -76.59 -12.57, -77.69 -11.69 C-78.8 -10.8, -80.01 -9.07, -80.29 -7.62 C-80.56 -6.17, -80.12 -4.22, -79.33 -3 C-78.55 -1.78, -77.65 -0.81, -75.57 -0.3 C-73.48 0.2, -72.93 -0.02, -66.82 0.04 C-60.7 0.09, -50 0.04, -38.86 0.04 C-27.73 0.03, -6.48 0.01, 0 0 M0 0 C0 5.17, 0 20.57, 0 31.04 C0 41.51, 0.01 55.98, 0 62.83 C-0.01 69.67, -0.15 69.86, -0.06 72.11 C0.04 74.35, 0.06 75.08, 0.59 76.28 C1.12 77.48, 2.11 78.61, 3.14 79.31 C4.18 80, 5.61 80.45, 6.78 80.44 C7.96 80.44, 9.25 79.95, 10.21 79.26 C11.17 78.57, 12.08 77.73, 12.55 76.31 C13.03 74.89, 12.97 74.49, 13.05 70.76 C13.13 67.03, 13.05 60.67, 13.05 53.92 C13.05 47.17, 13.05 37.85, 13.05 30.26 C13.05 22.68, 13.05 14.1, 13.05 8.4 C13.05 2.71, 13.1 -1.09, 13.05 -3.92 C13 -6.76, 13.16 -7.32, 12.75 -8.61 C12.34 -9.9, 11.44 -10.96, 10.59 -11.67 C9.73 -12.37, 9.27 -12.64, 7.61 -12.85 C5.96 -13.06, 5.01 -12.92, 0.68 -12.93 C-3.65 -12.94, -9.33 -12.93, -18.38 -12.93 C-27.43 -12.93, -45.5 -12.93, -53.6 -12.93 C-61.7 -12.93, -63.64 -12.93, -66.98 -12.93 C-70.32 -12.93, -71.88 -13.14, -73.66 -12.93 C-75.45 -12.72, -76.59 -12.57, -77.69 -11.69 C-78.8 -10.8, -80.01 -9.07, -80.29 -7.62 C-80.56 -6.17, -80.12 -4.22, -79.33 -3 C-78.55 -1.78, -77.65 -0.81, -75.57 -0.3 C-73.48 0.2, -72.93 -0.02, -66.82 0.04 C-60.7 0.09, -50 0.04, -38.86 0.04 C-27.73 0.03, -6.48 0.01, 0 0" stroke="#E1E1E1" stroke-width="4" fill="none"></path></g></g><mask></mask><g stroke-linecap="round"><g transform="translate(232.0511767019343 69.747013370672) rotate(0 -19.538369628003693 19.453053470247596)"><path d="M0 0 C0 4.99, 0 23.31, 0 29.94 C0 36.56, -0.01 36.94, 0 39.76 C0.01 42.58, -0.36 45.02, 0.07 46.84 C0.5 48.67, 1.56 49.82, 2.57 50.73 C3.57 51.63, 4.89 52.17, 6.12 52.28 C7.35 52.4, 8.89 52.16, 9.95 51.44 C11.01 50.71, 11.97 49.35, 12.48 47.96 C12.98 46.56, 12.9 46.16, 12.99 43.05 C13.07 39.94, 12.99 34.9, 12.99 29.28 C12.99 23.66, 12.99 14.15, 12.99 9.32 C12.99 4.49, 12.97 2.9, 12.99 0.29 C13 -2.32, 13.21 -4.68, 13.07 -6.34 C12.94 -7.99, 12.71 -8.67, 12.18 -9.62 C11.65 -10.57, 10.89 -11.46, 9.9 -12.05 C8.91 -12.63, 8.57 -12.9, 6.24 -13.12 C3.91 -13.35, 2.25 -13.34, -4.06 -13.38 C-10.37 -13.42, -25.49 -13.38, -31.61 -13.38 C-37.72 -13.38, -38.23 -13.39, -40.73 -13.38 C-43.23 -13.37, -45.04 -13.61, -46.6 -13.3 C-48.16 -13, -49.18 -12.38, -50.1 -11.54 C-51.03 -10.7, -51.85 -9.51, -52.15 -8.26 C-52.45 -7.01, -52.46 -5.27, -51.88 -4.06 C-51.31 -2.84, -50.31 -1.61, -48.69 -0.95 C-47.07 -0.3, -46.53 -0.26, -42.19 -0.12 C-37.85 0.01, -29.68 -0.14, -22.65 -0.12 C-15.62 -0.1, -3.77 -0.02, 0 0 M0 0 C0 4.99, 0 23.31, 0 29.94 C0 36.56, -0.01 36.94, 0 39.76 C0.01 42.58, -0.36 45.02, 0.07 46.84 C0.5 48.67, 1.56 49.82, 2.57 50.73 C3.57 51.63, 4.89 52.17, 6.12 52.28 C7.35 52.4, 8.89 52.16, 9.95 51.44 C11.01 50.71, 11.97 49.35, 12.48 47.96 C12.98 46.56, 12.9 46.16, 12.99 43.05 C13.07 39.94, 12.99 34.9, 12.99 29.28 C12.99 23.66, 12.99 14.15, 12.99 9.32 C12.99 4.49, 12.97 2.9, 12.99 0.29 C13 -2.32, 13.21 -4.68, 13.07 -6.34 C12.94 -7.99, 12.71 -8.67, 12.18 -9.62 C11.65 -10.57, 10.89 -11.46, 9.9 -12.05 C8.91 -12.63, 8.57 -12.9, 6.24 -13.12 C3.91 -13.35, 2.25 -13.34, -4.06 -13.38 C-10.37 -13.42, -25.49 -13.38, -31.61 -13.38 C-37.72 -13.38, -38.23 -13.39, -40.73 -13.38 C-43.23 -13.37, -45.04 -13.61, -46.6 -13.3 C-48.16 -13, -49.18 -12.38, -50.1 -11.54 C-51.03 -10.7, -51.85 -9.51, -52.15 -8.26 C-52.45 -7.01, -52.46 -5.27, -51.88 -4.06 C-51.31 -2.84, -50.31 -1.61, -48.69 -0.95 C-47.07 -0.3, -46.53 -0.26, -42.19 -0.12 C-37.85 0.01, -29.68 -0.14, -22.65 -0.12 C-15.62 -0.1, -3.77 -0.02, 0 0" stroke="#E1E1E1" stroke-width="4" fill="none"></path></g></g><mask></mask><g stroke-linecap="round"><g transform="translate(232.0989833182157 231.76012926475642) rotate(0 -19.538369628003693 -19.453053470247596)"><path d="M0 0 C0 -4.99, 0 -23.31, 0 -29.94 C0 -36.56, -0.01 -36.94, 0 -39.76 C0.01 -42.58, -0.36 -45.02, 0.07 -46.84 C0.5 -48.67, 1.56 -49.82, 2.57 -50.73 C3.57 -51.63, 4.89 -52.17, 6.12 -52.28 C7.35 -52.4, 8.89 -52.16, 9.95 -51.44 C11.01 -50.71, 11.97 -49.35, 12.48 -47.96 C12.98 -46.56, 12.9 -46.16, 12.99 -43.05 C13.07 -39.94, 12.99 -34.9, 12.99 -29.28 C12.99 -23.66, 12.99 -14.15, 12.99 -9.32 C12.99 -4.49, 12.97 -2.9, 12.99 -0.29 C13 2.32, 13.21 4.68, 13.07 6.34 C12.94 7.99, 12.71 8.67, 12.18 9.62 C11.65 10.57, 10.89 11.46, 9.9 12.05 C8.91 12.63, 8.57 12.9, 6.24 13.12 C3.91 13.35, 2.25 13.34, -4.06 13.38 C-10.37 13.42, -25.49 13.38, -31.61 13.38 C-37.72 13.38, -38.23 13.39, -40.73 13.38 C-43.23 13.37, -45.04 13.61, -46.6 13.3 C-48.16 13, -49.18 12.38, -50.1 11.54 C-51.03 10.7, -51.85 9.51, -52.15 8.26 C-52.45 7.01, -52.46 5.27, -51.88 4.06 C-51.31 2.84, -50.31 1.61, -48.69 0.95 C-47.07 0.3, -46.53 0.26, -42.19 0.12 C-37.85 -0.01, -29.68 0.14, -22.65 0.12 C-15.62 0.1, -3.77 0.02, 0 0 M0 0 C0 -4.99, 0 -23.31, 0 -29.94 C0 -36.56, -0.01 -36.94, 0 -39.76 C0.01 -42.58, -0.36 -45.02, 0.07 -46.84 C0.5 -48.67, 1.56 -49.82, 2.57 -50.73 C3.57 -51.63, 4.89 -52.17, 6.12 -52.28 C7.35 -52.4, 8.89 -52.16, 9.95 -51.44 C11.01 -50.71, 11.97 -49.35, 12.48 -47.96 C12.98 -46.56, 12.9 -46.16, 12.99 -43.05 C13.07 -39.94, 12.99 -34.9, 12.99 -29.28 C12.99 -23.66, 12.99 -14.15, 12.99 -9.32 C12.99 -4.49, 12.97 -2.9, 12.99 -0.29 C13 2.32, 13.21 4.68, 13.07 6.34 C12.94 7.99, 12.71 8.67, 12.18 9.62 C11.65 10.57, 10.89 11.46, 9.9 12.05 C8.91 12.63, 8.57 12.9, 6.24 13.12 C3.91 13.35, 2.25 13.34, -4.06 13.38 C-10.37 13.42, -25.49 13.38, -31.61 13.38 C-37.72 13.38, -38.23 13.39, -40.73 13.38 C-43.23 13.37, -45.04 13.61, -46.6 13.3 C-48.16 13, -49.18 12.38, -50.1 11.54 C-51.03 10.7, -51.85 9.51, -52.15 8.26 C-52.45 7.01, -52.46 5.27, -51.88 4.06 C-51.31 2.84, -50.31 1.61, -48.69 0.95 C-47.07 0.3, -46.53 0.26, -42.19 0.12 C-37.85 -0.01, -29.68 0.14, -22.65 0.12 C-15.62 0.1, -3.77 0.02, 0 0" stroke="#E1E1E1" stroke-width="4" fill="none"></path></g></g><mask></mask><g stroke-linecap="round"><g transform="translate(69.73089197984518 231.7464776589868) rotate(0 19.538369628003693 -19.453053470247596)"><path d="M0 0 C0 -4.99, 0 -23.31, 0 -29.94 C0 -36.56, 0.01 -36.94, 0 -39.76 C-0.01 -42.58, 0.36 -45.02, -0.07 -46.84 C-0.5 -48.67, -1.56 -49.82, -2.57 -50.73 C-3.57 -51.63, -4.89 -52.17, -6.12 -52.28 C-7.35 -52.4, -8.89 -52.16, -9.95 -51.44 C-11.01 -50.71, -11.97 -49.35, -12.48 -47.96 C-12.98 -46.56, -12.9 -46.16, -12.99 -43.05 C-13.07 -39.94, -12.99 -34.9, -12.99 -29.28 C-12.99 -23.66, -12.99 -14.15, -12.99 -9.32 C-12.99 -4.49, -12.97 -2.9, -12.99 -0.29 C-13 2.32, -13.21 4.68, -13.07 6.34 C-12.94 7.99, -12.71 8.67, -12.18 9.62 C-11.65 10.57, -10.89 11.46, -9.9 12.05 C-8.91 12.63, -8.57 12.9, -6.24 13.12 C-3.91 13.35, -2.25 13.34, 4.06 13.38 C10.37 13.42, 25.49 13.38, 31.61 13.38 C37.72 13.38, 38.23 13.39, 40.73 13.38 C43.23 13.37, 45.04 13.61, 46.6 13.3 C48.16 13, 49.18 12.38, 50.1 11.54 C51.03 10.7, 51.85 9.51, 52.15 8.26 C52.45 7.01, 52.46 5.27, 51.88 4.06 C51.31 2.84, 50.31 1.61, 48.69 0.95 C47.07 0.3, 46.53 0.26, 42.19 0.12 C37.85 -0.01, 29.68 0.14, 22.65 0.12 C15.62 0.1, 3.77 0.02, 0 0 M0 0 C0 -4.99, 0 -23.31, 0 -29.94 C0 -36.56, 0.01 -36.94, 0 -39.76 C-0.01 -42.58, 0.36 -45.02, -0.07 -46.84 C-0.5 -48.67, -1.56 -49.82, -2.57 -50.73 C-3.57 -51.63, -4.89 -52.17, -6.12 -52.28 C-7.35 -52.4, -8.89 -52.16, -9.95 -51.44 C-11.01 -50.71, -11.97 -49.35, -12.48 -47.96 C-12.98 -46.56, -12.9 -46.16, -12.99 -43.05 C-13.07 -39.94, -12.99 -34.9, -12.99 -29.28 C-12.99 -23.66, -12.99 -14.15, -12.99 -9.32 C-12.99 -4.49, -12.97 -2.9, -12.99 -0.29 C-13 2.32, -13.21 4.68, -13.07 6.34 C-12.94 7.99, -12.71 8.67, -12.18 9.62 C-11.65 10.57, -10.89 11.46, -9.9 12.05 C-8.91 12.63, -8.57 12.9, -6.24 13.12 C-3.91 13.35, -2.25 13.34, 4.06 13.38 C10.37 13.42, 25.49 13.38, 31.61 13.38 C37.72 13.38, 38.23 13.39, 40.73 13.38 C43.23 13.37, 45.04 13.61, 46.6 13.3 C48.16 13, 49.18 12.38, 50.1 11.54 C51.03 10.7, 51.85 9.51, 52.15 8.26 C52.45 7.01, 52.46 5.27, 51.88 4.06 C51.31 2.84, 50.31 1.61, 48.69 0.95 C47.07 0.3, 46.53 0.26, 42.19 0.12 C37.85 -0.01, 29.68 0.14, 22.65 0.12 C15.62 0.1, 3.77 0.02, 0 0" stroke="#E1E1E1" stroke-width="4" fill="none"></path></g></g><mask></mask><g stroke-linecap="round"><g transform="translate(69.51270509113783 69.6343461081683) rotate(0 19.538369628003693 19.453053470247596)"><path d="M0 0 C0 4.99, 0 23.31, 0 29.94 C0 36.56, 0.01 36.94, 0 39.76 C-0.01 42.58, 0.36 45.02, -0.07 46.84 C-0.5 48.67, -1.56 49.82, -2.57 50.73 C-3.57 51.63, -4.89 52.17, -6.12 52.28 C-7.35 52.4, -8.89 52.16, -9.95 51.44 C-11.01 50.71, -11.97 49.35, -12.48 47.96 C-12.98 46.56, -12.9 46.16, -12.99 43.05 C-13.07 39.94, -12.99 34.9, -12.99 29.28 C-12.99 23.66, -12.99 14.15, -12.99 9.32 C-12.99 4.49, -12.97 2.9, -12.99 0.29 C-13 -2.32, -13.21 -4.68, -13.07 -6.34 C-12.94 -7.99, -12.71 -8.67, -12.18 -9.62 C-11.65 -10.57, -10.89 -11.46, -9.9 -12.05 C-8.91 -12.63, -8.57 -12.9, -6.24 -13.12 C-3.91 -13.35, -2.25 -13.34, 4.06 -13.38 C10.37 -13.42, 25.49 -13.38, 31.61 -13.38 C37.72 -13.38, 38.23 -13.39, 40.73 -13.38 C43.23 -13.37, 45.04 -13.61, 46.6 -13.3 C48.16 -13, 49.18 -12.38, 50.1 -11.54 C51.03 -10.7, 51.85 -9.51, 52.15 -8.26 C52.45 -7.01, 52.46 -5.27, 51.88 -4.06 C51.31 -2.84, 50.31 -1.61, 48.69 -0.95 C47.07 -0.3, 46.53 -0.26, 42.19 -0.12 C37.85 0.01, 29.68 -0.14, 22.65 -0.12 C15.62 -0.1, 3.77 -0.02, 0 0 M0 0 C0 4.99, 0 23.31, 0 29.94 C0 36.56, 0.01 36.94, 0 39.76 C-0.01 42.58, 0.36 45.02, -0.07 46.84 C-0.5 48.67, -1.56 49.82, -2.57 50.73 C-3.57 51.63, -4.89 52.17, -6.12 52.28 C-7.35 52.4, -8.89 52.16, -9.95 51.44 C-11.01 50.71, -11.97 49.35, -12.48 47.96 C-12.98 46.56, -12.9 46.16, -12.99 43.05 C-13.07 39.94, -12.99 34.9, -12.99 29.28 C-12.99 23.66, -12.99 14.15, -12.99 9.32 C-12.99 4.49, -12.97 2.9, -12.99 0.29 C-13 -2.32, -13.21 -4.68, -13.07 -6.34 C-12.94 -7.99, -12.71 -8.67, -12.18 -9.62 C-11.65 -10.57, -10.89 -11.46, -9.9 -12.05 C-8.91 -12.63, -8.57 -12.9, -6.24 -13.12 C-3.91 -13.35, -2.25 -13.34, 4.06 -13.38 C10.37 -13.42, 25.49 -13.38, 31.61 -13.38 C37.72 -13.38, 38.23 -13.39, 40.73 -13.38 C43.23 -13.37, 45.04 -13.61, 46.6 -13.3 C48.16 -13, 49.18 -12.38, 50.1 -11.54 C51.03 -10.7, 51.85 -9.51, 52.15 -8.26 C52.45 -7.01, 52.46 -5.27, 51.88 -4.06 C51.31 -2.84, 50.31 -1.61, 48.69 -0.95 C47.07 -0.3, 46.53 -0.26, 42.19 -0.12 C37.85 0.01, 29.68 -0.14, 22.65 -0.12 C15.62 -0.1, 3.77 -0.02, 0 0" stroke="#E1E1E1" stroke-width="4" fill="none"></path></g></g><mask></mask><g stroke-linecap="round"><g transform="translate(106.35464641006456 79.45265006743784) rotate(0 44.53260178069604 71.22308308352535)"><path d="M0 0 C-1.94 0, -8.89 -0.14, -11.64 0 C-14.4 0.14, -15 0.35, -16.51 0.84 C-18.03 1.33, -19.39 1.76, -20.76 2.95 C-22.13 4.14, -23.79 6.18, -24.76 7.98 C-25.72 9.78, -26.22 11.42, -26.54 13.73 C-26.87 16.04, -26.69 15.62, -26.72 21.84 C-26.74 28.07, -26.72 36.41, -26.72 51.08 C-26.72 65.75, -26.72 98.39, -26.72 109.86 C-26.72 121.33, -26.72 116.98, -26.72 119.91 C-26.72 122.84, -26.93 125.21, -26.72 127.44 C-26.5 129.67, -26.48 131.26, -25.45 133.29 C-24.42 135.31, -22.47 138.07, -20.53 139.59 C-18.6 141.11, -17.91 141.91, -13.84 142.39 C-9.77 142.88, -5.51 142.48, 3.9 142.5 C13.32 142.52, 31.34 142.5, 42.65 142.5 C53.97 142.5, 63.51 142.5, 71.77 142.5 C80.04 142.5, 87.16 142.54, 92.24 142.5 C97.32 142.46, 99.63 142.58, 102.24 142.25 C104.85 141.92, 106.26 141.35, 107.91 140.52 C109.56 139.7, 110.94 138.79, 112.16 137.31 C113.38 135.83, 114.63 133.86, 115.21 131.66 C115.8 129.46, 115.58 129.54, 115.66 124.12 C115.73 118.69, 115.66 112.47, 115.66 99.13 C115.66 85.79, 115.66 56.16, 115.66 44.08 C115.66 32.01, 115.64 31.36, 115.66 26.68 C115.68 22.01, 115.91 18.75, 115.78 16.02 C115.65 13.29, 115.4 12.07, 114.86 10.32 C114.31 8.57, 113.81 7.07, 112.52 5.53 C111.22 3.99, 109.1 2.02, 107.1 1.09 C105.1 0.16, 103.74 0.14, 100.51 -0.05 C97.28 -0.24, 99.08 -0.05, 87.71 -0.05 C76.34 -0.05, 46.91 -0.06, 32.3 -0.05 C17.68 -0.04, 5.38 -0.01, 0 0 M0 0 C-1.94 0, -8.89 -0.14, -11.64 0 C-14.4 0.14, -15 0.35, -16.51 0.84 C-18.03 1.33, -19.39 1.76, -20.76 2.95 C-22.13 4.14, -23.79 6.18, -24.76 7.98 C-25.72 9.78, -26.22 11.42, -26.54 13.73 C-26.87 16.04, -26.69 15.62, -26.72 21.84 C-26.74 28.07, -26.72 36.41, -26.72 51.08 C-26.72 65.75, -26.72 98.39, -26.72 109.86 C-26.72 121.33, -26.72 116.98, -26.72 119.91 C-26.72 122.84, -26.93 125.21, -26.72 127.44 C-26.5 129.67, -26.48 131.26, -25.45 133.29 C-24.42 135.31, -22.47 138.07, -20.53 139.59 C-18.6 141.11, -17.91 141.91, -13.84 142.39 C-9.77 142.88, -5.51 142.48, 3.9 142.5 C13.32 142.52, 31.34 142.5, 42.65 142.5 C53.97 142.5, 63.51 142.5, 71.77 142.5 C80.04 142.5, 87.16 142.54, 92.24 142.5 C97.32 142.46, 99.63 142.58, 102.24 142.25 C104.85 141.92, 106.26 141.35, 107.91 140.52 C109.56 139.7, 110.94 138.79, 112.16 137.31 C113.38 135.83, 114.63 133.86, 115.21 131.66 C115.8 129.46, 115.58 129.54, 115.66 124.12 C115.73 118.69, 115.66 112.47, 115.66 99.13 C115.66 85.79, 115.66 56.16, 115.66 44.08 C115.66 32.01, 115.64 31.36, 115.66 26.68 C115.68 22.01, 115.91 18.75, 115.78 16.02 C115.65 13.29, 115.4 12.07, 114.86 10.32 C114.31 8.57, 113.81 7.07, 112.52 5.53 C111.22 3.99, 109.1 2.02, 107.1 1.09 C105.1 0.16, 103.74 0.14, 100.51 -0.05 C97.28 -0.24, 99.08 -0.05, 87.71 -0.05 C76.34 -0.05, 46.91 -0.06, 32.3 -0.05 C17.68 -0.04, 5.38 -0.01, 0 0" stroke="#E1E1E1" stroke-width="4" fill="none"></path></g></g><mask></mask><g stroke-linecap="round"><g transform="translate(144.4242023605275 144.0560353469773) rotate(0 6.380758736032021 -23.70925290279979)"><path d="M0 0 C0 -3.86, 0.03 -16.65, 0 -23.17 C-0.03 -29.69, -0.31 -35.52, -0.2 -39.12 C-0.09 -42.71, -0.04 -43.38, 0.66 -44.75 C1.37 -46.12, 2.88 -46.85, 4.02 -47.32 C5.17 -47.78, 6.42 -47.8, 7.56 -47.54 C8.69 -47.28, 10 -46.71, 10.86 -45.75 C11.72 -44.79, 12.4 -44.1, 12.72 -41.78 C13.04 -39.46, 12.73 -38.81, 12.77 -31.83 C12.81 -24.85, 12.93 -5.2, 12.96 0.12 M0 0 C0 -3.86, 0.03 -16.65, 0 -23.17 C-0.03 -29.69, -0.31 -35.52, -0.2 -39.12 C-0.09 -42.71, -0.04 -43.38, 0.66 -44.75 C1.37 -46.12, 2.88 -46.85, 4.02 -47.32 C5.17 -47.78, 6.42 -47.8, 7.56 -47.54 C8.69 -47.28, 10 -46.71, 10.86 -45.75 C11.72 -44.79, 12.4 -44.1, 12.72 -41.78 C13.04 -39.46, 12.73 -38.81, 12.77 -31.83 C12.81 -24.85, 12.93 -5.2, 12.96 0.12" stroke="#E1E1E1" stroke-width="4" fill="none"></path></g></g><mask></mask><g stroke-linecap="round"><g transform="translate(113.89496850379965 174.564955991028) rotate(270 6.380758736032021 -23.70925290279979)"><path d="M0 0 C0 -3.86, 0.03 -16.65, 0 -23.17 C-0.03 -29.69, -0.31 -35.52, -0.2 -39.12 C-0.09 -42.71, -0.04 -43.38, 0.66 -44.75 C1.37 -46.12, 2.88 -46.85, 4.02 -47.32 C5.17 -47.78, 6.42 -47.8, 7.56 -47.54 C8.69 -47.28, 10 -46.71, 10.86 -45.75 C11.72 -44.79, 12.4 -44.1, 12.72 -41.78 C13.04 -39.46, 12.73 -38.81, 12.77 -31.83 C12.81 -24.85, 12.93 -5.2, 12.96 0.12 M0 0 C0 -3.86, 0.03 -16.65, 0 -23.17 C-0.03 -29.69, -0.31 -35.52, -0.2 -39.12 C-0.09 -42.71, -0.04 -43.38, 0.66 -44.75 C1.37 -46.12, 2.88 -46.85, 4.02 -47.32 C5.17 -47.78, 6.42 -47.8, 7.56 -47.54 C8.69 -47.28, 10 -46.71, 10.86 -45.75 C11.72 -44.79, 12.4 -44.1, 12.72 -41.78 C13.04 -39.46, 12.73 -38.81, 12.77 -31.83 C12.81 -24.85, 12.93 -5.2, 12.96 0.12" stroke="#E1E1E1" stroke-width="4" fill="none"></path></g></g><mask></mask><g stroke-linecap="round"><g transform="translate(157.25401934318688 157.3235365948235) rotate(0 -6.380758736032021 23.70925290279979)"><path d="M0 0 C0 3.86, -0.03 16.65, 0 23.17 C0.03 29.69, 0.31 35.52, 0.2 39.12 C0.09 42.71, 0.04 43.38, -0.66 44.75 C-1.37 46.12, -2.88 46.85, -4.02 47.32 C-5.17 47.78, -6.42 47.8, -7.56 47.54 C-8.69 47.28, -10 46.71, -10.86 45.75 C-11.72 44.79, -12.4 44.1, -12.72 41.78 C-13.04 39.46, -12.73 38.81, -12.77 31.83 C-12.81 24.85, -12.93 5.2, -12.96 -0.12 M0 0 C0 3.86, -0.03 16.65, 0 23.17 C0.03 29.69, 0.31 35.52, 0.2 39.12 C0.09 42.71, 0.04 43.38, -0.66 44.75 C-1.37 46.12, -2.88 46.85, -4.02 47.32 C-5.17 47.78, -6.42 47.8, -7.56 47.54 C-8.69 47.28, -10 46.71, -10.86 45.75 C-11.72 44.79, -12.4 44.1, -12.72 41.78 C-13.04 39.46, -12.73 38.81, -12.77 31.83 C-12.81 24.85, -12.93 5.2, -12.96 -0.12" stroke="#E1E1E1" stroke-width="4" fill="none"></path></g></g><mask></mask><g stroke-linecap="round"><g transform="translate(187.78325319991382 126.8146159507728) rotate(270 -6.380758736032021 23.70925290279979)"><path d="M0 0 C0 3.86, -0.03 16.65, 0 23.17 C0.03 29.69, 0.31 35.52, 0.2 39.12 C0.09 42.71, 0.04 43.38, -0.66 44.75 C-1.37 46.12, -2.88 46.85, -4.02 47.32 C-5.17 47.78, -6.42 47.8, -7.56 47.54 C-8.69 47.28, -10 46.71, -10.86 45.75 C-11.72 44.79, -12.4 44.1, -12.72 41.78 C-13.04 39.46, -12.73 38.81, -12.77 31.83 C-12.81 24.85, -12.93 5.2, -12.96 -0.12 M0 0 C0 3.86, -0.03 16.65, 0 23.17 C0.03 29.69, 0.31 35.52, 0.2 39.12 C0.09 42.71, 0.04 43.38, -0.66 44.75 C-1.37 46.12, -2.88 46.85, -4.02 47.32 C-5.17 47.78, -6.42 47.8, -7.56 47.54 C-8.69 47.28, -10 46.71, -10.86 45.75 C-11.72 44.79, -12.4 44.1, -12.72 41.78 C-13.04 39.46, -12.73 38.81, -12.77 31.83 C-12.81 24.85, -12.93 5.2, -12.96 -0.12" stroke="#E1E1E1" stroke-width="4" fill="none"></path></g></g><mask></mask></svg>