<svg version="1.1" xmlns="http://www.w3.org/2000/svg" viewBox="0 0 782.3900526479067 542.2927805081611" width="782.3900526479067" height="542.2927805081611" class="excalidraw-svg"><!-- svg-source:excalidraw --><metadata></metadata><defs><style class="style-fonts">
      </style></defs><rect x="0" y="0" width="782.3900526479067" height="542.2927805081611" fill="#000000"></rect><g stroke-linecap="round"><g stroke-opacity="0.6" fill-opacity="0.6" transform="translate(283.21120670083667 407.2803569563546) rotate(0 239.59234183139282 13.22945594766136)"><path d="M0 0 C4.36 0.35, 18.35 0.62, 26.15 2.08 C33.95 3.54, 40.61 5.74, 46.78 8.78 C52.94 11.81, 56.3 17.33, 63.12 20.28 C69.95 23.24, 77 25.19, 87.71 26.5 C98.42 27.8, 115.33 28.43, 127.38 28.11 C139.43 27.79, 150.97 26.76, 160.03 24.58 C169.09 22.39, 175.1 18.37, 181.73 15 C188.35 11.64, 192.16 6.9, 199.77 4.39 C207.39 1.89, 217.51 0.55, 227.41 -0.05 C237.32 -0.64, 250.14 -0.37, 259.19 0.85 C268.24 2.06, 274.62 4.21, 281.69 7.23 C288.76 10.25, 294.12 16, 301.63 18.98 C309.14 21.97, 316.18 23.74, 326.75 25.14 C337.31 26.54, 352.89 27.5, 365.02 27.38 C377.15 27.25, 389.26 27.09, 399.54 24.4 C409.82 21.72, 418.1 15.24, 426.7 11.28 C435.3 7.32, 442.37 2.81, 451.12 0.65 C459.87 -1.5, 474.51 -1.27, 479.18 -1.65 M0 0 C4.36 0.35, 18.35 0.62, 26.15 2.08 C33.95 3.54, 40.61 5.74, 46.78 8.78 C52.94 11.81, 56.3 17.33, 63.12 20.28 C69.95 23.24, 77 25.19, 87.71 26.5 C98.42 27.8, 115.33 28.43, 127.38 28.11 C139.43 27.79, 150.97 26.76, 160.03 24.58 C169.09 22.39, 175.1 18.37, 181.73 15 C188.35 11.64, 192.16 6.9, 199.77 4.39 C207.39 1.89, 217.51 0.55, 227.41 -0.05 C237.32 -0.64, 250.14 -0.37, 259.19 0.85 C268.24 2.06, 274.62 4.21, 281.69 7.23 C288.76 10.25, 294.12 16, 301.63 18.98 C309.14 21.97, 316.18 23.74, 326.75 25.14 C337.31 26.54, 352.89 27.5, 365.02 27.38 C377.15 27.25, 389.26 27.09, 399.54 24.4 C409.82 21.72, 418.1 15.24, 426.7 11.28 C435.3 7.32, 442.37 2.81, 451.12 0.65 C459.87 -1.5, 474.51 -1.27, 479.18 -1.65" stroke="#E1E1E1" stroke-width="4" fill="none"></path></g></g><mask></mask><g stroke-linecap="round"><g stroke-opacity="0.6" fill-opacity="0.6" transform="translate(283.07936601911706 341.64098804107175) rotate(0 240.8642802115917 12.61023700810751)"><path d="M0 0 C2.69 0.35, 11.31 0.91, 16.13 2.09 C20.95 3.26, 25.1 4.61, 28.92 7.06 C32.75 9.51, 35.6 13.91, 39.05 16.8 C42.51 19.68, 45.09 22.6, 49.64 24.39 C54.19 26.18, 60.4 26.96, 66.36 27.55 C72.33 28.13, 79.34 28.18, 85.43 27.9 C91.53 27.63, 97.95 26.93, 102.92 25.9 C107.88 24.86, 111.44 23.84, 115.22 21.68 C119 19.53, 122.11 15.92, 125.58 12.96 C129.06 10, 131.92 6.15, 136.06 3.92 C140.21 1.69, 144.95 0.38, 150.45 -0.41 C155.94 -1.2, 163.54 -1.21, 169.03 -0.83 C174.51 -0.46, 179.16 -0.06, 183.37 1.83 C187.57 3.72, 190.92 7.8, 194.27 10.5 C197.62 13.2, 199.73 15.95, 203.48 18.03 C207.24 20.11, 212.12 21.54, 216.79 22.99 C221.46 24.44, 225.04 26.11, 231.52 26.7 C237.99 27.3, 248.48 27.2, 255.63 26.57 C262.79 25.94, 268.62 25.27, 274.46 22.91 C280.29 20.54, 286 15.81, 290.65 12.37 C295.3 8.94, 297.17 4.81, 302.33 2.3 C307.5 -0.21, 314.85 -2.27, 321.63 -2.68 C328.41 -3.09, 336.84 -2.5, 343.01 -0.19 C349.17 2.12, 354.41 7.94, 358.63 11.17 C362.85 14.4, 363.45 17.08, 368.35 19.19 C373.25 21.31, 380.72 22.75, 388.05 23.87 C395.39 25, 403.66 26.77, 412.37 25.94 C421.08 25.12, 432.79 22.48, 440.32 18.93 C447.84 15.38, 452.53 8, 457.53 4.64 C462.52 1.29, 466.26 -0.08, 470.3 -1.21 C474.33 -2.35, 479.82 -2, 481.73 -2.15 M0 0 C2.69 0.35, 11.31 0.91, 16.13 2.09 C20.95 3.26, 25.1 4.61, 28.92 7.06 C32.75 9.51, 35.6 13.91, 39.05 16.8 C42.51 19.68, 45.09 22.6, 49.64 24.39 C54.19 26.18, 60.4 26.96, 66.36 27.55 C72.33 28.13, 79.34 28.18, 85.43 27.9 C91.53 27.63, 97.95 26.93, 102.92 25.9 C107.88 24.86, 111.44 23.84, 115.22 21.68 C119 19.53, 122.11 15.92, 125.58 12.96 C129.06 10, 131.92 6.15, 136.06 3.92 C140.21 1.69, 144.95 0.38, 150.45 -0.41 C155.94 -1.2, 163.54 -1.21, 169.03 -0.83 C174.51 -0.46, 179.16 -0.06, 183.37 1.83 C187.57 3.72, 190.92 7.8, 194.27 10.5 C197.62 13.2, 199.73 15.95, 203.48 18.03 C207.24 20.11, 212.12 21.54, 216.79 22.99 C221.46 24.44, 225.04 26.11, 231.52 26.7 C237.99 27.3, 248.48 27.2, 255.63 26.57 C262.79 25.94, 268.62 25.27, 274.46 22.91 C280.29 20.54, 286 15.81, 290.65 12.37 C295.3 8.94, 297.17 4.81, 302.33 2.3 C307.5 -0.21, 314.85 -2.27, 321.63 -2.68 C328.41 -3.09, 336.84 -2.5, 343.01 -0.19 C349.17 2.12, 354.41 7.94, 358.63 11.17 C362.85 14.4, 363.45 17.08, 368.35 19.19 C373.25 21.31, 380.72 22.75, 388.05 23.87 C395.39 25, 403.66 26.77, 412.37 25.94 C421.08 25.12, 432.79 22.48, 440.32 18.93 C447.84 15.38, 452.53 8, 457.53 4.64 C462.52 1.29, 466.26 -0.08, 470.3 -1.21 C474.33 -2.35, 479.82 -2, 481.73 -2.15" stroke="#E1E1E1" stroke-width="4" fill="none"></path></g></g><mask></mask><g stroke-linecap="round"><g stroke-opacity="0.6" fill-opacity="0.6" transform="translate(280.83159046192577 259.96676637694304) rotate(0 230.2024755734917 16.978270086072094)"><path d="M0 0 C1.86 0.31, 7.92 0.3, 11.18 1.83 C14.44 3.36, 16.38 6.64, 19.56 9.18 C22.73 11.72, 25.75 15.17, 30.21 17.08 C34.66 18.98, 41.54 20.52, 46.28 20.61 C51.03 20.7, 54.16 17.67, 58.7 17.61 C63.24 17.56, 69.39 18.51, 73.55 20.25 C77.71 22, 80.21 25.85, 83.68 28.08 C87.14 30.31, 89.25 32.7, 94.36 33.63 C99.48 34.55, 108.48 34.77, 114.38 33.61 C120.29 32.44, 125.8 29.75, 129.79 26.63 C133.78 23.51, 135.32 18.29, 138.34 14.87 C141.35 11.45, 144.77 7, 147.91 6.1 C151.04 5.2, 153.86 8.31, 157.16 9.46 C160.47 10.61, 163.56 12.52, 167.72 13 C171.88 13.49, 177.52 13.21, 182.12 12.4 C186.72 11.58, 191.43 9.9, 195.32 8.09 C199.21 6.29, 202.08 2.44, 205.47 1.56 C208.85 0.67, 212.86 0.9, 215.62 2.81 C218.38 4.71, 220.04 9.74, 222.01 13.01 C223.99 16.28, 224.31 20, 227.48 22.41 C230.65 24.82, 237.17 26.17, 241.04 27.46 C244.91 28.75, 246.93 30.29, 250.69 30.17 C254.45 30.04, 259.73 27.99, 263.61 26.69 C267.48 25.39, 270.24 23.08, 273.94 22.36 C277.64 21.63, 281.37 21.83, 285.8 22.36 C290.22 22.89, 296.64 24.09, 300.5 25.53 C304.37 26.97, 305.17 30.77, 309 30.98 C312.82 31.19, 319.16 29.41, 323.48 26.79 C327.8 24.16, 331.98 18.87, 334.89 15.22 C337.81 11.57, 338.26 6.95, 340.99 4.88 C343.72 2.81, 347.86 2.4, 351.27 2.81 C354.68 3.21, 357.69 5.4, 361.43 7.32 C365.18 9.23, 369.25 13.17, 373.73 14.31 C378.21 15.45, 383.9 14.89, 388.33 14.15 C392.76 13.41, 396.83 11.31, 400.3 9.89 C403.77 8.46, 405.84 4.68, 409.14 5.6 C412.44 6.51, 417.51 12.22, 420.11 15.36 C422.72 18.5, 421.73 21.33, 424.75 24.43 C427.78 27.53, 432.32 32.39, 438.26 33.96 C444.2 35.52, 456.71 33.85, 460.4 33.83 M0 0 C1.86 0.31, 7.92 0.3, 11.18 1.83 C14.44 3.36, 16.38 6.64, 19.56 9.18 C22.73 11.72, 25.75 15.17, 30.21 17.08 C34.66 18.98, 41.54 20.52, 46.28 20.61 C51.03 20.7, 54.16 17.67, 58.7 17.61 C63.24 17.56, 69.39 18.51, 73.55 20.25 C77.71 22, 80.21 25.85, 83.68 28.08 C87.14 30.31, 89.25 32.7, 94.36 33.63 C99.48 34.55, 108.48 34.77, 114.38 33.61 C120.29 32.44, 125.8 29.75, 129.79 26.63 C133.78 23.51, 135.32 18.29, 138.34 14.87 C141.35 11.45, 144.77 7, 147.91 6.1 C151.04 5.2, 153.86 8.31, 157.16 9.46 C160.47 10.61, 163.56 12.52, 167.72 13 C171.88 13.49, 177.52 13.21, 182.12 12.4 C186.72 11.58, 191.43 9.9, 195.32 8.09 C199.21 6.29, 202.08 2.44, 205.47 1.56 C208.85 0.67, 212.86 0.9, 215.62 2.81 C218.38 4.71, 220.04 9.74, 222.01 13.01 C223.99 16.28, 224.31 20, 227.48 22.41 C230.65 24.82, 237.17 26.17, 241.04 27.46 C244.91 28.75, 246.93 30.29, 250.69 30.17 C254.45 30.04, 259.73 27.99, 263.61 26.69 C267.48 25.39, 270.24 23.08, 273.94 22.36 C277.64 21.63, 281.37 21.83, 285.8 22.36 C290.22 22.89, 296.64 24.09, 300.5 25.53 C304.37 26.97, 305.17 30.77, 309 30.98 C312.82 31.19, 319.16 29.41, 323.48 26.79 C327.8 24.16, 331.98 18.87, 334.89 15.22 C337.81 11.57, 338.26 6.95, 340.99 4.88 C343.72 2.81, 347.86 2.4, 351.27 2.81 C354.68 3.21, 357.69 5.4, 361.43 7.32 C365.18 9.23, 369.25 13.17, 373.73 14.31 C378.21 15.45, 383.9 14.89, 388.33 14.15 C392.76 13.41, 396.83 11.31, 400.3 9.89 C403.77 8.46, 405.84 4.68, 409.14 5.6 C412.44 6.51, 417.51 12.22, 420.11 15.36 C422.72 18.5, 421.73 21.33, 424.75 24.43 C427.78 27.53, 432.32 32.39, 438.26 33.96 C444.2 35.52, 456.71 33.85, 460.4 33.83" stroke="#E1E1E1" stroke-width="4" fill="none"></path></g></g><mask></mask><g stroke-linecap="round"><g stroke-opacity="0.6" fill-opacity="0.6" transform="translate(277.45097998923336 175.7854104374817) rotate(0 232.92033880730693 21.6110651888024)"><path d="M0 0 C1.66 0.47, 6.91 0.9, 9.98 2.82 C13.05 4.75, 15.77 7.93, 18.42 11.55 C21.06 15.17, 23 21.27, 25.87 24.57 C28.74 27.87, 31.73 30, 35.64 31.35 C39.55 32.7, 44.94 34.32, 49.32 32.67 C53.7 31.03, 58.42 24.56, 61.92 21.48 C65.42 18.41, 66.97 15.34, 70.32 14.23 C73.68 13.11, 78.75 13.56, 82.05 14.79 C85.35 16.01, 87.48 18.4, 90.12 21.58 C92.77 24.76, 95.17 30.46, 97.9 33.85 C100.63 37.25, 102.4 40.42, 106.48 41.98 C110.56 43.54, 117.96 43.34, 122.4 43.22 C126.85 43.1, 129.72 43.27, 133.14 41.25 C136.56 39.22, 140.19 35.02, 142.91 31.08 C145.62 27.13, 146.7 21.43, 149.42 17.57 C152.14 13.7, 155.88 9.42, 159.23 7.87 C162.58 6.32, 166.63 6.25, 169.52 8.28 C172.41 10.31, 174.38 16.8, 176.57 20.04 C178.77 23.29, 179.77 26.23, 182.69 27.75 C185.6 29.27, 190.36 29.11, 194.07 29.15 C197.78 29.2, 201.2 29.36, 204.95 28.03 C208.69 26.7, 213.32 24.29, 216.54 21.16 C219.76 18.03, 221.22 12.39, 224.26 9.24 C227.3 6.08, 231.45 2.77, 234.76 2.23 C238.07 1.7, 241.59 3.67, 244.11 6.01 C246.64 8.35, 248.22 12.66, 249.9 16.25 C251.58 19.85, 252.08 24.36, 254.18 27.57 C256.29 30.77, 259.09 33.46, 262.53 35.48 C265.97 37.51, 270.56 39.6, 274.84 39.71 C279.12 39.82, 284.55 38.17, 288.19 36.15 C291.84 34.14, 293.7 30.63, 296.7 27.62 C299.69 24.6, 302.49 20.09, 306.14 18.07 C309.8 16.05, 314.77 15.01, 318.65 15.49 C322.54 15.97, 326.38 18.28, 329.46 20.94 C332.54 23.6, 334.4 28.47, 337.13 31.45 C339.86 34.43, 342.03 37.9, 345.83 38.81 C349.62 39.73, 355.84 38.31, 359.91 36.96 C363.98 35.61, 367.68 33.57, 370.26 30.72 C372.84 27.88, 373.34 23.75, 375.4 19.88 C377.46 16.01, 379.5 10.73, 382.61 7.51 C385.73 4.29, 390.74 0.93, 394.09 0.56 C397.44 0.19, 400.2 2.94, 402.72 5.31 C405.24 7.67, 406.81 11.79, 409.2 14.77 C411.59 17.74, 413.72 21.25, 417.04 23.17 C420.35 25.1, 424.9 26.17, 429.11 26.31 C433.32 26.44, 438.18 26.61, 442.28 23.97 C446.37 21.33, 449.76 13.84, 453.69 10.46 C457.62 7.07, 463.82 4.79, 465.84 3.66 M0 0 C1.66 0.47, 6.91 0.9, 9.98 2.82 C13.05 4.75, 15.77 7.93, 18.42 11.55 C21.06 15.17, 23 21.27, 25.87 24.57 C28.74 27.87, 31.73 30, 35.64 31.35 C39.55 32.7, 44.94 34.32, 49.32 32.67 C53.7 31.03, 58.42 24.56, 61.92 21.48 C65.42 18.41, 66.97 15.34, 70.32 14.23 C73.68 13.11, 78.75 13.56, 82.05 14.79 C85.35 16.01, 87.48 18.4, 90.12 21.58 C92.77 24.76, 95.17 30.46, 97.9 33.85 C100.63 37.25, 102.4 40.42, 106.48 41.98 C110.56 43.54, 117.96 43.34, 122.4 43.22 C126.85 43.1, 129.72 43.27, 133.14 41.25 C136.56 39.22, 140.19 35.02, 142.91 31.08 C145.62 27.13, 146.7 21.43, 149.42 17.57 C152.14 13.7, 155.88 9.42, 159.23 7.87 C162.58 6.32, 166.63 6.25, 169.52 8.28 C172.41 10.31, 174.38 16.8, 176.57 20.04 C178.77 23.29, 179.77 26.23, 182.69 27.75 C185.6 29.27, 190.36 29.11, 194.07 29.15 C197.78 29.2, 201.2 29.36, 204.95 28.03 C208.69 26.7, 213.32 24.29, 216.54 21.16 C219.76 18.03, 221.22 12.39, 224.26 9.24 C227.3 6.08, 231.45 2.77, 234.76 2.23 C238.07 1.7, 241.59 3.67, 244.11 6.01 C246.64 8.35, 248.22 12.66, 249.9 16.25 C251.58 19.85, 252.08 24.36, 254.18 27.57 C256.29 30.77, 259.09 33.46, 262.53 35.48 C265.97 37.51, 270.56 39.6, 274.84 39.71 C279.12 39.82, 284.55 38.17, 288.19 36.15 C291.84 34.14, 293.7 30.63, 296.7 27.62 C299.69 24.6, 302.49 20.09, 306.14 18.07 C309.8 16.05, 314.77 15.01, 318.65 15.49 C322.54 15.97, 326.38 18.28, 329.46 20.94 C332.54 23.6, 334.4 28.47, 337.13 31.45 C339.86 34.43, 342.03 37.9, 345.83 38.81 C349.62 39.73, 355.84 38.31, 359.91 36.96 C363.98 35.61, 367.68 33.57, 370.26 30.72 C372.84 27.88, 373.34 23.75, 375.4 19.88 C377.46 16.01, 379.5 10.73, 382.61 7.51 C385.73 4.29, 390.74 0.93, 394.09 0.56 C397.44 0.19, 400.2 2.94, 402.72 5.31 C405.24 7.67, 406.81 11.79, 409.2 14.77 C411.59 17.74, 413.72 21.25, 417.04 23.17 C420.35 25.1, 424.9 26.17, 429.11 26.31 C433.32 26.44, 438.18 26.61, 442.28 23.97 C446.37 21.33, 449.76 13.84, 453.69 10.46 C457.62 7.07, 463.82 4.79, 465.84 3.66" stroke="#E1E1E1" stroke-width="4" fill="none"></path></g></g><mask></mask><g stroke-linecap="round"><g stroke-opacity="0.6" fill-opacity="0.6" transform="translate(281.24440308829446 94.73797234218523) rotate(0 233.06190544095708 23.795081727785885)"><path d="M0 0 C1.27 0.35, 4.93 0.69, 7.62 2.13 C10.31 3.56, 13.57 5.45, 16.16 8.61 C18.76 11.76, 20.83 16.72, 23.19 21.06 C25.55 25.39, 27.61 31.06, 30.33 34.62 C33.04 38.18, 35.42 41.35, 39.48 42.41 C43.54 43.48, 50.26 43.4, 54.69 41 C59.12 38.6, 63.29 32.37, 66.05 27.99 C68.81 23.61, 68.68 18.61, 71.25 14.74 C73.83 10.86, 77.73 6.02, 81.49 4.72 C85.26 3.41, 90.38 4.98, 93.84 6.91 C97.3 8.84, 99.71 12.46, 102.27 16.3 C104.82 20.13, 107.32 25.85, 109.19 29.94 C111.05 34.03, 111.02 37.84, 113.45 40.84 C115.89 43.85, 119.34 46.83, 123.78 47.95 C128.22 49.06, 135.33 48.95, 140.12 47.54 C144.9 46.13, 149.21 43.88, 152.5 39.47 C155.79 35.06, 157.6 26.1, 159.88 21.08 C162.16 16.07, 163.14 12.58, 166.19 9.39 C169.25 6.2, 174.46 2.28, 178.22 1.95 C181.97 1.62, 185.87 4.15, 188.71 7.41 C191.55 10.68, 193.4 16.91, 195.27 21.52 C197.13 26.13, 197.31 31.9, 199.89 35.05 C202.46 38.2, 206.41 39.37, 210.73 40.41 C215.04 41.44, 220.97 43.04, 225.79 41.24 C230.62 39.44, 236.58 33.71, 239.69 29.6 C242.8 25.48, 242.32 21, 244.44 16.55 C246.56 12.09, 248.93 5.69, 252.39 2.88 C255.85 0.06, 261.33 -1.39, 265.21 -0.36 C269.09 0.67, 272.93 4.63, 275.68 9.04 C278.44 13.45, 279.81 21.03, 281.74 26.11 C283.66 31.19, 283.98 36.12, 287.25 39.52 C290.52 42.93, 296.36 45.85, 301.36 46.52 C306.35 47.19, 312.57 46.85, 317.21 43.55 C321.86 40.26, 326.21 31.72, 329.21 26.75 C332.22 21.78, 332.16 17.12, 335.27 13.72 C338.38 10.32, 343.71 6.6, 347.89 6.33 C352.07 6.07, 356.48 7.77, 360.34 12.12 C364.21 16.47, 368.22 27.32, 371.08 32.45 C373.93 37.59, 374.01 40.46, 377.46 42.94 C380.92 45.41, 386.38 47.92, 391.81 47.31 C397.24 46.69, 405.88 43.63, 410.04 39.26 C414.2 34.89, 414.68 26.36, 416.76 21.09 C418.84 15.81, 419.65 10.91, 422.51 7.6 C425.37 4.29, 430.18 1.37, 433.93 1.25 C437.68 1.12, 441.87 3.72, 445.01 6.84 C448.15 9.95, 450.54 15.86, 452.74 19.94 C454.95 24.02, 456.03 28.07, 458.26 31.33 C460.49 34.58, 464.81 38.1, 466.12 39.45 M0 0 C1.27 0.35, 4.93 0.69, 7.62 2.13 C10.31 3.56, 13.57 5.45, 16.16 8.61 C18.76 11.76, 20.83 16.72, 23.19 21.06 C25.55 25.39, 27.61 31.06, 30.33 34.62 C33.04 38.18, 35.42 41.35, 39.48 42.41 C43.54 43.48, 50.26 43.4, 54.69 41 C59.12 38.6, 63.29 32.37, 66.05 27.99 C68.81 23.61, 68.68 18.61, 71.25 14.74 C73.83 10.86, 77.73 6.02, 81.49 4.72 C85.26 3.41, 90.38 4.98, 93.84 6.91 C97.3 8.84, 99.71 12.46, 102.27 16.3 C104.82 20.13, 107.32 25.85, 109.19 29.94 C111.05 34.03, 111.02 37.84, 113.45 40.84 C115.89 43.85, 119.34 46.83, 123.78 47.95 C128.22 49.06, 135.33 48.95, 140.12 47.54 C144.9 46.13, 149.21 43.88, 152.5 39.47 C155.79 35.06, 157.6 26.1, 159.88 21.08 C162.16 16.07, 163.14 12.58, 166.19 9.39 C169.25 6.2, 174.46 2.28, 178.22 1.95 C181.97 1.62, 185.87 4.15, 188.71 7.41 C191.55 10.68, 193.4 16.91, 195.27 21.52 C197.13 26.13, 197.31 31.9, 199.89 35.05 C202.46 38.2, 206.41 39.37, 210.73 40.41 C215.04 41.44, 220.97 43.04, 225.79 41.24 C230.62 39.44, 236.58 33.71, 239.69 29.6 C242.8 25.48, 242.32 21, 244.44 16.55 C246.56 12.09, 248.93 5.69, 252.39 2.88 C255.85 0.06, 261.33 -1.39, 265.21 -0.36 C269.09 0.67, 272.93 4.63, 275.68 9.04 C278.44 13.45, 279.81 21.03, 281.74 26.11 C283.66 31.19, 283.98 36.12, 287.25 39.52 C290.52 42.93, 296.36 45.85, 301.36 46.52 C306.35 47.19, 312.57 46.85, 317.21 43.55 C321.86 40.26, 326.21 31.72, 329.21 26.75 C332.22 21.78, 332.16 17.12, 335.27 13.72 C338.38 10.32, 343.71 6.6, 347.89 6.33 C352.07 6.07, 356.48 7.77, 360.34 12.12 C364.21 16.47, 368.22 27.32, 371.08 32.45 C373.93 37.59, 374.01 40.46, 377.46 42.94 C380.92 45.41, 386.38 47.92, 391.81 47.31 C397.24 46.69, 405.88 43.63, 410.04 39.26 C414.2 34.89, 414.68 26.36, 416.76 21.09 C418.84 15.81, 419.65 10.91, 422.51 7.6 C425.37 4.29, 430.18 1.37, 433.93 1.25 C437.68 1.12, 441.87 3.72, 445.01 6.84 C448.15 9.95, 450.54 15.86, 452.74 19.94 C454.95 24.02, 456.03 28.07, 458.26 31.33 C460.49 34.58, 464.81 38.1, 466.12 39.45" stroke="#E1E1E1" stroke-width="4" fill="none"></path></g></g><mask></mask><g stroke-linecap="round"><g stroke-opacity="0.6" fill-opacity="0.6" transform="translate(279.8870924633751 10.9153959628145) rotate(0 243.51514244322155 29.081676932486488)"><path d="M0 0 C1.96 0.68, 8.66 1.81, 11.76 4.11 C14.86 6.4, 16.53 9.51, 18.6 13.76 C20.66 18.02, 22.39 24.67, 24.13 29.64 C25.87 34.61, 27.02 39.48, 29.03 43.58 C31.03 47.69, 32.42 51.7, 36.16 54.28 C39.91 56.85, 46.44 59.17, 51.48 59.02 C56.52 58.87, 62.57 56.56, 66.41 53.37 C70.26 50.19, 72.29 44.98, 74.57 39.9 C76.84 34.82, 78.33 28.33, 80.06 22.88 C81.8 17.43, 81.92 11.14, 84.96 7.18 C88 3.23, 94.09 -0.41, 98.29 -0.86 C102.49 -1.31, 106.87 1.09, 110.16 4.46 C113.44 7.83, 116.01 14.05, 118.01 19.36 C120.01 24.67, 120.52 31.07, 122.15 36.34 C123.79 41.6, 124.69 47.39, 127.82 50.97 C130.96 54.55, 135.76 57.17, 140.99 57.8 C146.22 58.43, 154.25 58.46, 159.2 54.75 C164.15 51.04, 167.8 42.42, 170.69 35.56 C173.58 28.69, 173.86 18.97, 176.53 13.57 C179.21 8.16, 182.75 5.11, 186.74 3.12 C190.74 1.13, 196.26 -0.71, 200.5 1.63 C204.74 3.97, 209.3 11.13, 212.18 17.18 C215.07 23.23, 215.97 32.32, 217.82 37.92 C219.67 43.53, 220.06 47.55, 223.27 50.82 C226.49 54.08, 232.07 56.79, 237.09 57.52 C242.11 58.24, 248.82 58.31, 253.39 55.17 C257.95 52.04, 261.74 44.37, 264.47 38.69 C267.2 33.02, 267.77 26.56, 269.78 21.13 C271.79 15.71, 272.93 9.77, 276.53 6.14 C280.12 2.52, 286.91 -0.71, 291.36 -0.63 C295.82 -0.56, 300.01 1.63, 303.26 6.59 C306.51 11.56, 308.28 22.52, 310.87 29.14 C313.45 35.76, 316.29 42.17, 318.77 46.31 C321.25 50.46, 321.21 52.71, 325.75 54.01 C330.29 55.32, 340.57 56.5, 346.02 54.14 C351.47 51.78, 355.09 46.23, 358.45 39.84 C361.82 33.46, 362.85 22.24, 366.22 15.83 C369.6 9.41, 373.9 3.25, 378.69 1.37 C383.47 -0.51, 390.72 0.59, 394.93 4.52 C399.14 8.45, 401.18 18.46, 403.97 24.95 C406.75 31.43, 408.89 38.35, 411.66 43.45 C414.43 48.56, 416.83 53.21, 420.59 55.58 C424.36 57.94, 429.44 58.48, 434.25 57.63 C439.07 56.77, 445.61 55.03, 449.48 50.45 C453.35 45.87, 455.26 36.48, 457.48 30.16 C459.7 23.84, 460.02 17.34, 462.81 12.52 C465.6 7.7, 470.19 3.46, 474.23 1.25 C478.27 -0.96, 484.9 -0.41, 487.03 -0.74 M0 0 C1.96 0.68, 8.66 1.81, 11.76 4.11 C14.86 6.4, 16.53 9.51, 18.6 13.76 C20.66 18.02, 22.39 24.67, 24.13 29.64 C25.87 34.61, 27.02 39.48, 29.03 43.58 C31.03 47.69, 32.42 51.7, 36.16 54.28 C39.91 56.85, 46.44 59.17, 51.48 59.02 C56.52 58.87, 62.57 56.56, 66.41 53.37 C70.26 50.19, 72.29 44.98, 74.57 39.9 C76.84 34.82, 78.33 28.33, 80.06 22.88 C81.8 17.43, 81.92 11.14, 84.96 7.18 C88 3.23, 94.09 -0.41, 98.29 -0.86 C102.49 -1.31, 106.87 1.09, 110.16 4.46 C113.44 7.83, 116.01 14.05, 118.01 19.36 C120.01 24.67, 120.52 31.07, 122.15 36.34 C123.79 41.6, 124.69 47.39, 127.82 50.97 C130.96 54.55, 135.76 57.17, 140.99 57.8 C146.22 58.43, 154.25 58.46, 159.2 54.75 C164.15 51.04, 167.8 42.42, 170.69 35.56 C173.58 28.69, 173.86 18.97, 176.53 13.57 C179.21 8.16, 182.75 5.11, 186.74 3.12 C190.74 1.13, 196.26 -0.71, 200.5 1.63 C204.74 3.97, 209.3 11.13, 212.18 17.18 C215.07 23.23, 215.97 32.32, 217.82 37.92 C219.67 43.53, 220.06 47.55, 223.27 50.82 C226.49 54.08, 232.07 56.79, 237.09 57.52 C242.11 58.24, 248.82 58.31, 253.39 55.17 C257.95 52.04, 261.74 44.37, 264.47 38.69 C267.2 33.02, 267.77 26.56, 269.78 21.13 C271.79 15.71, 272.93 9.77, 276.53 6.14 C280.12 2.52, 286.91 -0.71, 291.36 -0.63 C295.82 -0.56, 300.01 1.63, 303.26 6.59 C306.51 11.56, 308.28 22.52, 310.87 29.14 C313.45 35.76, 316.29 42.17, 318.77 46.31 C321.25 50.46, 321.21 52.71, 325.75 54.01 C330.29 55.32, 340.57 56.5, 346.02 54.14 C351.47 51.78, 355.09 46.23, 358.45 39.84 C361.82 33.46, 362.85 22.24, 366.22 15.83 C369.6 9.41, 373.9 3.25, 378.69 1.37 C383.47 -0.51, 390.72 0.59, 394.93 4.52 C399.14 8.45, 401.18 18.46, 403.97 24.95 C406.75 31.43, 408.89 38.35, 411.66 43.45 C414.43 48.56, 416.83 53.21, 420.59 55.58 C424.36 57.94, 429.44 58.48, 434.25 57.63 C439.07 56.77, 445.61 55.03, 449.48 50.45 C453.35 45.87, 455.26 36.48, 457.48 30.16 C459.7 23.84, 460.02 17.34, 462.81 12.52 C465.6 7.7, 470.19 3.46, 474.23 1.25 C478.27 -0.96, 484.9 -0.41, 487.03 -0.74" stroke="#E1E1E1" stroke-width="4" fill="none"></path></g></g><mask></mask><g stroke-linecap="round"><g stroke-opacity="0.6" fill-opacity="0.6" transform="translate(293.205368985121 487.37511549072747) rotate(0 239.59234183139282 7.7862487771443085)"><path d="M0 0 C4.36 0.35, 18.35 0.62, 26.15 2.08 C33.95 3.54, 40.61 13.29, 46.78 8.78 C52.94 4.26, 56.3 -27.97, 63.12 -25.02 C69.95 -22.07, 77 17.64, 87.71 26.5 C98.42 35.35, 115.33 28.43, 127.38 28.11 C139.43 27.79, 150.97 26.76, 160.03 24.58 C169.09 22.39, 175.1 18.37, 181.73 15 C188.35 11.64, 192.16 6.9, 199.77 4.39 C207.39 1.89, 217.51 -6.79, 227.41 -0.05 C237.32 6.7, 250.14 43.67, 259.19 44.89 C268.24 46.1, 274.62 11.55, 281.69 7.23 C288.76 2.91, 294.12 16, 301.63 18.98 C309.14 21.97, 316.18 23.74, 326.75 25.14 C337.31 26.54, 352.89 27.5, 365.02 27.38 C377.15 27.25, 389.48 33.85, 399.54 24.4 C409.6 14.95, 416.78 -25.36, 425.38 -29.31 C433.97 -33.27, 442.15 -3.96, 451.12 0.65 C460.09 5.27, 474.51 -1.27, 479.18 -1.65 M0 0 C4.36 0.35, 18.35 0.62, 26.15 2.08 C33.95 3.54, 40.61 13.29, 46.78 8.78 C52.94 4.26, 56.3 -27.97, 63.12 -25.02 C69.95 -22.07, 77 17.64, 87.71 26.5 C98.42 35.35, 115.33 28.43, 127.38 28.11 C139.43 27.79, 150.97 26.76, 160.03 24.58 C169.09 22.39, 175.1 18.37, 181.73 15 C188.35 11.64, 192.16 6.9, 199.77 4.39 C207.39 1.89, 217.51 -6.79, 227.41 -0.05 C237.32 6.7, 250.14 43.67, 259.19 44.89 C268.24 46.1, 274.62 11.55, 281.69 7.23 C288.76 2.91, 294.12 16, 301.63 18.98 C309.14 21.97, 316.18 23.74, 326.75 25.14 C337.31 26.54, 352.89 27.5, 365.02 27.38 C377.15 27.25, 389.48 33.85, 399.54 24.4 C409.6 14.95, 416.78 -25.36, 425.38 -29.31 C433.97 -33.27, 442.15 -3.96, 451.12 0.65 C460.09 5.27, 474.51 -1.27, 479.18 -1.65" stroke="#E1E1E1" stroke-width="4" fill="none"></path></g></g><mask></mask><g stroke-linecap="round"><g transform="translate(222.2635538999341 138.78097521643008) rotate(0 0 72.2821324769883)"><path d="M0 0 C0 24.09, 0 120.47, 0 144.56 M0 0 C0 24.09, 0 120.47, 0 144.56" stroke="#E1E1E1" stroke-width="4" fill="none"></path></g></g><mask></mask><g stroke-linecap="round" transform="translate(194.63665413398905 283.9022309859263) rotate(0 27.68965089858817 27.68965089858817)"><path d="M55.38 27.69 C55.38 29.29, 55.24 30.92, 54.96 32.5 C54.68 34.08, 54.26 35.65, 53.71 37.16 C53.16 38.67, 52.47 40.15, 51.67 41.53 C50.87 42.92, 49.93 44.26, 48.9 45.49 C47.87 46.72, 46.72 47.87, 45.49 48.9 C44.26 49.93, 42.92 50.87, 41.53 51.67 C40.15 52.47, 38.67 53.16, 37.16 53.71 C35.65 54.26, 34.08 54.68, 32.5 54.96 C30.92 55.24, 29.29 55.38, 27.69 55.38 C26.09 55.38, 24.46 55.24, 22.88 54.96 C21.3 54.68, 19.73 54.26, 18.22 53.71 C16.71 53.16, 15.23 52.47, 13.84 51.67 C12.46 50.87, 11.12 49.93, 9.89 48.9 C8.66 47.87, 7.51 46.72, 6.48 45.49 C5.45 44.26, 4.51 42.92, 3.71 41.53 C2.91 40.15, 2.22 38.67, 1.67 37.16 C1.12 35.65, 0.7 34.08, 0.42 32.5 C0.14 30.92, 0 29.29, 0 27.69 C0 26.09, 0.14 24.46, 0.42 22.88 C0.7 21.3, 1.12 19.73, 1.67 18.22 C2.22 16.71, 2.91 15.23, 3.71 13.84 C4.51 12.46, 5.45 11.12, 6.48 9.89 C7.51 8.66, 8.66 7.51, 9.89 6.48 C11.12 5.45, 12.46 4.51, 13.84 3.71 C15.23 2.91, 16.71 2.22, 18.22 1.67 C19.73 1.12, 21.3 0.7, 22.88 0.42 C24.46 0.14, 26.09 0, 27.69 0 C29.29 0, 30.92 0.14, 32.5 0.42 C34.08 0.7, 35.65 1.12, 37.16 1.67 C38.67 2.22, 40.15 2.91, 41.53 3.71 C42.92 4.51, 44.26 5.45, 45.49 6.48 C46.72 7.51, 47.87 8.66, 48.9 9.89 C49.93 11.12, 50.87 12.46, 51.67 13.84 C52.47 15.23, 53.16 16.71, 53.71 18.22 C54.26 19.73, 54.68 21.3, 54.96 22.88 C55.24 24.46, 55.31 26.89, 55.38 27.69 C55.45 28.49, 55.45 26.89, 55.38 27.69" stroke="#E1E1E1" stroke-width="4" fill="none"></path></g><g stroke-linecap="round"><g transform="translate(222.86991530208604 340.1106489339961) rotate(0 0 13.892999042283144)"><path d="M0 0 C0 4.63, 0 23.15, 0 27.79 M0 0 C0 4.63, 0 23.15, 0 27.79" stroke="#E1E1E1" stroke-width="4" fill="none"></path></g></g><mask></mask><g stroke-linecap="round"><g transform="translate(153.85570785387551 357.40322543562775) rotate(0 -71.92785392693776 -104.32802111324526)"><path d="M0 0 C0 -63.95, 0 -127.89, 0 -208.66 M0 0 C0 -57.74, 0 -115.47, 0 -208.66 M0 -208.66 C-28.28 -190.28, -56.56 -171.89, -93.73 -147.73 M0 -208.66 C-26.8 -191.23, -53.61 -173.81, -93.73 -147.73 M-93.73 -147.73 C-110.68 -147.49, -127.62 -147.26, -143.86 -147.03 M-93.73 -147.73 C-109.22 -147.51, -124.71 -147.3, -143.86 -147.03 M-143.86 -147.03 C-143.86 -129.3, -143.86 -111.58, -143.86 -64.32 M-143.86 -147.03 C-143.86 -114.57, -143.86 -82.12, -143.86 -64.32 M-143.86 -64.32 C-127.84 -64.32, -111.83 -64.32, -92.78 -64.32 M-143.86 -64.32 C-131.17 -64.32, -118.49 -64.32, -92.78 -64.32 M-92.78 -64.32 C-64.65 -44.82, -36.52 -25.31, 0 0 M-92.78 -64.32 C-59.87 -41.5, -26.96 -18.69, 0 0" stroke="#E1E1E1" stroke-width="4" fill="none"></path></g></g><mask></mask><g stroke-linecap="round"><g transform="translate(60.10293035321706 209.49545499925966) rotate(0 0 41.48293964615581)"><path d="M0 0 C0 25.2, 0 50.39, 0 82.97 M0 0 C0 18.13, 0 36.27, 0 82.97" stroke="#E1E1E1" stroke-width="4" fill="none"></path></g></g><mask></mask></svg>