<svg version="1.1" xmlns="http://www.w3.org/2000/svg" viewBox="0 0 511.4967854198967 554.6638806107546" width="511.4967854198967" height="554.6638806107546" class="excalidraw-svg"><!-- svg-source:excalidraw --><metadata></metadata><defs><style class="style-fonts">
      </style></defs><rect x="0" y="0" width="511.4967854198967" height="554.6638806107546" fill="#000000"></rect><g stroke-linecap="round" transform="translate(147.4006173239195 217.65485288862328) rotate(0 53.03879985142597 53.03879985142598)"><path d="M106.08 53.04 C106.08 55.35, 105.93 57.67, 105.62 59.96 C105.32 62.25, 104.87 64.54, 104.27 66.77 C103.67 69, 102.92 71.2, 102.04 73.34 C101.16 75.47, 100.13 77.56, 98.97 79.56 C97.82 81.56, 96.52 83.5, 95.12 85.33 C93.71 87.16, 92.17 88.91, 90.54 90.54 C88.91 92.17, 87.16 93.71, 85.33 95.12 C83.5 96.52, 81.56 97.82, 79.56 98.97 C77.56 100.13, 75.47 101.16, 73.34 102.04 C71.2 102.92, 69 103.67, 66.77 104.27 C64.54 104.87, 62.25 105.32, 59.96 105.62 C57.67 105.93, 55.35 106.08, 53.04 106.08 C50.73 106.08, 48.4 105.93, 46.12 105.62 C43.83 105.32, 41.54 104.87, 39.31 104.27 C37.08 103.67, 34.87 102.92, 32.74 102.04 C30.61 101.16, 28.52 100.13, 26.52 98.97 C24.52 97.82, 22.58 96.52, 20.75 95.12 C18.92 93.71, 17.17 92.17, 15.53 90.54 C13.9 88.91, 12.37 87.16, 10.96 85.33 C9.56 83.5, 8.26 81.56, 7.11 79.56 C5.95 77.56, 4.92 75.47, 4.04 73.34 C3.15 71.2, 2.4 69, 1.81 66.77 C1.21 64.54, 0.75 62.25, 0.45 59.96 C0.15 57.67, 0 55.35, 0 53.04 C0 50.73, 0.15 48.4, 0.45 46.12 C0.75 43.83, 1.21 41.54, 1.81 39.31 C2.4 37.08, 3.15 34.87, 4.04 32.74 C4.92 30.61, 5.95 28.52, 7.11 26.52 C8.26 24.52, 9.56 22.58, 10.96 20.75 C12.37 18.92, 13.9 17.17, 15.53 15.53 C17.17 13.9, 18.92 12.37, 20.75 10.96 C22.58 9.56, 24.52 8.26, 26.52 7.11 C28.52 5.95, 30.61 4.92, 32.74 4.04 C34.87 3.15, 37.08 2.4, 39.31 1.81 C41.54 1.21, 43.83 0.75, 46.12 0.45 C48.4 0.15, 50.73 0, 53.04 0 C55.35 0, 57.67 0.15, 59.96 0.45 C62.25 0.75, 64.54 1.21, 66.77 1.81 C69 2.4, 71.2 3.15, 73.34 4.04 C75.47 4.92, 77.56 5.95, 79.56 7.11 C81.56 8.26, 83.5 9.56, 85.33 10.96 C87.16 12.37, 88.91 13.9, 90.54 15.53 C92.17 17.17, 93.71 18.92, 95.12 20.75 C96.52 22.58, 97.82 24.52, 98.97 26.52 C100.13 28.52, 101.16 30.61, 102.04 32.74 C102.92 34.87, 103.67 37.08, 104.27 39.31 C104.87 41.54, 105.32 43.83, 105.62 46.12 C105.93 48.4, 106 51.88, 106.08 53.04 C106.15 54.19, 106.15 51.88, 106.08 53.04" stroke="#E1E1E1" stroke-width="4" fill="none"></path></g><g stroke-linecap="round" transform="translate(286.2292230824878 291.1661393364193) rotate(0 26.00744794476472 26.00744794476472)"><path d="M52.01 26.01 C52.01 27.51, 51.88 29.04, 51.62 30.52 C51.36 32.01, 50.96 33.49, 50.45 34.9 C49.93 36.32, 49.28 37.71, 48.53 39.01 C47.78 40.31, 46.9 41.57, 45.93 42.72 C44.96 43.88, 43.88 44.96, 42.72 45.93 C41.57 46.9, 40.31 47.78, 39.01 48.53 C37.71 49.28, 36.32 49.93, 34.9 50.45 C33.49 50.96, 32.01 51.36, 30.52 51.62 C29.04 51.88, 27.51 52.01, 26.01 52.01 C24.5 52.01, 22.97 51.88, 21.49 51.62 C20.01 51.36, 18.53 50.96, 17.11 50.45 C15.7 49.93, 14.31 49.28, 13 48.53 C11.7 47.78, 10.44 46.9, 9.29 45.93 C8.14 44.96, 7.05 43.88, 6.08 42.72 C5.12 41.57, 4.24 40.31, 3.48 39.01 C2.73 37.71, 2.08 36.32, 1.57 34.9 C1.05 33.49, 0.66 32.01, 0.4 30.52 C0.13 29.04, 0 27.51, 0 26.01 C0 24.5, 0.13 22.97, 0.4 21.49 C0.66 20.01, 1.05 18.53, 1.57 17.11 C2.08 15.7, 2.73 14.31, 3.48 13 C4.24 11.7, 5.12 10.44, 6.08 9.29 C7.05 8.14, 8.14 7.05, 9.29 6.08 C10.44 5.12, 11.7 4.24, 13 3.48 C14.31 2.73, 15.7 2.08, 17.11 1.57 C18.53 1.05, 20.01 0.66, 21.49 0.4 C22.97 0.13, 24.5 0, 26.01 0 C27.51 0, 29.04 0.13, 30.52 0.4 C32.01 0.66, 33.49 1.05, 34.9 1.57 C36.32 2.08, 37.71 2.73, 39.01 3.48 C40.31 4.24, 41.57 5.12, 42.72 6.08 C43.88 7.05, 44.96 8.14, 45.93 9.29 C46.9 10.44, 47.78 11.7, 48.53 13 C49.28 14.31, 49.93 15.7, 50.45 17.11 C50.96 18.53, 51.36 20.01, 51.62 21.49 C51.88 22.97, 51.95 25.25, 52.01 26.01 C52.08 26.76, 52.08 25.25, 52.01 26.01" stroke="#E1E1E1" stroke-width="4" fill="none"></path></g><g stroke-linecap="round" transform="translate(429.1236829532154 187.22124965060357) rotate(0 36.18655123334065 34.983625960381744)"><path d="M72.37 34.98 C72.37 36.81, 72.22 38.65, 71.93 40.46 C71.63 42.26, 71.19 44.06, 70.6 45.79 C70.02 47.53, 69.29 49.24, 68.43 50.87 C67.57 52.49, 66.57 54.07, 65.46 55.55 C64.35 57.02, 63.11 58.43, 61.77 59.72 C60.44 61.01, 58.98 62.21, 57.46 63.29 C55.93 64.36, 54.3 65.33, 52.61 66.15 C50.93 66.98, 49.16 67.69, 47.37 68.26 C45.57 68.82, 43.71 69.25, 41.85 69.54 C39.98 69.82, 38.07 69.97, 36.19 69.97 C34.3 69.97, 32.39 69.82, 30.53 69.54 C28.66 69.25, 26.8 68.82, 25 68.26 C23.21 67.69, 21.44 66.98, 19.76 66.15 C18.08 65.33, 16.44 64.36, 14.92 63.29 C13.39 62.21, 11.93 61.01, 10.6 59.72 C9.26 58.43, 8.02 57.02, 6.91 55.55 C5.8 54.07, 4.8 52.49, 3.94 50.87 C3.09 49.24, 2.35 47.53, 1.77 45.79 C1.19 44.06, 0.74 42.26, 0.45 40.46 C0.15 38.65, 0 36.81, 0 34.98 C0 33.16, 0.15 31.31, 0.45 29.51 C0.74 27.71, 1.19 25.91, 1.77 24.17 C2.35 22.44, 3.09 20.73, 3.94 19.1 C4.8 17.48, 5.8 15.9, 6.91 14.42 C8.02 12.94, 9.26 11.54, 10.6 10.25 C11.93 8.96, 13.39 7.75, 14.92 6.68 C16.44 5.61, 18.08 4.64, 19.76 3.81 C21.44 2.98, 23.21 2.28, 25 1.71 C26.8 1.15, 28.66 0.72, 30.53 0.43 C32.39 0.15, 34.3 0, 36.19 0 C38.07 0, 39.98 0.15, 41.85 0.43 C43.71 0.72, 45.57 1.15, 47.37 1.71 C49.16 2.28, 50.93 2.98, 52.61 3.81 C54.3 4.64, 55.93 5.61, 57.46 6.68 C58.98 7.75, 60.44 8.96, 61.77 10.25 C63.11 11.54, 64.35 12.94, 65.46 14.42 C66.57 15.9, 67.57 17.48, 68.43 19.1 C69.29 20.73, 70.02 22.44, 70.6 24.17 C71.19 25.91, 71.63 27.71, 71.93 29.51 C72.22 31.31, 72.3 34.07, 72.37 34.98 C72.45 35.9, 72.45 34.07, 72.37 34.98" stroke="#E1E1E1" stroke-width="4" fill="none"></path></g><g stroke-linecap="round" transform="translate(360.88444828963657 414.4949692121263) rotate(0 42.72372026123301 42.723720261233005)"><path d="M85.45 42.72 C85.45 44.75, 85.3 46.8, 85.01 48.8 C84.72 50.81, 84.29 52.82, 83.72 54.76 C83.15 56.71, 82.43 58.63, 81.59 60.47 C80.74 62.32, 79.76 64.12, 78.67 65.82 C77.57 67.53, 76.34 69.17, 75.01 70.7 C73.68 72.23, 72.23 73.68, 70.7 75.01 C69.17 76.34, 67.53 77.57, 65.82 78.67 C64.12 79.76, 62.32 80.74, 60.47 81.59 C58.63 82.43, 56.71 83.15, 54.76 83.72 C52.82 84.29, 50.81 84.72, 48.8 85.01 C46.8 85.3, 44.75 85.45, 42.72 85.45 C40.7 85.45, 38.65 85.3, 36.64 85.01 C34.64 84.72, 32.63 84.29, 30.69 83.72 C28.74 83.15, 26.82 82.43, 24.98 81.59 C23.13 80.74, 21.33 79.76, 19.63 78.67 C17.92 77.57, 16.28 76.34, 14.75 75.01 C13.21 73.68, 11.76 72.23, 10.44 70.7 C9.11 69.17, 7.88 67.53, 6.78 65.82 C5.69 64.12, 4.7 62.32, 3.86 60.47 C3.02 58.63, 2.3 56.71, 1.73 54.76 C1.16 52.82, 0.72 50.81, 0.43 48.8 C0.15 46.8, 0 44.75, 0 42.72 C0 40.7, 0.15 38.65, 0.43 36.64 C0.72 34.64, 1.16 32.63, 1.73 30.69 C2.3 28.74, 3.02 26.82, 3.86 24.98 C4.7 23.13, 5.69 21.33, 6.78 19.63 C7.88 17.92, 9.11 16.28, 10.44 14.75 C11.76 13.21, 13.21 11.76, 14.75 10.44 C16.28 9.11, 17.92 7.88, 19.63 6.78 C21.33 5.69, 23.13 4.7, 24.98 3.86 C26.82 3.02, 28.74 2.3, 30.69 1.73 C32.63 1.16, 34.64 0.72, 36.64 0.43 C38.65 0.15, 40.7 0, 42.72 0 C44.75 0, 46.8 0.15, 48.8 0.43 C50.81 0.72, 52.82 1.16, 54.76 1.73 C56.71 2.3, 58.63 3.02, 60.47 3.86 C62.32 4.7, 64.12 5.69, 65.82 6.78 C67.53 7.88, 69.17 9.11, 70.7 10.44 C72.23 11.76, 73.68 13.21, 75.01 14.75 C76.34 16.28, 77.57 17.92, 78.67 19.63 C79.76 21.33, 80.74 23.13, 81.59 24.98 C82.43 26.82, 83.15 28.74, 83.72 30.69 C84.29 32.63, 84.72 34.64, 85.01 36.64 C85.3 38.65, 85.37 41.71, 85.45 42.72 C85.52 43.74, 85.52 41.71, 85.45 42.72" stroke="#E1E1E1" stroke-width="4" fill="none"></path></g><g stroke-linecap="round" transform="translate(88.408293301718 362.1745058816432) rotate(0 47.276308048705985 47.276308048705985)"><path d="M94.55 47.28 C94.55 49.52, 94.39 51.78, 94.07 54 C93.75 56.22, 93.27 58.44, 92.64 60.6 C92.01 62.75, 91.21 64.88, 90.28 66.92 C89.35 68.96, 88.26 70.95, 87.05 72.84 C85.84 74.72, 84.47 76.54, 83.01 78.24 C81.54 79.93, 79.93 81.54, 78.24 83.01 C76.54 84.47, 74.72 85.84, 72.84 87.05 C70.95 88.26, 68.96 89.35, 66.92 90.28 C64.88 91.21, 62.75 92.01, 60.6 92.64 C58.44 93.27, 56.22 93.75, 54 94.07 C51.78 94.39, 49.52 94.55, 47.28 94.55 C45.03 94.55, 42.77 94.39, 40.55 94.07 C38.33 93.75, 36.11 93.27, 33.96 92.64 C31.81 92.01, 29.68 91.21, 27.64 90.28 C25.6 89.35, 23.6 88.26, 21.72 87.05 C19.83 85.84, 18.01 84.47, 16.32 83.01 C14.62 81.54, 13.02 79.93, 11.55 78.24 C10.08 76.54, 8.72 74.72, 7.5 72.84 C6.29 70.95, 5.2 68.96, 4.27 66.92 C3.34 64.88, 2.55 62.75, 1.92 60.6 C1.28 58.44, 0.8 56.22, 0.48 54 C0.16 51.78, 0 49.52, 0 47.28 C0 45.03, 0.16 42.77, 0.48 40.55 C0.8 38.33, 1.28 36.11, 1.92 33.96 C2.55 31.81, 3.34 29.68, 4.27 27.64 C5.2 25.6, 6.29 23.6, 7.5 21.72 C8.72 19.83, 10.08 18.01, 11.55 16.32 C13.02 14.62, 14.62 13.02, 16.32 11.55 C18.01 10.08, 19.83 8.72, 21.72 7.5 C23.6 6.29, 25.6 5.2, 27.64 4.27 C29.68 3.34, 31.81 2.55, 33.96 1.92 C36.11 1.28, 38.33 0.8, 40.55 0.48 C42.77 0.16, 45.03 0, 47.28 0 C49.52 0, 51.78 0.16, 54 0.48 C56.22 0.8, 58.44 1.28, 60.6 1.92 C62.75 2.55, 64.88 3.34, 66.92 4.27 C68.96 5.2, 70.95 6.29, 72.84 7.5 C74.72 8.72, 76.54 10.08, 78.24 11.55 C79.93 13.02, 81.54 14.62, 83.01 16.32 C84.47 18.01, 85.84 19.83, 87.05 21.72 C88.26 23.6, 89.35 25.6, 90.28 27.64 C91.21 29.68, 92.01 31.81, 92.64 33.96 C93.27 36.11, 93.75 38.33, 94.07 40.55 C94.39 42.77, 94.47 46.15, 94.55 47.28 C94.63 48.4, 94.63 46.15, 94.55 47.28" stroke="#E1E1E1" stroke-width="4" fill="none"></path></g><g stroke-linecap="round" transform="translate(218.4540688090692 351.92533504112725) rotate(0 53.03879985142597 53.03879985142597)"><path d="M106.08 53.04 C106.08 55.35, 105.93 57.67, 105.62 59.96 C105.32 62.25, 104.87 64.54, 104.27 66.77 C103.67 69, 102.92 71.2, 102.04 73.34 C101.16 75.47, 100.13 77.56, 98.97 79.56 C97.82 81.56, 96.52 83.5, 95.12 85.33 C93.71 87.16, 92.17 88.91, 90.54 90.54 C88.91 92.17, 87.16 93.71, 85.33 95.12 C83.5 96.52, 81.56 97.82, 79.56 98.97 C77.56 100.13, 75.47 101.16, 73.34 102.04 C71.2 102.92, 69 103.67, 66.77 104.27 C64.54 104.87, 62.25 105.32, 59.96 105.62 C57.67 105.93, 55.35 106.08, 53.04 106.08 C50.73 106.08, 48.4 105.93, 46.12 105.62 C43.83 105.32, 41.54 104.87, 39.31 104.27 C37.08 103.67, 34.87 102.92, 32.74 102.04 C30.61 101.16, 28.52 100.13, 26.52 98.97 C24.52 97.82, 22.58 96.52, 20.75 95.12 C18.92 93.71, 17.17 92.17, 15.53 90.54 C13.9 88.91, 12.37 87.16, 10.96 85.33 C9.56 83.5, 8.26 81.56, 7.11 79.56 C5.95 77.56, 4.92 75.47, 4.04 73.34 C3.15 71.2, 2.4 69, 1.81 66.77 C1.21 64.54, 0.75 62.25, 0.45 59.96 C0.15 57.67, 0 55.35, 0 53.04 C0 50.73, 0.15 48.4, 0.45 46.12 C0.75 43.83, 1.21 41.54, 1.81 39.31 C2.4 37.08, 3.15 34.87, 4.04 32.74 C4.92 30.61, 5.95 28.52, 7.11 26.52 C8.26 24.52, 9.56 22.58, 10.96 20.75 C12.37 18.92, 13.9 17.17, 15.53 15.53 C17.17 13.9, 18.92 12.37, 20.75 10.96 C22.58 9.56, 24.52 8.26, 26.52 7.11 C28.52 5.95, 30.61 4.92, 32.74 4.04 C34.87 3.15, 37.08 2.4, 39.31 1.81 C41.54 1.21, 43.83 0.75, 46.12 0.45 C48.4 0.15, 50.73 0, 53.04 0 C55.35 0, 57.67 0.15, 59.96 0.45 C62.25 0.75, 64.54 1.21, 66.77 1.81 C69 2.4, 71.2 3.15, 73.34 4.04 C75.47 4.92, 77.56 5.95, 79.56 7.11 C81.56 8.26, 83.5 9.56, 85.33 10.96 C87.16 12.37, 88.91 13.9, 90.54 15.53 C92.17 17.17, 93.71 18.92, 95.12 20.75 C96.52 22.58, 97.82 24.52, 98.97 26.52 C100.13 28.52, 101.16 30.61, 102.04 32.74 C102.92 34.87, 103.67 37.08, 104.27 39.31 C104.87 41.54, 105.32 43.83, 105.62 46.12 C105.93 48.4, 106 51.88, 106.08 53.04 C106.15 54.19, 106.15 51.88, 106.08 53.04" stroke="#E1E1E1" stroke-width="4" fill="none"></path></g><g stroke-linecap="round" transform="translate(346.2543832973861 288.3010330697507) rotate(0 53.03879985142598 53.03879985142597)"><path d="M106.08 53.04 C106.08 55.35, 105.93 57.67, 105.62 59.96 C105.32 62.25, 104.87 64.54, 104.27 66.77 C103.67 69, 102.92 71.2, 102.04 73.34 C101.16 75.47, 100.13 77.56, 98.97 79.56 C97.82 81.56, 96.52 83.5, 95.12 85.33 C93.71 87.16, 92.17 88.91, 90.54 90.54 C88.91 92.17, 87.16 93.71, 85.33 95.12 C83.5 96.52, 81.56 97.82, 79.56 98.97 C77.56 100.13, 75.47 101.16, 73.34 102.04 C71.2 102.92, 69 103.67, 66.77 104.27 C64.54 104.87, 62.25 105.32, 59.96 105.62 C57.67 105.93, 55.35 106.08, 53.04 106.08 C50.73 106.08, 48.4 105.93, 46.12 105.62 C43.83 105.32, 41.54 104.87, 39.31 104.27 C37.08 103.67, 34.87 102.92, 32.74 102.04 C30.61 101.16, 28.52 100.13, 26.52 98.97 C24.52 97.82, 22.58 96.52, 20.75 95.12 C18.92 93.71, 17.17 92.17, 15.53 90.54 C13.9 88.91, 12.37 87.16, 10.96 85.33 C9.56 83.5, 8.26 81.56, 7.11 79.56 C5.95 77.56, 4.92 75.47, 4.04 73.34 C3.15 71.2, 2.4 69, 1.81 66.77 C1.21 64.54, 0.75 62.25, 0.45 59.96 C0.15 57.67, 0 55.35, 0 53.04 C0 50.73, 0.15 48.4, 0.45 46.12 C0.75 43.83, 1.21 41.54, 1.81 39.31 C2.4 37.08, 3.15 34.87, 4.04 32.74 C4.92 30.61, 5.95 28.52, 7.11 26.52 C8.26 24.52, 9.56 22.58, 10.96 20.75 C12.37 18.92, 13.9 17.17, 15.53 15.53 C17.17 13.9, 18.92 12.37, 20.75 10.96 C22.58 9.56, 24.52 8.26, 26.52 7.11 C28.52 5.95, 30.61 4.92, 32.74 4.04 C34.87 3.15, 37.08 2.4, 39.31 1.81 C41.54 1.21, 43.83 0.75, 46.12 0.45 C48.4 0.15, 50.73 0, 53.04 0 C55.35 0, 57.67 0.15, 59.96 0.45 C62.25 0.75, 64.54 1.21, 66.77 1.81 C69 2.4, 71.2 3.15, 73.34 4.04 C75.47 4.92, 77.56 5.95, 79.56 7.11 C81.56 8.26, 83.5 9.56, 85.33 10.96 C87.16 12.37, 88.91 13.9, 90.54 15.53 C92.17 17.17, 93.71 18.92, 95.12 20.75 C96.52 22.58, 97.82 24.52, 98.97 26.52 C100.13 28.52, 101.16 30.61, 102.04 32.74 C102.92 34.87, 103.67 37.08, 104.27 39.31 C104.87 41.54, 105.32 43.83, 105.62 46.12 C105.93 48.4, 106 51.88, 106.08 53.04 C106.15 54.19, 106.15 51.88, 106.08 53.04" stroke="#E1E1E1" stroke-width="4" fill="none"></path></g><g stroke-linecap="round" transform="translate(277.24084011697414 147.1341690976842) rotate(0 53.03879985142598 53.03879985142598)"><path d="M106.08 53.04 C106.08 55.35, 105.93 57.67, 105.62 59.96 C105.32 62.25, 104.87 64.54, 104.27 66.77 C103.67 69, 102.92 71.2, 102.04 73.34 C101.16 75.47, 100.13 77.56, 98.97 79.56 C97.82 81.56, 96.52 83.5, 95.12 85.33 C93.71 87.16, 92.17 88.91, 90.54 90.54 C88.91 92.17, 87.16 93.71, 85.33 95.12 C83.5 96.52, 81.56 97.82, 79.56 98.97 C77.56 100.13, 75.47 101.16, 73.34 102.04 C71.2 102.92, 69 103.67, 66.77 104.27 C64.54 104.87, 62.25 105.32, 59.96 105.62 C57.67 105.93, 55.35 106.08, 53.04 106.08 C50.73 106.08, 48.4 105.93, 46.12 105.62 C43.83 105.32, 41.54 104.87, 39.31 104.27 C37.08 103.67, 34.87 102.92, 32.74 102.04 C30.61 101.16, 28.52 100.13, 26.52 98.97 C24.52 97.82, 22.58 96.52, 20.75 95.12 C18.92 93.71, 17.17 92.17, 15.53 90.54 C13.9 88.91, 12.37 87.16, 10.96 85.33 C9.56 83.5, 8.26 81.56, 7.11 79.56 C5.95 77.56, 4.92 75.47, 4.04 73.34 C3.15 71.2, 2.4 69, 1.81 66.77 C1.21 64.54, 0.75 62.25, 0.45 59.96 C0.15 57.67, 0 55.35, 0 53.04 C0 50.73, 0.15 48.4, 0.45 46.12 C0.75 43.83, 1.21 41.54, 1.81 39.31 C2.4 37.08, 3.15 34.87, 4.04 32.74 C4.92 30.61, 5.95 28.52, 7.11 26.52 C8.26 24.52, 9.56 22.58, 10.96 20.75 C12.37 18.92, 13.9 17.17, 15.53 15.53 C17.17 13.9, 18.92 12.37, 20.75 10.96 C22.58 9.56, 24.52 8.26, 26.52 7.11 C28.52 5.95, 30.61 4.92, 32.74 4.04 C34.87 3.15, 37.08 2.4, 39.31 1.81 C41.54 1.21, 43.83 0.75, 46.12 0.45 C48.4 0.15, 50.73 0, 53.04 0 C55.35 0, 57.67 0.15, 59.96 0.45 C62.25 0.75, 64.54 1.21, 66.77 1.81 C69 2.4, 71.2 3.15, 73.34 4.04 C75.47 4.92, 77.56 5.95, 79.56 7.11 C81.56 8.26, 83.5 9.56, 85.33 10.96 C87.16 12.37, 88.91 13.9, 90.54 15.53 C92.17 17.17, 93.71 18.92, 95.12 20.75 C96.52 22.58, 97.82 24.52, 98.97 26.52 C100.13 28.52, 101.16 30.61, 102.04 32.74 C102.92 34.87, 103.67 37.08, 104.27 39.31 C104.87 41.54, 105.32 43.83, 105.62 46.12 C105.93 48.4, 106 51.88, 106.08 53.04 C106.15 54.19, 106.15 51.88, 106.08 53.04" stroke="#E1E1E1" stroke-width="4" fill="none"></path></g><g stroke-linecap="round"><g transform="translate(383.53273082572014 193.14517109830922) rotate(0 22.913746564086182 11.381101876643555)"><path d="M0 0 C7.64 3.79, 38.19 18.97, 45.83 22.76 M0 0 C7.64 3.79, 38.19 18.97, 45.83 22.76" stroke="#E1E1E1" stroke-width="4" fill="none"></path></g></g><mask></mask><g stroke-linecap="round"><g transform="translate(276.15754580540306 203.2275037292784) rotate(0 -18.25735691664621 14.88316151995086)"><path d="M0 0 C-6.09 4.96, -30.43 24.81, -36.51 29.77 M0 0 C-6.09 4.96, -30.43 24.81, -36.51 29.77" stroke="#E1E1E1" stroke-width="4" fill="none"></path></g></g><mask></mask><g stroke-linecap="round"><g transform="translate(200.16829761540066 181.128299773236) rotate(0 -0.021310707768744663 17.20247688210057)"><path d="M0 0 C-0.01 5.73, -0.04 28.67, -0.04 34.4 M0 0 C-0.01 5.73, -0.04 28.67, -0.04 34.4" stroke="#E1E1E1" stroke-width="4" fill="none"></path></g></g><mask></mask><g stroke-linecap="round"><g transform="translate(254.97470228341263 268.3246123931058) rotate(0 17.803912412458587 13.991663578297604)"><path d="M0 0 C5.93 4.66, 29.67 23.32, 35.61 27.98 M0 0 C5.93 4.66, 29.67 23.32, 35.61 27.98" stroke="#E1E1E1" stroke-width="4" fill="none"></path></g></g><mask></mask><g stroke-linecap="round"><g transform="translate(362.48959083243426 243.18034508257188) rotate(0 15.856350508050227 22.314678890146553)"><path d="M0 0 C5.29 7.44, 26.43 37.19, 31.71 44.63 M0 0 C5.29 7.44, 26.43 37.19, 31.71 44.63" stroke="#E1E1E1" stroke-width="4" fill="none"></path></g></g><mask></mask><g stroke-linecap="round"><g transform="translate(349.15145562570615 361.234562551379) rotate(0 -14.351577753944952 10.958439505899584)"><path d="M0 0 C-4.78 3.65, -23.92 18.26, -28.7 21.92 M0 0 C-4.78 3.65, -23.92 18.26, -28.7 21.92" stroke="#E1E1E1" stroke-width="4" fill="none"></path></g></g><mask></mask><g stroke-linecap="round"><g transform="translate(400.09606936383716 393.88666456832107) rotate(0 0.7686308147231955 8.64354310495196)"><path d="M0 0 C0.26 2.88, 1.28 14.41, 1.54 17.29 M0 0 C0.26 2.88, 1.28 14.41, 1.54 17.29" stroke="#E1E1E1" stroke-width="4" fill="none"></path></g></g><mask></mask><g stroke-linecap="round"><g transform="translate(218.87909903623404 405.0043884516708) rotate(0 -17.87613203323011 -0.046173200165327444)"><path d="M0 0 C-5.96 -0.02, -29.79 -0.08, -35.75 -0.09 M0 0 C-5.96 -0.02, -29.79 -0.08, -35.75 -0.09" stroke="#E1E1E1" stroke-width="4" fill="none"></path></g></g><mask></mask><g stroke-linecap="round" transform="translate(184.11669942746994 236.93877313231496) rotate(0 17.50674643190784 17.506746431907843)"><path d="M35.01 17.51 C35.01 18.52, 34.92 19.55, 34.75 20.55 C34.57 21.54, 34.3 22.54, 33.96 23.49 C33.61 24.45, 33.17 25.38, 32.67 26.26 C32.16 27.14, 31.57 27.98, 30.92 28.76 C30.27 29.54, 29.54 30.27, 28.76 30.92 C27.98 31.57, 27.14 32.16, 26.26 32.67 C25.38 33.17, 24.45 33.61, 23.49 33.96 C22.54 34.3, 21.54 34.57, 20.55 34.75 C19.55 34.92, 18.52 35.01, 17.51 35.01 C16.49 35.01, 15.46 34.92, 14.47 34.75 C13.47 34.57, 12.47 34.3, 11.52 33.96 C10.57 33.61, 9.63 33.17, 8.75 32.67 C7.88 32.16, 7.03 31.57, 6.25 30.92 C5.48 30.27, 4.75 29.54, 4.1 28.76 C3.44 27.98, 2.85 27.14, 2.35 26.26 C1.84 25.38, 1.4 24.45, 1.06 23.49 C0.71 22.54, 0.44 21.54, 0.27 20.55 C0.09 19.55, 0 18.52, 0 17.51 C0 16.49, 0.09 15.46, 0.27 14.47 C0.44 13.47, 0.71 12.47, 1.06 11.52 C1.4 10.57, 1.84 9.63, 2.35 8.75 C2.85 7.88, 3.44 7.03, 4.1 6.25 C4.75 5.48, 5.48 4.75, 6.25 4.1 C7.03 3.44, 7.88 2.85, 8.75 2.35 C9.63 1.84, 10.57 1.4, 11.52 1.06 C12.47 0.71, 13.47 0.44, 14.47 0.27 C15.46 0.09, 16.49 0, 17.51 0 C18.52 0, 19.55 0.09, 20.55 0.27 C21.54 0.44, 22.54 0.71, 23.49 1.06 C24.45 1.4, 25.38 1.84, 26.26 2.35 C27.14 2.85, 27.98 3.44, 28.76 4.1 C29.54 4.75, 30.27 5.48, 30.92 6.25 C31.57 7.03, 32.16 7.88, 32.67 8.75 C33.17 9.63, 33.61 10.57, 33.96 11.52 C34.3 12.47, 34.57 13.47, 34.75 14.47 C34.92 15.46, 34.97 17, 35.01 17.51 C35.06 18.01, 35.06 17, 35.01 17.51" stroke="#E1E1E1" stroke-width="4" fill="none"></path></g><g stroke-linecap="round" transform="translate(311.96715084098105 166.80935040787335) rotate(0 17.506746431907843 17.50674643190783)"><path d="M35.01 17.51 C35.01 18.52, 34.92 19.55, 34.75 20.55 C34.57 21.54, 34.3 22.54, 33.96 23.49 C33.61 24.45, 33.17 25.38, 32.67 26.26 C32.16 27.14, 31.57 27.98, 30.92 28.76 C30.27 29.54, 29.54 30.27, 28.76 30.92 C27.98 31.57, 27.14 32.16, 26.26 32.67 C25.38 33.17, 24.45 33.61, 23.49 33.96 C22.54 34.3, 21.54 34.57, 20.55 34.75 C19.55 34.92, 18.52 35.01, 17.51 35.01 C16.49 35.01, 15.46 34.92, 14.47 34.75 C13.47 34.57, 12.47 34.3, 11.52 33.96 C10.57 33.61, 9.63 33.17, 8.75 32.67 C7.88 32.16, 7.03 31.57, 6.25 30.92 C5.48 30.27, 4.75 29.54, 4.1 28.76 C3.44 27.98, 2.85 27.14, 2.35 26.26 C1.84 25.38, 1.4 24.45, 1.06 23.49 C0.71 22.54, 0.44 21.54, 0.27 20.55 C0.09 19.55, 0 18.52, 0 17.51 C0 16.49, 0.09 15.46, 0.27 14.47 C0.44 13.47, 0.71 12.47, 1.06 11.52 C1.4 10.57, 1.84 9.63, 2.35 8.75 C2.85 7.88, 3.44 7.03, 4.1 6.25 C4.75 5.48, 5.48 4.75, 6.25 4.1 C7.03 3.44, 7.88 2.85, 8.75 2.35 C9.63 1.84, 10.57 1.4, 11.52 1.06 C12.47 0.71, 13.47 0.44, 14.47 0.27 C15.46 0.09, 16.49 0, 17.51 0 C18.52 0, 19.55 0.09, 20.55 0.27 C21.54 0.44, 22.54 0.71, 23.49 1.06 C24.45 1.4, 25.38 1.84, 26.26 2.35 C27.14 2.85, 27.98 3.44, 28.76 4.1 C29.54 4.75, 30.27 5.48, 30.92 6.25 C31.57 7.03, 32.16 7.88, 32.67 8.75 C33.17 9.63, 33.61 10.57, 33.96 11.52 C34.3 12.47, 34.57 13.47, 34.75 14.47 C34.92 15.46, 34.97 17, 35.01 17.51 C35.06 18.01, 35.06 17, 35.01 17.51" stroke="#E1E1E1" stroke-width="4" fill="none"></path></g><g stroke-linecap="round" transform="translate(381.3914826950295 307.20077704606047) rotate(0 17.506746431907843 17.506746431907843)"><path d="M35.01 17.51 C35.01 18.52, 34.92 19.55, 34.75 20.55 C34.57 21.54, 34.3 22.54, 33.96 23.49 C33.61 24.45, 33.17 25.38, 32.67 26.26 C32.16 27.14, 31.57 27.98, 30.92 28.76 C30.27 29.54, 29.54 30.27, 28.76 30.92 C27.98 31.57, 27.14 32.16, 26.26 32.67 C25.38 33.17, 24.45 33.61, 23.49 33.96 C22.54 34.3, 21.54 34.57, 20.55 34.75 C19.55 34.92, 18.52 35.01, 17.51 35.01 C16.49 35.01, 15.46 34.92, 14.47 34.75 C13.47 34.57, 12.47 34.3, 11.52 33.96 C10.57 33.61, 9.63 33.17, 8.75 32.67 C7.88 32.16, 7.03 31.57, 6.25 30.92 C5.48 30.27, 4.75 29.54, 4.1 28.76 C3.44 27.98, 2.85 27.14, 2.35 26.26 C1.84 25.38, 1.4 24.45, 1.06 23.49 C0.71 22.54, 0.44 21.54, 0.27 20.55 C0.09 19.55, 0 18.52, 0 17.51 C0 16.49, 0.09 15.46, 0.27 14.47 C0.44 13.47, 0.71 12.47, 1.06 11.52 C1.4 10.57, 1.84 9.63, 2.35 8.75 C2.85 7.88, 3.44 7.03, 4.1 6.25 C4.75 5.48, 5.48 4.75, 6.25 4.1 C7.03 3.44, 7.88 2.85, 8.75 2.35 C9.63 1.84, 10.57 1.4, 11.52 1.06 C12.47 0.71, 13.47 0.44, 14.47 0.27 C15.46 0.09, 16.49 0, 17.51 0 C18.52 0, 19.55 0.09, 20.55 0.27 C21.54 0.44, 22.54 0.71, 23.49 1.06 C24.45 1.4, 25.38 1.84, 26.26 2.35 C27.14 2.85, 27.98 3.44, 28.76 4.1 C29.54 4.75, 30.27 5.48, 30.92 6.25 C31.57 7.03, 32.16 7.88, 32.67 8.75 C33.17 9.63, 33.61 10.57, 33.96 11.52 C34.3 12.47, 34.57 13.47, 34.75 14.47 C34.92 15.46, 34.97 17, 35.01 17.51 C35.06 18.01, 35.06 17, 35.01 17.51" stroke="#E1E1E1" stroke-width="4" fill="none"></path></g><g stroke-linecap="round" transform="translate(252.95646876503815 370.83974791226865) rotate(0 17.506746431907843 17.50674643190784)"><path d="M35.01 17.51 C35.01 18.52, 34.92 19.55, 34.75 20.55 C34.57 21.54, 34.3 22.54, 33.96 23.49 C33.61 24.45, 33.17 25.38, 32.67 26.26 C32.16 27.14, 31.57 27.98, 30.92 28.76 C30.27 29.54, 29.54 30.27, 28.76 30.92 C27.98 31.57, 27.14 32.16, 26.26 32.67 C25.38 33.17, 24.45 33.61, 23.49 33.96 C22.54 34.3, 21.54 34.57, 20.55 34.75 C19.55 34.92, 18.52 35.01, 17.51 35.01 C16.49 35.01, 15.46 34.92, 14.47 34.75 C13.47 34.57, 12.47 34.3, 11.52 33.96 C10.57 33.61, 9.63 33.17, 8.75 32.67 C7.88 32.16, 7.03 31.57, 6.25 30.92 C5.48 30.27, 4.75 29.54, 4.1 28.76 C3.44 27.98, 2.85 27.14, 2.35 26.26 C1.84 25.38, 1.4 24.45, 1.06 23.49 C0.71 22.54, 0.44 21.54, 0.27 20.55 C0.09 19.55, 0 18.52, 0 17.51 C0 16.49, 0.09 15.46, 0.27 14.47 C0.44 13.47, 0.71 12.47, 1.06 11.52 C1.4 10.57, 1.84 9.63, 2.35 8.75 C2.85 7.88, 3.44 7.03, 4.1 6.25 C4.75 5.48, 5.48 4.75, 6.25 4.1 C7.03 3.44, 7.88 2.85, 8.75 2.35 C9.63 1.84, 10.57 1.4, 11.52 1.06 C12.47 0.71, 13.47 0.44, 14.47 0.27 C15.46 0.09, 16.49 0, 17.51 0 C18.52 0, 19.55 0.09, 20.55 0.27 C21.54 0.44, 22.54 0.71, 23.49 1.06 C24.45 1.4, 25.38 1.84, 26.26 2.35 C27.14 2.85, 27.98 3.44, 28.76 4.1 C29.54 4.75, 30.27 5.48, 30.92 6.25 C31.57 7.03, 32.16 7.88, 32.67 8.75 C33.17 9.63, 33.61 10.57, 33.96 11.52 C34.3 12.47, 34.57 13.47, 34.75 14.47 C34.92 15.46, 34.97 17, 35.01 17.51 C35.06 18.01, 35.06 17, 35.01 17.51" stroke="#E1E1E1" stroke-width="4" fill="none"></path></g><g stroke-linecap="round"><g transform="translate(175.0680362834355 316.6863615250386) rotate(0 27.276319792786577 -12.880714522269571)"><path d="M0 0 C-0.1 -2.17, -1.22 -9.3, -0.6 -13.02 C0.01 -16.74, 1.55 -20.23, 3.68 -22.35 C5.82 -24.47, 7.09 -25.21, 12.21 -25.76 C17.33 -26.31, 28.42 -25.8, 34.39 -25.65 C40.37 -25.5, 44.85 -25.89, 48.06 -24.86 C51.27 -23.82, 52.45 -22.41, 53.64 -19.44 C54.82 -16.48, 54.91 -9.87, 55.16 -7.06 C55.41 -4.25, 55.14 -3.32, 55.14 -2.57 M0 0 C-0.1 -2.17, -1.22 -9.3, -0.6 -13.02 C0.01 -16.74, 1.55 -20.23, 3.68 -22.35 C5.82 -24.47, 7.09 -25.21, 12.21 -25.76 C17.33 -26.31, 28.42 -25.8, 34.39 -25.65 C40.37 -25.5, 44.85 -25.89, 48.06 -24.86 C51.27 -23.82, 52.45 -22.41, 53.64 -19.44 C54.82 -16.48, 54.91 -9.87, 55.16 -7.06 C55.41 -4.25, 55.14 -3.32, 55.14 -2.57" stroke="#E1E1E1" stroke-width="4" fill="none"></path></g></g><mask></mask><g stroke-linecap="round"><g transform="translate(303.62857590449676 245.12488576700707) rotate(0 27.27631979278658 -12.880714522269571)"><path d="M0 0 C-0.1 -2.17, -1.22 -9.3, -0.6 -13.02 C0.01 -16.74, 1.55 -20.23, 3.68 -22.35 C5.82 -24.47, 7.09 -25.21, 12.21 -25.76 C17.33 -26.31, 28.42 -25.8, 34.39 -25.65 C40.37 -25.5, 44.85 -25.89, 48.06 -24.86 C51.27 -23.82, 52.45 -22.41, 53.64 -19.44 C54.82 -16.48, 54.91 -9.87, 55.16 -7.06 C55.41 -4.25, 55.14 -3.32, 55.14 -2.57 M0 0 C-0.1 -2.17, -1.22 -9.3, -0.6 -13.02 C0.01 -16.74, 1.55 -20.23, 3.68 -22.35 C5.82 -24.47, 7.09 -25.21, 12.21 -25.76 C17.33 -26.31, 28.42 -25.8, 34.39 -25.65 C40.37 -25.5, 44.85 -25.89, 48.06 -24.86 C51.27 -23.82, 52.45 -22.41, 53.64 -19.44 C54.82 -16.48, 54.91 -9.87, 55.16 -7.06 C55.41 -4.25, 55.14 -3.32, 55.14 -2.57" stroke="#E1E1E1" stroke-width="4" fill="none"></path></g></g><mask></mask><g stroke-linecap="round"><g transform="translate(372.66119060832716 385.7588757174417) rotate(0 27.27631979278658 -12.880714522269571)"><path d="M0 0 C-0.1 -2.17, -1.22 -9.3, -0.6 -13.02 C0.01 -16.74, 1.55 -20.23, 3.68 -22.35 C5.82 -24.47, 7.09 -25.21, 12.21 -25.76 C17.33 -26.31, 28.42 -25.8, 34.39 -25.65 C40.37 -25.5, 44.85 -25.89, 48.06 -24.86 C51.27 -23.82, 52.45 -22.41, 53.64 -19.44 C54.82 -16.48, 54.91 -9.87, 55.16 -7.06 C55.41 -4.25, 55.14 -3.32, 55.14 -2.57 M0 0 C-0.1 -2.17, -1.22 -9.3, -0.6 -13.02 C0.01 -16.74, 1.55 -20.23, 3.68 -22.35 C5.82 -24.47, 7.09 -25.21, 12.21 -25.76 C17.33 -26.31, 28.42 -25.8, 34.39 -25.65 C40.37 -25.5, 44.85 -25.89, 48.06 -24.86 C51.27 -23.82, 52.45 -22.41, 53.64 -19.44 C54.82 -16.48, 54.91 -9.87, 55.16 -7.06 C55.41 -4.25, 55.14 -3.32, 55.14 -2.57" stroke="#E1E1E1" stroke-width="4" fill="none"></path></g></g><mask></mask><g stroke-linecap="round"><g transform="translate(244.54708342063168 450.999367086275) rotate(0 27.276319792786577 -12.880714522269567)"><path d="M0 0 C-0.1 -2.17, -1.22 -9.3, -0.6 -13.02 C0.01 -16.74, 1.55 -20.23, 3.68 -22.35 C5.82 -24.47, 7.09 -25.21, 12.21 -25.76 C17.33 -26.31, 28.42 -25.8, 34.39 -25.65 C40.37 -25.5, 44.85 -25.89, 48.06 -24.86 C51.27 -23.82, 52.45 -22.41, 53.64 -19.44 C54.82 -16.48, 54.91 -9.87, 55.16 -7.06 C55.41 -4.25, 55.14 -3.32, 55.14 -2.57 M0 0 C-0.1 -2.17, -1.22 -9.3, -0.6 -13.02 C0.01 -16.74, 1.55 -20.23, 3.68 -22.35 C5.82 -24.47, 7.09 -25.21, 12.21 -25.76 C17.33 -26.31, 28.42 -25.8, 34.39 -25.65 C40.37 -25.5, 44.85 -25.89, 48.06 -24.86 C51.27 -23.82, 52.45 -22.41, 53.64 -19.44 C54.82 -16.48, 54.91 -9.87, 55.16 -7.06 C55.41 -4.25, 55.14 -3.32, 55.14 -2.57" stroke="#E1E1E1" stroke-width="4" fill="none"></path></g></g><mask></mask><g stroke-linecap="round" transform="translate(44.31512679453226 264.82564039770114) rotate(0 11.680531331839717 11.680531331839717)"><path d="M23.36 11.68 C23.36 12.36, 23.3 13.04, 23.18 13.71 C23.07 14.37, 22.89 15.04, 22.66 15.68 C22.43 16.31, 22.13 16.94, 21.8 17.52 C21.46 18.11, 21.06 18.67, 20.63 19.19 C20.19 19.71, 19.71 20.19, 19.19 20.63 C18.67 21.06, 18.11 21.46, 17.52 21.8 C16.94 22.13, 16.31 22.43, 15.68 22.66 C15.04 22.89, 14.37 23.07, 13.71 23.18 C13.04 23.3, 12.36 23.36, 11.68 23.36 C11 23.36, 10.32 23.3, 9.65 23.18 C8.99 23.07, 8.32 22.89, 7.69 22.66 C7.05 22.43, 6.43 22.13, 5.84 21.8 C5.25 21.46, 4.69 21.06, 4.17 20.63 C3.65 20.19, 3.17 19.71, 2.73 19.19 C2.3 18.67, 1.9 18.11, 1.56 17.52 C1.23 16.94, 0.94 16.31, 0.7 15.68 C0.47 15.04, 0.29 14.37, 0.18 13.71 C0.06 13.04, 0 12.36, 0 11.68 C0 11, 0.06 10.32, 0.18 9.65 C0.29 8.99, 0.47 8.32, 0.7 7.69 C0.94 7.05, 1.23 6.43, 1.56 5.84 C1.9 5.25, 2.3 4.69, 2.73 4.17 C3.17 3.65, 3.65 3.17, 4.17 2.73 C4.69 2.3, 5.25 1.9, 5.84 1.56 C6.43 1.23, 7.05 0.94, 7.69 0.7 C8.32 0.47, 8.99 0.29, 9.65 0.18 C10.32 0.06, 11 0, 11.68 0 C12.36 0, 13.04 0.06, 13.71 0.18 C14.37 0.29, 15.04 0.47, 15.68 0.7 C16.31 0.94, 16.94 1.23, 17.52 1.56 C18.11 1.9, 18.67 2.3, 19.19 2.73 C19.71 3.17, 20.19 3.65, 20.63 4.17 C21.06 4.69, 21.46 5.25, 21.8 5.84 C22.13 6.43, 22.43 7.05, 22.66 7.69 C22.89 8.32, 23.07 8.99, 23.18 9.65 C23.3 10.32, 23.33 11.34, 23.36 11.68 C23.39 12.02, 23.39 11.34, 23.36 11.68" stroke="#E1E1E1" stroke-width="4" fill="none"></path></g><g stroke-linecap="round"><g transform="translate(66.88445723452787 274.1424110690514) rotate(0 8.541991649126444 -18.302191917338178)"><path d="M0 0 C0 -6.1, -1.6 -31.76, 0 -36.6 C1.6 -41.45, 6.73 -30.92, 9.58 -29.09 C12.42 -27.25, 15.83 -26.18, 17.08 -25.6 M0 0 C0 -6.1, -1.6 -31.76, 0 -36.6 C1.6 -41.45, 6.73 -30.92, 9.58 -29.09 C12.42 -27.25, 15.83 -26.18, 17.08 -25.6" stroke="#E1E1E1" stroke-width="4" fill="none"></path></g></g><mask></mask><g stroke-linecap="round"><g transform="translate(301.0407026990797 307.9067041876897) rotate(0 10.317873531783647 0)"><path d="M0 0 C3.44 0, 17.2 0, 20.64 0 M0 0 C3.44 0, 17.2 0, 20.64 0" stroke="#E1E1E1" stroke-width="4" fill="none"></path></g></g><mask></mask><g stroke-linecap="round"><g transform="translate(301.08946777005804 317.7455315712832) rotate(0 10.317873531783647 0)"><path d="M0 0 C3.44 0, 17.2 0, 20.64 0 M0 0 C3.44 0, 17.2 0, 20.64 0" stroke="#E1E1E1" stroke-width="4" fill="none"></path></g></g><mask></mask><g stroke-linecap="round"><g transform="translate(301.4450923046934 325.56410766641056) rotate(0 10.317873531783647 0)"><path d="M0 0 C3.44 0, 17.2 0, 20.64 0 M0 0 C3.44 0, 17.2 0, 20.64 0" stroke="#E1E1E1" stroke-width="4" fill="none"></path></g></g><mask></mask><g stroke-linecap="round" transform="translate(156.44099026054755 92.7340003814752) rotate(0 43.88407493952555 43.88407493952553)"><path d="M87.77 43.88 C87.77 45.97, 87.62 48.07, 87.32 50.13 C87.03 52.19, 86.58 54.25, 85.99 56.25 C85.4 58.25, 84.67 60.22, 83.8 62.11 C82.94 64.01, 81.93 65.86, 80.8 67.61 C79.68 69.36, 78.41 71.05, 77.05 72.62 C75.69 74.2, 74.2 75.69, 72.62 77.05 C71.05 78.41, 69.36 79.68, 67.61 80.8 C65.86 81.93, 64.01 82.94, 62.11 83.8 C60.22 84.67, 58.25 85.4, 56.25 85.99 C54.25 86.58, 52.19 87.03, 50.13 87.32 C48.07 87.62, 45.97 87.77, 43.88 87.77 C41.8 87.77, 39.7 87.62, 37.64 87.32 C35.58 87.03, 33.52 86.58, 31.52 85.99 C29.52 85.4, 27.55 84.67, 25.65 83.8 C23.76 82.94, 21.91 81.93, 20.16 80.8 C18.41 79.68, 16.72 78.41, 15.15 77.05 C13.57 75.69, 12.08 74.2, 10.72 72.62 C9.36 71.05, 8.09 69.36, 6.97 67.61 C5.84 65.86, 4.83 64.01, 3.97 62.11 C3.1 60.22, 2.36 58.25, 1.78 56.25 C1.19 54.25, 0.74 52.19, 0.45 50.13 C0.15 48.07, 0 45.97, 0 43.88 C0 41.8, 0.15 39.7, 0.45 37.64 C0.74 35.58, 1.19 33.52, 1.78 31.52 C2.36 29.52, 3.1 27.55, 3.97 25.65 C4.83 23.76, 5.84 21.91, 6.97 20.16 C8.09 18.41, 9.36 16.72, 10.72 15.15 C12.08 13.57, 13.57 12.08, 15.15 10.72 C16.72 9.36, 18.41 8.09, 20.16 6.97 C21.91 5.84, 23.76 4.83, 25.65 3.97 C27.55 3.1, 29.52 2.36, 31.52 1.78 C33.52 1.19, 35.58 0.74, 37.64 0.45 C39.7 0.15, 41.8 0, 43.88 0 C45.97 0, 48.07 0.15, 50.13 0.45 C52.19 0.74, 54.25 1.19, 56.25 1.78 C58.25 2.36, 60.22 3.1, 62.11 3.97 C64.01 4.83, 65.86 5.84, 67.61 6.97 C69.36 8.09, 71.05 9.36, 72.62 10.72 C74.2 12.08, 75.69 13.57, 77.05 15.15 C78.41 16.72, 79.68 18.41, 80.8 20.16 C81.93 21.91, 82.94 23.76, 83.8 25.65 C84.67 27.55, 85.4 29.52, 85.99 31.52 C86.58 33.52, 87.03 35.58, 87.32 37.64 C87.62 39.7, 87.69 42.84, 87.77 43.88 C87.84 44.92, 87.84 42.84, 87.77 43.88" stroke="#E1E1E1" stroke-width="4" fill="none"></path></g><g stroke-linecap="round" transform="translate(273.8077165381328 10) rotate(0 53.74926516849604 53.74926516849604)"><path d="M107.5 53.75 C107.5 56.09, 107.34 58.45, 107.04 60.76 C106.73 63.08, 106.27 65.4, 105.67 67.66 C105.06 69.92, 104.3 72.16, 103.41 74.32 C102.51 76.48, 101.47 78.6, 100.3 80.62 C99.13 82.65, 97.82 84.61, 96.39 86.47 C94.97 88.33, 93.41 90.1, 91.76 91.76 C90.1 93.41, 88.33 94.97, 86.47 96.39 C84.61 97.82, 82.65 99.13, 80.62 100.3 C78.6 101.47, 76.48 102.51, 74.32 103.41 C72.16 104.3, 69.92 105.06, 67.66 105.67 C65.4 106.27, 63.08 106.73, 60.76 107.04 C58.45 107.34, 56.09 107.5, 53.75 107.5 C51.41 107.5, 49.05 107.34, 46.73 107.04 C44.42 106.73, 42.1 106.27, 39.84 105.67 C37.58 105.06, 35.34 104.3, 33.18 103.41 C31.02 102.51, 28.9 101.47, 26.87 100.3 C24.85 99.13, 22.88 97.82, 21.03 96.39 C19.17 94.97, 17.4 93.41, 15.74 91.76 C14.09 90.1, 12.53 88.33, 11.11 86.47 C9.68 84.61, 8.37 82.65, 7.2 80.62 C6.03 78.6, 4.99 76.48, 4.09 74.32 C3.2 72.16, 2.44 69.92, 1.83 67.66 C1.23 65.4, 0.77 63.08, 0.46 60.76 C0.15 58.45, 0 56.09, 0 53.75 C0 51.41, 0.15 49.05, 0.46 46.73 C0.77 44.42, 1.23 42.1, 1.83 39.84 C2.44 37.58, 3.2 35.34, 4.09 33.18 C4.99 31.02, 6.03 28.9, 7.2 26.87 C8.37 24.85, 9.68 22.88, 11.11 21.03 C12.53 19.17, 14.09 17.4, 15.74 15.74 C17.4 14.09, 19.17 12.53, 21.03 11.11 C22.88 9.68, 24.85 8.37, 26.87 7.2 C28.9 6.03, 31.02 4.99, 33.18 4.09 C35.34 3.2, 37.58 2.44, 39.84 1.83 C42.1 1.23, 44.42 0.77, 46.73 0.46 C49.05 0.15, 51.41 0, 53.75 0 C56.09 0, 58.45 0.15, 60.76 0.46 C63.08 0.77, 65.4 1.23, 67.66 1.83 C69.92 2.44, 72.16 3.2, 74.32 4.09 C76.48 4.99, 78.6 6.03, 80.62 7.2 C82.65 8.37, 84.61 9.68, 86.47 11.11 C88.33 12.53, 90.1 14.09, 91.76 15.74 C93.41 17.4, 94.97 19.17, 96.39 21.03 C97.82 22.88, 99.13 24.85, 100.3 26.87 C101.47 28.9, 102.51 31.02, 103.41 33.18 C104.3 35.34, 105.06 37.58, 105.67 39.84 C106.27 42.1, 106.73 44.42, 107.04 46.73 C107.34 49.05, 107.42 52.58, 107.5 53.75 C107.58 54.92, 107.58 52.58, 107.5 53.75" stroke="#E1E1E1" stroke-width="4" fill="none"></path></g><g stroke-linecap="round"><g transform="translate(313.41037275035524 38.76156187383458) rotate(0 20.65896509094098 23.258695961044225)"><path d="M0 0 C0 8.25, 0 16.5, 0 32.74 M0 0 C0 9.83, 0 19.66, 0 32.74 M0 32.74 C0 36.2, 0 39.66, 0 46.52 M0 32.74 C0 37.4, 0 42.07, 0 46.52 M0 46.52 C7.53 42.17, 15.07 37.82, 26.29 31.34 M0 46.52 C9.45 41.06, 18.89 35.61, 26.29 31.34 M26.29 31.34 C30.11 28.72, 33.92 26.11, 41.32 21.04 M26.29 31.34 C29.69 29.01, 33.09 26.68, 41.32 21.04 M41.32 21.04 C36.86 18.45, 32.41 15.86, 24.6 11.32 M41.32 21.04 C35.68 17.76, 30.05 14.48, 24.6 11.32 M24.6 11.32 C17.2 7.91, 9.79 4.5, 0 0 M24.6 11.32 C17.69 8.14, 10.77 4.95, 0 0" stroke="#E1E1E1" stroke-width="4" fill="none"></path></g></g><mask></mask><g stroke-linecap="round"><g transform="translate(330.07547379381504 118.77246265590111) rotate(0 -0.18247786247275144 13.183680918804612)"><path d="M0 0 C-0.13 9.34, -0.26 18.67, -0.36 26.37 M0 0 C-0.14 9.99, -0.28 19.98, -0.36 26.37" stroke="#E1E1E1" stroke-width="4" fill="none"></path></g></g><mask></mask><g stroke-linecap="round"><g transform="translate(148.03097225276724 268.4572279994645) rotate(0 -15.696760883144378 -0.47897701038343143)"><path d="M0 0 C-9.88 -0.3, -19.76 -0.6, -31.39 -0.96 M0 0 C-11.2 -0.34, -22.4 -0.68, -31.39 -0.96" stroke="#E1E1E1" stroke-width="4" fill="none"></path></g></g><mask></mask><g stroke-linecap="round" transform="translate(10 213.8959827562212) rotate(0 53.749265168496045 53.74926516849604)"><path d="M107.5 53.75 C107.5 56.09, 107.34 58.45, 107.04 60.76 C106.73 63.08, 106.27 65.4, 105.67 67.66 C105.06 69.92, 104.3 72.16, 103.41 74.32 C102.51 76.48, 101.47 78.6, 100.3 80.62 C99.13 82.65, 97.82 84.61, 96.39 86.47 C94.97 88.33, 93.41 90.1, 91.76 91.76 C90.1 93.41, 88.33 94.97, 86.47 96.39 C84.61 97.82, 82.65 99.13, 80.62 100.3 C78.6 101.47, 76.48 102.51, 74.32 103.41 C72.16 104.3, 69.92 105.06, 67.66 105.67 C65.4 106.27, 63.08 106.73, 60.76 107.04 C58.45 107.34, 56.09 107.5, 53.75 107.5 C51.41 107.5, 49.05 107.34, 46.73 107.04 C44.42 106.73, 42.1 106.27, 39.84 105.67 C37.58 105.06, 35.34 104.3, 33.18 103.41 C31.02 102.51, 28.9 101.47, 26.87 100.3 C24.85 99.13, 22.88 97.82, 21.03 96.39 C19.17 94.97, 17.4 93.41, 15.74 91.76 C14.09 90.1, 12.53 88.33, 11.11 86.47 C9.68 84.61, 8.37 82.65, 7.2 80.62 C6.03 78.6, 4.99 76.48, 4.09 74.32 C3.2 72.16, 2.44 69.92, 1.83 67.66 C1.23 65.4, 0.77 63.08, 0.46 60.76 C0.15 58.45, 0 56.09, 0 53.75 C0 51.41, 0.15 49.05, 0.46 46.73 C0.77 44.42, 1.23 42.1, 1.83 39.84 C2.44 37.58, 3.2 35.34, 4.09 33.18 C4.99 31.02, 6.03 28.9, 7.2 26.87 C8.37 24.85, 9.68 22.88, 11.11 21.03 C12.53 19.17, 14.09 17.4, 15.74 15.74 C17.4 14.09, 19.17 12.53, 21.03 11.11 C22.88 9.68, 24.85 8.37, 26.87 7.2 C28.9 6.03, 31.02 4.99, 33.18 4.09 C35.34 3.2, 37.58 2.44, 39.84 1.83 C42.1 1.23, 44.42 0.77, 46.73 0.46 C49.05 0.15, 51.41 0, 53.75 0 C56.09 0, 58.45 0.15, 60.76 0.46 C63.08 0.77, 65.4 1.23, 67.66 1.83 C69.92 2.44, 72.16 3.2, 74.32 4.09 C76.48 4.99, 78.6 6.03, 80.62 7.2 C82.65 8.37, 84.61 9.68, 86.47 11.11 C88.33 12.53, 90.1 14.09, 91.76 15.74 C93.41 17.4, 94.97 19.17, 96.39 21.03 C97.82 22.88, 99.13 24.85, 100.3 26.87 C101.47 28.9, 102.51 31.02, 103.41 33.18 C104.3 35.34, 105.06 37.58, 105.67 39.84 C106.27 42.1, 106.73 44.42, 107.04 46.73 C107.34 49.05, 107.42 52.58, 107.5 53.75 C107.58 54.92, 107.58 52.58, 107.5 53.75" stroke="#E1E1E1" stroke-width="4" fill="none"></path></g><g stroke-linecap="round"><g transform="translate(122.664647055366 393.53170081109056) rotate(0 13.54383164593451 16.08434308318025)"><path d="M0 0 C3.72 -0.01, 17.72 -0.03, 22.3 -0.04 C26.87 -0.06, 26.27 -0.3, 27.46 -0.07 C28.65 0.16, 29.05 0.47, 29.44 1.32 C29.82 2.16, 29.7 0.57, 29.78 4.98 C29.85 9.39, 30.34 23.28, 29.89 27.77 C29.43 32.26, 28.45 31.17, 27.04 31.92 C25.64 32.67, 24.15 32.21, 21.43 32.24 C18.71 32.27, 14.09 32.12, 10.71 32.09 C7.34 32.06, 3.19 32.19, 1.18 32.08 C-0.83 31.98, -0.69 31.89, -1.34 31.47 C-1.99 31.05, -2.5 30.6, -2.74 29.55 C-2.99 28.5, -2.81 27.04, -2.8 25.18 C-2.79 23.31, -2.71 20.65, -2.68 18.38 C-2.65 16.1, -2.63 13.46, -2.62 11.53 C-2.61 9.6, -2.61 8.19, -2.61 6.81 C-2.62 5.43, -2.73 4.22, -2.64 3.24 C-2.55 2.26, -2.54 1.48, -2.1 0.94 C-1.66 0.4, -0.35 0.16, 0 0 M0 0 C3.72 -0.01, 17.72 -0.03, 22.3 -0.04 C26.87 -0.06, 26.27 -0.3, 27.46 -0.07 C28.65 0.16, 29.05 0.47, 29.44 1.32 C29.82 2.16, 29.7 0.57, 29.78 4.98 C29.85 9.39, 30.34 23.28, 29.89 27.77 C29.43 32.26, 28.45 31.17, 27.04 31.92 C25.64 32.67, 24.15 32.21, 21.43 32.24 C18.71 32.27, 14.09 32.12, 10.71 32.09 C7.34 32.06, 3.19 32.19, 1.18 32.08 C-0.83 31.98, -0.69 31.89, -1.34 31.47 C-1.99 31.05, -2.5 30.6, -2.74 29.55 C-2.99 28.5, -2.81 27.04, -2.8 25.18 C-2.79 23.31, -2.71 20.65, -2.68 18.38 C-2.65 16.1, -2.63 13.46, -2.62 11.53 C-2.61 9.6, -2.61 8.19, -2.61 6.81 C-2.62 5.43, -2.73 4.22, -2.64 3.24 C-2.55 2.26, -2.54 1.48, -2.1 0.94 C-1.66 0.4, -0.35 0.16, 0 0" stroke="#E1E1E1" stroke-width="4" fill="none"></path></g></g><mask></mask><g stroke-linecap="round" transform="translate(110.43363117147965 390.8381197208437) rotate(0 2.043436917686236 2.043436917686236)"><path d="M4.09 2.04 C4.09 2.16, 4.08 2.28, 4.06 2.4 C4.04 2.51, 4 2.63, 3.96 2.74 C3.92 2.85, 3.87 2.96, 3.81 3.07 C3.75 3.17, 3.68 3.27, 3.61 3.36 C3.53 3.45, 3.45 3.53, 3.36 3.61 C3.27 3.68, 3.17 3.75, 3.07 3.81 C2.96 3.87, 2.85 3.92, 2.74 3.96 C2.63 4, 2.51 4.04, 2.4 4.06 C2.28 4.08, 2.16 4.09, 2.04 4.09 C1.93 4.09, 1.81 4.08, 1.69 4.06 C1.57 4.04, 1.46 4, 1.34 3.96 C1.23 3.92, 1.12 3.87, 1.02 3.81 C0.92 3.75, 0.82 3.68, 0.73 3.61 C0.64 3.53, 0.55 3.45, 0.48 3.36 C0.4 3.27, 0.33 3.17, 0.27 3.07 C0.21 2.96, 0.16 2.85, 0.12 2.74 C0.08 2.63, 0.05 2.51, 0.03 2.4 C0.01 2.28, 0 2.16, 0 2.04 C0 1.93, 0.01 1.81, 0.03 1.69 C0.05 1.57, 0.08 1.46, 0.12 1.34 C0.16 1.23, 0.21 1.12, 0.27 1.02 C0.33 0.92, 0.4 0.82, 0.48 0.73 C0.55 0.64, 0.64 0.55, 0.73 0.48 C0.82 0.4, 0.92 0.33, 1.02 0.27 C1.12 0.21, 1.23 0.16, 1.34 0.12 C1.46 0.08, 1.57 0.05, 1.69 0.03 C1.81 0.01, 1.93 0, 2.04 0 C2.16 0, 2.28 0.01, 2.4 0.03 C2.51 0.05, 2.63 0.08, 2.74 0.12 C2.85 0.16, 2.96 0.21, 3.07 0.27 C3.17 0.33, 3.27 0.4, 3.36 0.48 C3.45 0.55, 3.53 0.64, 3.61 0.73 C3.68 0.82, 3.75 0.92, 3.81 1.02 C3.87 1.12, 3.92 1.23, 3.96 1.34 C4 1.46, 4.04 1.57, 4.06 1.69 C4.08 1.81, 4.08 1.98, 4.09 2.04 C4.09 2.1, 4.09 1.98, 4.09 2.04" stroke="#E1E1E1" stroke-width="4" fill="none"></path></g><g stroke-linecap="round" transform="translate(117.78123872982178 383.2179528653651) rotate(0 2.043436917686236 2.043436917686236)"><path d="M4.09 2.04 C4.09 2.16, 4.08 2.28, 4.06 2.4 C4.04 2.51, 4 2.63, 3.96 2.74 C3.92 2.85, 3.87 2.96, 3.81 3.07 C3.75 3.17, 3.68 3.27, 3.61 3.36 C3.53 3.45, 3.45 3.53, 3.36 3.61 C3.27 3.68, 3.17 3.75, 3.07 3.81 C2.96 3.87, 2.85 3.92, 2.74 3.96 C2.63 4, 2.51 4.04, 2.4 4.06 C2.28 4.08, 2.16 4.09, 2.04 4.09 C1.93 4.09, 1.81 4.08, 1.69 4.06 C1.57 4.04, 1.46 4, 1.34 3.96 C1.23 3.92, 1.12 3.87, 1.02 3.81 C0.92 3.75, 0.82 3.68, 0.73 3.61 C0.64 3.53, 0.55 3.45, 0.48 3.36 C0.4 3.27, 0.33 3.17, 0.27 3.07 C0.21 2.96, 0.16 2.85, 0.12 2.74 C0.08 2.63, 0.05 2.51, 0.03 2.4 C0.01 2.28, 0 2.16, 0 2.04 C0 1.93, 0.01 1.81, 0.03 1.69 C0.05 1.57, 0.08 1.46, 0.12 1.34 C0.16 1.23, 0.21 1.12, 0.27 1.02 C0.33 0.92, 0.4 0.82, 0.48 0.73 C0.55 0.64, 0.64 0.55, 0.73 0.48 C0.82 0.4, 0.92 0.33, 1.02 0.27 C1.12 0.21, 1.23 0.16, 1.34 0.12 C1.46 0.08, 1.57 0.05, 1.69 0.03 C1.81 0.01, 1.93 0, 2.04 0 C2.16 0, 2.28 0.01, 2.4 0.03 C2.51 0.05, 2.63 0.08, 2.74 0.12 C2.85 0.16, 2.96 0.21, 3.07 0.27 C3.17 0.33, 3.27 0.4, 3.36 0.48 C3.45 0.55, 3.53 0.64, 3.61 0.73 C3.68 0.82, 3.75 0.92, 3.81 1.02 C3.87 1.12, 3.92 1.23, 3.96 1.34 C4 1.46, 4.04 1.57, 4.06 1.69 C4.08 1.81, 4.08 1.98, 4.09 2.04 C4.09 2.1, 4.09 1.98, 4.09 2.04" stroke="#E1E1E1" stroke-width="4" fill="none"></path></g><g stroke-linecap="round" transform="translate(134.5298686068545 382.5066210945279) rotate(0 2.043436917686236 2.043436917686236)"><path d="M4.09 2.04 C4.09 2.16, 4.08 2.28, 4.06 2.4 C4.04 2.51, 4 2.63, 3.96 2.74 C3.92 2.85, 3.87 2.96, 3.81 3.07 C3.75 3.17, 3.68 3.27, 3.61 3.36 C3.53 3.45, 3.45 3.53, 3.36 3.61 C3.27 3.68, 3.17 3.75, 3.07 3.81 C2.96 3.87, 2.85 3.92, 2.74 3.96 C2.63 4, 2.51 4.04, 2.4 4.06 C2.28 4.08, 2.16 4.09, 2.04 4.09 C1.93 4.09, 1.81 4.08, 1.69 4.06 C1.57 4.04, 1.46 4, 1.34 3.96 C1.23 3.92, 1.12 3.87, 1.02 3.81 C0.92 3.75, 0.82 3.68, 0.73 3.61 C0.64 3.53, 0.55 3.45, 0.48 3.36 C0.4 3.27, 0.33 3.17, 0.27 3.07 C0.21 2.96, 0.16 2.85, 0.12 2.74 C0.08 2.63, 0.05 2.51, 0.03 2.4 C0.01 2.28, 0 2.16, 0 2.04 C0 1.93, 0.01 1.81, 0.03 1.69 C0.05 1.57, 0.08 1.46, 0.12 1.34 C0.16 1.23, 0.21 1.12, 0.27 1.02 C0.33 0.92, 0.4 0.82, 0.48 0.73 C0.55 0.64, 0.64 0.55, 0.73 0.48 C0.82 0.4, 0.92 0.33, 1.02 0.27 C1.12 0.21, 1.23 0.16, 1.34 0.12 C1.46 0.08, 1.57 0.05, 1.69 0.03 C1.81 0.01, 1.93 0, 2.04 0 C2.16 0, 2.28 0.01, 2.4 0.03 C2.51 0.05, 2.63 0.08, 2.74 0.12 C2.85 0.16, 2.96 0.21, 3.07 0.27 C3.17 0.33, 3.27 0.4, 3.36 0.48 C3.45 0.55, 3.53 0.64, 3.61 0.73 C3.68 0.82, 3.75 0.92, 3.81 1.02 C3.87 1.12, 3.92 1.23, 3.96 1.34 C4 1.46, 4.04 1.57, 4.06 1.69 C4.08 1.81, 4.08 1.98, 4.09 2.04 C4.09 2.1, 4.09 1.98, 4.09 2.04" stroke="#E1E1E1" stroke-width="4" fill="none"></path></g><g stroke-linecap="round" transform="translate(151.1491654346446 383.2826193899891) rotate(0 2.043436917686236 2.043436917686236)"><path d="M4.09 2.04 C4.09 2.16, 4.08 2.28, 4.06 2.4 C4.04 2.51, 4 2.63, 3.96 2.74 C3.92 2.85, 3.87 2.96, 3.81 3.07 C3.75 3.17, 3.68 3.27, 3.61 3.36 C3.53 3.45, 3.45 3.53, 3.36 3.61 C3.27 3.68, 3.17 3.75, 3.07 3.81 C2.96 3.87, 2.85 3.92, 2.74 3.96 C2.63 4, 2.51 4.04, 2.4 4.06 C2.28 4.08, 2.16 4.09, 2.04 4.09 C1.93 4.09, 1.81 4.08, 1.69 4.06 C1.57 4.04, 1.46 4, 1.34 3.96 C1.23 3.92, 1.12 3.87, 1.02 3.81 C0.92 3.75, 0.82 3.68, 0.73 3.61 C0.64 3.53, 0.55 3.45, 0.48 3.36 C0.4 3.27, 0.33 3.17, 0.27 3.07 C0.21 2.96, 0.16 2.85, 0.12 2.74 C0.08 2.63, 0.05 2.51, 0.03 2.4 C0.01 2.28, 0 2.16, 0 2.04 C0 1.93, 0.01 1.81, 0.03 1.69 C0.05 1.57, 0.08 1.46, 0.12 1.34 C0.16 1.23, 0.21 1.12, 0.27 1.02 C0.33 0.92, 0.4 0.82, 0.48 0.73 C0.55 0.64, 0.64 0.55, 0.73 0.48 C0.82 0.4, 0.92 0.33, 1.02 0.27 C1.12 0.21, 1.23 0.16, 1.34 0.12 C1.46 0.08, 1.57 0.05, 1.69 0.03 C1.81 0.01, 1.93 0, 2.04 0 C2.16 0, 2.28 0.01, 2.4 0.03 C2.51 0.05, 2.63 0.08, 2.74 0.12 C2.85 0.16, 2.96 0.21, 3.07 0.27 C3.17 0.33, 3.27 0.4, 3.36 0.48 C3.45 0.55, 3.53 0.64, 3.61 0.73 C3.68 0.82, 3.75 0.92, 3.81 1.02 C3.87 1.12, 3.92 1.23, 3.96 1.34 C4 1.46, 4.04 1.57, 4.06 1.69 C4.08 1.81, 4.08 1.98, 4.09 2.04 C4.09 2.1, 4.09 1.98, 4.09 2.04" stroke="#E1E1E1" stroke-width="4" fill="none"></path></g><g stroke-linecap="round" transform="translate(158.52114924152738 390.7839362461109) rotate(0 2.043436917686236 2.043436917686236)"><path d="M4.09 2.04 C4.09 2.16, 4.08 2.28, 4.06 2.4 C4.04 2.51, 4 2.63, 3.96 2.74 C3.92 2.85, 3.87 2.96, 3.81 3.07 C3.75 3.17, 3.68 3.27, 3.61 3.36 C3.53 3.45, 3.45 3.53, 3.36 3.61 C3.27 3.68, 3.17 3.75, 3.07 3.81 C2.96 3.87, 2.85 3.92, 2.74 3.96 C2.63 4, 2.51 4.04, 2.4 4.06 C2.28 4.08, 2.16 4.09, 2.04 4.09 C1.93 4.09, 1.81 4.08, 1.69 4.06 C1.57 4.04, 1.46 4, 1.34 3.96 C1.23 3.92, 1.12 3.87, 1.02 3.81 C0.92 3.75, 0.82 3.68, 0.73 3.61 C0.64 3.53, 0.55 3.45, 0.48 3.36 C0.4 3.27, 0.33 3.17, 0.27 3.07 C0.21 2.96, 0.16 2.85, 0.12 2.74 C0.08 2.63, 0.05 2.51, 0.03 2.4 C0.01 2.28, 0 2.16, 0 2.04 C0 1.93, 0.01 1.81, 0.03 1.69 C0.05 1.57, 0.08 1.46, 0.12 1.34 C0.16 1.23, 0.21 1.12, 0.27 1.02 C0.33 0.92, 0.4 0.82, 0.48 0.73 C0.55 0.64, 0.64 0.55, 0.73 0.48 C0.82 0.4, 0.92 0.33, 1.02 0.27 C1.12 0.21, 1.23 0.16, 1.34 0.12 C1.46 0.08, 1.57 0.05, 1.69 0.03 C1.81 0.01, 1.93 0, 2.04 0 C2.16 0, 2.28 0.01, 2.4 0.03 C2.51 0.05, 2.63 0.08, 2.74 0.12 C2.85 0.16, 2.96 0.21, 3.07 0.27 C3.17 0.33, 3.27 0.4, 3.36 0.48 C3.45 0.55, 3.53 0.64, 3.61 0.73 C3.68 0.82, 3.75 0.92, 3.81 1.02 C3.87 1.12, 3.92 1.23, 3.96 1.34 C4 1.46, 4.04 1.57, 4.06 1.69 C4.08 1.81, 4.08 1.98, 4.09 2.04 C4.09 2.1, 4.09 1.98, 4.09 2.04" stroke="#E1E1E1" stroke-width="4" fill="none"></path></g><g stroke-linecap="round" transform="translate(159.42648058623126 407.3385665492806) rotate(0 2.043436917686236 2.043436917686236)"><path d="M4.09 2.04 C4.09 2.16, 4.08 2.28, 4.06 2.4 C4.04 2.51, 4 2.63, 3.96 2.74 C3.92 2.85, 3.87 2.96, 3.81 3.07 C3.75 3.17, 3.68 3.27, 3.61 3.36 C3.53 3.45, 3.45 3.53, 3.36 3.61 C3.27 3.68, 3.17 3.75, 3.07 3.81 C2.96 3.87, 2.85 3.92, 2.74 3.96 C2.63 4, 2.51 4.04, 2.4 4.06 C2.28 4.08, 2.16 4.09, 2.04 4.09 C1.93 4.09, 1.81 4.08, 1.69 4.06 C1.57 4.04, 1.46 4, 1.34 3.96 C1.23 3.92, 1.12 3.87, 1.02 3.81 C0.92 3.75, 0.82 3.68, 0.73 3.61 C0.64 3.53, 0.55 3.45, 0.48 3.36 C0.4 3.27, 0.33 3.17, 0.27 3.07 C0.21 2.96, 0.16 2.85, 0.12 2.74 C0.08 2.63, 0.05 2.51, 0.03 2.4 C0.01 2.28, 0 2.16, 0 2.04 C0 1.93, 0.01 1.81, 0.03 1.69 C0.05 1.57, 0.08 1.46, 0.12 1.34 C0.16 1.23, 0.21 1.12, 0.27 1.02 C0.33 0.92, 0.4 0.82, 0.48 0.73 C0.55 0.64, 0.64 0.55, 0.73 0.48 C0.82 0.4, 0.92 0.33, 1.02 0.27 C1.12 0.21, 1.23 0.16, 1.34 0.12 C1.46 0.08, 1.57 0.05, 1.69 0.03 C1.81 0.01, 1.93 0, 2.04 0 C2.16 0, 2.28 0.01, 2.4 0.03 C2.51 0.05, 2.63 0.08, 2.74 0.12 C2.85 0.16, 2.96 0.21, 3.07 0.27 C3.17 0.33, 3.27 0.4, 3.36 0.48 C3.45 0.55, 3.53 0.64, 3.61 0.73 C3.68 0.82, 3.75 0.92, 3.81 1.02 C3.87 1.12, 3.92 1.23, 3.96 1.34 C4 1.46, 4.04 1.57, 4.06 1.69 C4.08 1.81, 4.08 1.98, 4.09 2.04 C4.09 2.1, 4.09 1.98, 4.09 2.04" stroke="#E1E1E1" stroke-width="4" fill="none"></path></g><g stroke-linecap="round" transform="translate(158.61890683929414 424.01672001862244) rotate(0 2.043436917686236 2.043436917686236)"><path d="M4.09 2.04 C4.09 2.16, 4.08 2.28, 4.06 2.4 C4.04 2.51, 4 2.63, 3.96 2.74 C3.92 2.85, 3.87 2.96, 3.81 3.07 C3.75 3.17, 3.68 3.27, 3.61 3.36 C3.53 3.45, 3.45 3.53, 3.36 3.61 C3.27 3.68, 3.17 3.75, 3.07 3.81 C2.96 3.87, 2.85 3.92, 2.74 3.96 C2.63 4, 2.51 4.04, 2.4 4.06 C2.28 4.08, 2.16 4.09, 2.04 4.09 C1.93 4.09, 1.81 4.08, 1.69 4.06 C1.57 4.04, 1.46 4, 1.34 3.96 C1.23 3.92, 1.12 3.87, 1.02 3.81 C0.92 3.75, 0.82 3.68, 0.73 3.61 C0.64 3.53, 0.55 3.45, 0.48 3.36 C0.4 3.27, 0.33 3.17, 0.27 3.07 C0.21 2.96, 0.16 2.85, 0.12 2.74 C0.08 2.63, 0.05 2.51, 0.03 2.4 C0.01 2.28, 0 2.16, 0 2.04 C0 1.93, 0.01 1.81, 0.03 1.69 C0.05 1.57, 0.08 1.46, 0.12 1.34 C0.16 1.23, 0.21 1.12, 0.27 1.02 C0.33 0.92, 0.4 0.82, 0.48 0.73 C0.55 0.64, 0.64 0.55, 0.73 0.48 C0.82 0.4, 0.92 0.33, 1.02 0.27 C1.12 0.21, 1.23 0.16, 1.34 0.12 C1.46 0.08, 1.57 0.05, 1.69 0.03 C1.81 0.01, 1.93 0, 2.04 0 C2.16 0, 2.28 0.01, 2.4 0.03 C2.51 0.05, 2.63 0.08, 2.74 0.12 C2.85 0.16, 2.96 0.21, 3.07 0.27 C3.17 0.33, 3.27 0.4, 3.36 0.48 C3.45 0.55, 3.53 0.64, 3.61 0.73 C3.68 0.82, 3.75 0.92, 3.81 1.02 C3.87 1.12, 3.92 1.23, 3.96 1.34 C4 1.46, 4.04 1.57, 4.06 1.69 C4.08 1.81, 4.08 1.98, 4.09 2.04 C4.09 2.1, 4.09 1.98, 4.09 2.04" stroke="#E1E1E1" stroke-width="4" fill="none"></path></g><g stroke-linecap="round" transform="translate(151.13527223599522 431.5819455885321) rotate(0 2.043436917686236 2.043436917686236)"><path d="M4.09 2.04 C4.09 2.16, 4.08 2.28, 4.06 2.4 C4.04 2.51, 4 2.63, 3.96 2.74 C3.92 2.85, 3.87 2.96, 3.81 3.07 C3.75 3.17, 3.68 3.27, 3.61 3.36 C3.53 3.45, 3.45 3.53, 3.36 3.61 C3.27 3.68, 3.17 3.75, 3.07 3.81 C2.96 3.87, 2.85 3.92, 2.74 3.96 C2.63 4, 2.51 4.04, 2.4 4.06 C2.28 4.08, 2.16 4.09, 2.04 4.09 C1.93 4.09, 1.81 4.08, 1.69 4.06 C1.57 4.04, 1.46 4, 1.34 3.96 C1.23 3.92, 1.12 3.87, 1.02 3.81 C0.92 3.75, 0.82 3.68, 0.73 3.61 C0.64 3.53, 0.55 3.45, 0.48 3.36 C0.4 3.27, 0.33 3.17, 0.27 3.07 C0.21 2.96, 0.16 2.85, 0.12 2.74 C0.08 2.63, 0.05 2.51, 0.03 2.4 C0.01 2.28, 0 2.16, 0 2.04 C0 1.93, 0.01 1.81, 0.03 1.69 C0.05 1.57, 0.08 1.46, 0.12 1.34 C0.16 1.23, 0.21 1.12, 0.27 1.02 C0.33 0.92, 0.4 0.82, 0.48 0.73 C0.55 0.64, 0.64 0.55, 0.73 0.48 C0.82 0.4, 0.92 0.33, 1.02 0.27 C1.12 0.21, 1.23 0.16, 1.34 0.12 C1.46 0.08, 1.57 0.05, 1.69 0.03 C1.81 0.01, 1.93 0, 2.04 0 C2.16 0, 2.28 0.01, 2.4 0.03 C2.51 0.05, 2.63 0.08, 2.74 0.12 C2.85 0.16, 2.96 0.21, 3.07 0.27 C3.17 0.33, 3.27 0.4, 3.36 0.48 C3.45 0.55, 3.53 0.64, 3.61 0.73 C3.68 0.82, 3.75 0.92, 3.81 1.02 C3.87 1.12, 3.92 1.23, 3.96 1.34 C4 1.46, 4.04 1.57, 4.06 1.69 C4.08 1.81, 4.08 1.98, 4.09 2.04 C4.09 2.1, 4.09 1.98, 4.09 2.04" stroke="#E1E1E1" stroke-width="4" fill="none"></path></g><g stroke-linecap="round" transform="translate(134.5298686068545 432.3645115779) rotate(0 2.043436917686236 2.043436917686236)"><path d="M4.09 2.04 C4.09 2.16, 4.08 2.28, 4.06 2.4 C4.04 2.51, 4 2.63, 3.96 2.74 C3.92 2.85, 3.87 2.96, 3.81 3.07 C3.75 3.17, 3.68 3.27, 3.61 3.36 C3.53 3.45, 3.45 3.53, 3.36 3.61 C3.27 3.68, 3.17 3.75, 3.07 3.81 C2.96 3.87, 2.85 3.92, 2.74 3.96 C2.63 4, 2.51 4.04, 2.4 4.06 C2.28 4.08, 2.16 4.09, 2.04 4.09 C1.93 4.09, 1.81 4.08, 1.69 4.06 C1.57 4.04, 1.46 4, 1.34 3.96 C1.23 3.92, 1.12 3.87, 1.02 3.81 C0.92 3.75, 0.82 3.68, 0.73 3.61 C0.64 3.53, 0.55 3.45, 0.48 3.36 C0.4 3.27, 0.33 3.17, 0.27 3.07 C0.21 2.96, 0.16 2.85, 0.12 2.74 C0.08 2.63, 0.05 2.51, 0.03 2.4 C0.01 2.28, 0 2.16, 0 2.04 C0 1.93, 0.01 1.81, 0.03 1.69 C0.05 1.57, 0.08 1.46, 0.12 1.34 C0.16 1.23, 0.21 1.12, 0.27 1.02 C0.33 0.92, 0.4 0.82, 0.48 0.73 C0.55 0.64, 0.64 0.55, 0.73 0.48 C0.82 0.4, 0.92 0.33, 1.02 0.27 C1.12 0.21, 1.23 0.16, 1.34 0.12 C1.46 0.08, 1.57 0.05, 1.69 0.03 C1.81 0.01, 1.93 0, 2.04 0 C2.16 0, 2.28 0.01, 2.4 0.03 C2.51 0.05, 2.63 0.08, 2.74 0.12 C2.85 0.16, 2.96 0.21, 3.07 0.27 C3.17 0.33, 3.27 0.4, 3.36 0.48 C3.45 0.55, 3.53 0.64, 3.61 0.73 C3.68 0.82, 3.75 0.92, 3.81 1.02 C3.87 1.12, 3.92 1.23, 3.96 1.34 C4 1.46, 4.04 1.57, 4.06 1.69 C4.08 1.81, 4.08 1.98, 4.09 2.04 C4.09 2.1, 4.09 1.98, 4.09 2.04" stroke="#E1E1E1" stroke-width="4" fill="none"></path></g><g stroke-linecap="round" transform="translate(117.78123872982178 431.32984718395164) rotate(0 2.043436917686236 2.043436917686236)"><path d="M4.09 2.04 C4.09 2.16, 4.08 2.28, 4.06 2.4 C4.04 2.51, 4 2.63, 3.96 2.74 C3.92 2.85, 3.87 2.96, 3.81 3.07 C3.75 3.17, 3.68 3.27, 3.61 3.36 C3.53 3.45, 3.45 3.53, 3.36 3.61 C3.27 3.68, 3.17 3.75, 3.07 3.81 C2.96 3.87, 2.85 3.92, 2.74 3.96 C2.63 4, 2.51 4.04, 2.4 4.06 C2.28 4.08, 2.16 4.09, 2.04 4.09 C1.93 4.09, 1.81 4.08, 1.69 4.06 C1.57 4.04, 1.46 4, 1.34 3.96 C1.23 3.92, 1.12 3.87, 1.02 3.81 C0.92 3.75, 0.82 3.68, 0.73 3.61 C0.64 3.53, 0.55 3.45, 0.48 3.36 C0.4 3.27, 0.33 3.17, 0.27 3.07 C0.21 2.96, 0.16 2.85, 0.12 2.74 C0.08 2.63, 0.05 2.51, 0.03 2.4 C0.01 2.28, 0 2.16, 0 2.04 C0 1.93, 0.01 1.81, 0.03 1.69 C0.05 1.57, 0.08 1.46, 0.12 1.34 C0.16 1.23, 0.21 1.12, 0.27 1.02 C0.33 0.92, 0.4 0.82, 0.48 0.73 C0.55 0.64, 0.64 0.55, 0.73 0.48 C0.82 0.4, 0.92 0.33, 1.02 0.27 C1.12 0.21, 1.23 0.16, 1.34 0.12 C1.46 0.08, 1.57 0.05, 1.69 0.03 C1.81 0.01, 1.93 0, 2.04 0 C2.16 0, 2.28 0.01, 2.4 0.03 C2.51 0.05, 2.63 0.08, 2.74 0.12 C2.85 0.16, 2.96 0.21, 3.07 0.27 C3.17 0.33, 3.27 0.4, 3.36 0.48 C3.45 0.55, 3.53 0.64, 3.61 0.73 C3.68 0.82, 3.75 0.92, 3.81 1.02 C3.87 1.12, 3.92 1.23, 3.96 1.34 C4 1.46, 4.04 1.57, 4.06 1.69 C4.08 1.81, 4.08 1.98, 4.09 2.04 C4.09 2.1, 4.09 1.98, 4.09 2.04" stroke="#E1E1E1" stroke-width="4" fill="none"></path></g><g stroke-linecap="round" transform="translate(110.40925492294082 424.0225299016929) rotate(0 2.043436917686236 2.043436917686236)"><path d="M4.09 2.04 C4.09 2.16, 4.08 2.28, 4.06 2.4 C4.04 2.51, 4 2.63, 3.96 2.74 C3.92 2.85, 3.87 2.96, 3.81 3.07 C3.75 3.17, 3.68 3.27, 3.61 3.36 C3.53 3.45, 3.45 3.53, 3.36 3.61 C3.27 3.68, 3.17 3.75, 3.07 3.81 C2.96 3.87, 2.85 3.92, 2.74 3.96 C2.63 4, 2.51 4.04, 2.4 4.06 C2.28 4.08, 2.16 4.09, 2.04 4.09 C1.93 4.09, 1.81 4.08, 1.69 4.06 C1.57 4.04, 1.46 4, 1.34 3.96 C1.23 3.92, 1.12 3.87, 1.02 3.81 C0.92 3.75, 0.82 3.68, 0.73 3.61 C0.64 3.53, 0.55 3.45, 0.48 3.36 C0.4 3.27, 0.33 3.17, 0.27 3.07 C0.21 2.96, 0.16 2.85, 0.12 2.74 C0.08 2.63, 0.05 2.51, 0.03 2.4 C0.01 2.28, 0 2.16, 0 2.04 C0 1.93, 0.01 1.81, 0.03 1.69 C0.05 1.57, 0.08 1.46, 0.12 1.34 C0.16 1.23, 0.21 1.12, 0.27 1.02 C0.33 0.92, 0.4 0.82, 0.48 0.73 C0.55 0.64, 0.64 0.55, 0.73 0.48 C0.82 0.4, 0.92 0.33, 1.02 0.27 C1.12 0.21, 1.23 0.16, 1.34 0.12 C1.46 0.08, 1.57 0.05, 1.69 0.03 C1.81 0.01, 1.93 0, 2.04 0 C2.16 0, 2.28 0.01, 2.4 0.03 C2.51 0.05, 2.63 0.08, 2.74 0.12 C2.85 0.16, 2.96 0.21, 3.07 0.27 C3.17 0.33, 3.27 0.4, 3.36 0.48 C3.45 0.55, 3.53 0.64, 3.61 0.73 C3.68 0.82, 3.75 0.92, 3.81 1.02 C3.87 1.12, 3.92 1.23, 3.96 1.34 C4 1.46, 4.04 1.57, 4.06 1.69 C4.08 1.81, 4.08 1.98, 4.09 2.04 C4.09 2.1, 4.09 1.98, 4.09 2.04" stroke="#E1E1E1" stroke-width="4" fill="none"></path></g><g stroke-linecap="round"><g transform="translate(119.88883696490666 415.0724050300687) rotate(0 -3.0264438730204475 -0.08462220995425795)"><path d="M0 0 C-1.01 -0.03, -5.04 -0.14, -6.05 -0.17 M0 0 C-1.01 -0.03, -5.04 -0.14, -6.05 -0.17" stroke="#E1E1E1" stroke-width="4" fill="none"></path></g></g><mask></mask><g stroke-linecap="round"><g transform="translate(119.72211858111586 420.50439309829744) rotate(0 -3.635471181079218 1.6249990347333565)"><path d="M0 0 C-0.99 0.01, -4.73 -0.13, -5.94 0.05 C-7.15 0.23, -7.05 0.54, -7.27 1.07 C-7.49 1.61, -7.25 2.89, -7.24 3.25 M0 0 C-0.99 0.01, -4.73 -0.13, -5.94 0.05 C-7.15 0.23, -7.05 0.54, -7.27 1.07 C-7.49 1.61, -7.25 2.89, -7.24 3.25" stroke="#E1E1E1" stroke-width="4" fill="none"></path></g></g><mask></mask><g stroke-linecap="round"><g transform="translate(125.49385850721956 425.76789455745165) rotate(0 -1.72566157403719 4.098872506933132)"><path d="M0 0 C0 1.06, 0.12 5.02, 0 6.35 C-0.12 7.68, -0.16 7.66, -0.73 7.97 C-1.31 8.28, -3 8.16, -3.45 8.2 M0 0 C0 1.06, 0.12 5.02, 0 6.35 C-0.12 7.68, -0.16 7.66, -0.73 7.97 C-1.31 8.28, -3 8.16, -3.45 8.2" stroke="#E1E1E1" stroke-width="4" fill="none"></path></g></g><mask></mask><g stroke-linecap="round"><g transform="translate(131.04835932717106 425.7689049718974) rotate(0 -0.03953246524728371 3.2164017890968104)"><path d="M0 0 C-0.01 1.07, -0.07 5.36, -0.08 6.43 M0 0 C-0.01 1.07, -0.07 5.36, -0.08 6.43" stroke="#E1E1E1" stroke-width="4" fill="none"></path></g></g><mask></mask><g stroke-linecap="round"><g transform="translate(136.47807396289318 425.99877425863997) rotate(0 -0.012756482396135027 3.0595349461667034)"><path d="M0 0 C0 1.02, -0.02 5.1, -0.03 6.12 M0 0 C0 1.02, -0.02 5.1, -0.03 6.12" stroke="#E1E1E1" stroke-width="4" fill="none"></path></g></g><mask></mask><g stroke-linecap="round"><g transform="translate(142.12780634449337 425.8585792540907) rotate(0 0.04786838443683905 3.3025396207219035)"><path d="M0 0 C0.02 1.1, 0.08 5.5, 0.1 6.61 M0 0 C0.02 1.1, 0.08 5.5, 0.1 6.61" stroke="#E1E1E1" stroke-width="4" fill="none"></path></g></g><mask></mask><g stroke-linecap="round"><g transform="translate(147.71110397619304 426.163724417147) rotate(0 1.4940240620131533 3.8288392459149456)"><path d="M0 0 C0 1.05, -0.13 5.05, 0 6.32 C0.13 7.6, 0.27 7.42, 0.76 7.65 C1.26 7.87, 2.62 7.66, 2.99 7.66 M0 0 C0 1.05, -0.13 5.05, 0 6.32 C0.13 7.6, 0.27 7.42, 0.76 7.65 C1.26 7.87, 2.62 7.66, 2.99 7.66" stroke="#E1E1E1" stroke-width="4" fill="none"></path></g></g><mask></mask><g stroke-linecap="round"><g transform="translate(152.8053610154384 420.4106771583174) rotate(0 3.9918948773342464 1.6997697038272577)"><path d="M0 0 C0.98 0, 4.62 -0.1, 5.89 0.02 C7.16 0.15, 7.28 0.18, 7.63 0.74 C7.98 1.31, 7.92 2.96, 7.98 3.4 M0 0 C0.98 0, 4.62 -0.1, 5.89 0.02 C7.16 0.15, 7.28 0.18, 7.63 0.74 C7.98 1.31, 7.92 2.96, 7.98 3.4" stroke="#E1E1E1" stroke-width="4" fill="none"></path></g></g><mask></mask><g stroke-linecap="round"><g transform="translate(152.69648885874994 415.03375667746513) rotate(0 3.366195730896422 0.007325504742301092)"><path d="M0 0 C1.12 0, 5.61 0.01, 6.73 0.01 M0 0 C1.12 0, 5.61 0.01, 6.73 0.01" stroke="#E1E1E1" stroke-width="4" fill="none"></path></g></g><mask></mask><g stroke-linecap="round"><g transform="translate(152.73791585108484 409.52245107513045) rotate(0 3.3816045512164727 -0.0380168435764503)"><path d="M0 0 C1.13 -0.01, 5.64 -0.06, 6.76 -0.08 M0 0 C1.13 -0.01, 5.64 -0.06, 6.76 -0.08" stroke="#E1E1E1" stroke-width="4" fill="none"></path></g></g><mask></mask><g stroke-linecap="round"><g transform="translate(152.65708269530842 403.8643827743399) rotate(0 3.3597543387954545 -0.004294261400662691)"><path d="M0 0 C1.12 0, 5.6 -0.01, 6.72 -0.01 M0 0 C1.12 0, 5.6 -0.01, 6.72 -0.01" stroke="#E1E1E1" stroke-width="4" fill="none"></path></g></g><mask></mask><g stroke-linecap="round"><g transform="translate(152.68739512872526 398.2815903498631) rotate(0 4.154824206947655 -1.5182740087462747)"><path d="M0 0 C1.09 0.01, 5.19 0.21, 6.57 0.08 C7.95 -0.05, 8 -0.24, 8.29 -0.77 C8.58 -1.31, 8.31 -2.73, 8.31 -3.12 M0 0 C1.09 0.01, 5.19 0.21, 6.57 0.08 C7.95 -0.05, 8 -0.24, 8.29 -0.77 C8.58 -1.31, 8.31 -2.73, 8.31 -3.12" stroke="#E1E1E1" stroke-width="4" fill="none"></path></g></g><mask></mask><g stroke-linecap="round"><g transform="translate(147.7222185351111 393.28989037701103) rotate(0 1.521052648476136 -3.920281753387897)"><path d="M0 0 C0.01 -1, -0.03 -4.71, 0.06 -6.01 C0.15 -7.3, 0.03 -7.48, 0.52 -7.79 C1.02 -8.1, 2.62 -7.83, 3.04 -7.84 M0 0 C0.01 -1, -0.03 -4.71, 0.06 -6.01 C0.15 -7.3, 0.03 -7.48, 0.52 -7.79 C1.02 -8.1, 2.62 -7.83, 3.04 -7.84" stroke="#E1E1E1" stroke-width="4" fill="none"></path></g></g><mask></mask><g stroke-linecap="round"><g transform="translate(142.03030135033805 393.3121194948508) rotate(0 0.058982943356163275 -3.3166854229829283)"><path d="M0 0 C0.02 -1.11, 0.1 -5.53, 0.12 -6.63 M0 0 C0.02 -1.11, 0.1 -5.53, 0.12 -6.63" stroke="#E1E1E1" stroke-width="4" fill="none"></path></g></g><mask></mask><g stroke-linecap="round"><g transform="translate(136.64656057196407 393.36213500998565) rotate(0 0.012377576978380489 -3.2777844667651124)"><path d="M0 0 C0 -1.09, 0.02 -5.46, 0.02 -6.56 M0 0 C0 -1.09, 0.02 -5.46, 0.02 -6.56" stroke="#E1E1E1" stroke-width="4" fill="none"></path></g></g><mask></mask><g stroke-linecap="round"><g transform="translate(131.1506637899529 393.3639032352694) rotate(0 -0.057341019879409316 -3.432756782606724)"><path d="M0 0 C-0.02 -1.14, -0.1 -5.72, -0.11 -6.87 M0 0 C-0.02 -1.14, -0.1 -5.72, -0.11 -6.87" stroke="#E1E1E1" stroke-width="4" fill="none"></path></g></g><mask></mask><g stroke-linecap="round"><g transform="translate(125.59338433027006 393.2782706108701) rotate(0 -1.7333659841971567 -4.026754175763173)"><path d="M0 0 C-0.02 -1.23, 0.47 -6.04, -0.11 -7.38 C-0.69 -8.72, -2.91 -7.94, -3.47 -8.05 M0 0 C-0.02 -1.23, 0.47 -6.04, -0.11 -7.38 C-0.69 -8.72, -2.91 -7.94, -3.47 -8.05" stroke="#E1E1E1" stroke-width="4" fill="none"></path></g></g><mask></mask><g stroke-linecap="round"><g transform="translate(119.83174854863864 398.50287111380385) rotate(0 -3.6435544966569395 -1.6074430837130045)"><path d="M0 0 C-1 0, -4.77 0.17, -5.98 -0.03 C-7.19 -0.22, -7.05 -0.64, -7.27 -1.17 C-7.49 -1.71, -7.28 -2.87, -7.29 -3.21 M0 0 C-1 0, -4.77 0.17, -5.98 -0.03 C-7.19 -0.22, -7.05 -0.64, -7.27 -1.17 C-7.49 -1.71, -7.28 -2.87, -7.29 -3.21" stroke="#E1E1E1" stroke-width="4" fill="none"></path></g></g><mask></mask><g stroke-linecap="round"><g transform="translate(119.93329520058433 403.90606237028624) rotate(0 -3.10929785769207 0.0023997343121386905)"><path d="M0 0 C-1.04 0, -5.18 0, -6.22 0 M0 0 C-1.04 0, -5.18 0, -6.22 0" stroke="#E1E1E1" stroke-width="4" fill="none"></path></g></g><mask></mask><g stroke-linecap="round"><g transform="translate(119.80724599829409 409.63814352933696) rotate(0 -3.0700179960565563 -0.11619766142971244)"><path d="M0 0 C-1.02 -0.04, -5.12 -0.19, -6.14 -0.23 M0 0 C-1.02 -0.04, -5.12 -0.19, -6.14 -0.23" stroke="#E1E1E1" stroke-width="4" fill="none"></path></g></g><mask></mask><g stroke-linecap="round" transform="translate(109.56859010285916 407.3385665492806) rotate(0 2.043436917686236 2.043436917686236)"><path d="M4.09 2.04 C4.09 2.16, 4.08 2.28, 4.06 2.4 C4.04 2.51, 4 2.63, 3.96 2.74 C3.92 2.85, 3.87 2.96, 3.81 3.07 C3.75 3.17, 3.68 3.27, 3.61 3.36 C3.53 3.45, 3.45 3.53, 3.36 3.61 C3.27 3.68, 3.17 3.75, 3.07 3.81 C2.96 3.87, 2.85 3.92, 2.74 3.96 C2.63 4, 2.51 4.04, 2.4 4.06 C2.28 4.08, 2.16 4.09, 2.04 4.09 C1.93 4.09, 1.81 4.08, 1.69 4.06 C1.57 4.04, 1.46 4, 1.34 3.96 C1.23 3.92, 1.12 3.87, 1.02 3.81 C0.92 3.75, 0.82 3.68, 0.73 3.61 C0.64 3.53, 0.55 3.45, 0.48 3.36 C0.4 3.27, 0.33 3.17, 0.27 3.07 C0.21 2.96, 0.16 2.85, 0.12 2.74 C0.08 2.63, 0.05 2.51, 0.03 2.4 C0.01 2.28, 0 2.16, 0 2.04 C0 1.93, 0.01 1.81, 0.03 1.69 C0.05 1.57, 0.08 1.46, 0.12 1.34 C0.16 1.23, 0.21 1.12, 0.27 1.02 C0.33 0.92, 0.4 0.82, 0.48 0.73 C0.55 0.64, 0.64 0.55, 0.73 0.48 C0.82 0.4, 0.92 0.33, 1.02 0.27 C1.12 0.21, 1.23 0.16, 1.34 0.12 C1.46 0.08, 1.57 0.05, 1.69 0.03 C1.81 0.01, 1.93 0, 2.04 0 C2.16 0, 2.28 0.01, 2.4 0.03 C2.51 0.05, 2.63 0.08, 2.74 0.12 C2.85 0.16, 2.96 0.21, 3.07 0.27 C3.17 0.33, 3.27 0.4, 3.36 0.48 C3.45 0.55, 3.53 0.64, 3.61 0.73 C3.68 0.82, 3.75 0.92, 3.81 1.02 C3.87 1.12, 3.92 1.23, 3.96 1.34 C4 1.46, 4.04 1.57, 4.06 1.69 C4.08 1.81, 4.08 1.98, 4.09 2.04 C4.09 2.1, 4.09 1.98, 4.09 2.04" stroke="#E1E1E1" stroke-width="4" fill="none"></path></g><g transform="translate(124.30243238794355 395.26807246762655) rotate(0 11.786674499511719 14.34980908387569)"><text x="0" y="21.088467731449786" font-family="Helvetica, Segoe UI Emoji" font-size="24.956189711088157px" fill="#E1E1E1" text-anchor="start" style="white-space: pre;" direction="ltr" dominant-baseline="alphabetic">AI</text></g><g stroke-linecap="round"><g transform="translate(458.9732795760574 223.50700864512692) rotate(0 -4.904038282372028 11.256908121861855)"><path d="M0 0 C-2.01 1.92, -9.5 8.97, -12.04 11.49 C-14.58 14.01, -14.66 13.88, -15.23 15.13 C-15.8 16.38, -15.91 17.81, -15.45 18.99 C-14.99 20.16, -13.66 21.6, -12.48 22.19 C-11.29 22.77, -9.64 22.91, -8.35 22.51 C-7.07 22.12, -6.18 21.24, -4.76 19.84 C-3.35 18.44, -1.59 16.13, 0.15 14.11 C1.88 12.09, 4.73 8.77, 5.64 7.7 M0 0 C-2.01 1.92, -9.5 8.97, -12.04 11.49 C-14.58 14.01, -14.66 13.88, -15.23 15.13 C-15.8 16.38, -15.91 17.81, -15.45 18.99 C-14.99 20.16, -13.66 21.6, -12.48 22.19 C-11.29 22.77, -9.64 22.91, -8.35 22.51 C-7.07 22.12, -6.18 21.24, -4.76 19.84 C-3.35 18.44, -1.59 16.13, 0.15 14.11 C1.88 12.09, 4.73 8.77, 5.64 7.7" stroke="#E1E1E1" stroke-width="4" fill="none"></path></g></g><mask></mask><g stroke-linecap="round"><g transform="translate(464.47281287504666 228.73615853941737) rotate(0 9.839349826010732 6.412973138486578)"><path d="M0 0 C-0.11 0.14, -0.84 0.3, -0.65 0.86 C-0.47 1.43, -0.19 2.03, 1.09 3.41 C2.37 4.79, 5.02 7.14, 7.01 9.14 C9.01 11.14, 11.65 14.13, 13.08 15.41 C14.51 16.69, 14.77 16.75, 15.6 16.83 C16.42 16.91, 17.28 16.52, 18.03 15.91 C18.77 15.3, 19.69 14, 20.07 13.18 C20.46 12.36, 20.83 11.93, 20.33 10.99 C19.83 10.04, 18.63 9.13, 17.06 7.52 C15.48 5.9, 12.75 3.16, 10.88 1.3 C9.01 -0.55, 7.04 -2.72, 5.83 -3.6 C4.62 -4.48, 4.57 -4.6, 3.6 -4 C2.63 -3.4, 0.6 -0.67, 0 0 M0 0 C-0.11 0.14, -0.84 0.3, -0.65 0.86 C-0.47 1.43, -0.19 2.03, 1.09 3.41 C2.37 4.79, 5.02 7.14, 7.01 9.14 C9.01 11.14, 11.65 14.13, 13.08 15.41 C14.51 16.69, 14.77 16.75, 15.6 16.83 C16.42 16.91, 17.28 16.52, 18.03 15.91 C18.77 15.3, 19.69 14, 20.07 13.18 C20.46 12.36, 20.83 11.93, 20.33 10.99 C19.83 10.04, 18.63 9.13, 17.06 7.52 C15.48 5.9, 12.75 3.16, 10.88 1.3 C9.01 -0.55, 7.04 -2.72, 5.83 -3.6 C4.62 -4.48, 4.57 -4.6, 3.6 -4 C2.63 -3.4, 0.6 -0.67, 0 0" stroke="#E1E1E1" stroke-width="4" fill="none"></path></g></g><mask></mask><g stroke-linecap="round"><g transform="translate(464.1871186028511 228.35371261517503) rotate(0 -5.076041219338535 -5.0872800476062)"><path d="M0 0 C-1.22 -1.2, -5.62 -5.48, -7.32 -7.17 C-9.01 -8.87, -9.68 -9.67, -10.15 -10.17 M0 0 C-1.22 -1.2, -5.62 -5.48, -7.32 -7.17 C-9.01 -8.87, -9.68 -9.67, -10.15 -10.17" stroke="#E1E1E1" stroke-width="4" fill="none"></path></g></g><mask></mask><g stroke-linecap="round"><g transform="translate(468.059465026563 224.62307315657927) rotate(0 -5.316617296894762 -5.277199957173281)"><path d="M0 0 C-1.77 -1.76, -8.86 -8.8, -10.63 -10.55 M0 0 C-1.77 -1.76, -8.86 -8.8, -10.63 -10.55" stroke="#E1E1E1" stroke-width="4" fill="none"></path></g></g><mask></mask><g stroke-linecap="round"><g transform="translate(459.489614150094 211.627730047745) rotate(0 -8.862874819274325 0.5886539907164945)"><path d="M0 0 C-1.11 1.2, -5.2 5.84, -6.64 7.19 C-8.09 8.55, -8.11 8.23, -8.67 8.12 C-9.23 8, -9.53 6.46, -10 6.53 C-10.48 6.59, -11.35 7.73, -11.52 8.5 C-11.69 9.28, -10.7 10.26, -11.01 11.2 C-11.33 12.15, -12.49 14.12, -13.42 14.17 C-14.35 14.21, -15.5 12.49, -16.6 11.47 C-17.71 10.45, -19.23 8.88, -20.03 8.03 C-20.82 7.18, -21.54 6.99, -21.38 6.37 C-21.22 5.74, -19.82 4.72, -19.07 4.26 C-18.32 3.8, -17.64 3.72, -16.89 3.59 C-16.13 3.46, -14.85 3.86, -14.52 3.46 C-14.19 3.06, -15.09 2.02, -14.92 1.18 C-14.74 0.33, -14.14 -0.67, -13.46 -1.61 C-12.79 -2.54, -11.66 -3.53, -10.86 -4.42 C-10.07 -5.3, -9.68 -6.05, -8.68 -6.92 C-7.68 -7.78, -6.05 -8.9, -4.88 -9.6 C-3.72 -10.3, -2.79 -10.72, -1.69 -11.13 C-0.6 -11.54, 0.77 -11.73, 1.66 -12.04 C2.55 -12.35, 3.37 -13.27, 3.65 -12.99 C3.93 -12.71, 3.73 -11.05, 3.35 -10.35 C2.96 -9.65, 1.98 -9.35, 1.35 -8.79 C0.71 -8.23, 0.15 -7.71, -0.48 -6.99 C-1.1 -6.28, -2.13 -5.31, -2.39 -4.5 C-2.65 -3.69, -2.43 -2.88, -2.03 -2.13 C-1.64 -1.38, -0.34 -0.35, 0 0 M0 0 C-1.11 1.2, -5.2 5.84, -6.64 7.19 C-8.09 8.55, -8.11 8.23, -8.67 8.12 C-9.23 8, -9.53 6.46, -10 6.53 C-10.48 6.59, -11.35 7.73, -11.52 8.5 C-11.69 9.28, -10.7 10.26, -11.01 11.2 C-11.33 12.15, -12.49 14.12, -13.42 14.17 C-14.35 14.21, -15.5 12.49, -16.6 11.47 C-17.71 10.45, -19.23 8.88, -20.03 8.03 C-20.82 7.18, -21.54 6.99, -21.38 6.37 C-21.22 5.74, -19.82 4.72, -19.07 4.26 C-18.32 3.8, -17.64 3.72, -16.89 3.59 C-16.13 3.46, -14.85 3.86, -14.52 3.46 C-14.19 3.06, -15.09 2.02, -14.92 1.18 C-14.74 0.33, -14.14 -0.67, -13.46 -1.61 C-12.79 -2.54, -11.66 -3.53, -10.86 -4.42 C-10.07 -5.3, -9.68 -6.05, -8.68 -6.92 C-7.68 -7.78, -6.05 -8.9, -4.88 -9.6 C-3.72 -10.3, -2.79 -10.72, -1.69 -11.13 C-0.6 -11.54, 0.77 -11.73, 1.66 -12.04 C2.55 -12.35, 3.37 -13.27, 3.65 -12.99 C3.93 -12.71, 3.73 -11.05, 3.35 -10.35 C2.96 -9.65, 1.98 -9.35, 1.35 -8.79 C0.71 -8.23, 0.15 -7.71, -0.48 -6.99 C-1.1 -6.28, -2.13 -5.31, -2.39 -4.5 C-2.65 -3.69, -2.43 -2.88, -2.03 -2.13 C-1.64 -1.38, -0.34 -0.35, 0 0" stroke="#E1E1E1" stroke-width="4" fill="none"></path></g></g><mask></mask><g stroke-linecap="round"><g transform="translate(463.23513723653195 219.6508804634359) rotate(0 13.223834951044864 -7.754285419500775)"><path d="M0 0 C0.92 -0.89, 4.68 -3.96, 5.54 -5.37 C6.39 -6.78, 5.2 -7.31, 5.15 -8.47 C5.1 -9.62, 4.83 -10.92, 5.23 -12.32 C5.63 -13.73, 6.54 -15.64, 7.57 -16.88 C8.59 -18.13, 10.07 -19.12, 11.37 -19.78 C12.67 -20.45, 14.13 -20.71, 15.35 -20.85 C16.57 -20.98, 18.21 -21.08, 18.7 -20.6 C19.2 -20.11, 18.81 -18.82, 18.33 -17.94 C17.85 -17.06, 16.66 -16.17, 15.83 -15.31 C14.99 -14.44, 13.76 -14.11, 13.32 -12.73 C12.89 -11.35, 12.66 -8.09, 13.22 -7.05 C13.78 -6, 15.58 -6.47, 16.68 -6.44 C17.77 -6.41, 18.94 -6.4, 19.78 -6.86 C20.62 -7.31, 21.01 -8.35, 21.73 -9.18 C22.44 -10.02, 23.29 -11.19, 24.07 -11.86 C24.84 -12.53, 25.97 -13.82, 26.37 -13.21 C26.76 -12.6, 26.63 -9.88, 26.45 -8.2 C26.26 -6.53, 26.03 -4.57, 25.26 -3.16 C24.49 -1.75, 23.26 -0.58, 21.81 0.26 C20.35 1.1, 18.31 1.65, 16.53 1.88 C14.74 2.11, 12.64 1.09, 11.08 1.66 C9.53 2.24, 7.86 4.73, 7.21 5.34 M0 0 C0.92 -0.89, 4.68 -3.96, 5.54 -5.37 C6.39 -6.78, 5.2 -7.31, 5.15 -8.47 C5.1 -9.62, 4.83 -10.92, 5.23 -12.32 C5.63 -13.73, 6.54 -15.64, 7.57 -16.88 C8.59 -18.13, 10.07 -19.12, 11.37 -19.78 C12.67 -20.45, 14.13 -20.71, 15.35 -20.85 C16.57 -20.98, 18.21 -21.08, 18.7 -20.6 C19.2 -20.11, 18.81 -18.82, 18.33 -17.94 C17.85 -17.06, 16.66 -16.17, 15.83 -15.31 C14.99 -14.44, 13.76 -14.11, 13.32 -12.73 C12.89 -11.35, 12.66 -8.09, 13.22 -7.05 C13.78 -6, 15.58 -6.47, 16.68 -6.44 C17.77 -6.41, 18.94 -6.4, 19.78 -6.86 C20.62 -7.31, 21.01 -8.35, 21.73 -9.18 C22.44 -10.02, 23.29 -11.19, 24.07 -11.86 C24.84 -12.53, 25.97 -13.82, 26.37 -13.21 C26.76 -12.6, 26.63 -9.88, 26.45 -8.2 C26.26 -6.53, 26.03 -4.57, 25.26 -3.16 C24.49 -1.75, 23.26 -0.58, 21.81 0.26 C20.35 1.1, 18.31 1.65, 16.53 1.88 C14.74 2.11, 12.64 1.09, 11.08 1.66 C9.53 2.24, 7.86 4.73, 7.21 5.34" stroke="#E1E1E1" stroke-width="4" fill="none"></path></g></g><mask></mask><g stroke-linecap="round"><g transform="translate(388.218378418318 446.65275475825) rotate(0 -6.779915261469 10.229063319444531)"><path d="M0 0 C-2.26 1.67, -12.14 7.42, -13.56 10.01 C-14.98 12.6, -10.65 13.81, -8.5 15.55 C-6.35 17.29, -1.97 19.64, -0.67 20.46 M0 0 C-2.26 1.67, -12.14 7.42, -13.56 10.01 C-14.98 12.6, -10.65 13.81, -8.5 15.55 C-6.35 17.29, -1.97 19.64, -0.67 20.46" stroke="#E1E1E1" stroke-width="4" fill="none"></path></g></g><mask></mask><g stroke-linecap="round"><g transform="translate(408.67302326736717 443.47039884658807) rotate(0 -3.354704508627563 13.610751699314498)"><path d="M0 0 C-1.12 4.54, -5.59 22.68, -6.71 27.22 M0 0 C-1.12 4.54, -5.59 22.68, -6.71 27.22" stroke="#E1E1E1" stroke-width="4" fill="none"></path></g></g><mask></mask><g stroke-linecap="round"><g transform="translate(422.4260931262979 446.41164081198986) rotate(0 6.704621556228815 10.388355204519485)"><path d="M0 0 C2.23 1.51, 11.56 6.81, 13.41 9.04 C15.26 11.27, 13.3 11.43, 11.08 13.38 C8.86 15.34, 1.91 19.54, 0.07 20.78 M0 0 C2.23 1.51, 11.56 6.81, 13.41 9.04 C15.26 11.27, 13.3 11.43, 11.08 13.38 C8.86 15.34, 1.91 19.54, 0.07 20.78" stroke="#E1E1E1" stroke-width="4" fill="none"></path></g></g><mask></mask><g stroke-linecap="round"><g transform="translate(266.0416358472612 507.7120235231996) rotate(0 10.421882322199831 8.287645917762031)"><path d="M0 0 C-0.02 1.15, -0.23 5.14, -0.11 6.89 C0.01 8.64, 0.3 9.29, 0.7 10.49 C1.1 11.68, 1.51 12.84, 2.3 14.05 C3.1 15.26, 4.36 16.76, 5.46 17.74 C6.57 18.72, 8.01 19.54, 8.94 19.95 C9.86 20.35, 10.29 20.33, 11.02 20.17 C11.76 20.02, 12.31 19.75, 13.33 19.03 C14.36 18.32, 16.09 17.05, 17.15 15.87 C18.21 14.68, 19.1 13.17, 19.69 11.93 C20.29 10.69, 20.51 9.7, 20.72 8.44 C20.93 7.17, 20.94 5.84, 20.95 4.34 C20.97 2.83, 20.91 0.44, 20.82 -0.6 C20.73 -1.64, 20.79 -1.54, 20.4 -1.91 C20 -2.28, 19.45 -2.58, 18.46 -2.82 C17.47 -3.06, 15.93 -3.24, 14.44 -3.37 C12.95 -3.5, 11.16 -3.63, 9.53 -3.6 C7.9 -3.57, 5.93 -3.36, 4.67 -3.17 C3.4 -2.99, 2.66 -2.69, 1.92 -2.48 C1.19 -2.28, 0.57 -2.36, 0.25 -1.95 C-0.07 -1.54, 0.04 -0.33, 0 0 M0 0 C-0.02 1.15, -0.23 5.14, -0.11 6.89 C0.01 8.64, 0.3 9.29, 0.7 10.49 C1.1 11.68, 1.51 12.84, 2.3 14.05 C3.1 15.26, 4.36 16.76, 5.46 17.74 C6.57 18.72, 8.01 19.54, 8.94 19.95 C9.86 20.35, 10.29 20.33, 11.02 20.17 C11.76 20.02, 12.31 19.75, 13.33 19.03 C14.36 18.32, 16.09 17.05, 17.15 15.87 C18.21 14.68, 19.1 13.17, 19.69 11.93 C20.29 10.69, 20.51 9.7, 20.72 8.44 C20.93 7.17, 20.94 5.84, 20.95 4.34 C20.97 2.83, 20.91 0.44, 20.82 -0.6 C20.73 -1.64, 20.79 -1.54, 20.4 -1.91 C20 -2.28, 19.45 -2.58, 18.46 -2.82 C17.47 -3.06, 15.93 -3.24, 14.44 -3.37 C12.95 -3.5, 11.16 -3.63, 9.53 -3.6 C7.9 -3.57, 5.93 -3.36, 4.67 -3.17 C3.4 -2.99, 2.66 -2.69, 1.92 -2.48 C1.19 -2.28, 0.57 -2.36, 0.25 -1.95 C-0.07 -1.54, 0.04 -0.33, 0 0" stroke="#E1E1E1" stroke-width="4" fill="none"></path></g></g><mask></mask><g stroke-linecap="round"><g transform="translate(269.7818845183956 512.897858974331) rotate(0 2.504169040826323 -0.522073238798793)"><path d="M0 0 C0.21 -0.14, 0.77 -0.67, 1.27 -0.85 C1.77 -1.02, 2.51 -1.07, 3 -1.04 C3.5 -1.01, 3.91 -0.81, 4.25 -0.67 C4.58 -0.52, 4.88 -0.28, 5.01 -0.2 M0 0 C0.21 -0.14, 0.77 -0.67, 1.27 -0.85 C1.77 -1.02, 2.51 -1.07, 3 -1.04 C3.5 -1.01, 3.91 -0.81, 4.25 -0.67 C4.58 -0.52, 4.88 -0.28, 5.01 -0.2" stroke="#E1E1E1" stroke-width="4" fill="none"></path></g></g><mask></mask><g stroke-linecap="round"><g transform="translate(278.0563499384243 512.8918756868334) rotate(0 2.504169040826323 -0.522073238798793)"><path d="M0 0 C0.21 -0.14, 0.77 -0.67, 1.27 -0.85 C1.77 -1.02, 2.51 -1.07, 3 -1.04 C3.5 -1.01, 3.91 -0.81, 4.25 -0.67 C4.58 -0.52, 4.88 -0.28, 5.01 -0.2 M0 0 C0.21 -0.14, 0.77 -0.67, 1.27 -0.85 C1.77 -1.02, 2.51 -1.07, 3 -1.04 C3.5 -1.01, 3.91 -0.81, 4.25 -0.67 C4.58 -0.52, 4.88 -0.28, 5.01 -0.2" stroke="#E1E1E1" stroke-width="4" fill="none"></path></g></g><mask></mask><g stroke-linecap="round"><g transform="translate(260.750984057011 521.4581949852472) rotate(340.9377246107457 2.504169040826323 -0.522073238798793)"><path d="M0 0 C0.21 -0.14, 0.77 -0.67, 1.27 -0.85 C1.77 -1.02, 2.51 -1.07, 3 -1.04 C3.5 -1.01, 3.91 -0.81, 4.25 -0.67 C4.58 -0.52, 4.88 -0.28, 5.01 -0.2 M0 0 C0.21 -0.14, 0.77 -0.67, 1.27 -0.85 C1.77 -1.02, 2.51 -1.07, 3 -1.04 C3.5 -1.01, 3.91 -0.81, 4.25 -0.67 C4.58 -0.52, 4.88 -0.28, 5.01 -0.2" stroke="#E1E1E1" stroke-width="4" fill="none"></path></g></g><mask></mask><g stroke-linecap="round"><g transform="translate(270.7891256023395 518.7389534556442) rotate(0 5.683932736909902 2.023771280575552)"><path d="M0 0 C0.87 0.14, 3.93 0.75, 5.19 0.87 C6.45 0.98, 6.52 0.85, 7.55 0.7 C8.58 0.55, 11.03 -0.14, 11.37 -0.04 C11.71 0.06, 10.2 0.78, 9.59 1.29 C8.98 1.8, 8.27 2.56, 7.7 3.03 C7.12 3.49, 6.65 3.96, 6.13 4.09 C5.61 4.22, 5.27 4.26, 4.57 3.8 C3.87 3.35, 2.68 1.99, 1.92 1.36 C1.16 0.72, 0.32 0.23, 0 0 M0 0 C0.87 0.14, 3.93 0.75, 5.19 0.87 C6.45 0.98, 6.52 0.85, 7.55 0.7 C8.58 0.55, 11.03 -0.14, 11.37 -0.04 C11.71 0.06, 10.2 0.78, 9.59 1.29 C8.98 1.8, 8.27 2.56, 7.7 3.03 C7.12 3.49, 6.65 3.96, 6.13 4.09 C5.61 4.22, 5.27 4.26, 4.57 3.8 C3.87 3.35, 2.68 1.99, 1.92 1.36 C1.16 0.72, 0.32 0.23, 0 0" stroke="#E1E1E1" stroke-width="1" fill="none"></path></g></g><mask></mask><g stroke-linecap="round"><g transform="translate(264.4657101563571 525.8506296764135) rotate(346.1740762618228 4.441252353552429 2.044860076949263)"><path d="M0 0 C0.87 0.14, 3.94 0.76, 5.19 0.87 C6.45 0.98, 7.01 0.56, 7.53 0.64 C8.05 0.72, 8.09 1.11, 8.32 1.35 C8.54 1.59, 8.99 1.79, 8.88 2.07 C8.78 2.35, 8.15 2.69, 7.7 3.03 C7.24 3.36, 6.65 3.96, 6.13 4.09 C5.61 4.22, 5.27 4.26, 4.57 3.8 C3.87 3.35, 2.68 1.99, 1.92 1.36 C1.16 0.72, 0.32 0.23, 0 0 M0 0 C0.87 0.14, 3.94 0.76, 5.19 0.87 C6.45 0.98, 7.01 0.56, 7.53 0.64 C8.05 0.72, 8.09 1.11, 8.32 1.35 C8.54 1.59, 8.99 1.79, 8.88 2.07 C8.78 2.35, 8.15 2.69, 7.7 3.03 C7.24 3.36, 6.65 3.96, 6.13 4.09 C5.61 4.22, 5.27 4.26, 4.57 3.8 C3.87 3.35, 2.68 1.99, 1.92 1.36 C1.16 0.72, 0.32 0.23, 0 0" stroke="#E1E1E1" stroke-width="1" fill="none"></path></g></g><mask></mask><g stroke-linecap="round"><g transform="translate(265.9191616685366 511.1869732940213) rotate(0 1.0585548113514172 11.603764362121296)"><path d="M0 0 C-0.43 0.13, -1.54 0.41, -2.57 0.8 C-3.6 1.19, -5.08 1.82, -6.17 2.33 C-7.26 2.84, -8.55 3.4, -9.1 3.88 C-9.64 4.36, -9.52 4.43, -9.46 5.2 C-9.4 5.98, -9.06 7.38, -8.75 8.53 C-8.44 9.69, -7.98 10.98, -7.59 12.14 C-7.2 13.3, -7.01 14.42, -6.41 15.49 C-5.81 16.55, -4.91 17.64, -3.99 18.54 C-3.07 19.45, -1.92 20.28, -0.88 20.91 C0.17 21.55, 1.29 21.96, 2.28 22.34 C3.28 22.72, 4.28 23.13, 5.1 23.21 C5.92 23.29, 6.46 23.28, 7.2 22.82 C7.95 22.35, 8.89 21.24, 9.57 20.43 C10.24 19.62, 10.9 18.58, 11.24 17.96 C11.57 17.35, 11.52 16.94, 11.57 16.74 M0 0 C-0.43 0.13, -1.54 0.41, -2.57 0.8 C-3.6 1.19, -5.08 1.82, -6.17 2.33 C-7.26 2.84, -8.55 3.4, -9.1 3.88 C-9.64 4.36, -9.52 4.43, -9.46 5.2 C-9.4 5.98, -9.06 7.38, -8.75 8.53 C-8.44 9.69, -7.98 10.98, -7.59 12.14 C-7.2 13.3, -7.01 14.42, -6.41 15.49 C-5.81 16.55, -4.91 17.64, -3.99 18.54 C-3.07 19.45, -1.92 20.28, -0.88 20.91 C0.17 21.55, 1.29 21.96, 2.28 22.34 C3.28 22.72, 4.28 23.13, 5.1 23.21 C5.92 23.29, 6.46 23.28, 7.2 22.82 C7.95 22.35, 8.89 21.24, 9.57 20.43 C10.24 19.62, 10.9 18.58, 11.24 17.96 C11.57 17.35, 11.52 16.94, 11.57 16.74" stroke="#E1E1E1" stroke-width="4" fill="none"></path></g></g><mask></mask><g stroke-linecap="round" transform="translate(246.02037189105613 492.64898472122513) rotate(0 26.00744794476472 26.00744794476472)"><path d="M52.01 26.01 C52.01 27.51, 51.88 29.04, 51.62 30.52 C51.36 32.01, 50.96 33.49, 50.45 34.9 C49.93 36.32, 49.28 37.71, 48.53 39.01 C47.78 40.31, 46.9 41.57, 45.93 42.72 C44.96 43.88, 43.88 44.96, 42.72 45.93 C41.57 46.9, 40.31 47.78, 39.01 48.53 C37.71 49.28, 36.32 49.93, 34.9 50.45 C33.49 50.96, 32.01 51.36, 30.52 51.62 C29.04 51.88, 27.51 52.01, 26.01 52.01 C24.5 52.01, 22.97 51.88, 21.49 51.62 C20.01 51.36, 18.53 50.96, 17.11 50.45 C15.7 49.93, 14.31 49.28, 13 48.53 C11.7 47.78, 10.44 46.9, 9.29 45.93 C8.14 44.96, 7.05 43.88, 6.08 42.72 C5.12 41.57, 4.24 40.31, 3.48 39.01 C2.73 37.71, 2.08 36.32, 1.57 34.9 C1.05 33.49, 0.66 32.01, 0.4 30.52 C0.13 29.04, 0 27.51, 0 26.01 C0 24.5, 0.13 22.97, 0.4 21.49 C0.66 20.01, 1.05 18.53, 1.57 17.11 C2.08 15.7, 2.73 14.31, 3.48 13 C4.24 11.7, 5.12 10.44, 6.08 9.29 C7.05 8.14, 8.14 7.05, 9.29 6.08 C10.44 5.12, 11.7 4.24, 13 3.48 C14.31 2.73, 15.7 2.08, 17.11 1.57 C18.53 1.05, 20.01 0.66, 21.49 0.4 C22.97 0.13, 24.5 0, 26.01 0 C27.51 0, 29.04 0.13, 30.52 0.4 C32.01 0.66, 33.49 1.05, 34.9 1.57 C36.32 2.08, 37.71 2.73, 39.01 3.48 C40.31 4.24, 41.57 5.12, 42.72 6.08 C43.88 7.05, 44.96 8.14, 45.93 9.29 C46.9 10.44, 47.78 11.7, 48.53 13 C49.28 14.31, 49.93 15.7, 50.45 17.11 C50.96 18.53, 51.36 20.01, 51.62 21.49 C51.88 22.97, 51.95 25.25, 52.01 26.01 C52.08 26.76, 52.08 25.25, 52.01 26.01" stroke="#E1E1E1" stroke-width="4" fill="none"></path></g><g stroke-linecap="round"><g transform="translate(271.2952281259513 459.1776973166525) rotate(0 0.6027815998713315 15.523232757450625)"><path d="M0 0 C0.2 5.17, 1 25.87, 1.21 31.05 M0 0 C0.2 5.17, 1 25.87, 1.21 31.05" stroke="#E1E1E1" stroke-width="4" fill="none"></path></g></g><mask></mask><g stroke-linecap="round"><g transform="translate(193.07446694896134 119.0631926830647) rotate(0 8.695513829516809 19.70968311681702)"><path d="M0 0 C-0.27 0.65, -1.16 2.37, -1.64 3.9 C-2.11 5.44, -2.52 6.6, -2.84 9.2 C-3.16 11.8, -3.56 16.45, -3.57 19.5 C-3.59 22.56, -3.2 25.06, -2.92 27.52 C-2.63 29.99, -2.53 31.9, -1.88 34.29 C-1.22 36.68, -0.23 39.74, 1 41.84 C2.23 43.94, 4.11 45.84, 5.5 46.87 C6.89 47.89, 8.07 48.15, 9.35 48 C10.64 47.86, 12.4 46.5, 13.22 45.99 C14.04 45.47, 13.83 44.99, 14.26 44.92 C14.68 44.85, 15.27 45.48, 15.78 45.54 C16.3 45.6, 16.83 45.63, 17.37 45.28 C17.9 44.93, 18.81 44.24, 19.02 43.45 C19.23 42.67, 19.07 41.24, 18.62 40.58 C18.17 39.92, 17.03 39.67, 16.32 39.5 C15.61 39.33, 14.94 39.3, 14.36 39.55 C13.78 39.8, 13.12 40.42, 12.84 41 C12.57 41.57, 12.49 42.33, 12.72 42.98 C12.94 43.63, 13.66 44.46, 14.21 44.9 C14.77 45.33, 15.37 45.63, 16.04 45.62 C16.72 45.61, 17.74 45.25, 18.27 44.84 C18.79 44.43, 19.06 43.79, 19.18 43.15 C19.29 42.51, 19.26 41.59, 18.97 41.02 C18.67 40.46, 17.6 40.2, 17.41 39.78 C17.22 39.36, 17.48 39.72, 17.83 38.49 C18.18 37.27, 18.98 35.05, 19.51 32.44 C20.03 29.84, 20.82 26.62, 20.97 22.85 C21.11 19.08, 20.89 13.44, 20.4 9.8 C19.9 6.16, 18.88 3.4, 18.01 1.01 C17.15 -1.38, 16.24 -3.06, 15.2 -4.52 C14.16 -5.98, 12.75 -7.07, 11.77 -7.75 C10.78 -8.42, 10.18 -8.49, 9.3 -8.58 C8.42 -8.68, 7.48 -8.81, 6.5 -8.29 C5.52 -7.77, 4.3 -6.5, 3.4 -5.45 C2.5 -4.4, 1.66 -2.9, 1.1 -1.99 C0.53 -1.08, 0.18 -0.33, 0 0 M0 0 C-0.27 0.65, -1.16 2.37, -1.64 3.9 C-2.11 5.44, -2.52 6.6, -2.84 9.2 C-3.16 11.8, -3.56 16.45, -3.57 19.5 C-3.59 22.56, -3.2 25.06, -2.92 27.52 C-2.63 29.99, -2.53 31.9, -1.88 34.29 C-1.22 36.68, -0.23 39.74, 1 41.84 C2.23 43.94, 4.11 45.84, 5.5 46.87 C6.89 47.89, 8.07 48.15, 9.35 48 C10.64 47.86, 12.4 46.5, 13.22 45.99 C14.04 45.47, 13.83 44.99, 14.26 44.92 C14.68 44.85, 15.27 45.48, 15.78 45.54 C16.3 45.6, 16.83 45.63, 17.37 45.28 C17.9 44.93, 18.81 44.24, 19.02 43.45 C19.23 42.67, 19.07 41.24, 18.62 40.58 C18.17 39.92, 17.03 39.67, 16.32 39.5 C15.61 39.33, 14.94 39.3, 14.36 39.55 C13.78 39.8, 13.12 40.42, 12.84 41 C12.57 41.57, 12.49 42.33, 12.72 42.98 C12.94 43.63, 13.66 44.46, 14.21 44.9 C14.77 45.33, 15.37 45.63, 16.04 45.62 C16.72 45.61, 17.74 45.25, 18.27 44.84 C18.79 44.43, 19.06 43.79, 19.18 43.15 C19.29 42.51, 19.26 41.59, 18.97 41.02 C18.67 40.46, 17.6 40.2, 17.41 39.78 C17.22 39.36, 17.48 39.72, 17.83 38.49 C18.18 37.27, 18.98 35.05, 19.51 32.44 C20.03 29.84, 20.82 26.62, 20.97 22.85 C21.11 19.08, 20.89 13.44, 20.4 9.8 C19.9 6.16, 18.88 3.4, 18.01 1.01 C17.15 -1.38, 16.24 -3.06, 15.2 -4.52 C14.16 -5.98, 12.75 -7.07, 11.77 -7.75 C10.78 -8.42, 10.18 -8.49, 9.3 -8.58 C8.42 -8.68, 7.48 -8.81, 6.5 -8.29 C5.52 -7.77, 4.3 -6.5, 3.4 -5.45 C2.5 -4.4, 1.66 -2.9, 1.1 -1.99 C0.53 -1.08, 0.18 -0.33, 0 0" stroke="#E1E1E1" stroke-width="4" fill="none"></path></g></g><mask></mask><g stroke-linecap="round"><g transform="translate(193.02365349088905 118.57950352804255) rotate(120.0941975952721 8.695513829516809 19.70968311681702)"><path d="M0 0 C-0.27 0.65, -1.16 2.37, -1.64 3.9 C-2.11 5.44, -2.52 6.6, -2.84 9.2 C-3.16 11.8, -3.56 16.45, -3.57 19.5 C-3.59 22.56, -3.2 25.06, -2.92 27.52 C-2.63 29.99, -2.53 31.9, -1.88 34.29 C-1.22 36.68, -0.23 39.74, 1 41.84 C2.23 43.94, 4.11 45.84, 5.5 46.87 C6.89 47.89, 8.07 48.15, 9.35 48 C10.64 47.86, 12.4 46.5, 13.22 45.99 C14.04 45.47, 13.83 44.99, 14.26 44.92 C14.68 44.85, 15.27 45.48, 15.78 45.54 C16.3 45.6, 16.83 45.63, 17.37 45.28 C17.9 44.93, 18.81 44.24, 19.02 43.45 C19.23 42.67, 19.07 41.24, 18.62 40.58 C18.17 39.92, 17.03 39.67, 16.32 39.5 C15.61 39.33, 14.94 39.3, 14.36 39.55 C13.78 39.8, 13.12 40.42, 12.84 41 C12.57 41.57, 12.49 42.33, 12.72 42.98 C12.94 43.63, 13.66 44.46, 14.21 44.9 C14.77 45.33, 15.37 45.63, 16.04 45.62 C16.72 45.61, 17.74 45.25, 18.27 44.84 C18.79 44.43, 19.06 43.79, 19.18 43.15 C19.29 42.51, 19.26 41.59, 18.97 41.02 C18.67 40.46, 17.6 40.2, 17.41 39.78 C17.22 39.36, 17.48 39.72, 17.83 38.49 C18.18 37.27, 18.98 35.05, 19.51 32.44 C20.03 29.84, 20.82 26.62, 20.97 22.85 C21.11 19.08, 20.89 13.44, 20.4 9.8 C19.9 6.16, 18.88 3.4, 18.01 1.01 C17.15 -1.38, 16.24 -3.06, 15.2 -4.52 C14.16 -5.98, 12.75 -7.07, 11.77 -7.75 C10.78 -8.42, 10.18 -8.49, 9.3 -8.58 C8.42 -8.68, 7.48 -8.81, 6.5 -8.29 C5.52 -7.77, 4.3 -6.5, 3.4 -5.45 C2.5 -4.4, 1.66 -2.9, 1.1 -1.99 C0.53 -1.08, 0.18 -0.33, 0 0 M0 0 C-0.27 0.65, -1.16 2.37, -1.64 3.9 C-2.11 5.44, -2.52 6.6, -2.84 9.2 C-3.16 11.8, -3.56 16.45, -3.57 19.5 C-3.59 22.56, -3.2 25.06, -2.92 27.52 C-2.63 29.99, -2.53 31.9, -1.88 34.29 C-1.22 36.68, -0.23 39.74, 1 41.84 C2.23 43.94, 4.11 45.84, 5.5 46.87 C6.89 47.89, 8.07 48.15, 9.35 48 C10.64 47.86, 12.4 46.5, 13.22 45.99 C14.04 45.47, 13.83 44.99, 14.26 44.92 C14.68 44.85, 15.27 45.48, 15.78 45.54 C16.3 45.6, 16.83 45.63, 17.37 45.28 C17.9 44.93, 18.81 44.24, 19.02 43.45 C19.23 42.67, 19.07 41.24, 18.62 40.58 C18.17 39.92, 17.03 39.67, 16.32 39.5 C15.61 39.33, 14.94 39.3, 14.36 39.55 C13.78 39.8, 13.12 40.42, 12.84 41 C12.57 41.57, 12.49 42.33, 12.72 42.98 C12.94 43.63, 13.66 44.46, 14.21 44.9 C14.77 45.33, 15.37 45.63, 16.04 45.62 C16.72 45.61, 17.74 45.25, 18.27 44.84 C18.79 44.43, 19.06 43.79, 19.18 43.15 C19.29 42.51, 19.26 41.59, 18.97 41.02 C18.67 40.46, 17.6 40.2, 17.41 39.78 C17.22 39.36, 17.48 39.72, 17.83 38.49 C18.18 37.27, 18.98 35.05, 19.51 32.44 C20.03 29.84, 20.82 26.62, 20.97 22.85 C21.11 19.08, 20.89 13.44, 20.4 9.8 C19.9 6.16, 18.88 3.4, 18.01 1.01 C17.15 -1.38, 16.24 -3.06, 15.2 -4.52 C14.16 -5.98, 12.75 -7.07, 11.77 -7.75 C10.78 -8.42, 10.18 -8.49, 9.3 -8.58 C8.42 -8.68, 7.48 -8.81, 6.5 -8.29 C5.52 -7.77, 4.3 -6.5, 3.4 -5.45 C2.5 -4.4, 1.66 -2.9, 1.1 -1.99 C0.53 -1.08, 0.18 -0.33, 0 0" stroke="#E1E1E1" stroke-width="4" fill="none"></path></g></g><mask></mask><g stroke-linecap="round"><g transform="translate(210.23542466189792 118.55866582620547) rotate(239.99999999999994 -8.273614275445796 19.584222375360696)"><path d="M0 0 C0.26 0.65, 1.11 2.36, 1.56 3.88 C2.01 5.4, 2.39 6.55, 2.7 9.14 C3.01 11.72, 3.39 16.34, 3.4 19.38 C3.41 22.41, 3.04 24.9, 2.77 27.35 C2.5 29.8, 2.4 31.7, 1.78 34.07 C1.16 36.44, 0.22 39.49, -0.95 41.57 C-2.12 43.66, -3.91 45.55, -5.23 46.57 C-6.56 47.59, -7.68 47.84, -8.9 47.7 C-10.12 47.55, -11.8 46.21, -12.58 45.7 C-13.35 45.19, -13.16 44.71, -13.56 44.63 C-13.97 44.56, -14.53 45.19, -15.02 45.25 C-15.51 45.31, -16.01 45.34, -16.52 44.99 C-17.04 44.64, -17.9 43.96, -18.1 43.18 C-18.3 42.4, -18.15 40.97, -17.72 40.32 C-17.29 39.66, -16.2 39.42, -15.52 39.25 C-14.85 39.08, -14.21 39.05, -13.66 39.3 C-13.11 39.54, -12.48 40.17, -12.22 40.73 C-11.96 41.3, -11.88 42.06, -12.1 42.71 C-12.32 43.36, -13 44.17, -13.52 44.61 C-14.05 45.05, -14.62 45.34, -15.27 45.33 C-15.91 45.32, -16.88 44.97, -17.38 44.56 C-17.88 44.15, -18.14 43.51, -18.25 42.87 C-18.36 42.24, -18.33 41.32, -18.05 40.76 C-17.77 40.2, -16.75 39.94, -16.57 39.52 C-16.39 39.1, -16.63 39.46, -16.96 38.25 C-17.29 37.04, -18.06 34.83, -18.56 32.24 C-19.06 29.65, -19.81 26.45, -19.95 22.7 C-20.09 18.95, -19.87 13.36, -19.41 9.74 C-18.94 6.12, -17.96 3.37, -17.14 1 C-16.31 -1.37, -15.46 -3.04, -14.47 -4.49 C-13.47 -5.94, -12.13 -7.02, -11.19 -7.7 C-10.26 -8.37, -9.68 -8.44, -8.85 -8.53 C-8.01 -8.62, -7.12 -8.76, -6.19 -8.24 C-5.25 -7.72, -4.09 -6.46, -3.23 -5.42 C-2.37 -4.37, -1.58 -2.88, -1.05 -1.98 C-0.51 -1.07, -0.17 -0.33, 0 0 M0 0 C0.26 0.65, 1.11 2.36, 1.56 3.88 C2.01 5.4, 2.39 6.55, 2.7 9.14 C3.01 11.72, 3.39 16.34, 3.4 19.38 C3.41 22.41, 3.04 24.9, 2.77 27.35 C2.5 29.8, 2.4 31.7, 1.78 34.07 C1.16 36.44, 0.22 39.49, -0.95 41.57 C-2.12 43.66, -3.91 45.55, -5.23 46.57 C-6.56 47.59, -7.68 47.84, -8.9 47.7 C-10.12 47.55, -11.8 46.21, -12.58 45.7 C-13.35 45.19, -13.16 44.71, -13.56 44.63 C-13.97 44.56, -14.53 45.19, -15.02 45.25 C-15.51 45.31, -16.01 45.34, -16.52 44.99 C-17.04 44.64, -17.9 43.96, -18.1 43.18 C-18.3 42.4, -18.15 40.97, -17.72 40.32 C-17.29 39.66, -16.2 39.42, -15.52 39.25 C-14.85 39.08, -14.21 39.05, -13.66 39.3 C-13.11 39.54, -12.48 40.17, -12.22 40.73 C-11.96 41.3, -11.88 42.06, -12.1 42.71 C-12.32 43.36, -13 44.17, -13.52 44.61 C-14.05 45.05, -14.62 45.34, -15.27 45.33 C-15.91 45.32, -16.88 44.97, -17.38 44.56 C-17.88 44.15, -18.14 43.51, -18.25 42.87 C-18.36 42.24, -18.33 41.32, -18.05 40.76 C-17.77 40.2, -16.75 39.94, -16.57 39.52 C-16.39 39.1, -16.63 39.46, -16.96 38.25 C-17.29 37.04, -18.06 34.83, -18.56 32.24 C-19.06 29.65, -19.81 26.45, -19.95 22.7 C-20.09 18.95, -19.87 13.36, -19.41 9.74 C-18.94 6.12, -17.96 3.37, -17.14 1 C-16.31 -1.37, -15.46 -3.04, -14.47 -4.49 C-13.47 -5.94, -12.13 -7.02, -11.19 -7.7 C-10.26 -8.37, -9.68 -8.44, -8.85 -8.53 C-8.01 -8.62, -7.12 -8.76, -6.19 -8.24 C-5.25 -7.72, -4.09 -6.46, -3.23 -5.42 C-2.37 -4.37, -1.58 -2.88, -1.05 -1.98 C-0.51 -1.07, -0.17 -0.33, 0 0" stroke="#E1E1E1" stroke-width="4" fill="none"></path></g></g><mask></mask><g stroke-linecap="round" transform="translate(195.86873885623936 132.3420482007732) rotate(0 6.273366819611875 6.27336681961188)"><path d="M12.55 6.27 C12.55 6.64, 12.51 7.01, 12.45 7.36 C12.39 7.72, 12.29 8.08, 12.17 8.42 C12.04 8.76, 11.89 9.1, 11.71 9.41 C11.52 9.72, 11.31 10.03, 11.08 10.31 C10.85 10.58, 10.58 10.85, 10.31 11.08 C10.03 11.31, 9.72 11.52, 9.41 11.71 C9.1 11.89, 8.76 12.04, 8.42 12.17 C8.08 12.29, 7.72 12.39, 7.36 12.45 C7.01 12.51, 6.64 12.55, 6.27 12.55 C5.91 12.55, 5.54 12.51, 5.18 12.45 C4.83 12.39, 4.47 12.29, 4.13 12.17 C3.79 12.04, 3.45 11.89, 3.14 11.71 C2.82 11.52, 2.52 11.31, 2.24 11.08 C1.96 10.85, 1.7 10.58, 1.47 10.31 C1.23 10.03, 1.02 9.72, 0.84 9.41 C0.66 9.1, 0.5 8.76, 0.38 8.42 C0.25 8.08, 0.16 7.72, 0.1 7.36 C0.03 7.01, 0 6.64, 0 6.27 C0 5.91, 0.03 5.54, 0.1 5.18 C0.16 4.83, 0.25 4.47, 0.38 4.13 C0.5 3.79, 0.66 3.45, 0.84 3.14 C1.02 2.82, 1.23 2.52, 1.47 2.24 C1.7 1.96, 1.96 1.7, 2.24 1.47 C2.52 1.23, 2.82 1.02, 3.14 0.84 C3.45 0.66, 3.79 0.5, 4.13 0.38 C4.47 0.25, 4.83 0.16, 5.18 0.1 C5.54 0.03, 5.91 0, 6.27 0 C6.64 0, 7.01 0.03, 7.36 0.1 C7.72 0.16, 8.08 0.25, 8.42 0.38 C8.76 0.5, 9.1 0.66, 9.41 0.84 C9.72 1.02, 10.03 1.23, 10.31 1.47 C10.58 1.7, 10.85 1.96, 11.08 2.24 C11.31 2.52, 11.52 2.82, 11.71 3.14 C11.89 3.45, 12.04 3.79, 12.17 4.13 C12.29 4.47, 12.39 4.83, 12.45 5.18 C12.51 5.54, 12.53 6.09, 12.55 6.27 C12.56 6.45, 12.56 6.09, 12.55 6.27" stroke="#E1E1E1" stroke-width="4" fill="none"></path></g><g stroke-linecap="round"><g transform="translate(205.06938039816305 137.95323079235823) rotate(0 -1.23947304220453 1.754707351496677)"><path d="M0 0 C0 0.24, 0.14 0.95, 0 1.46 C-0.14 1.97, -0.44 2.72, -0.85 3.06 C-1.26 3.4, -2.21 3.44, -2.48 3.51 M0 0 C0 0.24, 0.14 0.95, 0 1.46 C-0.14 1.97, -0.44 2.72, -0.85 3.06 C-1.26 3.4, -2.21 3.44, -2.48 3.51" stroke="#E1E1E1" stroke-width="4" fill="none"></path></g></g><mask></mask></svg>