<svg version="1.1" xmlns="http://www.w3.org/2000/svg" viewBox="0 0 660.5879908018729 385.50738973871296" width="660.5879908018729" height="385.50738973871296" class="excalidraw-svg"><!-- svg-source:excalidraw --><metadata></metadata><defs><style class="style-fonts">
      </style></defs><rect x="0" y="0" width="660.5879908018729" height="385.50738973871296" fill="#000000"></rect><g stroke-linecap="round"><g transform="translate(11.477323323172584 76.50479723107776) rotate(0 319.51364045365693 25.557627137348675)"><path d="M0 0 C0.08 7.67, -3.66 33.91, 0.47 46 C4.6 58.08, 5.31 64.7, 24.79 72.5 C44.28 80.3, 89.25 86.68, 117.37 92.8 C145.5 98.92, 170.2 105.11, 193.53 109.23 C216.86 113.36, 233.04 116.17, 257.33 117.56 C281.63 118.94, 300.61 117.87, 339.28 117.56 C377.96 117.25, 444.63 116, 489.4 115.69 C534.17 115.39, 584.62 116.19, 607.9 115.73 C631.18 115.26, 623.92 115.79, 629.11 112.9 C634.29 110.01, 638.33 107.58, 639.03 98.38 C639.73 89.18, 635.87 67.8, 633.3 57.68 C630.73 47.56, 627.65 42.62, 623.62 37.64 C619.58 32.67, 616.66 31.74, 609.08 27.86 C601.5 23.97, 601.52 25.03, 578.13 14.32 C554.73 3.61, 494.33 -25.26, 468.71 -36.42 C443.09 -47.58, 437.01 -48.71, 424.4 -52.64 C411.79 -56.58, 406.45 -57.75, 393.04 -60.05 C379.64 -62.35, 362.16 -65.99, 343.96 -66.44 C325.77 -66.9, 302.83 -64.81, 283.87 -62.78 C264.91 -60.76, 252.47 -58.46, 230.2 -54.28 C207.94 -50.11, 174.12 -42.53, 150.28 -37.74 C126.43 -32.94, 105.06 -28.57, 87.15 -25.52 C69.23 -22.46, 55.57 -20.84, 42.77 -19.41 C29.97 -17.98, 17.46 -20.19, 10.33 -16.95 C3.2 -13.72, 1.72 -2.83, 0 0 M0 0 C0.08 7.67, -3.66 33.91, 0.47 46 C4.6 58.08, 5.31 64.7, 24.79 72.5 C44.28 80.3, 89.25 86.68, 117.37 92.8 C145.5 98.92, 170.2 105.11, 193.53 109.23 C216.86 113.36, 233.04 116.17, 257.33 117.56 C281.63 118.94, 300.61 117.87, 339.28 117.56 C377.96 117.25, 444.63 116, 489.4 115.69 C534.17 115.39, 584.62 116.19, 607.9 115.73 C631.18 115.26, 623.92 115.79, 629.11 112.9 C634.29 110.01, 638.33 107.58, 639.03 98.38 C639.73 89.18, 635.87 67.8, 633.3 57.68 C630.73 47.56, 627.65 42.62, 623.62 37.64 C619.58 32.67, 616.66 31.74, 609.08 27.86 C601.5 23.97, 601.52 25.03, 578.13 14.32 C554.73 3.61, 494.33 -25.26, 468.71 -36.42 C443.09 -47.58, 437.01 -48.71, 424.4 -52.64 C411.79 -56.58, 406.45 -57.75, 393.04 -60.05 C379.64 -62.35, 362.16 -65.99, 343.96 -66.44 C325.77 -66.9, 302.83 -64.81, 283.87 -62.78 C264.91 -60.76, 252.47 -58.46, 230.2 -54.28 C207.94 -50.11, 174.12 -42.53, 150.28 -37.74 C126.43 -32.94, 105.06 -28.57, 87.15 -25.52 C69.23 -22.46, 55.57 -20.84, 42.77 -19.41 C29.97 -17.98, 17.46 -20.19, 10.33 -16.95 C3.2 -13.72, 1.72 -2.83, 0 0" stroke="#E1E1E1" stroke-width="4" fill="none"></path></g></g><mask></mask><g stroke-linecap="round"><g transform="translate(203.63089174530336 33.50543191082954) rotate(0 113.47893269174938 49.27928183439195)"><path d="M0 0 C6.06 6.76, 24.52 28.92, 36.34 40.56 C48.16 52.2, 58.67 61.52, 70.94 69.85 C83.21 78.18, 95.44 85.74, 109.96 90.52 C124.49 95.31, 138.59 97.28, 158.09 98.56 C177.59 99.84, 215.48 98.26, 226.96 98.2 M0 0 C6.06 6.76, 24.52 28.92, 36.34 40.56 C48.16 52.2, 58.67 61.52, 70.94 69.85 C83.21 78.18, 95.44 85.74, 109.96 90.52 C124.49 95.31, 138.59 97.28, 158.09 98.56 C177.59 99.84, 215.48 98.26, 226.96 98.2" stroke="#E1E1E1" stroke-width="4" fill="none"></path></g></g><mask></mask><g stroke-linecap="round"><g transform="translate(644.3929439507674 129.7677928510376) rotate(0 -93.85233781775912 0.7324094910110261)"><path d="M0 0 C-31.28 0.24, -156.42 1.22, -187.7 1.46 M0 0 C-31.28 0.24, -156.42 1.22, -187.7 1.46" stroke="#E1E1E1" stroke-width="4" fill="none"></path></g></g><mask></mask><g stroke-linecap="round"><g transform="translate(512.8066712075934 129.51045978662853) rotate(0 -54.599148069777414 -56.21985150427878)"><path d="M0 0 C-18.2 -18.74, -91 -93.7, -109.2 -112.44 M0 0 C-18.2 -18.74, -91 -93.7, -109.2 -112.44" stroke="#E1E1E1" stroke-width="4" fill="none"></path></g></g><mask></mask><g stroke-linecap="round"><g transform="translate(254.58283849835874 88.67863066275106) rotate(0 -121.08015551737961 -0.2400125696895543)"><path d="M0 0 C-40.36 -0.08, -201.8 -0.4, -242.16 -0.48 M0 0 C-40.36 -0.08, -201.8 -0.4, -242.16 -0.48" stroke="#E1E1E1" stroke-width="4" fill="none"></path></g></g><mask></mask><g stroke-linecap="round"><g transform="translate(608.4009559228916 194.29405875168425) rotate(0 -62.89071632781385 21.064195935738724)"><path d="M0 0 C0.02 3.71, 1.2 15.85, 0.13 22.26 C-0.94 28.66, -2.57 35.12, -6.42 38.43 C-10.27 41.74, -13.29 41.51, -22.96 42.13 C-32.62 42.74, -49.64 42.13, -64.41 42.13 C-79.18 42.13, -101.68 44.81, -111.58 42.13 C-121.48 39.44, -121.4 32.87, -123.79 26.03 C-126.18 19.18, -125.56 5.22, -125.91 1.05 M0 0 C0.02 3.71, 1.2 15.85, 0.13 22.26 C-0.94 28.66, -2.57 35.12, -6.42 38.43 C-10.27 41.74, -13.29 41.51, -22.96 42.13 C-32.62 42.74, -49.64 42.13, -64.41 42.13 C-79.18 42.13, -101.68 44.81, -111.58 42.13 C-121.48 39.44, -121.4 32.87, -123.79 26.03 C-126.18 19.18, -125.56 5.22, -125.91 1.05" stroke="#E1E1E1" stroke-width="4" fill="none"></path></g></g><mask></mask><g stroke-linecap="round"><g transform="translate(300.6117764729615 196.18161908631566) rotate(0 -63.23359050448932 14.151853272774389)"><path d="M0 0 C0.02 3.71, 1.2 15.85, 0.13 22.26 C-0.94 28.66, -2.57 35.12, -6.42 38.43 C-10.27 41.74, -13.29 41.51, -22.96 42.13 C-32.62 42.74, -49.64 42.13, -64.41 42.13 C-79.18 42.13, -101.68 44.81, -111.58 42.13 C-121.48 39.44, -121.28 35.35, -123.79 26.03 C-126.29 16.7, -126.13 -7.18, -126.6 -13.82 M0 0 C0.02 3.71, 1.2 15.85, 0.13 22.26 C-0.94 28.66, -2.57 35.12, -6.42 38.43 C-10.27 41.74, -13.29 41.51, -22.96 42.13 C-32.62 42.74, -49.64 42.13, -64.41 42.13 C-79.18 42.13, -101.68 44.81, -111.58 42.13 C-121.48 39.44, -121.28 35.35, -123.79 26.03 C-126.29 16.7, -126.13 -7.18, -126.6 -13.82" stroke="#E1E1E1" stroke-width="4" fill="none"></path></g></g><mask></mask><g stroke-linecap="round"><g transform="translate(237.7571916131464 267.273796782005) rotate(0 -0.33407375381197824 53.76192190590835)"><path d="M0 0 C-0.11 17.92, -0.56 89.6, -0.67 107.52 M0 0 C-0.11 17.92, -0.56 89.6, -0.67 107.52" stroke="#E1E1E1" stroke-width="4" fill="none"></path></g></g><mask></mask><g stroke-linecap="round"><g transform="translate(197.01027889348637 266.07617389098243) rotate(0 0.0920278642571759 29.243429687458388)"><path d="M0 0 C0.03 9.75, 0.15 48.74, 0.18 58.49 M0 0 C0.03 9.75, 0.15 48.74, 0.18 58.49" stroke="#E1E1E1" stroke-width="4" fill="none"></path></g></g><mask></mask><g stroke-linecap="round"><g transform="translate(279.5428846088152 267.548619719105) rotate(0 0 27.69660517452501)"><path d="M0 0 C0 9.23, 0 46.16, 0 55.39 M0 0 C0 9.23, 0 46.16, 0 55.39" stroke="#E1E1E1" stroke-width="4" fill="none"></path></g></g><mask></mask><g stroke-linecap="round"><g transform="translate(545.702595910011 267.9835459268962) rotate(0 -0.33407375381197824 53.76192190590835)"><path d="M0 0 C-0.11 17.92, -0.56 89.6, -0.67 107.52 M0 0 C-0.11 17.92, -0.56 89.6, -0.67 107.52" stroke="#E1E1E1" stroke-width="4" fill="none"></path></g></g><mask></mask><g stroke-linecap="round"><g transform="translate(504.9556831903437 266.78592303587186) rotate(0 0.0920278642571759 29.243429687458388)"><path d="M0 0 C0.03 9.75, 0.15 48.74, 0.18 58.49 M0 0 C0.03 9.75, 0.15 48.74, 0.18 58.49" stroke="#E1E1E1" stroke-width="4" fill="none"></path></g></g><mask></mask><g stroke-linecap="round"><g transform="translate(587.4882889056798 268.2583688639962) rotate(0 0 27.69660517452501)"><path d="M0 0 C0 9.23, 0 46.16, 0 55.39 M0 0 C0 9.23, 0 46.16, 0 55.39" stroke="#E1E1E1" stroke-width="4" fill="none"></path></g></g><mask></mask><g stroke-linecap="round"><g transform="translate(211.01470399171825 118.53286344154014) rotate(0 15.43169555677973 18.326326860755017)"><path d="M0 0 C4.23 -0.01, 20.19 -0.04, 25.4 -0.05 C30.62 -0.06, 29.93 -0.34, 31.29 -0.08 C32.65 0.18, 33.1 0.54, 33.54 1.5 C33.98 2.46, 33.84 0.65, 33.93 5.68 C34.01 10.7, 34.57 26.52, 34.05 31.64 C33.53 36.75, 32.42 35.52, 30.81 36.37 C29.21 37.22, 27.52 36.7, 24.42 36.73 C21.32 36.77, 16.05 36.59, 12.2 36.56 C8.36 36.53, 3.64 36.67, 1.35 36.55 C-0.94 36.44, -0.78 36.33, -1.53 35.85 C-2.27 35.37, -2.85 34.86, -3.12 33.67 C-3.4 32.47, -3.2 30.81, -3.19 28.69 C-3.18 26.56, -3.08 23.53, -3.05 20.94 C-3.01 18.35, -2.99 15.33, -2.98 13.14 C-2.97 10.94, -2.97 9.34, -2.98 7.76 C-2.98 6.19, -3.1 4.81, -3.01 3.69 C-2.91 2.58, -2.9 1.69, -2.39 1.08 C-1.89 0.46, -0.4 0.18, 0 0 M0 0 C4.23 -0.01, 20.19 -0.04, 25.4 -0.05 C30.62 -0.06, 29.93 -0.34, 31.29 -0.08 C32.65 0.18, 33.1 0.54, 33.54 1.5 C33.98 2.46, 33.84 0.65, 33.93 5.68 C34.01 10.7, 34.57 26.52, 34.05 31.64 C33.53 36.75, 32.42 35.52, 30.81 36.37 C29.21 37.22, 27.52 36.7, 24.42 36.73 C21.32 36.77, 16.05 36.59, 12.2 36.56 C8.36 36.53, 3.64 36.67, 1.35 36.55 C-0.94 36.44, -0.78 36.33, -1.53 35.85 C-2.27 35.37, -2.85 34.86, -3.12 33.67 C-3.4 32.47, -3.2 30.81, -3.19 28.69 C-3.18 26.56, -3.08 23.53, -3.05 20.94 C-3.01 18.35, -2.99 15.33, -2.98 13.14 C-2.97 10.94, -2.97 9.34, -2.98 7.76 C-2.98 6.19, -3.1 4.81, -3.01 3.69 C-2.91 2.58, -2.9 1.69, -2.39 1.08 C-1.89 0.46, -0.4 0.18, 0 0" stroke="#E1E1E1" stroke-width="4" fill="none"></path></g></g><mask></mask><g stroke-linecap="round" transform="translate(197.07881654092938 115.46382622749127) rotate(0 2.32826996285678 2.32826996285678)"><path d="M4.66 2.33 C4.66 2.46, 4.64 2.6, 4.62 2.73 C4.6 2.87, 4.56 3, 4.52 3.12 C4.47 3.25, 4.41 3.38, 4.34 3.49 C4.28 3.61, 4.2 3.72, 4.11 3.82 C4.03 3.93, 3.93 4.03, 3.82 4.11 C3.72 4.2, 3.61 4.28, 3.49 4.34 C3.38 4.41, 3.25 4.47, 3.12 4.52 C3 4.56, 2.87 4.6, 2.73 4.62 C2.6 4.64, 2.46 4.66, 2.33 4.66 C2.19 4.66, 2.06 4.64, 1.92 4.62 C1.79 4.6, 1.66 4.56, 1.53 4.52 C1.41 4.47, 1.28 4.41, 1.16 4.34 C1.05 4.28, 0.93 4.2, 0.83 4.11 C0.73 4.03, 0.63 3.93, 0.54 3.82 C0.46 3.72, 0.38 3.61, 0.31 3.49 C0.24 3.38, 0.19 3.25, 0.14 3.12 C0.09 3, 0.06 2.87, 0.04 2.73 C0.01 2.6, 0 2.46, 0 2.33 C0 2.19, 0.01 2.06, 0.04 1.92 C0.06 1.79, 0.09 1.66, 0.14 1.53 C0.19 1.41, 0.24 1.28, 0.31 1.16 C0.38 1.05, 0.46 0.93, 0.54 0.83 C0.63 0.73, 0.73 0.63, 0.83 0.54 C0.93 0.46, 1.05 0.38, 1.16 0.31 C1.28 0.24, 1.41 0.19, 1.53 0.14 C1.66 0.09, 1.79 0.06, 1.92 0.04 C2.06 0.01, 2.19 0, 2.33 0 C2.46 0, 2.6 0.01, 2.73 0.04 C2.87 0.06, 3 0.09, 3.12 0.14 C3.25 0.19, 3.38 0.24, 3.49 0.31 C3.61 0.38, 3.72 0.46, 3.82 0.54 C3.93 0.63, 4.03 0.73, 4.11 0.83 C4.2 0.93, 4.28 1.05, 4.34 1.16 C4.41 1.28, 4.47 1.41, 4.52 1.53 C4.56 1.66, 4.6 1.79, 4.62 1.92 C4.64 2.06, 4.65 2.26, 4.66 2.33 C4.66 2.4, 4.66 2.26, 4.66 2.33" stroke="#E1E1E1" stroke-width="4" fill="none"></path></g><g stroke-linecap="round" transform="translate(205.45060126737093 106.7814903804657) rotate(0 2.32826996285678 2.32826996285678)"><path d="M4.66 2.33 C4.66 2.46, 4.64 2.6, 4.62 2.73 C4.6 2.87, 4.56 3, 4.52 3.12 C4.47 3.25, 4.41 3.38, 4.34 3.49 C4.28 3.61, 4.2 3.72, 4.11 3.82 C4.03 3.93, 3.93 4.03, 3.82 4.11 C3.72 4.2, 3.61 4.28, 3.49 4.34 C3.38 4.41, 3.25 4.47, 3.12 4.52 C3 4.56, 2.87 4.6, 2.73 4.62 C2.6 4.64, 2.46 4.66, 2.33 4.66 C2.19 4.66, 2.06 4.64, 1.92 4.62 C1.79 4.6, 1.66 4.56, 1.53 4.52 C1.41 4.47, 1.28 4.41, 1.16 4.34 C1.05 4.28, 0.93 4.2, 0.83 4.11 C0.73 4.03, 0.63 3.93, 0.54 3.82 C0.46 3.72, 0.38 3.61, 0.31 3.49 C0.24 3.38, 0.19 3.25, 0.14 3.12 C0.09 3, 0.06 2.87, 0.04 2.73 C0.01 2.6, 0 2.46, 0 2.33 C0 2.19, 0.01 2.06, 0.04 1.92 C0.06 1.79, 0.09 1.66, 0.14 1.53 C0.19 1.41, 0.24 1.28, 0.31 1.16 C0.38 1.05, 0.46 0.93, 0.54 0.83 C0.63 0.73, 0.73 0.63, 0.83 0.54 C0.93 0.46, 1.05 0.38, 1.16 0.31 C1.28 0.24, 1.41 0.19, 1.53 0.14 C1.66 0.09, 1.79 0.06, 1.92 0.04 C2.06 0.01, 2.19 0, 2.33 0 C2.46 0, 2.6 0.01, 2.73 0.04 C2.87 0.06, 3 0.09, 3.12 0.14 C3.25 0.19, 3.38 0.24, 3.49 0.31 C3.61 0.38, 3.72 0.46, 3.82 0.54 C3.93 0.63, 4.03 0.73, 4.11 0.83 C4.2 0.93, 4.28 1.05, 4.34 1.16 C4.41 1.28, 4.47 1.41, 4.52 1.53 C4.56 1.66, 4.6 1.79, 4.62 1.92 C4.64 2.06, 4.65 2.26, 4.66 2.33 C4.66 2.4, 4.66 2.26, 4.66 2.33" stroke="#E1E1E1" stroke-width="4" fill="none"></path></g><g stroke-linecap="round" transform="translate(224.53380932933663 105.97100664038237) rotate(0 2.32826996285678 2.32826996285678)"><path d="M4.66 2.33 C4.66 2.46, 4.64 2.6, 4.62 2.73 C4.6 2.87, 4.56 3, 4.52 3.12 C4.47 3.25, 4.41 3.38, 4.34 3.49 C4.28 3.61, 4.2 3.72, 4.11 3.82 C4.03 3.93, 3.93 4.03, 3.82 4.11 C3.72 4.2, 3.61 4.28, 3.49 4.34 C3.38 4.41, 3.25 4.47, 3.12 4.52 C3 4.56, 2.87 4.6, 2.73 4.62 C2.6 4.64, 2.46 4.66, 2.33 4.66 C2.19 4.66, 2.06 4.64, 1.92 4.62 C1.79 4.6, 1.66 4.56, 1.53 4.52 C1.41 4.47, 1.28 4.41, 1.16 4.34 C1.05 4.28, 0.93 4.2, 0.83 4.11 C0.73 4.03, 0.63 3.93, 0.54 3.82 C0.46 3.72, 0.38 3.61, 0.31 3.49 C0.24 3.38, 0.19 3.25, 0.14 3.12 C0.09 3, 0.06 2.87, 0.04 2.73 C0.01 2.6, 0 2.46, 0 2.33 C0 2.19, 0.01 2.06, 0.04 1.92 C0.06 1.79, 0.09 1.66, 0.14 1.53 C0.19 1.41, 0.24 1.28, 0.31 1.16 C0.38 1.05, 0.46 0.93, 0.54 0.83 C0.63 0.73, 0.73 0.63, 0.83 0.54 C0.93 0.46, 1.05 0.38, 1.16 0.31 C1.28 0.24, 1.41 0.19, 1.53 0.14 C1.66 0.09, 1.79 0.06, 1.92 0.04 C2.06 0.01, 2.19 0, 2.33 0 C2.46 0, 2.6 0.01, 2.73 0.04 C2.87 0.06, 3 0.09, 3.12 0.14 C3.25 0.19, 3.38 0.24, 3.49 0.31 C3.61 0.38, 3.72 0.46, 3.82 0.54 C3.93 0.63, 4.03 0.73, 4.11 0.83 C4.2 0.93, 4.28 1.05, 4.34 1.16 C4.41 1.28, 4.47 1.41, 4.52 1.53 C4.56 1.66, 4.6 1.79, 4.62 1.92 C4.64 2.06, 4.65 2.26, 4.66 2.33 C4.66 2.4, 4.66 2.26, 4.66 2.33" stroke="#E1E1E1" stroke-width="4" fill="none"></path></g><g stroke-linecap="round" transform="translate(243.46965671128868 106.85517072047344) rotate(0 2.32826996285678 2.32826996285678)"><path d="M4.66 2.33 C4.66 2.46, 4.64 2.6, 4.62 2.73 C4.6 2.87, 4.56 3, 4.52 3.12 C4.47 3.25, 4.41 3.38, 4.34 3.49 C4.28 3.61, 4.2 3.72, 4.11 3.82 C4.03 3.93, 3.93 4.03, 3.82 4.11 C3.72 4.2, 3.61 4.28, 3.49 4.34 C3.38 4.41, 3.25 4.47, 3.12 4.52 C3 4.56, 2.87 4.6, 2.73 4.62 C2.6 4.64, 2.46 4.66, 2.33 4.66 C2.19 4.66, 2.06 4.64, 1.92 4.62 C1.79 4.6, 1.66 4.56, 1.53 4.52 C1.41 4.47, 1.28 4.41, 1.16 4.34 C1.05 4.28, 0.93 4.2, 0.83 4.11 C0.73 4.03, 0.63 3.93, 0.54 3.82 C0.46 3.72, 0.38 3.61, 0.31 3.49 C0.24 3.38, 0.19 3.25, 0.14 3.12 C0.09 3, 0.06 2.87, 0.04 2.73 C0.01 2.6, 0 2.46, 0 2.33 C0 2.19, 0.01 2.06, 0.04 1.92 C0.06 1.79, 0.09 1.66, 0.14 1.53 C0.19 1.41, 0.24 1.28, 0.31 1.16 C0.38 1.05, 0.46 0.93, 0.54 0.83 C0.63 0.73, 0.73 0.63, 0.83 0.54 C0.93 0.46, 1.05 0.38, 1.16 0.31 C1.28 0.24, 1.41 0.19, 1.53 0.14 C1.66 0.09, 1.79 0.06, 1.92 0.04 C2.06 0.01, 2.19 0, 2.33 0 C2.46 0, 2.6 0.01, 2.73 0.04 C2.87 0.06, 3 0.09, 3.12 0.14 C3.25 0.19, 3.38 0.24, 3.49 0.31 C3.61 0.38, 3.72 0.46, 3.82 0.54 C3.93 0.63, 4.03 0.73, 4.11 0.83 C4.2 0.93, 4.28 1.05, 4.34 1.16 C4.41 1.28, 4.47 1.41, 4.52 1.53 C4.56 1.66, 4.6 1.79, 4.62 1.92 C4.64 2.06, 4.65 2.26, 4.66 2.33 C4.66 2.4, 4.66 2.26, 4.66 2.33" stroke="#E1E1E1" stroke-width="4" fill="none"></path></g><g stroke-linecap="round" transform="translate(251.86921547214746 115.40209016135225) rotate(0 2.32826996285678 2.32826996285678)"><path d="M4.66 2.33 C4.66 2.46, 4.64 2.6, 4.62 2.73 C4.6 2.87, 4.56 3, 4.52 3.12 C4.47 3.25, 4.41 3.38, 4.34 3.49 C4.28 3.61, 4.2 3.72, 4.11 3.82 C4.03 3.93, 3.93 4.03, 3.82 4.11 C3.72 4.2, 3.61 4.28, 3.49 4.34 C3.38 4.41, 3.25 4.47, 3.12 4.52 C3 4.56, 2.87 4.6, 2.73 4.62 C2.6 4.64, 2.46 4.66, 2.33 4.66 C2.19 4.66, 2.06 4.64, 1.92 4.62 C1.79 4.6, 1.66 4.56, 1.53 4.52 C1.41 4.47, 1.28 4.41, 1.16 4.34 C1.05 4.28, 0.93 4.2, 0.83 4.11 C0.73 4.03, 0.63 3.93, 0.54 3.82 C0.46 3.72, 0.38 3.61, 0.31 3.49 C0.24 3.38, 0.19 3.25, 0.14 3.12 C0.09 3, 0.06 2.87, 0.04 2.73 C0.01 2.6, 0 2.46, 0 2.33 C0 2.19, 0.01 2.06, 0.04 1.92 C0.06 1.79, 0.09 1.66, 0.14 1.53 C0.19 1.41, 0.24 1.28, 0.31 1.16 C0.38 1.05, 0.46 0.93, 0.54 0.83 C0.63 0.73, 0.73 0.63, 0.83 0.54 C0.93 0.46, 1.05 0.38, 1.16 0.31 C1.28 0.24, 1.41 0.19, 1.53 0.14 C1.66 0.09, 1.79 0.06, 1.92 0.04 C2.06 0.01, 2.19 0, 2.33 0 C2.46 0, 2.6 0.01, 2.73 0.04 C2.87 0.06, 3 0.09, 3.12 0.14 C3.25 0.19, 3.38 0.24, 3.49 0.31 C3.61 0.38, 3.72 0.46, 3.82 0.54 C3.93 0.63, 4.03 0.73, 4.11 0.83 C4.2 0.93, 4.28 1.05, 4.34 1.16 C4.41 1.28, 4.47 1.41, 4.52 1.53 C4.56 1.66, 4.6 1.79, 4.62 1.92 C4.64 2.06, 4.65 2.26, 4.66 2.33 C4.66 2.4, 4.66 2.26, 4.66 2.33" stroke="#E1E1E1" stroke-width="4" fill="none"></path></g><g stroke-linecap="round" transform="translate(252.90074023225765 134.2642572032929) rotate(0 2.32826996285678 2.32826996285678)"><path d="M4.66 2.33 C4.66 2.46, 4.64 2.6, 4.62 2.73 C4.6 2.87, 4.56 3, 4.52 3.12 C4.47 3.25, 4.41 3.38, 4.34 3.49 C4.28 3.61, 4.2 3.72, 4.11 3.82 C4.03 3.93, 3.93 4.03, 3.82 4.11 C3.72 4.2, 3.61 4.28, 3.49 4.34 C3.38 4.41, 3.25 4.47, 3.12 4.52 C3 4.56, 2.87 4.6, 2.73 4.62 C2.6 4.64, 2.46 4.66, 2.33 4.66 C2.19 4.66, 2.06 4.64, 1.92 4.62 C1.79 4.6, 1.66 4.56, 1.53 4.52 C1.41 4.47, 1.28 4.41, 1.16 4.34 C1.05 4.28, 0.93 4.2, 0.83 4.11 C0.73 4.03, 0.63 3.93, 0.54 3.82 C0.46 3.72, 0.38 3.61, 0.31 3.49 C0.24 3.38, 0.19 3.25, 0.14 3.12 C0.09 3, 0.06 2.87, 0.04 2.73 C0.01 2.6, 0 2.46, 0 2.33 C0 2.19, 0.01 2.06, 0.04 1.92 C0.06 1.79, 0.09 1.66, 0.14 1.53 C0.19 1.41, 0.24 1.28, 0.31 1.16 C0.38 1.05, 0.46 0.93, 0.54 0.83 C0.63 0.73, 0.73 0.63, 0.83 0.54 C0.93 0.46, 1.05 0.38, 1.16 0.31 C1.28 0.24, 1.41 0.19, 1.53 0.14 C1.66 0.09, 1.79 0.06, 1.92 0.04 C2.06 0.01, 2.19 0, 2.33 0 C2.46 0, 2.6 0.01, 2.73 0.04 C2.87 0.06, 3 0.09, 3.12 0.14 C3.25 0.19, 3.38 0.24, 3.49 0.31 C3.61 0.38, 3.72 0.46, 3.82 0.54 C3.93 0.63, 4.03 0.73, 4.11 0.83 C4.2 0.93, 4.28 1.05, 4.34 1.16 C4.41 1.28, 4.47 1.41, 4.52 1.53 C4.56 1.66, 4.6 1.79, 4.62 1.92 C4.64 2.06, 4.65 2.26, 4.66 2.33 C4.66 2.4, 4.66 2.26, 4.66 2.33" stroke="#E1E1E1" stroke-width="4" fill="none"></path></g><g stroke-linecap="round" transform="translate(251.9805994236421 153.2671652072023) rotate(0 2.32826996285678 2.32826996285678)"><path d="M4.66 2.33 C4.66 2.46, 4.64 2.6, 4.62 2.73 C4.6 2.87, 4.56 3, 4.52 3.12 C4.47 3.25, 4.41 3.38, 4.34 3.49 C4.28 3.61, 4.2 3.72, 4.11 3.82 C4.03 3.93, 3.93 4.03, 3.82 4.11 C3.72 4.2, 3.61 4.28, 3.49 4.34 C3.38 4.41, 3.25 4.47, 3.12 4.52 C3 4.56, 2.87 4.6, 2.73 4.62 C2.6 4.64, 2.46 4.66, 2.33 4.66 C2.19 4.66, 2.06 4.64, 1.92 4.62 C1.79 4.6, 1.66 4.56, 1.53 4.52 C1.41 4.47, 1.28 4.41, 1.16 4.34 C1.05 4.28, 0.93 4.2, 0.83 4.11 C0.73 4.03, 0.63 3.93, 0.54 3.82 C0.46 3.72, 0.38 3.61, 0.31 3.49 C0.24 3.38, 0.19 3.25, 0.14 3.12 C0.09 3, 0.06 2.87, 0.04 2.73 C0.01 2.6, 0 2.46, 0 2.33 C0 2.19, 0.01 2.06, 0.04 1.92 C0.06 1.79, 0.09 1.66, 0.14 1.53 C0.19 1.41, 0.24 1.28, 0.31 1.16 C0.38 1.05, 0.46 0.93, 0.54 0.83 C0.63 0.73, 0.73 0.63, 0.83 0.54 C0.93 0.46, 1.05 0.38, 1.16 0.31 C1.28 0.24, 1.41 0.19, 1.53 0.14 C1.66 0.09, 1.79 0.06, 1.92 0.04 C2.06 0.01, 2.19 0, 2.33 0 C2.46 0, 2.6 0.01, 2.73 0.04 C2.87 0.06, 3 0.09, 3.12 0.14 C3.25 0.19, 3.38 0.24, 3.49 0.31 C3.61 0.38, 3.72 0.46, 3.82 0.54 C3.93 0.63, 4.03 0.73, 4.11 0.83 C4.2 0.93, 4.28 1.05, 4.34 1.16 C4.41 1.28, 4.47 1.41, 4.52 1.53 C4.56 1.66, 4.6 1.79, 4.62 1.92 C4.64 2.06, 4.65 2.26, 4.66 2.33 C4.66 2.4, 4.66 2.26, 4.66 2.33" stroke="#E1E1E1" stroke-width="4" fill="none"></path></g><g stroke-linecap="round" transform="translate(243.45382695073653 161.88690154660446) rotate(0 2.32826996285678 2.32826996285678)"><path d="M4.66 2.33 C4.66 2.46, 4.64 2.6, 4.62 2.73 C4.6 2.87, 4.56 3, 4.52 3.12 C4.47 3.25, 4.41 3.38, 4.34 3.49 C4.28 3.61, 4.2 3.72, 4.11 3.82 C4.03 3.93, 3.93 4.03, 3.82 4.11 C3.72 4.2, 3.61 4.28, 3.49 4.34 C3.38 4.41, 3.25 4.47, 3.12 4.52 C3 4.56, 2.87 4.6, 2.73 4.62 C2.6 4.64, 2.46 4.66, 2.33 4.66 C2.19 4.66, 2.06 4.64, 1.92 4.62 C1.79 4.6, 1.66 4.56, 1.53 4.52 C1.41 4.47, 1.28 4.41, 1.16 4.34 C1.05 4.28, 0.93 4.2, 0.83 4.11 C0.73 4.03, 0.63 3.93, 0.54 3.82 C0.46 3.72, 0.38 3.61, 0.31 3.49 C0.24 3.38, 0.19 3.25, 0.14 3.12 C0.09 3, 0.06 2.87, 0.04 2.73 C0.01 2.6, 0 2.46, 0 2.33 C0 2.19, 0.01 2.06, 0.04 1.92 C0.06 1.79, 0.09 1.66, 0.14 1.53 C0.19 1.41, 0.24 1.28, 0.31 1.16 C0.38 1.05, 0.46 0.93, 0.54 0.83 C0.63 0.73, 0.73 0.63, 0.83 0.54 C0.93 0.46, 1.05 0.38, 1.16 0.31 C1.28 0.24, 1.41 0.19, 1.53 0.14 C1.66 0.09, 1.79 0.06, 1.92 0.04 C2.06 0.01, 2.19 0, 2.33 0 C2.46 0, 2.6 0.01, 2.73 0.04 C2.87 0.06, 3 0.09, 3.12 0.14 C3.25 0.19, 3.38 0.24, 3.49 0.31 C3.61 0.38, 3.72 0.46, 3.82 0.54 C3.93 0.63, 4.03 0.73, 4.11 0.83 C4.2 0.93, 4.28 1.05, 4.34 1.16 C4.41 1.28, 4.47 1.41, 4.52 1.53 C4.56 1.66, 4.6 1.79, 4.62 1.92 C4.64 2.06, 4.65 2.26, 4.66 2.33 C4.66 2.4, 4.66 2.26, 4.66 2.33" stroke="#E1E1E1" stroke-width="4" fill="none"></path></g><g stroke-linecap="round" transform="translate(224.53380932933663 162.7785487862276) rotate(0 2.32826996285678 2.32826996285678)"><path d="M4.66 2.33 C4.66 2.46, 4.64 2.6, 4.62 2.73 C4.6 2.87, 4.56 3, 4.52 3.12 C4.47 3.25, 4.41 3.38, 4.34 3.49 C4.28 3.61, 4.2 3.72, 4.11 3.82 C4.03 3.93, 3.93 4.03, 3.82 4.11 C3.72 4.2, 3.61 4.28, 3.49 4.34 C3.38 4.41, 3.25 4.47, 3.12 4.52 C3 4.56, 2.87 4.6, 2.73 4.62 C2.6 4.64, 2.46 4.66, 2.33 4.66 C2.19 4.66, 2.06 4.64, 1.92 4.62 C1.79 4.6, 1.66 4.56, 1.53 4.52 C1.41 4.47, 1.28 4.41, 1.16 4.34 C1.05 4.28, 0.93 4.2, 0.83 4.11 C0.73 4.03, 0.63 3.93, 0.54 3.82 C0.46 3.72, 0.38 3.61, 0.31 3.49 C0.24 3.38, 0.19 3.25, 0.14 3.12 C0.09 3, 0.06 2.87, 0.04 2.73 C0.01 2.6, 0 2.46, 0 2.33 C0 2.19, 0.01 2.06, 0.04 1.92 C0.06 1.79, 0.09 1.66, 0.14 1.53 C0.19 1.41, 0.24 1.28, 0.31 1.16 C0.38 1.05, 0.46 0.93, 0.54 0.83 C0.63 0.73, 0.73 0.63, 0.83 0.54 C0.93 0.46, 1.05 0.38, 1.16 0.31 C1.28 0.24, 1.41 0.19, 1.53 0.14 C1.66 0.09, 1.79 0.06, 1.92 0.04 C2.06 0.01, 2.19 0, 2.33 0 C2.46 0, 2.6 0.01, 2.73 0.04 C2.87 0.06, 3 0.09, 3.12 0.14 C3.25 0.19, 3.38 0.24, 3.49 0.31 C3.61 0.38, 3.72 0.46, 3.82 0.54 C3.93 0.63, 4.03 0.73, 4.11 0.83 C4.2 0.93, 4.28 1.05, 4.34 1.16 C4.41 1.28, 4.47 1.41, 4.52 1.53 C4.56 1.66, 4.6 1.79, 4.62 1.92 C4.64 2.06, 4.65 2.26, 4.66 2.33 C4.66 2.4, 4.66 2.26, 4.66 2.33" stroke="#E1E1E1" stroke-width="4" fill="none"></path></g><g stroke-linecap="round" transform="translate(205.45060126737093 161.59966334610556) rotate(0 2.32826996285678 2.32826996285678)"><path d="M4.66 2.33 C4.66 2.46, 4.64 2.6, 4.62 2.73 C4.6 2.87, 4.56 3, 4.52 3.12 C4.47 3.25, 4.41 3.38, 4.34 3.49 C4.28 3.61, 4.2 3.72, 4.11 3.82 C4.03 3.93, 3.93 4.03, 3.82 4.11 C3.72 4.2, 3.61 4.28, 3.49 4.34 C3.38 4.41, 3.25 4.47, 3.12 4.52 C3 4.56, 2.87 4.6, 2.73 4.62 C2.6 4.64, 2.46 4.66, 2.33 4.66 C2.19 4.66, 2.06 4.64, 1.92 4.62 C1.79 4.6, 1.66 4.56, 1.53 4.52 C1.41 4.47, 1.28 4.41, 1.16 4.34 C1.05 4.28, 0.93 4.2, 0.83 4.11 C0.73 4.03, 0.63 3.93, 0.54 3.82 C0.46 3.72, 0.38 3.61, 0.31 3.49 C0.24 3.38, 0.19 3.25, 0.14 3.12 C0.09 3, 0.06 2.87, 0.04 2.73 C0.01 2.6, 0 2.46, 0 2.33 C0 2.19, 0.01 2.06, 0.04 1.92 C0.06 1.79, 0.09 1.66, 0.14 1.53 C0.19 1.41, 0.24 1.28, 0.31 1.16 C0.38 1.05, 0.46 0.93, 0.54 0.83 C0.63 0.73, 0.73 0.63, 0.83 0.54 C0.93 0.46, 1.05 0.38, 1.16 0.31 C1.28 0.24, 1.41 0.19, 1.53 0.14 C1.66 0.09, 1.79 0.06, 1.92 0.04 C2.06 0.01, 2.19 0, 2.33 0 C2.46 0, 2.6 0.01, 2.73 0.04 C2.87 0.06, 3 0.09, 3.12 0.14 C3.25 0.19, 3.38 0.24, 3.49 0.31 C3.61 0.38, 3.72 0.46, 3.82 0.54 C3.93 0.63, 4.03 0.73, 4.11 0.83 C4.2 0.93, 4.28 1.05, 4.34 1.16 C4.41 1.28, 4.47 1.41, 4.52 1.53 C4.56 1.66, 4.6 1.79, 4.62 1.92 C4.64 2.06, 4.65 2.26, 4.66 2.33 C4.66 2.4, 4.66 2.26, 4.66 2.33" stroke="#E1E1E1" stroke-width="4" fill="none"></path></g><g stroke-linecap="round" transform="translate(197.05104250651215 153.27378492524906) rotate(0 2.32826996285678 2.32826996285678)"><path d="M4.66 2.33 C4.66 2.46, 4.64 2.6, 4.62 2.73 C4.6 2.87, 4.56 3, 4.52 3.12 C4.47 3.25, 4.41 3.38, 4.34 3.49 C4.28 3.61, 4.2 3.72, 4.11 3.82 C4.03 3.93, 3.93 4.03, 3.82 4.11 C3.72 4.2, 3.61 4.28, 3.49 4.34 C3.38 4.41, 3.25 4.47, 3.12 4.52 C3 4.56, 2.87 4.6, 2.73 4.62 C2.6 4.64, 2.46 4.66, 2.33 4.66 C2.19 4.66, 2.06 4.64, 1.92 4.62 C1.79 4.6, 1.66 4.56, 1.53 4.52 C1.41 4.47, 1.28 4.41, 1.16 4.34 C1.05 4.28, 0.93 4.2, 0.83 4.11 C0.73 4.03, 0.63 3.93, 0.54 3.82 C0.46 3.72, 0.38 3.61, 0.31 3.49 C0.24 3.38, 0.19 3.25, 0.14 3.12 C0.09 3, 0.06 2.87, 0.04 2.73 C0.01 2.6, 0 2.46, 0 2.33 C0 2.19, 0.01 2.06, 0.04 1.92 C0.06 1.79, 0.09 1.66, 0.14 1.53 C0.19 1.41, 0.24 1.28, 0.31 1.16 C0.38 1.05, 0.46 0.93, 0.54 0.83 C0.63 0.73, 0.73 0.63, 0.83 0.54 C0.93 0.46, 1.05 0.38, 1.16 0.31 C1.28 0.24, 1.41 0.19, 1.53 0.14 C1.66 0.09, 1.79 0.06, 1.92 0.04 C2.06 0.01, 2.19 0, 2.33 0 C2.46 0, 2.6 0.01, 2.73 0.04 C2.87 0.06, 3 0.09, 3.12 0.14 C3.25 0.19, 3.38 0.24, 3.49 0.31 C3.61 0.38, 3.72 0.46, 3.82 0.54 C3.93 0.63, 4.03 0.73, 4.11 0.83 C4.2 0.93, 4.28 1.05, 4.34 1.16 C4.41 1.28, 4.47 1.41, 4.52 1.53 C4.56 1.66, 4.6 1.79, 4.62 1.92 C4.64 2.06, 4.65 2.26, 4.66 2.33 C4.66 2.4, 4.66 2.26, 4.66 2.33" stroke="#E1E1E1" stroke-width="4" fill="none"></path></g><g stroke-linecap="round"><g transform="translate(207.85197594258074 143.07610927298913) rotate(0 -3.4482974751204836 -0.0964176324318089)"><path d="M0 0 C-1.15 -0.03, -5.75 -0.16, -6.9 -0.19 M0 0 C-1.15 -0.03, -5.75 -0.16, -6.9 -0.19" stroke="#E1E1E1" stroke-width="4" fill="none"></path></g></g><mask></mask><g stroke-linecap="round"><g transform="translate(207.66201881599858 149.2652578336257) rotate(0 -4.1422166148012565 1.851506356518641)"><path d="M0 0 C-1.13 0.01, -5.39 -0.15, -6.77 0.06 C-8.15 0.26, -8.04 0.62, -8.28 1.22 C-8.53 1.83, -8.26 3.29, -8.25 3.7 M0 0 C-1.13 0.01, -5.39 -0.15, -6.77 0.06 C-8.15 0.26, -8.04 0.62, -8.28 1.22 C-8.53 1.83, -8.26 3.29, -8.25 3.7" stroke="#E1E1E1" stroke-width="4" fill="none"></path></g></g><mask></mask><g stroke-linecap="round"><g transform="translate(214.23827697550308 155.26243457088378) rotate(0 -1.9662001670383091 4.670211082550878)"><path d="M0 0 C0 1.21, 0.14 5.72, 0 7.24 C-0.14 8.75, -0.18 8.73, -0.83 9.08 C-1.49 9.43, -3.42 9.3, -3.93 9.34 M0 0 C0 1.21, 0.14 5.72, 0 7.24 C-0.14 8.75, -0.18 8.73, -0.83 9.08 C-1.49 9.43, -3.42 9.3, -3.93 9.34" stroke="#E1E1E1" stroke-width="4" fill="none"></path></g></g><mask></mask><g stroke-linecap="round"><g transform="translate(220.56701524279646 155.26358582619662) rotate(0 -0.04504286410619329 3.66473347389271)"><path d="M0 0 C-0.02 1.22, -0.08 6.11, -0.09 7.33 M0 0 C-0.02 1.22, -0.08 6.11, -0.09 7.33" stroke="#E1E1E1" stroke-width="4" fill="none"></path></g></g><mask></mask><g stroke-linecap="round"><g transform="translate(226.75357347898256 155.5254964098168) rotate(0 -0.014534598321858994 3.4860010866087094)"><path d="M0 0 C0 1.16, -0.02 5.81, -0.03 6.97 M0 0 C0 1.16, -0.02 5.81, -0.03 6.97" stroke="#E1E1E1" stroke-width="4" fill="none"></path></g></g><mask></mask><g stroke-linecap="round"><g transform="translate(233.1908175594844 155.36575973519132) rotate(0 0.05454072043534097 3.7628779892934574)"><path d="M0 0 C0.02 1.25, 0.09 6.27, 0.11 7.53 M0 0 C0.02 1.25, 0.09 6.27, 0.11 7.53" stroke="#E1E1E1" stroke-width="4" fill="none"></path></g></g><mask></mask><g stroke-linecap="round"><g transform="translate(239.5523666031849 155.71343883960265) rotate(0 1.7022748866205006 4.3625381002535875)"><path d="M0 0 C0 1.2, -0.15 5.75, 0 7.21 C0.15 8.66, 0.3 8.46, 0.87 8.71 C1.44 8.96, 2.98 8.72, 3.4 8.73 M0 0 C0 1.2, -0.15 5.75, 0 7.21 C0.15 8.66, 0.3 8.46, 0.87 8.71 C1.44 8.96, 2.98 8.72, 3.4 8.73" stroke="#E1E1E1" stroke-width="4" fill="none"></path></g></g><mask></mask><g stroke-linecap="round"><g transform="translate(245.3567080755792 149.15847890338148) rotate(0 4.5483219263273895 1.9366992496524063)"><path d="M0 0 C1.12 0, 5.26 -0.12, 6.71 0.03 C8.16 0.17, 8.3 0.2, 8.69 0.85 C9.09 1.49, 9.03 3.37, 9.1 3.87 M0 0 C1.12 0, 5.26 -0.12, 6.71 0.03 C8.16 0.17, 8.3 0.2, 8.69 0.85 C9.09 1.49, 9.03 3.37, 9.1 3.87" stroke="#E1E1E1" stroke-width="4" fill="none"></path></g></g><mask></mask><g stroke-linecap="round"><g transform="translate(245.2326603156443 143.0320737572821) rotate(0 3.8354070739884065 0.008346601016484101)"><path d="M0 0 C1.28 0, 6.39 0.01, 7.67 0.02 M0 0 C1.28 0, 6.39 0.01, 7.67 0.02" stroke="#E1E1E1" stroke-width="4" fill="none"></path></g></g><mask></mask><g stroke-linecap="round"><g transform="translate(245.27986178346777 136.75255165460396) rotate(0 3.852963717505858 -0.043315981137254767)"><path d="M0 0 C1.28 -0.01, 6.42 -0.07, 7.71 -0.09 M0 0 C1.28 -0.01, 6.42 -0.07, 7.71 -0.09" stroke="#E1E1E1" stroke-width="4" fill="none"></path></g></g><mask></mask><g stroke-linecap="round"><g transform="translate(245.1877613584556 130.3058097177692) rotate(0 3.828067821370496 -0.004892835078635471)"><path d="M0 0 C1.28 0, 6.38 -0.01, 7.66 -0.01 M0 0 C1.28 0, 6.38 -0.01, 7.66 -0.01" stroke="#E1E1E1" stroke-width="4" fill="none"></path></g></g><mask></mask><g stroke-linecap="round"><g transform="translate(245.22229901783152 123.94483630172374) rotate(0 4.733961845487116 -1.729905014123318)"><path d="M0 0 C1.25 0.02, 5.91 0.24, 7.48 0.09 C9.06 -0.06, 9.12 -0.28, 9.45 -0.88 C9.78 -1.49, 9.46 -3.11, 9.47 -3.55 M0 0 C1.25 0.02, 5.91 0.24, 7.48 0.09 C9.06 -0.06, 9.12 -0.28, 9.45 -0.88 C9.78 -1.49, 9.46 -3.11, 9.47 -3.55" stroke="#E1E1E1" stroke-width="4" fill="none"></path></g></g><mask></mask><g stroke-linecap="round"><g transform="translate(239.56503041162517 118.25734724355982) rotate(0 1.7330709662330293 -4.466726706045563)"><path d="M0 0 C0.01 -1.14, -0.03 -5.36, 0.07 -6.84 C0.17 -8.32, 0.03 -8.53, 0.6 -8.88 C1.16 -9.22, 2.99 -8.92, 3.47 -8.93 M0 0 C0.01 -1.14, -0.03 -5.36, 0.07 -6.84 C0.17 -8.32, 0.03 -8.53, 0.6 -8.88 C1.16 -9.22, 2.99 -8.92, 3.47 -8.93" stroke="#E1E1E1" stroke-width="4" fill="none"></path></g></g><mask></mask><g stroke-linecap="round"><g transform="translate(233.07972142182274 118.28267486043853) rotate(0 0.06720452887410033 -3.7789955636701222)"><path d="M0 0 C0.02 -1.26, 0.11 -6.3, 0.13 -7.56 M0 0 C0.02 -1.26, 0.11 -6.3, 0.13 -7.56" stroke="#E1E1E1" stroke-width="4" fill="none"></path></g></g><mask></mask><g stroke-linecap="round"><g transform="translate(226.94554530235922 118.33966199841245) rotate(0 0.014102877579574624 -3.7346722341342797)"><path d="M0 0 C0 -1.24, 0.02 -6.22, 0.03 -7.47 M0 0 C0 -1.24, 0.02 -6.22, 0.03 -7.47" stroke="#E1E1E1" stroke-width="4" fill="none"></path></g></g><mask></mask><g stroke-linecap="round"><g transform="translate(220.6835798431975 118.34167669520969) rotate(0 -0.06533373899105754 -3.911246017707157)"><path d="M0 0 C-0.02 -1.3, -0.11 -6.52, -0.13 -7.82 M0 0 C-0.02 -1.3, -0.11 -6.52, -0.13 -7.82" stroke="#E1E1E1" stroke-width="4" fill="none"></path></g></g><mask></mask><g stroke-linecap="round"><g transform="translate(214.3516756237995 118.24410780746541) rotate(0 -1.9749784887969781 -4.588040234612748)"><path d="M0 0 C-0.02 -1.4, 0.53 -6.88, -0.13 -8.41 C-0.78 -9.94, -3.31 -9.05, -3.95 -9.18 M0 0 C-0.02 -1.4, 0.53 -6.88, -0.13 -8.41 C-0.78 -9.94, -3.31 -9.05, -3.95 -9.18" stroke="#E1E1E1" stroke-width="4" fill="none"></path></g></g><mask></mask><g stroke-linecap="round"><g transform="translate(207.7869300174179 124.19696121518803) rotate(0 -4.15142665730221 -1.8315032954619141)"><path d="M0 0 C-1.14 -0.01, -5.43 0.19, -6.81 -0.03 C-8.19 -0.25, -8.03 -0.73, -8.28 -1.34 C-8.53 -1.94, -8.3 -3.28, -8.3 -3.66 M0 0 C-1.14 -0.01, -5.43 0.19, -6.81 -0.03 C-8.19 -0.25, -8.03 -0.73, -8.28 -1.34 C-8.53 -1.94, -8.3 -3.28, -8.3 -3.66" stroke="#E1E1E1" stroke-width="4" fill="none"></path></g></g><mask></mask><g stroke-linecap="round"><g transform="translate(207.90263117633452 130.35329899941473) rotate(0 -3.5427004107552023 0.0027342313674694196)"><path d="M0 0 C-1.18 0, -5.9 0, -7.09 0.01 M0 0 C-1.18 0, -5.9 0, -7.09 0.01" stroke="#E1E1E1" stroke-width="4" fill="none"></path></g></g><mask></mask><g stroke-linecap="round"><g transform="translate(207.75901207609144 136.88437038789846) rotate(0 -3.497945360477118 -0.13239436095111046)"><path d="M0 0 C-1.17 -0.04, -5.83 -0.22, -7 -0.26 M0 0 C-1.17 -0.04, -5.83 -0.22, -7 -0.26" stroke="#E1E1E1" stroke-width="4" fill="none"></path></g></g><mask></mask><g stroke-linecap="round" transform="translate(196.0931980864088 134.26425720329382) rotate(0 2.32826996285678 2.32826996285678)"><path d="M4.66 2.33 C4.66 2.46, 4.64 2.6, 4.62 2.73 C4.6 2.87, 4.56 3, 4.52 3.12 C4.47 3.25, 4.41 3.38, 4.34 3.49 C4.28 3.61, 4.2 3.72, 4.11 3.82 C4.03 3.93, 3.93 4.03, 3.82 4.11 C3.72 4.2, 3.61 4.28, 3.49 4.34 C3.38 4.41, 3.25 4.47, 3.12 4.52 C3 4.56, 2.87 4.6, 2.73 4.62 C2.6 4.64, 2.46 4.66, 2.33 4.66 C2.19 4.66, 2.06 4.64, 1.92 4.62 C1.79 4.6, 1.66 4.56, 1.53 4.52 C1.41 4.47, 1.28 4.41, 1.16 4.34 C1.05 4.28, 0.93 4.2, 0.83 4.11 C0.73 4.03, 0.63 3.93, 0.54 3.82 C0.46 3.72, 0.38 3.61, 0.31 3.49 C0.24 3.38, 0.19 3.25, 0.14 3.12 C0.09 3, 0.06 2.87, 0.04 2.73 C0.01 2.6, 0 2.46, 0 2.33 C0 2.19, 0.01 2.06, 0.04 1.92 C0.06 1.79, 0.09 1.66, 0.14 1.53 C0.19 1.41, 0.24 1.28, 0.31 1.16 C0.38 1.05, 0.46 0.93, 0.54 0.83 C0.63 0.73, 0.73 0.63, 0.83 0.54 C0.93 0.46, 1.05 0.38, 1.16 0.31 C1.28 0.24, 1.41 0.19, 1.53 0.14 C1.66 0.09, 1.79 0.06, 1.92 0.04 C2.06 0.01, 2.19 0, 2.33 0 C2.46 0, 2.6 0.01, 2.73 0.04 C2.87 0.06, 3 0.09, 3.12 0.14 C3.25 0.19, 3.38 0.24, 3.49 0.31 C3.61 0.38, 3.72 0.46, 3.82 0.54 C3.93 0.63, 4.03 0.73, 4.11 0.83 C4.2 0.93, 4.28 1.05, 4.34 1.16 C4.41 1.28, 4.47 1.41, 4.52 1.53 C4.56 1.66, 4.6 1.79, 4.62 1.92 C4.64 2.06, 4.65 2.26, 4.66 2.33 C4.66 2.4, 4.66 2.26, 4.66 2.33" stroke="#E1E1E1" stroke-width="4" fill="none"></path></g><g transform="translate(212.88077891795996 120.5112665609505) rotate(0 13.430671691894531 16.350017548154682)"><text x="0" y="24.027972459949467" font-family="Helvetica, Segoe UI Emoji" font-size="28.434813127225535px" fill="#E1E1E1" text-anchor="start" style="white-space: pre;" direction="ltr" dominant-baseline="alphabetic">AI</text></g><g stroke-linecap="round"><g transform="translate(406.508389215528 145.0637430583339) rotate(358.9806439658696 10.392972712002974 15.304618894627552)"><path d="M0 0 C3.83 -0.04, 19.3 -0.87, 22.96 -0.24 C26.61 0.38, 25.13 3, 21.94 3.75 C18.75 4.49, 6.96 2.83, 3.8 4.22 C0.65 5.61, 0.6 10.73, 2.99 12.1 C5.38 13.46, 15.84 11.63, 18.14 12.4 C20.43 13.17, 19.19 15.87, 16.75 16.71 C14.31 17.54, 5.76 15.97, 3.5 17.41 C1.23 18.86, 2.34 23.91, 3.14 25.36 C3.94 26.81, 4.93 26.02, 8.3 26.12 C11.67 26.22, 21.16 25.19, 23.35 25.95 C25.54 26.72, 22.76 29.85, 21.44 30.71 C20.12 31.57, 19.34 31.06, 15.43 31.11 C11.52 31.16, 1.09 32.14, -2.02 31.01 C-5.13 29.87, -3.01 28.31, -3.23 24.29 C-3.45 20.27, -3.38 10.92, -3.37 6.91 C-3.36 2.9, -4.45 1.46, -3.17 0.23 C-1.89 -0.99, 0.37 -0.32, 4.31 -0.44 C8.26 -0.56, 17.2 -0.55, 20.5 -0.5 C23.81 -0.45, 23.55 -0.21, 24.15 -0.15 M0 0 C3.83 -0.04, 19.3 -0.87, 22.96 -0.24 C26.61 0.38, 25.13 3, 21.94 3.75 C18.75 4.49, 6.96 2.83, 3.8 4.22 C0.65 5.61, 0.6 10.73, 2.99 12.1 C5.38 13.46, 15.84 11.63, 18.14 12.4 C20.43 13.17, 19.19 15.87, 16.75 16.71 C14.31 17.54, 5.76 15.97, 3.5 17.41 C1.23 18.86, 2.34 23.91, 3.14 25.36 C3.94 26.81, 4.93 26.02, 8.3 26.12 C11.67 26.22, 21.16 25.19, 23.35 25.95 C25.54 26.72, 22.76 29.85, 21.44 30.71 C20.12 31.57, 19.34 31.06, 15.43 31.11 C11.52 31.16, 1.09 32.14, -2.02 31.01 C-5.13 29.87, -3.01 28.31, -3.23 24.29 C-3.45 20.27, -3.38 10.92, -3.37 6.91 C-3.36 2.9, -4.45 1.46, -3.17 0.23 C-1.89 -0.99, 0.37 -0.32, 4.31 -0.44 C8.26 -0.56, 17.2 -0.55, 20.5 -0.5 C23.81 -0.45, 23.55 -0.21, 24.15 -0.15" stroke="#E1E1E1" stroke-width="4" fill="none"></path></g></g><mask></mask><g stroke-linecap="round"><g transform="translate(438.90928582509235 146.11580002170297) rotate(88.9806439658696 15.699732218095214 14.164546456884466)"><path d="M0 0 C0.05 2.49, 0.29 10.5, 0.32 14.93 C0.34 19.35, 0.19 23.99, 0.17 26.57 C0.15 29.15, -0.84 29.74, 0.21 30.42 C1.26 31.09, 5.33 31.47, 6.47 30.6 C7.61 29.73, 6.96 26.9, 7.07 25.21 C7.17 23.52, 6.81 21.59, 7.09 20.46 C7.37 19.33, 7.52 18.8, 8.74 18.44 C9.96 18.07, 13 18.34, 14.4 18.28 C15.8 18.23, 16.32 17.6, 17.13 18.11 C17.94 18.61, 18.26 19.65, 19.26 21.31 C20.26 22.98, 22.16 26.5, 23.12 28.08 C24.08 29.66, 23.65 30.34, 25.04 30.8 C26.42 31.25, 30.7 31.45, 31.4 30.82 C32.1 30.2, 30.26 28.82, 29.23 27.04 C28.2 25.25, 26.17 21.7, 25.21 20.11 C24.24 18.52, 23.16 18.06, 23.45 17.49 C23.73 16.93, 25.89 17.31, 26.91 16.72 C27.93 16.13, 28.93 15.14, 29.56 13.95 C30.19 12.75, 30.57 11, 30.69 9.56 C30.81 8.11, 30.64 6.71, 30.3 5.29 C29.96 3.86, 29.51 2.12, 28.63 1.02 C27.75 -0.08, 26.45 -0.76, 25.03 -1.3 C23.6 -1.85, 22.28 -2.04, 20.08 -2.23 C17.88 -2.43, 14.41 -2.43, 11.83 -2.47 C9.24 -2.52, 6.46 -2.51, 4.56 -2.49 C2.66 -2.47, 1.18 -2.77, 0.42 -2.36 C-0.34 -1.94, 0.07 -0.39, 0 0 M0 0 C0.05 2.49, 0.29 10.5, 0.32 14.93 C0.34 19.35, 0.19 23.99, 0.17 26.57 C0.15 29.15, -0.84 29.74, 0.21 30.42 C1.26 31.09, 5.33 31.47, 6.47 30.6 C7.61 29.73, 6.96 26.9, 7.07 25.21 C7.17 23.52, 6.81 21.59, 7.09 20.46 C7.37 19.33, 7.52 18.8, 8.74 18.44 C9.96 18.07, 13 18.34, 14.4 18.28 C15.8 18.23, 16.32 17.6, 17.13 18.11 C17.94 18.61, 18.26 19.65, 19.26 21.31 C20.26 22.98, 22.16 26.5, 23.12 28.08 C24.08 29.66, 23.65 30.34, 25.04 30.8 C26.42 31.25, 30.7 31.45, 31.4 30.82 C32.1 30.2, 30.26 28.82, 29.23 27.04 C28.2 25.25, 26.17 21.7, 25.21 20.11 C24.24 18.52, 23.16 18.06, 23.45 17.49 C23.73 16.93, 25.89 17.31, 26.91 16.72 C27.93 16.13, 28.93 15.14, 29.56 13.95 C30.19 12.75, 30.57 11, 30.69 9.56 C30.81 8.11, 30.64 6.71, 30.3 5.29 C29.96 3.86, 29.51 2.12, 28.63 1.02 C27.75 -0.08, 26.45 -0.76, 25.03 -1.3 C23.6 -1.85, 22.28 -2.04, 20.08 -2.23 C17.88 -2.43, 14.41 -2.43, 11.83 -2.47 C9.24 -2.52, 6.46 -2.51, 4.56 -2.49 C2.66 -2.47, 1.18 -2.77, 0.42 -2.36 C-0.34 -1.94, 0.07 -0.39, 0 0" stroke="#E1E1E1" stroke-width="4" fill="none"></path></g></g><mask></mask><g stroke-linecap="round"><g transform="translate(452.3038812742133 154.62453208210002) rotate(88.9806439658696 8.516796096909374 5.158232333334212)"><path d="M0 0 C0 1.1, -0.01 4.93, 0 6.6 C0.02 8.28, -0.54 9.44, 0.08 10.06 C0.71 10.68, 1.6 10.27, 3.75 10.32 C5.89 10.36, 10.88 10.53, 12.96 10.32 C15.04 10.11, 15.55 9.73, 16.23 9.06 C16.91 8.38, 16.9 7.3, 17.03 6.27 C17.17 5.23, 17.34 3.74, 17.03 2.84 C16.73 1.94, 16.45 1.3, 15.21 0.88 C13.97 0.46, 12.13 0.48, 9.59 0.34 C7.06 0.19, 1.6 0.06, 0 0 M0 0 C0 1.1, -0.01 4.93, 0 6.6 C0.02 8.28, -0.54 9.44, 0.08 10.06 C0.71 10.68, 1.6 10.27, 3.75 10.32 C5.89 10.36, 10.88 10.53, 12.96 10.32 C15.04 10.11, 15.55 9.73, 16.23 9.06 C16.91 8.38, 16.9 7.3, 17.03 6.27 C17.17 5.23, 17.34 3.74, 17.03 2.84 C16.73 1.94, 16.45 1.3, 15.21 0.88 C13.97 0.46, 12.13 0.48, 9.59 0.34 C7.06 0.19, 1.6 0.06, 0 0" stroke="#E1E1E1" stroke-width="4" fill="none"></path></g></g><mask></mask><g stroke-linecap="round"><g transform="translate(369.0066091402668 148.6297509332436) rotate(358.9806439658696 -0.027872026274707196 14.33345637025549)"><path d="M0 0 C-0.01 2.88, -0.05 12.5, -0.06 17.28 C-0.06 22.05, -0.03 26.77, -0.03 28.67 M0 0 C-0.01 2.88, -0.05 12.5, -0.06 17.28 C-0.06 22.05, -0.03 26.77, -0.03 28.67" stroke="#E1E1E1" stroke-width="4" fill="none"></path></g></g><mask></mask><g stroke-linecap="round"><g transform="translate(369.2225706910876 148.18136388342384) rotate(358.9806439658696 14.430035523912304 14.60066462200163)"><path d="M0 0 C0.27 -0.15, 0.33 -0.73, 1.61 -0.92 C2.89 -1.12, 5.18 -1.15, 7.68 -1.17 C10.17 -1.19, 14.16 -1.13, 16.57 -1.04 C18.97 -0.95, 20.5 -1.05, 22.13 -0.65 C23.75 -0.24, 25.37 0.32, 26.34 1.39 C27.3 2.47, 27.73 4.33, 27.94 5.8 C28.16 7.27, 28.21 8.95, 27.62 10.23 C27.04 11.5, 24.6 12.61, 24.44 13.43 C24.27 14.25, 25.83 14.23, 26.62 15.17 C27.4 16.11, 28.75 17.57, 29.16 19.08 C29.56 20.59, 29.37 22.77, 29.06 24.23 C28.75 25.69, 28.44 26.92, 27.31 27.83 C26.19 28.75, 24.68 29.32, 22.32 29.73 C19.96 30.14, 16.06 30.2, 13.16 30.31 C10.27 30.42, 7.02 30.4, 4.97 30.37 C2.91 30.35, 1.73 30.63, 0.85 30.18 C-0.02 29.73, -0.1 28.08, -0.3 27.67 M0 0 C0.27 -0.15, 0.33 -0.73, 1.61 -0.92 C2.89 -1.12, 5.18 -1.15, 7.68 -1.17 C10.17 -1.19, 14.16 -1.13, 16.57 -1.04 C18.97 -0.95, 20.5 -1.05, 22.13 -0.65 C23.75 -0.24, 25.37 0.32, 26.34 1.39 C27.3 2.47, 27.73 4.33, 27.94 5.8 C28.16 7.27, 28.21 8.95, 27.62 10.23 C27.04 11.5, 24.6 12.61, 24.44 13.43 C24.27 14.25, 25.83 14.23, 26.62 15.17 C27.4 16.11, 28.75 17.57, 29.16 19.08 C29.56 20.59, 29.37 22.77, 29.06 24.23 C28.75 25.69, 28.44 26.92, 27.31 27.83 C26.19 28.75, 24.68 29.32, 22.32 29.73 C19.96 30.14, 16.06 30.2, 13.16 30.31 C10.27 30.42, 7.02 30.4, 4.97 30.37 C2.91 30.35, 1.73 30.63, 0.85 30.18 C-0.02 29.73, -0.1 28.08, -0.3 27.67" stroke="#E1E1E1" stroke-width="4" fill="none"></path></g></g><mask></mask><g stroke-linecap="round"><g transform="translate(375.89123823552376 173.0949587545548) rotate(358.9806439658696 7.827758334039158 -4.105391524793774)"><path d="M0 0 C1.46 0, 6.45 0.02, 8.75 -0.03 C11.05 -0.07, 12.63 0.11, 13.8 -0.26 C14.97 -0.63, 15.47 -1.31, 15.78 -2.27 C16.09 -3.24, 16.03 -5.05, 15.65 -6.04 C15.27 -7.03, 15.1 -7.85, 13.52 -8.21 C11.93 -8.57, 8.12 -8.22, 6.14 -8.21 C4.16 -8.21, 2.67 -8.62, 1.62 -8.18 C0.58 -7.75, 0.14 -6.95, -0.13 -5.59 C-0.4 -4.23, -0.02 -0.93, 0 0 M0 0 C1.46 0, 6.45 0.02, 8.75 -0.03 C11.05 -0.07, 12.63 0.11, 13.8 -0.26 C14.97 -0.63, 15.47 -1.31, 15.78 -2.27 C16.09 -3.24, 16.03 -5.05, 15.65 -6.04 C15.27 -7.03, 15.1 -7.85, 13.52 -8.21 C11.93 -8.57, 8.12 -8.22, 6.14 -8.21 C4.16 -8.21, 2.67 -8.62, 1.62 -8.18 C0.58 -7.75, 0.14 -6.95, -0.13 -5.59 C-0.4 -4.23, -0.02 -0.93, 0 0" stroke="#E1E1E1" stroke-width="4" fill="none"></path></g></g><mask></mask><g stroke-linecap="round"><g transform="translate(374.8244150882792 159.80396746507188) rotate(358.9806439658696 7.827758334039158 -4.105391524793774)"><path d="M0 0 C1.46 0, 6.45 0.02, 8.75 -0.03 C11.05 -0.07, 12.63 0.11, 13.8 -0.26 C14.97 -0.63, 15.47 -1.31, 15.78 -2.27 C16.09 -3.24, 16.03 -5.05, 15.65 -6.04 C15.27 -7.03, 15.1 -7.85, 13.52 -8.21 C11.93 -8.57, 8.12 -8.22, 6.14 -8.21 C4.16 -8.21, 2.67 -8.62, 1.62 -8.18 C0.58 -7.75, 0.14 -6.95, -0.13 -5.59 C-0.4 -4.23, -0.02 -0.93, 0 0 M0 0 C1.46 0, 6.45 0.02, 8.75 -0.03 C11.05 -0.07, 12.63 0.11, 13.8 -0.26 C14.97 -0.63, 15.47 -1.31, 15.78 -2.27 C16.09 -3.24, 16.03 -5.05, 15.65 -6.04 C15.27 -7.03, 15.1 -7.85, 13.52 -8.21 C11.93 -8.57, 8.12 -8.22, 6.14 -8.21 C4.16 -8.21, 2.67 -8.62, 1.62 -8.18 C0.58 -7.75, 0.14 -6.95, -0.13 -5.59 C-0.4 -4.23, -0.02 -0.93, 0 0" stroke="#E1E1E1" stroke-width="4" fill="none"></path></g></g><mask></mask><g stroke-linecap="round"><g transform="translate(504.75197366863443 143.38007320789995) rotate(88.9806439658696 -8.688425756883944 15.601477522163577)"><path d="M0 0 C0.68 0, 2.99 -0.02, 4.1 0 C5.2 0.02, 6.21 -0.38, 6.64 0.13 C7.07 0.64, 6.66 0.61, 6.67 3.03 C6.68 5.46, 6.78 11.47, 6.69 14.7 C6.61 17.93, 6.64 20.31, 6.18 22.43 C5.72 24.56, 5.03 26.13, 3.95 27.43 C2.88 28.74, 1.24 29.56, -0.29 30.25 C-1.81 30.95, -3.44 31.36, -5.18 31.6 C-6.93 31.85, -8.9 31.88, -10.75 31.74 C-12.6 31.6, -14.61 31.39, -16.29 30.76 C-17.96 30.14, -19.6 29.19, -20.78 27.98 C-21.96 26.78, -22.83 25.39, -23.38 23.54 C-23.93 21.7, -23.99 19.37, -24.07 16.93 C-24.16 14.48, -23.93 11.62, -23.9 8.88 C-23.86 6.13, -24.49 2, -23.87 0.43 C-23.25 -1.13, -21.17 -0.51, -20.17 -0.53 C-19.18 -0.56, -18.26 -0.87, -17.89 0.29 C-17.53 1.44, -18 3.95, -17.99 6.4 C-17.99 8.85, -17.92 12.71, -17.86 15.01 C-17.8 17.31, -17.9 18.73, -17.63 20.21 C-17.37 21.68, -16.86 22.9, -16.28 23.86 C-15.7 24.81, -15.3 25.45, -14.16 25.96 C-13.02 26.46, -11.19 26.85, -9.44 26.86 C-7.7 26.87, -5.16 26.64, -3.69 26 C-2.23 25.35, -1.27 24.31, -0.64 23 C-0.02 21.68, -0.06 20.44, 0.06 18.12 C0.18 15.8, 0.07 12.08, 0.06 9.06 C0.05 6.04, 0.01 1.51, 0 0 M0 0 C0.68 0, 2.99 -0.02, 4.1 0 C5.2 0.02, 6.21 -0.38, 6.64 0.13 C7.07 0.64, 6.66 0.61, 6.67 3.03 C6.68 5.46, 6.78 11.47, 6.69 14.7 C6.61 17.93, 6.64 20.31, 6.18 22.43 C5.72 24.56, 5.03 26.13, 3.95 27.43 C2.88 28.74, 1.24 29.56, -0.29 30.25 C-1.81 30.95, -3.44 31.36, -5.18 31.6 C-6.93 31.85, -8.9 31.88, -10.75 31.74 C-12.6 31.6, -14.61 31.39, -16.29 30.76 C-17.96 30.14, -19.6 29.19, -20.78 27.98 C-21.96 26.78, -22.83 25.39, -23.38 23.54 C-23.93 21.7, -23.99 19.37, -24.07 16.93 C-24.16 14.48, -23.93 11.62, -23.9 8.88 C-23.86 6.13, -24.49 2, -23.87 0.43 C-23.25 -1.13, -21.17 -0.51, -20.17 -0.53 C-19.18 -0.56, -18.26 -0.87, -17.89 0.29 C-17.53 1.44, -18 3.95, -17.99 6.4 C-17.99 8.85, -17.92 12.71, -17.86 15.01 C-17.8 17.31, -17.9 18.73, -17.63 20.21 C-17.37 21.68, -16.86 22.9, -16.28 23.86 C-15.7 24.81, -15.3 25.45, -14.16 25.96 C-13.02 26.46, -11.19 26.85, -9.44 26.86 C-7.7 26.87, -5.16 26.64, -3.69 26 C-2.23 25.35, -1.27 24.31, -0.64 23 C-0.02 21.68, -0.06 20.44, 0.06 18.12 C0.18 15.8, 0.07 12.08, 0.06 9.06 C0.05 6.04, 0.01 1.51, 0 0" stroke="#E1E1E1" stroke-width="4" fill="none"></path></g></g><mask></mask><g transform="translate(497.22407989378274 154.14807864749866) rotate(0 2.097625732421875 4.342766665291947)"><text x="0" y="6.382126351014123" font-family="Helvetica, Segoe UI Emoji" font-size="7.552637678768592px" fill="#E1E1E1" text-anchor="start" style="white-space: pre;" direction="ltr" dominant-baseline="alphabetic">; </text></g><g stroke-linecap="round"><g transform="translate(499.72839606042265 155.6687436203157) rotate(0 0.6266609554710598 3.8016152091533115)"><path d="M0 0 C0.21 0.33, 1.06 0.96, 1.25 1.96 C1.45 2.97, 1.33 5.08, 1.17 6.02 C1.01 6.96, 0.45 7.34, 0.3 7.6 M0 0 C0.21 0.33, 1.06 0.96, 1.25 1.96 C1.45 2.97, 1.33 5.08, 1.17 6.02 C1.01 6.96, 0.45 7.34, 0.3 7.6" stroke="#E1E1E1" stroke-width="1" fill="none"></path></g></g><mask></mask><g stroke-linecap="round"><g transform="translate(500.80902502074326 157.3735503694935) rotate(0 1.7703849219312815 -0.06411084702949665)"><path d="M0 0 C0.35 -0.24, 1.49 -1.32, 2.08 -1.44 C2.67 -1.56, 3.44 -1.01, 3.54 -0.7 C3.64 -0.4, 3.19 0.06, 2.7 0.4 C2.21 0.73, 0.95 1.16, 0.6 1.31 M0 0 C0.35 -0.24, 1.49 -1.32, 2.08 -1.44 C2.67 -1.56, 3.44 -1.01, 3.54 -0.7 C3.64 -0.4, 3.19 0.06, 2.7 0.4 C2.21 0.73, 0.95 1.16, 0.6 1.31" stroke="#E1E1E1" stroke-width="1" fill="none"></path></g></g><mask></mask></svg>