<svg version="1.1" xmlns="http://www.w3.org/2000/svg" viewBox="0 0 765.2610325151692 784.2325466725747" width="765.2610325151692" height="784.2325466725747" class="excalidraw-svg"><!-- svg-source:excalidraw --><metadata></metadata><defs><style class="style-fonts">
      </style></defs><rect x="0" y="0" width="765.2610325151692" height="784.2325466725747" fill="#000000"></rect><g stroke-linecap="round" transform="translate(70.67912125893054 628.0093013849396) rotate(0 53.49944594516896 71.77014532299427)"><path d="M26.75 0 C44.24 0, 61.73 0, 80.25 0 M26.75 0 C45.2 0, 63.66 0, 80.25 0 M80.25 0 C98.08 0, 107 8.92, 107 26.75 M80.25 0 C98.08 0, 107 8.92, 107 26.75 M107 26.75 C107 61.69, 107 96.63, 107 116.79 M107 26.75 C107 47.87, 107 68.98, 107 116.79 M107 116.79 C107 134.62, 98.08 143.54, 80.25 143.54 M107 116.79 C107 134.62, 98.08 143.54, 80.25 143.54 M80.25 143.54 C63.01 143.54, 45.76 143.54, 26.75 143.54 M80.25 143.54 C68.87 143.54, 57.49 143.54, 26.75 143.54 M26.75 143.54 C8.92 143.54, 0 134.62, 0 116.79 M26.75 143.54 C8.92 143.54, 0 134.62, 0 116.79 M0 116.79 C0 93.23, 0 69.68, 0 26.75 M0 116.79 C0 90.83, 0 64.87, 0 26.75 M0 26.75 C0 8.92, 8.92 0, 26.75 0 M0 26.75 C0 8.92, 8.92 0, 26.75 0" stroke="#E1E1E1" stroke-width="4" fill="none"></path></g><g stroke-linecap="round" transform="translate(395.35210998436014 479.53769576124796) rotate(0 47.86080656193852 146.9039618785318)"><path d="M23.93 0 C37.41 0, 50.9 0, 71.79 0 M23.93 0 C39.09 0, 54.25 0, 71.79 0 M71.79 0 C87.74 0, 95.72 7.98, 95.72 23.93 M71.79 0 C87.74 0, 95.72 7.98, 95.72 23.93 M95.72 23.93 C95.72 77.13, 95.72 130.33, 95.72 269.88 M95.72 23.93 C95.72 111.43, 95.72 198.92, 95.72 269.88 M95.72 269.88 C95.72 285.83, 87.74 293.81, 71.79 293.81 M95.72 269.88 C95.72 285.83, 87.74 293.81, 71.79 293.81 M71.79 293.81 C60.09 293.81, 48.38 293.81, 23.93 293.81 M71.79 293.81 C58.16 293.81, 44.53 293.81, 23.93 293.81 M23.93 293.81 C7.98 293.81, 0 285.83, 0 269.88 M23.93 293.81 C7.98 293.81, 0 285.83, 0 269.88 M0 269.88 C0 201.11, 0 132.35, 0 23.93 M0 269.88 C0 212.98, 0 156.08, 0 23.93 M0 23.93 C0 7.98, 7.98 0, 23.93 0 M0 23.93 C0 7.98, 7.98 0, 23.93 0" stroke="#E1E1E1" stroke-width="4" fill="none"></path></g><g stroke-linecap="round"><g transform="translate(10 773.6941505194768) rotate(0 353.2098699138541 0)"><path d="M0 0 C117.74 0, 588.68 0, 706.42 0 M0 0 C117.74 0, 588.68 0, 706.42 0" stroke="#E1E1E1" stroke-width="4" fill="none"></path></g></g><mask></mask><g stroke-linecap="round"><g transform="translate(233.63868194751194 694.5643150408655) rotate(0 0 39.8341158158546)"><path d="M0 0 C0 13.28, 0 66.39, 0 79.67 M0 0 C0 13.28, 0 66.39, 0 79.67" stroke="#E1E1E1" stroke-width="4" fill="none"></path></g></g><mask></mask><g stroke-linecap="round"><g transform="translate(235.15089274553247 666.413247164545) rotate(0 53.065798814023545 -5.586172334688925)"><path d="M0 0 C0 -11.15, 0 -48.41, 0 -66.9 C0 -85.39, -4.71 -102.33, 0 -110.93 C4.71 -119.53, 14.66 -117.24, 28.26 -118.5 C41.85 -119.76, 69.72 -119.29, 81.57 -118.5 C93.42 -117.71, 95.24 -118.76, 99.34 -113.74 C103.43 -108.72, 105 -103.26, 106.13 -88.38 C107.26 -73.49, 106.13 -48.32, 106.13 -24.42 C106.13 -0.52, 106.13 33.06, 106.13 55.02 C106.13 76.97, 106.13 98.61, 106.13 107.33 M0 0 C0 -11.15, 0 -48.41, 0 -66.9 C0 -85.39, -4.71 -102.33, 0 -110.93 C4.71 -119.53, 14.66 -117.24, 28.26 -118.5 C41.85 -119.76, 69.72 -119.29, 81.57 -118.5 C93.42 -117.71, 95.24 -118.76, 99.34 -113.74 C103.43 -108.72, 105 -103.26, 106.13 -88.38 C107.26 -73.49, 106.13 -48.32, 106.13 -24.42 C106.13 -0.52, 106.13 33.06, 106.13 55.02 C106.13 76.97, 106.13 98.61, 106.13 107.33" stroke="#E1E1E1" stroke-width="4" fill="none"></path></g></g><mask></mask><g stroke-linecap="round"><g transform="translate(550.5442453430478 772.2425053164754) rotate(0 51.286723471709394 -187.22422536395692)"><path d="M0 0 C-0.02 -23.45, 0.04 -93.93, -0.09 -140.69 C-0.22 -187.46, -0.61 -246.09, -0.8 -280.61 C-0.99 -315.13, -1.42 -333.03, -1.21 -347.83 C-1 -362.62, -2 -364.94, 0.48 -369.38 C2.96 -373.81, 5.87 -373.6, 13.67 -374.45 C21.47 -375.29, 35.96 -374.63, 47.29 -374.45 C58.62 -374.26, 73.21 -373.53, 81.66 -373.34 C90.1 -373.16, 94.42 -375.28, 97.96 -373.34 C101.51 -371.41, 101.95 -368.81, 102.92 -361.73 C103.89 -354.64, 103.82 -345.38, 103.78 -330.86 C103.74 -316.34, 102.68 -289.38, 102.68 -274.61 C102.67 -259.83, 103.56 -247.61, 103.74 -242.21 M0 0 C-0.02 -23.45, 0.04 -93.93, -0.09 -140.69 C-0.22 -187.46, -0.61 -246.09, -0.8 -280.61 C-0.99 -315.13, -1.42 -333.03, -1.21 -347.83 C-1 -362.62, -2 -364.94, 0.48 -369.38 C2.96 -373.81, 5.87 -373.6, 13.67 -374.45 C21.47 -375.29, 35.96 -374.63, 47.29 -374.45 C58.62 -374.26, 73.21 -373.53, 81.66 -373.34 C90.1 -373.16, 94.42 -375.28, 97.96 -373.34 C101.51 -371.41, 101.95 -368.81, 102.92 -361.73 C103.89 -354.64, 103.82 -345.38, 103.78 -330.86 C103.74 -316.34, 102.68 -289.38, 102.68 -274.61 C102.67 -259.83, 103.56 -247.61, 103.74 -242.21" stroke="#E1E1E1" stroke-width="4" fill="none"></path></g></g><mask></mask><g stroke-linecap="round"><g transform="translate(653.0754024702146 554.7180759923833) rotate(0 0.3392496365045474 108.86365623217428)"><path d="M0 0 C0.08 11.76, 0.47 45.45, 0.48 70.55 C0.49 95.64, 0.04 126.05, 0.08 150.58 C0.11 175.11, 0.58 206.54, 0.68 217.73 M0 0 C0.08 11.76, 0.47 45.45, 0.48 70.55 C0.49 95.64, 0.04 126.05, 0.08 150.58 C0.11 175.11, 0.58 206.54, 0.68 217.73" stroke="#E1E1E1" stroke-width="4" fill="none"></path></g></g><mask></mask><g stroke-linecap="round"><g transform="translate(88.65670321112702 482.17721081374134) rotate(0 253.95017124615288 -172.02678411608602)"><path d="M0 0 C13.81 -1.23, 55.06 -3.03, 82.85 -7.39 C110.64 -11.75, 138.25 -17.8, 166.74 -26.16 C195.23 -34.52, 228.74 -46.59, 253.79 -57.55 C278.85 -68.5, 296.4 -78.29, 317.07 -91.87 C337.74 -105.45, 361.76 -125.96, 377.82 -139.04 C393.87 -152.11, 401.95 -158.78, 413.39 -170.31 C424.83 -181.85, 438.37 -198.48, 446.45 -208.27 C454.53 -218.06, 455.75 -228.24, 461.89 -229.04 C468.02 -229.84, 475.58 -218.94, 483.25 -213.05 C490.92 -207.15, 505.13 -182.63, 507.9 -193.69 C510.67 -204.75, 502.03 -258.24, 499.86 -279.39 C497.69 -300.53, 495.9 -309.79, 494.91 -320.57 C493.92 -331.34, 496.16 -340.41, 493.92 -344.05 C491.69 -347.7, 492.21 -345.52, 481.51 -342.42 C470.8 -339.32, 446.07 -330.69, 429.7 -325.46 C413.32 -320.22, 396.46 -314.69, 383.25 -311.01 C370.04 -307.34, 351.48 -307.49, 350.42 -303.41 C349.36 -299.33, 368.54 -291.71, 376.89 -286.53 C385.24 -281.34, 398.54 -278.29, 400.52 -272.29 C402.5 -266.29, 394.23 -258.1, 388.79 -250.53 C383.36 -242.96, 377.01 -236.23, 367.92 -226.85 C358.84 -217.48, 339.89 -199.71, 334.28 -194.28 M0 0 C13.81 -1.23, 55.06 -3.03, 82.85 -7.39 C110.64 -11.75, 138.25 -17.8, 166.74 -26.16 C195.23 -34.52, 228.74 -46.59, 253.79 -57.55 C278.85 -68.5, 296.4 -78.29, 317.07 -91.87 C337.74 -105.45, 361.76 -125.96, 377.82 -139.04 C393.87 -152.11, 401.95 -158.78, 413.39 -170.31 C424.83 -181.85, 438.37 -198.48, 446.45 -208.27 C454.53 -218.06, 455.75 -228.24, 461.89 -229.04 C468.02 -229.84, 475.58 -218.94, 483.25 -213.05 C490.92 -207.15, 505.13 -182.63, 507.9 -193.69 C510.67 -204.75, 502.03 -258.24, 499.86 -279.39 C497.69 -300.53, 495.9 -309.79, 494.91 -320.57 C493.92 -331.34, 496.16 -340.41, 493.92 -344.05 C491.69 -347.7, 492.21 -345.52, 481.51 -342.42 C470.8 -339.32, 446.07 -330.69, 429.7 -325.46 C413.32 -320.22, 396.46 -314.69, 383.25 -311.01 C370.04 -307.34, 351.48 -307.49, 350.42 -303.41 C349.36 -299.33, 368.54 -291.71, 376.89 -286.53 C385.24 -281.34, 398.54 -278.29, 400.52 -272.29 C402.5 -266.29, 394.23 -258.1, 388.79 -250.53 C383.36 -242.96, 377.01 -236.23, 367.92 -226.85 C358.84 -217.48, 339.89 -199.71, 334.28 -194.28" stroke="#E1E1E1" stroke-width="4" fill="none"></path></g></g><mask></mask><g stroke-linecap="round"><g transform="translate(403.1200431870202 309.0688496922671) rotate(0 -156.6472970960732 86.26946175771312)"><path d="M0 0 C-5.89 4.38, -20.73 16.52, -35.34 26.27 C-49.94 36.03, -68.29 46.64, -87.64 58.53 C-106.99 70.42, -131.41 86.74, -151.44 97.6 C-171.47 108.46, -185.58 113.43, -207.82 123.7 C-230.05 133.97, -267.24 151.06, -284.82 159.2 C-302.4 167.34, -308.55 170.32, -313.29 172.54 M0 0 C-5.89 4.38, -20.73 16.52, -35.34 26.27 C-49.94 36.03, -68.29 46.64, -87.64 58.53 C-106.99 70.42, -131.41 86.74, -151.44 97.6 C-171.47 108.46, -185.58 113.43, -207.82 123.7 C-230.05 133.97, -267.24 151.06, -284.82 159.2 C-302.4 167.34, -308.55 170.32, -313.29 172.54" stroke="#E1E1E1" stroke-width="4" fill="none"></path></g></g><mask></mask><g stroke-linecap="round"><g transform="translate(163.62003899670526 283.7526017471487) rotate(0 -6.25461029098804 4.476939958817923)"><path d="M0 0 C0.02 -0.57, 0.46 -2.32, 0.11 -3.4 C-0.24 -4.49, -1.11 -5.7, -2.1 -6.5 C-3.09 -7.3, -4.56 -8.09, -5.83 -8.22 C-7.1 -8.36, -8.68 -7.95, -9.73 -7.29 C-10.77 -6.63, -11.62 -5.43, -12.08 -4.26 C-12.54 -3.09, -12.76 -1.56, -12.49 -0.25 C-12.21 1.06, -11.6 2.82, -10.42 3.62 C-9.24 4.42, -6.84 4.17, -5.42 4.56 C-4 4.94, -2.79 5.06, -1.91 5.93 C-1.02 6.8, -0.25 8.43, -0.1 9.8 C0.05 11.17, -0.18 12.94, -1.01 14.17 C-1.83 15.4, -3.68 16.76, -5.03 17.18 C-6.38 17.6, -7.94 17.26, -9.12 16.71 C-10.29 16.16, -11.52 15.14, -12.1 13.88 C-12.68 12.61, -12.53 9.92, -12.62 9.13 M0 0 C0.02 -0.57, 0.46 -2.32, 0.11 -3.4 C-0.24 -4.49, -1.11 -5.7, -2.1 -6.5 C-3.09 -7.3, -4.56 -8.09, -5.83 -8.22 C-7.1 -8.36, -8.68 -7.95, -9.73 -7.29 C-10.77 -6.63, -11.62 -5.43, -12.08 -4.26 C-12.54 -3.09, -12.76 -1.56, -12.49 -0.25 C-12.21 1.06, -11.6 2.82, -10.42 3.62 C-9.24 4.42, -6.84 4.17, -5.42 4.56 C-4 4.94, -2.79 5.06, -1.91 5.93 C-1.02 6.8, -0.25 8.43, -0.1 9.8 C0.05 11.17, -0.18 12.94, -1.01 14.17 C-1.83 15.4, -3.68 16.76, -5.03 17.18 C-6.38 17.6, -7.94 17.26, -9.12 16.71 C-10.29 16.16, -11.52 15.14, -12.1 13.88 C-12.68 12.61, -12.53 9.92, -12.62 9.13" stroke="#E1E1E1" stroke-width="4" fill="none"></path></g></g><mask></mask><g stroke-linecap="round"><g transform="translate(157.54396229589838 269.8719860250676) rotate(0 0 2.5768677885026534)"><path d="M0 0 C0 0.86, 0 4.29, 0 5.15 M0 0 C0 0.86, 0 4.29, 0 5.15" stroke="#E1E1E1" stroke-width="4" fill="none"></path></g></g><mask></mask><g stroke-linecap="round"><g transform="translate(157.51775099318547 307.3229920743795) rotate(0 0.03981150695220492 -2.830078863776265)"><path d="M0 0 C0.01 -0.94, 0.07 -4.72, 0.08 -5.66 M0 0 C0.01 -0.94, 0.07 -4.72, 0.08 -5.66" stroke="#E1E1E1" stroke-width="4" fill="none"></path></g></g><mask></mask><g stroke-linecap="round" transform="translate(128.42975083929923 259.85560107123456) rotate(0 28.816740293426896 28.816740293426903)"><path d="M57.63 28.82 C57.63 30.48, 57.49 32.18, 57.2 33.82 C56.91 35.46, 56.47 37.11, 55.9 38.67 C55.33 40.24, 54.61 41.78, 53.77 43.23 C52.94 44.67, 51.96 46.06, 50.89 47.34 C49.82 48.62, 48.62 49.82, 47.34 50.89 C46.06 51.96, 44.67 52.94, 43.23 53.77 C41.78 54.61, 40.24 55.33, 38.67 55.9 C37.11 56.47, 35.46 56.91, 33.82 57.2 C32.18 57.49, 30.48 57.63, 28.82 57.63 C27.15 57.63, 25.46 57.49, 23.81 57.2 C22.17 56.91, 20.53 56.47, 18.96 55.9 C17.39 55.33, 15.85 54.61, 14.41 53.77 C12.96 52.94, 11.57 51.96, 10.29 50.89 C9.02 49.82, 7.81 48.62, 6.74 47.34 C5.67 46.06, 4.69 44.67, 3.86 43.23 C3.03 41.78, 2.31 40.24, 1.74 38.67 C1.17 37.11, 0.73 35.46, 0.44 33.82 C0.15 32.18, 0 30.48, 0 28.82 C0 27.15, 0.15 25.46, 0.44 23.81 C0.73 22.17, 1.17 20.53, 1.74 18.96 C2.31 17.39, 3.03 15.85, 3.86 14.41 C4.69 12.96, 5.67 11.57, 6.74 10.29 C7.81 9.02, 9.02 7.81, 10.29 6.74 C11.57 5.67, 12.96 4.69, 14.41 3.86 C15.85 3.03, 17.39 2.31, 18.96 1.74 C20.53 1.17, 22.17 0.73, 23.81 0.44 C25.46 0.15, 27.15 0, 28.82 0 C30.48 0, 32.18 0.15, 33.82 0.44 C35.46 0.73, 37.11 1.17, 38.67 1.74 C40.24 2.31, 41.78 3.03, 43.23 3.86 C44.67 4.69, 46.06 5.67, 47.34 6.74 C48.62 7.81, 49.82 9.02, 50.89 10.29 C51.96 11.57, 52.94 12.96, 53.77 14.41 C54.61 15.85, 55.33 17.39, 55.9 18.96 C56.47 20.53, 56.91 22.17, 57.2 23.81 C57.49 25.46, 57.56 27.98, 57.63 28.82 C57.71 29.65, 57.71 27.98, 57.63 28.82" stroke="#E1E1E1" stroke-width="4" fill="none"></path></g><g stroke-linecap="round"><g transform="translate(174.23987314507758 564.5882158930399) rotate(0 -6.25461029098804 4.476939958817905)"><path d="M0 0 C0.02 -0.57, 0.46 -2.32, 0.11 -3.4 C-0.24 -4.49, -1.11 -5.7, -2.1 -6.5 C-3.09 -7.3, -4.56 -8.09, -5.83 -8.22 C-7.1 -8.36, -8.68 -7.95, -9.73 -7.29 C-10.77 -6.63, -11.62 -5.43, -12.08 -4.26 C-12.54 -3.09, -12.76 -1.56, -12.49 -0.25 C-12.21 1.06, -11.6 2.82, -10.42 3.62 C-9.24 4.42, -6.84 4.17, -5.42 4.56 C-4 4.94, -2.79 5.06, -1.91 5.93 C-1.02 6.8, -0.25 8.43, -0.1 9.8 C0.05 11.17, -0.18 12.94, -1.01 14.17 C-1.83 15.4, -3.68 16.76, -5.03 17.18 C-6.38 17.6, -7.94 17.26, -9.12 16.71 C-10.29 16.16, -11.52 15.14, -12.1 13.88 C-12.68 12.61, -12.53 9.92, -12.62 9.13 M0 0 C0.02 -0.57, 0.46 -2.32, 0.11 -3.4 C-0.24 -4.49, -1.11 -5.7, -2.1 -6.5 C-3.09 -7.3, -4.56 -8.09, -5.83 -8.22 C-7.1 -8.36, -8.68 -7.95, -9.73 -7.29 C-10.77 -6.63, -11.62 -5.43, -12.08 -4.26 C-12.54 -3.09, -12.76 -1.56, -12.49 -0.25 C-12.21 1.06, -11.6 2.82, -10.42 3.62 C-9.24 4.42, -6.84 4.17, -5.42 4.56 C-4 4.94, -2.79 5.06, -1.91 5.93 C-1.02 6.8, -0.25 8.43, -0.1 9.8 C0.05 11.17, -0.18 12.94, -1.01 14.17 C-1.83 15.4, -3.68 16.76, -5.03 17.18 C-6.38 17.6, -7.94 17.26, -9.12 16.71 C-10.29 16.16, -11.52 15.14, -12.1 13.88 C-12.68 12.61, -12.53 9.92, -12.62 9.13" stroke="#E1E1E1" stroke-width="4" fill="none"></path></g></g><mask></mask><g stroke-linecap="round"><g transform="translate(168.1637964442707 550.7076001709586) rotate(0 0 2.5768677885026463)"><path d="M0 0 C0 0.86, 0 4.29, 0 5.15 M0 0 C0 0.86, 0 4.29, 0 5.15" stroke="#E1E1E1" stroke-width="4" fill="none"></path></g></g><mask></mask><g stroke-linecap="round"><g transform="translate(168.1375851415578 588.1586062202705) rotate(0 0.03981150695220492 -2.830078863776274)"><path d="M0 0 C0.01 -0.94, 0.07 -4.72, 0.08 -5.66 M0 0 C0.01 -0.94, 0.07 -4.72, 0.08 -5.66" stroke="#E1E1E1" stroke-width="4" fill="none"></path></g></g><mask></mask><g stroke-linecap="round" transform="translate(139.0495849876752 540.6912152171249) rotate(0 28.816740293426896 28.816740293426896)"><path d="M57.63 28.82 C57.63 30.48, 57.49 32.18, 57.2 33.82 C56.91 35.46, 56.47 37.11, 55.9 38.67 C55.33 40.24, 54.61 41.78, 53.77 43.23 C52.94 44.67, 51.96 46.06, 50.89 47.34 C49.82 48.62, 48.62 49.82, 47.34 50.89 C46.06 51.96, 44.67 52.94, 43.23 53.77 C41.78 54.61, 40.24 55.33, 38.67 55.9 C37.11 56.47, 35.46 56.91, 33.82 57.2 C32.18 57.49, 30.48 57.63, 28.82 57.63 C27.15 57.63, 25.46 57.49, 23.81 57.2 C22.17 56.91, 20.53 56.47, 18.96 55.9 C17.39 55.33, 15.85 54.61, 14.41 53.77 C12.96 52.94, 11.57 51.96, 10.29 50.89 C9.02 49.82, 7.81 48.62, 6.74 47.34 C5.67 46.06, 4.69 44.67, 3.86 43.23 C3.03 41.78, 2.31 40.24, 1.74 38.67 C1.17 37.11, 0.73 35.46, 0.44 33.82 C0.15 32.18, 0 30.48, 0 28.82 C0 27.15, 0.15 25.46, 0.44 23.81 C0.73 22.17, 1.17 20.53, 1.74 18.96 C2.31 17.39, 3.03 15.85, 3.86 14.41 C4.69 12.96, 5.67 11.57, 6.74 10.29 C7.81 9.02, 9.02 7.81, 10.29 6.74 C11.57 5.67, 12.96 4.69, 14.41 3.86 C15.85 3.03, 17.39 2.31, 18.96 1.74 C20.53 1.17, 22.17 0.73, 23.81 0.44 C25.46 0.15, 27.15 0, 28.82 0 C30.48 0, 32.18 0.15, 33.82 0.44 C35.46 0.73, 37.11 1.17, 38.67 1.74 C40.24 2.31, 41.78 3.03, 43.23 3.86 C44.67 4.69, 46.06 5.67, 47.34 6.74 C48.62 7.81, 49.82 9.02, 50.89 10.29 C51.96 11.57, 52.94 12.96, 53.77 14.41 C54.61 15.85, 55.33 17.39, 55.9 18.96 C56.47 20.53, 56.91 22.17, 57.2 23.81 C57.49 25.46, 57.56 27.98, 57.63 28.82 C57.71 29.65, 57.71 27.98, 57.63 28.82" stroke="#E1E1E1" stroke-width="4" fill="none"></path></g><g stroke-linecap="round"><g transform="translate(313.4776986459801 317.97206733635403) rotate(0 -6.2546102909880394 4.476939958817908)"><path d="M0 0 C0.02 -0.57, 0.46 -2.32, 0.11 -3.4 C-0.24 -4.49, -1.11 -5.7, -2.1 -6.5 C-3.09 -7.3, -4.56 -8.09, -5.83 -8.22 C-7.1 -8.36, -8.68 -7.95, -9.73 -7.29 C-10.77 -6.63, -11.62 -5.43, -12.08 -4.26 C-12.54 -3.09, -12.76 -1.56, -12.49 -0.25 C-12.21 1.06, -11.6 2.82, -10.42 3.62 C-9.24 4.42, -6.84 4.17, -5.42 4.56 C-4 4.94, -2.79 5.06, -1.91 5.93 C-1.02 6.8, -0.25 8.43, -0.1 9.8 C0.05 11.17, -0.18 12.94, -1.01 14.17 C-1.83 15.4, -3.68 16.76, -5.03 17.18 C-6.38 17.6, -7.94 17.26, -9.12 16.71 C-10.29 16.16, -11.52 15.14, -12.1 13.88 C-12.68 12.61, -12.53 9.92, -12.62 9.13 M0 0 C0.02 -0.57, 0.46 -2.32, 0.11 -3.4 C-0.24 -4.49, -1.11 -5.7, -2.1 -6.5 C-3.09 -7.3, -4.56 -8.09, -5.83 -8.22 C-7.1 -8.36, -8.68 -7.95, -9.73 -7.29 C-10.77 -6.63, -11.62 -5.43, -12.08 -4.26 C-12.54 -3.09, -12.76 -1.56, -12.49 -0.25 C-12.21 1.06, -11.6 2.82, -10.42 3.62 C-9.24 4.42, -6.84 4.17, -5.42 4.56 C-4 4.94, -2.79 5.06, -1.91 5.93 C-1.02 6.8, -0.25 8.43, -0.1 9.8 C0.05 11.17, -0.18 12.94, -1.01 14.17 C-1.83 15.4, -3.68 16.76, -5.03 17.18 C-6.38 17.6, -7.94 17.26, -9.12 16.71 C-10.29 16.16, -11.52 15.14, -12.1 13.88 C-12.68 12.61, -12.53 9.92, -12.62 9.13" stroke="#E1E1E1" stroke-width="4" fill="none"></path></g></g><mask></mask><g stroke-linecap="round"><g transform="translate(307.4016219451769 304.09145161427296) rotate(0 0 2.5768677885026534)"><path d="M0 0 C0 0.86, 0 4.29, 0 5.15 M0 0 C0 0.86, 0 4.29, 0 5.15" stroke="#E1E1E1" stroke-width="4" fill="none"></path></g></g><mask></mask><g stroke-linecap="round"><g transform="translate(307.375410642464 341.5424576635851) rotate(0 0.039811506952208475 -2.8300788637762793)"><path d="M0 0 C0.01 -0.94, 0.07 -4.72, 0.08 -5.66 M0 0 C0.01 -0.94, 0.07 -4.72, 0.08 -5.66" stroke="#E1E1E1" stroke-width="4" fill="none"></path></g></g><mask></mask><g stroke-linecap="round" transform="translate(278.2874104885741 294.07506666043946) rotate(0 28.816740293426896 28.816740293426903)"><path d="M57.63 28.82 C57.63 30.48, 57.49 32.18, 57.2 33.82 C56.91 35.46, 56.47 37.11, 55.9 38.67 C55.33 40.24, 54.61 41.78, 53.77 43.23 C52.94 44.67, 51.96 46.06, 50.89 47.34 C49.82 48.62, 48.62 49.82, 47.34 50.89 C46.06 51.96, 44.67 52.94, 43.23 53.77 C41.78 54.61, 40.24 55.33, 38.67 55.9 C37.11 56.47, 35.46 56.91, 33.82 57.2 C32.18 57.49, 30.48 57.63, 28.82 57.63 C27.15 57.63, 25.46 57.49, 23.81 57.2 C22.17 56.91, 20.53 56.47, 18.96 55.9 C17.39 55.33, 15.85 54.61, 14.41 53.77 C12.96 52.94, 11.57 51.96, 10.29 50.89 C9.02 49.82, 7.81 48.62, 6.74 47.34 C5.67 46.06, 4.69 44.67, 3.86 43.23 C3.03 41.78, 2.31 40.24, 1.74 38.67 C1.17 37.11, 0.73 35.46, 0.44 33.82 C0.15 32.18, 0 30.48, 0 28.82 C0 27.15, 0.15 25.46, 0.44 23.81 C0.73 22.17, 1.17 20.53, 1.74 18.96 C2.31 17.39, 3.03 15.85, 3.86 14.41 C4.69 12.96, 5.67 11.57, 6.74 10.29 C7.81 9.02, 9.02 7.81, 10.29 6.74 C11.57 5.67, 12.96 4.69, 14.41 3.86 C15.85 3.03, 17.39 2.31, 18.96 1.74 C20.53 1.17, 22.17 0.73, 23.81 0.44 C25.46 0.15, 27.15 0, 28.82 0 C30.48 0, 32.18 0.15, 33.82 0.44 C35.46 0.73, 37.11 1.17, 38.67 1.74 C40.24 2.31, 41.78 3.03, 43.23 3.86 C44.67 4.69, 46.06 5.67, 47.34 6.74 C48.62 7.81, 49.82 9.02, 50.89 10.29 C51.96 11.57, 52.94 12.96, 53.77 14.41 C54.61 15.85, 55.33 17.39, 55.9 18.96 C56.47 20.53, 56.91 22.17, 57.2 23.81 C57.49 25.46, 57.56 27.98, 57.63 28.82 C57.71 29.65, 57.71 27.98, 57.63 28.82" stroke="#E1E1E1" stroke-width="4" fill="none"></path></g><g stroke-linecap="round"><g transform="translate(476.3151555877157 113.83525537316427) rotate(0 -6.25461029098804 4.476939958817923)"><path d="M0 0 C0.02 -0.57, 0.46 -2.32, 0.11 -3.4 C-0.24 -4.49, -1.11 -5.7, -2.1 -6.5 C-3.09 -7.3, -4.56 -8.09, -5.83 -8.22 C-7.1 -8.36, -8.68 -7.95, -9.73 -7.29 C-10.77 -6.63, -11.62 -5.43, -12.08 -4.26 C-12.54 -3.09, -12.76 -1.56, -12.49 -0.25 C-12.21 1.06, -11.6 2.82, -10.42 3.62 C-9.24 4.42, -6.84 4.17, -5.42 4.56 C-4 4.94, -2.79 5.06, -1.91 5.93 C-1.02 6.8, -0.25 8.43, -0.1 9.8 C0.05 11.17, -0.18 12.94, -1.01 14.17 C-1.83 15.4, -3.68 16.76, -5.03 17.18 C-6.38 17.6, -7.94 17.26, -9.12 16.71 C-10.29 16.16, -11.52 15.14, -12.1 13.88 C-12.68 12.61, -12.53 9.92, -12.62 9.13 M0 0 C0.02 -0.57, 0.46 -2.32, 0.11 -3.4 C-0.24 -4.49, -1.11 -5.7, -2.1 -6.5 C-3.09 -7.3, -4.56 -8.09, -5.83 -8.22 C-7.1 -8.36, -8.68 -7.95, -9.73 -7.29 C-10.77 -6.63, -11.62 -5.43, -12.08 -4.26 C-12.54 -3.09, -12.76 -1.56, -12.49 -0.25 C-12.21 1.06, -11.6 2.82, -10.42 3.62 C-9.24 4.42, -6.84 4.17, -5.42 4.56 C-4 4.94, -2.79 5.06, -1.91 5.93 C-1.02 6.8, -0.25 8.43, -0.1 9.8 C0.05 11.17, -0.18 12.94, -1.01 14.17 C-1.83 15.4, -3.68 16.76, -5.03 17.18 C-6.38 17.6, -7.94 17.26, -9.12 16.71 C-10.29 16.16, -11.52 15.14, -12.1 13.88 C-12.68 12.61, -12.53 9.92, -12.62 9.13" stroke="#E1E1E1" stroke-width="4" fill="none"></path></g></g><mask></mask><g stroke-linecap="round"><g transform="translate(470.2390788869088 99.9546396510832) rotate(0 0 2.5768677885026534)"><path d="M0 0 C0 0.86, 0 4.29, 0 5.15 M0 0 C0 0.86, 0 4.29, 0 5.15" stroke="#E1E1E1" stroke-width="4" fill="none"></path></g></g><mask></mask><g stroke-linecap="round"><g transform="translate(470.2128675841959 137.40564570039555) rotate(0 0.03981150695220492 -2.830078863776265)"><path d="M0 0 C0.01 -0.94, 0.07 -4.72, 0.08 -5.66 M0 0 C0.01 -0.94, 0.07 -4.72, 0.08 -5.66" stroke="#E1E1E1" stroke-width="4" fill="none"></path></g></g><mask></mask><g stroke-linecap="round" transform="translate(441.1248674303133 89.9382546972497) rotate(0 28.816740293426903 28.816740293426903)"><path d="M57.63 28.82 C57.63 30.48, 57.49 32.18, 57.2 33.82 C56.91 35.46, 56.47 37.11, 55.9 38.67 C55.33 40.24, 54.61 41.78, 53.77 43.23 C52.94 44.67, 51.96 46.06, 50.89 47.34 C49.82 48.62, 48.62 49.82, 47.34 50.89 C46.06 51.96, 44.67 52.94, 43.23 53.77 C41.78 54.61, 40.24 55.33, 38.67 55.9 C37.11 56.47, 35.46 56.91, 33.82 57.2 C32.18 57.49, 30.48 57.63, 28.82 57.63 C27.15 57.63, 25.46 57.49, 23.81 57.2 C22.17 56.91, 20.53 56.47, 18.96 55.9 C17.39 55.33, 15.85 54.61, 14.41 53.77 C12.96 52.94, 11.57 51.96, 10.29 50.89 C9.02 49.82, 7.81 48.62, 6.74 47.34 C5.67 46.06, 4.69 44.67, 3.86 43.23 C3.03 41.78, 2.31 40.24, 1.74 38.67 C1.17 37.11, 0.73 35.46, 0.44 33.82 C0.15 32.18, 0 30.48, 0 28.82 C0 27.15, 0.15 25.46, 0.44 23.81 C0.73 22.17, 1.17 20.53, 1.74 18.96 C2.31 17.39, 3.03 15.85, 3.86 14.41 C4.69 12.96, 5.67 11.57, 6.74 10.29 C7.81 9.02, 9.02 7.81, 10.29 6.74 C11.57 5.67, 12.96 4.69, 14.41 3.86 C15.85 3.03, 17.39 2.31, 18.96 1.74 C20.53 1.17, 22.17 0.73, 23.81 0.44 C25.46 0.15, 27.15 0, 28.82 0 C30.48 0, 32.18 0.15, 33.82 0.44 C35.46 0.73, 37.11 1.17, 38.67 1.74 C40.24 2.31, 41.78 3.03, 43.23 3.86 C44.67 4.69, 46.06 5.67, 47.34 6.74 C48.62 7.81, 49.82 9.02, 50.89 10.29 C51.96 11.57, 52.94 12.96, 53.77 14.41 C54.61 15.85, 55.33 17.39, 55.9 18.96 C56.47 20.53, 56.91 22.17, 57.2 23.81 C57.49 25.46, 57.56 27.98, 57.63 28.82 C57.71 29.65, 57.71 27.98, 57.63 28.82" stroke="#E1E1E1" stroke-width="4" fill="none"></path></g><g stroke-linecap="round"><g transform="translate(574.2536260671659 334.491809344936) rotate(0 -6.25461029098804 4.476939958817908)"><path d="M0 0 C0.02 -0.57, 0.46 -2.32, 0.11 -3.4 C-0.24 -4.49, -1.11 -5.7, -2.1 -6.5 C-3.09 -7.3, -4.56 -8.09, -5.83 -8.22 C-7.1 -8.36, -8.68 -7.95, -9.73 -7.29 C-10.77 -6.63, -11.62 -5.43, -12.08 -4.26 C-12.54 -3.09, -12.76 -1.56, -12.49 -0.25 C-12.21 1.06, -11.6 2.82, -10.42 3.62 C-9.24 4.42, -6.84 4.17, -5.42 4.56 C-4 4.94, -2.79 5.06, -1.91 5.93 C-1.02 6.8, -0.25 8.43, -0.1 9.8 C0.05 11.17, -0.18 12.94, -1.01 14.17 C-1.83 15.4, -3.68 16.76, -5.03 17.18 C-6.38 17.6, -7.94 17.26, -9.12 16.71 C-10.29 16.16, -11.52 15.14, -12.1 13.88 C-12.68 12.61, -12.53 9.92, -12.62 9.13 M0 0 C0.02 -0.57, 0.46 -2.32, 0.11 -3.4 C-0.24 -4.49, -1.11 -5.7, -2.1 -6.5 C-3.09 -7.3, -4.56 -8.09, -5.83 -8.22 C-7.1 -8.36, -8.68 -7.95, -9.73 -7.29 C-10.77 -6.63, -11.62 -5.43, -12.08 -4.26 C-12.54 -3.09, -12.76 -1.56, -12.49 -0.25 C-12.21 1.06, -11.6 2.82, -10.42 3.62 C-9.24 4.42, -6.84 4.17, -5.42 4.56 C-4 4.94, -2.79 5.06, -1.91 5.93 C-1.02 6.8, -0.25 8.43, -0.1 9.8 C0.05 11.17, -0.18 12.94, -1.01 14.17 C-1.83 15.4, -3.68 16.76, -5.03 17.18 C-6.38 17.6, -7.94 17.26, -9.12 16.71 C-10.29 16.16, -11.52 15.14, -12.1 13.88 C-12.68 12.61, -12.53 9.92, -12.62 9.13" stroke="#E1E1E1" stroke-width="4" fill="none"></path></g></g><mask></mask><g stroke-linecap="round"><g transform="translate(568.1775493663627 320.6111936228549) rotate(0 0 2.5768677885026534)"><path d="M0 0 C0 0.86, 0 4.29, 0 5.15 M0 0 C0 0.86, 0 4.29, 0 5.15" stroke="#E1E1E1" stroke-width="4" fill="none"></path></g></g><mask></mask><g stroke-linecap="round"><g transform="translate(568.1513380636461 358.06219967216657) rotate(0 0.03981150695221913 -2.8300788637762793)"><path d="M0 0 C0.01 -0.94, 0.07 -4.72, 0.08 -5.66 M0 0 C0.01 -0.94, 0.07 -4.72, 0.08 -5.66" stroke="#E1E1E1" stroke-width="4" fill="none"></path></g></g><mask></mask><g stroke-linecap="round" transform="translate(539.0633379097635 310.59480866902095) rotate(0 28.816740293426903 28.816740293426903)"><path d="M57.63 28.82 C57.63 30.48, 57.49 32.18, 57.2 33.82 C56.91 35.46, 56.47 37.11, 55.9 38.67 C55.33 40.24, 54.61 41.78, 53.77 43.23 C52.94 44.67, 51.96 46.06, 50.89 47.34 C49.82 48.62, 48.62 49.82, 47.34 50.89 C46.06 51.96, 44.67 52.94, 43.23 53.77 C41.78 54.61, 40.24 55.33, 38.67 55.9 C37.11 56.47, 35.46 56.91, 33.82 57.2 C32.18 57.49, 30.48 57.63, 28.82 57.63 C27.15 57.63, 25.46 57.49, 23.81 57.2 C22.17 56.91, 20.53 56.47, 18.96 55.9 C17.39 55.33, 15.85 54.61, 14.41 53.77 C12.96 52.94, 11.57 51.96, 10.29 50.89 C9.02 49.82, 7.81 48.62, 6.74 47.34 C5.67 46.06, 4.69 44.67, 3.86 43.23 C3.03 41.78, 2.31 40.24, 1.74 38.67 C1.17 37.11, 0.73 35.46, 0.44 33.82 C0.15 32.18, 0 30.48, 0 28.82 C0 27.15, 0.15 25.46, 0.44 23.81 C0.73 22.17, 1.17 20.53, 1.74 18.96 C2.31 17.39, 3.03 15.85, 3.86 14.41 C4.69 12.96, 5.67 11.57, 6.74 10.29 C7.81 9.02, 9.02 7.81, 10.29 6.74 C11.57 5.67, 12.96 4.69, 14.41 3.86 C15.85 3.03, 17.39 2.31, 18.96 1.74 C20.53 1.17, 22.17 0.73, 23.81 0.44 C25.46 0.15, 27.15 0, 28.82 0 C30.48 0, 32.18 0.15, 33.82 0.44 C35.46 0.73, 37.11 1.17, 38.67 1.74 C40.24 2.31, 41.78 3.03, 43.23 3.86 C44.67 4.69, 46.06 5.67, 47.34 6.74 C48.62 7.81, 49.82 9.02, 50.89 10.29 C51.96 11.57, 52.94 12.96, 53.77 14.41 C54.61 15.85, 55.33 17.39, 55.9 18.96 C56.47 20.53, 56.91 22.17, 57.2 23.81 C57.49 25.46, 57.56 27.98, 57.63 28.82 C57.71 29.65, 57.71 27.98, 57.63 28.82" stroke="#E1E1E1" stroke-width="4" fill="none"></path></g><g stroke-linecap="round"><g transform="translate(732.8178400857214 495.9498276023096) rotate(0 -6.25461029098804 4.476939958817901)"><path d="M0 0 C0.02 -0.57, 0.46 -2.32, 0.11 -3.4 C-0.24 -4.49, -1.11 -5.7, -2.1 -6.5 C-3.09 -7.3, -4.56 -8.09, -5.83 -8.22 C-7.1 -8.36, -8.68 -7.95, -9.73 -7.29 C-10.77 -6.63, -11.62 -5.43, -12.08 -4.26 C-12.54 -3.09, -12.76 -1.56, -12.49 -0.25 C-12.21 1.06, -11.6 2.82, -10.42 3.62 C-9.24 4.42, -6.84 4.17, -5.42 4.56 C-4 4.94, -2.79 5.06, -1.91 5.93 C-1.02 6.8, -0.25 8.43, -0.1 9.8 C0.05 11.17, -0.18 12.94, -1.01 14.17 C-1.83 15.4, -3.68 16.76, -5.03 17.18 C-6.38 17.6, -7.94 17.26, -9.12 16.71 C-10.29 16.16, -11.52 15.14, -12.1 13.88 C-12.68 12.61, -12.53 9.92, -12.62 9.13 M0 0 C0.02 -0.57, 0.46 -2.32, 0.11 -3.4 C-0.24 -4.49, -1.11 -5.7, -2.1 -6.5 C-3.09 -7.3, -4.56 -8.09, -5.83 -8.22 C-7.1 -8.36, -8.68 -7.95, -9.73 -7.29 C-10.77 -6.63, -11.62 -5.43, -12.08 -4.26 C-12.54 -3.09, -12.76 -1.56, -12.49 -0.25 C-12.21 1.06, -11.6 2.82, -10.42 3.62 C-9.24 4.42, -6.84 4.17, -5.42 4.56 C-4 4.94, -2.79 5.06, -1.91 5.93 C-1.02 6.8, -0.25 8.43, -0.1 9.8 C0.05 11.17, -0.18 12.94, -1.01 14.17 C-1.83 15.4, -3.68 16.76, -5.03 17.18 C-6.38 17.6, -7.94 17.26, -9.12 16.71 C-10.29 16.16, -11.52 15.14, -12.1 13.88 C-12.68 12.61, -12.53 9.92, -12.62 9.13" stroke="#E1E1E1" stroke-width="4" fill="none"></path></g></g><mask></mask><g stroke-linecap="round"><g transform="translate(726.7417633849109 482.0692118802285) rotate(0 0 2.5768677885026463)"><path d="M0 0 C0 0.86, 0 4.29, 0 5.15 M0 0 C0 0.86, 0 4.29, 0 5.15" stroke="#E1E1E1" stroke-width="4" fill="none"></path></g></g><mask></mask><g stroke-linecap="round"><g transform="translate(726.715552082198 519.5202179295404) rotate(0 0.03981150695221913 -2.830078863776272)"><path d="M0 0 C0.01 -0.94, 0.07 -4.72, 0.08 -5.66 M0 0 C0.01 -0.94, 0.07 -4.72, 0.08 -5.66" stroke="#E1E1E1" stroke-width="4" fill="none"></path></g></g><mask></mask><g stroke-linecap="round" transform="translate(697.6275519283154 472.0528269263948) rotate(0 28.816740293426903 28.816740293426896)"><path d="M57.63 28.82 C57.63 30.48, 57.49 32.18, 57.2 33.82 C56.91 35.46, 56.47 37.11, 55.9 38.67 C55.33 40.24, 54.61 41.78, 53.77 43.23 C52.94 44.67, 51.96 46.06, 50.89 47.34 C49.82 48.62, 48.62 49.82, 47.34 50.89 C46.06 51.96, 44.67 52.94, 43.23 53.77 C41.78 54.61, 40.24 55.33, 38.67 55.9 C37.11 56.47, 35.46 56.91, 33.82 57.2 C32.18 57.49, 30.48 57.63, 28.82 57.63 C27.15 57.63, 25.46 57.49, 23.81 57.2 C22.17 56.91, 20.53 56.47, 18.96 55.9 C17.39 55.33, 15.85 54.61, 14.41 53.77 C12.96 52.94, 11.57 51.96, 10.29 50.89 C9.02 49.82, 7.81 48.62, 6.74 47.34 C5.67 46.06, 4.69 44.67, 3.86 43.23 C3.03 41.78, 2.31 40.24, 1.74 38.67 C1.17 37.11, 0.73 35.46, 0.44 33.82 C0.15 32.18, 0 30.48, 0 28.82 C0 27.15, 0.15 25.46, 0.44 23.81 C0.73 22.17, 1.17 20.53, 1.74 18.96 C2.31 17.39, 3.03 15.85, 3.86 14.41 C4.69 12.96, 5.67 11.57, 6.74 10.29 C7.81 9.02, 9.02 7.81, 10.29 6.74 C11.57 5.67, 12.96 4.69, 14.41 3.86 C15.85 3.03, 17.39 2.31, 18.96 1.74 C20.53 1.17, 22.17 0.73, 23.81 0.44 C25.46 0.15, 27.15 0, 28.82 0 C30.48 0, 32.18 0.15, 33.82 0.44 C35.46 0.73, 37.11 1.17, 38.67 1.74 C40.24 2.31, 41.78 3.03, 43.23 3.86 C44.67 4.69, 46.06 5.67, 47.34 6.74 C48.62 7.81, 49.82 9.02, 50.89 10.29 C51.96 11.57, 52.94 12.96, 53.77 14.41 C54.61 15.85, 55.33 17.39, 55.9 18.96 C56.47 20.53, 56.91 22.17, 57.2 23.81 C57.49 25.46, 57.56 27.98, 57.63 28.82 C57.71 29.65, 57.71 27.98, 57.63 28.82" stroke="#E1E1E1" stroke-width="4" fill="none"></path></g><g stroke-linecap="round"><g transform="translate(278.83033944388444 220.04165965027642) rotate(0 13.612134870864166 -9.908502906660459)"><path d="M0 0 C-0.01 -1.94, -0.27 -8.83, -0.04 -11.67 C0.18 -14.51, 0.59 -15.69, 1.35 -17.02 C2.12 -18.35, 2.99 -19.16, 4.54 -19.66 C6.09 -20.15, 8.02 -19.9, 10.66 -19.98 C13.3 -20.06, 17.91 -20.44, 20.36 -20.12 C22.8 -19.81, 24.18 -19.19, 25.32 -18.09 C26.46 -16.99, 26.91 -15.25, 27.22 -13.5 C27.52 -11.74, 27.16 -9.85, 27.16 -7.55 C27.17 -5.25, 27.25 -1, 27.27 0.31 M0 0 C-0.01 -1.94, -0.27 -8.83, -0.04 -11.67 C0.18 -14.51, 0.59 -15.69, 1.35 -17.02 C2.12 -18.35, 2.99 -19.16, 4.54 -19.66 C6.09 -20.15, 8.02 -19.9, 10.66 -19.98 C13.3 -20.06, 17.91 -20.44, 20.36 -20.12 C22.8 -19.81, 24.18 -19.19, 25.32 -18.09 C26.46 -16.99, 26.91 -15.25, 27.22 -13.5 C27.52 -11.74, 27.16 -9.85, 27.16 -7.55 C27.17 -5.25, 27.25 -1, 27.27 0.31" stroke="#E1E1E1" stroke-width="4" fill="none"></path></g></g><mask></mask><g stroke-linecap="round" transform="translate(284.5134240098341 183.3940251315321) rotate(0 8.15759709595731 8.1575970959573)"><path d="M16.32 8.16 C16.32 8.63, 16.27 9.11, 16.19 9.57 C16.11 10.04, 15.98 10.5, 15.82 10.95 C15.66 11.39, 15.46 11.83, 15.22 12.24 C14.99 12.65, 14.71 13.04, 14.41 13.4 C14.1 13.76, 13.76 14.1, 13.4 14.41 C13.04 14.71, 12.65 14.99, 12.24 15.22 C11.83 15.46, 11.39 15.66, 10.95 15.82 C10.5 15.98, 10.04 16.11, 9.57 16.19 C9.11 16.27, 8.63 16.32, 8.16 16.32 C7.69 16.32, 7.21 16.27, 6.74 16.19 C6.28 16.11, 5.81 15.98, 5.37 15.82 C4.92 15.66, 4.49 15.46, 4.08 15.22 C3.67 14.99, 3.28 14.71, 2.91 14.41 C2.55 14.1, 2.21 13.76, 1.91 13.4 C1.61 13.04, 1.33 12.65, 1.09 12.24 C0.86 11.83, 0.65 11.39, 0.49 10.95 C0.33 10.5, 0.21 10.04, 0.12 9.57 C0.04 9.11, 0 8.63, 0 8.16 C0 7.69, 0.04 7.21, 0.12 6.74 C0.21 6.28, 0.33 5.81, 0.49 5.37 C0.65 4.92, 0.86 4.49, 1.09 4.08 C1.33 3.67, 1.61 3.28, 1.91 2.91 C2.21 2.55, 2.55 2.21, 2.91 1.91 C3.28 1.61, 3.67 1.33, 4.08 1.09 C4.49 0.86, 4.92 0.65, 5.37 0.49 C5.81 0.33, 6.28 0.21, 6.74 0.12 C7.21 0.04, 7.69 0, 8.16 0 C8.63 0, 9.11 0.04, 9.57 0.12 C10.04 0.21, 10.5 0.33, 10.95 0.49 C11.39 0.65, 11.83 0.86, 12.24 1.09 C12.65 1.33, 13.04 1.61, 13.4 1.91 C13.76 2.21, 14.1 2.55, 14.41 2.91 C14.71 3.28, 14.99 3.67, 15.22 4.08 C15.46 4.49, 15.66 4.92, 15.82 5.37 C15.98 5.81, 16.11 6.28, 16.19 6.74 C16.27 7.21, 16.29 7.92, 16.32 8.16 C16.34 8.39, 16.34 7.92, 16.32 8.16" stroke="#E1E1E1" stroke-width="4" fill="none"></path></g><g stroke-linecap="round"><g transform="translate(278.83849045154784 220.22575436823308) rotate(0 13.658979023890238 0.046339024152160846)"><path d="M0 0 C4.55 0.02, 22.76 0.08, 27.32 0.09 M0 0 C4.55 0.02, 22.76 0.08, 27.32 0.09" stroke="#E1E1E1" stroke-width="4" fill="none"></path></g></g><mask></mask><g stroke-linecap="round" transform="translate(263.55840655930297 176.37740165786) rotate(0 28.816740293426896 28.816740293426903)"><path d="M57.63 28.82 C57.63 30.48, 57.49 32.18, 57.2 33.82 C56.91 35.46, 56.47 37.11, 55.9 38.67 C55.33 40.24, 54.61 41.78, 53.77 43.23 C52.94 44.67, 51.96 46.06, 50.89 47.34 C49.82 48.62, 48.62 49.82, 47.34 50.89 C46.06 51.96, 44.67 52.94, 43.23 53.77 C41.78 54.61, 40.24 55.33, 38.67 55.9 C37.11 56.47, 35.46 56.91, 33.82 57.2 C32.18 57.49, 30.48 57.63, 28.82 57.63 C27.15 57.63, 25.46 57.49, 23.81 57.2 C22.17 56.91, 20.53 56.47, 18.96 55.9 C17.39 55.33, 15.85 54.61, 14.41 53.77 C12.96 52.94, 11.57 51.96, 10.29 50.89 C9.02 49.82, 7.81 48.62, 6.74 47.34 C5.67 46.06, 4.69 44.67, 3.86 43.23 C3.03 41.78, 2.31 40.24, 1.74 38.67 C1.17 37.11, 0.73 35.46, 0.44 33.82 C0.15 32.18, 0 30.48, 0 28.82 C0 27.15, 0.15 25.46, 0.44 23.81 C0.73 22.17, 1.17 20.53, 1.74 18.96 C2.31 17.39, 3.03 15.85, 3.86 14.41 C4.69 12.96, 5.67 11.57, 6.74 10.29 C7.81 9.02, 9.02 7.81, 10.29 6.74 C11.57 5.67, 12.96 4.69, 14.41 3.86 C15.85 3.03, 17.39 2.31, 18.96 1.74 C20.53 1.17, 22.17 0.73, 23.81 0.44 C25.46 0.15, 27.15 0, 28.82 0 C30.48 0, 32.18 0.15, 33.82 0.44 C35.46 0.73, 37.11 1.17, 38.67 1.74 C40.24 2.31, 41.78 3.03, 43.23 3.86 C44.67 4.69, 46.06 5.67, 47.34 6.74 C48.62 7.81, 49.82 9.02, 50.89 10.29 C51.96 11.57, 52.94 12.96, 53.77 14.41 C54.61 15.85, 55.33 17.39, 55.9 18.96 C56.47 20.53, 56.91 22.17, 57.2 23.81 C57.49 25.46, 57.56 27.98, 57.63 28.82 C57.71 29.65, 57.71 27.98, 57.63 28.82" stroke="#E1E1E1" stroke-width="4" fill="none"></path></g><g stroke-linecap="round"><g transform="translate(323.6696391814621 497.337329080043) rotate(0 13.612134870864164 -9.90850290666043)"><path d="M0 0 C-0.01 -1.94, -0.27 -8.83, -0.04 -11.67 C0.18 -14.51, 0.59 -15.69, 1.35 -17.02 C2.12 -18.35, 2.99 -19.16, 4.54 -19.66 C6.09 -20.15, 8.02 -19.9, 10.66 -19.98 C13.3 -20.06, 17.91 -20.44, 20.36 -20.12 C22.8 -19.81, 24.18 -19.19, 25.32 -18.09 C26.46 -16.99, 26.91 -15.25, 27.22 -13.5 C27.52 -11.74, 27.16 -9.85, 27.16 -7.55 C27.17 -5.25, 27.25 -1, 27.27 0.31 M0 0 C-0.01 -1.94, -0.27 -8.83, -0.04 -11.67 C0.18 -14.51, 0.59 -15.69, 1.35 -17.02 C2.12 -18.35, 2.99 -19.16, 4.54 -19.66 C6.09 -20.15, 8.02 -19.9, 10.66 -19.98 C13.3 -20.06, 17.91 -20.44, 20.36 -20.12 C22.8 -19.81, 24.18 -19.19, 25.32 -18.09 C26.46 -16.99, 26.91 -15.25, 27.22 -13.5 C27.52 -11.74, 27.16 -9.85, 27.16 -7.55 C27.17 -5.25, 27.25 -1, 27.27 0.31" stroke="#E1E1E1" stroke-width="4" fill="none"></path></g></g><mask></mask><g stroke-linecap="round" transform="translate(329.35272374741544 460.68969456129776) rotate(0 8.15759709595731 8.157597095957314)"><path d="M16.32 8.16 C16.32 8.63, 16.27 9.11, 16.19 9.57 C16.11 10.04, 15.98 10.5, 15.82 10.95 C15.66 11.39, 15.46 11.83, 15.22 12.24 C14.99 12.65, 14.71 13.04, 14.41 13.4 C14.1 13.76, 13.76 14.1, 13.4 14.41 C13.04 14.71, 12.65 14.99, 12.24 15.22 C11.83 15.46, 11.39 15.66, 10.95 15.82 C10.5 15.98, 10.04 16.11, 9.57 16.19 C9.11 16.27, 8.63 16.32, 8.16 16.32 C7.69 16.32, 7.21 16.27, 6.74 16.19 C6.28 16.11, 5.81 15.98, 5.37 15.82 C4.92 15.66, 4.49 15.46, 4.08 15.22 C3.67 14.99, 3.28 14.71, 2.91 14.41 C2.55 14.1, 2.21 13.76, 1.91 13.4 C1.61 13.04, 1.33 12.65, 1.09 12.24 C0.86 11.83, 0.65 11.39, 0.49 10.95 C0.33 10.5, 0.21 10.04, 0.12 9.57 C0.04 9.11, 0 8.63, 0 8.16 C0 7.69, 0.04 7.21, 0.12 6.74 C0.21 6.28, 0.33 5.81, 0.49 5.37 C0.65 4.92, 0.86 4.49, 1.09 4.08 C1.33 3.67, 1.61 3.28, 1.91 2.91 C2.21 2.55, 2.55 2.21, 2.91 1.91 C3.28 1.61, 3.67 1.33, 4.08 1.09 C4.49 0.86, 4.92 0.65, 5.37 0.49 C5.81 0.33, 6.28 0.21, 6.74 0.12 C7.21 0.04, 7.69 0, 8.16 0 C8.63 0, 9.11 0.04, 9.57 0.12 C10.04 0.21, 10.5 0.33, 10.95 0.49 C11.39 0.65, 11.83 0.86, 12.24 1.09 C12.65 1.33, 13.04 1.61, 13.4 1.91 C13.76 2.21, 14.1 2.55, 14.41 2.91 C14.71 3.28, 14.99 3.67, 15.22 4.08 C15.46 4.49, 15.66 4.92, 15.82 5.37 C15.98 5.81, 16.11 6.28, 16.19 6.74 C16.27 7.21, 16.29 7.92, 16.32 8.16 C16.34 8.39, 16.34 7.92, 16.32 8.16" stroke="#E1E1E1" stroke-width="4" fill="none"></path></g><g stroke-linecap="round"><g transform="translate(323.67779018912915 497.52142379799943) rotate(0 13.65897902389024 0.04633902415215374)"><path d="M0 0 C4.55 0.02, 22.76 0.08, 27.32 0.09 M0 0 C4.55 0.02, 22.76 0.08, 27.32 0.09" stroke="#E1E1E1" stroke-width="4" fill="none"></path></g></g><mask></mask><g stroke-linecap="round" transform="translate(308.3977062968843 453.6730710876261) rotate(0 28.816740293426896 28.816740293426896)"><path d="M57.63 28.82 C57.63 30.48, 57.49 32.18, 57.2 33.82 C56.91 35.46, 56.47 37.11, 55.9 38.67 C55.33 40.24, 54.61 41.78, 53.77 43.23 C52.94 44.67, 51.96 46.06, 50.89 47.34 C49.82 48.62, 48.62 49.82, 47.34 50.89 C46.06 51.96, 44.67 52.94, 43.23 53.77 C41.78 54.61, 40.24 55.33, 38.67 55.9 C37.11 56.47, 35.46 56.91, 33.82 57.2 C32.18 57.49, 30.48 57.63, 28.82 57.63 C27.15 57.63, 25.46 57.49, 23.81 57.2 C22.17 56.91, 20.53 56.47, 18.96 55.9 C17.39 55.33, 15.85 54.61, 14.41 53.77 C12.96 52.94, 11.57 51.96, 10.29 50.89 C9.02 49.82, 7.81 48.62, 6.74 47.34 C5.67 46.06, 4.69 44.67, 3.86 43.23 C3.03 41.78, 2.31 40.24, 1.74 38.67 C1.17 37.11, 0.73 35.46, 0.44 33.82 C0.15 32.18, 0 30.48, 0 28.82 C0 27.15, 0.15 25.46, 0.44 23.81 C0.73 22.17, 1.17 20.53, 1.74 18.96 C2.31 17.39, 3.03 15.85, 3.86 14.41 C4.69 12.96, 5.67 11.57, 6.74 10.29 C7.81 9.02, 9.02 7.81, 10.29 6.74 C11.57 5.67, 12.96 4.69, 14.41 3.86 C15.85 3.03, 17.39 2.31, 18.96 1.74 C20.53 1.17, 22.17 0.73, 23.81 0.44 C25.46 0.15, 27.15 0, 28.82 0 C30.48 0, 32.18 0.15, 33.82 0.44 C35.46 0.73, 37.11 1.17, 38.67 1.74 C40.24 2.31, 41.78 3.03, 43.23 3.86 C44.67 4.69, 46.06 5.67, 47.34 6.74 C48.62 7.81, 49.82 9.02, 50.89 10.29 C51.96 11.57, 52.94 12.96, 53.77 14.41 C54.61 15.85, 55.33 17.39, 55.9 18.96 C56.47 20.53, 56.91 22.17, 57.2 23.81 C57.49 25.46, 57.56 27.98, 57.63 28.82 C57.71 29.65, 57.71 27.98, 57.63 28.82" stroke="#E1E1E1" stroke-width="4" fill="none"></path></g><g stroke-linecap="round"><g transform="translate(560.8459351618185 53.66425799241688) rotate(0 13.612134870864168 -9.90850290666043)"><path d="M0 0 C-0.01 -1.94, -0.27 -8.83, -0.04 -11.67 C0.18 -14.51, 0.59 -15.69, 1.35 -17.02 C2.12 -18.35, 2.99 -19.16, 4.54 -19.66 C6.09 -20.15, 8.02 -19.9, 10.66 -19.98 C13.3 -20.06, 17.91 -20.44, 20.36 -20.12 C22.8 -19.81, 24.18 -19.19, 25.32 -18.09 C26.46 -16.99, 26.91 -15.25, 27.22 -13.5 C27.52 -11.74, 27.16 -9.85, 27.16 -7.55 C27.17 -5.25, 27.25 -1, 27.27 0.31 M0 0 C-0.01 -1.94, -0.27 -8.83, -0.04 -11.67 C0.18 -14.51, 0.59 -15.69, 1.35 -17.02 C2.12 -18.35, 2.99 -19.16, 4.54 -19.66 C6.09 -20.15, 8.02 -19.9, 10.66 -19.98 C13.3 -20.06, 17.91 -20.44, 20.36 -20.12 C22.8 -19.81, 24.18 -19.19, 25.32 -18.09 C26.46 -16.99, 26.91 -15.25, 27.22 -13.5 C27.52 -11.74, 27.16 -9.85, 27.16 -7.55 C27.17 -5.25, 27.25 -1, 27.27 0.31" stroke="#E1E1E1" stroke-width="4" fill="none"></path></g></g><mask></mask><g stroke-linecap="round" transform="translate(566.5290197277682 17.016623473672098) rotate(0 8.1575970959573 8.157597095957328)"><path d="M16.32 8.16 C16.32 8.63, 16.27 9.11, 16.19 9.57 C16.11 10.04, 15.98 10.5, 15.82 10.95 C15.66 11.39, 15.46 11.83, 15.22 12.24 C14.99 12.65, 14.71 13.04, 14.41 13.4 C14.1 13.76, 13.76 14.1, 13.4 14.41 C13.04 14.71, 12.65 14.99, 12.24 15.22 C11.83 15.46, 11.39 15.66, 10.95 15.82 C10.5 15.98, 10.04 16.11, 9.57 16.19 C9.11 16.27, 8.63 16.32, 8.16 16.32 C7.69 16.32, 7.21 16.27, 6.74 16.19 C6.28 16.11, 5.81 15.98, 5.37 15.82 C4.92 15.66, 4.49 15.46, 4.08 15.22 C3.67 14.99, 3.28 14.71, 2.91 14.41 C2.55 14.1, 2.21 13.76, 1.91 13.4 C1.61 13.04, 1.33 12.65, 1.09 12.24 C0.86 11.83, 0.65 11.39, 0.49 10.95 C0.33 10.5, 0.21 10.04, 0.12 9.57 C0.04 9.11, 0 8.63, 0 8.16 C0 7.69, 0.04 7.21, 0.12 6.74 C0.21 6.28, 0.33 5.81, 0.49 5.37 C0.65 4.92, 0.86 4.49, 1.09 4.08 C1.33 3.67, 1.61 3.28, 1.91 2.91 C2.21 2.55, 2.55 2.21, 2.91 1.91 C3.28 1.61, 3.67 1.33, 4.08 1.09 C4.49 0.86, 4.92 0.65, 5.37 0.49 C5.81 0.33, 6.28 0.21, 6.74 0.12 C7.21 0.04, 7.69 0, 8.16 0 C8.63 0, 9.11 0.04, 9.57 0.12 C10.04 0.21, 10.5 0.33, 10.95 0.49 C11.39 0.65, 11.83 0.86, 12.24 1.09 C12.65 1.33, 13.04 1.61, 13.4 1.91 C13.76 2.21, 14.1 2.55, 14.41 2.91 C14.71 3.28, 14.99 3.67, 15.22 4.08 C15.46 4.49, 15.66 4.92, 15.82 5.37 C15.98 5.81, 16.11 6.28, 16.19 6.74 C16.27 7.21, 16.29 7.92, 16.32 8.16 C16.34 8.39, 16.34 7.92, 16.32 8.16" stroke="#E1E1E1" stroke-width="4" fill="none"></path></g><g stroke-linecap="round"><g transform="translate(560.8540861694783 53.84835271037332) rotate(0 13.658979023890225 0.046339024152132424)"><path d="M0 0 C4.55 0.02, 22.76 0.08, 27.32 0.09 M0 0 C4.55 0.02, 22.76 0.08, 27.32 0.09" stroke="#E1E1E1" stroke-width="4" fill="none"></path></g></g><mask></mask><g stroke-linecap="round" transform="translate(545.574002277237 10) rotate(0 28.816740293426903 28.816740293426903)"><path d="M57.63 28.82 C57.63 30.48, 57.49 32.18, 57.2 33.82 C56.91 35.46, 56.47 37.11, 55.9 38.67 C55.33 40.24, 54.61 41.78, 53.77 43.23 C52.94 44.67, 51.96 46.06, 50.89 47.34 C49.82 48.62, 48.62 49.82, 47.34 50.89 C46.06 51.96, 44.67 52.94, 43.23 53.77 C41.78 54.61, 40.24 55.33, 38.67 55.9 C37.11 56.47, 35.46 56.91, 33.82 57.2 C32.18 57.49, 30.48 57.63, 28.82 57.63 C27.15 57.63, 25.46 57.49, 23.81 57.2 C22.17 56.91, 20.53 56.47, 18.96 55.9 C17.39 55.33, 15.85 54.61, 14.41 53.77 C12.96 52.94, 11.57 51.96, 10.29 50.89 C9.02 49.82, 7.81 48.62, 6.74 47.34 C5.67 46.06, 4.69 44.67, 3.86 43.23 C3.03 41.78, 2.31 40.24, 1.74 38.67 C1.17 37.11, 0.73 35.46, 0.44 33.82 C0.15 32.18, 0 30.48, 0 28.82 C0 27.15, 0.15 25.46, 0.44 23.81 C0.73 22.17, 1.17 20.53, 1.74 18.96 C2.31 17.39, 3.03 15.85, 3.86 14.41 C4.69 12.96, 5.67 11.57, 6.74 10.29 C7.81 9.02, 9.02 7.81, 10.29 6.74 C11.57 5.67, 12.96 4.69, 14.41 3.86 C15.85 3.03, 17.39 2.31, 18.96 1.74 C20.53 1.17, 22.17 0.73, 23.81 0.44 C25.46 0.15, 27.15 0, 28.82 0 C30.48 0, 32.18 0.15, 33.82 0.44 C35.46 0.73, 37.11 1.17, 38.67 1.74 C40.24 2.31, 41.78 3.03, 43.23 3.86 C44.67 4.69, 46.06 5.67, 47.34 6.74 C48.62 7.81, 49.82 9.02, 50.89 10.29 C51.96 11.57, 52.94 12.96, 53.77 14.41 C54.61 15.85, 55.33 17.39, 55.9 18.96 C56.47 20.53, 56.91 22.17, 57.2 23.81 C57.49 25.46, 57.56 27.98, 57.63 28.82 C57.71 29.65, 57.71 27.98, 57.63 28.82" stroke="#E1E1E1" stroke-width="4" fill="none"></path></g><g stroke-linecap="round" transform="translate(619.9128413158578 174.01743851377682) rotate(0 28.816740293426903 28.816740293426903)"><path d="M57.63 28.82 C57.63 30.48, 57.49 32.18, 57.2 33.82 C56.91 35.46, 56.47 37.11, 55.9 38.67 C55.33 40.24, 54.61 41.78, 53.77 43.23 C52.94 44.67, 51.96 46.06, 50.89 47.34 C49.82 48.62, 48.62 49.82, 47.34 50.89 C46.06 51.96, 44.67 52.94, 43.23 53.77 C41.78 54.61, 40.24 55.33, 38.67 55.9 C37.11 56.47, 35.46 56.91, 33.82 57.2 C32.18 57.49, 30.48 57.63, 28.82 57.63 C27.15 57.63, 25.46 57.49, 23.81 57.2 C22.17 56.91, 20.53 56.47, 18.96 55.9 C17.39 55.33, 15.85 54.61, 14.41 53.77 C12.96 52.94, 11.57 51.96, 10.29 50.89 C9.02 49.82, 7.81 48.62, 6.74 47.34 C5.67 46.06, 4.69 44.67, 3.86 43.23 C3.03 41.78, 2.31 40.24, 1.74 38.67 C1.17 37.11, 0.73 35.46, 0.44 33.82 C0.15 32.18, 0 30.48, 0 28.82 C0 27.15, 0.15 25.46, 0.44 23.81 C0.73 22.17, 1.17 20.53, 1.74 18.96 C2.31 17.39, 3.03 15.85, 3.86 14.41 C4.69 12.96, 5.67 11.57, 6.74 10.29 C7.81 9.02, 9.02 7.81, 10.29 6.74 C11.57 5.67, 12.96 4.69, 14.41 3.86 C15.85 3.03, 17.39 2.31, 18.96 1.74 C20.53 1.17, 22.17 0.73, 23.81 0.44 C25.46 0.15, 27.15 0, 28.82 0 C30.48 0, 32.18 0.15, 33.82 0.44 C35.46 0.73, 37.11 1.17, 38.67 1.74 C40.24 2.31, 41.78 3.03, 43.23 3.86 C44.67 4.69, 46.06 5.67, 47.34 6.74 C48.62 7.81, 49.82 9.02, 50.89 10.29 C51.96 11.57, 52.94 12.96, 53.77 14.41 C54.61 15.85, 55.33 17.39, 55.9 18.96 C56.47 20.53, 56.91 22.17, 57.2 23.81 C57.49 25.46, 57.56 27.98, 57.63 28.82 C57.71 29.65, 57.71 27.98, 57.63 28.82" stroke="#E1E1E1" stroke-width="4" fill="none"></path></g><g stroke-linecap="round"><g transform="translate(631.9595719163844 221.9931060629151) rotate(0 15.86687596675975 -11.549767037114208)"><path d="M0 0 C-0.01 -2.27, -0.31 -10.3, -0.05 -13.6 C0.21 -16.91, 0.69 -18.29, 1.58 -19.84 C2.47 -21.39, 3.48 -22.34, 5.29 -22.91 C7.1 -23.49, 9.35 -23.2, 12.43 -23.29 C15.5 -23.38, 20.88 -23.82, 23.73 -23.46 C26.58 -23.09, 28.18 -22.37, 29.51 -21.09 C30.85 -19.8, 31.37 -17.78, 31.73 -15.73 C32.08 -13.68, 31.65 -11.48, 31.66 -8.8 C31.67 -6.12, 31.76 -1.17, 31.78 0.36 M0 0 C-0.01 -2.27, -0.31 -10.3, -0.05 -13.6 C0.21 -16.91, 0.69 -18.29, 1.58 -19.84 C2.47 -21.39, 3.48 -22.34, 5.29 -22.91 C7.1 -23.49, 9.35 -23.2, 12.43 -23.29 C15.5 -23.38, 20.88 -23.82, 23.73 -23.46 C26.58 -23.09, 28.18 -22.37, 29.51 -21.09 C30.85 -19.8, 31.37 -17.78, 31.73 -15.73 C32.08 -13.68, 31.65 -11.48, 31.66 -8.8 C31.67 -6.12, 31.76 -1.17, 31.78 0.36" stroke="#E1E1E1" stroke-width="4" fill="none"></path></g></g><mask></mask><g stroke-linecap="round" transform="translate(638.58401391406 179.29120152936912) rotate(0 9.508837705200989 9.508837705200989)"><path d="M19.02 9.51 C19.02 10.06, 18.97 10.62, 18.87 11.16 C18.78 11.7, 18.63 12.24, 18.44 12.76 C18.26 13.28, 18.02 13.79, 17.74 14.26 C17.47 14.74, 17.15 15.2, 16.79 15.62 C16.44 16.04, 16.04 16.44, 15.62 16.79 C15.2 17.15, 14.74 17.47, 14.26 17.74 C13.79 18.02, 13.28 18.26, 12.76 18.44 C12.24 18.63, 11.7 18.78, 11.16 18.87 C10.62 18.97, 10.06 19.02, 9.51 19.02 C8.96 19.02, 8.4 18.97, 7.86 18.87 C7.32 18.78, 6.77 18.63, 6.26 18.44 C5.74 18.26, 5.23 18.02, 4.75 17.74 C4.28 17.47, 3.82 17.15, 3.4 16.79 C2.98 16.44, 2.58 16.04, 2.22 15.62 C1.87 15.2, 1.55 14.74, 1.27 14.26 C1 13.79, 0.76 13.28, 0.57 12.76 C0.39 12.24, 0.24 11.7, 0.14 11.16 C0.05 10.62, 0 10.06, 0 9.51 C0 8.96, 0.05 8.4, 0.14 7.86 C0.24 7.32, 0.39 6.77, 0.57 6.26 C0.76 5.74, 1 5.23, 1.27 4.75 C1.55 4.28, 1.87 3.82, 2.22 3.4 C2.58 2.98, 2.98 2.58, 3.4 2.22 C3.82 1.87, 4.28 1.55, 4.75 1.27 C5.23 1, 5.74 0.76, 6.26 0.57 C6.77 0.39, 7.32 0.24, 7.86 0.14 C8.4 0.05, 8.96 0, 9.51 0 C10.06 0, 10.62 0.05, 11.16 0.14 C11.7 0.24, 12.24 0.39, 12.76 0.57 C13.28 0.76, 13.79 1, 14.26 1.27 C14.74 1.55, 15.2 1.87, 15.62 2.22 C16.04 2.58, 16.44 2.98, 16.79 3.4 C17.15 3.82, 17.47 4.28, 17.74 4.75 C18.02 5.23, 18.26 5.74, 18.44 6.26 C18.63 6.77, 18.78 7.32, 18.87 7.86 C18.97 8.4, 18.99 9.23, 19.02 9.51 C19.04 9.78, 19.04 9.23, 19.02 9.51" stroke="#E1E1E1" stroke-width="4" fill="none"></path></g><g stroke-linecap="round"><g transform="translate(631.9870163112173 222.21367567548577) rotate(0 5.769001410258227 0.02976709330249605)"><path d="M0 0 C1.92 0.01, 9.62 0.05, 11.54 0.06 M0 0 C1.92 0.01, 9.62 0.05, 11.54 0.06" stroke="#E1E1E1" stroke-width="4" fill="none"></path></g></g><mask></mask><g stroke-linecap="round"><g transform="translate(652.1740861500584 222.40231743363347) rotate(0 5.769001410258227 0.02976709330249605)"><path d="M0 0 C1.92 0.01, 9.62 0.05, 11.54 0.06 M0 0 C1.92 0.01, 9.62 0.05, 11.54 0.06" stroke="#E1E1E1" stroke-width="4" fill="none"></path></g></g><mask></mask></svg>