<svg version="1.1" xmlns="http://www.w3.org/2000/svg" viewBox="0 0 935.6256157702032 956.2927863794114" width="935.6256157702032" height="956.2927863794114" class="excalidraw-svg"><!-- svg-source:excalidraw --><metadata></metadata><defs><style class="style-fonts">
      </style></defs><rect x="0" y="0" width="935.6256157702032" height="956.2927863794114" fill="#000000"></rect><g stroke-linecap="round"><g transform="translate(10.768133871789246 607.3271279573448) rotate(0 77.4508260395474 -56.377764562024765)"><path d="M0 0 C-0.04 -11.07, -1.53 -50.26, -0.25 -66.4 C1.04 -82.54, 3.36 -89.28, 7.71 -96.86 C12.05 -104.43, 16.99 -109.03, 25.81 -111.84 C34.64 -114.64, 45.65 -113.24, 60.65 -113.69 C75.65 -114.13, 101.92 -116.3, 115.82 -114.5 C129.72 -112.71, 137.56 -109.21, 144.07 -102.93 C150.57 -96.64, 153.11 -86.79, 154.86 -76.8 C156.61 -66.8, 154.51 -56.05, 154.56 -42.96 C154.6 -29.87, 155.05 -5.7, 155.15 1.75 M0 0 C-0.04 -11.07, -1.53 -50.26, -0.25 -66.4 C1.04 -82.54, 3.36 -89.28, 7.71 -96.86 C12.05 -104.43, 16.99 -109.03, 25.81 -111.84 C34.64 -114.64, 45.65 -113.24, 60.65 -113.69 C75.65 -114.13, 101.92 -116.3, 115.82 -114.5 C129.72 -112.71, 137.56 -109.21, 144.07 -102.93 C150.57 -96.64, 153.11 -86.79, 154.86 -76.8 C156.61 -66.8, 154.51 -56.05, 154.56 -42.96 C154.6 -29.87, 155.05 -5.7, 155.15 1.75" stroke="#E1E1E1" stroke-width="4" fill="none"></path></g></g><mask></mask><g stroke-linecap="round" transform="translate(43.10395762473024 398.80806810380477) rotate(0 46.41539623090702 46.41539623090702)"><path d="M92.83 46.42 C92.83 48.62, 92.67 50.84, 92.36 53.02 C92.04 55.2, 91.57 57.38, 90.95 59.49 C90.33 61.6, 89.55 63.69, 88.64 65.7 C87.72 67.7, 86.65 69.66, 85.46 71.51 C84.27 73.36, 82.94 75.15, 81.49 76.81 C80.05 78.48, 78.48 80.05, 76.81 81.49 C75.15 82.94, 73.36 84.27, 71.51 85.46 C69.66 86.65, 67.7 87.72, 65.7 88.64 C63.69 89.55, 61.6 90.33, 59.49 90.95 C57.38 91.57, 55.2 92.04, 53.02 92.36 C50.84 92.67, 48.62 92.83, 46.42 92.83 C44.21 92.83, 41.99 92.67, 39.81 92.36 C37.63 92.04, 35.45 91.57, 33.34 90.95 C31.23 90.33, 29.14 89.55, 27.13 88.64 C25.13 87.72, 23.17 86.65, 21.32 85.46 C19.47 84.27, 17.68 82.94, 16.02 81.49 C14.36 80.05, 12.78 78.48, 11.34 76.81 C9.9 75.15, 8.56 73.36, 7.37 71.51 C6.18 69.66, 5.11 67.7, 4.19 65.7 C3.28 63.69, 2.5 61.6, 1.88 59.49 C1.26 57.38, 0.79 55.2, 0.47 53.02 C0.16 50.84, 0 48.62, 0 46.42 C0 44.21, 0.16 41.99, 0.47 39.81 C0.79 37.63, 1.26 35.45, 1.88 33.34 C2.5 31.23, 3.28 29.14, 4.19 27.13 C5.11 25.13, 6.18 23.17, 7.37 21.32 C8.56 19.47, 9.9 17.68, 11.34 16.02 C12.78 14.36, 14.36 12.78, 16.02 11.34 C17.68 9.9, 19.47 8.56, 21.32 7.37 C23.17 6.18, 25.13 5.11, 27.13 4.19 C29.14 3.28, 31.23 2.5, 33.34 1.88 C35.45 1.26, 37.63 0.79, 39.81 0.47 C41.99 0.16, 44.21 0, 46.42 0 C48.62 0, 50.84 0.16, 53.02 0.47 C55.2 0.79, 57.38 1.26, 59.49 1.88 C61.6 2.5, 63.69 3.28, 65.7 4.19 C67.7 5.11, 69.66 6.18, 71.51 7.37 C73.36 8.56, 75.15 9.9, 76.81 11.34 C78.48 12.78, 80.05 14.36, 81.49 16.02 C82.94 17.68, 84.27 19.47, 85.46 21.32 C86.65 23.17, 87.72 25.13, 88.64 27.13 C89.55 29.14, 90.33 31.23, 90.95 33.34 C91.57 35.45, 92.04 37.63, 92.36 39.81 C92.67 41.99, 92.75 45.31, 92.83 46.42 C92.91 47.52, 92.91 45.31, 92.83 46.42" stroke="#E1E1E1" stroke-width="4" fill="none"></path></g><g stroke-linecap="round"><g transform="translate(10.814511775229107 608.3745968599471) rotate(0 77.71736162572924 0.2636614853216557)"><path d="M0 0 C25.91 0.09, 129.53 0.44, 155.43 0.53 M0 0 C25.91 0.09, 129.53 0.44, 155.43 0.53" stroke="#E1E1E1" stroke-width="4" fill="none"></path></g></g><mask></mask><g stroke-linecap="round"><g transform="translate(279.97619910351284 609.2540252939691) rotate(0 77.45082603954741 -56.377764562024765)"><path d="M0 0 C-0.04 -11.07, -1.53 -50.26, -0.25 -66.4 C1.04 -82.54, 3.36 -89.28, 7.71 -96.86 C12.05 -104.43, 16.99 -109.03, 25.81 -111.84 C34.64 -114.64, 45.65 -113.24, 60.65 -113.69 C75.65 -114.13, 101.92 -116.3, 115.82 -114.5 C129.72 -112.71, 137.56 -109.21, 144.07 -102.93 C150.57 -96.64, 153.11 -86.79, 154.86 -76.8 C156.61 -66.8, 154.51 -56.05, 154.56 -42.96 C154.6 -29.87, 155.05 -5.7, 155.15 1.75 M0 0 C-0.04 -11.07, -1.53 -50.26, -0.25 -66.4 C1.04 -82.54, 3.36 -89.28, 7.71 -96.86 C12.05 -104.43, 16.99 -109.03, 25.81 -111.84 C34.64 -114.64, 45.65 -113.24, 60.65 -113.69 C75.65 -114.13, 101.92 -116.3, 115.82 -114.5 C129.72 -112.71, 137.56 -109.21, 144.07 -102.93 C150.57 -96.64, 153.11 -86.79, 154.86 -76.8 C156.61 -66.8, 154.51 -56.05, 154.56 -42.96 C154.6 -29.87, 155.05 -5.7, 155.15 1.75" stroke="#E1E1E1" stroke-width="4" fill="none"></path></g></g><mask></mask><g stroke-linecap="round" transform="translate(312.312022856452 400.73496544042723) rotate(0 46.41539623090702 46.41539623090702)"><path d="M92.83 46.42 C92.83 48.62, 92.67 50.84, 92.36 53.02 C92.04 55.2, 91.57 57.38, 90.95 59.49 C90.33 61.6, 89.55 63.69, 88.64 65.7 C87.72 67.7, 86.65 69.66, 85.46 71.51 C84.27 73.36, 82.94 75.15, 81.49 76.81 C80.05 78.48, 78.48 80.05, 76.81 81.49 C75.15 82.94, 73.36 84.27, 71.51 85.46 C69.66 86.65, 67.7 87.72, 65.7 88.64 C63.69 89.55, 61.6 90.33, 59.49 90.95 C57.38 91.57, 55.2 92.04, 53.02 92.36 C50.84 92.67, 48.62 92.83, 46.42 92.83 C44.21 92.83, 41.99 92.67, 39.81 92.36 C37.63 92.04, 35.45 91.57, 33.34 90.95 C31.23 90.33, 29.14 89.55, 27.13 88.64 C25.13 87.72, 23.17 86.65, 21.32 85.46 C19.47 84.27, 17.68 82.94, 16.02 81.49 C14.36 80.05, 12.78 78.48, 11.34 76.81 C9.9 75.15, 8.56 73.36, 7.37 71.51 C6.18 69.66, 5.11 67.7, 4.19 65.7 C3.28 63.69, 2.5 61.6, 1.88 59.49 C1.26 57.38, 0.79 55.2, 0.47 53.02 C0.16 50.84, 0 48.62, 0 46.42 C0 44.21, 0.16 41.99, 0.47 39.81 C0.79 37.63, 1.26 35.45, 1.88 33.34 C2.5 31.23, 3.28 29.14, 4.19 27.13 C5.11 25.13, 6.18 23.17, 7.37 21.32 C8.56 19.47, 9.9 17.68, 11.34 16.02 C12.78 14.36, 14.36 12.78, 16.02 11.34 C17.68 9.9, 19.47 8.56, 21.32 7.37 C23.17 6.18, 25.13 5.11, 27.13 4.19 C29.14 3.28, 31.23 2.5, 33.34 1.88 C35.45 1.26, 37.63 0.79, 39.81 0.47 C41.99 0.16, 44.21 0, 46.42 0 C48.62 0, 50.84 0.16, 53.02 0.47 C55.2 0.79, 57.38 1.26, 59.49 1.88 C61.6 2.5, 63.69 3.28, 65.7 4.19 C67.7 5.11, 69.66 6.18, 71.51 7.37 C73.36 8.56, 75.15 9.9, 76.81 11.34 C78.48 12.78, 80.05 14.36, 81.49 16.02 C82.94 17.68, 84.27 19.47, 85.46 21.32 C86.65 23.17, 87.72 25.13, 88.64 27.13 C89.55 29.14, 90.33 31.23, 90.95 33.34 C91.57 35.45, 92.04 37.63, 92.36 39.81 C92.67 41.99, 92.75 45.31, 92.83 46.42 C92.91 47.52, 92.91 45.31, 92.83 46.42" stroke="#E1E1E1" stroke-width="4" fill="none"></path></g><g stroke-linecap="round"><g transform="translate(280.02257700694906 610.3014941965705) rotate(0 77.71736162572924 0.2636614853216557)"><path d="M0 0 C25.91 0.09, 129.53 0.44, 155.43 0.53 M0 0 C25.91 0.09, 129.53 0.44, 155.43 0.53" stroke="#E1E1E1" stroke-width="4" fill="none"></path></g></g><mask></mask><g stroke-linecap="round"><g transform="translate(145.34545116109518 927.7873633851307) rotate(0 77.4508260395474 -56.377764562024765)"><path d="M0 0 C-0.04 -11.07, -1.53 -50.26, -0.25 -66.4 C1.04 -82.54, 3.36 -89.28, 7.71 -96.86 C12.05 -104.43, 16.99 -109.03, 25.81 -111.84 C34.64 -114.64, 45.65 -113.24, 60.65 -113.69 C75.65 -114.13, 101.92 -116.3, 115.82 -114.5 C129.72 -112.71, 137.56 -109.21, 144.07 -102.93 C150.57 -96.64, 153.11 -86.79, 154.86 -76.8 C156.61 -66.8, 154.51 -56.05, 154.56 -42.96 C154.6 -29.87, 155.05 -5.7, 155.15 1.75 M0 0 C-0.04 -11.07, -1.53 -50.26, -0.25 -66.4 C1.04 -82.54, 3.36 -89.28, 7.71 -96.86 C12.05 -104.43, 16.99 -109.03, 25.81 -111.84 C34.64 -114.64, 45.65 -113.24, 60.65 -113.69 C75.65 -114.13, 101.92 -116.3, 115.82 -114.5 C129.72 -112.71, 137.56 -109.21, 144.07 -102.93 C150.57 -96.64, 153.11 -86.79, 154.86 -76.8 C156.61 -66.8, 154.51 -56.05, 154.56 -42.96 C154.6 -29.87, 155.05 -5.7, 155.15 1.75" stroke="#E1E1E1" stroke-width="4" fill="none"></path></g></g><mask></mask><g stroke-linecap="round" transform="translate(177.68127491403618 719.3469755914878) rotate(0 46.41539623090702 46.41539623090702)"><path d="M92.83 46.42 C92.83 48.62, 92.67 50.84, 92.36 53.02 C92.04 55.2, 91.57 57.38, 90.95 59.49 C90.33 61.6, 89.55 63.69, 88.64 65.7 C87.72 67.7, 86.65 69.66, 85.46 71.51 C84.27 73.36, 82.94 75.15, 81.49 76.81 C80.05 78.48, 78.48 80.05, 76.81 81.49 C75.15 82.94, 73.36 84.27, 71.51 85.46 C69.66 86.65, 67.7 87.72, 65.7 88.64 C63.69 89.55, 61.6 90.33, 59.49 90.95 C57.38 91.57, 55.2 92.04, 53.02 92.36 C50.84 92.67, 48.62 92.83, 46.42 92.83 C44.21 92.83, 41.99 92.67, 39.81 92.36 C37.63 92.04, 35.45 91.57, 33.34 90.95 C31.23 90.33, 29.14 89.55, 27.13 88.64 C25.13 87.72, 23.17 86.65, 21.32 85.46 C19.47 84.27, 17.68 82.94, 16.02 81.49 C14.36 80.05, 12.78 78.48, 11.34 76.81 C9.9 75.15, 8.56 73.36, 7.37 71.51 C6.18 69.66, 5.11 67.7, 4.19 65.7 C3.28 63.69, 2.5 61.6, 1.88 59.49 C1.26 57.38, 0.79 55.2, 0.47 53.02 C0.16 50.84, 0 48.62, 0 46.42 C0 44.21, 0.16 41.99, 0.47 39.81 C0.79 37.63, 1.26 35.45, 1.88 33.34 C2.5 31.23, 3.28 29.14, 4.19 27.13 C5.11 25.13, 6.18 23.17, 7.37 21.32 C8.56 19.47, 9.9 17.68, 11.34 16.02 C12.78 14.36, 14.36 12.78, 16.02 11.34 C17.68 9.9, 19.47 8.56, 21.32 7.37 C23.17 6.18, 25.13 5.11, 27.13 4.19 C29.14 3.28, 31.23 2.5, 33.34 1.88 C35.45 1.26, 37.63 0.79, 39.81 0.47 C41.99 0.16, 44.21 0, 46.42 0 C48.62 0, 50.84 0.16, 53.02 0.47 C55.2 0.79, 57.38 1.26, 59.49 1.88 C61.6 2.5, 63.69 3.28, 65.7 4.19 C67.7 5.11, 69.66 6.18, 71.51 7.37 C73.36 8.56, 75.15 9.9, 76.81 11.34 C78.48 12.78, 80.05 14.36, 81.49 16.02 C82.94 17.68, 84.27 19.47, 85.46 21.32 C86.65 23.17, 87.72 25.13, 88.64 27.13 C89.55 29.14, 90.33 31.23, 90.95 33.34 C91.57 35.45, 92.04 37.63, 92.36 39.81 C92.67 41.99, 92.75 45.31, 92.83 46.42 C92.91 47.52, 92.91 45.31, 92.83 46.42" stroke="#E1E1E1" stroke-width="4" fill="none"></path></g><g stroke-linecap="round"><g transform="translate(145.47941521643122 928.864027671699) rotate(0 28.16017000346281 0.14530182059175445)"><path d="M0 0 C9.39 0.05, 46.93 0.24, 56.32 0.29 M0 0 C9.39 0.05, 46.93 0.24, 56.32 0.29" stroke="#E1E1E1" stroke-width="4" fill="none"></path></g></g><mask></mask><g stroke-linecap="round"><g transform="translate(244.01836123274268 929.7848428356103) rotate(0 28.160170003462795 0.14530182059175445)"><path d="M0 0 C9.39 0.05, 46.93 0.24, 56.32 0.29 M0 0 C9.39 0.05, 46.93 0.24, 56.32 0.29" stroke="#E1E1E1" stroke-width="4" fill="none"></path></g></g><mask></mask><g stroke-linecap="round"><g transform="translate(500.05518812522394 609.5076556129964) rotate(0 77.45082603954741 -56.377764562024765)"><path d="M0 0 C-0.04 -11.07, -1.53 -50.26, -0.25 -66.4 C1.04 -82.54, 3.36 -89.28, 7.71 -96.86 C12.05 -104.43, 16.99 -109.03, 25.81 -111.84 C34.64 -114.64, 45.65 -113.24, 60.65 -113.69 C75.65 -114.13, 101.92 -116.3, 115.82 -114.5 C129.72 -112.71, 137.56 -109.21, 144.07 -102.93 C150.57 -96.64, 153.11 -86.79, 154.86 -76.8 C156.61 -66.8, 154.51 -56.05, 154.56 -42.96 C154.6 -29.87, 155.05 -5.7, 155.15 1.75 M0 0 C-0.04 -11.07, -1.53 -50.26, -0.25 -66.4 C1.04 -82.54, 3.36 -89.28, 7.71 -96.86 C12.05 -104.43, 16.99 -109.03, 25.81 -111.84 C34.64 -114.64, 45.65 -113.24, 60.65 -113.69 C75.65 -114.13, 101.92 -116.3, 115.82 -114.5 C129.72 -112.71, 137.56 -109.21, 144.07 -102.93 C150.57 -96.64, 153.11 -86.79, 154.86 -76.8 C156.61 -66.8, 154.51 -56.05, 154.56 -42.96 C154.6 -29.87, 155.05 -5.7, 155.15 1.75" stroke="#E1E1E1" stroke-width="4" fill="none"></path></g></g><mask></mask><g stroke-linecap="round" transform="translate(532.3910118781668 401.06726781935345) rotate(0 46.41539623090702 46.41539623090702)"><path d="M92.83 46.42 C92.83 48.62, 92.67 50.84, 92.36 53.02 C92.04 55.2, 91.57 57.38, 90.95 59.49 C90.33 61.6, 89.55 63.69, 88.64 65.7 C87.72 67.7, 86.65 69.66, 85.46 71.51 C84.27 73.36, 82.94 75.15, 81.49 76.81 C80.05 78.48, 78.48 80.05, 76.81 81.49 C75.15 82.94, 73.36 84.27, 71.51 85.46 C69.66 86.65, 67.7 87.72, 65.7 88.64 C63.69 89.55, 61.6 90.33, 59.49 90.95 C57.38 91.57, 55.2 92.04, 53.02 92.36 C50.84 92.67, 48.62 92.83, 46.42 92.83 C44.21 92.83, 41.99 92.67, 39.81 92.36 C37.63 92.04, 35.45 91.57, 33.34 90.95 C31.23 90.33, 29.14 89.55, 27.13 88.64 C25.13 87.72, 23.17 86.65, 21.32 85.46 C19.47 84.27, 17.68 82.94, 16.02 81.49 C14.36 80.05, 12.78 78.48, 11.34 76.81 C9.9 75.15, 8.56 73.36, 7.37 71.51 C6.18 69.66, 5.11 67.7, 4.19 65.7 C3.28 63.69, 2.5 61.6, 1.88 59.49 C1.26 57.38, 0.79 55.2, 0.47 53.02 C0.16 50.84, 0 48.62, 0 46.42 C0 44.21, 0.16 41.99, 0.47 39.81 C0.79 37.63, 1.26 35.45, 1.88 33.34 C2.5 31.23, 3.28 29.14, 4.19 27.13 C5.11 25.13, 6.18 23.17, 7.37 21.32 C8.56 19.47, 9.9 17.68, 11.34 16.02 C12.78 14.36, 14.36 12.78, 16.02 11.34 C17.68 9.9, 19.47 8.56, 21.32 7.37 C23.17 6.18, 25.13 5.11, 27.13 4.19 C29.14 3.28, 31.23 2.5, 33.34 1.88 C35.45 1.26, 37.63 0.79, 39.81 0.47 C41.99 0.16, 44.21 0, 46.42 0 C48.62 0, 50.84 0.16, 53.02 0.47 C55.2 0.79, 57.38 1.26, 59.49 1.88 C61.6 2.5, 63.69 3.28, 65.7 4.19 C67.7 5.11, 69.66 6.18, 71.51 7.37 C73.36 8.56, 75.15 9.9, 76.81 11.34 C78.48 12.78, 80.05 14.36, 81.49 16.02 C82.94 17.68, 84.27 19.47, 85.46 21.32 C86.65 23.17, 87.72 25.13, 88.64 27.13 C89.55 29.14, 90.33 31.23, 90.95 33.34 C91.57 35.45, 92.04 37.63, 92.36 39.81 C92.67 41.99, 92.75 45.31, 92.83 46.42 C92.91 47.52, 92.91 45.31, 92.83 46.42" stroke="#E1E1E1" stroke-width="4" fill="none"></path></g><g stroke-linecap="round"><g transform="translate(500.18915218056 610.5843198995638) rotate(0 28.1601700034628 0.14530182059175445)"><path d="M0 0 C9.39 0.05, 46.93 0.24, 56.32 0.29 M0 0 C9.39 0.05, 46.93 0.24, 56.32 0.29" stroke="#E1E1E1" stroke-width="4" fill="none"></path></g></g><mask></mask><g stroke-linecap="round"><g transform="translate(598.7280981968714 611.5051350634733) rotate(0 28.160170003462795 0.14530182059175445)"><path d="M0 0 C9.39 0.05, 46.93 0.24, 56.32 0.29 M0 0 C9.39 0.05, 46.93 0.24, 56.32 0.29" stroke="#E1E1E1" stroke-width="4" fill="none"></path></g></g><mask></mask><g stroke-linecap="round"><g transform="translate(236.6612898967786 220.59923870778516) rotate(0 77.4508260395474 -56.377764562024765)"><path d="M0 0 C-0.04 -11.07, -1.53 -50.26, -0.25 -66.4 C1.04 -82.54, 3.36 -89.28, 7.71 -96.86 C12.05 -104.43, 16.99 -109.03, 25.81 -111.84 C34.64 -114.64, 45.65 -113.24, 60.65 -113.69 C75.65 -114.13, 101.92 -116.3, 115.82 -114.5 C129.72 -112.71, 137.56 -109.21, 144.07 -102.93 C150.57 -96.64, 153.11 -86.79, 154.86 -76.8 C156.61 -66.8, 154.51 -56.05, 154.56 -42.96 C154.6 -29.87, 155.05 -5.7, 155.15 1.75 M0 0 C-0.04 -11.07, -1.53 -50.26, -0.25 -66.4 C1.04 -82.54, 3.36 -89.28, 7.71 -96.86 C12.05 -104.43, 16.99 -109.03, 25.81 -111.84 C34.64 -114.64, 45.65 -113.24, 60.65 -113.69 C75.65 -114.13, 101.92 -116.3, 115.82 -114.5 C129.72 -112.71, 137.56 -109.21, 144.07 -102.93 C150.57 -96.64, 153.11 -86.79, 154.86 -76.8 C156.61 -66.8, 154.51 -56.05, 154.56 -42.96 C154.6 -29.87, 155.05 -5.7, 155.15 1.75" stroke="#E1E1E1" stroke-width="4" fill="none"></path></g></g><mask></mask><g stroke-linecap="round" transform="translate(268.9971136497178 12.158850914142022) rotate(0 46.41539623090702 46.41539623090702)"><path d="M92.83 46.42 C92.83 48.62, 92.67 50.84, 92.36 53.02 C92.04 55.2, 91.57 57.38, 90.95 59.49 C90.33 61.6, 89.55 63.69, 88.64 65.7 C87.72 67.7, 86.65 69.66, 85.46 71.51 C84.27 73.36, 82.94 75.15, 81.49 76.81 C80.05 78.48, 78.48 80.05, 76.81 81.49 C75.15 82.94, 73.36 84.27, 71.51 85.46 C69.66 86.65, 67.7 87.72, 65.7 88.64 C63.69 89.55, 61.6 90.33, 59.49 90.95 C57.38 91.57, 55.2 92.04, 53.02 92.36 C50.84 92.67, 48.62 92.83, 46.42 92.83 C44.21 92.83, 41.99 92.67, 39.81 92.36 C37.63 92.04, 35.45 91.57, 33.34 90.95 C31.23 90.33, 29.14 89.55, 27.13 88.64 C25.13 87.72, 23.17 86.65, 21.32 85.46 C19.47 84.27, 17.68 82.94, 16.02 81.49 C14.36 80.05, 12.78 78.48, 11.34 76.81 C9.9 75.15, 8.56 73.36, 7.37 71.51 C6.18 69.66, 5.11 67.7, 4.19 65.7 C3.28 63.69, 2.5 61.6, 1.88 59.49 C1.26 57.38, 0.79 55.2, 0.47 53.02 C0.16 50.84, 0 48.62, 0 46.42 C0 44.21, 0.16 41.99, 0.47 39.81 C0.79 37.63, 1.26 35.45, 1.88 33.34 C2.5 31.23, 3.28 29.14, 4.19 27.13 C5.11 25.13, 6.18 23.17, 7.37 21.32 C8.56 19.47, 9.9 17.68, 11.34 16.02 C12.78 14.36, 14.36 12.78, 16.02 11.34 C17.68 9.9, 19.47 8.56, 21.32 7.37 C23.17 6.18, 25.13 5.11, 27.13 4.19 C29.14 3.28, 31.23 2.5, 33.34 1.88 C35.45 1.26, 37.63 0.79, 39.81 0.47 C41.99 0.16, 44.21 0, 46.42 0 C48.62 0, 50.84 0.16, 53.02 0.47 C55.2 0.79, 57.38 1.26, 59.49 1.88 C61.6 2.5, 63.69 3.28, 65.7 4.19 C67.7 5.11, 69.66 6.18, 71.51 7.37 C73.36 8.56, 75.15 9.9, 76.81 11.34 C78.48 12.78, 80.05 14.36, 81.49 16.02 C82.94 17.68, 84.27 19.47, 85.46 21.32 C86.65 23.17, 87.72 25.13, 88.64 27.13 C89.55 29.14, 90.33 31.23, 90.95 33.34 C91.57 35.45, 92.04 37.63, 92.36 39.81 C92.67 41.99, 92.75 45.31, 92.83 46.42 C92.91 47.52, 92.91 45.31, 92.83 46.42" stroke="#E1E1E1" stroke-width="4" fill="none"></path></g><g stroke-linecap="round"><g transform="translate(236.79525395211647 221.67590299435346) rotate(0 28.160170003462795 0.14530182059175445)"><path d="M0 0 C9.39 0.05, 46.93 0.24, 56.32 0.29 M0 0 C9.39 0.05, 46.93 0.24, 56.32 0.29" stroke="#E1E1E1" stroke-width="4" fill="none"></path></g></g><mask></mask><g stroke-linecap="round"><g transform="translate(335.3341999684261 222.596718158263) rotate(0 28.160170003462795 0.14530182059175445)"><path d="M0 0 C9.39 0.05, 46.93 0.24, 56.32 0.29 M0 0 C9.39 0.05, 46.93 0.24, 56.32 0.29" stroke="#E1E1E1" stroke-width="4" fill="none"></path></g></g><mask></mask><g stroke-linecap="round"><g transform="translate(542.2232861519996 218.51905985354028) rotate(0 77.4508260395474 -56.377764562024765)"><path d="M0 0 C-0.04 -11.07, -1.53 -50.26, -0.25 -66.4 C1.04 -82.54, 3.36 -89.28, 7.71 -96.86 C12.05 -104.43, 16.99 -109.03, 25.81 -111.84 C34.64 -114.64, 45.65 -113.24, 60.65 -113.69 C75.65 -114.13, 101.92 -116.3, 115.82 -114.5 C129.72 -112.71, 137.56 -109.21, 144.07 -102.93 C150.57 -96.64, 153.11 -86.79, 154.86 -76.8 C156.61 -66.8, 154.51 -56.05, 154.56 -42.96 C154.6 -29.87, 155.05 -5.7, 155.15 1.75 M0 0 C-0.04 -11.07, -1.53 -50.26, -0.25 -66.4 C1.04 -82.54, 3.36 -89.28, 7.71 -96.86 C12.05 -104.43, 16.99 -109.03, 25.81 -111.84 C34.64 -114.64, 45.65 -113.24, 60.65 -113.69 C75.65 -114.13, 101.92 -116.3, 115.82 -114.5 C129.72 -112.71, 137.56 -109.21, 144.07 -102.93 C150.57 -96.64, 153.11 -86.79, 154.86 -76.8 C156.61 -66.8, 154.51 -56.05, 154.56 -42.96 C154.6 -29.87, 155.05 -5.7, 155.15 1.75" stroke="#E1E1E1" stroke-width="4" fill="none"></path></g></g><mask></mask><g stroke-linecap="round" transform="translate(574.5591099049387 10) rotate(0 46.41539623090702 46.41539623090702)"><path d="M92.83 46.42 C92.83 48.62, 92.67 50.84, 92.36 53.02 C92.04 55.2, 91.57 57.38, 90.95 59.49 C90.33 61.6, 89.55 63.69, 88.64 65.7 C87.72 67.7, 86.65 69.66, 85.46 71.51 C84.27 73.36, 82.94 75.15, 81.49 76.81 C80.05 78.48, 78.48 80.05, 76.81 81.49 C75.15 82.94, 73.36 84.27, 71.51 85.46 C69.66 86.65, 67.7 87.72, 65.7 88.64 C63.69 89.55, 61.6 90.33, 59.49 90.95 C57.38 91.57, 55.2 92.04, 53.02 92.36 C50.84 92.67, 48.62 92.83, 46.42 92.83 C44.21 92.83, 41.99 92.67, 39.81 92.36 C37.63 92.04, 35.45 91.57, 33.34 90.95 C31.23 90.33, 29.14 89.55, 27.13 88.64 C25.13 87.72, 23.17 86.65, 21.32 85.46 C19.47 84.27, 17.68 82.94, 16.02 81.49 C14.36 80.05, 12.78 78.48, 11.34 76.81 C9.9 75.15, 8.56 73.36, 7.37 71.51 C6.18 69.66, 5.11 67.7, 4.19 65.7 C3.28 63.69, 2.5 61.6, 1.88 59.49 C1.26 57.38, 0.79 55.2, 0.47 53.02 C0.16 50.84, 0 48.62, 0 46.42 C0 44.21, 0.16 41.99, 0.47 39.81 C0.79 37.63, 1.26 35.45, 1.88 33.34 C2.5 31.23, 3.28 29.14, 4.19 27.13 C5.11 25.13, 6.18 23.17, 7.37 21.32 C8.56 19.47, 9.9 17.68, 11.34 16.02 C12.78 14.36, 14.36 12.78, 16.02 11.34 C17.68 9.9, 19.47 8.56, 21.32 7.37 C23.17 6.18, 25.13 5.11, 27.13 4.19 C29.14 3.28, 31.23 2.5, 33.34 1.88 C35.45 1.26, 37.63 0.79, 39.81 0.47 C41.99 0.16, 44.21 0, 46.42 0 C48.62 0, 50.84 0.16, 53.02 0.47 C55.2 0.79, 57.38 1.26, 59.49 1.88 C61.6 2.5, 63.69 3.28, 65.7 4.19 C67.7 5.11, 69.66 6.18, 71.51 7.37 C73.36 8.56, 75.15 9.9, 76.81 11.34 C78.48 12.78, 80.05 14.36, 81.49 16.02 C82.94 17.68, 84.27 19.47, 85.46 21.32 C86.65 23.17, 87.72 25.13, 88.64 27.13 C89.55 29.14, 90.33 31.23, 90.95 33.34 C91.57 35.45, 92.04 37.63, 92.36 39.81 C92.67 41.99, 92.75 45.31, 92.83 46.42 C92.91 47.52, 92.91 45.31, 92.83 46.42" stroke="#E1E1E1" stroke-width="4" fill="none"></path></g><g stroke-linecap="round"><g transform="translate(542.2696640554394 219.5665287561426) rotate(0 77.71736162572924 0.26366148532164857)"><path d="M0 0 C25.91 0.09, 129.53 0.44, 155.43 0.53 M0 0 C25.91 0.09, 129.53 0.44, 155.43 0.53" stroke="#E1E1E1" stroke-width="4" fill="none"></path></g></g><mask></mask><g stroke-linecap="round"><g transform="translate(167.7045797579766 543.9476568920129) rotate(0 55.264292949895534 0)"><path d="M0 0 C18.42 0, 92.11 0, 110.53 0 M0 0 C18.42 0, 92.11 0, 110.53 0" stroke="#E1E1E1" stroke-width="4" fill="none"></path></g></g><mask></mask><g stroke-linecap="round"><g transform="translate(224.86227639654942 546.3487787043689) rotate(0 0 84.80542291153827)"><path d="M0 0 C0 28.27, 0 141.34, 0 169.61 M0 0 C0 28.27, 0 141.34, 0 169.61" stroke="#E1E1E1" stroke-width="4" fill="none"></path></g></g><mask></mask><g stroke-linecap="round"><g transform="translate(392.99579078393697 156.91248158391886) rotate(0 72.25543737779304 0)"><path d="M0 0 C24.09 0, 120.43 0, 144.51 0 M0 0 C24.09 0, 120.43 0, 144.51 0" stroke="#E1E1E1" stroke-width="4" fill="none"></path></g></g><mask></mask><g stroke-linecap="round"><g transform="translate(468.82725003647 158.8737032169131) rotate(0 0 86.9664325426587)"><path d="M0 0 C0 28.99, 0 144.94, 0 173.93 M0 0 C0 28.99, 0 144.94, 0 173.93" stroke="#E1E1E1" stroke-width="4" fill="none"></path></g></g><mask></mask><g stroke-linecap="round"><g transform="translate(358.3719808332361 332.8798849987909) rotate(0 109.57180300967697 0)"><path d="M0 0 C36.52 0, 182.62 0, 219.14 0 M0 0 C36.52 0, 182.62 0, 219.14 0" stroke="#E1E1E1" stroke-width="4" fill="none"></path></g></g><mask></mask><g stroke-linecap="round"><g transform="translate(578.3147388451006 334.7421290914283) rotate(0 0 30.461254503476574)"><path d="M0 0 C0 10.15, 0 50.77, 0 60.92 M0 0 C0 10.15, 0 50.77, 0 60.92" stroke="#E1E1E1" stroke-width="4" fill="none"></path></g></g><mask></mask><g stroke-linecap="round"><g transform="translate(358.69457429810507 332.92020918189905) rotate(0 0 32.03206472728527)"><path d="M0 0 C0 10.68, 0 53.39, 0 64.06 M0 0 C0 10.68, 0 53.39, 0 64.06" stroke="#E1E1E1" stroke-width="4" fill="none"></path></g></g><mask></mask><g stroke-linecap="round"><g transform="translate(924.8538477781813 622.2091756087113) rotate(0 -77.81725385152643 -56.6444935560084)"><path d="M0 0 C0.04 -11.12, 1.54 -50.49, 0.25 -66.71 C-1.04 -82.93, -3.38 -89.7, -7.74 -97.31 C-12.11 -104.92, -17.07 -109.55, -25.94 -112.37 C-34.8 -115.19, -45.87 -113.78, -60.94 -114.23 C-76.01 -114.67, -102.4 -116.85, -116.37 -115.04 C-130.34 -113.24, -138.21 -109.73, -144.75 -103.42 C-151.28 -97.1, -153.84 -87.2, -155.59 -77.16 C-157.35 -67.12, -155.24 -56.31, -155.29 -43.16 C-155.34 -30.01, -155.78 -5.73, -155.88 1.76 M0 0 C0.04 -11.12, 1.54 -50.49, 0.25 -66.71 C-1.04 -82.93, -3.38 -89.7, -7.74 -97.31 C-12.11 -104.92, -17.07 -109.55, -25.94 -112.37 C-34.8 -115.19, -45.87 -113.78, -60.94 -114.23 C-76.01 -114.67, -102.4 -116.85, -116.37 -115.04 C-130.34 -113.24, -138.21 -109.73, -144.75 -103.42 C-151.28 -97.1, -153.84 -87.2, -155.59 -77.16 C-157.35 -67.12, -155.24 -56.31, -155.29 -43.16 C-155.34 -30.01, -155.78 -5.73, -155.88 1.76" stroke="#E1E1E1" stroke-width="4" fill="none"></path></g></g><mask></mask><g stroke-linecap="round" transform="translate(799.0950554478485 412.70359066867263) rotate(0 46.63499223720845 46.63499223720845)"><path d="M93.27 46.63 C93.27 48.85, 93.11 51.08, 92.8 53.27 C92.48 55.46, 92 57.65, 91.38 59.77 C90.76 61.9, 89.97 64, 89.06 66.01 C88.14 68.02, 87.06 69.99, 85.87 71.85 C84.67 73.71, 83.33 75.5, 81.88 77.17 C80.43 78.85, 78.85 80.43, 77.17 81.88 C75.5 83.33, 73.71 84.67, 71.85 85.87 C69.99 87.06, 68.02 88.14, 66.01 89.06 C64 89.97, 61.9 90.76, 59.77 91.38 C57.65 92, 55.46 92.48, 53.27 92.8 C51.08 93.11, 48.85 93.27, 46.63 93.27 C44.42 93.27, 42.19 93.11, 40 92.8 C37.81 92.48, 35.62 92, 33.5 91.38 C31.37 90.76, 29.27 89.97, 27.26 89.06 C25.25 88.14, 23.28 87.06, 21.42 85.87 C19.56 84.67, 17.77 83.33, 16.1 81.88 C14.42 80.43, 12.84 78.85, 11.39 77.17 C9.94 75.5, 8.6 73.71, 7.4 71.85 C6.21 69.99, 5.13 68.02, 4.21 66.01 C3.3 64, 2.51 61.9, 1.89 59.77 C1.27 57.65, 0.79 55.46, 0.47 53.27 C0.16 51.08, 0 48.85, 0 46.63 C0 44.42, 0.16 42.19, 0.47 40 C0.79 37.81, 1.27 35.62, 1.89 33.5 C2.51 31.37, 3.3 29.27, 4.21 27.26 C5.13 25.25, 6.21 23.28, 7.4 21.42 C8.6 19.56, 9.94 17.77, 11.39 16.1 C12.84 14.42, 14.42 12.84, 16.1 11.39 C17.77 9.94, 19.56 8.6, 21.42 7.4 C23.28 6.21, 25.25 5.13, 27.26 4.21 C29.27 3.3, 31.37 2.51, 33.5 1.89 C35.62 1.27, 37.81 0.79, 40 0.47 C42.19 0.16, 44.42 0, 46.63 0 C48.85 0, 51.08 0.16, 53.27 0.47 C55.46 0.79, 57.65 1.27, 59.77 1.89 C61.9 2.51, 64 3.3, 66.01 4.21 C68.02 5.13, 69.99 6.21, 71.85 7.4 C73.71 8.6, 75.5 9.94, 77.17 11.39 C78.85 12.84, 80.43 14.42, 81.88 16.1 C83.33 17.77, 84.67 19.56, 85.87 21.42 C87.06 23.28, 88.14 25.25, 89.06 27.26 C89.97 29.27, 90.76 31.37, 91.38 33.5 C92 35.62, 92.48 37.81, 92.8 40 C93.11 42.19, 93.19 45.53, 93.27 46.63 C93.35 47.74, 93.35 45.53, 93.27 46.63" stroke="#E1E1E1" stroke-width="4" fill="none"></path></g><g stroke-linecap="round"><g transform="translate(924.8072504561178 623.2616001942645) rotate(0 -78.08505044493896 0.26490889488601965)"><path d="M0 0 C-26.03 0.09, -130.14 0.44, -156.17 0.53 M0 0 C-26.03 0.09, -130.14 0.44, -156.17 0.53" stroke="#E1E1E1" stroke-width="4" fill="none"></path></g></g><mask></mask><g stroke-linecap="round"><g transform="translate(789.4481681910337 943.9938781316607) rotate(0 -77.81725385152643 -56.64449355600843)"><path d="M0 0 C0.04 -11.12, 1.54 -50.49, 0.25 -66.71 C-1.04 -82.93, -3.38 -89.7, -7.74 -97.31 C-12.11 -104.92, -17.07 -109.55, -25.94 -112.37 C-34.8 -115.19, -45.87 -113.78, -60.94 -114.23 C-76.01 -114.67, -102.4 -116.85, -116.37 -115.04 C-130.34 -113.24, -138.21 -109.73, -144.75 -103.42 C-151.28 -97.1, -153.84 -87.2, -155.59 -77.16 C-157.35 -67.12, -155.24 -56.31, -155.29 -43.16 C-155.34 -30.01, -155.78 -5.73, -155.88 1.76 M0 0 C0.04 -11.12, 1.54 -50.49, 0.25 -66.71 C-1.04 -82.93, -3.38 -89.7, -7.74 -97.31 C-12.11 -104.92, -17.07 -109.55, -25.94 -112.37 C-34.8 -115.19, -45.87 -113.78, -60.94 -114.23 C-76.01 -114.67, -102.4 -116.85, -116.37 -115.04 C-130.34 -113.24, -138.21 -109.73, -144.75 -103.42 C-151.28 -97.1, -153.84 -87.2, -155.59 -77.16 C-157.35 -67.12, -155.24 -56.31, -155.29 -43.16 C-155.34 -30.01, -155.78 -5.73, -155.88 1.76" stroke="#E1E1E1" stroke-width="4" fill="none"></path></g></g><mask></mask><g stroke-linecap="round" transform="translate(663.689375860701 734.5673374571154) rotate(0 46.63499223720845 46.63499223720845)"><path d="M93.27 46.63 C93.27 48.85, 93.11 51.08, 92.8 53.27 C92.48 55.46, 92 57.65, 91.38 59.77 C90.76 61.9, 89.97 64, 89.06 66.01 C88.14 68.02, 87.06 69.99, 85.87 71.85 C84.67 73.71, 83.33 75.5, 81.88 77.17 C80.43 78.85, 78.85 80.43, 77.17 81.88 C75.5 83.33, 73.71 84.67, 71.85 85.87 C69.99 87.06, 68.02 88.14, 66.01 89.06 C64 89.97, 61.9 90.76, 59.77 91.38 C57.65 92, 55.46 92.48, 53.27 92.8 C51.08 93.11, 48.85 93.27, 46.63 93.27 C44.42 93.27, 42.19 93.11, 40 92.8 C37.81 92.48, 35.62 92, 33.5 91.38 C31.37 90.76, 29.27 89.97, 27.26 89.06 C25.25 88.14, 23.28 87.06, 21.42 85.87 C19.56 84.67, 17.77 83.33, 16.1 81.88 C14.42 80.43, 12.84 78.85, 11.39 77.17 C9.94 75.5, 8.6 73.71, 7.4 71.85 C6.21 69.99, 5.13 68.02, 4.21 66.01 C3.3 64, 2.51 61.9, 1.89 59.77 C1.27 57.65, 0.79 55.46, 0.47 53.27 C0.16 51.08, 0 48.85, 0 46.63 C0 44.42, 0.16 42.19, 0.47 40 C0.79 37.81, 1.27 35.62, 1.89 33.5 C2.51 31.37, 3.3 29.27, 4.21 27.26 C5.13 25.25, 6.21 23.28, 7.4 21.42 C8.6 19.56, 9.94 17.77, 11.39 16.1 C12.84 14.42, 14.42 12.84, 16.1 11.39 C17.77 9.94, 19.56 8.6, 21.42 7.4 C23.28 6.21, 25.25 5.13, 27.26 4.21 C29.27 3.3, 31.37 2.51, 33.5 1.89 C35.62 1.27, 37.81 0.79, 40 0.47 C42.19 0.16, 44.42 0, 46.63 0 C48.85 0, 51.08 0.16, 53.27 0.47 C55.46 0.79, 57.65 1.27, 59.77 1.89 C61.9 2.51, 64 3.3, 66.01 4.21 C68.02 5.13, 69.99 6.21, 71.85 7.4 C73.71 8.6, 75.5 9.94, 77.17 11.39 C78.85 12.84, 80.43 14.42, 81.88 16.1 C83.33 17.77, 84.67 19.56, 85.87 21.42 C87.06 23.28, 88.14 25.25, 89.06 27.26 C89.97 29.27, 90.76 31.37, 91.38 33.5 C92 35.62, 92.48 37.81, 92.8 40 C93.11 42.19, 93.19 45.53, 93.27 46.63 C93.35 47.74, 93.35 45.53, 93.27 46.63" stroke="#E1E1E1" stroke-width="4" fill="none"></path></g><g stroke-linecap="round"><g transform="translate(789.3135703379947 945.0756362275399) rotate(0 -28.293398659720864 0.145989258427079)"><path d="M0 0 C-9.43 0.05, -47.16 0.24, -56.59 0.29 M0 0 C-9.43 0.05, -47.16 0.24, -56.59 0.29" stroke="#E1E1E1" stroke-width="4" fill="none"></path></g></g><mask></mask><g stroke-linecap="round"><g transform="translate(690.3084264484013 946.0008078625572) rotate(0 -28.293398659720864 0.145989258427079)"><path d="M0 0 C-9.43 0.05, -47.16 0.24, -56.59 0.29 M0 0 C-9.43 0.05, -47.16 0.24, -56.59 0.29" stroke="#E1E1E1" stroke-width="4" fill="none"></path></g></g><mask></mask><g stroke-linecap="round"><g transform="translate(766.9832562605378 558.3381865678468) rotate(0 -55.52575399533174 0)"><path d="M0 0 C-18.51 0, -92.54 0, -111.05 0 M0 0 C-18.51 0, -92.54 0, -111.05 0" stroke="#E1E1E1" stroke-width="4" fill="none"></path></g></g><mask></mask><g stroke-linecap="round"><g transform="translate(709.5551406892308 560.7506683340864) rotate(0 0 85.20664607661547)"><path d="M0 0 C0 28.4, 0 142.01, 0 170.41 M0 0 C0 28.4, 0 142.01, 0 170.41" stroke="#E1E1E1" stroke-width="4" fill="none"></path></g></g><mask></mask></svg>