<svg version="1.1" xmlns="http://www.w3.org/2000/svg" viewBox="0 0 193.19528095799376 193.42262437691284" width="193.19528095799376" height="193.42262437691284" class="excalidraw-svg"><!-- svg-source:excalidraw --><metadata></metadata><defs><style class="style-fonts">
      </style></defs><rect x="0" y="0" width="193.19528095799376" height="193.42262437691284" fill="#000000"></rect><g stroke-linecap="round" transform="translate(85.46591220285302 43.95898195261407) rotate(0 11.234042906585728 11.234042906585728)"><path d="M22.47 11.23 C22.47 11.88, 22.41 12.54, 22.3 13.18 C22.18 13.83, 22.01 14.47, 21.79 15.08 C21.57 15.69, 21.29 16.29, 20.96 16.85 C20.64 17.41, 20.26 17.96, 19.84 18.46 C19.42 18.95, 18.95 19.42, 18.46 19.84 C17.96 20.26, 17.41 20.64, 16.85 20.96 C16.29 21.29, 15.69 21.57, 15.08 21.79 C14.47 22.01, 13.83 22.18, 13.18 22.3 C12.54 22.41, 11.88 22.47, 11.23 22.47 C10.58 22.47, 9.92 22.41, 9.28 22.3 C8.64 22.18, 8 22.01, 7.39 21.79 C6.78 21.57, 6.18 21.29, 5.62 20.96 C5.05 20.64, 4.51 20.26, 4.01 19.84 C3.51 19.42, 3.05 18.95, 2.63 18.46 C2.21 17.96, 1.83 17.41, 1.51 16.85 C1.18 16.29, 0.9 15.69, 0.68 15.08 C0.46 14.47, 0.28 13.83, 0.17 13.18 C0.06 12.54, 0 11.88, 0 11.23 C0 10.58, 0.06 9.92, 0.17 9.28 C0.28 8.64, 0.46 8, 0.68 7.39 C0.9 6.78, 1.18 6.18, 1.51 5.62 C1.83 5.05, 2.21 4.51, 2.63 4.01 C3.05 3.51, 3.51 3.05, 4.01 2.63 C4.51 2.21, 5.05 1.83, 5.62 1.51 C6.18 1.18, 6.78 0.9, 7.39 0.68 C8 0.46, 8.64 0.28, 9.28 0.17 C9.92 0.06, 10.58 0, 11.23 0 C11.88 0, 12.54 0.06, 13.18 0.17 C13.83 0.28, 14.47 0.46, 15.08 0.68 C15.69 0.9, 16.29 1.18, 16.85 1.51 C17.41 1.83, 17.96 2.21, 18.46 2.63 C18.95 3.05, 19.42 3.51, 19.84 4.01 C20.26 4.51, 20.64 5.05, 20.96 5.62 C21.29 6.18, 21.57 6.78, 21.79 7.39 C22.01 8, 22.18 8.64, 22.3 9.28 C22.41 9.92, 22.44 10.91, 22.47 11.23 C22.5 11.56, 22.5 10.91, 22.47 11.23" stroke="#E1E1E1" stroke-width="2" fill="none"></path></g><g stroke-linecap="round" transform="translate(123.0140662792611 81.73419729278953) rotate(0 11.234042906585728 11.234042906585728)"><path d="M22.47 11.23 C22.47 11.88, 22.41 12.54, 22.3 13.18 C22.18 13.83, 22.01 14.47, 21.79 15.08 C21.57 15.69, 21.29 16.29, 20.96 16.85 C20.64 17.41, 20.26 17.96, 19.84 18.46 C19.42 18.95, 18.95 19.42, 18.46 19.84 C17.96 20.26, 17.41 20.64, 16.85 20.96 C16.29 21.29, 15.69 21.57, 15.08 21.79 C14.47 22.01, 13.83 22.18, 13.18 22.3 C12.54 22.41, 11.88 22.47, 11.23 22.47 C10.58 22.47, 9.92 22.41, 9.28 22.3 C8.64 22.18, 8 22.01, 7.39 21.79 C6.78 21.57, 6.18 21.29, 5.62 20.96 C5.05 20.64, 4.51 20.26, 4.01 19.84 C3.51 19.42, 3.05 18.95, 2.63 18.46 C2.21 17.96, 1.83 17.41, 1.51 16.85 C1.18 16.29, 0.9 15.69, 0.68 15.08 C0.46 14.47, 0.28 13.83, 0.17 13.18 C0.06 12.54, 0 11.88, 0 11.23 C0 10.58, 0.06 9.92, 0.17 9.28 C0.28 8.64, 0.46 8, 0.68 7.39 C0.9 6.78, 1.18 6.18, 1.51 5.62 C1.83 5.05, 2.21 4.51, 2.63 4.01 C3.05 3.51, 3.51 3.05, 4.01 2.63 C4.51 2.21, 5.05 1.83, 5.62 1.51 C6.18 1.18, 6.78 0.9, 7.39 0.68 C8 0.46, 8.64 0.28, 9.28 0.17 C9.92 0.06, 10.58 0, 11.23 0 C11.88 0, 12.54 0.06, 13.18 0.17 C13.83 0.28, 14.47 0.46, 15.08 0.68 C15.69 0.9, 16.29 1.18, 16.85 1.51 C17.41 1.83, 17.96 2.21, 18.46 2.63 C18.95 3.05, 19.42 3.51, 19.84 4.01 C20.26 4.51, 20.64 5.05, 20.96 5.62 C21.29 6.18, 21.57 6.78, 21.79 7.39 C22.01 8, 22.18 8.64, 22.3 9.28 C22.41 9.92, 22.44 10.91, 22.47 11.23 C22.5 11.56, 22.5 10.91, 22.47 11.23" stroke="#E1E1E1" stroke-width="2" fill="none"></path></g><g stroke-linecap="round" transform="translate(85.38917390537608 119.4693498688332) rotate(0 11.234042906585728 11.234042906585728)"><path d="M22.47 11.23 C22.47 11.88, 22.41 12.54, 22.3 13.18 C22.18 13.83, 22.01 14.47, 21.79 15.08 C21.57 15.69, 21.29 16.29, 20.96 16.85 C20.64 17.41, 20.26 17.96, 19.84 18.46 C19.42 18.95, 18.95 19.42, 18.46 19.84 C17.96 20.26, 17.41 20.64, 16.85 20.96 C16.29 21.29, 15.69 21.57, 15.08 21.79 C14.47 22.01, 13.83 22.18, 13.18 22.3 C12.54 22.41, 11.88 22.47, 11.23 22.47 C10.58 22.47, 9.92 22.41, 9.28 22.3 C8.64 22.18, 8 22.01, 7.39 21.79 C6.78 21.57, 6.18 21.29, 5.62 20.96 C5.05 20.64, 4.51 20.26, 4.01 19.84 C3.51 19.42, 3.05 18.95, 2.63 18.46 C2.21 17.96, 1.83 17.41, 1.51 16.85 C1.18 16.29, 0.9 15.69, 0.68 15.08 C0.46 14.47, 0.28 13.83, 0.17 13.18 C0.06 12.54, 0 11.88, 0 11.23 C0 10.58, 0.06 9.92, 0.17 9.28 C0.28 8.64, 0.46 8, 0.68 7.39 C0.9 6.78, 1.18 6.18, 1.51 5.62 C1.83 5.05, 2.21 4.51, 2.63 4.01 C3.05 3.51, 3.51 3.05, 4.01 2.63 C4.51 2.21, 5.05 1.83, 5.62 1.51 C6.18 1.18, 6.78 0.9, 7.39 0.68 C8 0.46, 8.64 0.28, 9.28 0.17 C9.92 0.06, 10.58 0, 11.23 0 C11.88 0, 12.54 0.06, 13.18 0.17 C13.83 0.28, 14.47 0.46, 15.08 0.68 C15.69 0.9, 16.29 1.18, 16.85 1.51 C17.41 1.83, 17.96 2.21, 18.46 2.63 C18.95 3.05, 19.42 3.51, 19.84 4.01 C20.26 4.51, 20.64 5.05, 20.96 5.62 C21.29 6.18, 21.57 6.78, 21.79 7.39 C22.01 8, 22.18 8.64, 22.3 9.28 C22.41 9.92, 22.44 10.91, 22.47 11.23 C22.5 11.56, 22.5 10.91, 22.47 11.23" stroke="#E1E1E1" stroke-width="2" fill="none"></path></g><g stroke-linecap="round"><g transform="translate(72.01872771734315 35.82210920423972) rotate(0 24.628165413016518 60.81894316836565)"><path d="M0 0 C0.44 0.44, 1.71 1.71, 2.64 2.65 C3.57 3.58, 4.67 4.72, 5.57 5.62 C6.47 6.52, 7.48 7.52, 8.03 8.05 C8.57 8.58, 8.72 8.6, 8.82 8.83 C8.92 9.06, 8.77 9.19, 8.63 9.46 C8.49 9.73, 8.23 9.99, 7.99 10.45 C7.75 10.9, 7.46 11.49, 7.2 12.19 C6.93 12.89, 6.6 13.76, 6.39 14.62 C6.18 15.48, 6.04 16.32, 5.94 17.35 C5.84 18.37, 5.73 19.58, 5.81 20.75 C5.89 21.93, 6.09 23.17, 6.43 24.4 C6.77 25.62, 7.26 26.94, 7.86 28.1 C8.47 29.25, 9.15 30.26, 10.06 31.33 C10.97 32.4, 12.16 33.65, 13.32 34.53 C14.47 35.41, 15.98 36.14, 17.01 36.64 C18.03 37.14, 18.84 37.32, 19.47 37.53 C20.09 37.75, 20.51 37.73, 20.75 37.92 C20.99 38.11, 20.88 37.7, 20.91 38.66 C20.94 39.62, 20.91 41.25, 20.91 43.7 C20.91 46.15, 20.91 49.64, 20.91 53.35 C20.91 57.07, 20.91 62.89, 20.91 65.98 C20.91 69.08, 20.91 70.31, 20.91 71.95 C20.91 73.59, 20.99 75.07, 20.92 75.82 C20.85 76.56, 20.79 76.27, 20.5 76.43 C20.2 76.58, 19.73 76.57, 19.17 76.76 C18.6 76.94, 17.9 77.18, 17.13 77.54 C16.35 77.9, 15.35 78.37, 14.52 78.91 C13.7 79.45, 12.96 80.05, 12.18 80.76 C11.4 81.47, 10.57 82.29, 9.86 83.16 C9.15 84.04, 8.44 85.02, 7.91 86.03 C7.37 87.04, 6.98 88.27, 6.67 89.22 C6.36 90.18, 6.19 90.8, 6.05 91.78 C5.9 92.75, 5.78 93.91, 5.81 95.07 C5.83 96.24, 5.93 97.49, 6.2 98.75 C6.47 100.02, 6.91 101.48, 7.42 102.65 C7.93 103.81, 8.58 104.79, 9.25 105.72 C9.92 106.65, 10.59 107.42, 11.44 108.23 C12.3 109.04, 13.27 109.88, 14.37 110.58 C15.47 111.29, 16.88 112, 18.03 112.46 C19.18 112.91, 20.16 113.12, 21.25 113.32 C22.35 113.52, 23.44 113.66, 24.6 113.66 C25.75 113.66, 26.97 113.58, 28.18 113.33 C29.39 113.08, 30.75 112.61, 31.85 112.18 C32.95 111.74, 33.85 111.29, 34.76 110.73 C35.66 110.17, 36.48 109.57, 37.29 108.82 C38.1 108.08, 38.94 107.16, 39.61 106.26 C40.28 105.36, 40.81 104.46, 41.32 103.43 C41.83 102.4, 42.35 101.16, 42.68 100.07 C43.01 98.99, 43.18 98.09, 43.29 96.92 C43.4 95.75, 43.43 94.31, 43.33 93.07 C43.23 91.83, 43.11 90.81, 42.68 89.48 C42.25 88.15, 41.52 86.41, 40.74 85.1 C39.97 83.79, 38.93 82.57, 38.05 81.63 C37.17 80.69, 36.37 80.11, 35.46 79.47 C34.56 78.84, 33.48 78.27, 32.62 77.83 C31.76 77.4, 30.98 77.08, 30.32 76.85 C29.65 76.61, 28.93 76.6, 28.61 76.43 C28.29 76.26, 28.42 76.27, 28.39 75.84 C28.35 75.4, 28.39 75.12, 28.39 73.8 C28.39 72.49, 28.39 71.53, 28.39 67.96 C28.39 64.39, 28.39 56.66, 28.39 52.38 C28.39 48.09, 28.39 44.49, 28.39 42.26 C28.39 40.03, 28.39 39.69, 28.39 38.98 C28.39 38.28, 28.3 38.27, 28.39 38.05 C28.48 37.84, 28.63 37.8, 28.92 37.69 C29.21 37.59, 29.66 37.55, 30.14 37.41 C30.62 37.27, 31.3 37.03, 31.8 36.83 C32.31 36.63, 32.75 36.45, 33.15 36.23 C33.56 36.02, 33.94 35.73, 34.24 35.55 C34.55 35.36, 34.78 35.13, 35 35.13 C35.21 35.13, 34.78 34.82, 35.52 35.55 C36.26 36.27, 38.14 38.17, 39.45 39.48 C40.76 40.78, 42.4 42.42, 43.36 43.38 C44.32 44.34, 44.73 44.76, 45.21 45.23 C45.68 45.71, 45.99 45.97, 46.21 46.23 C46.42 46.49, 46.49 46.57, 46.47 46.8 C46.46 47.03, 46.29 47.29, 46.12 47.61 C45.95 47.93, 45.67 48.28, 45.45 48.74 C45.23 49.2, 44.98 49.86, 44.79 50.39 C44.6 50.93, 44.46 51.37, 44.3 51.97 C44.13 52.57, 43.93 53.21, 43.8 54 C43.67 54.79, 43.55 55.8, 43.52 56.7 C43.49 57.6, 43.48 58.39, 43.62 59.39 C43.77 60.4, 44.07 61.69, 44.39 62.73 C44.71 63.77, 45.05 64.69, 45.55 65.65 C46.05 66.61, 46.68 67.59, 47.39 68.51 C48.11 69.43, 48.98 70.39, 49.84 71.17 C50.7 71.94, 51.6 72.57, 52.55 73.15 C53.5 73.73, 54.47 74.26, 55.54 74.67 C56.61 75.07, 57.77 75.4, 58.95 75.6 C60.14 75.79, 61.34 75.88, 62.65 75.86 C63.96 75.84, 65.5 75.77, 66.8 75.48 C68.11 75.2, 69.27 74.71, 70.46 74.13 C71.66 73.56, 73.04 72.69, 73.97 72.02 C74.89 71.36, 75.34 70.89, 76.02 70.15 C76.69 69.42, 77.39 68.58, 78.01 67.61 C78.63 66.63, 79.25 65.48, 79.73 64.29 C80.21 63.11, 80.67 61.82, 80.91 60.49 C81.14 59.17, 81.22 57.79, 81.15 56.33 C81.08 54.88, 80.91 53.23, 80.47 51.75 C80.04 50.28, 79.31 48.74, 78.56 47.47 C77.81 46.19, 76.99 45.14, 75.97 44.1 C74.96 43.06, 73.71 42.02, 72.48 41.22 C71.26 40.42, 69.84 39.76, 68.6 39.31 C67.36 38.86, 66.22 38.7, 65.05 38.53 C63.88 38.36, 62.84 38.24, 61.59 38.3 C60.34 38.36, 58.64 38.67, 57.55 38.9 C56.45 39.13, 55.76 39.43, 55.04 39.7 C54.31 39.97, 53.68 40.26, 53.2 40.51 C52.73 40.76, 52.5 41.15, 52.19 41.2 C51.88 41.25, 51.88 41.27, 51.34 40.8 C50.81 40.32, 50.18 39.55, 49.01 38.37 C47.83 37.18, 45.48 34.87, 44.28 33.69 C43.08 32.5, 42.44 31.86, 41.8 31.24 C41.16 30.61, 40.65 30.26, 40.45 29.94 C40.26 29.61, 40.48 29.59, 40.61 29.3 C40.75 29, 41.02 28.64, 41.25 28.18 C41.48 27.72, 41.74 27.22, 42.01 26.56 C42.27 25.9, 42.63 25.12, 42.86 24.21 C43.09 23.31, 43.3 22.38, 43.4 21.15 C43.49 19.92, 43.53 18.08, 43.42 16.84 C43.31 15.59, 43.05 14.7, 42.72 13.67 C42.39 12.65, 42.07 11.79, 41.43 10.68 C40.79 9.57, 39.73 8, 38.88 7.01 C38.02 6.02, 37.25 5.48, 36.31 4.74 C35.36 4.01, 34.3 3.19, 33.19 2.6 C32.09 2.02, 31 1.56, 29.66 1.23 C28.31 0.89, 26.61 0.64, 25.13 0.58 C23.66 0.52, 22.03 0.67, 20.81 0.86 C19.59 1.06, 18.72 1.39, 17.81 1.75 C16.9 2.1, 15.91 2.71, 15.35 3 C14.78 3.29, 14.66 3.46, 14.4 3.51 C14.14 3.55, 14.16 3.61, 13.77 3.27 C13.39 2.94, 13.14 2.57, 12.07 1.49 C11.01 0.41, 8.3 -2.28, 7.38 -3.21 C6.45 -4.13, 6.82 -3.76, 6.52 -4.07 C6.21 -4.37, 5.68 -4.77, 5.55 -5.03 C5.43 -5.29, 5.51 -5.3, 5.78 -5.63 C6.04 -5.96, 6.41 -6.25, 7.16 -7 C7.91 -7.74, 9.25 -9.08, 10.26 -10.08 C11.28 -11.08, 12.4 -12.19, 13.23 -13.01 C14.07 -13.82, 14.6 -14.42, 15.25 -14.97 C15.9 -15.52, 16.41 -15.89, 17.12 -16.31 C17.82 -16.73, 18.65 -17.16, 19.46 -17.47 C20.27 -17.78, 21.11 -18, 21.98 -18.16 C22.86 -18.32, 23.74 -18.45, 24.71 -18.44 C25.69 -18.43, 26.9 -18.3, 27.84 -18.1 C28.78 -17.91, 29.63 -17.56, 30.35 -17.26 C31.07 -16.95, 31.47 -16.74, 32.15 -16.29 C32.83 -15.84, 33.57 -15.31, 34.41 -14.55 C35.26 -13.8, 35.63 -13.32, 37.23 -11.75 C38.82 -10.18, 41.49 -7.6, 43.96 -5.14 C46.42 -2.69, 49.63 0.61, 52.01 2.98 C54.38 5.35, 55.75 6.64, 58.2 9.09 C60.64 11.53, 63.4 14.36, 66.67 17.64 C69.95 20.92, 74.24 25.15, 77.84 28.77 C81.45 32.4, 85.25 36.34, 88.29 39.39 C91.34 42.44, 94.09 45.1, 96.09 47.09 C98.1 49.08, 99.27 50.12, 100.3 51.31 C101.33 52.49, 101.74 53.23, 102.26 54.22 C102.79 55.2, 103.18 56.21, 103.43 57.21 C103.69 58.21, 103.76 59.2, 103.81 60.21 C103.85 61.22, 103.89 62.18, 103.7 63.29 C103.5 64.39, 103.06 65.78, 102.62 66.82 C102.18 67.87, 101.9 68.49, 101.05 69.56 C100.21 70.63, 99.35 71.42, 97.55 73.24 C95.75 75.06, 92.8 77.94, 90.25 80.47 C87.71 83, 84.75 85.95, 82.27 88.42 C79.79 90.89, 77.76 92.9, 75.37 95.28 C72.98 97.66, 70.25 100.37, 67.93 102.69 C65.6 105.01, 64.13 106.48, 61.43 109.19 C58.73 111.9, 54.71 115.94, 51.71 118.94 C48.72 121.94, 46.1 124.55, 43.44 127.2 C40.78 129.85, 37.57 133.12, 35.78 134.85 C33.98 136.57, 33.75 136.8, 32.65 137.56 C31.55 138.32, 30.31 139.01, 29.18 139.43 C28.04 139.85, 26.99 139.98, 25.85 140.07 C24.71 140.17, 23.57 140.2, 22.34 139.99 C21.1 139.78, 19.68 139.39, 18.45 138.81 C17.23 138.22, 16.38 137.68, 14.98 136.49 C13.58 135.29, 11.96 133.51, 10.07 131.62 C8.19 129.73, 5.81 127.31, 3.65 125.15 C1.5 122.98, -0.79 120.73, -2.87 118.65 C-4.94 116.56, -6.41 115.05, -8.81 112.65 C-11.21 110.24, -14.5 106.98, -17.24 104.23 C-19.98 101.48, -22.21 99.18, -25.25 96.14 C-28.29 93.11, -32.12 89.35, -35.47 86.01 C-38.82 82.68, -42.88 78.6, -45.35 76.13 C-47.82 73.66, -49.08 72.52, -50.29 71.21 C-51.49 69.9, -51.97 69.29, -52.58 68.27 C-53.2 67.26, -53.64 66.28, -53.97 65.11 C-54.3 63.94, -54.54 62.64, -54.55 61.25 C-54.56 59.86, -54.38 58.09, -54.03 56.78 C-53.69 55.46, -53.4 54.67, -52.49 53.35 C-51.57 52.02, -50.44 50.83, -48.53 48.82 C-46.62 46.81, -43.95 44.19, -41.05 41.27 C-38.14 38.35, -35.24 35.42, -31.11 31.28 C-26.97 27.15, -21.42 21.67, -16.24 16.46 C-11.05 11.24, -2.71 2.74, 0 0 M0 0 C0.44 0.44, 1.71 1.71, 2.64 2.65 C3.57 3.58, 4.67 4.72, 5.57 5.62 C6.47 6.52, 7.48 7.52, 8.03 8.05 C8.57 8.58, 8.72 8.6, 8.82 8.83 C8.92 9.06, 8.77 9.19, 8.63 9.46 C8.49 9.73, 8.23 9.99, 7.99 10.45 C7.75 10.9, 7.46 11.49, 7.2 12.19 C6.93 12.89, 6.6 13.76, 6.39 14.62 C6.18 15.48, 6.04 16.32, 5.94 17.35 C5.84 18.37, 5.73 19.58, 5.81 20.75 C5.89 21.93, 6.09 23.17, 6.43 24.4 C6.77 25.62, 7.26 26.94, 7.86 28.1 C8.47 29.25, 9.15 30.26, 10.06 31.33 C10.97 32.4, 12.16 33.65, 13.32 34.53 C14.47 35.41, 15.98 36.14, 17.01 36.64 C18.03 37.14, 18.84 37.32, 19.47 37.53 C20.09 37.75, 20.51 37.73, 20.75 37.92 C20.99 38.11, 20.88 37.7, 20.91 38.66 C20.94 39.62, 20.91 41.25, 20.91 43.7 C20.91 46.15, 20.91 49.64, 20.91 53.35 C20.91 57.07, 20.91 62.89, 20.91 65.98 C20.91 69.08, 20.91 70.31, 20.91 71.95 C20.91 73.59, 20.99 75.07, 20.92 75.82 C20.85 76.56, 20.79 76.27, 20.5 76.43 C20.2 76.58, 19.73 76.57, 19.17 76.76 C18.6 76.94, 17.9 77.18, 17.13 77.54 C16.35 77.9, 15.35 78.37, 14.52 78.91 C13.7 79.45, 12.96 80.05, 12.18 80.76 C11.4 81.47, 10.57 82.29, 9.86 83.16 C9.15 84.04, 8.44 85.02, 7.91 86.03 C7.37 87.04, 6.98 88.27, 6.67 89.22 C6.36 90.18, 6.19 90.8, 6.05 91.78 C5.9 92.75, 5.78 93.91, 5.81 95.07 C5.83 96.24, 5.93 97.49, 6.2 98.75 C6.47 100.02, 6.91 101.48, 7.42 102.65 C7.93 103.81, 8.58 104.79, 9.25 105.72 C9.92 106.65, 10.59 107.42, 11.44 108.23 C12.3 109.04, 13.27 109.88, 14.37 110.58 C15.47 111.29, 16.88 112, 18.03 112.46 C19.18 112.91, 20.16 113.12, 21.25 113.32 C22.35 113.52, 23.44 113.66, 24.6 113.66 C25.75 113.66, 26.97 113.58, 28.18 113.33 C29.39 113.08, 30.75 112.61, 31.85 112.18 C32.95 111.74, 33.85 111.29, 34.76 110.73 C35.66 110.17, 36.48 109.57, 37.29 108.82 C38.1 108.08, 38.94 107.16, 39.61 106.26 C40.28 105.36, 40.81 104.46, 41.32 103.43 C41.83 102.4, 42.35 101.16, 42.68 100.07 C43.01 98.99, 43.18 98.09, 43.29 96.92 C43.4 95.75, 43.43 94.31, 43.33 93.07 C43.23 91.83, 43.11 90.81, 42.68 89.48 C42.25 88.15, 41.52 86.41, 40.74 85.1 C39.97 83.79, 38.93 82.57, 38.05 81.63 C37.17 80.69, 36.37 80.11, 35.46 79.47 C34.56 78.84, 33.48 78.27, 32.62 77.83 C31.76 77.4, 30.98 77.08, 30.32 76.85 C29.65 76.61, 28.93 76.6, 28.61 76.43 C28.29 76.26, 28.42 76.27, 28.39 75.84 C28.35 75.4, 28.39 75.12, 28.39 73.8 C28.39 72.49, 28.39 71.53, 28.39 67.96 C28.39 64.39, 28.39 56.66, 28.39 52.38 C28.39 48.09, 28.39 44.49, 28.39 42.26 C28.39 40.03, 28.39 39.69, 28.39 38.98 C28.39 38.28, 28.3 38.27, 28.39 38.05 C28.48 37.84, 28.63 37.8, 28.92 37.69 C29.21 37.59, 29.66 37.55, 30.14 37.41 C30.62 37.27, 31.3 37.03, 31.8 36.83 C32.31 36.63, 32.75 36.45, 33.15 36.23 C33.56 36.02, 33.94 35.73, 34.24 35.55 C34.55 35.36, 34.78 35.13, 35 35.13 C35.21 35.13, 34.78 34.82, 35.52 35.55 C36.26 36.27, 38.14 38.17, 39.45 39.48 C40.76 40.78, 42.4 42.42, 43.36 43.38 C44.32 44.34, 44.73 44.76, 45.21 45.23 C45.68 45.71, 45.99 45.97, 46.21 46.23 C46.42 46.49, 46.49 46.57, 46.47 46.8 C46.46 47.03, 46.29 47.29, 46.12 47.61 C45.95 47.93, 45.67 48.28, 45.45 48.74 C45.23 49.2, 44.98 49.86, 44.79 50.39 C44.6 50.93, 44.46 51.37, 44.3 51.97 C44.13 52.57, 43.93 53.21, 43.8 54 C43.67 54.79, 43.55 55.8, 43.52 56.7 C43.49 57.6, 43.48 58.39, 43.62 59.39 C43.77 60.4, 44.07 61.69, 44.39 62.73 C44.71 63.77, 45.05 64.69, 45.55 65.65 C46.05 66.61, 46.68 67.59, 47.39 68.51 C48.11 69.43, 48.98 70.39, 49.84 71.17 C50.7 71.94, 51.6 72.57, 52.55 73.15 C53.5 73.73, 54.47 74.26, 55.54 74.67 C56.61 75.07, 57.77 75.4, 58.95 75.6 C60.14 75.79, 61.34 75.88, 62.65 75.86 C63.96 75.84, 65.5 75.77, 66.8 75.48 C68.11 75.2, 69.27 74.71, 70.46 74.13 C71.66 73.56, 73.04 72.69, 73.97 72.02 C74.89 71.36, 75.34 70.89, 76.02 70.15 C76.69 69.42, 77.39 68.58, 78.01 67.61 C78.63 66.63, 79.25 65.48, 79.73 64.29 C80.21 63.11, 80.67 61.82, 80.91 60.49 C81.14 59.17, 81.22 57.79, 81.15 56.33 C81.08 54.88, 80.91 53.23, 80.47 51.75 C80.04 50.28, 79.31 48.74, 78.56 47.47 C77.81 46.19, 76.99 45.14, 75.97 44.1 C74.96 43.06, 73.71 42.02, 72.48 41.22 C71.26 40.42, 69.84 39.76, 68.6 39.31 C67.36 38.86, 66.22 38.7, 65.05 38.53 C63.88 38.36, 62.84 38.24, 61.59 38.3 C60.34 38.36, 58.64 38.67, 57.55 38.9 C56.45 39.13, 55.76 39.43, 55.04 39.7 C54.31 39.97, 53.68 40.26, 53.2 40.51 C52.73 40.76, 52.5 41.15, 52.19 41.2 C51.88 41.25, 51.88 41.27, 51.34 40.8 C50.81 40.32, 50.18 39.55, 49.01 38.37 C47.83 37.18, 45.48 34.87, 44.28 33.69 C43.08 32.5, 42.44 31.86, 41.8 31.24 C41.16 30.61, 40.65 30.26, 40.45 29.94 C40.26 29.61, 40.48 29.59, 40.61 29.3 C40.75 29, 41.02 28.64, 41.25 28.18 C41.48 27.72, 41.74 27.22, 42.01 26.56 C42.27 25.9, 42.63 25.12, 42.86 24.21 C43.09 23.31, 43.3 22.38, 43.4 21.15 C43.49 19.92, 43.53 18.08, 43.42 16.84 C43.31 15.59, 43.05 14.7, 42.72 13.67 C42.39 12.65, 42.07 11.79, 41.43 10.68 C40.79 9.57, 39.73 8, 38.88 7.01 C38.02 6.02, 37.25 5.48, 36.31 4.74 C35.36 4.01, 34.3 3.19, 33.19 2.6 C32.09 2.02, 31 1.56, 29.66 1.23 C28.31 0.89, 26.61 0.64, 25.13 0.58 C23.66 0.52, 22.03 0.67, 20.81 0.86 C19.59 1.06, 18.72 1.39, 17.81 1.75 C16.9 2.1, 15.91 2.71, 15.35 3 C14.78 3.29, 14.66 3.46, 14.4 3.51 C14.14 3.55, 14.16 3.61, 13.77 3.27 C13.39 2.94, 13.14 2.57, 12.07 1.49 C11.01 0.41, 8.3 -2.28, 7.38 -3.21 C6.45 -4.13, 6.82 -3.76, 6.52 -4.07 C6.21 -4.37, 5.68 -4.77, 5.55 -5.03 C5.43 -5.29, 5.51 -5.3, 5.78 -5.63 C6.04 -5.96, 6.41 -6.25, 7.16 -7 C7.91 -7.74, 9.25 -9.08, 10.26 -10.08 C11.28 -11.08, 12.4 -12.19, 13.23 -13.01 C14.07 -13.82, 14.6 -14.42, 15.25 -14.97 C15.9 -15.52, 16.41 -15.89, 17.12 -16.31 C17.82 -16.73, 18.65 -17.16, 19.46 -17.47 C20.27 -17.78, 21.11 -18, 21.98 -18.16 C22.86 -18.32, 23.74 -18.45, 24.71 -18.44 C25.69 -18.43, 26.9 -18.3, 27.84 -18.1 C28.78 -17.91, 29.63 -17.56, 30.35 -17.26 C31.07 -16.95, 31.47 -16.74, 32.15 -16.29 C32.83 -15.84, 33.57 -15.31, 34.41 -14.55 C35.26 -13.8, 35.63 -13.32, 37.23 -11.75 C38.82 -10.18, 41.49 -7.6, 43.96 -5.14 C46.42 -2.69, 49.63 0.61, 52.01 2.98 C54.38 5.35, 55.75 6.64, 58.2 9.09 C60.64 11.53, 63.4 14.36, 66.67 17.64 C69.95 20.92, 74.24 25.15, 77.84 28.77 C81.45 32.4, 85.25 36.34, 88.29 39.39 C91.34 42.44, 94.09 45.1, 96.09 47.09 C98.1 49.08, 99.27 50.12, 100.3 51.31 C101.33 52.49, 101.74 53.23, 102.26 54.22 C102.79 55.2, 103.18 56.21, 103.43 57.21 C103.69 58.21, 103.76 59.2, 103.81 60.21 C103.85 61.22, 103.89 62.18, 103.7 63.29 C103.5 64.39, 103.06 65.78, 102.62 66.82 C102.18 67.87, 101.9 68.49, 101.05 69.56 C100.21 70.63, 99.35 71.42, 97.55 73.24 C95.75 75.06, 92.8 77.94, 90.25 80.47 C87.71 83, 84.75 85.95, 82.27 88.42 C79.79 90.89, 77.76 92.9, 75.37 95.28 C72.98 97.66, 70.25 100.37, 67.93 102.69 C65.6 105.01, 64.13 106.48, 61.43 109.19 C58.73 111.9, 54.71 115.94, 51.71 118.94 C48.72 121.94, 46.1 124.55, 43.44 127.2 C40.78 129.85, 37.57 133.12, 35.78 134.85 C33.98 136.57, 33.75 136.8, 32.65 137.56 C31.55 138.32, 30.31 139.01, 29.18 139.43 C28.04 139.85, 26.99 139.98, 25.85 140.07 C24.71 140.17, 23.57 140.2, 22.34 139.99 C21.1 139.78, 19.68 139.39, 18.45 138.81 C17.23 138.22, 16.38 137.68, 14.98 136.49 C13.58 135.29, 11.96 133.51, 10.07 131.62 C8.19 129.73, 5.81 127.31, 3.65 125.15 C1.5 122.98, -0.79 120.73, -2.87 118.65 C-4.94 116.56, -6.41 115.05, -8.81 112.65 C-11.21 110.24, -14.5 106.98, -17.24 104.23 C-19.98 101.48, -22.21 99.18, -25.25 96.14 C-28.29 93.11, -32.12 89.35, -35.47 86.01 C-38.82 82.68, -42.88 78.6, -45.35 76.13 C-47.82 73.66, -49.08 72.52, -50.29 71.21 C-51.49 69.9, -51.97 69.29, -52.58 68.27 C-53.2 67.26, -53.64 66.28, -53.97 65.11 C-54.3 63.94, -54.54 62.64, -54.55 61.25 C-54.56 59.86, -54.38 58.09, -54.03 56.78 C-53.69 55.46, -53.4 54.67, -52.49 53.35 C-51.57 52.02, -50.44 50.83, -48.53 48.82 C-46.62 46.81, -43.95 44.19, -41.05 41.27 C-38.14 38.35, -35.24 35.42, -31.11 31.28 C-26.97 27.15, -21.42 21.67, -16.24 16.46 C-11.05 11.24, -2.71 2.74, 0 0" stroke="#E1E1E1" stroke-width="2" fill="none"></path></g></g><mask></mask><g stroke-linecap="round"><g transform="translate(75.55135727206414 21.997552858481527) rotate(0 21.080444466629217 74.65844844042181)"><path d="M0 0 C0.73 -0.74, 3.17 -3.25, 4.35 -4.42 C5.54 -5.59, 6.23 -6.3, 7.12 -7.04 C8.01 -7.78, 8.72 -8.28, 9.68 -8.86 C10.65 -9.43, 11.75 -10.03, 12.92 -10.49 C14.08 -10.95, 15.52 -11.37, 16.68 -11.62 C17.83 -11.86, 18.7 -11.92, 19.86 -11.97 C21.02 -12.01, 22.37 -12.03, 23.64 -11.88 C24.9 -11.73, 26.3 -11.41, 27.45 -11.07 C28.61 -10.73, 29.39 -10.47, 30.56 -9.84 C31.73 -9.22, 33.19 -8.36, 34.5 -7.34 C35.8 -6.33, 36.87 -5.18, 38.37 -3.75 C39.86 -2.31, 41.23 -0.95, 43.45 1.25 C45.66 3.45, 48.24 6.07, 51.64 9.46 C55.03 12.85, 59.87 17.68, 63.81 21.61 C67.75 25.53, 70.93 28.68, 75.27 33.02 C79.61 37.36, 85.79 43.55, 89.87 47.64 C93.95 51.73, 97.62 55.39, 99.76 57.56 C101.89 59.72, 101.82 59.6, 102.67 60.63 C103.52 61.66, 104.28 62.69, 104.88 63.72 C105.49 64.76, 105.92 65.73, 106.32 66.83 C106.71 67.92, 107.06 69.19, 107.27 70.29 C107.47 71.38, 107.49 72.33, 107.54 73.42 C107.6 74.51, 107.7 75.62, 107.6 76.81 C107.5 78.01, 107.33 79.25, 106.93 80.59 C106.53 81.93, 105.92 83.51, 105.21 84.85 C104.51 86.19, 103.9 87.19, 102.71 88.63 C101.53 90.07, 100.29 91.28, 98.12 93.49 C95.94 95.69, 94.05 97.52, 89.68 101.88 C85.31 106.23, 78.11 113.43, 71.9 119.62 C65.68 125.82, 58.1 133.36, 52.39 139.07 C46.67 144.79, 40.79 150.84, 37.62 153.93 C34.44 157.01, 34.8 156.61, 33.36 157.59 C31.93 158.58, 30.57 159.23, 28.99 159.83 C27.42 160.43, 25.67 160.97, 23.93 161.21 C22.18 161.45, 20.34 161.51, 18.51 161.28 C16.68 161.06, 14.57 160.46, 12.94 159.84 C11.31 159.22, 10.18 158.61, 8.72 157.57 C7.25 156.54, 5.65 155.03, 4.16 153.64 C2.68 152.24, 2.04 151.46, -0.2 149.2 C-2.44 146.93, -5.97 143.37, -9.27 140.06 C-12.58 136.74, -16.22 133.12, -20.04 129.29 C-23.87 125.47, -28.14 121.18, -32.2 117.12 C-36.26 113.05, -40.1 109.21, -44.42 104.89 C-48.74 100.57, -55.41 93.95, -58.13 91.19 C-60.85 88.44, -59.96 89.33, -60.73 88.35 C-61.5 87.38, -62.15 86.44, -62.77 85.34 C-63.39 84.23, -63.99 83.09, -64.43 81.72 C-64.87 80.35, -65.24 78.69, -65.41 77.11 C-65.58 75.53, -65.61 73.88, -65.44 72.23 C-65.27 70.58, -64.97 68.78, -64.4 67.21 C-63.83 65.64, -62.98 64.26, -62.02 62.82 C-61.05 61.37, -60.22 60.27, -58.62 58.53 C-57.02 56.79, -56.11 56.08, -52.41 52.39 C-48.71 48.7, -42.62 42.59, -36.41 36.39 C-30.2 30.18, -21.23 21.23, -15.16 15.16 C-9.09 9.1, -2.53 2.53, 0 0 M0 0 C0.73 -0.74, 3.17 -3.25, 4.35 -4.42 C5.54 -5.59, 6.23 -6.3, 7.12 -7.04 C8.01 -7.78, 8.72 -8.28, 9.68 -8.86 C10.65 -9.43, 11.75 -10.03, 12.92 -10.49 C14.08 -10.95, 15.52 -11.37, 16.68 -11.62 C17.83 -11.86, 18.7 -11.92, 19.86 -11.97 C21.02 -12.01, 22.37 -12.03, 23.64 -11.88 C24.9 -11.73, 26.3 -11.41, 27.45 -11.07 C28.61 -10.73, 29.39 -10.47, 30.56 -9.84 C31.73 -9.22, 33.19 -8.36, 34.5 -7.34 C35.8 -6.33, 36.87 -5.18, 38.37 -3.75 C39.86 -2.31, 41.23 -0.95, 43.45 1.25 C45.66 3.45, 48.24 6.07, 51.64 9.46 C55.03 12.85, 59.87 17.68, 63.81 21.61 C67.75 25.53, 70.93 28.68, 75.27 33.02 C79.61 37.36, 85.79 43.55, 89.87 47.64 C93.95 51.73, 97.62 55.39, 99.76 57.56 C101.89 59.72, 101.82 59.6, 102.67 60.63 C103.52 61.66, 104.28 62.69, 104.88 63.72 C105.49 64.76, 105.92 65.73, 106.32 66.83 C106.71 67.92, 107.06 69.19, 107.27 70.29 C107.47 71.38, 107.49 72.33, 107.54 73.42 C107.6 74.51, 107.7 75.62, 107.6 76.81 C107.5 78.01, 107.33 79.25, 106.93 80.59 C106.53 81.93, 105.92 83.51, 105.21 84.85 C104.51 86.19, 103.9 87.19, 102.71 88.63 C101.53 90.07, 100.29 91.28, 98.12 93.49 C95.94 95.69, 94.05 97.52, 89.68 101.88 C85.31 106.23, 78.11 113.43, 71.9 119.62 C65.68 125.82, 58.1 133.36, 52.39 139.07 C46.67 144.79, 40.79 150.84, 37.62 153.93 C34.44 157.01, 34.8 156.61, 33.36 157.59 C31.93 158.58, 30.57 159.23, 28.99 159.83 C27.42 160.43, 25.67 160.97, 23.93 161.21 C22.18 161.45, 20.34 161.51, 18.51 161.28 C16.68 161.06, 14.57 160.46, 12.94 159.84 C11.31 159.22, 10.18 158.61, 8.72 157.57 C7.25 156.54, 5.65 155.03, 4.16 153.64 C2.68 152.24, 2.04 151.46, -0.2 149.2 C-2.44 146.93, -5.97 143.37, -9.27 140.06 C-12.58 136.74, -16.22 133.12, -20.04 129.29 C-23.87 125.47, -28.14 121.18, -32.2 117.12 C-36.26 113.05, -40.1 109.21, -44.42 104.89 C-48.74 100.57, -55.41 93.95, -58.13 91.19 C-60.85 88.44, -59.96 89.33, -60.73 88.35 C-61.5 87.38, -62.15 86.44, -62.77 85.34 C-63.39 84.23, -63.99 83.09, -64.43 81.72 C-64.87 80.35, -65.24 78.69, -65.41 77.11 C-65.58 75.53, -65.61 73.88, -65.44 72.23 C-65.27 70.58, -64.97 68.78, -64.4 67.21 C-63.83 65.64, -62.98 64.26, -62.02 62.82 C-61.05 61.37, -60.22 60.27, -58.62 58.53 C-57.02 56.79, -56.11 56.08, -52.41 52.39 C-48.71 48.7, -42.62 42.59, -36.41 36.39 C-30.2 30.18, -21.23 21.23, -15.16 15.16 C-9.09 9.1, -2.53 2.53, 0 0" stroke="#E1E1E1" stroke-width="2" fill="none"></path></g></g><mask></mask></svg>