<svg version="1.1" xmlns="http://www.w3.org/2000/svg" viewBox="0 0 351.98678679030877 329.50962976815265" width="351.98678679030877" height="329.50962976815265" class="excalidraw-svg"><!-- svg-source:excalidraw --><metadata></metadata><defs><style class="style-fonts">
      </style></defs><rect x="0" y="0" width="351.98678679030877" height="329.50962976815265" fill="#000000"></rect><g stroke-linecap="round"><g transform="translate(302.14818513867056 113.92867465743088) rotate(0 -75.22660109079408 -42.548582018771)"><path d="M0 0 C-1.7 -2.79, -5.27 -9.69, -10.23 -16.76 C-15.18 -23.83, -23.29 -35.04, -29.72 -42.4 C-36.15 -49.77, -42.2 -55.31, -48.81 -60.96 C-55.43 -66.61, -62.46 -71.71, -69.41 -76.29 C-76.37 -80.87, -83.51 -85.39, -90.55 -88.44 C-97.59 -91.49, -104.68 -93.43, -111.65 -94.58 C-118.61 -95.74, -125.87 -96.43, -132.34 -95.38 C-138.81 -94.33, -148.97 -89.61, -150.45 -88.27 C-151.94 -86.92, -145.3 -87.95, -141.26 -87.31 C-137.21 -86.68, -130.94 -85.68, -126.18 -84.47 C-121.42 -83.27, -118.2 -82.65, -112.68 -80.1 C-107.17 -77.55, -100 -73.68, -93.11 -69.17 C-86.21 -64.67, -78.31 -59.05, -71.33 -53.05 C-64.34 -47.06, -57.2 -39.8, -51.2 -33.21 C-45.2 -26.62, -39.92 -19.59, -35.32 -13.52 C-30.72 -7.44, -26.35 -0.74, -23.61 3.23 C-20.87 7.19, -19.69 9.1, -18.9 10.28 M0 0 C-1.7 -2.79, -5.27 -9.69, -10.23 -16.76 C-15.18 -23.83, -23.29 -35.04, -29.72 -42.4 C-36.15 -49.77, -42.2 -55.31, -48.81 -60.96 C-55.43 -66.61, -62.46 -71.71, -69.41 -76.29 C-76.37 -80.87, -83.51 -85.39, -90.55 -88.44 C-97.59 -91.49, -104.68 -93.43, -111.65 -94.58 C-118.61 -95.74, -125.87 -96.43, -132.34 -95.38 C-138.81 -94.33, -148.97 -89.61, -150.45 -88.27 C-151.94 -86.92, -145.3 -87.95, -141.26 -87.31 C-137.21 -86.68, -130.94 -85.68, -126.18 -84.47 C-121.42 -83.27, -118.2 -82.65, -112.68 -80.1 C-107.17 -77.55, -100 -73.68, -93.11 -69.17 C-86.21 -64.67, -78.31 -59.05, -71.33 -53.05 C-64.34 -47.06, -57.2 -39.8, -51.2 -33.21 C-45.2 -26.62, -39.92 -19.59, -35.32 -13.52 C-30.72 -7.44, -26.35 -0.74, -23.61 3.23 C-20.87 7.19, -19.69 9.1, -18.9 10.28" stroke="#E1E1E1" stroke-width="4" fill="none"></path></g></g><mask></mask><g stroke-linecap="round"><g transform="translate(283.72955332750064 124.97464337113256) rotate(0 9.232758909633759 -5.332791044535551)"><path d="M0 0 C1.76 -1.05, 7.47 -4.52, 10.54 -6.3 C13.62 -8.08, 17.15 -9.94, 18.47 -10.67 M0 0 C1.76 -1.05, 7.47 -4.52, 10.54 -6.3 C13.62 -8.08, 17.15 -9.94, 18.47 -10.67" stroke="#E1E1E1" stroke-width="4" fill="none"></path></g></g><mask></mask><g stroke-linecap="round"><g transform="translate(113.12539156909543 200.75532243473737) rotate(0 102.43583764808596 -37.46994363607695)"><path d="M0 0 C-1.26 -2.74, -4.8 -9.38, -7.58 -16.46 C-10.36 -23.54, -14.21 -33.93, -16.68 -42.47 C-19.15 -51, -21.22 -59.17, -22.4 -67.66 C-23.58 -76.16, -23.77 -85.46, -23.75 -93.44 C-23.73 -101.41, -23.6 -107.93, -22.28 -115.52 C-20.97 -123.11, -18.96 -132.03, -15.85 -138.98 C-12.74 -145.93, -8.54 -151.84, -3.62 -157.21 C1.3 -162.57, 8.27 -167.37, 13.69 -171.16 C19.11 -174.94, 24.12 -177.37, 28.89 -179.92 C33.66 -182.47, 37.59 -184.73, 42.33 -186.47 C47.06 -188.21, 52.38 -189.71, 57.29 -190.36 C62.21 -191, 66.91 -190.76, 71.83 -190.35 C76.74 -189.94, 81.43 -189.35, 86.79 -187.9 C92.16 -186.44, 97.87 -184.42, 104 -181.62 C110.12 -178.81, 117.12 -175.1, 123.54 -171.07 C129.96 -167.04, 137.03 -161.91, 142.53 -157.44 C148.03 -152.97, 152.44 -148.32, 156.52 -144.25 C160.6 -140.19, 163.11 -137.6, 167.01 -133.04 C170.91 -128.48, 175.82 -122.5, 179.91 -116.9 C184.01 -111.29, 187.94 -105.42, 191.59 -99.43 C195.24 -93.44, 198.41 -87.66, 201.81 -80.95 C205.22 -74.25, 209.1 -66.35, 212.02 -59.21 C214.94 -52.07, 217.18 -45.37, 219.34 -38.13 C221.5 -30.88, 223.46 -22.62, 224.97 -15.76 C226.48 -8.9, 227.81 -4.12, 228.42 3.06 C229.03 10.24, 228.92 20.3, 228.62 27.33 C228.32 34.36, 227.83 39.45, 226.65 45.26 C225.46 51.08, 223.99 56.61, 221.5 62.21 C219.01 67.82, 215.58 74, 211.73 78.91 C207.87 83.82, 203.01 88.17, 198.36 91.67 C193.72 95.16, 189.15 96.85, 183.84 99.88 C178.53 102.9, 171.94 107.39, 166.5 109.81 C161.06 112.22, 156.56 113.43, 151.19 114.37 C145.83 115.3, 140.75 116.11, 134.32 115.42 C127.89 114.73, 119.74 112.47, 112.6 110.23 C105.46 107.98, 97.37 104.91, 91.47 101.96 C85.58 99.01, 82.03 95.95, 77.23 92.55 C72.44 89.15, 67.7 85.83, 62.7 81.57 C57.71 77.32, 52.17 72.08, 47.27 67.02 C42.38 61.96, 37.46 56.15, 33.33 51.22 C29.2 46.3, 24.3 39.77, 22.5 37.48 M0 0 C-1.26 -2.74, -4.8 -9.38, -7.58 -16.46 C-10.36 -23.54, -14.21 -33.93, -16.68 -42.47 C-19.15 -51, -21.22 -59.17, -22.4 -67.66 C-23.58 -76.16, -23.77 -85.46, -23.75 -93.44 C-23.73 -101.41, -23.6 -107.93, -22.28 -115.52 C-20.97 -123.11, -18.96 -132.03, -15.85 -138.98 C-12.74 -145.93, -8.54 -151.84, -3.62 -157.21 C1.3 -162.57, 8.27 -167.37, 13.69 -171.16 C19.11 -174.94, 24.12 -177.37, 28.89 -179.92 C33.66 -182.47, 37.59 -184.73, 42.33 -186.47 C47.06 -188.21, 52.38 -189.71, 57.29 -190.36 C62.21 -191, 66.91 -190.76, 71.83 -190.35 C76.74 -189.94, 81.43 -189.35, 86.79 -187.9 C92.16 -186.44, 97.87 -184.42, 104 -181.62 C110.12 -178.81, 117.12 -175.1, 123.54 -171.07 C129.96 -167.04, 137.03 -161.91, 142.53 -157.44 C148.03 -152.97, 152.44 -148.32, 156.52 -144.25 C160.6 -140.19, 163.11 -137.6, 167.01 -133.04 C170.91 -128.48, 175.82 -122.5, 179.91 -116.9 C184.01 -111.29, 187.94 -105.42, 191.59 -99.43 C195.24 -93.44, 198.41 -87.66, 201.81 -80.95 C205.22 -74.25, 209.1 -66.35, 212.02 -59.21 C214.94 -52.07, 217.18 -45.37, 219.34 -38.13 C221.5 -30.88, 223.46 -22.62, 224.97 -15.76 C226.48 -8.9, 227.81 -4.12, 228.42 3.06 C229.03 10.24, 228.92 20.3, 228.62 27.33 C228.32 34.36, 227.83 39.45, 226.65 45.26 C225.46 51.08, 223.99 56.61, 221.5 62.21 C219.01 67.82, 215.58 74, 211.73 78.91 C207.87 83.82, 203.01 88.17, 198.36 91.67 C193.72 95.16, 189.15 96.85, 183.84 99.88 C178.53 102.9, 171.94 107.39, 166.5 109.81 C161.06 112.22, 156.56 113.43, 151.19 114.37 C145.83 115.3, 140.75 116.11, 134.32 115.42 C127.89 114.73, 119.74 112.47, 112.6 110.23 C105.46 107.98, 97.37 104.91, 91.47 101.96 C85.58 99.01, 82.03 95.95, 77.23 92.55 C72.44 89.15, 67.7 85.83, 62.7 81.57 C57.71 77.32, 52.17 72.08, 47.27 67.02 C42.38 61.96, 37.46 56.15, 33.33 51.22 C29.2 46.3, 24.3 39.77, 22.5 37.48" stroke="#E1E1E1" stroke-width="4" fill="none"></path></g></g><mask></mask><g stroke-linecap="round"><g transform="translate(143.110919160425 233.9565467334865) rotate(0 61.46973189165216 -65.50790140985109)"><path d="M0 0 C1.44 2.12, 4.57 7.69, 8.63 12.71 C12.7 17.73, 18.83 24.74, 24.41 30.12 C29.99 35.51, 35.26 39.82, 42.11 45.02 C48.97 50.21, 56.78 56.65, 65.55 61.27 C74.33 65.89, 85.9 70.73, 94.76 72.73 C103.62 74.73, 111.85 74.1, 118.71 73.27 C125.56 72.45, 130.66 69.99, 135.91 67.77 C141.16 65.55, 146.99 62.3, 150.22 59.96 C153.45 57.62, 153.18 57.27, 155.28 53.72 C157.39 50.17, 160.77 44.92, 162.86 38.66 C164.96 32.41, 166.85 24.63, 167.86 16.21 C168.87 7.79, 169.22 -3.51, 168.94 -11.85 C168.66 -20.19, 168.17 -24.73, 166.16 -33.84 C164.16 -42.95, 160.16 -57.17, 156.91 -66.52 C153.67 -75.87, 150.07 -82.88, 146.69 -89.95 C143.3 -97.01, 141.38 -101.29, 136.61 -108.91 C131.83 -116.53, 124.45 -127.27, 118.03 -135.69 C111.62 -144.11, 105.59 -151.9, 98.1 -159.45 C90.61 -167, 81.06 -175.16, 73.1 -180.98 C65.14 -186.8, 58.06 -190.82, 50.35 -194.35 C42.63 -197.88, 33.51 -200.49, 26.79 -202.15 C20.06 -203.8, 14.54 -204.07, 9.99 -204.29 C5.45 -204.51, 2.52 -204.22, -0.47 -203.46 C-3.46 -202.71, -4.63 -201.69, -7.94 -199.76 C-11.26 -197.82, -16.55 -194.68, -20.34 -191.83 C-24.13 -188.98, -28.04 -185.65, -30.68 -182.65 C-33.32 -179.65, -34.31 -177.65, -36.2 -173.85 C-38.09 -170.05, -40.54 -164.41, -42.01 -159.85 C-43.47 -155.29, -44.34 -151.74, -45.01 -146.49 C-45.67 -141.24, -46.05 -134.36, -46 -128.35 C-45.95 -122.35, -45.41 -116.78, -44.72 -110.46 C-44.03 -104.13, -43.4 -97.57, -41.86 -90.41 C-40.32 -83.25, -37.78 -74.37, -35.49 -67.49 C-33.2 -60.61, -30.33 -54.21, -28.13 -49.14 C-25.94 -44.06, -23.3 -39.04, -22.33 -37.02 M0 0 C1.44 2.12, 4.57 7.69, 8.63 12.71 C12.7 17.73, 18.83 24.74, 24.41 30.12 C29.99 35.51, 35.26 39.82, 42.11 45.02 C48.97 50.21, 56.78 56.65, 65.55 61.27 C74.33 65.89, 85.9 70.73, 94.76 72.73 C103.62 74.73, 111.85 74.1, 118.71 73.27 C125.56 72.45, 130.66 69.99, 135.91 67.77 C141.16 65.55, 146.99 62.3, 150.22 59.96 C153.45 57.62, 153.18 57.27, 155.28 53.72 C157.39 50.17, 160.77 44.92, 162.86 38.66 C164.96 32.41, 166.85 24.63, 167.86 16.21 C168.87 7.79, 169.22 -3.51, 168.94 -11.85 C168.66 -20.19, 168.17 -24.73, 166.16 -33.84 C164.16 -42.95, 160.16 -57.17, 156.91 -66.52 C153.67 -75.87, 150.07 -82.88, 146.69 -89.95 C143.3 -97.01, 141.38 -101.29, 136.61 -108.91 C131.83 -116.53, 124.45 -127.27, 118.03 -135.69 C111.62 -144.11, 105.59 -151.9, 98.1 -159.45 C90.61 -167, 81.06 -175.16, 73.1 -180.98 C65.14 -186.8, 58.06 -190.82, 50.35 -194.35 C42.63 -197.88, 33.51 -200.49, 26.79 -202.15 C20.06 -203.8, 14.54 -204.07, 9.99 -204.29 C5.45 -204.51, 2.52 -204.22, -0.47 -203.46 C-3.46 -202.71, -4.63 -201.69, -7.94 -199.76 C-11.26 -197.82, -16.55 -194.68, -20.34 -191.83 C-24.13 -188.98, -28.04 -185.65, -30.68 -182.65 C-33.32 -179.65, -34.31 -177.65, -36.2 -173.85 C-38.09 -170.05, -40.54 -164.41, -42.01 -159.85 C-43.47 -155.29, -44.34 -151.74, -45.01 -146.49 C-45.67 -141.24, -46.05 -134.36, -46 -128.35 C-45.95 -122.35, -45.41 -116.78, -44.72 -110.46 C-44.03 -104.13, -43.4 -97.57, -41.86 -90.41 C-40.32 -83.25, -37.78 -74.37, -35.49 -67.49 C-33.2 -60.61, -30.33 -54.21, -28.13 -49.14 C-25.94 -44.06, -23.3 -39.04, -22.33 -37.02" stroke="#E1E1E1" stroke-width="4" fill="none"></path></g></g><mask></mask><g stroke-linecap="round"><g transform="translate(112.04364758477544 200.56782984467526) rotate(0 -0.8818023507284352 18.61878288852786)"><path d="M0 0 C-0.83 1.27, -3.79 4.97, -4.98 7.65 C-6.18 10.32, -7.03 13.08, -7.19 16.06 C-7.35 19.03, -6.86 22.76, -5.93 25.48 C-5.01 28.2, -3.55 30.41, -1.66 32.37 C0.23 34.33, 4.24 36.43, 5.42 37.24 M0 0 C-0.83 1.27, -3.79 4.97, -4.98 7.65 C-6.18 10.32, -7.03 13.08, -7.19 16.06 C-7.35 19.03, -6.86 22.76, -5.93 25.48 C-5.01 28.2, -3.55 30.41, -1.66 32.37 C0.23 34.33, 4.24 36.43, 5.42 37.24" stroke="#E1E1E1" stroke-width="4" fill="none"></path></g></g><mask></mask><g stroke-linecap="round"><g transform="translate(106.92609124324377 274.83245204111313) rotate(0 5.21686208250722 -18.416561257442353)"><path d="M0 0 C0.8 -3.14, 3.04 -12.72, 4.78 -18.86 C6.51 -25, 9.49 -33.84, 10.43 -36.83 M0 0 C0.8 -3.14, 3.04 -12.72, 4.78 -18.86 C6.51 -25, 9.49 -33.84, 10.43 -36.83" stroke="#E1E1E1" stroke-width="4" fill="none"></path></g></g><mask></mask><g stroke-linecap="round"><g transform="translate(114.90748611324403 277.13402591761405) rotate(0 5.046066202538924 -18.36271767439696)"><path d="M0 0 C0.86 -3.06, 3.47 -12.26, 5.15 -18.38 C6.83 -24.5, 9.27 -33.67, 10.09 -36.73 M0 0 C0.86 -3.06, 3.47 -12.26, 5.15 -18.38 C6.83 -24.5, 9.27 -33.67, 10.09 -36.73" stroke="#E1E1E1" stroke-width="4" fill="none"></path></g></g><mask></mask><g stroke-linecap="round"><g transform="translate(125.06093777405329 240.061847227116) rotate(0 5.2542165619994705 -0.7182175828989159)"><path d="M0 0 C0.74 -0.03, 2.71 0.04, 4.46 -0.2 C6.22 -0.44, 9.5 -1.23, 10.51 -1.44 M0 0 C0.74 -0.03, 2.71 0.04, 4.46 -0.2 C6.22 -0.44, 9.5 -1.23, 10.51 -1.44" stroke="#E1E1E1" stroke-width="4" fill="none"></path></g></g><mask></mask><g stroke-linecap="round"><g transform="translate(143.50255695721847 233.66085622849954) rotate(0 3.2497515289751107 -11.423211844607607)"><path d="M0 0 C0.56 -0.71, 2.4 -2.45, 3.34 -4.28 C4.28 -6.12, 5.11 -8.75, 5.64 -10.99 C6.16 -13.24, 6.58 -15.79, 6.5 -17.76 C6.42 -19.74, 5.38 -22, 5.15 -22.85 M0 0 C0.56 -0.71, 2.4 -2.45, 3.34 -4.28 C4.28 -6.12, 5.11 -8.75, 5.64 -10.99 C6.16 -13.24, 6.58 -15.79, 6.5 -17.76 C6.42 -19.74, 5.38 -22, 5.15 -22.85" stroke="#E1E1E1" stroke-width="4" fill="none"></path></g></g><mask></mask><g stroke-linecap="round"><g transform="translate(148.53812892471615 210.37363792302943) rotate(0 21.457477141650486 -12.625751602689697)"><path d="M0 0 C2.57 -1.44, 9.38 -5.1, 15.42 -8.65 C21.45 -12.21, 31.64 -18.56, 36.22 -21.33 C40.8 -24.1, 41.8 -24.6, 42.91 -25.25 M0 0 C2.57 -1.44, 9.38 -5.1, 15.42 -8.65 C21.45 -12.21, 31.64 -18.56, 36.22 -21.33 C40.8 -24.1, 41.8 -24.6, 42.91 -25.25" stroke="#E1E1E1" stroke-width="4" fill="none"></path></g></g><mask></mask><g stroke-linecap="round"><g transform="translate(186.87390758015857 178.05787940369765) rotate(0 -21.556415437421464 12.610142530401404)"><path d="M0 0 C-2.18 1.35, -7.78 4.89, -13.08 8.11 C-18.37 11.33, -26.75 16.47, -31.76 19.32 C-36.77 22.17, -41.22 24.24, -43.11 25.22 M0 0 C-2.18 1.35, -7.78 4.89, -13.08 8.11 C-18.37 11.33, -26.75 16.47, -31.76 19.32 C-36.77 22.17, -41.22 24.24, -43.11 25.22" stroke="#E1E1E1" stroke-width="4" fill="none"></path></g></g><mask></mask><g stroke-linecap="round"><g transform="translate(186.96969319607484 177.6020158596051) rotate(0 16.538061952207954 -7.385683518290556)"><path d="M0 0 C-0.51 -1.24, -2.19 -4.97, -3.07 -7.46 C-3.94 -9.95, -4.77 -12, -5.23 -14.94 C-5.69 -17.87, -6.23 -22.1, -5.82 -25.07 C-5.41 -28.04, -4.28 -30.81, -2.79 -32.75 C-1.3 -34.69, 0.92 -36.12, 3.13 -36.71 C5.34 -37.3, 7.79 -37.06, 10.46 -36.28 C13.14 -35.49, 16.7 -33.71, 19.17 -31.98 C21.65 -30.25, 23.45 -27.9, 25.31 -25.9 C27.18 -23.9, 28.61 -22.73, 30.36 -19.96 C32.12 -17.19, 34.53 -12.64, 35.86 -9.28 C37.18 -5.93, 37.81 -3.46, 38.32 0.18 C38.82 3.82, 39.46 9.39, 38.9 12.54 C38.33 15.69, 36.68 17.52, 34.95 19.09 C33.22 20.65, 31.15 21.84, 28.51 21.94 C25.88 22.03, 22.15 21.1, 19.13 19.66 C16.1 18.23, 12.72 15.33, 10.36 13.31 C8.01 11.29, 5.91 8.5, 5.02 7.54 M0 0 C-0.51 -1.24, -2.19 -4.97, -3.07 -7.46 C-3.94 -9.95, -4.77 -12, -5.23 -14.94 C-5.69 -17.87, -6.23 -22.1, -5.82 -25.07 C-5.41 -28.04, -4.28 -30.81, -2.79 -32.75 C-1.3 -34.69, 0.92 -36.12, 3.13 -36.71 C5.34 -37.3, 7.79 -37.06, 10.46 -36.28 C13.14 -35.49, 16.7 -33.71, 19.17 -31.98 C21.65 -30.25, 23.45 -27.9, 25.31 -25.9 C27.18 -23.9, 28.61 -22.73, 30.36 -19.96 C32.12 -17.19, 34.53 -12.64, 35.86 -9.28 C37.18 -5.93, 37.81 -3.46, 38.32 0.18 C38.82 3.82, 39.46 9.39, 38.9 12.54 C38.33 15.69, 36.68 17.52, 34.95 19.09 C33.22 20.65, 31.15 21.84, 28.51 21.94 C25.88 22.03, 22.15 21.1, 19.13 19.66 C16.1 18.23, 12.72 15.33, 10.36 13.31 C8.01 11.29, 5.91 8.5, 5.02 7.54" stroke="#E1E1E1" stroke-width="4" fill="none"></path></g></g><mask></mask><g stroke-linecap="round"><g transform="translate(143.5319231779646 203.13911585020332) rotate(0 -11.225884583646405 -3.804388018496603)"><path d="M0 0 C-0.63 -0.66, -2.03 -2.79, -3.8 -3.99 C-5.57 -5.19, -8.32 -6.6, -10.62 -7.2 C-12.92 -7.8, -15.65 -7.72, -17.63 -7.61 C-19.6 -7.5, -21.65 -6.73, -22.45 -6.56 M0 0 C-0.63 -0.66, -2.03 -2.79, -3.8 -3.99 C-5.57 -5.19, -8.32 -6.6, -10.62 -7.2 C-12.92 -7.8, -15.65 -7.72, -17.63 -7.61 C-19.6 -7.5, -21.65 -6.73, -22.45 -6.56" stroke="#E1E1E1" stroke-width="4" fill="none"></path></g></g><mask></mask><g stroke-linecap="round"><g transform="translate(139.44998909868053 193.02232052299757) rotate(0 63.81260660914192 -22.58870497166393)"><path d="M0 0 C-0.8 -1.65, -3.09 -5.96, -4.8 -9.93 C-6.5 -13.89, -8.41 -18.27, -10.23 -23.78 C-12.05 -29.29, -14.38 -36.27, -15.74 -42.98 C-17.09 -49.69, -18.31 -56.22, -18.37 -64.04 C-18.44 -71.86, -17.95 -82.14, -16.15 -89.9 C-14.35 -97.66, -11.2 -105.13, -7.57 -110.62 C-3.93 -116.12, 1.01 -119.99, 5.66 -122.86 C10.31 -125.73, 15.43 -127.02, 20.32 -127.86 C25.21 -128.69, 29.7 -128.49, 35 -127.86 C40.29 -127.22, 46.37 -126.16, 52.09 -124.03 C57.82 -121.91, 63.25 -119.17, 69.36 -115.12 C75.46 -111.07, 82.49 -105.49, 88.73 -99.72 C94.96 -93.95, 100.94 -87.98, 106.76 -80.49 C112.59 -73.01, 119.08 -62.82, 123.68 -54.81 C128.28 -46.8, 131.32 -40.09, 134.35 -32.43 C137.39 -24.77, 139.95 -16.19, 141.89 -8.84 C143.83 -1.48, 145.38 4.19, 146 11.71 C146.62 19.22, 146.55 28.84, 145.58 36.25 C144.62 43.67, 142.79 50.43, 140.21 56.2 C137.63 61.96, 134.23 66.93, 130.1 70.83 C125.97 74.73, 120.76 77.62, 115.44 79.6 C110.13 81.57, 104.61 82.9, 98.23 82.68 C91.84 82.46, 84.24 80.87, 77.15 78.28 C70.06 75.69, 61.56 70.85, 55.68 67.14 C49.81 63.44, 46.22 59.99, 41.88 56.05 C37.54 52.1, 33.92 48.33, 29.63 43.48 C25.34 38.62, 18.39 29.66, 16.14 26.9 M0 0 C-0.8 -1.65, -3.09 -5.96, -4.8 -9.93 C-6.5 -13.89, -8.41 -18.27, -10.23 -23.78 C-12.05 -29.29, -14.38 -36.27, -15.74 -42.98 C-17.09 -49.69, -18.31 -56.22, -18.37 -64.04 C-18.44 -71.86, -17.95 -82.14, -16.15 -89.9 C-14.35 -97.66, -11.2 -105.13, -7.57 -110.62 C-3.93 -116.12, 1.01 -119.99, 5.66 -122.86 C10.31 -125.73, 15.43 -127.02, 20.32 -127.86 C25.21 -128.69, 29.7 -128.49, 35 -127.86 C40.29 -127.22, 46.37 -126.16, 52.09 -124.03 C57.82 -121.91, 63.25 -119.17, 69.36 -115.12 C75.46 -111.07, 82.49 -105.49, 88.73 -99.72 C94.96 -93.95, 100.94 -87.98, 106.76 -80.49 C112.59 -73.01, 119.08 -62.82, 123.68 -54.81 C128.28 -46.8, 131.32 -40.09, 134.35 -32.43 C137.39 -24.77, 139.95 -16.19, 141.89 -8.84 C143.83 -1.48, 145.38 4.19, 146 11.71 C146.62 19.22, 146.55 28.84, 145.58 36.25 C144.62 43.67, 142.79 50.43, 140.21 56.2 C137.63 61.96, 134.23 66.93, 130.1 70.83 C125.97 74.73, 120.76 77.62, 115.44 79.6 C110.13 81.57, 104.61 82.9, 98.23 82.68 C91.84 82.46, 84.24 80.87, 77.15 78.28 C70.06 75.69, 61.56 70.85, 55.68 67.14 C49.81 63.44, 46.22 59.99, 41.88 56.05 C37.54 52.1, 33.92 48.33, 29.63 43.48 C25.34 38.62, 18.39 29.66, 16.14 26.9" stroke="#E1E1E1" stroke-width="4" fill="none"></path></g></g><mask></mask><g stroke-linecap="round"><g transform="translate(157.72688994556 218.116777647962) rotate(0 46.03578398781559 -47.829822338337365)"><path d="M0 0 C1.62 2.09, 5.78 8.02, 9.75 12.57 C13.72 17.11, 19.09 22.94, 23.84 27.27 C28.6 31.61, 32.47 34.81, 38.3 38.58 C44.13 42.36, 52.28 47.31, 58.81 49.94 C65.35 52.57, 71.11 54.09, 77.48 54.37 C83.85 54.65, 91.41 53.65, 97.02 51.63 C102.64 49.6, 107.18 46.67, 111.16 42.2 C115.15 37.72, 118.71 30.94, 120.93 24.78 C123.15 18.61, 124.02 12.15, 124.5 5.21 C124.98 -1.73, 124.64 -9.84, 123.79 -16.84 C122.95 -23.85, 122.09 -28.21, 119.43 -36.81 C116.77 -45.42, 111.98 -59.42, 107.82 -68.49 C103.66 -77.56, 99.57 -83.68, 94.47 -91.23 C89.36 -98.78, 82.79 -107.46, 77.2 -113.79 C71.6 -120.13, 66.67 -124.57, 60.91 -129.24 C55.15 -133.9, 49.07 -138.48, 42.62 -141.8 C36.17 -145.12, 28.73 -147.77, 22.23 -149.14 C15.73 -150.51, 9.01 -150.56, 3.63 -150.03 C-1.74 -149.5, -6.09 -148.15, -10.03 -145.95 C-13.98 -143.76, -17.11 -140.46, -20.06 -136.86 C-23 -133.26, -25.65 -129.43, -27.72 -124.37 C-29.78 -119.32, -31.65 -112.5, -32.43 -106.53 C-33.21 -100.55, -32.89 -94.92, -32.39 -88.52 C-31.89 -82.12, -30.98 -75.42, -29.43 -68.12 C-27.88 -60.82, -25.44 -51.53, -23.09 -44.72 C-20.74 -37.91, -16.62 -30.17, -15.32 -27.26 M0 0 C1.62 2.09, 5.78 8.02, 9.75 12.57 C13.72 17.11, 19.09 22.94, 23.84 27.27 C28.6 31.61, 32.47 34.81, 38.3 38.58 C44.13 42.36, 52.28 47.31, 58.81 49.94 C65.35 52.57, 71.11 54.09, 77.48 54.37 C83.85 54.65, 91.41 53.65, 97.02 51.63 C102.64 49.6, 107.18 46.67, 111.16 42.2 C115.15 37.72, 118.71 30.94, 120.93 24.78 C123.15 18.61, 124.02 12.15, 124.5 5.21 C124.98 -1.73, 124.64 -9.84, 123.79 -16.84 C122.95 -23.85, 122.09 -28.21, 119.43 -36.81 C116.77 -45.42, 111.98 -59.42, 107.82 -68.49 C103.66 -77.56, 99.57 -83.68, 94.47 -91.23 C89.36 -98.78, 82.79 -107.46, 77.2 -113.79 C71.6 -120.13, 66.67 -124.57, 60.91 -129.24 C55.15 -133.9, 49.07 -138.48, 42.62 -141.8 C36.17 -145.12, 28.73 -147.77, 22.23 -149.14 C15.73 -150.51, 9.01 -150.56, 3.63 -150.03 C-1.74 -149.5, -6.09 -148.15, -10.03 -145.95 C-13.98 -143.76, -17.11 -140.46, -20.06 -136.86 C-23 -133.26, -25.65 -129.43, -27.72 -124.37 C-29.78 -119.32, -31.65 -112.5, -32.43 -106.53 C-33.21 -100.55, -32.89 -94.92, -32.39 -88.52 C-31.89 -82.12, -30.98 -75.42, -29.43 -68.12 C-27.88 -60.82, -25.44 -51.53, -23.09 -44.72 C-20.74 -37.91, -16.62 -30.17, -15.32 -27.26" stroke="#E1E1E1" stroke-width="4" fill="none"></path></g></g><mask></mask><g stroke-linecap="round"><g transform="translate(143.0024934294733 190.55279479241136) rotate(0 -1.6927612660239504 1.4410686498269314)"><path d="M0 0 C-0.56 0.48, -2.82 2.4, -3.39 2.88 M0 0 C-0.56 0.48, -2.82 2.4, -3.39 2.88" stroke="#E1E1E1" stroke-width="4" fill="none"></path></g></g><mask></mask><g stroke-linecap="round"><g transform="translate(158.260332195684 218.0670770095977) rotate(0 -1.6649383151371637 1.0974191967449372)"><path d="M0 0 C-0.55 0.37, -2.77 1.83, -3.33 2.19 M0 0 C-0.55 0.37, -2.77 1.83, -3.33 2.19" stroke="#E1E1E1" stroke-width="4" fill="none"></path></g></g><mask></mask><g stroke-linecap="round"><g transform="translate(179.9378061301889 205.16826585206775) rotate(0 23.588600536675273 -34.91517796694433)"><path d="M0 0 C1.49 1.74, 5.84 7.32, 8.94 10.42 C12.03 13.53, 14.4 15.94, 18.58 18.63 C22.77 21.33, 29.29 24.9, 34.04 26.58 C38.78 28.26, 42.94 28.77, 47.06 28.71 C51.19 28.65, 55.39 28.1, 58.76 26.22 C62.14 24.34, 65.02 21.33, 67.32 17.43 C69.63 13.53, 71.66 8.03, 72.58 2.82 C73.5 -2.38, 73.46 -8.17, 72.83 -13.8 C72.21 -19.44, 70.74 -25.01, 68.83 -30.97 C66.91 -36.93, 64.26 -43.82, 61.33 -49.58 C58.41 -55.34, 55.44 -60.08, 51.27 -65.53 C47.1 -70.98, 41.38 -77.63, 36.3 -82.3 C31.23 -86.96, 26.29 -90.81, 20.83 -93.52 C15.36 -96.23, 8.29 -97.88, 3.5 -98.54 C-1.29 -99.2, -4.29 -98.84, -7.9 -97.46 C-11.5 -96.07, -15.45 -93.63, -18.15 -90.21 C-20.85 -86.79, -22.85 -81.86, -24.1 -76.94 C-25.35 -72.03, -25.82 -66.41, -25.66 -60.72 C-25.49 -55.04, -24.59 -48.64, -23.11 -42.83 C-21.63 -37.03, -17.85 -28.73, -16.8 -25.9 M0 0 C1.49 1.74, 5.84 7.32, 8.94 10.42 C12.03 13.53, 14.4 15.94, 18.58 18.63 C22.77 21.33, 29.29 24.9, 34.04 26.58 C38.78 28.26, 42.94 28.77, 47.06 28.71 C51.19 28.65, 55.39 28.1, 58.76 26.22 C62.14 24.34, 65.02 21.33, 67.32 17.43 C69.63 13.53, 71.66 8.03, 72.58 2.82 C73.5 -2.38, 73.46 -8.17, 72.83 -13.8 C72.21 -19.44, 70.74 -25.01, 68.83 -30.97 C66.91 -36.93, 64.26 -43.82, 61.33 -49.58 C58.41 -55.34, 55.44 -60.08, 51.27 -65.53 C47.1 -70.98, 41.38 -77.63, 36.3 -82.3 C31.23 -86.96, 26.29 -90.81, 20.83 -93.52 C15.36 -96.23, 8.29 -97.88, 3.5 -98.54 C-1.29 -99.2, -4.29 -98.84, -7.9 -97.46 C-11.5 -96.07, -15.45 -93.63, -18.15 -90.21 C-20.85 -86.79, -22.85 -81.86, -24.1 -76.94 C-25.35 -72.03, -25.82 -66.41, -25.66 -60.72 C-25.49 -55.04, -24.59 -48.64, -23.11 -42.83 C-21.63 -37.03, -17.85 -28.73, -16.8 -25.9" stroke="#E1E1E1" stroke-width="4" fill="none"></path></g></g><mask></mask><g stroke-linecap="round"><g transform="translate(160.5006897011105 181.46271485569548) rotate(0 42.84146524239554 -11.302575909509315)"><path d="M0 0 C-1.17 -3.11, -5.39 -12.66, -7.02 -18.63 C-8.65 -24.6, -9.6 -29.81, -9.78 -35.82 C-9.96 -41.83, -9.49 -49.17, -8.11 -54.69 C-6.72 -60.21, -4.56 -65.23, -1.48 -68.93 C1.6 -72.62, 7.01 -75.27, 10.36 -76.86 C13.7 -78.45, 15.34 -78.38, 18.58 -78.47 C21.82 -78.57, 25.75 -78.46, 29.78 -77.41 C33.81 -76.37, 37.58 -75.24, 42.74 -72.19 C47.89 -69.14, 55.54 -63.95, 60.71 -59.13 C65.88 -54.31, 69.66 -49.06, 73.76 -43.29 C77.85 -37.52, 82.14 -30.8, 85.29 -24.49 C88.44 -18.19, 90.95 -11.99, 92.65 -5.45 C94.35 1.08, 95.15 8.67, 95.46 14.69 C95.78 20.71, 95.84 25.43, 94.55 30.65 C93.26 35.87, 90.57 42.19, 87.72 45.99 C84.88 49.79, 81.4 51.81, 77.47 53.46 C73.53 55.11, 69.18 56.2, 64.13 55.87 C59.07 55.54, 52.73 53.98, 47.14 51.5 C41.56 49.01, 35.27 44.63, 30.62 40.98 C25.96 37.32, 21.58 32.05, 19.2 29.57 C16.82 27.09, 16.8 26.67, 16.32 26.09 M0 0 C-1.17 -3.11, -5.39 -12.66, -7.02 -18.63 C-8.65 -24.6, -9.6 -29.81, -9.78 -35.82 C-9.96 -41.83, -9.49 -49.17, -8.11 -54.69 C-6.72 -60.21, -4.56 -65.23, -1.48 -68.93 C1.6 -72.62, 7.01 -75.27, 10.36 -76.86 C13.7 -78.45, 15.34 -78.38, 18.58 -78.47 C21.82 -78.57, 25.75 -78.46, 29.78 -77.41 C33.81 -76.37, 37.58 -75.24, 42.74 -72.19 C47.89 -69.14, 55.54 -63.95, 60.71 -59.13 C65.88 -54.31, 69.66 -49.06, 73.76 -43.29 C77.85 -37.52, 82.14 -30.8, 85.29 -24.49 C88.44 -18.19, 90.95 -11.99, 92.65 -5.45 C94.35 1.08, 95.15 8.67, 95.46 14.69 C95.78 20.71, 95.84 25.43, 94.55 30.65 C93.26 35.87, 90.57 42.19, 87.72 45.99 C84.88 49.79, 81.4 51.81, 77.47 53.46 C73.53 55.11, 69.18 56.2, 64.13 55.87 C59.07 55.54, 52.73 53.98, 47.14 51.5 C41.56 49.01, 35.27 44.63, 30.62 40.98 C25.96 37.32, 21.58 32.05, 19.2 29.57 C16.82 27.09, 16.8 26.67, 16.32 26.09" stroke="#E1E1E1" stroke-width="4" fill="none"></path></g></g><mask></mask><g stroke-linecap="round"><g transform="translate(179.73466772331807 205.50881406762346) rotate(0 -1.621396058400677 0.8820558879195204)"><path d="M0 0 C-0.54 0.29, -2.7 1.47, -3.24 1.76 M0 0 C-0.54 0.29, -2.7 1.47, -3.24 1.76" stroke="#E1E1E1" stroke-width="4" fill="none"></path></g></g><mask></mask><g stroke-linecap="round"><g transform="translate(162.92891459070785 179.65127613751326) rotate(0 -0.44463809309422686 0.1056221240413393)"><path d="M0 0 C-0.15 0.04, -0.74 0.18, -0.89 0.21 M0 0 C-0.15 0.04, -0.74 0.18, -0.89 0.21" stroke="#E1E1E1" stroke-width="4" fill="none"></path></g></g><mask></mask><g stroke-linecap="round"><g transform="translate(138.05598085147807 210.21581557928988) rotate(0 -9.221373517936229 9.413727177735282)"><path d="M0 0 C-0.13 1.24, 0.17 4.94, -0.81 7.46 C-1.79 9.97, -3.81 13.25, -5.89 15.07 C-7.97 16.9, -11.2 17.78, -13.29 18.4 C-15.39 19.03, -17.58 18.76, -18.44 18.83 M0 0 C-0.13 1.24, 0.17 4.94, -0.81 7.46 C-1.79 9.97, -3.81 13.25, -5.89 15.07 C-7.97 16.9, -11.2 17.78, -13.29 18.4 C-15.39 19.03, -17.58 18.76, -18.44 18.83" stroke="#E1E1E1" stroke-width="4" fill="none"></path></g></g><mask></mask><g stroke-linecap="round"><g transform="translate(119.94317540778502 229.87048002569492) rotate(0 6.175611652717066 -12.535173709557384)"><path d="M0 0 C-0.66 -0.75, -3.01 -2.6, -3.97 -4.5 C-4.93 -6.39, -5.69 -8.96, -5.76 -11.37 C-5.84 -13.77, -5.64 -16.88, -4.42 -18.93 C-3.19 -20.98, -0.74 -22.66, 1.59 -23.68 C3.92 -24.71, 7.27 -25.15, 9.55 -25.07 C11.83 -24.99, 13.85 -24.01, 15.27 -23.19 C16.7 -22.38, 17.64 -20.68, 18.11 -20.18 M0 0 C-0.66 -0.75, -3.01 -2.6, -3.97 -4.5 C-4.93 -6.39, -5.69 -8.96, -5.76 -11.37 C-5.84 -13.77, -5.64 -16.88, -4.42 -18.93 C-3.19 -20.98, -0.74 -22.66, 1.59 -23.68 C3.92 -24.71, 7.27 -25.15, 9.55 -25.07 C11.83 -24.99, 13.85 -24.01, 15.27 -23.19 C16.7 -22.38, 17.64 -20.68, 18.11 -20.18" stroke="#E1E1E1" stroke-width="4" fill="none"></path></g></g><mask></mask><g stroke-linecap="round"><g transform="translate(84.43118917004614 287.59445487683183) rotate(0 -15.03146200392851 -2.7214275699273855)"><path d="M0 0 C-2.14 -0.42, -7.84 -1.59, -12.86 -2.49 C-17.87 -3.4, -27.2 -4.95, -30.06 -5.44 M0 0 C-2.14 -0.42, -7.84 -1.59, -12.86 -2.49 C-17.87 -3.4, -27.2 -4.95, -30.06 -5.44" stroke="#E1E1E1" stroke-width="4" fill="none"></path></g></g><mask></mask><g stroke-linecap="round"><g transform="translate(52.4011528236569 290.7182759743134) rotate(0 15.202473793483563 2.9437570453152944)"><path d="M0 0 C5.07 0.98, 25.34 4.91, 30.4 5.89 M0 0 C5.07 0.98, 25.34 4.91, 30.4 5.89" stroke="#E1E1E1" stroke-width="4" fill="none"></path></g></g><mask></mask><g stroke-linecap="round"><g transform="translate(82.24954159107568 296.94562978185434) rotate(0 22.528870094450298 1.0125307916915034)"><path d="M0 0 C0.14 1.05, -0.14 3.68, 0.83 6.3 C1.81 8.91, 3.27 13.11, 5.85 15.69 C8.43 18.27, 12.55 20.75, 16.3 21.8 C20.05 22.84, 24.83 22.74, 28.36 21.97 C31.89 21.2, 35.08 19.17, 37.49 17.18 C39.89 15.18, 41.52 13.12, 42.78 10.01 C44.04 6.91, 45.08 1.98, 45.06 -1.43 C45.04 -4.84, 43.83 -7.96, 42.66 -10.46 C41.49 -12.96, 39.69 -14.84, 38.01 -16.42 C36.32 -18, 33.46 -19.36, 32.55 -19.94 M0 0 C0.14 1.05, -0.14 3.68, 0.83 6.3 C1.81 8.91, 3.27 13.11, 5.85 15.69 C8.43 18.27, 12.55 20.75, 16.3 21.8 C20.05 22.84, 24.83 22.74, 28.36 21.97 C31.89 21.2, 35.08 19.17, 37.49 17.18 C39.89 15.18, 41.52 13.12, 42.78 10.01 C44.04 6.91, 45.08 1.98, 45.06 -1.43 C45.04 -4.84, 43.83 -7.96, 42.66 -10.46 C41.49 -12.96, 39.69 -14.84, 38.01 -16.42 C36.32 -18, 33.46 -19.36, 32.55 -19.94" stroke="#E1E1E1" stroke-width="4" fill="none"></path></g></g><mask></mask><g stroke-linecap="round"><g transform="translate(107.02850335135531 274.81062384893005) rotate(0 -11.293495793793653 6.59525769164965)"><path d="M0 0 C-0.66 -0.03, -2.22 -0.34, -3.98 -0.16 C-5.74 0.02, -8.43 0.22, -10.58 1.09 C-12.72 1.96, -15.22 3.8, -16.85 5.05 C-18.48 6.3, -19.41 7.19, -20.37 8.58 C-21.33 9.96, -22.22 12.55, -22.59 13.35 M0 0 C-0.66 -0.03, -2.22 -0.34, -3.98 -0.16 C-5.74 0.02, -8.43 0.22, -10.58 1.09 C-12.72 1.96, -15.22 3.8, -16.85 5.05 C-18.48 6.3, -19.41 7.19, -20.37 8.58 C-21.33 9.96, -22.22 12.55, -22.59 13.35" stroke="#E1E1E1" stroke-width="4" fill="none"></path></g></g><mask></mask><g stroke-linecap="round"><g transform="translate(54.509582577551555 281.8359978146222) rotate(0 -22.108295145117182 0.07139537669084461)"><path d="M0 0 C-0.06 -0.8, 0.26 -2.65, -0.38 -4.77 C-1.02 -6.9, -2.2 -10.4, -3.84 -12.75 C-5.48 -15.1, -7.61 -17.3, -10.23 -18.87 C-12.86 -20.44, -16.15 -21.98, -19.61 -22.19 C-23.07 -22.41, -27.75 -21.43, -30.99 -20.15 C-34.23 -18.88, -36.94 -17.05, -39.04 -14.55 C-41.15 -12.04, -42.76 -8.53, -43.62 -5.14 C-44.48 -1.76, -44.79 2.62, -44.22 5.78 C-43.64 8.94, -42.18 11.31, -40.18 13.82 C-38.18 16.32, -35.35 19.39, -32.23 20.81 C-29.11 22.23, -24.67 22.34, -21.47 22.34 C-18.26 22.34, -15.41 21.64, -13.01 20.81 C-10.62 19.98, -8.93 19.36, -7.11 17.36 C-5.28 15.37, -2.91 10.25, -2.07 8.83 M0 0 C-0.06 -0.8, 0.26 -2.65, -0.38 -4.77 C-1.02 -6.9, -2.2 -10.4, -3.84 -12.75 C-5.48 -15.1, -7.61 -17.3, -10.23 -18.87 C-12.86 -20.44, -16.15 -21.98, -19.61 -22.19 C-23.07 -22.41, -27.75 -21.43, -30.99 -20.15 C-34.23 -18.88, -36.94 -17.05, -39.04 -14.55 C-41.15 -12.04, -42.76 -8.53, -43.62 -5.14 C-44.48 -1.76, -44.79 2.62, -44.22 5.78 C-43.64 8.94, -42.18 11.31, -40.18 13.82 C-38.18 16.32, -35.35 19.39, -32.23 20.81 C-29.11 22.23, -24.67 22.34, -21.47 22.34 C-18.26 22.34, -15.41 21.64, -13.01 20.81 C-10.62 19.98, -8.93 19.36, -7.11 17.36 C-5.28 15.37, -2.91 10.25, -2.07 8.83" stroke="#E1E1E1" stroke-width="4" fill="none"></path></g></g><mask></mask><g stroke-linecap="round"><g transform="translate(43.61202407644271 274.4209613152419) rotate(0 -9.22913699426337 9.62246903161956)"><path d="M0 0 C-0.14 1.07, 0.15 4.03, -0.82 6.44 C-1.79 8.85, -3.81 12.46, -5.83 14.46 C-7.85 16.47, -10.82 17.7, -12.93 18.49 C-15.03 19.29, -17.54 19.12, -18.46 19.24 M0 0 C-0.14 1.07, 0.15 4.03, -0.82 6.44 C-1.79 8.85, -3.81 12.46, -5.83 14.46 C-7.85 16.47, -10.82 17.7, -12.93 18.49 C-15.03 19.29, -17.54 19.12, -18.46 19.24" stroke="#E1E1E1" stroke-width="4" fill="none"></path></g></g><mask></mask><g stroke-linecap="round"><g transform="translate(24.567195459674167 293.49985818232716) rotate(0 6.519782183679922 -12.502397321386965)"><path d="M0 0 C-0.58 -0.67, -2.59 -2.41, -3.5 -4.03 C-4.4 -5.66, -5.14 -7.73, -5.44 -9.76 C-5.74 -11.79, -6.03 -14.2, -5.28 -16.23 C-4.53 -18.26, -2.54 -20.49, -0.94 -21.96 C0.66 -23.42, 2.25 -24.51, 4.3 -25 C6.35 -25.5, 9.38 -25.33, 11.36 -24.91 C13.34 -24.5, 15 -23.38, 16.19 -22.49 C17.38 -21.6, 18.1 -20.04, 18.48 -19.56 M0 0 C-0.58 -0.67, -2.59 -2.41, -3.5 -4.03 C-4.4 -5.66, -5.14 -7.73, -5.44 -9.76 C-5.74 -11.79, -6.03 -14.2, -5.28 -16.23 C-4.53 -18.26, -2.54 -20.49, -0.94 -21.96 C0.66 -23.42, 2.25 -24.51, 4.3 -25 C6.35 -25.5, 9.38 -25.33, 11.36 -24.91 C13.34 -24.5, 15 -23.38, 16.19 -22.49 C17.38 -21.6, 18.1 -20.04, 18.48 -19.56" stroke="#E1E1E1" stroke-width="4" fill="none"></path></g></g><mask></mask><g stroke-linecap="round"><g transform="translate(115.58981541143015 288.49141814076467) rotate(0 -9.072536158690923 10.151596205769081)"><path d="M0 0 C-0.03 1.22, 0.39 5.01, -0.2 7.35 C-0.79 9.68, -2.17 12.29, -3.54 14.02 C-4.92 15.75, -6.78 16.76, -8.44 17.73 C-10.1 18.69, -11.88 19.36, -13.5 19.79 C-15.12 20.22, -17.37 20.22, -18.15 20.3 M0 0 C-0.03 1.22, 0.39 5.01, -0.2 7.35 C-0.79 9.68, -2.17 12.29, -3.54 14.02 C-4.92 15.75, -6.78 16.76, -8.44 17.73 C-10.1 18.69, -11.88 19.36, -13.5 19.79 C-15.12 20.22, -17.37 20.22, -18.15 20.3" stroke="#E1E1E1" stroke-width="4" fill="none"></path></g></g><mask></mask><g stroke-linecap="round"><g transform="translate(96.41553391840756 308.6451403400729) rotate(0 6.9271489776282635 -12.879886164468601)"><path d="M0 0 C-0.51 -0.62, -2.22 -2.14, -3.08 -3.73 C-3.94 -5.31, -4.91 -7.32, -5.17 -9.52 C-5.43 -11.72, -5.52 -14.74, -4.65 -16.91 C-3.77 -19.09, -1.38 -21.12, 0.09 -22.58 C1.56 -24.04, 2.16 -25.13, 4.16 -25.66 C6.16 -26.19, 9.93 -26.15, 12.08 -25.76 C14.24 -25.37, 15.92 -24.17, 17.08 -23.32 C18.23 -22.48, 18.7 -21.13, 19.03 -20.69 M0 0 C-0.51 -0.62, -2.22 -2.14, -3.08 -3.73 C-3.94 -5.31, -4.91 -7.32, -5.17 -9.52 C-5.43 -11.72, -5.52 -14.74, -4.65 -16.91 C-3.77 -19.09, -1.38 -21.12, 0.09 -22.58 C1.56 -24.04, 2.16 -25.13, 4.16 -25.66 C6.16 -26.19, 9.93 -26.15, 12.08 -25.76 C14.24 -25.37, 15.92 -24.17, 17.08 -23.32 C18.23 -22.48, 18.7 -21.13, 19.03 -20.69" stroke="#E1E1E1" stroke-width="4" fill="none"></path></g></g><mask></mask></svg>