<svg version="1.1" xmlns="http://www.w3.org/2000/svg" viewBox="0 0 284.82732308890036 284.0105200555306" width="284.82732308890036" height="284.0105200555306" class="excalidraw-svg"><!-- svg-source:excalidraw --><metadata></metadata><defs><style class="style-fonts">
      </style></defs><rect x="0" y="0" width="284.82732308890036" height="284.0105200555306" fill="#000000"></rect><g stroke-linecap="round" transform="translate(126.76926941710849 15.685858484871915) rotate(0 15.577723351259579 15.577723351259579)"><path d="M31.16 15.58 C31.16 16.48, 31.08 17.39, 30.92 18.28 C30.76 19.17, 30.52 20.06, 30.22 20.91 C29.91 21.75, 29.52 22.59, 29.07 23.37 C28.62 24.15, 28.09 24.9, 27.51 25.59 C26.93 26.28, 26.28 26.93, 25.59 27.51 C24.9 28.09, 24.15 28.62, 23.37 29.07 C22.59 29.52, 21.75 29.91, 20.91 30.22 C20.06 30.52, 19.17 30.76, 18.28 30.92 C17.39 31.08, 16.48 31.16, 15.58 31.16 C14.68 31.16, 13.76 31.08, 12.87 30.92 C11.98 30.76, 11.1 30.52, 10.25 30.22 C9.4 29.91, 8.57 29.52, 7.79 29.07 C7.01 28.62, 6.26 28.09, 5.56 27.51 C4.87 26.93, 4.22 26.28, 3.64 25.59 C3.06 24.9, 2.54 24.15, 2.09 23.37 C1.64 22.59, 1.25 21.75, 0.94 20.91 C0.63 20.06, 0.39 19.17, 0.24 18.28 C0.08 17.39, 0 16.48, 0 15.58 C0 14.68, 0.08 13.76, 0.24 12.87 C0.39 11.98, 0.63 11.1, 0.94 10.25 C1.25 9.4, 1.64 8.57, 2.09 7.79 C2.54 7.01, 3.06 6.26, 3.64 5.56 C4.22 4.87, 4.87 4.22, 5.56 3.64 C6.26 3.06, 7.01 2.54, 7.79 2.09 C8.57 1.64, 9.4 1.25, 10.25 0.94 C11.1 0.63, 11.98 0.39, 12.87 0.24 C13.76 0.08, 14.68 0, 15.58 0 C16.48 0, 17.39 0.08, 18.28 0.24 C19.17 0.39, 20.06 0.63, 20.91 0.94 C21.75 1.25, 22.59 1.64, 23.37 2.09 C24.15 2.54, 24.9 3.06, 25.59 3.64 C26.28 4.22, 26.93 4.87, 27.51 5.56 C28.09 6.26, 28.62 7.01, 29.07 7.79 C29.52 8.57, 29.91 9.4, 30.22 10.25 C30.52 11.1, 30.76 11.98, 30.92 12.87 C31.08 13.76, 31.12 15.13, 31.16 15.58 C31.19 16.03, 31.19 15.13, 31.16 15.58" stroke="#E1E1E1" stroke-width="2" fill="none"></path></g><g stroke-linecap="round" transform="translate(120.62519703686257 10) rotate(0 21.37702717166769 21.251978236150535)"><path d="M42.75 21.25 C42.75 22.48, 42.64 23.73, 42.43 24.94 C42.21 26.15, 41.89 27.36, 41.46 28.52 C41.04 29.68, 40.51 30.81, 39.89 31.88 C39.27 32.94, 38.55 33.97, 37.75 34.91 C36.96 35.85, 36.07 36.74, 35.12 37.53 C34.17 38.32, 33.14 39.04, 32.07 39.66 C30.99 40.27, 29.85 40.8, 28.69 41.22 C27.53 41.64, 26.31 41.97, 25.09 42.18 C23.87 42.39, 22.61 42.5, 21.38 42.5 C20.14 42.5, 18.88 42.39, 17.66 42.18 C16.45 41.97, 15.23 41.64, 14.07 41.22 C12.9 40.8, 11.76 40.27, 10.69 39.66 C9.62 39.04, 8.58 38.32, 7.64 37.53 C6.69 36.74, 5.8 35.85, 5 34.91 C4.21 33.97, 3.48 32.94, 2.86 31.88 C2.25 30.81, 1.71 29.68, 1.29 28.52 C0.87 27.36, 0.54 26.15, 0.32 24.94 C0.11 23.73, 0 22.48, 0 21.25 C0 20.02, 0.11 18.77, 0.32 17.56 C0.54 16.35, 0.87 15.14, 1.29 13.98 C1.71 12.83, 2.25 11.69, 2.86 10.63 C3.48 9.56, 4.21 8.53, 5 7.59 C5.8 6.65, 6.69 5.76, 7.64 4.97 C8.58 4.18, 9.62 3.46, 10.69 2.85 C11.76 2.23, 12.9 1.7, 14.07 1.28 C15.23 0.86, 16.45 0.54, 17.66 0.32 C18.88 0.11, 20.14 0, 21.38 0 C22.61 0, 23.87 0.11, 25.09 0.32 C26.31 0.54, 27.53 0.86, 28.69 1.28 C29.85 1.7, 30.99 2.23, 32.07 2.85 C33.14 3.46, 34.17 4.18, 35.12 4.97 C36.07 5.76, 36.96 6.65, 37.75 7.59 C38.55 8.53, 39.27 9.56, 39.89 10.63 C40.51 11.69, 41.04 12.83, 41.46 13.98 C41.89 15.14, 42.21 16.35, 42.43 17.56 C42.64 18.77, 42.7 20.64, 42.75 21.25 C42.81 21.87, 42.81 20.64, 42.75 21.25" stroke="#E1E1E1" stroke-width="2" fill="none"></path></g><g stroke-linecap="round"><g transform="translate(124.67357073331596 49.408282723288494) rotate(0 -22.79096328353677 11.121941380403882)"><path d="M0 0 C-1.15 0.21, -4.45 0.65, -6.89 1.26 C-9.33 1.87, -12.14 2.73, -14.66 3.66 C-17.17 4.58, -19.63 5.71, -21.98 6.83 C-24.33 7.96, -26.54 9.14, -28.76 10.41 C-30.98 11.68, -33.27 13.09, -35.31 14.46 C-37.36 15.82, -39.32 17.3, -41.04 18.6 C-42.75 19.9, -44.82 21.64, -45.58 22.24 M0 0 C-1.15 0.21, -4.45 0.65, -6.89 1.26 C-9.33 1.87, -12.14 2.73, -14.66 3.66 C-17.17 4.58, -19.63 5.71, -21.98 6.83 C-24.33 7.96, -26.54 9.14, -28.76 10.41 C-30.98 11.68, -33.27 13.09, -35.31 14.46 C-37.36 15.82, -39.32 17.3, -41.04 18.6 C-42.75 19.9, -44.82 21.64, -45.58 22.24" stroke="#E1E1E1" stroke-width="2" fill="none"></path></g></g><mask></mask><g stroke-linecap="round"><g transform="translate(78.70819527109632 71.6703496585053) rotate(0 8.733595841658541 8.10558338942883)"><path d="M0 0 C0.55 0.48, 2 1.72, 3.28 2.86 C4.56 4.01, 6.09 5.34, 7.71 6.86 C9.32 8.38, 11.34 10.44, 12.97 12 C14.59 13.56, 16.72 15.51, 17.47 16.21 M0 0 C0.55 0.48, 2 1.72, 3.28 2.86 C4.56 4.01, 6.09 5.34, 7.71 6.86 C9.32 8.38, 11.34 10.44, 12.97 12 C14.59 13.56, 16.72 15.51, 17.47 16.21" stroke="#E1E1E1" stroke-width="2" fill="none"></path></g></g><mask></mask><g stroke-linecap="round"><g transform="translate(96.1875080902355 87.8467293211022) rotate(0 10.93224659305804 -6.302529846432094)"><path d="M0 0 C0.72 -0.52, 2.27 -1.75, 4.33 -3.15 C6.39 -4.54, 10.17 -7.1, 12.36 -8.37 C14.55 -9.63, 15.9 -10.05, 17.48 -10.75 C19.06 -11.46, 21.13 -12.3, 21.86 -12.61 M0 0 C0.72 -0.52, 2.27 -1.75, 4.33 -3.15 C6.39 -4.54, 10.17 -7.1, 12.36 -8.37 C14.55 -9.63, 15.9 -10.05, 17.48 -10.75 C19.06 -11.46, 21.13 -12.3, 21.86 -12.61" stroke="#E1E1E1" stroke-width="2" fill="none"></path></g></g><mask></mask><g stroke-linecap="round"><g transform="translate(118.1898304004792 75.3723856765339) rotate(0 23.847595997858207 20.05572126381651)"><path d="M0 0 C-0.02 1.38, -0.07 5.65, -0.11 8.28 C-0.15 10.91, -0.32 13.35, -0.24 15.77 C-0.15 18.18, 0.02 20.78, 0.39 22.79 C0.76 24.8, 1.17 26.11, 1.97 27.84 C2.77 29.56, 3.96 31.69, 5.22 33.14 C6.47 34.59, 7.87 35.55, 9.49 36.55 C11.12 37.56, 12.99 38.58, 14.95 39.17 C16.91 39.77, 18.58 39.99, 21.28 40.11 C23.97 40.23, 28.48 40.27, 31.12 39.89 C33.75 39.5, 35.2 38.86, 37.09 37.79 C38.98 36.71, 40.94 35.09, 42.44 33.46 C43.94 31.83, 45.18 30.04, 46.07 28 C46.97 25.97, 47.53 23.92, 47.84 21.25 C48.15 18.57, 47.93 14.81, 47.93 11.95 C47.93 9.09, 47.84 6.06, 47.84 4.08 C47.84 2.1, 47.91 0.74, 47.93 0.07 M0 0 C-0.02 1.38, -0.07 5.65, -0.11 8.28 C-0.15 10.91, -0.32 13.35, -0.24 15.77 C-0.15 18.18, 0.02 20.78, 0.39 22.79 C0.76 24.8, 1.17 26.11, 1.97 27.84 C2.77 29.56, 3.96 31.69, 5.22 33.14 C6.47 34.59, 7.87 35.55, 9.49 36.55 C11.12 37.56, 12.99 38.58, 14.95 39.17 C16.91 39.77, 18.58 39.99, 21.28 40.11 C23.97 40.23, 28.48 40.27, 31.12 39.89 C33.75 39.5, 35.2 38.86, 37.09 37.79 C38.98 36.71, 40.94 35.09, 42.44 33.46 C43.94 31.83, 45.18 30.04, 46.07 28 C46.97 25.97, 47.53 23.92, 47.84 21.25 C48.15 18.57, 47.93 14.81, 47.93 11.95 C47.93 9.09, 47.84 6.06, 47.84 4.08 C47.84 2.1, 47.91 0.74, 47.93 0.07" stroke="#E1E1E1" stroke-width="2" fill="none"></path></g></g><mask></mask><g stroke-linecap="round"><g transform="translate(166.31322017271327 75.17668097013166) rotate(0 20.38611980666485 6.481156005876414)"><path d="M0 0 C0.75 0.31, 2.57 0.88, 4.52 1.84 C6.48 2.79, 9.66 4.52, 11.73 5.74 C13.8 6.97, 15.46 8.14, 16.94 9.2 C18.42 10.26, 19.55 11.2, 20.6 12.1 C21.66 13, 22.68 14.23, 23.26 14.61 C23.85 14.98, 23.46 14.86, 24.1 14.34 C24.74 13.82, 25.45 13.04, 27.1 11.47 C28.74 9.89, 31.7 7.09, 33.98 4.9 C36.26 2.72, 39.64 -0.55, 40.77 -1.64 M0 0 C0.75 0.31, 2.57 0.88, 4.52 1.84 C6.48 2.79, 9.66 4.52, 11.73 5.74 C13.8 6.97, 15.46 8.14, 16.94 9.2 C18.42 10.26, 19.55 11.2, 20.6 12.1 C21.66 13, 22.68 14.23, 23.26 14.61 C23.85 14.98, 23.46 14.86, 24.1 14.34 C24.74 13.82, 25.45 13.04, 27.1 11.47 C28.74 9.89, 31.7 7.09, 33.98 4.9 C36.26 2.72, 39.64 -0.55, 40.77 -1.64" stroke="#E1E1E1" stroke-width="2" fill="none"></path></g></g><mask></mask><g stroke-linecap="round"><g transform="translate(207.0538351348971 73.27577507393471) rotate(0 -23.57069499963984 -12.002766976449607)"><path d="M0 0 C-0.74 -0.61, -2.65 -2.27, -4.44 -3.69 C-6.23 -5.1, -8.65 -7, -10.74 -8.47 C-12.83 -9.94, -15 -11.32, -16.99 -12.52 C-18.98 -13.72, -20.23 -14.47, -22.68 -15.68 C-25.13 -16.9, -29.23 -18.79, -31.68 -19.81 C-34.13 -20.83, -35.48 -21.24, -37.4 -21.82 C-39.32 -22.4, -41.59 -22.92, -43.21 -23.28 C-44.83 -23.64, -46.49 -23.88, -47.14 -24.01 M0 0 C-0.74 -0.61, -2.65 -2.27, -4.44 -3.69 C-6.23 -5.1, -8.65 -7, -10.74 -8.47 C-12.83 -9.94, -15 -11.32, -16.99 -12.52 C-18.98 -13.72, -20.23 -14.47, -22.68 -15.68 C-25.13 -16.9, -29.23 -18.79, -31.68 -19.81 C-34.13 -20.83, -35.48 -21.24, -37.4 -21.82 C-39.32 -22.4, -41.59 -22.92, -43.21 -23.28 C-44.83 -23.64, -46.49 -23.88, -47.14 -24.01" stroke="#E1E1E1" stroke-width="2" fill="none"></path></g></g><mask></mask><g stroke-linecap="round"><g transform="translate(159.92325187187612 49.21384423827112) rotate(0 -17.64558065787753 3.7641234849920693)"><path d="M0 0 C-0.39 0.44, -1.22 1.76, -2.35 2.66 C-3.49 3.55, -5.13 4.64, -6.82 5.36 C-8.51 6.09, -10.43 6.66, -12.48 7.02 C-14.53 7.38, -16.94 7.62, -19.12 7.53 C-21.3 7.43, -23.69 7.01, -25.56 6.45 C-27.43 5.9, -29 4.95, -30.34 4.19 C-31.68 3.42, -32.78 2.54, -33.61 1.88 C-34.43 1.22, -35.01 0.52, -35.29 0.25 M0 0 C-0.39 0.44, -1.22 1.76, -2.35 2.66 C-3.49 3.55, -5.13 4.64, -6.82 5.36 C-8.51 6.09, -10.43 6.66, -12.48 7.02 C-14.53 7.38, -16.94 7.62, -19.12 7.53 C-21.3 7.43, -23.69 7.01, -25.56 6.45 C-27.43 5.9, -29 4.95, -30.34 4.19 C-31.68 3.42, -32.78 2.54, -33.61 1.88 C-34.43 1.22, -35.01 0.52, -35.29 0.25" stroke="#E1E1E1" stroke-width="2" fill="none"></path></g></g><mask></mask><g stroke-linecap="round"><g transform="translate(122.8898366402907 55.27681735227111) rotate(0 19.500812404589396 3.502956368388027)"><path d="M0 0 C0.63 0.52, 2.35 2.22, 3.75 3.1 C5.15 3.99, 6.7 4.68, 8.39 5.31 C10.08 5.94, 11.37 6.6, 13.88 6.89 C16.39 7.17, 20.77 7.27, 23.45 7.04 C26.14 6.8, 28.03 6.18, 29.98 5.49 C31.92 4.8, 33.6 3.84, 35.1 2.92 C36.61 2, 38.35 0.46, 39 -0.03 M0 0 C0.63 0.52, 2.35 2.22, 3.75 3.1 C5.15 3.99, 6.7 4.68, 8.39 5.31 C10.08 5.94, 11.37 6.6, 13.88 6.89 C16.39 7.17, 20.77 7.27, 23.45 7.04 C26.14 6.8, 28.03 6.18, 29.98 5.49 C31.92 4.8, 33.6 3.84, 35.1 2.92 C36.61 2, 38.35 0.46, 39 -0.03" stroke="#E1E1E1" stroke-width="2" fill="none"></path></g></g><mask></mask><g stroke-linecap="round"><g transform="translate(162.00799828894264 55.424133871742924) rotate(0 18.437433509802645 9.203564099785808)"><path d="M0 0 C0.99 0.28, 3.72 0.97, 5.96 1.67 C8.2 2.38, 10.81 3.15, 13.44 4.24 C16.06 5.34, 19.1 6.89, 21.71 8.25 C24.32 9.6, 27.1 11.11, 29.1 12.39 C31.11 13.66, 32.43 14.89, 33.72 15.89 C35.02 16.9, 36.35 17.99, 36.87 18.41 M0 0 C0.99 0.28, 3.72 0.97, 5.96 1.67 C8.2 2.38, 10.81 3.15, 13.44 4.24 C16.06 5.34, 19.1 6.89, 21.71 8.25 C24.32 9.6, 27.1 11.11, 29.1 12.39 C31.11 13.66, 32.43 14.89, 33.72 15.89 C35.02 16.9, 36.35 17.99, 36.87 18.41" stroke="#E1E1E1" stroke-width="2" fill="none"></path></g></g><mask></mask><g stroke-linecap="round"><g transform="translate(198.8209402885227 73.84154008293672) rotate(0 -4.689145148683906 4.356691003510832)"><path d="M0 0 C-0.63 0.58, -2.22 2.03, -3.78 3.48 C-5.34 4.93, -8.45 7.84, -9.38 8.71 M0 0 C-0.63 0.58, -2.22 2.03, -3.78 3.48 C-5.34 4.93, -8.45 7.84, -9.38 8.71" stroke="#E1E1E1" stroke-width="2" fill="none"></path></g></g><mask></mask><g stroke-linecap="round"><g transform="translate(189.51274800696092 82.7125166210526) rotate(0 -14.643925659010165 -7.363535657044849)"><path d="M0 0 C-0.56 -0.46, -1.74 -1.58, -3.38 -2.77 C-5.02 -3.96, -7.49 -5.78, -9.86 -7.13 C-12.24 -8.48, -15.45 -9.95, -17.63 -10.87 C-19.81 -11.79, -20.99 -12.01, -22.93 -12.66 C-24.87 -13.3, -28.23 -14.38, -29.29 -14.73 M0 0 C-0.56 -0.46, -1.74 -1.58, -3.38 -2.77 C-5.02 -3.96, -7.49 -5.78, -9.86 -7.13 C-12.24 -8.48, -15.45 -9.95, -17.63 -10.87 C-19.81 -11.79, -20.99 -12.01, -22.93 -12.66 C-24.87 -13.3, -28.23 -14.38, -29.29 -14.73" stroke="#E1E1E1" stroke-width="2" fill="none"></path></g></g><mask></mask><g stroke-linecap="round"><g transform="translate(160.19622202478445 68.15237158082118) rotate(0 -18.056988956515397 20.98448538378409)"><path d="M0 0 C0.02 1.79, 0.1 7.64, 0.14 10.72 C0.17 13.8, 0.2 15.7, 0.21 18.48 C0.22 21.25, 0.37 24.97, 0.17 27.37 C-0.03 29.78, -0.11 31.08, -0.99 32.92 C-1.88 34.76, -3.5 36.98, -5.13 38.41 C-6.76 39.85, -8.56 40.91, -10.76 41.54 C-12.96 42.17, -15.74 42.22, -18.32 42.17 C-20.91 42.12, -23.95 41.96, -26.25 41.25 C-28.55 40.54, -30.58 39.33, -32.1 37.89 C-33.62 36.45, -34.66 34.74, -35.37 32.62 C-36.07 30.5, -36.17 28.63, -36.32 25.17 C-36.47 21.7, -36.25 16.06, -36.25 11.84 C-36.25 7.61, -36.31 1.81, -36.32 -0.2 M0 0 C0.02 1.79, 0.1 7.64, 0.14 10.72 C0.17 13.8, 0.2 15.7, 0.21 18.48 C0.22 21.25, 0.37 24.97, 0.17 27.37 C-0.03 29.78, -0.11 31.08, -0.99 32.92 C-1.88 34.76, -3.5 36.98, -5.13 38.41 C-6.76 39.85, -8.56 40.91, -10.76 41.54 C-12.96 42.17, -15.74 42.22, -18.32 42.17 C-20.91 42.12, -23.95 41.96, -26.25 41.25 C-28.55 40.54, -30.58 39.33, -32.1 37.89 C-33.62 36.45, -34.66 34.74, -35.37 32.62 C-36.07 30.5, -36.17 28.63, -36.32 25.17 C-36.47 21.7, -36.25 16.06, -36.25 11.84 C-36.25 7.61, -36.31 1.81, -36.32 -0.2" stroke="#E1E1E1" stroke-width="2" fill="none"></path></g></g><mask></mask><g stroke-linecap="round"><g transform="translate(123.87257267465543 67.82236587543684) rotate(0 -13.687544324159603 6.479760074009164)"><path d="M0 0 C-0.82 0.22, -2.47 0.46, -4.95 1.34 C-7.42 2.21, -12.13 4, -14.87 5.26 C-17.61 6.51, -19.32 7.6, -21.4 8.88 C-23.48 10.16, -26.38 12.28, -27.38 12.96 M0 0 C-0.82 0.22, -2.47 0.46, -4.95 1.34 C-7.42 2.21, -12.13 4, -14.87 5.26 C-17.61 6.51, -19.32 7.6, -21.4 8.88 C-23.48 10.16, -26.38 12.28, -27.38 12.96" stroke="#E1E1E1" stroke-width="2" fill="none"></path></g></g><mask></mask><g stroke-linecap="round"><g transform="translate(96.36934983432548 80.93700493732604) rotate(0 -4.64621468475309 -4.337214665621673)"><path d="M0 0 C-1.55 -1.45, -7.74 -7.23, -9.29 -8.67 M0 0 C-1.55 -1.45, -7.74 -7.23, -9.29 -8.67" stroke="#E1E1E1" stroke-width="2" fill="none"></path></g></g><mask></mask><g stroke-linecap="round"><g transform="translate(87.46063372228355 72.4148977148684) rotate(0 17.554842615847065 -8.601113260115198)"><path d="M0 0 C0.99 -0.8, 3 -2.94, 5.92 -4.78 C8.83 -6.63, 13.82 -9.33, 17.5 -11.06 C21.19 -12.79, 25.08 -14.13, 28.02 -15.15 C30.95 -16.17, 33.93 -16.86, 35.11 -17.2 M0 0 C0.99 -0.8, 3 -2.94, 5.92 -4.78 C8.83 -6.63, 13.82 -9.33, 17.5 -11.06 C21.19 -12.79, 25.08 -14.13, 28.02 -15.15 C30.95 -16.17, 33.93 -16.86, 35.11 -17.2" stroke="#E1E1E1" stroke-width="2" fill="none"></path></g></g><mask></mask><g stroke-linecap="round" transform="translate(15.685858484872142 125.14706370024237) rotate(270 15.577723351259579 15.577723351259579)"><path d="M31.16 15.58 C31.16 16.48, 31.08 17.39, 30.92 18.28 C30.76 19.17, 30.52 20.06, 30.22 20.91 C29.91 21.75, 29.52 22.59, 29.07 23.37 C28.62 24.15, 28.09 24.9, 27.51 25.59 C26.93 26.28, 26.28 26.93, 25.59 27.51 C24.9 28.09, 24.15 28.62, 23.37 29.07 C22.59 29.52, 21.75 29.91, 20.91 30.22 C20.06 30.52, 19.17 30.76, 18.28 30.92 C17.39 31.08, 16.48 31.16, 15.58 31.16 C14.68 31.16, 13.76 31.08, 12.87 30.92 C11.98 30.76, 11.1 30.52, 10.25 30.22 C9.4 29.91, 8.57 29.52, 7.79 29.07 C7.01 28.62, 6.26 28.09, 5.56 27.51 C4.87 26.93, 4.22 26.28, 3.64 25.59 C3.06 24.9, 2.54 24.15, 2.09 23.37 C1.64 22.59, 1.25 21.75, 0.94 20.91 C0.63 20.06, 0.39 19.17, 0.24 18.28 C0.08 17.39, 0 16.48, 0 15.58 C0 14.68, 0.08 13.76, 0.24 12.87 C0.39 11.98, 0.63 11.1, 0.94 10.25 C1.25 9.4, 1.64 8.57, 2.09 7.79 C2.54 7.01, 3.06 6.26, 3.64 5.56 C4.22 4.87, 4.87 4.22, 5.56 3.64 C6.26 3.06, 7.01 2.54, 7.79 2.09 C8.57 1.64, 9.4 1.25, 10.25 0.94 C11.1 0.63, 11.98 0.39, 12.87 0.24 C13.76 0.08, 14.68 0, 15.58 0 C16.48 0, 17.39 0.08, 18.28 0.24 C19.17 0.39, 20.06 0.63, 20.91 0.94 C21.75 1.25, 22.59 1.64, 23.37 2.09 C24.15 2.54, 24.9 3.06, 25.59 3.64 C26.28 4.22, 26.93 4.87, 27.51 5.56 C28.09 6.26, 28.62 7.01, 29.07 7.79 C29.52 8.57, 29.91 9.4, 30.22 10.25 C30.52 11.1, 30.76 11.98, 30.92 12.87 C31.08 13.76, 31.12 15.13, 31.16 15.58 C31.19 16.03, 31.19 15.13, 31.16 15.58" stroke="#E1E1E1" stroke-width="2" fill="none"></path></g><g stroke-linecap="round" transform="translate(9.874951064482843 119.8175773751891) rotate(270 21.377027171667635 21.251978236150535)"><path d="M42.75 21.25 C42.75 22.48, 42.64 23.73, 42.43 24.94 C42.21 26.15, 41.89 27.36, 41.46 28.52 C41.04 29.68, 40.51 30.81, 39.89 31.88 C39.27 32.94, 38.55 33.97, 37.75 34.91 C36.96 35.85, 36.07 36.74, 35.12 37.53 C34.17 38.32, 33.14 39.04, 32.07 39.66 C30.99 40.27, 29.85 40.8, 28.69 41.22 C27.53 41.64, 26.31 41.97, 25.09 42.18 C23.87 42.39, 22.61 42.5, 21.38 42.5 C20.14 42.5, 18.88 42.39, 17.66 42.18 C16.45 41.97, 15.23 41.64, 14.07 41.22 C12.9 40.8, 11.76 40.27, 10.69 39.66 C9.62 39.04, 8.58 38.32, 7.64 37.53 C6.69 36.74, 5.8 35.85, 5 34.91 C4.21 33.97, 3.48 32.94, 2.86 31.88 C2.25 30.81, 1.71 29.68, 1.29 28.52 C0.87 27.36, 0.54 26.15, 0.32 24.94 C0.11 23.73, 0 22.48, 0 21.25 C0 20.02, 0.11 18.77, 0.32 17.56 C0.54 16.35, 0.87 15.14, 1.29 13.98 C1.71 12.83, 2.25 11.69, 2.86 10.63 C3.48 9.56, 4.21 8.53, 5 7.59 C5.8 6.65, 6.69 5.76, 7.64 4.97 C8.58 4.18, 9.62 3.46, 10.69 2.85 C11.76 2.23, 12.9 1.7, 14.07 1.28 C15.23 0.86, 16.45 0.54, 17.66 0.32 C18.88 0.11, 20.14 0, 21.38 0 C22.61 0, 23.87 0.11, 25.09 0.32 C26.31 0.54, 27.53 0.86, 28.69 1.28 C29.85 1.7, 30.99 2.23, 32.07 2.85 C33.14 3.46, 34.17 4.18, 35.12 4.97 C36.07 5.76, 36.96 6.65, 37.75 7.59 C38.55 8.53, 39.27 9.56, 39.89 10.63 C40.51 11.69, 41.04 12.83, 41.46 13.98 C41.89 15.14, 42.21 16.35, 42.43 17.56 C42.64 18.77, 42.7 20.64, 42.75 21.25 C42.81 21.87, 42.81 20.64, 42.75 21.25" stroke="#E1E1E1" stroke-width="2" fill="none"></path></g><g stroke-linecap="round"><g transform="translate(83.3211873872292 170.06723098968666) rotate(270 -22.79096328353677 11.121941380403825)"><path d="M0 0 C-1.15 0.21, -4.45 0.65, -6.89 1.26 C-9.33 1.87, -12.14 2.73, -14.66 3.66 C-17.17 4.58, -19.63 5.71, -21.98 6.83 C-24.33 7.96, -26.54 9.14, -28.76 10.41 C-30.98 11.68, -33.27 13.09, -35.31 14.46 C-37.36 15.82, -39.32 17.3, -41.04 18.6 C-42.75 19.9, -44.82 21.64, -45.58 22.24 M0 0 C-1.15 0.21, -4.45 0.65, -6.89 1.26 C-9.33 1.87, -12.14 2.73, -14.66 3.66 C-17.17 4.58, -19.63 5.71, -21.98 6.83 C-24.33 7.96, -26.54 9.14, -28.76 10.41 C-30.98 11.68, -33.27 13.09, -35.31 14.46 C-37.36 15.82, -39.32 17.3, -41.04 18.6 C-42.75 19.9, -44.82 21.64, -45.58 22.24" stroke="#E1E1E1" stroke-width="2" fill="none"></path></g></g><mask></mask><g stroke-linecap="round"><g transform="translate(71.04233720627553 187.52440531768605) rotate(270 8.733595841658484 8.10558338942883)"><path d="M0 0 C0.55 0.48, 2 1.72, 3.28 2.86 C4.56 4.01, 6.09 5.34, 7.71 6.86 C9.32 8.38, 11.34 10.44, 12.97 12 C14.59 13.56, 16.72 15.51, 17.47 16.21 M0 0 C0.55 0.48, 2 1.72, 3.28 2.86 C4.56 4.01, 6.09 5.34, 7.71 6.86 C9.32 8.38, 11.34 10.44, 12.97 12 C14.59 13.56, 16.72 15.51, 17.47 16.21" stroke="#E1E1E1" stroke-width="2" fill="none"></path></g></g><mask></mask><g stroke-linecap="round"><g transform="translate(70.61195288161218 182.25455498300835) rotate(270 10.932246593057982 -6.302529846432037)"><path d="M0 0 C0.72 -0.52, 2.27 -1.75, 4.33 -3.15 C6.39 -4.54, 10.17 -7.1, 12.36 -8.37 C14.55 -9.63, 15.9 -10.05, 17.48 -10.75 C19.06 -11.46, 21.13 -12.3, 21.86 -12.61 M0 0 C0.72 -0.52, 2.27 -1.75, 4.33 -3.15 C6.39 -4.54, 10.17 -7.1, 12.36 -8.37 C14.55 -9.63, 15.9 -10.05, 17.48 -10.75 C19.06 -11.46, 21.13 -12.3, 21.86 -12.61" stroke="#E1E1E1" stroke-width="2" fill="none"></path></g></g><mask></mask><g stroke-linecap="round"><g transform="translate(71.59740640184395 120.9120012330053) rotate(270 23.847595997858207 20.05572126381651)"><path d="M0 0 C-0.02 1.38, -0.07 5.65, -0.11 8.28 C-0.15 10.91, -0.32 13.35, -0.24 15.77 C-0.15 18.18, 0.02 20.78, 0.39 22.79 C0.76 24.8, 1.17 26.11, 1.97 27.84 C2.77 29.56, 3.96 31.69, 5.22 33.14 C6.47 34.59, 7.87 35.55, 9.49 36.55 C11.12 37.56, 12.99 38.58, 14.95 39.17 C16.91 39.77, 18.58 39.99, 21.28 40.11 C23.97 40.23, 28.48 40.27, 31.12 39.89 C33.75 39.5, 35.2 38.86, 37.09 37.79 C38.98 36.71, 40.94 35.09, 42.44 33.46 C43.94 31.83, 45.18 30.04, 46.07 28 C46.97 25.97, 47.53 23.92, 47.84 21.25 C48.15 18.57, 47.93 14.81, 47.93 11.95 C47.93 9.09, 47.84 6.06, 47.84 4.08 C47.84 2.1, 47.91 0.74, 47.93 0.07 M0 0 C-0.02 1.38, -0.07 5.65, -0.11 8.28 C-0.15 10.91, -0.32 13.35, -0.24 15.77 C-0.15 18.18, 0.02 20.78, 0.39 22.79 C0.76 24.8, 1.17 26.11, 1.97 27.84 C2.77 29.56, 3.96 31.69, 5.22 33.14 C6.47 34.59, 7.87 35.55, 9.49 36.55 C11.12 37.56, 12.99 38.58, 14.95 39.17 C16.91 39.77, 18.58 39.99, 21.28 40.11 C23.97 40.23, 28.48 40.27, 31.12 39.89 C33.75 39.5, 35.2 38.86, 37.09 37.79 C38.98 36.71, 40.94 35.09, 42.44 33.46 C43.94 31.83, 45.18 30.04, 46.07 28 C46.97 25.97, 47.53 23.92, 47.84 21.25 C48.15 18.57, 47.93 14.81, 47.93 11.95 C47.93 9.09, 47.84 6.06, 47.84 4.08 C47.84 2.1, 47.91 0.74, 47.93 0.07" stroke="#E1E1E1" stroke-width="2" fill="none"></path></g></g><mask></mask><g stroke-linecap="round"><g transform="translate(61.38122337337529 89.78177763058306) rotate(270 20.386119806664908 6.481156005876414)"><path d="M0 0 C0.75 0.31, 2.57 0.88, 4.52 1.84 C6.48 2.79, 9.66 4.52, 11.73 5.74 C13.8 6.97, 15.46 8.14, 16.94 9.2 C18.42 10.26, 19.55 11.2, 20.6 12.1 C21.66 13, 22.68 14.23, 23.26 14.61 C23.85 14.98, 23.46 14.86, 24.1 14.34 C24.74 13.82, 25.45 13.04, 27.1 11.47 C28.74 9.89, 31.7 7.09, 33.98 4.9 C36.26 2.72, 39.64 -0.55, 40.77 -1.64 M0 0 C0.75 0.31, 2.57 0.88, 4.52 1.84 C6.48 2.79, 9.66 4.52, 11.73 5.74 C13.8 6.97, 15.46 8.14, 16.94 9.2 C18.42 10.26, 19.55 11.2, 20.6 12.1 C21.66 13, 22.68 14.23, 23.26 14.61 C23.85 14.98, 23.46 14.86, 24.1 14.34 C24.74 13.82, 25.45 13.04, 27.1 11.47 C28.74 9.89, 31.7 7.09, 33.98 4.9 C36.26 2.72, 39.64 -0.55, 40.77 -1.64" stroke="#E1E1E1" stroke-width="2" fill="none"></path></g></g><mask></mask><g stroke-linecap="round"><g transform="translate(84.84370309712506 111.59140666106214) rotate(270 -23.57069499963984 -12.002766976449607)"><path d="M0 0 C-0.74 -0.61, -2.65 -2.27, -4.44 -3.69 C-6.23 -5.1, -8.65 -7, -10.74 -8.47 C-12.83 -9.94, -15 -11.32, -16.99 -12.52 C-18.98 -13.72, -20.23 -14.47, -22.68 -15.68 C-25.13 -16.9, -29.23 -18.79, -31.68 -19.81 C-34.13 -20.83, -35.48 -21.24, -37.4 -21.82 C-39.32 -22.4, -41.59 -22.92, -43.21 -23.28 C-44.83 -23.64, -46.49 -23.88, -47.14 -24.01 M0 0 C-0.74 -0.61, -2.65 -2.27, -4.44 -3.69 C-6.23 -5.1, -8.65 -7, -10.74 -8.47 C-12.83 -9.94, -15 -11.32, -16.99 -12.52 C-18.98 -13.72, -20.23 -14.47, -22.68 -15.68 C-25.13 -16.9, -29.23 -18.79, -31.68 -19.81 C-34.13 -20.83, -35.48 -21.24, -37.4 -21.82 C-39.32 -22.4, -41.59 -22.92, -43.21 -23.28 C-44.83 -23.64, -46.49 -23.88, -47.14 -24.01" stroke="#E1E1E1" stroke-width="2" fill="none"></path></g></g><mask></mask><g stroke-linecap="round"><g transform="translate(70.63405321199082 137.01948029002892) rotate(270 -17.645580657877474 3.7641234849920693)"><path d="M0 0 C-0.39 0.44, -1.22 1.76, -2.35 2.66 C-3.49 3.55, -5.13 4.64, -6.82 5.36 C-8.51 6.09, -10.43 6.66, -12.48 7.02 C-14.53 7.38, -16.94 7.62, -19.12 7.53 C-21.3 7.43, -23.69 7.01, -25.56 6.45 C-27.43 5.9, -29 4.95, -30.34 4.19 C-31.68 3.42, -32.78 2.54, -33.61 1.88 C-34.43 1.22, -35.01 0.52, -35.29 0.25 M0 0 C-0.39 0.44, -1.22 1.76, -2.35 2.66 C-3.49 3.55, -5.13 4.64, -6.82 5.36 C-8.51 6.09, -10.43 6.66, -12.48 7.02 C-14.53 7.38, -16.94 7.62, -19.12 7.53 C-21.3 7.43, -23.69 7.01, -25.56 6.45 C-27.43 5.9, -29 4.95, -30.34 4.19 C-31.68 3.42, -32.78 2.54, -33.61 1.88 C-34.43 1.22, -35.01 0.52, -35.29 0.25" stroke="#E1E1E1" stroke-width="2" fill="none"></path></g></g><mask></mask><g stroke-linecap="round"><g transform="translate(39.34421890708359 137.1129168155877) rotate(270 19.500812404589396 3.502956368388027)"><path d="M0 0 C0.63 0.52, 2.35 2.22, 3.75 3.1 C5.15 3.99, 6.7 4.68, 8.39 5.31 C10.08 5.94, 11.37 6.6, 13.88 6.89 C16.39 7.17, 20.77 7.27, 23.45 7.04 C26.14 6.8, 28.03 6.18, 29.98 5.49 C31.92 4.8, 33.6 3.84, 35.1 2.92 C36.61 2, 38.35 0.46, 39 -0.03 M0 0 C0.63 0.52, 2.35 2.22, 3.75 3.1 C5.15 3.99, 6.7 4.68, 8.39 5.31 C10.08 5.94, 11.37 6.6, 13.88 6.89 C16.39 7.17, 20.77 7.27, 23.45 7.04 C26.14 6.8, 28.03 6.18, 29.98 5.49 C31.92 4.8, 33.6 3.84, 35.1 2.92 C36.61 2, 38.35 0.46, 39 -0.03" stroke="#E1E1E1" stroke-width="2" fill="none"></path></g></g><mask></mask><g stroke-linecap="round"><g transform="translate(46.19026446172586 93.42278392133858) rotate(270 18.437433509802702 9.203564099785808)"><path d="M0 0 C0.99 0.28, 3.72 0.97, 5.96 1.67 C8.2 2.38, 10.81 3.15, 13.44 4.24 C16.06 5.34, 19.1 6.89, 21.71 8.25 C24.32 9.6, 27.1 11.11, 29.1 12.39 C31.11 13.66, 32.43 14.89, 33.72 15.89 C35.02 16.9, 36.35 17.99, 36.87 18.41 M0 0 C0.99 0.28, 3.72 0.97, 5.96 1.67 C8.2 2.38, 10.81 3.15, 13.44 4.24 C16.06 5.34, 19.1 6.89, 21.71 8.25 C24.32 9.6, 27.1 11.11, 29.1 12.39 C31.11 13.66, 32.43 14.89, 33.72 15.89 C35.02 16.9, 36.35 17.99, 36.87 18.41" stroke="#E1E1E1" stroke-width="2" fill="none"></path></g></g><mask></mask><g stroke-linecap="round"><g transform="translate(82.88737623513157 84.58329367652004) rotate(270 -4.689145148683906 4.356691003510832)"><path d="M0 0 C-0.63 0.58, -2.22 2.03, -3.78 3.48 C-5.34 4.93, -8.45 7.84, -9.38 8.71 M0 0 C-0.63 0.58, -2.22 2.03, -3.78 3.48 C-5.34 4.93, -8.45 7.84, -9.38 8.71" stroke="#E1E1E1" stroke-width="2" fill="none"></path></g></g><mask></mask><g stroke-linecap="round"><g transform="translate(89.9929066230178 115.56649312896388) rotate(270 -14.643925659010108 -7.363535657044849)"><path d="M0 0 C-0.56 -0.46, -1.74 -1.58, -3.38 -2.77 C-5.02 -3.96, -7.49 -5.78, -9.86 -7.13 C-12.24 -8.48, -15.45 -9.95, -17.63 -10.87 C-19.81 -11.79, -20.99 -12.01, -22.93 -12.66 C-24.87 -13.3, -28.23 -14.38, -29.29 -14.73 M0 0 C-0.56 -0.46, -1.74 -1.58, -3.38 -2.77 C-5.02 -3.96, -7.49 -5.78, -9.86 -7.13 C-12.24 -8.48, -15.45 -9.95, -17.63 -10.87 C-19.81 -11.79, -20.99 -12.01, -22.93 -12.66 C-24.87 -13.3, -28.23 -14.38, -29.29 -14.73" stroke="#E1E1E1" stroke-width="2" fill="none"></path></g></g><mask></mask><g stroke-linecap="round"><g transform="translate(107.19280573715696 119.93291388693342) rotate(270 -18.056988956515397 20.984485383784147)"><path d="M0 0 C0.02 1.79, 0.1 7.64, 0.14 10.72 C0.17 13.8, 0.2 15.7, 0.21 18.48 C0.22 21.25, 0.37 24.97, 0.17 27.37 C-0.03 29.78, -0.11 31.08, -0.99 32.92 C-1.88 34.76, -3.5 36.98, -5.13 38.41 C-6.76 39.85, -8.56 40.91, -10.76 41.54 C-12.96 42.17, -15.74 42.22, -18.32 42.17 C-20.91 42.12, -23.95 41.96, -26.25 41.25 C-28.55 40.54, -30.58 39.33, -32.1 37.89 C-33.62 36.45, -34.66 34.74, -35.37 32.62 C-36.07 30.5, -36.17 28.63, -36.32 25.17 C-36.47 21.7, -36.25 16.06, -36.25 11.84 C-36.25 7.61, -36.31 1.81, -36.32 -0.2 M0 0 C0.02 1.79, 0.1 7.64, 0.14 10.72 C0.17 13.8, 0.2 15.7, 0.21 18.48 C0.22 21.25, 0.37 24.97, 0.17 27.37 C-0.03 29.78, -0.11 31.08, -0.99 32.92 C-1.88 34.76, -3.5 36.98, -5.13 38.41 C-6.76 39.85, -8.56 40.91, -10.76 41.54 C-12.96 42.17, -15.74 42.22, -18.32 42.17 C-20.91 42.12, -23.95 41.96, -26.25 41.25 C-28.55 40.54, -30.58 39.33, -32.1 37.89 C-33.62 36.45, -34.66 34.74, -35.37 32.62 C-36.07 30.5, -36.17 28.63, -36.32 25.17 C-36.47 21.7, -36.25 16.06, -36.25 11.84 C-36.25 7.61, -36.31 1.81, -36.32 -0.2" stroke="#E1E1E1" stroke-width="2" fill="none"></path></g></g><mask></mask><g stroke-linecap="round"><g transform="translate(87.9896702736055 166.4069913953649) rotate(270 -13.687544324159603 6.479760074009164)"><path d="M0 0 C-0.82 0.22, -2.47 0.46, -4.95 1.34 C-7.42 2.21, -12.13 4, -14.87 5.26 C-17.61 6.51, -19.32 7.6, -21.4 8.88 C-23.48 10.16, -26.38 12.28, -27.38 12.96 M0 0 C-0.82 0.22, -2.47 0.46, -4.95 1.34 C-7.42 2.21, -12.13 4, -14.87 5.26 C-17.61 6.51, -19.32 7.6, -21.4 8.88 C-23.48 10.16, -26.38 12.28, -27.38 12.96" stroke="#E1E1E1" stroke-width="2" fill="none"></path></g></g><mask></mask><g stroke-linecap="round"><g transform="translate(81.24600495645745 195.68585933591908) rotate(270 -4.64621468475309 -4.337214665621673)"><path d="M0 0 C-1.55 -1.45, -7.74 -7.23, -9.29 -8.67 M0 0 C-1.55 -1.45, -7.74 -7.23, -9.29 -8.67" stroke="#E1E1E1" stroke-width="2" fill="none"></path></g></g><mask></mask><g stroke-linecap="round"><g transform="translate(46.25894183890614 186.65741674185438) rotate(270 17.554842615847008 -8.601113260115198)"><path d="M0 0 C0.99 -0.8, 3 -2.94, 5.92 -4.78 C8.83 -6.63, 13.82 -9.33, 17.5 -11.06 C21.19 -12.79, 25.08 -14.13, 28.02 -15.15 C30.95 -16.17, 33.93 -16.86, 35.11 -17.2 M0 0 C0.99 -0.8, 3 -2.94, 5.92 -4.78 C8.83 -6.63, 13.82 -9.33, 17.5 -11.06 C21.19 -12.79, 25.08 -14.13, 28.02 -15.15 C30.95 -16.17, 33.93 -16.86, 35.11 -17.2" stroke="#E1E1E1" stroke-width="2" fill="none"></path></g></g><mask></mask><g stroke-linecap="round" transform="translate(127.8002637211323 237.16921486813942) rotate(180 15.577723351259579 15.577723351259579)"><path d="M31.16 15.58 C31.16 16.48, 31.08 17.39, 30.92 18.28 C30.76 19.17, 30.52 20.06, 30.22 20.91 C29.91 21.75, 29.52 22.59, 29.07 23.37 C28.62 24.15, 28.09 24.9, 27.51 25.59 C26.93 26.28, 26.28 26.93, 25.59 27.51 C24.9 28.09, 24.15 28.62, 23.37 29.07 C22.59 29.52, 21.75 29.91, 20.91 30.22 C20.06 30.52, 19.17 30.76, 18.28 30.92 C17.39 31.08, 16.48 31.16, 15.58 31.16 C14.68 31.16, 13.76 31.08, 12.87 30.92 C11.98 30.76, 11.1 30.52, 10.25 30.22 C9.4 29.91, 8.57 29.52, 7.79 29.07 C7.01 28.62, 6.26 28.09, 5.56 27.51 C4.87 26.93, 4.22 26.28, 3.64 25.59 C3.06 24.9, 2.54 24.15, 2.09 23.37 C1.64 22.59, 1.25 21.75, 0.94 20.91 C0.63 20.06, 0.39 19.17, 0.24 18.28 C0.08 17.39, 0 16.48, 0 15.58 C0 14.68, 0.08 13.76, 0.24 12.87 C0.39 11.98, 0.63 11.1, 0.94 10.25 C1.25 9.4, 1.64 8.57, 2.09 7.79 C2.54 7.01, 3.06 6.26, 3.64 5.56 C4.22 4.87, 4.87 4.22, 5.56 3.64 C6.26 3.06, 7.01 2.54, 7.79 2.09 C8.57 1.64, 9.4 1.25, 10.25 0.94 C11.1 0.63, 11.98 0.39, 12.87 0.24 C13.76 0.08, 14.68 0, 15.58 0 C16.48 0, 17.39 0.08, 18.28 0.24 C19.17 0.39, 20.06 0.63, 20.91 0.94 C21.75 1.25, 22.59 1.64, 23.37 2.09 C24.15 2.54, 24.9 3.06, 25.59 3.64 C26.28 4.22, 26.93 4.87, 27.51 5.56 C28.09 6.26, 28.62 7.01, 29.07 7.79 C29.52 8.57, 29.91 9.4, 30.22 10.25 C30.52 11.1, 30.76 11.98, 30.92 12.87 C31.08 13.76, 31.12 15.13, 31.16 15.58 C31.19 16.03, 31.19 15.13, 31.16 15.58" stroke="#E1E1E1" stroke-width="2" fill="none"></path></g><g stroke-linecap="round" transform="translate(122.34572846056176 231.50656358322954) rotate(180 21.37702717166769 21.251978236150535)"><path d="M42.75 21.25 C42.75 22.48, 42.64 23.73, 42.43 24.94 C42.21 26.15, 41.89 27.36, 41.46 28.52 C41.04 29.68, 40.51 30.81, 39.89 31.88 C39.27 32.94, 38.55 33.97, 37.75 34.91 C36.96 35.85, 36.07 36.74, 35.12 37.53 C34.17 38.32, 33.14 39.04, 32.07 39.66 C30.99 40.27, 29.85 40.8, 28.69 41.22 C27.53 41.64, 26.31 41.97, 25.09 42.18 C23.87 42.39, 22.61 42.5, 21.38 42.5 C20.14 42.5, 18.88 42.39, 17.66 42.18 C16.45 41.97, 15.23 41.64, 14.07 41.22 C12.9 40.8, 11.76 40.27, 10.69 39.66 C9.62 39.04, 8.58 38.32, 7.64 37.53 C6.69 36.74, 5.8 35.85, 5 34.91 C4.21 33.97, 3.48 32.94, 2.86 31.88 C2.25 30.81, 1.71 29.68, 1.29 28.52 C0.87 27.36, 0.54 26.15, 0.32 24.94 C0.11 23.73, 0 22.48, 0 21.25 C0 20.02, 0.11 18.77, 0.32 17.56 C0.54 16.35, 0.87 15.14, 1.29 13.98 C1.71 12.83, 2.25 11.69, 2.86 10.63 C3.48 9.56, 4.21 8.53, 5 7.59 C5.8 6.65, 6.69 5.76, 7.64 4.97 C8.58 4.18, 9.62 3.46, 10.69 2.85 C11.76 2.23, 12.9 1.7, 14.07 1.28 C15.23 0.86, 16.45 0.54, 17.66 0.32 C18.88 0.11, 20.14 0, 21.38 0 C22.61 0, 23.87 0.11, 25.09 0.32 C26.31 0.54, 27.53 0.86, 28.69 1.28 C29.85 1.7, 30.99 2.23, 32.07 2.85 C33.14 3.46, 34.17 4.18, 35.12 4.97 C36.07 5.76, 36.96 6.65, 37.75 7.59 C38.55 8.53, 39.27 9.56, 39.89 10.63 C40.51 11.69, 41.04 12.83, 41.46 13.98 C41.89 15.14, 42.21 16.35, 42.43 17.56 C42.64 18.77, 42.7 20.64, 42.75 21.25 C42.81 21.87, 42.81 20.64, 42.75 21.25" stroke="#E1E1E1" stroke-width="2" fill="none"></path></g><g stroke-linecap="round"><g transform="translate(206.6333356745174 212.35835457143355) rotate(180 -22.790963283536712 11.121941380403825)"><path d="M0 0 C-1.15 0.21, -4.45 0.65, -6.89 1.26 C-9.33 1.87, -12.14 2.73, -14.66 3.66 C-17.17 4.58, -19.63 5.71, -21.98 6.83 C-24.33 7.96, -26.54 9.14, -28.76 10.41 C-30.98 11.68, -33.27 13.09, -35.31 14.46 C-37.36 15.82, -39.32 17.3, -41.04 18.6 C-42.75 19.9, -44.82 21.64, -45.58 22.24 M0 0 C-1.15 0.21, -4.45 0.65, -6.89 1.26 C-9.33 1.87, -12.14 2.73, -14.66 3.66 C-17.17 4.58, -19.63 5.71, -21.98 6.83 C-24.33 7.96, -26.54 9.14, -28.76 10.41 C-30.98 11.68, -33.27 13.09, -35.31 14.46 C-37.36 15.82, -39.32 17.3, -41.04 18.6 C-42.75 19.9, -44.82 21.64, -45.58 22.24" stroke="#E1E1E1" stroke-width="2" fill="none"></path></g></g><mask></mask><g stroke-linecap="round"><g transform="translate(189.54959288634632 196.12900361816708) rotate(180 8.733595841658484 8.10558338942883)"><path d="M0 0 C0.55 0.48, 2 1.72, 3.28 2.86 C4.56 4.01, 6.09 5.34, 7.71 6.86 C9.32 8.38, 11.34 10.44, 12.97 12 C14.59 13.56, 16.72 15.51, 17.47 16.21 M0 0 C0.55 0.48, 2 1.72, 3.28 2.86 C4.56 4.01, 6.09 5.34, 7.71 6.86 C9.32 8.38, 11.34 10.44, 12.97 12 C14.59 13.56, 16.72 15.51, 17.47 16.21" stroke="#E1E1E1" stroke-width="2" fill="none"></path></g></g><mask></mask><g stroke-linecap="round"><g transform="translate(167.67297856440814 208.7688504272919) rotate(180 10.93224659305804 -6.302529846432037)"><path d="M0 0 C0.72 -0.52, 2.27 -1.75, 4.33 -3.15 C6.39 -4.54, 10.17 -7.1, 12.36 -8.37 C14.55 -9.63, 15.9 -10.05, 17.48 -10.75 C19.06 -11.46, 21.13 -12.3, 21.86 -12.61 M0 0 C0.72 -0.52, 2.27 -1.75, 4.33 -3.15 C6.39 -4.54, 10.17 -7.1, 12.36 -8.37 C14.55 -9.63, 15.9 -10.05, 17.48 -10.75 C19.06 -11.46, 21.13 -12.3, 21.86 -12.61" stroke="#E1E1E1" stroke-width="2" fill="none"></path></g></g><mask></mask><g stroke-linecap="round"><g transform="translate(119.7902219792054 168.44316546730158) rotate(180 23.847595997858207 20.05572126381651)"><path d="M0 0 C-0.02 1.38, -0.07 5.65, -0.11 8.28 C-0.15 10.91, -0.32 13.35, -0.24 15.77 C-0.15 18.18, 0.02 20.78, 0.39 22.79 C0.76 24.8, 1.17 26.11, 1.97 27.84 C2.77 29.56, 3.96 31.69, 5.22 33.14 C6.47 34.59, 7.87 35.55, 9.49 36.55 C11.12 37.56, 12.99 38.58, 14.95 39.17 C16.91 39.77, 18.58 39.99, 21.28 40.11 C23.97 40.23, 28.48 40.27, 31.12 39.89 C33.75 39.5, 35.2 38.86, 37.09 37.79 C38.98 36.71, 40.94 35.09, 42.44 33.46 C43.94 31.83, 45.18 30.04, 46.07 28 C46.97 25.97, 47.53 23.92, 47.84 21.25 C48.15 18.57, 47.93 14.81, 47.93 11.95 C47.93 9.09, 47.84 6.06, 47.84 4.08 C47.84 2.1, 47.91 0.74, 47.93 0.07 M0 0 C-0.02 1.38, -0.07 5.65, -0.11 8.28 C-0.15 10.91, -0.32 13.35, -0.24 15.77 C-0.15 18.18, 0.02 20.78, 0.39 22.79 C0.76 24.8, 1.17 26.11, 1.97 27.84 C2.77 29.56, 3.96 31.69, 5.22 33.14 C6.47 34.59, 7.87 35.55, 9.49 36.55 C11.12 37.56, 12.99 38.58, 14.95 39.17 C16.91 39.77, 18.58 39.99, 21.28 40.11 C23.97 40.23, 28.48 40.27, 31.12 39.89 C33.75 39.5, 35.2 38.86, 37.09 37.79 C38.98 36.71, 40.94 35.09, 42.44 33.46 C43.94 31.83, 45.18 30.04, 46.07 28 C46.97 25.97, 47.53 23.92, 47.84 21.25 C48.15 18.57, 47.93 14.81, 47.93 11.95 C47.93 9.09, 47.84 6.06, 47.84 4.08 C47.84 2.1, 47.91 0.74, 47.93 0.07" stroke="#E1E1E1" stroke-width="2" fill="none"></path></g></g><mask></mask><g stroke-linecap="round"><g transform="translate(78.6395200547164 195.65251466558277) rotate(180 20.386119806664908 6.481156005876414)"><path d="M0 0 C0.75 0.31, 2.57 0.88, 4.52 1.84 C6.48 2.79, 9.66 4.52, 11.73 5.74 C13.8 6.97, 15.46 8.14, 16.94 9.2 C18.42 10.26, 19.55 11.2, 20.6 12.1 C21.66 13, 22.68 14.23, 23.26 14.61 C23.85 14.98, 23.46 14.86, 24.1 14.34 C24.74 13.82, 25.45 13.04, 27.1 11.47 C28.74 9.89, 31.7 7.09, 33.98 4.9 C36.26 2.72, 39.64 -0.55, 40.77 -1.64 M0 0 C0.75 0.31, 2.57 0.88, 4.52 1.84 C6.48 2.79, 9.66 4.52, 11.73 5.74 C13.8 6.97, 15.46 8.14, 16.94 9.2 C18.42 10.26, 19.55 11.2, 20.6 12.1 C21.66 13, 22.68 14.23, 23.26 14.61 C23.85 14.98, 23.46 14.86, 24.1 14.34 C24.74 13.82, 25.45 13.04, 27.1 11.47 C28.74 9.89, 31.7 7.09, 33.98 4.9 C36.26 2.72, 39.64 -0.55, 40.77 -1.64" stroke="#E1E1E1" stroke-width="2" fill="none"></path></g></g><mask></mask><g stroke-linecap="round"><g transform="translate(125.8125347051423 234.7402789344959) rotate(180 -23.57069499963984 -12.002766976449607)"><path d="M0 0 C-0.74 -0.61, -2.65 -2.27, -4.44 -3.69 C-6.23 -5.1, -8.65 -7, -10.74 -8.47 C-12.83 -9.94, -15 -11.32, -16.99 -12.52 C-18.98 -13.72, -20.23 -14.47, -22.68 -15.68 C-25.13 -16.9, -29.23 -18.79, -31.68 -19.81 C-34.13 -20.83, -35.48 -21.24, -37.4 -21.82 C-39.32 -22.4, -41.59 -22.92, -43.21 -23.28 C-44.83 -23.64, -46.49 -23.88, -47.14 -24.01 M0 0 C-0.74 -0.61, -2.65 -2.27, -4.44 -3.69 C-6.23 -5.1, -8.65 -7, -10.74 -8.47 C-12.83 -9.94, -15 -11.32, -16.99 -12.52 C-18.98 -13.72, -20.23 -14.47, -22.68 -15.68 C-25.13 -16.9, -29.23 -18.79, -31.68 -19.81 C-34.13 -20.83, -35.48 -21.24, -37.4 -21.82 C-39.32 -22.4, -41.59 -22.92, -43.21 -23.28 C-44.83 -23.64, -46.49 -23.88, -47.14 -24.01" stroke="#E1E1E1" stroke-width="2" fill="none"></path></g></g><mask></mask><g stroke-linecap="round"><g transform="translate(161.09288928463843 227.24741918557527) rotate(180 -17.64558065787753 3.7641234849920693)"><path d="M0 0 C-0.39 0.44, -1.22 1.76, -2.35 2.66 C-3.49 3.55, -5.13 4.64, -6.82 5.36 C-8.51 6.09, -10.43 6.66, -12.48 7.02 C-14.53 7.38, -16.94 7.62, -19.12 7.53 C-21.3 7.43, -23.69 7.01, -25.56 6.45 C-27.43 5.9, -29 4.95, -30.34 4.19 C-31.68 3.42, -32.78 2.54, -33.61 1.88 C-34.43 1.22, -35.01 0.52, -35.29 0.25 M0 0 C-0.39 0.44, -1.22 1.76, -2.35 2.66 C-3.49 3.55, -5.13 4.64, -6.82 5.36 C-8.51 6.09, -10.43 6.66, -12.48 7.02 C-14.53 7.38, -16.94 7.62, -19.12 7.53 C-21.3 7.43, -23.69 7.01, -25.56 6.45 C-27.43 5.9, -29 4.95, -30.34 4.19 C-31.68 3.42, -32.78 2.54, -33.61 1.88 C-34.43 1.22, -35.01 0.52, -35.29 0.25" stroke="#E1E1E1" stroke-width="2" fill="none"></path></g></g><mask></mask><g stroke-linecap="round"><g transform="translate(123.83351839129023 221.59727478445575) rotate(180 19.500812404589396 3.502956368388027)"><path d="M0 0 C0.63 0.52, 2.35 2.22, 3.75 3.1 C5.15 3.99, 6.7 4.68, 8.39 5.31 C10.08 5.94, 11.37 6.6, 13.88 6.89 C16.39 7.17, 20.77 7.27, 23.45 7.04 C26.14 6.8, 28.03 6.18, 29.98 5.49 C31.92 4.8, 33.6 3.84, 35.1 2.92 C36.61 2, 38.35 0.46, 39 -0.03 M0 0 C0.63 0.52, 2.35 2.22, 3.75 3.1 C5.15 3.99, 6.7 4.68, 8.39 5.31 C10.08 5.94, 11.37 6.6, 13.88 6.89 C16.39 7.17, 20.77 7.27, 23.45 7.04 C26.14 6.8, 28.03 6.18, 29.98 5.49 C31.92 4.8, 33.6 3.84, 35.1 2.92 C36.61 2, 38.35 0.46, 39 -0.03" stroke="#E1E1E1" stroke-width="2" fill="none"></path></g></g><mask></mask><g stroke-linecap="round"><g transform="translate(86.84211453221144 210.1792579842171) rotate(180 18.437433509802702 9.203564099785808)"><path d="M0 0 C0.99 0.28, 3.72 0.97, 5.96 1.67 C8.2 2.38, 10.81 3.15, 13.44 4.24 C16.06 5.34, 19.1 6.89, 21.71 8.25 C24.32 9.6, 27.1 11.11, 29.1 12.39 C31.11 13.66, 32.43 14.89, 33.72 15.89 C35.02 16.9, 36.35 17.99, 36.87 18.41 M0 0 C0.99 0.28, 3.72 0.97, 5.96 1.67 C8.2 2.38, 10.81 3.15, 13.44 4.24 C16.06 5.34, 19.1 6.89, 21.71 8.25 C24.32 9.6, 27.1 11.11, 29.1 12.39 C31.11 13.66, 32.43 14.89, 33.72 15.89 C35.02 16.9, 36.35 17.99, 36.87 18.41" stroke="#E1E1E1" stroke-width="2" fill="none"></path></g></g><mask></mask><g stroke-linecap="round"><g transform="translate(96.28232984960482 201.45559796557302) rotate(180 -4.689145148683906 4.356691003510832)"><path d="M0 0 C-0.63 0.58, -2.22 2.03, -3.78 3.48 C-5.34 4.93, -8.45 7.84, -9.38 8.71 M0 0 C-0.63 0.58, -2.22 2.03, -3.78 3.48 C-5.34 4.93, -8.45 7.84, -9.38 8.71" stroke="#E1E1E1" stroke-width="2" fill="none"></path></g></g><mask></mask><g stroke-linecap="round"><g transform="translate(125.5000831518189 216.0250747485686) rotate(180 -14.643925659010165 -7.363535657044849)"><path d="M0 0 C-0.56 -0.46, -1.74 -1.58, -3.38 -2.77 C-5.02 -3.96, -7.49 -5.78, -9.86 -7.13 C-12.24 -8.48, -15.45 -9.95, -17.63 -10.87 C-19.81 -11.79, -20.99 -12.01, -22.93 -12.66 C-24.87 -13.3, -28.23 -14.38, -29.29 -14.73 M0 0 C-0.56 -0.46, -1.74 -1.58, -3.38 -2.77 C-5.02 -3.96, -7.49 -5.78, -9.86 -7.13 C-12.24 -8.48, -15.45 -9.95, -17.63 -10.87 C-19.81 -11.79, -20.99 -12.01, -22.93 -12.66 C-24.87 -13.3, -28.23 -14.38, -29.29 -14.73" stroke="#E1E1E1" stroke-width="2" fill="none"></path></g></g><mask></mask><g stroke-linecap="round"><g transform="translate(161.62654806415912 173.8750704102216) rotate(180 -18.056988956515397 20.984485383784147)"><path d="M0 0 C0.02 1.79, 0.1 7.64, 0.14 10.72 C0.17 13.8, 0.2 15.7, 0.21 18.48 C0.22 21.25, 0.37 24.97, 0.17 27.37 C-0.03 29.78, -0.11 31.08, -0.99 32.92 C-1.88 34.76, -3.5 36.98, -5.13 38.41 C-6.76 39.85, -8.56 40.91, -10.76 41.54 C-12.96 42.17, -15.74 42.22, -18.32 42.17 C-20.91 42.12, -23.95 41.96, -26.25 41.25 C-28.55 40.54, -30.58 39.33, -32.1 37.89 C-33.62 36.45, -34.66 34.74, -35.37 32.62 C-36.07 30.5, -36.17 28.63, -36.32 25.17 C-36.47 21.7, -36.25 16.06, -36.25 11.84 C-36.25 7.61, -36.31 1.81, -36.32 -0.2 M0 0 C0.02 1.79, 0.1 7.64, 0.14 10.72 C0.17 13.8, 0.2 15.7, 0.21 18.48 C0.22 21.25, 0.37 24.97, 0.17 27.37 C-0.03 29.78, -0.11 31.08, -0.99 32.92 C-1.88 34.76, -3.5 36.98, -5.13 38.41 C-6.76 39.85, -8.56 40.91, -10.76 41.54 C-12.96 42.17, -15.74 42.22, -18.32 42.17 C-20.91 42.12, -23.95 41.96, -26.25 41.25 C-28.55 40.54, -30.58 39.33, -32.1 37.89 C-33.62 36.45, -34.66 34.74, -35.37 32.62 C-36.07 30.5, -36.17 28.63, -36.32 25.17 C-36.47 21.7, -36.25 16.06, -36.25 11.84 C-36.25 7.61, -36.31 1.81, -36.32 -0.2" stroke="#E1E1E1" stroke-width="2" fill="none"></path></g></g><mask></mask><g stroke-linecap="round"><g transform="translate(189.2274958144235 203.2286340320752) rotate(180 -13.687544324159603 6.479760074009164)"><path d="M0 0 C-0.82 0.22, -2.47 0.46, -4.95 1.34 C-7.42 2.21, -12.13 4, -14.87 5.26 C-17.61 6.51, -19.32 7.6, -21.4 8.88 C-23.48 10.16, -26.38 12.28, -27.38 12.96 M0 0 C-0.82 0.22, -2.47 0.46, -4.95 1.34 C-7.42 2.21, -12.13 4, -14.87 5.26 C-17.61 6.51, -19.32 7.6, -21.4 8.88 C-23.48 10.16, -26.38 12.28, -27.38 12.96" stroke="#E1E1E1" stroke-width="2" fill="none"></path></g></g><mask></mask><g stroke-linecap="round"><g transform="translate(198.64805937594065 211.747944449447) rotate(180 -4.64621468475309 -4.337214665621673)"><path d="M0 0 C-1.55 -1.45, -7.74 -7.23, -9.29 -8.67 M0 0 C-1.55 -1.45, -7.74 -7.23, -9.29 -8.67" stroke="#E1E1E1" stroke-width="2" fill="none"></path></g></g><mask></mask><g stroke-linecap="round"><g transform="translate(163.15466088678227 228.7978488608917) rotate(180 17.554842615847065 -8.601113260115198)"><path d="M0 0 C0.99 -0.8, 3 -2.94, 5.92 -4.78 C8.83 -6.63, 13.82 -9.33, 17.5 -11.06 C21.19 -12.79, 25.08 -14.13, 28.02 -15.15 C30.95 -16.17, 33.93 -16.86, 35.11 -17.2 M0 0 C0.99 -0.8, 3 -2.94, 5.92 -4.78 C8.83 -6.63, 13.82 -9.33, 17.5 -11.06 C21.19 -12.79, 25.08 -14.13, 28.02 -15.15 C30.95 -16.17, 33.93 -16.86, 35.11 -17.2" stroke="#E1E1E1" stroke-width="2" fill="none"></path></g></g><mask></mask><g stroke-linecap="round" transform="translate(237.98601790150929 125.44963931451025) rotate(89.99999999999994 15.577723351259579 15.577723351259579)"><path d="M31.16 15.58 C31.16 16.48, 31.08 17.39, 30.92 18.28 C30.76 19.17, 30.52 20.06, 30.22 20.91 C29.91 21.75, 29.52 22.59, 29.07 23.37 C28.62 24.15, 28.09 24.9, 27.51 25.59 C26.93 26.28, 26.28 26.93, 25.59 27.51 C24.9 28.09, 24.15 28.62, 23.37 29.07 C22.59 29.52, 21.75 29.91, 20.91 30.22 C20.06 30.52, 19.17 30.76, 18.28 30.92 C17.39 31.08, 16.48 31.16, 15.58 31.16 C14.68 31.16, 13.76 31.08, 12.87 30.92 C11.98 30.76, 11.1 30.52, 10.25 30.22 C9.4 29.91, 8.57 29.52, 7.79 29.07 C7.01 28.62, 6.26 28.09, 5.56 27.51 C4.87 26.93, 4.22 26.28, 3.64 25.59 C3.06 24.9, 2.54 24.15, 2.09 23.37 C1.64 22.59, 1.25 21.75, 0.94 20.91 C0.63 20.06, 0.39 19.17, 0.24 18.28 C0.08 17.39, 0 16.48, 0 15.58 C0 14.68, 0.08 13.76, 0.24 12.87 C0.39 11.98, 0.63 11.1, 0.94 10.25 C1.25 9.4, 1.64 8.57, 2.09 7.79 C2.54 7.01, 3.06 6.26, 3.64 5.56 C4.22 4.87, 4.87 4.22, 5.56 3.64 C6.26 3.06, 7.01 2.54, 7.79 2.09 C8.57 1.64, 9.4 1.25, 10.25 0.94 C11.1 0.63, 11.98 0.39, 12.87 0.24 C13.76 0.08, 14.68 0, 15.58 0 C16.48 0, 17.39 0.08, 18.28 0.24 C19.17 0.39, 20.06 0.63, 20.91 0.94 C21.75 1.25, 22.59 1.64, 23.37 2.09 C24.15 2.54, 24.9 3.06, 25.59 3.64 C26.28 4.22, 26.93 4.87, 27.51 5.56 C28.09 6.26, 28.62 7.01, 29.07 7.79 C29.52 8.57, 29.91 9.4, 30.22 10.25 C30.52 11.1, 30.76 11.98, 30.92 12.87 C31.08 13.76, 31.12 15.13, 31.16 15.58 C31.19 16.03, 31.19 15.13, 31.16 15.58" stroke="#E1E1E1" stroke-width="2" fill="none"></path></g><g stroke-linecap="round" transform="translate(232.19831768108224 119.43061586978149) rotate(89.99999999999994 21.37702717166769 21.251978236150535)"><path d="M42.75 21.25 C42.75 22.48, 42.64 23.73, 42.43 24.94 C42.21 26.15, 41.89 27.36, 41.46 28.52 C41.04 29.68, 40.51 30.81, 39.89 31.88 C39.27 32.94, 38.55 33.97, 37.75 34.91 C36.96 35.85, 36.07 36.74, 35.12 37.53 C34.17 38.32, 33.14 39.04, 32.07 39.66 C30.99 40.27, 29.85 40.8, 28.69 41.22 C27.53 41.64, 26.31 41.97, 25.09 42.18 C23.87 42.39, 22.61 42.5, 21.38 42.5 C20.14 42.5, 18.88 42.39, 17.66 42.18 C16.45 41.97, 15.23 41.64, 14.07 41.22 C12.9 40.8, 11.76 40.27, 10.69 39.66 C9.62 39.04, 8.58 38.32, 7.64 37.53 C6.69 36.74, 5.8 35.85, 5 34.91 C4.21 33.97, 3.48 32.94, 2.86 31.88 C2.25 30.81, 1.71 29.68, 1.29 28.52 C0.87 27.36, 0.54 26.15, 0.32 24.94 C0.11 23.73, 0 22.48, 0 21.25 C0 20.02, 0.11 18.77, 0.32 17.56 C0.54 16.35, 0.87 15.14, 1.29 13.98 C1.71 12.83, 2.25 11.69, 2.86 10.63 C3.48 9.56, 4.21 8.53, 5 7.59 C5.8 6.65, 6.69 5.76, 7.64 4.97 C8.58 4.18, 9.62 3.46, 10.69 2.85 C11.76 2.23, 12.9 1.7, 14.07 1.28 C15.23 0.86, 16.45 0.54, 17.66 0.32 C18.88 0.11, 20.14 0, 21.38 0 C22.61 0, 23.87 0.11, 25.09 0.32 C26.31 0.54, 27.53 0.86, 28.69 1.28 C29.85 1.7, 30.99 2.23, 32.07 2.85 C33.14 3.46, 34.17 4.18, 35.12 4.97 C36.07 5.76, 36.96 6.65, 37.75 7.59 C38.55 8.53, 39.27 9.56, 39.89 10.63 C40.51 11.69, 41.04 12.83, 41.46 13.98 C41.89 15.14, 42.21 16.35, 42.43 17.56 C42.64 18.77, 42.7 20.64, 42.75 21.25 C42.81 21.87, 42.81 20.64, 42.75 21.25" stroke="#E1E1E1" stroke-width="2" fill="none"></path></g><g stroke-linecap="round"><g transform="translate(247.0880622687448 89.44103596677724) rotate(89.99999999999994 -22.790963283536712 11.121941380403825)"><path d="M0 0 C-1.15 0.21, -4.45 0.65, -6.89 1.26 C-9.33 1.87, -12.14 2.73, -14.66 3.66 C-17.17 4.58, -19.63 5.71, -21.98 6.83 C-24.33 7.96, -26.54 9.14, -28.76 10.41 C-30.98 11.68, -33.27 13.09, -35.31 14.46 C-37.36 15.82, -39.32 17.3, -41.04 18.6 C-42.75 19.9, -44.82 21.64, -45.58 22.24 M0 0 C-1.15 0.21, -4.45 0.65, -6.89 1.26 C-9.33 1.87, -12.14 2.73, -14.66 3.66 C-17.17 4.58, -19.63 5.71, -21.98 6.83 C-24.33 7.96, -26.54 9.14, -28.76 10.41 C-30.98 11.68, -33.27 13.09, -35.31 14.46 C-37.36 15.82, -39.32 17.3, -41.04 18.6 C-42.75 19.9, -44.82 21.64, -45.58 22.24" stroke="#E1E1E1" stroke-width="2" fill="none"></path></g></g><mask></mask><g stroke-linecap="round"><g transform="translate(196.31779419930763 78.01657762072796) rotate(89.99999999999994 8.733595841658484 8.10558338942883)"><path d="M0 0 C0.55 0.48, 2 1.72, 3.28 2.86 C4.56 4.01, 6.09 5.34, 7.71 6.86 C9.32 8.38, 11.34 10.44, 12.97 12 C14.59 13.56, 16.72 15.51, 17.47 16.21 M0 0 C0.55 0.48, 2 1.72, 3.28 2.86 C4.56 4.01, 6.09 5.34, 7.71 6.86 C9.32 8.38, 11.34 10.44, 12.97 12 C14.59 13.56, 16.72 15.51, 17.47 16.21" stroke="#E1E1E1" stroke-width="2" fill="none"></path></g></g><mask></mask><g stroke-linecap="round"><g transform="translate(192.3508770211722 112.10265442712739) rotate(89.99999999999994 10.93224659305804 -6.302529846432094)"><path d="M0 0 C0.72 -0.52, 2.27 -1.75, 4.33 -3.15 C6.39 -4.54, 10.17 -7.1, 12.36 -8.37 C14.55 -9.63, 15.9 -10.05, 17.48 -10.75 C19.06 -11.46, 21.13 -12.3, 21.86 -12.61 M0 0 C0.72 -0.52, 2.27 -1.75, 4.33 -3.15 C6.39 -4.54, 10.17 -7.1, 12.36 -8.37 C14.55 -9.63, 15.9 -10.05, 17.48 -10.75 C19.06 -11.46, 21.13 -12.3, 21.86 -12.61" stroke="#E1E1E1" stroke-width="2" fill="none"></path></g></g><mask></mask><g stroke-linecap="round"><g transform="translate(165.4849892259815 120.64517957257101) rotate(89.99999999999994 23.847595997858207 20.05572126381651)"><path d="M0 0 C-0.02 1.38, -0.07 5.65, -0.11 8.28 C-0.15 10.91, -0.32 13.35, -0.24 15.77 C-0.15 18.18, 0.02 20.78, 0.39 22.79 C0.76 24.8, 1.17 26.11, 1.97 27.84 C2.77 29.56, 3.96 31.69, 5.22 33.14 C6.47 34.59, 7.87 35.55, 9.49 36.55 C11.12 37.56, 12.99 38.58, 14.95 39.17 C16.91 39.77, 18.58 39.99, 21.28 40.11 C23.97 40.23, 28.48 40.27, 31.12 39.89 C33.75 39.5, 35.2 38.86, 37.09 37.79 C38.98 36.71, 40.94 35.09, 42.44 33.46 C43.94 31.83, 45.18 30.04, 46.07 28 C46.97 25.97, 47.53 23.92, 47.84 21.25 C48.15 18.57, 47.93 14.81, 47.93 11.95 C47.93 9.09, 47.84 6.06, 47.84 4.08 C47.84 2.1, 47.91 0.74, 47.93 0.07 M0 0 C-0.02 1.38, -0.07 5.65, -0.11 8.28 C-0.15 10.91, -0.32 13.35, -0.24 15.77 C-0.15 18.18, 0.02 20.78, 0.39 22.79 C0.76 24.8, 1.17 26.11, 1.97 27.84 C2.77 29.56, 3.96 31.69, 5.22 33.14 C6.47 34.59, 7.87 35.55, 9.49 36.55 C11.12 37.56, 12.99 38.58, 14.95 39.17 C16.91 39.77, 18.58 39.99, 21.28 40.11 C23.97 40.23, 28.48 40.27, 31.12 39.89 C33.75 39.5, 35.2 38.86, 37.09 37.79 C38.98 36.71, 40.94 35.09, 42.44 33.46 C43.94 31.83, 45.18 30.04, 46.07 28 C46.97 25.97, 47.53 23.92, 47.84 21.25 C48.15 18.57, 47.93 14.81, 47.93 11.95 C47.93 9.09, 47.84 6.06, 47.84 4.08 C47.84 2.1, 47.91 0.74, 47.93 0.07" stroke="#E1E1E1" stroke-width="2" fill="none"></path></g></g><mask></mask><g stroke-linecap="round"><g transform="translate(182.67386010219548 178.78904766687174) rotate(89.99999999999994 20.38611980666485 6.481156005876414)"><path d="M0 0 C0.75 0.31, 2.57 0.88, 4.52 1.84 C6.48 2.79, 9.66 4.52, 11.73 5.74 C13.8 6.97, 15.46 8.14, 16.94 9.2 C18.42 10.26, 19.55 11.2, 20.6 12.1 C21.66 13, 22.68 14.23, 23.26 14.61 C23.85 14.98, 23.46 14.86, 24.1 14.34 C24.74 13.82, 25.45 13.04, 27.1 11.47 C28.74 9.89, 31.7 7.09, 33.98 4.9 C36.26 2.72, 39.64 -0.55, 40.77 -1.64 M0 0 C0.75 0.31, 2.57 0.88, 4.52 1.84 C6.48 2.79, 9.66 4.52, 11.73 5.74 C13.8 6.97, 15.46 8.14, 16.94 9.2 C18.42 10.26, 19.55 11.2, 20.6 12.1 C21.66 13, 22.68 14.23, 23.26 14.61 C23.85 14.98, 23.46 14.86, 24.1 14.34 C24.74 13.82, 25.45 13.04, 27.1 11.47 C28.74 9.89, 31.7 7.09, 33.98 4.9 C36.26 2.72, 39.64 -0.55, 40.77 -1.64" stroke="#E1E1E1" stroke-width="2" fill="none"></path></g></g><mask></mask><g stroke-linecap="round"><g transform="translate(247.12500999105532 194.16627700910874) rotate(89.99999999999994 -23.57069499963984 -12.002766976449607)"><path d="M0 0 C-0.74 -0.61, -2.65 -2.27, -4.44 -3.69 C-6.23 -5.1, -8.65 -7, -10.74 -8.47 C-12.83 -9.94, -15 -11.32, -16.99 -12.52 C-18.98 -13.72, -20.23 -14.47, -22.68 -15.68 C-25.13 -16.9, -29.23 -18.79, -31.68 -19.81 C-34.13 -20.83, -35.48 -21.24, -37.4 -21.82 C-39.32 -22.4, -41.59 -22.92, -43.21 -23.28 C-44.83 -23.64, -46.49 -23.88, -47.14 -24.01 M0 0 C-0.74 -0.61, -2.65 -2.27, -4.44 -3.69 C-6.23 -5.1, -8.65 -7, -10.74 -8.47 C-12.83 -9.94, -15 -11.32, -16.99 -12.52 C-18.98 -13.72, -20.23 -14.47, -22.68 -15.68 C-25.13 -16.9, -29.23 -18.79, -31.68 -19.81 C-34.13 -20.83, -35.48 -21.24, -37.4 -21.82 C-39.32 -22.4, -41.59 -22.92, -43.21 -23.28 C-44.83 -23.64, -46.49 -23.88, -47.14 -24.01" stroke="#E1E1E1" stroke-width="2" fill="none"></path></g></g><mask></mask><g stroke-linecap="round"><g transform="translate(249.48443119266472 137.1834127955584) rotate(89.99999999999994 -17.64558065787753 3.7641234849920693)"><path d="M0 0 C-0.39 0.44, -1.22 1.76, -2.35 2.66 C-3.49 3.55, -5.13 4.64, -6.82 5.36 C-8.51 6.09, -10.43 6.66, -12.48 7.02 C-14.53 7.38, -16.94 7.62, -19.12 7.53 C-21.3 7.43, -23.69 7.01, -25.56 6.45 C-27.43 5.9, -29 4.95, -30.34 4.19 C-31.68 3.42, -32.78 2.54, -33.61 1.88 C-34.43 1.22, -35.01 0.52, -35.29 0.25 M0 0 C-0.39 0.44, -1.22 1.76, -2.35 2.66 C-3.49 3.55, -5.13 4.64, -6.82 5.36 C-8.51 6.09, -10.43 6.66, -12.48 7.02 C-14.53 7.38, -16.94 7.62, -19.12 7.53 C-21.3 7.43, -23.69 7.01, -25.56 6.45 C-27.43 5.9, -29 4.95, -30.34 4.19 C-31.68 3.42, -32.78 2.54, -33.61 1.88 C-34.43 1.22, -35.01 0.52, -35.29 0.25" stroke="#E1E1E1" stroke-width="2" fill="none"></path></g></g><mask></mask><g stroke-linecap="round"><g transform="translate(206.4814793726382 137.5028049828802) rotate(89.99999999999994 19.500812404589396 3.502956368388027)"><path d="M0 0 C0.63 0.52, 2.35 2.22, 3.75 3.1 C5.15 3.99, 6.7 4.68, 8.39 5.31 C10.08 5.94, 11.37 6.6, 13.88 6.89 C16.39 7.17, 20.77 7.27, 23.45 7.04 C26.14 6.8, 28.03 6.18, 29.98 5.49 C31.92 4.8, 33.6 3.84, 35.1 2.92 C36.61 2, 38.35 0.46, 39 -0.03 M0 0 C0.63 0.52, 2.35 2.22, 3.75 3.1 C5.15 3.99, 6.7 4.68, 8.39 5.31 C10.08 5.94, 11.37 6.6, 13.88 6.89 C16.39 7.17, 20.77 7.27, 23.45 7.04 C26.14 6.8, 28.03 6.18, 29.98 5.49 C31.92 4.8, 33.6 3.84, 35.1 2.92 C36.61 2, 38.35 0.46, 39 -0.03" stroke="#E1E1E1" stroke-width="2" fill="none"></path></g></g><mask></mask><g stroke-linecap="round"><g transform="translate(201.76219160756932 169.92223759636147) rotate(89.99999999999994 18.437433509802645 9.203564099785808)"><path d="M0 0 C0.99 0.28, 3.72 0.97, 5.96 1.67 C8.2 2.38, 10.81 3.15, 13.44 4.24 C16.06 5.34, 19.1 6.89, 21.71 8.25 C24.32 9.6, 27.1 11.11, 29.1 12.39 C31.11 13.66, 32.43 14.89, 33.72 15.89 C35.02 16.9, 36.35 17.99, 36.87 18.41 M0 0 C0.99 0.28, 3.72 0.97, 5.96 1.67 C8.2 2.38, 10.81 3.15, 13.44 4.24 C16.06 5.34, 19.1 6.89, 21.71 8.25 C24.32 9.6, 27.1 11.11, 29.1 12.39 C31.11 13.66, 32.43 14.89, 33.72 15.89 C35.02 16.9, 36.35 17.99, 36.87 18.41" stroke="#E1E1E1" stroke-width="2" fill="none"></path></g></g><mask></mask><g stroke-linecap="round"><g transform="translate(211.31823715113683 188.45547403372984) rotate(89.99999999999994 -4.689145148683906 4.356691003510832)"><path d="M0 0 C-0.63 0.58, -2.22 2.03, -3.78 3.48 C-5.34 4.93, -8.45 7.84, -9.38 8.71 M0 0 C-0.63 0.58, -2.22 2.03, -3.78 3.48 C-5.34 4.93, -8.45 7.84, -9.38 8.71" stroke="#E1E1E1" stroke-width="2" fill="none"></path></g></g><mask></mask><g stroke-linecap="round"><g transform="translate(224.122267783903 180.9127279023976) rotate(89.99999999999994 -14.643925659010165 -7.363535657044849)"><path d="M0 0 C-0.56 -0.46, -1.74 -1.58, -3.38 -2.77 C-5.02 -3.96, -7.49 -5.78, -9.86 -7.13 C-12.24 -8.48, -15.45 -9.95, -17.63 -10.87 C-19.81 -11.79, -20.99 -12.01, -22.93 -12.66 C-24.87 -13.3, -28.23 -14.38, -29.29 -14.73 M0 0 C-0.56 -0.46, -1.74 -1.58, -3.38 -2.77 C-5.02 -3.96, -7.49 -5.78, -9.86 -7.13 C-12.24 -8.48, -15.45 -9.95, -17.63 -10.87 C-19.81 -11.79, -20.99 -12.01, -22.93 -12.66 C-24.87 -13.3, -28.23 -14.38, -29.29 -14.73" stroke="#E1E1E1" stroke-width="2" fill="none"></path></g></g><mask></mask><g stroke-linecap="round"><g transform="translate(213.73230759992725 119.83615776585043) rotate(89.99999999999994 -18.056988956515397 20.984485383784147)"><path d="M0 0 C0.02 1.79, 0.1 7.64, 0.14 10.72 C0.17 13.8, 0.2 15.7, 0.21 18.48 C0.22 21.25, 0.37 24.97, 0.17 27.37 C-0.03 29.78, -0.11 31.08, -0.99 32.92 C-1.88 34.76, -3.5 36.98, -5.13 38.41 C-6.76 39.85, -8.56 40.91, -10.76 41.54 C-12.96 42.17, -15.74 42.22, -18.32 42.17 C-20.91 42.12, -23.95 41.96, -26.25 41.25 C-28.55 40.54, -30.58 39.33, -32.1 37.89 C-33.62 36.45, -34.66 34.74, -35.37 32.62 C-36.07 30.5, -36.17 28.63, -36.32 25.17 C-36.47 21.7, -36.25 16.06, -36.25 11.84 C-36.25 7.61, -36.31 1.81, -36.32 -0.2 M0 0 C0.02 1.79, 0.1 7.64, 0.14 10.72 C0.17 13.8, 0.2 15.7, 0.21 18.48 C0.22 21.25, 0.37 24.97, 0.17 27.37 C-0.03 29.78, -0.11 31.08, -0.99 32.92 C-1.88 34.76, -3.5 36.98, -5.13 38.41 C-6.76 39.85, -8.56 40.91, -10.76 41.54 C-12.96 42.17, -15.74 42.22, -18.32 42.17 C-20.91 42.12, -23.95 41.96, -26.25 41.25 C-28.55 40.54, -30.58 39.33, -32.1 37.89 C-33.62 36.45, -34.66 34.74, -35.37 32.62 C-36.07 30.5, -36.17 28.63, -36.32 25.17 C-36.47 21.7, -36.25 16.06, -36.25 11.84 C-36.25 7.61, -36.31 1.81, -36.32 -0.2" stroke="#E1E1E1" stroke-width="2" fill="none"></path></g></g><mask></mask><g stroke-linecap="round"><g transform="translate(224.2127414636143 102.38563817388831) rotate(89.99999999999994 -13.687544324159603 6.479760074009164)"><path d="M0 0 C-0.82 0.22, -2.47 0.46, -4.95 1.34 C-7.42 2.21, -12.13 4, -14.87 5.26 C-17.61 6.51, -19.32 7.6, -21.4 8.88 C-23.48 10.16, -26.38 12.28, -27.38 12.96 M0 0 C-0.82 0.22, -2.47 0.46, -4.95 1.34 C-7.42 2.21, -12.13 4, -14.87 5.26 C-17.61 6.51, -19.32 7.6, -21.4 8.88 C-23.48 10.16, -26.38 12.28, -27.38 12.96" stroke="#E1E1E1" stroke-width="2" fill="none"></path></g></g><mask></mask><g stroke-linecap="round"><g transform="translate(212.8737475019493 94.74071971259582) rotate(89.99999999999994 -4.64621468475309 -4.337214665621673)"><path d="M0 0 C-1.55 -1.45, -7.74 -7.23, -9.29 -8.67 M0 0 C-1.55 -1.45, -7.74 -7.23, -9.29 -8.67" stroke="#E1E1E1" stroke-width="2" fill="none"></path></g></g><mask></mask><g stroke-linecap="round"><g transform="translate(203.4586960183001 112.29695949564757) rotate(89.99999999999994 17.554842615847065 -8.601113260115198)"><path d="M0 0 C0.99 -0.8, 3 -2.94, 5.92 -4.78 C8.83 -6.63, 13.82 -9.33, 17.5 -11.06 C21.19 -12.79, 25.08 -14.13, 28.02 -15.15 C30.95 -16.17, 33.93 -16.86, 35.11 -17.2 M0 0 C0.99 -0.8, 3 -2.94, 5.92 -4.78 C8.83 -6.63, 13.82 -9.33, 17.5 -11.06 C21.19 -12.79, 25.08 -14.13, 28.02 -15.15 C30.95 -16.17, 33.93 -16.86, 35.11 -17.2" stroke="#E1E1E1" stroke-width="2" fill="none"></path></g></g><mask></mask></svg>