<svg version="1.1" xmlns="http://www.w3.org/2000/svg" viewBox="0 0 457.02171603861734 441.3220732598838" width="457.02171603861734" height="441.3220732598838" class="excalidraw-svg">
  <!-- svg-source:excalidraw -->
  
  <defs>
    <style class="style-fonts">
      @font-face {
        font-family: "Virgil";
        src: url("https://excalidraw.com/Virgil.woff2");
      }
      @font-face {
        font-family: "Cascadia";
        src: url("https://excalidraw.com/Cascadia.woff2");
      }
      @font-face {
        font-family: "Assistant";
        src: url("https://excalidraw.com/Assistant-Regular.woff2");
      }
    </style>
    
  </defs>
  <rect x="0" y="0" width="457.02171603861734" height="441.3220732598838" fill="#000000"/><g stroke-linecap="round"><g transform="translate(10.464829821090404 294.86028330834733) rotate(0 218.25027045103695 32.90338661459877)"><path d="M0 0 C0.08 5.5, 0.38 21.4, 0.47 33.01 C0.56 44.62, -1.71 62.74, 0.53 69.65 C2.77 76.56, 6.13 73.1, 13.92 74.46 C21.71 75.81, 36 75.58, 47.29 77.77 C58.57 79.96, 69.85 83.77, 81.64 87.61 C93.43 91.46, 105.41 95.49, 118 100.84 C130.6 106.19, 145.23 114.26, 157.2 119.7 C169.17 125.14, 179.52 130.67, 189.83 133.47 C200.14 136.26, 210.2 136.49, 219.08 136.46 C227.95 136.42, 233.23 135.97, 243.09 133.26 C252.96 130.55, 266.43 124.8, 278.27 120.22 C290.1 115.64, 303.57 109.57, 314.1 105.8 C324.63 102.03, 332.8 102.13, 341.44 97.61 C350.08 93.09, 358.68 86.43, 365.93 78.69 C373.19 70.95, 377.25 66.47, 384.97 51.17 C392.7 35.86, 403.7 7.16, 412.29 -13.14 C420.88 -33.45, 435.51 -61.14, 436.5 -70.65 C437.49 -80.16, 425.11 -72.7, 418.25 -70.2 C411.39 -67.71, 402.39 -62.23, 395.36 -55.67 C388.32 -49.11, 384.1 -40.37, 376.02 -30.86 C367.95 -21.35, 355.57 -7.74, 346.93 1.38 C338.29 10.5, 328.82 17.82, 324.18 23.84 C319.55 29.85, 319.95 33.64, 319.11 37.46 C318.28 41.27, 320.14 44.11, 319.16 46.74 C318.18 49.36, 316.55 50.8, 313.23 53.22 C309.91 55.64, 306.7 59.94, 299.22 61.28 C291.74 62.62, 284.81 60.9, 268.35 61.25 C251.9 61.59, 218.24 62.02, 200.49 63.35 C182.75 64.67, 168.32 68.24, 161.89 69.22 M0 0 C0.08 5.5, 0.38 21.4, 0.47 33.01 C0.56 44.62, -1.71 62.74, 0.53 69.65 C2.77 76.56, 6.13 73.1, 13.92 74.46 C21.71 75.81, 36 75.58, 47.29 77.77 C58.57 79.96, 69.85 83.77, 81.64 87.61 C93.43 91.46, 105.41 95.49, 118 100.84 C130.6 106.19, 145.23 114.26, 157.2 119.7 C169.17 125.14, 179.52 130.67, 189.83 133.47 C200.14 136.26, 210.2 136.49, 219.08 136.46 C227.95 136.42, 233.23 135.97, 243.09 133.26 C252.96 130.55, 266.43 124.8, 278.27 120.22 C290.1 115.64, 303.57 109.57, 314.1 105.8 C324.63 102.03, 332.8 102.13, 341.44 97.61 C350.08 93.09, 358.68 86.43, 365.93 78.69 C373.19 70.95, 377.25 66.47, 384.97 51.17 C392.7 35.86, 403.7 7.16, 412.29 -13.14 C420.88 -33.45, 435.51 -61.14, 436.5 -70.65 C437.49 -80.16, 425.11 -72.7, 418.25 -70.2 C411.39 -67.71, 402.39 -62.23, 395.36 -55.67 C388.32 -49.11, 384.1 -40.37, 376.02 -30.86 C367.95 -21.35, 355.57 -7.74, 346.93 1.38 C338.29 10.5, 328.82 17.82, 324.18 23.84 C319.55 29.85, 319.95 33.64, 319.11 37.46 C318.28 41.27, 320.14 44.11, 319.16 46.74 C318.18 49.36, 316.55 50.8, 313.23 53.22 C309.91 55.64, 306.7 59.94, 299.22 61.28 C291.74 62.62, 284.81 60.9, 268.35 61.25 C251.9 61.59, 218.24 62.02, 200.49 63.35 C182.75 64.67, 168.32 68.24, 161.89 69.22" stroke="#E1E1E1" stroke-width="4" fill="none"/></g></g><mask/><g stroke-linecap="round"><g transform="translate(328.99283265156095 329.536473276838) rotate(0 -159.23956917496645 -36.72752086144822)"><path d="M0 0 C-0.79 -2.62, -2.22 -11.62, -4.75 -15.75 C-7.29 -19.88, -10.01 -23.11, -15.22 -24.81 C-20.44 -26.51, -23.85 -25.84, -36.04 -25.96 C-48.24 -26.07, -74.03 -24.81, -88.38 -25.52 C-102.73 -26.22, -108.28 -25.42, -122.14 -30.18 C-136 -34.93, -156.36 -47.35, -171.52 -54.06 C-186.69 -60.77, -200.52 -67.2, -213.13 -70.44 C-225.73 -73.67, -236.18 -74.32, -247.13 -73.46 C-258.08 -72.59, -266.93 -71.82, -278.82 -65.24 C-290.71 -58.65, -311.87 -39.17, -318.48 -33.96 M0 0 C-0.79 -2.62, -2.22 -11.62, -4.75 -15.75 C-7.29 -19.88, -10.01 -23.11, -15.22 -24.81 C-20.44 -26.51, -23.85 -25.84, -36.04 -25.96 C-48.24 -26.07, -74.03 -24.81, -88.38 -25.52 C-102.73 -26.22, -108.28 -25.42, -122.14 -30.18 C-136 -34.93, -156.36 -47.35, -171.52 -54.06 C-186.69 -60.77, -200.52 -67.2, -213.13 -70.44 C-225.73 -73.67, -236.18 -74.32, -247.13 -73.46 C-258.08 -72.59, -266.93 -71.82, -278.82 -65.24 C-290.71 -58.65, -311.87 -39.17, -318.48 -33.96" stroke="#E1E1E1" stroke-width="4" fill="none"/></g></g><mask/><g stroke-linecap="round"><g transform="translate(239.144734998008 303.05192482562006) rotate(0 53.058030257015396 -95.07855165026446)"><path d="M0 0 C0.61 -9.05, 0.02 -38.02, 3.67 -54.3 C7.31 -70.58, 15.31 -84.94, 21.88 -97.67 C28.45 -110.39, 35.81 -121.57, 43.09 -130.65 C50.37 -139.73, 64.63 -151.14, 65.56 -152.15 C66.49 -153.16, 54.24 -142.78, 48.68 -136.72 C43.12 -130.66, 36.3 -121.74, 32.21 -115.79 C28.12 -109.84, 26.24 -101.98, 24.13 -101.04 C22.01 -100.11, 21.03 -105.98, 19.51 -110.17 C17.99 -114.36, 15 -118.66, 14.99 -126.2 C14.99 -133.73, 15.77 -146.94, 19.49 -155.39 C23.21 -163.85, 29.15 -171.58, 37.29 -176.95 C45.43 -182.33, 58.76 -185.43, 68.33 -187.63 C77.91 -189.83, 88.43 -189.74, 94.73 -190.16 C101.03 -190.58, 104.3 -192.38, 106.12 -190.16 C107.93 -187.93, 106.29 -184.26, 105.61 -176.82 C104.94 -169.37, 103.95 -154.82, 102.05 -145.48 C100.15 -136.13, 98.06 -127.88, 94.2 -120.74 C90.34 -113.61, 84.9 -106.94, 78.9 -102.67 C72.9 -98.4, 67.09 -95.52, 58.22 -95.12 C49.34 -94.73, 31.06 -99.45, 25.63 -100.31 M0 0 C0.61 -9.05, 0.02 -38.02, 3.67 -54.3 C7.31 -70.58, 15.31 -84.94, 21.88 -97.67 C28.45 -110.39, 35.81 -121.57, 43.09 -130.65 C50.37 -139.73, 64.63 -151.14, 65.56 -152.15 C66.49 -153.16, 54.24 -142.78, 48.68 -136.72 C43.12 -130.66, 36.3 -121.74, 32.21 -115.79 C28.12 -109.84, 26.24 -101.98, 24.13 -101.04 C22.01 -100.11, 21.03 -105.98, 19.51 -110.17 C17.99 -114.36, 15 -118.66, 14.99 -126.2 C14.99 -133.73, 15.77 -146.94, 19.49 -155.39 C23.21 -163.85, 29.15 -171.58, 37.29 -176.95 C45.43 -182.33, 58.76 -185.43, 68.33 -187.63 C77.91 -189.83, 88.43 -189.74, 94.73 -190.16 C101.03 -190.58, 104.3 -192.38, 106.12 -190.16 C107.93 -187.93, 106.29 -184.26, 105.61 -176.82 C104.94 -169.37, 103.95 -154.82, 102.05 -145.48 C100.15 -136.13, 98.06 -127.88, 94.2 -120.74 C90.34 -113.61, 84.9 -106.94, 78.9 -102.67 C72.9 -98.4, 67.09 -95.52, 58.22 -95.12 C49.34 -94.73, 31.06 -99.45, 25.63 -100.31" stroke="#E1E1E1" stroke-width="4" fill="none"/></g></g><mask/><g stroke-linecap="round"><g transform="translate(242.09614962246172 251.15002817811683) rotate(0 -62.940382800880485 -118.86382619660236)"><path d="M0 0 C-0.24 -6.81, -0.07 -27.32, -1.45 -40.84 C-2.83 -54.36, -5.43 -68.37, -8.25 -81.12 C-11.07 -93.87, -14.14 -106.36, -18.37 -117.35 C-22.59 -128.33, -27.64 -138.11, -33.59 -147.04 C-39.54 -155.98, -45.91 -163.89, -54.08 -170.96 C-62.24 -178.04, -81.46 -188.55, -82.57 -189.47 C-83.67 -190.4, -68.56 -182.71, -60.69 -176.5 C-52.82 -170.29, -38.72 -158.06, -35.34 -152.22 C-31.96 -146.37, -34.54 -143.69, -40.4 -141.44 C-46.26 -139.19, -60.23 -136.63, -70.52 -138.73 C-80.8 -140.84, -93.29 -144.9, -102.12 -154.07 C-110.95 -163.24, -119.53 -179.8, -123.49 -193.74 C-127.45 -207.68, -132.79 -230.61, -125.88 -237.73 C-118.97 -244.85, -95.95 -239.06, -82.01 -236.45 C-68.06 -233.85, -52.08 -227.43, -42.23 -222.08 C-32.39 -216.74, -27.03 -212.63, -22.94 -204.39 C-18.85 -196.16, -16.3 -182.39, -17.68 -172.69 C-19.06 -162.98, -28.96 -150.58, -31.22 -146.16 M0 0 C-0.24 -6.81, -0.07 -27.32, -1.45 -40.84 C-2.83 -54.36, -5.43 -68.37, -8.25 -81.12 C-11.07 -93.87, -14.14 -106.36, -18.37 -117.35 C-22.59 -128.33, -27.64 -138.11, -33.59 -147.04 C-39.54 -155.98, -45.91 -163.89, -54.08 -170.96 C-62.24 -178.04, -81.46 -188.55, -82.57 -189.47 C-83.67 -190.4, -68.56 -182.71, -60.69 -176.5 C-52.82 -170.29, -38.72 -158.06, -35.34 -152.22 C-31.96 -146.37, -34.54 -143.69, -40.4 -141.44 C-46.26 -139.19, -60.23 -136.63, -70.52 -138.73 C-80.8 -140.84, -93.29 -144.9, -102.12 -154.07 C-110.95 -163.24, -119.53 -179.8, -123.49 -193.74 C-127.45 -207.68, -132.79 -230.61, -125.88 -237.73 C-118.97 -244.85, -95.95 -239.06, -82.01 -236.45 C-68.06 -233.85, -52.08 -227.43, -42.23 -222.08 C-32.39 -216.74, -27.03 -212.63, -22.94 -204.39 C-18.85 -196.16, -16.3 -182.39, -17.68 -172.69 C-19.06 -162.98, -28.96 -150.58, -31.22 -146.16" stroke="#E1E1E1" stroke-width="4" fill="none"/></g></g><mask/></svg>