<svg version="1.1" xmlns="http://www.w3.org/2000/svg" viewBox="0 0 466.75916999752246 212.09286135046665" width="466.75916999752246" height="212.09286135046665" class="excalidraw-svg"><!-- svg-source:excalidraw --><metadata></metadata><defs><style class="style-fonts">
      </style></defs><rect x="0" y="0" width="466.75916999752246" height="212.09286135046665" fill="#000000"></rect><g stroke-linecap="round"><g transform="translate(20.94159440922143 70.22564605467839) rotate(349.1031688164304 49.13165590569906 62.56563697045931)"><path d="M0 0 C8.04 0.12, 32.69 0.72, 48.23 0.7 C63.77 0.68, 84.8 -6.34, 93.23 -0.1 C101.66 6.14, 97.9 21.99, 98.82 38.14 C99.74 54.29, 102.47 85.88, 98.76 96.77 C95.04 107.67, 82.69 102.34, 76.53 103.5 C70.37 104.66, 64.26 100.6, 61.8 103.75 C59.35 106.89, 65.14 118.81, 61.8 122.4 C58.46 125.98, 50.71 124.78, 41.76 125.24 C32.82 125.69, 15.17 127.43, 8.12 125.13 C1.07 122.84, 0.92 123.86, -0.53 111.46 C-1.97 99.06, -0.64 69.31, -0.56 50.73 C-0.47 32.15, -0.09 8.45, 0 0 M0 0 C8.04 0.12, 32.69 0.72, 48.23 0.7 C63.77 0.68, 84.8 -6.34, 93.23 -0.1 C101.66 6.14, 97.9 21.99, 98.82 38.14 C99.74 54.29, 102.47 85.88, 98.76 96.77 C95.04 107.67, 82.69 102.34, 76.53 103.5 C70.37 104.66, 64.26 100.6, 61.8 103.75 C59.35 106.89, 65.14 118.81, 61.8 122.4 C58.46 125.98, 50.71 124.78, 41.76 125.24 C32.82 125.69, 15.17 127.43, 8.12 125.13 C1.07 122.84, 0.92 123.86, -0.53 111.46 C-1.97 99.06, -0.64 69.31, -0.56 50.73 C-0.47 32.15, -0.09 8.45, 0 0" stroke="#E1E1E1" stroke-width="4" fill="none"></path></g></g><mask></mask><g stroke-linecap="round"><g transform="translate(105.27695735125585 42.95799469539331) rotate(349.1031688164304 110.35713812580572 16.940697705806997)"><path d="M0 0 C2.97 -3.88, 10.54 -16.63, 17.79 -23.27 C25.04 -29.9, 34.25 -36.84, 43.5 -39.79 C52.74 -42.75, 63.8 -42.72, 73.25 -41.01 C82.7 -39.31, 92.34 -34.94, 100.17 -29.55 C108 -24.16, 111.15 -13.98, 120.23 -8.67 C129.31 -3.36, 142.83 -1.25, 154.67 2.31 C166.51 5.88, 181.7 9.33, 191.29 12.71 C200.88 16.09, 207.3 18.14, 212.21 22.6 C217.11 27.07, 219.64 33.39, 220.71 39.51 C221.78 45.63, 221.09 53.94, 218.63 59.3 C216.16 64.66, 211.1 69.06, 205.91 71.65 C200.72 74.25, 195.15 75.68, 187.47 74.9 C179.78 74.11, 169.94 70.19, 159.81 66.95 C149.68 63.7, 138.69 59.36, 126.67 55.42 C114.65 51.48, 94.17 45.32, 87.67 43.3 M0 0 C2.97 -3.88, 10.54 -16.63, 17.79 -23.27 C25.04 -29.9, 34.25 -36.84, 43.5 -39.79 C52.74 -42.75, 63.8 -42.72, 73.25 -41.01 C82.7 -39.31, 92.34 -34.94, 100.17 -29.55 C108 -24.16, 111.15 -13.98, 120.23 -8.67 C129.31 -3.36, 142.83 -1.25, 154.67 2.31 C166.51 5.88, 181.7 9.33, 191.29 12.71 C200.88 16.09, 207.3 18.14, 212.21 22.6 C217.11 27.07, 219.64 33.39, 220.71 39.51 C221.78 45.63, 221.09 53.94, 218.63 59.3 C216.16 64.66, 211.1 69.06, 205.91 71.65 C200.72 74.25, 195.15 75.68, 187.47 74.9 C179.78 74.11, 169.94 70.19, 159.81 66.95 C149.68 63.7, 138.69 59.36, 126.67 55.42 C114.65 51.48, 94.17 45.32, 87.67 43.3" stroke="#E1E1E1" stroke-width="4" fill="none"></path></g></g><mask></mask><g stroke-linecap="round"><g transform="translate(339.5042399515513 73.34958495974267) rotate(349.1031688164304 -45.772836303895474 35.35777111916832)"><path d="M0 0 C9.59 -2.77, 41.88 -12.28, 57.57 -16.62 C73.25 -20.97, 84.15 -25.85, 94.12 -26.08 C104.08 -26.32, 112.16 -23.57, 117.34 -18.03 C122.52 -12.48, 125.45 -0.29, 125.21 7.17 C124.98 14.63, 122.83 21.01, 115.95 26.74 C109.07 32.47, 100.58 35.29, 83.95 41.55 C67.33 47.8, 39.5 55.93, 16.19 64.28 C-7.11 72.63, -39.55 86.22, -55.86 91.64 C-72.17 97.06, -71.97 97.02, -81.65 96.8 C-91.32 96.58, -103.39 94.04, -113.91 90.31 C-124.43 86.58, -134.03 79.7, -144.75 74.39 C-155.47 69.09, -170.01 62.57, -178.22 58.45 C-186.43 54.34, -187.59 51.71, -194.01 49.69 C-200.43 47.67, -212.97 46.91, -216.76 46.36 M0 0 C9.59 -2.77, 41.88 -12.28, 57.57 -16.62 C73.25 -20.97, 84.15 -25.85, 94.12 -26.08 C104.08 -26.32, 112.16 -23.57, 117.34 -18.03 C122.52 -12.48, 125.45 -0.29, 125.21 7.17 C124.98 14.63, 122.83 21.01, 115.95 26.74 C109.07 32.47, 100.58 35.29, 83.95 41.55 C67.33 47.8, 39.5 55.93, 16.19 64.28 C-7.11 72.63, -39.55 86.22, -55.86 91.64 C-72.17 97.06, -71.97 97.02, -81.65 96.8 C-91.32 96.58, -103.39 94.04, -113.91 90.31 C-124.43 86.58, -134.03 79.7, -144.75 74.39 C-155.47 69.09, -170.01 62.57, -178.22 58.45 C-186.43 54.34, -187.59 51.71, -194.01 49.69 C-200.43 47.67, -212.97 46.91, -216.76 46.36" stroke="#E1E1E1" stroke-width="4" fill="none"></path></g></g><mask></mask><g stroke-linecap="round"><g transform="translate(80.55156050850914 69.66264459967049) rotate(349.1031688164304 0 51.581038450389315)"><path d="M0 0 C0 17.19, 0 85.97, 0 103.16 M0 0 C0 17.19, 0 85.97, 0 103.16" stroke="#E1E1E1" stroke-width="4" fill="none"></path></g></g><mask></mask><g stroke-linecap="round" transform="translate(159.79639088536518 78.07261530647581) rotate(349.1031688164304 6.952458186967419 6.952458186967419)"><path d="M13.9 6.95 C13.9 7.35, 13.87 7.76, 13.8 8.16 C13.73 8.56, 13.62 8.95, 13.49 9.33 C13.35 9.71, 13.17 10.08, 12.97 10.43 C12.77 10.78, 12.54 11.11, 12.28 11.42 C12.02 11.73, 11.73 12.02, 11.42 12.28 C11.11 12.54, 10.78 12.77, 10.43 12.97 C10.08 13.17, 9.71 13.35, 9.33 13.49 C8.95 13.62, 8.56 13.73, 8.16 13.8 C7.76 13.87, 7.35 13.9, 6.95 13.9 C6.55 13.9, 6.14 13.87, 5.75 13.8 C5.35 13.73, 4.95 13.62, 4.57 13.49 C4.2 13.35, 3.82 13.17, 3.48 12.97 C3.13 12.77, 2.79 12.54, 2.48 12.28 C2.18 12.02, 1.89 11.73, 1.63 11.42 C1.37 11.11, 1.13 10.78, 0.93 10.43 C0.73 10.08, 0.56 9.71, 0.42 9.33 C0.28 8.95, 0.18 8.56, 0.11 8.16 C0.04 7.76, 0 7.35, 0 6.95 C0 6.55, 0.04 6.14, 0.11 5.75 C0.18 5.35, 0.28 4.95, 0.42 4.57 C0.56 4.2, 0.73 3.82, 0.93 3.48 C1.13 3.13, 1.37 2.79, 1.63 2.48 C1.89 2.18, 2.18 1.89, 2.48 1.63 C2.79 1.37, 3.13 1.13, 3.48 0.93 C3.82 0.73, 4.2 0.56, 4.57 0.42 C4.95 0.28, 5.35 0.18, 5.75 0.11 C6.14 0.04, 6.55 0, 6.95 0 C7.35 0, 7.76 0.04, 8.16 0.11 C8.56 0.18, 8.95 0.28, 9.33 0.42 C9.71 0.56, 10.08 0.73, 10.43 0.93 C10.78 1.13, 11.11 1.37, 11.42 1.63 C11.73 1.89, 12.02 2.18, 12.28 2.48 C12.54 2.79, 12.77 3.13, 12.97 3.48 C13.17 3.82, 13.35 4.2, 13.49 4.57 C13.62 4.95, 13.73 5.35, 13.8 5.75 C13.87 6.14, 13.89 6.75, 13.9 6.95 C13.92 7.15, 13.92 6.75, 13.9 6.95" stroke="#E1E1E1" stroke-width="4" fill="none"></path></g></svg>