<svg version="1.1" xmlns="http://www.w3.org/2000/svg" viewBox="0 0 401.3155636825286 349.94240378774896" width="401.3155636825286" height="349.94240378774896" class="excalidraw-svg">
  <!-- svg-source:excalidraw -->
  
  <defs>
    <style class="style-fonts">
      
    </style>
    
  </defs>
  <rect x="0" y="0" width="401.3155636825286" height="349.94240378774896" fill="#000000"/><g stroke-linecap="round"><g transform="translate(86.00995877418518 23.949830596518453) rotate(0 4.597437073928859 16.959990690210645)"><path d="M0 0 C0.93 -0.05, 3.9 -0.21, 5.58 -0.31 C7.25 -0.4, 8.53 -0.61, 10.05 -0.57 C11.57 -0.54, 12.9 -0.14, 14.67 -0.1 C16.44 -0.07, 19.02 -0.39, 20.68 -0.35 C22.33 -0.32, 23.54 -0.09, 24.61 0.1 C25.68 0.29, 26.76 1.07, 27.1 0.79 C27.44 0.51, 26.18 -1.62, 26.65 -1.56 C27.12 -1.5, 29 0.46, 29.92 1.17 C30.84 1.88, 31.58 2.08, 32.17 2.69 C32.75 3.31, 33.07 4.26, 33.43 4.85 C33.79 5.44, 34.06 5.63, 34.34 6.23 C34.62 6.84, 35.08 7.77, 35.12 8.49 C35.16 9.21, 34.73 9.86, 34.57 10.54 C34.41 11.21, 34.64 12.29, 34.16 12.55 C33.68 12.8, 33.12 12.8, 31.68 12.05 C30.23 11.3, 27.08 9.18, 25.5 8.07 C23.91 6.96, 23.51 6.03, 22.16 5.39 C20.81 4.75, 19.22 4.4, 17.4 4.21 C15.58 4.02, 12.88 4.08, 11.25 4.25 C9.62 4.42, 8.68 4.84, 7.64 5.22 C6.6 5.6, 6.61 6.29, 5.01 6.52 C3.4 6.75, -0.08 6.44, -1.99 6.59 C-3.9 6.75, -5.27 6.81, -6.44 7.44 C-7.61 8.06, -8.55 9.48, -9.02 10.37 C-9.5 11.26, -10.18 12.63, -9.27 12.8 C-8.36 12.96, -5.73 11.61, -3.56 11.36 C-1.39 11.12, 1.49 10.95, 3.76 11.32 C6.02 11.69, 8.19 12.29, 10.01 13.58 C11.84 14.87, 13.74 16.73, 14.71 19.04 C15.68 21.35, 16.48 24.72, 15.82 27.46 C15.16 30.2, 12.42 34.25, 10.74 35.48 C9.05 36.71, 8.01 35.86, 5.73 34.86 C3.45 33.87, 0.47 30.49, -2.93 29.51 C-6.33 28.53, -11.49 28.98, -14.67 28.99 C-17.86 29.01, -20.25 29.07, -22.05 29.59 C-23.86 30.1, -24.88 31.25, -25.52 32.07 C-26.17 32.9, -26.65 34.4, -25.93 34.54 C-25.2 34.67, -22.75 33.29, -21.15 32.89 C-19.56 32.48, -18.49 32.22, -16.37 32.1 C-14.25 31.99, -11.11 32.17, -8.46 32.2 C-5.8 32.24, -1.44 32.74, -0.44 32.3 C0.57 31.86, -0.86 30.08, -2.42 29.56 C-3.97 29.04, -7.47 29.24, -9.79 29.18 C-12.12 29.11, -15.28 29.18, -16.38 29.18 M0 0 C0.93 -0.05, 3.9 -0.21, 5.58 -0.31 C7.25 -0.4, 8.53 -0.61, 10.05 -0.57 C11.57 -0.54, 12.9 -0.14, 14.67 -0.1 C16.44 -0.07, 19.02 -0.39, 20.68 -0.35 C22.33 -0.32, 23.54 -0.09, 24.61 0.1 C25.68 0.29, 26.76 1.07, 27.1 0.79 C27.44 0.51, 26.18 -1.62, 26.65 -1.56 C27.12 -1.5, 29 0.46, 29.92 1.17 C30.84 1.88, 31.58 2.08, 32.17 2.69 C32.75 3.31, 33.07 4.26, 33.43 4.85 C33.79 5.44, 34.06 5.63, 34.34 6.23 C34.62 6.84, 35.08 7.77, 35.12 8.49 C35.16 9.21, 34.73 9.86, 34.57 10.54 C34.41 11.21, 34.64 12.29, 34.16 12.55 C33.68 12.8, 33.12 12.8, 31.68 12.05 C30.23 11.3, 27.08 9.18, 25.5 8.07 C23.91 6.96, 23.51 6.03, 22.16 5.39 C20.81 4.75, 19.22 4.4, 17.4 4.21 C15.58 4.02, 12.88 4.08, 11.25 4.25 C9.62 4.42, 8.68 4.84, 7.64 5.22 C6.6 5.6, 6.61 6.29, 5.01 6.52 C3.4 6.75, -0.08 6.44, -1.99 6.59 C-3.9 6.75, -5.27 6.81, -6.44 7.44 C-7.61 8.06, -8.55 9.48, -9.02 10.37 C-9.5 11.26, -10.18 12.63, -9.27 12.8 C-8.36 12.96, -5.73 11.61, -3.56 11.36 C-1.39 11.12, 1.49 10.95, 3.76 11.32 C6.02 11.69, 8.19 12.29, 10.01 13.58 C11.84 14.87, 13.74 16.73, 14.71 19.04 C15.68 21.35, 16.48 24.72, 15.82 27.46 C15.16 30.2, 12.42 34.25, 10.74 35.48 C9.05 36.71, 8.01 35.86, 5.73 34.86 C3.45 33.87, 0.47 30.49, -2.93 29.51 C-6.33 28.53, -11.49 28.98, -14.67 28.99 C-17.86 29.01, -20.25 29.07, -22.05 29.59 C-23.86 30.1, -24.88 31.25, -25.52 32.07 C-26.17 32.9, -26.65 34.4, -25.93 34.54 C-25.2 34.67, -22.75 33.29, -21.15 32.89 C-19.56 32.48, -18.49 32.22, -16.37 32.1 C-14.25 31.99, -11.11 32.17, -8.46 32.2 C-5.8 32.24, -1.44 32.74, -0.44 32.3 C0.57 31.86, -0.86 30.08, -2.42 29.56 C-3.97 29.04, -7.47 29.24, -9.79 29.18 C-12.12 29.11, -15.28 29.18, -16.38 29.18" stroke="#E1E1E1" stroke-width="2" fill="none"/></g></g><mask/><g stroke-linecap="round"><g transform="translate(64.80479204929497 56.67916255221829) rotate(0 -1.4864915689188365 -1.2764092486861145)"><path d="M0 0 C-0.5 -0.08, -2.66 -0.05, -2.97 -0.47 C-3.28 -0.9, -2.04 -2.21, -1.85 -2.55 M0 0 C-0.5 -0.08, -2.66 -0.05, -2.97 -0.47 C-3.28 -0.9, -2.04 -2.21, -1.85 -2.55" stroke="#E1E1E1" stroke-width="2" fill="none"/></g></g><mask/><g stroke-linecap="round"><g transform="translate(84.20156635691956 56.57587160918682) rotate(0 116.1142842671386 119.04081734915583)"><path d="M0 0 C0.16 0.39, 0.34 1.81, 0.98 2.34 C1.62 2.88, 3.28 2.63, 3.84 3.21 C4.39 3.8, 4.93 5.23, 4.3 5.87 C3.66 6.5, 1.55 6.84, 0.01 7.01 C-1.53 7.18, -3.17 6.74, -4.96 6.89 C-6.75 7.04, -8.57 7.56, -10.71 7.91 C-12.86 8.26, -15.59 8.65, -17.84 8.99 C-20.1 9.33, -23.61 8.96, -24.27 9.94 C-24.93 10.92, -22.35 13.21, -21.78 14.86 C-21.21 16.5, -21.23 18.45, -20.86 19.82 C-20.49 21.19, -20.02 22.02, -19.56 23.08 C-19.09 24.13, -18.85 24.92, -18.05 26.14 C-17.25 27.36, -15.9 29.16, -14.76 30.37 C-13.63 31.59, -12.48 32.78, -11.26 33.44 C-10.04 34.1, -8.73 34.59, -7.45 34.34 C-6.17 34.08, -5.03 32.59, -3.56 31.92 C-2.1 31.26, -0.21 30.93, 1.33 30.36 C2.87 29.78, 4.08 28.9, 5.67 28.49 C7.26 28.08, 9.44 28.26, 10.89 27.9 C12.33 27.54, 13.5 26.92, 14.33 26.32 C15.16 25.72, 15 24.53, 15.86 24.31 C16.73 24.08, 18.65 24.43, 19.5 24.99 C20.34 25.55, 21.06 26.61, 20.95 27.67 C20.83 28.74, 20.01 30.44, 18.8 31.38 C17.59 32.32, 15.14 32.79, 13.7 33.31 C12.25 33.84, 10.96 33.97, 10.11 34.54 C9.25 35.11, 9.98 36.2, 8.54 36.72 C7.1 37.25, 2.81 37.26, 1.48 37.68 C0.15 38.11, 2.11 38.01, 0.56 39.25 C-0.99 40.5, -5.59 43.37, -7.83 45.17 C-10.07 46.98, -11.37 48.32, -12.89 50.1 C-14.41 51.89, -15.91 54.13, -16.95 55.88 C-17.99 57.62, -18.24 59.17, -19.13 60.55 C-20.02 61.93, -21.3 63.75, -22.3 64.14 C-23.3 64.53, -24.75 63.88, -25.15 62.88 C-25.55 61.87, -25.28 60.09, -24.68 58.09 C-24.09 56.1, -22.53 52.54, -21.58 50.88 C-20.62 49.22, -19.36 49.05, -18.94 48.13 C-18.53 47.22, -18.6 45.65, -19.09 45.38 C-19.58 45.11, -20.4 45.33, -21.86 46.51 C-23.33 47.7, -26.01 50.3, -27.9 52.5 C-29.8 54.69, -31.83 57.64, -33.23 59.69 C-34.64 61.74, -35.31 62.46, -36.33 64.8 C-37.35 67.14, -38.61 70.6, -39.37 73.74 C-40.14 76.88, -40.79 80.1, -40.91 83.64 C-41.03 87.19, -39.83 92.25, -40.09 94.99 C-40.35 97.73, -41.31 97.7, -42.47 100.08 C-43.63 102.46, -45.85 105.52, -47.05 109.28 C-48.25 113.03, -49.09 118.26, -49.67 122.6 C-50.24 126.95, -49.86 132, -50.5 135.32 C-51.15 138.63, -52.07 139.65, -53.53 142.48 C-54.99 145.31, -57.46 147.73, -59.27 152.27 C-61.07 156.81, -62.83 164.35, -64.36 169.71 C-65.88 175.08, -67.23 178.5, -68.41 184.44 C-69.59 190.38, -70.85 197.93, -71.45 205.33 C-72.06 212.74, -72.65 222.06, -72.05 228.87 C-71.45 235.67, -69.33 241.95, -67.86 246.14 C-66.39 250.33, -65.13 251.56, -63.23 253.99 C-61.33 256.41, -58.15 259.55, -56.44 260.68 C-54.74 261.81, -53.23 261.25, -53 260.76 C-52.77 260.28, -54.58 259.37, -55.07 257.75 C-55.57 256.13, -55.7 253.61, -55.98 251.05 C-56.26 248.48, -56.5 246.61, -56.77 242.38 C-57.04 238.15, -57.78 232.11, -57.59 225.66 C-57.4 219.22, -56.38 209.62, -55.63 203.7 C-54.88 197.79, -54.41 195.12, -53.08 190.17 C-51.75 185.23, -49.81 179.89, -47.63 174.03 C-45.45 168.17, -42.37 160.21, -39.99 155 C-37.61 149.79, -34.91 146.13, -33.35 142.78 C-31.79 139.42, -31.17 137.86, -30.62 134.86 C-30.06 131.85, -30.58 128.12, -30.04 124.76 C-29.5 121.4, -28.03 117.63, -27.37 114.7 C-26.71 111.78, -26.68 108.93, -26.09 107.21 C-25.5 105.5, -24.53 105.6, -23.85 104.41 C-23.16 103.22, -22.66 100.98, -21.99 100.09 C-21.31 99.21, -20.48 100.14, -19.81 99.11 C-19.13 98.08, -18.71 94.4, -17.96 93.93 C-17.2 93.46, -15.78 95.07, -15.27 96.3 C-14.76 97.52, -14.63 99.94, -14.87 101.28 C-15.11 102.62, -16.43 102.84, -16.71 104.36 C-16.99 105.87, -16.24 108.35, -16.55 110.37 C-16.85 112.39, -17.96 114.41, -18.55 116.49 C-19.14 118.58, -19.79 120.12, -20.07 122.87 C-20.36 125.61, -20.09 129.74, -20.24 132.98 C-20.4 136.22, -20.47 139.98, -21.01 142.29 C-21.56 144.61, -22.31 144.36, -23.51 146.88 C-24.72 149.4, -26.77 153.92, -28.23 157.41 C-29.68 160.9, -30.82 163.81, -32.22 167.83 C-33.63 171.84, -35.38 177.33, -36.64 181.5 C-37.89 185.67, -38.82 188.5, -39.75 192.86 C-40.68 197.22, -41.66 202.55, -42.23 207.66 C-42.8 212.77, -42.94 218.24, -43.17 223.5 C-43.4 228.76, -43.86 233.48, -43.63 239.23 C-43.41 244.97, -42.87 252.28, -41.82 257.95 C-40.78 263.63, -39.2 269.74, -37.38 273.26 C-35.56 276.77, -33.97 277.7, -30.9 279.04 C-27.84 280.38, -24.87 280.87, -18.99 281.3 C-13.11 281.74, -1.64 281.74, 4.37 281.66 C10.37 281.57, 13.99 281.76, 17.03 280.79 C20.07 279.81, 21.54 278.33, 22.61 275.82 C23.68 273.31, 23.75 268.58, 23.45 265.71 C23.15 262.83, 22.01 260.04, 20.8 258.57 C19.58 257.1, 18.22 257.26, 16.15 256.91 C14.09 256.56, 9.83 257.01, 8.41 256.49 C6.99 255.96, 6.83 254.5, 7.63 253.75 C8.43 253, 11.37 252.6, 13.22 251.98 C15.07 251.35, 16.95 250.77, 18.73 250 C20.51 249.23, 22.08 248.78, 23.88 247.34 C25.68 245.91, 29.54 242.14, 29.53 241.38 C29.52 240.62, 25.85 242.31, 23.83 242.79 C21.8 243.28, 19.87 244.05, 17.39 244.3 C14.92 244.56, 11.29 244.53, 8.95 244.33 C6.61 244.14, 4.28 243.82, 3.37 243.14 C2.45 242.46, 2.47 241.1, 3.47 240.25 C4.47 239.4, 6.13 239, 9.38 238.03 C12.62 237.06, 20.11 235.15, 22.93 234.43 C25.74 233.71, 25.27 233.95, 26.27 233.73 C27.28 233.51, 27.91 233.37, 28.96 233.13 C30.01 232.9, 31.58 232.73, 32.56 232.33 C33.53 231.94, 34.2 231.92, 34.8 230.75 C35.39 229.57, 35.6 226.6, 36.13 225.28 C36.66 223.97, 37.71 223.56, 37.97 222.87 C38.24 222.17, 38.64 220.98, 37.72 221.11 C36.8 221.25, 34.36 222.8, 32.46 223.67 C30.56 224.55, 28.21 225.65, 26.33 226.35 C24.45 227.05, 23.36 227.48, 21.17 227.86 C18.98 228.24, 15.98 228.45, 13.18 228.63 C10.38 228.8, 6.59 229.09, 4.37 228.9 C2.16 228.72, 0.86 228.16, -0.1 227.54 C-1.06 226.92, -1.47 225.91, -1.38 225.17 C-1.29 224.44, -0.66 223.6, 0.44 223.13 C1.55 222.66, 3.43 222.67, 5.23 222.36 C7.03 222.05, 9.51 221.69, 11.26 221.26 C13 220.83, 14.14 220.24, 15.7 219.79 C17.25 219.34, 18.01 219.31, 20.6 218.57 C23.19 217.82, 28.06 216.67, 31.26 215.33 C34.45 213.99, 37.98 211.76, 39.78 210.52 C41.58 209.27, 41.5 208.98, 42.05 207.86 C42.6 206.75, 43.68 204.21, 43.08 203.82 C42.48 203.44, 40.22 204.91, 38.45 205.57 C36.68 206.22, 35.04 206.86, 32.45 207.75 C29.86 208.63, 26.95 210.04, 22.91 210.88 C18.87 211.72, 11.72 212.73, 8.21 212.78 C4.69 212.84, 3.21 211.87, 1.83 211.22 C0.45 210.57, -0.16 209.57, -0.09 208.9 C-0.01 208.23, 1.1 207.63, 2.26 207.19 C3.43 206.75, 5.23 206.66, 6.92 206.27 C8.6 205.87, 10.82 205.29, 12.36 204.84 C13.9 204.39, 14.54 204.12, 16.14 203.56 C17.74 203, 20.18 202.06, 21.94 201.47 C23.7 200.88, 24.67 200.64, 26.7 200.01 C28.74 199.37, 31.88 198.73, 34.12 197.65 C36.35 196.57, 38.4 194.66, 40.11 193.55 C41.83 192.43, 43.69 191.96, 44.41 190.95 C45.12 189.95, 44.96 187.93, 44.39 187.53 C43.81 187.13, 43.03 187.75, 40.94 188.57 C38.84 189.38, 34.64 191.49, 31.8 192.43 C28.96 193.37, 26.86 193.52, 23.87 194.21 C20.89 194.91, 16.71 196.19, 13.89 196.62 C11.08 197.05, 8.75 196.82, 6.96 196.79 C5.17 196.76, 3.82 197.12, 3.16 196.45 C2.5 195.78, 2.33 193.68, 3.01 192.78 C3.69 191.88, 5.58 191.57, 7.25 191.05 C8.92 190.54, 11.17 190.17, 13.06 189.68 C14.95 189.2, 16.26 188.95, 18.59 188.15 C20.91 187.35, 24.05 186.16, 26.99 184.89 C29.92 183.63, 33.36 182.02, 36.21 180.57 C39.06 179.13, 42.43 177.46, 44.11 176.24 C45.8 175.02, 45.98 174.62, 46.31 173.26 C46.65 171.91, 47.24 168.48, 46.12 168.11 C45 167.74, 42.62 169.79, 39.59 171.06 C36.57 172.33, 31.4 174.43, 27.95 175.72 C24.51 177.01, 21.77 178.07, 18.93 178.78 C16.09 179.48, 12.73 179.97, 10.92 179.95 C9.11 179.92, 8.36 179.4, 8.07 178.63 C7.77 177.85, 8.54 176.02, 9.17 175.29 C9.8 174.56, 10.67 174.64, 11.82 174.25 C12.97 173.85, 14.78 173.38, 16.09 172.95 C17.39 172.51, 18.47 172.01, 19.67 171.65 C20.86 171.29, 22.08 171.17, 23.26 170.79 C24.45 170.41, 25.51 169.91, 26.79 169.37 C28.06 168.82, 29.51 168.18, 30.92 167.5 C32.32 166.82, 33.54 166.38, 35.2 165.3 C36.86 164.21, 38.25 163.47, 40.86 160.98 C43.47 158.49, 48.22 154.02, 50.86 150.35 C53.5 146.68, 55.31 142.24, 56.71 138.98 C58.1 135.72, 58.6 133.13, 59.23 130.79 C59.87 128.46, 60.09 126.47, 60.52 124.97 C60.94 123.48, 60.48 123.38, 61.78 121.82 C63.09 120.25, 65.9 118.09, 68.34 115.57 C70.78 113.06, 74.27 109.83, 76.41 106.71 C78.55 103.59, 80.04 99.96, 81.18 96.83 C82.31 93.69, 82.6 91.33, 83.23 87.9 C83.85 84.47, 84.47 79.23, 84.93 76.24 C85.4 73.25, 85.45 70.81, 86.02 69.96 C86.58 69.11, 87.72 69.73, 88.31 71.14 C88.9 72.56, 89.19 75.48, 89.56 78.45 C89.93 81.42, 90.55 85.09, 90.52 88.97 C90.49 92.86, 90.41 97.86, 89.4 101.76 C88.39 105.66, 86.89 108.4, 84.46 112.39 C82.03 116.39, 77.13 122.96, 74.84 125.71 C72.56 128.45, 71.48 127.57, 70.75 128.86 C70.02 130.16, 70.94 131.56, 70.46 133.47 C69.98 135.38, 69.19 137.65, 67.86 140.35 C66.53 143.04, 64.15 146.78, 62.47 149.62 C60.79 152.46, 58.92 155.68, 57.78 157.36 C56.64 159.05, 55.13 158.99, 55.65 159.73 C56.16 160.46, 58.72 160.68, 60.87 161.79 C63.02 162.91, 66.04 164.64, 68.56 166.41 C71.08 168.19, 73.64 170.4, 76 172.45 C78.36 174.5, 79.58 176.45, 82.72 178.74 C85.86 181.04, 90.43 184.14, 94.85 186.23 C99.28 188.32, 104.58 189.98, 109.29 191.28 C114 192.58, 117.11 193.76, 123.1 194.02 C129.09 194.29, 138.45 193.81, 145.25 192.89 C152.05 191.98, 159.13 189.8, 163.89 188.53 C168.66 187.25, 170.8 186.22, 173.84 185.22 C176.87 184.21, 179.56 182.75, 182.12 182.5 C184.68 182.25, 187.01 182.69, 189.18 183.74 C191.35 184.78, 193.08 186.62, 195.15 188.75 C197.21 190.88, 198.8 193.51, 201.58 196.52 C204.37 199.52, 208.44 203.53, 211.87 206.79 C215.3 210.05, 217.82 212.98, 222.15 216.07 C226.48 219.16, 232.22 222.61, 237.85 225.34 C243.49 228.07, 250.37 230.7, 255.94 232.45 C261.52 234.2, 268.32 234.91, 271.31 235.85 C274.3 236.78, 273.51 237.38, 273.87 238.05 C274.22 238.73, 274.57 239.54, 273.42 239.9 C272.28 240.26, 269.82 240.31, 266.98 240.23 C264.14 240.16, 259.32 239.84, 256.38 239.45 C253.45 239.05, 251.66 238.44, 249.38 237.88 C247.1 237.32, 244.96 236.79, 242.69 236.11 C240.42 235.43, 238.27 234.73, 235.75 233.81 C233.24 232.9, 229.6 231.41, 227.6 230.61 C225.6 229.82, 224.32 228.81, 223.74 229.04 C223.16 229.27, 223.71 230.7, 224.12 232 C224.53 233.29, 225.93 235.14, 226.21 236.82 C226.49 238.49, 226.4 240.35, 225.8 242.06 C225.19 243.77, 224.25 245.58, 222.58 247.08 C220.91 248.57, 217.86 250.01, 215.77 251.03 C213.69 252.04, 211.44 252.2, 210.1 253.16 C208.75 254.11, 208.18 255.29, 207.7 256.76 C207.22 258.22, 207.09 260.76, 207.21 261.94 C207.32 263.13, 207.5 263.42, 208.4 263.88 C209.31 264.35, 210.55 264.6, 212.63 264.74 C214.7 264.88, 217.87 264.73, 220.85 264.74 C223.83 264.76, 228.25 265.28, 230.5 264.82 C232.75 264.37, 232.91 262.78, 234.34 262.02 C235.78 261.25, 237.56 260.39, 239.11 260.22 C240.66 260.05, 243.12 260.39, 243.66 261 C244.19 261.62, 243.09 262.94, 242.31 263.91 C241.54 264.88, 240.08 265.67, 239.01 266.82 C237.94 267.97, 236.27 269.15, 235.91 270.81 C235.56 272.48, 235.85 275.38, 236.9 276.82 C237.96 278.26, 240.1 278.79, 242.24 279.46 C244.37 280.14, 245.71 280.65, 249.7 280.88 C253.7 281.11, 260.08 280.85, 266.2 280.85 C272.32 280.84, 282.03 281.15, 286.41 280.86 C290.8 280.57, 290.78 280.1, 292.5 279.12 C294.22 278.14, 295.36 276.84, 296.74 274.99 C298.11 273.14, 299.76 270.08, 300.74 268.04 C301.72 265.99, 302.12 264.33, 302.59 262.72 C303.06 261.11, 303.33 259.96, 303.59 258.37 C303.85 256.79, 304.04 255.84, 304.16 253.22 C304.27 250.61, 304.43 245.79, 304.28 242.68 C304.12 239.57, 303.77 237.15, 303.21 234.55 C302.66 231.96, 302 230.27, 300.97 227.13 C299.95 224, 298.81 219.59, 297.05 215.72 C295.29 211.86, 292.69 207.67, 290.41 203.94 C288.13 200.21, 286.35 197.04, 283.38 193.34 C280.41 189.64, 275.09 184.33, 272.58 181.73 C270.08 179.14, 269.22 179.88, 268.36 177.76 C267.5 175.65, 267.82 171.68, 267.42 169.04 C267.02 166.41, 266.95 165.64, 265.97 161.97 C264.99 158.29, 263.15 151.74, 261.55 147.01 C259.94 142.28, 258.38 137.93, 256.33 133.59 C254.29 129.25, 252.68 125.53, 249.28 120.98 C245.88 116.42, 240.43 110.43, 235.94 106.27 C231.46 102.1, 227.87 99.11, 222.36 96.01 C216.86 92.91, 209.2 89.55, 202.92 87.68 C196.63 85.8, 191.37 85.29, 184.66 84.78 C177.96 84.28, 167.49 84.15, 162.69 84.65 C157.88 85.16, 159.33 87.07, 155.82 87.82 C152.3 88.57, 145.67 89.16, 141.58 89.16 C137.49 89.17, 134.77 88.95, 131.27 87.84 C127.78 86.74, 123.72 84.94, 120.62 82.51 C117.53 80.07, 115.46 76.83, 112.7 73.22 C109.95 69.61, 106.96 65.22, 104.12 60.83 C101.28 56.43, 98.25 50.26, 95.67 46.84 C93.08 43.41, 90.17 41.57, 88.61 40.25 C87.05 38.94, 86.65 39.88, 86.32 38.95 C85.99 38.02, 86.3 37.42, 86.63 34.68 C86.97 31.95, 87.85 26.06, 88.33 22.55 C88.8 19.04, 89.14 17.05, 89.46 13.62 C89.79 10.2, 90.19 6.69, 90.28 2 C90.36 -2.7, 90.14 -10.23, 89.97 -14.55 C89.79 -18.88, 89.94 -21.43, 89.23 -23.95 C88.51 -26.46, 87.49 -27.89, 85.69 -29.63 C83.88 -31.37, 80.91 -33.05, 78.39 -34.4 C75.88 -35.76, 73.98 -36.8, 70.6 -37.75 C67.22 -38.71, 61.77 -39.62, 58.14 -40.13 C54.51 -40.64, 50.77 -40.92, 48.82 -40.8 C46.87 -40.68, 47.15 -39.78, 46.43 -39.4 C45.72 -39.01, 45.21 -38.35, 44.53 -38.48 C43.85 -38.6, 43.18 -39.6, 42.37 -40.16 C41.55 -40.73, 40.53 -41.33, 39.62 -41.87 C38.72 -42.42, 37.99 -43.14, 36.93 -43.42 C35.87 -43.7, 34.34 -43.76, 33.26 -43.57 C32.18 -43.39, 31.44 -42.69, 30.45 -42.33 C29.46 -41.96, 28.71 -41.33, 27.33 -41.38 C25.94 -41.43, 23.72 -42.48, 22.14 -42.62 C20.56 -42.76, 19.54 -42.53, 17.86 -42.24 C16.18 -41.95, 13.45 -41.39, 12.06 -40.86 C10.67 -40.34, 10.37 -39.79, 9.53 -39.09 C8.69 -38.38, 8.38 -37.43, 7.01 -36.65 C5.65 -35.87, 1.41 -34.75, 1.33 -34.4 C1.25 -34.05, 4.87 -34.53, 6.53 -34.56 C8.18 -34.58, 9.73 -34.17, 11.25 -34.56 C12.78 -34.95, 14.05 -36.47, 15.67 -36.89 C17.29 -37.3, 19.28 -37.19, 20.97 -37.05 C22.66 -36.91, 24.58 -36.5, 25.82 -36.04 C27.05 -35.58, 27.93 -34.59, 28.36 -34.3 M0 0 C0.16 0.39, 0.34 1.81, 0.98 2.34 C1.62 2.88, 3.28 2.63, 3.84 3.21 C4.39 3.8, 4.93 5.23, 4.3 5.87 C3.66 6.5, 1.55 6.84, 0.01 7.01 C-1.53 7.18, -3.17 6.74, -4.96 6.89 C-6.75 7.04, -8.57 7.56, -10.71 7.91 C-12.86 8.26, -15.59 8.65, -17.84 8.99 C-20.1 9.33, -23.61 8.96, -24.27 9.94 C-24.93 10.92, -22.35 13.21, -21.78 14.86 C-21.21 16.5, -21.23 18.45, -20.86 19.82 C-20.49 21.19, -20.02 22.02, -19.56 23.08 C-19.09 24.13, -18.85 24.92, -18.05 26.14 C-17.25 27.36, -15.9 29.16, -14.76 30.37 C-13.63 31.59, -12.48 32.78, -11.26 33.44 C-10.04 34.1, -8.73 34.59, -7.45 34.34 C-6.17 34.08, -5.03 32.59, -3.56 31.92 C-2.1 31.26, -0.21 30.93, 1.33 30.36 C2.87 29.78, 4.08 28.9, 5.67 28.49 C7.26 28.08, 9.44 28.26, 10.89 27.9 C12.33 27.54, 13.5 26.92, 14.33 26.32 C15.16 25.72, 15 24.53, 15.86 24.31 C16.73 24.08, 18.65 24.43, 19.5 24.99 C20.34 25.55, 21.06 26.61, 20.95 27.67 C20.83 28.74, 20.01 30.44, 18.8 31.38 C17.59 32.32, 15.14 32.79, 13.7 33.31 C12.25 33.84, 10.96 33.97, 10.11 34.54 C9.25 35.11, 9.98 36.2, 8.54 36.72 C7.1 37.25, 2.81 37.26, 1.48 37.68 C0.15 38.11, 2.11 38.01, 0.56 39.25 C-0.99 40.5, -5.59 43.37, -7.83 45.17 C-10.07 46.98, -11.37 48.32, -12.89 50.1 C-14.41 51.89, -15.91 54.13, -16.95 55.88 C-17.99 57.62, -18.24 59.17, -19.13 60.55 C-20.02 61.93, -21.3 63.75, -22.3 64.14 C-23.3 64.53, -24.75 63.88, -25.15 62.88 C-25.55 61.87, -25.28 60.09, -24.68 58.09 C-24.09 56.1, -22.53 52.54, -21.58 50.88 C-20.62 49.22, -19.36 49.05, -18.94 48.13 C-18.53 47.22, -18.6 45.65, -19.09 45.38 C-19.58 45.11, -20.4 45.33, -21.86 46.51 C-23.33 47.7, -26.01 50.3, -27.9 52.5 C-29.8 54.69, -31.83 57.64, -33.23 59.69 C-34.64 61.74, -35.31 62.46, -36.33 64.8 C-37.35 67.14, -38.61 70.6, -39.37 73.74 C-40.14 76.88, -40.79 80.1, -40.91 83.64 C-41.03 87.19, -39.83 92.25, -40.09 94.99 C-40.35 97.73, -41.31 97.7, -42.47 100.08 C-43.63 102.46, -45.85 105.52, -47.05 109.28 C-48.25 113.03, -49.09 118.26, -49.67 122.6 C-50.24 126.95, -49.86 132, -50.5 135.32 C-51.15 138.63, -52.07 139.65, -53.53 142.48 C-54.99 145.31, -57.46 147.73, -59.27 152.27 C-61.07 156.81, -62.83 164.35, -64.36 169.71 C-65.88 175.08, -67.23 178.5, -68.41 184.44 C-69.59 190.38, -70.85 197.93, -71.45 205.33 C-72.06 212.74, -72.65 222.06, -72.05 228.87 C-71.45 235.67, -69.33 241.95, -67.86 246.14 C-66.39 250.33, -65.13 251.56, -63.23 253.99 C-61.33 256.41, -58.15 259.55, -56.44 260.68 C-54.74 261.81, -53.23 261.25, -53 260.76 C-52.77 260.28, -54.58 259.37, -55.07 257.75 C-55.57 256.13, -55.7 253.61, -55.98 251.05 C-56.26 248.48, -56.5 246.61, -56.77 242.38 C-57.04 238.15, -57.78 232.11, -57.59 225.66 C-57.4 219.22, -56.38 209.62, -55.63 203.7 C-54.88 197.79, -54.41 195.12, -53.08 190.17 C-51.75 185.23, -49.81 179.89, -47.63 174.03 C-45.45 168.17, -42.37 160.21, -39.99 155 C-37.61 149.79, -34.91 146.13, -33.35 142.78 C-31.79 139.42, -31.17 137.86, -30.62 134.86 C-30.06 131.85, -30.58 128.12, -30.04 124.76 C-29.5 121.4, -28.03 117.63, -27.37 114.7 C-26.71 111.78, -26.68 108.93, -26.09 107.21 C-25.5 105.5, -24.53 105.6, -23.85 104.41 C-23.16 103.22, -22.66 100.98, -21.99 100.09 C-21.31 99.21, -20.48 100.14, -19.81 99.11 C-19.13 98.08, -18.71 94.4, -17.96 93.93 C-17.2 93.46, -15.78 95.07, -15.27 96.3 C-14.76 97.52, -14.63 99.94, -14.87 101.28 C-15.11 102.62, -16.43 102.84, -16.71 104.36 C-16.99 105.87, -16.24 108.35, -16.55 110.37 C-16.85 112.39, -17.96 114.41, -18.55 116.49 C-19.14 118.58, -19.79 120.12, -20.07 122.87 C-20.36 125.61, -20.09 129.74, -20.24 132.98 C-20.4 136.22, -20.47 139.98, -21.01 142.29 C-21.56 144.61, -22.31 144.36, -23.51 146.88 C-24.72 149.4, -26.77 153.92, -28.23 157.41 C-29.68 160.9, -30.82 163.81, -32.22 167.83 C-33.63 171.84, -35.38 177.33, -36.64 181.5 C-37.89 185.67, -38.82 188.5, -39.75 192.86 C-40.68 197.22, -41.66 202.55, -42.23 207.66 C-42.8 212.77, -42.94 218.24, -43.17 223.5 C-43.4 228.76, -43.86 233.48, -43.63 239.23 C-43.41 244.97, -42.87 252.28, -41.82 257.95 C-40.78 263.63, -39.2 269.74, -37.38 273.26 C-35.56 276.77, -33.97 277.7, -30.9 279.04 C-27.84 280.38, -24.87 280.87, -18.99 281.3 C-13.11 281.74, -1.64 281.74, 4.37 281.66 C10.37 281.57, 13.99 281.76, 17.03 280.79 C20.07 279.81, 21.54 278.33, 22.61 275.82 C23.68 273.31, 23.75 268.58, 23.45 265.71 C23.15 262.83, 22.01 260.04, 20.8 258.57 C19.58 257.1, 18.22 257.26, 16.15 256.91 C14.09 256.56, 9.83 257.01, 8.41 256.49 C6.99 255.96, 6.83 254.5, 7.63 253.75 C8.43 253, 11.37 252.6, 13.22 251.98 C15.07 251.35, 16.95 250.77, 18.73 250 C20.51 249.23, 22.08 248.78, 23.88 247.34 C25.68 245.91, 29.54 242.14, 29.53 241.38 C29.52 240.62, 25.85 242.31, 23.83 242.79 C21.8 243.28, 19.87 244.05, 17.39 244.3 C14.92 244.56, 11.29 244.53, 8.95 244.33 C6.61 244.14, 4.28 243.82, 3.37 243.14 C2.45 242.46, 2.47 241.1, 3.47 240.25 C4.47 239.4, 6.13 239, 9.38 238.03 C12.62 237.06, 20.11 235.15, 22.93 234.43 C25.74 233.71, 25.27 233.95, 26.27 233.73 C27.28 233.51, 27.91 233.37, 28.96 233.13 C30.01 232.9, 31.58 232.73, 32.56 232.33 C33.53 231.94, 34.2 231.92, 34.8 230.75 C35.39 229.57, 35.6 226.6, 36.13 225.28 C36.66 223.97, 37.71 223.56, 37.97 222.87 C38.24 222.17, 38.64 220.98, 37.72 221.11 C36.8 221.25, 34.36 222.8, 32.46 223.67 C30.56 224.55, 28.21 225.65, 26.33 226.35 C24.45 227.05, 23.36 227.48, 21.17 227.86 C18.98 228.24, 15.98 228.45, 13.18 228.63 C10.38 228.8, 6.59 229.09, 4.37 228.9 C2.16 228.72, 0.86 228.16, -0.1 227.54 C-1.06 226.92, -1.47 225.91, -1.38 225.17 C-1.29 224.44, -0.66 223.6, 0.44 223.13 C1.55 222.66, 3.43 222.67, 5.23 222.36 C7.03 222.05, 9.51 221.69, 11.26 221.26 C13 220.83, 14.14 220.24, 15.7 219.79 C17.25 219.34, 18.01 219.31, 20.6 218.57 C23.19 217.82, 28.06 216.67, 31.26 215.33 C34.45 213.99, 37.98 211.76, 39.78 210.52 C41.58 209.27, 41.5 208.98, 42.05 207.86 C42.6 206.75, 43.68 204.21, 43.08 203.82 C42.48 203.44, 40.22 204.91, 38.45 205.57 C36.68 206.22, 35.04 206.86, 32.45 207.75 C29.86 208.63, 26.95 210.04, 22.91 210.88 C18.87 211.72, 11.72 212.73, 8.21 212.78 C4.69 212.84, 3.21 211.87, 1.83 211.22 C0.45 210.57, -0.16 209.57, -0.09 208.9 C-0.01 208.23, 1.1 207.63, 2.26 207.19 C3.43 206.75, 5.23 206.66, 6.92 206.27 C8.6 205.87, 10.82 205.29, 12.36 204.84 C13.9 204.39, 14.54 204.12, 16.14 203.56 C17.74 203, 20.18 202.06, 21.94 201.47 C23.7 200.88, 24.67 200.64, 26.7 200.01 C28.74 199.37, 31.88 198.73, 34.12 197.65 C36.35 196.57, 38.4 194.66, 40.11 193.55 C41.83 192.43, 43.69 191.96, 44.41 190.95 C45.12 189.95, 44.96 187.93, 44.39 187.53 C43.81 187.13, 43.03 187.75, 40.94 188.57 C38.84 189.38, 34.64 191.49, 31.8 192.43 C28.96 193.37, 26.86 193.52, 23.87 194.21 C20.89 194.91, 16.71 196.19, 13.89 196.62 C11.08 197.05, 8.75 196.82, 6.96 196.79 C5.17 196.76, 3.82 197.12, 3.16 196.45 C2.5 195.78, 2.33 193.68, 3.01 192.78 C3.69 191.88, 5.58 191.57, 7.25 191.05 C8.92 190.54, 11.17 190.17, 13.06 189.68 C14.95 189.2, 16.26 188.95, 18.59 188.15 C20.91 187.35, 24.05 186.16, 26.99 184.89 C29.92 183.63, 33.36 182.02, 36.21 180.57 C39.06 179.13, 42.43 177.46, 44.11 176.24 C45.8 175.02, 45.98 174.62, 46.31 173.26 C46.65 171.91, 47.24 168.48, 46.12 168.11 C45 167.74, 42.62 169.79, 39.59 171.06 C36.57 172.33, 31.4 174.43, 27.95 175.72 C24.51 177.01, 21.77 178.07, 18.93 178.78 C16.09 179.48, 12.73 179.97, 10.92 179.95 C9.11 179.92, 8.36 179.4, 8.07 178.63 C7.77 177.85, 8.54 176.02, 9.17 175.29 C9.8 174.56, 10.67 174.64, 11.82 174.25 C12.97 173.85, 14.78 173.38, 16.09 172.95 C17.39 172.51, 18.47 172.01, 19.67 171.65 C20.86 171.29, 22.08 171.17, 23.26 170.79 C24.45 170.41, 25.51 169.91, 26.79 169.37 C28.06 168.82, 29.51 168.18, 30.92 167.5 C32.32 166.82, 33.54 166.38, 35.2 165.3 C36.86 164.21, 38.25 163.47, 40.86 160.98 C43.47 158.49, 48.22 154.02, 50.86 150.35 C53.5 146.68, 55.31 142.24, 56.71 138.98 C58.1 135.72, 58.6 133.13, 59.23 130.79 C59.87 128.46, 60.09 126.47, 60.52 124.97 C60.94 123.48, 60.48 123.38, 61.78 121.82 C63.09 120.25, 65.9 118.09, 68.34 115.57 C70.78 113.06, 74.27 109.83, 76.41 106.71 C78.55 103.59, 80.04 99.96, 81.18 96.83 C82.31 93.69, 82.6 91.33, 83.23 87.9 C83.85 84.47, 84.47 79.23, 84.93 76.24 C85.4 73.25, 85.45 70.81, 86.02 69.96 C86.58 69.11, 87.72 69.73, 88.31 71.14 C88.9 72.56, 89.19 75.48, 89.56 78.45 C89.93 81.42, 90.55 85.09, 90.52 88.97 C90.49 92.86, 90.41 97.86, 89.4 101.76 C88.39 105.66, 86.89 108.4, 84.46 112.39 C82.03 116.39, 77.13 122.96, 74.84 125.71 C72.56 128.45, 71.48 127.57, 70.75 128.86 C70.02 130.16, 70.94 131.56, 70.46 133.47 C69.98 135.38, 69.19 137.65, 67.86 140.35 C66.53 143.04, 64.15 146.78, 62.47 149.62 C60.79 152.46, 58.92 155.68, 57.78 157.36 C56.64 159.05, 55.13 158.99, 55.65 159.73 C56.16 160.46, 58.72 160.68, 60.87 161.79 C63.02 162.91, 66.04 164.64, 68.56 166.41 C71.08 168.19, 73.64 170.4, 76 172.45 C78.36 174.5, 79.58 176.45, 82.72 178.74 C85.86 181.04, 90.43 184.14, 94.85 186.23 C99.28 188.32, 104.58 189.98, 109.29 191.28 C114 192.58, 117.11 193.76, 123.1 194.02 C129.09 194.29, 138.45 193.81, 145.25 192.89 C152.05 191.98, 159.13 189.8, 163.89 188.53 C168.66 187.25, 170.8 186.22, 173.84 185.22 C176.87 184.21, 179.56 182.75, 182.12 182.5 C184.68 182.25, 187.01 182.69, 189.18 183.74 C191.35 184.78, 193.08 186.62, 195.15 188.75 C197.21 190.88, 198.8 193.51, 201.58 196.52 C204.37 199.52, 208.44 203.53, 211.87 206.79 C215.3 210.05, 217.82 212.98, 222.15 216.07 C226.48 219.16, 232.22 222.61, 237.85 225.34 C243.49 228.07, 250.37 230.7, 255.94 232.45 C261.52 234.2, 268.32 234.91, 271.31 235.85 C274.3 236.78, 273.51 237.38, 273.87 238.05 C274.22 238.73, 274.57 239.54, 273.42 239.9 C272.28 240.26, 269.82 240.31, 266.98 240.23 C264.14 240.16, 259.32 239.84, 256.38 239.45 C253.45 239.05, 251.66 238.44, 249.38 237.88 C247.1 237.32, 244.96 236.79, 242.69 236.11 C240.42 235.43, 238.27 234.73, 235.75 233.81 C233.24 232.9, 229.6 231.41, 227.6 230.61 C225.6 229.82, 224.32 228.81, 223.74 229.04 C223.16 229.27, 223.71 230.7, 224.12 232 C224.53 233.29, 225.93 235.14, 226.21 236.82 C226.49 238.49, 226.4 240.35, 225.8 242.06 C225.19 243.77, 224.25 245.58, 222.58 247.08 C220.91 248.57, 217.86 250.01, 215.77 251.03 C213.69 252.04, 211.44 252.2, 210.1 253.16 C208.75 254.11, 208.18 255.29, 207.7 256.76 C207.22 258.22, 207.09 260.76, 207.21 261.94 C207.32 263.13, 207.5 263.42, 208.4 263.88 C209.31 264.35, 210.55 264.6, 212.63 264.74 C214.7 264.88, 217.87 264.73, 220.85 264.74 C223.83 264.76, 228.25 265.28, 230.5 264.82 C232.75 264.37, 232.91 262.78, 234.34 262.02 C235.78 261.25, 237.56 260.39, 239.11 260.22 C240.66 260.05, 243.12 260.39, 243.66 261 C244.19 261.62, 243.09 262.94, 242.31 263.91 C241.54 264.88, 240.08 265.67, 239.01 266.82 C237.94 267.97, 236.27 269.15, 235.91 270.81 C235.56 272.48, 235.85 275.38, 236.9 276.82 C237.96 278.26, 240.1 278.79, 242.24 279.46 C244.37 280.14, 245.71 280.65, 249.7 280.88 C253.7 281.11, 260.08 280.85, 266.2 280.85 C272.32 280.84, 282.03 281.15, 286.41 280.86 C290.8 280.57, 290.78 280.1, 292.5 279.12 C294.22 278.14, 295.36 276.84, 296.74 274.99 C298.11 273.14, 299.76 270.08, 300.74 268.04 C301.72 265.99, 302.12 264.33, 302.59 262.72 C303.06 261.11, 303.33 259.96, 303.59 258.37 C303.85 256.79, 304.04 255.84, 304.16 253.22 C304.27 250.61, 304.43 245.79, 304.28 242.68 C304.12 239.57, 303.77 237.15, 303.21 234.55 C302.66 231.96, 302 230.27, 300.97 227.13 C299.95 224, 298.81 219.59, 297.05 215.72 C295.29 211.86, 292.69 207.67, 290.41 203.94 C288.13 200.21, 286.35 197.04, 283.38 193.34 C280.41 189.64, 275.09 184.33, 272.58 181.73 C270.08 179.14, 269.22 179.88, 268.36 177.76 C267.5 175.65, 267.82 171.68, 267.42 169.04 C267.02 166.41, 266.95 165.64, 265.97 161.97 C264.99 158.29, 263.15 151.74, 261.55 147.01 C259.94 142.28, 258.38 137.93, 256.33 133.59 C254.29 129.25, 252.68 125.53, 249.28 120.98 C245.88 116.42, 240.43 110.43, 235.94 106.27 C231.46 102.1, 227.87 99.11, 222.36 96.01 C216.86 92.91, 209.2 89.55, 202.92 87.68 C196.63 85.8, 191.37 85.29, 184.66 84.78 C177.96 84.28, 167.49 84.15, 162.69 84.65 C157.88 85.16, 159.33 87.07, 155.82 87.82 C152.3 88.57, 145.67 89.16, 141.58 89.16 C137.49 89.17, 134.77 88.95, 131.27 87.84 C127.78 86.74, 123.72 84.94, 120.62 82.51 C117.53 80.07, 115.46 76.83, 112.7 73.22 C109.95 69.61, 106.96 65.22, 104.12 60.83 C101.28 56.43, 98.25 50.26, 95.67 46.84 C93.08 43.41, 90.17 41.57, 88.61 40.25 C87.05 38.94, 86.65 39.88, 86.32 38.95 C85.99 38.02, 86.3 37.42, 86.63 34.68 C86.97 31.95, 87.85 26.06, 88.33 22.55 C88.8 19.04, 89.14 17.05, 89.46 13.62 C89.79 10.2, 90.19 6.69, 90.28 2 C90.36 -2.7, 90.14 -10.23, 89.97 -14.55 C89.79 -18.88, 89.94 -21.43, 89.23 -23.95 C88.51 -26.46, 87.49 -27.89, 85.69 -29.63 C83.88 -31.37, 80.91 -33.05, 78.39 -34.4 C75.88 -35.76, 73.98 -36.8, 70.6 -37.75 C67.22 -38.71, 61.77 -39.62, 58.14 -40.13 C54.51 -40.64, 50.77 -40.92, 48.82 -40.8 C46.87 -40.68, 47.15 -39.78, 46.43 -39.4 C45.72 -39.01, 45.21 -38.35, 44.53 -38.48 C43.85 -38.6, 43.18 -39.6, 42.37 -40.16 C41.55 -40.73, 40.53 -41.33, 39.62 -41.87 C38.72 -42.42, 37.99 -43.14, 36.93 -43.42 C35.87 -43.7, 34.34 -43.76, 33.26 -43.57 C32.18 -43.39, 31.44 -42.69, 30.45 -42.33 C29.46 -41.96, 28.71 -41.33, 27.33 -41.38 C25.94 -41.43, 23.72 -42.48, 22.14 -42.62 C20.56 -42.76, 19.54 -42.53, 17.86 -42.24 C16.18 -41.95, 13.45 -41.39, 12.06 -40.86 C10.67 -40.34, 10.37 -39.79, 9.53 -39.09 C8.69 -38.38, 8.38 -37.43, 7.01 -36.65 C5.65 -35.87, 1.41 -34.75, 1.33 -34.4 C1.25 -34.05, 4.87 -34.53, 6.53 -34.56 C8.18 -34.58, 9.73 -34.17, 11.25 -34.56 C12.78 -34.95, 14.05 -36.47, 15.67 -36.89 C17.29 -37.3, 19.28 -37.19, 20.97 -37.05 C22.66 -36.91, 24.58 -36.5, 25.82 -36.04 C27.05 -35.58, 27.93 -34.59, 28.36 -34.3" stroke="#E1E1E1" stroke-width="2" fill="none"/></g></g><mask/><g stroke-linecap="round"><g transform="translate(112.7515177345017 24.36462921537374) rotate(0 -16.495352202270624 16.980538884493335)"><path d="M0 0 C-0.03 0.04, -0.52 -0.12, -0.17 0.22 C0.17 0.57, 1.19 1.57, 2.07 2.06 C2.95 2.55, 4.65 2.87, 5.1 3.18 C5.55 3.49, 4.71 3.97, 4.76 3.91 C4.81 3.84, 5.62 2.43, 5.41 2.78 C5.2 3.14, 3.94 5.42, 3.49 6.06 C3.03 6.7, 2.79 6.57, 2.68 6.62 C2.57 6.68, 2.92 6.42, 2.83 6.37 C2.74 6.32, 2.78 6.59, 2.16 6.32 C1.54 6.05, 0.14 5.46, -0.9 4.76 C-1.94 4.05, -2.68 2.54, -4.07 2.07 C-5.45 1.59, -6.93 1.85, -9.24 1.92 C-11.54 1.98, -15.85 2.21, -17.92 2.47 C-20 2.73, -20.68 3.12, -21.68 3.48 C-22.68 3.85, -23.02 4.77, -23.91 4.66 C-24.8 4.56, -25.63 2.94, -27.02 2.82 C-28.4 2.71, -30.67 3.25, -32.24 3.97 C-33.81 4.69, -35.4 6.02, -36.43 7.14 C-37.46 8.25, -38.37 9.67, -38.4 10.67 C-38.43 11.66, -37.9 12.76, -36.63 13.09 C-35.35 13.41, -32.77 12.84, -30.73 12.64 C-28.69 12.45, -26.16 11.89, -24.39 11.9 C-22.61 11.91, -21.5 12.04, -20.07 12.69 C-18.64 13.34, -17 14.44, -15.81 15.82 C-14.63 17.2, -13.52 19.26, -12.98 20.98 C-12.44 22.7, -12.29 24.57, -12.55 26.15 C-12.81 27.72, -13.72 29.1, -14.54 30.41 C-15.37 31.71, -16.23 33.71, -17.52 33.96 C-18.81 34.21, -20.71 32.68, -22.27 31.89 C-23.84 31.1, -25.12 29.78, -26.93 29.22 C-28.74 28.65, -32.11 28.61, -33.15 28.49 M0 0 C-0.03 0.04, -0.52 -0.12, -0.17 0.22 C0.17 0.57, 1.19 1.57, 2.07 2.06 C2.95 2.55, 4.65 2.87, 5.1 3.18 C5.55 3.49, 4.71 3.97, 4.76 3.91 C4.81 3.84, 5.62 2.43, 5.41 2.78 C5.2 3.14, 3.94 5.42, 3.49 6.06 C3.03 6.7, 2.79 6.57, 2.68 6.62 C2.57 6.68, 2.92 6.42, 2.83 6.37 C2.74 6.32, 2.78 6.59, 2.16 6.32 C1.54 6.05, 0.14 5.46, -0.9 4.76 C-1.94 4.05, -2.68 2.54, -4.07 2.07 C-5.45 1.59, -6.93 1.85, -9.24 1.92 C-11.54 1.98, -15.85 2.21, -17.92 2.47 C-20 2.73, -20.68 3.12, -21.68 3.48 C-22.68 3.85, -23.02 4.77, -23.91 4.66 C-24.8 4.56, -25.63 2.94, -27.02 2.82 C-28.4 2.71, -30.67 3.25, -32.24 3.97 C-33.81 4.69, -35.4 6.02, -36.43 7.14 C-37.46 8.25, -38.37 9.67, -38.4 10.67 C-38.43 11.66, -37.9 12.76, -36.63 13.09 C-35.35 13.41, -32.77 12.84, -30.73 12.64 C-28.69 12.45, -26.16 11.89, -24.39 11.9 C-22.61 11.91, -21.5 12.04, -20.07 12.69 C-18.64 13.34, -17 14.44, -15.81 15.82 C-14.63 17.2, -13.52 19.26, -12.98 20.98 C-12.44 22.7, -12.29 24.57, -12.55 26.15 C-12.81 27.72, -13.72 29.1, -14.54 30.41 C-15.37 31.71, -16.23 33.71, -17.52 33.96 C-18.81 34.21, -20.71 32.68, -22.27 31.89 C-23.84 31.1, -25.12 29.78, -26.93 29.22 C-28.74 28.65, -32.11 28.61, -33.15 28.49" stroke="#E1E1E1" stroke-width="2" fill="none"/></g></g><mask/><g stroke-linecap="round"><g transform="translate(82.98096109018934 57.387032113528164) rotate(0 117.69954070962308 117.66848815979456)"><path d="M0 0 C0.03 0.36, 0.76 1.73, 0.16 2.16 C-0.43 2.59, -2.17 2.36, -3.57 2.6 C-4.96 2.85, -6.49 3.29, -8.19 3.62 C-9.89 3.95, -11.8 4.32, -13.76 4.56 C-15.72 4.8, -18.25 4.83, -19.94 5.05 C-21.64 5.26, -23.33 5.02, -23.93 5.85 C-24.53 6.69, -23.88 8.74, -23.55 10.04 C-23.21 11.33, -22.34 12.13, -21.92 13.63 C-21.5 15.13, -21.52 17.49, -21.02 19.02 C-20.52 20.55, -19.55 21.47, -18.92 22.81 C-18.29 24.14, -18.08 25.91, -17.24 27.02 C-16.41 28.13, -14.86 28.46, -13.9 29.47 C-12.94 30.48, -12.64 32.19, -11.49 33.09 C-10.35 33.99, -8.66 34.68, -7.03 34.88 C-5.4 35.08, -3.06 34.69, -1.72 34.31 C-0.39 33.93, -0.39 33.17, 0.99 32.59 C2.38 32.02, 5.15 31.41, 6.59 30.86 C8.03 30.31, 8.48 29.63, 9.66 29.3 C10.84 28.97, 12.62 28.93, 13.68 28.88 C14.73 28.83, 15.8 28.74, 15.97 29.02 C16.14 29.3, 15.61 30.05, 14.68 30.54 C13.75 31.03, 11.6 31.42, 10.4 31.96 C9.19 32.49, 8.59 33.26, 7.45 33.76 C6.3 34.26, 4.7 34.34, 3.52 34.95 C2.33 35.56, 1.96 36.23, 0.34 37.41 C-1.29 38.58, -3.82 39.99, -6.24 41.98 C-8.66 43.98, -12.19 46.87, -14.19 49.39 C-16.2 51.9, -17.23 55.54, -18.3 57.06 C-19.36 58.58, -20.26 59.06, -20.57 58.51 C-20.88 57.95, -20.68 55.07, -20.15 53.71 C-19.61 52.34, -18.19 51.48, -17.38 50.3 C-16.57 49.12, -15.96 48.03, -15.3 46.62 C-14.63 45.22, -13.36 42.77, -13.38 41.88 C-13.39 40.98, -14.56 41.18, -15.38 41.25 C-16.2 41.33, -16.63 41.15, -18.31 42.32 C-20 43.49, -22.99 45.69, -25.49 48.29 C-27.98 50.89, -31.29 55.26, -33.28 57.93 C-35.28 60.59, -36.25 61.54, -37.47 64.27 C-38.69 66.99, -39.7 71.24, -40.6 74.26 C-41.5 77.28, -42.54 79.76, -42.88 82.39 C-43.23 85.03, -42.98 88.06, -42.68 90.07 C-42.39 92.08, -41.13 93.44, -41.1 94.46 C-41.06 95.48, -41.68 94.81, -42.46 96.21 C-43.24 97.61, -44.72 100.44, -45.77 102.87 C-46.83 105.3, -47.85 107.34, -48.8 110.8 C-49.76 114.25, -50.73 119.38, -51.49 123.6 C-52.25 127.82, -52.58 132.78, -53.38 136.13 C-54.18 139.47, -55.13 141.19, -56.29 143.66 C-57.45 146.13, -59.11 148.12, -60.34 150.96 C-61.57 153.8, -62.67 157.17, -63.69 160.7 C-64.72 164.23, -65.67 169.04, -66.51 172.14 C-67.34 175.25, -67.98 176.32, -68.69 179.34 C-69.4 182.35, -70.06 185.5, -70.76 190.23 C-71.46 194.96, -72.58 201.81, -72.87 207.7 C-73.15 213.59, -72.85 220.27, -72.48 225.58 C-72.11 230.88, -71.55 235.56, -70.65 239.51 C-69.75 243.46, -68.78 246.22, -67.1 249.27 C-65.42 252.32, -62.9 255.66, -60.58 257.81 C-58.26 259.97, -54.95 261.61, -53.16 262.19 C-51.38 262.77, -50.23 262.21, -49.87 261.27 C-49.51 260.33, -50.52 258.43, -51 256.57 C-51.48 254.7, -52.38 253.17, -52.76 250.07 C-53.14 246.97, -53.1 242.46, -53.26 237.98 C-53.42 233.5, -53.78 227.98, -53.73 223.18 C-53.69 218.38, -53.4 213.37, -53.01 209.2 C-52.61 205.04, -52.15 201.78, -51.38 198.18 C-50.6 194.58, -49.32 191.2, -48.38 187.6 C-47.44 183.99, -46.98 180, -45.73 176.55 C-44.48 173.09, -42.39 170.43, -40.86 166.89 C-39.33 163.35, -37.69 157.99, -36.55 155.3 C-35.42 152.61, -34.54 152.03, -34.04 150.73 C-33.55 149.42, -34.15 148.48, -33.58 147.47 C-33.01 146.46, -31.12 145.67, -30.63 144.67 C-30.13 143.67, -31.26 142.78, -30.61 141.48 C-29.96 140.18, -27.35 138.76, -26.73 136.88 C-26.11 135, -27.25 132.85, -26.91 130.21 C-26.57 127.58, -25.16 123.71, -24.67 121.08 C-24.17 118.44, -24.3 116.43, -23.93 114.4 C-23.56 112.38, -23.05 110.21, -22.44 108.93 C-21.83 107.65, -20.7 107.72, -20.25 106.72 C-19.8 105.72, -20.13 103.76, -19.74 102.92 C-19.35 102.08, -18.19 101.19, -17.89 101.67 C-17.6 102.15, -17.9 104.42, -17.97 105.81 C-18.04 107.2, -17.89 108.96, -18.3 110.01 C-18.7 111.06, -20.01 110.75, -20.4 112.1 C-20.79 113.45, -20.57 114.85, -20.65 118.13 C-20.74 121.42, -20.79 128.17, -20.92 131.83 C-21.05 135.49, -20.9 138.14, -21.42 140.09 C-21.94 142.04, -23.28 142.27, -24.03 143.52 C-24.78 144.77, -25.33 146.41, -25.94 147.59 C-26.55 148.76, -27.32 149.62, -27.69 150.59 C-28.07 151.55, -27.73 152.67, -28.2 153.36 C-28.66 154.05, -29.75 153.15, -30.5 154.74 C-31.25 156.33, -32.16 161.03, -32.69 162.92 C-33.21 164.8, -33.36 164.91, -33.65 166.06 C-33.94 167.22, -34.03 169.02, -34.43 169.84 C-34.84 170.66, -35.67 169.99, -36.08 170.96 C-36.48 171.93, -36.64 174.14, -36.87 175.66 C-37.09 177.18, -36.98 178.84, -37.43 180.07 C-37.88 181.29, -39 181.59, -39.56 183 C-40.12 184.42, -40.21 185.82, -40.78 188.53 C-41.35 191.24, -42.54 195.64, -42.98 199.24 C-43.41 202.85, -43.15 206.18, -43.39 210.14 C-43.64 214.1, -44.28 218.91, -44.46 222.99 C-44.63 227.08, -44.66 230.24, -44.45 234.65 C-44.24 239.06, -43.68 245.28, -43.2 249.45 C-42.72 253.63, -42.27 256.23, -41.54 259.71 C-40.82 263.19, -40.04 267.36, -38.86 270.31 C-37.69 273.27, -36.4 275.7, -34.47 277.45 C-32.54 279.19, -31.01 279.95, -27.28 280.78 C-23.55 281.62, -18.34 282.25, -12.08 282.48 C-5.81 282.71, 4.93 282.37, 10.3 282.14 C15.67 281.9, 17.81 281.81, 20.14 281.06 C22.47 280.31, 23.26 279.03, 24.27 277.64 C25.28 276.25, 25.84 274.6, 26.21 272.7 C26.58 270.81, 26.7 268.45, 26.49 266.27 C26.27 264.09, 25.76 261.44, 24.89 259.61 C24.03 257.78, 22.95 256.1, 21.27 255.3 C19.59 254.49, 16.1 255.02, 14.82 254.78 C13.55 254.54, 13.42 254.15, 13.62 253.86 C13.81 253.56, 14.32 253.49, 15.99 253.01 C17.65 252.53, 21.46 252.05, 23.59 250.98 C25.72 249.91, 27.37 248.12, 28.78 246.59 C30.2 245.06, 31.65 243.1, 32.06 241.8 C32.47 240.49, 31.92 239.14, 31.25 238.76 C30.57 238.38, 29.68 239.06, 28.02 239.51 C26.36 239.96, 23.57 241.02, 21.3 241.44 C19.03 241.87, 16.4 241.97, 14.37 242.08 C12.35 242.19, 10.17 242.41, 9.16 242.12 C8.14 241.82, 7.53 240.81, 8.27 240.31 C9.02 239.8, 11.52 239.58, 13.61 239.07 C15.7 238.56, 18.35 237.79, 20.8 237.24 C23.26 236.69, 26.18 236.2, 28.35 235.79 C30.52 235.37, 32.09 235.15, 33.82 234.74 C35.54 234.34, 37.66 234.05, 38.69 233.36 C39.72 232.66, 39.67 231.6, 40.01 230.58 C40.35 229.56, 40.46 228.17, 40.72 227.24 C40.98 226.31, 41.29 226.05, 41.57 225 C41.85 223.96, 42.49 222.02, 42.41 220.98 C42.33 219.94, 41.95 219.04, 41.1 218.75 C40.26 218.45, 38.69 218.78, 37.31 219.22 C35.94 219.65, 34.67 220.51, 32.84 221.37 C31.02 222.23, 28.28 223.72, 26.36 224.38 C24.44 225.04, 22.97 225.04, 21.32 225.3 C19.68 225.57, 18.27 225.83, 16.49 225.97 C14.72 226.11, 12.57 226.1, 10.69 226.13 C8.81 226.16, 6.03 226.47, 5.21 226.16 C4.38 225.85, 4.98 224.69, 5.76 224.28 C6.54 223.88, 8.17 223.94, 9.87 223.75 C11.58 223.55, 14.25 223.47, 16 223.14 C17.75 222.81, 18.77 222.32, 20.38 221.75 C21.99 221.18, 23.39 220.62, 25.67 219.72 C27.95 218.81, 31.68 217.36, 34.06 216.31 C36.44 215.27, 38.22 214.61, 39.96 213.44 C41.69 212.26, 43.28 210.87, 44.48 209.26 C45.69 207.65, 46.73 205.27, 47.21 203.79 C47.69 202.32, 47.44 201.15, 47.38 200.42 C47.32 199.68, 47.65 199.27, 46.85 199.39 C46.04 199.5, 44.33 200.37, 42.54 201.09 C40.76 201.82, 38.97 202.66, 36.12 203.73 C33.27 204.79, 28.77 206.6, 25.44 207.48 C22.12 208.35, 19.05 208.6, 16.17 208.98 C13.28 209.36, 9.69 209.86, 8.12 209.78 C6.54 209.7, 6.01 208.89, 6.72 208.5 C7.44 208.11, 10.46 207.9, 12.41 207.41 C14.37 206.93, 16.78 206.1, 18.46 205.58 C20.14 205.05, 21.15 204.65, 22.48 204.26 C23.81 203.87, 25.22 203.56, 26.44 203.22 C27.67 202.88, 28.55 202.55, 29.82 202.21 C31.09 201.87, 32.55 201.76, 34.06 201.18 C35.57 200.6, 37.43 199.59, 38.88 198.75 C40.33 197.9, 41.3 196.86, 42.78 196.11 C44.26 195.36, 46.89 195.12, 47.78 194.26 C48.67 193.4, 47.97 192.13, 48.1 190.97 C48.23 189.81, 48.19 188.81, 48.56 187.3 C48.94 185.79, 50.88 182.51, 50.35 181.93 C49.82 181.34, 47.24 183.04, 45.4 183.78 C43.55 184.52, 41.64 185.42, 39.29 186.34 C36.94 187.27, 33.84 188.51, 31.3 189.33 C28.76 190.15, 26.35 190.79, 24.05 191.28 C21.74 191.77, 19.58 191.86, 17.46 192.24 C15.35 192.63, 12.08 193.56, 11.36 193.6 C10.65 193.64, 12 192.92, 13.17 192.49 C14.33 192.06, 16.82 191.57, 18.37 191.02 C19.92 190.47, 20.79 189.9, 22.48 189.18 C24.18 188.47, 26.27 187.71, 28.54 186.73 C30.82 185.74, 33.6 184.53, 36.14 183.27 C38.68 182, 41.66 180.33, 43.77 179.14 C45.89 177.94, 47.59 177.28, 48.85 176.09 C50.1 174.89, 51.03 173.71, 51.3 171.96 C51.58 170.22, 50.67 167.06, 50.5 165.62 C50.34 164.18, 51.12 163.41, 50.31 163.31 C49.51 163.22, 47.04 164.48, 45.67 165.06 C44.29 165.64, 43 166.32, 42.07 166.81 C41.15 167.29, 42.43 167.01, 40.12 167.95 C37.81 168.9, 31.35 171.37, 28.19 172.47 C25.03 173.56, 22.38 174.14, 21.15 174.52 C19.91 174.89, 21.85 174.32, 20.78 174.7 C19.7 175.08, 15.46 176.59, 14.72 176.79 C13.98 176.98, 15.4 176.24, 16.34 175.88 C17.28 175.51, 19 174.96, 20.36 174.58 C21.72 174.2, 23.17 173.99, 24.49 173.59 C25.82 173.2, 27.21 172.6, 28.32 172.2 C29.42 171.8, 30.17 171.5, 31.11 171.18 C32.06 170.85, 32.92 170.67, 33.99 170.23 C35.06 169.79, 36.23 169.8, 37.53 168.54 C38.83 167.28, 39.52 165.19, 41.77 162.67 C44.02 160.16, 48.4 156.65, 51.02 153.45 C53.65 150.24, 55.8 146.78, 57.54 143.42 C59.27 140.05, 60.53 135.97, 61.43 133.27 C62.32 130.57, 62.51 128.94, 62.9 127.23 C63.28 125.51, 63.2 124.15, 63.73 122.97 C64.27 121.78, 64.77 121.44, 66.1 120.12 C67.44 118.8, 69.42 117.54, 71.72 115.06 C74.03 112.57, 77.98 107.99, 79.95 105.21 C81.91 102.44, 82.64 100.52, 83.5 98.4 C84.36 96.27, 84.61 94.51, 85.08 92.46 C85.56 90.42, 86.02 88.1, 86.35 86.12 C86.69 84.13, 86.76 82.33, 87.1 80.54 C87.44 78.75, 87.97 75.29, 88.39 75.38 C88.81 75.47, 89.33 78.46, 89.6 81.07 C89.87 83.68, 90.09 87.92, 90 91.06 C89.9 94.19, 89.66 97.15, 89.03 99.88 C88.4 102.62, 87.37 104.92, 86.2 107.45 C85.03 109.99, 83.66 112.61, 82.01 115.09 C80.36 117.56, 77.97 120.35, 76.29 122.31 C74.61 124.27, 72.98 125.13, 71.92 126.87 C70.86 128.61, 70.59 130.96, 69.92 132.76 C69.25 134.56, 69.15 135.22, 67.91 137.68 C66.66 140.15, 64.1 144.65, 62.45 147.56 C60.8 150.46, 59.52 153.09, 58 155.1 C56.49 157.12, 53.7 158.51, 53.38 159.62 C53.05 160.74, 54.67 161.15, 56.05 161.8 C57.43 162.45, 59.27 162.47, 61.64 163.5 C64.01 164.54, 68.08 166.69, 70.27 168 C72.46 169.31, 72.33 169.24, 74.8 171.37 C77.27 173.51, 81.21 178.03, 85.11 180.8 C89.01 183.57, 93.23 185.89, 98.22 188 C103.21 190.12, 109.03 192.33, 115.03 193.48 C121.03 194.64, 127.68 195.12, 134.23 194.93 C140.78 194.74, 147.94 193.64, 154.33 192.35 C160.73 191.06, 168.32 188.58, 172.61 187.21 C176.9 185.83, 177.65 184.69, 180.09 184.1 C182.53 183.51, 184.94 183.07, 187.25 183.65 C189.56 184.22, 192.01 185.87, 193.95 187.54 C195.89 189.21, 196.79 191.3, 198.88 193.68 C200.97 196.07, 203.02 198.42, 206.49 201.85 C209.95 205.28, 214.29 210.24, 219.67 214.27 C225.04 218.3, 232.28 222.81, 238.73 226.03 C245.17 229.26, 252.74 231.87, 258.34 233.62 C263.95 235.36, 269.73 235.84, 272.37 236.48 C275.01 237.12, 274.16 237.17, 274.18 237.47 C274.19 237.76, 274.13 238.01, 272.46 238.25 C270.79 238.5, 266.57 239.07, 264.15 238.95 C261.74 238.83, 259.94 237.99, 257.98 237.53 C256.02 237.06, 254.02 236.63, 252.41 236.17 C250.8 235.71, 249.67 235.2, 248.31 234.77 C246.95 234.34, 245.82 234.08, 244.26 233.61 C242.69 233.13, 240.33 232.39, 238.93 231.93 C237.53 231.47, 236.79 231.17, 235.87 230.83 C234.95 230.48, 234.31 230.26, 233.4 229.87 C232.48 229.48, 231.27 228.91, 230.36 228.49 C229.46 228.08, 228.92 227.8, 227.97 227.38 C227.01 226.97, 225.53 226.23, 224.63 226.01 C223.74 225.79, 222.94 225.43, 222.59 226.06 C222.24 226.69, 222.31 228.38, 222.54 229.8 C222.77 231.22, 223.67 232.67, 223.98 234.59 C224.29 236.5, 225.19 239.26, 224.4 241.29 C223.61 243.32, 221.29 245.44, 219.25 246.77 C217.2 248.1, 213.81 248.53, 212.14 249.25 C210.46 249.98, 210.07 250.15, 209.19 251.11 C208.32 252.07, 207.43 253.42, 206.88 255.02 C206.34 256.62, 205.85 258.97, 205.92 260.69 C205.99 262.41, 206.1 264.21, 207.3 265.33 C208.5 266.45, 210.43 267, 213.11 267.4 C215.78 267.79, 220.42 267.61, 223.36 267.7 C226.29 267.79, 228.76 268.25, 230.74 267.93 C232.71 267.61, 233.98 266.48, 235.19 265.76 C236.41 265.04, 236.68 264.41, 238.03 263.6 C239.39 262.78, 243.16 260.69, 243.34 260.87 C243.53 261.05, 240.31 263.4, 239.15 264.67 C237.98 265.94, 236.88 266.74, 236.34 268.49 C235.79 270.24, 235.29 273.44, 235.9 275.17 C236.5 276.9, 238.29 277.87, 239.97 278.86 C241.64 279.84, 243.44 280.59, 245.95 281.07 C248.46 281.56, 250.39 281.62, 255.04 281.77 C259.69 281.92, 268.31 281.98, 273.85 281.98 C279.39 281.98, 284.36 282.2, 288.29 281.77 C292.22 281.34, 294.86 281.14, 297.44 279.4 C300.03 277.65, 302.41 273.42, 303.79 271.3 C305.16 269.19, 305.18 268.39, 305.71 266.69 C306.25 264.99, 306.57 263.39, 306.99 261.11 C307.42 258.84, 308.09 256.64, 308.27 253.06 C308.44 249.48, 308.24 242.92, 308.05 239.63 C307.86 236.34, 307.59 235.7, 307.12 233.32 C306.66 230.93, 306.17 228.19, 305.26 225.29 C304.34 222.4, 302.95 219.01, 301.62 215.93 C300.29 212.85, 298.98 209.85, 297.26 206.81 C295.54 203.78, 293.54 201.07, 291.3 197.7 C289.05 194.34, 286.46 189.93, 283.81 186.62 C281.16 183.31, 277.27 179.73, 275.38 177.84 C273.48 175.96, 272.98 176.16, 272.43 175.31 C271.88 174.46, 272.32 174.64, 272.08 172.74 C271.84 170.84, 271.61 166.86, 270.98 163.93 C270.36 160.99, 269.3 158.45, 268.32 155.1 C267.33 151.75, 266.43 147.69, 265.08 143.84 C263.73 140, 261.86 135.65, 260.23 132.01 C258.59 128.36, 257.26 125.17, 255.28 121.99 C253.31 118.81, 251 116.03, 248.38 112.93 C245.76 109.84, 243.02 106.48, 239.56 103.42 C236.1 100.36, 231.69 97.07, 227.61 94.56 C223.53 92.05, 219.7 90.24, 215.09 88.37 C210.49 86.5, 206 84.54, 199.97 83.35 C193.94 82.16, 185.15 81.52, 178.92 81.23 C172.69 80.93, 166.92 80.86, 162.6 81.57 C158.27 82.28, 156.02 84.68, 152.97 85.46 C149.92 86.24, 147.39 86.3, 144.31 86.25 C141.24 86.2, 137.56 85.9, 134.51 85.16 C131.46 84.42, 128.57 83.43, 126.02 81.8 C123.47 80.18, 121.73 78.34, 119.22 75.42 C116.72 72.5, 113.47 67.89, 110.99 64.29 C108.52 60.69, 106.63 57.38, 104.37 53.82 C102.11 50.26, 99.47 45.49, 97.44 42.92 C95.41 40.35, 93.44 39.51, 92.19 38.41 C90.95 37.31, 90.17 37.73, 89.99 36.32 C89.8 34.91, 90.59 32.4, 91.08 29.95 C91.57 27.51, 92.47 25.02, 92.93 21.67 C93.39 18.32, 93.6 14.47, 93.85 9.86 C94.1 5.25, 94.39 -1.33, 94.44 -5.98 C94.5 -10.63, 94.46 -14.51, 94.2 -18.06 C93.94 -21.61, 93.67 -24.92, 92.89 -27.26 C92.12 -29.61, 91.19 -30.46, 89.54 -32.11 C87.89 -33.77, 85.62 -35.78, 82.97 -37.21 C80.32 -38.65, 76.73 -39.78, 73.62 -40.74 C70.5 -41.71, 67.45 -42.52, 64.26 -43 C61.07 -43.49, 57.13 -43.47, 54.47 -43.65 C51.81 -43.82, 49.74 -44.17, 48.28 -44.05 C46.81 -43.92, 46.46 -42.86, 45.68 -42.89 C44.89 -42.92, 44.51 -43.65, 43.54 -44.23 C42.57 -44.82, 41.18 -45.93, 39.86 -46.41 C38.54 -46.9, 37.02 -47.15, 35.63 -47.14 C34.24 -47.13, 32.61 -46.64, 31.54 -46.36 C30.47 -46.08, 29.96 -45.59, 29.21 -45.47 C28.45 -45.35, 27.75 -45.35, 27.04 -45.63 C26.32 -45.9, 26.37 -46.88, 24.92 -47.13 C23.46 -47.39, 20.06 -47.54, 18.29 -47.14 C16.52 -46.74, 15.4 -45.46, 14.29 -44.73 C13.18 -44, 12.4 -43.39, 11.63 -42.76 C10.87 -42.13, 10.31 -41.51, 9.73 -40.94 C9.14 -40.36, 8.9 -39.88, 8.1 -39.33 C7.31 -38.79, 6.12 -38.16, 4.95 -37.66 C3.79 -37.17, 1.66 -36.93, 1.12 -36.35 C0.59 -35.78, 1.43 -34.7, 1.72 -34.21 C2.02 -33.71, 2.72 -33.53, 2.92 -33.4 M0 0 C0.03 0.36, 0.76 1.73, 0.16 2.16 C-0.43 2.59, -2.17 2.36, -3.57 2.6 C-4.96 2.85, -6.49 3.29, -8.19 3.62 C-9.89 3.95, -11.8 4.32, -13.76 4.56 C-15.72 4.8, -18.25 4.83, -19.94 5.05 C-21.64 5.26, -23.33 5.02, -23.93 5.85 C-24.53 6.69, -23.88 8.74, -23.55 10.04 C-23.21 11.33, -22.34 12.13, -21.92 13.63 C-21.5 15.13, -21.52 17.49, -21.02 19.02 C-20.52 20.55, -19.55 21.47, -18.92 22.81 C-18.29 24.14, -18.08 25.91, -17.24 27.02 C-16.41 28.13, -14.86 28.46, -13.9 29.47 C-12.94 30.48, -12.64 32.19, -11.49 33.09 C-10.35 33.99, -8.66 34.68, -7.03 34.88 C-5.4 35.08, -3.06 34.69, -1.72 34.31 C-0.39 33.93, -0.39 33.17, 0.99 32.59 C2.38 32.02, 5.15 31.41, 6.59 30.86 C8.03 30.31, 8.48 29.63, 9.66 29.3 C10.84 28.97, 12.62 28.93, 13.68 28.88 C14.73 28.83, 15.8 28.74, 15.97 29.02 C16.14 29.3, 15.61 30.05, 14.68 30.54 C13.75 31.03, 11.6 31.42, 10.4 31.96 C9.19 32.49, 8.59 33.26, 7.45 33.76 C6.3 34.26, 4.7 34.34, 3.52 34.95 C2.33 35.56, 1.96 36.23, 0.34 37.41 C-1.29 38.58, -3.82 39.99, -6.24 41.98 C-8.66 43.98, -12.19 46.87, -14.19 49.39 C-16.2 51.9, -17.23 55.54, -18.3 57.06 C-19.36 58.58, -20.26 59.06, -20.57 58.51 C-20.88 57.95, -20.68 55.07, -20.15 53.71 C-19.61 52.34, -18.19 51.48, -17.38 50.3 C-16.57 49.12, -15.96 48.03, -15.3 46.62 C-14.63 45.22, -13.36 42.77, -13.38 41.88 C-13.39 40.98, -14.56 41.18, -15.38 41.25 C-16.2 41.33, -16.63 41.15, -18.31 42.32 C-20 43.49, -22.99 45.69, -25.49 48.29 C-27.98 50.89, -31.29 55.26, -33.28 57.93 C-35.28 60.59, -36.25 61.54, -37.47 64.27 C-38.69 66.99, -39.7 71.24, -40.6 74.26 C-41.5 77.28, -42.54 79.76, -42.88 82.39 C-43.23 85.03, -42.98 88.06, -42.68 90.07 C-42.39 92.08, -41.13 93.44, -41.1 94.46 C-41.06 95.48, -41.68 94.81, -42.46 96.21 C-43.24 97.61, -44.72 100.44, -45.77 102.87 C-46.83 105.3, -47.85 107.34, -48.8 110.8 C-49.76 114.25, -50.73 119.38, -51.49 123.6 C-52.25 127.82, -52.58 132.78, -53.38 136.13 C-54.18 139.47, -55.13 141.19, -56.29 143.66 C-57.45 146.13, -59.11 148.12, -60.34 150.96 C-61.57 153.8, -62.67 157.17, -63.69 160.7 C-64.72 164.23, -65.67 169.04, -66.51 172.14 C-67.34 175.25, -67.98 176.32, -68.69 179.34 C-69.4 182.35, -70.06 185.5, -70.76 190.23 C-71.46 194.96, -72.58 201.81, -72.87 207.7 C-73.15 213.59, -72.85 220.27, -72.48 225.58 C-72.11 230.88, -71.55 235.56, -70.65 239.51 C-69.75 243.46, -68.78 246.22, -67.1 249.27 C-65.42 252.32, -62.9 255.66, -60.58 257.81 C-58.26 259.97, -54.95 261.61, -53.16 262.19 C-51.38 262.77, -50.23 262.21, -49.87 261.27 C-49.51 260.33, -50.52 258.43, -51 256.57 C-51.48 254.7, -52.38 253.17, -52.76 250.07 C-53.14 246.97, -53.1 242.46, -53.26 237.98 C-53.42 233.5, -53.78 227.98, -53.73 223.18 C-53.69 218.38, -53.4 213.37, -53.01 209.2 C-52.61 205.04, -52.15 201.78, -51.38 198.18 C-50.6 194.58, -49.32 191.2, -48.38 187.6 C-47.44 183.99, -46.98 180, -45.73 176.55 C-44.48 173.09, -42.39 170.43, -40.86 166.89 C-39.33 163.35, -37.69 157.99, -36.55 155.3 C-35.42 152.61, -34.54 152.03, -34.04 150.73 C-33.55 149.42, -34.15 148.48, -33.58 147.47 C-33.01 146.46, -31.12 145.67, -30.63 144.67 C-30.13 143.67, -31.26 142.78, -30.61 141.48 C-29.96 140.18, -27.35 138.76, -26.73 136.88 C-26.11 135, -27.25 132.85, -26.91 130.21 C-26.57 127.58, -25.16 123.71, -24.67 121.08 C-24.17 118.44, -24.3 116.43, -23.93 114.4 C-23.56 112.38, -23.05 110.21, -22.44 108.93 C-21.83 107.65, -20.7 107.72, -20.25 106.72 C-19.8 105.72, -20.13 103.76, -19.74 102.92 C-19.35 102.08, -18.19 101.19, -17.89 101.67 C-17.6 102.15, -17.9 104.42, -17.97 105.81 C-18.04 107.2, -17.89 108.96, -18.3 110.01 C-18.7 111.06, -20.01 110.75, -20.4 112.1 C-20.79 113.45, -20.57 114.85, -20.65 118.13 C-20.74 121.42, -20.79 128.17, -20.92 131.83 C-21.05 135.49, -20.9 138.14, -21.42 140.09 C-21.94 142.04, -23.28 142.27, -24.03 143.52 C-24.78 144.77, -25.33 146.41, -25.94 147.59 C-26.55 148.76, -27.32 149.62, -27.69 150.59 C-28.07 151.55, -27.73 152.67, -28.2 153.36 C-28.66 154.05, -29.75 153.15, -30.5 154.74 C-31.25 156.33, -32.16 161.03, -32.69 162.92 C-33.21 164.8, -33.36 164.91, -33.65 166.06 C-33.94 167.22, -34.03 169.02, -34.43 169.84 C-34.84 170.66, -35.67 169.99, -36.08 170.96 C-36.48 171.93, -36.64 174.14, -36.87 175.66 C-37.09 177.18, -36.98 178.84, -37.43 180.07 C-37.88 181.29, -39 181.59, -39.56 183 C-40.12 184.42, -40.21 185.82, -40.78 188.53 C-41.35 191.24, -42.54 195.64, -42.98 199.24 C-43.41 202.85, -43.15 206.18, -43.39 210.14 C-43.64 214.1, -44.28 218.91, -44.46 222.99 C-44.63 227.08, -44.66 230.24, -44.45 234.65 C-44.24 239.06, -43.68 245.28, -43.2 249.45 C-42.72 253.63, -42.27 256.23, -41.54 259.71 C-40.82 263.19, -40.04 267.36, -38.86 270.31 C-37.69 273.27, -36.4 275.7, -34.47 277.45 C-32.54 279.19, -31.01 279.95, -27.28 280.78 C-23.55 281.62, -18.34 282.25, -12.08 282.48 C-5.81 282.71, 4.93 282.37, 10.3 282.14 C15.67 281.9, 17.81 281.81, 20.14 281.06 C22.47 280.31, 23.26 279.03, 24.27 277.64 C25.28 276.25, 25.84 274.6, 26.21 272.7 C26.58 270.81, 26.7 268.45, 26.49 266.27 C26.27 264.09, 25.76 261.44, 24.89 259.61 C24.03 257.78, 22.95 256.1, 21.27 255.3 C19.59 254.49, 16.1 255.02, 14.82 254.78 C13.55 254.54, 13.42 254.15, 13.62 253.86 C13.81 253.56, 14.32 253.49, 15.99 253.01 C17.65 252.53, 21.46 252.05, 23.59 250.98 C25.72 249.91, 27.37 248.12, 28.78 246.59 C30.2 245.06, 31.65 243.1, 32.06 241.8 C32.47 240.49, 31.92 239.14, 31.25 238.76 C30.57 238.38, 29.68 239.06, 28.02 239.51 C26.36 239.96, 23.57 241.02, 21.3 241.44 C19.03 241.87, 16.4 241.97, 14.37 242.08 C12.35 242.19, 10.17 242.41, 9.16 242.12 C8.14 241.82, 7.53 240.81, 8.27 240.31 C9.02 239.8, 11.52 239.58, 13.61 239.07 C15.7 238.56, 18.35 237.79, 20.8 237.24 C23.26 236.69, 26.18 236.2, 28.35 235.79 C30.52 235.37, 32.09 235.15, 33.82 234.74 C35.54 234.34, 37.66 234.05, 38.69 233.36 C39.72 232.66, 39.67 231.6, 40.01 230.58 C40.35 229.56, 40.46 228.17, 40.72 227.24 C40.98 226.31, 41.29 226.05, 41.57 225 C41.85 223.96, 42.49 222.02, 42.41 220.98 C42.33 219.94, 41.95 219.04, 41.1 218.75 C40.26 218.45, 38.69 218.78, 37.31 219.22 C35.94 219.65, 34.67 220.51, 32.84 221.37 C31.02 222.23, 28.28 223.72, 26.36 224.38 C24.44 225.04, 22.97 225.04, 21.32 225.3 C19.68 225.57, 18.27 225.83, 16.49 225.97 C14.72 226.11, 12.57 226.1, 10.69 226.13 C8.81 226.16, 6.03 226.47, 5.21 226.16 C4.38 225.85, 4.98 224.69, 5.76 224.28 C6.54 223.88, 8.17 223.94, 9.87 223.75 C11.58 223.55, 14.25 223.47, 16 223.14 C17.75 222.81, 18.77 222.32, 20.38 221.75 C21.99 221.18, 23.39 220.62, 25.67 219.72 C27.95 218.81, 31.68 217.36, 34.06 216.31 C36.44 215.27, 38.22 214.61, 39.96 213.44 C41.69 212.26, 43.28 210.87, 44.48 209.26 C45.69 207.65, 46.73 205.27, 47.21 203.79 C47.69 202.32, 47.44 201.15, 47.38 200.42 C47.32 199.68, 47.65 199.27, 46.85 199.39 C46.04 199.5, 44.33 200.37, 42.54 201.09 C40.76 201.82, 38.97 202.66, 36.12 203.73 C33.27 204.79, 28.77 206.6, 25.44 207.48 C22.12 208.35, 19.05 208.6, 16.17 208.98 C13.28 209.36, 9.69 209.86, 8.12 209.78 C6.54 209.7, 6.01 208.89, 6.72 208.5 C7.44 208.11, 10.46 207.9, 12.41 207.41 C14.37 206.93, 16.78 206.1, 18.46 205.58 C20.14 205.05, 21.15 204.65, 22.48 204.26 C23.81 203.87, 25.22 203.56, 26.44 203.22 C27.67 202.88, 28.55 202.55, 29.82 202.21 C31.09 201.87, 32.55 201.76, 34.06 201.18 C35.57 200.6, 37.43 199.59, 38.88 198.75 C40.33 197.9, 41.3 196.86, 42.78 196.11 C44.26 195.36, 46.89 195.12, 47.78 194.26 C48.67 193.4, 47.97 192.13, 48.1 190.97 C48.23 189.81, 48.19 188.81, 48.56 187.3 C48.94 185.79, 50.88 182.51, 50.35 181.93 C49.82 181.34, 47.24 183.04, 45.4 183.78 C43.55 184.52, 41.64 185.42, 39.29 186.34 C36.94 187.27, 33.84 188.51, 31.3 189.33 C28.76 190.15, 26.35 190.79, 24.05 191.28 C21.74 191.77, 19.58 191.86, 17.46 192.24 C15.35 192.63, 12.08 193.56, 11.36 193.6 C10.65 193.64, 12 192.92, 13.17 192.49 C14.33 192.06, 16.82 191.57, 18.37 191.02 C19.92 190.47, 20.79 189.9, 22.48 189.18 C24.18 188.47, 26.27 187.71, 28.54 186.73 C30.82 185.74, 33.6 184.53, 36.14 183.27 C38.68 182, 41.66 180.33, 43.77 179.14 C45.89 177.94, 47.59 177.28, 48.85 176.09 C50.1 174.89, 51.03 173.71, 51.3 171.96 C51.58 170.22, 50.67 167.06, 50.5 165.62 C50.34 164.18, 51.12 163.41, 50.31 163.31 C49.51 163.22, 47.04 164.48, 45.67 165.06 C44.29 165.64, 43 166.32, 42.07 166.81 C41.15 167.29, 42.43 167.01, 40.12 167.95 C37.81 168.9, 31.35 171.37, 28.19 172.47 C25.03 173.56, 22.38 174.14, 21.15 174.52 C19.91 174.89, 21.85 174.32, 20.78 174.7 C19.7 175.08, 15.46 176.59, 14.72 176.79 C13.98 176.98, 15.4 176.24, 16.34 175.88 C17.28 175.51, 19 174.96, 20.36 174.58 C21.72 174.2, 23.17 173.99, 24.49 173.59 C25.82 173.2, 27.21 172.6, 28.32 172.2 C29.42 171.8, 30.17 171.5, 31.11 171.18 C32.06 170.85, 32.92 170.67, 33.99 170.23 C35.06 169.79, 36.23 169.8, 37.53 168.54 C38.83 167.28, 39.52 165.19, 41.77 162.67 C44.02 160.16, 48.4 156.65, 51.02 153.45 C53.65 150.24, 55.8 146.78, 57.54 143.42 C59.27 140.05, 60.53 135.97, 61.43 133.27 C62.32 130.57, 62.51 128.94, 62.9 127.23 C63.28 125.51, 63.2 124.15, 63.73 122.97 C64.27 121.78, 64.77 121.44, 66.1 120.12 C67.44 118.8, 69.42 117.54, 71.72 115.06 C74.03 112.57, 77.98 107.99, 79.95 105.21 C81.91 102.44, 82.64 100.52, 83.5 98.4 C84.36 96.27, 84.61 94.51, 85.08 92.46 C85.56 90.42, 86.02 88.1, 86.35 86.12 C86.69 84.13, 86.76 82.33, 87.1 80.54 C87.44 78.75, 87.97 75.29, 88.39 75.38 C88.81 75.47, 89.33 78.46, 89.6 81.07 C89.87 83.68, 90.09 87.92, 90 91.06 C89.9 94.19, 89.66 97.15, 89.03 99.88 C88.4 102.62, 87.37 104.92, 86.2 107.45 C85.03 109.99, 83.66 112.61, 82.01 115.09 C80.36 117.56, 77.97 120.35, 76.29 122.31 C74.61 124.27, 72.98 125.13, 71.92 126.87 C70.86 128.61, 70.59 130.96, 69.92 132.76 C69.25 134.56, 69.15 135.22, 67.91 137.68 C66.66 140.15, 64.1 144.65, 62.45 147.56 C60.8 150.46, 59.52 153.09, 58 155.1 C56.49 157.12, 53.7 158.51, 53.38 159.62 C53.05 160.74, 54.67 161.15, 56.05 161.8 C57.43 162.45, 59.27 162.47, 61.64 163.5 C64.01 164.54, 68.08 166.69, 70.27 168 C72.46 169.31, 72.33 169.24, 74.8 171.37 C77.27 173.51, 81.21 178.03, 85.11 180.8 C89.01 183.57, 93.23 185.89, 98.22 188 C103.21 190.12, 109.03 192.33, 115.03 193.48 C121.03 194.64, 127.68 195.12, 134.23 194.93 C140.78 194.74, 147.94 193.64, 154.33 192.35 C160.73 191.06, 168.32 188.58, 172.61 187.21 C176.9 185.83, 177.65 184.69, 180.09 184.1 C182.53 183.51, 184.94 183.07, 187.25 183.65 C189.56 184.22, 192.01 185.87, 193.95 187.54 C195.89 189.21, 196.79 191.3, 198.88 193.68 C200.97 196.07, 203.02 198.42, 206.49 201.85 C209.95 205.28, 214.29 210.24, 219.67 214.27 C225.04 218.3, 232.28 222.81, 238.73 226.03 C245.17 229.26, 252.74 231.87, 258.34 233.62 C263.95 235.36, 269.73 235.84, 272.37 236.48 C275.01 237.12, 274.16 237.17, 274.18 237.47 C274.19 237.76, 274.13 238.01, 272.46 238.25 C270.79 238.5, 266.57 239.07, 264.15 238.95 C261.74 238.83, 259.94 237.99, 257.98 237.53 C256.02 237.06, 254.02 236.63, 252.41 236.17 C250.8 235.71, 249.67 235.2, 248.31 234.77 C246.95 234.34, 245.82 234.08, 244.26 233.61 C242.69 233.13, 240.33 232.39, 238.93 231.93 C237.53 231.47, 236.79 231.17, 235.87 230.83 C234.95 230.48, 234.31 230.26, 233.4 229.87 C232.48 229.48, 231.27 228.91, 230.36 228.49 C229.46 228.08, 228.92 227.8, 227.97 227.38 C227.01 226.97, 225.53 226.23, 224.63 226.01 C223.74 225.79, 222.94 225.43, 222.59 226.06 C222.24 226.69, 222.31 228.38, 222.54 229.8 C222.77 231.22, 223.67 232.67, 223.98 234.59 C224.29 236.5, 225.19 239.26, 224.4 241.29 C223.61 243.32, 221.29 245.44, 219.25 246.77 C217.2 248.1, 213.81 248.53, 212.14 249.25 C210.46 249.98, 210.07 250.15, 209.19 251.11 C208.32 252.07, 207.43 253.42, 206.88 255.02 C206.34 256.62, 205.85 258.97, 205.92 260.69 C205.99 262.41, 206.1 264.21, 207.3 265.33 C208.5 266.45, 210.43 267, 213.11 267.4 C215.78 267.79, 220.42 267.61, 223.36 267.7 C226.29 267.79, 228.76 268.25, 230.74 267.93 C232.71 267.61, 233.98 266.48, 235.19 265.76 C236.41 265.04, 236.68 264.41, 238.03 263.6 C239.39 262.78, 243.16 260.69, 243.34 260.87 C243.53 261.05, 240.31 263.4, 239.15 264.67 C237.98 265.94, 236.88 266.74, 236.34 268.49 C235.79 270.24, 235.29 273.44, 235.9 275.17 C236.5 276.9, 238.29 277.87, 239.97 278.86 C241.64 279.84, 243.44 280.59, 245.95 281.07 C248.46 281.56, 250.39 281.62, 255.04 281.77 C259.69 281.92, 268.31 281.98, 273.85 281.98 C279.39 281.98, 284.36 282.2, 288.29 281.77 C292.22 281.34, 294.86 281.14, 297.44 279.4 C300.03 277.65, 302.41 273.42, 303.79 271.3 C305.16 269.19, 305.18 268.39, 305.71 266.69 C306.25 264.99, 306.57 263.39, 306.99 261.11 C307.42 258.84, 308.09 256.64, 308.27 253.06 C308.44 249.48, 308.24 242.92, 308.05 239.63 C307.86 236.34, 307.59 235.7, 307.12 233.32 C306.66 230.93, 306.17 228.19, 305.26 225.29 C304.34 222.4, 302.95 219.01, 301.62 215.93 C300.29 212.85, 298.98 209.85, 297.26 206.81 C295.54 203.78, 293.54 201.07, 291.3 197.7 C289.05 194.34, 286.46 189.93, 283.81 186.62 C281.16 183.31, 277.27 179.73, 275.38 177.84 C273.48 175.96, 272.98 176.16, 272.43 175.31 C271.88 174.46, 272.32 174.64, 272.08 172.74 C271.84 170.84, 271.61 166.86, 270.98 163.93 C270.36 160.99, 269.3 158.45, 268.32 155.1 C267.33 151.75, 266.43 147.69, 265.08 143.84 C263.73 140, 261.86 135.65, 260.23 132.01 C258.59 128.36, 257.26 125.17, 255.28 121.99 C253.31 118.81, 251 116.03, 248.38 112.93 C245.76 109.84, 243.02 106.48, 239.56 103.42 C236.1 100.36, 231.69 97.07, 227.61 94.56 C223.53 92.05, 219.7 90.24, 215.09 88.37 C210.49 86.5, 206 84.54, 199.97 83.35 C193.94 82.16, 185.15 81.52, 178.92 81.23 C172.69 80.93, 166.92 80.86, 162.6 81.57 C158.27 82.28, 156.02 84.68, 152.97 85.46 C149.92 86.24, 147.39 86.3, 144.31 86.25 C141.24 86.2, 137.56 85.9, 134.51 85.16 C131.46 84.42, 128.57 83.43, 126.02 81.8 C123.47 80.18, 121.73 78.34, 119.22 75.42 C116.72 72.5, 113.47 67.89, 110.99 64.29 C108.52 60.69, 106.63 57.38, 104.37 53.82 C102.11 50.26, 99.47 45.49, 97.44 42.92 C95.41 40.35, 93.44 39.51, 92.19 38.41 C90.95 37.31, 90.17 37.73, 89.99 36.32 C89.8 34.91, 90.59 32.4, 91.08 29.95 C91.57 27.51, 92.47 25.02, 92.93 21.67 C93.39 18.32, 93.6 14.47, 93.85 9.86 C94.1 5.25, 94.39 -1.33, 94.44 -5.98 C94.5 -10.63, 94.46 -14.51, 94.2 -18.06 C93.94 -21.61, 93.67 -24.92, 92.89 -27.26 C92.12 -29.61, 91.19 -30.46, 89.54 -32.11 C87.89 -33.77, 85.62 -35.78, 82.97 -37.21 C80.32 -38.65, 76.73 -39.78, 73.62 -40.74 C70.5 -41.71, 67.45 -42.52, 64.26 -43 C61.07 -43.49, 57.13 -43.47, 54.47 -43.65 C51.81 -43.82, 49.74 -44.17, 48.28 -44.05 C46.81 -43.92, 46.46 -42.86, 45.68 -42.89 C44.89 -42.92, 44.51 -43.65, 43.54 -44.23 C42.57 -44.82, 41.18 -45.93, 39.86 -46.41 C38.54 -46.9, 37.02 -47.15, 35.63 -47.14 C34.24 -47.13, 32.61 -46.64, 31.54 -46.36 C30.47 -46.08, 29.96 -45.59, 29.21 -45.47 C28.45 -45.35, 27.75 -45.35, 27.04 -45.63 C26.32 -45.9, 26.37 -46.88, 24.92 -47.13 C23.46 -47.39, 20.06 -47.54, 18.29 -47.14 C16.52 -46.74, 15.4 -45.46, 14.29 -44.73 C13.18 -44, 12.4 -43.39, 11.63 -42.76 C10.87 -42.13, 10.31 -41.51, 9.73 -40.94 C9.14 -40.36, 8.9 -39.88, 8.1 -39.33 C7.31 -38.79, 6.12 -38.16, 4.95 -37.66 C3.79 -37.17, 1.66 -36.93, 1.12 -36.35 C0.59 -35.78, 1.43 -34.7, 1.72 -34.21 C2.02 -33.71, 2.72 -33.53, 2.92 -33.4" stroke="#E1E1E1" stroke-width="2" fill="none"/></g></g><mask/><g stroke-linecap="round"><g transform="translate(147.1459140463703 93.3673469132539) rotate(0 0.3662762675899103 22.936342650651795)"><path d="M0 0 C-0.15 0.43, -0.76 1.33, -0.91 2.56 C-1.05 3.78, -1.13 5.8, -0.87 7.37 C-0.62 8.93, 0.37 10.13, 0.63 11.92 C0.88 13.71, 0.92 15.51, 0.64 18.11 C0.35 20.72, -0.29 24.35, -1.09 27.56 C-1.88 30.77, -3.09 34.73, -4.14 37.37 C-5.19 40, -7.06 41.94, -7.39 43.36 C-7.71 44.78, -7 46.02, -6.07 45.87 C-5.15 45.73, -3.21 44.02, -1.84 42.5 C-0.47 40.99, 0.81 39.01, 2.14 36.76 C3.47 34.51, 5.17 31.5, 6.17 29.01 C7.16 26.52, 7.85 24.4, 8.12 21.83 C8.38 19.26, 8.04 16.13, 7.75 13.59 C7.47 11.06, 7.11 8.5, 6.39 6.61 C5.68 4.73, 4.28 3.4, 3.47 2.3 C2.66 1.21, 2.11 0.43, 1.53 0.04 C0.95 -0.34, 0.25 0.01, 0 0 M0 0 C-0.15 0.43, -0.76 1.33, -0.91 2.56 C-1.05 3.78, -1.13 5.8, -0.87 7.37 C-0.62 8.93, 0.37 10.13, 0.63 11.92 C0.88 13.71, 0.92 15.51, 0.64 18.11 C0.35 20.72, -0.29 24.35, -1.09 27.56 C-1.88 30.77, -3.09 34.73, -4.14 37.37 C-5.19 40, -7.06 41.94, -7.39 43.36 C-7.71 44.78, -7 46.02, -6.07 45.87 C-5.15 45.73, -3.21 44.02, -1.84 42.5 C-0.47 40.99, 0.81 39.01, 2.14 36.76 C3.47 34.51, 5.17 31.5, 6.17 29.01 C7.16 26.52, 7.85 24.4, 8.12 21.83 C8.38 19.26, 8.04 16.13, 7.75 13.59 C7.47 11.06, 7.11 8.5, 6.39 6.61 C5.68 4.73, 4.28 3.4, 3.47 2.3 C2.66 1.21, 2.11 0.43, 1.53 0.04 C0.95 -0.34, 0.25 0.01, 0 0" stroke="#E1E1E1" stroke-width="2" fill="none"/></g></g><mask/><g stroke-linecap="round"><g transform="translate(153.1167766252829 107.30205750499425) rotate(0 -4.492045269282016 11.138047579915877)"><path d="M0 0 C0.04 1, 0.43 4, 0.26 6 C0.08 8.01, -0.62 10.33, -1.07 12.02 C-1.51 13.71, -1.74 14.51, -2.42 16.14 C-3.1 17.77, -4.01 19.88, -5.14 21.81 C-6.28 23.75, -8.89 28.05, -9.24 27.74 C-9.59 27.43, -8.08 22.84, -7.22 19.94 C-6.37 17.04, -4.84 13.06, -4.09 10.35 C-3.34 7.63, -2.95 5.98, -2.73 3.64 C-2.51 1.31, -2.94 -2.14, -2.79 -3.65 C-2.65 -5.17, -2.24 -5.6, -1.86 -5.46 C-1.48 -5.32, -0.82 -3.72, -0.51 -2.81 C-0.2 -1.9, -0.09 -0.47, 0 0 M0 0 C0.04 1, 0.43 4, 0.26 6 C0.08 8.01, -0.62 10.33, -1.07 12.02 C-1.51 13.71, -1.74 14.51, -2.42 16.14 C-3.1 17.77, -4.01 19.88, -5.14 21.81 C-6.28 23.75, -8.89 28.05, -9.24 27.74 C-9.59 27.43, -8.08 22.84, -7.22 19.94 C-6.37 17.04, -4.84 13.06, -4.09 10.35 C-3.34 7.63, -2.95 5.98, -2.73 3.64 C-2.51 1.31, -2.94 -2.14, -2.79 -3.65 C-2.65 -5.17, -2.24 -5.6, -1.86 -5.46 C-1.48 -5.32, -0.82 -3.72, -0.51 -2.81 C-0.2 -1.9, -0.09 -0.47, 0 0" stroke="#E1E1E1" stroke-width="2" fill="none"/></g></g><mask/><g stroke-linecap="round"><g transform="translate(166.0663955142213 117.11530866321786) rotate(0 -7.641627909438057 13.48469610847988)"><path d="M0 0 C-0.25 -1, -0.8 -4.32, -1.5 -6.03 C-2.2 -7.73, -3.07 -9.08, -4.21 -10.23 C-5.34 -11.39, -7.57 -13.02, -8.31 -12.95 C-9.06 -12.87, -8.83 -11.51, -8.67 -9.77 C-8.51 -8.03, -7.73 -5.65, -7.35 -2.49 C-6.97 0.67, -6 5.13, -6.4 9.19 C-6.8 13.25, -8.42 18.32, -9.74 21.88 C-11.05 25.43, -13.16 27.99, -14.29 30.51 C-15.43 33.04, -16.44 35.47, -16.55 37.04 C-16.66 38.6, -16.22 40.59, -14.95 39.92 C-13.68 39.24, -10.97 35.78, -8.92 33.01 C-6.86 30.24, -4.2 26.62, -2.6 23.29 C-1.01 19.96, 0.02 16.12, 0.67 13.05 C1.31 9.97, 1.38 7.03, 1.27 4.85 C1.15 2.68, 0.21 0.81, 0 0 M0 0 C-0.25 -1, -0.8 -4.32, -1.5 -6.03 C-2.2 -7.73, -3.07 -9.08, -4.21 -10.23 C-5.34 -11.39, -7.57 -13.02, -8.31 -12.95 C-9.06 -12.87, -8.83 -11.51, -8.67 -9.77 C-8.51 -8.03, -7.73 -5.65, -7.35 -2.49 C-6.97 0.67, -6 5.13, -6.4 9.19 C-6.8 13.25, -8.42 18.32, -9.74 21.88 C-11.05 25.43, -13.16 27.99, -14.29 30.51 C-15.43 33.04, -16.44 35.47, -16.55 37.04 C-16.66 38.6, -16.22 40.59, -14.95 39.92 C-13.68 39.24, -10.97 35.78, -8.92 33.01 C-6.86 30.24, -4.2 26.62, -2.6 23.29 C-1.01 19.96, 0.02 16.12, 0.67 13.05 C1.31 9.97, 1.38 7.03, 1.27 4.85 C1.15 2.68, 0.21 0.81, 0 0" stroke="#E1E1E1" stroke-width="2" fill="none"/></g></g><mask/><g stroke-linecap="round"><g transform="translate(160.46658386652598 108.66566303005965) rotate(0 -1.5047142308744696 21.768269217182237)"><path d="M0 0 C0.3 0.29, 1.31 0.58, 1.82 1.75 C2.33 2.93, 2.61 5.47, 3.06 7.04 C3.52 8.6, 4.26 9.58, 4.57 11.12 C4.88 12.66, 5.04 13.97, 4.92 16.27 C4.79 18.58, 4.64 21.62, 3.84 24.94 C3.04 28.26, 1.76 33.28, 0.12 36.2 C-1.53 39.12, -4.7 41.24, -6.04 42.46 C-7.38 43.68, -8.09 44.43, -7.93 43.54 C-7.76 42.64, -6.14 39.44, -5.06 37.07 C-3.98 34.7, -2.4 32.78, -1.45 29.34 C-0.5 25.89, 0.36 20.41, 0.64 16.39 C0.92 12.38, 0.38 7.89, 0.24 5.23 C0.1 2.57, -0.11 1.24, -0.18 0.44 M0 0 C0.3 0.29, 1.31 0.58, 1.82 1.75 C2.33 2.93, 2.61 5.47, 3.06 7.04 C3.52 8.6, 4.26 9.58, 4.57 11.12 C4.88 12.66, 5.04 13.97, 4.92 16.27 C4.79 18.58, 4.64 21.62, 3.84 24.94 C3.04 28.26, 1.76 33.28, 0.12 36.2 C-1.53 39.12, -4.7 41.24, -6.04 42.46 C-7.38 43.68, -8.09 44.43, -7.93 43.54 C-7.76 42.64, -6.14 39.44, -5.06 37.07 C-3.98 34.7, -2.4 32.78, -1.45 29.34 C-0.5 25.89, 0.36 20.41, 0.64 16.39 C0.92 12.38, 0.38 7.89, 0.24 5.23 C0.1 2.57, -0.11 1.24, -0.18 0.44" stroke="#E1E1E1" stroke-width="2" fill="none"/></g></g><mask/><g stroke-linecap="round"><g transform="translate(328.4580809906761 307.461843695071) rotate(0 13.76087199022254 5.071300452109142)"><path d="M0 0 C0.33 0.01, 1.14 -0.07, 1.98 0.06 C2.81 0.18, 3.79 0.48, 5.02 0.75 C6.25 1.03, 7.33 1.41, 9.37 1.7 C11.42 1.98, 15.11 2.22, 17.3 2.47 C19.49 2.72, 20.62 2.84, 22.51 3.2 C24.41 3.56, 27.31 4.05, 28.68 4.63 C30.05 5.2, 30.57 6.08, 30.73 6.65 C30.89 7.22, 30.42 7.54, 29.64 8.03 C28.87 8.53, 27.95 9.24, 26.08 9.59 C24.22 9.94, 21.35 10.18, 18.46 10.14 C15.56 10.1, 11.25 9.68, 8.71 9.34 C6.17 9.01, 4.97 8.57, 3.21 8.13 C1.45 7.68, -0.77 7.55, -1.84 6.68 C-2.91 5.8, -3.12 3.89, -3.21 2.88 C-3.29 1.87, -2.9 1.12, -2.37 0.64 C-1.83 0.16, -0.39 0.11, 0 0 M0 0 C0.33 0.01, 1.14 -0.07, 1.98 0.06 C2.81 0.18, 3.79 0.48, 5.02 0.75 C6.25 1.03, 7.33 1.41, 9.37 1.7 C11.42 1.98, 15.11 2.22, 17.3 2.47 C19.49 2.72, 20.62 2.84, 22.51 3.2 C24.41 3.56, 27.31 4.05, 28.68 4.63 C30.05 5.2, 30.57 6.08, 30.73 6.65 C30.89 7.22, 30.42 7.54, 29.64 8.03 C28.87 8.53, 27.95 9.24, 26.08 9.59 C24.22 9.94, 21.35 10.18, 18.46 10.14 C15.56 10.1, 11.25 9.68, 8.71 9.34 C6.17 9.01, 4.97 8.57, 3.21 8.13 C1.45 7.68, -0.77 7.55, -1.84 6.68 C-2.91 5.8, -3.12 3.89, -3.21 2.88 C-3.29 1.87, -2.9 1.12, -2.37 0.64 C-1.83 0.16, -0.39 0.11, 0 0" stroke="#E1E1E1" stroke-width="2" fill="none"/></g></g><mask/><g stroke-linecap="round"><g transform="translate(328.61222830400675 310.36793017986827) rotate(0 13.38924313777511 2.746653366536748)"><path d="M0 0 C0.91 0.07, 3.76 0.21, 5.46 0.41 C7.17 0.61, 8.94 0.88, 10.24 1.19 C11.54 1.51, 12.03 2.02, 13.26 2.31 C14.48 2.61, 16.1 2.83, 17.58 2.95 C19.07 3.07, 20.81 3.03, 22.17 3.03 C23.53 3.03, 24.95 2.83, 25.74 2.95 C26.53 3.07, 26.87 3.34, 26.9 3.73 C26.92 4.11, 26.79 4.99, 25.89 5.29 C25 5.58, 23.3 5.5, 21.53 5.49 C19.76 5.49, 17.03 5.43, 15.28 5.24 C13.53 5.05, 12.38 4.63, 11.02 4.35 C9.65 4.06, 8.35 3.8, 7.11 3.55 C5.87 3.31, 4.77 3.15, 3.56 2.89 C2.36 2.63, 0.48 2.47, -0.12 1.99 C-0.71 1.51, -0.02 0.33, 0 0 M0 0 C0.91 0.07, 3.76 0.21, 5.46 0.41 C7.17 0.61, 8.94 0.88, 10.24 1.19 C11.54 1.51, 12.03 2.02, 13.26 2.31 C14.48 2.61, 16.1 2.83, 17.58 2.95 C19.07 3.07, 20.81 3.03, 22.17 3.03 C23.53 3.03, 24.95 2.83, 25.74 2.95 C26.53 3.07, 26.87 3.34, 26.9 3.73 C26.92 4.11, 26.79 4.99, 25.89 5.29 C25 5.58, 23.3 5.5, 21.53 5.49 C19.76 5.49, 17.03 5.43, 15.28 5.24 C13.53 5.05, 12.38 4.63, 11.02 4.35 C9.65 4.06, 8.35 3.8, 7.11 3.55 C5.87 3.31, 4.77 3.15, 3.56 2.89 C2.36 2.63, 0.48 2.47, -0.12 1.99 C-0.71 1.51, -0.02 0.33, 0 0" stroke="#E1E1E1" stroke-width="2" fill="none"/></g></g><mask/><g stroke-linecap="round"><g transform="translate(325.1427209474905 297.0795332429385) rotate(0 17.408565017541605 4.8671585756792695)"><path d="M0 0 C0.6 0.03, 2.22 -0.01, 3.6 0.18 C4.98 0.37, 7.48 0.98, 8.27 1.15 C9.05 1.32, 7.36 1.04, 8.33 1.22 C9.3 1.4, 11.88 1.91, 14.1 2.23 C16.32 2.55, 19.46 2.7, 21.64 3.17 C23.82 3.63, 25.3 4.59, 27.17 5.01 C29.04 5.42, 31.22 5.39, 32.86 5.64 C34.51 5.88, 36.39 5.99, 37.04 6.49 C37.69 6.99, 37.71 8.16, 36.77 8.65 C35.83 9.15, 33.77 9.28, 31.41 9.46 C29.05 9.64, 25.35 9.87, 22.6 9.73 C19.84 9.6, 17.12 8.98, 14.88 8.64 C12.64 8.29, 10.72 7.9, 9.16 7.66 C7.6 7.42, 7.11 7.44, 5.53 7.2 C3.95 6.96, 0.97 6.98, -0.32 6.22 C-1.61 5.46, -2 3.53, -2.22 2.65 C-2.44 1.77, -2.02 1.36, -1.65 0.92 C-1.28 0.47, -0.27 0.15, 0 0 M0 0 C0.6 0.03, 2.22 -0.01, 3.6 0.18 C4.98 0.37, 7.48 0.98, 8.27 1.15 C9.05 1.32, 7.36 1.04, 8.33 1.22 C9.3 1.4, 11.88 1.91, 14.1 2.23 C16.32 2.55, 19.46 2.7, 21.64 3.17 C23.82 3.63, 25.3 4.59, 27.17 5.01 C29.04 5.42, 31.22 5.39, 32.86 5.64 C34.51 5.88, 36.39 5.99, 37.04 6.49 C37.69 6.99, 37.71 8.16, 36.77 8.65 C35.83 9.15, 33.77 9.28, 31.41 9.46 C29.05 9.64, 25.35 9.87, 22.6 9.73 C19.84 9.6, 17.12 8.98, 14.88 8.64 C12.64 8.29, 10.72 7.9, 9.16 7.66 C7.6 7.42, 7.11 7.44, 5.53 7.2 C3.95 6.96, 0.97 6.98, -0.32 6.22 C-1.61 5.46, -2 3.53, -2.22 2.65 C-2.44 1.77, -2.02 1.36, -1.65 0.92 C-1.28 0.47, -0.27 0.15, 0 0" stroke="#E1E1E1" stroke-width="2" fill="none"/></g></g><mask/><g stroke-linecap="round"><g transform="translate(329.80633049435846 299.84776044512284) rotate(0 10.99183776069799 2.7448051183114046)"><path d="M0 0 C0.46 0.09, 1.17 0.27, 2.77 0.56 C4.38 0.84, 7.7 1.36, 9.63 1.72 C11.56 2.08, 12.72 2.35, 14.35 2.73 C15.99 3.1, 17.74 3.66, 19.43 3.96 C21.12 4.26, 23.69 4.33, 24.5 4.52 C25.31 4.72, 25.3 4.96, 24.29 5.12 C23.27 5.28, 20.11 5.5, 18.43 5.49 C16.75 5.47, 15.73 5.2, 14.2 5.03 C12.68 4.86, 10.6 4.71, 9.28 4.48 C7.96 4.25, 7.35 3.84, 6.3 3.62 C5.26 3.41, 4.15 3.42, 3.01 3.18 C1.88 2.95, 0.42 2.61, -0.5 2.2 C-1.42 1.8, -2.6 1.13, -2.52 0.76 C-2.43 0.4, -0.42 0.13, 0 0 M0 0 C0.46 0.09, 1.17 0.27, 2.77 0.56 C4.38 0.84, 7.7 1.36, 9.63 1.72 C11.56 2.08, 12.72 2.35, 14.35 2.73 C15.99 3.1, 17.74 3.66, 19.43 3.96 C21.12 4.26, 23.69 4.33, 24.5 4.52 C25.31 4.72, 25.3 4.96, 24.29 5.12 C23.27 5.28, 20.11 5.5, 18.43 5.49 C16.75 5.47, 15.73 5.2, 14.2 5.03 C12.68 4.86, 10.6 4.71, 9.28 4.48 C7.96 4.25, 7.35 3.84, 6.3 3.62 C5.26 3.41, 4.15 3.42, 3.01 3.18 C1.88 2.95, 0.42 2.61, -0.5 2.2 C-1.42 1.8, -2.6 1.13, -2.52 0.76 C-2.43 0.4, -0.42 0.13, 0 0" stroke="#E1E1E1" stroke-width="2" fill="none"/></g></g><mask/></svg>