<svg version="1.1" xmlns="http://www.w3.org/2000/svg" viewBox="0 0 186.79081066209255 271.44688913455434" width="186.79081066209255" height="271.44688913455434" class="excalidraw-svg"><!-- svg-source:excalidraw --><metadata></metadata><defs><style class="style-fonts">
      </style></defs><rect x="0" y="0" width="186.79081066209255" height="271.44688913455434" fill="#000000"></rect><g stroke-linecap="round"><g transform="translate(81.33643466540343 111.5177306084795) rotate(0 11.079495622434592 -17.527733481974906)"><path d="M0 0 C-1.94 -1.52, -7.48 -6.21, -11.62 -9.13 C-15.77 -12.05, -21.03 -13.87, -24.88 -17.5 C-28.74 -21.13, -33.18 -27.04, -34.74 -30.89 C-36.31 -34.74, -36.01 -38.07, -34.27 -40.58 C-32.53 -43.09, -28.31 -45.13, -24.31 -45.98 C-20.32 -46.82, -14.61 -46.25, -10.3 -45.66 C-5.99 -45.07, -3.02 -44.26, 1.54 -42.45 C6.1 -40.63, 12.43 -36.79, 17.07 -34.79 C21.71 -32.79, 25.1 -31.16, 29.39 -30.46 C33.67 -29.76, 38.29 -29.7, 42.8 -30.61 C47.32 -31.52, 54.13 -36.52, 56.48 -35.92 C58.83 -35.31, 58.64 -30.32, 56.9 -26.97 C55.16 -23.63, 49.92 -18.84, 46.06 -15.84 C42.21 -12.85, 37.55 -11.47, 33.78 -9.03 C30.01 -6.58, 26.22 -4.08, 23.45 -1.15 C20.68 1.78, 19.11 6.54, 17.15 8.55 C15.2 10.56, 13.45 11.07, 11.72 10.92 C9.98 10.77, 8.68 9.49, 6.73 7.67 C4.77 5.84, 1.12 1.28, 0 0 M0 0 C-1.94 -1.52, -7.48 -6.21, -11.62 -9.13 C-15.77 -12.05, -21.03 -13.87, -24.88 -17.5 C-28.74 -21.13, -33.18 -27.04, -34.74 -30.89 C-36.31 -34.74, -36.01 -38.07, -34.27 -40.58 C-32.53 -43.09, -28.31 -45.13, -24.31 -45.98 C-20.32 -46.82, -14.61 -46.25, -10.3 -45.66 C-5.99 -45.07, -3.02 -44.26, 1.54 -42.45 C6.1 -40.63, 12.43 -36.79, 17.07 -34.79 C21.71 -32.79, 25.1 -31.16, 29.39 -30.46 C33.67 -29.76, 38.29 -29.7, 42.8 -30.61 C47.32 -31.52, 54.13 -36.52, 56.48 -35.92 C58.83 -35.31, 58.64 -30.32, 56.9 -26.97 C55.16 -23.63, 49.92 -18.84, 46.06 -15.84 C42.21 -12.85, 37.55 -11.47, 33.78 -9.03 C30.01 -6.58, 26.22 -4.08, 23.45 -1.15 C20.68 1.78, 19.11 6.54, 17.15 8.55 C15.2 10.56, 13.45 11.07, 11.72 10.92 C9.98 10.77, 8.68 9.49, 6.73 7.67 C4.77 5.84, 1.12 1.28, 0 0" stroke="#E1E1E1" stroke-width="4" fill="none"></path></g></g><mask></mask><g stroke-linecap="round"><g transform="translate(35.165638782097176 245.01100425944787) rotate(0 58.520389949458604 -25.385729984494674)"><path d="M0 0 C0.96 -2.24, 2.58 -8.08, 5.74 -13.47 C8.89 -18.85, 13.64 -26.9, 18.94 -32.32 C24.24 -37.75, 31.53 -42.93, 37.53 -46.01 C43.54 -49.08, 49.33 -50.2, 54.99 -50.77 C60.64 -51.34, 66.45 -50.59, 71.46 -49.41 C76.47 -48.22, 79.95 -47.13, 85.03 -43.67 C90.1 -40.21, 97.59 -33.38, 101.9 -28.64 C106.21 -23.9, 108.37 -19.85, 110.89 -15.24 C113.42 -10.63, 116.02 -3.36, 117.04 -0.98 M0 0 C0.96 -2.24, 2.58 -8.08, 5.74 -13.47 C8.89 -18.85, 13.64 -26.9, 18.94 -32.32 C24.24 -37.75, 31.53 -42.93, 37.53 -46.01 C43.54 -49.08, 49.33 -50.2, 54.99 -50.77 C60.64 -51.34, 66.45 -50.59, 71.46 -49.41 C76.47 -48.22, 79.95 -47.13, 85.03 -43.67 C90.1 -40.21, 97.59 -33.38, 101.9 -28.64 C106.21 -23.9, 108.37 -19.85, 110.89 -15.24 C113.42 -10.63, 116.02 -3.36, 117.04 -0.98" stroke="#E1E1E1" stroke-width="4" fill="none"></path></g></g><mask></mask><g stroke-linecap="round"><g transform="translate(159.52632945709718 244.73250728784046) rotate(0 -25.42957301241381 -108.45295504657241)"><path d="M0 0 C0.04 -3.55, 0.37 -14.06, 0.26 -21.28 C0.15 -28.5, 0.42 -36.82, -0.65 -43.32 C-1.73 -49.82, -3.74 -55.27, -6.21 -60.27 C-8.68 -65.26, -11.01 -69.15, -15.47 -73.27 C-19.94 -77.4, -28.3 -81.71, -33 -84.99 C-37.69 -88.28, -40.73 -90.11, -43.64 -93 C-46.55 -95.88, -49.16 -99.14, -50.45 -102.32 C-51.75 -105.5, -52 -108.89, -51.41 -112.08 C-50.83 -115.27, -49.42 -118.43, -46.94 -121.46 C-44.46 -124.49, -40.54 -127.26, -36.52 -130.23 C-32.5 -133.2, -26.3 -136.76, -22.81 -139.27 C-19.32 -141.79, -17.88 -143.15, -15.6 -145.3 C-13.32 -147.46, -11.33 -148.63, -9.11 -152.19 C-6.9 -155.76, -3.89 -161.8, -2.31 -166.69 C-0.74 -171.58, -0.15 -175.8, 0.33 -181.53 C0.8 -187.26, 0.62 -195.17, 0.56 -201.06 C0.49 -206.96, 0.05 -214.27, -0.05 -216.91 M0 0 C0.04 -3.55, 0.37 -14.06, 0.26 -21.28 C0.15 -28.5, 0.42 -36.82, -0.65 -43.32 C-1.73 -49.82, -3.74 -55.27, -6.21 -60.27 C-8.68 -65.26, -11.01 -69.15, -15.47 -73.27 C-19.94 -77.4, -28.3 -81.71, -33 -84.99 C-37.69 -88.28, -40.73 -90.11, -43.64 -93 C-46.55 -95.88, -49.16 -99.14, -50.45 -102.32 C-51.75 -105.5, -52 -108.89, -51.41 -112.08 C-50.83 -115.27, -49.42 -118.43, -46.94 -121.46 C-44.46 -124.49, -40.54 -127.26, -36.52 -130.23 C-32.5 -133.2, -26.3 -136.76, -22.81 -139.27 C-19.32 -141.79, -17.88 -143.15, -15.6 -145.3 C-13.32 -147.46, -11.33 -148.63, -9.11 -152.19 C-6.9 -155.76, -3.89 -161.8, -2.31 -166.69 C-0.74 -171.58, -0.15 -175.8, 0.33 -181.53 C0.8 -187.26, 0.62 -195.17, 0.56 -201.06 C0.49 -206.96, 0.05 -214.27, -0.05 -216.91" stroke="#E1E1E1" stroke-width="4" fill="none"></path></g></g><mask></mask><g stroke-linecap="round"><g transform="translate(26.86620672896322 28.145075966418744) rotate(0 25.16083522155799 108.29992660365485)"><path d="M0 0 C-0.03 2.98, -0.19 11.93, -0.17 17.87 C-0.15 23.81, -0.37 30.33, 0.1 35.65 C0.57 40.96, 1.07 45.08, 2.64 49.75 C4.2 54.41, 6.8 59.59, 9.49 63.64 C12.18 67.69, 14.6 70.53, 18.77 74.04 C22.94 77.56, 30.13 81.55, 34.5 84.73 C38.88 87.91, 42.29 90.15, 45.02 93.14 C47.76 96.13, 50 99.18, 50.93 102.68 C51.87 106.19, 51.62 110.84, 50.62 114.19 C49.61 117.53, 48.18 119.53, 44.89 122.76 C41.6 125.99, 35.56 130.19, 30.88 133.57 C26.19 136.95, 20.68 139.54, 16.79 143.05 C12.89 146.55, 10.03 150.34, 7.53 154.6 C5.02 158.86, 3.13 163.91, 1.77 168.61 C0.41 173.3, -0.26 176.93, -0.61 182.77 C-0.97 188.61, -0.43 198.03, -0.36 203.67 C-0.29 209.31, -0.23 214.44, -0.2 216.6 M0 0 C-0.03 2.98, -0.19 11.93, -0.17 17.87 C-0.15 23.81, -0.37 30.33, 0.1 35.65 C0.57 40.96, 1.07 45.08, 2.64 49.75 C4.2 54.41, 6.8 59.59, 9.49 63.64 C12.18 67.69, 14.6 70.53, 18.77 74.04 C22.94 77.56, 30.13 81.55, 34.5 84.73 C38.88 87.91, 42.29 90.15, 45.02 93.14 C47.76 96.13, 50 99.18, 50.93 102.68 C51.87 106.19, 51.62 110.84, 50.62 114.19 C49.61 117.53, 48.18 119.53, 44.89 122.76 C41.6 125.99, 35.56 130.19, 30.88 133.57 C26.19 136.95, 20.68 139.54, 16.79 143.05 C12.89 146.55, 10.03 150.34, 7.53 154.6 C5.02 158.86, 3.13 163.91, 1.77 168.61 C0.41 173.3, -0.26 176.93, -0.61 182.77 C-0.97 188.61, -0.43 198.03, -0.36 203.67 C-0.29 209.31, -0.23 214.44, -0.2 216.6" stroke="#E1E1E1" stroke-width="4" fill="none"></path></g></g><mask></mask><g stroke-linecap="round"><g transform="translate(78.1844739618848 245.15669123967143) rotate(0 15.223360100596722 7.871669416617806)"><path d="M0 0 C-6.2 -0.09, -27.67 -0.51, -37.2 -0.55 C-46.74 -0.59, -52.29 -0.37, -57.21 -0.24 C-62.13 -0.1, -64.92 -1.22, -66.71 0.28 C-68.5 1.78, -68.11 6.27, -67.95 8.75 C-67.79 11.23, -69.44 13.96, -65.77 15.16 C-62.1 16.35, -54.54 15.83, -45.95 15.94 C-37.36 16.04, -26.17 15.74, -14.24 15.8 C-2.3 15.86, 10.91 16.3, 25.66 16.29 C40.41 16.28, 62.59 15.89, 74.27 15.75 C85.96 15.62, 91.74 16.48, 95.76 15.48 C99.78 14.48, 98.18 12.19, 98.4 9.74 C98.61 7.3, 99.06 2.43, 97.04 0.81 C95.01 -0.8, 91.98 0.22, 86.26 0.04 C80.54 -0.14, 73.46 -0.18, 62.69 -0.25 C51.92 -0.32, 32.09 -0.42, 21.64 -0.38 C11.19 -0.33, 3.61 -0.06, 0 0 M0 0 C-6.2 -0.09, -27.67 -0.51, -37.2 -0.55 C-46.74 -0.59, -52.29 -0.37, -57.21 -0.24 C-62.13 -0.1, -64.92 -1.22, -66.71 0.28 C-68.5 1.78, -68.11 6.27, -67.95 8.75 C-67.79 11.23, -69.44 13.96, -65.77 15.16 C-62.1 16.35, -54.54 15.83, -45.95 15.94 C-37.36 16.04, -26.17 15.74, -14.24 15.8 C-2.3 15.86, 10.91 16.3, 25.66 16.29 C40.41 16.28, 62.59 15.89, 74.27 15.75 C85.96 15.62, 91.74 16.48, 95.76 15.48 C99.78 14.48, 98.18 12.19, 98.4 9.74 C98.61 7.3, 99.06 2.43, 97.04 0.81 C95.01 -0.8, 91.98 0.22, 86.26 0.04 C80.54 -0.14, 73.46 -0.18, 62.69 -0.25 C51.92 -0.32, 32.09 -0.42, 21.64 -0.38 C11.19 -0.33, 3.61 -0.06, 0 0" stroke="#E1E1E1" stroke-width="4" fill="none"></path></g></g><mask></mask><g stroke-linecap="round"><g transform="translate(78.19711224202877 10.551514865771537) rotate(0 15.223360100596722 7.871669416617777)"><path d="M0 0 C-6.2 -0.09, -27.67 -0.51, -37.2 -0.55 C-46.74 -0.59, -52.29 -0.37, -57.21 -0.24 C-62.13 -0.1, -64.92 -1.22, -66.71 0.28 C-68.5 1.78, -68.11 6.27, -67.95 8.75 C-67.79 11.23, -69.44 13.96, -65.77 15.16 C-62.1 16.35, -54.54 15.83, -45.95 15.94 C-37.36 16.04, -26.17 15.74, -14.24 15.8 C-2.3 15.86, 10.91 16.3, 25.66 16.29 C40.41 16.28, 62.59 15.89, 74.27 15.75 C85.96 15.62, 91.74 16.48, 95.76 15.48 C99.78 14.48, 98.18 12.19, 98.4 9.74 C98.61 7.3, 99.06 2.43, 97.04 0.81 C95.01 -0.8, 91.98 0.22, 86.26 0.04 C80.54 -0.14, 73.46 -0.18, 62.69 -0.25 C51.92 -0.32, 32.09 -0.42, 21.64 -0.38 C11.19 -0.33, 3.61 -0.06, 0 0 M0 0 C-6.2 -0.09, -27.67 -0.51, -37.2 -0.55 C-46.74 -0.59, -52.29 -0.37, -57.21 -0.24 C-62.13 -0.1, -64.92 -1.22, -66.71 0.28 C-68.5 1.78, -68.11 6.27, -67.95 8.75 C-67.79 11.23, -69.44 13.96, -65.77 15.16 C-62.1 16.35, -54.54 15.83, -45.95 15.94 C-37.36 16.04, -26.17 15.74, -14.24 15.8 C-2.3 15.86, 10.91 16.3, 25.66 16.29 C40.41 16.28, 62.59 15.89, 74.27 15.75 C85.96 15.62, 91.74 16.48, 95.76 15.48 C99.78 14.48, 98.18 12.19, 98.4 9.74 C98.61 7.3, 99.06 2.43, 97.04 0.81 C95.01 -0.8, 91.98 0.22, 86.26 0.04 C80.54 -0.14, 73.46 -0.18, 62.69 -0.25 C51.92 -0.32, 32.09 -0.42, 21.64 -0.38 C11.19 -0.33, 3.61 -0.06, 0 0" stroke="#E1E1E1" stroke-width="4" fill="none"></path></g></g><mask></mask><g stroke-linecap="round"><g transform="translate(43.18998626048369 10.203724887526846) rotate(0 0.05475900086793217 7.784205433819807)"><path d="M0 0 C0.02 2.59, 0.09 12.97, 0.11 15.57 M0 0 C0.02 2.59, 0.09 12.97, 0.11 15.57" stroke="#E1E1E1" stroke-width="2" fill="none"></path></g></g><mask></mask><g stroke-linecap="round"><g transform="translate(76.7822944308947 10.83963724106394) rotate(0 0 7.496857599211239)"><path d="M0 0 C0 2.5, 0 12.49, 0 14.99 M0 0 C0 2.5, 0 12.49, 0 14.99" stroke="#E1E1E1" stroke-width="2" fill="none"></path></g></g><mask></mask><g stroke-linecap="round"><g transform="translate(118.42365498417121 10.446973275912569) rotate(0 -0.1139308643242316 7.75540623064569)"><path d="M0 0 C-0.04 2.59, -0.19 12.93, -0.23 15.51 M0 0 C-0.04 2.59, -0.19 12.93, -0.23 15.51" stroke="#E1E1E1" stroke-width="2" fill="none"></path></g></g><mask></mask><g stroke-linecap="round"><g transform="translate(127.742507070241 27.570172747891036) rotate(0 -16.063526798876296 108.41893143420114)"><path d="M0 0 C0.07 2.92, 0.44 10.99, 0.45 17.52 C0.46 24.06, 0.79 32.19, 0.06 39.23 C-0.67 46.27, -1.39 53.51, -3.93 59.77 C-6.46 66.03, -12.74 73.61, -15.17 76.78 C-17.59 79.94, -16.86 77.42, -18.47 78.75 C-20.08 80.08, -22.49 81.29, -24.8 84.76 C-27.12 88.24, -31 94.86, -32.36 99.61 C-33.72 104.35, -33.45 109.08, -32.98 113.23 C-32.51 117.38, -32.41 120.19, -29.54 124.51 C-26.67 128.83, -19.14 135.53, -15.76 139.13 C-12.39 142.74, -11.33 142.7, -9.3 146.13 C-7.27 149.55, -5.2 154.15, -3.61 159.69 C-2.02 165.22, -0.51 172.09, 0.24 179.33 C0.98 186.56, 0.86 196.83, 0.86 203.08 C0.85 209.33, 0.3 214.54, 0.19 216.84 M0 0 C0.07 2.92, 0.44 10.99, 0.45 17.52 C0.46 24.06, 0.79 32.19, 0.06 39.23 C-0.67 46.27, -1.39 53.51, -3.93 59.77 C-6.46 66.03, -12.74 73.61, -15.17 76.78 C-17.59 79.94, -16.86 77.42, -18.47 78.75 C-20.08 80.08, -22.49 81.29, -24.8 84.76 C-27.12 88.24, -31 94.86, -32.36 99.61 C-33.72 104.35, -33.45 109.08, -32.98 113.23 C-32.51 117.38, -32.41 120.19, -29.54 124.51 C-26.67 128.83, -19.14 135.53, -15.76 139.13 C-12.39 142.74, -11.33 142.7, -9.3 146.13 C-7.27 149.55, -5.2 154.15, -3.61 159.69 C-2.02 165.22, -0.51 172.09, 0.24 179.33 C0.98 186.56, 0.86 196.83, 0.86 203.08 C0.85 209.33, 0.3 214.54, 0.19 216.84" stroke="#E1E1E1" stroke-width="2" fill="none"></path></g></g><mask></mask><g stroke-linecap="round"><g transform="translate(26.596774312688694 236.5313761039015) rotate(0 66.31494241702154 0.5112611275217205)"><path d="M0 0 C6.54 0.05, 24.01 0.24, 39.24 0.29 C54.48 0.34, 75.85 0.18, 91.42 0.3 C106.98 0.42, 125.76 0.9, 132.63 1.02 M0 0 C6.54 0.05, 24.01 0.24, 39.24 0.29 C54.48 0.34, 75.85 0.18, 91.42 0.3 C106.98 0.42, 125.76 0.9, 132.63 1.02" stroke="#E1E1E1" stroke-width="2" fill="none"></path></g></g><mask></mask><g stroke-linecap="round"><g transform="translate(71.69898029815477 199.8910243731384) rotate(0 -0.2524047469974562 22.208104678449104)"><path d="M0 0 C-0.08 7.4, -0.42 37.01, -0.5 44.42 M0 0 C-0.08 7.4, -0.42 37.01, -0.5 44.42" stroke="#E1E1E1" stroke-width="2" fill="none"></path></g></g><mask></mask><g stroke-linecap="round"><g transform="translate(42.98836291671398 244.89439554382932) rotate(0 -0.0269915894033943 7.456966464633467)"><path d="M0 0 C-0.01 2.49, -0.04 12.43, -0.05 14.91 M0 0 C-0.01 2.49, -0.04 12.43, -0.05 14.91" stroke="#E1E1E1" stroke-width="2" fill="none"></path></g></g><mask></mask><g stroke-linecap="round"><g transform="translate(76.46793155308524 245.4918799712649) rotate(0 0.03668859009837888 7.421538123694859)"><path d="M0 0 C0.01 2.47, 0.06 12.37, 0.07 14.84 M0 0 C0.01 2.47, 0.06 12.37, 0.07 14.84" stroke="#E1E1E1" stroke-width="2" fill="none"></path></g></g><mask></mask><g stroke-linecap="round"><g transform="translate(118.63607296723228 244.85653392945324) rotate(0 -0.037747319702759796 7.833155350464949)"><path d="M0 0 C-0.01 2.61, -0.06 13.06, -0.08 15.67 M0 0 C-0.01 2.61, -0.06 13.06, -0.08 15.67" stroke="#E1E1E1" stroke-width="2" fill="none"></path></g></g><mask></mask><g stroke-linecap="round" transform="translate(70.09264398535674 211.07205197443022) rotate(0 2.6610693613706076 1.844439881520259)"><path d="M5.32 1.84 C5.32 1.95, 5.31 2.06, 5.28 2.16 C5.25 2.27, 5.21 2.37, 5.16 2.48 C5.11 2.58, 5.04 2.67, 4.97 2.77 C4.89 2.86, 4.8 2.95, 4.7 3.03 C4.6 3.11, 4.49 3.19, 4.37 3.26 C4.25 3.33, 4.12 3.39, 3.99 3.44 C3.86 3.5, 3.72 3.54, 3.57 3.58 C3.43 3.61, 3.27 3.64, 3.12 3.66 C2.97 3.68, 2.82 3.69, 2.66 3.69 C2.51 3.69, 2.35 3.68, 2.2 3.66 C2.05 3.64, 1.9 3.61, 1.75 3.58 C1.61 3.54, 1.46 3.5, 1.33 3.44 C1.2 3.39, 1.07 3.33, 0.95 3.26 C0.83 3.19, 0.72 3.11, 0.62 3.03 C0.52 2.95, 0.43 2.86, 0.36 2.77 C0.28 2.67, 0.21 2.58, 0.16 2.48 C0.11 2.37, 0.07 2.27, 0.04 2.16 C0.01 2.06, 0 1.95, 0 1.84 C0 1.74, 0.01 1.63, 0.04 1.52 C0.07 1.42, 0.11 1.31, 0.16 1.21 C0.21 1.11, 0.28 1.01, 0.36 0.92 C0.43 0.83, 0.52 0.74, 0.62 0.66 C0.72 0.58, 0.83 0.5, 0.95 0.43 C1.07 0.36, 1.2 0.3, 1.33 0.25 C1.46 0.19, 1.61 0.15, 1.75 0.11 C1.9 0.07, 2.05 0.05, 2.2 0.03 C2.35 0.01, 2.51 0, 2.66 0 C2.82 0, 2.97 0.01, 3.12 0.03 C3.27 0.05, 3.43 0.07, 3.57 0.11 C3.72 0.15, 3.86 0.19, 3.99 0.25 C4.12 0.3, 4.25 0.36, 4.37 0.43 C4.49 0.5, 4.6 0.58, 4.7 0.66 C4.8 0.74, 4.89 0.83, 4.97 0.92 C5.04 1.01, 5.11 1.11, 5.16 1.21 C5.21 1.31, 5.25 1.42, 5.28 1.52 C5.31 1.63, 5.32 1.79, 5.32 1.84 C5.33 1.9, 5.33 1.79, 5.32 1.84" stroke="#E1E1E1" stroke-width="2" fill="none"></path></g><g stroke-linecap="round" transform="translate(59.95821208266034 229.17093348379706) rotate(0 2.5570350788633505 2.5570350788633505)"><path d="M5.11 2.56 C5.11 2.71, 5.1 2.86, 5.08 3 C5.05 3.15, 5.01 3.29, 4.96 3.43 C4.91 3.57, 4.85 3.71, 4.77 3.84 C4.7 3.96, 4.61 4.09, 4.52 4.2 C4.42 4.31, 4.31 4.42, 4.2 4.52 C4.09 4.61, 3.96 4.7, 3.84 4.77 C3.71 4.85, 3.57 4.91, 3.43 4.96 C3.29 5.01, 3.15 5.05, 3 5.08 C2.86 5.1, 2.71 5.11, 2.56 5.11 C2.41 5.11, 2.26 5.1, 2.11 5.08 C1.97 5.05, 1.82 5.01, 1.68 4.96 C1.54 4.91, 1.41 4.85, 1.28 4.77 C1.15 4.7, 1.03 4.61, 0.91 4.52 C0.8 4.42, 0.69 4.31, 0.6 4.2 C0.5 4.09, 0.42 3.96, 0.34 3.84 C0.27 3.71, 0.2 3.57, 0.15 3.43 C0.1 3.29, 0.06 3.15, 0.04 3 C0.01 2.86, 0 2.71, 0 2.56 C0 2.41, 0.01 2.26, 0.04 2.11 C0.06 1.97, 0.1 1.82, 0.15 1.68 C0.2 1.54, 0.27 1.41, 0.34 1.28 C0.42 1.15, 0.5 1.03, 0.6 0.91 C0.69 0.8, 0.8 0.69, 0.91 0.6 C1.03 0.5, 1.15 0.42, 1.28 0.34 C1.41 0.27, 1.54 0.2, 1.68 0.15 C1.82 0.1, 1.97 0.06, 2.11 0.04 C2.26 0.01, 2.41 0, 2.56 0 C2.71 0, 2.86 0.01, 3 0.04 C3.15 0.06, 3.29 0.1, 3.43 0.15 C3.57 0.2, 3.71 0.27, 3.84 0.34 C3.96 0.42, 4.09 0.5, 4.2 0.6 C4.31 0.69, 4.42 0.8, 4.52 0.91 C4.61 1.03, 4.7 1.15, 4.77 1.28 C4.85 1.41, 4.91 1.54, 4.96 1.68 C5.01 1.82, 5.05 1.97, 5.08 2.11 C5.1 2.26, 5.11 2.48, 5.11 2.56 C5.12 2.63, 5.12 2.48, 5.11 2.56" stroke="#E1E1E1" stroke-width="2" fill="none"></path></g><g stroke-linecap="round" transform="translate(80.89577898411483 229.33710042491703) rotate(0 2.5570350788633505 2.5570350788633505)"><path d="M5.11 2.56 C5.11 2.71, 5.1 2.86, 5.08 3 C5.05 3.15, 5.01 3.29, 4.96 3.43 C4.91 3.57, 4.85 3.71, 4.77 3.84 C4.7 3.96, 4.61 4.09, 4.52 4.2 C4.42 4.31, 4.31 4.42, 4.2 4.52 C4.09 4.61, 3.96 4.7, 3.84 4.77 C3.71 4.85, 3.57 4.91, 3.43 4.96 C3.29 5.01, 3.15 5.05, 3 5.08 C2.86 5.1, 2.71 5.11, 2.56 5.11 C2.41 5.11, 2.26 5.1, 2.11 5.08 C1.97 5.05, 1.82 5.01, 1.68 4.96 C1.54 4.91, 1.41 4.85, 1.28 4.77 C1.15 4.7, 1.03 4.61, 0.91 4.52 C0.8 4.42, 0.69 4.31, 0.6 4.2 C0.5 4.09, 0.42 3.96, 0.34 3.84 C0.27 3.71, 0.2 3.57, 0.15 3.43 C0.1 3.29, 0.06 3.15, 0.04 3 C0.01 2.86, 0 2.71, 0 2.56 C0 2.41, 0.01 2.26, 0.04 2.11 C0.06 1.97, 0.1 1.82, 0.15 1.68 C0.2 1.54, 0.27 1.41, 0.34 1.28 C0.42 1.15, 0.5 1.03, 0.6 0.91 C0.69 0.8, 0.8 0.69, 0.91 0.6 C1.03 0.5, 1.15 0.42, 1.28 0.34 C1.41 0.27, 1.54 0.2, 1.68 0.15 C1.82 0.1, 1.97 0.06, 2.11 0.04 C2.26 0.01, 2.41 0, 2.56 0 C2.71 0, 2.86 0.01, 3 0.04 C3.15 0.06, 3.29 0.1, 3.43 0.15 C3.57 0.2, 3.71 0.27, 3.84 0.34 C3.96 0.42, 4.09 0.5, 4.2 0.6 C4.31 0.69, 4.42 0.8, 4.52 0.91 C4.61 1.03, 4.7 1.15, 4.77 1.28 C4.85 1.41, 4.91 1.54, 4.96 1.68 C5.01 1.82, 5.05 1.97, 5.08 2.11 C5.1 2.26, 5.11 2.48, 5.11 2.56 C5.12 2.63, 5.12 2.48, 5.11 2.56" stroke="#E1E1E1" stroke-width="2" fill="none"></path></g><g stroke-linecap="round" transform="translate(91.15631642971539 210.37219882724833) rotate(0 2.5570350788633505 2.5570350788633505)"><path d="M5.11 2.56 C5.11 2.71, 5.1 2.86, 5.08 3 C5.05 3.15, 5.01 3.29, 4.96 3.43 C4.91 3.57, 4.85 3.71, 4.77 3.84 C4.7 3.96, 4.61 4.09, 4.52 4.2 C4.42 4.31, 4.31 4.42, 4.2 4.52 C4.09 4.61, 3.96 4.7, 3.84 4.77 C3.71 4.85, 3.57 4.91, 3.43 4.96 C3.29 5.01, 3.15 5.05, 3 5.08 C2.86 5.1, 2.71 5.11, 2.56 5.11 C2.41 5.11, 2.26 5.1, 2.11 5.08 C1.97 5.05, 1.82 5.01, 1.68 4.96 C1.54 4.91, 1.41 4.85, 1.28 4.77 C1.15 4.7, 1.03 4.61, 0.91 4.52 C0.8 4.42, 0.69 4.31, 0.6 4.2 C0.5 4.09, 0.42 3.96, 0.34 3.84 C0.27 3.71, 0.2 3.57, 0.15 3.43 C0.1 3.29, 0.06 3.15, 0.04 3 C0.01 2.86, 0 2.71, 0 2.56 C0 2.41, 0.01 2.26, 0.04 2.11 C0.06 1.97, 0.1 1.82, 0.15 1.68 C0.2 1.54, 0.27 1.41, 0.34 1.28 C0.42 1.15, 0.5 1.03, 0.6 0.91 C0.69 0.8, 0.8 0.69, 0.91 0.6 C1.03 0.5, 1.15 0.42, 1.28 0.34 C1.41 0.27, 1.54 0.2, 1.68 0.15 C1.82 0.1, 1.97 0.06, 2.11 0.04 C2.26 0.01, 2.41 0, 2.56 0 C2.71 0, 2.86 0.01, 3 0.04 C3.15 0.06, 3.29 0.1, 3.43 0.15 C3.57 0.2, 3.71 0.27, 3.84 0.34 C3.96 0.42, 4.09 0.5, 4.2 0.6 C4.31 0.69, 4.42 0.8, 4.52 0.91 C4.61 1.03, 4.7 1.15, 4.77 1.28 C4.85 1.41, 4.91 1.54, 4.96 1.68 C5.01 1.82, 5.05 1.97, 5.08 2.11 C5.1 2.26, 5.11 2.48, 5.11 2.56 C5.12 2.63, 5.12 2.48, 5.11 2.56" stroke="#E1E1E1" stroke-width="2" fill="none"></path></g><g stroke-linecap="round" transform="translate(102.11484031375107 229.1740930625674) rotate(0 2.5570350788633505 2.5570350788633505)"><path d="M5.11 2.56 C5.11 2.71, 5.1 2.86, 5.08 3 C5.05 3.15, 5.01 3.29, 4.96 3.43 C4.91 3.57, 4.85 3.71, 4.77 3.84 C4.7 3.96, 4.61 4.09, 4.52 4.2 C4.42 4.31, 4.31 4.42, 4.2 4.52 C4.09 4.61, 3.96 4.7, 3.84 4.77 C3.71 4.85, 3.57 4.91, 3.43 4.96 C3.29 5.01, 3.15 5.05, 3 5.08 C2.86 5.1, 2.71 5.11, 2.56 5.11 C2.41 5.11, 2.26 5.1, 2.11 5.08 C1.97 5.05, 1.82 5.01, 1.68 4.96 C1.54 4.91, 1.41 4.85, 1.28 4.77 C1.15 4.7, 1.03 4.61, 0.91 4.52 C0.8 4.42, 0.69 4.31, 0.6 4.2 C0.5 4.09, 0.42 3.96, 0.34 3.84 C0.27 3.71, 0.2 3.57, 0.15 3.43 C0.1 3.29, 0.06 3.15, 0.04 3 C0.01 2.86, 0 2.71, 0 2.56 C0 2.41, 0.01 2.26, 0.04 2.11 C0.06 1.97, 0.1 1.82, 0.15 1.68 C0.2 1.54, 0.27 1.41, 0.34 1.28 C0.42 1.15, 0.5 1.03, 0.6 0.91 C0.69 0.8, 0.8 0.69, 0.91 0.6 C1.03 0.5, 1.15 0.42, 1.28 0.34 C1.41 0.27, 1.54 0.2, 1.68 0.15 C1.82 0.1, 1.97 0.06, 2.11 0.04 C2.26 0.01, 2.41 0, 2.56 0 C2.71 0, 2.86 0.01, 3 0.04 C3.15 0.06, 3.29 0.1, 3.43 0.15 C3.57 0.2, 3.71 0.27, 3.84 0.34 C3.96 0.42, 4.09 0.5, 4.2 0.6 C4.31 0.69, 4.42 0.8, 4.52 0.91 C4.61 1.03, 4.7 1.15, 4.77 1.28 C4.85 1.41, 4.91 1.54, 4.96 1.68 C5.01 1.82, 5.05 1.97, 5.08 2.11 C5.1 2.26, 5.11 2.48, 5.11 2.56 C5.12 2.63, 5.12 2.48, 5.11 2.56" stroke="#E1E1E1" stroke-width="2" fill="none"></path></g><g stroke-linecap="round" transform="translate(112.3486160339944 210.48836611875174) rotate(0 2.5570350788633505 2.5570350788633505)"><path d="M5.11 2.56 C5.11 2.71, 5.1 2.86, 5.08 3 C5.05 3.15, 5.01 3.29, 4.96 3.43 C4.91 3.57, 4.85 3.71, 4.77 3.84 C4.7 3.96, 4.61 4.09, 4.52 4.2 C4.42 4.31, 4.31 4.42, 4.2 4.52 C4.09 4.61, 3.96 4.7, 3.84 4.77 C3.71 4.85, 3.57 4.91, 3.43 4.96 C3.29 5.01, 3.15 5.05, 3 5.08 C2.86 5.1, 2.71 5.11, 2.56 5.11 C2.41 5.11, 2.26 5.1, 2.11 5.08 C1.97 5.05, 1.82 5.01, 1.68 4.96 C1.54 4.91, 1.41 4.85, 1.28 4.77 C1.15 4.7, 1.03 4.61, 0.91 4.52 C0.8 4.42, 0.69 4.31, 0.6 4.2 C0.5 4.09, 0.42 3.96, 0.34 3.84 C0.27 3.71, 0.2 3.57, 0.15 3.43 C0.1 3.29, 0.06 3.15, 0.04 3 C0.01 2.86, 0 2.71, 0 2.56 C0 2.41, 0.01 2.26, 0.04 2.11 C0.06 1.97, 0.1 1.82, 0.15 1.68 C0.2 1.54, 0.27 1.41, 0.34 1.28 C0.42 1.15, 0.5 1.03, 0.6 0.91 C0.69 0.8, 0.8 0.69, 0.91 0.6 C1.03 0.5, 1.15 0.42, 1.28 0.34 C1.41 0.27, 1.54 0.2, 1.68 0.15 C1.82 0.1, 1.97 0.06, 2.11 0.04 C2.26 0.01, 2.41 0, 2.56 0 C2.71 0, 2.86 0.01, 3 0.04 C3.15 0.06, 3.29 0.1, 3.43 0.15 C3.57 0.2, 3.71 0.27, 3.84 0.34 C3.96 0.42, 4.09 0.5, 4.2 0.6 C4.31 0.69, 4.42 0.8, 4.52 0.91 C4.61 1.03, 4.7 1.15, 4.77 1.28 C4.85 1.41, 4.91 1.54, 4.96 1.68 C5.01 1.82, 5.05 1.97, 5.08 2.11 C5.1 2.26, 5.11 2.48, 5.11 2.56 C5.12 2.63, 5.12 2.48, 5.11 2.56" stroke="#E1E1E1" stroke-width="2" fill="none"></path></g><g stroke-linecap="round" transform="translate(123.15879426042886 229.0180749917281) rotate(0 2.5570350788633505 2.5570350788633505)"><path d="M5.11 2.56 C5.11 2.71, 5.1 2.86, 5.08 3 C5.05 3.15, 5.01 3.29, 4.96 3.43 C4.91 3.57, 4.85 3.71, 4.77 3.84 C4.7 3.96, 4.61 4.09, 4.52 4.2 C4.42 4.31, 4.31 4.42, 4.2 4.52 C4.09 4.61, 3.96 4.7, 3.84 4.77 C3.71 4.85, 3.57 4.91, 3.43 4.96 C3.29 5.01, 3.15 5.05, 3 5.08 C2.86 5.1, 2.71 5.11, 2.56 5.11 C2.41 5.11, 2.26 5.1, 2.11 5.08 C1.97 5.05, 1.82 5.01, 1.68 4.96 C1.54 4.91, 1.41 4.85, 1.28 4.77 C1.15 4.7, 1.03 4.61, 0.91 4.52 C0.8 4.42, 0.69 4.31, 0.6 4.2 C0.5 4.09, 0.42 3.96, 0.34 3.84 C0.27 3.71, 0.2 3.57, 0.15 3.43 C0.1 3.29, 0.06 3.15, 0.04 3 C0.01 2.86, 0 2.71, 0 2.56 C0 2.41, 0.01 2.26, 0.04 2.11 C0.06 1.97, 0.1 1.82, 0.15 1.68 C0.2 1.54, 0.27 1.41, 0.34 1.28 C0.42 1.15, 0.5 1.03, 0.6 0.91 C0.69 0.8, 0.8 0.69, 0.91 0.6 C1.03 0.5, 1.15 0.42, 1.28 0.34 C1.41 0.27, 1.54 0.2, 1.68 0.15 C1.82 0.1, 1.97 0.06, 2.11 0.04 C2.26 0.01, 2.41 0, 2.56 0 C2.71 0, 2.86 0.01, 3 0.04 C3.15 0.06, 3.29 0.1, 3.43 0.15 C3.57 0.2, 3.71 0.27, 3.84 0.34 C3.96 0.42, 4.09 0.5, 4.2 0.6 C4.31 0.69, 4.42 0.8, 4.52 0.91 C4.61 1.03, 4.7 1.15, 4.77 1.28 C4.85 1.41, 4.91 1.54, 4.96 1.68 C5.01 1.82, 5.05 1.97, 5.08 2.11 C5.1 2.26, 5.11 2.48, 5.11 2.56 C5.12 2.63, 5.12 2.48, 5.11 2.56" stroke="#E1E1E1" stroke-width="2" fill="none"></path></g><g stroke-linecap="round" transform="translate(102.42511883588293 94.53854170735724) rotate(0 2.5570350788633505 2.5570350788633505)"><path d="M5.11 2.56 C5.11 2.71, 5.1 2.86, 5.08 3 C5.05 3.15, 5.01 3.29, 4.96 3.43 C4.91 3.57, 4.85 3.71, 4.77 3.84 C4.7 3.96, 4.61 4.09, 4.52 4.2 C4.42 4.31, 4.31 4.42, 4.2 4.52 C4.09 4.61, 3.96 4.7, 3.84 4.77 C3.71 4.85, 3.57 4.91, 3.43 4.96 C3.29 5.01, 3.15 5.05, 3 5.08 C2.86 5.1, 2.71 5.11, 2.56 5.11 C2.41 5.11, 2.26 5.1, 2.11 5.08 C1.97 5.05, 1.82 5.01, 1.68 4.96 C1.54 4.91, 1.41 4.85, 1.28 4.77 C1.15 4.7, 1.03 4.61, 0.91 4.52 C0.8 4.42, 0.69 4.31, 0.6 4.2 C0.5 4.09, 0.42 3.96, 0.34 3.84 C0.27 3.71, 0.2 3.57, 0.15 3.43 C0.1 3.29, 0.06 3.15, 0.04 3 C0.01 2.86, 0 2.71, 0 2.56 C0 2.41, 0.01 2.26, 0.04 2.11 C0.06 1.97, 0.1 1.82, 0.15 1.68 C0.2 1.54, 0.27 1.41, 0.34 1.28 C0.42 1.15, 0.5 1.03, 0.6 0.91 C0.69 0.8, 0.8 0.69, 0.91 0.6 C1.03 0.5, 1.15 0.42, 1.28 0.34 C1.41 0.27, 1.54 0.2, 1.68 0.15 C1.82 0.1, 1.97 0.06, 2.11 0.04 C2.26 0.01, 2.41 0, 2.56 0 C2.71 0, 2.86 0.01, 3 0.04 C3.15 0.06, 3.29 0.1, 3.43 0.15 C3.57 0.2, 3.71 0.27, 3.84 0.34 C3.96 0.42, 4.09 0.5, 4.2 0.6 C4.31 0.69, 4.42 0.8, 4.52 0.91 C4.61 1.03, 4.7 1.15, 4.77 1.28 C4.85 1.41, 4.91 1.54, 4.96 1.68 C5.01 1.82, 5.05 1.97, 5.08 2.11 C5.1 2.26, 5.11 2.48, 5.11 2.56 C5.12 2.63, 5.12 2.48, 5.11 2.56" stroke="#E1E1E1" stroke-width="2" fill="none"></path></g><g stroke-linecap="round" transform="translate(81.40302598738788 94.39260276617443) rotate(0 2.5570350788633505 2.5570350788633505)"><path d="M5.11 2.56 C5.11 2.71, 5.1 2.86, 5.08 3 C5.05 3.15, 5.01 3.29, 4.96 3.43 C4.91 3.57, 4.85 3.71, 4.77 3.84 C4.7 3.96, 4.61 4.09, 4.52 4.2 C4.42 4.31, 4.31 4.42, 4.2 4.52 C4.09 4.61, 3.96 4.7, 3.84 4.77 C3.71 4.85, 3.57 4.91, 3.43 4.96 C3.29 5.01, 3.15 5.05, 3 5.08 C2.86 5.1, 2.71 5.11, 2.56 5.11 C2.41 5.11, 2.26 5.1, 2.11 5.08 C1.97 5.05, 1.82 5.01, 1.68 4.96 C1.54 4.91, 1.41 4.85, 1.28 4.77 C1.15 4.7, 1.03 4.61, 0.91 4.52 C0.8 4.42, 0.69 4.31, 0.6 4.2 C0.5 4.09, 0.42 3.96, 0.34 3.84 C0.27 3.71, 0.2 3.57, 0.15 3.43 C0.1 3.29, 0.06 3.15, 0.04 3 C0.01 2.86, 0 2.71, 0 2.56 C0 2.41, 0.01 2.26, 0.04 2.11 C0.06 1.97, 0.1 1.82, 0.15 1.68 C0.2 1.54, 0.27 1.41, 0.34 1.28 C0.42 1.15, 0.5 1.03, 0.6 0.91 C0.69 0.8, 0.8 0.69, 0.91 0.6 C1.03 0.5, 1.15 0.42, 1.28 0.34 C1.41 0.27, 1.54 0.2, 1.68 0.15 C1.82 0.1, 1.97 0.06, 2.11 0.04 C2.26 0.01, 2.41 0, 2.56 0 C2.71 0, 2.86 0.01, 3 0.04 C3.15 0.06, 3.29 0.1, 3.43 0.15 C3.57 0.2, 3.71 0.27, 3.84 0.34 C3.96 0.42, 4.09 0.5, 4.2 0.6 C4.31 0.69, 4.42 0.8, 4.52 0.91 C4.61 1.03, 4.7 1.15, 4.77 1.28 C4.85 1.41, 4.91 1.54, 4.96 1.68 C5.01 1.82, 5.05 1.97, 5.08 2.11 C5.1 2.26, 5.11 2.48, 5.11 2.56 C5.12 2.63, 5.12 2.48, 5.11 2.56" stroke="#E1E1E1" stroke-width="2" fill="none"></path></g><g stroke-linecap="round" transform="translate(66.326251115388 75.7340768400216) rotate(0 2.5570350788633505 2.5570350788633505)"><path d="M5.11 2.56 C5.11 2.71, 5.1 2.86, 5.08 3 C5.05 3.15, 5.01 3.29, 4.96 3.43 C4.91 3.57, 4.85 3.71, 4.77 3.84 C4.7 3.96, 4.61 4.09, 4.52 4.2 C4.42 4.31, 4.31 4.42, 4.2 4.52 C4.09 4.61, 3.96 4.7, 3.84 4.77 C3.71 4.85, 3.57 4.91, 3.43 4.96 C3.29 5.01, 3.15 5.05, 3 5.08 C2.86 5.1, 2.71 5.11, 2.56 5.11 C2.41 5.11, 2.26 5.1, 2.11 5.08 C1.97 5.05, 1.82 5.01, 1.68 4.96 C1.54 4.91, 1.41 4.85, 1.28 4.77 C1.15 4.7, 1.03 4.61, 0.91 4.52 C0.8 4.42, 0.69 4.31, 0.6 4.2 C0.5 4.09, 0.42 3.96, 0.34 3.84 C0.27 3.71, 0.2 3.57, 0.15 3.43 C0.1 3.29, 0.06 3.15, 0.04 3 C0.01 2.86, 0 2.71, 0 2.56 C0 2.41, 0.01 2.26, 0.04 2.11 C0.06 1.97, 0.1 1.82, 0.15 1.68 C0.2 1.54, 0.27 1.41, 0.34 1.28 C0.42 1.15, 0.5 1.03, 0.6 0.91 C0.69 0.8, 0.8 0.69, 0.91 0.6 C1.03 0.5, 1.15 0.42, 1.28 0.34 C1.41 0.27, 1.54 0.2, 1.68 0.15 C1.82 0.1, 1.97 0.06, 2.11 0.04 C2.26 0.01, 2.41 0, 2.56 0 C2.71 0, 2.86 0.01, 3 0.04 C3.15 0.06, 3.29 0.1, 3.43 0.15 C3.57 0.2, 3.71 0.27, 3.84 0.34 C3.96 0.42, 4.09 0.5, 4.2 0.6 C4.31 0.69, 4.42 0.8, 4.52 0.91 C4.61 1.03, 4.7 1.15, 4.77 1.28 C4.85 1.41, 4.91 1.54, 4.96 1.68 C5.01 1.82, 5.05 1.97, 5.08 2.11 C5.1 2.26, 5.11 2.48, 5.11 2.56 C5.12 2.63, 5.12 2.48, 5.11 2.56" stroke="#E1E1E1" stroke-width="2" fill="none"></path></g><g stroke-linecap="round" transform="translate(91.53310408391417 177.3526974799945) rotate(0 2.5570350788633505 2.5570350788633505)"><path d="M5.11 2.56 C5.11 2.71, 5.1 2.86, 5.08 3 C5.05 3.15, 5.01 3.29, 4.96 3.43 C4.91 3.57, 4.85 3.71, 4.77 3.84 C4.7 3.96, 4.61 4.09, 4.52 4.2 C4.42 4.31, 4.31 4.42, 4.2 4.52 C4.09 4.61, 3.96 4.7, 3.84 4.77 C3.71 4.85, 3.57 4.91, 3.43 4.96 C3.29 5.01, 3.15 5.05, 3 5.08 C2.86 5.1, 2.71 5.11, 2.56 5.11 C2.41 5.11, 2.26 5.1, 2.11 5.08 C1.97 5.05, 1.82 5.01, 1.68 4.96 C1.54 4.91, 1.41 4.85, 1.28 4.77 C1.15 4.7, 1.03 4.61, 0.91 4.52 C0.8 4.42, 0.69 4.31, 0.6 4.2 C0.5 4.09, 0.42 3.96, 0.34 3.84 C0.27 3.71, 0.2 3.57, 0.15 3.43 C0.1 3.29, 0.06 3.15, 0.04 3 C0.01 2.86, 0 2.71, 0 2.56 C0 2.41, 0.01 2.26, 0.04 2.11 C0.06 1.97, 0.1 1.82, 0.15 1.68 C0.2 1.54, 0.27 1.41, 0.34 1.28 C0.42 1.15, 0.5 1.03, 0.6 0.91 C0.69 0.8, 0.8 0.69, 0.91 0.6 C1.03 0.5, 1.15 0.42, 1.28 0.34 C1.41 0.27, 1.54 0.2, 1.68 0.15 C1.82 0.1, 1.97 0.06, 2.11 0.04 C2.26 0.01, 2.41 0, 2.56 0 C2.71 0, 2.86 0.01, 3 0.04 C3.15 0.06, 3.29 0.1, 3.43 0.15 C3.57 0.2, 3.71 0.27, 3.84 0.34 C3.96 0.42, 4.09 0.5, 4.2 0.6 C4.31 0.69, 4.42 0.8, 4.52 0.91 C4.61 1.03, 4.7 1.15, 4.77 1.28 C4.85 1.41, 4.91 1.54, 4.96 1.68 C5.01 1.82, 5.05 1.97, 5.08 2.11 C5.1 2.26, 5.11 2.48, 5.11 2.56 C5.12 2.63, 5.12 2.48, 5.11 2.56" stroke="#E1E1E1" stroke-width="2" fill="none"></path></g><g stroke-linecap="round" transform="translate(91.44141132340678 166.11916041281484) rotate(0 2.5570350788633505 2.5570350788633505)"><path d="M5.11 2.56 C5.11 2.71, 5.1 2.86, 5.08 3 C5.05 3.15, 5.01 3.29, 4.96 3.43 C4.91 3.57, 4.85 3.71, 4.77 3.84 C4.7 3.96, 4.61 4.09, 4.52 4.2 C4.42 4.31, 4.31 4.42, 4.2 4.52 C4.09 4.61, 3.96 4.7, 3.84 4.77 C3.71 4.85, 3.57 4.91, 3.43 4.96 C3.29 5.01, 3.15 5.05, 3 5.08 C2.86 5.1, 2.71 5.11, 2.56 5.11 C2.41 5.11, 2.26 5.1, 2.11 5.08 C1.97 5.05, 1.82 5.01, 1.68 4.96 C1.54 4.91, 1.41 4.85, 1.28 4.77 C1.15 4.7, 1.03 4.61, 0.91 4.52 C0.8 4.42, 0.69 4.31, 0.6 4.2 C0.5 4.09, 0.42 3.96, 0.34 3.84 C0.27 3.71, 0.2 3.57, 0.15 3.43 C0.1 3.29, 0.06 3.15, 0.04 3 C0.01 2.86, 0 2.71, 0 2.56 C0 2.41, 0.01 2.26, 0.04 2.11 C0.06 1.97, 0.1 1.82, 0.15 1.68 C0.2 1.54, 0.27 1.41, 0.34 1.28 C0.42 1.15, 0.5 1.03, 0.6 0.91 C0.69 0.8, 0.8 0.69, 0.91 0.6 C1.03 0.5, 1.15 0.42, 1.28 0.34 C1.41 0.27, 1.54 0.2, 1.68 0.15 C1.82 0.1, 1.97 0.06, 2.11 0.04 C2.26 0.01, 2.41 0, 2.56 0 C2.71 0, 2.86 0.01, 3 0.04 C3.15 0.06, 3.29 0.1, 3.43 0.15 C3.57 0.2, 3.71 0.27, 3.84 0.34 C3.96 0.42, 4.09 0.5, 4.2 0.6 C4.31 0.69, 4.42 0.8, 4.52 0.91 C4.61 1.03, 4.7 1.15, 4.77 1.28 C4.85 1.41, 4.91 1.54, 4.96 1.68 C5.01 1.82, 5.05 1.97, 5.08 2.11 C5.1 2.26, 5.11 2.48, 5.11 2.56 C5.12 2.63, 5.12 2.48, 5.11 2.56" stroke="#E1E1E1" stroke-width="2" fill="none"></path></g><g stroke-linecap="round" transform="translate(91.77859879355401 155.34767294740277) rotate(0 2.5570350788633505 2.5570350788633505)"><path d="M5.11 2.56 C5.11 2.71, 5.1 2.86, 5.08 3 C5.05 3.15, 5.01 3.29, 4.96 3.43 C4.91 3.57, 4.85 3.71, 4.77 3.84 C4.7 3.96, 4.61 4.09, 4.52 4.2 C4.42 4.31, 4.31 4.42, 4.2 4.52 C4.09 4.61, 3.96 4.7, 3.84 4.77 C3.71 4.85, 3.57 4.91, 3.43 4.96 C3.29 5.01, 3.15 5.05, 3 5.08 C2.86 5.1, 2.71 5.11, 2.56 5.11 C2.41 5.11, 2.26 5.1, 2.11 5.08 C1.97 5.05, 1.82 5.01, 1.68 4.96 C1.54 4.91, 1.41 4.85, 1.28 4.77 C1.15 4.7, 1.03 4.61, 0.91 4.52 C0.8 4.42, 0.69 4.31, 0.6 4.2 C0.5 4.09, 0.42 3.96, 0.34 3.84 C0.27 3.71, 0.2 3.57, 0.15 3.43 C0.1 3.29, 0.06 3.15, 0.04 3 C0.01 2.86, 0 2.71, 0 2.56 C0 2.41, 0.01 2.26, 0.04 2.11 C0.06 1.97, 0.1 1.82, 0.15 1.68 C0.2 1.54, 0.27 1.41, 0.34 1.28 C0.42 1.15, 0.5 1.03, 0.6 0.91 C0.69 0.8, 0.8 0.69, 0.91 0.6 C1.03 0.5, 1.15 0.42, 1.28 0.34 C1.41 0.27, 1.54 0.2, 1.68 0.15 C1.82 0.1, 1.97 0.06, 2.11 0.04 C2.26 0.01, 2.41 0, 2.56 0 C2.71 0, 2.86 0.01, 3 0.04 C3.15 0.06, 3.29 0.1, 3.43 0.15 C3.57 0.2, 3.71 0.27, 3.84 0.34 C3.96 0.42, 4.09 0.5, 4.2 0.6 C4.31 0.69, 4.42 0.8, 4.52 0.91 C4.61 1.03, 4.7 1.15, 4.77 1.28 C4.85 1.41, 4.91 1.54, 4.96 1.68 C5.01 1.82, 5.05 1.97, 5.08 2.11 C5.1 2.26, 5.11 2.48, 5.11 2.56 C5.12 2.63, 5.12 2.48, 5.11 2.56" stroke="#E1E1E1" stroke-width="2" fill="none"></path></g><g stroke-linecap="round" transform="translate(91.41629616421346 144.67228985333065) rotate(0 2.5570350788633505 2.5570350788633505)"><path d="M5.11 2.56 C5.11 2.71, 5.1 2.86, 5.08 3 C5.05 3.15, 5.01 3.29, 4.96 3.43 C4.91 3.57, 4.85 3.71, 4.77 3.84 C4.7 3.96, 4.61 4.09, 4.52 4.2 C4.42 4.31, 4.31 4.42, 4.2 4.52 C4.09 4.61, 3.96 4.7, 3.84 4.77 C3.71 4.85, 3.57 4.91, 3.43 4.96 C3.29 5.01, 3.15 5.05, 3 5.08 C2.86 5.1, 2.71 5.11, 2.56 5.11 C2.41 5.11, 2.26 5.1, 2.11 5.08 C1.97 5.05, 1.82 5.01, 1.68 4.96 C1.54 4.91, 1.41 4.85, 1.28 4.77 C1.15 4.7, 1.03 4.61, 0.91 4.52 C0.8 4.42, 0.69 4.31, 0.6 4.2 C0.5 4.09, 0.42 3.96, 0.34 3.84 C0.27 3.71, 0.2 3.57, 0.15 3.43 C0.1 3.29, 0.06 3.15, 0.04 3 C0.01 2.86, 0 2.71, 0 2.56 C0 2.41, 0.01 2.26, 0.04 2.11 C0.06 1.97, 0.1 1.82, 0.15 1.68 C0.2 1.54, 0.27 1.41, 0.34 1.28 C0.42 1.15, 0.5 1.03, 0.6 0.91 C0.69 0.8, 0.8 0.69, 0.91 0.6 C1.03 0.5, 1.15 0.42, 1.28 0.34 C1.41 0.27, 1.54 0.2, 1.68 0.15 C1.82 0.1, 1.97 0.06, 2.11 0.04 C2.26 0.01, 2.41 0, 2.56 0 C2.71 0, 2.86 0.01, 3 0.04 C3.15 0.06, 3.29 0.1, 3.43 0.15 C3.57 0.2, 3.71 0.27, 3.84 0.34 C3.96 0.42, 4.09 0.5, 4.2 0.6 C4.31 0.69, 4.42 0.8, 4.52 0.91 C4.61 1.03, 4.7 1.15, 4.77 1.28 C4.85 1.41, 4.91 1.54, 4.96 1.68 C5.01 1.82, 5.05 1.97, 5.08 2.11 C5.1 2.26, 5.11 2.48, 5.11 2.56 C5.12 2.63, 5.12 2.48, 5.11 2.56" stroke="#E1E1E1" stroke-width="2" fill="none"></path></g><g stroke-linecap="round" transform="translate(91.46802372127195 133.22452659244107) rotate(0 2.5570350788633505 2.5570350788633505)"><path d="M5.11 2.56 C5.11 2.71, 5.1 2.86, 5.08 3 C5.05 3.15, 5.01 3.29, 4.96 3.43 C4.91 3.57, 4.85 3.71, 4.77 3.84 C4.7 3.96, 4.61 4.09, 4.52 4.2 C4.42 4.31, 4.31 4.42, 4.2 4.52 C4.09 4.61, 3.96 4.7, 3.84 4.77 C3.71 4.85, 3.57 4.91, 3.43 4.96 C3.29 5.01, 3.15 5.05, 3 5.08 C2.86 5.1, 2.71 5.11, 2.56 5.11 C2.41 5.11, 2.26 5.1, 2.11 5.08 C1.97 5.05, 1.82 5.01, 1.68 4.96 C1.54 4.91, 1.41 4.85, 1.28 4.77 C1.15 4.7, 1.03 4.61, 0.91 4.52 C0.8 4.42, 0.69 4.31, 0.6 4.2 C0.5 4.09, 0.42 3.96, 0.34 3.84 C0.27 3.71, 0.2 3.57, 0.15 3.43 C0.1 3.29, 0.06 3.15, 0.04 3 C0.01 2.86, 0 2.71, 0 2.56 C0 2.41, 0.01 2.26, 0.04 2.11 C0.06 1.97, 0.1 1.82, 0.15 1.68 C0.2 1.54, 0.27 1.41, 0.34 1.28 C0.42 1.15, 0.5 1.03, 0.6 0.91 C0.69 0.8, 0.8 0.69, 0.91 0.6 C1.03 0.5, 1.15 0.42, 1.28 0.34 C1.41 0.27, 1.54 0.2, 1.68 0.15 C1.82 0.1, 1.97 0.06, 2.11 0.04 C2.26 0.01, 2.41 0, 2.56 0 C2.71 0, 2.86 0.01, 3 0.04 C3.15 0.06, 3.29 0.1, 3.43 0.15 C3.57 0.2, 3.71 0.27, 3.84 0.34 C3.96 0.42, 4.09 0.5, 4.2 0.6 C4.31 0.69, 4.42 0.8, 4.52 0.91 C4.61 1.03, 4.7 1.15, 4.77 1.28 C4.85 1.41, 4.91 1.54, 4.96 1.68 C5.01 1.82, 5.05 1.97, 5.08 2.11 C5.1 2.26, 5.11 2.48, 5.11 2.56 C5.12 2.63, 5.12 2.48, 5.11 2.56" stroke="#E1E1E1" stroke-width="2" fill="none"></path></g></svg>