<svg version="1.1" xmlns="http://www.w3.org/2000/svg" viewBox="0 0 294.01720235766555 475.94149095773764" width="294.01720235766555" height="475.94149095773764" class="excalidraw-svg"><!-- svg-source:excalidraw --><metadata></metadata><defs><style class="style-fonts">
      </style></defs><rect x="0" y="0" width="294.01720235766555" height="475.94149095773764" fill="#000000"></rect><g stroke-linecap="round"><g transform="translate(148.64352868352591 140.12229766383598) rotate(0 14.036260060826862 122.09434109635049)"><path d="M0 0 C0.89 6.05, 3.43 22.37, 5.37 36.33 C7.3 50.28, 9.31 66.42, 11.61 83.73 C13.92 101.04, 17.17 123.57, 19.19 140.2 C21.21 156.84, 22.46 171.43, 23.74 183.53 C25.02 195.62, 26.16 204.94, 26.88 212.78 C27.6 220.62, 27.87 225.32, 28.07 230.56 C28.27 235.79, 28.07 241.92, 28.07 244.19 M0 0 C0.89 6.05, 3.43 22.37, 5.37 36.33 C7.3 50.28, 9.31 66.42, 11.61 83.73 C13.92 101.04, 17.17 123.57, 19.19 140.2 C21.21 156.84, 22.46 171.43, 23.74 183.53 C25.02 195.62, 26.16 204.94, 26.88 212.78 C27.6 220.62, 27.87 225.32, 28.07 230.56 C28.27 235.79, 28.07 241.92, 28.07 244.19" stroke="#E1E1E1" stroke-width="2" fill="none"></path></g></g><mask></mask><g stroke-linecap="round"><g transform="translate(10.153378694583807 115.8148509357934) rotate(0 136.82179411393085 120.0955178591812)"><path d="M0 0 C0 2.81, -0.35 9.88, 0 16.86 C0.35 23.83, 0.95 31.47, 2.07 41.85 C3.19 52.22, 4.88 64.61, 6.73 79.1 C8.59 93.59, 11.07 113.7, 13.2 128.77 C15.34 143.84, 17.77 158.27, 19.56 169.53 C21.35 180.78, 22.67 189.46, 23.96 196.31 C25.24 203.16, 25.56 207.29, 27.26 210.62 C28.96 213.95, 30.76 214.36, 34.14 216.3 C37.52 218.25, 40.13 219.07, 47.54 222.28 C54.95 225.49, 68.02 231.13, 78.6 235.58 C89.17 240.02, 100.57 244.74, 111 248.95 C121.42 253.15, 133.21 257.78, 141.16 260.82 C149.11 263.86, 154.28 265.83, 158.7 267.17 C163.12 268.52, 163.91 269.6, 167.69 268.91 C171.46 268.23, 175.18 265.83, 181.37 263.07 C187.56 260.31, 197.92 255.69, 204.82 252.34 C211.72 249, 216.17 246.89, 222.76 242.99 C229.35 239.09, 238.26 233.56, 244.38 228.93 C250.5 224.29, 255.36 219.72, 259.48 215.19 C263.6 210.65, 266.8 205.95, 269.09 201.74 C271.37 197.52, 272.43 196.69, 273.19 189.88 C273.95 183.07, 274.02 171.24, 273.64 160.89 C273.27 150.54, 272.19 141.21, 270.96 127.78 C269.73 114.34, 268.38 97.41, 266.27 80.28 C264.16 63.16, 260.89 40.23, 258.3 25.05 C255.71 9.88, 252.83 -1.82, 250.73 -10.78 C248.62 -19.74, 248.02 -26.34, 245.68 -28.72 C243.34 -31.11, 241.35 -27.46, 236.7 -25.08 C232.05 -22.7, 224.71 -18.34, 217.78 -14.45 C210.85 -10.56, 202.33 -5.62, 195.11 -1.74 C187.9 2.15, 181.48 5.4, 174.48 8.87 C167.49 12.35, 159.03 16.56, 153.13 19.14 C147.22 21.72, 144.09 23.41, 139.04 24.36 C134 25.31, 129.9 25.26, 122.86 24.83 C115.81 24.41, 107.56 23.55, 96.8 21.81 C86.03 20.08, 70.32 16.92, 58.26 14.41 C46.21 11.9, 34.17 9.14, 24.46 6.74 C14.75 4.34, 4.08 1.12, 0 0 M0 0 C0 2.81, -0.35 9.88, 0 16.86 C0.35 23.83, 0.95 31.47, 2.07 41.85 C3.19 52.22, 4.88 64.61, 6.73 79.1 C8.59 93.59, 11.07 113.7, 13.2 128.77 C15.34 143.84, 17.77 158.27, 19.56 169.53 C21.35 180.78, 22.67 189.46, 23.96 196.31 C25.24 203.16, 25.56 207.29, 27.26 210.62 C28.96 213.95, 30.76 214.36, 34.14 216.3 C37.52 218.25, 40.13 219.07, 47.54 222.28 C54.95 225.49, 68.02 231.13, 78.6 235.58 C89.17 240.02, 100.57 244.74, 111 248.95 C121.42 253.15, 133.21 257.78, 141.16 260.82 C149.11 263.86, 154.28 265.83, 158.7 267.17 C163.12 268.52, 163.91 269.6, 167.69 268.91 C171.46 268.23, 175.18 265.83, 181.37 263.07 C187.56 260.31, 197.92 255.69, 204.82 252.34 C211.72 249, 216.17 246.89, 222.76 242.99 C229.35 239.09, 238.26 233.56, 244.38 228.93 C250.5 224.29, 255.36 219.72, 259.48 215.19 C263.6 210.65, 266.8 205.95, 269.09 201.74 C271.37 197.52, 272.43 196.69, 273.19 189.88 C273.95 183.07, 274.02 171.24, 273.64 160.89 C273.27 150.54, 272.19 141.21, 270.96 127.78 C269.73 114.34, 268.38 97.41, 266.27 80.28 C264.16 63.16, 260.89 40.23, 258.3 25.05 C255.71 9.88, 252.83 -1.82, 250.73 -10.78 C248.62 -19.74, 248.02 -26.34, 245.68 -28.72 C243.34 -31.11, 241.35 -27.46, 236.7 -25.08 C232.05 -22.7, 224.71 -18.34, 217.78 -14.45 C210.85 -10.56, 202.33 -5.62, 195.11 -1.74 C187.9 2.15, 181.48 5.4, 174.48 8.87 C167.49 12.35, 159.03 16.56, 153.13 19.14 C147.22 21.72, 144.09 23.41, 139.04 24.36 C134 25.31, 129.9 25.26, 122.86 24.83 C115.81 24.41, 107.56 23.55, 96.8 21.81 C86.03 20.08, 70.32 16.92, 58.26 14.41 C46.21 11.9, 34.17 9.14, 24.46 6.74 C14.75 4.34, 4.08 1.12, 0 0" stroke="#E1E1E1" stroke-width="2" fill="none"></path></g></g><mask></mask><g stroke-linecap="round"><g transform="translate(253.72360863688328 86.42164388635138) rotate(0 -121.63870331444022 12.374832504737924)"><path d="M0 0 C-7.1 -0.31, -27.74 -1.17, -42.63 -1.85 C-57.51 -2.53, -77.82 -3.64, -89.3 -4.09 C-100.78 -4.55, -105.68 -4.89, -111.51 -4.59 C-117.34 -4.3, -116.81 -4.16, -124.28 -2.32 C-131.75 -0.49, -145 3.31, -156.32 6.42 C-167.63 9.54, -180.11 13.1, -192.15 16.35 C-204.18 19.6, -220 23.75, -228.52 25.92 C-237.05 28.08, -240.82 28.77, -243.28 29.34 M0 0 C-7.1 -0.31, -27.74 -1.17, -42.63 -1.85 C-57.51 -2.53, -77.82 -3.64, -89.3 -4.09 C-100.78 -4.55, -105.68 -4.89, -111.51 -4.59 C-117.34 -4.3, -116.81 -4.16, -124.28 -2.32 C-131.75 -0.49, -145 3.31, -156.32 6.42 C-167.63 9.54, -180.11 13.1, -192.15 16.35 C-204.18 19.6, -220 23.75, -228.52 25.92 C-237.05 28.08, -240.82 28.77, -243.28 29.34" stroke="#E1E1E1" stroke-width="2" fill="none"></path></g></g><mask></mask><g stroke-linecap="round"><g transform="translate(135.13724630390402 108.73485592515726) rotate(0 -9.428424261134126 -38.48068291396976)"><path d="M0 0 C-1.55 -6.11, -6.67 -26.01, -9.28 -36.64 C-11.9 -47.26, -14.08 -57.05, -15.68 -63.77 C-17.27 -70.49, -18.33 -74.76, -18.86 -76.96 M0 0 C-1.55 -6.11, -6.67 -26.01, -9.28 -36.64 C-11.9 -47.26, -14.08 -57.05, -15.68 -63.77 C-17.27 -70.49, -18.33 -74.76, -18.86 -76.96" stroke="#E1E1E1" stroke-width="2" fill="none"></path></g></g><mask></mask><g stroke-linecap="round"><g transform="translate(116.51607759376418 32.52240991833651) rotate(0 11.30031322191931 -4.4233076934719975)"><path d="M0 0 C-3.69 -1.14, -13.82 -4.32, -22.16 -6.86 C-30.5 -9.39, -43.03 -13.72, -50.05 -15.21 C-57.07 -16.71, -60.46 -16.4, -64.28 -15.84 C-68.09 -15.29, -70.67 -13.68, -72.93 -11.87 C-75.19 -10.06, -77.92 -7.53, -77.83 -4.98 C-77.73 -2.43, -75.29 0.97, -72.38 3.43 C-69.47 5.9, -64.82 8.4, -60.36 9.8 C-55.91 11.2, -51.16 12.02, -45.66 11.84 C-40.16 11.67, -33.24 10.11, -27.38 8.77 C-21.52 7.42, -16.43 5.77, -10.48 3.77 C-4.53 1.78, 1.54 -0.83, 8.32 -3.2 C15.11 -5.57, 22.12 -7.85, 30.21 -10.44 C38.31 -13.03, 49.31 -16.73, 56.89 -18.74 C64.48 -20.76, 70.3 -22.33, 75.7 -22.51 C81.1 -22.68, 85.69 -21.38, 89.3 -19.81 C92.91 -18.25, 95.52 -15.96, 97.37 -13.12 C99.23 -10.27, 100.49 -6.04, 100.43 -2.75 C100.36 0.55, 99.55 4.29, 96.98 6.66 C94.42 9.04, 90.39 10.32, 85.05 11.49 C79.7 12.65, 72.2 13.67, 64.93 13.66 C57.67 13.64, 48.73 12.59, 41.43 11.4 C34.13 10.21, 28.05 8.43, 21.14 6.53 C14.24 4.63, 3.52 1.09, 0 0 M0 0 C-3.69 -1.14, -13.82 -4.32, -22.16 -6.86 C-30.5 -9.39, -43.03 -13.72, -50.05 -15.21 C-57.07 -16.71, -60.46 -16.4, -64.28 -15.84 C-68.09 -15.29, -70.67 -13.68, -72.93 -11.87 C-75.19 -10.06, -77.92 -7.53, -77.83 -4.98 C-77.73 -2.43, -75.29 0.97, -72.38 3.43 C-69.47 5.9, -64.82 8.4, -60.36 9.8 C-55.91 11.2, -51.16 12.02, -45.66 11.84 C-40.16 11.67, -33.24 10.11, -27.38 8.77 C-21.52 7.42, -16.43 5.77, -10.48 3.77 C-4.53 1.78, 1.54 -0.83, 8.32 -3.2 C15.11 -5.57, 22.12 -7.85, 30.21 -10.44 C38.31 -13.03, 49.31 -16.73, 56.89 -18.74 C64.48 -20.76, 70.3 -22.33, 75.7 -22.51 C81.1 -22.68, 85.69 -21.38, 89.3 -19.81 C92.91 -18.25, 95.52 -15.96, 97.37 -13.12 C99.23 -10.27, 100.49 -6.04, 100.43 -2.75 C100.36 0.55, 99.55 4.29, 96.98 6.66 C94.42 9.04, 90.39 10.32, 85.05 11.49 C79.7 12.65, 72.2 13.67, 64.93 13.66 C57.67 13.64, 48.73 12.59, 41.43 11.4 C34.13 10.21, 28.05 8.43, 21.14 6.53 C14.24 4.63, 3.52 1.09, 0 0" stroke="#E1E1E1" stroke-width="2" fill="none"></path></g></g><mask></mask><g stroke-linecap="round"><g transform="translate(29.627722537201862 285.0878820036869) rotate(0 126.75363860497993 19.110873526494288)"><path d="M0 0 C4.74 1.85, 18.14 7.05, 28.44 11.13 C38.74 15.2, 51.27 20.35, 61.79 24.45 C72.3 28.55, 81.7 32.19, 91.52 35.72 C101.35 39.25, 112.21 43.17, 120.74 45.61 C129.26 48.05, 136.75 49.85, 142.66 50.35 C148.56 50.85, 150.57 50.12, 156.18 48.62 C161.78 47.12, 168.73 44.63, 176.27 41.35 C183.81 38.07, 193.56 33.26, 201.43 28.94 C209.29 24.62, 216.92 19.84, 223.45 15.42 C229.99 11, 235.62 7.03, 240.63 2.44 C245.64 -2.16, 251.36 -9.7, 253.51 -12.13 M0 0 C4.74 1.85, 18.14 7.05, 28.44 11.13 C38.74 15.2, 51.27 20.35, 61.79 24.45 C72.3 28.55, 81.7 32.19, 91.52 35.72 C101.35 39.25, 112.21 43.17, 120.74 45.61 C129.26 48.05, 136.75 49.85, 142.66 50.35 C148.56 50.85, 150.57 50.12, 156.18 48.62 C161.78 47.12, 168.73 44.63, 176.27 41.35 C183.81 38.07, 193.56 33.26, 201.43 28.94 C209.29 24.62, 216.92 19.84, 223.45 15.42 C229.99 11, 235.62 7.03, 240.63 2.44 C245.64 -2.16, 251.36 -9.7, 253.51 -12.13" stroke="#E1E1E1" stroke-width="2" fill="none"></path></g></g><mask></mask><g stroke-linecap="round" transform="translate(94.00777049445378 182.17089169237943) rotate(355.03466052122565 10.021915465481243 29.70967775023064)"><path d="M20.04 29.71 C20.04 31.43, 19.99 33.18, 19.89 34.87 C19.79 36.56, 19.64 38.26, 19.44 39.87 C19.24 41.49, 18.99 43.08, 18.7 44.56 C18.41 46.05, 18.07 47.49, 17.7 48.81 C17.33 50.12, 16.91 51.36, 16.46 52.47 C16.02 53.57, 15.54 54.58, 15.03 55.44 C14.53 56.3, 13.99 57.04, 13.45 57.63 C12.9 58.22, 12.33 58.67, 11.76 58.97 C11.19 59.27, 10.6 59.42, 10.02 59.42 C9.44 59.42, 8.85 59.27, 8.28 58.97 C7.71 58.67, 7.14 58.22, 6.59 57.63 C6.05 57.04, 5.51 56.3, 5.01 55.44 C4.51 54.58, 4.02 53.57, 3.58 52.47 C3.14 51.36, 2.72 50.12, 2.34 48.81 C1.97 47.49, 1.63 46.05, 1.34 44.56 C1.05 43.08, 0.8 41.49, 0.6 39.87 C0.41 38.26, 0.25 36.56, 0.15 34.87 C0.05 33.18, 0 31.43, 0 29.71 C0 27.99, 0.05 26.24, 0.15 24.55 C0.25 22.86, 0.41 21.16, 0.6 19.55 C0.8 17.93, 1.05 16.34, 1.34 14.85 C1.63 13.37, 1.97 11.93, 2.34 10.61 C2.72 9.3, 3.14 8.06, 3.58 6.95 C4.02 5.85, 4.51 4.84, 5.01 3.98 C5.51 3.12, 6.05 2.38, 6.59 1.79 C7.14 1.2, 7.71 0.75, 8.28 0.45 C8.85 0.15, 9.44 0, 10.02 0 C10.6 0, 11.19 0.15, 11.76 0.45 C12.33 0.75, 12.9 1.2, 13.45 1.79 C13.99 2.38, 14.53 3.12, 15.03 3.98 C15.54 4.84, 16.02 5.85, 16.46 6.95 C16.91 8.06, 17.33 9.3, 17.7 10.61 C18.07 11.93, 18.41 13.37, 18.7 14.85 C18.99 16.34, 19.24 17.93, 19.44 19.55 C19.64 21.16, 19.79 22.86, 19.89 24.55 C19.99 26.24, 20.02 28.85, 20.04 29.71 C20.07 30.57, 20.07 28.85, 20.04 29.71" stroke="#E1E1E1" stroke-width="2" fill="none"></path></g><g stroke-linecap="round" transform="translate(44.852968516154306 171.48221208338146) rotate(355.03466052122565 10.021915465481243 29.70967775023064)"><path d="M20.04 29.71 C20.04 31.43, 19.99 33.18, 19.89 34.87 C19.79 36.56, 19.64 38.26, 19.44 39.87 C19.24 41.49, 18.99 43.08, 18.7 44.56 C18.41 46.05, 18.07 47.49, 17.7 48.81 C17.33 50.12, 16.91 51.36, 16.46 52.47 C16.02 53.57, 15.54 54.58, 15.03 55.44 C14.53 56.3, 13.99 57.04, 13.45 57.63 C12.9 58.22, 12.33 58.67, 11.76 58.97 C11.19 59.27, 10.6 59.42, 10.02 59.42 C9.44 59.42, 8.85 59.27, 8.28 58.97 C7.71 58.67, 7.14 58.22, 6.59 57.63 C6.05 57.04, 5.51 56.3, 5.01 55.44 C4.51 54.58, 4.02 53.57, 3.58 52.47 C3.14 51.36, 2.72 50.12, 2.34 48.81 C1.97 47.49, 1.63 46.05, 1.34 44.56 C1.05 43.08, 0.8 41.49, 0.6 39.87 C0.41 38.26, 0.25 36.56, 0.15 34.87 C0.05 33.18, 0 31.43, 0 29.71 C0 27.99, 0.05 26.24, 0.15 24.55 C0.25 22.86, 0.41 21.16, 0.6 19.55 C0.8 17.93, 1.05 16.34, 1.34 14.85 C1.63 13.37, 1.97 11.93, 2.34 10.61 C2.72 9.3, 3.14 8.06, 3.58 6.95 C4.02 5.85, 4.51 4.84, 5.01 3.98 C5.51 3.12, 6.05 2.38, 6.59 1.79 C7.14 1.2, 7.71 0.75, 8.28 0.45 C8.85 0.15, 9.44 0, 10.02 0 C10.6 0, 11.19 0.15, 11.76 0.45 C12.33 0.75, 12.9 1.2, 13.45 1.79 C13.99 2.38, 14.53 3.12, 15.03 3.98 C15.54 4.84, 16.02 5.85, 16.46 6.95 C16.91 8.06, 17.33 9.3, 17.7 10.61 C18.07 11.93, 18.41 13.37, 18.7 14.85 C18.99 16.34, 19.24 17.93, 19.44 19.55 C19.64 21.16, 19.79 22.86, 19.89 24.55 C19.99 26.24, 20.02 28.85, 20.04 29.71 C20.07 30.57, 20.07 28.85, 20.04 29.71" stroke="#E1E1E1" stroke-width="2" fill="none"></path></g><g stroke-linecap="round" transform="translate(46.07377989431757 441.71493829845303) rotate(0 118.61746909969952 12.113276329642304)"><path d="M237.23 12.11 C237.23 12.54, 237.02 12.96, 236.59 13.38 C236.15 13.8, 235.5 14.22, 234.64 14.63 C233.78 15.04, 232.71 15.46, 231.43 15.86 C230.15 16.26, 228.66 16.65, 226.98 17.04 C225.3 17.43, 223.41 17.8, 221.34 18.17 C219.28 18.54, 217.01 18.89, 214.58 19.23 C212.15 19.57, 209.53 19.9, 206.77 20.22 C204 20.53, 201.06 20.83, 197.99 21.12 C194.92 21.4, 191.68 21.67, 188.34 21.91 C185 22.16, 181.51 22.39, 177.93 22.6 C174.35 22.81, 170.64 23.01, 166.86 23.18 C163.09 23.35, 159.2 23.5, 155.27 23.63 C151.34 23.76, 147.32 23.87, 143.28 23.96 C139.24 24.05, 135.13 24.12, 131.02 24.16 C126.91 24.2, 122.75 24.23, 118.62 24.23 C114.48 24.23, 110.33 24.2, 106.22 24.16 C102.11 24.12, 98 24.05, 93.96 23.96 C89.91 23.87, 85.89 23.76, 81.96 23.63 C78.03 23.5, 74.15 23.35, 70.37 23.18 C66.6 23.01, 62.89 22.81, 59.31 22.6 C55.73 22.39, 52.24 22.16, 48.9 21.91 C45.55 21.67, 42.32 21.4, 39.25 21.12 C36.18 20.83, 33.23 20.53, 30.47 20.22 C27.7 19.9, 25.08 19.57, 22.65 19.23 C20.22 18.89, 17.96 18.54, 15.89 18.17 C13.83 17.8, 11.94 17.43, 10.26 17.04 C8.57 16.65, 7.08 16.26, 5.81 15.86 C4.53 15.46, 3.45 15.04, 2.59 14.63 C1.73 14.22, 1.08 13.8, 0.65 13.38 C0.22 12.96, 0 12.54, 0 12.11 C0 11.69, 0.22 11.27, 0.65 10.85 C1.08 10.43, 1.73 10.01, 2.59 9.59 C3.45 9.18, 4.53 8.77, 5.81 8.37 C7.08 7.97, 8.57 7.57, 10.26 7.19 C11.94 6.8, 13.83 6.42, 15.89 6.06 C17.96 5.69, 20.22 5.33, 22.65 4.99 C25.08 4.65, 27.7 4.32, 30.47 4.01 C33.23 3.69, 36.18 3.39, 39.25 3.11 C42.32 2.83, 45.55 2.56, 48.9 2.31 C52.24 2.07, 55.73 1.83, 59.31 1.62 C62.89 1.41, 66.6 1.22, 70.37 1.05 C74.15 0.88, 78.03 0.72, 81.96 0.59 C85.89 0.46, 89.91 0.35, 93.96 0.26 C98 0.18, 102.11 0.11, 106.22 0.07 C110.33 0.02, 114.48 0, 118.62 0 C122.75 0, 126.91 0.02, 131.02 0.07 C135.13 0.11, 139.24 0.18, 143.28 0.26 C147.32 0.35, 151.34 0.46, 155.27 0.59 C159.2 0.72, 163.09 0.88, 166.86 1.05 C170.64 1.22, 174.35 1.41, 177.93 1.62 C181.51 1.83, 185 2.07, 188.34 2.31 C191.68 2.56, 194.92 2.83, 197.99 3.11 C201.06 3.39, 204 3.69, 206.77 4.01 C209.53 4.32, 212.15 4.65, 214.58 4.99 C217.01 5.33, 219.28 5.69, 221.34 6.06 C223.41 6.42, 225.3 6.8, 226.98 7.19 C228.66 7.57, 230.15 7.97, 231.43 8.37 C232.71 8.77, 233.78 9.18, 234.64 9.59 C235.5 10.01, 236.15 10.43, 236.59 10.85 C237.02 11.27, 237.13 11.9, 237.23 12.11 C237.34 12.32, 237.34 11.9, 237.23 12.11" stroke="#E1E1E1" stroke-width="2" fill="none"></path></g></svg>