<svg version="1.1" xmlns="http://www.w3.org/2000/svg" viewBox="0 0 565.2306337960675 525.920826337085" width="565.2306337960675" height="525.920826337085" class="excalidraw-svg"><!-- svg-source:excalidraw --><metadata></metadata><defs><style class="style-fonts">
      </style></defs><rect x="0" y="0" width="565.2306337960675" height="525.920826337085" fill="#000000"></rect><g stroke-linecap="round"><g transform="translate(473.31311748101143 40.020459981649175) rotate(0 0 74.64141446225089)"><path d="M0 0 C0 14.8, 0 29.59, 0 37.01 M0 0 C0 10.89, 0 21.77, 0 37.01 M0 37.01 C0 68.4, 0 99.79, 0 149.28 M0 37.01 C0 68.95, 0 100.89, 0 149.28" stroke="#E1E1E1" stroke-width="4" fill="none"></path></g></g><mask></mask><g stroke-linecap="round"><g transform="translate(479.07443786328776 39.68827458119322) rotate(0 0 74.64850968439654)"><path d="M0 0 C0 48.9, 0 97.79, 0 149.3 M0 0 C0 34.9, 0 69.79, 0 149.3" stroke="#E1E1E1" stroke-width="4" fill="none"></path></g></g><mask></mask><g stroke-linecap="round"><g transform="translate(473.44147649982835 39.508313946771445) rotate(0 -3.786268545002457 8.890635858610132)"><path d="M0 0 C-0.92 0.73, -4.28 2.57, -5.54 4.39 C-6.81 6.21, -7.86 8.69, -7.57 10.92 C-7.29 13.16, -4.46 16.64, -3.83 17.78 M0 0 C-0.92 0.73, -4.28 2.57, -5.54 4.39 C-6.81 6.21, -7.86 8.69, -7.57 10.92 C-7.29 13.16, -4.46 16.64, -3.83 17.78" stroke="#E1E1E1" stroke-width="4" fill="none"></path></g></g><mask></mask><g stroke-linecap="round"><g transform="translate(469.8622594374402 57.59016507488983) rotate(0 -2.4088279184517347 8.63553037146388)"><path d="M0 0 C-0.52 2.11, -2.33 9.79, -3.13 12.67 C-3.94 15.55, -4.54 16.5, -4.82 17.27 M0 0 C-0.52 2.11, -2.33 9.79, -3.13 12.67 C-3.94 15.55, -4.54 16.5, -4.82 17.27" stroke="#E1E1E1" stroke-width="4" fill="none"></path></g></g><mask></mask><g stroke-linecap="round"><g transform="translate(479.08549908501743 39.119581779419185) rotate(0 3.862768483863448 9.070267359000336)"><path d="M0 0 C0.94 0.75, 4.37 2.62, 5.66 4.48 C6.94 6.33, 8.02 8.87, 7.73 11.14 C7.43 13.42, 4.55 16.97, 3.91 18.14 M0 0 C0.94 0.75, 4.37 2.62, 5.66 4.48 C6.94 6.33, 8.02 8.87, 7.73 11.14 C7.43 13.42, 4.55 16.97, 3.91 18.14" stroke="#E1E1E1" stroke-width="4" fill="none"></path></g></g><mask></mask><g stroke-linecap="round"><g transform="translate(482.7370326994907 57.5667689869396) rotate(0 2.457497257749239 8.810007574440192)"><path d="M0 0 C0.53 2.15, 2.38 9.99, 3.2 12.93 C4.02 15.86, 4.63 16.84, 4.91 17.62 M0 0 C0.53 2.15, 2.38 9.99, 3.2 12.93 C4.02 15.86, 4.63 16.84, 4.91 17.62" stroke="#E1E1E1" stroke-width="4" fill="none"></path></g></g><mask></mask><g stroke-linecap="round"><g transform="translate(488.3229434836199 74.88336978260051) rotate(0 -11.582190762701927 -24.137217077392975)"><path d="M0 0 C3.14 0, 6.29 0, 12.57 0 M0 0 C2.85 0, 5.7 0, 12.57 0 M12.57 0 C12.57 -13.26, 12.57 -26.52, 12.57 -48.27 M12.57 0 C12.57 -13.61, 12.57 -27.22, 12.57 -48.27 M12.57 -48.27 C-1.58 -48.27, -15.73 -48.27, -35.73 -48.27 M12.57 -48.27 C0.38 -48.27, -11.82 -48.27, -35.73 -48.27 M-35.73 -48.27 C-35.73 -30.46, -35.73 -12.64, -35.73 -0.54 M-35.73 -48.27 C-35.73 -32.32, -35.73 -16.36, -35.73 -0.54 M-35.73 -0.54 C-32.06 -0.54, -28.39 -0.54, -22.95 -0.54 M-35.73 -0.54 C-32.62 -0.54, -29.51 -0.54, -22.95 -0.54" stroke="#E1E1E1" stroke-width="4" fill="none"></path></g></g><mask></mask><g stroke-linecap="round"><g transform="translate(465.3318210115712 74.54538787250769) rotate(0 -34.500520267215165 55.491137926824706)"><path d="M0 0 C-1.16 4.01, -3.42 14.35, -6.96 24.06 C-10.49 33.78, -15.97 48.29, -21.21 58.29 C-26.45 68.28, -31.66 75.96, -38.38 84.01 C-45.11 92.07, -56.45 102.11, -61.55 106.61 C-66.65 111.1, -67.76 110.25, -69 110.98 M0 0 C-1.16 4.01, -3.42 14.35, -6.96 24.06 C-10.49 33.78, -15.97 48.29, -21.21 58.29 C-26.45 68.28, -31.66 75.96, -38.38 84.01 C-45.11 92.07, -56.45 102.11, -61.55 106.61 C-66.65 111.1, -67.76 110.25, -69 110.98" stroke="#E1E1E1" stroke-width="4" fill="none"></path></g></g><mask></mask><g stroke-linecap="round"><g transform="translate(396.3964512640583 186.03475052410724) rotate(0 13.3572349534831 55.015870994700435)"><path d="M0 0 C1.05 1.84, 4.43 7.39, 6.29 11.05 C8.16 14.72, 9.44 17.9, 11.19 22 C12.93 26.1, 14.87 30.25, 16.76 35.65 C18.66 41.04, 21.13 48.51, 22.57 54.38 C24.02 60.26, 24.73 64.6, 25.42 70.9 C26.11 77.2, 26.75 85.67, 26.71 92.19 C26.68 98.71, 25.46 107.06, 25.21 110.03 M0 0 C1.05 1.84, 4.43 7.39, 6.29 11.05 C8.16 14.72, 9.44 17.9, 11.19 22 C12.93 26.1, 14.87 30.25, 16.76 35.65 C18.66 41.04, 21.13 48.51, 22.57 54.38 C24.02 60.26, 24.73 64.6, 25.42 70.9 C26.11 77.2, 26.75 85.67, 26.71 92.19 C26.68 98.71, 25.46 107.06, 25.21 110.03" stroke="#E1E1E1" stroke-width="4" fill="none"></path></g></g><mask></mask><g stroke-linecap="round"><g transform="translate(421.4921701244304 296.14231857675304) rotate(0 54.57208541919127 5.219135013882834)"><path d="M0 0 C-0.83 -0.02, -3.55 -0.91, -4.98 -0.1 C-6.41 0.71, -8.38 3, -8.59 4.84 C-8.79 6.68, -8.67 9.86, -6.22 10.92 C-3.76 11.98, -0.72 11.17, 6.12 11.22 C12.95 11.27, 21.65 11.22, 34.81 11.22 C47.96 11.22, 73.66 11.22, 85.05 11.22 C96.43 11.22, 98.37 11.22, 103.09 11.22 C107.82 11.22, 110.95 12.05, 113.39 11.22 C115.83 10.39, 117.18 8.04, 117.73 6.25 C118.28 4.46, 118.09 1.65, 116.68 0.48 C115.28 -0.69, 110.54 -0.57, 109.31 -0.78 M0 0 C-0.83 -0.02, -3.55 -0.91, -4.98 -0.1 C-6.41 0.71, -8.38 3, -8.59 4.84 C-8.79 6.68, -8.67 9.86, -6.22 10.92 C-3.76 11.98, -0.72 11.17, 6.12 11.22 C12.95 11.27, 21.65 11.22, 34.81 11.22 C47.96 11.22, 73.66 11.22, 85.05 11.22 C96.43 11.22, 98.37 11.22, 103.09 11.22 C107.82 11.22, 110.95 12.05, 113.39 11.22 C115.83 10.39, 117.18 8.04, 117.73 6.25 C118.28 4.46, 118.09 1.65, 116.68 0.48 C115.28 -0.69, 110.54 -0.57, 109.31 -0.78" stroke="#E1E1E1" stroke-width="4" fill="none"></path></g></g><mask></mask><g stroke-linecap="round"><g transform="translate(530.878036539406 294.7862506778289) rotate(0 11.06654312322334 -55.30292680555614)"><path d="M0 0 C-0.24 -1.71, -1.13 -6.35, -1.46 -10.26 C-1.79 -14.17, -2.03 -18.38, -1.95 -23.46 C-1.88 -28.54, -1.73 -34.95, -1.04 -40.75 C-0.34 -46.55, 0.96 -52.75, 2.24 -58.27 C3.52 -63.79, 5.15 -69.41, 6.66 -73.87 C8.17 -78.33, 9.39 -80.73, 11.3 -85.02 C13.2 -89.32, 15.94 -95.38, 18.07 -99.64 C20.2 -103.91, 23.09 -108.78, 24.09 -110.61 M0 0 C-0.24 -1.71, -1.13 -6.35, -1.46 -10.26 C-1.79 -14.17, -2.03 -18.38, -1.95 -23.46 C-1.88 -28.54, -1.73 -34.95, -1.04 -40.75 C-0.34 -46.55, 0.96 -52.75, 2.24 -58.27 C3.52 -63.79, 5.15 -69.41, 6.66 -73.87 C8.17 -78.33, 9.39 -80.73, 11.3 -85.02 C13.2 -89.32, 15.94 -95.38, 18.07 -99.64 C20.2 -103.91, 23.09 -108.78, 24.09 -110.61" stroke="#E1E1E1" stroke-width="4" fill="none"></path></g></g><mask></mask><g stroke-linecap="round"><g transform="translate(555.2306337960675 184.25188515881186) rotate(0 -34.63141636884521 -56.654377762311476)"><path d="M0 0 C-1.44 -0.9, -5.46 -3.01, -8.67 -5.41 C-11.87 -7.81, -15.79 -11.2, -19.24 -14.4 C-22.68 -17.59, -25.96 -20.76, -29.32 -24.59 C-32.67 -28.41, -36.2 -32.81, -39.35 -37.36 C-42.5 -41.91, -45.12 -45.92, -48.22 -51.91 C-51.32 -57.9, -55.47 -67.08, -57.95 -73.31 C-60.43 -79.54, -61.59 -84.27, -63.12 -89.29 C-64.64 -94.32, -66.1 -99.45, -67.13 -103.45 C-68.15 -107.45, -68.91 -111.67, -69.26 -113.31 M0 0 C-1.44 -0.9, -5.46 -3.01, -8.67 -5.41 C-11.87 -7.81, -15.79 -11.2, -19.24 -14.4 C-22.68 -17.59, -25.96 -20.76, -29.32 -24.59 C-32.67 -28.41, -36.2 -32.81, -39.35 -37.36 C-42.5 -41.91, -45.12 -45.92, -48.22 -51.91 C-51.32 -57.9, -55.47 -67.08, -57.95 -73.31 C-60.43 -79.54, -61.59 -84.27, -63.12 -89.29 C-64.64 -94.32, -66.1 -99.45, -67.13 -103.45 C-68.15 -107.45, -68.91 -111.67, -69.26 -113.31" stroke="#E1E1E1" stroke-width="4" fill="none"></path></g></g><mask></mask><g stroke-linecap="round"><g transform="translate(472.8027060004216 189.47291844181754) rotate(0 3.91042885043386 18.902373089617853)"><path d="M0 0 C-0.83 0.29, -3.11 0.68, -4.99 1.76 C-6.87 2.83, -9.6 4.42, -11.3 6.43 C-12.99 8.43, -14.43 10.9, -15.15 13.77 C-15.86 16.64, -16.12 20.75, -15.57 23.63 C-15.02 26.51, -13.5 29, -11.85 31.05 C-10.19 33.1, -7.94 34.7, -5.64 35.92 C-3.33 37.14, -0.62 38.15, 1.99 38.37 C4.61 38.6, 7.62 38.12, 10.06 37.27 C12.5 36.42, 14.74 34.91, 16.62 33.29 C18.5 31.66, 20.23 29.73, 21.36 27.52 C22.49 25.3, 23.37 23, 23.39 20.01 C23.41 17.03, 22.62 12.37, 21.48 9.62 C20.34 6.88, 18.2 5.01, 16.54 3.55 C14.88 2.09, 13.27 1.55, 11.55 0.86 C9.82 0.18, 7.08 -0.33, 6.19 -0.57 M0 0 C-0.83 0.29, -3.11 0.68, -4.99 1.76 C-6.87 2.83, -9.6 4.42, -11.3 6.43 C-12.99 8.43, -14.43 10.9, -15.15 13.77 C-15.86 16.64, -16.12 20.75, -15.57 23.63 C-15.02 26.51, -13.5 29, -11.85 31.05 C-10.19 33.1, -7.94 34.7, -5.64 35.92 C-3.33 37.14, -0.62 38.15, 1.99 38.37 C4.61 38.6, 7.62 38.12, 10.06 37.27 C12.5 36.42, 14.74 34.91, 16.62 33.29 C18.5 31.66, 20.23 29.73, 21.36 27.52 C22.49 25.3, 23.37 23, 23.39 20.01 C23.41 17.03, 22.62 12.37, 21.48 9.62 C20.34 6.88, 18.2 5.01, 16.54 3.55 C14.88 2.09, 13.27 1.55, 11.55 0.86 C9.82 0.18, 7.08 -0.33, 6.19 -0.57" stroke="#E1E1E1" stroke-width="4" fill="none"></path></g></g><mask></mask><g stroke-linecap="round"><g transform="translate(422.26407733957745 316.92566920232866) rotate(0 54.174697250648876 34.612991137667535)"><path d="M0 0 C0 14.83, 0 29.66, 0 69.36 M0 0 C0 26.97, 0 53.95, 0 69.36 M0 69.36 C32.28 69.36, 64.56 69.36, 108.35 69.36 M0 69.36 C26.22 69.36, 52.44 69.36, 108.35 69.36 M108.35 69.36 C108.35 52.24, 108.35 35.13, 108.35 -0.13 M108.35 69.36 C108.35 44.8, 108.35 20.24, 108.35 -0.13 M108.35 -0.13 C67.04 -0.08, 25.73 -0.03, 0 0 M108.35 -0.13 C86.38 -0.1, 64.41 -0.08, 0 0" stroke="#E1E1E1" stroke-width="4" fill="none"></path></g></g><mask></mask><g stroke-linecap="round"><g transform="translate(435.11205829565347 41.9797691457865) rotate(0 -195.8387005614896 197.07632255793686)"><path d="M0 0 C-2.51 0.06, -7.97 -0.2, -15.08 0.38 C-22.2 0.96, -32.92 2.13, -42.69 3.47 C-52.47 4.81, -63.67 6.31, -73.73 8.42 C-83.79 10.54, -92.87 13.08, -103.06 16.16 C-113.24 19.24, -124.45 22.83, -134.84 26.88 C-145.24 30.93, -155.17 35.38, -165.42 40.48 C-175.67 45.58, -187.37 52.21, -196.34 57.48 C-205.31 62.75, -211.35 66.7, -219.25 72.11 C-227.15 77.52, -235.62 83.41, -243.73 89.94 C-251.84 96.47, -258.95 102.67, -267.9 111.31 C-276.85 119.95, -288.52 131.3, -297.42 141.79 C-306.32 152.28, -313.61 163.09, -321.28 174.24 C-328.95 185.39, -336.3 195.57, -343.46 208.68 C-350.61 221.79, -358.59 239, -364.21 252.91 C-369.84 266.81, -373.2 277.54, -377.21 292.1 C-381.22 306.66, -385.99 326.46, -388.27 340.24 C-390.54 354.03, -390.28 365.81, -390.85 374.79 C-391.42 383.78, -391.54 390.93, -391.68 394.15 M0 0 C-2.51 0.06, -7.97 -0.2, -15.08 0.38 C-22.2 0.96, -32.92 2.13, -42.69 3.47 C-52.47 4.81, -63.67 6.31, -73.73 8.42 C-83.79 10.54, -92.87 13.08, -103.06 16.16 C-113.24 19.24, -124.45 22.83, -134.84 26.88 C-145.24 30.93, -155.17 35.38, -165.42 40.48 C-175.67 45.58, -187.37 52.21, -196.34 57.48 C-205.31 62.75, -211.35 66.7, -219.25 72.11 C-227.15 77.52, -235.62 83.41, -243.73 89.94 C-251.84 96.47, -258.95 102.67, -267.9 111.31 C-276.85 119.95, -288.52 131.3, -297.42 141.79 C-306.32 152.28, -313.61 163.09, -321.28 174.24 C-328.95 185.39, -336.3 195.57, -343.46 208.68 C-350.61 221.79, -358.59 239, -364.21 252.91 C-369.84 266.81, -373.2 277.54, -377.21 292.1 C-381.22 306.66, -385.99 326.46, -388.27 340.24 C-390.54 354.03, -390.28 365.81, -390.85 374.79 C-391.42 383.78, -391.54 390.93, -391.68 394.15" stroke="#E1E1E1" stroke-width="4" fill="none"></path></g></g><mask></mask><g stroke-linecap="round"><g transform="translate(59.13214799596176 435.86245783076146) rotate(0 188.13635796125487 -188.54544369313507)"><path d="M0 0 C0.16 -5.14, -0.01 -20.14, 0.99 -30.86 C1.99 -41.58, 3.97 -53.25, 6.01 -64.3 C8.05 -75.34, 9.32 -84.34, 13.24 -97.12 C17.16 -109.89, 23.3 -126.5, 29.52 -140.94 C35.75 -155.37, 43.13 -170.5, 50.6 -183.74 C58.07 -196.99, 65.66 -208.55, 74.33 -220.42 C83 -232.29, 92.41 -243.93, 102.63 -254.97 C112.85 -266, 121.99 -275.4, 135.64 -286.63 C149.3 -297.85, 168.4 -312.41, 184.56 -322.32 C200.72 -332.23, 216.24 -339.2, 232.59 -346.08 C248.95 -352.97, 265.69 -358.99, 282.68 -363.64 C299.68 -368.29, 318.96 -371.76, 334.56 -374 C350.15 -376.24, 369.32 -376.58, 376.27 -377.09 M0 0 C0.16 -5.14, -0.01 -20.14, 0.99 -30.86 C1.99 -41.58, 3.97 -53.25, 6.01 -64.3 C8.05 -75.34, 9.32 -84.34, 13.24 -97.12 C17.16 -109.89, 23.3 -126.5, 29.52 -140.94 C35.75 -155.37, 43.13 -170.5, 50.6 -183.74 C58.07 -196.99, 65.66 -208.55, 74.33 -220.42 C83 -232.29, 92.41 -243.93, 102.63 -254.97 C112.85 -266, 121.99 -275.4, 135.64 -286.63 C149.3 -297.85, 168.4 -312.41, 184.56 -322.32 C200.72 -332.23, 216.24 -339.2, 232.59 -346.08 C248.95 -352.97, 265.69 -358.99, 282.68 -363.64 C299.68 -368.29, 318.96 -371.76, 334.56 -374 C350.15 -376.24, 369.32 -376.58, 376.27 -377.09" stroke="#E1E1E1" stroke-width="4" fill="none"></path></g></g><mask></mask><g stroke-linecap="round"><g transform="translate(436.0959577207843 42.16763238324487) rotate(0 40.334711836266166 8.085155502937162)"><path d="M0 0 C-0.02 -9.16, -0.03 -18.32, -0.06 -32.17 M0 0 C-0.01 -7.79, -0.03 -15.59, -0.06 -32.17 M-0.06 -32.17 C27.39 -32.17, 54.84 -32.17, 80.73 -32.17 M-0.06 -32.17 C18.09 -32.17, 36.25 -32.17, 80.73 -32.17 M80.73 -32.17 C80.73 -9.22, 80.73 13.73, 80.73 48.34 M80.73 -32.17 C80.73 -8.98, 80.73 14.21, 80.73 48.34 M80.73 48.34 C72.9 48.34, 65.08 48.34, 56.1 48.34 M80.73 48.34 C72.27 48.34, 63.8 48.34, 56.1 48.34" stroke="#E1E1E1" stroke-width="4" fill="none"></path></g></g><mask></mask><g stroke-linecap="round"><g transform="translate(436.2794954973677 58.81120363295279) rotate(0 11.99711202068795 16.11229619143709)"><path d="M0 0 C0 7.74, 0 15.48, 0 32.22 M0 0 C0 12.13, 0 24.25, 0 32.22 M0 32.22 C9.54 32.22, 19.08 32.22, 23.99 32.22 M0 32.22 C5.58 32.22, 11.15 32.22, 23.99 32.22" stroke="#E1E1E1" stroke-width="4" fill="none"></path></g></g><mask></mask><g stroke-linecap="round"><g transform="translate(42.510798800764746 435.3189108122615) rotate(0 7.7876977270951215 40.028815541960626)"><path d="M0 0 C-12.74 0, -25.48 0, -32.51 0 M0 0 C-12.1 0, -24.21 0, -32.51 0 M-32.51 0 C-32.51 26.16, -32.51 52.33, -32.51 80.6 M-32.51 0 C-32.51 29.98, -32.51 59.96, -32.51 80.6 M-32.51 80.6 C-0.5 80.6, 31.51 80.6, 48.09 80.6 M-32.51 80.6 C-3.81 80.6, 24.9 80.6, 48.09 80.6 M48.09 80.6 C48.09 54.35, 48.09 28.09, 48.09 -0.54 M48.09 80.6 C48.09 56.47, 48.09 32.34, 48.09 -0.54 M48.09 -0.54 C38.14 -0.54, 28.2 -0.54, 17.68 -0.54 M48.09 -0.54 C36.47 -0.54, 24.86 -0.54, 17.68 -0.54" stroke="#E1E1E1" stroke-width="4" fill="none"></path></g></g><mask></mask><g stroke-linecap="round"><g transform="translate(27.15761766611547 452.16500650509585) rotate(0 23.60148132788248 23.980511448872505)"><path d="M0 0 C17.37 0, 34.73 0, 47.2 0 M0 0 C12.96 0, 25.91 0, 47.2 0 M47.2 0 C47.2 18.38, 47.2 36.76, 47.2 47.9 M47.2 0 C47.2 18.22, 47.2 36.44, 47.2 47.9 M47.2 47.9 C34.89 47.91, 22.58 47.93, 0.32 47.96 M47.2 47.9 C33.41 47.92, 19.61 47.93, 0.32 47.96 M0.32 47.96 C0.25 37.49, 0.18 27.03, 0 0 M0.32 47.96 C0.25 37.64, 0.18 27.31, 0 0" stroke="#E1E1E1" stroke-width="4" fill="none"></path></g></g><mask></mask></svg>