<svg version="1.1" xmlns="http://www.w3.org/2000/svg" viewBox="0 0 500.5905722974478 396.6856084330625" width="500.5905722974478" height="396.6856084330625" class="excalidraw-svg">
  <!-- svg-source:excalidraw -->
  
  <defs>
    <style class="style-fonts">
      
    </style>
    
  </defs>
  <rect x="0" y="0" width="500.5905722974478" height="396.6856084330625" fill="#000000"></rect><g stroke-linecap="round"><g transform="translate(41.48159950119157 293.1010320737884) rotate(134.99999999999994 56.2787634637664 14.866555407577458)"><path d="M0 0 C13.57 10.86, 27.14 21.73, 37.15 29.73 M0 0 C7.71 6.17, 15.42 12.34, 37.15 29.73 M37.15 29.73 C37.15 23.98, 37.15 18.23, 37.15 7.66 M37.15 29.73 C37.15 21.09, 37.15 12.45, 37.15 7.66 M37.15 7.66 C60.66 7.66, 84.17 7.66, 112.56 7.66 M37.15 7.66 C64.08 7.66, 91.02 7.66, 112.56 7.66" stroke="#b3a2fa" stroke-width="4" fill="none"></path></g></g><mask></mask><g stroke-linecap="round"><g transform="translate(86.40503564803066 368.4701289854003) rotate(134.99999999999994 56.43239159302914 -15.388703527634746)"><path d="M0 0 C14.99 -12.18, 29.98 -24.36, 37.88 -30.78 M0 0 C14.63 -11.89, 29.26 -23.78, 37.88 -30.78 M37.88 -30.78 C37.88 -25.36, 37.88 -19.94, 37.88 -5.55 M37.88 -30.78 C37.88 -22.45, 37.88 -14.12, 37.88 -5.55 M37.88 -5.55 C66.83 -5.55, 95.77 -5.55, 112.86 -5.55 M37.88 -5.55 C58.78 -5.55, 79.68 -5.55, 112.86 -5.55" stroke="#b3a2fa" stroke-width="4" fill="none"></path></g></g><mask></mask><g stroke-linecap="round"><g transform="translate(304.7122729782418 337.12048176631214) rotate(44.99999999999995 56.27876346376641 14.866555407577458)"><path d="M0 0 C14.63 11.71, 29.25 23.42, 37.15 29.73 M0 0 C13.81 11.05, 27.62 22.11, 37.15 29.73 M37.15 29.73 C37.15 25.12, 37.15 20.51, 37.15 7.66 M37.15 29.73 C37.15 22.99, 37.15 16.24, 37.15 7.66 M37.15 7.66 C57.77 7.66, 78.39 7.66, 112.56 7.66 M37.15 7.66 C57.29 7.66, 77.43 7.66, 112.56 7.66" stroke="#5e34b0" stroke-width="4" fill="none"></path></g></g><mask></mask><g stroke-linecap="round"><g transform="translate(349.7689640934236 322.3982699924383) rotate(44.99999999999995 56.43239159302914 -15.388703527634746)"><path d="M0 0 C10.52 -8.55, 21.04 -17.09, 37.88 -30.78 M0 0 C9.28 -7.54, 18.57 -15.09, 37.88 -30.78 M37.88 -30.78 C37.88 -22.24, 37.88 -13.71, 37.88 -5.55 M37.88 -30.78 C37.88 -24.28, 37.88 -17.79, 37.88 -5.55 M37.88 -5.55 C52.9 -5.55, 67.91 -5.55, 112.86 -5.55 M37.88 -5.55 C61.68 -5.55, 85.47 -5.55, 112.86 -5.55" stroke="#5e34b0" stroke-width="4" fill="none"></path></g></g><mask></mask><g stroke-linecap="round"><g transform="translate(348.05468071127007 76.79938268427412) rotate(314.99999999999994 56.27876346376641 14.866555407577465)"><path d="M0 0 C9.4 7.53, 18.8 15.05, 37.15 29.73 M0 0 C12.12 9.7, 24.25 19.41, 37.15 29.73 M37.15 29.73 C37.15 22.93, 37.15 16.14, 37.15 7.66 M37.15 29.73 C37.15 23.28, 37.15 16.83, 37.15 7.66 M37.15 7.66 C54.02 7.66, 70.89 7.66, 112.56 7.66 M37.15 7.66 C53.71 7.66, 70.27 7.66, 112.56 7.66" stroke="#b3a2fa" stroke-width="4" fill="none"></path></g></g><mask></mask><g stroke-linecap="round"><g transform="translate(303.0676456532849 62.08486742345093) rotate(314.99999999999994 56.43239159302914 -15.38870352763476)"><path d="M0 0 C8.19 -6.65, 16.37 -13.3, 37.88 -30.78 M0 0 C12.19 -9.9, 24.38 -19.81, 37.88 -30.78 M37.88 -30.78 C37.88 -22.32, 37.88 -13.87, 37.88 -5.55 M37.88 -30.78 C37.88 -22.42, 37.88 -14.06, 37.88 -5.55 M37.88 -5.55 C55.54 -5.55, 73.2 -5.55, 112.86 -5.55 M37.88 -5.55 C60.87 -5.55, 83.86 -5.55, 112.86 -5.55" stroke="#b3a2fa" stroke-width="4" fill="none"></path></g></g><mask></mask><g stroke-linecap="round"><g transform="translate(86.07208959937748 29.832015851595486) rotate(225.00000000000006 56.2787634637664 14.866555407577465)"><path d="M0 0 C9.52 7.62, 19.05 15.24, 37.15 29.73 M0 0 C13.77 11.02, 27.53 22.04, 37.15 29.73 M37.15 29.73 C37.15 21.95, 37.15 14.17, 37.15 7.66 M37.15 29.73 C37.15 24.08, 37.15 18.42, 37.15 7.66 M37.15 7.66 C57.09 7.66, 77.04 7.66, 112.56 7.66 M37.15 7.66 C59.76 7.66, 82.37 7.66, 112.56 7.66" stroke="#5e34b0" stroke-width="4" fill="none"></path></g></g><mask></mask><g stroke-linecap="round"><g transform="translate(40.80462349371646 105.0647454958941) rotate(225.00000000000006 56.43239159302914 -15.38870352763476)"><path d="M0 0 C9.87 -8.02, 19.73 -16.03, 37.88 -30.78 M0 0 C14.83 -12.05, 29.66 -24.1, 37.88 -30.78 M37.88 -30.78 C37.88 -22.91, 37.88 -15.05, 37.88 -5.55 M37.88 -30.78 C37.88 -21.77, 37.88 -12.75, 37.88 -5.55 M37.88 -5.55 C58.91 -5.55, 79.93 -5.55, 112.86 -5.55 M37.88 -5.55 C57.17 -5.55, 76.47 -5.55, 112.86 -5.55" stroke="#5e34b0" stroke-width="4" fill="none"></path></g></g><mask></mask><g stroke-linecap="round"><g transform="translate(122.3301129234701 180.9658598249386) rotate(0 128.5341699786213 -55.45843973012745)"><path d="M0 0 C0.97 -4.13, 3.23 -17.24, 5.84 -24.78 C8.44 -32.33, 11.47 -38.3, 15.62 -45.26 C19.76 -52.23, 24.35 -59.55, 30.71 -66.56 C37.06 -73.57, 44.38 -81.11, 53.72 -87.33 C63.07 -93.55, 76.16 -99.93, 86.79 -103.86 C97.41 -107.8, 107.45 -109.85, 117.47 -110.92 C127.48 -111.99, 137.1 -111.59, 146.89 -110.27 C156.68 -108.96, 167.32 -106.56, 176.21 -103.04 C185.11 -99.52, 192.69 -94.47, 200.26 -89.16 C207.83 -83.86, 215.28 -77.88, 221.62 -71.21 C227.97 -64.54, 233.45 -56.77, 238.32 -49.14 C243.18 -41.51, 247.7 -33.21, 250.83 -25.43 C253.95 -17.65, 256.03 -6.28, 257.07 -2.45 M0 0 C0.97 -4.13, 3.23 -17.24, 5.84 -24.78 C8.44 -32.33, 11.47 -38.3, 15.62 -45.26 C19.76 -52.23, 24.35 -59.55, 30.71 -66.56 C37.06 -73.57, 44.38 -81.11, 53.72 -87.33 C63.07 -93.55, 76.16 -99.93, 86.79 -103.86 C97.41 -107.8, 107.45 -109.85, 117.47 -110.92 C127.48 -111.99, 137.1 -111.59, 146.89 -110.27 C156.68 -108.96, 167.32 -106.56, 176.21 -103.04 C185.11 -99.52, 192.69 -94.47, 200.26 -89.16 C207.83 -83.86, 215.28 -77.88, 221.62 -71.21 C227.97 -64.54, 233.45 -56.77, 238.32 -49.14 C243.18 -41.51, 247.7 -33.21, 250.83 -25.43 C253.95 -17.65, 256.03 -6.28, 257.07 -2.45" stroke="#E1E1E1" stroke-width="4" fill="none"></path></g></g><mask></mask><g stroke-linecap="round"><g transform="translate(122.69664973744466 330.06725045923093) rotate(180 128.5341699786213 -55.45843973012745)"><path d="M0 0 C0.97 -4.13, 3.23 -17.24, 5.84 -24.78 C8.44 -32.33, 11.47 -38.3, 15.62 -45.26 C19.76 -52.23, 24.35 -59.55, 30.71 -66.56 C37.06 -73.57, 44.38 -81.11, 53.72 -87.33 C63.07 -93.55, 76.16 -99.93, 86.79 -103.86 C97.41 -107.8, 107.45 -109.85, 117.47 -110.92 C127.48 -111.99, 137.1 -111.59, 146.89 -110.27 C156.68 -108.96, 167.32 -106.56, 176.21 -103.04 C185.11 -99.52, 192.69 -94.47, 200.26 -89.16 C207.83 -83.86, 215.28 -77.88, 221.62 -71.21 C227.97 -64.54, 233.45 -56.77, 238.32 -49.14 C243.18 -41.51, 247.7 -33.21, 250.83 -25.43 C253.95 -17.65, 256.03 -6.28, 257.07 -2.45 M0 0 C0.97 -4.13, 3.23 -17.24, 5.84 -24.78 C8.44 -32.33, 11.47 -38.3, 15.62 -45.26 C19.76 -52.23, 24.35 -59.55, 30.71 -66.56 C37.06 -73.57, 44.38 -81.11, 53.72 -87.33 C63.07 -93.55, 76.16 -99.93, 86.79 -103.86 C97.41 -107.8, 107.45 -109.85, 117.47 -110.92 C127.48 -111.99, 137.1 -111.59, 146.89 -110.27 C156.68 -108.96, 167.32 -106.56, 176.21 -103.04 C185.11 -99.52, 192.69 -94.47, 200.26 -89.16 C207.83 -83.86, 215.28 -77.88, 221.62 -71.21 C227.97 -64.54, 233.45 -56.77, 238.32 -49.14 C243.18 -41.51, 247.7 -33.21, 250.83 -25.43 C253.95 -17.65, 256.03 -6.28, 257.07 -2.45" stroke="#E1E1E1" stroke-width="4" fill="none"></path></g></g><mask></mask><g stroke-linecap="round"><g transform="translate(356.9563730193977 198.89098134865952) rotate(0 66.70394722960157 22.770116772900906)"><path d="M0 0 C20 15.41, 39.99 30.82, 59.1 45.54 M0 0 C15.22 11.72, 30.43 23.45, 59.1 45.54 M59.1 45.54 C59.1 41.18, 59.1 36.83, 59.1 23.79 M59.1 45.54 C59.1 38.64, 59.1 31.73, 59.1 23.79 M59.1 23.79 C82.72 23.79, 106.34 23.79, 133.41 23.79 M59.1 23.79 C75.21 23.79, 91.33 23.79, 133.41 23.79" stroke="#9e75ed" stroke-width="4" fill="none"></path></g></g><mask></mask><g stroke-linecap="round"><g transform="translate(356.8660918416665 198.78384768442146) rotate(0 66.86224022789065 -23.459864970768862)"><path d="M0 0 C18.43 -14.45, 36.85 -28.9, 59.83 -46.92 M0 0 C17.49 -13.72, 34.99 -27.44, 59.83 -46.92 M59.83 -46.92 C59.83 -41.36, 59.83 -35.8, 59.83 -22.06 M59.83 -46.92 C59.83 -41.46, 59.83 -36, 59.83 -22.06 M59.83 -22.06 C81.73 -22.06, 103.62 -22.06, 133.72 -22.06 M59.83 -22.06 C79.77 -22.06, 99.7 -22.06, 133.72 -22.06" stroke="#9e75ed" stroke-width="4" fill="none"></path></g></g><mask></mask><g stroke-linecap="round"><g transform="translate(10.229658894006889 154.01719954652452) rotate(180 67.69256980356253 23.107593824685125)"><path d="M0 0 C20.1 15.49, 40.19 30.97, 59.97 46.22 M0 0 C19.87 15.31, 39.74 30.62, 59.97 46.22 M59.97 46.22 C59.97 41.02, 59.97 35.82, 59.97 24.14 M59.97 46.22 C59.97 39.45, 59.97 32.68, 59.97 24.14 M59.97 24.14 C84.6 24.14, 109.22 24.14, 135.39 24.14 M59.97 24.14 C86.87 24.14, 113.78 24.14, 135.39 24.14" stroke="#9e75ed" stroke-width="4" fill="none"></path></g></g><mask></mask><g stroke-linecap="round"><g transform="translate(10 247.95623832451264) rotate(180 67.85320887038142 -23.807564815462385)"><path d="M0 0 C21.41 -16.79, 42.81 -33.57, 60.72 -47.62 M0 0 C15.56 -12.2, 31.13 -24.41, 60.72 -47.62 M60.72 -47.62 C60.72 -40.94, 60.72 -34.27, 60.72 -22.39 M60.72 -47.62 C60.72 -40.05, 60.72 -32.48, 60.72 -22.39 M60.72 -22.39 C82.23 -22.39, 103.74 -22.39, 135.71 -22.39 M60.72 -22.39 C78.43 -22.39, 96.13 -22.39, 135.71 -22.39" stroke="#9e75ed" stroke-width="4" fill="none"></path></g></g><mask></mask><g stroke-linecap="round"><g transform="translate(146.06305644376516 200.5438018099432) rotate(0 105.64822119790124 -0.7607265664056797)"><path d="M0 0 C65.88 -0.47, 131.76 -0.95, 211.3 -1.52 M0 0 C75.48 -0.54, 150.96 -1.09, 211.3 -1.52" stroke="#E1E1E1" stroke-width="4" fill="none"></path></g></g><mask></mask><g stroke-linecap="round"><g transform="translate(250.4006689008745 69.55377144645598) rotate(0 0 129.60520439670373)"><path d="M0 0 C0 100.07, 0 200.13, 0 259.21 M0 0 C0 72.24, 0 144.49, 0 259.21" stroke="#E1E1E1" stroke-width="4" fill="none"></path></g></g><mask></mask><g stroke-linecap="round"><g transform="translate(149.35108660724245 276.69699147666887) rotate(0 101.94791989643882 -9.858995315234637)"><path d="M0 0 C4.14 -1.7, 15.31 -7.38, 24.83 -10.19 C34.36 -12.99, 47.22 -15.36, 57.16 -16.82 C67.11 -18.29, 76.3 -18.49, 84.5 -18.97 C92.71 -19.45, 98.54 -19.79, 106.4 -19.72 C114.26 -19.64, 123.05 -19.4, 131.66 -18.51 C140.27 -17.63, 149.53 -15.98, 158.05 -14.42 C166.57 -12.86, 175.11 -11.53, 182.75 -9.14 C190.39 -6.75, 200.37 -1.6, 203.9 -0.1 M0 0 C4.14 -1.7, 15.31 -7.38, 24.83 -10.19 C34.36 -12.99, 47.22 -15.36, 57.16 -16.82 C67.11 -18.29, 76.3 -18.49, 84.5 -18.97 C92.71 -19.45, 98.54 -19.79, 106.4 -19.72 C114.26 -19.64, 123.05 -19.4, 131.66 -18.51 C140.27 -17.63, 149.53 -15.98, 158.05 -14.42 C166.57 -12.86, 175.11 -11.53, 182.75 -9.14 C190.39 -6.75, 200.37 -1.6, 203.9 -0.1" stroke="#E1E1E1" stroke-width="4" fill="none"></path></g></g><mask></mask><g stroke-linecap="round"><g transform="translate(148.5917971885301 121.84406399127073) rotate(0 101.637019987635 9.629845980060622)"><path d="M0 0 C4.21 1.5, 16.15 6.42, 25.28 9.01 C34.42 11.61, 43.93 13.87, 54.81 15.58 C65.68 17.28, 78.65 18.8, 90.54 19.26 C102.42 19.72, 113.28 19.42, 126.11 18.35 C138.94 17.28, 154.68 15.79, 167.54 12.82 C180.4 9.85, 197.32 2.6, 203.27 0.55 M0 0 C4.21 1.5, 16.15 6.42, 25.28 9.01 C34.42 11.61, 43.93 13.87, 54.81 15.58 C65.68 17.28, 78.65 18.8, 90.54 19.26 C102.42 19.72, 113.28 19.42, 126.11 18.35 C138.94 17.28, 154.68 15.79, 167.54 12.82 C180.4 9.85, 197.32 2.6, 203.27 0.55" stroke="#E1E1E1" stroke-width="4" fill="none"></path></g></g><mask></mask><g stroke-linecap="round"><g transform="translate(263.30147708658524 70.96424106723015) rotate(0 32.75534915682183 128.17499029090928)"><path d="M0 0 C3.23 1.89, 13.58 7.04, 19.38 11.33 C25.19 15.61, 30.06 19.86, 34.83 25.72 C39.61 31.58, 44.31 39.18, 48.03 46.47 C51.75 53.76, 54.37 60.04, 57.16 69.46 C59.94 78.88, 63.34 92.25, 64.74 102.98 C66.13 113.72, 66.1 122.34, 65.51 133.87 C64.92 145.41, 63.92 159.83, 61.18 172.2 C58.45 184.56, 54.34 197.15, 49.1 208.05 C43.86 218.95, 36.31 229.55, 29.75 237.6 C23.2 245.65, 13.1 253.22, 9.77 256.35 M0 0 C3.23 1.89, 13.58 7.04, 19.38 11.33 C25.19 15.61, 30.06 19.86, 34.83 25.72 C39.61 31.58, 44.31 39.18, 48.03 46.47 C51.75 53.76, 54.37 60.04, 57.16 69.46 C59.94 78.88, 63.34 92.25, 64.74 102.98 C66.13 113.72, 66.1 122.34, 65.51 133.87 C64.92 145.41, 63.92 159.83, 61.18 172.2 C58.45 184.56, 54.34 197.15, 49.1 208.05 C43.86 218.95, 36.31 229.55, 29.75 237.6 C23.2 245.65, 13.1 253.22, 9.77 256.35" stroke="#E1E1E1" stroke-width="4" fill="none"></path></g></g><mask></mask><g stroke-linecap="round"><g transform="translate(226.68465197081605 73.0191532134665) rotate(0 -28.06645830113731 127.08250535240228)"><path d="M0 0 C-3.08 3.07, -12.88 12.08, -18.46 18.4 C-24.05 24.71, -29.19 30.44, -33.51 37.9 C-37.82 45.36, -40.98 53.37, -44.36 63.17 C-47.74 72.97, -51.81 85.16, -53.77 96.7 C-55.73 108.25, -56.81 119.65, -56.13 132.43 C-55.46 145.22, -52.4 161.61, -49.72 173.41 C-47.05 185.2, -44.71 193.34, -40.08 203.22 C-35.45 213.11, -28.52 224.25, -21.94 232.74 C-15.36 241.23, -4.16 250.59, -0.61 254.17 M0 0 C-3.08 3.07, -12.88 12.08, -18.46 18.4 C-24.05 24.71, -29.19 30.44, -33.51 37.9 C-37.82 45.36, -40.98 53.37, -44.36 63.17 C-47.74 72.97, -51.81 85.16, -53.77 96.7 C-55.73 108.25, -56.81 119.65, -56.13 132.43 C-55.46 145.22, -52.4 161.61, -49.72 173.41 C-47.05 185.2, -44.71 193.34, -40.08 203.22 C-35.45 213.11, -28.52 224.25, -21.94 232.74 C-15.36 241.23, -4.16 250.59, -0.61 254.17" stroke="#E1E1E1" stroke-width="4" fill="none"></path></g></g><mask></mask></svg>