<svg version="1.1" xmlns="http://www.w3.org/2000/svg" viewBox="0 0 363.40958524236964 334.76249708004843" width="363.40958524236964" height="334.76249708004843" class="excalidraw-svg"><!-- svg-source:excalidraw --><metadata></metadata><defs><style class="style-fonts">
      </style></defs><rect x="0" y="0" width="363.40958524236964" height="334.76249708004843" fill="#000000"></rect><g stroke-linecap="round"><g transform="translate(84.81255660375041 312.16603365463743) rotate(0 60.81865353743427 -144.58433905544973)"><path d="M0 0 C6.94 -0.09, 28.18 -0.44, 41.64 -0.53 C55.1 -0.63, 70.14 -0.61, 80.74 -0.59 C91.33 -0.57, 99.16 -0.45, 105.2 -0.42 C111.23 -0.39, 114.22 -0.42, 116.93 -0.42 C119.65 -0.42, 120.68 0.06, 121.46 -0.42 C122.25 -0.9, 121.61 -0.08, 121.64 -3.28 C121.67 -6.48, 121.64 -10.46, 121.64 -19.64 C121.64 -28.82, 121.64 -46.9, 121.64 -58.36 C121.64 -69.81, 121.64 -77.87, 121.64 -88.37 C121.64 -98.87, 121.64 -110.57, 121.64 -121.37 C121.64 -132.17, 121.64 -143.14, 121.64 -153.16 C121.64 -163.18, 121.64 -171.87, 121.64 -181.49 C121.64 -191.11, 121.64 -198.48, 121.64 -210.88 C121.64 -223.29, 121.64 -244.58, 121.64 -255.91 C121.64 -267.24, 121.64 -273.41, 121.64 -278.87 C121.64 -284.33, 121.83 -286.96, 121.64 -288.68 C121.45 -290.39, 122.86 -289.09, 120.51 -289.17 C118.16 -289.25, 114.3 -289.17, 107.56 -289.17 C100.81 -289.17, 89.32 -289.17, 80.04 -289.17 C70.76 -289.17, 62.45 -289.17, 51.89 -289.17 C41.34 -289.17, 24.93 -289.17, 16.72 -289.17 C8.51 -289.17, 1 -289.94, 2.65 -289.17 C4.3 -288.4, 17.52 -286.33, 26.62 -284.56 C35.71 -282.78, 48.83 -280.1, 57.22 -278.54 C65.61 -276.98, 72.21 -275.96, 76.96 -275.2 C81.71 -274.44, 83.4 -274.83, 85.71 -273.99 C88.01 -273.15, 89.7 -271.62, 90.78 -270.17 C91.86 -268.72, 91.93 -267.55, 92.2 -265.3 C92.47 -263.04, 92.35 -264.15, 92.38 -256.63 C92.41 -249.11, 92.38 -236.17, 92.38 -220.17 C92.38 -204.17, 92.38 -177.24, 92.38 -160.62 C92.38 -144.01, 92.38 -131.15, 92.38 -120.48 C92.38 -109.81, 92.38 -106.47, 92.38 -96.59 C92.38 -86.7, 92.38 -71.06, 92.38 -61.19 C92.38 -51.32, 92.36 -43.25, 92.38 -37.37 C92.4 -31.5, 92.69 -28.72, 92.5 -25.96 C92.31 -23.19, 91.9 -22.09, 91.23 -20.79 C90.56 -19.48, 89.47 -18.93, 88.48 -18.12 C87.49 -17.32, 87.99 -16.76, 85.27 -15.96 C82.55 -15.16, 77.39 -14.27, 72.17 -13.32 C66.95 -12.36, 61.01 -11.54, 53.97 -10.22 C46.93 -8.9, 37.22 -6.82, 29.94 -5.37 C22.65 -3.92, 15.24 -2.42, 10.25 -1.52 C5.27 -0.63, 1.71 -0.25, 0 0 M0 0 C6.94 -0.09, 28.18 -0.44, 41.64 -0.53 C55.1 -0.63, 70.14 -0.61, 80.74 -0.59 C91.33 -0.57, 99.16 -0.45, 105.2 -0.42 C111.23 -0.39, 114.22 -0.42, 116.93 -0.42 C119.65 -0.42, 120.68 0.06, 121.46 -0.42 C122.25 -0.9, 121.61 -0.08, 121.64 -3.28 C121.67 -6.48, 121.64 -10.46, 121.64 -19.64 C121.64 -28.82, 121.64 -46.9, 121.64 -58.36 C121.64 -69.81, 121.64 -77.87, 121.64 -88.37 C121.64 -98.87, 121.64 -110.57, 121.64 -121.37 C121.64 -132.17, 121.64 -143.14, 121.64 -153.16 C121.64 -163.18, 121.64 -171.87, 121.64 -181.49 C121.64 -191.11, 121.64 -198.48, 121.64 -210.88 C121.64 -223.29, 121.64 -244.58, 121.64 -255.91 C121.64 -267.24, 121.64 -273.41, 121.64 -278.87 C121.64 -284.33, 121.83 -286.96, 121.64 -288.68 C121.45 -290.39, 122.86 -289.09, 120.51 -289.17 C118.16 -289.25, 114.3 -289.17, 107.56 -289.17 C100.81 -289.17, 89.32 -289.17, 80.04 -289.17 C70.76 -289.17, 62.45 -289.17, 51.89 -289.17 C41.34 -289.17, 24.93 -289.17, 16.72 -289.17 C8.51 -289.17, 1 -289.94, 2.65 -289.17 C4.3 -288.4, 17.52 -286.33, 26.62 -284.56 C35.71 -282.78, 48.83 -280.1, 57.22 -278.54 C65.61 -276.98, 72.21 -275.96, 76.96 -275.2 C81.71 -274.44, 83.4 -274.83, 85.71 -273.99 C88.01 -273.15, 89.7 -271.62, 90.78 -270.17 C91.86 -268.72, 91.93 -267.55, 92.2 -265.3 C92.47 -263.04, 92.35 -264.15, 92.38 -256.63 C92.41 -249.11, 92.38 -236.17, 92.38 -220.17 C92.38 -204.17, 92.38 -177.24, 92.38 -160.62 C92.38 -144.01, 92.38 -131.15, 92.38 -120.48 C92.38 -109.81, 92.38 -106.47, 92.38 -96.59 C92.38 -86.7, 92.38 -71.06, 92.38 -61.19 C92.38 -51.32, 92.36 -43.25, 92.38 -37.37 C92.4 -31.5, 92.69 -28.72, 92.5 -25.96 C92.31 -23.19, 91.9 -22.09, 91.23 -20.79 C90.56 -19.48, 89.47 -18.93, 88.48 -18.12 C87.49 -17.32, 87.99 -16.76, 85.27 -15.96 C82.55 -15.16, 77.39 -14.27, 72.17 -13.32 C66.95 -12.36, 61.01 -11.54, 53.97 -10.22 C46.93 -8.9, 37.22 -6.82, 29.94 -5.37 C22.65 -3.92, 15.24 -2.42, 10.25 -1.52 C5.27 -0.63, 1.71 -0.25, 0 0" stroke="#E1E1E1" stroke-width="2" fill="none"></path></g></g><mask></mask><g stroke-linecap="round"><g transform="translate(23.627018738042807 311.2426189797402) rotate(0 70.39608943394092 -143.47381854630282)"><path d="M0 0 C6.7 -1.29, 27.65 -5.35, 40.21 -7.75 C52.77 -10.15, 63.38 -12.16, 75.38 -14.41 C87.37 -16.67, 101.77 -19.3, 112.16 -21.28 C122.56 -23.26, 132.98 -25.4, 137.72 -26.29 C142.46 -27.18, 140.12 -26.23, 140.63 -26.64 C141.14 -27.04, 140.79 -26.3, 140.79 -28.74 C140.8 -31.18, 140.69 -31.98, 140.66 -41.27 C140.64 -50.57, 140.66 -70.79, 140.66 -84.53 C140.66 -98.27, 140.66 -107.59, 140.66 -123.71 C140.66 -139.84, 140.66 -165.21, 140.66 -181.28 C140.66 -197.35, 140.66 -209.24, 140.66 -220.13 C140.66 -231.03, 140.66 -240.48, 140.66 -246.66 C140.66 -252.83, 140.66 -254.93, 140.66 -257.19 C140.66 -259.45, 141.09 -259.57, 140.66 -260.21 C140.24 -260.85, 140.67 -260.46, 138.13 -261.04 C135.6 -261.61, 131.3 -262.51, 125.45 -263.64 C119.6 -264.77, 110.05 -266.49, 103.03 -267.81 C96.01 -269.13, 90.97 -270.13, 83.35 -271.56 C75.73 -273, 65.21 -274.93, 57.33 -276.44 C49.44 -277.94, 42.77 -279.28, 36.04 -280.59 C29.32 -281.91, 21.96 -283.43, 16.97 -284.33 C11.98 -285.24, 8.88 -285.58, 6.11 -286.02 C3.34 -286.45, 1.37 -287.21, 0.36 -286.95 C-0.66 -286.68, 0.07 -287.61, 0.01 -284.44 C-0.05 -281.27, 0.01 -275.29, 0.01 -267.92 C0.01 -260.55, 0.01 -250.67, 0.01 -240.2 C0.01 -229.73, 0.01 -219.77, 0.01 -205.1 C0.01 -190.44, 0.01 -165.28, 0.01 -152.22 C0.01 -139.17, 0.01 -138.64, 0.01 -126.79 C0.01 -114.94, 0.01 -102.23, 0.01 -81.1 C0.01 -59.97, 0 -13.52, 0 0 M0 0 C6.7 -1.29, 27.65 -5.35, 40.21 -7.75 C52.77 -10.15, 63.38 -12.16, 75.38 -14.41 C87.37 -16.67, 101.77 -19.3, 112.16 -21.28 C122.56 -23.26, 132.98 -25.4, 137.72 -26.29 C142.46 -27.18, 140.12 -26.23, 140.63 -26.64 C141.14 -27.04, 140.79 -26.3, 140.79 -28.74 C140.8 -31.18, 140.69 -31.98, 140.66 -41.27 C140.64 -50.57, 140.66 -70.79, 140.66 -84.53 C140.66 -98.27, 140.66 -107.59, 140.66 -123.71 C140.66 -139.84, 140.66 -165.21, 140.66 -181.28 C140.66 -197.35, 140.66 -209.24, 140.66 -220.13 C140.66 -231.03, 140.66 -240.48, 140.66 -246.66 C140.66 -252.83, 140.66 -254.93, 140.66 -257.19 C140.66 -259.45, 141.09 -259.57, 140.66 -260.21 C140.24 -260.85, 140.67 -260.46, 138.13 -261.04 C135.6 -261.61, 131.3 -262.51, 125.45 -263.64 C119.6 -264.77, 110.05 -266.49, 103.03 -267.81 C96.01 -269.13, 90.97 -270.13, 83.35 -271.56 C75.73 -273, 65.21 -274.93, 57.33 -276.44 C49.44 -277.94, 42.77 -279.28, 36.04 -280.59 C29.32 -281.91, 21.96 -283.43, 16.97 -284.33 C11.98 -285.24, 8.88 -285.58, 6.11 -286.02 C3.34 -286.45, 1.37 -287.21, 0.36 -286.95 C-0.66 -286.68, 0.07 -287.61, 0.01 -284.44 C-0.05 -281.27, 0.01 -275.29, 0.01 -267.92 C0.01 -260.55, 0.01 -250.67, 0.01 -240.2 C0.01 -229.73, 0.01 -219.77, 0.01 -205.1 C0.01 -190.44, 0.01 -165.28, 0.01 -152.22 C0.01 -139.17, 0.01 -138.64, 0.01 -126.79 C0.01 -114.94, 0.01 -102.23, 0.01 -81.1 C0.01 -59.97, 0 -13.52, 0 0" stroke="#E1E1E1" stroke-width="2" fill="none"></path></g></g><mask></mask><g stroke-linecap="round"><g transform="translate(10.098537248226194 279.9703720254465) rotate(0 104.57028101127275 -112.57334377550478)"><path d="M0 0 C0.01 4.09, 0.07 18.73, 0.08 24.55 C0.09 30.36, -0.06 32.76, 0.06 34.91 C0.18 37.05, 0.6 36.72, 0.82 37.42 C1.04 38.11, 0.96 38.37, 1.37 39.11 C1.78 39.84, 2.49 40.96, 3.29 41.8 C4.09 42.65, 5.13 43.7, 6.18 44.19 C7.24 44.68, 6.81 44.63, 9.63 44.72 C12.44 44.81, 14.96 44.72, 23.07 44.72 C31.17 44.72, 40.2 44.72, 58.26 44.72 C76.33 44.72, 111.22 44.72, 131.47 44.72 C151.72 44.72, 168.89 44.72, 179.75 44.72 C190.61 44.72, 192.9 44.74, 196.64 44.72 C200.38 44.7, 200.7 44.96, 202.19 44.6 C203.67 44.25, 204.57 43.52, 205.56 42.6 C206.54 41.69, 207.51 40.68, 208.11 39.1 C208.7 37.52, 208.99 36.35, 209.14 33.14 C209.29 29.94, 209.01 30.21, 208.99 19.87 C208.96 9.53, 208.99 -11.66, 208.99 -28.9 C208.99 -46.13, 208.99 -66.86, 208.99 -83.53 C208.99 -100.21, 208.99 -113.6, 208.99 -128.94 C208.99 -144.28, 208.99 -159.34, 208.99 -175.58 C208.99 -191.82, 208.99 -212.56, 208.99 -226.39 C208.99 -240.23, 209.33 -251.94, 208.99 -258.58 C208.65 -265.23, 208.02 -264.49, 206.96 -266.26 C205.9 -268.03, 204.63 -268.58, 202.65 -269.18 C200.68 -269.78, 200.61 -269.75, 195.1 -269.87 C189.6 -269.98, 182.24 -269.87, 169.62 -269.87 C157.01 -269.87, 135.01 -269.87, 119.4 -269.87 C103.78 -269.87, 88.96 -269.87, 75.94 -269.87 C62.91 -269.87, 51.77 -269.87, 41.24 -269.87 C30.71 -269.87, 18.77 -270.1, 12.75 -269.87 C6.73 -269.64, 7 -269.41, 5.12 -268.49 C3.23 -267.58, 2.28 -266, 1.42 -264.37 C0.57 -262.74, 0.24 -264.43, 0.01 -258.72 C-0.23 -253.02, 0.01 -242.16, 0.01 -230.13 C0.01 -218.11, 0.01 -202.68, 0.01 -186.57 C0.01 -170.46, -0.02 -158.83, 0.01 -133.49 C0.03 -108.14, 0.16 -56.72, 0.16 -34.47 C0.16 -12.23, 0.03 -5.75, 0 0 M0 0 C0.01 4.09, 0.07 18.73, 0.08 24.55 C0.09 30.36, -0.06 32.76, 0.06 34.91 C0.18 37.05, 0.6 36.72, 0.82 37.42 C1.04 38.11, 0.96 38.37, 1.37 39.11 C1.78 39.84, 2.49 40.96, 3.29 41.8 C4.09 42.65, 5.13 43.7, 6.18 44.19 C7.24 44.68, 6.81 44.63, 9.63 44.72 C12.44 44.81, 14.96 44.72, 23.07 44.72 C31.17 44.72, 40.2 44.72, 58.26 44.72 C76.33 44.72, 111.22 44.72, 131.47 44.72 C151.72 44.72, 168.89 44.72, 179.75 44.72 C190.61 44.72, 192.9 44.74, 196.64 44.72 C200.38 44.7, 200.7 44.96, 202.19 44.6 C203.67 44.25, 204.57 43.52, 205.56 42.6 C206.54 41.69, 207.51 40.68, 208.11 39.1 C208.7 37.52, 208.99 36.35, 209.14 33.14 C209.29 29.94, 209.01 30.21, 208.99 19.87 C208.96 9.53, 208.99 -11.66, 208.99 -28.9 C208.99 -46.13, 208.99 -66.86, 208.99 -83.53 C208.99 -100.21, 208.99 -113.6, 208.99 -128.94 C208.99 -144.28, 208.99 -159.34, 208.99 -175.58 C208.99 -191.82, 208.99 -212.56, 208.99 -226.39 C208.99 -240.23, 209.33 -251.94, 208.99 -258.58 C208.65 -265.23, 208.02 -264.49, 206.96 -266.26 C205.9 -268.03, 204.63 -268.58, 202.65 -269.18 C200.68 -269.78, 200.61 -269.75, 195.1 -269.87 C189.6 -269.98, 182.24 -269.87, 169.62 -269.87 C157.01 -269.87, 135.01 -269.87, 119.4 -269.87 C103.78 -269.87, 88.96 -269.87, 75.94 -269.87 C62.91 -269.87, 51.77 -269.87, 41.24 -269.87 C30.71 -269.87, 18.77 -270.1, 12.75 -269.87 C6.73 -269.64, 7 -269.41, 5.12 -268.49 C3.23 -267.58, 2.28 -266, 1.42 -264.37 C0.57 -262.74, 0.24 -264.43, 0.01 -258.72 C-0.23 -253.02, 0.01 -242.16, 0.01 -230.13 C0.01 -218.11, 0.01 -202.68, 0.01 -186.57 C0.01 -170.46, -0.02 -158.83, 0.01 -133.49 C0.03 -108.14, 0.16 -56.72, 0.16 -34.47 C0.16 -12.23, 0.03 -5.75, 0 0" stroke="#E1E1E1" stroke-width="2" fill="none"></path></g></g><mask></mask><g stroke-linecap="round"><g transform="translate(260.868998351967 174.09209963017338) rotate(0 35.28932024039892 -6.419661649538398)"><path d="M0 0 C2.39 2.21, 10.11 9.3, 14.34 13.28 C18.58 17.26, 22.21 20.85, 25.43 23.9 C28.66 26.94, 31.82 29.71, 33.7 31.54 C35.58 33.37, 36.12 33.86, 36.72 34.88 C37.31 35.9, 37.22 36.69, 37.3 37.66 C37.37 38.63, 37.54 39.77, 37.15 40.7 C36.76 41.64, 35.72 42.6, 34.93 43.25 C34.14 43.9, 33.37 44.43, 32.41 44.61 C31.45 44.78, 30.55 45, 29.17 44.28 C27.8 43.56, 27.15 42.98, 24.15 40.28 C21.16 37.57, 15.89 32.5, 11.23 28.03 C6.56 23.56, 0.22 17.4, -3.85 13.47 C-7.91 9.54, -10.41 7.1, -13.14 4.47 C-15.87 1.83, -18.8 -0.73, -20.23 -2.33 C-21.66 -3.93, -21.49 -4.07, -21.71 -5.12 C-21.92 -6.17, -22.01 -7.5, -21.53 -8.65 C-21.05 -9.8, -20.64 -10.15, -18.83 -12.01 C-17.03 -13.87, -13.93 -16.72, -10.7 -19.83 C-7.47 -22.93, -3.95 -26.29, 0.56 -30.64 C5.06 -34.99, 12.27 -42.05, 16.35 -45.91 C20.43 -49.76, 23.01 -51.92, 25.05 -53.77 C27.09 -55.62, 27.37 -56.39, 28.59 -57 C29.81 -57.62, 31.16 -57.68, 32.37 -57.44 C33.58 -57.21, 35.03 -56.42, 35.85 -55.59 C36.68 -54.76, 37.11 -53.64, 37.33 -52.47 C37.56 -51.31, 37.81 -49.89, 37.21 -48.62 C36.61 -47.36, 36.13 -47.25, 33.72 -44.89 C31.31 -42.53, 26.65 -38.22, 22.75 -34.46 C18.85 -30.71, 13.82 -25.69, 10.33 -22.35 C6.83 -19, 3.44 -15.96, 1.75 -14.4 C0.07 -12.85, -0.01 -13.26, 0.2 -13.02 C0.41 -12.78, -3 -12.99, 3.01 -12.98 C9.02 -12.97, 26.92 -12.98, 36.26 -12.98 C45.6 -12.98, 52.27 -12.98, 59.08 -12.98 C65.89 -12.98, 72.77 -12.98, 77.11 -12.98 C81.46 -12.98, 83.26 -13.01, 85.16 -12.98 C87.07 -12.95, 87.73 -13.07, 88.52 -12.81 C89.31 -12.55, 89.3 -12.17, 89.93 -11.42 C90.55 -10.67, 91.9 -9.58, 92.29 -8.33 C92.68 -7.09, 92.58 -5.07, 92.26 -3.95 C91.95 -2.83, 91.12 -2.22, 90.4 -1.62 C89.68 -1.03, 89.24 -0.63, 87.93 -0.39 C86.63 -0.14, 86.86 -0.19, 82.58 -0.15 C78.31 -0.12, 68.88 -0.15, 62.28 -0.15 C55.68 -0.15, 50.41 -0.15, 42.96 -0.15 C35.5 -0.15, 24.71 -0.18, 17.55 -0.15 C10.39 -0.13, 2.93 -0.03, 0 0 M0 0 C2.39 2.21, 10.11 9.3, 14.34 13.28 C18.58 17.26, 22.21 20.85, 25.43 23.9 C28.66 26.94, 31.82 29.71, 33.7 31.54 C35.58 33.37, 36.12 33.86, 36.72 34.88 C37.31 35.9, 37.22 36.69, 37.3 37.66 C37.37 38.63, 37.54 39.77, 37.15 40.7 C36.76 41.64, 35.72 42.6, 34.93 43.25 C34.14 43.9, 33.37 44.43, 32.41 44.61 C31.45 44.78, 30.55 45, 29.17 44.28 C27.8 43.56, 27.15 42.98, 24.15 40.28 C21.16 37.57, 15.89 32.5, 11.23 28.03 C6.56 23.56, 0.22 17.4, -3.85 13.47 C-7.91 9.54, -10.41 7.1, -13.14 4.47 C-15.87 1.83, -18.8 -0.73, -20.23 -2.33 C-21.66 -3.93, -21.49 -4.07, -21.71 -5.12 C-21.92 -6.17, -22.01 -7.5, -21.53 -8.65 C-21.05 -9.8, -20.64 -10.15, -18.83 -12.01 C-17.03 -13.87, -13.93 -16.72, -10.7 -19.83 C-7.47 -22.93, -3.95 -26.29, 0.56 -30.64 C5.06 -34.99, 12.27 -42.05, 16.35 -45.91 C20.43 -49.76, 23.01 -51.92, 25.05 -53.77 C27.09 -55.62, 27.37 -56.39, 28.59 -57 C29.81 -57.62, 31.16 -57.68, 32.37 -57.44 C33.58 -57.21, 35.03 -56.42, 35.85 -55.59 C36.68 -54.76, 37.11 -53.64, 37.33 -52.47 C37.56 -51.31, 37.81 -49.89, 37.21 -48.62 C36.61 -47.36, 36.13 -47.25, 33.72 -44.89 C31.31 -42.53, 26.65 -38.22, 22.75 -34.46 C18.85 -30.71, 13.82 -25.69, 10.33 -22.35 C6.83 -19, 3.44 -15.96, 1.75 -14.4 C0.07 -12.85, -0.01 -13.26, 0.2 -13.02 C0.41 -12.78, -3 -12.99, 3.01 -12.98 C9.02 -12.97, 26.92 -12.98, 36.26 -12.98 C45.6 -12.98, 52.27 -12.98, 59.08 -12.98 C65.89 -12.98, 72.77 -12.98, 77.11 -12.98 C81.46 -12.98, 83.26 -13.01, 85.16 -12.98 C87.07 -12.95, 87.73 -13.07, 88.52 -12.81 C89.31 -12.55, 89.3 -12.17, 89.93 -11.42 C90.55 -10.67, 91.9 -9.58, 92.29 -8.33 C92.68 -7.09, 92.58 -5.07, 92.26 -3.95 C91.95 -2.83, 91.12 -2.22, 90.4 -1.62 C89.68 -1.03, 89.24 -0.63, 87.93 -0.39 C86.63 -0.14, 86.86 -0.19, 82.58 -0.15 C78.31 -0.12, 68.88 -0.15, 62.28 -0.15 C55.68 -0.15, 50.41 -0.15, 42.96 -0.15 C35.5 -0.15, 24.71 -0.18, 17.55 -0.15 C10.39 -0.13, 2.93 -0.03, 0 0" stroke="#E1E1E1" stroke-width="2" fill="none"></path></g></g><mask></mask><g stroke-linecap="round" transform="translate(129.8553144128789 160.3570767003921) rotate(0 4.319605126300871 7.197111366969011)"><path d="M8.64 7.2 C8.64 7.61, 8.62 8.04, 8.57 8.45 C8.53 8.86, 8.46 9.27, 8.38 9.66 C8.29 10.05, 8.19 10.43, 8.06 10.8 C7.94 11.16, 7.79 11.5, 7.63 11.82 C7.47 12.14, 7.29 12.44, 7.1 12.71 C6.9 12.98, 6.7 13.22, 6.48 13.43 C6.26 13.64, 6.03 13.82, 5.8 13.96 C5.56 14.1, 5.32 14.21, 5.07 14.28 C4.82 14.36, 4.57 14.39, 4.32 14.39 C4.07 14.39, 3.82 14.36, 3.57 14.28 C3.32 14.21, 3.08 14.1, 2.84 13.96 C2.61 13.82, 2.38 13.64, 2.16 13.43 C1.94 13.22, 1.73 12.98, 1.54 12.71 C1.35 12.44, 1.17 12.14, 1.01 11.82 C0.85 11.5, 0.7 11.16, 0.58 10.8 C0.45 10.43, 0.35 10.05, 0.26 9.66 C0.17 9.27, 0.11 8.86, 0.07 8.45 C0.02 8.04, 0 7.61, 0 7.2 C0 6.78, 0.02 6.36, 0.07 5.95 C0.11 5.54, 0.17 5.13, 0.26 4.74 C0.35 4.34, 0.45 3.96, 0.58 3.6 C0.7 3.24, 0.85 2.89, 1.01 2.57 C1.17 2.25, 1.35 1.95, 1.54 1.68 C1.73 1.42, 1.94 1.17, 2.16 0.96 C2.38 0.76, 2.61 0.58, 2.84 0.43 C3.08 0.29, 3.32 0.18, 3.57 0.11 C3.82 0.04, 4.07 0, 4.32 0 C4.57 0, 4.82 0.04, 5.07 0.11 C5.32 0.18, 5.56 0.29, 5.8 0.43 C6.03 0.58, 6.26 0.76, 6.48 0.96 C6.7 1.17, 6.9 1.42, 7.1 1.68 C7.29 1.95, 7.47 2.25, 7.63 2.57 C7.79 2.89, 7.94 3.24, 8.06 3.6 C8.19 3.96, 8.29 4.34, 8.38 4.74 C8.46 5.13, 8.53 5.54, 8.57 5.95 C8.62 6.36, 8.63 6.99, 8.64 7.2 C8.65 7.41, 8.65 6.99, 8.64 7.2" stroke="#E1E1E1" stroke-width="2" fill="none"></path></g><g stroke-linecap="round" transform="translate(117.23365314514876 147.4772454461372) rotate(0 16.83785309232553 20.137400091135987)"><path d="M33.68 20.14 C33.68 21.3, 33.59 22.49, 33.42 23.63 C33.25 24.78, 32.99 25.93, 32.66 27.02 C32.33 28.12, 31.91 29.2, 31.42 30.21 C30.93 31.22, 30.36 32.19, 29.74 33.08 C29.11 33.97, 28.41 34.81, 27.66 35.56 C26.91 36.31, 26.1 36.99, 25.26 37.58 C24.41 38.16, 23.51 38.66, 22.6 39.06 C21.68 39.46, 20.72 39.77, 19.76 39.97 C18.8 40.17, 17.81 40.27, 16.84 40.27 C15.86 40.27, 14.87 40.17, 13.91 39.97 C12.95 39.77, 11.99 39.46, 11.08 39.06 C10.16 38.66, 9.26 38.16, 8.42 37.58 C7.57 36.99, 6.76 36.31, 6.01 35.56 C5.27 34.81, 4.57 33.97, 3.94 33.08 C3.31 32.19, 2.74 31.22, 2.26 30.21 C1.77 29.2, 1.35 28.12, 1.02 27.02 C0.68 25.93, 0.43 24.78, 0.26 23.63 C0.09 22.49, 0 21.3, 0 20.14 C0 18.97, 0.09 17.79, 0.26 16.64 C0.43 15.49, 0.68 14.35, 1.02 13.25 C1.35 12.15, 1.77 11.08, 2.26 10.07 C2.74 9.06, 3.31 8.09, 3.94 7.19 C4.57 6.3, 5.27 5.46, 6.01 4.71 C6.76 3.96, 7.57 3.28, 8.42 2.7 C9.26 2.12, 10.16 1.61, 11.08 1.21 C11.99 0.82, 12.95 0.51, 13.91 0.31 C14.87 0.1, 15.86 0, 16.84 0 C17.81 0, 18.8 0.1, 19.76 0.31 C20.72 0.51, 21.68 0.82, 22.6 1.21 C23.51 1.61, 24.41 2.12, 25.26 2.7 C26.1 3.28, 26.91 3.96, 27.66 4.71 C28.41 5.46, 29.11 6.3, 29.74 7.19 C30.36 8.09, 30.93 9.06, 31.42 10.07 C31.91 11.08, 32.33 12.15, 32.66 13.25 C32.99 14.35, 33.25 15.49, 33.42 16.64 C33.59 17.79, 33.63 19.55, 33.68 20.14 C33.72 20.72, 33.72 19.55, 33.68 20.14" stroke="#E1E1E1" stroke-width="2" fill="none"></path></g></svg>