<svg version="1.1" xmlns="http://www.w3.org/2000/svg" viewBox="0 0 501.47726242790986 501.78988519799833" width="501.47726242790986" height="501.78988519799833" class="excalidraw-svg"><!-- svg-source:excalidraw --><metadata></metadata><defs><style class="style-fonts">
      </style></defs><rect x="0" y="0" width="501.47726242790986" height="501.78988519799833" fill="#000000"></rect><g stroke-linecap="round"><g transform="translate(290.924645107552 234.61301761296465) rotate(149.99999999999991 -76.67654670008795 13.987994339413746)"><path d="M0 0 C0.04 -9.83, 0.49 -38.35, 0.26 -58.99 C0.03 -79.63, 1.51 -111.05, -1.37 -123.86 C-4.25 -136.66, -0.47 -133.79, -17.03 -135.81 C-33.59 -137.84, -78.56 -136.2, -100.71 -135.99 C-122.86 -135.79, -141.15 -139.56, -149.91 -134.6 C-158.67 -129.64, -152.69 -114.2, -153.28 -106.23 C-153.86 -98.26, -151.91 -90.27, -153.4 -86.8 C-154.89 -83.32, -157.59 -85.66, -162.21 -85.36 C-166.82 -85.05, -176.01 -85.07, -181.1 -84.97 C-186.19 -84.88, -190.72 -81.24, -192.76 -84.79 C-194.81 -88.35, -193.32 -95.53, -193.35 -106.31 C-193.38 -117.1, -193.06 -135.79, -192.95 -149.51 C-192.85 -163.24, -192.78 -180.6, -192.73 -188.69 C-192.67 -196.78, -193.74 -196.3, -192.6 -198.07 C-191.47 -199.83, -197.23 -199.04, -185.9 -199.25 C-174.58 -199.46, -153.42 -199.17, -124.65 -199.32 C-95.89 -199.47, -40.43 -200.05, -13.3 -200.14 C13.83 -200.23, 28.33 -202.31, 38.13 -199.86 C47.94 -197.41, 44.31 -190.53, 45.51 -185.44 C46.72 -180.34, 45.27 -195.07, 45.37 -169.3 C45.46 -143.52, 46.15 -85.02, 46.1 -30.79 C46.04 23.45, 45.67 114.91, 45.04 156.11 C44.4 197.32, 48.93 204.95, 42.28 216.45 C35.62 227.95, 26.17 223.37, 5.12 225.09 C-15.92 226.81, -53.93 226.29, -83.99 226.8 C-114.06 227.3, -156.11 231.45, -175.27 228.11 C-194.42 224.78, -194.87 222.4, -198.9 206.79 C-202.93 191.17, -199.56 150.38, -199.45 134.43 C-199.34 118.49, -203.37 114.85, -198.26 111.11 C-193.16 107.37, -176.18 111.73, -168.83 111.99 C-161.49 112.25, -157.14 104.66, -154.18 112.69 C-151.23 120.72, -157.14 152.15, -151.12 160.17 C-145.09 168.19, -128.61 160.77, -118.05 160.81 C-107.48 160.84, -101.53 160.62, -87.72 160.39 C-73.91 160.16, -49.37 159.57, -35.19 159.43 C-21.01 159.29, -8.52 164.38, -2.65 159.54 C3.23 154.7, -0.21 152.45, 0.04 130.39 C0.29 108.32, -0.96 44.34, -1.16 27.13 M0 0 C0.04 -9.83, 0.49 -38.35, 0.26 -58.99 C0.03 -79.63, 1.51 -111.05, -1.37 -123.86 C-4.25 -136.66, -0.47 -133.79, -17.03 -135.81 C-33.59 -137.84, -78.56 -136.2, -100.71 -135.99 C-122.86 -135.79, -141.15 -139.56, -149.91 -134.6 C-158.67 -129.64, -152.69 -114.2, -153.28 -106.23 C-153.86 -98.26, -151.91 -90.27, -153.4 -86.8 C-154.89 -83.32, -157.59 -85.66, -162.21 -85.36 C-166.82 -85.05, -176.01 -85.07, -181.1 -84.97 C-186.19 -84.88, -190.72 -81.24, -192.76 -84.79 C-194.81 -88.35, -193.32 -95.53, -193.35 -106.31 C-193.38 -117.1, -193.06 -135.79, -192.95 -149.51 C-192.85 -163.24, -192.78 -180.6, -192.73 -188.69 C-192.67 -196.78, -193.74 -196.3, -192.6 -198.07 C-191.47 -199.83, -197.23 -199.04, -185.9 -199.25 C-174.58 -199.46, -153.42 -199.17, -124.65 -199.32 C-95.89 -199.47, -40.43 -200.05, -13.3 -200.14 C13.83 -200.23, 28.33 -202.31, 38.13 -199.86 C47.94 -197.41, 44.31 -190.53, 45.51 -185.44 C46.72 -180.34, 45.27 -195.07, 45.37 -169.3 C45.46 -143.52, 46.15 -85.02, 46.1 -30.79 C46.04 23.45, 45.67 114.91, 45.04 156.11 C44.4 197.32, 48.93 204.95, 42.28 216.45 C35.62 227.95, 26.17 223.37, 5.12 225.09 C-15.92 226.81, -53.93 226.29, -83.99 226.8 C-114.06 227.3, -156.11 231.45, -175.27 228.11 C-194.42 224.78, -194.87 222.4, -198.9 206.79 C-202.93 191.17, -199.56 150.38, -199.45 134.43 C-199.34 118.49, -203.37 114.85, -198.26 111.11 C-193.16 107.37, -176.18 111.73, -168.83 111.99 C-161.49 112.25, -157.14 104.66, -154.18 112.69 C-151.23 120.72, -157.14 152.15, -151.12 160.17 C-145.09 168.19, -128.61 160.77, -118.05 160.81 C-107.48 160.84, -101.53 160.62, -87.72 160.39 C-73.91 160.16, -49.37 159.57, -35.19 159.43 C-21.01 159.29, -8.52 164.38, -2.65 159.54 C3.23 154.7, -0.21 152.45, 0.04 130.39 C0.29 108.32, -0.96 44.34, -1.16 27.13" stroke="#E1E1E1" stroke-width="4" fill="none"></path></g></g><mask></mask><g stroke-linecap="round"><g transform="translate(290.39091131776297 255.45918793416797) rotate(149.99999999999991 27.608542494102437 -65.59505286935068)"><path d="M0 0 C6.94 0.02, 29.35 0.09, 41.66 0.14 C53.96 0.19, 66.35 0.18, 73.84 0.31 C81.33 0.45, 84.17 -1.7, 86.58 0.98 C89 3.65, 88.08 10.19, 88.33 16.36 C88.59 22.53, 87.28 32.91, 88.14 38.01 C88.99 43.1, 90.74 45.18, 93.47 46.93 C96.2 48.67, 100.26 50.74, 104.51 48.5 C108.76 46.27, 111.11 42.64, 118.99 33.51 C126.86 24.38, 140.81 6.79, 151.73 -6.27 C162.65 -19.33, 177.1 -35.65, 184.49 -44.87 C191.87 -54.09, 194.37 -56.82, 196.05 -61.58 C197.73 -66.35, 196.65 -69.1, 194.58 -73.45 C192.52 -77.81, 190.14 -79.88, 183.64 -87.74 C177.14 -95.6, 164.42 -110.06, 155.57 -120.61 C146.72 -131.16, 137.8 -142.41, 130.55 -151.01 C123.3 -159.62, 116.72 -167.49, 112.05 -172.27 C107.38 -177.04, 105.85 -179, 102.51 -179.69 C99.18 -180.38, 94.66 -178.39, 92.04 -176.42 C89.41 -174.45, 87.66 -172.59, 86.79 -167.88 C85.91 -163.17, 86.79 -154.24, 86.79 -148.17 C86.79 -142.1, 89.08 -134.42, 86.79 -131.44 C84.49 -128.46, 82.18 -130.42, 73.01 -130.3 C63.84 -130.19, 53.44 -130.74, 31.76 -130.75 C10.07 -130.75, -33.21 -130.36, -57.09 -130.32 C-80.97 -130.29, -99.31 -130.52, -111.5 -130.55 C-123.69 -130.59, -125.48 -131.92, -130.21 -130.55 C-134.95 -129.19, -138.19 -125.89, -139.89 -122.34 C-141.6 -118.8, -142.15 -113.95, -140.46 -109.27 C-138.77 -104.6, -134.4 -100.16, -129.74 -94.28 C-125.07 -88.41, -116.21 -78.67, -112.47 -74.05 C-108.74 -69.43, -107.48 -69.32, -107.32 -66.55 C-107.17 -63.79, -108.4 -61.72, -111.53 -57.45 C-114.66 -53.18, -121.46 -46.51, -126.08 -40.94 C-130.69 -35.37, -136.76 -28.97, -139.22 -24.04 C-141.68 -19.1, -141.85 -15.35, -140.83 -11.33 C-139.82 -7.32, -137.45 -2.11, -133.14 0.05 C-128.84 2.21, -123.5 1.49, -115.01 1.61 C-106.51 1.73, -94.66 0.97, -82.18 0.77 C-69.7 0.57, -50.86 0.47, -40.12 0.42 C-29.38 0.38, -21.47 0.5, -17.73 0.51 M0 0 C6.94 0.02, 29.35 0.09, 41.66 0.14 C53.96 0.19, 66.35 0.18, 73.84 0.31 C81.33 0.45, 84.17 -1.7, 86.58 0.98 C89 3.65, 88.08 10.19, 88.33 16.36 C88.59 22.53, 87.28 32.91, 88.14 38.01 C88.99 43.1, 90.74 45.18, 93.47 46.93 C96.2 48.67, 100.26 50.74, 104.51 48.5 C108.76 46.27, 111.11 42.64, 118.99 33.51 C126.86 24.38, 140.81 6.79, 151.73 -6.27 C162.65 -19.33, 177.1 -35.65, 184.49 -44.87 C191.87 -54.09, 194.37 -56.82, 196.05 -61.58 C197.73 -66.35, 196.65 -69.1, 194.58 -73.45 C192.52 -77.81, 190.14 -79.88, 183.64 -87.74 C177.14 -95.6, 164.42 -110.06, 155.57 -120.61 C146.72 -131.16, 137.8 -142.41, 130.55 -151.01 C123.3 -159.62, 116.72 -167.49, 112.05 -172.27 C107.38 -177.04, 105.85 -179, 102.51 -179.69 C99.18 -180.38, 94.66 -178.39, 92.04 -176.42 C89.41 -174.45, 87.66 -172.59, 86.79 -167.88 C85.91 -163.17, 86.79 -154.24, 86.79 -148.17 C86.79 -142.1, 89.08 -134.42, 86.79 -131.44 C84.49 -128.46, 82.18 -130.42, 73.01 -130.3 C63.84 -130.19, 53.44 -130.74, 31.76 -130.75 C10.07 -130.75, -33.21 -130.36, -57.09 -130.32 C-80.97 -130.29, -99.31 -130.52, -111.5 -130.55 C-123.69 -130.59, -125.48 -131.92, -130.21 -130.55 C-134.95 -129.19, -138.19 -125.89, -139.89 -122.34 C-141.6 -118.8, -142.15 -113.95, -140.46 -109.27 C-138.77 -104.6, -134.4 -100.16, -129.74 -94.28 C-125.07 -88.41, -116.21 -78.67, -112.47 -74.05 C-108.74 -69.43, -107.48 -69.32, -107.32 -66.55 C-107.17 -63.79, -108.4 -61.72, -111.53 -57.45 C-114.66 -53.18, -121.46 -46.51, -126.08 -40.94 C-130.69 -35.37, -136.76 -28.97, -139.22 -24.04 C-141.68 -19.1, -141.85 -15.35, -140.83 -11.33 C-139.82 -7.32, -137.45 -2.11, -133.14 0.05 C-128.84 2.21, -123.5 1.49, -115.01 1.61 C-106.51 1.73, -94.66 0.97, -82.18 0.77 C-69.7 0.57, -50.86 0.47, -40.12 0.42 C-29.38 0.38, -21.47 0.5, -17.73 0.51" stroke="#E1E1E1" stroke-width="4" fill="none"></path></g></g><mask></mask></svg>