<svg version="1.1" xmlns="http://www.w3.org/2000/svg" viewBox="0 0 389.6228626825303 413.5436553561368" width="389.6228626825303" height="413.5436553561368" class="excalidraw-svg"><!-- svg-source:excalidraw --><metadata></metadata><defs><style class="style-fonts">
      </style></defs><rect x="0" y="0" width="389.6228626825303" height="413.5436553561368" fill="#000000"></rect><g stroke-linecap="round"><g transform="translate(11.164085107640403 382.8010733398629) rotate(0 88.393901998541 -18.84045530224673)"><path d="M0 0 C0.22 -6.87, -2.73 -31.54, 1.32 -41.25 C5.36 -50.96, 6.64 -55.47, 24.26 -58.28 C41.87 -61.1, 84.8 -58.28, 107 -58.16 C129.2 -58.04, 146.15 -60.46, 157.45 -57.59 C168.75 -54.72, 171.66 -50.95, 174.81 -40.94 C177.96 -30.93, 176.01 -7.17, 176.34 2.49 C176.67 12.14, 178.78 13.99, 176.79 17.01 C174.79 20.03, 176.69 20.11, 164.37 20.6 C152.04 21.1, 125.56 20.13, 102.85 19.97 C80.13 19.82, 44.99 19.9, 28.05 19.66 C11.12 19.43, 5.91 21.83, 1.23 18.55 C-3.45 15.28, 0.21 3.09, 0 0 M0 0 C0.22 -6.87, -2.73 -31.54, 1.32 -41.25 C5.36 -50.96, 6.64 -55.47, 24.26 -58.28 C41.87 -61.1, 84.8 -58.28, 107 -58.16 C129.2 -58.04, 146.15 -60.46, 157.45 -57.59 C168.75 -54.72, 171.66 -50.95, 174.81 -40.94 C177.96 -30.93, 176.01 -7.17, 176.34 2.49 C176.67 12.14, 178.78 13.99, 176.79 17.01 C174.79 20.03, 176.69 20.11, 164.37 20.6 C152.04 21.1, 125.56 20.13, 102.85 19.97 C80.13 19.82, 44.99 19.9, 28.05 19.66 C11.12 19.43, 5.91 21.83, 1.23 18.55 C-3.45 15.28, 0.21 3.09, 0 0" stroke="#E1E1E1" stroke-width="4" fill="none"></path></g></g><mask></mask><g stroke-linecap="round"><g transform="translate(236.08448042922782 180.01697582029612) rotate(0 55.788956462345126 84.12528402049357)"><path d="M0 0 C8.48 8.08, 30.78 29.09, 50.88 48.5 C70.97 67.91, 105.36 101.43, 120.58 116.46 C135.79 131.48, 139.05 131.54, 142.18 138.64 C145.32 145.73, 142.43 154.1, 139.4 159.03 C136.38 163.97, 128.91 166.93, 124.03 168.25 C119.15 169.58, 114.9 169.2, 110.12 166.98 C105.34 164.77, 108.29 167.95, 95.34 154.95 C82.39 141.96, 51.15 107.76, 32.4 89.02 C13.65 70.28, -6.66 52.36, -17.16 42.52 C-27.67 32.69, -28.37 32.11, -30.61 30.02 M0 0 C8.48 8.08, 30.78 29.09, 50.88 48.5 C70.97 67.91, 105.36 101.43, 120.58 116.46 C135.79 131.48, 139.05 131.54, 142.18 138.64 C145.32 145.73, 142.43 154.1, 139.4 159.03 C136.38 163.97, 128.91 166.93, 124.03 168.25 C119.15 169.58, 114.9 169.2, 110.12 166.98 C105.34 164.77, 108.29 167.95, 95.34 154.95 C82.39 141.96, 51.15 107.76, 32.4 89.02 C13.65 70.28, -6.66 52.36, -17.16 42.52 C-27.67 32.69, -28.37 32.11, -30.61 30.02" stroke="#E1E1E1" stroke-width="4" fill="none"></path></g></g><mask></mask><g stroke-linecap="round"><g transform="translate(252.5453119961162 162.2468563277149) rotate(0 -74.88533089477627 -15.989996924060762)"><path d="M0 0 C-8.78 8.18, -41.99 38.75, -52.67 49.09 C-63.35 59.42, -62.44 57.33, -64.08 61.99 C-65.73 66.64, -59.53 70.87, -62.53 77 C-65.54 83.12, -75.93 92.45, -82.12 98.74 C-88.31 105.03, -94.98 111.16, -99.67 114.73 C-104.36 118.3, -106.16 121.34, -110.28 120.14 C-114.4 118.93, -117.14 114.62, -124.4 107.51 C-131.66 100.4, -142 89.34, -153.85 77.49 C-165.7 65.65, -186.07 45.94, -195.51 36.43 C-204.95 26.92, -208.42 25.52, -210.5 20.43 C-212.58 15.33, -212.42 12.43, -207.99 5.85 C-203.56 -0.74, -191.25 -12.29, -183.89 -19.1 C-176.53 -25.91, -169.68 -32.74, -163.84 -35.03 C-158 -37.31, -158.79 -25.78, -148.83 -32.81 C-138.86 -39.85, -114.09 -67.86, -104.04 -77.23 C-94 -86.61, -90.89 -84.27, -88.53 -89.07 C-86.18 -93.88, -92.99 -98.59, -89.93 -106.06 C-86.87 -113.54, -77.44 -126.24, -70.16 -133.91 C-62.89 -141.59, -55.94 -153.63, -46.27 -152.12 C-36.61 -150.61, -25.28 -136.8, -12.15 -124.87 C0.97 -112.94, 20.33 -92.71, 32.48 -80.55 C44.62 -68.38, 56.69 -60.46, 60.72 -51.89 C64.76 -43.32, 61.13 -36.72, 56.69 -29.15 C52.25 -21.57, 41.05 -12.67, 34.08 -6.43 C27.11 -0.19, 22.75 9.43, 14.87 8.3 C6.99 7.17, -8.54 -9.65, -13.22 -13.24 M0 0 C-8.78 8.18, -41.99 38.75, -52.67 49.09 C-63.35 59.42, -62.44 57.33, -64.08 61.99 C-65.73 66.64, -59.53 70.87, -62.53 77 C-65.54 83.12, -75.93 92.45, -82.12 98.74 C-88.31 105.03, -94.98 111.16, -99.67 114.73 C-104.36 118.3, -106.16 121.34, -110.28 120.14 C-114.4 118.93, -117.14 114.62, -124.4 107.51 C-131.66 100.4, -142 89.34, -153.85 77.49 C-165.7 65.65, -186.07 45.94, -195.51 36.43 C-204.95 26.92, -208.42 25.52, -210.5 20.43 C-212.58 15.33, -212.42 12.43, -207.99 5.85 C-203.56 -0.74, -191.25 -12.29, -183.89 -19.1 C-176.53 -25.91, -169.68 -32.74, -163.84 -35.03 C-158 -37.31, -158.79 -25.78, -148.83 -32.81 C-138.86 -39.85, -114.09 -67.86, -104.04 -77.23 C-94 -86.61, -90.89 -84.27, -88.53 -89.07 C-86.18 -93.88, -92.99 -98.59, -89.93 -106.06 C-86.87 -113.54, -77.44 -126.24, -70.16 -133.91 C-62.89 -141.59, -55.94 -153.63, -46.27 -152.12 C-36.61 -150.61, -25.28 -136.8, -12.15 -124.87 C0.97 -112.94, 20.33 -92.71, 32.48 -80.55 C44.62 -68.38, 56.69 -60.46, 60.72 -51.89 C64.76 -43.32, 61.13 -36.72, 56.69 -29.15 C52.25 -21.57, 41.05 -12.67, 34.08 -6.43 C27.11 -0.19, 22.75 9.43, 14.87 8.3 C6.99 7.17, -8.54 -9.65, -13.22 -13.24" stroke="#E1E1E1" stroke-width="4" fill="none"></path></g></g><mask></mask><g stroke-linecap="round"><g transform="translate(98.2981863051059 132.63376095433762) rotate(0 44.58507144808599 47.52460665059035)"><path d="M0 0 C14.86 15.84, 74.31 79.21, 89.17 95.05 M0 0 C14.86 15.84, 74.31 79.21, 89.17 95.05" stroke="#E1E1E1" stroke-width="4" fill="none"></path></g></g><mask></mask><g stroke-linecap="round"><g transform="translate(164.45823017022803 70.96432016913661) rotate(0 44.9922797878268 45.945260416248296)"><path d="M0 0 C15 15.32, 74.99 76.58, 89.98 91.89 M0 0 C15 15.32, 74.99 76.58, 89.98 91.89" stroke="#E1E1E1" stroke-width="4" fill="none"></path></g></g><mask></mask></svg>