<svg version="1.1" xmlns="http://www.w3.org/2000/svg" viewBox="0 0 431.6991882324219 433.0160565498544" width="431.6991882324219" height="433.0160565498544" class="excalidraw-svg">
  <!-- svg-source:excalidraw -->
  
  <defs>
    <style class="style-fonts">
      
    </style>
    
  </defs>
  <rect x="0" y="0" width="431.6991882324219" height="433.0160565498544" fill="#000000"></rect><g stroke-linecap="round" transform="translate(10 10) rotate(0 205.84959411621094 205.84959411621094)"><path d="M411.7 205.85 C411.7 210.53, 411.54 215.23, 411.22 219.9 C410.9 224.57, 410.42 229.24, 409.78 233.88 C409.14 238.52, 408.35 243.15, 407.39 247.73 C406.44 252.32, 405.33 256.88, 404.07 261.39 C402.8 265.9, 401.38 270.37, 399.81 274.78 C398.25 279.2, 396.52 283.57, 394.66 287.86 C392.79 292.16, 390.77 296.4, 388.62 300.55 C386.47 304.71, 384.16 308.8, 381.73 312.81 C379.3 316.81, 376.72 320.73, 374.02 324.56 C371.32 328.38, 368.48 332.13, 365.53 335.76 C362.57 339.39, 359.49 342.93, 356.29 346.35 C353.1 349.78, 349.78 353.1, 346.35 356.29 C342.93 359.49, 339.39 362.57, 335.76 365.53 C332.13 368.48, 328.38 371.32, 324.56 374.02 C320.73 376.72, 316.81 379.3, 312.81 381.73 C308.8 384.16, 304.71 386.47, 300.55 388.62 C296.4 390.77, 292.16 392.79, 287.86 394.66 C283.57 396.52, 279.2 398.25, 274.78 399.81 C270.37 401.38, 265.9 402.8, 261.39 404.07 C256.88 405.33, 252.32 406.44, 247.73 407.39 C243.15 408.35, 238.52 409.14, 233.88 409.78 C229.24 410.42, 224.57 410.9, 219.9 411.22 C215.23 411.54, 210.53 411.7, 205.85 411.7 C201.17 411.7, 196.47 411.54, 191.8 411.22 C187.13 410.9, 182.46 410.42, 177.82 409.78 C173.18 409.14, 168.55 408.35, 163.97 407.39 C159.38 406.44, 154.82 405.33, 150.31 404.07 C145.8 402.8, 141.33 401.38, 136.91 399.81 C132.5 398.25, 128.13 396.52, 123.84 394.66 C119.54 392.79, 115.3 390.77, 111.15 388.62 C106.99 386.47, 102.89 384.16, 98.89 381.73 C94.89 379.3, 90.97 376.72, 87.14 374.02 C83.31 371.32, 79.57 368.48, 75.94 365.53 C72.31 362.57, 68.77 359.49, 65.35 356.29 C61.92 353.1, 58.6 349.78, 55.41 346.35 C52.21 342.93, 49.12 339.39, 46.17 335.76 C43.21 332.13, 40.38 328.38, 37.68 324.56 C34.98 320.73, 32.4 316.81, 29.97 312.81 C27.53 308.8, 25.23 304.71, 23.08 300.55 C20.92 296.4, 18.91 292.16, 17.04 287.86 C15.18 283.57, 13.45 279.2, 11.89 274.78 C10.32 270.37, 8.9 265.9, 7.63 261.39 C6.37 256.88, 5.26 252.32, 4.31 247.73 C3.35 243.15, 2.55 238.52, 1.92 233.88 C1.28 229.24, 0.8 224.57, 0.48 219.9 C0.16 215.23, 0 210.53, 0 205.85 C0 201.17, 0.16 196.47, 0.48 191.8 C0.8 187.13, 1.28 182.46, 1.92 177.82 C2.55 173.18, 3.35 168.55, 4.31 163.97 C5.26 159.38, 6.37 154.82, 7.63 150.31 C8.9 145.8, 10.32 141.33, 11.89 136.91 C13.45 132.5, 15.18 128.13, 17.04 123.84 C18.91 119.54, 20.92 115.3, 23.08 111.15 C25.23 106.99, 27.53 102.89, 29.97 98.89 C32.4 94.89, 34.98 90.97, 37.68 87.14 C40.38 83.31, 43.21 79.57, 46.17 75.94 C49.12 72.31, 52.21 68.77, 55.41 65.35 C58.6 61.92, 61.92 58.6, 65.35 55.41 C68.77 52.21, 72.31 49.12, 75.94 46.17 C79.57 43.21, 83.31 40.38, 87.14 37.68 C90.97 34.98, 94.89 32.4, 98.89 29.97 C102.89 27.53, 106.99 25.23, 111.15 23.08 C115.3 20.92, 119.54 18.91, 123.84 17.04 C128.13 15.18, 132.5 13.45, 136.91 11.89 C141.33 10.32, 145.8 8.9, 150.31 7.63 C154.82 6.37, 159.38 5.26, 163.97 4.31 C168.55 3.35, 173.18 2.55, 177.82 1.92 C182.46 1.28, 187.13 0.8, 191.8 0.48 C196.47 0.16, 201.17 0, 205.85 0 C210.53 0, 215.23 0.16, 219.9 0.48 C224.57 0.8, 229.24 1.28, 233.88 1.92 C238.52 2.55, 243.15 3.35, 247.73 4.31 C252.32 5.26, 256.88 6.37, 261.39 7.63 C265.9 8.9, 270.37 10.32, 274.78 11.89 C279.2 13.45, 283.57 15.18, 287.86 17.04 C292.16 18.91, 296.4 20.92, 300.55 23.08 C304.71 25.23, 308.8 27.53, 312.81 29.97 C316.81 32.4, 320.73 34.98, 324.56 37.68 C328.38 40.38, 332.13 43.21, 335.76 46.17 C339.39 49.12, 342.93 52.21, 346.35 55.41 C349.78 58.6, 353.1 61.92, 356.29 65.35 C359.49 68.77, 362.57 72.31, 365.53 75.94 C368.48 79.57, 371.32 83.31, 374.02 87.14 C376.72 90.97, 379.3 94.89, 381.73 98.89 C384.16 102.89, 386.47 106.99, 388.62 111.15 C390.77 115.3, 392.79 119.54, 394.66 123.84 C396.52 128.13, 398.25 132.5, 399.81 136.91 C401.38 141.33, 402.8 145.8, 404.07 150.31 C405.33 154.82, 406.44 159.38, 407.39 163.97 C408.35 168.55, 409.14 173.18, 409.78 177.82 C410.42 182.46, 410.9 187.13, 411.22 191.8 C411.54 196.47, 411.7 201.17, 411.7 205.85" stroke="#E1E1E1" stroke-width="4.5" fill="none" stroke-dasharray="1.5 10"></path></g><g stroke-linecap="round"><g transform="translate(214.56472651733947 11.92331597743862) rotate(0 0 205.5463702862079)"><path d="M0 0 C0 68.52, 0 342.58, 0 411.09" stroke="#E1E1E1" stroke-width="4.5" fill="none" stroke-dasharray="1.5 10"></path></g></g><mask></mask><g stroke-linecap="round"><g transform="translate(13.423234001531682 213.812696663561) rotate(0 204.0711045947605 0)"><path d="M0 0 C68.02 0, 340.12 0, 408.14 0" stroke="#E1E1E1" stroke-width="4.5" fill="none" stroke-dasharray="1.5 10"></path></g></g><mask></mask></svg>