<svg version="1.1" xmlns="http://www.w3.org/2000/svg" viewBox="0 0 134.55259937664277 111.70289710212455" width="134.55259937664277" height="111.70289710212455" class="excalidraw-svg"><!-- svg-source:excalidraw --><metadata></metadata><defs><style class="style-fonts">
      </style></defs><rect x="0" y="0" width="134.55259937664277" height="111.70289710212455" fill="#000000"></rect><g stroke-linecap="round"><g transform="translate(100.87127074822638 74.48751483318301) rotate(0 -33.63069419972203 -18.653108530838836)"><path d="M0 0 C-0.23 0.51, -0.71 1.73, -1.41 3.06 C-2.11 4.39, -2.86 6.1, -4.19 7.97 C-5.51 9.85, -7.51 12.41, -9.36 14.3 C-11.22 16.2, -13.38 17.95, -15.31 19.35 C-17.24 20.74, -19.03 21.72, -20.96 22.67 C-22.89 23.62, -24.72 24.39, -26.91 25.06 C-29.09 25.72, -31.38 26.3, -34.07 26.66 C-36.76 27.01, -40.11 27.12, -43.06 27.17 C-46 27.22, -48.98 27.29, -51.73 26.98 C-54.48 26.67, -57 26.15, -59.56 25.32 C-62.12 24.5, -64.84 23.27, -67.11 22.04 C-69.38 20.82, -71.42 19.35, -73.2 17.97 C-74.97 16.59, -76.3 15.33, -77.75 13.75 C-79.2 12.17, -80.63 10.39, -81.9 8.49 C-83.16 6.58, -84.32 4.5, -85.33 2.32 C-86.34 0.13, -87.24 -2.17, -87.96 -4.62 C-88.68 -7.06, -89.21 -9.65, -89.65 -12.37 C-90.08 -15.08, -90.36 -18.07, -90.56 -20.88 C-90.77 -23.69, -90.88 -26.37, -90.87 -29.24 C-90.86 -32.11, -90.87 -35.35, -90.49 -38.1 C-90.11 -40.84, -89.44 -43.43, -88.58 -45.7 C-87.72 -47.98, -86.64 -49.91, -85.35 -51.75 C-84.06 -53.59, -82.59 -55.25, -80.84 -56.73 C-79.09 -58.22, -77.01 -59.59, -74.87 -60.65 C-72.72 -61.71, -70.79 -62.5, -67.96 -63.08 C-65.12 -63.66, -61.39 -63.91, -57.84 -64.14 C-54.29 -64.36, -51.27 -64.38, -46.66 -64.43 C-42.05 -64.49, -35.27 -64.5, -30.18 -64.48 C-25.1 -64.45, -20.19 -64.46, -16.14 -64.3 C-12.09 -64.14, -8.55 -63.83, -5.87 -63.51 C-3.19 -63.19, -2.03 -62.93, -0.05 -62.38 C1.94 -61.83, 4.23 -61.01, 6.03 -60.21 C7.83 -59.4, 9.14 -58.69, 10.74 -57.54 C12.34 -56.39, 14.29 -54.68, 15.62 -53.32 C16.96 -51.97, 17.82 -50.82, 18.73 -49.41 C19.65 -47.99, 20.45 -46.46, 21.13 -44.82 C21.81 -43.19, 22.38 -41.33, 22.79 -39.57 C23.21 -37.8, 23.5 -36.38, 23.61 -34.24 C23.71 -32.09, 23.74 -29.2, 23.43 -26.71 C23.11 -24.22, 22.53 -21.59, 21.7 -19.29 C20.87 -16.99, 19.78 -14.89, 18.44 -12.9 C17.11 -10.9, 15.26 -8.84, 13.68 -7.31 C12.1 -5.77, 10.73 -4.75, 8.97 -3.67 C7.21 -2.6, 4.64 -1.45, 3.14 -0.84 C1.65 -0.22, 0.52 -0.14, 0 0 M0 0 C-0.23 0.51, -0.71 1.73, -1.41 3.06 C-2.11 4.39, -2.86 6.1, -4.19 7.97 C-5.51 9.85, -7.51 12.41, -9.36 14.3 C-11.22 16.2, -13.38 17.95, -15.31 19.35 C-17.24 20.74, -19.03 21.72, -20.96 22.67 C-22.89 23.62, -24.72 24.39, -26.91 25.06 C-29.09 25.72, -31.38 26.3, -34.07 26.66 C-36.76 27.01, -40.11 27.12, -43.06 27.17 C-46 27.22, -48.98 27.29, -51.73 26.98 C-54.48 26.67, -57 26.15, -59.56 25.32 C-62.12 24.5, -64.84 23.27, -67.11 22.04 C-69.38 20.82, -71.42 19.35, -73.2 17.97 C-74.97 16.59, -76.3 15.33, -77.75 13.75 C-79.2 12.17, -80.63 10.39, -81.9 8.49 C-83.16 6.58, -84.32 4.5, -85.33 2.32 C-86.34 0.13, -87.24 -2.17, -87.96 -4.62 C-88.68 -7.06, -89.21 -9.65, -89.65 -12.37 C-90.08 -15.08, -90.36 -18.07, -90.56 -20.88 C-90.77 -23.69, -90.88 -26.37, -90.87 -29.24 C-90.86 -32.11, -90.87 -35.35, -90.49 -38.1 C-90.11 -40.84, -89.44 -43.43, -88.58 -45.7 C-87.72 -47.98, -86.64 -49.91, -85.35 -51.75 C-84.06 -53.59, -82.59 -55.25, -80.84 -56.73 C-79.09 -58.22, -77.01 -59.59, -74.87 -60.65 C-72.72 -61.71, -70.79 -62.5, -67.96 -63.08 C-65.12 -63.66, -61.39 -63.91, -57.84 -64.14 C-54.29 -64.36, -51.27 -64.38, -46.66 -64.43 C-42.05 -64.49, -35.27 -64.5, -30.18 -64.48 C-25.1 -64.45, -20.19 -64.46, -16.14 -64.3 C-12.09 -64.14, -8.55 -63.83, -5.87 -63.51 C-3.19 -63.19, -2.03 -62.93, -0.05 -62.38 C1.94 -61.83, 4.23 -61.01, 6.03 -60.21 C7.83 -59.4, 9.14 -58.69, 10.74 -57.54 C12.34 -56.39, 14.29 -54.68, 15.62 -53.32 C16.96 -51.97, 17.82 -50.82, 18.73 -49.41 C19.65 -47.99, 20.45 -46.46, 21.13 -44.82 C21.81 -43.19, 22.38 -41.33, 22.79 -39.57 C23.21 -37.8, 23.5 -36.38, 23.61 -34.24 C23.71 -32.09, 23.74 -29.2, 23.43 -26.71 C23.11 -24.22, 22.53 -21.59, 21.7 -19.29 C20.87 -16.99, 19.78 -14.89, 18.44 -12.9 C17.11 -10.9, 15.26 -8.84, 13.68 -7.31 C12.1 -5.77, 10.73 -4.75, 8.97 -3.67 C7.21 -2.6, 4.64 -1.45, 3.14 -0.84 C1.65 -0.22, 0.52 -0.14, 0 0" stroke="#E1E1E1" stroke-width="2" fill="none"></path></g></g><mask></mask><g stroke-linecap="round"><g transform="translate(95.50125181915928 68.19555530407524) rotate(0 -28.29483090504891 -12.375166934377376)"><path d="M0 0 C-0.28 0.75, -1 2.98, -1.69 4.5 C-2.38 6.02, -3.13 7.53, -4.13 9.12 C-5.13 10.71, -6.05 12.28, -7.67 14.03 C-9.3 15.79, -11.8 18.15, -13.88 19.67 C-15.96 21.2, -17.99 22.24, -20.15 23.19 C-22.31 24.15, -24.5 24.88, -26.84 25.4 C-29.18 25.91, -31.85 26.14, -34.18 26.28 C-36.51 26.43, -38.62 26.38, -40.83 26.27 C-43.04 26.16, -45.41 25.94, -47.44 25.62 C-49.46 25.29, -51.35 24.85, -53 24.33 C-54.65 23.82, -55.9 23.23, -57.33 22.51 C-58.76 21.78, -60.16 21.01, -61.61 19.97 C-63.05 18.94, -64.69 17.58, -66 16.29 C-67.32 15.01, -68.31 13.92, -69.48 12.28 C-70.66 10.63, -72.09 8.3, -73.05 6.43 C-74.01 4.56, -74.65 2.84, -75.24 1.07 C-75.84 -0.7, -76.2 -1.9, -76.62 -4.22 C-77.05 -6.53, -77.55 -9.45, -77.82 -12.81 C-78.09 -16.18, -78.22 -21.31, -78.24 -24.43 C-78.25 -27.55, -78.3 -29.2, -77.89 -31.53 C-77.48 -33.85, -76.73 -36.34, -75.77 -38.38 C-74.82 -40.41, -73.55 -42.22, -72.15 -43.74 C-70.75 -45.25, -69.13 -46.48, -67.38 -47.45 C-65.64 -48.43, -63.96 -49.06, -61.69 -49.58 C-59.41 -50.1, -57.33 -50.33, -53.73 -50.57 C-50.14 -50.81, -45.41 -50.96, -40.13 -51.03 C-34.84 -51.11, -27.21 -51.07, -22.03 -51.02 C-16.86 -50.96, -12.85 -50.9, -9.08 -50.7 C-5.32 -50.49, -2.06 -50.2, 0.56 -49.78 C3.17 -49.35, 4.83 -48.79, 6.6 -48.14 C8.38 -47.48, 9.69 -46.82, 11.19 -45.84 C12.68 -44.87, 14.35 -43.52, 15.57 -42.26 C16.79 -41.01, 17.77 -39.52, 18.52 -38.29 C19.28 -37.06, 19.64 -36.1, 20.09 -34.88 C20.54 -33.65, 20.96 -32.11, 21.22 -30.94 C21.47 -29.78, 21.57 -29.33, 21.64 -27.9 C21.71 -26.48, 21.78 -24.14, 21.65 -22.38 C21.52 -20.63, 21.3 -19.01, 20.86 -17.38 C20.41 -15.74, 19.72 -14.04, 18.97 -12.58 C18.22 -11.12, 17.38 -9.85, 16.36 -8.61 C15.33 -7.37, 14.13 -6.17, 12.83 -5.12 C11.52 -4.08, 9.86 -3.07, 8.51 -2.36 C7.15 -1.66, 6.12 -1.28, 4.7 -0.89 C3.28 -0.49, 0.78 -0.15, 0 0 M0 0 C-0.28 0.75, -1 2.98, -1.69 4.5 C-2.38 6.02, -3.13 7.53, -4.13 9.12 C-5.13 10.71, -6.05 12.28, -7.67 14.03 C-9.3 15.79, -11.8 18.15, -13.88 19.67 C-15.96 21.2, -17.99 22.24, -20.15 23.19 C-22.31 24.15, -24.5 24.88, -26.84 25.4 C-29.18 25.91, -31.85 26.14, -34.18 26.28 C-36.51 26.43, -38.62 26.38, -40.83 26.27 C-43.04 26.16, -45.41 25.94, -47.44 25.62 C-49.46 25.29, -51.35 24.85, -53 24.33 C-54.65 23.82, -55.9 23.23, -57.33 22.51 C-58.76 21.78, -60.16 21.01, -61.61 19.97 C-63.05 18.94, -64.69 17.58, -66 16.29 C-67.32 15.01, -68.31 13.92, -69.48 12.28 C-70.66 10.63, -72.09 8.3, -73.05 6.43 C-74.01 4.56, -74.65 2.84, -75.24 1.07 C-75.84 -0.7, -76.2 -1.9, -76.62 -4.22 C-77.05 -6.53, -77.55 -9.45, -77.82 -12.81 C-78.09 -16.18, -78.22 -21.31, -78.24 -24.43 C-78.25 -27.55, -78.3 -29.2, -77.89 -31.53 C-77.48 -33.85, -76.73 -36.34, -75.77 -38.38 C-74.82 -40.41, -73.55 -42.22, -72.15 -43.74 C-70.75 -45.25, -69.13 -46.48, -67.38 -47.45 C-65.64 -48.43, -63.96 -49.06, -61.69 -49.58 C-59.41 -50.1, -57.33 -50.33, -53.73 -50.57 C-50.14 -50.81, -45.41 -50.96, -40.13 -51.03 C-34.84 -51.11, -27.21 -51.07, -22.03 -51.02 C-16.86 -50.96, -12.85 -50.9, -9.08 -50.7 C-5.32 -50.49, -2.06 -50.2, 0.56 -49.78 C3.17 -49.35, 4.83 -48.79, 6.6 -48.14 C8.38 -47.48, 9.69 -46.82, 11.19 -45.84 C12.68 -44.87, 14.35 -43.52, 15.57 -42.26 C16.79 -41.01, 17.77 -39.52, 18.52 -38.29 C19.28 -37.06, 19.64 -36.1, 20.09 -34.88 C20.54 -33.65, 20.96 -32.11, 21.22 -30.94 C21.47 -29.78, 21.57 -29.33, 21.64 -27.9 C21.71 -26.48, 21.78 -24.14, 21.65 -22.38 C21.52 -20.63, 21.3 -19.01, 20.86 -17.38 C20.41 -15.74, 19.72 -14.04, 18.97 -12.58 C18.22 -11.12, 17.38 -9.85, 16.36 -8.61 C15.33 -7.37, 14.13 -6.17, 12.83 -5.12 C11.52 -4.08, 9.86 -3.07, 8.51 -2.36 C7.15 -1.66, 6.12 -1.28, 4.7 -0.89 C3.28 -0.49, 0.78 -0.15, 0 0" stroke="#E1E1E1" stroke-width="2" fill="none"></path></g></g><mask></mask><g stroke-linecap="round"><g transform="translate(25.496036381851354 49.95892305741472) rotate(0 31.773937184724446 18.261073066734753)"><path d="M0 0 C0.03 0.75, 0.1 3.12, 0.2 4.52 C0.3 5.93, 0.39 6.96, 0.62 8.45 C0.84 9.94, 1.14 11.73, 1.58 13.47 C2.01 15.21, 2.58 17.19, 3.24 18.89 C3.9 20.6, 4.6 22.12, 5.55 23.7 C6.51 25.28, 7.48 26.88, 8.95 28.39 C10.43 29.9, 12.25 31.53, 14.41 32.75 C16.56 33.96, 19.6 35.05, 21.9 35.67 C24.2 36.29, 25.87 36.32, 28.2 36.46 C30.52 36.6, 33.56 36.65, 35.84 36.52 C38.13 36.4, 39.99 36.16, 41.9 35.7 C43.82 35.25, 45.6 34.6, 47.34 33.79 C49.07 32.98, 50.77 32.03, 52.29 30.86 C53.81 29.68, 55.25 28.19, 56.46 26.75 C57.67 25.31, 58.63 23.89, 59.56 22.22 C60.48 20.55, 61.4 18.43, 62 16.75 C62.61 15.06, 62.94 13.17, 63.2 12.13 C63.45 11.09, 63.49 10.77, 63.55 10.5 M0 0 C0.03 0.75, 0.1 3.12, 0.2 4.52 C0.3 5.93, 0.39 6.96, 0.62 8.45 C0.84 9.94, 1.14 11.73, 1.58 13.47 C2.01 15.21, 2.58 17.19, 3.24 18.89 C3.9 20.6, 4.6 22.12, 5.55 23.7 C6.51 25.28, 7.48 26.88, 8.95 28.39 C10.43 29.9, 12.25 31.53, 14.41 32.75 C16.56 33.96, 19.6 35.05, 21.9 35.67 C24.2 36.29, 25.87 36.32, 28.2 36.46 C30.52 36.6, 33.56 36.65, 35.84 36.52 C38.13 36.4, 39.99 36.16, 41.9 35.7 C43.82 35.25, 45.6 34.6, 47.34 33.79 C49.07 32.98, 50.77 32.03, 52.29 30.86 C53.81 29.68, 55.25 28.19, 56.46 26.75 C57.67 25.31, 58.63 23.89, 59.56 22.22 C60.48 20.55, 61.4 18.43, 62 16.75 C62.61 15.06, 62.94 13.17, 63.2 12.13 C63.45 11.09, 63.49 10.77, 63.55 10.5" stroke="#E1E1E1" stroke-width="2" fill="none"></path></g></g><mask></mask><g stroke-linecap="round"><g transform="translate(89.07530823131037 60.46297778018561) rotate(0 -21.840455251341382 -17.613395846348794)"><path d="M0 0 C0.75 -0.01, 3.19 0.04, 4.51 -0.05 C5.83 -0.14, 6.67 -0.19, 7.92 -0.55 C9.16 -0.9, 10.76 -1.48, 11.99 -2.18 C13.22 -2.88, 14.34 -3.82, 15.3 -4.75 C16.26 -5.68, 17.11 -6.76, 17.76 -7.76 C18.41 -8.77, 18.81 -9.7, 19.18 -10.81 C19.55 -11.92, 19.83 -12.98, 19.97 -14.41 C20.1 -15.83, 20.09 -17.97, 19.99 -19.36 C19.9 -20.75, 19.66 -21.71, 19.39 -22.75 C19.12 -23.79, 18.93 -24.6, 18.39 -25.6 C17.85 -26.59, 17 -27.8, 16.15 -28.72 C15.29 -29.63, 14.31 -30.39, 13.26 -31.07 C12.21 -31.74, 11.17 -32.28, 9.84 -32.77 C8.51 -33.26, 7.21 -33.68, 5.29 -34.02 C3.36 -34.35, 0.91 -34.59, -1.71 -34.77 C-4.32 -34.95, -7.07 -35.02, -10.43 -35.1 C-13.79 -35.18, -17.06 -35.23, -21.85 -35.23 C-26.65 -35.22, -34.37 -35.23, -39.19 -35.06 C-44.02 -34.89, -47.96 -34.59, -50.82 -34.2 C-53.69 -33.82, -54.9 -33.35, -56.38 -32.72 C-57.87 -32.1, -58.79 -31.36, -59.74 -30.46 C-60.7 -29.56, -61.52 -28.35, -62.09 -27.33 C-62.67 -26.3, -62.94 -25.59, -63.2 -24.32 C-63.47 -23.06, -63.61 -22.03, -63.67 -19.72 C-63.73 -17.42, -63.59 -12.02, -63.57 -10.48 M0 0 C0.75 -0.01, 3.19 0.04, 4.51 -0.05 C5.83 -0.14, 6.67 -0.19, 7.92 -0.55 C9.16 -0.9, 10.76 -1.48, 11.99 -2.18 C13.22 -2.88, 14.34 -3.82, 15.3 -4.75 C16.26 -5.68, 17.11 -6.76, 17.76 -7.76 C18.41 -8.77, 18.81 -9.7, 19.18 -10.81 C19.55 -11.92, 19.83 -12.98, 19.97 -14.41 C20.1 -15.83, 20.09 -17.97, 19.99 -19.36 C19.9 -20.75, 19.66 -21.71, 19.39 -22.75 C19.12 -23.79, 18.93 -24.6, 18.39 -25.6 C17.85 -26.59, 17 -27.8, 16.15 -28.72 C15.29 -29.63, 14.31 -30.39, 13.26 -31.07 C12.21 -31.74, 11.17 -32.28, 9.84 -32.77 C8.51 -33.26, 7.21 -33.68, 5.29 -34.02 C3.36 -34.35, 0.91 -34.59, -1.71 -34.77 C-4.32 -34.95, -7.07 -35.02, -10.43 -35.1 C-13.79 -35.18, -17.06 -35.23, -21.85 -35.23 C-26.65 -35.22, -34.37 -35.23, -39.19 -35.06 C-44.02 -34.89, -47.96 -34.59, -50.82 -34.2 C-53.69 -33.82, -54.9 -33.35, -56.38 -32.72 C-57.87 -32.1, -58.79 -31.36, -59.74 -30.46 C-60.7 -29.56, -61.52 -28.35, -62.09 -27.33 C-62.67 -26.3, -62.94 -25.59, -63.2 -24.32 C-63.47 -23.06, -63.61 -22.03, -63.67 -19.72 C-63.73 -17.42, -63.59 -12.02, -63.57 -10.48" stroke="#E1E1E1" stroke-width="2" fill="none"></path></g></g><mask></mask><g stroke-linecap="round"><g transform="translate(58.228525559000445 41.124107381700014) rotate(0 0.03392032096485309 13.489342425704308)"><path d="M0 0 C-0.28 -0.34, -1.07 -1.41, -1.65 -2.02 C-2.24 -2.63, -2.87 -3.18, -3.51 -3.64 C-4.15 -4.1, -4.68 -4.47, -5.49 -4.79 C-6.3 -5.1, -7.4 -5.41, -8.35 -5.54 C-9.3 -5.66, -10.17 -5.69, -11.19 -5.56 C-12.2 -5.43, -13.38 -5.21, -14.44 -4.77 C-15.5 -4.33, -16.64 -3.67, -17.55 -2.91 C-18.46 -2.16, -19.28 -1.08, -19.89 -0.24 C-20.49 0.6, -20.82 1.18, -21.19 2.11 C-21.56 3.04, -21.95 4.13, -22.11 5.32 C-22.28 6.51, -22.35 7.86, -22.19 9.25 C-22.04 10.64, -21.74 12.18, -21.17 13.68 C-20.61 15.19, -19.7 16.88, -18.8 18.29 C-17.91 19.69, -17.04 20.81, -15.8 22.11 C-14.57 23.42, -12.9 24.89, -11.39 26.11 C-9.88 27.33, -8.1 28.49, -6.74 29.41 C-5.38 30.34, -4.12 31.14, -3.24 31.64 C-2.36 32.14, -2.12 32.28, -1.46 32.43 C-0.81 32.57, -0.01 32.62, 0.7 32.54 C1.42 32.45, 1.8 32.46, 2.85 31.92 C3.9 31.39, 5.6 30.26, 6.99 29.32 C8.37 28.39, 9.62 27.6, 11.17 26.32 C12.71 25.03, 14.89 23.08, 16.25 21.61 C17.62 20.13, 18.54 18.8, 19.37 17.47 C20.2 16.15, 20.77 14.84, 21.23 13.66 C21.7 12.48, 22 11.59, 22.17 10.37 C22.35 9.16, 22.36 7.57, 22.26 6.37 C22.16 5.17, 21.95 4.25, 21.58 3.19 C21.21 2.12, 20.63 0.9, 20.02 -0.03 C19.42 -0.97, 18.71 -1.74, 17.96 -2.42 C17.21 -3.11, 16.54 -3.64, 15.52 -4.13 C14.49 -4.62, 13.06 -5.14, 11.8 -5.36 C10.53 -5.58, 9.01 -5.56, 7.93 -5.45 C6.84 -5.34, 6.08 -5.06, 5.27 -4.71 C4.45 -4.36, 3.74 -3.87, 3.03 -3.34 C2.33 -2.81, 1.53 -2.09, 1.03 -1.53 C0.52 -0.97, 0.17 -0.25, 0 0 M0 0 C-0.28 -0.34, -1.07 -1.41, -1.65 -2.02 C-2.24 -2.63, -2.87 -3.18, -3.51 -3.64 C-4.15 -4.1, -4.68 -4.47, -5.49 -4.79 C-6.3 -5.1, -7.4 -5.41, -8.35 -5.54 C-9.3 -5.66, -10.17 -5.69, -11.19 -5.56 C-12.2 -5.43, -13.38 -5.21, -14.44 -4.77 C-15.5 -4.33, -16.64 -3.67, -17.55 -2.91 C-18.46 -2.16, -19.28 -1.08, -19.89 -0.24 C-20.49 0.6, -20.82 1.18, -21.19 2.11 C-21.56 3.04, -21.95 4.13, -22.11 5.32 C-22.28 6.51, -22.35 7.86, -22.19 9.25 C-22.04 10.64, -21.74 12.18, -21.17 13.68 C-20.61 15.19, -19.7 16.88, -18.8 18.29 C-17.91 19.69, -17.04 20.81, -15.8 22.11 C-14.57 23.42, -12.9 24.89, -11.39 26.11 C-9.88 27.33, -8.1 28.49, -6.74 29.41 C-5.38 30.34, -4.12 31.14, -3.24 31.64 C-2.36 32.14, -2.12 32.28, -1.46 32.43 C-0.81 32.57, -0.01 32.62, 0.7 32.54 C1.42 32.45, 1.8 32.46, 2.85 31.92 C3.9 31.39, 5.6 30.26, 6.99 29.32 C8.37 28.39, 9.62 27.6, 11.17 26.32 C12.71 25.03, 14.89 23.08, 16.25 21.61 C17.62 20.13, 18.54 18.8, 19.37 17.47 C20.2 16.15, 20.77 14.84, 21.23 13.66 C21.7 12.48, 22 11.59, 22.17 10.37 C22.35 9.16, 22.36 7.57, 22.26 6.37 C22.16 5.17, 21.95 4.25, 21.58 3.19 C21.21 2.12, 20.63 0.9, 20.02 -0.03 C19.42 -0.97, 18.71 -1.74, 17.96 -2.42 C17.21 -3.11, 16.54 -3.64, 15.52 -4.13 C14.49 -4.62, 13.06 -5.14, 11.8 -5.36 C10.53 -5.58, 9.01 -5.56, 7.93 -5.45 C6.84 -5.34, 6.08 -5.06, 5.27 -4.71 C4.45 -4.36, 3.74 -3.87, 3.03 -3.34 C2.33 -2.81, 1.53 -2.09, 1.03 -1.53 C0.52 -0.97, 0.17 -0.25, 0 0" stroke="#E1E1E1" stroke-width="2" fill="none"></path></g></g><mask></mask><g stroke-linecap="round"><g transform="translate(89.18156165976052 42.155542843871444) rotate(0 5.531635511618106 1.0974078969838956)"><path d="M0 0 C0 -0.64, 0 -2.92, 0 -3.81 C0 -4.71, -0.04 -4.93, 0 -5.34 C0.04 -5.75, 0.09 -6.01, 0.26 -6.28 C0.43 -6.55, 0.74 -6.81, 1.02 -6.96 C1.31 -7.12, 1.46 -7.18, 1.98 -7.22 C2.5 -7.26, 3.41 -7.29, 4.16 -7.2 C4.92 -7.11, 5.76 -6.98, 6.5 -6.67 C7.25 -6.37, 8.01 -5.9, 8.61 -5.37 C9.21 -4.83, 9.73 -4.19, 10.1 -3.46 C10.48 -2.74, 10.7 -1.9, 10.86 -0.99 C11.02 -0.09, 11.1 1.03, 11.07 1.96 C11.04 2.89, 10.93 3.79, 10.66 4.59 C10.39 5.38, 9.98 6.1, 9.45 6.72 C8.92 7.35, 8.25 7.93, 7.49 8.35 C6.73 8.76, 5.69 9.03, 4.87 9.21 C4.05 9.39, 3.18 9.4, 2.56 9.41 C1.94 9.43, 1.54 9.46, 1.15 9.3 C0.76 9.13, 0.41 8.72, 0.22 8.4 C0.03 8.08, 0.05 7.95, 0.01 7.4 C-0.02 6.85, -0.01 6.06, -0.01 5.1 C-0.01 4.14, 0.02 2.47, 0.02 1.62 C0.02 0.77, 0 0.27, 0 0 M0 0 C0 -0.64, 0 -2.92, 0 -3.81 C0 -4.71, -0.04 -4.93, 0 -5.34 C0.04 -5.75, 0.09 -6.01, 0.26 -6.28 C0.43 -6.55, 0.74 -6.81, 1.02 -6.96 C1.31 -7.12, 1.46 -7.18, 1.98 -7.22 C2.5 -7.26, 3.41 -7.29, 4.16 -7.2 C4.92 -7.11, 5.76 -6.98, 6.5 -6.67 C7.25 -6.37, 8.01 -5.9, 8.61 -5.37 C9.21 -4.83, 9.73 -4.19, 10.1 -3.46 C10.48 -2.74, 10.7 -1.9, 10.86 -0.99 C11.02 -0.09, 11.1 1.03, 11.07 1.96 C11.04 2.89, 10.93 3.79, 10.66 4.59 C10.39 5.38, 9.98 6.1, 9.45 6.72 C8.92 7.35, 8.25 7.93, 7.49 8.35 C6.73 8.76, 5.69 9.03, 4.87 9.21 C4.05 9.39, 3.18 9.4, 2.56 9.41 C1.94 9.43, 1.54 9.46, 1.15 9.3 C0.76 9.13, 0.41 8.72, 0.22 8.4 C0.03 8.08, 0.05 7.95, 0.01 7.4 C-0.02 6.85, -0.01 6.06, -0.01 5.1 C-0.01 4.14, 0.02 2.47, 0.02 1.62 C0.02 0.77, 0 0.27, 0 0" stroke="#E1E1E1" stroke-width="2" fill="none"></path></g></g><mask></mask></svg>