<svg version="1.1" xmlns="http://www.w3.org/2000/svg" viewBox="0 0 4584.439427300942 1004.0897820422178" width="4584.439427300942" height="1004.0897820422178" class="excalidraw-svg"><!-- svg-source:excalidraw --><metadata></metadata><defs><style class="style-fonts">
      </style></defs><g stroke-linecap="round"><g transform="translate(391.7960841861768 438.6262704769124) rotate(0 1.787939838426155 64.49541598391534)" fill-rule="evenodd"><path d="M0 0 C-27.84 79.37, -135.76 387.62, -167.01 476.24 C-198.27 564.86, -183.21 519.89, -187.53 531.72 C-191.84 543.54, -190.58 543.7, -192.92 547.2 C-195.27 550.71, -197.46 551.68, -201.58 552.74 C-205.71 553.79, -204.29 553.39, -217.69 553.52 C-231.08 553.66, -261.95 553.52, -281.97 553.52 C-301.99 553.52, -323.93 553.52, -337.81 553.52 C-351.69 553.52, -358.74 553.78, -365.24 553.52 C-371.74 553.27, -374.11 553.61, -376.8 552.01 C-379.49 550.4, -381 547.42, -381.38 543.9 C-381.76 540.38, -382.76 541.65, -379.08 530.88 C-375.4 520.11, -372.82 514.31, -359.29 479.28 C-345.77 444.26, -319.35 376, -297.92 320.72 C-276.48 265.44, -257.08 215.3, -230.68 147.59 C-204.28 79.88, -161.26 -29.56, -139.52 -85.53 C-117.77 -141.49, -114.27 -151.02, -100.2 -188.21 C-86.14 -225.39, -67.81 -275.48, -55.11 -308.62 C-42.42 -341.77, -31.29 -368.84, -24.04 -387.07 C-16.79 -405.29, -15.42 -411.64, -11.59 -417.99 C-7.77 -424.34, -4.45 -424.45, -1.07 -425.18 C2.31 -425.9, 5.83 -425.1, 8.68 -422.34 C11.53 -419.58, 12.57 -416.54, 16.01 -408.65 C19.45 -400.75, 19.55 -399.54, 29.3 -374.97 C39.05 -350.4, 57.14 -305.46, 74.52 -261.22 C91.91 -216.98, 113.31 -161.84, 133.63 -109.54 C153.94 -57.24, 176.12 0.28, 196.42 52.58 C216.71 104.89, 235.27 152.52, 255.39 204.31 C275.5 256.09, 297.41 312.26, 317.12 363.28 C336.83 414.31, 362.35 481.68, 373.65 510.43 C384.96 539.18, 383.17 529.64, 384.95 535.77 C386.74 541.91, 385.82 544.63, 384.37 547.24 C382.92 549.84, 380.55 550.47, 376.25 551.41 C371.96 552.35, 370.88 552.64, 358.6 552.89 C346.31 553.14, 319.94 552.89, 302.55 552.89 C285.17 552.89, 267.52 552.89, 254.28 552.89 C241.05 552.89, 230.94 552.68, 223.15 552.89 C215.35 553.1, 211.55 554.66, 207.51 554.17 C203.47 553.68, 201.66 553.3, 198.89 549.95 C196.12 546.59, 194.61 543.17, 190.9 534.04 C187.19 524.92, 186.18 521.41, 176.65 495.2 C167.12 468.98, 150.71 424.56, 133.74 376.74 C116.76 328.92, 97.11 271.07, 74.82 208.28 C52.53 145.48, 12.47 34.71, 0 0" stroke="none" stroke-width="0" fill="#e1e1e1" fill-rule="evenodd"></path><path d="M0 0 C-27.84 79.37, -135.76 387.62, -167.01 476.24 C-198.27 564.86, -183.21 519.89, -187.53 531.72 C-191.84 543.54, -190.58 543.7, -192.92 547.2 C-195.27 550.71, -197.46 551.68, -201.58 552.74 C-205.71 553.79, -204.29 553.39, -217.69 553.52 C-231.08 553.66, -261.95 553.52, -281.97 553.52 C-301.99 553.52, -323.93 553.52, -337.81 553.52 C-351.69 553.52, -358.74 553.78, -365.24 553.52 C-371.74 553.27, -374.11 553.61, -376.8 552.01 C-379.49 550.4, -381 547.42, -381.38 543.9 C-381.76 540.38, -382.76 541.65, -379.08 530.88 C-375.4 520.11, -372.82 514.31, -359.29 479.28 C-345.77 444.26, -319.35 376, -297.92 320.72 C-276.48 265.44, -257.08 215.3, -230.68 147.59 C-204.28 79.88, -161.26 -29.56, -139.52 -85.53 C-117.77 -141.49, -114.27 -151.02, -100.2 -188.21 C-86.14 -225.39, -67.81 -275.48, -55.11 -308.62 C-42.42 -341.77, -31.29 -368.84, -24.04 -387.07 C-16.79 -405.29, -15.42 -411.64, -11.59 -417.99 C-7.77 -424.34, -4.45 -424.45, -1.07 -425.18 C2.31 -425.9, 5.83 -425.1, 8.68 -422.34 C11.53 -419.58, 12.57 -416.54, 16.01 -408.65 C19.45 -400.75, 19.55 -399.54, 29.3 -374.97 C39.05 -350.4, 57.14 -305.46, 74.52 -261.22 C91.91 -216.98, 113.31 -161.84, 133.63 -109.54 C153.94 -57.24, 176.12 0.28, 196.42 52.58 C216.71 104.89, 235.27 152.52, 255.39 204.31 C275.5 256.09, 297.41 312.26, 317.12 363.28 C336.83 414.31, 362.35 481.68, 373.65 510.43 C384.96 539.18, 383.17 529.64, 384.95 535.77 C386.74 541.91, 385.82 544.63, 384.37 547.24 C382.92 549.84, 380.55 550.47, 376.25 551.41 C371.96 552.35, 370.88 552.64, 358.6 552.89 C346.31 553.14, 319.94 552.89, 302.55 552.89 C285.17 552.89, 267.52 552.89, 254.28 552.89 C241.05 552.89, 230.94 552.68, 223.15 552.89 C215.35 553.1, 211.55 554.66, 207.51 554.17 C203.47 553.68, 201.66 553.3, 198.89 549.95 C196.12 546.59, 194.61 543.17, 190.9 534.04 C187.19 524.92, 186.18 521.41, 176.65 495.2 C167.12 468.98, 150.71 424.56, 133.74 376.74 C116.76 328.92, 97.11 271.07, 74.82 208.28 C52.53 145.48, 12.47 34.71, 0 0 M0 0 C-27.84 79.37, -135.76 387.62, -167.01 476.24 C-198.27 564.86, -183.21 519.89, -187.53 531.72 C-191.84 543.54, -190.58 543.7, -192.92 547.2 C-195.27 550.71, -197.46 551.68, -201.58 552.74 C-205.71 553.79, -204.29 553.39, -217.69 553.52 C-231.08 553.66, -261.95 553.52, -281.97 553.52 C-301.99 553.52, -323.93 553.52, -337.81 553.52 C-351.69 553.52, -358.74 553.78, -365.24 553.52 C-371.74 553.27, -374.11 553.61, -376.8 552.01 C-379.49 550.4, -381 547.42, -381.38 543.9 C-381.76 540.38, -382.76 541.65, -379.08 530.88 C-375.4 520.11, -372.82 514.31, -359.29 479.28 C-345.77 444.26, -319.35 376, -297.92 320.72 C-276.48 265.44, -257.08 215.3, -230.68 147.59 C-204.28 79.88, -161.26 -29.56, -139.52 -85.53 C-117.77 -141.49, -114.27 -151.02, -100.2 -188.21 C-86.14 -225.39, -67.81 -275.48, -55.11 -308.62 C-42.42 -341.77, -31.29 -368.84, -24.04 -387.07 C-16.79 -405.29, -15.42 -411.64, -11.59 -417.99 C-7.77 -424.34, -4.45 -424.45, -1.07 -425.18 C2.31 -425.9, 5.83 -425.1, 8.68 -422.34 C11.53 -419.58, 12.57 -416.54, 16.01 -408.65 C19.45 -400.75, 19.55 -399.54, 29.3 -374.97 C39.05 -350.4, 57.14 -305.46, 74.52 -261.22 C91.91 -216.98, 113.31 -161.84, 133.63 -109.54 C153.94 -57.24, 176.12 0.28, 196.42 52.58 C216.71 104.89, 235.27 152.52, 255.39 204.31 C275.5 256.09, 297.41 312.26, 317.12 363.28 C336.83 414.31, 362.35 481.68, 373.65 510.43 C384.96 539.18, 383.17 529.64, 384.95 535.77 C386.74 541.91, 385.82 544.63, 384.37 547.24 C382.92 549.84, 380.55 550.47, 376.25 551.41 C371.96 552.35, 370.88 552.64, 358.6 552.89 C346.31 553.14, 319.94 552.89, 302.55 552.89 C285.17 552.89, 267.52 552.89, 254.28 552.89 C241.05 552.89, 230.94 552.68, 223.15 552.89 C215.35 553.1, 211.55 554.66, 207.51 554.17 C203.47 553.68, 201.66 553.3, 198.89 549.95 C196.12 546.59, 194.61 543.17, 190.9 534.04 C187.19 524.92, 186.18 521.41, 176.65 495.2 C167.12 468.98, 150.71 424.56, 133.74 376.74 C116.76 328.92, 97.11 271.07, 74.82 208.28 C52.53 145.48, 12.47 34.71, 0 0" stroke="#E1E1E1" stroke-width="4" fill="none"></path></g></g><mask></mask><g stroke-linecap="round"><g transform="translate(2695.962750852843 439.30690494661576) rotate(0 1.787939838426155 64.49541598391534)" fill-rule="evenodd"><path d="M0 0 C-27.84 79.37, -135.76 387.62, -167.01 476.24 C-198.27 564.86, -183.21 519.89, -187.53 531.72 C-191.84 543.54, -190.58 543.7, -192.92 547.2 C-195.27 550.71, -197.46 551.68, -201.58 552.74 C-205.71 553.79, -204.29 553.39, -217.69 553.52 C-231.08 553.66, -261.95 553.52, -281.97 553.52 C-301.99 553.52, -323.93 553.52, -337.81 553.52 C-351.69 553.52, -358.74 553.78, -365.24 553.52 C-371.74 553.27, -374.11 553.61, -376.8 552.01 C-379.49 550.4, -381 547.42, -381.38 543.9 C-381.76 540.38, -382.76 541.65, -379.08 530.88 C-375.4 520.11, -372.82 514.31, -359.29 479.28 C-345.77 444.26, -319.35 376, -297.92 320.72 C-276.48 265.44, -257.08 215.3, -230.68 147.59 C-204.28 79.88, -161.26 -29.56, -139.52 -85.53 C-117.77 -141.49, -114.27 -151.02, -100.2 -188.21 C-86.14 -225.39, -67.81 -275.48, -55.11 -308.62 C-42.42 -341.77, -31.29 -368.84, -24.04 -387.07 C-16.79 -405.29, -15.42 -411.64, -11.59 -417.99 C-7.77 -424.34, -4.45 -424.45, -1.07 -425.18 C2.31 -425.9, 5.83 -425.1, 8.68 -422.34 C11.53 -419.58, 12.57 -416.54, 16.01 -408.65 C19.45 -400.75, 19.55 -399.54, 29.3 -374.97 C39.05 -350.4, 57.14 -305.46, 74.52 -261.22 C91.91 -216.98, 113.31 -161.84, 133.63 -109.54 C153.94 -57.24, 176.12 0.28, 196.42 52.58 C216.71 104.89, 235.27 152.52, 255.39 204.31 C275.5 256.09, 297.41 312.26, 317.12 363.28 C336.83 414.31, 362.35 481.68, 373.65 510.43 C384.96 539.18, 383.17 529.64, 384.95 535.77 C386.74 541.91, 385.82 544.63, 384.37 547.24 C382.92 549.84, 380.55 550.47, 376.25 551.41 C371.96 552.35, 370.88 552.64, 358.6 552.89 C346.31 553.14, 319.94 552.89, 302.55 552.89 C285.17 552.89, 267.52 552.89, 254.28 552.89 C241.05 552.89, 230.94 552.68, 223.15 552.89 C215.35 553.1, 211.55 554.66, 207.51 554.17 C203.47 553.68, 201.66 553.3, 198.89 549.95 C196.12 546.59, 194.61 543.17, 190.9 534.04 C187.19 524.92, 186.18 521.41, 176.65 495.2 C167.12 468.98, 150.71 424.56, 133.74 376.74 C116.76 328.92, 97.11 271.07, 74.82 208.28 C52.53 145.48, 12.47 34.71, 0 0" stroke="none" stroke-width="0" fill="#e1e1e1" fill-rule="evenodd"></path><path d="M0 0 C-27.84 79.37, -135.76 387.62, -167.01 476.24 C-198.27 564.86, -183.21 519.89, -187.53 531.72 C-191.84 543.54, -190.58 543.7, -192.92 547.2 C-195.27 550.71, -197.46 551.68, -201.58 552.74 C-205.71 553.79, -204.29 553.39, -217.69 553.52 C-231.08 553.66, -261.95 553.52, -281.97 553.52 C-301.99 553.52, -323.93 553.52, -337.81 553.52 C-351.69 553.52, -358.74 553.78, -365.24 553.52 C-371.74 553.27, -374.11 553.61, -376.8 552.01 C-379.49 550.4, -381 547.42, -381.38 543.9 C-381.76 540.38, -382.76 541.65, -379.08 530.88 C-375.4 520.11, -372.82 514.31, -359.29 479.28 C-345.77 444.26, -319.35 376, -297.92 320.72 C-276.48 265.44, -257.08 215.3, -230.68 147.59 C-204.28 79.88, -161.26 -29.56, -139.52 -85.53 C-117.77 -141.49, -114.27 -151.02, -100.2 -188.21 C-86.14 -225.39, -67.81 -275.48, -55.11 -308.62 C-42.42 -341.77, -31.29 -368.84, -24.04 -387.07 C-16.79 -405.29, -15.42 -411.64, -11.59 -417.99 C-7.77 -424.34, -4.45 -424.45, -1.07 -425.18 C2.31 -425.9, 5.83 -425.1, 8.68 -422.34 C11.53 -419.58, 12.57 -416.54, 16.01 -408.65 C19.45 -400.75, 19.55 -399.54, 29.3 -374.97 C39.05 -350.4, 57.14 -305.46, 74.52 -261.22 C91.91 -216.98, 113.31 -161.84, 133.63 -109.54 C153.94 -57.24, 176.12 0.28, 196.42 52.58 C216.71 104.89, 235.27 152.52, 255.39 204.31 C275.5 256.09, 297.41 312.26, 317.12 363.28 C336.83 414.31, 362.35 481.68, 373.65 510.43 C384.96 539.18, 383.17 529.64, 384.95 535.77 C386.74 541.91, 385.82 544.63, 384.37 547.24 C382.92 549.84, 380.55 550.47, 376.25 551.41 C371.96 552.35, 370.88 552.64, 358.6 552.89 C346.31 553.14, 319.94 552.89, 302.55 552.89 C285.17 552.89, 267.52 552.89, 254.28 552.89 C241.05 552.89, 230.94 552.68, 223.15 552.89 C215.35 553.1, 211.55 554.66, 207.51 554.17 C203.47 553.68, 201.66 553.3, 198.89 549.95 C196.12 546.59, 194.61 543.17, 190.9 534.04 C187.19 524.92, 186.18 521.41, 176.65 495.2 C167.12 468.98, 150.71 424.56, 133.74 376.74 C116.76 328.92, 97.11 271.07, 74.82 208.28 C52.53 145.48, 12.47 34.71, 0 0 M0 0 C-27.84 79.37, -135.76 387.62, -167.01 476.24 C-198.27 564.86, -183.21 519.89, -187.53 531.72 C-191.84 543.54, -190.58 543.7, -192.92 547.2 C-195.27 550.71, -197.46 551.68, -201.58 552.74 C-205.71 553.79, -204.29 553.39, -217.69 553.52 C-231.08 553.66, -261.95 553.52, -281.97 553.52 C-301.99 553.52, -323.93 553.52, -337.81 553.52 C-351.69 553.52, -358.74 553.78, -365.24 553.52 C-371.74 553.27, -374.11 553.61, -376.8 552.01 C-379.49 550.4, -381 547.42, -381.38 543.9 C-381.76 540.38, -382.76 541.65, -379.08 530.88 C-375.4 520.11, -372.82 514.31, -359.29 479.28 C-345.77 444.26, -319.35 376, -297.92 320.72 C-276.48 265.44, -257.08 215.3, -230.68 147.59 C-204.28 79.88, -161.26 -29.56, -139.52 -85.53 C-117.77 -141.49, -114.27 -151.02, -100.2 -188.21 C-86.14 -225.39, -67.81 -275.48, -55.11 -308.62 C-42.42 -341.77, -31.29 -368.84, -24.04 -387.07 C-16.79 -405.29, -15.42 -411.64, -11.59 -417.99 C-7.77 -424.34, -4.45 -424.45, -1.07 -425.18 C2.31 -425.9, 5.83 -425.1, 8.68 -422.34 C11.53 -419.58, 12.57 -416.54, 16.01 -408.65 C19.45 -400.75, 19.55 -399.54, 29.3 -374.97 C39.05 -350.4, 57.14 -305.46, 74.52 -261.22 C91.91 -216.98, 113.31 -161.84, 133.63 -109.54 C153.94 -57.24, 176.12 0.28, 196.42 52.58 C216.71 104.89, 235.27 152.52, 255.39 204.31 C275.5 256.09, 297.41 312.26, 317.12 363.28 C336.83 414.31, 362.35 481.68, 373.65 510.43 C384.96 539.18, 383.17 529.64, 384.95 535.77 C386.74 541.91, 385.82 544.63, 384.37 547.24 C382.92 549.84, 380.55 550.47, 376.25 551.41 C371.96 552.35, 370.88 552.64, 358.6 552.89 C346.31 553.14, 319.94 552.89, 302.55 552.89 C285.17 552.89, 267.52 552.89, 254.28 552.89 C241.05 552.89, 230.94 552.68, 223.15 552.89 C215.35 553.1, 211.55 554.66, 207.51 554.17 C203.47 553.68, 201.66 553.3, 198.89 549.95 C196.12 546.59, 194.61 543.17, 190.9 534.04 C187.19 524.92, 186.18 521.41, 176.65 495.2 C167.12 468.98, 150.71 424.56, 133.74 376.74 C116.76 328.92, 97.11 271.07, 74.82 208.28 C52.53 145.48, 12.47 34.71, 0 0" stroke="#E1E1E1" stroke-width="4" fill="none"></path></g></g><mask></mask><g stroke-linecap="round"><g transform="translate(3309.2984369823353 342.8349010067159) rotate(0 224.96967068167487 157.5611937755184)" fill-rule="evenodd"><path d="M0 0 C0 17.51, 0 51.44, 0 105.04 C0 158.65, 0 274.98, 0 321.62 C0 368.26, 0 371.65, 0 384.89 C0 398.12, 0.37 396.8, 0 401.01 C-0.37 405.22, -1.14 408.27, -2.24 410.15 C-3.34 412.04, -3.01 411.91, -6.58 412.33 C-10.14 412.75, -2.98 412.61, -23.61 412.66 C-44.25 412.72, -107.1 412.66, -130.37 412.66 C-153.64 412.66, -154.19 412.8, -163.24 412.66 C-172.28 412.52, -180.75 413.77, -184.65 411.83 C-188.54 409.89, -186.27 408.22, -186.6 401.03 C-186.92 393.84, -186.6 388.91, -186.6 368.7 C-186.6 348.49, -186.6 318.4, -186.6 279.76 C-186.6 241.13, -186.6 183.11, -186.6 136.89 C-186.6 90.67, -186.6 46.16, -186.6 2.45 C-186.6 -41.25, -186.6 -85.56, -186.6 -125.33 C-186.6 -165.11, -186.6 -207.86, -186.6 -236.2 C-186.6 -264.53, -186.6 -281.92, -186.6 -295.35 C-186.6 -308.78, -187.44 -311.54, -186.6 -316.78 C-185.75 -322.03, -183.89 -324.52, -181.53 -326.83 C-179.18 -329.15, -177.49 -329.83, -172.45 -330.66 C-167.42 -331.49, -165.4 -331.63, -151.33 -331.82 C-137.25 -332.02, -104.51 -331.82, -88.02 -331.82 C-71.53 -331.82, -62.31 -331.82, -52.39 -331.82 C-42.47 -331.82, -35.65 -331.95, -28.5 -331.82 C-21.35 -331.69, -14.38 -332.34, -9.5 -331.04 C-4.62 -329.74, -3.54 -328.92, 0.76 -324.03 C5.06 -319.13, 6.26 -315.93, 16.31 -301.67 C26.37 -287.4, 43.33 -263.69, 61.09 -238.44 C78.85 -213.18, 100.55 -181.95, 122.88 -150.13 C145.21 -118.32, 169.14 -84.35, 195.06 -47.55 C220.98 -10.74, 252.24 33.45, 278.39 70.7 C304.54 107.94, 329.36 143.5, 351.96 175.9 C374.56 208.29, 399.52 244.4, 413.99 265.08 C428.46 285.76, 432.69 291.87, 438.78 299.97 C444.87 308.06, 448.35 313.36, 450.52 313.65 C452.69 313.93, 451.58 310.55, 451.79 301.69 C452 292.82, 451.79 284.78, 451.79 260.46 C451.79 236.14, 451.79 197.12, 451.79 155.78 C451.79 114.43, 451.79 66.67, 451.79 12.37 C451.79 -41.93, 451.79 -119.75, 451.79 -170.02 C451.79 -220.29, 451.79 -265.16, 451.79 -289.23 C451.79 -313.3, 451.37 -308.58, 451.79 -314.44 C452.2 -320.29, 452.72 -321.74, 454.27 -324.36 C455.82 -326.98, 457.59 -329.06, 461.1 -330.16 C464.6 -331.26, 461.86 -330.83, 475.3 -330.96 C488.74 -331.1, 523.53 -330.96, 541.73 -330.96 C559.93 -330.96, 571.47 -330.96, 584.52 -330.96 C597.57 -330.96, 612.21 -331.26, 620.01 -330.96 C627.82 -330.66, 628.74 -330.89, 631.32 -329.16 C633.9 -327.43, 634.64 -327.41, 635.51 -320.59 C636.38 -313.76, 636.36 -312.91, 636.54 -288.21 C636.71 -263.51, 636.54 -232.04, 636.54 -172.38 C636.54 -112.72, 636.54 -15.34, 636.54 69.76 C636.54 154.86, 636.54 270.51, 636.54 338.23 C636.54 405.95, 636.54 434.04, 636.54 476.08 C636.54 518.12, 636.54 565.52, 636.54 590.47 C636.54 615.42, 636.95 617.57, 636.54 625.78 C636.12 634, 635.62 636.32, 634.06 639.76 C632.51 643.19, 631.44 645.19, 627.21 646.38 C622.99 647.58, 619.67 646.85, 608.7 646.95 C597.74 647.04, 579.33 646.95, 561.44 646.95 C543.55 646.95, 516.9 646.95, 501.38 646.95 C485.86 646.95, 475.2 646.95, 468.34 646.95 C461.48 646.95, 462.71 647.67, 460.22 646.95 C457.73 646.22, 457.66 647.52, 453.38 642.6 C449.1 637.68, 445.39 632.38, 434.55 617.43 C423.7 602.49, 405.13 576.97, 388.32 552.91 C371.51 528.85, 355.82 505.06, 333.68 473.09 C311.54 441.12, 281.61 398.38, 255.47 361.09 C229.34 323.79, 201.42 284.32, 176.86 249.32 C152.29 214.32, 132.77 186.08, 108.07 151.08 C83.38 116.07, 46.69 64.48, 28.68 39.3 C10.67 14.12, 4.78 6.55, 0 0" stroke="none" stroke-width="0" fill="#e1e1e1" fill-rule="evenodd"></path><path d="M0 0 C0 17.51, 0 51.44, 0 105.04 C0 158.65, 0 274.98, 0 321.62 C0 368.26, 0 371.65, 0 384.89 C0 398.12, 0.37 396.8, 0 401.01 C-0.37 405.22, -1.14 408.27, -2.24 410.15 C-3.34 412.04, -3.01 411.91, -6.58 412.33 C-10.14 412.75, -2.98 412.61, -23.61 412.66 C-44.25 412.72, -107.1 412.66, -130.37 412.66 C-153.64 412.66, -154.19 412.8, -163.24 412.66 C-172.28 412.52, -180.75 413.77, -184.65 411.83 C-188.54 409.89, -186.27 408.22, -186.6 401.03 C-186.92 393.84, -186.6 388.91, -186.6 368.7 C-186.6 348.49, -186.6 318.4, -186.6 279.76 C-186.6 241.13, -186.6 183.11, -186.6 136.89 C-186.6 90.67, -186.6 46.16, -186.6 2.45 C-186.6 -41.25, -186.6 -85.56, -186.6 -125.33 C-186.6 -165.11, -186.6 -207.86, -186.6 -236.2 C-186.6 -264.53, -186.6 -281.92, -186.6 -295.35 C-186.6 -308.78, -187.44 -311.54, -186.6 -316.78 C-185.75 -322.03, -183.89 -324.52, -181.53 -326.83 C-179.18 -329.15, -177.49 -329.83, -172.45 -330.66 C-167.42 -331.49, -165.4 -331.63, -151.33 -331.82 C-137.25 -332.02, -104.51 -331.82, -88.02 -331.82 C-71.53 -331.82, -62.31 -331.82, -52.39 -331.82 C-42.47 -331.82, -35.65 -331.95, -28.5 -331.82 C-21.35 -331.69, -14.38 -332.34, -9.5 -331.04 C-4.62 -329.74, -3.54 -328.92, 0.76 -324.03 C5.06 -319.13, 6.26 -315.93, 16.31 -301.67 C26.37 -287.4, 43.33 -263.69, 61.09 -238.44 C78.85 -213.18, 100.55 -181.95, 122.88 -150.13 C145.21 -118.32, 169.14 -84.35, 195.06 -47.55 C220.98 -10.74, 252.24 33.45, 278.39 70.7 C304.54 107.94, 329.36 143.5, 351.96 175.9 C374.56 208.29, 399.52 244.4, 413.99 265.08 C428.46 285.76, 432.69 291.87, 438.78 299.97 C444.87 308.06, 448.35 313.36, 450.52 313.65 C452.69 313.93, 451.58 310.55, 451.79 301.69 C452 292.82, 451.79 284.78, 451.79 260.46 C451.79 236.14, 451.79 197.12, 451.79 155.78 C451.79 114.43, 451.79 66.67, 451.79 12.37 C451.79 -41.93, 451.79 -119.75, 451.79 -170.02 C451.79 -220.29, 451.79 -265.16, 451.79 -289.23 C451.79 -313.3, 451.37 -308.58, 451.79 -314.44 C452.2 -320.29, 452.72 -321.74, 454.27 -324.36 C455.82 -326.98, 457.59 -329.06, 461.1 -330.16 C464.6 -331.26, 461.86 -330.83, 475.3 -330.96 C488.74 -331.1, 523.53 -330.96, 541.73 -330.96 C559.93 -330.96, 571.47 -330.96, 584.52 -330.96 C597.57 -330.96, 612.21 -331.26, 620.01 -330.96 C627.82 -330.66, 628.74 -330.89, 631.32 -329.16 C633.9 -327.43, 634.64 -327.41, 635.51 -320.59 C636.38 -313.76, 636.36 -312.91, 636.54 -288.21 C636.71 -263.51, 636.54 -232.04, 636.54 -172.38 C636.54 -112.72, 636.54 -15.34, 636.54 69.76 C636.54 154.86, 636.54 270.51, 636.54 338.23 C636.54 405.95, 636.54 434.04, 636.54 476.08 C636.54 518.12, 636.54 565.52, 636.54 590.47 C636.54 615.42, 636.95 617.57, 636.54 625.78 C636.12 634, 635.62 636.32, 634.06 639.76 C632.51 643.19, 631.44 645.19, 627.21 646.38 C622.99 647.58, 619.67 646.85, 608.7 646.95 C597.74 647.04, 579.33 646.95, 561.44 646.95 C543.55 646.95, 516.9 646.95, 501.38 646.95 C485.86 646.95, 475.2 646.95, 468.34 646.95 C461.48 646.95, 462.71 647.67, 460.22 646.95 C457.73 646.22, 457.66 647.52, 453.38 642.6 C449.1 637.68, 445.39 632.38, 434.55 617.43 C423.7 602.49, 405.13 576.97, 388.32 552.91 C371.51 528.85, 355.82 505.06, 333.68 473.09 C311.54 441.12, 281.61 398.38, 255.47 361.09 C229.34 323.79, 201.42 284.32, 176.86 249.32 C152.29 214.32, 132.77 186.08, 108.07 151.08 C83.38 116.07, 46.69 64.48, 28.68 39.3 C10.67 14.12, 4.78 6.55, 0 0 M0 0 C0 17.51, 0 51.44, 0 105.04 C0 158.65, 0 274.98, 0 321.62 C0 368.26, 0 371.65, 0 384.89 C0 398.12, 0.37 396.8, 0 401.01 C-0.37 405.22, -1.14 408.27, -2.24 410.15 C-3.34 412.04, -3.01 411.91, -6.58 412.33 C-10.14 412.75, -2.98 412.61, -23.61 412.66 C-44.25 412.72, -107.1 412.66, -130.37 412.66 C-153.64 412.66, -154.19 412.8, -163.24 412.66 C-172.28 412.52, -180.75 413.77, -184.65 411.83 C-188.54 409.89, -186.27 408.22, -186.6 401.03 C-186.92 393.84, -186.6 388.91, -186.6 368.7 C-186.6 348.49, -186.6 318.4, -186.6 279.76 C-186.6 241.13, -186.6 183.11, -186.6 136.89 C-186.6 90.67, -186.6 46.16, -186.6 2.45 C-186.6 -41.25, -186.6 -85.56, -186.6 -125.33 C-186.6 -165.11, -186.6 -207.86, -186.6 -236.2 C-186.6 -264.53, -186.6 -281.92, -186.6 -295.35 C-186.6 -308.78, -187.44 -311.54, -186.6 -316.78 C-185.75 -322.03, -183.89 -324.52, -181.53 -326.83 C-179.18 -329.15, -177.49 -329.83, -172.45 -330.66 C-167.42 -331.49, -165.4 -331.63, -151.33 -331.82 C-137.25 -332.02, -104.51 -331.82, -88.02 -331.82 C-71.53 -331.82, -62.31 -331.82, -52.39 -331.82 C-42.47 -331.82, -35.65 -331.95, -28.5 -331.82 C-21.35 -331.69, -14.38 -332.34, -9.5 -331.04 C-4.62 -329.74, -3.54 -328.92, 0.76 -324.03 C5.06 -319.13, 6.26 -315.93, 16.31 -301.67 C26.37 -287.4, 43.33 -263.69, 61.09 -238.44 C78.85 -213.18, 100.55 -181.95, 122.88 -150.13 C145.21 -118.32, 169.14 -84.35, 195.06 -47.55 C220.98 -10.74, 252.24 33.45, 278.39 70.7 C304.54 107.94, 329.36 143.5, 351.96 175.9 C374.56 208.29, 399.52 244.4, 413.99 265.08 C428.46 285.76, 432.69 291.87, 438.78 299.97 C444.87 308.06, 448.35 313.36, 450.52 313.65 C452.69 313.93, 451.58 310.55, 451.79 301.69 C452 292.82, 451.79 284.78, 451.79 260.46 C451.79 236.14, 451.79 197.12, 451.79 155.78 C451.79 114.43, 451.79 66.67, 451.79 12.37 C451.79 -41.93, 451.79 -119.75, 451.79 -170.02 C451.79 -220.29, 451.79 -265.16, 451.79 -289.23 C451.79 -313.3, 451.37 -308.58, 451.79 -314.44 C452.2 -320.29, 452.72 -321.74, 454.27 -324.36 C455.82 -326.98, 457.59 -329.06, 461.1 -330.16 C464.6 -331.26, 461.86 -330.83, 475.3 -330.96 C488.74 -331.1, 523.53 -330.96, 541.73 -330.96 C559.93 -330.96, 571.47 -330.96, 584.52 -330.96 C597.57 -330.96, 612.21 -331.26, 620.01 -330.96 C627.82 -330.66, 628.74 -330.89, 631.32 -329.16 C633.9 -327.43, 634.64 -327.41, 635.51 -320.59 C636.38 -313.76, 636.36 -312.91, 636.54 -288.21 C636.71 -263.51, 636.54 -232.04, 636.54 -172.38 C636.54 -112.72, 636.54 -15.34, 636.54 69.76 C636.54 154.86, 636.54 270.51, 636.54 338.23 C636.54 405.95, 636.54 434.04, 636.54 476.08 C636.54 518.12, 636.54 565.52, 636.54 590.47 C636.54 615.42, 636.95 617.57, 636.54 625.78 C636.12 634, 635.62 636.32, 634.06 639.76 C632.51 643.19, 631.44 645.19, 627.21 646.38 C622.99 647.58, 619.67 646.85, 608.7 646.95 C597.74 647.04, 579.33 646.95, 561.44 646.95 C543.55 646.95, 516.9 646.95, 501.38 646.95 C485.86 646.95, 475.2 646.95, 468.34 646.95 C461.48 646.95, 462.71 647.67, 460.22 646.95 C457.73 646.22, 457.66 647.52, 453.38 642.6 C449.1 637.68, 445.39 632.38, 434.55 617.43 C423.7 602.49, 405.13 576.97, 388.32 552.91 C371.51 528.85, 355.82 505.06, 333.68 473.09 C311.54 441.12, 281.61 398.38, 255.47 361.09 C229.34 323.79, 201.42 284.32, 176.86 249.32 C152.29 214.32, 132.77 186.08, 108.07 151.08 C83.38 116.07, 46.69 64.48, 28.68 39.3 C10.67 14.12, 4.78 6.55, 0 0" stroke="#E1E1E1" stroke-width="4" fill="none"></path></g></g><mask></mask><g stroke-linecap="round"><g transform="translate(4177.741377489699 413.29696741117186) rotate(0 105.51148476082335 90.2022471234468)" fill-rule="evenodd"><path d="M0 0 C15.01 0, 49.17 0, 90.08 0 C130.99 0, 209.92 0, 245.48 0 C281.04 0, 286.95 0, 303.44 0 C319.93 0, 333.46 0, 344.41 0 C355.36 0, 361.32 -0.16, 369.16 0 C376.99 0.16, 386.94 -0.68, 391.41 0.99 C395.88 2.65, 395.12 6.08, 395.97 9.98 C396.83 13.88, 396.43 9.09, 396.52 24.37 C396.61 39.65, 396.52 83.4, 396.52 101.67 C396.52 119.95, 396.52 124.06, 396.52 134.03 C396.52 144.01, 396.9 155.28, 396.54 161.53 C396.18 167.78, 396 169.41, 394.35 171.53 C392.7 173.65, 391.39 173.79, 386.63 174.24 C381.87 174.69, 385.35 174.24, 365.79 174.24 C346.22 174.24, 307.99 174.24, 269.22 174.24 C230.46 174.24, 164.07 174.24, 133.21 174.24 C102.35 174.24, 101.22 174.24, 84.06 174.24 C66.9 174.24, 42.41 174.24, 30.25 174.24 C18.1 174.24, 16.06 174.12, 11.14 174.24 C6.21 174.36, 2.64 173.06, 0.72 174.93 C-1.2 176.81, -0.22 175.49, -0.41 185.5 C-0.6 195.52, -0.41 211.64, -0.41 235.04 C-0.41 258.44, -0.41 303.84, -0.41 325.92 C-0.41 348.01, -0.41 357.33, -0.41 367.54 C-0.41 377.75, -0.41 381.96, -0.41 387.2 C-0.41 392.45, -1.68 396.9, -0.41 399.01 C0.85 401.13, -1.05 399.74, 7.17 399.88 C15.39 400.03, 32.19 399.88, 48.91 399.88 C65.63 399.88, 88.72 399.88, 107.5 399.88 C126.29 399.88, 141.66 399.88, 161.62 399.88 C181.58 399.88, 212.23 399.88, 227.26 399.88 C242.29 399.88, 245.88 399.88, 251.81 399.88 C257.74 399.88, 259.09 399.88, 262.86 399.88 C266.63 399.88, 272.05 398.46, 274.42 399.88 C276.78 401.3, 276.6 398.49, 277.04 408.4 C277.48 418.32, 277.04 441.28, 277.04 459.39 C277.04 477.49, 277.04 500.52, 277.04 517.04 C277.04 533.56, 277.04 548.79, 277.04 558.51 C277.04 568.24, 278.05 571.73, 277.04 575.38 C276.04 579.03, 278.48 579.58, 271.02 580.42 C263.55 581.25, 262.88 580.42, 232.25 580.42 C201.63 580.42, 135.98 580.42, 87.28 580.42 C38.58 580.42, -25.89 580.42, -59.94 580.42 C-93.98 580.42, -101.51 580.42, -116.97 580.42 C-132.44 580.42, -143.24 580.42, -152.73 580.42 C-162.22 580.42, -168.97 581.26, -173.92 580.42 C-178.88 579.57, -180.54 578.21, -182.48 575.32 C-184.41 572.42, -185.01 571.22, -185.52 563.04 C-186.03 554.86, -185.52 545.05, -185.52 526.24 C-185.52 507.43, -185.52 498.58, -185.52 450.18 C-185.52 401.77, -185.52 286.79, -185.52 235.81 C-185.52 184.82, -185.52 193.51, -185.52 144.26 C-185.52 95.01, -185.52 3.07, -185.52 -59.71 C-185.52 -122.49, -185.52 -184.49, -185.52 -232.41 C-185.52 -280.33, -185.52 -321.94, -185.52 -347.2 C-185.52 -372.47, -186.18 -375.86, -185.52 -383.98 C-184.86 -392.09, -183.85 -393.22, -181.58 -395.89 C-179.31 -398.56, -178.06 -399.32, -171.9 -400.01 C-165.75 -400.7, -164.45 -400.01, -144.65 -400.01 C-124.86 -400.01, -88.93 -400.01, -53.14 -400.01 C-17.34 -400.01, 31.62 -400.01, 70.12 -400.01 C108.61 -400.01, 150.85 -400.01, 177.82 -400.01 C204.78 -400.01, 219.55 -400.01, 231.91 -400.01 C244.27 -400.01, 244.99 -400.01, 251.96 -400.01 C258.94 -400.01, 269.64 -401.54, 273.75 -400.01 C277.85 -398.48, 276.12 -399.05, 276.6 -390.84 C277.07 -382.64, 276.6 -368.27, 276.6 -350.76 C276.6 -333.26, 276.6 -301.23, 276.6 -285.82 C276.6 -270.42, 276.6 -267.21, 276.6 -258.34 C276.6 -249.47, 278.3 -237.86, 276.6 -232.59 C274.9 -227.32, 278.65 -227.69, 266.41 -226.71 C254.18 -225.73, 230.16 -226.71, 203.2 -226.71 C176.25 -226.71, 132.42 -226.71, 104.67 -226.71 C76.92 -226.71, 51.93 -226.71, 36.72 -226.71 C21.5 -226.71, 19.25 -226.71, 13.39 -226.71 C7.52 -226.71, 3.78 -228.21, 1.51 -226.71 C-0.77 -225.22, 0.04 -228.55, -0.25 -217.73 C-0.54 -206.91, -0.29 -198.08, -0.25 -161.79 C-0.21 -125.5, -0.04 -26.97, 0 0" stroke="none" stroke-width="0" fill="#e1e1e1" fill-rule="evenodd"></path><path d="M0 0 C15.01 0, 49.17 0, 90.08 0 C130.99 0, 209.92 0, 245.48 0 C281.04 0, 286.95 0, 303.44 0 C319.93 0, 333.46 0, 344.41 0 C355.36 0, 361.32 -0.16, 369.16 0 C376.99 0.16, 386.94 -0.68, 391.41 0.99 C395.88 2.65, 395.12 6.08, 395.97 9.98 C396.83 13.88, 396.43 9.09, 396.52 24.37 C396.61 39.65, 396.52 83.4, 396.52 101.67 C396.52 119.95, 396.52 124.06, 396.52 134.03 C396.52 144.01, 396.9 155.28, 396.54 161.53 C396.18 167.78, 396 169.41, 394.35 171.53 C392.7 173.65, 391.39 173.79, 386.63 174.24 C381.87 174.69, 385.35 174.24, 365.79 174.24 C346.22 174.24, 307.99 174.24, 269.22 174.24 C230.46 174.24, 164.07 174.24, 133.21 174.24 C102.35 174.24, 101.22 174.24, 84.06 174.24 C66.9 174.24, 42.41 174.24, 30.25 174.24 C18.1 174.24, 16.06 174.12, 11.14 174.24 C6.21 174.36, 2.64 173.06, 0.72 174.93 C-1.2 176.81, -0.22 175.49, -0.41 185.5 C-0.6 195.52, -0.41 211.64, -0.41 235.04 C-0.41 258.44, -0.41 303.84, -0.41 325.92 C-0.41 348.01, -0.41 357.33, -0.41 367.54 C-0.41 377.75, -0.41 381.96, -0.41 387.2 C-0.41 392.45, -1.68 396.9, -0.41 399.01 C0.85 401.13, -1.05 399.74, 7.17 399.88 C15.39 400.03, 32.19 399.88, 48.91 399.88 C65.63 399.88, 88.72 399.88, 107.5 399.88 C126.29 399.88, 141.66 399.88, 161.62 399.88 C181.58 399.88, 212.23 399.88, 227.26 399.88 C242.29 399.88, 245.88 399.88, 251.81 399.88 C257.74 399.88, 259.09 399.88, 262.86 399.88 C266.63 399.88, 272.05 398.46, 274.42 399.88 C276.78 401.3, 276.6 398.49, 277.04 408.4 C277.48 418.32, 277.04 441.28, 277.04 459.39 C277.04 477.49, 277.04 500.52, 277.04 517.04 C277.04 533.56, 277.04 548.79, 277.04 558.51 C277.04 568.24, 278.05 571.73, 277.04 575.38 C276.04 579.03, 278.48 579.58, 271.02 580.42 C263.55 581.25, 262.88 580.42, 232.25 580.42 C201.63 580.42, 135.98 580.42, 87.28 580.42 C38.58 580.42, -25.89 580.42, -59.94 580.42 C-93.98 580.42, -101.51 580.42, -116.97 580.42 C-132.44 580.42, -143.24 580.42, -152.73 580.42 C-162.22 580.42, -168.97 581.26, -173.92 580.42 C-178.88 579.57, -180.54 578.21, -182.48 575.32 C-184.41 572.42, -185.01 571.22, -185.52 563.04 C-186.03 554.86, -185.52 545.05, -185.52 526.24 C-185.52 507.43, -185.52 498.58, -185.52 450.18 C-185.52 401.77, -185.52 286.79, -185.52 235.81 C-185.52 184.82, -185.52 193.51, -185.52 144.26 C-185.52 95.01, -185.52 3.07, -185.52 -59.71 C-185.52 -122.49, -185.52 -184.49, -185.52 -232.41 C-185.52 -280.33, -185.52 -321.94, -185.52 -347.2 C-185.52 -372.47, -186.18 -375.86, -185.52 -383.98 C-184.86 -392.09, -183.85 -393.22, -181.58 -395.89 C-179.31 -398.56, -178.06 -399.32, -171.9 -400.01 C-165.75 -400.7, -164.45 -400.01, -144.65 -400.01 C-124.86 -400.01, -88.93 -400.01, -53.14 -400.01 C-17.34 -400.01, 31.62 -400.01, 70.12 -400.01 C108.61 -400.01, 150.85 -400.01, 177.82 -400.01 C204.78 -400.01, 219.55 -400.01, 231.91 -400.01 C244.27 -400.01, 244.99 -400.01, 251.96 -400.01 C258.94 -400.01, 269.64 -401.54, 273.75 -400.01 C277.85 -398.48, 276.12 -399.05, 276.6 -390.84 C277.07 -382.64, 276.6 -368.27, 276.6 -350.76 C276.6 -333.26, 276.6 -301.23, 276.6 -285.82 C276.6 -270.42, 276.6 -267.21, 276.6 -258.34 C276.6 -249.47, 278.3 -237.86, 276.6 -232.59 C274.9 -227.32, 278.65 -227.69, 266.41 -226.71 C254.18 -225.73, 230.16 -226.71, 203.2 -226.71 C176.25 -226.71, 132.42 -226.71, 104.67 -226.71 C76.92 -226.71, 51.93 -226.71, 36.72 -226.71 C21.5 -226.71, 19.25 -226.71, 13.39 -226.71 C7.52 -226.71, 3.78 -228.21, 1.51 -226.71 C-0.77 -225.22, 0.04 -228.55, -0.25 -217.73 C-0.54 -206.91, -0.29 -198.08, -0.25 -161.79 C-0.21 -125.5, -0.04 -26.97, 0 0 M0 0 C15.01 0, 49.17 0, 90.08 0 C130.99 0, 209.92 0, 245.48 0 C281.04 0, 286.95 0, 303.44 0 C319.93 0, 333.46 0, 344.41 0 C355.36 0, 361.32 -0.16, 369.16 0 C376.99 0.16, 386.94 -0.68, 391.41 0.99 C395.88 2.65, 395.12 6.08, 395.97 9.98 C396.83 13.88, 396.43 9.09, 396.52 24.37 C396.61 39.65, 396.52 83.4, 396.52 101.67 C396.52 119.95, 396.52 124.06, 396.52 134.03 C396.52 144.01, 396.9 155.28, 396.54 161.53 C396.18 167.78, 396 169.41, 394.35 171.53 C392.7 173.65, 391.39 173.79, 386.63 174.24 C381.87 174.69, 385.35 174.24, 365.79 174.24 C346.22 174.24, 307.99 174.24, 269.22 174.24 C230.46 174.24, 164.07 174.24, 133.21 174.24 C102.35 174.24, 101.22 174.24, 84.06 174.24 C66.9 174.24, 42.41 174.24, 30.25 174.24 C18.1 174.24, 16.06 174.12, 11.14 174.24 C6.21 174.36, 2.64 173.06, 0.72 174.93 C-1.2 176.81, -0.22 175.49, -0.41 185.5 C-0.6 195.52, -0.41 211.64, -0.41 235.04 C-0.41 258.44, -0.41 303.84, -0.41 325.92 C-0.41 348.01, -0.41 357.33, -0.41 367.54 C-0.41 377.75, -0.41 381.96, -0.41 387.2 C-0.41 392.45, -1.68 396.9, -0.41 399.01 C0.85 401.13, -1.05 399.74, 7.17 399.88 C15.39 400.03, 32.19 399.88, 48.91 399.88 C65.63 399.88, 88.72 399.88, 107.5 399.88 C126.29 399.88, 141.66 399.88, 161.62 399.88 C181.58 399.88, 212.23 399.88, 227.26 399.88 C242.29 399.88, 245.88 399.88, 251.81 399.88 C257.74 399.88, 259.09 399.88, 262.86 399.88 C266.63 399.88, 272.05 398.46, 274.42 399.88 C276.78 401.3, 276.6 398.49, 277.04 408.4 C277.48 418.32, 277.04 441.28, 277.04 459.39 C277.04 477.49, 277.04 500.52, 277.04 517.04 C277.04 533.56, 277.04 548.79, 277.04 558.51 C277.04 568.24, 278.05 571.73, 277.04 575.38 C276.04 579.03, 278.48 579.58, 271.02 580.42 C263.55 581.25, 262.88 580.42, 232.25 580.42 C201.63 580.42, 135.98 580.42, 87.28 580.42 C38.58 580.42, -25.89 580.42, -59.94 580.42 C-93.98 580.42, -101.51 580.42, -116.97 580.42 C-132.44 580.42, -143.24 580.42, -152.73 580.42 C-162.22 580.42, -168.97 581.26, -173.92 580.42 C-178.88 579.57, -180.54 578.21, -182.48 575.32 C-184.41 572.42, -185.01 571.22, -185.52 563.04 C-186.03 554.86, -185.52 545.05, -185.52 526.24 C-185.52 507.43, -185.52 498.58, -185.52 450.18 C-185.52 401.77, -185.52 286.79, -185.52 235.81 C-185.52 184.82, -185.52 193.51, -185.52 144.26 C-185.52 95.01, -185.52 3.07, -185.52 -59.71 C-185.52 -122.49, -185.52 -184.49, -185.52 -232.41 C-185.52 -280.33, -185.52 -321.94, -185.52 -347.2 C-185.52 -372.47, -186.18 -375.86, -185.52 -383.98 C-184.86 -392.09, -183.85 -393.22, -181.58 -395.89 C-179.31 -398.56, -178.06 -399.32, -171.9 -400.01 C-165.75 -400.7, -164.45 -400.01, -144.65 -400.01 C-124.86 -400.01, -88.93 -400.01, -53.14 -400.01 C-17.34 -400.01, 31.62 -400.01, 70.12 -400.01 C108.61 -400.01, 150.85 -400.01, 177.82 -400.01 C204.78 -400.01, 219.55 -400.01, 231.91 -400.01 C244.27 -400.01, 244.99 -400.01, 251.96 -400.01 C258.94 -400.01, 269.64 -401.54, 273.75 -400.01 C277.85 -398.48, 276.12 -399.05, 276.6 -390.84 C277.07 -382.64, 276.6 -368.27, 276.6 -350.76 C276.6 -333.26, 276.6 -301.23, 276.6 -285.82 C276.6 -270.42, 276.6 -267.21, 276.6 -258.34 C276.6 -249.47, 278.3 -237.86, 276.6 -232.59 C274.9 -227.32, 278.65 -227.69, 266.41 -226.71 C254.18 -225.73, 230.16 -226.71, 203.2 -226.71 C176.25 -226.71, 132.42 -226.71, 104.67 -226.71 C76.92 -226.71, 51.93 -226.71, 36.72 -226.71 C21.5 -226.71, 19.25 -226.71, 13.39 -226.71 C7.52 -226.71, 3.78 -228.21, 1.51 -226.71 C-0.77 -225.22, 0.04 -228.55, -0.25 -217.73 C-0.54 -206.91, -0.29 -198.08, -0.25 -161.79 C-0.21 -125.5, -0.04 -26.97, 0 0" stroke="#E1E1E1" stroke-width="4" fill="none"></path></g></g><mask></mask><g stroke-linecap="round"><g transform="translate(819.7828754056227 415.90905338642915) rotate(0 333.21088629989754 86.07467335416823)" fill-rule="evenodd"><path d="M0 0 C0 24.98, 0 91.54, 0 149.86 C0 208.18, 0 292.34, 0 349.93 C0 407.52, 0 463.43, 0 495.4 C0 527.37, 0 530.15, 0 541.74 C0 553.33, -0.93 559.36, 0.03 564.93 C0.99 570.51, 2.46 573.16, 5.77 575.18 C9.07 577.21, 8.77 576.76, 19.85 577.08 C30.92 577.39, 53.14 577.08, 72.22 577.08 C91.3 577.08, 120.81 577.08, 134.34 577.08 C147.86 577.08, 146.92 577.09, 153.36 577.08 C159.8 577.06, 168.54 578.14, 172.97 576.99 C177.4 575.83, 178.57 573.28, 179.96 570.13 C181.35 566.99, 181.07 567.74, 181.3 558.1 C181.52 548.45, 181.3 543.07, 181.3 512.27 C181.3 481.47, 181.3 422.92, 181.3 373.29 C181.3 323.66, 181.3 244.18, 181.3 214.5 C181.3 184.81, 181.3 200.67, 181.3 195.18 C181.3 189.69, 180.03 184.29, 181.3 181.56 C182.57 178.83, 182.82 179.26, 188.91 178.8 C195.01 178.34, 206.79 178.8, 217.87 178.8 C228.94 178.8, 246.25 178.8, 255.38 178.8 C264.52 178.8, 267.08 178.8, 272.67 178.8 C278.26 178.8, 285.12 177.7, 288.92 178.8 C292.73 179.89, 292.28 179.46, 295.48 185.35 C298.68 191.24, 300.67 197.85, 308.13 214.13 C315.59 230.4, 328.51 257.56, 340.23 283 C351.96 308.43, 364.56 336.48, 378.47 366.75 C392.38 397.02, 411.59 438.23, 423.67 464.64 C435.76 491.04, 444.37 511.01, 450.96 525.18 C457.55 539.34, 459.63 542.16, 463.22 549.64 C466.81 557.11, 469.32 565.63, 472.52 570.02 C475.72 574.41, 477.77 574.77, 482.41 575.97 C487.06 577.17, 488.14 577.01, 500.38 577.22 C512.62 577.42, 536.15 577.22, 555.84 577.22 C575.54 577.22, 603.45 577.22, 618.55 577.22 C633.64 577.22, 638.95 577.52, 646.4 577.22 C653.86 576.92, 659.96 577.22, 663.3 575.41 C666.63 573.6, 666.49 570.15, 666.42 566.36 C666.36 562.58, 667.96 564.29, 662.91 552.71 C657.87 541.13, 646.28 518.37, 636.16 496.86 C626.03 475.35, 616.26 453.94, 602.14 423.65 C588.02 393.37, 567.69 350.12, 551.44 315.14 C535.2 280.15, 515.93 238.28, 504.66 213.74 C493.39 189.21, 487.96 177.75, 483.82 167.94 C479.67 158.14, 478.9 158.36, 479.78 154.91 C480.66 151.46, 483.47 150.67, 489.11 147.24 C494.74 143.81, 503.22 140.11, 513.59 134.32 C523.95 128.53, 539.12 121.2, 551.31 112.51 C563.51 103.82, 575.96 92.92, 586.75 82.18 C597.53 71.43, 607.73 60.26, 616.02 48.02 C624.32 35.78, 630.9 22.6, 636.52 8.73 C642.14 -5.14, 646.29 -16.39, 649.76 -35.19 C653.24 -53.99, 656.38 -83.11, 657.36 -104.08 C658.35 -125.05, 658.23 -141.08, 655.67 -161 C653.12 -180.93, 648.52 -204.18, 642.01 -223.62 C635.51 -243.06, 627.41 -260.89, 616.64 -277.66 C605.87 -294.42, 593.86 -309.68, 577.38 -324.22 C560.91 -338.77, 537.94 -354.32, 517.81 -364.92 C497.68 -375.52, 477.61 -382.04, 456.6 -387.81 C435.6 -393.59, 413.37 -396.87, 391.76 -399.58 C370.16 -402.28, 354.24 -403.13, 326.98 -404.05 C299.71 -404.96, 256.97 -404.9, 228.18 -405.07 C199.38 -405.24, 177.93 -405.07, 154.2 -405.07 C130.48 -405.07, 102.82 -405.07, 85.82 -405.07 C68.82 -405.07, 62.45 -405.07, 52.21 -405.07 C41.96 -405.07, 31.63 -405.07, 24.36 -405.07 C17.09 -405.07, 12.24 -406.15, 8.58 -405.07 C4.91 -403.98, 3.65 -402.49, 2.36 -398.54 C1.07 -394.6, 1.11 -394.21, 0.86 -381.38 C0.61 -368.55, 0.86 -339.08, 0.86 -321.58 C0.86 -304.09, 0.86 -288.43, 0.86 -276.4 C0.86 -264.37, 0.74 -256.5, 0.86 -249.4 C0.98 -242.31, 0.41 -237.2, 1.58 -233.85 C2.74 -230.5, 0.06 -230.07, 7.83 -229.31 C15.61 -228.55, 24.87 -229.31, 48.21 -229.31 C71.54 -229.31, 115.99 -229.31, 147.84 -229.31 C179.69 -229.31, 209.29 -229.28, 239.31 -229.31 C269.33 -229.34, 305.23 -230.31, 327.97 -229.49 C350.72 -228.66, 361.45 -227.55, 375.8 -224.35 C390.15 -221.15, 402.46 -216.32, 414.08 -210.26 C425.69 -204.21, 436.67 -196.63, 445.49 -188 C454.32 -179.37, 462.28 -168.4, 467.05 -158.49 C471.82 -148.58, 473.12 -140.22, 474.13 -128.53 C475.13 -116.85, 475.27 -100.58, 473.06 -88.37 C470.85 -76.15, 467.51 -66.01, 460.86 -55.24 C454.22 -44.47, 444.35 -32.13, 433.18 -23.76 C422.02 -15.38, 408.41 -8.97, 393.85 -4.99 C379.29 -1.01, 370.14 -0.74, 345.84 0.12 C321.54 0.97, 286.82 0.12, 248.05 0.12 C209.27 0.12, 154.52 0.13, 113.18 0.12 C71.84 0.1, 18.86 0.02, 0 0" stroke="none" stroke-width="0" fill="#e1e1e1" fill-rule="evenodd"></path><path d="M0 0 C0 24.98, 0 91.54, 0 149.86 C0 208.18, 0 292.34, 0 349.93 C0 407.52, 0 463.43, 0 495.4 C0 527.37, 0 530.15, 0 541.74 C0 553.33, -0.93 559.36, 0.03 564.93 C0.99 570.51, 2.46 573.16, 5.77 575.18 C9.07 577.21, 8.77 576.76, 19.85 577.08 C30.92 577.39, 53.14 577.08, 72.22 577.08 C91.3 577.08, 120.81 577.08, 134.34 577.08 C147.86 577.08, 146.92 577.09, 153.36 577.08 C159.8 577.06, 168.54 578.14, 172.97 576.99 C177.4 575.83, 178.57 573.28, 179.96 570.13 C181.35 566.99, 181.07 567.74, 181.3 558.1 C181.52 548.45, 181.3 543.07, 181.3 512.27 C181.3 481.47, 181.3 422.92, 181.3 373.29 C181.3 323.66, 181.3 244.18, 181.3 214.5 C181.3 184.81, 181.3 200.67, 181.3 195.18 C181.3 189.69, 180.03 184.29, 181.3 181.56 C182.57 178.83, 182.82 179.26, 188.91 178.8 C195.01 178.34, 206.79 178.8, 217.87 178.8 C228.94 178.8, 246.25 178.8, 255.38 178.8 C264.52 178.8, 267.08 178.8, 272.67 178.8 C278.26 178.8, 285.12 177.7, 288.92 178.8 C292.73 179.89, 292.28 179.46, 295.48 185.35 C298.68 191.24, 300.67 197.85, 308.13 214.13 C315.59 230.4, 328.51 257.56, 340.23 283 C351.96 308.43, 364.56 336.48, 378.47 366.75 C392.38 397.02, 411.59 438.23, 423.67 464.64 C435.76 491.04, 444.37 511.01, 450.96 525.18 C457.55 539.34, 459.63 542.16, 463.22 549.64 C466.81 557.11, 469.32 565.63, 472.52 570.02 C475.72 574.41, 477.77 574.77, 482.41 575.97 C487.06 577.17, 488.14 577.01, 500.38 577.22 C512.62 577.42, 536.15 577.22, 555.84 577.22 C575.54 577.22, 603.45 577.22, 618.55 577.22 C633.64 577.22, 638.95 577.52, 646.4 577.22 C653.86 576.92, 659.96 577.22, 663.3 575.41 C666.63 573.6, 666.49 570.15, 666.42 566.36 C666.36 562.58, 667.96 564.29, 662.91 552.71 C657.87 541.13, 646.28 518.37, 636.16 496.86 C626.03 475.35, 616.26 453.94, 602.14 423.65 C588.02 393.37, 567.69 350.12, 551.44 315.14 C535.2 280.15, 515.93 238.28, 504.66 213.74 C493.39 189.21, 487.96 177.75, 483.82 167.94 C479.67 158.14, 478.9 158.36, 479.78 154.91 C480.66 151.46, 483.47 150.67, 489.11 147.24 C494.74 143.81, 503.22 140.11, 513.59 134.32 C523.95 128.53, 539.12 121.2, 551.31 112.51 C563.51 103.82, 575.96 92.92, 586.75 82.18 C597.53 71.43, 607.73 60.26, 616.02 48.02 C624.32 35.78, 630.9 22.6, 636.52 8.73 C642.14 -5.14, 646.29 -16.39, 649.76 -35.19 C653.24 -53.99, 656.38 -83.11, 657.36 -104.08 C658.35 -125.05, 658.23 -141.08, 655.67 -161 C653.12 -180.93, 648.52 -204.18, 642.01 -223.62 C635.51 -243.06, 627.41 -260.89, 616.64 -277.66 C605.87 -294.42, 593.86 -309.68, 577.38 -324.22 C560.91 -338.77, 537.94 -354.32, 517.81 -364.92 C497.68 -375.52, 477.61 -382.04, 456.6 -387.81 C435.6 -393.59, 413.37 -396.87, 391.76 -399.58 C370.16 -402.28, 354.24 -403.13, 326.98 -404.05 C299.71 -404.96, 256.97 -404.9, 228.18 -405.07 C199.38 -405.24, 177.93 -405.07, 154.2 -405.07 C130.48 -405.07, 102.82 -405.07, 85.82 -405.07 C68.82 -405.07, 62.45 -405.07, 52.21 -405.07 C41.96 -405.07, 31.63 -405.07, 24.36 -405.07 C17.09 -405.07, 12.24 -406.15, 8.58 -405.07 C4.91 -403.98, 3.65 -402.49, 2.36 -398.54 C1.07 -394.6, 1.11 -394.21, 0.86 -381.38 C0.61 -368.55, 0.86 -339.08, 0.86 -321.58 C0.86 -304.09, 0.86 -288.43, 0.86 -276.4 C0.86 -264.37, 0.74 -256.5, 0.86 -249.4 C0.98 -242.31, 0.41 -237.2, 1.58 -233.85 C2.74 -230.5, 0.06 -230.07, 7.83 -229.31 C15.61 -228.55, 24.87 -229.31, 48.21 -229.31 C71.54 -229.31, 115.99 -229.31, 147.84 -229.31 C179.69 -229.31, 209.29 -229.28, 239.31 -229.31 C269.33 -229.34, 305.23 -230.31, 327.97 -229.49 C350.72 -228.66, 361.45 -227.55, 375.8 -224.35 C390.15 -221.15, 402.46 -216.32, 414.08 -210.26 C425.69 -204.21, 436.67 -196.63, 445.49 -188 C454.32 -179.37, 462.28 -168.4, 467.05 -158.49 C471.82 -148.58, 473.12 -140.22, 474.13 -128.53 C475.13 -116.85, 475.27 -100.58, 473.06 -88.37 C470.85 -76.15, 467.51 -66.01, 460.86 -55.24 C454.22 -44.47, 444.35 -32.13, 433.18 -23.76 C422.02 -15.38, 408.41 -8.97, 393.85 -4.99 C379.29 -1.01, 370.14 -0.74, 345.84 0.12 C321.54 0.97, 286.82 0.12, 248.05 0.12 C209.27 0.12, 154.52 0.13, 113.18 0.12 C71.84 0.1, 18.86 0.02, 0 0 M0 0 C0 24.98, 0 91.54, 0 149.86 C0 208.18, 0 292.34, 0 349.93 C0 407.52, 0 463.43, 0 495.4 C0 527.37, 0 530.15, 0 541.74 C0 553.33, -0.93 559.36, 0.03 564.93 C0.99 570.51, 2.46 573.16, 5.77 575.18 C9.07 577.21, 8.77 576.76, 19.85 577.08 C30.92 577.39, 53.14 577.08, 72.22 577.08 C91.3 577.08, 120.81 577.08, 134.34 577.08 C147.86 577.08, 146.92 577.09, 153.36 577.08 C159.8 577.06, 168.54 578.14, 172.97 576.99 C177.4 575.83, 178.57 573.28, 179.96 570.13 C181.35 566.99, 181.07 567.74, 181.3 558.1 C181.52 548.45, 181.3 543.07, 181.3 512.27 C181.3 481.47, 181.3 422.92, 181.3 373.29 C181.3 323.66, 181.3 244.18, 181.3 214.5 C181.3 184.81, 181.3 200.67, 181.3 195.18 C181.3 189.69, 180.03 184.29, 181.3 181.56 C182.57 178.83, 182.82 179.26, 188.91 178.8 C195.01 178.34, 206.79 178.8, 217.87 178.8 C228.94 178.8, 246.25 178.8, 255.38 178.8 C264.52 178.8, 267.08 178.8, 272.67 178.8 C278.26 178.8, 285.12 177.7, 288.92 178.8 C292.73 179.89, 292.28 179.46, 295.48 185.35 C298.68 191.24, 300.67 197.85, 308.13 214.13 C315.59 230.4, 328.51 257.56, 340.23 283 C351.96 308.43, 364.56 336.48, 378.47 366.75 C392.38 397.02, 411.59 438.23, 423.67 464.64 C435.76 491.04, 444.37 511.01, 450.96 525.18 C457.55 539.34, 459.63 542.16, 463.22 549.64 C466.81 557.11, 469.32 565.63, 472.52 570.02 C475.72 574.41, 477.77 574.77, 482.41 575.97 C487.06 577.17, 488.14 577.01, 500.38 577.22 C512.62 577.42, 536.15 577.22, 555.84 577.22 C575.54 577.22, 603.45 577.22, 618.55 577.22 C633.64 577.22, 638.95 577.52, 646.4 577.22 C653.86 576.92, 659.96 577.22, 663.3 575.41 C666.63 573.6, 666.49 570.15, 666.42 566.36 C666.36 562.58, 667.96 564.29, 662.91 552.71 C657.87 541.13, 646.28 518.37, 636.16 496.86 C626.03 475.35, 616.26 453.94, 602.14 423.65 C588.02 393.37, 567.69 350.12, 551.44 315.14 C535.2 280.15, 515.93 238.28, 504.66 213.74 C493.39 189.21, 487.96 177.75, 483.82 167.94 C479.67 158.14, 478.9 158.36, 479.78 154.91 C480.66 151.46, 483.47 150.67, 489.11 147.24 C494.74 143.81, 503.22 140.11, 513.59 134.32 C523.95 128.53, 539.12 121.2, 551.31 112.51 C563.51 103.82, 575.96 92.92, 586.75 82.18 C597.53 71.43, 607.73 60.26, 616.02 48.02 C624.32 35.78, 630.9 22.6, 636.52 8.73 C642.14 -5.14, 646.29 -16.39, 649.76 -35.19 C653.24 -53.99, 656.38 -83.11, 657.36 -104.08 C658.35 -125.05, 658.23 -141.08, 655.67 -161 C653.12 -180.93, 648.52 -204.18, 642.01 -223.62 C635.51 -243.06, 627.41 -260.89, 616.64 -277.66 C605.87 -294.42, 593.86 -309.68, 577.38 -324.22 C560.91 -338.77, 537.94 -354.32, 517.81 -364.92 C497.68 -375.52, 477.61 -382.04, 456.6 -387.81 C435.6 -393.59, 413.37 -396.87, 391.76 -399.58 C370.16 -402.28, 354.24 -403.13, 326.98 -404.05 C299.71 -404.96, 256.97 -404.9, 228.18 -405.07 C199.38 -405.24, 177.93 -405.07, 154.2 -405.07 C130.48 -405.07, 102.82 -405.07, 85.82 -405.07 C68.82 -405.07, 62.45 -405.07, 52.21 -405.07 C41.96 -405.07, 31.63 -405.07, 24.36 -405.07 C17.09 -405.07, 12.24 -406.15, 8.58 -405.07 C4.91 -403.98, 3.65 -402.49, 2.36 -398.54 C1.07 -394.6, 1.11 -394.21, 0.86 -381.38 C0.61 -368.55, 0.86 -339.08, 0.86 -321.58 C0.86 -304.09, 0.86 -288.43, 0.86 -276.4 C0.86 -264.37, 0.74 -256.5, 0.86 -249.4 C0.98 -242.31, 0.41 -237.2, 1.58 -233.85 C2.74 -230.5, 0.06 -230.07, 7.83 -229.31 C15.61 -228.55, 24.87 -229.31, 48.21 -229.31 C71.54 -229.31, 115.99 -229.31, 147.84 -229.31 C179.69 -229.31, 209.29 -229.28, 239.31 -229.31 C269.33 -229.34, 305.23 -230.31, 327.97 -229.49 C350.72 -228.66, 361.45 -227.55, 375.8 -224.35 C390.15 -221.15, 402.46 -216.32, 414.08 -210.26 C425.69 -204.21, 436.67 -196.63, 445.49 -188 C454.32 -179.37, 462.28 -168.4, 467.05 -158.49 C471.82 -148.58, 473.12 -140.22, 474.13 -128.53 C475.13 -116.85, 475.27 -100.58, 473.06 -88.37 C470.85 -76.15, 467.51 -66.01, 460.86 -55.24 C454.22 -44.47, 444.35 -32.13, 433.18 -23.76 C422.02 -15.38, 408.41 -8.97, 393.85 -4.99 C379.29 -1.01, 370.14 -0.74, 345.84 0.12 C321.54 0.97, 286.82 0.12, 248.05 0.12 C209.27 0.12, 154.52 0.13, 113.18 0.12 C71.84 0.1, 18.86 0.02, 0 0" stroke="#E1E1E1" stroke-width="4" fill="none"></path></g></g><mask></mask><g stroke-linecap="round"><g transform="translate(2086.392028675874 249.13444760832317) rotate(0 -186.513003134653 252.14113307516254)" fill-rule="evenodd"><path d="M0 0 C0 12.13, 0 53.11, 0 72.77 C0 92.43, 0 105.36, 0 117.96 C0 130.57, -0.03 141.68, 0 148.39 C0.03 155.09, -1.26 156.33, 0.17 158.21 C1.61 160.09, 2.8 159.43, 8.63 159.68 C14.46 159.92, 22.11 159.68, 35.16 159.68 C48.21 159.68, 72.43 159.68, 86.95 159.68 C101.46 159.68, 110.59 159.68, 122.26 159.68 C133.92 159.68, 147.89 159.68, 156.92 159.68 C165.94 159.68, 171.55 159.68, 176.42 159.68 C181.3 159.68, 184.4 161.19, 186.16 159.68 C187.92 158.17, 186.84 159.94, 186.98 150.63 C187.12 141.31, 186.98 122.88, 186.98 103.8 C186.98 84.72, 186.98 67.18, 186.98 36.15 C186.98 5.12, 186.98 -49.92, 186.98 -82.39 C186.98 -114.86, 186.98 -139.44, 186.98 -158.68 C186.98 -177.93, 186.98 -187.72, 186.98 -197.87 C186.98 -208.02, 187.41 -213.88, 186.98 -219.58 C186.55 -225.29, 186.17 -229.09, 184.41 -232.09 C182.65 -235.1, 180.3 -236.49, 176.41 -237.6 C172.51 -238.72, 171 -238.56, 161.04 -238.76 C151.08 -238.96, 136.27 -238.74, 116.66 -238.78 C97.05 -238.83, 70.58 -239.35, 43.39 -239.03 C16.21 -238.71, -16.64 -238.36, -46.44 -236.84 C-76.25 -235.32, -106.76 -233.63, -135.44 -229.92 C-164.12 -226.22, -194.38 -220.23, -218.52 -214.62 C-242.66 -209, -261.38 -202.95, -280.28 -196.21 C-299.18 -189.47, -316.33 -181.67, -331.91 -174.2 C-347.5 -166.74, -359.98 -160.13, -373.81 -151.41 C-387.64 -142.68, -401.07 -133.79, -414.9 -121.88 C-428.73 -109.97, -445.08 -93.15, -456.8 -79.94 C-468.52 -66.74, -475.43 -57.75, -485.25 -42.67 C-495.07 -27.59, -507.5 -6.2, -515.7 10.53 C-523.9 27.27, -529.14 41.85, -534.47 57.75 C-539.8 73.65, -544.01 88.57, -547.69 105.95 C-551.38 123.32, -554.56 142.33, -556.58 161.98 C-558.6 181.63, -559.26 201.99, -559.83 223.82 C-560.4 245.65, -560.76 271.33, -560.01 292.97 C-559.26 314.62, -558.56 332.47, -555.33 353.69 C-552.1 374.91, -546.6 399.34, -540.63 420.3 C-534.65 441.25, -526.92 461.42, -519.48 479.43 C-512.03 497.44, -507.53 510.24, -495.94 528.34 C-484.35 546.45, -466.21 570.51, -449.95 588.05 C-433.69 605.59, -416.88 619.65, -398.37 633.59 C-379.85 647.54, -357.57 661.49, -338.85 671.73 C-320.14 681.98, -307.1 687.14, -286.08 695.06 C-265.07 702.97, -241.03 712.2, -212.76 719.23 C-184.49 726.26, -146.27 733.23, -116.48 737.23 C-86.69 741.23, -64.55 742.22, -34.04 743.23 C-3.53 744.25, 36.43 743.3, 66.61 743.31 C96.79 743.33, 128.46 743.39, 147.02 743.31 C165.58 743.24, 171.6 744.62, 177.99 742.87 C184.38 741.13, 184.08 738.21, 185.36 732.85 C186.64 727.49, 185.62 724.08, 185.67 710.72 C185.72 697.35, 185.67 669.85, 185.67 652.65 C185.67 635.45, 185.67 618.9, 185.67 607.52 C185.67 596.14, 185.67 590.47, 185.67 584.34 C185.67 578.22, 186.96 573.65, 185.67 570.75 C184.38 567.84, 183.59 567.56, 177.94 566.9 C172.28 566.24, 168.59 566.7, 151.74 566.79 C134.88 566.88, 106.64 567.38, 76.79 567.46 C46.93 567.54, 1.66 568.16, -27.38 567.25 C-56.42 566.35, -76.31 564.33, -97.44 562.04 C-118.56 559.74, -135.47 557.96, -154.13 553.49 C-172.79 549.03, -192.43 542.35, -209.38 535.24 C-226.34 528.13, -240.73 520.97, -255.88 510.85 C-271.02 500.72, -287.89 487.03, -300.24 474.47 C-312.6 461.91, -321.77 448.41, -330.03 435.49 C-338.28 422.57, -344.21 409.91, -349.77 396.93 C-355.33 383.94, -359.72 372.52, -363.4 357.59 C-367.08 342.66, -370.15 323.72, -371.85 307.34 C-373.55 290.96, -373.7 277.32, -373.58 259.31 C-373.46 241.31, -373.76 220.04, -371.13 199.3 C-368.5 178.56, -364.68 155.91, -357.8 134.86 C-350.92 113.8, -342.6 92.72, -329.84 72.95 C-317.09 53.17, -300.55 32.8, -281.29 16.18 C-262.02 -0.43, -236.41 -15.88, -214.24 -26.74 C-192.07 -37.6, -168.54 -43.84, -148.26 -48.97 C-127.98 -54.1, -109.31 -55.6, -92.56 -57.51 C-75.81 -59.43, -58.59 -59.98, -47.75 -60.47 C-36.91 -60.96, -33.35 -60.47, -27.52 -60.47 C-21.68 -60.47, -17.06 -60.51, -12.75 -60.47 C-8.43 -60.42, -3.68 -61.9, -1.61 -60.19 C0.47 -58.49, -0.56 -60.26, -0.29 -50.23 C-0.02 -40.2, -0.05 -8.37, 0 0" stroke="none" stroke-width="0" fill="#e1e1e1" fill-rule="evenodd"></path><path d="M0 0 C0 12.13, 0 53.11, 0 72.77 C0 92.43, 0 105.36, 0 117.96 C0 130.57, -0.03 141.68, 0 148.39 C0.03 155.09, -1.26 156.33, 0.17 158.21 C1.61 160.09, 2.8 159.43, 8.63 159.68 C14.46 159.92, 22.11 159.68, 35.16 159.68 C48.21 159.68, 72.43 159.68, 86.95 159.68 C101.46 159.68, 110.59 159.68, 122.26 159.68 C133.92 159.68, 147.89 159.68, 156.92 159.68 C165.94 159.68, 171.55 159.68, 176.42 159.68 C181.3 159.68, 184.4 161.19, 186.16 159.68 C187.92 158.17, 186.84 159.94, 186.98 150.63 C187.12 141.31, 186.98 122.88, 186.98 103.8 C186.98 84.72, 186.98 67.18, 186.98 36.15 C186.98 5.12, 186.98 -49.92, 186.98 -82.39 C186.98 -114.86, 186.98 -139.44, 186.98 -158.68 C186.98 -177.93, 186.98 -187.72, 186.98 -197.87 C186.98 -208.02, 187.41 -213.88, 186.98 -219.58 C186.55 -225.29, 186.17 -229.09, 184.41 -232.09 C182.65 -235.1, 180.3 -236.49, 176.41 -237.6 C172.51 -238.72, 171 -238.56, 161.04 -238.76 C151.08 -238.96, 136.27 -238.74, 116.66 -238.78 C97.05 -238.83, 70.58 -239.35, 43.39 -239.03 C16.21 -238.71, -16.64 -238.36, -46.44 -236.84 C-76.25 -235.32, -106.76 -233.63, -135.44 -229.92 C-164.12 -226.22, -194.38 -220.23, -218.52 -214.62 C-242.66 -209, -261.38 -202.95, -280.28 -196.21 C-299.18 -189.47, -316.33 -181.67, -331.91 -174.2 C-347.5 -166.74, -359.98 -160.13, -373.81 -151.41 C-387.64 -142.68, -401.07 -133.79, -414.9 -121.88 C-428.73 -109.97, -445.08 -93.15, -456.8 -79.94 C-468.52 -66.74, -475.43 -57.75, -485.25 -42.67 C-495.07 -27.59, -507.5 -6.2, -515.7 10.53 C-523.9 27.27, -529.14 41.85, -534.47 57.75 C-539.8 73.65, -544.01 88.57, -547.69 105.95 C-551.38 123.32, -554.56 142.33, -556.58 161.98 C-558.6 181.63, -559.26 201.99, -559.83 223.82 C-560.4 245.65, -560.76 271.33, -560.01 292.97 C-559.26 314.62, -558.56 332.47, -555.33 353.69 C-552.1 374.91, -546.6 399.34, -540.63 420.3 C-534.65 441.25, -526.92 461.42, -519.48 479.43 C-512.03 497.44, -507.53 510.24, -495.94 528.34 C-484.35 546.45, -466.21 570.51, -449.95 588.05 C-433.69 605.59, -416.88 619.65, -398.37 633.59 C-379.85 647.54, -357.57 661.49, -338.85 671.73 C-320.14 681.98, -307.1 687.14, -286.08 695.06 C-265.07 702.97, -241.03 712.2, -212.76 719.23 C-184.49 726.26, -146.27 733.23, -116.48 737.23 C-86.69 741.23, -64.55 742.22, -34.04 743.23 C-3.53 744.25, 36.43 743.3, 66.61 743.31 C96.79 743.33, 128.46 743.39, 147.02 743.31 C165.58 743.24, 171.6 744.62, 177.99 742.87 C184.38 741.13, 184.08 738.21, 185.36 732.85 C186.64 727.49, 185.62 724.08, 185.67 710.72 C185.72 697.35, 185.67 669.85, 185.67 652.65 C185.67 635.45, 185.67 618.9, 185.67 607.52 C185.67 596.14, 185.67 590.47, 185.67 584.34 C185.67 578.22, 186.96 573.65, 185.67 570.75 C184.38 567.84, 183.59 567.56, 177.94 566.9 C172.28 566.24, 168.59 566.7, 151.74 566.79 C134.88 566.88, 106.64 567.38, 76.79 567.46 C46.93 567.54, 1.66 568.16, -27.38 567.25 C-56.42 566.35, -76.31 564.33, -97.44 562.04 C-118.56 559.74, -135.47 557.96, -154.13 553.49 C-172.79 549.03, -192.43 542.35, -209.38 535.24 C-226.34 528.13, -240.73 520.97, -255.88 510.85 C-271.02 500.72, -287.89 487.03, -300.24 474.47 C-312.6 461.91, -321.77 448.41, -330.03 435.49 C-338.28 422.57, -344.21 409.91, -349.77 396.93 C-355.33 383.94, -359.72 372.52, -363.4 357.59 C-367.08 342.66, -370.15 323.72, -371.85 307.34 C-373.55 290.96, -373.7 277.32, -373.58 259.31 C-373.46 241.31, -373.76 220.04, -371.13 199.3 C-368.5 178.56, -364.68 155.91, -357.8 134.86 C-350.92 113.8, -342.6 92.72, -329.84 72.95 C-317.09 53.17, -300.55 32.8, -281.29 16.18 C-262.02 -0.43, -236.41 -15.88, -214.24 -26.74 C-192.07 -37.6, -168.54 -43.84, -148.26 -48.97 C-127.98 -54.1, -109.31 -55.6, -92.56 -57.51 C-75.81 -59.43, -58.59 -59.98, -47.75 -60.47 C-36.91 -60.96, -33.35 -60.47, -27.52 -60.47 C-21.68 -60.47, -17.06 -60.51, -12.75 -60.47 C-8.43 -60.42, -3.68 -61.9, -1.61 -60.19 C0.47 -58.49, -0.56 -60.26, -0.29 -50.23 C-0.02 -40.2, -0.05 -8.37, 0 0 M0 0 C0 12.13, 0 53.11, 0 72.77 C0 92.43, 0 105.36, 0 117.96 C0 130.57, -0.03 141.68, 0 148.39 C0.03 155.09, -1.26 156.33, 0.17 158.21 C1.61 160.09, 2.8 159.43, 8.63 159.68 C14.46 159.92, 22.11 159.68, 35.16 159.68 C48.21 159.68, 72.43 159.68, 86.95 159.68 C101.46 159.68, 110.59 159.68, 122.26 159.68 C133.92 159.68, 147.89 159.68, 156.92 159.68 C165.94 159.68, 171.55 159.68, 176.42 159.68 C181.3 159.68, 184.4 161.19, 186.16 159.68 C187.92 158.17, 186.84 159.94, 186.98 150.63 C187.12 141.31, 186.98 122.88, 186.98 103.8 C186.98 84.72, 186.98 67.18, 186.98 36.15 C186.98 5.12, 186.98 -49.92, 186.98 -82.39 C186.98 -114.86, 186.98 -139.44, 186.98 -158.68 C186.98 -177.93, 186.98 -187.72, 186.98 -197.87 C186.98 -208.02, 187.41 -213.88, 186.98 -219.58 C186.55 -225.29, 186.17 -229.09, 184.41 -232.09 C182.65 -235.1, 180.3 -236.49, 176.41 -237.6 C172.51 -238.72, 171 -238.56, 161.04 -238.76 C151.08 -238.96, 136.27 -238.74, 116.66 -238.78 C97.05 -238.83, 70.58 -239.35, 43.39 -239.03 C16.21 -238.71, -16.64 -238.36, -46.44 -236.84 C-76.25 -235.32, -106.76 -233.63, -135.44 -229.92 C-164.12 -226.22, -194.38 -220.23, -218.52 -214.62 C-242.66 -209, -261.38 -202.95, -280.28 -196.21 C-299.18 -189.47, -316.33 -181.67, -331.91 -174.2 C-347.5 -166.74, -359.98 -160.13, -373.81 -151.41 C-387.64 -142.68, -401.07 -133.79, -414.9 -121.88 C-428.73 -109.97, -445.08 -93.15, -456.8 -79.94 C-468.52 -66.74, -475.43 -57.75, -485.25 -42.67 C-495.07 -27.59, -507.5 -6.2, -515.7 10.53 C-523.9 27.27, -529.14 41.85, -534.47 57.75 C-539.8 73.65, -544.01 88.57, -547.69 105.95 C-551.38 123.32, -554.56 142.33, -556.58 161.98 C-558.6 181.63, -559.26 201.99, -559.83 223.82 C-560.4 245.65, -560.76 271.33, -560.01 292.97 C-559.26 314.62, -558.56 332.47, -555.33 353.69 C-552.1 374.91, -546.6 399.34, -540.63 420.3 C-534.65 441.25, -526.92 461.42, -519.48 479.43 C-512.03 497.44, -507.53 510.24, -495.94 528.34 C-484.35 546.45, -466.21 570.51, -449.95 588.05 C-433.69 605.59, -416.88 619.65, -398.37 633.59 C-379.85 647.54, -357.57 661.49, -338.85 671.73 C-320.14 681.98, -307.1 687.14, -286.08 695.06 C-265.07 702.97, -241.03 712.2, -212.76 719.23 C-184.49 726.26, -146.27 733.23, -116.48 737.23 C-86.69 741.23, -64.55 742.22, -34.04 743.23 C-3.53 744.25, 36.43 743.3, 66.61 743.31 C96.79 743.33, 128.46 743.39, 147.02 743.31 C165.58 743.24, 171.6 744.62, 177.99 742.87 C184.38 741.13, 184.08 738.21, 185.36 732.85 C186.64 727.49, 185.62 724.08, 185.67 710.72 C185.72 697.35, 185.67 669.85, 185.67 652.65 C185.67 635.45, 185.67 618.9, 185.67 607.52 C185.67 596.14, 185.67 590.47, 185.67 584.34 C185.67 578.22, 186.96 573.65, 185.67 570.75 C184.38 567.84, 183.59 567.56, 177.94 566.9 C172.28 566.24, 168.59 566.7, 151.74 566.79 C134.88 566.88, 106.64 567.38, 76.79 567.46 C46.93 567.54, 1.66 568.16, -27.38 567.25 C-56.42 566.35, -76.31 564.33, -97.44 562.04 C-118.56 559.74, -135.47 557.96, -154.13 553.49 C-172.79 549.03, -192.43 542.35, -209.38 535.24 C-226.34 528.13, -240.73 520.97, -255.88 510.85 C-271.02 500.72, -287.89 487.03, -300.24 474.47 C-312.6 461.91, -321.77 448.41, -330.03 435.49 C-338.28 422.57, -344.21 409.91, -349.77 396.93 C-355.33 383.94, -359.72 372.52, -363.4 357.59 C-367.08 342.66, -370.15 323.72, -371.85 307.34 C-373.55 290.96, -373.7 277.32, -373.58 259.31 C-373.46 241.31, -373.76 220.04, -371.13 199.3 C-368.5 178.56, -364.68 155.91, -357.8 134.86 C-350.92 113.8, -342.6 92.72, -329.84 72.95 C-317.09 53.17, -300.55 32.8, -281.29 16.18 C-262.02 -0.43, -236.41 -15.88, -214.24 -26.74 C-192.07 -37.6, -168.54 -43.84, -148.26 -48.97 C-127.98 -54.1, -109.31 -55.6, -92.56 -57.51 C-75.81 -59.43, -58.59 -59.98, -47.75 -60.47 C-36.91 -60.96, -33.35 -60.47, -27.52 -60.47 C-21.68 -60.47, -17.06 -60.51, -12.75 -60.47 C-8.43 -60.42, -3.68 -61.9, -1.61 -60.19 C0.47 -58.49, -0.56 -60.26, -0.29 -50.23 C-0.02 -40.2, -0.05 -8.37, 0 0" stroke="#E1E1E1" stroke-width="4" fill="none"></path></g></g><mask></mask></svg>