<svg version="1.1" xmlns="http://www.w3.org/2000/svg" viewBox="0 0 3850.6707681661765 1101.2247411583048" width="3850.6707681661765" height="1101.2247411583048" class="excalidraw-svg"><!-- svg-source:excalidraw --><metadata></metadata><defs><style class="style-fonts">
      </style></defs><rect x="0" y="0" width="3850.6707681661765" height="1101.2247411583048" fill="#000000"></rect><g stroke-linecap="round"><g transform="translate(1242.2942526891056 481.1745670527871) rotate(0 1.967895978099932 70.98687942001652)" fill-rule="evenodd"><path d="M0 0 C-30.64 87.36, -149.42 426.64, -183.82 524.18 C-218.22 621.72, -201.65 572.22, -206.4 585.23 C-211.15 598.25, -209.76 598.42, -212.34 602.28 C-214.92 606.14, -217.33 607.21, -221.87 608.37 C-226.42 609.53, -224.85 609.09, -239.6 609.24 C-254.34 609.38, -288.32 609.24, -310.35 609.24 C-332.39 609.24, -356.54 609.24, -371.81 609.24 C-387.09 609.24, -394.85 609.51, -402 609.24 C-409.16 608.96, -411.76 609.33, -414.72 607.57 C-417.68 605.8, -419.35 602.52, -419.76 598.64 C-420.18 594.77, -421.29 596.17, -417.24 584.32 C-413.19 572.46, -410.34 566.08, -395.46 527.52 C-380.57 488.97, -351.5 413.84, -327.9 353 C-304.31 292.15, -282.95 236.97, -253.89 162.45 C-224.84 87.92, -177.5 -32.54, -153.56 -94.14 C-129.63 -155.73, -125.77 -166.23, -110.29 -207.15 C-94.81 -248.08, -74.63 -303.21, -60.66 -339.69 C-46.69 -376.17, -34.44 -405.96, -26.46 -426.02 C-18.48 -446.09, -16.97 -453.07, -12.76 -460.06 C-8.55 -467.05, -4.9 -467.17, -1.18 -467.97 C2.54 -468.77, 6.42 -467.88, 9.55 -464.85 C12.69 -461.82, 13.84 -458.47, 17.62 -449.78 C21.4 -441.09, 21.52 -439.76, 32.25 -412.71 C42.98 -385.67, 62.89 -336.2, 82.03 -287.51 C101.16 -238.82, 124.72 -178.13, 147.08 -120.57 C169.44 -63, 193.85 0.3, 216.19 57.88 C238.52 115.45, 258.95 167.87, 281.09 224.87 C303.23 281.86, 327.34 343.69, 349.04 399.85 C370.73 456.01, 398.82 530.16, 411.26 561.8 C423.71 593.45, 421.73 582.95, 423.7 589.7 C425.67 596.45, 424.65 599.45, 423.06 602.32 C421.46 605.19, 418.85 605.87, 414.12 606.91 C409.39 607.95, 408.21 608.27, 394.69 608.54 C381.17 608.81, 352.14 608.54, 333 608.54 C313.87 608.54, 294.44 608.54, 279.88 608.54 C265.31 608.54, 254.19 608.31, 245.61 608.54 C237.03 608.77, 232.85 610.49, 228.4 609.95 C223.95 609.41, 221.95 608.99, 218.91 605.3 C215.86 601.61, 214.19 597.84, 210.11 587.79 C206.03 577.75, 204.92 573.89, 194.43 545.04 C183.95 516.18, 165.88 467.3, 147.2 414.66 C128.52 362.03, 106.89 298.35, 82.35 229.24 C57.82 160.13, 13.73 38.21, 0 0" stroke="none" stroke-width="0" fill="#e1e1e1" fill-rule="evenodd"></path><path d="M0 0 C-30.64 87.36, -149.42 426.64, -183.82 524.18 C-218.22 621.72, -201.65 572.22, -206.4 585.23 C-211.15 598.25, -209.76 598.42, -212.34 602.28 C-214.92 606.14, -217.33 607.21, -221.87 608.37 C-226.42 609.53, -224.85 609.09, -239.6 609.24 C-254.34 609.38, -288.32 609.24, -310.35 609.24 C-332.39 609.24, -356.54 609.24, -371.81 609.24 C-387.09 609.24, -394.85 609.51, -402 609.24 C-409.16 608.96, -411.76 609.33, -414.72 607.57 C-417.68 605.8, -419.35 602.52, -419.76 598.64 C-420.18 594.77, -421.29 596.17, -417.24 584.32 C-413.19 572.46, -410.34 566.08, -395.46 527.52 C-380.57 488.97, -351.5 413.84, -327.9 353 C-304.31 292.15, -282.95 236.97, -253.89 162.45 C-224.84 87.92, -177.5 -32.54, -153.56 -94.14 C-129.63 -155.73, -125.77 -166.23, -110.29 -207.15 C-94.81 -248.08, -74.63 -303.21, -60.66 -339.69 C-46.69 -376.17, -34.44 -405.96, -26.46 -426.02 C-18.48 -446.09, -16.97 -453.07, -12.76 -460.06 C-8.55 -467.05, -4.9 -467.17, -1.18 -467.97 C2.54 -468.77, 6.42 -467.88, 9.55 -464.85 C12.69 -461.82, 13.84 -458.47, 17.62 -449.78 C21.4 -441.09, 21.52 -439.76, 32.25 -412.71 C42.98 -385.67, 62.89 -336.2, 82.03 -287.51 C101.16 -238.82, 124.72 -178.13, 147.08 -120.57 C169.44 -63, 193.85 0.3, 216.19 57.88 C238.52 115.45, 258.95 167.87, 281.09 224.87 C303.23 281.86, 327.34 343.69, 349.04 399.85 C370.73 456.01, 398.82 530.16, 411.26 561.8 C423.71 593.45, 421.73 582.95, 423.7 589.7 C425.67 596.45, 424.65 599.45, 423.06 602.32 C421.46 605.19, 418.85 605.87, 414.12 606.91 C409.39 607.95, 408.21 608.27, 394.69 608.54 C381.17 608.81, 352.14 608.54, 333 608.54 C313.87 608.54, 294.44 608.54, 279.88 608.54 C265.31 608.54, 254.19 608.31, 245.61 608.54 C237.03 608.77, 232.85 610.49, 228.4 609.95 C223.95 609.41, 221.95 608.99, 218.91 605.3 C215.86 601.61, 214.19 597.84, 210.11 587.79 C206.03 577.75, 204.92 573.89, 194.43 545.04 C183.95 516.18, 165.88 467.3, 147.2 414.66 C128.52 362.03, 106.89 298.35, 82.35 229.24 C57.82 160.13, 13.73 38.21, 0 0 M0 0 C-30.64 87.36, -149.42 426.64, -183.82 524.18 C-218.22 621.72, -201.65 572.22, -206.4 585.23 C-211.15 598.25, -209.76 598.42, -212.34 602.28 C-214.92 606.14, -217.33 607.21, -221.87 608.37 C-226.42 609.53, -224.85 609.09, -239.6 609.24 C-254.34 609.38, -288.32 609.24, -310.35 609.24 C-332.39 609.24, -356.54 609.24, -371.81 609.24 C-387.09 609.24, -394.85 609.51, -402 609.24 C-409.16 608.96, -411.76 609.33, -414.72 607.57 C-417.68 605.8, -419.35 602.52, -419.76 598.64 C-420.18 594.77, -421.29 596.17, -417.24 584.32 C-413.19 572.46, -410.34 566.08, -395.46 527.52 C-380.57 488.97, -351.5 413.84, -327.9 353 C-304.31 292.15, -282.95 236.97, -253.89 162.45 C-224.84 87.92, -177.5 -32.54, -153.56 -94.14 C-129.63 -155.73, -125.77 -166.23, -110.29 -207.15 C-94.81 -248.08, -74.63 -303.21, -60.66 -339.69 C-46.69 -376.17, -34.44 -405.96, -26.46 -426.02 C-18.48 -446.09, -16.97 -453.07, -12.76 -460.06 C-8.55 -467.05, -4.9 -467.17, -1.18 -467.97 C2.54 -468.77, 6.42 -467.88, 9.55 -464.85 C12.69 -461.82, 13.84 -458.47, 17.62 -449.78 C21.4 -441.09, 21.52 -439.76, 32.25 -412.71 C42.98 -385.67, 62.89 -336.2, 82.03 -287.51 C101.16 -238.82, 124.72 -178.13, 147.08 -120.57 C169.44 -63, 193.85 0.3, 216.19 57.88 C238.52 115.45, 258.95 167.87, 281.09 224.87 C303.23 281.86, 327.34 343.69, 349.04 399.85 C370.73 456.01, 398.82 530.16, 411.26 561.8 C423.71 593.45, 421.73 582.95, 423.7 589.7 C425.67 596.45, 424.65 599.45, 423.06 602.32 C421.46 605.19, 418.85 605.87, 414.12 606.91 C409.39 607.95, 408.21 608.27, 394.69 608.54 C381.17 608.81, 352.14 608.54, 333 608.54 C313.87 608.54, 294.44 608.54, 279.88 608.54 C265.31 608.54, 254.19 608.31, 245.61 608.54 C237.03 608.77, 232.85 610.49, 228.4 609.95 C223.95 609.41, 221.95 608.99, 218.91 605.3 C215.86 601.61, 214.19 597.84, 210.11 587.79 C206.03 577.75, 204.92 573.89, 194.43 545.04 C183.95 516.18, 165.88 467.3, 147.2 414.66 C128.52 362.03, 106.89 298.35, 82.35 229.24 C57.82 160.13, 13.73 38.21, 0 0" stroke="#E1E1E1" stroke-width="4" fill="none"></path></g></g><mask></mask><g stroke-linecap="round"><g transform="translate(430.2238589780991 619.3602375945466) rotate(0 -37.51256595172981 -70.63243856020745)" fill-rule="evenodd"><path d="M0 0 C-30.64 -87.36, -149.42 -426.64, -183.82 -524.18 C-218.22 -621.72, -201.65 -572.22, -206.4 -585.23 C-211.15 -598.25, -209.76 -598.42, -212.34 -602.28 C-214.92 -606.14, -217.33 -607.21, -221.87 -608.37 C-226.42 -609.53, -224.85 -609.09, -239.6 -609.24 C-254.34 -609.38, -288.32 -609.24, -310.35 -609.24 C-332.39 -609.24, -356.54 -609.24, -371.81 -609.24 C-387.09 -609.24, -394.85 -609.51, -402 -609.24 C-409.16 -608.96, -411.76 -609.33, -414.72 -607.57 C-417.68 -605.8, -419.35 -602.52, -419.76 -598.64 C-420.18 -594.77, -421.29 -596.17, -417.24 -584.32 C-413.19 -572.46, -410.34 -566.08, -395.46 -527.52 C-380.57 -488.97, -351.5 -413.84, -327.9 -353 C-304.31 -292.15, -282.95 -236.97, -253.89 -162.45 C-224.84 -87.92, -177.5 32.54, -153.56 94.14 C-129.63 155.73, -125.77 166.23, -110.29 207.15 C-94.81 248.08, -74.63 303.21, -60.66 339.69 C-46.69 376.17, -34.44 405.96, -26.46 426.02 C-18.48 446.09, -16.97 453.07, -12.76 460.06 C-8.55 467.05, -4.9 467.17, -1.18 467.97 C2.54 468.77, 6.42 467.88, 9.55 464.85 C12.69 461.82, 13.84 458.47, 17.62 449.78 C21.4 441.09, 21.52 439.76, 32.25 412.71 C42.98 385.67, 62.89 336.2, 82.03 287.51 C101.16 238.82, 124.72 178.13, 147.08 120.57 C169.44 63, 193.85 -0.3, 216.19 -57.88 C238.52 -115.45, 260.18 -170.53, 281.09 -224.87 C302.01 -279.21, 331.06 -353.48, 341.67 -383.9 C352.28 -414.32, 347.95 -403.5, 344.74 -407.41 C341.53 -411.31, 327.84 -407.4, 322.41 -407.33 C316.98 -407.25, 315.59 -407.05, 312.14 -406.96 C308.69 -406.86, 306.02 -406.82, 301.72 -406.77 C297.42 -406.72, 290.7 -406.68, 286.33 -406.65 C281.97 -406.62, 279.8 -406.65, 275.54 -406.58 C271.28 -406.51, 266.44 -406.3, 260.75 -406.22 C255.05 -406.14, 246.46 -406.13, 241.37 -406.09 C236.29 -406.04, 239.85 -405.69, 230.24 -405.96 C220.63 -406.23, 194.15 -407.5, 183.71 -407.69 C173.27 -407.89, 173.67 -407.5, 167.6 -407.13 C161.53 -406.76, 152.99 -409.93, 147.27 -405.46 C141.56 -400.99, 144.12 -409.68, 133.3 -380.31 C122.48 -350.94, 104.57 -292.62, 82.35 -229.24 C60.14 -165.85, 13.73 -38.21, 0 0" stroke="none" stroke-width="0" fill="#e1e1e1" fill-rule="evenodd"></path><path d="M0 0 C-30.64 -87.36, -149.42 -426.64, -183.82 -524.18 C-218.22 -621.72, -201.65 -572.22, -206.4 -585.23 C-211.15 -598.25, -209.76 -598.42, -212.34 -602.28 C-214.92 -606.14, -217.33 -607.21, -221.87 -608.37 C-226.42 -609.53, -224.85 -609.09, -239.6 -609.24 C-254.34 -609.38, -288.32 -609.24, -310.35 -609.24 C-332.39 -609.24, -356.54 -609.24, -371.81 -609.24 C-387.09 -609.24, -394.85 -609.51, -402 -609.24 C-409.16 -608.96, -411.76 -609.33, -414.72 -607.57 C-417.68 -605.8, -419.35 -602.52, -419.76 -598.64 C-420.18 -594.77, -421.29 -596.17, -417.24 -584.32 C-413.19 -572.46, -410.34 -566.08, -395.46 -527.52 C-380.57 -488.97, -351.5 -413.84, -327.9 -353 C-304.31 -292.15, -282.95 -236.97, -253.89 -162.45 C-224.84 -87.92, -177.5 32.54, -153.56 94.14 C-129.63 155.73, -125.77 166.23, -110.29 207.15 C-94.81 248.08, -74.63 303.21, -60.66 339.69 C-46.69 376.17, -34.44 405.96, -26.46 426.02 C-18.48 446.09, -16.97 453.07, -12.76 460.06 C-8.55 467.05, -4.9 467.17, -1.18 467.97 C2.54 468.77, 6.42 467.88, 9.55 464.85 C12.69 461.82, 13.84 458.47, 17.62 449.78 C21.4 441.09, 21.52 439.76, 32.25 412.71 C42.98 385.67, 62.89 336.2, 82.03 287.51 C101.16 238.82, 124.72 178.13, 147.08 120.57 C169.44 63, 193.85 -0.3, 216.19 -57.88 C238.52 -115.45, 260.18 -170.53, 281.09 -224.87 C302.01 -279.21, 331.06 -353.48, 341.67 -383.9 C352.28 -414.32, 347.95 -403.5, 344.74 -407.41 C341.53 -411.31, 327.84 -407.4, 322.41 -407.33 C316.98 -407.25, 315.59 -407.05, 312.14 -406.96 C308.69 -406.86, 306.02 -406.82, 301.72 -406.77 C297.42 -406.72, 290.7 -406.68, 286.33 -406.65 C281.97 -406.62, 279.8 -406.65, 275.54 -406.58 C271.28 -406.51, 266.44 -406.3, 260.75 -406.22 C255.05 -406.14, 246.46 -406.13, 241.37 -406.09 C236.29 -406.04, 239.85 -405.69, 230.24 -405.96 C220.63 -406.23, 194.15 -407.5, 183.71 -407.69 C173.27 -407.89, 173.67 -407.5, 167.6 -407.13 C161.53 -406.76, 152.99 -409.93, 147.27 -405.46 C141.56 -400.99, 144.12 -409.68, 133.3 -380.31 C122.48 -350.94, 104.57 -292.62, 82.35 -229.24 C60.14 -165.85, 13.73 -38.21, 0 0 M0 0 C-30.64 -87.36, -149.42 -426.64, -183.82 -524.18 C-218.22 -621.72, -201.65 -572.22, -206.4 -585.23 C-211.15 -598.25, -209.76 -598.42, -212.34 -602.28 C-214.92 -606.14, -217.33 -607.21, -221.87 -608.37 C-226.42 -609.53, -224.85 -609.09, -239.6 -609.24 C-254.34 -609.38, -288.32 -609.24, -310.35 -609.24 C-332.39 -609.24, -356.54 -609.24, -371.81 -609.24 C-387.09 -609.24, -394.85 -609.51, -402 -609.24 C-409.16 -608.96, -411.76 -609.33, -414.72 -607.57 C-417.68 -605.8, -419.35 -602.52, -419.76 -598.64 C-420.18 -594.77, -421.29 -596.17, -417.24 -584.32 C-413.19 -572.46, -410.34 -566.08, -395.46 -527.52 C-380.57 -488.97, -351.5 -413.84, -327.9 -353 C-304.31 -292.15, -282.95 -236.97, -253.89 -162.45 C-224.84 -87.92, -177.5 32.54, -153.56 94.14 C-129.63 155.73, -125.77 166.23, -110.29 207.15 C-94.81 248.08, -74.63 303.21, -60.66 339.69 C-46.69 376.17, -34.44 405.96, -26.46 426.02 C-18.48 446.09, -16.97 453.07, -12.76 460.06 C-8.55 467.05, -4.9 467.17, -1.18 467.97 C2.54 468.77, 6.42 467.88, 9.55 464.85 C12.69 461.82, 13.84 458.47, 17.62 449.78 C21.4 441.09, 21.52 439.76, 32.25 412.71 C42.98 385.67, 62.89 336.2, 82.03 287.51 C101.16 238.82, 124.72 178.13, 147.08 120.57 C169.44 63, 193.85 -0.3, 216.19 -57.88 C238.52 -115.45, 260.18 -170.53, 281.09 -224.87 C302.01 -279.21, 331.06 -353.48, 341.67 -383.9 C352.28 -414.32, 347.95 -403.5, 344.74 -407.41 C341.53 -411.31, 327.84 -407.4, 322.41 -407.33 C316.98 -407.25, 315.59 -407.05, 312.14 -406.96 C308.69 -406.86, 306.02 -406.82, 301.72 -406.77 C297.42 -406.72, 290.7 -406.68, 286.33 -406.65 C281.97 -406.62, 279.8 -406.65, 275.54 -406.58 C271.28 -406.51, 266.44 -406.3, 260.75 -406.22 C255.05 -406.14, 246.46 -406.13, 241.37 -406.09 C236.29 -406.04, 239.85 -405.69, 230.24 -405.96 C220.63 -406.23, 194.15 -407.5, 183.71 -407.69 C173.27 -407.89, 173.67 -407.5, 167.6 -407.13 C161.53 -406.76, 152.99 -409.93, 147.27 -405.46 C141.56 -400.99, 144.12 -409.68, 133.3 -380.31 C122.48 -350.94, 104.57 -292.62, 82.35 -229.24 C60.14 -165.85, 13.73 -38.21, 0 0" stroke="#E1E1E1" stroke-width="4" fill="none"></path></g></g><mask></mask><g stroke-linecap="round"><g transform="translate(3414.8812225695037 404.17800842148245) rotate(0 102.21294954308951 342.6339974938719)" fill-rule="evenodd"><path d="M0 0 C11.56 0, 45.62 0, 69.36 0 C93.1 0, 123.7 0, 142.45 0 C161.2 0, 171.99 0, 181.86 0 C191.74 0, 197.94 -1.75, 201.7 0 C205.46 1.75, 203.97 -7.1, 204.43 10.51 C204.88 28.12, 204.43 72.41, 204.43 105.68 C204.43 138.96, 204.43 149.07, 204.43 210.17 C204.43 271.27, 204.43 405.58, 204.43 472.29 C204.43 539, 204.43 579.53, 204.43 610.41 C204.43 641.28, 204.43 647.03, 204.43 657.55 C204.43 668.06, 204.95 669.49, 204.43 673.5 C203.91 677.51, 203.83 679.76, 201.3 681.61 C198.78 683.45, 196.83 683.97, 189.27 684.57 C181.71 685.18, 171.98 685.11, 155.94 685.22 C139.9 685.34, 112.19 685.29, 93.03 685.27 C73.88 685.24, 53.62 685.1, 41 685.08 C28.39 685.07, 22.91 685.53, 17.37 685.2 C11.83 684.86, 10.18 685.18, 7.75 683.07 C5.33 680.96, 3.77 682.47, 2.85 672.52 C1.92 662.58, 2.36 675.61, 2.18 623.4 C2 571.2, 1.89 431.25, 1.77 359.29 C1.65 287.34, 1.19 251.28, 1.48 191.68 C1.77 132.08, 3.18 33.36, 3.52 1.69" stroke="none" stroke-width="0" fill="#e1e1e1" fill-rule="evenodd"></path><path d="M0 0 C11.56 0, 45.62 0, 69.36 0 C93.1 0, 123.7 0, 142.45 0 C161.2 0, 171.99 0, 181.86 0 C191.74 0, 197.94 -1.75, 201.7 0 C205.46 1.75, 203.97 -7.1, 204.43 10.51 C204.88 28.12, 204.43 72.41, 204.43 105.68 C204.43 138.96, 204.43 149.07, 204.43 210.17 C204.43 271.27, 204.43 405.58, 204.43 472.29 C204.43 539, 204.43 579.53, 204.43 610.41 C204.43 641.28, 204.43 647.03, 204.43 657.55 C204.43 668.06, 204.95 669.49, 204.43 673.5 C203.91 677.51, 203.83 679.76, 201.3 681.61 C198.78 683.45, 196.83 683.97, 189.27 684.57 C181.71 685.18, 171.98 685.11, 155.94 685.22 C139.9 685.34, 112.19 685.29, 93.03 685.27 C73.88 685.24, 53.62 685.1, 41 685.08 C28.39 685.07, 22.91 685.53, 17.37 685.2 C11.83 684.86, 10.18 685.18, 7.75 683.07 C5.33 680.96, 3.77 682.47, 2.85 672.52 C1.92 662.58, 2.36 675.61, 2.18 623.4 C2 571.2, 1.89 431.25, 1.77 359.29 C1.65 287.34, 1.19 251.28, 1.48 191.68 C1.77 132.08, 3.18 33.36, 3.52 1.69 M0 0 C11.56 0, 45.62 0, 69.36 0 C93.1 0, 123.7 0, 142.45 0 C161.2 0, 171.99 0, 181.86 0 C191.74 0, 197.94 -1.75, 201.7 0 C205.46 1.75, 203.97 -7.1, 204.43 10.51 C204.88 28.12, 204.43 72.41, 204.43 105.68 C204.43 138.96, 204.43 149.07, 204.43 210.17 C204.43 271.27, 204.43 405.58, 204.43 472.29 C204.43 539, 204.43 579.53, 204.43 610.41 C204.43 641.28, 204.43 647.03, 204.43 657.55 C204.43 668.06, 204.95 669.49, 204.43 673.5 C203.91 677.51, 203.83 679.76, 201.3 681.61 C198.78 683.45, 196.83 683.97, 189.27 684.57 C181.71 685.18, 171.98 685.11, 155.94 685.22 C139.9 685.34, 112.19 685.29, 93.03 685.27 C73.88 685.24, 53.62 685.1, 41 685.08 C28.39 685.07, 22.91 685.53, 17.37 685.2 C11.83 684.86, 10.18 685.18, 7.75 683.07 C5.33 680.96, 3.77 682.47, 2.85 672.52 C1.92 662.58, 2.36 675.61, 2.18 623.4 C2 571.2, 1.89 431.25, 1.77 359.29 C1.65 287.34, 1.19 251.28, 1.48 191.68 C1.77 132.08, 3.18 33.36, 3.52 1.69" stroke="#E1E1E1" stroke-width="4" fill="none"></path></g></g><mask></mask><g stroke-linecap="round"><g transform="translate(2563.4781488223534 697.1846768225732) rotate(0 102.21294954308951 -342.6339974938719)" fill-rule="evenodd"><path d="M0 0 C11.56 0, 45.62 0, 69.36 0 C93.1 0, 123.7 0, 142.45 0 C161.2 0, 171.99 0, 181.86 0 C191.74 0, 197.94 1.75, 201.7 0 C205.46 -1.75, 203.97 7.1, 204.43 -10.51 C204.88 -28.12, 204.43 -72.41, 204.43 -105.68 C204.43 -138.96, 204.43 -149.07, 204.43 -210.17 C204.43 -271.27, 204.43 -405.58, 204.43 -472.29 C204.43 -539, 204.43 -579.53, 204.43 -610.41 C204.43 -641.28, 204.43 -647.03, 204.43 -657.55 C204.43 -668.06, 204.95 -669.49, 204.43 -673.5 C203.91 -677.51, 203.83 -679.76, 201.3 -681.61 C198.78 -683.45, 196.83 -683.97, 189.27 -684.57 C181.71 -685.18, 171.98 -685.11, 155.94 -685.22 C139.9 -685.34, 112.19 -685.29, 93.03 -685.27 C73.88 -685.24, 53.62 -685.1, 41 -685.08 C28.39 -685.07, 22.91 -685.53, 17.37 -685.2 C11.83 -684.86, 10.18 -685.18, 7.75 -683.07 C5.33 -680.96, 3.77 -682.47, 2.85 -672.52 C1.92 -662.58, 2.36 -675.61, 2.18 -623.4 C2 -571.2, 1.89 -431.25, 1.77 -359.29 C1.65 -287.34, 1.19 -251.28, 1.48 -191.68 C1.77 -132.08, 3.18 -33.36, 3.52 -1.69" stroke="none" stroke-width="0" fill="#e1e1e1" fill-rule="evenodd"></path><path d="M0 0 C11.56 0, 45.62 0, 69.36 0 C93.1 0, 123.7 0, 142.45 0 C161.2 0, 171.99 0, 181.86 0 C191.74 0, 197.94 1.75, 201.7 0 C205.46 -1.75, 203.97 7.1, 204.43 -10.51 C204.88 -28.12, 204.43 -72.41, 204.43 -105.68 C204.43 -138.96, 204.43 -149.07, 204.43 -210.17 C204.43 -271.27, 204.43 -405.58, 204.43 -472.29 C204.43 -539, 204.43 -579.53, 204.43 -610.41 C204.43 -641.28, 204.43 -647.03, 204.43 -657.55 C204.43 -668.06, 204.95 -669.49, 204.43 -673.5 C203.91 -677.51, 203.83 -679.76, 201.3 -681.61 C198.78 -683.45, 196.83 -683.97, 189.27 -684.57 C181.71 -685.18, 171.98 -685.11, 155.94 -685.22 C139.9 -685.34, 112.19 -685.29, 93.03 -685.27 C73.88 -685.24, 53.62 -685.1, 41 -685.08 C28.39 -685.07, 22.91 -685.53, 17.37 -685.2 C11.83 -684.86, 10.18 -685.18, 7.75 -683.07 C5.33 -680.96, 3.77 -682.47, 2.85 -672.52 C1.92 -662.58, 2.36 -675.61, 2.18 -623.4 C2 -571.2, 1.89 -431.25, 1.77 -359.29 C1.65 -287.34, 1.19 -251.28, 1.48 -191.68 C1.77 -132.08, 3.18 -33.36, 3.52 -1.69 M0 0 C11.56 0, 45.62 0, 69.36 0 C93.1 0, 123.7 0, 142.45 0 C161.2 0, 171.99 0, 181.86 0 C191.74 0, 197.94 1.75, 201.7 0 C205.46 -1.75, 203.97 7.1, 204.43 -10.51 C204.88 -28.12, 204.43 -72.41, 204.43 -105.68 C204.43 -138.96, 204.43 -149.07, 204.43 -210.17 C204.43 -271.27, 204.43 -405.58, 204.43 -472.29 C204.43 -539, 204.43 -579.53, 204.43 -610.41 C204.43 -641.28, 204.43 -647.03, 204.43 -657.55 C204.43 -668.06, 204.95 -669.49, 204.43 -673.5 C203.91 -677.51, 203.83 -679.76, 201.3 -681.61 C198.78 -683.45, 196.83 -683.97, 189.27 -684.57 C181.71 -685.18, 171.98 -685.11, 155.94 -685.22 C139.9 -685.34, 112.19 -685.29, 93.03 -685.27 C73.88 -685.24, 53.62 -685.1, 41 -685.08 C28.39 -685.07, 22.91 -685.53, 17.37 -685.2 C11.83 -684.86, 10.18 -685.18, 7.75 -683.07 C5.33 -680.96, 3.77 -682.47, 2.85 -672.52 C1.92 -662.58, 2.36 -675.61, 2.18 -623.4 C2 -571.2, 1.89 -431.25, 1.77 -359.29 C1.65 -287.34, 1.19 -251.28, 1.48 -191.68 C1.77 -132.08, 3.18 -33.36, 3.52 -1.69" stroke="#E1E1E1" stroke-width="4" fill="none"></path></g></g><mask></mask><g stroke-linecap="round"><g transform="translate(3449.7349885951344 11.496934369812152) rotate(0 68.73590757714146 90.6150386284362)" fill-rule="evenodd"><path d="M0 0 C33.68 0, 157.74 0, 202.08 0 C246.41 0, 246.75 0, 266 0 C285.25 0, 301.1 0, 317.59 0 C334.08 0, 354.12 -0.17, 364.93 0 C375.74 0.17, 378.34 -0.41, 382.45 1.02 C386.55 2.45, 388.15 2.94, 389.55 8.58 C390.95 14.23, 390.62 17.28, 390.84 34.91 C391.06 52.55, 390.84 93.58, 390.84 114.41 C390.84 135.23, 391.01 149.68, 390.84 159.84 C390.67 170, 391.23 171.81, 389.82 175.38 C388.4 178.94, 387.17 180.25, 382.37 181.23 C377.56 182.21, 388.22 181.23, 361 181.23 C333.78 181.23, 283.89 181.23, 219.03 181.23 C154.16 181.23, 35.95 181.23, -28.19 181.23 C-92.34 181.23, -133.91 181.23, -165.84 181.23 C-197.77 181.23, -207.13 181.23, -219.76 181.23 C-232.38 181.23, -236.31 182.09, -241.59 181.23 C-246.88 180.37, -249.51 179.15, -251.47 176.06 C-253.43 172.97, -253.05 175.89, -253.37 162.72 C-253.68 149.55, -253.37 117.13, -253.37 97.04 C-253.37 76.95, -253.37 56.09, -253.37 42.18 C-253.37 28.26, -254.33 19.98, -253.37 13.57 C-252.41 7.15, -250.44 5.76, -247.62 3.67 C-244.79 1.58, -242.29 1.45, -236.43 1.01 C-230.57 0.57, -230.36 1.01, -212.45 1.01 C-194.55 1.01, -155.53 1.01, -129.02 1.01 C-102.5 1.01, -74.86 1.18, -53.35 1.01 C-31.85 0.84, -8.89 0.17, 0 0" stroke="none" stroke-width="0" fill="#e1e1e1" fill-rule="evenodd"></path><path d="M0 0 C33.68 0, 157.74 0, 202.08 0 C246.41 0, 246.75 0, 266 0 C285.25 0, 301.1 0, 317.59 0 C334.08 0, 354.12 -0.17, 364.93 0 C375.74 0.17, 378.34 -0.41, 382.45 1.02 C386.55 2.45, 388.15 2.94, 389.55 8.58 C390.95 14.23, 390.62 17.28, 390.84 34.91 C391.06 52.55, 390.84 93.58, 390.84 114.41 C390.84 135.23, 391.01 149.68, 390.84 159.84 C390.67 170, 391.23 171.81, 389.82 175.38 C388.4 178.94, 387.17 180.25, 382.37 181.23 C377.56 182.21, 388.22 181.23, 361 181.23 C333.78 181.23, 283.89 181.23, 219.03 181.23 C154.16 181.23, 35.95 181.23, -28.19 181.23 C-92.34 181.23, -133.91 181.23, -165.84 181.23 C-197.77 181.23, -207.13 181.23, -219.76 181.23 C-232.38 181.23, -236.31 182.09, -241.59 181.23 C-246.88 180.37, -249.51 179.15, -251.47 176.06 C-253.43 172.97, -253.05 175.89, -253.37 162.72 C-253.68 149.55, -253.37 117.13, -253.37 97.04 C-253.37 76.95, -253.37 56.09, -253.37 42.18 C-253.37 28.26, -254.33 19.98, -253.37 13.57 C-252.41 7.15, -250.44 5.76, -247.62 3.67 C-244.79 1.58, -242.29 1.45, -236.43 1.01 C-230.57 0.57, -230.36 1.01, -212.45 1.01 C-194.55 1.01, -155.53 1.01, -129.02 1.01 C-102.5 1.01, -74.86 1.18, -53.35 1.01 C-31.85 0.84, -8.89 0.17, 0 0 M0 0 C33.68 0, 157.74 0, 202.08 0 C246.41 0, 246.75 0, 266 0 C285.25 0, 301.1 0, 317.59 0 C334.08 0, 354.12 -0.17, 364.93 0 C375.74 0.17, 378.34 -0.41, 382.45 1.02 C386.55 2.45, 388.15 2.94, 389.55 8.58 C390.95 14.23, 390.62 17.28, 390.84 34.91 C391.06 52.55, 390.84 93.58, 390.84 114.41 C390.84 135.23, 391.01 149.68, 390.84 159.84 C390.67 170, 391.23 171.81, 389.82 175.38 C388.4 178.94, 387.17 180.25, 382.37 181.23 C377.56 182.21, 388.22 181.23, 361 181.23 C333.78 181.23, 283.89 181.23, 219.03 181.23 C154.16 181.23, 35.95 181.23, -28.19 181.23 C-92.34 181.23, -133.91 181.23, -165.84 181.23 C-197.77 181.23, -207.13 181.23, -219.76 181.23 C-232.38 181.23, -236.31 182.09, -241.59 181.23 C-246.88 180.37, -249.51 179.15, -251.47 176.06 C-253.43 172.97, -253.05 175.89, -253.37 162.72 C-253.68 149.55, -253.37 117.13, -253.37 97.04 C-253.37 76.95, -253.37 56.09, -253.37 42.18 C-253.37 28.26, -254.33 19.98, -253.37 13.57 C-252.41 7.15, -250.44 5.76, -247.62 3.67 C-244.79 1.58, -242.29 1.45, -236.43 1.01 C-230.57 0.57, -230.36 1.01, -212.45 1.01 C-194.55 1.01, -155.53 1.01, -129.02 1.01 C-102.5 1.01, -74.86 1.18, -53.35 1.01 C-31.85 0.84, -8.89 0.17, 0 0" stroke="#E1E1E1" stroke-width="4" fill="none"></path></g></g><mask></mask><g stroke-linecap="round"><g transform="translate(2564.730839053542 890.4155367034091) rotate(0 297.7956792407613 99.16275680647959)" fill-rule="evenodd"><path d="M0 0 C42.82 0, 180.43 0, 256.9 0 C333.36 0, 414.72 0, 458.8 0 C502.87 0, 503.87 0, 521.36 0 C538.86 0, 553.3 -0.13, 563.77 0 C574.23 0.13, 579.06 -0.83, 584.16 0.75 C589.26 2.34, 592.33 4.31, 594.36 9.5 C596.39 14.68, 595.99 12.62, 596.32 31.89 C596.64 51.16, 596.32 101.81, 596.32 125.12 C596.32 148.43, 596.35 161.43, 596.32 171.76 C596.29 182.08, 597.26 183.05, 596.12 187.06 C594.99 191.07, 592.73 193.93, 589.5 195.81 C586.28 197.68, 587.44 197.91, 576.77 198.33 C566.1 198.75, 571.44 198.33, 525.46 198.33 C479.47 198.33, 364.55 198.33, 300.87 198.33 C237.18 198.33, 182.09 198.33, 143.33 198.33 C104.57 198.33, 89.11 198.33, 68.3 198.33 C47.5 198.33, 29.42 199.06, 18.52 198.33 C7.61 197.59, 6.09 197.42, 2.89 193.9 C-0.32 190.37, -0.12 190.5, -0.73 177.17 C-1.33 163.85, -0.85 143.46, -0.73 113.93 C-0.61 84.4, -0.12 18.99, 0 0" stroke="none" stroke-width="0" fill="#e1e1e1" fill-rule="evenodd"></path><path d="M0 0 C42.82 0, 180.43 0, 256.9 0 C333.36 0, 414.72 0, 458.8 0 C502.87 0, 503.87 0, 521.36 0 C538.86 0, 553.3 -0.13, 563.77 0 C574.23 0.13, 579.06 -0.83, 584.16 0.75 C589.26 2.34, 592.33 4.31, 594.36 9.5 C596.39 14.68, 595.99 12.62, 596.32 31.89 C596.64 51.16, 596.32 101.81, 596.32 125.12 C596.32 148.43, 596.35 161.43, 596.32 171.76 C596.29 182.08, 597.26 183.05, 596.12 187.06 C594.99 191.07, 592.73 193.93, 589.5 195.81 C586.28 197.68, 587.44 197.91, 576.77 198.33 C566.1 198.75, 571.44 198.33, 525.46 198.33 C479.47 198.33, 364.55 198.33, 300.87 198.33 C237.18 198.33, 182.09 198.33, 143.33 198.33 C104.57 198.33, 89.11 198.33, 68.3 198.33 C47.5 198.33, 29.42 199.06, 18.52 198.33 C7.61 197.59, 6.09 197.42, 2.89 193.9 C-0.32 190.37, -0.12 190.5, -0.73 177.17 C-1.33 163.85, -0.85 143.46, -0.73 113.93 C-0.61 84.4, -0.12 18.99, 0 0 M0 0 C42.82 0, 180.43 0, 256.9 0 C333.36 0, 414.72 0, 458.8 0 C502.87 0, 503.87 0, 521.36 0 C538.86 0, 553.3 -0.13, 563.77 0 C574.23 0.13, 579.06 -0.83, 584.16 0.75 C589.26 2.34, 592.33 4.31, 594.36 9.5 C596.39 14.68, 595.99 12.62, 596.32 31.89 C596.64 51.16, 596.32 101.81, 596.32 125.12 C596.32 148.43, 596.35 161.43, 596.32 171.76 C596.29 182.08, 597.26 183.05, 596.12 187.06 C594.99 191.07, 592.73 193.93, 589.5 195.81 C586.28 197.68, 587.44 197.91, 576.77 198.33 C566.1 198.75, 571.44 198.33, 525.46 198.33 C479.47 198.33, 364.55 198.33, 300.87 198.33 C237.18 198.33, 182.09 198.33, 143.33 198.33 C104.57 198.33, 89.11 198.33, 68.3 198.33 C47.5 198.33, 29.42 199.06, 18.52 198.33 C7.61 197.59, 6.09 197.42, 2.89 193.9 C-0.32 190.37, -0.12 190.5, -0.73 177.17 C-1.33 163.85, -0.85 143.46, -0.73 113.93 C-0.61 84.4, -0.12 18.99, 0 0" stroke="#E1E1E1" stroke-width="4" fill="none"></path></g></g><mask></mask><g stroke-linecap="round"><g transform="translate(1914.549113849912 208.70914735861152) rotate(0 203.51533463950773 341.77648439943914)" fill-rule="evenodd"><path d="M0 0 C0 33.74, 0 141.37, 0 202.45 C0 263.53, 0 322.32, 0 366.46 C0 410.6, -0.07 441.73, 0 467.31 C0.07 492.89, -1.11 504.24, 0.44 519.95 C1.99 535.66, 4.13 547.26, 9.3 561.56 C14.47 575.87, 21.42 592.05, 31.46 605.79 C41.51 619.53, 55.15 633.42, 69.56 644 C83.97 654.58, 101.67 662.62, 117.91 669.27 C134.15 675.92, 149.14 681.16, 167.01 683.9 C184.88 686.63, 208.09 686.47, 225.16 685.66 C242.22 684.85, 253.76 683.22, 269.39 679.03 C285.03 674.83, 303.52 668.92, 318.98 660.47 C334.43 652.03, 350.89 638.77, 362.11 628.36 C373.33 617.96, 379.53 610.9, 386.28 598.06 C393.04 585.22, 399.18 570.59, 402.63 551.32 C406.09 532.05, 406.26 518.43, 406.99 482.43 C407.71 446.43, 406.99 394.03, 406.99 335.31 C406.99 276.59, 406.99 198.7, 406.99 130.12 C406.99 61.55, 406.99 -29.01, 406.99 -76.13 C406.99 -123.26, 406.97 -134.43, 406.99 -152.61 C407.01 -170.79, 405.94 -178.23, 407.11 -185.2 C408.28 -192.16, 410.39 -192.56, 414 -194.4 C417.61 -196.24, 417.27 -195.93, 428.76 -196.24 C440.25 -196.54, 465.09 -196.24, 482.92 -196.24 C500.76 -196.24, 521.58 -196.24, 535.78 -196.24 C549.98 -196.24, 558.47 -196.24, 568.13 -196.24 C577.8 -196.24, 587.76 -197.49, 593.77 -196.24 C599.77 -194.99, 602.04 -193.48, 604.16 -188.75 C606.28 -184.01, 606.09 -188.14, 606.48 -167.84 C606.87 -147.53, 606.48 -143.56, 606.48 -66.92 C606.48 9.72, 606.48 211.08, 606.48 292.01 C606.48 372.95, 606.48 381.05, 606.48 418.69 C606.48 456.34, 606.92 493.05, 606.48 517.91 C606.04 542.76, 606.18 550.08, 603.85 567.83 C601.53 585.58, 598.6 604.5, 592.53 624.43 C586.46 644.35, 576.78 668.3, 567.43 687.4 C558.08 706.51, 551.04 721.21, 536.45 739.06 C521.85 756.91, 499.56 778.63, 479.88 794.51 C460.2 810.38, 442.16 822.64, 418.37 834.31 C394.58 845.98, 366.96 857.06, 337.15 864.53 C307.34 871.99, 267.58 876.57, 239.51 879.11 C211.43 881.65, 195.48 881.88, 168.69 879.79 C141.89 877.7, 105.58 873.05, 78.74 866.58 C51.91 860.1, 30.88 851.44, 7.68 840.91 C-15.52 830.39, -40.63 817.48, -60.47 803.45 C-80.32 789.42, -96.42 772.97, -111.37 756.75 C-126.33 740.53, -138.93 724.59, -150.2 706.12 C-161.48 687.64, -171.41 668.74, -179.02 645.88 C-186.62 623.03, -192.41 598.46, -195.82 568.99 C-199.22 539.53, -198.85 518.52, -199.45 469.08 C-200.06 419.65, -199.45 339.01, -199.45 272.38 C-199.45 205.75, -199.45 110.16, -199.45 69.32 C-199.45 28.49, -199.45 38.21, -199.45 27.36 C-199.45 16.52, -200.62 8.77, -199.45 4.24 C-198.28 -0.28, -201.58 0.89, -192.44 0.22 C-183.29 -0.44, -176.66 0.26, -144.59 0.22 C-112.51 0.19, -24.1 0.04, 0 0" stroke="none" stroke-width="0" fill="#e1e1e1" fill-rule="evenodd"></path><path d="M0 0 C0 33.74, 0 141.37, 0 202.45 C0 263.53, 0 322.32, 0 366.46 C0 410.6, -0.07 441.73, 0 467.31 C0.07 492.89, -1.11 504.24, 0.44 519.95 C1.99 535.66, 4.13 547.26, 9.3 561.56 C14.47 575.87, 21.42 592.05, 31.46 605.79 C41.51 619.53, 55.15 633.42, 69.56 644 C83.97 654.58, 101.67 662.62, 117.91 669.27 C134.15 675.92, 149.14 681.16, 167.01 683.9 C184.88 686.63, 208.09 686.47, 225.16 685.66 C242.22 684.85, 253.76 683.22, 269.39 679.03 C285.03 674.83, 303.52 668.92, 318.98 660.47 C334.43 652.03, 350.89 638.77, 362.11 628.36 C373.33 617.96, 379.53 610.9, 386.28 598.06 C393.04 585.22, 399.18 570.59, 402.63 551.32 C406.09 532.05, 406.26 518.43, 406.99 482.43 C407.71 446.43, 406.99 394.03, 406.99 335.31 C406.99 276.59, 406.99 198.7, 406.99 130.12 C406.99 61.55, 406.99 -29.01, 406.99 -76.13 C406.99 -123.26, 406.97 -134.43, 406.99 -152.61 C407.01 -170.79, 405.94 -178.23, 407.11 -185.2 C408.28 -192.16, 410.39 -192.56, 414 -194.4 C417.61 -196.24, 417.27 -195.93, 428.76 -196.24 C440.25 -196.54, 465.09 -196.24, 482.92 -196.24 C500.76 -196.24, 521.58 -196.24, 535.78 -196.24 C549.98 -196.24, 558.47 -196.24, 568.13 -196.24 C577.8 -196.24, 587.76 -197.49, 593.77 -196.24 C599.77 -194.99, 602.04 -193.48, 604.16 -188.75 C606.28 -184.01, 606.09 -188.14, 606.48 -167.84 C606.87 -147.53, 606.48 -143.56, 606.48 -66.92 C606.48 9.72, 606.48 211.08, 606.48 292.01 C606.48 372.95, 606.48 381.05, 606.48 418.69 C606.48 456.34, 606.92 493.05, 606.48 517.91 C606.04 542.76, 606.18 550.08, 603.85 567.83 C601.53 585.58, 598.6 604.5, 592.53 624.43 C586.46 644.35, 576.78 668.3, 567.43 687.4 C558.08 706.51, 551.04 721.21, 536.45 739.06 C521.85 756.91, 499.56 778.63, 479.88 794.51 C460.2 810.38, 442.16 822.64, 418.37 834.31 C394.58 845.98, 366.96 857.06, 337.15 864.53 C307.34 871.99, 267.58 876.57, 239.51 879.11 C211.43 881.65, 195.48 881.88, 168.69 879.79 C141.89 877.7, 105.58 873.05, 78.74 866.58 C51.91 860.1, 30.88 851.44, 7.68 840.91 C-15.52 830.39, -40.63 817.48, -60.47 803.45 C-80.32 789.42, -96.42 772.97, -111.37 756.75 C-126.33 740.53, -138.93 724.59, -150.2 706.12 C-161.48 687.64, -171.41 668.74, -179.02 645.88 C-186.62 623.03, -192.41 598.46, -195.82 568.99 C-199.22 539.53, -198.85 518.52, -199.45 469.08 C-200.06 419.65, -199.45 339.01, -199.45 272.38 C-199.45 205.75, -199.45 110.16, -199.45 69.32 C-199.45 28.49, -199.45 38.21, -199.45 27.36 C-199.45 16.52, -200.62 8.77, -199.45 4.24 C-198.28 -0.28, -201.58 0.89, -192.44 0.22 C-183.29 -0.44, -176.66 0.26, -144.59 0.22 C-112.51 0.19, -24.1 0.04, 0 0 M0 0 C0 33.74, 0 141.37, 0 202.45 C0 263.53, 0 322.32, 0 366.46 C0 410.6, -0.07 441.73, 0 467.31 C0.07 492.89, -1.11 504.24, 0.44 519.95 C1.99 535.66, 4.13 547.26, 9.3 561.56 C14.47 575.87, 21.42 592.05, 31.46 605.79 C41.51 619.53, 55.15 633.42, 69.56 644 C83.97 654.58, 101.67 662.62, 117.91 669.27 C134.15 675.92, 149.14 681.16, 167.01 683.9 C184.88 686.63, 208.09 686.47, 225.16 685.66 C242.22 684.85, 253.76 683.22, 269.39 679.03 C285.03 674.83, 303.52 668.92, 318.98 660.47 C334.43 652.03, 350.89 638.77, 362.11 628.36 C373.33 617.96, 379.53 610.9, 386.28 598.06 C393.04 585.22, 399.18 570.59, 402.63 551.32 C406.09 532.05, 406.26 518.43, 406.99 482.43 C407.71 446.43, 406.99 394.03, 406.99 335.31 C406.99 276.59, 406.99 198.7, 406.99 130.12 C406.99 61.55, 406.99 -29.01, 406.99 -76.13 C406.99 -123.26, 406.97 -134.43, 406.99 -152.61 C407.01 -170.79, 405.94 -178.23, 407.11 -185.2 C408.28 -192.16, 410.39 -192.56, 414 -194.4 C417.61 -196.24, 417.27 -195.93, 428.76 -196.24 C440.25 -196.54, 465.09 -196.24, 482.92 -196.24 C500.76 -196.24, 521.58 -196.24, 535.78 -196.24 C549.98 -196.24, 558.47 -196.24, 568.13 -196.24 C577.8 -196.24, 587.76 -197.49, 593.77 -196.24 C599.77 -194.99, 602.04 -193.48, 604.16 -188.75 C606.28 -184.01, 606.09 -188.14, 606.48 -167.84 C606.87 -147.53, 606.48 -143.56, 606.48 -66.92 C606.48 9.72, 606.48 211.08, 606.48 292.01 C606.48 372.95, 606.48 381.05, 606.48 418.69 C606.48 456.34, 606.92 493.05, 606.48 517.91 C606.04 542.76, 606.18 550.08, 603.85 567.83 C601.53 585.58, 598.6 604.5, 592.53 624.43 C586.46 644.35, 576.78 668.3, 567.43 687.4 C558.08 706.51, 551.04 721.21, 536.45 739.06 C521.85 756.91, 499.56 778.63, 479.88 794.51 C460.2 810.38, 442.16 822.64, 418.37 834.31 C394.58 845.98, 366.96 857.06, 337.15 864.53 C307.34 871.99, 267.58 876.57, 239.51 879.11 C211.43 881.65, 195.48 881.88, 168.69 879.79 C141.89 877.7, 105.58 873.05, 78.74 866.58 C51.91 860.1, 30.88 851.44, 7.68 840.91 C-15.52 830.39, -40.63 817.48, -60.47 803.45 C-80.32 789.42, -96.42 772.97, -111.37 756.75 C-126.33 740.53, -138.93 724.59, -150.2 706.12 C-161.48 687.64, -171.41 668.74, -179.02 645.88 C-186.62 623.03, -192.41 598.46, -195.82 568.99 C-199.22 539.53, -198.85 518.52, -199.45 469.08 C-200.06 419.65, -199.45 339.01, -199.45 272.38 C-199.45 205.75, -199.45 110.16, -199.45 69.32 C-199.45 28.49, -199.45 38.21, -199.45 27.36 C-199.45 16.52, -200.62 8.77, -199.45 4.24 C-198.28 -0.28, -201.58 0.89, -192.44 0.22 C-183.29 -0.44, -176.66 0.26, -144.59 0.22 C-112.51 0.19, -24.1 0.04, 0 0" stroke="#E1E1E1" stroke-width="4" fill="none"></path></g></g><mask></mask></svg>