<svg version="1.1" xmlns="http://www.w3.org/2000/svg" viewBox="0 0 4364.472154409682 1101.5032161226009" width="4364.472154409682" height="1101.5032161226009" class="excalidraw-svg"><!-- svg-source:excalidraw --><metadata></metadata><defs><style class="style-fonts">
      </style></defs><rect x="0" y="0" width="4364.472154409682" height="1101.5032161226009" fill="#000000"></rect><g stroke-linecap="round"><g transform="translate(1790.8717308278192 480.83278705795965) rotate(0 1.9678959780994774 70.98687942001652)" fill-rule="evenodd"><path d="M0 0 C-30.64 87.36, -149.42 426.64, -183.82 524.18 C-218.22 621.72, -201.65 572.22, -206.4 585.23 C-211.15 598.25, -209.76 598.42, -212.34 602.28 C-214.92 606.14, -217.33 607.21, -221.87 608.37 C-226.42 609.53, -224.85 609.09, -239.6 609.24 C-254.34 609.38, -288.32 609.24, -310.35 609.24 C-332.39 609.24, -356.54 609.24, -371.81 609.24 C-387.09 609.24, -394.85 609.51, -402 609.24 C-409.16 608.96, -411.76 609.33, -414.72 607.57 C-417.68 605.8, -419.35 602.52, -419.76 598.64 C-420.18 594.77, -421.29 596.17, -417.24 584.32 C-413.19 572.46, -410.34 566.08, -395.46 527.52 C-380.57 488.97, -351.5 413.84, -327.9 353 C-304.31 292.15, -282.95 236.97, -253.89 162.45 C-224.84 87.92, -177.5 -32.54, -153.56 -94.14 C-129.63 -155.73, -125.77 -166.23, -110.29 -207.15 C-94.81 -248.08, -74.63 -303.21, -60.66 -339.69 C-46.69 -376.17, -34.44 -405.96, -26.46 -426.02 C-18.48 -446.09, -16.97 -453.07, -12.76 -460.06 C-8.55 -467.05, -4.9 -467.17, -1.18 -467.97 C2.54 -468.77, 6.42 -467.88, 9.55 -464.85 C12.69 -461.82, 13.84 -458.47, 17.62 -449.78 C21.4 -441.09, 21.52 -439.76, 32.25 -412.71 C42.98 -385.67, 62.89 -336.2, 82.03 -287.51 C101.16 -238.82, 124.72 -178.13, 147.08 -120.57 C169.44 -63, 193.85 0.3, 216.19 57.88 C238.52 115.45, 258.95 167.87, 281.09 224.87 C303.23 281.86, 327.34 343.69, 349.04 399.85 C370.73 456.01, 398.82 530.16, 411.26 561.8 C423.71 593.45, 421.73 582.95, 423.7 589.7 C425.67 596.45, 424.65 599.45, 423.06 602.32 C421.46 605.19, 418.85 605.87, 414.12 606.91 C409.39 607.95, 408.21 608.27, 394.69 608.54 C381.17 608.81, 352.14 608.54, 333 608.54 C313.87 608.54, 294.44 608.54, 279.88 608.54 C265.31 608.54, 254.19 608.31, 245.61 608.54 C237.03 608.77, 232.85 610.49, 228.4 609.95 C223.95 609.41, 221.95 608.99, 218.91 605.3 C215.86 601.61, 214.19 597.84, 210.11 587.79 C206.03 577.75, 204.92 573.89, 194.43 545.04 C183.95 516.18, 165.88 467.3, 147.2 414.66 C128.52 362.03, 106.89 298.35, 82.35 229.24 C57.82 160.13, 13.73 38.21, 0 0" stroke="none" stroke-width="0" fill="#e1e1e1" fill-rule="evenodd"></path><path d="M0 0 C-30.64 87.36, -149.42 426.64, -183.82 524.18 C-218.22 621.72, -201.65 572.22, -206.4 585.23 C-211.15 598.25, -209.76 598.42, -212.34 602.28 C-214.92 606.14, -217.33 607.21, -221.87 608.37 C-226.42 609.53, -224.85 609.09, -239.6 609.24 C-254.34 609.38, -288.32 609.24, -310.35 609.24 C-332.39 609.24, -356.54 609.24, -371.81 609.24 C-387.09 609.24, -394.85 609.51, -402 609.24 C-409.16 608.96, -411.76 609.33, -414.72 607.57 C-417.68 605.8, -419.35 602.52, -419.76 598.64 C-420.18 594.77, -421.29 596.17, -417.24 584.32 C-413.19 572.46, -410.34 566.08, -395.46 527.52 C-380.57 488.97, -351.5 413.84, -327.9 353 C-304.31 292.15, -282.95 236.97, -253.89 162.45 C-224.84 87.92, -177.5 -32.54, -153.56 -94.14 C-129.63 -155.73, -125.77 -166.23, -110.29 -207.15 C-94.81 -248.08, -74.63 -303.21, -60.66 -339.69 C-46.69 -376.17, -34.44 -405.96, -26.46 -426.02 C-18.48 -446.09, -16.97 -453.07, -12.76 -460.06 C-8.55 -467.05, -4.9 -467.17, -1.18 -467.97 C2.54 -468.77, 6.42 -467.88, 9.55 -464.85 C12.69 -461.82, 13.84 -458.47, 17.62 -449.78 C21.4 -441.09, 21.52 -439.76, 32.25 -412.71 C42.98 -385.67, 62.89 -336.2, 82.03 -287.51 C101.16 -238.82, 124.72 -178.13, 147.08 -120.57 C169.44 -63, 193.85 0.3, 216.19 57.88 C238.52 115.45, 258.95 167.87, 281.09 224.87 C303.23 281.86, 327.34 343.69, 349.04 399.85 C370.73 456.01, 398.82 530.16, 411.26 561.8 C423.71 593.45, 421.73 582.95, 423.7 589.7 C425.67 596.45, 424.65 599.45, 423.06 602.32 C421.46 605.19, 418.85 605.87, 414.12 606.91 C409.39 607.95, 408.21 608.27, 394.69 608.54 C381.17 608.81, 352.14 608.54, 333 608.54 C313.87 608.54, 294.44 608.54, 279.88 608.54 C265.31 608.54, 254.19 608.31, 245.61 608.54 C237.03 608.77, 232.85 610.49, 228.4 609.95 C223.95 609.41, 221.95 608.99, 218.91 605.3 C215.86 601.61, 214.19 597.84, 210.11 587.79 C206.03 577.75, 204.92 573.89, 194.43 545.04 C183.95 516.18, 165.88 467.3, 147.2 414.66 C128.52 362.03, 106.89 298.35, 82.35 229.24 C57.82 160.13, 13.73 38.21, 0 0 M0 0 C-30.64 87.36, -149.42 426.64, -183.82 524.18 C-218.22 621.72, -201.65 572.22, -206.4 585.23 C-211.15 598.25, -209.76 598.42, -212.34 602.28 C-214.92 606.14, -217.33 607.21, -221.87 608.37 C-226.42 609.53, -224.85 609.09, -239.6 609.24 C-254.34 609.38, -288.32 609.24, -310.35 609.24 C-332.39 609.24, -356.54 609.24, -371.81 609.24 C-387.09 609.24, -394.85 609.51, -402 609.24 C-409.16 608.96, -411.76 609.33, -414.72 607.57 C-417.68 605.8, -419.35 602.52, -419.76 598.64 C-420.18 594.77, -421.29 596.17, -417.24 584.32 C-413.19 572.46, -410.34 566.08, -395.46 527.52 C-380.57 488.97, -351.5 413.84, -327.9 353 C-304.31 292.15, -282.95 236.97, -253.89 162.45 C-224.84 87.92, -177.5 -32.54, -153.56 -94.14 C-129.63 -155.73, -125.77 -166.23, -110.29 -207.15 C-94.81 -248.08, -74.63 -303.21, -60.66 -339.69 C-46.69 -376.17, -34.44 -405.96, -26.46 -426.02 C-18.48 -446.09, -16.97 -453.07, -12.76 -460.06 C-8.55 -467.05, -4.9 -467.17, -1.18 -467.97 C2.54 -468.77, 6.42 -467.88, 9.55 -464.85 C12.69 -461.82, 13.84 -458.47, 17.62 -449.78 C21.4 -441.09, 21.52 -439.76, 32.25 -412.71 C42.98 -385.67, 62.89 -336.2, 82.03 -287.51 C101.16 -238.82, 124.72 -178.13, 147.08 -120.57 C169.44 -63, 193.85 0.3, 216.19 57.88 C238.52 115.45, 258.95 167.87, 281.09 224.87 C303.23 281.86, 327.34 343.69, 349.04 399.85 C370.73 456.01, 398.82 530.16, 411.26 561.8 C423.71 593.45, 421.73 582.95, 423.7 589.7 C425.67 596.45, 424.65 599.45, 423.06 602.32 C421.46 605.19, 418.85 605.87, 414.12 606.91 C409.39 607.95, 408.21 608.27, 394.69 608.54 C381.17 608.81, 352.14 608.54, 333 608.54 C313.87 608.54, 294.44 608.54, 279.88 608.54 C265.31 608.54, 254.19 608.31, 245.61 608.54 C237.03 608.77, 232.85 610.49, 228.4 609.95 C223.95 609.41, 221.95 608.99, 218.91 605.3 C215.86 601.61, 214.19 597.84, 210.11 587.79 C206.03 577.75, 204.92 573.89, 194.43 545.04 C183.95 516.18, 165.88 467.3, 147.2 414.66 C128.52 362.03, 106.89 298.35, 82.35 229.24 C57.82 160.13, 13.73 38.21, 0 0" stroke="#E1E1E1" stroke-width="4" fill="none"></path></g></g><mask></mask><g stroke-linecap="round"><g transform="translate(2574.172828969522 899.1329654262299) rotate(0 0 96.11145195091285)"><path d="M0 0 C0 32.04, 0 160.19, 0 192.22 M0 0 C0 32.04, 0 160.19, 0 192.22" stroke="#E1E1E1" stroke-width="4" fill="none"></path></g></g><mask></mask><g stroke-linecap="round"><g transform="translate(2574.3148755196617 1091.5032161226009) rotate(0 -1.982291408652145 -539.1482815401159)" fill-rule="evenodd"><path d="M0 0 C5.78 -0.15, 21.64 0.35, 34.68 -0.9 C47.71 -2.15, 63.57 -4.44, 78.23 -7.5 C92.9 -10.56, 105.81 -13.15, 122.66 -19.28 C139.52 -25.4, 162.94 -35.24, 179.37 -44.27 C195.79 -53.3, 208.12 -62.71, 221.21 -73.46 C234.3 -84.22, 246.4 -95.89, 257.92 -108.8 C269.43 -121.71, 280.53 -134.8, 290.3 -150.91 C300.07 -167.02, 309.98 -186.84, 316.54 -205.44 C323.11 -224.04, 327.01 -241.35, 329.69 -262.53 C332.37 -283.71, 333.65 -310.21, 332.63 -332.52 C331.62 -354.82, 328.51 -375.95, 323.58 -396.38 C318.66 -416.8, 310.71 -437.78, 303.11 -455.04 C295.5 -472.31, 288.02 -485.74, 277.94 -499.96 C267.85 -514.18, 256.89 -527.1, 242.58 -540.37 C228.26 -553.64, 210.59 -568.05, 192.04 -579.58 C173.5 -591.11, 151.77 -601.36, 131.31 -609.55 C110.86 -617.74, 87.6 -624.7, 69.33 -628.73 C51.06 -632.75, 35.92 -632.57, 21.71 -633.72 C7.51 -634.87, -3.66 -634.18, -15.89 -635.61 C-28.11 -637.04, -40.84 -638.98, -51.64 -642.32 C-62.45 -645.66, -71.22 -649.67, -80.72 -655.66 C-90.21 -661.65, -101.12 -669.86, -108.6 -678.26 C-116.09 -686.65, -121.16 -695.39, -125.62 -706.02 C-130.09 -716.64, -134.03 -729.18, -135.39 -742 C-136.74 -754.81, -136.7 -768.85, -133.75 -782.9 C-130.79 -796.94, -124.76 -813.98, -117.64 -826.27 C-110.53 -838.55, -101.39 -847.94, -91.05 -856.6 C-80.71 -865.26, -67.87 -873.21, -55.61 -878.23 C-43.34 -883.24, -31.03 -885.49, -17.48 -886.69 C-3.93 -887.88, 11.76 -887.53, 25.68 -885.39 C39.6 -883.26, 53.81 -879.71, 66.05 -873.87 C78.3 -868.03, 90.38 -858.47, 99.13 -850.35 C107.88 -842.23, 113.5 -834.3, 118.54 -825.16 C123.59 -816.02, 127.01 -804.55, 129.39 -795.49 C131.78 -786.43, 131.25 -775.96, 132.87 -770.8 C134.5 -765.65, 135.77 -766.08, 139.13 -764.56 C142.48 -763.05, 148.5 -762.19, 153 -761.72 C157.49 -761.24, 143.35 -761.72, 166.12 -761.72 C188.88 -761.72, 265.59 -761.72, 289.6 -761.72 C313.62 -761.72, 305.58 -761.72, 310.2 -761.72 C314.82 -761.72, 314.73 -761.08, 317.31 -761.72 C319.89 -762.35, 323.85 -764.32, 325.68 -765.5 C327.51 -766.67, 327.82 -766.52, 328.29 -768.76 C328.76 -770.99, 328.81 -771.36, 328.5 -778.89 C328.18 -786.43, 328.33 -800.67, 326.4 -813.95 C324.48 -827.23, 321.89 -842.37, 316.93 -858.56 C311.97 -874.74, 306.3 -892.94, 296.65 -911.07 C287 -929.21, 273.94 -949.88, 259.02 -967.35 C244.1 -984.82, 224.75 -1002.66, 207.13 -1015.87 C189.5 -1029.09, 172.99 -1037.65, 153.26 -1046.62 C133.54 -1055.59, 110.02 -1064.4, 88.77 -1069.68 C67.53 -1074.96, 46.88 -1076.91, 25.82 -1078.3 C4.77 -1079.68, -16.48 -1079.99, -37.54 -1078.01 C-58.6 -1076.03, -77.9 -1073.34, -100.53 -1066.42 C-123.16 -1059.5, -152.52 -1047.34, -173.32 -1036.48 C-194.13 -1025.61, -208.99 -1015.2, -225.36 -1001.23 C-241.72 -987.25, -258.41 -969.63, -271.5 -952.61 C-284.6 -935.58, -294.75 -917.92, -303.91 -899.08 C-313.08 -880.23, -321.04 -860.37, -326.49 -839.53 C-331.94 -818.7, -335.38 -795.91, -336.6 -774.06 C-337.81 -752.2, -336.3 -727.96, -333.78 -708.4 C-331.26 -688.83, -326.72 -672.72, -321.49 -656.64 C-316.27 -640.56, -310.74 -627.09, -302.42 -611.93 C-294.1 -596.77, -283.85 -580.43, -271.58 -565.67 C-259.31 -550.92, -243.58 -535.32, -228.78 -523.42 C-213.99 -511.53, -200 -503.39, -182.81 -494.31 C-165.62 -485.22, -144.56 -475.75, -125.66 -468.89 C-106.76 -462.03, -87.12 -456.69, -69.41 -453.13 C-51.71 -449.57, -35.3 -449.16, -19.43 -447.51 C-3.56 -445.85, 13.1 -445.86, 25.79 -443.19 C38.48 -440.51, 45.6 -437.38, 56.7 -431.46 C67.8 -425.54, 82.46 -416.54, 92.41 -407.67 C102.36 -398.8, 109.97 -388.22, 116.41 -378.22 C122.85 -368.22, 128.16 -358.85, 131.05 -347.67 C133.95 -336.49, 134.42 -323.16, 133.79 -311.14 C133.16 -299.13, 131.75 -287.14, 127.29 -275.58 C122.83 -264.02, 115.1 -251.63, 107.05 -241.79 C98.99 -231.96, 89.27 -223.72, 78.98 -216.58 C68.69 -209.43, 55.15 -202.54, 45.3 -198.94 C35.45 -195.34, 27.13 -195.79, 19.89 -194.98 C12.65 -194.17, 5.12 -195.19, 1.84 -194.07 C-1.44 -192.94, 0.37 -192.97, 0.22 -188.23 C0.06 -183.5, 0.92 -182.75, 0.9 -165.64 C0.88 -148.53, 0.26 -113.17, 0.11 -85.57 C-0.04 -57.96, 0.02 -14.26, 0 0" stroke="none" stroke-width="0" fill="#e1e1e1" fill-rule="evenodd"></path><path d="M0 0 C5.78 -0.15, 21.64 0.35, 34.68 -0.9 C47.71 -2.15, 63.57 -4.44, 78.23 -7.5 C92.9 -10.56, 105.81 -13.15, 122.66 -19.28 C139.52 -25.4, 162.94 -35.24, 179.37 -44.27 C195.79 -53.3, 208.12 -62.71, 221.21 -73.46 C234.3 -84.22, 246.4 -95.89, 257.92 -108.8 C269.43 -121.71, 280.53 -134.8, 290.3 -150.91 C300.07 -167.02, 309.98 -186.84, 316.54 -205.44 C323.11 -224.04, 327.01 -241.35, 329.69 -262.53 C332.37 -283.71, 333.65 -310.21, 332.63 -332.52 C331.62 -354.82, 328.51 -375.95, 323.58 -396.38 C318.66 -416.8, 310.71 -437.78, 303.11 -455.04 C295.5 -472.31, 288.02 -485.74, 277.94 -499.96 C267.85 -514.18, 256.89 -527.1, 242.58 -540.37 C228.26 -553.64, 210.59 -568.05, 192.04 -579.58 C173.5 -591.11, 151.77 -601.36, 131.31 -609.55 C110.86 -617.74, 87.6 -624.7, 69.33 -628.73 C51.06 -632.75, 35.92 -632.57, 21.71 -633.72 C7.51 -634.87, -3.66 -634.18, -15.89 -635.61 C-28.11 -637.04, -40.84 -638.98, -51.64 -642.32 C-62.45 -645.66, -71.22 -649.67, -80.72 -655.66 C-90.21 -661.65, -101.12 -669.86, -108.6 -678.26 C-116.09 -686.65, -121.16 -695.39, -125.62 -706.02 C-130.09 -716.64, -134.03 -729.18, -135.39 -742 C-136.74 -754.81, -136.7 -768.85, -133.75 -782.9 C-130.79 -796.94, -124.76 -813.98, -117.64 -826.27 C-110.53 -838.55, -101.39 -847.94, -91.05 -856.6 C-80.71 -865.26, -67.87 -873.21, -55.61 -878.23 C-43.34 -883.24, -31.03 -885.49, -17.48 -886.69 C-3.93 -887.88, 11.76 -887.53, 25.68 -885.39 C39.6 -883.26, 53.81 -879.71, 66.05 -873.87 C78.3 -868.03, 90.38 -858.47, 99.13 -850.35 C107.88 -842.23, 113.5 -834.3, 118.54 -825.16 C123.59 -816.02, 127.01 -804.55, 129.39 -795.49 C131.78 -786.43, 131.25 -775.96, 132.87 -770.8 C134.5 -765.65, 135.77 -766.08, 139.13 -764.56 C142.48 -763.05, 148.5 -762.19, 153 -761.72 C157.49 -761.24, 143.35 -761.72, 166.12 -761.72 C188.88 -761.72, 265.59 -761.72, 289.6 -761.72 C313.62 -761.72, 305.58 -761.72, 310.2 -761.72 C314.82 -761.72, 314.73 -761.08, 317.31 -761.72 C319.89 -762.35, 323.85 -764.32, 325.68 -765.5 C327.51 -766.67, 327.82 -766.52, 328.29 -768.76 C328.76 -770.99, 328.81 -771.36, 328.5 -778.89 C328.18 -786.43, 328.33 -800.67, 326.4 -813.95 C324.48 -827.23, 321.89 -842.37, 316.93 -858.56 C311.97 -874.74, 306.3 -892.94, 296.65 -911.07 C287 -929.21, 273.94 -949.88, 259.02 -967.35 C244.1 -984.82, 224.75 -1002.66, 207.13 -1015.87 C189.5 -1029.09, 172.99 -1037.65, 153.26 -1046.62 C133.54 -1055.59, 110.02 -1064.4, 88.77 -1069.68 C67.53 -1074.96, 46.88 -1076.91, 25.82 -1078.3 C4.77 -1079.68, -16.48 -1079.99, -37.54 -1078.01 C-58.6 -1076.03, -77.9 -1073.34, -100.53 -1066.42 C-123.16 -1059.5, -152.52 -1047.34, -173.32 -1036.48 C-194.13 -1025.61, -208.99 -1015.2, -225.36 -1001.23 C-241.72 -987.25, -258.41 -969.63, -271.5 -952.61 C-284.6 -935.58, -294.75 -917.92, -303.91 -899.08 C-313.08 -880.23, -321.04 -860.37, -326.49 -839.53 C-331.94 -818.7, -335.38 -795.91, -336.6 -774.06 C-337.81 -752.2, -336.3 -727.96, -333.78 -708.4 C-331.26 -688.83, -326.72 -672.72, -321.49 -656.64 C-316.27 -640.56, -310.74 -627.09, -302.42 -611.93 C-294.1 -596.77, -283.85 -580.43, -271.58 -565.67 C-259.31 -550.92, -243.58 -535.32, -228.78 -523.42 C-213.99 -511.53, -200 -503.39, -182.81 -494.31 C-165.62 -485.22, -144.56 -475.75, -125.66 -468.89 C-106.76 -462.03, -87.12 -456.69, -69.41 -453.13 C-51.71 -449.57, -35.3 -449.16, -19.43 -447.51 C-3.56 -445.85, 13.1 -445.86, 25.79 -443.19 C38.48 -440.51, 45.6 -437.38, 56.7 -431.46 C67.8 -425.54, 82.46 -416.54, 92.41 -407.67 C102.36 -398.8, 109.97 -388.22, 116.41 -378.22 C122.85 -368.22, 128.16 -358.85, 131.05 -347.67 C133.95 -336.49, 134.42 -323.16, 133.79 -311.14 C133.16 -299.13, 131.75 -287.14, 127.29 -275.58 C122.83 -264.02, 115.1 -251.63, 107.05 -241.79 C98.99 -231.96, 89.27 -223.72, 78.98 -216.58 C68.69 -209.43, 55.15 -202.54, 45.3 -198.94 C35.45 -195.34, 27.13 -195.79, 19.89 -194.98 C12.65 -194.17, 5.12 -195.19, 1.84 -194.07 C-1.44 -192.94, 0.37 -192.97, 0.22 -188.23 C0.06 -183.5, 0.92 -182.75, 0.9 -165.64 C0.88 -148.53, 0.26 -113.17, 0.11 -85.57 C-0.04 -57.96, 0.02 -14.26, 0 0 M0 0 C5.78 -0.15, 21.64 0.35, 34.68 -0.9 C47.71 -2.15, 63.57 -4.44, 78.23 -7.5 C92.9 -10.56, 105.81 -13.15, 122.66 -19.28 C139.52 -25.4, 162.94 -35.24, 179.37 -44.27 C195.79 -53.3, 208.12 -62.71, 221.21 -73.46 C234.3 -84.22, 246.4 -95.89, 257.92 -108.8 C269.43 -121.71, 280.53 -134.8, 290.3 -150.91 C300.07 -167.02, 309.98 -186.84, 316.54 -205.44 C323.11 -224.04, 327.01 -241.35, 329.69 -262.53 C332.37 -283.71, 333.65 -310.21, 332.63 -332.52 C331.62 -354.82, 328.51 -375.95, 323.58 -396.38 C318.66 -416.8, 310.71 -437.78, 303.11 -455.04 C295.5 -472.31, 288.02 -485.74, 277.94 -499.96 C267.85 -514.18, 256.89 -527.1, 242.58 -540.37 C228.26 -553.64, 210.59 -568.05, 192.04 -579.58 C173.5 -591.11, 151.77 -601.36, 131.31 -609.55 C110.86 -617.74, 87.6 -624.7, 69.33 -628.73 C51.06 -632.75, 35.92 -632.57, 21.71 -633.72 C7.51 -634.87, -3.66 -634.18, -15.89 -635.61 C-28.11 -637.04, -40.84 -638.98, -51.64 -642.32 C-62.45 -645.66, -71.22 -649.67, -80.72 -655.66 C-90.21 -661.65, -101.12 -669.86, -108.6 -678.26 C-116.09 -686.65, -121.16 -695.39, -125.62 -706.02 C-130.09 -716.64, -134.03 -729.18, -135.39 -742 C-136.74 -754.81, -136.7 -768.85, -133.75 -782.9 C-130.79 -796.94, -124.76 -813.98, -117.64 -826.27 C-110.53 -838.55, -101.39 -847.94, -91.05 -856.6 C-80.71 -865.26, -67.87 -873.21, -55.61 -878.23 C-43.34 -883.24, -31.03 -885.49, -17.48 -886.69 C-3.93 -887.88, 11.76 -887.53, 25.68 -885.39 C39.6 -883.26, 53.81 -879.71, 66.05 -873.87 C78.3 -868.03, 90.38 -858.47, 99.13 -850.35 C107.88 -842.23, 113.5 -834.3, 118.54 -825.16 C123.59 -816.02, 127.01 -804.55, 129.39 -795.49 C131.78 -786.43, 131.25 -775.96, 132.87 -770.8 C134.5 -765.65, 135.77 -766.08, 139.13 -764.56 C142.48 -763.05, 148.5 -762.19, 153 -761.72 C157.49 -761.24, 143.35 -761.72, 166.12 -761.72 C188.88 -761.72, 265.59 -761.72, 289.6 -761.72 C313.62 -761.72, 305.58 -761.72, 310.2 -761.72 C314.82 -761.72, 314.73 -761.08, 317.31 -761.72 C319.89 -762.35, 323.85 -764.32, 325.68 -765.5 C327.51 -766.67, 327.82 -766.52, 328.29 -768.76 C328.76 -770.99, 328.81 -771.36, 328.5 -778.89 C328.18 -786.43, 328.33 -800.67, 326.4 -813.95 C324.48 -827.23, 321.89 -842.37, 316.93 -858.56 C311.97 -874.74, 306.3 -892.94, 296.65 -911.07 C287 -929.21, 273.94 -949.88, 259.02 -967.35 C244.1 -984.82, 224.75 -1002.66, 207.13 -1015.87 C189.5 -1029.09, 172.99 -1037.65, 153.26 -1046.62 C133.54 -1055.59, 110.02 -1064.4, 88.77 -1069.68 C67.53 -1074.96, 46.88 -1076.91, 25.82 -1078.3 C4.77 -1079.68, -16.48 -1079.99, -37.54 -1078.01 C-58.6 -1076.03, -77.9 -1073.34, -100.53 -1066.42 C-123.16 -1059.5, -152.52 -1047.34, -173.32 -1036.48 C-194.13 -1025.61, -208.99 -1015.2, -225.36 -1001.23 C-241.72 -987.25, -258.41 -969.63, -271.5 -952.61 C-284.6 -935.58, -294.75 -917.92, -303.91 -899.08 C-313.08 -880.23, -321.04 -860.37, -326.49 -839.53 C-331.94 -818.7, -335.38 -795.91, -336.6 -774.06 C-337.81 -752.2, -336.3 -727.96, -333.78 -708.4 C-331.26 -688.83, -326.72 -672.72, -321.49 -656.64 C-316.27 -640.56, -310.74 -627.09, -302.42 -611.93 C-294.1 -596.77, -283.85 -580.43, -271.58 -565.67 C-259.31 -550.92, -243.58 -535.32, -228.78 -523.42 C-213.99 -511.53, -200 -503.39, -182.81 -494.31 C-165.62 -485.22, -144.56 -475.75, -125.66 -468.89 C-106.76 -462.03, -87.12 -456.69, -69.41 -453.13 C-51.71 -449.57, -35.3 -449.16, -19.43 -447.51 C-3.56 -445.85, 13.1 -445.86, 25.79 -443.19 C38.48 -440.51, 45.6 -437.38, 56.7 -431.46 C67.8 -425.54, 82.46 -416.54, 92.41 -407.67 C102.36 -398.8, 109.97 -388.22, 116.41 -378.22 C122.85 -368.22, 128.16 -358.85, 131.05 -347.67 C133.95 -336.49, 134.42 -323.16, 133.79 -311.14 C133.16 -299.13, 131.75 -287.14, 127.29 -275.58 C122.83 -264.02, 115.1 -251.63, 107.05 -241.79 C98.99 -231.96, 89.27 -223.72, 78.98 -216.58 C68.69 -209.43, 55.15 -202.54, 45.3 -198.94 C35.45 -195.34, 27.13 -195.79, 19.89 -194.98 C12.65 -194.17, 5.12 -195.19, 1.84 -194.07 C-1.44 -192.94, 0.37 -192.97, 0.22 -188.23 C0.06 -183.5, 0.92 -182.75, 0.9 -165.64 C0.88 -148.53, 0.26 -113.17, 0.11 -85.57 C-0.04 -57.96, 0.02 -14.26, 0 0" stroke="#E1E1E1" stroke-width="4" fill="none"></path></g></g><mask></mask><g stroke-linecap="round"><g transform="translate(3147.8142683543538 451.98879311755445) rotate(0 115.94944133801073 99.12570356777178)" fill-rule="evenodd"><path d="M0 0 C16.5 0, 54.03 0, 98.99 0 C143.95 0, 230.69 0, 269.77 0 C308.85 0, 315.34 0, 333.46 0 C351.58 0, 366.45 0, 378.48 0 C390.52 0, 397.07 -0.18, 405.67 0 C414.28 0.18, 425.22 -0.74, 430.13 1.09 C435.04 2.91, 434.21 6.69, 435.15 10.97 C436.08 15.25, 435.65 9.99, 435.75 26.78 C435.85 43.58, 435.75 91.65, 435.75 111.73 C435.75 131.82, 435.74 136.33, 435.75 147.29 C435.75 158.26, 436.17 170.64, 435.77 177.51 C435.37 184.38, 435.17 186.17, 433.36 188.5 C431.54 190.83, 430.11 190.98, 424.88 191.48 C419.65 191.97, 423.48 191.48, 401.97 191.48 C380.47 191.48, 338.45 191.48, 295.86 191.48 C253.26 191.48, 180.3 191.48, 146.39 191.48 C112.47 191.48, 111.23 191.48, 92.37 191.48 C73.52 191.48, 46.6 191.48, 33.25 191.48 C19.89 191.48, 17.65 191.35, 12.24 191.48 C6.83 191.6, 2.91 190.18, 0.79 192.24 C-1.32 194.3, -0.24 192.85, -0.45 203.86 C-0.66 214.86, -0.45 232.57, -0.45 258.29 C-0.45 284.01, -0.45 333.9, -0.45 358.17 C-0.45 382.43, -0.45 392.68, -0.45 403.9 C-0.45 415.12, -0.45 419.74, -0.45 425.51 C-0.45 431.27, -1.84 436.17, -0.45 438.49 C0.94 440.81, -1.15 439.28, 7.88 439.44 C16.92 439.6, 35.37 439.44, 53.75 439.44 C72.12 439.44, 97.49 439.44, 118.14 439.44 C138.78 439.44, 155.67 439.44, 177.61 439.44 C199.54 439.44, 233.22 439.44, 249.74 439.44 C266.26 439.44, 270.2 439.44, 276.72 439.44 C283.24 439.44, 284.72 439.44, 288.87 439.44 C293.01 439.44, 298.97 437.88, 301.56 439.44 C304.16 441, 303.97 437.91, 304.45 448.81 C304.93 459.7, 304.45 484.93, 304.45 504.83 C304.45 524.73, 304.45 550.04, 304.45 568.19 C304.45 586.35, 304.45 603.08, 304.45 613.76 C304.45 624.45, 305.55 628.29, 304.45 632.3 C303.35 636.31, 306.03 636.91, 297.83 637.83 C289.62 638.76, 288.88 637.83, 255.23 637.83 C221.58 637.83, 149.43 637.83, 95.91 637.83 C42.4 637.83, -28.46 637.83, -65.86 637.83 C-103.27 637.83, -111.55 637.83, -128.54 637.83 C-145.54 637.83, -157.41 637.83, -167.84 637.83 C-178.27 637.83, -185.68 638.77, -191.13 637.83 C-196.58 636.9, -198.41 635.42, -200.53 632.23 C-202.65 629.05, -203.31 627.73, -203.87 618.74 C-204.43 609.75, -203.87 598.97, -203.87 578.3 C-203.87 557.63, -203.87 547.91, -203.87 494.71 C-203.87 441.52, -203.87 315.16, -203.87 259.13 C-203.87 203.1, -203.87 212.66, -203.87 158.53 C-203.87 104.41, -203.87 3.38, -203.87 -65.61 C-203.87 -134.6, -203.87 -202.75, -203.87 -255.4 C-203.87 -308.06, -203.87 -353.79, -203.87 -381.55 C-203.87 -409.31, -204.59 -413.05, -203.87 -421.96 C-203.15 -430.88, -202.04 -432.12, -199.54 -435.06 C-197.05 -437.99, -195.67 -438.83, -188.91 -439.58 C-182.14 -440.34, -180.72 -439.58, -158.97 -439.58 C-137.21 -439.58, -97.73 -439.58, -58.39 -439.58 C-19.06 -439.58, 34.75 -439.58, 77.05 -439.58 C119.35 -439.58, 165.77 -439.58, 195.41 -439.58 C225.04 -439.58, 241.27 -439.58, 254.85 -439.58 C268.43 -439.58, 269.23 -439.58, 276.89 -439.58 C284.55 -439.58, 296.32 -441.26, 300.83 -439.58 C305.34 -437.9, 303.44 -438.53, 303.96 -429.51 C304.48 -420.49, 303.96 -404.7, 303.96 -385.46 C303.96 -366.23, 303.96 -331.03, 303.96 -314.1 C303.96 -297.17, 303.96 -293.64, 303.96 -283.9 C303.96 -274.15, 305.83 -261.4, 303.96 -255.6 C302.1 -249.81, 306.21 -250.22, 292.77 -249.14 C279.33 -248.07, 252.93 -249.14, 223.3 -249.14 C193.68 -249.14, 145.52 -249.14, 115.03 -249.14 C84.53 -249.14, 57.07 -249.14, 40.35 -249.14 C23.63 -249.14, 21.16 -249.14, 14.71 -249.14 C8.26 -249.14, 4.15 -250.79, 1.66 -249.14 C-0.84 -247.5, 0.05 -251.16, -0.28 -239.27 C-0.6 -227.38, -0.32 -217.68, -0.28 -177.8 C-0.23 -137.92, -0.05 -29.63, 0 0" stroke="none" stroke-width="0" fill="#e1e1e1" fill-rule="evenodd"></path><path d="M0 0 C16.5 0, 54.03 0, 98.99 0 C143.95 0, 230.69 0, 269.77 0 C308.85 0, 315.34 0, 333.46 0 C351.58 0, 366.45 0, 378.48 0 C390.52 0, 397.07 -0.18, 405.67 0 C414.28 0.18, 425.22 -0.74, 430.13 1.09 C435.04 2.91, 434.21 6.69, 435.15 10.97 C436.08 15.25, 435.65 9.99, 435.75 26.78 C435.85 43.58, 435.75 91.65, 435.75 111.73 C435.75 131.82, 435.74 136.33, 435.75 147.29 C435.75 158.26, 436.17 170.64, 435.77 177.51 C435.37 184.38, 435.17 186.17, 433.36 188.5 C431.54 190.83, 430.11 190.98, 424.88 191.48 C419.65 191.97, 423.48 191.48, 401.97 191.48 C380.47 191.48, 338.45 191.48, 295.86 191.48 C253.26 191.48, 180.3 191.48, 146.39 191.48 C112.47 191.48, 111.23 191.48, 92.37 191.48 C73.52 191.48, 46.6 191.48, 33.25 191.48 C19.89 191.48, 17.65 191.35, 12.24 191.48 C6.83 191.6, 2.91 190.18, 0.79 192.24 C-1.32 194.3, -0.24 192.85, -0.45 203.86 C-0.66 214.86, -0.45 232.57, -0.45 258.29 C-0.45 284.01, -0.45 333.9, -0.45 358.17 C-0.45 382.43, -0.45 392.68, -0.45 403.9 C-0.45 415.12, -0.45 419.74, -0.45 425.51 C-0.45 431.27, -1.84 436.17, -0.45 438.49 C0.94 440.81, -1.15 439.28, 7.88 439.44 C16.92 439.6, 35.37 439.44, 53.75 439.44 C72.12 439.44, 97.49 439.44, 118.14 439.44 C138.78 439.44, 155.67 439.44, 177.61 439.44 C199.54 439.44, 233.22 439.44, 249.74 439.44 C266.26 439.44, 270.2 439.44, 276.72 439.44 C283.24 439.44, 284.72 439.44, 288.87 439.44 C293.01 439.44, 298.97 437.88, 301.56 439.44 C304.16 441, 303.97 437.91, 304.45 448.81 C304.93 459.7, 304.45 484.93, 304.45 504.83 C304.45 524.73, 304.45 550.04, 304.45 568.19 C304.45 586.35, 304.45 603.08, 304.45 613.76 C304.45 624.45, 305.55 628.29, 304.45 632.3 C303.35 636.31, 306.03 636.91, 297.83 637.83 C289.62 638.76, 288.88 637.83, 255.23 637.83 C221.58 637.83, 149.43 637.83, 95.91 637.83 C42.4 637.83, -28.46 637.83, -65.86 637.83 C-103.27 637.83, -111.55 637.83, -128.54 637.83 C-145.54 637.83, -157.41 637.83, -167.84 637.83 C-178.27 637.83, -185.68 638.77, -191.13 637.83 C-196.58 636.9, -198.41 635.42, -200.53 632.23 C-202.65 629.05, -203.31 627.73, -203.87 618.74 C-204.43 609.75, -203.87 598.97, -203.87 578.3 C-203.87 557.63, -203.87 547.91, -203.87 494.71 C-203.87 441.52, -203.87 315.16, -203.87 259.13 C-203.87 203.1, -203.87 212.66, -203.87 158.53 C-203.87 104.41, -203.87 3.38, -203.87 -65.61 C-203.87 -134.6, -203.87 -202.75, -203.87 -255.4 C-203.87 -308.06, -203.87 -353.79, -203.87 -381.55 C-203.87 -409.31, -204.59 -413.05, -203.87 -421.96 C-203.15 -430.88, -202.04 -432.12, -199.54 -435.06 C-197.05 -437.99, -195.67 -438.83, -188.91 -439.58 C-182.14 -440.34, -180.72 -439.58, -158.97 -439.58 C-137.21 -439.58, -97.73 -439.58, -58.39 -439.58 C-19.06 -439.58, 34.75 -439.58, 77.05 -439.58 C119.35 -439.58, 165.77 -439.58, 195.41 -439.58 C225.04 -439.58, 241.27 -439.58, 254.85 -439.58 C268.43 -439.58, 269.23 -439.58, 276.89 -439.58 C284.55 -439.58, 296.32 -441.26, 300.83 -439.58 C305.34 -437.9, 303.44 -438.53, 303.96 -429.51 C304.48 -420.49, 303.96 -404.7, 303.96 -385.46 C303.96 -366.23, 303.96 -331.03, 303.96 -314.1 C303.96 -297.17, 303.96 -293.64, 303.96 -283.9 C303.96 -274.15, 305.83 -261.4, 303.96 -255.6 C302.1 -249.81, 306.21 -250.22, 292.77 -249.14 C279.33 -248.07, 252.93 -249.14, 223.3 -249.14 C193.68 -249.14, 145.52 -249.14, 115.03 -249.14 C84.53 -249.14, 57.07 -249.14, 40.35 -249.14 C23.63 -249.14, 21.16 -249.14, 14.71 -249.14 C8.26 -249.14, 4.15 -250.79, 1.66 -249.14 C-0.84 -247.5, 0.05 -251.16, -0.28 -239.27 C-0.6 -227.38, -0.32 -217.68, -0.28 -177.8 C-0.23 -137.92, -0.05 -29.63, 0 0 M0 0 C16.5 0, 54.03 0, 98.99 0 C143.95 0, 230.69 0, 269.77 0 C308.85 0, 315.34 0, 333.46 0 C351.58 0, 366.45 0, 378.48 0 C390.52 0, 397.07 -0.18, 405.67 0 C414.28 0.18, 425.22 -0.74, 430.13 1.09 C435.04 2.91, 434.21 6.69, 435.15 10.97 C436.08 15.25, 435.65 9.99, 435.75 26.78 C435.85 43.58, 435.75 91.65, 435.75 111.73 C435.75 131.82, 435.74 136.33, 435.75 147.29 C435.75 158.26, 436.17 170.64, 435.77 177.51 C435.37 184.38, 435.17 186.17, 433.36 188.5 C431.54 190.83, 430.11 190.98, 424.88 191.48 C419.65 191.97, 423.48 191.48, 401.97 191.48 C380.47 191.48, 338.45 191.48, 295.86 191.48 C253.26 191.48, 180.3 191.48, 146.39 191.48 C112.47 191.48, 111.23 191.48, 92.37 191.48 C73.52 191.48, 46.6 191.48, 33.25 191.48 C19.89 191.48, 17.65 191.35, 12.24 191.48 C6.83 191.6, 2.91 190.18, 0.79 192.24 C-1.32 194.3, -0.24 192.85, -0.45 203.86 C-0.66 214.86, -0.45 232.57, -0.45 258.29 C-0.45 284.01, -0.45 333.9, -0.45 358.17 C-0.45 382.43, -0.45 392.68, -0.45 403.9 C-0.45 415.12, -0.45 419.74, -0.45 425.51 C-0.45 431.27, -1.84 436.17, -0.45 438.49 C0.94 440.81, -1.15 439.28, 7.88 439.44 C16.92 439.6, 35.37 439.44, 53.75 439.44 C72.12 439.44, 97.49 439.44, 118.14 439.44 C138.78 439.44, 155.67 439.44, 177.61 439.44 C199.54 439.44, 233.22 439.44, 249.74 439.44 C266.26 439.44, 270.2 439.44, 276.72 439.44 C283.24 439.44, 284.72 439.44, 288.87 439.44 C293.01 439.44, 298.97 437.88, 301.56 439.44 C304.16 441, 303.97 437.91, 304.45 448.81 C304.93 459.7, 304.45 484.93, 304.45 504.83 C304.45 524.73, 304.45 550.04, 304.45 568.19 C304.45 586.35, 304.45 603.08, 304.45 613.76 C304.45 624.45, 305.55 628.29, 304.45 632.3 C303.35 636.31, 306.03 636.91, 297.83 637.83 C289.62 638.76, 288.88 637.83, 255.23 637.83 C221.58 637.83, 149.43 637.83, 95.91 637.83 C42.4 637.83, -28.46 637.83, -65.86 637.83 C-103.27 637.83, -111.55 637.83, -128.54 637.83 C-145.54 637.83, -157.41 637.83, -167.84 637.83 C-178.27 637.83, -185.68 638.77, -191.13 637.83 C-196.58 636.9, -198.41 635.42, -200.53 632.23 C-202.65 629.05, -203.31 627.73, -203.87 618.74 C-204.43 609.75, -203.87 598.97, -203.87 578.3 C-203.87 557.63, -203.87 547.91, -203.87 494.71 C-203.87 441.52, -203.87 315.16, -203.87 259.13 C-203.87 203.1, -203.87 212.66, -203.87 158.53 C-203.87 104.41, -203.87 3.38, -203.87 -65.61 C-203.87 -134.6, -203.87 -202.75, -203.87 -255.4 C-203.87 -308.06, -203.87 -353.79, -203.87 -381.55 C-203.87 -409.31, -204.59 -413.05, -203.87 -421.96 C-203.15 -430.88, -202.04 -432.12, -199.54 -435.06 C-197.05 -437.99, -195.67 -438.83, -188.91 -439.58 C-182.14 -440.34, -180.72 -439.58, -158.97 -439.58 C-137.21 -439.58, -97.73 -439.58, -58.39 -439.58 C-19.06 -439.58, 34.75 -439.58, 77.05 -439.58 C119.35 -439.58, 165.77 -439.58, 195.41 -439.58 C225.04 -439.58, 241.27 -439.58, 254.85 -439.58 C268.43 -439.58, 269.23 -439.58, 276.89 -439.58 C284.55 -439.58, 296.32 -441.26, 300.83 -439.58 C305.34 -437.9, 303.44 -438.53, 303.96 -429.51 C304.48 -420.49, 303.96 -404.7, 303.96 -385.46 C303.96 -366.23, 303.96 -331.03, 303.96 -314.1 C303.96 -297.17, 303.96 -293.64, 303.96 -283.9 C303.96 -274.15, 305.83 -261.4, 303.96 -255.6 C302.1 -249.81, 306.21 -250.22, 292.77 -249.14 C279.33 -248.07, 252.93 -249.14, 223.3 -249.14 C193.68 -249.14, 145.52 -249.14, 115.03 -249.14 C84.53 -249.14, 57.07 -249.14, 40.35 -249.14 C23.63 -249.14, 21.16 -249.14, 14.71 -249.14 C8.26 -249.14, 4.15 -250.79, 1.66 -249.14 C-0.84 -247.5, 0.05 -251.16, -0.28 -239.27 C-0.6 -227.38, -0.32 -217.68, -0.28 -177.8 C-0.23 -137.92, -0.05 -29.63, 0 0" stroke="#E1E1E1" stroke-width="4" fill="none"></path></g></g><mask></mask><g stroke-linecap="round"><g transform="translate(898.1190174328931 452.8046952655495) rotate(0 115.94944133801073 99.12570356777178)" fill-rule="evenodd"><path d="M0 0 C16.5 0, 54.03 0, 98.99 0 C143.95 0, 230.69 0, 269.77 0 C308.85 0, 315.34 0, 333.46 0 C351.58 0, 366.45 0, 378.48 0 C390.52 0, 397.07 -0.18, 405.67 0 C414.28 0.18, 425.22 -0.74, 430.13 1.09 C435.04 2.91, 434.21 6.69, 435.15 10.97 C436.08 15.25, 435.65 9.99, 435.75 26.78 C435.85 43.58, 435.75 91.65, 435.75 111.73 C435.75 131.82, 435.74 136.33, 435.75 147.29 C435.75 158.26, 436.17 170.64, 435.77 177.51 C435.37 184.38, 435.17 186.17, 433.36 188.5 C431.54 190.83, 430.11 190.98, 424.88 191.48 C419.65 191.97, 423.48 191.48, 401.97 191.48 C380.47 191.48, 338.45 191.48, 295.86 191.48 C253.26 191.48, 180.3 191.48, 146.39 191.48 C112.47 191.48, 111.23 191.48, 92.37 191.48 C73.52 191.48, 46.6 191.48, 33.25 191.48 C19.89 191.48, 17.65 191.35, 12.24 191.48 C6.83 191.6, 2.91 190.18, 0.79 192.24 C-1.32 194.3, -0.24 192.85, -0.45 203.86 C-0.66 214.86, -0.45 232.57, -0.45 258.29 C-0.45 284.01, -0.45 333.9, -0.45 358.17 C-0.45 382.43, -0.45 392.68, -0.45 403.9 C-0.45 415.12, -0.45 419.74, -0.45 425.51 C-0.45 431.27, -1.84 436.17, -0.45 438.49 C0.94 440.81, -1.15 439.28, 7.88 439.44 C16.92 439.6, 35.37 439.44, 53.75 439.44 C72.12 439.44, 97.49 439.44, 118.14 439.44 C138.78 439.44, 155.67 439.44, 177.61 439.44 C199.54 439.44, 233.22 439.44, 249.74 439.44 C266.26 439.44, 270.2 439.44, 276.72 439.44 C283.24 439.44, 284.72 439.44, 288.87 439.44 C293.01 439.44, 298.97 437.88, 301.56 439.44 C304.16 441, 303.97 437.91, 304.45 448.81 C304.93 459.7, 304.45 484.93, 304.45 504.83 C304.45 524.73, 304.45 550.04, 304.45 568.19 C304.45 586.35, 304.45 603.08, 304.45 613.76 C304.45 624.45, 305.55 628.29, 304.45 632.3 C303.35 636.31, 306.03 636.91, 297.83 637.83 C289.62 638.76, 288.88 637.83, 255.23 637.83 C221.58 637.83, 149.43 637.83, 95.91 637.83 C42.4 637.83, -28.46 637.83, -65.86 637.83 C-103.27 637.83, -111.55 637.83, -128.54 637.83 C-145.54 637.83, -157.41 637.83, -167.84 637.83 C-178.27 637.83, -185.68 638.77, -191.13 637.83 C-196.58 636.9, -198.41 635.42, -200.53 632.23 C-202.65 629.05, -203.31 627.73, -203.87 618.74 C-204.43 609.75, -203.87 598.97, -203.87 578.3 C-203.87 557.63, -203.87 547.91, -203.87 494.71 C-203.87 441.52, -203.87 315.16, -203.87 259.13 C-203.87 203.1, -203.87 212.66, -203.87 158.53 C-203.87 104.41, -203.87 3.38, -203.87 -65.61 C-203.87 -134.6, -203.87 -202.75, -203.87 -255.4 C-203.87 -308.06, -203.87 -353.79, -203.87 -381.55 C-203.87 -409.31, -204.59 -413.05, -203.87 -421.96 C-203.15 -430.88, -202.04 -432.12, -199.54 -435.06 C-197.05 -437.99, -195.67 -438.83, -188.91 -439.58 C-182.14 -440.34, -180.72 -439.58, -158.97 -439.58 C-137.21 -439.58, -97.73 -439.58, -58.39 -439.58 C-19.06 -439.58, 34.75 -439.58, 77.05 -439.58 C119.35 -439.58, 165.77 -439.58, 195.41 -439.58 C225.04 -439.58, 241.27 -439.58, 254.85 -439.58 C268.43 -439.58, 269.23 -439.58, 276.89 -439.58 C284.55 -439.58, 296.32 -441.26, 300.83 -439.58 C305.34 -437.9, 303.44 -438.53, 303.96 -429.51 C304.48 -420.49, 303.96 -404.7, 303.96 -385.46 C303.96 -366.23, 303.96 -331.03, 303.96 -314.1 C303.96 -297.17, 303.96 -293.64, 303.96 -283.9 C303.96 -274.15, 305.83 -261.4, 303.96 -255.6 C302.1 -249.81, 306.21 -250.22, 292.77 -249.14 C279.33 -248.07, 252.93 -249.14, 223.3 -249.14 C193.68 -249.14, 145.52 -249.14, 115.03 -249.14 C84.53 -249.14, 57.07 -249.14, 40.35 -249.14 C23.63 -249.14, 21.16 -249.14, 14.71 -249.14 C8.26 -249.14, 4.15 -250.79, 1.66 -249.14 C-0.84 -247.5, 0.05 -251.16, -0.28 -239.27 C-0.6 -227.38, -0.32 -217.68, -0.28 -177.8 C-0.23 -137.92, -0.05 -29.63, 0 0" stroke="none" stroke-width="0" fill="#e1e1e1" fill-rule="evenodd"></path><path d="M0 0 C16.5 0, 54.03 0, 98.99 0 C143.95 0, 230.69 0, 269.77 0 C308.85 0, 315.34 0, 333.46 0 C351.58 0, 366.45 0, 378.48 0 C390.52 0, 397.07 -0.18, 405.67 0 C414.28 0.18, 425.22 -0.74, 430.13 1.09 C435.04 2.91, 434.21 6.69, 435.15 10.97 C436.08 15.25, 435.65 9.99, 435.75 26.78 C435.85 43.58, 435.75 91.65, 435.75 111.73 C435.75 131.82, 435.74 136.33, 435.75 147.29 C435.75 158.26, 436.17 170.64, 435.77 177.51 C435.37 184.38, 435.17 186.17, 433.36 188.5 C431.54 190.83, 430.11 190.98, 424.88 191.48 C419.65 191.97, 423.48 191.48, 401.97 191.48 C380.47 191.48, 338.45 191.48, 295.86 191.48 C253.26 191.48, 180.3 191.48, 146.39 191.48 C112.47 191.48, 111.23 191.48, 92.37 191.48 C73.52 191.48, 46.6 191.48, 33.25 191.48 C19.89 191.48, 17.65 191.35, 12.24 191.48 C6.83 191.6, 2.91 190.18, 0.79 192.24 C-1.32 194.3, -0.24 192.85, -0.45 203.86 C-0.66 214.86, -0.45 232.57, -0.45 258.29 C-0.45 284.01, -0.45 333.9, -0.45 358.17 C-0.45 382.43, -0.45 392.68, -0.45 403.9 C-0.45 415.12, -0.45 419.74, -0.45 425.51 C-0.45 431.27, -1.84 436.17, -0.45 438.49 C0.94 440.81, -1.15 439.28, 7.88 439.44 C16.92 439.6, 35.37 439.44, 53.75 439.44 C72.12 439.44, 97.49 439.44, 118.14 439.44 C138.78 439.44, 155.67 439.44, 177.61 439.44 C199.54 439.44, 233.22 439.44, 249.74 439.44 C266.26 439.44, 270.2 439.44, 276.72 439.44 C283.24 439.44, 284.72 439.44, 288.87 439.44 C293.01 439.44, 298.97 437.88, 301.56 439.44 C304.16 441, 303.97 437.91, 304.45 448.81 C304.93 459.7, 304.45 484.93, 304.45 504.83 C304.45 524.73, 304.45 550.04, 304.45 568.19 C304.45 586.35, 304.45 603.08, 304.45 613.76 C304.45 624.45, 305.55 628.29, 304.45 632.3 C303.35 636.31, 306.03 636.91, 297.83 637.83 C289.62 638.76, 288.88 637.83, 255.23 637.83 C221.58 637.83, 149.43 637.83, 95.91 637.83 C42.4 637.83, -28.46 637.83, -65.86 637.83 C-103.27 637.83, -111.55 637.83, -128.54 637.83 C-145.54 637.83, -157.41 637.83, -167.84 637.83 C-178.27 637.83, -185.68 638.77, -191.13 637.83 C-196.58 636.9, -198.41 635.42, -200.53 632.23 C-202.65 629.05, -203.31 627.73, -203.87 618.74 C-204.43 609.75, -203.87 598.97, -203.87 578.3 C-203.87 557.63, -203.87 547.91, -203.87 494.71 C-203.87 441.52, -203.87 315.16, -203.87 259.13 C-203.87 203.1, -203.87 212.66, -203.87 158.53 C-203.87 104.41, -203.87 3.38, -203.87 -65.61 C-203.87 -134.6, -203.87 -202.75, -203.87 -255.4 C-203.87 -308.06, -203.87 -353.79, -203.87 -381.55 C-203.87 -409.31, -204.59 -413.05, -203.87 -421.96 C-203.15 -430.88, -202.04 -432.12, -199.54 -435.06 C-197.05 -437.99, -195.67 -438.83, -188.91 -439.58 C-182.14 -440.34, -180.72 -439.58, -158.97 -439.58 C-137.21 -439.58, -97.73 -439.58, -58.39 -439.58 C-19.06 -439.58, 34.75 -439.58, 77.05 -439.58 C119.35 -439.58, 165.77 -439.58, 195.41 -439.58 C225.04 -439.58, 241.27 -439.58, 254.85 -439.58 C268.43 -439.58, 269.23 -439.58, 276.89 -439.58 C284.55 -439.58, 296.32 -441.26, 300.83 -439.58 C305.34 -437.9, 303.44 -438.53, 303.96 -429.51 C304.48 -420.49, 303.96 -404.7, 303.96 -385.46 C303.96 -366.23, 303.96 -331.03, 303.96 -314.1 C303.96 -297.17, 303.96 -293.64, 303.96 -283.9 C303.96 -274.15, 305.83 -261.4, 303.96 -255.6 C302.1 -249.81, 306.21 -250.22, 292.77 -249.14 C279.33 -248.07, 252.93 -249.14, 223.3 -249.14 C193.68 -249.14, 145.52 -249.14, 115.03 -249.14 C84.53 -249.14, 57.07 -249.14, 40.35 -249.14 C23.63 -249.14, 21.16 -249.14, 14.71 -249.14 C8.26 -249.14, 4.15 -250.79, 1.66 -249.14 C-0.84 -247.5, 0.05 -251.16, -0.28 -239.27 C-0.6 -227.38, -0.32 -217.68, -0.28 -177.8 C-0.23 -137.92, -0.05 -29.63, 0 0 M0 0 C16.5 0, 54.03 0, 98.99 0 C143.95 0, 230.69 0, 269.77 0 C308.85 0, 315.34 0, 333.46 0 C351.58 0, 366.45 0, 378.48 0 C390.52 0, 397.07 -0.18, 405.67 0 C414.28 0.18, 425.22 -0.74, 430.13 1.09 C435.04 2.91, 434.21 6.69, 435.15 10.97 C436.08 15.25, 435.65 9.99, 435.75 26.78 C435.85 43.58, 435.75 91.65, 435.75 111.73 C435.75 131.82, 435.74 136.33, 435.75 147.29 C435.75 158.26, 436.17 170.64, 435.77 177.51 C435.37 184.38, 435.17 186.17, 433.36 188.5 C431.54 190.83, 430.11 190.98, 424.88 191.48 C419.65 191.97, 423.48 191.48, 401.97 191.48 C380.47 191.48, 338.45 191.48, 295.86 191.48 C253.26 191.48, 180.3 191.48, 146.39 191.48 C112.47 191.48, 111.23 191.48, 92.37 191.48 C73.52 191.48, 46.6 191.48, 33.25 191.48 C19.89 191.48, 17.65 191.35, 12.24 191.48 C6.83 191.6, 2.91 190.18, 0.79 192.24 C-1.32 194.3, -0.24 192.85, -0.45 203.86 C-0.66 214.86, -0.45 232.57, -0.45 258.29 C-0.45 284.01, -0.45 333.9, -0.45 358.17 C-0.45 382.43, -0.45 392.68, -0.45 403.9 C-0.45 415.12, -0.45 419.74, -0.45 425.51 C-0.45 431.27, -1.84 436.17, -0.45 438.49 C0.94 440.81, -1.15 439.28, 7.88 439.44 C16.92 439.6, 35.37 439.44, 53.75 439.44 C72.12 439.44, 97.49 439.44, 118.14 439.44 C138.78 439.44, 155.67 439.44, 177.61 439.44 C199.54 439.44, 233.22 439.44, 249.74 439.44 C266.26 439.44, 270.2 439.44, 276.72 439.44 C283.24 439.44, 284.72 439.44, 288.87 439.44 C293.01 439.44, 298.97 437.88, 301.56 439.44 C304.16 441, 303.97 437.91, 304.45 448.81 C304.93 459.7, 304.45 484.93, 304.45 504.83 C304.45 524.73, 304.45 550.04, 304.45 568.19 C304.45 586.35, 304.45 603.08, 304.45 613.76 C304.45 624.45, 305.55 628.29, 304.45 632.3 C303.35 636.31, 306.03 636.91, 297.83 637.83 C289.62 638.76, 288.88 637.83, 255.23 637.83 C221.58 637.83, 149.43 637.83, 95.91 637.83 C42.4 637.83, -28.46 637.83, -65.86 637.83 C-103.27 637.83, -111.55 637.83, -128.54 637.83 C-145.54 637.83, -157.41 637.83, -167.84 637.83 C-178.27 637.83, -185.68 638.77, -191.13 637.83 C-196.58 636.9, -198.41 635.42, -200.53 632.23 C-202.65 629.05, -203.31 627.73, -203.87 618.74 C-204.43 609.75, -203.87 598.97, -203.87 578.3 C-203.87 557.63, -203.87 547.91, -203.87 494.71 C-203.87 441.52, -203.87 315.16, -203.87 259.13 C-203.87 203.1, -203.87 212.66, -203.87 158.53 C-203.87 104.41, -203.87 3.38, -203.87 -65.61 C-203.87 -134.6, -203.87 -202.75, -203.87 -255.4 C-203.87 -308.06, -203.87 -353.79, -203.87 -381.55 C-203.87 -409.31, -204.59 -413.05, -203.87 -421.96 C-203.15 -430.88, -202.04 -432.12, -199.54 -435.06 C-197.05 -437.99, -195.67 -438.83, -188.91 -439.58 C-182.14 -440.34, -180.72 -439.58, -158.97 -439.58 C-137.21 -439.58, -97.73 -439.58, -58.39 -439.58 C-19.06 -439.58, 34.75 -439.58, 77.05 -439.58 C119.35 -439.58, 165.77 -439.58, 195.41 -439.58 C225.04 -439.58, 241.27 -439.58, 254.85 -439.58 C268.43 -439.58, 269.23 -439.58, 276.89 -439.58 C284.55 -439.58, 296.32 -441.26, 300.83 -439.58 C305.34 -437.9, 303.44 -438.53, 303.96 -429.51 C304.48 -420.49, 303.96 -404.7, 303.96 -385.46 C303.96 -366.23, 303.96 -331.03, 303.96 -314.1 C303.96 -297.17, 303.96 -293.64, 303.96 -283.9 C303.96 -274.15, 305.83 -261.4, 303.96 -255.6 C302.1 -249.81, 306.21 -250.22, 292.77 -249.14 C279.33 -248.07, 252.93 -249.14, 223.3 -249.14 C193.68 -249.14, 145.52 -249.14, 115.03 -249.14 C84.53 -249.14, 57.07 -249.14, 40.35 -249.14 C23.63 -249.14, 21.16 -249.14, 14.71 -249.14 C8.26 -249.14, 4.15 -250.79, 1.66 -249.14 C-0.84 -247.5, 0.05 -251.16, -0.28 -239.27 C-0.6 -227.38, -0.32 -217.68, -0.28 -177.8 C-0.23 -137.92, -0.05 -29.63, 0 0" stroke="#E1E1E1" stroke-width="4" fill="none"></path></g></g><mask></mask><g stroke-linecap="round"><g transform="translate(228.94057583359609 404.880510279032) rotate(0 102.21294954308905 342.6339974938719)" fill-rule="evenodd"><path d="M0 0 C11.56 0, 45.62 0, 69.36 0 C93.1 0, 123.7 0, 142.45 0 C161.2 0, 171.99 0, 181.86 0 C191.74 0, 197.94 -1.75, 201.7 0 C205.46 1.75, 203.97 -7.1, 204.43 10.51 C204.88 28.12, 204.43 72.41, 204.43 105.68 C204.43 138.96, 204.43 149.07, 204.43 210.17 C204.43 271.27, 204.43 405.58, 204.43 472.29 C204.43 539, 204.43 579.53, 204.43 610.41 C204.43 641.28, 204.43 647.03, 204.43 657.55 C204.43 668.06, 204.95 669.49, 204.43 673.5 C203.91 677.51, 203.83 679.76, 201.3 681.61 C198.78 683.45, 196.83 683.97, 189.27 684.57 C181.71 685.18, 171.98 685.11, 155.94 685.22 C139.9 685.34, 112.19 685.29, 93.03 685.27 C73.88 685.24, 53.62 685.1, 41 685.08 C28.39 685.07, 22.91 685.53, 17.37 685.2 C11.83 684.86, 10.18 685.18, 7.75 683.07 C5.33 680.96, 3.77 682.47, 2.85 672.52 C1.92 662.58, 2.36 675.61, 2.18 623.4 C2 571.2, 1.89 431.25, 1.77 359.29 C1.65 287.34, 1.19 251.28, 1.48 191.68 C1.77 132.08, 3.18 33.36, 3.52 1.69" stroke="none" stroke-width="0" fill="#e1e1e1" fill-rule="evenodd"></path><path d="M0 0 C11.56 0, 45.62 0, 69.36 0 C93.1 0, 123.7 0, 142.45 0 C161.2 0, 171.99 0, 181.86 0 C191.74 0, 197.94 -1.75, 201.7 0 C205.46 1.75, 203.97 -7.1, 204.43 10.51 C204.88 28.12, 204.43 72.41, 204.43 105.68 C204.43 138.96, 204.43 149.07, 204.43 210.17 C204.43 271.27, 204.43 405.58, 204.43 472.29 C204.43 539, 204.43 579.53, 204.43 610.41 C204.43 641.28, 204.43 647.03, 204.43 657.55 C204.43 668.06, 204.95 669.49, 204.43 673.5 C203.91 677.51, 203.83 679.76, 201.3 681.61 C198.78 683.45, 196.83 683.97, 189.27 684.57 C181.71 685.18, 171.98 685.11, 155.94 685.22 C139.9 685.34, 112.19 685.29, 93.03 685.27 C73.88 685.24, 53.62 685.1, 41 685.08 C28.39 685.07, 22.91 685.53, 17.37 685.2 C11.83 684.86, 10.18 685.18, 7.75 683.07 C5.33 680.96, 3.77 682.47, 2.85 672.52 C1.92 662.58, 2.36 675.61, 2.18 623.4 C2 571.2, 1.89 431.25, 1.77 359.29 C1.65 287.34, 1.19 251.28, 1.48 191.68 C1.77 132.08, 3.18 33.36, 3.52 1.69 M0 0 C11.56 0, 45.62 0, 69.36 0 C93.1 0, 123.7 0, 142.45 0 C161.2 0, 171.99 0, 181.86 0 C191.74 0, 197.94 -1.75, 201.7 0 C205.46 1.75, 203.97 -7.1, 204.43 10.51 C204.88 28.12, 204.43 72.41, 204.43 105.68 C204.43 138.96, 204.43 149.07, 204.43 210.17 C204.43 271.27, 204.43 405.58, 204.43 472.29 C204.43 539, 204.43 579.53, 204.43 610.41 C204.43 641.28, 204.43 647.03, 204.43 657.55 C204.43 668.06, 204.95 669.49, 204.43 673.5 C203.91 677.51, 203.83 679.76, 201.3 681.61 C198.78 683.45, 196.83 683.97, 189.27 684.57 C181.71 685.18, 171.98 685.11, 155.94 685.22 C139.9 685.34, 112.19 685.29, 93.03 685.27 C73.88 685.24, 53.62 685.1, 41 685.08 C28.39 685.07, 22.91 685.53, 17.37 685.2 C11.83 684.86, 10.18 685.18, 7.75 683.07 C5.33 680.96, 3.77 682.47, 2.85 672.52 C1.92 662.58, 2.36 675.61, 2.18 623.4 C2 571.2, 1.89 431.25, 1.77 359.29 C1.65 287.34, 1.19 251.28, 1.48 191.68 C1.77 132.08, 3.18 33.36, 3.52 1.69" stroke="#E1E1E1" stroke-width="4" fill="none"></path></g></g><mask></mask><g stroke-linecap="round"><g transform="translate(263.79434185922764 12.19943622736173) rotate(0 68.735907577141 90.6150386284362)" fill-rule="evenodd"><path d="M0 0 C33.68 0, 157.74 0, 202.08 0 C246.41 0, 246.75 0, 266 0 C285.25 0, 301.1 0, 317.59 0 C334.08 0, 354.12 -0.17, 364.93 0 C375.74 0.17, 378.34 -0.41, 382.45 1.02 C386.55 2.45, 388.15 2.94, 389.55 8.58 C390.95 14.23, 390.62 17.28, 390.84 34.91 C391.06 52.55, 390.84 93.58, 390.84 114.41 C390.84 135.23, 391.01 149.68, 390.84 159.84 C390.67 170, 391.23 171.81, 389.82 175.38 C388.4 178.94, 387.17 180.25, 382.37 181.23 C377.56 182.21, 388.22 181.23, 361 181.23 C333.78 181.23, 283.89 181.23, 219.03 181.23 C154.16 181.23, 35.95 181.23, -28.19 181.23 C-92.34 181.23, -133.91 181.23, -165.84 181.23 C-197.77 181.23, -207.13 181.23, -219.76 181.23 C-232.38 181.23, -236.31 182.09, -241.59 181.23 C-246.88 180.37, -249.51 179.15, -251.47 176.06 C-253.43 172.97, -253.05 175.89, -253.37 162.72 C-253.68 149.55, -253.37 117.13, -253.37 97.04 C-253.37 76.95, -253.37 56.09, -253.37 42.18 C-253.37 28.26, -254.33 19.98, -253.37 13.57 C-252.41 7.15, -250.44 5.76, -247.62 3.67 C-244.79 1.58, -242.29 1.45, -236.43 1.01 C-230.57 0.57, -230.36 1.01, -212.45 1.01 C-194.55 1.01, -155.53 1.01, -129.02 1.01 C-102.5 1.01, -74.86 1.18, -53.35 1.01 C-31.85 0.84, -8.89 0.17, 0 0" stroke="none" stroke-width="0" fill="#e1e1e1" fill-rule="evenodd"></path><path d="M0 0 C33.68 0, 157.74 0, 202.08 0 C246.41 0, 246.75 0, 266 0 C285.25 0, 301.1 0, 317.59 0 C334.08 0, 354.12 -0.17, 364.93 0 C375.74 0.17, 378.34 -0.41, 382.45 1.02 C386.55 2.45, 388.15 2.94, 389.55 8.58 C390.95 14.23, 390.62 17.28, 390.84 34.91 C391.06 52.55, 390.84 93.58, 390.84 114.41 C390.84 135.23, 391.01 149.68, 390.84 159.84 C390.67 170, 391.23 171.81, 389.82 175.38 C388.4 178.94, 387.17 180.25, 382.37 181.23 C377.56 182.21, 388.22 181.23, 361 181.23 C333.78 181.23, 283.89 181.23, 219.03 181.23 C154.16 181.23, 35.95 181.23, -28.19 181.23 C-92.34 181.23, -133.91 181.23, -165.84 181.23 C-197.77 181.23, -207.13 181.23, -219.76 181.23 C-232.38 181.23, -236.31 182.09, -241.59 181.23 C-246.88 180.37, -249.51 179.15, -251.47 176.06 C-253.43 172.97, -253.05 175.89, -253.37 162.72 C-253.68 149.55, -253.37 117.13, -253.37 97.04 C-253.37 76.95, -253.37 56.09, -253.37 42.18 C-253.37 28.26, -254.33 19.98, -253.37 13.57 C-252.41 7.15, -250.44 5.76, -247.62 3.67 C-244.79 1.58, -242.29 1.45, -236.43 1.01 C-230.57 0.57, -230.36 1.01, -212.45 1.01 C-194.55 1.01, -155.53 1.01, -129.02 1.01 C-102.5 1.01, -74.86 1.18, -53.35 1.01 C-31.85 0.84, -8.89 0.17, 0 0 M0 0 C33.68 0, 157.74 0, 202.08 0 C246.41 0, 246.75 0, 266 0 C285.25 0, 301.1 0, 317.59 0 C334.08 0, 354.12 -0.17, 364.93 0 C375.74 0.17, 378.34 -0.41, 382.45 1.02 C386.55 2.45, 388.15 2.94, 389.55 8.58 C390.95 14.23, 390.62 17.28, 390.84 34.91 C391.06 52.55, 390.84 93.58, 390.84 114.41 C390.84 135.23, 391.01 149.68, 390.84 159.84 C390.67 170, 391.23 171.81, 389.82 175.38 C388.4 178.94, 387.17 180.25, 382.37 181.23 C377.56 182.21, 388.22 181.23, 361 181.23 C333.78 181.23, 283.89 181.23, 219.03 181.23 C154.16 181.23, 35.95 181.23, -28.19 181.23 C-92.34 181.23, -133.91 181.23, -165.84 181.23 C-197.77 181.23, -207.13 181.23, -219.76 181.23 C-232.38 181.23, -236.31 182.09, -241.59 181.23 C-246.88 180.37, -249.51 179.15, -251.47 176.06 C-253.43 172.97, -253.05 175.89, -253.37 162.72 C-253.68 149.55, -253.37 117.13, -253.37 97.04 C-253.37 76.95, -253.37 56.09, -253.37 42.18 C-253.37 28.26, -254.33 19.98, -253.37 13.57 C-252.41 7.15, -250.44 5.76, -247.62 3.67 C-244.79 1.58, -242.29 1.45, -236.43 1.01 C-230.57 0.57, -230.36 1.01, -212.45 1.01 C-194.55 1.01, -155.53 1.01, -129.02 1.01 C-102.5 1.01, -74.86 1.18, -53.35 1.01 C-31.85 0.84, -8.89 0.17, 0 0" stroke="#E1E1E1" stroke-width="4" fill="none"></path></g></g><mask></mask><g stroke-linecap="round"><g transform="translate(3622.422254639765 455.35953911844626) rotate(0 365.9198188786363 94.52400920493164)" fill-rule="evenodd"><path d="M0 0 C0 27.43, 0 100.53, 0 164.57 C0 228.62, 0 321.04, 0 384.28 C0 447.52, 0 508.92, 0 544.03 C0 579.14, -0.01 582.19, 0 594.92 C0.01 607.65, -1.02 614.27, 0.03 620.39 C1.09 626.51, 2.7 629.42, 6.33 631.65 C9.96 633.87, 9.64 633.38, 21.8 633.72 C33.96 634.07, 58.35 633.72, 79.31 633.72 C100.26 633.72, 132.67 633.72, 147.52 633.72 C162.38 633.72, 161.35 633.74, 168.42 633.72 C175.49 633.71, 185.08 634.89, 189.95 633.62 C194.82 632.35, 196.1 629.56, 197.63 626.1 C199.15 622.64, 198.85 623.47, 199.09 612.88 C199.34 602.29, 199.09 596.38, 199.09 562.56 C199.09 528.73, 199.09 464.44, 199.09 409.93 C199.09 355.43, 199.09 268.15, 199.09 235.55 C199.09 202.95, 199.09 220.37, 199.09 214.34 C199.09 208.31, 197.7 202.38, 199.09 199.39 C200.49 196.39, 200.77 196.85, 207.46 196.35 C214.15 195.84, 227.09 196.35, 239.25 196.35 C251.42 196.35, 270.42 196.35, 280.45 196.35 C290.48 196.35, 293.29 196.35, 299.43 196.35 C305.57 196.35, 313.11 195.15, 317.29 196.35 C321.46 197.55, 320.97 197.08, 324.49 203.55 C328 210.01, 330.19 217.27, 338.38 235.15 C346.57 253.02, 360.76 282.84, 373.63 310.77 C386.5 338.71, 400.35 369.5, 415.62 402.75 C430.89 436, 451.99 481.25, 465.26 510.25 C478.53 539.24, 487.99 561.17, 495.23 576.73 C502.47 592.29, 504.75 595.38, 508.69 603.59 C512.64 611.8, 515.39 621.16, 518.91 625.98 C522.42 630.8, 524.67 631.19, 529.77 632.51 C534.87 633.82, 536.06 633.65, 549.5 633.88 C562.94 634.11, 588.78 633.88, 610.41 633.88 C632.04 633.88, 662.69 633.88, 679.26 633.88 C695.84 633.88, 701.67 634.21, 709.86 633.88 C718.05 633.55, 724.74 633.88, 728.41 631.9 C732.07 629.91, 731.91 626.11, 731.84 621.96 C731.77 617.8, 733.52 619.69, 727.99 606.97 C722.45 594.25, 709.73 569.26, 698.6 545.64 C687.48 522.02, 676.75 498.5, 661.25 465.24 C645.74 431.98, 623.42 384.49, 605.58 346.07 C587.73 307.65, 566.57 261.67, 554.2 234.73 C541.82 207.79, 535.86 195.2, 531.31 184.43 C526.76 173.66, 525.91 173.91, 526.88 170.12 C527.85 166.33, 530.93 165.46, 537.12 161.69 C543.31 157.93, 552.62 153.86, 564 147.51 C575.39 141.15, 592.04 133.1, 605.43 123.56 C618.82 114.01, 632.5 102.05, 644.35 90.24 C656.19 78.44, 667.39 66.17, 676.49 52.73 C685.6 39.29, 692.83 24.82, 699 9.59 C705.18 -5.64, 709.73 -18, 713.55 -38.65 C717.36 -59.29, 720.81 -91.27, 721.89 -114.29 C722.97 -137.32, 722.84 -154.93, 720.04 -176.81 C717.23 -198.69, 712.18 -224.22, 705.04 -245.57 C697.89 -266.92, 689 -286.5, 677.17 -304.91 C665.34 -323.32, 652.15 -340.08, 634.06 -356.05 C615.97 -372.02, 590.74 -389.1, 568.64 -400.74 C546.53 -412.38, 524.49 -419.54, 501.42 -425.88 C478.36 -432.23, 453.95 -435.83, 430.22 -438.8 C406.5 -441.77, 389.01 -442.7, 359.07 -443.71 C329.13 -444.71, 282.2 -444.64, 250.58 -444.83 C218.95 -445.02, 195.4 -444.83, 169.34 -444.83 C143.29 -444.83, 112.91 -444.83, 94.24 -444.83 C75.58 -444.83, 68.58 -444.83, 57.33 -444.83 C46.08 -444.83, 34.74 -444.83, 26.75 -444.83 C18.77 -444.83, 13.45 -446.02, 9.42 -444.83 C5.39 -443.64, 4.01 -442, 2.59 -437.67 C1.18 -433.33, 1.22 -432.9, 0.94 -418.82 C0.66 -404.73, 0.94 -372.36, 0.94 -353.15 C0.94 -333.94, 0.94 -316.74, 0.94 -303.53 C0.94 -290.32, 0.81 -281.67, 0.94 -273.89 C1.07 -266.1, 0.45 -260.49, 1.73 -256.81 C3.01 -253.13, 0.07 -252.65, 8.6 -251.82 C17.14 -250.99, 27.32 -251.82, 52.94 -251.82 C78.57 -251.82, 127.38 -251.82, 162.35 -251.82 C197.33 -251.82, 229.83 -251.78, 262.8 -251.82 C295.77 -251.85, 335.19 -252.92, 360.17 -252.02 C385.15 -251.11, 396.93 -249.89, 412.69 -246.37 C428.45 -242.85, 441.97 -237.56, 454.73 -230.9 C467.48 -224.25, 479.53 -215.93, 489.23 -206.46 C498.92 -196.98, 507.65 -184.93, 512.9 -174.05 C518.14 -163.16, 519.57 -153.99, 520.67 -141.15 C521.77 -128.32, 521.93 -110.46, 519.5 -97.04 C517.07 -83.63, 513.4 -72.49, 506.1 -60.66 C498.8 -48.84, 487.97 -35.28, 475.71 -26.09 C463.44 -16.89, 448.5 -9.85, 432.51 -5.48 C416.53 -1.11, 406.47 -0.81, 379.79 0.13 C353.1 1.06, 314.98 0.13, 272.39 0.13 C229.81 0.13, 169.69 0.15, 124.29 0.13 C78.89 0.11, 20.71 0.02, 0 0" stroke="none" stroke-width="0" fill="#e1e1e1" fill-rule="evenodd"></path><path d="M0 0 C0 27.43, 0 100.53, 0 164.57 C0 228.62, 0 321.04, 0 384.28 C0 447.52, 0 508.92, 0 544.03 C0 579.14, -0.01 582.19, 0 594.92 C0.01 607.65, -1.02 614.27, 0.03 620.39 C1.09 626.51, 2.7 629.42, 6.33 631.65 C9.96 633.87, 9.64 633.38, 21.8 633.72 C33.96 634.07, 58.35 633.72, 79.31 633.72 C100.26 633.72, 132.67 633.72, 147.52 633.72 C162.38 633.72, 161.35 633.74, 168.42 633.72 C175.49 633.71, 185.08 634.89, 189.95 633.62 C194.82 632.35, 196.1 629.56, 197.63 626.1 C199.15 622.64, 198.85 623.47, 199.09 612.88 C199.34 602.29, 199.09 596.38, 199.09 562.56 C199.09 528.73, 199.09 464.44, 199.09 409.93 C199.09 355.43, 199.09 268.15, 199.09 235.55 C199.09 202.95, 199.09 220.37, 199.09 214.34 C199.09 208.31, 197.7 202.38, 199.09 199.39 C200.49 196.39, 200.77 196.85, 207.46 196.35 C214.15 195.84, 227.09 196.35, 239.25 196.35 C251.42 196.35, 270.42 196.35, 280.45 196.35 C290.48 196.35, 293.29 196.35, 299.43 196.35 C305.57 196.35, 313.11 195.15, 317.29 196.35 C321.46 197.55, 320.97 197.08, 324.49 203.55 C328 210.01, 330.19 217.27, 338.38 235.15 C346.57 253.02, 360.76 282.84, 373.63 310.77 C386.5 338.71, 400.35 369.5, 415.62 402.75 C430.89 436, 451.99 481.25, 465.26 510.25 C478.53 539.24, 487.99 561.17, 495.23 576.73 C502.47 592.29, 504.75 595.38, 508.69 603.59 C512.64 611.8, 515.39 621.16, 518.91 625.98 C522.42 630.8, 524.67 631.19, 529.77 632.51 C534.87 633.82, 536.06 633.65, 549.5 633.88 C562.94 634.11, 588.78 633.88, 610.41 633.88 C632.04 633.88, 662.69 633.88, 679.26 633.88 C695.84 633.88, 701.67 634.21, 709.86 633.88 C718.05 633.55, 724.74 633.88, 728.41 631.9 C732.07 629.91, 731.91 626.11, 731.84 621.96 C731.77 617.8, 733.52 619.69, 727.99 606.97 C722.45 594.25, 709.73 569.26, 698.6 545.64 C687.48 522.02, 676.75 498.5, 661.25 465.24 C645.74 431.98, 623.42 384.49, 605.58 346.07 C587.73 307.65, 566.57 261.67, 554.2 234.73 C541.82 207.79, 535.86 195.2, 531.31 184.43 C526.76 173.66, 525.91 173.91, 526.88 170.12 C527.85 166.33, 530.93 165.46, 537.12 161.69 C543.31 157.93, 552.62 153.86, 564 147.51 C575.39 141.15, 592.04 133.1, 605.43 123.56 C618.82 114.01, 632.5 102.05, 644.35 90.24 C656.19 78.44, 667.39 66.17, 676.49 52.73 C685.6 39.29, 692.83 24.82, 699 9.59 C705.18 -5.64, 709.73 -18, 713.55 -38.65 C717.36 -59.29, 720.81 -91.27, 721.89 -114.29 C722.97 -137.32, 722.84 -154.93, 720.04 -176.81 C717.23 -198.69, 712.18 -224.22, 705.04 -245.57 C697.89 -266.92, 689 -286.5, 677.17 -304.91 C665.34 -323.32, 652.15 -340.08, 634.06 -356.05 C615.97 -372.02, 590.74 -389.1, 568.64 -400.74 C546.53 -412.38, 524.49 -419.54, 501.42 -425.88 C478.36 -432.23, 453.95 -435.83, 430.22 -438.8 C406.5 -441.77, 389.01 -442.7, 359.07 -443.71 C329.13 -444.71, 282.2 -444.64, 250.58 -444.83 C218.95 -445.02, 195.4 -444.83, 169.34 -444.83 C143.29 -444.83, 112.91 -444.83, 94.24 -444.83 C75.58 -444.83, 68.58 -444.83, 57.33 -444.83 C46.08 -444.83, 34.74 -444.83, 26.75 -444.83 C18.77 -444.83, 13.45 -446.02, 9.42 -444.83 C5.39 -443.64, 4.01 -442, 2.59 -437.67 C1.18 -433.33, 1.22 -432.9, 0.94 -418.82 C0.66 -404.73, 0.94 -372.36, 0.94 -353.15 C0.94 -333.94, 0.94 -316.74, 0.94 -303.53 C0.94 -290.32, 0.81 -281.67, 0.94 -273.89 C1.07 -266.1, 0.45 -260.49, 1.73 -256.81 C3.01 -253.13, 0.07 -252.65, 8.6 -251.82 C17.14 -250.99, 27.32 -251.82, 52.94 -251.82 C78.57 -251.82, 127.38 -251.82, 162.35 -251.82 C197.33 -251.82, 229.83 -251.78, 262.8 -251.82 C295.77 -251.85, 335.19 -252.92, 360.17 -252.02 C385.15 -251.11, 396.93 -249.89, 412.69 -246.37 C428.45 -242.85, 441.97 -237.56, 454.73 -230.9 C467.48 -224.25, 479.53 -215.93, 489.23 -206.46 C498.92 -196.98, 507.65 -184.93, 512.9 -174.05 C518.14 -163.16, 519.57 -153.99, 520.67 -141.15 C521.77 -128.32, 521.93 -110.46, 519.5 -97.04 C517.07 -83.63, 513.4 -72.49, 506.1 -60.66 C498.8 -48.84, 487.97 -35.28, 475.71 -26.09 C463.44 -16.89, 448.5 -9.85, 432.51 -5.48 C416.53 -1.11, 406.47 -0.81, 379.79 0.13 C353.1 1.06, 314.98 0.13, 272.39 0.13 C229.81 0.13, 169.69 0.15, 124.29 0.13 C78.89 0.11, 20.71 0.02, 0 0 M0 0 C0 27.43, 0 100.53, 0 164.57 C0 228.62, 0 321.04, 0 384.28 C0 447.52, 0 508.92, 0 544.03 C0 579.14, -0.01 582.19, 0 594.92 C0.01 607.65, -1.02 614.27, 0.03 620.39 C1.09 626.51, 2.7 629.42, 6.33 631.65 C9.96 633.87, 9.64 633.38, 21.8 633.72 C33.96 634.07, 58.35 633.72, 79.31 633.72 C100.26 633.72, 132.67 633.72, 147.52 633.72 C162.38 633.72, 161.35 633.74, 168.42 633.72 C175.49 633.71, 185.08 634.89, 189.95 633.62 C194.82 632.35, 196.1 629.56, 197.63 626.1 C199.15 622.64, 198.85 623.47, 199.09 612.88 C199.34 602.29, 199.09 596.38, 199.09 562.56 C199.09 528.73, 199.09 464.44, 199.09 409.93 C199.09 355.43, 199.09 268.15, 199.09 235.55 C199.09 202.95, 199.09 220.37, 199.09 214.34 C199.09 208.31, 197.7 202.38, 199.09 199.39 C200.49 196.39, 200.77 196.85, 207.46 196.35 C214.15 195.84, 227.09 196.35, 239.25 196.35 C251.42 196.35, 270.42 196.35, 280.45 196.35 C290.48 196.35, 293.29 196.35, 299.43 196.35 C305.57 196.35, 313.11 195.15, 317.29 196.35 C321.46 197.55, 320.97 197.08, 324.49 203.55 C328 210.01, 330.19 217.27, 338.38 235.15 C346.57 253.02, 360.76 282.84, 373.63 310.77 C386.5 338.71, 400.35 369.5, 415.62 402.75 C430.89 436, 451.99 481.25, 465.26 510.25 C478.53 539.24, 487.99 561.17, 495.23 576.73 C502.47 592.29, 504.75 595.38, 508.69 603.59 C512.64 611.8, 515.39 621.16, 518.91 625.98 C522.42 630.8, 524.67 631.19, 529.77 632.51 C534.87 633.82, 536.06 633.65, 549.5 633.88 C562.94 634.11, 588.78 633.88, 610.41 633.88 C632.04 633.88, 662.69 633.88, 679.26 633.88 C695.84 633.88, 701.67 634.21, 709.86 633.88 C718.05 633.55, 724.74 633.88, 728.41 631.9 C732.07 629.91, 731.91 626.11, 731.84 621.96 C731.77 617.8, 733.52 619.69, 727.99 606.97 C722.45 594.25, 709.73 569.26, 698.6 545.64 C687.48 522.02, 676.75 498.5, 661.25 465.24 C645.74 431.98, 623.42 384.49, 605.58 346.07 C587.73 307.65, 566.57 261.67, 554.2 234.73 C541.82 207.79, 535.86 195.2, 531.31 184.43 C526.76 173.66, 525.91 173.91, 526.88 170.12 C527.85 166.33, 530.93 165.46, 537.12 161.69 C543.31 157.93, 552.62 153.86, 564 147.51 C575.39 141.15, 592.04 133.1, 605.43 123.56 C618.82 114.01, 632.5 102.05, 644.35 90.24 C656.19 78.44, 667.39 66.17, 676.49 52.73 C685.6 39.29, 692.83 24.82, 699 9.59 C705.18 -5.64, 709.73 -18, 713.55 -38.65 C717.36 -59.29, 720.81 -91.27, 721.89 -114.29 C722.97 -137.32, 722.84 -154.93, 720.04 -176.81 C717.23 -198.69, 712.18 -224.22, 705.04 -245.57 C697.89 -266.92, 689 -286.5, 677.17 -304.91 C665.34 -323.32, 652.15 -340.08, 634.06 -356.05 C615.97 -372.02, 590.74 -389.1, 568.64 -400.74 C546.53 -412.38, 524.49 -419.54, 501.42 -425.88 C478.36 -432.23, 453.95 -435.83, 430.22 -438.8 C406.5 -441.77, 389.01 -442.7, 359.07 -443.71 C329.13 -444.71, 282.2 -444.64, 250.58 -444.83 C218.95 -445.02, 195.4 -444.83, 169.34 -444.83 C143.29 -444.83, 112.91 -444.83, 94.24 -444.83 C75.58 -444.83, 68.58 -444.83, 57.33 -444.83 C46.08 -444.83, 34.74 -444.83, 26.75 -444.83 C18.77 -444.83, 13.45 -446.02, 9.42 -444.83 C5.39 -443.64, 4.01 -442, 2.59 -437.67 C1.18 -433.33, 1.22 -432.9, 0.94 -418.82 C0.66 -404.73, 0.94 -372.36, 0.94 -353.15 C0.94 -333.94, 0.94 -316.74, 0.94 -303.53 C0.94 -290.32, 0.81 -281.67, 0.94 -273.89 C1.07 -266.1, 0.45 -260.49, 1.73 -256.81 C3.01 -253.13, 0.07 -252.65, 8.6 -251.82 C17.14 -250.99, 27.32 -251.82, 52.94 -251.82 C78.57 -251.82, 127.38 -251.82, 162.35 -251.82 C197.33 -251.82, 229.83 -251.78, 262.8 -251.82 C295.77 -251.85, 335.19 -252.92, 360.17 -252.02 C385.15 -251.11, 396.93 -249.89, 412.69 -246.37 C428.45 -242.85, 441.97 -237.56, 454.73 -230.9 C467.48 -224.25, 479.53 -215.93, 489.23 -206.46 C498.92 -196.98, 507.65 -184.93, 512.9 -174.05 C518.14 -163.16, 519.57 -153.99, 520.67 -141.15 C521.77 -128.32, 521.93 -110.46, 519.5 -97.04 C517.07 -83.63, 513.4 -72.49, 506.1 -60.66 C498.8 -48.84, 487.97 -35.28, 475.71 -26.09 C463.44 -16.89, 448.5 -9.85, 432.51 -5.48 C416.53 -1.11, 406.47 -0.81, 379.79 0.13 C353.1 1.06, 314.98 0.13, 272.39 0.13 C229.81 0.13, 169.69 0.15, 124.29 0.13 C78.89 0.11, 20.71 0.02, 0 0" stroke="#E1E1E1" stroke-width="4" fill="none"></path></g></g><mask></mask></svg>