<svg version="1.1" xmlns="http://www.w3.org/2000/svg" viewBox="0 0 5523.644496920709 1007.8693232897876" width="5523.644496920709" height="1007.8693232897876" class="excalidraw-svg"><!-- svg-source:excalidraw --><metadata></metadata><defs><style class="style-fonts">
      </style></defs><rect x="0" y="0" width="5523.644496920709" height="1007.8693232897876" fill="#000000"></rect><g stroke-linecap="round"><g transform="translate(902.2477964250465 417.0765086587435) rotate(0 105.5114847608229 90.2022471234468)" fill-rule="evenodd"><path d="M0 0 C15.01 0, 49.17 0, 90.08 0 C130.99 0, 209.92 0, 245.48 0 C281.04 0, 286.95 0, 303.44 0 C319.93 0, 333.46 0, 344.41 0 C355.36 0, 361.32 -0.16, 369.16 0 C376.99 0.16, 386.94 -0.68, 391.41 0.99 C395.88 2.65, 395.12 6.08, 395.97 9.98 C396.83 13.88, 396.43 9.09, 396.52 24.37 C396.61 39.65, 396.52 83.4, 396.52 101.67 C396.52 119.95, 396.52 124.06, 396.52 134.03 C396.52 144.01, 396.9 155.28, 396.54 161.53 C396.18 167.78, 396 169.41, 394.35 171.53 C392.7 173.65, 391.39 173.79, 386.63 174.24 C381.87 174.69, 385.35 174.24, 365.79 174.24 C346.22 174.24, 307.99 174.24, 269.22 174.24 C230.46 174.24, 164.07 174.24, 133.21 174.24 C102.35 174.24, 101.22 174.24, 84.06 174.24 C66.9 174.24, 42.41 174.24, 30.25 174.24 C18.1 174.24, 16.06 174.12, 11.14 174.24 C6.21 174.36, 2.64 173.06, 0.72 174.93 C-1.2 176.81, -0.22 175.49, -0.41 185.5 C-0.6 195.52, -0.41 211.64, -0.41 235.04 C-0.41 258.44, -0.41 303.84, -0.41 325.92 C-0.41 348.01, -0.41 357.33, -0.41 367.54 C-0.41 377.75, -0.41 381.96, -0.41 387.2 C-0.41 392.45, -1.68 396.9, -0.41 399.01 C0.85 401.13, -1.05 399.74, 7.17 399.88 C15.39 400.03, 32.19 399.88, 48.91 399.88 C65.63 399.88, 88.72 399.88, 107.5 399.88 C126.29 399.88, 141.66 399.88, 161.62 399.88 C181.58 399.88, 212.23 399.88, 227.26 399.88 C242.29 399.88, 245.88 399.88, 251.81 399.88 C257.74 399.88, 259.09 399.88, 262.86 399.88 C266.63 399.88, 272.05 398.46, 274.42 399.88 C276.78 401.3, 276.6 398.49, 277.04 408.4 C277.48 418.32, 277.04 441.28, 277.04 459.39 C277.04 477.49, 277.04 500.52, 277.04 517.04 C277.04 533.56, 277.04 548.79, 277.04 558.51 C277.04 568.24, 278.05 571.73, 277.04 575.38 C276.04 579.03, 278.48 579.58, 271.02 580.42 C263.55 581.25, 262.88 580.42, 232.25 580.42 C201.63 580.42, 135.98 580.42, 87.28 580.42 C38.58 580.42, -25.89 580.42, -59.94 580.42 C-93.98 580.42, -101.51 580.42, -116.97 580.42 C-132.44 580.42, -143.24 580.42, -152.73 580.42 C-162.22 580.42, -168.97 581.26, -173.92 580.42 C-178.88 579.57, -180.54 578.21, -182.48 575.32 C-184.41 572.42, -185.01 571.22, -185.52 563.04 C-186.03 554.86, -185.52 545.05, -185.52 526.24 C-185.52 507.43, -185.52 498.58, -185.52 450.18 C-185.52 401.77, -185.52 286.79, -185.52 235.81 C-185.52 184.82, -185.52 193.51, -185.52 144.26 C-185.52 95.01, -185.52 3.07, -185.52 -59.71 C-185.52 -122.49, -185.52 -184.49, -185.52 -232.41 C-185.52 -280.33, -185.52 -321.94, -185.52 -347.2 C-185.52 -372.47, -186.18 -375.86, -185.52 -383.98 C-184.86 -392.09, -183.85 -393.22, -181.58 -395.89 C-179.31 -398.56, -178.06 -399.32, -171.9 -400.01 C-165.75 -400.7, -164.45 -400.01, -144.65 -400.01 C-124.86 -400.01, -88.93 -400.01, -53.14 -400.01 C-17.34 -400.01, 31.62 -400.01, 70.12 -400.01 C108.61 -400.01, 150.85 -400.01, 177.82 -400.01 C204.78 -400.01, 219.55 -400.01, 231.91 -400.01 C244.27 -400.01, 244.99 -400.01, 251.96 -400.01 C258.94 -400.01, 269.64 -401.54, 273.75 -400.01 C277.85 -398.48, 276.12 -399.05, 276.6 -390.84 C277.07 -382.64, 276.6 -368.27, 276.6 -350.76 C276.6 -333.26, 276.6 -301.23, 276.6 -285.82 C276.6 -270.42, 276.6 -267.21, 276.6 -258.34 C276.6 -249.47, 278.3 -237.86, 276.6 -232.59 C274.9 -227.32, 278.65 -227.69, 266.41 -226.71 C254.18 -225.73, 230.16 -226.71, 203.2 -226.71 C176.25 -226.71, 132.42 -226.71, 104.67 -226.71 C76.92 -226.71, 51.93 -226.71, 36.72 -226.71 C21.5 -226.71, 19.25 -226.71, 13.39 -226.71 C7.52 -226.71, 3.78 -228.21, 1.51 -226.71 C-0.77 -225.22, 0.04 -228.55, -0.25 -217.73 C-0.54 -206.91, -0.29 -198.08, -0.25 -161.79 C-0.21 -125.5, -0.04 -26.97, 0 0" stroke="none" stroke-width="0" fill="#e1e1e1" fill-rule="evenodd"></path><path d="M0 0 C15.01 0, 49.17 0, 90.08 0 C130.99 0, 209.92 0, 245.48 0 C281.04 0, 286.95 0, 303.44 0 C319.93 0, 333.46 0, 344.41 0 C355.36 0, 361.32 -0.16, 369.16 0 C376.99 0.16, 386.94 -0.68, 391.41 0.99 C395.88 2.65, 395.12 6.08, 395.97 9.98 C396.83 13.88, 396.43 9.09, 396.52 24.37 C396.61 39.65, 396.52 83.4, 396.52 101.67 C396.52 119.95, 396.52 124.06, 396.52 134.03 C396.52 144.01, 396.9 155.28, 396.54 161.53 C396.18 167.78, 396 169.41, 394.35 171.53 C392.7 173.65, 391.39 173.79, 386.63 174.24 C381.87 174.69, 385.35 174.24, 365.79 174.24 C346.22 174.24, 307.99 174.24, 269.22 174.24 C230.46 174.24, 164.07 174.24, 133.21 174.24 C102.35 174.24, 101.22 174.24, 84.06 174.24 C66.9 174.24, 42.41 174.24, 30.25 174.24 C18.1 174.24, 16.06 174.12, 11.14 174.24 C6.21 174.36, 2.64 173.06, 0.72 174.93 C-1.2 176.81, -0.22 175.49, -0.41 185.5 C-0.6 195.52, -0.41 211.64, -0.41 235.04 C-0.41 258.44, -0.41 303.84, -0.41 325.92 C-0.41 348.01, -0.41 357.33, -0.41 367.54 C-0.41 377.75, -0.41 381.96, -0.41 387.2 C-0.41 392.45, -1.68 396.9, -0.41 399.01 C0.85 401.13, -1.05 399.74, 7.17 399.88 C15.39 400.03, 32.19 399.88, 48.91 399.88 C65.63 399.88, 88.72 399.88, 107.5 399.88 C126.29 399.88, 141.66 399.88, 161.62 399.88 C181.58 399.88, 212.23 399.88, 227.26 399.88 C242.29 399.88, 245.88 399.88, 251.81 399.88 C257.74 399.88, 259.09 399.88, 262.86 399.88 C266.63 399.88, 272.05 398.46, 274.42 399.88 C276.78 401.3, 276.6 398.49, 277.04 408.4 C277.48 418.32, 277.04 441.28, 277.04 459.39 C277.04 477.49, 277.04 500.52, 277.04 517.04 C277.04 533.56, 277.04 548.79, 277.04 558.51 C277.04 568.24, 278.05 571.73, 277.04 575.38 C276.04 579.03, 278.48 579.58, 271.02 580.42 C263.55 581.25, 262.88 580.42, 232.25 580.42 C201.63 580.42, 135.98 580.42, 87.28 580.42 C38.58 580.42, -25.89 580.42, -59.94 580.42 C-93.98 580.42, -101.51 580.42, -116.97 580.42 C-132.44 580.42, -143.24 580.42, -152.73 580.42 C-162.22 580.42, -168.97 581.26, -173.92 580.42 C-178.88 579.57, -180.54 578.21, -182.48 575.32 C-184.41 572.42, -185.01 571.22, -185.52 563.04 C-186.03 554.86, -185.52 545.05, -185.52 526.24 C-185.52 507.43, -185.52 498.58, -185.52 450.18 C-185.52 401.77, -185.52 286.79, -185.52 235.81 C-185.52 184.82, -185.52 193.51, -185.52 144.26 C-185.52 95.01, -185.52 3.07, -185.52 -59.71 C-185.52 -122.49, -185.52 -184.49, -185.52 -232.41 C-185.52 -280.33, -185.52 -321.94, -185.52 -347.2 C-185.52 -372.47, -186.18 -375.86, -185.52 -383.98 C-184.86 -392.09, -183.85 -393.22, -181.58 -395.89 C-179.31 -398.56, -178.06 -399.32, -171.9 -400.01 C-165.75 -400.7, -164.45 -400.01, -144.65 -400.01 C-124.86 -400.01, -88.93 -400.01, -53.14 -400.01 C-17.34 -400.01, 31.62 -400.01, 70.12 -400.01 C108.61 -400.01, 150.85 -400.01, 177.82 -400.01 C204.78 -400.01, 219.55 -400.01, 231.91 -400.01 C244.27 -400.01, 244.99 -400.01, 251.96 -400.01 C258.94 -400.01, 269.64 -401.54, 273.75 -400.01 C277.85 -398.48, 276.12 -399.05, 276.6 -390.84 C277.07 -382.64, 276.6 -368.27, 276.6 -350.76 C276.6 -333.26, 276.6 -301.23, 276.6 -285.82 C276.6 -270.42, 276.6 -267.21, 276.6 -258.34 C276.6 -249.47, 278.3 -237.86, 276.6 -232.59 C274.9 -227.32, 278.65 -227.69, 266.41 -226.71 C254.18 -225.73, 230.16 -226.71, 203.2 -226.71 C176.25 -226.71, 132.42 -226.71, 104.67 -226.71 C76.92 -226.71, 51.93 -226.71, 36.72 -226.71 C21.5 -226.71, 19.25 -226.71, 13.39 -226.71 C7.52 -226.71, 3.78 -228.21, 1.51 -226.71 C-0.77 -225.22, 0.04 -228.55, -0.25 -217.73 C-0.54 -206.91, -0.29 -198.08, -0.25 -161.79 C-0.21 -125.5, -0.04 -26.97, 0 0 M0 0 C15.01 0, 49.17 0, 90.08 0 C130.99 0, 209.92 0, 245.48 0 C281.04 0, 286.95 0, 303.44 0 C319.93 0, 333.46 0, 344.41 0 C355.36 0, 361.32 -0.16, 369.16 0 C376.99 0.16, 386.94 -0.68, 391.41 0.99 C395.88 2.65, 395.12 6.08, 395.97 9.98 C396.83 13.88, 396.43 9.09, 396.52 24.37 C396.61 39.65, 396.52 83.4, 396.52 101.67 C396.52 119.95, 396.52 124.06, 396.52 134.03 C396.52 144.01, 396.9 155.28, 396.54 161.53 C396.18 167.78, 396 169.41, 394.35 171.53 C392.7 173.65, 391.39 173.79, 386.63 174.24 C381.87 174.69, 385.35 174.24, 365.79 174.24 C346.22 174.24, 307.99 174.24, 269.22 174.24 C230.46 174.24, 164.07 174.24, 133.21 174.24 C102.35 174.24, 101.22 174.24, 84.06 174.24 C66.9 174.24, 42.41 174.24, 30.25 174.24 C18.1 174.24, 16.06 174.12, 11.14 174.24 C6.21 174.36, 2.64 173.06, 0.72 174.93 C-1.2 176.81, -0.22 175.49, -0.41 185.5 C-0.6 195.52, -0.41 211.64, -0.41 235.04 C-0.41 258.44, -0.41 303.84, -0.41 325.92 C-0.41 348.01, -0.41 357.33, -0.41 367.54 C-0.41 377.75, -0.41 381.96, -0.41 387.2 C-0.41 392.45, -1.68 396.9, -0.41 399.01 C0.85 401.13, -1.05 399.74, 7.17 399.88 C15.39 400.03, 32.19 399.88, 48.91 399.88 C65.63 399.88, 88.72 399.88, 107.5 399.88 C126.29 399.88, 141.66 399.88, 161.62 399.88 C181.58 399.88, 212.23 399.88, 227.26 399.88 C242.29 399.88, 245.88 399.88, 251.81 399.88 C257.74 399.88, 259.09 399.88, 262.86 399.88 C266.63 399.88, 272.05 398.46, 274.42 399.88 C276.78 401.3, 276.6 398.49, 277.04 408.4 C277.48 418.32, 277.04 441.28, 277.04 459.39 C277.04 477.49, 277.04 500.52, 277.04 517.04 C277.04 533.56, 277.04 548.79, 277.04 558.51 C277.04 568.24, 278.05 571.73, 277.04 575.38 C276.04 579.03, 278.48 579.58, 271.02 580.42 C263.55 581.25, 262.88 580.42, 232.25 580.42 C201.63 580.42, 135.98 580.42, 87.28 580.42 C38.58 580.42, -25.89 580.42, -59.94 580.42 C-93.98 580.42, -101.51 580.42, -116.97 580.42 C-132.44 580.42, -143.24 580.42, -152.73 580.42 C-162.22 580.42, -168.97 581.26, -173.92 580.42 C-178.88 579.57, -180.54 578.21, -182.48 575.32 C-184.41 572.42, -185.01 571.22, -185.52 563.04 C-186.03 554.86, -185.52 545.05, -185.52 526.24 C-185.52 507.43, -185.52 498.58, -185.52 450.18 C-185.52 401.77, -185.52 286.79, -185.52 235.81 C-185.52 184.82, -185.52 193.51, -185.52 144.26 C-185.52 95.01, -185.52 3.07, -185.52 -59.71 C-185.52 -122.49, -185.52 -184.49, -185.52 -232.41 C-185.52 -280.33, -185.52 -321.94, -185.52 -347.2 C-185.52 -372.47, -186.18 -375.86, -185.52 -383.98 C-184.86 -392.09, -183.85 -393.22, -181.58 -395.89 C-179.31 -398.56, -178.06 -399.32, -171.9 -400.01 C-165.75 -400.7, -164.45 -400.01, -144.65 -400.01 C-124.86 -400.01, -88.93 -400.01, -53.14 -400.01 C-17.34 -400.01, 31.62 -400.01, 70.12 -400.01 C108.61 -400.01, 150.85 -400.01, 177.82 -400.01 C204.78 -400.01, 219.55 -400.01, 231.91 -400.01 C244.27 -400.01, 244.99 -400.01, 251.96 -400.01 C258.94 -400.01, 269.64 -401.54, 273.75 -400.01 C277.85 -398.48, 276.12 -399.05, 276.6 -390.84 C277.07 -382.64, 276.6 -368.27, 276.6 -350.76 C276.6 -333.26, 276.6 -301.23, 276.6 -285.82 C276.6 -270.42, 276.6 -267.21, 276.6 -258.34 C276.6 -249.47, 278.3 -237.86, 276.6 -232.59 C274.9 -227.32, 278.65 -227.69, 266.41 -226.71 C254.18 -225.73, 230.16 -226.71, 203.2 -226.71 C176.25 -226.71, 132.42 -226.71, 104.67 -226.71 C76.92 -226.71, 51.93 -226.71, 36.72 -226.71 C21.5 -226.71, 19.25 -226.71, 13.39 -226.71 C7.52 -226.71, 3.78 -228.21, 1.51 -226.71 C-0.77 -225.22, 0.04 -228.55, -0.25 -217.73 C-0.54 -206.91, -0.29 -198.08, -0.25 -161.79 C-0.21 -125.5, -0.04 -26.97, 0 0" stroke="#E1E1E1" stroke-width="4" fill="none"></path></g></g><mask></mask><g stroke-linecap="round"><g transform="translate(3414.4307336456786 415.59924194114865) rotate(0 333.21088629989754 86.07467335416823)" fill-rule="evenodd"><path d="M0 0 C0 24.98, 0 91.54, 0 149.86 C0 208.18, 0 292.34, 0 349.93 C0 407.52, 0 463.43, 0 495.4 C0 527.37, 0 530.15, 0 541.74 C0 553.33, -0.93 559.36, 0.03 564.93 C0.99 570.51, 2.46 573.16, 5.77 575.18 C9.07 577.21, 8.77 576.76, 19.85 577.08 C30.92 577.39, 53.14 577.08, 72.22 577.08 C91.3 577.08, 120.81 577.08, 134.34 577.08 C147.86 577.08, 146.92 577.09, 153.36 577.08 C159.8 577.06, 168.54 578.14, 172.97 576.99 C177.4 575.83, 178.57 573.28, 179.96 570.13 C181.35 566.99, 181.07 567.74, 181.3 558.1 C181.52 548.45, 181.3 543.07, 181.3 512.27 C181.3 481.47, 181.3 422.92, 181.3 373.29 C181.3 323.66, 181.3 244.18, 181.3 214.5 C181.3 184.81, 181.3 200.67, 181.3 195.18 C181.3 189.69, 180.03 184.29, 181.3 181.56 C182.57 178.83, 182.82 179.26, 188.91 178.8 C195.01 178.34, 206.79 178.8, 217.87 178.8 C228.94 178.8, 246.25 178.8, 255.38 178.8 C264.52 178.8, 267.08 178.8, 272.67 178.8 C278.26 178.8, 285.12 177.7, 288.92 178.8 C292.73 179.89, 292.28 179.46, 295.48 185.35 C298.68 191.24, 300.67 197.85, 308.13 214.13 C315.59 230.4, 328.51 257.56, 340.23 283 C351.96 308.43, 364.56 336.48, 378.47 366.75 C392.38 397.02, 411.59 438.23, 423.67 464.64 C435.76 491.04, 444.37 511.01, 450.96 525.18 C457.55 539.34, 459.63 542.16, 463.22 549.64 C466.81 557.11, 469.32 565.63, 472.52 570.02 C475.72 574.41, 477.77 574.77, 482.41 575.97 C487.06 577.17, 488.14 577.01, 500.38 577.22 C512.62 577.42, 536.15 577.22, 555.84 577.22 C575.54 577.22, 603.45 577.22, 618.55 577.22 C633.64 577.22, 638.95 577.52, 646.4 577.22 C653.86 576.92, 659.96 577.22, 663.3 575.41 C666.63 573.6, 666.49 570.15, 666.42 566.36 C666.36 562.58, 667.96 564.29, 662.91 552.71 C657.87 541.13, 646.28 518.37, 636.16 496.86 C626.03 475.35, 616.26 453.94, 602.14 423.65 C588.02 393.37, 567.69 350.12, 551.44 315.14 C535.2 280.15, 515.93 238.28, 504.66 213.74 C493.39 189.21, 487.96 177.75, 483.82 167.94 C479.67 158.14, 478.9 158.36, 479.78 154.91 C480.66 151.46, 483.47 150.67, 489.11 147.24 C494.74 143.81, 503.22 140.11, 513.59 134.32 C523.95 128.53, 539.12 121.2, 551.31 112.51 C563.51 103.82, 575.96 92.92, 586.75 82.18 C597.53 71.43, 607.73 60.26, 616.02 48.02 C624.32 35.78, 630.9 22.6, 636.52 8.73 C642.14 -5.14, 646.29 -16.39, 649.76 -35.19 C653.24 -53.99, 656.38 -83.11, 657.36 -104.08 C658.35 -125.05, 658.23 -141.08, 655.67 -161 C653.12 -180.93, 648.52 -204.18, 642.01 -223.62 C635.51 -243.06, 627.41 -260.89, 616.64 -277.66 C605.87 -294.42, 593.86 -309.68, 577.38 -324.22 C560.91 -338.77, 537.94 -354.32, 517.81 -364.92 C497.68 -375.52, 477.61 -382.04, 456.6 -387.81 C435.6 -393.59, 413.37 -396.87, 391.76 -399.58 C370.16 -402.28, 354.24 -403.13, 326.98 -404.05 C299.71 -404.96, 256.97 -404.9, 228.18 -405.07 C199.38 -405.24, 177.93 -405.07, 154.2 -405.07 C130.48 -405.07, 102.82 -405.07, 85.82 -405.07 C68.82 -405.07, 62.45 -405.07, 52.21 -405.07 C41.96 -405.07, 31.63 -405.07, 24.36 -405.07 C17.09 -405.07, 12.24 -406.15, 8.58 -405.07 C4.91 -403.98, 3.65 -402.49, 2.36 -398.54 C1.07 -394.6, 1.11 -394.21, 0.86 -381.38 C0.61 -368.55, 0.86 -339.08, 0.86 -321.58 C0.86 -304.09, 0.86 -288.43, 0.86 -276.4 C0.86 -264.37, 0.74 -256.5, 0.86 -249.4 C0.98 -242.31, 0.41 -237.2, 1.58 -233.85 C2.74 -230.5, 0.06 -230.07, 7.83 -229.31 C15.61 -228.55, 24.87 -229.31, 48.21 -229.31 C71.54 -229.31, 115.99 -229.31, 147.84 -229.31 C179.69 -229.31, 209.29 -229.28, 239.31 -229.31 C269.33 -229.34, 305.23 -230.31, 327.97 -229.49 C350.72 -228.66, 361.45 -227.55, 375.8 -224.35 C390.15 -221.15, 402.46 -216.32, 414.08 -210.26 C425.69 -204.21, 436.67 -196.63, 445.49 -188 C454.32 -179.37, 462.28 -168.4, 467.05 -158.49 C471.82 -148.58, 473.12 -140.22, 474.13 -128.53 C475.13 -116.85, 475.27 -100.58, 473.06 -88.37 C470.85 -76.15, 467.51 -66.01, 460.86 -55.24 C454.22 -44.47, 444.35 -32.13, 433.18 -23.76 C422.02 -15.38, 408.41 -8.97, 393.85 -4.99 C379.29 -1.01, 370.14 -0.74, 345.84 0.12 C321.54 0.97, 286.82 0.12, 248.05 0.12 C209.27 0.12, 154.52 0.13, 113.18 0.12 C71.84 0.1, 18.86 0.02, 0 0" stroke="none" stroke-width="0" fill="#e1e1e1" fill-rule="evenodd"></path><path d="M0 0 C0 24.98, 0 91.54, 0 149.86 C0 208.18, 0 292.34, 0 349.93 C0 407.52, 0 463.43, 0 495.4 C0 527.37, 0 530.15, 0 541.74 C0 553.33, -0.93 559.36, 0.03 564.93 C0.99 570.51, 2.46 573.16, 5.77 575.18 C9.07 577.21, 8.77 576.76, 19.85 577.08 C30.92 577.39, 53.14 577.08, 72.22 577.08 C91.3 577.08, 120.81 577.08, 134.34 577.08 C147.86 577.08, 146.92 577.09, 153.36 577.08 C159.8 577.06, 168.54 578.14, 172.97 576.99 C177.4 575.83, 178.57 573.28, 179.96 570.13 C181.35 566.99, 181.07 567.74, 181.3 558.1 C181.52 548.45, 181.3 543.07, 181.3 512.27 C181.3 481.47, 181.3 422.92, 181.3 373.29 C181.3 323.66, 181.3 244.18, 181.3 214.5 C181.3 184.81, 181.3 200.67, 181.3 195.18 C181.3 189.69, 180.03 184.29, 181.3 181.56 C182.57 178.83, 182.82 179.26, 188.91 178.8 C195.01 178.34, 206.79 178.8, 217.87 178.8 C228.94 178.8, 246.25 178.8, 255.38 178.8 C264.52 178.8, 267.08 178.8, 272.67 178.8 C278.26 178.8, 285.12 177.7, 288.92 178.8 C292.73 179.89, 292.28 179.46, 295.48 185.35 C298.68 191.24, 300.67 197.85, 308.13 214.13 C315.59 230.4, 328.51 257.56, 340.23 283 C351.96 308.43, 364.56 336.48, 378.47 366.75 C392.38 397.02, 411.59 438.23, 423.67 464.64 C435.76 491.04, 444.37 511.01, 450.96 525.18 C457.55 539.34, 459.63 542.16, 463.22 549.64 C466.81 557.11, 469.32 565.63, 472.52 570.02 C475.72 574.41, 477.77 574.77, 482.41 575.97 C487.06 577.17, 488.14 577.01, 500.38 577.22 C512.62 577.42, 536.15 577.22, 555.84 577.22 C575.54 577.22, 603.45 577.22, 618.55 577.22 C633.64 577.22, 638.95 577.52, 646.4 577.22 C653.86 576.92, 659.96 577.22, 663.3 575.41 C666.63 573.6, 666.49 570.15, 666.42 566.36 C666.36 562.58, 667.96 564.29, 662.91 552.71 C657.87 541.13, 646.28 518.37, 636.16 496.86 C626.03 475.35, 616.26 453.94, 602.14 423.65 C588.02 393.37, 567.69 350.12, 551.44 315.14 C535.2 280.15, 515.93 238.28, 504.66 213.74 C493.39 189.21, 487.96 177.75, 483.82 167.94 C479.67 158.14, 478.9 158.36, 479.78 154.91 C480.66 151.46, 483.47 150.67, 489.11 147.24 C494.74 143.81, 503.22 140.11, 513.59 134.32 C523.95 128.53, 539.12 121.2, 551.31 112.51 C563.51 103.82, 575.96 92.92, 586.75 82.18 C597.53 71.43, 607.73 60.26, 616.02 48.02 C624.32 35.78, 630.9 22.6, 636.52 8.73 C642.14 -5.14, 646.29 -16.39, 649.76 -35.19 C653.24 -53.99, 656.38 -83.11, 657.36 -104.08 C658.35 -125.05, 658.23 -141.08, 655.67 -161 C653.12 -180.93, 648.52 -204.18, 642.01 -223.62 C635.51 -243.06, 627.41 -260.89, 616.64 -277.66 C605.87 -294.42, 593.86 -309.68, 577.38 -324.22 C560.91 -338.77, 537.94 -354.32, 517.81 -364.92 C497.68 -375.52, 477.61 -382.04, 456.6 -387.81 C435.6 -393.59, 413.37 -396.87, 391.76 -399.58 C370.16 -402.28, 354.24 -403.13, 326.98 -404.05 C299.71 -404.96, 256.97 -404.9, 228.18 -405.07 C199.38 -405.24, 177.93 -405.07, 154.2 -405.07 C130.48 -405.07, 102.82 -405.07, 85.82 -405.07 C68.82 -405.07, 62.45 -405.07, 52.21 -405.07 C41.96 -405.07, 31.63 -405.07, 24.36 -405.07 C17.09 -405.07, 12.24 -406.15, 8.58 -405.07 C4.91 -403.98, 3.65 -402.49, 2.36 -398.54 C1.07 -394.6, 1.11 -394.21, 0.86 -381.38 C0.61 -368.55, 0.86 -339.08, 0.86 -321.58 C0.86 -304.09, 0.86 -288.43, 0.86 -276.4 C0.86 -264.37, 0.74 -256.5, 0.86 -249.4 C0.98 -242.31, 0.41 -237.2, 1.58 -233.85 C2.74 -230.5, 0.06 -230.07, 7.83 -229.31 C15.61 -228.55, 24.87 -229.31, 48.21 -229.31 C71.54 -229.31, 115.99 -229.31, 147.84 -229.31 C179.69 -229.31, 209.29 -229.28, 239.31 -229.31 C269.33 -229.34, 305.23 -230.31, 327.97 -229.49 C350.72 -228.66, 361.45 -227.55, 375.8 -224.35 C390.15 -221.15, 402.46 -216.32, 414.08 -210.26 C425.69 -204.21, 436.67 -196.63, 445.49 -188 C454.32 -179.37, 462.28 -168.4, 467.05 -158.49 C471.82 -148.58, 473.12 -140.22, 474.13 -128.53 C475.13 -116.85, 475.27 -100.58, 473.06 -88.37 C470.85 -76.15, 467.51 -66.01, 460.86 -55.24 C454.22 -44.47, 444.35 -32.13, 433.18 -23.76 C422.02 -15.38, 408.41 -8.97, 393.85 -4.99 C379.29 -1.01, 370.14 -0.74, 345.84 0.12 C321.54 0.97, 286.82 0.12, 248.05 0.12 C209.27 0.12, 154.52 0.13, 113.18 0.12 C71.84 0.1, 18.86 0.02, 0 0 M0 0 C0 24.98, 0 91.54, 0 149.86 C0 208.18, 0 292.34, 0 349.93 C0 407.52, 0 463.43, 0 495.4 C0 527.37, 0 530.15, 0 541.74 C0 553.33, -0.93 559.36, 0.03 564.93 C0.99 570.51, 2.46 573.16, 5.77 575.18 C9.07 577.21, 8.77 576.76, 19.85 577.08 C30.92 577.39, 53.14 577.08, 72.22 577.08 C91.3 577.08, 120.81 577.08, 134.34 577.08 C147.86 577.08, 146.92 577.09, 153.36 577.08 C159.8 577.06, 168.54 578.14, 172.97 576.99 C177.4 575.83, 178.57 573.28, 179.96 570.13 C181.35 566.99, 181.07 567.74, 181.3 558.1 C181.52 548.45, 181.3 543.07, 181.3 512.27 C181.3 481.47, 181.3 422.92, 181.3 373.29 C181.3 323.66, 181.3 244.18, 181.3 214.5 C181.3 184.81, 181.3 200.67, 181.3 195.18 C181.3 189.69, 180.03 184.29, 181.3 181.56 C182.57 178.83, 182.82 179.26, 188.91 178.8 C195.01 178.34, 206.79 178.8, 217.87 178.8 C228.94 178.8, 246.25 178.8, 255.38 178.8 C264.52 178.8, 267.08 178.8, 272.67 178.8 C278.26 178.8, 285.12 177.7, 288.92 178.8 C292.73 179.89, 292.28 179.46, 295.48 185.35 C298.68 191.24, 300.67 197.85, 308.13 214.13 C315.59 230.4, 328.51 257.56, 340.23 283 C351.96 308.43, 364.56 336.48, 378.47 366.75 C392.38 397.02, 411.59 438.23, 423.67 464.64 C435.76 491.04, 444.37 511.01, 450.96 525.18 C457.55 539.34, 459.63 542.16, 463.22 549.64 C466.81 557.11, 469.32 565.63, 472.52 570.02 C475.72 574.41, 477.77 574.77, 482.41 575.97 C487.06 577.17, 488.14 577.01, 500.38 577.22 C512.62 577.42, 536.15 577.22, 555.84 577.22 C575.54 577.22, 603.45 577.22, 618.55 577.22 C633.64 577.22, 638.95 577.52, 646.4 577.22 C653.86 576.92, 659.96 577.22, 663.3 575.41 C666.63 573.6, 666.49 570.15, 666.42 566.36 C666.36 562.58, 667.96 564.29, 662.91 552.71 C657.87 541.13, 646.28 518.37, 636.16 496.86 C626.03 475.35, 616.26 453.94, 602.14 423.65 C588.02 393.37, 567.69 350.12, 551.44 315.14 C535.2 280.15, 515.93 238.28, 504.66 213.74 C493.39 189.21, 487.96 177.75, 483.82 167.94 C479.67 158.14, 478.9 158.36, 479.78 154.91 C480.66 151.46, 483.47 150.67, 489.11 147.24 C494.74 143.81, 503.22 140.11, 513.59 134.32 C523.95 128.53, 539.12 121.2, 551.31 112.51 C563.51 103.82, 575.96 92.92, 586.75 82.18 C597.53 71.43, 607.73 60.26, 616.02 48.02 C624.32 35.78, 630.9 22.6, 636.52 8.73 C642.14 -5.14, 646.29 -16.39, 649.76 -35.19 C653.24 -53.99, 656.38 -83.11, 657.36 -104.08 C658.35 -125.05, 658.23 -141.08, 655.67 -161 C653.12 -180.93, 648.52 -204.18, 642.01 -223.62 C635.51 -243.06, 627.41 -260.89, 616.64 -277.66 C605.87 -294.42, 593.86 -309.68, 577.38 -324.22 C560.91 -338.77, 537.94 -354.32, 517.81 -364.92 C497.68 -375.52, 477.61 -382.04, 456.6 -387.81 C435.6 -393.59, 413.37 -396.87, 391.76 -399.58 C370.16 -402.28, 354.24 -403.13, 326.98 -404.05 C299.71 -404.96, 256.97 -404.9, 228.18 -405.07 C199.38 -405.24, 177.93 -405.07, 154.2 -405.07 C130.48 -405.07, 102.82 -405.07, 85.82 -405.07 C68.82 -405.07, 62.45 -405.07, 52.21 -405.07 C41.96 -405.07, 31.63 -405.07, 24.36 -405.07 C17.09 -405.07, 12.24 -406.15, 8.58 -405.07 C4.91 -403.98, 3.65 -402.49, 2.36 -398.54 C1.07 -394.6, 1.11 -394.21, 0.86 -381.38 C0.61 -368.55, 0.86 -339.08, 0.86 -321.58 C0.86 -304.09, 0.86 -288.43, 0.86 -276.4 C0.86 -264.37, 0.74 -256.5, 0.86 -249.4 C0.98 -242.31, 0.41 -237.2, 1.58 -233.85 C2.74 -230.5, 0.06 -230.07, 7.83 -229.31 C15.61 -228.55, 24.87 -229.31, 48.21 -229.31 C71.54 -229.31, 115.99 -229.31, 147.84 -229.31 C179.69 -229.31, 209.29 -229.28, 239.31 -229.31 C269.33 -229.34, 305.23 -230.31, 327.97 -229.49 C350.72 -228.66, 361.45 -227.55, 375.8 -224.35 C390.15 -221.15, 402.46 -216.32, 414.08 -210.26 C425.69 -204.21, 436.67 -196.63, 445.49 -188 C454.32 -179.37, 462.28 -168.4, 467.05 -158.49 C471.82 -148.58, 473.12 -140.22, 474.13 -128.53 C475.13 -116.85, 475.27 -100.58, 473.06 -88.37 C470.85 -76.15, 467.51 -66.01, 460.86 -55.24 C454.22 -44.47, 444.35 -32.13, 433.18 -23.76 C422.02 -15.38, 408.41 -8.97, 393.85 -4.99 C379.29 -1.01, 370.14 -0.74, 345.84 0.12 C321.54 0.97, 286.82 0.12, 248.05 0.12 C209.27 0.12, 154.52 0.13, 113.18 0.12 C71.84 0.1, 18.86 0.02, 0 0" stroke="#E1E1E1" stroke-width="4" fill="none"></path></g></g><mask></mask><g stroke-linecap="round"><g transform="translate(10.403947931386938 416.492099084011) rotate(0 333.21088629989754 86.07467335416823)" fill-rule="evenodd"><path d="M0 0 C0 24.98, 0 91.54, 0 149.86 C0 208.18, 0 292.34, 0 349.93 C0 407.52, 0 463.43, 0 495.4 C0 527.37, 0 530.15, 0 541.74 C0 553.33, -0.93 559.36, 0.03 564.93 C0.99 570.51, 2.46 573.16, 5.77 575.18 C9.07 577.21, 8.77 576.76, 19.85 577.08 C30.92 577.39, 53.14 577.08, 72.22 577.08 C91.3 577.08, 120.81 577.08, 134.34 577.08 C147.86 577.08, 146.92 577.09, 153.36 577.08 C159.8 577.06, 168.54 578.14, 172.97 576.99 C177.4 575.83, 178.57 573.28, 179.96 570.13 C181.35 566.99, 181.07 567.74, 181.3 558.1 C181.52 548.45, 181.3 543.07, 181.3 512.27 C181.3 481.47, 181.3 422.92, 181.3 373.29 C181.3 323.66, 181.3 244.18, 181.3 214.5 C181.3 184.81, 181.3 200.67, 181.3 195.18 C181.3 189.69, 180.03 184.29, 181.3 181.56 C182.57 178.83, 182.82 179.26, 188.91 178.8 C195.01 178.34, 206.79 178.8, 217.87 178.8 C228.94 178.8, 246.25 178.8, 255.38 178.8 C264.52 178.8, 267.08 178.8, 272.67 178.8 C278.26 178.8, 285.12 177.7, 288.92 178.8 C292.73 179.89, 292.28 179.46, 295.48 185.35 C298.68 191.24, 300.67 197.85, 308.13 214.13 C315.59 230.4, 328.51 257.56, 340.23 283 C351.96 308.43, 364.56 336.48, 378.47 366.75 C392.38 397.02, 411.59 438.23, 423.67 464.64 C435.76 491.04, 444.37 511.01, 450.96 525.18 C457.55 539.34, 459.63 542.16, 463.22 549.64 C466.81 557.11, 469.32 565.63, 472.52 570.02 C475.72 574.41, 477.77 574.77, 482.41 575.97 C487.06 577.17, 488.14 577.01, 500.38 577.22 C512.62 577.42, 536.15 577.22, 555.84 577.22 C575.54 577.22, 603.45 577.22, 618.55 577.22 C633.64 577.22, 638.95 577.52, 646.4 577.22 C653.86 576.92, 659.96 577.22, 663.3 575.41 C666.63 573.6, 666.49 570.15, 666.42 566.36 C666.36 562.58, 667.96 564.29, 662.91 552.71 C657.87 541.13, 646.28 518.37, 636.16 496.86 C626.03 475.35, 616.26 453.94, 602.14 423.65 C588.02 393.37, 567.69 350.12, 551.44 315.14 C535.2 280.15, 515.93 238.28, 504.66 213.74 C493.39 189.21, 487.96 177.75, 483.82 167.94 C479.67 158.14, 478.9 158.36, 479.78 154.91 C480.66 151.46, 483.47 150.67, 489.11 147.24 C494.74 143.81, 503.22 140.11, 513.59 134.32 C523.95 128.53, 539.12 121.2, 551.31 112.51 C563.51 103.82, 575.96 92.92, 586.75 82.18 C597.53 71.43, 607.73 60.26, 616.02 48.02 C624.32 35.78, 630.9 22.6, 636.52 8.73 C642.14 -5.14, 646.29 -16.39, 649.76 -35.19 C653.24 -53.99, 656.38 -83.11, 657.36 -104.08 C658.35 -125.05, 658.23 -141.08, 655.67 -161 C653.12 -180.93, 648.52 -204.18, 642.01 -223.62 C635.51 -243.06, 627.41 -260.89, 616.64 -277.66 C605.87 -294.42, 593.86 -309.68, 577.38 -324.22 C560.91 -338.77, 537.94 -354.32, 517.81 -364.92 C497.68 -375.52, 477.61 -382.04, 456.6 -387.81 C435.6 -393.59, 413.37 -396.87, 391.76 -399.58 C370.16 -402.28, 354.24 -403.13, 326.98 -404.05 C299.71 -404.96, 256.97 -404.9, 228.18 -405.07 C199.38 -405.24, 177.93 -405.07, 154.2 -405.07 C130.48 -405.07, 102.82 -405.07, 85.82 -405.07 C68.82 -405.07, 62.45 -405.07, 52.21 -405.07 C41.96 -405.07, 31.63 -405.07, 24.36 -405.07 C17.09 -405.07, 12.24 -406.15, 8.58 -405.07 C4.91 -403.98, 3.65 -402.49, 2.36 -398.54 C1.07 -394.6, 1.11 -394.21, 0.86 -381.38 C0.61 -368.55, 0.86 -339.08, 0.86 -321.58 C0.86 -304.09, 0.86 -288.43, 0.86 -276.4 C0.86 -264.37, 0.74 -256.5, 0.86 -249.4 C0.98 -242.31, 0.41 -237.2, 1.58 -233.85 C2.74 -230.5, 0.06 -230.07, 7.83 -229.31 C15.61 -228.55, 24.87 -229.31, 48.21 -229.31 C71.54 -229.31, 115.99 -229.31, 147.84 -229.31 C179.69 -229.31, 209.29 -229.28, 239.31 -229.31 C269.33 -229.34, 305.23 -230.31, 327.97 -229.49 C350.72 -228.66, 361.45 -227.55, 375.8 -224.35 C390.15 -221.15, 402.46 -216.32, 414.08 -210.26 C425.69 -204.21, 436.67 -196.63, 445.49 -188 C454.32 -179.37, 462.28 -168.4, 467.05 -158.49 C471.82 -148.58, 473.12 -140.22, 474.13 -128.53 C475.13 -116.85, 475.27 -100.58, 473.06 -88.37 C470.85 -76.15, 467.51 -66.01, 460.86 -55.24 C454.22 -44.47, 444.35 -32.13, 433.18 -23.76 C422.02 -15.38, 408.41 -8.97, 393.85 -4.99 C379.29 -1.01, 370.14 -0.74, 345.84 0.12 C321.54 0.97, 286.82 0.12, 248.05 0.12 C209.27 0.12, 154.52 0.13, 113.18 0.12 C71.84 0.1, 18.86 0.02, 0 0" stroke="none" stroke-width="0" fill="#e1e1e1" fill-rule="evenodd"></path><path d="M0 0 C0 24.98, 0 91.54, 0 149.86 C0 208.18, 0 292.34, 0 349.93 C0 407.52, 0 463.43, 0 495.4 C0 527.37, 0 530.15, 0 541.74 C0 553.33, -0.93 559.36, 0.03 564.93 C0.99 570.51, 2.46 573.16, 5.77 575.18 C9.07 577.21, 8.77 576.76, 19.85 577.08 C30.92 577.39, 53.14 577.08, 72.22 577.08 C91.3 577.08, 120.81 577.08, 134.34 577.08 C147.86 577.08, 146.92 577.09, 153.36 577.08 C159.8 577.06, 168.54 578.14, 172.97 576.99 C177.4 575.83, 178.57 573.28, 179.96 570.13 C181.35 566.99, 181.07 567.74, 181.3 558.1 C181.52 548.45, 181.3 543.07, 181.3 512.27 C181.3 481.47, 181.3 422.92, 181.3 373.29 C181.3 323.66, 181.3 244.18, 181.3 214.5 C181.3 184.81, 181.3 200.67, 181.3 195.18 C181.3 189.69, 180.03 184.29, 181.3 181.56 C182.57 178.83, 182.82 179.26, 188.91 178.8 C195.01 178.34, 206.79 178.8, 217.87 178.8 C228.94 178.8, 246.25 178.8, 255.38 178.8 C264.52 178.8, 267.08 178.8, 272.67 178.8 C278.26 178.8, 285.12 177.7, 288.92 178.8 C292.73 179.89, 292.28 179.46, 295.48 185.35 C298.68 191.24, 300.67 197.85, 308.13 214.13 C315.59 230.4, 328.51 257.56, 340.23 283 C351.96 308.43, 364.56 336.48, 378.47 366.75 C392.38 397.02, 411.59 438.23, 423.67 464.64 C435.76 491.04, 444.37 511.01, 450.96 525.18 C457.55 539.34, 459.63 542.16, 463.22 549.64 C466.81 557.11, 469.32 565.63, 472.52 570.02 C475.72 574.41, 477.77 574.77, 482.41 575.97 C487.06 577.17, 488.14 577.01, 500.38 577.22 C512.62 577.42, 536.15 577.22, 555.84 577.22 C575.54 577.22, 603.45 577.22, 618.55 577.22 C633.64 577.22, 638.95 577.52, 646.4 577.22 C653.86 576.92, 659.96 577.22, 663.3 575.41 C666.63 573.6, 666.49 570.15, 666.42 566.36 C666.36 562.58, 667.96 564.29, 662.91 552.71 C657.87 541.13, 646.28 518.37, 636.16 496.86 C626.03 475.35, 616.26 453.94, 602.14 423.65 C588.02 393.37, 567.69 350.12, 551.44 315.14 C535.2 280.15, 515.93 238.28, 504.66 213.74 C493.39 189.21, 487.96 177.75, 483.82 167.94 C479.67 158.14, 478.9 158.36, 479.78 154.91 C480.66 151.46, 483.47 150.67, 489.11 147.24 C494.74 143.81, 503.22 140.11, 513.59 134.32 C523.95 128.53, 539.12 121.2, 551.31 112.51 C563.51 103.82, 575.96 92.92, 586.75 82.18 C597.53 71.43, 607.73 60.26, 616.02 48.02 C624.32 35.78, 630.9 22.6, 636.52 8.73 C642.14 -5.14, 646.29 -16.39, 649.76 -35.19 C653.24 -53.99, 656.38 -83.11, 657.36 -104.08 C658.35 -125.05, 658.23 -141.08, 655.67 -161 C653.12 -180.93, 648.52 -204.18, 642.01 -223.62 C635.51 -243.06, 627.41 -260.89, 616.64 -277.66 C605.87 -294.42, 593.86 -309.68, 577.38 -324.22 C560.91 -338.77, 537.94 -354.32, 517.81 -364.92 C497.68 -375.52, 477.61 -382.04, 456.6 -387.81 C435.6 -393.59, 413.37 -396.87, 391.76 -399.58 C370.16 -402.28, 354.24 -403.13, 326.98 -404.05 C299.71 -404.96, 256.97 -404.9, 228.18 -405.07 C199.38 -405.24, 177.93 -405.07, 154.2 -405.07 C130.48 -405.07, 102.82 -405.07, 85.82 -405.07 C68.82 -405.07, 62.45 -405.07, 52.21 -405.07 C41.96 -405.07, 31.63 -405.07, 24.36 -405.07 C17.09 -405.07, 12.24 -406.15, 8.58 -405.07 C4.91 -403.98, 3.65 -402.49, 2.36 -398.54 C1.07 -394.6, 1.11 -394.21, 0.86 -381.38 C0.61 -368.55, 0.86 -339.08, 0.86 -321.58 C0.86 -304.09, 0.86 -288.43, 0.86 -276.4 C0.86 -264.37, 0.74 -256.5, 0.86 -249.4 C0.98 -242.31, 0.41 -237.2, 1.58 -233.85 C2.74 -230.5, 0.06 -230.07, 7.83 -229.31 C15.61 -228.55, 24.87 -229.31, 48.21 -229.31 C71.54 -229.31, 115.99 -229.31, 147.84 -229.31 C179.69 -229.31, 209.29 -229.28, 239.31 -229.31 C269.33 -229.34, 305.23 -230.31, 327.97 -229.49 C350.72 -228.66, 361.45 -227.55, 375.8 -224.35 C390.15 -221.15, 402.46 -216.32, 414.08 -210.26 C425.69 -204.21, 436.67 -196.63, 445.49 -188 C454.32 -179.37, 462.28 -168.4, 467.05 -158.49 C471.82 -148.58, 473.12 -140.22, 474.13 -128.53 C475.13 -116.85, 475.27 -100.58, 473.06 -88.37 C470.85 -76.15, 467.51 -66.01, 460.86 -55.24 C454.22 -44.47, 444.35 -32.13, 433.18 -23.76 C422.02 -15.38, 408.41 -8.97, 393.85 -4.99 C379.29 -1.01, 370.14 -0.74, 345.84 0.12 C321.54 0.97, 286.82 0.12, 248.05 0.12 C209.27 0.12, 154.52 0.13, 113.18 0.12 C71.84 0.1, 18.86 0.02, 0 0 M0 0 C0 24.98, 0 91.54, 0 149.86 C0 208.18, 0 292.34, 0 349.93 C0 407.52, 0 463.43, 0 495.4 C0 527.37, 0 530.15, 0 541.74 C0 553.33, -0.93 559.36, 0.03 564.93 C0.99 570.51, 2.46 573.16, 5.77 575.18 C9.07 577.21, 8.77 576.76, 19.85 577.08 C30.92 577.39, 53.14 577.08, 72.22 577.08 C91.3 577.08, 120.81 577.08, 134.34 577.08 C147.86 577.08, 146.92 577.09, 153.36 577.08 C159.8 577.06, 168.54 578.14, 172.97 576.99 C177.4 575.83, 178.57 573.28, 179.96 570.13 C181.35 566.99, 181.07 567.74, 181.3 558.1 C181.52 548.45, 181.3 543.07, 181.3 512.27 C181.3 481.47, 181.3 422.92, 181.3 373.29 C181.3 323.66, 181.3 244.18, 181.3 214.5 C181.3 184.81, 181.3 200.67, 181.3 195.18 C181.3 189.69, 180.03 184.29, 181.3 181.56 C182.57 178.83, 182.82 179.26, 188.91 178.8 C195.01 178.34, 206.79 178.8, 217.87 178.8 C228.94 178.8, 246.25 178.8, 255.38 178.8 C264.52 178.8, 267.08 178.8, 272.67 178.8 C278.26 178.8, 285.12 177.7, 288.92 178.8 C292.73 179.89, 292.28 179.46, 295.48 185.35 C298.68 191.24, 300.67 197.85, 308.13 214.13 C315.59 230.4, 328.51 257.56, 340.23 283 C351.96 308.43, 364.56 336.48, 378.47 366.75 C392.38 397.02, 411.59 438.23, 423.67 464.64 C435.76 491.04, 444.37 511.01, 450.96 525.18 C457.55 539.34, 459.63 542.16, 463.22 549.64 C466.81 557.11, 469.32 565.63, 472.52 570.02 C475.72 574.41, 477.77 574.77, 482.41 575.97 C487.06 577.17, 488.14 577.01, 500.38 577.22 C512.62 577.42, 536.15 577.22, 555.84 577.22 C575.54 577.22, 603.45 577.22, 618.55 577.22 C633.64 577.22, 638.95 577.52, 646.4 577.22 C653.86 576.92, 659.96 577.22, 663.3 575.41 C666.63 573.6, 666.49 570.15, 666.42 566.36 C666.36 562.58, 667.96 564.29, 662.91 552.71 C657.87 541.13, 646.28 518.37, 636.16 496.86 C626.03 475.35, 616.26 453.94, 602.14 423.65 C588.02 393.37, 567.69 350.12, 551.44 315.14 C535.2 280.15, 515.93 238.28, 504.66 213.74 C493.39 189.21, 487.96 177.75, 483.82 167.94 C479.67 158.14, 478.9 158.36, 479.78 154.91 C480.66 151.46, 483.47 150.67, 489.11 147.24 C494.74 143.81, 503.22 140.11, 513.59 134.32 C523.95 128.53, 539.12 121.2, 551.31 112.51 C563.51 103.82, 575.96 92.92, 586.75 82.18 C597.53 71.43, 607.73 60.26, 616.02 48.02 C624.32 35.78, 630.9 22.6, 636.52 8.73 C642.14 -5.14, 646.29 -16.39, 649.76 -35.19 C653.24 -53.99, 656.38 -83.11, 657.36 -104.08 C658.35 -125.05, 658.23 -141.08, 655.67 -161 C653.12 -180.93, 648.52 -204.18, 642.01 -223.62 C635.51 -243.06, 627.41 -260.89, 616.64 -277.66 C605.87 -294.42, 593.86 -309.68, 577.38 -324.22 C560.91 -338.77, 537.94 -354.32, 517.81 -364.92 C497.68 -375.52, 477.61 -382.04, 456.6 -387.81 C435.6 -393.59, 413.37 -396.87, 391.76 -399.58 C370.16 -402.28, 354.24 -403.13, 326.98 -404.05 C299.71 -404.96, 256.97 -404.9, 228.18 -405.07 C199.38 -405.24, 177.93 -405.07, 154.2 -405.07 C130.48 -405.07, 102.82 -405.07, 85.82 -405.07 C68.82 -405.07, 62.45 -405.07, 52.21 -405.07 C41.96 -405.07, 31.63 -405.07, 24.36 -405.07 C17.09 -405.07, 12.24 -406.15, 8.58 -405.07 C4.91 -403.98, 3.65 -402.49, 2.36 -398.54 C1.07 -394.6, 1.11 -394.21, 0.86 -381.38 C0.61 -368.55, 0.86 -339.08, 0.86 -321.58 C0.86 -304.09, 0.86 -288.43, 0.86 -276.4 C0.86 -264.37, 0.74 -256.5, 0.86 -249.4 C0.98 -242.31, 0.41 -237.2, 1.58 -233.85 C2.74 -230.5, 0.06 -230.07, 7.83 -229.31 C15.61 -228.55, 24.87 -229.31, 48.21 -229.31 C71.54 -229.31, 115.99 -229.31, 147.84 -229.31 C179.69 -229.31, 209.29 -229.28, 239.31 -229.31 C269.33 -229.34, 305.23 -230.31, 327.97 -229.49 C350.72 -228.66, 361.45 -227.55, 375.8 -224.35 C390.15 -221.15, 402.46 -216.32, 414.08 -210.26 C425.69 -204.21, 436.67 -196.63, 445.49 -188 C454.32 -179.37, 462.28 -168.4, 467.05 -158.49 C471.82 -148.58, 473.12 -140.22, 474.13 -128.53 C475.13 -116.85, 475.27 -100.58, 473.06 -88.37 C470.85 -76.15, 467.51 -66.01, 460.86 -55.24 C454.22 -44.47, 444.35 -32.13, 433.18 -23.76 C422.02 -15.38, 408.41 -8.97, 393.85 -4.99 C379.29 -1.01, 370.14 -0.74, 345.84 0.12 C321.54 0.97, 286.82 0.12, 248.05 0.12 C209.27 0.12, 154.52 0.13, 113.18 0.12 C71.84 0.1, 18.86 0.02, 0 0" stroke="#E1E1E1" stroke-width="4" fill="none"></path></g></g><mask></mask><g stroke-linecap="round"><g transform="translate(2986.167098656868 440.56354543956695) rotate(0 1.787939838426155 64.49541598391534)" fill-rule="evenodd"><path d="M0 0 C-27.84 79.37, -135.76 387.62, -167.01 476.24 C-198.27 564.86, -183.21 519.89, -187.53 531.72 C-191.84 543.54, -190.58 543.7, -192.92 547.2 C-195.27 550.71, -197.46 551.68, -201.58 552.74 C-205.71 553.79, -204.29 553.39, -217.69 553.52 C-231.08 553.66, -261.95 553.52, -281.97 553.52 C-301.99 553.52, -323.93 553.52, -337.81 553.52 C-351.69 553.52, -358.74 553.78, -365.24 553.52 C-371.74 553.27, -374.11 553.61, -376.8 552.01 C-379.49 550.4, -381 547.42, -381.38 543.9 C-381.76 540.38, -382.76 541.65, -379.08 530.88 C-375.4 520.11, -372.82 514.31, -359.29 479.28 C-345.77 444.26, -319.35 376, -297.92 320.72 C-276.48 265.44, -257.08 215.3, -230.68 147.59 C-204.28 79.88, -161.26 -29.56, -139.52 -85.53 C-117.77 -141.49, -114.27 -151.02, -100.2 -188.21 C-86.14 -225.39, -67.81 -275.48, -55.11 -308.62 C-42.42 -341.77, -31.29 -368.84, -24.04 -387.07 C-16.79 -405.29, -15.42 -411.64, -11.59 -417.99 C-7.77 -424.34, -4.45 -424.45, -1.07 -425.18 C2.31 -425.9, 5.83 -425.1, 8.68 -422.34 C11.53 -419.58, 12.57 -416.54, 16.01 -408.65 C19.45 -400.75, 19.55 -399.54, 29.3 -374.97 C39.05 -350.4, 57.14 -305.46, 74.52 -261.22 C91.91 -216.98, 113.31 -161.84, 133.63 -109.54 C153.94 -57.24, 176.12 0.28, 196.42 52.58 C216.71 104.89, 235.27 152.52, 255.39 204.31 C275.5 256.09, 297.41 312.26, 317.12 363.28 C336.83 414.31, 362.35 481.68, 373.65 510.43 C384.96 539.18, 383.17 529.64, 384.95 535.77 C386.74 541.91, 385.82 544.63, 384.37 547.24 C382.92 549.84, 380.55 550.47, 376.25 551.41 C371.96 552.35, 370.88 552.64, 358.6 552.89 C346.31 553.14, 319.94 552.89, 302.55 552.89 C285.17 552.89, 267.52 552.89, 254.28 552.89 C241.05 552.89, 230.94 552.68, 223.15 552.89 C215.35 553.1, 211.55 554.66, 207.51 554.17 C203.47 553.68, 201.66 553.3, 198.89 549.95 C196.12 546.59, 194.61 543.17, 190.9 534.04 C187.19 524.92, 186.18 521.41, 176.65 495.2 C167.12 468.98, 150.71 424.56, 133.74 376.74 C116.76 328.92, 97.11 271.07, 74.82 208.28 C52.53 145.48, 12.47 34.71, 0 0" stroke="none" stroke-width="0" fill="#e1e1e1" fill-rule="evenodd"></path><path d="M0 0 C-27.84 79.37, -135.76 387.62, -167.01 476.24 C-198.27 564.86, -183.21 519.89, -187.53 531.72 C-191.84 543.54, -190.58 543.7, -192.92 547.2 C-195.27 550.71, -197.46 551.68, -201.58 552.74 C-205.71 553.79, -204.29 553.39, -217.69 553.52 C-231.08 553.66, -261.95 553.52, -281.97 553.52 C-301.99 553.52, -323.93 553.52, -337.81 553.52 C-351.69 553.52, -358.74 553.78, -365.24 553.52 C-371.74 553.27, -374.11 553.61, -376.8 552.01 C-379.49 550.4, -381 547.42, -381.38 543.9 C-381.76 540.38, -382.76 541.65, -379.08 530.88 C-375.4 520.11, -372.82 514.31, -359.29 479.28 C-345.77 444.26, -319.35 376, -297.92 320.72 C-276.48 265.44, -257.08 215.3, -230.68 147.59 C-204.28 79.88, -161.26 -29.56, -139.52 -85.53 C-117.77 -141.49, -114.27 -151.02, -100.2 -188.21 C-86.14 -225.39, -67.81 -275.48, -55.11 -308.62 C-42.42 -341.77, -31.29 -368.84, -24.04 -387.07 C-16.79 -405.29, -15.42 -411.64, -11.59 -417.99 C-7.77 -424.34, -4.45 -424.45, -1.07 -425.18 C2.31 -425.9, 5.83 -425.1, 8.68 -422.34 C11.53 -419.58, 12.57 -416.54, 16.01 -408.65 C19.45 -400.75, 19.55 -399.54, 29.3 -374.97 C39.05 -350.4, 57.14 -305.46, 74.52 -261.22 C91.91 -216.98, 113.31 -161.84, 133.63 -109.54 C153.94 -57.24, 176.12 0.28, 196.42 52.58 C216.71 104.89, 235.27 152.52, 255.39 204.31 C275.5 256.09, 297.41 312.26, 317.12 363.28 C336.83 414.31, 362.35 481.68, 373.65 510.43 C384.96 539.18, 383.17 529.64, 384.95 535.77 C386.74 541.91, 385.82 544.63, 384.37 547.24 C382.92 549.84, 380.55 550.47, 376.25 551.41 C371.96 552.35, 370.88 552.64, 358.6 552.89 C346.31 553.14, 319.94 552.89, 302.55 552.89 C285.17 552.89, 267.52 552.89, 254.28 552.89 C241.05 552.89, 230.94 552.68, 223.15 552.89 C215.35 553.1, 211.55 554.66, 207.51 554.17 C203.47 553.68, 201.66 553.3, 198.89 549.95 C196.12 546.59, 194.61 543.17, 190.9 534.04 C187.19 524.92, 186.18 521.41, 176.65 495.2 C167.12 468.98, 150.71 424.56, 133.74 376.74 C116.76 328.92, 97.11 271.07, 74.82 208.28 C52.53 145.48, 12.47 34.71, 0 0 M0 0 C-27.84 79.37, -135.76 387.62, -167.01 476.24 C-198.27 564.86, -183.21 519.89, -187.53 531.72 C-191.84 543.54, -190.58 543.7, -192.92 547.2 C-195.27 550.71, -197.46 551.68, -201.58 552.74 C-205.71 553.79, -204.29 553.39, -217.69 553.52 C-231.08 553.66, -261.95 553.52, -281.97 553.52 C-301.99 553.52, -323.93 553.52, -337.81 553.52 C-351.69 553.52, -358.74 553.78, -365.24 553.52 C-371.74 553.27, -374.11 553.61, -376.8 552.01 C-379.49 550.4, -381 547.42, -381.38 543.9 C-381.76 540.38, -382.76 541.65, -379.08 530.88 C-375.4 520.11, -372.82 514.31, -359.29 479.28 C-345.77 444.26, -319.35 376, -297.92 320.72 C-276.48 265.44, -257.08 215.3, -230.68 147.59 C-204.28 79.88, -161.26 -29.56, -139.52 -85.53 C-117.77 -141.49, -114.27 -151.02, -100.2 -188.21 C-86.14 -225.39, -67.81 -275.48, -55.11 -308.62 C-42.42 -341.77, -31.29 -368.84, -24.04 -387.07 C-16.79 -405.29, -15.42 -411.64, -11.59 -417.99 C-7.77 -424.34, -4.45 -424.45, -1.07 -425.18 C2.31 -425.9, 5.83 -425.1, 8.68 -422.34 C11.53 -419.58, 12.57 -416.54, 16.01 -408.65 C19.45 -400.75, 19.55 -399.54, 29.3 -374.97 C39.05 -350.4, 57.14 -305.46, 74.52 -261.22 C91.91 -216.98, 113.31 -161.84, 133.63 -109.54 C153.94 -57.24, 176.12 0.28, 196.42 52.58 C216.71 104.89, 235.27 152.52, 255.39 204.31 C275.5 256.09, 297.41 312.26, 317.12 363.28 C336.83 414.31, 362.35 481.68, 373.65 510.43 C384.96 539.18, 383.17 529.64, 384.95 535.77 C386.74 541.91, 385.82 544.63, 384.37 547.24 C382.92 549.84, 380.55 550.47, 376.25 551.41 C371.96 552.35, 370.88 552.64, 358.6 552.89 C346.31 553.14, 319.94 552.89, 302.55 552.89 C285.17 552.89, 267.52 552.89, 254.28 552.89 C241.05 552.89, 230.94 552.68, 223.15 552.89 C215.35 553.1, 211.55 554.66, 207.51 554.17 C203.47 553.68, 201.66 553.3, 198.89 549.95 C196.12 546.59, 194.61 543.17, 190.9 534.04 C187.19 524.92, 186.18 521.41, 176.65 495.2 C167.12 468.98, 150.71 424.56, 133.74 376.74 C116.76 328.92, 97.11 271.07, 74.82 208.28 C52.53 145.48, 12.47 34.71, 0 0" stroke="#E1E1E1" stroke-width="4" fill="none"></path></g></g><mask></mask><g stroke-linecap="round"><g transform="translate(2224.414549786922 536.4102687365175) rotate(0 -35.073755807463385 -34.30360465805097)" fill-rule="evenodd"><path d="M0 0 C-17.06 -44.82, -70.81 -184.99, -102.33 -268.94 C-133.85 -352.9, -173.76 -462, -189.14 -503.73 C-204.51 -545.45, -192.2 -515.76, -194.55 -519.28 C-196.91 -522.8, -199.11 -523.77, -203.25 -524.83 C-207.39 -525.89, -205.96 -525.49, -219.42 -525.62 C-232.87 -525.76, -263.86 -525.62, -283.96 -525.62 C-304.06 -525.62, -326.09 -525.62, -340.02 -525.62 C-353.96 -525.62, -361.04 -525.88, -367.57 -525.62 C-374.09 -525.37, -376.47 -525.71, -379.17 -524.1 C-381.87 -522.49, -383.39 -519.5, -383.77 -515.96 C-384.15 -512.43, -385.16 -513.7, -381.46 -502.89 C-377.77 -492.08, -375.18 -486.25, -361.59 -451.08 C-348.01 -415.91, -321.49 -347.39, -299.97 -291.88 C-278.45 -236.38, -258.97 -186.04, -232.46 -118.06 C-205.95 -50.08, -162.77 59.81, -140.93 116 C-119.1 172.19, -115.59 181.76, -101.46 219.09 C-87.34 256.43, -68.93 306.72, -56.19 339.99 C-43.44 373.27, -32.27 400.45, -24.99 418.75 C-17.71 437.05, -16.34 443.42, -12.49 449.8 C-8.65 456.18, -5.33 456.29, -1.93 457.02 C1.46 457.74, 5 456.93, 7.86 454.17 C10.72 451.4, 11.77 448.34, 15.22 440.42 C18.67 432.49, 18.77 431.28, 28.57 406.61 C38.36 381.94, 56.51 336.82, 73.97 292.4 C91.43 247.98, 112.91 192.62, 133.31 140.11 C153.71 87.6, 175.98 29.85, 196.35 -22.67 C216.73 -75.19, 236.48 -125.43, 255.56 -175 C274.64 -224.57, 301.14 -292.32, 310.82 -320.07 C320.5 -347.82, 316.55 -337.95, 313.62 -341.51 C310.69 -345.07, 298.21 -341.51, 293.25 -341.44 C288.29 -341.37, 287.03 -341.19, 283.88 -341.1 C280.74 -341.02, 278.3 -340.98, 274.37 -340.93 C270.45 -340.88, 264.32 -340.85, 260.34 -340.82 C256.36 -340.79, 254.39 -340.82, 250.5 -340.76 C246.61 -340.69, 242.2 -340.5, 237 -340.43 C231.81 -340.36, 223.97 -340.35, 219.33 -340.31 C214.69 -340.27, 217.94 -339.95, 209.18 -340.19 C200.41 -340.44, 176.25 -341.59, 166.73 -341.77 C157.2 -341.95, 157.57 -341.6, 152.03 -341.26 C146.49 -340.92, 138.7 -343.81, 133.49 -339.73 C128.27 -335.66, 131.61 -343.58, 120.75 -316.79 C109.89 -290, 88.45 -231.78, 68.33 -178.99 C48.2 -126.19, 11.39 -29.83, 0 0" stroke="none" stroke-width="0" fill="#e1e1e1" fill-rule="evenodd"></path><path d="M0 0 C-17.06 -44.82, -70.81 -184.99, -102.33 -268.94 C-133.85 -352.9, -173.76 -462, -189.14 -503.73 C-204.51 -545.45, -192.2 -515.76, -194.55 -519.28 C-196.91 -522.8, -199.11 -523.77, -203.25 -524.83 C-207.39 -525.89, -205.96 -525.49, -219.42 -525.62 C-232.87 -525.76, -263.86 -525.62, -283.96 -525.62 C-304.06 -525.62, -326.09 -525.62, -340.02 -525.62 C-353.96 -525.62, -361.04 -525.88, -367.57 -525.62 C-374.09 -525.37, -376.47 -525.71, -379.17 -524.1 C-381.87 -522.49, -383.39 -519.5, -383.77 -515.96 C-384.15 -512.43, -385.16 -513.7, -381.46 -502.89 C-377.77 -492.08, -375.18 -486.25, -361.59 -451.08 C-348.01 -415.91, -321.49 -347.39, -299.97 -291.88 C-278.45 -236.38, -258.97 -186.04, -232.46 -118.06 C-205.95 -50.08, -162.77 59.81, -140.93 116 C-119.1 172.19, -115.59 181.76, -101.46 219.09 C-87.34 256.43, -68.93 306.72, -56.19 339.99 C-43.44 373.27, -32.27 400.45, -24.99 418.75 C-17.71 437.05, -16.34 443.42, -12.49 449.8 C-8.65 456.18, -5.33 456.29, -1.93 457.02 C1.46 457.74, 5 456.93, 7.86 454.17 C10.72 451.4, 11.77 448.34, 15.22 440.42 C18.67 432.49, 18.77 431.28, 28.57 406.61 C38.36 381.94, 56.51 336.82, 73.97 292.4 C91.43 247.98, 112.91 192.62, 133.31 140.11 C153.71 87.6, 175.98 29.85, 196.35 -22.67 C216.73 -75.19, 236.48 -125.43, 255.56 -175 C274.64 -224.57, 301.14 -292.32, 310.82 -320.07 C320.5 -347.82, 316.55 -337.95, 313.62 -341.51 C310.69 -345.07, 298.21 -341.51, 293.25 -341.44 C288.29 -341.37, 287.03 -341.19, 283.88 -341.1 C280.74 -341.02, 278.3 -340.98, 274.37 -340.93 C270.45 -340.88, 264.32 -340.85, 260.34 -340.82 C256.36 -340.79, 254.39 -340.82, 250.5 -340.76 C246.61 -340.69, 242.2 -340.5, 237 -340.43 C231.81 -340.36, 223.97 -340.35, 219.33 -340.31 C214.69 -340.27, 217.94 -339.95, 209.18 -340.19 C200.41 -340.44, 176.25 -341.59, 166.73 -341.77 C157.2 -341.95, 157.57 -341.6, 152.03 -341.26 C146.49 -340.92, 138.7 -343.81, 133.49 -339.73 C128.27 -335.66, 131.61 -343.58, 120.75 -316.79 C109.89 -290, 88.45 -231.78, 68.33 -178.99 C48.2 -126.19, 11.39 -29.83, 0 0 M0 0 C-17.06 -44.82, -70.81 -184.99, -102.33 -268.94 C-133.85 -352.9, -173.76 -462, -189.14 -503.73 C-204.51 -545.45, -192.2 -515.76, -194.55 -519.28 C-196.91 -522.8, -199.11 -523.77, -203.25 -524.83 C-207.39 -525.89, -205.96 -525.49, -219.42 -525.62 C-232.87 -525.76, -263.86 -525.62, -283.96 -525.62 C-304.06 -525.62, -326.09 -525.62, -340.02 -525.62 C-353.96 -525.62, -361.04 -525.88, -367.57 -525.62 C-374.09 -525.37, -376.47 -525.71, -379.17 -524.1 C-381.87 -522.49, -383.39 -519.5, -383.77 -515.96 C-384.15 -512.43, -385.16 -513.7, -381.46 -502.89 C-377.77 -492.08, -375.18 -486.25, -361.59 -451.08 C-348.01 -415.91, -321.49 -347.39, -299.97 -291.88 C-278.45 -236.38, -258.97 -186.04, -232.46 -118.06 C-205.95 -50.08, -162.77 59.81, -140.93 116 C-119.1 172.19, -115.59 181.76, -101.46 219.09 C-87.34 256.43, -68.93 306.72, -56.19 339.99 C-43.44 373.27, -32.27 400.45, -24.99 418.75 C-17.71 437.05, -16.34 443.42, -12.49 449.8 C-8.65 456.18, -5.33 456.29, -1.93 457.02 C1.46 457.74, 5 456.93, 7.86 454.17 C10.72 451.4, 11.77 448.34, 15.22 440.42 C18.67 432.49, 18.77 431.28, 28.57 406.61 C38.36 381.94, 56.51 336.82, 73.97 292.4 C91.43 247.98, 112.91 192.62, 133.31 140.11 C153.71 87.6, 175.98 29.85, 196.35 -22.67 C216.73 -75.19, 236.48 -125.43, 255.56 -175 C274.64 -224.57, 301.14 -292.32, 310.82 -320.07 C320.5 -347.82, 316.55 -337.95, 313.62 -341.51 C310.69 -345.07, 298.21 -341.51, 293.25 -341.44 C288.29 -341.37, 287.03 -341.19, 283.88 -341.1 C280.74 -341.02, 278.3 -340.98, 274.37 -340.93 C270.45 -340.88, 264.32 -340.85, 260.34 -340.82 C256.36 -340.79, 254.39 -340.82, 250.5 -340.76 C246.61 -340.69, 242.2 -340.5, 237 -340.43 C231.81 -340.36, 223.97 -340.35, 219.33 -340.31 C214.69 -340.27, 217.94 -339.95, 209.18 -340.19 C200.41 -340.44, 176.25 -341.59, 166.73 -341.77 C157.2 -341.95, 157.57 -341.6, 152.03 -341.26 C146.49 -340.92, 138.7 -343.81, 133.49 -339.73 C128.27 -335.66, 131.61 -343.58, 120.75 -316.79 C109.89 -290, 88.45 -231.78, 68.33 -178.99 C48.2 -126.19, 11.39 -29.83, 0 0" stroke="#E1E1E1" stroke-width="4" fill="none"></path></g></g><mask></mask><g stroke-linecap="round"><g transform="translate(1647.3672596177494 536.258175234052) rotate(0 35.073755807463385 -34.30360465805097)" fill-rule="evenodd"><path d="M0 0 C17.06 -44.82, 70.81 -184.99, 102.33 -268.94 C133.85 -352.9, 173.76 -462, 189.14 -503.73 C204.51 -545.45, 192.2 -515.76, 194.55 -519.28 C196.91 -522.8, 199.11 -523.77, 203.25 -524.83 C207.39 -525.89, 205.96 -525.49, 219.42 -525.62 C232.87 -525.76, 263.86 -525.62, 283.96 -525.62 C304.06 -525.62, 326.09 -525.62, 340.02 -525.62 C353.96 -525.62, 361.04 -525.88, 367.57 -525.62 C374.09 -525.37, 376.47 -525.71, 379.17 -524.1 C381.87 -522.49, 383.39 -519.5, 383.77 -515.96 C384.15 -512.43, 385.16 -513.7, 381.46 -502.89 C377.77 -492.08, 375.18 -486.25, 361.59 -451.08 C348.01 -415.91, 321.49 -347.39, 299.97 -291.88 C278.45 -236.38, 258.97 -186.04, 232.46 -118.06 C205.95 -50.08, 162.77 59.81, 140.93 116 C119.1 172.19, 115.59 181.76, 101.46 219.09 C87.34 256.43, 68.93 306.72, 56.19 339.99 C43.44 373.27, 32.27 400.45, 24.99 418.75 C17.71 437.05, 16.34 443.42, 12.49 449.8 C8.65 456.18, 5.33 456.29, 1.93 457.02 C-1.46 457.74, -5 456.93, -7.86 454.17 C-10.72 451.4, -11.77 448.34, -15.22 440.42 C-18.67 432.49, -18.77 431.28, -28.57 406.61 C-38.36 381.94, -56.51 336.82, -73.97 292.4 C-91.43 247.98, -112.91 192.62, -133.31 140.11 C-153.71 87.6, -175.98 29.85, -196.35 -22.67 C-216.73 -75.19, -236.48 -125.43, -255.56 -175 C-274.64 -224.57, -301.14 -292.32, -310.82 -320.07 C-320.5 -347.82, -316.55 -337.95, -313.62 -341.51 C-310.69 -345.07, -298.21 -341.51, -293.25 -341.44 C-288.29 -341.37, -287.03 -341.19, -283.88 -341.1 C-280.74 -341.02, -278.3 -340.98, -274.37 -340.93 C-270.45 -340.88, -264.32 -340.85, -260.34 -340.82 C-256.36 -340.79, -254.39 -340.82, -250.5 -340.76 C-246.61 -340.69, -242.2 -340.5, -237 -340.43 C-231.81 -340.36, -223.97 -340.35, -219.33 -340.31 C-214.69 -340.27, -217.94 -339.95, -209.18 -340.19 C-200.41 -340.44, -176.25 -341.59, -166.73 -341.77 C-157.2 -341.95, -157.57 -341.6, -152.03 -341.26 C-146.49 -340.92, -138.7 -343.81, -133.49 -339.73 C-128.27 -335.66, -131.61 -343.58, -120.75 -316.79 C-109.89 -290, -88.45 -231.78, -68.33 -178.99 C-48.2 -126.19, -11.39 -29.83, 0 0" stroke="none" stroke-width="0" fill="#e1e1e1" fill-rule="evenodd"></path><path d="M0 0 C17.06 -44.82, 70.81 -184.99, 102.33 -268.94 C133.85 -352.9, 173.76 -462, 189.14 -503.73 C204.51 -545.45, 192.2 -515.76, 194.55 -519.28 C196.91 -522.8, 199.11 -523.77, 203.25 -524.83 C207.39 -525.89, 205.96 -525.49, 219.42 -525.62 C232.87 -525.76, 263.86 -525.62, 283.96 -525.62 C304.06 -525.62, 326.09 -525.62, 340.02 -525.62 C353.96 -525.62, 361.04 -525.88, 367.57 -525.62 C374.09 -525.37, 376.47 -525.71, 379.17 -524.1 C381.87 -522.49, 383.39 -519.5, 383.77 -515.96 C384.15 -512.43, 385.16 -513.7, 381.46 -502.89 C377.77 -492.08, 375.18 -486.25, 361.59 -451.08 C348.01 -415.91, 321.49 -347.39, 299.97 -291.88 C278.45 -236.38, 258.97 -186.04, 232.46 -118.06 C205.95 -50.08, 162.77 59.81, 140.93 116 C119.1 172.19, 115.59 181.76, 101.46 219.09 C87.34 256.43, 68.93 306.72, 56.19 339.99 C43.44 373.27, 32.27 400.45, 24.99 418.75 C17.71 437.05, 16.34 443.42, 12.49 449.8 C8.65 456.18, 5.33 456.29, 1.93 457.02 C-1.46 457.74, -5 456.93, -7.86 454.17 C-10.72 451.4, -11.77 448.34, -15.22 440.42 C-18.67 432.49, -18.77 431.28, -28.57 406.61 C-38.36 381.94, -56.51 336.82, -73.97 292.4 C-91.43 247.98, -112.91 192.62, -133.31 140.11 C-153.71 87.6, -175.98 29.85, -196.35 -22.67 C-216.73 -75.19, -236.48 -125.43, -255.56 -175 C-274.64 -224.57, -301.14 -292.32, -310.82 -320.07 C-320.5 -347.82, -316.55 -337.95, -313.62 -341.51 C-310.69 -345.07, -298.21 -341.51, -293.25 -341.44 C-288.29 -341.37, -287.03 -341.19, -283.88 -341.1 C-280.74 -341.02, -278.3 -340.98, -274.37 -340.93 C-270.45 -340.88, -264.32 -340.85, -260.34 -340.82 C-256.36 -340.79, -254.39 -340.82, -250.5 -340.76 C-246.61 -340.69, -242.2 -340.5, -237 -340.43 C-231.81 -340.36, -223.97 -340.35, -219.33 -340.31 C-214.69 -340.27, -217.94 -339.95, -209.18 -340.19 C-200.41 -340.44, -176.25 -341.59, -166.73 -341.77 C-157.2 -341.95, -157.57 -341.6, -152.03 -341.26 C-146.49 -340.92, -138.7 -343.81, -133.49 -339.73 C-128.27 -335.66, -131.61 -343.58, -120.75 -316.79 C-109.89 -290, -88.45 -231.78, -68.33 -178.99 C-48.2 -126.19, -11.39 -29.83, 0 0 M0 0 C17.06 -44.82, 70.81 -184.99, 102.33 -268.94 C133.85 -352.9, 173.76 -462, 189.14 -503.73 C204.51 -545.45, 192.2 -515.76, 194.55 -519.28 C196.91 -522.8, 199.11 -523.77, 203.25 -524.83 C207.39 -525.89, 205.96 -525.49, 219.42 -525.62 C232.87 -525.76, 263.86 -525.62, 283.96 -525.62 C304.06 -525.62, 326.09 -525.62, 340.02 -525.62 C353.96 -525.62, 361.04 -525.88, 367.57 -525.62 C374.09 -525.37, 376.47 -525.71, 379.17 -524.1 C381.87 -522.49, 383.39 -519.5, 383.77 -515.96 C384.15 -512.43, 385.16 -513.7, 381.46 -502.89 C377.77 -492.08, 375.18 -486.25, 361.59 -451.08 C348.01 -415.91, 321.49 -347.39, 299.97 -291.88 C278.45 -236.38, 258.97 -186.04, 232.46 -118.06 C205.95 -50.08, 162.77 59.81, 140.93 116 C119.1 172.19, 115.59 181.76, 101.46 219.09 C87.34 256.43, 68.93 306.72, 56.19 339.99 C43.44 373.27, 32.27 400.45, 24.99 418.75 C17.71 437.05, 16.34 443.42, 12.49 449.8 C8.65 456.18, 5.33 456.29, 1.93 457.02 C-1.46 457.74, -5 456.93, -7.86 454.17 C-10.72 451.4, -11.77 448.34, -15.22 440.42 C-18.67 432.49, -18.77 431.28, -28.57 406.61 C-38.36 381.94, -56.51 336.82, -73.97 292.4 C-91.43 247.98, -112.91 192.62, -133.31 140.11 C-153.71 87.6, -175.98 29.85, -196.35 -22.67 C-216.73 -75.19, -236.48 -125.43, -255.56 -175 C-274.64 -224.57, -301.14 -292.32, -310.82 -320.07 C-320.5 -347.82, -316.55 -337.95, -313.62 -341.51 C-310.69 -345.07, -298.21 -341.51, -293.25 -341.44 C-288.29 -341.37, -287.03 -341.19, -283.88 -341.1 C-280.74 -341.02, -278.3 -340.98, -274.37 -340.93 C-270.45 -340.88, -264.32 -340.85, -260.34 -340.82 C-256.36 -340.79, -254.39 -340.82, -250.5 -340.76 C-246.61 -340.69, -242.2 -340.5, -237 -340.43 C-231.81 -340.36, -223.97 -340.35, -219.33 -340.31 C-214.69 -340.27, -217.94 -339.95, -209.18 -340.19 C-200.41 -340.44, -176.25 -341.59, -166.73 -341.77 C-157.2 -341.95, -157.57 -341.6, -152.03 -341.26 C-146.49 -340.92, -138.7 -343.81, -133.49 -339.73 C-128.27 -335.66, -131.61 -343.58, -120.75 -316.79 C-109.89 -290, -88.45 -231.78, -68.33 -178.99 C-48.2 -126.19, -11.39 -29.83, 0 0" stroke="#E1E1E1" stroke-width="4" fill="none"></path></g></g><mask></mask><g stroke-linecap="round"><g transform="translate(4307.374920308271 408.98306535278243) rotate(0 -93.27259649489542 0)"><path d="M0 0 C-31.09 0, -155.45 0, -186.55 0 M0 0 C-31.09 0, -155.45 0, -186.55 0" stroke="#E1E1E1" stroke-width="4" fill="none"></path></g></g><mask></mask><g stroke-linecap="round"><g transform="translate(4120.708958569486 408.9677566381215) rotate(0 372.5040728917925 94.54309981946517)"><path d="M0 0 C0 -53.29, 0 -260.29, 0 -319.74 C0 -379.19, -0.04 -346.26, 0 -356.69 C0.04 -367.13, -0.71 -376.74, 0.23 -382.34 C1.16 -387.95, 3.42 -388.45, 5.6 -390.32 C7.79 -392.19, 11.1 -392.97, 13.32 -393.59 C15.54 -394.21, 15.8 -393.95, 18.93 -394.04 C22.06 -394.13, 19.22 -394.12, 32.1 -394.13 C44.99 -394.15, 70.82 -394.13, 96.26 -394.13 C121.7 -394.13, 156.18 -394.45, 184.74 -394.13 C213.3 -393.81, 240.34 -394.14, 267.61 -392.22 C294.88 -390.3, 323.11 -386.89, 348.35 -382.59 C373.59 -378.3, 395.19 -373.17, 419.03 -366.43 C442.86 -359.7, 469.13 -351.19, 491.34 -342.19 C513.55 -333.2, 533.73 -323.74, 552.28 -312.47 C570.83 -301.19, 587.34 -287.75, 602.65 -274.54 C617.96 -261.33, 631.8 -247.59, 644.16 -233.22 C656.53 -218.85, 667.34 -203.57, 676.85 -188.32 C686.35 -173.07, 693.67 -158.94, 701.18 -141.72 C708.69 -124.5, 716.07 -105.02, 721.89 -84.99 C727.71 -64.95, 732.44 -44.97, 736.1 -21.52 C739.76 1.92, 742.36 31.58, 743.85 55.69 C745.33 79.8, 745.91 99.77, 745.01 123.14 C744.11 146.51, 742.4 171.21, 738.43 195.91 C734.47 220.61, 727.93 248.52, 721.21 271.36 C714.48 294.21, 706.71 314.31, 698.06 332.98 C689.42 351.65, 679.46 368.29, 669.35 383.37 C659.24 398.44, 649.27 410.42, 637.41 423.41 C625.54 436.39, 612.18 449.56, 598.16 461.29 C584.14 473.01, 569.27 483.51, 553.3 493.75 C537.34 503.98, 521.04 514.02, 502.36 522.71 C483.67 531.39, 462.61 538.86, 441.19 545.85 C419.77 552.83, 398.16 559.27, 373.85 564.64 C349.54 570, 323.89 574.93, 295.34 578.03 C266.79 581.12, 229.88 582.35, 202.56 583.22 C175.24 584.08, 156.46 583.22, 131.39 583.22 C106.33 583.22, 70.56 583.22, 52.19 583.22 C33.83 583.22, 27.88 583.22, 21.2 583.22 C14.52 583.22, 14.81 583.49, 12.12 583.22 C9.44 582.94, 6.86 582.72, 5.08 581.58 C3.31 580.44, 2.19 579.43, 1.5 576.38 C0.81 573.33, 1.04 573.4, 0.96 563.3 C0.87 553.2, 0.99 534.64, 1 515.77 C1.01 496.9, 1 479.52, 1 450.07 C1 420.62, 1 382.46, 1 339.07 C1 295.68, 1 214.61, 1 189.72 M0 0 C0 -53.29, 0 -260.29, 0 -319.74 C0 -379.19, -0.04 -346.26, 0 -356.69 C0.04 -367.13, -0.71 -376.74, 0.23 -382.34 C1.16 -387.95, 3.42 -388.45, 5.6 -390.32 C7.79 -392.19, 11.1 -392.97, 13.32 -393.59 C15.54 -394.21, 15.8 -393.95, 18.93 -394.04 C22.06 -394.13, 19.22 -394.12, 32.1 -394.13 C44.99 -394.15, 70.82 -394.13, 96.26 -394.13 C121.7 -394.13, 156.18 -394.45, 184.74 -394.13 C213.3 -393.81, 240.34 -394.14, 267.61 -392.22 C294.88 -390.3, 323.11 -386.89, 348.35 -382.59 C373.59 -378.3, 395.19 -373.17, 419.03 -366.43 C442.86 -359.7, 469.13 -351.19, 491.34 -342.19 C513.55 -333.2, 533.73 -323.74, 552.28 -312.47 C570.83 -301.19, 587.34 -287.75, 602.65 -274.54 C617.96 -261.33, 631.8 -247.59, 644.16 -233.22 C656.53 -218.85, 667.34 -203.57, 676.85 -188.32 C686.35 -173.07, 693.67 -158.94, 701.18 -141.72 C708.69 -124.5, 716.07 -105.02, 721.89 -84.99 C727.71 -64.95, 732.44 -44.97, 736.1 -21.52 C739.76 1.92, 742.36 31.58, 743.85 55.69 C745.33 79.8, 745.91 99.77, 745.01 123.14 C744.11 146.51, 742.4 171.21, 738.43 195.91 C734.47 220.61, 727.93 248.52, 721.21 271.36 C714.48 294.21, 706.71 314.31, 698.06 332.98 C689.42 351.65, 679.46 368.29, 669.35 383.37 C659.24 398.44, 649.27 410.42, 637.41 423.41 C625.54 436.39, 612.18 449.56, 598.16 461.29 C584.14 473.01, 569.27 483.51, 553.3 493.75 C537.34 503.98, 521.04 514.02, 502.36 522.71 C483.67 531.39, 462.61 538.86, 441.19 545.85 C419.77 552.83, 398.16 559.27, 373.85 564.64 C349.54 570, 323.89 574.93, 295.34 578.03 C266.79 581.12, 229.88 582.35, 202.56 583.22 C175.24 584.08, 156.46 583.22, 131.39 583.22 C106.33 583.22, 70.56 583.22, 52.19 583.22 C33.83 583.22, 27.88 583.22, 21.2 583.22 C14.52 583.22, 14.81 583.49, 12.12 583.22 C9.44 582.94, 6.86 582.72, 5.08 581.58 C3.31 580.44, 2.19 579.43, 1.5 576.38 C0.81 573.33, 1.04 573.4, 0.96 563.3 C0.87 553.2, 0.99 534.64, 1 515.77 C1.01 496.9, 1 479.52, 1 450.07 C1 420.62, 1 382.46, 1 339.07 C1 295.68, 1 214.61, 1 189.72" stroke="#E1E1E1" stroke-width="4" fill="none"></path></g></g><mask></mask><g stroke-linecap="round"><g transform="translate(4121.740440696955 598.153044765204) rotate(0 91.99575475656366 0)"><path d="M0 0 C30.67 0, 153.33 0, 183.99 0 M0 0 C30.67 0, 153.33 0, 183.99 0" stroke="#E1E1E1" stroke-width="4" fill="none"></path></g></g><mask></mask><g stroke-linecap="round"><g transform="translate(4306.013544819644 598.3133568728445) rotate(0 0 117.31935420893842)"><path d="M0 0 C0 39.11, 0 195.53, 0 234.64 M0 0 C0 39.11, 0 195.53, 0 234.64" stroke="#E1E1E1" stroke-width="4" fill="none"></path></g></g><mask></mask><g stroke-linecap="round"><g transform="translate(4306.24882452632 814.3852844771172) rotate(0 182.50387483234726 -311.8993768204482)"><path d="M0 0 C6.21 0, 23.01 0.09, 37.29 0 C51.56 -0.09, 69.01 0.67, 85.65 -0.53 C102.28 -1.73, 119.07 -3.3, 137.1 -7.18 C155.13 -11.07, 176.36 -17.4, 193.83 -23.86 C211.3 -30.32, 226.45 -36.84, 241.95 -45.96 C257.45 -55.08, 273.23 -66.08, 286.82 -78.6 C300.4 -91.12, 313.34 -106.49, 323.46 -121.06 C333.58 -135.63, 340.27 -146.73, 347.53 -166.01 C354.79 -185.29, 362.89 -212.75, 367.01 -236.75 C371.13 -260.75, 372.24 -285.59, 372.25 -310.02 C372.25 -334.45, 370.73 -360.52, 367.03 -383.33 C363.33 -406.13, 358.05 -426.57, 350.05 -446.85 C342.04 -467.13, 331.04 -487.83, 319.02 -504.98 C307.01 -522.13, 293.7 -536.4, 277.96 -549.76 C262.22 -563.12, 243.86 -575.36, 224.57 -585.16 C205.28 -594.97, 184.1 -602.59, 162.23 -608.61 C140.36 -614.64, 114.43 -618.77, 93.35 -621.31 C72.26 -623.84, 52.5 -623.38, 35.73 -623.8 C18.97 -624.21, -0.08 -623.8, -7.24 -623.8 M0 0 C6.21 0, 23.01 0.09, 37.29 0 C51.56 -0.09, 69.01 0.67, 85.65 -0.53 C102.28 -1.73, 119.07 -3.3, 137.1 -7.18 C155.13 -11.07, 176.36 -17.4, 193.83 -23.86 C211.3 -30.32, 226.45 -36.84, 241.95 -45.96 C257.45 -55.08, 273.23 -66.08, 286.82 -78.6 C300.4 -91.12, 313.34 -106.49, 323.46 -121.06 C333.58 -135.63, 340.27 -146.73, 347.53 -166.01 C354.79 -185.29, 362.89 -212.75, 367.01 -236.75 C371.13 -260.75, 372.24 -285.59, 372.25 -310.02 C372.25 -334.45, 370.73 -360.52, 367.03 -383.33 C363.33 -406.13, 358.05 -426.57, 350.05 -446.85 C342.04 -467.13, 331.04 -487.83, 319.02 -504.98 C307.01 -522.13, 293.7 -536.4, 277.96 -549.76 C262.22 -563.12, 243.86 -575.36, 224.57 -585.16 C205.28 -594.97, 184.1 -602.59, 162.23 -608.61 C140.36 -614.64, 114.43 -618.77, 93.35 -621.31 C72.26 -623.84, 52.5 -623.38, 35.73 -623.8 C18.97 -624.21, -0.08 -623.8, -7.24 -623.8" stroke="#E1E1E1" stroke-width="4" fill="none"></path></g></g><mask></mask><g stroke-linecap="round"><g transform="translate(4309.264976089712 191.25531803393096) rotate(0 -1.1393466110584995 108.56259551979838)"><path d="M0 0 C-0.35 0.53, -1.7 0.25, -2.08 3.2 C-2.46 6.16, -2.25 -17.92, -2.28 17.74 C-2.31 53.39, -2.28 183.89, -2.28 217.13 M0 0 C-0.35 0.53, -1.7 0.25, -2.08 3.2 C-2.46 6.16, -2.25 -17.92, -2.28 17.74 C-2.31 53.39, -2.28 183.89, -2.28 217.13" stroke="#E1E1E1" stroke-width="4" fill="none"></path></g></g><mask></mask><g stroke-linecap="round"><g transform="translate(4305.668618539638 408.51224198280397) rotate(0 -86.4523380577034 -196.3960532366773)" fill-rule="evenodd"><path d="M0 0 C0 -13.58, 0 -51.43, 0 -81.45 C0 -111.48, 0 -141.38, 0 -180.16 C0 -218.95, 0 -284.14, 0 -314.17 C0 -344.2, -1.98 -349.23, 0 -360.34 C1.98 -371.45, 10.78 -375.52, 11.9 -380.83 C13.01 -386.13, 10.62 -390.16, 6.68 -392.14 C2.75 -394.13, 2.46 -392.64, -11.73 -392.74 C-25.91 -392.84, -56.82 -392.73, -78.42 -392.73 C-100.02 -392.74, -126.17 -392.81, -141.33 -392.79 C-156.48 -392.78, -162.87 -393.36, -169.35 -392.65 C-175.83 -391.94, -177.64 -390.67, -180.22 -388.53 C-182.79 -386.38, -184.09 -385.57, -184.8 -379.78 C-185.51 -373.99, -184.6 -369.56, -184.47 -353.82 C-184.33 -338.07, -184.06 -316.95, -183.98 -285.32 C-183.89 -253.69, -183.98 -203.54, -183.98 -164.05 C-183.98 -124.55, -183.99 -72.66, -183.98 -48.37 C-183.96 -24.08, -183.88 -24.55, -183.9 -18.3 C-183.93 -12.05, -184.05 -13.6, -184.12 -10.87 C-184.2 -8.14, -185.33 -3.67, -184.35 -1.91 C-183.38 -0.16, -182.93 -0.62, -178.28 -0.34 C-173.62 -0.05, -170.81 -0.21, -156.4 -0.19 C-142 -0.16, -108.51 -0.14, -91.86 -0.19 C-75.2 -0.23, -71.79 -0.48, -56.48 -0.45 C-41.17 -0.42, -9.41 -0.07, 0 0" stroke="none" stroke-width="0" fill="#e1e1e1" fill-rule="evenodd"></path><path d="M0 0 C0 -13.58, 0 -51.43, 0 -81.45 C0 -111.48, 0 -141.38, 0 -180.16 C0 -218.95, 0 -284.14, 0 -314.17 C0 -344.2, -1.98 -349.23, 0 -360.34 C1.98 -371.45, 10.78 -375.52, 11.9 -380.83 C13.01 -386.13, 10.62 -390.16, 6.68 -392.14 C2.75 -394.13, 2.46 -392.64, -11.73 -392.74 C-25.91 -392.84, -56.82 -392.73, -78.42 -392.73 C-100.02 -392.74, -126.17 -392.81, -141.33 -392.79 C-156.48 -392.78, -162.87 -393.36, -169.35 -392.65 C-175.83 -391.94, -177.64 -390.67, -180.22 -388.53 C-182.79 -386.38, -184.09 -385.57, -184.8 -379.78 C-185.51 -373.99, -184.6 -369.56, -184.47 -353.82 C-184.33 -338.07, -184.06 -316.95, -183.98 -285.32 C-183.89 -253.69, -183.98 -203.54, -183.98 -164.05 C-183.98 -124.55, -183.99 -72.66, -183.98 -48.37 C-183.96 -24.08, -183.88 -24.55, -183.9 -18.3 C-183.93 -12.05, -184.05 -13.6, -184.12 -10.87 C-184.2 -8.14, -185.33 -3.67, -184.35 -1.91 C-183.38 -0.16, -182.93 -0.62, -178.28 -0.34 C-173.62 -0.05, -170.81 -0.21, -156.4 -0.19 C-142 -0.16, -108.51 -0.14, -91.86 -0.19 C-75.2 -0.23, -71.79 -0.48, -56.48 -0.45 C-41.17 -0.42, -9.41 -0.07, 0 0 M0 0 C0 -13.58, 0 -51.43, 0 -81.45 C0 -111.48, 0 -141.38, 0 -180.16 C0 -218.95, 0 -284.14, 0 -314.17 C0 -344.2, -1.98 -349.23, 0 -360.34 C1.98 -371.45, 10.78 -375.52, 11.9 -380.83 C13.01 -386.13, 10.62 -390.16, 6.68 -392.14 C2.75 -394.13, 2.46 -392.64, -11.73 -392.74 C-25.91 -392.84, -56.82 -392.73, -78.42 -392.73 C-100.02 -392.74, -126.17 -392.81, -141.33 -392.79 C-156.48 -392.78, -162.87 -393.36, -169.35 -392.65 C-175.83 -391.94, -177.64 -390.67, -180.22 -388.53 C-182.79 -386.38, -184.09 -385.57, -184.8 -379.78 C-185.51 -373.99, -184.6 -369.56, -184.47 -353.82 C-184.33 -338.07, -184.06 -316.95, -183.98 -285.32 C-183.89 -253.69, -183.98 -203.54, -183.98 -164.05 C-183.98 -124.55, -183.99 -72.66, -183.98 -48.37 C-183.96 -24.08, -183.88 -24.55, -183.9 -18.3 C-183.93 -12.05, -184.05 -13.6, -184.12 -10.87 C-184.2 -8.14, -185.33 -3.67, -184.35 -1.91 C-183.38 -0.16, -182.93 -0.62, -178.28 -0.34 C-173.62 -0.05, -170.81 -0.21, -156.4 -0.19 C-142 -0.16, -108.51 -0.14, -91.86 -0.19 C-75.2 -0.23, -71.79 -0.48, -56.48 -0.45 C-41.17 -0.42, -9.41 -0.07, 0 0" stroke="#E1E1E1" stroke-width="4" fill="none"></path></g></g><mask></mask><g stroke-linecap="round"><g transform="translate(4305.809613259441 599.1809028649586) rotate(0 -85.50442911155369 196.3960532366773)" fill-rule="evenodd"><path d="M0 0 C-0.21 13.6, -1.05 51.47, -1.25 81.59 C-1.45 111.71, -1.55 141.94, -1.21 180.7 C-0.88 219.46, 0.45 284.23, 0.78 314.17 C1.11 344.11, -1.2 349.23, 0.78 360.34 C2.76 371.45, 11.56 375.52, 12.68 380.83 C13.79 386.13, 11.4 390.16, 7.46 392.14 C3.53 394.13, 3.24 392.64, -10.95 392.74 C-25.13 392.84, -56.04 392.73, -77.64 392.73 C-99.24 392.74, -125.39 392.81, -140.55 392.79 C-155.7 392.78, -162.1 393.15, -168.57 392.65 C-175.05 392.15, -177.03 391.7, -179.41 389.8 C-181.79 387.91, -182.14 387.28, -182.85 381.28 C-183.56 375.28, -183.63 369.81, -183.69 353.82 C-183.74 337.82, -183.28 316.95, -183.2 285.32 C-183.12 253.69, -183.2 203.54, -183.2 164.05 C-183.2 124.55, -183.3 72.65, -183.2 48.37 C-183.1 24.09, -182.58 24.62, -182.6 18.36 C-182.63 12.11, -183.23 13.72, -183.34 10.87 C-183.46 8.02, -184.28 3.01, -183.31 1.26 C-182.33 -0.5, -182.11 0.51, -177.5 0.34 C-172.88 0.16, -170.03 0.21, -155.62 0.19 C-141.22 0.16, -107.73 0.14, -91.08 0.19 C-74.42 0.23, -70.88 0.48, -55.7 0.45 C-40.52 0.42, -9.28 0.07, 0 0" stroke="none" stroke-width="0" fill="#e1e1e1" fill-rule="evenodd"></path><path d="M0 0 C-0.21 13.6, -1.05 51.47, -1.25 81.59 C-1.45 111.71, -1.55 141.94, -1.21 180.7 C-0.88 219.46, 0.45 284.23, 0.78 314.17 C1.11 344.11, -1.2 349.23, 0.78 360.34 C2.76 371.45, 11.56 375.52, 12.68 380.83 C13.79 386.13, 11.4 390.16, 7.46 392.14 C3.53 394.13, 3.24 392.64, -10.95 392.74 C-25.13 392.84, -56.04 392.73, -77.64 392.73 C-99.24 392.74, -125.39 392.81, -140.55 392.79 C-155.7 392.78, -162.1 393.15, -168.57 392.65 C-175.05 392.15, -177.03 391.7, -179.41 389.8 C-181.79 387.91, -182.14 387.28, -182.85 381.28 C-183.56 375.28, -183.63 369.81, -183.69 353.82 C-183.74 337.82, -183.28 316.95, -183.2 285.32 C-183.12 253.69, -183.2 203.54, -183.2 164.05 C-183.2 124.55, -183.3 72.65, -183.2 48.37 C-183.1 24.09, -182.58 24.62, -182.6 18.36 C-182.63 12.11, -183.23 13.72, -183.34 10.87 C-183.46 8.02, -184.28 3.01, -183.31 1.26 C-182.33 -0.5, -182.11 0.51, -177.5 0.34 C-172.88 0.16, -170.03 0.21, -155.62 0.19 C-141.22 0.16, -107.73 0.14, -91.08 0.19 C-74.42 0.23, -70.88 0.48, -55.7 0.45 C-40.52 0.42, -9.28 0.07, 0 0 M0 0 C-0.21 13.6, -1.05 51.47, -1.25 81.59 C-1.45 111.71, -1.55 141.94, -1.21 180.7 C-0.88 219.46, 0.45 284.23, 0.78 314.17 C1.11 344.11, -1.2 349.23, 0.78 360.34 C2.76 371.45, 11.56 375.52, 12.68 380.83 C13.79 386.13, 11.4 390.16, 7.46 392.14 C3.53 394.13, 3.24 392.64, -10.95 392.74 C-25.13 392.84, -56.04 392.73, -77.64 392.73 C-99.24 392.74, -125.39 392.81, -140.55 392.79 C-155.7 392.78, -162.1 393.15, -168.57 392.65 C-175.05 392.15, -177.03 391.7, -179.41 389.8 C-181.79 387.91, -182.14 387.28, -182.85 381.28 C-183.56 375.28, -183.63 369.81, -183.69 353.82 C-183.74 337.82, -183.28 316.95, -183.2 285.32 C-183.12 253.69, -183.2 203.54, -183.2 164.05 C-183.2 124.55, -183.3 72.65, -183.2 48.37 C-183.1 24.09, -182.58 24.62, -182.6 18.36 C-182.63 12.11, -183.23 13.72, -183.34 10.87 C-183.46 8.02, -184.28 3.01, -183.31 1.26 C-182.33 -0.5, -182.11 0.51, -177.5 0.34 C-172.88 0.16, -170.03 0.21, -155.62 0.19 C-141.22 0.16, -107.73 0.14, -91.08 0.19 C-74.42 0.23, -70.88 0.48, -55.7 0.45 C-40.52 0.42, -9.28 0.07, 0 0" stroke="#E1E1E1" stroke-width="4" fill="none"></path></g></g><mask></mask><g stroke-linecap="round"><g transform="translate(4305.285201960532 814.7128708795353) rotate(0 267.6164522455151 -311.17842963608837)" fill-rule="evenodd"><path d="M0 0 C4.69 0.1, 12.89 0.61, 28.15 0.6 C43.4 0.59, 72.95 1.17, 91.53 -0.06 C110.12 -1.3, 123.58 -3.37, 139.67 -6.81 C155.75 -10.26, 170.97 -14.37, 188.05 -20.73 C205.12 -27.09, 225.16 -35.22, 242.12 -45 C259.08 -54.77, 276.89 -67.96, 289.8 -79.38 C302.72 -90.8, 311.03 -102.2, 319.6 -113.51 C328.16 -124.81, 334.69 -133.95, 341.2 -147.21 C347.7 -160.47, 353.63 -176.65, 358.62 -193.06 C363.62 -209.46, 368.73 -231.86, 371.15 -245.64 C373.57 -259.42, 372.66 -265.23, 373.15 -275.76 C373.64 -286.3, 374.19 -296.07, 374.1 -308.84 C374.01 -321.6, 373.79 -338.14, 372.61 -352.34 C371.43 -366.55, 369.54 -380.86, 367.02 -394.07 C364.51 -407.28, 361.95 -418.36, 357.54 -431.61 C353.13 -444.85, 346.86 -460.84, 340.56 -473.53 C334.26 -486.23, 328.22 -496.33, 319.75 -507.78 C311.27 -519.24, 300.73 -531.79, 289.71 -542.27 C278.68 -552.74, 265.19 -562.72, 253.6 -570.63 C242 -578.53, 235.07 -583.07, 220.15 -589.7 C205.23 -596.32, 180.45 -605.47, 164.08 -610.39 C147.71 -615.32, 136.25 -616.93, 121.9 -619.24 C107.56 -621.56, 94.13 -623.2, 78.01 -624.27 C61.88 -625.35, 38.26 -625.57, 25.17 -625.7 C12.08 -625.83, 7.71 -624.47, -0.53 -625.07 C-8.78 -625.67, -22.03 -625.33, -24.28 -629.31 C-26.53 -633.29, -14.94 -622.17, -14.01 -648.94 C-13.08 -675.7, -20.79 -767.01, -18.7 -789.91 C-16.61 -812.81, -5.27 -784.99, -1.46 -786.34 C2.36 -787.7, 1.66 -795.96, 4.21 -798.05 C6.76 -800.13, 6.03 -798.84, 13.84 -798.84 C21.64 -798.84, 37.28 -798.65, 51.04 -798.07 C64.8 -797.49, 80.71 -796.73, 96.38 -795.36 C112.05 -793.99, 129.16 -792.08, 145.07 -789.84 C160.98 -787.6, 175.87 -785.47, 191.84 -781.95 C207.81 -778.43, 223.92 -773.69, 240.9 -768.71 C257.88 -763.72, 276.08 -758.56, 293.71 -752.02 C311.35 -745.48, 331.35 -737.34, 346.71 -729.47 C362.07 -721.6, 372.8 -714.33, 385.86 -704.8 C398.92 -695.27, 412.09 -684.34, 425.07 -672.26 C438.05 -660.19, 453.52 -644.1, 463.73 -632.37 C473.93 -620.64, 478.98 -612.96, 486.3 -601.86 C493.62 -590.77, 500.68 -580.22, 507.65 -565.8 C514.63 -551.38, 522.2 -532.01, 528.13 -515.34 C534.06 -498.68, 539.23 -481.9, 543.24 -465.82 C547.25 -449.74, 549.73 -437.79, 552.17 -418.86 C554.61 -399.94, 556.65 -373.17, 557.87 -352.28 C559.1 -331.39, 560.01 -314.76, 559.51 -293.54 C559.01 -272.32, 557.05 -244.36, 554.85 -224.95 C552.66 -205.54, 550.09 -194.15, 546.34 -177.08 C542.58 -160.01, 538.09 -139.89, 532.33 -122.53 C526.58 -105.17, 519.45 -88.86, 511.82 -72.94 C504.2 -57.02, 495.12 -40.31, 486.59 -26.99 C478.06 -13.66, 470.89 -4.78, 460.64 7.01 C450.4 18.8, 437.45 32.48, 425.12 43.75 C412.79 55.02, 401.95 63.79, 386.65 74.63 C371.36 85.47, 350.47 99.59, 333.35 108.78 C316.23 117.98, 301.95 123.18, 283.96 129.81 C265.97 136.44, 244.17 143.21, 225.41 148.55 C206.64 153.9, 189.51 158.14, 171.34 161.9 C153.18 165.66, 135 168.98, 116.43 171.13 C97.86 173.29, 75.43 174.06, 59.94 174.82 C44.45 175.57, 34.4 175.39, 23.5 175.67 C12.6 175.94, 0.98 179.59, -5.47 176.48 C-11.93 173.38, -14.36 169.34, -15.23 157.05 C-16.1 144.76, -13.57 128.61, -10.7 102.74 C-7.84 76.88, -0.14 18.68, 1.97 1.87" stroke="none" stroke-width="0" fill="#e1e1e1" fill-rule="evenodd"></path><path d="M0 0 C4.69 0.1, 12.89 0.61, 28.15 0.6 C43.4 0.59, 72.95 1.17, 91.53 -0.06 C110.12 -1.3, 123.58 -3.37, 139.67 -6.81 C155.75 -10.26, 170.97 -14.37, 188.05 -20.73 C205.12 -27.09, 225.16 -35.22, 242.12 -45 C259.08 -54.77, 276.89 -67.96, 289.8 -79.38 C302.72 -90.8, 311.03 -102.2, 319.6 -113.51 C328.16 -124.81, 334.69 -133.95, 341.2 -147.21 C347.7 -160.47, 353.63 -176.65, 358.62 -193.06 C363.62 -209.46, 368.73 -231.86, 371.15 -245.64 C373.57 -259.42, 372.66 -265.23, 373.15 -275.76 C373.64 -286.3, 374.19 -296.07, 374.1 -308.84 C374.01 -321.6, 373.79 -338.14, 372.61 -352.34 C371.43 -366.55, 369.54 -380.86, 367.02 -394.07 C364.51 -407.28, 361.95 -418.36, 357.54 -431.61 C353.13 -444.85, 346.86 -460.84, 340.56 -473.53 C334.26 -486.23, 328.22 -496.33, 319.75 -507.78 C311.27 -519.24, 300.73 -531.79, 289.71 -542.27 C278.68 -552.74, 265.19 -562.72, 253.6 -570.63 C242 -578.53, 235.07 -583.07, 220.15 -589.7 C205.23 -596.32, 180.45 -605.47, 164.08 -610.39 C147.71 -615.32, 136.25 -616.93, 121.9 -619.24 C107.56 -621.56, 94.13 -623.2, 78.01 -624.27 C61.88 -625.35, 38.26 -625.57, 25.17 -625.7 C12.08 -625.83, 7.71 -624.47, -0.53 -625.07 C-8.78 -625.67, -22.03 -625.33, -24.28 -629.31 C-26.53 -633.29, -14.94 -622.17, -14.01 -648.94 C-13.08 -675.7, -20.79 -767.01, -18.7 -789.91 C-16.61 -812.81, -5.27 -784.99, -1.46 -786.34 C2.36 -787.7, 1.66 -795.96, 4.21 -798.05 C6.76 -800.13, 6.03 -798.84, 13.84 -798.84 C21.64 -798.84, 37.28 -798.65, 51.04 -798.07 C64.8 -797.49, 80.71 -796.73, 96.38 -795.36 C112.05 -793.99, 129.16 -792.08, 145.07 -789.84 C160.98 -787.6, 175.87 -785.47, 191.84 -781.95 C207.81 -778.43, 223.92 -773.69, 240.9 -768.71 C257.88 -763.72, 276.08 -758.56, 293.71 -752.02 C311.35 -745.48, 331.35 -737.34, 346.71 -729.47 C362.07 -721.6, 372.8 -714.33, 385.86 -704.8 C398.92 -695.27, 412.09 -684.34, 425.07 -672.26 C438.05 -660.19, 453.52 -644.1, 463.73 -632.37 C473.93 -620.64, 478.98 -612.96, 486.3 -601.86 C493.62 -590.77, 500.68 -580.22, 507.65 -565.8 C514.63 -551.38, 522.2 -532.01, 528.13 -515.34 C534.06 -498.68, 539.23 -481.9, 543.24 -465.82 C547.25 -449.74, 549.73 -437.79, 552.17 -418.86 C554.61 -399.94, 556.65 -373.17, 557.87 -352.28 C559.1 -331.39, 560.01 -314.76, 559.51 -293.54 C559.01 -272.32, 557.05 -244.36, 554.85 -224.95 C552.66 -205.54, 550.09 -194.15, 546.34 -177.08 C542.58 -160.01, 538.09 -139.89, 532.33 -122.53 C526.58 -105.17, 519.45 -88.86, 511.82 -72.94 C504.2 -57.02, 495.12 -40.31, 486.59 -26.99 C478.06 -13.66, 470.89 -4.78, 460.64 7.01 C450.4 18.8, 437.45 32.48, 425.12 43.75 C412.79 55.02, 401.95 63.79, 386.65 74.63 C371.36 85.47, 350.47 99.59, 333.35 108.78 C316.23 117.98, 301.95 123.18, 283.96 129.81 C265.97 136.44, 244.17 143.21, 225.41 148.55 C206.64 153.9, 189.51 158.14, 171.34 161.9 C153.18 165.66, 135 168.98, 116.43 171.13 C97.86 173.29, 75.43 174.06, 59.94 174.82 C44.45 175.57, 34.4 175.39, 23.5 175.67 C12.6 175.94, 0.98 179.59, -5.47 176.48 C-11.93 173.38, -14.36 169.34, -15.23 157.05 C-16.1 144.76, -13.57 128.61, -10.7 102.74 C-7.84 76.88, -0.14 18.68, 1.97 1.87 M0 0 C4.69 0.1, 12.89 0.61, 28.15 0.6 C43.4 0.59, 72.95 1.17, 91.53 -0.06 C110.12 -1.3, 123.58 -3.37, 139.67 -6.81 C155.75 -10.26, 170.97 -14.37, 188.05 -20.73 C205.12 -27.09, 225.16 -35.22, 242.12 -45 C259.08 -54.77, 276.89 -67.96, 289.8 -79.38 C302.72 -90.8, 311.03 -102.2, 319.6 -113.51 C328.16 -124.81, 334.69 -133.95, 341.2 -147.21 C347.7 -160.47, 353.63 -176.65, 358.62 -193.06 C363.62 -209.46, 368.73 -231.86, 371.15 -245.64 C373.57 -259.42, 372.66 -265.23, 373.15 -275.76 C373.64 -286.3, 374.19 -296.07, 374.1 -308.84 C374.01 -321.6, 373.79 -338.14, 372.61 -352.34 C371.43 -366.55, 369.54 -380.86, 367.02 -394.07 C364.51 -407.28, 361.95 -418.36, 357.54 -431.61 C353.13 -444.85, 346.86 -460.84, 340.56 -473.53 C334.26 -486.23, 328.22 -496.33, 319.75 -507.78 C311.27 -519.24, 300.73 -531.79, 289.71 -542.27 C278.68 -552.74, 265.19 -562.72, 253.6 -570.63 C242 -578.53, 235.07 -583.07, 220.15 -589.7 C205.23 -596.32, 180.45 -605.47, 164.08 -610.39 C147.71 -615.32, 136.25 -616.93, 121.9 -619.24 C107.56 -621.56, 94.13 -623.2, 78.01 -624.27 C61.88 -625.35, 38.26 -625.57, 25.17 -625.7 C12.08 -625.83, 7.71 -624.47, -0.53 -625.07 C-8.78 -625.67, -22.03 -625.33, -24.28 -629.31 C-26.53 -633.29, -14.94 -622.17, -14.01 -648.94 C-13.08 -675.7, -20.79 -767.01, -18.7 -789.91 C-16.61 -812.81, -5.27 -784.99, -1.46 -786.34 C2.36 -787.7, 1.66 -795.96, 4.21 -798.05 C6.76 -800.13, 6.03 -798.84, 13.84 -798.84 C21.64 -798.84, 37.28 -798.65, 51.04 -798.07 C64.8 -797.49, 80.71 -796.73, 96.38 -795.36 C112.05 -793.99, 129.16 -792.08, 145.07 -789.84 C160.98 -787.6, 175.87 -785.47, 191.84 -781.95 C207.81 -778.43, 223.92 -773.69, 240.9 -768.71 C257.88 -763.72, 276.08 -758.56, 293.71 -752.02 C311.35 -745.48, 331.35 -737.34, 346.71 -729.47 C362.07 -721.6, 372.8 -714.33, 385.86 -704.8 C398.92 -695.27, 412.09 -684.34, 425.07 -672.26 C438.05 -660.19, 453.52 -644.1, 463.73 -632.37 C473.93 -620.64, 478.98 -612.96, 486.3 -601.86 C493.62 -590.77, 500.68 -580.22, 507.65 -565.8 C514.63 -551.38, 522.2 -532.01, 528.13 -515.34 C534.06 -498.68, 539.23 -481.9, 543.24 -465.82 C547.25 -449.74, 549.73 -437.79, 552.17 -418.86 C554.61 -399.94, 556.65 -373.17, 557.87 -352.28 C559.1 -331.39, 560.01 -314.76, 559.51 -293.54 C559.01 -272.32, 557.05 -244.36, 554.85 -224.95 C552.66 -205.54, 550.09 -194.15, 546.34 -177.08 C542.58 -160.01, 538.09 -139.89, 532.33 -122.53 C526.58 -105.17, 519.45 -88.86, 511.82 -72.94 C504.2 -57.02, 495.12 -40.31, 486.59 -26.99 C478.06 -13.66, 470.89 -4.78, 460.64 7.01 C450.4 18.8, 437.45 32.48, 425.12 43.75 C412.79 55.02, 401.95 63.79, 386.65 74.63 C371.36 85.47, 350.47 99.59, 333.35 108.78 C316.23 117.98, 301.95 123.18, 283.96 129.81 C265.97 136.44, 244.17 143.21, 225.41 148.55 C206.64 153.9, 189.51 158.14, 171.34 161.9 C153.18 165.66, 135 168.98, 116.43 171.13 C97.86 173.29, 75.43 174.06, 59.94 174.82 C44.45 175.57, 34.4 175.39, 23.5 175.67 C12.6 175.94, 0.98 179.59, -5.47 176.48 C-11.93 173.38, -14.36 169.34, -15.23 157.05 C-16.1 144.76, -13.57 128.61, -10.7 102.74 C-7.84 76.88, -0.14 18.68, 1.97 1.87" stroke="#E1E1E1" stroke-width="4" fill="none"></path></g></g><mask></mask><g stroke-linecap="round"><g transform="translate(5211.3397997787115 816.2402893252784) rotate(0 0 87.21986419299628)"><path d="M0 0 C0 29.07, 0 145.37, 0 174.44 M0 0 C0 29.07, 0 145.37, 0 174.44" stroke="#E1E1E1" stroke-width="4" fill="none"></path></g></g><mask></mask><g stroke-linecap="round"><g transform="translate(5211.468705133492 990.8137329673464) rotate(0 -1.7989030853666463 -489.2698938710537)" fill-rule="evenodd"><path d="M0 0 C5.24 -0.14, 19.64 0.32, 31.47 -0.81 C43.3 -1.95, 57.68 -4.03, 70.99 -6.81 C84.3 -9.59, 96.02 -11.93, 111.32 -17.49 C126.61 -23.05, 147.87 -31.98, 162.77 -40.17 C177.68 -48.37, 188.86 -56.91, 200.74 -66.67 C212.62 -76.43, 223.61 -87.02, 234.06 -98.74 C244.51 -110.45, 254.58 -122.33, 263.44 -136.95 C272.31 -151.56, 281.3 -169.55, 287.26 -186.43 C293.22 -203.32, 296.75 -219.02, 299.19 -238.24 C301.62 -257.46, 302.78 -281.51, 301.86 -301.75 C300.94 -322, 298.11 -341.17, 293.65 -359.71 C289.18 -378.24, 281.97 -397.28, 275.06 -412.95 C268.16 -428.61, 261.38 -440.8, 252.22 -453.7 C243.07 -466.61, 233.13 -478.34, 220.14 -490.38 C207.14 -502.42, 191.1 -515.5, 174.28 -525.96 C157.45 -536.42, 137.73 -545.73, 119.17 -553.16 C100.61 -560.59, 79.49 -566.9, 62.91 -570.56 C46.34 -574.22, 32.59 -574.05, 19.71 -575.09 C6.82 -576.13, -3.32 -575.51, -14.42 -576.81 C-25.51 -578.11, -37.06 -579.86, -46.86 -582.9 C-56.67 -585.93, -64.63 -589.57, -73.25 -595 C-81.86 -600.44, -91.76 -607.89, -98.55 -615.51 C-105.35 -623.12, -109.95 -631.06, -114 -640.7 C-118.05 -650.34, -121.63 -661.73, -122.86 -673.35 C-124.09 -684.98, -124.06 -697.72, -121.37 -710.47 C-118.69 -723.21, -113.22 -738.68, -106.76 -749.83 C-100.3 -760.97, -92.01 -769.49, -82.62 -777.35 C-73.24 -785.21, -61.59 -792.43, -50.46 -796.98 C-39.33 -801.53, -28.15 -803.57, -15.86 -804.66 C-3.57 -805.74, 10.67 -805.42, 23.31 -803.48 C35.94 -801.54, 48.83 -798.32, 59.94 -793.02 C71.05 -787.72, 82.02 -779.05, 89.96 -771.68 C97.9 -764.31, 103 -757.12, 107.58 -748.82 C112.15 -740.52, 115.26 -730.12, 117.42 -721.9 C119.59 -713.68, 119.11 -704.17, 120.58 -699.49 C122.05 -694.82, 123.21 -695.2, 126.25 -693.83 C129.3 -692.46, 134.76 -691.68, 138.84 -691.25 C142.92 -690.82, 130.09 -691.25, 150.75 -691.25 C171.41 -691.25, 241.02 -691.25, 262.81 -691.25 C284.6 -691.25, 277.31 -691.25, 281.5 -691.25 C285.7 -691.25, 285.62 -690.67, 287.96 -691.25 C290.3 -691.82, 293.89 -693.61, 295.55 -694.68 C297.21 -695.74, 297.49 -695.61, 297.91 -697.64 C298.34 -699.66, 298.39 -700, 298.11 -706.84 C297.82 -713.67, 297.96 -726.6, 296.21 -738.65 C294.46 -750.7, 292.11 -764.44, 287.61 -779.13 C283.11 -793.82, 277.96 -810.33, 269.2 -826.79 C260.44 -843.24, 248.59 -862.01, 235.06 -877.86 C221.52 -893.71, 203.96 -909.9, 187.97 -921.89 C171.97 -933.88, 156.99 -941.65, 139.09 -949.79 C121.18 -957.93, 99.84 -965.93, 80.56 -970.72 C61.29 -975.51, 42.54 -977.28, 23.43 -978.54 C4.33 -979.8, -14.96 -980.07, -34.07 -978.28 C-53.18 -976.48, -70.69 -974.04, -91.23 -967.76 C-111.76 -961.48, -138.41 -950.45, -157.29 -940.59 C-176.17 -930.73, -189.66 -921.28, -204.51 -908.6 C-219.36 -895.91, -234.5 -879.93, -246.39 -864.48 C-258.27 -849.03, -267.48 -833, -275.8 -815.9 C-284.11 -798.8, -291.34 -780.77, -296.29 -761.86 C-301.23 -742.96, -304.36 -722.28, -305.46 -702.45 C-306.56 -682.61, -305.18 -660.62, -302.9 -642.86 C-300.62 -625.1, -296.5 -610.48, -291.75 -595.89 C-287.01 -581.3, -281.99 -569.07, -274.44 -555.32 C-266.89 -541.56, -257.59 -526.73, -246.46 -513.34 C-235.32 -499.96, -221.04 -485.79, -207.62 -475 C-194.19 -464.21, -181.49 -456.82, -165.9 -448.58 C-150.3 -440.33, -131.19 -431.74, -114.04 -425.51 C-96.89 -419.28, -79.06 -414.44, -62.99 -411.21 C-46.93 -407.98, -32.03 -407.61, -17.63 -406.11 C-3.24 -404.6, 11.89 -404.61, 23.4 -402.19 C34.92 -399.76, 41.38 -396.92, 51.45 -391.55 C61.53 -386.18, 74.83 -378.01, 83.86 -369.96 C92.89 -361.9, 99.79 -352.31, 105.64 -343.23 C111.48 -334.16, 116.3 -325.65, 118.93 -315.5 C121.56 -305.36, 121.98 -293.26, 121.41 -282.36 C120.84 -271.45, 119.56 -260.57, 115.51 -250.08 C111.47 -239.59, 104.45 -228.35, 97.14 -219.42 C89.84 -210.5, 81.01 -203.02, 71.67 -196.54 C62.33 -190.06, 50.04 -183.8, 41.11 -180.53 C32.17 -177.27, 24.62 -177.68, 18.05 -176.94 C11.48 -176.21, 4.65 -177.14, 1.67 -176.12 C-1.31 -175.09, 0.34 -175.12, 0.2 -170.82 C0.05 -166.52, 0.83 -165.84, 0.81 -150.32 C0.8 -134.79, 0.24 -102.7, 0.1 -77.65 C-0.04 -52.6, 0.02 -12.94, 0 0" stroke="none" stroke-width="0" fill="#e1e1e1" fill-rule="evenodd"></path><path d="M0 0 C5.24 -0.14, 19.64 0.32, 31.47 -0.81 C43.3 -1.95, 57.68 -4.03, 70.99 -6.81 C84.3 -9.59, 96.02 -11.93, 111.32 -17.49 C126.61 -23.05, 147.87 -31.98, 162.77 -40.17 C177.68 -48.37, 188.86 -56.91, 200.74 -66.67 C212.62 -76.43, 223.61 -87.02, 234.06 -98.74 C244.51 -110.45, 254.58 -122.33, 263.44 -136.95 C272.31 -151.56, 281.3 -169.55, 287.26 -186.43 C293.22 -203.32, 296.75 -219.02, 299.19 -238.24 C301.62 -257.46, 302.78 -281.51, 301.86 -301.75 C300.94 -322, 298.11 -341.17, 293.65 -359.71 C289.18 -378.24, 281.97 -397.28, 275.06 -412.95 C268.16 -428.61, 261.38 -440.8, 252.22 -453.7 C243.07 -466.61, 233.13 -478.34, 220.14 -490.38 C207.14 -502.42, 191.1 -515.5, 174.28 -525.96 C157.45 -536.42, 137.73 -545.73, 119.17 -553.16 C100.61 -560.59, 79.49 -566.9, 62.91 -570.56 C46.34 -574.22, 32.59 -574.05, 19.71 -575.09 C6.82 -576.13, -3.32 -575.51, -14.42 -576.81 C-25.51 -578.11, -37.06 -579.86, -46.86 -582.9 C-56.67 -585.93, -64.63 -589.57, -73.25 -595 C-81.86 -600.44, -91.76 -607.89, -98.55 -615.51 C-105.35 -623.12, -109.95 -631.06, -114 -640.7 C-118.05 -650.34, -121.63 -661.73, -122.86 -673.35 C-124.09 -684.98, -124.06 -697.72, -121.37 -710.47 C-118.69 -723.21, -113.22 -738.68, -106.76 -749.83 C-100.3 -760.97, -92.01 -769.49, -82.62 -777.35 C-73.24 -785.21, -61.59 -792.43, -50.46 -796.98 C-39.33 -801.53, -28.15 -803.57, -15.86 -804.66 C-3.57 -805.74, 10.67 -805.42, 23.31 -803.48 C35.94 -801.54, 48.83 -798.32, 59.94 -793.02 C71.05 -787.72, 82.02 -779.05, 89.96 -771.68 C97.9 -764.31, 103 -757.12, 107.58 -748.82 C112.15 -740.52, 115.26 -730.12, 117.42 -721.9 C119.59 -713.68, 119.11 -704.17, 120.58 -699.49 C122.05 -694.82, 123.21 -695.2, 126.25 -693.83 C129.3 -692.46, 134.76 -691.68, 138.84 -691.25 C142.92 -690.82, 130.09 -691.25, 150.75 -691.25 C171.41 -691.25, 241.02 -691.25, 262.81 -691.25 C284.6 -691.25, 277.31 -691.25, 281.5 -691.25 C285.7 -691.25, 285.62 -690.67, 287.96 -691.25 C290.3 -691.82, 293.89 -693.61, 295.55 -694.68 C297.21 -695.74, 297.49 -695.61, 297.91 -697.64 C298.34 -699.66, 298.39 -700, 298.11 -706.84 C297.82 -713.67, 297.96 -726.6, 296.21 -738.65 C294.46 -750.7, 292.11 -764.44, 287.61 -779.13 C283.11 -793.82, 277.96 -810.33, 269.2 -826.79 C260.44 -843.24, 248.59 -862.01, 235.06 -877.86 C221.52 -893.71, 203.96 -909.9, 187.97 -921.89 C171.97 -933.88, 156.99 -941.65, 139.09 -949.79 C121.18 -957.93, 99.84 -965.93, 80.56 -970.72 C61.29 -975.51, 42.54 -977.28, 23.43 -978.54 C4.33 -979.8, -14.96 -980.07, -34.07 -978.28 C-53.18 -976.48, -70.69 -974.04, -91.23 -967.76 C-111.76 -961.48, -138.41 -950.45, -157.29 -940.59 C-176.17 -930.73, -189.66 -921.28, -204.51 -908.6 C-219.36 -895.91, -234.5 -879.93, -246.39 -864.48 C-258.27 -849.03, -267.48 -833, -275.8 -815.9 C-284.11 -798.8, -291.34 -780.77, -296.29 -761.86 C-301.23 -742.96, -304.36 -722.28, -305.46 -702.45 C-306.56 -682.61, -305.18 -660.62, -302.9 -642.86 C-300.62 -625.1, -296.5 -610.48, -291.75 -595.89 C-287.01 -581.3, -281.99 -569.07, -274.44 -555.32 C-266.89 -541.56, -257.59 -526.73, -246.46 -513.34 C-235.32 -499.96, -221.04 -485.79, -207.62 -475 C-194.19 -464.21, -181.49 -456.82, -165.9 -448.58 C-150.3 -440.33, -131.19 -431.74, -114.04 -425.51 C-96.89 -419.28, -79.06 -414.44, -62.99 -411.21 C-46.93 -407.98, -32.03 -407.61, -17.63 -406.11 C-3.24 -404.6, 11.89 -404.61, 23.4 -402.19 C34.92 -399.76, 41.38 -396.92, 51.45 -391.55 C61.53 -386.18, 74.83 -378.01, 83.86 -369.96 C92.89 -361.9, 99.79 -352.31, 105.64 -343.23 C111.48 -334.16, 116.3 -325.65, 118.93 -315.5 C121.56 -305.36, 121.98 -293.26, 121.41 -282.36 C120.84 -271.45, 119.56 -260.57, 115.51 -250.08 C111.47 -239.59, 104.45 -228.35, 97.14 -219.42 C89.84 -210.5, 81.01 -203.02, 71.67 -196.54 C62.33 -190.06, 50.04 -183.8, 41.11 -180.53 C32.17 -177.27, 24.62 -177.68, 18.05 -176.94 C11.48 -176.21, 4.65 -177.14, 1.67 -176.12 C-1.31 -175.09, 0.34 -175.12, 0.2 -170.82 C0.05 -166.52, 0.83 -165.84, 0.81 -150.32 C0.8 -134.79, 0.24 -102.7, 0.1 -77.65 C-0.04 -52.6, 0.02 -12.94, 0 0 M0 0 C5.24 -0.14, 19.64 0.32, 31.47 -0.81 C43.3 -1.95, 57.68 -4.03, 70.99 -6.81 C84.3 -9.59, 96.02 -11.93, 111.32 -17.49 C126.61 -23.05, 147.87 -31.98, 162.77 -40.17 C177.68 -48.37, 188.86 -56.91, 200.74 -66.67 C212.62 -76.43, 223.61 -87.02, 234.06 -98.74 C244.51 -110.45, 254.58 -122.33, 263.44 -136.95 C272.31 -151.56, 281.3 -169.55, 287.26 -186.43 C293.22 -203.32, 296.75 -219.02, 299.19 -238.24 C301.62 -257.46, 302.78 -281.51, 301.86 -301.75 C300.94 -322, 298.11 -341.17, 293.65 -359.71 C289.18 -378.24, 281.97 -397.28, 275.06 -412.95 C268.16 -428.61, 261.38 -440.8, 252.22 -453.7 C243.07 -466.61, 233.13 -478.34, 220.14 -490.38 C207.14 -502.42, 191.1 -515.5, 174.28 -525.96 C157.45 -536.42, 137.73 -545.73, 119.17 -553.16 C100.61 -560.59, 79.49 -566.9, 62.91 -570.56 C46.34 -574.22, 32.59 -574.05, 19.71 -575.09 C6.82 -576.13, -3.32 -575.51, -14.42 -576.81 C-25.51 -578.11, -37.06 -579.86, -46.86 -582.9 C-56.67 -585.93, -64.63 -589.57, -73.25 -595 C-81.86 -600.44, -91.76 -607.89, -98.55 -615.51 C-105.35 -623.12, -109.95 -631.06, -114 -640.7 C-118.05 -650.34, -121.63 -661.73, -122.86 -673.35 C-124.09 -684.98, -124.06 -697.72, -121.37 -710.47 C-118.69 -723.21, -113.22 -738.68, -106.76 -749.83 C-100.3 -760.97, -92.01 -769.49, -82.62 -777.35 C-73.24 -785.21, -61.59 -792.43, -50.46 -796.98 C-39.33 -801.53, -28.15 -803.57, -15.86 -804.66 C-3.57 -805.74, 10.67 -805.42, 23.31 -803.48 C35.94 -801.54, 48.83 -798.32, 59.94 -793.02 C71.05 -787.72, 82.02 -779.05, 89.96 -771.68 C97.9 -764.31, 103 -757.12, 107.58 -748.82 C112.15 -740.52, 115.26 -730.12, 117.42 -721.9 C119.59 -713.68, 119.11 -704.17, 120.58 -699.49 C122.05 -694.82, 123.21 -695.2, 126.25 -693.83 C129.3 -692.46, 134.76 -691.68, 138.84 -691.25 C142.92 -690.82, 130.09 -691.25, 150.75 -691.25 C171.41 -691.25, 241.02 -691.25, 262.81 -691.25 C284.6 -691.25, 277.31 -691.25, 281.5 -691.25 C285.7 -691.25, 285.62 -690.67, 287.96 -691.25 C290.3 -691.82, 293.89 -693.61, 295.55 -694.68 C297.21 -695.74, 297.49 -695.61, 297.91 -697.64 C298.34 -699.66, 298.39 -700, 298.11 -706.84 C297.82 -713.67, 297.96 -726.6, 296.21 -738.65 C294.46 -750.7, 292.11 -764.44, 287.61 -779.13 C283.11 -793.82, 277.96 -810.33, 269.2 -826.79 C260.44 -843.24, 248.59 -862.01, 235.06 -877.86 C221.52 -893.71, 203.96 -909.9, 187.97 -921.89 C171.97 -933.88, 156.99 -941.65, 139.09 -949.79 C121.18 -957.93, 99.84 -965.93, 80.56 -970.72 C61.29 -975.51, 42.54 -977.28, 23.43 -978.54 C4.33 -979.8, -14.96 -980.07, -34.07 -978.28 C-53.18 -976.48, -70.69 -974.04, -91.23 -967.76 C-111.76 -961.48, -138.41 -950.45, -157.29 -940.59 C-176.17 -930.73, -189.66 -921.28, -204.51 -908.6 C-219.36 -895.91, -234.5 -879.93, -246.39 -864.48 C-258.27 -849.03, -267.48 -833, -275.8 -815.9 C-284.11 -798.8, -291.34 -780.77, -296.29 -761.86 C-301.23 -742.96, -304.36 -722.28, -305.46 -702.45 C-306.56 -682.61, -305.18 -660.62, -302.9 -642.86 C-300.62 -625.1, -296.5 -610.48, -291.75 -595.89 C-287.01 -581.3, -281.99 -569.07, -274.44 -555.32 C-266.89 -541.56, -257.59 -526.73, -246.46 -513.34 C-235.32 -499.96, -221.04 -485.79, -207.62 -475 C-194.19 -464.21, -181.49 -456.82, -165.9 -448.58 C-150.3 -440.33, -131.19 -431.74, -114.04 -425.51 C-96.89 -419.28, -79.06 -414.44, -62.99 -411.21 C-46.93 -407.98, -32.03 -407.61, -17.63 -406.11 C-3.24 -404.6, 11.89 -404.61, 23.4 -402.19 C34.92 -399.76, 41.38 -396.92, 51.45 -391.55 C61.53 -386.18, 74.83 -378.01, 83.86 -369.96 C92.89 -361.9, 99.79 -352.31, 105.64 -343.23 C111.48 -334.16, 116.3 -325.65, 118.93 -315.5 C121.56 -305.36, 121.98 -293.26, 121.41 -282.36 C120.84 -271.45, 119.56 -260.57, 115.51 -250.08 C111.47 -239.59, 104.45 -228.35, 97.14 -219.42 C89.84 -210.5, 81.01 -203.02, 71.67 -196.54 C62.33 -190.06, 50.04 -183.8, 41.11 -180.53 C32.17 -177.27, 24.62 -177.68, 18.05 -176.94 C11.48 -176.21, 4.65 -177.14, 1.67 -176.12 C-1.31 -175.09, 0.34 -175.12, 0.2 -170.82 C0.05 -166.52, 0.83 -165.84, 0.81 -150.32 C0.8 -134.79, 0.24 -102.7, 0.1 -77.65 C-0.04 -52.6, 0.02 -12.94, 0 0" stroke="#E1E1E1" stroke-width="4" fill="none"></path></g></g><mask></mask></svg>