<svg version="1.1" xmlns="http://www.w3.org/2000/svg" viewBox="0 0 719.856456094166 728.4906816258738" width="719.856456094166" height="728.4906816258738" class="excalidraw-svg"><!-- svg-source:excalidraw --><metadata></metadata><defs><style class="style-fonts">
      </style></defs><rect x="0" y="0" width="719.856456094166" height="728.4906816258738" fill="#000000"></rect><g stroke-linecap="round"><g transform="translate(264.14832487703626 187.57402317907412) rotate(0 26.720345962479115 86.27562240163971)"><path d="M0 0 C0.09 -4.01, -1.47 -17.44, 0.53 -24.08 C2.54 -30.71, 7.42 -36.35, 12.02 -39.8 C16.62 -43.25, 22.55 -45.11, 28.15 -44.76 C33.76 -44.41, 41.3 -43, 45.63 -37.68 C49.96 -32.35, 52.81 -23.52, 54.14 -12.8 C55.48 -2.07, 53.86 8.5, 53.66 26.66 C53.45 44.81, 52.81 73.66, 52.91 96.14 C53.02 118.63, 54.57 143.45, 54.3 161.58 C54.04 179.72, 55.54 195.67, 51.31 204.95 C47.09 214.24, 36.05 216.9, 28.98 217.31 C21.9 217.72, 13.85 212.71, 8.88 207.44 C3.91 202.16, 0.73 200.92, -0.86 185.67 C-2.45 170.41, -0.74 142.62, -0.68 115.91 C-0.62 89.19, -0.54 40.45, -0.51 25.36 M0 0 C0.09 -4.01, -1.47 -17.44, 0.53 -24.08 C2.54 -30.71, 7.42 -36.35, 12.02 -39.8 C16.62 -43.25, 22.55 -45.11, 28.15 -44.76 C33.76 -44.41, 41.3 -43, 45.63 -37.68 C49.96 -32.35, 52.81 -23.52, 54.14 -12.8 C55.48 -2.07, 53.86 8.5, 53.66 26.66 C53.45 44.81, 52.81 73.66, 52.91 96.14 C53.02 118.63, 54.57 143.45, 54.3 161.58 C54.04 179.72, 55.54 195.67, 51.31 204.95 C47.09 214.24, 36.05 216.9, 28.98 217.31 C21.9 217.72, 13.85 212.71, 8.88 207.44 C3.91 202.16, 0.73 200.92, -0.86 185.67 C-2.45 170.41, -0.74 142.62, -0.68 115.91 C-0.62 89.19, -0.54 40.45, -0.51 25.36" stroke="#E1E1E1" stroke-width="4" fill="none"></path></g></g><mask></mask><g stroke-linecap="round"><g transform="translate(316.30137246957435 252.06498188170707) rotate(0 -25.67693979767097 0)"><path d="M0 0 C-8.56 0, -42.79 0, -51.35 0 M0 0 C-8.56 0, -42.79 0, -51.35 0" stroke="#E1E1E1" stroke-width="4" fill="none"></path></g></g><mask></mask><g stroke-linecap="round"><g transform="translate(265.6361927249518 390.6179285406825) rotate(0 57.359722027850324 160.07007031572027)"><path d="M0 0 C-0.36 6.58, -3.4 29.93, -2.14 39.47 C-0.87 49.01, 5.21 49.75, 7.62 57.25 C10.02 64.76, 11.36 66.45, 12.32 84.5 C13.28 102.54, 12.21 136.34, 13.38 165.55 C14.56 194.75, 18.55 236.16, 19.38 259.72 C20.2 283.27, 18.68 296.97, 18.32 306.89 C17.96 316.81, 14.27 317.01, 17.2 319.22 C20.13 321.43, 26.5 320.14, 35.93 320.14 C45.35 320.14, 60.87 319.37, 73.75 319.21 C86.62 319.06, 106 323.17, 113.18 319.21 C120.36 315.26, 117.5 302.13, 116.85 295.46 C116.21 288.8, 115.04 282.65, 109.3 279.2 C103.56 275.76, 90.28 275.69, 82.4 274.79 C74.53 273.89, 69.89 273.8, 62.03 273.83 C54.17 273.86, 42.02 274.75, 35.24 274.97 C28.46 275.19, 23.67 275.11, 21.35 275.14 M0 0 C-0.36 6.58, -3.4 29.93, -2.14 39.47 C-0.87 49.01, 5.21 49.75, 7.62 57.25 C10.02 64.76, 11.36 66.45, 12.32 84.5 C13.28 102.54, 12.21 136.34, 13.38 165.55 C14.56 194.75, 18.55 236.16, 19.38 259.72 C20.2 283.27, 18.68 296.97, 18.32 306.89 C17.96 316.81, 14.27 317.01, 17.2 319.22 C20.13 321.43, 26.5 320.14, 35.93 320.14 C45.35 320.14, 60.87 319.37, 73.75 319.21 C86.62 319.06, 106 323.17, 113.18 319.21 C120.36 315.26, 117.5 302.13, 116.85 295.46 C116.21 288.8, 115.04 282.65, 109.3 279.2 C103.56 275.76, 90.28 275.69, 82.4 274.79 C74.53 273.89, 69.89 273.8, 62.03 273.83 C54.17 273.86, 42.02 274.75, 35.24 274.97 C28.46 275.19, 23.67 275.11, 21.35 275.14" stroke="#E1E1E1" stroke-width="4" fill="none"></path></g></g><mask></mask><g stroke-linecap="round"><g transform="translate(307.52260695391635 145.58749719235942) rotate(0 34.908797320382035 259.0909551176042)"><path d="M0 0 C5.16 0.13, 22.51 -0.66, 30.98 0.77 C39.46 2.21, 44.95 2.96, 50.86 8.59 C56.76 14.23, 63.65 24.93, 66.38 34.58 C69.12 44.24, 67.03 57.16, 67.29 66.53 C67.55 75.91, 67.54 81.67, 67.96 90.84 C68.38 100.01, 69.64 110.14, 69.82 121.53 C69.99 132.93, 69.05 144.7, 69 159.21 C68.95 173.72, 69.69 194.59, 69.52 208.58 C69.36 222.56, 69 230.13, 68.01 243.13 C67.03 256.13, 66.27 262.6, 63.61 286.57 C60.94 310.53, 56.46 348.31, 52.04 386.91 C47.62 425.51, 39.59 496.3, 37.1 518.18 M0 0 C5.16 0.13, 22.51 -0.66, 30.98 0.77 C39.46 2.21, 44.95 2.96, 50.86 8.59 C56.76 14.23, 63.65 24.93, 66.38 34.58 C69.12 44.24, 67.03 57.16, 67.29 66.53 C67.55 75.91, 67.54 81.67, 67.96 90.84 C68.38 100.01, 69.64 110.14, 69.82 121.53 C69.99 132.93, 69.05 144.7, 69 159.21 C68.95 173.72, 69.69 194.59, 69.52 208.58 C69.36 222.56, 69 230.13, 68.01 243.13 C67.03 256.13, 66.27 262.6, 63.61 286.57 C60.94 310.53, 56.46 348.31, 52.04 386.91 C47.62 425.51, 39.59 496.3, 37.1 518.18" stroke="#E1E1E1" stroke-width="4" fill="none"></path></g></g><mask></mask><g stroke-linecap="round"><g transform="translate(376.10088707634884 370.8786516163636) rotate(0 -28.006264230109636 0)"><path d="M0 0 C-9.34 0, -46.68 0, -56.01 0 M0 0 C-9.34 0, -46.68 0, -56.01 0" stroke="#E1E1E1" stroke-width="4" fill="none"></path></g></g><mask></mask><g stroke-linecap="round"><g transform="translate(288.8483120042673 141.36899484860743) rotate(0 29.055711621678682 -62.999638725140755)"><path d="M0 0 C-3.42 -2.38, -14.33 -7.82, -20.53 -14.3 C-26.73 -20.78, -33.87 -29.42, -37.2 -38.9 C-40.52 -48.37, -42.24 -60.09, -40.49 -71.12 C-38.74 -82.16, -32.49 -96.46, -26.69 -105.11 C-20.9 -113.76, -12.53 -118.86, -5.72 -123.01 C1.1 -127.15, 5.68 -128.69, 14.17 -130 C22.67 -131.31, 36.44 -130.63, 45.23 -130.86 C54.02 -131.08, 61.29 -131.5, 66.93 -131.33 C72.57 -131.17, 75.12 -131.25, 79.08 -129.86 C83.04 -128.48, 87.69 -126.17, 90.68 -123.03 C93.68 -119.89, 95.81 -116.7, 97.05 -111.01 C98.29 -105.32, 97.87 -97.93, 98.13 -88.89 C98.39 -79.85, 98.89 -65.86, 98.6 -56.77 C98.32 -47.68, 99.28 -41.48, 96.45 -34.35 C93.63 -27.22, 86.66 -19.6, 81.66 -14 C76.66 -8.41, 70.84 -4.01, 66.46 -0.79 C62.08 2.43, 57.22 4.31, 55.37 5.33 M0 0 C-3.42 -2.38, -14.33 -7.82, -20.53 -14.3 C-26.73 -20.78, -33.87 -29.42, -37.2 -38.9 C-40.52 -48.37, -42.24 -60.09, -40.49 -71.12 C-38.74 -82.16, -32.49 -96.46, -26.69 -105.11 C-20.9 -113.76, -12.53 -118.86, -5.72 -123.01 C1.1 -127.15, 5.68 -128.69, 14.17 -130 C22.67 -131.31, 36.44 -130.63, 45.23 -130.86 C54.02 -131.08, 61.29 -131.5, 66.93 -131.33 C72.57 -131.17, 75.12 -131.25, 79.08 -129.86 C83.04 -128.48, 87.69 -126.17, 90.68 -123.03 C93.68 -119.89, 95.81 -116.7, 97.05 -111.01 C98.29 -105.32, 97.87 -97.93, 98.13 -88.89 C98.39 -79.85, 98.89 -65.86, 98.6 -56.77 C98.32 -47.68, 99.28 -41.48, 96.45 -34.35 C93.63 -27.22, 86.66 -19.6, 81.66 -14 C76.66 -8.41, 70.84 -4.01, 66.46 -0.79 C62.08 2.43, 57.22 4.31, 55.37 5.33" stroke="#E1E1E1" stroke-width="4" fill="none"></path></g></g><mask></mask><g stroke-linecap="round"><g transform="translate(386.7938584427482 62.64490589780712) rotate(0 -59.027100613797415 31.082974716083413)"><path d="M0 0 C-6.38 -0.02, -27.19 -0.27, -38.27 -0.12 C-49.34 0.04, -59.35 0.78, -66.47 0.92 C-73.59 1.05, -76.85 -2.02, -81.01 0.69 C-85.17 3.4, -87.73 10.9, -91.42 17.19 C-95.11 23.49, -98.71 30.94, -103.15 38.45 C-107.59 45.97, -115.57 58.31, -118.05 62.28 M0 0 C-6.38 -0.02, -27.19 -0.27, -38.27 -0.12 C-49.34 0.04, -59.35 0.78, -66.47 0.92 C-73.59 1.05, -76.85 -2.02, -81.01 0.69 C-85.17 3.4, -87.73 10.9, -91.42 17.19 C-95.11 23.49, -98.71 30.94, -103.15 38.45 C-107.59 45.97, -115.57 58.31, -118.05 62.28" stroke="#E1E1E1" stroke-width="4" fill="none"></path></g></g><mask></mask><g stroke-linecap="round"><g transform="translate(534.5989159539071 173.10845226772716) rotate(0 37.17894646241076 -49.31650301392381)"><path d="M0 0 C-3.1 -3.17, -14.28 -10.83, -18.59 -19 C-22.91 -27.17, -26.57 -38.05, -25.9 -49.01 C-25.23 -59.98, -21.21 -75.18, -14.58 -84.8 C-7.95 -94.42, 3.35 -102.11, 13.87 -106.73 C24.39 -111.36, 37.74 -113.79, 48.56 -112.55 C59.37 -111.31, 70.95 -105.09, 78.74 -99.3 C86.53 -93.51, 91.69 -85.46, 95.28 -77.82 C98.87 -70.19, 99.99 -61.56, 100.25 -53.49 C100.52 -45.42, 99.02 -36.83, 96.89 -29.4 C94.77 -21.97, 92.63 -15.22, 87.48 -8.91 C82.34 -2.6, 73.67 4.64, 66.04 8.44 C58.41 12.25, 49.38 13.49, 41.72 13.92 C34.06 14.35, 27.02 13.34, 20.07 11.02 C13.12 8.7, 3.34 1.84, 0 0 M0 0 C-3.1 -3.17, -14.28 -10.83, -18.59 -19 C-22.91 -27.17, -26.57 -38.05, -25.9 -49.01 C-25.23 -59.98, -21.21 -75.18, -14.58 -84.8 C-7.95 -94.42, 3.35 -102.11, 13.87 -106.73 C24.39 -111.36, 37.74 -113.79, 48.56 -112.55 C59.37 -111.31, 70.95 -105.09, 78.74 -99.3 C86.53 -93.51, 91.69 -85.46, 95.28 -77.82 C98.87 -70.19, 99.99 -61.56, 100.25 -53.49 C100.52 -45.42, 99.02 -36.83, 96.89 -29.4 C94.77 -21.97, 92.63 -15.22, 87.48 -8.91 C82.34 -2.6, 73.67 4.64, 66.04 8.44 C58.41 12.25, 49.38 13.49, 41.72 13.92 C34.06 14.35, 27.02 13.34, 20.07 11.02 C13.12 8.7, 3.34 1.84, 0 0" stroke="#E1E1E1" stroke-width="4" fill="none"></path></g></g><mask></mask><g stroke-linecap="round"><g transform="translate(529.1232761402218 167.71547205139217) rotate(0 49.43937538836428 -36.8170314686063)"><path d="M0 0 C2.57 -3.14, 10.06 -12.15, 15.43 -18.82 C20.81 -25.48, 25.58 -35.9, 32.25 -39.98 C38.91 -44.07, 47.09 -42.58, 55.42 -43.34 C63.76 -44.11, 75 -39.55, 82.24 -44.59 C89.48 -49.64, 96.11 -68.79, 98.88 -73.63 M0 0 C2.57 -3.14, 10.06 -12.15, 15.43 -18.82 C20.81 -25.48, 25.58 -35.9, 32.25 -39.98 C38.91 -44.07, 47.09 -42.58, 55.42 -43.34 C63.76 -44.11, 75 -39.55, 82.24 -44.59 C89.48 -49.64, 96.11 -68.79, 98.88 -73.63" stroke="#E1E1E1" stroke-width="4" fill="none"></path></g></g><mask></mask><g stroke-linecap="round"><g transform="translate(547.3530684207918 69.63874277328932) rotate(0 -16.997717471412926 19.546760730252345)"><path d="M0 0 C0 2.41, 1.72 9.3, 0 14.48 C-1.72 19.65, -4.66 26.95, -10.33 31.05 C-15.99 35.15, -30.05 37.75, -34 39.09 M0 0 C0 2.41, 1.72 9.3, 0 14.48 C-1.72 19.65, -4.66 26.95, -10.33 31.05 C-15.99 35.15, -30.05 37.75, -34 39.09" stroke="#E1E1E1" stroke-width="4" fill="none"></path></g></g><mask></mask><g stroke-linecap="round"><g transform="translate(551.481507559379 184.59233960738237) rotate(0 -1.895661525163888 265.8008238219416)"><path d="M0 0 C-4.39 0.17, -18.12 -2.06, -26.34 1.02 C-34.57 4.11, -43.16 10.16, -49.35 18.51 C-55.55 26.85, -61.21 36.27, -63.51 51.09 C-65.81 65.92, -63.25 86.37, -63.12 107.45 C-63 128.54, -62.96 157.2, -62.74 177.61 C-62.52 198.02, -62 214.81, -61.82 229.9 C-61.63 244.99, -63.9 258.34, -61.65 268.14 C-59.39 277.93, -51.33 278.79, -48.3 288.67 C-45.27 298.55, -44.38 308.5, -43.44 327.41 C-42.5 346.32, -42.94 380.12, -42.65 402.15 C-42.37 424.19, -42.32 441.95, -41.74 459.63 C-41.15 477.31, -39.53 496.45, -39.14 508.23 C-38.75 520.02, -43.27 526.56, -39.38 530.35 C-35.49 534.13, -26.49 530.87, -15.79 530.95 C-5.09 531.03, 12.62 530.73, 24.83 530.84 C37.03 530.94, 51.64 535.12, 57.45 531.6 C63.27 528.09, 60.64 516.65, 59.72 509.75 C58.8 502.86, 55.47 494.22, 51.91 490.23 C48.35 486.24, 43.59 486.55, 38.37 485.81 C33.16 485.07, 29.07 485.86, 20.62 485.81 C12.17 485.76, -2.28 485.36, -12.31 485.51 C-22.33 485.65, -34.98 486.48, -39.52 486.67 M0 0 C-4.39 0.17, -18.12 -2.06, -26.34 1.02 C-34.57 4.11, -43.16 10.16, -49.35 18.51 C-55.55 26.85, -61.21 36.27, -63.51 51.09 C-65.81 65.92, -63.25 86.37, -63.12 107.45 C-63 128.54, -62.96 157.2, -62.74 177.61 C-62.52 198.02, -62 214.81, -61.82 229.9 C-61.63 244.99, -63.9 258.34, -61.65 268.14 C-59.39 277.93, -51.33 278.79, -48.3 288.67 C-45.27 298.55, -44.38 308.5, -43.44 327.41 C-42.5 346.32, -42.94 380.12, -42.65 402.15 C-42.37 424.19, -42.32 441.95, -41.74 459.63 C-41.15 477.31, -39.53 496.45, -39.14 508.23 C-38.75 520.02, -43.27 526.56, -39.38 530.35 C-35.49 534.13, -26.49 530.87, -15.79 530.95 C-5.09 531.03, 12.62 530.73, 24.83 530.84 C37.03 530.94, 51.64 535.12, 57.45 531.6 C63.27 528.09, 60.64 516.65, 59.72 509.75 C58.8 502.86, 55.47 494.22, 51.91 490.23 C48.35 486.24, 43.59 486.55, 38.37 485.81 C33.16 485.07, 29.07 485.86, 20.62 485.81 C12.17 485.76, -2.28 485.36, -12.31 485.51 C-22.33 485.65, -34.98 486.48, -39.52 486.67" stroke="#E1E1E1" stroke-width="4" fill="none"></path></g></g><mask></mask><g stroke-linecap="round"><g transform="translate(571.1453798254427 669.5339537217919) rotate(0 6.258998684169908 -44.722674189022776)"><path d="M0 0 C1.09 -7.99, 4.46 -33.05, 6.55 -47.96 C8.63 -62.87, 11.52 -82.53, 12.52 -89.45 M0 0 C1.09 -7.99, 4.46 -33.05, 6.55 -47.96 C8.63 -62.87, 11.52 -82.53, 12.52 -89.45" stroke="#E1E1E1" stroke-width="4" fill="none"></path></g></g><mask></mask><g stroke-linecap="round" transform="translate(578.8853979053906 538.4727312405984) rotate(10.376331630344042 7.5267307291362435 7.526730729136247)"><path d="M3.76 0 C5.67 0, 7.57 0, 11.29 0 M3.76 0 C6.57 0, 9.38 0, 11.29 0 M11.29 0 C13.8 0, 15.05 1.25, 15.05 3.76 M11.29 0 C13.8 0, 15.05 1.25, 15.05 3.76 M15.05 3.76 C15.05 5.54, 15.05 7.31, 15.05 11.29 M15.05 3.76 C15.05 6.62, 15.05 9.48, 15.05 11.29 M15.05 11.29 C15.05 13.8, 13.8 15.05, 11.29 15.05 M15.05 11.29 C15.05 13.8, 13.8 15.05, 11.29 15.05 M11.29 15.05 C8.58 15.05, 5.88 15.05, 3.76 15.05 M11.29 15.05 C9.38 15.05, 7.48 15.05, 3.76 15.05 M3.76 15.05 C1.25 15.05, 0 13.8, 0 11.29 M3.76 15.05 C1.25 15.05, 0 13.8, 0 11.29 M0 11.29 C0 9.25, 0 7.21, 0 3.76 M0 11.29 C0 8.9, 0 6.5, 0 3.76 M0 3.76 C0 1.25, 1.25 0, 3.76 0 M0 3.76 C0 1.25, 1.25 0, 3.76 0" stroke="#E1E1E1" stroke-width="4" fill="none"></path></g><g stroke-linecap="round"><g transform="translate(588.8799232436768 512.4551007447685) rotate(0 14.887285771297229 -90.03809876663612)"><path d="M0 0 C1.94 -15.63, 8.09 -70.84, 11.65 -93.77 C15.22 -116.7, 18.36 -123.18, 21.38 -137.56 C24.4 -151.95, 28.38 -172.99, 29.77 -180.08 M0 0 C1.94 -15.63, 8.09 -70.84, 11.65 -93.77 C15.22 -116.7, 18.36 -123.18, 21.38 -137.56 C24.4 -151.95, 28.38 -172.99, 29.77 -180.08" stroke="#E1E1E1" stroke-width="4" fill="none"></path></g></g><mask></mask><g stroke-linecap="round"><g transform="translate(589.5925942311164 187.867728993767) rotate(0 37.41950971916797 102.8867343575159)"><path d="M0 0 C4.05 5.75, 14.99 21.06, 24.32 34.51 C33.64 47.96, 45.65 65.61, 55.96 80.68 C66.27 95.75, 77.48 111.33, 86.19 124.93 C94.9 138.52, 102.99 152.2, 108.23 162.24 C113.47 172.27, 117.19 178.45, 117.62 185.14 C118.06 191.83, 114.76 198.73, 110.84 202.39 C106.92 206.06, 99.77 206.31, 94.12 207.11 C88.47 207.92, 82.74 210.01, 76.93 207.21 C71.12 204.42, 64.56 196.84, 59.29 190.32 C54.01 183.81, 50.33 176.2, 45.27 168.11 C40.22 160.02, 36.19 153.45, 28.97 141.77 C21.75 130.08, 10.49 111.07, 1.95 98.01 C-6.58 84.95, -15.67 73.52, -22.25 63.43 C-28.83 53.34, -34.11 44.17, -37.54 37.45 C-40.96 30.73, -42.62 28.15, -42.78 23.12 C-42.94 18.09, -40.74 11.36, -38.5 7.27 C-36.25 3.18, -30.86 0.01, -29.33 -1.44 M0 0 C4.05 5.75, 14.99 21.06, 24.32 34.51 C33.64 47.96, 45.65 65.61, 55.96 80.68 C66.27 95.75, 77.48 111.33, 86.19 124.93 C94.9 138.52, 102.99 152.2, 108.23 162.24 C113.47 172.27, 117.19 178.45, 117.62 185.14 C118.06 191.83, 114.76 198.73, 110.84 202.39 C106.92 206.06, 99.77 206.31, 94.12 207.11 C88.47 207.92, 82.74 210.01, 76.93 207.21 C71.12 204.42, 64.56 196.84, 59.29 190.32 C54.01 183.81, 50.33 176.2, 45.27 168.11 C40.22 160.02, 36.19 153.45, 28.97 141.77 C21.75 130.08, 10.49 111.07, 1.95 98.01 C-6.58 84.95, -15.67 73.52, -22.25 63.43 C-28.83 53.34, -34.11 44.17, -37.54 37.45 C-40.96 30.73, -42.62 28.15, -42.78 23.12 C-42.94 18.09, -40.74 11.36, -38.5 7.27 C-36.25 3.18, -30.86 0.01, -29.33 -1.44" stroke="#E1E1E1" stroke-width="4" fill="none"></path></g></g><mask></mask><g stroke-linecap="round"><g transform="translate(684.3864013177881 329.40829866287964) rotate(0 -22.364335109482397 15.41493640622906)"><path d="M0 0 C-7.45 5.14, -37.27 25.69, -44.73 30.83 M0 0 C-7.45 5.14, -37.27 25.69, -44.73 30.83" stroke="#E1E1E1" stroke-width="4" fill="none"></path></g></g><mask></mask><g stroke-linecap="round"><g transform="translate(660.5684572351206 437.8011016589474) rotate(0 24.63597388195074 118.62459980493739)"><path d="M0 0 C0.16 -2.52, 0.11 -9.91, 0.98 -15.14 C1.86 -20.37, 3.1 -27, 5.26 -31.37 C7.41 -35.74, 9.25 -39.36, 13.92 -41.37 C18.59 -43.39, 28.21 -44.67, 33.27 -43.44 C38.34 -42.21, 41.81 -38.78, 44.31 -34 C46.81 -29.22, 47.72 -23, 48.28 -14.76 C48.84 -6.52, 47.69 4.6, 47.7 15.43 C47.7 26.26, 48.14 34.21, 48.29 50.25 C48.43 66.28, 48.39 95.38, 48.56 111.62 C48.72 127.87, 49.4 124.56, 49.27 147.71 C49.14 170.85, 47.95 228.31, 47.78 250.47 C47.62 272.64, 48.21 275.65, 48.29 280.69 M0 0 C0.16 -2.52, 0.11 -9.91, 0.98 -15.14 C1.86 -20.37, 3.1 -27, 5.26 -31.37 C7.41 -35.74, 9.25 -39.36, 13.92 -41.37 C18.59 -43.39, 28.21 -44.67, 33.27 -43.44 C38.34 -42.21, 41.81 -38.78, 44.31 -34 C46.81 -29.22, 47.72 -23, 48.28 -14.76 C48.84 -6.52, 47.69 4.6, 47.7 15.43 C47.7 26.26, 48.14 34.21, 48.29 50.25 C48.43 66.28, 48.39 95.38, 48.56 111.62 C48.72 127.87, 49.4 124.56, 49.27 147.71 C49.14 170.85, 47.95 228.31, 47.78 250.47 C47.62 272.64, 48.21 275.65, 48.29 280.69" stroke="#E1E1E1" stroke-width="4" fill="none"></path></g></g><mask></mask><g stroke-linecap="round" transform="translate(528.2900406756291 311.63006988362446) rotate(0 7.5267307291362435 7.526730729136233)"><path d="M3.76 0 C5.43 0, 7.1 0, 11.29 0 M3.76 0 C5.29 0, 6.82 0, 11.29 0 M11.29 0 C13.8 0, 15.05 1.25, 15.05 3.76 M11.29 0 C13.8 0, 15.05 1.25, 15.05 3.76 M15.05 3.76 C15.05 5.66, 15.05 7.55, 15.05 11.29 M15.05 3.76 C15.05 6.28, 15.05 8.8, 15.05 11.29 M15.05 11.29 C15.05 13.8, 13.8 15.05, 11.29 15.05 M15.05 11.29 C15.05 13.8, 13.8 15.05, 11.29 15.05 M11.29 15.05 C9.03 15.05, 6.78 15.05, 3.76 15.05 M11.29 15.05 C8.31 15.05, 5.32 15.05, 3.76 15.05 M3.76 15.05 C1.25 15.05, 0 13.8, 0 11.29 M3.76 15.05 C1.25 15.05, 0 13.8, 0 11.29 M0 11.29 C0 8.59, 0 5.9, 0 3.76 M0 11.29 C0 9.26, 0 7.23, 0 3.76 M0 3.76 C0 1.25, 1.25 0, 3.76 0 M0 3.76 C0 1.25, 1.25 0, 3.76 0" stroke="#E1E1E1" stroke-width="4" fill="none"></path></g><g stroke-linecap="round" transform="translate(528.8964962755181 271.32818291357097) rotate(0 7.5267307291362435 7.526730729136233)"><path d="M3.76 0 C5.45 0, 7.14 0, 11.29 0 M3.76 0 C6.75 0, 9.74 0, 11.29 0 M11.29 0 C13.8 0, 15.05 1.25, 15.05 3.76 M11.29 0 C13.8 0, 15.05 1.25, 15.05 3.76 M15.05 3.76 C15.05 5.49, 15.05 7.22, 15.05 11.29 M15.05 3.76 C15.05 5.6, 15.05 7.44, 15.05 11.29 M15.05 11.29 C15.05 13.8, 13.8 15.05, 11.29 15.05 M15.05 11.29 C15.05 13.8, 13.8 15.05, 11.29 15.05 M11.29 15.05 C8.47 15.05, 5.64 15.05, 3.76 15.05 M11.29 15.05 C9.54 15.05, 7.78 15.05, 3.76 15.05 M3.76 15.05 C1.25 15.05, 0 13.8, 0 11.29 M3.76 15.05 C1.25 15.05, 0 13.8, 0 11.29 M0 11.29 C0 9.29, 0 7.29, 0 3.76 M0 11.29 C0 9.24, 0 7.18, 0 3.76 M0 3.76 C0 1.25, 1.25 0, 3.76 0 M0 3.76 C0 1.25, 1.25 0, 3.76 0" stroke="#E1E1E1" stroke-width="4" fill="none"></path></g><g stroke-linecap="round"><g transform="translate(52.64638871373836 330.91288823714416) rotate(0 20.519686531501605 190.99505287290583)"><path d="M0 0 C-3.14 0.76, -14.01 1.4, -18.82 4.56 C-23.64 7.73, -26.82 13.1, -28.89 18.99 C-30.96 24.89, -30.85 32.26, -31.24 39.94 C-31.63 47.62, -31.19 48.73, -31.24 65.08 C-31.29 81.43, -31.66 118.38, -31.54 138.04 C-31.42 157.71, -31.31 167.35, -30.53 183.06 C-29.76 198.77, -28.3 213.58, -26.88 232.32 C-25.46 251.06, -23.4 278.09, -21.99 295.51 C-20.58 312.93, -18.79 322.99, -18.44 336.85 C-18.08 350.7, -22.14 371.1, -19.85 378.62 C-17.56 386.15, -18.9 381.73, -4.7 381.99 C9.5 382.25, 52.47 383.57, 65.35 380.2 C78.23 376.82, 71.37 367.04, 72.58 361.74 C73.78 356.44, 73.89 352.74, 72.58 348.39 C71.26 344.03, 69.23 338.19, 64.69 335.59 C60.14 332.99, 53.05 333.05, 45.3 332.77 C37.55 332.48, 28.63 333.43, 18.2 333.85 C7.77 334.28, -11.36 335.08, -17.27 335.32 M0 0 C-3.14 0.76, -14.01 1.4, -18.82 4.56 C-23.64 7.73, -26.82 13.1, -28.89 18.99 C-30.96 24.89, -30.85 32.26, -31.24 39.94 C-31.63 47.62, -31.19 48.73, -31.24 65.08 C-31.29 81.43, -31.66 118.38, -31.54 138.04 C-31.42 157.71, -31.31 167.35, -30.53 183.06 C-29.76 198.77, -28.3 213.58, -26.88 232.32 C-25.46 251.06, -23.4 278.09, -21.99 295.51 C-20.58 312.93, -18.79 322.99, -18.44 336.85 C-18.08 350.7, -22.14 371.1, -19.85 378.62 C-17.56 386.15, -18.9 381.73, -4.7 381.99 C9.5 382.25, 52.47 383.57, 65.35 380.2 C78.23 376.82, 71.37 367.04, 72.58 361.74 C73.78 356.44, 73.89 352.74, 72.58 348.39 C71.26 344.03, 69.23 338.19, 64.69 335.59 C60.14 332.99, 53.05 333.05, 45.3 332.77 C37.55 332.48, 28.63 333.43, 18.2 333.85 C7.77 334.28, -11.36 335.08, -17.27 335.32" stroke="#E1E1E1" stroke-width="4" fill="none"></path></g></g><mask></mask><g stroke-linecap="round"><g transform="translate(30.033403730412147 586.6549803104834) rotate(0 52.07219526614091 -128.98359953614627)"><path d="M0 0 C9.39 -0.17, 41.46 -0.83, 56.36 -1 C71.26 -1.16, 83.01 1.41, 89.41 -1 C95.8 -3.41, 92.85 -7.44, 94.75 -15.45 C96.65 -23.46, 99.25 -38.05, 100.81 -49.06 C102.38 -60.08, 103.72 -67.08, 104.14 -81.54 C104.57 -96, 103.98 -117.64, 103.35 -135.82 C102.72 -154, 101.58 -175.92, 100.37 -190.61 C99.16 -205.29, 99.9 -213.98, 96.08 -223.92 C92.26 -233.87, 85.97 -244.6, 77.44 -250.28 C68.92 -255.95, 54.1 -257.08, 44.94 -257.97 C35.78 -258.85, 26.22 -255.99, 22.48 -255.6 M0 0 C9.39 -0.17, 41.46 -0.83, 56.36 -1 C71.26 -1.16, 83.01 1.41, 89.41 -1 C95.8 -3.41, 92.85 -7.44, 94.75 -15.45 C96.65 -23.46, 99.25 -38.05, 100.81 -49.06 C102.38 -60.08, 103.72 -67.08, 104.14 -81.54 C104.57 -96, 103.98 -117.64, 103.35 -135.82 C102.72 -154, 101.58 -175.92, 100.37 -190.61 C99.16 -205.29, 99.9 -213.98, 96.08 -223.92 C92.26 -233.87, 85.97 -244.6, 77.44 -250.28 C68.92 -255.95, 54.1 -257.08, 44.94 -257.97 C35.78 -258.85, 26.22 -255.99, 22.48 -255.6" stroke="#E1E1E1" stroke-width="4" fill="none"></path></g></g><mask></mask><g stroke-linecap="round"><g transform="translate(22.283507967996 505.4609152804453) rotate(0 30.04788065853998 -74.37129718385158)"><path d="M0 0 C2.32 3.73, 7.54 17.69, 13.9 22.36 C20.26 27.04, 30.96 29.74, 38.15 28.05 C45.35 26.36, 53.42 21.42, 57.08 12.2 C60.74 2.98, 59.99 -12.15, 60.1 -27.28 C60.2 -42.41, 58.19 -61.04, 57.72 -78.56 C57.25 -96.09, 57.69 -118.68, 57.27 -132.42 C56.84 -146.16, 57.48 -153.62, 55.17 -161.01 C52.87 -168.41, 45.39 -174.16, 43.44 -176.79 M0 0 C2.32 3.73, 7.54 17.69, 13.9 22.36 C20.26 27.04, 30.96 29.74, 38.15 28.05 C45.35 26.36, 53.42 21.42, 57.08 12.2 C60.74 2.98, 59.99 -12.15, 60.1 -27.28 C60.2 -42.41, 58.19 -61.04, 57.72 -78.56 C57.25 -96.09, 57.69 -118.68, 57.27 -132.42 C56.84 -146.16, 57.48 -153.62, 55.17 -161.01 C52.87 -168.41, 45.39 -174.16, 43.44 -176.79" stroke="#E1E1E1" stroke-width="4" fill="none"></path></g></g><mask></mask><g stroke-linecap="round"><g transform="translate(82.46416292559877 501.22963751336215) rotate(0 24.285166297298645 0)"><path d="M0 0 C8.1 0, 40.48 0, 48.57 0 M0 0 C8.1 0, 40.48 0, 48.57 0" stroke="#E1E1E1" stroke-width="4" fill="none"></path></g></g><mask></mask><g stroke-linecap="round"><g transform="translate(78.83160872852034 416.12376288979215) rotate(0 -28.33772061065116 0)"><path d="M0 0 C-9.45 0, -47.23 0, -56.68 0 M0 0 C-9.45 0, -47.23 0, -56.68 0" stroke="#E1E1E1" stroke-width="4" fill="none"></path></g></g><mask></mask><g stroke-linecap="round"><g transform="translate(54.54979349597795 328.93799407341936) rotate(0 21.359686764038457 -63.3060813547269)"><path d="M0 0 C-4.57 -2.67, -20.1 -8.2, -27.44 -16.04 C-34.77 -23.87, -42.18 -34.45, -44 -47.02 C-45.83 -59.59, -42.87 -80.03, -38.37 -91.47 C-33.86 -102.91, -25.08 -109.44, -16.99 -115.65 C-8.89 -121.87, -0.08 -126.88, 10.18 -128.77 C20.44 -130.65, 35.02 -129.56, 44.57 -126.96 C54.12 -124.35, 61.37 -119.08, 67.49 -113.14 C73.62 -107.21, 78.1 -100.29, 81.31 -91.36 C84.51 -82.43, 87.09 -69.89, 86.72 -59.58 C86.36 -49.27, 83.24 -37.68, 79.11 -29.52 C74.98 -21.37, 69.24 -15.93, 61.93 -10.65 C54.62 -5.37, 39.68 0.02, 35.23 2.16 M0 0 C-4.57 -2.67, -20.1 -8.2, -27.44 -16.04 C-34.77 -23.87, -42.18 -34.45, -44 -47.02 C-45.83 -59.59, -42.87 -80.03, -38.37 -91.47 C-33.86 -102.91, -25.08 -109.44, -16.99 -115.65 C-8.89 -121.87, -0.08 -126.88, 10.18 -128.77 C20.44 -130.65, 35.02 -129.56, 44.57 -126.96 C54.12 -124.35, 61.37 -119.08, 67.49 -113.14 C73.62 -107.21, 78.1 -100.29, 81.31 -91.36 C84.51 -82.43, 87.09 -69.89, 86.72 -59.58 C86.36 -49.27, 83.24 -37.68, 79.11 -29.52 C74.98 -21.37, 69.24 -15.93, 61.93 -10.65 C54.62 -5.37, 39.68 0.02, 35.23 2.16" stroke="#E1E1E1" stroke-width="4" fill="none"></path></g></g><mask></mask><g stroke-linecap="round"><g transform="translate(10.586057921297652 268.6322326982036) rotate(0 79.53863903985257 -8.956279075099417)"><path d="M0 0 C26.51 -2.99, 132.56 -14.93, 159.08 -17.91 M0 0 C26.51 -2.99, 132.56 -14.93, 159.08 -17.91" stroke="#E1E1E1" stroke-width="4" fill="none"></path></g></g><mask></mask><g stroke-linecap="round"><g transform="translate(89.53662866586012 585.0826849993734) rotate(0 -0.900767510447622 35.676933639859854)"><path d="M0 0 C0.3 16.02, -0.14 33.84, -1.8 71.35 M0 0 C-0.84 17.66, -0.26 35.54, -1.8 71.35" stroke="#E1E1E1" stroke-width="2" fill="none"></path></g></g><mask></mask></svg>