<svg version="1.1" xmlns="http://www.w3.org/2000/svg" viewBox="0 0 517.9427530734913 524.6885284190113" width="517.9427530734913" height="524.6885284190113" class="excalidraw-svg"><!-- svg-source:excalidraw --><metadata></metadata><defs><style class="style-fonts">
      </style></defs><rect x="0" y="0" width="517.9427530734913" height="524.6885284190113" fill="#000000"></rect><g stroke-linecap="round"><g transform="translate(401.9809761852976 244.14295210444538) rotate(0 -9.910235153097815 17.172907484013123)"><path d="M0 0 C-0.93 -1.03, -3.63 -4.13, -5.58 -6.17 C-7.52 -8.22, -9.58 -10.34, -11.67 -12.27 C-13.75 -14.21, -15.74 -16.41, -18.07 -17.78 C-20.4 -19.16, -23.16 -20.01, -25.65 -20.53 C-28.13 -21.04, -30.39 -21.15, -32.96 -20.87 C-35.52 -20.58, -38.62 -19.88, -41.02 -18.79 C-43.41 -17.7, -45.65 -15.9, -47.31 -14.33 C-48.98 -12.76, -49.72 -11.89, -51.01 -9.36 C-52.29 -6.83, -54.41 -3.02, -55.04 0.84 C-55.68 4.7, -55.81 9.8, -54.8 13.8 C-53.79 17.81, -51.57 21.48, -49.01 24.87 C-46.44 28.26, -42.48 31.23, -39.41 34.14 C-36.35 37.04, -33.9 39.42, -30.61 42.32 C-27.33 45.21, -23.09 49.32, -19.72 51.52 C-16.36 53.73, -13.86 55.74, -10.44 55.56 C-7.03 55.38, -3.09 53.03, 0.74 50.46 C4.57 47.89, 8.38 43.96, 12.54 40.12 C16.69 36.28, 22.22 31.44, 25.67 27.42 C29.11 23.4, 31.63 20.16, 33.22 16.01 C34.81 11.86, 35.56 6.76, 35.22 2.52 C34.88 -1.73, 33.23 -6.04, 31.18 -9.45 C29.13 -12.86, 26.11 -16, 22.94 -17.96 C19.78 -19.92, 15.71 -20.87, 12.19 -21.21 C8.68 -21.56, 4.37 -20.57, 1.83 -20.03 C-0.7 -19.49, -2.79 -18.97, -3.01 -17.99 C-3.24 -17.02, -1.17 -15.88, 0.47 -14.18 C2.11 -12.49, 5.52 -9.48, 6.82 -7.82 C8.12 -6.16, 8.26 -5.4, 8.26 -4.21 C8.26 -3.01, 7.74 -1.43, 6.81 -0.65 C5.87 0.12, 3.77 0.35, 2.64 0.46 C1.51 0.56, 0.44 0.08, 0 0 M0 0 C-0.93 -1.03, -3.63 -4.13, -5.58 -6.17 C-7.52 -8.22, -9.58 -10.34, -11.67 -12.27 C-13.75 -14.21, -15.74 -16.41, -18.07 -17.78 C-20.4 -19.16, -23.16 -20.01, -25.65 -20.53 C-28.13 -21.04, -30.39 -21.15, -32.96 -20.87 C-35.52 -20.58, -38.62 -19.88, -41.02 -18.79 C-43.41 -17.7, -45.65 -15.9, -47.31 -14.33 C-48.98 -12.76, -49.72 -11.89, -51.01 -9.36 C-52.29 -6.83, -54.41 -3.02, -55.04 0.84 C-55.68 4.7, -55.81 9.8, -54.8 13.8 C-53.79 17.81, -51.57 21.48, -49.01 24.87 C-46.44 28.26, -42.48 31.23, -39.41 34.14 C-36.35 37.04, -33.9 39.42, -30.61 42.32 C-27.33 45.21, -23.09 49.32, -19.72 51.52 C-16.36 53.73, -13.86 55.74, -10.44 55.56 C-7.03 55.38, -3.09 53.03, 0.74 50.46 C4.57 47.89, 8.38 43.96, 12.54 40.12 C16.69 36.28, 22.22 31.44, 25.67 27.42 C29.11 23.4, 31.63 20.16, 33.22 16.01 C34.81 11.86, 35.56 6.76, 35.22 2.52 C34.88 -1.73, 33.23 -6.04, 31.18 -9.45 C29.13 -12.86, 26.11 -16, 22.94 -17.96 C19.78 -19.92, 15.71 -20.87, 12.19 -21.21 C8.68 -21.56, 4.37 -20.57, 1.83 -20.03 C-0.7 -19.49, -2.79 -18.97, -3.01 -17.99 C-3.24 -17.02, -1.17 -15.88, 0.47 -14.18 C2.11 -12.49, 5.52 -9.48, 6.82 -7.82 C8.12 -6.16, 8.26 -5.4, 8.26 -4.21 C8.26 -3.01, 7.74 -1.43, 6.81 -0.65 C5.87 0.12, 3.77 0.35, 2.64 0.46 C1.51 0.56, 0.44 0.08, 0 0" stroke="#E1E1E1" stroke-width="4" fill="none"></path></g></g><mask></mask><g stroke-linecap="round"><g transform="translate(386.72907582199156 259.82226040749515) rotate(0 4.841076409006661 4.31125614496132)"><path d="M0 0 C-0.02 -0.93, -0.44 -4.12, -0.11 -5.61 C0.23 -7.1, 1.02 -8.24, 2.01 -8.95 C3 -9.65, 4.63 -10.11, 5.84 -9.86 C7.04 -9.6, 8.62 -8.47, 9.26 -7.43 C9.91 -6.39, 9.64 -4.91, 9.7 -3.63 C9.76 -2.34, 8.87 -0.44, 9.61 0.28 C10.34 0.99, 12.94 0.55, 14.1 0.67 C15.26 0.79, 15.81 0.47, 16.55 0.99 C17.3 1.51, 18.35 2.65, 18.56 3.8 C18.77 4.94, 18.42 6.88, 17.84 7.84 C17.26 8.8, 16.14 9.28, 15.11 9.54 C14.07 9.81, 12.56 9.41, 11.61 9.42 C10.67 9.44, 9.8 9.02, 9.43 9.65 C9.06 10.28, 9.47 12.08, 9.39 13.21 C9.31 14.33, 9.43 15.51, 8.93 16.38 C8.44 17.26, 7.41 18.18, 6.43 18.48 C5.45 18.78, 4.05 18.52, 3.05 18.17 C2.05 17.83, 0.94 17.42, 0.43 16.4 C-0.09 15.38, 0.04 13.19, -0.07 12.08 C-0.18 10.97, 0.29 10.2, -0.23 9.75 C-0.75 9.29, -2.15 9.47, -3.18 9.33 C-4.21 9.19, -5.49 9.4, -6.4 8.92 C-7.32 8.43, -8.27 7.45, -8.68 6.44 C-9.09 5.42, -9.22 3.84, -8.88 2.8 C-8.53 1.77, -7.58 0.73, -6.61 0.21 C-5.64 -0.31, -4.15 -0.28, -3.05 -0.31 C-1.95 -0.35, -0.51 -0.05, 0 0 M0 0 C-0.02 -0.93, -0.44 -4.12, -0.11 -5.61 C0.23 -7.1, 1.02 -8.24, 2.01 -8.95 C3 -9.65, 4.63 -10.11, 5.84 -9.86 C7.04 -9.6, 8.62 -8.47, 9.26 -7.43 C9.91 -6.39, 9.64 -4.91, 9.7 -3.63 C9.76 -2.34, 8.87 -0.44, 9.61 0.28 C10.34 0.99, 12.94 0.55, 14.1 0.67 C15.26 0.79, 15.81 0.47, 16.55 0.99 C17.3 1.51, 18.35 2.65, 18.56 3.8 C18.77 4.94, 18.42 6.88, 17.84 7.84 C17.26 8.8, 16.14 9.28, 15.11 9.54 C14.07 9.81, 12.56 9.41, 11.61 9.42 C10.67 9.44, 9.8 9.02, 9.43 9.65 C9.06 10.28, 9.47 12.08, 9.39 13.21 C9.31 14.33, 9.43 15.51, 8.93 16.38 C8.44 17.26, 7.41 18.18, 6.43 18.48 C5.45 18.78, 4.05 18.52, 3.05 18.17 C2.05 17.83, 0.94 17.42, 0.43 16.4 C-0.09 15.38, 0.04 13.19, -0.07 12.08 C-0.18 10.97, 0.29 10.2, -0.23 9.75 C-0.75 9.29, -2.15 9.47, -3.18 9.33 C-4.21 9.19, -5.49 9.4, -6.4 8.92 C-7.32 8.43, -8.27 7.45, -8.68 6.44 C-9.09 5.42, -9.22 3.84, -8.88 2.8 C-8.53 1.77, -7.58 0.73, -6.61 0.21 C-5.64 -0.31, -4.15 -0.28, -3.05 -0.31 C-1.95 -0.35, -0.51 -0.05, 0 0" stroke="#E1E1E1" stroke-width="4" fill="none"></path></g></g><mask></mask><g stroke-linecap="round"><g transform="translate(113.16904115552649 37.16414209917161) rotate(0 75.23003305018187 1.8483683001916802)"><path d="M0 0 C-0.14 -3.95, -3.57 -19.4, -0.82 -23.68 C1.92 -27.97, 1.92 -25.36, 16.46 -25.72 C31 -26.08, 66.11 -25.82, 86.43 -25.84 C106.75 -25.86, 127.82 -25.82, 138.38 -25.86 C148.93 -25.9, 147.63 -28.62, 149.78 -26.09 C151.93 -23.56, 151.04 -17.78, 151.28 -10.69 C151.52 -3.6, 151.49 10.01, 151.21 16.47 C150.94 22.93, 153.49 25.92, 149.64 28.06 C145.79 30.19, 139.59 29.03, 128.1 29.26 C116.62 29.48, 97.68 29.35, 80.72 29.42 C63.76 29.49, 38.73 29.61, 26.34 29.67 C13.95 29.73, 10.85 30.36, 6.37 29.78 C1.89 29.2, 0.52 31.15, -0.54 26.19 C-1.6 21.22, -0.09 4.36, 0 0 M0 0 C-0.14 -3.95, -3.57 -19.4, -0.82 -23.68 C1.92 -27.97, 1.92 -25.36, 16.46 -25.72 C31 -26.08, 66.11 -25.82, 86.43 -25.84 C106.75 -25.86, 127.82 -25.82, 138.38 -25.86 C148.93 -25.9, 147.63 -28.62, 149.78 -26.09 C151.93 -23.56, 151.04 -17.78, 151.28 -10.69 C151.52 -3.6, 151.49 10.01, 151.21 16.47 C150.94 22.93, 153.49 25.92, 149.64 28.06 C145.79 30.19, 139.59 29.03, 128.1 29.26 C116.62 29.48, 97.68 29.35, 80.72 29.42 C63.76 29.49, 38.73 29.61, 26.34 29.67 C13.95 29.73, 10.85 30.36, 6.37 29.78 C1.89 29.2, 0.52 31.15, -0.54 26.19 C-1.6 21.22, -0.09 4.36, 0 0" stroke="#E1E1E1" stroke-width="4" fill="none"></path></g></g><mask></mask><g stroke-linecap="round"><g transform="translate(266.25422641933807 35.649498970142076) rotate(0 50.66672344496628 46.91537947692228)"><path d="M0 0 C6.4 0.06, 24.49 0.19, 38.42 0.35 C52.34 0.5, 73.53 -0.9, 83.54 0.93 C93.56 2.76, 95.64 5.81, 98.53 11.31 C101.41 16.81, 100.43 23.75, 100.87 33.92 C101.31 44.09, 101.07 62.35, 101.15 72.33 C101.23 82.32, 101.3 90.25, 101.33 93.83 M0 0 C6.4 0.06, 24.49 0.19, 38.42 0.35 C52.34 0.5, 73.53 -0.9, 83.54 0.93 C93.56 2.76, 95.64 5.81, 98.53 11.31 C101.41 16.81, 100.43 23.75, 100.87 33.92 C101.31 44.09, 101.07 62.35, 101.15 72.33 C101.23 82.32, 101.3 90.25, 101.33 93.83" stroke="#E1E1E1" stroke-width="4" fill="none"></path></g></g><mask></mask><g stroke-linecap="round"><g transform="translate(112.36480780796234 34.4119127315405) rotate(0 -46.69101338054776 235.42291476711844)"><path d="M0 0 C-7.38 0.09, -30.29 0.41, -44.29 0.57 C-58.29 0.73, -74.61 -0.97, -83.99 0.97 C-93.37 2.91, -97.62 4.45, -100.6 12.22 C-103.57 19.98, -101.92 26.96, -101.82 47.55 C-101.72 68.14, -100.13 106.09, -100 135.76 C-99.86 165.44, -100.74 191.56, -100.99 225.59 C-101.25 259.62, -101.54 304.82, -101.52 339.93 C-101.49 375.05, -101.26 416.25, -100.84 436.27 C-100.41 456.29, -101.45 454.28, -98.97 460.04 C-96.49 465.8, -95.46 469.07, -85.97 470.85 C-76.47 472.62, -57.72 470.75, -41.99 470.69 C-26.25 470.62, 0.03 470.49, 8.44 470.45 M0 0 C-7.38 0.09, -30.29 0.41, -44.29 0.57 C-58.29 0.73, -74.61 -0.97, -83.99 0.97 C-93.37 2.91, -97.62 4.45, -100.6 12.22 C-103.57 19.98, -101.92 26.96, -101.82 47.55 C-101.72 68.14, -100.13 106.09, -100 135.76 C-99.86 165.44, -100.74 191.56, -100.99 225.59 C-101.25 259.62, -101.54 304.82, -101.52 339.93 C-101.49 375.05, -101.26 416.25, -100.84 436.27 C-100.41 456.29, -101.45 454.28, -98.97 460.04 C-96.49 465.8, -95.46 469.07, -85.97 470.85 C-76.47 472.62, -57.72 470.75, -41.99 470.69 C-26.25 470.62, 0.03 470.49, 8.44 470.45" stroke="#E1E1E1" stroke-width="4" fill="none"></path></g></g><mask></mask><g stroke-linecap="round"><g transform="translate(197.81256344121545 503.52855133193566) rotate(0 84.72892667480701 -53.8192814615398)"><path d="M0 0 C10.3 0.1, 44.37 0.74, 61.82 0.63 C79.27 0.52, 91.54 4.88, 104.69 -0.67 C117.85 -6.23, 130.51 -23.06, 140.76 -32.71 C151.01 -42.36, 161.41 -45.97, 166.19 -58.56 C170.97 -71.15, 168.91 -99.98, 169.46 -108.27 M0 0 C10.3 0.1, 44.37 0.74, 61.82 0.63 C79.27 0.52, 91.54 4.88, 104.69 -0.67 C117.85 -6.23, 130.51 -23.06, 140.76 -32.71 C151.01 -42.36, 161.41 -45.97, 166.19 -58.56 C170.97 -71.15, 168.91 -99.98, 169.46 -108.27" stroke="#E1E1E1" stroke-width="4" fill="none"></path></g></g><mask></mask><g stroke-linecap="round"><g transform="translate(364.47227146152187 437.45059232453673) rotate(0 -32.73315565259077 32.11293344987398)"><path d="M0 0 C-5.1 0.04, -21.97 -0.4, -30.63 0.23 C-39.28 0.85, -46.15 -0.29, -51.95 3.77 C-57.76 7.83, -63.37 14.52, -65.47 24.59 C-67.57 34.67, -64.71 57.62, -64.56 64.23 M0 0 C-5.1 0.04, -21.97 -0.4, -30.63 0.23 C-39.28 0.85, -46.15 -0.29, -51.95 3.77 C-57.76 7.83, -63.37 14.52, -65.47 24.59 C-67.57 34.67, -64.71 57.62, -64.56 64.23" stroke="#E1E1E1" stroke-width="4" fill="none"></path></g></g><mask></mask><g stroke-linecap="round"><g transform="translate(392.6880944348796 118.29339294042597) rotate(0 -4.403006005921483 142.44246044603068)"><path d="M0 0 C14.09 4.68, 66.18 21.47, 84.54 28.07 C102.89 34.66, 105.28 34.92, 110.14 39.58 C114.99 44.24, 112.94 41.44, 113.67 56.03 C114.39 70.63, 114.36 109.94, 114.5 127.14 C114.64 144.33, 116.13 148.23, 114.49 159.19 C112.85 170.15, 109.15 181.88, 104.64 192.88 C100.13 203.87, 94.75 215.15, 87.41 225.15 C80.06 235.14, 70.77 244.79, 60.57 252.84 C50.37 260.9, 36.51 268.15, 26.2 273.49 C15.88 278.83, 7.23 284.27, -1.29 284.88 C-9.82 285.5, -16.1 280.82, -24.94 277.19 C-33.78 273.55, -44.51 269.6, -54.36 263.07 C-64.21 256.53, -74.94 248.27, -84.05 237.96 C-93.16 227.64, -102.47 215.43, -109.01 201.17 C-115.56 186.92, -120.93 169.62, -123.31 152.42 C-125.69 135.21, -123.44 116.2, -123.3 97.94 C-123.16 79.68, -128.05 55.07, -122.47 42.86 C-116.89 30.64, -110.22 31.77, -89.81 24.63 C-69.39 17.49, -14.97 4.11, 0 0 M0 0 C14.09 4.68, 66.18 21.47, 84.54 28.07 C102.89 34.66, 105.28 34.92, 110.14 39.58 C114.99 44.24, 112.94 41.44, 113.67 56.03 C114.39 70.63, 114.36 109.94, 114.5 127.14 C114.64 144.33, 116.13 148.23, 114.49 159.19 C112.85 170.15, 109.15 181.88, 104.64 192.88 C100.13 203.87, 94.75 215.15, 87.41 225.15 C80.06 235.14, 70.77 244.79, 60.57 252.84 C50.37 260.9, 36.51 268.15, 26.2 273.49 C15.88 278.83, 7.23 284.27, -1.29 284.88 C-9.82 285.5, -16.1 280.82, -24.94 277.19 C-33.78 273.55, -44.51 269.6, -54.36 263.07 C-64.21 256.53, -74.94 248.27, -84.05 237.96 C-93.16 227.64, -102.47 215.43, -109.01 201.17 C-115.56 186.92, -120.93 169.62, -123.31 152.42 C-125.69 135.21, -123.44 116.2, -123.3 97.94 C-123.16 79.68, -128.05 55.07, -122.47 42.86 C-116.89 30.64, -110.22 31.77, -89.81 24.63 C-69.39 17.49, -14.97 4.11, 0 0" stroke="#E1E1E1" stroke-width="4" fill="none"></path></g></g><mask></mask><g stroke-linecap="round"><g transform="translate(393.71226061425665 170.32280974582204) rotate(0 -2.733707897031067 88.43868903884304)"><path d="M0 0 C8.75 2.9, 41.09 13.33, 52.49 17.43 C63.88 21.52, 65.37 21.68, 68.38 24.57 C71.4 27.47, 70.12 25.73, 70.57 34.79 C71.02 43.85, 71.01 68.26, 71.09 78.94 C71.18 89.61, 72.1 92.03, 71.08 98.84 C70.06 105.64, 67.77 112.93, 64.97 119.75 C62.17 126.58, 58.83 133.58, 54.27 139.79 C49.71 145.99, 43.94 151.98, 37.61 156.98 C31.27 161.99, 22.67 166.49, 16.26 169.8 C9.86 173.12, 4.49 176.5, -0.8 176.88 C-6.1 177.26, -9.99 174.35, -15.48 172.1 C-20.98 169.84, -27.63 167.39, -33.75 163.33 C-39.86 159.27, -46.53 154.15, -52.18 147.74 C-57.84 141.34, -63.62 133.75, -67.68 124.9 C-71.75 116.05, -75.08 105.31, -76.56 94.63 C-78.04 83.95, -76.64 72.15, -76.55 60.81 C-76.47 49.47, -79.5 34.19, -76.04 26.61 C-72.57 19.02, -68.43 19.73, -55.76 15.29 C-43.09 10.86, -9.29 2.55, 0 0 M0 0 C8.75 2.9, 41.09 13.33, 52.49 17.43 C63.88 21.52, 65.37 21.68, 68.38 24.57 C71.4 27.47, 70.12 25.73, 70.57 34.79 C71.02 43.85, 71.01 68.26, 71.09 78.94 C71.18 89.61, 72.1 92.03, 71.08 98.84 C70.06 105.64, 67.77 112.93, 64.97 119.75 C62.17 126.58, 58.83 133.58, 54.27 139.79 C49.71 145.99, 43.94 151.98, 37.61 156.98 C31.27 161.99, 22.67 166.49, 16.26 169.8 C9.86 173.12, 4.49 176.5, -0.8 176.88 C-6.1 177.26, -9.99 174.35, -15.48 172.1 C-20.98 169.84, -27.63 167.39, -33.75 163.33 C-39.86 159.27, -46.53 154.15, -52.18 147.74 C-57.84 141.34, -63.62 133.75, -67.68 124.9 C-71.75 116.05, -75.08 105.31, -76.56 94.63 C-78.04 83.95, -76.64 72.15, -76.55 60.81 C-76.47 49.47, -79.5 34.19, -76.04 26.61 C-72.57 19.02, -68.43 19.73, -55.76 15.29 C-43.09 10.86, -9.29 2.55, 0 0" stroke="#E1E1E1" stroke-width="4" fill="none"></path></g></g><mask></mask><g stroke-linecap="round" transform="translate(80.62111096018822 167.951558707922) rotate(316.19525634586233 7.293402025390606 20.384633217690975)"><path d="M3.65 0 C6.08 0, 8.51 0, 10.94 0 C13.37 0, 14.59 1.22, 14.59 3.65 C14.59 12.68, 14.59 21.72, 14.59 37.12 C14.59 39.55, 13.37 40.77, 10.94 40.77 C8.51 40.77, 6.09 40.77, 3.65 40.77 C1.22 40.77, 0 39.55, 0 37.12 C0 24.79, 0 12.45, 0 3.65 C0 1.22, 1.22 0, 3.65 0" stroke="none" stroke-width="0" fill="#E1E1E1"></path><path d="M3.65 0 C5.39 0, 7.13 0, 10.94 0 M3.65 0 C5.67 0, 7.69 0, 10.94 0 M10.94 0 C13.37 0, 14.59 1.22, 14.59 3.65 M10.94 0 C13.37 0, 14.59 1.22, 14.59 3.65 M14.59 3.65 C14.59 14.98, 14.59 26.32, 14.59 37.12 M14.59 3.65 C14.59 16.4, 14.59 29.15, 14.59 37.12 M14.59 37.12 C14.59 39.55, 13.37 40.77, 10.94 40.77 M14.59 37.12 C14.59 39.55, 13.37 40.77, 10.94 40.77 M10.94 40.77 C8.14 40.77, 5.34 40.77, 3.65 40.77 M10.94 40.77 C8.47 40.77, 6.01 40.77, 3.65 40.77 M3.65 40.77 C1.22 40.77, 0 39.55, 0 37.12 M3.65 40.77 C1.22 40.77, 0 39.55, 0 37.12 M0 37.12 C0 26, 0 14.88, 0 3.65 M0 37.12 C0 25.98, 0 14.85, 0 3.65 M0 3.65 C0 1.22, 1.22 0, 3.65 0 M0 3.65 C0 1.22, 1.22 0, 3.65 0" stroke="#E1E1E1" stroke-width="4" fill="none"></path></g><g stroke-linecap="round" transform="translate(110.65554633942344 138.95011221775235) rotate(44.99999999999995 7.562952947558614 37.21876955324893)"><path d="M3.78 0 C5.69 0, 7.59 0, 11.34 0 C13.87 0, 15.13 1.26, 15.13 3.78 C15.13 30.2, 15.13 56.62, 15.13 70.66 C15.13 73.18, 13.87 74.44, 11.34 74.44 C8.99 74.44, 6.63 74.44, 3.78 74.44 C1.26 74.44, 0 73.18, 0 70.66 C0 45.08, 0 19.5, 0 3.78 C0 1.26, 1.26 0, 3.78 0" stroke="none" stroke-width="0" fill="#E1E1E1"></path><path d="M3.78 0 C6 0, 8.22 0, 11.34 0 M3.78 0 C6.48 0, 9.19 0, 11.34 0 M11.34 0 C13.87 0, 15.13 1.26, 15.13 3.78 M11.34 0 C13.87 0, 15.13 1.26, 15.13 3.78 M15.13 3.78 C15.13 29.51, 15.13 55.24, 15.13 70.66 M15.13 3.78 C15.13 17.49, 15.13 31.21, 15.13 70.66 M15.13 70.66 C15.13 73.18, 13.87 74.44, 11.34 74.44 M15.13 70.66 C15.13 73.18, 13.87 74.44, 11.34 74.44 M11.34 74.44 C8.95 74.44, 6.55 74.44, 3.78 74.44 M11.34 74.44 C9.58 74.44, 7.82 74.44, 3.78 74.44 M3.78 74.44 C1.26 74.44, 0 73.18, 0 70.66 M3.78 74.44 C1.26 74.44, 0 73.18, 0 70.66 M0 70.66 C0 55.35, 0 40.04, 0 3.78 M0 70.66 C0 47.74, 0 24.82, 0 3.78 M0 3.78 C0 1.26, 1.26 0, 3.78 0 M0 3.78 C0 1.26, 1.26 0, 3.78 0" stroke="#E1E1E1" stroke-width="4" fill="none"></path></g><g stroke-linecap="round" transform="translate(79.54358206422518 275.15282210558485) rotate(316.19525634586233 7.293402025390606 20.384633217690975)"><path d="M3.65 0 C5.22 0, 6.78 0, 10.94 0 C13.37 0, 14.59 1.22, 14.59 3.65 C14.59 13.28, 14.59 22.91, 14.59 37.12 C14.59 39.55, 13.37 40.77, 10.94 40.77 C8.95 40.77, 6.96 40.77, 3.65 40.77 C1.22 40.77, 0 39.55, 0 37.12 C0 29.4, 0 21.68, 0 3.65 C0 1.22, 1.22 0, 3.65 0" stroke="none" stroke-width="0" fill="#E1E1E1"></path><path d="M3.65 0 C5.72 0, 7.79 0, 10.94 0 M3.65 0 C5.98 0, 8.32 0, 10.94 0 M10.94 0 C13.37 0, 14.59 1.22, 14.59 3.65 M10.94 0 C13.37 0, 14.59 1.22, 14.59 3.65 M14.59 3.65 C14.59 14.64, 14.59 25.63, 14.59 37.12 M14.59 3.65 C14.59 10.88, 14.59 18.11, 14.59 37.12 M14.59 37.12 C14.59 39.55, 13.37 40.77, 10.94 40.77 M14.59 37.12 C14.59 39.55, 13.37 40.77, 10.94 40.77 M10.94 40.77 C9.1 40.77, 7.25 40.77, 3.65 40.77 M10.94 40.77 C8.21 40.77, 5.48 40.77, 3.65 40.77 M3.65 40.77 C1.22 40.77, 0 39.55, 0 37.12 M3.65 40.77 C1.22 40.77, 0 39.55, 0 37.12 M0 37.12 C0 24.48, 0 11.85, 0 3.65 M0 37.12 C0 29.87, 0 22.62, 0 3.65 M0 3.65 C0 1.22, 1.22 0, 3.65 0 M0 3.65 C0 1.22, 1.22 0, 3.65 0" stroke="#E1E1E1" stroke-width="4" fill="none"></path></g><g stroke-linecap="round" transform="translate(109.57801744345676 246.15137561541246) rotate(44.99999999999995 7.562952947558614 37.21876955324893)"><path d="M3.78 0 C5.73 0, 7.67 0, 11.34 0 C13.87 0, 15.13 1.26, 15.13 3.78 C15.13 25.37, 15.13 46.96, 15.13 70.66 C15.13 73.18, 13.87 74.44, 11.34 74.44 C9.23 74.44, 7.11 74.44, 3.78 74.44 C1.26 74.44, 0 73.18, 0 70.66 C0 46.8, 0 22.95, 0 3.78 C0 1.26, 1.26 0, 3.78 0" stroke="none" stroke-width="0" fill="#E1E1E1"></path><path d="M3.78 0 C6.21 0, 8.63 0, 11.34 0 M3.78 0 C5.7 0, 7.61 0, 11.34 0 M11.34 0 C13.87 0, 15.13 1.26, 15.13 3.78 M11.34 0 C13.87 0, 15.13 1.26, 15.13 3.78 M15.13 3.78 C15.13 24.54, 15.13 45.3, 15.13 70.66 M15.13 3.78 C15.13 28.53, 15.13 53.28, 15.13 70.66 M15.13 70.66 C15.13 73.18, 13.87 74.44, 11.34 74.44 M15.13 70.66 C15.13 73.18, 13.87 74.44, 11.34 74.44 M11.34 74.44 C8.59 74.44, 5.84 74.44, 3.78 74.44 M11.34 74.44 C8.41 74.44, 5.47 74.44, 3.78 74.44 M3.78 74.44 C1.26 74.44, 0 73.18, 0 70.66 M3.78 74.44 C1.26 74.44, 0 73.18, 0 70.66 M0 70.66 C0 45.16, 0 19.66, 0 3.78 M0 70.66 C0 54.08, 0 37.51, 0 3.78 M0 3.78 C0 1.26, 1.26 0, 3.78 0 M0 3.78 C0 1.26, 1.26 0, 3.78 0" stroke="#E1E1E1" stroke-width="4" fill="none"></path></g><g stroke-linecap="round" transform="translate(79.67219957169988 386.36980990332336) rotate(316.19525634586233 7.293402025390606 20.384633217690972)"><path d="M3.65 0 C5.89 0, 8.13 0, 10.94 0 C13.37 0, 14.59 1.22, 14.59 3.65 C14.59 13.06, 14.59 22.48, 14.59 37.12 C14.59 39.55, 13.37 40.77, 10.94 40.77 C8.79 40.77, 6.65 40.77, 3.65 40.77 C1.22 40.77, 0 39.55, 0 37.12 C0 30.09, 0 23.05, 0 3.65 C0 1.22, 1.22 0, 3.65 0" stroke="none" stroke-width="0" fill="#E1E1E1"></path><path d="M3.65 0 C5.15 0, 6.65 0, 10.94 0 M3.65 0 C5.47 0, 7.29 0, 10.94 0 M10.94 0 C13.37 0, 14.59 1.22, 14.59 3.65 M10.94 0 C13.37 0, 14.59 1.22, 14.59 3.65 M14.59 3.65 C14.59 15.88, 14.59 28.11, 14.59 37.12 M14.59 3.65 C14.59 11.32, 14.59 19, 14.59 37.12 M14.59 37.12 C14.59 39.55, 13.37 40.77, 10.94 40.77 M14.59 37.12 C14.59 39.55, 13.37 40.77, 10.94 40.77 M10.94 40.77 C8.64 40.77, 6.34 40.77, 3.65 40.77 M10.94 40.77 C8.71 40.77, 6.49 40.77, 3.65 40.77 M3.65 40.77 C1.22 40.77, 0 39.55, 0 37.12 M3.65 40.77 C1.22 40.77, 0 39.55, 0 37.12 M0 37.12 C0 25.83, 0 14.54, 0 3.65 M0 37.12 C0 25.86, 0 14.6, 0 3.65 M0 3.65 C0 1.22, 1.22 0, 3.65 0 M0 3.65 C0 1.22, 1.22 0, 3.65 0" stroke="#E1E1E1" stroke-width="4" fill="none"></path></g><g stroke-linecap="round" transform="translate(109.70663495093146 357.3683634131546) rotate(44.99999999999995 7.562952947558614 37.21876955324893)"><path d="M3.78 0 C6.7 0, 9.63 0, 11.34 0 C13.87 0, 15.13 1.26, 15.13 3.78 C15.13 27.23, 15.13 50.67, 15.13 70.66 C15.13 73.18, 13.87 74.44, 11.34 74.44 C8.56 74.44, 5.78 74.44, 3.78 74.44 C1.26 74.44, 0 73.18, 0 70.66 C0 54.12, 0 37.58, 0 3.78 C0 1.26, 1.26 0, 3.78 0" stroke="none" stroke-width="0" fill="#E1E1E1"></path><path d="M3.78 0 C5.57 0, 7.37 0, 11.34 0 M3.78 0 C5.37 0, 6.96 0, 11.34 0 M11.34 0 C13.87 0, 15.13 1.26, 15.13 3.78 M11.34 0 C13.87 0, 15.13 1.26, 15.13 3.78 M15.13 3.78 C15.13 18.6, 15.13 33.42, 15.13 70.66 M15.13 3.78 C15.13 28.02, 15.13 52.26, 15.13 70.66 M15.13 70.66 C15.13 73.18, 13.87 74.44, 11.34 74.44 M15.13 70.66 C15.13 73.18, 13.87 74.44, 11.34 74.44 M11.34 74.44 C9.32 74.44, 7.31 74.44, 3.78 74.44 M11.34 74.44 C8.6 74.44, 5.86 74.44, 3.78 74.44 M3.78 74.44 C1.26 74.44, 0 73.18, 0 70.66 M3.78 74.44 C1.26 74.44, 0 73.18, 0 70.66 M0 70.66 C0 54.85, 0 39.04, 0 3.78 M0 70.66 C0 44.7, 0 18.74, 0 3.78 M0 3.78 C0 1.26, 1.26 0, 3.78 0 M0 3.78 C0 1.26, 1.26 0, 3.78 0" stroke="#E1E1E1" stroke-width="4" fill="none"></path></g><g stroke-linecap="round"><g transform="translate(181.65248816858917 152.4713519269942) rotate(0 48.583119823858404 -0.3629871877651283)"><path d="M0 0 C16.19 -0.12, 80.97 -0.6, 97.17 -0.73 M0 0 C16.19 -0.12, 80.97 -0.6, 97.17 -0.73" stroke="#E1E1E1" stroke-width="4" fill="none"></path></g></g><mask></mask><g stroke-linecap="round"><g transform="translate(181.90114868304414 196.88726450863737) rotate(0 30.129365667914072 -0.3158274350238628)"><path d="M0 0 C10.04 -0.11, 50.22 -0.53, 60.26 -0.63 M0 0 C10.04 -0.11, 50.22 -0.53, 60.26 -0.63" stroke="#E1E1E1" stroke-width="4" fill="none"></path></g></g><mask></mask><g stroke-linecap="round"><g transform="translate(182.78718040121208 260.9673648999121) rotate(0 42.86964432510015 -0.22722426320721922)"><path d="M0 0 C14.29 -0.08, 71.45 -0.38, 85.74 -0.45 M0 0 C14.29 -0.08, 71.45 -0.38, 85.74 -0.45" stroke="#E1E1E1" stroke-width="4" fill="none"></path></g></g><mask></mask><g stroke-linecap="round"><g transform="translate(182.5728178887494 306.95241107275865) rotate(0 30.590959611410526 -0.08288683815098352)"><path d="M0 0 C10.2 -0.03, 50.98 -0.14, 61.18 -0.17 M0 0 C10.2 -0.03, 50.98 -0.14, 61.18 -0.17" stroke="#E1E1E1" stroke-width="4" fill="none"></path></g></g><mask></mask><g stroke-linecap="round"><g transform="translate(183.2444870944583 369.4833850406601) rotate(0 52.02578177396058 -0.09146133864933859)"><path d="M0 0 C17.34 -0.03, 86.71 -0.15, 104.05 -0.18 M0 0 C17.34 -0.03, 86.71 -0.15, 104.05 -0.18" stroke="#E1E1E1" stroke-width="4" fill="none"></path></g></g><mask></mask><g stroke-linecap="round"><g transform="translate(181.9726028538626 413.83927611881495) rotate(0 41.86214051653968 -0.4430158590834026)"><path d="M0 0 C13.95 -0.15, 69.77 -0.74, 83.72 -0.89 M0 0 C13.95 -0.15, 69.77 -0.74, 83.72 -0.89" stroke="#E1E1E1" stroke-width="4" fill="none"></path></g></g><mask></mask><g stroke-linecap="round" transform="translate(150.6005240146897 496.85831654818844) rotate(0 8.915105935411432 8.915105935411425)"><path d="M17.83 8.92 C17.83 9.43, 17.78 9.96, 17.69 10.46 C17.61 10.97, 17.47 11.48, 17.29 11.96 C17.12 12.45, 16.89 12.93, 16.64 13.37 C16.38 13.82, 16.08 14.25, 15.74 14.65 C15.41 15.04, 15.04 15.41, 14.65 15.74 C14.25 16.08, 13.82 16.38, 13.37 16.64 C12.93 16.89, 12.45 17.12, 11.96 17.29 C11.48 17.47, 10.97 17.61, 10.46 17.69 C9.96 17.78, 9.43 17.83, 8.92 17.83 C8.4 17.83, 7.88 17.78, 7.37 17.69 C6.86 17.61, 6.35 17.47, 5.87 17.29 C5.38 17.12, 4.9 16.89, 4.46 16.64 C4.01 16.38, 3.58 16.08, 3.18 15.74 C2.79 15.41, 2.42 15.04, 2.09 14.65 C1.75 14.25, 1.45 13.82, 1.19 13.37 C0.94 12.93, 0.71 12.45, 0.54 11.96 C0.36 11.48, 0.23 10.97, 0.14 10.46 C0.05 9.96, 0 9.43, 0 8.92 C0 8.4, 0.05 7.88, 0.14 7.37 C0.23 6.86, 0.36 6.35, 0.54 5.87 C0.71 5.38, 0.94 4.9, 1.19 4.46 C1.45 4.01, 1.75 3.58, 2.09 3.18 C2.42 2.79, 2.79 2.42, 3.18 2.09 C3.58 1.75, 4.01 1.45, 4.46 1.19 C4.9 0.94, 5.38 0.71, 5.87 0.54 C6.35 0.36, 6.86 0.23, 7.37 0.14 C7.88 0.05, 8.4 0, 8.92 0 C9.43 0, 9.96 0.05, 10.46 0.14 C10.97 0.23, 11.48 0.36, 11.96 0.54 C12.45 0.71, 12.93 0.94, 13.37 1.19 C13.82 1.45, 14.25 1.75, 14.65 2.09 C15.04 2.42, 15.41 2.79, 15.74 3.18 C16.08 3.58, 16.38 4.01, 16.64 4.46 C16.89 4.9, 17.12 5.38, 17.29 5.87 C17.47 6.35, 17.61 6.86, 17.69 7.37 C17.78 7.88, 17.81 8.66, 17.83 8.92 C17.85 9.17, 17.85 8.66, 17.83 8.92" stroke="#E1E1E1" stroke-width="4" fill="none"></path></g></svg>