<svg version="1.1" xmlns="http://www.w3.org/2000/svg" viewBox="0 0 631.2490198942683 669.0723615142467" width="631.2490198942683" height="669.0723615142467" class="excalidraw-svg"><!-- svg-source:excalidraw --><metadata></metadata><defs><style class="style-fonts">
      </style></defs><rect x="0" y="0" width="631.2490198942683" height="669.0723615142467" fill="#000000"></rect><g stroke-linecap="round"><g transform="translate(299.6885905256445 206.47156068587168) rotate(0 33.49384596483131 -94.71540534998545)"><path d="M0 0 C-0.3 -1.86, -1.63 -7.11, -1.79 -11.15 C-1.95 -15.18, -1.88 -19.64, -0.95 -24.2 C-0.02 -28.77, 1.61 -34.18, 3.78 -38.55 C5.96 -42.91, 8.96 -46.84, 12.11 -50.38 C15.26 -53.91, 19.59 -56.89, 22.68 -59.77 C25.77 -62.65, 28.29 -64.78, 30.68 -67.65 C33.06 -70.52, 35.57 -73.96, 37.01 -76.99 C38.44 -80.02, 39.09 -82.74, 39.29 -85.83 C39.48 -88.92, 39.3 -91.95, 38.2 -95.53 C37.1 -99.12, 34.55 -103.75, 32.69 -107.35 C30.83 -110.95, 28.82 -113.79, 27.04 -117.15 C25.27 -120.51, 23.41 -123.96, 22.05 -127.5 C20.69 -131.04, 19.62 -134.12, 18.88 -138.41 C18.14 -142.7, 17.2 -148.22, 17.59 -153.24 C17.98 -158.26, 19.11 -163.31, 21.24 -168.54 C23.37 -173.77, 27.48 -180.37, 30.37 -184.62 C33.27 -188.87, 36.57 -192.1, 38.63 -194.06 C40.69 -196.02, 42.37 -196.78, 42.74 -196.36 C43.12 -195.95, 41.95 -194.03, 40.89 -191.57 C39.83 -189.12, 37.67 -185.33, 36.39 -181.63 C35.11 -177.92, 33.76 -173.81, 33.2 -169.33 C32.64 -164.85, 32.44 -159.24, 33.02 -154.74 C33.6 -150.25, 34.68 -146.64, 36.67 -142.36 C38.65 -138.08, 41.7 -133.45, 44.93 -129.04 C48.16 -124.63, 52.74 -120.32, 56.03 -115.88 C59.33 -111.44, 62.56 -106.92, 64.68 -102.4 C66.81 -97.88, 68.13 -93.78, 68.78 -88.76 C69.43 -83.74, 69.41 -77.6, 68.58 -72.27 C67.75 -66.94, 65.99 -61.17, 63.8 -56.79 C61.61 -52.41, 58 -49.44, 55.43 -45.98 C52.87 -42.52, 50.28 -39.49, 48.42 -36.03 C46.57 -32.57, 45 -28.83, 44.3 -25.22 C43.61 -21.61, 43.73 -17.92, 44.24 -14.37 C44.74 -10.82, 45.81 -6.87, 47.35 -3.94 C48.9 -1.01, 51.78 1.4, 53.51 3.21 C55.25 5.02, 57.05 6.31, 57.76 6.93 M0 0 C-0.3 -1.86, -1.63 -7.11, -1.79 -11.15 C-1.95 -15.18, -1.88 -19.64, -0.95 -24.2 C-0.02 -28.77, 1.61 -34.18, 3.78 -38.55 C5.96 -42.91, 8.96 -46.84, 12.11 -50.38 C15.26 -53.91, 19.59 -56.89, 22.68 -59.77 C25.77 -62.65, 28.29 -64.78, 30.68 -67.65 C33.06 -70.52, 35.57 -73.96, 37.01 -76.99 C38.44 -80.02, 39.09 -82.74, 39.29 -85.83 C39.48 -88.92, 39.3 -91.95, 38.2 -95.53 C37.1 -99.12, 34.55 -103.75, 32.69 -107.35 C30.83 -110.95, 28.82 -113.79, 27.04 -117.15 C25.27 -120.51, 23.41 -123.96, 22.05 -127.5 C20.69 -131.04, 19.62 -134.12, 18.88 -138.41 C18.14 -142.7, 17.2 -148.22, 17.59 -153.24 C17.98 -158.26, 19.11 -163.31, 21.24 -168.54 C23.37 -173.77, 27.48 -180.37, 30.37 -184.62 C33.27 -188.87, 36.57 -192.1, 38.63 -194.06 C40.69 -196.02, 42.37 -196.78, 42.74 -196.36 C43.12 -195.95, 41.95 -194.03, 40.89 -191.57 C39.83 -189.12, 37.67 -185.33, 36.39 -181.63 C35.11 -177.92, 33.76 -173.81, 33.2 -169.33 C32.64 -164.85, 32.44 -159.24, 33.02 -154.74 C33.6 -150.25, 34.68 -146.64, 36.67 -142.36 C38.65 -138.08, 41.7 -133.45, 44.93 -129.04 C48.16 -124.63, 52.74 -120.32, 56.03 -115.88 C59.33 -111.44, 62.56 -106.92, 64.68 -102.4 C66.81 -97.88, 68.13 -93.78, 68.78 -88.76 C69.43 -83.74, 69.41 -77.6, 68.58 -72.27 C67.75 -66.94, 65.99 -61.17, 63.8 -56.79 C61.61 -52.41, 58 -49.44, 55.43 -45.98 C52.87 -42.52, 50.28 -39.49, 48.42 -36.03 C46.57 -32.57, 45 -28.83, 44.3 -25.22 C43.61 -21.61, 43.73 -17.92, 44.24 -14.37 C44.74 -10.82, 45.81 -6.87, 47.35 -3.94 C48.9 -1.01, 51.78 1.4, 53.51 3.21 C55.25 5.02, 57.05 6.31, 57.76 6.93" stroke="#FFFFFF" stroke-width="2" fill="none"></path></g></g><mask></mask><g stroke-linecap="round"><g transform="translate(357.4858791745131 213.1947609319862) rotate(0 49.706781860019845 -69.92524844276518)"><path d="M0 0 C1.09 -2.69, 3.86 -10.96, 6.54 -16.15 C9.21 -21.34, 12.6 -26.93, 16.04 -31.12 C19.49 -35.3, 22.89 -38.37, 27.21 -41.27 C31.53 -44.17, 37.55 -46.37, 41.95 -48.52 C46.35 -50.68, 50.17 -51.69, 53.63 -54.18 C57.09 -56.66, 60.37 -60.18, 62.71 -63.44 C65.06 -66.69, 66.56 -69.5, 67.71 -73.72 C68.86 -77.94, 69.69 -82.6, 69.6 -88.75 C69.52 -94.91, 67.57 -103.75, 67.2 -110.66 C66.83 -117.57, 66.49 -124.05, 67.38 -130.2 C68.26 -136.35, 70.23 -142.75, 72.51 -147.56 C74.78 -152.38, 77.99 -155.84, 81 -159.08 C84.02 -162.31, 87.55 -165.08, 90.62 -166.98 C93.69 -168.89, 98.77 -170.85, 99.41 -170.52 C100.06 -170.19, 96.39 -167.44, 94.49 -165.02 C92.59 -162.6, 89.75 -159.37, 87.99 -155.98 C86.22 -152.6, 84.8 -148.81, 83.9 -144.72 C83 -140.63, 82.27 -136.56, 82.58 -131.42 C82.88 -126.28, 84.39 -119.79, 85.71 -113.87 C87.04 -107.94, 89.28 -101.2, 90.52 -95.87 C91.76 -90.53, 92.66 -86.98, 93.15 -81.87 C93.64 -76.76, 93.97 -70.77, 93.47 -65.23 C92.97 -59.68, 92 -53.48, 90.16 -48.59 C88.33 -43.7, 85.92 -40.07, 82.44 -35.9 C78.95 -31.74, 73.38 -27.12, 69.24 -23.59 C65.1 -20.05, 61.04 -18.07, 57.6 -14.7 C54.15 -11.33, 50.65 -7.85, 48.56 -3.38 C46.47 1.1, 45.36 7.39, 45.07 12.15 C44.77 16.91, 46.1 22.08, 46.79 25.17 C47.48 28.25, 48.8 29.75, 49.21 30.67 M0 0 C1.09 -2.69, 3.86 -10.96, 6.54 -16.15 C9.21 -21.34, 12.6 -26.93, 16.04 -31.12 C19.49 -35.3, 22.89 -38.37, 27.21 -41.27 C31.53 -44.17, 37.55 -46.37, 41.95 -48.52 C46.35 -50.68, 50.17 -51.69, 53.63 -54.18 C57.09 -56.66, 60.37 -60.18, 62.71 -63.44 C65.06 -66.69, 66.56 -69.5, 67.71 -73.72 C68.86 -77.94, 69.69 -82.6, 69.6 -88.75 C69.52 -94.91, 67.57 -103.75, 67.2 -110.66 C66.83 -117.57, 66.49 -124.05, 67.38 -130.2 C68.26 -136.35, 70.23 -142.75, 72.51 -147.56 C74.78 -152.38, 77.99 -155.84, 81 -159.08 C84.02 -162.31, 87.55 -165.08, 90.62 -166.98 C93.69 -168.89, 98.77 -170.85, 99.41 -170.52 C100.06 -170.19, 96.39 -167.44, 94.49 -165.02 C92.59 -162.6, 89.75 -159.37, 87.99 -155.98 C86.22 -152.6, 84.8 -148.81, 83.9 -144.72 C83 -140.63, 82.27 -136.56, 82.58 -131.42 C82.88 -126.28, 84.39 -119.79, 85.71 -113.87 C87.04 -107.94, 89.28 -101.2, 90.52 -95.87 C91.76 -90.53, 92.66 -86.98, 93.15 -81.87 C93.64 -76.76, 93.97 -70.77, 93.47 -65.23 C92.97 -59.68, 92 -53.48, 90.16 -48.59 C88.33 -43.7, 85.92 -40.07, 82.44 -35.9 C78.95 -31.74, 73.38 -27.12, 69.24 -23.59 C65.1 -20.05, 61.04 -18.07, 57.6 -14.7 C54.15 -11.33, 50.65 -7.85, 48.56 -3.38 C46.47 1.1, 45.36 7.39, 45.07 12.15 C44.77 16.91, 46.1 22.08, 46.79 25.17 C47.48 28.25, 48.8 29.75, 49.21 30.67" stroke="#FFFFFF" stroke-width="2" fill="none"></path></g></g><mask></mask><g stroke-linecap="round"><g transform="translate(406.89746004098606 243.64515721754378) rotate(0 81.17154702437534 -48.13683019723055)"><path d="M0 0 C0.94 -0.96, 3.4 -3.59, 5.64 -5.75 C7.88 -7.91, 10.23 -10.76, 13.44 -12.95 C16.66 -15.15, 20.69 -17.44, 24.93 -18.92 C29.17 -20.4, 33.66 -21.44, 38.89 -21.83 C44.11 -22.23, 50.65 -21.39, 56.28 -21.27 C61.9 -21.16, 68.46 -20.6, 72.65 -21.14 C76.85 -21.68, 78.64 -22.5, 81.42 -24.53 C84.2 -26.56, 87.06 -29.77, 89.33 -33.31 C91.6 -36.86, 93.28 -41.34, 95.02 -45.8 C96.77 -50.26, 98.11 -55.67, 99.81 -60.05 C101.52 -64.44, 103.11 -68.46, 105.25 -72.12 C107.39 -75.77, 109.59 -78.91, 112.65 -81.99 C115.71 -85.06, 119.73 -88.36, 123.6 -90.56 C127.46 -92.76, 131.13 -94.24, 135.85 -95.2 C140.57 -96.15, 147.51 -96.37, 151.93 -96.27 C156.34 -96.17, 160.61 -94.88, 162.34 -94.6 M0 0 C0.94 -0.96, 3.4 -3.59, 5.64 -5.75 C7.88 -7.91, 10.23 -10.76, 13.44 -12.95 C16.66 -15.15, 20.69 -17.44, 24.93 -18.92 C29.17 -20.4, 33.66 -21.44, 38.89 -21.83 C44.11 -22.23, 50.65 -21.39, 56.28 -21.27 C61.9 -21.16, 68.46 -20.6, 72.65 -21.14 C76.85 -21.68, 78.64 -22.5, 81.42 -24.53 C84.2 -26.56, 87.06 -29.77, 89.33 -33.31 C91.6 -36.86, 93.28 -41.34, 95.02 -45.8 C96.77 -50.26, 98.11 -55.67, 99.81 -60.05 C101.52 -64.44, 103.11 -68.46, 105.25 -72.12 C107.39 -75.77, 109.59 -78.91, 112.65 -81.99 C115.71 -85.06, 119.73 -88.36, 123.6 -90.56 C127.46 -92.76, 131.13 -94.24, 135.85 -95.2 C140.57 -96.15, 147.51 -96.37, 151.93 -96.27 C156.34 -96.17, 160.61 -94.88, 162.34 -94.6" stroke="#FFFFFF" stroke-width="2" fill="none"></path></g></g><mask></mask><g stroke-linecap="round"><g transform="translate(569.2405540897369 149.04950946419888) rotate(0 -65.95922473616386 72.4698202365008)"><path d="M0 0 C-1.79 0.44, -6.78 1.14, -10.72 2.64 C-14.67 4.13, -20.18 6.69, -23.65 8.98 C-27.12 11.28, -29.26 13.82, -31.54 16.41 C-33.82 18.99, -35.5 21, -37.34 24.48 C-39.17 27.97, -41.06 32.03, -42.54 37.3 C-44.02 42.57, -45.18 50.52, -46.21 56.11 C-47.24 61.7, -47.49 66.2, -48.71 70.84 C-49.92 75.48, -51.36 79.93, -53.52 83.96 C-55.67 88, -58.56 91.89, -61.65 95.06 C-64.73 98.22, -68.13 100.75, -72.05 102.95 C-75.97 105.14, -80.47 106.98, -85.17 108.21 C-89.86 109.45, -95.12 109.04, -100.22 110.36 C-105.32 111.69, -111.42 113.53, -115.76 116.18 C-120.1 118.83, -123.65 122.51, -126.25 126.25 C-128.86 130, -130.46 135.55, -131.4 138.67 C-132.35 141.78, -131.83 143.89, -131.92 144.94 M0 0 C-1.79 0.44, -6.78 1.14, -10.72 2.64 C-14.67 4.13, -20.18 6.69, -23.65 8.98 C-27.12 11.28, -29.26 13.82, -31.54 16.41 C-33.82 18.99, -35.5 21, -37.34 24.48 C-39.17 27.97, -41.06 32.03, -42.54 37.3 C-44.02 42.57, -45.18 50.52, -46.21 56.11 C-47.24 61.7, -47.49 66.2, -48.71 70.84 C-49.92 75.48, -51.36 79.93, -53.52 83.96 C-55.67 88, -58.56 91.89, -61.65 95.06 C-64.73 98.22, -68.13 100.75, -72.05 102.95 C-75.97 105.14, -80.47 106.98, -85.17 108.21 C-89.86 109.45, -95.12 109.04, -100.22 110.36 C-105.32 111.69, -111.42 113.53, -115.76 116.18 C-120.1 118.83, -123.65 122.51, -126.25 126.25 C-128.86 130, -130.46 135.55, -131.4 138.67 C-132.35 141.78, -131.83 143.89, -131.92 144.94" stroke="#FFFFFF" stroke-width="2" fill="none"></path></g></g><mask></mask><g stroke-linecap="round"><g transform="translate(437.34551637608956 294.2533861135268) rotate(0 91.91882126383706 14.947637236193138)"><path d="M0 0 C1.14 -0.56, 3.99 -2.43, 6.82 -3.35 C9.66 -4.28, 13.06 -5.18, 17 -5.55 C20.94 -5.92, 25.92 -6.18, 30.49 -5.58 C35.06 -4.98, 40.02 -3.65, 44.4 -1.93 C48.78 -0.21, 52.27 2.29, 56.77 4.74 C61.27 7.2, 67.29 11.24, 71.41 12.8 C75.54 14.36, 77.98 14.66, 81.52 14.12 C85.07 13.58, 88.49 12.5, 92.67 9.56 C96.85 6.62, 102.17 0.94, 106.62 -3.52 C111.08 -7.97, 115.28 -13.44, 119.41 -17.16 C123.54 -20.87, 127.14 -23.83, 131.4 -25.82 C135.65 -27.81, 140.49 -28.59, 144.91 -29.1 C149.33 -29.61, 153.43 -29.65, 157.91 -28.89 C162.4 -28.13, 167.52 -26.69, 171.84 -24.53 C176.16 -22.36, 183.12 -17.1, 183.84 -15.88 C184.56 -14.66, 179.23 -16.8, 176.15 -17.21 C173.06 -17.61, 169.37 -18.42, 165.32 -18.31 C161.26 -18.19, 156.39 -18.15, 151.8 -16.52 C147.21 -14.89, 141.65 -11.46, 137.78 -8.56 C133.92 -5.65, 131.67 -2.98, 128.6 0.92 C125.52 4.83, 122.16 10.37, 119.34 14.87 C116.52 19.38, 114.75 23.92, 111.69 27.96 C108.63 32, 104.51 36.2, 100.99 39.1 C97.48 42, 94.4 43.8, 90.6 45.36 C86.81 46.92, 83.03 48.11, 78.24 48.44 C73.46 48.77, 67.19 48.35, 61.89 47.34 C56.59 46.33, 50.54 43.34, 46.44 42.35 C42.34 41.35, 40.78 41.24, 37.27 41.37 C33.77 41.49, 29.23 41.83, 25.41 43.09 C21.59 44.35, 17.64 46.27, 14.37 48.92 C11.1 51.57, 7.21 57.32, 5.78 59 M0 0 C1.14 -0.56, 3.99 -2.43, 6.82 -3.35 C9.66 -4.28, 13.06 -5.18, 17 -5.55 C20.94 -5.92, 25.92 -6.18, 30.49 -5.58 C35.06 -4.98, 40.02 -3.65, 44.4 -1.93 C48.78 -0.21, 52.27 2.29, 56.77 4.74 C61.27 7.2, 67.29 11.24, 71.41 12.8 C75.54 14.36, 77.98 14.66, 81.52 14.12 C85.07 13.58, 88.49 12.5, 92.67 9.56 C96.85 6.62, 102.17 0.94, 106.62 -3.52 C111.08 -7.97, 115.28 -13.44, 119.41 -17.16 C123.54 -20.87, 127.14 -23.83, 131.4 -25.82 C135.65 -27.81, 140.49 -28.59, 144.91 -29.1 C149.33 -29.61, 153.43 -29.65, 157.91 -28.89 C162.4 -28.13, 167.52 -26.69, 171.84 -24.53 C176.16 -22.36, 183.12 -17.1, 183.84 -15.88 C184.56 -14.66, 179.23 -16.8, 176.15 -17.21 C173.06 -17.61, 169.37 -18.42, 165.32 -18.31 C161.26 -18.19, 156.39 -18.15, 151.8 -16.52 C147.21 -14.89, 141.65 -11.46, 137.78 -8.56 C133.92 -5.65, 131.67 -2.98, 128.6 0.92 C125.52 4.83, 122.16 10.37, 119.34 14.87 C116.52 19.38, 114.75 23.92, 111.69 27.96 C108.63 32, 104.51 36.2, 100.99 39.1 C97.48 42, 94.4 43.8, 90.6 45.36 C86.81 46.92, 83.03 48.11, 78.24 48.44 C73.46 48.77, 67.19 48.35, 61.89 47.34 C56.59 46.33, 50.54 43.34, 46.44 42.35 C42.34 41.35, 40.78 41.24, 37.27 41.37 C33.77 41.49, 29.23 41.83, 25.41 43.09 C21.59 44.35, 17.64 46.27, 14.37 48.92 C11.1 51.57, 7.21 57.32, 5.78 59" stroke="#FFFFFF" stroke-width="2" fill="none"></path></g></g><mask></mask><g stroke-linecap="round"><g transform="translate(443.24953624702323 353.2498714720049) rotate(0 76.44896963013801 41.41890771773627)"><path d="M0 0 C1.57 0.12, 5.74 0, 9.44 0.7 C13.15 1.4, 18.27 2.58, 22.24 4.18 C26.21 5.79, 29.86 7.93, 33.28 10.32 C36.69 12.71, 39.47 14.85, 42.73 18.51 C45.98 22.17, 49.98 28.16, 52.79 32.28 C55.61 36.4, 56.9 40.07, 59.62 43.21 C62.34 46.36, 66.19 49.5, 69.1 51.16 C72.01 52.81, 73.62 53.03, 77.11 53.13 C80.6 53.22, 85.87 52.58, 90.03 51.71 C94.18 50.84, 98.02 49.11, 102.05 47.89 C106.08 46.67, 110.28 45.24, 114.18 44.4 C118.08 43.56, 121.5 42.81, 125.43 42.87 C129.37 42.92, 133.47 43.26, 137.78 44.72 C142.1 46.18, 147.27 48.92, 151.32 51.65 C155.37 54.39, 158.85 57.52, 162.08 61.12 C165.3 64.72, 169.92 71.56, 170.66 73.27 C171.41 74.97, 169.05 72.78, 166.54 71.33 C164.02 69.89, 159.49 66.42, 155.56 64.6 C151.63 62.77, 147.26 61.2, 142.95 60.38 C138.63 59.57, 134.4 59.04, 129.64 59.72 C124.89 60.41, 119.26 62.27, 114.43 64.49 C109.6 66.71, 105.41 70.56, 100.68 73.07 C95.94 75.57, 90.61 77.9, 86.02 79.52 C81.43 81.15, 77.75 82.34, 73.15 82.84 C68.54 83.33, 63.42 83.69, 58.4 82.49 C53.37 81.29, 47.57 78.52, 43 75.64 C38.43 72.76, 34.88 68.74, 30.98 65.22 C27.08 61.7, 23.42 57.19, 19.63 54.55 C15.83 51.91, 11.84 50.35, 8.19 49.37 C4.53 48.4, 1.13 48.21, -2.31 48.68 C-5.75 49.15, -9.88 51.01, -12.46 52.19 C-15.03 53.37, -16.88 55.15, -17.76 55.75 M0 0 C1.57 0.12, 5.74 0, 9.44 0.7 C13.15 1.4, 18.27 2.58, 22.24 4.18 C26.21 5.79, 29.86 7.93, 33.28 10.32 C36.69 12.71, 39.47 14.85, 42.73 18.51 C45.98 22.17, 49.98 28.16, 52.79 32.28 C55.61 36.4, 56.9 40.07, 59.62 43.21 C62.34 46.36, 66.19 49.5, 69.1 51.16 C72.01 52.81, 73.62 53.03, 77.11 53.13 C80.6 53.22, 85.87 52.58, 90.03 51.71 C94.18 50.84, 98.02 49.11, 102.05 47.89 C106.08 46.67, 110.28 45.24, 114.18 44.4 C118.08 43.56, 121.5 42.81, 125.43 42.87 C129.37 42.92, 133.47 43.26, 137.78 44.72 C142.1 46.18, 147.27 48.92, 151.32 51.65 C155.37 54.39, 158.85 57.52, 162.08 61.12 C165.3 64.72, 169.92 71.56, 170.66 73.27 C171.41 74.97, 169.05 72.78, 166.54 71.33 C164.02 69.89, 159.49 66.42, 155.56 64.6 C151.63 62.77, 147.26 61.2, 142.95 60.38 C138.63 59.57, 134.4 59.04, 129.64 59.72 C124.89 60.41, 119.26 62.27, 114.43 64.49 C109.6 66.71, 105.41 70.56, 100.68 73.07 C95.94 75.57, 90.61 77.9, 86.02 79.52 C81.43 81.15, 77.75 82.34, 73.15 82.84 C68.54 83.33, 63.42 83.69, 58.4 82.49 C53.37 81.29, 47.57 78.52, 43 75.64 C38.43 72.76, 34.88 68.74, 30.98 65.22 C27.08 61.7, 23.42 57.19, 19.63 54.55 C15.83 51.91, 11.84 50.35, 8.19 49.37 C4.53 48.4, 1.13 48.21, -2.31 48.68 C-5.75 49.15, -9.88 51.01, -12.46 52.19 C-15.03 53.37, -16.88 55.15, -17.76 55.75" stroke="#FFFFFF" stroke-width="2" fill="none"></path></g></g><mask></mask><g stroke-linecap="round"><g transform="translate(425.59153651335794 409.2042531594418) rotate(0 37.944501464664654 71.94292878404818)"><path d="M0 0 C1.64 1.06, 6.15 3.06, 9.86 6.38 C13.57 9.69, 19.25 15.74, 22.25 19.89 C25.24 24.03, 26.24 26.94, 27.82 31.25 C29.39 35.56, 30.58 40.27, 31.71 45.74 C32.84 51.2, 33.59 59.45, 34.59 64.04 C35.6 68.64, 35.89 70.08, 37.72 73.3 C39.55 76.51, 42.62 80.58, 45.59 83.32 C48.57 86.06, 51.95 88.11, 55.56 89.74 C59.16 91.36, 63.23 91.99, 67.24 93.09 C71.25 94.19, 75.46 94.92, 79.62 96.33 C83.78 97.75, 88.22 99.13, 92.21 101.57 C96.19 104.02, 100.4 107.47, 103.53 111.01 C106.66 114.55, 109.1 118.64, 110.98 122.8 C112.86 126.96, 114.06 132.44, 114.8 135.95 C115.55 139.47, 115.95 143.62, 115.47 143.89 C114.99 144.15, 113.59 140.18, 111.94 137.53 C110.28 134.89, 108.54 131.15, 105.54 127.99 C102.54 124.84, 98.18 120.86, 93.96 118.61 C89.74 116.35, 85.52 115.25, 80.23 114.48 C74.93 113.7, 67.93 114.2, 62.17 113.96 C56.4 113.72, 50.74 113.88, 45.64 113.06 C40.54 112.23, 36.17 111.18, 31.58 109.02 C26.99 106.86, 22.16 103.9, 18.11 100.08 C14.06 96.26, 10.39 91.6, 7.28 86.11 C4.17 80.62, 1.85 72.29, -0.54 67.13 C-2.94 61.97, -4.5 58.62, -7.11 55.17 C-9.71 51.72, -12.61 48.63, -16.19 46.43 C-19.77 44.23, -24.69 42.65, -28.59 41.98 C-32.49 41.32, -37.75 42.36, -39.58 42.44 M0 0 C1.64 1.06, 6.15 3.06, 9.86 6.38 C13.57 9.69, 19.25 15.74, 22.25 19.89 C25.24 24.03, 26.24 26.94, 27.82 31.25 C29.39 35.56, 30.58 40.27, 31.71 45.74 C32.84 51.2, 33.59 59.45, 34.59 64.04 C35.6 68.64, 35.89 70.08, 37.72 73.3 C39.55 76.51, 42.62 80.58, 45.59 83.32 C48.57 86.06, 51.95 88.11, 55.56 89.74 C59.16 91.36, 63.23 91.99, 67.24 93.09 C71.25 94.19, 75.46 94.92, 79.62 96.33 C83.78 97.75, 88.22 99.13, 92.21 101.57 C96.19 104.02, 100.4 107.47, 103.53 111.01 C106.66 114.55, 109.1 118.64, 110.98 122.8 C112.86 126.96, 114.06 132.44, 114.8 135.95 C115.55 139.47, 115.95 143.62, 115.47 143.89 C114.99 144.15, 113.59 140.18, 111.94 137.53 C110.28 134.89, 108.54 131.15, 105.54 127.99 C102.54 124.84, 98.18 120.86, 93.96 118.61 C89.74 116.35, 85.52 115.25, 80.23 114.48 C74.93 113.7, 67.93 114.2, 62.17 113.96 C56.4 113.72, 50.74 113.88, 45.64 113.06 C40.54 112.23, 36.17 111.18, 31.58 109.02 C26.99 106.86, 22.16 103.9, 18.11 100.08 C14.06 96.26, 10.39 91.6, 7.28 86.11 C4.17 80.62, 1.85 72.29, -0.54 67.13 C-2.94 61.97, -4.5 58.62, -7.11 55.17 C-9.71 51.72, -12.61 48.63, -16.19 46.43 C-19.77 44.23, -24.69 42.65, -28.59 41.98 C-32.49 41.32, -37.75 42.36, -39.58 42.44" stroke="#FFFFFF" stroke-width="2" fill="none"></path></g></g><mask></mask><g stroke-linecap="round"><g transform="translate(385.9694761221359 451.7914461251585) rotate(0 -162.17069837119314 41.14699288329476)"><path d="M0 0 C1.25 1.92, 5.32 7.1, 7.49 11.54 C9.66 15.97, 11.82 21.7, 13.03 26.62 C14.24 31.54, 14.8 35.32, 14.74 41.04 C14.69 46.75, 13.71 55.44, 12.7 60.91 C11.68 66.38, 9.53 69.76, 8.63 73.86 C7.73 77.97, 7 81.27, 7.31 85.56 C7.62 89.84, 8.58 95.22, 10.47 99.56 C12.36 103.91, 15.3 107.64, 18.65 111.63 C22.01 115.61, 27.14 120.05, 30.61 123.47 C34.08 126.89, 36.66 128.64, 39.46 132.16 C42.27 135.69, 45.49 140.6, 47.44 144.64 C49.39 148.67, 50.5 151.82, 51.17 156.38 C51.84 160.94, 52 167.01, 51.45 172 C50.9 176.98, 48.77 183.54, 47.86 186.31 C46.95 189.07, 46.33 189.46, 46.01 188.57 C45.69 187.69, 46.2 184.27, 45.93 181 C45.67 177.73, 45.8 173.49, 44.42 168.96 C43.05 164.43, 40.43 158.02, 37.68 153.81 C34.94 149.61, 31.85 146.97, 27.96 143.72 C24.07 140.46, 18.67 137.08, 14.33 134.28 C9.99 131.47, 5.8 129.54, 1.92 126.89 C-1.95 124.24, -5.5 121.79, -8.9 118.37 C-12.31 114.94, -16.12 110.41, -18.53 106.33 C-20.93 102.26, -22.25 98.12, -23.34 93.91 C-24.43 89.69, -24.8 86.4, -25.06 81.03 C-25.33 75.66, -24.94 66.94, -24.93 61.66 C-24.92 56.39, -24.41 53.4, -25 49.38 C-25.59 45.37, -26.51 41.36, -28.45 37.55 C-30.4 33.74, -33.79 29.38, -36.65 26.52 C-39.5 23.66, -42.96 21.8, -45.59 20.39 C-48.21 18.98, -51.36 17.63, -52.39 18.06 C-53.43 18.49, -52.11 20.48, -51.81 22.97 C-51.5 25.47, -50.57 29.12, -50.57 33.02 C-50.57 36.92, -50.79 42.11, -51.83 46.4 C-52.87 50.68, -54.57 54.58, -56.8 58.74 C-59.02 62.9, -62.04 67.1, -65.18 71.38 C-68.31 75.66, -73.02 80.68, -75.59 84.42 C-78.16 88.16, -79.43 90.37, -80.59 93.84 C-81.75 97.31, -82.77 100.63, -82.56 105.24 C-82.36 109.85, -81.15 116.21, -79.37 121.49 C-77.58 126.77, -73.93 132.08, -71.85 136.92 C-69.78 141.76, -68.12 146.15, -66.92 150.55 C-65.73 154.95, -64.85 158.62, -64.67 163.34 C-64.48 168.05, -64.83 174.11, -65.83 178.84 C-66.83 183.57, -68.41 187.42, -70.68 191.72 C-72.95 196.02, -77.52 202.14, -79.47 204.64 C-81.42 207.15, -82.39 207.91, -82.39 206.75 C-82.4 205.58, -80.43 200.75, -79.49 197.65 C-78.55 194.56, -77.32 191.93, -76.76 188.18 C-76.2 184.43, -75.73 179.39, -76.14 175.17 C-76.54 170.94, -77.6 166.93, -79.19 162.81 C-80.78 158.7, -83 154.59, -85.66 150.47 C-88.33 146.35, -92.26 141.98, -95.17 138.1 C-98.07 134.22, -100.75 130.72, -103.11 127.18 C-105.47 123.64, -107.74 120.67, -109.32 116.87 C-110.9 113.07, -111.99 108.61, -112.61 104.38 C-113.24 100.16, -113.41 95.69, -113.05 91.52 C-112.69 87.35, -112.07 83.88, -110.45 79.39 C-108.83 74.89, -105.5 69, -103.34 64.56 C-101.19 60.11, -98.9 56.33, -97.53 52.72 C-96.16 49.12, -95.39 46.95, -95.1 42.94 C-94.81 38.92, -94.98 32.39, -95.78 28.63 C-96.58 24.88, -97.91 23.14, -99.91 20.4 C-101.91 17.66, -106.25 12.73, -107.79 12.21 C-109.33 11.68, -108.18 14.44, -109.15 17.23 C-110.12 20.02, -111.84 25.41, -113.61 28.95 C-115.38 32.48, -117.52 35.52, -119.77 38.44 C-122.03 41.36, -124.21 43.91, -127.13 46.47 C-130.05 49.04, -133.04 51.42, -137.31 53.81 C-141.58 56.2, -148.47 58.6, -152.74 60.8 C-157.02 62.99, -159.98 64.53, -162.95 66.98 C-165.93 69.44, -168.47 71.97, -170.59 75.52 C-172.7 79.08, -174.69 83.17, -175.63 88.3 C-176.56 93.43, -176.22 101.14, -176.18 106.31 C-176.15 111.48, -175.28 114.08, -175.44 119.32 C-175.61 124.56, -175.66 131.86, -177.17 137.76 C-178.68 143.66, -181.26 149.8, -184.5 154.7 C-187.75 159.6, -192.57 163.93, -196.63 167.16 C-200.68 170.38, -206.05 172.66, -208.84 174.05 C-211.63 175.43, -213.64 176.28, -213.34 175.47 C-213.05 174.66, -209.3 171.66, -207.09 169.18 C-204.88 166.71, -202.33 164.26, -200.08 160.61 C-197.83 156.96, -194.92 152, -193.59 147.26 C-192.26 142.52, -191.86 137.36, -192.08 132.15 C-192.3 126.93, -193.76 121.31, -194.9 115.99 C-196.04 110.68, -197.99 105.09, -198.92 100.25 C-199.85 95.41, -200.23 91.71, -200.47 86.95 C-200.71 82.19, -200.89 76.26, -200.37 71.69 C-199.86 67.13, -198.9 63.53, -197.39 59.57 C-195.87 55.6, -193.84 51.42, -191.26 47.9 C-188.68 44.38, -185.94 41.93, -181.89 38.43 C-177.84 34.93, -171.01 30.52, -166.96 26.89 C-162.91 23.27, -159.89 20.31, -157.58 16.68 C-155.28 13.06, -153.95 9.09, -153.12 5.15 C-152.29 1.21, -152.02 -3.19, -152.58 -6.96 C-153.14 -10.73, -155.24 -16.36, -156.47 -17.47 C-157.7 -18.59, -157.76 -15.77, -159.96 -13.64 C-162.15 -11.5, -166.56 -7.11, -169.65 -4.65 C-172.74 -2.19, -175.15 -0.53, -178.52 1.13 C-181.88 2.79, -185.18 4.57, -189.83 5.33 C-194.48 6.09, -200.94 5.82, -206.41 5.71 C-211.87 5.59, -217.45 4.5, -222.63 4.64 C-227.8 4.77, -233.31 5.02, -237.48 6.51 C-241.64 8, -244.69 10.1, -247.6 13.58 C-250.52 17.06, -252.58 22.16, -254.96 27.42 C-257.34 32.67, -259.45 40.02, -261.89 45.11 C-264.32 50.21, -266.7 54.24, -269.57 57.97 C-272.44 61.7, -275.35 64.67, -279.09 67.51 C-282.83 70.34, -287.58 73.23, -292 74.97 C-296.43 76.71, -301.32 77.5, -305.64 77.94 C-309.96 78.39, -317.31 78.28, -317.93 77.65 C-318.55 77.02, -312.72 75.9, -309.34 74.17 C-305.96 72.43, -301.26 69.97, -297.67 67.22 C-294.08 64.47, -290.37 61.33, -287.82 57.66 C-285.26 53.99, -284.01 50.77, -282.32 45.19 C-280.63 39.61, -279 30.67, -277.67 24.17 C-276.34 17.67, -276.03 11.75, -274.33 6.2 C-272.64 0.65, -270.25 -4.73, -267.48 -9.11 C-264.71 -13.49, -261.76 -16.88, -257.7 -20.07 C-253.65 -23.26, -248.53 -26.27, -243.18 -28.25 C-237.83 -30.24, -230.66 -31.08, -225.58 -31.97 C-220.5 -32.87, -216.94 -32.25, -212.68 -33.63 C-208.42 -35.02, -203.44 -37.85, -200.03 -40.3 C-196.62 -42.75, -194.3 -45.15, -192.22 -48.31 C-190.14 -51.47, -188.42 -56.06, -187.56 -59.26 C-186.69 -62.46, -186.52 -66.5, -187.04 -67.53 C-187.56 -68.56, -188.2 -66.53, -190.66 -65.45 C-193.13 -64.37, -197.36 -62.05, -201.83 -61.05 C-206.3 -60.04, -212.62 -59.31, -217.5 -59.4 C-222.38 -59.5, -225.95 -59.96, -231.09 -61.62 C-236.22 -63.28, -242.65 -66.07, -248.31 -69.37 C-253.97 -72.66, -260.72 -78.7, -265.06 -81.37 C-269.4 -84.04, -271.13 -84.81, -274.36 -85.4 C-277.58 -85.99, -280.78 -86.09, -284.39 -84.91 C-288.01 -83.73, -292.06 -81.44, -296.06 -78.33 C-300.06 -75.23, -304.48 -69.88, -308.4 -66.29 C-312.32 -62.69, -315.64 -59.44, -319.57 -56.77 C-323.49 -54.11, -327.52 -51.92, -331.93 -50.28 C-336.34 -48.64, -341.25 -47.26, -346.01 -46.95 C-350.76 -46.63, -356.19 -47.33, -360.47 -48.4 C-364.75 -49.47, -369.14 -51.99, -371.69 -53.37 C-374.25 -54.75, -376.66 -56.17, -375.79 -56.65 C-374.92 -57.14, -370.41 -56.09, -366.5 -56.28 C-362.58 -56.46, -356.65 -56.8, -352.3 -57.76 C-347.94 -58.71, -344.13 -59.73, -340.38 -62 C-336.63 -64.27, -333.04 -67.75, -329.82 -71.4 C-326.59 -75.05, -323.76 -79.68, -321.01 -83.89 C-318.27 -88.1, -316.42 -92.52, -313.34 -96.66 C-310.27 -100.81, -306.6 -105.37, -302.56 -108.78 C-298.51 -112.19, -293.63 -115.27, -289.08 -117.14 C-284.54 -119.01, -280.13 -119.87, -275.28 -120.01 C-270.44 -120.14, -265.3 -119.48, -260.01 -117.93 C-254.73 -116.38, -248.56 -112.55, -243.59 -110.71 C-238.61 -108.86, -235.14 -107.2, -230.16 -106.85 C-225.18 -106.5, -218.4 -107.09, -213.72 -108.6 C-209.04 -110.11, -204.92 -113.35, -202.08 -115.9 C-199.24 -118.45, -197.02 -122.48, -196.7 -123.9 C-196.38 -125.33, -199.56 -124.36, -200.13 -124.45 M0 0 C1.25 1.92, 5.32 7.1, 7.49 11.54 C9.66 15.97, 11.82 21.7, 13.03 26.62 C14.24 31.54, 14.8 35.32, 14.74 41.04 C14.69 46.75, 13.71 55.44, 12.7 60.91 C11.68 66.38, 9.53 69.76, 8.63 73.86 C7.73 77.97, 7 81.27, 7.31 85.56 C7.62 89.84, 8.58 95.22, 10.47 99.56 C12.36 103.91, 15.3 107.64, 18.65 111.63 C22.01 115.61, 27.14 120.05, 30.61 123.47 C34.08 126.89, 36.66 128.64, 39.46 132.16 C42.27 135.69, 45.49 140.6, 47.44 144.64 C49.39 148.67, 50.5 151.82, 51.17 156.38 C51.84 160.94, 52 167.01, 51.45 172 C50.9 176.98, 48.77 183.54, 47.86 186.31 C46.95 189.07, 46.33 189.46, 46.01 188.57 C45.69 187.69, 46.2 184.27, 45.93 181 C45.67 177.73, 45.8 173.49, 44.42 168.96 C43.05 164.43, 40.43 158.02, 37.68 153.81 C34.94 149.61, 31.85 146.97, 27.96 143.72 C24.07 140.46, 18.67 137.08, 14.33 134.28 C9.99 131.47, 5.8 129.54, 1.92 126.89 C-1.95 124.24, -5.5 121.79, -8.9 118.37 C-12.31 114.94, -16.12 110.41, -18.53 106.33 C-20.93 102.26, -22.25 98.12, -23.34 93.91 C-24.43 89.69, -24.8 86.4, -25.06 81.03 C-25.33 75.66, -24.94 66.94, -24.93 61.66 C-24.92 56.39, -24.41 53.4, -25 49.38 C-25.59 45.37, -26.51 41.36, -28.45 37.55 C-30.4 33.74, -33.79 29.38, -36.65 26.52 C-39.5 23.66, -42.96 21.8, -45.59 20.39 C-48.21 18.98, -51.36 17.63, -52.39 18.06 C-53.43 18.49, -52.11 20.48, -51.81 22.97 C-51.5 25.47, -50.57 29.12, -50.57 33.02 C-50.57 36.92, -50.79 42.11, -51.83 46.4 C-52.87 50.68, -54.57 54.58, -56.8 58.74 C-59.02 62.9, -62.04 67.1, -65.18 71.38 C-68.31 75.66, -73.02 80.68, -75.59 84.42 C-78.16 88.16, -79.43 90.37, -80.59 93.84 C-81.75 97.31, -82.77 100.63, -82.56 105.24 C-82.36 109.85, -81.15 116.21, -79.37 121.49 C-77.58 126.77, -73.93 132.08, -71.85 136.92 C-69.78 141.76, -68.12 146.15, -66.92 150.55 C-65.73 154.95, -64.85 158.62, -64.67 163.34 C-64.48 168.05, -64.83 174.11, -65.83 178.84 C-66.83 183.57, -68.41 187.42, -70.68 191.72 C-72.95 196.02, -77.52 202.14, -79.47 204.64 C-81.42 207.15, -82.39 207.91, -82.39 206.75 C-82.4 205.58, -80.43 200.75, -79.49 197.65 C-78.55 194.56, -77.32 191.93, -76.76 188.18 C-76.2 184.43, -75.73 179.39, -76.14 175.17 C-76.54 170.94, -77.6 166.93, -79.19 162.81 C-80.78 158.7, -83 154.59, -85.66 150.47 C-88.33 146.35, -92.26 141.98, -95.17 138.1 C-98.07 134.22, -100.75 130.72, -103.11 127.18 C-105.47 123.64, -107.74 120.67, -109.32 116.87 C-110.9 113.07, -111.99 108.61, -112.61 104.38 C-113.24 100.16, -113.41 95.69, -113.05 91.52 C-112.69 87.35, -112.07 83.88, -110.45 79.39 C-108.83 74.89, -105.5 69, -103.34 64.56 C-101.19 60.11, -98.9 56.33, -97.53 52.72 C-96.16 49.12, -95.39 46.95, -95.1 42.94 C-94.81 38.92, -94.98 32.39, -95.78 28.63 C-96.58 24.88, -97.91 23.14, -99.91 20.4 C-101.91 17.66, -106.25 12.73, -107.79 12.21 C-109.33 11.68, -108.18 14.44, -109.15 17.23 C-110.12 20.02, -111.84 25.41, -113.61 28.95 C-115.38 32.48, -117.52 35.52, -119.77 38.44 C-122.03 41.36, -124.21 43.91, -127.13 46.47 C-130.05 49.04, -133.04 51.42, -137.31 53.81 C-141.58 56.2, -148.47 58.6, -152.74 60.8 C-157.02 62.99, -159.98 64.53, -162.95 66.98 C-165.93 69.44, -168.47 71.97, -170.59 75.52 C-172.7 79.08, -174.69 83.17, -175.63 88.3 C-176.56 93.43, -176.22 101.14, -176.18 106.31 C-176.15 111.48, -175.28 114.08, -175.44 119.32 C-175.61 124.56, -175.66 131.86, -177.17 137.76 C-178.68 143.66, -181.26 149.8, -184.5 154.7 C-187.75 159.6, -192.57 163.93, -196.63 167.16 C-200.68 170.38, -206.05 172.66, -208.84 174.05 C-211.63 175.43, -213.64 176.28, -213.34 175.47 C-213.05 174.66, -209.3 171.66, -207.09 169.18 C-204.88 166.71, -202.33 164.26, -200.08 160.61 C-197.83 156.96, -194.92 152, -193.59 147.26 C-192.26 142.52, -191.86 137.36, -192.08 132.15 C-192.3 126.93, -193.76 121.31, -194.9 115.99 C-196.04 110.68, -197.99 105.09, -198.92 100.25 C-199.85 95.41, -200.23 91.71, -200.47 86.95 C-200.71 82.19, -200.89 76.26, -200.37 71.69 C-199.86 67.13, -198.9 63.53, -197.39 59.57 C-195.87 55.6, -193.84 51.42, -191.26 47.9 C-188.68 44.38, -185.94 41.93, -181.89 38.43 C-177.84 34.93, -171.01 30.52, -166.96 26.89 C-162.91 23.27, -159.89 20.31, -157.58 16.68 C-155.28 13.06, -153.95 9.09, -153.12 5.15 C-152.29 1.21, -152.02 -3.19, -152.58 -6.96 C-153.14 -10.73, -155.24 -16.36, -156.47 -17.47 C-157.7 -18.59, -157.76 -15.77, -159.96 -13.64 C-162.15 -11.5, -166.56 -7.11, -169.65 -4.65 C-172.74 -2.19, -175.15 -0.53, -178.52 1.13 C-181.88 2.79, -185.18 4.57, -189.83 5.33 C-194.48 6.09, -200.94 5.82, -206.41 5.71 C-211.87 5.59, -217.45 4.5, -222.63 4.64 C-227.8 4.77, -233.31 5.02, -237.48 6.51 C-241.64 8, -244.69 10.1, -247.6 13.58 C-250.52 17.06, -252.58 22.16, -254.96 27.42 C-257.34 32.67, -259.45 40.02, -261.89 45.11 C-264.32 50.21, -266.7 54.24, -269.57 57.97 C-272.44 61.7, -275.35 64.67, -279.09 67.51 C-282.83 70.34, -287.58 73.23, -292 74.97 C-296.43 76.71, -301.32 77.5, -305.64 77.94 C-309.96 78.39, -317.31 78.28, -317.93 77.65 C-318.55 77.02, -312.72 75.9, -309.34 74.17 C-305.96 72.43, -301.26 69.97, -297.67 67.22 C-294.08 64.47, -290.37 61.33, -287.82 57.66 C-285.26 53.99, -284.01 50.77, -282.32 45.19 C-280.63 39.61, -279 30.67, -277.67 24.17 C-276.34 17.67, -276.03 11.75, -274.33 6.2 C-272.64 0.65, -270.25 -4.73, -267.48 -9.11 C-264.71 -13.49, -261.76 -16.88, -257.7 -20.07 C-253.65 -23.26, -248.53 -26.27, -243.18 -28.25 C-237.83 -30.24, -230.66 -31.08, -225.58 -31.97 C-220.5 -32.87, -216.94 -32.25, -212.68 -33.63 C-208.42 -35.02, -203.44 -37.85, -200.03 -40.3 C-196.62 -42.75, -194.3 -45.15, -192.22 -48.31 C-190.14 -51.47, -188.42 -56.06, -187.56 -59.26 C-186.69 -62.46, -186.52 -66.5, -187.04 -67.53 C-187.56 -68.56, -188.2 -66.53, -190.66 -65.45 C-193.13 -64.37, -197.36 -62.05, -201.83 -61.05 C-206.3 -60.04, -212.62 -59.31, -217.5 -59.4 C-222.38 -59.5, -225.95 -59.96, -231.09 -61.62 C-236.22 -63.28, -242.65 -66.07, -248.31 -69.37 C-253.97 -72.66, -260.72 -78.7, -265.06 -81.37 C-269.4 -84.04, -271.13 -84.81, -274.36 -85.4 C-277.58 -85.99, -280.78 -86.09, -284.39 -84.91 C-288.01 -83.73, -292.06 -81.44, -296.06 -78.33 C-300.06 -75.23, -304.48 -69.88, -308.4 -66.29 C-312.32 -62.69, -315.64 -59.44, -319.57 -56.77 C-323.49 -54.11, -327.52 -51.92, -331.93 -50.28 C-336.34 -48.64, -341.25 -47.26, -346.01 -46.95 C-350.76 -46.63, -356.19 -47.33, -360.47 -48.4 C-364.75 -49.47, -369.14 -51.99, -371.69 -53.37 C-374.25 -54.75, -376.66 -56.17, -375.79 -56.65 C-374.92 -57.14, -370.41 -56.09, -366.5 -56.28 C-362.58 -56.46, -356.65 -56.8, -352.3 -57.76 C-347.94 -58.71, -344.13 -59.73, -340.38 -62 C-336.63 -64.27, -333.04 -67.75, -329.82 -71.4 C-326.59 -75.05, -323.76 -79.68, -321.01 -83.89 C-318.27 -88.1, -316.42 -92.52, -313.34 -96.66 C-310.27 -100.81, -306.6 -105.37, -302.56 -108.78 C-298.51 -112.19, -293.63 -115.27, -289.08 -117.14 C-284.54 -119.01, -280.13 -119.87, -275.28 -120.01 C-270.44 -120.14, -265.3 -119.48, -260.01 -117.93 C-254.73 -116.38, -248.56 -112.55, -243.59 -110.71 C-238.61 -108.86, -235.14 -107.2, -230.16 -106.85 C-225.18 -106.5, -218.4 -107.09, -213.72 -108.6 C-209.04 -110.11, -204.92 -113.35, -202.08 -115.9 C-199.24 -118.45, -197.02 -122.48, -196.7 -123.9 C-196.38 -125.33, -199.56 -124.36, -200.13 -124.45" stroke="#FFFFFF" stroke-width="2" fill="none"></path></g></g><mask></mask><g stroke-linecap="round"><g transform="translate(185.89130943182798 327.40441162687205) rotate(0 -27.68653298162974 -150.17964710815343)"><path d="M0 0 C-1.73 -0.22, -6.15 -0.31, -10.39 -1.32 C-14.64 -2.33, -20.83 -3.69, -25.49 -6.06 C-30.14 -8.43, -34.42 -11.73, -38.35 -15.54 C-42.28 -19.34, -45.74 -23.99, -49.07 -28.89 C-52.4 -33.79, -55.74 -40.65, -58.32 -44.94 C-60.89 -49.22, -61.88 -52.01, -64.51 -54.6 C-67.13 -57.19, -70.72 -59.33, -74.08 -60.48 C-77.43 -61.62, -80.7 -61.67, -84.63 -61.47 C-88.55 -61.27, -93.52 -60.3, -97.63 -59.27 C-101.74 -58.24, -105.53 -56.38, -109.28 -55.28 C-113.03 -54.18, -116.08 -53.02, -120.12 -52.67 C-124.17 -52.31, -128.75 -52.07, -133.55 -53.15 C-138.36 -54.23, -144.64 -56.75, -148.96 -59.15 C-153.27 -61.55, -156.46 -64.57, -159.43 -67.56 C-162.41 -70.55, -165.14 -74.28, -166.81 -77.07 C-168.47 -79.86, -169.89 -83.96, -169.41 -84.31 C-168.92 -84.66, -166.08 -80.96, -163.88 -79.18 C-161.68 -77.39, -159.51 -75.23, -156.21 -73.59 C-152.91 -71.95, -148.34 -70.2, -144.09 -69.34 C-139.83 -68.47, -135.33 -67.77, -130.69 -68.4 C-126.05 -69.03, -120.95 -71, -116.24 -73.11 C-111.52 -75.22, -106.41 -78.82, -102.41 -81.05 C-98.41 -83.29, -95.87 -84.92, -92.23 -86.52 C-88.58 -88.11, -84.9 -89.79, -80.54 -90.62 C-76.17 -91.44, -70.37 -91.87, -66.06 -91.47 C-61.75 -91.07, -58.42 -89.95, -54.65 -88.24 C-50.89 -86.52, -47.3 -84.36, -43.46 -81.17 C-39.61 -77.97, -34.53 -72.26, -31.57 -69.06 C-28.61 -65.86, -28.26 -64.55, -25.68 -61.97 C-23.11 -59.4, -19.63 -55.68, -16.12 -53.6 C-12.61 -51.52, -8.74 -50.13, -4.63 -49.52 C-0.52 -48.91, 4.91 -49.36, 8.55 -49.93 C12.18 -50.51, 14.99 -51.69, 17.19 -52.97 C19.38 -54.26, 21.61 -56.52, 21.73 -57.65 C21.84 -58.79, 19.87 -58.76, 17.89 -59.78 C15.92 -60.79, 12.74 -62.06, 9.88 -63.73 C7.01 -65.41, 3.46 -67.38, 0.73 -69.84 C-2.01 -72.31, -4.29 -75.04, -6.52 -78.54 C-8.76 -82.03, -11.08 -85.71, -12.68 -90.82 C-14.28 -95.93, -15.43 -103.75, -16.13 -109.2 C-16.82 -114.65, -16.42 -119.62, -16.85 -123.5 C-17.28 -127.38, -17.35 -129.17, -18.72 -132.48 C-20.09 -135.8, -22.2 -140.36, -25.09 -143.4 C-27.98 -146.44, -31.96 -148.95, -36.05 -150.73 C-40.13 -152.52, -44.7 -153.27, -49.61 -154.1 C-54.51 -154.94, -60.4 -154.72, -65.49 -155.74 C-70.57 -156.76, -75.48 -157.92, -80.11 -160.22 C-84.74 -162.53, -89.55 -165.75, -93.28 -169.56 C-97.01 -173.38, -100.29 -178.36, -102.47 -183.12 C-104.66 -187.88, -105.74 -194.4, -106.4 -198.13 C-107.05 -201.86, -106.88 -205.46, -106.4 -205.5 C-105.92 -205.55, -104.93 -200.95, -103.52 -198.4 C-102.12 -195.84, -100.14 -192.75, -97.94 -190.17 C-95.75 -187.58, -93.31 -184.87, -90.37 -182.89 C-87.42 -180.91, -83.91 -179.44, -80.25 -178.26 C-76.6 -177.09, -73.69 -176.15, -68.42 -175.85 C-63.15 -175.54, -54.13 -176.25, -48.65 -176.46 C-43.17 -176.67, -39.98 -177.35, -35.55 -177.09 C-31.11 -176.83, -26.56 -176.36, -22.06 -174.91 C-17.55 -173.46, -12.65 -171.11, -8.52 -168.41 C-4.39 -165.71, -0.35 -162.71, 2.73 -158.72 C5.81 -154.72, 7.96 -149.21, 9.98 -144.43 C11.99 -139.65, 13.08 -134.72, 14.82 -130.03 C16.55 -125.34, 18.13 -120.12, 20.38 -116.28 C22.63 -112.45, 25 -109.43, 28.32 -107 C31.64 -104.57, 36.17 -102.65, 40.3 -101.68 C44.43 -100.7, 50.12 -100.99, 53.08 -101.17 C56.05 -101.35, 57.46 -101.95, 58.07 -102.78 C58.68 -103.62, 57.81 -104.08, 56.74 -106.18 C55.67 -108.27, 53.21 -112.09, 51.64 -115.36 C50.06 -118.62, 48.48 -121.69, 47.29 -125.75 C46.09 -129.81, 44.89 -134.99, 44.47 -139.71 C44.06 -144.43, 44.15 -149.17, 44.8 -154.07 C45.44 -158.96, 47.08 -164.52, 48.36 -169.11 C49.63 -173.69, 51.59 -177.49, 52.46 -181.6 C53.34 -185.71, 53.95 -189.64, 53.6 -193.78 C53.25 -197.92, 52.34 -202.2, 50.36 -206.43 C48.38 -210.66, 45.47 -215.25, 41.7 -219.16 C37.92 -223.08, 32.48 -226.53, 27.74 -229.92 C23 -233.32, 17.55 -236.31, 13.28 -239.53 C9.01 -242.75, 5.07 -245.76, 2.12 -249.25 C-0.82 -252.73, -2.72 -256.38, -4.41 -260.44 C-6.1 -264.51, -7.51 -268.8, -8.02 -273.63 C-8.52 -278.47, -8.09 -285.01, -7.43 -289.46 C-6.78 -293.92, -4.78 -300.73, -4.08 -300.36 C-3.39 -299.99, -4.05 -291.75, -3.28 -287.25 C-2.51 -282.75, -1.63 -277.59, 0.54 -273.38 C2.71 -269.17, 5.58 -265.63, 9.75 -262.01 C13.92 -258.38, 19.45 -254.81, 25.57 -251.62 C31.69 -248.44, 40.32 -245.93, 46.46 -242.88 C52.6 -239.82, 57.87 -236.74, 62.41 -233.31 C66.94 -229.88, 70.42 -226.55, 73.69 -222.28 C76.95 -218.02, 80.09 -212.26, 82 -207.72 C83.9 -203.17, 84.58 -200.27, 85.13 -195.02 C85.67 -189.77, 85.49 -182.61, 85.27 -176.22 C85.05 -169.83, 83.56 -162.4, 83.8 -156.68 C84.04 -150.96, 84.51 -146.62, 86.72 -141.88 C88.93 -137.15, 93.46 -131.62, 97.06 -128.28 C100.65 -124.94, 105.45 -123.09, 108.28 -121.85 C111.11 -120.61, 113.07 -121, 114.03 -120.84 M0 0 C-1.73 -0.22, -6.15 -0.31, -10.39 -1.32 C-14.64 -2.33, -20.83 -3.69, -25.49 -6.06 C-30.14 -8.43, -34.42 -11.73, -38.35 -15.54 C-42.28 -19.34, -45.74 -23.99, -49.07 -28.89 C-52.4 -33.79, -55.74 -40.65, -58.32 -44.94 C-60.89 -49.22, -61.88 -52.01, -64.51 -54.6 C-67.13 -57.19, -70.72 -59.33, -74.08 -60.48 C-77.43 -61.62, -80.7 -61.67, -84.63 -61.47 C-88.55 -61.27, -93.52 -60.3, -97.63 -59.27 C-101.74 -58.24, -105.53 -56.38, -109.28 -55.28 C-113.03 -54.18, -116.08 -53.02, -120.12 -52.67 C-124.17 -52.31, -128.75 -52.07, -133.55 -53.15 C-138.36 -54.23, -144.64 -56.75, -148.96 -59.15 C-153.27 -61.55, -156.46 -64.57, -159.43 -67.56 C-162.41 -70.55, -165.14 -74.28, -166.81 -77.07 C-168.47 -79.86, -169.89 -83.96, -169.41 -84.31 C-168.92 -84.66, -166.08 -80.96, -163.88 -79.18 C-161.68 -77.39, -159.51 -75.23, -156.21 -73.59 C-152.91 -71.95, -148.34 -70.2, -144.09 -69.34 C-139.83 -68.47, -135.33 -67.77, -130.69 -68.4 C-126.05 -69.03, -120.95 -71, -116.24 -73.11 C-111.52 -75.22, -106.41 -78.82, -102.41 -81.05 C-98.41 -83.29, -95.87 -84.92, -92.23 -86.52 C-88.58 -88.11, -84.9 -89.79, -80.54 -90.62 C-76.17 -91.44, -70.37 -91.87, -66.06 -91.47 C-61.75 -91.07, -58.42 -89.95, -54.65 -88.24 C-50.89 -86.52, -47.3 -84.36, -43.46 -81.17 C-39.61 -77.97, -34.53 -72.26, -31.57 -69.06 C-28.61 -65.86, -28.26 -64.55, -25.68 -61.97 C-23.11 -59.4, -19.63 -55.68, -16.12 -53.6 C-12.61 -51.52, -8.74 -50.13, -4.63 -49.52 C-0.52 -48.91, 4.91 -49.36, 8.55 -49.93 C12.18 -50.51, 14.99 -51.69, 17.19 -52.97 C19.38 -54.26, 21.61 -56.52, 21.73 -57.65 C21.84 -58.79, 19.87 -58.76, 17.89 -59.78 C15.92 -60.79, 12.74 -62.06, 9.88 -63.73 C7.01 -65.41, 3.46 -67.38, 0.73 -69.84 C-2.01 -72.31, -4.29 -75.04, -6.52 -78.54 C-8.76 -82.03, -11.08 -85.71, -12.68 -90.82 C-14.28 -95.93, -15.43 -103.75, -16.13 -109.2 C-16.82 -114.65, -16.42 -119.62, -16.85 -123.5 C-17.28 -127.38, -17.35 -129.17, -18.72 -132.48 C-20.09 -135.8, -22.2 -140.36, -25.09 -143.4 C-27.98 -146.44, -31.96 -148.95, -36.05 -150.73 C-40.13 -152.52, -44.7 -153.27, -49.61 -154.1 C-54.51 -154.94, -60.4 -154.72, -65.49 -155.74 C-70.57 -156.76, -75.48 -157.92, -80.11 -160.22 C-84.74 -162.53, -89.55 -165.75, -93.28 -169.56 C-97.01 -173.38, -100.29 -178.36, -102.47 -183.12 C-104.66 -187.88, -105.74 -194.4, -106.4 -198.13 C-107.05 -201.86, -106.88 -205.46, -106.4 -205.5 C-105.92 -205.55, -104.93 -200.95, -103.52 -198.4 C-102.12 -195.84, -100.14 -192.75, -97.94 -190.17 C-95.75 -187.58, -93.31 -184.87, -90.37 -182.89 C-87.42 -180.91, -83.91 -179.44, -80.25 -178.26 C-76.6 -177.09, -73.69 -176.15, -68.42 -175.85 C-63.15 -175.54, -54.13 -176.25, -48.65 -176.46 C-43.17 -176.67, -39.98 -177.35, -35.55 -177.09 C-31.11 -176.83, -26.56 -176.36, -22.06 -174.91 C-17.55 -173.46, -12.65 -171.11, -8.52 -168.41 C-4.39 -165.71, -0.35 -162.71, 2.73 -158.72 C5.81 -154.72, 7.96 -149.21, 9.98 -144.43 C11.99 -139.65, 13.08 -134.72, 14.82 -130.03 C16.55 -125.34, 18.13 -120.12, 20.38 -116.28 C22.63 -112.45, 25 -109.43, 28.32 -107 C31.64 -104.57, 36.17 -102.65, 40.3 -101.68 C44.43 -100.7, 50.12 -100.99, 53.08 -101.17 C56.05 -101.35, 57.46 -101.95, 58.07 -102.78 C58.68 -103.62, 57.81 -104.08, 56.74 -106.18 C55.67 -108.27, 53.21 -112.09, 51.64 -115.36 C50.06 -118.62, 48.48 -121.69, 47.29 -125.75 C46.09 -129.81, 44.89 -134.99, 44.47 -139.71 C44.06 -144.43, 44.15 -149.17, 44.8 -154.07 C45.44 -158.96, 47.08 -164.52, 48.36 -169.11 C49.63 -173.69, 51.59 -177.49, 52.46 -181.6 C53.34 -185.71, 53.95 -189.64, 53.6 -193.78 C53.25 -197.92, 52.34 -202.2, 50.36 -206.43 C48.38 -210.66, 45.47 -215.25, 41.7 -219.16 C37.92 -223.08, 32.48 -226.53, 27.74 -229.92 C23 -233.32, 17.55 -236.31, 13.28 -239.53 C9.01 -242.75, 5.07 -245.76, 2.12 -249.25 C-0.82 -252.73, -2.72 -256.38, -4.41 -260.44 C-6.1 -264.51, -7.51 -268.8, -8.02 -273.63 C-8.52 -278.47, -8.09 -285.01, -7.43 -289.46 C-6.78 -293.92, -4.78 -300.73, -4.08 -300.36 C-3.39 -299.99, -4.05 -291.75, -3.28 -287.25 C-2.51 -282.75, -1.63 -277.59, 0.54 -273.38 C2.71 -269.17, 5.58 -265.63, 9.75 -262.01 C13.92 -258.38, 19.45 -254.81, 25.57 -251.62 C31.69 -248.44, 40.32 -245.93, 46.46 -242.88 C52.6 -239.82, 57.87 -236.74, 62.41 -233.31 C66.94 -229.88, 70.42 -226.55, 73.69 -222.28 C76.95 -218.02, 80.09 -212.26, 82 -207.72 C83.9 -203.17, 84.58 -200.27, 85.13 -195.02 C85.67 -189.77, 85.49 -182.61, 85.27 -176.22 C85.05 -169.83, 83.56 -162.4, 83.8 -156.68 C84.04 -150.96, 84.51 -146.62, 86.72 -141.88 C88.93 -137.15, 93.46 -131.62, 97.06 -128.28 C100.65 -124.94, 105.45 -123.09, 108.28 -121.85 C111.11 -120.61, 113.07 -121, 114.03 -120.84" stroke="#FFFFFF" stroke-width="2" fill="none"></path></g></g><mask></mask><g stroke-linecap="round" transform="translate(212.69289383786506 226.35748797503766) rotate(0 105.96680557447917 110.84377056897276)"><path d="M211.93 110.84 C211.93 114.25, 211.78 117.68, 211.48 121.07 C211.18 124.47, 210.73 127.86, 210.13 131.21 C209.53 134.56, 208.78 137.9, 207.89 141.18 C207 144.46, 205.96 147.71, 204.78 150.89 C203.6 154.06, 202.28 157.2, 200.82 160.25 C199.37 163.3, 197.78 166.3, 196.06 169.2 C194.35 172.09, 192.49 174.92, 190.53 177.64 C188.57 180.36, 186.47 183, 184.28 185.52 C182.08 188.04, 179.76 190.46, 177.36 192.76 C174.95 195.06, 172.43 197.24, 169.83 199.3 C167.23 201.35, 164.52 203.29, 161.75 205.09 C158.98 206.88, 156.12 208.55, 153.2 210.07 C150.28 211.59, 147.29 212.97, 144.25 214.2 C141.21 215.43, 138.1 216.52, 134.97 217.46 C131.83 218.39, 128.64 219.17, 125.44 219.8 C122.23 220.43, 118.99 220.9, 115.74 221.21 C112.5 221.53, 109.23 221.69, 105.97 221.69 C102.71 221.69, 99.43 221.53, 96.19 221.21 C92.94 220.9, 89.7 220.43, 86.5 219.8 C83.29 219.17, 80.1 218.39, 76.97 217.46 C73.83 216.52, 70.73 215.43, 67.69 214.2 C64.65 212.97, 61.65 211.59, 58.73 210.07 C55.82 208.55, 52.95 206.88, 50.18 205.09 C47.41 203.29, 44.71 201.35, 42.11 199.3 C39.51 197.24, 36.99 195.06, 34.58 192.76 C32.17 190.46, 29.85 188.04, 27.66 185.52 C25.46 183, 23.37 180.36, 21.4 177.64 C19.44 174.92, 17.59 172.09, 15.87 169.2 C14.16 166.3, 12.56 163.3, 11.11 160.25 C9.66 157.2, 8.33 154.06, 7.16 150.89 C5.98 147.71, 4.94 144.46, 4.05 141.18 C3.15 137.9, 2.4 134.56, 1.8 131.21 C1.21 127.86, 0.75 124.47, 0.45 121.07 C0.15 117.68, 0 114.25, 0 110.84 C0 107.43, 0.15 104.01, 0.45 100.62 C0.75 97.22, 1.21 93.83, 1.8 90.48 C2.4 87.13, 3.15 83.79, 4.05 80.51 C4.94 77.23, 5.98 73.98, 7.16 70.8 C8.33 67.62, 9.66 64.49, 11.11 61.44 C12.56 58.38, 14.16 55.39, 15.87 52.49 C17.59 49.59, 19.44 46.77, 21.4 44.05 C23.37 41.32, 25.46 38.69, 27.66 36.17 C29.85 33.65, 32.17 31.23, 34.58 28.93 C36.99 26.63, 39.51 24.44, 42.11 22.39 C44.71 20.33, 47.41 18.4, 50.18 16.6 C52.95 14.81, 55.82 13.14, 58.73 11.62 C61.65 10.1, 64.65 8.72, 67.69 7.49 C70.73 6.25, 73.83 5.16, 76.97 4.23 C80.1 3.3, 83.29 2.51, 86.5 1.89 C89.7 1.26, 92.94 0.79, 96.19 0.47 C99.43 0.16, 102.71 0, 105.97 0 C109.23 0, 112.5 0.16, 115.74 0.47 C118.99 0.79, 122.23 1.26, 125.44 1.89 C128.64 2.51, 131.83 3.3, 134.97 4.23 C138.1 5.16, 141.21 6.25, 144.25 7.49 C147.29 8.72, 150.28 10.1, 153.2 11.62 C156.12 13.14, 158.98 14.81, 161.75 16.6 C164.52 18.4, 167.23 20.33, 169.83 22.39 C172.43 24.44, 174.95 26.63, 177.36 28.93 C179.76 31.23, 182.08 33.65, 184.28 36.17 C186.47 38.69, 188.57 41.32, 190.53 44.05 C192.49 46.77, 194.35 49.59, 196.06 52.49 C197.78 55.39, 199.37 58.38, 200.82 61.44 C202.28 64.49, 203.6 67.62, 204.78 70.8 C205.96 73.98, 207 77.23, 207.89 80.51 C208.78 83.79, 209.53 87.13, 210.13 90.48 C210.73 93.83, 211.18 97.22, 211.48 100.62 C211.78 104.01, 211.86 109.14, 211.93 110.84 C212.01 112.55, 212.01 109.14, 211.93 110.84" stroke="#FFFFFF" stroke-width="2" fill="none"></path></g></svg>