<svg version="1.1" xmlns="http://www.w3.org/2000/svg" viewBox="0 0 553.2857119230011 496.2639276444197" width="553.2857119230011" height="496.2639276444197" class="excalidraw-svg"><!-- svg-source:excalidraw --><metadata></metadata><defs><style class="style-fonts">
      </style></defs><rect x="0" y="0" width="553.2857119230011" height="496.2639276444197" fill="#000000"></rect><g stroke-linecap="round"><g transform="translate(145.02617973685574 245.5221312165225) rotate(0 198.99962121910994 -32.675733434070764)"><path d="M0 0 C3.75 -0.2, 14.63 0.95, 22.48 -1.18 C30.33 -3.32, 41.19 -9.38, 47.08 -12.83 C52.98 -16.27, 54.48 -18.78, 57.88 -21.85 C61.27 -24.92, 61.67 -26.25, 67.46 -31.25 C73.26 -36.26, 82 -43.61, 92.66 -51.87 C103.33 -60.13, 116.91 -70.81, 131.45 -80.8 C145.99 -90.79, 167.63 -102.86, 179.9 -111.81 C192.18 -120.77, 199.21 -126.94, 205.12 -134.52 C211.02 -142.09, 213.05 -150.4, 215.35 -157.25 C217.65 -164.09, 218.39 -168.77, 218.93 -175.57 C219.47 -182.38, 217.93 -191.68, 218.61 -198.08 C219.29 -204.48, 220.88 -209.18, 223.02 -213.97 C225.17 -218.76, 228.33 -223.37, 231.5 -226.83 C234.68 -230.29, 237.82 -233.48, 242.08 -234.73 C246.34 -235.99, 252.17 -235.66, 257.05 -234.36 C261.93 -233.06, 267.17 -230.8, 271.35 -226.95 C275.52 -223.1, 279.37 -217.8, 282.09 -211.25 C284.81 -204.69, 286.58 -195.81, 287.69 -187.6 C288.81 -179.38, 289.84 -171.45, 288.78 -161.96 C287.71 -152.46, 285.15 -141.51, 281.3 -130.62 C277.46 -119.74, 271.91 -107.51, 265.72 -96.65 C259.53 -85.78, 245.88 -71.31, 244.16 -65.42 C242.45 -59.53, 248.59 -62.02, 255.45 -61.32 C262.31 -60.63, 273.71 -61.26, 285.33 -61.26 C296.94 -61.27, 312.62 -61.33, 325.13 -61.35 C337.63 -61.37, 351.83 -62.21, 360.34 -61.39 C368.86 -60.56, 371.52 -58.73, 376.2 -56.4 C380.89 -54.08, 385.28 -51.71, 388.46 -47.45 C391.64 -43.2, 394.2 -37.06, 395.26 -30.86 C396.32 -24.66, 396.17 -16.54, 394.82 -10.25 C393.47 -3.95, 389.18 2.39, 387.16 6.93 C385.14 11.46, 382.08 13.56, 382.69 16.96 C383.3 20.36, 388.38 22.96, 390.83 27.33 C393.27 31.71, 396.19 37.92, 397.39 43.21 C398.58 48.5, 398.3 53.93, 398 59.07 C397.7 64.22, 397.06 69.42, 395.61 74.08 C394.17 78.74, 390.87 83.78, 389.33 87.03 C387.79 90.28, 386.17 91.11, 386.38 93.58 C386.6 96.05, 389.18 97.59, 390.61 101.85 C392.04 106.11, 394.57 112.69, 394.96 119.15 C395.34 125.62, 394.69 134.7, 392.93 140.64 C391.17 146.58, 388.34 149.99, 384.37 154.78 C380.41 159.57, 371.68 166.95, 369.14 169.38 M0 0 C3.75 -0.2, 14.63 0.95, 22.48 -1.18 C30.33 -3.32, 41.19 -9.38, 47.08 -12.83 C52.98 -16.27, 54.48 -18.78, 57.88 -21.85 C61.27 -24.92, 61.67 -26.25, 67.46 -31.25 C73.26 -36.26, 82 -43.61, 92.66 -51.87 C103.33 -60.13, 116.91 -70.81, 131.45 -80.8 C145.99 -90.79, 167.63 -102.86, 179.9 -111.81 C192.18 -120.77, 199.21 -126.94, 205.12 -134.52 C211.02 -142.09, 213.05 -150.4, 215.35 -157.25 C217.65 -164.09, 218.39 -168.77, 218.93 -175.57 C219.47 -182.38, 217.93 -191.68, 218.61 -198.08 C219.29 -204.48, 220.88 -209.18, 223.02 -213.97 C225.17 -218.76, 228.33 -223.37, 231.5 -226.83 C234.68 -230.29, 237.82 -233.48, 242.08 -234.73 C246.34 -235.99, 252.17 -235.66, 257.05 -234.36 C261.93 -233.06, 267.17 -230.8, 271.35 -226.95 C275.52 -223.1, 279.37 -217.8, 282.09 -211.25 C284.81 -204.69, 286.58 -195.81, 287.69 -187.6 C288.81 -179.38, 289.84 -171.45, 288.78 -161.96 C287.71 -152.46, 285.15 -141.51, 281.3 -130.62 C277.46 -119.74, 271.91 -107.51, 265.72 -96.65 C259.53 -85.78, 245.88 -71.31, 244.16 -65.42 C242.45 -59.53, 248.59 -62.02, 255.45 -61.32 C262.31 -60.63, 273.71 -61.26, 285.33 -61.26 C296.94 -61.27, 312.62 -61.33, 325.13 -61.35 C337.63 -61.37, 351.83 -62.21, 360.34 -61.39 C368.86 -60.56, 371.52 -58.73, 376.2 -56.4 C380.89 -54.08, 385.28 -51.71, 388.46 -47.45 C391.64 -43.2, 394.2 -37.06, 395.26 -30.86 C396.32 -24.66, 396.17 -16.54, 394.82 -10.25 C393.47 -3.95, 389.18 2.39, 387.16 6.93 C385.14 11.46, 382.08 13.56, 382.69 16.96 C383.3 20.36, 388.38 22.96, 390.83 27.33 C393.27 31.71, 396.19 37.92, 397.39 43.21 C398.58 48.5, 398.3 53.93, 398 59.07 C397.7 64.22, 397.06 69.42, 395.61 74.08 C394.17 78.74, 390.87 83.78, 389.33 87.03 C387.79 90.28, 386.17 91.11, 386.38 93.58 C386.6 96.05, 389.18 97.59, 390.61 101.85 C392.04 106.11, 394.57 112.69, 394.96 119.15 C395.34 125.62, 394.69 134.7, 392.93 140.64 C391.17 146.58, 388.34 149.99, 384.37 154.78 C380.41 159.57, 371.68 166.95, 369.14 169.38" stroke="#E1E1E1" stroke-width="4" fill="none"></path></g></g><mask></mask><g stroke-linecap="round"><g transform="translate(513.1114554633054 415.343708382163) rotate(0 -184.677004907073 -49.5369445795791)"><path d="M0 0 C0.18 1.96, 0.98 7.52, 1.09 11.78 C1.19 16.04, 1.38 21.04, 0.62 25.57 C-0.14 30.09, -0.88 34.25, -3.47 38.94 C-6.05 43.62, -9.92 49.35, -14.91 53.69 C-19.9 58.02, -27.13 62.28, -33.42 64.95 C-39.7 67.61, -30.97 68.88, -52.61 69.7 C-74.25 70.51, -135.96 69.72, -163.25 69.86 C-190.54 69.99, -204.34 71.7, -216.37 70.49 C-228.4 69.29, -224.72 67.78, -235.42 62.64 C-246.11 57.51, -266.92 45.55, -280.55 39.68 C-294.19 33.81, -306.69 30.31, -317.23 27.43 C-327.76 24.54, -335.15 23.02, -343.76 22.37 C-352.38 21.73, -364.54 25.17, -368.91 23.54 C-373.29 21.91, -369.88 20.23, -370.04 12.6 C-370.2 4.98, -369.81 -0.97, -369.87 -22.19 C-369.94 -43.41, -370.38 -90.14, -370.44 -114.7 C-370.5 -139.26, -370.25 -160.42, -370.21 -169.57 M0 0 C0.18 1.96, 0.98 7.52, 1.09 11.78 C1.19 16.04, 1.38 21.04, 0.62 25.57 C-0.14 30.09, -0.88 34.25, -3.47 38.94 C-6.05 43.62, -9.92 49.35, -14.91 53.69 C-19.9 58.02, -27.13 62.28, -33.42 64.95 C-39.7 67.61, -30.97 68.88, -52.61 69.7 C-74.25 70.51, -135.96 69.72, -163.25 69.86 C-190.54 69.99, -204.34 71.7, -216.37 70.49 C-228.4 69.29, -224.72 67.78, -235.42 62.64 C-246.11 57.51, -266.92 45.55, -280.55 39.68 C-294.19 33.81, -306.69 30.31, -317.23 27.43 C-327.76 24.54, -335.15 23.02, -343.76 22.37 C-352.38 21.73, -364.54 25.17, -368.91 23.54 C-373.29 21.91, -369.88 20.23, -370.04 12.6 C-370.2 4.98, -369.81 -0.97, -369.87 -22.19 C-369.94 -43.41, -370.38 -90.14, -370.44 -114.7 C-370.5 -139.26, -370.25 -160.42, -370.21 -169.57" stroke="#E1E1E1" stroke-width="4" fill="none"></path></g></g><mask></mask><g stroke-linecap="round" transform="translate(10 226.57399292268775) rotate(0 52.26505343779995 120.85479102849112)"><path d="M26.13 0 C44.06 0, 61.99 0, 78.4 0 M26.13 0 C43.58 0, 61.02 0, 78.4 0 M78.4 0 C95.82 0, 104.53 8.71, 104.53 26.13 M78.4 0 C95.82 0, 104.53 8.71, 104.53 26.13 M104.53 26.13 C104.53 98.86, 104.53 171.6, 104.53 215.58 M104.53 26.13 C104.53 67, 104.53 107.87, 104.53 215.58 M104.53 215.58 C104.53 233, 95.82 241.71, 78.4 241.71 M104.53 215.58 C104.53 233, 95.82 241.71, 78.4 241.71 M78.4 241.71 C63.6 241.71, 48.8 241.71, 26.13 241.71 M78.4 241.71 C62.67 241.71, 46.94 241.71, 26.13 241.71 M26.13 241.71 C8.71 241.71, 0 233, 0 215.58 M26.13 241.71 C8.71 241.71, 0 233, 0 215.58 M0 215.58 C0 158.76, 0 101.95, 0 26.13 M0 215.58 C0 157.47, 0 99.37, 0 26.13 M0 26.13 C0 8.71, 8.71 0, 26.13 0 M0 26.13 C0 8.71, 8.71 0, 26.13 0" stroke="#E1E1E1" stroke-width="4" fill="none"></path></g></svg>