<svg version="1.1" xmlns="http://www.w3.org/2000/svg" viewBox="0 0 471.32512460722717 670.6582909310712" width="471.32512460722717" height="670.6582909310712" class="excalidraw-svg"><!-- svg-source:excalidraw --><metadata></metadata><defs><style class="style-fonts">
      </style></defs><rect x="0" y="0" width="471.32512460722717" height="670.6582909310712" fill="#000000"></rect><g stroke-linecap="round"><g transform="translate(242.59696583665288 10) rotate(0 -8.208659336991417 325.19108075589446)"><path d="M0 0 C17.78 28.15, 76.08 118.6, 106.71 168.88 C137.33 219.15, 165.95 262.73, 183.74 301.64 C201.53 340.56, 208.64 369.49, 213.46 402.35 C218.28 435.22, 222.73 468.07, 212.67 498.83 C202.61 529.59, 177.42 564.84, 153.1 586.92 C128.79 609, 95.88 620.73, 66.78 631.31 C37.68 641.89, 9.72 652.52, -21.52 650.38 C-52.76 648.25, -91.04 636.36, -120.64 618.49 C-150.23 600.63, -180.9 571.13, -199.11 543.19 C-217.31 515.26, -226.7 483.26, -229.88 450.89 C-233.05 418.52, -237.16 396.76, -218.16 348.96 C-199.16 301.16, -152.21 222.27, -115.85 164.11 C-79.49 105.95, -19.31 27.35, 0 0 M0 0 C17.78 28.15, 76.08 118.6, 106.71 168.88 C137.33 219.15, 165.95 262.73, 183.74 301.64 C201.53 340.56, 208.64 369.49, 213.46 402.35 C218.28 435.22, 222.73 468.07, 212.67 498.83 C202.61 529.59, 177.42 564.84, 153.1 586.92 C128.79 609, 95.88 620.73, 66.78 631.31 C37.68 641.89, 9.72 652.52, -21.52 650.38 C-52.76 648.25, -91.04 636.36, -120.64 618.49 C-150.23 600.63, -180.9 571.13, -199.11 543.19 C-217.31 515.26, -226.7 483.26, -229.88 450.89 C-233.05 418.52, -237.16 396.76, -218.16 348.96 C-199.16 301.16, -152.21 222.27, -115.85 164.11 C-79.49 105.95, -19.31 27.35, 0 0" stroke="#E1E1E1" stroke-width="4" fill="none"></path></g></g><mask></mask><g stroke-linecap="round"><g transform="translate(386.7072175615966 422.86935071360676) rotate(0 -47.07223245857088 70.18791511664269)"><path d="M0 0 C-0.7 6.72, -1.06 27.24, -4.18 40.31 C-7.3 53.39, -11.28 66.32, -18.7 78.46 C-26.12 90.6, -36.13 102.83, -48.7 113.15 C-61.28 123.47, -86.57 135.84, -94.14 140.38 M0 0 C-0.7 6.72, -1.06 27.24, -4.18 40.31 C-7.3 53.39, -11.28 66.32, -18.7 78.46 C-26.12 90.6, -36.13 102.83, -48.7 113.15 C-61.28 123.47, -86.57 135.84, -94.14 140.38" stroke="#E1E1E1" stroke-width="4" fill="none"></path></g></g><mask></mask></svg>