<svg version="1.1" xmlns="http://www.w3.org/2000/svg" viewBox="0 0 432.35912012448836 486.9518412185457" width="432.35912012448836" height="486.9518412185457" class="excalidraw-svg"><!-- svg-source:excalidraw --><metadata></metadata><defs><style class="style-fonts">
      </style></defs><rect x="0" y="0" width="432.35912012448836" height="486.9518412185457" fill="#000000"></rect><g stroke-linecap="round" transform="translate(186.14201822566878 10) rotate(0 30.625363867056393 36.713436699802536)"><path d="M61.25 36.71 C61.25 38.63, 61.12 40.57, 60.87 42.46 C60.62 44.35, 60.25 46.24, 59.75 48.06 C59.26 49.88, 58.64 51.68, 57.91 53.38 C57.19 55.09, 56.34 56.74, 55.4 58.29 C54.46 59.84, 53.41 61.32, 52.28 62.67 C51.15 64.03, 49.92 65.29, 48.63 66.42 C47.33 67.54, 45.95 68.56, 44.53 69.43 C43.11 70.29, 41.61 71.04, 40.09 71.63 C38.57 72.22, 36.99 72.68, 35.42 72.97 C33.84 73.27, 32.22 73.43, 30.63 73.43 C29.03 73.43, 27.41 73.27, 25.83 72.97 C24.26 72.68, 22.68 72.22, 21.16 71.63 C19.64 71.04, 18.14 70.29, 16.72 69.43 C15.3 68.56, 13.92 67.54, 12.62 66.42 C11.33 65.29, 10.1 64.03, 8.97 62.67 C7.84 61.32, 6.79 59.84, 5.85 58.29 C4.91 56.74, 4.06 55.09, 3.34 53.38 C2.61 51.68, 1.99 49.88, 1.5 48.06 C1.01 46.24, 0.63 44.35, 0.38 42.46 C0.13 40.57, 0 38.63, 0 36.71 C0 34.8, 0.13 32.86, 0.38 30.97 C0.63 29.08, 1.01 27.19, 1.5 25.37 C1.99 23.55, 2.61 21.75, 3.34 20.05 C4.06 18.34, 4.91 16.68, 5.85 15.13 C6.79 13.59, 7.84 12.11, 8.97 10.75 C10.1 9.4, 11.33 8.14, 12.62 7.01 C13.92 5.89, 15.3 4.87, 16.72 4 C18.14 3.13, 19.64 2.39, 21.16 1.8 C22.68 1.21, 24.26 0.75, 25.83 0.45 C27.41 0.15, 29.03 0, 30.63 0 C32.22 0, 33.84 0.15, 35.42 0.45 C36.99 0.75, 38.57 1.21, 40.09 1.8 C41.61 2.39, 43.11 3.13, 44.53 4 C45.95 4.87, 47.33 5.89, 48.63 7.01 C49.92 8.14, 51.15 9.4, 52.28 10.75 C53.41 12.11, 54.46 13.59, 55.4 15.13 C56.34 16.68, 57.19 18.34, 57.91 20.05 C58.64 21.75, 59.26 23.55, 59.75 25.37 C60.25 27.19, 60.62 29.08, 60.87 30.97 C61.12 32.86, 61.19 35.76, 61.25 36.71 C61.31 37.67, 61.31 35.76, 61.25 36.71" stroke="#E1E1E1" stroke-width="4" fill="none"></path></g><g stroke-linecap="round"><g transform="translate(190.6736923743889 68.84409442536275) rotate(0 25.71932453697505 25.98563679426961)"><path d="M0 0 C-1.93 1.12, -8.11 4.16, -11.57 6.74 C-15.03 9.32, -18.33 12.08, -20.76 15.48 C-23.2 18.87, -25.04 23.05, -26.16 27.12 C-27.29 31.2, -27.42 35.9, -27.53 39.91 C-27.65 43.93, -28.67 49.21, -26.86 51.23 C-25.06 53.24, -20.39 52.5, -16.68 52.02 C-12.98 51.53, -8.86 49.32, -4.64 48.33 C-0.42 47.34, 3.84 46.6, 8.64 46.09 C13.45 45.57, 19.15 45.22, 24.21 45.24 C29.27 45.25, 33.93 45.7, 38.99 46.18 C44.04 46.67, 49.99 47.4, 54.54 48.14 C59.09 48.88, 62.58 49.88, 66.3 50.62 C70.01 51.36, 74.7 53.85, 76.81 52.58 C78.92 51.31, 78.71 46.92, 78.97 43 C79.23 39.08, 79.14 33.21, 78.35 29.07 C77.56 24.92, 76.54 21.63, 74.24 18.12 C71.95 14.61, 68.23 11.15, 64.6 8.03 C60.98 4.91, 54.52 0.83, 52.5 -0.61 M0 0 C-1.93 1.12, -8.11 4.16, -11.57 6.74 C-15.03 9.32, -18.33 12.08, -20.76 15.48 C-23.2 18.87, -25.04 23.05, -26.16 27.12 C-27.29 31.2, -27.42 35.9, -27.53 39.91 C-27.65 43.93, -28.67 49.21, -26.86 51.23 C-25.06 53.24, -20.39 52.5, -16.68 52.02 C-12.98 51.53, -8.86 49.32, -4.64 48.33 C-0.42 47.34, 3.84 46.6, 8.64 46.09 C13.45 45.57, 19.15 45.22, 24.21 45.24 C29.27 45.25, 33.93 45.7, 38.99 46.18 C44.04 46.67, 49.99 47.4, 54.54 48.14 C59.09 48.88, 62.58 49.88, 66.3 50.62 C70.01 51.36, 74.7 53.85, 76.81 52.58 C78.92 51.31, 78.71 46.92, 78.97 43 C79.23 39.08, 79.14 33.21, 78.35 29.07 C77.56 24.92, 76.54 21.63, 74.24 18.12 C71.95 14.61, 68.23 11.15, 64.6 8.03 C60.98 4.91, 54.52 0.83, 52.5 -0.61" stroke="#E1E1E1" stroke-width="4" fill="none"></path></g></g><mask></mask><g stroke-linecap="round" transform="translate(14.753649495616088 107.75596282525555) rotate(299.99999999999994 30.625363867056407 36.713436699802536)"><path d="M61.25 36.71 C61.25 38.63, 61.12 40.57, 60.87 42.46 C60.62 44.35, 60.25 46.24, 59.75 48.06 C59.26 49.88, 58.64 51.68, 57.91 53.38 C57.19 55.09, 56.34 56.74, 55.4 58.29 C54.46 59.84, 53.41 61.32, 52.28 62.67 C51.15 64.03, 49.92 65.29, 48.63 66.42 C47.33 67.54, 45.95 68.56, 44.53 69.43 C43.11 70.29, 41.61 71.04, 40.09 71.63 C38.57 72.22, 36.99 72.68, 35.42 72.97 C33.84 73.27, 32.22 73.43, 30.63 73.43 C29.03 73.43, 27.41 73.27, 25.83 72.97 C24.26 72.68, 22.68 72.22, 21.16 71.63 C19.64 71.04, 18.14 70.29, 16.72 69.43 C15.3 68.56, 13.92 67.54, 12.62 66.42 C11.33 65.29, 10.1 64.03, 8.97 62.67 C7.84 61.32, 6.79 59.84, 5.85 58.29 C4.91 56.74, 4.06 55.09, 3.34 53.38 C2.61 51.68, 1.99 49.88, 1.5 48.06 C1.01 46.24, 0.63 44.35, 0.38 42.46 C0.13 40.57, 0 38.63, 0 36.71 C0 34.8, 0.13 32.86, 0.38 30.97 C0.63 29.08, 1.01 27.19, 1.5 25.37 C1.99 23.55, 2.61 21.75, 3.34 20.05 C4.06 18.34, 4.91 16.68, 5.85 15.13 C6.79 13.59, 7.84 12.11, 8.97 10.75 C10.1 9.4, 11.33 8.14, 12.62 7.01 C13.92 5.89, 15.3 4.87, 16.72 4 C18.14 3.13, 19.64 2.39, 21.16 1.8 C22.68 1.21, 24.26 0.75, 25.83 0.45 C27.41 0.15, 29.03 0, 30.63 0 C32.22 0, 33.84 0.15, 35.42 0.45 C36.99 0.75, 38.57 1.21, 40.09 1.8 C41.61 2.39, 43.11 3.13, 44.53 4 C45.95 4.87, 47.33 5.89, 48.63 7.01 C49.92 8.14, 51.15 9.4, 52.28 10.75 C53.41 12.11, 54.46 13.59, 55.4 15.13 C56.34 16.68, 57.19 18.34, 57.91 20.05 C58.64 21.75, 59.26 23.55, 59.75 25.37 C60.25 27.19, 60.62 29.08, 60.87 30.97 C61.12 32.86, 61.19 35.76, 61.25 36.71 C61.31 37.67, 61.31 35.76, 61.25 36.71" stroke="#E1E1E1" stroke-width="4" fill="none"></path></g><g stroke-linecap="round"><g transform="translate(61.361756697884374 142.89181312136435) rotate(299.99999999999994 25.71932453697505 25.985636794269606)"><path d="M0 0 C-1.93 1.12, -8.11 4.16, -11.57 6.74 C-15.03 9.32, -18.33 12.08, -20.76 15.48 C-23.2 18.87, -25.04 23.05, -26.16 27.12 C-27.29 31.2, -27.42 35.9, -27.53 39.91 C-27.65 43.93, -28.67 49.21, -26.86 51.23 C-25.06 53.24, -20.39 52.5, -16.68 52.02 C-12.98 51.53, -8.86 49.32, -4.64 48.33 C-0.42 47.34, 3.84 46.6, 8.64 46.09 C13.45 45.57, 19.15 45.22, 24.21 45.24 C29.27 45.25, 33.93 45.7, 38.99 46.18 C44.04 46.67, 49.99 47.4, 54.54 48.14 C59.09 48.88, 62.58 49.88, 66.3 50.62 C70.01 51.36, 74.7 53.85, 76.81 52.58 C78.92 51.31, 78.71 46.92, 78.97 43 C79.23 39.08, 79.14 33.21, 78.35 29.07 C77.56 24.92, 76.54 21.63, 74.24 18.12 C71.95 14.61, 68.23 11.15, 64.6 8.03 C60.98 4.91, 54.52 0.83, 52.5 -0.61 M0 0 C-1.93 1.12, -8.11 4.16, -11.57 6.74 C-15.03 9.32, -18.33 12.08, -20.76 15.48 C-23.2 18.87, -25.04 23.05, -26.16 27.12 C-27.29 31.2, -27.42 35.9, -27.53 39.91 C-27.65 43.93, -28.67 49.21, -26.86 51.23 C-25.06 53.24, -20.39 52.5, -16.68 52.02 C-12.98 51.53, -8.86 49.32, -4.64 48.33 C-0.42 47.34, 3.84 46.6, 8.64 46.09 C13.45 45.57, 19.15 45.22, 24.21 45.24 C29.27 45.25, 33.93 45.7, 38.99 46.18 C44.04 46.67, 49.99 47.4, 54.54 48.14 C59.09 48.88, 62.58 49.88, 66.3 50.62 C70.01 51.36, 74.7 53.85, 76.81 52.58 C78.92 51.31, 78.71 46.92, 78.97 43 C79.23 39.08, 79.14 33.21, 78.35 29.07 C77.56 24.92, 76.54 21.63, 74.24 18.12 C71.95 14.61, 68.23 11.15, 64.6 8.03 C60.98 4.91, 54.52 0.83, 52.5 -0.61" stroke="#E1E1E1" stroke-width="4" fill="none"></path></g></g><mask></mask><g stroke-linecap="round" transform="translate(14.664656729851828 304.80929026387673) rotate(239.99999999999994 30.625363867056407 36.71343669980253)"><path d="M61.25 36.71 C61.25 38.63, 61.12 40.57, 60.87 42.46 C60.62 44.35, 60.25 46.24, 59.75 48.06 C59.26 49.88, 58.64 51.68, 57.91 53.38 C57.19 55.09, 56.34 56.74, 55.4 58.29 C54.46 59.84, 53.41 61.32, 52.28 62.67 C51.15 64.03, 49.92 65.29, 48.63 66.42 C47.33 67.54, 45.95 68.56, 44.53 69.43 C43.11 70.29, 41.61 71.04, 40.09 71.63 C38.57 72.22, 36.99 72.68, 35.42 72.97 C33.84 73.27, 32.22 73.43, 30.63 73.43 C29.03 73.43, 27.41 73.27, 25.83 72.97 C24.26 72.68, 22.68 72.22, 21.16 71.63 C19.64 71.04, 18.14 70.29, 16.72 69.43 C15.3 68.56, 13.92 67.54, 12.62 66.42 C11.33 65.29, 10.1 64.03, 8.97 62.67 C7.84 61.32, 6.79 59.84, 5.85 58.29 C4.91 56.74, 4.06 55.09, 3.34 53.38 C2.61 51.68, 1.99 49.88, 1.5 48.06 C1.01 46.24, 0.63 44.35, 0.38 42.46 C0.13 40.57, 0 38.63, 0 36.71 C0 34.8, 0.13 32.86, 0.38 30.97 C0.63 29.08, 1.01 27.19, 1.5 25.37 C1.99 23.55, 2.61 21.75, 3.34 20.05 C4.06 18.34, 4.91 16.68, 5.85 15.13 C6.79 13.59, 7.84 12.11, 8.97 10.75 C10.1 9.4, 11.33 8.14, 12.62 7.01 C13.92 5.89, 15.3 4.87, 16.72 4 C18.14 3.13, 19.64 2.39, 21.16 1.8 C22.68 1.21, 24.26 0.75, 25.83 0.45 C27.41 0.15, 29.03 0, 30.63 0 C32.22 0, 33.84 0.15, 35.42 0.45 C36.99 0.75, 38.57 1.21, 40.09 1.8 C41.61 2.39, 43.11 3.13, 44.53 4 C45.95 4.87, 47.33 5.89, 48.63 7.01 C49.92 8.14, 51.15 9.4, 52.28 10.75 C53.41 12.11, 54.46 13.59, 55.4 15.13 C56.34 16.68, 57.19 18.34, 57.91 20.05 C58.64 21.75, 59.26 23.55, 59.75 25.37 C60.25 27.19, 60.62 29.08, 60.87 30.97 C61.12 32.86, 61.19 35.76, 61.25 36.71 C61.31 37.67, 61.31 35.76, 61.25 36.71" stroke="#E1E1E1" stroke-width="4" fill="none"></path></g><g stroke-linecap="round"><g transform="translate(61.779038763836496 291.65175857035086) rotate(239.99999999999994 25.71932453697505 25.98563679426961)"><path d="M0 0 C-1.93 1.12, -8.11 4.16, -11.57 6.74 C-15.03 9.32, -18.33 12.08, -20.76 15.48 C-23.2 18.87, -25.04 23.05, -26.16 27.12 C-27.29 31.2, -27.42 35.9, -27.53 39.91 C-27.65 43.93, -28.67 49.21, -26.86 51.23 C-25.06 53.24, -20.39 52.5, -16.68 52.02 C-12.98 51.53, -8.86 49.32, -4.64 48.33 C-0.42 47.34, 3.84 46.6, 8.64 46.09 C13.45 45.57, 19.15 45.22, 24.21 45.24 C29.27 45.25, 33.93 45.7, 38.99 46.18 C44.04 46.67, 49.99 47.4, 54.54 48.14 C59.09 48.88, 62.58 49.88, 66.3 50.62 C70.01 51.36, 74.7 53.85, 76.81 52.58 C78.92 51.31, 78.71 46.92, 78.97 43 C79.23 39.08, 79.14 33.21, 78.35 29.07 C77.56 24.92, 76.54 21.63, 74.24 18.12 C71.95 14.61, 68.23 11.15, 64.6 8.03 C60.98 4.91, 54.52 0.83, 52.5 -0.61 M0 0 C-1.93 1.12, -8.11 4.16, -11.57 6.74 C-15.03 9.32, -18.33 12.08, -20.76 15.48 C-23.2 18.87, -25.04 23.05, -26.16 27.12 C-27.29 31.2, -27.42 35.9, -27.53 39.91 C-27.65 43.93, -28.67 49.21, -26.86 51.23 C-25.06 53.24, -20.39 52.5, -16.68 52.02 C-12.98 51.53, -8.86 49.32, -4.64 48.33 C-0.42 47.34, 3.84 46.6, 8.64 46.09 C13.45 45.57, 19.15 45.22, 24.21 45.24 C29.27 45.25, 33.93 45.7, 38.99 46.18 C44.04 46.67, 49.99 47.4, 54.54 48.14 C59.09 48.88, 62.58 49.88, 66.3 50.62 C70.01 51.36, 74.7 53.85, 76.81 52.58 C78.92 51.31, 78.71 46.92, 78.97 43 C79.23 39.08, 79.14 33.21, 78.35 29.07 C77.56 24.92, 76.54 21.63, 74.24 18.12 C71.95 14.61, 68.23 11.15, 64.6 8.03 C60.98 4.91, 54.52 0.83, 52.5 -0.61" stroke="#E1E1E1" stroke-width="4" fill="none"></path></g></g><mask></mask><g stroke-linecap="round" transform="translate(185.75645795707646 403.52496781894064) rotate(180 30.625363867056393 36.71343669980254)"><path d="M61.25 36.71 C61.25 38.63, 61.12 40.57, 60.87 42.46 C60.62 44.35, 60.25 46.24, 59.75 48.06 C59.26 49.88, 58.64 51.68, 57.91 53.38 C57.19 55.09, 56.34 56.74, 55.4 58.29 C54.46 59.84, 53.41 61.32, 52.28 62.67 C51.15 64.03, 49.92 65.29, 48.63 66.42 C47.33 67.54, 45.95 68.56, 44.53 69.43 C43.11 70.29, 41.61 71.04, 40.09 71.63 C38.57 72.22, 36.99 72.68, 35.42 72.97 C33.84 73.27, 32.22 73.43, 30.63 73.43 C29.03 73.43, 27.41 73.27, 25.83 72.97 C24.26 72.68, 22.68 72.22, 21.16 71.63 C19.64 71.04, 18.14 70.29, 16.72 69.43 C15.3 68.56, 13.92 67.54, 12.62 66.42 C11.33 65.29, 10.1 64.03, 8.97 62.67 C7.84 61.32, 6.79 59.84, 5.85 58.29 C4.91 56.74, 4.06 55.09, 3.34 53.38 C2.61 51.68, 1.99 49.88, 1.5 48.06 C1.01 46.24, 0.63 44.35, 0.38 42.46 C0.13 40.57, 0 38.63, 0 36.71 C0 34.8, 0.13 32.86, 0.38 30.97 C0.63 29.08, 1.01 27.19, 1.5 25.37 C1.99 23.55, 2.61 21.75, 3.34 20.05 C4.06 18.34, 4.91 16.68, 5.85 15.13 C6.79 13.59, 7.84 12.11, 8.97 10.75 C10.1 9.4, 11.33 8.14, 12.62 7.01 C13.92 5.89, 15.3 4.87, 16.72 4 C18.14 3.13, 19.64 2.39, 21.16 1.8 C22.68 1.21, 24.26 0.75, 25.83 0.45 C27.41 0.15, 29.03 0, 30.63 0 C32.22 0, 33.84 0.15, 35.42 0.45 C36.99 0.75, 38.57 1.21, 40.09 1.8 C41.61 2.39, 43.11 3.13, 44.53 4 C45.95 4.87, 47.33 5.89, 48.63 7.01 C49.92 8.14, 51.15 9.4, 52.28 10.75 C53.41 12.11, 54.46 13.59, 55.4 15.13 C56.34 16.68, 57.19 18.34, 57.91 20.05 C58.64 21.75, 59.26 23.55, 59.75 25.37 C60.25 27.19, 60.62 29.08, 60.87 30.97 C61.12 32.86, 61.19 35.76, 61.25 36.71 C61.31 37.67, 61.31 35.76, 61.25 36.71" stroke="#E1E1E1" stroke-width="4" fill="none"></path></g><g stroke-linecap="round"><g transform="translate(191.3006817692301 365.7822982650346) rotate(180 25.71932453697505 25.985636794269595)"><path d="M0 0 C-1.93 1.12, -8.11 4.16, -11.57 6.74 C-15.03 9.32, -18.33 12.08, -20.76 15.48 C-23.2 18.87, -25.04 23.05, -26.16 27.12 C-27.29 31.2, -27.42 35.9, -27.53 39.91 C-27.65 43.93, -28.67 49.21, -26.86 51.23 C-25.06 53.24, -20.39 52.5, -16.68 52.02 C-12.98 51.53, -8.86 49.32, -4.64 48.33 C-0.42 47.34, 3.84 46.6, 8.64 46.09 C13.45 45.57, 19.15 45.22, 24.21 45.24 C29.27 45.25, 33.93 45.7, 38.99 46.18 C44.04 46.67, 49.99 47.4, 54.54 48.14 C59.09 48.88, 62.58 49.88, 66.3 50.62 C70.01 51.36, 74.7 53.85, 76.81 52.58 C78.92 51.31, 78.71 46.92, 78.97 43 C79.23 39.08, 79.14 33.21, 78.35 29.07 C77.56 24.92, 76.54 21.63, 74.24 18.12 C71.95 14.61, 68.23 11.15, 64.6 8.03 C60.98 4.91, 54.52 0.83, 52.5 -0.61 M0 0 C-1.93 1.12, -8.11 4.16, -11.57 6.74 C-15.03 9.32, -18.33 12.08, -20.76 15.48 C-23.2 18.87, -25.04 23.05, -26.16 27.12 C-27.29 31.2, -27.42 35.9, -27.53 39.91 C-27.65 43.93, -28.67 49.21, -26.86 51.23 C-25.06 53.24, -20.39 52.5, -16.68 52.02 C-12.98 51.53, -8.86 49.32, -4.64 48.33 C-0.42 47.34, 3.84 46.6, 8.64 46.09 C13.45 45.57, 19.15 45.22, 24.21 45.24 C29.27 45.25, 33.93 45.7, 38.99 46.18 C44.04 46.67, 49.99 47.4, 54.54 48.14 C59.09 48.88, 62.58 49.88, 66.3 50.62 C70.01 51.36, 74.7 53.85, 76.81 52.58 C78.92 51.31, 78.71 46.92, 78.97 43 C79.23 39.08, 79.14 33.21, 78.35 29.07 C77.56 24.92, 76.54 21.63, 74.24 18.12 C71.95 14.61, 68.23 11.15, 64.6 8.03 C60.98 4.91, 54.52 0.83, 52.5 -0.61" stroke="#E1E1E1" stroke-width="4" fill="none"></path></g></g><mask></mask><g stroke-linecap="round" transform="translate(356.4437356605237 305.30100054950975) rotate(119.99999999999997 30.62536386705642 36.71343669980254)"><path d="M61.25 36.71 C61.25 38.63, 61.12 40.57, 60.87 42.46 C60.62 44.35, 60.25 46.24, 59.75 48.06 C59.26 49.88, 58.64 51.68, 57.91 53.38 C57.19 55.09, 56.34 56.74, 55.4 58.29 C54.46 59.84, 53.41 61.32, 52.28 62.67 C51.15 64.03, 49.92 65.29, 48.63 66.42 C47.33 67.54, 45.95 68.56, 44.53 69.43 C43.11 70.29, 41.61 71.04, 40.09 71.63 C38.57 72.22, 36.99 72.68, 35.42 72.97 C33.84 73.27, 32.22 73.43, 30.63 73.43 C29.03 73.43, 27.41 73.27, 25.83 72.97 C24.26 72.68, 22.68 72.22, 21.16 71.63 C19.64 71.04, 18.14 70.29, 16.72 69.43 C15.3 68.56, 13.92 67.54, 12.62 66.42 C11.33 65.29, 10.1 64.03, 8.97 62.67 C7.84 61.32, 6.79 59.84, 5.85 58.29 C4.91 56.74, 4.06 55.09, 3.34 53.38 C2.61 51.68, 1.99 49.88, 1.5 48.06 C1.01 46.24, 0.63 44.35, 0.38 42.46 C0.13 40.57, 0 38.63, 0 36.71 C0 34.8, 0.13 32.86, 0.38 30.97 C0.63 29.08, 1.01 27.19, 1.5 25.37 C1.99 23.55, 2.61 21.75, 3.34 20.05 C4.06 18.34, 4.91 16.68, 5.85 15.13 C6.79 13.59, 7.84 12.11, 8.97 10.75 C10.1 9.4, 11.33 8.14, 12.62 7.01 C13.92 5.89, 15.3 4.87, 16.72 4 C18.14 3.13, 19.64 2.39, 21.16 1.8 C22.68 1.21, 24.26 0.75, 25.83 0.45 C27.41 0.15, 29.03 0, 30.63 0 C32.22 0, 33.84 0.15, 35.42 0.45 C36.99 0.75, 38.57 1.21, 40.09 1.8 C41.61 2.39, 43.11 3.13, 44.53 4 C45.95 4.87, 47.33 5.89, 48.63 7.01 C49.92 8.14, 51.15 9.4, 52.28 10.75 C53.41 12.11, 54.46 13.59, 55.4 15.13 C56.34 16.68, 57.19 18.34, 57.91 20.05 C58.64 21.75, 59.26 23.55, 59.75 25.37 C60.25 27.19, 60.62 29.08, 60.87 30.97 C61.12 32.86, 61.19 35.76, 61.25 36.71 C61.31 37.67, 61.31 35.76, 61.25 36.71" stroke="#E1E1E1" stroke-width="4" fill="none"></path></g><g stroke-linecap="round"><g transform="translate(319.9115264191303 291.2665751248566) rotate(119.99999999999997 25.71932453697505 25.98563679426961)"><path d="M0 0 C-1.93 1.12, -8.11 4.16, -11.57 6.74 C-15.03 9.32, -18.33 12.08, -20.76 15.48 C-23.2 18.87, -25.04 23.05, -26.16 27.12 C-27.29 31.2, -27.42 35.9, -27.53 39.91 C-27.65 43.93, -28.67 49.21, -26.86 51.23 C-25.06 53.24, -20.39 52.5, -16.68 52.02 C-12.98 51.53, -8.86 49.32, -4.64 48.33 C-0.42 47.34, 3.84 46.6, 8.64 46.09 C13.45 45.57, 19.15 45.22, 24.21 45.24 C29.27 45.25, 33.93 45.7, 38.99 46.18 C44.04 46.67, 49.99 47.4, 54.54 48.14 C59.09 48.88, 62.58 49.88, 66.3 50.62 C70.01 51.36, 74.7 53.85, 76.81 52.58 C78.92 51.31, 78.71 46.92, 78.97 43 C79.23 39.08, 79.14 33.21, 78.35 29.07 C77.56 24.92, 76.54 21.63, 74.24 18.12 C71.95 14.61, 68.23 11.15, 64.6 8.03 C60.98 4.91, 54.52 0.83, 52.5 -0.61 M0 0 C-1.93 1.12, -8.11 4.16, -11.57 6.74 C-15.03 9.32, -18.33 12.08, -20.76 15.48 C-23.2 18.87, -25.04 23.05, -26.16 27.12 C-27.29 31.2, -27.42 35.9, -27.53 39.91 C-27.65 43.93, -28.67 49.21, -26.86 51.23 C-25.06 53.24, -20.39 52.5, -16.68 52.02 C-12.98 51.53, -8.86 49.32, -4.64 48.33 C-0.42 47.34, 3.84 46.6, 8.64 46.09 C13.45 45.57, 19.15 45.22, 24.21 45.24 C29.27 45.25, 33.93 45.7, 38.99 46.18 C44.04 46.67, 49.99 47.4, 54.54 48.14 C59.09 48.88, 62.58 49.88, 66.3 50.62 C70.01 51.36, 74.7 53.85, 76.81 52.58 C78.92 51.31, 78.71 46.92, 78.97 43 C79.23 39.08, 79.14 33.21, 78.35 29.07 C77.56 24.92, 76.54 21.63, 74.24 18.12 C71.95 14.61, 68.23 11.15, 64.6 8.03 C60.98 4.91, 54.52 0.83, 52.5 -0.61" stroke="#E1E1E1" stroke-width="4" fill="none"></path></g></g><mask></mask><g stroke-linecap="round" transform="translate(355.45341231338904 108.4135159832548) rotate(59.999999999999986 30.62536386705642 36.713436699802536)"><path d="M61.25 36.71 C61.25 38.63, 61.12 40.57, 60.87 42.46 C60.62 44.35, 60.25 46.24, 59.75 48.06 C59.26 49.88, 58.64 51.68, 57.91 53.38 C57.19 55.09, 56.34 56.74, 55.4 58.29 C54.46 59.84, 53.41 61.32, 52.28 62.67 C51.15 64.03, 49.92 65.29, 48.63 66.42 C47.33 67.54, 45.95 68.56, 44.53 69.43 C43.11 70.29, 41.61 71.04, 40.09 71.63 C38.57 72.22, 36.99 72.68, 35.42 72.97 C33.84 73.27, 32.22 73.43, 30.63 73.43 C29.03 73.43, 27.41 73.27, 25.83 72.97 C24.26 72.68, 22.68 72.22, 21.16 71.63 C19.64 71.04, 18.14 70.29, 16.72 69.43 C15.3 68.56, 13.92 67.54, 12.62 66.42 C11.33 65.29, 10.1 64.03, 8.97 62.67 C7.84 61.32, 6.79 59.84, 5.85 58.29 C4.91 56.74, 4.06 55.09, 3.34 53.38 C2.61 51.68, 1.99 49.88, 1.5 48.06 C1.01 46.24, 0.63 44.35, 0.38 42.46 C0.13 40.57, 0 38.63, 0 36.71 C0 34.8, 0.13 32.86, 0.38 30.97 C0.63 29.08, 1.01 27.19, 1.5 25.37 C1.99 23.55, 2.61 21.75, 3.34 20.05 C4.06 18.34, 4.91 16.68, 5.85 15.13 C6.79 13.59, 7.84 12.11, 8.97 10.75 C10.1 9.4, 11.33 8.14, 12.62 7.01 C13.92 5.89, 15.3 4.87, 16.72 4 C18.14 3.13, 19.64 2.39, 21.16 1.8 C22.68 1.21, 24.26 0.75, 25.83 0.45 C27.41 0.15, 29.03 0, 30.63 0 C32.22 0, 33.84 0.15, 35.42 0.45 C36.99 0.75, 38.57 1.21, 40.09 1.8 C41.61 2.39, 43.11 3.13, 44.53 4 C45.95 4.87, 47.33 5.89, 48.63 7.01 C49.92 8.14, 51.15 9.4, 52.28 10.75 C53.41 12.11, 54.46 13.59, 55.4 15.13 C56.34 16.68, 57.19 18.34, 57.91 20.05 C58.64 21.75, 59.26 23.55, 59.75 25.37 C60.25 27.19, 60.62 29.08, 60.87 30.97 C61.12 32.86, 61.19 35.76, 61.25 36.71 C61.31 37.67, 61.31 35.76, 61.25 36.71" stroke="#E1E1E1" stroke-width="4" fill="none"></path></g><g stroke-linecap="round"><g transform="translate(318.41492824027796 142.67247254823633) rotate(59.999999999999986 25.71932453697508 25.985636794269606)"><path d="M0 0 C-1.93 1.12, -8.11 4.16, -11.57 6.74 C-15.03 9.32, -18.33 12.08, -20.76 15.48 C-23.2 18.87, -25.04 23.05, -26.16 27.12 C-27.29 31.2, -27.42 35.9, -27.53 39.91 C-27.65 43.93, -28.67 49.21, -26.86 51.23 C-25.06 53.24, -20.39 52.5, -16.68 52.02 C-12.98 51.53, -8.86 49.32, -4.64 48.33 C-0.42 47.34, 3.84 46.6, 8.64 46.09 C13.45 45.57, 19.15 45.22, 24.21 45.24 C29.27 45.25, 33.93 45.7, 38.99 46.18 C44.04 46.67, 49.99 47.4, 54.54 48.14 C59.09 48.88, 62.58 49.88, 66.3 50.62 C70.01 51.36, 74.7 53.85, 76.81 52.58 C78.92 51.31, 78.71 46.92, 78.97 43 C79.23 39.08, 79.14 33.21, 78.35 29.07 C77.56 24.92, 76.54 21.63, 74.24 18.12 C71.95 14.61, 68.23 11.15, 64.6 8.03 C60.98 4.91, 54.52 0.83, 52.5 -0.61 M0 0 C-1.93 1.12, -8.11 4.16, -11.57 6.74 C-15.03 9.32, -18.33 12.08, -20.76 15.48 C-23.2 18.87, -25.04 23.05, -26.16 27.12 C-27.29 31.2, -27.42 35.9, -27.53 39.91 C-27.65 43.93, -28.67 49.21, -26.86 51.23 C-25.06 53.24, -20.39 52.5, -16.68 52.02 C-12.98 51.53, -8.86 49.32, -4.64 48.33 C-0.42 47.34, 3.84 46.6, 8.64 46.09 C13.45 45.57, 19.15 45.22, 24.21 45.24 C29.27 45.25, 33.93 45.7, 38.99 46.18 C44.04 46.67, 49.99 47.4, 54.54 48.14 C59.09 48.88, 62.58 49.88, 66.3 50.62 C70.01 51.36, 74.7 53.85, 76.81 52.58 C78.92 51.31, 78.71 46.92, 78.97 43 C79.23 39.08, 79.14 33.21, 78.35 29.07 C77.56 24.92, 76.54 21.63, 74.24 18.12 C71.95 14.61, 68.23 11.15, 64.6 8.03 C60.98 4.91, 54.52 0.83, 52.5 -0.61" stroke="#E1E1E1" stroke-width="4" fill="none"></path></g></g><mask></mask></svg>