<svg version="1.1" xmlns="http://www.w3.org/2000/svg" viewBox="0 0 183.74560210258278 425.923681142458" width="183.74560210258278" height="425.923681142458" class="excalidraw-svg"><!-- svg-source:excalidraw --><metadata></metadata><defs><style class="style-fonts">
      </style></defs><rect x="0" y="0" width="183.74560210258278" height="425.923681142458" fill="#000000"></rect><g stroke-linecap="round"><g transform="translate(45.77543152439284 374.84888796634004) rotate(0 24.69676101713503 -26.7003349749084)"><path d="M0 0 C0.86 0.18, 3.31 0.77, 5.14 1.08 C6.97 1.38, 9.03 1.74, 10.97 1.82 C12.92 1.9, 14.96 1.84, 16.8 1.56 C18.64 1.28, 20.13 0.76, 22.02 0.14 C23.91 -0.48, 26.41 -1.45, 28.13 -2.17 C29.84 -2.9, 30.93 -3.36, 32.31 -4.22 C33.69 -5.08, 35.14 -6.24, 36.42 -7.36 C37.7 -8.48, 38.93 -9.48, 39.98 -10.92 C41.04 -12.36, 42.08 -14.19, 42.75 -16 C43.41 -17.8, 43.8 -19.8, 43.96 -21.74 C44.13 -23.68, 44.23 -25.33, 43.75 -27.63 C43.28 -29.93, 42.27 -33.21, 41.11 -35.55 C39.94 -37.89, 38.42 -39.67, 36.77 -41.66 C35.11 -43.66, 32.6 -46.12, 31.18 -47.51 C29.75 -48.9, 28.75 -49.43, 28.2 -49.99 C27.65 -50.54, 27.94 -50.3, 27.88 -50.84 C27.82 -51.37, 27.87 -52.31, 27.85 -53.22 C27.83 -54.13, 27.79 -55.5, 27.78 -56.29 C27.76 -57.08, 27.49 -57.91, 27.78 -57.95 C28.07 -57.98, 28.56 -57.3, 29.52 -56.53 C30.47 -55.75, 32.2 -54.43, 33.5 -53.31 C34.8 -52.19, 36 -51.16, 37.33 -49.79 C38.66 -48.43, 40.15 -46.87, 41.49 -45.14 C42.83 -43.42, 44.26 -41.53, 45.37 -39.44 C46.49 -37.36, 47.52 -34.87, 48.19 -32.62 C48.86 -30.37, 49.2 -28.04, 49.39 -25.95 C49.58 -23.85, 49.63 -21.95, 49.33 -20.04 C49.04 -18.13, 48.63 -16.53, 47.61 -14.48 C46.59 -12.42, 44.9 -9.74, 43.24 -7.71 C41.58 -5.68, 39.67 -3.88, 37.66 -2.3 C35.66 -0.73, 33.36 0.77, 31.23 1.74 C29.1 2.7, 27.17 3.04, 24.87 3.49 C22.56 3.95, 19.64 4.29, 17.4 4.46 C15.16 4.64, 13.15 4.63, 11.42 4.54 C9.69 4.46, 8.45 4.35, 7.03 3.95 C5.6 3.54, 4.05 2.78, 2.88 2.12 C1.7 1.46, 0.48 0.35, 0 0 M0 0 C0.86 0.18, 3.31 0.77, 5.14 1.08 C6.97 1.38, 9.03 1.74, 10.97 1.82 C12.92 1.9, 14.96 1.84, 16.8 1.56 C18.64 1.28, 20.13 0.76, 22.02 0.14 C23.91 -0.48, 26.41 -1.45, 28.13 -2.17 C29.84 -2.9, 30.93 -3.36, 32.31 -4.22 C33.69 -5.08, 35.14 -6.24, 36.42 -7.36 C37.7 -8.48, 38.93 -9.48, 39.98 -10.92 C41.04 -12.36, 42.08 -14.19, 42.75 -16 C43.41 -17.8, 43.8 -19.8, 43.96 -21.74 C44.13 -23.68, 44.23 -25.33, 43.75 -27.63 C43.28 -29.93, 42.27 -33.21, 41.11 -35.55 C39.94 -37.89, 38.42 -39.67, 36.77 -41.66 C35.11 -43.66, 32.6 -46.12, 31.18 -47.51 C29.75 -48.9, 28.75 -49.43, 28.2 -49.99 C27.65 -50.54, 27.94 -50.3, 27.88 -50.84 C27.82 -51.37, 27.87 -52.31, 27.85 -53.22 C27.83 -54.13, 27.79 -55.5, 27.78 -56.29 C27.76 -57.08, 27.49 -57.91, 27.78 -57.95 C28.07 -57.98, 28.56 -57.3, 29.52 -56.53 C30.47 -55.75, 32.2 -54.43, 33.5 -53.31 C34.8 -52.19, 36 -51.16, 37.33 -49.79 C38.66 -48.43, 40.15 -46.87, 41.49 -45.14 C42.83 -43.42, 44.26 -41.53, 45.37 -39.44 C46.49 -37.36, 47.52 -34.87, 48.19 -32.62 C48.86 -30.37, 49.2 -28.04, 49.39 -25.95 C49.58 -23.85, 49.63 -21.95, 49.33 -20.04 C49.04 -18.13, 48.63 -16.53, 47.61 -14.48 C46.59 -12.42, 44.9 -9.74, 43.24 -7.71 C41.58 -5.68, 39.67 -3.88, 37.66 -2.3 C35.66 -0.73, 33.36 0.77, 31.23 1.74 C29.1 2.7, 27.17 3.04, 24.87 3.49 C22.56 3.95, 19.64 4.29, 17.4 4.46 C15.16 4.64, 13.15 4.63, 11.42 4.54 C9.69 4.46, 8.45 4.35, 7.03 3.95 C5.6 3.54, 4.05 2.78, 2.88 2.12 C1.7 1.46, 0.48 0.35, 0 0" stroke="#E1E1E1" stroke-width="2" fill="none"></path></g></g><mask></mask><g stroke-linecap="round"><g transform="translate(59.310413791134124 273.35103639877525) rotate(0 5.579208745613869 43.22909162001997)"><path d="M0 0 C-0.01 -0.7, -0.07 -3.2, -0.07 -4.19 C-0.07 -5.18, -0.24 -5.47, 0.02 -5.95 C0.27 -6.44, 0.74 -6.65, 1.46 -7.1 C2.18 -7.56, 3.28 -8.17, 4.33 -8.71 C5.38 -9.24, 6.65 -9.82, 7.77 -10.3 C8.89 -10.77, 10.45 -11.56, 11.03 -11.56 C11.6 -11.56, 11.21 -11.66, 11.23 -10.28 C11.25 -8.89, 11.19 -6.35, 11.14 -3.25 C11.1 -0.16, 11.05 3.48, 10.99 8.29 C10.92 13.1, 10.86 19.59, 10.76 25.62 C10.67 31.64, 10.59 38.37, 10.41 44.45 C10.23 50.53, 9.91 56.03, 9.67 62.09 C9.43 68.14, 9.1 76.64, 8.94 80.78 C8.78 84.91, 8.75 85.4, 8.71 86.92 C8.67 88.43, 8.7 88.52, 8.68 89.88 C8.66 91.23, 8.61 93.94, 8.58 95.05 C8.56 96.16, 8.64 96.22, 8.54 96.55 C8.43 96.88, 8.52 96.85, 7.95 97.05 C7.37 97.24, 5.96 97.56, 5.08 97.72 C4.2 97.88, 3.12 98.09, 2.67 98.02 C2.22 97.94, 2.46 98.25, 2.4 97.27 C2.34 96.29, 2.38 95.29, 2.31 92.15 C2.23 89.01, 2.06 82.4, 1.94 78.42 C1.83 74.45, 1.7 71.36, 1.61 68.29 C1.51 65.22, 1.44 62.52, 1.37 59.98 C1.3 57.44, 1.31 55.42, 1.22 53.08 C1.12 50.74, 0.92 48.81, 0.8 45.94 C0.69 43.08, 0.62 39.69, 0.5 35.86 C0.39 32.04, 0.19 28.98, 0.11 23 C0.02 17.03, 0.02 3.83, 0 0 M0 0 C-0.01 -0.7, -0.07 -3.2, -0.07 -4.19 C-0.07 -5.18, -0.24 -5.47, 0.02 -5.95 C0.27 -6.44, 0.74 -6.65, 1.46 -7.1 C2.18 -7.56, 3.28 -8.17, 4.33 -8.71 C5.38 -9.24, 6.65 -9.82, 7.77 -10.3 C8.89 -10.77, 10.45 -11.56, 11.03 -11.56 C11.6 -11.56, 11.21 -11.66, 11.23 -10.28 C11.25 -8.89, 11.19 -6.35, 11.14 -3.25 C11.1 -0.16, 11.05 3.48, 10.99 8.29 C10.92 13.1, 10.86 19.59, 10.76 25.62 C10.67 31.64, 10.59 38.37, 10.41 44.45 C10.23 50.53, 9.91 56.03, 9.67 62.09 C9.43 68.14, 9.1 76.64, 8.94 80.78 C8.78 84.91, 8.75 85.4, 8.71 86.92 C8.67 88.43, 8.7 88.52, 8.68 89.88 C8.66 91.23, 8.61 93.94, 8.58 95.05 C8.56 96.16, 8.64 96.22, 8.54 96.55 C8.43 96.88, 8.52 96.85, 7.95 97.05 C7.37 97.24, 5.96 97.56, 5.08 97.72 C4.2 97.88, 3.12 98.09, 2.67 98.02 C2.22 97.94, 2.46 98.25, 2.4 97.27 C2.34 96.29, 2.38 95.29, 2.31 92.15 C2.23 89.01, 2.06 82.4, 1.94 78.42 C1.83 74.45, 1.7 71.36, 1.61 68.29 C1.51 65.22, 1.44 62.52, 1.37 59.98 C1.3 57.44, 1.31 55.42, 1.22 53.08 C1.12 50.74, 0.92 48.81, 0.8 45.94 C0.69 43.08, 0.62 39.69, 0.5 35.86 C0.39 32.04, 0.19 28.98, 0.11 23 C0.02 17.03, 0.02 3.83, 0 0" stroke="#E1E1E1" stroke-width="2" fill="none"></path></g></g><mask></mask><g stroke-linecap="round"><g transform="translate(62.14500072228657 389.95606001473425) rotate(0 2.4772532830875207 9.393914242547908)"><path d="M0 0 C0.02 1.88, 0.08 7.83, 0.14 11.25 C0.19 14.67, 0.29 18.38, 0.35 20.51 C0.42 22.64, 0.3 23.16, 0.52 24.03 C0.73 24.89, 1.25 25.41, 1.65 25.72 C2.06 26.03, 2.56 26, 2.96 25.89 C3.36 25.78, 3.76 25.52, 4.04 25.04 C4.32 24.56, 4.51 24.28, 4.65 23.01 C4.78 21.74, 4.79 19.54, 4.84 17.43 C4.89 15.31, 4.91 13.05, 4.95 10.31 C5 7.57, 5.09 3.06, 5.12 0.98 C5.14 -1.09, 5.11 -1.09, 5.12 -2.15 C5.13 -3.21, 5.19 -4.57, 5.19 -5.39 C5.19 -6.22, 5.23 -6.82, 5.12 -7.1 C5 -7.39, 5.05 -7.12, 4.5 -7.1 C3.94 -7.07, 2.57 -6.97, 1.81 -6.95 C1.05 -6.93, 0.27 -7.12, -0.07 -6.97 C-0.41 -6.82, -0.22 -6.8, -0.23 -6.05 C-0.24 -5.29, -0.17 -3.46, -0.14 -2.45 C-0.1 -1.44, -0.02 -0.41, 0 0 M0 0 C0.02 1.88, 0.08 7.83, 0.14 11.25 C0.19 14.67, 0.29 18.38, 0.35 20.51 C0.42 22.64, 0.3 23.16, 0.52 24.03 C0.73 24.89, 1.25 25.41, 1.65 25.72 C2.06 26.03, 2.56 26, 2.96 25.89 C3.36 25.78, 3.76 25.52, 4.04 25.04 C4.32 24.56, 4.51 24.28, 4.65 23.01 C4.78 21.74, 4.79 19.54, 4.84 17.43 C4.89 15.31, 4.91 13.05, 4.95 10.31 C5 7.57, 5.09 3.06, 5.12 0.98 C5.14 -1.09, 5.11 -1.09, 5.12 -2.15 C5.13 -3.21, 5.19 -4.57, 5.19 -5.39 C5.19 -6.22, 5.23 -6.82, 5.12 -7.1 C5 -7.39, 5.05 -7.12, 4.5 -7.1 C3.94 -7.07, 2.57 -6.97, 1.81 -6.95 C1.05 -6.93, 0.27 -7.12, -0.07 -6.97 C-0.41 -6.82, -0.22 -6.8, -0.23 -6.05 C-0.24 -5.29, -0.17 -3.46, -0.14 -2.45 C-0.1 -1.44, -0.02 -0.41, 0 0" stroke="#E1E1E1" stroke-width="2" fill="none"></path></g></g><mask></mask><g stroke-linecap="round"><g transform="translate(52.66913755528731 302.5062773723075) rotate(0 14.906319787260145 -65.36535385230673)"><path d="M0 0 C0.39 0.26, 1.88 1.18, 2.33 1.59 C2.78 1.99, 2.63 1.89, 2.69 2.41 C2.74 2.94, 2.64 3.82, 2.66 4.73 C2.69 5.64, 2.8 7.03, 2.83 7.88 C2.87 8.73, 3 9.56, 2.88 9.85 C2.75 10.14, 2.76 9.99, 2.08 9.6 C1.39 9.21, 0.06 8.32, -1.25 7.52 C-2.57 6.71, -3.92 5.92, -5.83 4.75 C-7.74 3.58, -10.73 1.84, -12.69 0.51 C-14.64 -0.82, -16.01 -1.95, -17.56 -3.23 C-19.12 -4.5, -20.7 -5.74, -22.03 -7.11 C-23.36 -8.49, -24.62 -10.06, -25.57 -11.49 C-26.52 -12.92, -27.23 -14.32, -27.7 -15.69 C-28.18 -17.07, -28.37 -18.27, -28.43 -19.75 C-28.49 -21.24, -28.45 -22.85, -28.05 -24.61 C-27.65 -26.36, -27.04 -28.47, -26.04 -30.29 C-25.04 -32.11, -23.82 -33.79, -22.06 -35.52 C-20.29 -37.25, -17.96 -38.84, -15.45 -40.66 C-12.94 -42.48, -9.44 -44.88, -7 -46.43 C-4.57 -47.98, -3.74 -48.53, -0.83 -49.95 C2.09 -51.37, 6.84 -53.4, 10.5 -54.95 C14.16 -56.5, 18.27 -58.05, 21.11 -59.23 C23.95 -60.4, 25.03 -60.66, 27.54 -62.01 C30.06 -63.36, 33.65 -65.46, 36.2 -67.33 C38.74 -69.2, 41.05 -71.31, 42.8 -73.23 C44.56 -75.15, 45.73 -76.76, 46.75 -78.85 C47.76 -80.94, 48.48 -83.52, 48.89 -85.77 C49.3 -88.03, 49.64 -89.21, 49.22 -92.38 C48.8 -95.56, 47.73 -101.18, 46.38 -104.85 C45.02 -108.51, 42.98 -111.6, 41.07 -114.37 C39.17 -117.14, 37.24 -119.25, 34.95 -121.46 C32.66 -123.67, 29.1 -126.27, 27.33 -127.65 C25.57 -129.02, 24.95 -129.18, 24.34 -129.69 C23.72 -130.2, 23.77 -130.04, 23.65 -130.69 C23.53 -131.35, 23.59 -132.11, 23.63 -133.62 C23.67 -135.13, 23.84 -138.6, 23.89 -139.76 C23.93 -140.92, 23.78 -140.49, 23.89 -140.58 C24 -140.67, 23.91 -140.7, 24.54 -140.32 C25.18 -139.94, 26.3 -139.25, 27.72 -138.3 C29.13 -137.35, 31.38 -135.83, 33.03 -134.64 C34.69 -133.44, 36.06 -132.43, 37.63 -131.14 C39.2 -129.85, 40.89 -128.34, 42.45 -126.89 C44 -125.45, 45.59 -124.05, 46.94 -122.49 C48.3 -120.93, 49.49 -119.24, 50.58 -117.52 C51.68 -115.8, 52.63 -114.01, 53.5 -112.19 C54.38 -110.36, 55.18 -108.52, 55.84 -106.57 C56.5 -104.63, 57.05 -102.56, 57.45 -100.53 C57.86 -98.51, 58.13 -96.66, 58.25 -94.43 C58.36 -92.21, 58.56 -89.67, 58.14 -87.18 C57.72 -84.69, 56.7 -81.75, 55.71 -79.49 C54.72 -77.22, 53.67 -75.61, 52.2 -73.58 C50.72 -71.54, 49.22 -69.55, 46.86 -67.28 C44.5 -65, 40.77 -62.01, 38.04 -59.91 C35.3 -57.81, 32.86 -56.13, 30.43 -54.68 C28 -53.24, 26.47 -52.63, 23.47 -51.25 C20.46 -49.87, 15.77 -47.88, 12.42 -46.42 C9.07 -44.95, 6.18 -43.8, 3.34 -42.49 C0.5 -41.18, -2.05 -40.03, -4.64 -38.54 C-7.23 -37.06, -10.19 -35.32, -12.22 -33.6 C-14.25 -31.88, -15.74 -29.85, -16.81 -28.21 C-17.87 -26.58, -18.29 -25.3, -18.61 -23.79 C-18.93 -22.27, -18.92 -20.63, -18.72 -19.14 C-18.52 -17.66, -18.1 -16.26, -17.41 -14.89 C-16.71 -13.52, -15.89 -12.34, -14.55 -10.93 C-13.22 -9.51, -11.3 -7.93, -9.39 -6.41 C-7.49 -4.88, -4.68 -2.84, -3.12 -1.77 C-1.55 -0.7, -0.52 -0.29, 0 0 M0 0 C0.39 0.26, 1.88 1.18, 2.33 1.59 C2.78 1.99, 2.63 1.89, 2.69 2.41 C2.74 2.94, 2.64 3.82, 2.66 4.73 C2.69 5.64, 2.8 7.03, 2.83 7.88 C2.87 8.73, 3 9.56, 2.88 9.85 C2.75 10.14, 2.76 9.99, 2.08 9.6 C1.39 9.21, 0.06 8.32, -1.25 7.52 C-2.57 6.71, -3.92 5.92, -5.83 4.75 C-7.74 3.58, -10.73 1.84, -12.69 0.51 C-14.64 -0.82, -16.01 -1.95, -17.56 -3.23 C-19.12 -4.5, -20.7 -5.74, -22.03 -7.11 C-23.36 -8.49, -24.62 -10.06, -25.57 -11.49 C-26.52 -12.92, -27.23 -14.32, -27.7 -15.69 C-28.18 -17.07, -28.37 -18.27, -28.43 -19.75 C-28.49 -21.24, -28.45 -22.85, -28.05 -24.61 C-27.65 -26.36, -27.04 -28.47, -26.04 -30.29 C-25.04 -32.11, -23.82 -33.79, -22.06 -35.52 C-20.29 -37.25, -17.96 -38.84, -15.45 -40.66 C-12.94 -42.48, -9.44 -44.88, -7 -46.43 C-4.57 -47.98, -3.74 -48.53, -0.83 -49.95 C2.09 -51.37, 6.84 -53.4, 10.5 -54.95 C14.16 -56.5, 18.27 -58.05, 21.11 -59.23 C23.95 -60.4, 25.03 -60.66, 27.54 -62.01 C30.06 -63.36, 33.65 -65.46, 36.2 -67.33 C38.74 -69.2, 41.05 -71.31, 42.8 -73.23 C44.56 -75.15, 45.73 -76.76, 46.75 -78.85 C47.76 -80.94, 48.48 -83.52, 48.89 -85.77 C49.3 -88.03, 49.64 -89.21, 49.22 -92.38 C48.8 -95.56, 47.73 -101.18, 46.38 -104.85 C45.02 -108.51, 42.98 -111.6, 41.07 -114.37 C39.17 -117.14, 37.24 -119.25, 34.95 -121.46 C32.66 -123.67, 29.1 -126.27, 27.33 -127.65 C25.57 -129.02, 24.95 -129.18, 24.34 -129.69 C23.72 -130.2, 23.77 -130.04, 23.65 -130.69 C23.53 -131.35, 23.59 -132.11, 23.63 -133.62 C23.67 -135.13, 23.84 -138.6, 23.89 -139.76 C23.93 -140.92, 23.78 -140.49, 23.89 -140.58 C24 -140.67, 23.91 -140.7, 24.54 -140.32 C25.18 -139.94, 26.3 -139.25, 27.72 -138.3 C29.13 -137.35, 31.38 -135.83, 33.03 -134.64 C34.69 -133.44, 36.06 -132.43, 37.63 -131.14 C39.2 -129.85, 40.89 -128.34, 42.45 -126.89 C44 -125.45, 45.59 -124.05, 46.94 -122.49 C48.3 -120.93, 49.49 -119.24, 50.58 -117.52 C51.68 -115.8, 52.63 -114.01, 53.5 -112.19 C54.38 -110.36, 55.18 -108.52, 55.84 -106.57 C56.5 -104.63, 57.05 -102.56, 57.45 -100.53 C57.86 -98.51, 58.13 -96.66, 58.25 -94.43 C58.36 -92.21, 58.56 -89.67, 58.14 -87.18 C57.72 -84.69, 56.7 -81.75, 55.71 -79.49 C54.72 -77.22, 53.67 -75.61, 52.2 -73.58 C50.72 -71.54, 49.22 -69.55, 46.86 -67.28 C44.5 -65, 40.77 -62.01, 38.04 -59.91 C35.3 -57.81, 32.86 -56.13, 30.43 -54.68 C28 -53.24, 26.47 -52.63, 23.47 -51.25 C20.46 -49.87, 15.77 -47.88, 12.42 -46.42 C9.07 -44.95, 6.18 -43.8, 3.34 -42.49 C0.5 -41.18, -2.05 -40.03, -4.64 -38.54 C-7.23 -37.06, -10.19 -35.32, -12.22 -33.6 C-14.25 -31.88, -15.74 -29.85, -16.81 -28.21 C-17.87 -26.58, -18.29 -25.3, -18.61 -23.79 C-18.93 -22.27, -18.92 -20.63, -18.72 -19.14 C-18.52 -17.66, -18.1 -16.26, -17.41 -14.89 C-16.71 -13.52, -15.89 -12.34, -14.55 -10.93 C-13.22 -9.51, -11.3 -7.93, -9.39 -6.41 C-7.49 -4.88, -4.68 -2.84, -3.12 -1.77 C-1.55 -0.7, -0.52 -0.29, 0 0" stroke="#E1E1E1" stroke-width="2" fill="none"></path></g></g><mask></mask><g stroke-linecap="round"><g transform="translate(70.95642734773173 231.8942512853755) rotate(0 -6.097032107375526 -59.57394741021926)"><path d="M0 0 C-0.02 0.64, -0.09 2.8, -0.11 3.84 C-0.13 4.89, 0.05 5.75, -0.11 6.29 C-0.28 6.82, -0.41 6.77, -1.09 7.06 C-1.77 7.35, -3.2 7.7, -4.2 8.04 C-5.2 8.38, -6.07 8.7, -7.1 9.09 C-8.13 9.48, -9.56 10.08, -10.39 10.39 C-11.23 10.71, -11.79 11.08, -12.11 10.99 C-12.44 10.91, -12.33 10.66, -12.36 9.9 C-12.38 9.13, -12.29 8.01, -12.27 6.41 C-12.25 4.82, -12.25 3.34, -12.25 0.34 C-12.26 -2.66, -12.27 -7.62, -12.31 -11.59 C-12.34 -15.57, -12.37 -19.44, -12.45 -23.5 C-12.52 -27.56, -12.63 -31.98, -12.74 -35.94 C-12.85 -39.9, -13.03 -43.72, -13.1 -47.25 C-13.18 -50.79, -13.13 -53.84, -13.19 -57.16 C-13.24 -60.47, -13.3 -63.51, -13.41 -67.15 C-13.52 -70.78, -13.67 -74.66, -13.83 -78.95 C-13.99 -83.24, -14.22 -88.57, -14.37 -92.88 C-14.53 -97.2, -14.66 -100.72, -14.76 -104.84 C-14.86 -108.95, -14.91 -113.94, -14.96 -117.58 C-15.01 -121.21, -15.07 -124.91, -15.07 -126.64 C-15.07 -128.37, -15.38 -127.67, -14.96 -127.96 C-14.53 -128.24, -13.41 -128.2, -12.52 -128.33 C-11.62 -128.47, -10.82 -128.56, -9.59 -128.75 C-8.36 -128.95, -6.6 -129.28, -5.13 -129.5 C-3.67 -129.72, -2.1 -129.98, -0.8 -130.08 C0.5 -130.19, 2.04 -130.62, 2.65 -130.14 C3.26 -129.67, 2.86 -128.45, 2.88 -127.24 C2.9 -126.02, 2.8 -125.14, 2.77 -122.86 C2.74 -120.58, 2.77 -117.54, 2.72 -113.57 C2.67 -109.6, 2.56 -103.44, 2.47 -99.01 C2.39 -94.58, 2.29 -89.75, 2.22 -87.01 C2.16 -84.27, 2.28 -88.43, 2.07 -82.58 C1.87 -76.73, 1.22 -59.48, 0.97 -51.88 C0.73 -44.28, 0.73 -42.26, 0.61 -36.95 C0.5 -31.65, 0.39 -26.23, 0.29 -20.07 C0.19 -13.91, 0.05 -3.34, 0 0 M0 0 C-0.02 0.64, -0.09 2.8, -0.11 3.84 C-0.13 4.89, 0.05 5.75, -0.11 6.29 C-0.28 6.82, -0.41 6.77, -1.09 7.06 C-1.77 7.35, -3.2 7.7, -4.2 8.04 C-5.2 8.38, -6.07 8.7, -7.1 9.09 C-8.13 9.48, -9.56 10.08, -10.39 10.39 C-11.23 10.71, -11.79 11.08, -12.11 10.99 C-12.44 10.91, -12.33 10.66, -12.36 9.9 C-12.38 9.13, -12.29 8.01, -12.27 6.41 C-12.25 4.82, -12.25 3.34, -12.25 0.34 C-12.26 -2.66, -12.27 -7.62, -12.31 -11.59 C-12.34 -15.57, -12.37 -19.44, -12.45 -23.5 C-12.52 -27.56, -12.63 -31.98, -12.74 -35.94 C-12.85 -39.9, -13.03 -43.72, -13.1 -47.25 C-13.18 -50.79, -13.13 -53.84, -13.19 -57.16 C-13.24 -60.47, -13.3 -63.51, -13.41 -67.15 C-13.52 -70.78, -13.67 -74.66, -13.83 -78.95 C-13.99 -83.24, -14.22 -88.57, -14.37 -92.88 C-14.53 -97.2, -14.66 -100.72, -14.76 -104.84 C-14.86 -108.95, -14.91 -113.94, -14.96 -117.58 C-15.01 -121.21, -15.07 -124.91, -15.07 -126.64 C-15.07 -128.37, -15.38 -127.67, -14.96 -127.96 C-14.53 -128.24, -13.41 -128.2, -12.52 -128.33 C-11.62 -128.47, -10.82 -128.56, -9.59 -128.75 C-8.36 -128.95, -6.6 -129.28, -5.13 -129.5 C-3.67 -129.72, -2.1 -129.98, -0.8 -130.08 C0.5 -130.19, 2.04 -130.62, 2.65 -130.14 C3.26 -129.67, 2.86 -128.45, 2.88 -127.24 C2.9 -126.02, 2.8 -125.14, 2.77 -122.86 C2.74 -120.58, 2.77 -117.54, 2.72 -113.57 C2.67 -109.6, 2.56 -103.44, 2.47 -99.01 C2.39 -94.58, 2.29 -89.75, 2.22 -87.01 C2.16 -84.27, 2.28 -88.43, 2.07 -82.58 C1.87 -76.73, 1.22 -59.48, 0.97 -51.88 C0.73 -44.28, 0.73 -42.26, 0.61 -36.95 C0.5 -31.65, 0.39 -26.23, 0.29 -20.07 C0.19 -13.91, 0.05 -3.34, 0 0" stroke="#E1E1E1" stroke-width="2" fill="none"></path></g></g><mask></mask><g stroke-linecap="round"><g transform="translate(66.06256740596655 79.22176076731921) rotate(0 -1.3005672931485606 -34.08047608080142)"><path d="M0 0 C-1.36 0.14, -6.32 0.7, -8.15 0.86 C-9.98 1.02, -10.48 1.18, -11 0.98 C-11.52 0.79, -11.21 1.35, -11.26 -0.31 C-11.32 -1.97, -11.32 -5.87, -11.33 -8.99 C-11.33 -12.11, -11.27 -15.84, -11.3 -19.03 C-11.33 -22.23, -11.42 -25.97, -11.51 -28.18 C-11.61 -30.4, -11.6 -31.31, -11.88 -32.33 C-12.15 -33.34, -12.62 -33.71, -13.15 -34.29 C-13.69 -34.87, -14.38 -35.04, -15.09 -35.81 C-15.79 -36.57, -16.69 -37.64, -17.37 -38.86 C-18.04 -40.09, -18.74 -41.47, -19.16 -43.14 C-19.58 -44.82, -19.87 -46.74, -19.89 -48.9 C-19.9 -51.05, -19.77 -53.96, -19.24 -56.08 C-18.71 -58.2, -17.92 -59.96, -16.7 -61.62 C-15.48 -63.28, -13.76 -64.85, -11.93 -66.03 C-10.1 -67.21, -7.75 -68.18, -5.74 -68.7 C-3.74 -69.22, -1.9 -69.32, 0.11 -69.14 C2.12 -68.97, 4.44 -68.47, 6.31 -67.67 C8.19 -66.87, 9.88 -65.72, 11.35 -64.33 C12.82 -62.93, 14.15 -61.36, 15.14 -59.3 C16.13 -57.25, 16.97 -54.47, 17.28 -52.02 C17.6 -49.56, 17.43 -46.83, 17.01 -44.58 C16.59 -42.34, 15.66 -40.11, 14.76 -38.54 C13.85 -36.98, 12.45 -36.02, 11.6 -35.19 C10.75 -34.37, 10.13 -34.21, 9.64 -33.58 C9.15 -32.95, 8.85 -32.53, 8.68 -31.42 C8.5 -30.3, 8.6 -29.32, 8.58 -26.91 C8.56 -24.5, 8.54 -20.24, 8.54 -16.97 C8.54 -13.71, 8.6 -9.65, 8.6 -7.34 C8.59 -5.03, 8.54 -4.13, 8.51 -3.12 C8.48 -2.11, 8.67 -1.67, 8.42 -1.28 C8.17 -0.89, 7.88 -0.95, 7.02 -0.79 C6.15 -0.63, 4.41 -0.45, 3.24 -0.32 C2.07 -0.19, 0.54 -0.05, 0 0 M0 0 C-1.36 0.14, -6.32 0.7, -8.15 0.86 C-9.98 1.02, -10.48 1.18, -11 0.98 C-11.52 0.79, -11.21 1.35, -11.26 -0.31 C-11.32 -1.97, -11.32 -5.87, -11.33 -8.99 C-11.33 -12.11, -11.27 -15.84, -11.3 -19.03 C-11.33 -22.23, -11.42 -25.97, -11.51 -28.18 C-11.61 -30.4, -11.6 -31.31, -11.88 -32.33 C-12.15 -33.34, -12.62 -33.71, -13.15 -34.29 C-13.69 -34.87, -14.38 -35.04, -15.09 -35.81 C-15.79 -36.57, -16.69 -37.64, -17.37 -38.86 C-18.04 -40.09, -18.74 -41.47, -19.16 -43.14 C-19.58 -44.82, -19.87 -46.74, -19.89 -48.9 C-19.9 -51.05, -19.77 -53.96, -19.24 -56.08 C-18.71 -58.2, -17.92 -59.96, -16.7 -61.62 C-15.48 -63.28, -13.76 -64.85, -11.93 -66.03 C-10.1 -67.21, -7.75 -68.18, -5.74 -68.7 C-3.74 -69.22, -1.9 -69.32, 0.11 -69.14 C2.12 -68.97, 4.44 -68.47, 6.31 -67.67 C8.19 -66.87, 9.88 -65.72, 11.35 -64.33 C12.82 -62.93, 14.15 -61.36, 15.14 -59.3 C16.13 -57.25, 16.97 -54.47, 17.28 -52.02 C17.6 -49.56, 17.43 -46.83, 17.01 -44.58 C16.59 -42.34, 15.66 -40.11, 14.76 -38.54 C13.85 -36.98, 12.45 -36.02, 11.6 -35.19 C10.75 -34.37, 10.13 -34.21, 9.64 -33.58 C9.15 -32.95, 8.85 -32.53, 8.68 -31.42 C8.5 -30.3, 8.6 -29.32, 8.58 -26.91 C8.56 -24.5, 8.54 -20.24, 8.54 -16.97 C8.54 -13.71, 8.6 -9.65, 8.6 -7.34 C8.59 -5.03, 8.54 -4.13, 8.51 -3.12 C8.48 -2.11, 8.67 -1.67, 8.42 -1.28 C8.17 -0.89, 7.88 -0.95, 7.02 -0.79 C6.15 -0.63, 4.41 -0.45, 3.24 -0.32 C2.07 -0.19, 0.54 -0.05, 0 0" stroke="#E1E1E1" stroke-width="2" fill="none"></path></g></g><mask></mask><g stroke-linecap="round"><g transform="translate(49.79404704980334 147.44438440209888) rotate(0 -3.7175625765521545 -25.49641110373068)"><path d="M0 0 C0.46 0.24, 2.11 1.09, 2.73 1.42 C3.35 1.75, 3.53 1.4, 3.73 1.98 C3.93 2.56, 3.89 3.81, 3.94 4.9 C3.98 6, 3.99 7.27, 4 8.56 C4.01 9.85, 4.19 12.03, 4.01 12.63 C3.82 13.23, 4.35 12.91, 2.88 12.17 C1.42 11.43, -2.34 9.47, -4.78 8.18 C-7.23 6.88, -9.36 5.72, -11.81 4.42 C-14.25 3.11, -16.89 1.86, -19.47 0.35 C-22.06 -1.16, -24.92 -2.74, -27.31 -4.63 C-29.71 -6.51, -32.06 -8.86, -33.83 -10.95 C-35.61 -13.04, -37.02 -14.97, -37.96 -17.18 C-38.91 -19.39, -39.24 -21.95, -39.52 -24.2 C-39.8 -26.45, -39.92 -28.35, -39.63 -30.68 C-39.34 -33.01, -38.87 -35.75, -37.8 -38.21 C-36.72 -40.67, -35.13 -43.15, -33.18 -45.43 C-31.24 -47.7, -28.75 -50.04, -26.12 -51.85 C-23.49 -53.65, -20.47 -54.98, -17.4 -56.25 C-14.34 -57.52, -11.12 -58.57, -7.74 -59.49 C-4.36 -60.4, -1.25 -61.15, 2.89 -61.76 C7.04 -62.36, 12.88 -62.83, 17.11 -63.14 C21.33 -63.45, 25.73 -63.54, 28.25 -63.62 C30.76 -63.7, 31.54 -63.62, 32.19 -63.62 M0 0 C0.46 0.24, 2.11 1.09, 2.73 1.42 C3.35 1.75, 3.53 1.4, 3.73 1.98 C3.93 2.56, 3.89 3.81, 3.94 4.9 C3.98 6, 3.99 7.27, 4 8.56 C4.01 9.85, 4.19 12.03, 4.01 12.63 C3.82 13.23, 4.35 12.91, 2.88 12.17 C1.42 11.43, -2.34 9.47, -4.78 8.18 C-7.23 6.88, -9.36 5.72, -11.81 4.42 C-14.25 3.11, -16.89 1.86, -19.47 0.35 C-22.06 -1.16, -24.92 -2.74, -27.31 -4.63 C-29.71 -6.51, -32.06 -8.86, -33.83 -10.95 C-35.61 -13.04, -37.02 -14.97, -37.96 -17.18 C-38.91 -19.39, -39.24 -21.95, -39.52 -24.2 C-39.8 -26.45, -39.92 -28.35, -39.63 -30.68 C-39.34 -33.01, -38.87 -35.75, -37.8 -38.21 C-36.72 -40.67, -35.13 -43.15, -33.18 -45.43 C-31.24 -47.7, -28.75 -50.04, -26.12 -51.85 C-23.49 -53.65, -20.47 -54.98, -17.4 -56.25 C-14.34 -57.52, -11.12 -58.57, -7.74 -59.49 C-4.36 -60.4, -1.25 -61.15, 2.89 -61.76 C7.04 -62.36, 12.88 -62.83, 17.11 -63.14 C21.33 -63.45, 25.73 -63.54, 28.25 -63.62 C30.76 -63.7, 31.54 -63.62, 32.19 -63.62" stroke="#E1E1E1" stroke-width="2" fill="none"></path></g></g><mask></mask><g stroke-linecap="round"><g transform="translate(49.731343493545864 147.38470415757) rotate(0 4.269578855846703 -25.813983002724854)"><path d="M0 0 C-0.69 -0.35, -2.61 -1.26, -4.16 -2.1 C-5.71 -2.94, -7.63 -3.96, -9.3 -5.02 C-10.97 -6.07, -12.62 -7.25, -14.18 -8.45 C-15.74 -9.64, -17.34 -10.87, -18.66 -12.19 C-19.99 -13.51, -21.12 -14.85, -22.13 -16.37 C-23.14 -17.89, -24.14 -19.42, -24.73 -21.31 C-25.33 -23.19, -25.76 -25.7, -25.73 -27.66 C-25.7 -29.63, -25.45 -31.26, -24.57 -33.09 C-23.69 -34.93, -22.12 -37.02, -20.45 -38.66 C-18.79 -40.31, -16.93 -41.69, -14.59 -42.95 C-12.25 -44.21, -8.9 -45.42, -6.39 -46.23 C-3.89 -47.05, -2.23 -47.37, 0.44 -47.84 C3.11 -48.32, 6.14 -48.66, 9.64 -49.08 C13.15 -49.5, 18.43 -50.04, 21.45 -50.37 C24.47 -50.7, 25.64 -50.86, 27.78 -51.07 C29.92 -51.28, 33.19 -51.53, 34.27 -51.63 M0 0 C-0.69 -0.35, -2.61 -1.26, -4.16 -2.1 C-5.71 -2.94, -7.63 -3.96, -9.3 -5.02 C-10.97 -6.07, -12.62 -7.25, -14.18 -8.45 C-15.74 -9.64, -17.34 -10.87, -18.66 -12.19 C-19.99 -13.51, -21.12 -14.85, -22.13 -16.37 C-23.14 -17.89, -24.14 -19.42, -24.73 -21.31 C-25.33 -23.19, -25.76 -25.7, -25.73 -27.66 C-25.7 -29.63, -25.45 -31.26, -24.57 -33.09 C-23.69 -34.93, -22.12 -37.02, -20.45 -38.66 C-18.79 -40.31, -16.93 -41.69, -14.59 -42.95 C-12.25 -44.21, -8.9 -45.42, -6.39 -46.23 C-3.89 -47.05, -2.23 -47.37, 0.44 -47.84 C3.11 -48.32, 6.14 -48.66, 9.64 -49.08 C13.15 -49.5, 18.43 -50.04, 21.45 -50.37 C24.47 -50.7, 25.64 -50.86, 27.78 -51.07 C29.92 -51.28, 33.19 -51.53, 34.27 -51.63" stroke="#E1E1E1" stroke-width="2" fill="none"></path></g></g><mask></mask><g stroke-linecap="round"><g transform="translate(123.43421144719468 89.42205149253823) rotate(339.22540842798173 3.3426043757508523 -3.0175552111368233)"><path d="M0 0 C0.81 0.25, 3.48 1.19, 4.85 1.5 C6.21 1.8, 7.34 1.83, 8.2 1.82 C9.05 1.8, 9.61 1.67, 9.96 1.38 C10.31 1.1, 10.37 0.66, 10.31 0.11 C10.25 -0.44, 10 -1.17, 9.6 -1.89 C9.2 -2.62, 8.55 -3.5, 7.92 -4.26 C7.28 -5.02, 6.61 -5.88, 5.78 -6.47 C4.95 -7.06, 3.95 -7.58, 2.95 -7.81 C1.95 -8.04, 0.71 -8.07, -0.21 -7.85 C-1.14 -7.64, -2.03 -7.04, -2.59 -6.52 C-3.16 -6, -3.51 -5.37, -3.63 -4.72 C-3.75 -4.08, -3.62 -3.24, -3.33 -2.64 C-3.04 -2.04, -2.45 -1.55, -1.89 -1.11 C-1.34 -0.67, -0.32 -0.19, 0 0 M0 0 C0.81 0.25, 3.48 1.19, 4.85 1.5 C6.21 1.8, 7.34 1.83, 8.2 1.82 C9.05 1.8, 9.61 1.67, 9.96 1.38 C10.31 1.1, 10.37 0.66, 10.31 0.11 C10.25 -0.44, 10 -1.17, 9.6 -1.89 C9.2 -2.62, 8.55 -3.5, 7.92 -4.26 C7.28 -5.02, 6.61 -5.88, 5.78 -6.47 C4.95 -7.06, 3.95 -7.58, 2.95 -7.81 C1.95 -8.04, 0.71 -8.07, -0.21 -7.85 C-1.14 -7.64, -2.03 -7.04, -2.59 -6.52 C-3.16 -6, -3.51 -5.37, -3.63 -4.72 C-3.75 -4.08, -3.62 -3.24, -3.33 -2.64 C-3.04 -2.04, -2.45 -1.55, -1.89 -1.11 C-1.34 -0.67, -0.32 -0.19, 0 0" stroke="#E1E1E1" stroke-width="2" fill="none"></path></g></g><mask></mask><g stroke-linecap="round"><g transform="translate(160.63413092539668 94.84431211573974) rotate(354.9191136047966 6.313224194140275 2.5767426646034437)"><path d="M0 0 C0.3 0.08, 1.05 0.35, 1.82 0.5 C2.59 0.65, 3.73 0.84, 4.59 0.9 C5.46 0.96, 6.22 0.94, 7.01 0.89 C7.8 0.84, 8.6 0.75, 9.32 0.59 C10.04 0.44, 10.68 0.26, 11.32 -0.02 C11.95 -0.31, 12.81 -1.06, 13.12 -1.12 C13.43 -1.17, 13.4 -0.69, 13.17 -0.35 C12.94 -0.01, 12.2 0.59, 11.73 0.95 C11.26 1.3, 10.86 1.59, 10.35 1.79 C9.84 1.98, 8.88 1.94, 8.68 2.1 C8.49 2.26, 8.85 2.46, 9.17 2.75 C9.49 3.04, 10.24 3.49, 10.59 3.85 C10.94 4.21, 11.13 4.52, 11.27 4.93 C11.4 5.33, 11.57 6.19, 11.4 6.27 C11.23 6.36, 10.72 5.78, 10.26 5.44 C9.79 5.11, 9.27 4.65, 8.62 4.28 C7.96 3.9, 7.11 3.45, 6.34 3.18 C5.57 2.92, 4.83 2.8, 4.01 2.69 C3.19 2.58, 2.17 2.58, 1.41 2.51 C0.65 2.44, -0.22 2.31, -0.54 2.27 M0 0 C0.3 0.08, 1.05 0.35, 1.82 0.5 C2.59 0.65, 3.73 0.84, 4.59 0.9 C5.46 0.96, 6.22 0.94, 7.01 0.89 C7.8 0.84, 8.6 0.75, 9.32 0.59 C10.04 0.44, 10.68 0.26, 11.32 -0.02 C11.95 -0.31, 12.81 -1.06, 13.12 -1.12 C13.43 -1.17, 13.4 -0.69, 13.17 -0.35 C12.94 -0.01, 12.2 0.59, 11.73 0.95 C11.26 1.3, 10.86 1.59, 10.35 1.79 C9.84 1.98, 8.88 1.94, 8.68 2.1 C8.49 2.26, 8.85 2.46, 9.17 2.75 C9.49 3.04, 10.24 3.49, 10.59 3.85 C10.94 4.21, 11.13 4.52, 11.27 4.93 C11.4 5.33, 11.57 6.19, 11.4 6.27 C11.23 6.36, 10.72 5.78, 10.26 5.44 C9.79 5.11, 9.27 4.65, 8.62 4.28 C7.96 3.9, 7.11 3.45, 6.34 3.18 C5.57 2.92, 4.83 2.8, 4.01 2.69 C3.19 2.58, 2.17 2.58, 1.41 2.51 C0.65 2.44, -0.22 2.31, -0.54 2.27" stroke="#E1E1E1" stroke-width="2" fill="none"></path></g></g><mask></mask><g stroke-linecap="round"><g transform="translate(81.10641146676062 83.80306062945056) rotate(0 46.31243471929065 8.208144426773288)"><path d="M0 0 C0.83 -0.01, 3.14 -0.01, 5.01 -0.03 C6.87 -0.05, 9.29 -0.11, 11.21 -0.13 C13.13 -0.14, 14.91 -0.14, 16.53 -0.14 C18.15 -0.15, 19.63 -0.13, 20.91 -0.15 C22.18 -0.18, 23.07 -0.15, 24.17 -0.29 C25.28 -0.43, 26.15 -0.57, 27.53 -1.01 C28.91 -1.46, 31.12 -2.42, 32.43 -2.97 C33.75 -3.53, 34.39 -3.91, 35.42 -4.33 C36.45 -4.76, 37.58 -5.19, 38.63 -5.51 C39.67 -5.84, 40.57 -6.1, 41.68 -6.26 C42.79 -6.43, 44.19 -6.49, 45.29 -6.5 C46.4 -6.52, 47.3 -6.48, 48.32 -6.35 C49.34 -6.23, 50.43 -6.03, 51.42 -5.74 C52.41 -5.45, 53.2 -5.13, 54.27 -4.62 C55.34 -4.1, 56.53 -3.44, 57.85 -2.64 C59.17 -1.84, 60.93 -0.64, 62.19 0.19 C63.44 1.02, 64.22 1.65, 65.37 2.34 C66.53 3.03, 67.92 3.7, 69.13 4.31 C70.33 4.92, 71.45 5.42, 72.61 6 C73.78 6.59, 75.19 7.28, 76.1 7.85 C77.01 8.41, 77.6 8.95, 78.07 9.4 C78.55 9.85, 78.74 10.21, 78.95 10.55 C79.16 10.89, 79.17 11.25, 79.34 11.44 C79.51 11.64, 79.53 11.62, 79.98 11.72 C80.42 11.81, 81.22 11.95, 82.01 12.01 C82.8 12.07, 83.67 12.16, 84.7 12.09 C85.72 12.01, 87.22 11.79, 88.15 11.55 C89.07 11.32, 89.68 10.98, 90.25 10.69 C90.83 10.4, 91.2 10.06, 91.59 9.81 C91.99 9.55, 92.54 9.04, 92.62 9.17 C92.71 9.31, 92.4 10.17, 92.1 10.63 C91.8 11.08, 91.25 11.54, 90.82 11.88 C90.39 12.21, 89.99 12.45, 89.51 12.63 C89.04 12.82, 88.07 12.81, 87.96 12.99 C87.85 13.16, 88.49 13.44, 88.84 13.69 C89.2 13.93, 89.76 14.17, 90.09 14.45 C90.43 14.73, 90.67 15.01, 90.86 15.37 C91.04 15.74, 91.26 16.46, 91.2 16.64 C91.14 16.82, 91.03 16.73, 90.48 16.45 C89.94 16.18, 88.77 15.34, 87.95 14.97 C87.14 14.6, 86.34 14.39, 85.61 14.22 C84.88 14.06, 84.31 14.01, 83.56 13.97 C82.8 13.92, 81.71 13.95, 81.09 13.96 C80.47 13.96, 80.18 14, 79.83 14 C79.48 14, 79.19 13.86, 78.98 13.95 C78.77 14.04, 78.75 14.31, 78.58 14.53 C78.41 14.76, 78.23 15.04, 77.97 15.31 C77.72 15.58, 77.45 15.83, 77.04 16.16 C76.63 16.49, 76.23 16.87, 75.5 17.29 C74.77 17.72, 73.69 18.32, 72.68 18.73 C71.66 19.14, 70.67 19.42, 69.41 19.74 C68.14 20.06, 66.43 20.42, 65.09 20.66 C63.76 20.9, 62.79 21, 61.38 21.18 C59.96 21.36, 58.08 21.58, 56.59 21.75 C55.1 21.93, 53.73 22.09, 52.43 22.23 C51.13 22.36, 49.96 22.45, 48.77 22.57 C47.59 22.68, 46.67 22.87, 45.34 22.92 C44 22.96, 42.33 22.95, 40.76 22.84 C39.19 22.74, 37.81 22.7, 35.93 22.29 C34.04 21.88, 31.36 21.11, 29.46 20.38 C27.56 19.66, 26.12 18.86, 24.5 17.96 C22.89 17.07, 21.25 15.76, 19.76 15 C18.28 14.25, 17.19 13.88, 15.58 13.43 C13.97 12.98, 12.29 12.54, 10.11 12.3 C7.93 12.05, 3.77 12.02, 2.5 11.97 M0 0 C0.83 -0.01, 3.14 -0.01, 5.01 -0.03 C6.87 -0.05, 9.29 -0.11, 11.21 -0.13 C13.13 -0.14, 14.91 -0.14, 16.53 -0.14 C18.15 -0.15, 19.63 -0.13, 20.91 -0.15 C22.18 -0.18, 23.07 -0.15, 24.17 -0.29 C25.28 -0.43, 26.15 -0.57, 27.53 -1.01 C28.91 -1.46, 31.12 -2.42, 32.43 -2.97 C33.75 -3.53, 34.39 -3.91, 35.42 -4.33 C36.45 -4.76, 37.58 -5.19, 38.63 -5.51 C39.67 -5.84, 40.57 -6.1, 41.68 -6.26 C42.79 -6.43, 44.19 -6.49, 45.29 -6.5 C46.4 -6.52, 47.3 -6.48, 48.32 -6.35 C49.34 -6.23, 50.43 -6.03, 51.42 -5.74 C52.41 -5.45, 53.2 -5.13, 54.27 -4.62 C55.34 -4.1, 56.53 -3.44, 57.85 -2.64 C59.17 -1.84, 60.93 -0.64, 62.19 0.19 C63.44 1.02, 64.22 1.65, 65.37 2.34 C66.53 3.03, 67.92 3.7, 69.13 4.31 C70.33 4.92, 71.45 5.42, 72.61 6 C73.78 6.59, 75.19 7.28, 76.1 7.85 C77.01 8.41, 77.6 8.95, 78.07 9.4 C78.55 9.85, 78.74 10.21, 78.95 10.55 C79.16 10.89, 79.17 11.25, 79.34 11.44 C79.51 11.64, 79.53 11.62, 79.98 11.72 C80.42 11.81, 81.22 11.95, 82.01 12.01 C82.8 12.07, 83.67 12.16, 84.7 12.09 C85.72 12.01, 87.22 11.79, 88.15 11.55 C89.07 11.32, 89.68 10.98, 90.25 10.69 C90.83 10.4, 91.2 10.06, 91.59 9.81 C91.99 9.55, 92.54 9.04, 92.62 9.17 C92.71 9.31, 92.4 10.17, 92.1 10.63 C91.8 11.08, 91.25 11.54, 90.82 11.88 C90.39 12.21, 89.99 12.45, 89.51 12.63 C89.04 12.82, 88.07 12.81, 87.96 12.99 C87.85 13.16, 88.49 13.44, 88.84 13.69 C89.2 13.93, 89.76 14.17, 90.09 14.45 C90.43 14.73, 90.67 15.01, 90.86 15.37 C91.04 15.74, 91.26 16.46, 91.2 16.64 C91.14 16.82, 91.03 16.73, 90.48 16.45 C89.94 16.18, 88.77 15.34, 87.95 14.97 C87.14 14.6, 86.34 14.39, 85.61 14.22 C84.88 14.06, 84.31 14.01, 83.56 13.97 C82.8 13.92, 81.71 13.95, 81.09 13.96 C80.47 13.96, 80.18 14, 79.83 14 C79.48 14, 79.19 13.86, 78.98 13.95 C78.77 14.04, 78.75 14.31, 78.58 14.53 C78.41 14.76, 78.23 15.04, 77.97 15.31 C77.72 15.58, 77.45 15.83, 77.04 16.16 C76.63 16.49, 76.23 16.87, 75.5 17.29 C74.77 17.72, 73.69 18.32, 72.68 18.73 C71.66 19.14, 70.67 19.42, 69.41 19.74 C68.14 20.06, 66.43 20.42, 65.09 20.66 C63.76 20.9, 62.79 21, 61.38 21.18 C59.96 21.36, 58.08 21.58, 56.59 21.75 C55.1 21.93, 53.73 22.09, 52.43 22.23 C51.13 22.36, 49.96 22.45, 48.77 22.57 C47.59 22.68, 46.67 22.87, 45.34 22.92 C44 22.96, 42.33 22.95, 40.76 22.84 C39.19 22.74, 37.81 22.7, 35.93 22.29 C34.04 21.88, 31.36 21.11, 29.46 20.38 C27.56 19.66, 26.12 18.86, 24.5 17.96 C22.89 17.07, 21.25 15.76, 19.76 15 C18.28 14.25, 17.19 13.88, 15.58 13.43 C13.97 12.98, 12.29 12.54, 10.11 12.3 C7.93 12.05, 3.77 12.02, 2.5 11.97" stroke="#E1E1E1" stroke-width="2" fill="none"></path></g></g><mask></mask></svg>