<svg version="1.1" xmlns="http://www.w3.org/2000/svg" viewBox="0 0 120.1802413979076 232.56442704850815" width="120.1802413979076" height="232.56442704850815" class="excalidraw-svg"><!-- svg-source:excalidraw --><metadata></metadata><defs><style class="style-fonts">
      </style></defs><rect x="0" y="0" width="120.1802413979076" height="232.56442704850815" fill="#000000"></rect><g stroke-linecap="round" transform="translate(44.689120453806936 15.363167952871663) rotate(0 15.44533690720391 15.445336907204364)"><path d="M30.89 15.45 C30.89 16.34, 30.81 17.25, 30.66 18.13 C30.5 19.01, 30.26 19.89, 29.96 20.73 C29.65 21.57, 29.27 22.39, 28.82 23.17 C28.37 23.94, 27.85 24.69, 27.28 25.37 C26.7 26.06, 26.06 26.7, 25.37 27.28 C24.69 27.85, 23.94 28.37, 23.17 28.82 C22.39 29.27, 21.57 29.65, 20.73 29.96 C19.89 30.26, 19.01 30.5, 18.13 30.66 C17.25 30.81, 16.34 30.89, 15.45 30.89 C14.55 30.89, 13.64 30.81, 12.76 30.66 C11.88 30.5, 11 30.26, 10.16 29.96 C9.32 29.65, 8.5 29.27, 7.72 28.82 C6.95 28.37, 6.2 27.85, 5.52 27.28 C4.83 26.7, 4.19 26.06, 3.61 25.37 C3.04 24.69, 2.52 23.94, 2.07 23.17 C1.62 22.39, 1.24 21.57, 0.93 20.73 C0.63 19.89, 0.39 19.01, 0.23 18.13 C0.08 17.25, 0 16.34, 0 15.45 C0 14.55, 0.08 13.64, 0.23 12.76 C0.39 11.88, 0.63 11, 0.93 10.16 C1.24 9.32, 1.62 8.5, 2.07 7.72 C2.52 6.95, 3.04 6.2, 3.61 5.52 C4.19 4.83, 4.83 4.19, 5.52 3.61 C6.2 3.04, 6.95 2.52, 7.72 2.07 C8.5 1.62, 9.32 1.24, 10.16 0.93 C11 0.63, 11.88 0.39, 12.76 0.23 C13.64 0.08, 14.55 0, 15.45 0 C16.34 0, 17.25 0.08, 18.13 0.23 C19.01 0.39, 19.89 0.63, 20.73 0.93 C21.57 1.24, 22.39 1.62, 23.17 2.07 C23.94 2.52, 24.69 3.04, 25.37 3.61 C26.06 4.19, 26.7 4.83, 27.28 5.52 C27.85 6.2, 28.37 6.95, 28.82 7.72 C29.27 8.5, 29.65 9.32, 29.96 10.16 C30.26 11, 30.5 11.88, 30.66 12.76 C30.81 13.64, 30.85 15, 30.89 15.45 C30.93 15.89, 30.93 15, 30.89 15.45" stroke="#E1E1E1" stroke-width="1" fill="none"></path></g><g stroke-linecap="round" transform="translate(39.20819100618428 10.000000000001819) rotate(0 20.779131500169115 20.77913150016957)"><path d="M41.56 20.78 C41.56 21.98, 41.45 23.2, 41.24 24.39 C41.03 25.57, 40.72 26.76, 40.31 27.89 C39.89 29.02, 39.38 30.13, 38.77 31.17 C38.17 32.21, 37.47 33.21, 36.7 34.14 C35.92 35.06, 35.06 35.92, 34.14 36.7 C33.21 37.47, 32.21 38.17, 31.17 38.77 C30.13 39.38, 29.02 39.89, 27.89 40.31 C26.76 40.72, 25.57 41.03, 24.39 41.24 C23.2 41.45, 21.98 41.56, 20.78 41.56 C19.58 41.56, 18.36 41.45, 17.17 41.24 C15.99 41.03, 14.8 40.72, 13.67 40.31 C12.54 39.89, 11.43 39.38, 10.39 38.77 C9.35 38.17, 8.34 37.47, 7.42 36.7 C6.5 35.92, 5.63 35.06, 4.86 34.14 C4.09 33.21, 3.39 32.21, 2.78 31.17 C2.18 30.13, 1.66 29.02, 1.25 27.89 C0.84 26.76, 0.52 25.57, 0.32 24.39 C0.11 23.2, 0 21.98, 0 20.78 C0 19.58, 0.11 18.36, 0.32 17.17 C0.52 15.99, 0.84 14.8, 1.25 13.67 C1.66 12.54, 2.18 11.43, 2.78 10.39 C3.39 9.35, 4.09 8.34, 4.86 7.42 C5.63 6.5, 6.5 5.63, 7.42 4.86 C8.34 4.09, 9.35 3.39, 10.39 2.78 C11.43 2.18, 12.54 1.66, 13.67 1.25 C14.8 0.84, 15.99 0.52, 17.17 0.32 C18.36 0.11, 19.58 0, 20.78 0 C21.98 0, 23.2 0.11, 24.39 0.32 C25.57 0.52, 26.76 0.84, 27.89 1.25 C29.02 1.66, 30.13 2.18, 31.17 2.78 C32.21 3.39, 33.21 4.09, 34.14 4.86 C35.06 5.63, 35.92 6.5, 36.7 7.42 C37.47 8.34, 38.17 9.35, 38.77 10.39 C39.38 11.43, 39.89 12.54, 40.31 13.67 C40.72 14.8, 41.03 15.99, 41.24 17.17 C41.45 18.36, 41.51 20.18, 41.56 20.78 C41.61 21.38, 41.61 20.18, 41.56 20.78" stroke="#E1E1E1" stroke-width="1" fill="none"></path></g><g stroke-linecap="round"><g transform="translate(43.156129254974076 78.37035908218968) rotate(0 16.89526758671309 59.38205407760779)"><path d="M0 0 C0 -0.82, 0 -3.74, 0 -4.9 C0 -6.05, 0.05 -6.39, 0 -6.92 C-0.05 -7.46, -0.08 -7.73, -0.3 -8.11 C-0.51 -8.49, -0.94 -8.95, -1.28 -9.19 C-1.63 -9.42, -1.66 -9.45, -2.37 -9.51 C-3.08 -9.57, -4.73 -9.52, -5.54 -9.52 C-6.35 -9.53, -6.77 -9.58, -7.22 -9.52 C-7.67 -9.47, -7.9 -9.42, -8.23 -9.19 C-8.55 -8.96, -8.9 -8.89, -9.17 -8.14 C-9.44 -7.39, -9.45 -6.88, -9.84 -4.68 C-10.23 -2.49, -10.89 1.26, -11.52 5.03 C-12.15 8.81, -12.99 13.84, -13.63 17.97 C-14.28 22.1, -14.8 25.98, -15.4 29.8 C-16.01 33.63, -16.88 38.66, -17.28 40.91 C-17.68 43.17, -17.5 42.59, -17.82 43.33 C-18.14 44.07, -18.66 44.85, -19.19 45.37 C-19.71 45.89, -20.28 46.23, -20.99 46.44 C-21.69 46.65, -22.64 46.76, -23.41 46.63 C-24.17 46.51, -24.99 46.16, -25.6 45.69 C-26.2 45.23, -26.67 44.47, -27.01 43.85 C-27.35 43.24, -27.58 42.88, -27.65 42 C-27.71 41.12, -27.64 40.22, -27.4 38.58 C-27.17 36.94, -26.84 35.45, -26.24 32.17 C-25.64 28.9, -24.63 23.25, -23.81 18.92 C-22.99 14.59, -22.26 11.21, -21.31 6.19 C-20.36 1.18, -18.83 -7.34, -18.1 -11.15 C-17.37 -14.95, -17.36 -15.37, -16.92 -16.64 C-16.48 -17.9, -16.08 -18.21, -15.44 -18.73 C-14.81 -19.25, -14.18 -19.56, -13.11 -19.75 C-12.05 -19.95, -10.83 -19.87, -9.03 -19.89 C-7.22 -19.92, -5.98 -19.89, -2.27 -19.89 C1.43 -19.89, 7.47 -19.89, 13.22 -19.89 C18.97 -19.89, 27.59 -19.89, 32.25 -19.89 C36.91 -19.89, 38.89 -19.89, 41.18 -19.89 C43.48 -19.89, 44.82 -20, 46.03 -19.89 C47.24 -19.79, 47.76 -19.62, 48.44 -19.27 C49.11 -18.93, 49.63 -18.57, 50.08 -17.83 C50.53 -17.09, 50.77 -16.39, 51.14 -14.84 C51.51 -13.28, 51.7 -11.6, 52.3 -8.49 C52.9 -5.38, 53.85 -0.84, 54.74 3.83 C55.64 8.5, 56.75 14.64, 57.67 19.54 C58.6 24.43, 59.68 30.11, 60.27 33.2 C60.86 36.29, 61 36.63, 61.19 38.1 C61.39 39.57, 61.55 40.95, 61.44 42.01 C61.33 43.08, 61.06 43.78, 60.53 44.49 C60 45.2, 59.09 45.92, 58.25 46.28 C57.42 46.64, 56.33 46.74, 55.5 46.64 C54.66 46.55, 53.85 46.16, 53.25 45.7 C52.66 45.24, 52.3 44.59, 51.95 43.87 C51.59 43.15, 51.45 42.81, 51.15 41.39 C50.85 39.96, 50.71 38.66, 50.15 35.31 C49.59 31.96, 48.55 25.99, 47.8 21.28 C47.05 16.57, 46.32 11.33, 45.66 7.06 C44.99 2.8, 44.2 -1.88, 43.8 -4.32 C43.39 -6.77, 43.47 -6.85, 43.23 -7.62 C42.99 -8.39, 42.69 -8.64, 42.35 -8.96 C42.01 -9.28, 41.78 -9.43, 41.17 -9.55 C40.57 -9.67, 39.52 -9.67, 38.71 -9.69 C37.9 -9.7, 36.89 -9.71, 36.32 -9.64 C35.75 -9.58, 35.61 -9.51, 35.29 -9.29 C34.96 -9.08, 34.61 -8.77, 34.37 -8.36 C34.13 -7.95, 33.95 -7.8, 33.84 -6.81 C33.74 -5.83, 33.77 -4.76, 33.75 -2.45 C33.74 -0.15, 33.75 3.36, 33.75 7.03 C33.75 10.69, 33.75 14.95, 33.75 19.56 C33.75 24.16, 33.75 30.3, 33.75 34.63 C33.75 38.96, 33.75 41.42, 33.75 45.54 C33.75 49.66, 33.75 54.46, 33.75 59.37 C33.75 64.28, 33.75 70.19, 33.75 75.01 C33.75 79.83, 33.75 83.86, 33.75 88.28 C33.75 92.7, 33.75 97.24, 33.75 101.53 C33.75 105.81, 33.75 109.11, 33.75 114.01 C33.75 118.91, 33.75 127.54, 33.75 130.92 C33.75 134.31, 33.8 133.54, 33.75 134.31 C33.71 135.08, 33.7 135.09, 33.49 135.54 C33.29 135.99, 32.97 136.58, 32.52 137.02 C32.06 137.46, 31.33 137.91, 30.77 138.18 C30.2 138.45, 29.74 138.62, 29.13 138.66 C28.52 138.7, 27.68 138.58, 27.11 138.41 C26.55 138.23, 26.13 137.92, 25.74 137.61 C25.35 137.29, 25.05 136.95, 24.76 136.54 C24.46 136.12, 24.13 135.74, 23.95 135.11 C23.78 134.48, 23.74 134.53, 23.7 132.76 C23.66 130.99, 23.7 128.01, 23.7 124.49 C23.7 120.96, 23.7 115.78, 23.7 111.61 C23.7 107.44, 23.7 103.72, 23.7 99.48 C23.7 95.24, 23.7 91.44, 23.7 86.16 C23.7 80.88, 23.75 71.4, 23.7 67.82 C23.65 64.24, 23.64 65.36, 23.41 64.67 C23.17 63.99, 22.68 63.93, 22.29 63.69 C21.91 63.44, 21.68 63.31, 21.09 63.22 C20.51 63.13, 20 63.15, 18.8 63.13 C17.6 63.11, 15.03 63.07, 13.89 63.1 C12.75 63.14, 12.5 63.13, 11.97 63.33 C11.43 63.54, 10.99 63.89, 10.69 64.34 C10.4 64.79, 10.27 65.03, 10.17 66.02 C10.06 67.01, 10.08 67.26, 10.06 70.28 C10.04 73.3, 10.06 79.22, 10.06 84.15 C10.06 89.08, 10.06 94.1, 10.06 99.88 C10.06 105.65, 10.06 113.52, 10.06 118.79 C10.06 124.06, 10.06 128.97, 10.06 131.49 C10.06 134.02, 10.09 133.33, 10.06 133.93 C10.04 134.53, 10.06 134.66, 9.9 135.1 C9.74 135.54, 9.51 136.09, 9.12 136.56 C8.72 137.03, 8.13 137.57, 7.53 137.92 C6.93 138.26, 6.24 138.57, 5.5 138.64 C4.75 138.7, 3.74 138.53, 3.07 138.3 C2.39 138.07, 1.91 137.66, 1.46 137.24 C1.01 136.82, 0.63 136.3, 0.38 135.78 C0.13 135.26, 0.06 135.05, -0.03 134.13 C-0.11 133.22, -0.12 132.5, -0.13 130.3 C-0.15 128.1, -0.13 124.95, -0.13 120.93 C-0.13 116.92, -0.13 111.27, -0.13 106.21 C-0.13 101.15, -0.13 96.05, -0.13 90.57 C-0.13 85.09, -0.13 78.3, -0.13 73.34 C-0.13 68.37, -0.13 65.25, -0.13 60.78 C-0.13 56.32, -0.13 51.27, -0.13 46.54 C-0.13 41.82, -0.13 37.24, -0.13 32.44 C-0.13 27.64, -0.16 23.13, -0.13 17.73 C-0.11 12.32, -0.02 2.95, 0 0 M0 0 C0 -0.82, 0 -3.74, 0 -4.9 C0 -6.05, 0.05 -6.39, 0 -6.92 C-0.05 -7.46, -0.08 -7.73, -0.3 -8.11 C-0.51 -8.49, -0.94 -8.95, -1.28 -9.19 C-1.63 -9.42, -1.66 -9.45, -2.37 -9.51 C-3.08 -9.57, -4.73 -9.52, -5.54 -9.52 C-6.35 -9.53, -6.77 -9.58, -7.22 -9.52 C-7.67 -9.47, -7.9 -9.42, -8.23 -9.19 C-8.55 -8.96, -8.9 -8.89, -9.17 -8.14 C-9.44 -7.39, -9.45 -6.88, -9.84 -4.68 C-10.23 -2.49, -10.89 1.26, -11.52 5.03 C-12.15 8.81, -12.99 13.84, -13.63 17.97 C-14.28 22.1, -14.8 25.98, -15.4 29.8 C-16.01 33.63, -16.88 38.66, -17.28 40.91 C-17.68 43.17, -17.5 42.59, -17.82 43.33 C-18.14 44.07, -18.66 44.85, -19.19 45.37 C-19.71 45.89, -20.28 46.23, -20.99 46.44 C-21.69 46.65, -22.64 46.76, -23.41 46.63 C-24.17 46.51, -24.99 46.16, -25.6 45.69 C-26.2 45.23, -26.67 44.47, -27.01 43.85 C-27.35 43.24, -27.58 42.88, -27.65 42 C-27.71 41.12, -27.64 40.22, -27.4 38.58 C-27.17 36.94, -26.84 35.45, -26.24 32.17 C-25.64 28.9, -24.63 23.25, -23.81 18.92 C-22.99 14.59, -22.26 11.21, -21.31 6.19 C-20.36 1.18, -18.83 -7.34, -18.1 -11.15 C-17.37 -14.95, -17.36 -15.37, -16.92 -16.64 C-16.48 -17.9, -16.08 -18.21, -15.44 -18.73 C-14.81 -19.25, -14.18 -19.56, -13.11 -19.75 C-12.05 -19.95, -10.83 -19.87, -9.03 -19.89 C-7.22 -19.92, -5.98 -19.89, -2.27 -19.89 C1.43 -19.89, 7.47 -19.89, 13.22 -19.89 C18.97 -19.89, 27.59 -19.89, 32.25 -19.89 C36.91 -19.89, 38.89 -19.89, 41.18 -19.89 C43.48 -19.89, 44.82 -20, 46.03 -19.89 C47.24 -19.79, 47.76 -19.62, 48.44 -19.27 C49.11 -18.93, 49.63 -18.57, 50.08 -17.83 C50.53 -17.09, 50.77 -16.39, 51.14 -14.84 C51.51 -13.28, 51.7 -11.6, 52.3 -8.49 C52.9 -5.38, 53.85 -0.84, 54.74 3.83 C55.64 8.5, 56.75 14.64, 57.67 19.54 C58.6 24.43, 59.68 30.11, 60.27 33.2 C60.86 36.29, 61 36.63, 61.19 38.1 C61.39 39.57, 61.55 40.95, 61.44 42.01 C61.33 43.08, 61.06 43.78, 60.53 44.49 C60 45.2, 59.09 45.92, 58.25 46.28 C57.42 46.64, 56.33 46.74, 55.5 46.64 C54.66 46.55, 53.85 46.16, 53.25 45.7 C52.66 45.24, 52.3 44.59, 51.95 43.87 C51.59 43.15, 51.45 42.81, 51.15 41.39 C50.85 39.96, 50.71 38.66, 50.15 35.31 C49.59 31.96, 48.55 25.99, 47.8 21.28 C47.05 16.57, 46.32 11.33, 45.66 7.06 C44.99 2.8, 44.2 -1.88, 43.8 -4.32 C43.39 -6.77, 43.47 -6.85, 43.23 -7.62 C42.99 -8.39, 42.69 -8.64, 42.35 -8.96 C42.01 -9.28, 41.78 -9.43, 41.17 -9.55 C40.57 -9.67, 39.52 -9.67, 38.71 -9.69 C37.9 -9.7, 36.89 -9.71, 36.32 -9.64 C35.75 -9.58, 35.61 -9.51, 35.29 -9.29 C34.96 -9.08, 34.61 -8.77, 34.37 -8.36 C34.13 -7.95, 33.95 -7.8, 33.84 -6.81 C33.74 -5.83, 33.77 -4.76, 33.75 -2.45 C33.74 -0.15, 33.75 3.36, 33.75 7.03 C33.75 10.69, 33.75 14.95, 33.75 19.56 C33.75 24.16, 33.75 30.3, 33.75 34.63 C33.75 38.96, 33.75 41.42, 33.75 45.54 C33.75 49.66, 33.75 54.46, 33.75 59.37 C33.75 64.28, 33.75 70.19, 33.75 75.01 C33.75 79.83, 33.75 83.86, 33.75 88.28 C33.75 92.7, 33.75 97.24, 33.75 101.53 C33.75 105.81, 33.75 109.11, 33.75 114.01 C33.75 118.91, 33.75 127.54, 33.75 130.92 C33.75 134.31, 33.8 133.54, 33.75 134.31 C33.71 135.08, 33.7 135.09, 33.49 135.54 C33.29 135.99, 32.97 136.58, 32.52 137.02 C32.06 137.46, 31.33 137.91, 30.77 138.18 C30.2 138.45, 29.74 138.62, 29.13 138.66 C28.52 138.7, 27.68 138.58, 27.11 138.41 C26.55 138.23, 26.13 137.92, 25.74 137.61 C25.35 137.29, 25.05 136.95, 24.76 136.54 C24.46 136.12, 24.13 135.74, 23.95 135.11 C23.78 134.48, 23.74 134.53, 23.7 132.76 C23.66 130.99, 23.7 128.01, 23.7 124.49 C23.7 120.96, 23.7 115.78, 23.7 111.61 C23.7 107.44, 23.7 103.72, 23.7 99.48 C23.7 95.24, 23.7 91.44, 23.7 86.16 C23.7 80.88, 23.75 71.4, 23.7 67.82 C23.65 64.24, 23.64 65.36, 23.41 64.67 C23.17 63.99, 22.68 63.93, 22.29 63.69 C21.91 63.44, 21.68 63.31, 21.09 63.22 C20.51 63.13, 20 63.15, 18.8 63.13 C17.6 63.11, 15.03 63.07, 13.89 63.1 C12.75 63.14, 12.5 63.13, 11.97 63.33 C11.43 63.54, 10.99 63.89, 10.69 64.34 C10.4 64.79, 10.27 65.03, 10.17 66.02 C10.06 67.01, 10.08 67.26, 10.06 70.28 C10.04 73.3, 10.06 79.22, 10.06 84.15 C10.06 89.08, 10.06 94.1, 10.06 99.88 C10.06 105.65, 10.06 113.52, 10.06 118.79 C10.06 124.06, 10.06 128.97, 10.06 131.49 C10.06 134.02, 10.09 133.33, 10.06 133.93 C10.04 134.53, 10.06 134.66, 9.9 135.1 C9.74 135.54, 9.51 136.09, 9.12 136.56 C8.72 137.03, 8.13 137.57, 7.53 137.92 C6.93 138.26, 6.24 138.57, 5.5 138.64 C4.75 138.7, 3.74 138.53, 3.07 138.3 C2.39 138.07, 1.91 137.66, 1.46 137.24 C1.01 136.82, 0.63 136.3, 0.38 135.78 C0.13 135.26, 0.06 135.05, -0.03 134.13 C-0.11 133.22, -0.12 132.5, -0.13 130.3 C-0.15 128.1, -0.13 124.95, -0.13 120.93 C-0.13 116.92, -0.13 111.27, -0.13 106.21 C-0.13 101.15, -0.13 96.05, -0.13 90.57 C-0.13 85.09, -0.13 78.3, -0.13 73.34 C-0.13 68.37, -0.13 65.25, -0.13 60.78 C-0.13 56.32, -0.13 51.27, -0.13 46.54 C-0.13 41.82, -0.13 37.24, -0.13 32.44 C-0.13 27.64, -0.16 23.13, -0.13 17.73 C-0.11 12.32, -0.02 2.95, 0 0" stroke="#E1E1E1" stroke-width="1" fill="none"></path></g></g><mask></mask><g stroke-linecap="round"><g transform="translate(37.6321802086577 81.59192828957748) rotate(0 22.399148850813162 56.114244028133726)"><path d="M0 0 C-0.24 1.41, -0.84 4.93, -1.41 8.48 C-1.99 12.04, -2.86 17.57, -3.46 21.32 C-4.07 25.07, -4.57 27.93, -5.06 30.99 C-5.55 34.04, -6 37.57, -6.42 39.64 C-6.83 41.7, -7.01 42.28, -7.57 43.38 C-8.13 44.49, -8.84 45.43, -9.78 46.25 C-10.71 47.07, -12.02 47.87, -13.18 48.32 C-14.33 48.78, -15.51 48.97, -16.72 49 C-17.92 49.02, -19.26 48.85, -20.41 48.48 C-21.56 48.11, -22.71 47.51, -23.63 46.76 C-24.56 46.01, -25.36 44.92, -25.97 43.96 C-26.57 43, -26.99 42.06, -27.26 41.01 C-27.54 39.95, -27.66 38.99, -27.63 37.65 C-27.6 36.31, -27.42 35.04, -27.09 32.95 C-26.75 30.87, -26.29 28.59, -25.63 25.15 C-24.98 21.71, -23.96 16.46, -23.17 12.31 C-22.38 8.16, -21.81 5.12, -20.89 0.24 C-19.98 -4.64, -18.42 -13.22, -17.68 -16.96 C-16.93 -20.69, -17.04 -20.69, -16.42 -22.16 C-15.8 -23.63, -14.99 -24.82, -13.97 -25.79 C-12.96 -26.76, -11.63 -27.49, -10.31 -27.97 C-9 -28.45, -8.71 -28.53, -6.09 -28.64 C-3.46 -28.75, 0.72 -28.64, 5.43 -28.64 C10.14 -28.64, 16.75 -28.64, 22.16 -28.64 C27.58 -28.64, 33.43 -28.64, 37.9 -28.64 C42.37 -28.64, 46.3 -28.68, 48.97 -28.64 C51.65 -28.6, 52.55 -28.68, 53.94 -28.4 C55.33 -28.13, 56.33 -27.57, 57.29 -26.98 C58.25 -26.4, 59.01 -25.73, 59.69 -24.88 C60.37 -24.03, 60.92 -23.15, 61.36 -21.91 C61.81 -20.67, 61.82 -20.08, 62.36 -17.43 C62.9 -14.78, 63.7 -10.78, 64.61 -6.04 C65.53 -1.29, 66.7 5.04, 67.83 11.04 C68.97 17.03, 70.68 25.84, 71.44 29.95 C72.2 34.06, 72.23 33.99, 72.39 35.72 C72.55 37.45, 72.63 38.96, 72.43 40.3 C72.22 41.65, 71.83 42.74, 71.18 43.8 C70.53 44.86, 69.47 45.91, 68.51 46.68 C67.55 47.44, 66.44 47.99, 65.41 48.37 C64.37 48.76, 63.36 48.94, 62.31 48.99 C61.26 49.03, 60.14 48.91, 59.11 48.63 C58.08 48.35, 57.03 47.91, 56.11 47.33 C55.2 46.74, 54.3 45.93, 53.64 45.13 C52.97 44.33, 52.54 43.57, 52.12 42.53 C51.71 41.5, 51.55 41.04, 51.15 38.94 C50.76 36.84, 50.37 33.87, 49.75 29.94 C49.13 26.02, 48.19 19.9, 47.45 15.38 C46.72 10.86, 45.79 5.41, 45.36 2.83 C44.92 0.25, 44.95 -0.38, 44.85 -0.09 C44.75 0.2, 44.78 2.08, 44.77 4.58 C44.75 7.07, 44.77 10.62, 44.77 14.87 C44.77 19.13, 44.77 24.8, 44.77 30.08 C44.77 35.37, 44.77 42.08, 44.77 46.6 C44.77 51.12, 44.77 52.96, 44.77 57.2 C44.77 61.45, 44.77 67.17, 44.77 72.07 C44.77 76.97, 44.77 81.52, 44.77 86.59 C44.77 91.65, 44.77 96.69, 44.77 102.46 C44.77 108.24, 44.77 116.77, 44.77 121.23 C44.77 125.69, 44.84 127.1, 44.77 129.22 C44.7 131.33, 44.71 132.61, 44.33 133.9 C43.94 135.19, 43.25 136.06, 42.46 136.98 C41.67 137.9, 40.62 138.8, 39.6 139.41 C38.57 140.03, 37.42 140.44, 36.31 140.67 C35.19 140.9, 34.1 140.99, 32.92 140.8 C31.74 140.61, 30.35 140.18, 29.22 139.54 C28.09 138.9, 27 137.99, 26.17 136.96 C25.33 135.94, 24.61 134.75, 24.2 133.41 C23.79 132.07, 23.78 131.65, 23.7 128.94 C23.61 126.23, 23.7 122.97, 23.7 117.14 C23.7 111.32, 23.7 101.15, 23.7 94.01 C23.7 86.86, 23.7 78.68, 23.7 74.27 C23.7 69.85, 23.7 68.97, 23.7 67.52 C23.7 66.07, 23.82 65.89, 23.7 65.54 C23.58 65.2, 23.38 65.46, 22.98 65.44 C22.58 65.43, 21.61 65.34, 21.3 65.46 C21 65.57, 21.16 65.67, 21.14 66.13 C21.11 66.6, 21.14 66.29, 21.14 68.25 C21.14 70.21, 21.14 73.48, 21.14 77.88 C21.14 82.28, 21.14 87.04, 21.14 94.67 C21.14 102.31, 21.14 117.66, 21.14 123.68 C21.14 129.71, 21.22 129.11, 21.14 130.8 C21.06 132.48, 21.04 132.76, 20.65 133.8 C20.26 134.83, 19.62 136.07, 18.81 137.03 C18 137.99, 16.88 138.92, 15.79 139.56 C14.71 140.2, 13.53 140.68, 12.3 140.87 C11.08 141.06, 9.68 140.97, 8.46 140.72 C7.23 140.47, 5.93 139.95, 4.95 139.38 C3.98 138.81, 3.28 138.05, 2.63 137.32 C1.97 136.58, 1.41 135.79, 1.02 134.97 C0.63 134.16, 0.47 133.67, 0.29 132.44 C0.11 131.21, 0 130.2, -0.06 127.6 C-0.11 125, -0.06 121.28, -0.06 116.85 C-0.06 112.42, -0.06 108.47, -0.06 101.03 C-0.06 93.58, -0.06 80.84, -0.06 72.17 C-0.06 63.51, -0.06 54.77, -0.06 49.03 C-0.06 43.3, -0.06 42.77, -0.06 37.78 C-0.06 32.78, -0.07 25.34, -0.06 19.05 C-0.05 12.75, -0.01 3.17, 0 0 M0 0 C-0.24 1.41, -0.84 4.93, -1.41 8.48 C-1.99 12.04, -2.86 17.57, -3.46 21.32 C-4.07 25.07, -4.57 27.93, -5.06 30.99 C-5.55 34.04, -6 37.57, -6.42 39.64 C-6.83 41.7, -7.01 42.28, -7.57 43.38 C-8.13 44.49, -8.84 45.43, -9.78 46.25 C-10.71 47.07, -12.02 47.87, -13.18 48.32 C-14.33 48.78, -15.51 48.97, -16.72 49 C-17.92 49.02, -19.26 48.85, -20.41 48.48 C-21.56 48.11, -22.71 47.51, -23.63 46.76 C-24.56 46.01, -25.36 44.92, -25.97 43.96 C-26.57 43, -26.99 42.06, -27.26 41.01 C-27.54 39.95, -27.66 38.99, -27.63 37.65 C-27.6 36.31, -27.42 35.04, -27.09 32.95 C-26.75 30.87, -26.29 28.59, -25.63 25.15 C-24.98 21.71, -23.96 16.46, -23.17 12.31 C-22.38 8.16, -21.81 5.12, -20.89 0.24 C-19.98 -4.64, -18.42 -13.22, -17.68 -16.96 C-16.93 -20.69, -17.04 -20.69, -16.42 -22.16 C-15.8 -23.63, -14.99 -24.82, -13.97 -25.79 C-12.96 -26.76, -11.63 -27.49, -10.31 -27.97 C-9 -28.45, -8.71 -28.53, -6.09 -28.64 C-3.46 -28.75, 0.72 -28.64, 5.43 -28.64 C10.14 -28.64, 16.75 -28.64, 22.16 -28.64 C27.58 -28.64, 33.43 -28.64, 37.9 -28.64 C42.37 -28.64, 46.3 -28.68, 48.97 -28.64 C51.65 -28.6, 52.55 -28.68, 53.94 -28.4 C55.33 -28.13, 56.33 -27.57, 57.29 -26.98 C58.25 -26.4, 59.01 -25.73, 59.69 -24.88 C60.37 -24.03, 60.92 -23.15, 61.36 -21.91 C61.81 -20.67, 61.82 -20.08, 62.36 -17.43 C62.9 -14.78, 63.7 -10.78, 64.61 -6.04 C65.53 -1.29, 66.7 5.04, 67.83 11.04 C68.97 17.03, 70.68 25.84, 71.44 29.95 C72.2 34.06, 72.23 33.99, 72.39 35.72 C72.55 37.45, 72.63 38.96, 72.43 40.3 C72.22 41.65, 71.83 42.74, 71.18 43.8 C70.53 44.86, 69.47 45.91, 68.51 46.68 C67.55 47.44, 66.44 47.99, 65.41 48.37 C64.37 48.76, 63.36 48.94, 62.31 48.99 C61.26 49.03, 60.14 48.91, 59.11 48.63 C58.08 48.35, 57.03 47.91, 56.11 47.33 C55.2 46.74, 54.3 45.93, 53.64 45.13 C52.97 44.33, 52.54 43.57, 52.12 42.53 C51.71 41.5, 51.55 41.04, 51.15 38.94 C50.76 36.84, 50.37 33.87, 49.75 29.94 C49.13 26.02, 48.19 19.9, 47.45 15.38 C46.72 10.86, 45.79 5.41, 45.36 2.83 C44.92 0.25, 44.95 -0.38, 44.85 -0.09 C44.75 0.2, 44.78 2.08, 44.77 4.58 C44.75 7.07, 44.77 10.62, 44.77 14.87 C44.77 19.13, 44.77 24.8, 44.77 30.08 C44.77 35.37, 44.77 42.08, 44.77 46.6 C44.77 51.12, 44.77 52.96, 44.77 57.2 C44.77 61.45, 44.77 67.17, 44.77 72.07 C44.77 76.97, 44.77 81.52, 44.77 86.59 C44.77 91.65, 44.77 96.69, 44.77 102.46 C44.77 108.24, 44.77 116.77, 44.77 121.23 C44.77 125.69, 44.84 127.1, 44.77 129.22 C44.7 131.33, 44.71 132.61, 44.33 133.9 C43.94 135.19, 43.25 136.06, 42.46 136.98 C41.67 137.9, 40.62 138.8, 39.6 139.41 C38.57 140.03, 37.42 140.44, 36.31 140.67 C35.19 140.9, 34.1 140.99, 32.92 140.8 C31.74 140.61, 30.35 140.18, 29.22 139.54 C28.09 138.9, 27 137.99, 26.17 136.96 C25.33 135.94, 24.61 134.75, 24.2 133.41 C23.79 132.07, 23.78 131.65, 23.7 128.94 C23.61 126.23, 23.7 122.97, 23.7 117.14 C23.7 111.32, 23.7 101.15, 23.7 94.01 C23.7 86.86, 23.7 78.68, 23.7 74.27 C23.7 69.85, 23.7 68.97, 23.7 67.52 C23.7 66.07, 23.82 65.89, 23.7 65.54 C23.58 65.2, 23.38 65.46, 22.98 65.44 C22.58 65.43, 21.61 65.34, 21.3 65.46 C21 65.57, 21.16 65.67, 21.14 66.13 C21.11 66.6, 21.14 66.29, 21.14 68.25 C21.14 70.21, 21.14 73.48, 21.14 77.88 C21.14 82.28, 21.14 87.04, 21.14 94.67 C21.14 102.31, 21.14 117.66, 21.14 123.68 C21.14 129.71, 21.22 129.11, 21.14 130.8 C21.06 132.48, 21.04 132.76, 20.65 133.8 C20.26 134.83, 19.62 136.07, 18.81 137.03 C18 137.99, 16.88 138.92, 15.79 139.56 C14.71 140.2, 13.53 140.68, 12.3 140.87 C11.08 141.06, 9.68 140.97, 8.46 140.72 C7.23 140.47, 5.93 139.95, 4.95 139.38 C3.98 138.81, 3.28 138.05, 2.63 137.32 C1.97 136.58, 1.41 135.79, 1.02 134.97 C0.63 134.16, 0.47 133.67, 0.29 132.44 C0.11 131.21, 0 130.2, -0.06 127.6 C-0.11 125, -0.06 121.28, -0.06 116.85 C-0.06 112.42, -0.06 108.47, -0.06 101.03 C-0.06 93.58, -0.06 80.84, -0.06 72.17 C-0.06 63.51, -0.06 54.77, -0.06 49.03 C-0.06 43.3, -0.06 42.77, -0.06 37.78 C-0.06 32.78, -0.07 25.34, -0.06 19.05 C-0.05 12.75, -0.01 3.17, 0 0" stroke="#E1E1E1" stroke-width="1" fill="none"></path></g></g><mask></mask></svg>