<svg version="1.1" xmlns="http://www.w3.org/2000/svg" viewBox="0 0 455.1736062702439 591.2712164531922" width="455.1736062702439" height="591.2712164531922" class="excalidraw-svg"><!-- svg-source:excalidraw --><metadata></metadata><defs><style class="style-fonts">
      </style></defs><rect x="0" y="0" width="455.1736062702439" height="591.2712164531922" fill="#000000"></rect><g stroke-linecap="round"><g transform="translate(53.55621813928792 139.84461518575426) rotate(0 188.8898509002588 188.1964631085607)"><path d="M0 0 C0 -4.54, 0 -19.45, 0 -27.25 C0 -35.05, -0.08 -42.98, 0 -46.81 C0.08 -50.63, -0.06 -49.56, 0.51 -50.19 C1.07 -50.82, 1.65 -50.53, 3.37 -50.6 C5.09 -50.67, 3.18 -50.59, 10.82 -50.58 C18.46 -50.58, 24.59 -50.58, 49.19 -50.58 C73.8 -50.58, 124.69 -50.58, 158.45 -50.58 C192.21 -50.58, 223.68 -50.58, 251.76 -50.58 C279.84 -50.58, 308.76 -50.58, 326.92 -50.58 C345.07 -50.58, 352.59 -50.58, 360.7 -50.58 C368.8 -50.59, 372.72 -50.95, 375.55 -50.59 C378.37 -50.23, 377.26 -49.55, 377.63 -48.42 C378.01 -47.29, 377.78 -48.35, 377.81 -43.8 C377.84 -39.26, 377.81 -28.71, 377.81 -21.14 C377.81 -13.57, 377.81 -12.64, 377.81 1.63 C377.81 15.89, 377.81 40.72, 377.81 64.44 C377.81 88.17, 377.81 116.79, 377.81 143.97 C377.81 171.16, 377.81 197.41, 377.81 227.55 C377.81 257.69, 377.81 296.42, 377.81 324.81 C377.81 353.2, 377.81 382.28, 377.81 397.88 C377.81 413.49, 377.81 413.95, 377.81 418.42 C377.81 422.89, 378.1 423.3, 377.81 424.69 C377.53 426.08, 378.22 426.39, 376.1 426.77 C373.99 427.15, 373.18 426.96, 365.11 426.99 C357.04 427.03, 348.4 426.99, 327.71 426.99 C307.02 426.99, 269.63 426.99, 240.95 426.99 C212.28 426.99, 187.56 426.99, 155.69 426.99 C123.81 426.99, 71.9 426.99, 49.7 426.99 C27.5 426.99, 30.04 426.99, 22.47 426.99 C14.9 426.99, 7.92 427.02, 4.27 426.99 C0.62 426.97, 1.26 427.37, 0.55 426.86 C-0.15 426.34, 0.14 425.8, 0.07 423.93 C-0.01 422.06, 0.09 424.55, 0.09 415.64 C0.1 406.73, 0.09 380.97, 0.09 370.48 C0.09 360, 0.01 356.57, 0.09 352.73 C0.18 348.89, 0.13 348.46, 0.59 347.45 C1.06 346.45, 1.58 346.81, 2.9 346.68 C4.22 346.55, 6.46 346.68, 8.5 346.68 C10.53 346.68, 13.8 346.35, 15.09 346.68 C16.39 347.01, 15.95 347.77, 16.28 348.67 C16.61 349.57, 16.48 351.07, 17.08 352.1 C17.69 353.12, 18.75 354.26, 19.93 354.82 C21.12 355.37, 22.89 355.66, 24.2 355.43 C25.51 355.19, 26.94 354.29, 27.8 353.4 C28.66 352.51, 29.08 351.7, 29.36 350.11 C29.64 348.52, 29.47 348.67, 29.49 343.86 C29.51 339.06, 29.49 328.64, 29.49 321.27 C29.49 313.89, 29.49 304.63, 29.49 299.61 C29.49 294.6, 29.82 293.24, 29.49 291.18 C29.16 289.12, 28.5 288.22, 27.52 287.26 C26.54 286.31, 24.93 285.64, 23.6 285.46 C22.27 285.27, 20.68 285.53, 19.54 286.16 C18.4 286.79, 17.34 288.14, 16.76 289.23 C16.18 290.32, 16.53 291.96, 16.08 292.7 C15.64 293.44, 15.35 293.5, 14.09 293.67 C12.84 293.83, 10.43 293.67, 8.54 293.67 C6.64 293.67, 4.08 293.8, 2.73 293.67 C1.38 293.53, 0.86 293.64, 0.41 292.87 C-0.04 292.11, 0.09 291.03, 0.03 289.09 C-0.03 287.14, 0.03 286.62, 0.03 281.19 C0.03 275.77, 0.03 271.3, 0.03 256.54 C0.03 241.78, 0.03 215.81, 0.03 192.65 C0.03 169.49, 0.03 133.36, 0.03 117.59 C0.03 101.82, 0.03 102.92, 0.03 98.03 C0.03 93.15, 0.01 90.65, 0.03 88.27 C0.05 85.89, -0.11 84.63, 0.16 83.76 C0.44 82.88, 0.53 83.15, 1.7 83.02 C2.87 82.9, 4.95 83, 7.18 82.99 C9.4 82.98, 13.56 82.82, 15.05 82.96 C16.54 83.1, 15.85 83.19, 16.13 83.83 C16.4 84.46, 16.12 85.77, 16.7 86.78 C17.29 87.78, 18.44 89.15, 19.65 89.85 C20.87 90.54, 22.65 91.05, 24 90.96 C25.35 90.87, 26.84 90.2, 27.76 89.29 C28.68 88.37, 29.23 87.39, 29.53 85.49 C29.82 83.59, 29.53 82.53, 29.53 77.89 C29.53 73.25, 29.53 65.1, 29.53 57.66 C29.53 50.22, 29.64 38.55, 29.53 33.25 C29.41 27.95, 29.16 27.53, 28.83 25.84 C28.5 24.15, 28.24 23.86, 27.55 23.13 C26.86 22.39, 25.87 21.68, 24.7 21.43 C23.53 21.18, 21.82 21.08, 20.54 21.63 C19.26 22.18, 17.76 23.59, 17.04 24.74 C16.31 25.89, 16.61 27.72, 16.19 28.52 C15.76 29.32, 15.72 29.37, 14.47 29.54 C13.21 29.71, 10.86 29.54, 8.65 29.54 C6.45 29.54, 2.66 29.81, 1.21 29.54 C-0.24 29.27, 0.17 28.91, -0.03 27.89 C-0.24 26.87, -0.04 28.08, -0.03 23.43 C-0.03 18.78, -0.01 3.9, 0 0 M0 0 C0 -4.54, 0 -19.45, 0 -27.25 C0 -35.05, -0.08 -42.98, 0 -46.81 C0.08 -50.63, -0.06 -49.56, 0.51 -50.19 C1.07 -50.82, 1.65 -50.53, 3.37 -50.6 C5.09 -50.67, 3.18 -50.59, 10.82 -50.58 C18.46 -50.58, 24.59 -50.58, 49.19 -50.58 C73.8 -50.58, 124.69 -50.58, 158.45 -50.58 C192.21 -50.58, 223.68 -50.58, 251.76 -50.58 C279.84 -50.58, 308.76 -50.58, 326.92 -50.58 C345.07 -50.58, 352.59 -50.58, 360.7 -50.58 C368.8 -50.59, 372.72 -50.95, 375.55 -50.59 C378.37 -50.23, 377.26 -49.55, 377.63 -48.42 C378.01 -47.29, 377.78 -48.35, 377.81 -43.8 C377.84 -39.26, 377.81 -28.71, 377.81 -21.14 C377.81 -13.57, 377.81 -12.64, 377.81 1.63 C377.81 15.89, 377.81 40.72, 377.81 64.44 C377.81 88.17, 377.81 116.79, 377.81 143.97 C377.81 171.16, 377.81 197.41, 377.81 227.55 C377.81 257.69, 377.81 296.42, 377.81 324.81 C377.81 353.2, 377.81 382.28, 377.81 397.88 C377.81 413.49, 377.81 413.95, 377.81 418.42 C377.81 422.89, 378.1 423.3, 377.81 424.69 C377.53 426.08, 378.22 426.39, 376.1 426.77 C373.99 427.15, 373.18 426.96, 365.11 426.99 C357.04 427.03, 348.4 426.99, 327.71 426.99 C307.02 426.99, 269.63 426.99, 240.95 426.99 C212.28 426.99, 187.56 426.99, 155.69 426.99 C123.81 426.99, 71.9 426.99, 49.7 426.99 C27.5 426.99, 30.04 426.99, 22.47 426.99 C14.9 426.99, 7.92 427.02, 4.27 426.99 C0.62 426.97, 1.26 427.37, 0.55 426.86 C-0.15 426.34, 0.14 425.8, 0.07 423.93 C-0.01 422.06, 0.09 424.55, 0.09 415.64 C0.1 406.73, 0.09 380.97, 0.09 370.48 C0.09 360, 0.01 356.57, 0.09 352.73 C0.18 348.89, 0.13 348.46, 0.59 347.45 C1.06 346.45, 1.58 346.81, 2.9 346.68 C4.22 346.55, 6.46 346.68, 8.5 346.68 C10.53 346.68, 13.8 346.35, 15.09 346.68 C16.39 347.01, 15.95 347.77, 16.28 348.67 C16.61 349.57, 16.48 351.07, 17.08 352.1 C17.69 353.12, 18.75 354.26, 19.93 354.82 C21.12 355.37, 22.89 355.66, 24.2 355.43 C25.51 355.19, 26.94 354.29, 27.8 353.4 C28.66 352.51, 29.08 351.7, 29.36 350.11 C29.64 348.52, 29.47 348.67, 29.49 343.86 C29.51 339.06, 29.49 328.64, 29.49 321.27 C29.49 313.89, 29.49 304.63, 29.49 299.61 C29.49 294.6, 29.82 293.24, 29.49 291.18 C29.16 289.12, 28.5 288.22, 27.52 287.26 C26.54 286.31, 24.93 285.64, 23.6 285.46 C22.27 285.27, 20.68 285.53, 19.54 286.16 C18.4 286.79, 17.34 288.14, 16.76 289.23 C16.18 290.32, 16.53 291.96, 16.08 292.7 C15.64 293.44, 15.35 293.5, 14.09 293.67 C12.84 293.83, 10.43 293.67, 8.54 293.67 C6.64 293.67, 4.08 293.8, 2.73 293.67 C1.38 293.53, 0.86 293.64, 0.41 292.87 C-0.04 292.11, 0.09 291.03, 0.03 289.09 C-0.03 287.14, 0.03 286.62, 0.03 281.19 C0.03 275.77, 0.03 271.3, 0.03 256.54 C0.03 241.78, 0.03 215.81, 0.03 192.65 C0.03 169.49, 0.03 133.36, 0.03 117.59 C0.03 101.82, 0.03 102.92, 0.03 98.03 C0.03 93.15, 0.01 90.65, 0.03 88.27 C0.05 85.89, -0.11 84.63, 0.16 83.76 C0.44 82.88, 0.53 83.15, 1.7 83.02 C2.87 82.9, 4.95 83, 7.18 82.99 C9.4 82.98, 13.56 82.82, 15.05 82.96 C16.54 83.1, 15.85 83.19, 16.13 83.83 C16.4 84.46, 16.12 85.77, 16.7 86.78 C17.29 87.78, 18.44 89.15, 19.65 89.85 C20.87 90.54, 22.65 91.05, 24 90.96 C25.35 90.87, 26.84 90.2, 27.76 89.29 C28.68 88.37, 29.23 87.39, 29.53 85.49 C29.82 83.59, 29.53 82.53, 29.53 77.89 C29.53 73.25, 29.53 65.1, 29.53 57.66 C29.53 50.22, 29.64 38.55, 29.53 33.25 C29.41 27.95, 29.16 27.53, 28.83 25.84 C28.5 24.15, 28.24 23.86, 27.55 23.13 C26.86 22.39, 25.87 21.68, 24.7 21.43 C23.53 21.18, 21.82 21.08, 20.54 21.63 C19.26 22.18, 17.76 23.59, 17.04 24.74 C16.31 25.89, 16.61 27.72, 16.19 28.52 C15.76 29.32, 15.72 29.37, 14.47 29.54 C13.21 29.71, 10.86 29.54, 8.65 29.54 C6.45 29.54, 2.66 29.81, 1.21 29.54 C-0.24 29.27, 0.17 28.91, -0.03 27.89 C-0.24 26.87, -0.04 28.08, -0.03 23.43 C-0.03 18.78, -0.01 3.9, 0 0" stroke="#FFFFFF" stroke-width="4" fill="none"></path></g></g><mask></mask><g stroke-linecap="round"><g transform="translate(45.632711985552305 184.11636107161257) rotate(0 1.3858498320064427 11.858412440271877)"><path d="M0 0 C3.44 -0.02, 16.62 -0.52, 20.64 -0.1 C24.65 0.32, 23.49 0.59, 24.08 2.53 C24.67 4.47, 24.16 8.43, 24.18 11.54 C24.2 14.65, 24.43 19.15, 24.2 21.18 C23.97 23.21, 24.4 23.26, 22.78 23.7 C21.17 24.14, 19.33 23.8, 14.49 23.82 C9.65 23.84, -0.68 23.82, -6.26 23.82 C-11.84 23.82, -16.49 23.97, -18.98 23.82 C-21.47 23.67, -20.78 23.64, -21.19 22.91 C-21.59 22.19, -21.39 21.54, -21.43 19.46 C-21.47 17.37, -21.43 13.09, -21.43 10.41 C-21.43 7.73, -21.48 5.07, -21.43 3.39 C-21.38 1.71, -21.61 0.88, -21.12 0.31 C-20.63 -0.26, -20.98 0.04, -18.47 -0.01 C-15.97 -0.07, -9.15 -0.02, -6.07 -0.01 C-2.99 -0.01, -1.01 0, 0 0 M0 0 C3.44 -0.02, 16.62 -0.52, 20.64 -0.1 C24.65 0.32, 23.49 0.59, 24.08 2.53 C24.67 4.47, 24.16 8.43, 24.18 11.54 C24.2 14.65, 24.43 19.15, 24.2 21.18 C23.97 23.21, 24.4 23.26, 22.78 23.7 C21.17 24.14, 19.33 23.8, 14.49 23.82 C9.65 23.84, -0.68 23.82, -6.26 23.82 C-11.84 23.82, -16.49 23.97, -18.98 23.82 C-21.47 23.67, -20.78 23.64, -21.19 22.91 C-21.59 22.19, -21.39 21.54, -21.43 19.46 C-21.47 17.37, -21.43 13.09, -21.43 10.41 C-21.43 7.73, -21.48 5.07, -21.43 3.39 C-21.38 1.71, -21.61 0.88, -21.12 0.31 C-20.63 -0.26, -20.98 0.04, -18.47 -0.01 C-15.97 -0.07, -9.15 -0.02, -6.07 -0.01 C-2.99 -0.01, -1.01 0, 0 0" stroke="#FFFFFF" stroke-width="4" fill="none"></path></g></g><mask></mask><g stroke-linecap="round"><g transform="translate(45.71840577447165 448.5027763058192) rotate(0 1.3858498320064427 11.858412440271877)"><path d="M0 0 C3.44 -0.02, 16.62 -0.52, 20.64 -0.1 C24.65 0.32, 23.49 0.59, 24.08 2.53 C24.67 4.47, 24.16 8.43, 24.18 11.54 C24.2 14.65, 24.43 19.15, 24.2 21.18 C23.97 23.21, 24.4 23.26, 22.78 23.7 C21.17 24.14, 19.33 23.8, 14.49 23.82 C9.65 23.84, -0.68 23.82, -6.26 23.82 C-11.84 23.82, -16.49 23.97, -18.98 23.82 C-21.47 23.67, -20.78 23.64, -21.19 22.91 C-21.59 22.19, -21.39 21.54, -21.43 19.46 C-21.47 17.37, -21.43 13.09, -21.43 10.41 C-21.43 7.73, -21.48 5.07, -21.43 3.39 C-21.38 1.71, -21.61 0.88, -21.12 0.31 C-20.63 -0.26, -20.98 0.04, -18.47 -0.01 C-15.97 -0.07, -9.15 -0.02, -6.07 -0.01 C-2.99 -0.01, -1.01 0, 0 0 M0 0 C3.44 -0.02, 16.62 -0.52, 20.64 -0.1 C24.65 0.32, 23.49 0.59, 24.08 2.53 C24.67 4.47, 24.16 8.43, 24.18 11.54 C24.2 14.65, 24.43 19.15, 24.2 21.18 C23.97 23.21, 24.4 23.26, 22.78 23.7 C21.17 24.14, 19.33 23.8, 14.49 23.82 C9.65 23.84, -0.68 23.82, -6.26 23.82 C-11.84 23.82, -16.49 23.97, -18.98 23.82 C-21.47 23.67, -20.78 23.64, -21.19 22.91 C-21.59 22.19, -21.39 21.54, -21.43 19.46 C-21.47 17.37, -21.43 13.09, -21.43 10.41 C-21.43 7.73, -21.48 5.07, -21.43 3.39 C-21.38 1.71, -21.61 0.88, -21.12 0.31 C-20.63 -0.26, -20.98 0.04, -18.47 -0.01 C-15.97 -0.07, -9.15 -0.02, -6.07 -0.01 C-2.99 -0.01, -1.01 0, 0 0" stroke="#FFFFFF" stroke-width="4" fill="none"></path></g></g><mask></mask><g stroke-linecap="round"><g transform="translate(39.83997481471215 387.75937156808504) rotate(0 187.76423602170416 -92.19692215953705)"><path d="M0 0 C0 -10.08, 0 -36.45, 0 -60.47 C0 -84.49, 0 -127.97, 0 -144.12 C0 -160.28, 0 -154.02, 0 -157.38 C0 -160.74, 0.2 -162.95, -0.02 -164.29 C-0.25 -165.63, -0.86 -165.22, -1.36 -165.41 C-1.87 -165.61, -1.24 -165.47, -3.05 -165.46 C-4.87 -165.46, -9.13 -165.4, -12.25 -165.39 C-15.38 -165.38, -19.44 -165.27, -21.81 -165.41 C-24.19 -165.55, -25.22 -165.48, -26.47 -166.23 C-27.72 -166.98, -28.77 -168.39, -29.32 -169.93 C-29.86 -171.46, -29.68 -171.31, -29.75 -175.45 C-29.82 -179.59, -29.75 -189.72, -29.75 -194.76 C-29.75 -199.81, -29.75 -203.01, -29.75 -205.71 C-29.75 -208.42, -29.95 -209.44, -29.75 -210.99 C-29.55 -212.54, -29.33 -213.91, -28.54 -215 C-27.76 -216.08, -26.74 -217.03, -25.04 -217.49 C-23.35 -217.94, -20.85 -217.68, -18.38 -217.72 C-15.91 -217.75, -12.77 -217.72, -10.23 -217.72 C-7.68 -217.72, -4.73 -217.56, -3.1 -217.72 C-1.48 -217.87, -0.97 -217.7, -0.48 -218.63 C0.01 -219.56, -0.22 -218.56, -0.16 -223.28 C-0.11 -228, -0.16 -237, -0.16 -246.95 C-0.16 -256.9, -0.16 -274.59, -0.16 -283 C-0.16 -291.4, -0.2 -293.36, -0.16 -297.39 C-0.13 -301.42, -0.41 -304.87, 0.03 -307.19 C0.47 -309.51, 1.12 -310.24, 2.47 -311.32 C3.82 -312.4, 4.64 -312.71, 8.15 -313.65 C11.66 -314.58, 13.94 -314.73, 23.55 -316.94 C33.15 -319.14, 47.79 -322.65, 65.79 -326.89 C83.79 -331.12, 109.46 -337.13, 131.56 -342.34 C153.66 -347.55, 181.19 -354.03, 198.37 -358.15 C215.55 -362.26, 222.97 -364.23, 234.66 -367.04 C246.34 -369.84, 260.43 -373.2, 268.48 -374.98 C276.52 -376.76, 279.23 -377.45, 282.92 -377.71 C286.61 -377.96, 288.39 -377.24, 290.61 -376.52 C292.84 -375.81, 294.66 -375.09, 296.26 -373.42 C297.86 -371.75, 299.39 -369.94, 300.2 -366.5 C301.01 -363.06, 300.97 -357.78, 301.12 -352.78 C301.26 -347.78, 301.09 -342.43, 301.08 -336.52 C301.07 -330.61, 301 -321.13, 301.08 -317.32 C301.16 -313.52, 301.08 -314.46, 301.54 -313.7 C302.01 -312.95, 301.48 -312.96, 303.88 -312.81 C306.27 -312.67, 305.06 -312.81, 315.9 -312.81 C326.73 -312.81, 357.68 -312.81, 368.87 -312.81 C380.06 -312.81, 378.89 -312.94, 383.05 -312.81 C387.21 -312.69, 390.85 -312.97, 393.84 -312.05 C396.83 -311.13, 399.21 -309.03, 401 -307.27 C402.8 -305.51, 403.89 -303.58, 404.6 -301.5 C405.32 -299.43, 405.17 -299.96, 405.28 -294.82 C405.39 -289.68, 405.28 -286.44, 405.28 -270.67 C405.28 -254.89, 405.28 -226.66, 405.28 -200.17 C405.28 -173.67, 405.28 -141.11, 405.28 -111.7 C405.28 -82.28, 405.28 -59.64, 405.28 -23.67 C405.28 12.31, 405.28 73.94, 405.28 104.17 C405.28 134.39, 405.28 145.91, 405.28 157.7 C405.28 169.48, 405.4 170.83, 405.28 174.88 C405.16 178.93, 405.09 179.93, 404.54 181.99 C403.99 184.06, 403.32 185.65, 401.96 187.26 C400.6 188.87, 398.43 190.74, 396.36 191.68 C394.3 192.62, 392.9 192.65, 389.57 192.92 C386.23 193.19, 388.09 193.25, 376.37 193.31 C364.65 193.38, 345.31 193.31, 319.23 193.31 C293.15 193.31, 250.81 193.31, 219.87 193.31 C188.93 193.31, 164.71 193.31, 133.59 193.31 C102.47 193.31, 53.32 193.31, 33.14 193.31 C12.96 193.31, 17.18 193.31, 12.5 193.31 C7.82 193.31, 6.93 193.76, 5.05 193.31 C3.16 192.86, 2.09 191.89, 1.2 190.62 C0.31 189.35, -0.02 188.93, -0.3 185.7 C-0.59 182.46, -0.5 178.18, -0.54 171.19 C-0.58 164.2, -0.54 153.71, -0.54 143.74 C-0.54 133.78, -0.54 118.29, -0.54 111.4 C-0.54 104.5, -0.51 104.44, -0.54 102.38 C-0.57 100.33, -0.44 99.7, -0.72 99.06 C-1.01 98.41, -1.23 98.6, -2.26 98.51 C-3.29 98.42, -3.97 98.5, -6.91 98.5 C-9.84 98.5, -16.8 98.54, -19.88 98.5 C-22.95 98.46, -23.9 98.81, -25.35 98.24 C-26.8 97.68, -27.86 96.55, -28.57 95.12 C-29.28 93.68, -29.46 92.26, -29.62 89.64 C-29.78 87.01, -29.54 83.9, -29.52 79.38 C-29.51 74.86, -29.52 67.16, -29.52 62.49 C-29.52 57.82, -29.84 53.83, -29.52 51.37 C-29.21 48.92, -28.55 48.67, -27.62 47.76 C-26.69 46.85, -25.57 46.23, -23.94 45.92 C-22.32 45.61, -20.4 45.9, -17.87 45.92 C-15.35 45.94, -11.48 46.03, -8.81 46.05 C-6.13 46.07, -3.23 46.28, -1.83 46.05 C-0.43 45.81, -0.71 46.02, -0.43 44.64 C-0.14 43.26, -0.16 42.35, -0.1 37.77 C-0.05 33.2, -0.11 23.49, -0.09 17.19 C-0.07 10.9, -0.01 2.87, 0 0 M0 0 C0 -10.08, 0 -36.45, 0 -60.47 C0 -84.49, 0 -127.97, 0 -144.12 C0 -160.28, 0 -154.02, 0 -157.38 C0 -160.74, 0.2 -162.95, -0.02 -164.29 C-0.25 -165.63, -0.86 -165.22, -1.36 -165.41 C-1.87 -165.61, -1.24 -165.47, -3.05 -165.46 C-4.87 -165.46, -9.13 -165.4, -12.25 -165.39 C-15.38 -165.38, -19.44 -165.27, -21.81 -165.41 C-24.19 -165.55, -25.22 -165.48, -26.47 -166.23 C-27.72 -166.98, -28.77 -168.39, -29.32 -169.93 C-29.86 -171.46, -29.68 -171.31, -29.75 -175.45 C-29.82 -179.59, -29.75 -189.72, -29.75 -194.76 C-29.75 -199.81, -29.75 -203.01, -29.75 -205.71 C-29.75 -208.42, -29.95 -209.44, -29.75 -210.99 C-29.55 -212.54, -29.33 -213.91, -28.54 -215 C-27.76 -216.08, -26.74 -217.03, -25.04 -217.49 C-23.35 -217.94, -20.85 -217.68, -18.38 -217.72 C-15.91 -217.75, -12.77 -217.72, -10.23 -217.72 C-7.68 -217.72, -4.73 -217.56, -3.1 -217.72 C-1.48 -217.87, -0.97 -217.7, -0.48 -218.63 C0.01 -219.56, -0.22 -218.56, -0.16 -223.28 C-0.11 -228, -0.16 -237, -0.16 -246.95 C-0.16 -256.9, -0.16 -274.59, -0.16 -283 C-0.16 -291.4, -0.2 -293.36, -0.16 -297.39 C-0.13 -301.42, -0.41 -304.87, 0.03 -307.19 C0.47 -309.51, 1.12 -310.24, 2.47 -311.32 C3.82 -312.4, 4.64 -312.71, 8.15 -313.65 C11.66 -314.58, 13.94 -314.73, 23.55 -316.94 C33.15 -319.14, 47.79 -322.65, 65.79 -326.89 C83.79 -331.12, 109.46 -337.13, 131.56 -342.34 C153.66 -347.55, 181.19 -354.03, 198.37 -358.15 C215.55 -362.26, 222.97 -364.23, 234.66 -367.04 C246.34 -369.84, 260.43 -373.2, 268.48 -374.98 C276.52 -376.76, 279.23 -377.45, 282.92 -377.71 C286.61 -377.96, 288.39 -377.24, 290.61 -376.52 C292.84 -375.81, 294.66 -375.09, 296.26 -373.42 C297.86 -371.75, 299.39 -369.94, 300.2 -366.5 C301.01 -363.06, 300.97 -357.78, 301.12 -352.78 C301.26 -347.78, 301.09 -342.43, 301.08 -336.52 C301.07 -330.61, 301 -321.13, 301.08 -317.32 C301.16 -313.52, 301.08 -314.46, 301.54 -313.7 C302.01 -312.95, 301.48 -312.96, 303.88 -312.81 C306.27 -312.67, 305.06 -312.81, 315.9 -312.81 C326.73 -312.81, 357.68 -312.81, 368.87 -312.81 C380.06 -312.81, 378.89 -312.94, 383.05 -312.81 C387.21 -312.69, 390.85 -312.97, 393.84 -312.05 C396.83 -311.13, 399.21 -309.03, 401 -307.27 C402.8 -305.51, 403.89 -303.58, 404.6 -301.5 C405.32 -299.43, 405.17 -299.96, 405.28 -294.82 C405.39 -289.68, 405.28 -286.44, 405.28 -270.67 C405.28 -254.89, 405.28 -226.66, 405.28 -200.17 C405.28 -173.67, 405.28 -141.11, 405.28 -111.7 C405.28 -82.28, 405.28 -59.64, 405.28 -23.67 C405.28 12.31, 405.28 73.94, 405.28 104.17 C405.28 134.39, 405.28 145.91, 405.28 157.7 C405.28 169.48, 405.4 170.83, 405.28 174.88 C405.16 178.93, 405.09 179.93, 404.54 181.99 C403.99 184.06, 403.32 185.65, 401.96 187.26 C400.6 188.87, 398.43 190.74, 396.36 191.68 C394.3 192.62, 392.9 192.65, 389.57 192.92 C386.23 193.19, 388.09 193.25, 376.37 193.31 C364.65 193.38, 345.31 193.31, 319.23 193.31 C293.15 193.31, 250.81 193.31, 219.87 193.31 C188.93 193.31, 164.71 193.31, 133.59 193.31 C102.47 193.31, 53.32 193.31, 33.14 193.31 C12.96 193.31, 17.18 193.31, 12.5 193.31 C7.82 193.31, 6.93 193.76, 5.05 193.31 C3.16 192.86, 2.09 191.89, 1.2 190.62 C0.31 189.35, -0.02 188.93, -0.3 185.7 C-0.59 182.46, -0.5 178.18, -0.54 171.19 C-0.58 164.2, -0.54 153.71, -0.54 143.74 C-0.54 133.78, -0.54 118.29, -0.54 111.4 C-0.54 104.5, -0.51 104.44, -0.54 102.38 C-0.57 100.33, -0.44 99.7, -0.72 99.06 C-1.01 98.41, -1.23 98.6, -2.26 98.51 C-3.29 98.42, -3.97 98.5, -6.91 98.5 C-9.84 98.5, -16.8 98.54, -19.88 98.5 C-22.95 98.46, -23.9 98.81, -25.35 98.24 C-26.8 97.68, -27.86 96.55, -28.57 95.12 C-29.28 93.68, -29.46 92.26, -29.62 89.64 C-29.78 87.01, -29.54 83.9, -29.52 79.38 C-29.51 74.86, -29.52 67.16, -29.52 62.49 C-29.52 57.82, -29.84 53.83, -29.52 51.37 C-29.21 48.92, -28.55 48.67, -27.62 47.76 C-26.69 46.85, -25.57 46.23, -23.94 45.92 C-22.32 45.61, -20.4 45.9, -17.87 45.92 C-15.35 45.94, -11.48 46.03, -8.81 46.05 C-6.13 46.07, -3.23 46.28, -1.83 46.05 C-0.43 45.81, -0.71 46.02, -0.43 44.64 C-0.14 43.26, -0.16 42.35, -0.1 37.77 C-0.05 33.2, -0.11 23.49, -0.09 17.19 C-0.07 10.9, -0.01 2.87, 0 0" stroke="#FFFFFF" stroke-width="4" fill="none"></path></g></g><mask></mask><g stroke-linecap="round"><g transform="translate(110.80560925474674 73.99214092785587) rotate(0 107.94137629467059 -24.793568297382762)"><path d="M0 0 C7.74 -1.79, 29.34 -6.75, 46.42 -10.74 C63.51 -14.73, 83.39 -19.38, 102.51 -23.95 C121.63 -28.52, 145.31 -34.37, 161.16 -38.19 C177.02 -42.01, 188.95 -44.96, 197.63 -46.87 C206.32 -48.78, 210.27 -49.5, 213.27 -49.64 C216.27 -49.77, 215.2 -48.49, 215.64 -47.68 C216.07 -46.88, 215.86 -48.43, 215.88 -44.83 C215.91 -41.23, 215.8 -32.86, 215.79 -26.08 C215.77 -19.3, 215.88 -8.42, 215.79 -4.12 C215.69 0.17, 216.29 -1.03, 215.21 -0.33 C214.13 0.37, 215.54 -0.01, 209.32 0.05 C203.09 0.11, 193.29 0.05, 177.87 0.05 C162.46 0.05, 146.47 0.06, 116.83 0.05 C87.18 0.04, 19.47 0.01, 0 0 M0 0 C7.74 -1.79, 29.34 -6.75, 46.42 -10.74 C63.51 -14.73, 83.39 -19.38, 102.51 -23.95 C121.63 -28.52, 145.31 -34.37, 161.16 -38.19 C177.02 -42.01, 188.95 -44.96, 197.63 -46.87 C206.32 -48.78, 210.27 -49.5, 213.27 -49.64 C216.27 -49.77, 215.2 -48.49, 215.64 -47.68 C216.07 -46.88, 215.86 -48.43, 215.88 -44.83 C215.91 -41.23, 215.8 -32.86, 215.79 -26.08 C215.77 -19.3, 215.88 -8.42, 215.79 -4.12 C215.69 0.17, 216.29 -1.03, 215.21 -0.33 C214.13 0.37, 215.54 -0.01, 209.32 0.05 C203.09 0.11, 193.29 0.05, 177.87 0.05 C162.46 0.05, 146.47 0.06, 116.83 0.05 C87.18 0.04, 19.47 0.01, 0 0" stroke="#FFFFFF" stroke-width="4" fill="none"></path></g></g><mask></mask><g stroke-linecap="round"><g transform="translate(153.94344295860537 279.96129305081195) rotate(0 89.16327950769164 -41.266617495899254)"><path d="M0 0 C0.14 -1.93, -0.07 -7.15, 0.81 -11.58 C1.7 -16.01, 2.94 -21.2, 5.3 -26.59 C7.65 -31.99, 11.24 -38.57, 14.94 -43.95 C18.63 -49.33, 21.97 -54.11, 27.45 -58.87 C32.94 -63.63, 40.88 -68.85, 47.84 -72.52 C54.81 -76.2, 61.99 -79.15, 69.24 -80.93 C76.49 -82.71, 83.86 -83.41, 91.32 -83.19 C98.79 -82.97, 107.24 -81.56, 114.02 -79.6 C120.8 -77.65, 126.15 -74.82, 132.03 -71.46 C137.91 -68.1, 144.16 -64.17, 149.33 -59.43 C154.5 -54.69, 159.53 -47.93, 163.05 -43.03 C166.57 -38.13, 168.36 -34.64, 170.45 -30.02 C172.53 -25.4, 174.26 -20.4, 175.57 -15.29 C176.89 -10.18, 177.87 -2, 178.33 0.66 M0 0 C0.14 -1.93, -0.07 -7.15, 0.81 -11.58 C1.7 -16.01, 2.94 -21.2, 5.3 -26.59 C7.65 -31.99, 11.24 -38.57, 14.94 -43.95 C18.63 -49.33, 21.97 -54.11, 27.45 -58.87 C32.94 -63.63, 40.88 -68.85, 47.84 -72.52 C54.81 -76.2, 61.99 -79.15, 69.24 -80.93 C76.49 -82.71, 83.86 -83.41, 91.32 -83.19 C98.79 -82.97, 107.24 -81.56, 114.02 -79.6 C120.8 -77.65, 126.15 -74.82, 132.03 -71.46 C137.91 -68.1, 144.16 -64.17, 149.33 -59.43 C154.5 -54.69, 159.53 -47.93, 163.05 -43.03 C166.57 -38.13, 168.36 -34.64, 170.45 -30.02 C172.53 -25.4, 174.26 -20.4, 175.57 -15.29 C176.89 -10.18, 177.87 -2, 178.33 0.66" stroke="#FFFFFF" stroke-width="4" fill="none"></path></g></g><mask></mask><g stroke-linecap="round"><g transform="translate(332.27000197398866 280.37878228618183) rotate(0 -89.15218917971515 0)"><path d="M0 0 C-29.72 0, -148.59 0, -178.3 0 M0 0 C-29.72 0, -148.59 0, -178.3 0" stroke="#FFFFFF" stroke-width="4" fill="none"></path></g></g><mask></mask><g stroke-linecap="round"><g transform="translate(252.5157567212891 293.86807142947555) rotate(0 -9.97365517484559 -64.94816450103508)"><path d="M0 0 C-9.58 0, -39.19 0, -57.49 0 C-75.78 0, -99.32 0, -109.75 0 C-120.18 0, -117.6 0.39, -120.08 0 C-122.55 -0.39, -123.57 -1.2, -124.6 -2.36 C-125.63 -3.51, -126.26 -5.45, -126.28 -6.94 C-126.29 -8.43, -125.51 -10.19, -124.7 -11.32 C-123.88 -12.45, -122.75 -13.28, -121.4 -13.71 C-120.04 -14.14, -117.9 -13.82, -116.56 -13.92 C-115.22 -14.01, -113.99 -13.88, -113.38 -14.27 C-112.76 -14.66, -113.01 -15.25, -112.86 -16.25 C-112.72 -17.25, -112.84 -17.89, -112.5 -20.28 C-112.16 -22.66, -111.72 -26.76, -110.83 -30.56 C-109.94 -34.37, -108.76 -38.93, -107.16 -43.11 C-105.56 -47.28, -103.64 -51.29, -101.23 -55.62 C-98.81 -59.95, -95.89 -64.84, -92.68 -69.1 C-89.48 -73.36, -85.3 -77.74, -81.98 -81.18 C-78.65 -84.62, -76.41 -86.98, -72.72 -89.75 C-69.03 -92.51, -64.13 -95.46, -59.85 -97.77 C-55.56 -100.07, -51.09 -101.93, -47.02 -103.57 C-42.96 -105.21, -39.27 -106.55, -35.47 -107.61 C-31.67 -108.67, -27.2 -109.41, -24.21 -109.93 C-21.22 -110.46, -18.78 -110.11, -17.54 -110.78 C-16.29 -111.44, -16.88 -111.98, -16.75 -113.93 C-16.62 -115.88, -16.89 -120.45, -16.75 -122.49 C-16.61 -124.53, -16.5 -125.03, -15.89 -126.17 C-15.29 -127.32, -14.23 -128.7, -13.14 -129.37 C-12.06 -130.04, -10.61 -130.33, -9.36 -130.2 C-8.12 -130.07, -6.63 -129.39, -5.66 -128.58 C-4.68 -127.78, -3.93 -126.91, -3.5 -125.38 C-3.06 -123.85, -3.12 -121.33, -3.04 -119.39 C-2.97 -117.45, -3.1 -115.12, -3.04 -113.75 C-2.99 -112.37, -3.02 -111.67, -2.73 -111.13 C-2.43 -110.59, -2.6 -110.71, -1.28 -110.51 C0.04 -110.31, 2.44 -110.33, 5.21 -109.92 C7.97 -109.51, 11.46 -109.1, 15.32 -108.04 C19.19 -106.97, 24 -105.33, 28.38 -103.53 C32.77 -101.72, 37.45 -99.58, 41.62 -97.2 C45.79 -94.82, 49.7 -92.11, 53.39 -89.23 C57.09 -86.34, 60.21 -83.64, 63.79 -79.88 C67.37 -76.12, 71.84 -70.82, 74.87 -66.66 C77.9 -62.51, 79.95 -58.87, 81.99 -54.95 C84.03 -51.02, 85.55 -47.61, 87.12 -43.11 C88.69 -38.61, 90.41 -32.5, 91.43 -27.95 C92.44 -23.4, 92.75 -18.14, 93.23 -15.79 C93.7 -13.44, 93.31 -14.19, 94.27 -13.87 C95.22 -13.55, 97.42 -14.01, 98.96 -13.87 C100.5 -13.74, 102.26 -13.9, 103.49 -13.06 C104.72 -12.22, 105.91 -10.49, 106.33 -8.85 C106.75 -7.21, 106.72 -4.69, 106 -3.22 C105.27 -1.75, 104.28 -0.61, 101.98 -0.02 C99.68 0.56, 97.94 0.27, 92.19 0.3 C86.44 0.33, 82.84 0.2, 67.48 0.15 C52.11 0.1, 11.25 0.03, 0 0 M0 0 C-9.58 0, -39.19 0, -57.49 0 C-75.78 0, -99.32 0, -109.75 0 C-120.18 0, -117.6 0.39, -120.08 0 C-122.55 -0.39, -123.57 -1.2, -124.6 -2.36 C-125.63 -3.51, -126.26 -5.45, -126.28 -6.94 C-126.29 -8.43, -125.51 -10.19, -124.7 -11.32 C-123.88 -12.45, -122.75 -13.28, -121.4 -13.71 C-120.04 -14.14, -117.9 -13.82, -116.56 -13.92 C-115.22 -14.01, -113.99 -13.88, -113.38 -14.27 C-112.76 -14.66, -113.01 -15.25, -112.86 -16.25 C-112.72 -17.25, -112.84 -17.89, -112.5 -20.28 C-112.16 -22.66, -111.72 -26.76, -110.83 -30.56 C-109.94 -34.37, -108.76 -38.93, -107.16 -43.11 C-105.56 -47.28, -103.64 -51.29, -101.23 -55.62 C-98.81 -59.95, -95.89 -64.84, -92.68 -69.1 C-89.48 -73.36, -85.3 -77.74, -81.98 -81.18 C-78.65 -84.62, -76.41 -86.98, -72.72 -89.75 C-69.03 -92.51, -64.13 -95.46, -59.85 -97.77 C-55.56 -100.07, -51.09 -101.93, -47.02 -103.57 C-42.96 -105.21, -39.27 -106.55, -35.47 -107.61 C-31.67 -108.67, -27.2 -109.41, -24.21 -109.93 C-21.22 -110.46, -18.78 -110.11, -17.54 -110.78 C-16.29 -111.44, -16.88 -111.98, -16.75 -113.93 C-16.62 -115.88, -16.89 -120.45, -16.75 -122.49 C-16.61 -124.53, -16.5 -125.03, -15.89 -126.17 C-15.29 -127.32, -14.23 -128.7, -13.14 -129.37 C-12.06 -130.04, -10.61 -130.33, -9.36 -130.2 C-8.12 -130.07, -6.63 -129.39, -5.66 -128.58 C-4.68 -127.78, -3.93 -126.91, -3.5 -125.38 C-3.06 -123.85, -3.12 -121.33, -3.04 -119.39 C-2.97 -117.45, -3.1 -115.12, -3.04 -113.75 C-2.99 -112.37, -3.02 -111.67, -2.73 -111.13 C-2.43 -110.59, -2.6 -110.71, -1.28 -110.51 C0.04 -110.31, 2.44 -110.33, 5.21 -109.92 C7.97 -109.51, 11.46 -109.1, 15.32 -108.04 C19.19 -106.97, 24 -105.33, 28.38 -103.53 C32.77 -101.72, 37.45 -99.58, 41.62 -97.2 C45.79 -94.82, 49.7 -92.11, 53.39 -89.23 C57.09 -86.34, 60.21 -83.64, 63.79 -79.88 C67.37 -76.12, 71.84 -70.82, 74.87 -66.66 C77.9 -62.51, 79.95 -58.87, 81.99 -54.95 C84.03 -51.02, 85.55 -47.61, 87.12 -43.11 C88.69 -38.61, 90.41 -32.5, 91.43 -27.95 C92.44 -23.4, 92.75 -18.14, 93.23 -15.79 C93.7 -13.44, 93.31 -14.19, 94.27 -13.87 C95.22 -13.55, 97.42 -14.01, 98.96 -13.87 C100.5 -13.74, 102.26 -13.9, 103.49 -13.06 C104.72 -12.22, 105.91 -10.49, 106.33 -8.85 C106.75 -7.21, 106.72 -4.69, 106 -3.22 C105.27 -1.75, 104.28 -0.61, 101.98 -0.02 C99.68 0.56, 97.94 0.27, 92.19 0.3 C86.44 0.33, 82.84 0.2, 67.48 0.15 C52.11 0.1, 11.25 0.03, 0 0" stroke="#FFFFFF" stroke-width="4" fill="none"></path></g></g><mask></mask><g stroke-linecap="round"><g transform="translate(236.95918065836668 372.5021807973858) rotate(0 5.59470120845981 6.606727269019757)"><path d="M0 0 C7.97 0, 37.11 0, 47.84 0 C58.56 0, 60.8 -0.28, 64.36 0 C67.92 0.28, 67.98 0.79, 69.19 1.7 C70.39 2.6, 71.29 4.07, 71.57 5.43 C71.86 6.78, 71.54 8.62, 70.91 9.82 C70.28 11.02, 69.62 12.04, 67.8 12.63 C65.98 13.21, 63.98 13.23, 59.99 13.35 C56.01 13.47, 53.8 13.35, 43.9 13.35 C34.01 13.35, 13.64 13.35, 0.61 13.35 C-12.41 13.35, -25.58 13.35, -34.25 13.35 C-42.92 13.35, -47.5 13.56, -51.42 13.35 C-55.34 13.14, -56.27 12.94, -57.77 12.08 C-59.26 11.22, -59.98 9.5, -60.38 8.17 C-60.79 6.84, -60.72 5.33, -60.21 4.1 C-59.7 2.87, -58.54 1.5, -57.32 0.81 C-56.1 0.12, -55.25 0.11, -52.87 -0.04 C-50.5 -0.2, -51.88 -0.14, -43.07 -0.14 C-34.26 -0.13, -7.18 -0.02, 0 0 M0 0 C7.97 0, 37.11 0, 47.84 0 C58.56 0, 60.8 -0.28, 64.36 0 C67.92 0.28, 67.98 0.79, 69.19 1.7 C70.39 2.6, 71.29 4.07, 71.57 5.43 C71.86 6.78, 71.54 8.62, 70.91 9.82 C70.28 11.02, 69.62 12.04, 67.8 12.63 C65.98 13.21, 63.98 13.23, 59.99 13.35 C56.01 13.47, 53.8 13.35, 43.9 13.35 C34.01 13.35, 13.64 13.35, 0.61 13.35 C-12.41 13.35, -25.58 13.35, -34.25 13.35 C-42.92 13.35, -47.5 13.56, -51.42 13.35 C-55.34 13.14, -56.27 12.94, -57.77 12.08 C-59.26 11.22, -59.98 9.5, -60.38 8.17 C-60.79 6.84, -60.72 5.33, -60.21 4.1 C-59.7 2.87, -58.54 1.5, -57.32 0.81 C-56.1 0.12, -55.25 0.11, -52.87 -0.04 C-50.5 -0.2, -51.88 -0.14, -43.07 -0.14 C-34.26 -0.13, -7.18 -0.02, 0 0" stroke="#FFFFFF" stroke-width="4" fill="none"></path></g></g><mask></mask><g stroke-linecap="round"><g transform="translate(232.64403406811925 425.76494766739506) rotate(0 9.852800393105554 6.606727269019757)"><path d="M0 0 C14.04 0, 65.35 0, 84.24 0 C103.13 0, 107.07 -0.28, 113.34 0 C119.61 0.28, 119.72 0.79, 121.84 1.7 C123.96 2.6, 125.54 4.07, 126.05 5.43 C126.55 6.78, 125.99 8.62, 124.88 9.82 C123.78 11.02, 122.61 12.04, 119.41 12.63 C116.2 13.21, 112.67 13.23, 105.65 13.35 C98.64 13.47, 94.75 13.35, 77.32 13.35 C59.89 13.35, 24.02 13.35, 1.08 13.35 C-21.86 13.35, -45.04 13.35, -60.32 13.35 C-75.59 13.35, -83.65 13.56, -90.55 13.35 C-97.45 13.14, -99.1 12.94, -101.74 12.08 C-104.37 11.22, -105.63 9.5, -106.34 8.17 C-107.06 6.84, -106.93 5.33, -106.03 4.1 C-105.13 2.87, -103.1 1.5, -100.95 0.81 C-98.79 0.12, -97.29 0.11, -93.11 -0.04 C-88.93 -0.2, -91.37 -0.14, -75.85 -0.14 C-60.33 -0.13, -12.64 -0.02, 0 0 M0 0 C14.04 0, 65.35 0, 84.24 0 C103.13 0, 107.07 -0.28, 113.34 0 C119.61 0.28, 119.72 0.79, 121.84 1.7 C123.96 2.6, 125.54 4.07, 126.05 5.43 C126.55 6.78, 125.99 8.62, 124.88 9.82 C123.78 11.02, 122.61 12.04, 119.41 12.63 C116.2 13.21, 112.67 13.23, 105.65 13.35 C98.64 13.47, 94.75 13.35, 77.32 13.35 C59.89 13.35, 24.02 13.35, 1.08 13.35 C-21.86 13.35, -45.04 13.35, -60.32 13.35 C-75.59 13.35, -83.65 13.56, -90.55 13.35 C-97.45 13.14, -99.1 12.94, -101.74 12.08 C-104.37 11.22, -105.63 9.5, -106.34 8.17 C-107.06 6.84, -106.93 5.33, -106.03 4.1 C-105.13 2.87, -103.1 1.5, -100.95 0.81 C-98.79 0.12, -97.29 0.11, -93.11 -0.04 C-88.93 -0.2, -91.37 -0.14, -75.85 -0.14 C-60.33 -0.13, -12.64 -0.02, 0 0" stroke="#FFFFFF" stroke-width="4" fill="none"></path></g></g><mask></mask><g stroke-linecap="round"><g transform="translate(239.5393773537844 478.870093182436) rotate(0 3.111933543375926 6.606727269019757)"><path d="M0 0 C4.43 0, 20.64 0, 26.61 0 C32.57 0, 33.82 -0.28, 35.8 0 C37.78 0.28, 37.81 0.79, 38.48 1.7 C39.15 2.6, 39.65 4.07, 39.81 5.43 C39.97 6.78, 39.79 8.62, 39.44 9.82 C39.09 11.02, 38.73 12.04, 37.71 12.63 C36.7 13.21, 35.58 13.23, 33.37 13.35 C31.15 13.47, 29.93 13.35, 24.42 13.35 C18.92 13.35, 7.59 13.35, 0.34 13.35 C-6.9 13.35, -14.23 13.35, -19.05 13.35 C-23.87 13.35, -26.42 13.56, -28.6 13.35 C-30.78 13.14, -31.3 12.94, -32.13 12.08 C-32.96 11.22, -33.36 9.5, -33.59 8.17 C-33.81 6.84, -33.77 5.33, -33.49 4.1 C-33.21 2.87, -32.56 1.5, -31.88 0.81 C-31.2 0.12, -30.73 0.11, -29.41 -0.04 C-28.09 -0.2, -28.86 -0.14, -23.96 -0.14 C-19.06 -0.13, -3.99 -0.02, 0 0 M0 0 C4.43 0, 20.64 0, 26.61 0 C32.57 0, 33.82 -0.28, 35.8 0 C37.78 0.28, 37.81 0.79, 38.48 1.7 C39.15 2.6, 39.65 4.07, 39.81 5.43 C39.97 6.78, 39.79 8.62, 39.44 9.82 C39.09 11.02, 38.73 12.04, 37.71 12.63 C36.7 13.21, 35.58 13.23, 33.37 13.35 C31.15 13.47, 29.93 13.35, 24.42 13.35 C18.92 13.35, 7.59 13.35, 0.34 13.35 C-6.9 13.35, -14.23 13.35, -19.05 13.35 C-23.87 13.35, -26.42 13.56, -28.6 13.35 C-30.78 13.14, -31.3 12.94, -32.13 12.08 C-32.96 11.22, -33.36 9.5, -33.59 8.17 C-33.81 6.84, -33.77 5.33, -33.49 4.1 C-33.21 2.87, -32.56 1.5, -31.88 0.81 C-31.2 0.12, -30.73 0.11, -29.41 -0.04 C-28.09 -0.2, -28.86 -0.14, -23.96 -0.14 C-19.06 -0.13, -3.99 -0.02, 0 0" stroke="#FFFFFF" stroke-width="4" fill="none"></path></g></g><mask></mask></svg>