<svg version="1.1" xmlns="http://www.w3.org/2000/svg" viewBox="0 0 561.4647492381101 515.9751260993364" width="561.4647492381101" height="515.9751260993364" class="excalidraw-svg"><!-- svg-source:excalidraw --><metadata></metadata><defs><style class="style-fonts">
      </style></defs><rect x="0" y="0" width="561.4647492381101" height="515.9751260993364" fill="#000000"></rect><g stroke-linecap="round" transform="translate(10.129664668211262 10) rotate(0 252.6436008259199 80.7780127385897)"><path d="M505.29 80.78 C505.29 82.7, 505.07 84.62, 504.64 86.54 C504.21 88.46, 503.57 90.37, 502.72 92.27 C501.86 94.18, 500.79 96.07, 499.51 97.95 C498.24 99.83, 496.75 101.69, 495.05 103.54 C493.36 105.38, 491.46 107.21, 489.36 109.01 C487.26 110.81, 484.95 112.59, 482.46 114.33 C479.96 116.08, 477.26 117.8, 474.38 119.49 C471.5 121.18, 468.43 122.83, 465.18 124.45 C461.93 126.07, 458.5 127.65, 454.9 129.19 C451.29 130.72, 447.51 132.22, 443.58 133.68 C439.64 135.13, 435.54 136.54, 431.29 137.9 C427.04 139.25, 422.63 140.57, 418.09 141.83 C413.55 143.08, 408.86 144.29, 404.05 145.44 C399.24 146.6, 394.29 147.69, 389.23 148.73 C384.18 149.77, 379 150.75, 373.72 151.68 C368.45 152.6, 363.06 153.46, 357.6 154.26 C352.13 155.05, 346.56 155.79, 340.93 156.46 C335.3 157.13, 329.59 157.74, 323.82 158.28 C318.06 158.83, 312.22 159.3, 306.35 159.71 C300.48 160.12, 294.55 160.46, 288.6 160.73 C282.65 161.01, 276.66 161.21, 270.67 161.35 C264.67 161.49, 258.65 161.56, 252.64 161.56 C246.64 161.56, 240.61 161.49, 234.62 161.35 C228.63 161.21, 222.64 161.01, 216.69 160.73 C210.74 160.46, 204.81 160.12, 198.94 159.71 C193.07 159.3, 187.23 158.83, 181.47 158.28 C175.7 157.74, 169.98 157.13, 164.35 156.46 C158.72 155.79, 153.16 155.05, 147.69 154.26 C142.23 153.46, 136.84 152.6, 131.56 151.68 C126.29 150.75, 121.11 149.77, 116.05 148.73 C111 147.69, 106.05 146.6, 101.24 145.44 C96.43 144.29, 91.74 143.08, 87.2 141.83 C82.66 140.57, 78.25 139.25, 74 137.9 C69.75 136.54, 65.64 135.13, 61.71 133.68 C57.77 132.22, 53.99 130.72, 50.39 129.19 C46.79 127.65, 43.35 126.07, 40.11 124.45 C36.86 122.83, 33.78 121.18, 30.9 119.49 C28.02 117.8, 25.33 116.08, 22.83 114.33 C20.34 112.59, 18.03 110.81, 15.93 109.01 C13.83 107.21, 11.93 105.38, 10.23 103.54 C8.54 101.69, 7.05 99.83, 5.77 97.95 C4.5 96.07, 3.43 94.18, 2.57 92.27 C1.72 90.37, 1.07 88.46, 0.64 86.54 C0.22 84.62, 0 82.7, 0 80.78 C0 78.86, 0.22 76.93, 0.64 75.02 C1.07 73.1, 1.72 71.18, 2.57 69.28 C3.43 67.38, 4.5 65.48, 5.77 63.61 C7.05 61.73, 8.54 59.86, 10.23 58.02 C11.93 56.18, 13.83 54.35, 15.93 52.55 C18.03 50.75, 20.34 48.97, 22.83 47.22 C25.33 45.47, 28.02 43.75, 30.9 42.07 C33.78 40.38, 36.86 38.72, 40.11 37.11 C43.35 35.49, 46.79 33.91, 50.39 32.37 C53.99 30.83, 57.77 29.33, 61.71 27.88 C65.64 26.43, 69.75 25.02, 74 23.66 C78.25 22.3, 82.66 20.99, 87.2 19.73 C91.74 18.47, 96.43 17.26, 101.24 16.11 C106.05 14.96, 111 13.86, 116.05 12.82 C121.11 11.78, 126.29 10.8, 131.56 9.88 C136.84 8.96, 142.23 8.1, 147.69 7.3 C153.16 6.5, 158.72 5.76, 164.35 5.09 C169.98 4.42, 175.7 3.81, 181.47 3.27 C187.23 2.73, 193.07 2.25, 198.94 1.85 C204.81 1.44, 210.74 1.1, 216.69 0.82 C222.64 0.55, 228.63 0.34, 234.62 0.21 C240.61 0.07, 246.64 0, 252.64 0 C258.65 0, 264.67 0.07, 270.67 0.21 C276.66 0.34, 282.65 0.55, 288.6 0.82 C294.55 1.1, 300.48 1.44, 306.35 1.85 C312.22 2.25, 318.06 2.73, 323.82 3.27 C329.59 3.81, 335.3 4.42, 340.93 5.09 C346.56 5.76, 352.13 6.5, 357.6 7.3 C363.06 8.1, 368.45 8.96, 373.72 9.88 C379 10.8, 384.18 11.78, 389.23 12.82 C394.29 13.86, 399.24 14.96, 404.05 16.11 C408.86 17.26, 413.55 18.47, 418.09 19.73 C422.63 20.99, 427.04 22.3, 431.29 23.66 C435.54 25.02, 439.64 26.43, 443.58 27.88 C447.51 29.33, 451.29 30.83, 454.9 32.37 C458.5 33.91, 461.93 35.49, 465.18 37.11 C468.43 38.72, 471.5 40.38, 474.38 42.07 C477.26 43.75, 479.96 45.47, 482.46 47.22 C484.95 48.97, 487.26 50.75, 489.36 52.55 C491.46 54.35, 493.36 56.18, 495.05 58.02 C496.75 59.86, 498.24 61.73, 499.51 63.61 C500.79 65.48, 501.86 67.38, 502.72 69.28 C503.57 71.18, 504.21 73.1, 504.64 75.02 C505.07 76.93, 505.29 78.86, 505.29 80.78" stroke="#E1E1E1" stroke-width="4" fill="none"></path></g><g stroke-linecap="round"><g transform="translate(10 95.53421991868277) rotate(0 0.04808792293596298 40.406748656856195)"><path d="M0 0 C0.02 13.47, 0.08 67.34, 0.1 80.81 M0 0 C0.02 13.47, 0.08 67.34, 0.1 80.81" stroke="#E1E1E1" stroke-width="4" fill="none"></path></g></g><mask></mask><g stroke-linecap="round"><g transform="translate(10.219367779429831 175.92803972484285) rotate(0 252.63682242867537 31.307678939693943)"><path d="M0 0 C2.47 2.8, 7.52 10.99, 14.84 16.78 C22.16 22.57, 28.17 28.09, 43.92 34.72 C59.67 41.36, 81.61 50.95, 109.36 56.61 C137.11 62.27, 175.8 67.1, 210.42 68.67 C245.03 70.24, 284.38 68.7, 317.03 66.02 C349.69 63.35, 380.28 59.31, 406.34 52.65 C432.41 45.98, 456.94 35.81, 473.43 26.03 C489.92 16.24, 499.97 -0.71, 505.27 -6.06 M0 0 C2.47 2.8, 7.52 10.99, 14.84 16.78 C22.16 22.57, 28.17 28.09, 43.92 34.72 C59.67 41.36, 81.61 50.95, 109.36 56.61 C137.11 62.27, 175.8 67.1, 210.42 68.67 C245.03 70.24, 284.38 68.7, 317.03 66.02 C349.69 63.35, 380.28 59.31, 406.34 52.65 C432.41 45.98, 456.94 35.81, 473.43 26.03 C489.92 16.24, 499.97 -0.71, 505.27 -6.06" stroke="#E1E1E1" stroke-width="4" fill="none"></path></g></g><mask></mask><g stroke-linecap="round"><g transform="translate(44.763058112246654 237.23114338694631) rotate(0 252.63682242867537 31.307678939693943)"><path d="M0 0 C2.47 2.8, 7.52 10.99, 14.84 16.78 C22.16 22.57, 28.17 28.09, 43.92 34.72 C59.67 41.36, 81.61 50.95, 109.36 56.61 C137.11 62.27, 175.8 67.1, 210.42 68.67 C245.03 70.24, 284.38 68.7, 317.03 66.02 C349.69 63.35, 380.28 59.31, 406.34 52.65 C432.41 45.98, 456.94 35.81, 473.43 26.03 C489.92 16.24, 499.97 -0.71, 505.27 -6.06 M0 0 C2.47 2.8, 7.52 10.99, 14.84 16.78 C22.16 22.57, 28.17 28.09, 43.92 34.72 C59.67 41.36, 81.61 50.95, 109.36 56.61 C137.11 62.27, 175.8 67.1, 210.42 68.67 C245.03 70.24, 284.38 68.7, 317.03 66.02 C349.69 63.35, 380.28 59.31, 406.34 52.65 C432.41 45.98, 456.94 35.81, 473.43 26.03 C489.92 16.24, 499.97 -0.71, 505.27 -6.06" stroke="#E1E1E1" stroke-width="4" fill="none"></path></g></g><mask></mask><g stroke-linecap="round"><g transform="translate(42.85916294451454 307.28799543965647) rotate(0 253.85284726379197 30.354392502209727)"><path d="M0 0 C2.47 2.8, 7.52 10.99, 14.84 16.78 C22.16 22.57, 28.17 28.09, 43.92 34.72 C59.67 41.36, 81.61 50.95, 109.36 56.61 C137.11 62.27, 175.8 67.1, 210.42 68.67 C245.03 70.24, 284.38 68.7, 317.03 66.02 C349.69 63.35, 380.28 59.31, 406.34 52.65 C432.41 45.98, 456.54 36.13, 473.43 26.03 C490.32 15.92, 501.99 -2.3, 507.71 -7.96 M0 0 C2.47 2.8, 7.52 10.99, 14.84 16.78 C22.16 22.57, 28.17 28.09, 43.92 34.72 C59.67 41.36, 81.61 50.95, 109.36 56.61 C137.11 62.27, 175.8 67.1, 210.42 68.67 C245.03 70.24, 284.38 68.7, 317.03 66.02 C349.69 63.35, 380.28 59.31, 406.34 52.65 C432.41 45.98, 456.54 36.13, 473.43 26.03 C490.32 15.92, 501.99 -2.3, 507.71 -7.96" stroke="#E1E1E1" stroke-width="4" fill="none"></path></g></g><mask></mask><g stroke-linecap="round"><g transform="translate(19.01725658848909 368.75478089384865) rotate(0 252.63682242867537 31.307678939693936)"><path d="M0 0 C2.47 2.8, 7.52 10.99, 14.84 16.78 C22.16 22.57, 28.17 28.09, 43.92 34.72 C59.67 41.36, 81.61 50.95, 109.36 56.61 C137.11 62.27, 175.8 67.1, 210.42 68.67 C245.03 70.24, 284.38 68.7, 317.03 66.02 C349.69 63.35, 380.28 59.31, 406.34 52.65 C432.41 45.98, 456.94 35.81, 473.43 26.03 C489.92 16.24, 499.97 -0.71, 505.27 -6.06 M0 0 C2.47 2.8, 7.52 10.99, 14.84 16.78 C22.16 22.57, 28.17 28.09, 43.92 34.72 C59.67 41.36, 81.61 50.95, 109.36 56.61 C137.11 62.27, 175.8 67.1, 210.42 68.67 C245.03 70.24, 284.38 68.7, 317.03 66.02 C349.69 63.35, 380.28 59.31, 406.34 52.65 C432.41 45.98, 456.94 35.81, 473.43 26.03 C489.92 16.24, 499.97 -0.71, 505.27 -6.06" stroke="#E1E1E1" stroke-width="4" fill="none"></path></g></g><mask></mask><g stroke-linecap="round"><g transform="translate(18.530238688726058 436.6736380727043) rotate(0 252.63682242867537 31.307678939693936)"><path d="M0 0 C2.47 2.8, 7.52 10.99, 14.84 16.78 C22.16 22.57, 28.17 28.09, 43.92 34.72 C59.67 41.36, 81.61 50.95, 109.36 56.61 C137.11 62.27, 175.8 67.1, 210.42 68.67 C245.03 70.24, 284.38 68.7, 317.03 66.02 C349.69 63.35, 380.28 59.31, 406.34 52.65 C432.41 45.98, 456.94 35.81, 473.43 26.03 C489.92 16.24, 499.97 -0.71, 505.27 -6.06 M0 0 C2.47 2.8, 7.52 10.99, 14.84 16.78 C22.16 22.57, 28.17 28.09, 43.92 34.72 C59.67 41.36, 81.61 50.95, 109.36 56.61 C137.11 62.27, 175.8 67.1, 210.42 68.67 C245.03 70.24, 284.38 68.7, 317.03 66.02 C349.69 63.35, 380.28 59.31, 406.34 52.65 C432.41 45.98, 456.94 35.81, 473.43 26.03 C489.92 16.24, 499.97 -0.71, 505.27 -6.06" stroke="#E1E1E1" stroke-width="4" fill="none"></path></g></g><mask></mask><g stroke-linecap="round"><g transform="translate(18.444198095226056 369.17784886577374) rotate(0 0.31501095841821325 34.28942428161896)"><path d="M0 0 C0.11 11.43, 0.53 57.15, 0.63 68.58 M0 0 C0.11 11.43, 0.53 57.15, 0.63 68.58" stroke="#E1E1E1" stroke-width="4" fill="none"></path></g></g><mask></mask><g stroke-linecap="round"><g transform="translate(90.65736522676389 416.42399025368513) rotate(0 0.31088417730356355 32.484645340811944)"><path d="M0 0 C0.1 10.83, 0.52 54.14, 0.62 64.97 M0 0 C0.1 10.83, 0.52 54.14, 0.62 64.97" stroke="#E1E1E1" stroke-width="4" fill="none"></path></g></g><mask></mask><g stroke-linecap="round"><g transform="translate(163.2144307845242 433.8445089323234) rotate(0 0.7304402572928979 32.30169137806268)"><path d="M0 0 C0.24 10.77, 1.22 53.84, 1.46 64.6 M0 0 C0.24 10.77, 1.22 53.84, 1.46 64.6" stroke="#E1E1E1" stroke-width="4" fill="none"></path></g></g><mask></mask><g stroke-linecap="round"><g transform="translate(236.2006815782065 438.90394257888283) rotate(0 0 33.191700505122355)"><path d="M0 0 C0 11.06, 0 55.32, 0 66.38 M0 0 C0 11.06, 0 55.32, 0 66.38" stroke="#E1E1E1" stroke-width="4" fill="none"></path></g></g><mask></mask><g stroke-linecap="round"><g transform="translate(307.3491391821617 438.46100140591034) rotate(0 0 31.891764454007784)"><path d="M0 0 C0 10.63, 0 53.15, 0 63.78 M0 0 C0 10.63, 0 53.15, 0 63.78" stroke="#E1E1E1" stroke-width="4" fill="none"></path></g></g><mask></mask><g stroke-linecap="round"><g transform="translate(380.54448021899407 432.14152392567735) rotate(0 0 32.561678588285695)"><path d="M0 0 C0 10.85, 0 54.27, 0 65.12 M0 0 C0 10.85, 0 54.27, 0 65.12" stroke="#E1E1E1" stroke-width="4" fill="none"></path></g></g><mask></mask><g stroke-linecap="round"><g transform="translate(452.9254697825281 415.6811696530449) rotate(0 -1.4210854715202004e-14 31.92202751551544)"><path d="M0 0 C0 10.64, 0 53.2, 0 63.84 M0 0 C0 10.64, 0 53.2, 0 63.84" stroke="#E1E1E1" stroke-width="4" fill="none"></path></g></g><mask></mask><g stroke-linecap="round"><g transform="translate(525.7796635805321 362.43193733702356) rotate(0 0 33.47094602721356)"><path d="M0 0 C0 11.16, 0 55.78, 0 66.94 M0 0 C0 11.16, 0 55.78, 0 66.94" stroke="#E1E1E1" stroke-width="4" fill="none"></path></g></g><mask></mask><g stroke-linecap="round"><g transform="translate(44.93813285127362 310.71511640824224) rotate(0 -13.567480711261169 31.129685541502568)"><path d="M0 0 C-2.78 2.39, -12.31 9.46, -16.65 14.36 C-20.99 19.26, -24.3 23.68, -26.05 29.42 C-27.8 35.16, -27.1 43.33, -27.13 48.81 C-27.17 54.28, -26.41 60.02, -26.27 62.26 M0 0 C-2.78 2.39, -12.31 9.46, -16.65 14.36 C-20.99 19.26, -24.3 23.68, -26.05 29.42 C-27.8 35.16, -27.1 43.33, -27.13 48.81 C-27.17 54.28, -26.41 60.02, -26.27 62.26" stroke="#E1E1E1" stroke-width="4" fill="none"></path></g></g><mask></mask><g stroke-linecap="round"><g transform="translate(42.374026185370894 234.46045497175328) rotate(0 0 36.337683308189554)"><path d="M0 0 C0 12.11, 0 60.56, 0 72.68 M0 0 C0 12.11, 0 60.56, 0 72.68" stroke="#E1E1E1" stroke-width="4" fill="none"></path></g></g><mask></mask><g stroke-linecap="round"><g transform="translate(117.22283085546405 284.5843383902809) rotate(0 0 34.09408997552586)"><path d="M0 0 C0 11.36, 0 56.82, 0 68.19 M0 0 C0 11.36, 0 56.82, 0 68.19" stroke="#E1E1E1" stroke-width="4" fill="none"></path></g></g><mask></mask><g stroke-linecap="round"><g transform="translate(188.4483217068978 300.09553300654215) rotate(0 0 33.90700923166148)"><path d="M0 0 C0 11.3, 0 56.51, 0 67.81 M0 0 C0 11.3, 0 56.51, 0 67.81" stroke="#E1E1E1" stroke-width="4" fill="none"></path></g></g><mask></mask><g stroke-linecap="round"><g transform="translate(260.49916878126123 306.9184777827627) rotate(0 0 33.75156714300962)"><path d="M0 0 C0 11.25, 0 56.25, 0 67.5 M0 0 C0 11.25, 0 56.25, 0 67.5" stroke="#E1E1E1" stroke-width="4" fill="none"></path></g></g><mask></mask><g stroke-linecap="round"><g transform="translate(333.3808744533735 308.23629655204195) rotate(0 0 32.28931103471885)"><path d="M0 0 C0 10.76, 0 53.82, 0 64.58 M0 0 C0 10.76, 0 53.82, 0 64.58" stroke="#E1E1E1" stroke-width="4" fill="none"></path></g></g><mask></mask><g stroke-linecap="round"><g transform="translate(404.2404573793019 301.1107211607457) rotate(0 0 32.392480562585625)"><path d="M0 0 C0 10.8, 0 53.99, 0 64.78 M0 0 C0 10.8, 0 53.99, 0 64.78" stroke="#E1E1E1" stroke-width="4" fill="none"></path></g></g><mask></mask><g stroke-linecap="round"><g transform="translate(476.70673375254455 285.03553312548183) rotate(0 0 32.06646485452783)"><path d="M0 0 C0 10.69, 0 53.44, 0 64.13 M0 0 C0 10.69, 0 53.44, 0 64.13" stroke="#E1E1E1" stroke-width="4" fill="none"></path></g></g><mask></mask><g stroke-linecap="round"><g transform="translate(550.7879571353119 231.92661136735683) rotate(0 0 33.953779417627075)"><path d="M0 0 C0 11.32, 0 56.59, 0 67.91 M0 0 C0 11.32, 0 56.59, 0 67.91" stroke="#E1E1E1" stroke-width="4" fill="none"></path></g></g><mask></mask><g stroke-linecap="round"><g transform="translate(521.809700148242 333.1675568593382) rotate(0 1.9877329035559796 14.147981254721977)"><path d="M0 0 C0.63 1.61, 3.13 4.93, 3.79 9.65 C4.46 14.36, 3.95 25.19, 3.98 28.3 M0 0 C0.63 1.61, 3.13 4.93, 3.79 9.65 C4.46 14.36, 3.95 25.19, 3.98 28.3" stroke="#E1E1E1" stroke-width="4" fill="none"></path></g></g><mask></mask><g stroke-linecap="round"><g transform="translate(511.9549468464602 175.46124096931726) rotate(0 19.754901195824985 29.8944023945174)"><path d="M0 0 C3.24 1.86, 14.15 6.89, 19.44 11.17 C24.73 15.44, 28.78 20.64, 31.75 25.64 C34.71 30.63, 35.93 35.44, 37.22 41.13 C38.52 46.82, 39.13 56.68, 39.51 59.79 M0 0 C3.24 1.86, 14.15 6.89, 19.44 11.17 C24.73 15.44, 28.78 20.64, 31.75 25.64 C34.71 30.63, 35.93 35.44, 37.22 41.13 C38.52 46.82, 39.13 56.68, 39.51 59.79" stroke="#E1E1E1" stroke-width="4" fill="none"></path></g></g><mask></mask><g stroke-linecap="round"><g transform="translate(515.4428450501382 94.12784860350371) rotate(0 0 37.41202199170337)"><path d="M0 0 C0 12.47, 0 62.35, 0 74.82 M0 0 C0 12.47, 0 62.35, 0 74.82" stroke="#E1E1E1" stroke-width="4" fill="none"></path></g></g><mask></mask><g stroke-linecap="round"><g transform="translate(439.14810712869803 150.00999820756306) rotate(0 0 34.60155318361919)"><path d="M0 0 C0 11.53, 0 57.67, 0 69.2 M0 0 C0 11.53, 0 57.67, 0 69.2" stroke="#E1E1E1" stroke-width="4" fill="none"></path></g></g><mask></mask><g stroke-linecap="round"><g transform="translate(368.6193584930088 164.26637753602972) rotate(0 0 36.416996098283164)"><path d="M0 0 C0 12.14, 0 60.69, 0 72.83 M0 0 C0 12.14, 0 60.69, 0 72.83" stroke="#E1E1E1" stroke-width="4" fill="none"></path></g></g><mask></mask><g stroke-linecap="round"><g transform="translate(297.9964663564883 172.65023794782792) rotate(0 0 34.35347233683568)"><path d="M0 0 C0 11.45, 0 57.26, 0 68.71 M0 0 C0 11.45, 0 57.26, 0 68.71" stroke="#E1E1E1" stroke-width="4" fill="none"></path></g></g><mask></mask><g stroke-linecap="round"><g transform="translate(225.30241720169897 172.28893045815335) rotate(0 0 35.83050753229827)"><path d="M0 0 C0 11.94, 0 59.72, 0 71.66 M0 0 C0 11.94, 0 59.72, 0 71.66" stroke="#E1E1E1" stroke-width="4" fill="none"></path></g></g><mask></mask><g stroke-linecap="round"><g transform="translate(151.32598090046122 163.59210651657145) rotate(0 0 36.70960427653998)"><path d="M0 0 C0 12.24, 0 61.18, 0 73.42 M0 0 C0 12.24, 0 61.18, 0 73.42" stroke="#E1E1E1" stroke-width="4" fill="none"></path></g></g><mask></mask><g stroke-linecap="round"><g transform="translate(80.99569694219963 147.27983668348588) rotate(0 0 36.32921364480576)"><path d="M0 0 C0 12.11, 0 60.55, 0 72.66 M0 0 C0 12.11, 0 60.55, 0 72.66" stroke="#E1E1E1" stroke-width="4" fill="none"></path></g></g><mask></mask><g stroke-linecap="round"><g transform="translate(44.511273741967216 238.14103707961453) rotate(0 -3.5863584978536096 -18.325792586750623)"><path d="M0 0 C-1.06 -2.02, -5.14 -7.63, -6.33 -12.09 C-7.53 -16.56, -7.17 -22.7, -7.17 -26.8 C-7.18 -30.89, -6.48 -35.01, -6.35 -36.65 M0 0 C-1.06 -2.02, -5.14 -7.63, -6.33 -12.09 C-7.53 -16.56, -7.17 -22.7, -7.17 -26.8 C-7.18 -30.89, -6.48 -35.01, -6.35 -36.65" stroke="#E1E1E1" stroke-width="4" fill="none"></path></g></g><mask></mask><g stroke-linecap="round"><g transform="translate(295.958795129633 67.32300023118046) rotate(83.6289033428099 -24.302149528083227 17.39505088977438)"><path d="M0 0 C0.07 -2.21, 1.79 -9.02, 0.43 -13.23 C-0.93 -17.44, -4.32 -22.14, -8.17 -25.26 C-12.01 -28.38, -17.7 -31.45, -22.64 -31.96 C-27.57 -32.47, -33.74 -30.88, -37.79 -28.32 C-41.84 -25.75, -45.13 -21.11, -46.92 -16.55 C-48.71 -11.99, -49.59 -6.07, -48.52 -0.96 C-47.45 4.14, -45.06 10.94, -40.48 14.06 C-35.91 17.17, -26.56 16.21, -21.05 17.71 C-15.54 19.21, -10.85 19.65, -7.41 23.04 C-3.96 26.44, -0.96 32.75, -0.38 38.08 C0.21 43.42, -0.71 50.27, -3.91 55.05 C-7.1 59.82, -14.29 65.1, -19.54 66.75 C-24.79 68.39, -30.84 67.05, -35.42 64.91 C-40 62.78, -44.74 58.83, -47.01 53.92 C-49.28 49.01, -48.7 38.54, -49.03 35.47 M0 0 C0.07 -2.21, 1.79 -9.02, 0.43 -13.23 C-0.93 -17.44, -4.32 -22.14, -8.17 -25.26 C-12.01 -28.38, -17.7 -31.45, -22.64 -31.96 C-27.57 -32.47, -33.74 -30.88, -37.79 -28.32 C-41.84 -25.75, -45.13 -21.11, -46.92 -16.55 C-48.71 -11.99, -49.59 -6.07, -48.52 -0.96 C-47.45 4.14, -45.06 10.94, -40.48 14.06 C-35.91 17.17, -26.56 16.21, -21.05 17.71 C-15.54 19.21, -10.85 19.65, -7.41 23.04 C-3.96 26.44, -0.96 32.75, -0.38 38.08 C0.21 43.42, -0.71 50.27, -3.91 55.05 C-7.1 59.82, -14.29 65.1, -19.54 66.75 C-24.79 68.39, -30.84 67.05, -35.42 64.91 C-40 62.78, -44.74 58.83, -47.01 53.92 C-49.28 49.01, -48.7 38.54, -49.03 35.47" stroke="#E1E1E1" stroke-width="4" fill="none"></path></g></g><mask></mask><g stroke-linecap="round"><g transform="translate(333.2203894825684 68.6151634369935) rotate(83.6289033428099 0 10.01236262481828)"><path d="M0 0 C0 3.34, 0 16.69, 0 20.02 M0 0 C0 3.34, 0 16.69, 0 20.02" stroke="#E1E1E1" stroke-width="4" fill="none"></path></g></g><mask></mask><g stroke-linecap="round"><g transform="translate(209.33403377809555 103.4924375354476) rotate(83.6289033428099 0.15468672705075193 -10.996208640345884)"><path d="M0 0 C0.05 -3.67, 0.26 -18.33, 0.31 -21.99 M0 0 C0.05 -3.67, 0.26 -18.33, 0.31 -21.99" stroke="#E1E1E1" stroke-width="4" fill="none"></path></g></g><mask></mask></svg>