<svg version="1.1" xmlns="http://www.w3.org/2000/svg" viewBox="0 0 716.5109876954903 2232.9558490109303" width="716.5109876954903" height="2232.9558490109303" class="excalidraw-svg"><!-- svg-source:excalidraw --><metadata></metadata><defs><style class="style-fonts">
      </style></defs><rect x="0" y="0" width="716.5109876954903" height="2232.9558490109303" fill="#000000"></rect><g stroke-linecap="round"><g transform="translate(534.4962366698255 311.352396034129) rotate(0 -13.123811587197906 38.340591463113014)" fill-rule="evenodd"><path d="M0 0 C0.09 -8.8, -1.02 -45.17, 0.53 -52.8 C2.07 -60.43, 5.47 -49.67, 9.28 -45.79 C13.09 -41.92, 18.44 -36.5, 23.39 -29.56 C28.34 -22.63, 35.42 -11.51, 38.99 -4.19 C42.56 3.13, 43.75 8.3, 44.81 14.37 C45.87 20.43, 45.97 27.09, 45.35 32.22 C44.72 37.34, 40.76 42.62, 41.04 45.14 C41.32 47.66, 44.18 48.61, 47.02 47.34 C49.86 46.08, 54.93 42.53, 58.09 37.54 C61.24 32.56, 64.9 24.89, 65.93 17.42 C66.97 9.95, 67.55 3.84, 64.31 -7.27 C61.07 -18.37, 52.35 -35.35, 46.5 -49.23 C40.65 -63.12, 32.83 -79.55, 29.23 -90.57 C25.63 -101.59, 26.37 -104.25, 24.9 -115.34 C23.44 -126.43, 21.59 -146.2, 20.44 -157.1 C19.29 -168, 18.98 -175.21, 18 -180.73 C17.03 -186.26, 15.98 -189.68, 14.6 -190.22 C13.21 -190.77, 12.31 -193.05, 9.67 -184 C7.03 -174.95, 2.07 -155.3, -1.25 -135.93 C-4.58 -116.56, -8.12 -94.5, -10.27 -67.76 C-12.41 -41.02, -13.48 -8.62, -14.13 24.52 C-14.79 57.66, -14.32 107.8, -14.19 131.09 C-14.06 154.39, -11.99 157.96, -13.33 164.3 C-14.66 170.64, -17.5 167.51, -22.2 169.11 C-26.9 170.71, -34.42 170.36, -41.51 173.89 C-48.6 177.43, -57.08 183.81, -64.74 190.32 C-72.4 196.83, -82.89 206.24, -87.47 212.93 C-92.04 219.61, -92.06 223.91, -92.18 230.43 C-92.3 236.95, -91.71 246.29, -88.17 252.04 C-84.64 257.8, -77.18 262.5, -70.94 264.98 C-64.71 267.45, -57.27 267.68, -50.77 266.91 C-44.27 266.13, -39.51 265.06, -31.96 260.35 C-24.41 255.64, -12.55 246.94, -5.46 238.62 C1.62 230.31, 7.55 219.29, 10.53 210.46 C13.52 201.63, 13 197.46, 12.47 185.66 C11.93 173.86, 9.22 161.36, 7.31 139.67 C5.4 117.98, 2.23 78.82, 1.01 55.54 C-0.2 32.26, 0.17 9.26, 0 0" stroke="none" stroke-width="0" fill="#ffffff" fill-rule="evenodd"></path><path d="M0 0 C0.09 -8.8, -1.02 -45.17, 0.53 -52.8 C2.07 -60.43, 5.47 -49.67, 9.28 -45.79 C13.09 -41.92, 18.44 -36.5, 23.39 -29.56 C28.34 -22.63, 35.42 -11.51, 38.99 -4.19 C42.56 3.13, 43.75 8.3, 44.81 14.37 C45.87 20.43, 45.97 27.09, 45.35 32.22 C44.72 37.34, 40.76 42.62, 41.04 45.14 C41.32 47.66, 44.18 48.61, 47.02 47.34 C49.86 46.08, 54.93 42.53, 58.09 37.54 C61.24 32.56, 64.9 24.89, 65.93 17.42 C66.97 9.95, 67.55 3.84, 64.31 -7.27 C61.07 -18.37, 52.35 -35.35, 46.5 -49.23 C40.65 -63.12, 32.83 -79.55, 29.23 -90.57 C25.63 -101.59, 26.37 -104.25, 24.9 -115.34 C23.44 -126.43, 21.59 -146.2, 20.44 -157.1 C19.29 -168, 18.98 -175.21, 18 -180.73 C17.03 -186.26, 15.98 -189.68, 14.6 -190.22 C13.21 -190.77, 12.31 -193.05, 9.67 -184 C7.03 -174.95, 2.07 -155.3, -1.25 -135.93 C-4.58 -116.56, -8.12 -94.5, -10.27 -67.76 C-12.41 -41.02, -13.48 -8.62, -14.13 24.52 C-14.79 57.66, -14.32 107.8, -14.19 131.09 C-14.06 154.39, -11.99 157.96, -13.33 164.3 C-14.66 170.64, -17.5 167.51, -22.2 169.11 C-26.9 170.71, -34.42 170.36, -41.51 173.89 C-48.6 177.43, -57.08 183.81, -64.74 190.32 C-72.4 196.83, -82.89 206.24, -87.47 212.93 C-92.04 219.61, -92.06 223.91, -92.18 230.43 C-92.3 236.95, -91.71 246.29, -88.17 252.04 C-84.64 257.8, -77.18 262.5, -70.94 264.98 C-64.71 267.45, -57.27 267.68, -50.77 266.91 C-44.27 266.13, -39.51 265.06, -31.96 260.35 C-24.41 255.64, -12.55 246.94, -5.46 238.62 C1.62 230.31, 7.55 219.29, 10.53 210.46 C13.52 201.63, 13 197.46, 12.47 185.66 C11.93 173.86, 9.22 161.36, 7.31 139.67 C5.4 117.98, 2.23 78.82, 1.01 55.54 C-0.2 32.26, 0.17 9.26, 0 0 M0 0 C0.09 -8.8, -1.02 -45.17, 0.53 -52.8 C2.07 -60.43, 5.47 -49.67, 9.28 -45.79 C13.09 -41.92, 18.44 -36.5, 23.39 -29.56 C28.34 -22.63, 35.42 -11.51, 38.99 -4.19 C42.56 3.13, 43.75 8.3, 44.81 14.37 C45.87 20.43, 45.97 27.09, 45.35 32.22 C44.72 37.34, 40.76 42.62, 41.04 45.14 C41.32 47.66, 44.18 48.61, 47.02 47.34 C49.86 46.08, 54.93 42.53, 58.09 37.54 C61.24 32.56, 64.9 24.89, 65.93 17.42 C66.97 9.95, 67.55 3.84, 64.31 -7.27 C61.07 -18.37, 52.35 -35.35, 46.5 -49.23 C40.65 -63.12, 32.83 -79.55, 29.23 -90.57 C25.63 -101.59, 26.37 -104.25, 24.9 -115.34 C23.44 -126.43, 21.59 -146.2, 20.44 -157.1 C19.29 -168, 18.98 -175.21, 18 -180.73 C17.03 -186.26, 15.98 -189.68, 14.6 -190.22 C13.21 -190.77, 12.31 -193.05, 9.67 -184 C7.03 -174.95, 2.07 -155.3, -1.25 -135.93 C-4.58 -116.56, -8.12 -94.5, -10.27 -67.76 C-12.41 -41.02, -13.48 -8.62, -14.13 24.52 C-14.79 57.66, -14.32 107.8, -14.19 131.09 C-14.06 154.39, -11.99 157.96, -13.33 164.3 C-14.66 170.64, -17.5 167.51, -22.2 169.11 C-26.9 170.71, -34.42 170.36, -41.51 173.89 C-48.6 177.43, -57.08 183.81, -64.74 190.32 C-72.4 196.83, -82.89 206.24, -87.47 212.93 C-92.04 219.61, -92.06 223.91, -92.18 230.43 C-92.3 236.95, -91.71 246.29, -88.17 252.04 C-84.64 257.8, -77.18 262.5, -70.94 264.98 C-64.71 267.45, -57.27 267.68, -50.77 266.91 C-44.27 266.13, -39.51 265.06, -31.96 260.35 C-24.41 255.64, -12.55 246.94, -5.46 238.62 C1.62 230.31, 7.55 219.29, 10.53 210.46 C13.52 201.63, 13 197.46, 12.47 185.66 C11.93 173.86, 9.22 161.36, 7.31 139.67 C5.4 117.98, 2.23 78.82, 1.01 55.54 C-0.2 32.26, 0.17 9.26, 0 0" stroke="#FFFFFF" stroke-width="4" fill="none"></path></g></g><mask></mask><g stroke-linecap="round"><g transform="translate(328.7311892839407 216.37272348175884) rotate(0 34.502546567411855 124.86652035901716)" fill-rule="evenodd"><path d="M0 0 C2.47 11.14, 8.08 41.2, 14.84 66.83 C21.61 92.46, 34.35 131.71, 40.57 153.78 C46.8 175.84, 50.03 183.79, 52.19 199.2 C54.34 214.6, 54.98 226.83, 53.51 246.19 C52.04 265.55, 47.95 292.22, 43.35 315.37 C38.76 338.52, 29.74 367.08, 25.94 385.09 C22.15 403.11, 22.06 411.71, 20.57 423.45 C19.09 435.2, 18.87 450.49, 17.02 455.58 C15.17 460.67, 10.99 458.87, 9.49 453.99 C7.99 449.11, 7.64 439.88, 8.01 426.28 C8.38 412.68, 9.53 394.05, 11.7 372.37 C13.86 350.69, 19.1 322.06, 20.99 296.19 C22.88 270.32, 24.43 243.86, 23.04 217.15 C21.64 190.45, 17.36 163.73, 12.63 135.96 C7.89 108.2, 0.5 77.58, -5.37 50.57 C-11.23 23.56, -19.77 -1.47, -22.56 -26.1 C-25.34 -50.72, -25.32 -74.3, -22.08 -97.19 C-18.84 -120.07, -10.29 -146.56, -3.11 -163.4 C4.08 -180.23, 11.92 -191.1, 21.02 -198.17 C30.13 -205.25, 41.61 -207.53, 51.53 -205.84 C61.46 -204.16, 73.89 -196.15, 80.56 -188.07 C87.23 -179.99, 90.39 -168.12, 91.56 -157.39 C92.73 -146.66, 91.57 -132.84, 87.59 -123.7 C83.61 -114.55, 73.84 -106.3, 67.69 -102.52 C61.53 -98.74, 54.57 -99.94, 50.63 -101 C46.69 -102.06, 44.32 -106.9, 44.05 -108.88 C43.78 -110.87, 46.38 -112.32, 49.02 -112.89 C51.66 -113.47, 57.15 -110.7, 59.91 -112.35 C62.68 -113.99, 64.85 -116.43, 65.61 -122.75 C66.38 -129.07, 67.55 -143.33, 64.49 -150.26 C61.43 -157.2, 53.13 -163.03, 47.25 -164.37 C41.37 -165.71, 35.27 -165.51, 29.2 -158.32 C23.14 -151.13, 15.75 -135.96, 10.85 -121.24 C5.94 -106.52, 1.9 -85.92, -0.21 -70 C-2.32 -54.08, -1.84 -37.38, -1.8 -25.72 C-1.77 -14.05, -0.3 -4.29, 0 0" stroke="none" stroke-width="0" fill="#ffffff" fill-rule="evenodd"></path><path d="M0 0 C2.47 11.14, 8.08 41.2, 14.84 66.83 C21.61 92.46, 34.35 131.71, 40.57 153.78 C46.8 175.84, 50.03 183.79, 52.19 199.2 C54.34 214.6, 54.98 226.83, 53.51 246.19 C52.04 265.55, 47.95 292.22, 43.35 315.37 C38.76 338.52, 29.74 367.08, 25.94 385.09 C22.15 403.11, 22.06 411.71, 20.57 423.45 C19.09 435.2, 18.87 450.49, 17.02 455.58 C15.17 460.67, 10.99 458.87, 9.49 453.99 C7.99 449.11, 7.64 439.88, 8.01 426.28 C8.38 412.68, 9.53 394.05, 11.7 372.37 C13.86 350.69, 19.1 322.06, 20.99 296.19 C22.88 270.32, 24.43 243.86, 23.04 217.15 C21.64 190.45, 17.36 163.73, 12.63 135.96 C7.89 108.2, 0.5 77.58, -5.37 50.57 C-11.23 23.56, -19.77 -1.47, -22.56 -26.1 C-25.34 -50.72, -25.32 -74.3, -22.08 -97.19 C-18.84 -120.07, -10.29 -146.56, -3.11 -163.4 C4.08 -180.23, 11.92 -191.1, 21.02 -198.17 C30.13 -205.25, 41.61 -207.53, 51.53 -205.84 C61.46 -204.16, 73.89 -196.15, 80.56 -188.07 C87.23 -179.99, 90.39 -168.12, 91.56 -157.39 C92.73 -146.66, 91.57 -132.84, 87.59 -123.7 C83.61 -114.55, 73.84 -106.3, 67.69 -102.52 C61.53 -98.74, 54.57 -99.94, 50.63 -101 C46.69 -102.06, 44.32 -106.9, 44.05 -108.88 C43.78 -110.87, 46.38 -112.32, 49.02 -112.89 C51.66 -113.47, 57.15 -110.7, 59.91 -112.35 C62.68 -113.99, 64.85 -116.43, 65.61 -122.75 C66.38 -129.07, 67.55 -143.33, 64.49 -150.26 C61.43 -157.2, 53.13 -163.03, 47.25 -164.37 C41.37 -165.71, 35.27 -165.51, 29.2 -158.32 C23.14 -151.13, 15.75 -135.96, 10.85 -121.24 C5.94 -106.52, 1.9 -85.92, -0.21 -70 C-2.32 -54.08, -1.84 -37.38, -1.8 -25.72 C-1.77 -14.05, -0.3 -4.29, 0 0 M0 0 C2.47 11.14, 8.08 41.2, 14.84 66.83 C21.61 92.46, 34.35 131.71, 40.57 153.78 C46.8 175.84, 50.03 183.79, 52.19 199.2 C54.34 214.6, 54.98 226.83, 53.51 246.19 C52.04 265.55, 47.95 292.22, 43.35 315.37 C38.76 338.52, 29.74 367.08, 25.94 385.09 C22.15 403.11, 22.06 411.71, 20.57 423.45 C19.09 435.2, 18.87 450.49, 17.02 455.58 C15.17 460.67, 10.99 458.87, 9.49 453.99 C7.99 449.11, 7.64 439.88, 8.01 426.28 C8.38 412.68, 9.53 394.05, 11.7 372.37 C13.86 350.69, 19.1 322.06, 20.99 296.19 C22.88 270.32, 24.43 243.86, 23.04 217.15 C21.64 190.45, 17.36 163.73, 12.63 135.96 C7.89 108.2, 0.5 77.58, -5.37 50.57 C-11.23 23.56, -19.77 -1.47, -22.56 -26.1 C-25.34 -50.72, -25.32 -74.3, -22.08 -97.19 C-18.84 -120.07, -10.29 -146.56, -3.11 -163.4 C4.08 -180.23, 11.92 -191.1, 21.02 -198.17 C30.13 -205.25, 41.61 -207.53, 51.53 -205.84 C61.46 -204.16, 73.89 -196.15, 80.56 -188.07 C87.23 -179.99, 90.39 -168.12, 91.56 -157.39 C92.73 -146.66, 91.57 -132.84, 87.59 -123.7 C83.61 -114.55, 73.84 -106.3, 67.69 -102.52 C61.53 -98.74, 54.57 -99.94, 50.63 -101 C46.69 -102.06, 44.32 -106.9, 44.05 -108.88 C43.78 -110.87, 46.38 -112.32, 49.02 -112.89 C51.66 -113.47, 57.15 -110.7, 59.91 -112.35 C62.68 -113.99, 64.85 -116.43, 65.61 -122.75 C66.38 -129.07, 67.55 -143.33, 64.49 -150.26 C61.43 -157.2, 53.13 -163.03, 47.25 -164.37 C41.37 -165.71, 35.27 -165.51, 29.2 -158.32 C23.14 -151.13, 15.75 -135.96, 10.85 -121.24 C5.94 -106.52, 1.9 -85.92, -0.21 -70 C-2.32 -54.08, -1.84 -37.38, -1.8 -25.72 C-1.77 -14.05, -0.3 -4.29, 0 0" stroke="#FFFFFF" stroke-width="4" fill="none"></path></g></g><mask></mask><g stroke-linecap="round"><g transform="translate(313.8131228280149 420.5451218088865) rotate(0 -32.70781552573544 -33.03705661991307)" fill-rule="evenodd"><path d="M0 0 C1.28 9.93, 5.4 43.75, 7.69 59.59 C9.98 75.43, 11.91 95.29, 13.73 95.03 C15.55 94.78, 17.5 73.14, 18.63 58.05 C19.75 42.96, 22.04 24.24, 20.47 4.52 C18.9 -15.21, 15.33 -37.39, 9.21 -60.3 C3.1 -83.21, -8.29 -116.36, -16.21 -132.93 C-24.14 -149.5, -30.73 -155.03, -38.31 -159.72 C-45.88 -164.42, -54.39 -164.29, -61.66 -161.11 C-68.92 -157.92, -77.87 -148.62, -81.91 -140.62 C-85.95 -132.63, -86.75 -120.1, -85.88 -113.15 C-85.02 -106.19, -81.44 -102.2, -76.73 -98.88 C-72.01 -95.56, -60.21 -93.09, -57.62 -93.24 C-55.03 -93.4, -59.75 -98.04, -61.16 -99.83 C-62.56 -101.61, -65.25 -101.32, -66.07 -103.96 C-66.89 -106.6, -67.76 -112.38, -66.07 -115.69 C-64.39 -118.99, -60.29 -122.9, -55.96 -123.79 C-51.63 -124.67, -45.54 -124.73, -40.1 -121.01 C-34.66 -117.3, -28.1 -110.95, -23.33 -101.5 C-18.56 -92.05, -14.61 -77.36, -11.49 -64.32 C-8.36 -51.27, -6.51 -33.95, -4.6 -23.23 C-2.68 -12.51, -0.77 -3.87, 0 0" stroke="none" stroke-width="0" fill="#ffffff" fill-rule="evenodd"></path><path d="M0 0 C1.28 9.93, 5.4 43.75, 7.69 59.59 C9.98 75.43, 11.91 95.29, 13.73 95.03 C15.55 94.78, 17.5 73.14, 18.63 58.05 C19.75 42.96, 22.04 24.24, 20.47 4.52 C18.9 -15.21, 15.33 -37.39, 9.21 -60.3 C3.1 -83.21, -8.29 -116.36, -16.21 -132.93 C-24.14 -149.5, -30.73 -155.03, -38.31 -159.72 C-45.88 -164.42, -54.39 -164.29, -61.66 -161.11 C-68.92 -157.92, -77.87 -148.62, -81.91 -140.62 C-85.95 -132.63, -86.75 -120.1, -85.88 -113.15 C-85.02 -106.19, -81.44 -102.2, -76.73 -98.88 C-72.01 -95.56, -60.21 -93.09, -57.62 -93.24 C-55.03 -93.4, -59.75 -98.04, -61.16 -99.83 C-62.56 -101.61, -65.25 -101.32, -66.07 -103.96 C-66.89 -106.6, -67.76 -112.38, -66.07 -115.69 C-64.39 -118.99, -60.29 -122.9, -55.96 -123.79 C-51.63 -124.67, -45.54 -124.73, -40.1 -121.01 C-34.66 -117.3, -28.1 -110.95, -23.33 -101.5 C-18.56 -92.05, -14.61 -77.36, -11.49 -64.32 C-8.36 -51.27, -6.51 -33.95, -4.6 -23.23 C-2.68 -12.51, -0.77 -3.87, 0 0 M0 0 C1.28 9.93, 5.4 43.75, 7.69 59.59 C9.98 75.43, 11.91 95.29, 13.73 95.03 C15.55 94.78, 17.5 73.14, 18.63 58.05 C19.75 42.96, 22.04 24.24, 20.47 4.52 C18.9 -15.21, 15.33 -37.39, 9.21 -60.3 C3.1 -83.21, -8.29 -116.36, -16.21 -132.93 C-24.14 -149.5, -30.73 -155.03, -38.31 -159.72 C-45.88 -164.42, -54.39 -164.29, -61.66 -161.11 C-68.92 -157.92, -77.87 -148.62, -81.91 -140.62 C-85.95 -132.63, -86.75 -120.1, -85.88 -113.15 C-85.02 -106.19, -81.44 -102.2, -76.73 -98.88 C-72.01 -95.56, -60.21 -93.09, -57.62 -93.24 C-55.03 -93.4, -59.75 -98.04, -61.16 -99.83 C-62.56 -101.61, -65.25 -101.32, -66.07 -103.96 C-66.89 -106.6, -67.76 -112.38, -66.07 -115.69 C-64.39 -118.99, -60.29 -122.9, -55.96 -123.79 C-51.63 -124.67, -45.54 -124.73, -40.1 -121.01 C-34.66 -117.3, -28.1 -110.95, -23.33 -101.5 C-18.56 -92.05, -14.61 -77.36, -11.49 -64.32 C-8.36 -51.27, -6.51 -33.95, -4.6 -23.23 C-2.68 -12.51, -0.77 -3.87, 0 0" stroke="#FFFFFF" stroke-width="4" fill="none"></path></g></g><mask></mask><g stroke-linecap="round"><g transform="translate(430.02920830246694 889.3887811566983) rotate(0 1.6977615418559253 18.921842054114222)" fill-rule="evenodd"><path d="M0 0 C-3.59 -6.21, -16.28 -28.84, -21.55 -37.28 C-26.82 -45.73, -29.64 -45.85, -31.6 -50.67 C-33.56 -55.5, -35.2 -66.58, -33.31 -66.23 C-31.42 -65.88, -26.53 -57.66, -20.27 -48.58 C-14.01 -39.49, -3.41 -23.94, 4.25 -11.72 C11.91 0.51, 20.29 14.18, 25.7 24.78 C31.11 35.39, 35.16 42.08, 36.71 51.9 C38.25 61.71, 38.28 74.97, 34.96 83.67 C31.63 92.36, 22.26 101.03, 16.75 104.07 C11.23 107.11, 5.64 104.87, 1.88 101.89 C-1.89 98.91, -5.32 91.03, -5.82 86.21 C-6.33 81.39, -3.59 75.57, -1.16 72.98 C1.27 70.38, 7.12 69.82, 8.76 70.66 C10.4 71.5, 8.25 75.31, 8.69 78.03 C9.12 80.75, 9.67 85.63, 11.36 86.96 C13.04 88.3, 17.08 87.69, 18.8 86.04 C20.53 84.4, 21.45 83.32, 21.72 77.1 C21.99 70.89, 22.31 58.25, 20.42 48.78 C18.52 39.3, 13.73 28.38, 10.33 20.25 C6.93 12.12, 1.72 3.37, 0 0" stroke="none" stroke-width="0" fill="#ffffff" fill-rule="evenodd"></path><path d="M0 0 C-3.59 -6.21, -16.28 -28.84, -21.55 -37.28 C-26.82 -45.73, -29.64 -45.85, -31.6 -50.67 C-33.56 -55.5, -35.2 -66.58, -33.31 -66.23 C-31.42 -65.88, -26.53 -57.66, -20.27 -48.58 C-14.01 -39.49, -3.41 -23.94, 4.25 -11.72 C11.91 0.51, 20.29 14.18, 25.7 24.78 C31.11 35.39, 35.16 42.08, 36.71 51.9 C38.25 61.71, 38.28 74.97, 34.96 83.67 C31.63 92.36, 22.26 101.03, 16.75 104.07 C11.23 107.11, 5.64 104.87, 1.88 101.89 C-1.89 98.91, -5.32 91.03, -5.82 86.21 C-6.33 81.39, -3.59 75.57, -1.16 72.98 C1.27 70.38, 7.12 69.82, 8.76 70.66 C10.4 71.5, 8.25 75.31, 8.69 78.03 C9.12 80.75, 9.67 85.63, 11.36 86.96 C13.04 88.3, 17.08 87.69, 18.8 86.04 C20.53 84.4, 21.45 83.32, 21.72 77.1 C21.99 70.89, 22.31 58.25, 20.42 48.78 C18.52 39.3, 13.73 28.38, 10.33 20.25 C6.93 12.12, 1.72 3.37, 0 0 M0 0 C-3.59 -6.21, -16.28 -28.84, -21.55 -37.28 C-26.82 -45.73, -29.64 -45.85, -31.6 -50.67 C-33.56 -55.5, -35.2 -66.58, -33.31 -66.23 C-31.42 -65.88, -26.53 -57.66, -20.27 -48.58 C-14.01 -39.49, -3.41 -23.94, 4.25 -11.72 C11.91 0.51, 20.29 14.18, 25.7 24.78 C31.11 35.39, 35.16 42.08, 36.71 51.9 C38.25 61.71, 38.28 74.97, 34.96 83.67 C31.63 92.36, 22.26 101.03, 16.75 104.07 C11.23 107.11, 5.64 104.87, 1.88 101.89 C-1.89 98.91, -5.32 91.03, -5.82 86.21 C-6.33 81.39, -3.59 75.57, -1.16 72.98 C1.27 70.38, 7.12 69.82, 8.76 70.66 C10.4 71.5, 8.25 75.31, 8.69 78.03 C9.12 80.75, 9.67 85.63, 11.36 86.96 C13.04 88.3, 17.08 87.69, 18.8 86.04 C20.53 84.4, 21.45 83.32, 21.72 77.1 C21.99 70.89, 22.31 58.25, 20.42 48.78 C18.52 39.3, 13.73 28.38, 10.33 20.25 C6.93 12.12, 1.72 3.37, 0 0" stroke="#FFFFFF" stroke-width="4" fill="none"></path></g></g><mask></mask><g stroke-linecap="round"><g transform="translate(552.0121677515867 1445.4524260767048) rotate(0 -37.44812570728209 -3.8061441178792847)" fill-rule="evenodd"><path d="M0 0 C-0.09 7.35, 0.76 30.46, -0.54 44.07 C-1.85 57.69, -5.56 71.89, -7.84 81.69 C-10.13 91.49, -14.76 99.17, -14.26 102.87 C-13.77 106.57, -7.88 107.55, -4.87 103.89 C-1.85 100.24, 1.36 90.63, 3.83 80.93 C6.3 71.23, 8.76 58.63, 9.97 45.67 C11.18 32.72, 12.51 19.08, 11.1 3.2 C9.7 -12.68, 5.69 -34.47, 1.55 -49.62 C-2.6 -64.77, -6.93 -77.65, -13.77 -87.7 C-20.6 -97.75, -31.98 -105.96, -39.48 -109.93 C-46.98 -113.89, -52.13 -113.31, -58.79 -111.51 C-65.44 -109.7, -74.87 -104.3, -79.4 -99.1 C-83.94 -93.9, -85.76 -85.72, -86 -80.29 C-86.24 -74.86, -82.78 -69.65, -80.83 -66.54 C-78.88 -63.42, -75.74 -60.62, -74.29 -61.6 C-72.84 -62.58, -74.78 -69.21, -72.11 -72.42 C-69.44 -75.64, -63.33 -79.47, -58.26 -80.88 C-53.19 -82.29, -48.12 -83.63, -41.7 -80.88 C-35.28 -78.13, -25.36 -71.18, -19.77 -64.4 C-14.17 -57.62, -11.42 -50.92, -8.13 -40.19 C-4.83 -29.45, -1.35 -6.7, 0 0" stroke="none" stroke-width="0" fill="#ffffff" fill-rule="evenodd"></path><path d="M0 0 C-0.09 7.35, 0.76 30.46, -0.54 44.07 C-1.85 57.69, -5.56 71.89, -7.84 81.69 C-10.13 91.49, -14.76 99.17, -14.26 102.87 C-13.77 106.57, -7.88 107.55, -4.87 103.89 C-1.85 100.24, 1.36 90.63, 3.83 80.93 C6.3 71.23, 8.76 58.63, 9.97 45.67 C11.18 32.72, 12.51 19.08, 11.1 3.2 C9.7 -12.68, 5.69 -34.47, 1.55 -49.62 C-2.6 -64.77, -6.93 -77.65, -13.77 -87.7 C-20.6 -97.75, -31.98 -105.96, -39.48 -109.93 C-46.98 -113.89, -52.13 -113.31, -58.79 -111.51 C-65.44 -109.7, -74.87 -104.3, -79.4 -99.1 C-83.94 -93.9, -85.76 -85.72, -86 -80.29 C-86.24 -74.86, -82.78 -69.65, -80.83 -66.54 C-78.88 -63.42, -75.74 -60.62, -74.29 -61.6 C-72.84 -62.58, -74.78 -69.21, -72.11 -72.42 C-69.44 -75.64, -63.33 -79.47, -58.26 -80.88 C-53.19 -82.29, -48.12 -83.63, -41.7 -80.88 C-35.28 -78.13, -25.36 -71.18, -19.77 -64.4 C-14.17 -57.62, -11.42 -50.92, -8.13 -40.19 C-4.83 -29.45, -1.35 -6.7, 0 0 M0 0 C-0.09 7.35, 0.76 30.46, -0.54 44.07 C-1.85 57.69, -5.56 71.89, -7.84 81.69 C-10.13 91.49, -14.76 99.17, -14.26 102.87 C-13.77 106.57, -7.88 107.55, -4.87 103.89 C-1.85 100.24, 1.36 90.63, 3.83 80.93 C6.3 71.23, 8.76 58.63, 9.97 45.67 C11.18 32.72, 12.51 19.08, 11.1 3.2 C9.7 -12.68, 5.69 -34.47, 1.55 -49.62 C-2.6 -64.77, -6.93 -77.65, -13.77 -87.7 C-20.6 -97.75, -31.98 -105.96, -39.48 -109.93 C-46.98 -113.89, -52.13 -113.31, -58.79 -111.51 C-65.44 -109.7, -74.87 -104.3, -79.4 -99.1 C-83.94 -93.9, -85.76 -85.72, -86 -80.29 C-86.24 -74.86, -82.78 -69.65, -80.83 -66.54 C-78.88 -63.42, -75.74 -60.62, -74.29 -61.6 C-72.84 -62.58, -74.78 -69.21, -72.11 -72.42 C-69.44 -75.64, -63.33 -79.47, -58.26 -80.88 C-53.19 -82.29, -48.12 -83.63, -41.7 -80.88 C-35.28 -78.13, -25.36 -71.18, -19.77 -64.4 C-14.17 -57.62, -11.42 -50.92, -8.13 -40.19 C-4.83 -29.45, -1.35 -6.7, 0 0" stroke="#FFFFFF" stroke-width="4" fill="none"></path></g></g><mask></mask><g stroke-linecap="round"><g transform="translate(421.2317800587639 1295.4938031306992) rotate(0 -31.608671358832225 -198.69693627669403)" fill-rule="evenodd"><path d="M0 0 C0.04 -0.61, -1.4 -2.97, 0.22 -3.65 C1.85 -4.34, 3.35 -4.62, 9.75 -4.09 C16.15 -3.56, 27.86 -2.65, 38.63 -0.48 C49.39 1.69, 62.54 4.12, 74.34 8.95 C86.13 13.78, 98.96 20.75, 109.4 28.51 C119.84 36.26, 129.26 42.43, 136.98 55.5 C144.69 68.57, 151.71 87.89, 155.69 106.9 C159.67 125.91, 161.41 147.92, 160.85 169.57 C160.29 191.21, 159.52 214.52, 152.33 236.77 C145.15 259.01, 130.32 286.55, 117.74 303.04 C105.15 319.53, 89.26 328.44, 76.82 335.71 C64.39 342.98, 56.14 344.35, 43.15 346.68 C30.15 349.01, 14.12 350, -1.14 349.68 C-16.4 349.37, -30.18 350.5, -48.42 344.78 C-66.67 339.06, -92.79 328.87, -110.59 315.35 C-128.4 301.83, -142.63 284.96, -155.26 263.66 C-167.88 242.37, -180.47 213.52, -186.34 187.58 C-192.21 161.65, -194.49 134.61, -190.49 108.06 C-186.48 81.51, -176.35 54.91, -162.34 28.27 C-148.33 1.64, -128.56 -24.8, -106.42 -51.72 C-84.28 -78.64, -51.73 -111.48, -29.48 -133.24 C-7.24 -155.01, 9.27 -164.36, 27.07 -182.33 C44.86 -200.3, 65.21 -223.42, 77.3 -241.07 C89.4 -258.72, 95.77 -271.4, 99.65 -288.22 C103.52 -305.05, 104.48 -322.02, 100.56 -342.03 C96.64 -362.04, 87.23 -383.52, 76.13 -408.27 C65.04 -433.02, 45.93 -461, 34 -490.55 C22.07 -520.09, 11.46 -553.85, 4.54 -585.54 C-2.38 -617.23, -5.77 -648.01, -7.52 -680.68 C-9.28 -713.36, -5.06 -767.2, -5.99 -781.61 C-6.93 -796.02, -9.2 -781.92, -13.11 -767.13 C-17.02 -752.35, -23.39 -719.05, -29.45 -692.89 C-35.52 -666.73, -44.51 -636.42, -49.49 -610.18 C-54.47 -583.95, -57.1 -567, -59.33 -535.48 C-61.57 -503.97, -64.45 -463.07, -62.9 -421.07 C-61.35 -379.07, -54.57 -320.12, -50.05 -283.46 C-45.53 -246.81, -39.12 -220.23, -35.79 -201.13 C-32.45 -182.04, -32.17 -172.23, -30.03 -168.9 C-27.89 -165.57, -23.89 -175.86, -22.96 -181.17 C-22.04 -186.48, -22.66 -185.7, -24.5 -200.76 C-26.34 -215.82, -30.83 -245.03, -34.03 -271.53 C-37.22 -298.03, -42.23 -328.14, -43.67 -359.77 C-45.1 -391.39, -43.83 -435.99, -42.64 -461.28 C-41.45 -486.56, -39.35 -504.7, -36.52 -511.49 C-33.7 -518.28, -29.15 -505.7, -25.69 -502.03 C-22.23 -498.36, -22.33 -499.42, -15.74 -489.46 C-9.15 -479.5, 4.81 -457.21, 13.82 -442.25 C22.83 -427.3, 31.54 -414.16, 38.32 -399.74 C45.09 -385.32, 50.68 -371.26, 54.47 -355.71 C58.26 -340.15, 61.21 -321.42, 61.05 -306.41 C60.89 -291.4, 60.04 -279.75, 53.51 -265.65 C46.97 -251.54, 31.79 -233.83, 21.83 -221.76 C11.86 -209.69, 0.8 -199.21, -6.26 -193.22 C-13.33 -187.23, -17.7 -188.47, -20.57 -185.84 C-23.44 -183.2, -22.06 -180.45, -23.48 -177.42 C-24.91 -174.38, -27.69 -168.73, -29.11 -167.61 C-30.53 -166.5, -29.43 -172.37, -32 -170.73 C-34.57 -169.09, -36.21 -166.08, -44.51 -157.79 C-52.81 -149.49, -68.21 -134.17, -81.8 -120.94 C-95.39 -107.7, -112.82 -90.7, -126.05 -78.39 C-139.28 -66.09, -149.39 -60.1, -161.18 -47.09 C-172.97 -34.09, -185.65 -16.61, -196.78 -0.36 C-207.91 15.9, -218.65 32.82, -227.96 50.43 C-237.26 68.04, -246.58 86.79, -252.61 105.28 C-258.64 123.77, -263.51 142.04, -264.16 161.37 C-264.82 180.71, -263.39 199.93, -256.54 221.31 C-249.7 242.69, -237.88 270.02, -223.09 289.66 C-208.31 309.31, -189.15 325.49, -167.84 339.17 C-146.53 352.85, -119.17 364.23, -95.21 371.74 C-71.26 379.25, -46.22 383.69, -24.09 384.21 C-1.95 384.74, 17.36 381.3, 37.59 374.87 C57.81 368.45, 80.86 355.85, 97.27 345.65 C113.69 335.45, 123.54 327.95, 136.09 313.67 C148.64 299.4, 163.09 279.26, 172.58 260 C182.08 240.73, 188.34 216.86, 193.06 198.06 C197.79 179.25, 200.92 164.17, 200.95 147.17 C200.97 130.17, 198.02 111.81, 193.23 96.05 C188.44 80.28, 183.41 67.23, 172.21 52.59 C161 37.95, 142.28 19.76, 126 8.21 C109.73 -3.34, 93.49 -10.86, 74.56 -16.69 C55.62 -22.52, 29.99 -26.22, 12.41 -26.77 C-5.17 -27.32, -16.84 -24.75, -30.92 -20 C-44.99 -15.25, -58.57 -8.06, -72.03 1.73 C-85.5 11.52, -101.9 26.29, -111.7 38.72 C-121.5 51.15, -128.25 64.38, -130.83 76.33 C-133.41 88.27, -130.98 100.58, -127.17 110.4 C-123.37 120.23, -116.05 129.49, -108 135.27 C-99.94 141.06, -87.26 144.53, -78.84 145.11 C-70.42 145.68, -62.17 142.54, -57.48 138.73 C-52.79 134.93, -51.25 125.82, -50.69 122.25 C-50.13 118.68, -52.1 116.3, -54.11 117.32 C-56.12 118.34, -59.58 125.96, -62.75 128.37 C-65.91 130.77, -68.64 132.56, -73.09 131.74 C-77.55 130.92, -84.92 127.98, -89.46 123.46 C-94 118.93, -98.95 113.03, -100.33 104.59 C-101.71 96.15, -102.53 84.68, -97.76 72.81 C-92.98 60.93, -81.13 43.89, -71.7 33.34 C-62.27 22.79, -50.17 15.03, -41.19 9.52 C-32.21 4.01, -22.94 0.75, -17.8 0.27 C-12.67 -0.21, -12.04 0.27, -10.37 6.65 C-8.7 13.03, -9.52 39.65, -7.8 38.55 C-6.07 37.44, -1.3 6.42, 0 0" stroke="none" stroke-width="0" fill="#ffffff" fill-rule="evenodd"></path><path d="M0 0 C0.04 -0.61, -1.4 -2.97, 0.22 -3.65 C1.85 -4.34, 3.35 -4.62, 9.75 -4.09 C16.15 -3.56, 27.86 -2.65, 38.63 -0.48 C49.39 1.69, 62.54 4.12, 74.34 8.95 C86.13 13.78, 98.96 20.75, 109.4 28.51 C119.84 36.26, 129.26 42.43, 136.98 55.5 C144.69 68.57, 151.71 87.89, 155.69 106.9 C159.67 125.91, 161.41 147.92, 160.85 169.57 C160.29 191.21, 159.52 214.52, 152.33 236.77 C145.15 259.01, 130.32 286.55, 117.74 303.04 C105.15 319.53, 89.26 328.44, 76.82 335.71 C64.39 342.98, 56.14 344.35, 43.15 346.68 C30.15 349.01, 14.12 350, -1.14 349.68 C-16.4 349.37, -30.18 350.5, -48.42 344.78 C-66.67 339.06, -92.79 328.87, -110.59 315.35 C-128.4 301.83, -142.63 284.96, -155.26 263.66 C-167.88 242.37, -180.47 213.52, -186.34 187.58 C-192.21 161.65, -194.49 134.61, -190.49 108.06 C-186.48 81.51, -176.35 54.91, -162.34 28.27 C-148.33 1.64, -128.56 -24.8, -106.42 -51.72 C-84.28 -78.64, -51.73 -111.48, -29.48 -133.24 C-7.24 -155.01, 9.27 -164.36, 27.07 -182.33 C44.86 -200.3, 65.21 -223.42, 77.3 -241.07 C89.4 -258.72, 95.77 -271.4, 99.65 -288.22 C103.52 -305.05, 104.48 -322.02, 100.56 -342.03 C96.64 -362.04, 87.23 -383.52, 76.13 -408.27 C65.04 -433.02, 45.93 -461, 34 -490.55 C22.07 -520.09, 11.46 -553.85, 4.54 -585.54 C-2.38 -617.23, -5.77 -648.01, -7.52 -680.68 C-9.28 -713.36, -5.06 -767.2, -5.99 -781.61 C-6.93 -796.02, -9.2 -781.92, -13.11 -767.13 C-17.02 -752.35, -23.39 -719.05, -29.45 -692.89 C-35.52 -666.73, -44.51 -636.42, -49.49 -610.18 C-54.47 -583.95, -57.1 -567, -59.33 -535.48 C-61.57 -503.97, -64.45 -463.07, -62.9 -421.07 C-61.35 -379.07, -54.57 -320.12, -50.05 -283.46 C-45.53 -246.81, -39.12 -220.23, -35.79 -201.13 C-32.45 -182.04, -32.17 -172.23, -30.03 -168.9 C-27.89 -165.57, -23.89 -175.86, -22.96 -181.17 C-22.04 -186.48, -22.66 -185.7, -24.5 -200.76 C-26.34 -215.82, -30.83 -245.03, -34.03 -271.53 C-37.22 -298.03, -42.23 -328.14, -43.67 -359.77 C-45.1 -391.39, -43.83 -435.99, -42.64 -461.28 C-41.45 -486.56, -39.35 -504.7, -36.52 -511.49 C-33.7 -518.28, -29.15 -505.7, -25.69 -502.03 C-22.23 -498.36, -22.33 -499.42, -15.74 -489.46 C-9.15 -479.5, 4.81 -457.21, 13.82 -442.25 C22.83 -427.3, 31.54 -414.16, 38.32 -399.74 C45.09 -385.32, 50.68 -371.26, 54.47 -355.71 C58.26 -340.15, 61.21 -321.42, 61.05 -306.41 C60.89 -291.4, 60.04 -279.75, 53.51 -265.65 C46.97 -251.54, 31.79 -233.83, 21.83 -221.76 C11.86 -209.69, 0.8 -199.21, -6.26 -193.22 C-13.33 -187.23, -17.7 -188.47, -20.57 -185.84 C-23.44 -183.2, -22.06 -180.45, -23.48 -177.42 C-24.91 -174.38, -27.69 -168.73, -29.11 -167.61 C-30.53 -166.5, -29.43 -172.37, -32 -170.73 C-34.57 -169.09, -36.21 -166.08, -44.51 -157.79 C-52.81 -149.49, -68.21 -134.17, -81.8 -120.94 C-95.39 -107.7, -112.82 -90.7, -126.05 -78.39 C-139.28 -66.09, -149.39 -60.1, -161.18 -47.09 C-172.97 -34.09, -185.65 -16.61, -196.78 -0.36 C-207.91 15.9, -218.65 32.82, -227.96 50.43 C-237.26 68.04, -246.58 86.79, -252.61 105.28 C-258.64 123.77, -263.51 142.04, -264.16 161.37 C-264.82 180.71, -263.39 199.93, -256.54 221.31 C-249.7 242.69, -237.88 270.02, -223.09 289.66 C-208.31 309.31, -189.15 325.49, -167.84 339.17 C-146.53 352.85, -119.17 364.23, -95.21 371.74 C-71.26 379.25, -46.22 383.69, -24.09 384.21 C-1.95 384.74, 17.36 381.3, 37.59 374.87 C57.81 368.45, 80.86 355.85, 97.27 345.65 C113.69 335.45, 123.54 327.95, 136.09 313.67 C148.64 299.4, 163.09 279.26, 172.58 260 C182.08 240.73, 188.34 216.86, 193.06 198.06 C197.79 179.25, 200.92 164.17, 200.95 147.17 C200.97 130.17, 198.02 111.81, 193.23 96.05 C188.44 80.28, 183.41 67.23, 172.21 52.59 C161 37.95, 142.28 19.76, 126 8.21 C109.73 -3.34, 93.49 -10.86, 74.56 -16.69 C55.62 -22.52, 29.99 -26.22, 12.41 -26.77 C-5.17 -27.32, -16.84 -24.75, -30.92 -20 C-44.99 -15.25, -58.57 -8.06, -72.03 1.73 C-85.5 11.52, -101.9 26.29, -111.7 38.72 C-121.5 51.15, -128.25 64.38, -130.83 76.33 C-133.41 88.27, -130.98 100.58, -127.17 110.4 C-123.37 120.23, -116.05 129.49, -108 135.27 C-99.94 141.06, -87.26 144.53, -78.84 145.11 C-70.42 145.68, -62.17 142.54, -57.48 138.73 C-52.79 134.93, -51.25 125.82, -50.69 122.25 C-50.13 118.68, -52.1 116.3, -54.11 117.32 C-56.12 118.34, -59.58 125.96, -62.75 128.37 C-65.91 130.77, -68.64 132.56, -73.09 131.74 C-77.55 130.92, -84.92 127.98, -89.46 123.46 C-94 118.93, -98.95 113.03, -100.33 104.59 C-101.71 96.15, -102.53 84.68, -97.76 72.81 C-92.98 60.93, -81.13 43.89, -71.7 33.34 C-62.27 22.79, -50.17 15.03, -41.19 9.52 C-32.21 4.01, -22.94 0.75, -17.8 0.27 C-12.67 -0.21, -12.04 0.27, -10.37 6.65 C-8.7 13.03, -9.52 39.65, -7.8 38.55 C-6.07 37.44, -1.3 6.42, 0 0 M0 0 C0.04 -0.61, -1.4 -2.97, 0.22 -3.65 C1.85 -4.34, 3.35 -4.62, 9.75 -4.09 C16.15 -3.56, 27.86 -2.65, 38.63 -0.48 C49.39 1.69, 62.54 4.12, 74.34 8.95 C86.13 13.78, 98.96 20.75, 109.4 28.51 C119.84 36.26, 129.26 42.43, 136.98 55.5 C144.69 68.57, 151.71 87.89, 155.69 106.9 C159.67 125.91, 161.41 147.92, 160.85 169.57 C160.29 191.21, 159.52 214.52, 152.33 236.77 C145.15 259.01, 130.32 286.55, 117.74 303.04 C105.15 319.53, 89.26 328.44, 76.82 335.71 C64.39 342.98, 56.14 344.35, 43.15 346.68 C30.15 349.01, 14.12 350, -1.14 349.68 C-16.4 349.37, -30.18 350.5, -48.42 344.78 C-66.67 339.06, -92.79 328.87, -110.59 315.35 C-128.4 301.83, -142.63 284.96, -155.26 263.66 C-167.88 242.37, -180.47 213.52, -186.34 187.58 C-192.21 161.65, -194.49 134.61, -190.49 108.06 C-186.48 81.51, -176.35 54.91, -162.34 28.27 C-148.33 1.64, -128.56 -24.8, -106.42 -51.72 C-84.28 -78.64, -51.73 -111.48, -29.48 -133.24 C-7.24 -155.01, 9.27 -164.36, 27.07 -182.33 C44.86 -200.3, 65.21 -223.42, 77.3 -241.07 C89.4 -258.72, 95.77 -271.4, 99.65 -288.22 C103.52 -305.05, 104.48 -322.02, 100.56 -342.03 C96.64 -362.04, 87.23 -383.52, 76.13 -408.27 C65.04 -433.02, 45.93 -461, 34 -490.55 C22.07 -520.09, 11.46 -553.85, 4.54 -585.54 C-2.38 -617.23, -5.77 -648.01, -7.52 -680.68 C-9.28 -713.36, -5.06 -767.2, -5.99 -781.61 C-6.93 -796.02, -9.2 -781.92, -13.11 -767.13 C-17.02 -752.35, -23.39 -719.05, -29.45 -692.89 C-35.52 -666.73, -44.51 -636.42, -49.49 -610.18 C-54.47 -583.95, -57.1 -567, -59.33 -535.48 C-61.57 -503.97, -64.45 -463.07, -62.9 -421.07 C-61.35 -379.07, -54.57 -320.12, -50.05 -283.46 C-45.53 -246.81, -39.12 -220.23, -35.79 -201.13 C-32.45 -182.04, -32.17 -172.23, -30.03 -168.9 C-27.89 -165.57, -23.89 -175.86, -22.96 -181.17 C-22.04 -186.48, -22.66 -185.7, -24.5 -200.76 C-26.34 -215.82, -30.83 -245.03, -34.03 -271.53 C-37.22 -298.03, -42.23 -328.14, -43.67 -359.77 C-45.1 -391.39, -43.83 -435.99, -42.64 -461.28 C-41.45 -486.56, -39.35 -504.7, -36.52 -511.49 C-33.7 -518.28, -29.15 -505.7, -25.69 -502.03 C-22.23 -498.36, -22.33 -499.42, -15.74 -489.46 C-9.15 -479.5, 4.81 -457.21, 13.82 -442.25 C22.83 -427.3, 31.54 -414.16, 38.32 -399.74 C45.09 -385.32, 50.68 -371.26, 54.47 -355.71 C58.26 -340.15, 61.21 -321.42, 61.05 -306.41 C60.89 -291.4, 60.04 -279.75, 53.51 -265.65 C46.97 -251.54, 31.79 -233.83, 21.83 -221.76 C11.86 -209.69, 0.8 -199.21, -6.26 -193.22 C-13.33 -187.23, -17.7 -188.47, -20.57 -185.84 C-23.44 -183.2, -22.06 -180.45, -23.48 -177.42 C-24.91 -174.38, -27.69 -168.73, -29.11 -167.61 C-30.53 -166.5, -29.43 -172.37, -32 -170.73 C-34.57 -169.09, -36.21 -166.08, -44.51 -157.79 C-52.81 -149.49, -68.21 -134.17, -81.8 -120.94 C-95.39 -107.7, -112.82 -90.7, -126.05 -78.39 C-139.28 -66.09, -149.39 -60.1, -161.18 -47.09 C-172.97 -34.09, -185.65 -16.61, -196.78 -0.36 C-207.91 15.9, -218.65 32.82, -227.96 50.43 C-237.26 68.04, -246.58 86.79, -252.61 105.28 C-258.64 123.77, -263.51 142.04, -264.16 161.37 C-264.82 180.71, -263.39 199.93, -256.54 221.31 C-249.7 242.69, -237.88 270.02, -223.09 289.66 C-208.31 309.31, -189.15 325.49, -167.84 339.17 C-146.53 352.85, -119.17 364.23, -95.21 371.74 C-71.26 379.25, -46.22 383.69, -24.09 384.21 C-1.95 384.74, 17.36 381.3, 37.59 374.87 C57.81 368.45, 80.86 355.85, 97.27 345.65 C113.69 335.45, 123.54 327.95, 136.09 313.67 C148.64 299.4, 163.09 279.26, 172.58 260 C182.08 240.73, 188.34 216.86, 193.06 198.06 C197.79 179.25, 200.92 164.17, 200.95 147.17 C200.97 130.17, 198.02 111.81, 193.23 96.05 C188.44 80.28, 183.41 67.23, 172.21 52.59 C161 37.95, 142.28 19.76, 126 8.21 C109.73 -3.34, 93.49 -10.86, 74.56 -16.69 C55.62 -22.52, 29.99 -26.22, 12.41 -26.77 C-5.17 -27.32, -16.84 -24.75, -30.92 -20 C-44.99 -15.25, -58.57 -8.06, -72.03 1.73 C-85.5 11.52, -101.9 26.29, -111.7 38.72 C-121.5 51.15, -128.25 64.38, -130.83 76.33 C-133.41 88.27, -130.98 100.58, -127.17 110.4 C-123.37 120.23, -116.05 129.49, -108 135.27 C-99.94 141.06, -87.26 144.53, -78.84 145.11 C-70.42 145.68, -62.17 142.54, -57.48 138.73 C-52.79 134.93, -51.25 125.82, -50.69 122.25 C-50.13 118.68, -52.1 116.3, -54.11 117.32 C-56.12 118.34, -59.58 125.96, -62.75 128.37 C-65.91 130.77, -68.64 132.56, -73.09 131.74 C-77.55 130.92, -84.92 127.98, -89.46 123.46 C-94 118.93, -98.95 113.03, -100.33 104.59 C-101.71 96.15, -102.53 84.68, -97.76 72.81 C-92.98 60.93, -81.13 43.89, -71.7 33.34 C-62.27 22.79, -50.17 15.03, -41.19 9.52 C-32.21 4.01, -22.94 0.75, -17.8 0.27 C-12.67 -0.21, -12.04 0.27, -10.37 6.65 C-8.7 13.03, -9.52 39.65, -7.8 38.55 C-6.07 37.44, -1.3 6.42, 0 0" stroke="#FFFFFF" stroke-width="4" fill="none"></path></g></g><mask></mask><g stroke-linecap="round"><g transform="translate(403.13000316294256 1150.1812276135033) rotate(0 -0.4159647726592084 67.66736840855765)" fill-rule="evenodd"><path d="M0 0 C0.63 3.82, 2.03 9.72, 3.75 22.9 C5.47 36.09, 8.57 63.58, 10.32 79.12 C12.07 94.66, 13.61 106.77, 14.24 116.15 C14.86 125.53, 16.03 133.28, 14.07 135.4 C12.12 137.53, 4.43 133.1, 2.5 128.89 C0.58 124.68, 3.28 121.85, 2.5 110.16 C1.73 98.47, -0.71 72.71, -2.13 58.73 C-3.54 44.75, -3.83 35.28, -5.98 26.26 C-8.14 17.25, -14.38 9.02, -15.07 4.63 C-15.76 0.24, -12.64 0.7, -10.13 -0.07 C-7.62 -0.84, -1.69 -0.01, 0 0" stroke="none" stroke-width="0" fill="#ffffff" fill-rule="evenodd"></path><path d="M0 0 C0.63 3.82, 2.03 9.72, 3.75 22.9 C5.47 36.09, 8.57 63.58, 10.32 79.12 C12.07 94.66, 13.61 106.77, 14.24 116.15 C14.86 125.53, 16.03 133.28, 14.07 135.4 C12.12 137.53, 4.43 133.1, 2.5 128.89 C0.58 124.68, 3.28 121.85, 2.5 110.16 C1.73 98.47, -0.71 72.71, -2.13 58.73 C-3.54 44.75, -3.83 35.28, -5.98 26.26 C-8.14 17.25, -14.38 9.02, -15.07 4.63 C-15.76 0.24, -12.64 0.7, -10.13 -0.07 C-7.62 -0.84, -1.69 -0.01, 0 0 M0 0 C0.63 3.82, 2.03 9.72, 3.75 22.9 C5.47 36.09, 8.57 63.58, 10.32 79.12 C12.07 94.66, 13.61 106.77, 14.24 116.15 C14.86 125.53, 16.03 133.28, 14.07 135.4 C12.12 137.53, 4.43 133.1, 2.5 128.89 C0.58 124.68, 3.28 121.85, 2.5 110.16 C1.73 98.47, -0.71 72.71, -2.13 58.73 C-3.54 44.75, -3.83 35.28, -5.98 26.26 C-8.14 17.25, -14.38 9.02, -15.07 4.63 C-15.76 0.24, -12.64 0.7, -10.13 -0.07 C-7.62 -0.84, -1.69 -0.01, 0 0" stroke="#FFFFFF" stroke-width="4" fill="none"></path></g></g><mask></mask><g stroke-linecap="round"><g transform="translate(420.4268395787635 1290.4617272229043) rotate(0 -74.2213365669495 320.357917438223)" fill-rule="evenodd"><path d="M0 0 C0.86 11.23, 2.53 36.1, 5.19 67.36 C7.85 98.63, 12.92 153.33, 15.98 187.58 C19.05 221.83, 21.92 247.97, 23.6 272.87 C25.28 297.78, 25.57 319.79, 26.06 337 C26.54 354.21, 26.87 359.69, 26.49 376.16 C26.12 392.62, 25.72 412.98, 23.82 435.79 C21.91 458.6, 19.45 490.27, 15.04 513.02 C10.63 535.76, 4.26 556.11, -2.63 572.26 C-9.52 588.41, -17.64 599.68, -26.3 609.91 C-34.95 620.14, -45.05 628.49, -54.56 633.63 C-64.07 638.76, -73.19 640.98, -83.36 640.72 C-93.52 640.45, -105.45 637.49, -115.56 632.05 C-125.68 626.61, -135.21 619.45, -144.04 608.08 C-152.86 596.7, -163.36 577.56, -168.51 563.8 C-173.66 550.04, -175.19 537.05, -174.94 525.53 C-174.68 514.01, -171.67 503.25, -166.99 494.69 C-162.32 486.13, -154.48 478.22, -146.87 474.19 C-139.25 470.16, -128.18 468.25, -121.3 470.52 C-114.42 472.8, -108.39 481.9, -105.6 487.84 C-102.81 493.78, -102.9 500.86, -104.59 506.15 C-106.28 511.45, -113.25 516.23, -115.76 519.62 C-118.26 523.01, -118.51 526.82, -119.64 526.49 C-120.76 526.15, -121.72 522.47, -122.51 517.63 C-123.29 512.78, -122.14 501.29, -124.34 497.45 C-126.54 493.6, -131.27 493.75, -135.69 494.56 C-140.11 495.38, -147.2 497.42, -150.86 502.31 C-154.53 507.21, -156.82 514.74, -157.68 523.92 C-158.55 533.1, -159.04 547.76, -156.06 557.4 C-153.08 567.03, -147.05 575.4, -139.82 581.74 C-132.58 588.09, -121.85 593.65, -112.66 595.47 C-103.47 597.28, -94.24 595.91, -84.65 592.65 C-75.06 589.4, -64.46 584.57, -55.11 575.93 C-45.76 567.3, -35.75 554, -28.55 540.86 C-21.36 527.72, -17.28 514.31, -11.93 497.09 C-6.58 479.87, 0.17 458, 3.54 437.53 C6.91 417.05, 7.59 395.72, 8.3 374.26 C9.02 352.79, 8.56 339.53, 7.81 308.74 C7.07 277.94, 5.7 228.61, 3.82 189.49 C1.94 150.36, -1.4 103.25, -3.47 73.99 C-5.54 44.74, -9.18 26.29, -8.6 13.96 C-8.02 1.63, -1.43 2.33, 0 0" stroke="none" stroke-width="0" fill="#ffffff" fill-rule="evenodd"></path><path d="M0 0 C0.86 11.23, 2.53 36.1, 5.19 67.36 C7.85 98.63, 12.92 153.33, 15.98 187.58 C19.05 221.83, 21.92 247.97, 23.6 272.87 C25.28 297.78, 25.57 319.79, 26.06 337 C26.54 354.21, 26.87 359.69, 26.49 376.16 C26.12 392.62, 25.72 412.98, 23.82 435.79 C21.91 458.6, 19.45 490.27, 15.04 513.02 C10.63 535.76, 4.26 556.11, -2.63 572.26 C-9.52 588.41, -17.64 599.68, -26.3 609.91 C-34.95 620.14, -45.05 628.49, -54.56 633.63 C-64.07 638.76, -73.19 640.98, -83.36 640.72 C-93.52 640.45, -105.45 637.49, -115.56 632.05 C-125.68 626.61, -135.21 619.45, -144.04 608.08 C-152.86 596.7, -163.36 577.56, -168.51 563.8 C-173.66 550.04, -175.19 537.05, -174.94 525.53 C-174.68 514.01, -171.67 503.25, -166.99 494.69 C-162.32 486.13, -154.48 478.22, -146.87 474.19 C-139.25 470.16, -128.18 468.25, -121.3 470.52 C-114.42 472.8, -108.39 481.9, -105.6 487.84 C-102.81 493.78, -102.9 500.86, -104.59 506.15 C-106.28 511.45, -113.25 516.23, -115.76 519.62 C-118.26 523.01, -118.51 526.82, -119.64 526.49 C-120.76 526.15, -121.72 522.47, -122.51 517.63 C-123.29 512.78, -122.14 501.29, -124.34 497.45 C-126.54 493.6, -131.27 493.75, -135.69 494.56 C-140.11 495.38, -147.2 497.42, -150.86 502.31 C-154.53 507.21, -156.82 514.74, -157.68 523.92 C-158.55 533.1, -159.04 547.76, -156.06 557.4 C-153.08 567.03, -147.05 575.4, -139.82 581.74 C-132.58 588.09, -121.85 593.65, -112.66 595.47 C-103.47 597.28, -94.24 595.91, -84.65 592.65 C-75.06 589.4, -64.46 584.57, -55.11 575.93 C-45.76 567.3, -35.75 554, -28.55 540.86 C-21.36 527.72, -17.28 514.31, -11.93 497.09 C-6.58 479.87, 0.17 458, 3.54 437.53 C6.91 417.05, 7.59 395.72, 8.3 374.26 C9.02 352.79, 8.56 339.53, 7.81 308.74 C7.07 277.94, 5.7 228.61, 3.82 189.49 C1.94 150.36, -1.4 103.25, -3.47 73.99 C-5.54 44.74, -9.18 26.29, -8.6 13.96 C-8.02 1.63, -1.43 2.33, 0 0 M0 0 C0.86 11.23, 2.53 36.1, 5.19 67.36 C7.85 98.63, 12.92 153.33, 15.98 187.58 C19.05 221.83, 21.92 247.97, 23.6 272.87 C25.28 297.78, 25.57 319.79, 26.06 337 C26.54 354.21, 26.87 359.69, 26.49 376.16 C26.12 392.62, 25.72 412.98, 23.82 435.79 C21.91 458.6, 19.45 490.27, 15.04 513.02 C10.63 535.76, 4.26 556.11, -2.63 572.26 C-9.52 588.41, -17.64 599.68, -26.3 609.91 C-34.95 620.14, -45.05 628.49, -54.56 633.63 C-64.07 638.76, -73.19 640.98, -83.36 640.72 C-93.52 640.45, -105.45 637.49, -115.56 632.05 C-125.68 626.61, -135.21 619.45, -144.04 608.08 C-152.86 596.7, -163.36 577.56, -168.51 563.8 C-173.66 550.04, -175.19 537.05, -174.94 525.53 C-174.68 514.01, -171.67 503.25, -166.99 494.69 C-162.32 486.13, -154.48 478.22, -146.87 474.19 C-139.25 470.16, -128.18 468.25, -121.3 470.52 C-114.42 472.8, -108.39 481.9, -105.6 487.84 C-102.81 493.78, -102.9 500.86, -104.59 506.15 C-106.28 511.45, -113.25 516.23, -115.76 519.62 C-118.26 523.01, -118.51 526.82, -119.64 526.49 C-120.76 526.15, -121.72 522.47, -122.51 517.63 C-123.29 512.78, -122.14 501.29, -124.34 497.45 C-126.54 493.6, -131.27 493.75, -135.69 494.56 C-140.11 495.38, -147.2 497.42, -150.86 502.31 C-154.53 507.21, -156.82 514.74, -157.68 523.92 C-158.55 533.1, -159.04 547.76, -156.06 557.4 C-153.08 567.03, -147.05 575.4, -139.82 581.74 C-132.58 588.09, -121.85 593.65, -112.66 595.47 C-103.47 597.28, -94.24 595.91, -84.65 592.65 C-75.06 589.4, -64.46 584.57, -55.11 575.93 C-45.76 567.3, -35.75 554, -28.55 540.86 C-21.36 527.72, -17.28 514.31, -11.93 497.09 C-6.58 479.87, 0.17 458, 3.54 437.53 C6.91 417.05, 7.59 395.72, 8.3 374.26 C9.02 352.79, 8.56 339.53, 7.81 308.74 C7.07 277.94, 5.7 228.61, 3.82 189.49 C1.94 150.36, -1.4 103.25, -3.47 73.99 C-5.54 44.74, -9.18 26.29, -8.6 13.96 C-8.02 1.63, -1.43 2.33, 0 0" stroke="#FFFFFF" stroke-width="4" fill="none"></path></g></g><mask></mask><g stroke-linecap="round"><g transform="translate(643.198821547398 1494.2785777360314) rotate(0 -16.3050121273277 128.92608588591293)" fill-rule="evenodd"><path d="M0 0 C0.93 -6.12, 3.63 -27.06, 5.58 -36.7 C7.53 -46.35, 10.13 -55.41, 11.71 -57.88 C13.29 -60.34, 14.01 -55.47, 15.07 -51.49 C16.12 -47.51, 14.89 -43.21, 18.05 -34 C21.22 -24.78, 29.69 -5.29, 34.06 3.77 C38.42 12.83, 41.83 17.1, 44.25 20.36 C46.67 23.62, 46.71 19.64, 48.57 23.34 C50.42 27.03, 53.05 33, 55.39 42.52 C57.73 52.04, 61.47 69.37, 62.59 80.46 C63.71 91.54, 63.51 100.9, 62.11 109.03 C60.71 117.15, 57.49 123.65, 54.21 129.2 C50.94 134.75, 45.86 138.57, 42.46 142.35 C39.05 146.13, 34.92 152.44, 33.77 151.88 C32.61 151.33, 34.52 145.47, 35.52 139 C36.51 132.54, 39.4 122.17, 39.72 113.07 C40.04 103.97, 39.84 93.35, 37.46 84.42 C35.08 75.5, 29.93 66.34, 25.46 59.51 C20.98 52.68, 13.39 43.74, 10.59 43.46 C7.8 43.17, 9.74 43.75, 8.7 57.78 C7.65 71.81, 5.78 103.62, 4.33 127.61 C2.89 151.6, 1.09 182.56, 0.01 201.74 C-1.07 220.92, -1.03 231.46, -2.15 242.69 C-3.26 253.93, -3.72 261.49, -6.65 269.13 C-9.58 276.78, -12.99 281.9, -19.7 288.58 C-26.42 295.26, -37.46 304.68, -46.93 309.21 C-56.41 313.73, -68.9 316.19, -76.57 315.73 C-84.23 315.28, -89.82 311.63, -92.92 306.47 C-96.03 301.32, -96.87 292.02, -95.2 284.79 C-93.53 277.57, -89.28 269.97, -82.9 263.13 C-76.53 256.29, -65.05 248.84, -56.95 243.75 C-48.86 238.67, -40.47 234.85, -34.34 232.64 C-28.2 230.43, -23.18 233.12, -20.14 230.49 C-17.1 227.85, -17.6 230.25, -16.11 216.82 C-14.63 203.38, -13.3 176.77, -11.24 149.89 C-9.18 123.01, -5.61 80.54, -3.74 55.55 C-1.86 30.57, -0.62 9.26, 0 0" stroke="none" stroke-width="0" fill="#ffffff" fill-rule="evenodd"></path><path d="M0 0 C0.93 -6.12, 3.63 -27.06, 5.58 -36.7 C7.53 -46.35, 10.13 -55.41, 11.71 -57.88 C13.29 -60.34, 14.01 -55.47, 15.07 -51.49 C16.12 -47.51, 14.89 -43.21, 18.05 -34 C21.22 -24.78, 29.69 -5.29, 34.06 3.77 C38.42 12.83, 41.83 17.1, 44.25 20.36 C46.67 23.62, 46.71 19.64, 48.57 23.34 C50.42 27.03, 53.05 33, 55.39 42.52 C57.73 52.04, 61.47 69.37, 62.59 80.46 C63.71 91.54, 63.51 100.9, 62.11 109.03 C60.71 117.15, 57.49 123.65, 54.21 129.2 C50.94 134.75, 45.86 138.57, 42.46 142.35 C39.05 146.13, 34.92 152.44, 33.77 151.88 C32.61 151.33, 34.52 145.47, 35.52 139 C36.51 132.54, 39.4 122.17, 39.72 113.07 C40.04 103.97, 39.84 93.35, 37.46 84.42 C35.08 75.5, 29.93 66.34, 25.46 59.51 C20.98 52.68, 13.39 43.74, 10.59 43.46 C7.8 43.17, 9.74 43.75, 8.7 57.78 C7.65 71.81, 5.78 103.62, 4.33 127.61 C2.89 151.6, 1.09 182.56, 0.01 201.74 C-1.07 220.92, -1.03 231.46, -2.15 242.69 C-3.26 253.93, -3.72 261.49, -6.65 269.13 C-9.58 276.78, -12.99 281.9, -19.7 288.58 C-26.42 295.26, -37.46 304.68, -46.93 309.21 C-56.41 313.73, -68.9 316.19, -76.57 315.73 C-84.23 315.28, -89.82 311.63, -92.92 306.47 C-96.03 301.32, -96.87 292.02, -95.2 284.79 C-93.53 277.57, -89.28 269.97, -82.9 263.13 C-76.53 256.29, -65.05 248.84, -56.95 243.75 C-48.86 238.67, -40.47 234.85, -34.34 232.64 C-28.2 230.43, -23.18 233.12, -20.14 230.49 C-17.1 227.85, -17.6 230.25, -16.11 216.82 C-14.63 203.38, -13.3 176.77, -11.24 149.89 C-9.18 123.01, -5.61 80.54, -3.74 55.55 C-1.86 30.57, -0.62 9.26, 0 0 M0 0 C0.93 -6.12, 3.63 -27.06, 5.58 -36.7 C7.53 -46.35, 10.13 -55.41, 11.71 -57.88 C13.29 -60.34, 14.01 -55.47, 15.07 -51.49 C16.12 -47.51, 14.89 -43.21, 18.05 -34 C21.22 -24.78, 29.69 -5.29, 34.06 3.77 C38.42 12.83, 41.83 17.1, 44.25 20.36 C46.67 23.62, 46.71 19.64, 48.57 23.34 C50.42 27.03, 53.05 33, 55.39 42.52 C57.73 52.04, 61.47 69.37, 62.59 80.46 C63.71 91.54, 63.51 100.9, 62.11 109.03 C60.71 117.15, 57.49 123.65, 54.21 129.2 C50.94 134.75, 45.86 138.57, 42.46 142.35 C39.05 146.13, 34.92 152.44, 33.77 151.88 C32.61 151.33, 34.52 145.47, 35.52 139 C36.51 132.54, 39.4 122.17, 39.72 113.07 C40.04 103.97, 39.84 93.35, 37.46 84.42 C35.08 75.5, 29.93 66.34, 25.46 59.51 C20.98 52.68, 13.39 43.74, 10.59 43.46 C7.8 43.17, 9.74 43.75, 8.7 57.78 C7.65 71.81, 5.78 103.62, 4.33 127.61 C2.89 151.6, 1.09 182.56, 0.01 201.74 C-1.07 220.92, -1.03 231.46, -2.15 242.69 C-3.26 253.93, -3.72 261.49, -6.65 269.13 C-9.58 276.78, -12.99 281.9, -19.7 288.58 C-26.42 295.26, -37.46 304.68, -46.93 309.21 C-56.41 313.73, -68.9 316.19, -76.57 315.73 C-84.23 315.28, -89.82 311.63, -92.92 306.47 C-96.03 301.32, -96.87 292.02, -95.2 284.79 C-93.53 277.57, -89.28 269.97, -82.9 263.13 C-76.53 256.29, -65.05 248.84, -56.95 243.75 C-48.86 238.67, -40.47 234.85, -34.34 232.64 C-28.2 230.43, -23.18 233.12, -20.14 230.49 C-17.1 227.85, -17.6 230.25, -16.11 216.82 C-14.63 203.38, -13.3 176.77, -11.24 149.89 C-9.18 123.01, -5.61 80.54, -3.74 55.55 C-1.86 30.57, -0.62 9.26, 0 0" stroke="#FFFFFF" stroke-width="4" fill="none"></path></g></g><mask></mask><g stroke-linecap="round"><g transform="translate(462.8455445157142 1785.038297344854) rotate(0 -42.660442847601416 184.75254709797264)" fill-rule="evenodd"><path d="M0 0 C0.13 -6.69, 0.8 -28.82, 0.79 -40.11 C0.77 -51.4, -0.87 -64.38, -0.1 -67.75 C0.67 -71.11, 3.35 -67.49, 5.42 -60.31 C7.49 -53.13, 11.42 -39.11, 12.29 -24.65 C13.16 -10.18, 14.32 8.18, 10.64 26.46 C6.97 44.73, -1.84 64.25, -9.73 85 C-17.62 105.76, -28.15 126.45, -36.7 150.99 C-45.24 175.53, -54.6 208.25, -60.99 232.22 C-67.38 256.2, -73.78 276.75, -75.03 294.86 C-76.27 312.96, -71.96 325.76, -68.47 340.86 C-64.98 355.96, -60.12 373.53, -54.09 385.46 C-48.05 397.38, -39.23 407.13, -32.25 412.41 C-25.27 417.7, -16.99 417.68, -12.2 417.18 C-7.42 416.67, -4.68 412.24, -3.56 409.36 C-2.43 406.48, -3.28 400.65, -5.47 399.91 C-7.67 399.17, -14.74 405.46, -16.72 404.93 C-18.71 404.39, -19.14 398.93, -17.39 396.7 C-15.65 394.47, -10.35 392.13, -6.27 391.56 C-2.19 390.98, 3.64 390.51, 7.1 393.25 C10.55 395.99, 14.12 402.58, 14.44 408 C14.77 413.41, 12.9 420.85, 9.06 425.73 C5.22 430.6, -0.94 436.07, -8.62 437.25 C-16.3 438.43, -27.3 438.63, -37 432.8 C-46.71 426.98, -58.24 414.05, -66.85 402.32 C-75.45 390.59, -83.16 376.8, -88.65 362.41 C-94.13 348.01, -98.06 332.34, -99.76 315.95 C-101.47 299.57, -102.2 283.44, -98.9 264.1 C-95.6 244.76, -88.98 222.17, -79.98 199.93 C-70.98 177.68, -54.97 150.74, -44.88 130.65 C-34.79 110.56, -26.04 94.25, -19.43 79.37 C-12.83 64.49, -8.49 54.59, -5.25 41.36 C-2.01 28.14, -0.88 6.89, 0 0" stroke="none" stroke-width="0" fill="#ffffff" fill-rule="evenodd"></path><path d="M0 0 C0.13 -6.69, 0.8 -28.82, 0.79 -40.11 C0.77 -51.4, -0.87 -64.38, -0.1 -67.75 C0.67 -71.11, 3.35 -67.49, 5.42 -60.31 C7.49 -53.13, 11.42 -39.11, 12.29 -24.65 C13.16 -10.18, 14.32 8.18, 10.64 26.46 C6.97 44.73, -1.84 64.25, -9.73 85 C-17.62 105.76, -28.15 126.45, -36.7 150.99 C-45.24 175.53, -54.6 208.25, -60.99 232.22 C-67.38 256.2, -73.78 276.75, -75.03 294.86 C-76.27 312.96, -71.96 325.76, -68.47 340.86 C-64.98 355.96, -60.12 373.53, -54.09 385.46 C-48.05 397.38, -39.23 407.13, -32.25 412.41 C-25.27 417.7, -16.99 417.68, -12.2 417.18 C-7.42 416.67, -4.68 412.24, -3.56 409.36 C-2.43 406.48, -3.28 400.65, -5.47 399.91 C-7.67 399.17, -14.74 405.46, -16.72 404.93 C-18.71 404.39, -19.14 398.93, -17.39 396.7 C-15.65 394.47, -10.35 392.13, -6.27 391.56 C-2.19 390.98, 3.64 390.51, 7.1 393.25 C10.55 395.99, 14.12 402.58, 14.44 408 C14.77 413.41, 12.9 420.85, 9.06 425.73 C5.22 430.6, -0.94 436.07, -8.62 437.25 C-16.3 438.43, -27.3 438.63, -37 432.8 C-46.71 426.98, -58.24 414.05, -66.85 402.32 C-75.45 390.59, -83.16 376.8, -88.65 362.41 C-94.13 348.01, -98.06 332.34, -99.76 315.95 C-101.47 299.57, -102.2 283.44, -98.9 264.1 C-95.6 244.76, -88.98 222.17, -79.98 199.93 C-70.98 177.68, -54.97 150.74, -44.88 130.65 C-34.79 110.56, -26.04 94.25, -19.43 79.37 C-12.83 64.49, -8.49 54.59, -5.25 41.36 C-2.01 28.14, -0.88 6.89, 0 0 M0 0 C0.13 -6.69, 0.8 -28.82, 0.79 -40.11 C0.77 -51.4, -0.87 -64.38, -0.1 -67.75 C0.67 -71.11, 3.35 -67.49, 5.42 -60.31 C7.49 -53.13, 11.42 -39.11, 12.29 -24.65 C13.16 -10.18, 14.32 8.18, 10.64 26.46 C6.97 44.73, -1.84 64.25, -9.73 85 C-17.62 105.76, -28.15 126.45, -36.7 150.99 C-45.24 175.53, -54.6 208.25, -60.99 232.22 C-67.38 256.2, -73.78 276.75, -75.03 294.86 C-76.27 312.96, -71.96 325.76, -68.47 340.86 C-64.98 355.96, -60.12 373.53, -54.09 385.46 C-48.05 397.38, -39.23 407.13, -32.25 412.41 C-25.27 417.7, -16.99 417.68, -12.2 417.18 C-7.42 416.67, -4.68 412.24, -3.56 409.36 C-2.43 406.48, -3.28 400.65, -5.47 399.91 C-7.67 399.17, -14.74 405.46, -16.72 404.93 C-18.71 404.39, -19.14 398.93, -17.39 396.7 C-15.65 394.47, -10.35 392.13, -6.27 391.56 C-2.19 390.98, 3.64 390.51, 7.1 393.25 C10.55 395.99, 14.12 402.58, 14.44 408 C14.77 413.41, 12.9 420.85, 9.06 425.73 C5.22 430.6, -0.94 436.07, -8.62 437.25 C-16.3 438.43, -27.3 438.63, -37 432.8 C-46.71 426.98, -58.24 414.05, -66.85 402.32 C-75.45 390.59, -83.16 376.8, -88.65 362.41 C-94.13 348.01, -98.06 332.34, -99.76 315.95 C-101.47 299.57, -102.2 283.44, -98.9 264.1 C-95.6 244.76, -88.98 222.17, -79.98 199.93 C-70.98 177.68, -54.97 150.74, -44.88 130.65 C-34.79 110.56, -26.04 94.25, -19.43 79.37 C-12.83 64.49, -8.49 54.59, -5.25 41.36 C-2.01 28.14, -0.88 6.89, 0 0" stroke="#FFFFFF" stroke-width="4" fill="none"></path></g></g><mask></mask><g stroke-linecap="round"><g transform="translate(135.41004492421825 1497.5729315953276) rotate(0 35.959563939705276 81.33610916801672)" fill-rule="evenodd"><path d="M0 0 C2.06 6.87, 5.38 25.94, 12.35 41.25 C19.32 56.56, 32.48 75.92, 41.83 91.84 C51.18 107.77, 61.55 124.03, 68.44 136.78 C75.34 149.54, 79.96 157.97, 83.21 168.36 C86.47 178.76, 87.8 189.64, 87.99 199.15 C88.17 208.66, 87.65 217.25, 84.32 225.42 C81 233.58, 74.17 242.95, 68.04 248.15 C61.91 253.34, 54.57 256.22, 47.56 256.6 C40.55 256.98, 31.53 254.65, 26 250.43 C20.46 246.21, 16.4 238.56, 14.34 231.29 C12.29 224.03, 12.34 212.77, 13.65 206.84 C14.96 200.91, 18.07 197.45, 22.22 195.73 C26.36 194, 34.77 194.89, 38.52 196.49 C42.27 198.08, 44.64 202.32, 44.71 205.28 C44.79 208.25, 39.99 213.73, 38.96 214.27 C37.94 214.81, 40.52 209.83, 38.58 208.55 C36.65 207.26, 30.31 205.44, 27.37 206.55 C24.43 207.65, 21.28 211.89, 20.96 215.17 C20.64 218.45, 22.24 222.64, 25.43 226.22 C28.62 229.81, 34.4 235.62, 40.09 236.66 C45.78 237.7, 55.51 237.36, 59.58 232.48 C63.64 227.61, 64.62 216.56, 64.49 207.41 C64.36 198.26, 62.81 190.3, 58.8 177.58 C54.8 164.86, 48.25 146.52, 40.44 131.09 C32.63 115.66, 20.54 101.05, 11.96 85.01 C3.38 68.96, -6.38 52.64, -11.05 34.79 C-15.72 16.95, -16.29 -6.1, -16.07 -22.07 C-15.85 -38.04, -13.08 -50, -9.72 -61.03 C-6.36 -72.05, 0.57 -82.72, 4.1 -88.2 C7.63 -93.69, 9.97 -94.16, 11.46 -93.93 C12.95 -93.7, 14.8 -91.72, 13.06 -86.82 C11.31 -81.92, 3.85 -72.76, 1.01 -64.54 C-1.82 -56.33, -3.32 -45.55, -3.95 -37.52 C-4.59 -29.49, -3.44 -22.62, -2.78 -16.37 C-2.12 -10.11, -0.46 -2.73, 0 0" stroke="none" stroke-width="0" fill="#ffffff" fill-rule="evenodd"></path><path d="M0 0 C2.06 6.87, 5.38 25.94, 12.35 41.25 C19.32 56.56, 32.48 75.92, 41.83 91.84 C51.18 107.77, 61.55 124.03, 68.44 136.78 C75.34 149.54, 79.96 157.97, 83.21 168.36 C86.47 178.76, 87.8 189.64, 87.99 199.15 C88.17 208.66, 87.65 217.25, 84.32 225.42 C81 233.58, 74.17 242.95, 68.04 248.15 C61.91 253.34, 54.57 256.22, 47.56 256.6 C40.55 256.98, 31.53 254.65, 26 250.43 C20.46 246.21, 16.4 238.56, 14.34 231.29 C12.29 224.03, 12.34 212.77, 13.65 206.84 C14.96 200.91, 18.07 197.45, 22.22 195.73 C26.36 194, 34.77 194.89, 38.52 196.49 C42.27 198.08, 44.64 202.32, 44.71 205.28 C44.79 208.25, 39.99 213.73, 38.96 214.27 C37.94 214.81, 40.52 209.83, 38.58 208.55 C36.65 207.26, 30.31 205.44, 27.37 206.55 C24.43 207.65, 21.28 211.89, 20.96 215.17 C20.64 218.45, 22.24 222.64, 25.43 226.22 C28.62 229.81, 34.4 235.62, 40.09 236.66 C45.78 237.7, 55.51 237.36, 59.58 232.48 C63.64 227.61, 64.62 216.56, 64.49 207.41 C64.36 198.26, 62.81 190.3, 58.8 177.58 C54.8 164.86, 48.25 146.52, 40.44 131.09 C32.63 115.66, 20.54 101.05, 11.96 85.01 C3.38 68.96, -6.38 52.64, -11.05 34.79 C-15.72 16.95, -16.29 -6.1, -16.07 -22.07 C-15.85 -38.04, -13.08 -50, -9.72 -61.03 C-6.36 -72.05, 0.57 -82.72, 4.1 -88.2 C7.63 -93.69, 9.97 -94.16, 11.46 -93.93 C12.95 -93.7, 14.8 -91.72, 13.06 -86.82 C11.31 -81.92, 3.85 -72.76, 1.01 -64.54 C-1.82 -56.33, -3.32 -45.55, -3.95 -37.52 C-4.59 -29.49, -3.44 -22.62, -2.78 -16.37 C-2.12 -10.11, -0.46 -2.73, 0 0 M0 0 C2.06 6.87, 5.38 25.94, 12.35 41.25 C19.32 56.56, 32.48 75.92, 41.83 91.84 C51.18 107.77, 61.55 124.03, 68.44 136.78 C75.34 149.54, 79.96 157.97, 83.21 168.36 C86.47 178.76, 87.8 189.64, 87.99 199.15 C88.17 208.66, 87.65 217.25, 84.32 225.42 C81 233.58, 74.17 242.95, 68.04 248.15 C61.91 253.34, 54.57 256.22, 47.56 256.6 C40.55 256.98, 31.53 254.65, 26 250.43 C20.46 246.21, 16.4 238.56, 14.34 231.29 C12.29 224.03, 12.34 212.77, 13.65 206.84 C14.96 200.91, 18.07 197.45, 22.22 195.73 C26.36 194, 34.77 194.89, 38.52 196.49 C42.27 198.08, 44.64 202.32, 44.71 205.28 C44.79 208.25, 39.99 213.73, 38.96 214.27 C37.94 214.81, 40.52 209.83, 38.58 208.55 C36.65 207.26, 30.31 205.44, 27.37 206.55 C24.43 207.65, 21.28 211.89, 20.96 215.17 C20.64 218.45, 22.24 222.64, 25.43 226.22 C28.62 229.81, 34.4 235.62, 40.09 236.66 C45.78 237.7, 55.51 237.36, 59.58 232.48 C63.64 227.61, 64.62 216.56, 64.49 207.41 C64.36 198.26, 62.81 190.3, 58.8 177.58 C54.8 164.86, 48.25 146.52, 40.44 131.09 C32.63 115.66, 20.54 101.05, 11.96 85.01 C3.38 68.96, -6.38 52.64, -11.05 34.79 C-15.72 16.95, -16.29 -6.1, -16.07 -22.07 C-15.85 -38.04, -13.08 -50, -9.72 -61.03 C-6.36 -72.05, 0.57 -82.72, 4.1 -88.2 C7.63 -93.69, 9.97 -94.16, 11.46 -93.93 C12.95 -93.7, 14.8 -91.72, 13.06 -86.82 C11.31 -81.92, 3.85 -72.76, 1.01 -64.54 C-1.82 -56.33, -3.32 -45.55, -3.95 -37.52 C-4.59 -29.49, -3.44 -22.62, -2.78 -16.37 C-2.12 -10.11, -0.46 -2.73, 0 0" stroke="#FFFFFF" stroke-width="4" fill="none"></path></g></g><mask></mask><g stroke-linecap="round"><g transform="translate(496.5508182061858 727.685861015967) rotate(0 28.75227004598878 136.74047702710823)" fill-rule="evenodd"><path d="M0 0 C-0.72 -7.26, -3.69 -30.61, -4.33 -43.55 C-4.97 -56.5, -4.29 -68.83, -3.83 -77.68 C-3.37 -86.52, 0.51 -95.9, -1.57 -96.62 C-3.64 -97.33, -11.99 -91.11, -16.28 -81.98 C-20.57 -72.84, -25.45 -58.55, -27.32 -41.81 C-29.19 -25.07, -31.05 -3.45, -27.49 18.45 C-23.93 40.35, -14.7 67.38, -5.96 89.58 C2.79 111.77, 15.86 129.37, 24.97 151.62 C34.08 173.88, 43.74 202.44, 48.71 223.1 C53.69 243.76, 54.08 259.92, 54.83 275.58 C55.58 291.23, 55.22 304.88, 53.19 317.02 C51.17 329.15, 46.77 339.53, 42.66 348.38 C38.56 357.23, 29.14 366.48, 28.56 370.1 C27.98 373.72, 33.63 376.52, 39.17 370.1 C44.72 363.68, 54.2 346.82, 61.84 331.58 C69.47 316.34, 81.17 296.57, 84.99 278.66 C88.82 260.74, 88.98 243.64, 84.78 224.08 C80.58 204.52, 70.99 188.46, 59.8 161.29 C48.6 134.12, 27.54 87.93, 17.58 61.05 C7.61 34.16, 2.93 10.17, 0 0" stroke="none" stroke-width="0" fill="#ffffff" fill-rule="evenodd"></path><path d="M0 0 C-0.72 -7.26, -3.69 -30.61, -4.33 -43.55 C-4.97 -56.5, -4.29 -68.83, -3.83 -77.68 C-3.37 -86.52, 0.51 -95.9, -1.57 -96.62 C-3.64 -97.33, -11.99 -91.11, -16.28 -81.98 C-20.57 -72.84, -25.45 -58.55, -27.32 -41.81 C-29.19 -25.07, -31.05 -3.45, -27.49 18.45 C-23.93 40.35, -14.7 67.38, -5.96 89.58 C2.79 111.77, 15.86 129.37, 24.97 151.62 C34.08 173.88, 43.74 202.44, 48.71 223.1 C53.69 243.76, 54.08 259.92, 54.83 275.58 C55.58 291.23, 55.22 304.88, 53.19 317.02 C51.17 329.15, 46.77 339.53, 42.66 348.38 C38.56 357.23, 29.14 366.48, 28.56 370.1 C27.98 373.72, 33.63 376.52, 39.17 370.1 C44.72 363.68, 54.2 346.82, 61.84 331.58 C69.47 316.34, 81.17 296.57, 84.99 278.66 C88.82 260.74, 88.98 243.64, 84.78 224.08 C80.58 204.52, 70.99 188.46, 59.8 161.29 C48.6 134.12, 27.54 87.93, 17.58 61.05 C7.61 34.16, 2.93 10.17, 0 0 M0 0 C-0.72 -7.26, -3.69 -30.61, -4.33 -43.55 C-4.97 -56.5, -4.29 -68.83, -3.83 -77.68 C-3.37 -86.52, 0.51 -95.9, -1.57 -96.62 C-3.64 -97.33, -11.99 -91.11, -16.28 -81.98 C-20.57 -72.84, -25.45 -58.55, -27.32 -41.81 C-29.19 -25.07, -31.05 -3.45, -27.49 18.45 C-23.93 40.35, -14.7 67.38, -5.96 89.58 C2.79 111.77, 15.86 129.37, 24.97 151.62 C34.08 173.88, 43.74 202.44, 48.71 223.1 C53.69 243.76, 54.08 259.92, 54.83 275.58 C55.58 291.23, 55.22 304.88, 53.19 317.02 C51.17 329.15, 46.77 339.53, 42.66 348.38 C38.56 357.23, 29.14 366.48, 28.56 370.1 C27.98 373.72, 33.63 376.52, 39.17 370.1 C44.72 363.68, 54.2 346.82, 61.84 331.58 C69.47 316.34, 81.17 296.57, 84.99 278.66 C88.82 260.74, 88.98 243.64, 84.78 224.08 C80.58 204.52, 70.99 188.46, 59.8 161.29 C48.6 134.12, 27.54 87.93, 17.58 61.05 C7.61 34.16, 2.93 10.17, 0 0" stroke="#FFFFFF" stroke-width="4" fill="none"></path></g></g><mask></mask><g stroke-linecap="round"><g transform="translate(267.83758902784984 901.5284506875905) rotate(0 -112.37775512077383 146.4210060360533)" fill-rule="evenodd"><path d="M0 0 C0.54 10.16, 0.27 40.08, 3.26 60.99 C6.26 81.9, 13.4 104.78, 17.97 125.48 C22.54 146.18, 28.6 171.75, 30.69 185.18 C32.78 198.61, 34.28 197.7, 30.52 206.06 C26.76 214.42, 16.92 227.49, 8.13 235.34 C-0.66 243.18, -12.78 250.01, -22.22 253.13 C-31.67 256.25, -40.96 255.71, -48.53 254.05 C-56.1 252.39, -63.86 249.51, -67.65 243.18 C-71.44 236.86, -72.75 224.95, -71.28 216.11 C-69.81 207.27, -65.82 198.37, -58.83 190.14 C-51.85 181.9, -39.2 172.16, -29.37 166.68 C-19.53 161.2, -5 161.85, 0.18 157.24 C5.36 152.64, 2.88 148.92, 1.7 139.03 C0.52 129.14, -4.03 112.88, -6.89 97.91 C-9.75 82.94, -12.14 59.53, -15.46 49.21 C-18.78 38.89, -22.13 36.11, -26.82 36 C-31.52 35.88, -34.26 41.79, -43.64 48.5 C-53.02 55.22, -68.67 66.24, -83.09 76.27 C-97.5 86.29, -117.67 99.26, -130.15 108.66 C-142.62 118.07, -151.36 124.31, -157.94 132.67 C-164.51 141.04, -167.75 147.69, -169.6 158.87 C-171.45 170.04, -170.34 184.13, -169.01 199.72 C-167.68 215.31, -163.64 236.53, -161.61 252.41 C-159.58 268.29, -157.6 284.12, -156.84 295 C-156.08 305.88, -154.13 309.46, -157.05 317.68 C-159.97 325.91, -166.34 335.49, -174.37 344.34 C-182.41 353.19, -195.01 365.68, -205.25 370.81 C-215.5 375.94, -227.48 377.05, -235.84 375.1 C-244.21 373.16, -252.18 366.53, -255.45 359.13 C-258.71 351.73, -258.56 339.19, -255.45 330.7 C-252.33 322.22, -244.19 314.99, -236.78 308.2 C-229.37 301.4, -219.35 294.98, -210.99 289.95 C-202.62 284.92, -191.16 282.81, -186.6 278.01 C-182.03 273.22, -182.85 273.55, -183.61 261.19 C-184.38 248.82, -187.74 221.8, -191.18 203.81 C-194.62 185.83, -200.09 165.58, -204.24 153.28 C-208.38 140.97, -210.72 134.27, -216.05 129.98 C-221.37 125.68, -233.01 130.13, -236.16 127.51 C-239.32 124.88, -239.21 120.13, -234.99 114.23 C-230.77 108.32, -224.96 102.76, -210.86 92.07 C-196.75 81.38, -171.28 64.05, -150.38 50.1 C-129.48 36.15, -104.58 22.04, -85.44 8.39 C-66.31 -5.26, -47.97 -19.24, -35.57 -31.8 C-23.18 -44.36, -16.77 -58.56, -11.1 -66.97 C-5.43 -75.38, -3.84 -82.7, -1.53 -82.26 C0.78 -81.82, 2.42 -75.31, 2.76 -64.3 C3.09 -53.3, 0.94 -26.97, 0.48 -16.25 C0.02 -5.53, 0.08 -2.71, 0 0" stroke="none" stroke-width="0" fill="#ffffff" fill-rule="evenodd"></path><path d="M0 0 C0.54 10.16, 0.27 40.08, 3.26 60.99 C6.26 81.9, 13.4 104.78, 17.97 125.48 C22.54 146.18, 28.6 171.75, 30.69 185.18 C32.78 198.61, 34.28 197.7, 30.52 206.06 C26.76 214.42, 16.92 227.49, 8.13 235.34 C-0.66 243.18, -12.78 250.01, -22.22 253.13 C-31.67 256.25, -40.96 255.71, -48.53 254.05 C-56.1 252.39, -63.86 249.51, -67.65 243.18 C-71.44 236.86, -72.75 224.95, -71.28 216.11 C-69.81 207.27, -65.82 198.37, -58.83 190.14 C-51.85 181.9, -39.2 172.16, -29.37 166.68 C-19.53 161.2, -5 161.85, 0.18 157.24 C5.36 152.64, 2.88 148.92, 1.7 139.03 C0.52 129.14, -4.03 112.88, -6.89 97.91 C-9.75 82.94, -12.14 59.53, -15.46 49.21 C-18.78 38.89, -22.13 36.11, -26.82 36 C-31.52 35.88, -34.26 41.79, -43.64 48.5 C-53.02 55.22, -68.67 66.24, -83.09 76.27 C-97.5 86.29, -117.67 99.26, -130.15 108.66 C-142.62 118.07, -151.36 124.31, -157.94 132.67 C-164.51 141.04, -167.75 147.69, -169.6 158.87 C-171.45 170.04, -170.34 184.13, -169.01 199.72 C-167.68 215.31, -163.64 236.53, -161.61 252.41 C-159.58 268.29, -157.6 284.12, -156.84 295 C-156.08 305.88, -154.13 309.46, -157.05 317.68 C-159.97 325.91, -166.34 335.49, -174.37 344.34 C-182.41 353.19, -195.01 365.68, -205.25 370.81 C-215.5 375.94, -227.48 377.05, -235.84 375.1 C-244.21 373.16, -252.18 366.53, -255.45 359.13 C-258.71 351.73, -258.56 339.19, -255.45 330.7 C-252.33 322.22, -244.19 314.99, -236.78 308.2 C-229.37 301.4, -219.35 294.98, -210.99 289.95 C-202.62 284.92, -191.16 282.81, -186.6 278.01 C-182.03 273.22, -182.85 273.55, -183.61 261.19 C-184.38 248.82, -187.74 221.8, -191.18 203.81 C-194.62 185.83, -200.09 165.58, -204.24 153.28 C-208.38 140.97, -210.72 134.27, -216.05 129.98 C-221.37 125.68, -233.01 130.13, -236.16 127.51 C-239.32 124.88, -239.21 120.13, -234.99 114.23 C-230.77 108.32, -224.96 102.76, -210.86 92.07 C-196.75 81.38, -171.28 64.05, -150.38 50.1 C-129.48 36.15, -104.58 22.04, -85.44 8.39 C-66.31 -5.26, -47.97 -19.24, -35.57 -31.8 C-23.18 -44.36, -16.77 -58.56, -11.1 -66.97 C-5.43 -75.38, -3.84 -82.7, -1.53 -82.26 C0.78 -81.82, 2.42 -75.31, 2.76 -64.3 C3.09 -53.3, 0.94 -26.97, 0.48 -16.25 C0.02 -5.53, 0.08 -2.71, 0 0 M0 0 C0.54 10.16, 0.27 40.08, 3.26 60.99 C6.26 81.9, 13.4 104.78, 17.97 125.48 C22.54 146.18, 28.6 171.75, 30.69 185.18 C32.78 198.61, 34.28 197.7, 30.52 206.06 C26.76 214.42, 16.92 227.49, 8.13 235.34 C-0.66 243.18, -12.78 250.01, -22.22 253.13 C-31.67 256.25, -40.96 255.71, -48.53 254.05 C-56.1 252.39, -63.86 249.51, -67.65 243.18 C-71.44 236.86, -72.75 224.95, -71.28 216.11 C-69.81 207.27, -65.82 198.37, -58.83 190.14 C-51.85 181.9, -39.2 172.16, -29.37 166.68 C-19.53 161.2, -5 161.85, 0.18 157.24 C5.36 152.64, 2.88 148.92, 1.7 139.03 C0.52 129.14, -4.03 112.88, -6.89 97.91 C-9.75 82.94, -12.14 59.53, -15.46 49.21 C-18.78 38.89, -22.13 36.11, -26.82 36 C-31.52 35.88, -34.26 41.79, -43.64 48.5 C-53.02 55.22, -68.67 66.24, -83.09 76.27 C-97.5 86.29, -117.67 99.26, -130.15 108.66 C-142.62 118.07, -151.36 124.31, -157.94 132.67 C-164.51 141.04, -167.75 147.69, -169.6 158.87 C-171.45 170.04, -170.34 184.13, -169.01 199.72 C-167.68 215.31, -163.64 236.53, -161.61 252.41 C-159.58 268.29, -157.6 284.12, -156.84 295 C-156.08 305.88, -154.13 309.46, -157.05 317.68 C-159.97 325.91, -166.34 335.49, -174.37 344.34 C-182.41 353.19, -195.01 365.68, -205.25 370.81 C-215.5 375.94, -227.48 377.05, -235.84 375.1 C-244.21 373.16, -252.18 366.53, -255.45 359.13 C-258.71 351.73, -258.56 339.19, -255.45 330.7 C-252.33 322.22, -244.19 314.99, -236.78 308.2 C-229.37 301.4, -219.35 294.98, -210.99 289.95 C-202.62 284.92, -191.16 282.81, -186.6 278.01 C-182.03 273.22, -182.85 273.55, -183.61 261.19 C-184.38 248.82, -187.74 221.8, -191.18 203.81 C-194.62 185.83, -200.09 165.58, -204.24 153.28 C-208.38 140.97, -210.72 134.27, -216.05 129.98 C-221.37 125.68, -233.01 130.13, -236.16 127.51 C-239.32 124.88, -239.21 120.13, -234.99 114.23 C-230.77 108.32, -224.96 102.76, -210.86 92.07 C-196.75 81.38, -171.28 64.05, -150.38 50.1 C-129.48 36.15, -104.58 22.04, -85.44 8.39 C-66.31 -5.26, -47.97 -19.24, -35.57 -31.8 C-23.18 -44.36, -16.77 -58.56, -11.1 -66.97 C-5.43 -75.38, -3.84 -82.7, -1.53 -82.26 C0.78 -81.82, 2.42 -75.31, 2.76 -64.3 C3.09 -53.3, 0.94 -26.97, 0.48 -16.25 C0.02 -5.53, 0.08 -2.71, 0 0" stroke="#FFFFFF" stroke-width="4" fill="none"></path></g></g><mask></mask></svg>