<svg version="1.1" xmlns="http://www.w3.org/2000/svg" viewBox="0 0 717.070707650978 542.7203973429317" width="717.070707650978" height="542.7203973429317" class="excalidraw-svg"><!-- svg-source:excalidraw --><metadata></metadata><defs><style class="style-fonts">
      </style></defs><rect x="0" y="0" width="717.070707650978" height="542.7203973429317" fill="#000000"></rect><g stroke-linecap="round"><g transform="translate(402.6622656105103 379.2915250402815) rotate(0 -65.9867087246435 61.65455918433992)"><path d="M0 0 C-8.3 -4.97, -40.86 -28.88, -49.8 -29.84 C-58.73 -30.81, -53.19 -22.77, -53.6 -5.8 C-54.01 11.17, -52.49 49.71, -52.23 72 C-51.97 94.28, -49.68 115.07, -52.03 127.91 C-54.38 140.75, -59.08 144.84, -66.34 149.04 C-73.6 153.25, -86.97 153.92, -95.59 153.15 C-104.2 152.38, -112.21 149.33, -118.02 144.41 C-123.82 139.49, -128.07 131.24, -130.4 123.65 C-132.73 116.05, -133.68 106.51, -131.97 98.86 C-130.27 91.21, -125.94 83.19, -120.19 77.76 C-114.45 72.32, -105.35 67.82, -97.5 66.27 C-89.64 64.73, -80.45 65.69, -73.08 68.46 C-65.7 71.24, -56.54 80.5, -53.24 82.91 M0 0 C-8.3 -4.97, -40.86 -28.88, -49.8 -29.84 C-58.73 -30.81, -53.19 -22.77, -53.6 -5.8 C-54.01 11.17, -52.49 49.71, -52.23 72 C-51.97 94.28, -49.68 115.07, -52.03 127.91 C-54.38 140.75, -59.08 144.84, -66.34 149.04 C-73.6 153.25, -86.97 153.92, -95.59 153.15 C-104.2 152.38, -112.21 149.33, -118.02 144.41 C-123.82 139.49, -128.07 131.24, -130.4 123.65 C-132.73 116.05, -133.68 106.51, -131.97 98.86 C-130.27 91.21, -125.94 83.19, -120.19 77.76 C-114.45 72.32, -105.35 67.82, -97.5 66.27 C-89.64 64.73, -80.45 65.69, -73.08 68.46 C-65.7 71.24, -56.54 80.5, -53.24 82.91" stroke="#E1E1E1" stroke-width="4" fill="none"></path></g></g><mask></mask><g stroke-linecap="round"><g transform="translate(532.1197653754336 156.60918108712067) rotate(0 -65.98670872464352 61.65455918433992)"><path d="M0 0 C-8.3 -4.97, -40.86 -28.88, -49.8 -29.84 C-58.73 -30.81, -53.19 -22.77, -53.6 -5.8 C-54.01 11.17, -52.49 49.71, -52.23 72 C-51.97 94.28, -49.68 115.07, -52.03 127.91 C-54.38 140.75, -59.08 144.84, -66.34 149.04 C-73.6 153.25, -86.97 153.92, -95.59 153.15 C-104.2 152.38, -112.21 149.33, -118.02 144.41 C-123.82 139.49, -128.07 131.24, -130.4 123.65 C-132.73 116.05, -133.68 106.51, -131.97 98.86 C-130.27 91.21, -125.94 83.19, -120.19 77.76 C-114.45 72.32, -105.35 67.82, -97.5 66.27 C-89.64 64.73, -80.45 65.69, -73.08 68.46 C-65.7 71.24, -56.54 80.5, -53.24 82.91 M0 0 C-8.3 -4.97, -40.86 -28.88, -49.8 -29.84 C-58.73 -30.81, -53.19 -22.77, -53.6 -5.8 C-54.01 11.17, -52.49 49.71, -52.23 72 C-51.97 94.28, -49.68 115.07, -52.03 127.91 C-54.38 140.75, -59.08 144.84, -66.34 149.04 C-73.6 153.25, -86.97 153.92, -95.59 153.15 C-104.2 152.38, -112.21 149.33, -118.02 144.41 C-123.82 139.49, -128.07 131.24, -130.4 123.65 C-132.73 116.05, -133.68 106.51, -131.97 98.86 C-130.27 91.21, -125.94 83.19, -120.19 77.76 C-114.45 72.32, -105.35 67.82, -97.5 66.27 C-89.64 64.73, -80.45 65.69, -73.08 68.46 C-65.7 71.24, -56.54 80.5, -53.24 82.91" stroke="#E1E1E1" stroke-width="4" fill="none"></path></g></g><mask></mask><g stroke-linecap="round"><g transform="translate(402.3937010340853 39.919447177874105) rotate(0 -65.9867087246435 61.65455918433992)"><path d="M0 0 C-8.3 -4.97, -40.86 -28.88, -49.8 -29.84 C-58.73 -30.81, -53.19 -22.77, -53.6 -5.8 C-54.01 11.17, -52.49 49.71, -52.23 72 C-51.97 94.28, -49.68 115.07, -52.03 127.91 C-54.38 140.75, -59.08 144.84, -66.34 149.04 C-73.6 153.25, -86.97 153.92, -95.59 153.15 C-104.2 152.38, -112.21 149.33, -118.02 144.41 C-123.82 139.49, -128.07 131.24, -130.4 123.65 C-132.73 116.05, -133.68 106.51, -131.97 98.86 C-130.27 91.21, -125.94 83.19, -120.19 77.76 C-114.45 72.32, -105.35 67.82, -97.5 66.27 C-89.64 64.73, -80.45 65.69, -73.08 68.46 C-65.7 71.24, -56.54 80.5, -53.24 82.91 M0 0 C-8.3 -4.97, -40.86 -28.88, -49.8 -29.84 C-58.73 -30.81, -53.19 -22.77, -53.6 -5.8 C-54.01 11.17, -52.49 49.71, -52.23 72 C-51.97 94.28, -49.68 115.07, -52.03 127.91 C-54.38 140.75, -59.08 144.84, -66.34 149.04 C-73.6 153.25, -86.97 153.92, -95.59 153.15 C-104.2 152.38, -112.21 149.33, -118.02 144.41 C-123.82 139.49, -128.07 131.24, -130.4 123.65 C-132.73 116.05, -133.68 106.51, -131.97 98.86 C-130.27 91.21, -125.94 83.19, -120.19 77.76 C-114.45 72.32, -105.35 67.82, -97.5 66.27 C-89.64 64.73, -80.45 65.69, -73.08 68.46 C-65.7 71.24, -56.54 80.5, -53.24 82.91" stroke="#E1E1E1" stroke-width="4" fill="none"></path></g></g><mask></mask><g stroke-linecap="round"><g transform="translate(209.41576390359864 204.42539882477504) rotate(0 -99.27411292017928 41.38100332335283)"><path d="M0 0 C-18.33 -7.69, -89.95 -41.13, -109.98 -46.13 C-130 -51.14, -118.7 -45.7, -120.17 -30.05 C-121.65 -14.41, -119.07 25.46, -118.81 47.74 C-118.55 70.03, -116.26 90.81, -118.61 103.65 C-120.96 116.49, -125.65 120.58, -132.91 124.79 C-140.17 129, -153.55 129.67, -162.16 128.9 C-170.77 128.12, -178.79 125.07, -184.59 120.16 C-190.39 115.24, -194.65 106.98, -196.98 99.39 C-199.3 91.8, -200.25 82.25, -198.55 74.6 C-196.85 66.96, -192.51 58.93, -186.77 53.5 C-181.02 48.07, -171.92 43.57, -164.07 42.02 C-156.22 40.47, -147.03 41.44, -139.65 44.21 C-132.27 46.98, -123.12 56.25, -119.81 58.66 M0 0 C-18.33 -7.69, -89.95 -41.13, -109.98 -46.13 C-130 -51.14, -118.7 -45.7, -120.17 -30.05 C-121.65 -14.41, -119.07 25.46, -118.81 47.74 C-118.55 70.03, -116.26 90.81, -118.61 103.65 C-120.96 116.49, -125.65 120.58, -132.91 124.79 C-140.17 129, -153.55 129.67, -162.16 128.9 C-170.77 128.12, -178.79 125.07, -184.59 120.16 C-190.39 115.24, -194.65 106.98, -196.98 99.39 C-199.3 91.8, -200.25 82.25, -198.55 74.6 C-196.85 66.96, -192.51 58.93, -186.77 53.5 C-181.02 48.07, -171.92 43.57, -164.07 42.02 C-156.22 40.47, -147.03 41.44, -139.65 44.21 C-132.27 46.98, -123.12 56.25, -119.81 58.66" stroke="#E1E1E1" stroke-width="4" fill="none"></path></g></g><mask></mask><g stroke-linecap="round"><g transform="translate(209.96012680111767 205.6715091789587) rotate(0 -37.4434953953203 90.70831639015503)"><path d="M0 0 C-0.12 0, -0.87 -3.75, -0.71 -0.01 C-0.55 3.74, 0.49 5.73, 0.96 22.47 C1.43 39.21, 1.86 78.15, 2.12 100.43 C2.39 122.72, 4.84 143.37, 2.53 156.18 C0.21 169, -4.52 173.11, -11.78 177.32 C-19.03 181.52, -32.41 182.2, -41.02 181.42 C-49.64 180.65, -57.65 177.6, -63.46 172.68 C-69.26 167.76, -73.51 159.51, -75.84 151.92 C-78.17 144.33, -79.11 134.78, -77.41 127.13 C-75.71 119.48, -71.38 111.46, -65.63 106.03 C-59.88 100.6, -50.79 96.1, -42.94 94.55 C-35.08 93, -25.89 93.96, -18.52 96.74 C-11.14 99.51, -1.98 108.78, 1.32 111.19 M0 0 C-0.12 0, -0.87 -3.75, -0.71 -0.01 C-0.55 3.74, 0.49 5.73, 0.96 22.47 C1.43 39.21, 1.86 78.15, 2.12 100.43 C2.39 122.72, 4.84 143.37, 2.53 156.18 C0.21 169, -4.52 173.11, -11.78 177.32 C-19.03 181.52, -32.41 182.2, -41.02 181.42 C-49.64 180.65, -57.65 177.6, -63.46 172.68 C-69.26 167.76, -73.51 159.51, -75.84 151.92 C-78.17 144.33, -79.11 134.78, -77.41 127.13 C-75.71 119.48, -71.38 111.46, -65.63 106.03 C-59.88 100.6, -50.79 96.1, -42.94 94.55 C-35.08 93, -25.89 93.96, -18.52 96.74 C-11.14 99.51, -1.98 108.78, 1.32 111.19" stroke="#E1E1E1" stroke-width="4" fill="none"></path></g></g><mask></mask><g stroke-linecap="round"><g transform="translate(703.0141139933442 331.4174546784192) rotate(0 -99.27411292017925 41.38100332335283)"><path d="M0 0 C-18.33 -7.69, -89.95 -41.13, -109.98 -46.13 C-130 -51.14, -118.7 -45.7, -120.17 -30.05 C-121.65 -14.41, -119.07 25.46, -118.81 47.74 C-118.55 70.03, -116.26 90.81, -118.61 103.65 C-120.96 116.49, -125.65 120.58, -132.91 124.79 C-140.17 129, -153.55 129.67, -162.16 128.9 C-170.77 128.12, -178.79 125.07, -184.59 120.16 C-190.39 115.24, -194.65 106.98, -196.98 99.39 C-199.3 91.8, -200.25 82.25, -198.55 74.6 C-196.85 66.96, -192.51 58.93, -186.77 53.5 C-181.02 48.07, -171.92 43.57, -164.07 42.02 C-156.22 40.47, -147.03 41.44, -139.65 44.21 C-132.27 46.98, -123.12 56.25, -119.81 58.66 M0 0 C-18.33 -7.69, -89.95 -41.13, -109.98 -46.13 C-130 -51.14, -118.7 -45.7, -120.17 -30.05 C-121.65 -14.41, -119.07 25.46, -118.81 47.74 C-118.55 70.03, -116.26 90.81, -118.61 103.65 C-120.96 116.49, -125.65 120.58, -132.91 124.79 C-140.17 129, -153.55 129.67, -162.16 128.9 C-170.77 128.12, -178.79 125.07, -184.59 120.16 C-190.39 115.24, -194.65 106.98, -196.98 99.39 C-199.3 91.8, -200.25 82.25, -198.55 74.6 C-196.85 66.96, -192.51 58.93, -186.77 53.5 C-181.02 48.07, -171.92 43.57, -164.07 42.02 C-156.22 40.47, -147.03 41.44, -139.65 44.21 C-132.27 46.98, -123.12 56.25, -119.81 58.66" stroke="#E1E1E1" stroke-width="4" fill="none"></path></g></g><mask></mask><g stroke-linecap="round"><g transform="translate(703.5584768908632 332.66356503260374) rotate(0 -37.4434953953203 90.70831639015503)"><path d="M0 0 C-0.12 0, -0.87 -3.75, -0.71 -0.01 C-0.55 3.74, 0.49 5.73, 0.96 22.47 C1.43 39.21, 1.86 78.15, 2.12 100.43 C2.39 122.72, 4.84 143.37, 2.53 156.18 C0.21 169, -4.52 173.11, -11.78 177.32 C-19.03 181.52, -32.41 182.2, -41.02 181.42 C-49.64 180.65, -57.65 177.6, -63.46 172.68 C-69.26 167.76, -73.51 159.51, -75.84 151.92 C-78.17 144.33, -79.11 134.78, -77.41 127.13 C-75.71 119.48, -71.38 111.46, -65.63 106.03 C-59.88 100.6, -50.79 96.1, -42.94 94.55 C-35.08 93, -25.89 93.96, -18.52 96.74 C-11.14 99.51, -1.98 108.78, 1.32 111.19 M0 0 C-0.12 0, -0.87 -3.75, -0.71 -0.01 C-0.55 3.74, 0.49 5.73, 0.96 22.47 C1.43 39.21, 1.86 78.15, 2.12 100.43 C2.39 122.72, 4.84 143.37, 2.53 156.18 C0.21 169, -4.52 173.11, -11.78 177.32 C-19.03 181.52, -32.41 182.2, -41.02 181.42 C-49.64 180.65, -57.65 177.6, -63.46 172.68 C-69.26 167.76, -73.51 159.51, -75.84 151.92 C-78.17 144.33, -79.11 134.78, -77.41 127.13 C-75.71 119.48, -71.38 111.46, -65.63 106.03 C-59.88 100.6, -50.79 96.1, -42.94 94.55 C-35.08 93, -25.89 93.96, -18.52 96.74 C-11.14 99.51, -1.98 108.78, 1.32 111.19" stroke="#E1E1E1" stroke-width="4" fill="none"></path></g></g><mask></mask></svg>