<svg version="1.1" xmlns="http://www.w3.org/2000/svg" viewBox="0 0 534.1774968051158 541.1836229885126" width="534.1774968051158" height="541.1836229885126" class="excalidraw-svg"><!-- svg-source:excalidraw --><metadata></metadata><defs><style class="style-fonts">
      </style></defs><rect x="0" y="0" width="534.1774968051158" height="541.1836229885126" fill="#000000"></rect><g stroke-linecap="round"><g transform="translate(434.95547634059085 287.53404240883077) rotate(349.5951462841392 -22.859101688980317 71.41083389329097)"><path d="M0 0 C-0.8 0, -2.69 -0.08, -4.77 0 C-6.85 0.09, -9.55 0.09, -12.48 0.51 C-15.42 0.93, -18.69 1.51, -22.39 2.54 C-26.1 3.56, -30.58 4.97, -34.71 6.67 C-38.84 8.37, -43.47 10.66, -47.17 12.74 C-50.87 14.81, -53.44 16.55, -56.91 19.1 C-60.38 21.64, -64.56 24.71, -67.98 27.99 C-71.4 31.27, -74.28 34.66, -77.44 38.76 C-80.6 42.87, -84.36 47.89, -86.97 52.62 C-89.57 57.35, -91.39 62.06, -93.08 67.14 C-94.77 72.23, -96.45 77.84, -97.1 83.13 C-97.76 88.43, -97.68 93.92, -97.01 98.89 C-96.35 103.87, -94.96 108.78, -93.12 112.98 C-91.28 117.19, -88.92 120.59, -85.96 124.14 C-83 127.69, -79.57 131.48, -75.36 134.28 C-71.15 137.08, -65.35 139.52, -60.73 140.94 C-56.1 142.37, -52.83 142.62, -47.58 142.82 C-42.34 143.02, -34.86 142.97, -29.27 142.15 C-23.68 141.33, -18.84 139.64, -14.04 137.91 C-9.23 136.19, -4.96 134.3, -0.45 131.79 C4.07 129.28, 8.64 126.28, 13.03 122.85 C17.42 119.43, 21.97 115.42, 25.89 111.26 C29.81 107.11, 33.24 103.04, 36.56 97.93 C39.89 92.81, 43.61 85.95, 45.85 80.58 C48.09 75.21, 49.07 70.18, 49.99 65.72 C50.91 61.27, 51.24 57.91, 51.39 53.85 C51.53 49.78, 51.66 45.62, 50.85 41.32 C50.04 37.03, 48.42 32.07, 46.52 28.06 C44.63 24.06, 42.23 20.45, 39.48 17.3 C36.73 14.15, 33.43 11.45, 30.01 9.17 C26.59 6.89, 22.62 5.01, 18.96 3.64 C15.3 2.26, 11.22 1.53, 8.06 0.92 C4.9 0.32, 1.34 0.15, 0 0 M0 0 C-0.8 0, -2.69 -0.08, -4.77 0 C-6.85 0.09, -9.55 0.09, -12.48 0.51 C-15.42 0.93, -18.69 1.51, -22.39 2.54 C-26.1 3.56, -30.58 4.97, -34.71 6.67 C-38.84 8.37, -43.47 10.66, -47.17 12.74 C-50.87 14.81, -53.44 16.55, -56.91 19.1 C-60.38 21.64, -64.56 24.71, -67.98 27.99 C-71.4 31.27, -74.28 34.66, -77.44 38.76 C-80.6 42.87, -84.36 47.89, -86.97 52.62 C-89.57 57.35, -91.39 62.06, -93.08 67.14 C-94.77 72.23, -96.45 77.84, -97.1 83.13 C-97.76 88.43, -97.68 93.92, -97.01 98.89 C-96.35 103.87, -94.96 108.78, -93.12 112.98 C-91.28 117.19, -88.92 120.59, -85.96 124.14 C-83 127.69, -79.57 131.48, -75.36 134.28 C-71.15 137.08, -65.35 139.52, -60.73 140.94 C-56.1 142.37, -52.83 142.62, -47.58 142.82 C-42.34 143.02, -34.86 142.97, -29.27 142.15 C-23.68 141.33, -18.84 139.64, -14.04 137.91 C-9.23 136.19, -4.96 134.3, -0.45 131.79 C4.07 129.28, 8.64 126.28, 13.03 122.85 C17.42 119.43, 21.97 115.42, 25.89 111.26 C29.81 107.11, 33.24 103.04, 36.56 97.93 C39.89 92.81, 43.61 85.95, 45.85 80.58 C48.09 75.21, 49.07 70.18, 49.99 65.72 C50.91 61.27, 51.24 57.91, 51.39 53.85 C51.53 49.78, 51.66 45.62, 50.85 41.32 C50.04 37.03, 48.42 32.07, 46.52 28.06 C44.63 24.06, 42.23 20.45, 39.48 17.3 C36.73 14.15, 33.43 11.45, 30.01 9.17 C26.59 6.89, 22.62 5.01, 18.96 3.64 C15.3 2.26, 11.22 1.53, 8.06 0.92 C4.9 0.32, 1.34 0.15, 0 0" stroke="#E1E1E1" stroke-width="4" fill="none"></path></g></g><mask></mask><g stroke-linecap="round"><g transform="translate(465.6691567424341 297.2406541795253) rotate(349.5951462841392 -5.214837145285699 4.300301088116285)"><path d="M0 0 C-1.74 1.43, -8.69 7.17, -10.43 8.6 M0 0 C-1.74 1.43, -8.69 7.17, -10.43 8.6" stroke="#E1E1E1" stroke-width="4" fill="none"></path></g></g><mask></mask><g stroke-linecap="round"><g transform="translate(366.5070298035366 317.1374596966497) rotate(349.5951462841392 3.1911189133803504 4.312996656365563)"><path d="M0 0 C1.06 1.44, 5.32 7.19, 6.38 8.63 M0 0 C1.06 1.44, 5.32 7.19, 6.38 8.63" stroke="#E1E1E1" stroke-width="4" fill="none"></path></g></g><mask></mask><g stroke-linecap="round"><g transform="translate(358.4429303643533 420.82657875114177) rotate(349.5951462841392 5.195336647291782 -4.412910338708155)"><path d="M0 0 C1.73 -1.47, 8.66 -7.35, 10.39 -8.83 M0 0 C1.73 -1.47, 8.66 -7.35, 10.39 -8.83" stroke="#E1E1E1" stroke-width="4" fill="none"></path></g></g><mask></mask><g stroke-linecap="round"><g transform="translate(402.6839013852996 348.6228204319113) rotate(349.5951462841392 9.442546529164105 10.575842473502064)"><path d="M0 0 C0.85 -0.58, 3.16 -2.58, 5.07 -3.49 C6.99 -4.4, 9.26 -5.18, 11.5 -5.46 C13.75 -5.74, 16.64 -5.68, 18.56 -5.18 C20.48 -4.68, 21.88 -3.64, 23.03 -2.43 C24.18 -1.21, 24.9 0.61, 25.47 2.11 C26.04 3.61, 26.48 4.82, 26.44 6.55 C26.4 8.28, 26.04 10.52, 25.22 12.47 C24.39 14.42, 22.96 16.58, 21.48 18.27 C20.01 19.97, 18.11 21.43, 16.37 22.65 C14.62 23.86, 12.87 24.89, 11.02 25.55 C9.17 26.21, 7.17 26.56, 5.28 26.61 C3.38 26.66, 1.26 26.39, -0.34 25.84 C-1.95 25.29, -3.3 24.39, -4.37 23.29 C-5.44 22.19, -6.23 20.82, -6.76 19.24 C-7.29 17.65, -7.62 15.61, -7.56 13.77 C-7.49 11.94, -6.94 9.83, -6.37 8.24 C-5.81 6.65, -5.23 5.63, -4.16 4.26 C-3.1 2.89, -0.69 0.71, 0 0 M0 0 C0.85 -0.58, 3.16 -2.58, 5.07 -3.49 C6.99 -4.4, 9.26 -5.18, 11.5 -5.46 C13.75 -5.74, 16.64 -5.68, 18.56 -5.18 C20.48 -4.68, 21.88 -3.64, 23.03 -2.43 C24.18 -1.21, 24.9 0.61, 25.47 2.11 C26.04 3.61, 26.48 4.82, 26.44 6.55 C26.4 8.28, 26.04 10.52, 25.22 12.47 C24.39 14.42, 22.96 16.58, 21.48 18.27 C20.01 19.97, 18.11 21.43, 16.37 22.65 C14.62 23.86, 12.87 24.89, 11.02 25.55 C9.17 26.21, 7.17 26.56, 5.28 26.61 C3.38 26.66, 1.26 26.39, -0.34 25.84 C-1.95 25.29, -3.3 24.39, -4.37 23.29 C-5.44 22.19, -6.23 20.82, -6.76 19.24 C-7.29 17.65, -7.62 15.61, -7.56 13.77 C-7.49 11.94, -6.94 9.83, -6.37 8.24 C-5.81 6.65, -5.23 5.63, -4.16 4.26 C-3.1 2.89, -0.69 0.71, 0 0" stroke="#E1E1E1" stroke-width="4" fill="none"></path></g></g><mask></mask><g stroke-linecap="round"><g transform="translate(417.1423531302885 343.8898401170199) rotate(349.5951462841392 -7.715249532220881 -20.565171545770454)"><path d="M0 0 C0.47 -13, 0.95 -25.99, 1.55 -42.66 M0 0 C0.42 -11.46, 0.83 -22.92, 1.55 -42.66 M1.55 -42.66 C-4.64 -27.9, -10.83 -13.13, -16.98 1.53 M1.55 -42.66 C-4.64 -27.89, -10.84 -13.12, -16.98 1.53" stroke="#E1E1E1" stroke-width="4" fill="none"></path></g></g><mask></mask><g stroke-linecap="round"><g transform="translate(399.5068861606446 358.7989203899678) rotate(349.5951462841392 -22.842590904836044 7.97665399425053)"><path d="M0 0 C-14.05 3.55, -28.11 7.09, -45.69 11.53 M0 0 C-16.53 4.17, -33.05 8.34, -45.69 11.53 M-45.69 11.53 C-36.7 12.46, -27.71 13.38, -2.71 15.95 M-45.69 11.53 C-32.35 12.9, -19.01 14.28, -2.71 15.95" stroke="#E1E1E1" stroke-width="4" fill="none"></path></g></g><mask></mask><g stroke-linecap="round"><g transform="translate(406.70875836706864 374.08555537212936) rotate(349.5951462841392 7.797781208237694 20.410018493415787)"><path d="M0 0 C-0.31 9.18, -0.61 18.36, -1.42 42.41 M0 0 C-0.54 16.09, -1.08 32.17, -1.42 42.41 M-1.42 42.41 C5.83 25.11, 13.08 7.8, 17.01 -1.59 M-1.42 42.41 C4.78 27.61, 10.98 12.81, 17.01 -1.59" stroke="#E1E1E1" stroke-width="4" fill="none"></path></g></g><mask></mask><g stroke-linecap="round"><g transform="translate(426.8636290848126 343.0635688218653) rotate(349.5951462841392 20.348932056048767 8.223274238726503)"><path d="M0 0 C13.34 1.43, 26.67 2.86, 43.07 4.61 M0 0 C15.21 1.63, 30.42 3.26, 43.07 4.61 M43.07 4.61 C27.37 8.7, 11.68 12.79, -2.37 16.45 M43.07 4.61 C31.74 7.56, 20.41 10.51, -2.37 16.45" stroke="#E1E1E1" stroke-width="4" fill="none"></path></g></g><mask></mask><g stroke-linecap="round"><g transform="translate(420.39727793730844 315.78239311336705) rotate(349.5951462841392 13.718129251019121 15.747628654175628)"><path d="M0 0 C0.92 0.11, 3.56 0.16, 5.5 0.64 C7.44 1.11, 9.69 1.92, 11.66 2.85 C13.63 3.77, 15.7 4.92, 17.32 6.18 C18.95 7.44, 20.17 8.81, 21.4 10.42 C22.63 12.03, 23.8 13.87, 24.71 15.82 C25.62 17.77, 26.41 20.32, 26.86 22.14 C27.32 23.97, 27.38 25.22, 27.44 26.78 C27.5 28.33, 27.25 30.71, 27.22 31.5 M0 0 C0.92 0.11, 3.56 0.16, 5.5 0.64 C7.44 1.11, 9.69 1.92, 11.66 2.85 C13.63 3.77, 15.7 4.92, 17.32 6.18 C18.95 7.44, 20.17 8.81, 21.4 10.42 C22.63 12.03, 23.8 13.87, 24.71 15.82 C25.62 17.77, 26.41 20.32, 26.86 22.14 C27.32 23.97, 27.38 25.22, 27.44 26.78 C27.5 28.33, 27.25 30.71, 27.22 31.5" stroke="#E1E1E1" stroke-width="4" fill="none"></path></g></g><mask></mask><g stroke-linecap="round"><g transform="translate(413.2811314306118 324.25333478083934) rotate(349.5951462841392 -21.437115453610858 18.544282730859905)"><path d="M0 0 C-0.72 0.14, -2.61 0.37, -4.33 0.83 C-6.05 1.28, -7.94 1.78, -10.31 2.76 C-12.68 3.73, -15.98 5.2, -18.55 6.67 C-21.12 8.15, -23.22 9.46, -25.7 11.62 C-28.19 13.78, -31.38 17.16, -33.46 19.65 C-35.53 22.14, -36.89 24.66, -38.13 26.59 C-39.37 28.52, -40.11 29.49, -40.9 31.24 C-41.69 32.99, -42.55 36.11, -42.87 37.09 M0 0 C-0.72 0.14, -2.61 0.37, -4.33 0.83 C-6.05 1.28, -7.94 1.78, -10.31 2.76 C-12.68 3.73, -15.98 5.2, -18.55 6.67 C-21.12 8.15, -23.22 9.46, -25.7 11.62 C-28.19 13.78, -31.38 17.16, -33.46 19.65 C-35.53 22.14, -36.89 24.66, -38.13 26.59 C-39.37 28.52, -40.11 29.49, -40.9 31.24 C-41.69 32.99, -42.55 36.11, -42.87 37.09" stroke="#E1E1E1" stroke-width="4" fill="none"></path></g></g><mask></mask><g stroke-linecap="round"><g transform="translate(376.3902747878087 370.8952175657277) rotate(349.5951462841392 13.309857397021986 15.46331677813303)"><path d="M0 0 C0 0.85, -0.2 3.03, 0 5.07 C0.2 7.12, 0.47 10, 1.18 12.28 C1.88 14.57, 2.95 16.8, 4.22 18.8 C5.49 20.8, 7.04 22.65, 8.82 24.28 C10.59 25.91, 13.02 27.54, 14.87 28.57 C16.73 29.59, 17.99 30.03, 19.94 30.42 C21.9 30.82, 25.51 30.84, 26.62 30.93 M0 0 C0 0.85, -0.2 3.03, 0 5.07 C0.2 7.12, 0.47 10, 1.18 12.28 C1.88 14.57, 2.95 16.8, 4.22 18.8 C5.49 20.8, 7.04 22.65, 8.82 24.28 C10.59 25.91, 13.02 27.54, 14.87 28.57 C16.73 29.59, 17.99 30.03, 19.94 30.42 C21.9 30.82, 25.51 30.84, 26.62 30.93" stroke="#E1E1E1" stroke-width="4" fill="none"></path></g></g><mask></mask><g stroke-linecap="round"><g transform="translate(410.8582710536457 393.73568652712214) rotate(349.5951462841392 21.61241403318195 -18.560204195918217)"><path d="M0 0 C0.87 -0.11, 3.22 -0.18, 5.25 -0.65 C7.28 -1.12, 9.8 -1.78, 12.16 -2.84 C14.52 -3.9, 16.94 -5.44, 19.4 -7.03 C21.86 -8.63, 24.56 -10.31, 26.93 -12.41 C29.29 -14.51, 31.67 -17.27, 33.6 -19.62 C35.53 -21.97, 36.9 -23.58, 38.51 -26.49 C40.11 -29.41, 42.44 -35.35, 43.22 -37.12 M0 0 C0.87 -0.11, 3.22 -0.18, 5.25 -0.65 C7.28 -1.12, 9.8 -1.78, 12.16 -2.84 C14.52 -3.9, 16.94 -5.44, 19.4 -7.03 C21.86 -8.63, 24.56 -10.31, 26.93 -12.41 C29.29 -14.51, 31.67 -17.27, 33.6 -19.62 C35.53 -21.97, 36.9 -23.58, 38.51 -26.49 C40.11 -29.41, 42.44 -35.35, 43.22 -37.12" stroke="#E1E1E1" stroke-width="4" fill="none"></path></g></g><mask></mask><g stroke-linecap="round"><g transform="translate(441.1594793002823 268.0332364254454) rotate(349.5951462841392 -29.1383157053305 90.73611728796739)"><path d="M0 0 C-1.64 0.05, -6.39 0.03, -9.85 0.3 C-13.32 0.56, -16.45 0.76, -20.78 1.61 C-25.11 2.46, -30.55 3.62, -35.85 5.4 C-41.14 7.17, -47.31 9.69, -52.56 12.27 C-57.81 14.84, -62.75 17.83, -67.32 20.84 C-71.9 23.86, -75.88 26.82, -80 30.36 C-84.13 33.89, -88.18 37.75, -92.07 42.05 C-95.96 46.35, -100.27 51.86, -103.36 56.16 C-106.44 60.46, -108.31 63.53, -110.56 67.86 C-112.82 72.18, -115.29 78.21, -116.88 82.09 C-118.47 85.97, -119.2 87.75, -120.12 91.13 C-121.04 94.51, -121.84 98, -122.4 102.36 C-122.96 106.72, -123.54 112.33, -123.48 117.28 C-123.42 122.22, -123.1 127.31, -122.04 132.03 C-120.99 136.75, -119.56 140.96, -117.14 145.6 C-114.72 150.23, -111.09 155.72, -107.51 159.87 C-103.93 164.03, -100.04 167.59, -95.67 170.52 C-91.29 173.46, -86.46 175.7, -81.27 177.49 C-76.08 179.29, -70.8 180.61, -64.53 181.27 C-58.25 181.93, -50.35 182.11, -43.62 181.47 C-36.89 180.83, -30.7 179.44, -24.16 177.44 C-17.62 175.43, -10.63 172.57, -4.37 169.42 C1.88 166.26, 7.72 162.6, 13.36 158.51 C18.99 154.43, 24.42 149.93, 29.44 144.89 C34.45 139.86, 39.48 133.53, 43.45 128.31 C47.41 123.09, 50.25 119.54, 53.23 113.59 C56.22 107.64, 59.37 99.76, 61.37 92.63 C63.36 85.5, 64.68 77.05, 65.2 70.81 C65.72 64.58, 65.22 60.12, 64.5 55.21 C63.78 50.31, 62.64 45.92, 60.87 41.4 C59.09 36.88, 56.71 32.25, 53.85 28.1 C50.99 23.96, 47.34 19.73, 43.69 16.51 C40.03 13.28, 36.22 10.98, 31.93 8.75 C27.63 6.53, 21.81 4.44, 17.91 3.13 C14.01 1.82, 11.53 1.42, 8.55 0.9 C5.56 0.38, 1.42 0.15, 0 0 M0 0 C-1.64 0.05, -6.39 0.03, -9.85 0.3 C-13.32 0.56, -16.45 0.76, -20.78 1.61 C-25.11 2.46, -30.55 3.62, -35.85 5.4 C-41.14 7.17, -47.31 9.69, -52.56 12.27 C-57.81 14.84, -62.75 17.83, -67.32 20.84 C-71.9 23.86, -75.88 26.82, -80 30.36 C-84.13 33.89, -88.18 37.75, -92.07 42.05 C-95.96 46.35, -100.27 51.86, -103.36 56.16 C-106.44 60.46, -108.31 63.53, -110.56 67.86 C-112.82 72.18, -115.29 78.21, -116.88 82.09 C-118.47 85.97, -119.2 87.75, -120.12 91.13 C-121.04 94.51, -121.84 98, -122.4 102.36 C-122.96 106.72, -123.54 112.33, -123.48 117.28 C-123.42 122.22, -123.1 127.31, -122.04 132.03 C-120.99 136.75, -119.56 140.96, -117.14 145.6 C-114.72 150.23, -111.09 155.72, -107.51 159.87 C-103.93 164.03, -100.04 167.59, -95.67 170.52 C-91.29 173.46, -86.46 175.7, -81.27 177.49 C-76.08 179.29, -70.8 180.61, -64.53 181.27 C-58.25 181.93, -50.35 182.11, -43.62 181.47 C-36.89 180.83, -30.7 179.44, -24.16 177.44 C-17.62 175.43, -10.63 172.57, -4.37 169.42 C1.88 166.26, 7.72 162.6, 13.36 158.51 C18.99 154.43, 24.42 149.93, 29.44 144.89 C34.45 139.86, 39.48 133.53, 43.45 128.31 C47.41 123.09, 50.25 119.54, 53.23 113.59 C56.22 107.64, 59.37 99.76, 61.37 92.63 C63.36 85.5, 64.68 77.05, 65.2 70.81 C65.72 64.58, 65.22 60.12, 64.5 55.21 C63.78 50.31, 62.64 45.92, 60.87 41.4 C59.09 36.88, 56.71 32.25, 53.85 28.1 C50.99 23.96, 47.34 19.73, 43.69 16.51 C40.03 13.28, 36.22 10.98, 31.93 8.75 C27.63 6.53, 21.81 4.44, 17.91 3.13 C14.01 1.82, 11.53 1.42, 8.55 0.9 C5.56 0.38, 1.42 0.15, 0 0" stroke="#E1E1E1" stroke-width="4" fill="none"></path></g></g><mask></mask><g stroke-linecap="round"><g transform="translate(495.92502892593757 287.75045687585856) rotate(349.5951462841392 -54.8047058934786 86.63125345343629)"><path d="M0 0 C1.56 0.99, 6.71 3.92, 9.39 5.95 C12.07 7.98, 13.68 9.48, 16.07 12.19 C18.46 14.9, 21.57 18.58, 23.71 22.22 C25.85 25.86, 27.48 29.48, 28.94 34.01 C30.4 38.55, 31.85 43.91, 32.48 49.42 C33.1 54.94, 33.2 61.15, 32.7 67.11 C32.19 73.06, 31.29 79.02, 29.46 85.16 C27.62 91.3, 24.73 98.08, 21.68 103.95 C18.63 109.82, 14.68 115.59, 11.17 120.37 C7.65 125.14, 4.34 128.62, 0.6 132.6 C-3.13 136.57, -6.37 140.23, -11.26 144.21 C-16.15 148.18, -22.46 152.82, -28.72 156.46 C-34.99 160.09, -41.98 163.43, -48.86 165.99 C-55.75 168.56, -64 170.63, -70.04 171.84 C-76.08 173.06, -79.95 173.2, -85.11 173.26 C-90.28 173.33, -95.91 173.11, -101.03 172.24 C-106.15 171.37, -111.2 169.85, -115.83 168.03 C-120.46 166.22, -125.47 163.49, -128.81 161.36 C-132.16 159.23, -133.65 157.36, -135.9 155.26 C-138.15 153.16, -141.24 149.83, -142.3 148.74 M0 0 C1.56 0.99, 6.71 3.92, 9.39 5.95 C12.07 7.98, 13.68 9.48, 16.07 12.19 C18.46 14.9, 21.57 18.58, 23.71 22.22 C25.85 25.86, 27.48 29.48, 28.94 34.01 C30.4 38.55, 31.85 43.91, 32.48 49.42 C33.1 54.94, 33.2 61.15, 32.7 67.11 C32.19 73.06, 31.29 79.02, 29.46 85.16 C27.62 91.3, 24.73 98.08, 21.68 103.95 C18.63 109.82, 14.68 115.59, 11.17 120.37 C7.65 125.14, 4.34 128.62, 0.6 132.6 C-3.13 136.57, -6.37 140.23, -11.26 144.21 C-16.15 148.18, -22.46 152.82, -28.72 156.46 C-34.99 160.09, -41.98 163.43, -48.86 165.99 C-55.75 168.56, -64 170.63, -70.04 171.84 C-76.08 173.06, -79.95 173.2, -85.11 173.26 C-90.28 173.33, -95.91 173.11, -101.03 172.24 C-106.15 171.37, -111.2 169.85, -115.83 168.03 C-120.46 166.22, -125.47 163.49, -128.81 161.36 C-132.16 159.23, -133.65 157.36, -135.9 155.26 C-138.15 153.16, -141.24 149.83, -142.3 148.74" stroke="#E1E1E1" stroke-width="4" fill="none"></path></g></g><mask></mask><g stroke-linecap="round"><g transform="translate(457.97718128779707 400.44807311983) rotate(349.5951462841392 -3.6583895197956053 -4.410323237519581)"><path d="M0 0 C-1.22 -1.47, -6.1 -7.35, -7.32 -8.82 M0 0 C-1.22 -1.47, -6.1 -7.35, -7.32 -8.82" stroke="#E1E1E1" stroke-width="4" fill="none"></path></g></g><mask></mask><g stroke-linecap="round"><g transform="translate(103.16268075109883 221.8447631983426) rotate(349.58257480511355 -0.7527821045629111 -106.07505522917415)"><path d="M0 0 C-2.43 -5.78, -9.2 -21.93, -14.59 -34.66 C-19.98 -47.39, -26.36 -61.46, -32.33 -76.38 C-38.3 -91.29, -46.07 -111.24, -50.41 -124.15 C-54.74 -137.05, -57.7 -144.86, -58.33 -153.81 C-58.96 -162.76, -57.2 -170.6, -54.18 -177.86 C-51.15 -185.12, -45.74 -192.26, -40.19 -197.37 C-34.64 -202.48, -26.81 -206.06, -20.88 -208.52 C-14.95 -210.99, -9.68 -211.63, -4.61 -212.15 C0.47 -212.67, 5.03 -212.35, 9.59 -211.67 C14.14 -210.99, 18.61 -209.94, 22.72 -208.09 C26.83 -206.23, 30.58 -203.4, 34.22 -200.56 C37.86 -197.71, 41.37 -194.83, 44.54 -191.03 C47.72 -187.23, 51.21 -182.99, 53.26 -177.77 C55.31 -172.54, 56.63 -166.47, 56.83 -159.69 C57.02 -152.91, 56.55 -145.76, 54.44 -137.07 C52.32 -128.38, 48.22 -118.25, 44.13 -107.54 C40.04 -96.83, 35.36 -85.87, 29.91 -72.81 C24.46 -59.74, 16.4 -41.29, 11.42 -29.15 C6.43 -17.02, 1.9 -4.86, 0 0 M0 0 C-2.43 -5.78, -9.2 -21.93, -14.59 -34.66 C-19.98 -47.39, -26.36 -61.46, -32.33 -76.38 C-38.3 -91.29, -46.07 -111.24, -50.41 -124.15 C-54.74 -137.05, -57.7 -144.86, -58.33 -153.81 C-58.96 -162.76, -57.2 -170.6, -54.18 -177.86 C-51.15 -185.12, -45.74 -192.26, -40.19 -197.37 C-34.64 -202.48, -26.81 -206.06, -20.88 -208.52 C-14.95 -210.99, -9.68 -211.63, -4.61 -212.15 C0.47 -212.67, 5.03 -212.35, 9.59 -211.67 C14.14 -210.99, 18.61 -209.94, 22.72 -208.09 C26.83 -206.23, 30.58 -203.4, 34.22 -200.56 C37.86 -197.71, 41.37 -194.83, 44.54 -191.03 C47.72 -187.23, 51.21 -182.99, 53.26 -177.77 C55.31 -172.54, 56.63 -166.47, 56.83 -159.69 C57.02 -152.91, 56.55 -145.76, 54.44 -137.07 C52.32 -128.38, 48.22 -118.25, 44.13 -107.54 C40.04 -96.83, 35.36 -85.87, 29.91 -72.81 C24.46 -59.74, 16.4 -41.29, 11.42 -29.15 C6.43 -17.02, 1.9 -4.86, 0 0" stroke="#9E75ED" stroke-width="4" fill="none"></path></g></g><mask></mask><g stroke-linecap="round" transform="translate(65.26156328182742 36.28966465341989) rotate(349.58257480511355 28.090227928470867 28.09022792847088)"><path d="M56.18 28.09 C56.18 29.72, 56.04 31.37, 55.75 32.97 C55.47 34.57, 55.04 36.17, 54.49 37.7 C53.93 39.23, 53.23 40.73, 52.42 42.14 C51.6 43.54, 50.65 44.9, 49.61 46.15 C48.56 47.39, 47.39 48.56, 46.15 49.61 C44.9 50.65, 43.54 51.6, 42.14 52.42 C40.73 53.23, 39.23 53.93, 37.7 54.49 C36.17 55.04, 34.57 55.47, 32.97 55.75 C31.37 56.04, 29.72 56.18, 28.09 56.18 C26.46 56.18, 24.81 56.04, 23.21 55.75 C21.61 55.47, 20.01 55.04, 18.48 54.49 C16.95 53.93, 15.45 53.23, 14.05 52.42 C12.64 51.6, 11.28 50.65, 10.03 49.61 C8.79 48.56, 7.62 47.39, 6.57 46.15 C5.53 44.9, 4.58 43.54, 3.76 42.14 C2.95 40.73, 2.25 39.23, 1.69 37.7 C1.14 36.17, 0.71 34.57, 0.43 32.97 C0.14 31.37, 0 29.72, 0 28.09 C0 26.46, 0.14 24.81, 0.43 23.21 C0.71 21.61, 1.14 20.01, 1.69 18.48 C2.25 16.95, 2.95 15.45, 3.76 14.05 C4.58 12.64, 5.53 11.28, 6.57 10.03 C7.62 8.79, 8.79 7.62, 10.03 6.57 C11.28 5.53, 12.64 4.58, 14.05 3.76 C15.45 2.95, 16.95 2.25, 18.48 1.69 C20.01 1.14, 21.61 0.71, 23.21 0.43 C24.81 0.14, 26.46 0, 28.09 0 C29.72 0, 31.37 0.14, 32.97 0.43 C34.57 0.71, 36.17 1.14, 37.7 1.69 C39.23 2.25, 40.73 2.95, 42.14 3.76 C43.54 4.58, 44.9 5.53, 46.15 6.57 C47.39 7.62, 48.56 8.79, 49.61 10.03 C50.65 11.28, 51.6 12.64, 52.42 14.05 C53.23 15.45, 53.93 16.95, 54.49 18.48 C55.04 20.01, 55.47 21.61, 55.75 23.21 C56.04 24.81, 56.11 27.28, 56.18 28.09 C56.25 28.9, 56.25 27.28, 56.18 28.09" stroke="#9E75ED" stroke-width="4" fill="none"></path></g><g stroke-linecap="round"><g transform="translate(175.1621876906729 99.64218116582094) rotate(334.5825748051135 25.171623505401627 21.303339191175894)"><path d="M0 0 C0.01 -1.52, -1.38 -6.56, 0.05 -9.13 C1.49 -11.7, 5.44 -14.64, 8.6 -15.43 C11.75 -16.21, 15.84 -15.8, 18.99 -13.84 C22.14 -11.88, 25.11 -7.33, 27.5 -3.67 C29.89 -0.02, 30.68 1.96, 33.34 8.11 C36.01 14.25, 40.65 26.51, 43.49 33.22 C46.32 39.93, 49.9 44.22, 50.34 48.36 C50.78 52.49, 48.41 56.47, 46.12 58.03 C43.84 59.6, 40.03 58.96, 36.66 57.75 C33.29 56.54, 28.72 53.83, 25.89 50.78 C23.06 47.73, 21.88 43.85, 19.68 39.46 C17.48 35.06, 13.85 26.92, 12.69 24.42 M0 0 C0.01 -1.52, -1.38 -6.56, 0.05 -9.13 C1.49 -11.7, 5.44 -14.64, 8.6 -15.43 C11.75 -16.21, 15.84 -15.8, 18.99 -13.84 C22.14 -11.88, 25.11 -7.33, 27.5 -3.67 C29.89 -0.02, 30.68 1.96, 33.34 8.11 C36.01 14.25, 40.65 26.51, 43.49 33.22 C46.32 39.93, 49.9 44.22, 50.34 48.36 C50.78 52.49, 48.41 56.47, 46.12 58.03 C43.84 59.6, 40.03 58.96, 36.66 57.75 C33.29 56.54, 28.72 53.83, 25.89 50.78 C23.06 47.73, 21.88 43.85, 19.68 39.46 C17.48 35.06, 13.85 26.92, 12.69 24.42" stroke="#9E75ED" stroke-width="4" fill="none"></path></g></g><mask></mask><g stroke-linecap="round"><g transform="translate(201.9606366509238 182.59613707681723) rotate(334.5825748051135 34.42841188901622 0)"><path d="M0 0 C11.48 0, 57.38 0, 68.86 0 M0 0 C11.48 0, 57.38 0, 68.86 0" stroke="#E1E1E1" stroke-width="4" fill="none"></path></g></g><mask></mask><g stroke-linecap="round"><g transform="translate(187.31410407719932 222.90904025104186) rotate(334.5825748051135 60.302432265892385 0)"><path d="M0 0 C20.1 0, 100.5 0, 120.6 0 M0 0 C20.1 0, 100.5 0, 120.6 0" stroke="#E1E1E1" stroke-width="4" fill="none"></path></g></g><mask></mask><g stroke-linecap="round"><g transform="translate(136.7091833873974 264.37623569788497) rotate(334.5825748051135 21.724950001577664 0)"><path d="M0 0 C7.24 0, 36.21 0, 43.45 0 M0 0 C7.24 0, 36.21 0, 43.45 0" stroke="#E1E1E1" stroke-width="4" fill="none"></path></g></g><mask></mask><g stroke-linecap="round"><g transform="translate(171.66037295892647 289.33911587897904) rotate(334.5825748051135 36.000883466472196 0)"><path d="M0 0 C12 0, 60 0, 72 0 M0 0 C12 0, 60 0, 72 0" stroke="#E1E1E1" stroke-width="4" fill="none"></path></g></g><mask></mask><g stroke-linecap="round"><g transform="translate(256.2602863772195 245.555458220685) rotate(334.5825748051135 42.20413509927709 0)"><path d="M0 0 C14.07 0, 70.34 0, 84.41 0 M0 0 C14.07 0, 70.34 0, 84.41 0" stroke="#E1E1E1" stroke-width="4" fill="none"></path></g></g><mask></mask><g stroke-linecap="round"><g transform="translate(252.3626311862713 284.53475958916255) rotate(334.5825748051135 62.96149057559646 0)"><path d="M0 0 C20.99 0, 104.94 0, 125.92 0 M0 0 C20.99 0, 104.94 0, 125.92 0" stroke="#E1E1E1" stroke-width="4" fill="none"></path></g></g><mask></mask><g stroke-linecap="round"><g transform="translate(209.41148000823205 327.0588381936149) rotate(334.5825748051135 15.393833935823842 0)"><path d="M0 0 C5.13 0, 25.66 0, 30.79 0 M0 0 C5.13 0, 25.66 0, 30.79 0" stroke="#E1E1E1" stroke-width="4" fill="none"></path></g></g><mask></mask><g stroke-linecap="round"><g transform="translate(67.55925917889999 182.28022850181236) rotate(334.5825748051135 -14.264973656355963 29.207889755166235)"><path d="M0 0 C-2.88 5.92, -12.51 25.76, -17.26 35.5 C-22.02 45.24, -26.65 54.6, -28.53 58.42 M0 0 C-2.88 5.92, -12.51 25.76, -17.26 35.5 C-22.02 45.24, -26.65 54.6, -28.53 58.42" stroke="#E1E1E1" stroke-width="4" fill="none"></path></g></g><mask></mask><g stroke-linecap="round"><g transform="translate(372.5630641237926 384.0877930896467) rotate(334.5825748051135 6.962609795830886 15.207517190669098)"><path d="M0 0 C2.32 5.07, 11.6 25.35, 13.93 30.42 M0 0 C2.32 5.07, 11.6 25.35, 13.93 30.42" stroke="#E1E1E1" stroke-width="4" fill="none"></path></g></g><mask></mask><g stroke-linecap="round"><g transform="translate(47.051353888846734 253.82514021728724) rotate(334.5825748051135 -3.832789097567016 27.44899077185287)"><path d="M0 0 C1.22 2.83, 4.92 11.55, 7.33 16.97 C9.74 22.4, 12.64 28.12, 14.46 32.56 C16.27 36.99, 18.31 40.1, 18.2 43.58 C18.09 47.06, 16.4 51.55, 13.79 53.43 C11.18 55.32, 9.15 54.83, 2.54 54.9 C-4.07 54.97, -21.13 54.03, -25.87 53.86 M0 0 C1.22 2.83, 4.92 11.55, 7.33 16.97 C9.74 22.4, 12.64 28.12, 14.46 32.56 C16.27 36.99, 18.31 40.1, 18.2 43.58 C18.09 47.06, 16.4 51.55, 13.79 53.43 C11.18 55.32, 9.15 54.83, 2.54 54.9 C-4.07 54.97, -21.13 54.03, -25.87 53.86" stroke="#E1E1E1" stroke-width="4" fill="none"></path></g></g><mask></mask><g stroke-linecap="round"><g transform="translate(25.783756987360448 327.8773924517454) rotate(334.5825748051135 -3.832789097567016 27.44899077185287)"><path d="M0 0 C1.22 2.83, 4.92 11.55, 7.33 16.97 C9.74 22.4, 12.64 28.12, 14.46 32.56 C16.27 36.99, 18.31 40.1, 18.2 43.58 C18.09 47.06, 16.4 51.55, 13.79 53.43 C11.18 55.32, 9.15 54.83, 2.54 54.9 C-4.07 54.97, -21.13 54.03, -25.87 53.86 M0 0 C1.22 2.83, 4.92 11.55, 7.33 16.97 C9.74 22.4, 12.64 28.12, 14.46 32.56 C16.27 36.99, 18.31 40.1, 18.2 43.58 C18.09 47.06, 16.4 51.55, 13.79 53.43 C11.18 55.32, 9.15 54.83, 2.54 54.9 C-4.07 54.97, -21.13 54.03, -25.87 53.86" stroke="#E1E1E1" stroke-width="4" fill="none"></path></g></g><mask></mask><g stroke-linecap="round"><g transform="translate(194.596218630149 78.9745456915906) rotate(334.5825748051135 92.89750755544733 112.22761039796745)"><path d="M0 0 C4.45 0.05, 16.66 0.25, 26.73 0.27 C36.79 0.29, 51.78 -0.56, 60.4 0.12 C69.01 0.8, 72.36 1.18, 78.41 4.35 C84.45 7.52, 91.98 12.98, 96.69 19.12 C101.39 25.25, 101.61 29.94, 106.61 41.17 C111.61 52.41, 120 71.26, 126.7 86.54 C133.39 101.82, 138.72 114.28, 146.8 132.85 C154.88 151.42, 168.67 182.69, 175.17 197.95 C181.66 213.22, 184.02 220.04, 185.8 224.46 M0 0 C4.45 0.05, 16.66 0.25, 26.73 0.27 C36.79 0.29, 51.78 -0.56, 60.4 0.12 C69.01 0.8, 72.36 1.18, 78.41 4.35 C84.45 7.52, 91.98 12.98, 96.69 19.12 C101.39 25.25, 101.61 29.94, 106.61 41.17 C111.61 52.41, 120 71.26, 126.7 86.54 C133.39 101.82, 138.72 114.28, 146.8 132.85 C154.88 151.42, 168.67 182.69, 175.17 197.95 C181.66 213.22, 184.02 220.04, 185.8 224.46" stroke="#E1E1E1" stroke-width="4" fill="none"></path></g></g><mask></mask><g stroke-linecap="round"><g transform="translate(271.29605362536313 401.44111592112034) rotate(334.5825748051135 -98.35586304198405 -133.30582141337607)"><path d="M0 0 C-8.52 -0.02, -36.91 0, -51.12 -0.14 C-65.33 -0.27, -76.99 0.31, -85.28 -0.8 C-93.57 -1.9, -96.04 -3.47, -100.86 -6.78 C-105.69 -10.09, -108.98 -11.55, -114.24 -20.63 C-119.5 -29.71, -124.85 -43.98, -132.44 -61.25 C-140.04 -78.53, -150.79 -103.9, -159.83 -124.28 C-168.86 -144.67, -180.54 -169.84, -186.68 -183.56 C-192.83 -197.29, -197.59 -202.57, -196.71 -206.64 C-195.83 -210.71, -186.75 -207.82, -181.41 -207.97 C-176.07 -208.13, -169.2 -207.46, -164.66 -207.55 C-160.13 -207.64, -156.8 -206.54, -154.18 -208.5 C-151.57 -210.45, -148.8 -214.38, -148.98 -219.28 C-149.15 -224.18, -152.52 -231.6, -155.21 -237.91 C-157.91 -244.22, -162.9 -252.64, -165.13 -257.16 C-167.36 -261.69, -170.81 -263.5, -168.59 -265.07 C-166.38 -266.65, -154.63 -266.35, -151.84 -266.61 M0 0 C-8.52 -0.02, -36.91 0, -51.12 -0.14 C-65.33 -0.27, -76.99 0.31, -85.28 -0.8 C-93.57 -1.9, -96.04 -3.47, -100.86 -6.78 C-105.69 -10.09, -108.98 -11.55, -114.24 -20.63 C-119.5 -29.71, -124.85 -43.98, -132.44 -61.25 C-140.04 -78.53, -150.79 -103.9, -159.83 -124.28 C-168.86 -144.67, -180.54 -169.84, -186.68 -183.56 C-192.83 -197.29, -197.59 -202.57, -196.71 -206.64 C-195.83 -210.71, -186.75 -207.82, -181.41 -207.97 C-176.07 -208.13, -169.2 -207.46, -164.66 -207.55 C-160.13 -207.64, -156.8 -206.54, -154.18 -208.5 C-151.57 -210.45, -148.8 -214.38, -148.98 -219.28 C-149.15 -224.18, -152.52 -231.6, -155.21 -237.91 C-157.91 -244.22, -162.9 -252.64, -165.13 -257.16 C-167.36 -261.69, -170.81 -263.5, -168.59 -265.07 C-166.38 -266.65, -154.63 -266.35, -151.84 -266.61" stroke="#E1E1E1" stroke-width="4" fill="none"></path></g></g><mask></mask><g stroke-linecap="round"><g transform="translate(262.1492613513001 473.15165032995077) rotate(334.5825748051135 -103.49247960249447 -133.04876001708737)"><path d="M0 0 C-13.54 0.04, -63.76 0.68, -81.21 0.22 C-98.67 -0.25, -98.34 -0.41, -104.75 -2.79 C-111.15 -5.17, -115.4 -9.79, -119.64 -14.07 C-123.88 -18.35, -125.44 -19.52, -130.17 -28.47 C-134.91 -37.43, -141.45 -53.2, -148.05 -67.81 C-154.66 -82.42, -162.26 -98.96, -169.79 -116.13 C-177.32 -133.31, -187.03 -156.48, -193.23 -170.85 C-199.43 -185.22, -204.88 -194.97, -206.98 -202.35 C-209.09 -209.72, -208.45 -208.78, -205.86 -215.1 C-203.28 -221.42, -195.82 -232.36, -191.48 -240.25 C-187.15 -248.14, -183.46 -258.1, -179.85 -262.44 C-176.25 -266.79, -175.37 -265.72, -169.86 -266.32 C-164.34 -266.92, -150.61 -266.1, -146.76 -266.05 M0 0 C-13.54 0.04, -63.76 0.68, -81.21 0.22 C-98.67 -0.25, -98.34 -0.41, -104.75 -2.79 C-111.15 -5.17, -115.4 -9.79, -119.64 -14.07 C-123.88 -18.35, -125.44 -19.52, -130.17 -28.47 C-134.91 -37.43, -141.45 -53.2, -148.05 -67.81 C-154.66 -82.42, -162.26 -98.96, -169.79 -116.13 C-177.32 -133.31, -187.03 -156.48, -193.23 -170.85 C-199.43 -185.22, -204.88 -194.97, -206.98 -202.35 C-209.09 -209.72, -208.45 -208.78, -205.86 -215.1 C-203.28 -221.42, -195.82 -232.36, -191.48 -240.25 C-187.15 -248.14, -183.46 -258.1, -179.85 -262.44 C-176.25 -266.79, -175.37 -265.72, -169.86 -266.32 C-164.34 -266.92, -150.61 -266.1, -146.76 -266.05" stroke="#E1E1E1" stroke-width="4" fill="none"></path></g></g><mask></mask><g stroke-linecap="round"><g transform="translate(307.33359014888265 528.8892025935484) rotate(334.5825748051135 -138.9769688786537 -130.94695733754793)"><path d="M0 0 C-15.95 0.33, -71.5 1.66, -95.67 2 C-119.85 2.34, -132.58 2.21, -145.04 2.02 C-157.49 1.83, -163.65 2.38, -170.41 0.85 C-177.16 -0.69, -181.35 -4.01, -185.56 -7.18 C-189.76 -10.35, -191.87 -12.48, -195.62 -18.17 C-199.37 -23.86, -203.12 -31.13, -208.06 -41.32 C-212.99 -51.5, -218.32 -63.46, -225.23 -79.28 C-232.14 -95.1, -241.79 -118.6, -249.52 -136.24 C-257.25 -153.88, -266.87 -174.36, -271.61 -185.12 C-276.35 -195.88, -277.51 -195.82, -277.95 -200.82 C-278.4 -205.81, -277.21 -208.29, -274.26 -215.12 C-271.31 -221.94, -264.32 -234.11, -260.25 -241.77 C-256.18 -249.43, -253.22 -257.4, -249.84 -261.09 C-246.46 -264.78, -245.33 -263.51, -239.97 -263.91 C-234.61 -264.31, -221.39 -263.54, -217.67 -263.47 M0 0 C-15.95 0.33, -71.5 1.66, -95.67 2 C-119.85 2.34, -132.58 2.21, -145.04 2.02 C-157.49 1.83, -163.65 2.38, -170.41 0.85 C-177.16 -0.69, -181.35 -4.01, -185.56 -7.18 C-189.76 -10.35, -191.87 -12.48, -195.62 -18.17 C-199.37 -23.86, -203.12 -31.13, -208.06 -41.32 C-212.99 -51.5, -218.32 -63.46, -225.23 -79.28 C-232.14 -95.1, -241.79 -118.6, -249.52 -136.24 C-257.25 -153.88, -266.87 -174.36, -271.61 -185.12 C-276.35 -195.88, -277.51 -195.82, -277.95 -200.82 C-278.4 -205.81, -277.21 -208.29, -274.26 -215.12 C-271.31 -221.94, -264.32 -234.11, -260.25 -241.77 C-256.18 -249.43, -253.22 -257.4, -249.84 -261.09 C-246.46 -264.78, -245.33 -263.51, -239.97 -263.91 C-234.61 -264.31, -221.39 -263.54, -217.67 -263.47" stroke="#E1E1E1" stroke-width="4" fill="none"></path></g></g><mask></mask><g stroke-linecap="round"><g transform="translate(40.37272558440327 238.4679579523917) rotate(334.5825748051135 13.075639632969427 -28.4970159775483)"><path d="M0 0 C2.68 -5.67, 11.72 -24.5, 16.08 -34 C20.43 -43.5, 24.47 -53.16, 26.15 -56.99 M0 0 C2.68 -5.67, 11.72 -24.5, 16.08 -34 C20.43 -43.5, 24.47 -53.16, 26.15 -56.99" stroke="#E1E1E1" stroke-width="4" fill="none"></path></g></g><mask></mask><g stroke-linecap="round"><g transform="translate(50.17698945614211 258.5182121050174) rotate(334.5825748051135 -13.792321921890164 33.20564403002323)"><path d="M0 0 C-1.91 3.43, -7.64 13.95, -11.46 20.58 C-15.29 27.22, -20.27 34.5, -22.96 39.81 C-25.64 45.13, -27.38 48.05, -27.58 52.48 C-27.79 56.91, -24.76 64.09, -24.19 66.41 M0 0 C-1.91 3.43, -7.64 13.95, -11.46 20.58 C-15.29 27.22, -20.27 34.5, -22.96 39.81 C-25.64 45.13, -27.38 48.05, -27.58 52.48 C-27.79 56.91, -24.76 64.09, -24.19 66.41" stroke="#E1E1E1" stroke-width="4" fill="none"></path></g></g><mask></mask></svg>