<svg version="1.1" xmlns="http://www.w3.org/2000/svg" viewBox="0 0 306.4269859856309 447.36133548414455" width="306.4269859856309" height="447.36133548414455" class="excalidraw-svg"><!-- svg-source:excalidraw --><metadata></metadata><defs><style class="style-fonts">
      </style></defs><rect x="0" y="0" width="306.4269859856309" height="447.36133548414455" fill="#000000"></rect><g stroke-linecap="round"><g transform="translate(131.58428231390508 193.95343430642606) rotate(0 81.29649986046108 108.09876534919779)"><path d="M0 0 C-0.02 0.1, -0.18 0.53, -0.1 0.6 C-0.03 0.67, 0.55 0.48, 0.46 0.43 C0.37 0.38, -0.53 0.31, -0.64 0.28 C-0.75 0.25, -0.47 0.33, -0.19 0.25 C0.08 0.17, 1.08 -0.06, 1.01 -0.21 C0.95 -0.35, -0.17 -0.78, -0.6 -0.63 C-1.03 -0.47, -1.29 0.47, -1.56 0.72 C-1.84 0.98, -2.26 0.99, -2.24 0.91 C-2.21 0.83, -2 0.46, -1.43 0.25 C-0.86 0.03, 0.76 -0.29, 1.18 -0.38 C1.59 -0.48, 1.1 -0.23, 1.06 -0.32 C1.02 -0.42, -2.86 -0.75, 0.95 -0.94 C4.75 -1.12, 15.22 -1.47, 23.89 -1.43 C32.55 -1.38, 42.9 -0.73, 52.95 -0.66 C63 -0.6, 75.53 -0.96, 84.2 -1.06 C92.88 -1.15, 98.57 -1.68, 105 -1.25 C111.43 -0.82, 118.92 -2.95, 122.79 1.53 C126.65 6.01, 125.2 18.08, 128.19 25.62 C131.18 33.15, 140.75 40.69, 140.73 46.73 C140.71 52.78, 130.1 57.06, 128.07 61.9 C126.05 66.73, 126.84 70.28, 128.59 75.73 C130.33 81.19, 134.21 89.02, 138.55 94.64 C142.9 100.26, 150.25 105.29, 154.63 109.48 C159.01 113.67, 165.17 116.91, 164.83 119.79 C164.49 122.66, 158.17 124.57, 152.58 126.72 C147 128.88, 133.68 129.06, 131.31 132.74 C128.94 136.42, 139.73 144.13, 138.37 148.78 C137 153.43, 124.22 156.26, 123.12 160.65 C122.01 165.03, 131.72 171.06, 131.72 175.06 C131.72 179.07, 124.22 180.47, 123.11 184.66 C121.99 188.86, 125.32 195.6, 125.03 200.22 C124.75 204.85, 124.06 209.5, 121.42 212.4 C118.78 215.3, 114.45 217.12, 109.22 217.62 C103.98 218.13, 97.85 216.72, 90.02 215.42 C82.19 214.12, 66.86 210.76, 62.23 209.83 M0 0 C-0.02 0.1, -0.18 0.53, -0.1 0.6 C-0.03 0.67, 0.55 0.48, 0.46 0.43 C0.37 0.38, -0.53 0.31, -0.64 0.28 C-0.75 0.25, -0.47 0.33, -0.19 0.25 C0.08 0.17, 1.08 -0.06, 1.01 -0.21 C0.95 -0.35, -0.17 -0.78, -0.6 -0.63 C-1.03 -0.47, -1.29 0.47, -1.56 0.72 C-1.84 0.98, -2.26 0.99, -2.24 0.91 C-2.21 0.83, -2 0.46, -1.43 0.25 C-0.86 0.03, 0.76 -0.29, 1.18 -0.38 C1.59 -0.48, 1.1 -0.23, 1.06 -0.32 C1.02 -0.42, -2.86 -0.75, 0.95 -0.94 C4.75 -1.12, 15.22 -1.47, 23.89 -1.43 C32.55 -1.38, 42.9 -0.73, 52.95 -0.66 C63 -0.6, 75.53 -0.96, 84.2 -1.06 C92.88 -1.15, 98.57 -1.68, 105 -1.25 C111.43 -0.82, 118.92 -2.95, 122.79 1.53 C126.65 6.01, 125.2 18.08, 128.19 25.62 C131.18 33.15, 140.75 40.69, 140.73 46.73 C140.71 52.78, 130.1 57.06, 128.07 61.9 C126.05 66.73, 126.84 70.28, 128.59 75.73 C130.33 81.19, 134.21 89.02, 138.55 94.64 C142.9 100.26, 150.25 105.29, 154.63 109.48 C159.01 113.67, 165.17 116.91, 164.83 119.79 C164.49 122.66, 158.17 124.57, 152.58 126.72 C147 128.88, 133.68 129.06, 131.31 132.74 C128.94 136.42, 139.73 144.13, 138.37 148.78 C137 153.43, 124.22 156.26, 123.12 160.65 C122.01 165.03, 131.72 171.06, 131.72 175.06 C131.72 179.07, 124.22 180.47, 123.11 184.66 C121.99 188.86, 125.32 195.6, 125.03 200.22 C124.75 204.85, 124.06 209.5, 121.42 212.4 C118.78 215.3, 114.45 217.12, 109.22 217.62 C103.98 218.13, 97.85 216.72, 90.02 215.42 C82.19 214.12, 66.86 210.76, 62.23 209.83" stroke="#E1E1E1" stroke-width="4" fill="none"></path></g></g><mask></mask><g stroke-linecap="round" transform="translate(190.17130340299332 21.031310266855144) rotate(0 10.00332496568651 10.003324965686517)"><path d="M20.01 10 C20.01 10.58, 19.96 11.17, 19.85 11.74 C19.75 12.31, 19.6 12.88, 19.4 13.42 C19.21 13.97, 18.96 14.5, 18.67 15 C18.38 15.51, 18.04 15.99, 17.67 16.43 C17.29 16.88, 16.88 17.29, 16.43 17.67 C15.99 18.04, 15.51 18.38, 15 18.67 C14.5 18.96, 13.97 19.21, 13.42 19.4 C12.88 19.6, 12.31 19.75, 11.74 19.85 C11.17 19.96, 10.58 20.01, 10 20.01 C9.42 20.01, 8.84 19.96, 8.27 19.85 C7.7 19.75, 7.13 19.6, 6.58 19.4 C6.04 19.21, 5.5 18.96, 5 18.67 C4.5 18.38, 4.02 18.04, 3.57 17.67 C3.13 17.29, 2.71 16.88, 2.34 16.43 C1.97 15.99, 1.63 15.51, 1.34 15 C1.05 14.5, 0.8 13.97, 0.6 13.42 C0.41 12.88, 0.25 12.31, 0.15 11.74 C0.05 11.17, 0 10.58, 0 10 C0 9.42, 0.05 8.84, 0.15 8.27 C0.25 7.7, 0.41 7.13, 0.6 6.58 C0.8 6.04, 1.05 5.5, 1.34 5 C1.63 4.5, 1.97 4.02, 2.34 3.57 C2.71 3.13, 3.13 2.71, 3.57 2.34 C4.02 1.97, 4.5 1.63, 5 1.34 C5.5 1.05, 6.04 0.8, 6.58 0.6 C7.13 0.41, 7.7 0.25, 8.27 0.15 C8.84 0.05, 9.42 0, 10 0 C10.58 0, 11.17 0.05, 11.74 0.15 C12.31 0.25, 12.88 0.41, 13.42 0.6 C13.97 0.8, 14.5 1.05, 15 1.34 C15.51 1.63, 15.99 1.97, 16.43 2.34 C16.88 2.71, 17.29 3.13, 17.67 3.57 C18.04 4.02, 18.38 4.5, 18.67 5 C18.96 5.5, 19.21 6.04, 19.4 6.58 C19.6 7.13, 19.75 7.7, 19.85 8.27 C19.96 8.84, 19.98 9.71, 20.01 10 C20.03 10.29, 20.03 9.71, 20.01 10" stroke="#E1E1E1" stroke-width="4" fill="none"></path></g><g stroke-linecap="round" transform="translate(148.2644546154902 10) rotate(0 6.791384892180439 6.791384892180446)"><path d="M13.58 6.79 C13.58 7.18, 13.55 7.58, 13.48 7.97 C13.41 8.36, 13.31 8.74, 13.17 9.11 C13.04 9.48, 12.87 9.85, 12.67 10.19 C12.48 10.53, 12.25 10.86, 11.99 11.16 C11.74 11.46, 11.46 11.74, 11.16 11.99 C10.86 12.25, 10.53 12.48, 10.19 12.67 C9.85 12.87, 9.48 13.04, 9.11 13.17 C8.74 13.31, 8.36 13.41, 7.97 13.48 C7.58 13.55, 7.18 13.58, 6.79 13.58 C6.4 13.58, 6 13.55, 5.61 13.48 C5.22 13.41, 4.84 13.31, 4.47 13.17 C4.1 13.04, 3.74 12.87, 3.4 12.67 C3.06 12.48, 2.73 12.25, 2.43 11.99 C2.12 11.74, 1.84 11.46, 1.59 11.16 C1.34 10.86, 1.11 10.53, 0.91 10.19 C0.71 9.85, 0.54 9.48, 0.41 9.11 C0.28 8.74, 0.17 8.36, 0.1 7.97 C0.03 7.58, 0 7.18, 0 6.79 C0 6.4, 0.03 6, 0.1 5.61 C0.17 5.22, 0.28 4.84, 0.41 4.47 C0.54 4.1, 0.71 3.74, 0.91 3.4 C1.11 3.06, 1.34 2.73, 1.59 2.43 C1.84 2.12, 2.12 1.84, 2.43 1.59 C2.73 1.34, 3.06 1.11, 3.4 0.91 C3.74 0.71, 4.1 0.54, 4.47 0.41 C4.84 0.28, 5.22 0.17, 5.61 0.1 C6 0.03, 6.4 0, 6.79 0 C7.18 0, 7.58 0.03, 7.97 0.1 C8.36 0.17, 8.74 0.28, 9.11 0.41 C9.48 0.54, 9.85 0.71, 10.19 0.91 C10.53 1.11, 10.86 1.34, 11.16 1.59 C11.46 1.84, 11.74 2.12, 11.99 2.43 C12.25 2.73, 12.48 3.06, 12.67 3.4 C12.87 3.74, 13.04 4.1, 13.17 4.47 C13.31 4.84, 13.41 5.22, 13.48 5.61 C13.55 6, 13.57 6.59, 13.58 6.79 C13.6 6.99, 13.6 6.59, 13.58 6.79" stroke="#E1E1E1" stroke-width="4" fill="none"></path></g><g stroke-linecap="round" transform="translate(103.8061463104882 10.802856520212117) rotate(0 7.123424144458127 7.123424144458113)"><path d="M14.25 7.12 C14.25 7.54, 14.21 7.95, 14.14 8.36 C14.07 8.77, 13.96 9.17, 13.82 9.56 C13.68 9.95, 13.5 10.33, 13.29 10.69 C13.09 11.04, 12.85 11.39, 12.58 11.7 C12.32 12.02, 12.02 12.32, 11.7 12.58 C11.39 12.85, 11.04 13.09, 10.69 13.29 C10.33 13.5, 9.95 13.68, 9.56 13.82 C9.17 13.96, 8.77 14.07, 8.36 14.14 C7.95 14.21, 7.54 14.25, 7.12 14.25 C6.71 14.25, 6.29 14.21, 5.89 14.14 C5.48 14.07, 5.07 13.96, 4.69 13.82 C4.3 13.68, 3.92 13.5, 3.56 13.29 C3.2 13.09, 2.86 12.85, 2.54 12.58 C2.23 12.32, 1.93 12.02, 1.67 11.7 C1.4 11.39, 1.16 11.04, 0.95 10.69 C0.75 10.33, 0.57 9.95, 0.43 9.56 C0.29 9.17, 0.18 8.77, 0.11 8.36 C0.04 7.95, 0 7.54, 0 7.12 C0 6.71, 0.04 6.29, 0.11 5.89 C0.18 5.48, 0.29 5.07, 0.43 4.69 C0.57 4.3, 0.75 3.92, 0.95 3.56 C1.16 3.2, 1.4 2.86, 1.67 2.54 C1.93 2.23, 2.23 1.93, 2.54 1.67 C2.86 1.4, 3.2 1.16, 3.56 0.95 C3.92 0.75, 4.3 0.57, 4.69 0.43 C5.07 0.29, 5.48 0.18, 5.89 0.11 C6.29 0.04, 6.71 0, 7.12 0 C7.54 0, 7.95 0.04, 8.36 0.11 C8.77 0.18, 9.17 0.29, 9.56 0.43 C9.95 0.57, 10.33 0.75, 10.69 0.95 C11.04 1.16, 11.39 1.4, 11.7 1.67 C12.02 1.93, 12.32 2.23, 12.58 2.54 C12.85 2.86, 13.09 3.2, 13.29 3.56 C13.5 3.92, 13.68 4.3, 13.82 4.69 C13.96 5.07, 14.07 5.48, 14.14 5.89 C14.21 6.29, 14.23 6.92, 14.25 7.12 C14.26 7.33, 14.26 6.92, 14.25 7.12" stroke="#E1E1E1" stroke-width="4" fill="none"></path></g><g stroke-linecap="round" transform="translate(54.042405866143326 28.29608239022491) rotate(0 10.085049797129244 10.085049797129244)"><path d="M20.17 10.09 C20.17 10.67, 20.12 11.26, 20.02 11.84 C19.92 12.41, 19.76 12.99, 19.56 13.53 C19.36 14.08, 19.11 14.62, 18.82 15.13 C18.53 15.63, 18.19 16.12, 17.81 16.57 C17.44 17.01, 17.01 17.44, 16.57 17.81 C16.12 18.19, 15.63 18.53, 15.13 18.82 C14.62 19.11, 14.08 19.36, 13.53 19.56 C12.99 19.76, 12.41 19.92, 11.84 20.02 C11.26 20.12, 10.67 20.17, 10.09 20.17 C9.5 20.17, 8.91 20.12, 8.33 20.02 C7.76 19.92, 7.18 19.76, 6.64 19.56 C6.09 19.36, 5.55 19.11, 5.04 18.82 C4.54 18.53, 4.05 18.19, 3.6 17.81 C3.16 17.44, 2.73 17.01, 2.36 16.57 C1.98 16.12, 1.64 15.63, 1.35 15.13 C1.06 14.62, 0.81 14.08, 0.61 13.53 C0.41 12.99, 0.25 12.41, 0.15 11.84 C0.05 11.26, 0 10.67, 0 10.09 C0 9.5, 0.05 8.91, 0.15 8.33 C0.25 7.76, 0.41 7.18, 0.61 6.64 C0.81 6.09, 1.06 5.55, 1.35 5.04 C1.64 4.54, 1.98 4.05, 2.36 3.6 C2.73 3.16, 3.16 2.73, 3.6 2.36 C4.05 1.98, 4.54 1.64, 5.04 1.35 C5.55 1.06, 6.09 0.81, 6.64 0.61 C7.18 0.41, 7.76 0.25, 8.33 0.15 C8.91 0.05, 9.5 0, 10.09 0 C10.67 0, 11.26 0.05, 11.84 0.15 C12.41 0.25, 12.99 0.41, 13.53 0.61 C14.08 0.81, 14.62 1.06, 15.13 1.35 C15.63 1.64, 16.12 1.98, 16.57 2.36 C17.01 2.73, 17.44 3.16, 17.81 3.6 C18.19 4.05, 18.53 4.54, 18.82 5.04 C19.11 5.55, 19.36 6.09, 19.56 6.64 C19.76 7.18, 19.92 7.76, 20.02 8.33 C20.12 8.91, 20.14 9.79, 20.17 10.09 C20.2 10.38, 20.2 9.79, 20.17 10.09" stroke="#E1E1E1" stroke-width="4" fill="none"></path></g><g stroke-linecap="round" transform="translate(26.464644191656134 56.164763904946994) rotate(0 7.544384125287635 7.544384125287635)"><path d="M15.09 7.54 C15.09 7.98, 15.05 8.42, 14.97 8.85 C14.9 9.28, 14.78 9.71, 14.63 10.12 C14.48 10.54, 14.3 10.94, 14.08 11.32 C13.86 11.69, 13.6 12.06, 13.32 12.39 C13.04 12.73, 12.73 13.04, 12.39 13.32 C12.06 13.6, 11.69 13.86, 11.32 14.08 C10.94 14.3, 10.54 14.48, 10.12 14.63 C9.71 14.78, 9.28 14.9, 8.85 14.97 C8.42 15.05, 7.98 15.09, 7.54 15.09 C7.11 15.09, 6.66 15.05, 6.23 14.97 C5.8 14.9, 5.37 14.78, 4.96 14.63 C4.55 14.48, 4.15 14.3, 3.77 14.08 C3.39 13.86, 3.03 13.6, 2.69 13.32 C2.36 13.04, 2.05 12.73, 1.77 12.39 C1.48 12.06, 1.23 11.69, 1.01 11.32 C0.79 10.94, 0.6 10.54, 0.45 10.12 C0.31 9.71, 0.19 9.28, 0.11 8.85 C0.04 8.42, 0 7.98, 0 7.54 C0 7.11, 0.04 6.66, 0.11 6.23 C0.19 5.8, 0.31 5.37, 0.45 4.96 C0.6 4.55, 0.79 4.15, 1.01 3.77 C1.23 3.39, 1.48 3.03, 1.77 2.69 C2.05 2.36, 2.36 2.05, 2.69 1.77 C3.03 1.48, 3.39 1.23, 3.77 1.01 C4.15 0.79, 4.55 0.6, 4.96 0.45 C5.37 0.31, 5.8 0.19, 6.23 0.11 C6.66 0.04, 7.11 0, 7.54 0 C7.98 0, 8.42 0.04, 8.85 0.11 C9.28 0.19, 9.71 0.31, 10.12 0.45 C10.54 0.6, 10.94 0.79, 11.32 1.01 C11.69 1.23, 12.06 1.48, 12.39 1.77 C12.73 2.05, 13.04 2.36, 13.32 2.69 C13.6 3.03, 13.86 3.39, 14.08 3.77 C14.3 4.15, 14.48 4.55, 14.63 4.96 C14.78 5.37, 14.9 5.8, 14.97 6.23 C15.05 6.66, 15.07 7.33, 15.09 7.54 C15.11 7.76, 15.11 7.33, 15.09 7.54" stroke="#E1E1E1" stroke-width="4" fill="none"></path></g><g stroke-linecap="round" transform="translate(13.14709461499524 102.58755212048891) rotate(0 5.600463920774956 5.600463920774956)"><path d="M11.2 5.6 C11.2 5.92, 11.17 6.25, 11.12 6.57 C11.06 6.89, 10.97 7.21, 10.86 7.52 C10.75 7.82, 10.61 8.12, 10.45 8.4 C10.29 8.68, 10.1 8.95, 9.89 9.2 C9.68 9.45, 9.45 9.68, 9.2 9.89 C8.95 10.1, 8.68 10.29, 8.4 10.45 C8.12 10.61, 7.82 10.75, 7.52 10.86 C7.21 10.97, 6.89 11.06, 6.57 11.12 C6.25 11.17, 5.92 11.2, 5.6 11.2 C5.28 11.2, 4.95 11.17, 4.63 11.12 C4.31 11.06, 3.99 10.97, 3.68 10.86 C3.38 10.75, 3.08 10.61, 2.8 10.45 C2.52 10.29, 2.25 10.1, 2 9.89 C1.75 9.68, 1.52 9.45, 1.31 9.2 C1.1 8.95, 0.91 8.68, 0.75 8.4 C0.59 8.12, 0.45 7.82, 0.34 7.52 C0.23 7.21, 0.14 6.89, 0.09 6.57 C0.03 6.25, 0 5.92, 0 5.6 C0 5.28, 0.03 4.95, 0.09 4.63 C0.14 4.31, 0.23 3.99, 0.34 3.68 C0.45 3.38, 0.59 3.08, 0.75 2.8 C0.91 2.52, 1.1 2.25, 1.31 2 C1.52 1.75, 1.75 1.52, 2 1.31 C2.25 1.1, 2.52 0.91, 2.8 0.75 C3.08 0.59, 3.38 0.45, 3.68 0.34 C3.99 0.23, 4.31 0.14, 4.63 0.09 C4.95 0.03, 5.28 0, 5.6 0 C5.92 0, 6.25 0.03, 6.57 0.09 C6.89 0.14, 7.21 0.23, 7.52 0.34 C7.82 0.45, 8.12 0.59, 8.4 0.75 C8.68 0.91, 8.95 1.1, 9.2 1.31 C9.45 1.52, 9.68 1.75, 9.89 2 C10.1 2.25, 10.29 2.52, 10.45 2.8 C10.61 3.08, 10.75 3.38, 10.86 3.68 C10.97 3.99, 11.06 4.31, 11.12 4.63 C11.17 4.95, 11.19 5.44, 11.2 5.6 C11.22 5.76, 11.22 5.44, 11.2 5.6" stroke="#E1E1E1" stroke-width="4" fill="none"></path></g><g stroke-linecap="round" transform="translate(58.24069783612549 69.28391231847945) rotate(0 10.384707512420391 10.384707512420391)"><path d="M20.77 10.38 C20.77 10.99, 20.72 11.6, 20.61 12.19 C20.51 12.78, 20.35 13.37, 20.14 13.94 C19.94 14.5, 19.68 15.06, 19.38 15.58 C19.08 16.1, 18.73 16.6, 18.34 17.06 C17.95 17.52, 17.52 17.95, 17.06 18.34 C16.6 18.73, 16.1 19.08, 15.58 19.38 C15.06 19.68, 14.5 19.94, 13.94 20.14 C13.37 20.35, 12.78 20.51, 12.19 20.61 C11.6 20.72, 10.99 20.77, 10.38 20.77 C9.78 20.77, 9.17 20.72, 8.58 20.61 C7.99 20.51, 7.4 20.35, 6.83 20.14 C6.27 19.94, 5.71 19.68, 5.19 19.38 C4.67 19.08, 4.17 18.73, 3.71 18.34 C3.25 17.95, 2.82 17.52, 2.43 17.06 C2.04 16.6, 1.69 16.1, 1.39 15.58 C1.09 15.06, 0.83 14.5, 0.63 13.94 C0.42 13.37, 0.26 12.78, 0.16 12.19 C0.05 11.6, 0 10.99, 0 10.38 C0 9.78, 0.05 9.17, 0.16 8.58 C0.26 7.99, 0.42 7.4, 0.63 6.83 C0.83 6.27, 1.09 5.71, 1.39 5.19 C1.69 4.67, 2.04 4.17, 2.43 3.71 C2.82 3.25, 3.25 2.82, 3.71 2.43 C4.17 2.04, 4.67 1.69, 5.19 1.39 C5.71 1.09, 6.27 0.83, 6.83 0.63 C7.4 0.42, 7.99 0.26, 8.58 0.16 C9.17 0.05, 9.78 0, 10.38 0 C10.99 0, 11.6 0.05, 12.19 0.16 C12.78 0.26, 13.37 0.42, 13.94 0.63 C14.5 0.83, 15.06 1.09, 15.58 1.39 C16.1 1.69, 16.6 2.04, 17.06 2.43 C17.52 2.82, 17.95 3.25, 18.34 3.71 C18.73 4.17, 19.08 4.67, 19.38 5.19 C19.68 5.71, 19.94 6.27, 20.14 6.83 C20.35 7.4, 20.51 7.99, 20.61 8.58 C20.72 9.17, 20.74 10.08, 20.77 10.38 C20.8 10.69, 20.8 10.08, 20.77 10.38" stroke="#E1E1E1" stroke-width="4" fill="none"></path></g><g stroke-linecap="round" transform="translate(103.73932726591238 39.971939440914866) rotate(0 8.357006505862401 8.357006505862401)"><path d="M16.71 8.36 C16.71 8.84, 16.67 9.33, 16.59 9.81 C16.5 10.28, 16.38 10.76, 16.21 11.22 C16.04 11.67, 15.84 12.12, 15.59 12.54 C15.35 12.95, 15.07 13.36, 14.76 13.73 C14.45 14.1, 14.1 14.45, 13.73 14.76 C13.36 15.07, 12.95 15.35, 12.54 15.59 C12.12 15.84, 11.67 16.04, 11.22 16.21 C10.76 16.38, 10.28 16.5, 9.81 16.59 C9.33 16.67, 8.84 16.71, 8.36 16.71 C7.87 16.71, 7.38 16.67, 6.91 16.59 C6.43 16.5, 5.95 16.38, 5.5 16.21 C5.04 16.04, 4.6 15.84, 4.18 15.59 C3.76 15.35, 3.36 15.07, 2.99 14.76 C2.61 14.45, 2.27 14.1, 1.96 13.73 C1.64 13.36, 1.36 12.95, 1.12 12.54 C0.88 12.12, 0.67 11.67, 0.5 11.22 C0.34 10.76, 0.21 10.28, 0.13 9.81 C0.04 9.33, 0 8.84, 0 8.36 C0 7.87, 0.04 7.38, 0.13 6.91 C0.21 6.43, 0.34 5.95, 0.5 5.5 C0.67 5.04, 0.88 4.6, 1.12 4.18 C1.36 3.76, 1.64 3.36, 1.96 2.99 C2.27 2.61, 2.61 2.27, 2.99 1.96 C3.36 1.64, 3.76 1.36, 4.18 1.12 C4.6 0.88, 5.04 0.67, 5.5 0.5 C5.95 0.34, 6.43 0.21, 6.91 0.13 C7.38 0.04, 7.87 0, 8.36 0 C8.84 0, 9.33 0.04, 9.81 0.13 C10.28 0.21, 10.76 0.34, 11.22 0.5 C11.67 0.67, 12.12 0.88, 12.54 1.12 C12.95 1.36, 13.36 1.64, 13.73 1.96 C14.1 2.27, 14.45 2.61, 14.76 2.99 C15.07 3.36, 15.35 3.76, 15.59 4.18 C15.84 4.6, 16.04 5.04, 16.21 5.5 C16.38 5.95, 16.5 6.43, 16.59 6.91 C16.67 7.38, 16.69 8.12, 16.71 8.36 C16.74 8.6, 16.74 8.12, 16.71 8.36" stroke="#E1E1E1" stroke-width="4" fill="none"></path></g><g stroke-linecap="round" transform="translate(173.40383515560347 56.99023610178574) rotate(0 10.519887579524486 10.519887579524479)"><path d="M21.04 10.52 C21.04 11.13, 20.99 11.75, 20.88 12.35 C20.77 12.95, 20.61 13.55, 20.41 14.12 C20.2 14.69, 19.93 15.25, 19.63 15.78 C19.33 16.31, 18.97 16.82, 18.58 17.28 C18.19 17.75, 17.75 18.19, 17.28 18.58 C16.82 18.97, 16.31 19.33, 15.78 19.63 C15.25 19.93, 14.69 20.2, 14.12 20.41 C13.55 20.61, 12.95 20.77, 12.35 20.88 C11.75 20.99, 11.13 21.04, 10.52 21.04 C9.91 21.04, 9.29 20.99, 8.69 20.88 C8.09 20.77, 7.49 20.61, 6.92 20.41 C6.35 20.2, 5.79 19.93, 5.26 19.63 C4.73 19.33, 4.22 18.97, 3.76 18.58 C3.29 18.19, 2.85 17.75, 2.46 17.28 C2.07 16.82, 1.71 16.31, 1.41 15.78 C1.1 15.25, 0.84 14.69, 0.63 14.12 C0.43 13.55, 0.27 12.95, 0.16 12.35 C0.05 11.75, 0 11.13, 0 10.52 C0 9.91, 0.05 9.29, 0.16 8.69 C0.27 8.09, 0.43 7.49, 0.63 6.92 C0.84 6.35, 1.1 5.79, 1.41 5.26 C1.71 4.73, 2.07 4.22, 2.46 3.76 C2.85 3.29, 3.29 2.85, 3.76 2.46 C4.22 2.07, 4.73 1.71, 5.26 1.41 C5.79 1.1, 6.35 0.84, 6.92 0.63 C7.49 0.43, 8.09 0.27, 8.69 0.16 C9.29 0.05, 9.91 0, 10.52 0 C11.13 0, 11.75 0.05, 12.35 0.16 C12.95 0.27, 13.55 0.43, 14.12 0.63 C14.69 0.84, 15.25 1.1, 15.78 1.41 C16.31 1.71, 16.82 2.07, 17.28 2.46 C17.75 2.85, 18.19 3.29, 18.58 3.76 C18.97 4.22, 19.33 4.73, 19.63 5.26 C19.93 5.79, 20.2 6.35, 20.41 6.92 C20.61 7.49, 20.77 8.09, 20.88 8.69 C20.99 9.29, 21.01 10.22, 21.04 10.52 C21.07 10.82, 21.07 10.22, 21.04 10.52" stroke="#E1E1E1" stroke-width="4" fill="none"></path></g><g stroke-linecap="round" transform="translate(105.2977529824825 79.77655828752359) rotate(0 13.099102700160103 13.099102700160103)"><path d="M26.2 13.1 C26.2 13.86, 26.13 14.63, 26 15.37 C25.87 16.12, 25.67 16.87, 25.41 17.58 C25.15 18.29, 24.82 18.99, 24.44 19.65 C24.06 20.31, 23.62 20.94, 23.13 21.52 C22.65 22.1, 22.1 22.65, 21.52 23.13 C20.94 23.62, 20.31 24.06, 19.65 24.44 C18.99 24.82, 18.29 25.15, 17.58 25.41 C16.87 25.67, 16.12 25.87, 15.37 26 C14.63 26.13, 13.86 26.2, 13.1 26.2 C12.34 26.2, 11.57 26.13, 10.82 26 C10.08 25.87, 9.33 25.67, 8.62 25.41 C7.91 25.15, 7.21 24.82, 6.55 24.44 C5.89 24.06, 5.26 23.62, 4.68 23.13 C4.1 22.65, 3.55 22.1, 3.06 21.52 C2.58 20.94, 2.13 20.31, 1.75 19.65 C1.38 18.99, 1.05 18.29, 0.79 17.58 C0.53 16.87, 0.33 16.12, 0.2 15.37 C0.07 14.63, 0 13.86, 0 13.1 C0 12.34, 0.07 11.57, 0.2 10.82 C0.33 10.08, 0.53 9.33, 0.79 8.62 C1.05 7.91, 1.38 7.21, 1.75 6.55 C2.13 5.89, 2.58 5.26, 3.06 4.68 C3.55 4.1, 4.1 3.55, 4.68 3.06 C5.26 2.58, 5.89 2.13, 6.55 1.75 C7.21 1.38, 7.91 1.05, 8.62 0.79 C9.33 0.53, 10.08 0.33, 10.82 0.2 C11.57 0.07, 12.34 0, 13.1 0 C13.86 0, 14.63 0.07, 15.37 0.2 C16.12 0.33, 16.87 0.53, 17.58 0.79 C18.29 1.05, 18.99 1.38, 19.65 1.75 C20.31 2.13, 20.94 2.58, 21.52 3.06 C22.1 3.55, 22.65 4.1, 23.13 4.68 C23.62 5.26, 24.06 5.89, 24.44 6.55 C24.82 7.21, 25.15 7.91, 25.41 8.62 C25.67 9.33, 25.87 10.08, 26 10.82 C26.13 11.57, 26.17 12.72, 26.2 13.1 C26.23 13.48, 26.23 12.72, 26.2 13.1" stroke="#E1E1E1" stroke-width="4" fill="none"></path></g><g stroke-linecap="round" transform="translate(144.41259369200498 107.06545609238492) rotate(0 13.128914273893898 13.128914273893898)"><path d="M26.26 13.13 C26.26 13.89, 26.19 14.66, 26.06 15.41 C25.93 16.16, 25.73 16.91, 25.47 17.62 C25.21 18.33, 24.88 19.04, 24.5 19.69 C24.12 20.35, 23.67 20.99, 23.19 21.57 C22.7 22.15, 22.15 22.7, 21.57 23.19 C20.99 23.67, 20.35 24.12, 19.69 24.5 C19.04 24.88, 18.33 25.21, 17.62 25.47 C16.91 25.73, 16.16 25.93, 15.41 26.06 C14.66 26.19, 13.89 26.26, 13.13 26.26 C12.37 26.26, 11.6 26.19, 10.85 26.06 C10.1 25.93, 9.35 25.73, 8.64 25.47 C7.92 25.21, 7.22 24.88, 6.56 24.5 C5.91 24.12, 5.27 23.67, 4.69 23.19 C4.11 22.7, 3.56 22.15, 3.07 21.57 C2.58 20.99, 2.14 20.35, 1.76 19.69 C1.38 19.04, 1.05 18.33, 0.79 17.62 C0.53 16.91, 0.33 16.16, 0.2 15.41 C0.07 14.66, 0 13.89, 0 13.13 C0 12.37, 0.07 11.6, 0.2 10.85 C0.33 10.1, 0.53 9.35, 0.79 8.64 C1.05 7.92, 1.38 7.22, 1.76 6.56 C2.14 5.91, 2.58 5.27, 3.07 4.69 C3.56 4.11, 4.11 3.56, 4.69 3.07 C5.27 2.58, 5.91 2.14, 6.56 1.76 C7.22 1.38, 7.92 1.05, 8.64 0.79 C9.35 0.53, 10.1 0.33, 10.85 0.2 C11.6 0.07, 12.37 0, 13.13 0 C13.89 0, 14.66 0.07, 15.41 0.2 C16.16 0.33, 16.91 0.53, 17.62 0.79 C18.33 1.05, 19.04 1.38, 19.69 1.76 C20.35 2.14, 20.99 2.58, 21.57 3.07 C22.15 3.56, 22.7 4.11, 23.19 4.69 C23.67 5.27, 24.12 5.91, 24.5 6.56 C24.88 7.22, 25.21 7.92, 25.47 8.64 C25.73 9.35, 25.93 10.1, 26.06 10.85 C26.19 11.6, 26.22 12.75, 26.26 13.13 C26.29 13.51, 26.29 12.75, 26.26 13.13" stroke="#E1E1E1" stroke-width="4" fill="none"></path></g><g stroke-linecap="round" transform="translate(191.71225336944622 93.73968263331517) rotate(0 10.844216942043545 10.844216942043545)"><path d="M21.69 10.84 C21.69 11.47, 21.63 12.11, 21.52 12.73 C21.41 13.35, 21.25 13.96, 21.03 14.55 C20.82 15.14, 20.55 15.72, 20.24 16.27 C19.92 16.81, 19.55 17.33, 19.15 17.81 C18.75 18.3, 18.3 18.75, 17.81 19.15 C17.33 19.55, 16.81 19.92, 16.27 20.24 C15.72 20.55, 15.14 20.82, 14.55 21.03 C13.96 21.25, 13.35 21.41, 12.73 21.52 C12.11 21.63, 11.47 21.69, 10.84 21.69 C10.22 21.69, 9.58 21.63, 8.96 21.52 C8.34 21.41, 7.73 21.25, 7.14 21.03 C6.55 20.82, 5.97 20.55, 5.42 20.24 C4.88 19.92, 4.35 19.55, 3.87 19.15 C3.39 18.75, 2.94 18.3, 2.54 17.81 C2.13 17.33, 1.77 16.81, 1.45 16.27 C1.14 15.72, 0.87 15.14, 0.65 14.55 C0.44 13.96, 0.27 13.35, 0.16 12.73 C0.06 12.11, 0 11.47, 0 10.84 C0 10.22, 0.06 9.58, 0.16 8.96 C0.27 8.34, 0.44 7.73, 0.65 7.14 C0.87 6.55, 1.14 5.97, 1.45 5.42 C1.77 4.88, 2.13 4.35, 2.54 3.87 C2.94 3.39, 3.39 2.94, 3.87 2.54 C4.35 2.13, 4.88 1.77, 5.42 1.45 C5.97 1.14, 6.55 0.87, 7.14 0.65 C7.73 0.44, 8.34 0.27, 8.96 0.16 C9.58 0.06, 10.22 0, 10.84 0 C11.47 0, 12.11 0.06, 12.73 0.16 C13.35 0.27, 13.96 0.44, 14.55 0.65 C15.14 0.87, 15.72 1.14, 16.27 1.45 C16.81 1.77, 17.33 2.13, 17.81 2.54 C18.3 2.94, 18.75 3.39, 19.15 3.87 C19.55 4.35, 19.92 4.88, 20.24 5.42 C20.55 5.97, 20.82 6.55, 21.03 7.14 C21.25 7.73, 21.41 8.34, 21.52 8.96 C21.63 9.58, 21.66 10.53, 21.69 10.84 C21.72 11.16, 21.72 10.53, 21.69 10.84" stroke="#E1E1E1" stroke-width="4" fill="none"></path></g><g stroke-linecap="round" transform="translate(243.77765290310958 66.72320093326562) rotate(0 7.6975539351618485 7.697553935161849)"><path d="M15.4 7.7 C15.4 8.14, 15.36 8.6, 15.28 9.03 C15.2 9.47, 15.08 9.91, 14.93 10.33 C14.78 10.75, 14.59 11.16, 14.36 11.55 C14.14 11.93, 13.88 12.3, 13.59 12.65 C13.31 12.99, 12.99 13.31, 12.65 13.59 C12.3 13.88, 11.93 14.14, 11.55 14.36 C11.16 14.59, 10.75 14.78, 10.33 14.93 C9.91 15.08, 9.47 15.2, 9.03 15.28 C8.6 15.36, 8.14 15.4, 7.7 15.4 C7.25 15.4, 6.8 15.36, 6.36 15.28 C5.92 15.2, 5.48 15.08, 5.06 14.93 C4.65 14.78, 4.23 14.59, 3.85 14.36 C3.46 14.14, 3.09 13.88, 2.75 13.59 C2.41 13.31, 2.09 12.99, 1.8 12.65 C1.51 12.3, 1.25 11.93, 1.03 11.55 C0.81 11.16, 0.62 10.75, 0.46 10.33 C0.31 9.91, 0.19 9.47, 0.12 9.03 C0.04 8.6, 0 8.14, 0 7.7 C0 7.25, 0.04 6.8, 0.12 6.36 C0.19 5.92, 0.31 5.48, 0.46 5.06 C0.62 4.65, 0.81 4.23, 1.03 3.85 C1.25 3.46, 1.51 3.09, 1.8 2.75 C2.09 2.41, 2.41 2.09, 2.75 1.8 C3.09 1.51, 3.46 1.25, 3.85 1.03 C4.23 0.81, 4.65 0.62, 5.06 0.46 C5.48 0.31, 5.92 0.19, 6.36 0.12 C6.8 0.04, 7.25 0, 7.7 0 C8.14 0, 8.6 0.04, 9.03 0.12 C9.47 0.19, 9.91 0.31, 10.33 0.46 C10.75 0.62, 11.16 0.81, 11.55 1.03 C11.93 1.25, 12.3 1.51, 12.65 1.8 C12.99 2.09, 13.31 2.41, 13.59 2.75 C13.88 3.09, 14.14 3.46, 14.36 3.85 C14.59 4.23, 14.78 4.65, 14.93 5.06 C15.08 5.48, 15.2 5.92, 15.28 6.36 C15.36 6.8, 15.38 7.47, 15.4 7.7 C15.41 7.92, 15.41 7.47, 15.4 7.7" stroke="#E1E1E1" stroke-width="4" fill="none"></path></g><g stroke-linecap="round" transform="translate(237.4874108452484 105.7002916124311) rotate(0 8.102066151172245 8.102066151172238)"><path d="M16.2 8.1 C16.2 8.57, 16.16 9.05, 16.08 9.51 C16 9.97, 15.88 10.43, 15.72 10.87 C15.56 11.31, 15.35 11.75, 15.12 12.15 C14.88 12.56, 14.61 12.95, 14.31 13.31 C14.01 13.67, 13.67 14.01, 13.31 14.31 C12.95 14.61, 12.56 14.88, 12.15 15.12 C11.75 15.35, 11.31 15.56, 10.87 15.72 C10.43 15.88, 9.97 16, 9.51 16.08 C9.05 16.16, 8.57 16.2, 8.1 16.2 C7.63 16.2, 7.16 16.16, 6.7 16.08 C6.23 16, 5.77 15.88, 5.33 15.72 C4.89 15.56, 4.46 15.35, 4.05 15.12 C3.64 14.88, 3.25 14.61, 2.89 14.31 C2.53 14.01, 2.2 13.67, 1.9 13.31 C1.59 12.95, 1.32 12.56, 1.09 12.15 C0.85 11.75, 0.65 11.31, 0.49 10.87 C0.33 10.43, 0.2 9.97, 0.12 9.51 C0.04 9.05, 0 8.57, 0 8.1 C0 7.63, 0.04 7.16, 0.12 6.7 C0.2 6.23, 0.33 5.77, 0.49 5.33 C0.65 4.89, 0.85 4.46, 1.09 4.05 C1.32 3.64, 1.59 3.25, 1.9 2.89 C2.2 2.53, 2.53 2.2, 2.89 1.9 C3.25 1.59, 3.64 1.32, 4.05 1.09 C4.46 0.85, 4.89 0.65, 5.33 0.49 C5.77 0.33, 6.23 0.2, 6.7 0.12 C7.16 0.04, 7.63 0, 8.1 0 C8.57 0, 9.05 0.04, 9.51 0.12 C9.97 0.2, 10.43 0.33, 10.87 0.49 C11.31 0.65, 11.75 0.85, 12.15 1.09 C12.56 1.32, 12.95 1.59, 13.31 1.9 C13.67 2.2, 14.01 2.53, 14.31 2.89 C14.61 3.25, 14.88 3.64, 15.12 4.05 C15.35 4.46, 15.56 4.89, 15.72 5.33 C15.88 5.77, 16 6.23, 16.08 6.7 C16.16 7.16, 16.18 7.87, 16.2 8.1 C16.22 8.34, 16.22 7.87, 16.2 8.1" stroke="#E1E1E1" stroke-width="4" fill="none"></path></g><g stroke-linecap="round" transform="translate(192.31773671183214 144.1531097879997) rotate(0 7.205662968551913 7.205662968551913)"><path d="M14.41 7.21 C14.41 7.62, 14.37 8.05, 14.3 8.46 C14.23 8.87, 14.12 9.28, 13.98 9.67 C13.83 10.06, 13.65 10.45, 13.45 10.81 C13.24 11.17, 12.99 11.52, 12.73 11.84 C12.46 12.16, 12.16 12.46, 11.84 12.73 C11.52 12.99, 11.17 13.24, 10.81 13.45 C10.45 13.65, 10.06 13.83, 9.67 13.98 C9.28 14.12, 8.87 14.23, 8.46 14.3 C8.05 14.37, 7.62 14.41, 7.21 14.41 C6.79 14.41, 6.37 14.37, 5.95 14.3 C5.54 14.23, 5.13 14.12, 4.74 13.98 C4.35 13.83, 3.96 13.65, 3.6 13.45 C3.24 13.24, 2.89 12.99, 2.57 12.73 C2.25 12.46, 1.95 12.16, 1.69 11.84 C1.42 11.52, 1.17 11.17, 0.97 10.81 C0.76 10.45, 0.58 10.06, 0.43 9.67 C0.29 9.28, 0.18 8.87, 0.11 8.46 C0.04 8.05, 0 7.62, 0 7.21 C0 6.79, 0.04 6.37, 0.11 5.95 C0.18 5.54, 0.29 5.13, 0.43 4.74 C0.58 4.35, 0.76 3.96, 0.97 3.6 C1.17 3.24, 1.42 2.89, 1.69 2.57 C1.95 2.25, 2.25 1.95, 2.57 1.69 C2.89 1.42, 3.24 1.17, 3.6 0.97 C3.96 0.76, 4.35 0.58, 4.74 0.43 C5.13 0.29, 5.54 0.18, 5.95 0.11 C6.37 0.04, 6.79 0, 7.21 0 C7.62 0, 8.05 0.04, 8.46 0.11 C8.87 0.18, 9.28 0.29, 9.67 0.43 C10.06 0.58, 10.45 0.76, 10.81 0.97 C11.17 1.17, 11.52 1.42, 11.84 1.69 C12.16 1.95, 12.46 2.25, 12.73 2.57 C12.99 2.89, 13.24 3.24, 13.45 3.6 C13.65 3.96, 13.83 4.35, 13.98 4.74 C14.12 5.13, 14.23 5.54, 14.3 5.95 C14.37 6.37, 14.39 7, 14.41 7.21 C14.43 7.41, 14.43 7, 14.41 7.21" stroke="#E1E1E1" stroke-width="4" fill="none"></path></g><g stroke-linecap="round" transform="translate(164.20850663664032 167.1234413426464) rotate(0 5.71662625980705 5.71662625980705)"><path d="M11.43 5.72 C11.43 6.05, 11.4 6.38, 11.35 6.71 C11.29 7.04, 11.2 7.36, 11.09 7.67 C10.98 7.98, 10.83 8.29, 10.67 8.57 C10.5 8.86, 10.31 9.14, 10.1 9.39 C9.88 9.64, 9.64 9.88, 9.39 10.1 C9.14 10.31, 8.86 10.5, 8.57 10.67 C8.29 10.83, 7.98 10.98, 7.67 11.09 C7.36 11.2, 7.04 11.29, 6.71 11.35 C6.38 11.4, 6.05 11.43, 5.72 11.43 C5.39 11.43, 5.05 11.4, 4.72 11.35 C4.4 11.29, 4.07 11.2, 3.76 11.09 C3.45 10.98, 3.14 10.83, 2.86 10.67 C2.57 10.5, 2.3 10.31, 2.04 10.1 C1.79 9.88, 1.55 9.64, 1.34 9.39 C1.12 9.14, 0.93 8.86, 0.77 8.57 C0.6 8.29, 0.46 7.98, 0.34 7.67 C0.23 7.36, 0.14 7.04, 0.09 6.71 C0.03 6.38, 0 6.05, 0 5.72 C0 5.39, 0.03 5.05, 0.09 4.72 C0.14 4.4, 0.23 4.07, 0.34 3.76 C0.46 3.45, 0.6 3.14, 0.77 2.86 C0.93 2.57, 1.12 2.3, 1.34 2.04 C1.55 1.79, 1.79 1.55, 2.04 1.34 C2.3 1.12, 2.57 0.93, 2.86 0.77 C3.14 0.6, 3.45 0.46, 3.76 0.34 C4.07 0.23, 4.4 0.14, 4.72 0.09 C5.05 0.03, 5.39 0, 5.72 0 C6.05 0, 6.38 0.03, 6.71 0.09 C7.04 0.14, 7.36 0.23, 7.67 0.34 C7.98 0.46, 8.29 0.6, 8.57 0.77 C8.86 0.93, 9.14 1.12, 9.39 1.34 C9.64 1.55, 9.88 1.79, 10.1 2.04 C10.31 2.3, 10.5 2.57, 10.67 2.86 C10.83 3.14, 10.98 3.45, 11.09 3.76 C11.2 4.07, 11.29 4.4, 11.35 4.72 C11.4 5.05, 11.42 5.55, 11.43 5.72 C11.45 5.88, 11.45 5.55, 11.43 5.72" stroke="#E1E1E1" stroke-width="4" fill="none"></path></g><g stroke-linecap="round" transform="translate(116.87697941486522 153.94158582574346) rotate(0 10.014118811348567 10.014118811348567)"><path d="M20.03 10.01 C20.03 10.59, 19.98 11.18, 19.88 11.75 C19.78 12.32, 19.62 12.89, 19.42 13.44 C19.23 13.98, 18.98 14.52, 18.69 15.02 C18.4 15.52, 18.06 16.01, 17.69 16.45 C17.31 16.9, 16.9 17.31, 16.45 17.69 C16.01 18.06, 15.52 18.4, 15.02 18.69 C14.52 18.98, 13.98 19.23, 13.44 19.42 C12.89 19.62, 12.32 19.78, 11.75 19.88 C11.18 19.98, 10.59 20.03, 10.01 20.03 C9.43 20.03, 8.85 19.98, 8.28 19.88 C7.7 19.78, 7.13 19.62, 6.59 19.42 C6.04 19.23, 5.51 18.98, 5.01 18.69 C4.51 18.4, 4.02 18.06, 3.58 17.69 C3.13 17.31, 2.72 16.9, 2.34 16.45 C1.97 16.01, 1.63 15.52, 1.34 15.02 C1.05 14.52, 0.8 13.98, 0.6 13.44 C0.41 12.89, 0.25 12.32, 0.15 11.75 C0.05 11.18, 0 10.59, 0 10.01 C0 9.43, 0.05 8.85, 0.15 8.28 C0.25 7.7, 0.41 7.13, 0.6 6.59 C0.8 6.04, 1.05 5.51, 1.34 5.01 C1.63 4.51, 1.97 4.02, 2.34 3.58 C2.72 3.13, 3.13 2.72, 3.58 2.34 C4.02 1.97, 4.51 1.63, 5.01 1.34 C5.51 1.05, 6.04 0.8, 6.59 0.6 C7.13 0.41, 7.7 0.25, 8.28 0.15 C8.85 0.05, 9.43 0, 10.01 0 C10.59 0, 11.18 0.05, 11.75 0.15 C12.32 0.25, 12.89 0.41, 13.44 0.6 C13.98 0.8, 14.52 1.05, 15.02 1.34 C15.52 1.63, 16.01 1.97, 16.45 2.34 C16.9 2.72, 17.31 3.13, 17.69 3.58 C18.06 4.02, 18.4 4.51, 18.69 5.01 C18.98 5.51, 19.23 6.04, 19.42 6.59 C19.62 7.13, 19.78 7.7, 19.88 8.28 C19.98 8.85, 20 9.72, 20.03 10.01 C20.05 10.3, 20.05 9.72, 20.03 10.01" stroke="#E1E1E1" stroke-width="4" fill="none"></path></g><g stroke-linecap="round" transform="translate(78.3357545033964 124.68615213974226) rotate(0 8.652038287298225 8.652038287298225)"><path d="M17.3 8.65 C17.3 9.15, 17.26 9.66, 17.17 10.15 C17.09 10.65, 16.95 11.14, 16.78 11.61 C16.61 12.08, 16.4 12.54, 16.14 12.98 C15.89 13.41, 15.6 13.83, 15.28 14.21 C14.96 14.6, 14.6 14.96, 14.21 15.28 C13.83 15.6, 13.41 15.89, 12.98 16.14 C12.54 16.4, 12.08 16.61, 11.61 16.78 C11.14 16.95, 10.65 17.09, 10.15 17.17 C9.66 17.26, 9.15 17.3, 8.65 17.3 C8.15 17.3, 7.64 17.26, 7.15 17.17 C6.66 17.09, 6.16 16.95, 5.69 16.78 C5.22 16.61, 4.76 16.4, 4.33 16.14 C3.89 15.89, 3.47 15.6, 3.09 15.28 C2.71 14.96, 2.35 14.6, 2.02 14.21 C1.7 13.83, 1.41 13.41, 1.16 12.98 C0.91 12.54, 0.69 12.08, 0.52 11.61 C0.35 11.14, 0.22 10.65, 0.13 10.15 C0.04 9.66, 0 9.15, 0 8.65 C0 8.15, 0.04 7.64, 0.13 7.15 C0.22 6.66, 0.35 6.16, 0.52 5.69 C0.69 5.22, 0.91 4.76, 1.16 4.33 C1.41 3.89, 1.7 3.47, 2.02 3.09 C2.35 2.71, 2.71 2.35, 3.09 2.02 C3.47 1.7, 3.89 1.41, 4.33 1.16 C4.76 0.91, 5.22 0.69, 5.69 0.52 C6.16 0.35, 6.66 0.22, 7.15 0.13 C7.64 0.04, 8.15 0, 8.65 0 C9.15 0, 9.66 0.04, 10.15 0.13 C10.65 0.22, 11.14 0.35, 11.61 0.52 C12.08 0.69, 12.54 0.91, 12.98 1.16 C13.41 1.41, 13.83 1.7, 14.21 2.02 C14.6 2.35, 14.96 2.71, 15.28 3.09 C15.6 3.47, 15.89 3.89, 16.14 4.33 C16.4 4.76, 16.61 5.22, 16.78 5.69 C16.95 6.16, 17.09 6.66, 17.17 7.15 C17.26 7.64, 17.28 8.4, 17.3 8.65 C17.33 8.9, 17.33 8.4, 17.3 8.65" stroke="#E1E1E1" stroke-width="4" fill="none"></path></g><g stroke-linecap="round" transform="translate(31.34963034281145 134.6226580608536) rotate(0 6.773909142060475 6.773909142060475)"><path d="M13.55 6.77 C13.55 7.17, 13.51 7.56, 13.44 7.95 C13.38 8.34, 13.27 8.72, 13.14 9.09 C13.01 9.46, 12.84 9.82, 12.64 10.16 C12.44 10.5, 12.22 10.83, 11.96 11.13 C11.71 11.43, 11.43 11.71, 11.13 11.96 C10.83 12.22, 10.5 12.44, 10.16 12.64 C9.82 12.84, 9.46 13.01, 9.09 13.14 C8.72 13.27, 8.34 13.38, 7.95 13.44 C7.56 13.51, 7.17 13.55, 6.77 13.55 C6.38 13.55, 5.98 13.51, 5.6 13.44 C5.21 13.38, 4.83 13.27, 4.46 13.14 C4.09 13.01, 3.73 12.84, 3.39 12.64 C3.05 12.44, 2.72 12.22, 2.42 11.96 C2.12 11.71, 1.84 11.43, 1.58 11.13 C1.33 10.83, 1.1 10.5, 0.91 10.16 C0.71 9.82, 0.54 9.46, 0.41 9.09 C0.27 8.72, 0.17 8.34, 0.1 7.95 C0.03 7.56, 0 7.17, 0 6.77 C0 6.38, 0.03 5.98, 0.1 5.6 C0.17 5.21, 0.27 4.83, 0.41 4.46 C0.54 4.09, 0.71 3.73, 0.91 3.39 C1.1 3.05, 1.33 2.72, 1.58 2.42 C1.84 2.12, 2.12 1.84, 2.42 1.58 C2.72 1.33, 3.05 1.1, 3.39 0.91 C3.73 0.71, 4.09 0.54, 4.46 0.41 C4.83 0.27, 5.21 0.17, 5.6 0.1 C5.98 0.03, 6.38 0, 6.77 0 C7.17 0, 7.56 0.03, 7.95 0.1 C8.34 0.17, 8.72 0.27, 9.09 0.41 C9.46 0.54, 9.82 0.71, 10.16 0.91 C10.5 1.1, 10.83 1.33, 11.13 1.58 C11.43 1.84, 11.71 2.12, 11.96 2.42 C12.22 2.72, 12.44 3.05, 12.64 3.39 C12.84 3.73, 13.01 4.09, 13.14 4.46 C13.27 4.83, 13.38 5.21, 13.44 5.6 C13.51 5.98, 13.53 6.58, 13.55 6.77 C13.56 6.97, 13.56 6.58, 13.55 6.77" stroke="#E1E1E1" stroke-width="4" fill="none"></path></g><g stroke-linecap="round" transform="translate(39.63827582614658 165.20213681475798) rotate(0 6.881333606032726 6.881333606032726)"><path d="M13.76 6.88 C13.76 7.28, 13.73 7.68, 13.66 8.08 C13.59 8.47, 13.48 8.86, 13.35 9.23 C13.21 9.61, 13.04 9.98, 12.84 10.32 C12.64 10.67, 12.41 11, 12.15 11.3 C11.9 11.61, 11.61 11.9, 11.3 12.15 C11 12.41, 10.67 12.64, 10.32 12.84 C9.98 13.04, 9.61 13.21, 9.23 13.35 C8.86 13.48, 8.47 13.59, 8.08 13.66 C7.68 13.73, 7.28 13.76, 6.88 13.76 C6.48 13.76, 6.08 13.73, 5.69 13.66 C5.29 13.59, 4.9 13.48, 4.53 13.35 C4.15 13.21, 3.79 13.04, 3.44 12.84 C3.1 12.64, 2.76 12.41, 2.46 12.15 C2.15 11.9, 1.87 11.61, 1.61 11.3 C1.35 11, 1.12 10.67, 0.92 10.32 C0.72 9.98, 0.55 9.61, 0.41 9.23 C0.28 8.86, 0.17 8.47, 0.1 8.08 C0.04 7.68, 0 7.28, 0 6.88 C0 6.48, 0.04 6.08, 0.1 5.69 C0.17 5.29, 0.28 4.9, 0.41 4.53 C0.55 4.15, 0.72 3.79, 0.92 3.44 C1.12 3.1, 1.35 2.76, 1.61 2.46 C1.87 2.15, 2.15 1.87, 2.46 1.61 C2.76 1.35, 3.1 1.12, 3.44 0.92 C3.79 0.72, 4.15 0.55, 4.53 0.41 C4.9 0.28, 5.29 0.17, 5.69 0.1 C6.08 0.04, 6.48 0, 6.88 0 C7.28 0, 7.68 0.04, 8.08 0.1 C8.47 0.17, 8.86 0.28, 9.23 0.41 C9.61 0.55, 9.98 0.72, 10.32 0.92 C10.67 1.12, 11 1.35, 11.3 1.61 C11.61 1.87, 11.9 2.15, 12.15 2.46 C12.41 2.76, 12.64 3.1, 12.84 3.44 C13.04 3.79, 13.21 4.15, 13.35 4.53 C13.48 4.9, 13.59 5.29, 13.66 5.69 C13.73 6.08, 13.75 6.68, 13.76 6.88 C13.78 7.08, 13.78 6.68, 13.76 6.88" stroke="#E1E1E1" stroke-width="4" fill="none"></path></g><g stroke-linecap="round" transform="translate(83.61548701020592 179.57337132511748) rotate(0 6.775451120012249 6.775451120012249)"><path d="M13.55 6.78 C13.55 7.17, 13.52 7.57, 13.45 7.95 C13.38 8.34, 13.28 8.72, 13.14 9.09 C13.01 9.46, 12.84 9.82, 12.64 10.16 C12.45 10.5, 12.22 10.83, 11.97 11.13 C11.71 11.43, 11.43 11.71, 11.13 11.97 C10.83 12.22, 10.5 12.45, 10.16 12.64 C9.82 12.84, 9.46 13.01, 9.09 13.14 C8.72 13.28, 8.34 13.38, 7.95 13.45 C7.57 13.52, 7.17 13.55, 6.78 13.55 C6.38 13.55, 5.99 13.52, 5.6 13.45 C5.21 13.38, 4.83 13.28, 4.46 13.14 C4.09 13.01, 3.73 12.84, 3.39 12.64 C3.05 12.45, 2.72 12.22, 2.42 11.97 C2.12 11.71, 1.84 11.43, 1.59 11.13 C1.33 10.83, 1.1 10.5, 0.91 10.16 C0.71 9.82, 0.54 9.46, 0.41 9.09 C0.27 8.72, 0.17 8.34, 0.1 7.95 C0.03 7.57, 0 7.17, 0 6.78 C0 6.38, 0.03 5.99, 0.1 5.6 C0.17 5.21, 0.27 4.83, 0.41 4.46 C0.54 4.09, 0.71 3.73, 0.91 3.39 C1.1 3.05, 1.33 2.72, 1.59 2.42 C1.84 2.12, 2.12 1.84, 2.42 1.59 C2.72 1.33, 3.05 1.1, 3.39 0.91 C3.73 0.71, 4.09 0.54, 4.46 0.41 C4.83 0.27, 5.21 0.17, 5.6 0.1 C5.99 0.03, 6.38 0, 6.78 0 C7.17 0, 7.57 0.03, 7.95 0.1 C8.34 0.17, 8.72 0.27, 9.09 0.41 C9.46 0.54, 9.82 0.71, 10.16 0.91 C10.5 1.1, 10.83 1.33, 11.13 1.59 C11.43 1.84, 11.71 2.12, 11.97 2.42 C12.22 2.72, 12.45 3.05, 12.64 3.39 C12.84 3.73, 13.01 4.09, 13.14 4.46 C13.28 4.83, 13.38 5.21, 13.45 5.6 C13.52 5.99, 13.53 6.58, 13.55 6.78 C13.57 6.97, 13.57 6.58, 13.55 6.78" stroke="#E1E1E1" stroke-width="4" fill="none"></path></g><g stroke-linecap="round" transform="translate(78.85694305108927 209.23794316098247) rotate(0 6.76260130374763 6.762601303747623)"><path d="M13.53 6.76 C13.53 7.15, 13.49 7.55, 13.42 7.94 C13.35 8.32, 13.25 8.71, 13.12 9.08 C12.98 9.44, 12.81 9.8, 12.62 10.14 C12.42 10.48, 12.19 10.81, 11.94 11.11 C11.69 11.41, 11.41 11.69, 11.11 11.94 C10.81 12.19, 10.48 12.42, 10.14 12.62 C9.8 12.81, 9.44 12.98, 9.08 13.12 C8.71 13.25, 8.32 13.35, 7.94 13.42 C7.55 13.49, 7.15 13.53, 6.76 13.53 C6.37 13.53, 5.97 13.49, 5.59 13.42 C5.2 13.35, 4.82 13.25, 4.45 13.12 C4.08 12.98, 3.72 12.81, 3.38 12.62 C3.04 12.42, 2.72 12.19, 2.42 11.94 C2.12 11.69, 1.83 11.41, 1.58 11.11 C1.33 10.81, 1.1 10.48, 0.91 10.14 C0.71 9.8, 0.54 9.44, 0.41 9.08 C0.27 8.71, 0.17 8.32, 0.1 7.94 C0.03 7.55, 0 7.15, 0 6.76 C0 6.37, 0.03 5.97, 0.1 5.59 C0.17 5.2, 0.27 4.82, 0.41 4.45 C0.54 4.08, 0.71 3.72, 0.91 3.38 C1.1 3.04, 1.33 2.72, 1.58 2.42 C1.83 2.12, 2.12 1.83, 2.42 1.58 C2.72 1.33, 3.04 1.1, 3.38 0.91 C3.72 0.71, 4.08 0.54, 4.45 0.41 C4.82 0.27, 5.2 0.17, 5.59 0.1 C5.97 0.03, 6.37 0, 6.76 0 C7.15 0, 7.55 0.03, 7.94 0.1 C8.32 0.17, 8.71 0.27, 9.08 0.41 C9.44 0.54, 9.8 0.71, 10.14 0.91 C10.48 1.1, 10.81 1.33, 11.11 1.58 C11.41 1.83, 11.69 2.12, 11.94 2.42 C12.19 2.72, 12.42 3.04, 12.62 3.38 C12.81 3.72, 12.98 4.08, 13.12 4.45 C13.25 4.82, 13.35 5.2, 13.42 5.59 C13.49 5.97, 13.51 6.57, 13.53 6.76 C13.54 6.96, 13.54 6.57, 13.53 6.76" stroke="#E1E1E1" stroke-width="4" fill="none"></path></g><g stroke-linecap="round" transform="translate(101.36056927900472 231.44550962215908) rotate(0 5.873394018235231 5.873394018235235)"><path d="M11.75 5.87 C11.75 6.21, 11.72 6.56, 11.66 6.89 C11.6 7.23, 11.51 7.56, 11.39 7.88 C11.28 8.2, 11.13 8.52, 10.96 8.81 C10.79 9.1, 10.59 9.39, 10.37 9.65 C10.15 9.91, 9.91 10.15, 9.65 10.37 C9.39 10.59, 9.1 10.79, 8.81 10.96 C8.52 11.13, 8.2 11.28, 7.88 11.39 C7.56 11.51, 7.23 11.6, 6.89 11.66 C6.56 11.72, 6.21 11.75, 5.87 11.75 C5.53 11.75, 5.19 11.72, 4.85 11.66 C4.52 11.6, 4.18 11.51, 3.86 11.39 C3.55 11.28, 3.23 11.13, 2.94 10.96 C2.64 10.79, 2.36 10.59, 2.1 10.37 C1.84 10.15, 1.59 9.91, 1.37 9.65 C1.16 9.39, 0.96 9.1, 0.79 8.81 C0.62 8.52, 0.47 8.2, 0.35 7.88 C0.24 7.56, 0.15 7.23, 0.09 6.89 C0.03 6.56, 0 6.21, 0 5.87 C0 5.53, 0.03 5.19, 0.09 4.85 C0.15 4.52, 0.24 4.18, 0.35 3.86 C0.47 3.55, 0.62 3.23, 0.79 2.94 C0.96 2.64, 1.16 2.36, 1.37 2.1 C1.59 1.84, 1.84 1.59, 2.1 1.37 C2.36 1.16, 2.64 0.96, 2.94 0.79 C3.23 0.62, 3.55 0.47, 3.86 0.35 C4.18 0.24, 4.52 0.15, 4.85 0.09 C5.19 0.03, 5.53 0, 5.87 0 C6.21 0, 6.56 0.03, 6.89 0.09 C7.23 0.15, 7.56 0.24, 7.88 0.35 C8.2 0.47, 8.52 0.62, 8.81 0.79 C9.1 0.96, 9.39 1.16, 9.65 1.37 C9.91 1.59, 10.15 1.84, 10.37 2.1 C10.59 2.36, 10.79 2.64, 10.96 2.94 C11.13 3.23, 11.28 3.55, 11.39 3.86 C11.51 4.18, 11.6 4.52, 11.66 4.85 C11.72 5.19, 11.73 5.7, 11.75 5.87 C11.76 6.04, 11.76 5.7, 11.75 5.87" stroke="#E1E1E1" stroke-width="4" fill="none"></path></g><g stroke-linecap="round"><g transform="translate(162.24367982999001 19.081293536146404) rotate(0 13.622903281865817 4.521461922934677)"><path d="M0 0 C4.54 1.51, 22.7 7.54, 27.25 9.04 M0 0 C4.54 1.51, 22.7 7.54, 27.25 9.04" stroke="#E1E1E1" stroke-width="4" fill="none"></path></g></g><mask></mask><g stroke-linecap="round"><g transform="translate(195.53542137555337 40.268044599424684) rotate(0 -3.6767629339369776 8.287313178326798)"><path d="M0 0 C-1.23 2.76, -6.13 13.81, -7.35 16.57 M0 0 C-1.23 2.76, -6.13 13.81, -7.35 16.57" stroke="#E1E1E1" stroke-width="4" fill="none"></path></g></g><mask></mask><g stroke-linecap="round"><g transform="translate(177.64953038763883 58.11746054556261) rotate(0 -9.680581050984145 -17.123457650685594)"><path d="M0 0 C-3.23 -5.71, -16.13 -28.54, -19.36 -34.25 M0 0 C-3.23 -5.71, -16.13 -28.54, -19.36 -34.25" stroke="#E1E1E1" stroke-width="4" fill="none"></path></g></g><mask></mask><g stroke-linecap="round"><g transform="translate(148.63691478603369 21.432490473524012) rotate(0 -14.55170479524206 10.721038177848513)"><path d="M0 0 C-4.85 3.57, -24.25 17.87, -29.1 21.44 M0 0 C-4.85 3.57, -24.25 17.87, -29.1 21.44" stroke="#E1E1E1" stroke-width="4" fill="none"></path></g></g><mask></mask><g stroke-linecap="round"><g transform="translate(110.9049273278165 25.653623725162106) rotate(0 0.21268360689109045 6.577972012023068)"><path d="M0 0 C0.07 2.19, 0.35 10.96, 0.43 13.16 M0 0 C0.07 2.19, 0.35 10.96, 0.43 13.16" stroke="#E1E1E1" stroke-width="4" fill="none"></path></g></g><mask></mask><g stroke-linecap="round"><g transform="translate(147.25716104755384 16.98096091485604) rotate(0 -14.092749053782754 0.29206274456498704)"><path d="M0 0 C-4.7 0.1, -23.49 0.49, -28.19 0.58 M0 0 C-4.7 0.1, -23.49 0.49, -28.19 0.58" stroke="#E1E1E1" stroke-width="4" fill="none"></path></g></g><mask></mask><g stroke-linecap="round"><g transform="translate(103.57344393122958 19.83414889477808) rotate(0 -15.21967039837773 6.261636308004228)"><path d="M0 0 C-5.07 2.09, -25.37 10.44, -30.44 12.52 M0 0 C-5.07 2.09, -25.37 10.44, -30.44 12.52" stroke="#E1E1E1" stroke-width="4" fill="none"></path></g></g><mask></mask><g stroke-linecap="round"><g transform="translate(74.95129496386335 38.43379609582371) rotate(0 14.10219582719202 3.790649035591045)"><path d="M0 0 C4.7 1.26, 23.5 6.32, 28.2 7.58 M0 0 C4.7 1.26, 23.5 6.32, 28.2 7.58" stroke="#E1E1E1" stroke-width="4" fill="none"></path></g></g><mask></mask><g stroke-linecap="round"><g transform="translate(66.17970344313699 48.92758689110997) rotate(0 0.7608588749921523 9.61366640600302)"><path d="M0 0 C0.25 3.2, 1.27 16.02, 1.52 19.23 M0 0 C0.25 3.2, 1.27 16.02, 1.52 19.23" stroke="#E1E1E1" stroke-width="4" fill="none"></path></g></g><mask></mask><g stroke-linecap="round"><g transform="translate(77.4402573467928 72.67152703415923) rotate(0 13.502456920899746 -9.540322706896134)"><path d="M0 0 C4.5 -3.18, 22.5 -15.9, 27 -19.08 M0 0 C4.5 -3.18, 22.5 -15.9, 27 -19.08" stroke="#E1E1E1" stroke-width="4" fill="none"></path></g></g><mask></mask><g stroke-linecap="round"><g transform="translate(55.61165051244325 44.47946866728125) rotate(0 -7.3871143955505545 6.525227527155579)"><path d="M0 0 C-2.46 2.18, -12.31 10.88, -14.77 13.05 M0 0 C-2.46 2.18, -12.31 10.88, -14.77 13.05" stroke="#E1E1E1" stroke-width="4" fill="none"></path></g></g><mask></mask><g stroke-linecap="round"><g transform="translate(41.18117930928247 66.72110942791096) rotate(0 8.908700940348112 4.1842645943039685)"><path d="M0 0 C2.97 1.39, 14.85 6.97, 17.82 8.37 M0 0 C2.97 1.39, 14.85 6.97, 17.82 8.37" stroke="#E1E1E1" stroke-width="4" fill="none"></path></g></g><mask></mask><g stroke-linecap="round"><g transform="translate(31.37437886914131 71.53738940431958) rotate(0 -5.19900550466572 15.249978796398608)"><path d="M0 0 C-1.73 5.08, -8.67 25.42, -10.4 30.5 M0 0 C-1.73 5.08, -8.67 25.42, -10.4 30.5" stroke="#E1E1E1" stroke-width="4" fill="none"></path></g></g><mask></mask><g stroke-linecap="round"><g transform="translate(24.50001434140586 106.27370005035846) rotate(0 17.292318725373363 -10.392500391509373)"><path d="M0 0 C5.76 -3.46, 28.82 -17.32, 34.58 -20.79 M0 0 C5.76 -3.46, 28.82 -17.32, 34.58 -20.79" stroke="#E1E1E1" stroke-width="4" fill="none"></path></g></g><mask></mask><g stroke-linecap="round"><g transform="translate(74.47816906229718 89.16401894422597) rotate(0 4.947091547089457 17.7140121939412)"><path d="M0 0 C1.65 5.9, 8.25 29.52, 9.89 35.43 M0 0 C1.65 5.9, 8.25 29.52, 9.89 35.43" stroke="#E1E1E1" stroke-width="4" fill="none"></path></g></g><mask></mask><g stroke-linecap="round"><g transform="translate(92.52386796704786 125.93952059476942) rotate(0 8.640648744864862 -10.946711098177218)"><path d="M0 0 C2.88 -3.65, 14.4 -18.24, 17.28 -21.89 M0 0 C2.88 -3.65, 14.4 -18.24, 17.28 -21.89" stroke="#E1E1E1" stroke-width="4" fill="none"></path></g></g><mask></mask><g stroke-linecap="round"><g transform="translate(104.96054516014055 90.11788064817483) rotate(0 -12.989707053083166 -3.2692396254828964)"><path d="M0 0 C-4.33 -1.09, -21.65 -5.45, -25.98 -6.54 M0 0 C-4.33 -1.09, -21.65 -5.45, -25.98 -6.54" stroke="#E1E1E1" stroke-width="4" fill="none"></path></g></g><mask></mask><g stroke-linecap="round"><g transform="translate(113.47313764323235 57.21555609536699) rotate(0 1.4924589934530843 10.887275148811625)"><path d="M0 0 C0.5 3.63, 2.49 18.15, 2.98 21.77 M0 0 C0.5 3.63, 2.49 18.15, 2.98 21.77" stroke="#E1E1E1" stroke-width="4" fill="none"></path></g></g><mask></mask><g stroke-linecap="round"><g transform="translate(173.10379550525136 64.84907383067002) rotate(0 -25.95396030003633 -7.103055167345929)"><path d="M0 0 C-8.65 -2.37, -43.26 -11.84, -51.91 -14.21 M0 0 C-8.65 -2.37, -43.26 -11.84, -51.91 -14.21" stroke="#E1E1E1" stroke-width="4" fill="none"></path></g></g><mask></mask><g stroke-linecap="round"><g transform="translate(208.57223109049733 38.176371520425164) rotate(0 18.176510475429613 15.236333457029929)"><path d="M0 0 C6.06 5.08, 30.29 25.39, 36.35 30.47 M0 0 C6.06 5.08, 30.29 25.39, 36.35 30.47" stroke="#E1E1E1" stroke-width="4" fill="none"></path></g></g><mask></mask><g stroke-linecap="round"><g transform="translate(243.8454333586203 73.63588515300489) rotate(0 -24.37543070441123 -2.089836206392789)"><path d="M0 0 C-8.13 -0.7, -40.63 -3.48, -48.75 -4.18 M0 0 C-8.13 -0.7, -40.63 -3.48, -48.75 -4.18" stroke="#E1E1E1" stroke-width="4" fill="none"></path></g></g><mask></mask><g stroke-linecap="round"><g transform="translate(244.71952230933562 78.16088961596688) rotate(0 -16.207120630002123 10.283731292118517)"><path d="M0 0 C-5.4 3.43, -27.01 17.14, -32.41 20.57 M0 0 C-5.4 3.43, -27.01 17.14, -32.41 20.57" stroke="#E1E1E1" stroke-width="4" fill="none"></path></g></g><mask></mask><g stroke-linecap="round"><g transform="translate(250.5888551104897 82.5809299299417) rotate(0 -1.8080074663543648 11.383493163162242)"><path d="M0 0 C-0.6 3.79, -3.01 18.97, -3.62 22.77 M0 0 C-0.6 3.79, -3.01 18.97, -3.62 22.77" stroke="#E1E1E1" stroke-width="4" fill="none"></path></g></g><mask></mask><g stroke-linecap="round"><g transform="translate(237.22823099591437 112.4563508362462) rotate(0 -11.757296738753212 -2.6521816346073592)"><path d="M0 0 C-3.92 -0.88, -19.6 -4.42, -23.51 -5.3 M0 0 C-3.92 -0.88, -19.6 -4.42, -23.51 -5.3" stroke="#E1E1E1" stroke-width="4" fill="none"></path></g></g><mask></mask><g stroke-linecap="round"><g transform="translate(238.8323456028545 119.3328146469612) rotate(0 -16.241233978423693 13.450237256777214)"><path d="M0 0 C-5.41 4.48, -27.07 22.42, -32.48 26.9 M0 0 C-5.41 4.48, -27.07 22.42, -32.48 26.9" stroke="#E1E1E1" stroke-width="4" fill="none"></path></g></g><mask></mask><g stroke-linecap="round"><g transform="translate(199.7520936508597 143.65930581690463) rotate(0 1.0336344571800282 -13.776806965322763)"><path d="M0 0 C0.34 -4.59, 1.72 -22.96, 2.07 -27.55 M0 0 C0.34 -4.59, 1.72 -22.96, 2.07 -27.55" stroke="#E1E1E1" stroke-width="4" fill="none"></path></g></g><mask></mask><g stroke-linecap="round"><g transform="translate(191.97766154553278 108.80359845139174) rotate(0 -10.589832991610919 3.6265113476079165)"><path d="M0 0 C-3.53 1.21, -17.65 6.04, -21.18 7.25 M0 0 C-3.53 1.21, -17.65 6.04, -21.18 7.25" stroke="#E1E1E1" stroke-width="4" fill="none"></path></g></g><mask></mask><g stroke-linecap="round"><g transform="translate(193.0160193894178 147.00608770745566) rotate(0 -12.176628513968609 -9.3313128452195)"><path d="M0 0 C-4.06 -3.11, -20.29 -15.55, -24.35 -18.66 M0 0 C-4.06 -3.11, -20.29 -15.55, -24.35 -18.66" stroke="#E1E1E1" stroke-width="4" fill="none"></path></g></g><mask></mask><g stroke-linecap="round"><g transform="translate(178.29348544169693 77.44004832277824) rotate(0 -7.268373702005363 15.002394609968249)"><path d="M0 0 C-2.42 5, -12.11 25, -14.54 30 M0 0 C-2.42 5, -12.11 25, -14.54 30" stroke="#E1E1E1" stroke-width="4" fill="none"></path></g></g><mask></mask><g stroke-linecap="round"><g transform="translate(188.83503492477098 77.7006218226461) rotate(0 4.280044380257465 8.031463065163464)"><path d="M0 0 C1.43 2.68, 7.13 13.39, 8.56 16.06 M0 0 C1.43 2.68, 7.13 13.39, 8.56 16.06" stroke="#E1E1E1" stroke-width="4" fill="none"></path></g></g><mask></mask><g stroke-linecap="round"><g transform="translate(173.2772487614609 71.32404977149963) rotate(0 -20.883404672697296 8.414188593418473)"><path d="M0 0 C-6.96 2.8, -34.81 14.02, -41.77 16.83 M0 0 C-6.96 2.8, -34.81 14.02, -41.77 16.83" stroke="#E1E1E1" stroke-width="4" fill="none"></path></g></g><mask></mask><g stroke-linecap="round"><g transform="translate(130.47654254850977 100.14195687672873) rotate(0 7.828095026495269 5.815932290355022)"><path d="M0 0 C2.61 1.94, 13.05 9.69, 15.66 11.63 M0 0 C2.61 1.94, 13.05 9.69, 15.66 11.63" stroke="#E1E1E1" stroke-width="4" fill="none"></path></g></g><mask></mask><g stroke-linecap="round"><g transform="translate(143.74191169788037 122.36995229798958) rotate(0 -23.944552872807506 4.3889446848348115)"><path d="M0 0 C-7.98 1.46, -39.91 7.31, -47.89 8.78 M0 0 C-7.98 1.46, -39.91 7.31, -47.89 8.78" stroke="#E1E1E1" stroke-width="4" fill="none"></path></g></g><mask></mask><g stroke-linecap="round"><g transform="translate(94.36021575362838 138.62968620767333) rotate(0 12.225830458807764 9.310451220607895)"><path d="M0 0 C4.08 3.1, 20.38 15.52, 24.45 18.62 M0 0 C4.08 3.1, 20.38 15.52, 24.45 18.62" stroke="#E1E1E1" stroke-width="4" fill="none"></path></g></g><mask></mask><g stroke-linecap="round"><g transform="translate(132.87051237660535 155.09829877384618) rotate(0 8.257398395864634 -11.889813976853077)"><path d="M0 0 C2.75 -3.96, 13.76 -19.82, 16.51 -23.78 M0 0 C2.75 -3.96, 13.76 -19.82, 16.51 -23.78" stroke="#E1E1E1" stroke-width="4" fill="none"></path></g></g><mask></mask><g stroke-linecap="round"><g transform="translate(137.773125365557 165.76790451868692) rotate(0 12.907310196126126 3.0564248134054424)"><path d="M0 0 C4.3 1.02, 21.51 5.09, 25.81 6.11 M0 0 C4.3 1.02, 21.51 5.09, 25.81 6.11" stroke="#E1E1E1" stroke-width="4" fill="none"></path></g></g><mask></mask><g stroke-linecap="round"><g transform="translate(175.83365061011023 170.01685326980441) rotate(0 8.610077936471512 -7.2759836028072655)"><path d="M0 0 C2.87 -2.43, 14.35 -12.13, 17.22 -14.55 M0 0 C2.87 -2.43, 14.35 -12.13, 17.22 -14.55" stroke="#E1E1E1" stroke-width="4" fill="none"></path></g></g><mask></mask><g stroke-linecap="round"><g transform="translate(191.96716513063143 153.24699359603073) rotate(0 -27.330696319227485 4.783085064292429)"><path d="M0 0 C-9.11 1.59, -45.55 7.97, -54.66 9.57 M0 0 C-9.11 1.59, -45.55 7.97, -54.66 9.57" stroke="#E1E1E1" stroke-width="4" fill="none"></path></g></g><mask></mask><g stroke-linecap="round"><g transform="translate(117.88924180162076 169.57757830627997) rotate(0 -10.463219986891588 6.507646032199709)"><path d="M0 0 C-3.49 2.17, -17.44 10.85, -20.93 13.02 M0 0 C-3.49 2.17, -17.44 10.85, -20.93 13.02" stroke="#E1E1E1" stroke-width="4" fill="none"></path></g></g><mask></mask><g stroke-linecap="round"><g transform="translate(115.9820432144702 164.92399276080323) rotate(0 -30.866151267585494 3.209278855371579)"><path d="M0 0 C-10.29 1.07, -51.44 5.35, -61.73 6.42 M0 0 C-10.29 1.07, -51.44 5.35, -61.73 6.42" stroke="#E1E1E1" stroke-width="4" fill="none"></path></g></g><mask></mask><g stroke-linecap="round"><g transform="translate(53.223716122919086 175.40518785820677) rotate(0 15.046873168102763 4.498894630901816)"><path d="M0 0 C5.02 1.5, 25.08 7.5, 30.09 9 M0 0 C5.02 1.5, 25.08 7.5, 30.09 9" stroke="#E1E1E1" stroke-width="4" fill="none"></path></g></g><mask></mask><g stroke-linecap="round"><g transform="translate(44.081863566626 164.92792891638965) rotate(0 -2.2348179371854258 -8.095097580488726)"><path d="M0 0 C-0.74 -2.7, -3.72 -13.49, -4.47 -16.19 M0 0 C-0.74 -2.7, -3.72 -13.49, -4.47 -16.19" stroke="#E1E1E1" stroke-width="4" fill="none"></path></g></g><mask></mask><g stroke-linecap="round"><g transform="translate(51.97149382546604 167.00228291080657) rotate(0 14.232482577125808 -13.613850124015528)"><path d="M0 0 C4.74 -4.54, 23.72 -22.69, 28.46 -27.23 M0 0 C4.74 -4.54, 23.72 -22.69, 28.46 -27.23" stroke="#E1E1E1" stroke-width="4" fill="none"></path></g></g><mask></mask><g stroke-linecap="round"><g transform="translate(45.1716538435162 139.73338423429777) rotate(0 16.278627456501525 -2.256729203287094)"><path d="M0 0 C5.43 -0.75, 27.13 -3.76, 32.56 -4.51 M0 0 C5.43 -0.75, 27.13 -3.76, 32.56 -4.51" stroke="#E1E1E1" stroke-width="4" fill="none"></path></g></g><mask></mask><g stroke-linecap="round"><g transform="translate(78.31250942490306 130.2963200089689) rotate(0 -26.861637778427706 -9.763240318313919)"><path d="M0 0 C-8.95 -3.25, -44.77 -16.27, -53.72 -19.53 M0 0 C-8.95 -3.25, -44.77 -16.27, -53.72 -19.53" stroke="#E1E1E1" stroke-width="4" fill="none"></path></g></g><mask></mask><g stroke-linecap="round"><g transform="translate(21.62872004578503 113.90170716783632) rotate(0 6.099991518559392 10.549290589063474)"><path d="M0 0 C2.03 3.52, 10.17 17.58, 12.2 21.1 M0 0 C2.03 3.52, 10.17 17.58, 12.2 21.1" stroke="#E1E1E1" stroke-width="4" fill="none"></path></g></g><mask></mask><g stroke-linecap="round"><g transform="translate(124.4680923387391 174.35988266514414) rotate(0 -7.950029078596799 28.0620459130135)"><path d="M0 0 C-2.65 9.35, -13.25 46.77, -15.9 56.12 M0 0 C-2.65 9.35, -13.25 46.77, -15.9 56.12" stroke="#E1E1E1" stroke-width="4" fill="none"></path></g></g><mask></mask><g stroke-linecap="round"><g transform="translate(103.03399589416085 232.26391716978833) rotate(0 -5.641636108472511 -5.927418973699396)"><path d="M0 0 C-1.88 -1.98, -9.4 -9.88, -11.28 -11.85 M0 0 C-1.88 -1.98, -9.4 -9.88, -11.28 -11.85" stroke="#E1E1E1" stroke-width="4" fill="none"></path></g></g><mask></mask><g stroke-linecap="round"><g transform="translate(86.2174484949469 208.86673281920957) rotate(0 1.327230569682328 -7.62380164232281)"><path d="M0 0 C0.44 -2.54, 2.21 -12.71, 2.65 -15.25 M0 0 C0.44 -2.54, 2.21 -12.71, 2.65 -15.25" stroke="#E1E1E1" stroke-width="4" fill="none"></path></g></g><mask></mask><g stroke-linecap="round"><g transform="translate(30.279799091440964 437.36133548414455) rotate(0 6.946467925598881 -122.39916609722236)"><path d="M0 0 C2.86 -5.3, 12.66 -20.75, 17.13 -31.8 C21.6 -42.85, 25.9 -55.02, 26.83 -66.29 C27.76 -77.57, 25.47 -89.07, 22.69 -99.46 C19.92 -109.84, 14.56 -120.13, 10.16 -128.62 C5.76 -137.11, 0.35 -143.06, -3.72 -150.4 C-7.8 -157.74, -11.67 -165.28, -14.28 -172.65 C-16.89 -180.02, -19.04 -187.13, -19.4 -194.63 C-19.76 -202.13, -16.38 -210.06, -16.42 -217.64 C-16.46 -225.21, -22.12 -235.55, -19.66 -240.07 C-17.19 -244.6, -10.49 -244.27, -1.62 -244.8 C7.25 -245.32, 27.69 -243.48, 33.55 -243.22 M0 0 C2.86 -5.3, 12.66 -20.75, 17.13 -31.8 C21.6 -42.85, 25.9 -55.02, 26.83 -66.29 C27.76 -77.57, 25.47 -89.07, 22.69 -99.46 C19.92 -109.84, 14.56 -120.13, 10.16 -128.62 C5.76 -137.11, 0.35 -143.06, -3.72 -150.4 C-7.8 -157.74, -11.67 -165.28, -14.28 -172.65 C-16.89 -180.02, -19.04 -187.13, -19.4 -194.63 C-19.76 -202.13, -16.38 -210.06, -16.42 -217.64 C-16.46 -225.21, -22.12 -235.55, -19.66 -240.07 C-17.19 -244.6, -10.49 -244.27, -1.62 -244.8 C7.25 -245.32, 27.69 -243.48, 33.55 -243.22" stroke="#E1E1E1" stroke-width="2" fill="none"></path></g></g><mask></mask></svg>