<svg version="1.1" xmlns="http://www.w3.org/2000/svg" viewBox="0 0 322.88690615061364 335.3426970292239" width="322.88690615061364" height="335.3426970292239" class="excalidraw-svg"><!-- svg-source:excalidraw --><metadata></metadata><defs><style class="style-fonts">
      </style></defs><rect x="0" y="0" width="322.88690615061364" height="335.3426970292239" fill="#000000"></rect><g stroke-linecap="round" transform="translate(10 31.988191939604803) rotate(0 13.801170044274208 13.801170044274201)"><path d="M27.6 13.8 C27.6 14.6, 27.53 15.41, 27.39 16.2 C27.25 16.98, 27.04 17.77, 26.77 18.52 C26.5 19.27, 26.15 20.01, 25.75 20.7 C25.35 21.39, 24.89 22.06, 24.37 22.67 C23.86 23.28, 23.28 23.86, 22.67 24.37 C22.06 24.89, 21.39 25.35, 20.7 25.75 C20.01 26.15, 19.27 26.5, 18.52 26.77 C17.77 27.04, 16.98 27.25, 16.2 27.39 C15.41 27.53, 14.6 27.6, 13.8 27.6 C13 27.6, 12.19 27.53, 11.4 27.39 C10.62 27.25, 9.83 27.04, 9.08 26.77 C8.33 26.5, 7.59 26.15, 6.9 25.75 C6.21 25.35, 5.54 24.89, 4.93 24.37 C4.32 23.86, 3.74 23.28, 3.23 22.67 C2.72 22.06, 2.25 21.39, 1.85 20.7 C1.45 20.01, 1.11 19.27, 0.83 18.52 C0.56 17.77, 0.35 16.98, 0.21 16.2 C0.07 15.41, 0 14.6, 0 13.8 C0 13, 0.07 12.19, 0.21 11.4 C0.35 10.62, 0.56 9.83, 0.83 9.08 C1.11 8.33, 1.45 7.59, 1.85 6.9 C2.25 6.21, 2.72 5.54, 3.23 4.93 C3.74 4.32, 4.32 3.74, 4.93 3.23 C5.54 2.72, 6.21 2.25, 6.9 1.85 C7.59 1.45, 8.33 1.11, 9.08 0.83 C9.83 0.56, 10.62 0.35, 11.4 0.21 C12.19 0.07, 13 0, 13.8 0 C14.6 0, 15.41 0.07, 16.2 0.21 C16.98 0.35, 17.77 0.56, 18.52 0.83 C19.27 1.11, 20.01 1.45, 20.7 1.85 C21.39 2.25, 22.06 2.72, 22.67 3.23 C23.28 3.74, 23.86 4.32, 24.37 4.93 C24.89 5.54, 25.35 6.21, 25.75 6.9 C26.15 7.59, 26.5 8.33, 26.77 9.08 C27.04 9.83, 27.25 10.62, 27.39 11.4 C27.53 12.19, 27.57 13.4, 27.6 13.8 C27.64 14.2, 27.64 13.4, 27.6 13.8" stroke="#E1E1E1" stroke-width="4" fill="none"></path></g><g stroke-linecap="round" transform="translate(73.80016520386744 10) rotate(0 13.801170044274206 13.801170044274201)"><path d="M27.6 13.8 C27.6 14.6, 27.53 15.41, 27.39 16.2 C27.25 16.98, 27.04 17.77, 26.77 18.52 C26.5 19.27, 26.15 20.01, 25.75 20.7 C25.35 21.39, 24.89 22.06, 24.37 22.67 C23.86 23.28, 23.28 23.86, 22.67 24.37 C22.06 24.89, 21.39 25.35, 20.7 25.75 C20.01 26.15, 19.27 26.5, 18.52 26.77 C17.77 27.04, 16.98 27.25, 16.2 27.39 C15.41 27.53, 14.6 27.6, 13.8 27.6 C13 27.6, 12.19 27.53, 11.4 27.39 C10.62 27.25, 9.83 27.04, 9.08 26.77 C8.33 26.5, 7.59 26.15, 6.9 25.75 C6.21 25.35, 5.54 24.89, 4.93 24.37 C4.32 23.86, 3.74 23.28, 3.23 22.67 C2.72 22.06, 2.25 21.39, 1.85 20.7 C1.45 20.01, 1.11 19.27, 0.83 18.52 C0.56 17.77, 0.35 16.98, 0.21 16.2 C0.07 15.41, 0 14.6, 0 13.8 C0 13, 0.07 12.19, 0.21 11.4 C0.35 10.62, 0.56 9.83, 0.83 9.08 C1.11 8.33, 1.45 7.59, 1.85 6.9 C2.25 6.21, 2.72 5.54, 3.23 4.93 C3.74 4.32, 4.32 3.74, 4.93 3.23 C5.54 2.72, 6.21 2.25, 6.9 1.85 C7.59 1.45, 8.33 1.11, 9.08 0.83 C9.83 0.56, 10.62 0.35, 11.4 0.21 C12.19 0.07, 13 0, 13.8 0 C14.6 0, 15.41 0.07, 16.2 0.21 C16.98 0.35, 17.77 0.56, 18.52 0.83 C19.27 1.11, 20.01 1.45, 20.7 1.85 C21.39 2.25, 22.06 2.72, 22.67 3.23 C23.28 3.74, 23.86 4.32, 24.37 4.93 C24.89 5.54, 25.35 6.21, 25.75 6.9 C26.15 7.59, 26.5 8.33, 26.77 9.08 C27.04 9.83, 27.25 10.62, 27.39 11.4 C27.53 12.19, 27.57 13.4, 27.6 13.8 C27.64 14.2, 27.64 13.4, 27.6 13.8" stroke="#E1E1E1" stroke-width="4" fill="none"></path></g><g stroke-linecap="round" transform="translate(126.67727150426799 53.5312922604453) rotate(0 13.801170044274208 13.801170044274201)"><path d="M27.6 13.8 C27.6 14.6, 27.53 15.41, 27.39 16.2 C27.25 16.98, 27.04 17.77, 26.77 18.52 C26.5 19.27, 26.15 20.01, 25.75 20.7 C25.35 21.39, 24.89 22.06, 24.37 22.67 C23.86 23.28, 23.28 23.86, 22.67 24.37 C22.06 24.89, 21.39 25.35, 20.7 25.75 C20.01 26.15, 19.27 26.5, 18.52 26.77 C17.77 27.04, 16.98 27.25, 16.2 27.39 C15.41 27.53, 14.6 27.6, 13.8 27.6 C13 27.6, 12.19 27.53, 11.4 27.39 C10.62 27.25, 9.83 27.04, 9.08 26.77 C8.33 26.5, 7.59 26.15, 6.9 25.75 C6.21 25.35, 5.54 24.89, 4.93 24.37 C4.32 23.86, 3.74 23.28, 3.23 22.67 C2.72 22.06, 2.25 21.39, 1.85 20.7 C1.45 20.01, 1.11 19.27, 0.83 18.52 C0.56 17.77, 0.35 16.98, 0.21 16.2 C0.07 15.41, 0 14.6, 0 13.8 C0 13, 0.07 12.19, 0.21 11.4 C0.35 10.62, 0.56 9.83, 0.83 9.08 C1.11 8.33, 1.45 7.59, 1.85 6.9 C2.25 6.21, 2.72 5.54, 3.23 4.93 C3.74 4.32, 4.32 3.74, 4.93 3.23 C5.54 2.72, 6.21 2.25, 6.9 1.85 C7.59 1.45, 8.33 1.11, 9.08 0.83 C9.83 0.56, 10.62 0.35, 11.4 0.21 C12.19 0.07, 13 0, 13.8 0 C14.6 0, 15.41 0.07, 16.2 0.21 C16.98 0.35, 17.77 0.56, 18.52 0.83 C19.27 1.11, 20.01 1.45, 20.7 1.85 C21.39 2.25, 22.06 2.72, 22.67 3.23 C23.28 3.74, 23.86 4.32, 24.37 4.93 C24.89 5.54, 25.35 6.21, 25.75 6.9 C26.15 7.59, 26.5 8.33, 26.77 9.08 C27.04 9.83, 27.25 10.62, 27.39 11.4 C27.53 12.19, 27.57 13.4, 27.6 13.8 C27.64 14.2, 27.64 13.4, 27.6 13.8" stroke="#E1E1E1" stroke-width="4" fill="none"></path></g><g stroke-linecap="round" transform="translate(190.56068327024332 21.239395839495046) rotate(0 13.801170044274201 13.801170044274201)"><path d="M27.6 13.8 C27.6 14.6, 27.53 15.41, 27.39 16.2 C27.25 16.98, 27.04 17.77, 26.77 18.52 C26.5 19.27, 26.15 20.01, 25.75 20.7 C25.35 21.39, 24.89 22.06, 24.37 22.67 C23.86 23.28, 23.28 23.86, 22.67 24.37 C22.06 24.89, 21.39 25.35, 20.7 25.75 C20.01 26.15, 19.27 26.5, 18.52 26.77 C17.77 27.04, 16.98 27.25, 16.2 27.39 C15.41 27.53, 14.6 27.6, 13.8 27.6 C13 27.6, 12.19 27.53, 11.4 27.39 C10.62 27.25, 9.83 27.04, 9.08 26.77 C8.33 26.5, 7.59 26.15, 6.9 25.75 C6.21 25.35, 5.54 24.89, 4.93 24.37 C4.32 23.86, 3.74 23.28, 3.23 22.67 C2.72 22.06, 2.25 21.39, 1.85 20.7 C1.45 20.01, 1.11 19.27, 0.83 18.52 C0.56 17.77, 0.35 16.98, 0.21 16.2 C0.07 15.41, 0 14.6, 0 13.8 C0 13, 0.07 12.19, 0.21 11.4 C0.35 10.62, 0.56 9.83, 0.83 9.08 C1.11 8.33, 1.45 7.59, 1.85 6.9 C2.25 6.21, 2.72 5.54, 3.23 4.93 C3.74 4.32, 4.32 3.74, 4.93 3.23 C5.54 2.72, 6.21 2.25, 6.9 1.85 C7.59 1.45, 8.33 1.11, 9.08 0.83 C9.83 0.56, 10.62 0.35, 11.4 0.21 C12.19 0.07, 13 0, 13.8 0 C14.6 0, 15.41 0.07, 16.2 0.21 C16.98 0.35, 17.77 0.56, 18.52 0.83 C19.27 1.11, 20.01 1.45, 20.7 1.85 C21.39 2.25, 22.06 2.72, 22.67 3.23 C23.28 3.74, 23.86 4.32, 24.37 4.93 C24.89 5.54, 25.35 6.21, 25.75 6.9 C26.15 7.59, 26.5 8.33, 26.77 9.08 C27.04 9.83, 27.25 10.62, 27.39 11.4 C27.53 12.19, 27.57 13.4, 27.6 13.8 C27.64 14.2, 27.64 13.4, 27.6 13.8" stroke="#E1E1E1" stroke-width="4" fill="none"></path></g><g stroke-linecap="round" transform="translate(243.35565296269124 11.439610547480697) rotate(0 13.801170044274201 13.801170044274201)"><path d="M27.6 13.8 C27.6 14.6, 27.53 15.41, 27.39 16.2 C27.25 16.98, 27.04 17.77, 26.77 18.52 C26.5 19.27, 26.15 20.01, 25.75 20.7 C25.35 21.39, 24.89 22.06, 24.37 22.67 C23.86 23.28, 23.28 23.86, 22.67 24.37 C22.06 24.89, 21.39 25.35, 20.7 25.75 C20.01 26.15, 19.27 26.5, 18.52 26.77 C17.77 27.04, 16.98 27.25, 16.2 27.39 C15.41 27.53, 14.6 27.6, 13.8 27.6 C13 27.6, 12.19 27.53, 11.4 27.39 C10.62 27.25, 9.83 27.04, 9.08 26.77 C8.33 26.5, 7.59 26.15, 6.9 25.75 C6.21 25.35, 5.54 24.89, 4.93 24.37 C4.32 23.86, 3.74 23.28, 3.23 22.67 C2.72 22.06, 2.25 21.39, 1.85 20.7 C1.45 20.01, 1.11 19.27, 0.83 18.52 C0.56 17.77, 0.35 16.98, 0.21 16.2 C0.07 15.41, 0 14.6, 0 13.8 C0 13, 0.07 12.19, 0.21 11.4 C0.35 10.62, 0.56 9.83, 0.83 9.08 C1.11 8.33, 1.45 7.59, 1.85 6.9 C2.25 6.21, 2.72 5.54, 3.23 4.93 C3.74 4.32, 4.32 3.74, 4.93 3.23 C5.54 2.72, 6.21 2.25, 6.9 1.85 C7.59 1.45, 8.33 1.11, 9.08 0.83 C9.83 0.56, 10.62 0.35, 11.4 0.21 C12.19 0.07, 13 0, 13.8 0 C14.6 0, 15.41 0.07, 16.2 0.21 C16.98 0.35, 17.77 0.56, 18.52 0.83 C19.27 1.11, 20.01 1.45, 20.7 1.85 C21.39 2.25, 22.06 2.72, 22.67 3.23 C23.28 3.74, 23.86 4.32, 24.37 4.93 C24.89 5.54, 25.35 6.21, 25.75 6.9 C26.15 7.59, 26.5 8.33, 26.77 9.08 C27.04 9.83, 27.25 10.62, 27.39 11.4 C27.53 12.19, 27.57 13.4, 27.6 13.8 C27.64 14.2, 27.64 13.4, 27.6 13.8" stroke="#E1E1E1" stroke-width="4" fill="none"></path></g><g stroke-linecap="round" transform="translate(285.1598565478216 48.408853805051876) rotate(0 13.801170044274201 13.801170044274201)"><path d="M27.6 13.8 C27.6 14.6, 27.53 15.41, 27.39 16.2 C27.25 16.98, 27.04 17.77, 26.77 18.52 C26.5 19.27, 26.15 20.01, 25.75 20.7 C25.35 21.39, 24.89 22.06, 24.37 22.67 C23.86 23.28, 23.28 23.86, 22.67 24.37 C22.06 24.89, 21.39 25.35, 20.7 25.75 C20.01 26.15, 19.27 26.5, 18.52 26.77 C17.77 27.04, 16.98 27.25, 16.2 27.39 C15.41 27.53, 14.6 27.6, 13.8 27.6 C13 27.6, 12.19 27.53, 11.4 27.39 C10.62 27.25, 9.83 27.04, 9.08 26.77 C8.33 26.5, 7.59 26.15, 6.9 25.75 C6.21 25.35, 5.54 24.89, 4.93 24.37 C4.32 23.86, 3.74 23.28, 3.23 22.67 C2.72 22.06, 2.25 21.39, 1.85 20.7 C1.45 20.01, 1.11 19.27, 0.83 18.52 C0.56 17.77, 0.35 16.98, 0.21 16.2 C0.07 15.41, 0 14.6, 0 13.8 C0 13, 0.07 12.19, 0.21 11.4 C0.35 10.62, 0.56 9.83, 0.83 9.08 C1.11 8.33, 1.45 7.59, 1.85 6.9 C2.25 6.21, 2.72 5.54, 3.23 4.93 C3.74 4.32, 4.32 3.74, 4.93 3.23 C5.54 2.72, 6.21 2.25, 6.9 1.85 C7.59 1.45, 8.33 1.11, 9.08 0.83 C9.83 0.56, 10.62 0.35, 11.4 0.21 C12.19 0.07, 13 0, 13.8 0 C14.6 0, 15.41 0.07, 16.2 0.21 C16.98 0.35, 17.77 0.56, 18.52 0.83 C19.27 1.11, 20.01 1.45, 20.7 1.85 C21.39 2.25, 22.06 2.72, 22.67 3.23 C23.28 3.74, 23.86 4.32, 24.37 4.93 C24.89 5.54, 25.35 6.21, 25.75 6.9 C26.15 7.59, 26.5 8.33, 26.77 9.08 C27.04 9.83, 27.25 10.62, 27.39 11.4 C27.53 12.19, 27.57 13.4, 27.6 13.8 C27.64 14.2, 27.64 13.4, 27.6 13.8" stroke="#E1E1E1" stroke-width="4" fill="none"></path></g><g stroke-linecap="round"><g transform="translate(256.7971978586211 40.16633420164544) rotate(0 -7.6065158688602565 51.81155030534579)"><path d="M0 0 C0.06 9.28, 0.13 18.57, 0.26 38.31 M0 0 C0.09 13.83, 0.19 27.65, 0.26 38.31 M0.26 38.31 C-3.98 42.47, -8.23 46.63, -15.47 53.73 M0.26 38.31 C-5.99 44.43, -12.23 50.55, -15.47 53.73 M-15.47 53.73 C-15.34 69.99, -15.2 86.25, -15.06 103.62 M-15.47 53.73 C-15.36 66.81, -15.26 79.89, -15.06 103.62" stroke="#E1E1E1" stroke-width="4" fill="none"></path></g></g><mask></mask><g stroke-linecap="round"><g transform="translate(257.05581717825225 78.49860116955642) rotate(0 8.315776578068395 46.535383198585315)"><path d="M0 0 C4.79 4.68, 9.59 9.36, 15.73 15.37 M0 0 C4.95 4.83, 9.89 9.66, 15.73 15.37 M15.73 15.37 C16.03 41.07, 16.33 66.77, 16.63 93.07 M15.73 15.37 C15.94 34.02, 16.16 52.67, 16.63 93.07" stroke="#E1E1E1" stroke-width="4" fill="none"></path></g></g><mask></mask><g stroke-linecap="round"><g transform="translate(299.52710321445375 76.90581694778302) rotate(0 -12.454240669276643 25.196514443464906)"><path d="M0 0 C0.01 10.7, 0.01 21.4, 0.02 27.19 M0 0 C0 7.16, 0.01 14.33, 0.02 27.19 M0.02 27.19 C-7.41 34.1, -14.84 41.01, -24.93 50.39 M0.02 27.19 C-9.39 35.94, -18.8 44.7, -24.93 50.39" stroke="#E1E1E1" stroke-width="4" fill="none"></path></g></g><mask></mask><g stroke-linecap="round"><g transform="translate(204.00666798283237 49.42890167948735) rotate(0 -10.645015386007216 37.17513975453187)"><path d="M0 0 C0.03 10.81, 0.06 21.62, 0.09 33.29 M0 0 C0.02 9.63, 0.05 19.25, 0.09 33.29 M0.09 33.29 C-5.13 38.42, -10.34 43.54, -21.38 54.39 M0.09 33.29 C-7.07 40.32, -14.22 47.36, -21.38 54.39 M-21.38 54.39 C-21.35 62.06, -21.32 69.73, -21.3 74.35 M-21.38 54.39 C-21.35 61.43, -21.32 68.48, -21.3 74.35" stroke="#E1E1E1" stroke-width="4" fill="none"></path></g></g><mask></mask><g stroke-linecap="round"><g transform="translate(140.253120853753 82.93397799897048) rotate(0 -0.058272593479379964 19.99082942596067)"><path d="M0 0 C-0.02 8.3, -0.05 16.61, -0.12 39.98 M0 0 C-0.03 11.14, -0.06 22.28, -0.12 39.98" stroke="#E1E1E1" stroke-width="4" fill="none"></path></g></g><mask></mask><g stroke-linecap="round"><g transform="translate(87.31274716614644 39.467063079892796) rotate(0 -15.585421358908658 37.55807394025439)"><path d="M0 0 C-0.16 11.04, -0.31 22.09, -0.64 44.92 M0 0 C-0.21 14.62, -0.41 29.24, -0.64 44.92 M-0.64 44.92 C-7.48 51.69, -14.32 58.45, -31.17 75.12 M-0.64 44.92 C-7.75 51.95, -14.86 58.99, -31.17 75.12" stroke="#E1E1E1" stroke-width="4" fill="none"></path></g></g><mask></mask><g stroke-linecap="round"><g transform="translate(24.000961793342867 60.62500930668648) rotate(0 23.350660672866386 43.302641703173634)"><path d="M0 0 C-0.13 7.62, -0.26 15.23, -0.38 22.65 M0 0 C-0.13 7.47, -0.25 14.93, -0.38 22.65 M-0.38 22.65 C12.5 35.44, 25.39 48.23, 46.81 69.47 M-0.38 22.65 C11.75 34.69, 23.89 46.74, 46.81 69.47 M46.81 69.47 C46.91 75.83, 47.01 82.19, 47.09 86.61 M46.81 69.47 C46.88 73.97, 46.95 78.47, 47.09 86.61" stroke="#E1E1E1" stroke-width="4" fill="none"></path></g></g><mask></mask><g stroke-linecap="round"><g transform="translate(32.868385589685204 95.05911725935857) rotate(0 -10.011231559782203 60.81161362398767)"><path d="M0 0 C-5.16 5.38, -10.32 10.76, -19.13 19.94 M0 0 C-7.6 7.92, -15.19 15.84, -19.13 19.94 M-19.13 19.94 C-19.42 53.08, -19.71 86.23, -20.02 121.62 M-19.13 19.94 C-19.36 46.6, -19.6 73.26, -20.02 121.62" stroke="#E1E1E1" stroke-width="4" fill="none"></path></g></g><mask></mask><g stroke-linecap="round"><g transform="translate(87.90324278007029 65.33898463063997) rotate(0 10.339223014509717 34.99796466672086)"><path d="M0 0 C6.76 6.22, 13.53 12.43, 20.45 18.79 M0 0 C4.91 4.51, 9.82 9.02, 20.45 18.79 M20.45 18.79 C20.52 35.35, 20.6 51.91, 20.68 70 M20.45 18.79 C20.5 29.23, 20.54 39.67, 20.68 70" stroke="#E1E1E1" stroke-width="4" fill="none"></path></g></g><mask></mask><g stroke-linecap="round"><g transform="translate(274.7218476129292 177.60640825120845) rotate(0 -130.8691454133931 9.694339646669391)"><path d="M0 0 C-0.27 -1.16, -0.49 -3.63, -1.64 -6.96 C-2.79 -10.29, -4.54 -16.2, -6.89 -19.99 C-9.24 -23.79, -11.96 -27.47, -15.74 -29.72 C-19.51 -31.97, -24.02 -33.2, -29.54 -33.49 C-35.07 -33.79, -44.48 -30.15, -48.89 -31.5 C-53.29 -32.85, -52.79 -38.33, -55.98 -41.61 C-59.17 -44.89, -63.61 -49.09, -68.01 -51.18 C-72.4 -53.26, -77.22 -53.87, -82.36 -54.13 C-87.49 -54.38, -93.99 -54.17, -98.84 -52.7 C-103.7 -51.24, -107.72 -45.8, -111.51 -45.34 C-115.3 -44.89, -117.79 -48.48, -121.59 -49.97 C-125.38 -51.46, -130.11 -53.61, -134.28 -54.28 C-138.45 -54.95, -142.5 -54.86, -146.58 -54.01 C-150.67 -53.17, -155.2 -51.56, -158.8 -49.21 C-162.4 -46.86, -165.48 -42.85, -168.2 -39.91 C-170.92 -36.98, -172.1 -32.87, -175.13 -31.59 C-178.15 -30.31, -182.24 -32.32, -186.36 -32.22 C-190.49 -32.12, -195.48 -31.85, -199.9 -31 C-204.32 -30.16, -209.24 -29.37, -212.89 -27.13 C-216.54 -24.89, -219.45 -21.21, -221.8 -17.57 C-224.14 -13.93, -226.05 -9.24, -226.97 -5.27 C-227.89 -1.3, -225.27 4.56, -227.33 6.24 C-229.39 7.92, -235.06 3.72, -239.32 4.81 C-243.59 5.9, -249.47 9.67, -252.93 12.79 C-256.39 15.92, -258.6 19.41, -260.07 23.57 C-261.54 27.73, -261.6 33.51, -261.74 37.75 C-261.88 42, -262.36 44.58, -260.92 49.04 C-259.48 53.51, -256.58 60.61, -253.12 64.54 C-249.66 68.48, -247.24 71.15, -240.18 72.64 C-233.12 74.14, -225.31 73.4, -210.76 73.5 C-196.21 73.61, -167.1 73.24, -152.89 73.26 C-138.67 73.29, -129.78 75.57, -125.47 73.67 C-121.15 71.76, -126.75 63.81, -127.01 61.84 M0 0 C-0.27 -1.16, -0.49 -3.63, -1.64 -6.96 C-2.79 -10.29, -4.54 -16.2, -6.89 -19.99 C-9.24 -23.79, -11.96 -27.47, -15.74 -29.72 C-19.51 -31.97, -24.02 -33.2, -29.54 -33.49 C-35.07 -33.79, -44.48 -30.15, -48.89 -31.5 C-53.29 -32.85, -52.79 -38.33, -55.98 -41.61 C-59.17 -44.89, -63.61 -49.09, -68.01 -51.18 C-72.4 -53.26, -77.22 -53.87, -82.36 -54.13 C-87.49 -54.38, -93.99 -54.17, -98.84 -52.7 C-103.7 -51.24, -107.72 -45.8, -111.51 -45.34 C-115.3 -44.89, -117.79 -48.48, -121.59 -49.97 C-125.38 -51.46, -130.11 -53.61, -134.28 -54.28 C-138.45 -54.95, -142.5 -54.86, -146.58 -54.01 C-150.67 -53.17, -155.2 -51.56, -158.8 -49.21 C-162.4 -46.86, -165.48 -42.85, -168.2 -39.91 C-170.92 -36.98, -172.1 -32.87, -175.13 -31.59 C-178.15 -30.31, -182.24 -32.32, -186.36 -32.22 C-190.49 -32.12, -195.48 -31.85, -199.9 -31 C-204.32 -30.16, -209.24 -29.37, -212.89 -27.13 C-216.54 -24.89, -219.45 -21.21, -221.8 -17.57 C-224.14 -13.93, -226.05 -9.24, -226.97 -5.27 C-227.89 -1.3, -225.27 4.56, -227.33 6.24 C-229.39 7.92, -235.06 3.72, -239.32 4.81 C-243.59 5.9, -249.47 9.67, -252.93 12.79 C-256.39 15.92, -258.6 19.41, -260.07 23.57 C-261.54 27.73, -261.6 33.51, -261.74 37.75 C-261.88 42, -262.36 44.58, -260.92 49.04 C-259.48 53.51, -256.58 60.61, -253.12 64.54 C-249.66 68.48, -247.24 71.15, -240.18 72.64 C-233.12 74.14, -225.31 73.4, -210.76 73.5 C-196.21 73.61, -167.1 73.24, -152.89 73.26 C-138.67 73.29, -129.78 75.57, -125.47 73.67 C-121.15 71.76, -126.75 63.81, -127.01 61.84" stroke="#E1E1E1" stroke-width="4" fill="none"></path></g></g><mask></mask><g stroke-linecap="round"><g transform="translate(275.53322410499095 178.36561689768496) rotate(0 -43.08786557292021 36.18950045910683)"><path d="M0 0 C1.44 0.34, 4.93 0.78, 8.64 2.03 C12.35 3.29, 18.24 4.78, 22.24 7.51 C26.23 10.24, 30.17 14.08, 32.63 18.42 C35.08 22.75, 36.47 27.9, 36.95 33.53 C37.43 39.17, 37.95 46.78, 35.5 52.23 C33.04 57.68, 27.08 62.97, 22.23 66.26 C17.37 69.55, 11.85 71.06, 6.35 71.95 C0.85 72.85, -5.16 71.74, -10.8 71.64 C-16.44 71.53, -24.34 73.34, -27.49 71.33 C-30.63 69.33, -27.92 63.65, -29.68 59.6 C-31.44 55.55, -37.47 50.84, -38.05 47.04 C-38.63 43.24, -35.64 39.16, -33.16 36.78 C-30.68 34.41, -25.01 35.35, -23.18 32.79 C-21.34 30.24, -20.57 23.42, -22.17 21.46 C-23.77 19.5, -29.27 20.19, -32.78 21.02 C-36.29 21.86, -40.42 23.85, -43.22 26.47 C-46.03 29.09, -46.93 35.98, -49.62 36.76 C-52.31 37.54, -55.54 32.28, -59.37 31.15 C-63.19 30.02, -70.43 28.32, -72.56 29.99 C-74.69 31.66, -73.98 38.67, -72.17 41.15 C-70.35 43.64, -65.15 43.35, -61.68 44.91 C-58.21 46.48, -54.33 47.83, -51.37 50.54 C-48.41 53.25, -45.46 57.57, -43.91 61.18 C-42.37 64.78, -40.42 70.28, -42.09 72.14 C-43.77 74.01, -48.26 72.39, -53.95 72.38 C-59.64 72.37, -68.73 72.16, -76.24 72.08 C-83.76 72.01, -93.2 72.03, -99.04 71.92 C-104.87 71.81, -108.48 73.53, -111.25 71.42 C-114.02 69.3, -113.67 63.29, -115.65 59.22 C-117.63 55.15, -122.56 51.03, -123.13 47 C-123.7 42.96, -121.46 38.08, -119.06 35.01 C-116.67 31.94, -110.49 29.65, -108.77 28.58 M0 0 C1.44 0.34, 4.93 0.78, 8.64 2.03 C12.35 3.29, 18.24 4.78, 22.24 7.51 C26.23 10.24, 30.17 14.08, 32.63 18.42 C35.08 22.75, 36.47 27.9, 36.95 33.53 C37.43 39.17, 37.95 46.78, 35.5 52.23 C33.04 57.68, 27.08 62.97, 22.23 66.26 C17.37 69.55, 11.85 71.06, 6.35 71.95 C0.85 72.85, -5.16 71.74, -10.8 71.64 C-16.44 71.53, -24.34 73.34, -27.49 71.33 C-30.63 69.33, -27.92 63.65, -29.68 59.6 C-31.44 55.55, -37.47 50.84, -38.05 47.04 C-38.63 43.24, -35.64 39.16, -33.16 36.78 C-30.68 34.41, -25.01 35.35, -23.18 32.79 C-21.34 30.24, -20.57 23.42, -22.17 21.46 C-23.77 19.5, -29.27 20.19, -32.78 21.02 C-36.29 21.86, -40.42 23.85, -43.22 26.47 C-46.03 29.09, -46.93 35.98, -49.62 36.76 C-52.31 37.54, -55.54 32.28, -59.37 31.15 C-63.19 30.02, -70.43 28.32, -72.56 29.99 C-74.69 31.66, -73.98 38.67, -72.17 41.15 C-70.35 43.64, -65.15 43.35, -61.68 44.91 C-58.21 46.48, -54.33 47.83, -51.37 50.54 C-48.41 53.25, -45.46 57.57, -43.91 61.18 C-42.37 64.78, -40.42 70.28, -42.09 72.14 C-43.77 74.01, -48.26 72.39, -53.95 72.38 C-59.64 72.37, -68.73 72.16, -76.24 72.08 C-83.76 72.01, -93.2 72.03, -99.04 71.92 C-104.87 71.81, -108.48 73.53, -111.25 71.42 C-114.02 69.3, -113.67 63.29, -115.65 59.22 C-117.63 55.15, -122.56 51.03, -123.13 47 C-123.7 42.96, -121.46 38.08, -119.06 35.01 C-116.67 31.94, -110.49 29.65, -108.77 28.58" stroke="#E1E1E1" stroke-width="4" fill="none"></path></g></g><mask></mask><g stroke-linecap="round"><g transform="translate(167.90318897123143 207.444196021047) rotate(0 -22.260685686258856 8.568291149812787)"><path d="M0 0 C0.6 0, 2.68 2.25, 3.6 0 C4.53 -2.25, 7.13 -11.19, 5.55 -13.51 C3.97 -15.84, -1.93 -15.24, -5.88 -13.95 C-9.83 -12.65, -14.66 -9.35, -18.15 -5.75 C-21.65 -2.16, -23.63 6.09, -26.85 7.63 C-30.08 9.16, -33.63 4.41, -37.5 3.47 C-41.37 2.53, -48.09 0.34, -50.07 1.99 C-52.05 3.64, -51.46 10.99, -49.39 13.36 C-47.33 15.74, -41.3 14.97, -37.67 16.24 C-34.04 17.51, -30.42 18.51, -27.62 20.98 C-24.83 23.46, -22.01 29.4, -20.89 31.08 M0 0 C0.6 0, 2.68 2.25, 3.6 0 C4.53 -2.25, 7.13 -11.19, 5.55 -13.51 C3.97 -15.84, -1.93 -15.24, -5.88 -13.95 C-9.83 -12.65, -14.66 -9.35, -18.15 -5.75 C-21.65 -2.16, -23.63 6.09, -26.85 7.63 C-30.08 9.16, -33.63 4.41, -37.5 3.47 C-41.37 2.53, -48.09 0.34, -50.07 1.99 C-52.05 3.64, -51.46 10.99, -49.39 13.36 C-47.33 15.74, -41.3 14.97, -37.67 16.24 C-34.04 17.51, -30.42 18.51, -27.62 20.98 C-24.83 23.46, -22.01 29.4, -20.89 31.08" stroke="#E1E1E1" stroke-width="4" fill="none"></path></g></g><mask></mask><g stroke-linecap="round"><g transform="translate(124.01498457443995 174.22501058306807) rotate(0 -13.073645167985122 12.240708389947606)"><path d="M0 0 C-2 0.32, -8.42 0.29, -12.03 1.93 C-15.63 3.57, -19.28 6.08, -21.63 9.83 C-23.99 13.59, -25.4 22.04, -26.15 24.48 M0 0 C-2 0.32, -8.42 0.29, -12.03 1.93 C-15.63 3.57, -19.28 6.08, -21.63 9.83 C-23.99 13.59, -25.4 22.04, -26.15 24.48" stroke="#E1E1E1" stroke-width="4" fill="none"></path></g></g><mask></mask><g stroke-linecap="round"><g transform="translate(124.33191335648917 183.9226318237652) rotate(0 -8.180224824112088 7.529388932400792)"><path d="M0 0 C-2.01 0.64, -9.32 1.34, -12.05 3.85 C-14.78 6.35, -15.64 13.19, -16.36 15.06 M0 0 C-2.01 0.64, -9.32 1.34, -12.05 3.85 C-14.78 6.35, -15.64 13.19, -16.36 15.06" stroke="#E1E1E1" stroke-width="4" fill="none"></path></g></g><mask></mask><g stroke-linecap="round"><g transform="translate(155.9941639902063 147.1272668093343) rotate(89.99999999999994 -13.07364516798512 12.240708389947606)"><path d="M0 0 C-2 0.32, -8.42 0.29, -12.03 1.93 C-15.63 3.57, -19.28 6.08, -21.63 9.83 C-23.99 13.59, -25.4 22.04, -26.15 24.48 M0 0 C-2 0.32, -8.42 0.29, -12.03 1.93 C-15.63 3.57, -19.28 6.08, -21.63 9.83 C-23.99 13.59, -25.4 22.04, -26.15 24.48" stroke="#E1E1E1" stroke-width="4" fill="none"></path></g></g><mask></mask><g stroke-linecap="round"><g transform="translate(146.11444186318113 157.04893539280056) rotate(89.99999999999994 -8.180224824112088 7.529388932400792)"><path d="M0 0 C-2.01 0.64, -9.32 1.34, -12.05 3.85 C-14.78 6.35, -15.64 13.19, -16.36 15.06 M0 0 C-2.01 0.64, -9.32 1.34, -12.05 3.85 C-14.78 6.35, -15.64 13.19, -16.36 15.06" stroke="#E1E1E1" stroke-width="4" fill="none"></path></g></g><mask></mask><g stroke-linecap="round"><g transform="translate(215.05255221922744 152.64029796473096) rotate(89.99999999999994 -17.895399969372164 16.755263718108225)"><path d="M0 0 C-2.74 0.44, -11.53 0.4, -16.46 2.64 C-21.4 4.89, -26.39 8.32, -29.61 13.46 C-32.83 18.61, -34.76 30.17, -35.79 33.51 M0 0 C-2.74 0.44, -11.53 0.4, -16.46 2.64 C-21.4 4.89, -26.39 8.32, -29.61 13.46 C-32.83 18.61, -34.76 30.17, -35.79 33.51" stroke="#E1E1E1" stroke-width="4" fill="none"></path></g></g><mask></mask><g stroke-linecap="round"><g transform="translate(201.5290416162061 166.22122550125914) rotate(89.99999999999994 -11.197213415685347 10.306339566277387)"><path d="M0 0 C-2.75 0.88, -12.76 1.83, -16.49 5.26 C-20.23 8.7, -21.41 18.05, -22.39 20.61 M0 0 C-2.75 0.88, -12.76 1.83, -16.49 5.26 C-20.23 8.7, -21.41 18.05, -22.39 20.61" stroke="#E1E1E1" stroke-width="4" fill="none"></path></g></g><mask></mask><g stroke-linecap="round" transform="translate(98.19261282174557 211.05067026048982) rotate(0 4.696671488628354 4.696671488628354)"><path d="M2.35 0 C4.22 0, 6.09 0, 7.05 0 M2.35 0 C3.77 0, 5.2 0, 7.05 0 M7.05 0 C8.61 0, 9.39 0.78, 9.39 2.35 M7.05 0 C8.61 0, 9.39 0.78, 9.39 2.35 M9.39 2.35 C9.39 3.56, 9.39 4.77, 9.39 7.05 M9.39 2.35 C9.39 3.33, 9.39 4.31, 9.39 7.05 M9.39 7.05 C9.39 8.61, 8.61 9.39, 7.05 9.39 M9.39 7.05 C9.39 8.61, 8.61 9.39, 7.05 9.39 M7.05 9.39 C5.67 9.39, 4.29 9.39, 2.35 9.39 M7.05 9.39 C6.06 9.39, 5.07 9.39, 2.35 9.39 M2.35 9.39 C0.78 9.39, 0 8.61, 0 7.05 M2.35 9.39 C0.78 9.39, 0 8.61, 0 7.05 M0 7.05 C0 5.44, 0 3.83, 0 2.35 M0 7.05 C0 5.59, 0 4.14, 0 2.35 M0 2.35 C0 0.78, 0.78 0, 2.35 0 M0 2.35 C0 0.78, 0.78 0, 2.35 0" stroke="#E1E1E1" stroke-width="4" fill="none"></path></g><g stroke-linecap="round" transform="translate(76.85251955806052 210.50736377697558) rotate(0 4.696671488628355 4.696671488628354)"><path d="M2.35 0 C3.56 0, 4.76 0, 7.05 0 M2.35 0 C3.65 0, 4.96 0, 7.05 0 M7.05 0 C8.61 0, 9.39 0.78, 9.39 2.35 M7.05 0 C8.61 0, 9.39 0.78, 9.39 2.35 M9.39 2.35 C9.39 3.63, 9.39 4.91, 9.39 7.05 M9.39 2.35 C9.39 4.13, 9.39 5.9, 9.39 7.05 M9.39 7.05 C9.39 8.61, 8.61 9.39, 7.05 9.39 M9.39 7.05 C9.39 8.61, 8.61 9.39, 7.05 9.39 M7.05 9.39 C6.09 9.39, 5.13 9.39, 2.35 9.39 M7.05 9.39 C5.37 9.39, 3.69 9.39, 2.35 9.39 M2.35 9.39 C0.78 9.39, 0 8.61, 0 7.05 M2.35 9.39 C0.78 9.39, 0 8.61, 0 7.05 M0 7.05 C0 5.78, 0 4.52, 0 2.35 M0 7.05 C0 5.47, 0 3.89, 0 2.35 M0 2.35 C0 0.78, 0.78 0, 2.35 0 M0 2.35 C0 0.78, 0.78 0, 2.35 0" stroke="#E1E1E1" stroke-width="4" fill="none"></path></g><g stroke-linecap="round" transform="translate(56.72088373013867 210.73707056228523) rotate(0 4.696671488628355 4.696671488628354)"><path d="M2.35 0 C4.09 0, 5.84 0, 7.05 0 M2.35 0 C3.58 0, 4.82 0, 7.05 0 M7.05 0 C8.61 0, 9.39 0.78, 9.39 2.35 M7.05 0 C8.61 0, 9.39 0.78, 9.39 2.35 M9.39 2.35 C9.39 3.46, 9.39 4.56, 9.39 7.05 M9.39 2.35 C9.39 3.43, 9.39 4.52, 9.39 7.05 M9.39 7.05 C9.39 8.61, 8.61 9.39, 7.05 9.39 M9.39 7.05 C9.39 8.61, 8.61 9.39, 7.05 9.39 M7.05 9.39 C5.64 9.39, 4.24 9.39, 2.35 9.39 M7.05 9.39 C6.03 9.39, 5.01 9.39, 2.35 9.39 M2.35 9.39 C0.78 9.39, 0 8.61, 0 7.05 M2.35 9.39 C0.78 9.39, 0 8.61, 0 7.05 M0 7.05 C0 5.36, 0 3.67, 0 2.35 M0 7.05 C0 5.83, 0 4.61, 0 2.35 M0 2.35 C0 0.78, 0.78 0, 2.35 0 M0 2.35 C0 0.78, 0.78 0, 2.35 0" stroke="#E1E1E1" stroke-width="4" fill="none"></path></g><g stroke-linecap="round"><g transform="translate(188.27363390925711 263.7737994506124) rotate(0 31.545486497478564 30.755163963758736)"><path d="M0 0 C0.11 2.66, -1.2 11.18, 0.66 15.96 C2.53 20.74, 6.34 26.31, 11.19 28.69 C16.04 31.06, 24.89 30.04, 29.75 30.22 C34.61 30.4, 38.46 27.83, 40.37 29.75 C42.28 31.68, 40.59 37.99, 41.21 41.76 C41.82 45.53, 40.72 49.06, 44.06 52.35 C47.39 55.65, 58.14 62.26, 61.23 61.51 C64.33 60.76, 62.32 52.99, 62.63 47.86 C62.94 42.74, 63.01 33.62, 63.09 30.77 M0 0 C0.11 2.66, -1.2 11.18, 0.66 15.96 C2.53 20.74, 6.34 26.31, 11.19 28.69 C16.04 31.06, 24.89 30.04, 29.75 30.22 C34.61 30.4, 38.46 27.83, 40.37 29.75 C42.28 31.68, 40.59 37.99, 41.21 41.76 C41.82 45.53, 40.72 49.06, 44.06 52.35 C47.39 55.65, 58.14 62.26, 61.23 61.51 C64.33 60.76, 62.32 52.99, 62.63 47.86 C62.94 42.74, 63.01 33.62, 63.09 30.77" stroke="#E1E1E1" stroke-width="4" fill="none"></path></g></g><mask></mask><g stroke-linecap="round"><g transform="translate(251.91494952694484 294.4751163318688) rotate(0 -21.928482361299288 -16.18634820133795)"><path d="M0 0 C1.27 -0.05, 4.94 1.12, 7.64 -0.3 C10.33 -1.71, 14.14 -5.15, 16.16 -8.49 C18.18 -11.83, 19.14 -16.51, 19.74 -20.33 C20.34 -24.15, 22.27 -29.54, 19.74 -31.39 C17.22 -33.23, 13.07 -31.24, 4.59 -31.41 C-3.9 -31.57, -19.79 -32.21, -31.16 -32.37 C-42.52 -32.53, -58.19 -32.37, -63.6 -32.37 M0 0 C1.27 -0.05, 4.94 1.12, 7.64 -0.3 C10.33 -1.71, 14.14 -5.15, 16.16 -8.49 C18.18 -11.83, 19.14 -16.51, 19.74 -20.33 C20.34 -24.15, 22.27 -29.54, 19.74 -31.39 C17.22 -33.23, 13.07 -31.24, 4.59 -31.41 C-3.9 -31.57, -19.79 -32.21, -31.16 -32.37 C-42.52 -32.53, -58.19 -32.37, -63.6 -32.37" stroke="#E1E1E1" stroke-width="4" fill="none"></path></g></g><mask></mask></svg>