<svg version="1.1" xmlns="http://www.w3.org/2000/svg" viewBox="0 0 36.7988496209673 73.79803295751299" width="36.7988496209673" height="73.79803295751299" class="excalidraw-svg"><!-- svg-source:excalidraw --><metadata></metadata><defs><style class="style-fonts">
      </style></defs><rect x="0" y="0" width="36.7988496209673" height="73.79803295751299" fill="#000000"></rect><g stroke-linecap="round"><g transform="translate(14.249966614096593 30.640306924909964) rotate(0 4.137484790018789 6.257220241285722)"><path d="M0 0 C-0.12 -1.49, -0.39 -6.46, -0.71 -8.93 C-1.03 -11.4, -1.61 -13.56, -1.9 -14.82 C-2.19 -16.08, -2.14 -15.94, -2.45 -16.49 C-2.76 -17.04, -3.46 -17.62, -3.76 -18.12 C-4.06 -18.62, -4.28 -19.17, -4.25 -19.49 C-4.22 -19.81, -4.06 -20.15, -3.58 -20.06 C-3.11 -19.98, -2.1 -19.32, -1.4 -18.97 C-0.71 -18.62, 0.02 -18.26, 0.59 -17.96 C1.16 -17.66, 1.59 -17.49, 2.03 -17.17 C2.48 -16.85, 2.81 -16.23, 3.24 -16.05 C3.66 -15.87, 4.13 -15.83, 4.61 -16.09 C5.09 -16.36, 5.5 -17.16, 6.11 -17.65 C6.73 -18.15, 7.58 -18.59, 8.33 -19.06 C9.08 -19.53, 9.99 -20.24, 10.62 -20.48 C11.24 -20.71, 11.76 -20.69, 12.08 -20.45 C12.39 -20.21, 12.63 -19.43, 12.52 -19.02 C12.41 -18.61, 11.8 -18.47, 11.42 -17.99 C11.05 -17.5, 10.7 -17.16, 10.26 -16.12 C9.82 -15.09, 9.28 -13.42, 8.79 -11.78 C8.29 -10.13, 7.7 -8.44, 7.29 -6.28 C6.88 -4.12, 6.61 -1.29, 6.34 1.18 C6.06 3.65, 5.91 6.17, 5.65 8.56 C5.39 10.96, 5.05 12.93, 4.79 15.55 C4.53 18.17, 4.24 21.78, 4.09 24.28 C3.94 26.79, 4.05 29.1, 3.92 30.56 C3.79 32.01, 3.59 32.65, 3.33 32.99 C3.08 33.33, 2.66 33.12, 2.39 32.61 C2.12 32.09, 1.84 31.13, 1.7 29.9 C1.57 28.66, 1.61 26.85, 1.57 25.19 C1.54 23.53, 1.55 21.13, 1.5 19.96 C1.45 18.8, 1.31 19.48, 1.25 18.2 C1.19 16.91, 1.37 15.27, 1.16 12.23 C0.96 9.2, 0.19 2.04, 0 0 M0 0 C-0.12 -1.49, -0.39 -6.46, -0.71 -8.93 C-1.03 -11.4, -1.61 -13.56, -1.9 -14.82 C-2.19 -16.08, -2.14 -15.94, -2.45 -16.49 C-2.76 -17.04, -3.46 -17.62, -3.76 -18.12 C-4.06 -18.62, -4.28 -19.17, -4.25 -19.49 C-4.22 -19.81, -4.06 -20.15, -3.58 -20.06 C-3.11 -19.98, -2.1 -19.32, -1.4 -18.97 C-0.71 -18.62, 0.02 -18.26, 0.59 -17.96 C1.16 -17.66, 1.59 -17.49, 2.03 -17.17 C2.48 -16.85, 2.81 -16.23, 3.24 -16.05 C3.66 -15.87, 4.13 -15.83, 4.61 -16.09 C5.09 -16.36, 5.5 -17.16, 6.11 -17.65 C6.73 -18.15, 7.58 -18.59, 8.33 -19.06 C9.08 -19.53, 9.99 -20.24, 10.62 -20.48 C11.24 -20.71, 11.76 -20.69, 12.08 -20.45 C12.39 -20.21, 12.63 -19.43, 12.52 -19.02 C12.41 -18.61, 11.8 -18.47, 11.42 -17.99 C11.05 -17.5, 10.7 -17.16, 10.26 -16.12 C9.82 -15.09, 9.28 -13.42, 8.79 -11.78 C8.29 -10.13, 7.7 -8.44, 7.29 -6.28 C6.88 -4.12, 6.61 -1.29, 6.34 1.18 C6.06 3.65, 5.91 6.17, 5.65 8.56 C5.39 10.96, 5.05 12.93, 4.79 15.55 C4.53 18.17, 4.24 21.78, 4.09 24.28 C3.94 26.79, 4.05 29.1, 3.92 30.56 C3.79 32.01, 3.59 32.65, 3.33 32.99 C3.08 33.33, 2.66 33.12, 2.39 32.61 C2.12 32.09, 1.84 31.13, 1.7 29.9 C1.57 28.66, 1.61 26.85, 1.57 25.19 C1.54 23.53, 1.55 21.13, 1.5 19.96 C1.45 18.8, 1.31 19.48, 1.25 18.2 C1.19 16.91, 1.37 15.27, 1.16 12.23 C0.96 9.2, 0.19 2.04, 0 0" stroke="#E1E1E1" stroke-width="2" fill="none"></path></g></g><mask></mask></svg>