<svg version="1.1" xmlns="http://www.w3.org/2000/svg" viewBox="0 0 2423.6035356729817 1983.145914178252" width="2423.6035356729817" height="1983.145914178252" class="excalidraw-svg"><!-- svg-source:excalidraw --><metadata></metadata><defs><style class="style-fonts">
      </style></defs><rect x="0" y="0" width="2423.6035356729817" height="1983.145914178252" fill="#000000"></rect><g stroke-linecap="round"><g transform="translate(153.44228892012325 586.6920000983423) rotate(0 436.12148947974515 405.49782248716406)" fill-rule="evenodd"><path d="M0 0 C23.14 0, 106.46 0, 138.87 0 C171.27 0, 181.34 0.12, 194.44 0 C207.54 -0.12, 213.19 1.42, 217.47 -0.71 C221.76 -2.83, 219.18 -4.94, 220.16 -12.75 C221.14 -20.57, 220.55 -33.5, 223.36 -47.59 C226.17 -61.68, 229.94 -81.49, 237.01 -97.29 C244.08 -113.1, 254.48 -128.65, 265.77 -142.42 C277.05 -156.19, 288.99 -169.06, 304.72 -179.89 C320.44 -190.73, 341.05 -201.07, 360.1 -207.43 C379.14 -213.79, 398.95 -217.2, 418.97 -218.04 C439 -218.87, 462.43 -216.12, 480.25 -212.46 C498.07 -208.79, 511.71 -204.08, 525.88 -196.05 C540.06 -188.01, 554.02 -177.02, 565.3 -164.25 C576.57 -151.47, 586.3 -136.73, 593.54 -119.41 C600.78 -102.1, 607.14 -81.55, 608.75 -60.35 C610.35 -39.16, 611.03 -19.38, 603.19 7.77 C595.35 34.91, 584.41 64.61, 561.7 102.52 C538.99 140.42, 505.19 182.42, 466.93 235.19 C428.68 287.95, 385.19 346.63, 332.18 419.11 C279.16 491.58, 204.92 592.66, 148.85 670.04 C92.78 747.42, 37.35 825.04, -4.22 883.41 C-45.79 941.77, -80.32 992.03, -100.56 1020.23 C-120.8 1048.42, -119.49 1044.77, -125.68 1052.59 C-131.87 1060.4, -134.92 1061.88, -137.71 1067.11 C-140.49 1072.33, -141.52 1069.43, -142.37 1083.94 C-143.21 1098.45, -142.7 1121.83, -142.76 1154.16 C-142.83 1186.5, -142.76 1246.65, -142.76 1277.97 C-142.76 1309.28, -142.86 1326.62, -142.76 1342.05 C-142.67 1357.49, -144.68 1363.62, -142.2 1370.57 C-139.72 1377.52, -135.19 1381.14, -127.9 1383.75 C-120.6 1386.37, -135.16 1385.85, -98.42 1386.27 C-61.67 1386.69, -5.1 1386.27, 92.58 1386.27 C190.25 1386.27, 364.28 1386.27, 487.63 1386.27 C610.98 1386.27, 762.13 1386.27, 832.69 1386.27 C903.26 1386.27, 890.32 1386.27, 911.02 1386.27 C931.72 1386.27, 943.85 1386.39, 956.91 1386.27 C969.98 1386.14, 981.22 1387.04, 989.41 1385.53 C997.6 1384.02, 1002.03 1380.85, 1006.05 1377.2 C1010.07 1373.55, 1012.04 1371.71, 1013.54 1363.64 C1015.03 1355.57, 1014.76 1352.99, 1015.01 1328.79 C1015.25 1304.58, 1015.01 1250.59, 1015.01 1218.4 C1015.01 1186.22, 1015.01 1159.38, 1015.01 1135.67 C1015.01 1111.96, 1015.09 1090.52, 1015.01 1076.15 C1014.92 1061.78, 1016.58 1056.5, 1014.49 1049.44 C1012.4 1042.37, 1011.37 1037.27, 1002.49 1033.76 C993.61 1030.26, 994.62 1029.3, 961.23 1028.41 C927.84 1027.51, 860.47 1028.41, 802.15 1028.41 C743.83 1028.41, 667.21 1028.41, 611.3 1028.41 C555.39 1028.41, 506.42 1028.41, 466.69 1028.41 C426.96 1028.41, 394.97 1028.41, 372.91 1028.41 C350.85 1028.41, 344.46 1028.41, 334.32 1028.41 C324.17 1028.41, 314.57 1030.91, 312.05 1028.41 C309.52 1025.91, 309.87 1026.7, 319.18 1013.41 C328.49 1000.12, 342.45 982.29, 367.91 948.66 C393.37 915.04, 431.39 865.45, 471.94 811.66 C512.49 757.87, 557.8 696.82, 611.22 625.92 C664.63 555.02, 743.81 452.05, 792.42 386.27 C841.03 320.49, 874.23 278.56, 902.88 231.24 C931.53 183.91, 950.35 141.06, 964.31 102.3 C978.27 63.54, 982.85 36.03, 986.65 -1.33 C990.45 -38.68, 990.82 -84.97, 987.11 -121.85 C983.41 -158.72, 976.85 -188.37, 964.42 -222.58 C951.99 -256.79, 934.33 -294.15, 912.54 -327.11 C890.75 -360.08, 863.72 -392.09, 833.67 -420.37 C803.63 -448.66, 768.15 -475.51, 732.24 -496.84 C696.34 -518.18, 656.25 -535.73, 618.25 -548.39 C580.25 -561.05, 538.07 -568.33, 504.23 -572.82 C470.38 -577.3, 451.42 -576.94, 415.16 -575.27 C378.9 -573.61, 326.75 -570.84, 286.65 -562.82 C246.55 -554.8, 210.15 -542.81, 174.57 -527.16 C138.98 -511.5, 103.74 -492.42, 73.12 -468.88 C42.51 -445.34, 14.91 -416.78, -9.13 -385.93 C-33.18 -355.09, -54.64 -323.84, -71.16 -283.8 C-87.68 -243.77, -100.35 -182.16, -108.27 -145.73 C-116.18 -109.3, -116.62 -87.01, -118.64 -65.24 C-120.66 -43.47, -120.02 -25.63, -120.39 -15.1 C-120.76 -4.58, -122.86 -4.57, -120.86 -2.08 C-118.86 0.4, -117.06 -0.62, -108.4 -0.21 C-99.75 0.2, -86.97 0.34, -68.91 0.37 C-50.84 0.41, -11.48 0.06, 0 0" stroke="none" stroke-width="0" fill="#e1e1e1" fill-rule="evenodd"></path><path d="M0 0 C23.14 0, 106.46 0, 138.87 0 C171.27 0, 181.34 0.12, 194.44 0 C207.54 -0.12, 213.19 1.42, 217.47 -0.71 C221.76 -2.83, 219.18 -4.94, 220.16 -12.75 C221.14 -20.57, 220.55 -33.5, 223.36 -47.59 C226.17 -61.68, 229.94 -81.49, 237.01 -97.29 C244.08 -113.1, 254.48 -128.65, 265.77 -142.42 C277.05 -156.19, 288.99 -169.06, 304.72 -179.89 C320.44 -190.73, 341.05 -201.07, 360.1 -207.43 C379.14 -213.79, 398.95 -217.2, 418.97 -218.04 C439 -218.87, 462.43 -216.12, 480.25 -212.46 C498.07 -208.79, 511.71 -204.08, 525.88 -196.05 C540.06 -188.01, 554.02 -177.02, 565.3 -164.25 C576.57 -151.47, 586.3 -136.73, 593.54 -119.41 C600.78 -102.1, 607.14 -81.55, 608.75 -60.35 C610.35 -39.16, 611.03 -19.38, 603.19 7.77 C595.35 34.91, 584.41 64.61, 561.7 102.52 C538.99 140.42, 505.19 182.42, 466.93 235.19 C428.68 287.95, 385.19 346.63, 332.18 419.11 C279.16 491.58, 204.92 592.66, 148.85 670.04 C92.78 747.42, 37.35 825.04, -4.22 883.41 C-45.79 941.77, -80.32 992.03, -100.56 1020.23 C-120.8 1048.42, -119.49 1044.77, -125.68 1052.59 C-131.87 1060.4, -134.92 1061.88, -137.71 1067.11 C-140.49 1072.33, -141.52 1069.43, -142.37 1083.94 C-143.21 1098.45, -142.7 1121.83, -142.76 1154.16 C-142.83 1186.5, -142.76 1246.65, -142.76 1277.97 C-142.76 1309.28, -142.86 1326.62, -142.76 1342.05 C-142.67 1357.49, -144.68 1363.62, -142.2 1370.57 C-139.72 1377.52, -135.19 1381.14, -127.9 1383.75 C-120.6 1386.37, -135.16 1385.85, -98.42 1386.27 C-61.67 1386.69, -5.1 1386.27, 92.58 1386.27 C190.25 1386.27, 364.28 1386.27, 487.63 1386.27 C610.98 1386.27, 762.13 1386.27, 832.69 1386.27 C903.26 1386.27, 890.32 1386.27, 911.02 1386.27 C931.72 1386.27, 943.85 1386.39, 956.91 1386.27 C969.98 1386.14, 981.22 1387.04, 989.41 1385.53 C997.6 1384.02, 1002.03 1380.85, 1006.05 1377.2 C1010.07 1373.55, 1012.04 1371.71, 1013.54 1363.64 C1015.03 1355.57, 1014.76 1352.99, 1015.01 1328.79 C1015.25 1304.58, 1015.01 1250.59, 1015.01 1218.4 C1015.01 1186.22, 1015.01 1159.38, 1015.01 1135.67 C1015.01 1111.96, 1015.09 1090.52, 1015.01 1076.15 C1014.92 1061.78, 1016.58 1056.5, 1014.49 1049.44 C1012.4 1042.37, 1011.37 1037.27, 1002.49 1033.76 C993.61 1030.26, 994.62 1029.3, 961.23 1028.41 C927.84 1027.51, 860.47 1028.41, 802.15 1028.41 C743.83 1028.41, 667.21 1028.41, 611.3 1028.41 C555.39 1028.41, 506.42 1028.41, 466.69 1028.41 C426.96 1028.41, 394.97 1028.41, 372.91 1028.41 C350.85 1028.41, 344.46 1028.41, 334.32 1028.41 C324.17 1028.41, 314.57 1030.91, 312.05 1028.41 C309.52 1025.91, 309.87 1026.7, 319.18 1013.41 C328.49 1000.12, 342.45 982.29, 367.91 948.66 C393.37 915.04, 431.39 865.45, 471.94 811.66 C512.49 757.87, 557.8 696.82, 611.22 625.92 C664.63 555.02, 743.81 452.05, 792.42 386.27 C841.03 320.49, 874.23 278.56, 902.88 231.24 C931.53 183.91, 950.35 141.06, 964.31 102.3 C978.27 63.54, 982.85 36.03, 986.65 -1.33 C990.45 -38.68, 990.82 -84.97, 987.11 -121.85 C983.41 -158.72, 976.85 -188.37, 964.42 -222.58 C951.99 -256.79, 934.33 -294.15, 912.54 -327.11 C890.75 -360.08, 863.72 -392.09, 833.67 -420.37 C803.63 -448.66, 768.15 -475.51, 732.24 -496.84 C696.34 -518.18, 656.25 -535.73, 618.25 -548.39 C580.25 -561.05, 538.07 -568.33, 504.23 -572.82 C470.38 -577.3, 451.42 -576.94, 415.16 -575.27 C378.9 -573.61, 326.75 -570.84, 286.65 -562.82 C246.55 -554.8, 210.15 -542.81, 174.57 -527.16 C138.98 -511.5, 103.74 -492.42, 73.12 -468.88 C42.51 -445.34, 14.91 -416.78, -9.13 -385.93 C-33.18 -355.09, -54.64 -323.84, -71.16 -283.8 C-87.68 -243.77, -100.35 -182.16, -108.27 -145.73 C-116.18 -109.3, -116.62 -87.01, -118.64 -65.24 C-120.66 -43.47, -120.02 -25.63, -120.39 -15.1 C-120.76 -4.58, -122.86 -4.57, -120.86 -2.08 C-118.86 0.4, -117.06 -0.62, -108.4 -0.21 C-99.75 0.2, -86.97 0.34, -68.91 0.37 C-50.84 0.41, -11.48 0.06, 0 0 M0 0 C23.14 0, 106.46 0, 138.87 0 C171.27 0, 181.34 0.12, 194.44 0 C207.54 -0.12, 213.19 1.42, 217.47 -0.71 C221.76 -2.83, 219.18 -4.94, 220.16 -12.75 C221.14 -20.57, 220.55 -33.5, 223.36 -47.59 C226.17 -61.68, 229.94 -81.49, 237.01 -97.29 C244.08 -113.1, 254.48 -128.65, 265.77 -142.42 C277.05 -156.19, 288.99 -169.06, 304.72 -179.89 C320.44 -190.73, 341.05 -201.07, 360.1 -207.43 C379.14 -213.79, 398.95 -217.2, 418.97 -218.04 C439 -218.87, 462.43 -216.12, 480.25 -212.46 C498.07 -208.79, 511.71 -204.08, 525.88 -196.05 C540.06 -188.01, 554.02 -177.02, 565.3 -164.25 C576.57 -151.47, 586.3 -136.73, 593.54 -119.41 C600.78 -102.1, 607.14 -81.55, 608.75 -60.35 C610.35 -39.16, 611.03 -19.38, 603.19 7.77 C595.35 34.91, 584.41 64.61, 561.7 102.52 C538.99 140.42, 505.19 182.42, 466.93 235.19 C428.68 287.95, 385.19 346.63, 332.18 419.11 C279.16 491.58, 204.92 592.66, 148.85 670.04 C92.78 747.42, 37.35 825.04, -4.22 883.41 C-45.79 941.77, -80.32 992.03, -100.56 1020.23 C-120.8 1048.42, -119.49 1044.77, -125.68 1052.59 C-131.87 1060.4, -134.92 1061.88, -137.71 1067.11 C-140.49 1072.33, -141.52 1069.43, -142.37 1083.94 C-143.21 1098.45, -142.7 1121.83, -142.76 1154.16 C-142.83 1186.5, -142.76 1246.65, -142.76 1277.97 C-142.76 1309.28, -142.86 1326.62, -142.76 1342.05 C-142.67 1357.49, -144.68 1363.62, -142.2 1370.57 C-139.72 1377.52, -135.19 1381.14, -127.9 1383.75 C-120.6 1386.37, -135.16 1385.85, -98.42 1386.27 C-61.67 1386.69, -5.1 1386.27, 92.58 1386.27 C190.25 1386.27, 364.28 1386.27, 487.63 1386.27 C610.98 1386.27, 762.13 1386.27, 832.69 1386.27 C903.26 1386.27, 890.32 1386.27, 911.02 1386.27 C931.72 1386.27, 943.85 1386.39, 956.91 1386.27 C969.98 1386.14, 981.22 1387.04, 989.41 1385.53 C997.6 1384.02, 1002.03 1380.85, 1006.05 1377.2 C1010.07 1373.55, 1012.04 1371.71, 1013.54 1363.64 C1015.03 1355.57, 1014.76 1352.99, 1015.01 1328.79 C1015.25 1304.58, 1015.01 1250.59, 1015.01 1218.4 C1015.01 1186.22, 1015.01 1159.38, 1015.01 1135.67 C1015.01 1111.96, 1015.09 1090.52, 1015.01 1076.15 C1014.92 1061.78, 1016.58 1056.5, 1014.49 1049.44 C1012.4 1042.37, 1011.37 1037.27, 1002.49 1033.76 C993.61 1030.26, 994.62 1029.3, 961.23 1028.41 C927.84 1027.51, 860.47 1028.41, 802.15 1028.41 C743.83 1028.41, 667.21 1028.41, 611.3 1028.41 C555.39 1028.41, 506.42 1028.41, 466.69 1028.41 C426.96 1028.41, 394.97 1028.41, 372.91 1028.41 C350.85 1028.41, 344.46 1028.41, 334.32 1028.41 C324.17 1028.41, 314.57 1030.91, 312.05 1028.41 C309.52 1025.91, 309.87 1026.7, 319.18 1013.41 C328.49 1000.12, 342.45 982.29, 367.91 948.66 C393.37 915.04, 431.39 865.45, 471.94 811.66 C512.49 757.87, 557.8 696.82, 611.22 625.92 C664.63 555.02, 743.81 452.05, 792.42 386.27 C841.03 320.49, 874.23 278.56, 902.88 231.24 C931.53 183.91, 950.35 141.06, 964.31 102.3 C978.27 63.54, 982.85 36.03, 986.65 -1.33 C990.45 -38.68, 990.82 -84.97, 987.11 -121.85 C983.41 -158.72, 976.85 -188.37, 964.42 -222.58 C951.99 -256.79, 934.33 -294.15, 912.54 -327.11 C890.75 -360.08, 863.72 -392.09, 833.67 -420.37 C803.63 -448.66, 768.15 -475.51, 732.24 -496.84 C696.34 -518.18, 656.25 -535.73, 618.25 -548.39 C580.25 -561.05, 538.07 -568.33, 504.23 -572.82 C470.38 -577.3, 451.42 -576.94, 415.16 -575.27 C378.9 -573.61, 326.75 -570.84, 286.65 -562.82 C246.55 -554.8, 210.15 -542.81, 174.57 -527.16 C138.98 -511.5, 103.74 -492.42, 73.12 -468.88 C42.51 -445.34, 14.91 -416.78, -9.13 -385.93 C-33.18 -355.09, -54.64 -323.84, -71.16 -283.8 C-87.68 -243.77, -100.35 -182.16, -108.27 -145.73 C-116.18 -109.3, -116.62 -87.01, -118.64 -65.24 C-120.66 -43.47, -120.02 -25.63, -120.39 -15.1 C-120.76 -4.58, -122.86 -4.57, -120.86 -2.08 C-118.86 0.4, -117.06 -0.62, -108.4 -0.21 C-99.75 0.2, -86.97 0.34, -68.91 0.37 C-50.84 0.41, -11.48 0.06, 0 0" stroke="#E1E1E1" stroke-width="4" fill="none"></path></g></g><mask></mask><g stroke-linecap="round"><g transform="translate(1247.6138067469628 231.8771398798749) rotate(0 574.962262968035 757.5825426526635)" fill-rule="evenodd"><path d="M0 0 C0 -21.77, 0 -99.49, 0 -130.65 C0 -161.8, -0.1 -173.51, 0 -186.93 C0.1 -200.35, -1.39 -205.69, 0.59 -211.18 C2.57 -216.67, 5.01 -218.11, 11.89 -219.87 C18.76 -221.62, 12.99 -221.41, 41.83 -221.72 C70.67 -222.03, 129.99 -221.72, 184.94 -221.72 C239.88 -221.72, 282.73 -221.72, 371.5 -221.72 C460.27 -221.72, 639.33 -221.72, 717.55 -221.72 C795.78 -221.72, 801.47 -221.72, 840.87 -221.72 C880.26 -221.72, 924.13 -221.72, 953.9 -221.72 C983.66 -221.72, 1003.14 -222.07, 1019.47 -221.72 C1035.8 -221.37, 1044.23 -221.63, 1051.88 -219.63 C1059.52 -217.64, 1062.69 -215.18, 1065.35 -209.76 C1068.01 -204.34, 1067.42 -208.43, 1067.84 -187.12 C1068.25 -165.81, 1067.84 -114.08, 1067.84 -81.9 C1067.84 -49.71, 1067.84 -20.58, 1067.84 5.99 C1067.84 32.56, 1068.27 62.54, 1067.84 77.54 C1067.4 92.54, 1067.53 91.05, 1065.23 95.99 C1062.93 100.93, 1060.05 104.71, 1054.03 107.17 C1048.01 109.64, 1051.25 110.18, 1029.11 110.79 C1006.96 111.39, 993.11 110.79, 921.16 110.79 C849.21 110.79, 669.69 110.79, 597.38 110.79 C525.07 110.79, 517.05 110.79, 487.3 110.79 C457.54 110.79, 435.46 110.79, 418.85 110.79 C402.24 110.79, 396.08 110.7, 387.62 110.79 C379.15 110.88, 371.71 109.02, 368.04 111.34 C364.36 113.66, 365.99 112.07, 365.58 124.72 C365.17 137.37, 365.58 143.77, 365.58 187.24 C365.58 230.71, 365.58 344.12, 365.58 385.51 C365.58 426.9, 365.58 421.9, 365.58 435.57 C365.58 449.25, 365.58 458.15, 365.58 467.56 C365.58 476.97, 363.54 487.36, 365.58 492.01 C367.62 496.66, 366.17 494.88, 377.82 495.45 C389.47 496.03, 403.45 495.45, 435.49 495.45 C467.52 495.45, 530.49 494.34, 570.02 495.45 C609.55 496.56, 637.81 497.79, 672.66 502.12 C707.52 506.45, 746.93 512.91, 779.17 521.44 C811.41 529.96, 839.53 540.88, 866.11 553.3 C892.69 565.72, 915.99 579.52, 938.66 595.96 C961.33 612.4, 981.52 630.57, 1002.14 651.92 C1022.75 673.27, 1044.2 696.35, 1062.36 724.07 C1080.53 751.8, 1097.41 785.06, 1111.12 818.29 C1124.82 851.52, 1135.68 882.97, 1144.57 923.45 C1153.47 963.93, 1161.53 1015.99, 1164.5 1061.15 C1167.46 1106.31, 1165.64 1153.48, 1162.34 1194.39 C1159.05 1235.31, 1153.62 1270.89, 1144.74 1306.64 C1135.86 1342.4, 1126.9 1372.82, 1109.06 1408.91 C1091.22 1445, 1063.99 1490.15, 1037.7 1523.17 C1011.41 1556.19, 982.4 1582.46, 951.34 1607.03 C920.28 1631.6, 885.03 1653.1, 851.34 1670.59 C817.65 1688.08, 782.09 1701.55, 749.21 1711.96 C716.33 1722.37, 691.12 1728.89, 654.06 1733.05 C617 1737.2, 565.32 1738.23, 526.85 1736.89 C488.38 1735.54, 455.78 1730.89, 423.25 1724.96 C390.73 1719.03, 361.47 1711.27, 331.72 1701.29 C301.98 1691.32, 272.4 1680.79, 244.79 1665.12 C217.18 1649.45, 189.69 1627.73, 166.05 1607.28 C142.41 1586.83, 123.33 1568.23, 102.96 1542.44 C82.58 1516.65, 58.91 1480.62, 43.81 1452.55 C28.72 1424.48, 20.67 1400.76, 12.41 1374.02 C4.15 1347.27, -1.25 1319.52, -5.75 1292.08 C-10.25 1264.65, -13.23 1231.31, -14.57 1209.39 C-15.91 1187.47, -16.86 1170.74, -13.77 1160.55 C-10.68 1150.36, -7.8 1150.36, 3.96 1148.25 C15.72 1146.14, 28.16 1147.95, 56.77 1147.89 C85.38 1147.83, 143.89 1147.89, 175.61 1147.89 C207.33 1147.89, 226.54 1147.89, 247.08 1147.89 C267.63 1147.89, 285.75 1147.89, 298.9 1147.89 C312.06 1147.89, 318.98 1146.63, 326 1147.89 C333.03 1149.15, 337.74 1150.3, 341.05 1155.44 C344.36 1160.59, 344.6 1168.69, 345.87 1178.76 C347.15 1188.84, 345.73 1201.38, 348.7 1215.89 C351.68 1230.4, 356.23 1249.24, 363.71 1265.82 C371.19 1282.4, 381.9 1301.27, 393.58 1315.37 C405.25 1329.47, 418.32 1340.19, 433.73 1350.4 C449.15 1360.62, 468.32 1371, 486.08 1376.64 C503.84 1382.28, 519.86 1383.26, 540.27 1384.24 C560.68 1385.22, 588.38 1385.66, 608.54 1382.53 C628.7 1379.4, 644.81 1372.96, 661.22 1365.46 C677.64 1357.97, 693 1348.2, 707.04 1337.54 C721.08 1326.89, 733.5 1316.27, 745.47 1301.54 C757.43 1286.8, 770.42 1266.66, 778.82 1249.13 C787.21 1231.61, 791.67 1217.06, 795.85 1196.39 C800.02 1175.73, 802.94 1148.25, 803.86 1125.15 C804.78 1102.05, 805.29 1081.94, 801.36 1057.78 C797.44 1033.63, 790.26 1005.99, 780.31 980.23 C770.36 954.48, 755.96 923.97, 741.67 903.28 C727.39 882.58, 711.29 868.69, 694.59 856.05 C677.89 843.41, 658.04 834.18, 641.45 827.46 C624.87 820.73, 616.56 818, 595.07 815.68 C573.58 813.37, 551.44 813.9, 512.52 813.55 C473.59 813.19, 408.57 813.55, 361.54 813.55 C314.51 813.55, 267.55 813.55, 230.32 813.55 C193.09 813.55, 165.7 813.55, 138.16 813.55 C110.62 813.55, 84.05 813.55, 65.08 813.55 C46.12 813.55, 34.35 814.59, 24.38 813.55 C14.41 812.5, 9.15 810.83, 5.25 807.28 C1.36 803.73, 1.77 803.99, 1.01 792.25 C0.25 780.51, 0.74 783.67, 0.69 736.85 C0.64 690.03, 0.69 589.69, 0.69 511.34 C0.69 432.99, 0.81 351.95, 0.69 266.72 C0.58 181.5, 0.12 44.45, 0 0" stroke="none" stroke-width="0" fill="#e1e1e1" fill-rule="evenodd"></path><path d="M0 0 C0 -21.77, 0 -99.49, 0 -130.65 C0 -161.8, -0.1 -173.51, 0 -186.93 C0.1 -200.35, -1.39 -205.69, 0.59 -211.18 C2.57 -216.67, 5.01 -218.11, 11.89 -219.87 C18.76 -221.62, 12.99 -221.41, 41.83 -221.72 C70.67 -222.03, 129.99 -221.72, 184.94 -221.72 C239.88 -221.72, 282.73 -221.72, 371.5 -221.72 C460.27 -221.72, 639.33 -221.72, 717.55 -221.72 C795.78 -221.72, 801.47 -221.72, 840.87 -221.72 C880.26 -221.72, 924.13 -221.72, 953.9 -221.72 C983.66 -221.72, 1003.14 -222.07, 1019.47 -221.72 C1035.8 -221.37, 1044.23 -221.63, 1051.88 -219.63 C1059.52 -217.64, 1062.69 -215.18, 1065.35 -209.76 C1068.01 -204.34, 1067.42 -208.43, 1067.84 -187.12 C1068.25 -165.81, 1067.84 -114.08, 1067.84 -81.9 C1067.84 -49.71, 1067.84 -20.58, 1067.84 5.99 C1067.84 32.56, 1068.27 62.54, 1067.84 77.54 C1067.4 92.54, 1067.53 91.05, 1065.23 95.99 C1062.93 100.93, 1060.05 104.71, 1054.03 107.17 C1048.01 109.64, 1051.25 110.18, 1029.11 110.79 C1006.96 111.39, 993.11 110.79, 921.16 110.79 C849.21 110.79, 669.69 110.79, 597.38 110.79 C525.07 110.79, 517.05 110.79, 487.3 110.79 C457.54 110.79, 435.46 110.79, 418.85 110.79 C402.24 110.79, 396.08 110.7, 387.62 110.79 C379.15 110.88, 371.71 109.02, 368.04 111.34 C364.36 113.66, 365.99 112.07, 365.58 124.72 C365.17 137.37, 365.58 143.77, 365.58 187.24 C365.58 230.71, 365.58 344.12, 365.58 385.51 C365.58 426.9, 365.58 421.9, 365.58 435.57 C365.58 449.25, 365.58 458.15, 365.58 467.56 C365.58 476.97, 363.54 487.36, 365.58 492.01 C367.62 496.66, 366.17 494.88, 377.82 495.45 C389.47 496.03, 403.45 495.45, 435.49 495.45 C467.52 495.45, 530.49 494.34, 570.02 495.45 C609.55 496.56, 637.81 497.79, 672.66 502.12 C707.52 506.45, 746.93 512.91, 779.17 521.44 C811.41 529.96, 839.53 540.88, 866.11 553.3 C892.69 565.72, 915.99 579.52, 938.66 595.96 C961.33 612.4, 981.52 630.57, 1002.14 651.92 C1022.75 673.27, 1044.2 696.35, 1062.36 724.07 C1080.53 751.8, 1097.41 785.06, 1111.12 818.29 C1124.82 851.52, 1135.68 882.97, 1144.57 923.45 C1153.47 963.93, 1161.53 1015.99, 1164.5 1061.15 C1167.46 1106.31, 1165.64 1153.48, 1162.34 1194.39 C1159.05 1235.31, 1153.62 1270.89, 1144.74 1306.64 C1135.86 1342.4, 1126.9 1372.82, 1109.06 1408.91 C1091.22 1445, 1063.99 1490.15, 1037.7 1523.17 C1011.41 1556.19, 982.4 1582.46, 951.34 1607.03 C920.28 1631.6, 885.03 1653.1, 851.34 1670.59 C817.65 1688.08, 782.09 1701.55, 749.21 1711.96 C716.33 1722.37, 691.12 1728.89, 654.06 1733.05 C617 1737.2, 565.32 1738.23, 526.85 1736.89 C488.38 1735.54, 455.78 1730.89, 423.25 1724.96 C390.73 1719.03, 361.47 1711.27, 331.72 1701.29 C301.98 1691.32, 272.4 1680.79, 244.79 1665.12 C217.18 1649.45, 189.69 1627.73, 166.05 1607.28 C142.41 1586.83, 123.33 1568.23, 102.96 1542.44 C82.58 1516.65, 58.91 1480.62, 43.81 1452.55 C28.72 1424.48, 20.67 1400.76, 12.41 1374.02 C4.15 1347.27, -1.25 1319.52, -5.75 1292.08 C-10.25 1264.65, -13.23 1231.31, -14.57 1209.39 C-15.91 1187.47, -16.86 1170.74, -13.77 1160.55 C-10.68 1150.36, -7.8 1150.36, 3.96 1148.25 C15.72 1146.14, 28.16 1147.95, 56.77 1147.89 C85.38 1147.83, 143.89 1147.89, 175.61 1147.89 C207.33 1147.89, 226.54 1147.89, 247.08 1147.89 C267.63 1147.89, 285.75 1147.89, 298.9 1147.89 C312.06 1147.89, 318.98 1146.63, 326 1147.89 C333.03 1149.15, 337.74 1150.3, 341.05 1155.44 C344.36 1160.59, 344.6 1168.69, 345.87 1178.76 C347.15 1188.84, 345.73 1201.38, 348.7 1215.89 C351.68 1230.4, 356.23 1249.24, 363.71 1265.82 C371.19 1282.4, 381.9 1301.27, 393.58 1315.37 C405.25 1329.47, 418.32 1340.19, 433.73 1350.4 C449.15 1360.62, 468.32 1371, 486.08 1376.64 C503.84 1382.28, 519.86 1383.26, 540.27 1384.24 C560.68 1385.22, 588.38 1385.66, 608.54 1382.53 C628.7 1379.4, 644.81 1372.96, 661.22 1365.46 C677.64 1357.97, 693 1348.2, 707.04 1337.54 C721.08 1326.89, 733.5 1316.27, 745.47 1301.54 C757.43 1286.8, 770.42 1266.66, 778.82 1249.13 C787.21 1231.61, 791.67 1217.06, 795.85 1196.39 C800.02 1175.73, 802.94 1148.25, 803.86 1125.15 C804.78 1102.05, 805.29 1081.94, 801.36 1057.78 C797.44 1033.63, 790.26 1005.99, 780.31 980.23 C770.36 954.48, 755.96 923.97, 741.67 903.28 C727.39 882.58, 711.29 868.69, 694.59 856.05 C677.89 843.41, 658.04 834.18, 641.45 827.46 C624.87 820.73, 616.56 818, 595.07 815.68 C573.58 813.37, 551.44 813.9, 512.52 813.55 C473.59 813.19, 408.57 813.55, 361.54 813.55 C314.51 813.55, 267.55 813.55, 230.32 813.55 C193.09 813.55, 165.7 813.55, 138.16 813.55 C110.62 813.55, 84.05 813.55, 65.08 813.55 C46.12 813.55, 34.35 814.59, 24.38 813.55 C14.41 812.5, 9.15 810.83, 5.25 807.28 C1.36 803.73, 1.77 803.99, 1.01 792.25 C0.25 780.51, 0.74 783.67, 0.69 736.85 C0.64 690.03, 0.69 589.69, 0.69 511.34 C0.69 432.99, 0.81 351.95, 0.69 266.72 C0.58 181.5, 0.12 44.45, 0 0 M0 0 C0 -21.77, 0 -99.49, 0 -130.65 C0 -161.8, -0.1 -173.51, 0 -186.93 C0.1 -200.35, -1.39 -205.69, 0.59 -211.18 C2.57 -216.67, 5.01 -218.11, 11.89 -219.87 C18.76 -221.62, 12.99 -221.41, 41.83 -221.72 C70.67 -222.03, 129.99 -221.72, 184.94 -221.72 C239.88 -221.72, 282.73 -221.72, 371.5 -221.72 C460.27 -221.72, 639.33 -221.72, 717.55 -221.72 C795.78 -221.72, 801.47 -221.72, 840.87 -221.72 C880.26 -221.72, 924.13 -221.72, 953.9 -221.72 C983.66 -221.72, 1003.14 -222.07, 1019.47 -221.72 C1035.8 -221.37, 1044.23 -221.63, 1051.88 -219.63 C1059.52 -217.64, 1062.69 -215.18, 1065.35 -209.76 C1068.01 -204.34, 1067.42 -208.43, 1067.84 -187.12 C1068.25 -165.81, 1067.84 -114.08, 1067.84 -81.9 C1067.84 -49.71, 1067.84 -20.58, 1067.84 5.99 C1067.84 32.56, 1068.27 62.54, 1067.84 77.54 C1067.4 92.54, 1067.53 91.05, 1065.23 95.99 C1062.93 100.93, 1060.05 104.71, 1054.03 107.17 C1048.01 109.64, 1051.25 110.18, 1029.11 110.79 C1006.96 111.39, 993.11 110.79, 921.16 110.79 C849.21 110.79, 669.69 110.79, 597.38 110.79 C525.07 110.79, 517.05 110.79, 487.3 110.79 C457.54 110.79, 435.46 110.79, 418.85 110.79 C402.24 110.79, 396.08 110.7, 387.62 110.79 C379.15 110.88, 371.71 109.02, 368.04 111.34 C364.36 113.66, 365.99 112.07, 365.58 124.72 C365.17 137.37, 365.58 143.77, 365.58 187.24 C365.58 230.71, 365.58 344.12, 365.58 385.51 C365.58 426.9, 365.58 421.9, 365.58 435.57 C365.58 449.25, 365.58 458.15, 365.58 467.56 C365.58 476.97, 363.54 487.36, 365.58 492.01 C367.62 496.66, 366.17 494.88, 377.82 495.45 C389.47 496.03, 403.45 495.45, 435.49 495.45 C467.52 495.45, 530.49 494.34, 570.02 495.45 C609.55 496.56, 637.81 497.79, 672.66 502.12 C707.52 506.45, 746.93 512.91, 779.17 521.44 C811.41 529.96, 839.53 540.88, 866.11 553.3 C892.69 565.72, 915.99 579.52, 938.66 595.96 C961.33 612.4, 981.52 630.57, 1002.14 651.92 C1022.75 673.27, 1044.2 696.35, 1062.36 724.07 C1080.53 751.8, 1097.41 785.06, 1111.12 818.29 C1124.82 851.52, 1135.68 882.97, 1144.57 923.45 C1153.47 963.93, 1161.53 1015.99, 1164.5 1061.15 C1167.46 1106.31, 1165.64 1153.48, 1162.34 1194.39 C1159.05 1235.31, 1153.62 1270.89, 1144.74 1306.64 C1135.86 1342.4, 1126.9 1372.82, 1109.06 1408.91 C1091.22 1445, 1063.99 1490.15, 1037.7 1523.17 C1011.41 1556.19, 982.4 1582.46, 951.34 1607.03 C920.28 1631.6, 885.03 1653.1, 851.34 1670.59 C817.65 1688.08, 782.09 1701.55, 749.21 1711.96 C716.33 1722.37, 691.12 1728.89, 654.06 1733.05 C617 1737.2, 565.32 1738.23, 526.85 1736.89 C488.38 1735.54, 455.78 1730.89, 423.25 1724.96 C390.73 1719.03, 361.47 1711.27, 331.72 1701.29 C301.98 1691.32, 272.4 1680.79, 244.79 1665.12 C217.18 1649.45, 189.69 1627.73, 166.05 1607.28 C142.41 1586.83, 123.33 1568.23, 102.96 1542.44 C82.58 1516.65, 58.91 1480.62, 43.81 1452.55 C28.72 1424.48, 20.67 1400.76, 12.41 1374.02 C4.15 1347.27, -1.25 1319.52, -5.75 1292.08 C-10.25 1264.65, -13.23 1231.31, -14.57 1209.39 C-15.91 1187.47, -16.86 1170.74, -13.77 1160.55 C-10.68 1150.36, -7.8 1150.36, 3.96 1148.25 C15.72 1146.14, 28.16 1147.95, 56.77 1147.89 C85.38 1147.83, 143.89 1147.89, 175.61 1147.89 C207.33 1147.89, 226.54 1147.89, 247.08 1147.89 C267.63 1147.89, 285.75 1147.89, 298.9 1147.89 C312.06 1147.89, 318.98 1146.63, 326 1147.89 C333.03 1149.15, 337.74 1150.3, 341.05 1155.44 C344.36 1160.59, 344.6 1168.69, 345.87 1178.76 C347.15 1188.84, 345.73 1201.38, 348.7 1215.89 C351.68 1230.4, 356.23 1249.24, 363.71 1265.82 C371.19 1282.4, 381.9 1301.27, 393.58 1315.37 C405.25 1329.47, 418.32 1340.19, 433.73 1350.4 C449.15 1360.62, 468.32 1371, 486.08 1376.64 C503.84 1382.28, 519.86 1383.26, 540.27 1384.24 C560.68 1385.22, 588.38 1385.66, 608.54 1382.53 C628.7 1379.4, 644.81 1372.96, 661.22 1365.46 C677.64 1357.97, 693 1348.2, 707.04 1337.54 C721.08 1326.89, 733.5 1316.27, 745.47 1301.54 C757.43 1286.8, 770.42 1266.66, 778.82 1249.13 C787.21 1231.61, 791.67 1217.06, 795.85 1196.39 C800.02 1175.73, 802.94 1148.25, 803.86 1125.15 C804.78 1102.05, 805.29 1081.94, 801.36 1057.78 C797.44 1033.63, 790.26 1005.99, 780.31 980.23 C770.36 954.48, 755.96 923.97, 741.67 903.28 C727.39 882.58, 711.29 868.69, 694.59 856.05 C677.89 843.41, 658.04 834.18, 641.45 827.46 C624.87 820.73, 616.56 818, 595.07 815.68 C573.58 813.37, 551.44 813.9, 512.52 813.55 C473.59 813.19, 408.57 813.55, 361.54 813.55 C314.51 813.55, 267.55 813.55, 230.32 813.55 C193.09 813.55, 165.7 813.55, 138.16 813.55 C110.62 813.55, 84.05 813.55, 65.08 813.55 C46.12 813.55, 34.35 814.59, 24.38 813.55 C14.41 812.5, 9.15 810.83, 5.25 807.28 C1.36 803.73, 1.77 803.99, 1.01 792.25 C0.25 780.51, 0.74 783.67, 0.69 736.85 C0.64 690.03, 0.69 589.69, 0.69 511.34 C0.69 432.99, 0.81 351.95, 0.69 266.72 C0.58 181.5, 0.12 44.45, 0 0" stroke="#E1E1E1" stroke-width="4" fill="none"></path></g></g><mask></mask></svg>