<svg version="1.1" xmlns="http://www.w3.org/2000/svg" viewBox="0 0 1044.5654684836509 864.0548651883391" width="1044.5654684836509" height="864.0548651883391" class="excalidraw-svg"><!-- svg-source:excalidraw --><metadata></metadata><defs><style class="style-fonts">
      </style></defs><rect x="0" y="0" width="1044.5654684836509" height="864.0548651883391" fill="#000000"></rect><g stroke-linecap="round"><g transform="translate(876.5641359333131 146.15613311907873) rotate(0 23.152443595057775 87.48275805224284)"><path d="M-0.72 -0.8 C-2.1 -2.8, -8.88 -7.95, -9.08 -12.45 C-9.27 -16.96, -5.82 -23.46, -1.9 -27.83 C2.02 -32.19, 8.31 -36.8, 14.47 -38.65 C20.62 -40.5, 28.56 -39.54, 35.05 -38.93 C41.54 -38.31, 47.59 -38.95, 53.43 -34.97 C59.27 -30.98, 66.49 -22.82, 70.09 -15.03 C73.7 -7.24, 76.48 -0.78, 75.06 11.78 C73.65 24.34, 65.82 46.96, 61.6 60.33 C57.38 73.7, 54.19 82.39, 49.76 91.97 C45.33 101.56, 39.82 110.15, 35.03 117.83 C30.24 125.51, 23.48 132.46, 21.04 138.06 C18.61 143.66, 21.2 146.25, 20.42 151.45 C19.65 156.65, 17.63 163.78, 16.39 169.27 C15.15 174.77, 13.51 180.36, 12.97 184.42 C12.43 188.49, 13.34 190.1, 13.15 193.66 C12.95 197.23, 12.92 204.09, 11.8 205.84 C10.68 207.59, 7.31 206.18, 6.42 204.18 C5.54 202.17, 6.65 197.51, 6.49 193.8 C6.33 190.09, 6.19 183.82, 5.45 181.91 C4.71 179.99, 2.68 181.88, 2.05 182.31 C1.42 182.74, 1.73 182.6, 1.67 184.51 C1.62 186.42, 1.25 189.73, 1.72 193.76 C2.19 197.79, 3.9 205.68, 4.51 208.69 C5.12 211.69, 5.64 211.35, 5.38 211.79 C5.12 212.22, 4.04 211.99, 2.95 211.28 C1.87 210.57, 0.06 209.5, -1.13 207.51 C-2.31 205.53, -3.47 202.63, -4.13 199.34 C-4.79 196.06, -4.18 191.19, -5.08 187.81 C-5.98 184.43, -9.08 179.81, -9.54 179.06 C-10.01 178.3, -8.58 180.93, -7.87 183.29 C-7.17 185.66, -5.8 189.39, -5.33 193.24 C-4.85 197.09, -5.84 203.06, -5.05 206.4 C-4.26 209.73, -0.64 211.86, -0.59 213.24 C-0.54 214.63, -2.9 215.7, -4.74 214.71 C-6.59 213.72, -10.5 210.03, -11.67 207.29 C-12.84 204.56, -11.42 201.78, -11.74 198.3 C-12.07 194.81, -12.94 189.8, -13.61 186.38 C-14.28 182.96, -15.45 177.18, -15.75 177.79 C-16.04 178.39, -15.53 186.41, -15.4 190 C-15.27 193.6, -15.5 195.93, -14.98 199.37 C-14.46 202.81, -12.3 209.86, -12.29 210.63 C-12.27 211.4, -13.68 206.68, -14.87 203.99 C-16.07 201.3, -18.3 197.85, -19.46 194.52 C-20.61 191.19, -21.22 187.44, -21.8 184.01 C-22.38 180.58, -22.66 176.24, -22.94 173.95 C-23.22 171.65, -22.81 170.8, -23.49 170.23 C-24.16 169.67, -27.56 171.47, -26.99 170.58 C-26.42 169.7, -22.56 169.52, -20.06 164.93 C-17.55 160.34, -13.7 151.76, -11.95 143.04 C-10.21 134.33, -10.05 122.46, -9.6 112.63 C-9.15 102.8, -10.44 93.88, -9.27 84.06 C-8.1 74.23, -2.7 60.55, -2.57 53.67 C-2.45 46.79, -6.65 47.87, -8.51 42.78 C-10.38 37.7, -11.54 29.25, -13.77 23.15 C-16 17.05, -19.19 11.44, -21.88 6.18 C-24.56 0.92, -28.55 -5.61, -29.88 -8.39 M1.1 1.39 C-0.28 -0.41, -8.96 -6.07, -9.56 -11.23 C-10.16 -16.39, -6.48 -25.15, -2.48 -29.57 C1.51 -33.99, 7.81 -36.29, 14.39 -37.78 C20.97 -39.26, 30.34 -39.29, 37.02 -38.48 C43.71 -37.66, 48.84 -37.11, 54.49 -32.9 C60.14 -28.68, 67.68 -20.62, 70.91 -13.19 C74.14 -5.77, 75.19 -0.9, 73.89 11.64 C72.58 24.17, 67.49 48.64, 63.08 62.03 C58.67 75.42, 52.08 83.08, 47.43 91.99 C42.78 100.9, 39.76 107.36, 35.18 115.49 C30.6 123.62, 22.44 134.87, 19.97 140.8 C17.5 146.72, 21.09 146.39, 20.35 151.07 C19.61 155.74, 16.64 163.3, 15.51 168.86 C14.38 174.43, 14.33 180.2, 13.58 184.47 C12.82 188.74, 11.41 191.32, 10.97 194.49 C10.54 197.66, 11.43 201.73, 10.97 203.47 C10.51 205.21, 9.13 206.49, 8.22 204.94 C7.32 203.39, 5.95 197.79, 5.53 194.18 C5.12 190.57, 5.97 185.36, 5.74 183.29 C5.5 181.22, 4.68 181.76, 4.12 181.73 C3.55 181.71, 2.85 180.71, 2.36 183.12 C1.88 185.53, 0.65 191.97, 1.22 196.18 C1.78 200.38, 4.76 205.73, 5.74 208.37 C6.72 211.02, 7.92 211.64, 7.09 212.04 C6.27 212.43, 1.98 211.05, 0.79 210.75 C-0.41 210.46, 0.5 212.43, -0.07 210.25 C-0.64 208.07, -1.92 201.76, -2.64 197.69 C-3.37 193.62, -3.48 189.13, -4.41 185.83 C-5.35 182.53, -7.68 178.02, -8.23 177.88 C-8.78 177.75, -8.28 182.21, -7.71 185.02 C-7.15 187.83, -5.52 191.31, -4.85 194.74 C-4.18 198.18, -4.12 202.43, -3.69 205.64 C-3.26 208.85, -2.32 212.51, -2.24 214.01 C-2.16 215.5, -1.6 215.54, -3.19 214.62 C-4.78 213.7, -10.17 210.86, -11.78 208.49 C-13.4 206.12, -12.62 204.12, -12.88 200.42 C-13.13 196.73, -12.67 190.01, -13.32 186.3 C-13.97 182.59, -16.24 177.43, -16.76 178.14 C-17.27 178.86, -16.74 187.04, -16.42 190.59 C-16.1 194.15, -15.78 196, -14.86 199.45 C-13.93 202.9, -10.79 210.49, -10.89 211.31 C-10.98 212.12, -14.04 207.44, -15.42 204.32 C-16.8 201.2, -18.49 195.95, -19.17 192.6 C-19.84 189.24, -19.14 187.23, -19.48 184.18 C-19.82 181.13, -20.92 176.68, -21.19 174.28 C-21.47 171.88, -20.23 170.65, -21.15 169.77 C-22.07 168.88, -26.89 170, -26.71 168.94 C-26.53 167.89, -22.14 167.74, -20.06 163.43 C-17.99 159.11, -16.15 151.27, -14.24 143.06 C-12.34 134.86, -9.47 123.6, -8.63 114.2 C-7.8 104.81, -10.38 96.77, -9.22 86.69 C-8.06 76.6, -2.2 60.84, -1.67 53.69 C-1.14 46.54, -3.94 49, -6.06 43.78 C-8.18 38.57, -11.86 28.85, -14.39 22.39 C-16.93 15.93, -18.99 10.16, -21.28 5.02 C-23.58 -0.11, -26.94 -5.78, -28.18 -8.41" stroke="#E1E1E1" stroke-width="2" fill="none"></path></g></g><mask></mask><g stroke-linecap="round"><g transform="translate(878.1503901484184 151.64316232603323) rotate(0 -1.5624515093641094 19.40822864664551)"><path d="M-0.02 -0.08 C-0.15 2.36, 0.03 8.17, -0.55 14.56 C-1.13 20.95, -3.04 34.21, -3.5 38.27 M-0.7 -0.59 C-0.66 1.94, 0.8 8.72, 0.52 15.25 C0.24 21.78, -1.74 34.56, -2.38 38.6" stroke="#E1E1E1" stroke-width="2" fill="none"></path></g><g transform="translate(878.1503901484184 151.64316232603323) rotate(0 -1.5624515093641094 19.40822864664551)"><path d="M-4.77 26.62 C-4.06 30.29, -3.19 34.23, -2.38 38.6 M-4.77 26.62 C-4.45 29.24, -3.6 31.72, -2.38 38.6" stroke="#E1E1E1" stroke-width="2" fill="none"></path></g><g transform="translate(878.1503901484184 151.64316232603323) rotate(0 -1.5624515093641094 19.40822864664551)"><path d="M3.49 27.89 C1.43 31.13, -0.46 34.65, -2.38 38.6 M3.49 27.89 C2.14 30.26, 1.33 32.48, -2.38 38.6" stroke="#E1E1E1" stroke-width="2" fill="none"></path></g></g><mask></mask><g stroke-linecap="round"><g transform="translate(946.4614756919291 105.95882653607714) rotate(0 -43.25967572766376 128.8822748619923)"><path d="M0.26 1.12 C1.22 2.44, 2.38 1.3, 4.77 7.01 C7.17 12.73, 12.22 27.7, 14.64 35.4 C17.07 43.09, 19.56 45.78, 19.33 53.17 C19.11 60.56, 17.5 67.98, 13.29 79.75 C9.07 91.52, 0.36 110.56, -5.98 123.79 C-12.32 137.01, -18.47 148.59, -24.74 159.1 C-31.01 169.6, -40.19 181.68, -43.6 186.81 C-47 191.95, -44.89 187.98, -45.19 189.91 C-45.48 191.85, -44.46 194.24, -45.38 198.44 C-46.31 202.63, -48.77 210.43, -50.72 215.1 C-52.66 219.76, -55.84 222.87, -57.05 226.42 C-58.27 229.98, -58 233.09, -58.02 236.43 C-58.04 239.76, -57.14 244.46, -57.17 246.43 C-57.2 248.4, -57.17 247.98, -58.21 248.25 C-59.25 248.52, -62.52 247.5, -63.4 248.05 C-64.28 248.59, -63.54 250.3, -63.48 251.52 C-63.42 252.75, -62.48 254.25, -63.03 255.39 C-63.59 256.52, -65.75 258.25, -66.82 258.33 C-67.88 258.41, -68.39 256.26, -69.43 255.87 C-70.47 255.49, -72.02 255.77, -73.05 256.03 C-74.07 256.29, -73.8 257.83, -75.58 257.44 C-77.36 257.06, -81.41 255.67, -83.73 253.72 C-86.06 251.77, -87.68 249.96, -89.55 245.75 C-91.42 241.54, -93.9 233.15, -94.95 228.46 C-96 223.78, -94.16 219.77, -95.86 217.63 C-97.57 215.49, -104.29 216.9, -105.18 215.62 C-106.06 214.34, -102.98 211.96, -101.17 209.96 C-99.35 207.97, -96.39 206.6, -94.28 203.63 C-92.17 200.66, -90.16 196.94, -88.51 192.15 C-86.85 187.36, -85.11 182.62, -84.32 174.86 C-83.53 167.11, -84.81 156.74, -83.76 145.64 C-82.72 134.54, -79.1 116.83, -78.06 108.26 C-77.01 99.69, -77.22 97.49, -77.5 94.21 C-77.79 90.93, -77.41 93.92, -79.77 88.58 C-82.13 83.25, -88.15 70.57, -91.68 62.18 C-95.21 53.79, -99.42 42.33, -100.94 38.23 M-1.06 0.66 C0.35 2.18, 4.47 2.55, 6.95 8.04 C9.43 13.54, 11.62 25.92, 13.81 33.64 C16 41.37, 20.41 46.67, 20.09 54.37 C19.78 62.06, 16.08 68.44, 11.93 79.8 C7.77 91.17, 1.24 109.01, -4.84 122.56 C-10.91 136.11, -17.89 150.36, -24.51 161.08 C-31.14 171.81, -40.85 182.32, -44.58 186.91 C-48.31 191.51, -46.91 186.28, -46.89 188.64 C-46.87 191.01, -43.95 197.06, -44.45 201.13 C-44.95 205.19, -48.1 208.85, -49.89 213.04 C-51.68 217.23, -53.8 222.56, -55.21 226.26 C-56.63 229.97, -57.93 231.86, -58.39 235.28 C-58.85 238.71, -58.05 244.78, -57.96 246.81 C-57.87 248.83, -57.07 247.59, -57.85 247.43 C-58.63 247.28, -62.05 245.12, -62.64 245.85 C-63.23 246.59, -61.67 250.23, -61.39 251.84 C-61.11 253.46, -60.36 254.92, -60.96 255.54 C-61.55 256.16, -63.63 255.68, -64.95 255.55 C-66.27 255.41, -67.33 254.33, -68.88 254.72 C-70.42 255.12, -72.65 257.11, -74.23 257.92 C-75.82 258.73, -76.73 260.39, -78.37 259.58 C-80.01 258.77, -81.97 255.46, -84.08 253.05 C-86.18 250.64, -89.39 249.22, -91.02 245.14 C-92.65 241.05, -93.27 233.04, -93.87 228.53 C-94.46 224.01, -92.92 220.26, -94.59 218.06 C-96.26 215.86, -102.44 216.93, -103.88 215.33 C-105.32 213.73, -104.94 210.2, -103.24 208.46 C-101.54 206.71, -96.4 207.75, -93.67 204.85 C-90.94 201.96, -88.33 196.31, -86.85 191.1 C-85.37 185.89, -85.18 180.93, -84.77 173.6 C-84.35 166.26, -85.22 158.01, -84.35 147.08 C-83.47 136.15, -80.89 116.72, -79.52 108.02 C-78.16 99.32, -75.77 98.24, -76.13 94.89 C-76.5 91.54, -79.12 93.11, -81.73 87.92 C-84.34 82.72, -88.32 72.22, -91.78 63.72 C-95.25 55.22, -101.18 41.43, -102.53 36.91" stroke="#E1E1E1" stroke-width="2" fill="none"></path></g></g><mask></mask><g stroke-linecap="round"><g transform="translate(840.4940711294912 140.63020220240742) rotate(0 -4.385009002751303 29.554938995423527)"><path d="M0.07 -0.08 C-2.51 1.77, -11.8 6.02, -15.76 9.98 C-19.71 13.93, -22.26 18.73, -23.64 23.64 C-25.02 28.56, -25.71 36.92, -24.03 39.47 C-22.36 42.02, -15.49 37.16, -13.6 38.94 C-11.72 40.72, -9.92 47.85, -12.7 50.14 C-15.49 52.43, -29.13 51.55, -30.31 52.68 C-31.48 53.81, -25.15 56.05, -19.77 56.94 C-14.4 57.83, -4.93 57.69, 1.95 58.02 C8.84 58.35, 18.14 58.75, 21.52 58.94 M-1.35 -1.17 C-3.5 0.98, -9.45 7.72, -13.35 11.51 C-17.25 15.3, -22.99 17.26, -24.74 21.57 C-26.49 25.88, -25.56 34.39, -23.86 37.39 C-22.16 40.4, -16.65 37.63, -14.55 39.58 C-12.44 41.53, -8.17 47.04, -11.22 49.1 C-14.26 51.15, -31.31 50.59, -32.84 51.9 C-34.36 53.22, -25.9 56.18, -20.37 56.99 C-14.85 57.8, -6.7 56.56, 0.33 56.79 C7.36 57.02, 18.12 57.84, 21.8 58.39" stroke="#E1E1E1" stroke-width="2" fill="none"></path></g><g transform="translate(840.4940711294912 140.63020220240742) rotate(0 -4.385009002751303 29.554938995423527)"><path d="M11.76 60.83 C14.48 59.65, 17.31 58.93, 21.8 58.39 M11.76 60.83 C15.64 60.13, 18.7 59.08, 21.8 58.39" stroke="#E1E1E1" stroke-width="2" fill="none"></path></g><g transform="translate(840.4940711294912 140.63020220240742) rotate(0 -4.385009002751303 29.554938995423527)"><path d="M12.54 53.81 C14.98 54.56, 17.59 55.78, 21.8 58.39 M12.54 53.81 C16.14 55.52, 18.94 56.88, 21.8 58.39" stroke="#E1E1E1" stroke-width="2" fill="none"></path></g></g><mask></mask><g stroke-linecap="round"><g transform="translate(844.0013376947891 133.6796635110877) rotate(0 47.977008996202585 121.71573270682848)"><path d="M1 -0.76 C3.67 -4.73, 10.69 -18.07, 15.35 -24.4 C20 -30.74, 22.89 -35.45, 28.93 -38.77 C34.97 -42.08, 43.17 -43.56, 51.58 -44.3 C59.99 -45.05, 70.46 -44.49, 79.37 -43.25 C88.29 -42, 97.35 -41.23, 105.08 -36.81 C112.81 -32.39, 120.07 -24.39, 125.75 -16.73 C131.43 -9.07, 136.39 -1.24, 139.17 9.15 C141.96 19.55, 143.12 37.2, 142.45 45.63 C141.78 54.06, 137.36 53.69, 135.14 59.74 C132.92 65.79, 130.53 72.14, 129.14 81.93 C127.75 91.73, 127.17 104.53, 126.81 118.51 C126.45 132.49, 126.79 151, 126.96 165.83 C127.14 180.66, 130.46 195.74, 127.86 207.48 C125.25 219.23, 118.52 225.43, 111.32 236.29 C104.12 247.16, 92.73 264.23, 84.64 272.67 C76.55 281.11, 74.1 284.62, 62.77 286.94 C51.44 289.27, 28.37 291.57, 16.67 286.62 C4.96 281.67, -4.29 262.54, -7.44 257.24 C-10.6 251.94, -0.2 256.26, -2.27 254.8 C-4.33 253.34, -16.11 250.19, -19.83 248.49 C-23.56 246.8, -24.29 250.34, -24.63 244.62 C-24.96 238.91, -22.14 224.35, -21.87 214.2 C-21.6 204.05, -19.96 187.79, -22.99 183.71 C-26.01 179.63, -36.05 192.21, -40.01 189.72 C-43.97 187.24, -46.73 177.04, -46.75 168.79 C-46.76 160.54, -44.46 151.68, -40.1 140.2 C-35.74 128.73, -28.13 109.66, -20.59 99.93 C-13.05 90.19, -1.92 85.26, 5.14 81.8 C12.21 78.34, 18.77 79.38, 21.78 79.19 M0.07 1.45 C2.69 -2.27, 10.05 -16.42, 14.71 -22.93 C19.36 -29.43, 21.83 -34.13, 28.02 -37.57 C34.2 -41.01, 43.53 -42.71, 51.83 -43.59 C60.13 -44.47, 69.23 -43.78, 77.83 -42.83 C86.44 -41.88, 95.45 -42.57, 103.45 -37.89 C111.44 -33.22, 120.06 -22.64, 125.81 -14.78 C131.56 -6.92, 134.91 -1.11, 137.96 9.28 C141.02 19.68, 144.5 39.24, 144.13 47.6 C143.77 55.96, 138.23 53.56, 135.75 59.46 C133.27 65.36, 130.98 73.19, 129.25 82.98 C127.52 92.77, 125.69 103.98, 125.37 118.17 C125.06 132.37, 127.01 153.38, 127.35 168.15 C127.7 182.92, 130.03 195.43, 127.45 206.8 C124.86 218.17, 119.34 225.22, 111.84 236.36 C104.34 247.5, 90.31 265.11, 82.44 273.66 C74.57 282.21, 75.26 285.39, 64.62 287.67 C53.98 289.94, 30.8 292.28, 18.58 287.33 C6.37 282.38, -5.28 263.63, -8.65 257.97 C-12.02 252.32, 0.45 255.16, -1.63 253.41 C-3.71 251.66, -17.44 248.6, -21.14 247.47 C-24.84 246.34, -23.63 252.38, -23.82 246.64 C-24.01 240.91, -22.66 223.67, -22.29 213.06 C-21.93 202.45, -18.94 186.84, -21.63 183 C-24.32 179.16, -34.48 192.3, -38.45 190.01 C-42.41 187.72, -45.37 177.13, -45.42 169.27 C-45.47 161.41, -43.12 154.15, -38.75 142.84 C-34.37 131.53, -26.53 111.86, -19.17 101.39 C-11.8 90.93, -1.6 83.46, 5.43 80.06 C12.45 76.66, 20.04 81.15, 22.99 80.99" stroke="#E1E1E1" stroke-width="2" fill="none"></path></g></g><mask></mask><g stroke-linecap="round"><g transform="translate(859.7355986106295 250.68386988378188) rotate(0 -17.021212551302142 16.001076578418633)"><path d="M1.15 -1.12 C-1.37 -1.25, -12.09 -4.27, -15.96 -0.35 C-19.83 3.57, -21.1 15.09, -22.07 22.4 C-23.04 29.71, -19.98 42.18, -21.79 43.51 C-23.6 44.83, -31.69 39.8, -32.94 30.37 C-34.2 20.93, -30.13 -6.04, -29.32 -13.11 M0.29 0.9 C-1.76 0.86, -9.7 -2.59, -13.59 0.69 C-17.49 3.97, -21.77 13.36, -23.08 20.6 C-24.4 27.84, -19.7 42.42, -21.49 44.13 C-23.29 45.84, -32.68 40.02, -33.84 30.86 C-35 21.69, -29.56 -3.51, -28.47 -10.85" stroke="#E1E1E1" stroke-width="2" fill="none"></path></g><g transform="translate(859.7355986106295 250.68386988378188) rotate(0 -17.021212551302142 16.001076578418633)"><path d="M-24.75 10.31 C-27.55 4.4, -28.11 -0.14, -28.47 -10.85 M-24.75 10.31 C-25.29 2.27, -28.54 -6.65, -28.47 -10.85" stroke="#E1E1E1" stroke-width="2" fill="none"></path></g><g transform="translate(859.7355986106295 250.68386988378188) rotate(0 -17.021212551302142 16.001076578418633)"><path d="M-39.22 7.75 C-38.69 2.29, -35.94 -1.66, -28.47 -10.85 M-39.22 7.75 C-34.17 0.8, -31.82 -7.12, -28.47 -10.85" stroke="#E1E1E1" stroke-width="2" fill="none"></path></g></g><mask></mask><g stroke-linecap="round"><g transform="translate(806.5548722952908 194.84982404377388) rotate(0 -18.34197036331352 29.794924233472557)"><path d="M0.81 -0.24 C-2.08 3.57, -10.88 14, -17.24 23.98 C-23.6 33.96, -34.19 53.62, -37.36 59.65 M-0.22 -1.42 C-3.24 3.06, -11.52 14.77, -17.89 25.17 C-24.27 35.57, -35.5 55.55, -38.47 61" stroke="#E1E1E1" stroke-width="2" fill="none"></path></g></g><mask></mask><g stroke-linecap="round"><g transform="translate(926.6189359815698 62.75212218298839) rotate(0 -41.77863193260691 270.070786132419)"><path d="M0.72 1.02 C1.03 -1.33, 1.86 -8.27, 1.95 -13.82 C2.05 -19.36, 2.49 -27.14, 1.3 -32.26 C0.11 -37.37, -1.7 -41.17, -5.17 -44.53 C-8.64 -47.89, -13.48 -51.47, -19.52 -52.4 C-25.56 -53.32, -35.33 -50.98, -41.42 -50.08 C-47.51 -49.18, -52.32 -48.97, -56.06 -47.01 C-59.8 -45.04, -61.21 -42.74, -63.83 -38.31 C-66.45 -33.87, -70.77 -24.36, -71.78 -20.41 C-72.79 -16.47, -70.67 -16.14, -69.88 -14.62 C-69.1 -13.1, -66.71 -12.62, -67.07 -11.3 C-67.43 -9.98, -70.47 -8.16, -72.02 -6.72 C-73.58 -5.28, -75.74 -4.56, -76.38 -2.66 C-77.02 -0.77, -76.55 3.47, -75.86 4.66 C-75.17 5.85, -73.12 4.06, -72.25 4.5 C-71.38 4.95, -70.47 6.13, -70.63 7.33 C-70.79 8.53, -72.68 9.72, -73.21 11.69 C-73.74 13.66, -74.46 16.49, -73.81 19.13 C-73.16 21.77, -70.71 25.38, -69.32 27.52 C-67.93 29.66, -65.27 30.84, -65.49 31.97 C-65.72 33.11, -66.85 32.2, -70.67 34.33 C-74.48 36.46, -82.44 39.42, -88.38 44.76 C-94.33 50.1, -101.23 59.61, -106.33 66.37 C-111.43 73.12, -115.71 79.54, -118.99 85.27 C-122.27 91, -124.85 95.11, -126.01 100.76 C-127.16 106.41, -124.94 115.03, -125.92 119.17 C-126.91 123.31, -128.9 121.54, -131.94 125.61 C-134.97 129.67, -140.05 136.15, -144.13 143.55 C-148.2 150.96, -153.48 161.65, -156.4 170.04 C-159.33 178.44, -159.95 182.28, -161.66 193.92 C-163.37 205.56, -166.17 223.6, -166.64 239.87 C-167.12 256.15, -167.79 276.62, -164.49 291.56 C-161.19 306.51, -154.3 320.72, -146.84 329.55 C-139.38 338.38, -125.39 341.63, -119.74 344.56 C-114.08 347.48, -114.04 345.52, -112.9 347.08 C-111.76 348.63, -113.73 351.76, -112.91 353.89 C-112.08 356.01, -110.06 357.55, -107.94 359.83 C-105.82 362.1, -101.63 363.93, -100.18 367.53 C-98.73 371.12, -100.39 376.81, -99.23 381.4 C-98.06 385.99, -95.09 392.45, -93.2 395.07 C-91.3 397.69, -89.42 395.31, -87.85 397.1 C-86.28 398.89, -85.25 402.14, -83.79 405.78 C-82.33 409.42, -81.61 415.1, -79.08 418.93 C-76.55 422.77, -70.99 422.87, -68.61 428.79 C-66.22 434.71, -65.34 446.44, -64.78 454.46 C-64.21 462.48, -66.53 467.51, -65.23 476.92 C-63.93 486.32, -59.26 501.3, -56.98 510.86 C-54.69 520.43, -51.98 527.21, -51.52 534.31 C-51.05 541.4, -51.28 548.19, -54.18 553.45 C-57.07 558.71, -63.17 562.7, -68.87 565.86 C-74.58 569.02, -83.85 571.22, -88.41 572.42 C-92.96 573.62, -93.45 573.42, -96.22 573.04 C-98.99 572.67, -102.9 570.25, -105.03 570.16 C-107.16 570.07, -107.29 571.4, -109 572.49 C-110.7 573.58, -115 574.78, -115.28 576.7 C-115.56 578.61, -112.32 581.92, -110.69 583.99 C-109.06 586.06, -108.45 587.97, -105.5 589.12 C-102.55 590.26, -102.53 590.61, -93 590.87 C-83.47 591.14, -60.21 590.67, -48.31 590.7 C-36.4 590.73, -29.25 591.23, -21.55 591.05 C-13.86 590.87, -5.42 591.51, -2.15 589.63 C1.11 587.75, -0.98 584.46, -1.95 579.76 C-2.93 575.06, -6.77 567.36, -8 561.43 C-9.24 555.5, -10.41 552.53, -9.37 544.16 C-8.33 535.79, -4.58 519.99, -1.74 511.21 C1.09 502.42, 5.65 498.31, 7.65 491.46 C9.65 484.62, 10.66 477.56, 10.26 470.15 C9.86 462.73, 6.08 451.47, 5.26 446.96 C4.45 442.45, 4.83 443.9, 5.37 443.1 C5.9 442.29, 7.58 440.78, 8.45 442.13 C9.31 443.48, 9.77 446.24, 10.55 451.19 C11.32 456.15, 11.19 464.13, 13.12 471.84 C15.05 479.55, 18.71 489.67, 22.12 497.45 C25.54 505.23, 31.27 512.03, 33.59 518.52 C35.91 525.02, 35.29 531.21, 36.04 536.42 C36.79 541.64, 38.55 546.65, 38.08 549.8 C37.62 552.96, 36.27 552.62, 33.26 555.36 C30.24 558.1, 24.03 563.53, 20 566.25 C15.97 568.97, 11.92 570.98, 9.1 571.65 C6.29 572.32, 4.16 570.74, 3.11 570.26 C2.07 569.78, 3.83 568.93, 2.85 568.77 C1.86 568.61, -2.05 568.5, -2.8 569.29 C-3.54 570.08, -1.57 571.58, -1.61 573.51 C-1.66 575.45, -3.35 578.93, -3.07 580.91 C-2.79 582.89, -0.9 584.56, 0.07 585.37 C1.04 586.18, -3.73 585.56, 2.76 585.76 C9.25 585.95, 28.3 586.14, 39 586.54 C49.7 586.94, 60.23 588.16, 66.98 588.15 C73.73 588.14, 77.25 588.14, 79.51 586.49 C81.76 584.83, 81.12 581.95, 80.52 578.23 C79.92 574.52, 77.7 568.85, 75.9 564.18 C74.11 559.52, 70.67 555.35, 69.72 550.24 C68.78 545.13, 68.8 541.49, 70.23 533.53 C71.66 525.57, 76.23 511.14, 78.28 502.46 C80.33 493.78, 82.27 489.06, 82.52 481.45 C82.76 473.84, 81.4 464.13, 79.75 456.81 C78.09 449.48, 74.27 441.95, 72.57 437.48 C70.88 433.01, 70.29 433.27, 69.59 430 C68.89 426.74, 68.07 422.17, 68.39 417.88 C68.71 413.59, 69.75 408.57, 71.52 404.28 C73.28 399.98, 77.7 396.53, 78.99 392.12 C80.28 387.71, 80.45 379.95, 79.25 377.81 C78.05 375.67, 76 378.46, 71.8 379.28 C67.61 380.11, 58.57 381.93, 54.09 382.78 C49.61 383.63, 48.36 384.21, 44.9 384.39 C41.44 384.58, 35.53 382.91, 33.33 383.92 C31.12 384.92, 33.37 386.57, 31.65 390.43 C29.93 394.28, 26.14 402.1, 23.02 407.05 C19.9 412, 15.28 415.26, 12.93 420.12 C10.57 424.98, 9.51 433.58, 8.88 436.22 M-0.36 0.51 C-0.16 -2.23, 1.18 -9.95, 1.39 -15.77 C1.6 -21.59, 1.9 -29.71, 0.91 -34.39 C-0.09 -39.07, -1.49 -40.86, -4.59 -43.86 C-7.69 -46.86, -11.68 -51.18, -17.68 -52.37 C-23.68 -53.56, -34.23 -51.66, -40.6 -51 C-46.96 -50.34, -51.81 -50.98, -55.88 -48.41 C-59.96 -45.84, -62.66 -39.99, -65.04 -35.57 C-67.43 -31.15, -69.52 -25.26, -70.18 -21.9 C-70.84 -18.55, -69.62 -17.33, -69.02 -15.45 C-68.41 -13.56, -65.82 -11.98, -66.52 -10.61 C-67.23 -9.24, -71.63 -8.35, -73.23 -7.21 C-74.84 -6.06, -75.66 -5.74, -76.18 -3.73 C-76.7 -1.73, -76.98 3.44, -76.36 4.82 C-75.74 6.2, -73.01 4.46, -72.44 4.55 C-71.87 4.64, -72.61 4.57, -72.93 5.35 C-73.24 6.14, -74.53 7.43, -74.34 9.26 C-74.14 11.1, -72.42 13.22, -71.77 16.36 C-71.11 19.5, -71.52 25.69, -70.4 28.08 C-69.27 30.47, -64.87 29.89, -65.03 30.72 C-65.19 31.55, -67.38 30.95, -71.33 33.05 C-75.28 35.15, -82.95 37.8, -88.72 43.3 C-94.5 48.8, -101.18 59.18, -105.97 66.05 C-110.76 72.93, -114.34 78.72, -117.47 84.54 C-120.6 90.36, -123.52 95.25, -124.75 100.97 C-125.99 106.69, -123.84 114.89, -124.87 118.87 C-125.9 122.84, -127.42 120.41, -130.93 124.8 C-134.44 129.18, -141.68 137.94, -145.93 145.17 C-150.17 152.4, -153.48 159.75, -156.4 168.18 C-159.31 176.61, -161.62 183.51, -163.41 195.75 C-165.2 207.98, -167.03 225.83, -167.14 241.61 C-167.24 257.4, -167.6 275.93, -164.05 290.43 C-160.49 304.94, -152.91 319.49, -145.8 328.65 C-138.68 337.8, -126.58 342.34, -121.34 345.36 C-116.1 348.37, -115.83 345.63, -114.37 346.74 C-112.9 347.85, -113.91 349.5, -112.54 352.01 C-111.16 354.52, -108.24 359.34, -106.09 361.81 C-103.94 364.28, -101.17 363.46, -99.62 366.84 C-98.08 370.22, -97.78 377.39, -96.84 382.11 C-95.9 386.83, -95.56 392.59, -94.01 395.14 C-92.47 397.69, -88.98 395.7, -87.57 397.4 C-86.17 399.1, -86.81 401.75, -85.58 405.34 C-84.34 408.94, -83.12 414.84, -80.16 418.96 C-77.19 423.07, -70.26 424.23, -67.76 430.03 C-65.27 435.82, -65.38 445.96, -65.19 453.73 C-64.99 461.5, -67.9 467.2, -66.62 476.65 C-65.34 486.1, -60.03 501.01, -57.5 510.44 C-54.97 519.87, -51.95 526.25, -51.44 533.23 C-50.93 540.21, -51.69 546.9, -54.43 552.33 C-57.17 557.75, -62.42 562.69, -67.87 565.78 C-73.33 568.87, -82.56 569.71, -87.17 570.86 C-91.79 572.02, -92.57 572.88, -95.54 572.72 C-98.51 572.56, -102.56 569.76, -104.98 569.88 C-107.4 570.01, -108.62 572.53, -110.03 573.48 C-111.44 574.43, -113.43 574.05, -113.43 575.59 C-113.43 577.12, -111.22 580.48, -110.05 582.68 C-108.89 584.88, -109.48 587.86, -106.44 588.76 C-103.4 589.67, -101.62 587.54, -91.81 588.12 C-82 588.7, -59.23 591.7, -47.56 592.25 C-35.88 592.8, -29.01 591.72, -21.76 591.42 C-14.51 591.12, -7.54 592.24, -4.07 590.43 C-0.61 588.63, -0.14 584.94, -0.99 580.59 C-1.83 576.24, -7.67 570.14, -9.15 564.32 C-10.63 558.49, -11.32 554.25, -9.85 545.62 C-8.38 536.99, -3.33 521.52, -0.32 512.53 C2.68 503.55, 6.8 498.77, 8.18 491.74 C9.55 484.7, 8.34 477.89, 7.94 470.32 C7.54 462.75, 6.33 451.05, 5.78 446.32 C5.22 441.6, 4.13 442.73, 4.61 441.96 C5.09 441.18, 7.8 440.33, 8.64 441.66 C9.49 443, 8.7 445.18, 9.68 449.94 C10.67 454.71, 12.43 462.27, 14.57 470.24 C16.7 478.2, 19.02 489.75, 22.51 497.72 C26 505.69, 32.92 511.87, 35.5 518.08 C38.08 524.29, 37.71 529.71, 37.99 534.98 C38.27 540.25, 38.04 546.13, 37.17 549.71 C36.31 553.29, 35.91 553.72, 32.78 556.44 C29.65 559.16, 22.46 563.64, 18.39 566.04 C14.32 568.44, 10.86 570.11, 8.37 570.82 C5.87 571.53, 4.47 571.05, 3.4 570.31 C2.34 569.57, 3.06 566.7, 1.99 566.37 C0.91 566.04, -2.09 566.81, -3.03 568.34 C-3.97 569.88, -3.67 573.81, -3.63 575.58 C-3.59 577.35, -2.98 577.09, -2.81 578.96 C-2.64 580.83, -3.92 585.95, -2.64 586.78 C-1.36 587.62, -1.97 583.84, 4.87 583.98 C11.72 584.11, 27.95 586.69, 38.43 587.59 C48.91 588.49, 60.73 589.25, 67.74 589.37 C74.75 589.48, 78.44 590.3, 80.49 588.27 C82.53 586.23, 81.1 581.31, 80.02 577.15 C78.94 572.99, 75.47 567.9, 74.01 563.32 C72.55 558.75, 71.77 555.1, 71.25 549.69 C70.73 544.28, 69.54 539.14, 70.88 530.85 C72.21 522.57, 77.36 507.76, 79.27 499.96 C81.19 492.15, 82.22 491.14, 82.36 484.01 C82.51 476.87, 81.65 465.01, 80.12 457.16 C78.6 449.31, 74.89 441.32, 73.19 436.91 C71.49 432.5, 70.93 433.85, 69.94 430.69 C68.95 427.53, 66.74 422.33, 67.26 417.95 C67.78 413.58, 71.42 408.59, 73.08 404.44 C74.74 400.29, 76.15 397.44, 77.23 393.06 C78.31 388.67, 80.35 380.32, 79.56 378.13 C78.77 375.93, 76.33 378.78, 72.52 379.88 C68.71 380.98, 61.5 384.16, 56.7 384.74 C51.9 385.33, 47.55 383.36, 43.73 383.39 C39.9 383.42, 36.07 383.65, 33.73 384.91 C31.4 386.17, 31.67 387.48, 29.72 390.94 C27.77 394.4, 24.53 400.6, 22.04 405.67 C19.55 410.75, 17.05 416.35, 14.77 421.38 C12.48 426.41, 9.48 433.12, 8.3 435.85" stroke="#E1E1E1" stroke-width="2" fill="none"></path></g></g><mask></mask><g stroke-linecap="round"><g transform="translate(1006.5838019330331 439.6445136190496) rotate(0 -26.24604967314326 -187.79395969102507)"><path d="M0.54 0.49 C0.82 0.59, 1.29 1.52, 2.7 -0.52 C4.1 -2.57, 7.08 -5.75, 8.97 -11.78 C10.86 -17.81, 12.43 -28.71, 14.04 -36.7 C15.65 -44.69, 16.75 -52.8, 18.6 -59.71 C20.45 -66.63, 23.72 -71.45, 25.15 -78.19 C26.58 -84.93, 27.47 -91.43, 27.2 -100.16 C26.93 -108.9, 24.71 -117.25, 23.52 -130.6 C22.34 -143.95, 20.76 -165.31, 20.11 -180.26 C19.46 -195.21, 19.87 -207.41, 19.63 -220.32 C19.4 -233.22, 20.19 -246.51, 18.69 -257.7 C17.18 -268.9, 14.45 -277.21, 10.59 -287.47 C6.74 -297.73, 1.83 -309.81, -4.43 -319.25 C-10.7 -328.69, -19.4 -337.04, -27 -344.11 C-34.6 -351.19, -44.09 -356.8, -50.04 -361.71 C-55.98 -366.62, -57.87 -371.24, -62.66 -373.57 C-67.44 -375.91, -76.06 -375.36, -78.75 -375.73 M-0.64 -0.3 C-0.66 -0.48, 0 -0.7, 1.46 -2.46 C2.93 -4.22, 6.04 -5.29, 8.13 -10.86 C10.21 -16.44, 12.45 -27.76, 13.98 -35.91 C15.5 -44.05, 15.28 -52.5, 17.29 -59.74 C19.3 -66.99, 24.28 -72.99, 26.03 -79.37 C27.77 -85.75, 28.34 -89.37, 27.77 -98.03 C27.2 -106.68, 23.63 -117.4, 22.61 -131.31 C21.6 -145.23, 22.09 -166.61, 21.68 -181.53 C21.26 -196.44, 20.62 -207.74, 20.12 -220.82 C19.62 -233.89, 19.94 -248.8, 18.67 -259.98 C17.41 -271.15, 16.42 -278.37, 12.55 -287.86 C8.68 -297.35, 2.2 -307.51, -4.55 -316.95 C-11.29 -326.38, -20.47 -336.91, -27.92 -344.46 C-35.38 -352.01, -43.12 -357.61, -49.27 -362.23 C-55.42 -366.85, -59.8 -370.05, -64.83 -372.19 C-69.85 -374.33, -76.98 -374.5, -79.44 -375.06" stroke="#E1E1E1" stroke-width="2" fill="none"></path></g></g><mask></mask><g stroke-linecap="round"><g transform="translate(925.9595664853132 64.00957212939193) rotate(0 14.12682992586997 6.417606625964709)"><path d="M0.39 0.14 C1.88 0.59, 5.86 1.9, 8.68 2.87 C11.49 3.85, 13.95 4.43, 17.28 6 C20.62 7.57, 26.91 11.19, 28.69 12.3 M-0.07 -0.26 C1.4 0.03, 5.61 1.07, 8.43 2.18 C11.25 3.3, 13.4 4.7, 16.84 6.43 C20.27 8.15, 27.04 11.47, 29.03 12.53" stroke="#E1E1E1" stroke-width="2" fill="none"></path></g></g><mask></mask><g stroke-linecap="round"><g transform="translate(944.8841002690433 71.38771744341739) rotate(0 -20.515531090460627 0.3460268317439841)"><path d="M0.23 -0.02 C-1.19 -0.05, -4.02 -0.36, -8.32 0.19 C-12.63 0.74, -20.15 2.17, -25.58 3.27 C-31.01 4.37, -40.39 7.23, -40.89 6.78 C-41.39 6.33, -32.59 2.7, -28.59 0.57 C-24.6 -1.55, -18.77 -4.9, -16.92 -5.96 M-0.31 -0.51 C-1.79 -0.74, -4.51 -1.4, -8.54 -0.68 C-12.56 0.04, -19.09 2.49, -24.45 3.83 C-29.81 5.17, -40.16 7.84, -40.7 7.35 C-41.25 6.86, -31.55 3.18, -27.73 0.88 C-23.91 -1.42, -19.53 -5.24, -17.8 -6.45" stroke="#E1E1E1" stroke-width="2" fill="none"></path></g></g><mask></mask><g stroke-linecap="round"><g transform="translate(927.9877308086834 79.39328832945102) rotate(0 -2.235849010909078 238.89157359586443)"><path d="M0.46 0.84 C4.72 1.64, 18.4 0.6, 25.89 3.93 C33.38 7.27, 38.46 13.35, 45.39 20.86 C52.32 28.36, 62.05 38.34, 67.46 48.96 C72.86 59.59, 76.26 72.47, 77.82 84.6 C79.39 96.73, 76.88 107.47, 76.86 121.73 C76.84 136, 77.82 156.94, 77.72 170.17 C77.62 183.4, 76.76 185.45, 76.25 201.11 C75.75 216.77, 75.07 250.29, 74.69 264.15 C74.31 278.01, 78.04 278.33, 74 284.25 C69.96 290.18, 58.39 292.24, 50.45 299.72 C42.52 307.2, 33.08 319.03, 26.41 329.14 C19.74 339.26, 17.24 354.38, 10.44 360.4 C3.64 366.42, -4.36 364.15, -14.39 365.28 C-24.42 366.4, -41.88 366.05, -49.72 367.14 C-57.57 368.24, -63.49 371.8, -61.47 371.84 C-59.44 371.88, -48.14 368.04, -37.56 367.39 C-26.98 366.75, -7.47 368.2, 2 367.99 C11.46 367.79, 17.24 363.8, 19.21 366.16 C21.19 368.51, 17.53 374.84, 13.82 382.11 C10.12 389.38, 1.16 402.26, -3.01 409.8 C-7.18 417.33, -9.37 418.9, -11.2 427.32 C-13.04 435.75, -9.5 451.93, -14.02 460.35 C-18.55 468.78, -33.61 478.87, -38.35 477.88 C-43.09 476.89, -40.99 465.88, -42.47 454.4 C-43.95 442.93, -46.22 420.31, -47.23 409.01 C-48.25 397.71, -44.87 391.23, -48.56 386.59 C-52.25 381.96, -63.66 381.67, -69.37 381.22 C-75.08 380.77, -81.73 382.3, -82.83 383.88 C-83.93 385.46, -78.35 389.05, -75.99 390.7 C-73.62 392.35, -71.73 393.95, -68.65 393.78 C-65.57 393.6, -57.5 391.49, -57.48 389.65 C-57.47 387.81, -66.92 383.73, -68.56 382.74 M-0.76 0.23 C3.4 1.22, 17.37 1.2, 25.48 4.86 C33.58 8.53, 40.81 14.74, 47.87 22.2 C54.94 29.65, 63.11 39.16, 67.89 49.57 C72.66 59.98, 74.85 72.73, 76.54 84.63 C78.23 96.53, 77.78 106.9, 78.05 120.98 C78.32 135.06, 78.6 155.85, 78.16 169.11 C77.71 182.38, 75.72 184.97, 75.39 200.56 C75.06 216.16, 76.31 248.81, 76.18 262.69 C76.05 276.56, 78.85 277.5, 74.6 283.8 C70.36 290.1, 58.98 292.92, 50.71 300.49 C42.44 308.06, 31.65 318.85, 24.98 329.21 C18.31 339.56, 16.84 356.7, 10.68 362.63 C4.53 368.57, -1.86 364.12, -11.97 364.82 C-22.07 365.53, -41.83 365.46, -49.93 366.86 C-58.04 368.26, -62.47 373.05, -60.6 373.21 C-58.73 373.37, -49 368.56, -38.73 367.82 C-28.47 367.08, -8.96 369.08, 0.99 368.75 C10.93 368.41, 18.66 363.38, 20.91 365.82 C23.16 368.26, 18.11 375.74, 14.49 383.41 C10.88 391.07, 3.39 404.69, -0.78 411.79 C-4.96 418.88, -8.32 417.49, -10.54 425.97 C-12.76 434.46, -9.25 454.2, -14.12 462.71 C-19 471.22, -34.77 478.4, -39.79 477.04 C-44.81 475.69, -43.12 465.93, -44.25 454.58 C-45.39 443.23, -46.15 420.32, -46.6 408.97 C-47.06 397.62, -43.39 390.81, -47.01 386.46 C-50.63 382.11, -62.36 383.62, -68.33 382.87 C-74.31 382.12, -81.27 380.38, -82.86 381.96 C-84.45 383.55, -80.69 390.19, -77.87 392.39 C-75.05 394.6, -69.33 395.88, -65.94 395.19 C-62.56 394.51, -57.29 389.93, -57.55 388.29 C-57.82 386.65, -65.58 385.94, -67.52 385.37" stroke="#E1E1E1" stroke-width="2" fill="none"></path></g></g><mask></mask><g stroke-linecap="round"><g transform="translate(932.2878820220094 451.0817430420957) rotate(0 -46.925645377541514 4.633681126111696)"><path d="M0.38 0.62 C-3.03 1.1, -13.66 2.35, -21.63 3.08 C-29.61 3.81, -40.24 4.18, -47.49 4.98 C-54.74 5.77, -59.19 7.16, -65.14 7.83 C-71.09 8.5, -78.59 8.9, -83.19 9 C-87.78 9.11, -90.93 8.38, -92.7 8.47 M-0.88 -0.1 C-4.4 -0.01, -14.94 0.05, -22.86 1.14 C-30.79 2.23, -40.92 5.66, -48.43 6.43 C-55.94 7.21, -61.92 5.32, -67.93 5.79 C-73.93 6.26, -80.05 8.42, -84.46 9.26 C-88.86 10.09, -92.9 10.91, -94.34 10.77" stroke="#E1E1E1" stroke-width="2" fill="none"></path></g></g><mask></mask><g stroke-linecap="round"><g transform="translate(960.5636284089487 444.9375623497772) rotate(0 24.159450647853646 -3.069539012605219)"><path d="M0.41 0.05 C2.14 -0.11, 4.06 -0.33, 10.3 -1.35 C16.53 -2.37, 31.48 -5.36, 37.84 -6.09 C44.2 -6.81, 46.79 -5.61, 48.46 -5.67 M-0.04 -0.39 C1.66 -0.68, 3.79 -1.33, 10.06 -2.17 C16.34 -3.02, 31.19 -4.7, 37.62 -5.46 C44.05 -6.21, 46.81 -6.51, 48.65 -6.69" stroke="#E1E1E1" stroke-width="2" fill="none"></path></g></g><mask></mask><g stroke-linecap="round"><g transform="translate(966.8208954424008 442.23800846541417) rotate(0 23.677620675609433 -177.79313839261613)"><path d="M-0.59 -0.57 C0.02 -0.4, 1.77 2.51, 3.09 0.33 C4.42 -1.84, 5.31 -7.66, 7.38 -13.61 C9.45 -19.57, 12.22 -29.28, 15.51 -35.42 C18.8 -41.56, 23.3 -44.9, 27.13 -50.45 C30.97 -56.01, 35.62 -62.48, 38.54 -68.72 C41.46 -74.96, 43.87 -80.22, 44.65 -87.91 C45.43 -95.61, 43.09 -104.57, 43.21 -114.89 C43.33 -125.2, 45.04 -137.5, 45.37 -149.8 C45.7 -162.1, 44.95 -176.4, 45.21 -188.68 C45.48 -200.96, 46.46 -212.95, 46.97 -223.49 C47.48 -234.03, 49.03 -242.24, 48.28 -251.92 C47.52 -261.59, 45.66 -270.67, 42.42 -281.52 C39.18 -292.38, 34.16 -306.96, 28.83 -317.04 C23.51 -327.13, 15.48 -335.41, 10.48 -342.02 C5.49 -348.62, 0.89 -354.61, -1.14 -356.68 M1.29 1.75 C1.87 1.61, 1.62 1.3, 2.56 -1.56 C3.5 -4.42, 4.7 -9.86, 6.92 -15.39 C9.15 -20.92, 12.74 -29.02, 15.9 -34.74 C19.06 -40.45, 21.85 -43.83, 25.88 -49.69 C29.91 -55.56, 36.89 -63.88, 40.06 -69.92 C43.23 -75.97, 44.6 -78.34, 44.92 -85.96 C45.25 -93.58, 42.18 -105.35, 42 -115.67 C41.81 -125.98, 43.25 -135.59, 43.83 -147.84 C44.41 -160.08, 44.94 -176.7, 45.46 -189.13 C45.98 -201.55, 46.71 -211.86, 46.97 -222.38 C47.23 -232.9, 47.7 -242.28, 47 -252.26 C46.31 -262.23, 45.98 -271.44, 42.8 -282.25 C39.62 -293.05, 33.3 -306.98, 27.93 -317.1 C22.56 -327.22, 15.29 -336.5, 10.58 -342.99 C5.86 -349.47, 1.38 -353.71, -0.37 -356" stroke="#E1E1E1" stroke-width="2" fill="none"></path></g></g><mask></mask><g stroke-linecap="round"><g transform="translate(969.5040175237546 88.43085022201103) rotate(0 28.34955282189594 72.01815800121403)"><path d="M1.04 -0.15 C4.88 4.33, 16.81 17.14, 23.36 27.23 C29.9 37.33, 35.36 46.18, 40.32 60.43 C45.27 74.68, 50.48 98.89, 53.09 112.72 C55.7 126.55, 55.57 138.24, 55.98 143.39 M0.13 -1.27 C3.86 2.81, 15.73 14.89, 22.82 25.33 C29.92 35.78, 37.72 46.61, 42.71 61.39 C47.7 76.18, 50.26 100.39, 52.77 114.06 C55.29 127.74, 57.19 138.73, 57.8 143.44" stroke="#E1E1E1" stroke-width="2" fill="none"></path></g><g transform="translate(969.5040175237546 88.43085022201103) rotate(0 28.34955282189594 72.01815800121403)"><path d="M50.18 129.44 C52.5 134.98, 55.74 137.22, 57.8 143.44 M50.18 129.44 C51.44 132.41, 53.03 135.97, 57.8 143.44" stroke="#E1E1E1" stroke-width="2" fill="none"></path></g><g transform="translate(969.5040175237546 88.43085022201103) rotate(0 28.34955282189594 72.01815800121403)"><path d="M60.96 127.83 C59.78 133.98, 59.51 136.75, 57.8 143.44 M60.96 127.83 C59.57 131.23, 58.53 135.18, 57.8 143.44" stroke="#E1E1E1" stroke-width="2" fill="none"></path></g></g><mask></mask><g stroke-linecap="round"><g transform="translate(1023.0388165405902 193.61028785652798) rotate(0 -12.579532326496064 -39.17306338881917)"><path d="M-0.82 -0.38 C-0.66 -3.06, 1.5 -8.23, 0.44 -15.64 C-0.62 -23.05, -2.8 -34.34, -7.19 -44.83 C-11.58 -55.31, -22.77 -72.98, -25.91 -78.55 M0.96 -1.63 C1.03 -4.12, 1.11 -6.99, -0.27 -14.02 C-1.65 -21.04, -3.03 -33.19, -7.32 -43.77 C-11.62 -54.36, -23.23 -71.89, -26.05 -77.55" stroke="#E1E1E1" stroke-width="2" fill="none"></path></g></g><mask></mask><g stroke-linecap="round"><g transform="translate(926.2992795237078 62.62057856078991) rotate(0 -32.198490065626174 15.054371433480355)"><path d="M-0.13 0.37 C-3.52 1.55, -13.42 4.43, -20.29 7.08 C-27.16 9.73, -35.44 13.34, -41.34 16.28 C-47.23 19.23, -51.78 22.3, -55.67 24.73 C-59.55 27.17, -63.39 29.99, -64.65 30.91 M-1.66 -0.48 C-5.22 0.91, -15.12 5.64, -21.34 8.66 C-27.56 11.68, -33.37 14.77, -38.99 17.65 C-44.61 20.53, -51.15 23.59, -55.08 25.94 C-59.01 28.28, -60.97 31.16, -62.59 31.73" stroke="#E1E1E1" stroke-width="2" fill="none"></path></g></g><mask></mask><g stroke-linecap="round"><g transform="translate(859.7088511153734 53.02793646693044) rotate(0 -0.12563799102917983 18.13455618907028)"><path d="M-0.07 -0.52 C-0.58 0.61, -1.54 4.67, -2.61 6.52 C-3.69 8.37, -6.75 9.91, -6.52 10.59 C-6.29 11.27, -2.12 9.31, -1.23 10.61 C-0.35 11.9, -0.75 16.01, -1.23 18.38 C-1.72 20.75, -4.06 22.83, -4.15 24.83 C-4.23 26.82, -3.45 28.47, -1.74 30.33 C-0.02 32.2, 4.88 35, 6.14 36.02 M-0.78 0.41 C-1.15 1.42, -0.82 4.04, -1.6 5.8 C-2.38 7.55, -5.51 10.09, -5.46 10.94 C-5.4 11.79, -2.11 9.66, -1.26 10.91 C-0.41 12.17, 0.06 16.19, -0.33 18.44 C-0.73 20.7, -3.43 22.31, -3.62 24.44 C-3.82 26.56, -3.08 29.31, -1.51 31.19 C0.07 33.08, 4.76 34.95, 5.85 35.74" stroke="#E1E1E1" stroke-width="2" fill="none"></path></g></g><mask></mask><g stroke-linecap="round"><g transform="translate(858.9795190086197 51.35262910570964) rotate(0 34.157276401770105 -16.06025367031225)"><path d="M0.12 -0.41 C0.15 -2.51, -1.88 -7.86, -0.88 -11.68 C0.11 -15.5, 3.83 -19.95, 6.09 -23.33 C8.34 -26.7, 9.94 -30.05, 12.66 -31.91 C15.38 -33.77, 18.2 -34.15, 22.42 -34.48 C26.64 -34.82, 33.3 -33.99, 37.99 -33.92 C42.68 -33.86, 47.06 -34.82, 50.56 -34.07 C54.06 -33.33, 56.37 -31.84, 58.99 -29.44 C61.61 -27.03, 64.82 -23.02, 66.28 -19.63 C67.75 -16.25, 67.49 -13.05, 67.78 -9.13 C68.07 -5.21, 67.97 1.83, 68.01 3.87 M-1.28 -1.66 C-0.8 -3.73, -0.37 -6.65, 1.25 -10.57 C2.86 -14.49, 6.48 -21.3, 8.4 -25.2 C10.31 -29.11, 10.57 -32.47, 12.76 -33.99 C14.95 -35.51, 17.1 -34.22, 21.52 -34.3 C25.94 -34.38, 34.26 -34.28, 39.27 -34.46 C44.28 -34.65, 48.47 -36.13, 51.59 -35.43 C54.7 -34.72, 55.76 -32.67, 57.97 -30.22 C60.18 -27.78, 63.15 -24.23, 64.87 -20.75 C66.59 -17.27, 67.7 -13.11, 68.27 -9.35 C68.83 -5.6, 68.52 -0.26, 68.23 1.78" stroke="#E1E1E1" stroke-width="2" fill="none"></path></g></g><mask></mask><g stroke-linecap="round"><g transform="translate(860.0269448664594 95.5737410756883) rotate(0 -47.837809414300864 87.46520713758082)"><path d="M1 0.84 C0.17 1.71, -0.6 1.64, -4.31 4.21 C-8.02 6.78, -15.61 10.61, -21.29 16.27 C-26.97 21.92, -33.81 32.07, -38.39 38.16 C-42.98 44.25, -45.8 46.65, -48.8 52.8 C-51.79 58.95, -55.07 69.16, -56.36 75.06 C-57.65 80.96, -55.05 84.27, -56.55 88.22 C-58.05 92.17, -61.22 93.43, -65.35 98.76 C-69.48 104.09, -76.98 110.82, -81.34 120.21 C-85.7 129.59, -89.17 145.87, -91.5 155.06 C-93.83 164.24, -94.53 171.86, -95.32 175.3 M0.07 0.24 C-0.9 1.41, -1.14 3.52, -4.78 5.84 C-8.43 8.16, -16.25 8.6, -21.8 14.17 C-27.36 19.74, -33.35 32.69, -38.09 39.27 C-42.84 45.84, -47.43 47.76, -50.28 53.63 C-53.13 59.51, -54.2 68.92, -55.18 74.52 C-56.17 80.12, -54.41 83.28, -56.21 87.25 C-58 91.22, -61.5 92.53, -65.94 98.33 C-70.39 104.13, -78.23 112.67, -82.9 122.03 C-87.56 131.39, -91.94 145.43, -93.92 154.51 C-95.91 163.58, -94.76 172.95, -94.82 176.48" stroke="#E1E1E1" stroke-width="2" fill="none"></path></g></g><mask></mask><g stroke-linecap="round"><g transform="translate(816.7106408472446 206.77513104131867) rotate(0 -8.290266920605063 11.41163081550485)"><path d="M-0.22 0.49 C0.56 1.5, 8.79 2.48, 5.39 6.39 C1.99 10.29, -16.2 21.21, -20.6 23.92 M-1.8 -0.29 C-1.18 0.82, 7.96 3.83, 4.76 7.57 C1.57 11.31, -16.74 19.47, -20.97 22.15" stroke="#E1E1E1" stroke-width="2" fill="none"></path></g></g><mask></mask><g stroke-linecap="round"><g transform="translate(778.3236033112489 384.90147140758745) rotate(0 22.8921568666201 17.965761823936646)"><path d="M0.11 1.18 C2.99 0.45, 12.62 -4.96, 16.71 -3.92 C20.8 -2.88, 21.64 3.34, 24.65 7.4 C27.66 11.45, 31.1 17.76, 34.79 20.42 C38.47 23.09, 44.93 20.13, 46.77 23.41 C48.61 26.68, 45.96 37.42, 45.84 40.08 M-1.28 0.76 C1.51 0.13, 11.72 -4.09, 15.9 -2.74 C20.08 -1.4, 20.67 4.85, 23.78 8.81 C26.9 12.77, 30.91 18.56, 34.58 21.02 C38.25 23.47, 44.29 20.43, 45.82 23.52 C47.35 26.6, 43.56 37.08, 43.75 39.52" stroke="#E1E1E1" stroke-width="2" fill="none"></path></g></g><mask></mask><g stroke-linecap="round"><g transform="translate(809.5890723425646 397.5965828473727) rotate(0 5.150640199103236 -5.052514417997372)"><path d="M0.03 -0.45 C1.67 -2.62, 7.98 -13.63, 9.76 -13.07 C11.53 -12.51, 10.54 0.22, 10.7 2.93 M-0.62 0.5 C1.2 -1.8, 8.9 -14.24, 10.77 -13.79 C12.63 -13.33, 10.51 0.38, 10.55 3.26" stroke="#E1E1E1" stroke-width="2" fill="none"></path></g></g><mask></mask><g stroke-linecap="round"><g transform="translate(826.6636169278645 408.17719814871634) rotate(0 9.701245939785167 15.399971896530133)"><path d="M0.69 0.25 C1.81 1.65, 4.85 2.2, 7.83 7.4 C10.81 12.61, 16.59 27.56, 18.54 31.48 M-0.41 -0.66 C0.98 1.03, 6.45 3.94, 10.01 8.96 C13.58 13.99, 19.34 25.64, 20.99 29.49" stroke="#E1E1E1" stroke-width="2" fill="none"></path></g></g><mask></mask><g stroke-linecap="round"><g transform="translate(830.2851646772706 442.7031716648562) rotate(0 9.715390938270048 8.416619901617196)"><path d="M-0.17 0.38 C1.37 1.74, 6.68 5.95, 9.8 8.75 C12.91 11.56, 17.03 15.69, 18.51 17.2 M-1.72 -0.47 C-0.37 0.99, 5.14 7.35, 8.92 9.94 C12.69 12.52, 19.32 14.07, 20.92 15.05" stroke="#E1E1E1" stroke-width="2" fill="none"></path></g></g><mask></mask><g stroke-linecap="round"><g transform="translate(1026.0576247584122 249.4321532947897) rotate(0 -26.08580606174837 90.83755417023349)"><path d="M1.09 -0.07 C1.02 7.88, -0.41 31.58, -0.42 46.78 C-0.43 61.98, 1.68 79.93, 1.04 91.12 C0.4 102.31, 1.53 103.46, -4.27 113.91 C-10.07 124.36, -25.93 142.41, -33.76 153.81 C-41.58 165.22, -48.25 177.61, -51.22 182.33 M0.2 -1.15 C-0.06 7.09, -1.71 32.84, -1.6 48.35 C-1.49 63.85, 1.19 81.31, 0.84 91.87 C0.49 102.43, 2.22 101.4, -3.69 111.7 C-9.6 122.01, -26.42 142.04, -34.63 153.69 C-42.84 165.35, -50.3 177.08, -52.96 181.63" stroke="#E1E1E1" stroke-width="2" fill="none"></path></g></g><mask></mask><g stroke-linecap="round"><g transform="translate(1003.4280313386344 443.4310051142429) rotate(0 -4.546719571133508 71.675959518931)"><path d="M-0.83 1.14 C-1.3 3.23, -1.51 9.5, -2.97 13.42 C-4.43 17.33, -8.14 20.74, -9.58 24.63 C-11.02 28.53, -11.75 32.66, -11.63 36.8 C-11.5 40.93, -10.35 43.23, -8.83 49.44 C-7.31 55.66, -4.67 66.23, -2.49 74.1 C-0.31 81.97, 3.98 89.01, 4.25 96.67 C4.52 104.33, 1.07 112.5, -0.87 120.08 C-2.82 127.66, -6.32 138.32, -7.4 142.15 M0.94 0.69 C0.84 2.86, 1.12 11, -0.82 14.64 C-2.76 18.29, -9 18.67, -10.69 22.56 C-12.38 26.46, -11.1 33.56, -10.98 38.01 C-10.85 42.47, -11.61 42.92, -9.94 49.29 C-8.27 55.66, -2.92 68.01, -0.97 76.24 C0.97 84.46, 1.91 91.45, 1.73 98.64 C1.54 105.83, -0.85 111.86, -2.1 119.38 C-3.35 126.91, -4.94 139.96, -5.76 143.8" stroke="#E1E1E1" stroke-width="2" fill="none"></path></g></g><mask></mask><g stroke-linecap="round"><g transform="translate(990.4608221631561 486.4932876140565) rotate(0 -13.41112171232453 -6.383321653197527)"><path d="M0.63 0.15 C-2.21 0.98, -13.19 4.73, -18.21 5.35 C-23.23 5.97, -27.74 6.37, -29.48 3.87 C-31.22 1.37, -31.16 -6.97, -28.63 -9.65 C-26.11 -12.33, -19.71 -10.99, -14.33 -12.21 C-8.94 -13.43, 0.94 -15.98, 3.68 -16.97 M-0.5 -0.82 C-3.44 -0.41, -14.41 2.43, -19.38 3.33 C-24.36 4.23, -28.9 6.63, -30.34 4.58 C-31.78 2.53, -30.54 -5.73, -28.02 -8.97 C-25.5 -12.21, -20.24 -13.44, -15.23 -14.86 C-10.22 -16.28, -0.92 -16.72, 2.05 -17.51" stroke="#E1E1E1" stroke-width="2" fill="none"></path></g></g><mask></mask><g stroke-linecap="round"><g transform="translate(999.7035330298277 556.6406239876624) rotate(0 -20.16271556413767 10.48166617923198)"><path d="M0.02 -1.15 C-3.2 -1.2, -15.59 -1.77, -19.71 -1.3 C-23.82 -0.83, -22.49 -0.45, -24.67 1.65 C-26.84 3.76, -30 9.51, -32.75 11.33 C-35.5 13.14, -40.2 10.8, -41.18 12.53 C-42.16 14.27, -42.8 20.68, -38.64 21.74 C-34.48 22.8, -21.88 19.69, -16.22 18.91 C-10.56 18.14, -7.23 20.08, -4.68 17.08 C-2.13 14.08, -1.7 3.81, -0.93 0.92 M-1.42 0.86 C-4.24 1.03, -13.45 -0.5, -17.49 -0.17 C-21.54 0.15, -23.11 1.25, -25.7 2.8 C-28.29 4.35, -30.73 7.38, -33.02 9.12 C-35.31 10.86, -38.73 11.3, -39.44 13.25 C-40.16 15.2, -40.78 19.54, -37.33 20.83 C-33.87 22.13, -23.96 21.71, -18.71 21.03 C-13.46 20.35, -9.04 20.24, -5.82 16.74 C-2.61 13.23, -0.52 2.95, 0.56 0.02" stroke="#E1E1E1" stroke-width="2" fill="none"></path></g></g><mask></mask><g stroke-linecap="round"><g transform="translate(966.393807081301 619.0118338951133) rotate(0 -10.966251761778494 13.82585916061953)"><path d="M0.13 -0.72 C-2.15 2.67, -9.85 14.72, -13.44 19.44 C-17.04 24.15, -20.17 26.19, -21.45 27.56 M-1.26 1.51 C-3.64 4.62, -10.49 13.02, -13.94 17.58 C-17.39 22.13, -20.87 26.97, -21.96 28.83" stroke="#E1E1E1" stroke-width="2" fill="none"></path></g></g><mask></mask><g stroke-linecap="round"><g transform="translate(930.1243526022972 506.15767584091554) rotate(0 -13.753296321949165 45.91783715752581)"><path d="M0.81 0.33 C0.75 1.81, 0.73 3.65, 0.84 8.59 C0.95 13.54, 1.5 23.28, 1.49 30 C1.48 36.71, 2.55 43.07, 0.78 48.88 C-1 54.69, -6.51 59.33, -9.14 64.87 C-11.78 70.41, -13.35 78.3, -15.05 82.1 C-16.75 85.9, -16.73 86.57, -19.34 87.67 C-21.95 88.77, -29.7 88.12, -30.69 88.69 C-31.69 89.26, -26.29 90.73, -25.3 91.1 M-0.22 -0.54 C-0.47 1.15, -0.33 5.21, 0.34 9.98 C1.01 14.76, 3.63 21.47, 3.78 28.11 C3.94 34.75, 3.68 43.73, 1.27 49.83 C-1.13 55.93, -7.64 59.5, -10.66 64.7 C-13.68 69.9, -15.44 77.44, -16.85 81.05 C-18.25 84.65, -17.19 85.04, -19.1 86.35 C-21.02 87.66, -27.6 87.79, -28.34 88.9 C-29.08 90.01, -24.29 92.2, -23.57 92.99" stroke="#E1E1E1" stroke-width="2" fill="none"></path></g></g><mask></mask><g stroke-linecap="round"><g stroke-opacity="0.5" fill-opacity="0.5" transform="translate(819.4199598830864 649.0342665596727) rotate(0 -316.2885181128022 100.30069108438101)" fill-rule="evenodd"><path d="M1.42 -2.07 C-1.83 -1.84, -18.57 -0.29, -18.54 0.84 C-18.5 1.97, -5.28 4.43, 1.62 4.7 C8.53 4.97, 18.32 2.08, 22.9 2.46 C27.48 2.83, 28.51 5.77, 29.13 6.95 C29.75 8.12, 33.73 8.65, 26.61 9.51 C19.49 10.37, 3.25 10.95, -13.57 12.1 C-30.38 13.25, -46.61 14.27, -74.3 16.44 C-101.99 18.61, -148.62 22.75, -179.72 25.12 C-210.81 27.5, -226.25 27.03, -260.88 30.68 C-295.5 34.33, -330.78 40.85, -387.47 47.03 C-444.16 53.2, -546.63 62, -601.02 67.73 C-655.41 73.47, -682.97 72.36, -713.83 81.44 C-744.69 90.52, -771.02 103.44, -786.19 122.22 C-801.35 140.99, -812.89 180.99, -804.8 194.07 C-796.72 207.15, -773.5 202.88, -737.67 200.71 C-701.83 198.54, -635.94 189.09, -589.8 181.04 C-543.67 173, -508.3 163.09, -460.86 152.44 C-413.42 141.79, -352.09 127.22, -305.18 117.13 C-258.28 107.04, -222.94 101.62, -179.44 91.89 C-135.93 82.15, -80.35 68.24, -44.14 58.71 C-7.93 49.18, 13.07 41.76, 37.84 34.69 C62.61 27.61, 86.28 20.73, 104.47 16.28 C122.65 11.83, 135.51 10.32, 146.96 7.97 C158.41 5.63, 168.53 3.32, 173.17 2.22 C177.81 1.13, 177.13 1.81, 174.81 1.39 C172.5 0.97, 166.51 0.06, 159.28 -0.29 C152.05 -0.65, 139.88 -0.48, 131.43 -0.72 C122.99 -0.96, 111.51 -1.47, 108.6 -1.72 C105.69 -1.96, 111.1 -2.72, 113.98 -2.21 C116.86 -1.71, 123.2 0.99, 125.88 1.31 C128.56 1.64, 130.95 0.08, 130.04 -0.28 C129.13 -0.65, 123.93 -2.13, 120.41 -0.87 C116.9 0.39, 113.27 5.92, 108.95 7.27 C104.64 8.62, 99.38 6.7, 94.53 7.24 C89.68 7.79, 86.36 9.06, 79.84 10.52 C73.31 11.99, 60.64 15.81, 55.38 16.02 C50.12 16.23, 48.4 13.29, 48.28 11.8 C48.16 10.31, 50.82 7.69, 54.64 7.08 C58.47 6.48, 65.69 8.24, 71.21 8.15 C76.72 8.06, 82.52 7.01, 87.74 6.55 C92.96 6.09, 99.76 6.49, 102.52 5.41 C105.29 4.33, 103.94 0.47, 104.33 0.07 C104.73 -0.32, 105.77 2.5, 104.88 3.03 C103.98 3.57, 101.57 3.11, 98.98 3.27 C96.39 3.43, 93.14 3.94, 89.34 3.99 C85.54 4.04, 81.09 3.83, 76.2 3.57 C71.3 3.31, 65.81 2.54, 59.97 2.43 C54.13 2.31, 47.9 2.61, 41.17 2.86 C34.45 3.11, 25.6 4.54, 19.6 3.94 C13.61 3.34, 8.09 0.03, 5.2 -0.74 C2.31 -1.5, 2.93 -1, 2.26 -0.66" stroke="none" stroke-width="0" fill="#e1e1e1" fill-rule="evenodd"></path><path d="M0.7 -0.3 C-2.11 0.12, -17.19 1.36, -17.05 2.16 C-16.91 2.96, -4.79 4.08, 1.53 4.51 C7.85 4.95, 16.05 4.6, 20.87 4.74 C25.68 4.88, 29.64 4.55, 30.41 5.33 C31.18 6.12, 32.72 8.36, 25.5 9.45 C18.27 10.55, 3.92 11.28, -12.94 11.93 C-29.8 12.57, -48.25 11.29, -75.66 13.31 C-103.07 15.33, -146.51 20.92, -177.41 24.05 C-208.31 27.18, -226.13 28.66, -261.07 32.09 C-296 35.51, -330.13 38.49, -387.02 44.6 C-443.92 50.71, -547.77 62.23, -602.45 68.74 C-657.13 75.25, -684.77 74.57, -715.11 83.65 C-745.45 92.74, -769.59 104.94, -784.49 123.27 C-799.38 141.61, -812.24 180.26, -804.47 193.67 C-796.7 207.09, -773.41 205.78, -737.89 203.76 C-702.37 201.74, -637.74 190.15, -591.35 181.56 C-544.97 172.96, -506.95 162.77, -459.57 152.18 C-412.2 141.59, -353.97 127.75, -307.1 117.99 C-260.23 108.24, -222.01 103.75, -178.35 93.65 C-134.69 83.55, -81.52 67.41, -45.14 57.4 C-8.77 47.4, 14.85 40.6, 39.9 33.62 C64.95 26.64, 87.19 19.99, 105.16 15.54 C123.14 11.09, 136.44 9.13, 147.74 6.92 C159.03 4.71, 168.88 3.07, 172.91 2.27 C176.94 1.48, 174.22 2.44, 171.92 2.15 C169.62 1.85, 166.03 1.07, 159.11 0.49 C152.2 -0.08, 138.55 -0.7, 130.44 -1.31 C122.33 -1.93, 113.03 -3.16, 110.43 -3.2 C107.83 -3.25, 112.43 -2.29, 114.82 -1.59 C117.22 -0.89, 122.25 0.58, 124.82 1.01 C127.39 1.44, 130.81 0.77, 130.24 1.01 C129.67 1.25, 125.31 1.93, 121.42 2.46 C117.53 2.98, 110.86 3.25, 106.88 4.17 C102.91 5.09, 102.36 6.78, 97.56 7.98 C92.77 9.19, 84.81 10.47, 78.13 11.4 C71.44 12.34, 62.16 13.39, 57.44 13.6 C52.73 13.81, 49.93 13.45, 49.82 12.66 C49.7 11.88, 53.35 9.65, 56.74 8.89 C60.13 8.13, 65.47 8.25, 70.15 8.1 C74.83 7.95, 79.85 8.46, 84.82 8 C89.79 7.54, 96.3 6.4, 99.97 5.33 C103.64 4.26, 106.05 1.82, 106.83 1.59 C107.62 1.36, 106.1 3.4, 104.7 3.96 C103.29 4.52, 100.93 5.05, 98.39 4.94 C95.85 4.83, 93.52 3.28, 89.45 3.3 C85.38 3.32, 78.82 4.89, 73.99 5.07 C69.15 5.25, 65.92 4.72, 60.43 4.39 C54.94 4.05, 48.02 3.58, 41.05 3.06 C34.09 2.55, 24.95 1.68, 18.64 1.32 C12.32 0.95, 6.35 0.93, 3.17 0.88 C-0.01 0.84, 0.12 1.07, -0.46 1.05 M-0.39 -1.5 C-3.3 -0.94, -18.01 2.45, -17.77 3.16 C-17.53 3.88, -5.39 2.92, 1.05 2.8 C7.48 2.68, 15.64 1.94, 20.82 2.46 C26 2.97, 31.16 4.84, 32.12 5.88 C33.08 6.92, 34 7.32, 26.6 8.68 C19.19 10.05, 4.95 13.43, -12.3 14.06 C-29.54 14.69, -49.1 11.05, -76.9 12.47 C-104.69 13.88, -147.96 19.37, -179.06 22.57 C-210.17 25.77, -228.38 27.92, -263.5 31.69 C-298.62 35.45, -333.14 39.1, -389.79 45.16 C-446.45 51.22, -549.32 61.66, -603.45 68.04 C-657.58 74.43, -684.36 74.34, -714.58 83.45 C-744.79 92.56, -769.31 104.44, -784.75 122.71 C-800.19 140.98, -815.15 179.92, -807.23 193.08 C-799.31 206.25, -773.07 203.54, -737.23 201.7 C-701.4 199.85, -638.34 190.29, -592.22 182.02 C-546.1 173.74, -507.82 162.74, -460.5 152.04 C-413.18 141.33, -355.33 127.75, -308.29 117.8 C-261.26 107.85, -222.08 102.48, -178.3 92.31 C-134.52 82.15, -82.03 66.24, -45.62 56.81 C-9.21 47.38, 15.07 42.72, 40.18 35.75 C65.3 28.77, 87.44 19.92, 105.06 14.97 C122.68 10.03, 134.85 8.12, 145.88 6.06 C156.92 4, 166.82 3.22, 171.25 2.62 C175.69 2.02, 174.81 2.88, 172.51 2.47 C170.21 2.07, 164.78 1.06, 157.46 0.17 C150.15 -0.72, 136.35 -2.49, 128.62 -2.86 C120.9 -3.22, 113.68 -2.57, 111.11 -2.01 C108.54 -1.45, 110.46 0.22, 113.2 0.48 C115.94 0.74, 124.76 -0.26, 127.53 -0.47 C130.3 -0.68, 130.57 -1.26, 129.82 -0.77 C129.07 -0.28, 126.64 1.53, 123.05 2.45 C119.47 3.37, 112.83 3.41, 108.32 4.75 C103.81 6.1, 100.94 9.18, 95.99 10.53 C91.03 11.88, 85.25 11.99, 78.61 12.86 C71.97 13.73, 60.84 15.96, 56.13 15.75 C51.42 15.54, 50.28 12.72, 50.35 11.62 C50.42 10.53, 53.45 9.73, 56.54 9.2 C59.64 8.67, 64.21 9.07, 68.92 8.46 C73.64 7.85, 79.53 6, 84.84 5.55 C90.15 5.1, 97.24 6.44, 100.77 5.77 C104.31 5.1, 105.25 2.12, 106.03 1.52 C106.81 0.93, 106.88 1.54, 105.47 2.19 C104.06 2.83, 100.45 5.23, 97.57 5.38 C94.7 5.54, 91.77 3.17, 88.2 3.11 C84.64 3.06, 80.74 5.08, 76.18 5.04 C71.62 5.01, 66.63 2.86, 60.84 2.89 C55.06 2.91, 48.44 5.55, 41.47 5.2 C34.5 4.84, 25.27 1.24, 19.03 0.78 C12.78 0.31, 7.25 2.37, 4.01 2.41 C0.77 2.45, 0.24 1.26, -0.39 1.03" stroke="#E1E1E1" stroke-width="2" fill="none"></path></g></g><mask></mask></svg>