<svg version="1.1" xmlns="http://www.w3.org/2000/svg" viewBox="0 0 513.3175076772936 286.35791798318587" width="513.3175076772936" height="286.35791798318587" class="excalidraw-svg"><!-- svg-source:excalidraw --><metadata></metadata><defs><style class="style-fonts">
      </style></defs><rect x="0" y="0" width="513.3175076772936" height="286.35791798318587" fill="#000000"></rect><g stroke-linecap="round"><g transform="translate(11.422080440130003 274.28783471660995) rotate(0 184.6304751793101 -121.03011633612107)"><path d="M0.02 -0.59 C0.59 -3.73, 1.32 -11.43, 3.37 -20.02 C5.42 -28.61, 8.67 -41.62, 12.35 -52.14 C16.02 -62.66, 19.91 -72.23, 25.4 -83.16 C30.9 -94.08, 39.24 -107.87, 45.33 -117.69 C51.41 -127.5, 55.57 -134.86, 61.92 -142.04 C68.27 -149.21, 77.11 -156.12, 83.41 -160.74 C89.71 -165.36, 95.04 -167.65, 99.74 -169.76 C104.44 -171.86, 107.46 -172.9, 111.61 -173.35 C115.76 -173.8, 120.23 -173.12, 124.64 -172.45 C129.06 -171.77, 133.61 -171.17, 138.11 -169.28 C142.61 -167.39, 146.6 -166.9, 151.63 -161.09 C156.66 -155.28, 161.16 -145.37, 168.31 -134.42 C175.45 -123.47, 187.5 -105.95, 194.5 -95.4 C201.5 -84.85, 206.22 -76.91, 210.3 -71.12 C214.38 -65.32, 217.05 -62.34, 218.98 -60.64 C220.91 -58.93, 220.01 -60.05, 221.89 -60.89 C223.76 -61.72, 225.39 -62.5, 230.23 -65.65 C235.07 -68.81, 244.96 -75.95, 250.92 -79.81 C256.87 -83.68, 262.65 -86.95, 265.97 -88.84 C269.28 -90.72, 269.9 -89.43, 270.83 -91.12 C271.76 -92.8, 270.42 -95.42, 271.56 -98.96 C272.69 -102.5, 276.01 -109.86, 277.65 -112.37 C279.29 -114.88, 281.31 -113.11, 281.4 -114.02 C281.49 -114.94, 279.8 -116.61, 278.18 -117.86 C276.56 -119.11, 273.37 -119.68, 271.69 -121.52 C270.01 -123.35, 269.73 -125.8, 268.12 -128.88 C266.51 -131.96, 263.44 -136.12, 262.03 -140.01 C260.61 -143.89, 260.14 -147.92, 259.62 -152.18 C259.11 -156.44, 258.31 -159.61, 258.94 -165.57 C259.56 -171.54, 261.3 -181.49, 263.37 -187.98 C265.44 -194.46, 267.56 -198.54, 271.38 -204.49 C275.19 -210.45, 281.55 -218.27, 286.25 -223.7 C290.94 -229.13, 294.52 -234, 299.56 -237.06 C304.6 -240.12, 310.72 -241.37, 316.51 -242.08 C322.29 -242.79, 328.64 -242.88, 334.26 -241.32 C339.87 -239.76, 345.49 -236.88, 350.18 -232.73 C354.87 -228.58, 359.24 -222.95, 362.38 -216.39 C365.53 -209.84, 368.36 -201.04, 369.04 -193.4 C369.73 -185.75, 367.94 -177.82, 366.5 -170.53 C365.06 -163.25, 363.4 -156.34, 360.4 -149.69 C357.4 -143.05, 353.48 -136.47, 348.5 -130.66 C343.52 -124.86, 335.63 -118.27, 330.51 -114.88 C325.39 -111.48, 322.15 -111.52, 317.77 -110.3 C313.39 -109.08, 308.04 -107.67, 304.23 -107.56 C300.42 -107.45, 296.67 -109.67, 294.91 -109.65 C293.15 -109.63, 295.03 -109.92, 293.69 -107.45 C292.35 -104.98, 288.17 -97.86, 286.88 -94.84 C285.59 -91.82, 285.36 -90.83, 285.97 -89.32 C286.57 -87.82, 288.47 -87.88, 290.48 -85.82 C292.49 -83.75, 296.33 -79.9, 298 -76.91 C299.68 -73.92, 300.49 -71.54, 300.52 -67.87 C300.55 -64.21, 299.79 -58.64, 298.16 -54.92 C296.53 -51.2, 296.08 -49.64, 290.73 -45.55 C285.38 -41.46, 275.03 -36.28, 266.05 -30.37 C257.06 -24.46, 244.3 -15.21, 236.81 -10.07 C229.33 -4.93, 226.23 -1.13, 221.13 0.46 C216.02 2.04, 210.5 0.34, 206.2 -0.58 C201.9 -1.5, 199.32 -0.9, 195.34 -5.07 C191.37 -9.24, 188.36 -16.39, 182.35 -25.6 C176.33 -34.82, 168.49 -46.31, 159.24 -60.35 C149.99 -74.4, 133.18 -100.83, 126.85 -109.88 C120.51 -118.92, 123 -113.84, 121.22 -114.62 C119.44 -115.4, 116.99 -115.33, 116.16 -114.58 C115.34 -113.84, 115.2 -112.74, 116.26 -110.14 C117.31 -107.55, 117.4 -106.6, 122.48 -99.01 C127.56 -91.43, 140.05 -74.44, 146.75 -64.61 C153.46 -54.78, 160.36 -45.8, 162.72 -40.04 C165.08 -34.29, 161.41 -34.94, 160.9 -30.09 C160.39 -25.23, 159.87 -15.85, 159.66 -10.91 C159.45 -5.98, 160.79 -2.64, 159.65 -0.47 C158.51 1.69, 156.74 1.91, 152.81 2.06 C148.88 2.21, 144.88 0.77, 136.07 0.42 C127.26 0.07, 114.88 0.15, 99.96 -0.01 C85.04 -0.18, 63.09 -0.55, 46.53 -0.57 C29.97 -0.6, 8.44 -0.23, 0.61 -0.15 M-1.42 1.72 C-1.01 -1.65, 0.33 -12.93, 2.46 -21.67 C4.59 -30.41, 7.49 -40.13, 11.34 -50.72 C15.18 -61.31, 20.04 -74.17, 25.52 -85.2 C31 -96.23, 38.01 -107.32, 44.21 -116.91 C50.41 -126.49, 56.62 -135.18, 62.73 -142.7 C68.84 -150.22, 74.89 -157.57, 80.89 -162.04 C86.89 -166.52, 93.38 -167.49, 98.73 -169.54 C104.08 -171.58, 108.51 -173.86, 112.99 -174.33 C117.47 -174.8, 121.38 -173.39, 125.61 -172.35 C129.85 -171.31, 134.32 -170.42, 138.41 -168.1 C142.49 -165.78, 145.21 -163.89, 150.13 -158.42 C155.05 -152.95, 160.66 -145.78, 167.93 -135.25 C175.2 -124.72, 186.67 -105.89, 193.75 -95.25 C200.83 -84.6, 206 -77.33, 210.39 -71.4 C214.79 -65.47, 218.44 -61.47, 220.14 -59.66 C221.84 -57.86, 218.55 -59.1, 220.59 -60.56 C222.63 -62.01, 227.57 -65.26, 232.4 -68.4 C237.22 -71.54, 243.9 -75.77, 249.55 -79.41 C255.2 -83.05, 262.83 -88.65, 266.28 -90.23 C269.73 -91.81, 269.44 -87.75, 270.28 -88.9 C271.11 -90.04, 270.14 -93, 271.28 -97.08 C272.41 -101.16, 275.66 -110.51, 277.1 -113.39 C278.54 -116.27, 280.02 -113.65, 279.93 -114.35 C279.84 -115.05, 277.8 -116.34, 276.56 -117.6 C275.33 -118.86, 274.23 -119.87, 272.53 -121.9 C270.84 -123.93, 267.92 -127.01, 266.38 -129.76 C264.84 -132.52, 264.43 -134.96, 263.3 -138.45 C262.18 -141.95, 260.1 -145.96, 259.65 -150.73 C259.19 -155.5, 259.99 -161.1, 260.58 -167.06 C261.16 -173.03, 261.33 -180.09, 263.16 -186.54 C264.99 -192.99, 267.95 -199.59, 271.55 -205.78 C275.16 -211.97, 279.91 -218.65, 284.79 -223.67 C289.66 -228.69, 295.75 -232.8, 300.78 -235.9 C305.82 -238.99, 309.32 -241.02, 315.02 -242.21 C320.72 -243.41, 329.41 -244.56, 334.99 -243.09 C340.58 -241.62, 343.85 -237.82, 348.52 -233.4 C353.19 -228.98, 359.74 -222.81, 363.03 -216.58 C366.31 -210.34, 367.34 -203.78, 368.22 -196.01 C369.1 -188.23, 370.06 -177.79, 368.31 -169.93 C366.55 -162.06, 360.76 -155.47, 357.7 -148.81 C354.64 -142.15, 354.71 -135.64, 349.96 -129.96 C345.22 -124.28, 334.51 -118.13, 329.23 -114.73 C323.94 -111.32, 322.02 -110.65, 318.23 -109.54 C314.45 -108.42, 310.62 -107.98, 306.49 -108.06 C302.36 -108.13, 295.69 -110.51, 293.47 -109.97 C291.25 -109.43, 294.2 -107.61, 293.17 -104.8 C292.13 -102, 288.44 -95.6, 287.26 -93.15 C286.08 -90.7, 285.41 -90.82, 286.09 -90.1 C286.77 -89.37, 289.23 -90.81, 291.34 -88.8 C293.44 -86.79, 297.21 -81.47, 298.71 -78.05 C300.21 -74.64, 300.39 -72.12, 300.33 -68.33 C300.27 -64.53, 300.01 -59.19, 298.34 -55.28 C296.67 -51.37, 295.92 -48.87, 290.33 -44.88 C284.74 -40.89, 274.11 -36.86, 264.8 -31.32 C255.48 -25.78, 241.9 -16.94, 234.47 -11.65 C227.03 -6.37, 224.71 -1.42, 220.21 0.4 C215.7 2.23, 211.54 0.49, 207.43 -0.69 C203.31 -1.86, 199.8 -2.6, 195.52 -6.65 C191.24 -10.7, 187.59 -16.19, 181.74 -24.98 C175.9 -33.77, 169.49 -45.28, 160.45 -59.38 C151.41 -73.47, 134.25 -100.35, 127.52 -109.55 C120.79 -118.76, 122.12 -113.46, 120.06 -114.61 C118.01 -115.77, 116.12 -116.92, 115.21 -116.47 C114.3 -116.03, 113.27 -114.98, 114.61 -111.92 C115.94 -108.86, 118.24 -106, 123.22 -98.1 C128.19 -90.19, 138.32 -74.04, 144.46 -64.49 C150.59 -54.95, 156.93 -46.35, 160.04 -40.84 C163.15 -35.32, 163.21 -36.8, 163.13 -31.42 C163.06 -26.04, 160.33 -14.03, 159.6 -8.55 C158.86 -3.08, 159.62 -0.09, 158.74 1.41 C157.86 2.9, 158.15 0.55, 154.33 0.41 C150.5 0.28, 145.08 0.67, 135.8 0.61 C126.52 0.54, 113.75 -0.05, 98.65 0.02 C83.55 0.08, 61.71 1, 45.21 1.01 C28.7 1.01, 7.4 0.03, -0.38 0.05" stroke="#E1E1E1" stroke-width="2" fill="none"></path></g></g><mask></mask><g stroke-linecap="round" transform="translate(148.77825564083332 10) rotate(0 53.839182796149885 53.839182796149885)"><path d="M32.56 3.3 C40.25 -0.73, 52.31 -0.17, 61.2 1.04 C70.08 2.26, 78.77 5.32, 85.87 10.6 C92.98 15.89, 100.39 24.42, 103.83 32.77 C107.27 41.11, 107.81 51.69, 106.51 60.66 C105.21 69.63, 101.5 79.32, 96.05 86.56 C90.61 93.81, 82.01 100.65, 73.82 104.11 C65.64 107.58, 55.75 108.68, 46.92 107.36 C38.1 106.04, 27.87 101.79, 20.88 96.21 C13.88 90.63, 8.34 82.19, 4.95 73.88 C1.56 65.58, -0.52 55.34, 0.54 46.38 C1.6 37.42, 5.65 27.24, 11.31 20.1 C16.96 12.96, 30.41 6.08, 34.47 3.54 C38.52 1, 35.22 3.92, 35.62 4.87 M40.8 0.25 C49.03 -2.29, 62.07 -1.45, 71.11 1.55 C80.14 4.54, 89.09 11.37, 95.03 18.22 C100.98 25.07, 105.15 34.01, 106.76 42.62 C108.36 51.24, 107.27 61.31, 104.65 69.92 C102.03 78.53, 97.41 88.14, 91.04 94.3 C84.67 100.45, 75.55 105.28, 66.43 106.86 C57.3 108.44, 44.77 106.74, 36.29 103.78 C27.81 100.81, 21.36 95.37, 15.56 89.09 C9.77 82.8, 3.72 74.56, 1.53 66.05 C-0.66 57.54, -0.21 46.85, 2.43 38 C5.07 29.15, 10.65 19.2, 17.37 12.97 C24.1 6.74, 38.73 2.49, 42.76 0.63 C46.8 -1.23, 41.65 1.01, 41.58 1.83" stroke="#E1E1E1" stroke-width="2" fill="none"></path></g><g stroke-linecap="round"><g transform="translate(312.9369313493214 81.94546226814987) rotate(0 8.04404144643786 4.996907973695443)"><path d="M-0.6 0.55 C-1.78 2.35, -4.98 8.02, -6.37 11.88 C-7.77 15.75, -8.75 20.81, -8.96 23.74 C-9.17 26.66, -7.43 27.79, -7.63 29.42 C-7.84 31.05, -8.73 33.42, -10.17 33.49 C-11.62 33.56, -15.35 31.62, -16.29 29.85 C-17.23 28.08, -16.4 26.66, -15.79 22.89 C-15.18 19.12, -14.28 12.62, -12.63 7.23 C-10.98 1.84, -8.27 -5.66, -5.91 -9.47 C-3.54 -13.28, -1.39 -13.35, 1.56 -15.63 C4.52 -17.9, 8.26 -21.84, 11.81 -23.11 C15.35 -24.38, 19.96 -23.88, 22.82 -23.24 C25.68 -22.59, 27.45 -20.64, 28.97 -19.22 C30.49 -17.79, 31.51 -16.43, 31.94 -14.7 C32.38 -12.97, 32.37 -9.81, 31.57 -8.84 C30.78 -7.86, 28.44 -8.26, 27.17 -8.84 C25.91 -9.42, 25.75 -11.29, 23.97 -12.3 C22.18 -13.32, 18.7 -14.71, 16.47 -14.93 C14.24 -15.14, 12.86 -15.22, 10.58 -13.57 C8.29 -11.92, 4.36 -7.09, 2.74 -5.01 C1.12 -2.92, 1.38 -2.02, 0.87 -1.05 M1.28 -0.21 C0.43 1.74, -2.72 6.25, -4.04 9.95 C-5.36 13.64, -6.12 18.48, -6.62 21.94 C-7.12 25.4, -6.3 28.65, -7.04 30.71 C-7.78 32.77, -9.76 34.1, -11.05 34.3 C-12.34 34.5, -13.59 34.02, -14.79 31.91 C-15.99 29.8, -18.46 25.73, -18.25 21.65 C-18.05 17.58, -15.89 12.36, -13.58 7.46 C-11.27 2.56, -6.99 -3.89, -4.4 -7.74 C-1.82 -11.59, -0.79 -13.2, 1.92 -15.63 C4.64 -18.06, 8.59 -20.94, 11.89 -22.33 C15.19 -23.72, 18.84 -24.9, 21.73 -23.99 C24.62 -23.07, 27.13 -18.87, 29.23 -16.84 C31.34 -14.82, 33.94 -13.07, 34.37 -11.84 C34.8 -10.62, 33.39 -10.11, 31.83 -9.5 C30.27 -8.89, 26.43 -7.29, 25 -8.18 C23.56 -9.06, 24.32 -13.77, 23.23 -14.81 C22.15 -15.85, 20.83 -14.61, 18.48 -14.42 C16.14 -14.24, 11.77 -15.07, 9.17 -13.7 C6.56 -12.33, 4.36 -8.61, 2.88 -6.18 C1.39 -3.75, 0.75 -0.14, 0.24 0.88" stroke="#E1E1E1" stroke-width="2" fill="none"></path></g></g><mask></mask><g stroke-linecap="round"><g transform="translate(313.26421227897185 274.578012671295) rotate(0 94.25287235126939 -61.78522854696109)"><path d="M-0.81 -0.32 C-0.64 -2.09, -0.39 -7.22, 0.68 -11.57 C1.74 -15.93, 3.6 -21.42, 5.58 -26.45 C7.55 -31.48, 9.55 -35.91, 12.53 -41.76 C15.51 -47.62, 20.13 -56.29, 23.46 -61.59 C26.79 -66.89, 29.32 -70.11, 32.5 -73.57 C35.68 -77.03, 39.55 -80.26, 42.55 -82.34 C45.54 -84.42, 47.96 -84.96, 50.46 -86.07 C52.97 -87.18, 55.45 -88.64, 57.58 -89 C59.72 -89.35, 61.07 -88.52, 63.27 -88.19 C65.47 -87.86, 68.43 -88.01, 70.81 -87 C73.18 -85.99, 74.85 -85.05, 77.5 -82.13 C80.15 -79.21, 83.27 -74.88, 86.72 -69.5 C90.16 -64.11, 94.62 -55.23, 98.17 -49.81 C101.72 -44.38, 105.64 -39.99, 108.05 -36.93 C110.45 -33.88, 111.79 -32.5, 112.62 -31.49 C113.46 -30.47, 112.39 -30.36, 113.05 -30.84 C113.71 -31.32, 113.95 -32.6, 116.59 -34.37 C119.23 -36.15, 125.59 -39.62, 128.9 -41.49 C132.21 -43.37, 135.02 -44.85, 136.46 -45.6 C137.89 -46.36, 137.17 -45.35, 137.52 -46.03 C137.87 -46.71, 137.9 -47.9, 138.54 -49.67 C139.18 -51.45, 140.69 -55.14, 141.37 -56.71 C142.05 -58.27, 142.67 -58.58, 142.61 -59.06 C142.56 -59.53, 141.63 -59.06, 141.04 -59.54 C140.46 -60.02, 139.77 -60.87, 139.09 -61.92 C138.41 -62.97, 137.99 -64.3, 136.96 -65.85 C135.92 -67.4, 133.53 -69.43, 132.87 -71.23 C132.22 -73.03, 132.95 -74.64, 133.03 -76.67 C133.1 -78.71, 132.94 -80.24, 133.33 -83.42 C133.71 -86.6, 134.43 -92.1, 135.32 -95.76 C136.22 -99.41, 136.96 -102.32, 138.67 -105.34 C140.39 -108.36, 143.08 -111.12, 145.59 -113.89 C148.11 -116.66, 151.33 -120.21, 153.77 -121.95 C156.2 -123.68, 157.34 -124.02, 160.22 -124.29 C163.09 -124.55, 167.79 -124.29, 171.01 -123.52 C174.22 -122.74, 176.99 -121.56, 179.49 -119.64 C181.98 -117.73, 184.68 -115.43, 185.99 -112.03 C187.3 -108.64, 187.21 -103.39, 187.35 -99.28 C187.5 -95.17, 187.46 -91, 186.86 -87.37 C186.26 -83.73, 185.45 -80.82, 183.75 -77.45 C182.06 -74.08, 179.31 -70.26, 176.7 -67.12 C174.09 -63.98, 170.34 -60.6, 168.11 -58.62 C165.88 -56.64, 165.45 -55.96, 163.3 -55.24 C161.15 -54.51, 157.28 -54.15, 155.19 -54.27 C153.11 -54.39, 151.83 -56.02, 150.81 -55.93 C149.78 -55.85, 149.93 -54.87, 149.07 -53.74 C148.22 -52.61, 146.4 -50.29, 145.66 -49.16 C144.92 -48.03, 144.22 -47.93, 144.64 -46.97 C145.05 -46.01, 146.84 -44.67, 148.15 -43.39 C149.47 -42.12, 151.39 -40.8, 152.51 -39.33 C153.62 -37.85, 154.86 -36.26, 154.85 -34.54 C154.84 -32.82, 153.78 -31.06, 152.46 -29.01 C151.14 -26.96, 149.59 -24.39, 146.94 -22.24 C144.29 -20.1, 140.94 -18.89, 136.58 -16.13 C132.22 -13.37, 124.99 -8.25, 120.77 -5.7 C116.55 -3.15, 113.84 -1.76, 111.27 -0.81 C108.69 0.15, 107.28 0.25, 105.31 0.04 C103.34 -0.17, 101.42 -0.05, 99.45 -2.07 C97.48 -4.09, 96.42 -7.49, 93.48 -12.08 C90.54 -16.67, 86.56 -22.48, 81.81 -29.6 C77.06 -36.71, 68.37 -50.03, 64.97 -54.76 C61.56 -59.5, 62.18 -57.52, 61.37 -58 C60.56 -58.48, 60.63 -58.09, 60.1 -57.66 C59.58 -57.22, 57.81 -56.47, 58.23 -55.41 C58.65 -54.35, 60 -55.17, 62.64 -51.3 C65.28 -47.43, 70.75 -37.22, 74.05 -32.17 C77.35 -27.11, 81 -23.93, 82.45 -20.98 C83.9 -18.04, 83.1 -17.25, 82.76 -14.52 C82.41 -11.79, 80.51 -7, 80.4 -4.62 C80.29 -2.24, 82.36 -1.25, 82.11 -0.24 C81.87 0.77, 81.25 1.33, 78.95 1.45 C76.65 1.57, 73.21 0.58, 68.31 0.46 C63.4 0.35, 56.9 0.89, 49.52 0.74 C42.15 0.59, 32.3 -0.24, 24.07 -0.43 C15.83 -0.63, 4.11 -0.48, 0.13 -0.42 M0.97 -1.54 C1.52 -3.1, 1.69 -6.59, 2.86 -10.5 C4.02 -14.41, 6.36 -19.45, 7.97 -24.99 C9.57 -30.52, 10.08 -37.56, 12.47 -43.7 C14.87 -49.83, 19.35 -57.19, 22.34 -61.79 C25.33 -66.39, 26.9 -67.64, 30.41 -71.31 C33.93 -74.98, 40.29 -81.39, 43.42 -83.81 C46.55 -86.23, 47.13 -84.71, 49.21 -85.81 C51.29 -86.92, 53.46 -90, 55.91 -90.44 C58.37 -90.88, 61.39 -89.15, 63.95 -88.44 C66.51 -87.74, 69.25 -87.17, 71.27 -86.22 C73.29 -85.28, 73.46 -85.97, 76.09 -82.79 C78.72 -79.61, 82.99 -72.52, 87.06 -67.13 C91.13 -61.73, 96.92 -55.31, 100.51 -50.4 C104.11 -45.49, 106.95 -40.97, 108.62 -37.68 C110.28 -34.39, 109.99 -31.91, 110.5 -30.66 C111.01 -29.41, 110.35 -29.59, 111.66 -30.17 C112.97 -30.76, 115.65 -32.28, 118.37 -34.17 C121.08 -36.07, 124.81 -39.36, 127.95 -41.55 C131.09 -43.75, 135.82 -46.39, 137.21 -47.32 C138.61 -48.24, 136.11 -46.51, 136.32 -47.09 C136.53 -47.68, 137.73 -49.1, 138.49 -50.8 C139.25 -52.5, 139.97 -55.76, 140.88 -57.31 C141.8 -58.86, 143.73 -59.83, 143.98 -60.1 C144.23 -60.37, 143 -58.6, 142.39 -58.94 C141.77 -59.28, 141.52 -60.86, 140.29 -62.13 C139.07 -63.4, 136.13 -65.36, 135.04 -66.55 C133.95 -67.75, 134.02 -67.35, 133.74 -69.31 C133.46 -71.27, 133.65 -75.8, 133.35 -78.3 C133.04 -80.79, 131.56 -81.64, 131.92 -84.27 C132.28 -86.89, 134.35 -90.79, 135.49 -94.03 C136.64 -97.27, 136.83 -100.37, 138.78 -103.7 C140.73 -107.02, 145.01 -111.03, 147.21 -113.96 C149.42 -116.89, 149.65 -119.42, 152.01 -121.27 C154.38 -123.12, 158.09 -124.93, 161.38 -125.06 C164.68 -125.19, 168.98 -122.71, 171.79 -122.04 C174.59 -121.37, 176.25 -123.12, 178.21 -121.05 C180.16 -118.98, 181.62 -113.33, 183.54 -109.61 C185.45 -105.89, 188.84 -102.47, 189.71 -98.74 C190.57 -95, 189.65 -90.8, 188.75 -87.22 C187.85 -83.64, 186.21 -80.62, 184.33 -77.23 C182.45 -73.85, 179.81 -70.01, 177.47 -66.89 C175.13 -63.78, 173.1 -60.14, 170.29 -58.55 C167.48 -56.95, 163.34 -58.02, 160.62 -57.31 C157.91 -56.6, 155.86 -54.5, 153.99 -54.27 C152.13 -54.05, 150.44 -56.04, 149.42 -55.97 C148.4 -55.91, 148.51 -55.26, 147.88 -53.88 C147.25 -52.5, 145.69 -49.15, 145.65 -47.69 C145.62 -46.23, 147.09 -45.91, 147.65 -45.1 C148.2 -44.28, 148 -43.52, 148.99 -42.8 C149.98 -42.08, 152.46 -42.08, 153.57 -40.78 C154.68 -39.48, 155.75 -37.44, 155.66 -35 C155.56 -32.55, 154.08 -27.84, 153.02 -26.11 C151.96 -24.39, 152.16 -26.71, 149.28 -24.64 C146.41 -22.57, 140.34 -17.15, 135.77 -13.7 C131.2 -10.24, 125.68 -5.92, 121.86 -3.91 C118.05 -1.91, 115.39 -2.37, 112.87 -1.66 C110.34 -0.96, 108.92 0.61, 106.71 0.32 C104.5 0.03, 101.88 -0.93, 99.61 -3.4 C97.33 -5.88, 96.41 -9.81, 93.08 -14.51 C89.75 -19.21, 84.18 -24.48, 79.63 -31.61 C75.07 -38.74, 68.45 -52.89, 65.77 -57.26 C63.09 -61.63, 64.56 -57.49, 63.55 -57.82 C62.53 -58.16, 60.38 -59.42, 59.69 -59.27 C59 -59.11, 58.79 -58.28, 59.38 -56.9 C59.97 -55.52, 60.69 -55.26, 63.24 -51 C65.8 -46.75, 71.44 -36.23, 74.7 -31.39 C77.96 -26.55, 81.62 -24.6, 82.8 -21.96 C83.98 -19.33, 82.3 -18.36, 81.79 -15.57 C81.28 -12.78, 79.8 -7.47, 79.73 -5.21 C79.66 -2.95, 81.76 -2.83, 81.37 -2 C80.99 -1.17, 79.15 -0.7, 77.44 -0.25 C75.73 0.2, 75.54 0.49, 71.12 0.73 C66.69 0.96, 58.94 1.09, 50.91 1.16 C42.87 1.23, 31.59 1.42, 22.91 1.17 C14.24 0.91, 2.78 -0.37, -1.12 -0.36" stroke="#E1E1E1" stroke-width="2" fill="none"></path></g></g><mask></mask><g stroke-linecap="round" transform="translate(383.38380675695475 139.6604833449694) rotate(0 27.484615520021293 27.484615520021293)"><path d="M17.76 2.73 C22.58 0.35, 29.23 -0.23, 34.6 1.46 C39.97 3.16, 46.64 8.07, 49.97 12.91 C53.3 17.74, 55.03 24.71, 54.56 30.5 C54.1 36.28, 51.45 43.56, 47.16 47.61 C42.87 51.66, 34.79 54.46, 28.81 54.8 C22.82 55.14, 15.98 53.17, 11.24 49.65 C6.5 46.12, 1.81 39.4, 0.37 33.65 C-1.06 27.9, -0.19 20.65, 2.64 15.16 C5.46 9.67, 14.61 2.87, 17.32 0.7 C20.03 -1.48, 18.67 1.41, 18.9 2.13 M17.06 1.12 C22.45 -1.14, 32.47 -1.14, 38.32 1.05 C44.17 3.24, 49.49 8.95, 52.14 14.27 C54.79 19.59, 55.55 27.12, 54.2 32.97 C52.85 38.81, 48.73 45.57, 44.03 49.34 C39.32 53.11, 31.81 55.84, 25.95 55.6 C20.09 55.36, 13.25 51.72, 8.86 47.89 C4.47 44.05, 0.42 38.36, -0.39 32.58 C-1.2 26.81, 0.75 18.52, 4.01 13.24 C7.27 7.96, 16.92 2.82, 19.15 0.9 C21.38 -1.01, 17.28 1.03, 17.4 1.75" stroke="#E1E1E1" stroke-width="2" fill="none"></path></g></svg>