<svg version="1.1" xmlns="http://www.w3.org/2000/svg" viewBox="0 0 850.9862197691433 1094.7498686606139" width="850.9862197691433" height="1094.7498686606139" class="excalidraw-svg"><!-- svg-source:excalidraw --><metadata></metadata><defs><style class="style-fonts">
      </style></defs><rect x="0" y="0" width="850.9862197691433" height="1094.7498686606139" fill="#000000"></rect><g stroke-linecap="round"><g transform="translate(460.4124677755016 649.6284454520505) rotate(0 -133.00912133598516 -308.634643486079)" fill-rule="evenodd"><path d="M0 0 C-3.71 -12.45, -15.89 -51.45, -22.25 -74.68 C-28.62 -97.91, -34.42 -116.58, -38.17 -139.37 C-41.93 -162.16, -44.68 -187.57, -44.8 -211.43 C-44.91 -235.29, -43.73 -257.74, -38.87 -282.51 C-34 -307.27, -25.51 -335.37, -15.58 -360.01 C-5.66 -384.65, 10.29 -409.72, 20.66 -430.36 C31.03 -450.99, 40.52 -466.23, 46.63 -483.82 C52.74 -501.4, 55.78 -519.53, 57.32 -535.87 C58.85 -552.21, 57.21 -568.73, 55.85 -581.84 C54.5 -594.95, 52.76 -606.84, 49.2 -614.53 C45.63 -622.23, 40.54 -624.17, 34.46 -628.01 C28.37 -631.85, 20 -635.68, 12.69 -637.58 C5.38 -639.48, -1.99 -639.97, -9.38 -639.41 C-16.78 -638.85, -24.57 -637.2, -31.68 -634.24 C-38.8 -631.27, -41.03 -630.73, -52.05 -621.62 C-63.08 -612.5, -80.32 -595.44, -97.84 -579.57 C-115.35 -563.69, -136.91 -544.67, -157.13 -526.38 C-177.35 -508.09, -200.75 -486.35, -219.16 -469.81 C-237.58 -453.28, -256.51 -437.49, -267.6 -427.17 C-278.68 -416.85, -281.03 -414.79, -285.68 -407.89 C-290.32 -400.99, -292.84 -396.36, -295.47 -385.78 C-298.1 -375.2, -298.65 -363.37, -301.47 -344.43 C-304.29 -325.49, -309.13 -293.49, -312.41 -272.15 C-315.69 -250.81, -319.32 -229.05, -321.14 -216.4 C-322.97 -203.76, -324.21 -200.32, -323.33 -196.28 C-322.46 -192.24, -319.98 -195.17, -315.88 -192.16 C-311.78 -189.16, -306.31 -184.14, -298.74 -178.24 C-291.17 -172.33, -280.59 -165.63, -270.47 -156.71 C-260.36 -147.8, -247.9 -135.69, -238.04 -124.75 C-228.18 -113.8, -219.45 -102.81, -211.31 -91.04 C-203.18 -79.28, -196.1 -67.3, -189.24 -54.15 C-182.38 -40.99, -174.73 -24.83, -170.14 -12.11 C-165.54 0.6, -164.73 16.69, -161.69 22.14 C-158.65 27.59, -158.39 21.79, -151.88 20.61 C-145.37 19.42, -136.04 17.26, -122.61 15.04 C-109.17 12.81, -87.13 9.05, -71.28 7.26 C-55.43 5.47, -39.54 4.67, -27.53 4.29 C-15.51 3.91, -3.78 5.72, 0.8 5.01 C5.39 4.29, 0.13 0.83, 0 0" stroke="none" stroke-width="0" fill="#B3A2FA" fill-rule="evenodd"></path><path d="M0 0 C-3.71 -12.45, -15.89 -51.45, -22.25 -74.68 C-28.62 -97.91, -34.42 -116.58, -38.17 -139.37 C-41.93 -162.16, -44.68 -187.57, -44.8 -211.43 C-44.91 -235.29, -43.73 -257.74, -38.87 -282.51 C-34 -307.27, -25.51 -335.37, -15.58 -360.01 C-5.66 -384.65, 10.29 -409.72, 20.66 -430.36 C31.03 -450.99, 40.52 -466.23, 46.63 -483.82 C52.74 -501.4, 55.78 -519.53, 57.32 -535.87 C58.85 -552.21, 57.21 -568.73, 55.85 -581.84 C54.5 -594.95, 52.76 -606.84, 49.2 -614.53 C45.63 -622.23, 40.54 -624.17, 34.46 -628.01 C28.37 -631.85, 20 -635.68, 12.69 -637.58 C5.38 -639.48, -1.99 -639.97, -9.38 -639.41 C-16.78 -638.85, -24.57 -637.2, -31.68 -634.24 C-38.8 -631.27, -41.03 -630.73, -52.05 -621.62 C-63.08 -612.5, -80.32 -595.44, -97.84 -579.57 C-115.35 -563.69, -136.91 -544.67, -157.13 -526.38 C-177.35 -508.09, -200.75 -486.35, -219.16 -469.81 C-237.58 -453.28, -256.51 -437.49, -267.6 -427.17 C-278.68 -416.85, -281.03 -414.79, -285.68 -407.89 C-290.32 -400.99, -292.84 -396.36, -295.47 -385.78 C-298.1 -375.2, -298.65 -363.37, -301.47 -344.43 C-304.29 -325.49, -309.13 -293.49, -312.41 -272.15 C-315.69 -250.81, -319.32 -229.05, -321.14 -216.4 C-322.97 -203.76, -324.21 -200.32, -323.33 -196.28 C-322.46 -192.24, -319.98 -195.17, -315.88 -192.16 C-311.78 -189.16, -306.31 -184.14, -298.74 -178.24 C-291.17 -172.33, -280.59 -165.63, -270.47 -156.71 C-260.36 -147.8, -247.9 -135.69, -238.04 -124.75 C-228.18 -113.8, -219.45 -102.81, -211.31 -91.04 C-203.18 -79.28, -196.1 -67.3, -189.24 -54.15 C-182.38 -40.99, -174.73 -24.83, -170.14 -12.11 C-165.54 0.6, -164.73 16.69, -161.69 22.14 C-158.65 27.59, -158.39 21.79, -151.88 20.61 C-145.37 19.42, -136.04 17.26, -122.61 15.04 C-109.17 12.81, -87.13 9.05, -71.28 7.26 C-55.43 5.47, -39.54 4.67, -27.53 4.29 C-15.51 3.91, -3.78 5.72, 0.8 5.01 C5.39 4.29, 0.13 0.83, 0 0 M0 0 C-3.71 -12.45, -15.89 -51.45, -22.25 -74.68 C-28.62 -97.91, -34.42 -116.58, -38.17 -139.37 C-41.93 -162.16, -44.68 -187.57, -44.8 -211.43 C-44.91 -235.29, -43.73 -257.74, -38.87 -282.51 C-34 -307.27, -25.51 -335.37, -15.58 -360.01 C-5.66 -384.65, 10.29 -409.72, 20.66 -430.36 C31.03 -450.99, 40.52 -466.23, 46.63 -483.82 C52.74 -501.4, 55.78 -519.53, 57.32 -535.87 C58.85 -552.21, 57.21 -568.73, 55.85 -581.84 C54.5 -594.95, 52.76 -606.84, 49.2 -614.53 C45.63 -622.23, 40.54 -624.17, 34.46 -628.01 C28.37 -631.85, 20 -635.68, 12.69 -637.58 C5.38 -639.48, -1.99 -639.97, -9.38 -639.41 C-16.78 -638.85, -24.57 -637.2, -31.68 -634.24 C-38.8 -631.27, -41.03 -630.73, -52.05 -621.62 C-63.08 -612.5, -80.32 -595.44, -97.84 -579.57 C-115.35 -563.69, -136.91 -544.67, -157.13 -526.38 C-177.35 -508.09, -200.75 -486.35, -219.16 -469.81 C-237.58 -453.28, -256.51 -437.49, -267.6 -427.17 C-278.68 -416.85, -281.03 -414.79, -285.68 -407.89 C-290.32 -400.99, -292.84 -396.36, -295.47 -385.78 C-298.1 -375.2, -298.65 -363.37, -301.47 -344.43 C-304.29 -325.49, -309.13 -293.49, -312.41 -272.15 C-315.69 -250.81, -319.32 -229.05, -321.14 -216.4 C-322.97 -203.76, -324.21 -200.32, -323.33 -196.28 C-322.46 -192.24, -319.98 -195.17, -315.88 -192.16 C-311.78 -189.16, -306.31 -184.14, -298.74 -178.24 C-291.17 -172.33, -280.59 -165.63, -270.47 -156.71 C-260.36 -147.8, -247.9 -135.69, -238.04 -124.75 C-228.18 -113.8, -219.45 -102.81, -211.31 -91.04 C-203.18 -79.28, -196.1 -67.3, -189.24 -54.15 C-182.38 -40.99, -174.73 -24.83, -170.14 -12.11 C-165.54 0.6, -164.73 16.69, -161.69 22.14 C-158.65 27.59, -158.39 21.79, -151.88 20.61 C-145.37 19.42, -136.04 17.26, -122.61 15.04 C-109.17 12.81, -87.13 9.05, -71.28 7.26 C-55.43 5.47, -39.54 4.67, -27.53 4.29 C-15.51 3.91, -3.78 5.72, 0.8 5.01 C5.39 4.29, 0.13 0.83, 0 0" stroke="#B3A2FA" stroke-width="4" fill="none"></path></g></g><mask></mask><g stroke-linecap="round"><g transform="translate(731.8218536534148 871.8394277550901) rotate(0 -103.69817158264627 -419.000914773659)" fill-rule="evenodd"><path d="M0 0 C8.09 -12.7, 35.03 -54.67, 48.55 -76.19 C62.06 -97.71, 72.53 -115.55, 81.09 -129.12 C89.64 -142.69, 95.31 -149.88, 99.87 -157.59 C104.44 -165.31, 107.12 -169.72, 108.48 -175.39 C109.83 -181.06, 108.93 -186.86, 107.99 -191.62 C107.05 -196.37, 106.35 -198.21, 102.85 -203.9 C99.35 -209.59, 93.42 -216.48, 86.97 -225.78 C80.52 -235.07, 72.02 -247.52, 64.13 -259.67 C56.25 -271.82, 47.29 -285.49, 39.66 -298.68 C32.03 -311.87, 24.33 -326.25, 18.37 -338.82 C12.41 -351.39, 8.24 -359.89, 3.89 -374.09 C-0.47 -388.3, -4.76 -408.02, -7.76 -424.04 C-10.76 -440.05, -12.54 -453.96, -14.11 -470.18 C-15.68 -486.4, -16.43 -506.25, -17.17 -521.35 C-17.91 -536.45, -17.33 -550.43, -18.55 -560.77 C-19.76 -571.11, -21.28 -576.3, -24.47 -583.37 C-27.65 -590.43, -31.32 -594.81, -37.64 -603.17 C-43.95 -611.52, -54.04 -622.9, -62.33 -633.52 C-70.62 -644.14, -78.88 -656, -87.39 -666.89 C-95.89 -677.77, -104.21 -687.46, -113.35 -698.84 C-122.5 -710.22, -133.18 -723.65, -142.26 -735.17 C-151.34 -746.69, -160.02 -757.93, -167.84 -767.95 C-175.66 -777.96, -181.91 -785.95, -189.17 -795.24 C-196.44 -804.54, -205.91 -816.6, -211.45 -823.73 C-216.98 -830.85, -221.49 -839.14, -222.39 -838 C-223.29 -836.87, -218.55 -827.28, -216.84 -816.92 C-215.13 -806.55, -212.41 -788.94, -212.11 -775.83 C-211.81 -762.72, -213.3 -749.29, -215.05 -738.27 C-216.79 -727.24, -218.84 -720.33, -222.61 -709.68 C-226.38 -699.03, -232.61 -685.27, -237.67 -674.38 C-242.73 -663.49, -247.02 -655.46, -252.98 -644.32 C-258.94 -633.18, -267.08 -620.19, -273.42 -607.52 C-279.75 -594.85, -285.19 -583.87, -291 -568.3 C-296.82 -552.72, -304.39 -530.11, -308.32 -514.06 C-312.25 -498.01, -313.34 -487.38, -314.6 -471.99 C-315.85 -456.6, -316.65 -438.96, -315.87 -421.71 C-315.09 -404.46, -313.14 -387.41, -309.9 -368.49 C-306.67 -349.57, -301.99 -328.77, -296.47 -308.2 C-290.96 -287.63, -281.66 -260.52, -276.83 -245.08 C-272 -229.65, -269.68 -220.41, -267.51 -215.59 C-265.34 -210.76, -270.96 -216.92, -263.81 -216.13 C-256.66 -215.34, -239.13 -214.27, -224.62 -210.86 C-210.11 -207.46, -192.11 -202.58, -176.74 -195.7 C-161.37 -188.81, -147.33 -180.37, -132.41 -169.56 C-117.49 -158.74, -101.42 -145.55, -87.22 -130.81 C-73.03 -116.06, -58.91 -97.52, -47.24 -81.07 C-35.57 -64.62, -24.34 -44.45, -17.19 -32.12 C-10.05 -19.79, -7.25 -12.45, -4.38 -7.1 C-1.52 -1.74, -0.73 -1.18, 0 0" stroke="none" stroke-width="0" fill="#9E75ED" fill-rule="evenodd"></path><path d="M0 0 C8.09 -12.7, 35.03 -54.67, 48.55 -76.19 C62.06 -97.71, 72.53 -115.55, 81.09 -129.12 C89.64 -142.69, 95.31 -149.88, 99.87 -157.59 C104.44 -165.31, 107.12 -169.72, 108.48 -175.39 C109.83 -181.06, 108.93 -186.86, 107.99 -191.62 C107.05 -196.37, 106.35 -198.21, 102.85 -203.9 C99.35 -209.59, 93.42 -216.48, 86.97 -225.78 C80.52 -235.07, 72.02 -247.52, 64.13 -259.67 C56.25 -271.82, 47.29 -285.49, 39.66 -298.68 C32.03 -311.87, 24.33 -326.25, 18.37 -338.82 C12.41 -351.39, 8.24 -359.89, 3.89 -374.09 C-0.47 -388.3, -4.76 -408.02, -7.76 -424.04 C-10.76 -440.05, -12.54 -453.96, -14.11 -470.18 C-15.68 -486.4, -16.43 -506.25, -17.17 -521.35 C-17.91 -536.45, -17.33 -550.43, -18.55 -560.77 C-19.76 -571.11, -21.28 -576.3, -24.47 -583.37 C-27.65 -590.43, -31.32 -594.81, -37.64 -603.17 C-43.95 -611.52, -54.04 -622.9, -62.33 -633.52 C-70.62 -644.14, -78.88 -656, -87.39 -666.89 C-95.89 -677.77, -104.21 -687.46, -113.35 -698.84 C-122.5 -710.22, -133.18 -723.65, -142.26 -735.17 C-151.34 -746.69, -160.02 -757.93, -167.84 -767.95 C-175.66 -777.96, -181.91 -785.95, -189.17 -795.24 C-196.44 -804.54, -205.91 -816.6, -211.45 -823.73 C-216.98 -830.85, -221.49 -839.14, -222.39 -838 C-223.29 -836.87, -218.55 -827.28, -216.84 -816.92 C-215.13 -806.55, -212.41 -788.94, -212.11 -775.83 C-211.81 -762.72, -213.3 -749.29, -215.05 -738.27 C-216.79 -727.24, -218.84 -720.33, -222.61 -709.68 C-226.38 -699.03, -232.61 -685.27, -237.67 -674.38 C-242.73 -663.49, -247.02 -655.46, -252.98 -644.32 C-258.94 -633.18, -267.08 -620.19, -273.42 -607.52 C-279.75 -594.85, -285.19 -583.87, -291 -568.3 C-296.82 -552.72, -304.39 -530.11, -308.32 -514.06 C-312.25 -498.01, -313.34 -487.38, -314.6 -471.99 C-315.85 -456.6, -316.65 -438.96, -315.87 -421.71 C-315.09 -404.46, -313.14 -387.41, -309.9 -368.49 C-306.67 -349.57, -301.99 -328.77, -296.47 -308.2 C-290.96 -287.63, -281.66 -260.52, -276.83 -245.08 C-272 -229.65, -269.68 -220.41, -267.51 -215.59 C-265.34 -210.76, -270.96 -216.92, -263.81 -216.13 C-256.66 -215.34, -239.13 -214.27, -224.62 -210.86 C-210.11 -207.46, -192.11 -202.58, -176.74 -195.7 C-161.37 -188.81, -147.33 -180.37, -132.41 -169.56 C-117.49 -158.74, -101.42 -145.55, -87.22 -130.81 C-73.03 -116.06, -58.91 -97.52, -47.24 -81.07 C-35.57 -64.62, -24.34 -44.45, -17.19 -32.12 C-10.05 -19.79, -7.25 -12.45, -4.38 -7.1 C-1.52 -1.74, -0.73 -1.18, 0 0 M0 0 C8.09 -12.7, 35.03 -54.67, 48.55 -76.19 C62.06 -97.71, 72.53 -115.55, 81.09 -129.12 C89.64 -142.69, 95.31 -149.88, 99.87 -157.59 C104.44 -165.31, 107.12 -169.72, 108.48 -175.39 C109.83 -181.06, 108.93 -186.86, 107.99 -191.62 C107.05 -196.37, 106.35 -198.21, 102.85 -203.9 C99.35 -209.59, 93.42 -216.48, 86.97 -225.78 C80.52 -235.07, 72.02 -247.52, 64.13 -259.67 C56.25 -271.82, 47.29 -285.49, 39.66 -298.68 C32.03 -311.87, 24.33 -326.25, 18.37 -338.82 C12.41 -351.39, 8.24 -359.89, 3.89 -374.09 C-0.47 -388.3, -4.76 -408.02, -7.76 -424.04 C-10.76 -440.05, -12.54 -453.96, -14.11 -470.18 C-15.68 -486.4, -16.43 -506.25, -17.17 -521.35 C-17.91 -536.45, -17.33 -550.43, -18.55 -560.77 C-19.76 -571.11, -21.28 -576.3, -24.47 -583.37 C-27.65 -590.43, -31.32 -594.81, -37.64 -603.17 C-43.95 -611.52, -54.04 -622.9, -62.33 -633.52 C-70.62 -644.14, -78.88 -656, -87.39 -666.89 C-95.89 -677.77, -104.21 -687.46, -113.35 -698.84 C-122.5 -710.22, -133.18 -723.65, -142.26 -735.17 C-151.34 -746.69, -160.02 -757.93, -167.84 -767.95 C-175.66 -777.96, -181.91 -785.95, -189.17 -795.24 C-196.44 -804.54, -205.91 -816.6, -211.45 -823.73 C-216.98 -830.85, -221.49 -839.14, -222.39 -838 C-223.29 -836.87, -218.55 -827.28, -216.84 -816.92 C-215.13 -806.55, -212.41 -788.94, -212.11 -775.83 C-211.81 -762.72, -213.3 -749.29, -215.05 -738.27 C-216.79 -727.24, -218.84 -720.33, -222.61 -709.68 C-226.38 -699.03, -232.61 -685.27, -237.67 -674.38 C-242.73 -663.49, -247.02 -655.46, -252.98 -644.32 C-258.94 -633.18, -267.08 -620.19, -273.42 -607.52 C-279.75 -594.85, -285.19 -583.87, -291 -568.3 C-296.82 -552.72, -304.39 -530.11, -308.32 -514.06 C-312.25 -498.01, -313.34 -487.38, -314.6 -471.99 C-315.85 -456.6, -316.65 -438.96, -315.87 -421.71 C-315.09 -404.46, -313.14 -387.41, -309.9 -368.49 C-306.67 -349.57, -301.99 -328.77, -296.47 -308.2 C-290.96 -287.63, -281.66 -260.52, -276.83 -245.08 C-272 -229.65, -269.68 -220.41, -267.51 -215.59 C-265.34 -210.76, -270.96 -216.92, -263.81 -216.13 C-256.66 -215.34, -239.13 -214.27, -224.62 -210.86 C-210.11 -207.46, -192.11 -202.58, -176.74 -195.7 C-161.37 -188.81, -147.33 -180.37, -132.41 -169.56 C-117.49 -158.74, -101.42 -145.55, -87.22 -130.81 C-73.03 -116.06, -58.91 -97.52, -47.24 -81.07 C-35.57 -64.62, -24.34 -44.45, -17.19 -32.12 C-10.05 -19.79, -7.25 -12.45, -4.38 -7.1 C-1.52 -1.74, -0.73 -1.18, 0 0" stroke="#9E75ED" stroke-width="4" fill="none"></path></g></g><mask></mask><g stroke-linecap="round"><g transform="translate(300.5381202354808 674.2058681224307) rotate(0 183.1542427387688 195.94860936326057)" fill-rule="evenodd"><path d="M0 0 C1.07 7.52, 5.2 29.18, 6.39 45.13 C7.59 61.08, 8.01 78.04, 7.16 95.7 C6.32 113.35, 5.58 128.18, 1.31 151.06 C-2.96 173.95, -10.57 208.04, -18.44 233.03 C-26.32 258.02, -39.37 285.64, -45.92 301 C-52.48 316.36, -54.76 319.14, -57.77 325.21 C-60.79 331.27, -64.22 334.54, -64 337.39 C-63.78 340.24, -62.58 340.6, -56.45 342.31 C-50.31 344.01, -42.59 345.99, -27.19 347.63 C-11.8 349.28, 12.85 350.18, 35.93 352.16 C59.01 354.15, 89.28 355.98, 111.29 359.55 C133.29 363.11, 147.69 368.1, 167.95 373.57 C188.22 379.04, 212.64 386.55, 232.88 392.36 C253.12 398.17, 276.68 405.46, 289.39 408.44 C302.1 411.42, 302.27 410.42, 309.13 410.23 C315.99 410.04, 323.35 409.8, 330.54 407.28 C337.73 404.77, 345.32 400.36, 352.25 395.13 C359.18 389.91, 366.6 383.31, 372.13 375.93 C377.67 368.55, 382.13 361.11, 385.47 350.84 C388.8 340.58, 389.31 327.72, 392.15 314.35 C394.99 300.98, 398.67 284.27, 402.51 270.61 C406.34 256.95, 410.53 244.05, 415.17 232.38 C419.8 220.71, 428.81 208.14, 430.31 200.61 C431.81 193.09, 427.4 193.47, 424.15 187.23 C420.91 180.98, 415.26 170.98, 410.84 163.13 C406.42 155.28, 402.93 148.68, 397.64 140.13 C392.35 131.58, 386.06 121.5, 379.13 111.83 C372.2 102.17, 363.56 90.98, 356.07 82.15 C348.59 73.31, 342.42 66.84, 334.23 58.81 C326.03 50.79, 317.71 42, 306.91 34 C296.12 26, 281.28 17.13, 269.45 10.82 C257.63 4.51, 247.77 0.24, 235.95 -3.88 C224.13 -8, 211.52 -11.52, 198.52 -13.91 C185.51 -16.3, 172.59 -17.49, 157.93 -18.23 C143.26 -18.96, 127.27 -19.32, 110.52 -18.33 C93.78 -17.34, 73.15 -14.55, 57.46 -12.29 C41.78 -10.02, 25.99 -6.79, 16.42 -4.74 C6.84 -2.69, 2.74 -0.79, 0 0" stroke="none" stroke-width="0" fill="#5E34B0" fill-rule="evenodd"></path><path d="M0 0 C1.07 7.52, 5.2 29.18, 6.39 45.13 C7.59 61.08, 8.01 78.04, 7.16 95.7 C6.32 113.35, 5.58 128.18, 1.31 151.06 C-2.96 173.95, -10.57 208.04, -18.44 233.03 C-26.32 258.02, -39.37 285.64, -45.92 301 C-52.48 316.36, -54.76 319.14, -57.77 325.21 C-60.79 331.27, -64.22 334.54, -64 337.39 C-63.78 340.24, -62.58 340.6, -56.45 342.31 C-50.31 344.01, -42.59 345.99, -27.19 347.63 C-11.8 349.28, 12.85 350.18, 35.93 352.16 C59.01 354.15, 89.28 355.98, 111.29 359.55 C133.29 363.11, 147.69 368.1, 167.95 373.57 C188.22 379.04, 212.64 386.55, 232.88 392.36 C253.12 398.17, 276.68 405.46, 289.39 408.44 C302.1 411.42, 302.27 410.42, 309.13 410.23 C315.99 410.04, 323.35 409.8, 330.54 407.28 C337.73 404.77, 345.32 400.36, 352.25 395.13 C359.18 389.91, 366.6 383.31, 372.13 375.93 C377.67 368.55, 382.13 361.11, 385.47 350.84 C388.8 340.58, 389.31 327.72, 392.15 314.35 C394.99 300.98, 398.67 284.27, 402.51 270.61 C406.34 256.95, 410.53 244.05, 415.17 232.38 C419.8 220.71, 428.81 208.14, 430.31 200.61 C431.81 193.09, 427.4 193.47, 424.15 187.23 C420.91 180.98, 415.26 170.98, 410.84 163.13 C406.42 155.28, 402.93 148.68, 397.64 140.13 C392.35 131.58, 386.06 121.5, 379.13 111.83 C372.2 102.17, 363.56 90.98, 356.07 82.15 C348.59 73.31, 342.42 66.84, 334.23 58.81 C326.03 50.79, 317.71 42, 306.91 34 C296.12 26, 281.28 17.13, 269.45 10.82 C257.63 4.51, 247.77 0.24, 235.95 -3.88 C224.13 -8, 211.52 -11.52, 198.52 -13.91 C185.51 -16.3, 172.59 -17.49, 157.93 -18.23 C143.26 -18.96, 127.27 -19.32, 110.52 -18.33 C93.78 -17.34, 73.15 -14.55, 57.46 -12.29 C41.78 -10.02, 25.99 -6.79, 16.42 -4.74 C6.84 -2.69, 2.74 -0.79, 0 0 M0 0 C1.07 7.52, 5.2 29.18, 6.39 45.13 C7.59 61.08, 8.01 78.04, 7.16 95.7 C6.32 113.35, 5.58 128.18, 1.31 151.06 C-2.96 173.95, -10.57 208.04, -18.44 233.03 C-26.32 258.02, -39.37 285.64, -45.92 301 C-52.48 316.36, -54.76 319.14, -57.77 325.21 C-60.79 331.27, -64.22 334.54, -64 337.39 C-63.78 340.24, -62.58 340.6, -56.45 342.31 C-50.31 344.01, -42.59 345.99, -27.19 347.63 C-11.8 349.28, 12.85 350.18, 35.93 352.16 C59.01 354.15, 89.28 355.98, 111.29 359.55 C133.29 363.11, 147.69 368.1, 167.95 373.57 C188.22 379.04, 212.64 386.55, 232.88 392.36 C253.12 398.17, 276.68 405.46, 289.39 408.44 C302.1 411.42, 302.27 410.42, 309.13 410.23 C315.99 410.04, 323.35 409.8, 330.54 407.28 C337.73 404.77, 345.32 400.36, 352.25 395.13 C359.18 389.91, 366.6 383.31, 372.13 375.93 C377.67 368.55, 382.13 361.11, 385.47 350.84 C388.8 340.58, 389.31 327.72, 392.15 314.35 C394.99 300.98, 398.67 284.27, 402.51 270.61 C406.34 256.95, 410.53 244.05, 415.17 232.38 C419.8 220.71, 428.81 208.14, 430.31 200.61 C431.81 193.09, 427.4 193.47, 424.15 187.23 C420.91 180.98, 415.26 170.98, 410.84 163.13 C406.42 155.28, 402.93 148.68, 397.64 140.13 C392.35 131.58, 386.06 121.5, 379.13 111.83 C372.2 102.17, 363.56 90.98, 356.07 82.15 C348.59 73.31, 342.42 66.84, 334.23 58.81 C326.03 50.79, 317.71 42, 306.91 34 C296.12 26, 281.28 17.13, 269.45 10.82 C257.63 4.51, 247.77 0.24, 235.95 -3.88 C224.13 -8, 211.52 -11.52, 198.52 -13.91 C185.51 -16.3, 172.59 -17.49, 157.93 -18.23 C143.26 -18.96, 127.27 -19.32, 110.52 -18.33 C93.78 -17.34, 73.15 -14.55, 57.46 -12.29 C41.78 -10.02, 25.99 -6.79, 16.42 -4.74 C6.84 -2.69, 2.74 -0.79, 0 0" stroke="#5E34B0" stroke-width="4" fill="none"></path></g></g><mask></mask><g stroke-linecap="round"><g transform="translate(137.0219495903204 454.47797373632375) rotate(0 22.79709701366363 278.5782181161943)" fill-rule="evenodd"><path d="M0 0 C5.75 4.14, 21.67 14.45, 34.53 24.82 C47.39 35.19, 64.73 49.58, 77.14 62.21 C89.55 74.84, 99.15 86.72, 108.99 100.59 C118.84 114.46, 128.19 129.41, 136.21 145.42 C144.22 161.43, 151.91 180.97, 157.07 196.64 C162.22 212.31, 164.55 222.23, 167.13 239.45 C169.71 256.66, 172.81 278.14, 172.55 299.94 C172.29 321.75, 169.88 345.67, 165.57 370.28 C161.26 394.88, 153.6 425.02, 146.69 447.56 C139.79 470.1, 130.52 490.04, 124.14 505.53 C117.76 521.03, 112.45 531.92, 108.41 540.53 C104.37 549.13, 102.16 554.43, 99.9 557.16 C97.65 559.88, 99.3 559.83, 94.88 556.88 C90.46 553.93, 80 545.64, 73.4 539.48 C66.79 533.32, 65.13 530.33, 55.24 519.92 C45.34 509.52, 27.47 490.94, 14.03 477.04 C0.59 463.15, -10.8 451.56, -25.39 436.54 C-39.99 421.52, -59.91 401.12, -73.52 386.93 C-87.14 372.73, -99.24 360.53, -107.07 351.38 C-114.9 342.23, -117.18 339.51, -120.5 332.03 C-123.81 324.56, -126.63 315.86, -126.96 306.53 C-127.29 297.2, -126.37 288.15, -122.5 276.08 C-118.63 264, -111.62 251.54, -103.74 234.1 C-95.86 216.67, -84.37 191.63, -75.22 171.47 C-66.06 151.32, -57.04 131.4, -48.83 113.17 C-40.61 94.95, -32.07 75.93, -25.93 62.14 C-19.79 48.36, -16.3 40.83, -11.98 30.47 C-7.66 20.12, -2 5.08, 0 0" stroke="none" stroke-width="0" fill="#6327D3" fill-rule="evenodd"></path><path d="M0 0 C5.75 4.14, 21.67 14.45, 34.53 24.82 C47.39 35.19, 64.73 49.58, 77.14 62.21 C89.55 74.84, 99.15 86.72, 108.99 100.59 C118.84 114.46, 128.19 129.41, 136.21 145.42 C144.22 161.43, 151.91 180.97, 157.07 196.64 C162.22 212.31, 164.55 222.23, 167.13 239.45 C169.71 256.66, 172.81 278.14, 172.55 299.94 C172.29 321.75, 169.88 345.67, 165.57 370.28 C161.26 394.88, 153.6 425.02, 146.69 447.56 C139.79 470.1, 130.52 490.04, 124.14 505.53 C117.76 521.03, 112.45 531.92, 108.41 540.53 C104.37 549.13, 102.16 554.43, 99.9 557.16 C97.65 559.88, 99.3 559.83, 94.88 556.88 C90.46 553.93, 80 545.64, 73.4 539.48 C66.79 533.32, 65.13 530.33, 55.24 519.92 C45.34 509.52, 27.47 490.94, 14.03 477.04 C0.59 463.15, -10.8 451.56, -25.39 436.54 C-39.99 421.52, -59.91 401.12, -73.52 386.93 C-87.14 372.73, -99.24 360.53, -107.07 351.38 C-114.9 342.23, -117.18 339.51, -120.5 332.03 C-123.81 324.56, -126.63 315.86, -126.96 306.53 C-127.29 297.2, -126.37 288.15, -122.5 276.08 C-118.63 264, -111.62 251.54, -103.74 234.1 C-95.86 216.67, -84.37 191.63, -75.22 171.47 C-66.06 151.32, -57.04 131.4, -48.83 113.17 C-40.61 94.95, -32.07 75.93, -25.93 62.14 C-19.79 48.36, -16.3 40.83, -11.98 30.47 C-7.66 20.12, -2 5.08, 0 0 M0 0 C5.75 4.14, 21.67 14.45, 34.53 24.82 C47.39 35.19, 64.73 49.58, 77.14 62.21 C89.55 74.84, 99.15 86.72, 108.99 100.59 C118.84 114.46, 128.19 129.41, 136.21 145.42 C144.22 161.43, 151.91 180.97, 157.07 196.64 C162.22 212.31, 164.55 222.23, 167.13 239.45 C169.71 256.66, 172.81 278.14, 172.55 299.94 C172.29 321.75, 169.88 345.67, 165.57 370.28 C161.26 394.88, 153.6 425.02, 146.69 447.56 C139.79 470.1, 130.52 490.04, 124.14 505.53 C117.76 521.03, 112.45 531.92, 108.41 540.53 C104.37 549.13, 102.16 554.43, 99.9 557.16 C97.65 559.88, 99.3 559.83, 94.88 556.88 C90.46 553.93, 80 545.64, 73.4 539.48 C66.79 533.32, 65.13 530.33, 55.24 519.92 C45.34 509.52, 27.47 490.94, 14.03 477.04 C0.59 463.15, -10.8 451.56, -25.39 436.54 C-39.99 421.52, -59.91 401.12, -73.52 386.93 C-87.14 372.73, -99.24 360.53, -107.07 351.38 C-114.9 342.23, -117.18 339.51, -120.5 332.03 C-123.81 324.56, -126.63 315.86, -126.96 306.53 C-127.29 297.2, -126.37 288.15, -122.5 276.08 C-118.63 264, -111.62 251.54, -103.74 234.1 C-95.86 216.67, -84.37 191.63, -75.22 171.47 C-66.06 151.32, -57.04 131.4, -48.83 113.17 C-40.61 94.95, -32.07 75.93, -25.93 62.14 C-19.79 48.36, -16.3 40.83, -11.98 30.47 C-7.66 20.12, -2 5.08, 0 0" stroke="#6327D3" stroke-width="4" fill="none"></path></g></g><mask></mask></svg>