<svg version="1.1" xmlns="http://www.w3.org/2000/svg" viewBox="0 0 114.99924022429212 142.96299817764114" width="114.99924022429212" height="142.96299817764114" class="excalidraw-svg"><!-- svg-source:excalidraw --><metadata></metadata><defs><style class="style-fonts">
      </style></defs><rect x="0" y="0" width="114.99924022429212" height="142.96299817764114" fill="#000000"></rect><g stroke-linecap="round"><g transform="translate(43.67455964046339 22.84422467205505) rotate(0 13.827196676625839 48.584185542716895)"><path d="M0 0 C1.13 -1.01, 5.1 -4.57, 6.77 -6.09 C8.43 -7.6, 9.12 -8.27, 10 -9.08 C10.89 -9.89, 11.52 -10.49, 12.09 -10.95 C12.65 -11.41, 12.84 -11.57, 13.4 -11.85 C13.97 -12.12, 14.82 -12.43, 15.47 -12.6 C16.12 -12.76, 16.68 -12.83, 17.28 -12.84 C17.88 -12.85, 18.39 -12.84, 19.07 -12.65 C19.76 -12.47, 20.76 -12.04, 21.39 -11.73 C22.02 -11.42, 22.42 -11.18, 22.85 -10.8 C23.29 -10.43, 23.46 -10.17, 24.01 -9.47 C24.56 -8.77, 25.29 -7.74, 26.15 -6.61 C27.02 -5.47, 28.15 -4, 29.2 -2.65 C30.25 -1.29, 31.29 0.04, 32.47 1.54 C33.65 3.04, 35.14 4.92, 36.29 6.37 C37.45 7.82, 38.53 9.12, 39.42 10.27 C40.31 11.41, 40.97 12.4, 41.64 13.26 C42.31 14.11, 42.8 14.63, 43.42 15.4 C44.04 16.17, 44.88 17.14, 45.37 17.86 C45.85 18.59, 46.1 19.16, 46.34 19.78 C46.57 20.4, 46.7 20.69, 46.79 21.58 C46.88 22.48, 46.84 23.57, 46.9 25.14 C46.96 26.72, 47.06 29.42, 47.17 31.02 C47.29 32.61, 47.37 33.32, 47.58 34.71 C47.79 36.1, 48.07 37.79, 48.42 39.36 C48.76 40.93, 49.09 42.55, 49.66 44.13 C50.22 45.71, 51 47.31, 51.79 48.83 C52.59 50.36, 53.41 51.7, 54.41 53.3 C55.41 54.9, 56.77 56.97, 57.77 58.43 C58.77 59.9, 59.87 61.25, 60.42 62.09 C60.97 62.93, 60.93 62.95, 61.08 63.48 C61.23 64.01, 61.37 64.68, 61.31 65.26 C61.26 65.84, 61.29 65.99, 60.76 66.96 C60.24 67.93, 59.16 69.45, 58.16 71.06 C57.16 72.67, 55.87 74.83, 54.75 76.62 C53.62 78.41, 52.31 80.43, 51.42 81.81 C50.54 83.19, 49.88 84.19, 49.45 84.89 C49.01 85.59, 48.99 85.64, 48.81 86.03 C48.64 86.41, 48.7 86.58, 48.42 87.18 C48.14 87.77, 47.48 88.79, 47.14 89.57 C46.79 90.35, 46.59 91.09, 46.34 91.86 C46.08 92.62, 45.89 93.18, 45.62 94.17 C45.35 95.17, 44.99 96.7, 44.74 97.83 C44.49 98.97, 44.28 100.11, 44.12 100.98 C43.96 101.86, 43.96 102.44, 43.78 103.09 C43.6 103.74, 43.46 104.2, 43.04 104.9 C42.62 105.6, 41.97 106.55, 41.24 107.28 C40.51 108, 39.5 108.77, 38.67 109.23 C37.83 109.68, 37.09 109.87, 36.22 110 C35.36 110.13, 34.61 110.18, 33.48 110.01 C32.35 109.84, 30.78 109.37, 29.42 109.01 C28.06 108.64, 26.96 108.29, 25.32 107.81 C23.68 107.33, 21.24 106.62, 19.56 106.14 C17.89 105.66, 16.67 105.26, 15.28 104.92 C13.89 104.59, 12.85 104.34, 11.21 104.12 C9.57 103.9, 7.2 103.74, 5.42 103.6 C3.64 103.46, 2.1 103.4, 0.52 103.28 C-1.06 103.17, -2.82 103.05, -4.05 102.9 C-5.28 102.74, -6.04 102.66, -6.86 102.37 C-7.69 102.08, -8.27 101.7, -9.01 101.17 C-9.74 100.63, -10.46 99.94, -11.26 99.15 C-12.05 98.37, -12.86 97.43, -13.79 96.45 C-14.71 95.47, -15.67 94.45, -16.82 93.25 C-17.97 92.06, -19.44 90.55, -20.67 89.28 C-21.91 88.01, -23.04 86.86, -24.22 85.64 C-25.41 84.41, -26.63 83.15, -27.78 81.95 C-28.93 80.75, -30.29 79.31, -31.1 78.42 C-31.9 77.53, -32.24 77.23, -32.63 76.59 C-33.02 75.94, -33.27 75.3, -33.44 74.55 C-33.61 73.8, -33.72 72.95, -33.66 72.1 C-33.6 71.25, -33.47 70.49, -33.1 69.43 C-32.74 68.37, -32.21 67.37, -31.48 65.75 C-30.75 64.13, -29.58 61.59, -28.72 59.71 C-27.86 57.83, -27.19 56.39, -26.32 54.48 C-25.46 52.57, -24.48 50.37, -23.52 48.24 C-22.56 46.11, -21.27 43.32, -20.57 41.68 C-19.87 40.04, -19.58 39.33, -19.32 38.41 C-19.06 37.49, -19.18 37.28, -19.01 36.16 C-18.84 35.04, -18.58 33.47, -18.3 31.7 C-18.02 29.93, -17.66 27.78, -17.32 25.54 C-16.98 23.3, -16.49 19.83, -16.26 18.27 C-16.03 16.7, -16.1 16.79, -15.94 16.14 C-15.78 15.49, -15.57 14.9, -15.28 14.36 C-15 13.81, -14.82 13.51, -14.23 12.87 C-13.65 12.24, -13.06 11.7, -11.77 10.55 C-10.48 9.4, -8.47 7.74, -6.51 5.98 C-4.55 4.22, -1.08 1, 0 0 M0 0 C1.13 -1.01, 5.1 -4.57, 6.77 -6.09 C8.43 -7.6, 9.12 -8.27, 10 -9.08 C10.89 -9.89, 11.52 -10.49, 12.09 -10.95 C12.65 -11.41, 12.84 -11.57, 13.4 -11.85 C13.97 -12.12, 14.82 -12.43, 15.47 -12.6 C16.12 -12.76, 16.68 -12.83, 17.28 -12.84 C17.88 -12.85, 18.39 -12.84, 19.07 -12.65 C19.76 -12.47, 20.76 -12.04, 21.39 -11.73 C22.02 -11.42, 22.42 -11.18, 22.85 -10.8 C23.29 -10.43, 23.46 -10.17, 24.01 -9.47 C24.56 -8.77, 25.29 -7.74, 26.15 -6.61 C27.02 -5.47, 28.15 -4, 29.2 -2.65 C30.25 -1.29, 31.29 0.04, 32.47 1.54 C33.65 3.04, 35.14 4.92, 36.29 6.37 C37.45 7.82, 38.53 9.12, 39.42 10.27 C40.31 11.41, 40.97 12.4, 41.64 13.26 C42.31 14.11, 42.8 14.63, 43.42 15.4 C44.04 16.17, 44.88 17.14, 45.37 17.86 C45.85 18.59, 46.1 19.16, 46.34 19.78 C46.57 20.4, 46.7 20.69, 46.79 21.58 C46.88 22.48, 46.84 23.57, 46.9 25.14 C46.96 26.72, 47.06 29.42, 47.17 31.02 C47.29 32.61, 47.37 33.32, 47.58 34.71 C47.79 36.1, 48.07 37.79, 48.42 39.36 C48.76 40.93, 49.09 42.55, 49.66 44.13 C50.22 45.71, 51 47.31, 51.79 48.83 C52.59 50.36, 53.41 51.7, 54.41 53.3 C55.41 54.9, 56.77 56.97, 57.77 58.43 C58.77 59.9, 59.87 61.25, 60.42 62.09 C60.97 62.93, 60.93 62.95, 61.08 63.48 C61.23 64.01, 61.37 64.68, 61.31 65.26 C61.26 65.84, 61.29 65.99, 60.76 66.96 C60.24 67.93, 59.16 69.45, 58.16 71.06 C57.16 72.67, 55.87 74.83, 54.75 76.62 C53.62 78.41, 52.31 80.43, 51.42 81.81 C50.54 83.19, 49.88 84.19, 49.45 84.89 C49.01 85.59, 48.99 85.64, 48.81 86.03 C48.64 86.41, 48.7 86.58, 48.42 87.18 C48.14 87.77, 47.48 88.79, 47.14 89.57 C46.79 90.35, 46.59 91.09, 46.34 91.86 C46.08 92.62, 45.89 93.18, 45.62 94.17 C45.35 95.17, 44.99 96.7, 44.74 97.83 C44.49 98.97, 44.28 100.11, 44.12 100.98 C43.96 101.86, 43.96 102.44, 43.78 103.09 C43.6 103.74, 43.46 104.2, 43.04 104.9 C42.62 105.6, 41.97 106.55, 41.24 107.28 C40.51 108, 39.5 108.77, 38.67 109.23 C37.83 109.68, 37.09 109.87, 36.22 110 C35.36 110.13, 34.61 110.18, 33.48 110.01 C32.35 109.84, 30.78 109.37, 29.42 109.01 C28.06 108.64, 26.96 108.29, 25.32 107.81 C23.68 107.33, 21.24 106.62, 19.56 106.14 C17.89 105.66, 16.67 105.26, 15.28 104.92 C13.89 104.59, 12.85 104.34, 11.21 104.12 C9.57 103.9, 7.2 103.74, 5.42 103.6 C3.64 103.46, 2.1 103.4, 0.52 103.28 C-1.06 103.17, -2.82 103.05, -4.05 102.9 C-5.28 102.74, -6.04 102.66, -6.86 102.37 C-7.69 102.08, -8.27 101.7, -9.01 101.17 C-9.74 100.63, -10.46 99.94, -11.26 99.15 C-12.05 98.37, -12.86 97.43, -13.79 96.45 C-14.71 95.47, -15.67 94.45, -16.82 93.25 C-17.97 92.06, -19.44 90.55, -20.67 89.28 C-21.91 88.01, -23.04 86.86, -24.22 85.64 C-25.41 84.41, -26.63 83.15, -27.78 81.95 C-28.93 80.75, -30.29 79.31, -31.1 78.42 C-31.9 77.53, -32.24 77.23, -32.63 76.59 C-33.02 75.94, -33.27 75.3, -33.44 74.55 C-33.61 73.8, -33.72 72.95, -33.66 72.1 C-33.6 71.25, -33.47 70.49, -33.1 69.43 C-32.74 68.37, -32.21 67.37, -31.48 65.75 C-30.75 64.13, -29.58 61.59, -28.72 59.71 C-27.86 57.83, -27.19 56.39, -26.32 54.48 C-25.46 52.57, -24.48 50.37, -23.52 48.24 C-22.56 46.11, -21.27 43.32, -20.57 41.68 C-19.87 40.04, -19.58 39.33, -19.32 38.41 C-19.06 37.49, -19.18 37.28, -19.01 36.16 C-18.84 35.04, -18.58 33.47, -18.3 31.7 C-18.02 29.93, -17.66 27.78, -17.32 25.54 C-16.98 23.3, -16.49 19.83, -16.26 18.27 C-16.03 16.7, -16.1 16.79, -15.94 16.14 C-15.78 15.49, -15.57 14.9, -15.28 14.36 C-15 13.81, -14.82 13.51, -14.23 12.87 C-13.65 12.24, -13.06 11.7, -11.77 10.55 C-10.48 9.4, -8.47 7.74, -6.51 5.98 C-4.55 4.22, -1.08 1, 0 0" stroke="#FFFFFF" stroke-width="2" fill="none"></path></g></g><mask></mask></svg>