<svg version="1.1" xmlns="http://www.w3.org/2000/svg" viewBox="0 0 522.5805910595957 515.9152630477737" width="522.5805910595957" height="515.9152630477737" class="excalidraw-svg"><!-- svg-source:excalidraw --><metadata></metadata><defs><style class="style-fonts">
      </style></defs><rect x="0" y="0" width="522.5805910595957" height="515.9152630477737" fill="#000000"></rect><g stroke-linecap="round"><g transform="translate(415.55749655307613 70.93664081868116) rotate(0 27.270183339868368 128.02349810812757)"><path d="M0 0 C0.15 9.95, 0.71 38.1, 0.9 59.71 C1.08 81.32, 1.28 104.83, 1.13 129.64 C0.98 154.45, 0.04 187.52, -0.02 208.59 C-0.07 229.65, -3.25 250.97, 0.79 256.05 C4.83 261.13, 16.36 246.79, 24.24 239.06 C32.13 231.33, 43.05 217.41, 48.11 209.64 C53.16 201.87, 53.48 195.31, 54.56 192.44 M0 0 C0.15 9.95, 0.71 38.1, 0.9 59.71 C1.08 81.32, 1.28 104.83, 1.13 129.64 C0.98 154.45, 0.04 187.52, -0.02 208.59 C-0.07 229.65, -3.25 250.97, 0.79 256.05 C4.83 261.13, 16.36 246.79, 24.24 239.06 C32.13 231.33, 43.05 217.41, 48.11 209.64 C53.16 201.87, 53.48 195.31, 54.56 192.44" stroke="#E1E1E1" stroke-width="4" fill="none"></path></g></g><mask></mask><g stroke-linecap="round"><g transform="translate(474.7693808418992 246.53787168201285) rotate(0 -20.250151929353592 -113.95951966793928)"><path d="M0 0 C2.17 -6.46, 9.79 -24.89, 13.02 -38.78 C16.24 -52.68, 18.35 -66.95, 19.34 -83.35 C20.32 -99.75, 20.18 -118.41, 18.93 -137.19 C17.69 -155.97, 14.37 -180.92, 11.88 -196.04 C9.39 -211.16, 9.2 -225.28, 4.01 -227.92 C-1.19 -230.56, -9.34 -219.59, -19.3 -211.89 C-29.25 -204.2, -48.96 -188.19, -55.72 -181.75 C-62.48 -175.3, -59.15 -174.63, -59.84 -173.2 M0 0 C2.17 -6.46, 9.79 -24.89, 13.02 -38.78 C16.24 -52.68, 18.35 -66.95, 19.34 -83.35 C20.32 -99.75, 20.18 -118.41, 18.93 -137.19 C17.69 -155.97, 14.37 -180.92, 11.88 -196.04 C9.39 -211.16, 9.2 -225.28, 4.01 -227.92 C-1.19 -230.56, -9.34 -219.59, -19.3 -211.89 C-29.25 -204.2, -48.96 -188.19, -55.72 -181.75 C-62.48 -175.3, -59.15 -174.63, -59.84 -173.2" stroke="#E1E1E1" stroke-width="4" fill="none"></path></g></g><mask></mask><g stroke-linecap="round"><g transform="translate(465.1840006829118 71.38625445887334) rotate(0 -11.881279598263518 9.743223245435729)"><path d="M0 0 C-3.96 3.25, -19.8 16.24, -23.76 19.49 M0 0 C-3.96 3.25, -19.8 16.24, -23.76 19.49" stroke="#E1E1E1" stroke-width="4" fill="none"></path></g></g><mask></mask><g stroke-linecap="round"><g transform="translate(442.2951587729988 226.76443776123148) rotate(0 -0.011160622274246634 13.054739311672165)"><path d="M0 0 C0 4.35, -0.02 21.76, -0.02 26.11 M0 0 C0 4.35, -0.02 21.76, -0.02 26.11" stroke="#E1E1E1" stroke-width="4" fill="none"></path></g></g><mask></mask><g stroke-linecap="round"><g transform="translate(415.6659140265949 68.65668512551343) rotate(0 -112.12120574190624 -23.010014380319262)"><path d="M0 0 C-10.54 -2.44, -44.33 -10.7, -63.23 -14.65 C-82.13 -18.61, -94.56 -20.3, -113.4 -23.74 C-132.25 -27.18, -157.82 -31.6, -176.3 -35.32 C-194.77 -39.03, -216.25 -44.24, -224.24 -46.02 M0 0 C-10.54 -2.44, -44.33 -10.7, -63.23 -14.65 C-82.13 -18.61, -94.56 -20.3, -113.4 -23.74 C-132.25 -27.18, -157.82 -31.6, -176.3 -35.32 C-194.77 -39.03, -216.25 -44.24, -224.24 -46.02" stroke="#E1E1E1" stroke-width="4" fill="none"></path></g></g><mask></mask><g stroke-linecap="round"><g transform="translate(413.60279328046477 96.96321196227797) rotate(0 -184.3447812279153 -42.06597972632653)"><path d="M0 0 C-45.16 -4.91, -214.67 -23.1, -270.98 -29.44 C-327.29 -35.79, -321.59 -35.56, -337.88 -38.08 C-354.16 -40.59, -370.29 -36.93, -368.69 -44.52 C-367.09 -52.11, -344.7 -77, -328.3 -83.6 C-311.9 -90.2, -284.21 -85.23, -270.28 -84.13 C-256.35 -83.03, -248.96 -78.18, -244.7 -76.99 M0 0 C-45.16 -4.91, -214.67 -23.1, -270.98 -29.44 C-327.29 -35.79, -321.59 -35.56, -337.88 -38.08 C-354.16 -40.59, -370.29 -36.93, -368.69 -44.52 C-367.09 -52.11, -344.7 -77, -328.3 -83.6 C-311.9 -90.2, -284.21 -85.23, -270.28 -84.13 C-256.35 -83.03, -248.96 -78.18, -244.7 -76.99" stroke="#E1E1E1" stroke-width="4" fill="none"></path></g></g><mask></mask><g stroke-linecap="round"><g transform="translate(122.87618299292103 67.70161277202402) rotate(0 -23.44854585350538 8.042432618218527)"><path d="M0 0 C0.08 2.64, 1.52 12.08, 0.47 15.84 C-0.57 19.6, -1.91 21.39, -6.25 22.58 C-10.59 23.76, -19.84 22.86, -25.57 22.95 C-31.31 23.04, -37.14 24.34, -40.65 23.12 C-44.17 21.9, -45.54 20.65, -46.66 15.62 C-47.78 10.6, -47.25 -3.26, -47.37 -7.04 M0 0 C0.08 2.64, 1.52 12.08, 0.47 15.84 C-0.57 19.6, -1.91 21.39, -6.25 22.58 C-10.59 23.76, -19.84 22.86, -25.57 22.95 C-31.31 23.04, -37.14 24.34, -40.65 23.12 C-44.17 21.9, -45.54 20.65, -46.66 15.62 C-47.78 10.6, -47.25 -3.26, -47.37 -7.04" stroke="#E1E1E1" stroke-width="4" fill="none"></path></g></g><mask></mask><g stroke-linecap="round"><g transform="translate(63.444621132410475 360.6788227044617) rotate(0 35.77050525900381 12.711257111961004)"><path d="M0 0 C4.41 -4.49, 18.08 -18.68, 26.47 -26.94 C34.87 -35.2, 42.25 -45.38, 50.39 -49.56 C58.53 -53.74, 67.56 -53.66, 75.29 -52.04 C83.02 -50.42, 92.48 -46.01, 96.76 -39.83 C101.03 -33.65, 101.7 -22.47, 100.94 -14.96 C100.19 -7.44, 98.73 -2.72, 92.23 5.24 C85.74 13.21, 73.33 22.1, 61.97 32.83 C50.61 43.55, 34.19 62.15, 24.08 69.59 C13.97 77.03, 8.85 78.04, 1.32 77.46 C-6.21 76.89, -15.98 70.69, -21.1 66.13 C-26.22 61.57, -28.3 55.87, -29.4 50.12 C-30.5 44.37, -29.99 37.76, -27.7 31.62 C-25.42 25.48, -17.7 16.34, -15.69 13.28 M0 0 C4.41 -4.49, 18.08 -18.68, 26.47 -26.94 C34.87 -35.2, 42.25 -45.38, 50.39 -49.56 C58.53 -53.74, 67.56 -53.66, 75.29 -52.04 C83.02 -50.42, 92.48 -46.01, 96.76 -39.83 C101.03 -33.65, 101.7 -22.47, 100.94 -14.96 C100.19 -7.44, 98.73 -2.72, 92.23 5.24 C85.74 13.21, 73.33 22.1, 61.97 32.83 C50.61 43.55, 34.19 62.15, 24.08 69.59 C13.97 77.03, 8.85 78.04, 1.32 77.46 C-6.21 76.89, -15.98 70.69, -21.1 66.13 C-26.22 61.57, -28.3 55.87, -29.4 50.12 C-30.5 44.37, -29.99 37.76, -27.7 31.62 C-25.42 25.48, -17.7 16.34, -15.69 13.28" stroke="#E1E1E1" stroke-width="4" fill="none"></path></g></g><mask></mask><g stroke-linecap="round"><g transform="translate(108.24774917595664 381.2850373034871) rotate(0 -8.635081126645446 -8.277843231302995)"><path d="M0 0 C-2.88 -2.76, -14.39 -13.8, -17.27 -16.56 M0 0 C-2.88 -2.76, -14.39 -13.8, -17.27 -16.56" stroke="#E1E1E1" stroke-width="4" fill="none"></path></g></g><mask></mask><g stroke-linecap="round" transform="translate(52.650540725455585 387.044811369929) rotate(0 15.421685143545346 15.421685143545346)"><path d="M30.84 15.42 C30.84 16.31, 30.76 17.22, 30.61 18.1 C30.45 18.98, 30.22 19.86, 29.91 20.7 C29.61 21.54, 29.22 22.36, 28.78 23.13 C28.33 23.91, 27.81 24.65, 27.24 25.33 C26.66 26.02, 26.02 26.66, 25.33 27.24 C24.65 27.81, 23.91 28.33, 23.13 28.78 C22.36 29.22, 21.54 29.61, 20.7 29.91 C19.86 30.22, 18.98 30.45, 18.1 30.61 C17.22 30.76, 16.31 30.84, 15.42 30.84 C14.53 30.84, 13.62 30.76, 12.74 30.61 C11.86 30.45, 10.99 30.22, 10.15 29.91 C9.31 29.61, 8.48 29.22, 7.71 28.78 C6.94 28.33, 6.19 27.81, 5.51 27.24 C4.83 26.66, 4.18 26.02, 3.61 25.33 C3.03 24.65, 2.51 23.91, 2.07 23.13 C1.62 22.36, 1.24 21.54, 0.93 20.7 C0.62 19.86, 0.39 18.98, 0.23 18.1 C0.08 17.22, 0 16.31, 0 15.42 C0 14.53, 0.08 13.62, 0.23 12.74 C0.39 11.86, 0.62 10.99, 0.93 10.15 C1.24 9.31, 1.62 8.48, 2.07 7.71 C2.51 6.94, 3.03 6.19, 3.61 5.51 C4.18 4.83, 4.83 4.18, 5.51 3.61 C6.19 3.03, 6.94 2.51, 7.71 2.07 C8.48 1.62, 9.31 1.24, 10.15 0.93 C10.99 0.62, 11.86 0.39, 12.74 0.23 C13.62 0.08, 14.53 0, 15.42 0 C16.31 0, 17.22 0.08, 18.1 0.23 C18.98 0.39, 19.86 0.62, 20.7 0.93 C21.54 1.24, 22.36 1.62, 23.13 2.07 C23.91 2.51, 24.65 3.03, 25.33 3.61 C26.02 4.18, 26.66 4.83, 27.24 5.51 C27.81 6.19, 28.33 6.94, 28.78 7.71 C29.22 8.48, 29.61 9.31, 29.91 10.15 C30.22 10.99, 30.45 11.86, 30.61 12.74 C30.76 13.62, 30.8 14.98, 30.84 15.42 C30.88 15.87, 30.88 14.98, 30.84 15.42" stroke="#E1E1E1" stroke-width="4" fill="none"></path></g><g stroke-linecap="round" transform="translate(113.00359315702394 328.1976540664173) rotate(0 15.421685143545346 15.421685143545346)"><path d="M30.84 15.42 C30.84 16.31, 30.76 17.22, 30.61 18.1 C30.45 18.98, 30.22 19.86, 29.91 20.7 C29.61 21.54, 29.22 22.36, 28.78 23.13 C28.33 23.91, 27.81 24.65, 27.24 25.33 C26.66 26.02, 26.02 26.66, 25.33 27.24 C24.65 27.81, 23.91 28.33, 23.13 28.78 C22.36 29.22, 21.54 29.61, 20.7 29.91 C19.86 30.22, 18.98 30.45, 18.1 30.61 C17.22 30.76, 16.31 30.84, 15.42 30.84 C14.53 30.84, 13.62 30.76, 12.74 30.61 C11.86 30.45, 10.99 30.22, 10.15 29.91 C9.31 29.61, 8.48 29.22, 7.71 28.78 C6.94 28.33, 6.19 27.81, 5.51 27.24 C4.83 26.66, 4.18 26.02, 3.61 25.33 C3.03 24.65, 2.51 23.91, 2.07 23.13 C1.62 22.36, 1.24 21.54, 0.93 20.7 C0.62 19.86, 0.39 18.98, 0.23 18.1 C0.08 17.22, 0 16.31, 0 15.42 C0 14.53, 0.08 13.62, 0.23 12.74 C0.39 11.86, 0.62 10.99, 0.93 10.15 C1.24 9.31, 1.62 8.48, 2.07 7.71 C2.51 6.94, 3.03 6.19, 3.61 5.51 C4.18 4.83, 4.83 4.18, 5.51 3.61 C6.19 3.03, 6.94 2.51, 7.71 2.07 C8.48 1.62, 9.31 1.24, 10.15 0.93 C10.99 0.62, 11.86 0.39, 12.74 0.23 C13.62 0.08, 14.53 0, 15.42 0 C16.31 0, 17.22 0.08, 18.1 0.23 C18.98 0.39, 19.86 0.62, 20.7 0.93 C21.54 1.24, 22.36 1.62, 23.13 2.07 C23.91 2.51, 24.65 3.03, 25.33 3.61 C26.02 4.18, 26.66 4.83, 27.24 5.51 C27.81 6.19, 28.33 6.94, 28.78 7.71 C29.22 8.48, 29.61 9.31, 29.91 10.15 C30.22 10.99, 30.45 11.86, 30.61 12.74 C30.76 13.62, 30.8 14.98, 30.84 15.42 C30.88 15.87, 30.88 14.98, 30.84 15.42" stroke="#E1E1E1" stroke-width="4" fill="none"></path></g><g stroke-linecap="round"><g transform="translate(101.68922781531023 92.88230442064201) rotate(0 0 113.32135637019314)"><path d="M0 0 C0 37.77, 0 188.87, 0 226.64 M0 0 C0 37.77, 0 188.87, 0 226.64" stroke="#E1E1E1" stroke-width="4" fill="none"></path></g></g><mask></mask><g stroke-linecap="round"><g transform="translate(320.0639443541079 88.85732261878735) rotate(0 -54.892362254882485 14.871921611394527)"><path d="M0 0 C0.19 4.88, 3.55 22.33, 1.11 29.29 C-1.33 36.25, -4.46 39.56, -14.62 41.75 C-24.79 43.94, -46.44 42.27, -59.87 42.44 C-73.29 42.61, -86.94 45.01, -95.17 42.76 C-103.4 40.5, -106.61 38.18, -109.24 28.89 C-111.86 19.6, -110.62 -6.03, -110.9 -13.01 M0 0 C0.19 4.88, 3.55 22.33, 1.11 29.29 C-1.33 36.25, -4.46 39.56, -14.62 41.75 C-24.79 43.94, -46.44 42.27, -59.87 42.44 C-73.29 42.61, -86.94 45.01, -95.17 42.76 C-103.4 40.5, -106.61 38.18, -109.24 28.89 C-111.86 19.6, -110.62 -6.03, -110.9 -13.01" stroke="#E1E1E1" stroke-width="4" fill="none"></path></g></g><mask></mask><g stroke-linecap="round"><g transform="translate(243.7746467227846 110.6159599432736) rotate(0 22.761549900924138 0)"><path d="M0 0 C7.59 0, 37.94 0, 45.52 0 M0 0 C7.59 0, 37.94 0, 45.52 0" stroke="#E1E1E1" stroke-width="4" fill="none"></path></g></g><mask></mask><g stroke-linecap="round"><g transform="translate(242.22295186455472 133.29965030290538) rotate(0 -18.59285846066075 141.4121628739415)"><path d="M0 0 C-6.2 47.14, -30.99 235.69, -37.19 282.82 M0 0 C-6.2 47.14, -30.99 235.69, -37.19 282.82" stroke="#E1E1E1" stroke-width="4" fill="none"></path></g></g><mask></mask><g stroke-linecap="round"><g transform="translate(291.911995122857 132.53387881443) rotate(0 17.829834955993647 141.20698008277031)"><path d="M0 0 C5.94 47.07, 29.72 235.34, 35.66 282.41 M0 0 C5.94 47.07, 29.72 235.34, 35.66 282.41" stroke="#E1E1E1" stroke-width="4" fill="none"></path></g></g><mask></mask><g stroke-linecap="round"><g transform="translate(348.08906433996185 416.0238901247503) rotate(180 -82.95951591249005 21.42927289810332)"><path d="M0 0 C0.18 5.38, 4.78 25.15, 1.07 32.25 C-2.64 39.35, -7.2 40.78, -22.27 42.61 C-37.35 44.43, -69.47 43.04, -89.39 43.18 C-109.3 43.32, -129.55 45.32, -141.76 43.44 C-153.97 41.56, -158.42 39.26, -162.63 31.92 C-166.83 24.58, -166.26 4.83, -166.99 -0.58 M0 0 C0.18 5.38, 4.78 25.15, 1.07 32.25 C-2.64 39.35, -7.2 40.78, -22.27 42.61 C-37.35 44.43, -69.47 43.04, -89.39 43.18 C-109.3 43.32, -129.55 45.32, -141.76 43.44 C-153.97 41.56, -158.42 39.26, -162.63 31.92 C-166.83 24.58, -166.26 4.83, -166.99 -0.58" stroke="#E1E1E1" stroke-width="4" fill="none"></path></g></g><mask></mask><g stroke-linecap="round"><g transform="translate(377.45405654492083 459.9260902112487) rotate(180 -111.71621960133547 22.409387123785606)"><path d="M0 0 C0.08 5.73, 5.65 26.94, 0.47 34.39 C-4.7 41.85, -10.69 42.93, -31.05 44.75 C-51.41 46.57, -94.79 45.18, -121.68 45.32 C-148.57 45.46, -175.92 47.46, -192.4 45.58 C-208.89 43.71, -215.33 41.78, -220.58 34.06 C-225.83 26.33, -223.35 5.04, -223.91 -0.76 M0 0 C0.08 5.73, 5.65 26.94, 0.47 34.39 C-4.7 41.85, -10.69 42.93, -31.05 44.75 C-51.41 46.57, -94.79 45.18, -121.68 45.32 C-148.57 45.46, -175.92 47.46, -192.4 45.58 C-208.89 43.71, -215.33 41.78, -220.58 34.06 C-225.83 26.33, -223.35 5.04, -223.91 -0.76" stroke="#E1E1E1" stroke-width="4" fill="none"></path></g></g><mask></mask><g stroke-linecap="round"><g transform="translate(512.5805910595957 505.9152630477737) rotate(0 -251.29029552979785 0)"><path d="M0 0 C-83.76 0, -418.82 0, -502.58 0 M0 0 C-83.76 0, -418.82 0, -502.58 0" stroke="#E1E1E1" stroke-width="4" fill="none"></path></g></g><mask></mask><g stroke-linecap="round"><g transform="translate(53.335704688827036 436.6550790923343) rotate(0 -11.975713445397446 34.11255502677432)"><path d="M0 0 C-3.99 11.37, -19.96 56.85, -23.95 68.23 M0 0 C-3.99 11.37, -19.96 56.85, -23.95 68.23" stroke="#E1E1E1" stroke-width="4" fill="none"></path></g></g><mask></mask><g stroke-linecap="round"><g transform="translate(91.48138395455703 428.49539916487447) rotate(0 12.815680496753544 38.17682308224539)"><path d="M0 0 C4.27 12.73, 21.36 63.63, 25.63 76.35 M0 0 C4.27 12.73, 21.36 63.63, 25.63 76.35" stroke="#E1E1E1" stroke-width="4" fill="none"></path></g></g><mask></mask><g stroke-linecap="round"><g transform="translate(254.2334731048834 415.57621127792845) rotate(0 33.546470361847355 -18.30065618216281)"><path d="M0 0 C11.18 -6.1, 55.91 -30.5, 67.09 -36.6 M0 0 C11.18 -6.1, 55.91 -30.5, 67.09 -36.6" stroke="#E1E1E1" stroke-width="4" fill="none"></path></g></g><mask></mask><g stroke-linecap="round"><g transform="translate(322.1160011767463 379.5281596540817) rotate(0 -52.284055969851806 -21.261150740486528)"><path d="M0 0 C-17.43 -7.09, -87.14 -35.44, -104.57 -42.52 M0 0 C-17.43 -7.09, -87.14 -35.44, -104.57 -42.52" stroke="#E1E1E1" stroke-width="4" fill="none"></path></g></g><mask></mask><g stroke-linecap="round"><g transform="translate(216.71433414790977 336.76769957621354) rotate(0 47.560271799902694 -20.495379252009116)"><path d="M0 0 C15.85 -6.83, 79.27 -34.16, 95.12 -40.99 M0 0 C15.85 -6.83, 79.27 -34.16, 95.12 -40.99" stroke="#E1E1E1" stroke-width="4" fill="none"></path></g></g><mask></mask><g stroke-linecap="round"><g transform="translate(311.50145571206326 295.1962004936131) rotate(0 -41.763857949323324 -20.110661518563575)"><path d="M0 0 C-13.92 -6.7, -69.61 -33.52, -83.53 -40.22 M0 0 C-13.92 -6.7, -69.61 -33.52, -83.53 -40.22" stroke="#E1E1E1" stroke-width="4" fill="none"></path></g></g><mask></mask><g stroke-linecap="round"><g transform="translate(226.66020355208116 256.1400225920639) rotate(0 36.97961813554707 -20.393703851027112)"><path d="M0 0 C12.33 -6.8, 61.63 -33.99, 73.96 -40.79 M0 0 C12.33 -6.8, 61.63 -33.99, 73.96 -40.79" stroke="#E1E1E1" stroke-width="4" fill="none"></path></g></g><mask></mask><g stroke-linecap="round"><g transform="translate(300.84843847403704 214.15449394870762) rotate(0 -30.79024260009112 -19.73510373115255)"><path d="M0 0 C-10.26 -6.58, -51.32 -32.89, -61.58 -39.47 M0 0 C-10.26 -6.58, -51.32 -32.89, -61.58 -39.47" stroke="#E1E1E1" stroke-width="4" fill="none"></path></g></g><mask></mask><g stroke-linecap="round"><g transform="translate(239.1726898350937 173.80309967789168) rotate(0 23.82043966250285 -20.0089861175818)"><path d="M0 0 C7.94 -6.67, 39.7 -33.35, 47.64 -40.02 M0 0 C7.94 -6.67, 39.7 -33.35, 47.64 -40.02" stroke="#E1E1E1" stroke-width="4" fill="none"></path></g></g><mask></mask></svg>