<svg version="1.1" xmlns="http://www.w3.org/2000/svg" viewBox="0 0 654.0861717522221 672.0021380194901" width="654.0861717522221" height="672.0021380194901" class="excalidraw-svg"><!-- svg-source:excalidraw --><metadata></metadata><defs><style class="style-fonts">
      </style></defs><rect x="0" y="0" width="654.0861717522221" height="672.0021380194901" fill="#000000"></rect><g stroke-linecap="round"><g transform="translate(404.5119477764583 10) rotate(0 2.2240697093898234 59.697520830432836)"><path d="M0 0 C-20.15 22.05, -40.31 44.1, -58.25 63.73 M0 0 C-16.16 17.68, -32.32 35.36, -58.25 63.73 M-58.25 63.73 C-39.74 81.49, -21.22 99.25, -0.22 119.4 M-58.25 63.73 C-43.38 78, -28.5 92.27, -0.22 119.4 M-0.22 119.4 C21 98.81, 42.23 78.23, 62.7 58.37 M-0.22 119.4 C24.25 95.67, 48.71 71.94, 62.7 58.37 M62.7 58.37 C43.68 40.66, 24.65 22.95, 0 0 M62.7 58.37 C49.08 45.69, 35.46 33.01, 0 0" stroke="#E1E1E1" stroke-width="4" fill="none"></path></g></g><mask></mask><g stroke-linecap="round"><g transform="translate(287.09137500761517 60.20523636525013) rotate(0 148.19710732465137 77.01922303540076)"><path d="M0 0 C0.11 2.41, -0.19 8.77, 0.68 14.47 C1.55 20.17, 2.57 25.32, 5.23 34.18 C7.9 43.04, 12.34 57.69, 16.67 67.6 C21 77.52, 25.31 85.25, 31.21 93.66 C37.11 102.06, 44.14 110.66, 52.09 118.03 C60.04 125.4, 69.57 132.59, 78.92 137.9 C88.27 143.22, 99.29 147.23, 108.2 149.92 C117.11 152.61, 123.25 153.47, 132.38 154.04 C141.51 154.6, 151.97 154.6, 162.97 153.31 C173.98 152.02, 187.36 149.47, 198.4 146.33 C209.45 143.18, 218.31 139.29, 229.25 134.43 C240.18 129.58, 254.6 122.44, 264.01 117.2 C273.41 111.95, 280.28 107.29, 285.68 102.94 C291.08 98.59, 294.62 94.66, 296.39 91.08 C298.16 87.5, 297.2 84.85, 296.3 81.46 C295.4 78.07, 294.21 75.71, 291.01 70.76 C287.82 65.82, 281.85 57.89, 277.13 51.79 C272.41 45.69, 266.89 39.12, 262.7 34.17 C258.51 29.21, 254.61 23.74, 251.99 22.07 C249.36 20.4, 248.49 23.12, 246.95 24.14 C245.42 25.16, 246.68 24.95, 242.79 28.2 C238.89 31.45, 230.95 38.47, 223.57 43.64 C216.18 48.82, 206.61 54.78, 198.48 59.25 C190.35 63.72, 182.83 67.42, 174.8 70.44 C166.78 73.46, 159.68 75.7, 150.33 77.37 C140.98 79.04, 129.09 80.66, 118.71 80.47 C108.33 80.29, 97.68 79.14, 88.06 76.26 C78.44 73.38, 70.34 69.1, 60.99 63.22 C51.65 57.33, 39.98 48.2, 31.98 40.94 C23.98 33.68, 18.35 26.46, 13.02 19.64 C7.69 12.81, 2.17 3.27, 0 0 M0 0 C0.11 2.41, -0.19 8.77, 0.68 14.47 C1.55 20.17, 2.57 25.32, 5.23 34.18 C7.9 43.04, 12.34 57.69, 16.67 67.6 C21 77.52, 25.31 85.25, 31.21 93.66 C37.11 102.06, 44.14 110.66, 52.09 118.03 C60.04 125.4, 69.57 132.59, 78.92 137.9 C88.27 143.22, 99.29 147.23, 108.2 149.92 C117.11 152.61, 123.25 153.47, 132.38 154.04 C141.51 154.6, 151.97 154.6, 162.97 153.31 C173.98 152.02, 187.36 149.47, 198.4 146.33 C209.45 143.18, 218.31 139.29, 229.25 134.43 C240.18 129.58, 254.6 122.44, 264.01 117.2 C273.41 111.95, 280.28 107.29, 285.68 102.94 C291.08 98.59, 294.62 94.66, 296.39 91.08 C298.16 87.5, 297.2 84.85, 296.3 81.46 C295.4 78.07, 294.21 75.71, 291.01 70.76 C287.82 65.82, 281.85 57.89, 277.13 51.79 C272.41 45.69, 266.89 39.12, 262.7 34.17 C258.51 29.21, 254.61 23.74, 251.99 22.07 C249.36 20.4, 248.49 23.12, 246.95 24.14 C245.42 25.16, 246.68 24.95, 242.79 28.2 C238.89 31.45, 230.95 38.47, 223.57 43.64 C216.18 48.82, 206.61 54.78, 198.48 59.25 C190.35 63.72, 182.83 67.42, 174.8 70.44 C166.78 73.46, 159.68 75.7, 150.33 77.37 C140.98 79.04, 129.09 80.66, 118.71 80.47 C108.33 80.29, 97.68 79.14, 88.06 76.26 C78.44 73.38, 70.34 69.1, 60.99 63.22 C51.65 57.33, 39.98 48.2, 31.98 40.94 C23.98 33.68, 18.35 26.46, 13.02 19.64 C7.69 12.81, 2.17 3.27, 0 0" stroke="#E1E1E1" stroke-width="4" fill="none"></path></g></g><mask></mask><g stroke-linecap="round"><g transform="translate(115.0761642178104 274.71678860572774) rotate(0 211.93770281137677 128.38056066355705)"><path d="M0 0 C4.29 -2.2, 17.49 -9.35, 25.76 -13.19 C34.02 -17.04, 40.78 -19.79, 49.6 -23.05 C58.43 -26.31, 69.94 -30.22, 78.7 -32.76 C87.45 -35.29, 94.97 -37.06, 102.14 -38.26 C109.32 -39.45, 115.71 -40.05, 121.73 -39.93 C127.76 -39.81, 133 -39.21, 138.31 -37.56 C143.62 -35.91, 149.18 -33.2, 153.59 -30.02 C158.01 -26.84, 161.85 -22.58, 164.82 -18.5 C167.79 -14.41, 170.38 -10.19, 171.42 -5.5 C172.47 -0.82, 172.72 4.82, 171.08 9.61 C169.45 14.41, 165.51 19.26, 161.62 23.28 C157.73 27.3, 153.38 30.57, 147.75 33.74 C142.13 36.9, 135.24 40.27, 127.88 42.27 C120.53 44.27, 112.45 45.07, 103.61 45.75 C94.77 46.43, 83.31 46.43, 74.82 46.36 C66.34 46.29, 58.74 45.6, 52.7 45.34 C46.66 45.07, 41.28 44.21, 38.57 44.77 C35.87 45.33, 36.02 45.82, 36.46 48.7 C36.9 51.57, 39.83 57.63, 41.2 62.03 C42.58 66.42, 43.33 70.55, 44.72 75.06 C46.11 79.57, 47.23 83.45, 49.54 89.1 C51.85 94.75, 55.38 102.72, 58.57 108.96 C61.77 115.21, 65.88 121.84, 68.72 126.56 C71.56 131.27, 73.75 134.25, 75.61 137.26 C77.48 140.26, 78.11 143.43, 79.91 144.6 C81.71 145.78, 83.33 144.6, 86.4 144.29 C89.48 143.98, 93.61 143.05, 98.36 142.72 C103.11 142.39, 108.84 141.93, 114.91 142.31 C120.98 142.68, 129.07 143.39, 134.8 144.96 C140.53 146.53, 145.25 149.47, 149.3 151.7 C153.36 153.93, 155.75 155.04, 159.13 158.34 C162.5 161.64, 166.81 166.99, 169.54 171.49 C172.26 176, 173.9 180.82, 175.49 185.36 C177.07 189.9, 178.17 193, 179.03 198.74 C179.88 204.47, 180.42 214.33, 180.63 219.75 C180.83 225.17, 181.16 226.06, 180.26 231.25 C179.36 236.45, 177.43 245.44, 175.24 250.91 C173.04 256.37, 170.91 259.68, 167.09 264.04 C163.27 268.39, 158.44 273.23, 152.31 277.05 C146.19 280.86, 137.81 284.27, 130.36 286.95 C122.92 289.64, 116.28 291.93, 107.66 293.15 C99.04 294.38, 88.68 294.81, 78.65 294.31 C68.62 293.8, 58.05 292.21, 47.47 290.11 C36.88 288.01, 24.65 285.4, 15.14 281.72 C5.62 278.04, -1.76 274.01, -9.61 268.03 C-17.46 262.05, -25.7 252.8, -31.95 245.83 C-38.19 238.87, -42.53 233, -47.09 226.23 C-51.65 219.47, -55.15 213.84, -59.32 205.24 C-63.48 196.64, -68.24 185.13, -72.06 174.62 C-75.88 164.11, -78.86 154.17, -82.24 142.19 C-85.62 130.22, -89.47 113.7, -92.35 102.79 C-95.23 91.89, -97.89 78.82, -99.52 76.75 C-101.16 74.69, -101.36 84.58, -102.16 90.4 C-102.96 96.22, -103.88 103.89, -104.34 111.68 C-104.81 119.48, -105.32 127.53, -104.95 137.16 C-104.59 146.8, -103.75 158.48, -102.16 169.49 C-100.56 180.49, -97.82 192.67, -95.36 203.17 C-92.9 213.67, -90.44 222.22, -87.38 232.48 C-84.32 242.73, -81.44 254.26, -77 264.71 C-72.57 275.16, -66.87 285.51, -60.77 295.2 C-54.67 304.88, -47.8 314.4, -40.39 322.82 C-32.99 331.24, -25.25 338.43, -16.33 345.72 C-7.41 353.01, 5.14 361.56, 13.15 366.56 C21.16 371.55, 23.68 373.02, 31.72 375.69 C39.76 378.35, 50.33 380.69, 61.38 382.54 C72.44 384.39, 86.29 386.17, 98.06 386.77 C109.82 387.37, 121.12 387.76, 131.97 386.12 C142.82 384.49, 152.43 382.1, 163.15 376.96 C173.87 371.81, 187.11 362.76, 196.29 355.23 C205.47 347.7, 211.65 341.3, 218.23 331.79 C224.81 322.28, 231.39 308.99, 235.76 298.17 C240.13 287.36, 242.73 278.32, 244.46 266.9 C246.19 255.49, 246.52 240.57, 246.16 229.69 C245.81 218.81, 244.17 211.31, 242.32 201.64 C240.48 191.96, 237.68 179.92, 235.09 171.63 C232.5 163.34, 229.27 156.57, 226.78 151.9 C224.29 147.23, 220.11 145.2, 220.15 143.63 C220.19 142.05, 222.9 142.73, 227.05 142.47 C231.19 142.22, 237.76 142.57, 245 142.09 C252.23 141.61, 262.19 140.74, 270.45 139.59 C278.71 138.44, 287.21 137.39, 294.57 135.2 C301.93 133.02, 309.29 130.59, 314.6 126.47 C319.9 122.36, 322.84 116.18, 326.41 110.51 C329.97 104.84, 332.3 98.91, 335.99 92.47 C339.69 86.03, 343.84 79.03, 348.59 71.86 C353.34 64.69, 357.96 57.13, 364.52 49.43 C371.07 41.74, 381.23 31.8, 387.95 25.69 C394.66 19.58, 398.79 15.71, 404.82 12.76 C410.84 9.8, 418.3 8.49, 424.1 7.97 C429.9 7.46, 434.51 8.51, 439.61 9.65 C444.71 10.8, 450.12 12.35, 454.68 14.82 C459.24 17.29, 463.38 20.72, 466.95 24.47 C470.52 28.23, 473.39 31.83, 476.09 37.36 C478.8 42.9, 481.64 50.06, 483.2 57.67 C484.76 65.29, 484.93 74.07, 485.47 83.05 C486 92.02, 487.18 101.51, 486.4 111.52 C485.62 121.53, 483.16 134.27, 480.79 143.09 C478.42 151.91, 475.68 157.54, 472.18 164.45 C468.67 171.35, 464.34 178.33, 459.74 184.51 C455.15 190.69, 451.37 195.85, 444.58 201.52 C437.8 207.2, 427.33 214.22, 419.03 218.57 C410.73 222.92, 402.57 225.22, 394.78 227.64 C386.99 230.06, 380.66 232.65, 372.3 233.11 C363.94 233.57, 352.83 232.92, 344.62 230.42 C336.42 227.92, 329.4 223.6, 323.07 218.12 C316.74 212.63, 311.11 204.4, 306.66 197.52 C302.2 190.64, 298.85 182.68, 296.37 176.84 C293.88 171, 293.25 162.63, 291.73 162.48 C290.21 162.34, 288.97 170.84, 287.24 175.97 C285.5 181.11, 282.81 186.44, 281.32 193.29 C279.84 200.13, 278.82 209.06, 278.31 217.02 C277.81 224.98, 277.04 231.68, 278.28 241.03 C279.53 250.38, 282.51 264.61, 285.78 273.12 C289.06 281.64, 292.13 285.78, 297.94 292.11 C303.75 298.45, 313.36 306.27, 320.64 311.13 C327.92 315.99, 333.78 318.32, 341.64 321.29 C349.5 324.27, 358.85 327.64, 367.81 328.99 C376.76 330.33, 386.34 330.29, 395.35 329.37 C404.36 328.45, 413.16 326.35, 421.87 323.44 C430.58 320.54, 438.52 317.33, 447.63 311.95 C456.74 306.56, 467.99 298.81, 476.54 291.13 C485.1 283.44, 492.6 275.9, 498.96 265.84 C505.32 255.79, 510.7 241.5, 514.7 230.78 C518.69 220.07, 520.78 212.34, 522.92 201.55 C525.06 190.76, 526.56 177.89, 527.55 166.05 C528.53 154.21, 529.4 143.55, 528.83 130.52 C528.25 117.5, 526.54 100.88, 524.11 87.9 C521.69 74.93, 518.6 64.23, 514.28 52.69 C509.96 41.14, 503.95 29.2, 498.21 18.65 C492.47 8.09, 486.18 -2.85, 479.85 -10.66 C473.51 -18.48, 467.43 -22.89, 460.2 -28.25 C452.97 -33.61, 444.74 -39.32, 436.46 -42.8 C428.18 -46.28, 420.61 -48.02, 410.53 -49.11 C400.46 -50.21, 386.91 -50.1, 376 -49.39 C365.1 -48.68, 353.62 -47.32, 345.1 -44.86 C336.57 -42.39, 330.5 -38.5, 324.85 -34.59 C319.19 -30.67, 316.51 -27.37, 311.18 -21.38 C305.84 -15.38, 298.47 -6.44, 292.84 1.38 C287.21 9.2, 282.68 16.87, 277.39 25.53 C272.11 34.19, 266.56 43.73, 261.13 53.33 C255.7 62.94, 249.65 75.71, 244.8 83.16 C239.96 90.61, 236.3 94.49, 232.06 98.06 C227.82 101.63, 225.34 103.22, 219.35 104.58 C213.36 105.93, 204.07 106.52, 196.1 106.18 C188.14 105.83, 178.32 104.47, 171.56 102.5 C164.79 100.52, 159.51 96.67, 155.53 94.31 C151.55 91.94, 148.18 89.8, 147.67 88.3 C147.15 86.8, 149.18 87.57, 152.44 85.33 C155.71 83.09, 161.58 79.21, 167.24 74.85 C172.9 70.48, 180.35 65.01, 186.4 59.16 C192.45 53.31, 198.56 46.58, 203.53 39.73 C208.51 32.88, 213.07 25.48, 216.27 18.05 C219.48 10.63, 221.73 2.87, 222.78 -4.82 C223.84 -12.52, 223.88 -19.81, 222.58 -28.09 C221.28 -36.37, 218 -46, 214.98 -54.48 C211.97 -62.95, 208.57 -71.67, 204.48 -78.93 C200.38 -86.19, 195.41 -92.59, 190.41 -98.05 C185.41 -103.52, 180.96 -107.28, 174.47 -111.71 C167.98 -116.14, 159.83 -121.57, 151.48 -124.62 C143.13 -127.67, 134.74 -129.3, 124.36 -130.01 C113.97 -130.71, 102.95 -131.17, 89.18 -128.85 C75.41 -126.53, 56.29 -120.93, 41.75 -116.09 C27.21 -111.25, 13.12 -104.87, 1.94 -99.81 C-9.25 -94.76, -17.71 -89.7, -25.36 -85.77 C-33.01 -81.84, -41.04 -78.84, -43.97 -76.24 C-46.9 -73.64, -44.95 -73.94, -42.91 -70.16 C-40.87 -66.38, -36.5 -60.91, -31.74 -53.54 C-26.97 -46.17, -19.6 -34.86, -14.31 -25.93 C-9.02 -17.01, -2.39 -4.32, 0 0 M0 0 C4.29 -2.2, 17.49 -9.35, 25.76 -13.19 C34.02 -17.04, 40.78 -19.79, 49.6 -23.05 C58.43 -26.31, 69.94 -30.22, 78.7 -32.76 C87.45 -35.29, 94.97 -37.06, 102.14 -38.26 C109.32 -39.45, 115.71 -40.05, 121.73 -39.93 C127.76 -39.81, 133 -39.21, 138.31 -37.56 C143.62 -35.91, 149.18 -33.2, 153.59 -30.02 C158.01 -26.84, 161.85 -22.58, 164.82 -18.5 C167.79 -14.41, 170.38 -10.19, 171.42 -5.5 C172.47 -0.82, 172.72 4.82, 171.08 9.61 C169.45 14.41, 165.51 19.26, 161.62 23.28 C157.73 27.3, 153.38 30.57, 147.75 33.74 C142.13 36.9, 135.24 40.27, 127.88 42.27 C120.53 44.27, 112.45 45.07, 103.61 45.75 C94.77 46.43, 83.31 46.43, 74.82 46.36 C66.34 46.29, 58.74 45.6, 52.7 45.34 C46.66 45.07, 41.28 44.21, 38.57 44.77 C35.87 45.33, 36.02 45.82, 36.46 48.7 C36.9 51.57, 39.83 57.63, 41.2 62.03 C42.58 66.42, 43.33 70.55, 44.72 75.06 C46.11 79.57, 47.23 83.45, 49.54 89.1 C51.85 94.75, 55.38 102.72, 58.57 108.96 C61.77 115.21, 65.88 121.84, 68.72 126.56 C71.56 131.27, 73.75 134.25, 75.61 137.26 C77.48 140.26, 78.11 143.43, 79.91 144.6 C81.71 145.78, 83.33 144.6, 86.4 144.29 C89.48 143.98, 93.61 143.05, 98.36 142.72 C103.11 142.39, 108.84 141.93, 114.91 142.31 C120.98 142.68, 129.07 143.39, 134.8 144.96 C140.53 146.53, 145.25 149.47, 149.3 151.7 C153.36 153.93, 155.75 155.04, 159.13 158.34 C162.5 161.64, 166.81 166.99, 169.54 171.49 C172.26 176, 173.9 180.82, 175.49 185.36 C177.07 189.9, 178.17 193, 179.03 198.74 C179.88 204.47, 180.42 214.33, 180.63 219.75 C180.83 225.17, 181.16 226.06, 180.26 231.25 C179.36 236.45, 177.43 245.44, 175.24 250.91 C173.04 256.37, 170.91 259.68, 167.09 264.04 C163.27 268.39, 158.44 273.23, 152.31 277.05 C146.19 280.86, 137.81 284.27, 130.36 286.95 C122.92 289.64, 116.28 291.93, 107.66 293.15 C99.04 294.38, 88.68 294.81, 78.65 294.31 C68.62 293.8, 58.05 292.21, 47.47 290.11 C36.88 288.01, 24.65 285.4, 15.14 281.72 C5.62 278.04, -1.76 274.01, -9.61 268.03 C-17.46 262.05, -25.7 252.8, -31.95 245.83 C-38.19 238.87, -42.53 233, -47.09 226.23 C-51.65 219.47, -55.15 213.84, -59.32 205.24 C-63.48 196.64, -68.24 185.13, -72.06 174.62 C-75.88 164.11, -78.86 154.17, -82.24 142.19 C-85.62 130.22, -89.47 113.7, -92.35 102.79 C-95.23 91.89, -97.89 78.82, -99.52 76.75 C-101.16 74.69, -101.36 84.58, -102.16 90.4 C-102.96 96.22, -103.88 103.89, -104.34 111.68 C-104.81 119.48, -105.32 127.53, -104.95 137.16 C-104.59 146.8, -103.75 158.48, -102.16 169.49 C-100.56 180.49, -97.82 192.67, -95.36 203.17 C-92.9 213.67, -90.44 222.22, -87.38 232.48 C-84.32 242.73, -81.44 254.26, -77 264.71 C-72.57 275.16, -66.87 285.51, -60.77 295.2 C-54.67 304.88, -47.8 314.4, -40.39 322.82 C-32.99 331.24, -25.25 338.43, -16.33 345.72 C-7.41 353.01, 5.14 361.56, 13.15 366.56 C21.16 371.55, 23.68 373.02, 31.72 375.69 C39.76 378.35, 50.33 380.69, 61.38 382.54 C72.44 384.39, 86.29 386.17, 98.06 386.77 C109.82 387.37, 121.12 387.76, 131.97 386.12 C142.82 384.49, 152.43 382.1, 163.15 376.96 C173.87 371.81, 187.11 362.76, 196.29 355.23 C205.47 347.7, 211.65 341.3, 218.23 331.79 C224.81 322.28, 231.39 308.99, 235.76 298.17 C240.13 287.36, 242.73 278.32, 244.46 266.9 C246.19 255.49, 246.52 240.57, 246.16 229.69 C245.81 218.81, 244.17 211.31, 242.32 201.64 C240.48 191.96, 237.68 179.92, 235.09 171.63 C232.5 163.34, 229.27 156.57, 226.78 151.9 C224.29 147.23, 220.11 145.2, 220.15 143.63 C220.19 142.05, 222.9 142.73, 227.05 142.47 C231.19 142.22, 237.76 142.57, 245 142.09 C252.23 141.61, 262.19 140.74, 270.45 139.59 C278.71 138.44, 287.21 137.39, 294.57 135.2 C301.93 133.02, 309.29 130.59, 314.6 126.47 C319.9 122.36, 322.84 116.18, 326.41 110.51 C329.97 104.84, 332.3 98.91, 335.99 92.47 C339.69 86.03, 343.84 79.03, 348.59 71.86 C353.34 64.69, 357.96 57.13, 364.52 49.43 C371.07 41.74, 381.23 31.8, 387.95 25.69 C394.66 19.58, 398.79 15.71, 404.82 12.76 C410.84 9.8, 418.3 8.49, 424.1 7.97 C429.9 7.46, 434.51 8.51, 439.61 9.65 C444.71 10.8, 450.12 12.35, 454.68 14.82 C459.24 17.29, 463.38 20.72, 466.95 24.47 C470.52 28.23, 473.39 31.83, 476.09 37.36 C478.8 42.9, 481.64 50.06, 483.2 57.67 C484.76 65.29, 484.93 74.07, 485.47 83.05 C486 92.02, 487.18 101.51, 486.4 111.52 C485.62 121.53, 483.16 134.27, 480.79 143.09 C478.42 151.91, 475.68 157.54, 472.18 164.45 C468.67 171.35, 464.34 178.33, 459.74 184.51 C455.15 190.69, 451.37 195.85, 444.58 201.52 C437.8 207.2, 427.33 214.22, 419.03 218.57 C410.73 222.92, 402.57 225.22, 394.78 227.64 C386.99 230.06, 380.66 232.65, 372.3 233.11 C363.94 233.57, 352.83 232.92, 344.62 230.42 C336.42 227.92, 329.4 223.6, 323.07 218.12 C316.74 212.63, 311.11 204.4, 306.66 197.52 C302.2 190.64, 298.85 182.68, 296.37 176.84 C293.88 171, 293.25 162.63, 291.73 162.48 C290.21 162.34, 288.97 170.84, 287.24 175.97 C285.5 181.11, 282.81 186.44, 281.32 193.29 C279.84 200.13, 278.82 209.06, 278.31 217.02 C277.81 224.98, 277.04 231.68, 278.28 241.03 C279.53 250.38, 282.51 264.61, 285.78 273.12 C289.06 281.64, 292.13 285.78, 297.94 292.11 C303.75 298.45, 313.36 306.27, 320.64 311.13 C327.92 315.99, 333.78 318.32, 341.64 321.29 C349.5 324.27, 358.85 327.64, 367.81 328.99 C376.76 330.33, 386.34 330.29, 395.35 329.37 C404.36 328.45, 413.16 326.35, 421.87 323.44 C430.58 320.54, 438.52 317.33, 447.63 311.95 C456.74 306.56, 467.99 298.81, 476.54 291.13 C485.1 283.44, 492.6 275.9, 498.96 265.84 C505.32 255.79, 510.7 241.5, 514.7 230.78 C518.69 220.07, 520.78 212.34, 522.92 201.55 C525.06 190.76, 526.56 177.89, 527.55 166.05 C528.53 154.21, 529.4 143.55, 528.83 130.52 C528.25 117.5, 526.54 100.88, 524.11 87.9 C521.69 74.93, 518.6 64.23, 514.28 52.69 C509.96 41.14, 503.95 29.2, 498.21 18.65 C492.47 8.09, 486.18 -2.85, 479.85 -10.66 C473.51 -18.48, 467.43 -22.89, 460.2 -28.25 C452.97 -33.61, 444.74 -39.32, 436.46 -42.8 C428.18 -46.28, 420.61 -48.02, 410.53 -49.11 C400.46 -50.21, 386.91 -50.1, 376 -49.39 C365.1 -48.68, 353.62 -47.32, 345.1 -44.86 C336.57 -42.39, 330.5 -38.5, 324.85 -34.59 C319.19 -30.67, 316.51 -27.37, 311.18 -21.38 C305.84 -15.38, 298.47 -6.44, 292.84 1.38 C287.21 9.2, 282.68 16.87, 277.39 25.53 C272.11 34.19, 266.56 43.73, 261.13 53.33 C255.7 62.94, 249.65 75.71, 244.8 83.16 C239.96 90.61, 236.3 94.49, 232.06 98.06 C227.82 101.63, 225.34 103.22, 219.35 104.58 C213.36 105.93, 204.07 106.52, 196.1 106.18 C188.14 105.83, 178.32 104.47, 171.56 102.5 C164.79 100.52, 159.51 96.67, 155.53 94.31 C151.55 91.94, 148.18 89.8, 147.67 88.3 C147.15 86.8, 149.18 87.57, 152.44 85.33 C155.71 83.09, 161.58 79.21, 167.24 74.85 C172.9 70.48, 180.35 65.01, 186.4 59.16 C192.45 53.31, 198.56 46.58, 203.53 39.73 C208.51 32.88, 213.07 25.48, 216.27 18.05 C219.48 10.63, 221.73 2.87, 222.78 -4.82 C223.84 -12.52, 223.88 -19.81, 222.58 -28.09 C221.28 -36.37, 218 -46, 214.98 -54.48 C211.97 -62.95, 208.57 -71.67, 204.48 -78.93 C200.38 -86.19, 195.41 -92.59, 190.41 -98.05 C185.41 -103.52, 180.96 -107.28, 174.47 -111.71 C167.98 -116.14, 159.83 -121.57, 151.48 -124.62 C143.13 -127.67, 134.74 -129.3, 124.36 -130.01 C113.97 -130.71, 102.95 -131.17, 89.18 -128.85 C75.41 -126.53, 56.29 -120.93, 41.75 -116.09 C27.21 -111.25, 13.12 -104.87, 1.94 -99.81 C-9.25 -94.76, -17.71 -89.7, -25.36 -85.77 C-33.01 -81.84, -41.04 -78.84, -43.97 -76.24 C-46.9 -73.64, -44.95 -73.94, -42.91 -70.16 C-40.87 -66.38, -36.5 -60.91, -31.74 -53.54 C-26.97 -46.17, -19.6 -34.86, -14.31 -25.93 C-9.02 -17.01, -2.39 -4.32, 0 0" stroke="#E1E1E1" stroke-width="4" fill="none"></path></g></g><mask></mask></svg>