<svg version="1.1" xmlns="http://www.w3.org/2000/svg" viewBox="0 0 482.23529029567 482.23529029566816" width="482.23529029567" height="482.23529029566816" class="excalidraw-svg"><!-- svg-source:excalidraw --><metadata></metadata><defs><style class="style-fonts">
      </style></defs><rect x="0" y="0" width="482.23529029567" height="482.23529029566816" fill="#000000"></rect><g stroke-linecap="round" transform="translate(178.09370142715488 177.93092276108837) rotate(0 64.33249030682691 64.33249030682691)"><path d="M128.66 64.33 C128.66 66.92, 128.51 69.52, 128.2 72.09 C127.88 74.65, 127.41 77.22, 126.8 79.73 C126.18 82.24, 125.4 84.73, 124.48 87.15 C123.57 89.56, 122.5 91.94, 121.3 94.23 C120.09 96.52, 118.75 98.75, 117.28 100.88 C115.81 103, 114.2 105.06, 112.49 106.99 C110.77 108.93, 108.93 110.77, 106.99 112.49 C105.06 114.2, 103 115.81, 100.88 117.28 C98.75 118.75, 96.52 120.09, 94.23 121.3 C91.94 122.5, 89.56 123.57, 87.15 124.48 C84.73 125.4, 82.24 126.18, 79.73 126.8 C77.22 127.41, 74.65 127.88, 72.09 128.2 C69.52 128.51, 66.92 128.66, 64.33 128.66 C61.75 128.66, 59.14 128.51, 56.58 128.2 C54.01 127.88, 51.45 127.41, 48.94 126.8 C46.43 126.18, 43.94 125.4, 41.52 124.48 C39.1 123.57, 36.72 122.5, 34.44 121.3 C32.15 120.09, 29.91 118.75, 27.79 117.28 C25.66 115.81, 23.61 114.2, 21.67 112.49 C19.74 110.77, 17.89 108.93, 16.18 106.99 C14.46 105.06, 12.86 103, 11.39 100.88 C9.92 98.75, 8.57 96.52, 7.37 94.23 C6.17 91.94, 5.1 89.56, 4.18 87.15 C3.26 84.73, 2.49 82.24, 1.87 79.73 C1.25 77.22, 0.78 74.65, 0.47 72.09 C0.16 69.52, 0 66.92, 0 64.33 C0 61.75, 0.16 59.14, 0.47 56.58 C0.78 54.01, 1.25 51.45, 1.87 48.94 C2.49 46.43, 3.26 43.94, 4.18 41.52 C5.1 39.1, 6.17 36.72, 7.37 34.44 C8.57 32.15, 9.92 29.91, 11.39 27.79 C12.86 25.66, 14.46 23.61, 16.18 21.67 C17.89 19.74, 19.74 17.89, 21.67 16.18 C23.61 14.46, 25.66 12.86, 27.79 11.39 C29.91 9.92, 32.15 8.57, 34.44 7.37 C36.72 6.17, 39.1 5.1, 41.52 4.18 C43.94 3.26, 46.43 2.49, 48.94 1.87 C51.45 1.25, 54.01 0.78, 56.58 0.47 C59.14 0.16, 61.75 0, 64.33 0 C66.92 0, 69.52 0.16, 72.09 0.47 C74.65 0.78, 77.22 1.25, 79.73 1.87 C82.24 2.49, 84.73 3.26, 87.15 4.18 C89.56 5.1, 91.94 6.17, 94.23 7.37 C96.52 8.57, 98.75 9.92, 100.88 11.39 C103 12.86, 105.06 14.46, 106.99 16.18 C108.93 17.89, 110.77 19.74, 112.49 21.67 C114.2 23.61, 115.81 25.66, 117.28 27.79 C118.75 29.91, 120.09 32.15, 121.3 34.44 C122.5 36.72, 123.57 39.1, 124.48 41.52 C125.4 43.94, 126.18 46.43, 126.8 48.94 C127.41 51.45, 127.88 54.01, 128.2 56.58 C128.51 59.14, 128.66 61.75, 128.66 64.33" stroke="none" stroke-width="0" fill="#e1e1e1"></path><path d="M128.66 64.33 C128.66 66.92, 128.51 69.52, 128.2 72.09 C127.88 74.65, 127.41 77.22, 126.8 79.73 C126.18 82.24, 125.4 84.73, 124.48 87.15 C123.57 89.56, 122.5 91.94, 121.3 94.23 C120.09 96.52, 118.75 98.75, 117.28 100.88 C115.81 103, 114.2 105.06, 112.49 106.99 C110.77 108.93, 108.93 110.77, 106.99 112.49 C105.06 114.2, 103 115.81, 100.88 117.28 C98.75 118.75, 96.52 120.09, 94.23 121.3 C91.94 122.5, 89.56 123.57, 87.15 124.48 C84.73 125.4, 82.24 126.18, 79.73 126.8 C77.22 127.41, 74.65 127.88, 72.09 128.2 C69.52 128.51, 66.92 128.66, 64.33 128.66 C61.75 128.66, 59.14 128.51, 56.58 128.2 C54.01 127.88, 51.45 127.41, 48.94 126.8 C46.43 126.18, 43.94 125.4, 41.52 124.48 C39.1 123.57, 36.72 122.5, 34.44 121.3 C32.15 120.09, 29.91 118.75, 27.79 117.28 C25.66 115.81, 23.61 114.2, 21.67 112.49 C19.74 110.77, 17.89 108.93, 16.18 106.99 C14.46 105.06, 12.86 103, 11.39 100.88 C9.92 98.75, 8.57 96.52, 7.37 94.23 C6.17 91.94, 5.1 89.56, 4.18 87.15 C3.26 84.73, 2.49 82.24, 1.87 79.73 C1.25 77.22, 0.78 74.65, 0.47 72.09 C0.16 69.52, 0 66.92, 0 64.33 C0 61.75, 0.16 59.14, 0.47 56.58 C0.78 54.01, 1.25 51.45, 1.87 48.94 C2.49 46.43, 3.26 43.94, 4.18 41.52 C5.1 39.1, 6.17 36.72, 7.37 34.44 C8.57 32.15, 9.92 29.91, 11.39 27.79 C12.86 25.66, 14.46 23.61, 16.18 21.67 C17.89 19.74, 19.74 17.89, 21.67 16.18 C23.61 14.46, 25.66 12.86, 27.79 11.39 C29.91 9.92, 32.15 8.57, 34.44 7.37 C36.72 6.17, 39.1 5.1, 41.52 4.18 C43.94 3.26, 46.43 2.49, 48.94 1.87 C51.45 1.25, 54.01 0.78, 56.58 0.47 C59.14 0.16, 61.75 0, 64.33 0 C66.92 0, 69.52 0.16, 72.09 0.47 C74.65 0.78, 77.22 1.25, 79.73 1.87 C82.24 2.49, 84.73 3.26, 87.15 4.18 C89.56 5.1, 91.94 6.17, 94.23 7.37 C96.52 8.57, 98.75 9.92, 100.88 11.39 C103 12.86, 105.06 14.46, 106.99 16.18 C108.93 17.89, 110.77 19.74, 112.49 21.67 C114.2 23.61, 115.81 25.66, 117.28 27.79 C118.75 29.91, 120.09 32.15, 121.3 34.44 C122.5 36.72, 123.57 39.1, 124.48 41.52 C125.4 43.94, 126.18 46.43, 126.8 48.94 C127.41 51.45, 127.88 54.01, 128.2 56.58 C128.51 59.14, 128.66 61.75, 128.66 64.33" stroke="#E1E1E1" stroke-width="2" fill="none"></path></g><g stroke-opacity="0.8" fill-opacity="0.8" stroke-linecap="round" transform="translate(144.33635297227283 144.4175028415275) rotate(0 97.84363077417447 97.84363077417447)"><path d="M195.69 97.84 C195.69 101.04, 195.53 104.25, 195.22 107.43 C194.9 110.62, 194.43 113.8, 193.81 116.93 C193.18 120.07, 192.4 123.19, 191.47 126.25 C190.55 129.31, 189.46 132.33, 188.24 135.29 C187.02 138.24, 185.64 141.15, 184.13 143.97 C182.63 146.79, 180.97 149.54, 179.2 152.2 C177.42 154.86, 175.51 157.44, 173.48 159.91 C171.45 162.39, 169.29 164.77, 167.03 167.03 C164.77 169.29, 162.39 171.45, 159.91 173.48 C157.44 175.51, 154.86 177.42, 152.2 179.2 C149.54 180.97, 146.79 182.63, 143.97 184.13 C141.15 185.64, 138.24 187.02, 135.29 188.24 C132.33 189.46, 129.31 190.55, 126.25 191.47 C123.19 192.4, 120.07 193.18, 116.93 193.81 C113.8 194.43, 110.62 194.9, 107.43 195.22 C104.25 195.53, 101.04 195.69, 97.84 195.69 C94.65 195.69, 91.43 195.53, 88.25 195.22 C85.07 194.9, 81.89 194.43, 78.76 193.81 C75.62 193.18, 72.5 192.4, 69.44 191.47 C66.38 190.55, 63.35 189.46, 60.4 188.24 C57.45 187.02, 54.54 185.64, 51.72 184.13 C48.9 182.63, 46.14 180.97, 43.48 179.2 C40.83 177.42, 38.24 175.51, 35.77 173.48 C33.3 171.45, 30.92 169.29, 28.66 167.03 C26.4 164.77, 24.24 162.39, 22.21 159.91 C20.18 157.44, 18.27 154.86, 16.49 152.2 C14.71 149.54, 13.06 146.79, 11.55 143.97 C10.05 141.15, 8.67 138.24, 7.45 135.29 C6.22 132.33, 5.14 129.31, 4.21 126.25 C3.29 123.19, 2.5 120.07, 1.88 116.93 C1.26 113.8, 0.78 110.62, 0.47 107.43 C0.16 104.25, 0 101.04, 0 97.84 C0 94.65, 0.16 91.43, 0.47 88.25 C0.78 85.07, 1.26 81.89, 1.88 78.76 C2.5 75.62, 3.29 72.5, 4.21 69.44 C5.14 66.38, 6.22 63.35, 7.45 60.4 C8.67 57.45, 10.05 54.54, 11.55 51.72 C13.06 48.9, 14.71 46.14, 16.49 43.48 C18.27 40.83, 20.18 38.24, 22.21 35.77 C24.24 33.3, 26.4 30.92, 28.66 28.66 C30.92 26.4, 33.3 24.24, 35.77 22.21 C38.24 20.18, 40.83 18.27, 43.48 16.49 C46.14 14.71, 48.9 13.06, 51.72 11.55 C54.54 10.05, 57.45 8.67, 60.4 7.45 C63.35 6.22, 66.38 5.14, 69.44 4.21 C72.5 3.29, 75.62 2.5, 78.76 1.88 C81.89 1.26, 85.07 0.78, 88.25 0.47 C91.43 0.16, 94.65 0, 97.84 0 C101.04 0, 104.25 0.16, 107.43 0.47 C110.62 0.78, 113.8 1.26, 116.93 1.88 C120.07 2.5, 123.19 3.29, 126.25 4.21 C129.31 5.14, 132.33 6.22, 135.29 7.45 C138.24 8.67, 141.15 10.05, 143.97 11.55 C146.79 13.06, 149.54 14.71, 152.2 16.49 C154.86 18.27, 157.44 20.18, 159.91 22.21 C162.39 24.24, 164.77 26.4, 167.03 28.66 C169.29 30.92, 171.45 33.3, 173.48 35.77 C175.51 38.24, 177.42 40.83, 179.2 43.48 C180.97 46.14, 182.63 48.9, 184.13 51.72 C185.64 54.54, 187.02 57.45, 188.24 60.4 C189.46 63.35, 190.55 66.38, 191.47 69.44 C192.4 72.5, 193.18 75.62, 193.81 78.76 C194.43 81.89, 194.9 85.07, 195.22 88.25 C195.53 91.43, 195.61 96.25, 195.69 97.84 C195.77 99.44, 195.77 96.25, 195.69 97.84" stroke="none" stroke-width="0" fill="#e1e1e1"></path><path d="M195.69 97.84 C195.69 101.04, 195.53 104.25, 195.22 107.43 C194.9 110.62, 194.43 113.8, 193.81 116.93 C193.18 120.07, 192.4 123.19, 191.47 126.25 C190.55 129.31, 189.46 132.33, 188.24 135.29 C187.02 138.24, 185.64 141.15, 184.13 143.97 C182.63 146.79, 180.97 149.54, 179.2 152.2 C177.42 154.86, 175.51 157.44, 173.48 159.91 C171.45 162.39, 169.29 164.77, 167.03 167.03 C164.77 169.29, 162.39 171.45, 159.91 173.48 C157.44 175.51, 154.86 177.42, 152.2 179.2 C149.54 180.97, 146.79 182.63, 143.97 184.13 C141.15 185.64, 138.24 187.02, 135.29 188.24 C132.33 189.46, 129.31 190.55, 126.25 191.47 C123.19 192.4, 120.07 193.18, 116.93 193.81 C113.8 194.43, 110.62 194.9, 107.43 195.22 C104.25 195.53, 101.04 195.69, 97.84 195.69 C94.65 195.69, 91.43 195.53, 88.25 195.22 C85.07 194.9, 81.89 194.43, 78.76 193.81 C75.62 193.18, 72.5 192.4, 69.44 191.47 C66.38 190.55, 63.35 189.46, 60.4 188.24 C57.45 187.02, 54.54 185.64, 51.72 184.13 C48.9 182.63, 46.14 180.97, 43.48 179.2 C40.83 177.42, 38.24 175.51, 35.77 173.48 C33.3 171.45, 30.92 169.29, 28.66 167.03 C26.4 164.77, 24.24 162.39, 22.21 159.91 C20.18 157.44, 18.27 154.86, 16.49 152.2 C14.71 149.54, 13.06 146.79, 11.55 143.97 C10.05 141.15, 8.67 138.24, 7.45 135.29 C6.22 132.33, 5.14 129.31, 4.21 126.25 C3.29 123.19, 2.5 120.07, 1.88 116.93 C1.26 113.8, 0.78 110.62, 0.47 107.43 C0.16 104.25, 0 101.04, 0 97.84 C0 94.65, 0.16 91.43, 0.47 88.25 C0.78 85.07, 1.26 81.89, 1.88 78.76 C2.5 75.62, 3.29 72.5, 4.21 69.44 C5.14 66.38, 6.22 63.35, 7.45 60.4 C8.67 57.45, 10.05 54.54, 11.55 51.72 C13.06 48.9, 14.71 46.14, 16.49 43.48 C18.27 40.83, 20.18 38.24, 22.21 35.77 C24.24 33.3, 26.4 30.92, 28.66 28.66 C30.92 26.4, 33.3 24.24, 35.77 22.21 C38.24 20.18, 40.83 18.27, 43.48 16.49 C46.14 14.71, 48.9 13.06, 51.72 11.55 C54.54 10.05, 57.45 8.67, 60.4 7.45 C63.35 6.22, 66.38 5.14, 69.44 4.21 C72.5 3.29, 75.62 2.5, 78.76 1.88 C81.89 1.26, 85.07 0.78, 88.25 0.47 C91.43 0.16, 94.65 0, 97.84 0 C101.04 0, 104.25 0.16, 107.43 0.47 C110.62 0.78, 113.8 1.26, 116.93 1.88 C120.07 2.5, 123.19 3.29, 126.25 4.21 C129.31 5.14, 132.33 6.22, 135.29 7.45 C138.24 8.67, 141.15 10.05, 143.97 11.55 C146.79 13.06, 149.54 14.71, 152.2 16.49 C154.86 18.27, 157.44 20.18, 159.91 22.21 C162.39 24.24, 164.77 26.4, 167.03 28.66 C169.29 30.92, 171.45 33.3, 173.48 35.77 C175.51 38.24, 177.42 40.83, 179.2 43.48 C180.97 46.14, 182.63 48.9, 184.13 51.72 C185.64 54.54, 187.02 57.45, 188.24 60.4 C189.46 63.35, 190.55 66.38, 191.47 69.44 C192.4 72.5, 193.18 75.62, 193.81 78.76 C194.43 81.89, 194.9 85.07, 195.22 88.25 C195.53 91.43, 195.61 96.25, 195.69 97.84 C195.77 99.44, 195.77 96.25, 195.69 97.84" stroke="#E1E1E1" stroke-width="2" fill="none"></path></g><g stroke-opacity="0.8" fill-opacity="0.8" stroke-linecap="round" transform="translate(110.03883558034977 110.08162782374984) rotate(0 132.31157578686634 132.31157578686634)"><path d="M264.62 132.31 C264.62 135.95, 264.47 139.61, 264.17 143.24 C263.87 146.87, 263.42 150.5, 262.82 154.09 C262.22 157.68, 261.47 161.26, 260.57 164.79 C259.68 168.32, 258.64 171.83, 257.45 175.27 C256.27 178.72, 254.94 182.13, 253.48 185.46 C252.02 188.8, 250.41 192.08, 248.68 195.28 C246.94 198.49, 245.07 201.63, 243.08 204.68 C241.09 207.73, 238.96 210.7, 236.72 213.58 C234.49 216.45, 232.12 219.24, 229.66 221.92 C227.19 224.6, 224.6 227.19, 221.92 229.66 C219.24 232.12, 216.45 234.49, 213.58 236.72 C210.7 238.96, 207.73 241.09, 204.68 243.08 C201.63 245.07, 198.49 246.94, 195.28 248.68 C192.08 250.41, 188.8 252.02, 185.46 253.48 C182.13 254.94, 178.72 256.27, 175.27 257.45 C171.83 258.64, 168.32 259.68, 164.79 260.57 C161.26 261.47, 157.68 262.22, 154.09 262.82 C150.5 263.42, 146.87 263.87, 143.24 264.17 C139.61 264.47, 135.95 264.62, 132.31 264.62 C128.67 264.62, 125.02 264.47, 121.39 264.17 C117.76 263.87, 114.13 263.42, 110.53 262.82 C106.94 262.22, 103.36 261.47, 99.83 260.57 C96.3 259.68, 92.79 258.64, 89.35 257.45 C85.91 256.27, 82.5 254.94, 79.16 253.48 C75.83 252.02, 72.54 250.41, 69.34 248.68 C66.14 246.94, 62.99 245.07, 59.94 243.08 C56.89 241.09, 53.92 238.96, 51.04 236.72 C48.17 234.49, 45.38 232.12, 42.7 229.66 C40.02 227.19, 37.43 224.6, 34.97 221.92 C32.5 219.24, 30.14 216.45, 27.9 213.58 C25.66 210.7, 23.54 207.73, 21.54 204.68 C19.55 201.63, 17.68 198.49, 15.95 195.28 C14.21 192.08, 12.61 188.8, 11.14 185.46 C9.68 182.13, 8.35 178.72, 7.17 175.27 C5.99 171.83, 4.94 168.32, 4.05 164.79 C3.15 161.26, 2.4 157.68, 1.8 154.09 C1.21 150.5, 0.75 146.87, 0.45 143.24 C0.15 139.61, 0 135.95, 0 132.31 C0 128.67, 0.15 125.02, 0.45 121.39 C0.75 117.76, 1.21 114.13, 1.8 110.53 C2.4 106.94, 3.15 103.36, 4.05 99.83 C4.94 96.3, 5.99 92.79, 7.17 89.35 C8.35 85.91, 9.68 82.5, 11.14 79.16 C12.61 75.83, 14.21 72.54, 15.95 69.34 C17.68 66.14, 19.55 62.99, 21.54 59.94 C23.54 56.89, 25.66 53.92, 27.9 51.04 C30.14 48.17, 32.5 45.38, 34.97 42.7 C37.43 40.02, 40.02 37.43, 42.7 34.97 C45.38 32.5, 48.17 30.14, 51.04 27.9 C53.92 25.66, 56.89 23.54, 59.94 21.54 C62.99 19.55, 66.14 17.68, 69.34 15.95 C72.54 14.21, 75.83 12.61, 79.16 11.14 C82.5 9.68, 85.91 8.35, 89.35 7.17 C92.79 5.99, 96.3 4.94, 99.83 4.05 C103.36 3.15, 106.94 2.4, 110.53 1.8 C114.13 1.21, 117.76 0.75, 121.39 0.45 C125.02 0.15, 128.67 0, 132.31 0 C135.95 0, 139.61 0.15, 143.24 0.45 C146.87 0.75, 150.5 1.21, 154.09 1.8 C157.68 2.4, 161.26 3.15, 164.79 4.05 C168.32 4.94, 171.83 5.99, 175.27 7.17 C178.72 8.35, 182.13 9.68, 185.46 11.14 C188.8 12.61, 192.08 14.21, 195.28 15.95 C198.49 17.68, 201.63 19.55, 204.68 21.54 C207.73 23.54, 210.7 25.66, 213.58 27.9 C216.45 30.14, 219.24 32.5, 221.92 34.97 C224.6 37.43, 227.19 40.02, 229.66 42.7 C232.12 45.38, 234.49 48.17, 236.72 51.04 C238.96 53.92, 241.09 56.89, 243.08 59.94 C245.07 62.99, 246.94 66.14, 248.68 69.34 C250.41 72.54, 252.02 75.83, 253.48 79.16 C254.94 82.5, 256.27 85.91, 257.45 89.35 C258.64 92.79, 259.68 96.3, 260.57 99.83 C261.47 103.36, 262.22 106.94, 262.82 110.53 C263.42 114.13, 263.87 117.76, 264.17 121.39 C264.47 125.02, 264.62 128.67, 264.62 132.31" stroke="none" stroke-width="0" fill="#e1e1e1"></path><path d="M264.62 132.31 C264.62 135.95, 264.47 139.61, 264.17 143.24 C263.87 146.87, 263.42 150.5, 262.82 154.09 C262.22 157.68, 261.47 161.26, 260.57 164.79 C259.68 168.32, 258.64 171.83, 257.45 175.27 C256.27 178.72, 254.94 182.13, 253.48 185.46 C252.02 188.8, 250.41 192.08, 248.68 195.28 C246.94 198.49, 245.07 201.63, 243.08 204.68 C241.09 207.73, 238.96 210.7, 236.72 213.58 C234.49 216.45, 232.12 219.24, 229.66 221.92 C227.19 224.6, 224.6 227.19, 221.92 229.66 C219.24 232.12, 216.45 234.49, 213.58 236.72 C210.7 238.96, 207.73 241.09, 204.68 243.08 C201.63 245.07, 198.49 246.94, 195.28 248.68 C192.08 250.41, 188.8 252.02, 185.46 253.48 C182.13 254.94, 178.72 256.27, 175.27 257.45 C171.83 258.64, 168.32 259.68, 164.79 260.57 C161.26 261.47, 157.68 262.22, 154.09 262.82 C150.5 263.42, 146.87 263.87, 143.24 264.17 C139.61 264.47, 135.95 264.62, 132.31 264.62 C128.67 264.62, 125.02 264.47, 121.39 264.17 C117.76 263.87, 114.13 263.42, 110.53 262.82 C106.94 262.22, 103.36 261.47, 99.83 260.57 C96.3 259.68, 92.79 258.64, 89.35 257.45 C85.91 256.27, 82.5 254.94, 79.16 253.48 C75.83 252.02, 72.54 250.41, 69.34 248.68 C66.14 246.94, 62.99 245.07, 59.94 243.08 C56.89 241.09, 53.92 238.96, 51.04 236.72 C48.17 234.49, 45.38 232.12, 42.7 229.66 C40.02 227.19, 37.43 224.6, 34.97 221.92 C32.5 219.24, 30.14 216.45, 27.9 213.58 C25.66 210.7, 23.54 207.73, 21.54 204.68 C19.55 201.63, 17.68 198.49, 15.95 195.28 C14.21 192.08, 12.61 188.8, 11.14 185.46 C9.68 182.13, 8.35 178.72, 7.17 175.27 C5.99 171.83, 4.94 168.32, 4.05 164.79 C3.15 161.26, 2.4 157.68, 1.8 154.09 C1.21 150.5, 0.75 146.87, 0.45 143.24 C0.15 139.61, 0 135.95, 0 132.31 C0 128.67, 0.15 125.02, 0.45 121.39 C0.75 117.76, 1.21 114.13, 1.8 110.53 C2.4 106.94, 3.15 103.36, 4.05 99.83 C4.94 96.3, 5.99 92.79, 7.17 89.35 C8.35 85.91, 9.68 82.5, 11.14 79.16 C12.61 75.83, 14.21 72.54, 15.95 69.34 C17.68 66.14, 19.55 62.99, 21.54 59.94 C23.54 56.89, 25.66 53.92, 27.9 51.04 C30.14 48.17, 32.5 45.38, 34.97 42.7 C37.43 40.02, 40.02 37.43, 42.7 34.97 C45.38 32.5, 48.17 30.14, 51.04 27.9 C53.92 25.66, 56.89 23.54, 59.94 21.54 C62.99 19.55, 66.14 17.68, 69.34 15.95 C72.54 14.21, 75.83 12.61, 79.16 11.14 C82.5 9.68, 85.91 8.35, 89.35 7.17 C92.79 5.99, 96.3 4.94, 99.83 4.05 C103.36 3.15, 106.94 2.4, 110.53 1.8 C114.13 1.21, 117.76 0.75, 121.39 0.45 C125.02 0.15, 128.67 0, 132.31 0 C135.95 0, 139.61 0.15, 143.24 0.45 C146.87 0.75, 150.5 1.21, 154.09 1.8 C157.68 2.4, 161.26 3.15, 164.79 4.05 C168.32 4.94, 171.83 5.99, 175.27 7.17 C178.72 8.35, 182.13 9.68, 185.46 11.14 C188.8 12.61, 192.08 14.21, 195.28 15.95 C198.49 17.68, 201.63 19.55, 204.68 21.54 C207.73 23.54, 210.7 25.66, 213.58 27.9 C216.45 30.14, 219.24 32.5, 221.92 34.97 C224.6 37.43, 227.19 40.02, 229.66 42.7 C232.12 45.38, 234.49 48.17, 236.72 51.04 C238.96 53.92, 241.09 56.89, 243.08 59.94 C245.07 62.99, 246.94 66.14, 248.68 69.34 C250.41 72.54, 252.02 75.83, 253.48 79.16 C254.94 82.5, 256.27 85.91, 257.45 89.35 C258.64 92.79, 259.68 96.3, 260.57 99.83 C261.47 103.36, 262.22 106.94, 262.82 110.53 C263.42 114.13, 263.87 117.76, 264.17 121.39 C264.47 125.02, 264.62 128.67, 264.62 132.31" stroke="#E1E1E1" stroke-width="2" fill="none"></path></g><g stroke-opacity="0.7" fill-opacity="0.7" stroke-linecap="round" transform="translate(76.4318429497589 76.6727274004952) rotate(0 166.0523408467884 166.05234084678796)"><path d="M332.1 166.05 C332.1 170.19, 331.95 174.34, 331.64 178.46 C331.33 182.59, 330.87 186.71, 330.25 190.8 C329.63 194.89, 328.86 198.97, 327.94 203 C327.02 207.04, 325.95 211.04, 324.73 215 C323.51 218.95, 322.14 222.87, 320.63 226.72 C319.11 230.57, 317.46 234.37, 315.66 238.1 C313.87 241.83, 311.93 245.5, 309.86 249.08 C307.79 252.66, 305.58 256.18, 303.25 259.59 C300.92 263.01, 298.46 266.35, 295.88 269.58 C293.3 272.82, 290.59 275.96, 287.78 279 C284.96 282.03, 282.03 284.96, 279 287.78 C275.96 290.59, 272.82 293.3, 269.58 295.88 C266.35 298.46, 263.01 300.92, 259.59 303.25 C256.18 305.58, 252.66 307.79, 249.08 309.86 C245.5 311.93, 241.83 313.87, 238.1 315.66 C234.37 317.46, 230.57 319.11, 226.72 320.63 C222.87 322.14, 218.95 323.51, 215 324.73 C211.04 325.95, 207.04 327.02, 203 327.94 C198.97 328.86, 194.89 329.63, 190.8 330.25 C186.71 330.87, 182.59 331.33, 178.46 331.64 C174.34 331.95, 170.19 332.1, 166.05 332.1 C161.92 332.1, 157.77 331.95, 153.64 331.64 C149.52 331.33, 145.39 330.87, 141.3 330.25 C137.21 329.63, 133.13 328.86, 129.1 327.94 C125.07 327.02, 121.06 325.95, 117.11 324.73 C113.15 323.51, 109.24 322.14, 105.39 320.63 C101.54 319.11, 97.73 317.46, 94 315.66 C90.28 313.87, 86.61 311.93, 83.03 309.86 C79.44 307.79, 75.93 305.58, 72.51 303.25 C69.09 300.92, 65.75 298.46, 62.52 295.88 C59.29 293.3, 56.14 290.59, 53.11 287.78 C50.08 284.96, 47.14 282.03, 44.33 279 C41.51 275.96, 38.81 272.82, 36.23 269.58 C33.65 266.35, 31.18 263.01, 28.85 259.59 C26.52 256.18, 24.31 252.66, 22.25 249.08 C20.18 245.5, 18.24 241.83, 16.44 238.1 C14.65 234.37, 12.99 230.57, 11.48 226.72 C9.97 222.87, 8.6 218.95, 7.38 215 C6.16 211.04, 5.08 207.04, 4.16 203 C3.24 198.97, 2.47 194.89, 1.85 190.8 C1.24 186.71, 0.77 182.59, 0.46 178.46 C0.16 174.34, 0 170.19, 0 166.05 C0 161.92, 0.16 157.77, 0.46 153.64 C0.77 149.52, 1.24 145.39, 1.85 141.3 C2.47 137.21, 3.24 133.13, 4.16 129.1 C5.08 125.07, 6.16 121.06, 7.38 117.11 C8.6 113.15, 9.97 109.24, 11.48 105.39 C12.99 101.54, 14.65 97.73, 16.44 94 C18.24 90.28, 20.18 86.61, 22.25 83.03 C24.31 79.44, 26.52 75.93, 28.85 72.51 C31.18 69.09, 33.65 65.75, 36.23 62.52 C38.81 59.29, 41.51 56.14, 44.33 53.11 C47.14 50.08, 50.08 47.14, 53.11 44.33 C56.14 41.51, 59.29 38.81, 62.52 36.23 C65.75 33.65, 69.09 31.18, 72.51 28.85 C75.93 26.52, 79.44 24.31, 83.03 22.25 C86.61 20.18, 90.28 18.24, 94 16.44 C97.73 14.65, 101.54 12.99, 105.39 11.48 C109.24 9.97, 113.15 8.6, 117.11 7.38 C121.06 6.16, 125.07 5.08, 129.1 4.16 C133.13 3.24, 137.21 2.47, 141.3 1.85 C145.39 1.24, 149.52 0.77, 153.64 0.46 C157.77 0.16, 161.92 0, 166.05 0 C170.19 0, 174.34 0.16, 178.46 0.46 C182.59 0.77, 186.71 1.24, 190.8 1.85 C194.89 2.47, 198.97 3.24, 203 4.16 C207.04 5.08, 211.04 6.16, 215 7.38 C218.95 8.6, 222.87 9.97, 226.72 11.48 C230.57 12.99, 234.37 14.65, 238.1 16.44 C241.83 18.24, 245.5 20.18, 249.08 22.25 C252.66 24.31, 256.18 26.52, 259.59 28.85 C263.01 31.18, 266.35 33.65, 269.58 36.23 C272.82 38.81, 275.96 41.51, 279 44.33 C282.03 47.14, 284.96 50.08, 287.78 53.11 C290.59 56.14, 293.3 59.29, 295.88 62.52 C298.46 65.75, 300.92 69.09, 303.25 72.51 C305.58 75.93, 307.79 79.44, 309.86 83.03 C311.93 86.61, 313.87 90.28, 315.66 94 C317.46 97.73, 319.11 101.54, 320.63 105.39 C322.14 109.24, 323.51 113.15, 324.73 117.11 C325.95 121.06, 327.02 125.07, 327.94 129.1 C328.86 133.13, 329.63 137.21, 330.25 141.3 C330.87 145.39, 331.33 149.52, 331.64 153.64 C331.95 157.77, 332.1 161.92, 332.1 166.05" stroke="none" stroke-width="0" fill="#e1e1e1"></path><path d="M332.1 166.05 C332.1 170.19, 331.95 174.34, 331.64 178.46 C331.33 182.59, 330.87 186.71, 330.25 190.8 C329.63 194.89, 328.86 198.97, 327.94 203 C327.02 207.04, 325.95 211.04, 324.73 215 C323.51 218.95, 322.14 222.87, 320.63 226.72 C319.11 230.57, 317.46 234.37, 315.66 238.1 C313.87 241.83, 311.93 245.5, 309.86 249.08 C307.79 252.66, 305.58 256.18, 303.25 259.59 C300.92 263.01, 298.46 266.35, 295.88 269.58 C293.3 272.82, 290.59 275.96, 287.78 279 C284.96 282.03, 282.03 284.96, 279 287.78 C275.96 290.59, 272.82 293.3, 269.58 295.88 C266.35 298.46, 263.01 300.92, 259.59 303.25 C256.18 305.58, 252.66 307.79, 249.08 309.86 C245.5 311.93, 241.83 313.87, 238.1 315.66 C234.37 317.46, 230.57 319.11, 226.72 320.63 C222.87 322.14, 218.95 323.51, 215 324.73 C211.04 325.95, 207.04 327.02, 203 327.94 C198.97 328.86, 194.89 329.63, 190.8 330.25 C186.71 330.87, 182.59 331.33, 178.46 331.64 C174.34 331.95, 170.19 332.1, 166.05 332.1 C161.92 332.1, 157.77 331.95, 153.64 331.64 C149.52 331.33, 145.39 330.87, 141.3 330.25 C137.21 329.63, 133.13 328.86, 129.1 327.94 C125.07 327.02, 121.06 325.95, 117.11 324.73 C113.15 323.51, 109.24 322.14, 105.39 320.63 C101.54 319.11, 97.73 317.46, 94 315.66 C90.28 313.87, 86.61 311.93, 83.03 309.86 C79.44 307.79, 75.93 305.58, 72.51 303.25 C69.09 300.92, 65.75 298.46, 62.52 295.88 C59.29 293.3, 56.14 290.59, 53.11 287.78 C50.08 284.96, 47.14 282.03, 44.33 279 C41.51 275.96, 38.81 272.82, 36.23 269.58 C33.65 266.35, 31.18 263.01, 28.85 259.59 C26.52 256.18, 24.31 252.66, 22.25 249.08 C20.18 245.5, 18.24 241.83, 16.44 238.1 C14.65 234.37, 12.99 230.57, 11.48 226.72 C9.97 222.87, 8.6 218.95, 7.38 215 C6.16 211.04, 5.08 207.04, 4.16 203 C3.24 198.97, 2.47 194.89, 1.85 190.8 C1.24 186.71, 0.77 182.59, 0.46 178.46 C0.16 174.34, 0 170.19, 0 166.05 C0 161.92, 0.16 157.77, 0.46 153.64 C0.77 149.52, 1.24 145.39, 1.85 141.3 C2.47 137.21, 3.24 133.13, 4.16 129.1 C5.08 125.07, 6.16 121.06, 7.38 117.11 C8.6 113.15, 9.97 109.24, 11.48 105.39 C12.99 101.54, 14.65 97.73, 16.44 94 C18.24 90.28, 20.18 86.61, 22.25 83.03 C24.31 79.44, 26.52 75.93, 28.85 72.51 C31.18 69.09, 33.65 65.75, 36.23 62.52 C38.81 59.29, 41.51 56.14, 44.33 53.11 C47.14 50.08, 50.08 47.14, 53.11 44.33 C56.14 41.51, 59.29 38.81, 62.52 36.23 C65.75 33.65, 69.09 31.18, 72.51 28.85 C75.93 26.52, 79.44 24.31, 83.03 22.25 C86.61 20.18, 90.28 18.24, 94 16.44 C97.73 14.65, 101.54 12.99, 105.39 11.48 C109.24 9.97, 113.15 8.6, 117.11 7.38 C121.06 6.16, 125.07 5.08, 129.1 4.16 C133.13 3.24, 137.21 2.47, 141.3 1.85 C145.39 1.24, 149.52 0.77, 153.64 0.46 C157.77 0.16, 161.92 0, 166.05 0 C170.19 0, 174.34 0.16, 178.46 0.46 C182.59 0.77, 186.71 1.24, 190.8 1.85 C194.89 2.47, 198.97 3.24, 203 4.16 C207.04 5.08, 211.04 6.16, 215 7.38 C218.95 8.6, 222.87 9.97, 226.72 11.48 C230.57 12.99, 234.37 14.65, 238.1 16.44 C241.83 18.24, 245.5 20.18, 249.08 22.25 C252.66 24.31, 256.18 26.52, 259.59 28.85 C263.01 31.18, 266.35 33.65, 269.58 36.23 C272.82 38.81, 275.96 41.51, 279 44.33 C282.03 47.14, 284.96 50.08, 287.78 53.11 C290.59 56.14, 293.3 59.29, 295.88 62.52 C298.46 65.75, 300.92 69.09, 303.25 72.51 C305.58 75.93, 307.79 79.44, 309.86 83.03 C311.93 86.61, 313.87 90.28, 315.66 94 C317.46 97.73, 319.11 101.54, 320.63 105.39 C322.14 109.24, 323.51 113.15, 324.73 117.11 C325.95 121.06, 327.02 125.07, 327.94 129.1 C328.86 133.13, 329.63 137.21, 330.25 141.3 C330.87 145.39, 331.33 149.52, 331.64 153.64 C331.95 157.77, 332.1 161.92, 332.1 166.05" stroke="#E1E1E1" stroke-width="2" fill="none"></path></g><g stroke-opacity="0.5" fill-opacity="0.5" stroke-linecap="round" transform="translate(44.02293689410453 43.06681381362159) rotate(0 199.10450781441978 199.10450781441978)"><path d="M398.21 199.1 C398.21 203.63, 398.05 208.17, 397.74 212.69 C397.44 217.21, 396.97 221.73, 396.35 226.22 C395.74 230.7, 394.97 235.18, 394.04 239.61 C393.12 244.05, 392.05 248.46, 390.83 252.82 C389.6 257.18, 388.23 261.51, 386.71 265.78 C385.2 270.05, 383.53 274.27, 381.73 278.43 C379.92 282.58, 377.97 286.68, 375.89 290.71 C373.8 294.73, 371.58 298.69, 369.22 302.56 C366.87 306.43, 364.38 310.22, 361.77 313.92 C359.16 317.62, 356.41 321.24, 353.55 324.76 C350.69 328.27, 347.71 331.69, 344.62 335 C341.53 338.31, 338.31 341.53, 335 344.62 C331.69 347.71, 328.27 350.69, 324.76 353.55 C321.24 356.41, 317.62 359.16, 313.92 361.77 C310.22 364.38, 306.43 366.87, 302.56 369.22 C298.69 371.58, 294.73 373.8, 290.71 375.89 C286.68 377.97, 282.58 379.92, 278.43 381.73 C274.27 383.53, 270.05 385.2, 265.78 386.71 C261.51 388.23, 257.18 389.6, 252.82 390.83 C248.46 392.05, 244.05 393.12, 239.61 394.04 C235.18 394.97, 230.7 395.74, 226.22 396.35 C221.73 396.97, 217.21 397.44, 212.69 397.74 C208.17 398.05, 203.63 398.21, 199.1 398.21 C194.58 398.21, 190.04 398.05, 185.52 397.74 C181 397.44, 176.48 396.97, 171.99 396.35 C167.51 395.74, 163.03 394.97, 158.6 394.04 C154.16 393.12, 149.75 392.05, 145.39 390.83 C141.03 389.6, 136.7 388.23, 132.43 386.71 C128.16 385.2, 123.94 383.53, 119.78 381.73 C115.63 379.92, 111.52 377.97, 107.5 375.89 C103.48 373.8, 99.52 371.58, 95.65 369.22 C91.78 366.87, 87.99 364.38, 84.28 361.77 C80.58 359.16, 76.97 356.41, 73.45 353.55 C69.94 350.69, 66.52 347.71, 63.21 344.62 C59.9 341.53, 56.68 338.31, 53.59 335 C50.5 331.69, 47.52 328.27, 44.66 324.76 C41.8 321.24, 39.05 317.62, 36.44 313.92 C33.83 310.22, 31.34 306.43, 28.99 302.56 C26.63 298.69, 24.41 294.73, 22.32 290.71 C20.24 286.68, 18.29 282.58, 16.48 278.43 C14.68 274.27, 13.01 270.05, 11.5 265.78 C9.98 261.51, 8.61 257.18, 7.38 252.82 C6.16 248.46, 5.09 244.05, 4.16 239.61 C3.24 235.18, 2.47 230.7, 1.85 226.22 C1.24 221.73, 0.77 217.21, 0.46 212.69 C0.16 208.17, 0 203.63, 0 199.1 C0 194.58, 0.16 190.04, 0.46 185.52 C0.77 181, 1.24 176.48, 1.85 171.99 C2.47 167.51, 3.24 163.03, 4.16 158.6 C5.09 154.16, 6.16 149.75, 7.38 145.39 C8.61 141.03, 9.98 136.7, 11.5 132.43 C13.01 128.16, 14.68 123.94, 16.48 119.78 C18.29 115.63, 20.24 111.52, 22.32 107.5 C24.41 103.48, 26.63 99.52, 28.99 95.65 C31.34 91.78, 33.83 87.99, 36.44 84.28 C39.05 80.58, 41.8 76.97, 44.66 73.45 C47.52 69.94, 50.5 66.52, 53.59 63.21 C56.68 59.9, 59.9 56.68, 63.21 53.59 C66.52 50.5, 69.94 47.52, 73.45 44.66 C76.97 41.8, 80.58 39.05, 84.28 36.44 C87.99 33.83, 91.78 31.34, 95.65 28.99 C99.52 26.63, 103.48 24.41, 107.5 22.32 C111.52 20.24, 115.63 18.29, 119.78 16.48 C123.94 14.68, 128.16 13.01, 132.43 11.5 C136.7 9.98, 141.03 8.61, 145.39 7.38 C149.75 6.16, 154.16 5.09, 158.6 4.16 C163.03 3.24, 167.51 2.47, 171.99 1.85 C176.48 1.24, 181 0.77, 185.52 0.46 C190.04 0.16, 194.58 0, 199.1 0 C203.63 0, 208.17 0.16, 212.69 0.46 C217.21 0.77, 221.73 1.24, 226.22 1.85 C230.7 2.47, 235.18 3.24, 239.61 4.16 C244.05 5.09, 248.46 6.16, 252.82 7.38 C257.18 8.61, 261.51 9.98, 265.78 11.5 C270.05 13.01, 274.27 14.68, 278.43 16.48 C282.58 18.29, 286.68 20.24, 290.71 22.32 C294.73 24.41, 298.69 26.63, 302.56 28.99 C306.43 31.34, 310.22 33.83, 313.92 36.44 C317.62 39.05, 321.24 41.8, 324.76 44.66 C328.27 47.52, 331.69 50.5, 335 53.59 C338.31 56.68, 341.53 59.9, 344.62 63.21 C347.71 66.52, 350.69 69.94, 353.55 73.45 C356.41 76.97, 359.16 80.58, 361.77 84.28 C364.38 87.99, 366.87 91.78, 369.22 95.65 C371.58 99.52, 373.8 103.48, 375.89 107.5 C377.97 111.52, 379.92 115.63, 381.73 119.78 C383.53 123.94, 385.2 128.16, 386.71 132.43 C388.23 136.7, 389.6 141.03, 390.83 145.39 C392.05 149.75, 393.12 154.16, 394.04 158.6 C394.97 163.03, 395.74 167.51, 396.35 171.99 C396.97 176.48, 397.44 181, 397.74 185.52 C398.05 190.04, 398.21 194.58, 398.21 199.1" stroke="none" stroke-width="0" fill="#e1e1e1"></path><path d="M398.21 199.1 C398.21 203.63, 398.05 208.17, 397.74 212.69 C397.44 217.21, 396.97 221.73, 396.35 226.22 C395.74 230.7, 394.97 235.18, 394.04 239.61 C393.12 244.05, 392.05 248.46, 390.83 252.82 C389.6 257.18, 388.23 261.51, 386.71 265.78 C385.2 270.05, 383.53 274.27, 381.73 278.43 C379.92 282.58, 377.97 286.68, 375.89 290.71 C373.8 294.73, 371.58 298.69, 369.22 302.56 C366.87 306.43, 364.38 310.22, 361.77 313.92 C359.16 317.62, 356.41 321.24, 353.55 324.76 C350.69 328.27, 347.71 331.69, 344.62 335 C341.53 338.31, 338.31 341.53, 335 344.62 C331.69 347.71, 328.27 350.69, 324.76 353.55 C321.24 356.41, 317.62 359.16, 313.92 361.77 C310.22 364.38, 306.43 366.87, 302.56 369.22 C298.69 371.58, 294.73 373.8, 290.71 375.89 C286.68 377.97, 282.58 379.92, 278.43 381.73 C274.27 383.53, 270.05 385.2, 265.78 386.71 C261.51 388.23, 257.18 389.6, 252.82 390.83 C248.46 392.05, 244.05 393.12, 239.61 394.04 C235.18 394.97, 230.7 395.74, 226.22 396.35 C221.73 396.97, 217.21 397.44, 212.69 397.74 C208.17 398.05, 203.63 398.21, 199.1 398.21 C194.58 398.21, 190.04 398.05, 185.52 397.74 C181 397.44, 176.48 396.97, 171.99 396.35 C167.51 395.74, 163.03 394.97, 158.6 394.04 C154.16 393.12, 149.75 392.05, 145.39 390.83 C141.03 389.6, 136.7 388.23, 132.43 386.71 C128.16 385.2, 123.94 383.53, 119.78 381.73 C115.63 379.92, 111.52 377.97, 107.5 375.89 C103.48 373.8, 99.52 371.58, 95.65 369.22 C91.78 366.87, 87.99 364.38, 84.28 361.77 C80.58 359.16, 76.97 356.41, 73.45 353.55 C69.94 350.69, 66.52 347.71, 63.21 344.62 C59.9 341.53, 56.68 338.31, 53.59 335 C50.5 331.69, 47.52 328.27, 44.66 324.76 C41.8 321.24, 39.05 317.62, 36.44 313.92 C33.83 310.22, 31.34 306.43, 28.99 302.56 C26.63 298.69, 24.41 294.73, 22.32 290.71 C20.24 286.68, 18.29 282.58, 16.48 278.43 C14.68 274.27, 13.01 270.05, 11.5 265.78 C9.98 261.51, 8.61 257.18, 7.38 252.82 C6.16 248.46, 5.09 244.05, 4.16 239.61 C3.24 235.18, 2.47 230.7, 1.85 226.22 C1.24 221.73, 0.77 217.21, 0.46 212.69 C0.16 208.17, 0 203.63, 0 199.1 C0 194.58, 0.16 190.04, 0.46 185.52 C0.77 181, 1.24 176.48, 1.85 171.99 C2.47 167.51, 3.24 163.03, 4.16 158.6 C5.09 154.16, 6.16 149.75, 7.38 145.39 C8.61 141.03, 9.98 136.7, 11.5 132.43 C13.01 128.16, 14.68 123.94, 16.48 119.78 C18.29 115.63, 20.24 111.52, 22.32 107.5 C24.41 103.48, 26.63 99.52, 28.99 95.65 C31.34 91.78, 33.83 87.99, 36.44 84.28 C39.05 80.58, 41.8 76.97, 44.66 73.45 C47.52 69.94, 50.5 66.52, 53.59 63.21 C56.68 59.9, 59.9 56.68, 63.21 53.59 C66.52 50.5, 69.94 47.52, 73.45 44.66 C76.97 41.8, 80.58 39.05, 84.28 36.44 C87.99 33.83, 91.78 31.34, 95.65 28.99 C99.52 26.63, 103.48 24.41, 107.5 22.32 C111.52 20.24, 115.63 18.29, 119.78 16.48 C123.94 14.68, 128.16 13.01, 132.43 11.5 C136.7 9.98, 141.03 8.61, 145.39 7.38 C149.75 6.16, 154.16 5.09, 158.6 4.16 C163.03 3.24, 167.51 2.47, 171.99 1.85 C176.48 1.24, 181 0.77, 185.52 0.46 C190.04 0.16, 194.58 0, 199.1 0 C203.63 0, 208.17 0.16, 212.69 0.46 C217.21 0.77, 221.73 1.24, 226.22 1.85 C230.7 2.47, 235.18 3.24, 239.61 4.16 C244.05 5.09, 248.46 6.16, 252.82 7.38 C257.18 8.61, 261.51 9.98, 265.78 11.5 C270.05 13.01, 274.27 14.68, 278.43 16.48 C282.58 18.29, 286.68 20.24, 290.71 22.32 C294.73 24.41, 298.69 26.63, 302.56 28.99 C306.43 31.34, 310.22 33.83, 313.92 36.44 C317.62 39.05, 321.24 41.8, 324.76 44.66 C328.27 47.52, 331.69 50.5, 335 53.59 C338.31 56.68, 341.53 59.9, 344.62 63.21 C347.71 66.52, 350.69 69.94, 353.55 73.45 C356.41 76.97, 359.16 80.58, 361.77 84.28 C364.38 87.99, 366.87 91.78, 369.22 95.65 C371.58 99.52, 373.8 103.48, 375.89 107.5 C377.97 111.52, 379.92 115.63, 381.73 119.78 C383.53 123.94, 385.2 128.16, 386.71 132.43 C388.23 136.7, 389.6 141.03, 390.83 145.39 C392.05 149.75, 393.12 154.16, 394.04 158.6 C394.97 163.03, 395.74 167.51, 396.35 171.99 C396.97 176.48, 397.44 181, 397.74 185.52 C398.05 190.04, 398.21 194.58, 398.21 199.1" stroke="#E1E1E1" stroke-width="2" fill="none"></path></g><g stroke-opacity="0.5" fill-opacity="0.5" stroke-linecap="round" transform="translate(10 9.99999999999909) rotate(0 231.11764514783454 231.11764514783454)"><path d="M462.24 231.12 C462.24 235.95, 462.08 240.8, 461.78 245.63 C461.48 250.46, 461.02 255.29, 460.41 260.08 C459.81 264.88, 459.05 269.67, 458.14 274.42 C457.24 279.18, 456.18 283.91, 454.97 288.59 C453.77 293.28, 452.42 297.94, 450.92 302.54 C449.43 307.14, 447.79 311.7, 446.01 316.2 C444.22 320.7, 442.3 325.15, 440.24 329.52 C438.18 333.9, 435.98 338.22, 433.65 342.46 C431.32 346.7, 428.85 350.87, 426.26 354.96 C423.66 359.04, 420.94 363.05, 418.1 366.97 C415.25 370.88, 412.28 374.71, 409.2 378.44 C406.11 382.16, 402.91 385.8, 399.6 389.33 C396.28 392.85, 392.85 396.28, 389.33 399.6 C385.8 402.91, 382.16 406.11, 378.44 409.2 C374.71 412.28, 370.88 415.25, 366.97 418.1 C363.05 420.94, 359.04 423.66, 354.96 426.26 C350.87 428.85, 346.7 431.32, 342.46 433.65 C338.22 435.98, 333.9 438.18, 329.52 440.24 C325.15 442.3, 320.7 444.22, 316.2 446.01 C311.7 447.79, 307.14 449.43, 302.54 450.92 C297.94 452.42, 293.28 453.77, 288.59 454.97 C283.91 456.18, 279.18 457.24, 274.42 458.14 C269.67 459.05, 264.88 459.81, 260.08 460.41 C255.29 461.02, 250.46 461.48, 245.63 461.78 C240.8 462.08, 235.95 462.24, 231.12 462.24 C226.28 462.24, 221.43 462.08, 216.61 461.78 C211.78 461.48, 206.95 461.02, 202.15 460.41 C197.35 459.81, 192.56 459.05, 187.81 458.14 C183.06 457.24, 178.33 456.18, 173.64 454.97 C168.96 453.77, 164.3 452.42, 159.7 450.92 C155.1 449.43, 150.54 447.79, 146.04 446.01 C141.54 444.22, 137.09 442.3, 132.71 440.24 C128.34 438.18, 124.01 435.98, 119.78 433.65 C115.54 431.32, 111.36 428.85, 107.28 426.26 C103.19 423.66, 99.18 420.94, 95.27 418.1 C91.36 415.25, 87.52 412.28, 83.8 409.2 C80.07 406.11, 76.43 402.91, 72.91 399.6 C69.38 396.28, 65.95 392.85, 62.64 389.33 C59.33 385.8, 56.12 382.16, 53.04 378.44 C49.96 374.71, 46.98 370.88, 44.14 366.97 C41.3 363.05, 38.57 359.04, 35.98 354.96 C33.39 350.87, 30.92 346.7, 28.59 342.46 C26.26 338.22, 24.06 333.9, 22 329.52 C19.94 325.15, 18.01 320.7, 16.23 316.2 C14.45 311.7, 12.81 307.14, 11.31 302.54 C9.82 297.94, 8.46 293.28, 7.26 288.59 C6.06 283.91, 5 279.18, 4.09 274.42 C3.19 269.67, 2.43 264.88, 1.82 260.08 C1.22 255.29, 0.76 250.46, 0.46 245.63 C0.15 240.8, 0 235.95, 0 231.12 C0 226.28, 0.15 221.43, 0.46 216.61 C0.76 211.78, 1.22 206.95, 1.82 202.15 C2.43 197.35, 3.19 192.56, 4.09 187.81 C5 183.06, 6.06 178.33, 7.26 173.64 C8.46 168.96, 9.82 164.3, 11.31 159.7 C12.81 155.1, 14.45 150.54, 16.23 146.04 C18.01 141.54, 19.94 137.09, 22 132.71 C24.06 128.34, 26.26 124.01, 28.59 119.78 C30.92 115.54, 33.39 111.36, 35.98 107.28 C38.57 103.19, 41.3 99.18, 44.14 95.27 C46.98 91.36, 49.96 87.52, 53.04 83.8 C56.12 80.07, 59.33 76.43, 62.64 72.91 C65.95 69.38, 69.38 65.95, 72.91 62.64 C76.43 59.33, 80.07 56.12, 83.8 53.04 C87.52 49.96, 91.36 46.98, 95.27 44.14 C99.18 41.3, 103.19 38.57, 107.28 35.98 C111.36 33.39, 115.54 30.92, 119.78 28.59 C124.01 26.26, 128.34 24.06, 132.71 22 C137.09 19.94, 141.54 18.01, 146.04 16.23 C150.54 14.45, 155.1 12.81, 159.7 11.31 C164.3 9.82, 168.96 8.46, 173.64 7.26 C178.33 6.06, 183.06 5, 187.81 4.09 C192.56 3.19, 197.35 2.43, 202.15 1.82 C206.95 1.22, 211.78 0.76, 216.61 0.46 C221.43 0.15, 226.28 0, 231.12 0 C235.95 0, 240.8 0.15, 245.63 0.46 C250.46 0.76, 255.29 1.22, 260.08 1.82 C264.88 2.43, 269.67 3.19, 274.42 4.09 C279.18 5, 283.91 6.06, 288.59 7.26 C293.28 8.46, 297.94 9.82, 302.54 11.31 C307.14 12.81, 311.7 14.45, 316.2 16.23 C320.7 18.01, 325.15 19.94, 329.52 22 C333.9 24.06, 338.22 26.26, 342.46 28.59 C346.7 30.92, 350.87 33.39, 354.96 35.98 C359.04 38.57, 363.05 41.3, 366.97 44.14 C370.88 46.98, 374.71 49.96, 378.44 53.04 C382.16 56.12, 385.8 59.33, 389.33 62.64 C392.85 65.95, 396.28 69.38, 399.6 72.91 C402.91 76.43, 406.11 80.07, 409.2 83.8 C412.28 87.52, 415.25 91.36, 418.1 95.27 C420.94 99.18, 423.66 103.19, 426.26 107.28 C428.85 111.36, 431.32 115.54, 433.65 119.78 C435.98 124.01, 438.18 128.34, 440.24 132.71 C442.3 137.09, 444.22 141.54, 446.01 146.04 C447.79 150.54, 449.43 155.1, 450.92 159.7 C452.42 164.3, 453.77 168.96, 454.97 173.64 C456.18 178.33, 457.24 183.06, 458.14 187.81 C459.05 192.56, 459.81 197.35, 460.41 202.15 C461.02 206.95, 461.48 211.78, 461.78 216.61 C462.08 221.43, 462.16 228.7, 462.24 231.12 C462.31 233.54, 462.31 228.7, 462.24 231.12" stroke="none" stroke-width="0" fill="#e1e1e1"></path><path d="M462.24 231.12 C462.24 235.95, 462.08 240.8, 461.78 245.63 C461.48 250.46, 461.02 255.29, 460.41 260.08 C459.81 264.88, 459.05 269.67, 458.14 274.42 C457.24 279.18, 456.18 283.91, 454.97 288.59 C453.77 293.28, 452.42 297.94, 450.92 302.54 C449.43 307.14, 447.79 311.7, 446.01 316.2 C444.22 320.7, 442.3 325.15, 440.24 329.52 C438.18 333.9, 435.98 338.22, 433.65 342.46 C431.32 346.7, 428.85 350.87, 426.26 354.96 C423.66 359.04, 420.94 363.05, 418.1 366.97 C415.25 370.88, 412.28 374.71, 409.2 378.44 C406.11 382.16, 402.91 385.8, 399.6 389.33 C396.28 392.85, 392.85 396.28, 389.33 399.6 C385.8 402.91, 382.16 406.11, 378.44 409.2 C374.71 412.28, 370.88 415.25, 366.97 418.1 C363.05 420.94, 359.04 423.66, 354.96 426.26 C350.87 428.85, 346.7 431.32, 342.46 433.65 C338.22 435.98, 333.9 438.18, 329.52 440.24 C325.15 442.3, 320.7 444.22, 316.2 446.01 C311.7 447.79, 307.14 449.43, 302.54 450.92 C297.94 452.42, 293.28 453.77, 288.59 454.97 C283.91 456.18, 279.18 457.24, 274.42 458.14 C269.67 459.05, 264.88 459.81, 260.08 460.41 C255.29 461.02, 250.46 461.48, 245.63 461.78 C240.8 462.08, 235.95 462.24, 231.12 462.24 C226.28 462.24, 221.43 462.08, 216.61 461.78 C211.78 461.48, 206.95 461.02, 202.15 460.41 C197.35 459.81, 192.56 459.05, 187.81 458.14 C183.06 457.24, 178.33 456.18, 173.64 454.97 C168.96 453.77, 164.3 452.42, 159.7 450.92 C155.1 449.43, 150.54 447.79, 146.04 446.01 C141.54 444.22, 137.09 442.3, 132.71 440.24 C128.34 438.18, 124.01 435.98, 119.78 433.65 C115.54 431.32, 111.36 428.85, 107.28 426.26 C103.19 423.66, 99.18 420.94, 95.27 418.1 C91.36 415.25, 87.52 412.28, 83.8 409.2 C80.07 406.11, 76.43 402.91, 72.91 399.6 C69.38 396.28, 65.95 392.85, 62.64 389.33 C59.33 385.8, 56.12 382.16, 53.04 378.44 C49.96 374.71, 46.98 370.88, 44.14 366.97 C41.3 363.05, 38.57 359.04, 35.98 354.96 C33.39 350.87, 30.92 346.7, 28.59 342.46 C26.26 338.22, 24.06 333.9, 22 329.52 C19.94 325.15, 18.01 320.7, 16.23 316.2 C14.45 311.7, 12.81 307.14, 11.31 302.54 C9.82 297.94, 8.46 293.28, 7.26 288.59 C6.06 283.91, 5 279.18, 4.09 274.42 C3.19 269.67, 2.43 264.88, 1.82 260.08 C1.22 255.29, 0.76 250.46, 0.46 245.63 C0.15 240.8, 0 235.95, 0 231.12 C0 226.28, 0.15 221.43, 0.46 216.61 C0.76 211.78, 1.22 206.95, 1.82 202.15 C2.43 197.35, 3.19 192.56, 4.09 187.81 C5 183.06, 6.06 178.33, 7.26 173.64 C8.46 168.96, 9.82 164.3, 11.31 159.7 C12.81 155.1, 14.45 150.54, 16.23 146.04 C18.01 141.54, 19.94 137.09, 22 132.71 C24.06 128.34, 26.26 124.01, 28.59 119.78 C30.92 115.54, 33.39 111.36, 35.98 107.28 C38.57 103.19, 41.3 99.18, 44.14 95.27 C46.98 91.36, 49.96 87.52, 53.04 83.8 C56.12 80.07, 59.33 76.43, 62.64 72.91 C65.95 69.38, 69.38 65.95, 72.91 62.64 C76.43 59.33, 80.07 56.12, 83.8 53.04 C87.52 49.96, 91.36 46.98, 95.27 44.14 C99.18 41.3, 103.19 38.57, 107.28 35.98 C111.36 33.39, 115.54 30.92, 119.78 28.59 C124.01 26.26, 128.34 24.06, 132.71 22 C137.09 19.94, 141.54 18.01, 146.04 16.23 C150.54 14.45, 155.1 12.81, 159.7 11.31 C164.3 9.82, 168.96 8.46, 173.64 7.26 C178.33 6.06, 183.06 5, 187.81 4.09 C192.56 3.19, 197.35 2.43, 202.15 1.82 C206.95 1.22, 211.78 0.76, 216.61 0.46 C221.43 0.15, 226.28 0, 231.12 0 C235.95 0, 240.8 0.15, 245.63 0.46 C250.46 0.76, 255.29 1.22, 260.08 1.82 C264.88 2.43, 269.67 3.19, 274.42 4.09 C279.18 5, 283.91 6.06, 288.59 7.26 C293.28 8.46, 297.94 9.82, 302.54 11.31 C307.14 12.81, 311.7 14.45, 316.2 16.23 C320.7 18.01, 325.15 19.94, 329.52 22 C333.9 24.06, 338.22 26.26, 342.46 28.59 C346.7 30.92, 350.87 33.39, 354.96 35.98 C359.04 38.57, 363.05 41.3, 366.97 44.14 C370.88 46.98, 374.71 49.96, 378.44 53.04 C382.16 56.12, 385.8 59.33, 389.33 62.64 C392.85 65.95, 396.28 69.38, 399.6 72.91 C402.91 76.43, 406.11 80.07, 409.2 83.8 C412.28 87.52, 415.25 91.36, 418.1 95.27 C420.94 99.18, 423.66 103.19, 426.26 107.28 C428.85 111.36, 431.32 115.54, 433.65 119.78 C435.98 124.01, 438.18 128.34, 440.24 132.71 C442.3 137.09, 444.22 141.54, 446.01 146.04 C447.79 150.54, 449.43 155.1, 450.92 159.7 C452.42 164.3, 453.77 168.96, 454.97 173.64 C456.18 178.33, 457.24 183.06, 458.14 187.81 C459.05 192.56, 459.81 197.35, 460.41 202.15 C461.02 206.95, 461.48 211.78, 461.78 216.61 C462.08 221.43, 462.16 228.7, 462.24 231.12 C462.31 233.54, 462.31 228.7, 462.24 231.12" stroke="#E1E1E1" stroke-width="2" fill="none"></path></g></svg>