<svg version="1.1" xmlns="http://www.w3.org/2000/svg" viewBox="0 0 387.02182693434224 264.84642107580225" width="387.02182693434224" height="264.84642107580225" class="excalidraw-svg"><!-- svg-source:excalidraw --><metadata></metadata><defs><style class="style-fonts">
      </style></defs><rect x="0" y="0" width="387.02182693434224" height="264.84642107580225" fill="#000000"></rect><g stroke-linecap="round"><g transform="translate(132.92882711307357 45.277993142713854) rotate(0 10.846018242024911 16.06680978961345)"><path d="M0 0 C7.49 11.1, 14.98 22.19, 21.69 32.13 M0 0 C6.18 9.15, 12.36 18.3, 21.69 32.13" stroke="#E1E1E1" stroke-width="4" fill="none"></path></g></g><mask></mask><g stroke-linecap="round"><g transform="translate(154.7865890330686 78.03158743713868) rotate(0 -25.689742394586574 54.323604934955085)"><path d="M0 0 C-13.91 29.4, -27.81 58.81, -51.38 108.65 M0 0 C-14.1 29.81, -28.19 59.61, -51.38 108.65" stroke="#E1E1E1" stroke-width="4" fill="none"></path></g></g><mask></mask><g stroke-linecap="round"><g transform="translate(231.90433410747573 186.82357382721125) rotate(0 -11.52515429072264 -71.23265743093926)"><path d="M0 0 C-53.93 0.09, -107.85 0.18, -167.31 0.28 M0 0 C-54.33 0.09, -108.66 0.18, -167.31 0.28 M-167.31 0.28 C-147.7 -40.4, -128.09 -81.07, -98.86 -141.72 M-167.31 0.28 C-143.35 -49.43, -119.38 -99.14, -98.86 -141.72 M-98.86 -141.72 C-37.11 -141.98, 24.63 -142.24, 144.26 -142.74 M-98.86 -141.72 C-19.36 -142.05, 60.13 -142.39, 144.26 -142.74" stroke="#E1E1E1" stroke-width="4" fill="none"></path></g></g><mask></mask><g stroke-linecap="round"><g transform="translate(231.77943657869037 186.44333099648634) rotate(0 25.841683289399953 -53.82761426930987)"><path d="M0 0 C18 -37.49, 35.99 -74.97, 51.68 -107.66 M0 0 C11.13 -23.19, 22.27 -46.38, 51.68 -107.66" stroke="#E1E1E1" stroke-width="4" fill="none"></path></g></g><mask></mask><g stroke-linecap="round"><g transform="translate(154.72294293130653 77.7841911662091) rotate(0 10.826708129186954 71.08032166988795)"><path d="M0 0 C50.51 0.43, 101.03 0.85, 166.31 1.41 M0 0 C57.59 0.49, 115.18 0.97, 166.31 1.41 M166.31 1.41 C148.89 38.71, 131.46 76.01, 100.56 142.16 M166.31 1.41 C146.39 44.06, 126.46 86.72, 100.56 142.16 M100.56 142.16 C49.05 142.09, -2.46 142.02, -144.66 141.82 M100.56 142.16 C44.34 142.08, -11.89 142.01, -144.66 141.82" stroke="#E1E1E1" stroke-width="4" fill="none"></path></g></g><mask></mask><g stroke-linecap="round"><g transform="translate(231.68477662641817 186.6779993424741) rotate(0 11.823057640805928 16.441702702865086)"><path d="M0 0 C4.92 6.85, 9.84 13.69, 23.65 32.88 M0 0 C6.66 9.26, 13.32 18.52, 23.65 32.88" stroke="#E1E1E1" stroke-width="4" fill="none"></path></g></g><mask></mask><g stroke-linecap="round"><g transform="translate(10 219.83346475632254) rotate(0 183.51091346717112 -87.41025421842141)"><path d="M0 0 C6.59 10.54, 13.18 21.07, 21.9 35.01 M0 0 C6.43 10.28, 12.86 20.55, 21.9 35.01 M21.9 35.01 C107.63 34.81, 193.36 34.61, 269.32 34.43 M21.9 35.01 C91.81 34.85, 161.71 34.68, 269.32 34.43 M269.32 34.43 C296.11 -23.12, 322.89 -80.67, 367.02 -175.5 M269.32 34.43 C294.08 -18.77, 318.84 -71.97, 367.02 -175.5 M367.02 -175.5 C360.83 -185.08, 354.64 -194.66, 344.83 -209.83 M367.02 -175.5 C361.26 -184.41, 355.5 -193.32, 344.83 -209.83 M344.83 -209.83 C257.06 -209.75, 169.3 -209.67, 99.36 -209.61 M344.83 -209.83 C251.27 -209.75, 157.71 -209.66, 99.36 -209.61 M99.36 -209.61 C79.35 -167.4, 59.34 -125.19, 0 0 M99.36 -209.61 C66.43 -140.15, 33.51 -70.7, 0 0" stroke="#E1E1E1" stroke-width="4" fill="none"></path></g></g><mask></mask></svg>