<svg version="1.1" xmlns="http://www.w3.org/2000/svg" viewBox="0 0 257.01954385010504 227.15138986853492" width="257.01954385010504" height="227.15138986853492" class="excalidraw-svg"><!-- svg-source:excalidraw --><metadata></metadata><defs><style class="style-fonts">
      </style></defs><rect x="0" y="0" width="257.01954385010504" height="227.15138986853492" fill="#000000"></rect><g stroke-linecap="round"><g transform="translate(185.04527485579638 62.509451660529294) rotate(0 -55.99567409985957 77.32096910400281)"><path d="M0 0 C-54.84 0, -109.68 0, -145.68 0 M0 0 C-30.04 0, -60.07 0, -145.68 0 M-145.68 0 C-145.68 44.09, -145.68 88.18, -145.68 154.64 M-145.68 0 C-145.68 60.92, -145.68 121.84, -145.68 154.64 M-145.68 154.64 C-78.26 154.64, -10.85 154.64, 33.69 154.64 M-145.68 154.64 C-105.36 154.64, -65.04 154.64, 33.69 154.64" stroke="#E1E1E1" stroke-width="4" fill="none"></path></g></g><mask></mask><g stroke-linecap="round"><g transform="translate(68.5873058184743 63.02653731985606) rotate(0 89.16130231731358 50.98300225422645)"><path d="M0 0 C0 48.7, 0 97.39, 0 129.2 M0 0 C0 49.36, 0 98.72, 0 129.2 M0 129.2 C59.74 129.2, 119.48 129.2, 178.32 129.2 M0 129.2 C36.7 129.2, 73.39 129.2, 178.32 129.2 M178.32 129.2 C178.32 94.42, 178.32 59.64, 178.32 -27.23 M178.32 129.2 C178.32 91.86, 178.32 54.52, 178.32 -27.23" stroke="#E1E1E1" stroke-width="4" fill="none"></path></g></g><mask></mask><g stroke-linecap="round"><g transform="translate(70.00874149469291 163.7691043273918) rotate(0 56.89853920813948 -76.8845521636959)"><path d="M0 0 C49.44 0, 98.88 0, 147.57 0 M0 0 C48.14 0, 96.28 0, 147.57 0 M147.57 0 C147.57 -43.54, 147.57 -87.07, 147.57 -153.77 M147.57 0 C147.57 -37.28, 147.57 -74.55, 147.57 -153.77 M147.57 -153.77 C104.58 -153.77, 61.6 -153.77, -33.77 -153.77 M147.57 -153.77 C78.21 -153.77, 8.86 -153.77, -33.77 -153.77" stroke="#E1E1E1" stroke-width="4" fill="none"></path></g></g><mask></mask><g stroke-linecap="round"><g transform="translate(186.10943847321505 163.32750098333634) rotate(0 -88.05471923660753 -37.73773966055103)"><path d="M0 0 C0 -40.04, 0 -80.07, 0 -128.92 M0 0 C0 -47.14, 0 -94.28, 0 -128.92 M0 -128.92 C-62.51 -128.92, -125.02 -128.92, -176.11 -128.92 M0 -128.92 C-63.72 -128.92, -127.43 -128.92, -176.11 -128.92 M-176.11 -128.92 C-176.11 -86.7, -176.11 -44.48, -176.11 28.87 M-176.11 -128.92 C-176.11 -83.34, -176.11 -37.76, -176.11 28.87 M-176.11 28.87 C-169.89 34.05, -163.68 39.22, -146.6 53.45 M-176.11 28.87 C-165.54 37.67, -154.98 46.47, -146.6 53.45" stroke="#E1E1E1" stroke-width="4" fill="none"></path></g></g><mask></mask><g stroke-linecap="round"><g transform="translate(218.90121006291793 217.0086816825741) rotate(0 14.059166893593556 -12.671804774173665)"><path d="M0 0 C8.14 -7.34, 16.28 -14.68, 28.12 -25.34 M0 0 C9.25 -8.34, 18.5 -16.67, 28.12 -25.34" stroke="#E1E1E1" stroke-width="4" fill="none"></path></g></g><mask></mask><g stroke-linecap="round"><g transform="translate(10.194408737690537 34.38389489810868) rotate(0 12.818664142140278 -12.081291690279102)"><path d="M0 0 C8.74 -8.23, 17.47 -16.47, 25.64 -24.16 M0 0 C7.44 -7.02, 14.89 -14.03, 25.64 -24.16" stroke="#E1E1E1" stroke-width="4" fill="none"></path></g></g><mask></mask><g stroke-linecap="round"><g transform="translate(217.61161339491264 10.396088405062187) rotate(0 14.68597989547834 12.838825995947957)"><path d="M0 0 C10.92 9.54, 21.83 19.09, 29.37 25.68 M0 0 C9.2 8.04, 18.4 16.08, 29.37 25.68" stroke="#E1E1E1" stroke-width="4" fill="none"></path></g></g><mask></mask></svg>