<svg version="1.1" xmlns="http://www.w3.org/2000/svg" viewBox="0 0 302.6263271207981 263.10236608592663" width="302.6263271207981" height="263.10236608592663" class="excalidraw-svg"><!-- svg-source:excalidraw --><metadata></metadata><defs><style class="style-fonts">
      </style></defs><rect x="0" y="0" width="302.6263271207981" height="263.10236608592663" fill="#000000"></rect><g stroke-linecap="round"><g transform="translate(95.33452809647588 184.7875753982571) rotate(0 86.0142853005259 22.02756396300964)"><path d="M0 0 C-9.24 16.11, -18.48 32.22, -25.26 44.06 M0 0 C-6.87 11.98, -13.74 23.97, -25.26 44.06 M-25.26 44.06 C26.46 44.06, 78.18 44.06, 197.29 44.06 M-25.26 44.06 C57.56 44.06, 140.38 44.06, 197.29 44.06" stroke="#E1E1E1" stroke-width="4" fill="none"></path></g></g><mask></mask><g stroke-linecap="round"><g transform="translate(292.2504961087352 228.43753157469882) rotate(0 -141.1252480543676 -96.8863485317355)"><path d="M0 0 C-34.63 -59.98, -69.26 -119.95, -126.11 -218.44 M0 0 C-32.42 -56.15, -64.84 -112.3, -126.11 -218.44 M-126.11 -218.44 C-132.96 -218.44, -139.81 -218.44, -155.57 -218.44 M-126.11 -218.44 C-132.88 -218.44, -139.65 -218.44, -155.57 -218.44 M-155.57 -218.44 C-187.78 -162.65, -219.99 -106.87, -282.25 0.97 M-155.57 -218.44 C-198.24 -144.54, -240.9 -70.64, -282.25 0.97 M-282.25 0.97 C-276.42 10.21, -270.58 19.44, -267.28 24.66 M-282.25 0.97 C-276.93 9.39, -271.61 17.81, -267.28 24.66 M-267.28 24.66 C-195.15 24.66, -123.01 24.66, -12.9 24.66 M-267.28 24.66 C-166.72 24.66, -66.16 24.66, -12.9 24.66 M-12.9 24.66 C-9.42 18.02, -5.95 11.38, 0 0 M-12.9 24.66 C-8.95 17.11, -5 9.56, 0 0" stroke="#E1E1E1" stroke-width="4" fill="none"></path></g></g><mask></mask><g stroke-linecap="round"><g transform="translate(25.056649082390322 252.31240321398877) rotate(0 83.51193730322484 -95.86554807347152)"><path d="M0 0 C22.62 -38.88, 45.24 -77.75, 111.56 -191.73 M0 0 C22.78 -39.15, 45.56 -78.29, 111.56 -191.73 M111.56 -191.73 C129.34 -161.07, 147.12 -130.42, 167.02 -96.1 M111.56 -191.73 C126.78 -165.49, 142 -139.26, 167.02 -96.1 M167.02 -96.1 C133.61 -96.1, 100.19 -96.1, 56.47 -96.1 M167.02 -96.1 C139.55 -96.1, 112.07 -96.1, 56.47 -96.1" stroke="#E1E1E1" stroke-width="4" fill="none"></path></g></g><mask></mask><g stroke-linecap="round"><g transform="translate(81.51470812318712 156.75989992446068) rotate(0 7.2107255774126315 13.726057731766659)"><path d="M0 0 C3.95 7.52, 7.9 15.04, 14.42 27.45 M0 0 C2.95 5.61, 5.9 11.23, 14.42 27.45" stroke="#E1E1E1" stroke-width="4" fill="none"></path></g></g><mask></mask><g stroke-linecap="round"><g transform="translate(95.55551519989149 184.54945888437157) rotate(0 61.17681463007557 8.720505197986157)"><path d="M0 0 C32.81 0, 65.62 0, 111.53 0 M0 0 C44.01 0, 88.02 0, 111.53 0 M111.53 0 C114.46 4.72, 117.39 9.44, 122.35 17.44 M111.53 0 C114.67 5.06, 117.82 10.13, 122.35 17.44" stroke="#E1E1E1" stroke-width="4" fill="none"></path></g></g><mask></mask><g stroke-linecap="round"><g transform="translate(85.8438127279478 201.96497573585089) rotate(0 80.87421374301721 -95.78225129143675)"><path d="M0 0 C49.92 0, 99.85 0, 161.75 0 M0 0 C48.61 0, 97.22 0, 161.75 0 M161.75 0 C119.29 -73.55, 76.82 -147.09, 51.15 -191.56 M161.75 0 C137.68 -41.69, 113.61 -83.38, 51.15 -191.56" stroke="#E1E1E1" stroke-width="4" fill="none"></path></g></g><mask></mask><g stroke-linecap="round"><g transform="translate(95.82640505633935 132.0852103955175) rotate(0 40.74809871672278 0)"><path d="M0 0 C29.14 0, 58.28 0, 81.5 0 M0 0 C31.06 0, 62.12 0, 81.5 0" stroke="#E1E1E1" stroke-width="4" fill="none"></path></g></g><mask></mask><g stroke-linecap="round"><g transform="translate(125.99676027845999 131.4887992038408) rotate(0 12.63702660979061 -22.307917912241223)"><path d="M0 0 C5.87 -10.37, 11.75 -20.74, 25.27 -44.62 M0 0 C9.41 -16.6, 18.81 -33.21, 25.27 -44.62" stroke="#E1E1E1" stroke-width="4" fill="none"></path></g></g><mask></mask></svg>