<svg version="1.1" xmlns="http://www.w3.org/2000/svg" viewBox="0 0 267.49472436175165 231.50352808234584" width="267.49472436175165" height="231.50352808234584" class="excalidraw-svg"><!-- svg-source:excalidraw --><metadata></metadata><defs><style class="style-fonts">
      </style></defs><rect x="0" y="0" width="267.49472436175165" height="231.50352808234584" fill="#000000"></rect><g stroke-linecap="round"><g transform="translate(134.99514601266947 28.782148262088867) rotate(0 61.24978917454109 63.81392790474007)"><path d="M0 0 C23.69 41.34, 47.38 82.69, 73.12 127.63 M0 0 C22.59 39.44, 45.19 78.87, 73.12 127.63 M73.12 127.63 C83.61 127.62, 94.1 127.6, 122.5 127.57 M73.12 127.63 C87.44 127.61, 101.76 127.59, 122.5 127.57 M122.5 127.57 C118.28 120.91, 114.07 114.25, 111.65 110.43 M122.5 127.57 C118.66 121.51, 114.83 115.45, 111.65 110.43 M111.65 110.43 C106.57 110.58, 101.48 110.73, 87.24 111.14 M111.65 110.43 C105.05 110.63, 98.44 110.82, 87.24 111.14 M87.24 111.14 C73.15 86.43, 59.06 61.71, 23.88 0 M87.24 111.14 C65.39 72.81, 43.54 34.48, 23.88 0 M23.88 0 C17.41 0, 10.94 0, 0 0 M23.88 0 C18.64 0, 13.4 0, 0 0" stroke="#E1E1E1" stroke-width="4" fill="none"></path></g></g><mask></mask><g stroke-linecap="round"><g transform="translate(172.34623398457825 51.29029048118855) rotate(0 -57.61582195566052 42.49252449971476)"><path d="M0 0 C5.23 0, 10.45 0, 22.14 0 M0 0 C6.91 0, 13.82 0, 22.14 0 M22.14 0 C16.76 -9.93, 11.39 -19.87, -0.19 -41.29 M22.14 0 C13.48 -16.01, 4.83 -32.01, -0.19 -41.29 M-0.19 -41.29 C-27.64 -41.29, -55.09 -41.29, -73.11 -41.29 M-0.19 -41.29 C-27.29 -41.29, -54.4 -41.29, -73.11 -41.29 M-73.11 -41.29 C-77.48 -36.01, -81.84 -30.73, -89.01 -22.07 M-73.11 -41.29 C-77.99 -35.4, -82.86 -29.5, -89.01 -22.07 M-89.01 -22.07 C-84.44 -14.77, -79.87 -7.48, -74.61 0.91 M-89.01 -22.07 C-84.52 -14.9, -80.03 -7.74, -74.61 0.91 M-74.61 0.91 C-95.48 36.25, -116.35 71.58, -137.37 107.17 M-74.61 0.91 C-99.04 42.29, -123.48 83.66, -137.37 107.17 M-137.37 107.17 C-133.71 112.64, -130.05 118.11, -124.6 126.28 M-137.37 107.17 C-134.42 111.58, -131.47 115.99, -124.6 126.28 M-124.6 126.28 C-96.35 78.58, -68.11 30.89, -49.85 0.05 M-124.6 126.28 C-107.9 98.08, -91.2 69.88, -49.85 0.05 M-49.85 0.05 C-57.45 -13.49, -65.06 -27.03, -72.73 -40.68 M-49.85 0.05 C-55.69 -10.36, -61.54 -20.77, -72.73 -40.68" stroke="#E1E1E1" stroke-width="4" fill="none"></path></g></g><mask></mask><g stroke-linecap="round"><g transform="translate(123.27803538951412 51.57112475263909) rotate(0 12.178755225818804 0)"><path d="M0 0 C8.96 0, 17.92 0, 24.36 0 M0 0 C5.2 0, 10.4 0, 24.36 0" stroke="#E1E1E1" stroke-width="4" fill="none"></path></g></g><mask></mask><g stroke-linecap="round"><g transform="translate(147.45802932544302 51.78151767470615) rotate(0 -31.04543353783629 51.722992050543326)"><path d="M0 0 C-16.72 27.86, -33.45 55.73, -62.09 103.45 M0 0 C-19.01 31.67, -38.02 63.34, -62.09 103.45" stroke="#E1E1E1" stroke-width="4" fill="none"></path></g></g><mask></mask><g stroke-linecap="round"><g transform="translate(61.11858604121244 155.7431388696167) rotate(0 60.233040745727976 0)"><path d="M0 0 C39.67 0, 79.33 0, 120.47 0 M0 0 C32.79 0, 65.58 0, 120.47 0" stroke="#E1E1E1" stroke-width="4" fill="none"></path></g></g><mask></mask><g stroke-linecap="round"><g transform="translate(134.75845476736504 74.38264832102266) rotate(0 30.543877482126845 52.720938661584455)"><path d="M0 0 C20.26 34.97, 40.52 69.94, 61.09 105.44 M0 0 C19.96 34.46, 39.93 68.92, 61.09 105.44" stroke="#E1E1E1" stroke-width="4" fill="none"></path></g></g><mask></mask><g stroke-linecap="round"><g transform="translate(208.4377929479915 156.24563138074302) rotate(0 -6.18447804382231 11.93033338342525)"><path d="M0 0 C-2.62 5.05, -5.24 10.1, -12.37 23.86 M0 0 C-4.48 8.64, -8.95 17.27, -12.37 23.86" stroke="#E1E1E1" stroke-width="4" fill="none"></path></g></g><mask></mask><g stroke-linecap="round"><g transform="translate(60.37095241104544 156.79885958657496) rotate(0 79.44912336195011 11.776280492000865)"><path d="M0 0 C2.3 5, 4.61 10.01, 10.84 23.55 M0 0 C3.14 6.83, 6.29 13.66, 10.84 23.55 M10.84 23.55 C68.37 23.55, 125.91 23.55, 158.9 23.55 M10.84 23.55 C63.19 23.55, 115.53 23.55, 158.9 23.55" stroke="#E1E1E1" stroke-width="4" fill="none"></path></g></g><mask></mask><g stroke-linecap="round"><g transform="translate(219.84494693973647 180.2762961030104) rotate(0 -104.92247346986824 -11.671096275065167)"><path d="M0 0 C-3.43 5.13, -6.86 10.26, -14.25 21.33 M0 0 C-5.52 8.27, -11.05 16.54, -14.25 21.33 M-14.25 21.33 C-59.08 21.33, -103.91 21.33, -133.35 21.33 M-14.25 21.33 C-58.52 21.33, -102.79 21.33, -133.35 21.33 M-133.35 21.33 C-137.07 26.61, -140.79 31.9, -146.9 40.57 M-133.35 21.33 C-137.51 27.23, -141.66 33.13, -146.9 40.57 M-146.9 40.57 C-154.95 40.57, -163.01 40.57, -172.27 40.57 M-146.9 40.57 C-154.81 40.57, -162.72 40.57, -172.27 40.57 M-172.27 40.57 C-184.77 19.86, -197.26 -0.84, -209.84 -21.7 M-172.27 40.57 C-186.9 16.33, -201.53 -7.92, -209.84 -21.7 M-209.84 -21.7 C-202.24 -33.79, -194.64 -45.87, -183.29 -63.91 M-209.84 -21.7 C-203.71 -31.45, -197.58 -41.19, -183.29 -63.91 M-183.29 -63.91 C-174.72 -63.91, -166.15 -63.91, -160.61 -63.91 M-183.29 -63.91 C-178.22 -63.91, -173.16 -63.91, -160.61 -63.91" stroke="#E1E1E1" stroke-width="4" fill="none"></path></g></g><mask></mask><g stroke-linecap="round"><g transform="translate(36.86207215846753 116.75993744618859) rotate(0 5.715073647463214 8.863536325333143)"><path d="M0 0 C2.55 3.96, 5.1 7.91, 11.43 17.73 M0 0 C2.74 4.25, 5.48 8.5, 11.43 17.73" stroke="#E1E1E1" stroke-width="4" fill="none"></path></g></g><mask></mask><g stroke-linecap="round"><g transform="translate(158.88396676653701 201.88699111682092) rotate(0 49.193737796596906 -12.931701167538165)"><path d="M0 0 C3.58 5.16, 7.17 10.33, 13.62 19.62 M0 0 C3.85 5.54, 7.7 11.09, 13.62 19.62 M13.62 19.62 C25.93 19.62, 38.23 19.62, 61.34 19.62 M13.62 19.62 C26.57 19.62, 39.52 19.62, 61.34 19.62 M61.34 19.62 C69.34 5.56, 77.34 -8.5, 98.39 -45.48 M61.34 19.62 C75.31 -4.93, 89.28 -29.47, 98.39 -45.48" stroke="#E1E1E1" stroke-width="4" fill="none"></path></g></g><mask></mask><g stroke-linecap="round"><g transform="translate(172.74968579819233 221.19262981958389) rotate(0 4.247399082484662 -9.600856797247275)"><path d="M0 0 C3.37 -7.62, 6.74 -15.24, 8.49 -19.2 M0 0 C2.96 -6.69, 5.92 -13.38, 8.49 -19.2" stroke="#E1E1E1" stroke-width="4" fill="none"></path></g></g><mask></mask><g stroke-linecap="round"><g transform="translate(47.437779218330434 220.78549676386842) rotate(0 11.973195542854228 -20.293662204891007)"><path d="M0 0 C8.36 -14.16, 16.71 -28.32, 23.95 -40.59 M0 0 C4.98 -8.45, 9.97 -16.9, 23.95 -40.59" stroke="#E1E1E1" stroke-width="4" fill="none"></path></g></g><mask></mask><g stroke-linecap="round"><g transform="translate(183.56790966928293 71.95024472219063) rotate(0 5.51902332257805 -10.167396606166932)"><path d="M0 0 C3.19 -5.88, 6.38 -11.76, 11.04 -20.33 M0 0 C3.49 -6.43, 6.98 -12.86, 11.04 -20.33" stroke="#E1E1E1" stroke-width="4" fill="none"></path></g></g><mask></mask></svg>