<svg version="1.1" xmlns="http://www.w3.org/2000/svg" viewBox="0 0 404.4130773194238 326.01073496908367" width="404.4130773194238" height="326.01073496908367" class="excalidraw-svg"><!-- svg-source:excalidraw --><metadata></metadata><defs><style class="style-fonts">
      </style></defs><rect x="0" y="0" width="404.4130773194238" height="326.01073496908367" fill="#000000"></rect><g stroke-linecap="round"><g transform="translate(254.3187212192206 191.85029053609065) rotate(0 -52.86393572761199 -22.313988320843606)"><path d="M0 0 C0 21.94, 0 43.87, 0 80.98 M0 0 C0 17.77, 0 35.55, 0 80.98 M0 80.98 C-19.39 70.85, -38.78 60.72, -51.55 54.04 M0 80.98 C-14.59 73.36, -29.18 65.74, -51.55 54.04 M-51.55 54.04 C-65.32 60.65, -79.08 67.26, -109.63 81.92 M-51.55 54.04 C-67.57 61.73, -83.58 69.42, -109.63 81.92 M-109.63 81.92 C-109.63 54.64, -109.63 27.36, -109.63 -2.7 M-109.63 81.92 C-109.63 56.87, -109.63 31.81, -109.63 -2.7 M-109.63 -2.7 C-138.64 -17.26, -167.65 -31.82, -189.08 -42.57 M-109.63 -2.7 C-126.05 -10.94, -142.46 -19.17, -189.08 -42.57 M-189.08 -42.57 C-175.48 -50.15, -161.89 -57.73, -135.9 -72.21 M-189.08 -42.57 C-176.29 -49.7, -163.51 -56.82, -135.9 -72.21 M-135.9 -72.21 C-135.9 -90.46, -135.9 -108.7, -135.9 -126.55 M-135.9 -72.21 C-135.9 -83.48, -135.9 -94.76, -135.9 -126.55 M-135.9 -126.55 C-111.3 -114.22, -86.71 -101.88, -51.76 -84.36 M-135.9 -126.55 C-110.62 -113.87, -85.33 -101.19, -51.76 -84.36 M-51.76 -84.36 C-31.41 -94.62, -11.06 -104.89, 29.28 -125.24 M-51.76 -84.36 C-27.31 -96.69, -2.86 -109.02, 29.28 -125.24 M29.28 -125.24 C29.42 -110.32, 29.57 -95.41, 29.81 -70.11 M29.28 -125.24 C29.49 -103.8, 29.69 -82.37, 29.81 -70.11 M29.81 -70.11 C42.42 -63.59, 55.02 -57.07, 83.35 -42.4 M29.81 -70.11 C48.07 -60.66, 66.33 -51.21, 83.35 -42.4 M83.35 -42.4 C54.14 -27.54, 24.93 -12.68, 0 0 M83.35 -42.4 C54.51 -27.73, 25.68 -13.06, 0 0" stroke="#E1E1E1" stroke-width="4" fill="none"></path></g></g><mask></mask><g stroke-linecap="round"><g transform="translate(144.35708085701572 78.63486338433785) rotate(0 -26.518727795853465 41.83158550356853)"><path d="M0 0 C0 18.73, 0 37.47, 0 56.34 M0 0 C0 21.94, 0 43.87, 0 56.34 M0 56.34 C-15.19 64.16, -30.37 71.99, -53.04 83.66 M0 56.34 C-12.25 62.65, -24.49 68.96, -53.04 83.66" stroke="#E1E1E1" stroke-width="4" fill="none"></path></g></g><mask></mask><g stroke-linecap="round"><g transform="translate(254.4319715061347 81.43416751387946) rotate(0 27.833355459458744 40.82927310947434)"><path d="M0 0 C0 12.91, 0 25.82, 0 52.79 M0 0 C0 19.09, 0 38.19, 0 52.79 M0 52.79 C18.32 62.29, 36.64 71.79, 55.67 81.66 M0 52.79 C21.18 63.77, 42.36 74.76, 55.67 81.66" stroke="#E1E1E1" stroke-width="4" fill="none"></path></g></g><mask></mask><g stroke-linecap="round"><g transform="translate(202.36154719433034 107.33693146938407) rotate(0 0 -13.250974047667341)"><path d="M0 0 C0 -7.58, 0 -15.17, 0 -26.5 M0 0 C0 -10.19, 0 -20.39, 0 -26.5" stroke="#E1E1E1" stroke-width="4" fill="none"></path></g></g><mask></mask><g stroke-linecap="round"><g transform="translate(313.2188729532436 24.248025421084492) rotate(0 -111.0123342935317 138.75734206345734)"><path d="M0 0 C0.08 20.16, 0.15 40.33, 0.31 82.7 M0 0 C0.1 27.04, 0.2 54.07, 0.31 82.7 M0.31 82.7 C21.99 94.04, 43.67 105.37, 81.19 125 M0.31 82.7 C28.89 97.64, 57.47 112.59, 81.19 125 M81.19 125 C81.19 132.43, 81.19 139.86, 81.19 152.97 M81.19 125 C81.19 135.49, 81.19 145.99, 81.19 152.97 M81.19 152.97 C57.39 165.09, 33.59 177.21, 0.2 194.2 M81.19 152.97 C57.71 164.93, 34.23 176.88, 0.2 194.2 M0.2 194.2 C0.2 218.46, 0.2 242.72, 0.2 275.39 M0.2 194.2 C0.2 221.37, 0.2 248.53, 0.2 275.39 M0.2 275.39 C-5.81 278.81, -11.83 282.24, -28.55 291.76 M0.2 275.39 C-8.18 280.16, -16.55 284.93, -28.55 291.76 M-28.55 291.76 C-47.34 282.04, -66.13 272.31, -110.25 249.47 M-28.55 291.76 C-52.6 279.31, -76.64 266.87, -110.25 249.47 M-110.25 249.47 C-138.59 263.26, -166.93 277.06, -194.47 290.47 M-110.25 249.47 C-130.1 259.13, -149.94 268.79, -194.47 290.47 M-194.47 290.47 C-204.55 285.36, -214.64 280.25, -221.89 276.57 M-194.47 290.47 C-204.66 285.3, -214.85 280.14, -221.89 276.57 M-221.89 276.57 C-221.89 250.52, -221.89 224.47, -221.89 195.25 M-221.89 276.57 C-221.89 249.8, -221.89 223.03, -221.89 195.25 M-221.89 195.25 C-241.61 185.03, -261.32 174.8, -303.22 153.07 M-221.89 195.25 C-247.26 182.09, -272.63 168.93, -303.22 153.07 M-303.22 153.07 C-303.22 143.94, -303.22 134.81, -303.22 125.16 M-303.22 153.07 C-303.22 144.51, -303.22 135.96, -303.22 125.16 M-303.22 125.16 C-286.36 116.41, -269.51 107.67, -221.56 82.8 M-303.22 125.16 C-279.65 112.93, -256.09 100.71, -221.56 82.8 M-221.56 82.8 C-221.56 62.94, -221.56 43.08, -221.56 1.73 M-221.56 82.8 C-221.56 64.16, -221.56 45.53, -221.56 1.73 M-221.56 1.73 C-215.37 -2.01, -209.17 -5.74, -195.06 -14.25 M-221.56 1.73 C-213.52 -3.12, -205.48 -7.96, -195.06 -14.25 M-195.06 -14.25 C-171.12 -2.01, -147.19 10.23, -110.82 28.83 M-195.06 -14.25 C-170.61 -1.75, -146.17 10.75, -110.82 28.83 M-110.82 28.83 C-84.67 15.06, -58.51 1.29, -29.28 -14.09 M-110.82 28.83 C-79.36 12.27, -47.9 -4.29, -29.28 -14.09 M-29.28 -14.09 C-18.26 -8.79, -7.24 -3.48, 0 0 M-29.28 -14.09 C-23.25 -11.18, -17.21 -8.28, 0 0" stroke="#E1E1E1" stroke-width="4" fill="none"></path></g></g><mask></mask><g stroke-linecap="round"><g transform="translate(91.9016527007152 25.90907327705662) rotate(0 110.55368233619492 26.6587675506008)"><path d="M0 0 C40.67 20.14, 81.34 40.27, 110.45 54.69 M0 0 C24.46 12.11, 48.93 24.22, 110.45 54.69 M110.45 54.69 C149.39 34.96, 188.33 15.24, 221.11 -1.37 M110.45 54.69 C134.97 42.26, 159.5 29.84, 221.11 -1.37" stroke="#E1E1E1" stroke-width="4" fill="none"></path></g></g><mask></mask><g stroke-linecap="round"><g transform="translate(284.53528732342056 315.37030411737595) rotate(0 54.91975800707996 -82.92047193879085)"><path d="M0 0 C0 -36.41, 0 -72.82, 0 -110.33 M0 0 C0 -23.09, 0 -46.18, 0 -110.33 M0 -110.33 C28.12 -124.54, 56.24 -138.75, 109.84 -165.84 M0 -110.33 C29.56 -125.27, 59.11 -140.2, 109.84 -165.84" stroke="#E1E1E1" stroke-width="4" fill="none"></path></g></g><mask></mask><g stroke-linecap="round"><g transform="translate(284.3889077240292 205.24771626247986) rotate(0 -14.790955577413115 -6.584127024214354)"><path d="M0 0 C-11.13 -4.95, -22.25 -9.91, -29.58 -13.17 M0 0 C-8.37 -3.73, -16.74 -7.45, -29.58 -13.17" stroke="#E1E1E1" stroke-width="4" fill="none"></path></g></g><mask></mask><g stroke-linecap="round"><g transform="translate(10.20220842535582 149.39196822664422) rotate(0 54.792616572525276 82.56162713065493)"><path d="M0 0 C31.38 16.17, 62.76 32.34, 109.59 56.47 M0 0 C25.3 13.04, 50.61 26.08, 109.59 56.47 M109.59 56.47 C109.59 97.52, 109.59 138.57, 109.59 165.12 M109.59 56.47 C109.59 80.74, 109.59 105.01, 109.59 165.12" stroke="#E1E1E1" stroke-width="4" fill="none"></path></g></g><mask></mask><g stroke-linecap="round"><g transform="translate(119.90028170517871 205.67789219550497) rotate(0 12.352237908105963 -8.12817239989738)"><path d="M0 0 C8.13 -5.35, 16.26 -10.7, 24.7 -16.26 M0 0 C9.4 -6.19, 18.8 -12.37, 24.7 -16.26" stroke="#E1E1E1" stroke-width="4" fill="none"></path></g></g><mask></mask><g stroke-linecap="round"><g transform="translate(145.54817186085074 247.19191487254687) rotate(0 54.02658885981418 -14.735198366374107)"><path d="M0 0 C12.4 -6.42, 24.81 -12.85, 56.91 -29.47 M0 0 C19.47 -10.08, 38.95 -20.17, 56.91 -29.47 M56.91 -29.47 C74.3 -20.48, 91.7 -11.48, 108.05 -3.02 M56.91 -29.47 C74.3 -20.48, 91.69 -11.49, 108.05 -3.02" stroke="#E1E1E1" stroke-width="4" fill="none"></path></g></g><mask></mask><g stroke-linecap="round"><g transform="translate(284.80229900913946 121.70163684252935) rotate(0 14.34848504076217 -7.612148514807927)"><path d="M0 0 C7.69 -4.08, 15.38 -8.16, 28.7 -15.22 M0 0 C10.14 -5.38, 20.28 -10.76, 28.7 -15.22" stroke="#E1E1E1" stroke-width="4" fill="none"></path></g></g><mask></mask><g stroke-linecap="round"><g transform="translate(118.19445659042321 119.60284581711886) rotate(0 -13.159420470493387 -6.032855822148207)"><path d="M0 0 C-9.26 -4.25, -18.52 -8.49, -26.32 -12.07 M0 0 C-5.83 -2.67, -11.67 -5.35, -26.32 -12.07" stroke="#E1E1E1" stroke-width="4" fill="none"></path></g></g><mask></mask><g stroke-linecap="round"><g transform="translate(202.8081268097867 246.18038360207692) rotate(0 0 13.885306750503787)"><path d="M0 0 C0 7.11, 0 14.22, 0 27.77 M0 0 C0 7.47, 0 14.94, 0 27.77" stroke="#E1E1E1" stroke-width="4" fill="none"></path></g></g><mask></mask></svg>