<svg version="1.1" xmlns="http://www.w3.org/2000/svg" viewBox="0 0 327.2906777922408 400.87210685877994" width="327.2906777922408" height="400.87210685877994" class="excalidraw-svg"><!-- svg-source:excalidraw --><metadata></metadata><defs><style class="style-fonts">
      </style></defs><rect x="0" y="0" width="327.2906777922408" height="400.87210685877994" fill="#000000"></rect><g stroke-linecap="round"><g transform="translate(104.60050164067525 156.87107600765967) rotate(0 29.283323954591197 -16.682963125000754)"><path d="M0 0 C11.29 -18.61, 22.58 -37.23, 39.61 -65.29 M0 0 C15.6 -25.72, 31.21 -51.44, 39.61 -65.29 M39.61 -65.29 C46.73 -54.3, 53.86 -43.31, 58.57 -36.05 M39.61 -65.29 C43.87 -58.72, 48.13 -52.15, 58.57 -36.05 M58.57 -36.05 C43.68 -11.13, 28.8 13.79, 17.97 31.92 M58.57 -36.05 C49.89 -21.53, 41.22 -7.01, 17.97 31.92" stroke="#E1E1E1" stroke-width="4" fill="none"></path></g></g><mask></mask><g stroke-linecap="round"><g transform="translate(116.07823173071029 136.74319756461148) rotate(0 8.214567632295257 36.47253509967584)"><path d="M0 0 C-13.26 -20.61, -26.53 -41.22, -39.59 -61.52 M0 0 C-8.15 -12.66, -16.3 -25.32, -39.59 -61.52 M-39.59 -61.52 C-45.86 -50.48, -52.13 -39.45, -67.79 -11.89 M-39.59 -61.52 C-46.32 -49.67, -53.05 -37.82, -67.79 -11.89 M-67.79 -11.89 C-46.86 23.9, -25.93 59.69, 17.81 134.46 M-67.79 -11.89 C-45.97 25.41, -24.16 62.71, 17.81 134.46 M17.81 134.46 C34.15 106.17, 50.5 77.88, 84.22 19.51 M17.81 134.46 C32.27 109.44, 46.72 84.41, 84.22 19.51" stroke="#E1E1E1" stroke-width="4" fill="none"></path></g></g><mask></mask><g stroke-linecap="round"><g transform="translate(237.12865806530772 155.92300529473016) rotate(0 -48.88532503547549 84.5898499520784)"><path d="M0 0 C-27.68 47.9, -55.36 95.8, -97.77 169.18 M0 0 C-23.7 41.01, -47.4 82.02, -97.77 169.18" stroke="#E1E1E1" stroke-width="4" fill="none"></path></g></g><mask></mask><g stroke-linecap="round"><g transform="translate(176.62228522948317 325.90020319001064) rotate(0 51.414530600997296 -102.9389558480724)"><path d="M0 0 C41.31 -73.08, 82.62 -146.16, 116.38 -205.88 M0 0 C42.1 -74.49, 84.21 -148.97, 116.38 -205.88 M116.38 -205.88 C81.61 -205.72, 46.85 -205.55, -13.55 -205.27 M116.38 -205.88 C78.85 -205.7, 41.32 -205.53, -13.55 -205.27" stroke="#E1E1E1" stroke-width="4" fill="none"></path></g></g><mask></mask><g stroke-linecap="round"><g transform="translate(292.81610470089163 119.66308079513783) rotate(0 -74.1363127192244 -14.014780123666014)"><path d="M0 0 C-6.36 -11.11, -12.71 -22.21, -16.04 -28.03 M0 0 C-5.29 -9.25, -10.58 -18.49, -16.04 -28.03 M-16.04 -28.03 C-52.45 -28.03, -88.87 -28.03, -148.27 -28.03 M-16.04 -28.03 C-56.36 -28.03, -96.68 -28.03, -148.27 -28.03" stroke="#E1E1E1" stroke-width="4" fill="none"></path></g></g><mask></mask><g stroke-linecap="round"><g transform="translate(104.7207115901465 287.6062241573177) rotate(0 70.71965845109571 2.1269016266565473)"><path d="M0 0 C-3.16 4.43, -6.33 8.86, -13.83 19.36 M0 0 C-5.04 7.05, -10.08 14.11, -13.83 19.36 M-13.83 19.36 C-10.2 24.84, -6.57 30.33, -1.4 38.14 M-13.83 19.36 C-10.9 23.78, -7.97 28.21, -1.4 38.14 M-1.4 38.14 C33.75 38.14, 68.9 38.14, 155.27 38.14 M-1.4 38.14 C57.72 38.14, 116.85 38.14, 155.27 38.14 M155.27 38.14 C139.32 10.51, 123.37 -17.11, 113.69 -33.88 M155.27 38.14 C145.81 21.76, 136.36 5.39, 113.69 -33.88" stroke="#E1E1E1" stroke-width="4" fill="none"></path></g></g><mask></mask><g stroke-linecap="round"><g transform="translate(222.73324932631567 324.89964871213124) rotate(0 -11.623537655632845 -19.55956890116306)"><path d="M0 0 C-4.83 -8.12, -9.65 -16.24, -23.25 -39.12 M0 0 C-6.47 -10.9, -12.95 -21.79, -23.25 -39.12" stroke="#E1E1E1" stroke-width="4" fill="none"></path></g></g><mask></mask><g stroke-linecap="round"><g transform="translate(126.49515576103931 325.0895204317601) rotate(0 -40.250889681550234 -157.54476021588005)"><path d="M0 0 C-43.78 -75.75, -87.57 -151.49, -116.5 -201.53 M0 0 C-26.19 -45.3, -52.37 -90.6, -116.5 -201.53 M-116.5 -201.53 C-91.89 -243.17, -67.28 -284.8, -49.37 -315.09 M-116.5 -201.53 C-102.15 -225.8, -87.81 -250.06, -49.37 -315.09 M-49.37 -315.09 C-39.64 -315.09, -29.91 -315.09, -11.67 -315.09 M-49.37 -315.09 C-37.27 -315.09, -25.16 -315.09, -11.67 -315.09 M-11.67 -315.09 C-0.85 -296.75, 9.97 -278.41, 35.99 -234.31 M-11.67 -315.09 C5.45 -286.08, 22.56 -257.07, 35.99 -234.31" stroke="#E1E1E1" stroke-width="4" fill="none"></path></g></g><mask></mask><g stroke-linecap="round"><g transform="translate(77.08625477798887 10.00235446846807) rotate(0 28.801521986975786 48.14493907174932)"><path d="M0 0 C12.81 21.41, 25.62 42.82, 57.6 96.29 M0 0 C13.75 22.98, 27.5 45.97, 57.6 96.29" stroke="#E1E1E1" stroke-width="4" fill="none"></path></g></g><mask></mask><g stroke-linecap="round"><g transform="translate(152.06224552860203 237.69362595103019) rotate(0 -34.1370555984181 -65.8638869142822)"><path d="M0 0 C-16.18 -26.75, -32.37 -53.51, -68.27 -112.86 M0 0 C-26.11 -43.16, -52.22 -86.33, -68.27 -112.86 M-68.27 -112.86 C-64.95 -118.22, -61.63 -123.57, -56.57 -131.73 M-68.27 -112.86 C-64.93 -118.26, -61.58 -123.65, -56.57 -131.73" stroke="#E1E1E1" stroke-width="4" fill="none"></path></g></g><mask></mask><g stroke-linecap="round"><g transform="translate(83.77322800809361 124.9048175778396) rotate(0 -17.629505040012646 0)"><path d="M0 0 C-9.43 0, -18.87 0, -35.26 0 M0 0 C-10.18 0, -20.37 0, -35.26 0" stroke="#E1E1E1" stroke-width="4" fill="none"></path></g></g><mask></mask><g stroke-linecap="round"><g transform="translate(141.57886916763437 219.12888310765538) rotate(0 47.822661958433855 -31.644760854519575)"><path d="M0 0 C10.55 -17.43, 21.11 -34.86, 38.33 -63.29 M0 0 C11.69 -19.3, 23.37 -38.59, 38.33 -63.29 M38.33 -63.29 C58.87 -63.29, 79.41 -63.29, 95.65 -63.29 M38.33 -63.29 C52.27 -63.29, 66.21 -63.29, 95.65 -63.29" stroke="#E1E1E1" stroke-width="4" fill="none"></path></g></g><mask></mask><g stroke-linecap="round"><g transform="translate(170.2669011236503 172.49536403850936) rotate(0 5.474640059873309 7.767035733752778)"><path d="M0 0 C3.2 4.54, 6.4 9.07, 10.95 15.53 M0 0 C2.58 3.66, 5.16 7.32, 10.95 15.53" stroke="#E1E1E1" stroke-width="4" fill="none"></path></g></g><mask></mask><g stroke-linecap="round"><g transform="translate(151.8831653391162 203.49098940568285) rotate(0 5.099262478017408 8.25297544106462)"><path d="M0 0 C3.83 6.2, 7.66 12.4, 10.2 16.51 M0 0 C2.93 4.75, 5.87 9.5, 10.2 16.51" stroke="#E1E1E1" stroke-width="4" fill="none"></path></g></g><mask></mask><g stroke-linecap="round"><g transform="translate(236.64955931451914 220.74745965454167) rotate(0 -50.23264595148703 69.87540174166043)"><path d="M0 0 C29.57 51.24, 59.13 102.48, 80.64 139.75 M0 0 C17.23 29.86, 34.46 59.72, 80.64 139.75 M80.64 139.75 C20.61 139.75, -39.42 139.75, -151.98 139.75 M80.64 139.75 C5.96 139.75, -68.73 139.75, -151.98 139.75 M-151.98 139.75 C-158.59 127.67, -165.21 115.59, -181.11 86.54 M-151.98 139.75 C-162.44 120.64, -172.9 101.53, -181.11 86.54 M-181.11 86.54 C-171.59 69.91, -162.07 53.27, -151.42 34.67 M-181.11 86.54 C-169.29 65.89, -157.47 45.24, -151.42 34.67" stroke="#E1E1E1" stroke-width="4" fill="none"></path></g></g><mask></mask><g stroke-linecap="round"><g transform="translate(55.61477271331387 307.0725304767087) rotate(0 17.609275808523307 0)"><path d="M0 0 C8.61 0, 17.22 0, 35.22 0 M0 0 C8.98 0, 17.95 0, 35.22 0" stroke="#E1E1E1" stroke-width="4" fill="none"></path></g></g><mask></mask><g stroke-linecap="round"><g transform="translate(317.1598999781372 360.2911782970125) rotate(0 -150.3978121491209 -53.82199135422189)"><path d="M0 0 C-5.6 8.68, -11.2 17.36, -19.73 30.58 M0 0 C-5.64 8.74, -11.28 17.49, -19.73 30.58 M-19.73 30.58 C-90.53 30.58, -161.33 30.58, -251.18 30.58 M-19.73 30.58 C-71.87 30.58, -124.01 30.58, -251.18 30.58 M-251.18 30.58 C-264.78 7.81, -278.38 -14.96, -300.8 -52.49 M-251.18 30.58 C-261.72 12.93, -272.26 -4.71, -300.8 -52.49 M-300.8 -52.49 C-283.64 -81.83, -266.48 -111.18, -250.67 -138.22 M-300.8 -52.49 C-290.53 -70.04, -280.27 -87.59, -250.67 -138.22" stroke="#E1E1E1" stroke-width="4" fill="none"></path></g></g><mask></mask><g stroke-linecap="round"><g transform="translate(66.22751221205453 390.7514324508338) rotate(0 9.175599111140855 -15.224283908777807)"><path d="M0 0 C3.87 -6.41, 7.73 -12.83, 18.35 -30.45 M0 0 C6.57 -10.9, 13.14 -21.8, 18.35 -30.45" stroke="#E1E1E1" stroke-width="4" fill="none"></path></g></g><mask></mask></svg>