<svg version="1.1" xmlns="http://www.w3.org/2000/svg" viewBox="0 0 347.6715875114696 234.4504432578292" width="347.6715875114696" height="234.4504432578292" class="excalidraw-svg"><!-- svg-source:excalidraw --><metadata></metadata><defs><style class="style-fonts">
      </style></defs><rect x="0" y="0" width="347.6715875114696" height="234.4504432578292" fill="#000000"></rect><g stroke-linecap="round" transform="translate(72.35989969757884 60.035560637610615) rotate(0 101.3191397146793 56.176009896703476)"><path d="M102 0 C141.11 22.15, 180.21 44.3, 202.64 57 M102 0 C137.58 20.15, 173.16 40.31, 202.64 57 M202.64 57 C181.68 68.53, 160.72 80.05, 102 112.35 M202.64 57 C175.41 71.98, 148.17 86.96, 102 112.35 M102 112.35 C79.31 100.04, 56.63 87.73, 0 57 M102 112.35 C66.82 93.26, 31.65 74.17, 0 57 M0 57 C27.63 41.56, 55.26 26.12, 102 0 M0 57 C22.39 44.49, 44.77 31.98, 102 0" stroke="#E1E1E1" stroke-width="4" fill="none"></path></g><g stroke-linecap="round"><g transform="translate(173.9178758414173 59.4613251410816) rotate(0 0 -12.055849946110243)"><path d="M0 0 C0 -9.08, 0 -18.15, 0 -24.11 M0 0 C0 -8.96, 0 -17.92, 0 -24.11" stroke="#E1E1E1" stroke-width="4" fill="none"></path></g></g><mask></mask><g stroke-linecap="round"><g transform="translate(72.53553339110749 116.30087535599489) rotate(0 101.30026036462732 0.9243462729197063)"><path d="M0 0 C-5.27 -3.04, -10.54 -6.09, -17.86 -10.31 M0 0 C-6.01 -3.47, -12.01 -6.94, -17.86 -10.31 M-17.86 -10.31 C16.06 -30.52, 49.98 -50.73, 101.48 -81.43 M-17.86 -10.31 C20.79 -33.34, 59.44 -56.37, 101.48 -81.43 M101.48 -81.43 C166.2 -43.91, 230.92 -6.4, 264.23 12.9 M101.48 -81.43 C141.04 -58.5, 180.6 -35.57, 264.23 12.9 M264.23 12.9 C264.45 6.83, 264.67 0.76, 265.14 -11.91 M264.23 12.9 C264.56 3.92, 264.88 -5.05, 265.14 -11.91 M265.14 -11.91 C211.14 -42.97, 157.13 -74.03, 101.03 -106.3 M265.14 -11.91 C202.7 -47.83, 140.26 -83.74, 101.03 -106.3 M101.03 -106.3 C44.76 -73.85, -11.52 -41.41, -62.54 -11.99 M101.03 -106.3 C61.89 -83.73, 22.75 -61.16, -62.54 -11.99 M-62.54 -11.99 C-62.53 -5.26, -62.52 1.47, -62.51 13.4 M-62.54 -11.99 C-62.53 -3.77, -62.52 4.44, -62.51 13.4 M-62.51 13.4 C-22.43 36.54, 17.66 59.69, 101.6 108.15 M-62.51 13.4 C-18.08 39.05, 26.35 64.71, 101.6 108.15 M101.6 108.15 C150.93 79.2, 200.25 50.24, 264.13 12.75 M101.6 108.15 C162.68 72.3, 223.76 36.44, 264.13 12.75" stroke="#E1E1E1" stroke-width="4" fill="none"></path></g></g><mask></mask><g stroke-linecap="round"><g transform="translate(173.75501959143457 172.36519315096973) rotate(0 0 13.645452184951353)"><path d="M0 0 C0 7.04, 0 14.08, 0 27.29 M0 0 C0 7.41, 0 14.81, 0 27.29" stroke="#E1E1E1" stroke-width="4" fill="none"></path></g></g><mask></mask><g stroke-linecap="round"><g transform="translate(274.9619141018966 116.24827969074067) rotate(0 -122.15521437674852 35.78586508186481)"><path d="M0 0 C4.11 2.37, 8.22 4.75, 20.18 11.65 M0 0 C4.08 2.36, 8.16 4.71, 20.18 11.65 M20.18 11.65 C-24.49 38.12, -69.16 64.6, -101.02 83.48 M20.18 11.65 C-19.69 35.28, -59.56 58.91, -101.02 83.48 M-101.02 83.48 C-155.11 51.91, -209.21 20.35, -264.49 -11.91 M-101.02 83.48 C-155.19 51.87, -209.37 20.25, -264.49 -11.91" stroke="#E1E1E1" stroke-width="4" fill="none"></path></g></g><mask></mask></svg>