<svg version="1.1" xmlns="http://www.w3.org/2000/svg" viewBox="0 0 716.3305670197242 840.9876880412083" width="716.3305670197242" height="840.9876880412083" class="excalidraw-svg"><!-- svg-source:excalidraw --><metadata></metadata><defs><style class="style-fonts">
      </style></defs><rect x="0" y="0" width="716.3305670197242" height="840.9876880412083" fill="#000000"></rect><g stroke-linecap="round" transform="translate(64.07853259973206 323.33594580604034) rotate(0 225.92197001654463 225.92197001654463)"><path d="M451.84 225.92 C451.84 230.85, 451.68 235.78, 451.36 240.7 C451.04 245.61, 450.55 250.53, 449.91 255.41 C449.27 260.29, 448.46 265.17, 447.5 270 C446.54 274.83, 445.42 279.64, 444.15 284.39 C442.87 289.15, 441.44 293.88, 439.85 298.54 C438.27 303.21, 436.53 307.83, 434.65 312.38 C432.76 316.93, 430.72 321.43, 428.55 325.84 C426.37 330.26, 424.04 334.62, 421.58 338.88 C419.11 343.15, 416.51 347.34, 413.77 351.44 C411.03 355.53, 408.16 359.55, 405.16 363.45 C402.16 367.36, 399.03 371.18, 395.78 374.88 C392.53 378.59, 389.16 382.19, 385.67 385.67 C382.19 389.16, 378.59 392.53, 374.88 395.78 C371.18 399.03, 367.36 402.16, 363.45 405.16 C359.55 408.16, 355.53 411.03, 351.44 413.77 C347.34 416.51, 343.15 419.11, 338.88 421.58 C334.62 424.04, 330.26 426.37, 325.84 428.55 C321.43 430.72, 316.93 432.76, 312.38 434.65 C307.83 436.53, 303.21 438.27, 298.54 439.85 C293.88 441.44, 289.15 442.87, 284.39 444.15 C279.64 445.42, 274.83 446.54, 270 447.5 C265.17 448.46, 260.29 449.27, 255.41 449.91 C250.53 450.55, 245.61 451.04, 240.7 451.36 C235.78 451.68, 230.85 451.84, 225.92 451.84 C221 451.84, 216.06 451.68, 211.15 451.36 C206.23 451.04, 201.32 450.55, 196.43 449.91 C191.55 449.27, 186.68 448.46, 181.85 447.5 C177.02 446.54, 172.21 445.42, 167.45 444.15 C162.69 442.87, 157.97 441.44, 153.3 439.85 C148.64 438.27, 144.02 436.53, 139.47 434.65 C134.91 432.76, 130.42 430.72, 126 428.55 C121.58 426.37, 117.23 424.04, 112.96 421.58 C108.7 419.11, 104.5 416.51, 100.41 413.77 C96.31 411.03, 92.3 408.16, 88.39 405.16 C84.48 402.16, 80.66 399.03, 76.96 395.78 C73.26 392.53, 69.65 389.16, 66.17 385.67 C62.69 382.19, 59.31 378.59, 56.06 374.88 C52.82 371.18, 49.68 367.36, 46.69 363.45 C43.69 359.55, 40.81 355.53, 38.07 351.44 C35.34 347.34, 32.73 343.15, 30.27 338.88 C27.81 334.62, 25.48 330.26, 23.3 325.84 C21.12 321.43, 19.08 316.93, 17.2 312.38 C15.31 307.83, 13.57 303.21, 11.99 298.54 C10.41 293.88, 8.97 289.15, 7.7 284.39 C6.42 279.64, 5.3 274.83, 4.34 270 C3.38 265.17, 2.58 260.29, 1.93 255.41 C1.29 250.53, 0.81 245.61, 0.48 240.7 C0.16 235.78, 0 230.85, 0 225.92 C0 221, 0.16 216.06, 0.48 211.15 C0.81 206.23, 1.29 201.32, 1.93 196.43 C2.58 191.55, 3.38 186.68, 4.34 181.85 C5.3 177.02, 6.42 172.21, 7.7 167.45 C8.97 162.69, 10.41 157.97, 11.99 153.3 C13.57 148.64, 15.31 144.02, 17.2 139.47 C19.08 134.91, 21.12 130.42, 23.3 126 C25.48 121.58, 27.81 117.23, 30.27 112.96 C32.73 108.7, 35.34 104.5, 38.07 100.41 C40.81 96.31, 43.69 92.3, 46.69 88.39 C49.68 84.48, 52.82 80.66, 56.06 76.96 C59.31 73.26, 62.69 69.65, 66.17 66.17 C69.65 62.69, 73.26 59.31, 76.96 56.06 C80.66 52.82, 84.48 49.68, 88.39 46.69 C92.3 43.69, 96.31 40.81, 100.41 38.07 C104.5 35.34, 108.7 32.73, 112.96 30.27 C117.23 27.81, 121.58 25.48, 126 23.3 C130.42 21.12, 134.91 19.08, 139.47 17.2 C144.02 15.31, 148.64 13.57, 153.3 11.99 C157.97 10.41, 162.69 8.97, 167.45 7.7 C172.21 6.42, 177.02 5.3, 181.85 4.34 C186.68 3.38, 191.55 2.58, 196.43 1.93 C201.32 1.29, 206.23 0.81, 211.15 0.48 C216.06 0.16, 221 0, 225.92 0 C230.85 0, 235.78 0.16, 240.7 0.48 C245.61 0.81, 250.53 1.29, 255.41 1.93 C260.29 2.58, 265.17 3.38, 270 4.34 C274.83 5.3, 279.64 6.42, 284.39 7.7 C289.15 8.97, 293.88 10.41, 298.54 11.99 C303.21 13.57, 307.83 15.31, 312.38 17.2 C316.93 19.08, 321.43 21.12, 325.84 23.3 C330.26 25.48, 334.62 27.81, 338.88 30.27 C343.15 32.73, 347.34 35.34, 351.44 38.07 C355.53 40.81, 359.55 43.69, 363.45 46.69 C367.36 49.68, 371.18 52.82, 374.88 56.06 C378.59 59.31, 382.19 62.69, 385.67 66.17 C389.16 69.65, 392.53 73.26, 395.78 76.96 C399.03 80.66, 402.16 84.48, 405.16 88.39 C408.16 92.3, 411.03 96.31, 413.77 100.41 C416.51 104.5, 419.11 108.7, 421.58 112.96 C424.04 117.23, 426.37 121.58, 428.55 126 C430.72 130.42, 432.76 134.91, 434.65 139.47 C436.53 144.02, 438.27 148.64, 439.85 153.3 C441.44 157.97, 442.87 162.69, 444.15 167.45 C445.42 172.21, 446.54 177.02, 447.5 181.85 C448.46 186.68, 449.27 191.55, 449.91 196.43 C450.55 201.32, 451.04 206.23, 451.36 211.15 C451.68 216.06, 451.84 221, 451.84 225.92" stroke="#E1E1E1" stroke-width="4" fill="none"></path></g><g stroke-linecap="round"><g transform="translate(465.6679495215239 768.2721657096299) rotate(0 -175.78085723574185 -216.81821348765754)"><path d="M0 0 C3.63 -3.35, 13.95 -12.45, 21.79 -20.08 C29.63 -27.71, 39.16 -35.1, 47.04 -45.78 C54.91 -56.46, 62.73 -71.42, 69.05 -84.15 C75.37 -96.87, 80.09 -109.29, 84.98 -122.15 C89.87 -135.01, 95.21 -144.93, 98.38 -161.3 C101.55 -177.67, 103.84 -201.27, 103.99 -220.35 C104.14 -239.44, 103.43 -257.11, 99.3 -275.82 C95.18 -294.52, 88.11 -314.28, 79.24 -332.6 C70.38 -350.91, 58.49 -369.95, 46.12 -385.71 C33.75 -401.47, 19.81 -414.45, 5 -427.14 C-9.82 -439.84, -24.87 -451.96, -42.75 -461.87 C-60.63 -471.77, -83.32 -481.04, -102.28 -486.58 C-121.23 -492.13, -137.68 -494.23, -156.46 -495.13 C-175.23 -496.02, -196.3 -494.68, -214.94 -491.94 C-233.58 -489.2, -248.88 -486.26, -268.3 -478.69 C-287.72 -471.13, -312.78 -458.58, -331.44 -446.53 C-350.1 -434.48, -364.9 -423.36, -380.26 -406.39 C-395.62 -389.41, -412.28 -366.55, -423.61 -344.69 C-434.94 -322.84, -442.9 -297.82, -448.22 -275.25 C-453.55 -252.69, -456.28 -232.69, -455.55 -209.3 C-454.82 -185.92, -450.71 -158.2, -443.85 -134.93 C-437 -111.66, -427.45 -90.23, -414.42 -69.68 C-401.39 -49.12, -385.46 -29.15, -365.69 -11.61 C-345.93 5.93, -319.16 23.75, -295.83 35.59 C-272.5 47.42, -249.69 55.07, -225.71 59.39 C-201.73 63.71, -174.28 63.14, -151.94 61.49 C-129.6 59.84, -111.61 55.99, -91.68 49.48 C-71.75 42.97, -42.24 26.93, -32.35 22.42 M0 0 C3.63 -3.35, 13.95 -12.45, 21.79 -20.08 C29.63 -27.71, 39.16 -35.1, 47.04 -45.78 C54.91 -56.46, 62.73 -71.42, 69.05 -84.15 C75.37 -96.87, 80.09 -109.29, 84.98 -122.15 C89.87 -135.01, 95.21 -144.93, 98.38 -161.3 C101.55 -177.67, 103.84 -201.27, 103.99 -220.35 C104.14 -239.44, 103.43 -257.11, 99.3 -275.82 C95.18 -294.52, 88.11 -314.28, 79.24 -332.6 C70.38 -350.91, 58.49 -369.95, 46.12 -385.71 C33.75 -401.47, 19.81 -414.45, 5 -427.14 C-9.82 -439.84, -24.87 -451.96, -42.75 -461.87 C-60.63 -471.77, -83.32 -481.04, -102.28 -486.58 C-121.23 -492.13, -137.68 -494.23, -156.46 -495.13 C-175.23 -496.02, -196.3 -494.68, -214.94 -491.94 C-233.58 -489.2, -248.88 -486.26, -268.3 -478.69 C-287.72 -471.13, -312.78 -458.58, -331.44 -446.53 C-350.1 -434.48, -364.9 -423.36, -380.26 -406.39 C-395.62 -389.41, -412.28 -366.55, -423.61 -344.69 C-434.94 -322.84, -442.9 -297.82, -448.22 -275.25 C-453.55 -252.69, -456.28 -232.69, -455.55 -209.3 C-454.82 -185.92, -450.71 -158.2, -443.85 -134.93 C-437 -111.66, -427.45 -90.23, -414.42 -69.68 C-401.39 -49.12, -385.46 -29.15, -365.69 -11.61 C-345.93 5.93, -319.16 23.75, -295.83 35.59 C-272.5 47.42, -249.69 55.07, -225.71 59.39 C-201.73 63.71, -174.28 63.14, -151.94 61.49 C-129.6 59.84, -111.61 55.99, -91.68 49.48 C-71.75 42.97, -42.24 26.93, -32.35 22.42" stroke="#E1E1E1" stroke-width="4" fill="none"></path></g></g><mask></mask><g stroke-linecap="round"><g transform="translate(289.79897354543834 358.0854655228458) rotate(0 0 15.332026513222786)"><path d="M0 0 C0 5.11, 0 25.55, 0 30.66 M0 0 C0 5.11, 0 25.55, 0 30.66" stroke="#E1E1E1" stroke-width="4" fill="none"></path></g></g><mask></mask><g stroke-linecap="round"><g transform="translate(387.45611390947937 384.31209856344543) rotate(0 -8.204621999984495 14.210822160870926)"><path d="M0 0 C-2.73 4.74, -13.67 23.68, -16.41 28.42 M0 0 C-2.73 4.74, -13.67 23.68, -16.41 28.42" stroke="#E1E1E1" stroke-width="4" fill="none"></path></g></g><mask></mask><g stroke-linecap="round"><g transform="translate(458.39416931652335 454.38301037856394) rotate(0 -13.956715727481818 8.057913582263664)"><path d="M0 0 C-4.65 2.69, -23.26 13.43, -27.91 16.12 M0 0 C-4.65 2.69, -23.26 13.43, -27.91 16.12" stroke="#E1E1E1" stroke-width="4" fill="none"></path></g></g><mask></mask><g stroke-linecap="round"><g transform="translate(483.557391697067 551.3728427109581) rotate(0 -15.866408212362565 0)"><path d="M0 0 C-5.29 0, -26.44 0, -31.73 0 M0 0 C-5.29 0, -26.44 0, -31.73 0" stroke="#E1E1E1" stroke-width="4" fill="none"></path></g></g><mask></mask><g stroke-linecap="round"><g transform="translate(459.02400818061955 648.3947914726814) rotate(0 -14.155379062996325 -8.172611912502362)"><path d="M0 0 C-4.72 -2.72, -23.59 -13.62, -28.31 -16.35 M0 0 C-4.72 -2.72, -23.59 -13.62, -28.31 -16.35" stroke="#E1E1E1" stroke-width="4" fill="none"></path></g></g><mask></mask><g stroke-linecap="round"><g transform="translate(386.7673949249465 719.6343844662197) rotate(0 -8.000515987885038 -13.857300177783017)"><path d="M0 0 C-2.67 -4.62, -13.33 -23.1, -16 -27.71 M0 0 C-2.67 -4.62, -13.33 -23.1, -16 -27.71" stroke="#E1E1E1" stroke-width="4" fill="none"></path></g></g><mask></mask><g stroke-linecap="round"><g transform="translate(291.13002111658705 744.5995555325508) rotate(0 0 -16.03145097420054)"><path d="M0 0 C0 -5.34, 0 -26.72, 0 -32.06 M0 0 C0 -5.34, 0 -26.72, 0 -32.06" stroke="#E1E1E1" stroke-width="4" fill="none"></path></g></g><mask></mask><g stroke-linecap="round"><g transform="translate(192.5789734695071 718.4068231673618) rotate(0 8.18512631173185 -14.177054638286592)"><path d="M0 0 C2.73 -4.73, 13.64 -23.63, 16.37 -28.35 M0 0 C2.73 -4.73, 13.64 -23.63, 16.37 -28.35" stroke="#E1E1E1" stroke-width="4" fill="none"></path></g></g><mask></mask><g stroke-linecap="round"><g transform="translate(120.8665552663823 650.2486231434891) rotate(0 14.62521216186758 -8.443870178610283)"><path d="M0 0 C4.88 -2.81, 24.38 -14.07, 29.25 -16.89 M0 0 C4.88 -2.81, 24.38 -14.07, 29.25 -16.89" stroke="#E1E1E1" stroke-width="4" fill="none"></path></g></g><mask></mask><g stroke-linecap="round"><g transform="translate(96.18864781794662 552.1382842766652) rotate(0 16.424877233500382 0)"><path d="M0 0 C5.47 0, 27.37 0, 32.85 0 M0 0 C5.47 0, 27.37 0, 32.85 0" stroke="#E1E1E1" stroke-width="4" fill="none"></path></g></g><mask></mask><g stroke-linecap="round"><g transform="translate(122.1208802563441 454.7862499912639) rotate(0 14.03886131994264 8.105340362183432)"><path d="M0 0 C4.68 2.7, 23.4 13.51, 28.08 16.21 M0 0 C4.68 2.7, 23.4 13.51, 28.08 16.21" stroke="#E1E1E1" stroke-width="4" fill="none"></path></g></g><mask></mask><g stroke-linecap="round"><g transform="translate(194.56840784192616 384.29425610269794) rotate(0 7.562751670278999 13.09907013795019)"><path d="M0 0 C2.52 4.37, 12.6 21.83, 15.13 26.2 M0 0 C2.52 4.37, 12.6 21.83, 15.13 26.2" stroke="#E1E1E1" stroke-width="4" fill="none"></path></g></g><mask></mask><g stroke-linecap="round" transform="translate(279.7804318403586 539.0918769841364) rotate(0 11.443262195107891 11.443262195107891)"><path d="M22.89 11.44 C22.89 12.11, 22.83 12.78, 22.71 13.43 C22.6 14.08, 22.42 14.73, 22.2 15.36 C21.97 15.98, 21.68 16.59, 21.35 17.16 C21.02 17.74, 20.64 18.29, 20.21 18.8 C19.78 19.31, 19.31 19.78, 18.8 20.21 C18.29 20.64, 17.74 21.02, 17.16 21.35 C16.59 21.68, 15.98 21.97, 15.36 22.2 C14.73 22.42, 14.08 22.6, 13.43 22.71 C12.78 22.83, 12.11 22.89, 11.44 22.89 C10.78 22.89, 10.11 22.83, 9.46 22.71 C8.8 22.6, 8.15 22.42, 7.53 22.2 C6.91 21.97, 6.3 21.68, 5.72 21.35 C5.15 21.02, 4.6 20.64, 4.09 20.21 C3.58 19.78, 3.1 19.31, 2.68 18.8 C2.25 18.29, 1.86 17.74, 1.53 17.16 C1.2 16.59, 0.92 15.98, 0.69 15.36 C0.46 14.73, 0.29 14.08, 0.17 13.43 C0.06 12.78, 0 12.11, 0 11.44 C0 10.78, 0.06 10.11, 0.17 9.46 C0.29 8.8, 0.46 8.15, 0.69 7.53 C0.92 6.91, 1.2 6.3, 1.53 5.72 C1.86 5.15, 2.25 4.6, 2.68 4.09 C3.1 3.58, 3.58 3.1, 4.09 2.68 C4.6 2.25, 5.15 1.86, 5.72 1.53 C6.3 1.2, 6.91 0.92, 7.53 0.69 C8.15 0.46, 8.8 0.29, 9.46 0.17 C10.11 0.06, 10.78 0, 11.44 0 C12.11 0, 12.78 0.06, 13.43 0.17 C14.08 0.29, 14.73 0.46, 15.36 0.69 C15.98 0.92, 16.59 1.2, 17.16 1.53 C17.74 1.86, 18.29 2.25, 18.8 2.68 C19.31 3.1, 19.78 3.58, 20.21 4.09 C20.64 4.6, 21.02 5.15, 21.35 5.72 C21.68 6.3, 21.97 6.91, 22.2 7.53 C22.42 8.15, 22.6 8.8, 22.71 9.46 C22.83 10.11, 22.86 11.11, 22.89 11.44 C22.92 11.77, 22.92 11.11, 22.89 11.44" stroke="#E1E1E1" stroke-width="4" fill="none"></path></g><g stroke-linecap="round"><g transform="translate(291.55110319003404 537.3754322610139) rotate(0 0 -54.789736314999296)"><path d="M0 0 C0 -18.26, 0 -91.32, 0 -109.58 M0 0 C0 -18.26, 0 -91.32, 0 -109.58" stroke="#E1E1E1" stroke-width="4" fill="none"></path></g></g><mask></mask><g stroke-linecap="round"><g transform="translate(281.134674610469 558.1601147761467) rotate(0 -41.05303605970035 23.70198142011874)"><path d="M0 0 C-13.68 7.9, -68.42 39.5, -82.11 47.4 M0 0 C-13.68 7.9, -68.42 39.5, -82.11 47.4" stroke="#E1E1E1" stroke-width="4" fill="none"></path></g></g><mask></mask><g stroke-linecap="round"><g transform="translate(627.0567290470228 228.64006577268253) rotate(180.24114496223902 -11.369077219270025 -80.1514897016844)"><path d="M0 0 C-19.69 19.61, -39.38 39.23, -58.77 58.54 M0 0 C-20.11 20.03, -40.22 40.06, -58.77 58.54 M-58.77 58.54 C-75.79 41.55, -92.81 24.55, -101.61 15.77 M-58.77 58.54 C-73.67 43.66, -88.57 28.79, -101.61 15.77 M-101.61 15.77 C-77.86 -8.14, -54.11 -32.06, -7.03 -79.46 M-101.61 15.77 C-67.88 -18.19, -34.15 -52.15, -7.03 -79.46 M-7.03 -79.46 C-30.11 -103.08, -53.19 -126.71, -101.09 -175.75 M-7.03 -79.46 C-28.57 -101.5, -50.1 -123.55, -101.09 -175.75 M-101.09 -175.75 C-89.55 -187.39, -78 -199.03, -58.34 -218.84 M-101.09 -175.75 C-92.48 -184.43, -83.86 -193.12, -58.34 -218.84 M-58.34 -218.84 C-24.42 -184.61, 9.49 -150.39, 78.87 -80.37 M-58.34 -218.84 C-10.81 -170.87, 36.72 -122.9, 78.87 -80.37 M78.87 -80.37 C63.07 -64.14, 47.27 -47.91, 29.61 -29.77 M78.87 -80.37 C62.59 -63.64, 46.31 -46.92, 29.61 -29.77" stroke="#E1E1E1" stroke-width="4" fill="none"></path></g></g><mask></mask><g stroke-linecap="round"><g transform="translate(385.00965161836973 242.75361343330817) rotate(180.24114496223902 89.24675147710116 -95.25126618722467)"><path d="M0 0 C11.74 11.85, 23.48 23.7, 41.61 41.99 M0 0 C10.87 10.97, 21.73 21.93, 41.61 41.99 M41.61 41.99 C92.36 -9.24, 143.1 -60.47, 178.49 -96.2 M41.61 41.99 C71.67 11.64, 101.74 -18.71, 178.49 -96.2 M178.49 -96.2 C149.78 -125.14, 121.06 -154.08, 43.22 -232.5 M178.49 -96.2 C148.33 -126.59, 118.17 -156.98, 43.22 -232.5 M43.22 -232.5 C31.53 -220.27, 19.84 -208.04, 1.87 -189.26 M43.22 -232.5 C34.95 -223.84, 26.67 -215.19, 1.87 -189.26 M1.87 -189.26 C28.27 -162.17, 54.67 -135.08, 95.04 -93.65 M1.87 -189.26 C22.55 -168.04, 43.23 -146.82, 95.04 -93.65 M95.04 -93.65 C63.53 -62.6, 32.02 -31.55, 0 0 M95.04 -93.65 C70.32 -69.29, 45.6 -44.94, 0 0" stroke="#E1E1E1" stroke-width="4" fill="none"></path></g></g><mask></mask><g stroke-linecap="round"><g transform="translate(499.0844350853512 231.14028554294276) rotate(180.24114496223902 18.452291590979222 18.035750673622772)"><path d="M0 0 C8.18 8, 16.36 16, 36.9 36.07 M0 0 C14.34 14.02, 28.68 28.03, 36.9 36.07" stroke="#E1E1E1" stroke-width="4" fill="none"></path></g></g><mask></mask><g stroke-linecap="round" transform="translate(480.1322592348981 212.26603108669906) rotate(180.24114496223902 6.122276681912851 6.122276681912851)"><path d="M12.24 6.12 C12.24 6.48, 12.21 6.84, 12.15 7.19 C12.09 7.53, 12 7.88, 11.88 8.22 C11.75 8.55, 11.6 8.88, 11.42 9.18 C11.25 9.49, 11.04 9.79, 10.81 10.06 C10.58 10.33, 10.33 10.58, 10.06 10.81 C9.79 11.04, 9.49 11.25, 9.18 11.42 C8.88 11.6, 8.55 11.75, 8.22 11.88 C7.88 12, 7.53 12.09, 7.19 12.15 C6.84 12.21, 6.48 12.24, 6.12 12.24 C5.77 12.24, 5.41 12.21, 5.06 12.15 C4.71 12.09, 4.36 12, 4.03 11.88 C3.7 11.75, 3.37 11.6, 3.06 11.42 C2.75 11.25, 2.46 11.04, 2.19 10.81 C1.92 10.58, 1.66 10.33, 1.43 10.06 C1.2 9.79, 1 9.49, 0.82 9.18 C0.64 8.88, 0.49 8.55, 0.37 8.22 C0.25 7.88, 0.15 7.53, 0.09 7.19 C0.03 6.84, 0 6.48, 0 6.12 C0 5.77, 0.03 5.41, 0.09 5.06 C0.15 4.71, 0.25 4.36, 0.37 4.03 C0.49 3.7, 0.64 3.37, 0.82 3.06 C1 2.75, 1.2 2.46, 1.43 2.19 C1.66 1.92, 1.92 1.66, 2.19 1.43 C2.46 1.2, 2.75 1, 3.06 0.82 C3.37 0.64, 3.7 0.49, 4.03 0.37 C4.36 0.25, 4.71 0.15, 5.06 0.09 C5.41 0.03, 5.77 0, 6.12 0 C6.48 0, 6.84 0.03, 7.19 0.09 C7.53 0.15, 7.88 0.25, 8.22 0.37 C8.55 0.49, 8.88 0.64, 9.18 0.82 C9.49 1, 9.79 1.2, 10.06 1.43 C10.33 1.66, 10.58 1.92, 10.81 2.19 C11.04 2.46, 11.25 2.75, 11.42 3.06 C11.6 3.37, 11.75 3.7, 11.88 4.03 C12 4.36, 12.09 4.71, 12.15 5.06 C12.21 5.41, 12.23 5.95, 12.24 6.12 C12.26 6.3, 12.26 5.95, 12.24 6.12" stroke="#E1E1E1" stroke-width="4" fill="none"></path></g><g stroke-linecap="round" transform="translate(582.9515174534303 76.83390411315924) rotate(180.24114496223902 6.122276681912851 6.122276681912865)"><path d="M12.24 6.12 C12.24 6.48, 12.21 6.84, 12.15 7.19 C12.09 7.53, 12 7.88, 11.88 8.22 C11.75 8.55, 11.6 8.88, 11.42 9.18 C11.25 9.49, 11.04 9.79, 10.81 10.06 C10.58 10.33, 10.33 10.58, 10.06 10.81 C9.79 11.04, 9.49 11.25, 9.18 11.42 C8.88 11.6, 8.55 11.75, 8.22 11.88 C7.88 12, 7.53 12.09, 7.19 12.15 C6.84 12.21, 6.48 12.24, 6.12 12.24 C5.77 12.24, 5.41 12.21, 5.06 12.15 C4.71 12.09, 4.36 12, 4.03 11.88 C3.7 11.75, 3.37 11.6, 3.06 11.42 C2.75 11.25, 2.46 11.04, 2.19 10.81 C1.92 10.58, 1.66 10.33, 1.43 10.06 C1.2 9.79, 1 9.49, 0.82 9.18 C0.64 8.88, 0.49 8.55, 0.37 8.22 C0.25 7.88, 0.15 7.53, 0.09 7.19 C0.03 6.84, 0 6.48, 0 6.12 C0 5.77, 0.03 5.41, 0.09 5.06 C0.15 4.71, 0.25 4.36, 0.37 4.03 C0.49 3.7, 0.64 3.37, 0.82 3.06 C1 2.75, 1.2 2.46, 1.43 2.19 C1.66 1.92, 1.92 1.66, 2.19 1.43 C2.46 1.2, 2.75 1, 3.06 0.82 C3.37 0.64, 3.7 0.49, 4.03 0.37 C4.36 0.25, 4.71 0.15, 5.06 0.09 C5.41 0.03, 5.77 0, 6.12 0 C6.48 0, 6.84 0.03, 7.19 0.09 C7.53 0.15, 7.88 0.25, 8.22 0.37 C8.55 0.49, 8.88 0.64, 9.18 0.82 C9.49 1, 9.79 1.2, 10.06 1.43 C10.33 1.66, 10.58 1.92, 10.81 2.19 C11.04 2.46, 11.25 2.75, 11.42 3.06 C11.6 3.37, 11.75 3.7, 11.88 4.03 C12 4.36, 12.09 4.71, 12.15 5.06 C12.21 5.41, 12.23 5.95, 12.24 6.12 C12.26 6.3, 12.26 5.95, 12.24 6.12" stroke="#E1E1E1" stroke-width="4" fill="none"></path></g></svg>