<svg version="1.1" xmlns="http://www.w3.org/2000/svg" viewBox="0 0 466.487873020758 466.6215847820333" width="466.487873020758" height="466.6215847820333" class="excalidraw-svg"><!-- svg-source:excalidraw --><metadata></metadata><defs><style class="style-fonts">
      </style></defs><rect x="0" y="0" width="466.487873020758" height="466.6215847820333" fill="#000000"></rect><g stroke-linecap="round"><g transform="translate(154.71634503300152 210.2664102976541) rotate(0 1.7727669435206792 99.81602738747159)"><path d="M0 0 C2.87 -2.95, 11.3 -11.85, 17.21 -17.69 C23.11 -23.52, 31.18 -30.83, 35.45 -35.02 C39.71 -39.21, 40.25 -40.92, 42.78 -42.84 C45.3 -44.75, 47.69 -45.9, 50.61 -46.51 C53.53 -47.11, 57.13 -47.19, 60.3 -46.47 C63.47 -45.75, 66.95 -44.31, 69.61 -42.18 C72.27 -40.04, 74.98 -36.87, 76.28 -33.64 C77.57 -30.41, 77.89 -26.33, 77.37 -22.81 C76.84 -19.28, 76.03 -16.47, 73.11 -12.5 C70.19 -8.54, 65.34 -4.49, 59.86 0.98 C54.38 6.45, 44.67 15.89, 40.21 20.3 C35.76 24.71, 34.79 25.73, 33.13 27.43 C31.48 29.12, 30.24 29.34, 30.29 30.45 C30.35 31.55, 30.12 30.71, 33.45 34.04 C36.78 37.37, 44.96 45.14, 50.27 50.43 C55.58 55.71, 61.99 62.37, 65.31 65.74 C68.63 69.12, 68.45 70.49, 70.19 70.7 C71.93 70.9, 70.79 71.71, 75.75 66.99 C80.71 62.27, 93.67 48.59, 99.95 42.37 C106.23 36.15, 109.86 32.46, 113.42 29.67 C116.98 26.89, 118.55 26.52, 121.31 25.65 C124.07 24.77, 127.04 24.04, 129.99 24.42 C132.95 24.8, 136.6 26.27, 139.04 27.9 C141.47 29.53, 143.12 31.74, 144.61 34.22 C146.09 36.7, 147.58 39.69, 147.97 42.78 C148.36 45.88, 147.82 49.88, 146.93 52.81 C146.05 55.74, 145.38 57.13, 142.69 60.37 C139.99 63.61, 135.98 67.04, 130.79 72.26 C125.61 77.48, 116.31 87.02, 111.59 91.7 C106.86 96.38, 103.68 98.25, 102.45 100.34 C101.21 102.44, 102.52 102.31, 104.16 104.28 C105.81 106.26, 110.29 110.13, 112.31 112.2 C114.33 114.28, 115.27 115.33, 116.28 116.72 C117.29 118.12, 118.06 119.04, 118.37 120.56 C118.68 122.08, 119.72 123.32, 118.12 125.84 C116.52 128.36, 113.34 131.13, 108.75 135.68 C104.17 140.24, 97.21 146.69, 90.61 153.16 C84 159.63, 74.57 169.07, 69.1 174.5 C63.63 179.93, 62.38 182.26, 57.8 185.74 C53.22 189.22, 46.81 193.22, 41.63 195.39 C36.45 197.55, 32.49 198.41, 26.7 198.72 C20.9 199.03, 12.65 198.3, 6.87 197.25 C1.09 196.21, -3.47 194.7, -7.97 192.43 C-12.47 190.17, -17.48 184.72, -20.11 183.69 C-22.75 182.65, -22.28 185.06, -23.77 186.21 C-25.26 187.36, -26.42 189.28, -29.07 190.56 C-31.72 191.85, -36.21 193.67, -39.67 193.92 C-43.13 194.17, -47.19 192.94, -49.81 192.06 C-52.43 191.19, -53.71 188.62, -55.39 188.69 C-57.07 188.75, -55.6 188.29, -59.89 192.46 C-64.19 196.64, -74.3 206.87, -81.15 213.72 C-88 220.58, -96.14 228.71, -101 233.58 C-105.87 238.44, -107.89 240.8, -110.32 242.89 C-112.75 244.99, -113.86 245.75, -115.58 246.14 C-117.3 246.52, -118.6 246.51, -120.64 245.2 C-122.68 243.88, -124.34 241.7, -127.81 238.27 C-131.29 234.84, -138.71 227.76, -141.48 224.61 C-144.24 221.45, -144.11 221.02, -144.42 219.35 C-144.73 217.68, -145.22 217.09, -143.33 214.59 C-141.44 212.09, -138.89 210.16, -133.08 204.35 C-127.27 198.54, -115.47 186.74, -108.47 179.73 C-101.47 172.73, -94.63 165.93, -91.07 162.33 C-87.51 158.74, -87.48 159.56, -87.12 158.17 C-86.76 156.78, -88.21 155.47, -88.93 153.99 C-89.64 152.5, -90.86 151.36, -91.42 149.28 C-91.97 147.19, -92.27 143.83, -92.24 141.48 C-92.2 139.14, -91.93 137.25, -91.19 135.2 C-90.45 133.15, -88.93 130.86, -87.79 129.17 C-86.65 127.47, -85.4 126.23, -84.37 125.05 C-83.34 123.86, -81.75 123.22, -81.63 122.08 C-81.52 120.94, -82.76 119.47, -83.69 118.2 C-84.61 116.93, -85.86 116.38, -87.17 114.45 C-88.49 112.52, -90.3 109.22, -91.56 106.61 C-92.81 104, -93.91 101.36, -94.7 98.81 C-95.48 96.26, -95.82 94.1, -96.26 91.34 C-96.7 88.57, -97.36 85.88, -97.34 82.22 C-97.31 78.56, -97.24 74.22, -96.12 69.39 C-94.99 64.55, -93.31 58.23, -90.56 53.21 C-87.81 48.18, -84.13 44.33, -79.63 39.25 C-75.13 34.16, -70.17 29.3, -63.57 22.68 C-56.98 16.07, -45.46 4.9, -40.07 -0.46 C-34.68 -5.81, -33.83 -6.79, -31.21 -9.43 C-28.6 -12.08, -26.34 -14.99, -24.36 -16.34 C-22.38 -17.68, -20.97 -17.75, -19.34 -17.5 C-17.71 -17.25, -16.58 -16.53, -14.6 -14.84 C-12.62 -13.15, -9.92 -9.81, -7.48 -7.33 C-5.05 -4.86, -1.25 -1.22, 0 0 M0 0 C2.87 -2.95, 11.3 -11.85, 17.21 -17.69 C23.11 -23.52, 31.18 -30.83, 35.45 -35.02 C39.71 -39.21, 40.25 -40.92, 42.78 -42.84 C45.3 -44.75, 47.69 -45.9, 50.61 -46.51 C53.53 -47.11, 57.13 -47.19, 60.3 -46.47 C63.47 -45.75, 66.95 -44.31, 69.61 -42.18 C72.27 -40.04, 74.98 -36.87, 76.28 -33.64 C77.57 -30.41, 77.89 -26.33, 77.37 -22.81 C76.84 -19.28, 76.03 -16.47, 73.11 -12.5 C70.19 -8.54, 65.34 -4.49, 59.86 0.98 C54.38 6.45, 44.67 15.89, 40.21 20.3 C35.76 24.71, 34.79 25.73, 33.13 27.43 C31.48 29.12, 30.24 29.34, 30.29 30.45 C30.35 31.55, 30.12 30.71, 33.45 34.04 C36.78 37.37, 44.96 45.14, 50.27 50.43 C55.58 55.71, 61.99 62.37, 65.31 65.74 C68.63 69.12, 68.45 70.49, 70.19 70.7 C71.93 70.9, 70.79 71.71, 75.75 66.99 C80.71 62.27, 93.67 48.59, 99.95 42.37 C106.23 36.15, 109.86 32.46, 113.42 29.67 C116.98 26.89, 118.55 26.52, 121.31 25.65 C124.07 24.77, 127.04 24.04, 129.99 24.42 C132.95 24.8, 136.6 26.27, 139.04 27.9 C141.47 29.53, 143.12 31.74, 144.61 34.22 C146.09 36.7, 147.58 39.69, 147.97 42.78 C148.36 45.88, 147.82 49.88, 146.93 52.81 C146.05 55.74, 145.38 57.13, 142.69 60.37 C139.99 63.61, 135.98 67.04, 130.79 72.26 C125.61 77.48, 116.31 87.02, 111.59 91.7 C106.86 96.38, 103.68 98.25, 102.45 100.34 C101.21 102.44, 102.52 102.31, 104.16 104.28 C105.81 106.26, 110.29 110.13, 112.31 112.2 C114.33 114.28, 115.27 115.33, 116.28 116.72 C117.29 118.12, 118.06 119.04, 118.37 120.56 C118.68 122.08, 119.72 123.32, 118.12 125.84 C116.52 128.36, 113.34 131.13, 108.75 135.68 C104.17 140.24, 97.21 146.69, 90.61 153.16 C84 159.63, 74.57 169.07, 69.1 174.5 C63.63 179.93, 62.38 182.26, 57.8 185.74 C53.22 189.22, 46.81 193.22, 41.63 195.39 C36.45 197.55, 32.49 198.41, 26.7 198.72 C20.9 199.03, 12.65 198.3, 6.87 197.25 C1.09 196.21, -3.47 194.7, -7.97 192.43 C-12.47 190.17, -17.48 184.72, -20.11 183.69 C-22.75 182.65, -22.28 185.06, -23.77 186.21 C-25.26 187.36, -26.42 189.28, -29.07 190.56 C-31.72 191.85, -36.21 193.67, -39.67 193.92 C-43.13 194.17, -47.19 192.94, -49.81 192.06 C-52.43 191.19, -53.71 188.62, -55.39 188.69 C-57.07 188.75, -55.6 188.29, -59.89 192.46 C-64.19 196.64, -74.3 206.87, -81.15 213.72 C-88 220.58, -96.14 228.71, -101 233.58 C-105.87 238.44, -107.89 240.8, -110.32 242.89 C-112.75 244.99, -113.86 245.75, -115.58 246.14 C-117.3 246.52, -118.6 246.51, -120.64 245.2 C-122.68 243.88, -124.34 241.7, -127.81 238.27 C-131.29 234.84, -138.71 227.76, -141.48 224.61 C-144.24 221.45, -144.11 221.02, -144.42 219.35 C-144.73 217.68, -145.22 217.09, -143.33 214.59 C-141.44 212.09, -138.89 210.16, -133.08 204.35 C-127.27 198.54, -115.47 186.74, -108.47 179.73 C-101.47 172.73, -94.63 165.93, -91.07 162.33 C-87.51 158.74, -87.48 159.56, -87.12 158.17 C-86.76 156.78, -88.21 155.47, -88.93 153.99 C-89.64 152.5, -90.86 151.36, -91.42 149.28 C-91.97 147.19, -92.27 143.83, -92.24 141.48 C-92.2 139.14, -91.93 137.25, -91.19 135.2 C-90.45 133.15, -88.93 130.86, -87.79 129.17 C-86.65 127.47, -85.4 126.23, -84.37 125.05 C-83.34 123.86, -81.75 123.22, -81.63 122.08 C-81.52 120.94, -82.76 119.47, -83.69 118.2 C-84.61 116.93, -85.86 116.38, -87.17 114.45 C-88.49 112.52, -90.3 109.22, -91.56 106.61 C-92.81 104, -93.91 101.36, -94.7 98.81 C-95.48 96.26, -95.82 94.1, -96.26 91.34 C-96.7 88.57, -97.36 85.88, -97.34 82.22 C-97.31 78.56, -97.24 74.22, -96.12 69.39 C-94.99 64.55, -93.31 58.23, -90.56 53.21 C-87.81 48.18, -84.13 44.33, -79.63 39.25 C-75.13 34.16, -70.17 29.3, -63.57 22.68 C-56.98 16.07, -45.46 4.9, -40.07 -0.46 C-34.68 -5.81, -33.83 -6.79, -31.21 -9.43 C-28.6 -12.08, -26.34 -14.99, -24.36 -16.34 C-22.38 -17.68, -20.97 -17.75, -19.34 -17.5 C-17.71 -17.25, -16.58 -16.53, -14.6 -14.84 C-12.62 -13.15, -9.92 -9.81, -7.48 -7.33 C-5.05 -4.86, -1.25 -1.22, 0 0" stroke="#E1E1E1" stroke-width="4" fill="none"></path></g></g><mask></mask><g stroke-linecap="round"><g transform="translate(172.39954935895526 213.2511230757886) rotate(0 18.534033543586915 -8.943679408361987)" fill-rule="evenodd"><path d="M0 0 C3.47 -3.47, 15.44 -15.44, 20.8 -20.8 C26.16 -26.16, 29.32 -29.85, 32.16 -32.16 C35.01 -34.48, 36.17 -34.44, 37.89 -34.69 C39.61 -34.94, 41.38 -34.53, 42.49 -33.65 C43.6 -32.78, 44.29 -30.85, 44.53 -29.44 C44.77 -28.02, 45.29 -27.29, 43.93 -25.15 C42.57 -23.01, 40.62 -20.99, 36.37 -16.58 C32.13 -12.17, 23.2 -3.41, 18.48 1.32 C13.76 6.04, 10.62 9.18, 8.04 11.76 C5.46 14.34, 4.43 16.41, 3 16.8 C1.57 17.2, 0.81 15.29, -0.54 14.13 C-1.9 12.96, -3.99 10.96, -5.14 9.83 C-6.29 8.7, -7.72 8.39, -7.46 7.34 C-7.21 6.29, -4.86 4.75, -3.61 3.53 C-2.37 2.3, -0.6 0.59, 0 0" stroke="none" stroke-width="0" fill="#FFFFFF" fill-rule="evenodd"></path><path d="M0 0 C3.47 -3.47, 15.44 -15.44, 20.8 -20.8 C26.16 -26.16, 29.32 -29.85, 32.16 -32.16 C35.01 -34.48, 36.17 -34.44, 37.89 -34.69 C39.61 -34.94, 41.38 -34.53, 42.49 -33.65 C43.6 -32.78, 44.29 -30.85, 44.53 -29.44 C44.77 -28.02, 45.29 -27.29, 43.93 -25.15 C42.57 -23.01, 40.62 -20.99, 36.37 -16.58 C32.13 -12.17, 23.2 -3.41, 18.48 1.32 C13.76 6.04, 10.62 9.18, 8.04 11.76 C5.46 14.34, 4.43 16.41, 3 16.8 C1.57 17.2, 0.81 15.29, -0.54 14.13 C-1.9 12.96, -3.99 10.96, -5.14 9.83 C-6.29 8.7, -7.72 8.39, -7.46 7.34 C-7.21 6.29, -4.86 4.75, -3.61 3.53 C-2.37 2.3, -0.6 0.59, 0 0 M0 0 C3.47 -3.47, 15.44 -15.44, 20.8 -20.8 C26.16 -26.16, 29.32 -29.85, 32.16 -32.16 C35.01 -34.48, 36.17 -34.44, 37.89 -34.69 C39.61 -34.94, 41.38 -34.53, 42.49 -33.65 C43.6 -32.78, 44.29 -30.85, 44.53 -29.44 C44.77 -28.02, 45.29 -27.29, 43.93 -25.15 C42.57 -23.01, 40.62 -20.99, 36.37 -16.58 C32.13 -12.17, 23.2 -3.41, 18.48 1.32 C13.76 6.04, 10.62 9.18, 8.04 11.76 C5.46 14.34, 4.43 16.41, 3 16.8 C1.57 17.2, 0.81 15.29, -0.54 14.13 C-1.9 12.96, -3.99 10.96, -5.14 9.83 C-6.29 8.7, -7.72 8.39, -7.46 7.34 C-7.21 6.29, -4.86 4.75, -3.61 3.53 C-2.37 2.3, -0.6 0.59, 0 0" stroke="#E1E1E1" stroke-width="4" fill="none"></path></g></g><mask></mask><g stroke-linecap="round"><g transform="translate(243.79946536667273 284.40086578977883) rotate(0 18.534033543586915 -8.943679408361984)" fill-rule="evenodd"><path d="M0 0 C3.47 -3.47, 15.44 -15.44, 20.8 -20.8 C26.16 -26.16, 29.32 -29.85, 32.16 -32.16 C35.01 -34.48, 36.17 -34.44, 37.89 -34.69 C39.61 -34.94, 41.38 -34.53, 42.49 -33.65 C43.6 -32.78, 44.29 -30.85, 44.53 -29.44 C44.77 -28.02, 45.29 -27.29, 43.93 -25.15 C42.57 -23.01, 40.62 -20.99, 36.37 -16.58 C32.13 -12.17, 23.2 -3.41, 18.48 1.32 C13.76 6.04, 10.62 9.18, 8.04 11.76 C5.46 14.34, 4.43 16.41, 3 16.8 C1.57 17.2, 0.81 15.29, -0.54 14.13 C-1.9 12.96, -3.99 10.96, -5.14 9.83 C-6.29 8.7, -7.72 8.39, -7.46 7.34 C-7.21 6.29, -4.86 4.75, -3.61 3.53 C-2.37 2.3, -0.6 0.59, 0 0" stroke="none" stroke-width="0" fill="#FFFFFF" fill-rule="evenodd"></path><path d="M0 0 C3.47 -3.47, 15.44 -15.44, 20.8 -20.8 C26.16 -26.16, 29.32 -29.85, 32.16 -32.16 C35.01 -34.48, 36.17 -34.44, 37.89 -34.69 C39.61 -34.94, 41.38 -34.53, 42.49 -33.65 C43.6 -32.78, 44.29 -30.85, 44.53 -29.44 C44.77 -28.02, 45.29 -27.29, 43.93 -25.15 C42.57 -23.01, 40.62 -20.99, 36.37 -16.58 C32.13 -12.17, 23.2 -3.41, 18.48 1.32 C13.76 6.04, 10.62 9.18, 8.04 11.76 C5.46 14.34, 4.43 16.41, 3 16.8 C1.57 17.2, 0.81 15.29, -0.54 14.13 C-1.9 12.96, -3.99 10.96, -5.14 9.83 C-6.29 8.7, -7.72 8.39, -7.46 7.34 C-7.21 6.29, -4.86 4.75, -3.61 3.53 C-2.37 2.3, -0.6 0.59, 0 0 M0 0 C3.47 -3.47, 15.44 -15.44, 20.8 -20.8 C26.16 -26.16, 29.32 -29.85, 32.16 -32.16 C35.01 -34.48, 36.17 -34.44, 37.89 -34.69 C39.61 -34.94, 41.38 -34.53, 42.49 -33.65 C43.6 -32.78, 44.29 -30.85, 44.53 -29.44 C44.77 -28.02, 45.29 -27.29, 43.93 -25.15 C42.57 -23.01, 40.62 -20.99, 36.37 -16.58 C32.13 -12.17, 23.2 -3.41, 18.48 1.32 C13.76 6.04, 10.62 9.18, 8.04 11.76 C5.46 14.34, 4.43 16.41, 3 16.8 C1.57 17.2, 0.81 15.29, -0.54 14.13 C-1.9 12.96, -3.99 10.96, -5.14 9.83 C-6.29 8.7, -7.72 8.39, -7.46 7.34 C-7.21 6.29, -4.86 4.75, -3.61 3.53 C-2.37 2.3, -0.6 0.59, 0 0" stroke="#E1E1E1" stroke-width="4" fill="none"></path></g></g><mask></mask><g stroke-linecap="round"><g transform="translate(120.62026446674349 358.82722865445425) rotate(0 42.86157340975217 -56.071939159330924)"><path d="M0 0 C-3.4 -3.36, -13.81 -13.54, -20.39 -20.14 C-26.97 -26.74, -35.04 -33.91, -39.49 -39.59 C-43.94 -45.27, -45.57 -48.84, -47.08 -54.2 C-48.59 -59.57, -48.97 -66.29, -48.56 -71.76 C-48.15 -77.23, -47.33 -81.79, -44.62 -87.01 C-41.91 -92.23, -38.28 -96.52, -32.29 -103.1 C-26.3 -109.68, -15.68 -119.55, -8.66 -126.49 C-1.64 -133.44, 6.16 -141.13, 9.81 -144.77 C13.45 -148.42, 12 -148.26, 13.23 -148.35 C14.46 -148.45, 14.46 -148.04, 17.21 -145.37 C19.97 -142.7, 24.57 -137.59, 29.76 -132.34 C34.95 -127.09, 40.83 -121.26, 48.35 -113.86 C55.88 -106.46, 66.43 -96.31, 74.93 -87.93 C83.43 -79.56, 91.12 -71.91, 99.38 -63.6 C107.63 -55.28, 118.64 -43.91, 124.45 -38.04 C130.27 -32.18, 132.73 -30.69, 134.28 -28.42 C135.83 -26.16, 135.63 -26.91, 133.76 -24.45 C131.9 -21.98, 128.59 -19.26, 123.08 -13.63 C117.56 -8, 107.51 2.57, 100.67 9.34 C93.83 16.1, 87 22.9, 82.03 26.96 C77.07 31.02, 74.09 32.23, 70.86 33.71 C67.64 35.19, 66.79 35.43, 62.7 35.85 C58.61 36.26, 51.21 36.91, 46.32 36.21 C41.42 35.51, 37.26 33.68, 33.31 31.66 C29.36 29.64, 26.8 27.9, 22.61 24.1 C18.43 20.3, 11.97 12.85, 8.2 8.84 C4.43 4.82, 1.37 1.47, 0 0 M0 0 C-3.4 -3.36, -13.81 -13.54, -20.39 -20.14 C-26.97 -26.74, -35.04 -33.91, -39.49 -39.59 C-43.94 -45.27, -45.57 -48.84, -47.08 -54.2 C-48.59 -59.57, -48.97 -66.29, -48.56 -71.76 C-48.15 -77.23, -47.33 -81.79, -44.62 -87.01 C-41.91 -92.23, -38.28 -96.52, -32.29 -103.1 C-26.3 -109.68, -15.68 -119.55, -8.66 -126.49 C-1.64 -133.44, 6.16 -141.13, 9.81 -144.77 C13.45 -148.42, 12 -148.26, 13.23 -148.35 C14.46 -148.45, 14.46 -148.04, 17.21 -145.37 C19.97 -142.7, 24.57 -137.59, 29.76 -132.34 C34.95 -127.09, 40.83 -121.26, 48.35 -113.86 C55.88 -106.46, 66.43 -96.31, 74.93 -87.93 C83.43 -79.56, 91.12 -71.91, 99.38 -63.6 C107.63 -55.28, 118.64 -43.91, 124.45 -38.04 C130.27 -32.18, 132.73 -30.69, 134.28 -28.42 C135.83 -26.16, 135.63 -26.91, 133.76 -24.45 C131.9 -21.98, 128.59 -19.26, 123.08 -13.63 C117.56 -8, 107.51 2.57, 100.67 9.34 C93.83 16.1, 87 22.9, 82.03 26.96 C77.07 31.02, 74.09 32.23, 70.86 33.71 C67.64 35.19, 66.79 35.43, 62.7 35.85 C58.61 36.26, 51.21 36.91, 46.32 36.21 C41.42 35.51, 37.26 33.68, 33.31 31.66 C29.36 29.64, 26.8 27.9, 22.61 24.1 C18.43 20.3, 11.97 12.85, 8.2 8.84 C4.43 4.82, 1.37 1.47, 0 0" stroke="#E1E1E1" stroke-width="4" fill="none"></path></g></g><mask></mask><g stroke-linecap="round"><g transform="translate(99.6228899724664 359.209121375346) rotate(0 1.5071552349705826 7.271813847644129)" fill-rule="evenodd"><path d="M0 0 C2.57 2.57, 11.75 11.73, 15.39 15.39 C19.03 19.05, 20.22 20.42, 21.81 21.98 C23.4 23.54, 25.1 23.78, 24.93 24.74 C24.77 25.71, 22.12 26.88, 20.83 27.76 C19.54 28.63, 18.51 29.52, 17.17 29.97 C15.83 30.42, 14.43 31.02, 12.79 30.48 C11.16 29.94, 10.25 29.32, 7.37 26.71 C4.49 24.1, -0.43 18.91, -4.5 14.84 C-8.58 10.76, -14.16 5.36, -17.07 2.27 C-19.97 -0.81, -21.12 -1.75, -21.92 -3.66 C-22.71 -5.58, -22.74 -7.18, -21.82 -9.22 C-20.91 -11.27, -18.21 -15.53, -16.44 -15.94 C-14.67 -16.34, -13.94 -14.32, -11.2 -11.66 C-8.46 -9.01, -1.87 -1.94, 0 0" stroke="none" stroke-width="0" fill="#FFFFFF" fill-rule="evenodd"></path><path d="M0 0 C2.57 2.57, 11.75 11.73, 15.39 15.39 C19.03 19.05, 20.22 20.42, 21.81 21.98 C23.4 23.54, 25.1 23.78, 24.93 24.74 C24.77 25.71, 22.12 26.88, 20.83 27.76 C19.54 28.63, 18.51 29.52, 17.17 29.97 C15.83 30.42, 14.43 31.02, 12.79 30.48 C11.16 29.94, 10.25 29.32, 7.37 26.71 C4.49 24.1, -0.43 18.91, -4.5 14.84 C-8.58 10.76, -14.16 5.36, -17.07 2.27 C-19.97 -0.81, -21.12 -1.75, -21.92 -3.66 C-22.71 -5.58, -22.74 -7.18, -21.82 -9.22 C-20.91 -11.27, -18.21 -15.53, -16.44 -15.94 C-14.67 -16.34, -13.94 -14.32, -11.2 -11.66 C-8.46 -9.01, -1.87 -1.94, 0 0 M0 0 C2.57 2.57, 11.75 11.73, 15.39 15.39 C19.03 19.05, 20.22 20.42, 21.81 21.98 C23.4 23.54, 25.1 23.78, 24.93 24.74 C24.77 25.71, 22.12 26.88, 20.83 27.76 C19.54 28.63, 18.51 29.52, 17.17 29.97 C15.83 30.42, 14.43 31.02, 12.79 30.48 C11.16 29.94, 10.25 29.32, 7.37 26.71 C4.49 24.1, -0.43 18.91, -4.5 14.84 C-8.58 10.76, -14.16 5.36, -17.07 2.27 C-19.97 -0.81, -21.12 -1.75, -21.92 -3.66 C-22.71 -5.58, -22.74 -7.18, -21.82 -9.22 C-20.91 -11.27, -18.21 -15.53, -16.44 -15.94 C-14.67 -16.34, -13.94 -14.32, -11.2 -11.66 C-8.46 -9.01, -1.87 -1.94, 0 0" stroke="#E1E1E1" stroke-width="4" fill="none"></path></g></g><mask></mask><g stroke-linecap="round" transform="translate(50.05321797329486 372.23886625966355) rotate(44.99999999999995 7.675720489791246 36.287221894137616)"><path d="M0 0 L15.35 0 L15.35 72.57 L0 72.57" stroke="none" stroke-width="0" fill="#FFFFFF"></path><path d="M0 0 C5.39 0, 10.78 0, 15.35 0 M0 0 C6.03 0, 12.06 0, 15.35 0 M15.35 0 C15.35 28.46, 15.35 56.91, 15.35 72.57 M15.35 0 C15.35 22.11, 15.35 44.22, 15.35 72.57 M15.35 72.57 C10.98 72.57, 6.6 72.57, 0 72.57 M15.35 72.57 C10.11 72.57, 4.86 72.57, 0 72.57 M0 72.57 C0 48.87, 0 25.17, 0 0 M0 72.57 C0 52.8, 0 33.03, 0 0" stroke="#E1E1E1" stroke-width="4" fill="none"></path></g><g stroke-linecap="round"><g transform="translate(147.33982101335278 325.71144102526426) rotate(0 12.481466078585925 -18.775746559576646)"><path d="M0 0 C-10.81 -10.81, -21.62 -21.62, -44.05 -44.05 M0 0 C-16.14 -16.14, -32.27 -32.27, -44.05 -44.05 M-44.05 -44.05 C-36.71 -51.38, -29.37 -58.72, -12.83 -75.27 M-44.05 -44.05 C-32.54 -55.55, -21.04 -67.06, -12.83 -75.27 M-12.83 -75.27 C6.93 -55.51, 26.69 -35.76, 69.01 6.57 M-12.83 -75.27 C19.16 -43.28, 51.15 -11.29, 69.01 6.57 M69.01 6.57 C61.97 13.59, 54.92 20.62, 37.78 37.72 M69.01 6.57 C62.14 13.42, 55.27 20.27, 37.78 37.72 M37.78 37.72 C24.78 24.74, 11.79 11.77, 0 0 M37.78 37.72 C29.64 29.6, 21.51 21.47, 0 0" stroke="#E1E1E1" stroke-width="4" fill="none"></path></g></g><mask></mask><g stroke-linecap="round"><g transform="translate(122.37722296544143 320.38406359423556) rotate(0 37.17620846334947 -13.676139811825749)"><path d="M0 0 C-3.41 -3.41, -14.95 -14.95, -20.45 -20.45 C-25.94 -25.94, -30.47 -30.02, -32.98 -32.98 C-35.49 -35.95, -35.24 -36.57, -35.5 -38.23 C-35.77 -39.9, -36 -40.91, -34.57 -42.98 C-33.15 -45.04, -31.83 -45.76, -26.95 -50.64 C-22.08 -55.53, -10.74 -66.86, -5.31 -72.29 C0.12 -77.72, 2.94 -80.87, 5.61 -83.21 C8.28 -85.55, 9.03 -86, 10.7 -86.35 C12.37 -86.7, 13.25 -87.11, 15.63 -85.32 C18 -83.53, 19.45 -81.19, 24.96 -75.63 C30.46 -70.06, 38.13 -62.45, 48.65 -51.93 C59.17 -41.41, 78.97 -21.61, 88.07 -12.51 C97.18 -3.41, 99.88 -0.68, 103.28 2.69 C106.67 6.06, 107.33 6.09, 108.42 7.71 C109.52 9.34, 109.93 10.88, 109.85 12.44 C109.78 14.01, 108.8 15.79, 107.97 17.09 C107.13 18.39, 108.04 17.05, 104.84 20.26 C101.64 23.47, 94.33 30.77, 88.76 36.34 C83.19 41.91, 75.24 49.98, 71.44 53.66 C67.63 57.35, 67.69 57.57, 65.92 58.46 C64.15 59.35, 62.55 59.53, 60.8 59 C59.05 58.47, 59.86 59.45, 55.42 55.29 C50.98 51.12, 43.38 43.23, 34.15 34.02 C24.91 24.8, 5.69 5.67, 0 0 M0 0 C-3.41 -3.41, -14.95 -14.95, -20.45 -20.45 C-25.94 -25.94, -30.47 -30.02, -32.98 -32.98 C-35.49 -35.95, -35.24 -36.57, -35.5 -38.23 C-35.77 -39.9, -36 -40.91, -34.57 -42.98 C-33.15 -45.04, -31.83 -45.76, -26.95 -50.64 C-22.08 -55.53, -10.74 -66.86, -5.31 -72.29 C0.12 -77.72, 2.94 -80.87, 5.61 -83.21 C8.28 -85.55, 9.03 -86, 10.7 -86.35 C12.37 -86.7, 13.25 -87.11, 15.63 -85.32 C18 -83.53, 19.45 -81.19, 24.96 -75.63 C30.46 -70.06, 38.13 -62.45, 48.65 -51.93 C59.17 -41.41, 78.97 -21.61, 88.07 -12.51 C97.18 -3.41, 99.88 -0.68, 103.28 2.69 C106.67 6.06, 107.33 6.09, 108.42 7.71 C109.52 9.34, 109.93 10.88, 109.85 12.44 C109.78 14.01, 108.8 15.79, 107.97 17.09 C107.13 18.39, 108.04 17.05, 104.84 20.26 C101.64 23.47, 94.33 30.77, 88.76 36.34 C83.19 41.91, 75.24 49.98, 71.44 53.66 C67.63 57.35, 67.69 57.57, 65.92 58.46 C64.15 59.35, 62.55 59.53, 60.8 59 C59.05 58.47, 59.86 59.45, 55.42 55.29 C50.98 51.12, 43.38 43.23, 34.15 34.02 C24.91 24.8, 5.69 5.67, 0 0" stroke="#E1E1E1" stroke-width="4" fill="none"></path></g></g><mask></mask><g stroke-linecap="round"><g transform="translate(154.78431845265413 311.8140548316591) rotate(0 4.922492121459385 -4.986887131161357)" fill-rule="evenodd"><path d="M0 0 C-1.83 -1.83, -8.26 -8.26, -10.99 -10.99 C-13.72 -13.72, -15.37 -14.57, -16.36 -16.36 C-17.35 -18.15, -17.2 -20.2, -16.96 -21.75 C-16.72 -23.31, -15.94 -24.85, -14.91 -25.7 C-13.89 -26.54, -12.22 -26.73, -10.8 -26.82 C-9.38 -26.9, -8.13 -27.33, -6.39 -26.23 C-4.64 -25.12, -3.75 -23.61, -0.31 -20.17 C3.13 -16.73, 10.4 -9.46, 14.27 -5.59 C18.14 -1.72, 20.86 0.85, 22.89 3.03 C24.92 5.21, 25.82 6.05, 26.47 7.49 C27.13 8.93, 27.14 10.29, 26.8 11.67 C26.46 13.04, 25.58 14.88, 24.43 15.75 C23.27 16.61, 21.34 16.87, 19.87 16.84 C18.41 16.81, 17.97 17.38, 15.65 15.55 C13.34 13.72, 8.76 8.65, 5.99 5.88 C3.22 3.11, 0.2 0.09, -0.96 -1.06" stroke="none" stroke-width="0" fill="#FFFFFF" fill-rule="evenodd"></path><path d="M0 0 C-1.83 -1.83, -8.26 -8.26, -10.99 -10.99 C-13.72 -13.72, -15.37 -14.57, -16.36 -16.36 C-17.35 -18.15, -17.2 -20.2, -16.96 -21.75 C-16.72 -23.31, -15.94 -24.85, -14.91 -25.7 C-13.89 -26.54, -12.22 -26.73, -10.8 -26.82 C-9.38 -26.9, -8.13 -27.33, -6.39 -26.23 C-4.64 -25.12, -3.75 -23.61, -0.31 -20.17 C3.13 -16.73, 10.4 -9.46, 14.27 -5.59 C18.14 -1.72, 20.86 0.85, 22.89 3.03 C24.92 5.21, 25.82 6.05, 26.47 7.49 C27.13 8.93, 27.14 10.29, 26.8 11.67 C26.46 13.04, 25.58 14.88, 24.43 15.75 C23.27 16.61, 21.34 16.87, 19.87 16.84 C18.41 16.81, 17.97 17.38, 15.65 15.55 C13.34 13.72, 8.76 8.65, 5.99 5.88 C3.22 3.11, 0.2 0.09, -0.96 -1.06 M0 0 C-1.83 -1.83, -8.26 -8.26, -10.99 -10.99 C-13.72 -13.72, -15.37 -14.57, -16.36 -16.36 C-17.35 -18.15, -17.2 -20.2, -16.96 -21.75 C-16.72 -23.31, -15.94 -24.85, -14.91 -25.7 C-13.89 -26.54, -12.22 -26.73, -10.8 -26.82 C-9.38 -26.9, -8.13 -27.33, -6.39 -26.23 C-4.64 -25.12, -3.75 -23.61, -0.31 -20.17 C3.13 -16.73, 10.4 -9.46, 14.27 -5.59 C18.14 -1.72, 20.86 0.85, 22.89 3.03 C24.92 5.21, 25.82 6.05, 26.47 7.49 C27.13 8.93, 27.14 10.29, 26.8 11.67 C26.46 13.04, 25.58 14.88, 24.43 15.75 C23.27 16.61, 21.34 16.87, 19.87 16.84 C18.41 16.81, 17.97 17.38, 15.65 15.55 C13.34 13.72, 8.76 8.65, 5.99 5.88 C3.22 3.11, 0.2 0.09, -0.96 -1.06" stroke="#E1E1E1" stroke-width="4" fill="none"></path></g></g><mask></mask><g stroke-linecap="round"><g transform="translate(273.33876703538556 196.74264716770944) rotate(0 56.78507878117995 -60.46919309543952)"><path d="M0 0 C-6.59 -6.59, -28.44 -28.44, -39.56 -39.56 C-50.69 -50.69, -61.73 -61.4, -66.73 -66.73 C-71.72 -72.06, -69.21 -69.81, -69.52 -71.54 C-69.83 -73.27, -71.1 -73.82, -68.59 -77.1 C-66.08 -80.38, -62.07 -83.63, -54.46 -91.23 C-46.86 -98.83, -30.93 -115.58, -22.97 -122.72 C-15.02 -129.86, -12.15 -131.37, -6.71 -134.08 C-1.27 -136.8, 3.56 -138.25, 9.67 -139.03 C15.77 -139.81, 24.11 -139.65, 29.91 -138.76 C35.7 -137.87, 40.67 -135.35, 44.45 -133.69 C48.22 -132.03, 50.24 -130.41, 52.55 -128.8 C54.86 -127.2, 56.59 -124.45, 58.32 -124.07 C60.04 -123.69, 61.38 -125.36, 62.92 -126.52 C64.46 -127.68, 65.63 -129.77, 67.57 -131.01 C69.5 -132.26, 72.27 -133.41, 74.55 -134 C76.84 -134.6, 79.04 -134.71, 81.27 -134.57 C83.5 -134.43, 85.65 -134.13, 87.92 -133.15 C90.2 -132.17, 93.09 -128.74, 94.93 -128.7 C96.77 -128.66, 94.53 -128.43, 98.96 -132.89 C103.4 -137.35, 114.78 -148.7, 121.52 -155.44 C128.26 -162.18, 134.5 -168.42, 139.4 -173.33 C144.3 -178.23, 147.99 -182.65, 150.93 -184.86 C153.87 -187.07, 155.15 -186.83, 157.04 -186.6 C158.94 -186.37, 159.21 -186.23, 162.3 -183.5 C165.39 -180.78, 172.42 -173.39, 175.58 -170.23 C178.74 -167.07, 180.01 -166.36, 181.26 -164.54 C182.52 -162.73, 183.2 -161.24, 183.09 -159.34 C182.98 -157.44, 184 -157.17, 180.6 -153.16 C177.2 -149.15, 169.94 -142.5, 162.7 -135.26 C155.47 -128.03, 143.24 -115.8, 137.18 -109.74 C131.12 -103.68, 127.81 -101.65, 126.36 -98.92 C124.9 -96.18, 127.71 -95.26, 128.45 -93.33 C129.19 -91.4, 130.41 -89.69, 130.79 -87.33 C131.18 -84.96, 131.4 -81.89, 130.78 -79.13 C130.17 -76.37, 128.47 -73.01, 127.1 -70.77 C125.73 -68.54, 123.77 -67.13, 122.53 -65.72 C121.3 -64.31, 119.68 -63.49, 119.7 -62.31 C119.73 -61.13, 121.27 -60.42, 122.69 -58.62 C124.12 -56.83, 126.47 -54.74, 128.26 -51.55 C130.05 -48.36, 132.25 -43.12, 133.42 -39.47 C134.59 -35.83, 135.01 -34.23, 135.3 -29.69 C135.59 -25.15, 135.91 -17.56, 135.16 -12.23 C134.4 -6.91, 132.39 -1.88, 130.78 2.25 C129.17 6.38, 129.14 8, 125.5 12.56 C121.86 17.12, 113.86 24.57, 108.95 29.6 C104.05 34.63, 100.95 37.77, 96.04 42.73 C91.13 47.69, 83.35 55.6, 79.52 59.36 C75.68 63.12, 75.08 64.23, 73.04 65.28 C71 66.34, 69.78 66.92, 67.27 65.66 C64.76 64.41, 66.09 65.64, 57.99 57.77 C49.89 49.9, 28.32 28.06, 18.66 18.43 C8.99 8.81, 3.11 3.07, 0 0 M0 0 C-6.59 -6.59, -28.44 -28.44, -39.56 -39.56 C-50.69 -50.69, -61.73 -61.4, -66.73 -66.73 C-71.72 -72.06, -69.21 -69.81, -69.52 -71.54 C-69.83 -73.27, -71.1 -73.82, -68.59 -77.1 C-66.08 -80.38, -62.07 -83.63, -54.46 -91.23 C-46.86 -98.83, -30.93 -115.58, -22.97 -122.72 C-15.02 -129.86, -12.15 -131.37, -6.71 -134.08 C-1.27 -136.8, 3.56 -138.25, 9.67 -139.03 C15.77 -139.81, 24.11 -139.65, 29.91 -138.76 C35.7 -137.87, 40.67 -135.35, 44.45 -133.69 C48.22 -132.03, 50.24 -130.41, 52.55 -128.8 C54.86 -127.2, 56.59 -124.45, 58.32 -124.07 C60.04 -123.69, 61.38 -125.36, 62.92 -126.52 C64.46 -127.68, 65.63 -129.77, 67.57 -131.01 C69.5 -132.26, 72.27 -133.41, 74.55 -134 C76.84 -134.6, 79.04 -134.71, 81.27 -134.57 C83.5 -134.43, 85.65 -134.13, 87.92 -133.15 C90.2 -132.17, 93.09 -128.74, 94.93 -128.7 C96.77 -128.66, 94.53 -128.43, 98.96 -132.89 C103.4 -137.35, 114.78 -148.7, 121.52 -155.44 C128.26 -162.18, 134.5 -168.42, 139.4 -173.33 C144.3 -178.23, 147.99 -182.65, 150.93 -184.86 C153.87 -187.07, 155.15 -186.83, 157.04 -186.6 C158.94 -186.37, 159.21 -186.23, 162.3 -183.5 C165.39 -180.78, 172.42 -173.39, 175.58 -170.23 C178.74 -167.07, 180.01 -166.36, 181.26 -164.54 C182.52 -162.73, 183.2 -161.24, 183.09 -159.34 C182.98 -157.44, 184 -157.17, 180.6 -153.16 C177.2 -149.15, 169.94 -142.5, 162.7 -135.26 C155.47 -128.03, 143.24 -115.8, 137.18 -109.74 C131.12 -103.68, 127.81 -101.65, 126.36 -98.92 C124.9 -96.18, 127.71 -95.26, 128.45 -93.33 C129.19 -91.4, 130.41 -89.69, 130.79 -87.33 C131.18 -84.96, 131.4 -81.89, 130.78 -79.13 C130.17 -76.37, 128.47 -73.01, 127.1 -70.77 C125.73 -68.54, 123.77 -67.13, 122.53 -65.72 C121.3 -64.31, 119.68 -63.49, 119.7 -62.31 C119.73 -61.13, 121.27 -60.42, 122.69 -58.62 C124.12 -56.83, 126.47 -54.74, 128.26 -51.55 C130.05 -48.36, 132.25 -43.12, 133.42 -39.47 C134.59 -35.83, 135.01 -34.23, 135.3 -29.69 C135.59 -25.15, 135.91 -17.56, 135.16 -12.23 C134.4 -6.91, 132.39 -1.88, 130.78 2.25 C129.17 6.38, 129.14 8, 125.5 12.56 C121.86 17.12, 113.86 24.57, 108.95 29.6 C104.05 34.63, 100.95 37.77, 96.04 42.73 C91.13 47.69, 83.35 55.6, 79.52 59.36 C75.68 63.12, 75.08 64.23, 73.04 65.28 C71 66.34, 69.78 66.92, 67.27 65.66 C64.76 64.41, 66.09 65.64, 57.99 57.77 C49.89 49.9, 28.32 28.06, 18.66 18.43 C8.99 8.81, 3.11 3.07, 0 0" stroke="#E1E1E1" stroke-width="4" fill="none"></path></g></g><mask></mask><g stroke-linecap="round"><g transform="translate(220.7166081369935 123.62799389863534) rotate(0 87.10994236177831 35.32688920513914)"><path d="M0 0 C2.52 -2.57, 8.12 -8.46, 15.1 -15.43 C22.09 -22.4, 34.61 -35.92, 41.93 -41.82 C49.24 -47.72, 52.88 -49.17, 59 -50.82 C65.12 -52.46, 72.9 -52.38, 78.65 -51.68 C84.41 -50.98, 89.01 -49.19, 93.53 -46.62 C98.06 -44.05, 99.96 -41.79, 105.81 -36.25 C111.66 -30.71, 120.08 -21.99, 128.66 -13.4 C137.24 -4.82, 150.83 8.52, 157.31 15.25 C163.78 21.97, 164.73 22.24, 167.52 26.97 C170.32 31.7, 172.93 38.29, 174.05 43.64 C175.17 48.99, 175.12 53.97, 174.22 59.06 C173.32 64.16, 171.3 69.64, 168.65 74.22 C166.01 78.8, 163.27 81.28, 158.36 86.54 C153.44 91.79, 144.38 100.52, 139.16 105.74 C133.94 110.96, 129.8 115.09, 127.04 117.86 C124.27 120.63, 124.22 122.37, 122.56 122.34 C120.9 122.3, 123.17 123.59, 117.1 117.66 C111.03 111.72, 98.49 99.05, 86.15 86.7 C73.81 74.36, 57.41 58.06, 43.05 43.61 C28.69 29.15, 7.17 7.27, 0 0 M0 0 C2.52 -2.57, 8.12 -8.46, 15.1 -15.43 C22.09 -22.4, 34.61 -35.92, 41.93 -41.82 C49.24 -47.72, 52.88 -49.17, 59 -50.82 C65.12 -52.46, 72.9 -52.38, 78.65 -51.68 C84.41 -50.98, 89.01 -49.19, 93.53 -46.62 C98.06 -44.05, 99.96 -41.79, 105.81 -36.25 C111.66 -30.71, 120.08 -21.99, 128.66 -13.4 C137.24 -4.82, 150.83 8.52, 157.31 15.25 C163.78 21.97, 164.73 22.24, 167.52 26.97 C170.32 31.7, 172.93 38.29, 174.05 43.64 C175.17 48.99, 175.12 53.97, 174.22 59.06 C173.32 64.16, 171.3 69.64, 168.65 74.22 C166.01 78.8, 163.27 81.28, 158.36 86.54 C153.44 91.79, 144.38 100.52, 139.16 105.74 C133.94 110.96, 129.8 115.09, 127.04 117.86 C124.27 120.63, 124.22 122.37, 122.56 122.34 C120.9 122.3, 123.17 123.59, 117.1 117.66 C111.03 111.72, 98.49 99.05, 86.15 86.7 C73.81 74.36, 57.41 58.06, 43.05 43.61 C28.69 29.15, 7.17 7.27, 0 0" stroke="#E1E1E1" stroke-width="4" fill="none"></path></g></g><mask></mask><g stroke-linecap="round"><g transform="translate(352.5317396517577 93.04713835431852) rotate(0 14.37576484777722 7.211735622178239)" fill-rule="evenodd"><path d="M0 0 C-1.52 -1.55, -8.09 -7.08, -9.15 -9.32 C-10.21 -11.56, -7.62 -12.29, -6.37 -13.43 C-5.12 -14.58, -3.25 -15.75, -1.66 -16.18 C-0.07 -16.61, 1.18 -16.99, 3.17 -16.02 C5.16 -15.06, 7.03 -13.4, 10.29 -10.38 C13.56 -7.36, 18.51 -2.15, 22.76 2.09 C27 6.33, 33.23 11.99, 35.75 15.08 C38.28 18.17, 37.84 18.82, 37.9 20.63 C37.96 22.43, 37.23 24.25, 36.14 25.92 C35.04 27.58, 32.7 30.21, 31.33 30.61 C29.96 31.01, 30.24 30.44, 27.94 28.31 C25.63 26.19, 22.13 22.57, 17.47 17.85 C12.82 13.13, 2.91 2.98, 0 0" stroke="none" stroke-width="0" fill="#FFFFFF" fill-rule="evenodd"></path><path d="M0 0 C-1.52 -1.55, -8.09 -7.08, -9.15 -9.32 C-10.21 -11.56, -7.62 -12.29, -6.37 -13.43 C-5.12 -14.58, -3.25 -15.75, -1.66 -16.18 C-0.07 -16.61, 1.18 -16.99, 3.17 -16.02 C5.16 -15.06, 7.03 -13.4, 10.29 -10.38 C13.56 -7.36, 18.51 -2.15, 22.76 2.09 C27 6.33, 33.23 11.99, 35.75 15.08 C38.28 18.17, 37.84 18.82, 37.9 20.63 C37.96 22.43, 37.23 24.25, 36.14 25.92 C35.04 27.58, 32.7 30.21, 31.33 30.61 C29.96 31.01, 30.24 30.44, 27.94 28.31 C25.63 26.19, 22.13 22.57, 17.47 17.85 C12.82 13.13, 2.91 2.98, 0 0 M0 0 C-1.52 -1.55, -8.09 -7.08, -9.15 -9.32 C-10.21 -11.56, -7.62 -12.29, -6.37 -13.43 C-5.12 -14.58, -3.25 -15.75, -1.66 -16.18 C-0.07 -16.61, 1.18 -16.99, 3.17 -16.02 C5.16 -15.06, 7.03 -13.4, 10.29 -10.38 C13.56 -7.36, 18.51 -2.15, 22.76 2.09 C27 6.33, 33.23 11.99, 35.75 15.08 C38.28 18.17, 37.84 18.82, 37.9 20.63 C37.96 22.43, 37.23 24.25, 36.14 25.92 C35.04 27.58, 32.7 30.21, 31.33 30.61 C29.96 31.01, 30.24 30.44, 27.94 28.31 C25.63 26.19, 22.13 22.57, 17.47 17.85 C12.82 13.13, 2.91 2.98, 0 0" stroke="#E1E1E1" stroke-width="4" fill="none"></path></g></g><mask></mask><g stroke-linecap="round" transform="translate(401.3336459437145 21.658859567147772) rotate(44.99999999999995 7.675720489791246 36.287221894137616)"><path d="M0 0 L15.35 0 L15.35 72.57 L0 72.57" stroke="none" stroke-width="0" fill="#FFFFFF"></path><path d="M0 0 C6.02 0, 12.04 0, 15.35 0 M0 0 C4.68 0, 9.35 0, 15.35 0 M15.35 0 C15.35 20.68, 15.35 41.35, 15.35 72.57 M15.35 0 C15.35 24.79, 15.35 49.58, 15.35 72.57 M15.35 72.57 C10.34 72.57, 5.32 72.57, 0 72.57 M15.35 72.57 C11.17 72.57, 6.99 72.57, 0 72.57 M0 72.57 C0 52.79, 0 33.01, 0 0 M0 72.57 C0 45.23, 0 17.88, 0 0" stroke="#E1E1E1" stroke-width="4" fill="none"></path></g><g stroke-linecap="round"><g transform="translate(309.9530551985664 111.51636086492448) rotate(0 -17.687487798332633 -6.014843974182469)" fill-rule="evenodd"><path d="M0 0 C-1.51 -1.52, -6.57 -7.1, -9.06 -9.13 C-11.54 -11.16, -12.7 -11.73, -14.91 -12.17 C-17.12 -12.6, -19.98 -12.51, -22.31 -11.74 C-24.63 -10.97, -26.3 -9.67, -28.85 -7.54 C-31.4 -5.41, -35.02 -1.52, -37.61 1.05 C-40.19 3.63, -42.48 5.99, -44.37 7.92 C-46.25 9.85, -47.47 11.63, -48.91 12.64 C-50.36 13.64, -51.63 13.94, -53.05 13.97 C-54.46 14, -56.25 13.61, -57.39 12.8 C-58.54 11.99, -59.53 10.48, -59.92 9.12 C-60.32 7.75, -60.53 6.16, -59.77 4.59 C-59.01 3.03, -58.52 2.97, -55.34 -0.27 C-52.17 -3.52, -44.35 -11.41, -40.73 -14.88 C-37.11 -18.36, -35.8 -19.61, -33.62 -21.12 C-31.44 -22.63, -30.01 -23.12, -27.65 -23.93 C-25.29 -24.74, -22.2 -25.78, -19.46 -26 C-16.73 -26.21, -13.62 -25.71, -11.24 -25.22 C-8.86 -24.74, -7.35 -24.15, -5.2 -23.09 C-3.05 -22.03, -0.86 -21.09, 1.67 -18.86 C4.2 -16.63, 6.98 -12.84, 9.98 -9.7 C12.98 -6.56, 17.48 -2.2, 19.69 -0.01 C21.9 2.19, 22.43 2.12, 23.24 3.49 C24.05 4.85, 24.64 6.77, 24.55 8.2 C24.45 9.62, 23.55 11.09, 22.68 12.03 C21.81 12.98, 20.64 13.58, 19.34 13.87 C18.05 14.16, 16.45 14.46, 14.91 13.8 C13.36 13.14, 11.95 11.65, 10.05 9.92 C8.16 8.19, 5.22 5.08, 3.54 3.43 C1.86 1.78, 0.59 0.57, 0 0" stroke="none" stroke-width="0" fill="#FFFFFF" fill-rule="evenodd"></path><path d="M0 0 C-1.51 -1.52, -6.57 -7.1, -9.06 -9.13 C-11.54 -11.16, -12.7 -11.73, -14.91 -12.17 C-17.12 -12.6, -19.98 -12.51, -22.31 -11.74 C-24.63 -10.97, -26.3 -9.67, -28.85 -7.54 C-31.4 -5.41, -35.02 -1.52, -37.61 1.05 C-40.19 3.63, -42.48 5.99, -44.37 7.92 C-46.25 9.85, -47.47 11.63, -48.91 12.64 C-50.36 13.64, -51.63 13.94, -53.05 13.97 C-54.46 14, -56.25 13.61, -57.39 12.8 C-58.54 11.99, -59.53 10.48, -59.92 9.12 C-60.32 7.75, -60.53 6.16, -59.77 4.59 C-59.01 3.03, -58.52 2.97, -55.34 -0.27 C-52.17 -3.52, -44.35 -11.41, -40.73 -14.88 C-37.11 -18.36, -35.8 -19.61, -33.62 -21.12 C-31.44 -22.63, -30.01 -23.12, -27.65 -23.93 C-25.29 -24.74, -22.2 -25.78, -19.46 -26 C-16.73 -26.21, -13.62 -25.71, -11.24 -25.22 C-8.86 -24.74, -7.35 -24.15, -5.2 -23.09 C-3.05 -22.03, -0.86 -21.09, 1.67 -18.86 C4.2 -16.63, 6.98 -12.84, 9.98 -9.7 C12.98 -6.56, 17.48 -2.2, 19.69 -0.01 C21.9 2.19, 22.43 2.12, 23.24 3.49 C24.05 4.85, 24.64 6.77, 24.55 8.2 C24.45 9.62, 23.55 11.09, 22.68 12.03 C21.81 12.98, 20.64 13.58, 19.34 13.87 C18.05 14.16, 16.45 14.46, 14.91 13.8 C13.36 13.14, 11.95 11.65, 10.05 9.92 C8.16 8.19, 5.22 5.08, 3.54 3.43 C1.86 1.78, 0.59 0.57, 0 0 M0 0 C-1.51 -1.52, -6.57 -7.1, -9.06 -9.13 C-11.54 -11.16, -12.7 -11.73, -14.91 -12.17 C-17.12 -12.6, -19.98 -12.51, -22.31 -11.74 C-24.63 -10.97, -26.3 -9.67, -28.85 -7.54 C-31.4 -5.41, -35.02 -1.52, -37.61 1.05 C-40.19 3.63, -42.48 5.99, -44.37 7.92 C-46.25 9.85, -47.47 11.63, -48.91 12.64 C-50.36 13.64, -51.63 13.94, -53.05 13.97 C-54.46 14, -56.25 13.61, -57.39 12.8 C-58.54 11.99, -59.53 10.48, -59.92 9.12 C-60.32 7.75, -60.53 6.16, -59.77 4.59 C-59.01 3.03, -58.52 2.97, -55.34 -0.27 C-52.17 -3.52, -44.35 -11.41, -40.73 -14.88 C-37.11 -18.36, -35.8 -19.61, -33.62 -21.12 C-31.44 -22.63, -30.01 -23.12, -27.65 -23.93 C-25.29 -24.74, -22.2 -25.78, -19.46 -26 C-16.73 -26.21, -13.62 -25.71, -11.24 -25.22 C-8.86 -24.74, -7.35 -24.15, -5.2 -23.09 C-3.05 -22.03, -0.86 -21.09, 1.67 -18.86 C4.2 -16.63, 6.98 -12.84, 9.98 -9.7 C12.98 -6.56, 17.48 -2.2, 19.69 -0.01 C21.9 2.19, 22.43 2.12, 23.24 3.49 C24.05 4.85, 24.64 6.77, 24.55 8.2 C24.45 9.62, 23.55 11.09, 22.68 12.03 C21.81 12.98, 20.64 13.58, 19.34 13.87 C18.05 14.16, 16.45 14.46, 14.91 13.8 C13.36 13.14, 11.95 11.65, 10.05 9.92 C8.16 8.19, 5.22 5.08, 3.54 3.43 C1.86 1.78, 0.59 0.57, 0 0" stroke="#E1E1E1" stroke-width="4" fill="none"></path></g></g><mask></mask></svg>