<svg version="1.1" xmlns="http://www.w3.org/2000/svg" viewBox="0 0 453.00153540188523 547.9960450755875" width="453.00153540188523" height="547.9960450755875" class="excalidraw-svg"><!-- svg-source:excalidraw --><metadata></metadata><defs><style class="style-fonts">
      </style></defs><rect x="0" y="0" width="453.00153540188523" height="547.9960450755875" fill="#000000"></rect><g stroke-linecap="round"><g transform="translate(246.48960134020547 324.23245479193025) rotate(0 -65.34384610988589 -151.62399725346978)" fill-rule="evenodd"><path d="M0 0 C-1.82 -6.11, -7.81 -25.28, -10.93 -36.69 C-14.06 -48.1, -16.91 -57.27, -18.75 -68.47 C-20.6 -79.67, -21.95 -92.15, -22.01 -103.87 C-22.06 -115.59, -21.49 -126.62, -19.09 -138.79 C-16.7 -150.95, -12.53 -164.76, -7.66 -176.86 C-2.78 -188.97, 5.06 -201.29, 10.15 -211.42 C15.25 -221.56, 19.91 -229.05, 22.91 -237.69 C25.91 -246.33, 27.4 -255.23, 28.16 -263.26 C28.91 -271.28, 28.1 -279.4, 27.44 -285.84 C26.78 -292.29, 25.92 -298.12, 24.17 -301.9 C22.42 -305.68, 19.92 -306.64, 16.93 -308.52 C13.94 -310.41, 9.82 -312.29, 6.23 -313.23 C2.64 -314.16, -0.98 -314.4, -4.61 -314.13 C-8.24 -313.85, -12.07 -313.04, -15.57 -311.58 C-19.06 -310.13, -20.16 -309.86, -25.57 -305.38 C-30.99 -300.91, -39.46 -292.52, -48.06 -284.73 C-56.67 -276.93, -67.26 -267.58, -77.19 -258.6 C-87.13 -249.61, -98.62 -238.93, -107.67 -230.81 C-116.71 -222.68, -126.02 -214.93, -131.46 -209.86 C-136.91 -204.79, -138.06 -203.77, -140.35 -200.39 C-142.63 -197, -143.86 -194.72, -145.16 -189.52 C-146.45 -184.33, -146.72 -178.51, -148.1 -169.21 C-149.49 -159.91, -151.87 -144.18, -153.48 -133.7 C-155.09 -123.22, -156.88 -112.52, -157.77 -106.31 C-158.66 -100.1, -159.28 -98.41, -158.85 -96.43 C-158.41 -94.44, -157.2 -95.88, -155.19 -94.4 C-153.17 -92.93, -150.48 -90.46, -146.76 -87.56 C-143.04 -84.66, -137.84 -81.37, -132.88 -76.99 C-127.91 -72.61, -121.79 -66.66, -116.94 -61.29 C-112.1 -55.91, -107.81 -50.51, -103.81 -44.73 C-99.82 -38.95, -96.34 -33.06, -92.97 -26.6 C-89.6 -20.14, -85.84 -12.2, -83.58 -5.95 C-81.33 0.3, -80.93 8.2, -79.43 10.88 C-77.94 13.56, -77.81 10.7, -74.61 10.12 C-71.41 9.54, -66.83 8.48, -60.23 7.39 C-53.63 6.29, -42.8 4.45, -35.02 3.57 C-27.23 2.69, -19.43 2.29, -13.52 2.11 C-7.62 1.92, -1.86 2.81, 0.4 2.46 C2.65 2.11, 0.07 0.41, 0 0" stroke="none" stroke-width="0" fill="#B3A2FA" fill-rule="evenodd"></path><path d="M0 0 C-1.82 -6.11, -7.81 -25.28, -10.93 -36.69 C-14.06 -48.1, -16.91 -57.27, -18.75 -68.47 C-20.6 -79.67, -21.95 -92.15, -22.01 -103.87 C-22.06 -115.59, -21.49 -126.62, -19.09 -138.79 C-16.7 -150.95, -12.53 -164.76, -7.66 -176.86 C-2.78 -188.97, 5.06 -201.29, 10.15 -211.42 C15.25 -221.56, 19.91 -229.05, 22.91 -237.69 C25.91 -246.33, 27.4 -255.23, 28.16 -263.26 C28.91 -271.28, 28.1 -279.4, 27.44 -285.84 C26.78 -292.29, 25.92 -298.12, 24.17 -301.9 C22.42 -305.68, 19.92 -306.64, 16.93 -308.52 C13.94 -310.41, 9.82 -312.29, 6.23 -313.23 C2.64 -314.16, -0.98 -314.4, -4.61 -314.13 C-8.24 -313.85, -12.07 -313.04, -15.57 -311.58 C-19.06 -310.13, -20.16 -309.86, -25.57 -305.38 C-30.99 -300.91, -39.46 -292.52, -48.06 -284.73 C-56.67 -276.93, -67.26 -267.58, -77.19 -258.6 C-87.13 -249.61, -98.62 -238.93, -107.67 -230.81 C-116.71 -222.68, -126.02 -214.93, -131.46 -209.86 C-136.91 -204.79, -138.06 -203.77, -140.35 -200.39 C-142.63 -197, -143.86 -194.72, -145.16 -189.52 C-146.45 -184.33, -146.72 -178.51, -148.1 -169.21 C-149.49 -159.91, -151.87 -144.18, -153.48 -133.7 C-155.09 -123.22, -156.88 -112.52, -157.77 -106.31 C-158.66 -100.1, -159.28 -98.41, -158.85 -96.43 C-158.41 -94.44, -157.2 -95.88, -155.19 -94.4 C-153.17 -92.93, -150.48 -90.46, -146.76 -87.56 C-143.04 -84.66, -137.84 -81.37, -132.88 -76.99 C-127.91 -72.61, -121.79 -66.66, -116.94 -61.29 C-112.1 -55.91, -107.81 -50.51, -103.81 -44.73 C-99.82 -38.95, -96.34 -33.06, -92.97 -26.6 C-89.6 -20.14, -85.84 -12.2, -83.58 -5.95 C-81.33 0.3, -80.93 8.2, -79.43 10.88 C-77.94 13.56, -77.81 10.7, -74.61 10.12 C-71.41 9.54, -66.83 8.48, -60.23 7.39 C-53.63 6.29, -42.8 4.45, -35.02 3.57 C-27.23 2.69, -19.43 2.29, -13.52 2.11 C-7.62 1.92, -1.86 2.81, 0.4 2.46 C2.65 2.11, 0.07 0.41, 0 0 M0 0 C-1.82 -6.11, -7.81 -25.28, -10.93 -36.69 C-14.06 -48.1, -16.91 -57.27, -18.75 -68.47 C-20.6 -79.67, -21.95 -92.15, -22.01 -103.87 C-22.06 -115.59, -21.49 -126.62, -19.09 -138.79 C-16.7 -150.95, -12.53 -164.76, -7.66 -176.86 C-2.78 -188.97, 5.06 -201.29, 10.15 -211.42 C15.25 -221.56, 19.91 -229.05, 22.91 -237.69 C25.91 -246.33, 27.4 -255.23, 28.16 -263.26 C28.91 -271.28, 28.1 -279.4, 27.44 -285.84 C26.78 -292.29, 25.92 -298.12, 24.17 -301.9 C22.42 -305.68, 19.92 -306.64, 16.93 -308.52 C13.94 -310.41, 9.82 -312.29, 6.23 -313.23 C2.64 -314.16, -0.98 -314.4, -4.61 -314.13 C-8.24 -313.85, -12.07 -313.04, -15.57 -311.58 C-19.06 -310.13, -20.16 -309.86, -25.57 -305.38 C-30.99 -300.91, -39.46 -292.52, -48.06 -284.73 C-56.67 -276.93, -67.26 -267.58, -77.19 -258.6 C-87.13 -249.61, -98.62 -238.93, -107.67 -230.81 C-116.71 -222.68, -126.02 -214.93, -131.46 -209.86 C-136.91 -204.79, -138.06 -203.77, -140.35 -200.39 C-142.63 -197, -143.86 -194.72, -145.16 -189.52 C-146.45 -184.33, -146.72 -178.51, -148.1 -169.21 C-149.49 -159.91, -151.87 -144.18, -153.48 -133.7 C-155.09 -123.22, -156.88 -112.52, -157.77 -106.31 C-158.66 -100.1, -159.28 -98.41, -158.85 -96.43 C-158.41 -94.44, -157.2 -95.88, -155.19 -94.4 C-153.17 -92.93, -150.48 -90.46, -146.76 -87.56 C-143.04 -84.66, -137.84 -81.37, -132.88 -76.99 C-127.91 -72.61, -121.79 -66.66, -116.94 -61.29 C-112.1 -55.91, -107.81 -50.51, -103.81 -44.73 C-99.82 -38.95, -96.34 -33.06, -92.97 -26.6 C-89.6 -20.14, -85.84 -12.2, -83.58 -5.95 C-81.33 0.3, -80.93 8.2, -79.43 10.88 C-77.94 13.56, -77.81 10.7, -74.61 10.12 C-71.41 9.54, -66.83 8.48, -60.23 7.39 C-53.63 6.29, -42.8 4.45, -35.02 3.57 C-27.23 2.69, -19.43 2.29, -13.52 2.11 C-7.62 1.92, -1.86 2.81, 0.4 2.46 C2.65 2.11, 0.07 0.41, 0 0" stroke="#B3A2FA" stroke-width="4" fill="none"></path></g></g><mask></mask><g stroke-linecap="round"><g transform="translate(379.82581892776454 433.39880433015566) rotate(0 -50.94415554145718 -205.8440129508927)" fill-rule="evenodd"><path d="M0 0 C3.98 -6.24, 17.21 -26.86, 23.85 -37.43 C30.49 -48, 35.63 -56.77, 39.84 -63.43 C44.04 -70.1, 46.82 -73.63, 49.06 -77.42 C51.31 -81.21, 52.63 -83.38, 53.29 -86.16 C53.96 -88.95, 53.51 -91.8, 53.05 -94.14 C52.59 -96.47, 52.25 -97.37, 50.53 -100.17 C48.81 -102.97, 45.9 -106.35, 42.73 -110.92 C39.56 -115.48, 35.38 -121.6, 31.51 -127.57 C27.63 -133.54, 23.23 -140.25, 19.48 -146.73 C15.74 -153.21, 11.95 -160.28, 9.02 -166.45 C6.09 -172.63, 4.05 -176.8, 1.91 -183.78 C-0.23 -190.76, -2.34 -200.45, -3.81 -208.32 C-5.29 -216.19, -6.16 -223.02, -6.93 -230.99 C-7.7 -238.96, -8.07 -248.71, -8.44 -256.13 C-8.8 -263.54, -8.52 -270.41, -9.11 -275.49 C-9.71 -280.57, -10.46 -283.12, -12.02 -286.59 C-13.58 -290.06, -15.39 -292.21, -18.49 -296.32 C-21.59 -300.43, -26.55 -306.01, -30.62 -311.23 C-34.69 -316.45, -38.75 -322.27, -42.93 -327.62 C-47.11 -332.97, -51.19 -337.73, -55.69 -343.32 C-60.18 -348.91, -65.43 -355.51, -69.89 -361.17 C-74.35 -366.83, -78.61 -372.35, -82.45 -377.27 C-86.3 -382.19, -89.37 -386.12, -92.94 -390.68 C-96.51 -395.25, -101.16 -401.17, -103.88 -404.67 C-106.6 -408.18, -108.81 -412.25, -109.26 -411.69 C-109.7 -411.13, -107.37 -406.42, -106.53 -401.33 C-105.69 -396.24, -104.35 -387.59, -104.21 -381.15 C-104.06 -374.71, -104.79 -368.11, -105.65 -362.69 C-106.51 -357.28, -107.51 -353.88, -109.36 -348.65 C-111.21 -343.42, -114.27 -336.66, -116.76 -331.31 C-119.25 -325.95, -121.36 -322.01, -124.28 -316.54 C-127.21 -311.06, -131.21 -304.68, -134.32 -298.46 C-137.44 -292.23, -140.11 -286.84, -142.96 -279.19 C-145.82 -271.54, -149.54 -260.43, -151.47 -252.55 C-153.4 -244.66, -153.93 -239.44, -154.55 -231.88 C-155.17 -224.32, -155.56 -215.65, -155.18 -207.18 C-154.8 -198.7, -153.84 -190.32, -152.25 -181.03 C-150.66 -171.73, -148.36 -161.51, -145.65 -151.41 C-142.94 -141.31, -138.37 -127.99, -136 -120.4 C-133.63 -112.82, -132.49 -108.28, -131.42 -105.91 C-130.36 -103.54, -133.11 -106.57, -129.6 -106.18 C-126.09 -105.79, -117.48 -105.27, -110.35 -103.59 C-103.22 -101.92, -94.38 -99.52, -86.83 -96.14 C-79.28 -92.76, -72.38 -88.61, -65.05 -83.3 C-57.72 -77.99, -49.82 -71.51, -42.85 -64.26 C-35.88 -57.02, -28.94 -47.91, -23.21 -39.83 C-17.47 -31.75, -11.96 -21.84, -8.45 -15.78 C-4.94 -9.72, -3.56 -6.12, -2.15 -3.49 C-0.75 -0.86, -0.36 -0.58, 0 0" stroke="none" stroke-width="0" fill="#9E75ED" fill-rule="evenodd"></path><path d="M0 0 C3.98 -6.24, 17.21 -26.86, 23.85 -37.43 C30.49 -48, 35.63 -56.77, 39.84 -63.43 C44.04 -70.1, 46.82 -73.63, 49.06 -77.42 C51.31 -81.21, 52.63 -83.38, 53.29 -86.16 C53.96 -88.95, 53.51 -91.8, 53.05 -94.14 C52.59 -96.47, 52.25 -97.37, 50.53 -100.17 C48.81 -102.97, 45.9 -106.35, 42.73 -110.92 C39.56 -115.48, 35.38 -121.6, 31.51 -127.57 C27.63 -133.54, 23.23 -140.25, 19.48 -146.73 C15.74 -153.21, 11.95 -160.28, 9.02 -166.45 C6.09 -172.63, 4.05 -176.8, 1.91 -183.78 C-0.23 -190.76, -2.34 -200.45, -3.81 -208.32 C-5.29 -216.19, -6.16 -223.02, -6.93 -230.99 C-7.7 -238.96, -8.07 -248.71, -8.44 -256.13 C-8.8 -263.54, -8.52 -270.41, -9.11 -275.49 C-9.71 -280.57, -10.46 -283.12, -12.02 -286.59 C-13.58 -290.06, -15.39 -292.21, -18.49 -296.32 C-21.59 -300.43, -26.55 -306.01, -30.62 -311.23 C-34.69 -316.45, -38.75 -322.27, -42.93 -327.62 C-47.11 -332.97, -51.19 -337.73, -55.69 -343.32 C-60.18 -348.91, -65.43 -355.51, -69.89 -361.17 C-74.35 -366.83, -78.61 -372.35, -82.45 -377.27 C-86.3 -382.19, -89.37 -386.12, -92.94 -390.68 C-96.51 -395.25, -101.16 -401.17, -103.88 -404.67 C-106.6 -408.18, -108.81 -412.25, -109.26 -411.69 C-109.7 -411.13, -107.37 -406.42, -106.53 -401.33 C-105.69 -396.24, -104.35 -387.59, -104.21 -381.15 C-104.06 -374.71, -104.79 -368.11, -105.65 -362.69 C-106.51 -357.28, -107.51 -353.88, -109.36 -348.65 C-111.21 -343.42, -114.27 -336.66, -116.76 -331.31 C-119.25 -325.95, -121.36 -322.01, -124.28 -316.54 C-127.21 -311.06, -131.21 -304.68, -134.32 -298.46 C-137.44 -292.23, -140.11 -286.84, -142.96 -279.19 C-145.82 -271.54, -149.54 -260.43, -151.47 -252.55 C-153.4 -244.66, -153.93 -239.44, -154.55 -231.88 C-155.17 -224.32, -155.56 -215.65, -155.18 -207.18 C-154.8 -198.7, -153.84 -190.32, -152.25 -181.03 C-150.66 -171.73, -148.36 -161.51, -145.65 -151.41 C-142.94 -141.31, -138.37 -127.99, -136 -120.4 C-133.63 -112.82, -132.49 -108.28, -131.42 -105.91 C-130.36 -103.54, -133.11 -106.57, -129.6 -106.18 C-126.09 -105.79, -117.48 -105.27, -110.35 -103.59 C-103.22 -101.92, -94.38 -99.52, -86.83 -96.14 C-79.28 -92.76, -72.38 -88.61, -65.05 -83.3 C-57.72 -77.99, -49.82 -71.51, -42.85 -64.26 C-35.88 -57.02, -28.94 -47.91, -23.21 -39.83 C-17.47 -31.75, -11.96 -21.84, -8.45 -15.78 C-4.94 -9.72, -3.56 -6.12, -2.15 -3.49 C-0.75 -0.86, -0.36 -0.58, 0 0 M0 0 C3.98 -6.24, 17.21 -26.86, 23.85 -37.43 C30.49 -48, 35.63 -56.77, 39.84 -63.43 C44.04 -70.1, 46.82 -73.63, 49.06 -77.42 C51.31 -81.21, 52.63 -83.38, 53.29 -86.16 C53.96 -88.95, 53.51 -91.8, 53.05 -94.14 C52.59 -96.47, 52.25 -97.37, 50.53 -100.17 C48.81 -102.97, 45.9 -106.35, 42.73 -110.92 C39.56 -115.48, 35.38 -121.6, 31.51 -127.57 C27.63 -133.54, 23.23 -140.25, 19.48 -146.73 C15.74 -153.21, 11.95 -160.28, 9.02 -166.45 C6.09 -172.63, 4.05 -176.8, 1.91 -183.78 C-0.23 -190.76, -2.34 -200.45, -3.81 -208.32 C-5.29 -216.19, -6.16 -223.02, -6.93 -230.99 C-7.7 -238.96, -8.07 -248.71, -8.44 -256.13 C-8.8 -263.54, -8.52 -270.41, -9.11 -275.49 C-9.71 -280.57, -10.46 -283.12, -12.02 -286.59 C-13.58 -290.06, -15.39 -292.21, -18.49 -296.32 C-21.59 -300.43, -26.55 -306.01, -30.62 -311.23 C-34.69 -316.45, -38.75 -322.27, -42.93 -327.62 C-47.11 -332.97, -51.19 -337.73, -55.69 -343.32 C-60.18 -348.91, -65.43 -355.51, -69.89 -361.17 C-74.35 -366.83, -78.61 -372.35, -82.45 -377.27 C-86.3 -382.19, -89.37 -386.12, -92.94 -390.68 C-96.51 -395.25, -101.16 -401.17, -103.88 -404.67 C-106.6 -408.18, -108.81 -412.25, -109.26 -411.69 C-109.7 -411.13, -107.37 -406.42, -106.53 -401.33 C-105.69 -396.24, -104.35 -387.59, -104.21 -381.15 C-104.06 -374.71, -104.79 -368.11, -105.65 -362.69 C-106.51 -357.28, -107.51 -353.88, -109.36 -348.65 C-111.21 -343.42, -114.27 -336.66, -116.76 -331.31 C-119.25 -325.95, -121.36 -322.01, -124.28 -316.54 C-127.21 -311.06, -131.21 -304.68, -134.32 -298.46 C-137.44 -292.23, -140.11 -286.84, -142.96 -279.19 C-145.82 -271.54, -149.54 -260.43, -151.47 -252.55 C-153.4 -244.66, -153.93 -239.44, -154.55 -231.88 C-155.17 -224.32, -155.56 -215.65, -155.18 -207.18 C-154.8 -198.7, -153.84 -190.32, -152.25 -181.03 C-150.66 -171.73, -148.36 -161.51, -145.65 -151.41 C-142.94 -141.31, -138.37 -127.99, -136 -120.4 C-133.63 -112.82, -132.49 -108.28, -131.42 -105.91 C-130.36 -103.54, -133.11 -106.57, -129.6 -106.18 C-126.09 -105.79, -117.48 -105.27, -110.35 -103.59 C-103.22 -101.92, -94.38 -99.52, -86.83 -96.14 C-79.28 -92.76, -72.38 -88.61, -65.05 -83.3 C-57.72 -77.99, -49.82 -71.51, -42.85 -64.26 C-35.88 -57.02, -28.94 -47.91, -23.21 -39.83 C-17.47 -31.75, -11.96 -21.84, -8.45 -15.78 C-4.94 -9.72, -3.56 -6.12, -2.15 -3.49 C-0.75 -0.86, -0.36 -0.58, 0 0" stroke="#9E75ED" stroke-width="4" fill="none"></path></g></g><mask></mask><g stroke-linecap="round"><g transform="translate(167.9475836376406 336.30668931524593) rotate(0 89.978811465593 96.26434373125171)" fill-rule="evenodd"><path d="M0 0 C0.52 3.7, 2.55 14.34, 3.14 22.17 C3.73 30.01, 3.94 38.34, 3.52 47.01 C3.1 55.69, 2.74 62.97, 0.64 74.21 C-1.45 85.46, -5.19 102.2, -9.06 114.48 C-12.93 126.76, -19.34 140.33, -22.56 147.87 C-25.78 155.42, -26.9 156.79, -28.38 159.77 C-29.86 162.74, -31.55 164.35, -31.44 165.75 C-31.33 167.15, -30.74 167.33, -27.73 168.17 C-24.72 169, -20.92 169.98, -13.36 170.78 C-5.8 171.59, 6.31 172.03, 17.65 173.01 C28.99 173.98, 43.86 174.88, 54.67 176.64 C65.48 178.39, 72.55 180.84, 82.51 183.52 C92.47 186.21, 104.47 189.9, 114.41 192.76 C124.35 195.61, 135.93 199.19, 142.17 200.66 C148.41 202.12, 148.5 201.63, 151.87 201.53 C155.24 201.44, 158.85 201.32, 162.39 200.09 C165.92 198.85, 169.64 196.69, 173.05 194.12 C176.46 191.55, 180.1 188.31, 182.82 184.69 C185.54 181.06, 187.73 177.4, 189.37 172.36 C191.01 167.32, 191.26 161, 192.65 154.43 C194.05 147.86, 195.86 139.66, 197.74 132.94 C199.63 126.23, 201.68 119.89, 203.96 114.16 C206.24 108.43, 210.66 102.25, 211.4 98.56 C212.14 94.86, 209.97 95.05, 208.37 91.98 C206.78 88.91, 204.01 84, 201.84 80.14 C199.66 76.28, 197.95 73.04, 195.35 68.84 C192.75 64.64, 189.66 59.69, 186.26 54.94 C182.85 50.19, 178.61 44.7, 174.93 40.36 C171.25 36.02, 168.22 32.83, 164.2 28.89 C160.17 24.95, 156.08 20.63, 150.78 16.7 C145.47 12.77, 138.18 8.42, 132.37 5.32 C126.56 2.21, 121.72 0.12, 115.92 -1.91 C110.11 -3.93, 103.92 -5.66, 97.53 -6.83 C91.14 -8.01, 84.79 -8.59, 77.58 -8.95 C70.38 -9.32, 62.52 -9.49, 54.3 -9.01 C46.07 -8.52, 35.94 -7.15, 28.23 -6.04 C20.52 -4.92, 12.77 -3.34, 8.06 -2.33 C3.36 -1.32, 1.34 -0.39, 0 0" stroke="none" stroke-width="0" fill="#5E34B0" fill-rule="evenodd"></path><path d="M0 0 C0.52 3.7, 2.55 14.34, 3.14 22.17 C3.73 30.01, 3.94 38.34, 3.52 47.01 C3.1 55.69, 2.74 62.97, 0.64 74.21 C-1.45 85.46, -5.19 102.2, -9.06 114.48 C-12.93 126.76, -19.34 140.33, -22.56 147.87 C-25.78 155.42, -26.9 156.79, -28.38 159.77 C-29.86 162.74, -31.55 164.35, -31.44 165.75 C-31.33 167.15, -30.74 167.33, -27.73 168.17 C-24.72 169, -20.92 169.98, -13.36 170.78 C-5.8 171.59, 6.31 172.03, 17.65 173.01 C28.99 173.98, 43.86 174.88, 54.67 176.64 C65.48 178.39, 72.55 180.84, 82.51 183.52 C92.47 186.21, 104.47 189.9, 114.41 192.76 C124.35 195.61, 135.93 199.19, 142.17 200.66 C148.41 202.12, 148.5 201.63, 151.87 201.53 C155.24 201.44, 158.85 201.32, 162.39 200.09 C165.92 198.85, 169.64 196.69, 173.05 194.12 C176.46 191.55, 180.1 188.31, 182.82 184.69 C185.54 181.06, 187.73 177.4, 189.37 172.36 C191.01 167.32, 191.26 161, 192.65 154.43 C194.05 147.86, 195.86 139.66, 197.74 132.94 C199.63 126.23, 201.68 119.89, 203.96 114.16 C206.24 108.43, 210.66 102.25, 211.4 98.56 C212.14 94.86, 209.97 95.05, 208.37 91.98 C206.78 88.91, 204.01 84, 201.84 80.14 C199.66 76.28, 197.95 73.04, 195.35 68.84 C192.75 64.64, 189.66 59.69, 186.26 54.94 C182.85 50.19, 178.61 44.7, 174.93 40.36 C171.25 36.02, 168.22 32.83, 164.2 28.89 C160.17 24.95, 156.08 20.63, 150.78 16.7 C145.47 12.77, 138.18 8.42, 132.37 5.32 C126.56 2.21, 121.72 0.12, 115.92 -1.91 C110.11 -3.93, 103.92 -5.66, 97.53 -6.83 C91.14 -8.01, 84.79 -8.59, 77.58 -8.95 C70.38 -9.32, 62.52 -9.49, 54.3 -9.01 C46.07 -8.52, 35.94 -7.15, 28.23 -6.04 C20.52 -4.92, 12.77 -3.34, 8.06 -2.33 C3.36 -1.32, 1.34 -0.39, 0 0 M0 0 C0.52 3.7, 2.55 14.34, 3.14 22.17 C3.73 30.01, 3.94 38.34, 3.52 47.01 C3.1 55.69, 2.74 62.97, 0.64 74.21 C-1.45 85.46, -5.19 102.2, -9.06 114.48 C-12.93 126.76, -19.34 140.33, -22.56 147.87 C-25.78 155.42, -26.9 156.79, -28.38 159.77 C-29.86 162.74, -31.55 164.35, -31.44 165.75 C-31.33 167.15, -30.74 167.33, -27.73 168.17 C-24.72 169, -20.92 169.98, -13.36 170.78 C-5.8 171.59, 6.31 172.03, 17.65 173.01 C28.99 173.98, 43.86 174.88, 54.67 176.64 C65.48 178.39, 72.55 180.84, 82.51 183.52 C92.47 186.21, 104.47 189.9, 114.41 192.76 C124.35 195.61, 135.93 199.19, 142.17 200.66 C148.41 202.12, 148.5 201.63, 151.87 201.53 C155.24 201.44, 158.85 201.32, 162.39 200.09 C165.92 198.85, 169.64 196.69, 173.05 194.12 C176.46 191.55, 180.1 188.31, 182.82 184.69 C185.54 181.06, 187.73 177.4, 189.37 172.36 C191.01 167.32, 191.26 161, 192.65 154.43 C194.05 147.86, 195.86 139.66, 197.74 132.94 C199.63 126.23, 201.68 119.89, 203.96 114.16 C206.24 108.43, 210.66 102.25, 211.4 98.56 C212.14 94.86, 209.97 95.05, 208.37 91.98 C206.78 88.91, 204.01 84, 201.84 80.14 C199.66 76.28, 197.95 73.04, 195.35 68.84 C192.75 64.64, 189.66 59.69, 186.26 54.94 C182.85 50.19, 178.61 44.7, 174.93 40.36 C171.25 36.02, 168.22 32.83, 164.2 28.89 C160.17 24.95, 156.08 20.63, 150.78 16.7 C145.47 12.77, 138.18 8.42, 132.37 5.32 C126.56 2.21, 121.72 0.12, 115.92 -1.91 C110.11 -3.93, 103.92 -5.66, 97.53 -6.83 C91.14 -8.01, 84.79 -8.59, 77.58 -8.95 C70.38 -9.32, 62.52 -9.49, 54.3 -9.01 C46.07 -8.52, 35.94 -7.15, 28.23 -6.04 C20.52 -4.92, 12.77 -3.34, 8.06 -2.33 C3.36 -1.32, 1.34 -0.39, 0 0" stroke="#5E34B0" stroke-width="4" fill="none"></path></g></g><mask></mask><g stroke-linecap="round"><g transform="translate(87.61643503825155 228.36021487349313) rotate(0 11.199607846818822 136.85807432836538)" fill-rule="evenodd"><path d="M0 0 C2.83 2.03, 10.65 7.1, 16.96 12.19 C23.28 17.29, 31.8 24.36, 37.9 30.56 C43.99 36.76, 48.71 42.6, 53.55 49.42 C58.38 56.23, 62.98 63.58, 66.91 71.44 C70.85 79.31, 74.63 88.91, 77.16 96.6 C79.7 104.3, 80.84 109.18, 82.11 117.63 C83.38 126.09, 84.9 136.64, 84.77 147.35 C84.64 158.07, 83.46 169.82, 81.34 181.91 C79.22 193.99, 75.46 208.8, 72.07 219.87 C68.67 230.95, 64.12 240.74, 60.99 248.35 C57.85 255.97, 55.24 261.32, 53.26 265.55 C51.27 269.77, 50.19 272.38, 49.08 273.72 C47.97 275.06, 48.78 275.03, 46.61 273.58 C44.44 272.13, 39.3 268.06, 36.06 265.03 C32.81 262.01, 32 260.54, 27.14 255.42 C22.28 250.31, 13.49 241.19, 6.89 234.36 C0.29 227.53, -5.31 221.84, -12.48 214.46 C-19.64 207.08, -29.43 197.06, -36.12 190.09 C-42.81 183.11, -48.75 177.12, -52.6 172.62 C-56.45 168.13, -57.57 166.79, -59.2 163.12 C-60.82 159.45, -62.21 155.17, -62.37 150.59 C-62.54 146.01, -62.08 141.56, -60.18 135.63 C-58.28 129.7, -54.84 123.57, -50.96 115.01 C-47.09 106.44, -41.45 94.14, -36.95 84.24 C-32.46 74.34, -28.02 64.55, -23.99 55.6 C-19.95 46.65, -15.76 37.3, -12.74 30.53 C-9.72 23.76, -8.01 20.06, -5.88 14.97 C-3.76 9.88, -0.98 2.5, 0 0" stroke="none" stroke-width="0" fill="#6327D3" fill-rule="evenodd"></path><path d="M0 0 C2.83 2.03, 10.65 7.1, 16.96 12.19 C23.28 17.29, 31.8 24.36, 37.9 30.56 C43.99 36.76, 48.71 42.6, 53.55 49.42 C58.38 56.23, 62.98 63.58, 66.91 71.44 C70.85 79.31, 74.63 88.91, 77.16 96.6 C79.7 104.3, 80.84 109.18, 82.11 117.63 C83.38 126.09, 84.9 136.64, 84.77 147.35 C84.64 158.07, 83.46 169.82, 81.34 181.91 C79.22 193.99, 75.46 208.8, 72.07 219.87 C68.67 230.95, 64.12 240.74, 60.99 248.35 C57.85 255.97, 55.24 261.32, 53.26 265.55 C51.27 269.77, 50.19 272.38, 49.08 273.72 C47.97 275.06, 48.78 275.03, 46.61 273.58 C44.44 272.13, 39.3 268.06, 36.06 265.03 C32.81 262.01, 32 260.54, 27.14 255.42 C22.28 250.31, 13.49 241.19, 6.89 234.36 C0.29 227.53, -5.31 221.84, -12.48 214.46 C-19.64 207.08, -29.43 197.06, -36.12 190.09 C-42.81 183.11, -48.75 177.12, -52.6 172.62 C-56.45 168.13, -57.57 166.79, -59.2 163.12 C-60.82 159.45, -62.21 155.17, -62.37 150.59 C-62.54 146.01, -62.08 141.56, -60.18 135.63 C-58.28 129.7, -54.84 123.57, -50.96 115.01 C-47.09 106.44, -41.45 94.14, -36.95 84.24 C-32.46 74.34, -28.02 64.55, -23.99 55.6 C-19.95 46.65, -15.76 37.3, -12.74 30.53 C-9.72 23.76, -8.01 20.06, -5.88 14.97 C-3.76 9.88, -0.98 2.5, 0 0 M0 0 C2.83 2.03, 10.65 7.1, 16.96 12.19 C23.28 17.29, 31.8 24.36, 37.9 30.56 C43.99 36.76, 48.71 42.6, 53.55 49.42 C58.38 56.23, 62.98 63.58, 66.91 71.44 C70.85 79.31, 74.63 88.91, 77.16 96.6 C79.7 104.3, 80.84 109.18, 82.11 117.63 C83.38 126.09, 84.9 136.64, 84.77 147.35 C84.64 158.07, 83.46 169.82, 81.34 181.91 C79.22 193.99, 75.46 208.8, 72.07 219.87 C68.67 230.95, 64.12 240.74, 60.99 248.35 C57.85 255.97, 55.24 261.32, 53.26 265.55 C51.27 269.77, 50.19 272.38, 49.08 273.72 C47.97 275.06, 48.78 275.03, 46.61 273.58 C44.44 272.13, 39.3 268.06, 36.06 265.03 C32.81 262.01, 32 260.54, 27.14 255.42 C22.28 250.31, 13.49 241.19, 6.89 234.36 C0.29 227.53, -5.31 221.84, -12.48 214.46 C-19.64 207.08, -29.43 197.06, -36.12 190.09 C-42.81 183.11, -48.75 177.12, -52.6 172.62 C-56.45 168.13, -57.57 166.79, -59.2 163.12 C-60.82 159.45, -62.21 155.17, -62.37 150.59 C-62.54 146.01, -62.08 141.56, -60.18 135.63 C-58.28 129.7, -54.84 123.57, -50.96 115.01 C-47.09 106.44, -41.45 94.14, -36.95 84.24 C-32.46 74.34, -28.02 64.55, -23.99 55.6 C-19.95 46.65, -15.76 37.3, -12.74 30.53 C-9.72 23.76, -8.01 20.06, -5.88 14.97 C-3.76 9.88, -0.98 2.5, 0 0" stroke="#6327D3" stroke-width="4" fill="none"></path></g></g><mask></mask><g stroke-linecap="round"><g transform="translate(150.3451322722159 264.81898849195164) rotate(0 1.719219837396281 96.80104595916401)"><path d="M0 0 C2.78 -2.86, 10.96 -11.49, 16.69 -17.15 C22.42 -22.81, 30.24 -29.9, 34.38 -33.96 C38.51 -38.03, 39.04 -39.69, 41.49 -41.54 C43.94 -43.4, 46.25 -44.51, 49.08 -45.1 C51.91 -45.69, 55.41 -45.76, 58.48 -45.06 C61.55 -44.36, 64.93 -42.98, 67.51 -40.9 C70.09 -38.83, 72.72 -35.75, 73.97 -32.62 C75.23 -29.49, 75.54 -25.53, 75.03 -22.12 C74.52 -18.7, 73.73 -15.97, 70.9 -12.13 C68.07 -8.28, 63.37 -4.35, 58.05 0.95 C52.73 6.25, 43.32 15.41, 39 19.69 C34.68 23.96, 33.74 24.96, 32.13 26.6 C30.53 28.24, 29.33 28.46, 29.38 29.53 C29.43 30.6, 29.21 29.78, 32.44 33.01 C35.67 36.24, 43.61 43.78, 48.76 48.9 C53.9 54.03, 60.12 60.48, 63.34 63.76 C66.56 67.03, 66.39 68.36, 68.07 68.56 C69.76 68.76, 68.65 69.54, 73.46 64.96 C78.27 60.38, 90.84 47.12, 96.93 41.09 C103.02 35.06, 106.54 31.48, 109.99 28.78 C113.45 26.08, 114.97 25.72, 117.65 24.87 C120.33 24.02, 123.2 23.32, 126.07 23.68 C128.93 24.05, 132.48 25.48, 134.84 27.06 C137.2 28.64, 138.79 30.78, 140.24 33.18 C141.68 35.59, 143.12 38.49, 143.5 41.49 C143.87 44.5, 143.35 48.37, 142.5 51.21 C141.64 54.06, 140.98 55.4, 138.38 58.54 C135.77 61.69, 131.87 65.01, 126.84 70.08 C121.82 75.14, 112.8 84.39, 108.22 88.93 C103.64 93.47, 100.55 95.28, 99.35 97.31 C98.15 99.35, 99.42 99.22, 101.02 101.13 C102.61 103.05, 106.96 106.81, 108.92 108.82 C110.88 110.83, 111.79 111.85, 112.77 113.2 C113.75 114.55, 114.5 115.45, 114.79 116.92 C115.09 118.39, 116.3 119.35, 114.55 122.04 C112.8 124.72, 108.73 128.61, 104.28 133.02 C99.84 137.44, 94.08 142.5, 87.87 148.54 C81.66 154.57, 72.32 163.97, 67.01 169.23 C61.71 174.5, 60.49 176.75, 56.05 180.13 C51.61 183.5, 45.4 187.39, 40.37 189.48 C35.35 191.58, 31.51 192.42, 25.89 192.72 C20.27 193.02, 12.27 192.31, 6.66 191.3 C1.06 190.28, -3.37 188.81, -7.73 186.62 C-12.09 184.43, -16.95 179.14, -19.5 178.14 C-22.06 177.13, -21.61 179.47, -23.05 180.59 C-24.5 181.7, -25.62 183.56, -28.19 184.81 C-30.76 186.05, -35.12 187.82, -38.47 188.07 C-41.83 188.31, -45.77 187.11, -48.31 186.26 C-50.85 185.41, -52.09 182.92, -53.72 182.99 C-55.35 183.05, -53.92 182.6, -58.08 186.65 C-62.25 190.7, -72.06 200.62, -78.7 207.27 C-85.35 213.91, -93.24 221.81, -97.95 226.52 C-102.67 231.23, -104.63 233.53, -106.99 235.56 C-109.34 237.59, -110.42 238.33, -112.09 238.7 C-113.76 239.07, -115.02 239.06, -117 237.79 C-118.97 236.52, -120.58 234.4, -123.95 231.07 C-127.32 227.75, -134.52 220.88, -137.2 217.82 C-139.89 214.76, -139.76 214.34, -140.06 212.72 C-140.36 211.11, -140.83 210.54, -139 208.11 C-137.17 205.69, -134.7 203.81, -129.06 198.18 C-123.43 192.54, -111.99 181.1, -105.19 174.31 C-98.4 167.51, -91.77 160.91, -88.32 157.43 C-84.87 153.94, -84.83 154.74, -84.49 153.39 C-84.14 152.04, -85.55 150.77, -86.24 149.34 C-86.94 147.9, -88.12 146.79, -88.66 144.77 C-89.19 142.75, -89.49 139.49, -89.45 137.21 C-89.41 134.93, -89.16 133.11, -88.44 131.12 C-87.72 129.12, -86.24 126.91, -85.14 125.27 C-84.04 123.62, -82.82 122.42, -81.82 121.27 C-80.83 120.12, -79.28 119.5, -79.17 118.39 C-79.06 117.28, -80.26 115.87, -81.16 114.63 C-82.05 113.4, -83.27 112.87, -84.54 110.99 C-85.81 109.12, -87.58 105.92, -88.79 103.39 C-90.01 100.86, -91.08 98.29, -91.84 95.82 C-92.6 93.36, -92.93 91.26, -93.35 88.58 C-93.78 85.9, -94.42 83.28, -94.4 79.73 C-94.37 76.19, -94.31 71.98, -93.21 67.29 C-92.12 62.6, -90.49 56.47, -87.83 51.6 C-85.16 46.73, -81.59 42.99, -77.23 38.06 C-72.86 33.13, -68.05 28.42, -61.65 22 C-55.26 15.58, -44.09 4.75, -38.86 -0.44 C-33.63 -5.63, -32.81 -6.58, -30.27 -9.15 C-27.73 -11.72, -25.55 -14.54, -23.63 -15.85 C-21.71 -17.15, -20.33 -17.21, -18.76 -16.97 C-17.18 -16.73, -16.08 -16.04, -14.16 -14.39 C-12.24 -12.75, -9.62 -9.51, -7.26 -7.11 C-4.9 -4.71, -1.21 -1.19, 0 0 M0 0 C2.78 -2.86, 10.96 -11.49, 16.69 -17.15 C22.42 -22.81, 30.24 -29.9, 34.38 -33.96 C38.51 -38.03, 39.04 -39.69, 41.49 -41.54 C43.94 -43.4, 46.25 -44.51, 49.08 -45.1 C51.91 -45.69, 55.41 -45.76, 58.48 -45.06 C61.55 -44.36, 64.93 -42.98, 67.51 -40.9 C70.09 -38.83, 72.72 -35.75, 73.97 -32.62 C75.23 -29.49, 75.54 -25.53, 75.03 -22.12 C74.52 -18.7, 73.73 -15.97, 70.9 -12.13 C68.07 -8.28, 63.37 -4.35, 58.05 0.95 C52.73 6.25, 43.32 15.41, 39 19.69 C34.68 23.96, 33.74 24.96, 32.13 26.6 C30.53 28.24, 29.33 28.46, 29.38 29.53 C29.43 30.6, 29.21 29.78, 32.44 33.01 C35.67 36.24, 43.61 43.78, 48.76 48.9 C53.9 54.03, 60.12 60.48, 63.34 63.76 C66.56 67.03, 66.39 68.36, 68.07 68.56 C69.76 68.76, 68.65 69.54, 73.46 64.96 C78.27 60.38, 90.84 47.12, 96.93 41.09 C103.02 35.06, 106.54 31.48, 109.99 28.78 C113.45 26.08, 114.97 25.72, 117.65 24.87 C120.33 24.02, 123.2 23.32, 126.07 23.68 C128.93 24.05, 132.48 25.48, 134.84 27.06 C137.2 28.64, 138.79 30.78, 140.24 33.18 C141.68 35.59, 143.12 38.49, 143.5 41.49 C143.87 44.5, 143.35 48.37, 142.5 51.21 C141.64 54.06, 140.98 55.4, 138.38 58.54 C135.77 61.69, 131.87 65.01, 126.84 70.08 C121.82 75.14, 112.8 84.39, 108.22 88.93 C103.64 93.47, 100.55 95.28, 99.35 97.31 C98.15 99.35, 99.42 99.22, 101.02 101.13 C102.61 103.05, 106.96 106.81, 108.92 108.82 C110.88 110.83, 111.79 111.85, 112.77 113.2 C113.75 114.55, 114.5 115.45, 114.79 116.92 C115.09 118.39, 116.3 119.35, 114.55 122.04 C112.8 124.72, 108.73 128.61, 104.28 133.02 C99.84 137.44, 94.08 142.5, 87.87 148.54 C81.66 154.57, 72.32 163.97, 67.01 169.23 C61.71 174.5, 60.49 176.75, 56.05 180.13 C51.61 183.5, 45.4 187.39, 40.37 189.48 C35.35 191.58, 31.51 192.42, 25.89 192.72 C20.27 193.02, 12.27 192.31, 6.66 191.3 C1.06 190.28, -3.37 188.81, -7.73 186.62 C-12.09 184.43, -16.95 179.14, -19.5 178.14 C-22.06 177.13, -21.61 179.47, -23.05 180.59 C-24.5 181.7, -25.62 183.56, -28.19 184.81 C-30.76 186.05, -35.12 187.82, -38.47 188.07 C-41.83 188.31, -45.77 187.11, -48.31 186.26 C-50.85 185.41, -52.09 182.92, -53.72 182.99 C-55.35 183.05, -53.92 182.6, -58.08 186.65 C-62.25 190.7, -72.06 200.62, -78.7 207.27 C-85.35 213.91, -93.24 221.81, -97.95 226.52 C-102.67 231.23, -104.63 233.53, -106.99 235.56 C-109.34 237.59, -110.42 238.33, -112.09 238.7 C-113.76 239.07, -115.02 239.06, -117 237.79 C-118.97 236.52, -120.58 234.4, -123.95 231.07 C-127.32 227.75, -134.52 220.88, -137.2 217.82 C-139.89 214.76, -139.76 214.34, -140.06 212.72 C-140.36 211.11, -140.83 210.54, -139 208.11 C-137.17 205.69, -134.7 203.81, -129.06 198.18 C-123.43 192.54, -111.99 181.1, -105.19 174.31 C-98.4 167.51, -91.77 160.91, -88.32 157.43 C-84.87 153.94, -84.83 154.74, -84.49 153.39 C-84.14 152.04, -85.55 150.77, -86.24 149.34 C-86.94 147.9, -88.12 146.79, -88.66 144.77 C-89.19 142.75, -89.49 139.49, -89.45 137.21 C-89.41 134.93, -89.16 133.11, -88.44 131.12 C-87.72 129.12, -86.24 126.91, -85.14 125.27 C-84.04 123.62, -82.82 122.42, -81.82 121.27 C-80.83 120.12, -79.28 119.5, -79.17 118.39 C-79.06 117.28, -80.26 115.87, -81.16 114.63 C-82.05 113.4, -83.27 112.87, -84.54 110.99 C-85.81 109.12, -87.58 105.92, -88.79 103.39 C-90.01 100.86, -91.08 98.29, -91.84 95.82 C-92.6 93.36, -92.93 91.26, -93.35 88.58 C-93.78 85.9, -94.42 83.28, -94.4 79.73 C-94.37 76.19, -94.31 71.98, -93.21 67.29 C-92.12 62.6, -90.49 56.47, -87.83 51.6 C-85.16 46.73, -81.59 42.99, -77.23 38.06 C-72.86 33.13, -68.05 28.42, -61.65 22 C-55.26 15.58, -44.09 4.75, -38.86 -0.44 C-33.63 -5.63, -32.81 -6.58, -30.27 -9.15 C-27.73 -11.72, -25.55 -14.54, -23.63 -15.85 C-21.71 -17.15, -20.33 -17.21, -18.76 -16.97 C-17.18 -16.73, -16.08 -16.04, -14.16 -14.39 C-12.24 -12.75, -9.62 -9.51, -7.26 -7.11 C-4.9 -4.71, -1.21 -1.19, 0 0" stroke="#E1E1E1" stroke-width="4" fill="none"></path></g></g><mask></mask><g stroke-linecap="round"><g transform="translate(167.49420862262252 267.7135468747379) rotate(0 17.974205944872466 -8.67353213820192)" fill-rule="evenodd"><path d="M0 0 C3.36 -3.36, 14.98 -14.98, 20.18 -20.18 C25.37 -25.37, 28.43 -28.95, 31.19 -31.19 C33.95 -33.44, 35.08 -33.4, 36.74 -33.64 C38.41 -33.88, 40.13 -33.49, 41.21 -32.64 C42.28 -31.79, 42.95 -29.92, 43.19 -28.55 C43.42 -27.17, 43.93 -26.47, 42.61 -24.39 C41.29 -22.31, 39.39 -20.35, 35.28 -16.08 C31.16 -11.8, 22.5 -3.3, 17.92 1.28 C13.34 5.86, 10.3 8.9, 7.79 11.41 C5.29 13.91, 4.29 15.91, 2.91 16.29 C1.52 16.68, 0.79 14.83, -0.53 13.7 C-1.84 12.57, -3.86 10.63, -4.98 9.53 C-6.1 8.44, -7.48 8.14, -7.24 7.12 C-6.99 6.1, -4.71 4.61, -3.5 3.42 C-2.3 2.23, -0.58 0.57, 0 0" stroke="none" stroke-width="0" fill="#FFFFFF" fill-rule="evenodd"></path><path d="M0 0 C3.36 -3.36, 14.98 -14.98, 20.18 -20.18 C25.37 -25.37, 28.43 -28.95, 31.19 -31.19 C33.95 -33.44, 35.08 -33.4, 36.74 -33.64 C38.41 -33.88, 40.13 -33.49, 41.21 -32.64 C42.28 -31.79, 42.95 -29.92, 43.19 -28.55 C43.42 -27.17, 43.93 -26.47, 42.61 -24.39 C41.29 -22.31, 39.39 -20.35, 35.28 -16.08 C31.16 -11.8, 22.5 -3.3, 17.92 1.28 C13.34 5.86, 10.3 8.9, 7.79 11.41 C5.29 13.91, 4.29 15.91, 2.91 16.29 C1.52 16.68, 0.79 14.83, -0.53 13.7 C-1.84 12.57, -3.86 10.63, -4.98 9.53 C-6.1 8.44, -7.48 8.14, -7.24 7.12 C-6.99 6.1, -4.71 4.61, -3.5 3.42 C-2.3 2.23, -0.58 0.57, 0 0 M0 0 C3.36 -3.36, 14.98 -14.98, 20.18 -20.18 C25.37 -25.37, 28.43 -28.95, 31.19 -31.19 C33.95 -33.44, 35.08 -33.4, 36.74 -33.64 C38.41 -33.88, 40.13 -33.49, 41.21 -32.64 C42.28 -31.79, 42.95 -29.92, 43.19 -28.55 C43.42 -27.17, 43.93 -26.47, 42.61 -24.39 C41.29 -22.31, 39.39 -20.35, 35.28 -16.08 C31.16 -11.8, 22.5 -3.3, 17.92 1.28 C13.34 5.86, 10.3 8.9, 7.79 11.41 C5.29 13.91, 4.29 15.91, 2.91 16.29 C1.52 16.68, 0.79 14.83, -0.53 13.7 C-1.84 12.57, -3.86 10.63, -4.98 9.53 C-6.1 8.44, -7.48 8.14, -7.24 7.12 C-6.99 6.1, -4.71 4.61, -3.5 3.42 C-2.3 2.23, -0.58 0.57, 0 0" stroke="#E1E1E1" stroke-width="4" fill="none"></path></g></g><mask></mask><g stroke-linecap="round"><g transform="translate(236.73746275568476 336.7141842944598) rotate(0 17.974205944872466 -8.67353213820192)" fill-rule="evenodd"><path d="M0 0 C3.36 -3.36, 14.98 -14.98, 20.18 -20.18 C25.37 -25.37, 28.43 -28.95, 31.19 -31.19 C33.95 -33.44, 35.08 -33.4, 36.74 -33.64 C38.41 -33.88, 40.13 -33.49, 41.21 -32.64 C42.28 -31.79, 42.95 -29.92, 43.19 -28.55 C43.42 -27.17, 43.93 -26.47, 42.61 -24.39 C41.29 -22.31, 39.39 -20.35, 35.28 -16.08 C31.16 -11.8, 22.5 -3.3, 17.92 1.28 C13.34 5.86, 10.3 8.9, 7.79 11.41 C5.29 13.91, 4.29 15.91, 2.91 16.29 C1.52 16.68, 0.79 14.83, -0.53 13.7 C-1.84 12.57, -3.86 10.63, -4.98 9.53 C-6.1 8.44, -7.48 8.14, -7.24 7.12 C-6.99 6.1, -4.71 4.61, -3.5 3.42 C-2.3 2.23, -0.58 0.57, 0 0" stroke="none" stroke-width="0" fill="#FFFFFF" fill-rule="evenodd"></path><path d="M0 0 C3.36 -3.36, 14.98 -14.98, 20.18 -20.18 C25.37 -25.37, 28.43 -28.95, 31.19 -31.19 C33.95 -33.44, 35.08 -33.4, 36.74 -33.64 C38.41 -33.88, 40.13 -33.49, 41.21 -32.64 C42.28 -31.79, 42.95 -29.92, 43.19 -28.55 C43.42 -27.17, 43.93 -26.47, 42.61 -24.39 C41.29 -22.31, 39.39 -20.35, 35.28 -16.08 C31.16 -11.8, 22.5 -3.3, 17.92 1.28 C13.34 5.86, 10.3 8.9, 7.79 11.41 C5.29 13.91, 4.29 15.91, 2.91 16.29 C1.52 16.68, 0.79 14.83, -0.53 13.7 C-1.84 12.57, -3.86 10.63, -4.98 9.53 C-6.1 8.44, -7.48 8.14, -7.24 7.12 C-6.99 6.1, -4.71 4.61, -3.5 3.42 C-2.3 2.23, -0.58 0.57, 0 0 M0 0 C3.36 -3.36, 14.98 -14.98, 20.18 -20.18 C25.37 -25.37, 28.43 -28.95, 31.19 -31.19 C33.95 -33.44, 35.08 -33.4, 36.74 -33.64 C38.41 -33.88, 40.13 -33.49, 41.21 -32.64 C42.28 -31.79, 42.95 -29.92, 43.19 -28.55 C43.42 -27.17, 43.93 -26.47, 42.61 -24.39 C41.29 -22.31, 39.39 -20.35, 35.28 -16.08 C31.16 -11.8, 22.5 -3.3, 17.92 1.28 C13.34 5.86, 10.3 8.9, 7.79 11.41 C5.29 13.91, 4.29 15.91, 2.91 16.29 C1.52 16.68, 0.79 14.83, -0.53 13.7 C-1.84 12.57, -3.86 10.63, -4.98 9.53 C-6.1 8.44, -7.48 8.14, -7.24 7.12 C-6.99 6.1, -4.71 4.61, -3.5 3.42 C-2.3 2.23, -0.58 0.57, 0 0" stroke="#E1E1E1" stroke-width="4" fill="none"></path></g></g><mask></mask><g stroke-linecap="round"><g transform="translate(117.2789369095268 408.89247029526047) rotate(0 41.56692312962427 -54.3782647100531)"><path d="M0 0 C-3.3 -3.26, -13.39 -13.13, -19.77 -19.53 C-26.16 -25.93, -33.98 -32.89, -38.29 -38.4 C-42.61 -43.9, -44.19 -47.37, -45.66 -52.57 C-47.12 -57.77, -47.49 -64.29, -47.09 -69.59 C-46.69 -74.89, -45.9 -79.32, -43.27 -84.38 C-40.64 -89.45, -37.13 -93.6, -31.31 -99.98 C-25.5 -106.37, -15.2 -115.94, -8.4 -122.67 C-1.6 -129.41, 5.97 -136.87, 9.51 -140.4 C13.05 -143.93, 11.63 -143.78, 12.83 -143.87 C14.03 -143.97, 14.02 -143.57, 16.69 -140.98 C19.36 -138.39, 23.83 -133.43, 28.86 -128.34 C33.9 -123.25, 39.59 -117.6, 46.89 -110.42 C54.19 -103.24, 64.42 -93.4, 72.67 -85.28 C80.91 -77.15, 88.37 -69.74, 96.37 -61.68 C104.38 -53.61, 115.05 -42.58, 120.69 -36.9 C126.34 -31.21, 128.72 -29.76, 130.22 -27.57 C131.73 -25.37, 131.53 -26.1, 129.72 -23.71 C127.91 -21.32, 124.71 -18.68, 119.36 -13.22 C114.01 -7.76, 104.26 2.49, 97.63 9.05 C90.99 15.62, 84.37 22.21, 79.56 26.15 C74.74 30.09, 71.85 31.26, 68.72 32.7 C65.6 34.13, 64.77 34.36, 60.81 34.76 C56.84 35.17, 49.67 35.79, 44.92 35.12 C40.17 34.44, 36.13 32.66, 32.3 30.7 C28.47 28.74, 25.99 27.06, 21.93 23.37 C17.87 19.68, 11.6 12.46, 7.95 8.57 C4.29 4.67, 1.32 1.43, 0 0 M0 0 C-3.3 -3.26, -13.39 -13.13, -19.77 -19.53 C-26.16 -25.93, -33.98 -32.89, -38.29 -38.4 C-42.61 -43.9, -44.19 -47.37, -45.66 -52.57 C-47.12 -57.77, -47.49 -64.29, -47.09 -69.59 C-46.69 -74.89, -45.9 -79.32, -43.27 -84.38 C-40.64 -89.45, -37.13 -93.6, -31.31 -99.98 C-25.5 -106.37, -15.2 -115.94, -8.4 -122.67 C-1.6 -129.41, 5.97 -136.87, 9.51 -140.4 C13.05 -143.93, 11.63 -143.78, 12.83 -143.87 C14.03 -143.97, 14.02 -143.57, 16.69 -140.98 C19.36 -138.39, 23.83 -133.43, 28.86 -128.34 C33.9 -123.25, 39.59 -117.6, 46.89 -110.42 C54.19 -103.24, 64.42 -93.4, 72.67 -85.28 C80.91 -77.15, 88.37 -69.74, 96.37 -61.68 C104.38 -53.61, 115.05 -42.58, 120.69 -36.9 C126.34 -31.21, 128.72 -29.76, 130.22 -27.57 C131.73 -25.37, 131.53 -26.1, 129.72 -23.71 C127.91 -21.32, 124.71 -18.68, 119.36 -13.22 C114.01 -7.76, 104.26 2.49, 97.63 9.05 C90.99 15.62, 84.37 22.21, 79.56 26.15 C74.74 30.09, 71.85 31.26, 68.72 32.7 C65.6 34.13, 64.77 34.36, 60.81 34.76 C56.84 35.17, 49.67 35.79, 44.92 35.12 C40.17 34.44, 36.13 32.66, 32.3 30.7 C28.47 28.74, 25.99 27.06, 21.93 23.37 C17.87 19.68, 11.6 12.46, 7.95 8.57 C4.29 4.67, 1.32 1.43, 0 0" stroke="#E1E1E1" stroke-width="4" fill="none"></path></g></g><mask></mask><g stroke-linecap="round"><g transform="translate(96.91579617309765 409.2628277999025) rotate(0 1.4616310324757933 7.052165918603137)" fill-rule="evenodd"><path d="M0 0 C2.49 2.49, 11.4 11.37, 14.93 14.93 C18.45 18.48, 19.61 19.8, 21.15 21.31 C22.7 22.82, 24.34 23.06, 24.18 24 C24.02 24.93, 21.45 26.07, 20.2 26.92 C18.95 27.76, 17.95 28.62, 16.65 29.06 C15.35 29.51, 13.99 30.09, 12.41 29.56 C10.82 29.03, 9.94 28.43, 7.15 25.9 C4.35 23.37, -0.42 18.34, -4.37 14.39 C-8.32 10.44, -13.74 5.2, -16.55 2.21 C-19.37 -0.78, -20.49 -1.69, -21.25 -3.55 C-22.02 -5.41, -22.05 -6.96, -21.16 -8.95 C-20.28 -10.93, -17.66 -15.06, -15.94 -15.45 C-14.22 -15.85, -13.52 -13.89, -10.86 -11.31 C-8.2 -8.74, -1.81 -1.89, 0 0" stroke="none" stroke-width="0" fill="#FFFFFF" fill-rule="evenodd"></path><path d="M0 0 C2.49 2.49, 11.4 11.37, 14.93 14.93 C18.45 18.48, 19.61 19.8, 21.15 21.31 C22.7 22.82, 24.34 23.06, 24.18 24 C24.02 24.93, 21.45 26.07, 20.2 26.92 C18.95 27.76, 17.95 28.62, 16.65 29.06 C15.35 29.51, 13.99 30.09, 12.41 29.56 C10.82 29.03, 9.94 28.43, 7.15 25.9 C4.35 23.37, -0.42 18.34, -4.37 14.39 C-8.32 10.44, -13.74 5.2, -16.55 2.21 C-19.37 -0.78, -20.49 -1.69, -21.25 -3.55 C-22.02 -5.41, -22.05 -6.96, -21.16 -8.95 C-20.28 -10.93, -17.66 -15.06, -15.94 -15.45 C-14.22 -15.85, -13.52 -13.89, -10.86 -11.31 C-8.2 -8.74, -1.81 -1.89, 0 0 M0 0 C2.49 2.49, 11.4 11.37, 14.93 14.93 C18.45 18.48, 19.61 19.8, 21.15 21.31 C22.7 22.82, 24.34 23.06, 24.18 24 C24.02 24.93, 21.45 26.07, 20.2 26.92 C18.95 27.76, 17.95 28.62, 16.65 29.06 C15.35 29.51, 13.99 30.09, 12.41 29.56 C10.82 29.03, 9.94 28.43, 7.15 25.9 C4.35 23.37, -0.42 18.34, -4.37 14.39 C-8.32 10.44, -13.74 5.2, -16.55 2.21 C-19.37 -0.78, -20.49 -1.69, -21.25 -3.55 C-22.02 -5.41, -22.05 -6.96, -21.16 -8.95 C-20.28 -10.93, -17.66 -15.06, -15.94 -15.45 C-14.22 -15.85, -13.52 -13.89, -10.86 -11.31 C-8.2 -8.74, -1.81 -1.89, 0 0" stroke="#E1E1E1" stroke-width="4" fill="none"></path></g></g><mask></mask><g stroke-linecap="round" transform="translate(48.84339514730357 421.89900423765135) rotate(44.99999999999985 7.443872405557585 35.191152425544104)"><path d="M0 0 L14.89 0 L14.89 70.38 L0 70.38" stroke="none" stroke-width="0" fill="#FFFFFF"></path><path d="M0 0 C4.23 0, 8.47 0, 14.89 0 M0 0 C5.81 0, 11.61 0, 14.89 0 M14.89 0 C14.89 14.49, 14.89 28.99, 14.89 70.38 M14.89 0 C14.89 17.08, 14.89 34.17, 14.89 70.38 M14.89 70.38 C11.85 70.38, 8.81 70.38, 0 70.38 M14.89 70.38 C11.46 70.38, 8.04 70.38, 0 70.38 M0 70.38 C0 44.55, 0 18.72, 0 0 M0 70.38 C0 42.31, 0 14.23, 0 0" stroke="#E1E1E1" stroke-width="4" fill="none"></path></g><g stroke-linecap="round"><g transform="translate(143.19141899255385 376.776957745125) rotate(0 12.104458603835312 -18.208617926416494)"><path d="M0 0 C-9.5 -9.5, -19 -19, -42.72 -42.72 M0 0 C-11.29 -11.29, -22.58 -22.58, -42.72 -42.72 M-42.72 -42.72 C-32.36 -53.08, -22 -63.43, -12.44 -72.99 M-42.72 -42.72 C-35.59 -49.84, -28.47 -56.96, -12.44 -72.99 M-12.44 -72.99 C15.64 -44.91, 43.72 -16.83, 66.93 6.37 M-12.44 -72.99 C18.4 -42.15, 49.24 -11.31, 66.93 6.37 M66.93 6.37 C59.56 13.72, 52.19 21.07, 36.64 36.58 M66.93 6.37 C59.71 13.56, 52.5 20.76, 36.64 36.58 M36.64 36.58 C26.88 26.83, 17.11 17.08, 0 0 M36.64 36.58 C22.87 22.83, 9.1 9.09, 0 0" stroke="#E1E1E1" stroke-width="4" fill="none"></path></g></g><mask></mask><g stroke-linecap="round"><g transform="translate(118.98282580224452 371.6104957946714) rotate(0 36.05328681413586 -13.263046758307098)"><path d="M0 0 C-3.3 -3.3, -14.5 -14.5, -19.83 -19.83 C-25.16 -25.16, -29.55 -29.11, -31.99 -31.99 C-34.42 -34.86, -34.17 -35.46, -34.43 -37.08 C-34.69 -38.69, -34.91 -39.67, -33.53 -41.68 C-32.15 -43.68, -30.87 -44.38, -26.14 -49.12 C-21.41 -53.85, -10.41 -64.84, -5.15 -70.11 C0.12 -75.37, 2.86 -78.42, 5.44 -80.7 C8.03 -82.97, 8.76 -83.4, 10.38 -83.74 C11.99 -84.08, 12.85 -84.48, 15.15 -82.74 C17.46 -81.01, 18.86 -78.74, 24.2 -73.34 C29.54 -67.95, 36.98 -60.56, 47.18 -50.36 C57.38 -40.16, 76.58 -20.96, 85.41 -12.13 C94.24 -3.3, 96.87 -0.66, 100.16 2.61 C103.45 5.88, 104.08 5.9, 105.15 7.48 C106.21 9.05, 106.61 10.55, 106.54 12.07 C106.46 13.58, 105.52 15.31, 104.7 16.57 C103.89 17.84, 104.77 16.54, 101.67 19.65 C98.57 22.76, 91.48 29.84, 86.08 35.24 C80.68 40.64, 72.97 48.47, 69.28 52.04 C65.59 55.62, 65.65 55.83, 63.93 56.69 C62.21 57.56, 60.66 57.73, 58.96 57.22 C57.27 56.7, 58.05 57.66, 53.74 53.62 C49.44 49.58, 42.07 41.92, 33.12 32.99 C24.16 24.05, 5.52 5.5, 0 0 M0 0 C-3.3 -3.3, -14.5 -14.5, -19.83 -19.83 C-25.16 -25.16, -29.55 -29.11, -31.99 -31.99 C-34.42 -34.86, -34.17 -35.46, -34.43 -37.08 C-34.69 -38.69, -34.91 -39.67, -33.53 -41.68 C-32.15 -43.68, -30.87 -44.38, -26.14 -49.12 C-21.41 -53.85, -10.41 -64.84, -5.15 -70.11 C0.12 -75.37, 2.86 -78.42, 5.44 -80.7 C8.03 -82.97, 8.76 -83.4, 10.38 -83.74 C11.99 -84.08, 12.85 -84.48, 15.15 -82.74 C17.46 -81.01, 18.86 -78.74, 24.2 -73.34 C29.54 -67.95, 36.98 -60.56, 47.18 -50.36 C57.38 -40.16, 76.58 -20.96, 85.41 -12.13 C94.24 -3.3, 96.87 -0.66, 100.16 2.61 C103.45 5.88, 104.08 5.9, 105.15 7.48 C106.21 9.05, 106.61 10.55, 106.54 12.07 C106.46 13.58, 105.52 15.31, 104.7 16.57 C103.89 17.84, 104.77 16.54, 101.67 19.65 C98.57 22.76, 91.48 29.84, 86.08 35.24 C80.68 40.64, 72.97 48.47, 69.28 52.04 C65.59 55.62, 65.65 55.83, 63.93 56.69 C62.21 57.56, 60.66 57.73, 58.96 57.22 C57.27 56.7, 58.05 57.66, 53.74 53.62 C49.44 49.58, 42.07 41.92, 33.12 32.99 C24.16 24.05, 5.52 5.5, 0 0" stroke="#E1E1E1" stroke-width="4" fill="none"></path></g></g><mask></mask><g stroke-linecap="round"><g transform="translate(150.411052528632 363.29934743693735) rotate(0 4.773806357102323 -4.836256290813921)" fill-rule="evenodd"><path d="M0 0 C-1.78 -1.78, -8.01 -8.01, -10.66 -10.66 C-13.3 -13.3, -14.9 -14.13, -15.87 -15.87 C-16.83 -17.61, -16.68 -19.59, -16.45 -21.1 C-16.21 -22.61, -15.46 -24.1, -14.46 -24.92 C-13.47 -25.74, -11.85 -25.92, -10.47 -26.01 C-9.09 -26.09, -7.89 -26.51, -6.19 -25.43 C-4.5 -24.36, -3.64 -22.9, -0.3 -19.56 C3.04 -16.22, 10.09 -9.17, 13.84 -5.42 C17.59 -1.67, 20.23 0.83, 22.2 2.94 C24.17 5.05, 25.04 5.86, 25.68 7.26 C26.31 8.66, 26.32 9.98, 25.99 11.32 C25.66 12.65, 24.81 14.43, 23.69 15.27 C22.57 16.11, 20.69 16.36, 19.27 16.33 C17.85 16.3, 17.43 16.85, 15.18 15.08 C12.94 13.31, 8.49 8.39, 5.81 5.7 C3.12 3.02, 0.19 0.09, -0.93 -1.03" stroke="none" stroke-width="0" fill="#FFFFFF" fill-rule="evenodd"></path><path d="M0 0 C-1.78 -1.78, -8.01 -8.01, -10.66 -10.66 C-13.3 -13.3, -14.9 -14.13, -15.87 -15.87 C-16.83 -17.61, -16.68 -19.59, -16.45 -21.1 C-16.21 -22.61, -15.46 -24.1, -14.46 -24.92 C-13.47 -25.74, -11.85 -25.92, -10.47 -26.01 C-9.09 -26.09, -7.89 -26.51, -6.19 -25.43 C-4.5 -24.36, -3.64 -22.9, -0.3 -19.56 C3.04 -16.22, 10.09 -9.17, 13.84 -5.42 C17.59 -1.67, 20.23 0.83, 22.2 2.94 C24.17 5.05, 25.04 5.86, 25.68 7.26 C26.31 8.66, 26.32 9.98, 25.99 11.32 C25.66 12.65, 24.81 14.43, 23.69 15.27 C22.57 16.11, 20.69 16.36, 19.27 16.33 C17.85 16.3, 17.43 16.85, 15.18 15.08 C12.94 13.31, 8.49 8.39, 5.81 5.7 C3.12 3.02, 0.19 0.09, -0.93 -1.03 M0 0 C-1.78 -1.78, -8.01 -8.01, -10.66 -10.66 C-13.3 -13.3, -14.9 -14.13, -15.87 -15.87 C-16.83 -17.61, -16.68 -19.59, -16.45 -21.1 C-16.21 -22.61, -15.46 -24.1, -14.46 -24.92 C-13.47 -25.74, -11.85 -25.92, -10.47 -26.01 C-9.09 -26.09, -7.89 -26.51, -6.19 -25.43 C-4.5 -24.36, -3.64 -22.9, -0.3 -19.56 C3.04 -16.22, 10.09 -9.17, 13.84 -5.42 C17.59 -1.67, 20.23 0.83, 22.2 2.94 C24.17 5.05, 25.04 5.86, 25.68 7.26 C26.31 8.66, 26.32 9.98, 25.99 11.32 C25.66 12.65, 24.81 14.43, 23.69 15.27 C22.57 16.11, 20.69 16.36, 19.27 16.33 C17.85 16.3, 17.43 16.85, 15.18 15.08 C12.94 13.31, 8.49 8.39, 5.81 5.7 C3.12 3.02, 0.19 0.09, -0.93 -1.03" stroke="#E1E1E1" stroke-width="4" fill="none"></path></g></g><mask></mask><g stroke-linecap="round"><g transform="translate(265.38451847685485 251.70371581934666) rotate(0 55.06986367583775 -58.642697902841036)"><path d="M0 0 C-6.39 -6.39, -27.58 -27.58, -38.37 -38.37 C-49.15 -49.15, -59.87 -59.54, -64.71 -64.71 C-69.55 -69.88, -67.12 -67.7, -67.42 -69.38 C-67.72 -71.06, -68.95 -71.59, -66.52 -74.77 C-64.08 -77.96, -60.19 -81.1, -52.82 -88.47 C-45.45 -95.85, -30 -112.08, -22.28 -119.01 C-14.56 -125.94, -11.78 -127.4, -6.5 -130.03 C-1.23 -132.67, 3.46 -134.08, 9.37 -134.83 C15.29 -135.59, 23.38 -135.43, 29 -134.57 C34.62 -133.7, 39.44 -131.26, 43.1 -129.65 C46.76 -128.04, 48.72 -126.47, 50.97 -124.91 C53.21 -123.36, 54.88 -120.69, 56.55 -120.32 C58.23 -119.95, 59.52 -121.58, 61.02 -122.7 C62.51 -123.82, 63.64 -125.85, 65.52 -127.06 C67.41 -128.27, 70.09 -129.38, 72.3 -129.96 C74.52 -130.53, 76.65 -130.64, 78.82 -130.51 C80.98 -130.37, 83.06 -130.08, 85.27 -129.13 C87.48 -128.18, 90.28 -124.86, 92.06 -124.81 C93.84 -124.77, 91.68 -124.55, 95.97 -128.88 C100.27 -133.2, 111.31 -144.21, 117.85 -150.75 C124.38 -157.28, 130.43 -163.34, 135.19 -168.09 C139.94 -172.85, 143.52 -177.13, 146.37 -179.28 C149.23 -181.42, 150.46 -181.18, 152.3 -180.96 C154.14 -180.75, 154.4 -180.61, 157.4 -177.96 C160.4 -175.31, 167.21 -168.15, 170.27 -165.09 C173.34 -162.02, 174.57 -161.33, 175.79 -159.57 C177 -157.81, 177.66 -156.37, 177.56 -154.53 C177.45 -152.69, 178.44 -152.43, 175.15 -148.53 C171.85 -144.64, 164.81 -138.2, 157.79 -131.18 C150.77 -124.16, 138.91 -112.3, 133.04 -106.42 C127.16 -100.55, 123.95 -98.58, 122.54 -95.93 C121.13 -93.28, 123.85 -92.38, 124.57 -90.51 C125.29 -88.64, 126.47 -86.99, 126.84 -84.69 C127.22 -82.39, 127.43 -79.41, 126.83 -76.74 C126.23 -74.06, 124.59 -70.8, 123.26 -68.64 C121.93 -66.47, 120.03 -65.11, 118.83 -63.74 C117.64 -62.37, 116.06 -61.58, 116.09 -60.43 C116.11 -59.28, 117.61 -58.59, 118.99 -56.85 C120.37 -55.11, 122.65 -53.09, 124.39 -49.99 C126.12 -46.9, 128.25 -41.81, 129.39 -38.28 C130.53 -34.75, 130.93 -33.2, 131.21 -28.79 C131.49 -24.39, 131.8 -17.02, 131.07 -11.86 C130.34 -6.7, 128.39 -1.83, 126.83 2.18 C125.27 6.19, 125.24 7.76, 121.71 12.18 C118.18 16.6, 110.43 23.83, 105.66 28.71 C100.9 33.58, 97.9 36.63, 93.14 41.44 C88.38 46.25, 80.83 53.92, 77.12 57.56 C73.4 61.21, 72.81 62.29, 70.83 63.31 C68.85 64.33, 67.67 64.89, 65.24 63.68 C62.81 62.46, 64.1 63.66, 56.24 56.02 C48.38 48.39, 27.47 27.21, 18.1 17.88 C8.72 8.54, 3.02 2.98, 0 0 M0 0 C-6.39 -6.39, -27.58 -27.58, -38.37 -38.37 C-49.15 -49.15, -59.87 -59.54, -64.71 -64.71 C-69.55 -69.88, -67.12 -67.7, -67.42 -69.38 C-67.72 -71.06, -68.95 -71.59, -66.52 -74.77 C-64.08 -77.96, -60.19 -81.1, -52.82 -88.47 C-45.45 -95.85, -30 -112.08, -22.28 -119.01 C-14.56 -125.94, -11.78 -127.4, -6.5 -130.03 C-1.23 -132.67, 3.46 -134.08, 9.37 -134.83 C15.29 -135.59, 23.38 -135.43, 29 -134.57 C34.62 -133.7, 39.44 -131.26, 43.1 -129.65 C46.76 -128.04, 48.72 -126.47, 50.97 -124.91 C53.21 -123.36, 54.88 -120.69, 56.55 -120.32 C58.23 -119.95, 59.52 -121.58, 61.02 -122.7 C62.51 -123.82, 63.64 -125.85, 65.52 -127.06 C67.41 -128.27, 70.09 -129.38, 72.3 -129.96 C74.52 -130.53, 76.65 -130.64, 78.82 -130.51 C80.98 -130.37, 83.06 -130.08, 85.27 -129.13 C87.48 -128.18, 90.28 -124.86, 92.06 -124.81 C93.84 -124.77, 91.68 -124.55, 95.97 -128.88 C100.27 -133.2, 111.31 -144.21, 117.85 -150.75 C124.38 -157.28, 130.43 -163.34, 135.19 -168.09 C139.94 -172.85, 143.52 -177.13, 146.37 -179.28 C149.23 -181.42, 150.46 -181.18, 152.3 -180.96 C154.14 -180.75, 154.4 -180.61, 157.4 -177.96 C160.4 -175.31, 167.21 -168.15, 170.27 -165.09 C173.34 -162.02, 174.57 -161.33, 175.79 -159.57 C177 -157.81, 177.66 -156.37, 177.56 -154.53 C177.45 -152.69, 178.44 -152.43, 175.15 -148.53 C171.85 -144.64, 164.81 -138.2, 157.79 -131.18 C150.77 -124.16, 138.91 -112.3, 133.04 -106.42 C127.16 -100.55, 123.95 -98.58, 122.54 -95.93 C121.13 -93.28, 123.85 -92.38, 124.57 -90.51 C125.29 -88.64, 126.47 -86.99, 126.84 -84.69 C127.22 -82.39, 127.43 -79.41, 126.83 -76.74 C126.23 -74.06, 124.59 -70.8, 123.26 -68.64 C121.93 -66.47, 120.03 -65.11, 118.83 -63.74 C117.64 -62.37, 116.06 -61.58, 116.09 -60.43 C116.11 -59.28, 117.61 -58.59, 118.99 -56.85 C120.37 -55.11, 122.65 -53.09, 124.39 -49.99 C126.12 -46.9, 128.25 -41.81, 129.39 -38.28 C130.53 -34.75, 130.93 -33.2, 131.21 -28.79 C131.49 -24.39, 131.8 -17.02, 131.07 -11.86 C130.34 -6.7, 128.39 -1.83, 126.83 2.18 C125.27 6.19, 125.24 7.76, 121.71 12.18 C118.18 16.6, 110.43 23.83, 105.66 28.71 C100.9 33.58, 97.9 36.63, 93.14 41.44 C88.38 46.25, 80.83 53.92, 77.12 57.56 C73.4 61.21, 72.81 62.29, 70.83 63.31 C68.85 64.33, 67.67 64.89, 65.24 63.68 C62.81 62.46, 64.1 63.66, 56.24 56.02 C48.38 48.39, 27.47 27.21, 18.1 17.88 C8.72 8.54, 3.02 2.98, 0 0" stroke="#E1E1E1" stroke-width="4" fill="none"></path></g></g><mask></mask><g stroke-linecap="round"><g transform="translate(214.35183209052923 180.7975187222233) rotate(0 84.47875310975375 34.25982695410485)"><path d="M0 0 C2.44 -2.49, 7.87 -8.21, 14.65 -14.97 C21.43 -21.73, 33.57 -34.84, 40.66 -40.56 C47.76 -46.27, 51.28 -47.69, 57.22 -49.28 C63.15 -50.87, 70.69 -50.8, 76.28 -50.12 C81.86 -49.44, 86.32 -47.71, 90.71 -45.21 C95.1 -42.72, 96.94 -40.52, 102.61 -35.16 C108.29 -29.79, 116.45 -21.32, 124.77 -13 C133.1 -4.67, 146.27 8.26, 152.55 14.79 C158.84 21.31, 159.76 21.57, 162.46 26.16 C165.17 30.75, 167.71 37.14, 168.79 42.32 C169.87 47.51, 169.83 52.34, 168.96 57.28 C168.08 62.22, 166.12 67.54, 163.56 71.98 C160.99 76.42, 158.34 78.83, 153.58 83.92 C148.81 89.02, 140.02 97.48, 134.96 102.54 C129.89 107.61, 125.88 111.62, 123.2 114.3 C120.52 116.98, 120.46 118.68, 118.86 118.64 C117.25 118.61, 119.45 119.86, 113.56 114.1 C107.68 108.34, 95.51 96.05, 83.54 84.08 C71.58 72.12, 55.67 56.3, 41.75 42.29 C27.82 28.27, 6.96 7.05, 0 0 M0 0 C2.44 -2.49, 7.87 -8.21, 14.65 -14.97 C21.43 -21.73, 33.57 -34.84, 40.66 -40.56 C47.76 -46.27, 51.28 -47.69, 57.22 -49.28 C63.15 -50.87, 70.69 -50.8, 76.28 -50.12 C81.86 -49.44, 86.32 -47.71, 90.71 -45.21 C95.1 -42.72, 96.94 -40.52, 102.61 -35.16 C108.29 -29.79, 116.45 -21.32, 124.77 -13 C133.1 -4.67, 146.27 8.26, 152.55 14.79 C158.84 21.31, 159.76 21.57, 162.46 26.16 C165.17 30.75, 167.71 37.14, 168.79 42.32 C169.87 47.51, 169.83 52.34, 168.96 57.28 C168.08 62.22, 166.12 67.54, 163.56 71.98 C160.99 76.42, 158.34 78.83, 153.58 83.92 C148.81 89.02, 140.02 97.48, 134.96 102.54 C129.89 107.61, 125.88 111.62, 123.2 114.3 C120.52 116.98, 120.46 118.68, 118.86 118.64 C117.25 118.61, 119.45 119.86, 113.56 114.1 C107.68 108.34, 95.51 96.05, 83.54 84.08 C71.58 72.12, 55.67 56.3, 41.75 42.29 C27.82 28.27, 6.96 7.05, 0 0" stroke="#E1E1E1" stroke-width="4" fill="none"></path></g></g><mask></mask><g stroke-linecap="round"><g transform="translate(342.1854369518211 151.14036966013515) rotate(0 13.941539351449705 6.993902379002492)" fill-rule="evenodd"><path d="M0 0 C-1.48 -1.51, -7.84 -6.87, -8.87 -9.04 C-9.9 -11.21, -7.39 -11.92, -6.18 -13.03 C-4.97 -14.14, -3.15 -15.28, -1.61 -15.69 C-0.06 -16.11, 1.14 -16.48, 3.07 -15.54 C5 -14.6, 6.81 -12.99, 9.98 -10.06 C13.15 -7.14, 17.95 -2.09, 22.07 2.03 C26.18 6.14, 32.22 11.63, 34.67 14.63 C37.12 17.63, 36.69 18.25, 36.75 20 C36.82 21.76, 36.11 23.52, 35.05 25.13 C33.98 26.75, 31.71 29.29, 30.38 29.68 C29.06 30.07, 29.33 29.52, 27.09 27.46 C24.85 25.4, 21.46 21.89, 16.95 17.31 C12.43 12.74, 2.82 2.89, 0 0" stroke="none" stroke-width="0" fill="#FFFFFF" fill-rule="evenodd"></path><path d="M0 0 C-1.48 -1.51, -7.84 -6.87, -8.87 -9.04 C-9.9 -11.21, -7.39 -11.92, -6.18 -13.03 C-4.97 -14.14, -3.15 -15.28, -1.61 -15.69 C-0.06 -16.11, 1.14 -16.48, 3.07 -15.54 C5 -14.6, 6.81 -12.99, 9.98 -10.06 C13.15 -7.14, 17.95 -2.09, 22.07 2.03 C26.18 6.14, 32.22 11.63, 34.67 14.63 C37.12 17.63, 36.69 18.25, 36.75 20 C36.82 21.76, 36.11 23.52, 35.05 25.13 C33.98 26.75, 31.71 29.29, 30.38 29.68 C29.06 30.07, 29.33 29.52, 27.09 27.46 C24.85 25.4, 21.46 21.89, 16.95 17.31 C12.43 12.74, 2.82 2.89, 0 0 M0 0 C-1.48 -1.51, -7.84 -6.87, -8.87 -9.04 C-9.9 -11.21, -7.39 -11.92, -6.18 -13.03 C-4.97 -14.14, -3.15 -15.28, -1.61 -15.69 C-0.06 -16.11, 1.14 -16.48, 3.07 -15.54 C5 -14.6, 6.81 -12.99, 9.98 -10.06 C13.15 -7.14, 17.95 -2.09, 22.07 2.03 C26.18 6.14, 32.22 11.63, 34.67 14.63 C37.12 17.63, 36.69 18.25, 36.75 20 C36.82 21.76, 36.11 23.52, 35.05 25.13 C33.98 26.75, 31.71 29.29, 30.38 29.68 C29.06 30.07, 29.33 29.52, 27.09 27.46 C24.85 25.4, 21.46 21.89, 16.95 17.31 C12.43 12.74, 2.82 2.89, 0 0" stroke="#E1E1E1" stroke-width="4" fill="none"></path></g></g><mask></mask><g stroke-linecap="round" transform="translate(389.5132629283463 81.90840124089988) rotate(44.99999999999985 7.443872405557578 35.19115242554412)"><path d="M0 0 L14.89 0 L14.89 70.38 L0 70.38" stroke="none" stroke-width="0" fill="#FFFFFF"></path><path d="M0 0 C3.07 0, 6.13 0, 14.89 0 M0 0 C3.61 0, 7.23 0, 14.89 0 M14.89 0 C14.89 14.37, 14.89 28.73, 14.89 70.38 M14.89 0 C14.89 16.18, 14.89 32.36, 14.89 70.38 M14.89 70.38 C9.42 70.38, 3.96 70.38, 0 70.38 M14.89 70.38 C8.95 70.38, 3.01 70.38, 0 70.38 M0 70.38 C0 55.87, 0 41.35, 0 0 M0 70.38 C0 51.24, 0 32.11, 0 0" stroke="#E1E1E1" stroke-width="4" fill="none"></path></g><g stroke-linecap="round"><g transform="translate(300.89285800921937 169.05172221415847) rotate(0 -17.15323043885688 -5.833163302741468)" fill-rule="evenodd"><path d="M0 0 C-1.46 -1.48, -6.38 -6.89, -8.79 -8.86 C-11.2 -10.82, -12.32 -11.38, -14.46 -11.8 C-16.6 -12.22, -19.38 -12.13, -21.63 -11.39 C-23.89 -10.64, -25.51 -9.38, -27.98 -7.31 C-30.45 -5.24, -33.96 -1.48, -36.47 1.02 C-38.98 3.52, -41.2 5.81, -43.03 7.68 C-44.86 9.55, -46.03 11.28, -47.43 12.25 C-48.84 13.23, -50.07 13.52, -51.44 13.55 C-52.81 13.57, -54.55 13.2, -55.66 12.42 C-56.77 11.63, -57.73 10.17, -58.11 8.84 C-58.5 7.51, -58.7 5.97, -57.96 4.45 C-57.22 2.94, -56.75 2.88, -53.67 -0.26 C-50.6 -3.41, -43.01 -11.06, -39.5 -14.43 C-35.99 -17.8, -34.72 -19.02, -32.61 -20.48 C-30.49 -21.95, -29.11 -22.42, -26.82 -23.21 C-24.53 -24, -21.53 -25, -18.88 -25.21 C-16.22 -25.42, -13.21 -24.93, -10.9 -24.46 C-8.6 -23.99, -7.13 -23.42, -5.04 -22.4 C-2.96 -21.37, -0.83 -20.45, 1.62 -18.29 C4.07 -16.12, 6.77 -12.46, 9.68 -9.41 C12.59 -6.36, 16.95 -2.14, 19.1 -0.01 C21.24 2.13, 21.75 2.06, 22.54 3.38 C23.32 4.71, 23.9 6.57, 23.81 7.95 C23.72 9.33, 22.84 10.75, 22 11.67 C21.15 12.59, 20.02 13.17, 18.76 13.45 C17.5 13.74, 15.96 14.02, 14.46 13.38 C12.95 12.74, 11.59 11.3, 9.75 9.62 C7.91 7.95, 5.06 4.93, 3.43 3.33 C1.81 1.72, 0.57 0.55, 0 0" stroke="none" stroke-width="0" fill="#FFFFFF" fill-rule="evenodd"></path><path d="M0 0 C-1.46 -1.48, -6.38 -6.89, -8.79 -8.86 C-11.2 -10.82, -12.32 -11.38, -14.46 -11.8 C-16.6 -12.22, -19.38 -12.13, -21.63 -11.39 C-23.89 -10.64, -25.51 -9.38, -27.98 -7.31 C-30.45 -5.24, -33.96 -1.48, -36.47 1.02 C-38.98 3.52, -41.2 5.81, -43.03 7.68 C-44.86 9.55, -46.03 11.28, -47.43 12.25 C-48.84 13.23, -50.07 13.52, -51.44 13.55 C-52.81 13.57, -54.55 13.2, -55.66 12.42 C-56.77 11.63, -57.73 10.17, -58.11 8.84 C-58.5 7.51, -58.7 5.97, -57.96 4.45 C-57.22 2.94, -56.75 2.88, -53.67 -0.26 C-50.6 -3.41, -43.01 -11.06, -39.5 -14.43 C-35.99 -17.8, -34.72 -19.02, -32.61 -20.48 C-30.49 -21.95, -29.11 -22.42, -26.82 -23.21 C-24.53 -24, -21.53 -25, -18.88 -25.21 C-16.22 -25.42, -13.21 -24.93, -10.9 -24.46 C-8.6 -23.99, -7.13 -23.42, -5.04 -22.4 C-2.96 -21.37, -0.83 -20.45, 1.62 -18.29 C4.07 -16.12, 6.77 -12.46, 9.68 -9.41 C12.59 -6.36, 16.95 -2.14, 19.1 -0.01 C21.24 2.13, 21.75 2.06, 22.54 3.38 C23.32 4.71, 23.9 6.57, 23.81 7.95 C23.72 9.33, 22.84 10.75, 22 11.67 C21.15 12.59, 20.02 13.17, 18.76 13.45 C17.5 13.74, 15.96 14.02, 14.46 13.38 C12.95 12.74, 11.59 11.3, 9.75 9.62 C7.91 7.95, 5.06 4.93, 3.43 3.33 C1.81 1.72, 0.57 0.55, 0 0 M0 0 C-1.46 -1.48, -6.38 -6.89, -8.79 -8.86 C-11.2 -10.82, -12.32 -11.38, -14.46 -11.8 C-16.6 -12.22, -19.38 -12.13, -21.63 -11.39 C-23.89 -10.64, -25.51 -9.38, -27.98 -7.31 C-30.45 -5.24, -33.96 -1.48, -36.47 1.02 C-38.98 3.52, -41.2 5.81, -43.03 7.68 C-44.86 9.55, -46.03 11.28, -47.43 12.25 C-48.84 13.23, -50.07 13.52, -51.44 13.55 C-52.81 13.57, -54.55 13.2, -55.66 12.42 C-56.77 11.63, -57.73 10.17, -58.11 8.84 C-58.5 7.51, -58.7 5.97, -57.96 4.45 C-57.22 2.94, -56.75 2.88, -53.67 -0.26 C-50.6 -3.41, -43.01 -11.06, -39.5 -14.43 C-35.99 -17.8, -34.72 -19.02, -32.61 -20.48 C-30.49 -21.95, -29.11 -22.42, -26.82 -23.21 C-24.53 -24, -21.53 -25, -18.88 -25.21 C-16.22 -25.42, -13.21 -24.93, -10.9 -24.46 C-8.6 -23.99, -7.13 -23.42, -5.04 -22.4 C-2.96 -21.37, -0.83 -20.45, 1.62 -18.29 C4.07 -16.12, 6.77 -12.46, 9.68 -9.41 C12.59 -6.36, 16.95 -2.14, 19.1 -0.01 C21.24 2.13, 21.75 2.06, 22.54 3.38 C23.32 4.71, 23.9 6.57, 23.81 7.95 C23.72 9.33, 22.84 10.75, 22 11.67 C21.15 12.59, 20.02 13.17, 18.76 13.45 C17.5 13.74, 15.96 14.02, 14.46 13.38 C12.95 12.74, 11.59 11.3, 9.75 9.62 C7.91 7.95, 5.06 4.93, 3.43 3.33 C1.81 1.72, 0.57 0.55, 0 0" stroke="#E1E1E1" stroke-width="4" fill="none"></path></g></g><mask></mask></svg>