<svg version="1.1" xmlns="http://www.w3.org/2000/svg" viewBox="0 0 483.44519633676646 552.905417122982" width="483.44519633676646" height="552.905417122982" class="excalidraw-svg"><!-- svg-source:excalidraw --><metadata></metadata><defs><style class="style-fonts">
      </style></defs><rect x="0" y="0" width="483.44519633676646" height="552.905417122982" fill="#000000"></rect><g stroke-linecap="round"><g transform="translate(96.25341828132179 417.69624288821296) rotate(0 13.144966137211235 -97.87482123983065)"><path d="M0 0 C-4.51 1.01, -19.56 4.24, -27.04 6.08 C-34.52 7.92, -40.97 9.08, -44.88 11.06 C-48.79 13.04, -49.89 15.42, -50.5 17.97 C-51.12 20.51, -50.13 24.36, -48.55 26.35 C-46.97 28.33, -44.72 29.81, -41.03 29.86 C-37.33 29.92, -32.78 28.25, -26.4 26.65 C-20.02 25.05, -9.31 21.89, -2.74 20.24 C3.82 18.59, 9.46 18.56, 13 16.76 C16.53 14.96, 17.45 13.85, 18.48 9.43 C19.5 5.01, 18.9 -1.06, 19.15 -9.79 C19.39 -18.52, 19.4 -31.78, 19.95 -42.93 C20.5 -54.09, 21.44 -67.27, 22.47 -76.71 C23.49 -86.15, 24.35 -91.79, 26.1 -99.58 C27.86 -107.37, 29.66 -113.97, 33.01 -123.46 C36.35 -132.95, 41.34 -145.06, 46.16 -156.54 C50.99 -168.02, 56.88 -180.97, 61.95 -192.35 C67.03 -203.73, 74.16 -219.27, 76.63 -224.82 C79.1 -230.36, 76.77 -225.48, 76.79 -225.61 M0 0 C-4.51 1.01, -19.56 4.24, -27.04 6.08 C-34.52 7.92, -40.97 9.08, -44.88 11.06 C-48.79 13.04, -49.89 15.42, -50.5 17.97 C-51.12 20.51, -50.13 24.36, -48.55 26.35 C-46.97 28.33, -44.72 29.81, -41.03 29.86 C-37.33 29.92, -32.78 28.25, -26.4 26.65 C-20.02 25.05, -9.31 21.89, -2.74 20.24 C3.82 18.59, 9.46 18.56, 13 16.76 C16.53 14.96, 17.45 13.85, 18.48 9.43 C19.5 5.01, 18.9 -1.06, 19.15 -9.79 C19.39 -18.52, 19.4 -31.78, 19.95 -42.93 C20.5 -54.09, 21.44 -67.27, 22.47 -76.71 C23.49 -86.15, 24.35 -91.79, 26.1 -99.58 C27.86 -107.37, 29.66 -113.97, 33.01 -123.46 C36.35 -132.95, 41.34 -145.06, 46.16 -156.54 C50.99 -168.02, 56.88 -180.97, 61.95 -192.35 C67.03 -203.73, 74.16 -219.27, 76.63 -224.82 C79.1 -230.36, 76.77 -225.48, 76.79 -225.61" stroke="#E1E1E1" stroke-width="2" fill="none"></path></g></g><mask></mask><g stroke-linecap="round"><g transform="translate(168.79118793937897 201.8938177187049) rotate(0 -34.05853194820137 95.16710723447484)"><path d="M0 0 C0.85 -1.94, 4.33 -8.08, 5.08 -11.62 C5.82 -15.16, 5.74 -18.86, 4.48 -21.24 C3.22 -23.61, 0.02 -25.55, -2.47 -25.86 C-4.95 -26.17, -7.63 -26.59, -10.43 -23.09 C-13.24 -19.6, -15.52 -13.02, -19.3 -4.87 C-23.08 3.28, -28.4 15.07, -33.12 25.82 C-37.84 36.56, -43.34 49.01, -47.61 59.6 C-51.88 70.19, -55.52 79.76, -58.76 89.35 C-62 98.93, -64.88 105.11, -67.05 117.12 C-69.22 129.12, -70.73 146.42, -71.76 161.39 C-72.78 176.35, -72.98 197.77, -73.19 206.9 C-73.41 216.04, -73.07 214.65, -73.05 216.19 M0 0 C0.85 -1.94, 4.33 -8.08, 5.08 -11.62 C5.82 -15.16, 5.74 -18.86, 4.48 -21.24 C3.22 -23.61, 0.02 -25.55, -2.47 -25.86 C-4.95 -26.17, -7.63 -26.59, -10.43 -23.09 C-13.24 -19.6, -15.52 -13.02, -19.3 -4.87 C-23.08 3.28, -28.4 15.07, -33.12 25.82 C-37.84 36.56, -43.34 49.01, -47.61 59.6 C-51.88 70.19, -55.52 79.76, -58.76 89.35 C-62 98.93, -64.88 105.11, -67.05 117.12 C-69.22 129.12, -70.73 146.42, -71.76 161.39 C-72.78 176.35, -72.98 197.77, -73.19 206.9 C-73.41 216.04, -73.07 214.65, -73.05 216.19" stroke="#E1E1E1" stroke-width="2" fill="none"></path></g></g><mask></mask><g stroke-linecap="round" transform="translate(172.80971109713005 138.09991360866002) rotate(0 9.40969465650857 9.40969465650857)"><path d="M18.82 9.41 C18.82 9.95, 18.77 10.51, 18.68 11.04 C18.58 11.58, 18.44 12.12, 18.25 12.63 C18.07 13.14, 17.83 13.64, 17.56 14.11 C17.29 14.59, 16.97 15.04, 16.62 15.46 C16.27 15.88, 15.88 16.27, 15.46 16.62 C15.04 16.97, 14.59 17.29, 14.11 17.56 C13.64 17.83, 13.14 18.07, 12.63 18.25 C12.12 18.44, 11.58 18.58, 11.04 18.68 C10.51 18.77, 9.95 18.82, 9.41 18.82 C8.87 18.82, 8.31 18.77, 7.78 18.68 C7.24 18.58, 6.7 18.44, 6.19 18.25 C5.68 18.07, 5.18 17.83, 4.7 17.56 C4.23 17.29, 3.78 16.97, 3.36 16.62 C2.94 16.27, 2.55 15.88, 2.2 15.46 C1.85 15.04, 1.53 14.59, 1.26 14.11 C0.99 13.64, 0.75 13.14, 0.57 12.63 C0.38 12.12, 0.24 11.58, 0.14 11.04 C0.05 10.51, 0 9.95, 0 9.41 C0 8.87, 0.05 8.31, 0.14 7.78 C0.24 7.24, 0.38 6.7, 0.57 6.19 C0.75 5.68, 0.99 5.18, 1.26 4.7 C1.53 4.23, 1.85 3.78, 2.2 3.36 C2.55 2.94, 2.94 2.55, 3.36 2.2 C3.78 1.85, 4.23 1.53, 4.7 1.26 C5.18 0.99, 5.68 0.75, 6.19 0.57 C6.7 0.38, 7.24 0.24, 7.78 0.14 C8.31 0.05, 8.87 0, 9.41 0 C9.95 0, 10.51 0.05, 11.04 0.14 C11.58 0.24, 12.12 0.38, 12.63 0.57 C13.14 0.75, 13.64 0.99, 14.11 1.26 C14.59 1.53, 15.04 1.85, 15.46 2.2 C15.88 2.55, 16.27 2.94, 16.62 3.36 C16.97 3.78, 17.29 4.23, 17.56 4.7 C17.83 5.18, 18.07 5.68, 18.25 6.19 C18.44 6.7, 18.58 7.24, 18.68 7.78 C18.77 8.31, 18.8 9.14, 18.82 9.41 C18.84 9.68, 18.84 9.14, 18.82 9.41" stroke="#E1E1E1" stroke-width="2" fill="none"></path></g><g stroke-linecap="round"><g transform="translate(222.8949093750669 141.6623915112306) rotate(0 -11.273638300513632 29.99637321117379)"><path d="M0 0 C-2.25 5.9, -9.72 25.42, -13.48 35.42 C-17.24 45.42, -21.04 55.9, -22.55 59.99 M0 0 C-2.25 5.9, -9.72 25.42, -13.48 35.42 C-17.24 45.42, -21.04 55.9, -22.55 59.99" stroke="#E1E1E1" stroke-width="2" fill="none"></path></g></g><mask></mask><g stroke-linecap="round"><g transform="translate(200.01032275798985 202.551656782509) rotate(0 -56.76952684799171 170.17624088617004)"><path d="M0 0 C-0.61 0.02, -1.79 -0.6, -3.66 0.11 C-5.53 0.82, -8.59 2.26, -11.2 4.24 C-13.81 6.22, -17.12 8.84, -19.34 11.99 C-21.56 15.13, -21.98 14.49, -24.55 23.11 C-27.12 31.74, -31.9 52.2, -34.76 63.74 C-37.61 75.27, -39.94 85.17, -41.67 92.33 C-43.39 99.49, -44.7 102.96, -45.12 106.7 C-45.55 110.44, -45.59 112.85, -44.2 114.75 C-42.81 116.66, -39.37 118.11, -36.79 118.15 C-34.2 118.19, -30.85 118.17, -28.67 114.99 C-26.48 111.81, -25.77 106.84, -23.69 99.07 C-21.6 91.29, -18.74 78.81, -16.15 68.34 C-13.56 57.86, -10.24 43.76, -8.15 36.2 C-6.06 28.65, -5.58 26.02, -3.59 23.02 C-1.61 20.02, 1.21 18.56, 3.75 18.2 C6.29 17.83, 9.84 19.1, 11.64 20.84 C13.43 22.57, 14.2 24.88, 14.52 28.59 C14.83 32.3, 14.41 34.34, 13.55 43.09 C12.68 51.83, 10.38 71.16, 9.32 81.06 C8.25 90.96, 7.24 96.63, 7.15 102.5 C7.07 108.37, 6.99 110.61, 8.79 116.28 C10.59 121.96, 15.46 131.03, 17.95 136.55 C20.44 142.07, 22.11 144.95, 23.73 149.4 C25.36 153.86, 26.8 158.13, 27.69 163.3 C28.58 168.46, 29.25 173.51, 29.08 180.4 C28.91 187.29, 28.14 196.48, 26.68 204.63 C25.22 212.78, 22.98 221.37, 20.34 229.3 C17.7 237.23, 14.4 245.99, 10.84 252.21 C7.28 258.44, 4.5 261.48, -1 266.65 C-6.51 271.81, -15.2 278.53, -22.2 283.21 C-29.2 287.89, -34.79 290.98, -43.02 294.7 C-51.24 298.42, -62.46 302.51, -71.55 305.53 C-80.63 308.55, -89.19 310.8, -97.52 312.81 C-105.86 314.82, -114.25 316.34, -121.56 317.59 C-128.88 318.84, -136.7 319.59, -141.43 320.31 C-146.15 321.04, -147.69 320.42, -149.92 321.94 C-152.14 323.47, -154.39 326.75, -154.76 329.44 C-155.13 332.13, -153.95 336.26, -152.14 338.07 C-150.33 339.89, -148.51 340.38, -143.91 340.35 C-139.3 340.32, -131.93 339.1, -124.52 337.89 C-117.11 336.69, -108.58 335.22, -99.44 333.13 C-90.29 331.05, -79.61 328.54, -69.64 325.38 C-59.68 322.22, -49.02 318.24, -39.63 314.19 C-30.25 310.14, -21.03 305.75, -13.34 301.08 C-5.66 296.41, 0.66 291.23, 6.46 286.17 C12.27 281.11, 17.42 275.64, 21.51 270.72 C25.59 265.81, 28.32 261.68, 30.96 256.7 C33.61 251.71, 35.68 245.94, 37.39 240.83 C39.1 235.73, 40.58 228.53, 41.22 226.07 M0 0 C-0.61 0.02, -1.79 -0.6, -3.66 0.11 C-5.53 0.82, -8.59 2.26, -11.2 4.24 C-13.81 6.22, -17.12 8.84, -19.34 11.99 C-21.56 15.13, -21.98 14.49, -24.55 23.11 C-27.12 31.74, -31.9 52.2, -34.76 63.74 C-37.61 75.27, -39.94 85.17, -41.67 92.33 C-43.39 99.49, -44.7 102.96, -45.12 106.7 C-45.55 110.44, -45.59 112.85, -44.2 114.75 C-42.81 116.66, -39.37 118.11, -36.79 118.15 C-34.2 118.19, -30.85 118.17, -28.67 114.99 C-26.48 111.81, -25.77 106.84, -23.69 99.07 C-21.6 91.29, -18.74 78.81, -16.15 68.34 C-13.56 57.86, -10.24 43.76, -8.15 36.2 C-6.06 28.65, -5.58 26.02, -3.59 23.02 C-1.61 20.02, 1.21 18.56, 3.75 18.2 C6.29 17.83, 9.84 19.1, 11.64 20.84 C13.43 22.57, 14.2 24.88, 14.52 28.59 C14.83 32.3, 14.41 34.34, 13.55 43.09 C12.68 51.83, 10.38 71.16, 9.32 81.06 C8.25 90.96, 7.24 96.63, 7.15 102.5 C7.07 108.37, 6.99 110.61, 8.79 116.28 C10.59 121.96, 15.46 131.03, 17.95 136.55 C20.44 142.07, 22.11 144.95, 23.73 149.4 C25.36 153.86, 26.8 158.13, 27.69 163.3 C28.58 168.46, 29.25 173.51, 29.08 180.4 C28.91 187.29, 28.14 196.48, 26.68 204.63 C25.22 212.78, 22.98 221.37, 20.34 229.3 C17.7 237.23, 14.4 245.99, 10.84 252.21 C7.28 258.44, 4.5 261.48, -1 266.65 C-6.51 271.81, -15.2 278.53, -22.2 283.21 C-29.2 287.89, -34.79 290.98, -43.02 294.7 C-51.24 298.42, -62.46 302.51, -71.55 305.53 C-80.63 308.55, -89.19 310.8, -97.52 312.81 C-105.86 314.82, -114.25 316.34, -121.56 317.59 C-128.88 318.84, -136.7 319.59, -141.43 320.31 C-146.15 321.04, -147.69 320.42, -149.92 321.94 C-152.14 323.47, -154.39 326.75, -154.76 329.44 C-155.13 332.13, -153.95 336.26, -152.14 338.07 C-150.33 339.89, -148.51 340.38, -143.91 340.35 C-139.3 340.32, -131.93 339.1, -124.52 337.89 C-117.11 336.69, -108.58 335.22, -99.44 333.13 C-90.29 331.05, -79.61 328.54, -69.64 325.38 C-59.68 322.22, -49.02 318.24, -39.63 314.19 C-30.25 310.14, -21.03 305.75, -13.34 301.08 C-5.66 296.41, 0.66 291.23, 6.46 286.17 C12.27 281.11, 17.42 275.64, 21.51 270.72 C25.59 265.81, 28.32 261.68, 30.96 256.7 C33.61 251.71, 35.68 245.94, 37.39 240.83 C39.1 235.73, 40.58 228.53, 41.22 226.07" stroke="#E1E1E1" stroke-width="2" fill="none"></path></g></g><mask></mask><g stroke-linecap="round"><g transform="translate(241.33041308117333 427.80263688936793) rotate(0 62.22196180899604 -131.35942734375885)"><path d="M0 0 C0.44 1.92, 1.05 6.47, 2.65 11.52 C4.24 16.57, 6.97 24.87, 9.58 30.3 C12.18 35.72, 14.99 39.79, 18.28 44.06 C21.58 48.34, 26.03 53.69, 29.35 55.95 C32.66 58.2, 35.6 58.15, 38.2 57.6 C40.79 57.06, 43.79 54.93, 44.91 52.68 C46.03 50.43, 46.13 46.93, 44.9 44.09 C43.66 41.25, 39.95 38.73, 37.51 35.64 C35.06 32.54, 32.61 30.02, 30.23 25.52 C27.86 21.02, 25.36 14.72, 23.28 8.63 C21.2 2.53, 19.46 -3.97, 17.75 -11.05 C16.05 -18.12, 13.89 -26.24, 13.05 -33.85 C12.2 -41.46, 12.1 -49.69, 12.68 -56.7 C13.25 -63.7, 14.3 -69.6, 16.5 -75.87 C18.7 -82.13, 23.08 -88.39, 25.9 -94.27 C28.72 -100.15, 32.01 -105.52, 33.4 -111.15 C34.78 -116.79, 34.27 -123.27, 34.2 -128.06 C34.13 -132.85, 33.73 -132.91, 32.98 -139.9 C32.24 -146.89, 30.76 -160.75, 29.73 -170 C28.71 -179.25, 26.69 -189.61, 26.83 -195.38 C26.96 -201.16, 28.5 -202.75, 30.55 -204.66 C32.6 -206.56, 36.63 -207.34, 39.11 -206.84 C41.59 -206.33, 43.7 -205.01, 45.43 -201.62 C47.16 -198.23, 47.61 -193.95, 49.5 -186.5 C51.39 -179.04, 53.98 -168.09, 56.75 -156.9 C59.53 -145.72, 63.77 -127.5, 66.15 -119.39 C68.54 -111.27, 68.64 -110.39, 71.07 -108.21 C73.5 -106.03, 78.15 -105.57, 80.74 -106.29 C83.32 -107.02, 85.83 -109.31, 86.57 -112.55 C87.32 -115.78, 86.7 -118.21, 85.23 -125.7 C83.76 -133.19, 80.5 -146.06, 77.78 -157.48 C75.06 -168.9, 71.34 -185.26, 68.92 -194.2 C66.5 -203.14, 65.75 -206.59, 63.25 -211.1 C60.76 -215.62, 56.77 -218.9, 53.94 -221.29 C51.11 -223.68, 48.76 -224.09, 46.29 -225.46 C43.82 -226.83, 41.6 -225.31, 39.11 -229.52 C36.61 -233.74, 33.67 -244.26, 31.33 -250.74 C28.98 -257.22, 27.47 -261.48, 25.04 -268.39 C22.61 -275.3, 19.03 -285.6, 16.74 -292.2 C14.45 -298.8, 11.92 -303.92, 11.31 -307.97 C10.7 -312.01, 11.46 -314.42, 13.1 -316.48 C14.74 -318.54, 18.47 -320.03, 21.17 -320.32 C23.87 -320.62, 26.81 -320.64, 29.28 -318.24 C31.75 -315.83, 32.66 -312.7, 35.98 -305.89 C39.3 -299.09, 44.71 -287.29, 49.19 -277.41 C53.67 -267.52, 58.37 -256.55, 62.87 -246.57 C67.37 -236.58, 71.3 -228.47, 76.18 -217.5 C81.06 -206.54, 87.23 -192.31, 92.14 -180.79 C97.06 -169.28, 101.67 -158.49, 105.65 -148.43 C109.64 -138.36, 113.25 -130, 116.07 -120.38 C118.88 -110.76, 121.15 -100.64, 122.54 -90.7 C123.94 -80.76, 124.13 -65.73, 124.44 -60.74 M0 0 C0.44 1.92, 1.05 6.47, 2.65 11.52 C4.24 16.57, 6.97 24.87, 9.58 30.3 C12.18 35.72, 14.99 39.79, 18.28 44.06 C21.58 48.34, 26.03 53.69, 29.35 55.95 C32.66 58.2, 35.6 58.15, 38.2 57.6 C40.79 57.06, 43.79 54.93, 44.91 52.68 C46.03 50.43, 46.13 46.93, 44.9 44.09 C43.66 41.25, 39.95 38.73, 37.51 35.64 C35.06 32.54, 32.61 30.02, 30.23 25.52 C27.86 21.02, 25.36 14.72, 23.28 8.63 C21.2 2.53, 19.46 -3.97, 17.75 -11.05 C16.05 -18.12, 13.89 -26.24, 13.05 -33.85 C12.2 -41.46, 12.1 -49.69, 12.68 -56.7 C13.25 -63.7, 14.3 -69.6, 16.5 -75.87 C18.7 -82.13, 23.08 -88.39, 25.9 -94.27 C28.72 -100.15, 32.01 -105.52, 33.4 -111.15 C34.78 -116.79, 34.27 -123.27, 34.2 -128.06 C34.13 -132.85, 33.73 -132.91, 32.98 -139.9 C32.24 -146.89, 30.76 -160.75, 29.73 -170 C28.71 -179.25, 26.69 -189.61, 26.83 -195.38 C26.96 -201.16, 28.5 -202.75, 30.55 -204.66 C32.6 -206.56, 36.63 -207.34, 39.11 -206.84 C41.59 -206.33, 43.7 -205.01, 45.43 -201.62 C47.16 -198.23, 47.61 -193.95, 49.5 -186.5 C51.39 -179.04, 53.98 -168.09, 56.75 -156.9 C59.53 -145.72, 63.77 -127.5, 66.15 -119.39 C68.54 -111.27, 68.64 -110.39, 71.07 -108.21 C73.5 -106.03, 78.15 -105.57, 80.74 -106.29 C83.32 -107.02, 85.83 -109.31, 86.57 -112.55 C87.32 -115.78, 86.7 -118.21, 85.23 -125.7 C83.76 -133.19, 80.5 -146.06, 77.78 -157.48 C75.06 -168.9, 71.34 -185.26, 68.92 -194.2 C66.5 -203.14, 65.75 -206.59, 63.25 -211.1 C60.76 -215.62, 56.77 -218.9, 53.94 -221.29 C51.11 -223.68, 48.76 -224.09, 46.29 -225.46 C43.82 -226.83, 41.6 -225.31, 39.11 -229.52 C36.61 -233.74, 33.67 -244.26, 31.33 -250.74 C28.98 -257.22, 27.47 -261.48, 25.04 -268.39 C22.61 -275.3, 19.03 -285.6, 16.74 -292.2 C14.45 -298.8, 11.92 -303.92, 11.31 -307.97 C10.7 -312.01, 11.46 -314.42, 13.1 -316.48 C14.74 -318.54, 18.47 -320.03, 21.17 -320.32 C23.87 -320.62, 26.81 -320.64, 29.28 -318.24 C31.75 -315.83, 32.66 -312.7, 35.98 -305.89 C39.3 -299.09, 44.71 -287.29, 49.19 -277.41 C53.67 -267.52, 58.37 -256.55, 62.87 -246.57 C67.37 -236.58, 71.3 -228.47, 76.18 -217.5 C81.06 -206.54, 87.23 -192.31, 92.14 -180.79 C97.06 -169.28, 101.67 -158.49, 105.65 -148.43 C109.64 -138.36, 113.25 -130, 116.07 -120.38 C118.88 -110.76, 121.15 -100.64, 122.54 -90.7 C123.94 -80.76, 124.13 -65.73, 124.44 -60.74" stroke="#E1E1E1" stroke-width="2" fill="none"></path></g></g><mask></mask><g stroke-linecap="round"><g transform="translate(365.83491988011303 367.1905329987683) rotate(0 35.90509813576497 39.933554615003374)"><path d="M0 0 C0.12 4.24, 0.51 16.16, 0.7 25.42 C0.89 34.68, 0.6 48.92, 1.15 55.55 C1.69 62.17, 1.73 62.81, 3.95 65.18 C6.17 67.54, 8.7 68, 14.48 69.76 C20.26 71.52, 31.39 74.05, 38.65 75.73 C45.91 77.42, 53.23 79.29, 58.05 79.87 C62.87 80.45, 65.26 80.62, 67.56 79.22 C69.85 77.81, 71.67 74.01, 71.81 71.42 C71.95 68.84, 71.28 65.85, 68.41 63.71 C65.55 61.57, 61.12 60.44, 54.61 58.57 C48.1 56.71, 34.89 53.89, 29.35 52.52 C23.81 51.15, 22.71 50.72, 21.38 50.36 M0 0 C0.12 4.24, 0.51 16.16, 0.7 25.42 C0.89 34.68, 0.6 48.92, 1.15 55.55 C1.69 62.17, 1.73 62.81, 3.95 65.18 C6.17 67.54, 8.7 68, 14.48 69.76 C20.26 71.52, 31.39 74.05, 38.65 75.73 C45.91 77.42, 53.23 79.29, 58.05 79.87 C62.87 80.45, 65.26 80.62, 67.56 79.22 C69.85 77.81, 71.67 74.01, 71.81 71.42 C71.95 68.84, 71.28 65.85, 68.41 63.71 C65.55 61.57, 61.12 60.44, 54.61 58.57 C48.1 56.71, 34.89 53.89, 29.35 52.52 C23.81 51.15, 22.71 50.72, 21.38 50.36" stroke="#E1E1E1" stroke-width="2" fill="none"></path></g></g><mask></mask><g stroke-linecap="round"><g transform="translate(387.0703478662464 417.3268276892212) rotate(0 -72.93807129141726 -165.0319517741077)"><path d="M0 0 C-0.09 -7.22, -0.03 -30.57, -0.52 -43.33 C-1 -56.09, -1.65 -65.82, -2.91 -76.57 C-4.17 -87.31, -5.42 -97.27, -8.09 -107.8 C-10.76 -118.32, -15.34 -129.91, -18.91 -139.7 C-22.49 -149.49, -25.58 -157.23, -29.55 -166.53 C-33.52 -175.83, -37.83 -184.71, -42.71 -195.5 C-47.59 -206.28, -53.43 -219.24, -58.81 -231.24 C-64.19 -243.24, -69.8 -255.88, -75 -267.52 C-80.2 -279.15, -85.78 -292.15, -90 -301.03 C-94.21 -309.9, -96.27 -316.02, -100.29 -320.76 C-104.31 -325.5, -109.47 -327.93, -114.13 -329.48 C-118.79 -331.03, -124.3 -330.38, -128.24 -330.06 C-132.19 -329.75, -134.88 -328.99, -137.82 -327.58 C-140.75 -326.17, -144.53 -322.6, -145.88 -321.6 M0 0 C-0.09 -7.22, -0.03 -30.57, -0.52 -43.33 C-1 -56.09, -1.65 -65.82, -2.91 -76.57 C-4.17 -87.31, -5.42 -97.27, -8.09 -107.8 C-10.76 -118.32, -15.34 -129.91, -18.91 -139.7 C-22.49 -149.49, -25.58 -157.23, -29.55 -166.53 C-33.52 -175.83, -37.83 -184.71, -42.71 -195.5 C-47.59 -206.28, -53.43 -219.24, -58.81 -231.24 C-64.19 -243.24, -69.8 -255.88, -75 -267.52 C-80.2 -279.15, -85.78 -292.15, -90 -301.03 C-94.21 -309.9, -96.27 -316.02, -100.29 -320.76 C-104.31 -325.5, -109.47 -327.93, -114.13 -329.48 C-118.79 -331.03, -124.3 -330.38, -128.24 -330.06 C-132.19 -329.75, -134.88 -328.99, -137.82 -327.58 C-140.75 -326.17, -144.53 -322.6, -145.88 -321.6" stroke="#E1E1E1" stroke-width="2" fill="none"></path></g></g><mask></mask><g stroke-linecap="round"><g transform="translate(240.91076523239306 95.55021126586809) rotate(0 -25.658051519589552 18.738169832678402)"><path d="M0 0 C-0.75 -0.59, -2.42 -2.29, -4.49 -3.57 C-6.55 -4.84, -9.49 -6.74, -12.41 -7.63 C-15.33 -8.52, -18.55 -8.96, -21.99 -8.91 C-25.43 -8.86, -29.34 -8.84, -33.05 -7.33 C-36.75 -5.82, -41.18 -2.99, -44.23 0.15 C-47.27 3.3, -50.31 8.18, -51.32 11.56 C-52.32 14.95, -51.7 18.44, -50.27 20.49 C-48.83 22.54, -45.32 23.71, -42.69 23.89 C-40.05 24.07, -36.65 23.16, -34.46 21.57 C-32.27 19.98, -31.73 16.08, -29.54 14.35 C-27.35 12.62, -24.08 11.15, -21.33 11.18 C-18.57 11.2, -14.8 12.62, -13.03 14.51 C-11.26 16.4, -10.73 19.64, -10.7 22.54 C-10.68 25.45, -11.62 27.98, -12.85 31.95 C-14.09 35.92, -17.26 43.98, -18.14 46.38 M0 0 C-0.75 -0.59, -2.42 -2.29, -4.49 -3.57 C-6.55 -4.84, -9.49 -6.74, -12.41 -7.63 C-15.33 -8.52, -18.55 -8.96, -21.99 -8.91 C-25.43 -8.86, -29.34 -8.84, -33.05 -7.33 C-36.75 -5.82, -41.18 -2.99, -44.23 0.15 C-47.27 3.3, -50.31 8.18, -51.32 11.56 C-52.32 14.95, -51.7 18.44, -50.27 20.49 C-48.83 22.54, -45.32 23.71, -42.69 23.89 C-40.05 24.07, -36.65 23.16, -34.46 21.57 C-32.27 19.98, -31.73 16.08, -29.54 14.35 C-27.35 12.62, -24.08 11.15, -21.33 11.18 C-18.57 11.2, -14.8 12.62, -13.03 14.51 C-11.26 16.4, -10.73 19.64, -10.7 22.54 C-10.68 25.45, -11.62 27.98, -12.85 31.95 C-14.09 35.92, -17.26 43.98, -18.14 46.38" stroke="#E1E1E1" stroke-width="2" fill="none"></path></g></g><mask></mask><g stroke-linecap="round"><g transform="translate(241.54610050184533 147.57196935583096) rotate(0 -11.035148922083067 29.080695864833636)"><path d="M0 0 C-1.46 3.9, -6.19 16.58, -8.73 23.4 C-11.28 30.21, -13.34 35.91, -15.25 40.9 C-17.16 45.89, -19.07 50.46, -20.21 53.34 C-21.34 56.22, -21.76 57.36, -22.07 58.16 M0 0 C-1.46 3.9, -6.19 16.58, -8.73 23.4 C-11.28 30.21, -13.34 35.91, -15.25 40.9 C-17.16 45.89, -19.07 50.46, -20.21 53.34 C-21.34 56.22, -21.76 57.36, -22.07 58.16" stroke="#E1E1E1" stroke-width="2" fill="none"></path></g></g><mask></mask><g stroke-linecap="round"><g transform="translate(219.66316358905573 205.57285665977582) rotate(0 10.8109730326819 68.13508968303796)"><path d="M0 0 C0.68 0.43, 2.41 1.12, 4.1 2.59 C5.79 4.05, 8.53 6.31, 10.16 8.8 C11.78 11.29, 13.05 14.38, 13.86 17.5 C14.66 20.62, 15.07 23.45, 15 27.52 C14.93 31.59, 14.31 34.87, 13.45 41.92 C12.6 48.96, 10.87 60.43, 9.86 69.79 C8.85 79.15, 7.35 90.67, 7.41 98.08 C7.47 105.5, 8.54 109.2, 10.21 114.29 C11.87 119.38, 15.51 124.97, 17.42 128.63 C19.32 132.29, 20.92 135, 21.62 136.27 M0 0 C0.68 0.43, 2.41 1.12, 4.1 2.59 C5.79 4.05, 8.53 6.31, 10.16 8.8 C11.78 11.29, 13.05 14.38, 13.86 17.5 C14.66 20.62, 15.07 23.45, 15 27.52 C14.93 31.59, 14.31 34.87, 13.45 41.92 C12.6 48.96, 10.87 60.43, 9.86 69.79 C8.85 79.15, 7.35 90.67, 7.41 98.08 C7.47 105.5, 8.54 109.2, 10.21 114.29 C11.87 119.38, 15.51 124.97, 17.42 128.63 C19.32 132.29, 20.92 135, 21.62 136.27" stroke="#E1E1E1" stroke-width="2" fill="none"></path></g></g><mask></mask><g stroke-linecap="round"><g transform="translate(241.45410422561434 341.54031730799795) rotate(0 10.819709584708711 -68.61030559023581)"><path d="M0 0 C1.01 -2.09, 3.96 -8.1, 6.05 -12.51 C8.13 -16.92, 11.14 -22.39, 12.52 -26.48 C13.9 -30.56, 14.27 -32.49, 14.34 -37.02 C14.42 -41.56, 13.56 -47.46, 12.95 -53.7 C12.34 -59.93, 11.52 -66.55, 10.68 -74.43 C9.84 -82.31, 8.52 -94.43, 7.92 -100.98 C7.32 -107.53, 6.7 -109.91, 7.08 -113.74 C7.46 -117.57, 8.8 -120.96, 10.19 -123.95 C11.58 -126.95, 13.5 -129.48, 15.41 -131.69 C17.31 -133.91, 20.6 -136.3, 21.64 -137.22 M0 0 C1.01 -2.09, 3.96 -8.1, 6.05 -12.51 C8.13 -16.92, 11.14 -22.39, 12.52 -26.48 C13.9 -30.56, 14.27 -32.49, 14.34 -37.02 C14.42 -41.56, 13.56 -47.46, 12.95 -53.7 C12.34 -59.93, 11.52 -66.55, 10.68 -74.43 C9.84 -82.31, 8.52 -94.43, 7.92 -100.98 C7.32 -107.53, 6.7 -109.91, 7.08 -113.74 C7.46 -117.57, 8.8 -120.96, 10.19 -123.95 C11.58 -126.95, 13.5 -129.48, 15.41 -131.69 C17.31 -133.91, 20.6 -136.3, 21.64 -137.22" stroke="#E1E1E1" stroke-width="2" fill="none"></path></g></g><mask></mask><g stroke-linecap="round"><g transform="translate(263.14424813599305 204.08325076333077) rotate(0 -10.755225098521606 -28.26962135650645)"><path d="M0 0 C-0.94 -2.38, -3.24 -7.88, -5.64 -14.27 C-8.05 -20.65, -11.78 -31.25, -14.43 -38.3 C-17.07 -45.34, -20.33 -53.5, -21.51 -56.54 M0 0 C-0.94 -2.38, -3.24 -7.88, -5.64 -14.27 C-8.05 -20.65, -11.78 -31.25, -14.43 -38.3 C-17.07 -45.34, -20.33 -53.5, -21.51 -56.54" stroke="#E1E1E1" stroke-width="2" fill="none"></path></g></g><mask></mask><g stroke-linecap="round" transform="translate(302.23375970535665 490.99056920587225) rotate(0 9.369156011534528 9.369156011534528)"><path d="M18.74 9.37 C18.74 9.91, 18.69 10.46, 18.6 11 C18.5 11.53, 18.36 12.06, 18.17 12.57 C17.99 13.08, 17.75 13.58, 17.48 14.05 C17.21 14.52, 16.89 14.98, 16.55 15.39 C16.2 15.81, 15.81 16.2, 15.39 16.55 C14.98 16.89, 14.52 17.21, 14.05 17.48 C13.58 17.75, 13.08 17.99, 12.57 18.17 C12.06 18.36, 11.53 18.5, 11 18.6 C10.46 18.69, 9.91 18.74, 9.37 18.74 C8.83 18.74, 8.28 18.69, 7.74 18.6 C7.21 18.5, 6.67 18.36, 6.16 18.17 C5.66 17.99, 5.15 17.75, 4.68 17.48 C4.21 17.21, 3.76 16.89, 3.35 16.55 C2.93 16.2, 2.54 15.81, 2.19 15.39 C1.84 14.98, 1.53 14.52, 1.26 14.05 C0.98 13.58, 0.75 13.08, 0.57 12.57 C0.38 12.06, 0.24 11.53, 0.14 11 C0.05 10.46, 0 9.91, 0 9.37 C0 8.83, 0.05 8.28, 0.14 7.74 C0.24 7.21, 0.38 6.67, 0.57 6.16 C0.75 5.66, 0.98 5.15, 1.26 4.68 C1.53 4.21, 1.84 3.76, 2.19 3.35 C2.54 2.93, 2.93 2.54, 3.35 2.19 C3.76 1.84, 4.21 1.53, 4.68 1.26 C5.15 0.98, 5.66 0.75, 6.16 0.57 C6.67 0.38, 7.21 0.24, 7.74 0.14 C8.28 0.05, 8.83 0, 9.37 0 C9.91 0, 10.46 0.05, 11 0.14 C11.53 0.24, 12.06 0.38, 12.57 0.57 C13.08 0.75, 13.58 0.98, 14.05 1.26 C14.52 1.53, 14.98 1.84, 15.39 2.19 C15.81 2.54, 16.2 2.93, 16.55 3.35 C16.89 3.76, 17.21 4.21, 17.48 4.68 C17.75 5.15, 17.99 5.66, 18.17 6.16 C18.36 6.67, 18.5 7.21, 18.6 7.74 C18.69 8.28, 18.71 9.1, 18.74 9.37 C18.76 9.64, 18.76 9.1, 18.74 9.37" stroke="#E1E1E1" stroke-width="2" fill="none"></path></g><g stroke-linecap="round"><g transform="translate(377.35174748145903 514.2323638136046) rotate(0 11.141799049742175 10.8532259041732)"><path d="M0 0 C2.96 0.69, 11.39 2.89, 17.77 4.16 C24.15 5.42, 32.69 6.73, 38.28 7.58 C43.86 8.44, 47.86 8.17, 51.29 9.28 C54.72 10.38, 57.54 11.89, 58.86 14.23 C60.18 16.56, 60.3 20.91, 59.23 23.28 C58.16 25.65, 56.29 27.79, 52.44 28.43 C48.58 29.07, 44.08 28.2, 36.1 27.1 C28.11 26.01, 14.15 23.89, 4.53 21.87 C-5.09 19.85, -15.27 16.98, -21.64 14.99 C-28.02 13.01, -31.17 12.09, -33.72 9.95 C-36.28 7.82, -37.23 4.85, -36.95 2.16 C-36.67 -0.52, -34.22 -4.69, -32.07 -6.17 C-29.92 -7.65, -27.5 -7.2, -24.04 -6.73 C-20.59 -6.25, -15.35 -4.46, -11.34 -3.34 C-7.33 -2.22, -1.89 -0.56, 0 0 M0 0 C2.96 0.69, 11.39 2.89, 17.77 4.16 C24.15 5.42, 32.69 6.73, 38.28 7.58 C43.86 8.44, 47.86 8.17, 51.29 9.28 C54.72 10.38, 57.54 11.89, 58.86 14.23 C60.18 16.56, 60.3 20.91, 59.23 23.28 C58.16 25.65, 56.29 27.79, 52.44 28.43 C48.58 29.07, 44.08 28.2, 36.1 27.1 C28.11 26.01, 14.15 23.89, 4.53 21.87 C-5.09 19.85, -15.27 16.98, -21.64 14.99 C-28.02 13.01, -31.17 12.09, -33.72 9.95 C-36.28 7.82, -37.23 4.85, -36.95 2.16 C-36.67 -0.52, -34.22 -4.69, -32.07 -6.17 C-29.92 -7.65, -27.5 -7.2, -24.04 -6.73 C-20.59 -6.25, -15.35 -4.46, -11.34 -3.34 C-7.33 -2.22, -1.89 -0.56, 0 0" stroke="#E1E1E1" stroke-width="2" fill="none"></path></g></g><mask></mask><g stroke-linecap="round"><g transform="translate(446.421826990662 232.38836089244796) rotate(0 -0.03938800725026681 9.614182642921222)"><path d="M0 0 C2.71 -0.01, 12.16 -0.49, 16.27 -0.07 C20.39 0.35, 22.92 0.64, 24.69 2.53 C26.46 4.42, 27.37 8.74, 26.9 11.28 C26.44 13.81, 24.92 16.44, 21.9 17.76 C18.88 19.08, 13.75 18.95, 8.78 19.22 C3.8 19.49, -3.35 19.39, -7.94 19.39 C-12.54 19.39, -15.91 19.91, -18.82 19.21 C-21.72 18.51, -24.02 17.21, -25.38 15.17 C-26.74 13.12, -27.67 9.37, -26.98 6.94 C-26.29 4.52, -24.07 1.79, -21.26 0.61 C-18.45 -0.57, -13.67 -0.06, -10.12 -0.16 C-6.58 -0.26, -1.69 -0.03, 0 0 M0 0 C2.71 -0.01, 12.16 -0.49, 16.27 -0.07 C20.39 0.35, 22.92 0.64, 24.69 2.53 C26.46 4.42, 27.37 8.74, 26.9 11.28 C26.44 13.81, 24.92 16.44, 21.9 17.76 C18.88 19.08, 13.75 18.95, 8.78 19.22 C3.8 19.49, -3.35 19.39, -7.94 19.39 C-12.54 19.39, -15.91 19.91, -18.82 19.21 C-21.72 18.51, -24.02 17.21, -25.38 15.17 C-26.74 13.12, -27.67 9.37, -26.98 6.94 C-26.29 4.52, -24.07 1.79, -21.26 0.61 C-18.45 -0.57, -13.67 -0.06, -10.12 -0.16 C-6.58 -0.26, -1.69 -0.03, 0 0" stroke="#E1E1E1" stroke-width="2" fill="none"></path></g></g><mask></mask><g stroke-linecap="round"><g transform="translate(419.7058883172002 129.69845161471227) rotate(329.99999999999994 -0.03938800725026681 9.614182642921222)"><path d="M0 0 C2.71 -0.01, 12.16 -0.49, 16.27 -0.07 C20.39 0.35, 22.92 0.64, 24.69 2.53 C26.46 4.42, 27.37 8.74, 26.9 11.28 C26.44 13.81, 24.92 16.44, 21.9 17.76 C18.88 19.08, 13.75 18.95, 8.78 19.22 C3.8 19.49, -3.35 19.39, -7.94 19.39 C-12.54 19.39, -15.91 19.91, -18.82 19.21 C-21.72 18.51, -24.02 17.21, -25.38 15.17 C-26.74 13.12, -27.67 9.37, -26.98 6.94 C-26.29 4.52, -24.07 1.79, -21.26 0.61 C-18.45 -0.57, -13.67 -0.06, -10.12 -0.16 C-6.58 -0.26, -1.69 -0.03, 0 0 M0 0 C2.71 -0.01, 12.16 -0.49, 16.27 -0.07 C20.39 0.35, 22.92 0.64, 24.69 2.53 C26.46 4.42, 27.37 8.74, 26.9 11.28 C26.44 13.81, 24.92 16.44, 21.9 17.76 C18.88 19.08, 13.75 18.95, 8.78 19.22 C3.8 19.49, -3.35 19.39, -7.94 19.39 C-12.54 19.39, -15.91 19.91, -18.82 19.21 C-21.72 18.51, -24.02 17.21, -25.38 15.17 C-26.74 13.12, -27.67 9.37, -26.98 6.94 C-26.29 4.52, -24.07 1.79, -21.26 0.61 C-18.45 -0.57, -13.67 -0.06, -10.12 -0.16 C-6.58 -0.26, -1.69 -0.03, 0 0" stroke="#E1E1E1" stroke-width="2" fill="none"></path></g></g><mask></mask><g stroke-linecap="round"><g transform="translate(344.7112899319271 54.41327422555068) rotate(299.99999999999994 -0.03938800725026681 9.614182642921222)"><path d="M0 0 C2.71 -0.01, 12.16 -0.49, 16.27 -0.07 C20.39 0.35, 22.92 0.64, 24.69 2.53 C26.46 4.42, 27.37 8.74, 26.9 11.28 C26.44 13.81, 24.92 16.44, 21.9 17.76 C18.88 19.08, 13.75 18.95, 8.78 19.22 C3.8 19.49, -3.35 19.39, -7.94 19.39 C-12.54 19.39, -15.91 19.91, -18.82 19.21 C-21.72 18.51, -24.02 17.21, -25.38 15.17 C-26.74 13.12, -27.67 9.37, -26.98 6.94 C-26.29 4.52, -24.07 1.79, -21.26 0.61 C-18.45 -0.57, -13.67 -0.06, -10.12 -0.16 C-6.58 -0.26, -1.69 -0.03, 0 0 M0 0 C2.71 -0.01, 12.16 -0.49, 16.27 -0.07 C20.39 0.35, 22.92 0.64, 24.69 2.53 C26.46 4.42, 27.37 8.74, 26.9 11.28 C26.44 13.81, 24.92 16.44, 21.9 17.76 C18.88 19.08, 13.75 18.95, 8.78 19.22 C3.8 19.49, -3.35 19.39, -7.94 19.39 C-12.54 19.39, -15.91 19.91, -18.82 19.21 C-21.72 18.51, -24.02 17.21, -25.38 15.17 C-26.74 13.12, -27.67 9.37, -26.98 6.94 C-26.29 4.52, -24.07 1.79, -21.26 0.61 C-18.45 -0.57, -13.67 -0.06, -10.12 -0.16 C-6.58 -0.26, -1.69 -0.03, 0 0" stroke="#E1E1E1" stroke-width="2" fill="none"></path></g></g><mask></mask><g stroke-linecap="round"><g transform="translate(242.00089655097247 27.448574710433405) rotate(270 -0.03938800725026681 9.614182642921222)"><path d="M0 0 C2.71 -0.01, 12.16 -0.49, 16.27 -0.07 C20.39 0.35, 22.92 0.64, 24.69 2.53 C26.46 4.42, 27.37 8.74, 26.9 11.28 C26.44 13.81, 24.92 16.44, 21.9 17.76 C18.88 19.08, 13.75 18.95, 8.78 19.22 C3.8 19.49, -3.35 19.39, -7.94 19.39 C-12.54 19.39, -15.91 19.91, -18.82 19.21 C-21.72 18.51, -24.02 17.21, -25.38 15.17 C-26.74 13.12, -27.67 9.37, -26.98 6.94 C-26.29 4.52, -24.07 1.79, -21.26 0.61 C-18.45 -0.57, -13.67 -0.06, -10.12 -0.16 C-6.58 -0.26, -1.69 -0.03, 0 0 M0 0 C2.71 -0.01, 12.16 -0.49, 16.27 -0.07 C20.39 0.35, 22.92 0.64, 24.69 2.53 C26.46 4.42, 27.37 8.74, 26.9 11.28 C26.44 13.81, 24.92 16.44, 21.9 17.76 C18.88 19.08, 13.75 18.95, 8.78 19.22 C3.8 19.49, -3.35 19.39, -7.94 19.39 C-12.54 19.39, -15.91 19.91, -18.82 19.21 C-21.72 18.51, -24.02 17.21, -25.38 15.17 C-26.74 13.12, -27.67 9.37, -26.98 6.94 C-26.29 4.52, -24.07 1.79, -21.26 0.61 C-18.45 -0.57, -13.67 -0.06, -10.12 -0.16 C-6.58 -0.26, -1.69 -0.03, 0 0" stroke="#E1E1E1" stroke-width="2" fill="none"></path></g></g><mask></mask><g stroke-linecap="round"><g transform="translate(140.13063990589987 55.51234867944217) rotate(239.99999999999994 -0.03938800725026681 9.614182642921222)"><path d="M0 0 C2.71 -0.01, 12.16 -0.49, 16.27 -0.07 C20.39 0.35, 22.92 0.64, 24.69 2.53 C26.46 4.42, 27.37 8.74, 26.9 11.28 C26.44 13.81, 24.92 16.44, 21.9 17.76 C18.88 19.08, 13.75 18.95, 8.78 19.22 C3.8 19.49, -3.35 19.39, -7.94 19.39 C-12.54 19.39, -15.91 19.91, -18.82 19.21 C-21.72 18.51, -24.02 17.21, -25.38 15.17 C-26.74 13.12, -27.67 9.37, -26.98 6.94 C-26.29 4.52, -24.07 1.79, -21.26 0.61 C-18.45 -0.57, -13.67 -0.06, -10.12 -0.16 C-6.58 -0.26, -1.69 -0.03, 0 0 M0 0 C2.71 -0.01, 12.16 -0.49, 16.27 -0.07 C20.39 0.35, 22.92 0.64, 24.69 2.53 C26.46 4.42, 27.37 8.74, 26.9 11.28 C26.44 13.81, 24.92 16.44, 21.9 17.76 C18.88 19.08, 13.75 18.95, 8.78 19.22 C3.8 19.49, -3.35 19.39, -7.94 19.39 C-12.54 19.39, -15.91 19.91, -18.82 19.21 C-21.72 18.51, -24.02 17.21, -25.38 15.17 C-26.74 13.12, -27.67 9.37, -26.98 6.94 C-26.29 4.52, -24.07 1.79, -21.26 0.61 C-18.45 -0.57, -13.67 -0.06, -10.12 -0.16 C-6.58 -0.26, -1.69 -0.03, 0 0" stroke="#E1E1E1" stroke-width="2" fill="none"></path></g></g><mask></mask><g stroke-linecap="round"><g transform="translate(64.02396212853749 129.12204992394015) rotate(209.99999999999997 -0.03938800725026681 9.614182642921222)"><path d="M0 0 C2.71 -0.01, 12.16 -0.49, 16.27 -0.07 C20.39 0.35, 22.92 0.64, 24.69 2.53 C26.46 4.42, 27.37 8.74, 26.9 11.28 C26.44 13.81, 24.92 16.44, 21.9 17.76 C18.88 19.08, 13.75 18.95, 8.78 19.22 C3.8 19.49, -3.35 19.39, -7.94 19.39 C-12.54 19.39, -15.91 19.91, -18.82 19.21 C-21.72 18.51, -24.02 17.21, -25.38 15.17 C-26.74 13.12, -27.67 9.37, -26.98 6.94 C-26.29 4.52, -24.07 1.79, -21.26 0.61 C-18.45 -0.57, -13.67 -0.06, -10.12 -0.16 C-6.58 -0.26, -1.69 -0.03, 0 0 M0 0 C2.71 -0.01, 12.16 -0.49, 16.27 -0.07 C20.39 0.35, 22.92 0.64, 24.69 2.53 C26.46 4.42, 27.37 8.74, 26.9 11.28 C26.44 13.81, 24.92 16.44, 21.9 17.76 C18.88 19.08, 13.75 18.95, 8.78 19.22 C3.8 19.49, -3.35 19.39, -7.94 19.39 C-12.54 19.39, -15.91 19.91, -18.82 19.21 C-21.72 18.51, -24.02 17.21, -25.38 15.17 C-26.74 13.12, -27.67 9.37, -26.98 6.94 C-26.29 4.52, -24.07 1.79, -21.26 0.61 C-18.45 -0.57, -13.67 -0.06, -10.12 -0.16 C-6.58 -0.26, -1.69 -0.03, 0 0" stroke="#E1E1E1" stroke-width="2" fill="none"></path></g></g><mask></mask><g stroke-linecap="round"><g transform="translate(37.102145360604894 231.94610101591473) rotate(180 -0.03938800725026681 9.614182642921222)"><path d="M0 0 C2.71 -0.01, 12.16 -0.49, 16.27 -0.07 C20.39 0.35, 22.92 0.64, 24.69 2.53 C26.46 4.42, 27.37 8.74, 26.9 11.28 C26.44 13.81, 24.92 16.44, 21.9 17.76 C18.88 19.08, 13.75 18.95, 8.78 19.22 C3.8 19.49, -3.35 19.39, -7.94 19.39 C-12.54 19.39, -15.91 19.91, -18.82 19.21 C-21.72 18.51, -24.02 17.21, -25.38 15.17 C-26.74 13.12, -27.67 9.37, -26.98 6.94 C-26.29 4.52, -24.07 1.79, -21.26 0.61 C-18.45 -0.57, -13.67 -0.06, -10.12 -0.16 C-6.58 -0.26, -1.69 -0.03, 0 0 M0 0 C2.71 -0.01, 12.16 -0.49, 16.27 -0.07 C20.39 0.35, 22.92 0.64, 24.69 2.53 C26.46 4.42, 27.37 8.74, 26.9 11.28 C26.44 13.81, 24.92 16.44, 21.9 17.76 C18.88 19.08, 13.75 18.95, 8.78 19.22 C3.8 19.49, -3.35 19.39, -7.94 19.39 C-12.54 19.39, -15.91 19.91, -18.82 19.21 C-21.72 18.51, -24.02 17.21, -25.38 15.17 C-26.74 13.12, -27.67 9.37, -26.98 6.94 C-26.29 4.52, -24.07 1.79, -21.26 0.61 C-18.45 -0.57, -13.67 -0.06, -10.12 -0.16 C-6.58 -0.26, -1.69 -0.03, 0 0" stroke="#E1E1E1" stroke-width="2" fill="none"></path></g></g><mask></mask></svg>