<svg version="1.1" xmlns="http://www.w3.org/2000/svg" viewBox="0 0 379.17844253368276 321.65277857288675" width="379.17844253368276" height="321.65277857288675" class="excalidraw-svg"><!-- svg-source:excalidraw --><metadata></metadata><defs><style class="style-fonts">
      </style></defs><rect x="0" y="0" width="379.17844253368276" height="321.65277857288675" fill="#000000"></rect><g stroke-linecap="round"><g transform="translate(312.8311816091027 289.6518405447696) rotate(0 -123.27293726679727 -106.4174516099356)"><path d="M0 0 C-1.04 0.67, -3.94 2.66, -6.22 4.01 C-8.5 5.36, -11 6.76, -13.67 8.1 C-16.34 9.44, -18.85 10.66, -22.26 12.03 C-25.66 13.4, -30.11 15.13, -34.09 16.34 C-38.07 17.54, -41.6 18.4, -46.15 19.26 C-50.7 20.12, -55.96 21.06, -61.36 21.49 C-66.77 21.92, -72.04 22.2, -78.57 21.83 C-85.1 21.47, -93.92 20.48, -100.55 19.3 C-107.17 18.11, -112.31 16.45, -118.31 14.72 C-124.31 12.98, -131 10.77, -136.54 8.89 C-142.08 7.01, -147.16 5.06, -151.55 3.45 C-155.95 1.84, -159.19 0.54, -162.93 -0.76 C-166.68 -2.07, -171.69 -3.62, -174.01 -4.4 C-176.34 -5.19, -176.5 -5.13, -176.89 -5.5 C-177.28 -5.87, -176.92 -5.95, -176.36 -6.62 C-175.81 -7.29, -174.95 -8.08, -173.54 -9.51 C-172.14 -10.95, -169.55 -13.57, -167.94 -15.23 C-166.33 -16.9, -164.88 -18.29, -163.88 -19.51 C-162.88 -20.73, -162.31 -21.37, -161.95 -22.56 C-161.59 -23.75, -161.39 -25.3, -161.71 -26.64 C-162.03 -27.98, -162.96 -29.58, -163.86 -30.6 C-164.76 -31.62, -165.89 -32.39, -167.12 -32.76 C-168.36 -33.14, -169.84 -33.06, -171.27 -32.85 C-172.7 -32.64, -174 -32.09, -175.72 -31.53 C-177.43 -30.96, -179.12 -30.13, -181.55 -29.45 C-183.97 -28.78, -187.05 -27.93, -190.28 -27.47 C-193.51 -27.01, -197.24 -26.53, -200.93 -26.67 C-204.62 -26.82, -209.2 -27.49, -212.45 -28.34 C-215.7 -29.19, -217.77 -30.24, -220.42 -31.76 C-223.07 -33.28, -225.99 -35.31, -228.35 -37.46 C-230.71 -39.61, -232.69 -42.13, -234.6 -44.65 C-236.51 -47.17, -238.37 -49.98, -239.81 -52.58 C-241.25 -55.18, -242.25 -57.88, -243.24 -60.25 C-244.23 -62.61, -245.15 -65.09, -245.76 -66.78 C-246.37 -68.48, -247.07 -70, -246.92 -70.41 C-246.77 -70.82, -245.98 -69.79, -244.86 -69.25 C-243.74 -68.71, -242.13 -67.84, -240.19 -67.18 C-238.24 -66.53, -235.52 -65.69, -233.21 -65.33 C-230.89 -64.97, -228.84 -64.96, -226.31 -65.01 C-223.79 -65.05, -220.73 -65.14, -218.04 -65.61 C-215.35 -66.07, -212.54 -66.94, -210.18 -67.8 C-207.81 -68.66, -205.74 -69.63, -203.84 -70.75 C-201.93 -71.87, -200.19 -73.16, -198.74 -74.54 C-197.29 -75.93, -196.04 -77.63, -195.14 -79.08 C-194.24 -80.53, -193.67 -81.82, -193.34 -83.24 C-193.01 -84.65, -192.89 -86.31, -193.15 -87.57 C-193.42 -88.82, -194.11 -89.92, -194.93 -90.77 C-195.76 -91.63, -196.71 -92.22, -198.1 -92.68 C-199.5 -93.15, -201.41 -93.51, -203.29 -93.56 C-205.17 -93.62, -207.36 -93.38, -209.4 -93.03 C-211.45 -92.68, -213.45 -92.07, -215.54 -91.47 C-217.64 -90.87, -219.82 -89.96, -221.95 -89.44 C-224.08 -88.91, -225.71 -88.53, -228.32 -88.3 C-230.93 -88.07, -234.53 -87.95, -237.62 -88.06 C-240.71 -88.17, -243.8 -88.38, -246.88 -88.96 C-249.97 -89.55, -253.21 -90.46, -256.13 -91.55 C-259.06 -92.65, -261.7 -93.95, -264.42 -95.53 C-267.14 -97.11, -269.96 -99.08, -272.45 -101.02 C-274.94 -102.96, -277.04 -104.8, -279.34 -107.17 C-281.64 -109.55, -284.22 -112.64, -286.25 -115.27 C-288.29 -117.9, -289.86 -120.19, -291.55 -122.94 C-293.24 -125.7, -294.91 -128.89, -296.38 -131.81 C-297.85 -134.72, -299.32 -137.98, -300.39 -140.43 C-301.47 -142.88, -302.78 -145.64, -302.83 -146.5 C-302.88 -147.35, -301.73 -146.01, -300.7 -145.56 C-299.66 -145.1, -298.46 -144.51, -296.63 -143.77 C-294.81 -143.02, -292.29 -141.87, -289.74 -141.09 C-287.18 -140.32, -283.98 -139.43, -281.31 -139.1 C-278.64 -138.78, -276.13 -138.93, -273.72 -139.15 C-271.31 -139.37, -269.37 -139.68, -266.85 -140.41 C-264.33 -141.15, -261.31 -142.28, -258.58 -143.57 C-255.85 -144.86, -252.86 -146.78, -250.48 -148.15 C-248.1 -149.53, -246.51 -150.58, -244.29 -151.82 C-242.08 -153.07, -239.37 -154.55, -237.19 -155.63 C-235 -156.72, -233.21 -157.54, -231.17 -158.33 C-229.13 -159.12, -227.24 -159.79, -224.96 -160.36 C-222.68 -160.93, -220.2 -161.52, -217.49 -161.76 C-214.78 -162.01, -211.39 -161.95, -208.72 -161.83 C-206.05 -161.71, -203.68 -161.41, -201.46 -161.03 C-199.24 -160.64, -196.5 -159.63, -195.4 -159.53 C-194.3 -159.42, -194.8 -159.67, -194.88 -160.42 C-194.96 -161.18, -195.26 -162.56, -195.87 -164.05 C-196.47 -165.54, -197.4 -167.63, -198.5 -169.35 C-199.61 -171.06, -200.82 -172.79, -202.49 -174.35 C-204.17 -175.9, -206.24 -177.49, -208.55 -178.67 C-210.86 -179.84, -213.68 -180.7, -216.35 -181.4 C-219.02 -182.09, -221.97 -182.52, -224.56 -182.83 C-227.16 -183.14, -229.46 -183.16, -231.92 -183.24 C-234.38 -183.33, -238.22 -183.12, -239.32 -183.35 C-240.42 -183.57, -239.04 -183.9, -238.52 -184.59 C-237.99 -185.28, -237.21 -186.39, -236.18 -187.49 C-235.14 -188.59, -233.92 -189.81, -232.32 -191.18 C-230.71 -192.55, -228.45 -194.39, -226.55 -195.7 C-224.65 -197.01, -222.92 -198.01, -220.91 -199.04 C-218.91 -200.06, -216.91 -200.96, -214.52 -201.86 C-212.13 -202.76, -209.38 -203.67, -206.57 -204.44 C-203.75 -205.2, -200.87 -205.87, -197.65 -206.46 C-194.43 -207.05, -190.87 -207.51, -187.25 -207.97 C-183.64 -208.42, -179.28 -208.79, -175.95 -209.19 C-172.61 -209.58, -170.22 -209.9, -167.26 -210.34 C-164.3 -210.78, -161.33 -211.22, -158.18 -211.85 C-155.04 -212.48, -151.59 -213.23, -148.39 -214.1 C-145.2 -214.97, -142.47 -215.81, -139.01 -217.1 C-135.56 -218.39, -130.92 -220.42, -127.66 -221.84 C-124.4 -223.25, -122.31 -224.42, -119.45 -225.59 C-116.58 -226.75, -113.54 -227.83, -110.48 -228.83 C-107.41 -229.83, -104.25 -230.82, -101.07 -231.58 C-97.9 -232.35, -94.74 -232.93, -91.41 -233.41 C-88.08 -233.88, -84.82 -234.22, -81.08 -234.43 C-77.34 -234.64, -73.03 -234.73, -68.98 -234.67 C-64.94 -234.6, -60.88 -234.47, -56.81 -234.05 C-52.75 -233.63, -48.99 -233.09, -44.62 -232.14 C-40.25 -231.2, -35.43 -230.07, -30.6 -228.37 C-25.77 -226.67, -20.1 -224.1, -15.62 -221.93 C-11.15 -219.77, -7.54 -217.74, -3.74 -215.37 C0.07 -213, 3.56 -210.58, 7.2 -207.71 C10.84 -204.84, 14.81 -201.37, 18.1 -198.16 C21.39 -194.95, 24.22 -191.7, 26.96 -188.45 C29.69 -185.2, 31.91 -182.53, 34.49 -178.65 C37.08 -174.78, 40.26 -169.61, 42.48 -165.21 C44.71 -160.82, 46.17 -156.76, 47.84 -152.27 C49.52 -147.78, 51.19 -143.54, 52.52 -138.27 C53.85 -133.01, 55.22 -126.04, 55.84 -120.68 C56.47 -115.32, 56.37 -111.07, 56.28 -106.09 C56.2 -101.1, 55.96 -96.12, 55.33 -90.78 C54.7 -85.44, 54.13 -80.06, 52.5 -74.04 C50.87 -68.02, 48.25 -60.78, 45.56 -54.66 C42.88 -48.55, 40.08 -43.01, 36.41 -37.33 C32.74 -31.66, 28.29 -25.9, 23.54 -20.63 C18.79 -15.35, 11.85 -9.14, 7.92 -5.7 C4 -2.27, 1.32 -0.95, 0 0 M0 0 C-1.04 0.67, -3.94 2.66, -6.22 4.01 C-8.5 5.36, -11 6.76, -13.67 8.1 C-16.34 9.44, -18.85 10.66, -22.26 12.03 C-25.66 13.4, -30.11 15.13, -34.09 16.34 C-38.07 17.54, -41.6 18.4, -46.15 19.26 C-50.7 20.12, -55.96 21.06, -61.36 21.49 C-66.77 21.92, -72.04 22.2, -78.57 21.83 C-85.1 21.47, -93.92 20.48, -100.55 19.3 C-107.17 18.11, -112.31 16.45, -118.31 14.72 C-124.31 12.98, -131 10.77, -136.54 8.89 C-142.08 7.01, -147.16 5.06, -151.55 3.45 C-155.95 1.84, -159.19 0.54, -162.93 -0.76 C-166.68 -2.07, -171.69 -3.62, -174.01 -4.4 C-176.34 -5.19, -176.5 -5.13, -176.89 -5.5 C-177.28 -5.87, -176.92 -5.95, -176.36 -6.62 C-175.81 -7.29, -174.95 -8.08, -173.54 -9.51 C-172.14 -10.95, -169.55 -13.57, -167.94 -15.23 C-166.33 -16.9, -164.88 -18.29, -163.88 -19.51 C-162.88 -20.73, -162.31 -21.37, -161.95 -22.56 C-161.59 -23.75, -161.39 -25.3, -161.71 -26.64 C-162.03 -27.98, -162.96 -29.58, -163.86 -30.6 C-164.76 -31.62, -165.89 -32.39, -167.12 -32.76 C-168.36 -33.14, -169.84 -33.06, -171.27 -32.85 C-172.7 -32.64, -174 -32.09, -175.72 -31.53 C-177.43 -30.96, -179.12 -30.13, -181.55 -29.45 C-183.97 -28.78, -187.05 -27.93, -190.28 -27.47 C-193.51 -27.01, -197.24 -26.53, -200.93 -26.67 C-204.62 -26.82, -209.2 -27.49, -212.45 -28.34 C-215.7 -29.19, -217.77 -30.24, -220.42 -31.76 C-223.07 -33.28, -225.99 -35.31, -228.35 -37.46 C-230.71 -39.61, -232.69 -42.13, -234.6 -44.65 C-236.51 -47.17, -238.37 -49.98, -239.81 -52.58 C-241.25 -55.18, -242.25 -57.88, -243.24 -60.25 C-244.23 -62.61, -245.15 -65.09, -245.76 -66.78 C-246.37 -68.48, -247.07 -70, -246.92 -70.41 C-246.77 -70.82, -245.98 -69.79, -244.86 -69.25 C-243.74 -68.71, -242.13 -67.84, -240.19 -67.18 C-238.24 -66.53, -235.52 -65.69, -233.21 -65.33 C-230.89 -64.97, -228.84 -64.96, -226.31 -65.01 C-223.79 -65.05, -220.73 -65.14, -218.04 -65.61 C-215.35 -66.07, -212.54 -66.94, -210.18 -67.8 C-207.81 -68.66, -205.74 -69.63, -203.84 -70.75 C-201.93 -71.87, -200.19 -73.16, -198.74 -74.54 C-197.29 -75.93, -196.04 -77.63, -195.14 -79.08 C-194.24 -80.53, -193.67 -81.82, -193.34 -83.24 C-193.01 -84.65, -192.89 -86.31, -193.15 -87.57 C-193.42 -88.82, -194.11 -89.92, -194.93 -90.77 C-195.76 -91.63, -196.71 -92.22, -198.1 -92.68 C-199.5 -93.15, -201.41 -93.51, -203.29 -93.56 C-205.17 -93.62, -207.36 -93.38, -209.4 -93.03 C-211.45 -92.68, -213.45 -92.07, -215.54 -91.47 C-217.64 -90.87, -219.82 -89.96, -221.95 -89.44 C-224.08 -88.91, -225.71 -88.53, -228.32 -88.3 C-230.93 -88.07, -234.53 -87.95, -237.62 -88.06 C-240.71 -88.17, -243.8 -88.38, -246.88 -88.96 C-249.97 -89.55, -253.21 -90.46, -256.13 -91.55 C-259.06 -92.65, -261.7 -93.95, -264.42 -95.53 C-267.14 -97.11, -269.96 -99.08, -272.45 -101.02 C-274.94 -102.96, -277.04 -104.8, -279.34 -107.17 C-281.64 -109.55, -284.22 -112.64, -286.25 -115.27 C-288.29 -117.9, -289.86 -120.19, -291.55 -122.94 C-293.24 -125.7, -294.91 -128.89, -296.38 -131.81 C-297.85 -134.72, -299.32 -137.98, -300.39 -140.43 C-301.47 -142.88, -302.78 -145.64, -302.83 -146.5 C-302.88 -147.35, -301.73 -146.01, -300.7 -145.56 C-299.66 -145.1, -298.46 -144.51, -296.63 -143.77 C-294.81 -143.02, -292.29 -141.87, -289.74 -141.09 C-287.18 -140.32, -283.98 -139.43, -281.31 -139.1 C-278.64 -138.78, -276.13 -138.93, -273.72 -139.15 C-271.31 -139.37, -269.37 -139.68, -266.85 -140.41 C-264.33 -141.15, -261.31 -142.28, -258.58 -143.57 C-255.85 -144.86, -252.86 -146.78, -250.48 -148.15 C-248.1 -149.53, -246.51 -150.58, -244.29 -151.82 C-242.08 -153.07, -239.37 -154.55, -237.19 -155.63 C-235 -156.72, -233.21 -157.54, -231.17 -158.33 C-229.13 -159.12, -227.24 -159.79, -224.96 -160.36 C-222.68 -160.93, -220.2 -161.52, -217.49 -161.76 C-214.78 -162.01, -211.39 -161.95, -208.72 -161.83 C-206.05 -161.71, -203.68 -161.41, -201.46 -161.03 C-199.24 -160.64, -196.5 -159.63, -195.4 -159.53 C-194.3 -159.42, -194.8 -159.67, -194.88 -160.42 C-194.96 -161.18, -195.26 -162.56, -195.87 -164.05 C-196.47 -165.54, -197.4 -167.63, -198.5 -169.35 C-199.61 -171.06, -200.82 -172.79, -202.49 -174.35 C-204.17 -175.9, -206.24 -177.49, -208.55 -178.67 C-210.86 -179.84, -213.68 -180.7, -216.35 -181.4 C-219.02 -182.09, -221.97 -182.52, -224.56 -182.83 C-227.16 -183.14, -229.46 -183.16, -231.92 -183.24 C-234.38 -183.33, -238.22 -183.12, -239.32 -183.35 C-240.42 -183.57, -239.04 -183.9, -238.52 -184.59 C-237.99 -185.28, -237.21 -186.39, -236.18 -187.49 C-235.14 -188.59, -233.92 -189.81, -232.32 -191.18 C-230.71 -192.55, -228.45 -194.39, -226.55 -195.7 C-224.65 -197.01, -222.92 -198.01, -220.91 -199.04 C-218.91 -200.06, -216.91 -200.96, -214.52 -201.86 C-212.13 -202.76, -209.38 -203.67, -206.57 -204.44 C-203.75 -205.2, -200.87 -205.87, -197.65 -206.46 C-194.43 -207.05, -190.87 -207.51, -187.25 -207.97 C-183.64 -208.42, -179.28 -208.79, -175.95 -209.19 C-172.61 -209.58, -170.22 -209.9, -167.26 -210.34 C-164.3 -210.78, -161.33 -211.22, -158.18 -211.85 C-155.04 -212.48, -151.59 -213.23, -148.39 -214.1 C-145.2 -214.97, -142.47 -215.81, -139.01 -217.1 C-135.56 -218.39, -130.92 -220.42, -127.66 -221.84 C-124.4 -223.25, -122.31 -224.42, -119.45 -225.59 C-116.58 -226.75, -113.54 -227.83, -110.48 -228.83 C-107.41 -229.83, -104.25 -230.82, -101.07 -231.58 C-97.9 -232.35, -94.74 -232.93, -91.41 -233.41 C-88.08 -233.88, -84.82 -234.22, -81.08 -234.43 C-77.34 -234.64, -73.03 -234.73, -68.98 -234.67 C-64.94 -234.6, -60.88 -234.47, -56.81 -234.05 C-52.75 -233.63, -48.99 -233.09, -44.62 -232.14 C-40.25 -231.2, -35.43 -230.07, -30.6 -228.37 C-25.77 -226.67, -20.1 -224.1, -15.62 -221.93 C-11.15 -219.77, -7.54 -217.74, -3.74 -215.37 C0.07 -213, 3.56 -210.58, 7.2 -207.71 C10.84 -204.84, 14.81 -201.37, 18.1 -198.16 C21.39 -194.95, 24.22 -191.7, 26.96 -188.45 C29.69 -185.2, 31.91 -182.53, 34.49 -178.65 C37.08 -174.78, 40.26 -169.61, 42.48 -165.21 C44.71 -160.82, 46.17 -156.76, 47.84 -152.27 C49.52 -147.78, 51.19 -143.54, 52.52 -138.27 C53.85 -133.01, 55.22 -126.04, 55.84 -120.68 C56.47 -115.32, 56.37 -111.07, 56.28 -106.09 C56.2 -101.1, 55.96 -96.12, 55.33 -90.78 C54.7 -85.44, 54.13 -80.06, 52.5 -74.04 C50.87 -68.02, 48.25 -60.78, 45.56 -54.66 C42.88 -48.55, 40.08 -43.01, 36.41 -37.33 C32.74 -31.66, 28.29 -25.9, 23.54 -20.63 C18.79 -15.35, 11.85 -9.14, 7.92 -5.7 C4 -2.27, 1.32 -0.95, 0 0" stroke="#E1E1E1" stroke-width="2" fill="none"></path></g></g><mask></mask><g stroke-linecap="round" transform="translate(149.05006756088733 90.59038755683287) rotate(0 92.46149845494347 92.46149845494438)"><path d="M184.92 92.46 C184.92 95.48, 184.77 98.52, 184.48 101.52 C184.18 104.53, 183.74 107.54, 183.15 110.5 C182.56 113.46, 181.82 116.41, 180.94 119.3 C180.06 122.19, 179.04 125.05, 177.88 127.84 C176.73 130.64, 175.43 133.38, 174.01 136.05 C172.58 138.71, 171.02 141.32, 169.34 143.83 C167.66 146.34, 165.85 148.78, 163.94 151.12 C162.02 153.45, 159.98 155.71, 157.84 157.84 C155.71 159.98, 153.45 162.02, 151.12 163.94 C148.78 165.85, 146.34 167.66, 143.83 169.34 C141.32 171.02, 138.71 172.58, 136.05 174.01 C133.38 175.43, 130.64 176.73, 127.84 177.88 C125.05 179.04, 122.19 180.06, 119.3 180.94 C116.41 181.82, 113.46 182.56, 110.5 183.15 C107.54 183.74, 104.53 184.18, 101.52 184.48 C98.52 184.77, 95.48 184.92, 92.46 184.92 C89.44 184.92, 86.41 184.77, 83.4 184.48 C80.39 184.18, 77.39 183.74, 74.42 183.15 C71.46 182.56, 68.51 181.82, 65.62 180.94 C62.73 180.06, 59.87 179.04, 57.08 177.88 C54.29 176.73, 51.54 175.43, 48.88 174.01 C46.21 172.58, 43.6 171.02, 41.09 169.34 C38.58 167.66, 36.14 165.85, 33.8 163.94 C31.47 162.02, 29.22 159.98, 27.08 157.84 C24.95 155.71, 22.9 153.45, 20.99 151.12 C19.07 148.78, 17.26 146.34, 15.58 143.83 C13.9 141.32, 12.34 138.71, 10.92 136.05 C9.49 133.38, 8.19 130.64, 7.04 127.84 C5.88 125.05, 4.86 122.19, 3.98 119.3 C3.1 116.41, 2.37 113.46, 1.78 110.5 C1.19 107.54, 0.74 104.53, 0.45 101.52 C0.15 98.52, 0 95.48, 0 92.46 C0 89.44, 0.15 86.41, 0.45 83.4 C0.74 80.39, 1.19 77.39, 1.78 74.42 C2.37 71.46, 3.1 68.51, 3.98 65.62 C4.86 62.73, 5.88 59.87, 7.04 57.08 C8.19 54.29, 9.49 51.54, 10.92 48.88 C12.34 46.21, 13.9 43.6, 15.58 41.09 C17.26 38.58, 19.07 36.14, 20.99 33.8 C22.9 31.47, 24.95 29.22, 27.08 27.08 C29.22 24.95, 31.47 22.9, 33.8 20.99 C36.14 19.07, 38.58 17.26, 41.09 15.58 C43.6 13.9, 46.21 12.34, 48.88 10.92 C51.54 9.49, 54.29 8.19, 57.08 7.04 C59.87 5.88, 62.73 4.86, 65.62 3.98 C68.51 3.1, 71.46 2.37, 74.42 1.78 C77.39 1.19, 80.39 0.74, 83.4 0.45 C86.41 0.15, 89.44 0, 92.46 0 C95.48 0, 98.52 0.15, 101.52 0.45 C104.53 0.74, 107.54 1.19, 110.5 1.78 C113.46 2.37, 116.41 3.1, 119.3 3.98 C122.19 4.86, 125.05 5.88, 127.84 7.04 C130.64 8.19, 133.38 9.49, 136.05 10.92 C138.71 12.34, 141.32 13.9, 143.83 15.58 C146.34 17.26, 148.78 19.07, 151.12 20.99 C153.45 22.9, 155.71 24.95, 157.84 27.08 C159.98 29.22, 162.02 31.47, 163.94 33.8 C165.85 36.14, 167.66 38.58, 169.34 41.09 C171.02 43.6, 172.58 46.21, 174.01 48.88 C175.43 51.54, 176.73 54.29, 177.88 57.08 C179.04 59.87, 180.06 62.73, 180.94 65.62 C181.82 68.51, 182.56 71.46, 183.15 74.42 C183.74 77.39, 184.18 80.39, 184.48 83.4 C184.77 86.41, 184.85 90.95, 184.92 92.46 C185 93.97, 185 90.95, 184.92 92.46" stroke="#E1E1E1" stroke-width="2" fill="none"></path></g><g stroke-linecap="round"><g transform="translate(235.33553938349542 110.90465082332594) rotate(0 4.571369466980286 1.5170672201693378)"><path d="M0 0 C0 0.76, -0.03 3.44, 0 4.56 C0.03 5.69, -0.02 6.13, 0.2 6.77 C0.41 7.4, 0.81 7.91, 1.31 8.37 C1.8 8.82, 2.45 9.3, 3.18 9.49 C3.91 9.69, 4.99 9.64, 5.7 9.55 C6.4 9.45, 6.94 9.29, 7.42 8.91 C7.9 8.54, 8.32 7.87, 8.59 7.29 C8.85 6.72, 8.93 6.39, 9.03 5.48 C9.13 4.57, 9.15 3.07, 9.17 1.84 C9.19 0.6, 9.29 -0.92, 9.17 -1.92 C9.05 -2.92, 8.79 -3.56, 8.45 -4.19 C8.11 -4.81, 7.62 -5.26, 7.12 -5.64 C6.62 -6.03, 6.09 -6.36, 5.45 -6.5 C4.82 -6.65, 3.98 -6.67, 3.31 -6.51 C2.64 -6.35, 1.91 -5.96, 1.42 -5.54 C0.93 -5.13, 0.61 -4.53, 0.37 -4 C0.13 -3.48, 0.04 -3.07, -0.03 -2.4 C-0.09 -1.73, 0 -0.4, 0 0 M0 0 C0 0.76, -0.03 3.44, 0 4.56 C0.03 5.69, -0.02 6.13, 0.2 6.77 C0.41 7.4, 0.81 7.91, 1.31 8.37 C1.8 8.82, 2.45 9.3, 3.18 9.49 C3.91 9.69, 4.99 9.64, 5.7 9.55 C6.4 9.45, 6.94 9.29, 7.42 8.91 C7.9 8.54, 8.32 7.87, 8.59 7.29 C8.85 6.72, 8.93 6.39, 9.03 5.48 C9.13 4.57, 9.15 3.07, 9.17 1.84 C9.19 0.6, 9.29 -0.92, 9.17 -1.92 C9.05 -2.92, 8.79 -3.56, 8.45 -4.19 C8.11 -4.81, 7.62 -5.26, 7.12 -5.64 C6.62 -6.03, 6.09 -6.36, 5.45 -6.5 C4.82 -6.65, 3.98 -6.67, 3.31 -6.51 C2.64 -6.35, 1.91 -5.96, 1.42 -5.54 C0.93 -5.13, 0.61 -4.53, 0.37 -4 C0.13 -3.48, 0.04 -3.07, -0.03 -2.4 C-0.09 -1.73, 0 -0.4, 0 0" stroke="#E1E1E1" stroke-width="2" fill="none"></path></g></g><mask></mask><g stroke-linecap="round"><g transform="translate(185.25203404992135 131.88122754290998) rotate(315 4.571369466980286 1.5170672201693378)"><path d="M0 0 C0 0.76, -0.03 3.44, 0 4.56 C0.03 5.69, -0.02 6.13, 0.2 6.77 C0.41 7.4, 0.81 7.91, 1.31 8.37 C1.8 8.82, 2.45 9.3, 3.18 9.49 C3.91 9.69, 4.99 9.64, 5.7 9.55 C6.4 9.45, 6.94 9.29, 7.42 8.91 C7.9 8.54, 8.32 7.87, 8.59 7.29 C8.85 6.72, 8.93 6.39, 9.03 5.48 C9.13 4.57, 9.15 3.07, 9.17 1.84 C9.19 0.6, 9.29 -0.92, 9.17 -1.92 C9.05 -2.92, 8.79 -3.56, 8.45 -4.19 C8.11 -4.81, 7.62 -5.26, 7.12 -5.64 C6.62 -6.03, 6.09 -6.36, 5.45 -6.5 C4.82 -6.65, 3.98 -6.67, 3.31 -6.51 C2.64 -6.35, 1.91 -5.96, 1.42 -5.54 C0.93 -5.13, 0.61 -4.53, 0.37 -4 C0.13 -3.48, 0.04 -3.07, -0.03 -2.4 C-0.09 -1.73, 0 -0.4, 0 0 M0 0 C0 0.76, -0.03 3.44, 0 4.56 C0.03 5.69, -0.02 6.13, 0.2 6.77 C0.41 7.4, 0.81 7.91, 1.31 8.37 C1.8 8.82, 2.45 9.3, 3.18 9.49 C3.91 9.69, 4.99 9.64, 5.7 9.55 C6.4 9.45, 6.94 9.29, 7.42 8.91 C7.9 8.54, 8.32 7.87, 8.59 7.29 C8.85 6.72, 8.93 6.39, 9.03 5.48 C9.13 4.57, 9.15 3.07, 9.17 1.84 C9.19 0.6, 9.29 -0.92, 9.17 -1.92 C9.05 -2.92, 8.79 -3.56, 8.45 -4.19 C8.11 -4.81, 7.62 -5.26, 7.12 -5.64 C6.62 -6.03, 6.09 -6.36, 5.45 -6.5 C4.82 -6.65, 3.98 -6.67, 3.31 -6.51 C2.64 -6.35, 1.91 -5.96, 1.42 -5.54 C0.93 -5.13, 0.61 -4.53, 0.37 -4 C0.13 -3.48, 0.04 -3.07, -0.03 -2.4 C-0.09 -1.73, 0 -0.4, 0 0" stroke="#E1E1E1" stroke-width="2" fill="none"></path></g></g><mask></mask><g stroke-linecap="round"><g transform="translate(164.59239332979269 181.76582699204118) rotate(270 4.571369466980286 1.5170672201693378)"><path d="M0 0 C0 0.76, -0.03 3.44, 0 4.56 C0.03 5.69, -0.02 6.13, 0.2 6.77 C0.41 7.4, 0.81 7.91, 1.31 8.37 C1.8 8.82, 2.45 9.3, 3.18 9.49 C3.91 9.69, 4.99 9.64, 5.7 9.55 C6.4 9.45, 6.94 9.29, 7.42 8.91 C7.9 8.54, 8.32 7.87, 8.59 7.29 C8.85 6.72, 8.93 6.39, 9.03 5.48 C9.13 4.57, 9.15 3.07, 9.17 1.84 C9.19 0.6, 9.29 -0.92, 9.17 -1.92 C9.05 -2.92, 8.79 -3.56, 8.45 -4.19 C8.11 -4.81, 7.62 -5.26, 7.12 -5.64 C6.62 -6.03, 6.09 -6.36, 5.45 -6.5 C4.82 -6.65, 3.98 -6.67, 3.31 -6.51 C2.64 -6.35, 1.91 -5.96, 1.42 -5.54 C0.93 -5.13, 0.61 -4.53, 0.37 -4 C0.13 -3.48, 0.04 -3.07, -0.03 -2.4 C-0.09 -1.73, 0 -0.4, 0 0 M0 0 C0 0.76, -0.03 3.44, 0 4.56 C0.03 5.69, -0.02 6.13, 0.2 6.77 C0.41 7.4, 0.81 7.91, 1.31 8.37 C1.8 8.82, 2.45 9.3, 3.18 9.49 C3.91 9.69, 4.99 9.64, 5.7 9.55 C6.4 9.45, 6.94 9.29, 7.42 8.91 C7.9 8.54, 8.32 7.87, 8.59 7.29 C8.85 6.72, 8.93 6.39, 9.03 5.48 C9.13 4.57, 9.15 3.07, 9.17 1.84 C9.19 0.6, 9.29 -0.92, 9.17 -1.92 C9.05 -2.92, 8.79 -3.56, 8.45 -4.19 C8.11 -4.81, 7.62 -5.26, 7.12 -5.64 C6.62 -6.03, 6.09 -6.36, 5.45 -6.5 C4.82 -6.65, 3.98 -6.67, 3.31 -6.51 C2.64 -6.35, 1.91 -5.96, 1.42 -5.54 C0.93 -5.13, 0.61 -4.53, 0.37 -4 C0.13 -3.48, 0.04 -3.07, -0.03 -2.4 C-0.09 -1.73, 0 -0.4, 0 0" stroke="#E1E1E1" stroke-width="2" fill="none"></path></g></g><mask></mask><g stroke-linecap="round"><g transform="translate(185.1428821224199 231.68309973337819) rotate(224.99999999999997 4.571369466980286 1.5170672201693378)"><path d="M0 0 C0 0.76, -0.03 3.44, 0 4.56 C0.03 5.69, -0.02 6.13, 0.2 6.77 C0.41 7.4, 0.81 7.91, 1.31 8.37 C1.8 8.82, 2.45 9.3, 3.18 9.49 C3.91 9.69, 4.99 9.64, 5.7 9.55 C6.4 9.45, 6.94 9.29, 7.42 8.91 C7.9 8.54, 8.32 7.87, 8.59 7.29 C8.85 6.72, 8.93 6.39, 9.03 5.48 C9.13 4.57, 9.15 3.07, 9.17 1.84 C9.19 0.6, 9.29 -0.92, 9.17 -1.92 C9.05 -2.92, 8.79 -3.56, 8.45 -4.19 C8.11 -4.81, 7.62 -5.26, 7.12 -5.64 C6.62 -6.03, 6.09 -6.36, 5.45 -6.5 C4.82 -6.65, 3.98 -6.67, 3.31 -6.51 C2.64 -6.35, 1.91 -5.96, 1.42 -5.54 C0.93 -5.13, 0.61 -4.53, 0.37 -4 C0.13 -3.48, 0.04 -3.07, -0.03 -2.4 C-0.09 -1.73, 0 -0.4, 0 0 M0 0 C0 0.76, -0.03 3.44, 0 4.56 C0.03 5.69, -0.02 6.13, 0.2 6.77 C0.41 7.4, 0.81 7.91, 1.31 8.37 C1.8 8.82, 2.45 9.3, 3.18 9.49 C3.91 9.69, 4.99 9.64, 5.7 9.55 C6.4 9.45, 6.94 9.29, 7.42 8.91 C7.9 8.54, 8.32 7.87, 8.59 7.29 C8.85 6.72, 8.93 6.39, 9.03 5.48 C9.13 4.57, 9.15 3.07, 9.17 1.84 C9.19 0.6, 9.29 -0.92, 9.17 -1.92 C9.05 -2.92, 8.79 -3.56, 8.45 -4.19 C8.11 -4.81, 7.62 -5.26, 7.12 -5.64 C6.62 -6.03, 6.09 -6.36, 5.45 -6.5 C4.82 -6.65, 3.98 -6.67, 3.31 -6.51 C2.64 -6.35, 1.91 -5.96, 1.42 -5.54 C0.93 -5.13, 0.61 -4.53, 0.37 -4 C0.13 -3.48, 0.04 -3.07, -0.03 -2.4 C-0.09 -1.73, 0 -0.4, 0 0" stroke="#E1E1E1" stroke-width="2" fill="none"></path></g></g><mask></mask><g stroke-linecap="round"><g transform="translate(235.32558921990494 252.39868985210705) rotate(0 4.571369466980286 1.5170672201693378)"><path d="M0 0 C0 0.76, -0.03 3.44, 0 4.56 C0.03 5.69, -0.02 6.13, 0.2 6.77 C0.41 7.4, 0.81 7.91, 1.31 8.37 C1.8 8.82, 2.45 9.3, 3.18 9.49 C3.91 9.69, 4.99 9.64, 5.7 9.55 C6.4 9.45, 6.94 9.29, 7.42 8.91 C7.9 8.54, 8.32 7.87, 8.59 7.29 C8.85 6.72, 8.93 6.39, 9.03 5.48 C9.13 4.57, 9.15 3.07, 9.17 1.84 C9.19 0.6, 9.29 -0.92, 9.17 -1.92 C9.05 -2.92, 8.79 -3.56, 8.45 -4.19 C8.11 -4.81, 7.62 -5.26, 7.12 -5.64 C6.62 -6.03, 6.09 -6.36, 5.45 -6.5 C4.82 -6.65, 3.98 -6.67, 3.31 -6.51 C2.64 -6.35, 1.91 -5.96, 1.42 -5.54 C0.93 -5.13, 0.61 -4.53, 0.37 -4 C0.13 -3.48, 0.04 -3.07, -0.03 -2.4 C-0.09 -1.73, 0 -0.4, 0 0 M0 0 C0 0.76, -0.03 3.44, 0 4.56 C0.03 5.69, -0.02 6.13, 0.2 6.77 C0.41 7.4, 0.81 7.91, 1.31 8.37 C1.8 8.82, 2.45 9.3, 3.18 9.49 C3.91 9.69, 4.99 9.64, 5.7 9.55 C6.4 9.45, 6.94 9.29, 7.42 8.91 C7.9 8.54, 8.32 7.87, 8.59 7.29 C8.85 6.72, 8.93 6.39, 9.03 5.48 C9.13 4.57, 9.15 3.07, 9.17 1.84 C9.19 0.6, 9.29 -0.92, 9.17 -1.92 C9.05 -2.92, 8.79 -3.56, 8.45 -4.19 C8.11 -4.81, 7.62 -5.26, 7.12 -5.64 C6.62 -6.03, 6.09 -6.36, 5.45 -6.5 C4.82 -6.65, 3.98 -6.67, 3.31 -6.51 C2.64 -6.35, 1.91 -5.96, 1.42 -5.54 C0.93 -5.13, 0.61 -4.53, 0.37 -4 C0.13 -3.48, 0.04 -3.07, -0.03 -2.4 C-0.09 -1.73, 0 -0.4, 0 0" stroke="#E1E1E1" stroke-width="2" fill="none"></path></g></g><mask></mask><g stroke-linecap="round"><g transform="translate(285.31023255490436 231.8717663100524) rotate(315 4.571369466980286 1.5170672201693378)"><path d="M0 0 C0 0.76, -0.03 3.44, 0 4.56 C0.03 5.69, -0.02 6.13, 0.2 6.77 C0.41 7.4, 0.81 7.91, 1.31 8.37 C1.8 8.82, 2.45 9.3, 3.18 9.49 C3.91 9.69, 4.99 9.64, 5.7 9.55 C6.4 9.45, 6.94 9.29, 7.42 8.91 C7.9 8.54, 8.32 7.87, 8.59 7.29 C8.85 6.72, 8.93 6.39, 9.03 5.48 C9.13 4.57, 9.15 3.07, 9.17 1.84 C9.19 0.6, 9.29 -0.92, 9.17 -1.92 C9.05 -2.92, 8.79 -3.56, 8.45 -4.19 C8.11 -4.81, 7.62 -5.26, 7.12 -5.64 C6.62 -6.03, 6.09 -6.36, 5.45 -6.5 C4.82 -6.65, 3.98 -6.67, 3.31 -6.51 C2.64 -6.35, 1.91 -5.96, 1.42 -5.54 C0.93 -5.13, 0.61 -4.53, 0.37 -4 C0.13 -3.48, 0.04 -3.07, -0.03 -2.4 C-0.09 -1.73, 0 -0.4, 0 0 M0 0 C0 0.76, -0.03 3.44, 0 4.56 C0.03 5.69, -0.02 6.13, 0.2 6.77 C0.41 7.4, 0.81 7.91, 1.31 8.37 C1.8 8.82, 2.45 9.3, 3.18 9.49 C3.91 9.69, 4.99 9.64, 5.7 9.55 C6.4 9.45, 6.94 9.29, 7.42 8.91 C7.9 8.54, 8.32 7.87, 8.59 7.29 C8.85 6.72, 8.93 6.39, 9.03 5.48 C9.13 4.57, 9.15 3.07, 9.17 1.84 C9.19 0.6, 9.29 -0.92, 9.17 -1.92 C9.05 -2.92, 8.79 -3.56, 8.45 -4.19 C8.11 -4.81, 7.62 -5.26, 7.12 -5.64 C6.62 -6.03, 6.09 -6.36, 5.45 -6.5 C4.82 -6.65, 3.98 -6.67, 3.31 -6.51 C2.64 -6.35, 1.91 -5.96, 1.42 -5.54 C0.93 -5.13, 0.61 -4.53, 0.37 -4 C0.13 -3.48, 0.04 -3.07, -0.03 -2.4 C-0.09 -1.73, 0 -0.4, 0 0" stroke="#E1E1E1" stroke-width="2" fill="none"></path></g></g><mask></mask><g stroke-linecap="round"><g transform="translate(305.8967197977927 181.58438901983936) rotate(270 4.571369466980286 1.5170672201693378)"><path d="M0 0 C0 0.76, -0.03 3.44, 0 4.56 C0.03 5.69, -0.02 6.13, 0.2 6.77 C0.41 7.4, 0.81 7.91, 1.31 8.37 C1.8 8.82, 2.45 9.3, 3.18 9.49 C3.91 9.69, 4.99 9.64, 5.7 9.55 C6.4 9.45, 6.94 9.29, 7.42 8.91 C7.9 8.54, 8.32 7.87, 8.59 7.29 C8.85 6.72, 8.93 6.39, 9.03 5.48 C9.13 4.57, 9.15 3.07, 9.17 1.84 C9.19 0.6, 9.29 -0.92, 9.17 -1.92 C9.05 -2.92, 8.79 -3.56, 8.45 -4.19 C8.11 -4.81, 7.62 -5.26, 7.12 -5.64 C6.62 -6.03, 6.09 -6.36, 5.45 -6.5 C4.82 -6.65, 3.98 -6.67, 3.31 -6.51 C2.64 -6.35, 1.91 -5.96, 1.42 -5.54 C0.93 -5.13, 0.61 -4.53, 0.37 -4 C0.13 -3.48, 0.04 -3.07, -0.03 -2.4 C-0.09 -1.73, 0 -0.4, 0 0 M0 0 C0 0.76, -0.03 3.44, 0 4.56 C0.03 5.69, -0.02 6.13, 0.2 6.77 C0.41 7.4, 0.81 7.91, 1.31 8.37 C1.8 8.82, 2.45 9.3, 3.18 9.49 C3.91 9.69, 4.99 9.64, 5.7 9.55 C6.4 9.45, 6.94 9.29, 7.42 8.91 C7.9 8.54, 8.32 7.87, 8.59 7.29 C8.85 6.72, 8.93 6.39, 9.03 5.48 C9.13 4.57, 9.15 3.07, 9.17 1.84 C9.19 0.6, 9.29 -0.92, 9.17 -1.92 C9.05 -2.92, 8.79 -3.56, 8.45 -4.19 C8.11 -4.81, 7.62 -5.26, 7.12 -5.64 C6.62 -6.03, 6.09 -6.36, 5.45 -6.5 C4.82 -6.65, 3.98 -6.67, 3.31 -6.51 C2.64 -6.35, 1.91 -5.96, 1.42 -5.54 C0.93 -5.13, 0.61 -4.53, 0.37 -4 C0.13 -3.48, 0.04 -3.07, -0.03 -2.4 C-0.09 -1.73, 0 -0.4, 0 0" stroke="#E1E1E1" stroke-width="2" fill="none"></path></g></g><mask></mask><g stroke-linecap="round"><g transform="translate(285.0845555233427 131.75299209960758) rotate(224.99999999999997 4.571369466980286 1.5170672201693378)"><path d="M0 0 C0 0.76, -0.03 3.44, 0 4.56 C0.03 5.69, -0.02 6.13, 0.2 6.77 C0.41 7.4, 0.81 7.91, 1.31 8.37 C1.8 8.82, 2.45 9.3, 3.18 9.49 C3.91 9.69, 4.99 9.64, 5.7 9.55 C6.4 9.45, 6.94 9.29, 7.42 8.91 C7.9 8.54, 8.32 7.87, 8.59 7.29 C8.85 6.72, 8.93 6.39, 9.03 5.48 C9.13 4.57, 9.15 3.07, 9.17 1.84 C9.19 0.6, 9.29 -0.92, 9.17 -1.92 C9.05 -2.92, 8.79 -3.56, 8.45 -4.19 C8.11 -4.81, 7.62 -5.26, 7.12 -5.64 C6.62 -6.03, 6.09 -6.36, 5.45 -6.5 C4.82 -6.65, 3.98 -6.67, 3.31 -6.51 C2.64 -6.35, 1.91 -5.96, 1.42 -5.54 C0.93 -5.13, 0.61 -4.53, 0.37 -4 C0.13 -3.48, 0.04 -3.07, -0.03 -2.4 C-0.09 -1.73, 0 -0.4, 0 0 M0 0 C0 0.76, -0.03 3.44, 0 4.56 C0.03 5.69, -0.02 6.13, 0.2 6.77 C0.41 7.4, 0.81 7.91, 1.31 8.37 C1.8 8.82, 2.45 9.3, 3.18 9.49 C3.91 9.69, 4.99 9.64, 5.7 9.55 C6.4 9.45, 6.94 9.29, 7.42 8.91 C7.9 8.54, 8.32 7.87, 8.59 7.29 C8.85 6.72, 8.93 6.39, 9.03 5.48 C9.13 4.57, 9.15 3.07, 9.17 1.84 C9.19 0.6, 9.29 -0.92, 9.17 -1.92 C9.05 -2.92, 8.79 -3.56, 8.45 -4.19 C8.11 -4.81, 7.62 -5.26, 7.12 -5.64 C6.62 -6.03, 6.09 -6.36, 5.45 -6.5 C4.82 -6.65, 3.98 -6.67, 3.31 -6.51 C2.64 -6.35, 1.91 -5.96, 1.42 -5.54 C0.93 -5.13, 0.61 -4.53, 0.37 -4 C0.13 -3.48, 0.04 -3.07, -0.03 -2.4 C-0.09 -1.73, 0 -0.4, 0 0" stroke="#E1E1E1" stroke-width="2" fill="none"></path></g></g><mask></mask><g stroke-linecap="round" transform="translate(233.62248434691355 175.64623287888753) rotate(0 7.590730374772647 7.590730374772647)"><path d="M15.18 7.59 C15.18 8.03, 15.14 8.48, 15.07 8.91 C14.99 9.34, 14.87 9.77, 14.72 10.19 C14.57 10.6, 14.38 11.01, 14.16 11.39 C13.94 11.77, 13.69 12.13, 13.41 12.47 C13.12 12.81, 12.81 13.12, 12.47 13.41 C12.13 13.69, 11.77 13.94, 11.39 14.16 C11.01 14.38, 10.6 14.57, 10.19 14.72 C9.77 14.87, 9.34 14.99, 8.91 15.07 C8.48 15.14, 8.03 15.18, 7.59 15.18 C7.15 15.18, 6.71 15.14, 6.27 15.07 C5.84 14.99, 5.41 14.87, 4.99 14.72 C4.58 14.57, 4.18 14.38, 3.8 14.16 C3.41 13.94, 3.05 13.69, 2.71 13.41 C2.37 13.12, 2.06 12.81, 1.78 12.47 C1.49 12.13, 1.24 11.77, 1.02 11.39 C0.8 11.01, 0.61 10.6, 0.46 10.19 C0.31 9.77, 0.19 9.34, 0.12 8.91 C0.04 8.48, 0 8.03, 0 7.59 C0 7.15, 0.04 6.71, 0.12 6.27 C0.19 5.84, 0.31 5.41, 0.46 4.99 C0.61 4.58, 0.8 4.18, 1.02 3.8 C1.24 3.41, 1.49 3.05, 1.78 2.71 C2.06 2.37, 2.37 2.06, 2.71 1.78 C3.05 1.49, 3.41 1.24, 3.8 1.02 C4.18 0.8, 4.58 0.61, 4.99 0.46 C5.41 0.31, 5.84 0.19, 6.27 0.12 C6.71 0.04, 7.15 0, 7.59 0 C8.03 0, 8.48 0.04, 8.91 0.12 C9.34 0.19, 9.77 0.31, 10.19 0.46 C10.6 0.61, 11.01 0.8, 11.39 1.02 C11.77 1.24, 12.13 1.49, 12.47 1.78 C12.81 2.06, 13.12 2.37, 13.41 2.71 C13.69 3.05, 13.94 3.41, 14.16 3.8 C14.38 4.18, 14.57 4.58, 14.72 4.99 C14.87 5.41, 14.99 5.84, 15.07 6.27 C15.14 6.71, 15.16 7.37, 15.18 7.59 C15.2 7.81, 15.2 7.37, 15.18 7.59" stroke="#E1E1E1" stroke-width="2" fill="none"></path></g><g stroke-linecap="round"><g transform="translate(256.10548862092037 160.86163620349726) rotate(0 -4.551691117178052 11.374202300567958)"><path d="M0 0 C1.3 -1.3, 5.63 -5.63, 7.79 -7.79 C9.95 -9.95, 11.65 -11.66, 12.96 -12.96 C14.28 -14.27, 14.92 -15.1, 15.69 -15.62 C16.46 -16.15, 16.93 -16.09, 17.59 -16.12 C18.25 -16.16, 19.02 -16.14, 19.66 -15.85 C20.29 -15.56, 20.98 -14.92, 21.4 -14.39 C21.82 -13.86, 22.08 -13.32, 22.19 -12.66 C22.29 -11.99, 22.27 -11.1, 22.05 -10.41 C21.82 -9.71, 21.69 -9.47, 20.85 -8.5 C20.01 -7.54, 19.34 -6.94, 17.02 -4.61 C14.71 -2.28, 9.79 2.63, 6.95 5.46 C4.11 8.3, 1.31 11.11, 0 12.41 C-1.3 13.71, -0.73 12.96, -0.86 13.25 C-1 13.54, -1.01 13.62, -0.8 14.16 C-0.59 14.69, 0.05 15.62, 0.4 16.48 C0.75 17.35, 1.12 18.2, 1.3 19.36 C1.48 20.52, 1.61 21.99, 1.5 23.45 C1.4 24.9, 1.25 26.55, 0.66 28.08 C0.08 29.61, -0.77 31.18, -2 32.61 C-3.22 34.05, -5.09 35.7, -6.68 36.7 C-8.28 37.71, -9.65 38.28, -11.58 38.65 C-13.51 39.01, -16.24 39.21, -18.25 38.87 C-20.27 38.54, -22.15 37.55, -23.64 36.62 C-25.14 35.69, -26.16 34.56, -27.21 33.3 C-28.27 32.04, -29.34 30.41, -30 29.04 C-30.66 27.67, -30.96 26.68, -31.18 25.08 C-31.39 23.49, -31.64 21.43, -31.29 19.49 C-30.94 17.56, -30.25 15.27, -29.09 13.47 C-27.92 11.67, -25.94 9.91, -24.32 8.72 C-22.7 7.52, -21 6.78, -19.37 6.29 C-17.73 5.81, -16.02 5.78, -14.5 5.8 C-12.98 5.82, -11.38 6.15, -10.24 6.41 C-9.1 6.66, -8.33 7.38, -7.66 7.32 C-6.98 7.27, -7.47 7.32, -6.19 6.1 C-4.92 4.88, -1.03 1.02, 0 0 M0 0 C1.3 -1.3, 5.63 -5.63, 7.79 -7.79 C9.95 -9.95, 11.65 -11.66, 12.96 -12.96 C14.28 -14.27, 14.92 -15.1, 15.69 -15.62 C16.46 -16.15, 16.93 -16.09, 17.59 -16.12 C18.25 -16.16, 19.02 -16.14, 19.66 -15.85 C20.29 -15.56, 20.98 -14.92, 21.4 -14.39 C21.82 -13.86, 22.08 -13.32, 22.19 -12.66 C22.29 -11.99, 22.27 -11.1, 22.05 -10.41 C21.82 -9.71, 21.69 -9.47, 20.85 -8.5 C20.01 -7.54, 19.34 -6.94, 17.02 -4.61 C14.71 -2.28, 9.79 2.63, 6.95 5.46 C4.11 8.3, 1.31 11.11, 0 12.41 C-1.3 13.71, -0.73 12.96, -0.86 13.25 C-1 13.54, -1.01 13.62, -0.8 14.16 C-0.59 14.69, 0.05 15.62, 0.4 16.48 C0.75 17.35, 1.12 18.2, 1.3 19.36 C1.48 20.52, 1.61 21.99, 1.5 23.45 C1.4 24.9, 1.25 26.55, 0.66 28.08 C0.08 29.61, -0.77 31.18, -2 32.61 C-3.22 34.05, -5.09 35.7, -6.68 36.7 C-8.28 37.71, -9.65 38.28, -11.58 38.65 C-13.51 39.01, -16.24 39.21, -18.25 38.87 C-20.27 38.54, -22.15 37.55, -23.64 36.62 C-25.14 35.69, -26.16 34.56, -27.21 33.3 C-28.27 32.04, -29.34 30.41, -30 29.04 C-30.66 27.67, -30.96 26.68, -31.18 25.08 C-31.39 23.49, -31.64 21.43, -31.29 19.49 C-30.94 17.56, -30.25 15.27, -29.09 13.47 C-27.92 11.67, -25.94 9.91, -24.32 8.72 C-22.7 7.52, -21 6.78, -19.37 6.29 C-17.73 5.81, -16.02 5.78, -14.5 5.8 C-12.98 5.82, -11.38 6.15, -10.24 6.41 C-9.1 6.66, -8.33 7.38, -7.66 7.32 C-6.98 7.27, -7.47 7.32, -6.19 6.1 C-4.92 4.88, -1.03 1.02, 0 0" stroke="#E1E1E1" stroke-width="2" fill="none"></path></g></g><mask></mask><g stroke-linecap="round"><g transform="translate(337.33105128739953 98.21361190832431) rotate(0 -10.150212960601493 -15.915026692047832)"><path d="M0 0 C0.64 -0.71, 2.83 -2.87, 3.83 -4.27 C4.82 -5.66, 5.55 -6.92, 5.99 -8.4 C6.43 -9.87, 6.49 -11.46, 6.48 -13.1 C6.47 -14.74, 6.53 -16.39, 5.95 -18.23 C5.36 -20.07, 4.29 -22.4, 2.97 -24.16 C1.65 -25.91, -0.34 -27.59, -1.96 -28.77 C-3.59 -29.95, -5.02 -30.71, -6.77 -31.22 C-8.52 -31.73, -10.74 -31.81, -12.47 -31.83 C-14.21 -31.85, -15.79 -31.75, -17.16 -31.31 C-18.53 -30.87, -19.6 -29.96, -20.68 -29.21 C-21.77 -28.45, -22.79 -27.62, -23.65 -26.79 C-24.52 -25.96, -25.35 -24.84, -25.87 -24.22 C-26.39 -23.6, -26.63 -23.25, -26.78 -23.05 M0 0 C0.64 -0.71, 2.83 -2.87, 3.83 -4.27 C4.82 -5.66, 5.55 -6.92, 5.99 -8.4 C6.43 -9.87, 6.49 -11.46, 6.48 -13.1 C6.47 -14.74, 6.53 -16.39, 5.95 -18.23 C5.36 -20.07, 4.29 -22.4, 2.97 -24.16 C1.65 -25.91, -0.34 -27.59, -1.96 -28.77 C-3.59 -29.95, -5.02 -30.71, -6.77 -31.22 C-8.52 -31.73, -10.74 -31.81, -12.47 -31.83 C-14.21 -31.85, -15.79 -31.75, -17.16 -31.31 C-18.53 -30.87, -19.6 -29.96, -20.68 -29.21 C-21.77 -28.45, -22.79 -27.62, -23.65 -26.79 C-24.52 -25.96, -25.35 -24.84, -25.87 -24.22 C-26.39 -23.6, -26.63 -23.25, -26.78 -23.05" stroke="#E1E1E1" stroke-width="2" fill="none"></path></g></g><mask></mask><g stroke-linecap="round"><g transform="translate(231.69445015881502 10.086968648693073) rotate(0 9.397883428739078 14.692945385802886)"><path d="M0 0 C3.85 0, 18.03 0, 23.13 0 C28.22 0, 28.7 -0.03, 30.56 0 C32.43 0.03, 33.27 -0.09, 34.33 0.17 C35.4 0.43, 36.17 0.94, 36.98 1.55 C37.79 2.17, 38.56 2.96, 39.19 3.86 C39.82 4.76, 40.44 5.66, 40.76 6.94 C41.08 8.22, 41.06 9.12, 41.12 11.55 C41.18 13.97, 41.31 19.28, 41.12 21.5 C40.92 23.72, 40.57 23.88, 39.95 24.86 C39.34 25.85, 38.35 26.72, 37.43 27.41 C36.5 28.1, 35.96 28.68, 34.39 29.02 C32.82 29.36, 32.92 29.39, 28 29.47 C23.09 29.54, 10.83 29.47, 4.89 29.47 C-1.05 29.47, -4.5 29.47, -7.63 29.47 C-10.76 29.47, -12.24 29.63, -13.88 29.47 C-15.52 29.3, -16.42 29.07, -17.47 28.49 C-18.51 27.91, -19.47 26.86, -20.17 25.97 C-20.86 25.08, -21.28 24.37, -21.62 23.16 C-21.96 21.95, -22.1 20.49, -22.22 18.72 C-22.33 16.95, -22.31 14.42, -22.32 12.56 C-22.33 10.69, -22.44 8.82, -22.29 7.51 C-22.13 6.19, -21.97 5.62, -21.37 4.68 C-20.76 3.74, -19.63 2.61, -18.65 1.86 C-17.66 1.1, -16.64 0.49, -15.46 0.16 C-14.27 -0.16, -14.11 -0.05, -11.54 -0.08 C-8.96 -0.11, -1.92 -0.01, 0 0 M0 0 C3.85 0, 18.03 0, 23.13 0 C28.22 0, 28.7 -0.03, 30.56 0 C32.43 0.03, 33.27 -0.09, 34.33 0.17 C35.4 0.43, 36.17 0.94, 36.98 1.55 C37.79 2.17, 38.56 2.96, 39.19 3.86 C39.82 4.76, 40.44 5.66, 40.76 6.94 C41.08 8.22, 41.06 9.12, 41.12 11.55 C41.18 13.97, 41.31 19.28, 41.12 21.5 C40.92 23.72, 40.57 23.88, 39.95 24.86 C39.34 25.85, 38.35 26.72, 37.43 27.41 C36.5 28.1, 35.96 28.68, 34.39 29.02 C32.82 29.36, 32.92 29.39, 28 29.47 C23.09 29.54, 10.83 29.47, 4.89 29.47 C-1.05 29.47, -4.5 29.47, -7.63 29.47 C-10.76 29.47, -12.24 29.63, -13.88 29.47 C-15.52 29.3, -16.42 29.07, -17.47 28.49 C-18.51 27.91, -19.47 26.86, -20.17 25.97 C-20.86 25.08, -21.28 24.37, -21.62 23.16 C-21.96 21.95, -22.1 20.49, -22.22 18.72 C-22.33 16.95, -22.31 14.42, -22.32 12.56 C-22.33 10.69, -22.44 8.82, -22.29 7.51 C-22.13 6.19, -21.97 5.62, -21.37 4.68 C-20.76 3.74, -19.63 2.61, -18.65 1.86 C-17.66 1.1, -16.64 0.49, -15.46 0.16 C-14.27 -0.16, -14.11 -0.05, -11.54 -0.08 C-8.96 -0.11, -1.92 -0.01, 0 0" stroke="#E1E1E1" stroke-width="2" fill="none"></path></g></g><mask></mask><g stroke-linecap="round"><g transform="translate(228.80167420542966 39.63465298009942) rotate(0 0 7.8458264524633705)"><path d="M0 0 C0 2.62, 0 13.08, 0 15.69 M0 0 C0 2.62, 0 13.08, 0 15.69" stroke="#E1E1E1" stroke-width="2" fill="none"></path></g></g><mask></mask><g stroke-linecap="round"><g transform="translate(253.4875007714636 39.68125571837663) rotate(0 0 7.831969492079224)"><path d="M0 0 C0 2.61, 0 13.05, 0 15.66 M0 0 C0 2.61, 0 13.05, 0 15.66" stroke="#E1E1E1" stroke-width="2" fill="none"></path></g></g><mask></mask></svg>