<svg version="1.1" xmlns="http://www.w3.org/2000/svg" viewBox="0 0 563.9974998663726 481.74074735537766" width="563.9974998663726" height="481.74074735537766" class="excalidraw-svg"><!-- svg-source:excalidraw --><metadata></metadata><defs><style class="style-fonts">
      </style></defs><rect x="0" y="0" width="563.9974998663726" height="481.74074735537766" fill="#000000"></rect><g stroke-linecap="round"><g transform="translate(2.268435476798402 201.91496365794296) rotate(320.18599994520247 106.51659970044935 -45.830601265768806)"><path d="M0 0 C5.44 -0.78, 21.47 -1.57, 32.63 -4.7 C43.79 -7.83, 57.1 -12.86, 66.97 -18.79 C76.84 -24.73, 82.88 -32.36, 91.84 -40.33 C100.79 -48.3, 110.13 -59.37, 120.71 -66.62 C131.28 -73.87, 144.03 -79.93, 155.31 -83.83 C166.58 -87.73, 178.73 -88.72, 188.35 -90.03 C197.97 -91.33, 208.92 -91.39, 213.03 -91.66 M0 0 C5.44 -0.78, 21.47 -1.57, 32.63 -4.7 C43.79 -7.83, 57.1 -12.86, 66.97 -18.79 C76.84 -24.73, 82.88 -32.36, 91.84 -40.33 C100.79 -48.3, 110.13 -59.37, 120.71 -66.62 C131.28 -73.87, 144.03 -79.93, 155.31 -83.83 C166.58 -87.73, 178.73 -88.72, 188.35 -90.03 C197.97 -91.33, 208.92 -91.39, 213.03 -91.66" stroke="#E1E1E1" stroke-width="4" fill="none"></path></g></g><mask></mask><g stroke-linecap="round" transform="translate(154.8718163859741 10) rotate(320.18599994520247 26.184667327850576 26.18466732785059)"><path d="M52.37 26.18 C52.37 27.7, 52.23 29.24, 51.97 30.73 C51.71 32.22, 51.31 33.72, 50.79 35.14 C50.27 36.56, 49.62 37.96, 48.86 39.28 C48.1 40.59, 47.22 41.85, 46.24 43.02 C45.27 44.18, 44.18 45.27, 43.02 46.24 C41.85 47.22, 40.59 48.1, 39.28 48.86 C37.96 49.62, 36.56 50.27, 35.14 50.79 C33.72 51.31, 32.22 51.71, 30.73 51.97 C29.24 52.23, 27.7 52.37, 26.18 52.37 C24.67 52.37, 23.13 52.23, 21.64 51.97 C20.15 51.71, 18.65 51.31, 17.23 50.79 C15.8 50.27, 14.4 49.62, 13.09 48.86 C11.78 48.1, 10.51 47.22, 9.35 46.24 C8.19 45.27, 7.1 44.18, 6.13 43.02 C5.15 41.85, 4.27 40.59, 3.51 39.28 C2.75 37.96, 2.1 36.56, 1.58 35.14 C1.06 33.72, 0.66 32.22, 0.4 30.73 C0.13 29.24, 0 27.7, 0 26.18 C0 24.67, 0.13 23.13, 0.4 21.64 C0.66 20.15, 1.06 18.65, 1.58 17.23 C2.1 15.8, 2.75 14.4, 3.51 13.09 C4.27 11.78, 5.15 10.51, 6.13 9.35 C7.1 8.19, 8.19 7.1, 9.35 6.13 C10.51 5.15, 11.78 4.27, 13.09 3.51 C14.4 2.75, 15.8 2.1, 17.23 1.58 C18.65 1.06, 20.15 0.66, 21.64 0.4 C23.13 0.13, 24.67 0, 26.18 0 C27.7 0, 29.24 0.13, 30.73 0.4 C32.22 0.66, 33.72 1.06, 35.14 1.58 C36.56 2.1, 37.96 2.75, 39.28 3.51 C40.59 4.27, 41.85 5.15, 43.02 6.13 C44.18 7.1, 45.27 8.19, 46.24 9.35 C47.22 10.51, 48.1 11.78, 48.86 13.09 C49.62 14.4, 50.27 15.8, 50.79 17.23 C51.31 18.65, 51.71 20.15, 51.97 21.64 C52.23 23.13, 52.3 25.43, 52.37 26.18 C52.44 26.94, 52.44 25.43, 52.37 26.18" stroke="#E1E1E1" stroke-width="4" fill="none"></path></g><g stroke-linecap="round"><g transform="translate(181.25104263828518 9.795123699665567) rotate(320.18599994520247 0 26.063343005936417)"><path d="M0 0 C0 14.33, 0 28.65, 0 52.13 M0 0 C0 12.11, 0 24.23, 0 52.13" stroke="#E1E1E1" stroke-width="4" fill="none"></path></g></g><mask></mask><g stroke-linecap="round"><g transform="translate(203.6470857011721 27.15715681299025) rotate(320.18599994520247 -12.769876894912073 0)"><path d="M0 0 C-9.5 0, -18.99 0, -25.54 0 M0 0 C-9.61 0, -19.22 0, -25.54 0" stroke="#E1E1E1" stroke-width="4" fill="none"></path></g></g><mask></mask><g stroke-linecap="round"><g transform="translate(171.9803379414741 28.590692709251073) rotate(320.18599994520247 -9.47255503117924 0)"><path d="M0 0 C-5.72 0, -11.45 0, -18.95 0 M0 0 C-3.94 0, -7.88 0, -18.95 0" stroke="#E1E1E1" stroke-width="4" fill="none"></path></g></g><mask></mask><g stroke-linecap="round"><g transform="translate(178.2565426350081 37.07060276121183) rotate(320.18599994520247 -12.338719758142958 0)"><path d="M0 0 C-7.51 0, -15.01 0, -24.68 0 M0 0 C-5.69 0, -11.38 0, -24.68 0" stroke="#E1E1E1" stroke-width="4" fill="none"></path></g></g><mask></mask><g stroke-linecap="round"><g transform="translate(184.74274382653283 44.74274358983723) rotate(320.18599994520247 -13.232037291627563 0)"><path d="M0 0 C-8.22 0, -16.45 0, -26.46 0 M0 0 C-5.98 0, -11.95 0, -26.46 0" stroke="#E1E1E1" stroke-width="4" fill="none"></path></g></g><mask></mask><g stroke-linecap="round"><g transform="translate(189.41730441858903 50.29191045237474) rotate(320.18599994520247 -12.490462421731223 0)"><path d="M0 0 C-8.62 0, -17.23 0, -24.98 0 M0 0 C-7.73 0, -15.46 0, -24.98 0" stroke="#E1E1E1" stroke-width="4" fill="none"></path></g></g><mask></mask><g stroke-linecap="round"><g transform="translate(194.16290583785286 55.04538236462764) rotate(320.18599994520247 -10.427493950892568 0)"><path d="M0 0 C-4.54 0, -9.08 0, -20.85 0 M0 0 C-5.88 0, -11.76 0, -20.85 0" stroke="#E1E1E1" stroke-width="4" fill="none"></path></g></g><mask></mask><g stroke-linecap="round"><g transform="translate(185.22503903969448 28.042660470979627) rotate(320.18599994520247 8.989212282947676 8.989212282947662)"><path d="M0 0 C5.83 5.83, 11.66 11.66, 17.98 17.98 M0 0 C5.09 5.09, 10.18 10.18, 17.98 17.98" stroke="#E1E1E1" stroke-width="4" fill="none"></path></g></g><mask></mask><g stroke-linecap="round" transform="translate(10 249.96740691871923) rotate(320.18599994520247 26.184667327850576 26.184667327850587)"><path d="M52.37 26.18 C52.37 27.7, 52.23 29.24, 51.97 30.73 C51.71 32.22, 51.31 33.72, 50.79 35.14 C50.27 36.56, 49.62 37.96, 48.86 39.28 C48.1 40.59, 47.22 41.85, 46.24 43.02 C45.27 44.18, 44.18 45.27, 43.02 46.24 C41.85 47.22, 40.59 48.1, 39.28 48.86 C37.96 49.62, 36.56 50.27, 35.14 50.79 C33.72 51.31, 32.22 51.71, 30.73 51.97 C29.24 52.23, 27.7 52.37, 26.18 52.37 C24.67 52.37, 23.13 52.23, 21.64 51.97 C20.15 51.71, 18.65 51.31, 17.23 50.79 C15.8 50.27, 14.4 49.62, 13.09 48.86 C11.78 48.1, 10.51 47.22, 9.35 46.24 C8.19 45.27, 7.1 44.18, 6.13 43.02 C5.15 41.85, 4.27 40.59, 3.51 39.28 C2.75 37.96, 2.1 36.56, 1.58 35.14 C1.06 33.72, 0.66 32.22, 0.4 30.73 C0.13 29.24, 0 27.7, 0 26.18 C0 24.67, 0.13 23.13, 0.4 21.64 C0.66 20.15, 1.06 18.65, 1.58 17.23 C2.1 15.8, 2.75 14.4, 3.51 13.09 C4.27 11.78, 5.15 10.51, 6.13 9.35 C7.1 8.19, 8.19 7.1, 9.35 6.13 C10.51 5.15, 11.78 4.27, 13.09 3.51 C14.4 2.75, 15.8 2.1, 17.23 1.58 C18.65 1.06, 20.15 0.66, 21.64 0.4 C23.13 0.13, 24.67 0, 26.18 0 C27.7 0, 29.24 0.13, 30.73 0.4 C32.22 0.66, 33.72 1.06, 35.14 1.58 C36.56 2.1, 37.96 2.75, 39.28 3.51 C40.59 4.27, 41.85 5.15, 43.02 6.13 C44.18 7.1, 45.27 8.19, 46.24 9.35 C47.22 10.51, 48.1 11.78, 48.86 13.09 C49.62 14.4, 50.27 15.8, 50.79 17.23 C51.31 18.65, 51.71 20.15, 51.97 21.64 C52.23 23.13, 52.3 25.43, 52.37 26.18 C52.44 26.94, 52.44 25.43, 52.37 26.18" stroke="#E1E1E1" stroke-width="4" fill="none"></path></g><g stroke-linecap="round"><g transform="translate(36.37922625231107 249.76253061838267) rotate(320.18599994520247 0 26.06334300593642)"><path d="M0 0 C0 11.65, 0 23.29, 0 52.13 M0 0 C0 12.82, 0 25.64, 0 52.13" stroke="#E1E1E1" stroke-width="4" fill="none"></path></g></g><mask></mask><g stroke-linecap="round"><g transform="translate(58.7752693152006 267.12456373170835) rotate(320.18599994520247 -12.769876894912102 0)"><path d="M0 0 C-7.69 0, -15.38 0, -25.54 0 M0 0 C-6.64 0, -13.28 0, -25.54 0" stroke="#E1E1E1" stroke-width="4" fill="none"></path></g></g><mask></mask><g stroke-linecap="round"><g transform="translate(27.10852155549935 268.5580996279692) rotate(320.18599994520247 -9.47255503117924 0)"><path d="M0 0 C-5.23 0, -10.46 0, -18.95 0 M0 0 C-4.07 0, -8.13 0, -18.95 0" stroke="#E1E1E1" stroke-width="4" fill="none"></path></g></g><mask></mask><g stroke-linecap="round"><g transform="translate(33.38472624903426 277.0380096799312) rotate(320.18599994520247 -12.338719758142958 0)"><path d="M0 0 C-7.87 0, -15.74 0, -24.68 0 M0 0 C-5.96 0, -11.92 0, -24.68 0" stroke="#E1E1E1" stroke-width="4" fill="none"></path></g></g><mask></mask><g stroke-linecap="round"><g transform="translate(39.870927440560365 284.71015050855647) rotate(320.18599994520247 -13.232037291627563 0)"><path d="M0 0 C-7.05 0, -14.1 0, -26.46 0 M0 0 C-6.09 0, -12.18 0, -26.46 0" stroke="#E1E1E1" stroke-width="4" fill="none"></path></g></g><mask></mask><g stroke-linecap="round"><g transform="translate(44.54548803261588 290.25931737109283) rotate(320.18599994520247 -12.490462421731223 0)"><path d="M0 0 C-7.94 0, -15.87 0, -24.98 0 M0 0 C-9.5 0, -19 0, -24.98 0" stroke="#E1E1E1" stroke-width="4" fill="none"></path></g></g><mask></mask><g stroke-linecap="round"><g transform="translate(49.29108945188085 295.0127892833458) rotate(320.18599994520247 -10.427493950892568 0)"><path d="M0 0 C-4.82 0, -9.65 0, -20.85 0 M0 0 C-5.34 0, -10.69 0, -20.85 0" stroke="#E1E1E1" stroke-width="4" fill="none"></path></g></g><mask></mask><g stroke-linecap="round"><g transform="translate(40.3532226537198 268.0100673896979) rotate(320.18599994520247 8.989212282947676 8.989212282947664)"><path d="M0 0 C3.99 3.99, 7.98 7.98, 17.98 17.98 M0 0 C6.1 6.1, 12.2 12.2, 17.98 17.98" stroke="#E1E1E1" stroke-width="4" fill="none"></path></g></g><mask></mask><g stroke-linecap="round"><g transform="translate(343.07139039499907 79.03590535416544) rotate(22.927270066933467 101.66243642304367 84.13319466725085)"><path d="M0 0 C3.77 0.43, 14.52 0.38, 22.61 2.57 C30.7 4.76, 40.83 8.36, 48.54 13.14 C56.26 17.92, 62.49 24.67, 68.89 31.25 C75.3 37.84, 81.95 44.26, 86.95 52.64 C91.96 61.02, 94.3 71.31, 98.94 81.52 C103.57 91.73, 109.33 104.1, 114.77 113.9 C120.21 123.7, 124.23 132.85, 131.56 140.33 C138.89 147.81, 150.19 154.33, 158.76 158.77 C167.34 163.21, 175.58 165.4, 183.01 166.98 C190.43 168.56, 199.94 168.05, 203.32 168.27 M0 0 C3.77 0.43, 14.52 0.38, 22.61 2.57 C30.7 4.76, 40.83 8.36, 48.54 13.14 C56.26 17.92, 62.49 24.67, 68.89 31.25 C75.3 37.84, 81.95 44.26, 86.95 52.64 C91.96 61.02, 94.3 71.31, 98.94 81.52 C103.57 91.73, 109.33 104.1, 114.77 113.9 C120.21 123.7, 124.23 132.85, 131.56 140.33 C138.89 147.81, 150.19 154.33, 158.76 158.77 C167.34 163.21, 175.58 165.4, 183.01 166.98 C190.43 168.56, 199.94 168.05, 203.32 168.27" stroke="#E1E1E1" stroke-width="4" fill="none"></path></g></g><mask></mask><g stroke-linecap="round" transform="translate(504.3591157335521 265.71233420351246) rotate(292.9272700669335 24.819192066410213 24.819192066410213)"><path d="M49.64 24.82 C49.64 26.26, 49.51 27.71, 49.26 29.13 C49.01 30.54, 48.63 31.96, 48.14 33.31 C47.65 34.66, 47.03 35.98, 46.31 37.23 C45.59 38.47, 44.76 39.67, 43.83 40.77 C42.91 41.87, 41.87 42.91, 40.77 43.83 C39.67 44.76, 38.47 45.59, 37.23 46.31 C35.98 47.03, 34.66 47.65, 33.31 48.14 C31.96 48.63, 30.54 49.01, 29.13 49.26 C27.71 49.51, 26.26 49.64, 24.82 49.64 C23.38 49.64, 21.92 49.51, 20.51 49.26 C19.09 49.01, 17.68 48.63, 16.33 48.14 C14.98 47.65, 13.65 47.03, 12.41 46.31 C11.17 45.59, 9.97 44.76, 8.87 43.83 C7.77 42.91, 6.73 41.87, 5.81 40.77 C4.88 39.67, 4.04 38.47, 3.33 37.23 C2.61 35.98, 1.99 34.66, 1.5 33.31 C1.01 31.96, 0.63 30.54, 0.38 29.13 C0.13 27.71, 0 26.26, 0 24.82 C0 23.38, 0.13 21.92, 0.38 20.51 C0.63 19.09, 1.01 17.68, 1.5 16.33 C1.99 14.98, 2.61 13.65, 3.33 12.41 C4.04 11.17, 4.88 9.97, 5.81 8.87 C6.73 7.77, 7.77 6.73, 8.87 5.81 C9.97 4.88, 11.17 4.04, 12.41 3.33 C13.65 2.61, 14.98 1.99, 16.33 1.5 C17.68 1.01, 19.09 0.63, 20.51 0.38 C21.92 0.13, 23.38 0, 24.82 0 C26.26 0, 27.71 0.13, 29.13 0.38 C30.54 0.63, 31.96 1.01, 33.31 1.5 C34.66 1.99, 35.98 2.61, 37.23 3.33 C38.47 4.04, 39.67 4.88, 40.77 5.81 C41.87 6.73, 42.91 7.77, 43.83 8.87 C44.76 9.97, 45.59 11.17, 46.31 12.41 C47.03 13.65, 47.65 14.98, 48.14 16.33 C48.63 17.68, 49.01 19.09, 49.26 20.51 C49.51 21.92, 49.58 24.1, 49.64 24.82 C49.7 25.54, 49.7 24.1, 49.64 24.82" stroke="#E1E1E1" stroke-width="4" fill="none"></path></g><g stroke-linecap="round"><g transform="translate(529.2006294362957 265.468015207908) rotate(292.9272700669335 0 24.704194552398945)"><path d="M0 0 C0 14.17, 0 28.34, 0 49.41 M0 0 C0 10.59, 0 21.18, 0 49.41" stroke="#E1E1E1" stroke-width="4" fill="none"></path></g></g><mask></mask><g stroke-linecap="round"><g transform="translate(545.6380442106353 278.6616067962242) rotate(292.9272700669335 -12.103954705666052 0)"><path d="M0 0 C-6.14 0, -12.27 0, -24.21 0 M0 0 C-5.78 0, -11.56 0, -24.21 0" stroke="#E1E1E1" stroke-width="4" fill="none"></path></g></g><mask></mask><g stroke-linecap="round"><g transform="translate(519.2311921626876 292.1853717356757) rotate(292.9272700669335 -8.97858123362214 0)"><path d="M0 0 C-3.73 0, -7.47 0, -17.96 0 M0 0 C-7.03 0, -14.07 0, -17.96 0" stroke="#E1E1E1" stroke-width="4" fill="none"></path></g></g><mask></mask><g stroke-linecap="round"><g transform="translate(528.5025023195711 297.85008044016456) rotate(292.9272700669335 -11.695281505648165 0)"><path d="M0 0 C-7.9 0, -15.79 0, -23.39 0 M0 0 C-6.38 0, -12.77 0, -23.39 0" stroke="#E1E1E1" stroke-width="4" fill="none"></path></g></g><mask></mask><g stroke-linecap="round"><g transform="translate(537.3924158313387 301.88654303716703) rotate(292.9272700669335 -12.54201441091079 0)"><path d="M0 0 C-9.14 0, -18.27 0, -25.08 0 M0 0 C-6.79 0, -13.57 0, -25.08 0" stroke="#E1E1E1" stroke-width="4" fill="none"></path></g></g><mask></mask><g stroke-linecap="round"><g transform="translate(543.662130388653 304.21093848988613) rotate(292.9272700669335 -11.839111108870194 0)"><path d="M0 0 C-5.71 0, -11.42 0, -23.68 0 M0 0 C-7.46 0, -14.92 0, -23.68 0" stroke="#E1E1E1" stroke-width="4" fill="none"></path></g></g><mask></mask><g stroke-linecap="round"><g transform="translate(549.5071802636409 305.26039803746716) rotate(292.9272700669335 -9.883722099584057 0)"><path d="M0 0 C-6.91 0, -13.83 0, -19.77 0 M0 0 C-6.57 0, -13.13 0, -19.77 0" stroke="#E1E1E1" stroke-width="4" fill="none"></path></g></g><mask></mask><g stroke-linecap="round"><g transform="translate(532.1122689334605 277.0128121153532) rotate(292.9272700669335 8.520443791887054 8.520443791887041)"><path d="M0 0 C6.76 6.76, 13.51 13.51, 17.04 17.04 M0 0 C6.74 6.74, 13.49 13.49, 17.04 17.04" stroke="#E1E1E1" stroke-width="4" fill="none"></path></g></g><mask></mask><g stroke-linecap="round" transform="translate(335.85658174843866 13.530514536461851) rotate(177.59713659203527 24.81919206641021 24.81919206641021)"><path d="M49.64 24.82 C49.64 26.26, 49.51 27.71, 49.26 29.13 C49.01 30.54, 48.63 31.96, 48.14 33.31 C47.65 34.66, 47.03 35.98, 46.31 37.23 C45.59 38.47, 44.76 39.67, 43.83 40.77 C42.91 41.87, 41.87 42.91, 40.77 43.83 C39.67 44.76, 38.47 45.59, 37.23 46.31 C35.98 47.03, 34.66 47.65, 33.31 48.14 C31.96 48.63, 30.54 49.01, 29.13 49.26 C27.71 49.51, 26.26 49.64, 24.82 49.64 C23.38 49.64, 21.92 49.51, 20.51 49.26 C19.09 49.01, 17.68 48.63, 16.33 48.14 C14.98 47.65, 13.65 47.03, 12.41 46.31 C11.17 45.59, 9.97 44.76, 8.87 43.83 C7.77 42.91, 6.73 41.87, 5.81 40.77 C4.88 39.67, 4.04 38.47, 3.33 37.23 C2.61 35.98, 1.99 34.66, 1.5 33.31 C1.01 31.96, 0.63 30.54, 0.38 29.13 C0.13 27.71, 0 26.26, 0 24.82 C0 23.38, 0.13 21.92, 0.38 20.51 C0.63 19.09, 1.01 17.68, 1.5 16.33 C1.99 14.98, 2.61 13.65, 3.33 12.41 C4.04 11.17, 4.88 9.97, 5.81 8.87 C6.73 7.77, 7.77 6.73, 8.87 5.81 C9.97 4.88, 11.17 4.04, 12.41 3.33 C13.65 2.61, 14.98 1.99, 16.33 1.5 C17.68 1.01, 19.09 0.63, 20.51 0.38 C21.92 0.13, 23.38 0, 24.82 0 C26.26 0, 27.71 0.13, 29.13 0.38 C30.54 0.63, 31.96 1.01, 33.31 1.5 C34.66 1.99, 35.98 2.61, 37.23 3.33 C38.47 4.04, 39.67 4.88, 40.77 5.81 C41.87 6.73, 42.91 7.77, 43.83 8.87 C44.76 9.97, 45.59 11.17, 46.31 12.41 C47.03 13.65, 47.65 14.98, 48.14 16.33 C48.63 17.68, 49.01 19.09, 49.26 20.51 C49.51 21.92, 49.58 24.1, 49.64 24.82 C49.7 25.54, 49.7 24.1, 49.64 24.82" stroke="#E1E1E1" stroke-width="4" fill="none"></path></g><g stroke-linecap="round"><g transform="translate(360.3414528944243 13.779064031725) rotate(177.59713659203527 0 24.704194552398945)"><path d="M0 0 C0 11.75, 0 23.5, 0 49.41 M0 0 C0 15.74, 0 31.49, 0 49.41" stroke="#E1E1E1" stroke-width="4" fill="none"></path></g></g><mask></mask><g stroke-linecap="round"><g transform="translate(360.1874624171459 39.49104658540193) rotate(177.59713659203527 -12.103954705666055 0)"><path d="M0 0 C-8.3 0, -16.59 0, -24.21 0 M0 0 C-5.95 0, -11.9 0, -24.21 0" stroke="#E1E1E1" stroke-width="4" fill="none"></path></g></g><mask></mask><g stroke-linecap="round"><g transform="translate(379.2462390487321 54.74827264381241) rotate(177.59713659203527 -8.978581233622137 0)"><path d="M0 0 C-5.4 0, -10.79 0, -17.96 0 M0 0 C-6.49 0, -12.98 0, -17.96 0" stroke="#E1E1E1" stroke-width="4" fill="none"></path></g></g><mask></mask><g stroke-linecap="round"><g transform="translate(384.2787494119821 46.40028731376299) rotate(177.59713659203527 -11.695281505648168 0)"><path d="M0 0 C-9.27 0, -18.54 0, -23.39 0 M0 0 C-6.5 0, -12.99 0, -23.39 0" stroke="#E1E1E1" stroke-width="4" fill="none"></path></g></g><mask></mask><g stroke-linecap="round"><g transform="translate(385.33272957903654 37.403463811083554) rotate(177.59713659203527 -12.542014410910795 0)"><path d="M0 0 C-8.07 0, -16.14 0, -25.08 0 M0 0 C-9.4 0, -18.79 0, -25.08 0" stroke="#E1E1E1" stroke-width="4" fill="none"></path></g></g><mask></mask><g stroke-linecap="round"><g transform="translate(383.7476309063591 30.106755967045956) rotate(177.59713659203527 -11.839111108870199 0)"><path d="M0 0 C-8.79 0, -17.58 0, -23.68 0 M0 0 C-5.96 0, -11.93 0, -23.68 0" stroke="#E1E1E1" stroke-width="4" fill="none"></path></g></g><mask></mask><g stroke-linecap="round"><g transform="translate(379.40351654610976 22.60727576326269) rotate(177.59713659203527 -9.883722099584062 0)"><path d="M0 0 C-6.72 0, -13.44 0, -19.77 0 M0 0 C-5.59 0, -11.17 0, -19.77 0" stroke="#E1E1E1" stroke-width="4" fill="none"></path></g></g><mask></mask><g stroke-linecap="round"><g transform="translate(342.7370293350183 21.61453755905285) rotate(177.59713659203527 8.520443791887061 8.520443791887047)"><path d="M0 0 C5.44 5.44, 10.89 10.89, 17.04 17.04 M0 0 C4.54 4.54, 9.09 9.09, 17.04 17.04" stroke="#E1E1E1" stroke-width="4" fill="none"></path></g></g><mask></mask><g stroke-linecap="round"><g transform="translate(164.97003626370434 484.07766107372214) rotate(21.48877061214096 107.61299232424616 -46.071553463867644)"><path d="M0 0 C4.59 -0.49, 16.71 -0.23, 27.55 -2.94 C38.39 -5.64, 54.08 -10.66, 65.04 -16.25 C76 -21.85, 84.58 -29.55, 93.31 -36.5 C102.05 -43.45, 108.91 -51.4, 117.45 -57.93 C125.99 -64.47, 134.4 -70.72, 144.55 -75.71 C154.71 -80.7, 167.98 -85.16, 178.38 -87.88 C188.79 -90.59, 200.83 -91.3, 206.97 -92.01 C213.11 -92.72, 213.85 -92.12, 215.23 -92.14 M0 0 C4.59 -0.49, 16.71 -0.23, 27.55 -2.94 C38.39 -5.64, 54.08 -10.66, 65.04 -16.25 C76 -21.85, 84.58 -29.55, 93.31 -36.5 C102.05 -43.45, 108.91 -51.4, 117.45 -57.93 C125.99 -64.47, 134.4 -70.72, 144.55 -75.71 C154.71 -80.7, 167.98 -85.16, 178.38 -87.88 C188.79 -90.59, 200.83 -91.3, 206.97 -92.01 C213.11 -92.72, 213.85 -92.12, 215.23 -92.14" stroke="#E1E1E1" stroke-width="4" fill="none"></path></g></g><mask></mask><g stroke-linecap="round" transform="translate(387.305709001165 418.3597251430235) rotate(157.3521790775842 26.69051110617707 26.69051110617707)"><path d="M53.38 26.69 C53.38 28.24, 53.24 29.8, 52.98 31.33 C52.71 32.85, 52.3 34.37, 51.77 35.82 C51.24 37.27, 50.58 38.7, 49.81 40.04 C49.03 41.37, 48.13 42.66, 47.14 43.85 C46.14 45.03, 45.03 46.14, 43.85 47.14 C42.66 48.13, 41.37 49.03, 40.04 49.81 C38.7 50.58, 37.27 51.24, 35.82 51.77 C34.37 52.3, 32.85 52.71, 31.33 52.98 C29.8 53.24, 28.24 53.38, 26.69 53.38 C25.15 53.38, 23.58 53.24, 22.06 52.98 C20.53 52.71, 19.01 52.3, 17.56 51.77 C16.11 51.24, 14.68 50.58, 13.35 49.81 C12.01 49.03, 10.72 48.13, 9.53 47.14 C8.35 46.14, 7.24 45.03, 6.24 43.85 C5.25 42.66, 4.35 41.37, 3.58 40.04 C2.8 38.7, 2.14 37.27, 1.61 35.82 C1.08 34.37, 0.67 32.85, 0.41 31.33 C0.14 29.8, 0 28.24, 0 26.69 C0 25.15, 0.14 23.58, 0.41 22.06 C0.67 20.53, 1.08 19.01, 1.61 17.56 C2.14 16.11, 2.8 14.68, 3.58 13.35 C4.35 12.01, 5.25 10.72, 6.24 9.53 C7.24 8.35, 8.35 7.24, 9.53 6.24 C10.72 5.25, 12.01 4.35, 13.35 3.58 C14.68 2.8, 16.11 2.14, 17.56 1.61 C19.01 1.08, 20.53 0.67, 22.06 0.41 C23.58 0.14, 25.15 0, 26.69 0 C28.24 0, 29.8 0.14, 31.33 0.41 C32.85 0.67, 34.37 1.08, 35.82 1.61 C37.27 2.14, 38.7 2.8, 40.04 3.58 C41.37 4.35, 42.66 5.25, 43.85 6.24 C45.03 7.24, 46.14 8.35, 47.14 9.53 C48.13 10.72, 49.03 12.01, 49.81 13.35 C50.58 14.68, 51.24 16.11, 51.77 17.56 C52.3 19.01, 52.71 20.53, 52.98 22.06 C53.24 23.58, 53.31 25.92, 53.38 26.69 C53.45 27.46, 53.45 25.92, 53.38 26.69" stroke="#E1E1E1" stroke-width="4" fill="none"></path></g><g stroke-linecap="round"><g transform="translate(413.70860104281496 418.74255121946084) rotate(157.3521790775842 0 26.566843002207875)"><path d="M0 0 C0 12.23, 0 24.45, 0 53.13 M0 0 C0 13.13, 0 26.26, 0 53.13" stroke="#E1E1E1" stroke-width="4" fill="none"></path></g></g><mask></mask><g stroke-linecap="round"><g transform="translate(414.7323937627534 450.88769953842916) rotate(157.3521790775842 -13.016569461077168 0)"><path d="M0 0 C-5.24 0, -10.47 0, -26.03 0 M0 0 C-5.97 0, -11.94 0, -26.03 0" stroke="#E1E1E1" stroke-width="4" fill="none"></path></g></g><mask></mask><g stroke-linecap="round"><g transform="translate(439.43192789903503 458.02638651941476) rotate(157.3521790775842 -9.655548878967444 0)"><path d="M0 0 C-7.48 0, -14.95 0, -19.31 0 M0 0 C-4.24 0, -8.47 0, -19.31 0" stroke="#E1E1E1" stroke-width="4" fill="none"></path></g></g><mask></mask><g stroke-linecap="round"><g transform="translate(441.58353374243285 448.7418169670875) rotate(157.3521790775842 -12.577083092838919 0)"><path d="M0 0 C-9.97 0, -19.94 0, -25.15 0 M0 0 C-7.33 0, -14.66 0, -25.15 0" stroke="#E1E1E1" stroke-width="4" fill="none"></path></g></g><mask></mask><g stroke-linecap="round"><g transform="translate(439.35527195275716 439.58724297805384) rotate(157.3521790775842 -13.487658020153482 0)"><path d="M0 0 C-8.41 0, -16.81 0, -26.98 0 M0 0 C-8.57 0, -17.14 0, -26.98 0" stroke="#E1E1E1" stroke-width="4" fill="none"></path></g></g><mask></mask><g stroke-linecap="round"><g transform="translate(434.9939835064543 432.55342955625287) rotate(157.3521790775842 -12.731757169735644 0)"><path d="M0 0 C-7.34 0, -14.67 0, -25.46 0 M0 0 C-5.66 0, -11.32 0, -25.46 0" stroke="#E1E1E1" stroke-width="4" fill="none"></path></g></g><mask></mask><g stroke-linecap="round"><g transform="translate(427.6902863754636 425.87564374367344) rotate(157.3521790775842 -10.628935614158848 0)"><path d="M0 0 C-5.31 0, -10.62 0, -21.26 0 M0 0 C-7.09 0, -14.18 0, -21.26 0" stroke="#E1E1E1" stroke-width="4" fill="none"></path></g></g><mask></mask><g stroke-linecap="round"><g transform="translate(392.2737416461594 431.103806115186) rotate(157.3521790775842 9.162868760933506 9.162868760933492)"><path d="M0 0 C5.25 5.25, 10.49 10.49, 18.33 18.33 M0 0 C4.36 4.36, 8.71 8.71, 18.33 18.33" stroke="#E1E1E1" stroke-width="4" fill="none"></path></g></g><mask></mask><g stroke-linecap="round" transform="translate(104.98150850602906 405.64610206936896) rotate(202.9415981809214 26.69051110617707 26.69051110617707)"><path d="M53.38 26.69 C53.38 28.24, 53.24 29.8, 52.98 31.33 C52.71 32.85, 52.3 34.37, 51.77 35.82 C51.24 37.27, 50.58 38.7, 49.81 40.04 C49.03 41.37, 48.13 42.66, 47.14 43.85 C46.14 45.03, 45.03 46.14, 43.85 47.14 C42.66 48.13, 41.37 49.03, 40.04 49.81 C38.7 50.58, 37.27 51.24, 35.82 51.77 C34.37 52.3, 32.85 52.71, 31.33 52.98 C29.8 53.24, 28.24 53.38, 26.69 53.38 C25.15 53.38, 23.58 53.24, 22.06 52.98 C20.53 52.71, 19.01 52.3, 17.56 51.77 C16.11 51.24, 14.68 50.58, 13.35 49.81 C12.01 49.03, 10.72 48.13, 9.53 47.14 C8.35 46.14, 7.24 45.03, 6.24 43.85 C5.25 42.66, 4.35 41.37, 3.58 40.04 C2.8 38.7, 2.14 37.27, 1.61 35.82 C1.08 34.37, 0.67 32.85, 0.41 31.33 C0.14 29.8, 0 28.24, 0 26.69 C0 25.15, 0.14 23.58, 0.41 22.06 C0.67 20.53, 1.08 19.01, 1.61 17.56 C2.14 16.11, 2.8 14.68, 3.58 13.35 C4.35 12.01, 5.25 10.72, 6.24 9.53 C7.24 8.35, 8.35 7.24, 9.53 6.24 C10.72 5.25, 12.01 4.35, 13.35 3.58 C14.68 2.8, 16.11 2.14, 17.56 1.61 C19.01 1.08, 20.53 0.67, 22.06 0.41 C23.58 0.14, 25.15 0, 26.69 0 C28.24 0, 29.8 0.14, 31.33 0.41 C32.85 0.67, 34.37 1.08, 35.82 1.61 C37.27 2.14, 38.7 2.8, 40.04 3.58 C41.37 4.35, 42.66 5.25, 43.85 6.24 C45.03 7.24, 46.14 8.35, 47.14 9.53 C48.13 10.72, 49.03 12.01, 49.81 13.35 C50.58 14.68, 51.24 16.11, 51.77 17.56 C52.3 19.01, 52.71 20.53, 52.98 22.06 C53.24 23.58, 53.31 25.92, 53.38 26.69 C53.45 27.46, 53.45 25.92, 53.38 26.69" stroke="#E1E1E1" stroke-width="4" fill="none"></path></g><g stroke-linecap="round"><g transform="translate(131.28561734827997 405.7456688993962) rotate(202.9415981809214 0 26.566843002207875)"><path d="M0 0 C0 13.39, 0 26.78, 0 53.13 M0 0 C0 14.71, 0 29.43, 0 53.13" stroke="#E1E1E1" stroke-width="4" fill="none"></path></g></g><mask></mask><g stroke-linecap="round"><g transform="translate(131.92487243741743 427.6492219569445) rotate(202.9415981809214 -13.016569461077182 0)"><path d="M0 0 C-9.4 0, -18.8 0, -26.03 0 M0 0 C-9.14 0, -18.27 0, -26.03 0" stroke="#E1E1E1" stroke-width="4" fill="none"></path></g></g><mask></mask><g stroke-linecap="round"><g transform="translate(143.10102100276828 452.6897150849647) rotate(202.9415981809214 -9.655548878967437 0)"><path d="M0 0 C-7.69 0, -15.38 0, -19.31 0 M0 0 C-5.84 0, -11.67 0, -19.31 0" stroke="#E1E1E1" stroke-width="4" fill="none"></path></g></g><mask></mask><g stroke-linecap="round"><g transform="translate(152.1161345184815 445.642423920278) rotate(202.9415981809214 -12.577083092838933 0)"><path d="M0 0 C-8.43 0, -16.86 0, -25.15 0 M0 0 C-7.61 0, -15.22 0, -25.15 0" stroke="#E1E1E1" stroke-width="4" fill="none"></path></g></g><mask></mask><g stroke-linecap="round"><g transform="translate(157.3696764081543 436.99388885239193) rotate(202.9415981809214 -13.487658020153475 0)"><path d="M0 0 C-10.51 0, -21.02 0, -26.98 0 M0 0 C-10.78 0, -21.56 0, -26.98 0" stroke="#E1E1E1" stroke-width="4" fill="none"></path></g></g><mask></mask><g stroke-linecap="round"><g transform="translate(159.11530098067874 429.4961744321386) rotate(202.9415981809214 -12.731757169735658 0)"><path d="M0 0 C-8.26 0, -16.51 0, -25.46 0 M0 0 C-6.92 0, -13.83 0, -25.46 0" stroke="#E1E1E1" stroke-width="4" fill="none"></path></g></g><mask></mask><g stroke-linecap="round"><g transform="translate(158.14316391045088 421.1078800462582) rotate(202.9415981809214 -10.628935614158848 0)"><path d="M0 0 C-5.14 0, -10.28 0, -21.26 0 M0 0 C-5.92 0, -11.85 0, -21.26 0" stroke="#E1E1E1" stroke-width="4" fill="none"></path></g></g><mask></mask><g stroke-linecap="round"><g transform="translate(117.13710115387926 410.85435574141235) rotate(202.9415981809214 9.16286876093352 9.162868760933492)"><path d="M0 0 C5.18 5.18, 10.37 10.37, 18.33 18.33 M0 0 C3.98 3.98, 7.96 7.96, 18.33 18.33" stroke="#E1E1E1" stroke-width="4" fill="none"></path></g></g><mask></mask><g stroke-linecap="round" transform="translate(222.55010641644492 47.53967474349656) rotate(12.752110603380757 47.09838463371557 47.09838463371557)"><path d="M94.2 47.1 C94.2 49.33, 94.04 51.59, 93.72 53.8 C93.4 56.01, 92.92 58.22, 92.29 60.37 C91.66 62.51, 90.87 64.63, 89.94 66.66 C89.01 68.7, 87.93 70.68, 86.72 72.56 C85.51 74.44, 84.16 76.25, 82.69 77.94 C81.23 79.63, 79.63 81.23, 77.94 82.69 C76.25 84.16, 74.44 85.51, 72.56 86.72 C70.68 87.93, 68.7 89.01, 66.66 89.94 C64.63 90.87, 62.51 91.66, 60.37 92.29 C58.22 92.92, 56.01 93.4, 53.8 93.72 C51.59 94.04, 49.33 94.2, 47.1 94.2 C44.86 94.2, 42.61 94.04, 40.4 93.72 C38.18 93.4, 35.97 92.92, 33.83 92.29 C31.69 91.66, 29.57 90.87, 27.53 89.94 C25.5 89.01, 23.51 87.93, 21.64 86.72 C19.76 85.51, 17.94 84.16, 16.26 82.69 C14.57 81.23, 12.97 79.63, 11.5 77.94 C10.04 76.25, 8.68 74.44, 7.48 72.56 C6.27 70.68, 5.18 68.7, 4.26 66.66 C3.33 64.63, 2.54 62.51, 1.91 60.37 C1.28 58.22, 0.8 56.01, 0.48 53.8 C0.16 51.59, 0 49.33, 0 47.1 C0 44.86, 0.16 42.61, 0.48 40.4 C0.8 38.18, 1.28 35.97, 1.91 33.83 C2.54 31.69, 3.33 29.57, 4.26 27.53 C5.18 25.5, 6.27 23.51, 7.48 21.64 C8.68 19.76, 10.04 17.94, 11.5 16.26 C12.97 14.57, 14.57 12.97, 16.26 11.5 C17.94 10.04, 19.76 8.68, 21.64 7.48 C23.51 6.27, 25.5 5.18, 27.53 4.26 C29.57 3.33, 31.69 2.54, 33.83 1.91 C35.97 1.28, 38.18 0.8, 40.4 0.48 C42.61 0.16, 44.86 0, 47.1 0 C49.33 0, 51.59 0.16, 53.8 0.48 C56.01 0.8, 58.22 1.28, 60.37 1.91 C62.51 2.54, 64.63 3.33, 66.66 4.26 C68.7 5.18, 70.68 6.27, 72.56 7.48 C74.44 8.68, 76.25 10.04, 77.94 11.5 C79.63 12.97, 81.23 14.57, 82.69 16.26 C84.16 17.94, 85.51 19.76, 86.72 21.64 C87.93 23.51, 89.01 25.5, 89.94 27.53 C90.87 29.57, 91.66 31.69, 92.29 33.83 C92.92 35.97, 93.4 38.18, 93.72 40.4 C94.04 42.61, 94.12 45.98, 94.2 47.1 C94.28 48.22, 94.28 45.98, 94.2 47.1" stroke="#E1E1E1" stroke-width="4" fill="none"></path></g><g stroke-linecap="round"><g transform="translate(270.3271104995737 47.679137441975286) rotate(12.752110603380757 0 46.88015846695191)"><path d="M0 0 C0 34.4, 0 68.8, 0 93.76 M0 0 C0 25.4, 0 50.79, 0 93.76" stroke="#E1E1E1" stroke-width="4" fill="none"></path></g></g><mask></mask><g stroke-linecap="round"><g transform="translate(316.24870062464004 98.79461514293598) rotate(12.752110603380757 -22.969189036901057 0)"><path d="M0 0 C-16.11 0, -32.23 0, -45.94 0 M0 0 C-15.44 0, -30.88 0, -45.94 0" stroke="#E1E1E1" stroke-width="4" fill="none"></path></g></g><mask></mask><g stroke-linecap="round"><g transform="translate(277.2531176041423 59.84280735350188) rotate(12.752110603380757 -17.03829323995234 0)"><path d="M0 0 C-7.96 0, -15.93 0, -34.08 0 M0 0 C-8.13 0, -16.25 0, -34.08 0" stroke="#E1E1E1" stroke-width="4" fill="none"></path></g></g><mask></mask><g stroke-linecap="round"><g transform="translate(274.0252150800525 73.98461867763314) rotate(12.752110603380757 -22.1936663078601 0)"><path d="M0 0 C-13.2 0, -26.4 0, -44.39 0 M0 0 C-15.55 0, -31.11 0, -44.39 0" stroke="#E1E1E1" stroke-width="4" fill="none"></path></g></g><mask></mask><g stroke-linecap="round"><g transform="translate(270.78903520052125 90.36095517565832) rotate(12.752110603380757 -23.800477357445203 0)"><path d="M0 0 C-16.29 0, -32.58 0, -47.6 0 M0 0 C-14.22 0, -28.45 0, -47.6 0" stroke="#E1E1E1" stroke-width="4" fill="none"></path></g></g><mask></mask><g stroke-linecap="round"><g transform="translate(267.4511038237391 104.16373157427631) rotate(12.752110603380757 -22.46660597310546 0)"><path d="M0 0 C-12.78 0, -25.56 0, -44.93 0 M0 0 C-9.81 0, -19.62 0, -44.93 0" stroke="#E1E1E1" stroke-width="4" fill="none"></path></g></g><mask></mask><g stroke-linecap="round"><g transform="translate(264.3952398591533 119.08531819730143) rotate(12.752110603380757 -18.755942732276637 0)"><path d="M0 0 C-9.49 0, -18.97 0, -37.51 0 M0 0 C-11.42 0, -22.83 0, -37.51 0" stroke="#E1E1E1" stroke-width="4" fill="none"></path></g></g><mask></mask><g stroke-linecap="round"><g transform="translate(266.65536489293726 98.18824889359252) rotate(12.752110603380757 16.168904204716654 16.168904204716625)"><path d="M0 0 C12.48 12.48, 24.96 24.96, 32.34 32.34 M0 0 C8.61 8.61, 17.22 17.22, 32.34 32.34" stroke="#E1E1E1" stroke-width="4" fill="none"></path></g></g><mask></mask><g stroke-linecap="round"><g transform="translate(296.01944348499825 135.04255369969286) rotate(0 30.526881275540703 52.810921984271815)"><path d="M0 0 C5.73 10.02, 24.18 42.53, 34.35 60.14 C44.53 77.74, 56.6 98.04, 61.05 105.62 M0 0 C5.73 10.02, 24.18 42.53, 34.35 60.14 C44.53 77.74, 56.6 98.04, 61.05 105.62" stroke="#E1E1E1" stroke-width="4" fill="none"></path></g></g><mask></mask><g stroke-linecap="round"><g transform="translate(368.30413963687903 165.6408695492919) rotate(0 -5.574429917430464 37.404358884293835)"><path d="M0 0 C-1.86 12.47, -9.29 62.34, -11.15 74.81 M0 0 C-1.86 12.47, -9.29 62.34, -11.15 74.81" stroke="#E1E1E1" stroke-width="4" fill="none"></path></g></g><mask></mask><g stroke-linecap="round"><g transform="translate(285.6953743350045 213.78270618238219) rotate(0 35.55364612519426 13.4616174985043)"><path d="M0 0 C11.85 4.49, 59.26 22.44, 71.11 26.92 M0 0 C11.85 4.49, 59.26 22.44, 71.11 26.92" stroke="#E1E1E1" stroke-width="4" fill="none"></path></g></g><mask></mask><g stroke-linecap="round" transform="translate(366.04426738769524 291.0356377878759) rotate(270.5272678210354 47.09838463371557 47.09838463371557)"><path d="M94.2 47.1 C94.2 49.33, 94.04 51.59, 93.72 53.8 C93.4 56.01, 92.92 58.22, 92.29 60.37 C91.66 62.51, 90.87 64.63, 89.94 66.66 C89.01 68.7, 87.93 70.68, 86.72 72.56 C85.51 74.44, 84.16 76.25, 82.69 77.94 C81.23 79.63, 79.63 81.23, 77.94 82.69 C76.25 84.16, 74.44 85.51, 72.56 86.72 C70.68 87.93, 68.7 89.01, 66.66 89.94 C64.63 90.87, 62.51 91.66, 60.37 92.29 C58.22 92.92, 56.01 93.4, 53.8 93.72 C51.59 94.04, 49.33 94.2, 47.1 94.2 C44.86 94.2, 42.61 94.04, 40.4 93.72 C38.18 93.4, 35.97 92.92, 33.83 92.29 C31.69 91.66, 29.57 90.87, 27.53 89.94 C25.5 89.01, 23.51 87.93, 21.64 86.72 C19.76 85.51, 17.94 84.16, 16.26 82.69 C14.57 81.23, 12.97 79.63, 11.5 77.94 C10.04 76.25, 8.68 74.44, 7.48 72.56 C6.27 70.68, 5.18 68.7, 4.26 66.66 C3.33 64.63, 2.54 62.51, 1.91 60.37 C1.28 58.22, 0.8 56.01, 0.48 53.8 C0.16 51.59, 0 49.33, 0 47.1 C0 44.86, 0.16 42.61, 0.48 40.4 C0.8 38.18, 1.28 35.97, 1.91 33.83 C2.54 31.69, 3.33 29.57, 4.26 27.53 C5.18 25.5, 6.27 23.51, 7.48 21.64 C8.68 19.76, 10.04 17.94, 11.5 16.26 C12.97 14.57, 14.57 12.97, 16.26 11.5 C17.94 10.04, 19.76 8.68, 21.64 7.48 C23.51 6.27, 25.5 5.18, 27.53 4.26 C29.57 3.33, 31.69 2.54, 33.83 1.91 C35.97 1.28, 38.18 0.8, 40.4 0.48 C42.61 0.16, 44.86 0, 47.1 0 C49.33 0, 51.59 0.16, 53.8 0.48 C56.01 0.8, 58.22 1.28, 60.37 1.91 C62.51 2.54, 64.63 3.33, 66.66 4.26 C68.7 5.18, 70.68 6.27, 72.56 7.48 C74.44 8.68, 76.25 10.04, 77.94 11.5 C79.63 12.97, 81.23 14.57, 82.69 16.26 C84.16 17.94, 85.51 19.76, 86.72 21.64 C87.93 23.51, 89.01 25.5, 89.94 27.53 C90.87 29.57, 91.66 31.69, 92.29 33.83 C92.92 35.97, 93.4 38.18, 93.72 40.4 C94.04 42.61, 94.12 45.98, 94.2 47.1 C94.28 48.22, 94.28 45.98, 94.2 47.1" stroke="#E1E1E1" stroke-width="4" fill="none"></path></g><g stroke-linecap="round"><g transform="translate(412.92197787996105 290.60731081347353) rotate(270.5272678210354 0 46.88015846695191)"><path d="M0 0 C0 21.3, 0 42.6, 0 93.76 M0 0 C0 29.7, 0 59.4, 0 93.76" stroke="#E1E1E1" stroke-width="4" fill="none"></path></g></g><mask></mask><g stroke-linecap="round"><g transform="translate(435.1703086198239 314.15871003262976) rotate(270.5272678210354 -22.969189036901057 0)"><path d="M0 0 C-17.81 0, -35.62 0, -45.94 0 M0 0 C-14.16 0, -28.32 0, -45.94 0" stroke="#E1E1E1" stroke-width="4" fill="none"></path></g></g><mask></mask><g stroke-linecap="round"><g transform="translate(398.17226975902014 354.7216178808824) rotate(270.5272678210354 -17.03829323995234 0)"><path d="M0 0 C-9.65 0, -19.31 0, -34.08 0 M0 0 C-13.47 0, -26.93 0, -34.08 0" stroke="#E1E1E1" stroke-width="4" fill="none"></path></g></g><mask></mask><g stroke-linecap="round"><g transform="translate(418.92392354573633 359.9202874144023) rotate(270.5272678210354 -22.193666307860113 0)"><path d="M0 0 C-9.57 0, -19.15 0, -44.39 0 M0 0 C-13.81 0, -27.63 0, -44.39 0" stroke="#E1E1E1" stroke-width="4" fill="none"></path></g></g><mask></mask><g stroke-linecap="round"><g transform="translate(437.5612205605957 361.185793646197) rotate(270.5272678210354 -23.800477357445196 0)"><path d="M0 0 C-17.5 0, -35.01 0, -47.6 0 M0 0 C-13.43 0, -26.86 0, -47.6 0" stroke="#E1E1E1" stroke-width="4" fill="none"></path></g></g><mask></mask><g stroke-linecap="round"><g transform="translate(450.1414930681014 360.221691721865) rotate(270.5272678210354 -22.466605973105445 0)"><path d="M0 0 C-9.01 0, -18.02 0, -44.93 0 M0 0 C-12.53 0, -25.06 0, -44.93 0" stroke="#E1E1E1" stroke-width="4" fill="none"></path></g></g><mask></mask><g stroke-linecap="round"><g transform="translate(460.8754043428404 356.4221158896421) rotate(270.5272678210354 -18.755942732276637 0)"><path d="M0 0 C-13.14 0, -26.28 0, -37.51 0 M0 0 C-13.9 0, -27.8 0, -37.51 0" stroke="#E1E1E1" stroke-width="4" fill="none"></path></g></g><mask></mask><g stroke-linecap="round"><g transform="translate(413.4557426124032 304.91262186319113) rotate(270.5272678210354 16.16890420471666 16.168904204716625)"><path d="M0 0 C7.29 7.29, 14.57 14.57, 32.34 32.34 M0 0 C12.23 12.23, 24.46 24.46, 32.34 32.34" stroke="#E1E1E1" stroke-width="4" fill="none"></path></g></g><mask></mask><g stroke-linecap="round"><g transform="translate(273.7297253316652 283.9698773150493) rotate(119.99999999999997 30.526881275540703 52.810921984271815)"><path d="M0 0 C5.73 10.02, 24.18 42.53, 34.35 60.14 C44.53 77.74, 56.6 98.04, 61.05 105.62 M0 0 C5.73 10.02, 24.18 42.53, 34.35 60.14 C44.53 77.74, 56.6 98.04, 61.05 105.62" stroke="#E1E1E1" stroke-width="4" fill="none"></path></g></g><mask></mask><g stroke-linecap="round"><g transform="translate(278.5829002359984 323.1162946095445) rotate(119.99999999999997 -5.574429917430464 37.40435888429383)"><path d="M0 0 C-1.86 12.47, -9.29 62.34, -11.15 74.81 M0 0 C-1.86 12.47, -9.29 62.34, -11.15 74.81" stroke="#E1E1E1" stroke-width="4" fill="none"></path></g></g><mask></mask><g stroke-linecap="round"><g transform="translate(237.2381375902354 299.036157706686) rotate(119.99999999999997 35.55364612519426 13.4616174985043)"><path d="M0 0 C11.85 4.49, 59.26 22.44, 71.11 26.92 M0 0 C11.85 4.49, 59.26 22.44, 71.11 26.92" stroke="#E1E1E1" stroke-width="4" fill="none"></path></g></g><mask></mask><g stroke-linecap="round" transform="translate(84.34824780137461 284.40135535777506) rotate(30.00748262752546 47.09838463371557 47.09838463371557)"><path d="M94.2 47.1 C94.2 49.33, 94.04 51.59, 93.72 53.8 C93.4 56.01, 92.92 58.22, 92.29 60.37 C91.66 62.51, 90.87 64.63, 89.94 66.66 C89.01 68.7, 87.93 70.68, 86.72 72.56 C85.51 74.44, 84.16 76.25, 82.69 77.94 C81.23 79.63, 79.63 81.23, 77.94 82.69 C76.25 84.16, 74.44 85.51, 72.56 86.72 C70.68 87.93, 68.7 89.01, 66.66 89.94 C64.63 90.87, 62.51 91.66, 60.37 92.29 C58.22 92.92, 56.01 93.4, 53.8 93.72 C51.59 94.04, 49.33 94.2, 47.1 94.2 C44.86 94.2, 42.61 94.04, 40.4 93.72 C38.18 93.4, 35.97 92.92, 33.83 92.29 C31.69 91.66, 29.57 90.87, 27.53 89.94 C25.5 89.01, 23.51 87.93, 21.64 86.72 C19.76 85.51, 17.94 84.16, 16.26 82.69 C14.57 81.23, 12.97 79.63, 11.5 77.94 C10.04 76.25, 8.68 74.44, 7.48 72.56 C6.27 70.68, 5.18 68.7, 4.26 66.66 C3.33 64.63, 2.54 62.51, 1.91 60.37 C1.28 58.22, 0.8 56.01, 0.48 53.8 C0.16 51.59, 0 49.33, 0 47.1 C0 44.86, 0.16 42.61, 0.48 40.4 C0.8 38.18, 1.28 35.97, 1.91 33.83 C2.54 31.69, 3.33 29.57, 4.26 27.53 C5.18 25.5, 6.27 23.51, 7.48 21.64 C8.68 19.76, 10.04 17.94, 11.5 16.26 C12.97 14.57, 14.57 12.97, 16.26 11.5 C17.94 10.04, 19.76 8.68, 21.64 7.48 C23.51 6.27, 25.5 5.18, 27.53 4.26 C29.57 3.33, 31.69 2.54, 33.83 1.91 C35.97 1.28, 38.18 0.8, 40.4 0.48 C42.61 0.16, 44.86 0, 47.1 0 C49.33 0, 51.59 0.16, 53.8 0.48 C56.01 0.8, 58.22 1.28, 60.37 1.91 C62.51 2.54, 64.63 3.33, 66.66 4.26 C68.7 5.18, 70.68 6.27, 72.56 7.48 C74.44 8.68, 76.25 10.04, 77.94 11.5 C79.63 12.97, 81.23 14.57, 82.69 16.26 C84.16 17.94, 85.51 19.76, 86.72 21.64 C87.93 23.51, 89.01 25.5, 89.94 27.53 C90.87 29.57, 91.66 31.69, 92.29 33.83 C92.92 35.97, 93.4 38.18, 93.72 40.4 C94.04 42.61, 94.12 45.98, 94.2 47.1 C94.28 48.22, 94.28 45.98, 94.2 47.1" stroke="#E1E1E1" stroke-width="4" fill="none"></path></g><g stroke-linecap="round"><g transform="translate(132.11807236855617 284.74566267620355) rotate(30.00748262752546 0 46.88015846695191)"><path d="M0 0 C0 19.66, 0 39.32, 0 93.76 M0 0 C0 35.31, 0 70.61, 0 93.76" stroke="#E1E1E1" stroke-width="4" fill="none"></path></g></g><mask></mask><g stroke-linecap="round"><g transform="translate(175.75029649182375 342.4789140546485) rotate(30.00748262752546 -22.969189036901042 0)"><path d="M0 0 C-11.24 0, -22.49 0, -45.94 0 M0 0 C-13.36 0, -26.72 0, -45.94 0" stroke="#E1E1E1" stroke-width="4" fill="none"></path></g></g><mask></mask><g stroke-linecap="round"><g transform="translate(149.79720260486795 295.4722288396662) rotate(30.00748262752546 -17.03829323995234 0)"><path d="M0 0 C-7.33 0, -14.67 0, -34.08 0 M0 0 C-12.6 0, -25.2 0, -34.08 0" stroke="#E1E1E1" stroke-width="4" fill="none"></path></g></g><mask></mask><g stroke-linecap="round"><g transform="translate(142.75171212936777 306.4908070589154) rotate(30.00748262752546 -22.1936663078601 0)"><path d="M0 0 C-17.42 0, -34.84 0, -44.39 0 M0 0 C-15.9 0, -31.81 0, -44.39 0" stroke="#E1E1E1" stroke-width="4" fill="none"></path></g></g><mask></mask><g stroke-linecap="round"><g transform="translate(134.87577395437972 320.6934978384809) rotate(30.00748262752546 -23.800477357445203 0)"><path d="M0 0 C-13.89 0, -27.79 0, -47.6 0 M0 0 C-15.76 0, -31.52 0, -47.6 0" stroke="#E1E1E1" stroke-width="4" fill="none"></path></g></g><mask></mask><g stroke-linecap="round"><g transform="translate(127.53370807058212 333.28057421149873) rotate(30.00748262752546 -22.46660597310546 0)"><path d="M0 0 C-12.11 0, -24.22 0, -44.93 0 M0 0 C-15.51 0, -31.02 0, -44.93 0" stroke="#E1E1E1" stroke-width="4" fill="none"></path></g></g><mask></mask><g stroke-linecap="round"><g transform="translate(120.02216609908209 347.7248059430699) rotate(30.00748262752546 -18.75594273227665 0)"><path d="M0 0 C-8.21 0, -16.42 0, -37.51 0 M0 0 C-14.78 0, -29.56 0, -37.51 0" stroke="#E1E1E1" stroke-width="4" fill="none"></path></g></g><mask></mask><g stroke-linecap="round"><g transform="translate(122.011195885706 338.07076097734523) rotate(30.00748262752546 16.168904204716654 16.168904204716625)"><path d="M0 0 C11.91 11.91, 23.82 23.82, 32.34 32.34 M0 0 C8.39 8.39, 16.78 16.78, 32.34 32.34" stroke="#E1E1E1" stroke-width="4" fill="none"></path></g></g><mask></mask><g stroke-linecap="round"><g transform="translate(155.683092050234 184.56667080872938) rotate(239.48021480648987 30.526881275540717 52.810921984271815)"><path d="M0 0 C5.73 10.02, 24.18 42.53, 34.35 60.14 C44.53 77.74, 56.6 98.04, 61.05 105.62 M0 0 C5.73 10.02, 24.18 42.53, 34.35 60.14 C44.53 77.74, 56.6 98.04, 61.05 105.62" stroke="#E1E1E1" stroke-width="4" fill="none"></path></g></g><mask></mask><g stroke-linecap="round"><g transform="translate(186.49617640394558 161.08800077855028) rotate(239.48021480648987 -5.57442991743045 37.404358884293835)"><path d="M0 0 C-1.86 12.47, -9.29 62.34, -11.15 74.81 M0 0 C-1.86 12.47, -9.29 62.34, -11.15 74.81" stroke="#E1E1E1" stroke-width="4" fill="none"></path></g></g><mask></mask><g stroke-linecap="round"><g transform="translate(187.27988589217136 208.47527299406715) rotate(239.48021480648987 35.55364612519426 13.4616174985043)"><path d="M0 0 C11.85 4.49, 59.26 22.44, 71.11 26.92 M0 0 C11.85 4.49, 59.26 22.44, 71.11 26.92" stroke="#E1E1E1" stroke-width="4" fill="none"></path></g></g><mask></mask></svg>