<svg version="1.1" xmlns="http://www.w3.org/2000/svg" viewBox="0 0 921.4074784477139 785.1074919873956" width="921.4074784477139" height="785.1074919873956" class="excalidraw-svg"><!-- svg-source:excalidraw --><metadata></metadata><defs><style class="style-fonts">
      </style></defs><rect x="0" y="0" width="921.4074784477139" height="785.1074919873956" fill="#000000"></rect><g stroke-linecap="round" transform="translate(250.0535641040609 10) rotate(320.18599994520247 43.38816806288243 43.388168062882414)"><path d="M86.78 43.39 C86.78 45.45, 86.63 47.53, 86.33 49.56 C86.04 51.6, 85.6 53.64, 85.02 55.61 C84.44 57.59, 83.71 59.54, 82.86 61.41 C82 63.28, 81 65.11, 79.89 66.85 C78.78 68.58, 77.53 70.25, 76.18 71.8 C74.83 73.36, 73.36 74.83, 71.8 76.18 C70.25 77.53, 68.58 78.78, 66.85 79.89 C65.11 81, 63.28 82, 61.41 82.86 C59.54 83.71, 57.59 84.44, 55.61 85.02 C53.64 85.6, 51.6 86.04, 49.56 86.33 C47.53 86.63, 45.45 86.78, 43.39 86.78 C41.33 86.78, 39.25 86.63, 37.21 86.33 C35.18 86.04, 33.14 85.6, 31.16 85.02 C29.19 84.44, 27.24 83.71, 25.36 82.86 C23.49 82, 21.66 81, 19.93 79.89 C18.2 78.78, 16.53 77.53, 14.97 76.18 C13.42 74.83, 11.95 73.36, 10.6 71.8 C9.25 70.25, 8 68.58, 6.89 66.85 C5.77 65.11, 4.78 63.28, 3.92 61.41 C3.07 59.54, 2.34 57.59, 1.76 55.61 C1.18 53.64, 0.73 51.6, 0.44 49.56 C0.15 47.53, 0 45.45, 0 43.39 C0 41.33, 0.15 39.25, 0.44 37.21 C0.73 35.18, 1.18 33.14, 1.76 31.16 C2.34 29.19, 3.07 27.24, 3.92 25.36 C4.78 23.49, 5.77 21.66, 6.89 19.93 C8 18.2, 9.25 16.53, 10.6 14.97 C11.95 13.42, 13.42 11.95, 14.97 10.6 C16.53 9.25, 18.2 8, 19.93 6.89 C21.66 5.77, 23.49 4.78, 25.36 3.92 C27.24 3.07, 29.19 2.34, 31.16 1.76 C33.14 1.18, 35.18 0.73, 37.21 0.44 C39.25 0.15, 41.33 0, 43.39 0 C45.45 0, 47.53 0.15, 49.56 0.44 C51.6 0.73, 53.64 1.18, 55.61 1.76 C57.59 2.34, 59.54 3.07, 61.41 3.92 C63.28 4.78, 65.11 5.77, 66.85 6.89 C68.58 8, 70.25 9.25, 71.8 10.6 C73.36 11.95, 74.83 13.42, 76.18 14.97 C77.53 16.53, 78.78 18.2, 79.89 19.93 C81 21.66, 82 23.49, 82.86 25.36 C83.71 27.24, 84.44 29.19, 85.02 31.16 C85.6 33.14, 86.04 35.18, 86.33 37.21 C86.63 39.25, 86.7 42.36, 86.78 43.39 C86.85 44.42, 86.85 42.36, 86.78 43.39" stroke="#E1E1E1" stroke-width="4" fill="none"></path></g><g stroke-linecap="round"><g transform="translate(293.76411759987366 9.660518606568075) rotate(320.18599994520247 0 43.1871328538642)"><path d="M0 0 C0 26.75, 0 53.5, 0 86.37 M0 0 C0 26.72, 0 53.45, 0 86.37" stroke="#E1E1E1" stroke-width="4" fill="none"></path></g></g><mask></mask><g stroke-linecap="round"><g transform="translate(330.87451003638705 38.429523047308976) rotate(320.18599994520247 -21.159771018723347 0)"><path d="M0 0 C-15.4 0, -30.81 0, -42.32 0 M0 0 C-9.82 0, -19.64 0, -42.32 0" stroke="#E1E1E1" stroke-width="4" fill="none"></path></g></g><mask></mask><g stroke-linecap="round"><g transform="translate(278.4024982059635 40.804901569876165) rotate(320.18599994520247 -15.69608674159332 0)"><path d="M0 0 C-12.19 0, -24.38 0, -31.39 0 M0 0 C-10.7 0, -21.41 0, -31.39 0" stroke="#E1E1E1" stroke-width="4" fill="none"></path></g></g><mask></mask><g stroke-linecap="round"><g transform="translate(288.8022111612803 54.85616897327236) rotate(320.18599994520247 -20.445340773059968 0)"><path d="M0 0 C-9.48 0, -18.96 0, -40.89 0 M0 0 C-10.87 0, -21.75 0, -40.89 0" stroke="#E1E1E1" stroke-width="4" fill="none"></path></g></g><mask></mask><g stroke-linecap="round"><g transform="translate(299.54988971162845 67.56895739661195) rotate(320.18599994520247 -21.925573872493857 0)"><path d="M0 0 C-10.55 0, -21.1 0, -43.85 0 M0 0 C-13.88 0, -27.76 0, -43.85 0" stroke="#E1E1E1" stroke-width="4" fill="none"></path></g></g><mask></mask><g stroke-linecap="round"><g transform="translate(307.2956677293058 76.76396382637358) rotate(320.18599994520247 -20.69677937671463 0)"><path d="M0 0 C-14.91 0, -29.81 0, -41.39 0 M0 0 C-13.62 0, -27.23 0, -41.39 0" stroke="#E1E1E1" stroke-width="4" fill="none"></path></g></g><mask></mask><g stroke-linecap="round"><g transform="translate(315.1591608705561 84.64049842689747) rotate(320.18599994520247 -17.278426888196606 0)"><path d="M0 0 C-11.73 0, -23.46 0, -34.56 0 M0 0 C-7.35 0, -14.71 0, -34.56 0" stroke="#E1E1E1" stroke-width="4" fill="none"></path></g></g><mask></mask><g stroke-linecap="round"><g transform="translate(300.34905609027953 39.89680850303375) rotate(320.18599994520247 14.895184590358411 14.895184590358355)"><path d="M0 0 C6.95 6.95, 13.91 13.91, 29.79 29.79 M0 0 C11.87 11.87, 23.73 23.73, 29.79 29.79" stroke="#E1E1E1" stroke-width="4" fill="none"></path></g></g><mask></mask><g stroke-linecap="round" transform="translate(10 407.62759062931946) rotate(320.18599994520247 43.388168062882414 43.38816806288243)"><path d="M86.78 43.39 C86.78 45.45, 86.63 47.53, 86.33 49.56 C86.04 51.6, 85.6 53.64, 85.02 55.61 C84.44 57.59, 83.71 59.54, 82.86 61.41 C82 63.28, 81 65.11, 79.89 66.85 C78.78 68.58, 77.53 70.25, 76.18 71.8 C74.83 73.36, 73.36 74.83, 71.8 76.18 C70.25 77.53, 68.58 78.78, 66.85 79.89 C65.11 81, 63.28 82, 61.41 82.86 C59.54 83.71, 57.59 84.44, 55.61 85.02 C53.64 85.6, 51.6 86.04, 49.56 86.33 C47.53 86.63, 45.45 86.78, 43.39 86.78 C41.33 86.78, 39.25 86.63, 37.21 86.33 C35.18 86.04, 33.14 85.6, 31.16 85.02 C29.19 84.44, 27.24 83.71, 25.36 82.86 C23.49 82, 21.66 81, 19.93 79.89 C18.2 78.78, 16.53 77.53, 14.97 76.18 C13.42 74.83, 11.95 73.36, 10.6 71.8 C9.25 70.25, 8 68.58, 6.89 66.85 C5.77 65.11, 4.78 63.28, 3.92 61.41 C3.07 59.54, 2.34 57.59, 1.76 55.61 C1.18 53.64, 0.73 51.6, 0.44 49.56 C0.15 47.53, 0 45.45, 0 43.39 C0 41.33, 0.15 39.25, 0.44 37.21 C0.73 35.18, 1.18 33.14, 1.76 31.16 C2.34 29.19, 3.07 27.24, 3.92 25.36 C4.78 23.49, 5.77 21.66, 6.89 19.93 C8 18.2, 9.25 16.53, 10.6 14.97 C11.95 13.42, 13.42 11.95, 14.97 10.6 C16.53 9.25, 18.2 8, 19.93 6.89 C21.66 5.77, 23.49 4.78, 25.36 3.92 C27.24 3.07, 29.19 2.34, 31.16 1.76 C33.14 1.18, 35.18 0.73, 37.21 0.44 C39.25 0.15, 41.33 0, 43.39 0 C45.45 0, 47.53 0.15, 49.56 0.44 C51.6 0.73, 53.64 1.18, 55.61 1.76 C57.59 2.34, 59.54 3.07, 61.41 3.92 C63.28 4.78, 65.11 5.77, 66.85 6.89 C68.58 8, 70.25 9.25, 71.8 10.6 C73.36 11.95, 74.83 13.42, 76.18 14.97 C77.53 16.53, 78.78 18.2, 79.89 19.93 C81 21.66, 82 23.49, 82.86 25.36 C83.71 27.24, 84.44 29.19, 85.02 31.16 C85.6 33.14, 86.04 35.18, 86.33 37.21 C86.63 39.25, 86.7 42.36, 86.78 43.39 C86.85 44.42, 86.85 42.36, 86.78 43.39" stroke="#E1E1E1" stroke-width="4" fill="none"></path></g><g stroke-linecap="round"><g transform="translate(53.710553495812746 407.2881092358839) rotate(320.18599994520247 0 43.187132853864206)"><path d="M0 0 C0 20.31, 0 40.61, 0 86.37 M0 0 C0 32.64, 0 65.28, 0 86.37" stroke="#E1E1E1" stroke-width="4" fill="none"></path></g></g><mask></mask><g stroke-linecap="round"><g transform="translate(90.82094593233069 436.0571136766266) rotate(320.18599994520247 -21.159771018723347 0)"><path d="M0 0 C-13.19 0, -26.37 0, -42.32 0 M0 0 C-10.84 0, -21.68 0, -42.32 0" stroke="#E1E1E1" stroke-width="4" fill="none"></path></g></g><mask></mask><g stroke-linecap="round"><g transform="translate(38.348934101901705 438.4324921991938) rotate(320.18599994520247 -15.69608674159332 0)"><path d="M0 0 C-10.89 0, -21.77 0, -31.39 0 M0 0 C-12.5 0, -25 0, -31.39 0" stroke="#E1E1E1" stroke-width="4" fill="none"></path></g></g><mask></mask><g stroke-linecap="round"><g transform="translate(48.74864705721984 452.4837596025918) rotate(320.18599994520247 -20.445340773059968 0)"><path d="M0 0 C-15.26 0, -30.52 0, -40.89 0 M0 0 C-9.78 0, -19.56 0, -40.89 0" stroke="#E1E1E1" stroke-width="4" fill="none"></path></g></g><mask></mask><g stroke-linecap="round"><g transform="translate(59.49632560757027 465.1965480259314) rotate(320.18599994520247 -21.925573872493885 0)"><path d="M0 0 C-10.9 0, -21.8 0, -43.85 0 M0 0 C-13.87 0, -27.73 0, -43.85 0" stroke="#E1E1E1" stroke-width="4" fill="none"></path></g></g><mask></mask><g stroke-linecap="round"><g transform="translate(67.24210362524673 474.3915544556912) rotate(320.18599994520247 -20.69677937671463 0)"><path d="M0 0 C-10.69 0, -21.37 0, -41.39 0 M0 0 C-8.89 0, -17.77 0, -41.39 0" stroke="#E1E1E1" stroke-width="4" fill="none"></path></g></g><mask></mask><g stroke-linecap="round"><g transform="translate(75.10559676649882 482.2680890562151) rotate(320.18599994520247 -17.278426888196634 0)"><path d="M0 0 C-7.57 0, -15.13 0, -34.56 0 M0 0 C-7.45 0, -14.89 0, -34.56 0" stroke="#E1E1E1" stroke-width="4" fill="none"></path></g></g><mask></mask><g stroke-linecap="round"><g transform="translate(60.29549198621771 437.5243991323514) rotate(320.18599994520247 14.895184590358411 14.895184590358369)"><path d="M0 0 C8.39 8.39, 16.78 16.78, 29.79 29.79 M0 0 C7.21 7.21, 14.41 14.41, 29.79 29.79" stroke="#E1E1E1" stroke-width="4" fill="none"></path></g></g><mask></mask><g stroke-linecap="round"><g transform="translate(561.9015110047002 124.39295471567311) rotate(22.927270066933467 168.4553338782937 139.40926360394332)"><path d="M0 0 C6.25 0.71, 24.06 0.63, 37.47 4.26 C50.88 7.89, 67.65 13.86, 80.44 21.78 C93.22 29.7, 103.55 40.88, 114.16 51.79 C124.76 62.69, 135.78 73.34, 144.08 87.22 C152.38 101.11, 156.26 118.16, 163.94 135.08 C171.62 151.99, 181.16 172.49, 190.17 188.73 C199.18 204.97, 205.85 220.14, 218 232.53 C230.15 244.92, 248.87 255.72, 263.07 263.08 C277.28 270.44, 290.94 274.07, 303.24 276.69 C315.55 279.31, 331.3 278.46, 336.91 278.82 M0 0 C6.25 0.71, 24.06 0.63, 37.47 4.26 C50.88 7.89, 67.65 13.86, 80.44 21.78 C93.22 29.7, 103.55 40.88, 114.16 51.79 C124.76 62.69, 135.78 73.34, 144.08 87.22 C152.38 101.11, 156.26 118.16, 163.94 135.08 C171.62 151.99, 181.16 172.49, 190.17 188.73 C199.18 204.97, 205.85 220.14, 218 232.53 C230.15 244.92, 248.87 255.72, 263.07 263.08 C277.28 270.44, 290.94 274.07, 303.24 276.69 C315.55 279.31, 331.3 278.46, 336.91 278.82" stroke="#E1E1E1" stroke-width="4" fill="none"></path></g></g><mask></mask><g stroke-linecap="round" transform="translate(829.1563455171844 433.7170399477709) rotate(292.9272700669335 41.12556646526471 41.12556646526471)"><path d="M82.25 41.13 C82.25 43.08, 82.11 45.05, 81.83 46.98 C81.55 48.91, 81.13 50.84, 80.59 52.71 C80.04 54.58, 79.35 56.44, 78.53 58.21 C77.72 59.98, 76.78 61.72, 75.72 63.36 C74.67 65, 73.48 66.58, 72.21 68.06 C70.93 69.53, 69.53 70.93, 68.06 72.21 C66.58 73.48, 65 74.67, 63.36 75.72 C61.72 76.78, 59.98 77.72, 58.21 78.53 C56.44 79.35, 54.58 80.04, 52.71 80.59 C50.84 81.13, 48.91 81.55, 46.98 81.83 C45.05 82.11, 43.08 82.25, 41.13 82.25 C39.17 82.25, 37.2 82.11, 35.27 81.83 C33.34 81.55, 31.41 81.13, 29.54 80.59 C27.67 80.04, 25.82 79.35, 24.04 78.53 C22.27 77.72, 20.53 76.78, 18.89 75.72 C17.25 74.67, 15.67 73.48, 14.19 72.21 C12.72 70.93, 11.32 69.53, 10.04 68.06 C8.77 66.58, 7.58 65, 6.53 63.36 C5.47 61.72, 4.53 59.98, 3.72 58.21 C2.91 56.44, 2.22 54.58, 1.67 52.71 C1.12 50.84, 0.7 48.91, 0.42 46.98 C0.14 45.05, 0 43.08, 0 41.13 C0 39.17, 0.14 37.2, 0.42 35.27 C0.7 33.34, 1.12 31.41, 1.67 29.54 C2.22 27.67, 2.91 25.82, 3.72 24.04 C4.53 22.27, 5.47 20.53, 6.53 18.89 C7.58 17.25, 8.77 15.67, 10.04 14.19 C11.32 12.72, 12.72 11.32, 14.19 10.04 C15.67 8.77, 17.25 7.58, 18.89 6.53 C20.53 5.47, 22.27 4.53, 24.04 3.72 C25.82 2.91, 27.67 2.22, 29.54 1.67 C31.41 1.12, 33.34 0.7, 35.27 0.42 C37.2 0.14, 39.17 0, 41.13 0 C43.08 0, 45.05 0.14, 46.98 0.42 C48.91 0.7, 50.84 1.12, 52.71 1.67 C54.58 2.22, 56.44 2.91, 58.21 3.72 C59.98 4.53, 61.72 5.47, 63.36 6.53 C65 7.58, 66.58 8.77, 68.06 10.04 C69.53 11.32, 70.93 12.72, 72.21 14.19 C73.48 15.67, 74.67 17.25, 75.72 18.89 C76.78 20.53, 77.72 22.27, 78.53 24.04 C79.35 25.82, 80.04 27.67, 80.59 29.54 C81.13 31.41, 81.55 33.34, 81.83 35.27 C82.11 37.2, 82.18 40.15, 82.25 41.13 C82.32 42.1, 82.32 40.15, 82.25 41.13" stroke="#E1E1E1" stroke-width="4" fill="none"></path></g><g stroke-linecap="round"><g transform="translate(870.3188990824395 433.31220174572263) rotate(292.9272700669335 0 40.93501481905657)"><path d="M0 0 C0 22.27, 0 44.53, 0 81.87 M0 0 C0 18.41, 0 36.83, 0 81.87" stroke="#E1E1E1" stroke-width="4" fill="none"></path></g></g><mask></mask><g stroke-linecap="round"><g transform="translate(897.5558047806757 455.1740708319121) rotate(292.9272700669335 -20.05633351837068 0)"><path d="M0 0 C-9.94 0, -19.87 0, -40.11 0 M0 0 C-14.91 0, -29.83 0, -40.11 0" stroke="#E1E1E1" stroke-width="4" fill="none"></path></g></g><mask></mask><g stroke-linecap="round"><g transform="translate(853.7994751575997 477.5830393587621) rotate(292.9272700669335 -14.87756887085942 0)"><path d="M0 0 C-6.07 0, -12.13 0, -29.76 0 M0 0 C-9.97 0, -19.94 0, -29.76 0" stroke="#E1E1E1" stroke-width="4" fill="none"></path></g></g><mask></mask><g stroke-linecap="round"><g transform="translate(869.1620978028799 486.96949938975195) rotate(292.9272700669335 -19.379159305570482 0)"><path d="M0 0 C-14.06 0, -28.13 0, -38.76 0 M0 0 C-14.57 0, -29.15 0, -38.76 0" stroke="#E1E1E1" stroke-width="4" fill="none"></path></g></g><mask></mask><g stroke-linecap="round"><g transform="translate(883.8927436684015 493.6579447820677) rotate(292.9272700669335 -20.782201365945724 0)"><path d="M0 0 C-12.59 0, -25.19 0, -41.56 0 M0 0 C-9.41 0, -18.81 0, -41.56 0" stroke="#E1E1E1" stroke-width="4" fill="none"></path></g></g><mask></mask><g stroke-linecap="round"><g transform="translate(894.2817024248001 497.5094835197742) rotate(292.9272700669335 -19.6174859155243 0)"><path d="M0 0 C-14.2 0, -28.41 0, -39.23 0 M0 0 C-9.22 0, -18.44 0, -39.23 0" stroke="#E1E1E1" stroke-width="4" fill="none"></path></g></g><mask></mask><g stroke-linecap="round"><g transform="translate(903.9669889757641 499.2484449759395) rotate(292.9272700669335 -16.377393310911316 0)"><path d="M0 0 C-11.14 0, -22.27 0, -32.75 0 M0 0 C-7.05 0, -14.1 0, -32.75 0" stroke="#E1E1E1" stroke-width="4" fill="none"></path></g></g><mask></mask><g stroke-linecap="round"><g transform="translate(875.1435051108364 452.44200707035634) rotate(292.9272700669335 14.118432080270594 14.118432080270566)"><path d="M0 0 C8.54 8.54, 17.09 17.09, 28.24 28.24 M0 0 C11.04 11.04, 22.08 22.08, 28.24 28.24" stroke="#E1E1E1" stroke-width="4" fill="none"></path></g></g><mask></mask><g stroke-linecap="round" transform="translate(549.9465250513157 15.850086088110402) rotate(177.59713659203527 41.12556646526471 41.12556646526471)"><path d="M82.25 41.13 C82.25 43.08, 82.11 45.05, 81.83 46.98 C81.55 48.91, 81.13 50.84, 80.59 52.71 C80.04 54.58, 79.35 56.44, 78.53 58.21 C77.72 59.98, 76.78 61.72, 75.72 63.36 C74.67 65, 73.48 66.58, 72.21 68.06 C70.93 69.53, 69.53 70.93, 68.06 72.21 C66.58 73.48, 65 74.67, 63.36 75.72 C61.72 76.78, 59.98 77.72, 58.21 78.53 C56.44 79.35, 54.58 80.04, 52.71 80.59 C50.84 81.13, 48.91 81.55, 46.98 81.83 C45.05 82.11, 43.08 82.25, 41.13 82.25 C39.17 82.25, 37.2 82.11, 35.27 81.83 C33.34 81.55, 31.41 81.13, 29.54 80.59 C27.67 80.04, 25.82 79.35, 24.04 78.53 C22.27 77.72, 20.53 76.78, 18.89 75.72 C17.25 74.67, 15.67 73.48, 14.19 72.21 C12.72 70.93, 11.32 69.53, 10.04 68.06 C8.77 66.58, 7.58 65, 6.53 63.36 C5.47 61.72, 4.53 59.98, 3.72 58.21 C2.91 56.44, 2.22 54.58, 1.67 52.71 C1.12 50.84, 0.7 48.91, 0.42 46.98 C0.14 45.05, 0 43.08, 0 41.13 C0 39.17, 0.14 37.2, 0.42 35.27 C0.7 33.34, 1.12 31.41, 1.67 29.54 C2.22 27.67, 2.91 25.82, 3.72 24.04 C4.53 22.27, 5.47 20.53, 6.53 18.89 C7.58 17.25, 8.77 15.67, 10.04 14.19 C11.32 12.72, 12.72 11.32, 14.19 10.04 C15.67 8.77, 17.25 7.58, 18.89 6.53 C20.53 5.47, 22.27 4.53, 24.04 3.72 C25.82 2.91, 27.67 2.22, 29.54 1.67 C31.41 1.12, 33.34 0.7, 35.27 0.42 C37.2 0.14, 39.17 0, 41.13 0 C43.08 0, 45.05 0.14, 46.98 0.42 C48.91 0.7, 50.84 1.12, 52.71 1.67 C54.58 2.22, 56.44 2.91, 58.21 3.72 C59.98 4.53, 61.72 5.47, 63.36 6.53 C65 7.58, 66.58 8.77, 68.06 10.04 C69.53 11.32, 70.93 12.72, 72.21 14.19 C73.48 15.67, 74.67 17.25, 75.72 18.89 C76.78 20.53, 77.72 22.27, 78.53 24.04 C79.35 25.82, 80.04 27.67, 80.59 29.54 C81.13 31.41, 81.55 33.34, 81.83 35.27 C82.11 37.2, 82.18 40.15, 82.25 41.13 C82.32 42.1, 82.32 40.15, 82.25 41.13" stroke="#E1E1E1" stroke-width="4" fill="none"></path></g><g stroke-linecap="round"><g transform="translate(590.5181195259992 16.26193425625388) rotate(177.59713659203527 0 40.93501481905656)"><path d="M0 0 C0 23.78, 0 47.57, 0 81.87 M0 0 C0 21.5, 0 43, 0 81.87" stroke="#E1E1E1" stroke-width="4" fill="none"></path></g></g><mask></mask><g stroke-linecap="round"><g transform="translate(590.262956280097 58.86686050186108) rotate(177.59713659203527 -20.05633351837068 0)"><path d="M0 0 C-8.14 0, -16.27 0, -40.11 0 M0 0 C-15.4 0, -30.79 0, -40.11 0" stroke="#E1E1E1" stroke-width="4" fill="none"></path></g></g><mask></mask><g stroke-linecap="round"><g transform="translate(621.843476025126 84.14818564176858) rotate(177.59713659203527 -14.877568870859424 0)"><path d="M0 0 C-11.31 0, -22.62 0, -29.76 0 M0 0 C-10.27 0, -20.54 0, -29.76 0" stroke="#E1E1E1" stroke-width="4" fill="none"></path></g></g><mask></mask><g stroke-linecap="round"><g transform="translate(630.1823791963969 70.31551838074847) rotate(177.59713659203527 -19.37915930557049 0)"><path d="M0 0 C-14.04 0, -28.08 0, -38.76 0 M0 0 C-12.76 0, -25.52 0, -38.76 0" stroke="#E1E1E1" stroke-width="4" fill="none"></path></g></g><mask></mask><g stroke-linecap="round"><g transform="translate(631.9288313491214 55.40772194862984) rotate(177.59713659203527 -20.78220136594572 0)"><path d="M0 0 C-11.39 0, -22.78 0, -41.56 0 M0 0 C-12.91 0, -25.83 0, -41.56 0" stroke="#E1E1E1" stroke-width="4" fill="none"></path></g></g><mask></mask><g stroke-linecap="round"><g transform="translate(629.3023122971407 43.31702847985616) rotate(177.59713659203527 -19.617485915524306 0)"><path d="M0 0 C-12.83 0, -25.65 0, -39.23 0 M0 0 C-11.9 0, -23.81 0, -39.23 0" stroke="#E1E1E1" stroke-width="4" fill="none"></path></g></g><mask></mask><g stroke-linecap="round"><g transform="translate(622.1040858852128 30.890339861211032) rotate(177.59713659203527 -16.377393310911316 0)"><path d="M0 0 C-7.32 0, -14.64 0, -32.75 0 M0 0 C-10.07 0, -20.13 0, -32.75 0" stroke="#E1E1E1" stroke-width="4" fill="none"></path></g></g><mask></mask><g stroke-linecap="round"><g transform="translate(561.347472502607 29.245366048582582) rotate(177.59713659203527 14.118432080270587 14.118432080270566)"><path d="M0 0 C7.33 7.33, 14.67 14.67, 28.24 28.24 M0 0 C10.04 10.04, 20.07 20.07, 28.24 28.24" stroke="#E1E1E1" stroke-width="4" fill="none"></path></g></g><mask></mask><g stroke-linecap="round"><g transform="translate(266.78638166118446 795.5498401404875) rotate(21.48877061214096 178.31544461700605 -76.34087076913994)"><path d="M0 0 C7.61 -0.81, 27.68 -0.38, 45.64 -4.86 C63.6 -9.35, 89.61 -17.66, 107.77 -26.93 C125.93 -36.2, 140.15 -48.97, 154.62 -60.48 C169.09 -71.99, 180.46 -85.17, 194.62 -96 C208.77 -106.83, 222.7 -117.19, 239.53 -125.46 C256.35 -133.73, 278.34 -141.11, 295.58 -145.61 C312.82 -150.12, 332.78 -151.29, 342.96 -152.47 C353.13 -153.65, 354.35 -152.65, 356.63 -152.68 M0 0 C7.61 -0.81, 27.68 -0.38, 45.64 -4.86 C63.6 -9.35, 89.61 -17.66, 107.77 -26.93 C125.93 -36.2, 140.15 -48.97, 154.62 -60.48 C169.09 -71.99, 180.46 -85.17, 194.62 -96 C208.77 -106.83, 222.7 -117.19, 239.53 -125.46 C256.35 -133.73, 278.34 -141.11, 295.58 -145.61 C312.82 -150.12, 332.78 -151.29, 342.96 -152.47 C353.13 -153.65, 354.35 -152.65, 356.63 -152.68" stroke="#E1E1E1" stroke-width="4" fill="none"></path></g></g><mask></mask><g stroke-linecap="round" transform="translate(635.1980713849065 686.6547828458661) rotate(157.3521790775842 44.22635457076481 44.22635457076481)"><path d="M88.45 44.23 C88.45 46.32, 88.3 48.44, 88 50.52 C87.7 52.6, 87.25 54.67, 86.66 56.69 C86.07 58.7, 85.33 60.69, 84.46 62.6 C83.58 64.51, 82.57 66.37, 81.43 68.14 C80.3 69.9, 79.02 71.6, 77.65 73.19 C76.28 74.77, 74.77 76.28, 73.19 77.65 C71.6 79.02, 69.9 80.3, 68.14 81.43 C66.37 82.57, 64.51 83.58, 62.6 84.46 C60.69 85.33, 58.7 86.07, 56.69 86.66 C54.67 87.25, 52.6 87.7, 50.52 88 C48.44 88.3, 46.32 88.45, 44.23 88.45 C42.13 88.45, 40.01 88.3, 37.93 88 C35.86 87.7, 33.78 87.25, 31.77 86.66 C29.75 86.07, 27.76 85.33, 25.85 84.46 C23.95 83.58, 22.08 82.57, 20.32 81.43 C18.55 80.3, 16.85 79.02, 15.26 77.65 C13.68 76.28, 12.18 74.77, 10.8 73.19 C9.43 71.6, 8.16 69.9, 7.02 68.14 C5.89 66.37, 4.87 64.51, 4 62.6 C3.13 60.69, 2.38 58.7, 1.79 56.69 C1.2 54.67, 0.75 52.6, 0.45 50.52 C0.15 48.44, 0 46.32, 0 44.23 C0 42.13, 0.15 40.01, 0.45 37.93 C0.75 35.86, 1.2 33.78, 1.79 31.77 C2.38 29.75, 3.13 27.76, 4 25.85 C4.87 23.95, 5.89 22.08, 7.02 20.32 C8.16 18.55, 9.43 16.85, 10.8 15.26 C12.18 13.68, 13.68 12.18, 15.26 10.8 C16.85 9.43, 18.55 8.16, 20.32 7.02 C22.08 5.89, 23.95 4.87, 25.85 4 C27.76 3.13, 29.75 2.38, 31.77 1.79 C33.78 1.2, 35.86 0.75, 37.93 0.45 C40.01 0.15, 42.13 0, 44.23 0 C46.32 0, 48.44 0.15, 50.52 0.45 C52.6 0.75, 54.67 1.2, 56.69 1.79 C58.7 2.38, 60.69 3.13, 62.6 4 C64.51 4.87, 66.37 5.89, 68.14 7.02 C69.9 8.16, 71.6 9.43, 73.19 10.8 C74.77 12.18, 76.28 13.68, 77.65 15.26 C79.02 16.85, 80.3 18.55, 81.43 20.32 C82.57 22.08, 83.58 23.95, 84.46 25.85 C85.33 27.76, 86.07 29.75, 86.66 31.77 C87.25 33.78, 87.7 35.86, 88 37.93 C88.3 40.01, 88.38 43.18, 88.45 44.23 C88.53 45.28, 88.53 43.18, 88.45 44.23" stroke="#E1E1E1" stroke-width="4" fill="none"></path></g><g stroke-linecap="round"><g transform="translate(678.9478392511872 687.2891282028395) rotate(157.3521790775842 0 44.021435699279806)"><path d="M0 0 C0 20.8, 0 41.61, 0 88.04 M0 0 C0 32.65, 0 65.3, 0 88.04" stroke="#E1E1E1" stroke-width="4" fill="none"></path></g></g><mask></mask><g stroke-linecap="round"><g transform="translate(680.6442706030952 740.5538529444912) rotate(157.3521790775842 -21.568542242990528 0)"><path d="M0 0 C-11.79 0, -23.58 0, -43.14 0 M0 0 C-9.61 0, -19.22 0, -43.14 0" stroke="#E1E1E1" stroke-width="4" fill="none"></path></g></g><mask></mask><g stroke-linecap="round"><g transform="translate(721.5715630816229 752.3827047913073) rotate(157.3521790775842 -15.999308765493666 0)"><path d="M0 0 C-7.81 0, -15.62 0, -32 0 M0 0 C-6.95 0, -13.91 0, -32 0" stroke="#E1E1E1" stroke-width="4" fill="none"></path></g></g><mask></mask><g stroke-linecap="round"><g transform="translate(725.1367882864942 736.9981112395144) rotate(157.3521790775842 -20.84031040533852 0)"><path d="M0 0 C-15.52 0, -31.03 0, -41.68 0 M0 0 C-15.39 0, -30.78 0, -41.68 0" stroke="#E1E1E1" stroke-width="4" fill="none"></path></g></g><mask></mask><g stroke-linecap="round"><g transform="translate(721.4445436683731 721.828921201426) rotate(157.3521790775842 -22.349139121224077 0)"><path d="M0 0 C-17.73 0, -35.47 0, -44.7 0 M0 0 C-11.37 0, -22.73 0, -44.7 0" stroke="#E1E1E1" stroke-width="4" fill="none"></path></g></g><mask></mask><g stroke-linecap="round"><g transform="translate(714.2178596815337 710.1738455402792) rotate(157.3521790775842 -21.096606380358544 0)"><path d="M0 0 C-11.62 0, -23.23 0, -42.19 0 M0 0 C-10.8 0, -21.61 0, -42.19 0" stroke="#E1E1E1" stroke-width="4" fill="none"></path></g></g><mask></mask><g stroke-linecap="round"><g transform="translate(702.1155849177538 699.108709997543) rotate(157.3521790775842 -17.612217065143682 0)"><path d="M0 0 C-13.65 0, -27.3 0, -35.22 0 M0 0 C-11.02 0, -22.05 0, -35.22 0" stroke="#E1E1E1" stroke-width="4" fill="none"></path></g></g><mask></mask><g stroke-linecap="round"><g transform="translate(643.430134547826 707.7718098488804) rotate(157.3521790775842 15.18293453034115 15.182934530341129)"><path d="M0 0 C7.21 7.21, 14.43 14.43, 30.37 30.37 M0 0 C11.09 11.09, 22.18 22.18, 30.37 30.37" stroke="#E1E1E1" stroke-width="4" fill="none"></path></g></g><mask></mask><g stroke-linecap="round" transform="translate(167.38499184759246 665.5882247834252) rotate(202.9415981809214 44.22635457076481 44.22635457076481)"><path d="M88.45 44.23 C88.45 46.32, 88.3 48.44, 88 50.52 C87.7 52.6, 87.25 54.67, 86.66 56.69 C86.07 58.7, 85.33 60.69, 84.46 62.6 C83.58 64.51, 82.57 66.37, 81.43 68.14 C80.3 69.9, 79.02 71.6, 77.65 73.19 C76.28 74.77, 74.77 76.28, 73.19 77.65 C71.6 79.02, 69.9 80.3, 68.14 81.43 C66.37 82.57, 64.51 83.58, 62.6 84.46 C60.69 85.33, 58.7 86.07, 56.69 86.66 C54.67 87.25, 52.6 87.7, 50.52 88 C48.44 88.3, 46.32 88.45, 44.23 88.45 C42.13 88.45, 40.01 88.3, 37.93 88 C35.86 87.7, 33.78 87.25, 31.77 86.66 C29.75 86.07, 27.76 85.33, 25.85 84.46 C23.95 83.58, 22.08 82.57, 20.32 81.43 C18.55 80.3, 16.85 79.02, 15.26 77.65 C13.68 76.28, 12.18 74.77, 10.8 73.19 C9.43 71.6, 8.16 69.9, 7.02 68.14 C5.89 66.37, 4.87 64.51, 4 62.6 C3.13 60.69, 2.38 58.7, 1.79 56.69 C1.2 54.67, 0.75 52.6, 0.45 50.52 C0.15 48.44, 0 46.32, 0 44.23 C0 42.13, 0.15 40.01, 0.45 37.93 C0.75 35.86, 1.2 33.78, 1.79 31.77 C2.38 29.75, 3.13 27.76, 4 25.85 C4.87 23.95, 5.89 22.08, 7.02 20.32 C8.16 18.55, 9.43 16.85, 10.8 15.26 C12.18 13.68, 13.68 12.18, 15.26 10.8 C16.85 9.43, 18.55 8.16, 20.32 7.02 C22.08 5.89, 23.95 4.87, 25.85 4 C27.76 3.13, 29.75 2.38, 31.77 1.79 C33.78 1.2, 35.86 0.75, 37.93 0.45 C40.01 0.15, 42.13 0, 44.23 0 C46.32 0, 48.44 0.15, 50.52 0.45 C52.6 0.75, 54.67 1.2, 56.69 1.79 C58.7 2.38, 60.69 3.13, 62.6 4 C64.51 4.87, 66.37 5.89, 68.14 7.02 C69.9 8.16, 71.6 9.43, 73.19 10.8 C74.77 12.18, 76.28 13.68, 77.65 15.26 C79.02 16.85, 80.3 18.55, 81.43 20.32 C82.57 22.08, 83.58 23.95, 84.46 25.85 C85.33 27.76, 86.07 29.75, 86.66 31.77 C87.25 33.78, 87.7 35.86, 88 37.93 C88.3 40.01, 88.38 43.18, 88.45 44.23 C88.53 45.28, 88.53 43.18, 88.45 44.23" stroke="#E1E1E1" stroke-width="4" fill="none"></path></g><g stroke-linecap="round"><g transform="translate(210.9710752949096 665.753207683556) rotate(202.9415981809214 0 44.021435699279806)"><path d="M0 0 C0 27.53, 0 55.06, 0 88.04 M0 0 C0 18.06, 0 36.13, 0 88.04" stroke="#E1E1E1" stroke-width="4" fill="none"></path></g></g><mask></mask><g stroke-linecap="round"><g transform="translate(212.0303252328705 702.0475409029186) rotate(202.9415981809214 -21.56854224299053 0)"><path d="M0 0 C-12.9 0, -25.8 0, -43.14 0 M0 0 C-13.08 0, -26.17 0, -43.14 0" stroke="#E1E1E1" stroke-width="4" fill="none"></path></g></g><mask></mask><g stroke-linecap="round"><g transform="translate(230.54927780071228 743.5398047003819) rotate(202.9415981809214 -15.99930876549368 0)"><path d="M0 0 C-8.08 0, -16.16 0, -32 0 M0 0 C-6.76 0, -13.51 0, -32 0" stroke="#E1E1E1" stroke-width="4" fill="none"></path></g></g><mask></mask><g stroke-linecap="round"><g transform="translate(245.48738090617724 731.8623963295577) rotate(202.9415981809214 -20.840310405338528 0)"><path d="M0 0 C-14.54 0, -29.08 0, -41.68 0 M0 0 C-11.68 0, -23.36 0, -41.68 0" stroke="#E1E1E1" stroke-width="4" fill="none"></path></g></g><mask></mask><g stroke-linecap="round"><g transform="translate(254.19253478804728 717.5317161523053) rotate(202.9415981809214 -22.349139121224084 0)"><path d="M0 0 C-9.28 0, -18.55 0, -44.7 0 M0 0 C-10.95 0, -21.89 0, -44.7 0" stroke="#E1E1E1" stroke-width="4" fill="none"></path></g></g><mask></mask><g stroke-linecap="round"><g transform="translate(257.08504632462984 705.1079534487235) rotate(202.9415981809214 -21.096606380358537 0)"><path d="M0 0 C-12.43 0, -24.87 0, -42.19 0 M0 0 C-15.59 0, -31.17 0, -42.19 0" stroke="#E1E1E1" stroke-width="4" fill="none"></path></g></g><mask></mask><g stroke-linecap="round"><g transform="translate(255.47420872814303 691.2084938138705) rotate(202.9415981809214 -17.612217065143682 0)"><path d="M0 0 C-7.98 0, -15.96 0, -35.22 0 M0 0 C-10.38 0, -20.75 0, -35.22 0" stroke="#E1E1E1" stroke-width="4" fill="none"></path></g></g><mask></mask><g stroke-linecap="round"><g transform="translate(187.526889779895 674.2183357872182) rotate(202.9415981809214 15.182934530341157 15.182934530341129)"><path d="M0 0 C11.3 11.3, 22.6 22.6, 30.37 30.37 M0 0 C11.69 11.69, 23.37 23.37, 30.37 30.37" stroke="#E1E1E1" stroke-width="4" fill="none"></path></g></g><mask></mask><g stroke-linecap="round" transform="translate(362.1969411912813 72.20349093625373) rotate(12.752110603380757 78.04233685277359 78.04233685277359)"><path d="M156.08 78.04 C156.08 80.76, 155.94 83.5, 155.66 86.2 C155.37 88.9, 154.94 91.61, 154.38 94.27 C153.81 96.93, 153.11 99.57, 152.27 102.16 C151.42 104.74, 150.44 107.3, 149.34 109.79 C148.23 112.27, 146.99 114.71, 145.63 117.06 C144.27 119.42, 142.78 121.71, 141.18 123.91 C139.58 126.11, 137.86 128.24, 136.04 130.26 C134.22 132.28, 132.28 134.22, 130.26 136.04 C128.24 137.86, 126.11 139.58, 123.91 141.18 C121.71 142.78, 119.42 144.27, 117.06 145.63 C114.71 146.99, 112.27 148.23, 109.79 149.34 C107.3 150.44, 104.74 151.42, 102.16 152.27 C99.57 153.11, 96.93 153.81, 94.27 154.38 C91.61 154.94, 88.9 155.37, 86.2 155.66 C83.5 155.94, 80.76 156.08, 78.04 156.08 C75.32 156.08, 72.59 155.94, 69.88 155.66 C67.18 155.37, 64.48 154.94, 61.82 154.38 C59.16 153.81, 56.51 153.11, 53.93 152.27 C51.34 151.42, 48.78 150.44, 46.3 149.34 C43.82 148.23, 41.38 146.99, 39.02 145.63 C36.67 144.27, 34.37 142.78, 32.17 141.18 C29.97 139.58, 27.84 137.86, 25.82 136.04 C23.8 134.22, 21.87 132.28, 20.05 130.26 C18.23 128.24, 16.5 126.11, 14.9 123.91 C13.31 121.71, 11.82 119.42, 10.46 117.06 C9.1 114.71, 7.85 112.27, 6.75 109.79 C5.64 107.3, 4.66 104.74, 3.82 102.16 C2.98 99.57, 2.27 96.93, 1.71 94.27 C1.14 91.61, 0.71 88.9, 0.43 86.2 C0.14 83.5, 0 80.76, 0 78.04 C0 75.32, 0.14 72.59, 0.43 69.88 C0.71 67.18, 1.14 64.48, 1.71 61.82 C2.27 59.16, 2.98 56.51, 3.82 53.93 C4.66 51.34, 5.64 48.78, 6.75 46.3 C7.85 43.82, 9.1 41.38, 10.46 39.02 C11.82 36.67, 13.31 34.37, 14.9 32.17 C16.5 29.97, 18.23 27.84, 20.05 25.82 C21.87 23.8, 23.8 21.87, 25.82 20.05 C27.84 18.23, 29.97 16.5, 32.17 14.9 C34.37 13.31, 36.67 11.82, 39.02 10.46 C41.38 9.1, 43.82 7.85, 46.3 6.75 C48.78 5.64, 51.34 4.66, 53.93 3.82 C56.51 2.98, 59.16 2.27, 61.82 1.71 C64.48 1.14, 67.18 0.71, 69.88 0.43 C72.59 0.14, 75.32 0, 78.04 0 C80.76 0, 83.5 0.14, 86.2 0.43 C88.9 0.71, 91.61 1.14, 94.27 1.71 C96.93 2.27, 99.57 2.98, 102.16 3.82 C104.74 4.66, 107.3 5.64, 109.79 6.75 C112.27 7.85, 114.71 9.1, 117.06 10.46 C119.42 11.82, 121.71 13.31, 123.91 14.9 C126.11 16.5, 128.24 18.23, 130.26 20.05 C132.28 21.87, 134.22 23.8, 136.04 25.82 C137.86 27.84, 139.58 29.97, 141.18 32.17 C142.78 34.37, 144.27 36.67, 145.63 39.02 C146.99 41.38, 148.23 43.82, 149.34 46.3 C150.44 48.78, 151.42 51.34, 152.27 53.93 C153.11 56.51, 153.81 59.16, 154.38 61.82 C154.94 64.48, 155.37 67.18, 155.66 69.88 C155.94 72.59, 156.01 76.68, 156.08 78.04 C156.16 79.4, 156.16 76.68, 156.08 78.04" stroke="#E1E1E1" stroke-width="4" fill="none"></path></g><g stroke-linecap="round"><g transform="translate(441.36375498902487 72.4345815559791) rotate(12.752110603380757 0 77.68073464180378)"><path d="M0 0 C0 41.21, 0 82.43, 0 155.36 M0 0 C0 49.28, 0 98.56, 0 155.36" stroke="#E1E1E1" stroke-width="4" fill="none"></path></g></g><mask></mask><g stroke-linecap="round"><g transform="translate(517.4561355075265 157.13326836132546) rotate(12.752110603380757 -38.06009913065358 0)"><path d="M0 0 C-26.21 0, -52.42 0, -76.12 0 M0 0 C-17.33 0, -34.65 0, -76.12 0" stroke="#E1E1E1" stroke-width="4" fill="none"></path></g></g><mask></mask><g stroke-linecap="round"><g transform="translate(452.8401948648951 92.58986356796049) rotate(12.752110603380757 -28.232565315559015 0)"><path d="M0 0 C-11.66 0, -23.31 0, -56.47 0 M0 0 C-13.19 0, -26.38 0, -56.47 0" stroke="#E1E1E1" stroke-width="4" fill="none"></path></g></g><mask></mask><g stroke-linecap="round"><g transform="translate(447.49153889565 116.0229390683071) rotate(12.752110603380757 -36.77505280629475 0)"><path d="M0 0 C-24.48 0, -48.97 0, -73.55 0 M0 0 C-16.21 0, -32.41 0, -73.55 0" stroke="#E1E1E1" stroke-width="4" fill="none"></path></g></g><mask></mask><g stroke-linecap="round"><g transform="translate(442.12916729333926 143.1586376561172) rotate(12.752110603380757 -39.437549411342005 0)"><path d="M0 0 C-21.81 0, -43.63 0, -78.88 0 M0 0 C-29.8 0, -59.6 0, -78.88 0" stroke="#E1E1E1" stroke-width="4" fill="none"></path></g></g><mask></mask><g stroke-linecap="round"><g transform="translate(436.5981927827655 166.02993002807125) rotate(12.752110603380757 -37.22731564845412 0)"><path d="M0 0 C-27.2 0, -54.4 0, -74.45 0 M0 0 C-18.44 0, -36.88 0, -74.45 0" stroke="#E1E1E1" stroke-width="4" fill="none"></path></g></g><mask></mask><g stroke-linecap="round"><g transform="translate(431.5346058518088 190.75509838933067) rotate(12.752110603380757 -31.078721958031394 0)"><path d="M0 0 C-18.96 0, -37.91 0, -62.16 0 M0 0 C-16.79 0, -33.58 0, -62.16 0" stroke="#E1E1E1" stroke-width="4" fill="none"></path></g></g><mask></mask><g stroke-linecap="round"><g transform="translate(435.27964807751766 156.12851544983096) rotate(12.752110603380757 26.791981897005826 26.79198189700577)"><path d="M0 0 C15.14 15.14, 30.28 30.28, 53.58 53.58 M0 0 C12.36 12.36, 24.72 24.72, 53.58 53.58" stroke="#E1E1E1" stroke-width="4" fill="none"></path></g></g><mask></mask><g stroke-linecap="round"><g transform="translate(483.93612176923887 217.19634383759148) rotate(0 50.583245478549415 87.50804926867288)"><path d="M0 0 C9.49 16.61, 40.06 70.48, 56.92 99.65 C73.78 128.82, 93.79 162.45, 101.17 175.02 M0 0 C9.49 16.61, 40.06 70.48, 56.92 99.65 C73.78 128.82, 93.79 162.45, 101.17 175.02" stroke="#E1E1E1" stroke-width="4" fill="none"></path></g></g><mask></mask><g stroke-linecap="round"><g transform="translate(603.7123444625994 267.89795688086633) rotate(0 -9.236867479885088 61.97927165681236)"><path d="M0 0 C-3.08 20.66, -15.39 103.3, -18.47 123.96 M0 0 C-3.08 20.66, -15.39 103.3, -18.47 123.96" stroke="#E1E1E1" stroke-width="4" fill="none"></path></g></g><mask></mask><g stroke-linecap="round"><g transform="translate(466.8290704645882 347.6693006424375) rotate(0 58.91262829554553 22.305989803510272)"><path d="M0 0 C19.64 7.44, 98.19 37.18, 117.83 44.61 M0 0 C19.64 7.44, 98.19 37.18, 117.83 44.61" stroke="#E1E1E1" stroke-width="4" fill="none"></path></g></g><mask></mask><g stroke-linecap="round" transform="translate(599.9677211026554 475.6779225539485) rotate(270.5272678210354 78.04233685277359 78.04233685277359)"><path d="M156.08 78.04 C156.08 80.76, 155.94 83.5, 155.66 86.2 C155.37 88.9, 154.94 91.61, 154.38 94.27 C153.81 96.93, 153.11 99.57, 152.27 102.16 C151.42 104.74, 150.44 107.3, 149.34 109.79 C148.23 112.27, 146.99 114.71, 145.63 117.06 C144.27 119.42, 142.78 121.71, 141.18 123.91 C139.58 126.11, 137.86 128.24, 136.04 130.26 C134.22 132.28, 132.28 134.22, 130.26 136.04 C128.24 137.86, 126.11 139.58, 123.91 141.18 C121.71 142.78, 119.42 144.27, 117.06 145.63 C114.71 146.99, 112.27 148.23, 109.79 149.34 C107.3 150.44, 104.74 151.42, 102.16 152.27 C99.57 153.11, 96.93 153.81, 94.27 154.38 C91.61 154.94, 88.9 155.37, 86.2 155.66 C83.5 155.94, 80.76 156.08, 78.04 156.08 C75.32 156.08, 72.59 155.94, 69.88 155.66 C67.18 155.37, 64.48 154.94, 61.82 154.38 C59.16 153.81, 56.51 153.11, 53.93 152.27 C51.34 151.42, 48.78 150.44, 46.3 149.34 C43.82 148.23, 41.38 146.99, 39.02 145.63 C36.67 144.27, 34.37 142.78, 32.17 141.18 C29.97 139.58, 27.84 137.86, 25.82 136.04 C23.8 134.22, 21.87 132.28, 20.05 130.26 C18.23 128.24, 16.5 126.11, 14.9 123.91 C13.31 121.71, 11.82 119.42, 10.46 117.06 C9.1 114.71, 7.85 112.27, 6.75 109.79 C5.64 107.3, 4.66 104.74, 3.82 102.16 C2.98 99.57, 2.27 96.93, 1.71 94.27 C1.14 91.61, 0.71 88.9, 0.43 86.2 C0.14 83.5, 0 80.76, 0 78.04 C0 75.32, 0.14 72.59, 0.43 69.88 C0.71 67.18, 1.14 64.48, 1.71 61.82 C2.27 59.16, 2.98 56.51, 3.82 53.93 C4.66 51.34, 5.64 48.78, 6.75 46.3 C7.85 43.82, 9.1 41.38, 10.46 39.02 C11.82 36.67, 13.31 34.37, 14.9 32.17 C16.5 29.97, 18.23 27.84, 20.05 25.82 C21.87 23.8, 23.8 21.87, 25.82 20.05 C27.84 18.23, 29.97 16.5, 32.17 14.9 C34.37 13.31, 36.67 11.82, 39.02 10.46 C41.38 9.1, 43.82 7.85, 46.3 6.75 C48.78 5.64, 51.34 4.66, 53.93 3.82 C56.51 2.98, 59.16 2.27, 61.82 1.71 C64.48 1.14, 67.18 0.71, 69.88 0.43 C72.59 0.14, 75.32 0, 78.04 0 C80.76 0, 83.5 0.14, 86.2 0.43 C88.9 0.71, 91.61 1.14, 94.27 1.71 C96.93 2.27, 99.57 2.98, 102.16 3.82 C104.74 4.66, 107.3 5.64, 109.79 6.75 C112.27 7.85, 114.71 9.1, 117.06 10.46 C119.42 11.82, 121.71 13.31, 123.91 14.9 C126.11 16.5, 128.24 18.23, 130.26 20.05 C132.28 21.87, 134.22 23.8, 136.04 25.82 C137.86 27.84, 139.58 29.97, 141.18 32.17 C142.78 34.37, 144.27 36.67, 145.63 39.02 C146.99 41.38, 148.23 43.82, 149.34 46.3 C150.44 48.78, 151.42 51.34, 152.27 53.93 C153.11 56.51, 153.81 59.16, 154.38 61.82 C154.94 64.48, 155.37 67.18, 155.66 69.88 C155.94 72.59, 156.01 76.68, 156.08 78.04 C156.16 79.4, 156.16 76.68, 156.08 78.04" stroke="#E1E1E1" stroke-width="4" fill="none"></path></g><g stroke-linecap="round"><g transform="translate(677.6443994341092 474.96818190616614) rotate(270.5272678210354 0 77.68073464180377)"><path d="M0 0 C0 55.87, 0 111.73, 0 155.36 M0 0 C0 44.55, 0 89.11, 0 155.36" stroke="#E1E1E1" stroke-width="4" fill="none"></path></g></g><mask></mask><g stroke-linecap="round"><g transform="translate(714.5100315681115 513.9930071843519) rotate(270.5272678210354 -38.06009913065359 0)"><path d="M0 0 C-17.54 0, -35.08 0, -76.12 0 M0 0 C-16.97 0, -33.95 0, -76.12 0" stroke="#E1E1E1" stroke-width="4" fill="none"></path></g></g><mask></mask><g stroke-linecap="round"><g transform="translate(653.2040348949284 581.2060154996143) rotate(270.5272678210354 -28.23256531555901 0)"><path d="M0 0 C-21.63 0, -43.26 0, -56.47 0 M0 0 C-11.6 0, -23.21 0, -56.47 0" stroke="#E1E1E1" stroke-width="4" fill="none"></path></g></g><mask></mask><g stroke-linecap="round"><g transform="translate(687.5896633547994 589.8202455220762) rotate(270.5272678210354 -36.775052806294745 0)"><path d="M0 0 C-26.94 0, -53.87 0, -73.55 0 M0 0 C-19.91 0, -39.82 0, -73.55 0" stroke="#E1E1E1" stroke-width="4" fill="none"></path></g></g><mask></mask><g stroke-linecap="round"><g transform="translate(718.4717885692943 591.917197772118) rotate(270.5272678210354 -39.437549411342005 0)"><path d="M0 0 C-18.77 0, -37.54 0, -78.88 0 M0 0 C-25.41 0, -50.83 0, -78.88 0" stroke="#E1E1E1" stroke-width="4" fill="none"></path></g></g><mask></mask><g stroke-linecap="round"><g transform="translate(739.3173838559663 590.3196744658671) rotate(270.5272678210354 -37.227315648454116 0)"><path d="M0 0 C-20 0, -40.01 0, -74.45 0 M0 0 C-28.13 0, -56.26 0, -74.45 0" stroke="#E1E1E1" stroke-width="4" fill="none"></path></g></g><mask></mask><g stroke-linecap="round"><g transform="translate(757.1035462894714 584.0237520196497) rotate(270.5272678210354 -31.078721958031394 0)"><path d="M0 0 C-21.4 0, -42.8 0, -62.16 0 M0 0 C-19.67 0, -39.35 0, -62.16 0" stroke="#E1E1E1" stroke-width="4" fill="none"></path></g></g><mask></mask><g stroke-linecap="round"><g transform="translate(678.5288511488196 498.6721775401602) rotate(270.5272678210354 26.791981897005826 26.79198189700578)"><path d="M0 0 C14.43 14.43, 28.87 28.87, 53.58 53.58 M0 0 C17.41 17.41, 34.82 34.82, 53.58 53.58" stroke="#E1E1E1" stroke-width="4" fill="none"></path></g></g><mask></mask><g stroke-linecap="round"><g transform="translate(447.00191041561754 463.96991041659385) rotate(119.99999999999997 50.583245478549415 87.50804926867288)"><path d="M0 0 C9.49 16.61, 40.06 70.48, 56.92 99.65 C73.78 128.82, 93.79 162.45, 101.17 175.02 M0 0 C9.49 16.61, 40.06 70.48, 56.92 99.65 C73.78 128.82, 93.79 162.45, 101.17 175.02" stroke="#E1E1E1" stroke-width="4" fill="none"></path></g></g><mask></mask><g stroke-linecap="round"><g transform="translate(455.0436535377006 528.8357844552811) rotate(119.99999999999997 -9.236867479885092 61.979271656812365)"><path d="M0 0 C-3.08 20.66, -15.39 103.3, -18.47 123.96 M0 0 C-3.08 20.66, -15.39 103.3, -18.47 123.96" stroke="#E1E1E1" stroke-width="4" fill="none"></path></g></g><mask></mask><g stroke-linecap="round"><g transform="translate(386.53510661847565 488.9348373156099) rotate(119.99999999999997 58.91262829554553 22.305989803510265)"><path d="M0 0 C19.64 7.44, 98.19 37.18, 117.83 44.61 M0 0 C19.64 7.44, 98.19 37.18, 117.83 44.61" stroke="#E1E1E1" stroke-width="4" fill="none"></path></g></g><mask></mask><g stroke-linecap="round" transform="translate(133.19554151279226 464.6848724055635) rotate(30.00748262752546 78.04233685277359 78.04233685277359)"><path d="M156.08 78.04 C156.08 80.76, 155.94 83.5, 155.66 86.2 C155.37 88.9, 154.94 91.61, 154.38 94.27 C153.81 96.93, 153.11 99.57, 152.27 102.16 C151.42 104.74, 150.44 107.3, 149.34 109.79 C148.23 112.27, 146.99 114.71, 145.63 117.06 C144.27 119.42, 142.78 121.71, 141.18 123.91 C139.58 126.11, 137.86 128.24, 136.04 130.26 C134.22 132.28, 132.28 134.22, 130.26 136.04 C128.24 137.86, 126.11 139.58, 123.91 141.18 C121.71 142.78, 119.42 144.27, 117.06 145.63 C114.71 146.99, 112.27 148.23, 109.79 149.34 C107.3 150.44, 104.74 151.42, 102.16 152.27 C99.57 153.11, 96.93 153.81, 94.27 154.38 C91.61 154.94, 88.9 155.37, 86.2 155.66 C83.5 155.94, 80.76 156.08, 78.04 156.08 C75.32 156.08, 72.59 155.94, 69.88 155.66 C67.18 155.37, 64.48 154.94, 61.82 154.38 C59.16 153.81, 56.51 153.11, 53.93 152.27 C51.34 151.42, 48.78 150.44, 46.3 149.34 C43.82 148.23, 41.38 146.99, 39.02 145.63 C36.67 144.27, 34.37 142.78, 32.17 141.18 C29.97 139.58, 27.84 137.86, 25.82 136.04 C23.8 134.22, 21.87 132.28, 20.05 130.26 C18.23 128.24, 16.5 126.11, 14.9 123.91 C13.31 121.71, 11.82 119.42, 10.46 117.06 C9.1 114.71, 7.85 112.27, 6.75 109.79 C5.64 107.3, 4.66 104.74, 3.82 102.16 C2.98 99.57, 2.27 96.93, 1.71 94.27 C1.14 91.61, 0.71 88.9, 0.43 86.2 C0.14 83.5, 0 80.76, 0 78.04 C0 75.32, 0.14 72.59, 0.43 69.88 C0.71 67.18, 1.14 64.48, 1.71 61.82 C2.27 59.16, 2.98 56.51, 3.82 53.93 C4.66 51.34, 5.64 48.78, 6.75 46.3 C7.85 43.82, 9.1 41.38, 10.46 39.02 C11.82 36.67, 13.31 34.37, 14.9 32.17 C16.5 29.97, 18.23 27.84, 20.05 25.82 C21.87 23.8, 23.8 21.87, 25.82 20.05 C27.84 18.23, 29.97 16.5, 32.17 14.9 C34.37 13.31, 36.67 11.82, 39.02 10.46 C41.38 9.1, 43.82 7.85, 46.3 6.75 C48.78 5.64, 51.34 4.66, 53.93 3.82 C56.51 2.98, 59.16 2.27, 61.82 1.71 C64.48 1.14, 67.18 0.71, 69.88 0.43 C72.59 0.14, 75.32 0, 78.04 0 C80.76 0, 83.5 0.14, 86.2 0.43 C88.9 0.71, 91.61 1.14, 94.27 1.71 C96.93 2.27, 99.57 2.98, 102.16 3.82 C104.74 4.66, 107.3 5.64, 109.79 6.75 C112.27 7.85, 114.71 9.1, 117.06 10.46 C119.42 11.82, 121.71 13.31, 123.91 14.9 C126.11 16.5, 128.24 18.23, 130.26 20.05 C132.28 21.87, 134.22 23.8, 136.04 25.82 C137.86 27.84, 139.58 29.97, 141.18 32.17 C142.78 34.37, 144.27 36.67, 145.63 39.02 C146.99 41.38, 148.23 43.82, 149.34 46.3 C150.44 48.78, 151.42 51.34, 152.27 53.93 C153.11 56.51, 153.81 59.16, 154.38 61.82 C154.94 64.48, 155.37 67.18, 155.66 69.88 C155.94 72.59, 156.01 76.68, 156.08 78.04 C156.16 79.4, 156.16 76.68, 156.08 78.04" stroke="#E1E1E1" stroke-width="4" fill="none"></path></g><g stroke-linecap="round"><g transform="translate(212.35045880482028 465.2553919241127) rotate(30.00748262752546 0 77.68073464180377)"><path d="M0 0 C0 46.23, 0 92.45, 0 155.36 M0 0 C0 32.66, 0 65.31, 0 155.36" stroke="#E1E1E1" stroke-width="4" fill="none"></path></g></g><mask></mask><g stroke-linecap="round"><g transform="translate(284.6493446189669 560.9197737648665) rotate(30.00748262752546 -38.06009913065358 0)"><path d="M0 0 C-19.36 0, -38.73 0, -76.12 0 M0 0 C-23.48 0, -46.96 0, -76.12 0" stroke="#E1E1E1" stroke-width="4" fill="none"></path></g></g><mask></mask><g stroke-linecap="round"><g transform="translate(241.64489528913703 483.02938345933944) rotate(30.00748262752546 -28.232565315559015 0)"><path d="M0 0 C-15.68 0, -31.35 0, -56.47 0 M0 0 C-19.36 0, -38.72 0, -56.47 0" stroke="#E1E1E1" stroke-width="4" fill="none"></path></g></g><mask></mask><g stroke-linecap="round"><g transform="translate(229.9704706722813 501.28724091480944) rotate(30.00748262752546 -36.77505280629475 0)"><path d="M0 0 C-17.18 0, -34.36 0, -73.55 0 M0 0 C-18.45 0, -36.91 0, -73.55 0" stroke="#E1E1E1" stroke-width="4" fill="none"></path></g></g><mask></mask><g stroke-linecap="round"><g transform="translate(216.9199886894229 524.8211940780602) rotate(30.00748262752546 -39.43754941134199 0)"><path d="M0 0 C-26.45 0, -52.91 0, -78.88 0 M0 0 C-31.54 0, -63.08 0, -78.88 0" stroke="#E1E1E1" stroke-width="4" fill="none"></path></g></g><mask></mask><g stroke-linecap="round"><g transform="translate(204.75413664683686 545.6780634151764) rotate(30.00748262752546 -37.22731564845412 0)"><path d="M0 0 C-18.31 0, -36.63 0, -74.45 0 M0 0 C-17.41 0, -34.82 0, -74.45 0" stroke="#E1E1E1" stroke-width="4" fill="none"></path></g></g><mask></mask><g stroke-linecap="round"><g transform="translate(192.30746159879493 569.6122515437401) rotate(30.00748262752546 -31.078721958031394 0)"><path d="M0 0 C-17.49 0, -34.98 0, -62.16 0 M0 0 C-13.7 0, -27.39 0, -62.16 0" stroke="#E1E1E1" stroke-width="4" fill="none"></path></g></g><mask></mask><g stroke-linecap="round"><g transform="translate(195.60329719538947 553.6154347725005) rotate(30.00748262752546 26.791981897005826 26.79198189700578)"><path d="M0 0 C16.82 16.82, 33.63 33.63, 53.58 53.58 M0 0 C15.93 15.93, 31.85 31.85, 53.58 53.58" stroke="#E1E1E1" stroke-width="4" fill="none"></path></g></g><mask></mask><g stroke-linecap="round"><g transform="translate(251.3978532800703 299.258135549082) rotate(239.48021480648987 50.583245478549415 87.50804926867288)"><path d="M0 0 C9.49 16.61, 40.06 70.48, 56.92 99.65 C73.78 128.82, 93.79 162.45, 101.17 175.02 M0 0 C9.49 16.61, 40.06 70.48, 56.92 99.65 C73.78 128.82, 93.79 162.45, 101.17 175.02" stroke="#E1E1E1" stroke-width="4" fill="none"></path></g></g><mask></mask><g stroke-linecap="round"><g transform="translate(302.45533916428565 260.35382302115977) rotate(239.48021480648987 -9.236867479885092 61.97927165681236)"><path d="M0 0 C-3.08 20.66, -15.39 103.3, -18.47 123.96 M0 0 C-3.08 20.66, -15.39 103.3, -18.47 123.96" stroke="#E1E1E1" stroke-width="4" fill="none"></path></g></g><mask></mask><g stroke-linecap="round"><g transform="translate(303.7539510031098 338.8748485199849) rotate(239.48021480648987 58.91262829554553 22.305989803510272)"><path d="M0 0 C19.64 7.44, 98.19 37.18, 117.83 44.61 M0 0 C19.64 7.44, 98.19 37.18, 117.83 44.61" stroke="#E1E1E1" stroke-width="4" fill="none"></path></g></g><mask></mask></svg>