<svg version="1.1" xmlns="http://www.w3.org/2000/svg" viewBox="0 0 603.0658233731431 582.983258256262" width="603.0658233731431" height="582.983258256262" class="excalidraw-svg"><!-- svg-source:excalidraw --><metadata></metadata><defs><style class="style-fonts">
      </style></defs><rect x="0" y="0" width="603.0658233731431" height="582.983258256262" fill="#000000"></rect><g stroke-linecap="round"><g transform="translate(193.65405862224526 147.72548020856743) rotate(0 63.76888998077038 16.852834131764666)"><path d="M0 0 C-0.93 2.67, -4.39 9.62, -5.58 16.05 C-6.78 22.47, -8.61 29.83, -7.16 38.56 C-5.71 47.3, -2.82 59.44, 3.12 68.45 C9.06 77.46, 18.15 87.18, 28.48 92.64 C38.81 98.09, 54.03 101.14, 65.11 101.17 C76.2 101.21, 86.31 97.84, 95.01 92.86 C103.71 87.88, 111.55 79.58, 117.32 71.31 C123.1 63.03, 127.76 52.62, 129.67 43.19 C131.59 33.77, 131.28 23.84, 128.8 14.75 C126.31 5.65, 120.54 -4.14, 114.77 -11.39 C109 -18.64, 102.04 -24.75, 94.16 -28.75 C86.27 -32.76, 72.53 -36.21, 67.46 -35.43 C62.4 -34.64, 64.69 -27.47, 63.74 -24.02 C62.79 -20.58, 63.55 -16.97, 61.78 -14.77 C60.01 -12.56, 56.51 -10.61, 53.1 -10.77 C49.69 -10.94, 47.13 -12.05, 41.3 -15.75 C35.48 -19.45, 24.51 -27.57, 18.16 -32.97 C11.81 -38.37, 5.85 -43.62, 3.21 -48.15 C0.57 -52.68, -0.21 -55.52, 2.33 -60.14 C4.86 -64.76, 12.08 -70.59, 18.42 -75.86 C24.75 -81.13, 34.31 -88.27, 40.34 -91.78 C46.37 -95.29, 50.21 -97.09, 54.61 -96.94 C59 -96.79, 64.57 -94.47, 66.7 -90.86 C68.84 -87.25, 64.72 -78.34, 67.43 -75.27 C70.14 -72.2, 76.57 -74.16, 82.96 -72.46 C89.35 -70.75, 98.07 -68.99, 105.79 -65.05 C113.51 -61.11, 121.76 -55.76, 129.28 -48.81 C136.8 -41.86, 145.3 -32.68, 150.92 -23.37 C156.53 -14.06, 160.54 -3.49, 162.98 7.04 C165.43 17.58, 166.48 29.24, 165.59 39.82 C164.7 50.4, 162.12 60.74, 157.66 70.53 C153.2 80.32, 146.88 90.19, 138.83 98.55 C130.78 106.92, 119.76 115.37, 109.39 120.71 C99.02 126.06, 87.49 129.23, 76.59 130.65 C65.7 132.06, 54.76 131.1, 44.02 129.22 C33.28 127.33, 21.6 124.57, 12.15 119.34 C2.71 114.1, -5.49 105.88, -12.63 97.81 C-19.78 89.73, -26.48 82.14, -30.72 70.89 C-34.95 59.63, -37.65 42.49, -38.05 30.27 C-38.46 18.05, -35.6 5.55, -33.13 -2.46 C-30.65 -10.46, -27.14 -15.18, -23.21 -17.75 C-19.28 -20.33, -13.35 -19.27, -9.54 -17.9 C-5.74 -16.52, -1.96 -12.47, -0.37 -9.49 C1.22 -6.5, -0.06 -1.58, 0 0 M0 0 C-0.93 2.67, -4.39 9.62, -5.58 16.05 C-6.78 22.47, -8.61 29.83, -7.16 38.56 C-5.71 47.3, -2.82 59.44, 3.12 68.45 C9.06 77.46, 18.15 87.18, 28.48 92.64 C38.81 98.09, 54.03 101.14, 65.11 101.17 C76.2 101.21, 86.31 97.84, 95.01 92.86 C103.71 87.88, 111.55 79.58, 117.32 71.31 C123.1 63.03, 127.76 52.62, 129.67 43.19 C131.59 33.77, 131.28 23.84, 128.8 14.75 C126.31 5.65, 120.54 -4.14, 114.77 -11.39 C109 -18.64, 102.04 -24.75, 94.16 -28.75 C86.27 -32.76, 72.53 -36.21, 67.46 -35.43 C62.4 -34.64, 64.69 -27.47, 63.74 -24.02 C62.79 -20.58, 63.55 -16.97, 61.78 -14.77 C60.01 -12.56, 56.51 -10.61, 53.1 -10.77 C49.69 -10.94, 47.13 -12.05, 41.3 -15.75 C35.48 -19.45, 24.51 -27.57, 18.16 -32.97 C11.81 -38.37, 5.85 -43.62, 3.21 -48.15 C0.57 -52.68, -0.21 -55.52, 2.33 -60.14 C4.86 -64.76, 12.08 -70.59, 18.42 -75.86 C24.75 -81.13, 34.31 -88.27, 40.34 -91.78 C46.37 -95.29, 50.21 -97.09, 54.61 -96.94 C59 -96.79, 64.57 -94.47, 66.7 -90.86 C68.84 -87.25, 64.72 -78.34, 67.43 -75.27 C70.14 -72.2, 76.57 -74.16, 82.96 -72.46 C89.35 -70.75, 98.07 -68.99, 105.79 -65.05 C113.51 -61.11, 121.76 -55.76, 129.28 -48.81 C136.8 -41.86, 145.3 -32.68, 150.92 -23.37 C156.53 -14.06, 160.54 -3.49, 162.98 7.04 C165.43 17.58, 166.48 29.24, 165.59 39.82 C164.7 50.4, 162.12 60.74, 157.66 70.53 C153.2 80.32, 146.88 90.19, 138.83 98.55 C130.78 106.92, 119.76 115.37, 109.39 120.71 C99.02 126.06, 87.49 129.23, 76.59 130.65 C65.7 132.06, 54.76 131.1, 44.02 129.22 C33.28 127.33, 21.6 124.57, 12.15 119.34 C2.71 114.1, -5.49 105.88, -12.63 97.81 C-19.78 89.73, -26.48 82.14, -30.72 70.89 C-34.95 59.63, -37.65 42.49, -38.05 30.27 C-38.46 18.05, -35.6 5.55, -33.13 -2.46 C-30.65 -10.46, -27.14 -15.18, -23.21 -17.75 C-19.28 -20.33, -13.35 -19.27, -9.54 -17.9 C-5.74 -16.52, -1.96 -12.47, -0.37 -9.49 C1.22 -6.5, -0.06 -1.58, 0 0" stroke="#E1E1E1" stroke-width="4" fill="none"></path></g></g><mask></mask><g stroke-linecap="round"><g transform="translate(11.692888319568567 40.21603804077699) rotate(0 236.31854583361113 184.97134013410817)"><path d="M0 0 C0.04 23.79, 0.32 101.3, 0.25 142.73 C0.17 184.16, -0.52 224.73, -0.45 248.58 C-0.38 272.43, -3.93 276.73, 0.68 285.81 C5.29 294.89, 16.25 300.44, 27.22 303.06 C38.18 305.67, 59.28 297.74, 66.49 301.51 C73.7 305.27, 69.94 309.3, 70.47 325.65 C70.99 342, 61.19 393.46, 69.66 399.62 C78.13 405.77, 98.26 380.06, 121.28 362.6 C144.31 345.13, 183.87 306.53, 207.78 294.82 C231.69 283.11, 228.77 293.08, 264.77 292.34 C300.76 291.59, 391.61 290.81, 423.77 290.36 C455.93 289.9, 450.27 296.21, 457.74 289.63 C465.22 283.04, 466.35 272.99, 468.61 250.83 C470.86 228.67, 470.52 197.79, 471.27 156.66 C472.01 115.53, 475.3 34.61, 473.09 4.03 C470.88 -26.54, 464.58 -21.2, 458.01 -26.82 C451.45 -32.43, 461.3 -29.31, 433.69 -29.67 C406.07 -30.04, 356.95 -29.35, 292.33 -29.01 C227.71 -28.67, 90.73 -28.35, 45.95 -27.64 C1.17 -26.93, 31.29 -29.36, 23.63 -24.76 C15.97 -20.15, 3.94 -4.13, 0 0 M0 0 C0.04 23.79, 0.32 101.3, 0.25 142.73 C0.17 184.16, -0.52 224.73, -0.45 248.58 C-0.38 272.43, -3.93 276.73, 0.68 285.81 C5.29 294.89, 16.25 300.44, 27.22 303.06 C38.18 305.67, 59.28 297.74, 66.49 301.51 C73.7 305.27, 69.94 309.3, 70.47 325.65 C70.99 342, 61.19 393.46, 69.66 399.62 C78.13 405.77, 98.26 380.06, 121.28 362.6 C144.31 345.13, 183.87 306.53, 207.78 294.82 C231.69 283.11, 228.77 293.08, 264.77 292.34 C300.76 291.59, 391.61 290.81, 423.77 290.36 C455.93 289.9, 450.27 296.21, 457.74 289.63 C465.22 283.04, 466.35 272.99, 468.61 250.83 C470.86 228.67, 470.52 197.79, 471.27 156.66 C472.01 115.53, 475.3 34.61, 473.09 4.03 C470.88 -26.54, 464.58 -21.2, 458.01 -26.82 C451.45 -32.43, 461.3 -29.31, 433.69 -29.67 C406.07 -30.04, 356.95 -29.35, 292.33 -29.01 C227.71 -28.67, 90.73 -28.35, 45.95 -27.64 C1.17 -26.93, 31.29 -29.36, 23.63 -24.76 C15.97 -20.15, 3.94 -4.13, 0 0" stroke="#E1E1E1" stroke-width="4" fill="none"></path></g></g><mask></mask><g stroke-linecap="round"><g transform="translate(236.35289858380003 331.6060957560833) rotate(0 177.13984100290577 78.9378686366048)"><path d="M0 0 C-0.28 22.14, -2.91 105.65, -1.67 132.83 C-0.42 160, -0.4 157.49, 7.47 163.05 C15.33 168.61, 23.36 165.98, 45.52 166.21 C67.68 166.44, 117.48 164.74, 140.45 164.45 C163.41 164.15, 170.83 161.4, 183.32 164.45 C195.81 167.49, 203.48 174.42, 215.39 182.72 C227.29 191.01, 242.11 204.7, 254.75 214.2 C267.39 223.7, 284.68 247.9, 291.23 239.71 C297.79 231.53, 287 179.11, 294.07 165.08 C301.14 151.06, 323.54 157.32, 333.64 155.58 C343.73 153.85, 350.9 162.78, 354.62 154.68 C358.33 146.57, 355.98 128.39, 355.95 106.95 C355.91 85.5, 354.67 50.06, 354.41 26 C354.14 1.94, 354.37 -22.46, 354.36 -37.41 C354.35 -52.36, 358.03 -56.39, 354.36 -63.7 C350.69 -71.01, 341.97 -78.25, 332.36 -81.27 C322.76 -84.29, 310.13 -82.09, 296.75 -81.84 C283.38 -81.59, 259.56 -80.1, 252.12 -79.75 M0 0 C-0.28 22.14, -2.91 105.65, -1.67 132.83 C-0.42 160, -0.4 157.49, 7.47 163.05 C15.33 168.61, 23.36 165.98, 45.52 166.21 C67.68 166.44, 117.48 164.74, 140.45 164.45 C163.41 164.15, 170.83 161.4, 183.32 164.45 C195.81 167.49, 203.48 174.42, 215.39 182.72 C227.29 191.01, 242.11 204.7, 254.75 214.2 C267.39 223.7, 284.68 247.9, 291.23 239.71 C297.79 231.53, 287 179.11, 294.07 165.08 C301.14 151.06, 323.54 157.32, 333.64 155.58 C343.73 153.85, 350.9 162.78, 354.62 154.68 C358.33 146.57, 355.98 128.39, 355.95 106.95 C355.91 85.5, 354.67 50.06, 354.41 26 C354.14 1.94, 354.37 -22.46, 354.36 -37.41 C354.35 -52.36, 358.03 -56.39, 354.36 -63.7 C350.69 -71.01, 341.97 -78.25, 332.36 -81.27 C322.76 -84.29, 310.13 -82.09, 296.75 -81.84 C283.38 -81.59, 259.56 -80.1, 252.12 -79.75" stroke="#E1E1E1" stroke-width="4" fill="none"></path></g></g><mask></mask></svg>