<svg version="1.1" xmlns="http://www.w3.org/2000/svg" viewBox="0 0 355.01011936996525 359.5485989236822" width="355.01011936996525" height="359.5485989236822" class="excalidraw-svg"><!-- svg-source:excalidraw --><metadata></metadata><defs><style class="style-fonts">
      </style></defs><rect x="0" y="0" width="355.01011936996525" height="359.5485989236822" fill="#000000"></rect><g stroke-linecap="round"><g transform="translate(79.4109364569799 28.275720313341054) rotate(0 50.61389526564336 1.243560793012449)"><path d="M0 0 C-0.09 -2.66, -2.4 -13.05, -0.55 -15.93 C1.29 -18.82, 1.29 -17.06, 11.07 -17.3 C20.86 -17.55, 44.48 -17.37, 58.15 -17.39 C71.82 -17.4, 85.99 -17.37, 93.1 -17.4 C100.2 -17.43, 99.32 -19.25, 100.77 -17.55 C102.22 -15.85, 101.62 -11.96, 101.78 -7.19 C101.94 -2.42, 101.92 6.74, 101.73 11.08 C101.55 15.42, 103.27 17.44, 100.68 18.88 C98.08 20.31, 93.91 19.53, 86.19 19.68 C78.46 19.84, 65.72 19.75, 54.31 19.79 C42.9 19.84, 26.06 19.92, 17.72 19.96 C9.38 20, 7.3 20.43, 4.29 20.04 C1.27 19.65, 0.35 20.96, -0.36 17.62 C-1.08 14.28, -0.06 2.94, 0 0 M0 0 C-0.09 -2.66, -2.4 -13.05, -0.55 -15.93 C1.29 -18.82, 1.29 -17.06, 11.07 -17.3 C20.86 -17.55, 44.48 -17.37, 58.15 -17.39 C71.82 -17.4, 85.99 -17.37, 93.1 -17.4 C100.2 -17.43, 99.32 -19.25, 100.77 -17.55 C102.22 -15.85, 101.62 -11.96, 101.78 -7.19 C101.94 -2.42, 101.92 6.74, 101.73 11.08 C101.55 15.42, 103.27 17.44, 100.68 18.88 C98.08 20.31, 93.91 19.53, 86.19 19.68 C78.46 19.84, 65.72 19.75, 54.31 19.79 C42.9 19.84, 26.06 19.92, 17.72 19.96 C9.38 20, 7.3 20.43, 4.29 20.04 C1.27 19.65, 0.35 20.96, -0.36 17.62 C-1.08 14.28, -0.06 2.94, 0 0" stroke="#E1E1E1" stroke-width="4" fill="none"></path></g></g><mask></mask><g stroke-linecap="round"><g transform="translate(182.4048767692993 27.256685951806986) rotate(0 34.087984943277135 31.56412415250319)"><path d="M0 0 C4.31 0.04, 16.48 0.13, 25.85 0.23 C35.21 0.34, 49.47 -0.6, 56.21 0.62 C62.95 1.85, 64.34 3.91, 66.29 7.61 C68.23 11.31, 67.57 15.98, 67.86 22.82 C68.16 29.67, 68 41.95, 68.05 48.67 C68.1 55.38, 68.16 60.72, 68.18 63.13 M0 0 C4.31 0.04, 16.48 0.13, 25.85 0.23 C35.21 0.34, 49.47 -0.6, 56.21 0.62 C62.95 1.85, 64.34 3.91, 66.29 7.61 C68.23 11.31, 67.57 15.98, 67.86 22.82 C68.16 29.67, 68 41.95, 68.05 48.67 C68.1 55.38, 68.16 60.72, 68.18 63.13" stroke="#E1E1E1" stroke-width="4" fill="none"></path></g></g><mask></mask><g stroke-linecap="round"><g transform="translate(78.86985757169484 26.424052258542844) rotate(0 -31.41317324044541 158.38981146275876)"><path d="M0 0 C-4.97 0.06, -20.38 0.27, -29.8 0.38 C-39.21 0.49, -50.19 -0.65, -56.51 0.65 C-62.82 1.96, -65.68 3, -67.68 8.22 C-69.68 13.44, -68.57 18.14, -68.5 31.99 C-68.44 45.85, -67.37 71.38, -67.28 91.34 C-67.18 111.3, -67.78 128.88, -67.95 151.77 C-68.12 174.67, -68.32 205.08, -68.3 228.7 C-68.28 252.33, -68.13 280.05, -67.84 293.52 C-67.56 306.98, -68.25 305.63, -66.58 309.51 C-64.92 313.39, -64.23 315.59, -57.84 316.78 C-51.45 317.97, -38.83 316.72, -28.25 316.67 C-17.66 316.63, 0.02 316.54, 5.68 316.51 M0 0 C-4.97 0.06, -20.38 0.27, -29.8 0.38 C-39.21 0.49, -50.19 -0.65, -56.51 0.65 C-62.82 1.96, -65.68 3, -67.68 8.22 C-69.68 13.44, -68.57 18.14, -68.5 31.99 C-68.44 45.85, -67.37 71.38, -67.28 91.34 C-67.18 111.3, -67.78 128.88, -67.95 151.77 C-68.12 174.67, -68.32 205.08, -68.3 228.7 C-68.28 252.33, -68.13 280.05, -67.84 293.52 C-67.56 306.98, -68.25 305.63, -66.58 309.51 C-64.92 313.39, -64.23 315.59, -57.84 316.78 C-51.45 317.97, -38.83 316.72, -28.25 316.67 C-17.66 316.63, 0.02 316.54, 5.68 316.51" stroke="#E1E1E1" stroke-width="4" fill="none"></path></g></g><mask></mask><g stroke-linecap="round"><g transform="translate(136.3581182962516 342.0402955433624) rotate(0 57.00464092350536 -36.208989478304794)"><path d="M0 0 C6.93 0.07, 29.85 0.5, 41.59 0.42 C53.33 0.35, 61.58 3.28, 70.44 -0.45 C79.29 -4.19, 87.8 -15.52, 94.7 -22.01 C101.6 -28.5, 108.59 -30.93, 111.81 -39.4 C115.03 -47.87, 113.64 -67.27, 114.01 -72.84 M0 0 C6.93 0.07, 29.85 0.5, 41.59 0.42 C53.33 0.35, 61.58 3.28, 70.44 -0.45 C79.29 -4.19, 87.8 -15.52, 94.7 -22.01 C101.6 -28.5, 108.59 -30.93, 111.81 -39.4 C115.03 -47.87, 113.64 -67.27, 114.01 -72.84" stroke="#E1E1E1" stroke-width="4" fill="none"></path></g></g><mask></mask><g stroke-linecap="round"><g transform="translate(248.48484036103852 297.5838097361943) rotate(0 -22.022488157211114 21.605209839803038)"><path d="M0 0 C-3.43 0.03, -14.78 -0.27, -20.6 0.15 C-26.43 0.57, -31.05 -0.2, -34.95 2.54 C-38.86 5.27, -42.63 9.77, -44.04 16.55 C-45.46 23.33, -43.54 38.77, -43.44 43.21 M0 0 C-3.43 0.03, -14.78 -0.27, -20.6 0.15 C-26.43 0.57, -31.05 -0.2, -34.95 2.54 C-38.86 5.27, -42.63 9.77, -44.04 16.55 C-45.46 23.33, -43.54 38.77, -43.44 43.21" stroke="#E1E1E1" stroke-width="4" fill="none"></path></g></g><mask></mask><g stroke-linecap="round"><g transform="translate(267.4681193907686 82.85854101102862) rotate(0 -2.9622914652856167 95.83363827032794)"><path d="M0 0 C9.48 3.15, 44.52 14.45, 56.87 18.88 C69.22 23.32, 70.83 23.49, 74.1 26.63 C77.37 29.76, 75.98 27.88, 76.47 37.7 C76.96 47.52, 76.94 73.97, 77.03 85.54 C77.13 97.1, 78.13 99.73, 77.03 107.1 C75.92 114.47, 73.44 122.37, 70.4 129.77 C67.36 137.16, 63.75 144.75, 58.81 151.48 C53.87 158.2, 47.61 164.69, 40.75 170.11 C33.89 175.53, 24.56 180.41, 17.62 184 C10.69 187.6, 4.86 191.25, -0.87 191.67 C-6.6 192.08, -10.83 188.93, -16.78 186.49 C-22.73 184.04, -29.94 181.39, -36.57 176.99 C-43.2 172.59, -50.42 167.03, -56.55 160.09 C-62.67 153.15, -68.94 144.94, -73.34 135.35 C-77.75 125.75, -81.36 114.12, -82.96 102.54 C-84.56 90.97, -83.05 78.18, -82.96 65.9 C-82.86 53.61, -86.15 37.05, -82.4 28.83 C-78.64 20.61, -74.15 21.38, -60.42 16.57 C-46.69 11.77, -10.07 2.76, 0 0 M0 0 C9.48 3.15, 44.52 14.45, 56.87 18.88 C69.22 23.32, 70.83 23.49, 74.1 26.63 C77.37 29.76, 75.98 27.88, 76.47 37.7 C76.96 47.52, 76.94 73.97, 77.03 85.54 C77.13 97.1, 78.13 99.73, 77.03 107.1 C75.92 114.47, 73.44 122.37, 70.4 129.77 C67.36 137.16, 63.75 144.75, 58.81 151.48 C53.87 158.2, 47.61 164.69, 40.75 170.11 C33.89 175.53, 24.56 180.41, 17.62 184 C10.69 187.6, 4.86 191.25, -0.87 191.67 C-6.6 192.08, -10.83 188.93, -16.78 186.49 C-22.73 184.04, -29.94 181.39, -36.57 176.99 C-43.2 172.59, -50.42 167.03, -56.55 160.09 C-62.67 153.15, -68.94 144.94, -73.34 135.35 C-77.75 125.75, -81.36 114.12, -82.96 102.54 C-84.56 90.97, -83.05 78.18, -82.96 65.9 C-82.86 53.61, -86.15 37.05, -82.4 28.83 C-78.64 20.61, -74.15 21.38, -60.42 16.57 C-46.69 11.77, -10.07 2.76, 0 0" stroke="#E1E1E1" stroke-width="4" fill="none"></path></g></g><mask></mask><g stroke-linecap="round"><g transform="translate(268.15716653904155 117.86333027071535) rotate(0 -1.839207023807866 59.500526092510896)"><path d="M0 0 C5.89 1.95, 27.64 8.97, 35.31 11.72 C42.98 14.48, 43.98 14.59, 46.01 16.53 C48.04 18.48, 47.18 17.31, 47.48 23.41 C47.78 29.5, 47.77 45.93, 47.83 53.11 C47.89 60.29, 48.51 61.92, 47.82 66.5 C47.14 71.07, 45.6 75.98, 43.71 80.57 C41.82 85.16, 39.58 89.87, 36.51 94.05 C33.44 98.22, 29.56 102.25, 25.3 105.62 C21.04 108.98, 15.25 112.01, 10.94 114.24 C6.64 116.47, 3.02 118.74, -0.54 119 C-4.1 119.26, -6.72 117.3, -10.42 115.78 C-14.11 114.27, -18.59 112.62, -22.71 109.89 C-26.82 107.16, -31.3 103.71, -35.11 99.4 C-38.91 95.09, -42.8 89.99, -45.54 84.03 C-48.27 78.08, -50.51 70.85, -51.51 63.67 C-52.5 56.48, -51.56 48.54, -51.5 40.91 C-51.45 33.29, -53.49 23.01, -51.16 17.9 C-48.83 12.8, -46.04 13.27, -37.51 10.29 C-28.99 7.31, -6.25 1.71, 0 0 M0 0 C5.89 1.95, 27.64 8.97, 35.31 11.72 C42.98 14.48, 43.98 14.59, 46.01 16.53 C48.04 18.48, 47.18 17.31, 47.48 23.41 C47.78 29.5, 47.77 45.93, 47.83 53.11 C47.89 60.29, 48.51 61.92, 47.82 66.5 C47.14 71.07, 45.6 75.98, 43.71 80.57 C41.82 85.16, 39.58 89.87, 36.51 94.05 C33.44 98.22, 29.56 102.25, 25.3 105.62 C21.04 108.98, 15.25 112.01, 10.94 114.24 C6.64 116.47, 3.02 118.74, -0.54 119 C-4.1 119.26, -6.72 117.3, -10.42 115.78 C-14.11 114.27, -18.59 112.62, -22.71 109.89 C-26.82 107.16, -31.3 103.71, -35.11 99.4 C-38.91 95.09, -42.8 89.99, -45.54 84.03 C-48.27 78.08, -50.51 70.85, -51.51 63.67 C-52.5 56.48, -51.56 48.54, -51.5 40.91 C-51.45 33.29, -53.49 23.01, -51.16 17.9 C-48.83 12.8, -46.04 13.27, -37.51 10.29 C-28.99 7.31, -6.25 1.71, 0 0" stroke="#E1E1E1" stroke-width="4" fill="none"></path></g></g><mask></mask><g stroke-linecap="round" transform="translate(57.51306584297433 116.2679800254123) rotate(316.19525634586233 4.906916443823874 13.714545227177343)"><path d="M2.45 0 C3.74 0, 5.03 0, 7.36 0 C9 0, 9.81 0.82, 9.81 2.45 C9.81 8.35, 9.81 14.25, 9.81 24.98 C9.81 26.61, 9 27.43, 7.36 27.43 C5.54 27.43, 3.71 27.43, 2.45 27.43 C0.82 27.43, 0 26.61, 0 24.98 C0 19.41, 0 13.83, 0 2.45 C0 0.82, 0.82 0, 2.45 0" stroke="none" stroke-width="0" fill="#E1E1E1"></path><path d="M2.45 0 C3.8 0, 5.15 0, 7.36 0 M2.45 0 C4.13 0, 5.81 0, 7.36 0 M7.36 0 C9 0, 9.81 0.82, 9.81 2.45 M7.36 0 C9 0, 9.81 0.82, 9.81 2.45 M9.81 2.45 C9.81 7.08, 9.81 11.71, 9.81 24.98 M9.81 2.45 C9.81 9.81, 9.81 17.18, 9.81 24.98 M9.81 24.98 C9.81 26.61, 9 27.43, 7.36 27.43 M9.81 24.98 C9.81 26.61, 9 27.43, 7.36 27.43 M7.36 27.43 C6.34 27.43, 5.32 27.43, 2.45 27.43 M7.36 27.43 C5.95 27.43, 4.55 27.43, 2.45 27.43 M2.45 27.43 C0.82 27.43, 0 26.61, 0 24.98 M2.45 27.43 C0.82 27.43, 0 26.61, 0 24.98 M0 24.98 C0 17.38, 0 9.79, 0 2.45 M0 24.98 C0 16.74, 0 8.51, 0 2.45 M0 2.45 C0 0.82, 0.82 0, 2.45 0 M0 2.45 C0 0.82, 0.82 0, 2.45 0" stroke="#E1E1E1" stroke-width="4" fill="none"></path></g><g stroke-linecap="round" transform="translate(77.71988624451794 96.75614258907129) rotate(44.99999999999995 5.088267183551309 25.04035725768837)"><path d="M2.54 0 C4.23 0, 5.91 0, 7.63 0 C9.33 0, 10.18 0.85, 10.18 2.54 C10.18 15.68, 10.18 28.82, 10.18 47.54 C10.18 49.23, 9.33 50.08, 7.63 50.08 C6.25 50.08, 4.87 50.08, 2.54 50.08 C0.85 50.08, 0 49.23, 0 47.54 C0 31.18, 0 14.83, 0 2.54 C0 0.85, 0.85 0, 2.54 0" stroke="none" stroke-width="0" fill="#E1E1E1"></path><path d="M2.54 0 C3.94 0, 5.33 0, 7.63 0 M2.54 0 C3.8 0, 5.06 0, 7.63 0 M7.63 0 C9.33 0, 10.18 0.85, 10.18 2.54 M7.63 0 C9.33 0, 10.18 0.85, 10.18 2.54 M10.18 2.54 C10.18 18.16, 10.18 33.77, 10.18 47.54 M10.18 2.54 C10.18 15.41, 10.18 28.28, 10.18 47.54 M10.18 47.54 C10.18 49.23, 9.33 50.08, 7.63 50.08 M10.18 47.54 C10.18 49.23, 9.33 50.08, 7.63 50.08 M7.63 50.08 C6.14 50.08, 4.64 50.08, 2.54 50.08 M7.63 50.08 C6.14 50.08, 4.64 50.08, 2.54 50.08 M2.54 50.08 C0.85 50.08, 0 49.23, 0 47.54 M2.54 50.08 C0.85 50.08, 0 49.23, 0 47.54 M0 47.54 C0 37.8, 0 28.07, 0 2.54 M0 47.54 C0 37.75, 0 27.96, 0 2.54 M0 2.54 C0 0.85, 0.85 0, 2.54 0 M0 2.54 C0 0.85, 0.85 0, 2.54 0" stroke="#E1E1E1" stroke-width="4" fill="none"></path></g><g stroke-linecap="round" transform="translate(56.788116876785324 188.39174892412714) rotate(316.19525634586233 4.906916443823874 13.714545227177341)"><path d="M2.45 0 C4.3 0, 6.14 0, 7.36 0 C9 0, 9.81 0.82, 9.81 2.45 C9.81 11.26, 9.81 20.07, 9.81 24.98 C9.81 26.61, 9 27.43, 7.36 27.43 C6.24 27.43, 5.12 27.43, 2.45 27.43 C0.82 27.43, 0 26.61, 0 24.98 C0 20.24, 0 15.5, 0 2.45 C0 0.82, 0.82 0, 2.45 0" stroke="none" stroke-width="0" fill="#E1E1E1"></path><path d="M2.45 0 C4.09 0, 5.73 0, 7.36 0 M2.45 0 C3.69 0, 4.92 0, 7.36 0 M7.36 0 C9 0, 9.81 0.82, 9.81 2.45 M7.36 0 C9 0, 9.81 0.82, 9.81 2.45 M9.81 2.45 C9.81 8.48, 9.81 14.51, 9.81 24.98 M9.81 2.45 C9.81 7.24, 9.81 12.04, 9.81 24.98 M9.81 24.98 C9.81 26.61, 9 27.43, 7.36 27.43 M9.81 24.98 C9.81 26.61, 9 27.43, 7.36 27.43 M7.36 27.43 C6.29 27.43, 5.22 27.43, 2.45 27.43 M7.36 27.43 C5.66 27.43, 3.96 27.43, 2.45 27.43 M2.45 27.43 C0.82 27.43, 0 26.61, 0 24.98 M2.45 27.43 C0.82 27.43, 0 26.61, 0 24.98 M0 24.98 C0 19.74, 0 14.5, 0 2.45 M0 24.98 C0 18.19, 0 11.41, 0 2.45 M0 2.45 C0 0.82, 0.82 0, 2.45 0 M0 2.45 C0 0.82, 0.82 0, 2.45 0" stroke="#E1E1E1" stroke-width="4" fill="none"></path></g><g stroke-linecap="round" transform="translate(76.99493727832984 168.8799114877843) rotate(44.99999999999995 5.088267183551309 25.04035725768837)"><path d="M2.54 0 C4.46 0, 6.38 0, 7.63 0 C9.33 0, 10.18 0.85, 10.18 2.54 C10.18 11.83, 10.18 21.12, 10.18 47.54 C10.18 49.23, 9.33 50.08, 7.63 50.08 C6.39 50.08, 5.15 50.08, 2.54 50.08 C0.85 50.08, 0 49.23, 0 47.54 C0 35.69, 0 23.84, 0 2.54 C0 0.85, 0.85 0, 2.54 0" stroke="none" stroke-width="0" fill="#E1E1E1"></path><path d="M2.54 0 C4.31 0, 6.07 0, 7.63 0 M2.54 0 C3.67 0, 4.79 0, 7.63 0 M7.63 0 C9.33 0, 10.18 0.85, 10.18 2.54 M7.63 0 C9.33 0, 10.18 0.85, 10.18 2.54 M10.18 2.54 C10.18 15.19, 10.18 27.83, 10.18 47.54 M10.18 2.54 C10.18 11.6, 10.18 20.65, 10.18 47.54 M10.18 47.54 C10.18 49.23, 9.33 50.08, 7.63 50.08 M10.18 47.54 C10.18 49.23, 9.33 50.08, 7.63 50.08 M7.63 50.08 C6.54 50.08, 5.44 50.08, 2.54 50.08 M7.63 50.08 C6.28 50.08, 4.93 50.08, 2.54 50.08 M2.54 50.08 C0.85 50.08, 0 49.23, 0 47.54 M2.54 50.08 C0.85 50.08, 0 49.23, 0 47.54 M0 47.54 C0 36.58, 0 25.63, 0 2.54 M0 47.54 C0 35.54, 0 23.55, 0 2.54 M0 2.54 C0 0.85, 0.85 0, 2.54 0 M0 2.54 C0 0.85, 0.85 0, 2.54 0" stroke="#E1E1E1" stroke-width="4" fill="none"></path></g><g stroke-linecap="round" transform="translate(56.8746492467553 263.21725070743787) rotate(316.19525634586233 4.906916443823874 13.71454522717734)"><path d="M2.45 0 C4.32 0, 6.18 0, 7.36 0 C9 0, 9.81 0.82, 9.81 2.45 C9.81 8.53, 9.81 14.62, 9.81 24.98 C9.81 26.61, 9 27.43, 7.36 27.43 C5.96 27.43, 4.57 27.43, 2.45 27.43 C0.82 27.43, 0 26.61, 0 24.98 C0 16.37, 0 7.76, 0 2.45 C0 0.82, 0.82 0, 2.45 0" stroke="none" stroke-width="0" fill="#E1E1E1"></path><path d="M2.45 0 C3.77 0, 5.09 0, 7.36 0 M2.45 0 C3.96 0, 5.47 0, 7.36 0 M7.36 0 C9 0, 9.81 0.82, 9.81 2.45 M7.36 0 C9 0, 9.81 0.82, 9.81 2.45 M9.81 2.45 C9.81 8.45, 9.81 14.45, 9.81 24.98 M9.81 2.45 C9.81 9.89, 9.81 17.33, 9.81 24.98 M9.81 24.98 C9.81 26.61, 9 27.43, 7.36 27.43 M9.81 24.98 C9.81 26.61, 9 27.43, 7.36 27.43 M7.36 27.43 C5.46 27.43, 3.57 27.43, 2.45 27.43 M7.36 27.43 C5.6 27.43, 3.84 27.43, 2.45 27.43 M2.45 27.43 C0.82 27.43, 0 26.61, 0 24.98 M2.45 27.43 C0.82 27.43, 0 26.61, 0 24.98 M0 24.98 C0 18.86, 0 12.75, 0 2.45 M0 24.98 C0 17.12, 0 9.27, 0 2.45 M0 2.45 C0 0.82, 0.82 0, 2.45 0 M0 2.45 C0 0.82, 0.82 0, 2.45 0" stroke="#E1E1E1" stroke-width="4" fill="none"></path></g><g stroke-linecap="round" transform="translate(77.0814696482989 243.70541327110053) rotate(44.99999999999995 5.088267183551309 25.040357257688374)"><path d="M2.54 0 C4.55 0, 6.55 0, 7.63 0 C9.33 0, 10.18 0.85, 10.18 2.54 C10.18 15.94, 10.18 29.34, 10.18 47.54 C10.18 49.23, 9.33 50.08, 7.63 50.08 C5.68 50.08, 3.73 50.08, 2.54 50.08 C0.85 50.08, 0 49.23, 0 47.54 C0 33.52, 0 19.51, 0 2.54 C0 0.85, 0.85 0, 2.54 0" stroke="none" stroke-width="0" fill="#E1E1E1"></path><path d="M2.54 0 C3.69 0, 4.83 0, 7.63 0 M2.54 0 C3.79 0, 5.03 0, 7.63 0 M7.63 0 C9.33 0, 10.18 0.85, 10.18 2.54 M7.63 0 C9.33 0, 10.18 0.85, 10.18 2.54 M10.18 2.54 C10.18 19.1, 10.18 35.67, 10.18 47.54 M10.18 2.54 C10.18 18.86, 10.18 35.17, 10.18 47.54 M10.18 47.54 C10.18 49.23, 9.33 50.08, 7.63 50.08 M10.18 47.54 C10.18 49.23, 9.33 50.08, 7.63 50.08 M7.63 50.08 C5.6 50.08, 3.58 50.08, 2.54 50.08 M7.63 50.08 C6.02 50.08, 4.41 50.08, 2.54 50.08 M2.54 50.08 C0.85 50.08, 0 49.23, 0 47.54 M2.54 50.08 C0.85 50.08, 0 49.23, 0 47.54 M0 47.54 C0 38.29, 0 29.04, 0 2.54 M0 47.54 C0 35.52, 0 23.51, 0 2.54 M0 2.54 C0 0.85, 0.85 0, 2.54 0 M0 2.54 C0 0.85, 0.85 0, 2.54 0" stroke="#E1E1E1" stroke-width="4" fill="none"></path></g><g stroke-linecap="round"><g transform="translate(125.4858067449845 105.85307612423142) rotate(0 32.686160549772964 -0.24421357746923888)"><path d="M0 0 C10.9 -0.08, 54.48 -0.41, 65.37 -0.49 M0 0 C10.9 -0.08, 54.48 -0.41, 65.37 -0.49" stroke="#E1E1E1" stroke-width="4" fill="none"></path></g></g><mask></mask><g stroke-linecap="round"><g transform="translate(125.65310266025878 135.7355878869935) rotate(0 20.270688400719603 -0.21248504181370365)"><path d="M0 0 C6.76 -0.07, 33.78 -0.35, 40.54 -0.42 M0 0 C6.76 -0.07, 33.78 -0.35, 40.54 -0.42" stroke="#E1E1E1" stroke-width="4" fill="none"></path></g></g><mask></mask><g stroke-linecap="round"><g transform="translate(126.24921454227021 178.8479375473021) rotate(0 28.842200381576934 -0.1528738536125855)"><path d="M0 0 C9.61 -0.05, 48.07 -0.25, 57.68 -0.31 M0 0 C9.61 -0.05, 48.07 -0.25, 57.68 -0.31" stroke="#E1E1E1" stroke-width="4" fill="none"></path></g></g><mask></mask><g stroke-linecap="round"><g transform="translate(126.10499392565495 209.78614422369404) rotate(0 20.58124346183197 -0.05576530509133448)"><path d="M0 0 C6.86 -0.02, 34.3 -0.09, 41.16 -0.11 M0 0 C6.86 -0.02, 34.3 -0.09, 41.16 -0.11" stroke="#E1E1E1" stroke-width="4" fill="none"></path></g></g><mask></mask><g stroke-linecap="round"><g transform="translate(126.55688519105021 251.8562595612589) rotate(0 35.002343652620425 -0.061534129755933975)"><path d="M0 0 C11.67 -0.02, 58.34 -0.1, 70 -0.12 M0 0 C11.67 -0.02, 58.34 -0.1, 70 -0.12" stroke="#E1E1E1" stroke-width="4" fill="none"></path></g></g><mask></mask><g stroke-linecap="round"><g transform="translate(125.70117619913069 281.69838955137175) rotate(0 28.16436348348331 -0.2980559410057566)"><path d="M0 0 C9.39 -0.1, 46.94 -0.5, 56.33 -0.6 M0 0 C9.39 -0.1, 46.94 -0.5, 56.33 -0.6" stroke="#E1E1E1" stroke-width="4" fill="none"></path></g></g><mask></mask><g stroke-linecap="round" transform="translate(104.33398809754632 337.5526388050407) rotate(0 5.997980059320717 5.997980059320724)"><path d="M12 6 C12 6.35, 11.97 6.7, 11.9 7.04 C11.84 7.38, 11.75 7.72, 11.63 8.05 C11.52 8.38, 11.37 8.7, 11.19 9 C11.02 9.3, 10.82 9.59, 10.59 9.85 C10.37 10.12, 10.12 10.37, 9.85 10.59 C9.59 10.82, 9.3 11.02, 9 11.19 C8.7 11.37, 8.38 11.52, 8.05 11.63 C7.72 11.75, 7.38 11.84, 7.04 11.9 C6.7 11.97, 6.35 12, 6 12 C5.65 12, 5.3 11.97, 4.96 11.9 C4.61 11.84, 4.27 11.75, 3.95 11.63 C3.62 11.52, 3.3 11.37, 3 11.19 C2.7 11.02, 2.41 10.82, 2.14 10.59 C1.88 10.37, 1.63 10.12, 1.4 9.85 C1.18 9.59, 0.98 9.3, 0.8 9 C0.63 8.7, 0.48 8.38, 0.36 8.05 C0.24 7.72, 0.15 7.38, 0.09 7.04 C0.03 6.7, 0 6.35, 0 6 C0 5.65, 0.03 5.3, 0.09 4.96 C0.15 4.61, 0.24 4.27, 0.36 3.95 C0.48 3.62, 0.63 3.3, 0.8 3 C0.98 2.7, 1.18 2.41, 1.4 2.14 C1.63 1.88, 1.88 1.63, 2.14 1.4 C2.41 1.18, 2.7 0.98, 3 0.8 C3.3 0.63, 3.62 0.48, 3.95 0.36 C4.27 0.24, 4.61 0.15, 4.96 0.09 C5.3 0.03, 5.65 0, 6 0 C6.35 0, 6.7 0.03, 7.04 0.09 C7.38 0.15, 7.72 0.24, 8.05 0.36 C8.38 0.48, 8.7 0.63, 9 0.8 C9.3 0.98, 9.59 1.18, 9.85 1.4 C10.12 1.63, 10.37 1.88, 10.59 2.14 C10.82 2.41, 11.02 2.7, 11.19 3 C11.37 3.3, 11.52 3.62, 11.63 3.95 C11.75 4.27, 11.84 4.61, 11.9 4.96 C11.97 5.3, 11.98 5.82, 12 6 C12.01 6.17, 12.01 5.82, 12 6" stroke="#E1E1E1" stroke-width="4" fill="none"></path></g><g stroke-linecap="round"><g transform="translate(264.51637777309224 132.2760867637867) rotate(0 1.814725006387775 29.3618374014753)"><path d="M0 0 C-0.44 -0.15, -1.96 -0.71, -2.67 -0.92 C-3.38 -1.13, -3.65 -1.25, -4.25 -1.27 C-4.85 -1.3, -5.63 -1.25, -6.29 -1.09 C-6.95 -0.93, -7.7 -0.65, -8.21 -0.34 C-8.72 -0.03, -9.04 0.35, -9.37 0.77 C-9.7 1.19, -9.82 1.69, -10.18 2.18 C-10.53 2.67, -11.02 3.3, -11.5 3.72 C-11.97 4.15, -12.48 4.51, -13.03 4.76 C-13.59 5, -14.13 5.09, -14.83 5.2 C-15.52 5.3, -16.54 5.28, -17.21 5.4 C-17.88 5.52, -18.28 5.6, -18.85 5.9 C-19.41 6.19, -20.1 6.69, -20.6 7.17 C-21.1 7.64, -21.55 8.14, -21.85 8.75 C-22.14 9.36, -22.28 10.11, -22.36 10.81 C-22.44 11.51, -22.24 12.28, -22.32 12.94 C-22.41 13.6, -22.54 14.23, -22.89 14.78 C-23.24 15.33, -23.83 15.77, -24.42 16.24 C-25.01 16.7, -25.86 17.11, -26.43 17.56 C-27 18, -27.46 18.32, -27.83 18.92 C-28.21 19.53, -28.52 20.41, -28.71 21.17 C-28.89 21.92, -29.03 22.71, -28.95 23.44 C-28.87 24.18, -28.54 24.9, -28.25 25.58 C-27.96 26.27, -27.41 26.84, -27.21 27.56 C-27 28.29, -26.93 29.21, -27.03 29.93 C-27.12 30.64, -27.5 31.21, -27.76 31.84 C-28.03 32.47, -28.4 33.06, -28.61 33.7 C-28.82 34.34, -29.05 34.97, -29.01 35.7 C-28.97 36.43, -28.68 37.41, -28.36 38.07 C-28.03 38.74, -27.52 39.2, -27.06 39.72 C-26.6 40.23, -26.14 40.66, -25.6 41.19 C-25.06 41.72, -24.32 42.29, -23.83 42.88 C-23.33 43.47, -22.88 44, -22.62 44.74 C-22.36 45.47, -22.35 46.56, -22.27 47.29 C-22.19 48.03, -22.28 48.59, -22.15 49.17 C-22.01 49.76, -21.89 50.28, -21.46 50.8 C-21.03 51.33, -20.27 51.92, -19.58 52.32 C-18.89 52.71, -18.2 53.02, -17.34 53.18 C-16.48 53.35, -15.33 53.1, -14.45 53.31 C-13.56 53.52, -12.65 54.08, -12.03 54.46 C-11.42 54.84, -11.21 55.05, -10.78 55.61 C-10.34 56.17, -9.95 57.23, -9.42 57.82 C-8.9 58.41, -8.42 58.79, -7.61 59.17 C-6.81 59.54, -5.6 60.05, -4.59 60.06 C-3.58 60.07, -2.46 59.54, -1.57 59.24 C-0.67 58.94, -0.07 58.4, 0.78 58.26 C1.64 58.11, 2.68 58.15, 3.56 58.37 C4.43 58.59, 5.02 59.33, 6.04 59.58 C7.06 59.83, 8.59 60.02, 9.66 59.85 C10.73 59.68, 11.71 59.13, 12.46 58.57 C13.21 58.01, 13.57 57.15, 14.14 56.48 C14.71 55.81, 15.26 55.08, 15.87 54.56 C16.49 54.04, 17.08 53.59, 17.85 53.37 C18.62 53.14, 19.54 53.42, 20.48 53.2 C21.42 52.98, 22.71 52.59, 23.51 52.03 C24.31 51.48, 24.85 50.67, 25.28 49.88 C25.71 49.09, 25.93 48.11, 26.08 47.31 C26.24 46.5, 25.96 45.87, 26.2 45.06 C26.43 44.24, 26.83 43.16, 27.49 42.44 C28.16 41.71, 29.43 41.37, 30.18 40.72 C30.93 40.06, 31.57 39.41, 31.98 38.5 C32.39 37.6, 32.67 36.35, 32.64 35.31 C32.6 34.26, 32.1 33.23, 31.76 32.22 C31.42 31.22, 30.66 30.28, 30.59 29.27 C30.53 28.25, 31.05 27.17, 31.38 26.15 C31.7 25.13, 32.45 24.15, 32.56 23.14 C32.68 22.14, 32.39 20.98, 32.08 20.1 C31.78 19.22, 31.38 18.56, 30.72 17.85 C30.06 17.14, 28.87 16.62, 28.13 15.86 C27.4 15.09, 26.71 14.37, 26.3 13.26 C25.9 12.15, 26.26 10.43, 25.71 9.19 C25.17 7.95, 24.23 6.57, 23.05 5.81 C21.88 5.05, 19.98 5.03, 18.67 4.65 C17.35 4.26, 16.15 4.22, 15.16 3.5 C14.17 2.78, 13.65 1.11, 12.74 0.3 C11.82 -0.5, 10.8 -1.11, 9.66 -1.34 C8.53 -1.57, 7.08 -1.32, 5.94 -1.08 C4.81 -0.84, 3.85 -0.08, 2.86 0.1 C1.87 0.28, 0.48 0.02, 0 0 M0 0 C-0.44 -0.15, -1.96 -0.71, -2.67 -0.92 C-3.38 -1.13, -3.65 -1.25, -4.25 -1.27 C-4.85 -1.3, -5.63 -1.25, -6.29 -1.09 C-6.95 -0.93, -7.7 -0.65, -8.21 -0.34 C-8.72 -0.03, -9.04 0.35, -9.37 0.77 C-9.7 1.19, -9.82 1.69, -10.18 2.18 C-10.53 2.67, -11.02 3.3, -11.5 3.72 C-11.97 4.15, -12.48 4.51, -13.03 4.76 C-13.59 5, -14.13 5.09, -14.83 5.2 C-15.52 5.3, -16.54 5.28, -17.21 5.4 C-17.88 5.52, -18.28 5.6, -18.85 5.9 C-19.41 6.19, -20.1 6.69, -20.6 7.17 C-21.1 7.64, -21.55 8.14, -21.85 8.75 C-22.14 9.36, -22.28 10.11, -22.36 10.81 C-22.44 11.51, -22.24 12.28, -22.32 12.94 C-22.41 13.6, -22.54 14.23, -22.89 14.78 C-23.24 15.33, -23.83 15.77, -24.42 16.24 C-25.01 16.7, -25.86 17.11, -26.43 17.56 C-27 18, -27.46 18.32, -27.83 18.92 C-28.21 19.53, -28.52 20.41, -28.71 21.17 C-28.89 21.92, -29.03 22.71, -28.95 23.44 C-28.87 24.18, -28.54 24.9, -28.25 25.58 C-27.96 26.27, -27.41 26.84, -27.21 27.56 C-27 28.29, -26.93 29.21, -27.03 29.93 C-27.12 30.64, -27.5 31.21, -27.76 31.84 C-28.03 32.47, -28.4 33.06, -28.61 33.7 C-28.82 34.34, -29.05 34.97, -29.01 35.7 C-28.97 36.43, -28.68 37.41, -28.36 38.07 C-28.03 38.74, -27.52 39.2, -27.06 39.72 C-26.6 40.23, -26.14 40.66, -25.6 41.19 C-25.06 41.72, -24.32 42.29, -23.83 42.88 C-23.33 43.47, -22.88 44, -22.62 44.74 C-22.36 45.47, -22.35 46.56, -22.27 47.29 C-22.19 48.03, -22.28 48.59, -22.15 49.17 C-22.01 49.76, -21.89 50.28, -21.46 50.8 C-21.03 51.33, -20.27 51.92, -19.58 52.32 C-18.89 52.71, -18.2 53.02, -17.34 53.18 C-16.48 53.35, -15.33 53.1, -14.45 53.31 C-13.56 53.52, -12.65 54.08, -12.03 54.46 C-11.42 54.84, -11.21 55.05, -10.78 55.61 C-10.34 56.17, -9.95 57.23, -9.42 57.82 C-8.9 58.41, -8.42 58.79, -7.61 59.17 C-6.81 59.54, -5.6 60.05, -4.59 60.06 C-3.58 60.07, -2.46 59.54, -1.57 59.24 C-0.67 58.94, -0.07 58.4, 0.78 58.26 C1.64 58.11, 2.68 58.15, 3.56 58.37 C4.43 58.59, 5.02 59.33, 6.04 59.58 C7.06 59.83, 8.59 60.02, 9.66 59.85 C10.73 59.68, 11.71 59.13, 12.46 58.57 C13.21 58.01, 13.57 57.15, 14.14 56.48 C14.71 55.81, 15.26 55.08, 15.87 54.56 C16.49 54.04, 17.08 53.59, 17.85 53.37 C18.62 53.14, 19.54 53.42, 20.48 53.2 C21.42 52.98, 22.71 52.59, 23.51 52.03 C24.31 51.48, 24.85 50.67, 25.28 49.88 C25.71 49.09, 25.93 48.11, 26.08 47.31 C26.24 46.5, 25.96 45.87, 26.2 45.06 C26.43 44.24, 26.83 43.16, 27.49 42.44 C28.16 41.71, 29.43 41.37, 30.18 40.72 C30.93 40.06, 31.57 39.41, 31.98 38.5 C32.39 37.6, 32.67 36.35, 32.64 35.31 C32.6 34.26, 32.1 33.23, 31.76 32.22 C31.42 31.22, 30.66 30.28, 30.59 29.27 C30.53 28.25, 31.05 27.17, 31.38 26.15 C31.7 25.13, 32.45 24.15, 32.56 23.14 C32.68 22.14, 32.39 20.98, 32.08 20.1 C31.78 19.22, 31.38 18.56, 30.72 17.85 C30.06 17.14, 28.87 16.62, 28.13 15.86 C27.4 15.09, 26.71 14.37, 26.3 13.26 C25.9 12.15, 26.26 10.43, 25.71 9.19 C25.17 7.95, 24.23 6.57, 23.05 5.81 C21.88 5.05, 19.98 5.03, 18.67 4.65 C17.35 4.26, 16.15 4.22, 15.16 3.5 C14.17 2.78, 13.65 1.11, 12.74 0.3 C11.82 -0.5, 10.8 -1.11, 9.66 -1.34 C8.53 -1.57, 7.08 -1.32, 5.94 -1.08 C4.81 -0.84, 3.85 -0.08, 2.86 0.1 C1.87 0.28, 0.48 0.02, 0 0" stroke="#E1E1E1" stroke-width="4" fill="none"></path></g></g><mask></mask><g stroke-linecap="round" transform="translate(244.09248148277626 139.19211315710757) rotate(0 22.221190776411177 22.221190776411177)"><path d="M44.44 22.22 C44.44 23.51, 44.33 24.81, 44.1 26.08 C43.88 27.35, 43.54 28.61, 43.1 29.82 C42.66 31.03, 42.11 32.22, 41.47 33.33 C40.82 34.45, 40.07 35.52, 39.24 36.5 C38.42 37.49, 37.49 38.42, 36.5 39.24 C35.52 40.07, 34.45 40.82, 33.33 41.47 C32.22 42.11, 31.03 42.66, 29.82 43.1 C28.61 43.54, 27.35 43.88, 26.08 44.1 C24.81 44.33, 23.51 44.44, 22.22 44.44 C20.93 44.44, 19.63 44.33, 18.36 44.1 C17.1 43.88, 15.83 43.54, 14.62 43.1 C13.41 42.66, 12.22 42.11, 11.11 41.47 C10 40.82, 8.92 40.07, 7.94 39.24 C6.95 38.42, 6.03 37.49, 5.2 36.5 C4.37 35.52, 3.62 34.45, 2.98 33.33 C2.33 32.22, 1.78 31.03, 1.34 29.82 C0.9 28.61, 0.56 27.35, 0.34 26.08 C0.11 24.81, 0 23.51, 0 22.22 C0 20.93, 0.11 19.63, 0.34 18.36 C0.56 17.1, 0.9 15.83, 1.34 14.62 C1.78 13.41, 2.33 12.22, 2.98 11.11 C3.62 10, 4.37 8.92, 5.2 7.94 C6.03 6.95, 6.95 6.03, 7.94 5.2 C8.92 4.37, 10 3.62, 11.11 2.98 C12.22 2.33, 13.41 1.78, 14.62 1.34 C15.83 0.9, 17.1 0.56, 18.36 0.34 C19.63 0.11, 20.93 0, 22.22 0 C23.51 0, 24.81 0.11, 26.08 0.34 C27.35 0.56, 28.61 0.9, 29.82 1.34 C31.03 1.78, 32.22 2.33, 33.33 2.98 C34.45 3.62, 35.52 4.37, 36.5 5.2 C37.49 6.03, 38.42 6.95, 39.24 7.94 C40.07 8.92, 40.82 10, 41.47 11.11 C42.11 12.22, 42.66 13.41, 43.1 14.62 C43.54 15.83, 43.88 17.1, 44.1 18.36 C44.33 19.63, 44.39 21.58, 44.44 22.22 C44.5 22.86, 44.5 21.58, 44.44 22.22" stroke="#E1E1E1" stroke-width="4" fill="none"></path></g><g stroke-linecap="round"><g transform="translate(248.74501709820422 188.94729179796425) rotate(0 6.601707759983569 12.580464726564836)"><path d="M0 0 C-0.76 2.43, -3.65 11.73, -4.55 14.57 C-5.45 17.4, -5.19 16.32, -5.41 17 C-5.63 17.68, -5.88 18.21, -5.85 18.66 C-5.81 19.12, -5.74 19.73, -5.22 19.73 C-4.7 19.73, -3.74 19.12, -2.74 18.63 C-1.75 18.15, -0.42 17.43, 0.74 16.84 C1.91 16.24, 3.4 15.45, 4.24 15.06 C5.08 14.67, 5.37 14.32, 5.79 14.5 C6.21 14.68, 6.18 15.09, 6.76 16.15 C7.34 17.21, 8.55 19.53, 9.27 20.86 C9.99 22.2, 10.63 23.42, 11.08 24.14 C11.52 24.85, 11.64 25.2, 11.95 25.16 C12.26 25.12, 12.58 24.69, 12.96 23.9 C13.33 23.12, 13.66 22.02, 14.19 20.45 C14.73 18.87, 15.56 16.25, 16.17 14.45 C16.78 12.64, 17.36 11.01, 17.84 9.61 C18.32 8.22, 18.96 6.84, 19.05 6.06 C19.14 5.27, 18.79 5.08, 18.4 4.9 C18.02 4.72, 17.36 4.77, 16.73 4.97 C16.09 5.17, 15.31 5.82, 14.6 6.08 C13.89 6.35, 13.25 6.47, 12.47 6.55 C11.7 6.64, 10.74 6.68, 9.96 6.6 C9.18 6.52, 8.49 6.33, 7.81 6.1 C7.13 5.87, 6.49 5.6, 5.87 5.22 C5.24 4.83, 4.55 4.28, 4.06 3.79 C3.57 3.3, 3.35 2.85, 2.92 2.29 C2.5 1.74, 1.99 0.85, 1.5 0.47 C1.01 0.09, 0.25 0.08, 0 0 M0 0 C-0.76 2.43, -3.65 11.73, -4.55 14.57 C-5.45 17.4, -5.19 16.32, -5.41 17 C-5.63 17.68, -5.88 18.21, -5.85 18.66 C-5.81 19.12, -5.74 19.73, -5.22 19.73 C-4.7 19.73, -3.74 19.12, -2.74 18.63 C-1.75 18.15, -0.42 17.43, 0.74 16.84 C1.91 16.24, 3.4 15.45, 4.24 15.06 C5.08 14.67, 5.37 14.32, 5.79 14.5 C6.21 14.68, 6.18 15.09, 6.76 16.15 C7.34 17.21, 8.55 19.53, 9.27 20.86 C9.99 22.2, 10.63 23.42, 11.08 24.14 C11.52 24.85, 11.64 25.2, 11.95 25.16 C12.26 25.12, 12.58 24.69, 12.96 23.9 C13.33 23.12, 13.66 22.02, 14.19 20.45 C14.73 18.87, 15.56 16.25, 16.17 14.45 C16.78 12.64, 17.36 11.01, 17.84 9.61 C18.32 8.22, 18.96 6.84, 19.05 6.06 C19.14 5.27, 18.79 5.08, 18.4 4.9 C18.02 4.72, 17.36 4.77, 16.73 4.97 C16.09 5.17, 15.31 5.82, 14.6 6.08 C13.89 6.35, 13.25 6.47, 12.47 6.55 C11.7 6.64, 10.74 6.68, 9.96 6.6 C9.18 6.52, 8.49 6.33, 7.81 6.1 C7.13 5.87, 6.49 5.6, 5.87 5.22 C5.24 4.83, 4.55 4.28, 4.06 3.79 C3.57 3.3, 3.35 2.85, 2.92 2.29 C2.5 1.74, 1.99 0.85, 1.5 0.47 C1.01 0.09, 0.25 0.08, 0 0" stroke="#E1E1E1" stroke-width="4" fill="none"></path></g></g><mask></mask><g stroke-linecap="round"><g transform="translate(270.9449086683526 195.30141639117258) rotate(0 8.498383045638676 7.441239599510613)"><path d="M0 0 C-0.39 1.17, -1.88 5.58, -2.36 7.03 C-2.84 8.47, -2.87 8.09, -2.89 8.67 C-2.91 9.25, -2.83 9.3, -2.47 10.49 C-2.11 11.69, -1.21 14.36, -0.74 15.84 C-0.27 17.31, 0.02 18.47, 0.35 19.36 C0.67 20.26, 0.84 20.99, 1.21 21.21 C1.59 21.43, 2.11 21.3, 2.62 20.67 C3.12 20.05, 3.66 18.57, 4.23 17.46 C4.8 16.35, 5.47 15.08, 6.06 13.99 C6.66 12.91, 7.2 11.43, 7.8 10.95 C8.41 10.46, 8.94 10.83, 9.67 11.08 C10.4 11.33, 11.1 11.9, 12.18 12.45 C13.26 13.01, 15.05 13.91, 16.15 14.42 C17.24 14.94, 18.11 15.45, 18.74 15.53 C19.36 15.62, 19.83 15.45, 19.89 14.91 C19.95 14.37, 19.52 13.57, 19.09 12.28 C18.66 10.99, 17.96 9.18, 17.3 7.17 C16.63 5.15, 15.75 2.12, 15.12 0.2 C14.48 -1.71, 13.88 -3.25, 13.5 -4.34 C13.13 -5.42, 13.18 -6.03, 12.86 -6.33 C12.53 -6.63, 11.97 -6.34, 11.56 -6.13 C11.14 -5.92, 10.8 -5.6, 10.35 -5.08 C9.91 -4.55, 9.42 -3.59, 8.87 -2.96 C8.32 -2.34, 7.71 -1.73, 7.03 -1.31 C6.36 -0.9, 5.64 -0.69, 4.85 -0.46 C4.05 -0.23, 3.06 -0.01, 2.26 0.07 C1.45 0.15, 0.38 0.01, 0 0 M0 0 C-0.39 1.17, -1.88 5.58, -2.36 7.03 C-2.84 8.47, -2.87 8.09, -2.89 8.67 C-2.91 9.25, -2.83 9.3, -2.47 10.49 C-2.11 11.69, -1.21 14.36, -0.74 15.84 C-0.27 17.31, 0.02 18.47, 0.35 19.36 C0.67 20.26, 0.84 20.99, 1.21 21.21 C1.59 21.43, 2.11 21.3, 2.62 20.67 C3.12 20.05, 3.66 18.57, 4.23 17.46 C4.8 16.35, 5.47 15.08, 6.06 13.99 C6.66 12.91, 7.2 11.43, 7.8 10.95 C8.41 10.46, 8.94 10.83, 9.67 11.08 C10.4 11.33, 11.1 11.9, 12.18 12.45 C13.26 13.01, 15.05 13.91, 16.15 14.42 C17.24 14.94, 18.11 15.45, 18.74 15.53 C19.36 15.62, 19.83 15.45, 19.89 14.91 C19.95 14.37, 19.52 13.57, 19.09 12.28 C18.66 10.99, 17.96 9.18, 17.3 7.17 C16.63 5.15, 15.75 2.12, 15.12 0.2 C14.48 -1.71, 13.88 -3.25, 13.5 -4.34 C13.13 -5.42, 13.18 -6.03, 12.86 -6.33 C12.53 -6.63, 11.97 -6.34, 11.56 -6.13 C11.14 -5.92, 10.8 -5.6, 10.35 -5.08 C9.91 -4.55, 9.42 -3.59, 8.87 -2.96 C8.32 -2.34, 7.71 -1.73, 7.03 -1.31 C6.36 -0.9, 5.64 -0.69, 4.85 -0.46 C4.05 -0.23, 3.06 -0.01, 2.26 0.07 C1.45 0.15, 0.38 0.01, 0 0" stroke="#E1E1E1" stroke-width="4" fill="none"></path></g></g><mask></mask><g stroke-linecap="round"><g transform="translate(262.9659523525652 163.3463559357065) rotate(0 3.488467261915261 -1.952904677523021)"><path d="M0 0 C-0.38 -0.39, -1.56 -1.61, -2.3 -2.34 C-3.05 -3.07, -3.9 -3.85, -4.48 -4.36 C-5.06 -4.88, -5.27 -5.17, -5.77 -5.42 C-6.27 -5.67, -6.94 -5.84, -7.5 -5.84 C-8.07 -5.84, -8.71 -5.65, -9.17 -5.39 C-9.63 -5.14, -9.98 -4.7, -10.27 -4.31 C-10.57 -3.92, -10.84 -3.54, -10.94 -3.05 C-11.05 -2.56, -11 -1.89, -10.9 -1.37 C-10.8 -0.84, -10.81 -0.55, -10.32 0.08 C-9.84 0.72, -8.86 1.57, -7.99 2.44 C-7.11 3.3, -5.93 4.44, -5.08 5.29 C-4.23 6.14, -3.54 6.99, -2.88 7.55 C-2.22 8.1, -1.74 8.43, -1.13 8.62 C-0.52 8.81, 0.18 8.78, 0.78 8.69 C1.39 8.6, 1.7 8.72, 2.51 8.09 C3.31 7.46, 4.46 6.12, 5.63 4.91 C6.8 3.7, 8.25 2.17, 9.55 0.82 C10.85 -0.52, 12.31 -2.01, 13.44 -3.15 C14.58 -4.29, 15.67 -5.32, 16.37 -6.04 C17.07 -6.77, 17.37 -6.88, 17.63 -7.49 C17.89 -8.09, 18.01 -9.03, 17.92 -9.68 C17.82 -10.32, 17.45 -10.9, 17.06 -11.37 C16.67 -11.84, 16.15 -12.29, 15.58 -12.49 C15.02 -12.7, 14.28 -12.66, 13.69 -12.59 C13.09 -12.53, 12.69 -12.58, 12.03 -12.11 C11.36 -11.64, 10.54 -10.64, 9.68 -9.78 C8.82 -8.91, 7.89 -7.92, 6.87 -6.9 C5.85 -5.89, 4.49 -4.61, 3.56 -3.69 C2.63 -2.76, 1.9 -1.97, 1.3 -1.36 C0.71 -0.74, 0.22 -0.23, 0 0 M0 0 C-0.38 -0.39, -1.56 -1.61, -2.3 -2.34 C-3.05 -3.07, -3.9 -3.85, -4.48 -4.36 C-5.06 -4.88, -5.27 -5.17, -5.77 -5.42 C-6.27 -5.67, -6.94 -5.84, -7.5 -5.84 C-8.07 -5.84, -8.71 -5.65, -9.17 -5.39 C-9.63 -5.14, -9.98 -4.7, -10.27 -4.31 C-10.57 -3.92, -10.84 -3.54, -10.94 -3.05 C-11.05 -2.56, -11 -1.89, -10.9 -1.37 C-10.8 -0.84, -10.81 -0.55, -10.32 0.08 C-9.84 0.72, -8.86 1.57, -7.99 2.44 C-7.11 3.3, -5.93 4.44, -5.08 5.29 C-4.23 6.14, -3.54 6.99, -2.88 7.55 C-2.22 8.1, -1.74 8.43, -1.13 8.62 C-0.52 8.81, 0.18 8.78, 0.78 8.69 C1.39 8.6, 1.7 8.72, 2.51 8.09 C3.31 7.46, 4.46 6.12, 5.63 4.91 C6.8 3.7, 8.25 2.17, 9.55 0.82 C10.85 -0.52, 12.31 -2.01, 13.44 -3.15 C14.58 -4.29, 15.67 -5.32, 16.37 -6.04 C17.07 -6.77, 17.37 -6.88, 17.63 -7.49 C17.89 -8.09, 18.01 -9.03, 17.92 -9.68 C17.82 -10.32, 17.45 -10.9, 17.06 -11.37 C16.67 -11.84, 16.15 -12.29, 15.58 -12.49 C15.02 -12.7, 14.28 -12.66, 13.69 -12.59 C13.09 -12.53, 12.69 -12.58, 12.03 -12.11 C11.36 -11.64, 10.54 -10.64, 9.68 -9.78 C8.82 -8.91, 7.89 -7.92, 6.87 -6.9 C5.85 -5.89, 4.49 -4.61, 3.56 -3.69 C2.63 -2.76, 1.9 -1.97, 1.3 -1.36 C0.71 -0.74, 0.22 -0.23, 0 0" stroke="#E1E1E1" stroke-width="4" fill="none"></path></g></g><mask></mask></svg>