<svg version="1.1" xmlns="http://www.w3.org/2000/svg" viewBox="0 0 394.4069066134967 394.08074568181087" width="394.4069066134967" height="394.08074568181087" class="excalidraw-svg">
  <!-- svg-source:excalidraw -->
  
  <defs>
    <style class="style-fonts">
      
    </style>
    
  </defs>
  <rect x="0" y="0" width="394.4069066134967" height="394.08074568181087" fill="#000000"></rect><g stroke-linecap="round"><g transform="translate(86.89352107262808 231.34425527215097) rotate(0 99.82056371775202 28.47213177355512)"><path d="M0 0 C3.68 -1.81, 15.32 -6.82, 22.1 -10.89 C28.89 -14.95, 35.42 -18.69, 40.7 -24.37 C45.98 -30.06, 50.09 -36.31, 53.77 -44.98 C57.45 -53.64, 60.2 -67.99, 62.79 -76.37 C65.38 -84.75, 65.52 -92.69, 69.3 -95.28 C73.07 -97.86, 80.45 -93.84, 85.44 -91.87 C90.44 -89.91, 95.77 -87.49, 99.27 -83.48 C102.77 -79.47, 105.23 -73.96, 106.42 -67.82 C107.61 -61.67, 107.8 -54.37, 106.44 -46.61 C105.08 -38.84, 100.16 -27.29, 98.28 -21.23 C96.4 -15.17, 92.95 -12.03, 95.16 -10.24 C97.36 -8.46, 103.11 -10.46, 111.49 -10.51 C119.86 -10.55, 135.85 -10.59, 145.4 -10.51 C154.95 -10.42, 163.1 -11.21, 168.78 -10.01 C174.46 -8.82, 177.08 -6.42, 179.49 -3.34 C181.9 -0.26, 182.89 4.64, 183.23 8.47 C183.57 12.29, 183.36 16.3, 181.54 19.63 C179.72 22.95, 177.75 26.65, 172.31 28.4 C166.87 30.16, 157.59 29.86, 148.9 30.15 C140.21 30.44, 117.12 30.15, 120.15 30.15 C123.18 30.15, 155.8 30, 167.08 30.15 C178.35 30.3, 182.38 29.38, 187.81 31.06 C193.24 32.74, 197.7 35.38, 199.64 40.23 C201.59 45.08, 201.95 55.17, 199.48 60.16 C197 65.15, 192.77 68.49, 184.8 70.16 C176.84 71.83, 162.87 70.16, 151.68 70.16 C140.48 70.16, 116.01 70.16, 117.62 70.16 C119.23 70.16, 150.32 69.04, 161.34 70.16 C172.37 71.28, 179.25 73, 183.77 76.86 C188.29 80.72, 189.03 88.7, 188.47 93.32 C187.9 97.93, 184.47 101.94, 180.39 104.57 C176.3 107.21, 171.85 108.38, 163.93 109.14 C156.01 109.9, 140.81 109.14, 132.88 109.14 C124.95 109.14, 114.21 109.14, 116.34 109.14 C118.47 109.14, 138.2 109.14, 145.66 109.14 C153.12 109.14, 157.03 107.76, 161.09 109.14 C165.15 110.51, 168.2 113.28, 170.01 117.4 C171.83 121.52, 172.41 129.22, 171.98 133.84 C171.54 138.46, 170 142.28, 167.39 145.11 C164.78 147.95, 163.24 149.64, 156.33 150.82 C149.42 152.01, 137.19 151.99, 125.93 152.22 C114.67 152.45, 100.56 152.22, 88.77 152.22 C76.97 152.22, 63.93 152.22, 55.15 152.22 C46.37 152.22, 42.99 153.38, 36.1 152.22 C29.21 151.06, 19.68 147.65, 13.82 145.27 C7.97 142.88, 3.11 139.14, 0.97 137.91 M0 0 C3.68 -1.81, 15.32 -6.82, 22.1 -10.89 C28.89 -14.95, 35.42 -18.69, 40.7 -24.37 C45.98 -30.06, 50.09 -36.31, 53.77 -44.98 C57.45 -53.64, 60.2 -67.99, 62.79 -76.37 C65.38 -84.75, 65.52 -92.69, 69.3 -95.28 C73.07 -97.86, 80.45 -93.84, 85.44 -91.87 C90.44 -89.91, 95.77 -87.49, 99.27 -83.48 C102.77 -79.47, 105.23 -73.96, 106.42 -67.82 C107.61 -61.67, 107.8 -54.37, 106.44 -46.61 C105.08 -38.84, 100.16 -27.29, 98.28 -21.23 C96.4 -15.17, 92.95 -12.03, 95.16 -10.24 C97.36 -8.46, 103.11 -10.46, 111.49 -10.51 C119.86 -10.55, 135.85 -10.59, 145.4 -10.51 C154.95 -10.42, 163.1 -11.21, 168.78 -10.01 C174.46 -8.82, 177.08 -6.42, 179.49 -3.34 C181.9 -0.26, 182.89 4.64, 183.23 8.47 C183.57 12.29, 183.36 16.3, 181.54 19.63 C179.72 22.95, 177.75 26.65, 172.31 28.4 C166.87 30.16, 157.59 29.86, 148.9 30.15 C140.21 30.44, 117.12 30.15, 120.15 30.15 C123.18 30.15, 155.8 30, 167.08 30.15 C178.35 30.3, 182.38 29.38, 187.81 31.06 C193.24 32.74, 197.7 35.38, 199.64 40.23 C201.59 45.08, 201.95 55.17, 199.48 60.16 C197 65.15, 192.77 68.49, 184.8 70.16 C176.84 71.83, 162.87 70.16, 151.68 70.16 C140.48 70.16, 116.01 70.16, 117.62 70.16 C119.23 70.16, 150.32 69.04, 161.34 70.16 C172.37 71.28, 179.25 73, 183.77 76.86 C188.29 80.72, 189.03 88.7, 188.47 93.32 C187.9 97.93, 184.47 101.94, 180.39 104.57 C176.3 107.21, 171.85 108.38, 163.93 109.14 C156.01 109.9, 140.81 109.14, 132.88 109.14 C124.95 109.14, 114.21 109.14, 116.34 109.14 C118.47 109.14, 138.2 109.14, 145.66 109.14 C153.12 109.14, 157.03 107.76, 161.09 109.14 C165.15 110.51, 168.2 113.28, 170.01 117.4 C171.83 121.52, 172.41 129.22, 171.98 133.84 C171.54 138.46, 170 142.28, 167.39 145.11 C164.78 147.95, 163.24 149.64, 156.33 150.82 C149.42 152.01, 137.19 151.99, 125.93 152.22 C114.67 152.45, 100.56 152.22, 88.77 152.22 C76.97 152.22, 63.93 152.22, 55.15 152.22 C46.37 152.22, 42.99 153.38, 36.1 152.22 C29.21 151.06, 19.68 147.65, 13.82 145.27 C7.97 142.88, 3.11 139.14, 0.97 137.91" stroke="#E1E1E1" stroke-width="2" fill="none"></path></g></g><mask></mask><g stroke-linecap="round"><g transform="translate(88.17345663038346 293.07086407012474) rotate(0 -38.849510326365134 7.766980218207777)"><path d="M0 0 C0.06 -4.8, 0.42 -20.25, 0.37 -28.8 C0.33 -37.34, 0.09 -45.55, -0.26 -51.29 C-0.61 -57.04, -0.87 -60.22, -1.72 -63.26 C-2.57 -66.29, -3.52 -67.9, -5.34 -69.51 C-7.17 -71.13, -9.02 -72.35, -12.67 -72.95 C-16.33 -73.55, -21.31 -73.02, -27.28 -73.13 C-33.25 -73.25, -42.37 -73.6, -48.48 -73.64 C-54.59 -73.68, -60.04 -73.95, -63.94 -73.38 C-67.84 -72.81, -69.76 -72.07, -71.88 -70.2 C-73.99 -68.34, -75.59 -65.53, -76.63 -62.17 C-77.67 -58.82, -77.89 -58.95, -78.1 -50.06 C-78.32 -41.16, -77.98 -24.57, -77.92 -8.82 C-77.87 6.94, -77.93 30.57, -77.78 44.46 C-77.63 58.35, -77.79 67.92, -77.03 74.52 C-76.27 81.12, -75.19 81.8, -73.21 84.08 C-71.24 86.36, -68.99 87.37, -65.19 88.22 C-61.39 89.07, -57.36 89.06, -50.43 89.18 C-43.5 89.29, -30.37 89.07, -23.61 88.9 C-16.85 88.73, -13.32 89.24, -9.86 88.15 C-6.4 87.07, -4.4 84.92, -2.87 82.41 C-1.34 79.9, -1.21 78.62, -0.67 73.09 C-0.12 67.56, 0.27 57.51, 0.4 49.24 C0.54 40.97, 0.23 31.67, 0.16 23.47 C0.09 15.26, 0.03 3.91, 0 0 M0 0 C0.06 -4.8, 0.42 -20.25, 0.37 -28.8 C0.33 -37.34, 0.09 -45.55, -0.26 -51.29 C-0.61 -57.04, -0.87 -60.22, -1.72 -63.26 C-2.57 -66.29, -3.52 -67.9, -5.34 -69.51 C-7.17 -71.13, -9.02 -72.35, -12.67 -72.95 C-16.33 -73.55, -21.31 -73.02, -27.28 -73.13 C-33.25 -73.25, -42.37 -73.6, -48.48 -73.64 C-54.59 -73.68, -60.04 -73.95, -63.94 -73.38 C-67.84 -72.81, -69.76 -72.07, -71.88 -70.2 C-73.99 -68.34, -75.59 -65.53, -76.63 -62.17 C-77.67 -58.82, -77.89 -58.95, -78.1 -50.06 C-78.32 -41.16, -77.98 -24.57, -77.92 -8.82 C-77.87 6.94, -77.93 30.57, -77.78 44.46 C-77.63 58.35, -77.79 67.92, -77.03 74.52 C-76.27 81.12, -75.19 81.8, -73.21 84.08 C-71.24 86.36, -68.99 87.37, -65.19 88.22 C-61.39 89.07, -57.36 89.06, -50.43 89.18 C-43.5 89.29, -30.37 89.07, -23.61 88.9 C-16.85 88.73, -13.32 89.24, -9.86 88.15 C-6.4 87.07, -4.4 84.92, -2.87 82.41 C-1.34 79.9, -1.21 78.62, -0.67 73.09 C-0.12 67.56, 0.27 57.51, 0.4 49.24 C0.54 40.97, 0.23 31.67, 0.16 23.47 C0.09 15.26, 0.03 3.91, 0 0" stroke="#E1E1E1" stroke-width="2" fill="none"></path></g></g><mask></mask><g stroke-linecap="round"><g transform="translate(49.71484206000555 220.17472824146597) rotate(0 0 53.753694267022915)"><path d="M0 0 C0 17.92, 0 89.59, 0 107.51 M0 0 C0 17.92, 0 89.59, 0 107.51" stroke="#E1E1E1" stroke-width="2" fill="none"></path></g></g><mask></mask><g stroke-linecap="round" transform="translate(43.02302259286121 341.4882390016243) rotate(0 6.386604902115437 6.437539803653181)"><path d="M12.77 6.44 C12.77 6.81, 12.74 7.19, 12.68 7.56 C12.61 7.92, 12.51 8.29, 12.39 8.64 C12.26 8.99, 12.1 9.33, 11.92 9.66 C11.73 9.98, 11.52 10.29, 11.28 10.58 C11.04 10.86, 10.78 11.13, 10.49 11.37 C10.21 11.61, 9.9 11.83, 9.58 12.01 C9.26 12.2, 8.92 12.36, 8.57 12.49 C8.22 12.61, 7.86 12.71, 7.5 12.78 C7.13 12.84, 6.76 12.88, 6.39 12.88 C6.02 12.88, 5.64 12.84, 5.28 12.78 C4.91 12.71, 4.55 12.61, 4.2 12.49 C3.85 12.36, 3.51 12.2, 3.19 12.01 C2.87 11.83, 2.56 11.61, 2.28 11.37 C2 11.13, 1.73 10.86, 1.49 10.58 C1.26 10.29, 1.04 9.98, 0.86 9.66 C0.67 9.33, 0.51 8.99, 0.39 8.64 C0.26 8.29, 0.16 7.92, 0.1 7.56 C0.03 7.19, 0 6.81, 0 6.44 C0 6.06, 0.03 5.69, 0.1 5.32 C0.16 4.95, 0.26 4.59, 0.39 4.24 C0.51 3.89, 0.67 3.54, 0.86 3.22 C1.04 2.9, 1.26 2.59, 1.49 2.3 C1.73 2.01, 2 1.75, 2.28 1.51 C2.56 1.27, 2.87 1.05, 3.19 0.86 C3.51 0.68, 3.85 0.52, 4.2 0.39 C4.55 0.26, 4.91 0.16, 5.28 0.1 C5.64 0.03, 6.02 0, 6.39 0 C6.76 0, 7.13 0.03, 7.5 0.1 C7.86 0.16, 8.22 0.26, 8.57 0.39 C8.92 0.52, 9.26 0.68, 9.58 0.86 C9.9 1.05, 10.21 1.27, 10.49 1.51 C10.78 1.75, 11.04 2.01, 11.28 2.3 C11.52 2.59, 11.73 2.9, 11.92 3.22 C12.1 3.54, 12.26 3.89, 12.39 4.24 C12.51 4.59, 12.61 4.95, 12.68 5.32 C12.74 5.69, 12.76 6.25, 12.77 6.44 C12.79 6.62, 12.79 6.25, 12.77 6.44" stroke="#E1E1E1" stroke-width="2" fill="none"></path></g><g stroke-linecap="round" transform="translate(106.94000685394663 158.57326537664966) rotate(0 6.386604902115435 6.437539803653181)"><path d="M12.77 6.44 C12.77 6.81, 12.74 7.19, 12.68 7.56 C12.61 7.92, 12.51 8.29, 12.39 8.64 C12.26 8.99, 12.1 9.33, 11.92 9.66 C11.73 9.98, 11.52 10.29, 11.28 10.58 C11.04 10.86, 10.78 11.13, 10.49 11.37 C10.21 11.61, 9.9 11.83, 9.58 12.01 C9.26 12.2, 8.92 12.36, 8.57 12.49 C8.22 12.61, 7.86 12.71, 7.5 12.78 C7.13 12.84, 6.76 12.88, 6.39 12.88 C6.02 12.88, 5.64 12.84, 5.28 12.78 C4.91 12.71, 4.55 12.61, 4.2 12.49 C3.85 12.36, 3.51 12.2, 3.19 12.01 C2.87 11.83, 2.56 11.61, 2.28 11.37 C2 11.13, 1.73 10.86, 1.49 10.58 C1.26 10.29, 1.04 9.98, 0.86 9.66 C0.67 9.33, 0.51 8.99, 0.39 8.64 C0.26 8.29, 0.16 7.92, 0.1 7.56 C0.03 7.19, 0 6.81, 0 6.44 C0 6.06, 0.03 5.69, 0.1 5.32 C0.16 4.95, 0.26 4.59, 0.39 4.24 C0.51 3.89, 0.67 3.54, 0.86 3.22 C1.04 2.9, 1.26 2.59, 1.49 2.3 C1.73 2.01, 2 1.75, 2.28 1.51 C2.56 1.27, 2.87 1.05, 3.19 0.86 C3.51 0.68, 3.85 0.52, 4.2 0.39 C4.55 0.26, 4.91 0.16, 5.28 0.1 C5.64 0.03, 6.02 0, 6.39 0 C6.76 0, 7.13 0.03, 7.5 0.1 C7.86 0.16, 8.22 0.26, 8.57 0.39 C8.92 0.52, 9.26 0.68, 9.58 0.86 C9.9 1.05, 10.21 1.27, 10.49 1.51 C10.78 1.75, 11.04 2.01, 11.28 2.3 C11.52 2.59, 11.73 2.9, 11.92 3.22 C12.1 3.54, 12.26 3.89, 12.39 4.24 C12.51 4.59, 12.61 4.95, 12.68 5.32 C12.74 5.69, 12.76 6.25, 12.77 6.44 C12.79 6.62, 12.79 6.25, 12.77 6.44" stroke="#E1E1E1" stroke-width="2" fill="none"></path></g><g stroke-linecap="round"><g transform="translate(87.44248829614021 164.78661569576155) rotate(0 130.65567918966926 -61.785746725338484)"><path d="M0 0 C-2.26 0.06, -9.59 0.41, -13.56 0.37 C-17.54 0.34, -20.84 0.71, -23.85 -0.19 C-26.87 -1.09, -29.86 -2.71, -31.65 -5.01 C-33.44 -7.32, -34.02 -8.49, -34.58 -14.02 C-35.14 -19.55, -34.91 -25.56, -35.01 -38.2 C-35.11 -50.85, -35.14 -74.55, -35.2 -89.89 C-35.25 -105.22, -35.43 -121.44, -35.31 -130.21 C-35.2 -138.99, -35.41 -139, -34.49 -142.52 C-33.57 -146.04, -32.17 -149.34, -29.78 -151.34 C-27.39 -153.34, -26.5 -153.97, -20.16 -154.52 C-13.82 -155.07, -6.41 -154.6, 8.26 -154.62 C22.94 -154.63, 46.19 -154.62, 67.9 -154.62 C89.61 -154.62, 113.13 -154.62, 138.53 -154.62 C163.94 -154.62, 198.33 -154.62, 220.31 -154.62 C242.28 -154.62, 259.73 -154.82, 270.39 -154.62 C281.06 -154.41, 280.59 -154.36, 284.32 -153.38 C288.05 -152.4, 290.78 -151.09, 292.76 -148.72 C294.74 -146.35, 295.57 -144.49, 296.21 -139.17 C296.86 -133.85, 296.56 -127.76, 296.62 -116.81 C296.69 -105.85, 296.62 -86.65, 296.62 -73.45 C296.62 -60.25, 296.62 -47.25, 296.62 -37.6 C296.62 -27.96, 297.39 -21.29, 296.62 -15.59 C295.86 -9.88, 294.76 -6.12, 292.04 -3.4 C289.32 -0.67, 286 0.08, 280.29 0.78 C274.58 1.48, 265.65 0.87, 257.8 0.81 C249.96 0.76, 238.8 -0.38, 233.22 0.45 C227.64 1.28, 227.26 3.19, 224.31 5.81 C221.36 8.43, 218.84 12.7, 215.51 16.17 C212.18 19.64, 206.99 24.15, 204.34 26.63 C201.68 29.11, 201.28 31.16, 199.59 31.04 C197.9 30.93, 196.74 28.43, 194.2 25.93 C191.67 23.44, 187.99 19.8, 184.36 16.09 C180.74 12.39, 175.45 6.27, 172.45 3.71 C169.44 1.15, 170.79 1.21, 166.34 0.75 C161.88 0.29, 153.67 0.92, 145.72 0.95 C137.77 0.99, 125.1 0.95, 118.66 0.95 C112.21 0.95, 108.99 0.95, 107.06 0.95 M0 0 C-2.26 0.06, -9.59 0.41, -13.56 0.37 C-17.54 0.34, -20.84 0.71, -23.85 -0.19 C-26.87 -1.09, -29.86 -2.71, -31.65 -5.01 C-33.44 -7.32, -34.02 -8.49, -34.58 -14.02 C-35.14 -19.55, -34.91 -25.56, -35.01 -38.2 C-35.11 -50.85, -35.14 -74.55, -35.2 -89.89 C-35.25 -105.22, -35.43 -121.44, -35.31 -130.21 C-35.2 -138.99, -35.41 -139, -34.49 -142.52 C-33.57 -146.04, -32.17 -149.34, -29.78 -151.34 C-27.39 -153.34, -26.5 -153.97, -20.16 -154.52 C-13.82 -155.07, -6.41 -154.6, 8.26 -154.62 C22.94 -154.63, 46.19 -154.62, 67.9 -154.62 C89.61 -154.62, 113.13 -154.62, 138.53 -154.62 C163.94 -154.62, 198.33 -154.62, 220.31 -154.62 C242.28 -154.62, 259.73 -154.82, 270.39 -154.62 C281.06 -154.41, 280.59 -154.36, 284.32 -153.38 C288.05 -152.4, 290.78 -151.09, 292.76 -148.72 C294.74 -146.35, 295.57 -144.49, 296.21 -139.17 C296.86 -133.85, 296.56 -127.76, 296.62 -116.81 C296.69 -105.85, 296.62 -86.65, 296.62 -73.45 C296.62 -60.25, 296.62 -47.25, 296.62 -37.6 C296.62 -27.96, 297.39 -21.29, 296.62 -15.59 C295.86 -9.88, 294.76 -6.12, 292.04 -3.4 C289.32 -0.67, 286 0.08, 280.29 0.78 C274.58 1.48, 265.65 0.87, 257.8 0.81 C249.96 0.76, 238.8 -0.38, 233.22 0.45 C227.64 1.28, 227.26 3.19, 224.31 5.81 C221.36 8.43, 218.84 12.7, 215.51 16.17 C212.18 19.64, 206.99 24.15, 204.34 26.63 C201.68 29.11, 201.28 31.16, 199.59 31.04 C197.9 30.93, 196.74 28.43, 194.2 25.93 C191.67 23.44, 187.99 19.8, 184.36 16.09 C180.74 12.39, 175.45 6.27, 172.45 3.71 C169.44 1.15, 170.79 1.21, 166.34 0.75 C161.88 0.29, 153.67 0.92, 145.72 0.95 C137.77 0.99, 125.1 0.95, 118.66 0.95 C112.21 0.95, 108.99 0.95, 107.06 0.95" stroke="#E1E1E1" stroke-width="2" fill="none"></path></g></g><mask></mask><g stroke-linecap="round"><g transform="translate(115.72794915583695 76.52615214700853) rotate(0 7.733208349719977 8.203658341984294)"><path d="M0 0 C1.8 -6.16, 3.6 -12.31, 8.51 -29.08 M0 0 C3.16 -10.79, 6.31 -21.57, 8.51 -29.08 M8.51 -29.08 C12.34 -17.73, 16.17 -6.39, 18.57 0.71 M8.51 -29.08 C12.22 -18.08, 15.94 -7.08, 18.57 0.71 M18.57 0.71 C24.54 0.41, 30.51 0.12, 45.87 -0.64 M18.57 0.71 C27.49 0.26, 36.42 -0.18, 45.87 -0.64 M45.87 -0.64 C39.59 3.62, 33.31 7.89, 22.52 15.21 M45.87 -0.64 C39.13 3.93, 32.39 8.51, 22.52 15.21 M22.52 15.21 C24.58 21.61, 26.63 28, 32.03 44.8 M22.52 15.21 C24.76 22.17, 26.99 29.13, 32.03 44.8 M32.03 44.8 C24.74 39.01, 17.45 33.23, 8.3 25.96 M32.03 44.8 C24.64 38.93, 17.24 33.06, 8.3 25.96 M8.3 25.96 C2.44 31.29, -3.42 36.63, -13.16 45.48 M8.3 25.96 C0.67 32.9, -6.95 39.84, -13.16 45.48 M-13.16 45.48 C-10 34.95, -6.84 24.42, -4.16 15.49 M-13.16 45.48 C-10.25 35.77, -7.33 26.05, -4.16 15.49 M-4.16 15.49 C-9.59 12.68, -15.01 9.87, -30.4 1.9 M-4.16 15.49 C-10.03 12.45, -15.9 9.41, -30.4 1.9 M-30.4 1.9 C-19.61 1.23, -8.82 0.55, 0 0 M-30.4 1.9 C-20.15 1.26, -9.9 0.62, 0 0" stroke="#E1E1E1" stroke-width="2" fill="none"></path></g></g><mask></mask><g stroke-linecap="round"><g transform="translate(211.94945195947815 75.86158799918525) rotate(0 7.733208349719973 8.203658341984294)"><path d="M0 0 C3.28 -11.22, 6.57 -22.43, 8.51 -29.08 M0 0 C3.38 -11.55, 6.76 -23.1, 8.51 -29.08 M8.51 -29.08 C11.31 -20.77, 14.12 -12.47, 18.57 0.71 M8.51 -29.08 C12.25 -17.99, 16 -6.91, 18.57 0.71 M18.57 0.71 C27.88 0.25, 37.18 -0.21, 45.87 -0.64 M18.57 0.71 C28.11 0.23, 37.66 -0.24, 45.87 -0.64 M45.87 -0.64 C39.05 3.98, 32.24 8.61, 22.52 15.21 M45.87 -0.64 C39.82 3.47, 33.76 7.58, 22.52 15.21 M22.52 15.21 C25.33 23.95, 28.14 32.69, 32.03 44.8 M22.52 15.21 C24.55 21.54, 26.59 27.88, 32.03 44.8 M32.03 44.8 C25.39 39.52, 18.74 34.25, 8.3 25.96 M32.03 44.8 C26.39 40.32, 20.75 35.84, 8.3 25.96 M8.3 25.96 C0.52 33.04, -7.26 40.11, -13.16 45.48 M8.3 25.96 C2.01 31.69, -4.28 37.41, -13.16 45.48 M-13.16 45.48 C-9.85 34.44, -6.53 23.39, -4.16 15.49 M-13.16 45.48 C-11.27 39.16, -9.37 32.85, -4.16 15.49 M-4.16 15.49 C-10.83 12.04, -17.51 8.58, -30.4 1.9 M-4.16 15.49 C-12.45 11.2, -20.75 6.9, -30.4 1.9 M-30.4 1.9 C-23.41 1.46, -16.41 1.03, 0 0 M-30.4 1.9 C-19.51 1.22, -8.62 0.54, 0 0" stroke="#E1E1E1" stroke-width="2" fill="none"></path></g></g><mask></mask><g stroke-linecap="round"><g transform="translate(308.57272754002173 75.90734487791332) rotate(0 7.733208349719959 8.203658341984294)"><path d="M0 0 C2.39 -8.18, 4.79 -16.36, 8.51 -29.08 M0 0 C2.59 -8.84, 5.17 -17.67, 8.51 -29.08 M8.51 -29.08 C11.3 -20.8, 14.1 -12.52, 18.57 0.71 M8.51 -29.08 C11.05 -21.55, 13.59 -14.02, 18.57 0.71 M18.57 0.71 C26.64 0.31, 34.71 -0.09, 45.87 -0.64 M18.57 0.71 C29.41 0.17, 40.26 -0.37, 45.87 -0.64 M45.87 -0.64 C41.15 2.56, 36.43 5.76, 22.52 15.21 M45.87 -0.64 C40.49 3.01, 35.11 6.66, 22.52 15.21 M22.52 15.21 C25.48 24.42, 28.45 33.64, 32.03 44.8 M22.52 15.21 C26.09 26.31, 29.66 37.41, 32.03 44.8 M32.03 44.8 C27.13 40.9, 22.22 37.01, 8.3 25.96 M32.03 44.8 C27 40.8, 21.96 36.8, 8.3 25.96 M8.3 25.96 C2.69 31.07, -2.93 36.18, -13.16 45.48 M8.3 25.96 C3.83 30.03, -0.65 34.1, -13.16 45.48 M-13.16 45.48 C-10.81 37.63, -8.45 29.77, -4.16 15.49 M-13.16 45.48 C-10.06 35.15, -6.96 24.81, -4.16 15.49 M-4.16 15.49 C-12.76 11.04, -21.36 6.58, -30.4 1.9 M-4.16 15.49 C-10.57 12.17, -16.97 8.86, -30.4 1.9 M-30.4 1.9 C-20.21 1.26, -10.01 0.63, 0 0 M-30.4 1.9 C-24.31 1.52, -18.22 1.14, 0 0" stroke="#E1E1E1" stroke-width="2" fill="none"></path></g></g><mask></mask></svg>