<svg version="1.1" xmlns="http://www.w3.org/2000/svg" viewBox="0 0 553.0694695226982 500.6744709579016" width="553.0694695226982" height="500.6744709579016" class="excalidraw-svg"><!-- svg-source:excalidraw --><metadata></metadata><defs><style class="style-fonts">
      </style></defs><rect x="0" y="0" width="553.0694695226982" height="500.6744709579016" fill="#000000"></rect><g stroke-linecap="round"><g transform="translate(66.6237050433624 444.04585009055666) rotate(0 210.67126157726628 20.175473099617133)"><path d="M0 0 C0.03 6.79, -2.79 33.44, 0.21 40.75 C3.21 48.06, -3.37 43.46, 18.01 43.88 C39.38 44.29, 89.01 43.12, 128.46 43.25 C167.91 43.37, 211.84 44.29, 254.73 44.62 C297.61 44.96, 358.18 45.26, 385.76 45.24 C413.34 45.21, 414.46 48.85, 420.2 44.46 C425.94 40.07, 420.01 27.13, 420.2 18.9 C420.39 10.68, 424.6 -0.92, 421.34 -4.89 C418.08 -8.85, 412.61 -5.08, 400.65 -4.89 C388.7 -4.69, 374.51 -4.12, 349.6 -3.73 C324.69 -3.34, 286.84 -2.62, 251.19 -2.55 C215.53 -2.47, 172.65 -3.75, 135.67 -3.29 C98.69 -2.83, 51.92 -0.34, 29.31 0.21 C6.69 0.76, 4.88 0.04, 0 0 M0 0 C0.03 6.79, -2.79 33.44, 0.21 40.75 C3.21 48.06, -3.37 43.46, 18.01 43.88 C39.38 44.29, 89.01 43.12, 128.46 43.25 C167.91 43.37, 211.84 44.29, 254.73 44.62 C297.61 44.96, 358.18 45.26, 385.76 45.24 C413.34 45.21, 414.46 48.85, 420.2 44.46 C425.94 40.07, 420.01 27.13, 420.2 18.9 C420.39 10.68, 424.6 -0.92, 421.34 -4.89 C418.08 -8.85, 412.61 -5.08, 400.65 -4.89 C388.7 -4.69, 374.51 -4.12, 349.6 -3.73 C324.69 -3.34, 286.84 -2.62, 251.19 -2.55 C215.53 -2.47, 172.65 -3.75, 135.67 -3.29 C98.69 -2.83, 51.92 -0.34, 29.31 0.21 C6.69 0.76, 4.88 0.04, 0 0" stroke="#E1E1E1" stroke-width="4" fill="none"></path></g></g><mask></mask><g stroke-linecap="round"><g transform="translate(66.47318861365011 385.73014085313264) rotate(0 210.00648067936015 -186.60744737669705)"><path d="M0 0 C-3.57 -15.95, -14.45 -65.22, -21.44 -95.71 C-28.43 -126.2, -36.22 -159.13, -41.93 -182.94 C-47.63 -206.75, -59.68 -232.06, -55.67 -238.57 C-51.66 -245.07, -30.28 -227.1, -17.88 -221.98 C-5.48 -216.87, 15.06 -212.36, 18.72 -207.89 C22.38 -203.41, 8.06 -199.94, 4.07 -195.13 C0.08 -190.31, -3.37 -186.73, -5.21 -178.99 C-7.05 -171.25, -8.34 -157.18, -6.95 -148.68 C-5.56 -140.18, -1.9 -134.6, 3.13 -128 C8.16 -121.39, 15.19 -112.87, 23.24 -109.05 C31.29 -105.23, 42.98 -104.8, 51.44 -105.08 C59.89 -105.36, 67.6 -107.81, 73.97 -110.74 C80.33 -113.66, 85.77 -118.26, 89.63 -122.61 C93.48 -126.95, 97.67 -133.59, 97.11 -136.81 C96.54 -140.03, 89.83 -138.55, 86.24 -141.93 C82.65 -145.31, 76.51 -150.91, 75.56 -157.08 C74.61 -163.25, 76.73 -173.85, 80.55 -178.93 C84.36 -184.01, 92.45 -186.72, 98.42 -187.57 C104.39 -188.43, 111.43 -186.98, 116.36 -184.04 C121.3 -181.1, 126.49 -175.28, 128.03 -169.95 C129.58 -164.61, 127.33 -156.82, 125.62 -152.02 C123.91 -147.23, 120.6 -144.12, 117.78 -141.17 C114.95 -138.21, 105.64 -135.88, 108.68 -134.29 C111.71 -132.7, 127.91 -130.94, 135.99 -131.63 C144.06 -132.32, 150.69 -134.79, 157.13 -138.45 C163.57 -142.12, 170.33 -147.64, 174.63 -153.63 C178.92 -159.62, 181.74 -166.5, 182.89 -174.38 C184.04 -182.26, 183.22 -193.05, 181.53 -200.91 C179.85 -208.78, 176.92 -216.09, 172.77 -221.59 C168.62 -227.1, 161.93 -230.77, 156.64 -233.95 C151.35 -237.13, 139.81 -235.22, 141.02 -240.65 C142.23 -246.09, 155.43 -256.53, 163.89 -266.58 C172.36 -276.62, 184.51 -292.21, 191.82 -300.92 C199.13 -309.64, 207.48 -314.93, 207.75 -318.87 C208.02 -322.81, 197.31 -320.89, 193.47 -324.57 C189.63 -328.25, 186.05 -335.06, 184.73 -340.96 C183.41 -346.85, 182.33 -354.25, 185.56 -359.95 C188.79 -365.64, 197.89 -373.29, 204.09 -375.12 C210.29 -376.94, 217.3 -374.47, 222.77 -370.88 C228.24 -367.28, 235.52 -360.49, 236.91 -353.54 C238.3 -346.59, 235.25 -334.8, 231.11 -329.17 C226.96 -323.54, 214.3 -323.09, 212.03 -319.75 C209.76 -316.41, 211.46 -316.59, 217.5 -309.14 C223.53 -301.69, 238.31 -286.35, 248.22 -275.04 C258.12 -263.73, 274.35 -248.22, 276.92 -241.28 C279.48 -234.35, 268.34 -236.28, 263.59 -233.41 C258.84 -230.55, 252.64 -228.76, 248.41 -224.09 C244.17 -219.42, 240.12 -212.18, 238.17 -205.4 C236.22 -198.61, 235.68 -191.31, 236.7 -183.39 C237.71 -175.48, 240.06 -165.59, 244.24 -157.91 C248.42 -150.24, 255.41 -141.81, 261.79 -137.36 C268.16 -132.9, 276.02 -131.94, 282.5 -131.19 C288.99 -130.44, 296.36 -131.84, 300.69 -132.86 C305.03 -133.87, 309.04 -135.68, 308.54 -137.26 C308.03 -138.85, 300.71 -139.35, 297.67 -142.38 C294.62 -145.41, 290.9 -150.06, 290.24 -155.43 C289.58 -160.79, 291.35 -169.35, 293.72 -174.58 C296.09 -179.81, 299.8 -184.22, 304.47 -186.81 C309.14 -189.4, 316.38 -191.51, 321.75 -190.13 C327.12 -188.74, 333.51 -183.28, 336.69 -178.5 C339.87 -173.71, 340.8 -167.57, 340.81 -161.41 C340.83 -155.25, 339.99 -145.57, 336.76 -141.54 C333.54 -137.51, 322.6 -140.16, 321.46 -137.23 C320.32 -134.3, 324.66 -128.37, 329.91 -123.96 C335.16 -119.55, 345.16 -113.6, 352.95 -110.78 C360.75 -107.95, 368.17 -105.88, 376.7 -107.02 C385.23 -108.16, 397.32 -112.88, 404.11 -117.59 C410.9 -122.31, 413.98 -129.17, 417.44 -135.32 C420.89 -141.48, 423.96 -147.27, 424.84 -154.53 C425.71 -161.79, 424.25 -172.36, 422.69 -178.88 C421.13 -185.4, 418.04 -189.93, 415.49 -193.67 C412.93 -197.41, 410.73 -198.8, 407.36 -201.33 C404 -203.85, 390.05 -205.08, 395.29 -208.83 C400.54 -212.57, 425.41 -218.46, 438.81 -223.78 C452.21 -229.09, 471.47 -246.68, 475.69 -240.72 C479.9 -234.75, 468.36 -209.38, 464.1 -187.99 C459.83 -166.6, 455.26 -136.46, 450.09 -112.36 C444.93 -88.26, 437.67 -62.15, 433.1 -43.38 C428.54 -24.62, 427.11 -7.09, 422.69 0.22 C418.26 7.53, 418.2 0.2, 406.55 0.48 C394.9 0.76, 385.98 2.44, 352.79 1.9 C319.6 1.36, 256.28 -2.13, 207.42 -2.74 C158.57 -3.35, 94.21 -2.24, 59.64 -1.78 C25.07 -1.32, 9.94 -0.3, 0 0 M0 0 C-3.57 -15.95, -14.45 -65.22, -21.44 -95.71 C-28.43 -126.2, -36.22 -159.13, -41.93 -182.94 C-47.63 -206.75, -59.68 -232.06, -55.67 -238.57 C-51.66 -245.07, -30.28 -227.1, -17.88 -221.98 C-5.48 -216.87, 15.06 -212.36, 18.72 -207.89 C22.38 -203.41, 8.06 -199.94, 4.07 -195.13 C0.08 -190.31, -3.37 -186.73, -5.21 -178.99 C-7.05 -171.25, -8.34 -157.18, -6.95 -148.68 C-5.56 -140.18, -1.9 -134.6, 3.13 -128 C8.16 -121.39, 15.19 -112.87, 23.24 -109.05 C31.29 -105.23, 42.98 -104.8, 51.44 -105.08 C59.89 -105.36, 67.6 -107.81, 73.97 -110.74 C80.33 -113.66, 85.77 -118.26, 89.63 -122.61 C93.48 -126.95, 97.67 -133.59, 97.11 -136.81 C96.54 -140.03, 89.83 -138.55, 86.24 -141.93 C82.65 -145.31, 76.51 -150.91, 75.56 -157.08 C74.61 -163.25, 76.73 -173.85, 80.55 -178.93 C84.36 -184.01, 92.45 -186.72, 98.42 -187.57 C104.39 -188.43, 111.43 -186.98, 116.36 -184.04 C121.3 -181.1, 126.49 -175.28, 128.03 -169.95 C129.58 -164.61, 127.33 -156.82, 125.62 -152.02 C123.91 -147.23, 120.6 -144.12, 117.78 -141.17 C114.95 -138.21, 105.64 -135.88, 108.68 -134.29 C111.71 -132.7, 127.91 -130.94, 135.99 -131.63 C144.06 -132.32, 150.69 -134.79, 157.13 -138.45 C163.57 -142.12, 170.33 -147.64, 174.63 -153.63 C178.92 -159.62, 181.74 -166.5, 182.89 -174.38 C184.04 -182.26, 183.22 -193.05, 181.53 -200.91 C179.85 -208.78, 176.92 -216.09, 172.77 -221.59 C168.62 -227.1, 161.93 -230.77, 156.64 -233.95 C151.35 -237.13, 139.81 -235.22, 141.02 -240.65 C142.23 -246.09, 155.43 -256.53, 163.89 -266.58 C172.36 -276.62, 184.51 -292.21, 191.82 -300.92 C199.13 -309.64, 207.48 -314.93, 207.75 -318.87 C208.02 -322.81, 197.31 -320.89, 193.47 -324.57 C189.63 -328.25, 186.05 -335.06, 184.73 -340.96 C183.41 -346.85, 182.33 -354.25, 185.56 -359.95 C188.79 -365.64, 197.89 -373.29, 204.09 -375.12 C210.29 -376.94, 217.3 -374.47, 222.77 -370.88 C228.24 -367.28, 235.52 -360.49, 236.91 -353.54 C238.3 -346.59, 235.25 -334.8, 231.11 -329.17 C226.96 -323.54, 214.3 -323.09, 212.03 -319.75 C209.76 -316.41, 211.46 -316.59, 217.5 -309.14 C223.53 -301.69, 238.31 -286.35, 248.22 -275.04 C258.12 -263.73, 274.35 -248.22, 276.92 -241.28 C279.48 -234.35, 268.34 -236.28, 263.59 -233.41 C258.84 -230.55, 252.64 -228.76, 248.41 -224.09 C244.17 -219.42, 240.12 -212.18, 238.17 -205.4 C236.22 -198.61, 235.68 -191.31, 236.7 -183.39 C237.71 -175.48, 240.06 -165.59, 244.24 -157.91 C248.42 -150.24, 255.41 -141.81, 261.79 -137.36 C268.16 -132.9, 276.02 -131.94, 282.5 -131.19 C288.99 -130.44, 296.36 -131.84, 300.69 -132.86 C305.03 -133.87, 309.04 -135.68, 308.54 -137.26 C308.03 -138.85, 300.71 -139.35, 297.67 -142.38 C294.62 -145.41, 290.9 -150.06, 290.24 -155.43 C289.58 -160.79, 291.35 -169.35, 293.72 -174.58 C296.09 -179.81, 299.8 -184.22, 304.47 -186.81 C309.14 -189.4, 316.38 -191.51, 321.75 -190.13 C327.12 -188.74, 333.51 -183.28, 336.69 -178.5 C339.87 -173.71, 340.8 -167.57, 340.81 -161.41 C340.83 -155.25, 339.99 -145.57, 336.76 -141.54 C333.54 -137.51, 322.6 -140.16, 321.46 -137.23 C320.32 -134.3, 324.66 -128.37, 329.91 -123.96 C335.16 -119.55, 345.16 -113.6, 352.95 -110.78 C360.75 -107.95, 368.17 -105.88, 376.7 -107.02 C385.23 -108.16, 397.32 -112.88, 404.11 -117.59 C410.9 -122.31, 413.98 -129.17, 417.44 -135.32 C420.89 -141.48, 423.96 -147.27, 424.84 -154.53 C425.71 -161.79, 424.25 -172.36, 422.69 -178.88 C421.13 -185.4, 418.04 -189.93, 415.49 -193.67 C412.93 -197.41, 410.73 -198.8, 407.36 -201.33 C404 -203.85, 390.05 -205.08, 395.29 -208.83 C400.54 -212.57, 425.41 -218.46, 438.81 -223.78 C452.21 -229.09, 471.47 -246.68, 475.69 -240.72 C479.9 -234.75, 468.36 -209.38, 464.1 -187.99 C459.83 -166.6, 455.26 -136.46, 450.09 -112.36 C444.93 -88.26, 437.67 -62.15, 433.1 -43.38 C428.54 -24.62, 427.11 -7.09, 422.69 0.22 C418.26 7.53, 418.2 0.2, 406.55 0.48 C394.9 0.76, 385.98 2.44, 352.79 1.9 C319.6 1.36, 256.28 -2.13, 207.42 -2.74 C158.57 -3.35, 94.21 -2.24, 59.64 -1.78 C25.07 -1.32, 9.94 -0.3, 0 0" stroke="#E1E1E1" stroke-width="4" fill="none"></path></g></g><mask></mask></svg>