<svg version="1.1" xmlns="http://www.w3.org/2000/svg" viewBox="0 0 524.1677984407709 428.0557627737531" width="524.1677984407709" height="428.0557627737531" class="excalidraw-svg">
  <!-- svg-source:excalidraw -->
  
  <defs>
    <style class="style-fonts">
      @font-face {
        font-family: "Virgil";
        src: url("https://excalidraw.com/Virgil.woff2");
      }
      @font-face {
        font-family: "Cascadia";
        src: url("https://excalidraw.com/Cascadia.woff2");
      }
      @font-face {
        font-family: "Assistant";
        src: url("https://excalidraw.com/Assistant-Regular.woff2");
      }
    </style>
    
  </defs>
  <rect x="0" y="0" width="524.1677984407709" height="428.0557627737531" fill="#000000"/><g stroke-linecap="round"><g transform="translate(261.11508772542004 30.50773427812578) rotate(0 0 187.11229951198857)"><path d="M0 0 C0 111.83, 0 223.67, 0 374.22 M0 0 C0 80.76, 0 161.52, 0 374.22" stroke="#E1E1E1" stroke-width="4" fill="none"/></g></g><mask/><g stroke-linecap="round"><g transform="translate(261.57544329469295 30.681201594086588) rotate(0 110.30074961099763 175.16974199014203)"><path d="M0 0 C1.65 -0.87, 4.06 -4.18, 9.91 -5.19 C15.75 -6.2, 22.8 -5.9, 35.06 -6.05 C47.32 -6.2, 66.63 -6.16, 83.46 -6.08 C100.29 -6.01, 120.64 -5.7, 136.06 -5.62 C151.48 -5.54, 164.12 -5.62, 175.99 -5.62 C187.86 -5.62, 200.16 -7.18, 207.27 -5.62 C214.38 -4.06, 216.7 -1.49, 218.65 3.74 C220.59 8.97, 218.68 5.72, 218.94 25.76 C219.2 45.8, 220.11 93.66, 220.21 123.98 C220.31 154.3, 219.61 181.08, 219.55 207.68 C219.48 234.29, 219.66 263.65, 219.83 283.59 C220.01 303.53, 220.89 317.2, 220.6 327.33 C220.31 337.47, 219.91 340.13, 218.11 344.39 C216.3 348.65, 213.16 351.1, 209.78 352.9 C206.4 354.71, 209.5 354.72, 197.84 355.21 C186.18 355.7, 162.22 355.63, 139.84 355.83 C117.46 356.03, 81.23 356.33, 63.55 356.42 C45.88 356.52, 42.01 356.42, 33.78 356.39 C25.55 356.36, 19.58 357.07, 14.15 356.24 C8.72 355.4, 3.37 352.19, 1.21 351.38 M0 0 C1.65 -0.87, 4.06 -4.18, 9.91 -5.19 C15.75 -6.2, 22.8 -5.9, 35.06 -6.05 C47.32 -6.2, 66.63 -6.16, 83.46 -6.08 C100.29 -6.01, 120.64 -5.7, 136.06 -5.62 C151.48 -5.54, 164.12 -5.62, 175.99 -5.62 C187.86 -5.62, 200.16 -7.18, 207.27 -5.62 C214.38 -4.06, 216.7 -1.49, 218.65 3.74 C220.59 8.97, 218.68 5.72, 218.94 25.76 C219.2 45.8, 220.11 93.66, 220.21 123.98 C220.31 154.3, 219.61 181.08, 219.55 207.68 C219.48 234.29, 219.66 263.65, 219.83 283.59 C220.01 303.53, 220.89 317.2, 220.6 327.33 C220.31 337.47, 219.91 340.13, 218.11 344.39 C216.3 348.65, 213.16 351.1, 209.78 352.9 C206.4 354.71, 209.5 354.72, 197.84 355.21 C186.18 355.7, 162.22 355.63, 139.84 355.83 C117.46 356.03, 81.23 356.33, 63.55 356.42 C45.88 356.52, 42.01 356.42, 33.78 356.39 C25.55 356.36, 19.58 357.07, 14.15 356.24 C8.72 355.4, 3.37 352.19, 1.21 351.38" stroke="#E1E1E1" stroke-width="4" fill="none"/></g></g><mask/><g stroke-linecap="round"><g transform="translate(261.6110263338584 403.8761164220448) rotate(0 125.94950305652446 -21.62781599626942)"><path d="M0 0 C2.47 1.74, 7.7 8.33, 14.84 10.41 C21.98 12.5, 29.91 12.25, 42.85 12.51 C55.79 12.76, 76.26 12.1, 92.48 11.94 C108.71 11.79, 124.49 11.47, 140.2 11.58 C155.91 11.68, 173.35 12.42, 186.73 12.56 C200.11 12.7, 211.62 14.53, 220.48 12.44 C229.34 10.35, 234.7 5.11, 239.89 0.01 C245.07 -5.1, 249.59 -12.14, 251.59 -18.19 C253.59 -24.23, 251.86 -29.98, 251.9 -36.25 C251.94 -42.52, 251.85 -52.56, 251.84 -55.82 M0 0 C2.47 1.74, 7.7 8.33, 14.84 10.41 C21.98 12.5, 29.91 12.25, 42.85 12.51 C55.79 12.76, 76.26 12.1, 92.48 11.94 C108.71 11.79, 124.49 11.47, 140.2 11.58 C155.91 11.68, 173.35 12.42, 186.73 12.56 C200.11 12.7, 211.62 14.53, 220.48 12.44 C229.34 10.35, 234.7 5.11, 239.89 0.01 C245.07 -5.1, 249.59 -12.14, 251.59 -18.19 C253.59 -24.23, 251.86 -29.98, 251.9 -36.25 C251.94 -42.52, 251.85 -52.56, 251.84 -55.82" stroke="#E1E1E1" stroke-width="4" fill="none"/></g></g><mask/><g stroke-linecap="round"><g transform="translate(511.3350191775595 323.2382778401786) rotate(0 -14.230991728547451 -133.79667516375684)"><path d="M0 0 C0.09 -16.53, 0.41 -67.43, 0.56 -99.16 C0.71 -130.9, 0.84 -166.17, 0.89 -190.41 C0.93 -214.64, 1.71 -232.61, 0.83 -244.57 C-0.05 -256.53, -1.81 -258.44, -4.39 -262.19 C-6.98 -265.94, -10.5 -266.16, -14.66 -267.06 C-18.82 -267.96, -26.9 -267.5, -29.35 -267.59 M0 0 C0.09 -16.53, 0.41 -67.43, 0.56 -99.16 C0.71 -130.9, 0.84 -166.17, 0.89 -190.41 C0.93 -214.64, 1.71 -232.61, 0.83 -244.57 C-0.05 -256.53, -1.81 -258.44, -4.39 -262.19 C-6.98 -265.94, -10.5 -266.16, -14.66 -267.06 C-18.82 -267.96, -26.9 -267.5, -29.35 -267.59" stroke="#E1E1E1" stroke-width="4" fill="none"/></g></g><mask/><g stroke-linecap="round"><g transform="translate(260.63916457649395 31.53074665431427) rotate(0 -44.456559564567215 -4.337794868969468)"><path d="M0 0 C-1.19 -1.12, -3.13 -5.27, -7.16 -6.71 C-11.19 -8.16, -15.55 -8.4, -24.17 -8.68 C-32.79 -8.95, -48.11 -8.49, -58.9 -8.34 C-69.69 -8.2, -83.91 -7.9, -88.91 -7.82 M0 0 C-1.19 -1.12, -3.13 -5.27, -7.16 -6.71 C-11.19 -8.16, -15.55 -8.4, -24.17 -8.68 C-32.79 -8.95, -48.11 -8.49, -58.9 -8.34 C-69.69 -8.2, -83.91 -7.9, -88.91 -7.82" stroke="#E1E1E1" stroke-width="4" fill="none"/></g></g><mask/><g stroke-linecap="round"><g transform="translate(82.58608444349704 26.43570023298139) rotate(0 68.88653989557133 180.32705873003033)"><path d="M0 0 C-3.06 0.04, -12.79 -0.06, -18.36 0.22 C-23.93 0.51, -29.54 0.01, -33.41 1.71 C-37.27 3.41, -40.07 5.18, -41.54 10.41 C-43.01 15.64, -42.1 19.88, -42.22 33.1 C-42.33 46.32, -42.2 66.54, -42.22 89.75 C-42.23 112.96, -42.3 143.28, -42.32 172.35 C-42.35 201.42, -42.38 236.53, -42.35 264.17 C-42.31 291.81, -42.93 323.62, -42.11 338.2 C-41.3 352.78, -39.81 348.31, -37.45 351.63 C-35.08 354.96, -36.41 357.15, -27.92 358.16 C-19.43 359.17, -2.63 357.65, 13.47 357.67 C29.58 357.69, 50.85 358.04, 68.7 358.28 C86.56 358.52, 104.07 358.72, 120.6 359.11 C137.12 359.51, 157.91 361.05, 167.83 360.65 C177.76 360.25, 178.07 357.37, 180.12 356.72 M0 0 C-3.06 0.04, -12.79 -0.06, -18.36 0.22 C-23.93 0.51, -29.54 0.01, -33.41 1.71 C-37.27 3.41, -40.07 5.18, -41.54 10.41 C-43.01 15.64, -42.1 19.88, -42.22 33.1 C-42.33 46.32, -42.2 66.54, -42.22 89.75 C-42.23 112.96, -42.3 143.28, -42.32 172.35 C-42.35 201.42, -42.38 236.53, -42.35 264.17 C-42.31 291.81, -42.93 323.62, -42.11 338.2 C-41.3 352.78, -39.81 348.31, -37.45 351.63 C-35.08 354.96, -36.41 357.15, -27.92 358.16 C-19.43 359.17, -2.63 357.65, 13.47 357.67 C29.58 357.69, 50.85 358.04, 68.7 358.28 C86.56 358.52, 104.07 358.72, 120.6 359.11 C137.12 359.51, 157.91 361.05, 167.83 360.65 C177.76 360.25, 178.07 357.37, 180.12 356.72" stroke="#E1E1E1" stroke-width="4" fill="none"/></g></g><mask/><g stroke-linecap="round"><g transform="translate(262.7741469267536 405.45511378529204) rotate(0 -126.35759603701808 -167.91302593915225)"><path d="M0 0 C-2.19 1.49, -7.7 7.02, -13.16 8.94 C-18.62 10.86, -24.06 10.98, -32.77 11.53 C-41.49 12.09, -51.66 12.11, -65.46 12.29 C-79.25 12.46, -101.28 12.52, -115.54 12.57 C-129.81 12.62, -141.2 12.6, -151.04 12.57 C-160.88 12.54, -167.67 12.49, -174.59 12.41 C-181.52 12.32, -185.68 12.31, -192.58 12.06 C-199.47 11.82, -209.19 12.33, -215.96 10.94 C-222.72 9.56, -228.19 7.09, -233.17 3.74 C-238.14 0.38, -242.83 -4.41, -245.81 -9.19 C-248.78 -13.97, -249.86 -17.15, -251.01 -24.95 C-252.17 -32.75, -252.5 -41.86, -252.72 -55.99 C-252.93 -70.13, -252.5 -88.02, -252.31 -109.76 C-252.12 -131.5, -251.63 -158.83, -251.59 -186.43 C-251.56 -214.02, -252.02 -253.67, -252.1 -275.33 C-252.17 -296.99, -252.13 -306.09, -252.03 -316.4 C-251.92 -326.7, -253.12 -331.93, -251.45 -337.15 C-249.78 -342.37, -246.52 -345.84, -242.02 -347.72 C-237.52 -349.59, -227.37 -348.28, -224.44 -348.4 M0 0 C-2.19 1.49, -7.7 7.02, -13.16 8.94 C-18.62 10.86, -24.06 10.98, -32.77 11.53 C-41.49 12.09, -51.66 12.11, -65.46 12.29 C-79.25 12.46, -101.28 12.52, -115.54 12.57 C-129.81 12.62, -141.2 12.6, -151.04 12.57 C-160.88 12.54, -167.67 12.49, -174.59 12.41 C-181.52 12.32, -185.68 12.31, -192.58 12.06 C-199.47 11.82, -209.19 12.33, -215.96 10.94 C-222.72 9.56, -228.19 7.09, -233.17 3.74 C-238.14 0.38, -242.83 -4.41, -245.81 -9.19 C-248.78 -13.97, -249.86 -17.15, -251.01 -24.95 C-252.17 -32.75, -252.5 -41.86, -252.72 -55.99 C-252.93 -70.13, -252.5 -88.02, -252.31 -109.76 C-252.12 -131.5, -251.63 -158.83, -251.59 -186.43 C-251.56 -214.02, -252.02 -253.67, -252.1 -275.33 C-252.17 -296.99, -252.13 -306.09, -252.03 -316.4 C-251.92 -326.7, -253.12 -331.93, -251.45 -337.15 C-249.78 -342.37, -246.52 -345.84, -242.02 -347.72 C-237.52 -349.59, -227.37 -348.28, -224.44 -348.4" stroke="#E1E1E1" stroke-width="4" fill="none"/></g></g><mask/><g stroke-linecap="round"><g transform="translate(85.95980134492004 12.767365311350432) rotate(0 28.438632087639235 43.351261410310144)"><path d="M0 0 C-0.08 10.56, -0.41 48.63, -0.49 63.37 C-0.57 78.11, -1.96 85.13, -0.49 88.45 C0.98 91.76, 3.75 86.87, 8.31 83.26 C12.88 79.66, 21.58 68.28, 26.89 66.81 C32.21 65.34, 35.32 70.75, 40.21 74.44 C45.09 78.12, 53.45 90.07, 56.21 88.95 C58.96 87.83, 56.62 79.94, 56.74 67.72 C56.86 55.49, 56.84 27.06, 56.95 15.58 C57.05 4.11, 58.85 1.86, 57.37 -1.12 C55.89 -4.09, 56.28 -2.11, 48.07 -2.25 C39.87 -2.38, 16.16 -2.28, 8.15 -1.91 C0.14 -1.53, 1.36 -0.32, 0 0 M0 0 C-0.08 10.56, -0.41 48.63, -0.49 63.37 C-0.57 78.11, -1.96 85.13, -0.49 88.45 C0.98 91.76, 3.75 86.87, 8.31 83.26 C12.88 79.66, 21.58 68.28, 26.89 66.81 C32.21 65.34, 35.32 70.75, 40.21 74.44 C45.09 78.12, 53.45 90.07, 56.21 88.95 C58.96 87.83, 56.62 79.94, 56.74 67.72 C56.86 55.49, 56.84 27.06, 56.95 15.58 C57.05 4.11, 58.85 1.86, 57.37 -1.12 C55.89 -4.09, 56.28 -2.11, 48.07 -2.25 C39.87 -2.38, 16.16 -2.28, 8.15 -1.91 C0.14 -1.53, 1.36 -0.32, 0 0" stroke="#E1E1E1" stroke-width="4" fill="none"/></g></g><mask/><g stroke-linecap="round"><g transform="translate(244.14864986055784 69.3021427345991) rotate(0 17.317820376652435 0.022239399481804867)"><path d="M0 0 C5.77 0.01, 28.86 0.04, 34.64 0.04 M0 0 C5.77 0.01, 28.86 0.04, 34.64 0.04" stroke="#E1E1E1" stroke-width="4" fill="none"/></g></g><mask/><g stroke-linecap="round"><g transform="translate(242.9877532075967 122.52992145487565) rotate(0 16.568352614108335 0.1467800365817311)"><path d="M0 0 C5.52 0.05, 27.61 0.24, 33.14 0.29 M0 0 C5.52 0.05, 27.61 0.24, 33.14 0.29" stroke="#E1E1E1" stroke-width="4" fill="none"/></g></g><mask/><g stroke-linecap="round"><g transform="translate(243.44143695702917 179.60956416544082) rotate(0 16.508306235507007 0.07561395823904604)"><path d="M0 0 C5.5 0.03, 27.51 0.13, 33.02 0.15 M0 0 C5.5 0.03, 27.51 0.13, 33.02 0.15" stroke="#E1E1E1" stroke-width="4" fill="none"/></g></g><mask/><g stroke-linecap="round"><g transform="translate(242.6608340352101 232.83511894576964) rotate(0 17.02759621341238 0.1301004869701501)"><path d="M0 0 C5.68 0.04, 28.38 0.22, 34.06 0.26 M0 0 C5.68 0.04, 28.38 0.22, 34.06 0.26" stroke="#E1E1E1" stroke-width="4" fill="none"/></g></g><mask/><g stroke-linecap="round"><g transform="translate(242.36727396204753 288.96291535850446) rotate(0 17.168816400122978 -0.2001545953380628)"><path d="M0 0 C5.72 -0.07, 28.61 -0.33, 34.34 -0.4 M0 0 C5.72 -0.07, 28.61 -0.33, 34.34 -0.4" stroke="#E1E1E1" stroke-width="4" fill="none"/></g></g><mask/><g stroke-linecap="round"><g transform="translate(243.096726265058 342.5998990292517) rotate(0 16.494962595817924 0)"><path d="M0 0 C5.5 0, 27.49 0, 32.99 0 M0 0 C5.5 0, 27.49 0, 32.99 0" stroke="#E1E1E1" stroke-width="4" fill="none"/></g></g><mask/><g stroke-linecap="round"><g transform="translate(95.32481246680129 258.35482985138856) rotate(0 55.03806583811456 -0.14122018671059777)"><path d="M0 0 C18.35 -0.05, 91.73 -0.24, 110.08 -0.28 M0 0 C18.35 -0.05, 91.73 -0.24, 110.08 -0.28" stroke="#E1E1E1" stroke-width="4" fill="none"/></g></g><mask/><g stroke-linecap="round"><g transform="translate(114.99111342875551 290.67979699851253) rotate(0 35.868815454583455 0.01556757963680866)"><path d="M0 0 C11.96 0.01, 59.78 0.03, 71.74 0.03 M0 0 C11.96 0.01, 59.78 0.03, 71.74 0.03" stroke="#E1E1E1" stroke-width="4" fill="none"/></g></g><mask/><g stroke-linecap="round"><g transform="translate(314.45628738303424 258.32369469211494) rotate(0 56.31794327830539 -0.24240945435485628)"><path d="M0 0 C18.77 -0.08, 93.86 -0.4, 112.64 -0.48 M0 0 C18.77 -0.08, 93.86 -0.4, 112.64 -0.48" stroke="#E1E1E1" stroke-width="4" fill="none"/></g></g><mask/><g stroke-linecap="round"><g transform="translate(335.5303423322008 290.3306384266432) rotate(0 35.80765710600781 -1.3276921490769382)"><path d="M0 0 C11.94 -0.44, 59.68 -2.21, 71.62 -2.66 M0 0 C11.94 -0.44, 59.68 -2.21, 71.62 -2.66" stroke="#E1E1E1" stroke-width="4" fill="none"/></g></g><mask/><g stroke-linecap="round"><g transform="translate(346.33132215994885 178.00474189675492) rotate(0 25.235011807912997 -5.661718371564348)"><path d="M0 0 C-0.05 -1.95, 1.75 -7.83, -0.29 -11.69 C-2.34 -15.55, -9.18 -19.94, -12.26 -23.16 C-15.35 -26.38, -17.66 -27.94, -18.8 -30.99 C-19.93 -34.05, -20 -38.58, -19.08 -41.51 C-18.15 -44.43, -15.97 -47.06, -13.24 -48.54 C-10.51 -50.02, -5.78 -51.02, -2.71 -50.39 C0.37 -49.76, 2.48 -46.93, 5.23 -44.74 C7.98 -42.54, 10.86 -39.73, 13.77 -37.22 C16.68 -34.71, 19.85 -30.76, 22.69 -29.66 C25.53 -28.56, 28.28 -29.23, 30.79 -30.61 C33.31 -31.98, 35.19 -35.18, 37.78 -37.92 C40.38 -40.66, 43.57 -45.03, 46.35 -47.03 C49.14 -49.04, 51.7 -49.88, 54.46 -49.93 C57.23 -49.98, 60.57 -49.11, 62.96 -47.33 C65.35 -45.55, 67.82 -42, 68.8 -39.27 C69.78 -36.54, 69.45 -33.76, 68.85 -30.94 C68.24 -28.12, 66.92 -24.94, 65.17 -22.34 C63.41 -19.74, 60.55 -17.55, 58.29 -15.34 C56.04 -13.13, 52.74 -11.68, 51.62 -9.08 C50.5 -6.47, 50.18 -2.67, 51.6 0.3 C53.02 3.27, 57.36 5.96, 60.13 8.74 C62.9 11.53, 66.65 14.29, 68.21 17.03 C69.78 19.77, 70.13 22.24, 69.55 25.16 C68.96 28.09, 66.88 32.26, 64.7 34.58 C62.52 36.9, 59.31 38.61, 56.46 39.07 C53.6 39.53, 50.43 38.73, 47.57 37.34 C44.71 35.95, 41.86 32.98, 39.3 30.71 C36.74 28.43, 34.58 25.69, 32.24 23.7 C29.89 21.71, 27.7 19.01, 25.21 18.77 C22.72 18.52, 19.59 20.37, 17.31 22.25 C15.03 24.12, 13.85 27.66, 11.54 30.01 C9.23 32.35, 6.29 34.91, 3.42 36.31 C0.56 37.72, -2.47 38.57, -5.67 38.45 C-8.86 38.33, -13.53 37.35, -15.75 35.57 C-17.98 33.79, -18.83 30.88, -19.02 27.77 C-19.22 24.67, -20.08 21.57, -16.91 16.94 C-13.74 12.31, -2.82 2.82, 0 0 M0 0 C-0.05 -1.95, 1.75 -7.83, -0.29 -11.69 C-2.34 -15.55, -9.18 -19.94, -12.26 -23.16 C-15.35 -26.38, -17.66 -27.94, -18.8 -30.99 C-19.93 -34.05, -20 -38.58, -19.08 -41.51 C-18.15 -44.43, -15.97 -47.06, -13.24 -48.54 C-10.51 -50.02, -5.78 -51.02, -2.71 -50.39 C0.37 -49.76, 2.48 -46.93, 5.23 -44.74 C7.98 -42.54, 10.86 -39.73, 13.77 -37.22 C16.68 -34.71, 19.85 -30.76, 22.69 -29.66 C25.53 -28.56, 28.28 -29.23, 30.79 -30.61 C33.31 -31.98, 35.19 -35.18, 37.78 -37.92 C40.38 -40.66, 43.57 -45.03, 46.35 -47.03 C49.14 -49.04, 51.7 -49.88, 54.46 -49.93 C57.23 -49.98, 60.57 -49.11, 62.96 -47.33 C65.35 -45.55, 67.82 -42, 68.8 -39.27 C69.78 -36.54, 69.45 -33.76, 68.85 -30.94 C68.24 -28.12, 66.92 -24.94, 65.17 -22.34 C63.41 -19.74, 60.55 -17.55, 58.29 -15.34 C56.04 -13.13, 52.74 -11.68, 51.62 -9.08 C50.5 -6.47, 50.18 -2.67, 51.6 0.3 C53.02 3.27, 57.36 5.96, 60.13 8.74 C62.9 11.53, 66.65 14.29, 68.21 17.03 C69.78 19.77, 70.13 22.24, 69.55 25.16 C68.96 28.09, 66.88 32.26, 64.7 34.58 C62.52 36.9, 59.31 38.61, 56.46 39.07 C53.6 39.53, 50.43 38.73, 47.57 37.34 C44.71 35.95, 41.86 32.98, 39.3 30.71 C36.74 28.43, 34.58 25.69, 32.24 23.7 C29.89 21.71, 27.7 19.01, 25.21 18.77 C22.72 18.52, 19.59 20.37, 17.31 22.25 C15.03 24.12, 13.85 27.66, 11.54 30.01 C9.23 32.35, 6.29 34.91, 3.42 36.31 C0.56 37.72, -2.47 38.57, -5.67 38.45 C-8.86 38.33, -13.53 37.35, -15.75 35.57 C-17.98 33.79, -18.83 30.88, -19.02 27.77 C-19.22 24.67, -20.08 21.57, -16.91 16.94 C-13.74 12.31, -2.82 2.82, 0 0" stroke="#E1E1E1" stroke-width="4" fill="none"/></g></g><mask/><g stroke-linecap="round"><g transform="translate(141.8026561906314 176.63488229257177) rotate(0 10.911744745916167 -4.19865886399657)"><path d="M0 0 C-0.74 0.65, -2.6 4.16, -4.41 3.89 C-6.23 3.63, -8.53 0.5, -10.88 -1.57 C-13.24 -3.64, -15.73 -6.22, -18.56 -8.55 C-21.4 -10.88, -24.61 -14.08, -27.9 -15.55 C-31.2 -17.03, -35.27 -17.88, -38.35 -17.4 C-41.42 -16.93, -44.54 -15.12, -46.35 -12.71 C-48.16 -10.31, -49.44 -6.29, -49.23 -2.99 C-49.03 0.31, -47.77 3.38, -45.14 7.07 C-42.5 10.75, -37.42 15.28, -33.42 19.12 C-29.41 22.96, -24.94 26.69, -21.12 30.1 C-17.3 33.51, -13.94 37.94, -10.48 39.6 C-7.02 41.26, -4.04 41.57, -0.37 40.05 C3.3 38.53, 7.11 34.64, 11.55 30.48 C15.99 26.32, 20.33 21.19, 26.27 15.11 C32.21 9.04, 41 0.26, 47.2 -5.98 C53.39 -12.22, 59.46 -18.2, 63.43 -22.34 C67.41 -26.48, 69.96 -27.82, 71.06 -30.83 C72.16 -33.85, 71.17 -37.59, 70.04 -40.43 C68.91 -43.27, 66.79 -46.51, 64.25 -47.84 C61.71 -49.18, 57.94 -48.79, 54.77 -48.45 C51.61 -48.11, 48.32 -47.71, 45.25 -45.78 C42.18 -43.86, 39.55 -40.01, 36.35 -36.89 C33.15 -33.78, 29.27 -30.48, 26.04 -27.1 C22.8 -23.72, 20.24 -20.04, 16.95 -16.64 C13.67 -13.23, 9.15 -9.43, 6.33 -6.66 C3.5 -3.89, 1.05 -1.11, 0 0 M0 0 C-0.74 0.65, -2.6 4.16, -4.41 3.89 C-6.23 3.63, -8.53 0.5, -10.88 -1.57 C-13.24 -3.64, -15.73 -6.22, -18.56 -8.55 C-21.4 -10.88, -24.61 -14.08, -27.9 -15.55 C-31.2 -17.03, -35.27 -17.88, -38.35 -17.4 C-41.42 -16.93, -44.54 -15.12, -46.35 -12.71 C-48.16 -10.31, -49.44 -6.29, -49.23 -2.99 C-49.03 0.31, -47.77 3.38, -45.14 7.07 C-42.5 10.75, -37.42 15.28, -33.42 19.12 C-29.41 22.96, -24.94 26.69, -21.12 30.1 C-17.3 33.51, -13.94 37.94, -10.48 39.6 C-7.02 41.26, -4.04 41.57, -0.37 40.05 C3.3 38.53, 7.11 34.64, 11.55 30.48 C15.99 26.32, 20.33 21.19, 26.27 15.11 C32.21 9.04, 41 0.26, 47.2 -5.98 C53.39 -12.22, 59.46 -18.2, 63.43 -22.34 C67.41 -26.48, 69.96 -27.82, 71.06 -30.83 C72.16 -33.85, 71.17 -37.59, 70.04 -40.43 C68.91 -43.27, 66.79 -46.51, 64.25 -47.84 C61.71 -49.18, 57.94 -48.79, 54.77 -48.45 C51.61 -48.11, 48.32 -47.71, 45.25 -45.78 C42.18 -43.86, 39.55 -40.01, 36.35 -36.89 C33.15 -33.78, 29.27 -30.48, 26.04 -27.1 C22.8 -23.72, 20.24 -20.04, 16.95 -16.64 C13.67 -13.23, 9.15 -9.43, 6.33 -6.66 C3.5 -3.89, 1.05 -1.11, 0 0" stroke="#E1E1E1" stroke-width="4" fill="none"/></g></g><mask/></svg>