<svg version="1.1" xmlns="http://www.w3.org/2000/svg" viewBox="0 0 598.0076493450347 544.1362464030881" width="598.0076493450347" height="544.1362464030881" class="excalidraw-svg"><!-- svg-source:excalidraw --><metadata></metadata><defs><style class="style-fonts">
      </style></defs><rect x="0" y="0" width="598.0076493450347" height="544.1362464030881" fill="#000000"></rect><g stroke-linecap="round"><g transform="translate(23.371478927852195 61.26307872284383) rotate(0 45.083996229073364 -19.254445614030203)"><path d="M0 0 C0.3 -1.42, 0.61 -5.34, 1.81 -8.52 C3.01 -11.71, 4.76 -15.78, 7.2 -19.1 C9.63 -22.42, 13 -25.8, 16.4 -28.43 C19.8 -31.06, 23.82 -33.21, 27.59 -34.89 C31.35 -36.56, 35.16 -37.89, 39 -38.49 C42.83 -39.1, 46.71 -39.09, 50.6 -38.51 C54.48 -37.93, 58.31 -36.79, 62.31 -35.02 C66.31 -33.25, 70.99 -30.75, 74.61 -27.87 C78.23 -25, 81.63 -21.23, 84.04 -17.77 C86.44 -14.31, 88.01 -10.04, 89.03 -7.11 C90.05 -4.18, 89.98 -1.33, 90.17 -0.17 M0 0 C0.3 -1.42, 0.61 -5.34, 1.81 -8.52 C3.01 -11.71, 4.76 -15.78, 7.2 -19.1 C9.63 -22.42, 13 -25.8, 16.4 -28.43 C19.8 -31.06, 23.82 -33.21, 27.59 -34.89 C31.35 -36.56, 35.16 -37.89, 39 -38.49 C42.83 -39.1, 46.71 -39.09, 50.6 -38.51 C54.48 -37.93, 58.31 -36.79, 62.31 -35.02 C66.31 -33.25, 70.99 -30.75, 74.61 -27.87 C78.23 -25, 81.63 -21.23, 84.04 -17.77 C86.44 -14.31, 88.01 -10.04, 89.03 -7.11 C90.05 -4.18, 89.98 -1.33, 90.17 -0.17" stroke="#E1E1E1" stroke-width="2" fill="none"></path></g></g><mask></mask><g stroke-linecap="round"><g transform="translate(113.38402280167998 61.298856571615715) rotate(0 -44.94026797452477 0)"><path d="M0 0 C-14.98 0, -74.9 0, -89.88 0 M0 0 C-14.98 0, -74.9 0, -89.88 0" stroke="#E1E1E1" stroke-width="2" fill="none"></path></g></g><mask></mask><g stroke-linecap="round"><g transform="translate(106.21232080738605 22.390468851309492) rotate(0 208.80560562578603 249.57391589548953)"><path d="M0 0 C1.41 1.5, 5.88 5.79, 8.43 9 C10.98 12.22, 13.48 15.45, 15.32 19.29 C17.15 23.14, 18.49 27.18, 19.42 32.08 C20.36 36.98, 20.73 40.19, 20.93 48.71 C21.13 57.22, 20.67 70.64, 20.62 83.19 C20.57 95.74, 20.82 110.51, 20.62 124.03 C20.42 137.54, 19.59 155.97, 19.44 164.28 C19.29 172.59, 18.99 170.81, 19.73 173.89 C20.46 176.97, 21.2 177.82, 23.86 182.77 C26.52 187.72, 30.77 194.99, 35.69 203.6 C40.61 212.2, 49.7 227.75, 53.39 234.41 C57.09 241.08, 56.87 240.51, 57.87 243.61 C58.86 246.7, 59.24 249.97, 59.36 252.99 C59.49 256, 59.35 258.7, 58.64 261.68 C57.94 264.66, 57.65 266.32, 55.14 270.88 C52.63 275.44, 47.12 283.55, 43.58 289.02 C40.03 294.49, 36.93 298.72, 33.86 303.71 C30.78 308.7, 27.02 315.4, 25.12 318.94 C23.23 322.48, 23.1 322.79, 22.5 324.96 C21.9 327.12, 21.7 326.29, 21.52 331.92 C21.33 337.55, 21.4 348.07, 21.38 358.75 C21.35 369.43, 21.38 383.64, 21.38 396 C21.38 408.36, 21.38 423.98, 21.38 432.9 C21.38 441.82, 21.37 444.62, 21.38 449.53 C21.38 454.45, 20.97 458.66, 21.4 462.39 C21.83 466.13, 22.37 468.42, 23.96 471.94 C25.55 475.46, 27.95 479.95, 30.95 483.53 C33.95 487.1, 37.81 490.84, 41.97 493.41 C46.12 495.99, 50.92 498.02, 55.87 498.97 C60.82 499.93, 66.34 500.09, 71.67 499.15 C77.01 498.2, 83.69 495.63, 87.89 493.31 C92.09 491, 94.22 488.28, 96.88 485.28 C99.53 482.29, 102.08 478.68, 103.82 475.34 C105.55 472, 106.52 468.97, 107.29 465.26 C108.06 461.55, 107.91 455.82, 108.42 453.08 C108.93 450.35, 109.39 449.78, 110.36 448.84 C111.34 447.9, 111.22 447.68, 114.28 447.45 C117.34 447.22, 123.4 447.45, 128.73 447.45 C134.06 447.45, 138.79 447.45, 146.25 447.45 C153.71 447.45, 161.57 447.45, 173.49 447.45 C185.4 447.45, 205.63 447.45, 217.74 447.45 C229.84 447.45, 231.66 447.45, 246.11 447.45 C260.56 447.45, 284.14 447.45, 304.44 447.45 C324.74 447.45, 351.37 447.45, 367.89 447.45 C384.4 447.45, 395.27 447.46, 403.55 447.45 C411.84 447.45, 415.27 447.42, 417.61 447.41 M0 0 C1.41 1.5, 5.88 5.79, 8.43 9 C10.98 12.22, 13.48 15.45, 15.32 19.29 C17.15 23.14, 18.49 27.18, 19.42 32.08 C20.36 36.98, 20.73 40.19, 20.93 48.71 C21.13 57.22, 20.67 70.64, 20.62 83.19 C20.57 95.74, 20.82 110.51, 20.62 124.03 C20.42 137.54, 19.59 155.97, 19.44 164.28 C19.29 172.59, 18.99 170.81, 19.73 173.89 C20.46 176.97, 21.2 177.82, 23.86 182.77 C26.52 187.72, 30.77 194.99, 35.69 203.6 C40.61 212.2, 49.7 227.75, 53.39 234.41 C57.09 241.08, 56.87 240.51, 57.87 243.61 C58.86 246.7, 59.24 249.97, 59.36 252.99 C59.49 256, 59.35 258.7, 58.64 261.68 C57.94 264.66, 57.65 266.32, 55.14 270.88 C52.63 275.44, 47.12 283.55, 43.58 289.02 C40.03 294.49, 36.93 298.72, 33.86 303.71 C30.78 308.7, 27.02 315.4, 25.12 318.94 C23.23 322.48, 23.1 322.79, 22.5 324.96 C21.9 327.12, 21.7 326.29, 21.52 331.92 C21.33 337.55, 21.4 348.07, 21.38 358.75 C21.35 369.43, 21.38 383.64, 21.38 396 C21.38 408.36, 21.38 423.98, 21.38 432.9 C21.38 441.82, 21.37 444.62, 21.38 449.53 C21.38 454.45, 20.97 458.66, 21.4 462.39 C21.83 466.13, 22.37 468.42, 23.96 471.94 C25.55 475.46, 27.95 479.95, 30.95 483.53 C33.95 487.1, 37.81 490.84, 41.97 493.41 C46.12 495.99, 50.92 498.02, 55.87 498.97 C60.82 499.93, 66.34 500.09, 71.67 499.15 C77.01 498.2, 83.69 495.63, 87.89 493.31 C92.09 491, 94.22 488.28, 96.88 485.28 C99.53 482.29, 102.08 478.68, 103.82 475.34 C105.55 472, 106.52 468.97, 107.29 465.26 C108.06 461.55, 107.91 455.82, 108.42 453.08 C108.93 450.35, 109.39 449.78, 110.36 448.84 C111.34 447.9, 111.22 447.68, 114.28 447.45 C117.34 447.22, 123.4 447.45, 128.73 447.45 C134.06 447.45, 138.79 447.45, 146.25 447.45 C153.71 447.45, 161.57 447.45, 173.49 447.45 C185.4 447.45, 205.63 447.45, 217.74 447.45 C229.84 447.45, 231.66 447.45, 246.11 447.45 C260.56 447.45, 284.14 447.45, 304.44 447.45 C324.74 447.45, 351.37 447.45, 367.89 447.45 C384.4 447.45, 395.27 447.46, 403.55 447.45 C411.84 447.45, 415.27 447.42, 417.61 447.41" stroke="#E1E1E1" stroke-width="2" fill="none"></path></g></g><mask></mask><g stroke-linecap="round"><g transform="translate(524.2650906886092 469.7887569297711) rotate(0 -208.75860051878726 -223.7043689829083)"><path d="M0 0 C0 -1.27, 0 -2.99, 0 -7.59 C0 -12.2, 0.24 -23.02, 0 -27.64 C-0.24 -32.27, -0.56 -33.1, -1.45 -35.34 C-2.33 -37.59, -3.98 -39.47, -5.3 -41.13 C-6.63 -42.8, -7.74 -43.9, -9.38 -45.32 C-11.03 -46.75, -13.27 -48.1, -15.16 -49.71 C-17.05 -51.32, -19.06 -52.98, -20.75 -54.99 C-22.44 -57, -24.15 -59.45, -25.3 -61.78 C-26.46 -64.12, -27.15 -66.1, -27.67 -68.98 C-28.18 -71.86, -28.8 -75.5, -28.38 -79.07 C-27.96 -82.65, -26.88 -86.6, -25.14 -90.43 C-23.41 -94.27, -21.23 -96.99, -17.97 -102.07 C-14.72 -107.15, -8.43 -116.35, -5.59 -120.9 C-2.76 -125.46, -1.9 -126.13, -0.99 -129.39 C-0.09 -132.66, -0.31 -135.61, -0.16 -140.48 C-0.01 -145.35, -0.11 -151.59, -0.07 -158.61 C-0.04 -165.64, 0.03 -169.48, 0.05 -182.62 C0.07 -195.77, 0.26 -225.95, 0.05 -237.51 C-0.16 -249.06, -0.24 -248.36, -1.21 -251.94 C-2.18 -255.52, -4.07 -256.94, -5.77 -258.98 C-7.47 -261.02, -9.77 -262.21, -11.41 -264.18 C-13.05 -266.14, -14.43 -268.3, -15.59 -270.77 C-16.74 -273.24, -17.83 -276.08, -18.34 -279.01 C-18.85 -281.94, -18.94 -285.26, -18.67 -288.35 C-18.39 -291.45, -17.89 -294.61, -16.69 -297.6 C-15.49 -300.58, -13.53 -303.6, -11.46 -306.26 C-9.4 -308.92, -6.11 -311.02, -4.29 -313.54 C-2.48 -316.07, -1.29 -317.71, -0.59 -321.4 C0.11 -325.1, -0.18 -328.85, -0.1 -335.69 C-0.02 -342.53, -0.1 -351.87, -0.1 -362.45 C-0.1 -373.03, 0.32 -390.21, -0.1 -399.18 C-0.51 -408.16, -1.18 -411.56, -2.58 -416.3 C-3.97 -421.05, -5.92 -424.09, -8.48 -427.64 C-11.03 -431.18, -14.78 -434.98, -17.93 -437.56 C-21.08 -440.14, -23.86 -441.68, -27.39 -443.11 C-30.93 -444.55, -34.61 -445.46, -39.16 -446.17 C-43.7 -446.89, -48.03 -447.2, -54.64 -447.41 C-61.26 -447.61, -68.44 -447.41, -78.84 -447.41 C-89.24 -447.41, -103.46 -447.41, -117.05 -447.41 C-130.64 -447.41, -146.78 -447.41, -160.36 -447.41 C-173.95 -447.41, -185.14 -447.41, -198.55 -447.41 C-211.96 -447.41, -228.01 -447.41, -240.82 -447.41 C-253.62 -447.41, -263.13 -447.41, -275.36 -447.41 C-287.59 -447.41, -293.99 -447.41, -314.21 -447.41 C-334.42 -447.41, -379.4 -447.41, -396.63 -447.41 C-413.86 -447.41, -414.08 -447.41, -417.57 -447.41 M0 0 C0 -1.27, 0 -2.99, 0 -7.59 C0 -12.2, 0.24 -23.02, 0 -27.64 C-0.24 -32.27, -0.56 -33.1, -1.45 -35.34 C-2.33 -37.59, -3.98 -39.47, -5.3 -41.13 C-6.63 -42.8, -7.74 -43.9, -9.38 -45.32 C-11.03 -46.75, -13.27 -48.1, -15.16 -49.71 C-17.05 -51.32, -19.06 -52.98, -20.75 -54.99 C-22.44 -57, -24.15 -59.45, -25.3 -61.78 C-26.46 -64.12, -27.15 -66.1, -27.67 -68.98 C-28.18 -71.86, -28.8 -75.5, -28.38 -79.07 C-27.96 -82.65, -26.88 -86.6, -25.14 -90.43 C-23.41 -94.27, -21.23 -96.99, -17.97 -102.07 C-14.72 -107.15, -8.43 -116.35, -5.59 -120.9 C-2.76 -125.46, -1.9 -126.13, -0.99 -129.39 C-0.09 -132.66, -0.31 -135.61, -0.16 -140.48 C-0.01 -145.35, -0.11 -151.59, -0.07 -158.61 C-0.04 -165.64, 0.03 -169.48, 0.05 -182.62 C0.07 -195.77, 0.26 -225.95, 0.05 -237.51 C-0.16 -249.06, -0.24 -248.36, -1.21 -251.94 C-2.18 -255.52, -4.07 -256.94, -5.77 -258.98 C-7.47 -261.02, -9.77 -262.21, -11.41 -264.18 C-13.05 -266.14, -14.43 -268.3, -15.59 -270.77 C-16.74 -273.24, -17.83 -276.08, -18.34 -279.01 C-18.85 -281.94, -18.94 -285.26, -18.67 -288.35 C-18.39 -291.45, -17.89 -294.61, -16.69 -297.6 C-15.49 -300.58, -13.53 -303.6, -11.46 -306.26 C-9.4 -308.92, -6.11 -311.02, -4.29 -313.54 C-2.48 -316.07, -1.29 -317.71, -0.59 -321.4 C0.11 -325.1, -0.18 -328.85, -0.1 -335.69 C-0.02 -342.53, -0.1 -351.87, -0.1 -362.45 C-0.1 -373.03, 0.32 -390.21, -0.1 -399.18 C-0.51 -408.16, -1.18 -411.56, -2.58 -416.3 C-3.97 -421.05, -5.92 -424.09, -8.48 -427.64 C-11.03 -431.18, -14.78 -434.98, -17.93 -437.56 C-21.08 -440.14, -23.86 -441.68, -27.39 -443.11 C-30.93 -444.55, -34.61 -445.46, -39.16 -446.17 C-43.7 -446.89, -48.03 -447.2, -54.64 -447.41 C-61.26 -447.61, -68.44 -447.41, -78.84 -447.41 C-89.24 -447.41, -103.46 -447.41, -117.05 -447.41 C-130.64 -447.41, -146.78 -447.41, -160.36 -447.41 C-173.95 -447.41, -185.14 -447.41, -198.55 -447.41 C-211.96 -447.41, -228.01 -447.41, -240.82 -447.41 C-253.62 -447.41, -263.13 -447.41, -275.36 -447.41 C-287.59 -447.41, -293.99 -447.41, -314.21 -447.41 C-334.42 -447.41, -379.4 -447.41, -396.63 -447.41 C-413.86 -447.41, -414.08 -447.41, -417.57 -447.41" stroke="#E1E1E1" stroke-width="2" fill="none"></path></g></g><mask></mask><g stroke-linecap="round"><g transform="translate(114.19427212501114 74.6773095485778) rotate(0 184.76919013699762 197.3378217844612)"><path d="M0 0 C-0.15 -0.15, -0.26 -0.7, -0.92 -0.88 C-1.58 -1.05, 0.66 -1.03, -3.97 -1.06 C-8.59 -1.09, -18.68 -1.06, -28.67 -1.06 C-38.67 -1.06, -52.93 -1.06, -63.95 -1.06 C-74.96 -1.06, -88.67 -1.05, -94.75 -1.06 C-100.83 -1.07, -99.11 -0.89, -100.41 -1.13 C-101.72 -1.37, -102 -1.9, -102.58 -2.52 C-103.15 -3.14, -103.62 -3.5, -103.89 -4.84 C-104.15 -6.19, -104.24 -8.65, -104.17 -10.61 C-104.11 -12.58, -104.15 -13.88, -103.5 -16.65 C-102.84 -19.42, -101.7 -23.54, -100.25 -27.23 C-98.8 -30.92, -97.05 -35.26, -94.81 -38.79 C-92.58 -42.32, -90.12 -45.37, -86.82 -48.41 C-83.53 -51.45, -79.25 -54.66, -75.05 -57.03 C-70.84 -59.4, -65.76 -61.38, -61.58 -62.62 C-57.4 -63.86, -55.07 -64.17, -49.97 -64.48 C-44.87 -64.78, -37.85 -64.47, -30.98 -64.46 C-24.1 -64.46, -18.61 -64.46, -8.71 -64.46 C1.19 -64.46, 14.19 -64.46, 28.42 -64.46 C42.66 -64.46, 62.29 -64.46, 76.72 -64.46 C91.14 -64.46, 97.35 -64.46, 115 -64.46 C132.65 -64.46, 161.89 -64.46, 182.61 -64.46 C203.32 -64.46, 210.09 -64.46, 239.3 -64.46 C268.51 -64.46, 333.5 -64.94, 357.84 -64.46 C382.19 -63.98, 378.43 -63.42, 385.36 -61.58 C392.28 -59.74, 395.26 -56.48, 399.39 -53.41 C403.52 -50.34, 407.02 -47.13, 410.14 -43.17 C413.26 -39.21, 416.21 -34.04, 418.11 -29.66 C420.01 -25.28, 420.82 -22.01, 421.54 -16.89 C422.26 -11.77, 422.34 -6.72, 422.42 1.05 C422.5 8.82, 422.09 17.85, 422.03 29.74 C421.96 41.63, 422.39 63.47, 422.03 72.38 C421.66 81.28, 421.47 79.74, 419.83 83.15 C418.19 86.55, 414.44 89.94, 412.17 92.81 C409.9 95.67, 407.64 97.58, 406.2 100.34 C404.77 103.1, 403.35 106.09, 403.55 109.38 C403.74 112.66, 405.37 116.95, 407.37 120.04 C409.36 123.12, 413.26 124.91, 415.53 127.88 C417.8 130.84, 419.81 133.25, 420.98 137.84 C422.14 142.44, 422.27 147.57, 422.53 155.46 C422.79 163.36, 422.53 170.35, 422.53 185.23 C422.53 200.1, 422.55 231.72, 422.53 244.71 C422.51 257.7, 422.77 258.48, 422.41 263.16 C422.04 267.84, 422.27 268.49, 420.34 272.78 C418.4 277.07, 414.41 283.08, 410.81 288.88 C407.21 294.68, 401.36 303.11, 398.74 307.57 C396.12 312.02, 395.7 312.91, 395.09 315.61 C394.49 318.3, 394.58 321.24, 395.13 323.74 C395.67 326.23, 396.22 328.03, 398.36 330.58 C400.49 333.12, 405.08 336.51, 407.94 339.01 C410.81 341.51, 413.49 343.04, 415.57 345.61 C417.64 348.17, 419.3 351.81, 420.4 354.4 C421.5 356.98, 421.8 358.29, 422.15 361.1 C422.51 363.91, 422.46 367.3, 422.53 371.27 C422.59 375.24, 422.56 381.03, 422.53 384.91 C422.49 388.79, 421.98 392.73, 422.33 394.54 C422.69 396.35, 422.9 395.57, 424.64 395.77 C426.37 395.98, 427.82 395.77, 432.76 395.77 C437.69 395.77, 448.69 395.77, 454.25 395.77 C459.82 395.77, 463.43 395.65, 466.16 395.77 C468.88 395.9, 469.41 395.89, 470.62 396.52 C471.83 397.15, 472.93 398.3, 473.44 399.55 C473.96 400.8, 473.82 401.86, 473.71 404.02 C473.61 406.18, 473.62 408.98, 472.8 412.51 C471.98 416.04, 470.91 421.05, 468.8 425.2 C466.69 429.34, 463.6 433.89, 460.15 437.4 C456.69 440.92, 452.61 443.73, 448.08 446.3 C443.54 448.88, 438.57 451.02, 432.95 452.85 C427.33 454.67, 420.79 456.25, 414.35 457.26 C407.91 458.27, 400.62 458.62, 394.29 458.92 C387.96 459.23, 384.34 459.06, 376.38 459.08 C368.43 459.11, 360.61 459.08, 346.56 459.08 C332.51 459.08, 313.04 459.08, 292.09 459.08 C271.15 459.08, 242.82 459.08, 220.9 459.08 C198.97 459.08, 183.9 459.08, 160.52 459.08 C137.14 459.08, 98.76 459.07, 80.61 459.08 C62.46 459.09, 59.5 459.88, 51.61 459.15 C43.72 458.43, 38.62 456.97, 33.26 454.74 C27.91 452.5, 23.58 449.41, 19.49 445.76 C15.39 442.12, 11.65 437.84, 8.7 432.86 C5.76 427.88, 3.22 422.67, 1.81 415.89 C0.41 409.11, 0.53 401.65, 0.27 392.21 C0.02 382.76, 0.14 372.54, 0.27 359.22 C0.41 345.91, 0.97 326.87, 1.1 312.29 C1.24 297.71, -0.46 281.71, 1.09 271.75 C2.64 261.79, 6.22 259.99, 10.4 252.54 C14.57 245.09, 21.68 234.41, 26.15 227.06 C30.61 219.72, 35.21 213.39, 37.19 208.49 C39.17 203.59, 38.4 200.59, 38.03 197.66 C37.66 194.73, 36.52 193.83, 34.98 190.93 C33.45 188.02, 31.2 184.43, 28.82 180.24 C26.44 176.04, 23.7 171.09, 20.72 165.76 C17.73 160.42, 14.04 153.83, 10.9 148.23 C7.76 142.63, 3.93 136.32, 1.89 132.14 C-0.14 127.96, -0.72 126.71, -1.32 123.14 C-1.92 119.56, -1.64 116.65, -1.7 110.71 C-1.76 104.77, -1.89 98.26, -1.7 87.49 C-1.51 76.73, -0.86 60.68, -0.57 46.1 C-0.29 31.52, -0.1 7.68, 0 0 M0 0 C-0.15 -0.15, -0.26 -0.7, -0.92 -0.88 C-1.58 -1.05, 0.66 -1.03, -3.97 -1.06 C-8.59 -1.09, -18.68 -1.06, -28.67 -1.06 C-38.67 -1.06, -52.93 -1.06, -63.95 -1.06 C-74.96 -1.06, -88.67 -1.05, -94.75 -1.06 C-100.83 -1.07, -99.11 -0.89, -100.41 -1.13 C-101.72 -1.37, -102 -1.9, -102.58 -2.52 C-103.15 -3.14, -103.62 -3.5, -103.89 -4.84 C-104.15 -6.19, -104.24 -8.65, -104.17 -10.61 C-104.11 -12.58, -104.15 -13.88, -103.5 -16.65 C-102.84 -19.42, -101.7 -23.54, -100.25 -27.23 C-98.8 -30.92, -97.05 -35.26, -94.81 -38.79 C-92.58 -42.32, -90.12 -45.37, -86.82 -48.41 C-83.53 -51.45, -79.25 -54.66, -75.05 -57.03 C-70.84 -59.4, -65.76 -61.38, -61.58 -62.62 C-57.4 -63.86, -55.07 -64.17, -49.97 -64.48 C-44.87 -64.78, -37.85 -64.47, -30.98 -64.46 C-24.1 -64.46, -18.61 -64.46, -8.71 -64.46 C1.19 -64.46, 14.19 -64.46, 28.42 -64.46 C42.66 -64.46, 62.29 -64.46, 76.72 -64.46 C91.14 -64.46, 97.35 -64.46, 115 -64.46 C132.65 -64.46, 161.89 -64.46, 182.61 -64.46 C203.32 -64.46, 210.09 -64.46, 239.3 -64.46 C268.51 -64.46, 333.5 -64.94, 357.84 -64.46 C382.19 -63.98, 378.43 -63.42, 385.36 -61.58 C392.28 -59.74, 395.26 -56.48, 399.39 -53.41 C403.52 -50.34, 407.02 -47.13, 410.14 -43.17 C413.26 -39.21, 416.21 -34.04, 418.11 -29.66 C420.01 -25.28, 420.82 -22.01, 421.54 -16.89 C422.26 -11.77, 422.34 -6.72, 422.42 1.05 C422.5 8.82, 422.09 17.85, 422.03 29.74 C421.96 41.63, 422.39 63.47, 422.03 72.38 C421.66 81.28, 421.47 79.74, 419.83 83.15 C418.19 86.55, 414.44 89.94, 412.17 92.81 C409.9 95.67, 407.64 97.58, 406.2 100.34 C404.77 103.1, 403.35 106.09, 403.55 109.38 C403.74 112.66, 405.37 116.95, 407.37 120.04 C409.36 123.12, 413.26 124.91, 415.53 127.88 C417.8 130.84, 419.81 133.25, 420.98 137.84 C422.14 142.44, 422.27 147.57, 422.53 155.46 C422.79 163.36, 422.53 170.35, 422.53 185.23 C422.53 200.1, 422.55 231.72, 422.53 244.71 C422.51 257.7, 422.77 258.48, 422.41 263.16 C422.04 267.84, 422.27 268.49, 420.34 272.78 C418.4 277.07, 414.41 283.08, 410.81 288.88 C407.21 294.68, 401.36 303.11, 398.74 307.57 C396.12 312.02, 395.7 312.91, 395.09 315.61 C394.49 318.3, 394.58 321.24, 395.13 323.74 C395.67 326.23, 396.22 328.03, 398.36 330.58 C400.49 333.12, 405.08 336.51, 407.94 339.01 C410.81 341.51, 413.49 343.04, 415.57 345.61 C417.64 348.17, 419.3 351.81, 420.4 354.4 C421.5 356.98, 421.8 358.29, 422.15 361.1 C422.51 363.91, 422.46 367.3, 422.53 371.27 C422.59 375.24, 422.56 381.03, 422.53 384.91 C422.49 388.79, 421.98 392.73, 422.33 394.54 C422.69 396.35, 422.9 395.57, 424.64 395.77 C426.37 395.98, 427.82 395.77, 432.76 395.77 C437.69 395.77, 448.69 395.77, 454.25 395.77 C459.82 395.77, 463.43 395.65, 466.16 395.77 C468.88 395.9, 469.41 395.89, 470.62 396.52 C471.83 397.15, 472.93 398.3, 473.44 399.55 C473.96 400.8, 473.82 401.86, 473.71 404.02 C473.61 406.18, 473.62 408.98, 472.8 412.51 C471.98 416.04, 470.91 421.05, 468.8 425.2 C466.69 429.34, 463.6 433.89, 460.15 437.4 C456.69 440.92, 452.61 443.73, 448.08 446.3 C443.54 448.88, 438.57 451.02, 432.95 452.85 C427.33 454.67, 420.79 456.25, 414.35 457.26 C407.91 458.27, 400.62 458.62, 394.29 458.92 C387.96 459.23, 384.34 459.06, 376.38 459.08 C368.43 459.11, 360.61 459.08, 346.56 459.08 C332.51 459.08, 313.04 459.08, 292.09 459.08 C271.15 459.08, 242.82 459.08, 220.9 459.08 C198.97 459.08, 183.9 459.08, 160.52 459.08 C137.14 459.08, 98.76 459.07, 80.61 459.08 C62.46 459.09, 59.5 459.88, 51.61 459.15 C43.72 458.43, 38.62 456.97, 33.26 454.74 C27.91 452.5, 23.58 449.41, 19.49 445.76 C15.39 442.12, 11.65 437.84, 8.7 432.86 C5.76 427.88, 3.22 422.67, 1.81 415.89 C0.41 409.11, 0.53 401.65, 0.27 392.21 C0.02 382.76, 0.14 372.54, 0.27 359.22 C0.41 345.91, 0.97 326.87, 1.1 312.29 C1.24 297.71, -0.46 281.71, 1.09 271.75 C2.64 261.79, 6.22 259.99, 10.4 252.54 C14.57 245.09, 21.68 234.41, 26.15 227.06 C30.61 219.72, 35.21 213.39, 37.19 208.49 C39.17 203.59, 38.4 200.59, 38.03 197.66 C37.66 194.73, 36.52 193.83, 34.98 190.93 C33.45 188.02, 31.2 184.43, 28.82 180.24 C26.44 176.04, 23.7 171.09, 20.72 165.76 C17.73 160.42, 14.04 153.83, 10.9 148.23 C7.76 142.63, 3.93 136.32, 1.89 132.14 C-0.14 127.96, -0.72 126.71, -1.32 123.14 C-1.92 119.56, -1.64 116.65, -1.7 110.71 C-1.76 104.77, -1.89 98.26, -1.7 87.49 C-1.51 76.73, -0.86 60.68, -0.57 46.1 C-0.29 31.52, -0.1 7.68, 0 0" stroke="#E1E1E1" stroke-width="2" fill="none"></path></g></g><mask></mask><g stroke-linecap="round"><g transform="translate(207.9740994546687 520.3454887791804) rotate(0 183.3014706807719 -18.934404286356504)"><path d="M0 0 C1.43 -1.54, 6.07 -5.66, 8.61 -9.21 C11.14 -12.76, 13.61 -17.54, 15.21 -21.3 C16.82 -25.05, 17.46 -29.1, 18.25 -31.75 C19.03 -34.4, 19.02 -36.18, 19.93 -37.2 C20.85 -38.22, 20.94 -37.76, 23.73 -37.87 C26.52 -37.98, 22.75 -37.87, 36.66 -37.87 C50.57 -37.87, 82.97 -37.87, 107.19 -37.87 C131.42 -37.87, 157.87 -37.87, 182 -37.87 C206.14 -37.87, 227.91 -37.87, 252 -37.87 C276.1 -37.87, 308.65 -37.87, 326.58 -37.87 C344.51 -37.87, 353.01 -37.87, 359.58 -37.87 C366.16 -37.87, 364.86 -38.33, 366.03 -37.87 C367.2 -37.4, 366.89 -36.61, 366.6 -35.07 C366.32 -33.53, 365.84 -31.44, 364.32 -28.62 C362.81 -25.8, 360.3 -21.11, 357.5 -18.16 C354.7 -15.21, 351.79 -13.21, 347.54 -10.91 C343.29 -8.61, 337.34 -5.95, 332.01 -4.37 C326.69 -2.78, 322.04 -2.1, 315.59 -1.38 C309.13 -0.66, 302.08 -0.28, 293.31 -0.05 C284.53 0.18, 273.58 -0.02, 262.92 -0.01 C252.25 -0.01, 240.98 -0.01, 229.32 -0.01 C217.65 -0.01, 206.29 -0.01, 192.95 -0.01 C179.61 -0.01, 170.37 -0.01, 149.29 -0.01 C128.22 -0.01, 91.37 -0.01, 66.48 -0.01 C41.6 -0.01, 11.08 0, 0 0 M0 0 C1.43 -1.54, 6.07 -5.66, 8.61 -9.21 C11.14 -12.76, 13.61 -17.54, 15.21 -21.3 C16.82 -25.05, 17.46 -29.1, 18.25 -31.75 C19.03 -34.4, 19.02 -36.18, 19.93 -37.2 C20.85 -38.22, 20.94 -37.76, 23.73 -37.87 C26.52 -37.98, 22.75 -37.87, 36.66 -37.87 C50.57 -37.87, 82.97 -37.87, 107.19 -37.87 C131.42 -37.87, 157.87 -37.87, 182 -37.87 C206.14 -37.87, 227.91 -37.87, 252 -37.87 C276.1 -37.87, 308.65 -37.87, 326.58 -37.87 C344.51 -37.87, 353.01 -37.87, 359.58 -37.87 C366.16 -37.87, 364.86 -38.33, 366.03 -37.87 C367.2 -37.4, 366.89 -36.61, 366.6 -35.07 C366.32 -33.53, 365.84 -31.44, 364.32 -28.62 C362.81 -25.8, 360.3 -21.11, 357.5 -18.16 C354.7 -15.21, 351.79 -13.21, 347.54 -10.91 C343.29 -8.61, 337.34 -5.95, 332.01 -4.37 C326.69 -2.78, 322.04 -2.1, 315.59 -1.38 C309.13 -0.66, 302.08 -0.28, 293.31 -0.05 C284.53 0.18, 273.58 -0.02, 262.92 -0.01 C252.25 -0.01, 240.98 -0.01, 229.32 -0.01 C217.65 -0.01, 206.29 -0.01, 192.95 -0.01 C179.61 -0.01, 170.37 -0.01, 149.29 -0.01 C128.22 -0.01, 91.37 -0.01, 66.48 -0.01 C41.6 -0.01, 11.08 0, 0 0" stroke="#E1E1E1" stroke-width="2" fill="none"></path></g></g><mask></mask><g stroke-linecap="round"><g transform="translate(226.1894978285975 431.8306915082418) rotate(0 99.71885591613295 2.497110859286906)"><path d="M0 0 C0.99 -0.15, 3.48 -0.14, 5.95 -0.89 C8.41 -1.63, 12.09 -3.43, 14.81 -4.46 C17.53 -5.49, 19.75 -6.43, 22.27 -7.08 C24.79 -7.73, 27.12 -8.28, 29.93 -8.37 C32.75 -8.46, 35.73 -8.39, 39.17 -7.63 C42.61 -6.88, 47.02 -5.08, 50.59 -3.82 C54.16 -2.56, 57.22 -0.73, 60.61 -0.08 C64 0.58, 67.29 0.81, 70.93 0.09 C74.56 -0.63, 78.84 -3.06, 82.43 -4.4 C86.02 -5.74, 89.26 -7.32, 92.47 -7.96 C95.69 -8.61, 98.38 -8.48, 101.72 -8.29 C105.07 -8.1, 108.91 -7.92, 112.55 -6.83 C116.19 -5.73, 120.39 -2.88, 123.57 -1.72 C126.76 -0.56, 128.15 0.11, 131.65 0.14 C135.14 0.17, 140.46 -0.38, 144.54 -1.53 C148.61 -2.68, 152.66 -5.65, 156.09 -6.78 C159.51 -7.92, 161.46 -8.21, 165.08 -8.33 C168.7 -8.45, 173.87 -8.4, 177.81 -7.48 C181.75 -6.56, 185.74 -3.98, 188.75 -2.8 C191.76 -1.62, 193.26 -0.85, 195.87 -0.4 C198.48 0.05, 202.39 -0.66, 204.42 -0.08 C206.45 0.5, 207.27 1.93, 208.04 3.08 C208.81 4.22, 209.15 5.43, 209.05 6.8 C208.94 8.16, 208.6 10.16, 207.4 11.26 C206.2 12.35, 204.53 13.19, 201.83 13.37 C199.12 13.54, 194.68 13.21, 191.16 12.32 C187.64 11.43, 184 9.11, 180.71 8.01 C177.43 6.91, 174.89 6.1, 171.47 5.7 C168.05 5.3, 163.66 4.96, 160.2 5.6 C156.73 6.24, 153.51 8.44, 150.66 9.54 C147.8 10.63, 146.68 11.59, 143.08 12.17 C139.49 12.75, 133.7 13.5, 129.06 13.02 C124.43 12.53, 118.84 10.45, 115.26 9.24 C111.68 8.04, 110.5 6.53, 107.57 5.78 C104.63 5.03, 100.81 4.57, 97.65 4.76 C94.49 4.95, 91.94 5.74, 88.6 6.92 C85.27 8.1, 81.61 10.84, 77.65 11.81 C73.69 12.79, 69.11 12.86, 64.84 12.76 C60.58 12.66, 56.22 12.33, 52.09 11.23 C47.95 10.13, 43.28 7.17, 40.04 6.16 C36.8 5.15, 35.44 5.21, 32.66 5.17 C29.88 5.14, 26.76 5.03, 23.38 5.94 C20 6.85, 16.31 9.42, 12.38 10.63 C8.45 11.85, 3.21 13.11, -0.22 13.21 C-3.66 13.32, -6.67 12.45, -8.23 11.25 C-9.8 10.06, -9.85 7.76, -9.61 6.05 C-9.37 4.34, -7.81 2.07, -6.79 1.01 C-5.78 -0.06, -4.67 -0.18, -3.54 -0.35 C-2.4 -0.52, -0.59 -0.06, 0 0 M0 0 C0.99 -0.15, 3.48 -0.14, 5.95 -0.89 C8.41 -1.63, 12.09 -3.43, 14.81 -4.46 C17.53 -5.49, 19.75 -6.43, 22.27 -7.08 C24.79 -7.73, 27.12 -8.28, 29.93 -8.37 C32.75 -8.46, 35.73 -8.39, 39.17 -7.63 C42.61 -6.88, 47.02 -5.08, 50.59 -3.82 C54.16 -2.56, 57.22 -0.73, 60.61 -0.08 C64 0.58, 67.29 0.81, 70.93 0.09 C74.56 -0.63, 78.84 -3.06, 82.43 -4.4 C86.02 -5.74, 89.26 -7.32, 92.47 -7.96 C95.69 -8.61, 98.38 -8.48, 101.72 -8.29 C105.07 -8.1, 108.91 -7.92, 112.55 -6.83 C116.19 -5.73, 120.39 -2.88, 123.57 -1.72 C126.76 -0.56, 128.15 0.11, 131.65 0.14 C135.14 0.17, 140.46 -0.38, 144.54 -1.53 C148.61 -2.68, 152.66 -5.65, 156.09 -6.78 C159.51 -7.92, 161.46 -8.21, 165.08 -8.33 C168.7 -8.45, 173.87 -8.4, 177.81 -7.48 C181.75 -6.56, 185.74 -3.98, 188.75 -2.8 C191.76 -1.62, 193.26 -0.85, 195.87 -0.4 C198.48 0.05, 202.39 -0.66, 204.42 -0.08 C206.45 0.5, 207.27 1.93, 208.04 3.08 C208.81 4.22, 209.15 5.43, 209.05 6.8 C208.94 8.16, 208.6 10.16, 207.4 11.26 C206.2 12.35, 204.53 13.19, 201.83 13.37 C199.12 13.54, 194.68 13.21, 191.16 12.32 C187.64 11.43, 184 9.11, 180.71 8.01 C177.43 6.91, 174.89 6.1, 171.47 5.7 C168.05 5.3, 163.66 4.96, 160.2 5.6 C156.73 6.24, 153.51 8.44, 150.66 9.54 C147.8 10.63, 146.68 11.59, 143.08 12.17 C139.49 12.75, 133.7 13.5, 129.06 13.02 C124.43 12.53, 118.84 10.45, 115.26 9.24 C111.68 8.04, 110.5 6.53, 107.57 5.78 C104.63 5.03, 100.81 4.57, 97.65 4.76 C94.49 4.95, 91.94 5.74, 88.6 6.92 C85.27 8.1, 81.61 10.84, 77.65 11.81 C73.69 12.79, 69.11 12.86, 64.84 12.76 C60.58 12.66, 56.22 12.33, 52.09 11.23 C47.95 10.13, 43.28 7.17, 40.04 6.16 C36.8 5.15, 35.44 5.21, 32.66 5.17 C29.88 5.14, 26.76 5.03, 23.38 5.94 C20 6.85, 16.31 9.42, 12.38 10.63 C8.45 11.85, 3.21 13.11, -0.22 13.21 C-3.66 13.32, -6.67 12.45, -8.23 11.25 C-9.8 10.06, -9.85 7.76, -9.61 6.05 C-9.37 4.34, -7.81 2.07, -6.79 1.01 C-5.78 -0.06, -4.67 -0.18, -3.54 -0.35 C-2.4 -0.52, -0.59 -0.06, 0 0" stroke="#E1E1E1" stroke-width="2" fill="none"></path></g></g><mask></mask><g stroke-linecap="round"><g transform="translate(274.72393728104953 381.4235483655681) rotate(0 51.23785954411494 6.7046933136635545)"><path d="M0 0 C1.62 0.64, 6.46 3.09, 9.72 3.84 C12.97 4.59, 15.95 4.9, 19.56 4.49 C23.16 4.07, 27.66 2.56, 31.36 1.33 C35.05 0.1, 38.62 -2.06, 41.72 -2.9 C44.81 -3.75, 46.89 -3.75, 49.91 -3.73 C52.93 -3.7, 56.3 -3.57, 59.85 -2.76 C63.39 -1.95, 67.79 -0.12, 71.18 1.12 C74.58 2.36, 76.87 4.11, 80.22 4.69 C83.57 5.26, 87.73 5.27, 91.27 4.56 C94.81 3.86, 98.09 1.76, 101.46 0.47 C104.83 -0.82, 107.72 -2.49, 111.51 -3.18 C115.29 -3.87, 119.74 -4.23, 124.16 -3.68 C128.59 -3.13, 134.08 -1.17, 138.06 0.12 C142.04 1.41, 144.89 3.28, 148.06 4.05 C151.23 4.82, 155.07 4.12, 157.07 4.73 C159.08 5.33, 159.54 6.45, 160.08 7.69 C160.63 8.94, 160.77 10.68, 160.33 12.2 C159.9 13.72, 158.81 15.94, 157.47 16.82 C156.12 17.7, 154.47 17.57, 152.27 17.49 C150.07 17.42, 147.59 17.27, 144.28 16.38 C140.96 15.48, 136.11 13.32, 132.38 12.12 C128.65 10.92, 125.13 9.63, 121.9 9.19 C118.67 8.75, 115.86 8.85, 112.99 9.47 C110.12 10.1, 107.63 11.88, 104.67 12.96 C101.71 14.04, 98.34 15.23, 95.22 15.96 C92.1 16.68, 89.28 17.2, 85.94 17.31 C82.6 17.42, 79.14 17.57, 75.18 16.59 C71.22 15.61, 65.67 12.72, 62.17 11.44 C58.67 10.16, 56.81 9.25, 54.18 8.93 C51.55 8.6, 49.1 8.94, 46.4 9.49 C43.7 10.03, 40.84 11.17, 37.97 12.2 C35.09 13.23, 32.2 14.85, 29.15 15.69 C26.09 16.53, 23.36 17.18, 19.62 17.25 C15.88 17.31, 10.4 16.85, 6.71 16.06 C3.02 15.28, 0.46 13.61, -2.51 12.52 C-5.48 11.43, -7.98 10.05, -11.12 9.53 C-14.25 9.01, -18.3 9.1, -21.32 9.43 C-24.33 9.75, -26.2 10.41, -29.22 11.5 C-32.23 12.59, -36.29 14.98, -39.41 15.98 C-42.52 16.97, -45.33 17.32, -47.93 17.47 C-50.52 17.63, -53.32 17.68, -54.98 16.89 C-56.63 16.1, -57.5 14.2, -57.86 12.73 C-58.22 11.26, -57.79 9.4, -57.12 8.06 C-56.45 6.72, -55.56 5.3, -53.82 4.69 C-52.09 4.08, -49.3 4.87, -46.72 4.42 C-44.15 3.96, -41.49 3.1, -38.37 1.96 C-35.24 0.82, -31.24 -1.44, -27.98 -2.45 C-24.72 -3.46, -22.07 -3.99, -18.81 -4.08 C-15.54 -4.18, -11.54 -3.67, -8.4 -2.99 C-5.27 -2.31, -1.4 -0.5, 0 0 M0 0 C1.62 0.64, 6.46 3.09, 9.72 3.84 C12.97 4.59, 15.95 4.9, 19.56 4.49 C23.16 4.07, 27.66 2.56, 31.36 1.33 C35.05 0.1, 38.62 -2.06, 41.72 -2.9 C44.81 -3.75, 46.89 -3.75, 49.91 -3.73 C52.93 -3.7, 56.3 -3.57, 59.85 -2.76 C63.39 -1.95, 67.79 -0.12, 71.18 1.12 C74.58 2.36, 76.87 4.11, 80.22 4.69 C83.57 5.26, 87.73 5.27, 91.27 4.56 C94.81 3.86, 98.09 1.76, 101.46 0.47 C104.83 -0.82, 107.72 -2.49, 111.51 -3.18 C115.29 -3.87, 119.74 -4.23, 124.16 -3.68 C128.59 -3.13, 134.08 -1.17, 138.06 0.12 C142.04 1.41, 144.89 3.28, 148.06 4.05 C151.23 4.82, 155.07 4.12, 157.07 4.73 C159.08 5.33, 159.54 6.45, 160.08 7.69 C160.63 8.94, 160.77 10.68, 160.33 12.2 C159.9 13.72, 158.81 15.94, 157.47 16.82 C156.12 17.7, 154.47 17.57, 152.27 17.49 C150.07 17.42, 147.59 17.27, 144.28 16.38 C140.96 15.48, 136.11 13.32, 132.38 12.12 C128.65 10.92, 125.13 9.63, 121.9 9.19 C118.67 8.75, 115.86 8.85, 112.99 9.47 C110.12 10.1, 107.63 11.88, 104.67 12.96 C101.71 14.04, 98.34 15.23, 95.22 15.96 C92.1 16.68, 89.28 17.2, 85.94 17.31 C82.6 17.42, 79.14 17.57, 75.18 16.59 C71.22 15.61, 65.67 12.72, 62.17 11.44 C58.67 10.16, 56.81 9.25, 54.18 8.93 C51.55 8.6, 49.1 8.94, 46.4 9.49 C43.7 10.03, 40.84 11.17, 37.97 12.2 C35.09 13.23, 32.2 14.85, 29.15 15.69 C26.09 16.53, 23.36 17.18, 19.62 17.25 C15.88 17.31, 10.4 16.85, 6.71 16.06 C3.02 15.28, 0.46 13.61, -2.51 12.52 C-5.48 11.43, -7.98 10.05, -11.12 9.53 C-14.25 9.01, -18.3 9.1, -21.32 9.43 C-24.33 9.75, -26.2 10.41, -29.22 11.5 C-32.23 12.59, -36.29 14.98, -39.41 15.98 C-42.52 16.97, -45.33 17.32, -47.93 17.47 C-50.52 17.63, -53.32 17.68, -54.98 16.89 C-56.63 16.1, -57.5 14.2, -57.86 12.73 C-58.22 11.26, -57.79 9.4, -57.12 8.06 C-56.45 6.72, -55.56 5.3, -53.82 4.69 C-52.09 4.08, -49.3 4.87, -46.72 4.42 C-44.15 3.96, -41.49 3.1, -38.37 1.96 C-35.24 0.82, -31.24 -1.44, -27.98 -2.45 C-24.72 -3.46, -22.07 -3.99, -18.81 -4.08 C-15.54 -4.18, -11.54 -3.67, -8.4 -2.99 C-5.27 -2.31, -1.4 -0.5, 0 0" stroke="#E1E1E1" stroke-width="2" fill="none"></path></g></g><mask></mask><g stroke-linecap="round"><g transform="translate(371.3979030436053 337.02134570037924) rotate(0 -45.181882690996986 4.285962550222862)"><path d="M0 0 C1.87 -0.77, 7.67 -3.6, 11.22 -4.61 C14.76 -5.63, 17.67 -6, 21.25 -6.08 C24.84 -6.16, 28.78 -6.07, 32.71 -5.1 C36.65 -4.12, 41.72 -1.42, 44.86 -0.25 C48 0.93, 49.12 1.55, 51.54 1.96 C53.97 2.37, 57.4 1.64, 59.42 2.22 C61.44 2.81, 62.94 4.02, 63.67 5.47 C64.4 6.92, 64.54 9.3, 63.78 10.92 C63.02 12.54, 61.64 14.5, 59.13 15.19 C56.61 15.89, 52.03 15.7, 48.69 15.1 C45.34 14.5, 42.36 12.86, 39.07 11.6 C35.79 10.35, 32.48 8.27, 28.98 7.56 C25.48 6.86, 20.91 7.16, 18.06 7.38 C15.21 7.6, 14.22 8.07, 11.85 8.89 C9.49 9.72, 6.67 11.34, 3.86 12.32 C1.05 13.31, -1.56 14.39, -5 14.81 C-8.44 15.23, -13.15 15.19, -16.78 14.84 C-20.41 14.49, -23.27 13.86, -26.79 12.72 C-30.31 11.58, -34.97 8.88, -37.9 8 C-40.83 7.12, -41.39 7.34, -44.37 7.47 C-47.36 7.59, -52.56 7.91, -55.81 8.76 C-59.06 9.62, -60.92 11.57, -63.87 12.6 C-66.81 13.63, -69.32 14.62, -73.49 14.95 C-77.65 15.28, -84.26 15.41, -88.85 14.57 C-93.45 13.73, -97.73 11.06, -101.05 9.91 C-104.36 8.76, -105.37 7.96, -108.73 7.64 C-112.09 7.33, -117.8 7.42, -121.22 8.04 C-124.63 8.66, -126.61 10.4, -129.21 11.38 C-131.81 12.37, -133.83 13.32, -136.82 13.94 C-139.81 14.56, -144.49 15.26, -147.13 15.12 C-149.77 14.98, -151.5 14.24, -152.66 13.11 C-153.83 11.98, -154.14 9.78, -154.14 8.34 C-154.14 6.9, -153.43 5.43, -152.68 4.47 C-151.93 3.51, -151.62 3.01, -149.65 2.56 C-147.68 2.11, -144 2.62, -140.86 1.78 C-137.72 0.94, -134.13 -1.25, -130.8 -2.49 C-127.48 -3.73, -124.38 -5.07, -120.92 -5.68 C-117.46 -6.29, -113.75 -6.57, -110.07 -6.15 C-106.39 -5.74, -102.21 -4.38, -98.83 -3.21 C-95.45 -2.04, -92.96 0.01, -89.79 0.88 C-86.62 1.76, -83.18 2.1, -79.81 2.02 C-76.44 1.94, -73.44 1.53, -69.57 0.4 C-65.69 -0.72, -60.3 -3.55, -56.55 -4.72 C-52.8 -5.89, -51.18 -6.65, -47.06 -6.62 C-42.95 -6.59, -36.65 -5.9, -31.87 -4.55 C-27.09 -3.19, -22.71 0.43, -18.39 1.52 C-14.06 2.6, -8.97 2.2, -5.91 1.95 C-2.84 1.7, -0.98 0.33, 0 0 M0 0 C1.87 -0.77, 7.67 -3.6, 11.22 -4.61 C14.76 -5.63, 17.67 -6, 21.25 -6.08 C24.84 -6.16, 28.78 -6.07, 32.71 -5.1 C36.65 -4.12, 41.72 -1.42, 44.86 -0.25 C48 0.93, 49.12 1.55, 51.54 1.96 C53.97 2.37, 57.4 1.64, 59.42 2.22 C61.44 2.81, 62.94 4.02, 63.67 5.47 C64.4 6.92, 64.54 9.3, 63.78 10.92 C63.02 12.54, 61.64 14.5, 59.13 15.19 C56.61 15.89, 52.03 15.7, 48.69 15.1 C45.34 14.5, 42.36 12.86, 39.07 11.6 C35.79 10.35, 32.48 8.27, 28.98 7.56 C25.48 6.86, 20.91 7.16, 18.06 7.38 C15.21 7.6, 14.22 8.07, 11.85 8.89 C9.49 9.72, 6.67 11.34, 3.86 12.32 C1.05 13.31, -1.56 14.39, -5 14.81 C-8.44 15.23, -13.15 15.19, -16.78 14.84 C-20.41 14.49, -23.27 13.86, -26.79 12.72 C-30.31 11.58, -34.97 8.88, -37.9 8 C-40.83 7.12, -41.39 7.34, -44.37 7.47 C-47.36 7.59, -52.56 7.91, -55.81 8.76 C-59.06 9.62, -60.92 11.57, -63.87 12.6 C-66.81 13.63, -69.32 14.62, -73.49 14.95 C-77.65 15.28, -84.26 15.41, -88.85 14.57 C-93.45 13.73, -97.73 11.06, -101.05 9.91 C-104.36 8.76, -105.37 7.96, -108.73 7.64 C-112.09 7.33, -117.8 7.42, -121.22 8.04 C-124.63 8.66, -126.61 10.4, -129.21 11.38 C-131.81 12.37, -133.83 13.32, -136.82 13.94 C-139.81 14.56, -144.49 15.26, -147.13 15.12 C-149.77 14.98, -151.5 14.24, -152.66 13.11 C-153.83 11.98, -154.14 9.78, -154.14 8.34 C-154.14 6.9, -153.43 5.43, -152.68 4.47 C-151.93 3.51, -151.62 3.01, -149.65 2.56 C-147.68 2.11, -144 2.62, -140.86 1.78 C-137.72 0.94, -134.13 -1.25, -130.8 -2.49 C-127.48 -3.73, -124.38 -5.07, -120.92 -5.68 C-117.46 -6.29, -113.75 -6.57, -110.07 -6.15 C-106.39 -5.74, -102.21 -4.38, -98.83 -3.21 C-95.45 -2.04, -92.96 0.01, -89.79 0.88 C-86.62 1.76, -83.18 2.1, -79.81 2.02 C-76.44 1.94, -73.44 1.53, -69.57 0.4 C-65.69 -0.72, -60.3 -3.55, -56.55 -4.72 C-52.8 -5.89, -51.18 -6.65, -47.06 -6.62 C-42.95 -6.59, -36.65 -5.9, -31.87 -4.55 C-27.09 -3.19, -22.71 0.43, -18.39 1.52 C-14.06 2.6, -8.97 2.2, -5.91 1.95 C-2.84 1.7, -0.98 0.33, 0 0" stroke="#E1E1E1" stroke-width="2" fill="none"></path></g></g><mask></mask><g stroke-linecap="round"><g transform="translate(299.7829534081068 292.1380037926054) rotate(0 26.742671055434243 3.253696415613831)"><path d="M0 0 C1.98 -0.86, 8.15 -3.94, 11.86 -5.17 C15.57 -6.41, 18.22 -7.09, 22.26 -7.41 C26.3 -7.72, 31.7 -8.05, 36.09 -7.06 C40.49 -6.08, 44.88 -2.72, 48.63 -1.51 C52.38 -0.3, 54.71 0.18, 58.61 0.21 C62.51 0.23, 67.9 -0.21, 72 -1.36 C76.11 -2.52, 78.79 -5.68, 83.23 -6.72 C87.67 -7.77, 94 -8.01, 98.64 -7.63 C103.29 -7.24, 107.47 -5.66, 111.09 -4.39 C114.71 -3.13, 116.92 -0.92, 120.36 -0.03 C123.8 0.87, 129.22 0, 131.75 0.98 C134.29 1.96, 135.18 3.94, 135.58 5.84 C135.97 7.74, 135.53 11.04, 134.09 12.39 C132.66 13.73, 129.77 13.85, 126.97 13.91 C124.18 13.97, 120.73 13.65, 117.33 12.75 C113.93 11.84, 109.72 9.63, 106.58 8.46 C103.43 7.28, 101.47 6.13, 98.45 5.71 C95.44 5.3, 91.66 5.35, 88.47 5.94 C85.28 6.53, 82.21 7.96, 79.32 9.24 C76.43 10.52, 74.43 12.8, 71.13 13.62 C67.82 14.44, 63.21 14.34, 59.49 14.13 C55.78 13.93, 52.88 13.52, 48.84 12.4 C44.8 11.28, 38.82 8.57, 35.26 7.42 C31.71 6.27, 30.13 5.67, 27.51 5.52 C24.89 5.37, 22.77 5.6, 19.56 6.5 C16.35 7.41, 11.9 9.7, 8.24 10.94 C4.58 12.18, 1.66 13.53, -2.39 13.95 C-6.44 14.36, -11.57 14.21, -16.06 13.44 C-20.54 12.67, -25.93 10.53, -29.28 9.31 C-32.64 8.09, -33.56 6.71, -36.17 6.11 C-38.78 5.5, -41.39 5.14, -44.93 5.69 C-48.47 6.25, -53.61 8.23, -57.41 9.46 C-61.22 10.7, -64.37 12.43, -67.77 13.12 C-71.16 13.81, -75.42 14.14, -77.81 13.6 C-80.2 13.05, -81.39 11.54, -82.09 9.84 C-82.79 8.15, -82.73 5.02, -82.01 3.43 C-81.28 1.84, -79.73 0.87, -77.72 0.3 C-75.71 -0.28, -72.54 0.32, -69.96 -0.04 C-67.39 -0.4, -64.9 -0.92, -62.26 -1.87 C-59.61 -2.82, -56.83 -4.88, -54.09 -5.74 C-51.35 -6.6, -49.48 -6.81, -45.83 -7.02 C-42.18 -7.24, -36.44 -7.96, -32.21 -7.03 C-27.99 -6.1, -23.98 -2.8, -20.48 -1.45 C-16.99 -0.09, -14.16 0.67, -11.26 1.1 C-8.36 1.54, -4.98 1.34, -3.1 1.16 C-1.22 0.97, -0.52 0.19, 0 0 M0 0 C1.98 -0.86, 8.15 -3.94, 11.86 -5.17 C15.57 -6.41, 18.22 -7.09, 22.26 -7.41 C26.3 -7.72, 31.7 -8.05, 36.09 -7.06 C40.49 -6.08, 44.88 -2.72, 48.63 -1.51 C52.38 -0.3, 54.71 0.18, 58.61 0.21 C62.51 0.23, 67.9 -0.21, 72 -1.36 C76.11 -2.52, 78.79 -5.68, 83.23 -6.72 C87.67 -7.77, 94 -8.01, 98.64 -7.63 C103.29 -7.24, 107.47 -5.66, 111.09 -4.39 C114.71 -3.13, 116.92 -0.92, 120.36 -0.03 C123.8 0.87, 129.22 0, 131.75 0.98 C134.29 1.96, 135.18 3.94, 135.58 5.84 C135.97 7.74, 135.53 11.04, 134.09 12.39 C132.66 13.73, 129.77 13.85, 126.97 13.91 C124.18 13.97, 120.73 13.65, 117.33 12.75 C113.93 11.84, 109.72 9.63, 106.58 8.46 C103.43 7.28, 101.47 6.13, 98.45 5.71 C95.44 5.3, 91.66 5.35, 88.47 5.94 C85.28 6.53, 82.21 7.96, 79.32 9.24 C76.43 10.52, 74.43 12.8, 71.13 13.62 C67.82 14.44, 63.21 14.34, 59.49 14.13 C55.78 13.93, 52.88 13.52, 48.84 12.4 C44.8 11.28, 38.82 8.57, 35.26 7.42 C31.71 6.27, 30.13 5.67, 27.51 5.52 C24.89 5.37, 22.77 5.6, 19.56 6.5 C16.35 7.41, 11.9 9.7, 8.24 10.94 C4.58 12.18, 1.66 13.53, -2.39 13.95 C-6.44 14.36, -11.57 14.21, -16.06 13.44 C-20.54 12.67, -25.93 10.53, -29.28 9.31 C-32.64 8.09, -33.56 6.71, -36.17 6.11 C-38.78 5.5, -41.39 5.14, -44.93 5.69 C-48.47 6.25, -53.61 8.23, -57.41 9.46 C-61.22 10.7, -64.37 12.43, -67.77 13.12 C-71.16 13.81, -75.42 14.14, -77.81 13.6 C-80.2 13.05, -81.39 11.54, -82.09 9.84 C-82.79 8.15, -82.73 5.02, -82.01 3.43 C-81.28 1.84, -79.73 0.87, -77.72 0.3 C-75.71 -0.28, -72.54 0.32, -69.96 -0.04 C-67.39 -0.4, -64.9 -0.92, -62.26 -1.87 C-59.61 -2.82, -56.83 -4.88, -54.09 -5.74 C-51.35 -6.6, -49.48 -6.81, -45.83 -7.02 C-42.18 -7.24, -36.44 -7.96, -32.21 -7.03 C-27.99 -6.1, -23.98 -2.8, -20.48 -1.45 C-16.99 -0.09, -14.16 0.67, -11.26 1.1 C-8.36 1.54, -4.98 1.34, -3.1 1.16 C-1.22 0.97, -0.52 0.19, 0 0" stroke="#E1E1E1" stroke-width="2" fill="none"></path></g></g><mask></mask><g stroke-linecap="round"><g transform="translate(371.96391601819914 244.42049854477375) rotate(0 -45.181882690996986 4.285962550222877)"><path d="M0 0 C1.87 -0.77, 7.67 -3.6, 11.22 -4.61 C14.76 -5.63, 17.67 -6, 21.25 -6.08 C24.84 -6.16, 28.78 -6.07, 32.71 -5.1 C36.65 -4.12, 41.72 -1.42, 44.86 -0.25 C48 0.93, 49.12 1.55, 51.54 1.96 C53.97 2.37, 57.4 1.64, 59.42 2.22 C61.44 2.81, 62.94 4.02, 63.67 5.47 C64.4 6.92, 64.54 9.3, 63.78 10.92 C63.02 12.54, 61.64 14.5, 59.13 15.19 C56.61 15.89, 52.03 15.7, 48.69 15.1 C45.34 14.5, 42.36 12.86, 39.07 11.6 C35.79 10.35, 32.48 8.27, 28.98 7.56 C25.48 6.86, 20.91 7.16, 18.06 7.38 C15.21 7.6, 14.22 8.07, 11.85 8.89 C9.49 9.72, 6.67 11.34, 3.86 12.32 C1.05 13.31, -1.56 14.39, -5 14.81 C-8.44 15.23, -13.15 15.19, -16.78 14.84 C-20.41 14.49, -23.27 13.86, -26.79 12.72 C-30.31 11.58, -34.97 8.88, -37.9 8 C-40.83 7.12, -41.39 7.34, -44.37 7.47 C-47.36 7.59, -52.56 7.91, -55.81 8.76 C-59.06 9.62, -60.92 11.57, -63.87 12.6 C-66.81 13.63, -69.32 14.62, -73.49 14.95 C-77.65 15.28, -84.26 15.41, -88.85 14.57 C-93.45 13.73, -97.73 11.06, -101.05 9.91 C-104.36 8.76, -105.37 7.96, -108.73 7.64 C-112.09 7.33, -117.8 7.42, -121.22 8.04 C-124.63 8.66, -126.61 10.4, -129.21 11.38 C-131.81 12.37, -133.83 13.32, -136.82 13.94 C-139.81 14.56, -144.49 15.26, -147.13 15.12 C-149.77 14.98, -151.5 14.24, -152.66 13.11 C-153.83 11.98, -154.14 9.78, -154.14 8.34 C-154.14 6.9, -153.43 5.43, -152.68 4.47 C-151.93 3.51, -151.62 3.01, -149.65 2.56 C-147.68 2.11, -144 2.62, -140.86 1.78 C-137.72 0.94, -134.13 -1.25, -130.8 -2.49 C-127.48 -3.73, -124.38 -5.07, -120.92 -5.68 C-117.46 -6.29, -113.75 -6.57, -110.07 -6.15 C-106.39 -5.74, -102.21 -4.38, -98.83 -3.21 C-95.45 -2.04, -92.96 0.01, -89.79 0.88 C-86.62 1.76, -83.18 2.1, -79.81 2.02 C-76.44 1.94, -73.44 1.53, -69.57 0.4 C-65.69 -0.72, -60.3 -3.55, -56.55 -4.72 C-52.8 -5.89, -51.18 -6.65, -47.06 -6.62 C-42.95 -6.59, -36.65 -5.9, -31.87 -4.55 C-27.09 -3.19, -22.71 0.43, -18.39 1.52 C-14.06 2.6, -8.97 2.2, -5.91 1.95 C-2.84 1.7, -0.98 0.33, 0 0 M0 0 C1.87 -0.77, 7.67 -3.6, 11.22 -4.61 C14.76 -5.63, 17.67 -6, 21.25 -6.08 C24.84 -6.16, 28.78 -6.07, 32.71 -5.1 C36.65 -4.12, 41.72 -1.42, 44.86 -0.25 C48 0.93, 49.12 1.55, 51.54 1.96 C53.97 2.37, 57.4 1.64, 59.42 2.22 C61.44 2.81, 62.94 4.02, 63.67 5.47 C64.4 6.92, 64.54 9.3, 63.78 10.92 C63.02 12.54, 61.64 14.5, 59.13 15.19 C56.61 15.89, 52.03 15.7, 48.69 15.1 C45.34 14.5, 42.36 12.86, 39.07 11.6 C35.79 10.35, 32.48 8.27, 28.98 7.56 C25.48 6.86, 20.91 7.16, 18.06 7.38 C15.21 7.6, 14.22 8.07, 11.85 8.89 C9.49 9.72, 6.67 11.34, 3.86 12.32 C1.05 13.31, -1.56 14.39, -5 14.81 C-8.44 15.23, -13.15 15.19, -16.78 14.84 C-20.41 14.49, -23.27 13.86, -26.79 12.72 C-30.31 11.58, -34.97 8.88, -37.9 8 C-40.83 7.12, -41.39 7.34, -44.37 7.47 C-47.36 7.59, -52.56 7.91, -55.81 8.76 C-59.06 9.62, -60.92 11.57, -63.87 12.6 C-66.81 13.63, -69.32 14.62, -73.49 14.95 C-77.65 15.28, -84.26 15.41, -88.85 14.57 C-93.45 13.73, -97.73 11.06, -101.05 9.91 C-104.36 8.76, -105.37 7.96, -108.73 7.64 C-112.09 7.33, -117.8 7.42, -121.22 8.04 C-124.63 8.66, -126.61 10.4, -129.21 11.38 C-131.81 12.37, -133.83 13.32, -136.82 13.94 C-139.81 14.56, -144.49 15.26, -147.13 15.12 C-149.77 14.98, -151.5 14.24, -152.66 13.11 C-153.83 11.98, -154.14 9.78, -154.14 8.34 C-154.14 6.9, -153.43 5.43, -152.68 4.47 C-151.93 3.51, -151.62 3.01, -149.65 2.56 C-147.68 2.11, -144 2.62, -140.86 1.78 C-137.72 0.94, -134.13 -1.25, -130.8 -2.49 C-127.48 -3.73, -124.38 -5.07, -120.92 -5.68 C-117.46 -6.29, -113.75 -6.57, -110.07 -6.15 C-106.39 -5.74, -102.21 -4.38, -98.83 -3.21 C-95.45 -2.04, -92.96 0.01, -89.79 0.88 C-86.62 1.76, -83.18 2.1, -79.81 2.02 C-76.44 1.94, -73.44 1.53, -69.57 0.4 C-65.69 -0.72, -60.3 -3.55, -56.55 -4.72 C-52.8 -5.89, -51.18 -6.65, -47.06 -6.62 C-42.95 -6.59, -36.65 -5.9, -31.87 -4.55 C-27.09 -3.19, -22.71 0.43, -18.39 1.52 C-14.06 2.6, -8.97 2.2, -5.91 1.95 C-2.84 1.7, -0.98 0.33, 0 0" stroke="#E1E1E1" stroke-width="2" fill="none"></path></g></g><mask></mask><g stroke-linecap="round"><g transform="translate(371.78899162449306 197.92964253492187) rotate(0 -45.181882690996986 4.285962550222877)"><path d="M0 0 C1.87 -0.77, 7.67 -3.6, 11.22 -4.61 C14.76 -5.63, 17.67 -6, 21.25 -6.08 C24.84 -6.16, 28.78 -6.07, 32.71 -5.1 C36.65 -4.12, 41.72 -1.42, 44.86 -0.25 C48 0.93, 49.12 1.55, 51.54 1.96 C53.97 2.37, 57.4 1.64, 59.42 2.22 C61.44 2.81, 62.94 4.02, 63.67 5.47 C64.4 6.92, 64.54 9.3, 63.78 10.92 C63.02 12.54, 61.64 14.5, 59.13 15.19 C56.61 15.89, 52.03 15.7, 48.69 15.1 C45.34 14.5, 42.36 12.86, 39.07 11.6 C35.79 10.35, 32.48 8.27, 28.98 7.56 C25.48 6.86, 20.91 7.16, 18.06 7.38 C15.21 7.6, 14.22 8.07, 11.85 8.89 C9.49 9.72, 6.67 11.34, 3.86 12.32 C1.05 13.31, -1.56 14.39, -5 14.81 C-8.44 15.23, -13.15 15.19, -16.78 14.84 C-20.41 14.49, -23.27 13.86, -26.79 12.72 C-30.31 11.58, -34.97 8.88, -37.9 8 C-40.83 7.12, -41.39 7.34, -44.37 7.47 C-47.36 7.59, -52.56 7.91, -55.81 8.76 C-59.06 9.62, -60.92 11.57, -63.87 12.6 C-66.81 13.63, -69.32 14.62, -73.49 14.95 C-77.65 15.28, -84.26 15.41, -88.85 14.57 C-93.45 13.73, -97.73 11.06, -101.05 9.91 C-104.36 8.76, -105.37 7.96, -108.73 7.64 C-112.09 7.33, -117.8 7.42, -121.22 8.04 C-124.63 8.66, -126.61 10.4, -129.21 11.38 C-131.81 12.37, -133.83 13.32, -136.82 13.94 C-139.81 14.56, -144.49 15.26, -147.13 15.12 C-149.77 14.98, -151.5 14.24, -152.66 13.11 C-153.83 11.98, -154.14 9.78, -154.14 8.34 C-154.14 6.9, -153.43 5.43, -152.68 4.47 C-151.93 3.51, -151.62 3.01, -149.65 2.56 C-147.68 2.11, -144 2.62, -140.86 1.78 C-137.72 0.94, -134.13 -1.25, -130.8 -2.49 C-127.48 -3.73, -124.38 -5.07, -120.92 -5.68 C-117.46 -6.29, -113.75 -6.57, -110.07 -6.15 C-106.39 -5.74, -102.21 -4.38, -98.83 -3.21 C-95.45 -2.04, -92.96 0.01, -89.79 0.88 C-86.62 1.76, -83.18 2.1, -79.81 2.02 C-76.44 1.94, -73.44 1.53, -69.57 0.4 C-65.69 -0.72, -60.3 -3.55, -56.55 -4.72 C-52.8 -5.89, -51.18 -6.65, -47.06 -6.62 C-42.95 -6.59, -36.65 -5.9, -31.87 -4.55 C-27.09 -3.19, -22.71 0.43, -18.39 1.52 C-14.06 2.6, -8.97 2.2, -5.91 1.95 C-2.84 1.7, -0.98 0.33, 0 0 M0 0 C1.87 -0.77, 7.67 -3.6, 11.22 -4.61 C14.76 -5.63, 17.67 -6, 21.25 -6.08 C24.84 -6.16, 28.78 -6.07, 32.71 -5.1 C36.65 -4.12, 41.72 -1.42, 44.86 -0.25 C48 0.93, 49.12 1.55, 51.54 1.96 C53.97 2.37, 57.4 1.64, 59.42 2.22 C61.44 2.81, 62.94 4.02, 63.67 5.47 C64.4 6.92, 64.54 9.3, 63.78 10.92 C63.02 12.54, 61.64 14.5, 59.13 15.19 C56.61 15.89, 52.03 15.7, 48.69 15.1 C45.34 14.5, 42.36 12.86, 39.07 11.6 C35.79 10.35, 32.48 8.27, 28.98 7.56 C25.48 6.86, 20.91 7.16, 18.06 7.38 C15.21 7.6, 14.22 8.07, 11.85 8.89 C9.49 9.72, 6.67 11.34, 3.86 12.32 C1.05 13.31, -1.56 14.39, -5 14.81 C-8.44 15.23, -13.15 15.19, -16.78 14.84 C-20.41 14.49, -23.27 13.86, -26.79 12.72 C-30.31 11.58, -34.97 8.88, -37.9 8 C-40.83 7.12, -41.39 7.34, -44.37 7.47 C-47.36 7.59, -52.56 7.91, -55.81 8.76 C-59.06 9.62, -60.92 11.57, -63.87 12.6 C-66.81 13.63, -69.32 14.62, -73.49 14.95 C-77.65 15.28, -84.26 15.41, -88.85 14.57 C-93.45 13.73, -97.73 11.06, -101.05 9.91 C-104.36 8.76, -105.37 7.96, -108.73 7.64 C-112.09 7.33, -117.8 7.42, -121.22 8.04 C-124.63 8.66, -126.61 10.4, -129.21 11.38 C-131.81 12.37, -133.83 13.32, -136.82 13.94 C-139.81 14.56, -144.49 15.26, -147.13 15.12 C-149.77 14.98, -151.5 14.24, -152.66 13.11 C-153.83 11.98, -154.14 9.78, -154.14 8.34 C-154.14 6.9, -153.43 5.43, -152.68 4.47 C-151.93 3.51, -151.62 3.01, -149.65 2.56 C-147.68 2.11, -144 2.62, -140.86 1.78 C-137.72 0.94, -134.13 -1.25, -130.8 -2.49 C-127.48 -3.73, -124.38 -5.07, -120.92 -5.68 C-117.46 -6.29, -113.75 -6.57, -110.07 -6.15 C-106.39 -5.74, -102.21 -4.38, -98.83 -3.21 C-95.45 -2.04, -92.96 0.01, -89.79 0.88 C-86.62 1.76, -83.18 2.1, -79.81 2.02 C-76.44 1.94, -73.44 1.53, -69.57 0.4 C-65.69 -0.72, -60.3 -3.55, -56.55 -4.72 C-52.8 -5.89, -51.18 -6.65, -47.06 -6.62 C-42.95 -6.59, -36.65 -5.9, -31.87 -4.55 C-27.09 -3.19, -22.71 0.43, -18.39 1.52 C-14.06 2.6, -8.97 2.2, -5.91 1.95 C-2.84 1.7, -0.98 0.33, 0 0" stroke="#E1E1E1" stroke-width="2" fill="none"></path></g></g><mask></mask><g stroke-linecap="round"><g transform="translate(370.8377498802072 151.7264720981899) rotate(0 -45.181882690996986 4.285962550222877)"><path d="M0 0 C1.87 -0.77, 7.67 -3.6, 11.22 -4.61 C14.76 -5.63, 17.67 -6, 21.25 -6.08 C24.84 -6.16, 28.78 -6.07, 32.71 -5.1 C36.65 -4.12, 41.72 -1.42, 44.86 -0.25 C48 0.93, 49.12 1.55, 51.54 1.96 C53.97 2.37, 57.4 1.64, 59.42 2.22 C61.44 2.81, 62.94 4.02, 63.67 5.47 C64.4 6.92, 64.54 9.3, 63.78 10.92 C63.02 12.54, 61.64 14.5, 59.13 15.19 C56.61 15.89, 52.03 15.7, 48.69 15.1 C45.34 14.5, 42.36 12.86, 39.07 11.6 C35.79 10.35, 32.48 8.27, 28.98 7.56 C25.48 6.86, 20.91 7.16, 18.06 7.38 C15.21 7.6, 14.22 8.07, 11.85 8.89 C9.49 9.72, 6.67 11.34, 3.86 12.32 C1.05 13.31, -1.56 14.39, -5 14.81 C-8.44 15.23, -13.15 15.19, -16.78 14.84 C-20.41 14.49, -23.27 13.86, -26.79 12.72 C-30.31 11.58, -34.97 8.88, -37.9 8 C-40.83 7.12, -41.39 7.34, -44.37 7.47 C-47.36 7.59, -52.56 7.91, -55.81 8.76 C-59.06 9.62, -60.92 11.57, -63.87 12.6 C-66.81 13.63, -69.32 14.62, -73.49 14.95 C-77.65 15.28, -84.26 15.41, -88.85 14.57 C-93.45 13.73, -97.73 11.06, -101.05 9.91 C-104.36 8.76, -105.37 7.96, -108.73 7.64 C-112.09 7.33, -117.8 7.42, -121.22 8.04 C-124.63 8.66, -126.61 10.4, -129.21 11.38 C-131.81 12.37, -133.83 13.32, -136.82 13.94 C-139.81 14.56, -144.49 15.26, -147.13 15.12 C-149.77 14.98, -151.5 14.24, -152.66 13.11 C-153.83 11.98, -154.14 9.78, -154.14 8.34 C-154.14 6.9, -153.43 5.43, -152.68 4.47 C-151.93 3.51, -151.62 3.01, -149.65 2.56 C-147.68 2.11, -144 2.62, -140.86 1.78 C-137.72 0.94, -134.13 -1.25, -130.8 -2.49 C-127.48 -3.73, -124.38 -5.07, -120.92 -5.68 C-117.46 -6.29, -113.75 -6.57, -110.07 -6.15 C-106.39 -5.74, -102.21 -4.38, -98.83 -3.21 C-95.45 -2.04, -92.96 0.01, -89.79 0.88 C-86.62 1.76, -83.18 2.1, -79.81 2.02 C-76.44 1.94, -73.44 1.53, -69.57 0.4 C-65.69 -0.72, -60.3 -3.55, -56.55 -4.72 C-52.8 -5.89, -51.18 -6.65, -47.06 -6.62 C-42.95 -6.59, -36.65 -5.9, -31.87 -4.55 C-27.09 -3.19, -22.71 0.43, -18.39 1.52 C-14.06 2.6, -8.97 2.2, -5.91 1.95 C-2.84 1.7, -0.98 0.33, 0 0 M0 0 C1.87 -0.77, 7.67 -3.6, 11.22 -4.61 C14.76 -5.63, 17.67 -6, 21.25 -6.08 C24.84 -6.16, 28.78 -6.07, 32.71 -5.1 C36.65 -4.12, 41.72 -1.42, 44.86 -0.25 C48 0.93, 49.12 1.55, 51.54 1.96 C53.97 2.37, 57.4 1.64, 59.42 2.22 C61.44 2.81, 62.94 4.02, 63.67 5.47 C64.4 6.92, 64.54 9.3, 63.78 10.92 C63.02 12.54, 61.64 14.5, 59.13 15.19 C56.61 15.89, 52.03 15.7, 48.69 15.1 C45.34 14.5, 42.36 12.86, 39.07 11.6 C35.79 10.35, 32.48 8.27, 28.98 7.56 C25.48 6.86, 20.91 7.16, 18.06 7.38 C15.21 7.6, 14.22 8.07, 11.85 8.89 C9.49 9.72, 6.67 11.34, 3.86 12.32 C1.05 13.31, -1.56 14.39, -5 14.81 C-8.44 15.23, -13.15 15.19, -16.78 14.84 C-20.41 14.49, -23.27 13.86, -26.79 12.72 C-30.31 11.58, -34.97 8.88, -37.9 8 C-40.83 7.12, -41.39 7.34, -44.37 7.47 C-47.36 7.59, -52.56 7.91, -55.81 8.76 C-59.06 9.62, -60.92 11.57, -63.87 12.6 C-66.81 13.63, -69.32 14.62, -73.49 14.95 C-77.65 15.28, -84.26 15.41, -88.85 14.57 C-93.45 13.73, -97.73 11.06, -101.05 9.91 C-104.36 8.76, -105.37 7.96, -108.73 7.64 C-112.09 7.33, -117.8 7.42, -121.22 8.04 C-124.63 8.66, -126.61 10.4, -129.21 11.38 C-131.81 12.37, -133.83 13.32, -136.82 13.94 C-139.81 14.56, -144.49 15.26, -147.13 15.12 C-149.77 14.98, -151.5 14.24, -152.66 13.11 C-153.83 11.98, -154.14 9.78, -154.14 8.34 C-154.14 6.9, -153.43 5.43, -152.68 4.47 C-151.93 3.51, -151.62 3.01, -149.65 2.56 C-147.68 2.11, -144 2.62, -140.86 1.78 C-137.72 0.94, -134.13 -1.25, -130.8 -2.49 C-127.48 -3.73, -124.38 -5.07, -120.92 -5.68 C-117.46 -6.29, -113.75 -6.57, -110.07 -6.15 C-106.39 -5.74, -102.21 -4.38, -98.83 -3.21 C-95.45 -2.04, -92.96 0.01, -89.79 0.88 C-86.62 1.76, -83.18 2.1, -79.81 2.02 C-76.44 1.94, -73.44 1.53, -69.57 0.4 C-65.69 -0.72, -60.3 -3.55, -56.55 -4.72 C-52.8 -5.89, -51.18 -6.65, -47.06 -6.62 C-42.95 -6.59, -36.65 -5.9, -31.87 -4.55 C-27.09 -3.19, -22.71 0.43, -18.39 1.52 C-14.06 2.6, -8.97 2.2, -5.91 1.95 C-2.84 1.7, -0.98 0.33, 0 0" stroke="#E1E1E1" stroke-width="2" fill="none"></path></g></g><mask></mask><g stroke-linecap="round"><g transform="translate(370.81374324211515 104.93001083795718) rotate(0 -45.181882690996986 4.285962550222877)"><path d="M0 0 C1.87 -0.77, 7.67 -3.6, 11.22 -4.61 C14.76 -5.63, 17.67 -6, 21.25 -6.08 C24.84 -6.16, 28.78 -6.07, 32.71 -5.1 C36.65 -4.12, 41.72 -1.42, 44.86 -0.25 C48 0.93, 49.12 1.55, 51.54 1.96 C53.97 2.37, 57.4 1.64, 59.42 2.22 C61.44 2.81, 62.94 4.02, 63.67 5.47 C64.4 6.92, 64.54 9.3, 63.78 10.92 C63.02 12.54, 61.64 14.5, 59.13 15.19 C56.61 15.89, 52.03 15.7, 48.69 15.1 C45.34 14.5, 42.36 12.86, 39.07 11.6 C35.79 10.35, 32.48 8.27, 28.98 7.56 C25.48 6.86, 20.91 7.16, 18.06 7.38 C15.21 7.6, 14.22 8.07, 11.85 8.89 C9.49 9.72, 6.67 11.34, 3.86 12.32 C1.05 13.31, -1.56 14.39, -5 14.81 C-8.44 15.23, -13.15 15.19, -16.78 14.84 C-20.41 14.49, -23.27 13.86, -26.79 12.72 C-30.31 11.58, -34.97 8.88, -37.9 8 C-40.83 7.12, -41.39 7.34, -44.37 7.47 C-47.36 7.59, -52.56 7.91, -55.81 8.76 C-59.06 9.62, -60.92 11.57, -63.87 12.6 C-66.81 13.63, -69.32 14.62, -73.49 14.95 C-77.65 15.28, -84.26 15.41, -88.85 14.57 C-93.45 13.73, -97.73 11.06, -101.05 9.91 C-104.36 8.76, -105.37 7.96, -108.73 7.64 C-112.09 7.33, -117.8 7.42, -121.22 8.04 C-124.63 8.66, -126.61 10.4, -129.21 11.38 C-131.81 12.37, -133.83 13.32, -136.82 13.94 C-139.81 14.56, -144.49 15.26, -147.13 15.12 C-149.77 14.98, -151.5 14.24, -152.66 13.11 C-153.83 11.98, -154.14 9.78, -154.14 8.34 C-154.14 6.9, -153.43 5.43, -152.68 4.47 C-151.93 3.51, -151.62 3.01, -149.65 2.56 C-147.68 2.11, -144 2.62, -140.86 1.78 C-137.72 0.94, -134.13 -1.25, -130.8 -2.49 C-127.48 -3.73, -124.38 -5.07, -120.92 -5.68 C-117.46 -6.29, -113.75 -6.57, -110.07 -6.15 C-106.39 -5.74, -102.21 -4.38, -98.83 -3.21 C-95.45 -2.04, -92.96 0.01, -89.79 0.88 C-86.62 1.76, -83.18 2.1, -79.81 2.02 C-76.44 1.94, -73.44 1.53, -69.57 0.4 C-65.69 -0.72, -60.3 -3.55, -56.55 -4.72 C-52.8 -5.89, -51.18 -6.65, -47.06 -6.62 C-42.95 -6.59, -36.65 -5.9, -31.87 -4.55 C-27.09 -3.19, -22.71 0.43, -18.39 1.52 C-14.06 2.6, -8.97 2.2, -5.91 1.95 C-2.84 1.7, -0.98 0.33, 0 0 M0 0 C1.87 -0.77, 7.67 -3.6, 11.22 -4.61 C14.76 -5.63, 17.67 -6, 21.25 -6.08 C24.84 -6.16, 28.78 -6.07, 32.71 -5.1 C36.65 -4.12, 41.72 -1.42, 44.86 -0.25 C48 0.93, 49.12 1.55, 51.54 1.96 C53.97 2.37, 57.4 1.64, 59.42 2.22 C61.44 2.81, 62.94 4.02, 63.67 5.47 C64.4 6.92, 64.54 9.3, 63.78 10.92 C63.02 12.54, 61.64 14.5, 59.13 15.19 C56.61 15.89, 52.03 15.7, 48.69 15.1 C45.34 14.5, 42.36 12.86, 39.07 11.6 C35.79 10.35, 32.48 8.27, 28.98 7.56 C25.48 6.86, 20.91 7.16, 18.06 7.38 C15.21 7.6, 14.22 8.07, 11.85 8.89 C9.49 9.72, 6.67 11.34, 3.86 12.32 C1.05 13.31, -1.56 14.39, -5 14.81 C-8.44 15.23, -13.15 15.19, -16.78 14.84 C-20.41 14.49, -23.27 13.86, -26.79 12.72 C-30.31 11.58, -34.97 8.88, -37.9 8 C-40.83 7.12, -41.39 7.34, -44.37 7.47 C-47.36 7.59, -52.56 7.91, -55.81 8.76 C-59.06 9.62, -60.92 11.57, -63.87 12.6 C-66.81 13.63, -69.32 14.62, -73.49 14.95 C-77.65 15.28, -84.26 15.41, -88.85 14.57 C-93.45 13.73, -97.73 11.06, -101.05 9.91 C-104.36 8.76, -105.37 7.96, -108.73 7.64 C-112.09 7.33, -117.8 7.42, -121.22 8.04 C-124.63 8.66, -126.61 10.4, -129.21 11.38 C-131.81 12.37, -133.83 13.32, -136.82 13.94 C-139.81 14.56, -144.49 15.26, -147.13 15.12 C-149.77 14.98, -151.5 14.24, -152.66 13.11 C-153.83 11.98, -154.14 9.78, -154.14 8.34 C-154.14 6.9, -153.43 5.43, -152.68 4.47 C-151.93 3.51, -151.62 3.01, -149.65 2.56 C-147.68 2.11, -144 2.62, -140.86 1.78 C-137.72 0.94, -134.13 -1.25, -130.8 -2.49 C-127.48 -3.73, -124.38 -5.07, -120.92 -5.68 C-117.46 -6.29, -113.75 -6.57, -110.07 -6.15 C-106.39 -5.74, -102.21 -4.38, -98.83 -3.21 C-95.45 -2.04, -92.96 0.01, -89.79 0.88 C-86.62 1.76, -83.18 2.1, -79.81 2.02 C-76.44 1.94, -73.44 1.53, -69.57 0.4 C-65.69 -0.72, -60.3 -3.55, -56.55 -4.72 C-52.8 -5.89, -51.18 -6.65, -47.06 -6.62 C-42.95 -6.59, -36.65 -5.9, -31.87 -4.55 C-27.09 -3.19, -22.71 0.43, -18.39 1.52 C-14.06 2.6, -8.97 2.2, -5.91 1.95 C-2.84 1.7, -0.98 0.33, 0 0" stroke="#E1E1E1" stroke-width="2" fill="none"></path></g></g><mask></mask><g stroke-linecap="round"><g transform="translate(297.0074895910677 54.841098227054204) rotate(0 28.764908531164906 8.46348732627007)"><path d="M0 0 C1.26 0.47, 5.55 2.25, 7.58 2.83 C9.61 3.41, 10.53 3.56, 12.18 3.48 C13.83 3.4, 15.76 2.85, 17.47 2.36 C19.19 1.87, 20.44 1.03, 22.46 0.53 C24.48 0.04, 27.31 -0.65, 29.61 -0.6 C31.91 -0.54, 34.18 0.21, 36.26 0.87 C38.34 1.53, 40.1 2.9, 42.07 3.38 C44.04 3.87, 45.8 4.31, 48.08 3.79 C50.37 3.28, 53.58 0.95, 55.78 0.27 C57.98 -0.4, 59.31 -0.23, 61.31 -0.25 C63.31 -0.27, 65.19 -0.41, 67.79 0.16 C70.39 0.73, 74.44 2.37, 76.9 3.16 C79.37 3.95, 81.17 4.09, 82.58 4.89 C83.99 5.69, 84.84 6.73, 85.38 7.96 C85.92 9.19, 86.07 11.03, 85.82 12.27 C85.57 13.52, 84.86 14.65, 83.86 15.43 C82.86 16.2, 81.37 16.72, 79.8 16.94 C78.24 17.15, 76.52 17.18, 74.47 16.74 C72.42 16.3, 69.33 14.87, 67.52 14.3 C65.72 13.73, 65.11 13.36, 63.63 13.34 C62.15 13.32, 60.56 13.57, 58.65 14.18 C56.74 14.79, 54.63 16.42, 52.17 16.97 C49.72 17.53, 46.59 17.87, 43.92 17.53 C41.25 17.18, 38.34 15.62, 36.15 14.92 C33.96 14.22, 32.57 13.56, 30.77 13.32 C28.98 13.08, 27.27 12.95, 25.39 13.48 C23.51 14.02, 21.9 15.87, 19.49 16.52 C17.09 17.17, 13.66 17.6, 10.95 17.39 C8.24 17.18, 5.59 15.91, 3.24 15.25 C0.89 14.59, -1.09 13.68, -3.15 13.42 C-5.22 13.16, -7.11 13.2, -9.16 13.69 C-11.2 14.18, -13.04 15.85, -15.42 16.38 C-17.79 16.9, -21.41 17.16, -23.4 16.85 C-25.39 16.53, -26.53 15.55, -27.35 14.49 C-28.16 13.44, -28.4 11.9, -28.29 10.52 C-28.19 9.14, -27.41 7.23, -26.73 6.21 C-26.04 5.2, -25.54 4.77, -24.18 4.43 C-22.83 4.09, -20.28 4.61, -18.58 4.17 C-16.89 3.73, -15.45 2.49, -13.98 1.8 C-12.52 1.11, -11.35 0.38, -9.79 0.02 C-8.23 -0.34, -6.25 -0.37, -4.62 -0.37 C-2.99 -0.37, -0.77 -0.06, 0 0 M0 0 C1.26 0.47, 5.55 2.25, 7.58 2.83 C9.61 3.41, 10.53 3.56, 12.18 3.48 C13.83 3.4, 15.76 2.85, 17.47 2.36 C19.19 1.87, 20.44 1.03, 22.46 0.53 C24.48 0.04, 27.31 -0.65, 29.61 -0.6 C31.91 -0.54, 34.18 0.21, 36.26 0.87 C38.34 1.53, 40.1 2.9, 42.07 3.38 C44.04 3.87, 45.8 4.31, 48.08 3.79 C50.37 3.28, 53.58 0.95, 55.78 0.27 C57.98 -0.4, 59.31 -0.23, 61.31 -0.25 C63.31 -0.27, 65.19 -0.41, 67.79 0.16 C70.39 0.73, 74.44 2.37, 76.9 3.16 C79.37 3.95, 81.17 4.09, 82.58 4.89 C83.99 5.69, 84.84 6.73, 85.38 7.96 C85.92 9.19, 86.07 11.03, 85.82 12.27 C85.57 13.52, 84.86 14.65, 83.86 15.43 C82.86 16.2, 81.37 16.72, 79.8 16.94 C78.24 17.15, 76.52 17.18, 74.47 16.74 C72.42 16.3, 69.33 14.87, 67.52 14.3 C65.72 13.73, 65.11 13.36, 63.63 13.34 C62.15 13.32, 60.56 13.57, 58.65 14.18 C56.74 14.79, 54.63 16.42, 52.17 16.97 C49.72 17.53, 46.59 17.87, 43.92 17.53 C41.25 17.18, 38.34 15.62, 36.15 14.92 C33.96 14.22, 32.57 13.56, 30.77 13.32 C28.98 13.08, 27.27 12.95, 25.39 13.48 C23.51 14.02, 21.9 15.87, 19.49 16.52 C17.09 17.17, 13.66 17.6, 10.95 17.39 C8.24 17.18, 5.59 15.91, 3.24 15.25 C0.89 14.59, -1.09 13.68, -3.15 13.42 C-5.22 13.16, -7.11 13.2, -9.16 13.69 C-11.2 14.18, -13.04 15.85, -15.42 16.38 C-17.79 16.9, -21.41 17.16, -23.4 16.85 C-25.39 16.53, -26.53 15.55, -27.35 14.49 C-28.16 13.44, -28.4 11.9, -28.29 10.52 C-28.19 9.14, -27.41 7.23, -26.73 6.21 C-26.04 5.2, -25.54 4.77, -24.18 4.43 C-22.83 4.09, -20.28 4.61, -18.58 4.17 C-16.89 3.73, -15.45 2.49, -13.98 1.8 C-12.52 1.11, -11.35 0.38, -9.79 0.02 C-8.23 -0.34, -6.25 -0.37, -4.62 -0.37 C-2.99 -0.37, -0.77 -0.06, 0 0" stroke="#E1E1E1" stroke-width="2" fill="none"></path></g></g><mask></mask></svg>