<svg version="1.1" xmlns="http://www.w3.org/2000/svg" viewBox="0 0 372.36375610625936 375.39263395206183" width="372.36375610625936" height="375.39263395206183" class="excalidraw-svg"><!-- svg-source:excalidraw --><metadata></metadata><defs><style class="style-fonts">
      </style></defs><rect x="0" y="0" width="372.36375610625936" height="375.39263395206183" fill="#000000"></rect><g stroke-linecap="round"><g transform="translate(72.90769570787131 195.59047351602533) rotate(0 34.59441235096838 6.787251387165497)"><path d="M0 0 C15.12 0, 30.25 0, 47.2 0 M0 0 C14.52 0, 29.03 0, 47.2 0 M47.2 0 C47.35 5.42, 47.5 10.84, 47.57 13.57 M47.2 0 C47.34 5.17, 47.48 10.34, 47.57 13.57 M47.57 13.57 C52.15 13.57, 56.72 13.57, 69.19 13.57 M47.57 13.57 C56.04 13.57, 64.5 13.57, 69.19 13.57" stroke="#E1E1E1" stroke-width="4" fill="none"></path></g></g><mask></mask><g stroke-linecap="round"><g transform="translate(154.03970982238718 155.9027414937849) rotate(180 34.769463709288594 6.787251387165497)"><path d="M0 0 C16.47 0, 32.94 0, 47.55 0 M0 0 C16.29 0, 32.58 0, 47.55 0 M47.55 0 C47.65 3.82, 47.76 7.64, 47.92 13.57 M47.55 0 C47.67 4.42, 47.79 8.84, 47.92 13.57 M47.92 13.57 C52.83 13.57, 57.75 13.57, 69.54 13.57 M47.92 13.57 C56.14 13.57, 64.37 13.57, 69.54 13.57" stroke="#E1E1E1" stroke-width="4" fill="none"></path></g></g><mask></mask><g stroke-linecap="round"><g transform="translate(92.20673287904299 365.3219874475759) rotate(0 94.01511515370171 -177.5785251803815)"><path d="M0 0 C-5.66 0, -24.5 0, -33.96 0 C-43.42 0, -49.71 0, -56.77 0 C-63.83 0, -72.25 0.16, -76.31 0 C-80.38 -0.16, -80.22 0.04, -81.15 -0.95 C-82.09 -1.94, -81.8 -3.32, -81.93 -5.94 C-82.06 -8.55, -81.93 2.29, -81.93 -16.63 C-81.93 -35.54, -81.93 -81.59, -81.93 -119.43 C-81.93 -157.27, -81.93 -209.8, -81.93 -243.68 C-81.93 -277.56, -81.93 -305.63, -81.93 -322.7 C-81.93 -339.77, -82.55 -341.04, -81.93 -346.08 C-81.31 -351.12, -79.71 -351.42, -78.2 -352.93 C-76.7 -354.44, -76.11 -354.79, -72.91 -355.16 C-69.71 -355.53, -74.43 -355.16, -58.99 -355.16 C-43.55 -355.16, -9.81 -355.16, 19.74 -355.16 C49.28 -355.16, 86.69 -355.16, 118.28 -355.16 C149.86 -355.16, 186.68 -355.16, 209.23 -355.16 C231.78 -355.16, 244.32 -355.31, 253.57 -355.16 C262.81 -355, 262.1 -355.32, 264.7 -354.22 C267.31 -353.13, 268.31 -351.11, 269.19 -348.58 C270.06 -346.06, 269.83 -347.07, 269.96 -339.07 C270.09 -331.07, 269.96 -321.41, 269.96 -300.58 C269.96 -279.74, 269.96 -243.86, 269.96 -214.06 C269.96 -184.27, 269.96 -153.16, 269.96 -121.8 C269.96 -90.45, 269.96 -44.42, 269.96 -25.94 C269.96 -7.47, 269.98 -15.05, 269.96 -10.96 C269.94 -6.86, 270.49 -3.18, 269.84 -1.37 C269.2 0.44, 267.61 -0.31, 266.1 -0.1 C264.59 0.11, 265.32 -0.1, 260.78 -0.1 C256.23 -0.1, 247.48 -0.1, 238.85 -0.1 C230.21 -0.1, 248.75 -0.12, 208.94 -0.1 C169.13 -0.08, 34.82 -0.02, 0 0 M0 0 C-5.66 0, -24.5 0, -33.96 0 C-43.42 0, -49.71 0, -56.77 0 C-63.83 0, -72.25 0.16, -76.31 0 C-80.38 -0.16, -80.22 0.04, -81.15 -0.95 C-82.09 -1.94, -81.8 -3.32, -81.93 -5.94 C-82.06 -8.55, -81.93 2.29, -81.93 -16.63 C-81.93 -35.54, -81.93 -81.59, -81.93 -119.43 C-81.93 -157.27, -81.93 -209.8, -81.93 -243.68 C-81.93 -277.56, -81.93 -305.63, -81.93 -322.7 C-81.93 -339.77, -82.55 -341.04, -81.93 -346.08 C-81.31 -351.12, -79.71 -351.42, -78.2 -352.93 C-76.7 -354.44, -76.11 -354.79, -72.91 -355.16 C-69.71 -355.53, -74.43 -355.16, -58.99 -355.16 C-43.55 -355.16, -9.81 -355.16, 19.74 -355.16 C49.28 -355.16, 86.69 -355.16, 118.28 -355.16 C149.86 -355.16, 186.68 -355.16, 209.23 -355.16 C231.78 -355.16, 244.32 -355.31, 253.57 -355.16 C262.81 -355, 262.1 -355.32, 264.7 -354.22 C267.31 -353.13, 268.31 -351.11, 269.19 -348.58 C270.06 -346.06, 269.83 -347.07, 269.96 -339.07 C270.09 -331.07, 269.96 -321.41, 269.96 -300.58 C269.96 -279.74, 269.96 -243.86, 269.96 -214.06 C269.96 -184.27, 269.96 -153.16, 269.96 -121.8 C269.96 -90.45, 269.96 -44.42, 269.96 -25.94 C269.96 -7.47, 269.98 -15.05, 269.96 -10.96 C269.94 -6.86, 270.49 -3.18, 269.84 -1.37 C269.2 0.44, 267.61 -0.31, 266.1 -0.1 C264.59 0.11, 265.32 -0.1, 260.78 -0.1 C256.23 -0.1, 247.48 -0.1, 238.85 -0.1 C230.21 -0.1, 248.75 -0.12, 208.94 -0.1 C169.13 -0.08, 34.82 -0.02, 0 0" stroke="#ffffff" stroke-width="4" fill="none"></path></g></g><mask></mask><g stroke-linecap="round" transform="translate(75.15786178227006 109.32603940709) rotate(0 72.87240243886946 71.86568134813025)"><path d="M145.74 71.87 C145.74 74.55, 145.59 77.25, 145.29 79.91 C144.98 82.58, 144.52 85.24, 143.92 87.86 C143.31 90.47, 142.55 93.07, 141.66 95.6 C140.76 98.13, 139.71 100.63, 138.53 103.05 C137.35 105.46, 136.02 107.83, 134.58 110.1 C133.13 112.37, 131.54 114.58, 129.85 116.67 C128.15 118.77, 126.32 120.79, 124.4 122.68 C122.48 124.58, 120.43 126.38, 118.31 128.05 C116.18 129.72, 113.95 131.29, 111.64 132.72 C109.34 134.14, 106.94 135.45, 104.49 136.61 C102.04 137.78, 99.51 138.81, 96.94 139.7 C94.37 140.58, 91.74 141.33, 89.09 141.93 C86.44 142.53, 83.73 142.98, 81.03 143.28 C78.33 143.58, 75.59 143.73, 72.87 143.73 C70.15 143.73, 67.42 143.58, 64.71 143.28 C62.01 142.98, 59.31 142.53, 56.66 141.93 C54.01 141.33, 51.37 140.58, 48.8 139.7 C46.24 138.81, 43.7 137.78, 41.25 136.61 C38.8 135.45, 36.4 134.14, 34.1 132.72 C31.8 131.29, 29.56 129.72, 27.44 128.05 C25.31 126.38, 23.27 124.58, 21.34 122.68 C19.42 120.79, 17.59 118.77, 15.9 116.67 C14.2 114.58, 12.62 112.37, 11.17 110.1 C9.72 107.83, 8.4 105.46, 7.22 103.05 C6.04 100.63, 4.99 98.13, 4.09 95.6 C3.19 93.07, 2.43 90.47, 1.83 87.86 C1.22 85.24, 0.76 82.58, 0.46 79.91 C0.15 77.25, 0 74.55, 0 71.87 C0 69.18, 0.15 66.48, 0.46 63.82 C0.76 61.15, 1.22 58.49, 1.83 55.87 C2.43 53.26, 3.19 50.66, 4.09 48.13 C4.99 45.6, 6.04 43.1, 7.22 40.68 C8.4 38.27, 9.72 35.9, 11.17 33.63 C12.62 31.36, 14.2 29.16, 15.9 27.06 C17.59 24.96, 19.42 22.95, 21.34 21.05 C23.27 19.15, 25.31 17.35, 27.44 15.68 C29.56 14.01, 31.8 12.44, 34.1 11.02 C36.4 9.59, 38.8 8.28, 41.25 7.12 C43.7 5.95, 46.24 4.92, 48.8 4.03 C51.37 3.15, 54.01 2.4, 56.66 1.8 C59.31 1.2, 62.01 0.75, 64.71 0.45 C67.42 0.15, 70.15 0, 72.87 0 C75.59 0, 78.33 0.15, 81.03 0.45 C83.73 0.75, 86.44 1.2, 89.09 1.8 C91.74 2.4, 94.37 3.15, 96.94 4.03 C99.51 4.92, 102.04 5.95, 104.49 7.12 C106.94 8.28, 109.34 9.59, 111.64 11.02 C113.95 12.44, 116.18 14.01, 118.31 15.68 C120.43 17.35, 122.48 19.15, 124.4 21.05 C126.32 22.95, 128.15 24.96, 129.85 27.06 C131.54 29.16, 133.13 31.36, 134.58 33.63 C136.02 35.9, 137.35 38.27, 138.53 40.68 C139.71 43.1, 140.76 45.6, 141.66 48.13 C142.55 50.66, 143.31 53.26, 143.92 55.87 C144.52 58.49, 144.98 61.15, 145.29 63.82 C145.59 66.48, 145.67 70.52, 145.74 71.87 C145.82 73.21, 145.82 70.52, 145.74 71.87" stroke="#FFFFFF" stroke-width="4" fill="none"></path></g><g stroke-linecap="round" transform="translate(65.33357353322174 100.71088178159438) rotate(0 83.07068182076627 80.7633999367135)"><path d="M166.14 80.76 C166.14 83.58, 165.99 86.41, 165.69 89.21 C165.38 92, 164.93 94.8, 164.33 97.56 C163.72 100.31, 162.97 103.04, 162.08 105.72 C161.18 108.4, 160.14 111.04, 158.96 113.61 C157.78 116.18, 156.46 118.71, 155.01 121.15 C153.56 123.58, 151.98 125.96, 150.28 128.23 C148.57 130.51, 146.74 132.71, 144.8 134.8 C142.87 136.9, 140.81 138.9, 138.66 140.78 C136.5 142.67, 134.24 144.45, 131.9 146.1 C129.56 147.76, 127.11 149.3, 124.61 150.71 C122.1 152.11, 119.5 153.4, 116.86 154.54 C114.21 155.69, 111.49 156.7, 108.74 157.57 C105.99 158.44, 103.17 159.18, 100.34 159.76 C97.51 160.35, 94.63 160.79, 91.75 161.08 C88.88 161.38, 85.97 161.53, 83.07 161.53 C80.18 161.53, 77.27 161.38, 74.39 161.08 C71.51 160.79, 68.63 160.35, 65.8 159.76 C62.97 159.18, 60.15 158.44, 57.4 157.57 C54.65 156.7, 51.93 155.69, 49.28 154.54 C46.64 153.4, 44.04 152.11, 41.54 150.71 C39.03 149.3, 36.58 147.76, 34.24 146.1 C31.9 144.45, 29.64 142.67, 27.49 140.78 C25.33 138.9, 23.27 136.9, 21.34 134.8 C19.4 132.71, 17.57 130.51, 15.87 128.23 C14.16 125.96, 12.58 123.58, 11.13 121.15 C9.68 118.71, 8.36 116.18, 7.18 113.61 C6 111.04, 4.96 108.4, 4.07 105.72 C3.17 103.04, 2.42 100.31, 1.82 97.56 C1.21 94.8, 0.76 92, 0.46 89.21 C0.15 86.41, 0 83.58, 0 80.76 C0 77.95, 0.15 75.12, 0.46 72.32 C0.76 69.52, 1.21 66.72, 1.82 63.97 C2.42 61.22, 3.17 58.48, 4.07 55.81 C4.96 53.13, 6 50.48, 7.18 47.91 C8.36 45.34, 9.68 42.82, 11.13 40.38 C12.58 37.94, 14.16 35.57, 15.87 33.29 C17.57 31.02, 19.4 28.81, 21.34 26.72 C23.27 24.63, 25.33 22.63, 27.49 20.74 C29.64 18.86, 31.9 17.08, 34.24 15.42 C36.58 13.77, 39.03 12.23, 41.54 10.82 C44.04 9.41, 46.64 8.13, 49.28 6.98 C51.93 5.84, 54.65 4.82, 57.4 3.95 C60.15 3.08, 62.97 2.35, 65.8 1.76 C68.63 1.18, 71.51 0.74, 74.39 0.44 C77.27 0.15, 80.18 0, 83.07 0 C85.97 0, 88.88 0.15, 91.75 0.44 C94.63 0.74, 97.51 1.18, 100.34 1.76 C103.17 2.35, 105.99 3.08, 108.74 3.95 C111.49 4.82, 114.21 5.84, 116.86 6.98 C119.5 8.13, 122.1 9.41, 124.61 10.82 C127.11 12.23, 129.56 13.77, 131.9 15.42 C134.24 17.08, 136.5 18.86, 138.66 20.74 C140.81 22.63, 142.87 24.63, 144.8 26.72 C146.74 28.81, 148.57 31.02, 150.28 33.29 C151.98 35.57, 153.56 37.94, 155.01 40.38 C156.46 42.82, 157.78 45.34, 158.96 47.91 C160.14 50.48, 161.18 53.13, 162.08 55.81 C162.97 58.48, 163.72 61.22, 164.33 63.97 C164.93 66.72, 165.38 69.52, 165.69 72.32 C165.99 75.12, 166.07 79.36, 166.14 80.76 C166.22 82.17, 166.22 79.36, 166.14 80.76" stroke="#FFFFFF" stroke-width="4" fill="none"></path></g><g stroke-linecap="round"><g transform="translate(243.8106734585341 297.9124540872891) rotate(0 4.224689738795419 -14.102557976500762)"><path d="M0 0 C-1.73 -1.72, -6.98 -7.02, -10.35 -10.29 C-13.72 -13.56, -17.45 -16.95, -20.24 -19.61 C-23.04 -22.26, -26.11 -24.67, -27.13 -26.2 C-28.15 -27.74, -27.44 -27.5, -26.36 -28.79 C-25.28 -30.09, -22.84 -31.85, -20.66 -33.98 C-18.48 -36.12, -15.03 -39.76, -13.3 -41.58 C-11.57 -43.41, -11.18 -44.61, -10.3 -44.94 C-9.42 -45.27, -9.58 -44.99, -8.02 -43.58 C-6.45 -42.17, -3.89 -39.25, -0.91 -36.46 C2.07 -33.67, 6.35 -30.24, 9.89 -26.82 C13.42 -23.4, 17.19 -19.06, 20.3 -15.95 C23.41 -12.84, 26.31 -10.29, 28.54 -8.17 C30.76 -6.06, 32.48 -4.6, 33.65 -3.26 C34.82 -1.92, 35.31 -1.62, 35.58 -0.15 C35.85 1.32, 35.72 3.77, 35.27 5.56 C34.82 7.35, 33.8 9.12, 32.87 10.58 C31.93 12.04, 30.83 13.38, 29.64 14.34 C28.44 15.3, 27.4 15.95, 25.69 16.35 C23.98 16.75, 21 16.85, 19.39 16.73 C17.78 16.61, 17.1 16.31, 16.05 15.63 C14.99 14.96, 14.6 14.24, 13.05 12.68 C11.49 11.13, 8.89 8.41, 6.71 6.3 C4.54 4.18, 1.12 1.05, 0 0 M0 0 C-1.73 -1.72, -6.98 -7.02, -10.35 -10.29 C-13.72 -13.56, -17.45 -16.95, -20.24 -19.61 C-23.04 -22.26, -26.11 -24.67, -27.13 -26.2 C-28.15 -27.74, -27.44 -27.5, -26.36 -28.79 C-25.28 -30.09, -22.84 -31.85, -20.66 -33.98 C-18.48 -36.12, -15.03 -39.76, -13.3 -41.58 C-11.57 -43.41, -11.18 -44.61, -10.3 -44.94 C-9.42 -45.27, -9.58 -44.99, -8.02 -43.58 C-6.45 -42.17, -3.89 -39.25, -0.91 -36.46 C2.07 -33.67, 6.35 -30.24, 9.89 -26.82 C13.42 -23.4, 17.19 -19.06, 20.3 -15.95 C23.41 -12.84, 26.31 -10.29, 28.54 -8.17 C30.76 -6.06, 32.48 -4.6, 33.65 -3.26 C34.82 -1.92, 35.31 -1.62, 35.58 -0.15 C35.85 1.32, 35.72 3.77, 35.27 5.56 C34.82 7.35, 33.8 9.12, 32.87 10.58 C31.93 12.04, 30.83 13.38, 29.64 14.34 C28.44 15.3, 27.4 15.95, 25.69 16.35 C23.98 16.75, 21 16.85, 19.39 16.73 C17.78 16.61, 17.1 16.31, 16.05 15.63 C14.99 14.96, 14.6 14.24, 13.05 12.68 C11.49 11.13, 8.89 8.41, 6.71 6.3 C4.54 4.18, 1.12 1.05, 0 0" stroke="#FFFFFF" stroke-width="4" fill="none"></path></g></g><mask></mask><g stroke-linecap="round"><g transform="translate(221.79284315603093 256.83695761176807) rotate(0 18.43867051291494 25.58307408360011)"><path d="M0 0 C-1.17 1.13, -5.14 4.98, -7.02 6.77 C-8.9 8.56, -10.42 9.61, -11.29 10.72 C-12.16 11.84, -12.59 12.5, -12.24 13.46 C-11.89 14.42, -10.73 14.97, -9.18 16.49 C-7.62 18.01, -6.69 18.94, -2.9 22.58 C0.89 26.21, 8.57 33.45, 13.56 38.32 C18.55 43.18, 23.39 48.16, 27.02 51.77 C30.66 55.37, 32.88 58.39, 35.37 59.94 C37.86 61.49, 40.08 61.19, 41.95 61.08 C43.82 60.98, 45.09 60.1, 46.6 59.31 C48.11 58.53, 49.79 57.39, 51.03 56.35 C52.27 55.32, 54.34 52.79, 54.03 53.08 C53.73 53.38, 50.57 56.78, 49.21 58.12 C47.85 59.47, 47.15 60.38, 45.87 61.14 C44.6 61.9, 43.1 62.41, 41.56 62.68 C40.03 62.94, 38.27 63.25, 36.66 62.72 C35.06 62.19, 33.89 61.25, 31.91 59.5 C29.92 57.76, 27.26 54.68, 24.75 52.25 C22.24 49.82, 19.7 47.58, 16.85 44.92 C14 42.26, 10.86 39.26, 7.67 36.3 C4.48 33.34, 0.86 30.04, -2.28 27.15 C-5.42 24.26, -8.84 21.14, -11.16 18.96 C-13.48 16.79, -15.19 15.35, -16.19 14.11 C-17.19 12.86, -17.37 12.4, -17.16 11.49 C-16.94 10.59, -16.72 10.74, -14.92 8.68 C-13.12 6.63, -8.84 1.93, -6.36 -0.85 C-3.89 -3.64, -1.78 -6.23, -0.07 -8.01 C1.64 -9.8, 2.82 -11.14, 3.91 -11.55 C5 -11.96, 5.81 -11.09, 6.46 -10.49 C7.11 -9.89, 7.89 -8.71, 7.82 -7.94 C7.75 -7.17, 6.81 -6.67, 6.04 -5.86 C5.27 -5.04, 4.2 -4.05, 3.19 -3.07 C2.18 -2.09, 0.53 -0.51, 0 0 M0 0 C-1.17 1.13, -5.14 4.98, -7.02 6.77 C-8.9 8.56, -10.42 9.61, -11.29 10.72 C-12.16 11.84, -12.59 12.5, -12.24 13.46 C-11.89 14.42, -10.73 14.97, -9.18 16.49 C-7.62 18.01, -6.69 18.94, -2.9 22.58 C0.89 26.21, 8.57 33.45, 13.56 38.32 C18.55 43.18, 23.39 48.16, 27.02 51.77 C30.66 55.37, 32.88 58.39, 35.37 59.94 C37.86 61.49, 40.08 61.19, 41.95 61.08 C43.82 60.98, 45.09 60.1, 46.6 59.31 C48.11 58.53, 49.79 57.39, 51.03 56.35 C52.27 55.32, 54.34 52.79, 54.03 53.08 C53.73 53.38, 50.57 56.78, 49.21 58.12 C47.85 59.47, 47.15 60.38, 45.87 61.14 C44.6 61.9, 43.1 62.41, 41.56 62.68 C40.03 62.94, 38.27 63.25, 36.66 62.72 C35.06 62.19, 33.89 61.25, 31.91 59.5 C29.92 57.76, 27.26 54.68, 24.75 52.25 C22.24 49.82, 19.7 47.58, 16.85 44.92 C14 42.26, 10.86 39.26, 7.67 36.3 C4.48 33.34, 0.86 30.04, -2.28 27.15 C-5.42 24.26, -8.84 21.14, -11.16 18.96 C-13.48 16.79, -15.19 15.35, -16.19 14.11 C-17.19 12.86, -17.37 12.4, -17.16 11.49 C-16.94 10.59, -16.72 10.74, -14.92 8.68 C-13.12 6.63, -8.84 1.93, -6.36 -0.85 C-3.89 -3.64, -1.78 -6.23, -0.07 -8.01 C1.64 -9.8, 2.82 -11.14, 3.91 -11.55 C5 -11.96, 5.81 -11.09, 6.46 -10.49 C7.11 -9.89, 7.89 -8.71, 7.82 -7.94 C7.75 -7.17, 6.81 -6.67, 6.04 -5.86 C5.27 -5.04, 4.2 -4.05, 3.19 -3.07 C2.18 -2.09, 0.53 -0.51, 0 0" stroke="#FFFFFF" stroke-width="1" fill="none"></path></g></g><mask></mask><g stroke-linecap="round"><g transform="translate(231.09648003784025 174.3286854913532) rotate(0 -82.16747912261782 7.122943056257071)" fill-rule="evenodd"><path d="M0 0 C-0.58 -2.69, -1.17 -9.86, -3.47 -16.11 C-5.77 -22.37, -10.7 -32.39, -13.8 -37.52 C-16.89 -42.65, -19.1 -43.88, -22.04 -46.89 C-24.97 -49.91, -28.16 -52.99, -31.41 -55.6 C-34.67 -58.2, -37.23 -60.26, -41.56 -62.52 C-45.88 -64.77, -51.97 -67.47, -57.38 -69.12 C-62.78 -70.78, -68.51 -71.88, -74 -72.45 C-79.49 -73.01, -84.43 -73.14, -90.32 -72.51 C-96.22 -71.89, -103.7 -70.49, -109.37 -68.71 C-115.05 -66.93, -119.95 -64.31, -124.38 -61.82 C-128.81 -59.32, -132.54 -56.56, -135.97 -53.74 C-139.4 -50.92, -142.05 -48.27, -144.97 -44.89 C-147.9 -41.5, -151.12 -37.19, -153.51 -33.43 C-155.91 -29.67, -157.81 -26.23, -159.35 -22.31 C-160.9 -18.38, -161.93 -13.85, -162.78 -9.86 C-163.63 -5.88, -164.16 -2.71, -164.45 1.62 C-164.73 5.95, -165.01 11.34, -164.51 16.12 C-164.01 20.9, -162.84 25.79, -161.44 30.3 C-160.04 34.82, -158.28 39.09, -156.12 43.23 C-153.96 47.37, -151.16 51.57, -148.49 55.15 C-145.82 58.72, -143.49 61.57, -140.09 64.66 C-136.68 67.76, -132.89 70.75, -128.04 73.72 C-123.2 76.68, -116.87 80.29, -111.03 82.46 C-105.19 84.64, -99.26 86.05, -92.99 86.76 C-86.72 87.47, -79.66 87.32, -73.41 86.7 C-67.17 86.08, -61.4 85.05, -55.53 83.05 C-49.66 81.05, -43.51 77.98, -38.18 74.7 C-32.86 71.41, -27.88 67.59, -23.56 63.33 C-19.24 59.08, -15.34 53.99, -12.27 49.16 C-9.2 44.32, -6.92 38.95, -5.14 34.35 C-3.35 29.74, -2.39 25.67, -1.57 21.53 C-0.74 17.39, -0.47 12.6, -0.18 9.52 C0.11 6.44, 0.24 5.4, 0.17 3.05 C0.11 0.7, 0.24 -3.15, -0.58 -4.57 C-1.4 -5.99, -3.19 -5.57, -4.75 -5.46 C-6.31 -5.35, -9.06 -4.94, -9.93 -3.92 C-10.79 -2.91, -9.96 -2.08, -9.93 0.64 C-9.9 3.35, -9.3 7.58, -9.74 12.37 C-10.18 17.15, -10.98 24.15, -12.59 29.34 C-14.19 34.54, -17.02 39.5, -19.37 43.54 C-21.72 47.59, -23.81 50.37, -26.68 53.62 C-29.55 56.87, -33.5 60.45, -36.6 63.03 C-39.7 65.62, -41.67 67.06, -45.27 69.12 C-48.88 71.19, -53.76 73.82, -58.24 75.43 C-62.72 77.04, -67.5 78.11, -72.15 78.78 C-76.8 79.44, -81.46 79.65, -86.15 79.42 C-90.84 79.19, -95.59 78.53, -100.28 77.4 C-104.98 76.26, -109.97 74.62, -114.32 72.62 C-118.67 70.62, -122.73 68, -126.37 65.4 C-130.02 62.8, -133.31 60.01, -136.21 57.02 C-139.11 54.03, -141.59 50.69, -143.78 47.47 C-145.97 44.24, -147.69 40.95, -149.33 37.66 C-150.97 34.37, -152.5 31.57, -153.63 27.72 C-154.76 23.86, -155.7 19.35, -156.11 14.53 C-156.51 9.7, -156.49 3.42, -156.07 -1.22 C-155.65 -5.86, -154.94 -9.03, -153.59 -13.34 C-152.23 -17.64, -150.43 -22.52, -147.94 -27.05 C-145.45 -31.57, -142.07 -36.51, -138.66 -40.47 C-135.24 -44.43, -131.7 -47.67, -127.43 -50.79 C-123.16 -53.91, -118 -56.95, -113.02 -59.18 C-108.05 -61.41, -102.62 -63.07, -97.56 -64.16 C-92.5 -65.25, -87.71 -65.73, -82.67 -65.74 C-77.62 -65.75, -72.8 -65.54, -67.29 -64.25 C-61.78 -62.95, -53.77 -59.75, -49.62 -57.97 C-45.46 -56.19, -45.37 -55.7, -42.37 -53.57 C-39.36 -51.44, -34.98 -48.52, -31.59 -45.18 C-28.19 -41.84, -24.84 -37.87, -21.99 -33.53 C-19.14 -29.19, -16.34 -23.66, -14.49 -19.16 C-12.64 -14.66, -11.76 -10.08, -10.9 -6.51 C-10.05 -2.94, -10.41 -0.34, -9.36 2.25 C-8.32 4.84, -6.09 8.78, -4.64 9.01 C-3.19 9.25, -1.44 5.28, -0.68 3.66 C0.08 2.05, -0.19 0.05, -0.09 -0.67" stroke="none" stroke-width="0" fill="#FFFFFF" fill-rule="evenodd"></path><path d="M0 0 C-0.58 -2.69, -1.17 -9.86, -3.47 -16.11 C-5.77 -22.37, -10.7 -32.39, -13.8 -37.52 C-16.89 -42.65, -19.1 -43.88, -22.04 -46.89 C-24.97 -49.91, -28.16 -52.99, -31.41 -55.6 C-34.67 -58.2, -37.23 -60.26, -41.56 -62.52 C-45.88 -64.77, -51.97 -67.47, -57.38 -69.12 C-62.78 -70.78, -68.51 -71.88, -74 -72.45 C-79.49 -73.01, -84.43 -73.14, -90.32 -72.51 C-96.22 -71.89, -103.7 -70.49, -109.37 -68.71 C-115.05 -66.93, -119.95 -64.31, -124.38 -61.82 C-128.81 -59.32, -132.54 -56.56, -135.97 -53.74 C-139.4 -50.92, -142.05 -48.27, -144.97 -44.89 C-147.9 -41.5, -151.12 -37.19, -153.51 -33.43 C-155.91 -29.67, -157.81 -26.23, -159.35 -22.31 C-160.9 -18.38, -161.93 -13.85, -162.78 -9.86 C-163.63 -5.88, -164.16 -2.71, -164.45 1.62 C-164.73 5.95, -165.01 11.34, -164.51 16.12 C-164.01 20.9, -162.84 25.79, -161.44 30.3 C-160.04 34.82, -158.28 39.09, -156.12 43.23 C-153.96 47.37, -151.16 51.57, -148.49 55.15 C-145.82 58.72, -143.49 61.57, -140.09 64.66 C-136.68 67.76, -132.89 70.75, -128.04 73.72 C-123.2 76.68, -116.87 80.29, -111.03 82.46 C-105.19 84.64, -99.26 86.05, -92.99 86.76 C-86.72 87.47, -79.66 87.32, -73.41 86.7 C-67.17 86.08, -61.4 85.05, -55.53 83.05 C-49.66 81.05, -43.51 77.98, -38.18 74.7 C-32.86 71.41, -27.88 67.59, -23.56 63.33 C-19.24 59.08, -15.34 53.99, -12.27 49.16 C-9.2 44.32, -6.92 38.95, -5.14 34.35 C-3.35 29.74, -2.39 25.67, -1.57 21.53 C-0.74 17.39, -0.47 12.6, -0.18 9.52 C0.11 6.44, 0.24 5.4, 0.17 3.05 C0.11 0.7, 0.24 -3.15, -0.58 -4.57 C-1.4 -5.99, -3.19 -5.57, -4.75 -5.46 C-6.31 -5.35, -9.06 -4.94, -9.93 -3.92 C-10.79 -2.91, -9.96 -2.08, -9.93 0.64 C-9.9 3.35, -9.3 7.58, -9.74 12.37 C-10.18 17.15, -10.98 24.15, -12.59 29.34 C-14.19 34.54, -17.02 39.5, -19.37 43.54 C-21.72 47.59, -23.81 50.37, -26.68 53.62 C-29.55 56.87, -33.5 60.45, -36.6 63.03 C-39.7 65.62, -41.67 67.06, -45.27 69.12 C-48.88 71.19, -53.76 73.82, -58.24 75.43 C-62.72 77.04, -67.5 78.11, -72.15 78.78 C-76.8 79.44, -81.46 79.65, -86.15 79.42 C-90.84 79.19, -95.59 78.53, -100.28 77.4 C-104.98 76.26, -109.97 74.62, -114.32 72.62 C-118.67 70.62, -122.73 68, -126.37 65.4 C-130.02 62.8, -133.31 60.01, -136.21 57.02 C-139.11 54.03, -141.59 50.69, -143.78 47.47 C-145.97 44.24, -147.69 40.95, -149.33 37.66 C-150.97 34.37, -152.5 31.57, -153.63 27.72 C-154.76 23.86, -155.7 19.35, -156.11 14.53 C-156.51 9.7, -156.49 3.42, -156.07 -1.22 C-155.65 -5.86, -154.94 -9.03, -153.59 -13.34 C-152.23 -17.64, -150.43 -22.52, -147.94 -27.05 C-145.45 -31.57, -142.07 -36.51, -138.66 -40.47 C-135.24 -44.43, -131.7 -47.67, -127.43 -50.79 C-123.16 -53.91, -118 -56.95, -113.02 -59.18 C-108.05 -61.41, -102.62 -63.07, -97.56 -64.16 C-92.5 -65.25, -87.71 -65.73, -82.67 -65.74 C-77.62 -65.75, -72.8 -65.54, -67.29 -64.25 C-61.78 -62.95, -53.77 -59.75, -49.62 -57.97 C-45.46 -56.19, -45.37 -55.7, -42.37 -53.57 C-39.36 -51.44, -34.98 -48.52, -31.59 -45.18 C-28.19 -41.84, -24.84 -37.87, -21.99 -33.53 C-19.14 -29.19, -16.34 -23.66, -14.49 -19.16 C-12.64 -14.66, -11.76 -10.08, -10.9 -6.51 C-10.05 -2.94, -10.41 -0.34, -9.36 2.25 C-8.32 4.84, -6.09 8.78, -4.64 9.01 C-3.19 9.25, -1.44 5.28, -0.68 3.66 C0.08 2.05, -0.19 0.05, -0.09 -0.67 M0 0 C-0.58 -2.69, -1.17 -9.86, -3.47 -16.11 C-5.77 -22.37, -10.7 -32.39, -13.8 -37.52 C-16.89 -42.65, -19.1 -43.88, -22.04 -46.89 C-24.97 -49.91, -28.16 -52.99, -31.41 -55.6 C-34.67 -58.2, -37.23 -60.26, -41.56 -62.52 C-45.88 -64.77, -51.97 -67.47, -57.38 -69.12 C-62.78 -70.78, -68.51 -71.88, -74 -72.45 C-79.49 -73.01, -84.43 -73.14, -90.32 -72.51 C-96.22 -71.89, -103.7 -70.49, -109.37 -68.71 C-115.05 -66.93, -119.95 -64.31, -124.38 -61.82 C-128.81 -59.32, -132.54 -56.56, -135.97 -53.74 C-139.4 -50.92, -142.05 -48.27, -144.97 -44.89 C-147.9 -41.5, -151.12 -37.19, -153.51 -33.43 C-155.91 -29.67, -157.81 -26.23, -159.35 -22.31 C-160.9 -18.38, -161.93 -13.85, -162.78 -9.86 C-163.63 -5.88, -164.16 -2.71, -164.45 1.62 C-164.73 5.95, -165.01 11.34, -164.51 16.12 C-164.01 20.9, -162.84 25.79, -161.44 30.3 C-160.04 34.82, -158.28 39.09, -156.12 43.23 C-153.96 47.37, -151.16 51.57, -148.49 55.15 C-145.82 58.72, -143.49 61.57, -140.09 64.66 C-136.68 67.76, -132.89 70.75, -128.04 73.72 C-123.2 76.68, -116.87 80.29, -111.03 82.46 C-105.19 84.64, -99.26 86.05, -92.99 86.76 C-86.72 87.47, -79.66 87.32, -73.41 86.7 C-67.17 86.08, -61.4 85.05, -55.53 83.05 C-49.66 81.05, -43.51 77.98, -38.18 74.7 C-32.86 71.41, -27.88 67.59, -23.56 63.33 C-19.24 59.08, -15.34 53.99, -12.27 49.16 C-9.2 44.32, -6.92 38.95, -5.14 34.35 C-3.35 29.74, -2.39 25.67, -1.57 21.53 C-0.74 17.39, -0.47 12.6, -0.18 9.52 C0.11 6.44, 0.24 5.4, 0.17 3.05 C0.11 0.7, 0.24 -3.15, -0.58 -4.57 C-1.4 -5.99, -3.19 -5.57, -4.75 -5.46 C-6.31 -5.35, -9.06 -4.94, -9.93 -3.92 C-10.79 -2.91, -9.96 -2.08, -9.93 0.64 C-9.9 3.35, -9.3 7.58, -9.74 12.37 C-10.18 17.15, -10.98 24.15, -12.59 29.34 C-14.19 34.54, -17.02 39.5, -19.37 43.54 C-21.72 47.59, -23.81 50.37, -26.68 53.62 C-29.55 56.87, -33.5 60.45, -36.6 63.03 C-39.7 65.62, -41.67 67.06, -45.27 69.12 C-48.88 71.19, -53.76 73.82, -58.24 75.43 C-62.72 77.04, -67.5 78.11, -72.15 78.78 C-76.8 79.44, -81.46 79.65, -86.15 79.42 C-90.84 79.19, -95.59 78.53, -100.28 77.4 C-104.98 76.26, -109.97 74.62, -114.32 72.62 C-118.67 70.62, -122.73 68, -126.37 65.4 C-130.02 62.8, -133.31 60.01, -136.21 57.02 C-139.11 54.03, -141.59 50.69, -143.78 47.47 C-145.97 44.24, -147.69 40.95, -149.33 37.66 C-150.97 34.37, -152.5 31.57, -153.63 27.72 C-154.76 23.86, -155.7 19.35, -156.11 14.53 C-156.51 9.7, -156.49 3.42, -156.07 -1.22 C-155.65 -5.86, -154.94 -9.03, -153.59 -13.34 C-152.23 -17.64, -150.43 -22.52, -147.94 -27.05 C-145.45 -31.57, -142.07 -36.51, -138.66 -40.47 C-135.24 -44.43, -131.7 -47.67, -127.43 -50.79 C-123.16 -53.91, -118 -56.95, -113.02 -59.18 C-108.05 -61.41, -102.62 -63.07, -97.56 -64.16 C-92.5 -65.25, -87.71 -65.73, -82.67 -65.74 C-77.62 -65.75, -72.8 -65.54, -67.29 -64.25 C-61.78 -62.95, -53.77 -59.75, -49.62 -57.97 C-45.46 -56.19, -45.37 -55.7, -42.37 -53.57 C-39.36 -51.44, -34.98 -48.52, -31.59 -45.18 C-28.19 -41.84, -24.84 -37.87, -21.99 -33.53 C-19.14 -29.19, -16.34 -23.66, -14.49 -19.16 C-12.64 -14.66, -11.76 -10.08, -10.9 -6.51 C-10.05 -2.94, -10.41 -0.34, -9.36 2.25 C-8.32 4.84, -6.09 8.78, -4.64 9.01 C-3.19 9.25, -1.44 5.28, -0.68 3.66 C0.08 2.05, -0.19 0.05, -0.09 -0.67" stroke="#FFFFFF" stroke-width="4" fill="none"></path></g></g><mask></mask><g stroke-linecap="round"><g transform="translate(222.47532011841542 190.0039259606482) rotate(0 2.527105990097354 -12.83544895465598)" fill-rule="evenodd"><path d="M0 0 C-0.2 -2.2, -0.78 -8.9, -1.2 -13.18 C-1.63 -17.46, -3.23 -23.59, -2.53 -25.67 C-1.83 -27.75, 1.53 -25.93, 2.98 -25.67 C4.44 -25.41, 5.43 -25.33, 6.2 -24.1 C6.97 -22.87, 7.36 -20.87, 7.58 -18.3 C7.8 -15.73, 7.75 -11.3, 7.54 -8.69 C7.32 -6.08, 7.56 -4.1, 6.3 -2.65 C5.04 -1.2, 1.05 -0.44, 0 0" stroke="none" stroke-width="0" fill="#FFFFFF" fill-rule="evenodd"></path><path d="M0 0 C-0.2 -2.2, -0.78 -8.9, -1.2 -13.18 C-1.63 -17.46, -3.23 -23.59, -2.53 -25.67 C-1.83 -27.75, 1.53 -25.93, 2.98 -25.67 C4.44 -25.41, 5.43 -25.33, 6.2 -24.1 C6.97 -22.87, 7.36 -20.87, 7.58 -18.3 C7.8 -15.73, 7.75 -11.3, 7.54 -8.69 C7.32 -6.08, 7.56 -4.1, 6.3 -2.65 C5.04 -1.2, 1.05 -0.44, 0 0 M0 0 C-0.2 -2.2, -0.78 -8.9, -1.2 -13.18 C-1.63 -17.46, -3.23 -23.59, -2.53 -25.67 C-1.83 -27.75, 1.53 -25.93, 2.98 -25.67 C4.44 -25.41, 5.43 -25.33, 6.2 -24.1 C6.97 -22.87, 7.36 -20.87, 7.58 -18.3 C7.8 -15.73, 7.75 -11.3, 7.54 -8.69 C7.32 -6.08, 7.56 -4.1, 6.3 -2.65 C5.04 -1.2, 1.05 -0.44, 0 0" stroke="#FFFFFF" stroke-width="4" fill="none"></path></g></g><mask></mask><g stroke-linecap="round"><g transform="translate(11.162379676349815 66.81379584168043) rotate(0 11.950063313723433 0)"><path d="M0 0 C3.98 0, 19.92 0, 23.9 0 M0 0 C3.98 0, 19.92 0, 23.9 0" stroke="#ffffff" stroke-width="4" fill="none"></path></g></g><mask></mask><g stroke-linecap="round"><g transform="translate(362.0658836070222 66.86203837429447) rotate(0 -164.45615362391663 0)"><path d="M0 0 C-54.82 0, -274.09 0, -328.91 0 M0 0 C-54.82 0, -274.09 0, -328.91 0" stroke="#ffffff" stroke-width="4" fill="none"></path></g></g><mask></mask><g stroke-linecap="round" transform="translate(142.85902932988586 198.86989051766784) rotate(0 10.518830841459646 10.518830841459646)"><path d="M21.04 10.52 C21.04 11.13, 20.98 11.75, 20.88 12.35 C20.77 12.95, 20.61 13.54, 20.4 14.12 C20.2 14.69, 19.93 15.25, 19.63 15.78 C19.32 16.31, 18.97 16.81, 18.58 17.28 C18.19 17.75, 17.75 18.19, 17.28 18.58 C16.81 18.97, 16.31 19.32, 15.78 19.63 C15.25 19.93, 14.69 20.2, 14.12 20.4 C13.54 20.61, 12.95 20.77, 12.35 20.88 C11.75 20.98, 11.13 21.04, 10.52 21.04 C9.91 21.04, 9.29 20.98, 8.69 20.88 C8.09 20.77, 7.49 20.61, 6.92 20.4 C6.35 20.2, 5.79 19.93, 5.26 19.63 C4.73 19.32, 4.22 18.97, 3.76 18.58 C3.29 18.19, 2.85 17.75, 2.46 17.28 C2.07 16.81, 1.71 16.31, 1.41 15.78 C1.1 15.25, 0.84 14.69, 0.63 14.12 C0.43 13.54, 0.27 12.95, 0.16 12.35 C0.05 11.75, 0 11.13, 0 10.52 C0 9.91, 0.05 9.29, 0.16 8.69 C0.27 8.09, 0.43 7.49, 0.63 6.92 C0.84 6.35, 1.1 5.79, 1.41 5.26 C1.71 4.73, 2.07 4.22, 2.46 3.76 C2.85 3.29, 3.29 2.85, 3.76 2.46 C4.22 2.07, 4.73 1.71, 5.26 1.41 C5.79 1.1, 6.35 0.84, 6.92 0.63 C7.49 0.43, 8.09 0.27, 8.69 0.16 C9.29 0.05, 9.91 0, 10.52 0 C11.13 0, 11.75 0.05, 12.35 0.16 C12.95 0.27, 13.54 0.43, 14.12 0.63 C14.69 0.84, 15.25 1.1, 15.78 1.41 C16.31 1.71, 16.81 2.07, 17.28 2.46 C17.75 2.85, 18.19 3.29, 18.58 3.76 C18.97 4.22, 19.32 4.73, 19.63 5.26 C19.93 5.79, 20.2 6.35, 20.4 6.92 C20.61 7.49, 20.77 8.09, 20.88 8.69 C20.98 9.29, 21.01 10.21, 21.04 10.52 C21.06 10.82, 21.06 10.21, 21.04 10.52" stroke="#b3a2fa" stroke-width="4" fill="none"></path></g><g stroke-linecap="round" transform="translate(132.20790580494815 145.12853216911105) rotate(180 10.518830841459646 10.518830841459646)"><path d="M21.04 10.52 C21.04 11.13, 20.98 11.75, 20.88 12.35 C20.77 12.95, 20.61 13.54, 20.4 14.12 C20.2 14.69, 19.93 15.25, 19.63 15.78 C19.32 16.31, 18.97 16.81, 18.58 17.28 C18.19 17.75, 17.75 18.19, 17.28 18.58 C16.81 18.97, 16.31 19.32, 15.78 19.63 C15.25 19.93, 14.69 20.2, 14.12 20.4 C13.54 20.61, 12.95 20.77, 12.35 20.88 C11.75 20.98, 11.13 21.04, 10.52 21.04 C9.91 21.04, 9.29 20.98, 8.69 20.88 C8.09 20.77, 7.49 20.61, 6.92 20.4 C6.35 20.2, 5.79 19.93, 5.26 19.63 C4.73 19.32, 4.22 18.97, 3.76 18.58 C3.29 18.19, 2.85 17.75, 2.46 17.28 C2.07 16.81, 1.71 16.31, 1.41 15.78 C1.1 15.25, 0.84 14.69, 0.63 14.12 C0.43 13.54, 0.27 12.95, 0.16 12.35 C0.05 11.75, 0 11.13, 0 10.52 C0 9.91, 0.05 9.29, 0.16 8.69 C0.27 8.09, 0.43 7.49, 0.63 6.92 C0.84 6.35, 1.1 5.79, 1.41 5.26 C1.71 4.73, 2.07 4.22, 2.46 3.76 C2.85 3.29, 3.29 2.85, 3.76 2.46 C4.22 2.07, 4.73 1.71, 5.26 1.41 C5.79 1.1, 6.35 0.84, 6.92 0.63 C7.49 0.43, 8.09 0.27, 8.69 0.16 C9.29 0.05, 9.91 0, 10.52 0 C11.13 0, 11.75 0.05, 12.35 0.16 C12.95 0.27, 13.54 0.43, 14.12 0.63 C14.69 0.84, 15.25 1.1, 15.78 1.41 C16.31 1.71, 16.81 2.07, 17.28 2.46 C17.75 2.85, 18.19 3.29, 18.58 3.76 C18.97 4.22, 19.32 4.73, 19.63 5.26 C19.93 5.79, 20.2 6.35, 20.4 6.92 C20.61 7.49, 20.77 8.09, 20.88 8.69 C20.98 9.29, 21.01 10.21, 21.04 10.52 C21.06 10.82, 21.06 10.21, 21.04 10.52" stroke="#b3a2fa" stroke-width="4" fill="none"></path></g><g stroke-linecap="round"><g transform="translate(220.45724512442587 101.22905875894743) rotate(0 58.663763555205605 0)"><path d="M0 0 C26.18 0, 52.37 0, 117.33 0 M0 0 C25.6 0, 51.19 0, 117.33 0" stroke="#E1E1E1" stroke-width="4" fill="none"></path></g></g><mask></mask><g stroke-linecap="round"><g transform="translate(239.15352449715203 121.88403888703864) rotate(0 49.32313422449989 0)"><path d="M0 0 C20.87 0, 41.74 0, 98.65 0 M0 0 C38.63 0, 77.26 0, 98.65 0" stroke="#E1E1E1" stroke-width="4" fill="none"></path></g></g><mask></mask><g stroke-linecap="round"><g transform="translate(255.21892628320404 142.48569548996477) rotate(0 41.236358770742946 0)"><path d="M0 0 C18.74 0, 37.48 0, 82.47 0 M0 0 C31.37 0, 62.73 0, 82.47 0" stroke="#E1E1E1" stroke-width="4" fill="none"></path></g></g><mask></mask><g stroke-linecap="round"><g transform="translate(334.2203574399889 43.23934962396346) rotate(0 -69.4644060256471 0)"><path d="M0 0 C-32.06 0, -64.11 0, -138.93 0 M0 0 C-48.75 0, -97.49 0, -138.93 0" stroke="#E1E1E1" stroke-width="4" fill="none"></path></g></g><mask></mask><g stroke-linecap="round"><g transform="translate(30.941504988464317 295.844969514858) rotate(0 45.858896620203126 0)"><path d="M0 0 C20.02 0, 40.03 0, 91.72 0 M0 0 C33.52 0, 67.04 0, 91.72 0" stroke="#E1E1E1" stroke-width="4" fill="none"></path></g></g><mask></mask><g stroke-linecap="round"><g transform="translate(31.11948653761044 316.754144384396) rotate(0 54.2813248602707 0)"><path d="M0 0 C30.82 0, 61.65 0, 108.56 0 M0 0 C34.7 0, 69.39 0, 108.56 0" stroke="#E1E1E1" stroke-width="4" fill="none"></path></g></g><mask></mask><g stroke-linecap="round"><g transform="translate(31.196122244991898 336.4002171358949) rotate(0 65.2357234946964 0)"><path d="M0 0 C36.86 0, 73.73 0, 130.47 0 M0 0 C36.45 0, 72.9 0, 130.47 0" stroke="#E1E1E1" stroke-width="4" fill="none"></path></g></g><mask></mask><g stroke-linecap="round" transform="translate(87.37065168066863 28.71589634512965) rotate(0 8.445327686219144 8.445327686219148)"><path d="M16.89 8.45 C16.89 8.93, 16.85 9.43, 16.76 9.91 C16.68 10.39, 16.55 10.87, 16.38 11.33 C16.21 11.79, 16 12.24, 15.76 12.67 C15.51 13.09, 15.23 13.5, 14.91 13.87 C14.6 14.25, 14.25 14.6, 13.87 14.91 C13.5 15.23, 13.09 15.51, 12.67 15.76 C12.24 16, 11.79 16.21, 11.33 16.38 C10.87 16.55, 10.39 16.68, 9.91 16.76 C9.43 16.85, 8.93 16.89, 8.45 16.89 C7.96 16.89, 7.46 16.85, 6.98 16.76 C6.5 16.68, 6.02 16.55, 5.56 16.38 C5.1 16.21, 4.65 16, 4.22 15.76 C3.8 15.51, 3.39 15.23, 3.02 14.91 C2.64 14.6, 2.29 14.25, 1.98 13.87 C1.66 13.5, 1.38 13.09, 1.13 12.67 C0.89 12.24, 0.68 11.79, 0.51 11.33 C0.34 10.87, 0.21 10.39, 0.13 9.91 C0.04 9.43, 0 8.93, 0 8.45 C0 7.96, 0.04 7.46, 0.13 6.98 C0.21 6.5, 0.34 6.02, 0.51 5.56 C0.68 5.1, 0.89 4.65, 1.13 4.22 C1.38 3.8, 1.66 3.39, 1.98 3.02 C2.29 2.64, 2.64 2.29, 3.02 1.98 C3.39 1.66, 3.8 1.38, 4.22 1.13 C4.65 0.89, 5.1 0.68, 5.56 0.51 C6.02 0.34, 6.5 0.21, 6.98 0.13 C7.46 0.04, 7.96 0, 8.45 0 C8.93 0, 9.43 0.04, 9.91 0.13 C10.39 0.21, 10.87 0.34, 11.33 0.51 C11.79 0.68, 12.24 0.89, 12.67 1.13 C13.09 1.38, 13.5 1.66, 13.87 1.98 C14.25 2.29, 14.6 2.64, 14.91 3.02 C15.23 3.39, 15.51 3.8, 15.76 4.22 C16 4.65, 16.21 5.1, 16.38 5.56 C16.55 6.02, 16.68 6.5, 16.76 6.98 C16.85 7.46, 16.87 8.2, 16.89 8.45 C16.91 8.69, 16.91 8.2, 16.89 8.45" stroke="none" stroke-width="0" fill="#b3a2fa"></path><path d="M16.89 8.45 C16.89 8.93, 16.85 9.43, 16.76 9.91 C16.68 10.39, 16.55 10.87, 16.38 11.33 C16.21 11.79, 16 12.24, 15.76 12.67 C15.51 13.09, 15.23 13.5, 14.91 13.87 C14.6 14.25, 14.25 14.6, 13.87 14.91 C13.5 15.23, 13.09 15.51, 12.67 15.76 C12.24 16, 11.79 16.21, 11.33 16.38 C10.87 16.55, 10.39 16.68, 9.91 16.76 C9.43 16.85, 8.93 16.89, 8.45 16.89 C7.96 16.89, 7.46 16.85, 6.98 16.76 C6.5 16.68, 6.02 16.55, 5.56 16.38 C5.1 16.21, 4.65 16, 4.22 15.76 C3.8 15.51, 3.39 15.23, 3.02 14.91 C2.64 14.6, 2.29 14.25, 1.98 13.87 C1.66 13.5, 1.38 13.09, 1.13 12.67 C0.89 12.24, 0.68 11.79, 0.51 11.33 C0.34 10.87, 0.21 10.39, 0.13 9.91 C0.04 9.43, 0 8.93, 0 8.45 C0 7.96, 0.04 7.46, 0.13 6.98 C0.21 6.5, 0.34 6.02, 0.51 5.56 C0.68 5.1, 0.89 4.65, 1.13 4.22 C1.38 3.8, 1.66 3.39, 1.98 3.02 C2.29 2.64, 2.64 2.29, 3.02 1.98 C3.39 1.66, 3.8 1.38, 4.22 1.13 C4.65 0.89, 5.1 0.68, 5.56 0.51 C6.02 0.34, 6.5 0.21, 6.98 0.13 C7.46 0.04, 7.96 0, 8.45 0 C8.93 0, 9.43 0.04, 9.91 0.13 C10.39 0.21, 10.87 0.34, 11.33 0.51 C11.79 0.68, 12.24 0.89, 12.67 1.13 C13.09 1.38, 13.5 1.66, 13.87 1.98 C14.25 2.29, 14.6 2.64, 14.91 3.02 C15.23 3.39, 15.51 3.8, 15.76 4.22 C16 4.65, 16.21 5.1, 16.38 5.56 C16.55 6.02, 16.68 6.5, 16.76 6.98 C16.85 7.46, 16.87 8.2, 16.89 8.45 C16.91 8.69, 16.91 8.2, 16.89 8.45" stroke="#b3a2fa" stroke-width="4" fill="none"></path></g><g stroke-linecap="round" transform="translate(57.840216772055896 28.653022780308802) rotate(0 8.445327686219144 8.445327686219148)"><path d="M16.89 8.45 C16.89 8.93, 16.85 9.43, 16.76 9.91 C16.68 10.39, 16.55 10.87, 16.38 11.33 C16.21 11.79, 16 12.24, 15.76 12.67 C15.51 13.09, 15.23 13.5, 14.91 13.87 C14.6 14.25, 14.25 14.6, 13.87 14.91 C13.5 15.23, 13.09 15.51, 12.67 15.76 C12.24 16, 11.79 16.21, 11.33 16.38 C10.87 16.55, 10.39 16.68, 9.91 16.76 C9.43 16.85, 8.93 16.89, 8.45 16.89 C7.96 16.89, 7.46 16.85, 6.98 16.76 C6.5 16.68, 6.02 16.55, 5.56 16.38 C5.1 16.21, 4.65 16, 4.22 15.76 C3.8 15.51, 3.39 15.23, 3.02 14.91 C2.64 14.6, 2.29 14.25, 1.98 13.87 C1.66 13.5, 1.38 13.09, 1.13 12.67 C0.89 12.24, 0.68 11.79, 0.51 11.33 C0.34 10.87, 0.21 10.39, 0.13 9.91 C0.04 9.43, 0 8.93, 0 8.45 C0 7.96, 0.04 7.46, 0.13 6.98 C0.21 6.5, 0.34 6.02, 0.51 5.56 C0.68 5.1, 0.89 4.65, 1.13 4.22 C1.38 3.8, 1.66 3.39, 1.98 3.02 C2.29 2.64, 2.64 2.29, 3.02 1.98 C3.39 1.66, 3.8 1.38, 4.22 1.13 C4.65 0.89, 5.1 0.68, 5.56 0.51 C6.02 0.34, 6.5 0.21, 6.98 0.13 C7.46 0.04, 7.96 0, 8.45 0 C8.93 0, 9.43 0.04, 9.91 0.13 C10.39 0.21, 10.87 0.34, 11.33 0.51 C11.79 0.68, 12.24 0.89, 12.67 1.13 C13.09 1.38, 13.5 1.66, 13.87 1.98 C14.25 2.29, 14.6 2.64, 14.91 3.02 C15.23 3.39, 15.51 3.8, 15.76 4.22 C16 4.65, 16.21 5.1, 16.38 5.56 C16.55 6.02, 16.68 6.5, 16.76 6.98 C16.85 7.46, 16.87 8.2, 16.89 8.45 C16.91 8.69, 16.91 8.2, 16.89 8.45" stroke="none" stroke-width="0" fill="#9e75ed"></path><path d="M16.89 8.45 C16.89 8.93, 16.85 9.43, 16.76 9.91 C16.68 10.39, 16.55 10.87, 16.38 11.33 C16.21 11.79, 16 12.24, 15.76 12.67 C15.51 13.09, 15.23 13.5, 14.91 13.87 C14.6 14.25, 14.25 14.6, 13.87 14.91 C13.5 15.23, 13.09 15.51, 12.67 15.76 C12.24 16, 11.79 16.21, 11.33 16.38 C10.87 16.55, 10.39 16.68, 9.91 16.76 C9.43 16.85, 8.93 16.89, 8.45 16.89 C7.96 16.89, 7.46 16.85, 6.98 16.76 C6.5 16.68, 6.02 16.55, 5.56 16.38 C5.1 16.21, 4.65 16, 4.22 15.76 C3.8 15.51, 3.39 15.23, 3.02 14.91 C2.64 14.6, 2.29 14.25, 1.98 13.87 C1.66 13.5, 1.38 13.09, 1.13 12.67 C0.89 12.24, 0.68 11.79, 0.51 11.33 C0.34 10.87, 0.21 10.39, 0.13 9.91 C0.04 9.43, 0 8.93, 0 8.45 C0 7.96, 0.04 7.46, 0.13 6.98 C0.21 6.5, 0.34 6.02, 0.51 5.56 C0.68 5.1, 0.89 4.65, 1.13 4.22 C1.38 3.8, 1.66 3.39, 1.98 3.02 C2.29 2.64, 2.64 2.29, 3.02 1.98 C3.39 1.66, 3.8 1.38, 4.22 1.13 C4.65 0.89, 5.1 0.68, 5.56 0.51 C6.02 0.34, 6.5 0.21, 6.98 0.13 C7.46 0.04, 7.96 0, 8.45 0 C8.93 0, 9.43 0.04, 9.91 0.13 C10.39 0.21, 10.87 0.34, 11.33 0.51 C11.79 0.68, 12.24 0.89, 12.67 1.13 C13.09 1.38, 13.5 1.66, 13.87 1.98 C14.25 2.29, 14.6 2.64, 14.91 3.02 C15.23 3.39, 15.51 3.8, 15.76 4.22 C16 4.65, 16.21 5.1, 16.38 5.56 C16.55 6.02, 16.68 6.5, 16.76 6.98 C16.85 7.46, 16.87 8.2, 16.89 8.45 C16.91 8.69, 16.91 8.2, 16.89 8.45" stroke="#9e75ed" stroke-width="4" fill="none"></path></g><g stroke-linecap="round" transform="translate(28.58088159440706 28.461090055358582) rotate(0 8.445327686219144 8.445327686219148)"><path d="M16.89 8.45 C16.89 8.93, 16.85 9.43, 16.76 9.91 C16.68 10.39, 16.55 10.87, 16.38 11.33 C16.21 11.79, 16 12.24, 15.76 12.67 C15.51 13.09, 15.23 13.5, 14.91 13.87 C14.6 14.25, 14.25 14.6, 13.87 14.91 C13.5 15.23, 13.09 15.51, 12.67 15.76 C12.24 16, 11.79 16.21, 11.33 16.38 C10.87 16.55, 10.39 16.68, 9.91 16.76 C9.43 16.85, 8.93 16.89, 8.45 16.89 C7.96 16.89, 7.46 16.85, 6.98 16.76 C6.5 16.68, 6.02 16.55, 5.56 16.38 C5.1 16.21, 4.65 16, 4.22 15.76 C3.8 15.51, 3.39 15.23, 3.02 14.91 C2.64 14.6, 2.29 14.25, 1.98 13.87 C1.66 13.5, 1.38 13.09, 1.13 12.67 C0.89 12.24, 0.68 11.79, 0.51 11.33 C0.34 10.87, 0.21 10.39, 0.13 9.91 C0.04 9.43, 0 8.93, 0 8.45 C0 7.96, 0.04 7.46, 0.13 6.98 C0.21 6.5, 0.34 6.02, 0.51 5.56 C0.68 5.1, 0.89 4.65, 1.13 4.22 C1.38 3.8, 1.66 3.39, 1.98 3.02 C2.29 2.64, 2.64 2.29, 3.02 1.98 C3.39 1.66, 3.8 1.38, 4.22 1.13 C4.65 0.89, 5.1 0.68, 5.56 0.51 C6.02 0.34, 6.5 0.21, 6.98 0.13 C7.46 0.04, 7.96 0, 8.45 0 C8.93 0, 9.43 0.04, 9.91 0.13 C10.39 0.21, 10.87 0.34, 11.33 0.51 C11.79 0.68, 12.24 0.89, 12.67 1.13 C13.09 1.38, 13.5 1.66, 13.87 1.98 C14.25 2.29, 14.6 2.64, 14.91 3.02 C15.23 3.39, 15.51 3.8, 15.76 4.22 C16 4.65, 16.21 5.1, 16.38 5.56 C16.55 6.02, 16.68 6.5, 16.76 6.98 C16.85 7.46, 16.87 8.2, 16.89 8.45 C16.91 8.69, 16.91 8.2, 16.89 8.45" stroke="none" stroke-width="0" fill="#5e34b0"></path><path d="M16.89 8.45 C16.89 8.93, 16.85 9.43, 16.76 9.91 C16.68 10.39, 16.55 10.87, 16.38 11.33 C16.21 11.79, 16 12.24, 15.76 12.67 C15.51 13.09, 15.23 13.5, 14.91 13.87 C14.6 14.25, 14.25 14.6, 13.87 14.91 C13.5 15.23, 13.09 15.51, 12.67 15.76 C12.24 16, 11.79 16.21, 11.33 16.38 C10.87 16.55, 10.39 16.68, 9.91 16.76 C9.43 16.85, 8.93 16.89, 8.45 16.89 C7.96 16.89, 7.46 16.85, 6.98 16.76 C6.5 16.68, 6.02 16.55, 5.56 16.38 C5.1 16.21, 4.65 16, 4.22 15.76 C3.8 15.51, 3.39 15.23, 3.02 14.91 C2.64 14.6, 2.29 14.25, 1.98 13.87 C1.66 13.5, 1.38 13.09, 1.13 12.67 C0.89 12.24, 0.68 11.79, 0.51 11.33 C0.34 10.87, 0.21 10.39, 0.13 9.91 C0.04 9.43, 0 8.93, 0 8.45 C0 7.96, 0.04 7.46, 0.13 6.98 C0.21 6.5, 0.34 6.02, 0.51 5.56 C0.68 5.1, 0.89 4.65, 1.13 4.22 C1.38 3.8, 1.66 3.39, 1.98 3.02 C2.29 2.64, 2.64 2.29, 3.02 1.98 C3.39 1.66, 3.8 1.38, 4.22 1.13 C4.65 0.89, 5.1 0.68, 5.56 0.51 C6.02 0.34, 6.5 0.21, 6.98 0.13 C7.46 0.04, 7.96 0, 8.45 0 C8.93 0, 9.43 0.04, 9.91 0.13 C10.39 0.21, 10.87 0.34, 11.33 0.51 C11.79 0.68, 12.24 0.89, 12.67 1.13 C13.09 1.38, 13.5 1.66, 13.87 1.98 C14.25 2.29, 14.6 2.64, 14.91 3.02 C15.23 3.39, 15.51 3.8, 15.76 4.22 C16 4.65, 16.21 5.1, 16.38 5.56 C16.55 6.02, 16.68 6.5, 16.76 6.98 C16.85 7.46, 16.87 8.2, 16.89 8.45 C16.91 8.69, 16.91 8.2, 16.89 8.45" stroke="#5e34b0" stroke-width="4" fill="none"></path></g></svg>