<svg version="1.1" xmlns="http://www.w3.org/2000/svg" viewBox="0 0 645.9126409346504 1035.5424134367665" width="645.9126409346504" height="1035.5424134367665" class="excalidraw-svg"><!-- svg-source:excalidraw --><metadata></metadata><defs><style class="style-fonts">
      </style></defs><rect x="0" y="0" width="645.9126409346504" height="1035.5424134367665" fill="#000000"></rect><g stroke-linecap="round"><g transform="translate(184.81158232457733 100.1701373790612) rotate(0 -47.15358827353532 104.13606612403427)" fill-rule="evenodd"><path d="M0 0 L37.7 178.75 L-132.01 208.27 L-131.57 68.91 L0 0" stroke="none" stroke-width="0" fill="#E1E1E1" fill-rule="evenodd"></path><path d="M0 0 C14.19 67.28, 28.39 134.57, 37.7 178.75 M0 0 C13.89 65.86, 27.79 131.73, 37.7 178.75 M37.7 178.75 C-20.05 188.79, -77.8 198.84, -132.01 208.27 M37.7 178.75 C-9.22 186.91, -56.14 195.07, -132.01 208.27 M-132.01 208.27 C-131.89 168.92, -131.76 129.56, -131.57 68.91 M-132.01 208.27 C-131.85 157.07, -131.69 105.88, -131.57 68.91 M-131.57 68.91 C-93.55 49, -55.52 29.08, 0 0 M-131.57 68.91 C-105.22 55.11, -78.86 41.31, 0 0 M0 0 C0 0, 0 0, 0 0 M0 0 C0 0, 0 0, 0 0" stroke="#E1E1E1" stroke-width="4" fill="none"></path></g></g><mask></mask><g stroke-linecap="round"><g transform="translate(31.962159963837394 206.89856308112496) rotate(0 -10.140451268099469 60.85054563856215)"><path d="M0 0 C-0.77 40.67, -1.55 81.34, -2.13 111.71 M0 0 C-0.6 31.53, -1.2 63.05, -2.13 111.71 M-2.13 111.71 C-7.98 114.93, -13.82 118.15, -20.28 121.7 M-2.13 111.71 C-6.55 114.15, -10.98 116.58, -20.28 121.7 M-20.28 121.7 C-20.03 98.49, -19.77 75.28, -19.47 46.97 M-20.28 121.7 C-20.05 100.9, -19.83 80.09, -19.47 46.97 M-19.47 46.97 C-14.48 34.94, -9.49 22.91, 0 0 M-19.47 46.97 C-14.51 35.01, -9.56 23.06, 0 0" stroke="#E1E1E1" stroke-width="4" fill="none"></path></g></g><mask></mask><g stroke-linecap="round"><g transform="translate(32.86353340989069 339.25153708160644) rotate(0 -11.431766704945346 97.13278634969889)" fill-rule="evenodd"><path d="M0 0 L-8.71 84.69 L-0.99 194.27 L-22.86 164.29 L-20.93 8.83 L0 0" stroke="none" stroke-width="0" fill="#E1E1E1" fill-rule="evenodd"></path><path d="M0 0 C-2.84 27.63, -5.68 55.25, -8.71 84.69 M0 0 C-3.1 30.09, -6.19 60.17, -8.71 84.69 M-8.71 84.69 C-6.73 112.84, -4.74 141, -0.99 194.27 M-8.71 84.69 C-5.91 124.39, -3.11 164.09, -0.99 194.27 M-0.99 194.27 C-5.46 188.14, -9.93 182.01, -22.86 164.29 M-0.99 194.27 C-6.42 186.83, -11.85 179.39, -22.86 164.29 M-22.86 164.29 C-22.41 127.59, -21.95 90.88, -20.93 8.83 M-22.86 164.29 C-22.3 119.1, -21.74 73.92, -20.93 8.83 M-20.93 8.83 C-16.66 7.03, -12.39 5.23, 0 0 M-20.93 8.83 C-16.05 6.77, -11.16 4.71, 0 0 M0 0 C0 0, 0 0, 0 0 M0 0 C0 0, 0 0, 0 0" stroke="#E1E1E1" stroke-width="4" fill="none"></path></g></g><mask></mask><g stroke-linecap="round"><g transform="translate(48.1124207081225 341.81457288038393) rotate(0 17.682595602575844 95.90221564508686)"><path d="M0 0 C-2.59 31.1, -5.17 62.21, -7.72 92.78 M0 0 C-2.57 30.85, -5.13 61.7, -7.72 92.78 M-7.72 92.78 C-5.27 123.25, -2.82 153.71, 0.24 191.8 M-7.72 92.78 C-5.84 116.18, -3.96 139.57, 0.24 191.8 M0.24 191.8 C13.84 162.98, 27.45 134.15, 43.08 101.04 M0.24 191.8 C10.53 170, 20.82 148.19, 43.08 101.04 M43.08 101.04 C39.72 97.38, 36.37 93.71, 30.79 87.63 M43.08 101.04 C39.01 96.59, 34.93 92.15, 30.79 87.63 M30.79 87.63 C28.06 81.29, 25.34 74.94, 23.36 70.34 M30.79 87.63 C28.83 83.08, 26.88 78.53, 23.36 70.34 M23.36 70.34 C30.26 57.55, 37.16 44.75, 41.73 36.28 M23.36 70.34 C28.02 61.7, 32.68 53.06, 41.73 36.28 M41.73 36.28 C26.68 23.2, 11.64 10.12, 0 0 M41.73 36.28 C29.76 25.88, 17.79 15.47, 0 0" stroke="#E1E1E1" stroke-width="4" fill="none"></path></g></g><mask></mask><g stroke-linecap="round"><g transform="translate(109.07269876620433 449.45456229229524) rotate(0 30.776024660245383 54.36849485694415)" fill-rule="evenodd"><path d="M0 0 L66.16 0.69 L113.3 108.74 L-51.75 108.74 L0 0" stroke="none" stroke-width="0" fill="#E1E1E1" fill-rule="evenodd"></path><path d="M0 0 C23.01 0.24, 46.03 0.48, 66.16 0.69 M0 0 C21.46 0.22, 42.92 0.44, 66.16 0.69 M66.16 0.69 C76.61 24.63, 87.06 48.58, 113.3 108.74 M66.16 0.69 C81.98 36.94, 97.79 73.19, 113.3 108.74 M113.3 108.74 C65.75 108.74, 18.19 108.74, -51.75 108.74 M113.3 108.74 C49.94 108.74, -13.42 108.74, -51.75 108.74 M-51.75 108.74 C-31.25 65.67, -10.76 22.6, 0 0 M-51.75 108.74 C-37.98 79.81, -24.21 50.88, 0 0 M0 0 C0 0, 0 0, 0 0 M0 0 C0 0, 0 0, 0 0" stroke="#E1E1E1" stroke-width="4" fill="none"></path></g></g><mask></mask><g stroke-linecap="round"><g transform="translate(52.49779847392074 578.1350953606353) rotate(0 84.46848943264987 100.99105660030457)" fill-rule="evenodd"><path d="M0 0 L39.16 167.67 L114.42 201.98 L168.94 1.71 L0 0" stroke="none" stroke-width="0" fill="#E1E1E1" fill-rule="evenodd"></path><path d="M0 0 C11.95 51.17, 23.9 102.33, 39.16 167.67 M0 0 C12.02 51.46, 24.04 102.91, 39.16 167.67 M39.16 167.67 C56.52 175.58, 73.87 183.49, 114.42 201.98 M39.16 167.67 C61.4 177.81, 83.63 187.94, 114.42 201.98 M114.42 201.98 C132.86 134.23, 151.3 66.48, 168.94 1.71 M114.42 201.98 C129.35 147.13, 144.28 92.29, 168.94 1.71 M168.94 1.71 C115.28 1.17, 61.63 0.62, 0 0 M168.94 1.71 C110.13 1.11, 51.33 0.52, 0 0 M0 0 C0 0, 0 0, 0 0 M0 0 C0 0, 0 0, 0 0" stroke="#E1E1E1" stroke-width="4" fill="none"></path></g></g><mask></mask><g stroke-linecap="round"><g transform="translate(221.8462739124186 649.0339954152033) rotate(0 -0.019595074914178667 61.44623591595458)"><path d="M0 0 C1.95 5.48, 3.9 10.96, 8.39 23.56 M0 0 C1.86 5.23, 3.72 10.45, 8.39 23.56 M8.39 23.56 C16.25 26.09, 24.11 28.63, 30.81 30.79 M8.39 23.56 C13.26 25.13, 18.13 26.7, 30.81 30.79 M30.81 30.79 C22.44 56.95, 14.08 83.12, 8.5 100.58 M30.81 30.79 C24.77 49.68, 18.73 68.57, 8.5 100.58 M8.5 100.58 C-4.69 108.06, -17.88 115.54, -30.85 122.89 M8.5 100.58 C-3.21 107.22, -14.92 113.86, -30.85 122.89 M-30.85 122.89 C-23.25 92.65, -15.66 62.4, 0 0 M-30.85 122.89 C-22.24 88.62, -13.64 54.34, 0 0" stroke="#E1E1E1" stroke-width="4" fill="none"></path></g></g><mask></mask><g stroke-linecap="round"><g transform="translate(230.89527950779717 534.6144339761969) rotate(0 -6.895506862307613 -60.21174619635872)"><path d="M0 0 C7.25 -40.98, 14.51 -81.95, 21.32 -120.42 M0 0 C5.89 -33.29, 11.79 -66.59, 21.32 -120.42 M21.32 -120.42 C16.54 -118.55, 11.76 -116.67, 4.39 -113.78 M21.32 -120.42 C15.1 -117.98, 8.88 -115.54, 4.39 -113.78 M4.39 -113.78 C-7.02 -107.45, -18.44 -101.12, -35.11 -91.88 M4.39 -113.78 C-3.52 -109.39, -11.43 -105.01, -35.11 -91.88 M-35.11 -91.88 C-27.01 -70.68, -18.91 -49.49, 0 0 M-35.11 -91.88 C-21.07 -55.13, -7.03 -18.39, 0 0" stroke="#E1E1E1" stroke-width="4" fill="none"></path></g></g><mask></mask><g stroke-linecap="round"><g transform="translate(60.54353623369229 329.33591905482456) rotate(0 77.61805124264495 3.993476267514154)" fill-rule="evenodd"><path d="M0 0 L42.92 36.18 L119.11 28.72 L155.24 -28.2 L0 0" stroke="none" stroke-width="0" fill="#E1E1E1" fill-rule="evenodd"></path><path d="M0 0 C13.83 11.66, 27.66 23.31, 42.92 36.18 M0 0 C10.46 8.82, 20.93 17.64, 42.92 36.18 M42.92 36.18 C66.58 33.87, 90.24 31.55, 119.11 28.72 M42.92 36.18 C64.13 34.11, 85.34 32.03, 119.11 28.72 M119.11 28.72 C128.36 14.14, 137.62 -0.43, 155.24 -28.2 M119.11 28.72 C128.31 14.23, 137.5 -0.25, 155.24 -28.2 M155.24 -28.2 C97.79 -17.76, 40.34 -7.33, 0 0 M155.24 -28.2 C123.21 -22.38, 91.19 -16.56, 0 0 M0 0 C0 0, 0 0, 0 0 M0 0 C0 0, 0 0, 0 0" stroke="#E1E1E1" stroke-width="4" fill="none"></path></g></g><mask></mask><g stroke-linecap="round"><g transform="translate(237.51449581381473 304.1528388952894) rotate(0 5.108436030132367 45.6310509527018)"><path d="M0 0 C11.94 11.39, 23.88 22.79, 46.47 44.34 M0 0 C16.84 16.06, 33.67 32.13, 46.47 44.34 M46.47 44.34 C40.99 53.77, 35.52 63.21, 19.68 90.49 M46.47 44.34 C39.82 55.79, 33.17 67.24, 19.68 90.49 M19.68 90.49 C14.85 90.67, 10.02 90.85, -0.77 91.26 M19.68 90.49 C13.74 90.71, 7.79 90.94, -0.77 91.26 M-0.77 91.26 C-8 85.2, -15.24 79.13, -36.25 61.51 M-0.77 91.26 C-9.05 84.32, -17.33 77.38, -36.25 61.51 M-36.25 61.51 C-27.41 46.51, -18.57 31.51, 0 0 M-36.25 61.51 C-22.29 37.82, -8.33 14.13, 0 0" stroke="#E1E1E1" stroke-width="4" fill="none"></path></g></g><mask></mask><g stroke-linecap="round"><g transform="translate(165.13812711071603 800.0179666441046) rotate(0 -32.269169368707594 30.805417272616978)"><path d="M0 0 C-1.36 27.72, -2.73 55.44, -4.44 90.11 M0 0 C-1.05 21.29, -2.1 42.58, -4.44 90.11 M-4.44 90.11 C-23.53 52.44, -42.62 14.77, -64.54 -28.5 M-4.44 90.11 C-18.88 61.61, -33.32 33.12, -64.54 -28.5 M-64.54 -28.5 C-46.91 -20.71, -29.27 -12.92, 0 0 M-64.54 -28.5 C-43.13 -19.04, -21.73 -9.59, 0 0" stroke="#E1E1E1" stroke-width="4" fill="none"></path></g></g><mask></mask><g stroke-linecap="round"><g transform="translate(87.18891910202137 780.3993776400067) rotate(0 22.387373089475517 77.42993852346906)" fill-rule="evenodd"><path d="M0 0 L66.42 141.82 L45.79 154.86 L-21.65 70.22 L0 0" stroke="none" stroke-width="0" fill="#E1E1E1" fill-rule="evenodd"></path><path d="M0 0 C14.72 31.43, 29.44 62.86, 66.42 141.82 M0 0 C22.29 47.58, 44.57 95.17, 66.42 141.82 M66.42 141.82 C60.48 145.58, 54.53 149.33, 45.79 154.86 M66.42 141.82 C58.5 146.83, 50.58 151.83, 45.79 154.86 M45.79 154.86 C19.08 121.34, -7.63 87.82, -21.65 70.22 M45.79 154.86 C27.84 132.34, 9.9 109.82, -21.65 70.22 M-21.65 70.22 C-13.45 43.64, -5.26 17.06, 0 0 M-21.65 70.22 C-16.36 53.07, -11.07 35.92, 0 0 M0 0 C0 0, 0 0, 0 0 M0 0 C0 0, 0 0, 0 0" stroke="#E1E1E1" stroke-width="4" fill="none"></path></g></g><mask></mask><g stroke-linecap="round"><g transform="translate(59.434454993545614 807.663964875631) rotate(0 -13.450059421108165 -127.58157325887639)"><path d="M0 0 C-9.15 -58.84, -18.31 -117.68, -39.7 -255.16 M0 0 C-11.73 -75.39, -23.46 -150.78, -39.7 -255.16 M-39.7 -255.16 C-34.62 -248.08, -29.54 -241, -24.69 -234.23 M-39.7 -255.16 C-35.59 -249.43, -31.48 -243.7, -24.69 -234.23 M-24.69 -234.23 C-12.78 -178.43, -0.88 -122.63, 12.8 -58.55 M-24.69 -234.23 C-11.64 -173.07, 1.41 -111.92, 12.8 -58.55 M12.8 -58.55 C8.42 -38.51, 4.04 -18.47, 0 0 M12.8 -58.55 C7.81 -35.73, 2.82 -12.91, 0 0" stroke="#E1E1E1" stroke-width="4" fill="none"></path></g></g><mask></mask><g stroke-linecap="round"><g transform="translate(181.65026009935218 821.0970065602788) rotate(0 24.489962208500813 68.17962719886191)"><path d="M0 0 C18.77 22.78, 37.55 45.56, 53.53 64.96 M0 0 C11.63 14.11, 23.25 28.22, 53.53 64.96 M53.53 64.96 C51.75 91.73, 49.97 118.49, 48.78 136.36 M53.53 64.96 C52.24 84.28, 50.96 103.61, 48.78 136.36 M48.78 136.36 C30.9 124.26, 13.02 112.15, -4.55 100.25 M48.78 136.36 C32.91 125.62, 17.04 114.87, -4.55 100.25 M-4.55 100.25 C-3.43 75.58, -2.31 50.91, 0 0 M-4.55 100.25 C-3.28 72.29, -2.01 44.33, 0 0" stroke="#E1E1E1" stroke-width="4" fill="none"></path></g></g><mask></mask><g stroke-linecap="round"><g transform="translate(167.91626791334465 938.6748523543966) rotate(0 23.671964704359596 38.767736826238945)" fill-rule="evenodd"><path d="M0 0 L59.26 41.18 L63.21 77.54 L-15.87 10.73 L0 0" stroke="none" stroke-width="0" fill="#E1E1E1" fill-rule="evenodd"></path><path d="M0 0 C16.73 11.63, 33.47 23.26, 59.26 41.18 M0 0 C21.77 15.13, 43.54 30.26, 59.26 41.18 M59.26 41.18 C60.4 51.69, 61.55 62.19, 63.21 77.54 M59.26 41.18 C60.05 48.46, 60.84 55.74, 63.21 77.54 M63.21 77.54 C44.97 62.12, 26.73 46.71, -15.87 10.73 M63.21 77.54 C31.59 50.82, -0.04 24.1, -15.87 10.73 M-15.87 10.73 C-11.7 7.91, -7.54 5.1, 0 0 M-15.87 10.73 C-10.21 6.9, -4.55 3.08, 0 0 M0 0 C0 0, 0 0, 0 0 M0 0 C0 0, 0 0, 0 0" stroke="#E1E1E1" stroke-width="4" fill="none"></path></g></g><mask></mask><g stroke-linecap="round"><g transform="translate(275.81799725102417 586.66918264144) rotate(0 -15.332273530975883 -92.3720574746344)"><path d="M0 0 C3.51 -62.72, 7.02 -125.45, 11.3 -201.97 M0 0 C3.15 -56.23, 6.29 -112.45, 11.3 -201.97 M11.3 -201.97 C6.78 -195.27, 2.27 -188.58, -6.33 -175.83 M11.3 -201.97 C6.81 -195.31, 2.32 -188.66, -6.33 -175.83 M-6.33 -175.83 C-19.52 -104.38, -32.7 -32.94, -41.96 17.22 M-6.33 -175.83 C-13.68 -136, -21.03 -96.18, -41.96 17.22 M-41.96 17.22 C-31.56 12.95, -21.15 8.68, 0 0 M-41.96 17.22 C-32.17 13.21, -22.38 9.19, 0 0" stroke="#E1E1E1" stroke-width="4" fill="none"></path></g></g><mask></mask><g stroke-linecap="round"><g transform="translate(231.1039437387052 625.6973710689555) rotate(0 23.952468312666554 6.72490642009128)" fill-rule="evenodd"><path d="M0 0 L11.06 30.39 L47.9 23.08 L42.99 -16.94 L0 0" stroke="none" stroke-width="0" fill="#E1E1E1" fill-rule="evenodd"></path><path d="M0 0 C2.26 6.21, 4.52 12.42, 11.06 30.39 M0 0 C2.74 7.54, 5.49 15.08, 11.06 30.39 M11.06 30.39 C19.76 28.66, 28.46 26.94, 47.9 23.08 M11.06 30.39 C21.77 28.26, 32.48 26.14, 47.9 23.08 M47.9 23.08 C46.9 14.92, 45.9 6.76, 42.99 -16.94 M47.9 23.08 C46.76 13.74, 45.61 4.41, 42.99 -16.94 M42.99 -16.94 C32.5 -12.81, 22.02 -8.68, 0 0 M42.99 -16.94 C26.43 -10.42, 9.88 -3.89, 0 0 M0 0 C0 0, 0 0, 0 0 M0 0 C0 0, 0 0, 0 0" stroke="#E1E1E1" stroke-width="4" fill="none"></path></g></g><mask></mask><g stroke-linecap="round"><g transform="translate(271.5431759548955 669.757213370168) rotate(0 6.845165833898335 1.1272315720849306)"><path d="M0 0 C4.35 0.72, 8.7 1.43, 13.69 2.25 M0 0 C3.29 0.54, 6.58 1.08, 13.69 2.25" stroke="#E1E1E1" stroke-width="4" fill="none"></path></g></g><mask></mask><g stroke-linecap="round"><g transform="translate(461.10609149536685 99.52716690228328) rotate(0 47.15223070558797 104.1330680110442)" fill-rule="evenodd"><path d="M0 0 L-37.7 178.74 L132.01 208.27 L131.57 68.91 L0 0" stroke="none" stroke-width="0" fill="#E1E1E1" fill-rule="evenodd"></path><path d="M0 0 C-10.86 51.5, -21.73 103, -37.7 178.74 M0 0 C-14.47 68.62, -28.95 137.23, -37.7 178.74 M-37.7 178.74 C29.51 190.43, 96.73 202.13, 132.01 208.27 M-37.7 178.74 C7.45 186.6, 52.6 194.45, 132.01 208.27 M132.01 208.27 C131.84 155.52, 131.67 102.76, 131.57 68.91 M132.01 208.27 C131.9 174.23, 131.79 140.19, 131.57 68.91 M131.57 68.91 C85.12 44.58, 38.67 20.25, 0 0 M131.57 68.91 C86.01 45.05, 40.45 21.19, 0 0 M0 0 C0 0, 0 0, 0 0 M0 0 C0 0, 0 0, 0 0" stroke="#E1E1E1" stroke-width="4" fill="none"></path></g></g><mask></mask><g stroke-linecap="round"><g transform="translate(613.9511132689162 206.25251438221596) rotate(0 10.140159321036336 60.84879373052371)"><path d="M0 0 C0.72 37.79, 1.44 75.58, 2.13 111.71 M0 0 C0.58 30.59, 1.17 61.19, 2.13 111.71 M2.13 111.71 C7.89 114.88, 13.66 118.05, 20.28 121.7 M2.13 111.71 C8.45 115.19, 14.77 118.66, 20.28 121.7 M20.28 121.7 C20 96.12, 19.72 70.54, 19.47 46.96 M20.28 121.7 C19.96 92.57, 19.64 63.45, 19.47 46.96 M19.47 46.96 C12.26 29.57, 5.05 12.18, 0 0 M19.47 46.96 C12.93 31.19, 6.39 15.41, 0 0" stroke="#E1E1E1" stroke-width="4" fill="none"></path></g></g><mask></mask><g stroke-linecap="round"><g transform="translate(613.0497657737129 338.79795253763143) rotate(0 11.431437580468753 97.12998986353078)" fill-rule="evenodd"><path d="M0 0 L8.71 84.68 L0.99 194.26 L22.86 164.29 L20.93 8.83 L0 0" stroke="none" stroke-width="0" fill="#E1E1E1" fill-rule="evenodd"></path><path d="M0 0 C3.27 31.75, 6.53 63.49, 8.71 84.68 M0 0 C2.36 22.92, 4.72 45.84, 8.71 84.68 M8.71 84.68 C6.12 121.42, 3.53 158.15, 0.99 194.26 M8.71 84.68 C6.41 117.29, 4.11 149.9, 0.99 194.26 M0.99 194.26 C6.37 186.88, 11.76 179.51, 22.86 164.29 M0.99 194.26 C7.09 185.9, 13.19 177.54, 22.86 164.29 M22.86 164.29 C22.46 132.23, 22.06 100.16, 20.93 8.83 M22.86 164.29 C22.16 108.13, 21.46 51.98, 20.93 8.83 M20.93 8.83 C14.68 6.19, 8.42 3.55, 0 0 M20.93 8.83 C13.46 5.68, 6 2.53, 0 0 M0 0 C0 0, 0 0, 0 0 M0 0 C0 0, 0 0, 0 0" stroke="#E1E1E1" stroke-width="4" fill="none"></path></g></g><mask></mask><g stroke-linecap="round"><g transform="translate(597.8013174961658 341.1646399033681) rotate(0 -17.682086514595596 95.89945458747056)"><path d="M0 0 C2.23 26.81, 4.46 53.62, 7.72 92.78 M0 0 C1.55 18.58, 3.09 37.17, 7.72 92.78 M7.72 92.78 C5.88 115.62, 4.05 138.46, -0.24 191.8 M7.72 92.78 C4.54 132.38, 1.36 171.98, -0.24 191.8 M-0.24 191.8 C-11.48 167.98, -22.72 144.16, -43.08 101.04 M-0.24 191.8 C-15.51 159.43, -30.79 127.07, -43.08 101.04 M-43.08 101.04 C-39.1 96.7, -35.13 92.36, -30.79 87.63 M-43.08 101.04 C-39.07 96.66, -35.06 92.29, -30.79 87.63 M-30.79 87.63 C-29.02 83.51, -27.25 79.4, -23.36 70.34 M-30.79 87.63 C-28.33 81.91, -25.88 76.2, -23.36 70.34 M-23.36 70.34 C-27.28 63.06, -31.2 55.79, -41.72 36.28 M-23.36 70.34 C-28.07 61.6, -32.78 52.86, -41.72 36.28 M-41.72 36.28 C-27.41 23.84, -13.1 11.39, 0 0 M-41.72 36.28 C-26.82 23.32, -11.91 10.35, 0 0" stroke="#E1E1E1" stroke-width="4" fill="none"></path></g></g><mask></mask><g stroke-linecap="round"><g transform="translate(536.8427945053567 448.60526133158885) rotate(0 -30.775138607960628 54.366929569366576)" fill-rule="evenodd"><path d="M0 0 L-66.16 0.69 L-113.3 108.73 L51.75 108.73 L0 0" stroke="none" stroke-width="0" fill="#E1E1E1" fill-rule="evenodd"></path><path d="M0 0 C-16.94 0.18, -33.89 0.35, -66.16 0.69 M0 0 C-16.84 0.17, -33.68 0.35, -66.16 0.69 M-66.16 0.69 C-83.6 40.67, -101.05 80.66, -113.3 108.73 M-66.16 0.69 C-75.88 22.97, -85.61 45.26, -113.3 108.73 M-113.3 108.73 C-72.36 108.73, -31.43 108.73, 51.75 108.73 M-113.3 108.73 C-74.79 108.73, -36.28 108.73, 51.75 108.73 M51.75 108.73 C32.6 68.51, 13.46 28.28, 0 0 M51.75 108.73 C41.34 86.88, 30.94 65.02, 0 0 M0 0 C0 0, 0 0, 0 0 M0 0 C0 0, 0 0, 0 0" stroke="#E1E1E1" stroke-width="4" fill="none"></path></g></g><mask></mask><g stroke-linecap="round"><g transform="translate(593.416065986895 577.2882175751012) rotate(0 -84.46605755592506 100.98814903321522)" fill-rule="evenodd"><path d="M0 0 L-39.16 167.66 L-114.41 201.98 L-168.93 1.71 L0 0" stroke="none" stroke-width="0" fill="#E1E1E1" fill-rule="evenodd"></path><path d="M0 0 C-9.25 39.59, -18.49 79.17, -39.16 167.66 M0 0 C-11.38 48.73, -22.77 97.47, -39.16 167.66 M-39.16 167.66 C-54.5 174.66, -69.84 181.65, -114.41 201.98 M-39.16 167.66 C-56.72 175.67, -74.27 183.67, -114.41 201.98 M-114.41 201.98 C-127.71 153.13, -141.01 104.28, -168.93 1.71 M-114.41 201.98 C-135.41 124.85, -156.4 47.73, -168.93 1.71 M-168.93 1.71 C-122.16 1.24, -75.39 0.76, 0 0 M-168.93 1.71 C-114.73 1.16, -60.54 0.61, 0 0 M0 0 C0 0, 0 0, 0 0 M0 0 C0 0, 0 0, 0 0" stroke="#E1E1E1" stroke-width="4" fill="none"></path></g></g><mask></mask><g stroke-linecap="round"><g transform="translate(424.0724661489737 648.3752174858483) rotate(0 0.019594510765269746 61.44446685778916)"><path d="M0 0 C-2.29 6.44, -4.58 12.87, -8.39 23.56 M0 0 C-2.78 7.81, -5.56 15.63, -8.39 23.56 M-8.39 23.56 C-16.61 26.21, -24.84 28.86, -30.81 30.79 M-8.39 23.56 C-14.29 25.46, -20.19 27.36, -30.81 30.79 M-30.81 30.79 C-22.43 57, -14.05 83.22, -8.5 100.58 M-30.81 30.79 C-25.15 48.49, -19.49 66.19, -8.5 100.58 M-8.5 100.58 C5.69 108.62, 19.87 116.67, 30.85 122.89 M-8.5 100.58 C2.78 106.98, 14.07 113.38, 30.85 122.89 M30.85 122.89 C19.52 77.76, 8.19 32.63, 0 0 M30.85 122.89 C24.29 96.78, 17.74 70.68, 0 0" stroke="#E1E1E1" stroke-width="4" fill="none"></path></g></g><mask></mask><g stroke-linecap="round"><g transform="translate(415.02372107756383 533.9589502251812) rotate(0 6.89530833830467 -60.2100126795749)"><path d="M0 0 C-8.44 -47.69, -16.88 -95.39, -21.31 -120.42 M0 0 C-5.67 -32.04, -11.34 -64.08, -21.31 -120.42 M-21.31 -120.42 C-14.91 -117.91, -8.5 -115.39, -4.39 -113.78 M-21.31 -120.42 C-17.18 -118.8, -13.05 -117.18, -4.39 -113.78 M-4.39 -113.78 C9.55 -106.05, 23.5 -98.31, 35.11 -91.87 M-4.39 -113.78 C9.28 -106.19, 22.96 -98.61, 35.11 -91.87 M35.11 -91.87 C27.33 -71.53, 19.56 -51.19, 0 0 M35.11 -91.87 C25.78 -67.47, 16.46 -43.07, 0 0" stroke="#E1E1E1" stroke-width="4" fill="none"></path></g></g><mask></mask><g stroke-linecap="round"><g transform="translate(585.3705598666675 328.6986121544952) rotate(0 -77.61581659238057 3.993361293965421)" fill-rule="evenodd"><path d="M0 0 L-42.92 36.18 L-119.11 28.72 L-155.23 -28.2 L0 0" stroke="none" stroke-width="0" fill="#E1E1E1" fill-rule="evenodd"></path><path d="M0 0 C-13.63 11.49, -27.27 22.98, -42.92 36.18 M0 0 C-14.94 12.59, -29.88 25.19, -42.92 36.18 M-42.92 36.18 C-69 33.63, -95.07 31.08, -119.11 28.72 M-42.92 36.18 C-72.61 33.28, -102.3 30.37, -119.11 28.72 M-119.11 28.72 C-132.49 7.64, -145.87 -13.44, -155.23 -28.2 M-119.11 28.72 C-131.24 9.6, -143.38 -9.52, -155.23 -28.2 M-155.23 -28.2 C-117.29 -21.3, -79.35 -14.41, 0 0 M-155.23 -28.2 C-110.28 -20.03, -65.32 -11.86, 0 0 M0 0 C0 0, 0 0, 0 0 M0 0 C0 0, 0 0, 0 0" stroke="#E1E1E1" stroke-width="4" fill="none"></path></g></g><mask></mask><g stroke-linecap="round"><g transform="translate(408.40469534104943 303.5039902124855) rotate(0 -5.108288956510421 45.629737219125104)"><path d="M0 0 C-15.58 14.86, -31.15 29.73, -46.47 44.34 M0 0 C-13.83 13.19, -27.65 26.39, -46.47 44.34 M-46.47 44.34 C-39.87 55.7, -33.28 67.05, -19.68 90.48 M-46.47 44.34 C-39 57.21, -31.53 70.08, -19.68 90.48 M-19.68 90.48 C-15.46 90.64, -11.24 90.8, 0.77 91.26 M-19.68 90.48 C-12.29 90.76, -4.9 91.04, 0.77 91.26 M0.77 91.26 C11.37 82.37, 21.97 73.49, 36.25 61.51 M0.77 91.26 C13.43 80.65, 26.08 70.03, 36.25 61.51 M36.25 61.51 C25.7 43.61, 15.15 25.7, 0 0 M36.25 61.51 C27.43 46.55, 18.61 31.58, 0 0" stroke="#E1E1E1" stroke-width="4" fill="none"></path></g></g><mask></mask><g stroke-linecap="round"><g transform="translate(480.7789803037183 799.3548418345373) rotate(0 32.26824032827557 30.804530374108836)"><path d="M0 0 C1.02 20.79, 2.05 41.57, 4.44 90.1 M0 0 C1.77 36.04, 3.55 72.07, 4.44 90.1 M4.44 90.1 C20.21 58.98, 35.98 27.85, 64.54 -28.49 M4.44 90.1 C25.87 47.81, 47.3 5.51, 64.54 -28.49 M64.54 -28.49 C43.65 -19.27, 22.76 -10.05, 0 0 M64.54 -28.49 C43.48 -19.2, 22.42 -9.9, 0 0" stroke="#E1E1E1" stroke-width="4" fill="none"></path></g></g><mask></mask><g stroke-linecap="round"><g transform="translate(558.7259441280321 779.7368176563333) rotate(0 -22.386728549340965 77.42770928903424)" fill-rule="evenodd"><path d="M0 0 L-66.42 141.82 L-45.78 154.86 L21.65 70.22 L0 0" stroke="none" stroke-width="0" fill="#E1E1E1" fill-rule="evenodd"></path><path d="M0 0 C-24.58 52.48, -49.16 104.96, -66.42 141.82 M0 0 C-13.7 29.25, -27.4 58.51, -66.42 141.82 M-66.42 141.82 C-61.3 145.05, -56.19 148.28, -45.78 154.86 M-66.42 141.82 C-61.61 144.86, -56.79 147.9, -45.78 154.86 M-45.78 154.86 C-20.84 123.55, 4.11 92.24, 21.65 70.22 M-45.78 154.86 C-32.23 137.84, -18.67 120.83, 21.65 70.22 M21.65 70.22 C17.31 56.16, 12.98 42.11, 0 0 M21.65 70.22 C16.45 53.35, 11.24 36.47, 0 0 M0 0 C0 0, 0 0, 0 0 M0 0 C0 0, 0 0, 0 0" stroke="#E1E1E1" stroke-width="4" fill="none"></path></g></g><mask></mask><g stroke-linecap="round"><g transform="translate(586.4796091759856 807.0006199351566) rotate(0 13.449672189293409 -127.57790014171034)"><path d="M0 0 C8.09 -52.02, 16.19 -104.03, 39.7 -255.16 M0 0 C9.26 -59.53, 18.52 -119.05, 39.7 -255.16 M39.7 -255.16 C36.04 -250.05, 32.38 -244.94, 24.69 -234.22 M39.7 -255.16 C33.92 -247.09, 28.14 -239.03, 24.69 -234.22 M24.69 -234.22 C14.31 -185.58, 3.93 -136.95, -12.8 -58.54 M24.69 -234.22 C12.66 -177.86, 0.63 -121.5, -12.8 -58.54 M-12.8 -58.54 C-8.86 -40.53, -4.92 -22.52, 0 0 M-12.8 -58.54 C-7.93 -36.25, -3.05 -13.96, 0 0" stroke="#E1E1E1" stroke-width="4" fill="none"></path></g></g><mask></mask><g stroke-linecap="round"><g transform="translate(464.26732270504317 820.4332748779372) rotate(0 -24.489257134105774 68.17766428405656)"><path d="M0 0 C-19.64 23.84, -39.28 47.67, -53.53 64.96 M0 0 C-14.09 17.1, -28.19 34.21, -53.53 64.96 M-53.53 64.96 C-51.74 91.78, -49.96 118.6, -48.77 136.36 M-53.53 64.96 C-52.32 83.07, -51.12 101.18, -48.77 136.36 M-48.77 136.36 C-29.55 123.34, -10.32 110.32, 4.55 100.25 M-48.77 136.36 C-33.48 126, -18.19 115.65, 4.55 100.25 M4.55 100.25 C2.88 63.44, 1.21 26.62, 0 0 M4.55 100.25 C3.59 78.95, 2.62 57.66, 0 0" stroke="#E1E1E1" stroke-width="4" fill="none"></path></g></g><mask></mask><g stroke-linecap="round"><g transform="translate(478.0009194847144 938.0077355656296) rotate(0 -23.671283180392713 38.76662068982529)" fill-rule="evenodd"><path d="M0 0 L-59.26 41.18 L-63.21 77.53 L15.87 10.73 L0 0" stroke="none" stroke-width="0" fill="#E1E1E1" fill-rule="evenodd"></path><path d="M0 0 C-22.43 15.59, -44.86 31.18, -59.26 41.18 M0 0 C-14.47 10.06, -28.95 20.12, -59.26 41.18 M-59.26 41.18 C-60.65 54.01, -62.05 66.85, -63.21 77.53 M-59.26 41.18 C-60.63 53.77, -62 66.36, -63.21 77.53 M-63.21 77.53 C-45.7 62.74, -28.19 47.95, 15.87 10.73 M-63.21 77.53 C-42.21 59.79, -21.2 42.05, 15.87 10.73 M15.87 10.73 C10 6.76, 4.13 2.79, 0 0 M15.87 10.73 C11.72 7.93, 7.58 5.12, 0 0 M0 0 C0 0, 0 0, 0 0 M0 0 C0 0, 0 0, 0 0" stroke="#E1E1E1" stroke-width="4" fill="none"></path></g></g><mask></mask><g stroke-linecap="round"><g transform="translate(370.102296674758 586.0122002163854) rotate(0 15.331832109572602 -92.36939805148026)"><path d="M0 0 C-3.87 -69.12, -7.73 -138.25, -11.3 -201.96 M0 0 C-4.4 -78.71, -8.81 -157.42, -11.3 -201.96 M-11.3 -201.96 C-4.77 -192.28, 1.76 -182.6, 6.33 -175.82 M-11.3 -201.96 C-5.38 -193.18, 0.55 -184.4, 6.33 -175.82 M6.33 -175.82 C15.04 -128.64, 23.75 -81.46, 41.96 17.22 M6.33 -175.82 C16.65 -119.91, 26.97 -64.01, 41.96 17.22 M41.96 17.22 C25.54 10.49, 9.13 3.75, 0 0 M41.96 17.22 C32.76 13.45, 23.57 9.67, 0 0" stroke="#E1E1E1" stroke-width="4" fill="none"></path></g></g><mask></mask><g stroke-linecap="round"><g transform="translate(414.8150628541703 625.0392650090081) rotate(0 -23.951778712904773 6.724712807733468)" fill-rule="evenodd"><path d="M0 0 L-11.06 30.39 L-47.9 23.08 L-42.99 -16.94 L0 0" stroke="none" stroke-width="0" fill="#E1E1E1" fill-rule="evenodd"></path><path d="M0 0 C-2.72 7.48, -5.44 14.96, -11.06 30.39 M0 0 C-3.08 8.48, -6.17 16.95, -11.06 30.39 M-11.06 30.39 C-18.66 28.88, -26.26 27.37, -47.9 23.08 M-11.06 30.39 C-24.37 27.75, -37.68 25.11, -47.9 23.08 M-47.9 23.08 C-46.43 11.12, -44.97 -0.83, -42.99 -16.94 M-47.9 23.08 C-46.15 8.8, -44.4 -5.47, -42.99 -16.94 M-42.99 -16.94 C-30.48 -12.01, -17.96 -7.08, 0 0 M-42.99 -16.94 C-32.53 -12.82, -22.07 -8.7, 0 0 M0 0 C0 0, 0 0, 0 0 M0 0 C0 0, 0 0, 0 0" stroke="#E1E1E1" stroke-width="4" fill="none"></path></g></g><mask></mask><g stroke-linecap="round"><g transform="translate(374.3769948973182 669.0978388122686) rotate(0 -6.844968759230831 1.1271991187021122)"><path d="M0 0 C-3.59 0.59, -7.19 1.18, -13.69 2.25 M0 0 C-4.88 0.8, -9.76 1.61, -13.69 2.25" stroke="#E1E1E1" stroke-width="4" fill="none"></path></g></g><mask></mask><g stroke-linecap="round"><g transform="translate(256.64202134072434 298.10885355363564) rotate(0 65.69717708488263 19.4074648771701)"><path d="M0 0 C32.59 -0.45, 65.17 -0.91, 131.39 -1.83 M0 0 C30.66 -0.43, 61.32 -0.85, 131.39 -1.83 M131.39 -1.83 C116.09 13.54, 100.79 28.9, 90.03 39.7 M131.39 -1.83 C123.08 6.52, 114.76 14.87, 90.03 39.7 M90.03 39.7 C80.66 39.89, 71.3 40.08, 43.26 40.64 M90.03 39.7 C78.79 39.93, 67.55 40.15, 43.26 40.64 M43.26 40.64 C30.82 28.96, 18.38 17.27, 0 0 M43.26 40.64 C32.54 30.57, 21.82 20.5, 0 0" stroke="#E1E1E1" stroke-width="4" fill="none"></path></g></g><mask></mask><g stroke-linecap="round"><g transform="translate(306.07288726425156 356.75142322917156) rotate(0 18.536244212724668 113.74783910297633)" fill-rule="evenodd"><path d="M0 0 L35.34 -0.83 L48.77 226.8 L-11.69 228.33 L0 0" stroke="none" stroke-width="0" fill="#E1E1E1" fill-rule="evenodd"></path><path d="M0 0 C8.62 -0.2, 17.24 -0.41, 35.34 -0.83 M0 0 C13.61 -0.32, 27.22 -0.64, 35.34 -0.83 M35.34 -0.83 C39.06 62.19, 42.78 125.21, 48.77 226.8 M35.34 -0.83 C39.65 72.2, 43.96 145.23, 48.77 226.8 M48.77 226.8 C30.16 227.27, 11.56 227.74, -11.69 228.33 M48.77 226.8 C25.74 227.38, 2.72 227.96, -11.69 228.33 M-11.69 228.33 C-7.88 153.94, -4.07 79.56, 0 0 M-11.69 228.33 C-7.36 143.64, -3.02 58.94, 0 0 M0 0 C0 0, 0 0, 0 0 M0 0 C0 0, 0 0, 0 0" stroke="#E1E1E1" stroke-width="4" fill="none"></path></g></g><mask></mask><g stroke-linecap="round"><g transform="translate(292.5722720513321 603.1682895486603) rotate(0 30.95543529284275 21.95502515089655)" fill-rule="evenodd"><path d="M0 0 L4.16 45.4 L57.76 45.01 L61.91 -1.49 L0 0" stroke="none" stroke-width="0" fill="#E1E1E1" fill-rule="evenodd"></path><path d="M0 0 C1.56 17.05, 3.13 34.1, 4.16 45.4 M0 0 C1.06 11.51, 2.11 23.03, 4.16 45.4 M4.16 45.4 C23.49 45.26, 42.81 45.12, 57.76 45.01 M4.16 45.4 C19.53 45.29, 34.91 45.18, 57.76 45.01 M57.76 45.01 C59.29 27.94, 60.81 10.86, 61.91 -1.49 M57.76 45.01 C58.64 35.14, 59.52 25.26, 61.91 -1.49 M61.91 -1.49 C41.74 -1, 21.58 -0.52, 0 0 M61.91 -1.49 C46.69 -1.12, 31.46 -0.76, 0 0 M0 0 C0 0, 0 0, 0 0 M0 0 C0 0, 0 0, 0 0" stroke="#E1E1E1" stroke-width="4" fill="none"></path></g></g><mask></mask><g stroke-linecap="round"><g transform="translate(303.1353268448325 667.8818730457616) rotate(0 1.840271873911469 5.118917166512357)"><path d="M0 0 C1.3 3.61, 2.6 7.23, 3.68 10.24 M0 0 C1.27 3.55, 2.55 7.09, 3.68 10.24" stroke="#E1E1E1" stroke-width="4" fill="none"></path></g></g><mask></mask><g stroke-linecap="round"><g transform="translate(308.6878712919792 679.7484537499469) rotate(0 17.0410233151716 0.3543052171036978)"><path d="M0 0 C5.76 1.17, 11.51 2.33, 15.54 3.15 M0 0 C5.22 1.06, 10.44 2.12, 15.54 3.15 M15.54 3.15 C20.07 1.78, 24.6 0.42, 34.08 -2.44 M15.54 3.15 C20.91 1.53, 26.28 -0.09, 34.08 -2.44" stroke="#E1E1E1" stroke-width="4" fill="none"></path></g></g><mask></mask><g stroke-linecap="round"><g transform="translate(343.37012153637113 677.141401928574) rotate(0 -18.386854326408567 -4.38518807885367)"><path d="M0 0 C0.23 -1.68, 0.46 -3.37, 1.11 -8.16 M0 0 C0.4 -2.95, 0.8 -5.89, 1.11 -8.16 M1.11 -8.16 C-10.54 -8.34, -22.19 -8.52, -37.88 -8.77 M1.11 -8.16 C-12.8 -8.38, -26.71 -8.6, -37.88 -8.77" stroke="#E1E1E1" stroke-width="4" fill="none"></path></g></g><mask></mask><g stroke-linecap="round"><g transform="translate(269.98663649536667 689.8329320934855) rotate(0 52.62490101502871 27.621264555769617)" fill-rule="evenodd"><path d="M0 0 L-19.34 56.64 L124.59 57.04 L105.77 -1.8 L58.27 12.03 L39.69 11.25 L0 0" stroke="none" stroke-width="0" fill="#E1E1E1" fill-rule="evenodd"></path><path d="M0 0 C-6.26 18.33, -12.52 36.66, -19.34 56.64 M0 0 C-6.31 18.48, -12.62 36.96, -19.34 56.64 M-19.34 56.64 C14.91 56.73, 49.17 56.83, 124.59 57.04 M-19.34 56.64 C28.24 56.77, 75.82 56.9, 124.59 57.04 M124.59 57.04 C120.57 44.47, 116.55 31.9, 105.77 -1.8 M124.59 57.04 C119.76 41.94, 114.93 26.84, 105.77 -1.8 M105.77 -1.8 C89.48 2.94, 73.19 7.68, 58.27 12.03 M105.77 -1.8 C88.8 3.14, 71.82 8.08, 58.27 12.03 M58.27 12.03 C52.64 11.79, 47.01 11.56, 39.69 11.25 M58.27 12.03 C51.75 11.75, 45.22 11.48, 39.69 11.25 M39.69 11.25 C29.58 8.39, 19.47 5.52, 0 0 M39.69 11.25 C26.91 7.63, 14.13 4.01, 0 0 M0 0 C0 0, 0 0, 0 0 M0 0 C0 0, 0 0, 0 0" stroke="#E1E1E1" stroke-width="4" fill="none"></path></g></g><mask></mask><g stroke-linecap="round"><g transform="translate(252.3295451534405 893.5928048222769) rotate(0 71.76663697937084 34.35041961195476)" fill-rule="evenodd"><path d="M0 0 L-4.57 69.53 L148.1 68.77 L141.65 -0.83 L0 0" stroke="none" stroke-width="0" fill="#E1E1E1" fill-rule="evenodd"></path><path d="M0 0 C-1.69 25.72, -3.38 51.44, -4.57 69.53 M0 0 C-0.92 13.98, -1.84 27.95, -4.57 69.53 M-4.57 69.53 C26 69.38, 56.56 69.23, 148.1 68.77 M-4.57 69.53 C32.12 69.35, 68.81 69.17, 148.1 68.77 M148.1 68.77 C146.25 48.76, 144.39 28.75, 141.65 -0.83 M148.1 68.77 C146.5 51.52, 144.91 34.28, 141.65 -0.83 M141.65 -0.83 C89.94 -0.53, 38.24 -0.22, 0 0 M141.65 -0.83 C87.02 -0.51, 32.4 -0.19, 0 0 M0 0 C0 0, 0 0, 0 0 M0 0 C0 0, 0 0, 0 0" stroke="#E1E1E1" stroke-width="4" fill="none"></path></g></g><mask></mask><g stroke-linecap="round"><g transform="translate(247.00439062174848 983.1764993050375) rotate(0 77.18301188412319 21.182957065864514)"><path d="M0 0 C1.61 11.63, 3.22 23.25, 5.82 41.99 M0 0 C1.87 13.47, 3.73 26.94, 5.82 41.99 M5.82 41.99 C49.04 42.11, 92.27 42.22, 146.3 42.37 M5.82 41.99 C59.31 42.13, 112.8 42.28, 146.3 42.37 M146.3 42.37 C148.93 28.71, 151.56 15.06, 154.37 0.45 M146.3 42.37 C149.29 26.82, 152.28 11.27, 154.37 0.45 M154.37 0.45 C122.75 0.36, 91.13 0.27, 0 0 M154.37 0.45 C113.79 0.34, 73.22 0.22, 0 0" stroke="#E1E1E1" stroke-width="4" fill="none"></path></g></g><mask></mask><g stroke-linecap="round" transform="translate(275.12452589781043 105.0432280307133) rotate(0 45.36410392508129 45.36410392508128)"><path d="M90.73 45.36 C90.73 47.52, 90.57 49.69, 90.27 51.82 C89.96 53.95, 89.5 56.08, 88.89 58.14 C88.28 60.21, 87.52 62.25, 86.63 64.21 C85.73 66.17, 84.69 68.08, 83.53 69.89 C82.36 71.7, 81.06 73.44, 79.65 75.07 C78.24 76.7, 76.7 78.24, 75.07 79.65 C73.44 81.06, 71.7 82.36, 69.89 83.53 C68.08 84.69, 66.17 85.73, 64.21 86.63 C62.25 87.52, 60.21 88.28, 58.14 88.89 C56.08 89.5, 53.95 89.96, 51.82 90.27 C49.69 90.57, 47.52 90.73, 45.36 90.73 C43.21 90.73, 41.04 90.57, 38.91 90.27 C36.78 89.96, 34.65 89.5, 32.58 88.89 C30.52 88.28, 28.48 87.52, 26.52 86.63 C24.56 85.73, 22.65 84.69, 20.84 83.53 C19.03 82.36, 17.28 81.06, 15.66 79.65 C14.03 78.24, 12.49 76.7, 11.08 75.07 C9.67 73.44, 8.36 71.7, 7.2 69.89 C6.04 68.08, 4.99 66.17, 4.1 64.21 C3.21 62.25, 2.44 60.21, 1.84 58.14 C1.23 56.08, 0.77 53.95, 0.46 51.82 C0.16 49.69, 0 47.52, 0 45.36 C0 43.21, 0.16 41.04, 0.46 38.91 C0.77 36.78, 1.23 34.65, 1.84 32.58 C2.44 30.52, 3.21 28.48, 4.1 26.52 C4.99 24.56, 6.04 22.65, 7.2 20.84 C8.36 19.03, 9.67 17.28, 11.08 15.66 C12.49 14.03, 14.03 12.49, 15.66 11.08 C17.28 9.67, 19.03 8.36, 20.84 7.2 C22.65 6.04, 24.56 4.99, 26.52 4.1 C28.48 3.21, 30.52 2.44, 32.58 1.84 C34.65 1.23, 36.78 0.77, 38.91 0.46 C41.04 0.16, 43.21 0, 45.36 0 C47.52 0, 49.69 0.16, 51.82 0.46 C53.95 0.77, 56.08 1.23, 58.14 1.84 C60.21 2.44, 62.25 3.21, 64.21 4.1 C66.17 4.99, 68.08 6.04, 69.89 7.2 C71.7 8.36, 73.44 9.67, 75.07 11.08 C76.7 12.49, 78.24 14.03, 79.65 15.66 C81.06 17.28, 82.36 19.03, 83.53 20.84 C84.69 22.65, 85.73 24.56, 86.63 26.52 C87.52 28.48, 88.28 30.52, 88.89 32.58 C89.5 34.65, 89.96 36.78, 90.27 38.91 C90.57 41.04, 90.65 44.29, 90.73 45.36 C90.81 46.44, 90.81 44.29, 90.73 45.36" stroke="#E1E1E1" stroke-width="4" fill="none"></path></g><g stroke-linecap="round"><g transform="translate(288.07336205873656 117.56138367100641) rotate(0 32.187356879506126 -25.092605815645697)"><path d="M0 0 C0.4 -3.24, 0.46 -14.25, 2.39 -19.44 C4.32 -24.62, 8.27 -27.87, 11.58 -31.12 C14.88 -34.36, 19.43 -36.82, 22.24 -38.89 C25.05 -40.96, 26.8 -41.65, 28.44 -43.54 C30.08 -45.43, 30.88 -50.18, 32.06 -50.23 C33.25 -50.29, 33.89 -45.8, 35.55 -43.87 C37.2 -41.94, 39.73 -40.25, 41.99 -38.66 C44.25 -37.06, 46.67 -36.12, 49.12 -34.28 C51.56 -32.44, 54.59 -30.02, 56.66 -27.59 C58.72 -25.16, 60.21 -22.7, 61.5 -19.7 C62.78 -16.69, 63.91 -12.86, 64.37 -9.57 C64.84 -6.28, 64.32 -1.55, 64.31 0.05 M0 0 C0.4 -3.24, 0.46 -14.25, 2.39 -19.44 C4.32 -24.62, 8.27 -27.87, 11.58 -31.12 C14.88 -34.36, 19.43 -36.82, 22.24 -38.89 C25.05 -40.96, 26.8 -41.65, 28.44 -43.54 C30.08 -45.43, 30.88 -50.18, 32.06 -50.23 C33.25 -50.29, 33.89 -45.8, 35.55 -43.87 C37.2 -41.94, 39.73 -40.25, 41.99 -38.66 C44.25 -37.06, 46.67 -36.12, 49.12 -34.28 C51.56 -32.44, 54.59 -30.02, 56.66 -27.59 C58.72 -25.16, 60.21 -22.7, 61.5 -19.7 C62.78 -16.69, 63.91 -12.86, 64.37 -9.57 C64.84 -6.28, 64.32 -1.55, 64.31 0.05" stroke="#E1E1E1" stroke-width="4" fill="none"></path></g></g><mask></mask><g stroke-linecap="round"><g transform="translate(238.03046506517916 203.82180994445218) rotate(239.99999999999994 32.187356879506126 -25.092605815645726)"><path d="M0 0 C0.4 -3.24, 0.46 -14.25, 2.39 -19.44 C4.32 -24.62, 8.27 -27.87, 11.58 -31.12 C14.88 -34.36, 19.43 -36.82, 22.24 -38.89 C25.05 -40.96, 26.8 -41.65, 28.44 -43.54 C30.08 -45.43, 30.88 -50.18, 32.06 -50.23 C33.25 -50.29, 33.89 -45.8, 35.55 -43.87 C37.2 -41.94, 39.73 -40.25, 41.99 -38.66 C44.25 -37.06, 46.67 -36.12, 49.12 -34.28 C51.56 -32.44, 54.59 -30.02, 56.66 -27.59 C58.72 -25.16, 60.21 -22.7, 61.5 -19.7 C62.78 -16.69, 63.91 -12.86, 64.37 -9.57 C64.84 -6.28, 64.32 -1.55, 64.31 0.05 M0 0 C0.4 -3.24, 0.46 -14.25, 2.39 -19.44 C4.32 -24.62, 8.27 -27.87, 11.58 -31.12 C14.88 -34.36, 19.43 -36.82, 22.24 -38.89 C25.05 -40.96, 26.8 -41.65, 28.44 -43.54 C30.08 -45.43, 30.88 -50.18, 32.06 -50.23 C33.25 -50.29, 33.89 -45.8, 35.55 -43.87 C37.2 -41.94, 39.73 -40.25, 41.99 -38.66 C44.25 -37.06, 46.67 -36.12, 49.12 -34.28 C51.56 -32.44, 54.59 -30.02, 56.66 -27.59 C58.72 -25.16, 60.21 -22.7, 61.5 -19.7 C62.78 -16.69, 63.91 -12.86, 64.37 -9.57 C64.84 -6.28, 64.32 -1.55, 64.31 0.05" stroke="#E1E1E1" stroke-width="4" fill="none"></path></g></g><mask></mask><g stroke-linecap="round"><g transform="translate(338.6052976103963 203.95516787216286) rotate(119.99999999999997 32.187356879506126 -25.092605815645726)"><path d="M0 0 C0.4 -3.24, 0.46 -14.25, 2.39 -19.44 C4.32 -24.62, 8.27 -27.87, 11.58 -31.12 C14.88 -34.36, 19.43 -36.82, 22.24 -38.89 C25.05 -40.96, 26.8 -41.65, 28.44 -43.54 C30.08 -45.43, 30.88 -50.18, 32.06 -50.23 C33.25 -50.29, 33.89 -45.8, 35.55 -43.87 C37.2 -41.94, 39.73 -40.25, 41.99 -38.66 C44.25 -37.06, 46.67 -36.12, 49.12 -34.28 C51.56 -32.44, 54.59 -30.02, 56.66 -27.59 C58.72 -25.16, 60.21 -22.7, 61.5 -19.7 C62.78 -16.69, 63.91 -12.86, 64.37 -9.57 C64.84 -6.28, 64.32 -1.55, 64.31 0.05 M0 0 C0.4 -3.24, 0.46 -14.25, 2.39 -19.44 C4.32 -24.62, 8.27 -27.87, 11.58 -31.12 C14.88 -34.36, 19.43 -36.82, 22.24 -38.89 C25.05 -40.96, 26.8 -41.65, 28.44 -43.54 C30.08 -45.43, 30.88 -50.18, 32.06 -50.23 C33.25 -50.29, 33.89 -45.8, 35.55 -43.87 C37.2 -41.94, 39.73 -40.25, 41.99 -38.66 C44.25 -37.06, 46.67 -36.12, 49.12 -34.28 C51.56 -32.44, 54.59 -30.02, 56.66 -27.59 C58.72 -25.16, 60.21 -22.7, 61.5 -19.7 C62.78 -16.69, 63.91 -12.86, 64.37 -9.57 C64.84 -6.28, 64.32 -1.55, 64.31 0.05" stroke="#E1E1E1" stroke-width="4" fill="none"></path></g></g><mask></mask><g stroke-linecap="round"><g transform="translate(291.49943914514483 202.03214913311524) rotate(0 28.921255634208237 14.91037630366796)"><path d="M0 0 C0.6 1.15, 1.85 4.74, 3.58 6.88 C5.31 9.01, 8.07 10.97, 10.37 12.82 C12.67 14.66, 15.15 16.27, 17.38 17.93 C19.61 19.59, 21.92 20.74, 23.74 22.76 C25.57 24.78, 26.92 29.7, 28.34 30.05 C29.77 30.39, 30.6 26.64, 32.31 24.83 C34.01 23.01, 36.42 20.97, 38.58 19.16 C40.73 17.34, 42.76 15.95, 45.24 13.94 C47.72 11.94, 51.36 9.5, 53.46 7.14 C55.56 4.77, 57.11 1, 57.84 -0.23 M0 0 C0.6 1.15, 1.85 4.74, 3.58 6.88 C5.31 9.01, 8.07 10.97, 10.37 12.82 C12.67 14.66, 15.15 16.27, 17.38 17.93 C19.61 19.59, 21.92 20.74, 23.74 22.76 C25.57 24.78, 26.92 29.7, 28.34 30.05 C29.77 30.39, 30.6 26.64, 32.31 24.83 C34.01 23.01, 36.42 20.97, 38.58 19.16 C40.73 17.34, 42.76 15.95, 45.24 13.94 C47.72 11.94, 51.36 9.5, 53.46 7.14 C55.56 4.77, 57.11 1, 57.84 -0.23" stroke="#E1E1E1" stroke-width="4" fill="none"></path></g></g><mask></mask><g stroke-linecap="round"><g transform="translate(349.14355236653176 101.21032266913528) rotate(239.99999999999994 28.92125563420824 14.910376303667931)"><path d="M0 0 C0.6 1.15, 1.85 4.74, 3.58 6.88 C5.31 9.01, 8.07 10.97, 10.37 12.82 C12.67 14.66, 15.15 16.27, 17.38 17.93 C19.61 19.59, 21.92 20.74, 23.74 22.76 C25.57 24.78, 26.92 29.7, 28.34 30.05 C29.77 30.39, 30.6 26.64, 32.31 24.83 C34.01 23.01, 36.42 20.97, 38.58 19.16 C40.73 17.34, 42.76 15.95, 45.24 13.94 C47.72 11.94, 51.36 9.5, 53.46 7.14 C55.56 4.77, 57.11 1, 57.84 -0.23 M0 0 C0.6 1.15, 1.85 4.74, 3.58 6.88 C5.31 9.01, 8.07 10.97, 10.37 12.82 C12.67 14.66, 15.15 16.27, 17.38 17.93 C19.61 19.59, 21.92 20.74, 23.74 22.76 C25.57 24.78, 26.92 29.7, 28.34 30.05 C29.77 30.39, 30.6 26.64, 32.31 24.83 C34.01 23.01, 36.42 20.97, 38.58 19.16 C40.73 17.34, 42.76 15.95, 45.24 13.94 C47.72 11.94, 51.36 9.5, 53.46 7.14 C55.56 4.77, 57.11 1, 57.84 -0.23" stroke="#E1E1E1" stroke-width="4" fill="none"></path></g></g><mask></mask><g stroke-linecap="round"><g transform="translate(233.15330206503808 100.87457212800939) rotate(119.99999999999997 28.921255634208237 14.910376303667931)"><path d="M0 0 C0.6 1.15, 1.85 4.74, 3.58 6.88 C5.31 9.01, 8.07 10.97, 10.37 12.82 C12.67 14.66, 15.15 16.27, 17.38 17.93 C19.61 19.59, 21.92 20.74, 23.74 22.76 C25.57 24.78, 26.92 29.7, 28.34 30.05 C29.77 30.39, 30.6 26.64, 32.31 24.83 C34.01 23.01, 36.42 20.97, 38.58 19.16 C40.73 17.34, 42.76 15.95, 45.24 13.94 C47.72 11.94, 51.36 9.5, 53.46 7.14 C55.56 4.77, 57.11 1, 57.84 -0.23 M0 0 C0.6 1.15, 1.85 4.74, 3.58 6.88 C5.31 9.01, 8.07 10.97, 10.37 12.82 C12.67 14.66, 15.15 16.27, 17.38 17.93 C19.61 19.59, 21.92 20.74, 23.74 22.76 C25.57 24.78, 26.92 29.7, 28.34 30.05 C29.77 30.39, 30.6 26.64, 32.31 24.83 C34.01 23.01, 36.42 20.97, 38.58 19.16 C40.73 17.34, 42.76 15.95, 45.24 13.94 C47.72 11.94, 51.36 9.5, 53.46 7.14 C55.56 4.77, 57.11 1, 57.84 -0.23" stroke="#E1E1E1" stroke-width="4" fill="none"></path></g></g><mask></mask><g stroke-linecap="round"><g transform="translate(246.12940902913272 58.80316119692827) rotate(149.99999999999991 31.484016689195514 16.728290236424414)"><path d="M0 0 C0.65 1.29, 2.02 5.32, 3.9 7.71 C5.78 10.11, 8.79 12.31, 11.29 14.38 C13.8 16.45, 16.49 18.26, 18.92 20.12 C21.35 21.98, 23.86 23.27, 25.85 25.54 C27.84 27.8, 29.3 33.33, 30.86 33.71 C32.41 34.1, 33.31 29.89, 35.17 27.86 C37.03 25.82, 39.65 23.53, 41.99 21.49 C44.34 19.46, 46.54 17.89, 49.25 15.64 C51.95 13.39, 55.91 10.66, 58.2 8.01 C60.48 5.36, 62.17 1.12, 62.97 -0.26 M0 0 C0.65 1.29, 2.02 5.32, 3.9 7.71 C5.78 10.11, 8.79 12.31, 11.29 14.38 C13.8 16.45, 16.49 18.26, 18.92 20.12 C21.35 21.98, 23.86 23.27, 25.85 25.54 C27.84 27.8, 29.3 33.33, 30.86 33.71 C32.41 34.1, 33.31 29.89, 35.17 27.86 C37.03 25.82, 39.65 23.53, 41.99 21.49 C44.34 19.46, 46.54 17.89, 49.25 15.64 C51.95 13.39, 55.91 10.66, 58.2 8.01 C60.48 5.36, 62.17 1.12, 62.97 -0.26" stroke="#E1E1E1" stroke-width="4" fill="none"></path></g></g><mask></mask><g stroke-linecap="round"><g transform="translate(331.2946573233105 59.36160893130102) rotate(209.99999999999997 31.484016689195514 16.728290236424414)"><path d="M0 0 C0.65 1.29, 2.02 5.32, 3.9 7.71 C5.78 10.11, 8.79 12.31, 11.29 14.38 C13.8 16.45, 16.49 18.26, 18.92 20.12 C21.35 21.98, 23.86 23.27, 25.85 25.54 C27.84 27.8, 29.3 33.33, 30.86 33.71 C32.41 34.1, 33.31 29.89, 35.17 27.86 C37.03 25.82, 39.65 23.53, 41.99 21.49 C44.34 19.46, 46.54 17.89, 49.25 15.64 C51.95 13.39, 55.91 10.66, 58.2 8.01 C60.48 5.36, 62.17 1.12, 62.97 -0.26 M0 0 C0.65 1.29, 2.02 5.32, 3.9 7.71 C5.78 10.11, 8.79 12.31, 11.29 14.38 C13.8 16.45, 16.49 18.26, 18.92 20.12 C21.35 21.98, 23.86 23.27, 25.85 25.54 C27.84 27.8, 29.3 33.33, 30.86 33.71 C32.41 34.1, 33.31 29.89, 35.17 27.86 C37.03 25.82, 39.65 23.53, 41.99 21.49 C44.34 19.46, 46.54 17.89, 49.25 15.64 C51.95 13.39, 55.91 10.66, 58.2 8.01 C60.48 5.36, 62.17 1.12, 62.97 -0.26" stroke="#E1E1E1" stroke-width="4" fill="none"></path></g></g><mask></mask><g stroke-linecap="round"><g transform="translate(374.44368898749184 132.67269333967045) rotate(270 31.484016689195514 16.728290236424414)"><path d="M0 0 C0.65 1.29, 2.02 5.32, 3.9 7.71 C5.78 10.11, 8.79 12.31, 11.29 14.38 C13.8 16.45, 16.49 18.26, 18.92 20.12 C21.35 21.98, 23.86 23.27, 25.85 25.54 C27.84 27.8, 29.3 33.33, 30.86 33.71 C32.41 34.1, 33.31 29.89, 35.17 27.86 C37.03 25.82, 39.65 23.53, 41.99 21.49 C44.34 19.46, 46.54 17.89, 49.25 15.64 C51.95 13.39, 55.91 10.66, 58.2 8.01 C60.48 5.36, 62.17 1.12, 62.97 -0.26 M0 0 C0.65 1.29, 2.02 5.32, 3.9 7.71 C5.78 10.11, 8.79 12.31, 11.29 14.38 C13.8 16.45, 16.49 18.26, 18.92 20.12 C21.35 21.98, 23.86 23.27, 25.85 25.54 C27.84 27.8, 29.3 33.33, 30.86 33.71 C32.41 34.1, 33.31 29.89, 35.17 27.86 C37.03 25.82, 39.65 23.53, 41.99 21.49 C44.34 19.46, 46.54 17.89, 49.25 15.64 C51.95 13.39, 55.91 10.66, 58.2 8.01 C60.48 5.36, 62.17 1.12, 62.97 -0.26" stroke="#E1E1E1" stroke-width="4" fill="none"></path></g></g><mask></mask><g stroke-linecap="round"><g transform="translate(331.74602444196023 206.58035928805577) rotate(329.99999999999994 31.484016689195514 16.728290236424385)"><path d="M0 0 C0.65 1.29, 2.02 5.32, 3.9 7.71 C5.78 10.11, 8.79 12.31, 11.29 14.38 C13.8 16.45, 16.49 18.26, 18.92 20.12 C21.35 21.98, 23.86 23.27, 25.85 25.54 C27.84 27.8, 29.3 33.33, 30.86 33.71 C32.41 34.1, 33.31 29.89, 35.17 27.86 C37.03 25.82, 39.65 23.53, 41.99 21.49 C44.34 19.46, 46.54 17.89, 49.25 15.64 C51.95 13.39, 55.91 10.66, 58.2 8.01 C60.48 5.36, 62.17 1.12, 62.97 -0.26 M0 0 C0.65 1.29, 2.02 5.32, 3.9 7.71 C5.78 10.11, 8.79 12.31, 11.29 14.38 C13.8 16.45, 16.49 18.26, 18.92 20.12 C21.35 21.98, 23.86 23.27, 25.85 25.54 C27.84 27.8, 29.3 33.33, 30.86 33.71 C32.41 34.1, 33.31 29.89, 35.17 27.86 C37.03 25.82, 39.65 23.53, 41.99 21.49 C44.34 19.46, 46.54 17.89, 49.25 15.64 C51.95 13.39, 55.91 10.66, 58.2 8.01 C60.48 5.36, 62.17 1.12, 62.97 -0.26" stroke="#E1E1E1" stroke-width="4" fill="none"></path></g></g><mask></mask><g stroke-linecap="round"><g transform="translate(245.9834971006843 207.1797156259355) rotate(29.999999999999964 31.484016689195514 16.728290236424385)"><path d="M0 0 C0.65 1.29, 2.02 5.32, 3.9 7.71 C5.78 10.11, 8.79 12.31, 11.29 14.38 C13.8 16.45, 16.49 18.26, 18.92 20.12 C21.35 21.98, 23.86 23.27, 25.85 25.54 C27.84 27.8, 29.3 33.33, 30.86 33.71 C32.41 34.1, 33.31 29.89, 35.17 27.86 C37.03 25.82, 39.65 23.53, 41.99 21.49 C44.34 19.46, 46.54 17.89, 49.25 15.64 C51.95 13.39, 55.91 10.66, 58.2 8.01 C60.48 5.36, 62.17 1.12, 62.97 -0.26 M0 0 C0.65 1.29, 2.02 5.32, 3.9 7.71 C5.78 10.11, 8.79 12.31, 11.29 14.38 C13.8 16.45, 16.49 18.26, 18.92 20.12 C21.35 21.98, 23.86 23.27, 25.85 25.54 C27.84 27.8, 29.3 33.33, 30.86 33.71 C32.41 34.1, 33.31 29.89, 35.17 27.86 C37.03 25.82, 39.65 23.53, 41.99 21.49 C44.34 19.46, 46.54 17.89, 49.25 15.64 C51.95 13.39, 55.91 10.66, 58.2 8.01 C60.48 5.36, 62.17 1.12, 62.97 -0.26" stroke="#E1E1E1" stroke-width="4" fill="none"></path></g></g><mask></mask><g stroke-linecap="round"><g transform="translate(203.9120119390177 133.0926127492304) rotate(89.99999999999994 31.484016689195514 16.728290236424414)"><path d="M0 0 C0.65 1.29, 2.02 5.32, 3.9 7.71 C5.78 10.11, 8.79 12.31, 11.29 14.38 C13.8 16.45, 16.49 18.26, 18.92 20.12 C21.35 21.98, 23.86 23.27, 25.85 25.54 C27.84 27.8, 29.3 33.33, 30.86 33.71 C32.41 34.1, 33.31 29.89, 35.17 27.86 C37.03 25.82, 39.65 23.53, 41.99 21.49 C44.34 19.46, 46.54 17.89, 49.25 15.64 C51.95 13.39, 55.91 10.66, 58.2 8.01 C60.48 5.36, 62.17 1.12, 62.97 -0.26 M0 0 C0.65 1.29, 2.02 5.32, 3.9 7.71 C5.78 10.11, 8.79 12.31, 11.29 14.38 C13.8 16.45, 16.49 18.26, 18.92 20.12 C21.35 21.98, 23.86 23.27, 25.85 25.54 C27.84 27.8, 29.3 33.33, 30.86 33.71 C32.41 34.1, 33.31 29.89, 35.17 27.86 C37.03 25.82, 39.65 23.53, 41.99 21.49 C44.34 19.46, 46.54 17.89, 49.25 15.64 C51.95 13.39, 55.91 10.66, 58.2 8.01 C60.48 5.36, 62.17 1.12, 62.97 -0.26" stroke="#E1E1E1" stroke-width="4" fill="none"></path></g></g><mask></mask><g stroke-linecap="round"><g transform="translate(238.60994205781043 128.2040273900667) rotate(0 7.6029461379085035 -19.684416022745665)"><path d="M0 0 C-0.18 -1.54, -0.75 -6.46, -1.11 -9.26 C-1.47 -12.06, -1.59 -14.4, -2.13 -16.81 C-2.67 -19.22, -3.51 -21.62, -4.35 -23.72 C-5.19 -25.82, -7.64 -28.4, -7.2 -29.39 C-6.76 -30.39, -3.68 -29.35, -1.7 -29.69 C0.28 -30.03, 2.22 -30.6, 4.67 -31.45 C7.13 -32.3, 10.08 -33.46, 13.04 -34.78 C15.99 -36.1, 20.85 -38.6, 22.41 -39.37 M0 0 C-0.18 -1.54, -0.75 -6.46, -1.11 -9.26 C-1.47 -12.06, -1.59 -14.4, -2.13 -16.81 C-2.67 -19.22, -3.51 -21.62, -4.35 -23.72 C-5.19 -25.82, -7.64 -28.4, -7.2 -29.39 C-6.76 -30.39, -3.68 -29.35, -1.7 -29.69 C0.28 -30.03, 2.22 -30.6, 4.67 -31.45 C7.13 -32.3, 10.08 -33.46, 13.04 -34.78 C15.99 -36.1, 20.85 -38.6, 22.41 -39.37" stroke="#E1E1E1" stroke-width="4" fill="none"></path></g></g><mask></mask><g stroke-linecap="round"><g transform="translate(311.6514038194747 84.24197995274073) rotate(59.999999999999986 7.602946137908496 -19.684416022745665)"><path d="M0 0 C-0.18 -1.54, -0.75 -6.46, -1.11 -9.26 C-1.47 -12.06, -1.59 -14.4, -2.13 -16.81 C-2.67 -19.22, -3.51 -21.62, -4.35 -23.72 C-5.19 -25.82, -7.64 -28.4, -7.2 -29.39 C-6.76 -30.39, -3.68 -29.35, -1.7 -29.69 C0.28 -30.03, 2.22 -30.6, 4.67 -31.45 C7.13 -32.3, 10.08 -33.46, 13.04 -34.78 C15.99 -36.1, 20.85 -38.6, 22.41 -39.37 M0 0 C-0.18 -1.54, -0.75 -6.46, -1.11 -9.26 C-1.47 -12.06, -1.59 -14.4, -2.13 -16.81 C-2.67 -19.22, -3.51 -21.62, -4.35 -23.72 C-5.19 -25.82, -7.64 -28.4, -7.2 -29.39 C-6.76 -30.39, -3.68 -29.35, -1.7 -29.69 C0.28 -30.03, 2.22 -30.6, 4.67 -31.45 C7.13 -32.3, 10.08 -33.46, 13.04 -34.78 C15.99 -36.1, 20.85 -38.6, 22.41 -39.37" stroke="#E1E1E1" stroke-width="4" fill="none"></path></g></g><mask></mask><g stroke-linecap="round"><g transform="translate(385.469351303701 126.30144099034908) rotate(119.99999999999997 7.602946137908493 -19.684416022745665)"><path d="M0 0 C-0.18 -1.54, -0.75 -6.46, -1.11 -9.26 C-1.47 -12.06, -1.59 -14.4, -2.13 -16.81 C-2.67 -19.22, -3.51 -21.62, -4.35 -23.72 C-5.19 -25.82, -7.64 -28.4, -7.2 -29.39 C-6.76 -30.39, -3.68 -29.35, -1.7 -29.69 C0.28 -30.03, 2.22 -30.6, 4.67 -31.45 C7.13 -32.3, 10.08 -33.46, 13.04 -34.78 C15.99 -36.1, 20.85 -38.6, 22.41 -39.37 M0 0 C-0.18 -1.54, -0.75 -6.46, -1.11 -9.26 C-1.47 -12.06, -1.59 -14.4, -2.13 -16.81 C-2.67 -19.22, -3.51 -21.62, -4.35 -23.72 C-5.19 -25.82, -7.64 -28.4, -7.2 -29.39 C-6.76 -30.39, -3.68 -29.35, -1.7 -29.69 C0.28 -30.03, 2.22 -30.6, 4.67 -31.45 C7.13 -32.3, 10.08 -33.46, 13.04 -34.78 C15.99 -36.1, 20.85 -38.6, 22.41 -39.37" stroke="#E1E1E1" stroke-width="4" fill="none"></path></g></g><mask></mask><g stroke-linecap="round"><g transform="translate(387.35066425315455 211.41466563226197) rotate(180 7.602946137908493 -19.684416022745665)"><path d="M0 0 C-0.18 -1.54, -0.75 -6.46, -1.11 -9.26 C-1.47 -12.06, -1.59 -14.4, -2.13 -16.81 C-2.67 -19.22, -3.51 -21.62, -4.35 -23.72 C-5.19 -25.82, -7.64 -28.4, -7.2 -29.39 C-6.76 -30.39, -3.68 -29.35, -1.7 -29.69 C0.28 -30.03, 2.22 -30.6, 4.67 -31.45 C7.13 -32.3, 10.08 -33.46, 13.04 -34.78 C15.99 -36.1, 20.85 -38.6, 22.41 -39.37 M0 0 C-0.18 -1.54, -0.75 -6.46, -1.11 -9.26 C-1.47 -12.06, -1.59 -14.4, -2.13 -16.81 C-2.67 -19.22, -3.51 -21.62, -4.35 -23.72 C-5.19 -25.82, -7.64 -28.4, -7.2 -29.39 C-6.76 -30.39, -3.68 -29.35, -1.7 -29.69 C0.28 -30.03, 2.22 -30.6, 4.67 -31.45 C7.13 -32.3, 10.08 -33.46, 13.04 -34.78 C15.99 -36.1, 20.85 -38.6, 22.41 -39.37" stroke="#E1E1E1" stroke-width="4" fill="none"></path></g></g><mask></mask><g stroke-linecap="round"><g transform="translate(313.9970329442603 255.23057371559764) rotate(239.99999999999994 7.602946137908496 -19.684416022745665)"><path d="M0 0 C-0.18 -1.54, -0.75 -6.46, -1.11 -9.26 C-1.47 -12.06, -1.59 -14.4, -2.13 -16.81 C-2.67 -19.22, -3.51 -21.62, -4.35 -23.72 C-5.19 -25.82, -7.64 -28.4, -7.2 -29.39 C-6.76 -30.39, -3.68 -29.35, -1.7 -29.69 C0.28 -30.03, 2.22 -30.6, 4.67 -31.45 C7.13 -32.3, 10.08 -33.46, 13.04 -34.78 C15.99 -36.1, 20.85 -38.6, 22.41 -39.37 M0 0 C-0.18 -1.54, -0.75 -6.46, -1.11 -9.26 C-1.47 -12.06, -1.59 -14.4, -2.13 -16.81 C-2.67 -19.22, -3.51 -21.62, -4.35 -23.72 C-5.19 -25.82, -7.64 -28.4, -7.2 -29.39 C-6.76 -30.39, -3.68 -29.35, -1.7 -29.69 C0.28 -30.03, 2.22 -30.6, 4.67 -31.45 C7.13 -32.3, 10.08 -33.46, 13.04 -34.78 C15.99 -36.1, 20.85 -38.6, 22.41 -39.37" stroke="#E1E1E1" stroke-width="4" fill="none"></path></g></g><mask></mask><g stroke-linecap="round"><g transform="translate(239.21530566980357 212.89363289193818) rotate(299.99999999999994 7.6029461379085035 -19.684416022745665)"><path d="M0 0 C-0.18 -1.54, -0.75 -6.46, -1.11 -9.26 C-1.47 -12.06, -1.59 -14.4, -2.13 -16.81 C-2.67 -19.22, -3.51 -21.62, -4.35 -23.72 C-5.19 -25.82, -7.64 -28.4, -7.2 -29.39 C-6.76 -30.39, -3.68 -29.35, -1.7 -29.69 C0.28 -30.03, 2.22 -30.6, 4.67 -31.45 C7.13 -32.3, 10.08 -33.46, 13.04 -34.78 C15.99 -36.1, 20.85 -38.6, 22.41 -39.37 M0 0 C-0.18 -1.54, -0.75 -6.46, -1.11 -9.26 C-1.47 -12.06, -1.59 -14.4, -2.13 -16.81 C-2.67 -19.22, -3.51 -21.62, -4.35 -23.72 C-5.19 -25.82, -7.64 -28.4, -7.2 -29.39 C-6.76 -30.39, -3.68 -29.35, -1.7 -29.69 C0.28 -30.03, 2.22 -30.6, 4.67 -31.45 C7.13 -32.3, 10.08 -33.46, 13.04 -34.78 C15.99 -36.1, 20.85 -38.6, 22.41 -39.37" stroke="#E1E1E1" stroke-width="4" fill="none"></path></g></g><mask></mask><g stroke-linecap="round"><g transform="translate(259.61376967533164 79.79952857800447) rotate(29.999999999999964 7.6029461379085035 -19.684416022745665)"><path d="M0 0 C-0.18 -1.54, -0.75 -6.46, -1.11 -9.26 C-1.47 -12.06, -1.59 -14.4, -2.13 -16.81 C-2.67 -19.22, -3.51 -21.62, -4.35 -23.72 C-5.19 -25.82, -7.64 -28.4, -7.2 -29.39 C-6.76 -30.39, -3.68 -29.35, -1.7 -29.69 C0.28 -30.03, 2.22 -30.6, 4.67 -31.45 C7.13 -32.3, 10.08 -33.46, 13.04 -34.78 C15.99 -36.1, 20.85 -38.6, 22.41 -39.37 M0 0 C-0.18 -1.54, -0.75 -6.46, -1.11 -9.26 C-1.47 -12.06, -1.59 -14.4, -2.13 -16.81 C-2.67 -19.22, -3.51 -21.62, -4.35 -23.72 C-5.19 -25.82, -7.64 -28.4, -7.2 -29.39 C-6.76 -30.39, -3.68 -29.35, -1.7 -29.69 C0.28 -30.03, 2.22 -30.6, 4.67 -31.45 C7.13 -32.3, 10.08 -33.46, 13.04 -34.78 C15.99 -36.1, 20.85 -38.6, 22.41 -39.37" stroke="#E1E1E1" stroke-width="4" fill="none"></path></g></g><mask></mask><g stroke-linecap="round"><g transform="translate(311.4574039903109 64.67700469138174) rotate(59.999999999999986 7.602946137908496 -19.684416022745665)"><path d="M0 0 C-0.18 -1.54, -0.75 -6.46, -1.11 -9.26 C-1.47 -12.06, -1.59 -14.4, -2.13 -16.81 C-2.67 -19.22, -3.51 -21.62, -4.35 -23.72 C-5.19 -25.82, -7.64 -28.4, -7.2 -29.39 C-6.76 -30.39, -3.68 -29.35, -1.7 -29.69 C0.28 -30.03, 2.22 -30.6, 4.67 -31.45 C7.13 -32.3, 10.08 -33.46, 13.04 -34.78 C15.99 -36.1, 20.85 -38.6, 22.41 -39.37 M0 0 C-0.18 -1.54, -0.75 -6.46, -1.11 -9.26 C-1.47 -12.06, -1.59 -14.4, -2.13 -16.81 C-2.67 -19.22, -3.51 -21.62, -4.35 -23.72 C-5.19 -25.82, -7.64 -28.4, -7.2 -29.39 C-6.76 -30.39, -3.68 -29.35, -1.7 -29.69 C0.28 -30.03, 2.22 -30.6, 4.67 -31.45 C7.13 -32.3, 10.08 -33.46, 13.04 -34.78 C15.99 -36.1, 20.85 -38.6, 22.41 -39.37" stroke="#E1E1E1" stroke-width="4" fill="none"></path></g></g><mask></mask><g stroke-linecap="round"><g transform="translate(364.2216436526764 78.2650617684659) rotate(89.99999999999994 7.602946137908493 -19.684416022745665)"><path d="M0 0 C-0.18 -1.54, -0.75 -6.46, -1.11 -9.26 C-1.47 -12.06, -1.59 -14.4, -2.13 -16.81 C-2.67 -19.22, -3.51 -21.62, -4.35 -23.72 C-5.19 -25.82, -7.64 -28.4, -7.2 -29.39 C-6.76 -30.39, -3.68 -29.35, -1.7 -29.69 C0.28 -30.03, 2.22 -30.6, 4.67 -31.45 C7.13 -32.3, 10.08 -33.46, 13.04 -34.78 C15.99 -36.1, 20.85 -38.6, 22.41 -39.37 M0 0 C-0.18 -1.54, -0.75 -6.46, -1.11 -9.26 C-1.47 -12.06, -1.59 -14.4, -2.13 -16.81 C-2.67 -19.22, -3.51 -21.62, -4.35 -23.72 C-5.19 -25.82, -7.64 -28.4, -7.2 -29.39 C-6.76 -30.39, -3.68 -29.35, -1.7 -29.69 C0.28 -30.03, 2.22 -30.6, 4.67 -31.45 C7.13 -32.3, 10.08 -33.46, 13.04 -34.78 C15.99 -36.1, 20.85 -38.6, 22.41 -39.37" stroke="#E1E1E1" stroke-width="4" fill="none"></path></g></g><mask></mask><g stroke-linecap="round"><g transform="translate(401.8904495422703 116.74688343120135) rotate(119.99999999999997 7.602946137908495 -19.684416022745665)"><path d="M0 0 C-0.18 -1.54, -0.75 -6.46, -1.11 -9.26 C-1.47 -12.06, -1.59 -14.4, -2.13 -16.81 C-2.67 -19.22, -3.51 -21.62, -4.35 -23.72 C-5.19 -25.82, -7.64 -28.4, -7.2 -29.39 C-6.76 -30.39, -3.68 -29.35, -1.7 -29.69 C0.28 -30.03, 2.22 -30.6, 4.67 -31.45 C7.13 -32.3, 10.08 -33.46, 13.04 -34.78 C15.99 -36.1, 20.85 -38.6, 22.41 -39.37 M0 0 C-0.18 -1.54, -0.75 -6.46, -1.11 -9.26 C-1.47 -12.06, -1.59 -14.4, -2.13 -16.81 C-2.67 -19.22, -3.51 -21.62, -4.35 -23.72 C-5.19 -25.82, -7.64 -28.4, -7.2 -29.39 C-6.76 -30.39, -3.68 -29.35, -1.7 -29.69 C0.28 -30.03, 2.22 -30.6, 4.67 -31.45 C7.13 -32.3, 10.08 -33.46, 13.04 -34.78 C15.99 -36.1, 20.85 -38.6, 22.41 -39.37" stroke="#E1E1E1" stroke-width="4" fill="none"></path></g></g><mask></mask><g stroke-linecap="round"><g transform="translate(416.88453224806545 168.36182336792183) rotate(149.99999999999991 7.602946137908495 -19.684416022745665)"><path d="M0 0 C-0.18 -1.54, -0.75 -6.46, -1.11 -9.26 C-1.47 -12.06, -1.59 -14.4, -2.13 -16.81 C-2.67 -19.22, -3.51 -21.62, -4.35 -23.72 C-5.19 -25.82, -7.64 -28.4, -7.2 -29.39 C-6.76 -30.39, -3.68 -29.35, -1.7 -29.69 C0.28 -30.03, 2.22 -30.6, 4.67 -31.45 C7.13 -32.3, 10.08 -33.46, 13.04 -34.78 C15.99 -36.1, 20.85 -38.6, 22.41 -39.37 M0 0 C-0.18 -1.54, -0.75 -6.46, -1.11 -9.26 C-1.47 -12.06, -1.59 -14.4, -2.13 -16.81 C-2.67 -19.22, -3.51 -21.62, -4.35 -23.72 C-5.19 -25.82, -7.64 -28.4, -7.2 -29.39 C-6.76 -30.39, -3.68 -29.35, -1.7 -29.69 C0.28 -30.03, 2.22 -30.6, 4.67 -31.45 C7.13 -32.3, 10.08 -33.46, 13.04 -34.78 C15.99 -36.1, 20.85 -38.6, 22.41 -39.37" stroke="#E1E1E1" stroke-width="4" fill="none"></path></g></g><mask></mask><g stroke-linecap="round"><g transform="translate(403.6154488789124 220.6214413409117) rotate(180 7.602946137908495 -19.684416022745665)"><path d="M0 0 C-0.18 -1.54, -0.75 -6.46, -1.11 -9.26 C-1.47 -12.06, -1.59 -14.4, -2.13 -16.81 C-2.67 -19.22, -3.51 -21.62, -4.35 -23.72 C-5.19 -25.82, -7.64 -28.4, -7.2 -29.39 C-6.76 -30.39, -3.68 -29.35, -1.7 -29.69 C0.28 -30.03, 2.22 -30.6, 4.67 -31.45 C7.13 -32.3, 10.08 -33.46, 13.04 -34.78 C15.99 -36.1, 20.85 -38.6, 22.41 -39.37 M0 0 C-0.18 -1.54, -0.75 -6.46, -1.11 -9.26 C-1.47 -12.06, -1.59 -14.4, -2.13 -16.81 C-2.67 -19.22, -3.51 -21.62, -4.35 -23.72 C-5.19 -25.82, -7.64 -28.4, -7.2 -29.39 C-6.76 -30.39, -3.68 -29.35, -1.7 -29.69 C0.28 -30.03, 2.22 -30.6, 4.67 -31.45 C7.13 -32.3, 10.08 -33.46, 13.04 -34.78 C15.99 -36.1, 20.85 -38.6, 22.41 -39.37" stroke="#E1E1E1" stroke-width="4" fill="none"></path></g></g><mask></mask><g stroke-linecap="round"><g transform="translate(365.937393663117 258.91550168175047) rotate(209.99999999999997 7.602946137908493 -19.684416022745665)"><path d="M0 0 C-0.18 -1.54, -0.75 -6.46, -1.11 -9.26 C-1.47 -12.06, -1.59 -14.4, -2.13 -16.81 C-2.67 -19.22, -3.51 -21.62, -4.35 -23.72 C-5.19 -25.82, -7.64 -28.4, -7.2 -29.39 C-6.76 -30.39, -3.68 -29.35, -1.7 -29.69 C0.28 -30.03, 2.22 -30.6, 4.67 -31.45 C7.13 -32.3, 10.08 -33.46, 13.04 -34.78 C15.99 -36.1, 20.85 -38.6, 22.41 -39.37 M0 0 C-0.18 -1.54, -0.75 -6.46, -1.11 -9.26 C-1.47 -12.06, -1.59 -14.4, -2.13 -16.81 C-2.67 -19.22, -3.51 -21.62, -4.35 -23.72 C-5.19 -25.82, -7.64 -28.4, -7.2 -29.39 C-6.76 -30.39, -3.68 -29.35, -1.7 -29.69 C0.28 -30.03, 2.22 -30.6, 4.67 -31.45 C7.13 -32.3, 10.08 -33.46, 13.04 -34.78 C15.99 -36.1, 20.85 -38.6, 22.41 -39.37" stroke="#E1E1E1" stroke-width="4" fill="none"></path></g></g><mask></mask><g stroke-linecap="round"><g transform="translate(313.6352287895998 273.42491969456853) rotate(241.5192991268011 7.602946137908496 -19.684416022745665)"><path d="M0 0 C-0.18 -1.54, -0.75 -6.46, -1.11 -9.26 C-1.47 -12.06, -1.59 -14.4, -2.13 -16.81 C-2.67 -19.22, -3.51 -21.62, -4.35 -23.72 C-5.19 -25.82, -7.64 -28.4, -7.2 -29.39 C-6.76 -30.39, -3.68 -29.35, -1.7 -29.69 C0.28 -30.03, 2.22 -30.6, 4.67 -31.45 C7.13 -32.3, 10.08 -33.46, 13.04 -34.78 C15.99 -36.1, 20.85 -38.6, 22.41 -39.37 M0 0 C-0.18 -1.54, -0.75 -6.46, -1.11 -9.26 C-1.47 -12.06, -1.59 -14.4, -2.13 -16.81 C-2.67 -19.22, -3.51 -21.62, -4.35 -23.72 C-5.19 -25.82, -7.64 -28.4, -7.2 -29.39 C-6.76 -30.39, -3.68 -29.35, -1.7 -29.69 C0.28 -30.03, 2.22 -30.6, 4.67 -31.45 C7.13 -32.3, 10.08 -33.46, 13.04 -34.78 C15.99 -36.1, 20.85 -38.6, 22.41 -39.37" stroke="#E1E1E1" stroke-width="4" fill="none"></path></g></g><mask></mask><g stroke-linecap="round"><g transform="translate(261.6271924893011 260.441640505048) rotate(270 7.6029461379085035 -19.684416022745665)"><path d="M0 0 C-0.18 -1.54, -0.75 -6.46, -1.11 -9.26 C-1.47 -12.06, -1.59 -14.4, -2.13 -16.81 C-2.67 -19.22, -3.51 -21.62, -4.35 -23.72 C-5.19 -25.82, -7.64 -28.4, -7.2 -29.39 C-6.76 -30.39, -3.68 -29.35, -1.7 -29.69 C0.28 -30.03, 2.22 -30.6, 4.67 -31.45 C7.13 -32.3, 10.08 -33.46, 13.04 -34.78 C15.99 -36.1, 20.85 -38.6, 22.41 -39.37 M0 0 C-0.18 -1.54, -0.75 -6.46, -1.11 -9.26 C-1.47 -12.06, -1.59 -14.4, -2.13 -16.81 C-2.67 -19.22, -3.51 -21.62, -4.35 -23.72 C-5.19 -25.82, -7.64 -28.4, -7.2 -29.39 C-6.76 -30.39, -3.68 -29.35, -1.7 -29.69 C0.28 -30.03, 2.22 -30.6, 4.67 -31.45 C7.13 -32.3, 10.08 -33.46, 13.04 -34.78 C15.99 -36.1, 20.85 -38.6, 22.41 -39.37" stroke="#E1E1E1" stroke-width="4" fill="none"></path></g></g><mask></mask><g stroke-linecap="round"><g transform="translate(223.25173807788764 222.7830088742786) rotate(299.99999999999994 7.6029461379085035 -19.684416022745665)"><path d="M0 0 C-0.18 -1.54, -0.75 -6.46, -1.11 -9.26 C-1.47 -12.06, -1.59 -14.4, -2.13 -16.81 C-2.67 -19.22, -3.51 -21.62, -4.35 -23.72 C-5.19 -25.82, -7.64 -28.4, -7.2 -29.39 C-6.76 -30.39, -3.68 -29.35, -1.7 -29.69 C0.28 -30.03, 2.22 -30.6, 4.67 -31.45 C7.13 -32.3, 10.08 -33.46, 13.04 -34.78 C15.99 -36.1, 20.85 -38.6, 22.41 -39.37 M0 0 C-0.18 -1.54, -0.75 -6.46, -1.11 -9.26 C-1.47 -12.06, -1.59 -14.4, -2.13 -16.81 C-2.67 -19.22, -3.51 -21.62, -4.35 -23.72 C-5.19 -25.82, -7.64 -28.4, -7.2 -29.39 C-6.76 -30.39, -3.68 -29.35, -1.7 -29.69 C0.28 -30.03, 2.22 -30.6, 4.67 -31.45 C7.13 -32.3, 10.08 -33.46, 13.04 -34.78 C15.99 -36.1, 20.85 -38.6, 22.41 -39.37" stroke="#E1E1E1" stroke-width="4" fill="none"></path></g></g><mask></mask><g stroke-linecap="round"><g transform="translate(208.33072504908768 170.44847135905286) rotate(329.99999999999994 7.6029461379085035 -19.684416022745665)"><path d="M0 0 C-0.18 -1.54, -0.75 -6.46, -1.11 -9.26 C-1.47 -12.06, -1.59 -14.4, -2.13 -16.81 C-2.67 -19.22, -3.51 -21.62, -4.35 -23.72 C-5.19 -25.82, -7.64 -28.4, -7.2 -29.39 C-6.76 -30.39, -3.68 -29.35, -1.7 -29.69 C0.28 -30.03, 2.22 -30.6, 4.67 -31.45 C7.13 -32.3, 10.08 -33.46, 13.04 -34.78 C15.99 -36.1, 20.85 -38.6, 22.41 -39.37 M0 0 C-0.18 -1.54, -0.75 -6.46, -1.11 -9.26 C-1.47 -12.06, -1.59 -14.4, -2.13 -16.81 C-2.67 -19.22, -3.51 -21.62, -4.35 -23.72 C-5.19 -25.82, -7.64 -28.4, -7.2 -29.39 C-6.76 -30.39, -3.68 -29.35, -1.7 -29.69 C0.28 -30.03, 2.22 -30.6, 4.67 -31.45 C7.13 -32.3, 10.08 -33.46, 13.04 -34.78 C15.99 -36.1, 20.85 -38.6, 22.41 -39.37" stroke="#E1E1E1" stroke-width="4" fill="none"></path></g></g><mask></mask><g stroke-linecap="round"><g transform="translate(222.2361620609252 118.05658802137543) rotate(0 7.6029461379085035 -19.684416022745665)"><path d="M0 0 C-0.18 -1.54, -0.75 -6.46, -1.11 -9.26 C-1.47 -12.06, -1.59 -14.4, -2.13 -16.81 C-2.67 -19.22, -3.51 -21.62, -4.35 -23.72 C-5.19 -25.82, -7.64 -28.4, -7.2 -29.39 C-6.76 -30.39, -3.68 -29.35, -1.7 -29.69 C0.28 -30.03, 2.22 -30.6, 4.67 -31.45 C7.13 -32.3, 10.08 -33.46, 13.04 -34.78 C15.99 -36.1, 20.85 -38.6, 22.41 -39.37 M0 0 C-0.18 -1.54, -0.75 -6.46, -1.11 -9.26 C-1.47 -12.06, -1.59 -14.4, -2.13 -16.81 C-2.67 -19.22, -3.51 -21.62, -4.35 -23.72 C-5.19 -25.82, -7.64 -28.4, -7.2 -29.39 C-6.76 -30.39, -3.68 -29.35, -1.7 -29.69 C0.28 -30.03, 2.22 -30.6, 4.67 -31.45 C7.13 -32.3, 10.08 -33.46, 13.04 -34.78 C15.99 -36.1, 20.85 -38.6, 22.41 -39.37" stroke="#E1E1E1" stroke-width="4" fill="none"></path></g></g><mask></mask><g stroke-linecap="round"><g transform="translate(220.33659663437277 80.73888783048744) rotate(0 15.38592098989048 -15.658265323414241)"><path d="M0 0 C0.3 -2.5, 1.64 -10.01, 1.82 -15.01 C2.01 -20.01, -1.16 -27.56, 1.11 -30.01 C3.39 -32.46, 10.52 -29.51, 15.47 -29.73 C20.41 -29.94, 28.22 -31.05, 30.77 -31.32" stroke="#E1E1E1" stroke-width="4.5" fill="none" stroke-dasharray="8 12"></path></g></g><mask></mask><g stroke-linecap="round"><g transform="translate(245.1617242928594 62.07472933116617) rotate(14.999999999999982 17.37033910400936 -15.658265323414241)"><path d="M0 0 C0.34 -2.5, 1.85 -10.01, 2.06 -15.01 C2.27 -20.01, -1.31 -27.56, 1.26 -30.01 C3.82 -32.46, 11.88 -29.51, 17.46 -29.73 C23.04 -29.94, 31.86 -31.05, 34.74 -31.32" stroke="#E1E1E1" stroke-width="4.5" fill="none" stroke-dasharray="8 12"></path></g></g><mask></mask><g stroke-linecap="round"><g transform="translate(274.1361501935387 50.825947024942366) rotate(29.999999999999964 17.37033910400936 -15.658265323414241)"><path d="M0 0 C0.34 -2.5, 1.85 -10.01, 2.06 -15.01 C2.27 -20.01, -1.31 -27.56, 1.26 -30.01 C3.82 -32.46, 11.88 -29.51, 17.46 -29.73 C23.04 -29.94, 31.86 -31.05, 34.74 -31.32" stroke="#E1E1E1" stroke-width="4.5" fill="none" stroke-dasharray="8 12"></path></g></g><mask></mask><g stroke-linecap="round"><g transform="translate(304.73771896824553 47.19981556925552) rotate(44.99999999999995 17.37033910400936 -15.658265323414241)"><path d="M0 0 C0.34 -2.5, 1.85 -10.01, 2.06 -15.01 C2.27 -20.01, -1.31 -27.56, 1.26 -30.01 C3.82 -32.46, 11.88 -29.51, 17.46 -29.73 C23.04 -29.94, 31.86 -31.05, 34.74 -31.32" stroke="#E1E1E1" stroke-width="4.5" fill="none" stroke-dasharray="8 12"></path></g></g><mask></mask><g stroke-linecap="round"><g transform="translate(335.80141818534935 51.431103534040744) rotate(59.999999999999986 17.370339104009357 -15.658265323414241)"><path d="M0 0 C0.34 -2.5, 1.85 -10.01, 2.06 -15.01 C2.27 -20.01, -1.31 -27.56, 1.26 -30.01 C3.82 -32.46, 11.88 -29.51, 17.46 -29.73 C23.04 -29.94, 31.86 -31.05, 34.74 -31.32" stroke="#E1E1E1" stroke-width="4.5" fill="none" stroke-dasharray="8 12"></path></g></g><mask></mask><g stroke-linecap="round"><g transform="translate(363.49679343673654 63.313685117292266) rotate(74.99999999999996 17.370339104009357 -15.658265323414241)"><path d="M0 0 C0.34 -2.5, 1.85 -10.01, 2.06 -15.01 C2.27 -20.01, -1.31 -27.56, 1.26 -30.01 C3.82 -32.46, 11.88 -29.51, 17.46 -29.73 C23.04 -29.94, 31.86 -31.05, 34.74 -31.32" stroke="#E1E1E1" stroke-width="4.5" fill="none" stroke-dasharray="8 12"></path></g></g><mask></mask><g stroke-linecap="round"><g transform="translate(388.7312790111191 83.09034406247986) rotate(89.99999999999994 17.370339104009357 -15.658265323414241)"><path d="M0 0 C0.34 -2.5, 1.85 -10.01, 2.06 -15.01 C2.27 -20.01, -1.31 -27.56, 1.26 -30.01 C3.82 -32.46, 11.88 -29.51, 17.46 -29.73 C23.04 -29.94, 31.86 -31.05, 34.74 -31.32" stroke="#E1E1E1" stroke-width="4.5" fill="none" stroke-dasharray="8 12"></path></g></g><mask></mask><g stroke-linecap="round"><g transform="translate(406.0626729756637 108.22266816065087) rotate(104.99999999999999 17.370339104009357 -15.658265323414241)"><path d="M0 0 C0.34 -2.5, 1.85 -10.01, 2.06 -15.01 C2.27 -20.01, -1.31 -27.56, 1.26 -30.01 C3.82 -32.46, 11.88 -29.51, 17.46 -29.73 C23.04 -29.94, 31.86 -31.05, 34.74 -31.32" stroke="#E1E1E1" stroke-width="4.5" fill="none" stroke-dasharray="8 12"></path></g></g><mask></mask><g stroke-linecap="round"><g transform="translate(417.76256580145184 136.5754825589603) rotate(119.99999999999997 17.370339104009357 -15.658265323414241)"><path d="M0 0 C0.34 -2.5, 1.85 -10.01, 2.06 -15.01 C2.27 -20.01, -1.31 -27.56, 1.26 -30.01 C3.82 -32.46, 11.88 -29.51, 17.46 -29.73 C23.04 -29.94, 31.86 -31.05, 34.74 -31.32" stroke="#E1E1E1" stroke-width="4.5" fill="none" stroke-dasharray="8 12"></path></g></g><mask></mask><g stroke-linecap="round"><g transform="translate(421.2354550428212 167.70107961165115) rotate(134.99999999999994 17.370339104009357 -15.658265323414241)"><path d="M0 0 C0.34 -2.5, 1.85 -10.01, 2.06 -15.01 C2.27 -20.01, -1.31 -27.56, 1.26 -30.01 C3.82 -32.46, 11.88 -29.51, 17.46 -29.73 C23.04 -29.94, 31.86 -31.05, 34.74 -31.32" stroke="#E1E1E1" stroke-width="4.5" fill="none" stroke-dasharray="8 12"></path></g></g><mask></mask><g stroke-linecap="round"><g transform="translate(416.4278561622264 197.58210950412933) rotate(149.99999999999991 17.370339104009357 -15.658265323414241)"><path d="M0 0 C0.34 -2.5, 1.85 -10.01, 2.06 -15.01 C2.27 -20.01, -1.31 -27.56, 1.26 -30.01 C3.82 -32.46, 11.88 -29.51, 17.46 -29.73 C23.04 -29.94, 31.86 -31.05, 34.74 -31.32" stroke="#E1E1E1" stroke-width="4.5" fill="none" stroke-dasharray="8 12"></path></g></g><mask></mask><g stroke-linecap="round"><g transform="translate(403.71716567179334 226.2660472753388) rotate(164.99999999999991 17.370339104009357 -15.658265323414213)"><path d="M0 0 C0.34 -2.5, 1.85 -10.01, 2.06 -15.01 C2.27 -20.01, -1.31 -27.56, 1.26 -30.01 C3.82 -32.46, 11.88 -29.51, 17.46 -29.73 C23.04 -29.94, 31.86 -31.05, 34.74 -31.32" stroke="#E1E1E1" stroke-width="4.5" fill="none" stroke-dasharray="8 12"></path></g></g><mask></mask><g stroke-linecap="round"><g transform="translate(385.79143229563533 250.21570204888405) rotate(180 17.370339104009357 -15.658265323414213)"><path d="M0 0 C0.34 -2.5, 1.85 -10.01, 2.06 -15.01 C2.27 -20.01, -1.31 -27.56, 1.26 -30.01 C3.82 -32.46, 11.88 -29.51, 17.46 -29.73 C23.04 -29.94, 31.86 -31.05, 34.74 -31.32" stroke="#E1E1E1" stroke-width="4.5" fill="none" stroke-dasharray="8 12"></path></g></g><mask></mask><g stroke-linecap="round"><g transform="translate(361.1152291412616 268.74959668343865) rotate(195 17.370339104009357 -15.658265323414213)"><path d="M0 0 C0.34 -2.5, 1.85 -10.01, 2.06 -15.01 C2.27 -20.01, -1.31 -27.56, 1.26 -30.01 C3.82 -32.46, 11.88 -29.51, 17.46 -29.73 C23.04 -29.94, 31.86 -31.05, 34.74 -31.32" stroke="#E1E1E1" stroke-width="4.5" fill="none" stroke-dasharray="8 12"></path></g></g><mask></mask><g stroke-linecap="round"><g transform="translate(332.336441911816 281.02073215028497) rotate(209.99999999999997 17.370339104009357 -15.658265323414213)"><path d="M0 0 C0.34 -2.5, 1.85 -10.01, 2.06 -15.01 C2.27 -20.01, -1.31 -27.56, 1.26 -30.01 C3.82 -32.46, 11.88 -29.51, 17.46 -29.73 C23.04 -29.94, 31.86 -31.05, 34.74 -31.32" stroke="#E1E1E1" stroke-width="4.5" fill="none" stroke-dasharray="8 12"></path></g></g><mask></mask><g stroke-linecap="round"><g transform="translate(300.5120524156772 283.90714627398404) rotate(224.99999999999997 17.37033910400936 -15.658265323414213)"><path d="M0 0 C0.34 -2.5, 1.85 -10.01, 2.06 -15.01 C2.27 -20.01, -1.31 -27.56, 1.26 -30.01 C3.82 -32.46, 11.88 -29.51, 17.46 -29.73 C23.04 -29.94, 31.86 -31.05, 34.74 -31.32" stroke="#E1E1E1" stroke-width="4.5" fill="none" stroke-dasharray="8 12"></path></g></g><mask></mask><g stroke-linecap="round"><g transform="translate(270.26133114436306 280.0289770264891) rotate(239.99999999999994 17.37033910400936 -15.658265323414213)"><path d="M0 0 C0.34 -2.5, 1.85 -10.01, 2.06 -15.01 C2.27 -20.01, -1.31 -27.56, 1.26 -30.01 C3.82 -32.46, 11.88 -29.51, 17.46 -29.73 C23.04 -29.94, 31.86 -31.05, 34.74 -31.32" stroke="#E1E1E1" stroke-width="4.5" fill="none" stroke-dasharray="8 12"></path></g></g><mask></mask><g stroke-linecap="round"><g transform="translate(242.06482569098023 266.6362157206705) rotate(254.99999999999994 17.37033910400936 -15.658265323414213)"><path d="M0 0 C0.34 -2.5, 1.85 -10.01, 2.06 -15.01 C2.27 -20.01, -1.31 -27.56, 1.26 -30.01 C3.82 -32.46, 11.88 -29.51, 17.46 -29.73 C23.04 -29.94, 31.86 -31.05, 34.74 -31.32" stroke="#E1E1E1" stroke-width="4.5" fill="none" stroke-dasharray="8 12"></path></g></g><mask></mask><g stroke-linecap="round"><g transform="translate(218.43164523308218 250.08735798303962) rotate(270 17.37033910400936 -15.658265323414213)"><path d="M0 0 C0.34 -2.5, 1.85 -10.01, 2.06 -15.01 C2.27 -20.01, -1.31 -27.56, 1.26 -30.01 C3.82 -32.46, 11.88 -29.51, 17.46 -29.73 C23.04 -29.94, 31.86 -31.05, 34.74 -31.32" stroke="#E1E1E1" stroke-width="4.5" fill="none" stroke-dasharray="8 12"></path></g></g><mask></mask><g stroke-linecap="round"><g transform="translate(199.96400297863795 223.2011740675963) rotate(285 17.37033910400936 -15.658265323414213)"><path d="M0 0 C0.34 -2.5, 1.85 -10.01, 2.06 -15.01 C2.27 -20.01, -1.31 -27.56, 1.26 -30.01 C3.82 -32.46, 11.88 -29.51, 17.46 -29.73 C23.04 -29.94, 31.86 -31.05, 34.74 -31.32" stroke="#E1E1E1" stroke-width="4.5" fill="none" stroke-dasharray="8 12"></path></g></g><mask></mask><g stroke-linecap="round"><g transform="translate(186.52466434455027 196.5204163524387) rotate(299.99999999999994 17.37033910400936 -15.658265323414241)"><path d="M0 0 C0.34 -2.5, 1.85 -10.01, 2.06 -15.01 C2.27 -20.01, -1.31 -27.56, 1.26 -30.01 C3.82 -32.46, 11.88 -29.51, 17.46 -29.73 C23.04 -29.94, 31.86 -31.05, 34.74 -31.32" stroke="#E1E1E1" stroke-width="4.5" fill="none" stroke-dasharray="8 12"></path></g></g><mask></mask><g stroke-linecap="round"><g transform="translate(184.98130237457167 164.36327557933066) rotate(315 17.37033910400936 -15.658265323414241)"><path d="M0 0 C0.34 -2.5, 1.85 -10.01, 2.06 -15.01 C2.27 -20.01, -1.31 -27.56, 1.26 -30.01 C3.82 -32.46, 11.88 -29.51, 17.46 -29.73 C23.04 -29.94, 31.86 -31.05, 34.74 -31.32" stroke="#E1E1E1" stroke-width="4.5" fill="none" stroke-dasharray="8 12"></path></g></g><mask></mask><g stroke-linecap="round"><g transform="translate(187.5247292140283 133.32501237777535) rotate(329.99999999999994 17.37033910400936 -15.658265323414241)"><path d="M0 0 C0.34 -2.5, 1.85 -10.01, 2.06 -15.01 C2.27 -20.01, -1.31 -27.56, 1.26 -30.01 C3.82 -32.46, 11.88 -29.51, 17.46 -29.73 C23.04 -29.94, 31.86 -31.05, 34.74 -31.32" stroke="#E1E1E1" stroke-width="4.5" fill="none" stroke-dasharray="8 12"></path></g></g><mask></mask><g stroke-linecap="round"><g transform="translate(199.48485899379125 104.69359607877516) rotate(344.99999999999994 17.37033910400936 -15.658265323414241)"><path d="M0 0 C0.34 -2.5, 1.85 -10.01, 2.06 -15.01 C2.27 -20.01, -1.31 -27.56, 1.26 -30.01 C3.82 -32.46, 11.88 -29.51, 17.46 -29.73 C23.04 -29.94, 31.86 -31.05, 34.74 -31.32" stroke="#E1E1E1" stroke-width="4.5" fill="none" stroke-dasharray="8 12"></path></g></g><mask></mask></svg>