<svg version="1.1" xmlns="http://www.w3.org/2000/svg" viewBox="0 0 515.6718571596983 572.1115410096273" width="515.6718571596983" height="572.1115410096273" class="excalidraw-svg"><!-- svg-source:excalidraw --><metadata></metadata><defs><style class="style-fonts">
      </style></defs><rect x="0" y="0" width="515.6718571596983" height="572.1115410096273" fill="#000000"></rect><g stroke-linecap="round"><g transform="translate(312.6301765123289 41.05873290553012) rotate(329.99999999999994 12.987117334707616 -0.854016665200561)" fill-rule="evenodd"><path d="M0 0 C0.45 -1.47, 1.19 -6.55, 2.7 -8.82 C4.21 -11.08, 6.65 -12.74, 9.06 -13.57 C11.47 -14.4, 14.76 -14.5, 17.19 -13.79 C19.62 -13.08, 22.14 -11.28, 23.64 -9.31 C25.15 -7.33, 26.16 -4.7, 26.23 -1.95 C26.3 0.79, 25.53 4.84, 24.07 7.15 C22.6 9.45, 19.87 10.97, 17.42 11.88 C14.96 12.78, 11.95 13.27, 9.34 12.58 C6.72 11.89, 3.51 10.23, 1.74 7.74 C-0.03 5.25, 0.39 -1.58, -1.29 -2.36 C-2.96 -3.15, -5.86 2.08, -8.31 3.04 C-10.75 4, -14.92 2.11, -15.97 3.41 C-17.01 4.71, -15.71 8.07, -14.58 10.81 C-13.45 13.56, -11.75 17.21, -9.19 19.89 C-6.64 22.58, -2.72 25.4, 0.78 26.92 C4.27 28.45, 8.11 28.92, 11.77 29.02 C15.43 29.12, 19.32 28.56, 22.74 27.52 C26.15 26.49, 29.48 25.14, 32.25 22.81 C35.03 20.49, 37.6 17, 39.38 13.57 C41.16 10.15, 42.57 6.44, 42.91 2.27 C43.25 -1.9, 42.68 -7.57, 41.42 -11.43 C40.16 -15.29, 37.68 -18.22, 35.33 -20.9 C32.98 -23.57, 30.25 -25.82, 27.31 -27.46 C24.37 -29.1, 21.29 -30.22, 17.71 -30.73 C14.12 -31.24, 9.34 -31.13, 5.8 -30.54 C2.26 -29.95, -0.72 -29.11, -3.55 -27.19 C-6.38 -25.28, -9.2 -21.6, -11.17 -19.06 C-13.15 -16.52, -14.42 -14.52, -15.38 -11.94 C-16.34 -9.37, -16.79 -6.2, -16.94 -3.63 C-17.08 -1.06, -17.71 2.57, -16.27 3.46 C-14.82 4.35, -10.97 2.27, -8.26 1.69 C-5.55 1.12, -1.38 0.28, 0 0" stroke="none" stroke-width="0" fill="#5E34B0" fill-rule="evenodd"></path><path d="M0 0 C0.45 -1.47, 1.19 -6.55, 2.7 -8.82 C4.21 -11.08, 6.65 -12.74, 9.06 -13.57 C11.47 -14.4, 14.76 -14.5, 17.19 -13.79 C19.62 -13.08, 22.14 -11.28, 23.64 -9.31 C25.15 -7.33, 26.16 -4.7, 26.23 -1.95 C26.3 0.79, 25.53 4.84, 24.07 7.15 C22.6 9.45, 19.87 10.97, 17.42 11.88 C14.96 12.78, 11.95 13.27, 9.34 12.58 C6.72 11.89, 3.51 10.23, 1.74 7.74 C-0.03 5.25, 0.39 -1.58, -1.29 -2.36 C-2.96 -3.15, -5.86 2.08, -8.31 3.04 C-10.75 4, -14.92 2.11, -15.97 3.41 C-17.01 4.71, -15.71 8.07, -14.58 10.81 C-13.45 13.56, -11.75 17.21, -9.19 19.89 C-6.64 22.58, -2.72 25.4, 0.78 26.92 C4.27 28.45, 8.11 28.92, 11.77 29.02 C15.43 29.12, 19.32 28.56, 22.74 27.52 C26.15 26.49, 29.48 25.14, 32.25 22.81 C35.03 20.49, 37.6 17, 39.38 13.57 C41.16 10.15, 42.57 6.44, 42.91 2.27 C43.25 -1.9, 42.68 -7.57, 41.42 -11.43 C40.16 -15.29, 37.68 -18.22, 35.33 -20.9 C32.98 -23.57, 30.25 -25.82, 27.31 -27.46 C24.37 -29.1, 21.29 -30.22, 17.71 -30.73 C14.12 -31.24, 9.34 -31.13, 5.8 -30.54 C2.26 -29.95, -0.72 -29.11, -3.55 -27.19 C-6.38 -25.28, -9.2 -21.6, -11.17 -19.06 C-13.15 -16.52, -14.42 -14.52, -15.38 -11.94 C-16.34 -9.37, -16.79 -6.2, -16.94 -3.63 C-17.08 -1.06, -17.71 2.57, -16.27 3.46 C-14.82 4.35, -10.97 2.27, -8.26 1.69 C-5.55 1.12, -1.38 0.28, 0 0 M0 0 C0.45 -1.47, 1.19 -6.55, 2.7 -8.82 C4.21 -11.08, 6.65 -12.74, 9.06 -13.57 C11.47 -14.4, 14.76 -14.5, 17.19 -13.79 C19.62 -13.08, 22.14 -11.28, 23.64 -9.31 C25.15 -7.33, 26.16 -4.7, 26.23 -1.95 C26.3 0.79, 25.53 4.84, 24.07 7.15 C22.6 9.45, 19.87 10.97, 17.42 11.88 C14.96 12.78, 11.95 13.27, 9.34 12.58 C6.72 11.89, 3.51 10.23, 1.74 7.74 C-0.03 5.25, 0.39 -1.58, -1.29 -2.36 C-2.96 -3.15, -5.86 2.08, -8.31 3.04 C-10.75 4, -14.92 2.11, -15.97 3.41 C-17.01 4.71, -15.71 8.07, -14.58 10.81 C-13.45 13.56, -11.75 17.21, -9.19 19.89 C-6.64 22.58, -2.72 25.4, 0.78 26.92 C4.27 28.45, 8.11 28.92, 11.77 29.02 C15.43 29.12, 19.32 28.56, 22.74 27.52 C26.15 26.49, 29.48 25.14, 32.25 22.81 C35.03 20.49, 37.6 17, 39.38 13.57 C41.16 10.15, 42.57 6.44, 42.91 2.27 C43.25 -1.9, 42.68 -7.57, 41.42 -11.43 C40.16 -15.29, 37.68 -18.22, 35.33 -20.9 C32.98 -23.57, 30.25 -25.82, 27.31 -27.46 C24.37 -29.1, 21.29 -30.22, 17.71 -30.73 C14.12 -31.24, 9.34 -31.13, 5.8 -30.54 C2.26 -29.95, -0.72 -29.11, -3.55 -27.19 C-6.38 -25.28, -9.2 -21.6, -11.17 -19.06 C-13.15 -16.52, -14.42 -14.52, -15.38 -11.94 C-16.34 -9.37, -16.79 -6.2, -16.94 -3.63 C-17.08 -1.06, -17.71 2.57, -16.27 3.46 C-14.82 4.35, -10.97 2.27, -8.26 1.69 C-5.55 1.12, -1.38 0.28, 0 0" stroke="#5E34B0" stroke-width="4" fill="none"></path></g></g><mask></mask><g stroke-linecap="round"><g transform="translate(371.7266708081733 90.57808552127375) rotate(329.99999999999994 12.987117334707616 -0.854016665200561)" fill-rule="evenodd"><path d="M0 0 C0.45 -1.47, 1.19 -6.55, 2.7 -8.82 C4.21 -11.08, 6.65 -12.74, 9.06 -13.57 C11.47 -14.4, 14.76 -14.5, 17.19 -13.79 C19.62 -13.08, 22.14 -11.28, 23.64 -9.31 C25.15 -7.33, 26.16 -4.7, 26.23 -1.95 C26.3 0.79, 25.53 4.84, 24.07 7.15 C22.6 9.45, 19.87 10.97, 17.42 11.88 C14.96 12.78, 11.95 13.27, 9.34 12.58 C6.72 11.89, 3.51 10.23, 1.74 7.74 C-0.03 5.25, 0.39 -1.58, -1.29 -2.36 C-2.96 -3.15, -5.86 2.08, -8.31 3.04 C-10.75 4, -14.92 2.11, -15.97 3.41 C-17.01 4.71, -15.71 8.07, -14.58 10.81 C-13.45 13.56, -11.75 17.21, -9.19 19.89 C-6.64 22.58, -2.72 25.4, 0.78 26.92 C4.27 28.45, 8.11 28.92, 11.77 29.02 C15.43 29.12, 19.32 28.56, 22.74 27.52 C26.15 26.49, 29.48 25.14, 32.25 22.81 C35.03 20.49, 37.6 17, 39.38 13.57 C41.16 10.15, 42.57 6.44, 42.91 2.27 C43.25 -1.9, 42.68 -7.57, 41.42 -11.43 C40.16 -15.29, 37.68 -18.22, 35.33 -20.9 C32.98 -23.57, 30.25 -25.82, 27.31 -27.46 C24.37 -29.1, 21.29 -30.22, 17.71 -30.73 C14.12 -31.24, 9.34 -31.13, 5.8 -30.54 C2.26 -29.95, -0.72 -29.11, -3.55 -27.19 C-6.38 -25.28, -9.2 -21.6, -11.17 -19.06 C-13.15 -16.52, -14.42 -14.52, -15.38 -11.94 C-16.34 -9.37, -16.79 -6.2, -16.94 -3.63 C-17.08 -1.06, -17.71 2.57, -16.27 3.46 C-14.82 4.35, -10.97 2.27, -8.26 1.69 C-5.55 1.12, -1.38 0.28, 0 0" stroke="none" stroke-width="0" fill="#B3A2FA" fill-rule="evenodd"></path><path d="M0 0 C0.45 -1.47, 1.19 -6.55, 2.7 -8.82 C4.21 -11.08, 6.65 -12.74, 9.06 -13.57 C11.47 -14.4, 14.76 -14.5, 17.19 -13.79 C19.62 -13.08, 22.14 -11.28, 23.64 -9.31 C25.15 -7.33, 26.16 -4.7, 26.23 -1.95 C26.3 0.79, 25.53 4.84, 24.07 7.15 C22.6 9.45, 19.87 10.97, 17.42 11.88 C14.96 12.78, 11.95 13.27, 9.34 12.58 C6.72 11.89, 3.51 10.23, 1.74 7.74 C-0.03 5.25, 0.39 -1.58, -1.29 -2.36 C-2.96 -3.15, -5.86 2.08, -8.31 3.04 C-10.75 4, -14.92 2.11, -15.97 3.41 C-17.01 4.71, -15.71 8.07, -14.58 10.81 C-13.45 13.56, -11.75 17.21, -9.19 19.89 C-6.64 22.58, -2.72 25.4, 0.78 26.92 C4.27 28.45, 8.11 28.92, 11.77 29.02 C15.43 29.12, 19.32 28.56, 22.74 27.52 C26.15 26.49, 29.48 25.14, 32.25 22.81 C35.03 20.49, 37.6 17, 39.38 13.57 C41.16 10.15, 42.57 6.44, 42.91 2.27 C43.25 -1.9, 42.68 -7.57, 41.42 -11.43 C40.16 -15.29, 37.68 -18.22, 35.33 -20.9 C32.98 -23.57, 30.25 -25.82, 27.31 -27.46 C24.37 -29.1, 21.29 -30.22, 17.71 -30.73 C14.12 -31.24, 9.34 -31.13, 5.8 -30.54 C2.26 -29.95, -0.72 -29.11, -3.55 -27.19 C-6.38 -25.28, -9.2 -21.6, -11.17 -19.06 C-13.15 -16.52, -14.42 -14.52, -15.38 -11.94 C-16.34 -9.37, -16.79 -6.2, -16.94 -3.63 C-17.08 -1.06, -17.71 2.57, -16.27 3.46 C-14.82 4.35, -10.97 2.27, -8.26 1.69 C-5.55 1.12, -1.38 0.28, 0 0 M0 0 C0.45 -1.47, 1.19 -6.55, 2.7 -8.82 C4.21 -11.08, 6.65 -12.74, 9.06 -13.57 C11.47 -14.4, 14.76 -14.5, 17.19 -13.79 C19.62 -13.08, 22.14 -11.28, 23.64 -9.31 C25.15 -7.33, 26.16 -4.7, 26.23 -1.95 C26.3 0.79, 25.53 4.84, 24.07 7.15 C22.6 9.45, 19.87 10.97, 17.42 11.88 C14.96 12.78, 11.95 13.27, 9.34 12.58 C6.72 11.89, 3.51 10.23, 1.74 7.74 C-0.03 5.25, 0.39 -1.58, -1.29 -2.36 C-2.96 -3.15, -5.86 2.08, -8.31 3.04 C-10.75 4, -14.92 2.11, -15.97 3.41 C-17.01 4.71, -15.71 8.07, -14.58 10.81 C-13.45 13.56, -11.75 17.21, -9.19 19.89 C-6.64 22.58, -2.72 25.4, 0.78 26.92 C4.27 28.45, 8.11 28.92, 11.77 29.02 C15.43 29.12, 19.32 28.56, 22.74 27.52 C26.15 26.49, 29.48 25.14, 32.25 22.81 C35.03 20.49, 37.6 17, 39.38 13.57 C41.16 10.15, 42.57 6.44, 42.91 2.27 C43.25 -1.9, 42.68 -7.57, 41.42 -11.43 C40.16 -15.29, 37.68 -18.22, 35.33 -20.9 C32.98 -23.57, 30.25 -25.82, 27.31 -27.46 C24.37 -29.1, 21.29 -30.22, 17.71 -30.73 C14.12 -31.24, 9.34 -31.13, 5.8 -30.54 C2.26 -29.95, -0.72 -29.11, -3.55 -27.19 C-6.38 -25.28, -9.2 -21.6, -11.17 -19.06 C-13.15 -16.52, -14.42 -14.52, -15.38 -11.94 C-16.34 -9.37, -16.79 -6.2, -16.94 -3.63 C-17.08 -1.06, -17.71 2.57, -16.27 3.46 C-14.82 4.35, -10.97 2.27, -8.26 1.69 C-5.55 1.12, -1.38 0.28, 0 0" stroke="#B3A2FA" stroke-width="4" fill="none"></path></g></g><mask></mask><g stroke-linecap="round"><g transform="translate(441.4455716267857 139.78038081789003) rotate(329.99999999999994 12.98711733470762 -0.854016665200561)" fill-rule="evenodd"><path d="M0 0 C0.45 -1.47, 1.19 -6.55, 2.7 -8.82 C4.21 -11.08, 6.65 -12.74, 9.06 -13.57 C11.47 -14.4, 14.76 -14.5, 17.19 -13.79 C19.62 -13.08, 22.14 -11.28, 23.64 -9.31 C25.15 -7.33, 26.16 -4.7, 26.23 -1.95 C26.3 0.79, 25.53 4.84, 24.07 7.15 C22.6 9.45, 19.87 10.97, 17.42 11.88 C14.96 12.78, 11.95 13.27, 9.34 12.58 C6.72 11.89, 3.51 10.23, 1.74 7.74 C-0.03 5.25, 0.39 -1.58, -1.29 -2.36 C-2.96 -3.15, -5.86 2.08, -8.31 3.04 C-10.75 4, -14.92 2.11, -15.97 3.41 C-17.01 4.71, -15.71 8.07, -14.58 10.81 C-13.45 13.56, -11.75 17.21, -9.19 19.89 C-6.64 22.58, -2.72 25.4, 0.78 26.92 C4.27 28.45, 8.11 28.92, 11.77 29.02 C15.43 29.12, 19.32 28.56, 22.74 27.52 C26.15 26.49, 29.48 25.14, 32.25 22.81 C35.03 20.49, 37.6 17, 39.38 13.57 C41.16 10.15, 42.57 6.44, 42.91 2.27 C43.25 -1.9, 42.68 -7.57, 41.42 -11.43 C40.16 -15.29, 37.68 -18.22, 35.33 -20.9 C32.98 -23.57, 30.25 -25.82, 27.31 -27.46 C24.37 -29.1, 21.29 -30.22, 17.71 -30.73 C14.12 -31.24, 9.34 -31.13, 5.8 -30.54 C2.26 -29.95, -0.72 -29.11, -3.55 -27.19 C-6.38 -25.28, -9.2 -21.6, -11.17 -19.06 C-13.15 -16.52, -14.42 -14.52, -15.38 -11.94 C-16.34 -9.37, -16.79 -6.2, -16.94 -3.63 C-17.08 -1.06, -17.71 2.57, -16.27 3.46 C-14.82 4.35, -10.97 2.27, -8.26 1.69 C-5.55 1.12, -1.38 0.28, 0 0" stroke="none" stroke-width="0" fill="#6327D3" fill-rule="evenodd"></path><path d="M0 0 C0.45 -1.47, 1.19 -6.55, 2.7 -8.82 C4.21 -11.08, 6.65 -12.74, 9.06 -13.57 C11.47 -14.4, 14.76 -14.5, 17.19 -13.79 C19.62 -13.08, 22.14 -11.28, 23.64 -9.31 C25.15 -7.33, 26.16 -4.7, 26.23 -1.95 C26.3 0.79, 25.53 4.84, 24.07 7.15 C22.6 9.45, 19.87 10.97, 17.42 11.88 C14.96 12.78, 11.95 13.27, 9.34 12.58 C6.72 11.89, 3.51 10.23, 1.74 7.74 C-0.03 5.25, 0.39 -1.58, -1.29 -2.36 C-2.96 -3.15, -5.86 2.08, -8.31 3.04 C-10.75 4, -14.92 2.11, -15.97 3.41 C-17.01 4.71, -15.71 8.07, -14.58 10.81 C-13.45 13.56, -11.75 17.21, -9.19 19.89 C-6.64 22.58, -2.72 25.4, 0.78 26.92 C4.27 28.45, 8.11 28.92, 11.77 29.02 C15.43 29.12, 19.32 28.56, 22.74 27.52 C26.15 26.49, 29.48 25.14, 32.25 22.81 C35.03 20.49, 37.6 17, 39.38 13.57 C41.16 10.15, 42.57 6.44, 42.91 2.27 C43.25 -1.9, 42.68 -7.57, 41.42 -11.43 C40.16 -15.29, 37.68 -18.22, 35.33 -20.9 C32.98 -23.57, 30.25 -25.82, 27.31 -27.46 C24.37 -29.1, 21.29 -30.22, 17.71 -30.73 C14.12 -31.24, 9.34 -31.13, 5.8 -30.54 C2.26 -29.95, -0.72 -29.11, -3.55 -27.19 C-6.38 -25.28, -9.2 -21.6, -11.17 -19.06 C-13.15 -16.52, -14.42 -14.52, -15.38 -11.94 C-16.34 -9.37, -16.79 -6.2, -16.94 -3.63 C-17.08 -1.06, -17.71 2.57, -16.27 3.46 C-14.82 4.35, -10.97 2.27, -8.26 1.69 C-5.55 1.12, -1.38 0.28, 0 0 M0 0 C0.45 -1.47, 1.19 -6.55, 2.7 -8.82 C4.21 -11.08, 6.65 -12.74, 9.06 -13.57 C11.47 -14.4, 14.76 -14.5, 17.19 -13.79 C19.62 -13.08, 22.14 -11.28, 23.64 -9.31 C25.15 -7.33, 26.16 -4.7, 26.23 -1.95 C26.3 0.79, 25.53 4.84, 24.07 7.15 C22.6 9.45, 19.87 10.97, 17.42 11.88 C14.96 12.78, 11.95 13.27, 9.34 12.58 C6.72 11.89, 3.51 10.23, 1.74 7.74 C-0.03 5.25, 0.39 -1.58, -1.29 -2.36 C-2.96 -3.15, -5.86 2.08, -8.31 3.04 C-10.75 4, -14.92 2.11, -15.97 3.41 C-17.01 4.71, -15.71 8.07, -14.58 10.81 C-13.45 13.56, -11.75 17.21, -9.19 19.89 C-6.64 22.58, -2.72 25.4, 0.78 26.92 C4.27 28.45, 8.11 28.92, 11.77 29.02 C15.43 29.12, 19.32 28.56, 22.74 27.52 C26.15 26.49, 29.48 25.14, 32.25 22.81 C35.03 20.49, 37.6 17, 39.38 13.57 C41.16 10.15, 42.57 6.44, 42.91 2.27 C43.25 -1.9, 42.68 -7.57, 41.42 -11.43 C40.16 -15.29, 37.68 -18.22, 35.33 -20.9 C32.98 -23.57, 30.25 -25.82, 27.31 -27.46 C24.37 -29.1, 21.29 -30.22, 17.71 -30.73 C14.12 -31.24, 9.34 -31.13, 5.8 -30.54 C2.26 -29.95, -0.72 -29.11, -3.55 -27.19 C-6.38 -25.28, -9.2 -21.6, -11.17 -19.06 C-13.15 -16.52, -14.42 -14.52, -15.38 -11.94 C-16.34 -9.37, -16.79 -6.2, -16.94 -3.63 C-17.08 -1.06, -17.71 2.57, -16.27 3.46 C-14.82 4.35, -10.97 2.27, -8.26 1.69 C-5.55 1.12, -1.38 0.28, 0 0" stroke="#6327D3" stroke-width="4" fill="none"></path></g></g><mask></mask><g stroke-linecap="round"><g transform="translate(448.67782871481353 224.60284772818835) rotate(329.99999999999994 12.98711733470762 -0.854016665200561)" fill-rule="evenodd"><path d="M0 0 C0.45 -1.47, 1.19 -6.55, 2.7 -8.82 C4.21 -11.08, 6.65 -12.74, 9.06 -13.57 C11.47 -14.4, 14.76 -14.5, 17.19 -13.79 C19.62 -13.08, 22.14 -11.28, 23.64 -9.31 C25.15 -7.33, 26.16 -4.7, 26.23 -1.95 C26.3 0.79, 25.53 4.84, 24.07 7.15 C22.6 9.45, 19.87 10.97, 17.42 11.88 C14.96 12.78, 11.95 13.27, 9.34 12.58 C6.72 11.89, 3.51 10.23, 1.74 7.74 C-0.03 5.25, 0.39 -1.58, -1.29 -2.36 C-2.96 -3.15, -5.86 2.08, -8.31 3.04 C-10.75 4, -14.92 2.11, -15.97 3.41 C-17.01 4.71, -15.71 8.07, -14.58 10.81 C-13.45 13.56, -11.75 17.21, -9.19 19.89 C-6.64 22.58, -2.72 25.4, 0.78 26.92 C4.27 28.45, 8.11 28.92, 11.77 29.02 C15.43 29.12, 19.32 28.56, 22.74 27.52 C26.15 26.49, 29.48 25.14, 32.25 22.81 C35.03 20.49, 37.6 17, 39.38 13.57 C41.16 10.15, 42.57 6.44, 42.91 2.27 C43.25 -1.9, 42.68 -7.57, 41.42 -11.43 C40.16 -15.29, 37.68 -18.22, 35.33 -20.9 C32.98 -23.57, 30.25 -25.82, 27.31 -27.46 C24.37 -29.1, 21.29 -30.22, 17.71 -30.73 C14.12 -31.24, 9.34 -31.13, 5.8 -30.54 C2.26 -29.95, -0.72 -29.11, -3.55 -27.19 C-6.38 -25.28, -9.2 -21.6, -11.17 -19.06 C-13.15 -16.52, -14.42 -14.52, -15.38 -11.94 C-16.34 -9.37, -16.79 -6.2, -16.94 -3.63 C-17.08 -1.06, -17.71 2.57, -16.27 3.46 C-14.82 4.35, -10.97 2.27, -8.26 1.69 C-5.55 1.12, -1.38 0.28, 0 0" stroke="none" stroke-width="0" fill="#9E75ED" fill-rule="evenodd"></path><path d="M0 0 C0.45 -1.47, 1.19 -6.55, 2.7 -8.82 C4.21 -11.08, 6.65 -12.74, 9.06 -13.57 C11.47 -14.4, 14.76 -14.5, 17.19 -13.79 C19.62 -13.08, 22.14 -11.28, 23.64 -9.31 C25.15 -7.33, 26.16 -4.7, 26.23 -1.95 C26.3 0.79, 25.53 4.84, 24.07 7.15 C22.6 9.45, 19.87 10.97, 17.42 11.88 C14.96 12.78, 11.95 13.27, 9.34 12.58 C6.72 11.89, 3.51 10.23, 1.74 7.74 C-0.03 5.25, 0.39 -1.58, -1.29 -2.36 C-2.96 -3.15, -5.86 2.08, -8.31 3.04 C-10.75 4, -14.92 2.11, -15.97 3.41 C-17.01 4.71, -15.71 8.07, -14.58 10.81 C-13.45 13.56, -11.75 17.21, -9.19 19.89 C-6.64 22.58, -2.72 25.4, 0.78 26.92 C4.27 28.45, 8.11 28.92, 11.77 29.02 C15.43 29.12, 19.32 28.56, 22.74 27.52 C26.15 26.49, 29.48 25.14, 32.25 22.81 C35.03 20.49, 37.6 17, 39.38 13.57 C41.16 10.15, 42.57 6.44, 42.91 2.27 C43.25 -1.9, 42.68 -7.57, 41.42 -11.43 C40.16 -15.29, 37.68 -18.22, 35.33 -20.9 C32.98 -23.57, 30.25 -25.82, 27.31 -27.46 C24.37 -29.1, 21.29 -30.22, 17.71 -30.73 C14.12 -31.24, 9.34 -31.13, 5.8 -30.54 C2.26 -29.95, -0.72 -29.11, -3.55 -27.19 C-6.38 -25.28, -9.2 -21.6, -11.17 -19.06 C-13.15 -16.52, -14.42 -14.52, -15.38 -11.94 C-16.34 -9.37, -16.79 -6.2, -16.94 -3.63 C-17.08 -1.06, -17.71 2.57, -16.27 3.46 C-14.82 4.35, -10.97 2.27, -8.26 1.69 C-5.55 1.12, -1.38 0.28, 0 0 M0 0 C0.45 -1.47, 1.19 -6.55, 2.7 -8.82 C4.21 -11.08, 6.65 -12.74, 9.06 -13.57 C11.47 -14.4, 14.76 -14.5, 17.19 -13.79 C19.62 -13.08, 22.14 -11.28, 23.64 -9.31 C25.15 -7.33, 26.16 -4.7, 26.23 -1.95 C26.3 0.79, 25.53 4.84, 24.07 7.15 C22.6 9.45, 19.87 10.97, 17.42 11.88 C14.96 12.78, 11.95 13.27, 9.34 12.58 C6.72 11.89, 3.51 10.23, 1.74 7.74 C-0.03 5.25, 0.39 -1.58, -1.29 -2.36 C-2.96 -3.15, -5.86 2.08, -8.31 3.04 C-10.75 4, -14.92 2.11, -15.97 3.41 C-17.01 4.71, -15.71 8.07, -14.58 10.81 C-13.45 13.56, -11.75 17.21, -9.19 19.89 C-6.64 22.58, -2.72 25.4, 0.78 26.92 C4.27 28.45, 8.11 28.92, 11.77 29.02 C15.43 29.12, 19.32 28.56, 22.74 27.52 C26.15 26.49, 29.48 25.14, 32.25 22.81 C35.03 20.49, 37.6 17, 39.38 13.57 C41.16 10.15, 42.57 6.44, 42.91 2.27 C43.25 -1.9, 42.68 -7.57, 41.42 -11.43 C40.16 -15.29, 37.68 -18.22, 35.33 -20.9 C32.98 -23.57, 30.25 -25.82, 27.31 -27.46 C24.37 -29.1, 21.29 -30.22, 17.71 -30.73 C14.12 -31.24, 9.34 -31.13, 5.8 -30.54 C2.26 -29.95, -0.72 -29.11, -3.55 -27.19 C-6.38 -25.28, -9.2 -21.6, -11.17 -19.06 C-13.15 -16.52, -14.42 -14.52, -15.38 -11.94 C-16.34 -9.37, -16.79 -6.2, -16.94 -3.63 C-17.08 -1.06, -17.71 2.57, -16.27 3.46 C-14.82 4.35, -10.97 2.27, -8.26 1.69 C-5.55 1.12, -1.38 0.28, 0 0" stroke="#9E75ED" stroke-width="4" fill="none"></path></g></g><mask></mask><g stroke-linecap="round"><g transform="translate(462.5817645421375 300.9649810760342) rotate(329.99999999999994 12.98711733470762 -0.8540166652005468)" fill-rule="evenodd"><path d="M0 0 C0.45 -1.47, 1.19 -6.55, 2.7 -8.82 C4.21 -11.08, 6.65 -12.74, 9.06 -13.57 C11.47 -14.4, 14.76 -14.5, 17.19 -13.79 C19.62 -13.08, 22.14 -11.28, 23.64 -9.31 C25.15 -7.33, 26.16 -4.7, 26.23 -1.95 C26.3 0.79, 25.53 4.84, 24.07 7.15 C22.6 9.45, 19.87 10.97, 17.42 11.88 C14.96 12.78, 11.95 13.27, 9.34 12.58 C6.72 11.89, 3.51 10.23, 1.74 7.74 C-0.03 5.25, 0.39 -1.58, -1.29 -2.36 C-2.96 -3.15, -5.86 2.08, -8.31 3.04 C-10.75 4, -14.92 2.11, -15.97 3.41 C-17.01 4.71, -15.71 8.07, -14.58 10.81 C-13.45 13.56, -11.75 17.21, -9.19 19.89 C-6.64 22.58, -2.72 25.4, 0.78 26.92 C4.27 28.45, 8.11 28.92, 11.77 29.02 C15.43 29.12, 19.32 28.56, 22.74 27.52 C26.15 26.49, 29.48 25.14, 32.25 22.81 C35.03 20.49, 37.6 17, 39.38 13.57 C41.16 10.15, 42.57 6.44, 42.91 2.27 C43.25 -1.9, 42.68 -7.57, 41.42 -11.43 C40.16 -15.29, 37.68 -18.22, 35.33 -20.9 C32.98 -23.57, 30.25 -25.82, 27.31 -27.46 C24.37 -29.1, 21.29 -30.22, 17.71 -30.73 C14.12 -31.24, 9.34 -31.13, 5.8 -30.54 C2.26 -29.95, -0.72 -29.11, -3.55 -27.19 C-6.38 -25.28, -9.2 -21.6, -11.17 -19.06 C-13.15 -16.52, -14.42 -14.52, -15.38 -11.94 C-16.34 -9.37, -16.79 -6.2, -16.94 -3.63 C-17.08 -1.06, -17.71 2.57, -16.27 3.46 C-14.82 4.35, -10.97 2.27, -8.26 1.69 C-5.55 1.12, -1.38 0.28, 0 0" stroke="none" stroke-width="0" fill="#B3A2FA" fill-rule="evenodd"></path><path d="M0 0 C0.45 -1.47, 1.19 -6.55, 2.7 -8.82 C4.21 -11.08, 6.65 -12.74, 9.06 -13.57 C11.47 -14.4, 14.76 -14.5, 17.19 -13.79 C19.62 -13.08, 22.14 -11.28, 23.64 -9.31 C25.15 -7.33, 26.16 -4.7, 26.23 -1.95 C26.3 0.79, 25.53 4.84, 24.07 7.15 C22.6 9.45, 19.87 10.97, 17.42 11.88 C14.96 12.78, 11.95 13.27, 9.34 12.58 C6.72 11.89, 3.51 10.23, 1.74 7.74 C-0.03 5.25, 0.39 -1.58, -1.29 -2.36 C-2.96 -3.15, -5.86 2.08, -8.31 3.04 C-10.75 4, -14.92 2.11, -15.97 3.41 C-17.01 4.71, -15.71 8.07, -14.58 10.81 C-13.45 13.56, -11.75 17.21, -9.19 19.89 C-6.64 22.58, -2.72 25.4, 0.78 26.92 C4.27 28.45, 8.11 28.92, 11.77 29.02 C15.43 29.12, 19.32 28.56, 22.74 27.52 C26.15 26.49, 29.48 25.14, 32.25 22.81 C35.03 20.49, 37.6 17, 39.38 13.57 C41.16 10.15, 42.57 6.44, 42.91 2.27 C43.25 -1.9, 42.68 -7.57, 41.42 -11.43 C40.16 -15.29, 37.68 -18.22, 35.33 -20.9 C32.98 -23.57, 30.25 -25.82, 27.31 -27.46 C24.37 -29.1, 21.29 -30.22, 17.71 -30.73 C14.12 -31.24, 9.34 -31.13, 5.8 -30.54 C2.26 -29.95, -0.72 -29.11, -3.55 -27.19 C-6.38 -25.28, -9.2 -21.6, -11.17 -19.06 C-13.15 -16.52, -14.42 -14.52, -15.38 -11.94 C-16.34 -9.37, -16.79 -6.2, -16.94 -3.63 C-17.08 -1.06, -17.71 2.57, -16.27 3.46 C-14.82 4.35, -10.97 2.27, -8.26 1.69 C-5.55 1.12, -1.38 0.28, 0 0 M0 0 C0.45 -1.47, 1.19 -6.55, 2.7 -8.82 C4.21 -11.08, 6.65 -12.74, 9.06 -13.57 C11.47 -14.4, 14.76 -14.5, 17.19 -13.79 C19.62 -13.08, 22.14 -11.28, 23.64 -9.31 C25.15 -7.33, 26.16 -4.7, 26.23 -1.95 C26.3 0.79, 25.53 4.84, 24.07 7.15 C22.6 9.45, 19.87 10.97, 17.42 11.88 C14.96 12.78, 11.95 13.27, 9.34 12.58 C6.72 11.89, 3.51 10.23, 1.74 7.74 C-0.03 5.25, 0.39 -1.58, -1.29 -2.36 C-2.96 -3.15, -5.86 2.08, -8.31 3.04 C-10.75 4, -14.92 2.11, -15.97 3.41 C-17.01 4.71, -15.71 8.07, -14.58 10.81 C-13.45 13.56, -11.75 17.21, -9.19 19.89 C-6.64 22.58, -2.72 25.4, 0.78 26.92 C4.27 28.45, 8.11 28.92, 11.77 29.02 C15.43 29.12, 19.32 28.56, 22.74 27.52 C26.15 26.49, 29.48 25.14, 32.25 22.81 C35.03 20.49, 37.6 17, 39.38 13.57 C41.16 10.15, 42.57 6.44, 42.91 2.27 C43.25 -1.9, 42.68 -7.57, 41.42 -11.43 C40.16 -15.29, 37.68 -18.22, 35.33 -20.9 C32.98 -23.57, 30.25 -25.82, 27.31 -27.46 C24.37 -29.1, 21.29 -30.22, 17.71 -30.73 C14.12 -31.24, 9.34 -31.13, 5.8 -30.54 C2.26 -29.95, -0.72 -29.11, -3.55 -27.19 C-6.38 -25.28, -9.2 -21.6, -11.17 -19.06 C-13.15 -16.52, -14.42 -14.52, -15.38 -11.94 C-16.34 -9.37, -16.79 -6.2, -16.94 -3.63 C-17.08 -1.06, -17.71 2.57, -16.27 3.46 C-14.82 4.35, -10.97 2.27, -8.26 1.69 C-5.55 1.12, -1.38 0.28, 0 0" stroke="#B3A2FA" stroke-width="4" fill="none"></path></g></g><mask></mask><g stroke-linecap="round"><g transform="translate(382.73010194876855 308.94286999134727) rotate(329.99999999999994 39.045380424093594 10.264452343386736)" fill-rule="evenodd"><path d="M0 0 C-0.51 2.77, -2.67 13.58, -3.09 16.64 C-3.51 19.71, -2.74 18.03, -2.51 18.39 C-2.27 18.76, -2.57 17.59, -1.69 18.83 C-0.8 20.06, 0.6 24.17, 2.8 25.8 C5 27.43, 5.97 28.24, 11.5 28.6 C17.03 28.96, 26.11 28.07, 35.98 27.97 C45.86 27.86, 63.21 28.25, 70.75 27.97 C78.28 27.69, 80.09 28.68, 81.18 26.28 C82.27 23.87, 79.82 16.02, 77.3 13.55 C74.77 11.09, 71.93 11.82, 66.04 11.48 C60.14 11.13, 50.23 11.48, 41.94 11.48 C33.65 11.48, 21.65 12.35, 16.31 11.48 C10.96 10.6, 12.31 8.96, 9.87 6.23 C7.43 3.5, 3.09 -2.52, 1.67 -4.9 C0.25 -7.29, 1.43 -7.65, 1.36 -8.07 C1.29 -8.49, 1.28 -7.88, 1.25 -7.41 C1.22 -6.95, 1.28 -5.83, 1.19 -5.28 C1.1 -4.73, 0.9 -4.98, 0.7 -4.1 C0.51 -3.22, 0.12 -0.68, 0 0" stroke="none" stroke-width="0" fill="#B3A2FA" fill-rule="evenodd"></path><path d="M0 0 C-0.51 2.77, -2.67 13.58, -3.09 16.64 C-3.51 19.71, -2.74 18.03, -2.51 18.39 C-2.27 18.76, -2.57 17.59, -1.69 18.83 C-0.8 20.06, 0.6 24.17, 2.8 25.8 C5 27.43, 5.97 28.24, 11.5 28.6 C17.03 28.96, 26.11 28.07, 35.98 27.97 C45.86 27.86, 63.21 28.25, 70.75 27.97 C78.28 27.69, 80.09 28.68, 81.18 26.28 C82.27 23.87, 79.82 16.02, 77.3 13.55 C74.77 11.09, 71.93 11.82, 66.04 11.48 C60.14 11.13, 50.23 11.48, 41.94 11.48 C33.65 11.48, 21.65 12.35, 16.31 11.48 C10.96 10.6, 12.31 8.96, 9.87 6.23 C7.43 3.5, 3.09 -2.52, 1.67 -4.9 C0.25 -7.29, 1.43 -7.65, 1.36 -8.07 C1.29 -8.49, 1.28 -7.88, 1.25 -7.41 C1.22 -6.95, 1.28 -5.83, 1.19 -5.28 C1.1 -4.73, 0.9 -4.98, 0.7 -4.1 C0.51 -3.22, 0.12 -0.68, 0 0 M0 0 C-0.51 2.77, -2.67 13.58, -3.09 16.64 C-3.51 19.71, -2.74 18.03, -2.51 18.39 C-2.27 18.76, -2.57 17.59, -1.69 18.83 C-0.8 20.06, 0.6 24.17, 2.8 25.8 C5 27.43, 5.97 28.24, 11.5 28.6 C17.03 28.96, 26.11 28.07, 35.98 27.97 C45.86 27.86, 63.21 28.25, 70.75 27.97 C78.28 27.69, 80.09 28.68, 81.18 26.28 C82.27 23.87, 79.82 16.02, 77.3 13.55 C74.77 11.09, 71.93 11.82, 66.04 11.48 C60.14 11.13, 50.23 11.48, 41.94 11.48 C33.65 11.48, 21.65 12.35, 16.31 11.48 C10.96 10.6, 12.31 8.96, 9.87 6.23 C7.43 3.5, 3.09 -2.52, 1.67 -4.9 C0.25 -7.29, 1.43 -7.65, 1.36 -8.07 C1.29 -8.49, 1.28 -7.88, 1.25 -7.41 C1.22 -6.95, 1.28 -5.83, 1.19 -5.28 C1.1 -4.73, 0.9 -4.98, 0.7 -4.1 C0.51 -3.22, 0.12 -0.68, 0 0" stroke="#B3A2FA" stroke-width="4" fill="none"></path></g></g><mask></mask><g stroke-linecap="round"><g transform="translate(356.472350431085 224.51217001566096) rotate(329.99999999999994 45.589600067760415 20.551775956510212)" fill-rule="evenodd"><path d="M0 0 C0.09 -0.03, -0.64 -1.04, 0.52 -0.19 C1.67 0.65, 3.41 2.22, 6.94 5.07 C10.47 7.92, 17.97 13.85, 21.71 16.91 C25.44 19.97, 26.71 22.24, 29.35 23.43 C32 24.63, 31.33 23.97, 37.59 24.09 C43.85 24.2, 59.4 24.11, 66.9 24.11 C74.39 24.12, 78.13 24.11, 82.54 24.11 C86.95 24.11, 92.59 22.12, 93.36 24.11 C94.13 26.11, 89.54 33.22, 87.16 36.08 C84.77 38.95, 84.86 40.43, 79.05 41.3 C73.24 42.17, 61.26 41.3, 52.29 41.3 C43.32 41.3, 32.34 43.26, 25.25 41.3 C18.16 39.34, 14.27 33.14, 9.75 29.56 C5.23 25.97, 0.15 21.79, -1.84 19.78 C-3.83 17.76, -2.21 18.73, -2.18 17.45 C-2.15 16.16, -1.74 13.88, -1.66 12.07 C-1.59 10.26, -2.01 8.59, -1.73 6.57 C-1.45 4.56, -0.29 1.1, 0 0" stroke="none" stroke-width="0" fill="#9E75ED" fill-rule="evenodd"></path><path d="M0 0 C0.09 -0.03, -0.64 -1.04, 0.52 -0.19 C1.67 0.65, 3.41 2.22, 6.94 5.07 C10.47 7.92, 17.97 13.85, 21.71 16.91 C25.44 19.97, 26.71 22.24, 29.35 23.43 C32 24.63, 31.33 23.97, 37.59 24.09 C43.85 24.2, 59.4 24.11, 66.9 24.11 C74.39 24.12, 78.13 24.11, 82.54 24.11 C86.95 24.11, 92.59 22.12, 93.36 24.11 C94.13 26.11, 89.54 33.22, 87.16 36.08 C84.77 38.95, 84.86 40.43, 79.05 41.3 C73.24 42.17, 61.26 41.3, 52.29 41.3 C43.32 41.3, 32.34 43.26, 25.25 41.3 C18.16 39.34, 14.27 33.14, 9.75 29.56 C5.23 25.97, 0.15 21.79, -1.84 19.78 C-3.83 17.76, -2.21 18.73, -2.18 17.45 C-2.15 16.16, -1.74 13.88, -1.66 12.07 C-1.59 10.26, -2.01 8.59, -1.73 6.57 C-1.45 4.56, -0.29 1.1, 0 0 M0 0 C0.09 -0.03, -0.64 -1.04, 0.52 -0.19 C1.67 0.65, 3.41 2.22, 6.94 5.07 C10.47 7.92, 17.97 13.85, 21.71 16.91 C25.44 19.97, 26.71 22.24, 29.35 23.43 C32 24.63, 31.33 23.97, 37.59 24.09 C43.85 24.2, 59.4 24.11, 66.9 24.11 C74.39 24.12, 78.13 24.11, 82.54 24.11 C86.95 24.11, 92.59 22.12, 93.36 24.11 C94.13 26.11, 89.54 33.22, 87.16 36.08 C84.77 38.95, 84.86 40.43, 79.05 41.3 C73.24 42.17, 61.26 41.3, 52.29 41.3 C43.32 41.3, 32.34 43.26, 25.25 41.3 C18.16 39.34, 14.27 33.14, 9.75 29.56 C5.23 25.97, 0.15 21.79, -1.84 19.78 C-3.83 17.76, -2.21 18.73, -2.18 17.45 C-2.15 16.16, -1.74 13.88, -1.66 12.07 C-1.59 10.26, -2.01 8.59, -1.73 6.57 C-1.45 4.56, -0.29 1.1, 0 0" stroke="#9E75ED" stroke-width="4" fill="none"></path></g></g><mask></mask><g stroke-linecap="round" transform="translate(289.0196391110407 182.22563164023762) rotate(329.99999999999994 76.66330914276402 8.036363600802929)"><path d="M4.02 0 C56.87 0, 109.71 0, 149.31 0 C151.99 0, 153.33 1.34, 153.33 4.02 C153.33 7.22, 153.33 10.42, 153.33 12.05 C153.33 14.73, 151.99 16.07, 149.31 16.07 C102.89 16.07, 56.46 16.07, 4.02 16.07 C1.34 16.07, 0 14.73, 0 12.05 C0 9.94, 0 7.83, 0 4.02 C0 1.34, 1.34 0, 4.02 0" stroke="none" stroke-width="0" fill="#6327D3"></path><path d="M4.02 0 C35.57 0, 67.13 0, 149.31 0 M4.02 0 C56.84 0, 109.67 0, 149.31 0 M149.31 0 C151.99 0, 153.33 1.34, 153.33 4.02 M149.31 0 C151.99 0, 153.33 1.34, 153.33 4.02 M153.33 4.02 C153.33 6.4, 153.33 8.78, 153.33 12.05 M153.33 4.02 C153.33 7.14, 153.33 10.27, 153.33 12.05 M153.33 12.05 C153.33 14.73, 151.99 16.07, 149.31 16.07 M153.33 12.05 C153.33 14.73, 151.99 16.07, 149.31 16.07 M149.31 16.07 C99.9 16.07, 50.5 16.07, 4.02 16.07 M149.31 16.07 C110.38 16.07, 71.46 16.07, 4.02 16.07 M4.02 16.07 C1.34 16.07, 0 14.73, 0 12.05 M4.02 16.07 C1.34 16.07, 0 14.73, 0 12.05 M0 12.05 C0 9.8, 0 7.55, 0 4.02 M0 12.05 C0 9.08, 0 6.11, 0 4.02 M0 4.02 C0 1.34, 1.34 0, 4.02 0 M0 4.02 C0 1.34, 1.34 0, 4.02 0" stroke="#6327D3" stroke-width="4" fill="none"></path></g><g stroke-linecap="round"><g transform="translate(265.7436482416378 192.29802584995872) rotate(329.99999999999994 61.97592329811262 -36.761001809062805)" fill-rule="evenodd"><path d="M0 0 C5.12 -4.6, 21.08 -19.23, 30.72 -27.59 C40.36 -35.95, 52.19 -45.39, 57.85 -50.14 C63.51 -54.88, 62.25 -54.93, 64.65 -56.05 C67.05 -57.17, 65.9 -56.73, 72.25 -56.87 C78.6 -57, 95.4 -56.87, 102.75 -56.87 C110.09 -56.87, 112.02 -56.87, 116.32 -56.87 C120.63 -56.87, 126.65 -54.67, 128.57 -56.87 C130.49 -59.06, 129.41 -67.02, 127.85 -70.03 C126.3 -73.05, 124.54 -74.14, 119.25 -74.96 C113.97 -75.79, 105.64 -74.96, 96.14 -74.96 C86.63 -74.96, 70.57 -76.9, 62.22 -74.96 C53.87 -73.02, 54.55 -70.16, 46.04 -63.32 C37.54 -56.49, 19.44 -41.19, 11.19 -33.97 C2.93 -26.74, -0.86 -23.1, -3.49 -19.98 C-6.13 -16.86, -5.1 -18.81, -4.62 -15.24 C-4.15 -11.67, -1.3 -1.34, -0.64 1.44" stroke="none" stroke-width="0" fill="#B3A2FA" fill-rule="evenodd"></path><path d="M0 0 C5.12 -4.6, 21.08 -19.23, 30.72 -27.59 C40.36 -35.95, 52.19 -45.39, 57.85 -50.14 C63.51 -54.88, 62.25 -54.93, 64.65 -56.05 C67.05 -57.17, 65.9 -56.73, 72.25 -56.87 C78.6 -57, 95.4 -56.87, 102.75 -56.87 C110.09 -56.87, 112.02 -56.87, 116.32 -56.87 C120.63 -56.87, 126.65 -54.67, 128.57 -56.87 C130.49 -59.06, 129.41 -67.02, 127.85 -70.03 C126.3 -73.05, 124.54 -74.14, 119.25 -74.96 C113.97 -75.79, 105.64 -74.96, 96.14 -74.96 C86.63 -74.96, 70.57 -76.9, 62.22 -74.96 C53.87 -73.02, 54.55 -70.16, 46.04 -63.32 C37.54 -56.49, 19.44 -41.19, 11.19 -33.97 C2.93 -26.74, -0.86 -23.1, -3.49 -19.98 C-6.13 -16.86, -5.1 -18.81, -4.62 -15.24 C-4.15 -11.67, -1.3 -1.34, -0.64 1.44 M0 0 C5.12 -4.6, 21.08 -19.23, 30.72 -27.59 C40.36 -35.95, 52.19 -45.39, 57.85 -50.14 C63.51 -54.88, 62.25 -54.93, 64.65 -56.05 C67.05 -57.17, 65.9 -56.73, 72.25 -56.87 C78.6 -57, 95.4 -56.87, 102.75 -56.87 C110.09 -56.87, 112.02 -56.87, 116.32 -56.87 C120.63 -56.87, 126.65 -54.67, 128.57 -56.87 C130.49 -59.06, 129.41 -67.02, 127.85 -70.03 C126.3 -73.05, 124.54 -74.14, 119.25 -74.96 C113.97 -75.79, 105.64 -74.96, 96.14 -74.96 C86.63 -74.96, 70.57 -76.9, 62.22 -74.96 C53.87 -73.02, 54.55 -70.16, 46.04 -63.32 C37.54 -56.49, 19.44 -41.19, 11.19 -33.97 C2.93 -26.74, -0.86 -23.1, -3.49 -19.98 C-6.13 -16.86, -5.1 -18.81, -4.62 -15.24 C-4.15 -11.67, -1.3 -1.34, -0.64 1.44" stroke="#B3A2FA" stroke-width="4" fill="none"></path></g></g><mask></mask><g stroke-linecap="round"><g transform="translate(240.0302451318375 124.41974844166128) rotate(329.99999999999994 40.07824177971188 -31.510682834807)" fill-rule="evenodd"><path d="M0 0 C0.06 -0.1, -1.94 4.06, 0.35 -0.58 C2.64 -5.22, 10.05 -20.57, 13.75 -27.84 C17.46 -35.11, 19.24 -41.16, 22.59 -44.18 C25.95 -47.19, 28.85 -45.66, 33.88 -45.95 C38.91 -46.25, 45.28 -45.95, 52.78 -45.95 C60.28 -45.95, 72.36 -45.95, 78.87 -45.95 C85.39 -45.95, 90.38 -43.11, 91.88 -45.95 C93.38 -48.8, 90.26 -60.23, 87.85 -63.02 C85.44 -65.82, 82.33 -62.76, 77.42 -62.72 C72.51 -62.67, 67.52 -62.75, 58.37 -62.75 C49.21 -62.76, 29.9 -63.03, 22.47 -62.75 C15.05 -62.48, 16.19 -62.81, 13.82 -61.11 C11.46 -59.41, 10.92 -57.08, 8.28 -52.55 C5.65 -48.01, 1.13 -39.5, -2.02 -33.87 C-5.16 -28.24, -9.17 -21.21, -10.56 -18.78 C-11.96 -16.35, -10.19 -19.6, -10.39 -19.31 C-10.58 -19.02, -12.37 -18.54, -11.72 -17.05 C-11.08 -15.55, -8.47 -13.18, -6.51 -10.34 C-4.56 -7.5, -1.09 -1.72, 0 0" stroke="none" stroke-width="0" fill="#5E34B0" fill-rule="evenodd"></path><path d="M0 0 C0.06 -0.1, -1.94 4.06, 0.35 -0.58 C2.64 -5.22, 10.05 -20.57, 13.75 -27.84 C17.46 -35.11, 19.24 -41.16, 22.59 -44.18 C25.95 -47.19, 28.85 -45.66, 33.88 -45.95 C38.91 -46.25, 45.28 -45.95, 52.78 -45.95 C60.28 -45.95, 72.36 -45.95, 78.87 -45.95 C85.39 -45.95, 90.38 -43.11, 91.88 -45.95 C93.38 -48.8, 90.26 -60.23, 87.85 -63.02 C85.44 -65.82, 82.33 -62.76, 77.42 -62.72 C72.51 -62.67, 67.52 -62.75, 58.37 -62.75 C49.21 -62.76, 29.9 -63.03, 22.47 -62.75 C15.05 -62.48, 16.19 -62.81, 13.82 -61.11 C11.46 -59.41, 10.92 -57.08, 8.28 -52.55 C5.65 -48.01, 1.13 -39.5, -2.02 -33.87 C-5.16 -28.24, -9.17 -21.21, -10.56 -18.78 C-11.96 -16.35, -10.19 -19.6, -10.39 -19.31 C-10.58 -19.02, -12.37 -18.54, -11.72 -17.05 C-11.08 -15.55, -8.47 -13.18, -6.51 -10.34 C-4.56 -7.5, -1.09 -1.72, 0 0 M0 0 C0.06 -0.1, -1.94 4.06, 0.35 -0.58 C2.64 -5.22, 10.05 -20.57, 13.75 -27.84 C17.46 -35.11, 19.24 -41.16, 22.59 -44.18 C25.95 -47.19, 28.85 -45.66, 33.88 -45.95 C38.91 -46.25, 45.28 -45.95, 52.78 -45.95 C60.28 -45.95, 72.36 -45.95, 78.87 -45.95 C85.39 -45.95, 90.38 -43.11, 91.88 -45.95 C93.38 -48.8, 90.26 -60.23, 87.85 -63.02 C85.44 -65.82, 82.33 -62.76, 77.42 -62.72 C72.51 -62.67, 67.52 -62.75, 58.37 -62.75 C49.21 -62.76, 29.9 -63.03, 22.47 -62.75 C15.05 -62.48, 16.19 -62.81, 13.82 -61.11 C11.46 -59.41, 10.92 -57.08, 8.28 -52.55 C5.65 -48.01, 1.13 -39.5, -2.02 -33.87 C-5.16 -28.24, -9.17 -21.21, -10.56 -18.78 C-11.96 -16.35, -10.19 -19.6, -10.39 -19.31 C-10.58 -19.02, -12.37 -18.54, -11.72 -17.05 C-11.08 -15.55, -8.47 -13.18, -6.51 -10.34 C-4.56 -7.5, -1.09 -1.72, 0 0" stroke="#5E34B0" stroke-width="4" fill="none"></path></g></g><mask></mask><g stroke-linecap="round"><g transform="translate(173.16552172151972 151.0190179602809) rotate(0 1.8054539135143273 193.8979090302022)"><path d="M0 0 C5.22 3.05, 23.83 13.35, 31.35 18.29 C38.86 23.24, 41.76 25.73, 45.08 29.66 C48.39 33.6, 50.04 37.46, 51.24 41.9 C52.45 46.35, 52.05 50.98, 52.3 56.31 C52.55 61.65, 52.69 69.46, 52.74 73.91 C52.8 78.37, 51.49 80.03, 52.64 83.06 C53.79 86.09, 56.75 88.58, 59.64 92.1 C62.53 95.61, 67.06 100.4, 69.99 104.14 C72.92 107.89, 75.02 111.55, 77.21 114.56 C79.41 117.57, 79.68 120.98, 83.14 122.18 C86.6 123.38, 92.84 122.2, 97.98 121.77 C103.12 121.34, 109.8 118.99, 114 119.63 C118.2 120.26, 120.45 122.42, 123.18 125.56 C125.9 128.69, 127.28 131.86, 130.35 138.42 C133.42 144.99, 137.47 155.06, 141.58 164.94 C145.69 174.82, 151.31 188.17, 155.02 197.72 C158.73 207.26, 161.91 215.64, 163.84 222.2 C165.76 228.76, 166.67 232.92, 166.57 237.07 C166.47 241.22, 165.69 244.91, 163.23 247.1 C160.78 249.29, 156.37 249.67, 151.82 250.22 C147.26 250.77, 138.59 248.63, 135.89 250.42 C133.19 252.2, 135.62 255.82, 135.62 260.93 C135.61 266.04, 135.87 275.7, 135.89 281.09 C135.91 286.49, 134.41 289.49, 135.74 293.3 C137.06 297.1, 140.65 299.7, 143.83 303.92 C147 308.13, 151.48 314.17, 154.77 318.57 C158.05 322.97, 161.66 326.23, 163.53 330.3 C165.4 334.37, 166.2 338.82, 166 342.98 C165.81 347.13, 164.92 350.41, 162.36 355.23 C159.8 360.05, 154.6 366.16, 150.65 371.9 C146.71 377.64, 142.31 384.69, 138.68 389.68 C135.06 394.67, 132.3 399.75, 128.9 401.85 C125.5 403.95, 121.56 403.46, 118.29 402.3 C115.01 401.14, 112.32 398.24, 109.25 394.91 C106.17 391.57, 103.09 386.45, 99.84 382.27 C96.59 378.1, 92.42 372.97, 89.75 369.84 C87.07 366.71, 86.48 364.24, 83.78 363.48 C81.08 362.71, 76.83 364.71, 73.55 365.23 C70.26 365.75, 67.52 366.25, 64.06 366.6 C60.61 366.95, 54.83 365.66, 52.8 367.32 C50.78 368.97, 52.05 371.94, 51.9 376.53 C51.75 381.13, 51.92 389.95, 51.9 394.89 C51.88 399.83, 53.17 403.49, 51.79 406.19 C50.41 408.88, 46.39 410.83, 43.6 411.05 C40.81 411.27, 41.11 410.77, 35.03 407.51 C28.94 404.26, 15.44 396.28, 7.1 391.52 C-1.24 386.75, -8.27 382.92, -15 378.92 C-21.73 374.91, -28.53 371.41, -33.27 367.48 C-38.02 363.54, -41.05 359.57, -43.46 355.3 C-45.88 351.03, -47.05 347.94, -47.77 341.85 C-48.49 335.75, -47.79 324.15, -47.79 318.73 C-47.8 313.32, -46.58 312.54, -47.79 309.38 C-49.01 306.21, -51.65 303.93, -55.09 299.76 C-58.53 295.59, -64.41 289.24, -68.43 284.35 C-72.45 279.46, -75.4 272.91, -79.22 270.41 C-83.05 267.92, -87.11 269.53, -91.39 269.4 C-95.66 269.28, -100.77 270.16, -104.86 269.68 C-108.96 269.2, -112.73 268.98, -115.98 266.53 C-119.23 264.07, -121.49 260.36, -124.34 254.94 C-127.2 249.53, -130.19 241.15, -133.12 234.04 C-136.04 226.92, -138.62 220.7, -141.9 212.25 C-145.18 203.81, -149.55 192.41, -152.81 183.38 C-156.06 174.36, -160.03 164.29, -161.43 158.1 C-162.83 151.9, -162.53 149.06, -161.2 146.21 C-159.87 143.35, -156.96 141.99, -153.47 140.97 C-149.97 139.96, -143.91 140.42, -140.24 140.13 C-136.57 139.83, -132.89 141.2, -131.45 139.21 C-130.02 137.22, -131.54 131.98, -131.63 128.17 C-131.71 124.36, -132.08 120.62, -131.99 116.35 C-131.9 112.08, -131.05 106.33, -131.09 102.55 C-131.13 98.77, -129.65 98.12, -132.22 93.65 C-134.78 89.18, -142.11 81.43, -146.47 75.74 C-150.83 70.04, -155.63 64.16, -158.38 59.48 C-161.12 54.8, -162.52 51.32, -162.96 47.66 C-163.4 43.99, -163.27 41.93, -161.03 37.48 C-158.78 33.03, -153.44 26.65, -149.48 20.97 C-145.51 15.28, -140.76 8.28, -137.22 3.36 C-133.69 -1.56, -130.88 -5.57, -128.28 -8.54 C-125.67 -11.52, -124.16 -13.76, -121.59 -14.5 C-119.01 -15.25, -115.5 -14.38, -112.81 -13.01 C-110.11 -11.63, -107.96 -9, -105.42 -6.24 C-102.88 -3.49, -100.12 0.12, -97.55 3.52 C-94.98 6.92, -92.52 10.77, -90.02 14.15 C-87.52 17.54, -85.74 22.17, -82.55 23.82 C-79.36 25.46, -74.96 24.31, -70.88 24 C-66.79 23.68, -61.61 22.08, -58.03 21.94 C-54.45 21.8, -51.01 24.68, -49.38 23.15 C-47.75 21.62, -48.47 17.39, -48.24 12.76 C-48 8.13, -48.12 0.15, -47.96 -4.64 C-47.81 -9.42, -48.8 -12.86, -47.3 -15.96 C-45.81 -19.06, -42.24 -23.13, -38.99 -23.25 C-35.73 -23.37, -31.92 -19.05, -27.75 -16.66 C-23.58 -14.27, -18.61 -11.67, -13.99 -8.89 C-9.36 -6.11, -2.33 -1.48, 0 0 M0 0 C5.22 3.05, 23.83 13.35, 31.35 18.29 C38.86 23.24, 41.76 25.73, 45.08 29.66 C48.39 33.6, 50.04 37.46, 51.24 41.9 C52.45 46.35, 52.05 50.98, 52.3 56.31 C52.55 61.65, 52.69 69.46, 52.74 73.91 C52.8 78.37, 51.49 80.03, 52.64 83.06 C53.79 86.09, 56.75 88.58, 59.64 92.1 C62.53 95.61, 67.06 100.4, 69.99 104.14 C72.92 107.89, 75.02 111.55, 77.21 114.56 C79.41 117.57, 79.68 120.98, 83.14 122.18 C86.6 123.38, 92.84 122.2, 97.98 121.77 C103.12 121.34, 109.8 118.99, 114 119.63 C118.2 120.26, 120.45 122.42, 123.18 125.56 C125.9 128.69, 127.28 131.86, 130.35 138.42 C133.42 144.99, 137.47 155.06, 141.58 164.94 C145.69 174.82, 151.31 188.17, 155.02 197.72 C158.73 207.26, 161.91 215.64, 163.84 222.2 C165.76 228.76, 166.67 232.92, 166.57 237.07 C166.47 241.22, 165.69 244.91, 163.23 247.1 C160.78 249.29, 156.37 249.67, 151.82 250.22 C147.26 250.77, 138.59 248.63, 135.89 250.42 C133.19 252.2, 135.62 255.82, 135.62 260.93 C135.61 266.04, 135.87 275.7, 135.89 281.09 C135.91 286.49, 134.41 289.49, 135.74 293.3 C137.06 297.1, 140.65 299.7, 143.83 303.92 C147 308.13, 151.48 314.17, 154.77 318.57 C158.05 322.97, 161.66 326.23, 163.53 330.3 C165.4 334.37, 166.2 338.82, 166 342.98 C165.81 347.13, 164.92 350.41, 162.36 355.23 C159.8 360.05, 154.6 366.16, 150.65 371.9 C146.71 377.64, 142.31 384.69, 138.68 389.68 C135.06 394.67, 132.3 399.75, 128.9 401.85 C125.5 403.95, 121.56 403.46, 118.29 402.3 C115.01 401.14, 112.32 398.24, 109.25 394.91 C106.17 391.57, 103.09 386.45, 99.84 382.27 C96.59 378.1, 92.42 372.97, 89.75 369.84 C87.07 366.71, 86.48 364.24, 83.78 363.48 C81.08 362.71, 76.83 364.71, 73.55 365.23 C70.26 365.75, 67.52 366.25, 64.06 366.6 C60.61 366.95, 54.83 365.66, 52.8 367.32 C50.78 368.97, 52.05 371.94, 51.9 376.53 C51.75 381.13, 51.92 389.95, 51.9 394.89 C51.88 399.83, 53.17 403.49, 51.79 406.19 C50.41 408.88, 46.39 410.83, 43.6 411.05 C40.81 411.27, 41.11 410.77, 35.03 407.51 C28.94 404.26, 15.44 396.28, 7.1 391.52 C-1.24 386.75, -8.27 382.92, -15 378.92 C-21.73 374.91, -28.53 371.41, -33.27 367.48 C-38.02 363.54, -41.05 359.57, -43.46 355.3 C-45.88 351.03, -47.05 347.94, -47.77 341.85 C-48.49 335.75, -47.79 324.15, -47.79 318.73 C-47.8 313.32, -46.58 312.54, -47.79 309.38 C-49.01 306.21, -51.65 303.93, -55.09 299.76 C-58.53 295.59, -64.41 289.24, -68.43 284.35 C-72.45 279.46, -75.4 272.91, -79.22 270.41 C-83.05 267.92, -87.11 269.53, -91.39 269.4 C-95.66 269.28, -100.77 270.16, -104.86 269.68 C-108.96 269.2, -112.73 268.98, -115.98 266.53 C-119.23 264.07, -121.49 260.36, -124.34 254.94 C-127.2 249.53, -130.19 241.15, -133.12 234.04 C-136.04 226.92, -138.62 220.7, -141.9 212.25 C-145.18 203.81, -149.55 192.41, -152.81 183.38 C-156.06 174.36, -160.03 164.29, -161.43 158.1 C-162.83 151.9, -162.53 149.06, -161.2 146.21 C-159.87 143.35, -156.96 141.99, -153.47 140.97 C-149.97 139.96, -143.91 140.42, -140.24 140.13 C-136.57 139.83, -132.89 141.2, -131.45 139.21 C-130.02 137.22, -131.54 131.98, -131.63 128.17 C-131.71 124.36, -132.08 120.62, -131.99 116.35 C-131.9 112.08, -131.05 106.33, -131.09 102.55 C-131.13 98.77, -129.65 98.12, -132.22 93.65 C-134.78 89.18, -142.11 81.43, -146.47 75.74 C-150.83 70.04, -155.63 64.16, -158.38 59.48 C-161.12 54.8, -162.52 51.32, -162.96 47.66 C-163.4 43.99, -163.27 41.93, -161.03 37.48 C-158.78 33.03, -153.44 26.65, -149.48 20.97 C-145.51 15.28, -140.76 8.28, -137.22 3.36 C-133.69 -1.56, -130.88 -5.57, -128.28 -8.54 C-125.67 -11.52, -124.16 -13.76, -121.59 -14.5 C-119.01 -15.25, -115.5 -14.38, -112.81 -13.01 C-110.11 -11.63, -107.96 -9, -105.42 -6.24 C-102.88 -3.49, -100.12 0.12, -97.55 3.52 C-94.98 6.92, -92.52 10.77, -90.02 14.15 C-87.52 17.54, -85.74 22.17, -82.55 23.82 C-79.36 25.46, -74.96 24.31, -70.88 24 C-66.79 23.68, -61.61 22.08, -58.03 21.94 C-54.45 21.8, -51.01 24.68, -49.38 23.15 C-47.75 21.62, -48.47 17.39, -48.24 12.76 C-48 8.13, -48.12 0.15, -47.96 -4.64 C-47.81 -9.42, -48.8 -12.86, -47.3 -15.96 C-45.81 -19.06, -42.24 -23.13, -38.99 -23.25 C-35.73 -23.37, -31.92 -19.05, -27.75 -16.66 C-23.58 -14.27, -18.61 -11.67, -13.99 -8.89 C-9.36 -6.11, -2.33 -1.48, 0 0" stroke="#E1E1E1" stroke-width="4" fill="none"></path></g></g><mask></mask><g stroke-linecap="round"><g transform="translate(130.3726278400481 129.2225506945628) rotate(0 -40.35212324972099 -5.340064825372309)"><path d="M0 0 C-2.08 -2.23, -9.01 -10.28, -12.49 -13.36 C-15.97 -16.44, -18.04 -17.61, -20.88 -18.49 C-23.72 -19.37, -26.58 -19.61, -29.54 -18.63 C-32.49 -17.66, -34.41 -15.1, -38.6 -12.65 C-42.78 -10.2, -49.6 -6.48, -54.65 -3.94 C-59.7 -1.4, -64.54 0.6, -68.88 2.59 C-73.23 4.57, -78.73 7.06, -80.7 7.95 M0 0 C-2.08 -2.23, -9.01 -10.28, -12.49 -13.36 C-15.97 -16.44, -18.04 -17.61, -20.88 -18.49 C-23.72 -19.37, -26.58 -19.61, -29.54 -18.63 C-32.49 -17.66, -34.41 -15.1, -38.6 -12.65 C-42.78 -10.2, -49.6 -6.48, -54.65 -3.94 C-59.7 -1.4, -64.54 0.6, -68.88 2.59 C-73.23 4.57, -78.73 7.06, -80.7 7.95" stroke="#E1E1E1" stroke-width="4" fill="none"></path></g></g><mask></mask><g stroke-linecap="round"><g transform="translate(131.8312406788986 127.96068667470121) rotate(0 129.9040224329165 123.12274262944186)"><path d="M0 0 C5.44 -2.65, 25.69 -12.5, 32.63 -15.91 C39.57 -19.31, 38.29 -18.77, 41.62 -20.43 C44.95 -22.09, 49.02 -25.32, 52.6 -25.88 C56.19 -26.43, 58.61 -25.85, 63.14 -23.75 C67.67 -21.65, 72.96 -17.21, 79.78 -13.27 C86.6 -9.33, 97.51 -3.61, 104.09 -0.1 C110.67 3.41, 115.07 5.43, 119.26 7.82 C123.46 10.2, 125.87 11.38, 129.26 14.23 C132.64 17.07, 136.86 21.12, 139.58 24.89 C142.31 28.67, 144.37 32.49, 145.62 36.9 C146.86 41.31, 146.83 45.88, 147.04 51.36 C147.26 56.84, 146.67 65.22, 146.9 69.77 C147.13 74.31, 146.25 74.85, 148.43 78.64 C150.61 82.42, 156.18 87.65, 159.98 92.45 C163.78 97.25, 168.4 103.75, 171.23 107.46 C174.06 111.16, 174.26 113.43, 176.96 114.68 C179.66 115.94, 183.26 115.16, 187.41 114.99 C191.56 114.83, 197.87 113.41, 201.86 113.68 C205.85 113.96, 208.55 115.3, 211.36 116.63 C214.17 117.96, 216.68 119.21, 218.7 121.66 C220.73 124.12, 221.11 126.05, 223.48 131.35 C225.85 136.65, 229.72 145.35, 232.93 153.45 C236.15 161.56, 238.91 169.45, 242.78 179.96 C246.66 190.47, 253.34 208.37, 256.18 216.53 C259.02 224.69, 259.63 225.05, 259.81 228.93 C259.99 232.81, 259.3 236.77, 257.27 239.81 C255.25 242.85, 251.93 244.43, 247.65 247.16 C243.36 249.9, 236.87 253.19, 231.57 256.22 C226.28 259.25, 221.06 262.7, 215.89 265.35 C210.72 268, 203.1 270.99, 200.55 272.12 M0 0 C5.44 -2.65, 25.69 -12.5, 32.63 -15.91 C39.57 -19.31, 38.29 -18.77, 41.62 -20.43 C44.95 -22.09, 49.02 -25.32, 52.6 -25.88 C56.19 -26.43, 58.61 -25.85, 63.14 -23.75 C67.67 -21.65, 72.96 -17.21, 79.78 -13.27 C86.6 -9.33, 97.51 -3.61, 104.09 -0.1 C110.67 3.41, 115.07 5.43, 119.26 7.82 C123.46 10.2, 125.87 11.38, 129.26 14.23 C132.64 17.07, 136.86 21.12, 139.58 24.89 C142.31 28.67, 144.37 32.49, 145.62 36.9 C146.86 41.31, 146.83 45.88, 147.04 51.36 C147.26 56.84, 146.67 65.22, 146.9 69.77 C147.13 74.31, 146.25 74.85, 148.43 78.64 C150.61 82.42, 156.18 87.65, 159.98 92.45 C163.78 97.25, 168.4 103.75, 171.23 107.46 C174.06 111.16, 174.26 113.43, 176.96 114.68 C179.66 115.94, 183.26 115.16, 187.41 114.99 C191.56 114.83, 197.87 113.41, 201.86 113.68 C205.85 113.96, 208.55 115.3, 211.36 116.63 C214.17 117.96, 216.68 119.21, 218.7 121.66 C220.73 124.12, 221.11 126.05, 223.48 131.35 C225.85 136.65, 229.72 145.35, 232.93 153.45 C236.15 161.56, 238.91 169.45, 242.78 179.96 C246.66 190.47, 253.34 208.37, 256.18 216.53 C259.02 224.69, 259.63 225.05, 259.81 228.93 C259.99 232.81, 259.3 236.77, 257.27 239.81 C255.25 242.85, 251.93 244.43, 247.65 247.16 C243.36 249.9, 236.87 253.19, 231.57 256.22 C226.28 259.25, 221.06 262.7, 215.89 265.35 C210.72 268, 203.1 270.99, 200.55 272.12" stroke="#E1E1E1" stroke-width="4" fill="none"></path></g></g><mask></mask><g stroke-linecap="round"><g transform="translate(304.9271182394231 290.57458601392443) rotate(0 25.202287189796245 -13.738148300648533)"><path d="M0 0 C5.52 -3.08, 24.72 -13.88, 33.12 -18.46 C41.52 -23.04, 47.52 -25.97, 50.4 -27.48 M0 0 C5.52 -3.08, 24.72 -13.88, 33.12 -18.46 C41.52 -23.04, 47.52 -25.97, 50.4 -27.48" stroke="#E1E1E1" stroke-width="4" fill="none"></path></g></g><mask></mask><g stroke-linecap="round"><g transform="translate(256.56737421682914 272.46153798209286) rotate(0 27.57878507933495 -14.463717333119106)"><path d="M0 0 C5.05 -2.67, 21.1 -11.22, 30.3 -16.04 C39.49 -20.86, 51.01 -26.78, 55.16 -28.93 M0 0 C5.05 -2.67, 21.1 -11.22, 30.3 -16.04 C39.49 -20.86, 51.01 -26.78, 55.16 -28.93" stroke="#E1E1E1" stroke-width="4" fill="none"></path></g></g><mask></mask><g stroke-linecap="round"><g transform="translate(226.61752437209174 232.8145493936567) rotate(0 25.506789101653553 -14.266396142872651)"><path d="M0 0 C5.25 -3.03, 23.01 -13.42, 31.51 -18.17 C40.01 -22.93, 47.76 -26.81, 51.01 -28.53 M0 0 C5.25 -3.03, 23.01 -13.42, 31.51 -18.17 C40.01 -22.93, 47.76 -26.81, 51.01 -28.53" stroke="#E1E1E1" stroke-width="4" fill="none"></path></g></g><mask></mask><g stroke-linecap="round"><g transform="translate(362.64079254624716 386.6774015365039) rotate(0 -16.63520165176606 83.6622117968348)"><path d="M0 0 C0.01 3.24, 0.34 14.3, 0.08 19.42 C-0.17 24.55, -2.22 27.64, -1.51 30.75 C-0.81 33.86, 0.89 33.9, 4.3 38.08 C7.72 42.26, 15.14 50.82, 18.98 55.83 C22.82 60.83, 25.62 63.98, 27.33 68.12 C29.04 72.26, 29.58 76.6, 29.24 80.69 C28.9 84.78, 28.55 87.17, 25.29 92.68 C22.02 98.19, 14.41 107.35, 9.65 113.74 C4.9 120.14, -0.14 127.06, -3.22 131.05 C-6.3 135.04, -6.2 135.63, -8.83 137.7 C-11.46 139.77, -14.46 140.81, -18.99 143.44 C-23.52 146.07, -30.52 150.22, -36.01 153.47 C-41.5 156.73, -47.52 160.69, -51.93 163 C-56.35 165.3, -60.75 166.6, -62.51 167.32 M0 0 C0.01 3.24, 0.34 14.3, 0.08 19.42 C-0.17 24.55, -2.22 27.64, -1.51 30.75 C-0.81 33.86, 0.89 33.9, 4.3 38.08 C7.72 42.26, 15.14 50.82, 18.98 55.83 C22.82 60.83, 25.62 63.98, 27.33 68.12 C29.04 72.26, 29.58 76.6, 29.24 80.69 C28.9 84.78, 28.55 87.17, 25.29 92.68 C22.02 98.19, 14.41 107.35, 9.65 113.74 C4.9 120.14, -0.14 127.06, -3.22 131.05 C-6.3 135.04, -6.2 135.63, -8.83 137.7 C-11.46 139.77, -14.46 140.81, -18.99 143.44 C-23.52 146.07, -30.52 150.22, -36.01 153.47 C-41.5 156.73, -47.52 160.69, -51.93 163 C-56.35 165.3, -60.75 166.6, -62.51 167.32" stroke="#E1E1E1" stroke-width="4" fill="none"></path></g></g><mask></mask><g stroke-linecap="round"><g transform="translate(268.96159228424125 531.8164639654418) rotate(0 -24.375933935644895 14.742528179748987)"><path d="M0 0 C-2.88 1.69, -11.96 6.84, -17.28 10.15 C-22.59 13.47, -26.66 16.66, -31.91 19.89 C-37.15 23.11, -45.94 27.89, -48.75 29.49 M0 0 C-2.88 1.69, -11.96 6.84, -17.28 10.15 C-22.59 13.47, -26.66 16.66, -31.91 19.89 C-37.15 23.11, -45.94 27.89, -48.75 29.49" stroke="#E1E1E1" stroke-width="4" fill="none"></path></g></g><mask></mask><g stroke-linecap="round"><g transform="translate(339.74538823655206 499.802750680877) rotate(0 25.023873213397078 -12.789411371722474)"><path d="M0 0 C5.32 -2.72, 23.57 -12.08, 31.92 -16.34 C40.26 -20.6, 47.03 -24.04, 50.05 -25.58 M0 0 C5.32 -2.72, 23.57 -12.08, 31.92 -16.34 C40.26 -20.6, 47.03 -24.04, 50.05 -25.58" stroke="#E1E1E1" stroke-width="4" fill="none"></path></g></g><mask></mask><g stroke-linecap="round"><g transform="translate(309.4187746603347 442.8618070992792) rotate(0 25.849821436753892 -14.15370381303741)"><path d="M0 0 C4.71 -2.65, 19.67 -11.18, 28.28 -15.89 C36.9 -20.61, 47.8 -26.24, 51.7 -28.31 M0 0 C4.71 -2.65, 19.67 -11.18, 28.28 -15.89 C36.9 -20.61, 47.8 -26.24, 51.7 -28.31" stroke="#E1E1E1" stroke-width="4" fill="none"></path></g></g><mask></mask><g stroke-linecap="round"><g transform="translate(210.9549428343252 172.27905023609623) rotate(0 25.275063972835042 -14.622290587430683)"><path d="M0 0 C5.57 -3.17, 25.02 -14.15, 33.44 -19.02 C41.87 -23.9, 47.7 -27.54, 50.55 -29.24 M0 0 C5.57 -3.17, 25.02 -14.15, 33.44 -19.02 C41.87 -23.9, 47.7 -27.54, 50.55 -29.24" stroke="#E1E1E1" stroke-width="4" fill="none"></path></g></g><mask></mask><g stroke-linecap="round"><g transform="translate(171.19665672024797 252.3222529071985) rotate(0 3.8895458514723202 93.65300184021991)"><path d="M0 0 C2.85 1.74, 11.84 6.46, 17.1 10.44 C22.36 14.43, 26.33 18.2, 31.54 23.9 C36.76 29.6, 43.24 37.71, 48.4 44.63 C53.57 51.55, 58.59 58.35, 62.54 65.41 C66.5 72.47, 69.31 79.55, 72.15 86.98 C75 94.41, 77.71 101.93, 79.62 110 C81.54 118.06, 83.29 127.44, 83.64 135.37 C83.99 143.3, 83.06 150.79, 81.71 157.57 C80.36 164.35, 78.92 170.37, 75.53 176.06 C72.13 181.75, 66.37 188.16, 61.32 191.72 C56.27 195.27, 51.26 196.89, 45.24 197.4 C39.23 197.91, 32.22 196.99, 25.23 194.78 C18.25 192.58, 11.04 188.77, 3.34 184.17 C-4.37 179.56, -13.66 173.95, -21.02 167.15 C-28.38 160.35, -34.8 151.49, -40.82 143.38 C-46.83 135.26, -52.65 126.65, -57.11 118.48 C-61.57 110.3, -64.63 103.11, -67.59 94.33 C-70.55 85.54, -73.49 74.06, -74.87 65.79 C-76.25 57.52, -76.09 51.85, -75.86 44.69 C-75.63 37.52, -75.87 30.11, -73.52 22.79 C-71.17 15.46, -67.08 6.01, -61.76 0.75 C-56.45 -4.5, -48.25 -6.95, -41.63 -8.76 C-35.01 -10.56, -29 -11.56, -22.06 -10.1 C-15.12 -8.64, -3.68 -1.68, 0 0 M0 0 C2.85 1.74, 11.84 6.46, 17.1 10.44 C22.36 14.43, 26.33 18.2, 31.54 23.9 C36.76 29.6, 43.24 37.71, 48.4 44.63 C53.57 51.55, 58.59 58.35, 62.54 65.41 C66.5 72.47, 69.31 79.55, 72.15 86.98 C75 94.41, 77.71 101.93, 79.62 110 C81.54 118.06, 83.29 127.44, 83.64 135.37 C83.99 143.3, 83.06 150.79, 81.71 157.57 C80.36 164.35, 78.92 170.37, 75.53 176.06 C72.13 181.75, 66.37 188.16, 61.32 191.72 C56.27 195.27, 51.26 196.89, 45.24 197.4 C39.23 197.91, 32.22 196.99, 25.23 194.78 C18.25 192.58, 11.04 188.77, 3.34 184.17 C-4.37 179.56, -13.66 173.95, -21.02 167.15 C-28.38 160.35, -34.8 151.49, -40.82 143.38 C-46.83 135.26, -52.65 126.65, -57.11 118.48 C-61.57 110.3, -64.63 103.11, -67.59 94.33 C-70.55 85.54, -73.49 74.06, -74.87 65.79 C-76.25 57.52, -76.09 51.85, -75.86 44.69 C-75.63 37.52, -75.87 30.11, -73.52 22.79 C-71.17 15.46, -67.08 6.01, -61.76 0.75 C-56.45 -4.5, -48.25 -6.95, -41.63 -8.76 C-35.01 -10.56, -29 -11.56, -22.06 -10.1 C-15.12 -8.64, -3.68 -1.68, 0 0" stroke="#E1E1E1" stroke-width="4" fill="none"></path></g></g><mask></mask><g stroke-linecap="round"><g transform="translate(161.35230729210338 324.0130370200544) rotate(0 -7.7183444579682146 3.830848884211399)" fill-rule="evenodd"><path d="M0 0 C-0.94 -1.48, -3.98 -6.21, -5.66 -8.87 C-7.34 -11.53, -8.86 -14.14, -10.09 -15.95 C-11.31 -17.77, -11.86 -18.87, -12.98 -19.77 C-14.1 -20.67, -15.47 -21.24, -16.8 -21.35 C-18.14 -21.47, -19.91 -21.12, -20.98 -20.45 C-22.05 -19.78, -22.82 -18.56, -23.21 -17.32 C-23.61 -16.09, -23.65 -14.41, -23.33 -13.02 C-23.01 -11.63, -22.49 -11.01, -21.31 -8.97 C-20.13 -6.93, -17.8 -3.26, -16.24 -0.8 C-14.68 1.66, -13.18 3.82, -11.96 5.79 C-10.73 7.75, -8.9 9.76, -8.91 11 C-8.92 12.23, -10.59 12.48, -12 13.2 C-13.42 13.91, -15.84 14.58, -17.4 15.28 C-18.96 15.98, -20.37 16.47, -21.37 17.39 C-22.37 18.31, -23.1 19.52, -23.4 20.79 C-23.7 22.07, -23.65 23.77, -23.2 25.05 C-22.75 26.32, -21.85 27.78, -20.69 28.44 C-19.53 29.1, -17.81 29.1, -16.26 29.02 C-14.71 28.93, -13.56 28.77, -11.4 27.95 C-9.24 27.12, -5.92 25.27, -3.3 24.07 C-0.68 22.87, 2.59 21.81, 4.33 20.76 C6.07 19.71, 6.54 19.01, 7.15 17.79 C7.75 16.58, 8.12 14.89, 7.96 13.47 C7.8 12.05, 7 10.76, 6.2 9.28 C5.39 7.79, 4.16 6.08, 3.13 4.53 C2.1 2.99, 0.52 0.76, 0 0" stroke="none" stroke-width="0" fill="#FFFFFF" fill-rule="evenodd"></path><path d="M0 0 C-0.94 -1.48, -3.98 -6.21, -5.66 -8.87 C-7.34 -11.53, -8.86 -14.14, -10.09 -15.95 C-11.31 -17.77, -11.86 -18.87, -12.98 -19.77 C-14.1 -20.67, -15.47 -21.24, -16.8 -21.35 C-18.14 -21.47, -19.91 -21.12, -20.98 -20.45 C-22.05 -19.78, -22.82 -18.56, -23.21 -17.32 C-23.61 -16.09, -23.65 -14.41, -23.33 -13.02 C-23.01 -11.63, -22.49 -11.01, -21.31 -8.97 C-20.13 -6.93, -17.8 -3.26, -16.24 -0.8 C-14.68 1.66, -13.18 3.82, -11.96 5.79 C-10.73 7.75, -8.9 9.76, -8.91 11 C-8.92 12.23, -10.59 12.48, -12 13.2 C-13.42 13.91, -15.84 14.58, -17.4 15.28 C-18.96 15.98, -20.37 16.47, -21.37 17.39 C-22.37 18.31, -23.1 19.52, -23.4 20.79 C-23.7 22.07, -23.65 23.77, -23.2 25.05 C-22.75 26.32, -21.85 27.78, -20.69 28.44 C-19.53 29.1, -17.81 29.1, -16.26 29.02 C-14.71 28.93, -13.56 28.77, -11.4 27.95 C-9.24 27.12, -5.92 25.27, -3.3 24.07 C-0.68 22.87, 2.59 21.81, 4.33 20.76 C6.07 19.71, 6.54 19.01, 7.15 17.79 C7.75 16.58, 8.12 14.89, 7.96 13.47 C7.8 12.05, 7 10.76, 6.2 9.28 C5.39 7.79, 4.16 6.08, 3.13 4.53 C2.1 2.99, 0.52 0.76, 0 0 M0 0 C-0.94 -1.48, -3.98 -6.21, -5.66 -8.87 C-7.34 -11.53, -8.86 -14.14, -10.09 -15.95 C-11.31 -17.77, -11.86 -18.87, -12.98 -19.77 C-14.1 -20.67, -15.47 -21.24, -16.8 -21.35 C-18.14 -21.47, -19.91 -21.12, -20.98 -20.45 C-22.05 -19.78, -22.82 -18.56, -23.21 -17.32 C-23.61 -16.09, -23.65 -14.41, -23.33 -13.02 C-23.01 -11.63, -22.49 -11.01, -21.31 -8.97 C-20.13 -6.93, -17.8 -3.26, -16.24 -0.8 C-14.68 1.66, -13.18 3.82, -11.96 5.79 C-10.73 7.75, -8.9 9.76, -8.91 11 C-8.92 12.23, -10.59 12.48, -12 13.2 C-13.42 13.91, -15.84 14.58, -17.4 15.28 C-18.96 15.98, -20.37 16.47, -21.37 17.39 C-22.37 18.31, -23.1 19.52, -23.4 20.79 C-23.7 22.07, -23.65 23.77, -23.2 25.05 C-22.75 26.32, -21.85 27.78, -20.69 28.44 C-19.53 29.1, -17.81 29.1, -16.26 29.02 C-14.71 28.93, -13.56 28.77, -11.4 27.95 C-9.24 27.12, -5.92 25.27, -3.3 24.07 C-0.68 22.87, 2.59 21.81, 4.33 20.76 C6.07 19.71, 6.54 19.01, 7.15 17.79 C7.75 16.58, 8.12 14.89, 7.96 13.47 C7.8 12.05, 7 10.76, 6.2 9.28 C5.39 7.79, 4.16 6.08, 3.13 4.53 C2.1 2.99, 0.52 0.76, 0 0" stroke="#E1E1E1" stroke-width="4" fill="none"></path></g></g><mask></mask><g stroke-linecap="round"><g transform="translate(190.33325260830946 380.9501908043179) rotate(0 3.931715100568425 -5.815209525593609)" fill-rule="evenodd"><path d="M0 0 C-1.26 -0.77, -5.53 -3.44, -7.53 -4.6 C-9.53 -5.76, -10.86 -6.07, -12.01 -6.97 C-13.17 -7.87, -14.03 -8.84, -14.46 -10.02 C-14.89 -11.2, -14.91 -12.78, -14.61 -14.06 C-14.3 -15.34, -13.64 -16.85, -12.63 -17.71 C-11.63 -18.58, -9.9 -19.16, -8.58 -19.27 C-7.25 -19.38, -6.35 -19.15, -4.69 -18.36 C-3.04 -17.57, -0.99 -15.94, 1.35 -14.53 C3.7 -13.11, 6.58 -11.51, 9.39 -9.88 C12.21 -8.26, 16.22 -6.13, 18.23 -4.78 C20.23 -3.44, 20.71 -3.04, 21.42 -1.83 C22.13 -0.63, 22.56 1.14, 22.47 2.45 C22.38 3.75, 21.78 5.14, 20.88 6 C19.98 6.87, 18.36 7.36, 17.05 7.64 C15.74 7.91, 14.68 8.18, 13.02 7.64 C11.37 7.1, 9.28 5.67, 7.11 4.4 C4.94 3.12, 1.18 0.73, 0 0" stroke="none" stroke-width="0" fill="#FFFFFF" fill-rule="evenodd"></path><path d="M0 0 C-1.26 -0.77, -5.53 -3.44, -7.53 -4.6 C-9.53 -5.76, -10.86 -6.07, -12.01 -6.97 C-13.17 -7.87, -14.03 -8.84, -14.46 -10.02 C-14.89 -11.2, -14.91 -12.78, -14.61 -14.06 C-14.3 -15.34, -13.64 -16.85, -12.63 -17.71 C-11.63 -18.58, -9.9 -19.16, -8.58 -19.27 C-7.25 -19.38, -6.35 -19.15, -4.69 -18.36 C-3.04 -17.57, -0.99 -15.94, 1.35 -14.53 C3.7 -13.11, 6.58 -11.51, 9.39 -9.88 C12.21 -8.26, 16.22 -6.13, 18.23 -4.78 C20.23 -3.44, 20.71 -3.04, 21.42 -1.83 C22.13 -0.63, 22.56 1.14, 22.47 2.45 C22.38 3.75, 21.78 5.14, 20.88 6 C19.98 6.87, 18.36 7.36, 17.05 7.64 C15.74 7.91, 14.68 8.18, 13.02 7.64 C11.37 7.1, 9.28 5.67, 7.11 4.4 C4.94 3.12, 1.18 0.73, 0 0 M0 0 C-1.26 -0.77, -5.53 -3.44, -7.53 -4.6 C-9.53 -5.76, -10.86 -6.07, -12.01 -6.97 C-13.17 -7.87, -14.03 -8.84, -14.46 -10.02 C-14.89 -11.2, -14.91 -12.78, -14.61 -14.06 C-14.3 -15.34, -13.64 -16.85, -12.63 -17.71 C-11.63 -18.58, -9.9 -19.16, -8.58 -19.27 C-7.25 -19.38, -6.35 -19.15, -4.69 -18.36 C-3.04 -17.57, -0.99 -15.94, 1.35 -14.53 C3.7 -13.11, 6.58 -11.51, 9.39 -9.88 C12.21 -8.26, 16.22 -6.13, 18.23 -4.78 C20.23 -3.44, 20.71 -3.04, 21.42 -1.83 C22.13 -0.63, 22.56 1.14, 22.47 2.45 C22.38 3.75, 21.78 5.14, 20.88 6 C19.98 6.87, 18.36 7.36, 17.05 7.64 C15.74 7.91, 14.68 8.18, 13.02 7.64 C11.37 7.1, 9.28 5.67, 7.11 4.4 C4.94 3.12, 1.18 0.73, 0 0" stroke="#E1E1E1" stroke-width="4" fill="none"></path></g></g><mask></mask></svg>