<svg version="1.1" xmlns="http://www.w3.org/2000/svg" viewBox="0 0 254.13562562036896 288.1851663687594" width="254.13562562036896" height="288.1851663687594" class="excalidraw-svg"><!-- svg-source:excalidraw --><metadata></metadata><defs><style class="style-fonts">
      </style></defs><rect x="0" y="0" width="254.13562562036896" height="288.1851663687594" fill="#000000"></rect><g stroke-linecap="round"><g transform="translate(10.320585910705631 75.72057902109009) rotate(0 0.013786128813080722 2.8775623107449064)"><path d="M0 0 C0 0.96, 0.02 4.8, 0.03 5.76 M0 0 C0 0.96, 0.02 4.8, 0.03 5.76" stroke="#FFFFFF" stroke-width="1" fill="none"></path></g></g><mask></mask><g stroke-linecap="round"><g transform="translate(10.507983797284396 75.4971970016777) rotate(0 41.45348736194228 23.973143353267005)"><path d="M0 0 C13.82 7.99, 69.09 39.96, 82.91 47.95 M0 0 C13.82 7.99, 69.09 39.96, 82.91 47.95" stroke="#FFFFFF" stroke-width="1" fill="none"></path></g></g><mask></mask><g stroke-linecap="round"><g transform="translate(93.41495852116896 123.44348370821172) rotate(0 -0.06028510565738543 2.8090989930788055)"><path d="M0 0 C-0.02 0.94, -0.1 4.68, -0.12 5.62 M0 0 C-0.02 0.94, -0.1 4.68, -0.12 5.62" stroke="#FFFFFF" stroke-width="1" fill="none"></path></g></g><mask></mask><g stroke-linecap="round"><g transform="translate(93.29438830985418 129.06168169437296) rotate(0 -41.465871511553814 -23.85210581555293)"><path d="M0 0 C-13.82 -7.95, -69.11 -39.75, -82.93 -47.7 M0 0 C-13.82 -7.95, -69.11 -39.75, -82.93 -47.7" stroke="#FFFFFF" stroke-width="1" fill="none"></path></g></g><mask></mask><g stroke-linecap="round"><g transform="translate(10.625282723794953 75.42149012480513) rotate(0 34.54079524654844 -20.28944300175317)"><path d="M0 0 C11.51 -6.76, 57.57 -33.82, 69.08 -40.58 M0 0 C11.51 -6.76, 57.57 -33.82, 69.08 -40.58" stroke="#FFFFFF" stroke-width="1" fill="none"></path></g></g><mask></mask><g stroke-linecap="round"><g transform="translate(90.07030347317777 29.181412106296193) rotate(0 16.27090328432041 -9.590706053148097)"><path d="M0 0 C5.42 -3.2, 27.12 -15.98, 32.54 -19.18 M0 0 C5.42 -3.2, 27.12 -15.98, 32.54 -19.18" stroke="#FFFFFF" stroke-width="1" fill="none"></path></g></g><mask></mask><g stroke-linecap="round"><g transform="translate(122.79997525479848 10.142067225733626) rotate(0 41.422877482712465 23.766818747470097)"><path d="M0 0 C13.81 7.92, 69.04 39.61, 82.85 47.53 M0 0 C13.81 7.92, 69.04 39.61, 82.85 47.53" stroke="#FFFFFF" stroke-width="1" fill="none"></path></g></g><mask></mask><g stroke-linecap="round"><g transform="translate(205.6457302157487 57.675704704612144) rotate(0 0.06659401430169964 2.865411832364771)"><path d="M0 0 C0.02 0.96, 0.11 4.78, 0.13 5.73 M0 0 C0.02 0.96, 0.11 4.78, 0.13 5.73" stroke="#FFFFFF" stroke-width="1" fill="none"></path></g></g><mask></mask><g stroke-linecap="round"><g transform="translate(205.94762307491328 63.554670838286256) rotate(0 -56.27217385687709 32.76191730325081)"><path d="M0 0 C-18.76 10.92, -93.79 54.6, -112.54 65.52 M0 0 C-18.76 10.92, -93.79 54.6, -112.54 65.52" stroke="#FFFFFF" stroke-width="1" fill="none"></path></g></g><mask></mask><g stroke-linecap="round"><g transform="translate(93.5121624124622 123.4042282905757) rotate(0 56.052997775068434 -32.853746940938436)"><path d="M0 0 C18.68 -10.95, 93.42 -54.76, 112.11 -65.71 M0 0 C18.68 -10.95, 93.42 -54.76, 112.11 -65.71" stroke="#FFFFFF" stroke-width="1" fill="none"></path></g></g><mask></mask><g stroke-linecap="round"><g transform="translate(205.71582918029162 64.09349817800103) rotate(0 0.23786913782714691 74.07403842905842)"><path d="M0 0 C0.08 24.69, 0.4 123.46, 0.48 148.15 M0 0 C0.08 24.69, 0.4 123.46, 0.48 148.15" stroke="#FFFFFF" stroke-width="1" fill="none"></path></g></g><mask></mask><g stroke-linecap="round"><g transform="translate(206.03314380619304 211.93500891742224) rotate(0 -56.05626905987174 32.72546584401607)"><path d="M0 0 C-18.69 10.91, -93.43 54.54, -112.11 65.45 M0 0 C-18.69 10.91, -93.43 54.54, -112.11 65.45" stroke="#FFFFFF" stroke-width="1" fill="none"></path></g></g><mask></mask><g stroke-linecap="round"><g transform="translate(93.92060568645138 277.385940605458) rotate(0 -0.2416077490306634 -74.07193546025701)"><path d="M0 0 C-0.08 -24.69, -0.4 -123.45, -0.48 -148.14 M0 0 C-0.08 -24.69, -0.4 -123.45, -0.48 -148.14" stroke="#FFFFFF" stroke-width="1" fill="none"></path></g></g><mask></mask><g stroke-linecap="round"><g transform="translate(93.97808683370567 277.11021802919277) rotate(0 -41.98904341685284 -24.205170911089226)"><path d="M0 0 C-14 -8.07, -69.98 -40.34, -83.98 -48.41 M0 0 C-14 -8.07, -69.98 -40.34, -83.98 -48.41" stroke="#FFFFFF" stroke-width="1" fill="none"></path></g></g><mask></mask><g stroke-linecap="round"><g transform="translate(10.04766729284529 228.57790401649982) rotate(0 0.29044335787693853 -73.55811008296587)"><path d="M0 0 C0.1 -24.52, 0.48 -122.6, 0.58 -147.12 M0 0 C0.1 -24.52, 0.48 -122.6, 0.58 -147.12" stroke="#FFFFFF" stroke-width="1" fill="none"></path></g></g><mask></mask><g stroke-linecap="round"><g transform="translate(97.67136737642795 134.5976302340532) rotate(0 51.84425621265382 -30.063574667077773)"><path d="M0 0 C17.28 -10.02, 86.41 -50.11, 103.69 -60.13 M0 0 C17.28 -10.02, 86.41 -50.11, 103.69 -60.13" stroke="#FFFFFF" stroke-width="1" fill="none"></path></g></g><mask></mask><g stroke-linecap="round"><g transform="translate(201.3598798017356 74.47048089989767) rotate(0 0.18950085538108397 66.37553697131443)"><path d="M0 0 C0.06 22.13, 0.32 110.63, 0.38 132.75 M0 0 C0.06 22.13, 0.32 110.63, 0.38 132.75" stroke="#FFFFFF" stroke-width="1" fill="none"></path></g></g><mask></mask><g stroke-linecap="round"><g transform="translate(201.69168154605177 207.07761831118842) rotate(0 -51.87673539748448 30.193257743201684)"><path d="M0 0 C-17.29 10.06, -86.46 50.32, -103.75 60.39 M0 0 C-17.29 10.06, -86.46 50.32, -103.75 60.39" stroke="#FFFFFF" stroke-width="1" fill="none"></path></g></g><mask></mask><g stroke-linecap="round"><g transform="translate(97.9382107510828 267.4641337815301) rotate(0 -0.14954444814247836 -66.3535726224618)"><path d="M0 0 C-0.05 -22.12, -0.25 -110.59, -0.3 -132.71 M0 0 C-0.05 -22.12, -0.25 -110.59, -0.3 -132.71" stroke="#FFFFFF" stroke-width="1" fill="none"></path></g></g><mask></mask><g stroke-linecap="round"><g transform="translate(170.08686441030477 92.84668961822535) rotate(0 -0.04813461924550211 66.21524401596253)"><path d="M0 0 C-0.02 22.07, -0.08 110.36, -0.1 132.43 M0 0 C-0.02 22.07, -0.08 110.36, -0.1 132.43" stroke="#FFFFFF" stroke-width="1" fill="none"></path></g></g><mask></mask><g stroke-linecap="round"><g transform="translate(161.73542188469582 108.34493018972717) rotate(0 1.848644855657767 0.41970829985257296)"><path d="M0 0 C0.13 -0.25, 0.44 -1.1, 0.78 -1.49 C1.13 -1.88, 1.64 -2.21, 2.07 -2.33 C2.49 -2.46, 3.05 -2.54, 3.32 -2.24 C3.59 -1.94, 3.68 -1.1, 3.7 -0.54 C3.71 0.01, 3.66 0.58, 3.42 1.1 C3.17 1.63, 2.65 2.25, 2.22 2.6 C1.78 2.94, 1.18 3.26, 0.82 3.17 C0.46 3.08, 0.2 2.59, 0.06 2.06 C-0.07 1.53, 0.01 0.34, 0 0 M0 0 C0.13 -0.25, 0.44 -1.1, 0.78 -1.49 C1.13 -1.88, 1.64 -2.21, 2.07 -2.33 C2.49 -2.46, 3.05 -2.54, 3.32 -2.24 C3.59 -1.94, 3.68 -1.1, 3.7 -0.54 C3.71 0.01, 3.66 0.58, 3.42 1.1 C3.17 1.63, 2.65 2.25, 2.22 2.6 C1.78 2.94, 1.18 3.26, 0.82 3.17 C0.46 3.08, 0.2 2.59, 0.06 2.06 C-0.07 1.53, 0.01 0.34, 0 0" stroke="#FFFFFF" stroke-width="1" fill="none"></path></g></g><mask></mask><g stroke-linecap="round"><g transform="translate(162.34816058406068 111.3997690810611) rotate(0 -0.12150486411519523 -3.3282494317227247)"><path d="M0 0 C-0.3 -0.22, -1.28 -0.94, -1.78 -1.3 C-2.28 -1.67, -2.79 -1.81, -2.99 -2.18 C-3.2 -2.54, -3.14 -3.01, -3.02 -3.51 C-2.9 -4.01, -2.6 -4.7, -2.28 -5.18 C-1.96 -5.65, -1.44 -6.11, -1.09 -6.36 C-0.75 -6.6, -0.57 -6.62, -0.21 -6.66 C0.15 -6.69, 0.57 -6.77, 1.07 -6.56 C1.57 -6.35, 2.49 -5.57, 2.78 -5.37 M0 0 C-0.3 -0.22, -1.28 -0.94, -1.78 -1.3 C-2.28 -1.67, -2.79 -1.81, -2.99 -2.18 C-3.2 -2.54, -3.14 -3.01, -3.02 -3.51 C-2.9 -4.01, -2.6 -4.7, -2.28 -5.18 C-1.96 -5.65, -1.44 -6.11, -1.09 -6.36 C-0.75 -6.6, -0.57 -6.62, -0.21 -6.66 C0.15 -6.69, 0.57 -6.77, 1.07 -6.56 C1.57 -6.35, 2.49 -5.57, 2.78 -5.37" stroke="#FFFFFF" stroke-width="1" fill="none"></path></g></g><mask></mask><g stroke-linecap="round"><g transform="translate(178.0243368294432 98.60878180724103) rotate(0 1.848644855657767 0.41970829985257296)"><path d="M0 0 C0.13 -0.25, 0.44 -1.1, 0.78 -1.49 C1.13 -1.88, 1.64 -2.21, 2.07 -2.33 C2.49 -2.46, 3.05 -2.54, 3.32 -2.24 C3.59 -1.94, 3.68 -1.1, 3.7 -0.54 C3.71 0.01, 3.66 0.58, 3.42 1.1 C3.17 1.63, 2.65 2.25, 2.22 2.6 C1.78 2.94, 1.18 3.26, 0.82 3.17 C0.46 3.08, 0.2 2.59, 0.06 2.06 C-0.07 1.53, 0.01 0.34, 0 0 M0 0 C0.13 -0.25, 0.44 -1.1, 0.78 -1.49 C1.13 -1.88, 1.64 -2.21, 2.07 -2.33 C2.49 -2.46, 3.05 -2.54, 3.32 -2.24 C3.59 -1.94, 3.68 -1.1, 3.7 -0.54 C3.71 0.01, 3.66 0.58, 3.42 1.1 C3.17 1.63, 2.65 2.25, 2.22 2.6 C1.78 2.94, 1.18 3.26, 0.82 3.17 C0.46 3.08, 0.2 2.59, 0.06 2.06 C-0.07 1.53, 0.01 0.34, 0 0" stroke="#FFFFFF" stroke-width="1" fill="none"></path></g></g><mask></mask><g stroke-linecap="round"><g transform="translate(178.63707552880805 101.66362069857496) rotate(0 -0.12150486411519523 -3.3282494317227247)"><path d="M0 0 C-0.3 -0.22, -1.28 -0.94, -1.78 -1.3 C-2.28 -1.67, -2.79 -1.81, -2.99 -2.18 C-3.2 -2.54, -3.14 -3.01, -3.02 -3.51 C-2.9 -4.01, -2.6 -4.7, -2.28 -5.18 C-1.96 -5.65, -1.44 -6.11, -1.09 -6.36 C-0.75 -6.6, -0.57 -6.62, -0.21 -6.66 C0.15 -6.69, 0.57 -6.77, 1.07 -6.56 C1.57 -6.35, 2.49 -5.57, 2.78 -5.37 M0 0 C-0.3 -0.22, -1.28 -0.94, -1.78 -1.3 C-2.28 -1.67, -2.79 -1.81, -2.99 -2.18 C-3.2 -2.54, -3.14 -3.01, -3.02 -3.51 C-2.9 -4.01, -2.6 -4.7, -2.28 -5.18 C-1.96 -5.65, -1.44 -6.11, -1.09 -6.36 C-0.75 -6.6, -0.57 -6.62, -0.21 -6.66 C0.15 -6.69, 0.57 -6.77, 1.07 -6.56 C1.57 -6.35, 2.49 -5.57, 2.78 -5.37" stroke="#FFFFFF" stroke-width="1" fill="none"></path></g></g><mask></mask><g stroke-linecap="round"><g transform="translate(99.94294554267435 35.38638211929356) rotate(0 0.46780164763276844 26.051149796783648)"><path d="M0 0 C1.82 -1.05, 7.74 -4.48, 10.89 -6.29 C14.05 -8.1, 16.66 -9.76, 18.94 -10.87 C21.22 -11.98, 22.57 -12.58, 24.6 -12.97 C26.62 -13.36, 28.66 -13.37, 31.11 -13.2 C33.55 -13.04, 36.37 -12.84, 39.28 -11.98 C42.18 -11.12, 45.74 -9.43, 48.52 -8.03 C51.29 -6.62, 53.5 -5.44, 55.92 -3.54 C58.34 -1.63, 61.08 0.74, 63.03 3.4 C64.99 6.07, 66.88 9.09, 67.66 12.44 C68.43 15.79, 68.45 19.75, 67.68 23.5 C66.92 27.25, 65.01 31.63, 63.06 34.95 C61.11 38.27, 58.88 40.74, 55.97 43.44 C53.07 46.14, 49.28 48.83, 45.63 51.14 C41.98 53.46, 38.44 55.57, 34.07 57.35 C29.71 59.12, 23.83 60.67, 19.43 61.8 C15.03 62.94, 12.48 63.57, 7.68 64.15 C2.88 64.73, -3.86 65.21, -9.38 65.3 C-14.89 65.4, -20.17 65.25, -25.43 64.7 C-30.69 64.16, -36.37 63.21, -40.92 62.02 C-45.48 60.84, -49.27 59.22, -52.77 57.58 C-56.28 55.95, -59.73 53.83, -61.97 52.21 C-64.22 50.59, -65.44 49.63, -66.23 47.87 C-67.03 46.11, -67.09 43.33, -66.75 41.66 C-66.41 39.98, -65.94 39.23, -64.18 37.8 C-62.43 36.36, -60.45 35.56, -56.23 33.03 C-52.01 30.51, -43.8 25.6, -38.87 22.65 C-33.95 19.7, -29.83 17.19, -26.69 15.33 C-23.55 13.47, -21.14 12.14, -20.03 11.5 M0 0 C1.82 -1.05, 7.74 -4.48, 10.89 -6.29 C14.05 -8.1, 16.66 -9.76, 18.94 -10.87 C21.22 -11.98, 22.57 -12.58, 24.6 -12.97 C26.62 -13.36, 28.66 -13.37, 31.11 -13.2 C33.55 -13.04, 36.37 -12.84, 39.28 -11.98 C42.18 -11.12, 45.74 -9.43, 48.52 -8.03 C51.29 -6.62, 53.5 -5.44, 55.92 -3.54 C58.34 -1.63, 61.08 0.74, 63.03 3.4 C64.99 6.07, 66.88 9.09, 67.66 12.44 C68.43 15.79, 68.45 19.75, 67.68 23.5 C66.92 27.25, 65.01 31.63, 63.06 34.95 C61.11 38.27, 58.88 40.74, 55.97 43.44 C53.07 46.14, 49.28 48.83, 45.63 51.14 C41.98 53.46, 38.44 55.57, 34.07 57.35 C29.71 59.12, 23.83 60.67, 19.43 61.8 C15.03 62.94, 12.48 63.57, 7.68 64.15 C2.88 64.73, -3.86 65.21, -9.38 65.3 C-14.89 65.4, -20.17 65.25, -25.43 64.7 C-30.69 64.16, -36.37 63.21, -40.92 62.02 C-45.48 60.84, -49.27 59.22, -52.77 57.58 C-56.28 55.95, -59.73 53.83, -61.97 52.21 C-64.22 50.59, -65.44 49.63, -66.23 47.87 C-67.03 46.11, -67.09 43.33, -66.75 41.66 C-66.41 39.98, -65.94 39.23, -64.18 37.8 C-62.43 36.36, -60.45 35.56, -56.23 33.03 C-52.01 30.51, -43.8 25.6, -38.87 22.65 C-33.95 19.7, -29.83 17.19, -26.69 15.33 C-23.55 13.47, -21.14 12.14, -20.03 11.5" stroke="#FFFFFF" stroke-width="1" fill="none"></path></g></g><mask></mask><g stroke-linecap="round"><g transform="translate(87.36885547183374 35.031214054954035) rotate(0 6.985183152967693 0.5921579948699218)"><path d="M0 0 C1.63 0.96, 7.4 4.39, 9.79 5.75 C12.17 7.12, 12.99 7.73, 14.32 8.19 C15.64 8.65, 16.77 8.66, 17.74 8.52 C18.71 8.38, 19.62 7.93, 20.16 7.34 C20.7 6.74, 21.18 5.59, 20.97 4.96 C20.76 4.32, 20.39 4.34, 18.91 3.51 C17.42 2.68, 14.6 1.39, 12.04 -0.04 C9.48 -1.47, 5.69 -3.88, 3.53 -5.06 C1.38 -6.25, 0.28 -6.77, -0.9 -7.15 C-2.08 -7.53, -2.67 -7.45, -3.54 -7.33 C-4.41 -7.22, -5.54 -6.83, -6.11 -6.45 C-6.69 -6.08, -7 -5.57, -7 -5.09 C-7 -4.62, -6.85 -4.18, -6.1 -3.59 C-5.35 -3, -3.53 -2.15, -2.52 -1.56 C-1.5 -0.96, -0.42 -0.26, 0 0 M0 0 C1.63 0.96, 7.4 4.39, 9.79 5.75 C12.17 7.12, 12.99 7.73, 14.32 8.19 C15.64 8.65, 16.77 8.66, 17.74 8.52 C18.71 8.38, 19.62 7.93, 20.16 7.34 C20.7 6.74, 21.18 5.59, 20.97 4.96 C20.76 4.32, 20.39 4.34, 18.91 3.51 C17.42 2.68, 14.6 1.39, 12.04 -0.04 C9.48 -1.47, 5.69 -3.88, 3.53 -5.06 C1.38 -6.25, 0.28 -6.77, -0.9 -7.15 C-2.08 -7.53, -2.67 -7.45, -3.54 -7.33 C-4.41 -7.22, -5.54 -6.83, -6.11 -6.45 C-6.69 -6.08, -7 -5.57, -7 -5.09 C-7 -4.62, -6.85 -4.18, -6.1 -3.59 C-5.35 -3, -3.53 -2.15, -2.52 -1.56 C-1.5 -0.96, -0.42 -0.26, 0 0" stroke="#FFFFFF" stroke-width="1" fill="none"></path></g></g><mask></mask><g stroke-linecap="round"><g transform="translate(108.49223446014366 40.410578194900154) rotate(0 -14.558561737503624 -3.480749458223727)"><path d="M0 0 C0.08 0.43, 0.6 1.89, 0.51 2.59 C0.41 3.3, 0.07 3.8, -0.56 4.23 C-1.19 4.66, -2.39 4.96, -3.3 5.15 C-4.21 5.34, -4.97 5.58, -6.02 5.36 C-7.07 5.14, -7.84 4.74, -9.59 3.82 C-11.34 2.9, -14.37 1.02, -16.52 -0.17 C-18.67 -1.35, -20.63 -2.22, -22.51 -3.28 C-24.38 -4.35, -26.6 -5.76, -27.79 -6.55 C-28.97 -7.35, -29.32 -7.57, -29.62 -8.07 C-29.92 -8.58, -29.78 -9.04, -29.59 -9.6 C-29.4 -10.15, -28.97 -10.96, -28.46 -11.42 C-27.95 -11.87, -26.85 -12.17, -26.52 -12.32 M0 0 C0.08 0.43, 0.6 1.89, 0.51 2.59 C0.41 3.3, 0.07 3.8, -0.56 4.23 C-1.19 4.66, -2.39 4.96, -3.3 5.15 C-4.21 5.34, -4.97 5.58, -6.02 5.36 C-7.07 5.14, -7.84 4.74, -9.59 3.82 C-11.34 2.9, -14.37 1.02, -16.52 -0.17 C-18.67 -1.35, -20.63 -2.22, -22.51 -3.28 C-24.38 -4.35, -26.6 -5.76, -27.79 -6.55 C-28.97 -7.35, -29.32 -7.57, -29.62 -8.07 C-29.92 -8.58, -29.78 -9.04, -29.59 -9.6 C-29.4 -10.15, -28.97 -10.96, -28.46 -11.42 C-27.95 -11.87, -26.85 -12.17, -26.52 -12.32" stroke="#FFFFFF" stroke-width="1" fill="none"></path></g></g><mask></mask><g stroke-linecap="round"><g transform="translate(80.08928815272338 33.504902377244434) rotate(0 4.725374098973589 4.359963264214457)"><path d="M0 0 C0.01 0.92, 0.04 4.36, 0.06 5.54 C0.08 6.73, -0.12 6.67, 0.11 7.09 C0.35 7.52, 0.78 7.82, 1.47 8.09 C2.16 8.36, 3.32 8.65, 4.26 8.72 C5.2 8.79, 6.26 8.66, 7.11 8.5 C7.95 8.34, 8.93 8.08, 9.3 7.74 C9.68 7.39, 9.33 6.78, 9.35 6.42 C9.38 6.06, 9.43 5.73, 9.45 5.59 M0 0 C0.01 0.92, 0.04 4.36, 0.06 5.54 C0.08 6.73, -0.12 6.67, 0.11 7.09 C0.35 7.52, 0.78 7.82, 1.47 8.09 C2.16 8.36, 3.32 8.65, 4.26 8.72 C5.2 8.79, 6.26 8.66, 7.11 8.5 C7.95 8.34, 8.93 8.08, 9.3 7.74 C9.68 7.39, 9.33 6.78, 9.35 6.42 C9.38 6.06, 9.43 5.73, 9.45 5.59" stroke="#FFFFFF" stroke-width="1" fill="none"></path></g></g><mask></mask><g stroke-linecap="round"><g transform="translate(89.22097405206296 41.427429228420806) rotate(0 -4.261760702805077 0.9442553981607489)"><path d="M0 0 C0.01 0.25, 0.36 1.15, 0.07 1.48 C-0.22 1.8, -0.87 1.87, -1.74 1.95 C-2.6 2.04, -4 2.06, -5.12 1.99 C-6.25 1.91, -7.9 1.76, -8.48 1.52 C-9.06 1.27, -8.57 0.8, -8.59 0.53 C-8.61 0.26, -8.59 0.01, -8.59 -0.1 M0 0 C0.01 0.25, 0.36 1.15, 0.07 1.48 C-0.22 1.8, -0.87 1.87, -1.74 1.95 C-2.6 2.04, -4 2.06, -5.12 1.99 C-6.25 1.91, -7.9 1.76, -8.48 1.52 C-9.06 1.27, -8.57 0.8, -8.59 0.53 C-8.61 0.26, -8.59 0.01, -8.59 -0.1" stroke="#FFFFFF" stroke-width="1" fill="none"></path></g></g><mask></mask><g stroke-linecap="round"><g transform="translate(80.91741614123748 43.21786549796161) rotate(0 3.8918686559864 4.041413104128878)"><path d="M0 0 C-0.01 0.77, 0.05 3.66, -0.08 4.6 C-0.22 5.54, -0.82 5.24, -0.79 5.65 C-0.76 6.06, -0.37 6.6, 0.12 7.06 C0.61 7.53, 1.3 8.18, 2.16 8.44 C3.02 8.7, 4.36 8.7, 5.28 8.61 C6.2 8.52, 7.14 8.2, 7.68 7.88 C8.22 7.57, 8.37 7.2, 8.5 6.71 C8.64 6.21, 8.48 5.66, 8.49 4.89 C8.5 4.12, 8.58 3.01, 8.57 2.1 C8.57 1.2, 8.47 -0.09, 8.46 -0.53 M0 0 C-0.01 0.77, 0.05 3.66, -0.08 4.6 C-0.22 5.54, -0.82 5.24, -0.79 5.65 C-0.76 6.06, -0.37 6.6, 0.12 7.06 C0.61 7.53, 1.3 8.18, 2.16 8.44 C3.02 8.7, 4.36 8.7, 5.28 8.61 C6.2 8.52, 7.14 8.2, 7.68 7.88 C8.22 7.57, 8.37 7.2, 8.5 6.71 C8.64 6.21, 8.48 5.66, 8.49 4.89 C8.5 4.12, 8.58 3.01, 8.57 2.1 C8.57 1.2, 8.47 -0.09, 8.46 -0.53" stroke="#FFFFFF" stroke-width="1" fill="none"></path></g></g><mask></mask><g stroke-linecap="round"><g transform="translate(98.14063460369653 34.231114800073556) rotate(0 -0.11331064777914435 -1.6161811377605773)"><path d="M0 0 C0.33 -0.11, 1.56 -0.31, 1.99 -0.68 C2.42 -1.06, 2.7 -1.84, 2.57 -2.26 C2.44 -2.69, 1.71 -3.13, 1.2 -3.23 C0.69 -3.34, 0.09 -3.11, -0.49 -2.91 C-1.07 -2.7, -1.88 -2.22, -2.26 -2 C-2.65 -1.79, -2.71 -1.68, -2.8 -1.61 M0 0 C0.33 -0.11, 1.56 -0.31, 1.99 -0.68 C2.42 -1.06, 2.7 -1.84, 2.57 -2.26 C2.44 -2.69, 1.71 -3.13, 1.2 -3.23 C0.69 -3.34, 0.09 -3.11, -0.49 -2.91 C-1.07 -2.7, -1.88 -2.22, -2.26 -2 C-2.65 -1.79, -2.71 -1.68, -2.8 -1.61" stroke="#FFFFFF" stroke-width="1" fill="none"></path></g></g><mask></mask><g stroke-linecap="round"><g transform="translate(100.65241798011994 45.33248545131937) rotate(0 4.162277795094269 18.481030670120163)"><path d="M0 0 C-1.34 0.89, -4.62 3.23, -8.07 5.36 C-11.52 7.49, -16.62 10.41, -20.69 12.78 C-24.75 15.15, -29.01 17.59, -32.44 19.61 C-35.88 21.62, -38.92 23.46, -41.28 24.89 C-43.65 26.31, -45.39 27.26, -46.65 28.14 C-47.9 29.02, -48.37 29.36, -48.8 30.17 C-49.23 30.98, -49.42 31.9, -49.22 33.01 C-49.02 34.13, -48.83 35.52, -47.62 36.85 C-46.4 38.18, -44.07 39.59, -41.92 41.01 C-39.77 42.42, -38.02 44.17, -34.74 45.32 C-31.46 46.47, -27.14 47.29, -22.24 47.91 C-17.33 48.53, -11.44 49.08, -5.3 49.04 C0.85 49, 8.28 48.99, 14.64 47.69 C20.99 46.39, 27.48 43.82, 32.84 41.25 C38.19 38.67, 43.02 35.57, 46.78 32.22 C50.54 28.88, 53.59 24.98, 55.38 21.17 C57.18 17.35, 57.83 12.7, 57.54 9.34 C57.25 5.99, 55.36 3.51, 53.65 1.03 C51.95 -1.45, 49.65 -3.67, 47.31 -5.53 C44.97 -7.38, 42.2 -9.01, 39.63 -10.1 C37.05 -11.19, 34.68 -11.75, 31.88 -12.08 C29.08 -12.41, 25.61 -12.66, 22.83 -12.06 C20.05 -11.47, 17.67 -9.76, 15.2 -8.52 C12.73 -7.27, 9.21 -5.24, 8.01 -4.59 M0 0 C-1.34 0.89, -4.62 3.23, -8.07 5.36 C-11.52 7.49, -16.62 10.41, -20.69 12.78 C-24.75 15.15, -29.01 17.59, -32.44 19.61 C-35.88 21.62, -38.92 23.46, -41.28 24.89 C-43.65 26.31, -45.39 27.26, -46.65 28.14 C-47.9 29.02, -48.37 29.36, -48.8 30.17 C-49.23 30.98, -49.42 31.9, -49.22 33.01 C-49.02 34.13, -48.83 35.52, -47.62 36.85 C-46.4 38.18, -44.07 39.59, -41.92 41.01 C-39.77 42.42, -38.02 44.17, -34.74 45.32 C-31.46 46.47, -27.14 47.29, -22.24 47.91 C-17.33 48.53, -11.44 49.08, -5.3 49.04 C0.85 49, 8.28 48.99, 14.64 47.69 C20.99 46.39, 27.48 43.82, 32.84 41.25 C38.19 38.67, 43.02 35.57, 46.78 32.22 C50.54 28.88, 53.59 24.98, 55.38 21.17 C57.18 17.35, 57.83 12.7, 57.54 9.34 C57.25 5.99, 55.36 3.51, 53.65 1.03 C51.95 -1.45, 49.65 -3.67, 47.31 -5.53 C44.97 -7.38, 42.2 -9.01, 39.63 -10.1 C37.05 -11.19, 34.68 -11.75, 31.88 -12.08 C29.08 -12.41, 25.61 -12.66, 22.83 -12.06 C20.05 -11.47, 17.67 -9.76, 15.2 -8.52 C12.73 -7.27, 9.21 -5.24, 8.01 -4.59" stroke="#FFFFFF" stroke-width="1" fill="none"></path></g></g><mask></mask><g stroke-linecap="round"><g transform="translate(154.33785058628928 69.59146291577781) rotate(0 -45.422333638505734 2.9885843395077245)"><path d="M0 0 C-0.34 -0.43, -0.95 -1.45, -2.01 -2.57 C-3.08 -3.7, -4.61 -5.35, -6.39 -6.76 C-8.17 -8.17, -10.41 -9.88, -12.69 -11.04 C-14.98 -12.2, -17.59 -13.23, -20.11 -13.73 C-22.63 -14.24, -25.02 -14.53, -27.81 -14.07 C-30.6 -13.61, -33.48 -12.52, -36.84 -10.96 C-40.2 -9.39, -43.99 -6.95, -47.95 -4.65 C-51.91 -2.36, -56.23 0.31, -60.61 2.83 C-65 5.34, -70.14 8.14, -74.26 10.45 C-78.38 12.77, -82.58 15.14, -85.34 16.74 C-88.1 18.34, -89.93 19.5, -90.84 20.05 M0 0 C-0.34 -0.43, -0.95 -1.45, -2.01 -2.57 C-3.08 -3.7, -4.61 -5.35, -6.39 -6.76 C-8.17 -8.17, -10.41 -9.88, -12.69 -11.04 C-14.98 -12.2, -17.59 -13.23, -20.11 -13.73 C-22.63 -14.24, -25.02 -14.53, -27.81 -14.07 C-30.6 -13.61, -33.48 -12.52, -36.84 -10.96 C-40.2 -9.39, -43.99 -6.95, -47.95 -4.65 C-51.91 -2.36, -56.23 0.31, -60.61 2.83 C-65 5.34, -70.14 8.14, -74.26 10.45 C-78.38 12.77, -82.58 15.14, -85.34 16.74 C-88.1 18.34, -89.93 19.5, -90.84 20.05" stroke="#FFFFFF" stroke-width="1" fill="none"></path></g></g><mask></mask><g stroke-linecap="round"><g transform="translate(98.2965807833516 86.83644726537386) rotate(0 3.325059347829665 -2.7028110447699873)"><path d="M0 0 C0.69 0.06, 2.85 0.47, 4.11 0.36 C5.37 0.26, 6.79 -0.13, 7.55 -0.64 C8.32 -1.16, 8.63 -2.09, 8.68 -2.73 C8.74 -3.37, 8.4 -3.99, 7.88 -4.47 C7.36 -4.95, 6.41 -5.39, 5.55 -5.6 C4.68 -5.82, 3.63 -5.83, 2.7 -5.77 C1.78 -5.71, 0.78 -5.59, -0.01 -5.23 C-0.8 -4.87, -1.71 -4.25, -2.03 -3.61 C-2.35 -2.97, -2.28 -2, -1.95 -1.4 C-1.61 -0.8, -0.32 -0.23, 0 0 M0 0 C0.69 0.06, 2.85 0.47, 4.11 0.36 C5.37 0.26, 6.79 -0.13, 7.55 -0.64 C8.32 -1.16, 8.63 -2.09, 8.68 -2.73 C8.74 -3.37, 8.4 -3.99, 7.88 -4.47 C7.36 -4.95, 6.41 -5.39, 5.55 -5.6 C4.68 -5.82, 3.63 -5.83, 2.7 -5.77 C1.78 -5.71, 0.78 -5.59, -0.01 -5.23 C-0.8 -4.87, -1.71 -4.25, -2.03 -3.61 C-2.35 -2.97, -2.28 -2, -1.95 -1.4 C-1.61 -0.8, -0.32 -0.23, 0 0" stroke="#FFFFFF" stroke-width="1" fill="none"></path></g></g><mask></mask><g stroke-linecap="round"><g transform="translate(99.69958426173253 89.47396064871646) rotate(0 1.8593189006223838 -5.766679746870068)"><path d="M0 0 C0.77 0, 3.18 0.14, 4.6 -0.03 C6.01 -0.2, 7.42 -0.48, 8.48 -1.03 C9.54 -1.57, 10.52 -2.32, 10.96 -3.28 C11.39 -4.24, 11.33 -5.79, 11.1 -6.77 C10.86 -7.76, 10.31 -8.47, 9.53 -9.17 C8.76 -9.87, 7.66 -10.57, 6.45 -10.96 C5.24 -11.36, 3.69 -11.55, 2.25 -11.53 C0.82 -11.51, -0.84 -11.26, -2.16 -10.83 C-3.49 -10.41, -4.83 -9.8, -5.7 -8.98 C-6.57 -8.16, -7.22 -6.97, -7.38 -5.94 C-7.53 -4.9, -7.2 -3.58, -6.63 -2.76 C-6.07 -1.94, -4.82 -1.45, -4.01 -1.02 C-3.2 -0.59, -2.42 -0.34, -1.76 -0.17 C-1.09 0, -0.29 -0.03, 0 0 M0 0 C0.77 0, 3.18 0.14, 4.6 -0.03 C6.01 -0.2, 7.42 -0.48, 8.48 -1.03 C9.54 -1.57, 10.52 -2.32, 10.96 -3.28 C11.39 -4.24, 11.33 -5.79, 11.1 -6.77 C10.86 -7.76, 10.31 -8.47, 9.53 -9.17 C8.76 -9.87, 7.66 -10.57, 6.45 -10.96 C5.24 -11.36, 3.69 -11.55, 2.25 -11.53 C0.82 -11.51, -0.84 -11.26, -2.16 -10.83 C-3.49 -10.41, -4.83 -9.8, -5.7 -8.98 C-6.57 -8.16, -7.22 -6.97, -7.38 -5.94 C-7.53 -4.9, -7.2 -3.58, -6.63 -2.76 C-6.07 -1.94, -4.82 -1.45, -4.01 -1.02 C-3.2 -0.59, -2.42 -0.34, -1.76 -0.17 C-1.09 0, -0.29 -0.03, 0 0" stroke="#FFFFFF" stroke-width="1" fill="none"></path></g></g><mask></mask><g stroke-linecap="round"><g transform="translate(129.0126800875314 32.98002203948272) rotate(0 -0.008239702323407982 11.04095515242625)"><path d="M0 0 C-0.02 1.75, -0.16 6.8, -0.14 10.48 C-0.12 14.16, 0.08 20.15, 0.12 22.08 M0 0 C-0.02 1.75, -0.16 6.8, -0.14 10.48 C-0.12 14.16, 0.08 20.15, 0.12 22.08" stroke="#FFFFFF" stroke-width="1" fill="none"></path></g></g><mask></mask><g stroke-linecap="round"><g transform="translate(126.72966764072225 55.145313212626206) rotate(0 -0.10871487841905036 -10.098554571737623)"><path d="M0 0 C0 -1.85, -0.01 -8.29, 0 -11.08 C0.01 -13.88, 0.11 -15.24, 0.06 -16.76 C0.01 -18.28, -0.22 -19.62, -0.28 -20.2 M0 0 C0 -1.85, -0.01 -8.29, 0 -11.08 C0.01 -13.88, 0.11 -15.24, 0.06 -16.76 C0.01 -18.28, -0.22 -19.62, -0.28 -20.2" stroke="#FFFFFF" stroke-width="1" fill="none"></path></g></g><mask></mask><g stroke-linecap="round"><g transform="translate(206.35679583152887 199.57035016991358) rotate(0 -37.226425610318984 39.26933799831022)"><path d="M0 0 C3.27 1.89, 14.55 8.4, 19.63 11.34 C24.71 14.27, 27.71 16.04, 30.47 17.6 C33.23 19.17, 34.99 19.95, 36.19 20.73 C37.4 21.51, 37.98 21.71, 37.72 22.31 C37.46 22.9, 38.36 22, 34.65 24.29 C30.95 26.59, 24.44 30.99, 15.48 36.07 C6.53 41.15, -7.72 48.43, -19.07 54.79 C-30.42 61.16, -46.1 70.38, -52.64 74.27 C-59.17 78.16, -55.78 77.44, -58.25 78.15 C-60.73 78.86, -62.2 78.54, -67.51 78.54 C-72.81 78.53, -83.33 78.18, -90.08 78.13 C-96.84 78.08, -104.34 78.28, -108.02 78.23 C-111.7 78.18, -111.48 77.88, -112.17 77.81 M0 0 C3.27 1.89, 14.55 8.4, 19.63 11.34 C24.71 14.27, 27.71 16.04, 30.47 17.6 C33.23 19.17, 34.99 19.95, 36.19 20.73 C37.4 21.51, 37.98 21.71, 37.72 22.31 C37.46 22.9, 38.36 22, 34.65 24.29 C30.95 26.59, 24.44 30.99, 15.48 36.07 C6.53 41.15, -7.72 48.43, -19.07 54.79 C-30.42 61.16, -46.1 70.38, -52.64 74.27 C-59.17 78.16, -55.78 77.44, -58.25 78.15 C-60.73 78.86, -62.2 78.54, -67.51 78.54 C-72.81 78.53, -83.33 78.18, -90.08 78.13 C-96.84 78.08, -104.34 78.28, -108.02 78.23 C-111.7 78.18, -111.48 77.88, -112.17 77.81" stroke="#FFFFFF" stroke-width="1" fill="none"></path></g></g><mask></mask></svg>