<svg version="1.1" xmlns="http://www.w3.org/2000/svg" viewBox="0 0 482.61410244646584 255.66384472130713" width="482.61410244646584" height="255.66384472130713" class="excalidraw-svg"><!-- svg-source:excalidraw --><metadata></metadata><defs><style class="style-fonts">
      </style></defs><rect x="0" y="0" width="482.61410244646584" height="255.66384472130713" fill="#000000"></rect><g stroke-linecap="round"><g transform="translate(257.5334714265873 112.99183878330606) rotate(0 15.79376151749409 11.791381882837106)"><path d="M0 0 C1.67 -0.69, 6.5 -3.46, 10.04 -4.13 C13.58 -4.8, 18.08 -4.88, 21.22 -4.02 C24.36 -3.16, 27.16 -1.05, 28.89 1.03 C30.62 3.1, 31.19 5.77, 31.59 8.43 C31.99 11.1, 31.76 14.4, 31.29 16.99 C30.81 19.59, 29.51 22.2, 28.72 23.99 C27.93 25.77, 26.89 28.52, 26.57 27.71 C26.25 26.9, 27.11 22.11, 26.79 19.13 C26.47 16.15, 26.08 12.45, 24.65 9.81 C23.22 7.18, 21.39 4.81, 18.2 3.3 C15.01 1.8, 8.56 1.34, 5.52 0.79 C2.49 0.24, 0.92 0.13, 0 0 M0 0 C1.67 -0.69, 6.5 -3.46, 10.04 -4.13 C13.58 -4.8, 18.08 -4.88, 21.22 -4.02 C24.36 -3.16, 27.16 -1.05, 28.89 1.03 C30.62 3.1, 31.19 5.77, 31.59 8.43 C31.99 11.1, 31.76 14.4, 31.29 16.99 C30.81 19.59, 29.51 22.2, 28.72 23.99 C27.93 25.77, 26.89 28.52, 26.57 27.71 C26.25 26.9, 27.11 22.11, 26.79 19.13 C26.47 16.15, 26.08 12.45, 24.65 9.81 C23.22 7.18, 21.39 4.81, 18.2 3.3 C15.01 1.8, 8.56 1.34, 5.52 0.79 C2.49 0.24, 0.92 0.13, 0 0" stroke="#E1E1E1" stroke-width="4" fill="none"></path></g></g><mask></mask><g stroke-linecap="round"><g transform="translate(138.68026021076662 237.66100645201396) rotate(0 -6.541718829944841 -31.355842289994825)"><path d="M0 0 C2.19 0.37, 7.72 1.8, 13.11 2.22 C18.51 2.64, 26.62 2.65, 32.39 2.54 C38.16 2.42, 43.48 2.09, 47.75 1.52 C52.03 0.94, 55.8 -0.14, 58.05 -0.92 C60.29 -1.7, 61.08 -2.71, 61.24 -3.16 C61.41 -3.62, 60.25 -3.35, 59.02 -3.65 C57.8 -3.94, 55.4 -4.43, 53.89 -4.93 C52.38 -5.42, 51.55 -5.6, 49.96 -6.61 C48.37 -7.63, 45.42 -9.84, 44.35 -11.02 C43.28 -12.2, 43.16 -13.21, 43.55 -13.7 C43.93 -14.19, 45.34 -13.46, 46.67 -13.98 C48 -14.5, 50.1 -15.45, 51.55 -16.83 C52.99 -18.21, 54.19 -20.42, 55.34 -22.26 C56.5 -24.1, 57.74 -25.85, 58.48 -27.86 C59.21 -29.87, 59.97 -33.99, 59.76 -34.33 C59.55 -34.68, 58.59 -31.57, 57.2 -29.93 C55.81 -28.29, 53.51 -25.99, 51.41 -24.5 C49.31 -23.01, 47.06 -21.65, 44.6 -20.98 C42.14 -20.32, 38.89 -20.46, 36.65 -20.51 C34.41 -20.56, 32.65 -20.79, 31.15 -21.27 C29.65 -21.76, 28.73 -22.39, 27.65 -23.41 C26.57 -24.43, 25.51 -25.97, 24.67 -27.37 C23.82 -28.77, 23.1 -30.68, 22.58 -31.8 C22.06 -32.93, 21.84 -34.67, 21.56 -34.15 C21.28 -33.63, 20.67 -30.56, 20.9 -28.68 C21.13 -26.8, 21.89 -24.76, 22.92 -22.86 C23.96 -20.96, 26.26 -18.44, 27.11 -17.26 C27.96 -16.08, 28.19 -16.36, 28.01 -15.76 C27.83 -15.16, 27.44 -14.09, 26.04 -13.67 C24.63 -13.25, 21.8 -13.41, 19.59 -13.24 C17.38 -13.06, 14.88 -12.53, 12.75 -12.62 C10.62 -12.7, 8.7 -12.94, 6.83 -13.74 C4.96 -14.53, 2.87 -16.14, 1.51 -17.37 C0.14 -18.61, -1.33 -20.64, -1.36 -21.16 C-1.4 -21.67, 0 -20.56, 1.29 -20.45 C2.58 -20.35, 4.75 -20.38, 6.4 -20.55 C8.06 -20.72, 10.01 -21.04, 11.22 -21.46 C12.42 -21.89, 14.14 -22.77, 13.65 -23.1 C13.17 -23.43, 10.22 -23.01, 8.31 -23.44 C6.4 -23.87, 3.99 -24.58, 2.2 -25.7 C0.41 -26.81, -1.03 -28.01, -2.43 -30.14 C-3.83 -32.28, -5.58 -35.47, -6.2 -38.48 C-6.82 -41.49, -6.73 -44.68, -6.14 -48.21 C-5.55 -51.73, -4.25 -55.99, -2.66 -59.64 C-1.07 -63.29, 3.85 -69.72, 3.38 -70.1 C2.92 -70.48, -3.04 -65.26, -5.43 -61.9 C-7.83 -58.53, -9.75 -53.89, -10.98 -49.91 C-12.22 -45.94, -12.39 -41.59, -12.84 -38.05 C-13.28 -34.51, -13.21 -29.51, -13.65 -28.66 C-14.09 -27.81, -15.11 -30.78, -15.47 -32.94 C-15.82 -35.09, -15.69 -39.52, -15.8 -41.59 C-15.9 -43.65, -15.8 -46.42, -16.09 -45.32 C-16.37 -44.22, -17.38 -38.05, -17.49 -35 C-17.6 -31.95, -17.44 -29.82, -16.77 -27.02 C-16.09 -24.21, -13.28 -19.29, -13.43 -18.16 C-13.58 -17.04, -16.15 -19.32, -17.67 -20.25 C-19.19 -21.18, -22.39 -24.56, -22.54 -23.73 C-22.7 -22.91, -20 -17.93, -18.6 -15.3 C-17.19 -12.66, -16.12 -10.02, -14.11 -7.93 C-12.1 -5.84, -7.3 -3.78, -6.55 -2.77 C-5.8 -1.76, -7.33 -2.2, -9.61 -1.89 C-11.89 -1.58, -15.66 -1.13, -20.25 -0.91 C-24.85 -0.69, -35.37 -0.39, -37.18 -0.56 C-38.98 -0.72, -32.87 -1.04, -31.06 -1.92 C-29.24 -2.8, -25.78 -5.36, -26.29 -5.85 C-26.8 -6.35, -30.87 -4.84, -34.11 -4.88 C-37.35 -4.93, -42.55 -5.23, -45.75 -6.11 C-48.95 -6.98, -51.2 -8.3, -53.31 -10.14 C-55.42 -11.98, -57.23 -14.96, -58.42 -17.12 C-59.61 -19.28, -59.92 -20.31, -60.44 -23.11 C-60.96 -25.9, -61.13 -33.8, -61.54 -33.87 C-61.95 -33.94, -61.89 -26.32, -62.89 -23.51 C-63.89 -20.69, -65.63 -18.59, -67.54 -16.98 C-69.45 -15.37, -74.35 -14.43, -74.33 -13.85 C-74.31 -13.28, -69.16 -13.58, -67.42 -13.53 C-65.68 -13.48, -64.62 -14.36, -63.9 -13.56 C-63.17 -12.75, -63.39 -10.45, -63.07 -8.69 C-62.75 -6.93, -62.19 -4.37, -62 -2.99 C-61.82 -1.62, -61.4 -0.62, -61.96 -0.44 C-62.53 -0.26, -64.51 -0.46, -65.41 -1.93 C-66.3 -3.41, -66.76 -9.24, -67.32 -9.3 C-67.88 -9.36, -68.91 -4.51, -68.76 -2.31 C-68.61 -0.11, -67.89 2.28, -66.4 3.9 C-64.92 5.52, -64.4 7.02, -59.87 7.39 C-55.34 7.75, -45.65 6.46, -39.22 6.08 C-32.79 5.71, -26.58 5.75, -21.28 5.15 C-15.99 4.55, -11 3.34, -7.45 2.48 C-3.9 1.62, -1.24 0.41, 0 0 M0 0 C2.19 0.37, 7.72 1.8, 13.11 2.22 C18.51 2.64, 26.62 2.65, 32.39 2.54 C38.16 2.42, 43.48 2.09, 47.75 1.52 C52.03 0.94, 55.8 -0.14, 58.05 -0.92 C60.29 -1.7, 61.08 -2.71, 61.24 -3.16 C61.41 -3.62, 60.25 -3.35, 59.02 -3.65 C57.8 -3.94, 55.4 -4.43, 53.89 -4.93 C52.38 -5.42, 51.55 -5.6, 49.96 -6.61 C48.37 -7.63, 45.42 -9.84, 44.35 -11.02 C43.28 -12.2, 43.16 -13.21, 43.55 -13.7 C43.93 -14.19, 45.34 -13.46, 46.67 -13.98 C48 -14.5, 50.1 -15.45, 51.55 -16.83 C52.99 -18.21, 54.19 -20.42, 55.34 -22.26 C56.5 -24.1, 57.74 -25.85, 58.48 -27.86 C59.21 -29.87, 59.97 -33.99, 59.76 -34.33 C59.55 -34.68, 58.59 -31.57, 57.2 -29.93 C55.81 -28.29, 53.51 -25.99, 51.41 -24.5 C49.31 -23.01, 47.06 -21.65, 44.6 -20.98 C42.14 -20.32, 38.89 -20.46, 36.65 -20.51 C34.41 -20.56, 32.65 -20.79, 31.15 -21.27 C29.65 -21.76, 28.73 -22.39, 27.65 -23.41 C26.57 -24.43, 25.51 -25.97, 24.67 -27.37 C23.82 -28.77, 23.1 -30.68, 22.58 -31.8 C22.06 -32.93, 21.84 -34.67, 21.56 -34.15 C21.28 -33.63, 20.67 -30.56, 20.9 -28.68 C21.13 -26.8, 21.89 -24.76, 22.92 -22.86 C23.96 -20.96, 26.26 -18.44, 27.11 -17.26 C27.96 -16.08, 28.19 -16.36, 28.01 -15.76 C27.83 -15.16, 27.44 -14.09, 26.04 -13.67 C24.63 -13.25, 21.8 -13.41, 19.59 -13.24 C17.38 -13.06, 14.88 -12.53, 12.75 -12.62 C10.62 -12.7, 8.7 -12.94, 6.83 -13.74 C4.96 -14.53, 2.87 -16.14, 1.51 -17.37 C0.14 -18.61, -1.33 -20.64, -1.36 -21.16 C-1.4 -21.67, 0 -20.56, 1.29 -20.45 C2.58 -20.35, 4.75 -20.38, 6.4 -20.55 C8.06 -20.72, 10.01 -21.04, 11.22 -21.46 C12.42 -21.89, 14.14 -22.77, 13.65 -23.1 C13.17 -23.43, 10.22 -23.01, 8.31 -23.44 C6.4 -23.87, 3.99 -24.58, 2.2 -25.7 C0.41 -26.81, -1.03 -28.01, -2.43 -30.14 C-3.83 -32.28, -5.58 -35.47, -6.2 -38.48 C-6.82 -41.49, -6.73 -44.68, -6.14 -48.21 C-5.55 -51.73, -4.25 -55.99, -2.66 -59.64 C-1.07 -63.29, 3.85 -69.72, 3.38 -70.1 C2.92 -70.48, -3.04 -65.26, -5.43 -61.9 C-7.83 -58.53, -9.75 -53.89, -10.98 -49.91 C-12.22 -45.94, -12.39 -41.59, -12.84 -38.05 C-13.28 -34.51, -13.21 -29.51, -13.65 -28.66 C-14.09 -27.81, -15.11 -30.78, -15.47 -32.94 C-15.82 -35.09, -15.69 -39.52, -15.8 -41.59 C-15.9 -43.65, -15.8 -46.42, -16.09 -45.32 C-16.37 -44.22, -17.38 -38.05, -17.49 -35 C-17.6 -31.95, -17.44 -29.82, -16.77 -27.02 C-16.09 -24.21, -13.28 -19.29, -13.43 -18.16 C-13.58 -17.04, -16.15 -19.32, -17.67 -20.25 C-19.19 -21.18, -22.39 -24.56, -22.54 -23.73 C-22.7 -22.91, -20 -17.93, -18.6 -15.3 C-17.19 -12.66, -16.12 -10.02, -14.11 -7.93 C-12.1 -5.84, -7.3 -3.78, -6.55 -2.77 C-5.8 -1.76, -7.33 -2.2, -9.61 -1.89 C-11.89 -1.58, -15.66 -1.13, -20.25 -0.91 C-24.85 -0.69, -35.37 -0.39, -37.18 -0.56 C-38.98 -0.72, -32.87 -1.04, -31.06 -1.92 C-29.24 -2.8, -25.78 -5.36, -26.29 -5.85 C-26.8 -6.35, -30.87 -4.84, -34.11 -4.88 C-37.35 -4.93, -42.55 -5.23, -45.75 -6.11 C-48.95 -6.98, -51.2 -8.3, -53.31 -10.14 C-55.42 -11.98, -57.23 -14.96, -58.42 -17.12 C-59.61 -19.28, -59.92 -20.31, -60.44 -23.11 C-60.96 -25.9, -61.13 -33.8, -61.54 -33.87 C-61.95 -33.94, -61.89 -26.32, -62.89 -23.51 C-63.89 -20.69, -65.63 -18.59, -67.54 -16.98 C-69.45 -15.37, -74.35 -14.43, -74.33 -13.85 C-74.31 -13.28, -69.16 -13.58, -67.42 -13.53 C-65.68 -13.48, -64.62 -14.36, -63.9 -13.56 C-63.17 -12.75, -63.39 -10.45, -63.07 -8.69 C-62.75 -6.93, -62.19 -4.37, -62 -2.99 C-61.82 -1.62, -61.4 -0.62, -61.96 -0.44 C-62.53 -0.26, -64.51 -0.46, -65.41 -1.93 C-66.3 -3.41, -66.76 -9.24, -67.32 -9.3 C-67.88 -9.36, -68.91 -4.51, -68.76 -2.31 C-68.61 -0.11, -67.89 2.28, -66.4 3.9 C-64.92 5.52, -64.4 7.02, -59.87 7.39 C-55.34 7.75, -45.65 6.46, -39.22 6.08 C-32.79 5.71, -26.58 5.75, -21.28 5.15 C-15.99 4.55, -11 3.34, -7.45 2.48 C-3.9 1.62, -1.24 0.41, 0 0" stroke="#E1E1E1" stroke-width="4" fill="none"></path></g></g><mask></mask><g stroke-linecap="round"><g transform="translate(151.5895588369392 177.29189599525677) rotate(0 -1.0633121248908424 -3.1748659469334157)"><path d="M0 0 C0.85 -1.1, 3.82 -4.71, 5.12 -6.61 C6.43 -8.5, 7.8 -10.38, 7.83 -11.36 C7.86 -12.33, 6.6 -12.36, 5.29 -12.47 C3.97 -12.57, 1.61 -12.84, -0.06 -12.01 C-1.74 -11.18, -3.37 -9.28, -4.78 -7.48 C-6.19 -5.67, -7.63 -3.05, -8.5 -1.17 C-9.36 0.71, -9.96 2.61, -9.96 3.82 C-9.96 5.04, -9.36 5.93, -8.48 6.12 C-7.6 6.31, -5.9 5.7, -4.66 4.96 C-3.43 4.21, -1.85 2.47, -1.07 1.65 C-0.3 0.82, -0.18 0.27, 0 0 M0 0 C0.85 -1.1, 3.82 -4.71, 5.12 -6.61 C6.43 -8.5, 7.8 -10.38, 7.83 -11.36 C7.86 -12.33, 6.6 -12.36, 5.29 -12.47 C3.97 -12.57, 1.61 -12.84, -0.06 -12.01 C-1.74 -11.18, -3.37 -9.28, -4.78 -7.48 C-6.19 -5.67, -7.63 -3.05, -8.5 -1.17 C-9.36 0.71, -9.96 2.61, -9.96 3.82 C-9.96 5.04, -9.36 5.93, -8.48 6.12 C-7.6 6.31, -5.9 5.7, -4.66 4.96 C-3.43 4.21, -1.85 2.47, -1.07 1.65 C-0.3 0.82, -0.18 0.27, 0 0" stroke="#E1E1E1" stroke-width="4" fill="none"></path></g></g><mask></mask><g stroke-linecap="round"><g transform="translate(181.81120012636677 140.6779693080694) rotate(0 17.74187771692391 -5.51062606933143)"><path d="M0 0 C-0.74 -1.31, -3.45 -5.06, -4.44 -7.88 C-5.43 -10.71, -6.17 -13.07, -5.93 -16.98 C-5.7 -20.88, -4.27 -27.45, -3.01 -31.31 C-1.75 -35.16, 2.11 -39.53, 1.63 -40.1 C1.15 -40.68, -3.62 -37.14, -5.89 -34.77 C-8.16 -32.39, -10.55 -29.55, -12 -25.88 C-13.45 -22.21, -14.31 -17.28, -14.6 -12.75 C-14.89 -8.22, -14.17 -2.01, -13.73 1.33 C-13.3 4.67, -11.17 6.9, -11.99 7.28 C-12.81 7.67, -17.81 3.27, -18.64 3.65 C-19.48 4.02, -18.22 7.38, -17.02 9.54 C-15.81 11.71, -14.22 14.05, -11.4 16.65 C-8.58 19.24, -4.56 23.04, -0.1 25.11 C4.36 27.18, 9.94 28.77, 15.35 29.08 C20.76 29.4, 27.42 28.39, 32.38 26.98 C37.33 25.58, 41.47 24.09, 45.09 20.68 C48.72 17.27, 54.3 7.53, 54.13 6.52 C53.95 5.5, 47.68 12.68, 44.04 14.58 C40.4 16.49, 36.52 17.37, 32.3 17.94 C28.08 18.51, 22.73 18.59, 18.73 18.01 C14.72 17.43, 11.37 16.34, 8.27 14.44 C5.18 12.54, 0.62 7.6, 0.15 6.61 C-0.31 5.62, 3.27 8.16, 5.49 8.49 C7.71 8.82, 13.55 9.25, 13.48 8.6 C13.4 7.95, 7.3 6, 5.05 4.57 C2.81 3.14, 0.84 0.76, 0 0 M0 0 C-0.74 -1.31, -3.45 -5.06, -4.44 -7.88 C-5.43 -10.71, -6.17 -13.07, -5.93 -16.98 C-5.7 -20.88, -4.27 -27.45, -3.01 -31.31 C-1.75 -35.16, 2.11 -39.53, 1.63 -40.1 C1.15 -40.68, -3.62 -37.14, -5.89 -34.77 C-8.16 -32.39, -10.55 -29.55, -12 -25.88 C-13.45 -22.21, -14.31 -17.28, -14.6 -12.75 C-14.89 -8.22, -14.17 -2.01, -13.73 1.33 C-13.3 4.67, -11.17 6.9, -11.99 7.28 C-12.81 7.67, -17.81 3.27, -18.64 3.65 C-19.48 4.02, -18.22 7.38, -17.02 9.54 C-15.81 11.71, -14.22 14.05, -11.4 16.65 C-8.58 19.24, -4.56 23.04, -0.1 25.11 C4.36 27.18, 9.94 28.77, 15.35 29.08 C20.76 29.4, 27.42 28.39, 32.38 26.98 C37.33 25.58, 41.47 24.09, 45.09 20.68 C48.72 17.27, 54.3 7.53, 54.13 6.52 C53.95 5.5, 47.68 12.68, 44.04 14.58 C40.4 16.49, 36.52 17.37, 32.3 17.94 C28.08 18.51, 22.73 18.59, 18.73 18.01 C14.72 17.43, 11.37 16.34, 8.27 14.44 C5.18 12.54, 0.62 7.6, 0.15 6.61 C-0.31 5.62, 3.27 8.16, 5.49 8.49 C7.71 8.82, 13.55 9.25, 13.48 8.6 C13.4 7.95, 7.3 6, 5.05 4.57 C2.81 3.14, 0.84 0.76, 0 0" stroke="#E1E1E1" stroke-width="4" fill="none"></path></g></g><mask></mask><g stroke-linecap="round"><g transform="translate(123.84430445317389 168.07210264807782) rotate(0 10.720343670642706 -15.156521205472723)"><path d="M0 0 C-0.57 -1.27, -2.67 -4.94, -3.45 -7.62 C-4.22 -10.31, -4.87 -13.49, -4.65 -16.09 C-4.42 -18.69, -3.15 -21.34, -2.09 -23.23 C-1.04 -25.12, 0.12 -26.24, 1.69 -27.42 C3.26 -28.6, 5.01 -29.99, 7.34 -30.31 C9.67 -30.64, 13.13 -30.09, 15.68 -29.35 C18.23 -28.61, 20.88 -26.74, 22.62 -25.89 C24.35 -25.04, 26.57 -24.54, 26.09 -24.26 C25.61 -23.97, 22.1 -24.55, 19.75 -24.17 C17.39 -23.79, 14.23 -23.16, 11.95 -21.98 C9.68 -20.79, 7.67 -19.11, 6.07 -17.07 C4.48 -15.03, 3.37 -11.93, 2.4 -9.75 C1.42 -7.56, 0.62 -5.59, 0.22 -3.97 C-0.18 -2.34, 0.04 -0.66, 0 0 M0 0 C-0.57 -1.27, -2.67 -4.94, -3.45 -7.62 C-4.22 -10.31, -4.87 -13.49, -4.65 -16.09 C-4.42 -18.69, -3.15 -21.34, -2.09 -23.23 C-1.04 -25.12, 0.12 -26.24, 1.69 -27.42 C3.26 -28.6, 5.01 -29.99, 7.34 -30.31 C9.67 -30.64, 13.13 -30.09, 15.68 -29.35 C18.23 -28.61, 20.88 -26.74, 22.62 -25.89 C24.35 -25.04, 26.57 -24.54, 26.09 -24.26 C25.61 -23.97, 22.1 -24.55, 19.75 -24.17 C17.39 -23.79, 14.23 -23.16, 11.95 -21.98 C9.68 -20.79, 7.67 -19.11, 6.07 -17.07 C4.48 -15.03, 3.37 -11.93, 2.4 -9.75 C1.42 -7.56, 0.62 -5.59, 0.22 -3.97 C-0.18 -2.34, 0.04 -0.66, 0 0" stroke="#E1E1E1" stroke-width="4" fill="none"></path></g></g><mask></mask><g stroke-linecap="round"><g transform="translate(85.23887205821325 197.2841770117542) rotate(0 5.233572525989473 -0.6410441742618005)"><path d="M0 0 C-0.43 0.83, -2.1 2.94, -2.57 5.01 C-3.04 7.08, -2.99 9.98, -2.81 12.39 C-2.62 14.81, -2.57 17.29, -1.47 19.5 C-0.36 21.7, 3.1 25.36, 3.83 25.62 C4.55 25.88, 3.07 22.98, 2.87 21.05 C2.67 19.13, 2.25 16.41, 2.63 14.06 C3 11.71, 4.07 8.86, 5.11 6.96 C6.16 5.06, 7.38 3.8, 8.87 2.64 C10.36 1.48, 13.77 0.67, 14.05 0.01 C14.32 -0.64, 11.53 -0.66, 10.54 -1.29 C9.56 -1.92, 8.56 -2.75, 8.16 -3.76 C7.76 -4.77, 8.14 -6.36, 8.12 -7.35 C8.1 -8.34, 7.51 -9.38, 8.06 -9.69 C8.61 -10, 10.06 -9.32, 11.44 -9.22 C12.83 -9.12, 15.35 -8.57, 16.34 -9.1 C17.33 -9.62, 17.25 -10.58, 17.36 -12.37 C17.48 -14.16, 16.55 -17.85, 17.03 -19.86 C17.52 -21.86, 19.9 -23.26, 20.25 -24.41 C20.6 -25.56, 19.8 -26.68, 19.12 -26.75 C18.44 -26.81, 17.92 -26.15, 16.18 -24.79 C14.43 -23.43, 10.75 -20.31, 8.67 -18.59 C6.59 -16.87, 5.17 -15.29, 3.7 -14.48 C2.22 -13.67, 1.01 -13.37, -0.18 -13.76 C-1.36 -14.14, -2.92 -15.39, -3.42 -16.8 C-3.91 -18.2, -4.19 -20.48, -3.15 -22.17 C-2.11 -23.85, 3.31 -26.65, 2.83 -26.9 C2.35 -27.16, -4.02 -25.62, -6.03 -23.7 C-8.04 -21.78, -8.58 -17.94, -9.21 -15.38 C-9.83 -12.81, -10.38 -10.48, -9.78 -8.31 C-9.18 -6.14, -7.23 -3.75, -5.6 -2.36 C-3.97 -0.98, -0.93 -0.39, 0 0 M0 0 C-0.43 0.83, -2.1 2.94, -2.57 5.01 C-3.04 7.08, -2.99 9.98, -2.81 12.39 C-2.62 14.81, -2.57 17.29, -1.47 19.5 C-0.36 21.7, 3.1 25.36, 3.83 25.62 C4.55 25.88, 3.07 22.98, 2.87 21.05 C2.67 19.13, 2.25 16.41, 2.63 14.06 C3 11.71, 4.07 8.86, 5.11 6.96 C6.16 5.06, 7.38 3.8, 8.87 2.64 C10.36 1.48, 13.77 0.67, 14.05 0.01 C14.32 -0.64, 11.53 -0.66, 10.54 -1.29 C9.56 -1.92, 8.56 -2.75, 8.16 -3.76 C7.76 -4.77, 8.14 -6.36, 8.12 -7.35 C8.1 -8.34, 7.51 -9.38, 8.06 -9.69 C8.61 -10, 10.06 -9.32, 11.44 -9.22 C12.83 -9.12, 15.35 -8.57, 16.34 -9.1 C17.33 -9.62, 17.25 -10.58, 17.36 -12.37 C17.48 -14.16, 16.55 -17.85, 17.03 -19.86 C17.52 -21.86, 19.9 -23.26, 20.25 -24.41 C20.6 -25.56, 19.8 -26.68, 19.12 -26.75 C18.44 -26.81, 17.92 -26.15, 16.18 -24.79 C14.43 -23.43, 10.75 -20.31, 8.67 -18.59 C6.59 -16.87, 5.17 -15.29, 3.7 -14.48 C2.22 -13.67, 1.01 -13.37, -0.18 -13.76 C-1.36 -14.14, -2.92 -15.39, -3.42 -16.8 C-3.91 -18.2, -4.19 -20.48, -3.15 -22.17 C-2.11 -23.85, 3.31 -26.65, 2.83 -26.9 C2.35 -27.16, -4.02 -25.62, -6.03 -23.7 C-8.04 -21.78, -8.58 -17.94, -9.21 -15.38 C-9.83 -12.81, -10.38 -10.48, -9.78 -8.31 C-9.18 -6.14, -7.23 -3.75, -5.6 -2.36 C-3.97 -0.98, -0.93 -0.39, 0 0" stroke="#E1E1E1" stroke-width="4" fill="none"></path></g></g><mask></mask><g stroke-linecap="round"><g transform="translate(124.56313376214325 75.72117971384264) rotate(0 117.22864958805792 53.881971513146)"><path d="M0 0 C0.77 -0.36, 2.76 -1.73, 4.64 -2.14 C6.52 -2.56, 10.42 -2.11, 11.29 -2.49 C12.16 -2.87, 10.39 -3.62, 9.84 -4.42 C9.3 -5.23, 8.28 -6.24, 8.04 -7.32 C7.8 -8.4, 8.06 -9.78, 8.41 -10.9 C8.76 -12.02, 9.43 -13.43, 10.15 -14.04 C10.88 -14.66, 12.74 -14.12, 12.73 -14.59 C12.73 -15.07, 11.27 -15.53, 10.13 -16.89 C9 -18.24, 6.94 -20.67, 5.92 -22.71 C4.91 -24.75, 4.12 -26.75, 4.05 -29.12 C3.97 -31.49, 4.53 -34.53, 5.48 -36.92 C6.43 -39.32, 8.5 -41.71, 9.77 -43.48 C11.03 -45.26, 12.64 -46.67, 13.09 -47.57 C13.55 -48.48, 12.75 -48.38, 12.49 -48.91 C12.24 -49.45, 11.53 -50.14, 11.55 -50.8 C11.57 -51.47, 12.41 -52.24, 12.62 -52.9 C12.82 -53.56, 12.97 -54.03, 12.78 -54.74 C12.59 -55.45, 12.11 -56.63, 11.49 -57.15 C10.88 -57.67, 9.77 -57.61, 9.1 -57.88 C8.43 -58.15, 7.74 -58.29, 7.46 -58.76 C7.19 -59.22, 7.2 -60.21, 7.46 -60.66 C7.73 -61.11, 8.46 -61.37, 9.04 -61.44 C9.62 -61.51, 10.27 -61.59, 10.94 -61.07 C11.61 -60.55, 12.44 -59.28, 13.08 -58.31 C13.72 -57.35, 14.42 -56.32, 14.8 -55.27 C15.18 -54.23, 15.2 -53.22, 15.34 -52.03 C15.48 -50.84, 15.56 -49.07, 15.62 -48.13 C15.68 -47.18, 15.43 -46.66, 15.71 -46.37 C15.98 -46.08, 16.79 -46.69, 17.27 -46.37 C17.74 -46.05, 18.31 -45.27, 18.57 -44.46 C18.83 -43.66, 18.87 -42.34, 18.85 -41.53 C18.83 -40.71, 18.23 -39.73, 18.45 -39.56 C18.68 -39.38, 19.43 -40.4, 20.21 -40.47 C21 -40.54, 22.42 -40.26, 23.15 -39.98 C23.88 -39.71, 24.19 -38.64, 24.59 -38.84 C25 -39.05, 24.82 -40.17, 25.57 -41.22 C26.31 -42.27, 27.42 -44.01, 29.07 -45.12 C30.71 -46.23, 33.08 -47.3, 35.44 -47.89 C37.8 -48.48, 40.54 -48.84, 43.24 -48.64 C45.94 -48.43, 49.23 -47.93, 51.64 -46.66 C54.05 -45.38, 56.22 -42.51, 57.7 -40.99 C59.17 -39.47, 60.01 -37.7, 60.51 -37.53 C61.01 -37.36, 60.49 -39.24, 60.7 -39.96 C60.9 -40.68, 60.98 -41.39, 61.72 -41.85 C62.46 -42.31, 64.19 -42.91, 65.13 -42.71 C66.07 -42.5, 66.81 -41.34, 67.34 -40.61 C67.86 -39.87, 68.08 -38, 68.29 -38.31 C68.51 -38.62, 68.09 -41.14, 68.62 -42.47 C69.15 -43.81, 70.43 -45.41, 71.49 -46.34 C72.54 -47.27, 73.65 -47.82, 74.97 -48.06 C76.28 -48.3, 78.07 -48.46, 79.37 -47.79 C80.67 -47.13, 81.95 -44.47, 82.78 -44.07 C83.61 -43.68, 83.78 -45.19, 84.35 -45.42 C84.93 -45.64, 85.94 -45.1, 86.21 -45.45 C86.48 -45.8, 85.93 -46.83, 85.99 -47.51 C86.06 -48.2, 86.11 -49.07, 86.6 -49.58 C87.09 -50.09, 88.13 -50.4, 88.94 -50.55 C89.74 -50.71, 90.82 -50.32, 91.43 -50.49 C92.03 -50.65, 92.35 -50.89, 92.55 -51.55 C92.75 -52.21, 92.16 -53.55, 92.64 -54.46 C93.13 -55.36, 93.96 -55.97, 95.46 -56.98 C96.97 -57.99, 99.48 -59.87, 101.67 -60.52 C103.86 -61.16, 105.75 -60.83, 108.6 -60.88 C111.45 -60.92, 115.65 -61.47, 118.78 -60.78 C121.91 -60.09, 124.98 -58.26, 127.38 -56.73 C129.77 -55.2, 131.55 -53.54, 133.16 -51.6 C134.76 -49.65, 136.21 -46.84, 137.01 -45.04 C137.8 -43.24, 137.19 -41.42, 137.92 -40.79 C138.65 -40.16, 140.22 -41.21, 141.39 -41.24 C142.56 -41.28, 144.01 -41.54, 144.94 -41.01 C145.87 -40.47, 146.42 -38.74, 146.97 -38.01 C147.52 -37.29, 147.37 -36.8, 148.25 -36.65 C149.14 -36.5, 150.7 -37.1, 152.26 -37.1 C153.81 -37.1, 155.97 -37.27, 157.58 -36.67 C159.2 -36.06, 160.74 -34.79, 161.97 -33.48 C163.19 -32.16, 164.08 -29.95, 164.94 -28.76 C165.8 -27.57, 166.65 -26.16, 167.12 -26.35 C167.59 -26.54, 167.22 -28.48, 167.75 -29.9 C168.28 -31.33, 169.23 -33.51, 170.31 -34.91 C171.4 -36.31, 172.87 -37.59, 174.26 -38.31 C175.65 -39.03, 177.59 -38.9, 178.63 -39.25 C179.68 -39.59, 180.23 -39.77, 180.53 -40.37 C180.83 -40.96, 180.17 -42.37, 180.46 -42.81 C180.75 -43.26, 182.02 -42.28, 182.26 -43.06 C182.49 -43.83, 181.65 -46.26, 181.88 -47.46 C182.1 -48.67, 182.78 -49.7, 183.61 -50.29 C184.44 -50.89, 185.96 -50.66, 186.85 -51.04 C187.73 -51.42, 188.47 -51.67, 188.91 -52.57 C189.34 -53.47, 188.69 -55.12, 189.48 -56.43 C190.27 -57.74, 192.17 -59.49, 193.63 -60.44 C195.08 -61.39, 197.04 -62.06, 198.2 -62.11 C199.36 -62.17, 200.3 -61.4, 200.6 -60.77 C200.9 -60.15, 200.52 -58.74, 199.99 -58.38 C199.46 -58.03, 198.14 -58.58, 197.42 -58.62 C196.7 -58.67, 196.34 -58.79, 195.65 -58.65 C194.96 -58.51, 193.88 -58.51, 193.28 -57.78 C192.68 -57.05, 192.27 -55.74, 192.04 -54.29 C191.8 -52.83, 191.88 -50.41, 191.85 -49.05 C191.82 -47.68, 191.98 -46.83, 191.85 -46.11 C191.73 -45.38, 190.91 -45.11, 191.1 -44.7 C191.3 -44.29, 191.89 -44.54, 193 -43.65 C194.11 -42.76, 196.62 -41.04, 197.76 -39.37 C198.9 -37.71, 199.57 -35.1, 199.83 -33.64 C200.08 -32.18, 199.02 -31.07, 199.29 -30.64 C199.55 -30.21, 200.71 -31.06, 201.41 -31.05 C202.12 -31.04, 202.82 -30.84, 203.49 -30.6 C204.16 -30.37, 204.88 -29.63, 205.43 -29.64 C205.97 -29.65, 206.06 -30.48, 206.76 -30.67 C207.45 -30.85, 208.66 -31.22, 209.6 -30.73 C210.55 -30.24, 211.79 -28.98, 212.42 -27.74 C213.05 -26.49, 213.57 -24.83, 213.4 -23.26 C213.23 -21.7, 212.13 -19.73, 211.39 -18.36 C210.65 -16.98, 209.11 -15.96, 208.97 -15.02 C208.82 -14.08, 209.98 -13.61, 210.53 -12.71 C211.08 -11.82, 211.87 -11.16, 212.26 -9.65 C212.65 -8.13, 213 -5.39, 212.88 -3.61 C212.75 -1.83, 211.8 -0.13, 211.51 1.04 C211.21 2.21, 210.69 3.1, 211.1 3.41 C211.51 3.73, 212.93 2.98, 213.97 2.94 C215.01 2.89, 216.38 2.82, 217.33 3.14 C218.29 3.46, 219.03 4, 219.7 4.86 C220.37 5.72, 220.81 7.93, 221.34 8.31 C221.86 8.69, 222.1 7.83, 222.85 7.13 C223.6 6.42, 224.49 4.84, 225.84 4.1 C227.19 3.35, 229.1 2.58, 230.96 2.68 C232.82 2.79, 235.35 3.87, 236.98 4.71 C238.61 5.56, 239.76 6.55, 240.76 7.76 C241.75 8.97, 242.48 10.83, 242.93 11.99 C243.39 13.16, 242.93 14.71, 243.47 14.74 C244 14.76, 244.92 12.54, 246.14 12.14 C247.35 11.73, 249.5 11.64, 250.77 12.32 C252.04 13, 253.12 14.95, 253.77 16.23 C254.42 17.52, 253.46 19.29, 254.69 20.03 C255.93 20.78, 259.66 20.34, 261.19 20.71 C262.72 21.08, 263.31 22.28, 263.88 22.27 C264.46 22.27, 264.14 20.9, 264.63 20.67 C265.12 20.43, 266.21 20.4, 266.83 20.84 C267.45 21.29, 267.61 22.63, 268.36 23.36 C269.12 24.08, 270.24 25.18, 271.36 25.2 C272.48 25.22, 273.85 24.43, 275.09 23.46 C276.34 22.49, 277.67 20.01, 278.83 19.37 C279.99 18.74, 281.49 19.25, 282.05 19.65 C282.6 20.05, 282.66 21.05, 282.17 21.77 C281.68 22.49, 280.21 23.22, 279.1 24 C277.98 24.77, 276.66 26.03, 275.49 26.44 C274.32 26.85, 272.86 26.37, 272.07 26.43 C271.28 26.5, 271 26.47, 270.76 26.84 C270.52 27.21, 271 28.03, 270.64 28.65 C270.27 29.26, 269.47 30.09, 268.57 30.51 C267.67 30.94, 266.33 31.33, 265.24 31.21 C264.16 31.1, 262.79 30.28, 262.06 29.81 C261.34 29.33, 261.24 28.17, 260.87 28.35 C260.49 28.52, 260.32 30.05, 259.81 30.86 C259.3 31.67, 259.02 32.67, 257.79 33.21 C256.55 33.75, 253.36 33.16, 252.42 34.1 C251.47 35.04, 252.59 37.07, 252.12 38.87 C251.65 40.67, 250.47 43.23, 249.6 44.88 C248.73 46.54, 246.85 47.14, 246.92 48.79 C246.99 50.44, 248.84 52.55, 250.01 54.77 C251.19 57, 253.08 59.02, 253.99 62.14 C254.91 65.26, 255.43 70.26, 255.51 73.5 C255.59 76.74, 255 79.24, 254.49 81.58 C253.97 83.93, 253.16 85.56, 252.41 87.55 C251.66 89.55, 249.94 92.62, 249.98 93.53 C250.01 94.43, 251.55 92.96, 252.62 92.98 C253.69 93.01, 255.62 93.04, 256.4 93.66 C257.17 94.28, 257.13 95.57, 257.27 96.71 C257.42 97.84, 257.39 98.8, 257.27 100.46 C257.15 102.13, 256.04 106.04, 256.57 106.72 C257.1 107.4, 258.52 105.12, 260.44 104.54 C262.36 103.96, 265.4 103.26, 268.09 103.22 C270.79 103.18, 274.19 103.22, 276.62 104.32 C279.04 105.41, 281.18 108.2, 282.62 109.78 C284.05 111.36, 284.44 112.11, 285.21 113.8 C285.98 115.5, 286.87 117.81, 287.23 119.95 C287.58 122.1, 286.77 125.83, 287.34 126.66 C287.92 127.49, 289.41 125.15, 290.65 124.92 C291.9 124.69, 293.52 124.63, 294.83 125.29 C296.13 125.94, 297.52 127.54, 298.5 128.84 C299.47 130.13, 300.33 131.21, 300.67 133.05 C301.02 134.88, 300.74 138.14, 300.56 139.86 C300.38 141.59, 299.13 142.84, 299.59 143.39 C300.05 143.95, 302 143.12, 303.3 143.21 C304.61 143.3, 306.18 143.58, 307.43 143.94 C308.68 144.3, 309.78 144.47, 310.8 145.4 C311.82 146.33, 312.88 147.76, 313.56 149.51 C314.23 151.26, 314 154.37, 314.86 155.9 C315.72 157.43, 317.07 158.15, 318.71 158.71 C320.35 159.27, 323.11 158.9, 324.71 159.25 C326.31 159.59, 326.98 160.05, 328.33 160.78 C329.69 161.52, 331.37 163, 332.87 163.66 C334.37 164.32, 335.13 164.51, 337.32 164.75 C339.51 165, 344.27 164.74, 346.01 165.14 C347.75 165.54, 348.5 166.84, 347.77 167.17 C347.05 167.51, 345.4 167.13, 341.65 167.15 C337.91 167.17, 338.16 167.04, 325.31 167.29 C312.45 167.54, 280.99 168.44, 264.53 168.67 C248.08 168.9, 239.7 168.82, 226.55 168.67 C213.4 168.53, 202.06 167.99, 185.61 167.79 C169.17 167.59, 147.85 167.43, 127.87 167.47 C107.89 167.51, 89.63 167.77, 65.72 168.03 C41.8 168.29, 12.45 168.72, -15.62 169.03 C-43.69 169.34, -86.41 169.81, -102.7 169.88 C-118.98 169.94, -114 170.11, -113.32 169.42 C-112.64 168.74, -102.07 167.1, -98.61 165.76 C-95.15 164.43, -94.09 162.27, -92.56 161.42 C-91.03 160.58, -90.85 160.54, -89.44 160.68 C-88.03 160.83, -85.36 162.64, -84.08 162.3 C-82.8 161.96, -82.6 159.96, -81.77 158.64 C-80.94 157.33, -80.24 155.03, -79.12 154.39 C-77.99 153.75, -76.17 154.67, -75.04 154.79 C-73.9 154.91, -73.65 155.7, -72.3 155.14 C-70.94 154.58, -67.91 152.58, -66.9 151.43 C-65.9 150.27, -66.09 149.65, -66.26 148.22 C-66.43 146.8, -67.79 145.07, -67.92 142.89 C-68.04 140.7, -67.96 137.49, -67 135.09 C-66.03 132.69, -63.82 130, -62.13 128.49 C-60.44 126.97, -58.79 126.26, -56.86 125.99 C-54.92 125.73, -51.97 127.01, -50.54 126.88 C-49.1 126.74, -49.14 125.73, -48.23 125.18 C-47.32 124.63, -45.12 124, -45.07 123.55 C-45.02 123.1, -46.9 123.28, -47.91 122.47 C-48.92 121.66, -50.28 120.25, -51.1 118.68 C-51.92 117.12, -52.46 115.41, -52.83 113.09 C-53.21 110.77, -53.8 107.33, -53.37 104.76 C-52.94 102.19, -51.78 99.99, -50.25 97.66 C-48.72 95.33, -46.2 92.35, -44.17 90.79 C-42.15 89.24, -40.1 88.54, -38.09 88.35 C-36.08 88.16, -33.25 90.1, -32.11 89.66 C-30.98 89.22, -32.12 86.83, -31.28 85.73 C-30.43 84.64, -28.47 83.58, -27.03 83.07 C-25.59 82.57, -23.36 83.44, -22.64 82.71 C-21.92 81.98, -22.88 80.32, -22.72 78.69 C-22.57 77.06, -22.34 74.56, -21.7 72.95 C-21.07 71.34, -18.95 69.83, -18.9 69.02 C-18.85 68.21, -20.29 68.85, -21.4 68.09 C-22.52 67.33, -24.33 66.09, -25.61 64.48 C-26.9 62.87, -28.47 60.77, -29.11 58.46 C-29.75 56.14, -29.66 52.55, -29.47 50.6 C-29.28 48.65, -27.71 47.38, -27.96 46.76 C-28.2 46.14, -29.8 47.09, -30.94 46.88 C-32.07 46.66, -33.81 46.21, -34.79 45.48 C-35.77 44.75, -36.04 42.85, -36.82 42.52 C-37.59 42.19, -38.58 43.62, -39.42 43.5 C-40.26 43.38, -40.9 42.07, -41.84 41.78 C-42.78 41.5, -43.6 41.84, -45.05 41.8 C-46.5 41.76, -48.71 41.98, -50.54 41.54 C-52.37 41.09, -54.42 40.07, -56.04 39.13 C-57.66 38.2, -59.15 37.77, -60.26 35.93 C-61.37 34.09, -61.93 29.54, -62.71 28.09 C-63.48 26.64, -64 27.46, -64.92 27.22 C-65.83 26.97, -67.42 27.26, -68.2 26.6 C-68.99 25.94, -69.64 23.95, -69.64 23.25 C-69.64 22.55, -68.69 22.4, -68.19 22.39 C-67.68 22.38, -67.11 22.7, -66.61 23.2 C-66.11 23.71, -65.73 25.29, -65.19 25.41 C-64.65 25.54, -64.08 24.31, -63.36 23.96 C-62.64 23.6, -61.64 23.02, -60.87 23.27 C-60.11 23.52, -59.53 24.91, -58.79 25.43 C-58.04 25.96, -57.25 26.53, -56.4 26.4 C-55.54 26.28, -54.84 25.1, -53.67 24.67 C-52.5 24.24, -50.5 23.78, -49.39 23.82 C-48.28 23.85, -47.88 25.28, -47.01 24.9 C-46.13 24.53, -45.53 22.46, -44.12 21.57 C-42.71 20.67, -40.22 19.48, -38.53 19.53 C-36.84 19.57, -34.93 21.81, -33.96 21.83 C-33 21.86, -33.58 20.53, -32.74 19.69 C-31.89 18.84, -30.23 17.13, -28.88 16.75 C-27.54 16.37, -25.49 17.84, -24.66 17.41 C-23.83 16.98, -24.62 15.43, -23.88 14.17 C-23.15 12.91, -21.46 10.92, -20.24 9.86 C-19.02 8.81, -17.94 8.08, -16.57 7.84 C-15.19 7.59, -13.2 8.07, -11.99 8.4 C-10.78 8.73, -10.02 10.17, -9.3 9.82 C-8.59 9.47, -8.72 7.59, -7.68 6.3 C-6.63 5, -4.32 3.09, -3.05 2.04 C-1.77 0.99, -0.51 0.34, 0 0 M0 0 C0.77 -0.36, 2.76 -1.73, 4.64 -2.14 C6.52 -2.56, 10.42 -2.11, 11.29 -2.49 C12.16 -2.87, 10.39 -3.62, 9.84 -4.42 C9.3 -5.23, 8.28 -6.24, 8.04 -7.32 C7.8 -8.4, 8.06 -9.78, 8.41 -10.9 C8.76 -12.02, 9.43 -13.43, 10.15 -14.04 C10.88 -14.66, 12.74 -14.12, 12.73 -14.59 C12.73 -15.07, 11.27 -15.53, 10.13 -16.89 C9 -18.24, 6.94 -20.67, 5.92 -22.71 C4.91 -24.75, 4.12 -26.75, 4.05 -29.12 C3.97 -31.49, 4.53 -34.53, 5.48 -36.92 C6.43 -39.32, 8.5 -41.71, 9.77 -43.48 C11.03 -45.26, 12.64 -46.67, 13.09 -47.57 C13.55 -48.48, 12.75 -48.38, 12.49 -48.91 C12.24 -49.45, 11.53 -50.14, 11.55 -50.8 C11.57 -51.47, 12.41 -52.24, 12.62 -52.9 C12.82 -53.56, 12.97 -54.03, 12.78 -54.74 C12.59 -55.45, 12.11 -56.63, 11.49 -57.15 C10.88 -57.67, 9.77 -57.61, 9.1 -57.88 C8.43 -58.15, 7.74 -58.29, 7.46 -58.76 C7.19 -59.22, 7.2 -60.21, 7.46 -60.66 C7.73 -61.11, 8.46 -61.37, 9.04 -61.44 C9.62 -61.51, 10.27 -61.59, 10.94 -61.07 C11.61 -60.55, 12.44 -59.28, 13.08 -58.31 C13.72 -57.35, 14.42 -56.32, 14.8 -55.27 C15.18 -54.23, 15.2 -53.22, 15.34 -52.03 C15.48 -50.84, 15.56 -49.07, 15.62 -48.13 C15.68 -47.18, 15.43 -46.66, 15.71 -46.37 C15.98 -46.08, 16.79 -46.69, 17.27 -46.37 C17.74 -46.05, 18.31 -45.27, 18.57 -44.46 C18.83 -43.66, 18.87 -42.34, 18.85 -41.53 C18.83 -40.71, 18.23 -39.73, 18.45 -39.56 C18.68 -39.38, 19.43 -40.4, 20.21 -40.47 C21 -40.54, 22.42 -40.26, 23.15 -39.98 C23.88 -39.71, 24.19 -38.64, 24.59 -38.84 C25 -39.05, 24.82 -40.17, 25.57 -41.22 C26.31 -42.27, 27.42 -44.01, 29.07 -45.12 C30.71 -46.23, 33.08 -47.3, 35.44 -47.89 C37.8 -48.48, 40.54 -48.84, 43.24 -48.64 C45.94 -48.43, 49.23 -47.93, 51.64 -46.66 C54.05 -45.38, 56.22 -42.51, 57.7 -40.99 C59.17 -39.47, 60.01 -37.7, 60.51 -37.53 C61.01 -37.36, 60.49 -39.24, 60.7 -39.96 C60.9 -40.68, 60.98 -41.39, 61.72 -41.85 C62.46 -42.31, 64.19 -42.91, 65.13 -42.71 C66.07 -42.5, 66.81 -41.34, 67.34 -40.61 C67.86 -39.87, 68.08 -38, 68.29 -38.31 C68.51 -38.62, 68.09 -41.14, 68.62 -42.47 C69.15 -43.81, 70.43 -45.41, 71.49 -46.34 C72.54 -47.27, 73.65 -47.82, 74.97 -48.06 C76.28 -48.3, 78.07 -48.46, 79.37 -47.79 C80.67 -47.13, 81.95 -44.47, 82.78 -44.07 C83.61 -43.68, 83.78 -45.19, 84.35 -45.42 C84.93 -45.64, 85.94 -45.1, 86.21 -45.45 C86.48 -45.8, 85.93 -46.83, 85.99 -47.51 C86.06 -48.2, 86.11 -49.07, 86.6 -49.58 C87.09 -50.09, 88.13 -50.4, 88.94 -50.55 C89.74 -50.71, 90.82 -50.32, 91.43 -50.49 C92.03 -50.65, 92.35 -50.89, 92.55 -51.55 C92.75 -52.21, 92.16 -53.55, 92.64 -54.46 C93.13 -55.36, 93.96 -55.97, 95.46 -56.98 C96.97 -57.99, 99.48 -59.87, 101.67 -60.52 C103.86 -61.16, 105.75 -60.83, 108.6 -60.88 C111.45 -60.92, 115.65 -61.47, 118.78 -60.78 C121.91 -60.09, 124.98 -58.26, 127.38 -56.73 C129.77 -55.2, 131.55 -53.54, 133.16 -51.6 C134.76 -49.65, 136.21 -46.84, 137.01 -45.04 C137.8 -43.24, 137.19 -41.42, 137.92 -40.79 C138.65 -40.16, 140.22 -41.21, 141.39 -41.24 C142.56 -41.28, 144.01 -41.54, 144.94 -41.01 C145.87 -40.47, 146.42 -38.74, 146.97 -38.01 C147.52 -37.29, 147.37 -36.8, 148.25 -36.65 C149.14 -36.5, 150.7 -37.1, 152.26 -37.1 C153.81 -37.1, 155.97 -37.27, 157.58 -36.67 C159.2 -36.06, 160.74 -34.79, 161.97 -33.48 C163.19 -32.16, 164.08 -29.95, 164.94 -28.76 C165.8 -27.57, 166.65 -26.16, 167.12 -26.35 C167.59 -26.54, 167.22 -28.48, 167.75 -29.9 C168.28 -31.33, 169.23 -33.51, 170.31 -34.91 C171.4 -36.31, 172.87 -37.59, 174.26 -38.31 C175.65 -39.03, 177.59 -38.9, 178.63 -39.25 C179.68 -39.59, 180.23 -39.77, 180.53 -40.37 C180.83 -40.96, 180.17 -42.37, 180.46 -42.81 C180.75 -43.26, 182.02 -42.28, 182.26 -43.06 C182.49 -43.83, 181.65 -46.26, 181.88 -47.46 C182.1 -48.67, 182.78 -49.7, 183.61 -50.29 C184.44 -50.89, 185.96 -50.66, 186.85 -51.04 C187.73 -51.42, 188.47 -51.67, 188.91 -52.57 C189.34 -53.47, 188.69 -55.12, 189.48 -56.43 C190.27 -57.74, 192.17 -59.49, 193.63 -60.44 C195.08 -61.39, 197.04 -62.06, 198.2 -62.11 C199.36 -62.17, 200.3 -61.4, 200.6 -60.77 C200.9 -60.15, 200.52 -58.74, 199.99 -58.38 C199.46 -58.03, 198.14 -58.58, 197.42 -58.62 C196.7 -58.67, 196.34 -58.79, 195.65 -58.65 C194.96 -58.51, 193.88 -58.51, 193.28 -57.78 C192.68 -57.05, 192.27 -55.74, 192.04 -54.29 C191.8 -52.83, 191.88 -50.41, 191.85 -49.05 C191.82 -47.68, 191.98 -46.83, 191.85 -46.11 C191.73 -45.38, 190.91 -45.11, 191.1 -44.7 C191.3 -44.29, 191.89 -44.54, 193 -43.65 C194.11 -42.76, 196.62 -41.04, 197.76 -39.37 C198.9 -37.71, 199.57 -35.1, 199.83 -33.64 C200.08 -32.18, 199.02 -31.07, 199.29 -30.64 C199.55 -30.21, 200.71 -31.06, 201.41 -31.05 C202.12 -31.04, 202.82 -30.84, 203.49 -30.6 C204.16 -30.37, 204.88 -29.63, 205.43 -29.64 C205.97 -29.65, 206.06 -30.48, 206.76 -30.67 C207.45 -30.85, 208.66 -31.22, 209.6 -30.73 C210.55 -30.24, 211.79 -28.98, 212.42 -27.74 C213.05 -26.49, 213.57 -24.83, 213.4 -23.26 C213.23 -21.7, 212.13 -19.73, 211.39 -18.36 C210.65 -16.98, 209.11 -15.96, 208.97 -15.02 C208.82 -14.08, 209.98 -13.61, 210.53 -12.71 C211.08 -11.82, 211.87 -11.16, 212.26 -9.65 C212.65 -8.13, 213 -5.39, 212.88 -3.61 C212.75 -1.83, 211.8 -0.13, 211.51 1.04 C211.21 2.21, 210.69 3.1, 211.1 3.41 C211.51 3.73, 212.93 2.98, 213.97 2.94 C215.01 2.89, 216.38 2.82, 217.33 3.14 C218.29 3.46, 219.03 4, 219.7 4.86 C220.37 5.72, 220.81 7.93, 221.34 8.31 C221.86 8.69, 222.1 7.83, 222.85 7.13 C223.6 6.42, 224.49 4.84, 225.84 4.1 C227.19 3.35, 229.1 2.58, 230.96 2.68 C232.82 2.79, 235.35 3.87, 236.98 4.71 C238.61 5.56, 239.76 6.55, 240.76 7.76 C241.75 8.97, 242.48 10.83, 242.93 11.99 C243.39 13.16, 242.93 14.71, 243.47 14.74 C244 14.76, 244.92 12.54, 246.14 12.14 C247.35 11.73, 249.5 11.64, 250.77 12.32 C252.04 13, 253.12 14.95, 253.77 16.23 C254.42 17.52, 253.46 19.29, 254.69 20.03 C255.93 20.78, 259.66 20.34, 261.19 20.71 C262.72 21.08, 263.31 22.28, 263.88 22.27 C264.46 22.27, 264.14 20.9, 264.63 20.67 C265.12 20.43, 266.21 20.4, 266.83 20.84 C267.45 21.29, 267.61 22.63, 268.36 23.36 C269.12 24.08, 270.24 25.18, 271.36 25.2 C272.48 25.22, 273.85 24.43, 275.09 23.46 C276.34 22.49, 277.67 20.01, 278.83 19.37 C279.99 18.74, 281.49 19.25, 282.05 19.65 C282.6 20.05, 282.66 21.05, 282.17 21.77 C281.68 22.49, 280.21 23.22, 279.1 24 C277.98 24.77, 276.66 26.03, 275.49 26.44 C274.32 26.85, 272.86 26.37, 272.07 26.43 C271.28 26.5, 271 26.47, 270.76 26.84 C270.52 27.21, 271 28.03, 270.64 28.65 C270.27 29.26, 269.47 30.09, 268.57 30.51 C267.67 30.94, 266.33 31.33, 265.24 31.21 C264.16 31.1, 262.79 30.28, 262.06 29.81 C261.34 29.33, 261.24 28.17, 260.87 28.35 C260.49 28.52, 260.32 30.05, 259.81 30.86 C259.3 31.67, 259.02 32.67, 257.79 33.21 C256.55 33.75, 253.36 33.16, 252.42 34.1 C251.47 35.04, 252.59 37.07, 252.12 38.87 C251.65 40.67, 250.47 43.23, 249.6 44.88 C248.73 46.54, 246.85 47.14, 246.92 48.79 C246.99 50.44, 248.84 52.55, 250.01 54.77 C251.19 57, 253.08 59.02, 253.99 62.14 C254.91 65.26, 255.43 70.26, 255.51 73.5 C255.59 76.74, 255 79.24, 254.49 81.58 C253.97 83.93, 253.16 85.56, 252.41 87.55 C251.66 89.55, 249.94 92.62, 249.98 93.53 C250.01 94.43, 251.55 92.96, 252.62 92.98 C253.69 93.01, 255.62 93.04, 256.4 93.66 C257.17 94.28, 257.13 95.57, 257.27 96.71 C257.42 97.84, 257.39 98.8, 257.27 100.46 C257.15 102.13, 256.04 106.04, 256.57 106.72 C257.1 107.4, 258.52 105.12, 260.44 104.54 C262.36 103.96, 265.4 103.26, 268.09 103.22 C270.79 103.18, 274.19 103.22, 276.62 104.32 C279.04 105.41, 281.18 108.2, 282.62 109.78 C284.05 111.36, 284.44 112.11, 285.21 113.8 C285.98 115.5, 286.87 117.81, 287.23 119.95 C287.58 122.1, 286.77 125.83, 287.34 126.66 C287.92 127.49, 289.41 125.15, 290.65 124.92 C291.9 124.69, 293.52 124.63, 294.83 125.29 C296.13 125.94, 297.52 127.54, 298.5 128.84 C299.47 130.13, 300.33 131.21, 300.67 133.05 C301.02 134.88, 300.74 138.14, 300.56 139.86 C300.38 141.59, 299.13 142.84, 299.59 143.39 C300.05 143.95, 302 143.12, 303.3 143.21 C304.61 143.3, 306.18 143.58, 307.43 143.94 C308.68 144.3, 309.78 144.47, 310.8 145.4 C311.82 146.33, 312.88 147.76, 313.56 149.51 C314.23 151.26, 314 154.37, 314.86 155.9 C315.72 157.43, 317.07 158.15, 318.71 158.71 C320.35 159.27, 323.11 158.9, 324.71 159.25 C326.31 159.59, 326.98 160.05, 328.33 160.78 C329.69 161.52, 331.37 163, 332.87 163.66 C334.37 164.32, 335.13 164.51, 337.32 164.75 C339.51 165, 344.27 164.74, 346.01 165.14 C347.75 165.54, 348.5 166.84, 347.77 167.17 C347.05 167.51, 345.4 167.13, 341.65 167.15 C337.91 167.17, 338.16 167.04, 325.31 167.29 C312.45 167.54, 280.99 168.44, 264.53 168.67 C248.08 168.9, 239.7 168.82, 226.55 168.67 C213.4 168.53, 202.06 167.99, 185.61 167.79 C169.17 167.59, 147.85 167.43, 127.87 167.47 C107.89 167.51, 89.63 167.77, 65.72 168.03 C41.8 168.29, 12.45 168.72, -15.62 169.03 C-43.69 169.34, -86.41 169.81, -102.7 169.88 C-118.98 169.94, -114 170.11, -113.32 169.42 C-112.64 168.74, -102.07 167.1, -98.61 165.76 C-95.15 164.43, -94.09 162.27, -92.56 161.42 C-91.03 160.58, -90.85 160.54, -89.44 160.68 C-88.03 160.83, -85.36 162.64, -84.08 162.3 C-82.8 161.96, -82.6 159.96, -81.77 158.64 C-80.94 157.33, -80.24 155.03, -79.12 154.39 C-77.99 153.75, -76.17 154.67, -75.04 154.79 C-73.9 154.91, -73.65 155.7, -72.3 155.14 C-70.94 154.58, -67.91 152.58, -66.9 151.43 C-65.9 150.27, -66.09 149.65, -66.26 148.22 C-66.43 146.8, -67.79 145.07, -67.92 142.89 C-68.04 140.7, -67.96 137.49, -67 135.09 C-66.03 132.69, -63.82 130, -62.13 128.49 C-60.44 126.97, -58.79 126.26, -56.86 125.99 C-54.92 125.73, -51.97 127.01, -50.54 126.88 C-49.1 126.74, -49.14 125.73, -48.23 125.18 C-47.32 124.63, -45.12 124, -45.07 123.55 C-45.02 123.1, -46.9 123.28, -47.91 122.47 C-48.92 121.66, -50.28 120.25, -51.1 118.68 C-51.92 117.12, -52.46 115.41, -52.83 113.09 C-53.21 110.77, -53.8 107.33, -53.37 104.76 C-52.94 102.19, -51.78 99.99, -50.25 97.66 C-48.72 95.33, -46.2 92.35, -44.17 90.79 C-42.15 89.24, -40.1 88.54, -38.09 88.35 C-36.08 88.16, -33.25 90.1, -32.11 89.66 C-30.98 89.22, -32.12 86.83, -31.28 85.73 C-30.43 84.64, -28.47 83.58, -27.03 83.07 C-25.59 82.57, -23.36 83.44, -22.64 82.71 C-21.92 81.98, -22.88 80.32, -22.72 78.69 C-22.57 77.06, -22.34 74.56, -21.7 72.95 C-21.07 71.34, -18.95 69.83, -18.9 69.02 C-18.85 68.21, -20.29 68.85, -21.4 68.09 C-22.52 67.33, -24.33 66.09, -25.61 64.48 C-26.9 62.87, -28.47 60.77, -29.11 58.46 C-29.75 56.14, -29.66 52.55, -29.47 50.6 C-29.28 48.65, -27.71 47.38, -27.96 46.76 C-28.2 46.14, -29.8 47.09, -30.94 46.88 C-32.07 46.66, -33.81 46.21, -34.79 45.48 C-35.77 44.75, -36.04 42.85, -36.82 42.52 C-37.59 42.19, -38.58 43.62, -39.42 43.5 C-40.26 43.38, -40.9 42.07, -41.84 41.78 C-42.78 41.5, -43.6 41.84, -45.05 41.8 C-46.5 41.76, -48.71 41.98, -50.54 41.54 C-52.37 41.09, -54.42 40.07, -56.04 39.13 C-57.66 38.2, -59.15 37.77, -60.26 35.93 C-61.37 34.09, -61.93 29.54, -62.71 28.09 C-63.48 26.64, -64 27.46, -64.92 27.22 C-65.83 26.97, -67.42 27.26, -68.2 26.6 C-68.99 25.94, -69.64 23.95, -69.64 23.25 C-69.64 22.55, -68.69 22.4, -68.19 22.39 C-67.68 22.38, -67.11 22.7, -66.61 23.2 C-66.11 23.71, -65.73 25.29, -65.19 25.41 C-64.65 25.54, -64.08 24.31, -63.36 23.96 C-62.64 23.6, -61.64 23.02, -60.87 23.27 C-60.11 23.52, -59.53 24.91, -58.79 25.43 C-58.04 25.96, -57.25 26.53, -56.4 26.4 C-55.54 26.28, -54.84 25.1, -53.67 24.67 C-52.5 24.24, -50.5 23.78, -49.39 23.82 C-48.28 23.85, -47.88 25.28, -47.01 24.9 C-46.13 24.53, -45.53 22.46, -44.12 21.57 C-42.71 20.67, -40.22 19.48, -38.53 19.53 C-36.84 19.57, -34.93 21.81, -33.96 21.83 C-33 21.86, -33.58 20.53, -32.74 19.69 C-31.89 18.84, -30.23 17.13, -28.88 16.75 C-27.54 16.37, -25.49 17.84, -24.66 17.41 C-23.83 16.98, -24.62 15.43, -23.88 14.17 C-23.15 12.91, -21.46 10.92, -20.24 9.86 C-19.02 8.81, -17.94 8.08, -16.57 7.84 C-15.19 7.59, -13.2 8.07, -11.99 8.4 C-10.78 8.73, -10.02 10.17, -9.3 9.82 C-8.59 9.47, -8.72 7.59, -7.68 6.3 C-6.63 5, -4.32 3.09, -3.05 2.04 C-1.77 0.99, -0.51 0.34, 0 0" stroke="#E1E1E1" stroke-width="4" fill="none"></path></g></g><mask></mask><g stroke-linecap="round"><g transform="translate(219.31288469962317 173.26193006755284) rotate(0 31.595135044937194 -7.807580017214137)"><path d="M0 0 C1.37 -0.51, 6.06 -1.72, 8.22 -3.07 C10.39 -4.42, 11.75 -6.69, 13.01 -8.09 C14.27 -9.49, 14.26 -11.51, 15.78 -11.49 C17.3 -11.46, 19.95 -9.21, 22.14 -7.95 C24.32 -6.69, 25.78 -4.88, 28.9 -3.94 C32.02 -3, 37.28 -2.19, 40.85 -2.31 C44.42 -2.43, 47.64 -3.5, 50.31 -4.68 C52.98 -5.86, 54.73 -7.19, 56.88 -9.4 C59.03 -11.62, 62.9 -18.21, 63.19 -17.97 C63.48 -17.72, 60.9 -10.83, 58.6 -7.92 C56.3 -5, 52.78 -2.18, 49.39 -0.47 C46 1.24, 42.38 1.94, 38.25 2.35 C34.12 2.76, 28.61 2.62, 24.62 2 C20.62 1.37, 16.44 -0.65, 14.28 -1.4 C12.12 -2.15, 13.1 -2.72, 11.65 -2.5 C10.19 -2.27, 7.5 -0.46, 5.56 -0.05 C3.62 0.37, 0.93 -0.01, 0 0 M0 0 C1.37 -0.51, 6.06 -1.72, 8.22 -3.07 C10.39 -4.42, 11.75 -6.69, 13.01 -8.09 C14.27 -9.49, 14.26 -11.51, 15.78 -11.49 C17.3 -11.46, 19.95 -9.21, 22.14 -7.95 C24.32 -6.69, 25.78 -4.88, 28.9 -3.94 C32.02 -3, 37.28 -2.19, 40.85 -2.31 C44.42 -2.43, 47.64 -3.5, 50.31 -4.68 C52.98 -5.86, 54.73 -7.19, 56.88 -9.4 C59.03 -11.62, 62.9 -18.21, 63.19 -17.97 C63.48 -17.72, 60.9 -10.83, 58.6 -7.92 C56.3 -5, 52.78 -2.18, 49.39 -0.47 C46 1.24, 42.38 1.94, 38.25 2.35 C34.12 2.76, 28.61 2.62, 24.62 2 C20.62 1.37, 16.44 -0.65, 14.28 -1.4 C12.12 -2.15, 13.1 -2.72, 11.65 -2.5 C10.19 -2.27, 7.5 -0.46, 5.56 -0.05 C3.62 0.37, 0.93 -0.01, 0 0" stroke="#E1E1E1" stroke-width="4" fill="none"></path></g></g><mask></mask><g stroke-linecap="round"><g transform="translate(92.96886297382287 162.5940739176707) rotate(0 12.226102709396116 -29.49810077127784)"><path d="M0 0 C0.63 -0.07, 2.47 -0.33, 3.8 -0.45 C5.13 -0.57, 6.55 -0.95, 7.98 -0.73 C9.4 -0.51, 11.49 0.92, 12.34 0.89 C13.18 0.86, 12.96 -0.31, 13.06 -0.9 C13.16 -1.49, 12.51 -1.89, 12.91 -2.66 C13.31 -3.42, 14.42 -4.71, 15.44 -5.47 C16.45 -6.23, 17.78 -7.19, 19 -7.23 C20.22 -7.27, 21.72 -6.51, 22.74 -5.71 C23.75 -4.91, 24.72 -1.81, 25.09 -2.46 C25.46 -3.11, 24.8 -7.23, 24.95 -9.62 C25.1 -12.02, 24.65 -14.13, 25.98 -16.81 C27.32 -19.49, 30.32 -23.75, 32.97 -25.69 C35.62 -27.64, 39.42 -28.13, 41.86 -28.49 C44.31 -28.85, 45.61 -28.45, 47.65 -27.88 C49.7 -27.31, 53.78 -24.65, 54.16 -25.07 C54.53 -25.49, 51.39 -28.74, 49.9 -30.41 C48.42 -32.08, 47.34 -34.34, 45.23 -35.1 C43.13 -35.86, 39.46 -35.57, 37.26 -34.99 C35.06 -34.42, 33.28 -32.01, 32.02 -31.65 C30.75 -31.28, 29.71 -31.94, 29.65 -32.8 C29.59 -33.66, 30.65 -35.47, 31.66 -36.8 C32.68 -38.12, 35.21 -39.78, 35.73 -40.76 C36.24 -41.73, 35.36 -42.59, 34.75 -42.65 C34.15 -42.71, 33.04 -41.88, 32.08 -41.14 C31.11 -40.4, 29.8 -39.1, 28.98 -38.23 C28.16 -37.36, 27.42 -35.52, 27.16 -35.91 C26.9 -36.29, 26.98 -38.14, 27.4 -40.56 C27.81 -42.97, 28.62 -47.33, 29.65 -50.38 C30.68 -53.43, 33.56 -57.63, 33.58 -58.88 C33.6 -60.13, 31.46 -58.09, 29.75 -57.88 C28.04 -57.68, 25.07 -57.29, 23.3 -57.63 C21.54 -57.96, 19.91 -60.1, 19.15 -59.89 C18.4 -59.67, 19.47 -57.84, 18.77 -56.34 C18.07 -54.84, 16.32 -52.34, 14.94 -50.88 C13.56 -49.42, 12.72 -48.17, 10.48 -47.58 C8.25 -46.99, 3.73 -47.01, 1.54 -47.33 C-0.65 -47.65, -1.66 -49.24, -2.66 -49.5 C-3.66 -49.76, -3.62 -49.08, -4.47 -48.9 C-5.33 -48.71, -6.78 -48.14, -7.77 -48.39 C-8.76 -48.63, -9.81 -49.67, -10.4 -50.37 C-10.99 -51.07, -10.97 -52.56, -11.3 -52.59 C-11.63 -52.62, -11.43 -51.13, -12.38 -50.55 C-13.33 -49.98, -15.38 -49.36, -16.98 -49.13 C-18.59 -48.91, -20.46 -49.05, -22.03 -49.21 C-23.59 -49.37, -25.1 -49.31, -26.38 -50.1 C-27.66 -50.88, -29.15 -53.26, -29.71 -53.9 M0 0 C0.63 -0.07, 2.47 -0.33, 3.8 -0.45 C5.13 -0.57, 6.55 -0.95, 7.98 -0.73 C9.4 -0.51, 11.49 0.92, 12.34 0.89 C13.18 0.86, 12.96 -0.31, 13.06 -0.9 C13.16 -1.49, 12.51 -1.89, 12.91 -2.66 C13.31 -3.42, 14.42 -4.71, 15.44 -5.47 C16.45 -6.23, 17.78 -7.19, 19 -7.23 C20.22 -7.27, 21.72 -6.51, 22.74 -5.71 C23.75 -4.91, 24.72 -1.81, 25.09 -2.46 C25.46 -3.11, 24.8 -7.23, 24.95 -9.62 C25.1 -12.02, 24.65 -14.13, 25.98 -16.81 C27.32 -19.49, 30.32 -23.75, 32.97 -25.69 C35.62 -27.64, 39.42 -28.13, 41.86 -28.49 C44.31 -28.85, 45.61 -28.45, 47.65 -27.88 C49.7 -27.31, 53.78 -24.65, 54.16 -25.07 C54.53 -25.49, 51.39 -28.74, 49.9 -30.41 C48.42 -32.08, 47.34 -34.34, 45.23 -35.1 C43.13 -35.86, 39.46 -35.57, 37.26 -34.99 C35.06 -34.42, 33.28 -32.01, 32.02 -31.65 C30.75 -31.28, 29.71 -31.94, 29.65 -32.8 C29.59 -33.66, 30.65 -35.47, 31.66 -36.8 C32.68 -38.12, 35.21 -39.78, 35.73 -40.76 C36.24 -41.73, 35.36 -42.59, 34.75 -42.65 C34.15 -42.71, 33.04 -41.88, 32.08 -41.14 C31.11 -40.4, 29.8 -39.1, 28.98 -38.23 C28.16 -37.36, 27.42 -35.52, 27.16 -35.91 C26.9 -36.29, 26.98 -38.14, 27.4 -40.56 C27.81 -42.97, 28.62 -47.33, 29.65 -50.38 C30.68 -53.43, 33.56 -57.63, 33.58 -58.88 C33.6 -60.13, 31.46 -58.09, 29.75 -57.88 C28.04 -57.68, 25.07 -57.29, 23.3 -57.63 C21.54 -57.96, 19.91 -60.1, 19.15 -59.89 C18.4 -59.67, 19.47 -57.84, 18.77 -56.34 C18.07 -54.84, 16.32 -52.34, 14.94 -50.88 C13.56 -49.42, 12.72 -48.17, 10.48 -47.58 C8.25 -46.99, 3.73 -47.01, 1.54 -47.33 C-0.65 -47.65, -1.66 -49.24, -2.66 -49.5 C-3.66 -49.76, -3.62 -49.08, -4.47 -48.9 C-5.33 -48.71, -6.78 -48.14, -7.77 -48.39 C-8.76 -48.63, -9.81 -49.67, -10.4 -50.37 C-10.99 -51.07, -10.97 -52.56, -11.3 -52.59 C-11.63 -52.62, -11.43 -51.13, -12.38 -50.55 C-13.33 -49.98, -15.38 -49.36, -16.98 -49.13 C-18.59 -48.91, -20.46 -49.05, -22.03 -49.21 C-23.59 -49.37, -25.1 -49.31, -26.38 -50.1 C-27.66 -50.88, -29.15 -53.26, -29.71 -53.9" stroke="#E1E1E1" stroke-width="4" fill="none"></path></g></g><mask></mask><g stroke-linecap="round"><g transform="translate(234.84776447223294 66.91166723267708) rotate(0 6.967477770563789 1.7793070475543686)"><path d="M0 0 C0.61 -0.7, 2.52 -3.24, 3.64 -4.2 C4.75 -5.16, 5.3 -5.53, 6.71 -5.78 C8.12 -6.02, 10.46 -6.08, 12.07 -5.67 C13.68 -5.26, 15.07 -4.56, 16.37 -3.31 C17.67 -2.06, 18.91 1.57, 19.88 1.83 C20.84 2.09, 20.94 -0.38, 22.16 -1.73 C23.38 -3.08, 25.39 -5.31, 27.22 -6.27 C29.04 -7.23, 31.63 -7.43, 33.1 -7.49 C34.57 -7.54, 36.49 -7.33, 36.06 -6.62 C35.63 -5.9, 31.95 -4.28, 30.51 -3.19 C29.07 -2.09, 28.5 -1.34, 27.44 -0.06 C26.38 1.23, 24.87 2.97, 24.16 4.51 C23.46 6.06, 23.94 8.41, 23.23 9.2 C22.53 9.99, 21.51 9.38, 19.94 9.25 C18.37 9.12, 15.73 8.36, 13.82 8.42 C11.9 8.48, 10.02 9.17, 8.45 9.61 C6.87 10.05, 5.28 11.28, 4.36 11.04 C3.44 10.81, 4.04 9.49, 2.92 8.21 C1.8 6.92, -0.23 4.56, -2.38 3.31 C-4.52 2.07, -7.35 0.99, -9.94 0.74 C-12.53 0.5, -15.89 1.6, -17.92 1.84 C-19.95 2.09, -21.62 2.57, -22.12 2.2 C-22.63 1.83, -21.88 0.57, -20.97 -0.38 C-20.07 -1.33, -18.7 -2.85, -16.7 -3.49 C-14.71 -4.13, -11.27 -4.25, -9.01 -4.24 C-6.75 -4.22, -4.65 -4.12, -3.15 -3.41 C-1.65 -2.71, -0.53 -0.57, 0 0 M0 0 C0.61 -0.7, 2.52 -3.24, 3.64 -4.2 C4.75 -5.16, 5.3 -5.53, 6.71 -5.78 C8.12 -6.02, 10.46 -6.08, 12.07 -5.67 C13.68 -5.26, 15.07 -4.56, 16.37 -3.31 C17.67 -2.06, 18.91 1.57, 19.88 1.83 C20.84 2.09, 20.94 -0.38, 22.16 -1.73 C23.38 -3.08, 25.39 -5.31, 27.22 -6.27 C29.04 -7.23, 31.63 -7.43, 33.1 -7.49 C34.57 -7.54, 36.49 -7.33, 36.06 -6.62 C35.63 -5.9, 31.95 -4.28, 30.51 -3.19 C29.07 -2.09, 28.5 -1.34, 27.44 -0.06 C26.38 1.23, 24.87 2.97, 24.16 4.51 C23.46 6.06, 23.94 8.41, 23.23 9.2 C22.53 9.99, 21.51 9.38, 19.94 9.25 C18.37 9.12, 15.73 8.36, 13.82 8.42 C11.9 8.48, 10.02 9.17, 8.45 9.61 C6.87 10.05, 5.28 11.28, 4.36 11.04 C3.44 10.81, 4.04 9.49, 2.92 8.21 C1.8 6.92, -0.23 4.56, -2.38 3.31 C-4.52 2.07, -7.35 0.99, -9.94 0.74 C-12.53 0.5, -15.89 1.6, -17.92 1.84 C-19.95 2.09, -21.62 2.57, -22.12 2.2 C-22.63 1.83, -21.88 0.57, -20.97 -0.38 C-20.07 -1.33, -18.7 -2.85, -16.7 -3.49 C-14.71 -4.13, -11.27 -4.25, -9.01 -4.24 C-6.75 -4.22, -4.65 -4.12, -3.15 -3.41 C-1.65 -2.71, -0.53 -0.57, 0 0" stroke="#E1E1E1" stroke-width="4" fill="none"></path></g></g><mask></mask><g stroke-linecap="round"><g transform="translate(262.51794169112816 74.63621690168654) rotate(0 30.902552233120844 -15.424737980885524)"><path d="M0 0 C1.73 -1.71, 7.78 -7.67, 10.37 -10.24 C12.96 -12.82, 13.51 -14.36, 15.56 -15.44 C17.61 -16.53, 20.33 -16.17, 22.67 -16.75 C25.02 -17.32, 27.41 -17.83, 29.63 -18.91 C31.85 -19.99, 35.28 -22.26, 36 -23.2 C36.72 -24.14, 34.18 -23.7, 33.95 -24.55 C33.73 -25.41, 33.9 -26.92, 34.65 -28.31 C35.39 -29.7, 36.82 -31.79, 38.4 -32.92 C39.98 -34.05, 42.89 -34.28, 44.13 -35.09 C45.37 -35.89, 45.4 -36.61, 45.85 -37.75 C46.3 -38.89, 46.33 -40.71, 46.82 -41.92 C47.32 -43.14, 48.31 -45.33, 48.81 -45.03 C49.32 -44.72, 49.06 -41.75, 49.86 -40.09 C50.66 -38.43, 53.26 -36.72, 53.63 -35.07 C54 -33.42, 52.91 -31.58, 52.07 -30.21 C51.23 -28.83, 49 -27.86, 48.59 -26.85 C48.17 -25.83, 48.58 -25.48, 49.58 -24.1 C50.58 -22.73, 53.03 -19.85, 54.57 -18.59 C56.1 -17.34, 57.57 -17.75, 58.78 -16.55 C59.99 -15.35, 61.54 -13.33, 61.81 -11.38 C62.07 -9.44, 61.3 -6.84, 60.36 -4.87 C59.41 -2.91, 57.65 -0.38, 56.12 0.42 C54.6 1.21, 51.56 -0.78, 51.2 -0.08 C50.84 0.61, 53.5 2.93, 53.97 4.6 C54.44 6.26, 54.77 8.43, 54.02 9.9 C53.27 11.38, 51.28 12.72, 49.46 13.43 C47.64 14.14, 45.36 14.74, 43.07 14.18 C40.78 13.61, 38.13 11.56, 35.72 10.06 C33.31 8.56, 31.35 6.72, 28.6 5.15 C25.86 3.58, 22.65 1.55, 19.26 0.65 C15.87 -0.24, 11.48 -0.1, 8.27 -0.21 C5.06 -0.32, 1.38 -0.03, 0 0 M0 0 C1.73 -1.71, 7.78 -7.67, 10.37 -10.24 C12.96 -12.82, 13.51 -14.36, 15.56 -15.44 C17.61 -16.53, 20.33 -16.17, 22.67 -16.75 C25.02 -17.32, 27.41 -17.83, 29.63 -18.91 C31.85 -19.99, 35.28 -22.26, 36 -23.2 C36.72 -24.14, 34.18 -23.7, 33.95 -24.55 C33.73 -25.41, 33.9 -26.92, 34.65 -28.31 C35.39 -29.7, 36.82 -31.79, 38.4 -32.92 C39.98 -34.05, 42.89 -34.28, 44.13 -35.09 C45.37 -35.89, 45.4 -36.61, 45.85 -37.75 C46.3 -38.89, 46.33 -40.71, 46.82 -41.92 C47.32 -43.14, 48.31 -45.33, 48.81 -45.03 C49.32 -44.72, 49.06 -41.75, 49.86 -40.09 C50.66 -38.43, 53.26 -36.72, 53.63 -35.07 C54 -33.42, 52.91 -31.58, 52.07 -30.21 C51.23 -28.83, 49 -27.86, 48.59 -26.85 C48.17 -25.83, 48.58 -25.48, 49.58 -24.1 C50.58 -22.73, 53.03 -19.85, 54.57 -18.59 C56.1 -17.34, 57.57 -17.75, 58.78 -16.55 C59.99 -15.35, 61.54 -13.33, 61.81 -11.38 C62.07 -9.44, 61.3 -6.84, 60.36 -4.87 C59.41 -2.91, 57.65 -0.38, 56.12 0.42 C54.6 1.21, 51.56 -0.78, 51.2 -0.08 C50.84 0.61, 53.5 2.93, 53.97 4.6 C54.44 6.26, 54.77 8.43, 54.02 9.9 C53.27 11.38, 51.28 12.72, 49.46 13.43 C47.64 14.14, 45.36 14.74, 43.07 14.18 C40.78 13.61, 38.13 11.56, 35.72 10.06 C33.31 8.56, 31.35 6.72, 28.6 5.15 C25.86 3.58, 22.65 1.55, 19.26 0.65 C15.87 -0.24, 11.48 -0.1, 8.27 -0.21 C5.06 -0.32, 1.38 -0.03, 0 0" stroke="#E1E1E1" stroke-width="4" fill="none"></path></g></g><mask></mask><g stroke-linecap="round"><g transform="translate(328.10602946186316 64.65099964626268) rotate(0 -1.7169838274501785 11.359559380770108)"><path d="M0 0 C-0.29 -0.95, -0.89 -4.33, -1.75 -5.69 C-2.61 -7.04, -4.51 -7.09, -5.15 -8.13 C-5.79 -9.16, -5.81 -10.58, -5.62 -11.91 C-5.42 -13.23, -4.76 -15.16, -4 -16.08 C-3.24 -17, -2.59 -17.36, -1.05 -17.45 C0.49 -17.54, 3.91 -17.28, 5.25 -16.62 C6.6 -15.96, 6.97 -14.74, 7.03 -13.48 C7.09 -12.22, 6.19 -10.44, 5.62 -9.06 C5.06 -7.67, 3.85 -6.31, 3.65 -5.15 C3.44 -4, 4 -3.25, 4.4 -2.11 C4.81 -0.96, 5.92 -0.34, 6.08 1.71 C6.24 3.75, 5.61 7.81, 5.37 10.18 C5.13 12.55, 3.94 14.59, 4.62 15.92 C5.31 17.26, 7.46 17.25, 9.46 18.17 C11.47 19.1, 14.78 20.21, 16.66 21.46 C18.53 22.71, 21.03 25.56, 20.71 25.67 C20.4 25.78, 16.96 22.88, 14.79 22.14 C12.61 21.4, 9.55 21.11, 7.65 21.24 C5.74 21.38, 3.97 22.03, 3.36 22.96 C2.75 23.89, 3.3 25.8, 3.97 26.8 C4.64 27.79, 7.78 28.52, 7.38 28.92 C6.99 29.32, 3.74 29.02, 1.58 29.19 C-0.58 29.35, -3.34 29.32, -5.6 29.91 C-7.85 30.49, -10.12 31.58, -11.95 32.7 C-13.77 33.82, -15.44 35.37, -16.56 36.61 C-17.67 37.85, -17.88 40.17, -18.64 40.17 C-19.41 40.16, -20.36 38.04, -21.16 36.61 C-21.96 35.18, -22.96 32.68, -23.46 31.58 C-23.96 30.48, -24.58 30.15, -24.15 29.99 C-23.72 29.83, -21.84 30.52, -20.9 30.61 C-19.95 30.7, -19.75 30.85, -18.48 30.55 C-17.22 30.25, -15.14 29.83, -13.31 28.82 C-11.48 27.82, -8.88 26.38, -7.5 24.53 C-6.12 22.68, -5.22 19.41, -5.03 17.73 C-4.85 16.05, -6.5 15.44, -6.4 14.44 C-6.3 13.43, -5.08 12.63, -4.42 11.7 C-3.76 10.76, -3.1 10.06, -2.44 8.83 C-1.77 7.6, -0.84 5.81, -0.43 4.33 C-0.02 2.86, -0.07 0.72, 0 0 M0 0 C-0.29 -0.95, -0.89 -4.33, -1.75 -5.69 C-2.61 -7.04, -4.51 -7.09, -5.15 -8.13 C-5.79 -9.16, -5.81 -10.58, -5.62 -11.91 C-5.42 -13.23, -4.76 -15.16, -4 -16.08 C-3.24 -17, -2.59 -17.36, -1.05 -17.45 C0.49 -17.54, 3.91 -17.28, 5.25 -16.62 C6.6 -15.96, 6.97 -14.74, 7.03 -13.48 C7.09 -12.22, 6.19 -10.44, 5.62 -9.06 C5.06 -7.67, 3.85 -6.31, 3.65 -5.15 C3.44 -4, 4 -3.25, 4.4 -2.11 C4.81 -0.96, 5.92 -0.34, 6.08 1.71 C6.24 3.75, 5.61 7.81, 5.37 10.18 C5.13 12.55, 3.94 14.59, 4.62 15.92 C5.31 17.26, 7.46 17.25, 9.46 18.17 C11.47 19.1, 14.78 20.21, 16.66 21.46 C18.53 22.71, 21.03 25.56, 20.71 25.67 C20.4 25.78, 16.96 22.88, 14.79 22.14 C12.61 21.4, 9.55 21.11, 7.65 21.24 C5.74 21.38, 3.97 22.03, 3.36 22.96 C2.75 23.89, 3.3 25.8, 3.97 26.8 C4.64 27.79, 7.78 28.52, 7.38 28.92 C6.99 29.32, 3.74 29.02, 1.58 29.19 C-0.58 29.35, -3.34 29.32, -5.6 29.91 C-7.85 30.49, -10.12 31.58, -11.95 32.7 C-13.77 33.82, -15.44 35.37, -16.56 36.61 C-17.67 37.85, -17.88 40.17, -18.64 40.17 C-19.41 40.16, -20.36 38.04, -21.16 36.61 C-21.96 35.18, -22.96 32.68, -23.46 31.58 C-23.96 30.48, -24.58 30.15, -24.15 29.99 C-23.72 29.83, -21.84 30.52, -20.9 30.61 C-19.95 30.7, -19.75 30.85, -18.48 30.55 C-17.22 30.25, -15.14 29.83, -13.31 28.82 C-11.48 27.82, -8.88 26.38, -7.5 24.53 C-6.12 22.68, -5.22 19.41, -5.03 17.73 C-4.85 16.05, -6.5 15.44, -6.4 14.44 C-6.3 13.43, -5.08 12.63, -4.42 11.7 C-3.76 10.76, -3.1 10.06, -2.44 8.83 C-1.77 7.6, -0.84 5.81, -0.43 4.33 C-0.02 2.86, -0.07 0.72, 0 0" stroke="#E1E1E1" stroke-width="4" fill="none"></path></g></g><mask></mask><g stroke-linecap="round"><g transform="translate(329.864347768844 110.34997030852921) rotate(0 7.912264191747255 -4.506433846053575)"><path d="M0 0 C1.24 0.8, 5.15 2.77, 7.45 4.8 C9.74 6.84, 12.22 10, 13.79 12.2 C15.36 14.41, 15.95 18.31, 16.87 18.04 C17.79 17.76, 19.03 13.6, 19.3 10.56 C19.56 7.51, 18.77 2.33, 18.47 -0.23 C18.16 -2.79, 17.4 -3.43, 17.49 -4.81 C17.58 -6.19, 17.85 -8.03, 18.98 -8.5 C20.12 -8.97, 22.87 -7.78, 24.29 -7.63 C25.72 -7.47, 27.01 -7.01, 27.53 -7.57 C28.06 -8.13, 27.88 -9.76, 27.43 -10.99 C26.98 -12.21, 25.44 -13.72, 24.81 -14.93 C24.18 -16.13, 23.44 -17.06, 23.67 -18.22 C23.9 -19.38, 25.09 -21.24, 26.18 -21.87 C27.28 -22.5, 29.11 -22.4, 30.26 -22 C31.41 -21.59, 32.5 -19.58, 33.07 -19.44 C33.63 -19.3, 33.76 -20.32, 33.64 -21.15 C33.51 -21.98, 33.07 -23.55, 32.34 -24.43 C31.61 -25.31, 30.54 -26.01, 29.28 -26.45 C28.02 -26.88, 26.03 -27.1, 24.76 -27.05 C23.48 -27, 22.6 -26.75, 21.64 -26.15 C20.68 -25.54, 19.49 -24.45, 19 -23.42 C18.52 -22.4, 19.25 -20.35, 18.75 -19.99 C18.24 -19.64, 17.11 -20.98, 15.98 -21.29 C14.86 -21.6, 13.06 -21.91, 11.97 -21.83 C10.88 -21.75, 9.73 -21.55, 9.46 -20.83 C9.2 -20.1, 10.06 -18.59, 10.36 -17.49 C10.65 -16.4, 11.49 -15.15, 11.24 -14.25 C10.98 -13.35, 10.32 -12.33, 8.8 -12.09 C7.28 -11.86, 4.48 -12.71, 2.12 -12.84 C-0.23 -12.98, -3.26 -13.2, -5.33 -12.91 C-7.39 -12.61, -8.72 -11.93, -10.28 -11.06 C-11.84 -10.19, -13.45 -8.84, -14.71 -7.68 C-15.96 -6.53, -18.01 -4.84, -17.81 -4.12 C-17.61 -3.39, -15.29 -3.52, -13.49 -3.33 C-11.69 -3.15, -9.27 -3.54, -7.02 -2.98 C-4.78 -2.43, -1.17 -0.5, 0 0 M0 0 C1.24 0.8, 5.15 2.77, 7.45 4.8 C9.74 6.84, 12.22 10, 13.79 12.2 C15.36 14.41, 15.95 18.31, 16.87 18.04 C17.79 17.76, 19.03 13.6, 19.3 10.56 C19.56 7.51, 18.77 2.33, 18.47 -0.23 C18.16 -2.79, 17.4 -3.43, 17.49 -4.81 C17.58 -6.19, 17.85 -8.03, 18.98 -8.5 C20.12 -8.97, 22.87 -7.78, 24.29 -7.63 C25.72 -7.47, 27.01 -7.01, 27.53 -7.57 C28.06 -8.13, 27.88 -9.76, 27.43 -10.99 C26.98 -12.21, 25.44 -13.72, 24.81 -14.93 C24.18 -16.13, 23.44 -17.06, 23.67 -18.22 C23.9 -19.38, 25.09 -21.24, 26.18 -21.87 C27.28 -22.5, 29.11 -22.4, 30.26 -22 C31.41 -21.59, 32.5 -19.58, 33.07 -19.44 C33.63 -19.3, 33.76 -20.32, 33.64 -21.15 C33.51 -21.98, 33.07 -23.55, 32.34 -24.43 C31.61 -25.31, 30.54 -26.01, 29.28 -26.45 C28.02 -26.88, 26.03 -27.1, 24.76 -27.05 C23.48 -27, 22.6 -26.75, 21.64 -26.15 C20.68 -25.54, 19.49 -24.45, 19 -23.42 C18.52 -22.4, 19.25 -20.35, 18.75 -19.99 C18.24 -19.64, 17.11 -20.98, 15.98 -21.29 C14.86 -21.6, 13.06 -21.91, 11.97 -21.83 C10.88 -21.75, 9.73 -21.55, 9.46 -20.83 C9.2 -20.1, 10.06 -18.59, 10.36 -17.49 C10.65 -16.4, 11.49 -15.15, 11.24 -14.25 C10.98 -13.35, 10.32 -12.33, 8.8 -12.09 C7.28 -11.86, 4.48 -12.71, 2.12 -12.84 C-0.23 -12.98, -3.26 -13.2, -5.33 -12.91 C-7.39 -12.61, -8.72 -11.93, -10.28 -11.06 C-11.84 -10.19, -13.45 -8.84, -14.71 -7.68 C-15.96 -6.53, -18.01 -4.84, -17.81 -4.12 C-17.61 -3.39, -15.29 -3.52, -13.49 -3.33 C-11.69 -3.15, -9.27 -3.54, -7.02 -2.98 C-4.78 -2.43, -1.17 -0.5, 0 0" stroke="#E1E1E1" stroke-width="4" fill="none"></path></g></g><mask></mask><g stroke-linecap="round"><g transform="translate(224.59451336766688 243.0480044351292) rotate(0 99.08846437063704 -70.31235063805408)"><path d="M0 0 C-1 -0.6, -4.27 -2.18, -5.99 -3.58 C-7.7 -4.99, -8.9 -6.49, -10.3 -8.43 C-11.7 -10.38, -14.86 -15.04, -14.37 -15.25 C-13.88 -15.46, -9.92 -10.94, -7.38 -9.7 C-4.83 -8.45, -1.83 -8.07, 0.88 -7.76 C3.59 -7.44, 6.45 -7.49, 8.91 -7.79 C11.37 -8.1, 13.34 -8.66, 15.63 -9.59 C17.92 -10.53, 20.36 -12.11, 22.65 -13.4 C24.93 -14.68, 29.37 -17.72, 29.33 -17.31 C29.3 -16.9, 24.32 -12.73, 22.45 -10.95 C20.59 -9.18, 19.11 -7.68, 18.16 -6.67 C17.2 -5.66, 16.04 -5.04, 16.7 -4.9 C17.36 -4.76, 19.85 -5.45, 22.12 -5.84 C24.39 -6.22, 27.36 -6.22, 30.33 -7.19 C33.3 -8.15, 36.94 -9.8, 39.94 -11.63 C42.94 -13.46, 45.96 -15.37, 48.35 -18.19 C50.73 -21.01, 52.73 -25.4, 54.25 -28.53 C55.77 -31.66, 56.82 -34.18, 57.45 -36.98 C58.08 -39.78, 57.91 -42.39, 58.03 -45.33 C58.15 -48.27, 57.88 -55.57, 58.15 -54.61 C58.43 -53.64, 59.59 -43.53, 59.69 -39.52 C59.79 -35.51, 59.18 -33.57, 58.74 -30.54 C58.29 -27.52, 56.57 -21.67, 57.02 -21.38 C57.46 -21.09, 60.75 -28.72, 61.4 -28.79 C62.05 -28.86, 61.42 -23.85, 60.91 -21.79 C60.41 -19.74, 59.17 -17.84, 58.38 -16.45 C57.58 -15.05, 55.38 -13.77, 56.14 -13.44 C56.9 -13.11, 60.17 -13.73, 62.93 -14.48 C65.68 -15.23, 68.77 -15.78, 72.68 -17.93 C76.58 -20.09, 82.21 -22.92, 86.36 -27.42 C90.5 -31.91, 94.66 -38.58, 97.55 -44.89 C100.44 -51.21, 102.6 -58.17, 103.71 -65.29 C104.81 -72.41, 104.77 -81.38, 104.16 -87.62 C103.56 -93.85, 102.32 -98.07, 100.07 -102.71 C97.82 -107.34, 90.44 -114.58, 90.65 -115.41 C90.85 -116.24, 98.33 -110.12, 101.29 -107.67 C104.26 -105.21, 106.51 -103.03, 108.43 -100.66 C110.36 -98.28, 112.6 -92.79, 112.87 -93.4 C113.13 -94.01, 111.58 -100.85, 110.01 -104.34 C108.44 -107.84, 106 -111.48, 103.43 -114.37 C100.86 -117.25, 97.73 -119.62, 94.58 -121.66 C91.44 -123.71, 88.17 -125.53, 84.53 -126.62 C80.9 -127.7, 72.1 -127.75, 72.76 -128.16 C73.42 -128.57, 83.85 -129.54, 88.5 -129.06 C93.14 -128.58, 97.26 -126.89, 100.62 -125.27 C103.98 -123.65, 106.2 -121.56, 108.65 -119.32 C111.1 -117.09, 113.52 -114.57, 115.33 -111.87 C117.14 -109.17, 118.47 -105.62, 119.52 -103.12 C120.57 -100.61, 120.55 -97.58, 121.61 -96.83 C122.67 -96.09, 124 -97.52, 125.86 -98.62 C127.72 -99.72, 131.41 -101.12, 132.75 -103.43 C134.09 -105.74, 133.86 -110.01, 133.92 -112.47 C133.98 -114.93, 133.74 -116.29, 133.12 -118.18 C132.51 -120.07, 130.4 -122.71, 130.24 -123.8 C130.07 -124.9, 131.54 -124.9, 132.16 -124.76 C132.77 -124.62, 133.28 -123.52, 133.91 -122.98 C134.54 -122.43, 134.93 -121.6, 135.93 -121.46 C136.93 -121.32, 138.63 -120.87, 139.9 -122.14 C141.18 -123.41, 142.9 -126, 143.58 -129.09 C144.26 -132.17, 143.51 -139.29, 144 -140.65 C144.48 -142.01, 145 -137.78, 146.5 -137.23 C148.01 -136.69, 151.13 -136.82, 153.03 -137.39 C154.94 -137.96, 157.45 -140.78, 157.93 -140.66 C158.42 -140.54, 156.96 -137.61, 155.94 -136.68 C154.92 -135.76, 152.85 -135.82, 151.83 -135.1 C150.81 -134.38, 150.51 -133.85, 149.81 -132.35 C149.11 -130.85, 148.47 -127.87, 147.63 -126.08 C146.78 -124.28, 145.75 -122.83, 144.74 -121.56 C143.74 -120.3, 142.4 -119.45, 141.62 -118.5 C140.84 -117.55, 140.41 -117.27, 140.06 -115.88 C139.72 -114.49, 139.8 -112.51, 139.54 -110.15 C139.27 -107.79, 139.27 -104.07, 138.49 -101.72 C137.71 -99.37, 136.23 -97.77, 134.85 -96.07 C133.46 -94.37, 131.67 -93.19, 130.18 -91.53 C128.69 -89.87, 126.65 -87.97, 125.93 -86.11 C125.21 -84.25, 125.32 -81.84, 125.88 -80.35 C126.45 -78.86, 127.8 -77.39, 129.3 -77.17 C130.81 -76.96, 132.51 -77.31, 134.9 -79.05 C137.28 -80.79, 141.43 -84.67, 143.63 -87.62 C145.84 -90.58, 146.94 -93.47, 148.12 -96.79 C149.31 -100.1, 150.05 -107.74, 150.73 -107.51 C151.42 -107.28, 152.12 -99.59, 152.24 -95.4 C152.35 -91.22, 153.02 -87.19, 151.41 -82.41 C149.8 -77.62, 145.02 -70.32, 142.59 -66.69 C140.15 -63.06, 138.08 -62.65, 136.81 -60.65 C135.55 -58.66, 134.7 -56.63, 135 -54.73 C135.31 -52.83, 137.19 -49.79, 138.67 -49.26 C140.14 -48.73, 141.65 -50.11, 143.87 -51.58 C146.09 -53.05, 152.27 -59.1, 151.98 -58.09 C151.7 -57.09, 144.42 -49.18, 142.14 -45.55 C139.86 -41.92, 138.78 -39.36, 138.32 -36.3 C137.86 -33.23, 137.79 -29.81, 139.39 -27.15 C140.99 -24.5, 143.69 -22.11, 147.9 -20.35 C152.11 -18.58, 159.55 -16.78, 164.64 -16.57 C169.74 -16.37, 174.79 -17.98, 178.48 -19.12 C182.16 -20.27, 184.85 -21.09, 186.73 -23.46 C188.62 -25.82, 189.17 -32.96, 189.78 -33.3 C190.39 -33.63, 190.6 -28.2, 190.4 -25.49 C190.19 -22.78, 189.28 -19.11, 188.57 -17.05 C187.86 -14.99, 185.66 -13.56, 186.15 -13.13 C186.63 -12.71, 189.81 -13.73, 191.48 -14.49 C193.15 -15.26, 195.34 -18, 196.18 -17.74 C197.02 -17.48, 196.46 -14.19, 196.54 -12.92 C196.62 -11.64, 195.33 -10.58, 196.64 -10.1 C197.96 -9.61, 201.98 -9.47, 204.43 -10.01 C206.88 -10.55, 210.64 -13.98, 211.34 -13.34 C212.04 -12.7, 208.41 -7.73, 208.61 -6.19 C208.82 -4.66, 213.64 -4.71, 212.55 -4.13 C211.45 -3.56, 208.92 -2.95, 202.05 -2.76 C195.19 -2.56, 183.84 -3.02, 171.37 -2.95 C158.9 -2.88, 143.02 -2.64, 127.24 -2.34 C111.46 -2.03, 88.51 -1.53, 76.68 -1.13 C64.86 -0.74, 59.68 -0.16, 56.28 0.04 M0 0 C-1 -0.6, -4.27 -2.18, -5.99 -3.58 C-7.7 -4.99, -8.9 -6.49, -10.3 -8.43 C-11.7 -10.38, -14.86 -15.04, -14.37 -15.25 C-13.88 -15.46, -9.92 -10.94, -7.38 -9.7 C-4.83 -8.45, -1.83 -8.07, 0.88 -7.76 C3.59 -7.44, 6.45 -7.49, 8.91 -7.79 C11.37 -8.1, 13.34 -8.66, 15.63 -9.59 C17.92 -10.53, 20.36 -12.11, 22.65 -13.4 C24.93 -14.68, 29.37 -17.72, 29.33 -17.31 C29.3 -16.9, 24.32 -12.73, 22.45 -10.95 C20.59 -9.18, 19.11 -7.68, 18.16 -6.67 C17.2 -5.66, 16.04 -5.04, 16.7 -4.9 C17.36 -4.76, 19.85 -5.45, 22.12 -5.84 C24.39 -6.22, 27.36 -6.22, 30.33 -7.19 C33.3 -8.15, 36.94 -9.8, 39.94 -11.63 C42.94 -13.46, 45.96 -15.37, 48.35 -18.19 C50.73 -21.01, 52.73 -25.4, 54.25 -28.53 C55.77 -31.66, 56.82 -34.18, 57.45 -36.98 C58.08 -39.78, 57.91 -42.39, 58.03 -45.33 C58.15 -48.27, 57.88 -55.57, 58.15 -54.61 C58.43 -53.64, 59.59 -43.53, 59.69 -39.52 C59.79 -35.51, 59.18 -33.57, 58.74 -30.54 C58.29 -27.52, 56.57 -21.67, 57.02 -21.38 C57.46 -21.09, 60.75 -28.72, 61.4 -28.79 C62.05 -28.86, 61.42 -23.85, 60.91 -21.79 C60.41 -19.74, 59.17 -17.84, 58.38 -16.45 C57.58 -15.05, 55.38 -13.77, 56.14 -13.44 C56.9 -13.11, 60.17 -13.73, 62.93 -14.48 C65.68 -15.23, 68.77 -15.78, 72.68 -17.93 C76.58 -20.09, 82.21 -22.92, 86.36 -27.42 C90.5 -31.91, 94.66 -38.58, 97.55 -44.89 C100.44 -51.21, 102.6 -58.17, 103.71 -65.29 C104.81 -72.41, 104.77 -81.38, 104.16 -87.62 C103.56 -93.85, 102.32 -98.07, 100.07 -102.71 C97.82 -107.34, 90.44 -114.58, 90.65 -115.41 C90.85 -116.24, 98.33 -110.12, 101.29 -107.67 C104.26 -105.21, 106.51 -103.03, 108.43 -100.66 C110.36 -98.28, 112.6 -92.79, 112.87 -93.4 C113.13 -94.01, 111.58 -100.85, 110.01 -104.34 C108.44 -107.84, 106 -111.48, 103.43 -114.37 C100.86 -117.25, 97.73 -119.62, 94.58 -121.66 C91.44 -123.71, 88.17 -125.53, 84.53 -126.62 C80.9 -127.7, 72.1 -127.75, 72.76 -128.16 C73.42 -128.57, 83.85 -129.54, 88.5 -129.06 C93.14 -128.58, 97.26 -126.89, 100.62 -125.27 C103.98 -123.65, 106.2 -121.56, 108.65 -119.32 C111.1 -117.09, 113.52 -114.57, 115.33 -111.87 C117.14 -109.17, 118.47 -105.62, 119.52 -103.12 C120.57 -100.61, 120.55 -97.58, 121.61 -96.83 C122.67 -96.09, 124 -97.52, 125.86 -98.62 C127.72 -99.72, 131.41 -101.12, 132.75 -103.43 C134.09 -105.74, 133.86 -110.01, 133.92 -112.47 C133.98 -114.93, 133.74 -116.29, 133.12 -118.18 C132.51 -120.07, 130.4 -122.71, 130.24 -123.8 C130.07 -124.9, 131.54 -124.9, 132.16 -124.76 C132.77 -124.62, 133.28 -123.52, 133.91 -122.98 C134.54 -122.43, 134.93 -121.6, 135.93 -121.46 C136.93 -121.32, 138.63 -120.87, 139.9 -122.14 C141.18 -123.41, 142.9 -126, 143.58 -129.09 C144.26 -132.17, 143.51 -139.29, 144 -140.65 C144.48 -142.01, 145 -137.78, 146.5 -137.23 C148.01 -136.69, 151.13 -136.82, 153.03 -137.39 C154.94 -137.96, 157.45 -140.78, 157.93 -140.66 C158.42 -140.54, 156.96 -137.61, 155.94 -136.68 C154.92 -135.76, 152.85 -135.82, 151.83 -135.1 C150.81 -134.38, 150.51 -133.85, 149.81 -132.35 C149.11 -130.85, 148.47 -127.87, 147.63 -126.08 C146.78 -124.28, 145.75 -122.83, 144.74 -121.56 C143.74 -120.3, 142.4 -119.45, 141.62 -118.5 C140.84 -117.55, 140.41 -117.27, 140.06 -115.88 C139.72 -114.49, 139.8 -112.51, 139.54 -110.15 C139.27 -107.79, 139.27 -104.07, 138.49 -101.72 C137.71 -99.37, 136.23 -97.77, 134.85 -96.07 C133.46 -94.37, 131.67 -93.19, 130.18 -91.53 C128.69 -89.87, 126.65 -87.97, 125.93 -86.11 C125.21 -84.25, 125.32 -81.84, 125.88 -80.35 C126.45 -78.86, 127.8 -77.39, 129.3 -77.17 C130.81 -76.96, 132.51 -77.31, 134.9 -79.05 C137.28 -80.79, 141.43 -84.67, 143.63 -87.62 C145.84 -90.58, 146.94 -93.47, 148.12 -96.79 C149.31 -100.1, 150.05 -107.74, 150.73 -107.51 C151.42 -107.28, 152.12 -99.59, 152.24 -95.4 C152.35 -91.22, 153.02 -87.19, 151.41 -82.41 C149.8 -77.62, 145.02 -70.32, 142.59 -66.69 C140.15 -63.06, 138.08 -62.65, 136.81 -60.65 C135.55 -58.66, 134.7 -56.63, 135 -54.73 C135.31 -52.83, 137.19 -49.79, 138.67 -49.26 C140.14 -48.73, 141.65 -50.11, 143.87 -51.58 C146.09 -53.05, 152.27 -59.1, 151.98 -58.09 C151.7 -57.09, 144.42 -49.18, 142.14 -45.55 C139.86 -41.92, 138.78 -39.36, 138.32 -36.3 C137.86 -33.23, 137.79 -29.81, 139.39 -27.15 C140.99 -24.5, 143.69 -22.11, 147.9 -20.35 C152.11 -18.58, 159.55 -16.78, 164.64 -16.57 C169.74 -16.37, 174.79 -17.98, 178.48 -19.12 C182.16 -20.27, 184.85 -21.09, 186.73 -23.46 C188.62 -25.82, 189.17 -32.96, 189.78 -33.3 C190.39 -33.63, 190.6 -28.2, 190.4 -25.49 C190.19 -22.78, 189.28 -19.11, 188.57 -17.05 C187.86 -14.99, 185.66 -13.56, 186.15 -13.13 C186.63 -12.71, 189.81 -13.73, 191.48 -14.49 C193.15 -15.26, 195.34 -18, 196.18 -17.74 C197.02 -17.48, 196.46 -14.19, 196.54 -12.92 C196.62 -11.64, 195.33 -10.58, 196.64 -10.1 C197.96 -9.61, 201.98 -9.47, 204.43 -10.01 C206.88 -10.55, 210.64 -13.98, 211.34 -13.34 C212.04 -12.7, 208.41 -7.73, 208.61 -6.19 C208.82 -4.66, 213.64 -4.71, 212.55 -4.13 C211.45 -3.56, 208.92 -2.95, 202.05 -2.76 C195.19 -2.56, 183.84 -3.02, 171.37 -2.95 C158.9 -2.88, 143.02 -2.64, 127.24 -2.34 C111.46 -2.03, 88.51 -1.53, 76.68 -1.13 C64.86 -0.74, 59.68 -0.16, 56.28 0.04" stroke="#E1E1E1" stroke-width="4" fill="none"></path></g></g><mask></mask><g stroke-linecap="round"><g transform="translate(233.62552605210328 62.29219424773558) rotate(0 11.11922832109866 -9.644642107301337)"><path d="M0 0 C-0.23 -1.33, -0.57 -5.59, -1.38 -7.98 C-2.19 -10.37, -3.5 -12.84, -4.88 -14.35 C-6.26 -15.85, -7.44 -16.5, -9.65 -17.01 C-11.86 -17.53, -17.87 -17.04, -18.14 -17.42 C-18.41 -17.8, -13.6 -18.99, -11.29 -19.29 C-8.98 -19.59, -6.21 -19.62, -4.28 -19.23 C-2.36 -18.84, -1.22 -18.26, 0.28 -16.96 C1.77 -15.65, 3.45 -12.08, 4.67 -11.39 C5.9 -10.69, 6.42 -12.46, 7.61 -12.81 C8.79 -13.16, 10.23 -13.69, 11.77 -13.48 C13.32 -13.26, 15.53 -12.42, 16.89 -11.51 C18.24 -10.61, 19.16 -8.05, 19.92 -8.05 C20.67 -8.06, 20.55 -10.38, 21.42 -11.54 C22.3 -12.7, 23.65 -14.24, 25.18 -15 C26.7 -15.75, 28.89 -16.15, 30.59 -16.06 C32.29 -15.97, 34.07 -15.36, 35.4 -14.45 C36.72 -13.54, 37.69 -11.85, 38.52 -10.6 C39.35 -9.35, 40.8 -7.32, 40.38 -6.98 C39.97 -6.63, 37.78 -8.05, 36.03 -8.53 C34.29 -9, 31.77 -9.81, 29.92 -9.82 C28.06 -9.82, 26.26 -9.26, 24.88 -8.56 C23.51 -7.86, 22.39 -6.73, 21.66 -5.62 C20.92 -4.51, 21.08 -2.08, 20.47 -1.9 C19.86 -1.72, 19 -3.55, 18 -4.52 C16.99 -5.5, 15.8 -7.09, 14.42 -7.76 C13.03 -8.42, 11.37 -8.96, 9.67 -8.51 C7.97 -8.06, 5.81 -6.49, 4.2 -5.07 C2.59 -3.65, 0.7 -0.85, 0 0 M0 0 C-0.23 -1.33, -0.57 -5.59, -1.38 -7.98 C-2.19 -10.37, -3.5 -12.84, -4.88 -14.35 C-6.26 -15.85, -7.44 -16.5, -9.65 -17.01 C-11.86 -17.53, -17.87 -17.04, -18.14 -17.42 C-18.41 -17.8, -13.6 -18.99, -11.29 -19.29 C-8.98 -19.59, -6.21 -19.62, -4.28 -19.23 C-2.36 -18.84, -1.22 -18.26, 0.28 -16.96 C1.77 -15.65, 3.45 -12.08, 4.67 -11.39 C5.9 -10.69, 6.42 -12.46, 7.61 -12.81 C8.79 -13.16, 10.23 -13.69, 11.77 -13.48 C13.32 -13.26, 15.53 -12.42, 16.89 -11.51 C18.24 -10.61, 19.16 -8.05, 19.92 -8.05 C20.67 -8.06, 20.55 -10.38, 21.42 -11.54 C22.3 -12.7, 23.65 -14.24, 25.18 -15 C26.7 -15.75, 28.89 -16.15, 30.59 -16.06 C32.29 -15.97, 34.07 -15.36, 35.4 -14.45 C36.72 -13.54, 37.69 -11.85, 38.52 -10.6 C39.35 -9.35, 40.8 -7.32, 40.38 -6.98 C39.97 -6.63, 37.78 -8.05, 36.03 -8.53 C34.29 -9, 31.77 -9.81, 29.92 -9.82 C28.06 -9.82, 26.26 -9.26, 24.88 -8.56 C23.51 -7.86, 22.39 -6.73, 21.66 -5.62 C20.92 -4.51, 21.08 -2.08, 20.47 -1.9 C19.86 -1.72, 19 -3.55, 18 -4.52 C16.99 -5.5, 15.8 -7.09, 14.42 -7.76 C13.03 -8.42, 11.37 -8.96, 9.67 -8.51 C7.97 -8.06, 5.81 -6.49, 4.2 -5.07 C2.59 -3.65, 0.7 -0.85, 0 0" stroke="#E1E1E1" stroke-width="4" fill="none"></path></g></g><mask></mask><g stroke-linecap="round"><g transform="translate(219.95209679235393 36.15644806671514) rotate(0 17.790644747489182 -4.2045981892449475)"><path d="M0 0 C0.73 -0.17, 2.48 -0.83, 4.37 -1.01 C6.25 -1.19, 9.02 -1.42, 11.33 -1.08 C13.64 -0.75, 16.22 0.13, 18.21 1.01 C20.2 1.88, 21.71 2.81, 23.3 4.15 C24.88 5.49, 26.62 8.73, 27.7 9.03 C28.78 9.32, 28.41 6.52, 29.77 5.92 C31.12 5.33, 33.53 5.27, 35.85 5.46 C38.17 5.64, 42.79 7.42, 43.67 7.04 C44.55 6.66, 42.26 3.87, 41.1 3.17 C39.94 2.48, 37.67 3.71, 36.69 2.85 C35.7 1.98, 35.85 -0.07, 35.19 -2.01 C34.53 -3.94, 34.34 -6.66, 32.72 -8.75 C31.11 -10.84, 28.26 -13.1, 25.5 -14.55 C22.73 -15.99, 19.19 -17.14, 16.12 -17.44 C13.05 -17.73, 9.88 -17.95, 7.07 -16.3 C4.27 -14.65, 1.09 -9.44, -0.69 -7.54 C-2.46 -5.63, -2.32 -5.72, -3.55 -4.86 C-4.79 -4, -7.44 -3.12, -8.09 -2.35 C-8.74 -1.59, -8.31 -0.68, -7.44 -0.27 C-6.57 0.14, -4.12 0.06, -2.88 0.1 C-1.64 0.15, -0.48 0.02, 0 0 M0 0 C0.73 -0.17, 2.48 -0.83, 4.37 -1.01 C6.25 -1.19, 9.02 -1.42, 11.33 -1.08 C13.64 -0.75, 16.22 0.13, 18.21 1.01 C20.2 1.88, 21.71 2.81, 23.3 4.15 C24.88 5.49, 26.62 8.73, 27.7 9.03 C28.78 9.32, 28.41 6.52, 29.77 5.92 C31.12 5.33, 33.53 5.27, 35.85 5.46 C38.17 5.64, 42.79 7.42, 43.67 7.04 C44.55 6.66, 42.26 3.87, 41.1 3.17 C39.94 2.48, 37.67 3.71, 36.69 2.85 C35.7 1.98, 35.85 -0.07, 35.19 -2.01 C34.53 -3.94, 34.34 -6.66, 32.72 -8.75 C31.11 -10.84, 28.26 -13.1, 25.5 -14.55 C22.73 -15.99, 19.19 -17.14, 16.12 -17.44 C13.05 -17.73, 9.88 -17.95, 7.07 -16.3 C4.27 -14.65, 1.09 -9.44, -0.69 -7.54 C-2.46 -5.63, -2.32 -5.72, -3.55 -4.86 C-4.79 -4, -7.44 -3.12, -8.09 -2.35 C-8.74 -1.59, -8.31 -0.68, -7.44 -0.27 C-6.57 0.14, -4.12 0.06, -2.88 0.1 C-1.64 0.15, -0.48 0.02, 0 0" stroke="#E1E1E1" stroke-width="4" fill="none"></path></g></g><mask></mask><g stroke-linecap="round"><g transform="translate(145.8439028819247 107.7171285205383) rotate(0 17.14003627037465 -25.59457235479261)"><path d="M0 0 C1.39 -1.19, 5.53 -5.34, 8.34 -7.17 C11.16 -9, 13.34 -10, 16.89 -10.97 C20.44 -11.94, 25.25 -12.63, 29.63 -12.99 C34.02 -13.34, 40.5 -13.32, 43.19 -13.09 C45.89 -12.86, 45.32 -12.29, 45.78 -11.6 C46.25 -10.91, 46.27 -9.84, 45.97 -8.94 C45.68 -8.03, 45.02 -7.19, 44.01 -6.18 C42.99 -5.18, 41.17 -4.57, 39.9 -2.89 C38.62 -1.21, 36.91 1.27, 36.35 3.9 C35.79 6.52, 35.52 10.27, 36.52 12.86 C37.53 15.46, 40.4 17.61, 42.39 19.46 C44.39 21.31, 46.27 23.19, 48.48 23.96 C50.7 24.72, 53.47 24.85, 55.68 24.05 C57.89 23.26, 60.38 21.08, 61.74 19.18 C63.09 17.29, 62.63 15.32, 63.82 12.68 C65 10.04, 66.6 5.99, 68.83 3.34 C71.06 0.68, 74.74 -1.74, 77.21 -3.27 C79.68 -4.79, 82.36 -4.82, 83.64 -5.83 C84.92 -6.83, 85.04 -8.03, 84.88 -9.29 C84.71 -10.56, 83.79 -12.37, 82.65 -13.4 C81.51 -14.43, 79.52 -14.63, 78.01 -15.48 C76.51 -16.32, 73.94 -17.64, 73.6 -18.46 C73.27 -19.27, 74.73 -19.35, 76 -20.36 C77.26 -21.37, 79.58 -23.23, 81.19 -24.51 C82.79 -25.8, 84.07 -27.02, 85.62 -28.07 C87.16 -29.12, 90.01 -29.99, 90.48 -30.81 C90.96 -31.62, 89.69 -31.98, 88.45 -32.96 C87.21 -33.94, 85.08 -35.76, 83.03 -36.67 C80.98 -37.58, 78.62 -38.35, 76.15 -38.41 C73.67 -38.48, 70.7 -37.6, 68.19 -37.06 C65.67 -36.52, 62.7 -35.46, 61.04 -35.16 C59.38 -34.86, 58.64 -34.83, 58.23 -35.27 C57.81 -35.72, 58.03 -37.31, 58.54 -37.81 C59.06 -38.31, 61.18 -37.92, 61.3 -38.26 C61.42 -38.61, 60.2 -39.77, 59.27 -39.86 C58.35 -39.95, 56.87 -39.1, 55.75 -38.79 C54.63 -38.48, 53.91 -37.96, 52.57 -38 C51.23 -38.03, 48.99 -38.26, 47.72 -38.99 C46.45 -39.72, 45.4 -41.18, 44.93 -42.36 C44.46 -43.53, 44.48 -45.27, 44.9 -46.03 C45.31 -46.79, 47.05 -46.46, 47.42 -46.94 C47.8 -47.42, 47.66 -48.77, 47.14 -48.9 C46.61 -49.03, 45.7 -48.27, 44.28 -47.72 C42.85 -47.17, 41.38 -46.29, 38.6 -45.6 C35.82 -44.91, 31.2 -43.64, 27.59 -43.59 C23.98 -43.53, 18.9 -44.48, 16.94 -45.26 C14.98 -46.05, 15.2 -46.77, 15.85 -48.3 C16.5 -49.82, 18.45 -52.98, 20.85 -54.42 C23.25 -55.87, 27.36 -56.4, 30.25 -56.97 C33.14 -57.54, 36.8 -56.84, 38.19 -57.84 C39.59 -58.84, 39.42 -61.06, 38.64 -62.97 C37.86 -64.88, 35.11 -67.49, 33.49 -69.3 C31.86 -71.11, 30.61 -72.86, 28.89 -73.85 C27.16 -74.84, 25.37 -75.09, 23.16 -75.24 C20.94 -75.39, 18.11 -75.44, 15.6 -74.76 C13.09 -74.07, 10.18 -72.61, 8.12 -71.14 C6.05 -69.67, 4.48 -67.69, 3.21 -65.94 C1.93 -64.18, 1.12 -62.08, 0.49 -60.6 C-0.14 -59.12, 0.05 -57.59, -0.57 -57.06 C-1.2 -56.54, -2.08 -57.27, -3.25 -57.46 C-4.42 -57.64, -6.34 -58.12, -7.61 -58.18 C-8.89 -58.23, -10.57 -58.45, -10.9 -57.79 C-11.22 -57.13, -10.05 -55.49, -9.57 -54.22 C-9.08 -52.95, -8.64 -51.23, -7.99 -50.14 C-7.34 -49.06, -6.33 -48.45, -5.68 -47.72 C-5.02 -47, -4.05 -46.31, -4.07 -45.79 C-4.09 -45.26, -5.22 -45.2, -5.8 -44.58 C-6.37 -43.95, -7.11 -43.08, -7.53 -42.05 C-7.96 -41.03, -8.72 -39.7, -8.36 -38.41 C-8 -37.11, -6.19 -35.58, -5.39 -34.29 C-4.58 -32.99, -3.05 -31.16, -3.54 -30.64 C-4.02 -30.11, -6.36 -31.28, -8.3 -31.14 C-10.24 -30.99, -12.57 -30.61, -15.17 -29.78 C-17.77 -28.94, -21.56 -27.53, -23.9 -26.12 C-26.24 -24.7, -28.22 -22.54, -29.19 -21.27 C-30.16 -20.01, -28.52 -18.79, -29.73 -18.51 C-30.94 -18.23, -34.29 -19.81, -36.43 -19.58 C-38.57 -19.35, -41.54 -18.38, -42.58 -17.12 C-43.61 -15.86, -41.84 -13.21, -42.66 -12 C-43.48 -10.8, -45.93 -10.48, -47.51 -9.89 C-49.09 -9.3, -50.71 -8.38, -52.16 -8.46 C-53.61 -8.54, -55.53 -10.04, -56.2 -10.36 M0 0 C1.39 -1.19, 5.53 -5.34, 8.34 -7.17 C11.16 -9, 13.34 -10, 16.89 -10.97 C20.44 -11.94, 25.25 -12.63, 29.63 -12.99 C34.02 -13.34, 40.5 -13.32, 43.19 -13.09 C45.89 -12.86, 45.32 -12.29, 45.78 -11.6 C46.25 -10.91, 46.27 -9.84, 45.97 -8.94 C45.68 -8.03, 45.02 -7.19, 44.01 -6.18 C42.99 -5.18, 41.17 -4.57, 39.9 -2.89 C38.62 -1.21, 36.91 1.27, 36.35 3.9 C35.79 6.52, 35.52 10.27, 36.52 12.86 C37.53 15.46, 40.4 17.61, 42.39 19.46 C44.39 21.31, 46.27 23.19, 48.48 23.96 C50.7 24.72, 53.47 24.85, 55.68 24.05 C57.89 23.26, 60.38 21.08, 61.74 19.18 C63.09 17.29, 62.63 15.32, 63.82 12.68 C65 10.04, 66.6 5.99, 68.83 3.34 C71.06 0.68, 74.74 -1.74, 77.21 -3.27 C79.68 -4.79, 82.36 -4.82, 83.64 -5.83 C84.92 -6.83, 85.04 -8.03, 84.88 -9.29 C84.71 -10.56, 83.79 -12.37, 82.65 -13.4 C81.51 -14.43, 79.52 -14.63, 78.01 -15.48 C76.51 -16.32, 73.94 -17.64, 73.6 -18.46 C73.27 -19.27, 74.73 -19.35, 76 -20.36 C77.26 -21.37, 79.58 -23.23, 81.19 -24.51 C82.79 -25.8, 84.07 -27.02, 85.62 -28.07 C87.16 -29.12, 90.01 -29.99, 90.48 -30.81 C90.96 -31.62, 89.69 -31.98, 88.45 -32.96 C87.21 -33.94, 85.08 -35.76, 83.03 -36.67 C80.98 -37.58, 78.62 -38.35, 76.15 -38.41 C73.67 -38.48, 70.7 -37.6, 68.19 -37.06 C65.67 -36.52, 62.7 -35.46, 61.04 -35.16 C59.38 -34.86, 58.64 -34.83, 58.23 -35.27 C57.81 -35.72, 58.03 -37.31, 58.54 -37.81 C59.06 -38.31, 61.18 -37.92, 61.3 -38.26 C61.42 -38.61, 60.2 -39.77, 59.27 -39.86 C58.35 -39.95, 56.87 -39.1, 55.75 -38.79 C54.63 -38.48, 53.91 -37.96, 52.57 -38 C51.23 -38.03, 48.99 -38.26, 47.72 -38.99 C46.45 -39.72, 45.4 -41.18, 44.93 -42.36 C44.46 -43.53, 44.48 -45.27, 44.9 -46.03 C45.31 -46.79, 47.05 -46.46, 47.42 -46.94 C47.8 -47.42, 47.66 -48.77, 47.14 -48.9 C46.61 -49.03, 45.7 -48.27, 44.28 -47.72 C42.85 -47.17, 41.38 -46.29, 38.6 -45.6 C35.82 -44.91, 31.2 -43.64, 27.59 -43.59 C23.98 -43.53, 18.9 -44.48, 16.94 -45.26 C14.98 -46.05, 15.2 -46.77, 15.85 -48.3 C16.5 -49.82, 18.45 -52.98, 20.85 -54.42 C23.25 -55.87, 27.36 -56.4, 30.25 -56.97 C33.14 -57.54, 36.8 -56.84, 38.19 -57.84 C39.59 -58.84, 39.42 -61.06, 38.64 -62.97 C37.86 -64.88, 35.11 -67.49, 33.49 -69.3 C31.86 -71.11, 30.61 -72.86, 28.89 -73.85 C27.16 -74.84, 25.37 -75.09, 23.16 -75.24 C20.94 -75.39, 18.11 -75.44, 15.6 -74.76 C13.09 -74.07, 10.18 -72.61, 8.12 -71.14 C6.05 -69.67, 4.48 -67.69, 3.21 -65.94 C1.93 -64.18, 1.12 -62.08, 0.49 -60.6 C-0.14 -59.12, 0.05 -57.59, -0.57 -57.06 C-1.2 -56.54, -2.08 -57.27, -3.25 -57.46 C-4.42 -57.64, -6.34 -58.12, -7.61 -58.18 C-8.89 -58.23, -10.57 -58.45, -10.9 -57.79 C-11.22 -57.13, -10.05 -55.49, -9.57 -54.22 C-9.08 -52.95, -8.64 -51.23, -7.99 -50.14 C-7.34 -49.06, -6.33 -48.45, -5.68 -47.72 C-5.02 -47, -4.05 -46.31, -4.07 -45.79 C-4.09 -45.26, -5.22 -45.2, -5.8 -44.58 C-6.37 -43.95, -7.11 -43.08, -7.53 -42.05 C-7.96 -41.03, -8.72 -39.7, -8.36 -38.41 C-8 -37.11, -6.19 -35.58, -5.39 -34.29 C-4.58 -32.99, -3.05 -31.16, -3.54 -30.64 C-4.02 -30.11, -6.36 -31.28, -8.3 -31.14 C-10.24 -30.99, -12.57 -30.61, -15.17 -29.78 C-17.77 -28.94, -21.56 -27.53, -23.9 -26.12 C-26.24 -24.7, -28.22 -22.54, -29.19 -21.27 C-30.16 -20.01, -28.52 -18.79, -29.73 -18.51 C-30.94 -18.23, -34.29 -19.81, -36.43 -19.58 C-38.57 -19.35, -41.54 -18.38, -42.58 -17.12 C-43.61 -15.86, -41.84 -13.21, -42.66 -12 C-43.48 -10.8, -45.93 -10.48, -47.51 -9.89 C-49.09 -9.3, -50.71 -8.38, -52.16 -8.46 C-53.61 -8.54, -55.53 -10.04, -56.2 -10.36" stroke="#E1E1E1" stroke-width="4" fill="none"></path></g></g><mask></mask><g stroke-linecap="round"><g transform="translate(89.24416542340123 96.94828061238701) rotate(0 30.275076503774812 -0.32945968580591156)"><path d="M0 0 C-0.48 0, -1.99 -0.08, -2.86 0 C-3.73 0.08, -4.72 0.16, -5.21 0.48 C-5.71 0.8, -5.87 1.58, -5.8 1.93 C-5.74 2.28, -4.97 2.08, -4.81 2.56 C-4.65 3.03, -4.84 3.83, -4.83 4.77 C-4.82 5.7, -5.11 7.76, -4.75 8.15 C-4.39 8.54, -3.78 7.22, -2.65 7.09 C-1.51 6.96, 0.81 7, 2.08 7.35 C3.35 7.7, 4.06 8.42, 4.96 9.2 C5.86 9.99, 6.33 11.41, 7.48 12.05 C8.62 12.7, 10.58 13.27, 11.82 13.08 C13.07 12.89, 13.98 12.07, 14.95 10.91 C15.92 9.74, 16.85 7.65, 17.62 6.08 C18.39 4.52, 19.02 2.58, 19.56 1.52 C20.09 0.47, 20.33 -0.01, 20.85 -0.25 C21.37 -0.48, 22.14 -0.32, 22.66 0.1 C23.17 0.51, 23.02 1.69, 23.93 2.24 C24.84 2.79, 26.5 3.27, 28.12 3.39 C29.75 3.52, 31.78 3.83, 33.69 2.99 C35.61 2.16, 37.9 -0.05, 39.6 -1.61 C41.29 -3.18, 41.64 -4.76, 43.88 -6.4 C46.11 -8.04, 50.52 -10.22, 53.02 -11.45 C55.52 -12.67, 56.84 -13.46, 58.88 -13.74 C60.92 -14.02, 64 -13.89, 65.24 -13.15 C66.49 -12.42, 66.56 -10.9, 66.36 -9.33 C66.15 -7.76, 64.88 -5.78, 64.02 -3.74 C63.15 -1.7, 62.37 0.5, 61.14 2.91 C59.91 5.31, 57.39 9.38, 56.64 10.68 M0 0 C-0.48 0, -1.99 -0.08, -2.86 0 C-3.73 0.08, -4.72 0.16, -5.21 0.48 C-5.71 0.8, -5.87 1.58, -5.8 1.93 C-5.74 2.28, -4.97 2.08, -4.81 2.56 C-4.65 3.03, -4.84 3.83, -4.83 4.77 C-4.82 5.7, -5.11 7.76, -4.75 8.15 C-4.39 8.54, -3.78 7.22, -2.65 7.09 C-1.51 6.96, 0.81 7, 2.08 7.35 C3.35 7.7, 4.06 8.42, 4.96 9.2 C5.86 9.99, 6.33 11.41, 7.48 12.05 C8.62 12.7, 10.58 13.27, 11.82 13.08 C13.07 12.89, 13.98 12.07, 14.95 10.91 C15.92 9.74, 16.85 7.65, 17.62 6.08 C18.39 4.52, 19.02 2.58, 19.56 1.52 C20.09 0.47, 20.33 -0.01, 20.85 -0.25 C21.37 -0.48, 22.14 -0.32, 22.66 0.1 C23.17 0.51, 23.02 1.69, 23.93 2.24 C24.84 2.79, 26.5 3.27, 28.12 3.39 C29.75 3.52, 31.78 3.83, 33.69 2.99 C35.61 2.16, 37.9 -0.05, 39.6 -1.61 C41.29 -3.18, 41.64 -4.76, 43.88 -6.4 C46.11 -8.04, 50.52 -10.22, 53.02 -11.45 C55.52 -12.67, 56.84 -13.46, 58.88 -13.74 C60.92 -14.02, 64 -13.89, 65.24 -13.15 C66.49 -12.42, 66.56 -10.9, 66.36 -9.33 C66.15 -7.76, 64.88 -5.78, 64.02 -3.74 C63.15 -1.7, 62.37 0.5, 61.14 2.91 C59.91 5.31, 57.39 9.38, 56.64 10.68" stroke="#E1E1E1" stroke-width="4" fill="none"></path></g></g><mask></mask><g stroke-linecap="round"><g transform="translate(328.8367459368907 12.149919909823495) rotate(0 3.754255093053416 1.1508991221183749)"><path d="M0 0 C0.6 -0.33, 2.36 -1.7, 3.6 -1.99 C4.85 -2.28, 6.69 -2.16, 7.48 -1.73 C8.28 -1.3, 8.44 -0.07, 8.39 0.61 C8.34 1.29, 7.91 1.78, 7.2 2.35 C6.48 2.92, 5.16 3.69, 4.09 4.01 C3.02 4.34, 1.61 4.53, 0.79 4.29 C-0.04 4.06, -0.75 3.32, -0.88 2.61 C-1.01 1.89, -0.15 0.43, 0 0 M0 0 C0.6 -0.33, 2.36 -1.7, 3.6 -1.99 C4.85 -2.28, 6.69 -2.16, 7.48 -1.73 C8.28 -1.3, 8.44 -0.07, 8.39 0.61 C8.34 1.29, 7.91 1.78, 7.2 2.35 C6.48 2.92, 5.16 3.69, 4.09 4.01 C3.02 4.34, 1.61 4.53, 0.79 4.29 C-0.04 4.06, -0.75 3.32, -0.88 2.61 C-1.01 1.89, -0.15 0.43, 0 0" stroke="#E1E1E1" stroke-width="4" fill="none"></path></g></g><mask></mask><g stroke-linecap="round"><g transform="translate(408.88059050132233 91.41768760918512) rotate(0 1.3869256551655837 1.6216001449229083)"><path d="M0 0 C0.44 0, 2.08 -0.29, 2.64 0 C3.19 0.29, 3.35 1.19, 3.33 1.72 C3.31 2.26, 2.97 2.98, 2.54 3.23 C2.11 3.48, 1.26 3.45, 0.75 3.24 C0.23 3.04, -0.43 2.52, -0.56 1.98 C-0.68 1.44, -0.09 0.33, 0 0 M0 0 C0.44 0, 2.08 -0.29, 2.64 0 C3.19 0.29, 3.35 1.19, 3.33 1.72 C3.31 2.26, 2.97 2.98, 2.54 3.23 C2.11 3.48, 1.26 3.45, 0.75 3.24 C0.23 3.04, -0.43 2.52, -0.56 1.98 C-0.68 1.44, -0.09 0.33, 0 0" stroke="#E1E1E1" stroke-width="4" fill="none"></path></g></g><mask></mask><g stroke-linecap="round"><g transform="translate(67.11517581055466 214.86876194869427) rotate(0 -3.1372817784356926 0.7488422223501381)"><path d="M0 0 C0.36 -0.65, 2.24 -2.8, 2.16 -3.92 C2.09 -5.04, 0.75 -6.23, -0.44 -6.7 C-1.63 -7.17, -3.66 -7.49, -4.99 -6.73 C-6.32 -5.97, -7.82 -3.74, -8.4 -2.16 C-8.97 -0.57, -8.78 1.04, -8.44 2.77 C-8.1 4.5, -7.3 7.82, -6.37 8.23 C-5.44 8.64, -3.91 6.62, -2.85 5.25 C-1.79 3.88, -0.47 0.88, 0 0 M0 0 C0.36 -0.65, 2.24 -2.8, 2.16 -3.92 C2.09 -5.04, 0.75 -6.23, -0.44 -6.7 C-1.63 -7.17, -3.66 -7.49, -4.99 -6.73 C-6.32 -5.97, -7.82 -3.74, -8.4 -2.16 C-8.97 -0.57, -8.78 1.04, -8.44 2.77 C-8.1 4.5, -7.3 7.82, -6.37 8.23 C-5.44 8.64, -3.91 6.62, -2.85 5.25 C-1.79 3.88, -0.47 0.88, 0 0" stroke="#E1E1E1" stroke-width="4" fill="none"></path></g></g><mask></mask><g stroke-linecap="round"><g transform="translate(142.18793958516915 48.75628677479068) rotate(0 -3.984737171000347 -6.373603579127604)"><path d="M0 0 C-0.32 -1.66, -1.55 -7.82, -1.92 -9.95 C-2.3 -12.07, -1.67 -12.78, -2.24 -12.75 C-2.81 -12.71, -4.51 -10.76, -5.34 -9.75 C-6.17 -8.75, -6.78 -8.23, -7.22 -6.72 C-7.65 -5.21, -8.41 -1.76, -7.97 -0.69 C-7.53 0.38, -5.89 -0.41, -4.56 -0.29 C-3.23 -0.17, -0.76 -0.05, 0 0 M0 0 C-0.32 -1.66, -1.55 -7.82, -1.92 -9.95 C-2.3 -12.07, -1.67 -12.78, -2.24 -12.75 C-2.81 -12.71, -4.51 -10.76, -5.34 -9.75 C-6.17 -8.75, -6.78 -8.23, -7.22 -6.72 C-7.65 -5.21, -8.41 -1.76, -7.97 -0.69 C-7.53 0.38, -5.89 -0.41, -4.56 -0.29 C-3.23 -0.17, -0.76 -0.05, 0 0" stroke="#E1E1E1" stroke-width="4" fill="none"></path></g></g><mask></mask></svg>