<svg version="1.1" xmlns="http://www.w3.org/2000/svg" viewBox="0 0 184.39492852357648 345.7508504821667" width="184.39492852357648" height="345.7508504821667" class="excalidraw-svg"><!-- svg-source:excalidraw --><metadata></metadata><defs><style class="style-fonts">
      </style></defs><rect x="0" y="0" width="184.39492852357648" height="345.7508504821667" fill="#000000"></rect><g stroke-linecap="round"><g transform="translate(136.7505233673511 242.20508458650897) rotate(0 4.224991339727353 -38.449085917078605)"><path d="M0 0 C0 -3.28, 0 -11.26, 0 -19.65 C0 -28.05, 0 -42.2, 0 -50.37 C0 -58.54, -0.01 -64.84, 0 -68.66 C0.01 -72.48, -0.22 -72.04, 0.03 -73.31 C0.28 -74.58, 0.77 -75.61, 1.48 -76.26 C2.19 -76.9, 3.47 -77.14, 4.3 -77.19 C5.13 -77.23, 5.79 -77.08, 6.48 -76.52 C7.17 -75.96, 8.12 -75.34, 8.45 -73.82 C8.78 -72.29, 8.45 -72.25, 8.45 -67.38 C8.45 -62.52, 8.45 -51.72, 8.45 -44.63 C8.45 -37.54, 8.45 -30.83, 8.45 -24.85 C8.45 -18.87, 8.45 -12.93, 8.45 -8.74 C8.45 -4.55, 8.45 -1.22, 8.45 0.29 M0 0 C0 -3.28, 0 -11.26, 0 -19.65 C0 -28.05, 0 -42.2, 0 -50.37 C0 -58.54, -0.01 -64.84, 0 -68.66 C0.01 -72.48, -0.22 -72.04, 0.03 -73.31 C0.28 -74.58, 0.77 -75.61, 1.48 -76.26 C2.19 -76.9, 3.47 -77.14, 4.3 -77.19 C5.13 -77.23, 5.79 -77.08, 6.48 -76.52 C7.17 -75.96, 8.12 -75.34, 8.45 -73.82 C8.78 -72.29, 8.45 -72.25, 8.45 -67.38 C8.45 -62.52, 8.45 -51.72, 8.45 -44.63 C8.45 -37.54, 8.45 -30.83, 8.45 -24.85 C8.45 -18.87, 8.45 -12.93, 8.45 -8.74 C8.45 -4.55, 8.45 -1.22, 8.45 0.29" stroke="#E1E1E1" stroke-width="2" fill="none"></path></g></g><mask></mask><g stroke-linecap="round"><g transform="translate(136.65375237567855 242.44364260219209) rotate(0 7.583718885005339 -71.4358166257602)"><path d="M0 0 C-1.77 0.03, -7.84 0.09, -10.64 0.17 C-13.44 0.25, -15.34 0.09, -16.8 0.49 C-18.25 0.89, -18.98 1.67, -19.35 2.57 C-19.73 3.47, -19.45 4.97, -19.06 5.88 C-18.67 6.79, -18.09 7.58, -17.02 8.04 C-15.95 8.51, -15.53 8.54, -12.65 8.64 C-9.78 8.74, -4.3 8.64, 0.21 8.64 C4.72 8.64, 9.75 8.64, 14.39 8.64 C19.03 8.64, 24.71 8.64, 28.03 8.64 C31.35 8.64, 32.9 8.82, 34.32 8.64 C35.75 8.47, 35.99 8.16, 36.55 7.59 C37.11 7.02, 37.53 6.74, 37.69 5.21 C37.86 3.68, 37.55 2.47, 37.52 -1.59 C37.49 -5.66, 37.52 -11.24, 37.52 -19.17 C37.52 -27.11, 37.52 -40.36, 37.52 -49.2 C37.52 -58.04, 37.65 -66.2, 37.52 -72.23 C37.39 -78.26, 37.4 -80.88, 36.73 -85.37 C36.05 -89.87, 34.85 -94.89, 33.46 -99.2 C32.07 -103.51, 30.91 -106.76, 28.4 -111.21 C25.88 -115.66, 21.7 -121.85, 18.35 -125.92 C15.01 -129.99, 11.44 -132.97, 8.31 -135.64 C5.17 -138.31, 2.33 -140.09, -0.45 -141.94 C-3.23 -143.79, -5.85 -145.46, -8.36 -146.74 C-10.87 -148.02, -13.15 -148.81, -15.51 -149.61 C-17.87 -150.4, -21.36 -151.2, -22.53 -151.51 M0 0 C-1.77 0.03, -7.84 0.09, -10.64 0.17 C-13.44 0.25, -15.34 0.09, -16.8 0.49 C-18.25 0.89, -18.98 1.67, -19.35 2.57 C-19.73 3.47, -19.45 4.97, -19.06 5.88 C-18.67 6.79, -18.09 7.58, -17.02 8.04 C-15.95 8.51, -15.53 8.54, -12.65 8.64 C-9.78 8.74, -4.3 8.64, 0.21 8.64 C4.72 8.64, 9.75 8.64, 14.39 8.64 C19.03 8.64, 24.71 8.64, 28.03 8.64 C31.35 8.64, 32.9 8.82, 34.32 8.64 C35.75 8.47, 35.99 8.16, 36.55 7.59 C37.11 7.02, 37.53 6.74, 37.69 5.21 C37.86 3.68, 37.55 2.47, 37.52 -1.59 C37.49 -5.66, 37.52 -11.24, 37.52 -19.17 C37.52 -27.11, 37.52 -40.36, 37.52 -49.2 C37.52 -58.04, 37.65 -66.2, 37.52 -72.23 C37.39 -78.26, 37.4 -80.88, 36.73 -85.37 C36.05 -89.87, 34.85 -94.89, 33.46 -99.2 C32.07 -103.51, 30.91 -106.76, 28.4 -111.21 C25.88 -115.66, 21.7 -121.85, 18.35 -125.92 C15.01 -129.99, 11.44 -132.97, 8.31 -135.64 C5.17 -138.31, 2.33 -140.09, -0.45 -141.94 C-3.23 -143.79, -5.85 -145.46, -8.36 -146.74 C-10.87 -148.02, -13.15 -148.81, -15.51 -149.61 C-17.87 -150.4, -21.36 -151.2, -22.53 -151.51" stroke="#E1E1E1" stroke-width="2" fill="none"></path></g></g><mask></mask><g stroke-linecap="round"><g transform="translate(114.18724799700351 90.82721967425846) rotate(0 -22.00829946119336 -40.27331029621314)"><path d="M0 0 C0.81 -0.53, 3.03 -1.53, 4.85 -3.15 C6.67 -4.78, 9.22 -7.77, 10.91 -9.77 C12.61 -11.77, 13.69 -12.86, 15.03 -15.14 C16.38 -17.43, 17.94 -20.42, 18.96 -23.49 C19.99 -26.56, 20.89 -29.64, 21.18 -33.54 C21.47 -37.45, 21.42 -42.95, 20.7 -46.92 C19.97 -50.89, 18.59 -54, 16.84 -57.35 C15.08 -60.69, 12.56 -64.3, 10.15 -66.99 C7.75 -69.67, 5.43 -71.53, 2.42 -73.46 C-0.59 -75.38, -4.69 -77.37, -7.91 -78.53 C-11.13 -79.68, -13.7 -80.04, -16.9 -80.38 C-20.1 -80.72, -23.35 -81.1, -27.14 -80.55 C-30.93 -79.99, -35.57 -78.9, -39.62 -77.04 C-43.68 -75.18, -48.19 -72.24, -51.45 -69.39 C-54.71 -66.55, -57.06 -63.52, -59.18 -59.95 C-61.29 -56.39, -63.13 -52.3, -64.14 -48.01 C-65.14 -43.72, -65.42 -38.26, -65.19 -34.2 C-64.96 -30.14, -64.03 -27.13, -62.75 -23.63 C-61.47 -20.14, -59.44 -16.24, -57.5 -13.23 C-55.56 -10.22, -53.48 -7.74, -51.09 -5.57 C-48.69 -3.4, -44.46 -1.12, -43.14 -0.24 M0 0 C0.81 -0.53, 3.03 -1.53, 4.85 -3.15 C6.67 -4.78, 9.22 -7.77, 10.91 -9.77 C12.61 -11.77, 13.69 -12.86, 15.03 -15.14 C16.38 -17.43, 17.94 -20.42, 18.96 -23.49 C19.99 -26.56, 20.89 -29.64, 21.18 -33.54 C21.47 -37.45, 21.42 -42.95, 20.7 -46.92 C19.97 -50.89, 18.59 -54, 16.84 -57.35 C15.08 -60.69, 12.56 -64.3, 10.15 -66.99 C7.75 -69.67, 5.43 -71.53, 2.42 -73.46 C-0.59 -75.38, -4.69 -77.37, -7.91 -78.53 C-11.13 -79.68, -13.7 -80.04, -16.9 -80.38 C-20.1 -80.72, -23.35 -81.1, -27.14 -80.55 C-30.93 -79.99, -35.57 -78.9, -39.62 -77.04 C-43.68 -75.18, -48.19 -72.24, -51.45 -69.39 C-54.71 -66.55, -57.06 -63.52, -59.18 -59.95 C-61.29 -56.39, -63.13 -52.3, -64.14 -48.01 C-65.14 -43.72, -65.42 -38.26, -65.19 -34.2 C-64.96 -30.14, -64.03 -27.13, -62.75 -23.63 C-61.47 -20.14, -59.44 -16.24, -57.5 -13.23 C-55.56 -10.22, -53.48 -7.74, -51.09 -5.57 C-48.69 -3.4, -44.46 -1.12, -43.14 -0.24" stroke="#E1E1E1" stroke-width="2" fill="none"></path></g></g><mask></mask><g stroke-linecap="round" transform="translate(57.59822185507642 18.248454475902008) rotate(0 34.77555676785124 34.77555676785124)"><path d="M69.55 34.78 C69.55 36.59, 69.41 38.42, 69.12 40.22 C68.84 42.01, 68.41 43.8, 67.85 45.52 C67.29 47.25, 66.58 48.95, 65.76 50.56 C64.94 52.18, 63.98 53.75, 62.91 55.22 C61.84 56.68, 60.65 58.08, 59.37 59.37 C58.08 60.65, 56.68 61.84, 55.22 62.91 C53.75 63.98, 52.18 64.94, 50.56 65.76 C48.95 66.58, 47.25 67.29, 45.52 67.85 C43.8 68.41, 42.01 68.84, 40.22 69.12 C38.42 69.41, 36.59 69.55, 34.78 69.55 C32.96 69.55, 31.13 69.41, 29.34 69.12 C27.54 68.84, 25.75 68.41, 24.03 67.85 C22.3 67.29, 20.6 66.58, 18.99 65.76 C17.37 64.94, 15.8 63.98, 14.33 62.91 C12.87 61.84, 11.47 60.65, 10.19 59.37 C8.9 58.08, 7.71 56.68, 6.64 55.22 C5.58 53.75, 4.61 52.18, 3.79 50.56 C2.97 48.95, 2.26 47.25, 1.7 45.52 C1.14 43.8, 0.71 42.01, 0.43 40.22 C0.14 38.42, 0 36.59, 0 34.78 C0 32.96, 0.14 31.13, 0.43 29.34 C0.71 27.54, 1.14 25.75, 1.7 24.03 C2.26 22.3, 2.97 20.6, 3.79 18.99 C4.61 17.37, 5.58 15.8, 6.64 14.33 C7.71 12.87, 8.9 11.47, 10.19 10.19 C11.47 8.9, 12.87 7.71, 14.33 6.64 C15.8 5.58, 17.37 4.61, 18.99 3.79 C20.6 2.97, 22.3 2.26, 24.03 1.7 C25.75 1.14, 27.54 0.71, 29.34 0.43 C31.13 0.14, 32.96 0, 34.78 0 C36.59 0, 38.42 0.14, 40.22 0.43 C42.01 0.71, 43.8 1.14, 45.52 1.7 C47.25 2.26, 48.95 2.97, 50.56 3.79 C52.18 4.61, 53.75 5.58, 55.22 6.64 C56.68 7.71, 58.08 8.9, 59.37 10.19 C60.65 11.47, 61.84 12.87, 62.91 14.33 C63.98 15.8, 64.94 17.37, 65.76 18.99 C66.58 20.6, 67.29 22.3, 67.85 24.03 C68.41 25.75, 68.84 27.54, 69.12 29.34 C69.41 31.13, 69.48 33.87, 69.55 34.78 C69.62 35.68, 69.62 33.87, 69.55 34.78" stroke="#E1E1E1" stroke-width="2" fill="none"></path></g><g stroke-linecap="round"><g transform="translate(70.97483050410926 90.55388879527209) rotate(0 16.77116761668492 122.5576727223015)"><path d="M0 0 C-2.35 0.89, -9.66 3.21, -14.09 5.31 C-18.53 7.41, -22.84 9.9, -26.6 12.6 C-30.36 15.31, -33.35 18.08, -36.65 21.55 C-39.94 25.02, -43.45 29.07, -46.39 33.44 C-49.32 37.82, -52.09 42.75, -54.23 47.81 C-56.38 52.87, -58.19 57.96, -59.25 63.82 C-60.3 69.68, -60.36 75.75, -60.57 82.96 C-60.79 90.17, -60.55 99.28, -60.54 107.07 C-60.53 114.86, -60.46 123.36, -60.52 129.69 C-60.58 136.03, -60.81 141.26, -60.88 145.1 C-60.94 148.95, -60.93 150.68, -60.91 152.77 C-60.89 154.86, -61.15 156.39, -60.76 157.65 C-60.37 158.91, -59.76 159.78, -58.59 160.33 C-57.41 160.89, -57.18 160.75, -53.71 160.98 C-50.23 161.22, -43.8 161.3, -37.73 161.76 C-31.66 162.22, -24.47 162.78, -17.29 163.75 C-10.12 164.71, -0.5 166.48, 5.31 167.56 C11.12 168.64, 13.37 169, 17.58 170.24 C21.8 171.48, 27.22 173.48, 30.59 175.02 C33.97 176.56, 36.37 178.01, 37.83 179.46 C39.29 180.92, 39.4 182.55, 39.36 183.74 C39.31 184.92, 38.93 185.68, 37.56 186.57 C36.19 187.46, 36.11 188.26, 31.12 189.08 C26.13 189.9, 13.59 190.78, 7.6 191.5 C1.6 192.22, -1.02 192.39, -4.86 193.39 C-8.69 194.38, -12.67 196.04, -15.43 197.47 C-18.19 198.9, -19.7 200.14, -21.41 201.97 C-23.13 203.79, -24.7 206.44, -25.72 208.43 C-26.73 210.42, -27.22 211.75, -27.49 213.89 C-27.77 216.03, -27.83 218.81, -27.34 221.27 C-26.85 223.73, -26 226.39, -24.54 228.64 C-23.07 230.9, -20.4 233.14, -18.55 234.81 C-16.7 236.47, -15.53 237.48, -13.45 238.61 C-11.38 239.75, -8.58 240.84, -6.1 241.62 C-3.62 242.39, -1.33 242.8, 1.41 243.27 C4.15 243.75, 7.64 244.21, 10.36 244.49 C13.09 244.77, 15.74 244.83, 17.74 244.93 C19.74 245.04, 21.14 245.34, 22.35 245.12 C23.56 244.89, 24.44 244.4, 25.03 243.58 C25.61 242.76, 25.98 241.21, 25.86 240.19 C25.74 239.16, 25.04 237.97, 24.32 237.45 C23.61 236.93, 23.19 237.2, 21.56 237.06 C19.93 236.91, 17.79 236.87, 14.56 236.57 C11.33 236.27, 5.61 235.91, 2.19 235.24 C-1.23 234.57, -3.45 233.67, -5.96 232.56 C-8.47 231.46, -10.92 230.22, -12.86 228.6 C-14.81 226.97, -16.61 224.86, -17.63 222.84 C-18.65 220.81, -19.16 218.65, -19.01 216.47 C-18.86 214.29, -18.09 211.65, -16.74 209.76 C-15.4 207.87, -13.33 206.45, -10.94 205.12 C-8.54 203.78, -5.91 202.63, -2.36 201.75 C1.18 200.87, 5.5 200.42, 10.33 199.83 C15.16 199.24, 22.17 198.78, 26.61 198.19 C31.04 197.59, 34.08 197.18, 36.94 196.27 C39.8 195.36, 42 194.32, 43.76 192.7 C45.52 191.08, 46.92 188.89, 47.53 186.54 C48.14 184.2, 48.46 181.08, 47.43 178.62 C46.4 176.16, 44.37 173.96, 41.34 171.78 C38.31 169.6, 33.93 167.35, 29.27 165.56 C24.61 163.77, 19.24 162.43, 13.38 161.05 C7.53 159.66, 0.37 158.29, -5.84 157.25 C-12.06 156.22, -18.43 155.47, -23.91 154.84 C-29.39 154.2, -34.68 153.86, -38.74 153.45 C-42.8 153.04, -46.15 152.62, -48.27 152.37 C-50.39 152.12, -50.92 152.46, -51.48 151.95 C-52.03 151.43, -51.58 151.63, -51.61 149.3 C-51.64 146.96, -51.66 148.07, -51.66 137.94 C-51.67 127.8, -51.7 99.56, -51.65 88.48 C-51.6 77.4, -51.85 76.59, -51.37 71.46 C-50.89 66.34, -49.95 61.9, -48.77 57.71 C-47.59 53.52, -46.15 49.98, -44.27 46.32 C-42.39 42.65, -39.3 38.35, -37.48 35.72 C-35.67 33.1, -34.89 32.24, -33.4 30.55 C-31.9 28.87, -29.47 26.26, -28.5 25.64 C-27.53 25.01, -28.09 26.3, -27.57 26.78 C-27.05 27.27, -26.87 27, -25.36 28.55 C-23.85 30.11, -21.19 33.45, -18.52 36.11 C-15.86 38.77, -12.1 41.85, -9.35 44.52 C-6.61 47.19, -4.88 49.28, -2.04 52.14 C0.81 54.99, 5.11 59.02, 7.73 61.63 C10.35 64.25, 12.16 66.23, 13.7 67.82 C15.24 69.41, 16.43 70.31, 16.97 71.18 C17.51 72.05, 16.96 70.48, 16.94 73.06 C16.92 75.63, 16.86 81.13, 16.84 86.61 C16.82 92.1, 16.84 100.39, 16.84 105.97 C16.84 111.54, 16.84 115.61, 16.84 120.05 C16.84 124.5, 16.84 128.9, 16.84 132.63 C16.84 136.37, 16.52 140.3, 16.84 142.46 C17.17 144.63, 17.87 145, 18.79 145.64 C19.71 146.28, 21.31 146.51, 22.36 146.31 C23.4 146.11, 24.49 145.24, 25.07 144.45 C25.64 143.67, 25.63 144.72, 25.81 141.61 C26 138.49, 26.11 133.19, 26.17 125.74 C26.24 118.29, 26.17 104.07, 26.17 96.91 C26.17 89.75, 26.19 86.72, 26.17 82.76 C26.16 78.81, 25.82 75.44, 26.1 73.17 C26.38 70.91, 26.35 71.06, 27.85 69.17 C29.34 67.28, 31.08 65.89, 35.05 61.84 C39.02 57.8, 46.98 49.58, 51.64 44.91 C56.3 40.24, 59.81 37.05, 63.01 33.83 C66.22 30.61, 69.33 26.87, 70.88 25.57 C72.44 24.26, 71.46 25.17, 72.34 26 C73.22 26.83, 74.67 28.73, 76.17 30.56 C77.66 32.4, 79.59 34.5, 81.33 37.01 C83.07 39.53, 85 42.45, 86.59 45.65 C88.18 48.86, 89.71 52.69, 90.88 56.26 C92.04 59.84, 92.97 64.22, 93.57 67.1 C94.16 69.98, 94.3 70.52, 94.45 73.55 C94.6 76.57, 94.45 79.61, 94.45 85.24 C94.45 90.86, 94.45 97.76, 94.45 107.32 C94.45 116.88, 94.45 135.15, 94.45 142.6 C94.45 150.05, 94.45 150.43, 94.45 152 M0 0 C-2.35 0.89, -9.66 3.21, -14.09 5.31 C-18.53 7.41, -22.84 9.9, -26.6 12.6 C-30.36 15.31, -33.35 18.08, -36.65 21.55 C-39.94 25.02, -43.45 29.07, -46.39 33.44 C-49.32 37.82, -52.09 42.75, -54.23 47.81 C-56.38 52.87, -58.19 57.96, -59.25 63.82 C-60.3 69.68, -60.36 75.75, -60.57 82.96 C-60.79 90.17, -60.55 99.28, -60.54 107.07 C-60.53 114.86, -60.46 123.36, -60.52 129.69 C-60.58 136.03, -60.81 141.26, -60.88 145.1 C-60.94 148.95, -60.93 150.68, -60.91 152.77 C-60.89 154.86, -61.15 156.39, -60.76 157.65 C-60.37 158.91, -59.76 159.78, -58.59 160.33 C-57.41 160.89, -57.18 160.75, -53.71 160.98 C-50.23 161.22, -43.8 161.3, -37.73 161.76 C-31.66 162.22, -24.47 162.78, -17.29 163.75 C-10.12 164.71, -0.5 166.48, 5.31 167.56 C11.12 168.64, 13.37 169, 17.58 170.24 C21.8 171.48, 27.22 173.48, 30.59 175.02 C33.97 176.56, 36.37 178.01, 37.83 179.46 C39.29 180.92, 39.4 182.55, 39.36 183.74 C39.31 184.92, 38.93 185.68, 37.56 186.57 C36.19 187.46, 36.11 188.26, 31.12 189.08 C26.13 189.9, 13.59 190.78, 7.6 191.5 C1.6 192.22, -1.02 192.39, -4.86 193.39 C-8.69 194.38, -12.67 196.04, -15.43 197.47 C-18.19 198.9, -19.7 200.14, -21.41 201.97 C-23.13 203.79, -24.7 206.44, -25.72 208.43 C-26.73 210.42, -27.22 211.75, -27.49 213.89 C-27.77 216.03, -27.83 218.81, -27.34 221.27 C-26.85 223.73, -26 226.39, -24.54 228.64 C-23.07 230.9, -20.4 233.14, -18.55 234.81 C-16.7 236.47, -15.53 237.48, -13.45 238.61 C-11.38 239.75, -8.58 240.84, -6.1 241.62 C-3.62 242.39, -1.33 242.8, 1.41 243.27 C4.15 243.75, 7.64 244.21, 10.36 244.49 C13.09 244.77, 15.74 244.83, 17.74 244.93 C19.74 245.04, 21.14 245.34, 22.35 245.12 C23.56 244.89, 24.44 244.4, 25.03 243.58 C25.61 242.76, 25.98 241.21, 25.86 240.19 C25.74 239.16, 25.04 237.97, 24.32 237.45 C23.61 236.93, 23.19 237.2, 21.56 237.06 C19.93 236.91, 17.79 236.87, 14.56 236.57 C11.33 236.27, 5.61 235.91, 2.19 235.24 C-1.23 234.57, -3.45 233.67, -5.96 232.56 C-8.47 231.46, -10.92 230.22, -12.86 228.6 C-14.81 226.97, -16.61 224.86, -17.63 222.84 C-18.65 220.81, -19.16 218.65, -19.01 216.47 C-18.86 214.29, -18.09 211.65, -16.74 209.76 C-15.4 207.87, -13.33 206.45, -10.94 205.12 C-8.54 203.78, -5.91 202.63, -2.36 201.75 C1.18 200.87, 5.5 200.42, 10.33 199.83 C15.16 199.24, 22.17 198.78, 26.61 198.19 C31.04 197.59, 34.08 197.18, 36.94 196.27 C39.8 195.36, 42 194.32, 43.76 192.7 C45.52 191.08, 46.92 188.89, 47.53 186.54 C48.14 184.2, 48.46 181.08, 47.43 178.62 C46.4 176.16, 44.37 173.96, 41.34 171.78 C38.31 169.6, 33.93 167.35, 29.27 165.56 C24.61 163.77, 19.24 162.43, 13.38 161.05 C7.53 159.66, 0.37 158.29, -5.84 157.25 C-12.06 156.22, -18.43 155.47, -23.91 154.84 C-29.39 154.2, -34.68 153.86, -38.74 153.45 C-42.8 153.04, -46.15 152.62, -48.27 152.37 C-50.39 152.12, -50.92 152.46, -51.48 151.95 C-52.03 151.43, -51.58 151.63, -51.61 149.3 C-51.64 146.96, -51.66 148.07, -51.66 137.94 C-51.67 127.8, -51.7 99.56, -51.65 88.48 C-51.6 77.4, -51.85 76.59, -51.37 71.46 C-50.89 66.34, -49.95 61.9, -48.77 57.71 C-47.59 53.52, -46.15 49.98, -44.27 46.32 C-42.39 42.65, -39.3 38.35, -37.48 35.72 C-35.67 33.1, -34.89 32.24, -33.4 30.55 C-31.9 28.87, -29.47 26.26, -28.5 25.64 C-27.53 25.01, -28.09 26.3, -27.57 26.78 C-27.05 27.27, -26.87 27, -25.36 28.55 C-23.85 30.11, -21.19 33.45, -18.52 36.11 C-15.86 38.77, -12.1 41.85, -9.35 44.52 C-6.61 47.19, -4.88 49.28, -2.04 52.14 C0.81 54.99, 5.11 59.02, 7.73 61.63 C10.35 64.25, 12.16 66.23, 13.7 67.82 C15.24 69.41, 16.43 70.31, 16.97 71.18 C17.51 72.05, 16.96 70.48, 16.94 73.06 C16.92 75.63, 16.86 81.13, 16.84 86.61 C16.82 92.1, 16.84 100.39, 16.84 105.97 C16.84 111.54, 16.84 115.61, 16.84 120.05 C16.84 124.5, 16.84 128.9, 16.84 132.63 C16.84 136.37, 16.52 140.3, 16.84 142.46 C17.17 144.63, 17.87 145, 18.79 145.64 C19.71 146.28, 21.31 146.51, 22.36 146.31 C23.4 146.11, 24.49 145.24, 25.07 144.45 C25.64 143.67, 25.63 144.72, 25.81 141.61 C26 138.49, 26.11 133.19, 26.17 125.74 C26.24 118.29, 26.17 104.07, 26.17 96.91 C26.17 89.75, 26.19 86.72, 26.17 82.76 C26.16 78.81, 25.82 75.44, 26.1 73.17 C26.38 70.91, 26.35 71.06, 27.85 69.17 C29.34 67.28, 31.08 65.89, 35.05 61.84 C39.02 57.8, 46.98 49.58, 51.64 44.91 C56.3 40.24, 59.81 37.05, 63.01 33.83 C66.22 30.61, 69.33 26.87, 70.88 25.57 C72.44 24.26, 71.46 25.17, 72.34 26 C73.22 26.83, 74.67 28.73, 76.17 30.56 C77.66 32.4, 79.59 34.5, 81.33 37.01 C83.07 39.53, 85 42.45, 86.59 45.65 C88.18 48.86, 89.71 52.69, 90.88 56.26 C92.04 59.84, 92.97 64.22, 93.57 67.1 C94.16 69.98, 94.3 70.52, 94.45 73.55 C94.6 76.57, 94.45 79.61, 94.45 85.24 C94.45 90.86, 94.45 97.76, 94.45 107.32 C94.45 116.88, 94.45 135.15, 94.45 142.6 C94.45 150.05, 94.45 150.43, 94.45 152" stroke="#E1E1E1" stroke-width="2" fill="none"></path></g></g><mask></mask><g stroke-linecap="round"><g stroke-opacity="0.6" fill-opacity="0.6" transform="translate(165.61424902569973 242.50779718720014) rotate(0 -10.242495142282934 0)"><path d="M0 0 C-3.41 0, -17.07 0, -20.48 0 M0 0 C-3.41 0, -17.07 0, -20.48 0" stroke="#E1E1E1" stroke-width="2" fill="none"></path></g></g><mask></mask><g stroke-linecap="round"><g transform="translate(76.62140729375767 137.88709550138992) rotate(0 15.710650751188666 -13.17620491018647)"><path d="M0 0 C-2.57 -2.52, -11.64 -11.46, -15.39 -15.13 C-19.14 -18.81, -20.57 -20.13, -22.51 -22.06 C-24.45 -23.98, -26.41 -25.69, -27.03 -26.69 C-27.65 -27.69, -27.55 -27.07, -26.22 -28.07 C-24.9 -29.07, -22.24 -31.08, -19.09 -32.68 C-15.93 -34.28, -10.68 -36.41, -7.29 -37.66 C-3.91 -38.91, -1.86 -39.53, 1.21 -40.18 C4.28 -40.82, 7.57 -41.31, 11.14 -41.52 C14.71 -41.73, 18.75 -41.8, 22.62 -41.42 C26.48 -41.04, 31.06 -40.05, 34.31 -39.25 C37.56 -38.45, 39.3 -37.83, 42.11 -36.64 C44.92 -35.44, 48.45 -33.49, 51.17 -32.08 C53.89 -30.68, 57.26 -29.08, 58.45 -28.2 C59.64 -27.33, 59.07 -27.85, 58.31 -26.83 C57.54 -25.82, 57.5 -25.82, 53.85 -22.12 C50.2 -18.41, 41.08 -9.24, 36.39 -4.6 C31.69 0.03, 28.99 2.38, 25.69 5.68 C22.38 8.98, 18.35 13.61, 16.57 15.17 C14.79 16.72, 15.91 15.62, 15 15 C14.1 14.38, 13 13.31, 11.16 11.46 C9.32 9.62, 5.82 5.86, 3.96 3.95 C2.1 2.04, 0.66 0.66, 0 0 M0 0 C-2.57 -2.52, -11.64 -11.46, -15.39 -15.13 C-19.14 -18.81, -20.57 -20.13, -22.51 -22.06 C-24.45 -23.98, -26.41 -25.69, -27.03 -26.69 C-27.65 -27.69, -27.55 -27.07, -26.22 -28.07 C-24.9 -29.07, -22.24 -31.08, -19.09 -32.68 C-15.93 -34.28, -10.68 -36.41, -7.29 -37.66 C-3.91 -38.91, -1.86 -39.53, 1.21 -40.18 C4.28 -40.82, 7.57 -41.31, 11.14 -41.52 C14.71 -41.73, 18.75 -41.8, 22.62 -41.42 C26.48 -41.04, 31.06 -40.05, 34.31 -39.25 C37.56 -38.45, 39.3 -37.83, 42.11 -36.64 C44.92 -35.44, 48.45 -33.49, 51.17 -32.08 C53.89 -30.68, 57.26 -29.08, 58.45 -28.2 C59.64 -27.33, 59.07 -27.85, 58.31 -26.83 C57.54 -25.82, 57.5 -25.82, 53.85 -22.12 C50.2 -18.41, 41.08 -9.24, 36.39 -4.6 C31.69 0.03, 28.99 2.38, 25.69 5.68 C22.38 8.98, 18.35 13.61, 16.57 15.17 C14.79 16.72, 15.91 15.62, 15 15 C14.1 14.38, 13 13.31, 11.16 11.46 C9.32 9.62, 5.82 5.86, 3.96 3.95 C2.1 2.04, 0.66 0.66, 0 0" stroke="#E1E1E1" stroke-width="2" fill="none"></path></g></g><mask></mask><g stroke-linecap="round"><g transform="translate(41.01527186165583 196.91615459408126) rotate(0 4.106494514431745 -0.20343227057696822)"><path d="M0 0 C0 -3.03, 0 -13.85, 0 -18.17 C0 -22.48, -0.04 -24.21, 0 -25.88 C0.04 -27.54, -0.06 -27.47, 0.24 -28.15 C0.53 -28.84, 1.13 -29.54, 1.78 -29.97 C2.43 -30.41, 3.34 -30.77, 4.13 -30.75 C4.92 -30.72, 5.87 -30.28, 6.53 -29.83 C7.19 -29.39, 7.8 -28.89, 8.09 -28.09 C8.39 -27.29, 8.25 -27.57, 8.28 -25.03 C8.31 -22.49, 8.28 -19.86, 8.28 -12.83 C8.28 -5.79, 8.28 11.01, 8.28 17.19 C8.28 23.37, 8.34 22.5, 8.28 24.25 C8.21 25.99, 8.32 26.71, 7.88 27.68 C7.44 28.65, 6.45 29.62, 5.66 30.07 C4.87 30.51, 3.92 30.51, 3.14 30.34 C2.36 30.17, 1.5 29.61, 0.97 29.04 C0.45 28.48, 0.16 28.16, -0.01 26.95 C-0.18 25.75, -0.07 26.3, -0.07 21.81 C-0.06 17.31, -0.01 3.63, 0 0 M0 0 C0 -3.03, 0 -13.85, 0 -18.17 C0 -22.48, -0.04 -24.21, 0 -25.88 C0.04 -27.54, -0.06 -27.47, 0.24 -28.15 C0.53 -28.84, 1.13 -29.54, 1.78 -29.97 C2.43 -30.41, 3.34 -30.77, 4.13 -30.75 C4.92 -30.72, 5.87 -30.28, 6.53 -29.83 C7.19 -29.39, 7.8 -28.89, 8.09 -28.09 C8.39 -27.29, 8.25 -27.57, 8.28 -25.03 C8.31 -22.49, 8.28 -19.86, 8.28 -12.83 C8.28 -5.79, 8.28 11.01, 8.28 17.19 C8.28 23.37, 8.34 22.5, 8.28 24.25 C8.21 25.99, 8.32 26.71, 7.88 27.68 C7.44 28.65, 6.45 29.62, 5.66 30.07 C4.87 30.51, 3.92 30.51, 3.14 30.34 C2.36 30.17, 1.5 29.61, 0.97 29.04 C0.45 28.48, 0.16 28.16, -0.01 26.95 C-0.18 25.75, -0.07 26.3, -0.07 21.81 C-0.06 17.31, -0.01 3.63, 0 0" stroke="#E1E1E1" stroke-width="2" fill="none"></path></g></g><mask></mask></svg>