<svg version="1.1" xmlns="http://www.w3.org/2000/svg" viewBox="0 0 642.5957053102109 869.1171849081343" width="642.5957053102109" height="869.1171849081343" class="excalidraw-svg">
  <!-- svg-source:excalidraw -->
  
  <defs>
    <style class="style-fonts">
      
    </style>
    
  </defs>
  <rect x="0" y="0" width="642.5957053102109" height="869.1171849081343" fill="#000000"></rect><g stroke-linecap="round"><g transform="translate(165.4636900210719 398.7058959691867) rotate(0 49.518142922690345 0)"><path d="M0 0 C34.83 0, 69.66 0, 99.04 0 M0 0 C22.37 0, 44.74 0, 99.04 0" stroke="#b3a2fa" stroke-width="4" fill="none"></path></g></g><mask></mask><g stroke-linecap="round"><g transform="translate(322.83974337400446 856.9197542842276) rotate(0 -0.44363959311590406 -23.121915547853405)" fill-rule="evenodd"><path d="M0 0 L-33.14 -48.44 L32.25 -48.44 L3.02 2.2" stroke="none" stroke-width="0" fill="#e1e1e1" fill-rule="evenodd"></path><path d="M0 0 C-12.82 -18.74, -25.64 -37.48, -33.14 -48.44 M0 0 C-7.69 -11.24, -15.38 -22.48, -33.14 -48.44 M-33.14 -48.44 C-8.15 -48.44, 16.84 -48.44, 32.25 -48.44 M-33.14 -48.44 C-19.26 -48.44, -5.38 -48.44, 32.25 -48.44 M32.25 -48.44 C22.88 -32.21, 13.51 -15.98, 3.02 2.2 M32.25 -48.44 C20.86 -28.71, 9.47 -8.99, 3.02 2.2 M3.02 2.2 C2.27 1.65, 1.52 1.11, 0 0 M3.02 2.2 C2.33 1.69, 1.64 1.19, 0 0" stroke="#E1E1E1" stroke-width="4" fill="none"></path></g></g><mask></mask><g stroke-linecap="round"><g transform="translate(280.011249785329 786.225603301732) rotate(0 42.083183736235014 -36.33227961678949)"><path d="M0 0 C0 -4.95, 0 -9.89, 0 -24.07 M0 0 C0 -5.52, 0 -11.04, 0 -24.07 M0 -24.07 C23 -37.35, 45.99 -50.62, 84.17 -72.66 M0 -24.07 C30.84 -41.88, 61.68 -59.68, 84.17 -72.66 M84.17 -72.66 C84.17 -48.22, 84.17 -23.77, 84.17 -0.24 M84.17 -72.66 C84.17 -44.12, 84.17 -15.58, 84.17 -0.24 M84.17 -0.24 C53.56 -0.15, 22.95 -0.06, 0 0 M84.17 -0.24 C65.78 -0.18, 47.4 -0.13, 0 0" stroke="#E1E1E1" stroke-width="4" fill="none"></path></g></g><mask></mask><g stroke-linecap="round"><g transform="translate(279.96943129909687 738.1434351052351) rotate(0 42.22311972315845 -45.98450500822855)" fill-rule="evenodd"><path d="M0 0 L0 -43.21 L84.45 -91.97 L84.45 -44.25 L0 0" stroke="none" stroke-width="0" fill="#e1e1e1" fill-rule="evenodd"></path><path d="M0 0 C0 -16.84, 0 -33.69, 0 -43.21 M0 0 C0 -14.52, 0 -29.04, 0 -43.21 M0 -43.21 C26.57 -58.56, 53.14 -73.9, 84.45 -91.97 M0 -43.21 C24.85 -57.56, 49.71 -71.91, 84.45 -91.97 M84.45 -91.97 C84.45 -75.4, 84.45 -58.82, 84.45 -44.25 M84.45 -91.97 C84.45 -73.82, 84.45 -55.67, 84.45 -44.25 M84.45 -44.25 C55.35 -29.01, 26.26 -13.76, 0 0 M84.45 -44.25 C65.89 -34.53, 47.34 -24.81, 0 0 M0 0 C0 0, 0 0, 0 0 M0 0 C0 0, 0 0, 0 0" stroke="#E1E1E1" stroke-width="4" fill="none"></path></g></g><mask></mask><g stroke-linecap="round"><g transform="translate(280.03852271113783 670.6874895134729) rotate(0 42.04576061803664 -243.61359156967342)"><path d="M0 0 C0 -176.53, 0 -353.06, 0 -487.23 M0 0 C0 -149.6, 0 -299.2, 0 -487.23 M0 -487.23 C25.25 -487.23, 50.5 -487.23, 84.09 -487.23 M0 -487.23 C26.52 -487.23, 53.05 -487.23, 84.09 -487.23 M84.09 -487.23 C84.09 -368.93, 84.09 -250.63, 84.09 -45.77 M84.09 -487.23 C84.09 -385.95, 84.09 -284.67, 84.09 -45.77 M84.09 -45.77 C60.07 -32.7, 36.05 -19.62, 0 0 M84.09 -45.77 C52.79 -28.73, 21.48 -11.69, 0 0" stroke="#E1E1E1" stroke-width="4" fill="none"></path></g></g><mask></mask><g stroke-linecap="round"><g transform="translate(280.48761688941136 134.67540578935404) rotate(0 41.97439646217799 12.572818796701767)" fill-rule="evenodd"><path d="M0 0 L0 25.26 L83.95 25.26 L83.95 -0.12 L0 0" stroke="none" stroke-width="0" fill="#e1e1e1" fill-rule="evenodd"></path><path d="M0 0 C0 7.31, 0 14.63, 0 25.26 M0 0 C0 9.59, 0 19.19, 0 25.26 M0 25.26 C24.3 25.26, 48.59 25.26, 83.95 25.26 M0 25.26 C30.23 25.26, 60.46 25.26, 83.95 25.26 M83.95 25.26 C83.95 17.52, 83.95 9.78, 83.95 -0.12 M83.95 25.26 C83.95 18.63, 83.95 11.99, 83.95 -0.12 M83.95 -0.12 C59.44 -0.08, 34.93 -0.05, 0 0 M83.95 -0.12 C51.8 -0.07, 19.65 -0.03, 0 0 M0 0 C0 0, 0 0, 0 0 M0 0 C0 0, 0 0, 0 0" stroke="#E1E1E1" stroke-width="4" fill="none"></path></g></g><mask></mask><g stroke-linecap="round"><g transform="translate(280.0603410517756 112.8861562651764) rotate(0 41.79907393229507 -51.36855575615607)"><path d="M0 0 C0 -6.99, 0 -31.05, 0 -41.94 C0 -52.82, -0.99 -58.66, 0 -65.31 C0.99 -71.96, 3.15 -77.01, 5.93 -81.83 C8.71 -86.64, 12.5 -90.98, 16.67 -94.22 C20.84 -97.45, 25.89 -99.81, 30.93 -101.24 C35.96 -102.66, 41.69 -103.17, 46.87 -102.74 C52.04 -102.3, 57.28 -101.14, 62 -98.64 C66.72 -96.13, 71.84 -91.95, 75.19 -87.7 C78.54 -83.46, 80.79 -78.39, 82.11 -73.17 C83.42 -67.95, 82.84 -63.57, 83.09 -56.4 C83.33 -49.23, 83.52 -38.83, 83.6 -30.15 C83.68 -21.46, 84.04 -9.06, 83.55 -4.28 C83.06 0.5, 83.86 -1.97, 80.66 -1.47 C77.47 -0.96, 74.03 -1.42, 64.36 -1.25 C54.69 -1.07, 33.38 -0.63, 22.66 -0.42 C11.93 -0.22, 3.78 -0.07, 0 0 M0 0 C0 -6.99, 0 -31.05, 0 -41.94 C0 -52.82, -0.99 -58.66, 0 -65.31 C0.99 -71.96, 3.15 -77.01, 5.93 -81.83 C8.71 -86.64, 12.5 -90.98, 16.67 -94.22 C20.84 -97.45, 25.89 -99.81, 30.93 -101.24 C35.96 -102.66, 41.69 -103.17, 46.87 -102.74 C52.04 -102.3, 57.28 -101.14, 62 -98.64 C66.72 -96.13, 71.84 -91.95, 75.19 -87.7 C78.54 -83.46, 80.79 -78.39, 82.11 -73.17 C83.42 -67.95, 82.84 -63.57, 83.09 -56.4 C83.33 -49.23, 83.52 -38.83, 83.6 -30.15 C83.68 -21.46, 84.04 -9.06, 83.55 -4.28 C83.06 0.5, 83.86 -1.97, 80.66 -1.47 C77.47 -0.96, 74.03 -1.42, 64.36 -1.25 C54.69 -1.07, 33.38 -0.63, 22.66 -0.42 C11.93 -0.22, 3.78 -0.07, 0 0" stroke="#E1E1E1" stroke-width="4" fill="none"></path></g></g><mask></mask><g stroke-linecap="round"><g transform="translate(166.01519721450222 451.3816065204901) rotate(0 49.518142922690345 0)"><path d="M0 0 C30.69 0, 61.38 0, 99.04 0 M0 0 C37.3 0, 74.61 0, 99.04 0" stroke="#9e75ed" stroke-width="4" fill="none"></path></g></g><mask></mask><g stroke-linecap="round"><g transform="translate(165.15491676464603 502.300040480603) rotate(0 49.518142922690345 0)"><path d="M0 0 C37.84 0, 75.69 0, 99.04 0 M0 0 C21.02 0, 42.04 0, 99.04 0" stroke="#5e34b0" stroke-width="4" fill="none"></path></g></g><mask></mask><g stroke-linecap="round"><g transform="translate(381.8758849280814 399.81316527376407) rotate(0 49.518142922690345 0)"><path d="M0 0 C27.06 0, 54.12 0, 99.04 0 M0 0 C36.29 0, 72.57 0, 99.04 0" stroke="#b3a2fa" stroke-width="4" fill="none"></path></g></g><mask></mask><g stroke-linecap="round"><g transform="translate(382.7786221038689 450.36222352985305) rotate(0 49.518142922690345 0)"><path d="M0 0 C31.16 0, 62.32 0, 99.04 0 M0 0 C29.15 0, 58.3 0, 99.04 0" stroke="#9e75ed" stroke-width="4" fill="none"></path></g></g><mask></mask><g stroke-linecap="round"><g transform="translate(382.8653567254137 501.2368977440526) rotate(0 49.518142922690345 0)"><path d="M0 0 C29.74 0, 59.47 0, 99.04 0 M0 0 C31.24 0, 62.47 0, 99.04 0" stroke="#5e34b0" stroke-width="4" fill="none"></path></g></g><mask></mask><g stroke-linecap="round"><g transform="translate(42.42307659193034 411.75058161255083) rotate(0 0 1.0045899840400807)"><path d="M0 0 C0.05 0.64, -0.07 1.14, 0 2.01 M0 0 C0.03 0.4, -0.02 0.85, 0 2.01" stroke="#E1E1E1" stroke-width="2" fill="none"></path></g></g><mask></mask><g stroke-linecap="round"><g transform="translate(42.54911713478191 411.71277018570777) rotate(0 47.664849461141216 -107.10090515524212)"><path d="M0 0 C0.97 -0.37, 3.92 -1.42, 5.83 -2.19 C7.74 -2.97, 9.6 -3.71, 11.45 -4.64 C13.3 -5.57, 15.11 -6.63, 16.92 -7.77 C18.74 -8.91, 20.64 -10.17, 22.34 -11.48 C24.03 -12.79, 25.57 -14.11, 27.1 -15.63 C28.63 -17.15, 30.14 -18.79, 31.51 -20.59 C32.88 -22.39, 34.2 -24.4, 35.34 -26.43 C36.48 -28.45, 37.45 -30.35, 38.37 -32.72 C39.29 -35.08, 40.16 -37.99, 40.86 -40.6 C41.55 -43.21, 42.08 -45.46, 42.54 -48.35 C43.01 -51.24, 43.38 -54.43, 43.65 -57.95 C43.93 -61.47, 44.11 -65.21, 44.21 -69.46 C44.3 -73.71, 44.24 -77.87, 44.23 -83.46 C44.22 -89.05, 44.17 -97.16, 44.16 -103 C44.15 -108.85, 44.16 -112.37, 44.16 -118.53 C44.16 -124.7, 44.16 -133.01, 44.16 -139.98 C44.16 -146.96, 44.06 -155.27, 44.16 -160.4 C44.26 -165.53, 44.39 -167.37, 44.76 -170.77 C45.14 -174.17, 45.67 -177.69, 46.4 -180.81 C47.14 -183.94, 48.29 -187.24, 49.18 -189.53 C50.07 -191.83, 50.76 -192.97, 51.76 -194.58 C52.77 -196.2, 54.14 -197.93, 55.22 -199.21 C56.3 -200.48, 57.09 -201.24, 58.25 -202.23 C59.41 -203.21, 60.66 -204.17, 62.16 -205.12 C63.67 -206.06, 65.61 -207.09, 67.3 -207.9 C69 -208.71, 70.55 -209.34, 72.35 -209.96 C74.14 -210.58, 76.14 -211.14, 78.06 -211.61 C79.98 -212.09, 81.72 -212.45, 83.87 -212.82 C86.03 -213.18, 89.08 -213.58, 90.99 -213.81 C92.9 -214.04, 94.61 -214.14, 95.33 -214.2 M0 0 C0.97 -0.37, 3.92 -1.42, 5.83 -2.19 C7.74 -2.97, 9.6 -3.71, 11.45 -4.64 C13.3 -5.57, 15.11 -6.63, 16.92 -7.77 C18.74 -8.91, 20.64 -10.17, 22.34 -11.48 C24.03 -12.79, 25.57 -14.11, 27.1 -15.63 C28.63 -17.15, 30.14 -18.79, 31.51 -20.59 C32.88 -22.39, 34.2 -24.4, 35.34 -26.43 C36.48 -28.45, 37.45 -30.35, 38.37 -32.72 C39.29 -35.08, 40.16 -37.99, 40.86 -40.6 C41.55 -43.21, 42.08 -45.46, 42.54 -48.35 C43.01 -51.24, 43.38 -54.43, 43.65 -57.95 C43.93 -61.47, 44.11 -65.21, 44.21 -69.46 C44.3 -73.71, 44.24 -77.87, 44.23 -83.46 C44.22 -89.05, 44.17 -97.16, 44.16 -103 C44.15 -108.85, 44.16 -112.37, 44.16 -118.53 C44.16 -124.7, 44.16 -133.01, 44.16 -139.98 C44.16 -146.96, 44.06 -155.27, 44.16 -160.4 C44.26 -165.53, 44.39 -167.37, 44.76 -170.77 C45.14 -174.17, 45.67 -177.69, 46.4 -180.81 C47.14 -183.94, 48.29 -187.24, 49.18 -189.53 C50.07 -191.83, 50.76 -192.97, 51.76 -194.58 C52.77 -196.2, 54.14 -197.93, 55.22 -199.21 C56.3 -200.48, 57.09 -201.24, 58.25 -202.23 C59.41 -203.21, 60.66 -204.17, 62.16 -205.12 C63.67 -206.06, 65.61 -207.09, 67.3 -207.9 C69 -208.71, 70.55 -209.34, 72.35 -209.96 C74.14 -210.58, 76.14 -211.14, 78.06 -211.61 C79.98 -212.09, 81.72 -212.45, 83.87 -212.82 C86.03 -213.18, 89.08 -213.58, 90.99 -213.81 C92.9 -214.04, 94.61 -214.14, 95.33 -214.2" stroke="#E1E1E1" stroke-width="2" fill="none"></path></g></g><mask></mask><g stroke-linecap="round"><g transform="translate(138.000953588034 179.27982305493242) rotate(0 0 9.104964253732419)"><path d="M0 0 C0 3.03, 0 15.17, 0 18.21 M0 0 C0 3.03, 0 15.17, 0 18.21" stroke="#E1E1E1" stroke-width="2" fill="none"></path></g></g><mask></mask><g stroke-linecap="round"><g transform="translate(137.84839794800314 179.2314099895757) rotate(0 -63.889056692637496 112.25479866706303)"><path d="M0 0 C-1.56 0.03, -6.21 0.1, -9.35 0.18 C-12.49 0.26, -16.17 0.37, -18.82 0.48 C-21.47 0.59, -23.36 0.71, -25.23 0.84 C-27.1 0.98, -28.4 1.08, -30.05 1.28 C-31.71 1.48, -32.98 1.61, -35.16 2.04 C-37.34 2.47, -40.62 3.13, -43.14 3.86 C-45.67 4.6, -48.35 5.65, -50.33 6.46 C-52.31 7.27, -53.39 7.78, -55.02 8.72 C-56.65 9.65, -58.43 10.75, -60.1 12.06 C-61.78 13.37, -63.64 15.1, -65.09 16.58 C-66.54 18.06, -67.56 19.16, -68.81 20.93 C-70.06 22.7, -71.5 25.14, -72.59 27.2 C-73.67 29.26, -74.45 30.97, -75.31 33.31 C-76.18 35.65, -77.07 38.52, -77.8 41.23 C-78.53 43.95, -79.13 45.99, -79.71 49.59 C-80.29 53.19, -80.9 57.69, -81.27 62.83 C-81.65 67.96, -81.83 74.98, -81.94 80.42 C-82.06 85.87, -81.98 89.49, -81.98 95.48 C-81.99 101.47, -81.98 106.58, -81.98 116.37 C-81.98 126.16, -81.98 144.89, -81.98 154.23 C-81.98 163.57, -81.94 168.02, -81.98 172.39 C-82.03 176.76, -82.02 177.74, -82.26 180.45 C-82.5 183.15, -82.8 185.97, -83.42 188.62 C-84.04 191.28, -84.92 194, -85.98 196.4 C-87.04 198.8, -88.31 200.98, -89.78 203.03 C-91.25 205.09, -92.9 206.91, -94.82 208.73 C-96.74 210.55, -98.84 212.32, -101.3 213.96 C-103.77 215.61, -106.64 217.23, -109.61 218.6 C-112.58 219.96, -116.09 221.18, -119.12 222.16 C-122.15 223.15, -126.33 224.12, -127.78 224.51 M0 0 C-1.56 0.03, -6.21 0.1, -9.35 0.18 C-12.49 0.26, -16.17 0.37, -18.82 0.48 C-21.47 0.59, -23.36 0.71, -25.23 0.84 C-27.1 0.98, -28.4 1.08, -30.05 1.28 C-31.71 1.48, -32.98 1.61, -35.16 2.04 C-37.34 2.47, -40.62 3.13, -43.14 3.86 C-45.67 4.6, -48.35 5.65, -50.33 6.46 C-52.31 7.27, -53.39 7.78, -55.02 8.72 C-56.65 9.65, -58.43 10.75, -60.1 12.06 C-61.78 13.37, -63.64 15.1, -65.09 16.58 C-66.54 18.06, -67.56 19.16, -68.81 20.93 C-70.06 22.7, -71.5 25.14, -72.59 27.2 C-73.67 29.26, -74.45 30.97, -75.31 33.31 C-76.18 35.65, -77.07 38.52, -77.8 41.23 C-78.53 43.95, -79.13 45.99, -79.71 49.59 C-80.29 53.19, -80.9 57.69, -81.27 62.83 C-81.65 67.96, -81.83 74.98, -81.94 80.42 C-82.06 85.87, -81.98 89.49, -81.98 95.48 C-81.99 101.47, -81.98 106.58, -81.98 116.37 C-81.98 126.16, -81.98 144.89, -81.98 154.23 C-81.98 163.57, -81.94 168.02, -81.98 172.39 C-82.03 176.76, -82.02 177.74, -82.26 180.45 C-82.5 183.15, -82.8 185.97, -83.42 188.62 C-84.04 191.28, -84.92 194, -85.98 196.4 C-87.04 198.8, -88.31 200.98, -89.78 203.03 C-91.25 205.09, -92.9 206.91, -94.82 208.73 C-96.74 210.55, -98.84 212.32, -101.3 213.96 C-103.77 215.61, -106.64 217.23, -109.61 218.6 C-112.58 219.96, -116.09 221.18, -119.12 222.16 C-122.15 223.15, -126.33 224.12, -127.78 224.51" stroke="#E1E1E1" stroke-width="2" fill="none"></path></g></g><mask></mask><g stroke-linecap="round"><g transform="translate(10.016500916166478 403.75221549317325) rotate(0 0 9.010200737540004)"><path d="M0 0 C0 3, 0 15.02, 0 18.02 M0 0 C0 3, 0 15.02, 0 18.02" stroke="#E1E1E1" stroke-width="2" fill="none"></path></g></g><mask></mask><g stroke-linecap="round"><g transform="translate(10 421.77744270788685) rotate(0 63.912251376682434 112.16657324972834)"><path d="M0 0 C0.75 0.19, 2.52 0.54, 4.52 1.11 C6.53 1.68, 9.69 2.59, 12.02 3.41 C14.35 4.22, 16.45 5.03, 18.51 5.99 C20.57 6.94, 22.34 7.85, 24.36 9.13 C26.38 10.41, 28.79 12.14, 30.62 13.66 C32.45 15.18, 33.95 16.73, 35.36 18.24 C36.76 19.76, 37.91 21.04, 39.03 22.78 C40.15 24.51, 41.26 26.71, 42.08 28.66 C42.91 30.6, 43.45 32.19, 44 34.45 C44.55 36.7, 45.08 39.71, 45.38 42.19 C45.68 44.68, 45.7 46.58, 45.8 49.36 C45.9 52.15, 45.96 54.78, 45.99 58.89 C46.02 63, 45.99 68.4, 45.99 73.99 C45.99 79.58, 45.99 86.94, 45.99 92.43 C45.99 97.92, 45.99 101.51, 45.99 106.93 C45.99 112.35, 45.99 117.72, 45.99 124.95 C45.99 132.18, 45.83 143.35, 45.99 150.31 C46.15 157.27, 46.47 162, 46.95 166.71 C47.42 171.42, 48.11 174.99, 48.85 178.57 C49.59 182.14, 50.17 184.74, 51.38 188.16 C52.58 191.57, 54.32 195.87, 56.07 199.04 C57.82 202.2, 59.56 204.65, 61.88 207.17 C64.19 209.68, 66.9 212.08, 69.94 214.11 C72.99 216.13, 76.22 217.89, 80.15 219.32 C84.07 220.75, 88.92 221.89, 93.5 222.69 C98.08 223.49, 103.25 223.86, 107.61 224.13 C111.98 224.41, 116.34 224.3, 119.7 224.33 C123.07 224.37, 126.47 224.33, 127.82 224.33 M0 0 C0.75 0.19, 2.52 0.54, 4.52 1.11 C6.53 1.68, 9.69 2.59, 12.02 3.41 C14.35 4.22, 16.45 5.03, 18.51 5.99 C20.57 6.94, 22.34 7.85, 24.36 9.13 C26.38 10.41, 28.79 12.14, 30.62 13.66 C32.45 15.18, 33.95 16.73, 35.36 18.24 C36.76 19.76, 37.91 21.04, 39.03 22.78 C40.15 24.51, 41.26 26.71, 42.08 28.66 C42.91 30.6, 43.45 32.19, 44 34.45 C44.55 36.7, 45.08 39.71, 45.38 42.19 C45.68 44.68, 45.7 46.58, 45.8 49.36 C45.9 52.15, 45.96 54.78, 45.99 58.89 C46.02 63, 45.99 68.4, 45.99 73.99 C45.99 79.58, 45.99 86.94, 45.99 92.43 C45.99 97.92, 45.99 101.51, 45.99 106.93 C45.99 112.35, 45.99 117.72, 45.99 124.95 C45.99 132.18, 45.83 143.35, 45.99 150.31 C46.15 157.27, 46.47 162, 46.95 166.71 C47.42 171.42, 48.11 174.99, 48.85 178.57 C49.59 182.14, 50.17 184.74, 51.38 188.16 C52.58 191.57, 54.32 195.87, 56.07 199.04 C57.82 202.2, 59.56 204.65, 61.88 207.17 C64.19 209.68, 66.9 212.08, 69.94 214.11 C72.99 216.13, 76.22 217.89, 80.15 219.32 C84.07 220.75, 88.92 221.89, 93.5 222.69 C98.08 223.49, 103.25 223.86, 107.61 224.13 C111.98 224.41, 116.34 224.3, 119.7 224.33 C123.07 224.37, 126.47 224.33, 127.82 224.33" stroke="#E1E1E1" stroke-width="2" fill="none"></path></g></g><mask></mask><g stroke-linecap="round"><g transform="translate(137.87836423443673 646.1179834858146) rotate(0 0 -8.97501953892072)"><path d="M0 0 C0 -2.99, 0 -14.96, 0 -17.95 M0 0 C0 -2.99, 0 -14.96, 0 -17.95" stroke="#E1E1E1" stroke-width="2" fill="none"></path></g></g><mask></mask><g stroke-linecap="round"><g transform="translate(137.81360592193414 628.0764888584649) rotate(0 -47.680603698215236 -107.0777140543114)"><path d="M0 0 C-0.64 -0.04, -2.36 -0.09, -3.87 -0.24 C-5.37 -0.39, -6.92 -0.54, -9.04 -0.88 C-11.16 -1.22, -14 -1.67, -16.58 -2.29 C-19.17 -2.92, -22.2 -3.78, -24.55 -4.65 C-26.9 -5.52, -28.96 -6.6, -30.68 -7.51 C-32.4 -8.41, -33.46 -9.02, -34.86 -10.08 C-36.27 -11.15, -37.88 -12.61, -39.12 -13.9 C-40.37 -15.18, -41.34 -16.38, -42.33 -17.82 C-43.32 -19.26, -44.16 -20.56, -45.06 -22.55 C-45.97 -24.53, -46.99 -27.14, -47.76 -29.72 C-48.53 -32.31, -49.22 -35.18, -49.68 -38.06 C-50.15 -40.95, -50.33 -43.91, -50.54 -47.02 C-50.76 -50.14, -50.87 -52.28, -50.97 -56.75 C-51.07 -61.22, -51.1 -67.52, -51.12 -73.84 C-51.15 -80.16, -51.12 -87.71, -51.12 -94.68 C-51.12 -101.65, -51.12 -108.01, -51.12 -115.66 C-51.12 -123.3, -51.1 -134.78, -51.12 -140.56 C-51.15 -146.35, -51.13 -147.25, -51.27 -150.36 C-51.41 -153.48, -51.65 -156.36, -51.96 -159.25 C-52.27 -162.14, -52.76 -165.35, -53.14 -167.68 C-53.51 -170.02, -53.64 -171.09, -54.22 -173.25 C-54.8 -175.42, -55.92 -178.77, -56.63 -180.69 C-57.33 -182.61, -57.57 -183.09, -58.45 -184.8 C-59.32 -186.51, -60.72 -189.16, -61.86 -190.94 C-63 -192.73, -63.72 -193.79, -65.29 -195.53 C-66.86 -197.28, -69.64 -199.94, -71.28 -201.43 C-72.92 -202.92, -73.09 -203.14, -75.15 -204.47 C-77.2 -205.81, -80.73 -208, -83.59 -209.44 C-86.45 -210.87, -90.35 -212.3, -92.31 -213.09 C-94.27 -213.87, -94.85 -213.98, -95.36 -214.16 M0 0 C-0.64 -0.04, -2.36 -0.09, -3.87 -0.24 C-5.37 -0.39, -6.92 -0.54, -9.04 -0.88 C-11.16 -1.22, -14 -1.67, -16.58 -2.29 C-19.17 -2.92, -22.2 -3.78, -24.55 -4.65 C-26.9 -5.52, -28.96 -6.6, -30.68 -7.51 C-32.4 -8.41, -33.46 -9.02, -34.86 -10.08 C-36.27 -11.15, -37.88 -12.61, -39.12 -13.9 C-40.37 -15.18, -41.34 -16.38, -42.33 -17.82 C-43.32 -19.26, -44.16 -20.56, -45.06 -22.55 C-45.97 -24.53, -46.99 -27.14, -47.76 -29.72 C-48.53 -32.31, -49.22 -35.18, -49.68 -38.06 C-50.15 -40.95, -50.33 -43.91, -50.54 -47.02 C-50.76 -50.14, -50.87 -52.28, -50.97 -56.75 C-51.07 -61.22, -51.1 -67.52, -51.12 -73.84 C-51.15 -80.16, -51.12 -87.71, -51.12 -94.68 C-51.12 -101.65, -51.12 -108.01, -51.12 -115.66 C-51.12 -123.3, -51.1 -134.78, -51.12 -140.56 C-51.15 -146.35, -51.13 -147.25, -51.27 -150.36 C-51.41 -153.48, -51.65 -156.36, -51.96 -159.25 C-52.27 -162.14, -52.76 -165.35, -53.14 -167.68 C-53.51 -170.02, -53.64 -171.09, -54.22 -173.25 C-54.8 -175.42, -55.92 -178.77, -56.63 -180.69 C-57.33 -182.61, -57.57 -183.09, -58.45 -184.8 C-59.32 -186.51, -60.72 -189.16, -61.86 -190.94 C-63 -192.73, -63.72 -193.79, -65.29 -195.53 C-66.86 -197.28, -69.64 -199.94, -71.28 -201.43 C-72.92 -202.92, -73.09 -203.14, -75.15 -204.47 C-77.2 -205.81, -80.73 -208, -83.59 -209.44 C-86.45 -210.87, -90.35 -212.3, -92.31 -213.09 C-94.27 -213.87, -94.85 -213.98, -95.36 -214.16" stroke="#E1E1E1" stroke-width="2" fill="none"></path></g></g><mask></mask><g stroke-linecap="round"><g transform="translate(600.1567589746053 411.4061941913483) rotate(180 0 1.0045899840400807)"><path d="M0 0 C0.06 0.68, 0.02 1.46, 0 2.01 M0 0 C-0.02 0.45, -0.02 0.89, 0 2.01" stroke="#E1E1E1" stroke-width="2" fill="none"></path></g></g><mask></mask><g stroke-linecap="round"><g transform="translate(504.71688925315016 627.654995896756) rotate(180 47.664849461141216 -107.10090515524212)"><path d="M0 0 C0.97 -0.37, 3.92 -1.42, 5.83 -2.19 C7.74 -2.97, 9.6 -3.71, 11.45 -4.64 C13.3 -5.57, 15.11 -6.63, 16.92 -7.77 C18.74 -8.91, 20.64 -10.17, 22.34 -11.48 C24.03 -12.79, 25.57 -14.11, 27.1 -15.63 C28.63 -17.15, 30.14 -18.79, 31.51 -20.59 C32.88 -22.39, 34.2 -24.4, 35.34 -26.43 C36.48 -28.45, 37.45 -30.35, 38.37 -32.72 C39.29 -35.08, 40.16 -37.99, 40.86 -40.6 C41.55 -43.21, 42.08 -45.46, 42.54 -48.35 C43.01 -51.24, 43.38 -54.43, 43.65 -57.95 C43.93 -61.47, 44.11 -65.21, 44.21 -69.46 C44.3 -73.71, 44.24 -77.87, 44.23 -83.46 C44.22 -89.05, 44.17 -97.16, 44.16 -103 C44.15 -108.85, 44.16 -112.37, 44.16 -118.53 C44.16 -124.7, 44.16 -133.01, 44.16 -139.98 C44.16 -146.96, 44.06 -155.27, 44.16 -160.4 C44.26 -165.53, 44.39 -167.37, 44.76 -170.77 C45.14 -174.17, 45.67 -177.69, 46.4 -180.81 C47.14 -183.94, 48.29 -187.24, 49.18 -189.53 C50.07 -191.83, 50.76 -192.97, 51.76 -194.58 C52.77 -196.2, 54.14 -197.93, 55.22 -199.21 C56.3 -200.48, 57.09 -201.24, 58.25 -202.23 C59.41 -203.21, 60.66 -204.17, 62.16 -205.12 C63.67 -206.06, 65.61 -207.09, 67.3 -207.9 C69 -208.71, 70.55 -209.34, 72.35 -209.96 C74.14 -210.58, 76.14 -211.14, 78.06 -211.61 C79.98 -212.09, 81.72 -212.45, 83.87 -212.82 C86.03 -213.18, 89.08 -213.58, 90.99 -213.81 C92.9 -214.04, 94.61 -214.14, 95.33 -214.2 M0 0 C0.97 -0.37, 3.92 -1.42, 5.83 -2.19 C7.74 -2.97, 9.6 -3.71, 11.45 -4.64 C13.3 -5.57, 15.11 -6.63, 16.92 -7.77 C18.74 -8.91, 20.64 -10.17, 22.34 -11.48 C24.03 -12.79, 25.57 -14.11, 27.1 -15.63 C28.63 -17.15, 30.14 -18.79, 31.51 -20.59 C32.88 -22.39, 34.2 -24.4, 35.34 -26.43 C36.48 -28.45, 37.45 -30.35, 38.37 -32.72 C39.29 -35.08, 40.16 -37.99, 40.86 -40.6 C41.55 -43.21, 42.08 -45.46, 42.54 -48.35 C43.01 -51.24, 43.38 -54.43, 43.65 -57.95 C43.93 -61.47, 44.11 -65.21, 44.21 -69.46 C44.3 -73.71, 44.24 -77.87, 44.23 -83.46 C44.22 -89.05, 44.17 -97.16, 44.16 -103 C44.15 -108.85, 44.16 -112.37, 44.16 -118.53 C44.16 -124.7, 44.16 -133.01, 44.16 -139.98 C44.16 -146.96, 44.06 -155.27, 44.16 -160.4 C44.26 -165.53, 44.39 -167.37, 44.76 -170.77 C45.14 -174.17, 45.67 -177.69, 46.4 -180.81 C47.14 -183.94, 48.29 -187.24, 49.18 -189.53 C50.07 -191.83, 50.76 -192.97, 51.76 -194.58 C52.77 -196.2, 54.14 -197.93, 55.22 -199.21 C56.3 -200.48, 57.09 -201.24, 58.25 -202.23 C59.41 -203.21, 60.66 -204.17, 62.16 -205.12 C63.67 -206.06, 65.61 -207.09, 67.3 -207.9 C69 -208.71, 70.55 -209.34, 72.35 -209.96 C74.14 -210.58, 76.14 -211.14, 78.06 -211.61 C79.98 -212.09, 81.72 -212.45, 83.87 -212.82 C86.03 -213.18, 89.08 -213.58, 90.99 -213.81 C92.9 -214.04, 94.61 -214.14, 95.33 -214.2" stroke="#E1E1E1" stroke-width="2" fill="none"></path></g></g><mask></mask><g stroke-linecap="round"><g transform="translate(504.59475172218276 627.6762042095827) rotate(180 0 9.104964253732419)"><path d="M0 0 C0 3.03, 0 15.17, 0 18.21 M0 0 C0 3.03, 0 15.17, 0 18.21" stroke="#E1E1E1" stroke-width="2" fill="none"></path></g></g><mask></mask><g stroke-linecap="round"><g transform="translate(632.5254207474868 421.4249484482775) rotate(180 -63.889056692637496 112.25479866706303)"><path d="M0 0 C-1.56 0.03, -6.21 0.1, -9.35 0.18 C-12.49 0.26, -16.17 0.37, -18.82 0.48 C-21.47 0.59, -23.36 0.71, -25.23 0.84 C-27.1 0.98, -28.4 1.08, -30.05 1.28 C-31.71 1.48, -32.98 1.61, -35.16 2.04 C-37.34 2.47, -40.62 3.13, -43.14 3.86 C-45.67 4.6, -48.35 5.65, -50.33 6.46 C-52.31 7.27, -53.39 7.78, -55.02 8.72 C-56.65 9.65, -58.43 10.75, -60.1 12.06 C-61.78 13.37, -63.64 15.1, -65.09 16.58 C-66.54 18.06, -67.56 19.16, -68.81 20.93 C-70.06 22.7, -71.5 25.14, -72.59 27.2 C-73.67 29.26, -74.45 30.97, -75.31 33.31 C-76.18 35.65, -77.07 38.52, -77.8 41.23 C-78.53 43.95, -79.13 45.99, -79.71 49.59 C-80.29 53.19, -80.9 57.69, -81.27 62.83 C-81.65 67.96, -81.83 74.98, -81.94 80.42 C-82.06 85.87, -81.98 89.49, -81.98 95.48 C-81.99 101.47, -81.98 106.58, -81.98 116.37 C-81.98 126.16, -81.98 144.89, -81.98 154.23 C-81.98 163.57, -81.94 168.02, -81.98 172.39 C-82.03 176.76, -82.02 177.74, -82.26 180.45 C-82.5 183.15, -82.8 185.97, -83.42 188.62 C-84.04 191.28, -84.92 194, -85.98 196.4 C-87.04 198.8, -88.31 200.98, -89.78 203.03 C-91.25 205.09, -92.9 206.91, -94.82 208.73 C-96.74 210.55, -98.84 212.32, -101.3 213.96 C-103.77 215.61, -106.64 217.23, -109.61 218.6 C-112.58 219.96, -116.09 221.18, -119.12 222.16 C-122.15 223.15, -126.33 224.12, -127.78 224.51 M0 0 C-1.56 0.03, -6.21 0.1, -9.35 0.18 C-12.49 0.26, -16.17 0.37, -18.82 0.48 C-21.47 0.59, -23.36 0.71, -25.23 0.84 C-27.1 0.98, -28.4 1.08, -30.05 1.28 C-31.71 1.48, -32.98 1.61, -35.16 2.04 C-37.34 2.47, -40.62 3.13, -43.14 3.86 C-45.67 4.6, -48.35 5.65, -50.33 6.46 C-52.31 7.27, -53.39 7.78, -55.02 8.72 C-56.65 9.65, -58.43 10.75, -60.1 12.06 C-61.78 13.37, -63.64 15.1, -65.09 16.58 C-66.54 18.06, -67.56 19.16, -68.81 20.93 C-70.06 22.7, -71.5 25.14, -72.59 27.2 C-73.67 29.26, -74.45 30.97, -75.31 33.31 C-76.18 35.65, -77.07 38.52, -77.8 41.23 C-78.53 43.95, -79.13 45.99, -79.71 49.59 C-80.29 53.19, -80.9 57.69, -81.27 62.83 C-81.65 67.96, -81.83 74.98, -81.94 80.42 C-82.06 85.87, -81.98 89.49, -81.98 95.48 C-81.99 101.47, -81.98 106.58, -81.98 116.37 C-81.98 126.16, -81.98 144.89, -81.98 154.23 C-81.98 163.57, -81.94 168.02, -81.98 172.39 C-82.03 176.76, -82.02 177.74, -82.26 180.45 C-82.5 183.15, -82.8 185.97, -83.42 188.62 C-84.04 191.28, -84.92 194, -85.98 196.4 C-87.04 198.8, -88.31 200.98, -89.78 203.03 C-91.25 205.09, -92.9 206.91, -94.82 208.73 C-96.74 210.55, -98.84 212.32, -101.3 213.96 C-103.77 215.61, -106.64 217.23, -109.61 218.6 C-112.58 219.96, -116.09 221.18, -119.12 222.16 C-122.15 223.15, -126.33 224.12, -127.78 224.51" stroke="#E1E1E1" stroke-width="2" fill="none"></path></g></g><mask></mask><g stroke-linecap="round"><g transform="translate(632.5792043940467 403.393338803726) rotate(180 0 9.010200737540004)"><path d="M0 0 C0 3, 0 15.02, 0 18.02 M0 0 C0 3, 0 15.02, 0 18.02" stroke="#E1E1E1" stroke-width="2" fill="none"></path></g></g><mask></mask><g stroke-linecap="round"><g transform="translate(504.771202556846 179.04060683529087) rotate(180 63.912251376682434 112.16657324972834)"><path d="M0 0 C0.75 0.19, 2.52 0.54, 4.52 1.11 C6.53 1.68, 9.69 2.59, 12.02 3.41 C14.35 4.22, 16.45 5.03, 18.51 5.99 C20.57 6.94, 22.34 7.85, 24.36 9.13 C26.38 10.41, 28.79 12.14, 30.62 13.66 C32.45 15.18, 33.95 16.73, 35.36 18.24 C36.76 19.76, 37.91 21.04, 39.03 22.78 C40.15 24.51, 41.26 26.71, 42.08 28.66 C42.91 30.6, 43.45 32.19, 44 34.45 C44.55 36.7, 45.08 39.71, 45.38 42.19 C45.68 44.68, 45.7 46.58, 45.8 49.36 C45.9 52.15, 45.96 54.78, 45.99 58.89 C46.02 63, 45.99 68.4, 45.99 73.99 C45.99 79.58, 45.99 86.94, 45.99 92.43 C45.99 97.92, 45.99 101.51, 45.99 106.93 C45.99 112.35, 45.99 117.72, 45.99 124.95 C45.99 132.18, 45.83 143.35, 45.99 150.31 C46.15 157.27, 46.47 162, 46.95 166.71 C47.42 171.42, 48.11 174.99, 48.85 178.57 C49.59 182.14, 50.17 184.74, 51.38 188.16 C52.58 191.57, 54.32 195.87, 56.07 199.04 C57.82 202.2, 59.56 204.65, 61.88 207.17 C64.19 209.68, 66.9 212.08, 69.94 214.11 C72.99 216.13, 76.22 217.89, 80.15 219.32 C84.07 220.75, 88.92 221.89, 93.5 222.69 C98.08 223.49, 103.25 223.86, 107.61 224.13 C111.98 224.41, 116.34 224.3, 119.7 224.33 C123.07 224.37, 126.47 224.33, 127.82 224.33 M0 0 C0.75 0.19, 2.52 0.54, 4.52 1.11 C6.53 1.68, 9.69 2.59, 12.02 3.41 C14.35 4.22, 16.45 5.03, 18.51 5.99 C20.57 6.94, 22.34 7.85, 24.36 9.13 C26.38 10.41, 28.79 12.14, 30.62 13.66 C32.45 15.18, 33.95 16.73, 35.36 18.24 C36.76 19.76, 37.91 21.04, 39.03 22.78 C40.15 24.51, 41.26 26.71, 42.08 28.66 C42.91 30.6, 43.45 32.19, 44 34.45 C44.55 36.7, 45.08 39.71, 45.38 42.19 C45.68 44.68, 45.7 46.58, 45.8 49.36 C45.9 52.15, 45.96 54.78, 45.99 58.89 C46.02 63, 45.99 68.4, 45.99 73.99 C45.99 79.58, 45.99 86.94, 45.99 92.43 C45.99 97.92, 45.99 101.51, 45.99 106.93 C45.99 112.35, 45.99 117.72, 45.99 124.95 C45.99 132.18, 45.83 143.35, 45.99 150.31 C46.15 157.27, 46.47 162, 46.95 166.71 C47.42 171.42, 48.11 174.99, 48.85 178.57 C49.59 182.14, 50.17 184.74, 51.38 188.16 C52.58 191.57, 54.32 195.87, 56.07 199.04 C57.82 202.2, 59.56 204.65, 61.88 207.17 C64.19 209.68, 66.9 212.08, 69.94 214.11 C72.99 216.13, 76.22 217.89, 80.15 219.32 C84.07 220.75, 88.92 221.89, 93.5 222.69 C98.08 223.49, 103.25 223.86, 107.61 224.13 C111.98 224.41, 116.34 224.3, 119.7 224.33 C123.07 224.37, 126.47 224.33, 127.82 224.33" stroke="#E1E1E1" stroke-width="2" fill="none"></path></g></g><mask></mask><g stroke-linecap="round"><g transform="translate(504.7173410757721 196.9980113640072) rotate(180 0 -8.97501953892072)"><path d="M0 0 C0 -2.99, 0 -14.96, 0 -17.95 M0 0 C0 -2.99, 0 -14.96, 0 -17.95" stroke="#E1E1E1" stroke-width="2" fill="none"></path></g></g><mask></mask><g stroke-linecap="round"><g transform="translate(600.1433067847076 411.24489502213737) rotate(180 -47.680603698215236 -107.0777140543114)"><path d="M0 0 C-0.64 -0.04, -2.36 -0.09, -3.87 -0.24 C-5.37 -0.39, -6.92 -0.54, -9.04 -0.88 C-11.16 -1.22, -14 -1.67, -16.58 -2.29 C-19.17 -2.92, -22.2 -3.78, -24.55 -4.65 C-26.9 -5.52, -28.96 -6.6, -30.68 -7.51 C-32.4 -8.41, -33.46 -9.02, -34.86 -10.08 C-36.27 -11.15, -37.88 -12.61, -39.12 -13.9 C-40.37 -15.18, -41.34 -16.38, -42.33 -17.82 C-43.32 -19.26, -44.16 -20.56, -45.06 -22.55 C-45.97 -24.53, -46.99 -27.14, -47.76 -29.72 C-48.53 -32.31, -49.22 -35.18, -49.68 -38.06 C-50.15 -40.95, -50.33 -43.91, -50.54 -47.02 C-50.76 -50.14, -50.87 -52.28, -50.97 -56.75 C-51.07 -61.22, -51.1 -67.52, -51.12 -73.84 C-51.15 -80.16, -51.12 -87.71, -51.12 -94.68 C-51.12 -101.65, -51.12 -108.01, -51.12 -115.66 C-51.12 -123.3, -51.1 -134.78, -51.12 -140.56 C-51.15 -146.35, -51.13 -147.25, -51.27 -150.36 C-51.41 -153.48, -51.65 -156.36, -51.96 -159.25 C-52.27 -162.14, -52.76 -165.35, -53.14 -167.68 C-53.51 -170.02, -53.64 -171.09, -54.22 -173.25 C-54.8 -175.42, -55.92 -178.77, -56.63 -180.69 C-57.33 -182.61, -57.57 -183.09, -58.45 -184.8 C-59.32 -186.51, -60.72 -189.16, -61.86 -190.94 C-63 -192.73, -63.72 -193.79, -65.29 -195.53 C-66.86 -197.28, -69.64 -199.94, -71.28 -201.43 C-72.92 -202.92, -73.09 -203.14, -75.15 -204.47 C-77.2 -205.81, -80.73 -208, -83.59 -209.44 C-86.45 -210.87, -90.35 -212.3, -92.31 -213.09 C-94.27 -213.87, -94.85 -213.98, -95.36 -214.16 M0 0 C-0.64 -0.04, -2.36 -0.09, -3.87 -0.24 C-5.37 -0.39, -6.92 -0.54, -9.04 -0.88 C-11.16 -1.22, -14 -1.67, -16.58 -2.29 C-19.17 -2.92, -22.2 -3.78, -24.55 -4.65 C-26.9 -5.52, -28.96 -6.6, -30.68 -7.51 C-32.4 -8.41, -33.46 -9.02, -34.86 -10.08 C-36.27 -11.15, -37.88 -12.61, -39.12 -13.9 C-40.37 -15.18, -41.34 -16.38, -42.33 -17.82 C-43.32 -19.26, -44.16 -20.56, -45.06 -22.55 C-45.97 -24.53, -46.99 -27.14, -47.76 -29.72 C-48.53 -32.31, -49.22 -35.18, -49.68 -38.06 C-50.15 -40.95, -50.33 -43.91, -50.54 -47.02 C-50.76 -50.14, -50.87 -52.28, -50.97 -56.75 C-51.07 -61.22, -51.1 -67.52, -51.12 -73.84 C-51.15 -80.16, -51.12 -87.71, -51.12 -94.68 C-51.12 -101.65, -51.12 -108.01, -51.12 -115.66 C-51.12 -123.3, -51.1 -134.78, -51.12 -140.56 C-51.15 -146.35, -51.13 -147.25, -51.27 -150.36 C-51.41 -153.48, -51.65 -156.36, -51.96 -159.25 C-52.27 -162.14, -52.76 -165.35, -53.14 -167.68 C-53.51 -170.02, -53.64 -171.09, -54.22 -173.25 C-54.8 -175.42, -55.92 -178.77, -56.63 -180.69 C-57.33 -182.61, -57.57 -183.09, -58.45 -184.8 C-59.32 -186.51, -60.72 -189.16, -61.86 -190.94 C-63 -192.73, -63.72 -193.79, -65.29 -195.53 C-66.86 -197.28, -69.64 -199.94, -71.28 -201.43 C-72.92 -202.92, -73.09 -203.14, -75.15 -204.47 C-77.2 -205.81, -80.73 -208, -83.59 -209.44 C-86.45 -210.87, -90.35 -212.3, -92.31 -213.09 C-94.27 -213.87, -94.85 -213.98, -95.36 -214.16" stroke="#E1E1E1" stroke-width="2" fill="none"></path></g></g><mask></mask></svg>