<svg version="1.1" xmlns="http://www.w3.org/2000/svg" viewBox="0 0 396.989167501416 346.26011790728603" width="396.989167501416" height="346.26011790728603" class="excalidraw-svg"><!-- svg-source:excalidraw --><metadata></metadata><defs><style class="style-fonts">
      </style></defs><rect x="0" y="0" width="396.989167501416" height="346.26011790728603" fill="#000000"></rect><g stroke-linecap="round" transform="translate(10.000000000000455 10) rotate(0 188.49458375070776 37.456008024072844)"><path d="M376.99 37.46 C376.99 38.49, 376.77 39.52, 376.35 40.55 C375.92 41.58, 375.27 42.6, 374.42 43.62 C373.56 44.64, 372.5 45.65, 371.22 46.65 C369.95 47.65, 368.46 48.64, 366.78 49.62 C365.09 50.59, 363.2 51.56, 361.11 52.5 C359.03 53.45, 356.74 54.38, 354.27 55.28 C351.8 56.19, 349.13 57.08, 346.3 57.94 C343.46 58.81, 340.43 59.65, 337.24 60.46 C334.06 61.28, 330.69 62.07, 327.17 62.82 C323.66 63.58, 319.98 64.31, 316.16 65.01 C312.34 65.71, 308.36 66.38, 304.27 67.01 C300.18 67.65, 295.94 68.25, 291.59 68.81 C287.25 69.38, 282.77 69.91, 278.21 70.4 C273.64 70.89, 268.96 71.34, 264.21 71.76 C259.46 72.17, 254.61 72.55, 249.7 72.88 C244.79 73.22, 239.8 73.51, 234.77 73.77 C229.74 74.02, 224.64 74.23, 219.52 74.4 C214.4 74.57, 209.23 74.7, 204.06 74.78 C198.89 74.87, 193.68 74.91, 188.49 74.91 C183.31 74.91, 178.1 74.87, 172.93 74.78 C167.76 74.7, 162.59 74.57, 157.47 74.4 C152.35 74.23, 147.25 74.02, 142.22 73.77 C137.19 73.51, 132.2 73.22, 127.29 72.88 C122.38 72.55, 117.53 72.17, 112.78 71.76 C108.03 71.34, 103.34 70.89, 98.78 70.4 C94.22 69.91, 89.74 69.38, 85.4 68.81 C81.05 68.25, 76.81 67.65, 72.72 67.01 C68.62 66.38, 64.65 65.71, 60.83 65.01 C57.01 64.31, 53.33 63.58, 49.81 62.82 C46.3 62.07, 42.93 61.28, 39.75 60.46 C36.56 59.65, 33.53 58.81, 30.69 57.94 C27.86 57.08, 25.19 56.19, 22.72 55.28 C20.25 54.38, 17.96 53.45, 15.88 52.5 C13.79 51.56, 11.9 50.59, 10.21 49.62 C8.53 48.64, 7.04 47.65, 5.77 46.65 C4.49 45.65, 3.42 44.64, 2.57 43.62 C1.72 42.6, 1.07 41.58, 0.64 40.55 C0.22 39.52, 0 38.49, 0 37.46 C0 36.42, 0.22 35.39, 0.64 34.36 C1.07 33.34, 1.72 32.31, 2.57 31.29 C3.42 30.27, 4.49 29.26, 5.77 28.26 C7.04 27.26, 8.53 26.27, 10.21 25.29 C11.9 24.32, 13.79 23.35, 15.88 22.41 C17.96 21.47, 20.25 20.54, 22.72 19.63 C25.19 18.72, 27.86 17.83, 30.69 16.97 C33.53 16.11, 36.56 15.26, 39.75 14.45 C42.93 13.64, 46.3 12.85, 49.81 12.09 C53.33 11.33, 57.01 10.6, 60.83 9.9 C64.65 9.2, 68.62 8.53, 72.72 7.9 C76.81 7.26, 81.05 6.66, 85.4 6.1 C89.74 5.54, 94.22 5.01, 98.78 4.51 C103.34 4.02, 108.03 3.57, 112.78 3.15 C117.53 2.74, 122.38 2.36, 127.29 2.03 C132.2 1.69, 137.19 1.4, 142.22 1.15 C147.25 0.89, 152.35 0.68, 157.47 0.51 C162.59 0.34, 167.76 0.21, 172.93 0.13 C178.1 0.04, 183.31 0, 188.49 0 C193.68 0, 198.89 0.04, 204.06 0.13 C209.23 0.21, 214.4 0.34, 219.52 0.51 C224.64 0.68, 229.74 0.89, 234.77 1.15 C239.8 1.4, 244.79 1.69, 249.7 2.03 C254.61 2.36, 259.46 2.74, 264.21 3.15 C268.96 3.57, 273.64 4.02, 278.21 4.51 C282.77 5.01, 287.25 5.54, 291.59 6.1 C295.94 6.66, 300.18 7.26, 304.27 7.9 C308.36 8.53, 312.34 9.2, 316.16 9.9 C319.98 10.6, 323.66 11.33, 327.17 12.09 C330.69 12.85, 334.06 13.64, 337.24 14.45 C340.43 15.26, 343.46 16.11, 346.3 16.97 C349.13 17.83, 351.8 18.72, 354.27 19.63 C356.74 20.54, 359.03 21.47, 361.11 22.41 C363.2 23.35, 365.09 24.32, 366.78 25.29 C368.46 26.27, 369.95 27.26, 371.22 28.26 C372.5 29.26, 373.56 30.27, 374.42 31.29 C375.27 32.31, 375.92 33.34, 376.35 34.36 C376.77 35.39, 376.99 36.42, 376.99 37.46" stroke="#E1E1E1" stroke-width="2" fill="none"></path></g><g stroke-linecap="round"><g transform="translate(35.584980071894734 70.01379515210328) rotate(0 163.14294004313388 22.97349208986691)"><path d="M0 0 C0 1.19, 0 3.95, 0 7.15 C0 10.35, 0 15.99, 0 19.22 C0 22.44, -0.06 24.9, 0 26.52 C0.06 28.15, -0.35 28.18, 0.38 28.96 C1.11 29.74, 2.07 30.29, 4.37 31.19 C6.67 32.08, 9.48 33.15, 14.18 34.31 C18.88 35.48, 24.86 36.97, 32.59 38.19 C40.32 39.41, 49.63 40.63, 60.54 41.62 C71.45 42.61, 85.73 43.48, 98.06 44.13 C110.39 44.78, 121.61 45.24, 134.5 45.54 C147.39 45.84, 161.15 46.09, 175.41 45.95 C189.67 45.81, 203.75 45.58, 220.07 44.7 C236.39 43.83, 259.51 42.09, 273.33 40.72 C287.15 39.34, 295.43 37.84, 302.98 36.44 C310.53 35.05, 314.86 33.66, 318.64 32.35 C322.42 31.04, 324.38 29.84, 325.65 28.6 C326.93 27.36, 326.19 27.33, 326.29 24.93 C326.38 22.53, 326.23 17.64, 326.22 14.18 C326.21 10.72, 326.22 6.52, 326.22 4.16 C326.22 1.8, 326.62 0.6, 326.22 0.02 C325.83 -0.57, 325.62 0.08, 323.88 0.65 C322.14 1.23, 319.91 2.36, 315.79 3.45 C311.66 4.55, 305.28 5.95, 299.14 7.21 C292.99 8.47, 287.26 9.68, 278.91 11.01 C270.55 12.33, 258.97 14.07, 249 15.16 C239.03 16.24, 228.86 16.95, 219.1 17.52 C209.33 18.09, 200.19 18.24, 190.41 18.57 C180.64 18.9, 170.01 19.47, 160.44 19.49 C150.87 19.51, 142.33 19.05, 132.99 18.69 C123.64 18.33, 114.1 17.99, 104.37 17.33 C94.64 16.67, 84.5 15.81, 74.61 14.73 C64.71 13.64, 55.39 12.61, 44.98 10.81 C34.57 9.02, 19.62 5.77, 12.12 3.97 C4.62 2.17, 2.02 0.66, 0 0 M0 0 C0 1.19, 0 3.95, 0 7.15 C0 10.35, 0 15.99, 0 19.22 C0 22.44, -0.06 24.9, 0 26.52 C0.06 28.15, -0.35 28.18, 0.38 28.96 C1.11 29.74, 2.07 30.29, 4.37 31.19 C6.67 32.08, 9.48 33.15, 14.18 34.31 C18.88 35.48, 24.86 36.97, 32.59 38.19 C40.32 39.41, 49.63 40.63, 60.54 41.62 C71.45 42.61, 85.73 43.48, 98.06 44.13 C110.39 44.78, 121.61 45.24, 134.5 45.54 C147.39 45.84, 161.15 46.09, 175.41 45.95 C189.67 45.81, 203.75 45.58, 220.07 44.7 C236.39 43.83, 259.51 42.09, 273.33 40.72 C287.15 39.34, 295.43 37.84, 302.98 36.44 C310.53 35.05, 314.86 33.66, 318.64 32.35 C322.42 31.04, 324.38 29.84, 325.65 28.6 C326.93 27.36, 326.19 27.33, 326.29 24.93 C326.38 22.53, 326.23 17.64, 326.22 14.18 C326.21 10.72, 326.22 6.52, 326.22 4.16 C326.22 1.8, 326.62 0.6, 326.22 0.02 C325.83 -0.57, 325.62 0.08, 323.88 0.65 C322.14 1.23, 319.91 2.36, 315.79 3.45 C311.66 4.55, 305.28 5.95, 299.14 7.21 C292.99 8.47, 287.26 9.68, 278.91 11.01 C270.55 12.33, 258.97 14.07, 249 15.16 C239.03 16.24, 228.86 16.95, 219.1 17.52 C209.33 18.09, 200.19 18.24, 190.41 18.57 C180.64 18.9, 170.01 19.47, 160.44 19.49 C150.87 19.51, 142.33 19.05, 132.99 18.69 C123.64 18.33, 114.1 17.99, 104.37 17.33 C94.64 16.67, 84.5 15.81, 74.61 14.73 C64.71 13.64, 55.39 12.61, 44.98 10.81 C34.57 9.02, 19.62 5.77, 12.12 3.97 C4.62 2.17, 2.02 0.66, 0 0" stroke="#E1E1E1" stroke-width="2" fill="none"></path></g></g><mask></mask><g stroke-linecap="round"><g transform="translate(109.53624941778435 116.96192570387984) rotate(0 5.54537528309379 0.4457295983617655)"><path d="M0 0 C1.85 0.15, 9.24 0.74, 11.09 0.89 M0 0 C1.85 0.15, 9.24 0.74, 11.09 0.89" stroke="#E1E1E1" stroke-width="2" fill="none"></path></g></g><mask></mask><g stroke-linecap="round"><g transform="translate(120.7273321676953 117.82722625235965) rotate(0 17.698304645068447 108.80500430929271)"><path d="M0 0 C1.09 1.23, 4.34 4.86, 6.52 7.4 C8.69 9.95, 10.83 12.45, 13.04 15.26 C15.26 18.07, 17.56 21.16, 19.78 24.26 C22.01 27.36, 24.12 30.34, 26.41 33.84 C28.71 37.34, 31.23 41.23, 33.57 45.29 C35.91 49.34, 38.31 53.76, 40.46 58.19 C42.61 62.62, 44.46 66.96, 46.44 71.85 C48.42 76.74, 50.72 82.38, 52.34 87.54 C53.96 92.7, 55.13 97.94, 56.18 102.81 C57.23 107.69, 58.04 111.74, 58.64 116.79 C59.23 121.85, 59.81 127.34, 59.76 133.15 C59.7 138.96, 59.22 145.31, 58.28 151.66 C57.35 158.02, 55.76 165.7, 54.12 171.28 C52.49 176.85, 50.74 180.56, 48.49 185.11 C46.24 189.66, 43.57 194.66, 40.65 198.59 C37.73 202.51, 33.58 206.26, 30.96 208.67 C28.35 211.07, 27.26 211.69, 24.98 213.03 C22.7 214.36, 19.44 215.84, 17.29 216.68 C15.15 217.52, 14.26 217.77, 12.11 218.05 C9.96 218.33, 7.34 218.54, 4.37 218.38 C1.41 218.22, -2.69 217.96, -5.66 217.09 C-8.64 216.21, -11.29 214.69, -13.49 213.11 C-15.68 211.53, -17.32 209.62, -18.83 207.6 C-20.34 205.57, -21.62 203.28, -22.55 200.96 C-23.47 198.64, -24.2 196.56, -24.36 193.7 C-24.51 190.83, -24.31 186.78, -23.48 183.76 C-22.64 180.74, -20.88 177.75, -19.35 175.6 C-17.82 173.44, -16 172.2, -14.3 170.83 C-12.6 169.47, -11.1 168.34, -9.16 167.41 C-7.21 166.48, -4.77 165.66, -2.64 165.23 C-0.51 164.8, 1.49 164.76, 3.61 164.84 C5.74 164.92, 7.84 165.04, 10.09 165.7 C12.33 166.36, 15.16 167.6, 17.07 168.8 C18.97 170, 20.63 171.57, 21.51 172.89 C22.4 174.21, 22.26 175.59, 22.36 176.72 C22.47 177.86, 22.47 178.98, 22.14 179.7 C21.81 180.42, 21.1 181.16, 20.37 181.03 C19.64 180.9, 18.83 179.74, 17.76 178.93 C16.69 178.12, 15.26 176.89, 13.98 176.18 C12.7 175.47, 11.58 175, 10.06 174.65 C8.54 174.3, 6.66 173.98, 4.85 174.09 C3.05 174.2, 0.9 174.63, -0.76 175.3 C-2.42 175.97, -3.76 176.91, -5.11 178.13 C-6.46 179.35, -7.86 180.94, -8.88 182.63 C-9.89 184.33, -10.77 186.48, -11.21 188.29 C-11.64 190.1, -11.66 191.73, -11.49 193.47 C-11.33 195.21, -10.93 197.1, -10.21 198.74 C-9.48 200.39, -8.43 202, -7.16 203.32 C-5.89 204.65, -4.18 205.87, -2.58 206.72 C-0.98 207.56, 0.8 208.03, 2.43 208.41 C4.05 208.79, 5.12 209.02, 7.15 209 C9.17 208.97, 12.17 208.83, 14.57 208.27 C16.96 207.71, 19.31 206.81, 21.53 205.63 C23.76 204.44, 25.68 203.14, 27.91 201.13 C30.14 199.13, 32.82 196.43, 34.92 193.61 C37.02 190.79, 38.75 187.74, 40.5 184.19 C42.24 180.64, 44.01 176.37, 45.38 172.31 C46.75 168.24, 47.89 163.86, 48.72 159.8 C49.54 155.75, 50.01 152.59, 50.33 147.97 C50.65 143.35, 50.72 136.91, 50.64 132.08 C50.57 127.25, 50.45 124.04, 49.86 118.97 C49.27 113.9, 48.3 107.23, 47.11 101.66 C45.93 96.1, 44.52 91.01, 42.75 85.57 C40.97 80.13, 38.86 74.51, 36.47 69.02 C34.09 63.53, 31.67 58.52, 28.44 52.62 C25.21 46.72, 20.62 39.03, 17.09 33.61 C13.56 28.2, 10.62 24.39, 7.27 20.12 C3.93 15.84, 0.1 11.44, -2.97 7.96 C-6.03 4.48, -9.76 0.69, -11.12 -0.77 M0 0 C1.09 1.23, 4.34 4.86, 6.52 7.4 C8.69 9.95, 10.83 12.45, 13.04 15.26 C15.26 18.07, 17.56 21.16, 19.78 24.26 C22.01 27.36, 24.12 30.34, 26.41 33.84 C28.71 37.34, 31.23 41.23, 33.57 45.29 C35.91 49.34, 38.31 53.76, 40.46 58.19 C42.61 62.62, 44.46 66.96, 46.44 71.85 C48.42 76.74, 50.72 82.38, 52.34 87.54 C53.96 92.7, 55.13 97.94, 56.18 102.81 C57.23 107.69, 58.04 111.74, 58.64 116.79 C59.23 121.85, 59.81 127.34, 59.76 133.15 C59.7 138.96, 59.22 145.31, 58.28 151.66 C57.35 158.02, 55.76 165.7, 54.12 171.28 C52.49 176.85, 50.74 180.56, 48.49 185.11 C46.24 189.66, 43.57 194.66, 40.65 198.59 C37.73 202.51, 33.58 206.26, 30.96 208.67 C28.35 211.07, 27.26 211.69, 24.98 213.03 C22.7 214.36, 19.44 215.84, 17.29 216.68 C15.15 217.52, 14.26 217.77, 12.11 218.05 C9.96 218.33, 7.34 218.54, 4.37 218.38 C1.41 218.22, -2.69 217.96, -5.66 217.09 C-8.64 216.21, -11.29 214.69, -13.49 213.11 C-15.68 211.53, -17.32 209.62, -18.83 207.6 C-20.34 205.57, -21.62 203.28, -22.55 200.96 C-23.47 198.64, -24.2 196.56, -24.36 193.7 C-24.51 190.83, -24.31 186.78, -23.48 183.76 C-22.64 180.74, -20.88 177.75, -19.35 175.6 C-17.82 173.44, -16 172.2, -14.3 170.83 C-12.6 169.47, -11.1 168.34, -9.16 167.41 C-7.21 166.48, -4.77 165.66, -2.64 165.23 C-0.51 164.8, 1.49 164.76, 3.61 164.84 C5.74 164.92, 7.84 165.04, 10.09 165.7 C12.33 166.36, 15.16 167.6, 17.07 168.8 C18.97 170, 20.63 171.57, 21.51 172.89 C22.4 174.21, 22.26 175.59, 22.36 176.72 C22.47 177.86, 22.47 178.98, 22.14 179.7 C21.81 180.42, 21.1 181.16, 20.37 181.03 C19.64 180.9, 18.83 179.74, 17.76 178.93 C16.69 178.12, 15.26 176.89, 13.98 176.18 C12.7 175.47, 11.58 175, 10.06 174.65 C8.54 174.3, 6.66 173.98, 4.85 174.09 C3.05 174.2, 0.9 174.63, -0.76 175.3 C-2.42 175.97, -3.76 176.91, -5.11 178.13 C-6.46 179.35, -7.86 180.94, -8.88 182.63 C-9.89 184.33, -10.77 186.48, -11.21 188.29 C-11.64 190.1, -11.66 191.73, -11.49 193.47 C-11.33 195.21, -10.93 197.1, -10.21 198.74 C-9.48 200.39, -8.43 202, -7.16 203.32 C-5.89 204.65, -4.18 205.87, -2.58 206.72 C-0.98 207.56, 0.8 208.03, 2.43 208.41 C4.05 208.79, 5.12 209.02, 7.15 209 C9.17 208.97, 12.17 208.83, 14.57 208.27 C16.96 207.71, 19.31 206.81, 21.53 205.63 C23.76 204.44, 25.68 203.14, 27.91 201.13 C30.14 199.13, 32.82 196.43, 34.92 193.61 C37.02 190.79, 38.75 187.74, 40.5 184.19 C42.24 180.64, 44.01 176.37, 45.38 172.31 C46.75 168.24, 47.89 163.86, 48.72 159.8 C49.54 155.75, 50.01 152.59, 50.33 147.97 C50.65 143.35, 50.72 136.91, 50.64 132.08 C50.57 127.25, 50.45 124.04, 49.86 118.97 C49.27 113.9, 48.3 107.23, 47.11 101.66 C45.93 96.1, 44.52 91.01, 42.75 85.57 C40.97 80.13, 38.86 74.51, 36.47 69.02 C34.09 63.53, 31.67 58.52, 28.44 52.62 C25.21 46.72, 20.62 39.03, 17.09 33.61 C13.56 28.2, 10.62 24.39, 7.27 20.12 C3.93 15.84, 0.1 11.44, -2.97 7.96 C-6.03 4.48, -9.76 0.69, -11.12 -0.77" stroke="#E1E1E1" stroke-width="2" fill="none"></path></g></g><mask></mask><g stroke-linecap="round" transform="translate(194.10142774145652 120.33134613107427) rotate(0 4.4746515322153755 107.13984066508272)"><path d="M0 0 C3.41 0, 6.82 0, 8.95 0 M0 0 C3.04 0, 6.08 0, 8.95 0 M8.95 0 C8.95 84.55, 8.95 169.11, 8.95 214.28 M8.95 0 C8.95 55.4, 8.95 110.81, 8.95 214.28 M8.95 214.28 C6.66 214.28, 4.36 214.28, 0 214.28 M8.95 214.28 C5.5 214.28, 2.04 214.28, 0 214.28 M0 214.28 C0 153.62, 0 92.97, 0 0 M0 214.28 C0 159.44, 0 104.6, 0 0" stroke="#E1E1E1" stroke-width="2" fill="none"></path></g><g stroke-linecap="round"><g transform="translate(276.1127895807931 117.51020110932939) rotate(0 -17.698304645068447 108.80500430929271)"><path d="M0 0 C-1.09 1.23, -4.34 4.86, -6.52 7.4 C-8.69 9.95, -10.83 12.45, -13.04 15.26 C-15.26 18.07, -17.56 21.16, -19.78 24.26 C-22.01 27.36, -24.12 30.34, -26.41 33.84 C-28.71 37.34, -31.23 41.23, -33.57 45.29 C-35.91 49.34, -38.31 53.76, -40.46 58.19 C-42.61 62.62, -44.46 66.96, -46.44 71.85 C-48.42 76.74, -50.72 82.38, -52.34 87.54 C-53.96 92.7, -55.13 97.94, -56.18 102.81 C-57.23 107.69, -58.04 111.74, -58.64 116.79 C-59.23 121.85, -59.81 127.34, -59.76 133.15 C-59.7 138.96, -59.22 145.31, -58.28 151.66 C-57.35 158.02, -55.76 165.7, -54.12 171.28 C-52.49 176.85, -50.74 180.56, -48.49 185.11 C-46.24 189.66, -43.57 194.66, -40.65 198.59 C-37.73 202.51, -33.58 206.26, -30.96 208.67 C-28.35 211.07, -27.26 211.69, -24.98 213.03 C-22.7 214.36, -19.44 215.84, -17.29 216.68 C-15.15 217.52, -14.26 217.77, -12.11 218.05 C-9.96 218.33, -7.34 218.54, -4.37 218.38 C-1.41 218.22, 2.69 217.96, 5.66 217.09 C8.64 216.21, 11.29 214.69, 13.49 213.11 C15.68 211.53, 17.32 209.62, 18.83 207.6 C20.34 205.57, 21.62 203.28, 22.55 200.96 C23.47 198.64, 24.2 196.56, 24.36 193.7 C24.51 190.83, 24.31 186.78, 23.48 183.76 C22.64 180.74, 20.88 177.75, 19.35 175.6 C17.82 173.44, 16 172.2, 14.3 170.83 C12.6 169.47, 11.1 168.34, 9.16 167.41 C7.21 166.48, 4.77 165.66, 2.64 165.23 C0.51 164.8, -1.49 164.76, -3.61 164.84 C-5.74 164.92, -7.84 165.04, -10.09 165.7 C-12.33 166.36, -15.16 167.6, -17.07 168.8 C-18.97 170, -20.63 171.57, -21.51 172.89 C-22.4 174.21, -22.26 175.59, -22.36 176.72 C-22.47 177.86, -22.47 178.98, -22.14 179.7 C-21.81 180.42, -21.1 181.16, -20.37 181.03 C-19.64 180.9, -18.83 179.74, -17.76 178.93 C-16.69 178.12, -15.26 176.89, -13.98 176.18 C-12.7 175.47, -11.58 175, -10.06 174.65 C-8.54 174.3, -6.66 173.98, -4.85 174.09 C-3.05 174.2, -0.9 174.63, 0.76 175.3 C2.42 175.97, 3.76 176.91, 5.11 178.13 C6.46 179.35, 7.86 180.94, 8.88 182.63 C9.89 184.33, 10.77 186.48, 11.21 188.29 C11.64 190.1, 11.66 191.73, 11.49 193.47 C11.33 195.21, 10.93 197.1, 10.21 198.74 C9.48 200.39, 8.43 202, 7.16 203.32 C5.89 204.65, 4.18 205.87, 2.58 206.72 C0.98 207.56, -0.8 208.03, -2.43 208.41 C-4.05 208.79, -5.12 209.02, -7.15 209 C-9.17 208.97, -12.17 208.83, -14.57 208.27 C-16.96 207.71, -19.31 206.81, -21.53 205.63 C-23.76 204.44, -25.68 203.14, -27.91 201.13 C-30.14 199.13, -32.82 196.43, -34.92 193.61 C-37.02 190.79, -38.75 187.74, -40.5 184.19 C-42.24 180.64, -44.01 176.37, -45.38 172.31 C-46.75 168.24, -47.89 163.86, -48.72 159.8 C-49.54 155.75, -50.01 152.59, -50.33 147.97 C-50.65 143.35, -50.72 136.91, -50.64 132.08 C-50.57 127.25, -50.45 124.04, -49.86 118.97 C-49.27 113.9, -48.3 107.23, -47.11 101.66 C-45.93 96.1, -44.52 91.01, -42.75 85.57 C-40.97 80.13, -38.86 74.51, -36.47 69.02 C-34.09 63.53, -31.67 58.52, -28.44 52.62 C-25.21 46.72, -20.62 39.03, -17.09 33.61 C-13.56 28.2, -10.62 24.39, -7.27 20.12 C-3.93 15.84, -0.1 11.44, 2.97 7.96 C6.03 4.48, 9.76 0.69, 11.12 -0.77 M0 0 C-1.09 1.23, -4.34 4.86, -6.52 7.4 C-8.69 9.95, -10.83 12.45, -13.04 15.26 C-15.26 18.07, -17.56 21.16, -19.78 24.26 C-22.01 27.36, -24.12 30.34, -26.41 33.84 C-28.71 37.34, -31.23 41.23, -33.57 45.29 C-35.91 49.34, -38.31 53.76, -40.46 58.19 C-42.61 62.62, -44.46 66.96, -46.44 71.85 C-48.42 76.74, -50.72 82.38, -52.34 87.54 C-53.96 92.7, -55.13 97.94, -56.18 102.81 C-57.23 107.69, -58.04 111.74, -58.64 116.79 C-59.23 121.85, -59.81 127.34, -59.76 133.15 C-59.7 138.96, -59.22 145.31, -58.28 151.66 C-57.35 158.02, -55.76 165.7, -54.12 171.28 C-52.49 176.85, -50.74 180.56, -48.49 185.11 C-46.24 189.66, -43.57 194.66, -40.65 198.59 C-37.73 202.51, -33.58 206.26, -30.96 208.67 C-28.35 211.07, -27.26 211.69, -24.98 213.03 C-22.7 214.36, -19.44 215.84, -17.29 216.68 C-15.15 217.52, -14.26 217.77, -12.11 218.05 C-9.96 218.33, -7.34 218.54, -4.37 218.38 C-1.41 218.22, 2.69 217.96, 5.66 217.09 C8.64 216.21, 11.29 214.69, 13.49 213.11 C15.68 211.53, 17.32 209.62, 18.83 207.6 C20.34 205.57, 21.62 203.28, 22.55 200.96 C23.47 198.64, 24.2 196.56, 24.36 193.7 C24.51 190.83, 24.31 186.78, 23.48 183.76 C22.64 180.74, 20.88 177.75, 19.35 175.6 C17.82 173.44, 16 172.2, 14.3 170.83 C12.6 169.47, 11.1 168.34, 9.16 167.41 C7.21 166.48, 4.77 165.66, 2.64 165.23 C0.51 164.8, -1.49 164.76, -3.61 164.84 C-5.74 164.92, -7.84 165.04, -10.09 165.7 C-12.33 166.36, -15.16 167.6, -17.07 168.8 C-18.97 170, -20.63 171.57, -21.51 172.89 C-22.4 174.21, -22.26 175.59, -22.36 176.72 C-22.47 177.86, -22.47 178.98, -22.14 179.7 C-21.81 180.42, -21.1 181.16, -20.37 181.03 C-19.64 180.9, -18.83 179.74, -17.76 178.93 C-16.69 178.12, -15.26 176.89, -13.98 176.18 C-12.7 175.47, -11.58 175, -10.06 174.65 C-8.54 174.3, -6.66 173.98, -4.85 174.09 C-3.05 174.2, -0.9 174.63, 0.76 175.3 C2.42 175.97, 3.76 176.91, 5.11 178.13 C6.46 179.35, 7.86 180.94, 8.88 182.63 C9.89 184.33, 10.77 186.48, 11.21 188.29 C11.64 190.1, 11.66 191.73, 11.49 193.47 C11.33 195.21, 10.93 197.1, 10.21 198.74 C9.48 200.39, 8.43 202, 7.16 203.32 C5.89 204.65, 4.18 205.87, 2.58 206.72 C0.98 207.56, -0.8 208.03, -2.43 208.41 C-4.05 208.79, -5.12 209.02, -7.15 209 C-9.17 208.97, -12.17 208.83, -14.57 208.27 C-16.96 207.71, -19.31 206.81, -21.53 205.63 C-23.76 204.44, -25.68 203.14, -27.91 201.13 C-30.14 199.13, -32.82 196.43, -34.92 193.61 C-37.02 190.79, -38.75 187.74, -40.5 184.19 C-42.24 180.64, -44.01 176.37, -45.38 172.31 C-46.75 168.24, -47.89 163.86, -48.72 159.8 C-49.54 155.75, -50.01 152.59, -50.33 147.97 C-50.65 143.35, -50.72 136.91, -50.64 132.08 C-50.57 127.25, -50.45 124.04, -49.86 118.97 C-49.27 113.9, -48.3 107.23, -47.11 101.66 C-45.93 96.1, -44.52 91.01, -42.75 85.57 C-40.97 80.13, -38.86 74.51, -36.47 69.02 C-34.09 63.53, -31.67 58.52, -28.44 52.62 C-25.21 46.72, -20.62 39.03, -17.09 33.61 C-13.56 28.2, -10.62 24.39, -7.27 20.12 C-3.93 15.84, -0.1 11.44, 2.97 7.96 C6.03 4.48, 9.76 0.69, 11.12 -0.77" stroke="#E1E1E1" stroke-width="2" fill="none"></path></g></g><mask></mask><g stroke-linecap="round"><g transform="translate(287.08283810301737 116.73666340756245) rotate(0 -5.54537528309379 0.4457295983617655)"><path d="M0 0 C-1.85 0.15, -9.24 0.74, -11.09 0.89 M0 0 C-1.85 0.15, -9.24 0.74, -11.09 0.89" stroke="#E1E1E1" stroke-width="2" fill="none"></path></g></g><mask></mask></svg>