<svg version="1.1" xmlns="http://www.w3.org/2000/svg" viewBox="0 0 502.3913045710192 440.13457278051806" width="502.3913045710192" height="440.13457278051806" class="excalidraw-svg"><!-- svg-source:excalidraw --><metadata></metadata><defs><style class="style-fonts">
      </style></defs><rect x="0" y="0" width="502.3913045710192" height="440.13457278051806" fill="#000000"></rect><g stroke-linecap="round"><g transform="translate(157.75050337456707 421.8951953212993) rotate(0 -52.928600651772484 -143.11997519077858)"><path d="M0 0 C-3.33 -7.99, -14.82 -35.84, -19.95 -47.92 C-25.08 -60, -25.28 -67.89, -30.78 -72.5 C-36.27 -77.1, -41.83 -75.1, -52.92 -75.56 C-64.02 -76.03, -85.8 -75.03, -97.35 -75.26 C-108.9 -75.5, -114.64 -73.71, -122.24 -76.98 C-129.83 -80.25, -138.68 -84.35, -142.93 -94.89 C-147.18 -105.42, -147.49 -123.53, -147.74 -140.19 C-147.98 -156.85, -145.13 -175.01, -144.39 -194.85 C-143.65 -214.68, -145.35 -244.74, -143.28 -259.21 C-141.21 -273.68, -138.99 -277.17, -131.96 -281.67 C-124.93 -286.18, -109.87 -287.28, -101.09 -286.24 C-92.32 -285.2, -87.95 -283.41, -79.32 -275.44 C-70.69 -267.47, -57.03 -248.81, -49.3 -238.41 C-41.58 -228.02, -42.38 -217.54, -32.96 -213.08 C-23.54 -208.61, -3.26 -211.96, 7.23 -211.6 C17.72 -211.25, 24.32 -214.11, 29.98 -210.93 C35.63 -207.74, 39.17 -199.23, 41.16 -192.49 C43.14 -185.75, 41.76 -174.14, 41.88 -170.47 M0 0 C-3.33 -7.99, -14.82 -35.84, -19.95 -47.92 C-25.08 -60, -25.28 -67.89, -30.78 -72.5 C-36.27 -77.1, -41.83 -75.1, -52.92 -75.56 C-64.02 -76.03, -85.8 -75.03, -97.35 -75.26 C-108.9 -75.5, -114.64 -73.71, -122.24 -76.98 C-129.83 -80.25, -138.68 -84.35, -142.93 -94.89 C-147.18 -105.42, -147.49 -123.53, -147.74 -140.19 C-147.98 -156.85, -145.13 -175.01, -144.39 -194.85 C-143.65 -214.68, -145.35 -244.74, -143.28 -259.21 C-141.21 -273.68, -138.99 -277.17, -131.96 -281.67 C-124.93 -286.18, -109.87 -287.28, -101.09 -286.24 C-92.32 -285.2, -87.95 -283.41, -79.32 -275.44 C-70.69 -267.47, -57.03 -248.81, -49.3 -238.41 C-41.58 -228.02, -42.38 -217.54, -32.96 -213.08 C-23.54 -208.61, -3.26 -211.96, 7.23 -211.6 C17.72 -211.25, 24.32 -214.11, 29.98 -210.93 C35.63 -207.74, 39.17 -199.23, 41.16 -192.49 C43.14 -185.75, 41.76 -174.14, 41.88 -170.47" stroke="#E1E1E1" stroke-width="4" fill="none"></path></g></g><mask></mask><g stroke-linecap="round"><g transform="translate(338.9028711164134 430.13457278051806) rotate(0 54.98409692987477 -148.67807747771073)"><path d="M0 0 C3.45 -8.3, 15.4 -37.23, 20.73 -49.78 C26.06 -62.33, 26.26 -70.53, 31.97 -75.31 C37.68 -80.1, 43.45 -78.02, 54.98 -78.5 C66.51 -78.98, 89.13 -77.94, 101.13 -78.19 C113.13 -78.43, 119.09 -76.57, 126.99 -79.97 C134.88 -83.37, 144.06 -87.63, 148.48 -98.57 C152.89 -109.52, 153.22 -128.33, 153.47 -145.64 C153.73 -162.95, 150.77 -181.81, 150 -202.41 C149.22 -223.02, 151 -254.25, 148.85 -269.28 C146.69 -284.31, 144.39 -287.93, 137.08 -292.61 C129.78 -297.29, 114.13 -298.43, 105.02 -297.36 C95.91 -296.28, 91.37 -294.42, 82.4 -286.14 C73.43 -277.86, 59.25 -258.47, 51.22 -247.67 C43.19 -236.87, 44.03 -225.99, 34.24 -221.35 C24.45 -216.71, 3.38 -220.19, -7.51 -219.82 C-18.41 -219.45, -25.27 -222.43, -31.14 -219.12 C-37.01 -215.81, -40.69 -206.97, -42.76 -199.96 C-44.82 -192.96, -43.38 -180.91, -43.5 -177.1 M0 0 C3.45 -8.3, 15.4 -37.23, 20.73 -49.78 C26.06 -62.33, 26.26 -70.53, 31.97 -75.31 C37.68 -80.1, 43.45 -78.02, 54.98 -78.5 C66.51 -78.98, 89.13 -77.94, 101.13 -78.19 C113.13 -78.43, 119.09 -76.57, 126.99 -79.97 C134.88 -83.37, 144.06 -87.63, 148.48 -98.57 C152.89 -109.52, 153.22 -128.33, 153.47 -145.64 C153.73 -162.95, 150.77 -181.81, 150 -202.41 C149.22 -223.02, 151 -254.25, 148.85 -269.28 C146.69 -284.31, 144.39 -287.93, 137.08 -292.61 C129.78 -297.29, 114.13 -298.43, 105.02 -297.36 C95.91 -296.28, 91.37 -294.42, 82.4 -286.14 C73.43 -277.86, 59.25 -258.47, 51.22 -247.67 C43.19 -236.87, 44.03 -225.99, 34.24 -221.35 C24.45 -216.71, 3.38 -220.19, -7.51 -219.82 C-18.41 -219.45, -25.27 -222.43, -31.14 -219.12 C-37.01 -215.81, -40.69 -206.97, -42.76 -199.96 C-44.82 -192.96, -43.38 -180.91, -43.5 -177.1" stroke="#E1E1E1" stroke-width="4" fill="none"></path></g></g><mask></mask><g stroke-linecap="round"><g transform="translate(200.13626443246324 418.46475240299424) rotate(0 -69.30154395536327 -104.71097157843961)"><path d="M0 0 C-2.36 -8.8, -8.03 -33.78, -14.14 -52.77 C-20.25 -71.76, -27.52 -101.55, -36.68 -113.94 C-45.85 -126.33, -57.98 -124.87, -69.13 -127.11 C-80.27 -129.36, -97.63 -121.47, -103.55 -127.42 C-109.47 -133.36, -98.8 -149.13, -104.65 -162.79 C-110.49 -176.46, -132.94 -201.65, -138.6 -209.42 M0 0 C-2.36 -8.8, -8.03 -33.78, -14.14 -52.77 C-20.25 -71.76, -27.52 -101.55, -36.68 -113.94 C-45.85 -126.33, -57.98 -124.87, -69.13 -127.11 C-80.27 -129.36, -97.63 -121.47, -103.55 -127.42 C-109.47 -133.36, -98.8 -149.13, -104.65 -162.79 C-110.49 -176.46, -132.94 -201.65, -138.6 -209.42" stroke="#E1E1E1" stroke-width="4" fill="none"></path></g></g><mask></mask><g stroke-linecap="round"><g transform="translate(300.8519244870582 417.06701183892255) rotate(0 69.42729937484498 -104.90098137336805)"><path d="M0 0 C2.36 -8.81, 8.04 -33.84, 14.17 -52.87 C20.29 -71.89, 27.57 -101.73, 36.75 -114.15 C45.93 -126.56, 58.09 -125.09, 69.25 -127.34 C80.42 -129.59, 97.81 -121.69, 103.74 -127.65 C109.67 -133.61, 98.98 -149.4, 104.83 -163.09 C110.69 -176.78, 133.18 -202.02, 138.85 -209.8 M0 0 C2.36 -8.81, 8.04 -33.84, 14.17 -52.87 C20.29 -71.89, 27.57 -101.73, 36.75 -114.15 C45.93 -126.56, 58.09 -125.09, 69.25 -127.34 C80.42 -129.59, 97.81 -121.69, 103.74 -127.65 C109.67 -133.61, 98.98 -149.4, 104.83 -163.09 C110.69 -176.78, 133.18 -202.02, 138.85 -209.8" stroke="#E1E1E1" stroke-width="4" fill="none"></path></g></g><mask></mask><g stroke-linecap="round"><g transform="translate(404.9526730463764 253.39942573063513) rotate(0 -155.03375501342364 0)"><path d="M0 0 C-51.68 0, -258.39 0, -310.07 0 M0 0 C-51.68 0, -258.39 0, -310.07 0" stroke="#E1E1E1" stroke-width="4" fill="none"></path></g></g><mask></mask><g stroke-linecap="round"><g transform="translate(250.90022261775596 287.6956086566652) rotate(0 0 66.19064349639602)"><path d="M0 0 C0 22.06, 0 110.32, 0 132.38 M0 0 C0 22.06, 0 110.32, 0 132.38" stroke="#E1E1E1" stroke-width="4" fill="none"></path></g></g><mask></mask><g stroke-linecap="round" transform="translate(10.728955474501731 11.124581498137104) rotate(0 44.75058789154698 44.750587891546985)"><path d="M89.5 44.75 C89.5 46.87, 89.35 49.02, 89.05 51.12 C88.74 53.22, 88.29 55.32, 87.69 57.36 C87.09 59.4, 86.34 61.41, 85.46 63.34 C84.58 65.27, 83.54 67.16, 82.4 68.94 C81.25 70.73, 79.96 72.45, 78.57 74.06 C77.18 75.66, 75.66 77.18, 74.06 78.57 C72.45 79.96, 70.73 81.25, 68.94 82.4 C67.16 83.54, 65.27 84.58, 63.34 85.46 C61.41 86.34, 59.4 87.09, 57.36 87.69 C55.32 88.29, 53.22 88.74, 51.12 89.05 C49.02 89.35, 46.87 89.5, 44.75 89.5 C42.63 89.5, 40.48 89.35, 38.38 89.05 C36.28 88.74, 34.18 88.29, 32.14 87.69 C30.11 87.09, 28.09 86.34, 26.16 85.46 C24.23 84.58, 22.34 83.54, 20.56 82.4 C18.77 81.25, 17.05 79.96, 15.45 78.57 C13.84 77.18, 12.32 75.66, 10.93 74.06 C9.54 72.45, 8.25 70.73, 7.1 68.94 C5.96 67.16, 4.93 65.27, 4.04 63.34 C3.16 61.41, 2.41 59.4, 1.81 57.36 C1.21 55.32, 0.76 53.22, 0.46 51.12 C0.15 49.02, 0 46.87, 0 44.75 C0 42.63, 0.15 40.48, 0.46 38.38 C0.76 36.28, 1.21 34.18, 1.81 32.14 C2.41 30.11, 3.16 28.09, 4.04 26.16 C4.93 24.23, 5.96 22.34, 7.1 20.56 C8.25 18.77, 9.54 17.05, 10.93 15.45 C12.32 13.84, 13.84 12.32, 15.45 10.93 C17.05 9.54, 18.77 8.25, 20.56 7.1 C22.34 5.96, 24.23 4.93, 26.16 4.04 C28.09 3.16, 30.11 2.41, 32.14 1.81 C34.18 1.21, 36.28 0.76, 38.38 0.46 C40.48 0.15, 42.63 0, 44.75 0 C46.87 0, 49.02 0.15, 51.12 0.46 C53.22 0.76, 55.32 1.21, 57.36 1.81 C59.4 2.41, 61.41 3.16, 63.34 4.04 C65.27 4.93, 67.16 5.96, 68.94 7.1 C70.73 8.25, 72.45 9.54, 74.06 10.93 C75.66 12.32, 77.18 13.84, 78.57 15.45 C79.96 17.05, 81.25 18.77, 82.4 20.56 C83.54 22.34, 84.58 24.23, 85.46 26.16 C86.34 28.09, 87.09 30.11, 87.69 32.14 C88.29 34.18, 88.74 36.28, 89.05 38.38 C89.35 40.48, 89.43 43.69, 89.5 44.75 C89.58 45.81, 89.58 43.69, 89.5 44.75" stroke="#E1E1E1" stroke-width="4" fill="none"></path></g><g stroke-linecap="round" transform="translate(401.3191488724839 10) rotate(0 44.750587891546985 44.750587891546985)"><path d="M89.5 44.75 C89.5 46.87, 89.35 49.02, 89.05 51.12 C88.74 53.22, 88.29 55.32, 87.69 57.36 C87.09 59.4, 86.34 61.41, 85.46 63.34 C84.58 65.27, 83.54 67.16, 82.4 68.94 C81.25 70.73, 79.96 72.45, 78.57 74.06 C77.18 75.66, 75.66 77.18, 74.06 78.57 C72.45 79.96, 70.73 81.25, 68.94 82.4 C67.16 83.54, 65.27 84.58, 63.34 85.46 C61.41 86.34, 59.4 87.09, 57.36 87.69 C55.32 88.29, 53.22 88.74, 51.12 89.05 C49.02 89.35, 46.87 89.5, 44.75 89.5 C42.63 89.5, 40.48 89.35, 38.38 89.05 C36.28 88.74, 34.18 88.29, 32.14 87.69 C30.11 87.09, 28.09 86.34, 26.16 85.46 C24.23 84.58, 22.34 83.54, 20.56 82.4 C18.77 81.25, 17.05 79.96, 15.45 78.57 C13.84 77.18, 12.32 75.66, 10.93 74.06 C9.54 72.45, 8.25 70.73, 7.1 68.94 C5.96 67.16, 4.93 65.27, 4.04 63.34 C3.16 61.41, 2.41 59.4, 1.81 57.36 C1.21 55.32, 0.76 53.22, 0.46 51.12 C0.15 49.02, 0 46.87, 0 44.75 C0 42.63, 0.15 40.48, 0.46 38.38 C0.76 36.28, 1.21 34.18, 1.81 32.14 C2.41 30.11, 3.16 28.09, 4.04 26.16 C4.93 24.23, 5.96 22.34, 7.1 20.56 C8.25 18.77, 9.54 17.05, 10.93 15.45 C12.32 13.84, 13.84 12.32, 15.45 10.93 C17.05 9.54, 18.77 8.25, 20.56 7.1 C22.34 5.96, 24.23 4.93, 26.16 4.04 C28.09 3.16, 30.11 2.41, 32.14 1.81 C34.18 1.21, 36.28 0.76, 38.38 0.46 C40.48 0.15, 42.63 0, 44.75 0 C46.87 0, 49.02 0.15, 51.12 0.46 C53.22 0.76, 55.32 1.21, 57.36 1.81 C59.4 2.41, 61.41 3.16, 63.34 4.04 C65.27 4.93, 67.16 5.96, 68.94 7.1 C70.73 8.25, 72.45 9.54, 74.06 10.93 C75.66 12.32, 77.18 13.84, 78.57 15.45 C79.96 17.05, 81.25 18.77, 82.4 20.56 C83.54 22.34, 84.58 24.23, 85.46 26.16 C86.34 28.09, 87.09 30.11, 87.69 32.14 C88.29 34.18, 88.74 36.28, 89.05 38.38 C89.35 40.48, 89.43 43.69, 89.5 44.75 C89.58 45.81, 89.58 43.69, 89.5 44.75" stroke="#E1E1E1" stroke-width="4" fill="none"></path></g></svg>