<svg version="1.1" xmlns="http://www.w3.org/2000/svg" viewBox="0 0 838.363413532294 1121.1635268379234" width="838.363413532294" height="1121.1635268379234" class="excalidraw-svg">
  <!-- svg-source:excalidraw -->
  
  <defs>
    <style class="style-fonts">
      
    </style>
    
  </defs>
  <rect x="0" y="0" width="838.363413532294" height="1121.1635268379234" fill="#000000"></rect><g stroke-linecap="round"><g transform="translate(531.9084338450914 845.5728741733906) rotate(0 145.0036559077226 118.5828946815804)"><path d="M0 0 C5.92 12.23, 23.02 52.79, 35.53 73.35 C48.04 93.92, 57.85 106.86, 75.06 123.39 C92.26 139.92, 116.31 156.5, 138.75 172.53 C161.2 188.55, 187.17 204.65, 209.74 219.54 C232.32 234.43, 260.83 256.02, 274.21 261.87 C287.59 267.73, 288.93 259.76, 290.01 254.65 C291.09 249.54, 287 242.36, 280.7 231.19 C274.39 220.03, 268.18 210.9, 252.16 187.68 C236.15 164.47, 203.29 116.84, 184.59 91.9 C165.89 66.95, 156.07 53.19, 139.96 38.01 C123.85 22.83, 106.55 11.29, 87.94 0.84 C69.33 -9.61, 38.24 -20.45, 28.3 -24.71 M0 0 C5.92 12.23, 23.02 52.79, 35.53 73.35 C48.04 93.92, 57.85 106.86, 75.06 123.39 C92.26 139.92, 116.31 156.5, 138.75 172.53 C161.2 188.55, 187.17 204.65, 209.74 219.54 C232.32 234.43, 260.83 256.02, 274.21 261.87 C287.59 267.73, 288.93 259.76, 290.01 254.65 C291.09 249.54, 287 242.36, 280.7 231.19 C274.39 220.03, 268.18 210.9, 252.16 187.68 C236.15 164.47, 203.29 116.84, 184.59 91.9 C165.89 66.95, 156.07 53.19, 139.96 38.01 C123.85 22.83, 106.55 11.29, 87.94 0.84 C69.33 -9.61, 38.24 -20.45, 28.3 -24.71" stroke="#E1E1E1" stroke-width="4" fill="none"></path></g></g><mask></mask><g stroke-linecap="round"><g transform="translate(424.2472167157775 703.7729323278843) rotate(0 68.81803607279878 67.55423061047124)"><path d="M0 0 C4.14 0.69, 13.68 0.48, 24.81 4.13 C35.95 7.78, 52.8 14.78, 66.81 21.92 C80.82 29.06, 97.94 38.23, 108.87 46.97 C119.79 55.7, 127.59 64.46, 132.39 74.31 C137.18 84.16, 140.31 96.31, 137.64 106.06 C134.96 115.8, 127.3 127.92, 116.33 132.76 C105.36 137.6, 83.3 138.22, 71.82 135.11 C60.34 132, 54.39 123.7, 47.45 114.09 C40.51 104.48, 34.68 90.92, 30.16 77.45 C25.65 63.99, 25.37 46.19, 20.34 33.28 C15.31 20.37, 3.39 5.55, 0 0 M0 0 C4.14 0.69, 13.68 0.48, 24.81 4.13 C35.95 7.78, 52.8 14.78, 66.81 21.92 C80.82 29.06, 97.94 38.23, 108.87 46.97 C119.79 55.7, 127.59 64.46, 132.39 74.31 C137.18 84.16, 140.31 96.31, 137.64 106.06 C134.96 115.8, 127.3 127.92, 116.33 132.76 C105.36 137.6, 83.3 138.22, 71.82 135.11 C60.34 132, 54.39 123.7, 47.45 114.09 C40.51 104.48, 34.68 90.92, 30.16 77.45 C25.65 63.99, 25.37 46.19, 20.34 33.28 C15.31 20.37, 3.39 5.55, 0 0" stroke="#E1E1E1" stroke-width="4" fill="none"></path></g></g><mask></mask><g stroke-linecap="round"><g transform="translate(550.0493331910836 901.9259843985936) rotate(0 -30.242139664357126 103.91053931689835)"><path d="M0 0 C-9.74 9.74, -41.71 41.71, -58.43 58.43 C-75.15 75.15, -88.94 88.6, -100.32 100.32 C-111.7 112.04, -121.52 118.74, -126.73 128.76 C-131.93 138.78, -133.18 149.89, -131.54 160.45 C-129.9 171, -124.41 184.18, -116.89 192.08 C-109.37 199.98, -97.11 205.73, -86.44 207.82 C-75.78 209.91, -64.47 210.32, -52.88 204.62 C-41.3 198.92, -37.6 193.45, -16.94 173.62 C3.72 153.79, 56.39 100.29, 71.06 85.63 M0 0 C-9.74 9.74, -41.71 41.71, -58.43 58.43 C-75.15 75.15, -88.94 88.6, -100.32 100.32 C-111.7 112.04, -121.52 118.74, -126.73 128.76 C-131.93 138.78, -133.18 149.89, -131.54 160.45 C-129.9 171, -124.41 184.18, -116.89 192.08 C-109.37 199.98, -97.11 205.73, -86.44 207.82 C-75.78 209.91, -64.47 210.32, -52.88 204.62 C-41.3 198.92, -37.6 193.45, -16.94 173.62 C3.72 153.79, 56.39 100.29, 71.06 85.63" stroke="#E1E1E1" stroke-width="4" fill="none"></path></g></g><mask></mask><g stroke-linecap="round"><g transform="translate(447.2777406758926 1007.3374745981068) rotate(0 36.20382322312628 36.20382322312536)"><path d="M0 0 C12.07 12.07, 60.34 60.34, 72.41 72.41 M0 0 C12.07 12.07, 60.34 60.34, 72.41 72.41" stroke="#E1E1E1" stroke-width="4" fill="none"></path></g></g><mask></mask><g stroke-linecap="round"><g transform="translate(699.458505777715 907.4713253726813) rotate(0 64.45245387728949 -104.0201514823592)"><path d="M0 0 C8.96 -8.96, 40.42 -40.42, 53.78 -53.78 C67.14 -67.14, 73.82 -70.48, 80.18 -80.18 C86.53 -89.88, 86.21 -96.47, 91.92 -111.99 C97.63 -127.5, 108.28 -157.24, 114.44 -173.25 C120.61 -189.26, 126.49 -202.24, 128.9 -208.04 M0 0 C8.96 -8.96, 40.42 -40.42, 53.78 -53.78 C67.14 -67.14, 73.82 -70.48, 80.18 -80.18 C86.53 -89.88, 86.21 -96.47, 91.92 -111.99 C97.63 -127.5, 108.28 -157.24, 114.44 -173.25 C120.61 -189.26, 126.49 -202.24, 128.9 -208.04" stroke="#E1E1E1" stroke-width="4" fill="none"></path></g></g><mask></mask><g stroke-linecap="round"><g transform="translate(610.6455157455233 838.9923757558503) rotate(0 108.82004193155308 -69.62639722269535)"><path d="M0 0 C10.89 -10.14, 49.59 -45.83, 65.33 -60.82 C81.07 -75.81, 84.44 -83.16, 94.43 -89.92 C104.42 -96.69, 111.66 -96.32, 125.26 -101.41 C138.85 -106.51, 160.61 -114.18, 176 -120.49 C191.4 -126.79, 210.7 -136.12, 217.64 -139.25 M0 0 C10.89 -10.14, 49.59 -45.83, 65.33 -60.82 C81.07 -75.81, 84.44 -83.16, 94.43 -89.92 C104.42 -96.69, 111.66 -96.32, 125.26 -101.41 C138.85 -106.51, 160.61 -114.18, 176 -120.49 C191.4 -126.79, 210.7 -136.12, 217.64 -139.25" stroke="#E1E1E1" stroke-width="4" fill="none"></path></g></g><mask></mask><g stroke-linecap="round"><g transform="translate(170.82575785110316 523.7223510238248) rotate(0 -31.69886459225092 -87.0465146673364)"><path d="M0 0 C0 -48.02, 0 -96.03, 0 -162.58 M0 0 C0 -58.68, 0 -117.37, 0 -162.58 M0 -162.58 C-13.47 -170.36, -26.94 -178.14, -63.4 -199.19 M0 -162.58 C-18.67 -173.36, -37.34 -184.14, -63.4 -199.19 M-63.4 -199.19 C-63.4 -139.76, -63.4 -80.33, -63.4 25.09 M-63.4 -199.19 C-63.4 -128.98, -63.4 -58.77, -63.4 25.09" stroke="#FFFFFF" stroke-width="4" fill="none"></path></g></g><mask></mask><g stroke-linecap="round"><g transform="translate(107.68491260377432 324.605708040888) rotate(0 303.7862963450659 -139.02211598402806)"><path d="M0 0 C133.23 -76.92, 266.46 -153.84, 544.91 -314.61 M0 0 C125.96 -72.72, 251.92 -145.45, 544.91 -314.61 M544.91 -314.61 C566.74 -302.01, 588.56 -289.4, 607.57 -278.43 M544.91 -314.61 C568.37 -301.07, 591.82 -287.52, 607.57 -278.43 M607.57 -278.43 C423.21 -171.78, 238.84 -65.13, 63.05 36.56 M607.57 -278.43 C479.28 -204.22, 350.99 -130.01, 63.05 36.56" stroke="#FFFFFF" stroke-width="4" fill="none"></path></g></g><mask></mask><g stroke-linecap="round"><g transform="translate(715.3691679730205 46.59490361495318) rotate(0 0 52.35835836971887)"><path d="M0 0 C0 21.56, 0 43.11, 0 104.72 M0 0 C0 28.87, 0 57.75, 0 104.72" stroke="#FFFFFF" stroke-width="4" fill="none"></path></g></g><mask></mask><g stroke-linecap="round"><g transform="translate(220.59363338525122 390.5023503302027) rotate(0 58.56739961581802 -25.336441447960226)" fill-rule="evenodd"><path d="M0 0 L0 17.44 L117.13 -50.18 L117.13 -68.12 L0 0" stroke="none" stroke-width="0" fill="#FFFFFF" fill-rule="evenodd"></path><path d="M0 0 C0 6.32, 0 12.64, 0 17.44 M0 0 C0 5.7, 0 11.4, 0 17.44 M0 17.44 C44.26 -8.11, 88.52 -33.67, 117.13 -50.18 M0 17.44 C25.82 2.53, 51.65 -12.37, 117.13 -50.18 M117.13 -50.18 C117.13 -56.16, 117.13 -62.15, 117.13 -68.12 M117.13 -50.18 C117.13 -55.6, 117.13 -61.02, 117.13 -68.12 M117.13 -68.12 C83.99 -48.84, 50.85 -29.57, 0 0 M117.13 -68.12 C79.17 -46.04, 41.2 -23.96, 0 0 M0 0 C0 0, 0 0, 0 0 M0 0 C0 0, 0 0, 0 0" stroke="#FFFFFF" stroke-width="4" fill="none"></path></g></g><mask></mask><g stroke-linecap="round"><g transform="translate(379.1482634752799 297.86636936553305) rotate(0 143.769463721112 -73.99224360916747)" fill-rule="evenodd"><path d="M0 0 L0 17.44 L287.54 -146.93 L287.5 -165.43 L0 0" stroke="none" stroke-width="0" fill="#FFFFFF" fill-rule="evenodd"></path><path d="M0 0 C0 5.5, 0 10.99, 0 17.44 M0 0 C0 3.9, 0 7.81, 0 17.44 M0 17.44 C106.44 -43.4, 212.87 -104.24, 287.54 -146.93 M0 17.44 C76.58 -26.33, 153.15 -70.1, 287.54 -146.93 M287.54 -146.93 C287.53 -151.99, 287.52 -157.06, 287.5 -165.43 M287.54 -146.93 C287.53 -151.13, 287.52 -155.33, 287.5 -165.43 M287.5 -165.43 C189.65 -109.13, 91.81 -52.83, 0 0 M287.5 -165.43 C198.59 -114.27, 109.69 -63.12, 0 0 M0 0 C0 0, 0 0, 0 0 M0 0 C0 0, 0 0, 0 0" stroke="#FFFFFF" stroke-width="4" fill="none"></path></g></g><mask></mask><g stroke-linecap="round"><g transform="translate(221.41108083719834 434.4879493744834) rotate(0 143.0484744694907 -74.34394032808956)" fill-rule="evenodd"><path d="M0 0 L0 17.44 L286.06 -147.4 L286.1 -166.13 L0 0" stroke="none" stroke-width="0" fill="#FFFFFF" fill-rule="evenodd"></path><path d="M0 0 C0 5.02, 0 10.03, 0 17.44 M0 0 C0 6.31, 0 12.62, 0 17.44 M0 17.44 C62.12 -18.35, 124.24 -54.15, 286.06 -147.4 M0 17.44 C110.79 -46.4, 221.58 -110.24, 286.06 -147.4 M286.06 -147.4 C286.08 -154.82, 286.09 -162.24, 286.1 -166.13 M286.06 -147.4 C286.07 -151.54, 286.08 -155.68, 286.1 -166.13 M286.1 -166.13 C208.7 -121.19, 131.31 -76.25, 0 0 M286.1 -166.13 C201.87 -117.22, 117.65 -68.32, 0 0 M0 0 C0 0, 0 0, 0 0 M0 0 C0 0, 0 0, 0 0" stroke="#FFFFFF" stroke-width="4" fill="none"></path></g></g><mask></mask><g stroke-linecap="round"><g transform="translate(14.060693688464113 504.7275155172122) rotate(0 400.90427715971566 -39.49624792344639)"><path d="M0 0 C0 7.86, -0.1 36.96, 0 47.15 C0.1 57.34, -0.72 57.43, 0.58 61.13 C1.88 64.82, 1.49 65.14, 7.79 69.33 C14.09 73.52, 21.38 76.66, 38.38 86.25 C55.38 95.84, 89.53 115.18, 109.81 126.89 C130.1 138.59, 146.76 148.75, 160.08 156.48 C173.41 164.21, 181.89 169.99, 189.76 173.25 C197.64 176.51, 201.66 175.81, 207.35 176.06 C213.04 176.31, 218.15 176.21, 223.9 174.75 C229.65 173.29, 235.67 170.47, 241.87 167.29 C248.07 164.11, 244.66 165.23, 261.1 155.68 C277.55 146.12, 297.99 134.51, 340.55 109.97 C383.11 85.42, 460.14 40.92, 516.45 8.41 C572.77 -24.1, 637.81 -61.32, 678.43 -85.11 C719.06 -108.9, 740.82 -122.67, 760.22 -134.35 C779.63 -146.03, 787.96 -149.48, 794.86 -155.2 C801.75 -160.92, 800.41 -161.82, 801.57 -168.66 C802.73 -175.5, 801.8 -188.37, 801.81 -196.24 C801.81 -204.12, 801.63 -209.87, 801.59 -215.91 C801.55 -221.95, 802.02 -228.31, 801.59 -232.46 C801.16 -236.61, 801.49 -237.61, 798.99 -240.8 C796.48 -243.99, 790.43 -249.23, 786.55 -251.61 C782.66 -253.98, 777.5 -254.48, 775.69 -255.06 M0 0 C0 7.86, -0.1 36.96, 0 47.15 C0.1 57.34, -0.72 57.43, 0.58 61.13 C1.88 64.82, 1.49 65.14, 7.79 69.33 C14.09 73.52, 21.38 76.66, 38.38 86.25 C55.38 95.84, 89.53 115.18, 109.81 126.89 C130.1 138.59, 146.76 148.75, 160.08 156.48 C173.41 164.21, 181.89 169.99, 189.76 173.25 C197.64 176.51, 201.66 175.81, 207.35 176.06 C213.04 176.31, 218.15 176.21, 223.9 174.75 C229.65 173.29, 235.67 170.47, 241.87 167.29 C248.07 164.11, 244.66 165.23, 261.1 155.68 C277.55 146.12, 297.99 134.51, 340.55 109.97 C383.11 85.42, 460.14 40.92, 516.45 8.41 C572.77 -24.1, 637.81 -61.32, 678.43 -85.11 C719.06 -108.9, 740.82 -122.67, 760.22 -134.35 C779.63 -146.03, 787.96 -149.48, 794.86 -155.2 C801.75 -160.92, 800.41 -161.82, 801.57 -168.66 C802.73 -175.5, 801.8 -188.37, 801.81 -196.24 C801.81 -204.12, 801.63 -209.87, 801.59 -215.91 C801.55 -221.95, 802.02 -228.31, 801.59 -232.46 C801.16 -236.61, 801.49 -237.61, 798.99 -240.8 C796.48 -243.99, 790.43 -249.23, 786.55 -251.61 C782.66 -253.98, 777.5 -254.48, 775.69 -255.06" stroke="#FFFFFF" stroke-width="4" fill="none"></path></g></g><mask></mask><g stroke-linecap="round"><g transform="translate(788.7274941656041 279.27871984810236) rotate(0 0.024592879372448806 -61.52081658387448)"><path d="M0 0 C0.01 -20.51, 0.04 -102.53, 0.05 -123.04 M0 0 C0.01 -20.51, 0.04 -102.53, 0.05 -123.04" stroke="#FFFFFF" stroke-width="4" fill="none"></path></g></g><mask></mask><g stroke-linecap="round"><g transform="translate(789.28482595107 250.46249096681208) rotate(0 -374.79798710341504 186.15153608738513)" fill-rule="evenodd"><path d="M0 0 C1.37 0.36, 5.54 0.95, 8.21 2.16 C10.87 3.37, 13.48 5.19, 15.99 7.28 C18.5 9.38, 21.71 12.12, 23.26 14.73 C24.82 17.34, 24.96 19.12, 25.32 22.94 C25.67 26.75, 26.28 34.32, 25.4 37.61 C24.52 40.91, 23.6 40.32, 20.04 42.72 C16.48 45.11, 24.88 39.92, 4.03 51.96 C-16.82 64, -66.68 92.5, -105.09 114.96 C-143.5 137.41, -186.77 163.52, -226.43 186.69 C-266.09 209.87, -305.56 232.38, -343.04 254.02 C-380.51 275.66, -419.75 298.65, -451.3 316.52 C-482.84 334.39, -515.3 352.1, -532.31 361.23 C-549.33 370.37, -547.49 369.49, -553.42 371.34 C-559.34 373.18, -562.9 372.45, -567.85 372.3 C-572.81 372.16, -578.34 371.58, -583.15 370.47 C-587.96 369.35, -591.39 368.26, -596.7 365.63 C-602.01 363, -606.1 359.85, -615.04 354.68 C-623.98 349.5, -638.27 341.42, -650.33 334.59 C-662.39 327.77, -674.96 320.92, -687.39 313.71 C-699.82 306.5, -713.01 298.46, -724.94 291.33 C-736.86 284.21, -751.46 275.35, -758.96 270.96 C-766.46 266.57, -767.32 266.59, -769.93 265.02 C-772.55 263.44, -773.83 263.45, -774.67 261.5 C-775.51 259.56, -774.98 256.56, -774.99 253.35 C-775.01 250.14, -775.31 245.15, -774.78 242.25 C-774.25 239.34, -773.68 238.09, -771.81 235.92 C-769.94 233.75, -766.68 231.42, -763.55 229.22 C-760.41 227.03, -756.35 224.7, -752.99 222.73 C-749.63 220.77, -745.14 219.4, -743.4 217.44 C-741.66 215.48, -742.82 212.82, -742.56 210.98 C-742.3 209.15, -743.78 208.37, -741.84 206.43 C-739.91 204.49, -736.38 202.77, -730.97 199.35 C-725.55 195.94, -715.42 189.55, -709.35 185.95 C-703.27 182.35, -698.37 179.91, -694.52 177.75 C-690.68 175.59, -688.31 174.18, -686.3 173 C-684.28 171.81, -683.04 169.83, -682.41 170.66 C-681.78 171.48, -682.46 172.58, -682.52 177.94 C-682.58 183.31, -682.72 195.11, -682.79 202.87 C-682.85 210.63, -682.1 220.17, -682.9 224.48 C-683.7 228.79, -686.04 227.65, -687.59 228.71 C-689.15 229.77, -690.92 229.78, -692.2 230.82 C-693.49 231.86, -694.74 232.55, -695.32 234.93 C-695.9 237.31, -695.62 238.88, -695.68 245.07 C-695.73 251.27, -695.69 265.82, -695.68 272.08 C-695.66 278.35, -694.44 281.3, -695.59 282.67 C-696.75 284.04, -698.11 282.62, -702.6 280.31 C-707.08 278, -717.18 271.76, -722.52 268.82 C-727.87 265.87, -730.93 264.99, -734.66 262.63 C-738.4 260.27, -743.14 257.85, -744.93 254.63 C-746.72 251.42, -744.55 245.1, -745.4 243.33 C-746.25 241.56, -749.02 242.94, -750.03 243.99 C-751.04 245.04, -752.12 248.01, -751.45 249.62 C-750.78 251.22, -747.81 251.81, -746.02 253.63 C-744.23 255.45, -744.02 258.12, -740.71 260.52 C-737.41 262.92, -731.83 264.88, -726.21 268.04 C-720.59 271.19, -712.19 276.86, -706.98 279.46 C-701.77 282.06, -698.19 282.23, -694.97 283.64 C-691.74 285.05, -692.89 284.88, -687.64 287.92 C-682.38 290.96, -672.42 296.7, -663.43 301.9 C-654.44 307.09, -639.78 315.9, -633.68 319.07 C-627.58 322.24, -633.22 320.61, -626.84 320.92 C-620.45 321.23, -603.15 320.92, -595.39 320.92 C-587.62 320.92, -583.23 319.61, -580.26 320.92 C-577.28 322.24, -577.99 324.37, -577.54 328.81 C-577.09 333.26, -578.27 343.67, -577.54 347.6 C-576.81 351.53, -575.99 351.55, -573.14 352.38 C-570.29 353.22, -564.12 352.93, -560.43 352.62 C-556.75 352.32, -554.49 351.91, -551.01 350.55 C-547.53 349.18, -549.41 350.05, -539.53 344.43 C-529.65 338.81, -509.42 327.04, -491.72 316.82 C-474.01 306.6, -454 295.05, -433.3 283.09 C-412.6 271.14, -391.97 259.23, -367.5 245.1 C-343.02 230.97, -311.58 212.82, -286.44 198.3 C-261.3 183.79, -240.17 171.59, -216.66 158.02 C-193.15 144.44, -171.37 132.05, -145.38 116.86 C-119.38 101.67, -83.21 79.99, -60.72 66.86 C-38.23 53.73, -20.5 44.41, -10.45 38.07 C-0.39 31.73, -2.23 32.32, -0.39 28.81 C1.45 25.31, 0.54 21.83, 0.6 17.03 C0.66 12.23, 0.1 2.84, 0 0" stroke="none" stroke-width="0" fill="#FFFFFF" fill-rule="evenodd"></path><path d="M0 0 C1.37 0.36, 5.54 0.95, 8.21 2.16 C10.87 3.37, 13.48 5.19, 15.99 7.28 C18.5 9.38, 21.71 12.12, 23.26 14.73 C24.82 17.34, 24.96 19.12, 25.32 22.94 C25.67 26.75, 26.28 34.32, 25.4 37.61 C24.52 40.91, 23.6 40.32, 20.04 42.72 C16.48 45.11, 24.88 39.92, 4.03 51.96 C-16.82 64, -66.68 92.5, -105.09 114.96 C-143.5 137.41, -186.77 163.52, -226.43 186.69 C-266.09 209.87, -305.56 232.38, -343.04 254.02 C-380.51 275.66, -419.75 298.65, -451.3 316.52 C-482.84 334.39, -515.3 352.1, -532.31 361.23 C-549.33 370.37, -547.49 369.49, -553.42 371.34 C-559.34 373.18, -562.9 372.45, -567.85 372.3 C-572.81 372.16, -578.34 371.58, -583.15 370.47 C-587.96 369.35, -591.39 368.26, -596.7 365.63 C-602.01 363, -606.1 359.85, -615.04 354.68 C-623.98 349.5, -638.27 341.42, -650.33 334.59 C-662.39 327.77, -674.96 320.92, -687.39 313.71 C-699.82 306.5, -713.01 298.46, -724.94 291.33 C-736.86 284.21, -751.46 275.35, -758.96 270.96 C-766.46 266.57, -767.32 266.59, -769.93 265.02 C-772.55 263.44, -773.83 263.45, -774.67 261.5 C-775.51 259.56, -774.98 256.56, -774.99 253.35 C-775.01 250.14, -775.31 245.15, -774.78 242.25 C-774.25 239.34, -773.68 238.09, -771.81 235.92 C-769.94 233.75, -766.68 231.42, -763.55 229.22 C-760.41 227.03, -756.35 224.7, -752.99 222.73 C-749.63 220.77, -745.14 219.4, -743.4 217.44 C-741.66 215.48, -742.82 212.82, -742.56 210.98 C-742.3 209.15, -743.78 208.37, -741.84 206.43 C-739.91 204.49, -736.38 202.77, -730.97 199.35 C-725.55 195.94, -715.42 189.55, -709.35 185.95 C-703.27 182.35, -698.37 179.91, -694.52 177.75 C-690.68 175.59, -688.31 174.18, -686.3 173 C-684.28 171.81, -683.04 169.83, -682.41 170.66 C-681.78 171.48, -682.46 172.58, -682.52 177.94 C-682.58 183.31, -682.72 195.11, -682.79 202.87 C-682.85 210.63, -682.1 220.17, -682.9 224.48 C-683.7 228.79, -686.04 227.65, -687.59 228.71 C-689.15 229.77, -690.92 229.78, -692.2 230.82 C-693.49 231.86, -694.74 232.55, -695.32 234.93 C-695.9 237.31, -695.62 238.88, -695.68 245.07 C-695.73 251.27, -695.69 265.82, -695.68 272.08 C-695.66 278.35, -694.44 281.3, -695.59 282.67 C-696.75 284.04, -698.11 282.62, -702.6 280.31 C-707.08 278, -717.18 271.76, -722.52 268.82 C-727.87 265.87, -730.93 264.99, -734.66 262.63 C-738.4 260.27, -743.14 257.85, -744.93 254.63 C-746.72 251.42, -744.55 245.1, -745.4 243.33 C-746.25 241.56, -749.02 242.94, -750.03 243.99 C-751.04 245.04, -752.12 248.01, -751.45 249.62 C-750.78 251.22, -747.81 251.81, -746.02 253.63 C-744.23 255.45, -744.02 258.12, -740.71 260.52 C-737.41 262.92, -731.83 264.88, -726.21 268.04 C-720.59 271.19, -712.19 276.86, -706.98 279.46 C-701.77 282.06, -698.19 282.23, -694.97 283.64 C-691.74 285.05, -692.89 284.88, -687.64 287.92 C-682.38 290.96, -672.42 296.7, -663.43 301.9 C-654.44 307.09, -639.78 315.9, -633.68 319.07 C-627.58 322.24, -633.22 320.61, -626.84 320.92 C-620.45 321.23, -603.15 320.92, -595.39 320.92 C-587.62 320.92, -583.23 319.61, -580.26 320.92 C-577.28 322.24, -577.99 324.37, -577.54 328.81 C-577.09 333.26, -578.27 343.67, -577.54 347.6 C-576.81 351.53, -575.99 351.55, -573.14 352.38 C-570.29 353.22, -564.12 352.93, -560.43 352.62 C-556.75 352.32, -554.49 351.91, -551.01 350.55 C-547.53 349.18, -549.41 350.05, -539.53 344.43 C-529.65 338.81, -509.42 327.04, -491.72 316.82 C-474.01 306.6, -454 295.05, -433.3 283.09 C-412.6 271.14, -391.97 259.23, -367.5 245.1 C-343.02 230.97, -311.58 212.82, -286.44 198.3 C-261.3 183.79, -240.17 171.59, -216.66 158.02 C-193.15 144.44, -171.37 132.05, -145.38 116.86 C-119.38 101.67, -83.21 79.99, -60.72 66.86 C-38.23 53.73, -20.5 44.41, -10.45 38.07 C-0.39 31.73, -2.23 32.32, -0.39 28.81 C1.45 25.31, 0.54 21.83, 0.6 17.03 C0.66 12.23, 0.1 2.84, 0 0 M0 0 C1.37 0.36, 5.54 0.95, 8.21 2.16 C10.87 3.37, 13.48 5.19, 15.99 7.28 C18.5 9.38, 21.71 12.12, 23.26 14.73 C24.82 17.34, 24.96 19.12, 25.32 22.94 C25.67 26.75, 26.28 34.32, 25.4 37.61 C24.52 40.91, 23.6 40.32, 20.04 42.72 C16.48 45.11, 24.88 39.92, 4.03 51.96 C-16.82 64, -66.68 92.5, -105.09 114.96 C-143.5 137.41, -186.77 163.52, -226.43 186.69 C-266.09 209.87, -305.56 232.38, -343.04 254.02 C-380.51 275.66, -419.75 298.65, -451.3 316.52 C-482.84 334.39, -515.3 352.1, -532.31 361.23 C-549.33 370.37, -547.49 369.49, -553.42 371.34 C-559.34 373.18, -562.9 372.45, -567.85 372.3 C-572.81 372.16, -578.34 371.58, -583.15 370.47 C-587.96 369.35, -591.39 368.26, -596.7 365.63 C-602.01 363, -606.1 359.85, -615.04 354.68 C-623.98 349.5, -638.27 341.42, -650.33 334.59 C-662.39 327.77, -674.96 320.92, -687.39 313.71 C-699.82 306.5, -713.01 298.46, -724.94 291.33 C-736.86 284.21, -751.46 275.35, -758.96 270.96 C-766.46 266.57, -767.32 266.59, -769.93 265.02 C-772.55 263.44, -773.83 263.45, -774.67 261.5 C-775.51 259.56, -774.98 256.56, -774.99 253.35 C-775.01 250.14, -775.31 245.15, -774.78 242.25 C-774.25 239.34, -773.68 238.09, -771.81 235.92 C-769.94 233.75, -766.68 231.42, -763.55 229.22 C-760.41 227.03, -756.35 224.7, -752.99 222.73 C-749.63 220.77, -745.14 219.4, -743.4 217.44 C-741.66 215.48, -742.82 212.82, -742.56 210.98 C-742.3 209.15, -743.78 208.37, -741.84 206.43 C-739.91 204.49, -736.38 202.77, -730.97 199.35 C-725.55 195.94, -715.42 189.55, -709.35 185.95 C-703.27 182.35, -698.37 179.91, -694.52 177.75 C-690.68 175.59, -688.31 174.18, -686.3 173 C-684.28 171.81, -683.04 169.83, -682.41 170.66 C-681.78 171.48, -682.46 172.58, -682.52 177.94 C-682.58 183.31, -682.72 195.11, -682.79 202.87 C-682.85 210.63, -682.1 220.17, -682.9 224.48 C-683.7 228.79, -686.04 227.65, -687.59 228.71 C-689.15 229.77, -690.92 229.78, -692.2 230.82 C-693.49 231.86, -694.74 232.55, -695.32 234.93 C-695.9 237.31, -695.62 238.88, -695.68 245.07 C-695.73 251.27, -695.69 265.82, -695.68 272.08 C-695.66 278.35, -694.44 281.3, -695.59 282.67 C-696.75 284.04, -698.11 282.62, -702.6 280.31 C-707.08 278, -717.18 271.76, -722.52 268.82 C-727.87 265.87, -730.93 264.99, -734.66 262.63 C-738.4 260.27, -743.14 257.85, -744.93 254.63 C-746.72 251.42, -744.55 245.1, -745.4 243.33 C-746.25 241.56, -749.02 242.94, -750.03 243.99 C-751.04 245.04, -752.12 248.01, -751.45 249.62 C-750.78 251.22, -747.81 251.81, -746.02 253.63 C-744.23 255.45, -744.02 258.12, -740.71 260.52 C-737.41 262.92, -731.83 264.88, -726.21 268.04 C-720.59 271.19, -712.19 276.86, -706.98 279.46 C-701.77 282.06, -698.19 282.23, -694.97 283.64 C-691.74 285.05, -692.89 284.88, -687.64 287.92 C-682.38 290.96, -672.42 296.7, -663.43 301.9 C-654.44 307.09, -639.78 315.9, -633.68 319.07 C-627.58 322.24, -633.22 320.61, -626.84 320.92 C-620.45 321.23, -603.15 320.92, -595.39 320.92 C-587.62 320.92, -583.23 319.61, -580.26 320.92 C-577.28 322.24, -577.99 324.37, -577.54 328.81 C-577.09 333.26, -578.27 343.67, -577.54 347.6 C-576.81 351.53, -575.99 351.55, -573.14 352.38 C-570.29 353.22, -564.12 352.93, -560.43 352.62 C-556.75 352.32, -554.49 351.91, -551.01 350.55 C-547.53 349.18, -549.41 350.05, -539.53 344.43 C-529.65 338.81, -509.42 327.04, -491.72 316.82 C-474.01 306.6, -454 295.05, -433.3 283.09 C-412.6 271.14, -391.97 259.23, -367.5 245.1 C-343.02 230.97, -311.58 212.82, -286.44 198.3 C-261.3 183.79, -240.17 171.59, -216.66 158.02 C-193.15 144.44, -171.37 132.05, -145.38 116.86 C-119.38 101.67, -83.21 79.99, -60.72 66.86 C-38.23 53.73, -20.5 44.41, -10.45 38.07 C-0.39 31.73, -2.23 32.32, -0.39 28.81 C1.45 25.31, 0.54 21.83, 0.6 17.03 C0.66 12.23, 0.1 2.84, 0 0" stroke="#FFFFFF" stroke-width="4" fill="none"></path></g></g><mask></mask><g stroke-linecap="round"><g transform="translate(788.9441342149856 156.04811940368177) rotate(0 -313.76983263356067 203.91397748931155)" fill-rule="evenodd"><path d="M0 0 C-4.73 3.26, -16.99 12.24, -28.38 19.54 C-39.77 26.84, -53.69 35.04, -68.34 43.8 C-82.98 52.57, -105.22 65.69, -116.22 72.13 C-127.23 78.58, -130.33 79.82, -134.38 82.48 C-138.43 85.15, -137.87 84.13, -140.53 88.11 C-143.19 92.09, -146.09 98.79, -150.35 106.38 C-154.61 113.97, -161.68 126, -166.1 133.67 C-170.53 141.33, -173.96 147.27, -176.9 152.37 C-179.84 157.46, -181.12 161.07, -183.75 164.23 C-186.38 167.39, -186.51 167.45, -192.69 171.32 C-198.87 175.19, -210.16 181.28, -220.8 187.45 C-231.45 193.62, -244.89 201.45, -256.59 208.34 C-268.28 215.23, -278.06 221.27, -290.99 228.8 C-303.91 236.34, -319.54 245, -334.13 253.56 C-348.72 262.12, -363.67 271.52, -378.53 280.16 C-393.39 288.8, -408.16 296.72, -423.29 305.4 C-438.41 314.09, -452.07 322.41, -469.27 332.27 C-486.47 342.14, -511.61 356.04, -526.49 364.6 C-541.37 373.16, -550.28 378.79, -558.54 383.65 C-566.79 388.5, -572.91 390.86, -576 393.73 C-579.1 396.61, -576.87 396.83, -577.1 400.91 C-577.33 404.99, -577.27 414.02, -577.39 418.21 C-577.51 422.41, -576.51 423.52, -577.82 426.06 C-579.13 428.6, -578.48 433.62, -585.24 433.46 C-592 433.31, -611.34 427.25, -618.39 425.14 C-625.44 423.03, -626.14 422.69, -627.54 420.81 C-628.94 418.92, -626.9 420.21, -626.77 413.82 C-626.64 407.43, -626.77 389.83, -626.77 382.45 C-626.77 375.07, -628.28 372.84, -626.77 369.56 C-625.26 366.28, -623.29 366.28, -617.72 362.75 C-612.15 359.21, -606.8 356.26, -593.32 348.36 C-579.85 340.45, -558.91 328.08, -536.9 315.29 C-514.88 302.5, -485.05 285.36, -461.25 271.62 C-437.44 257.87, -421.72 248.8, -394.06 232.83 C-366.4 216.86, -321.06 190.8, -295.28 175.79 C-269.49 160.78, -250.59 150.42, -239.36 142.77 C-228.13 135.11, -231.78 135.22, -227.92 129.87 C-224.06 124.52, -221.17 119.19, -216.18 110.68 C-211.18 102.17, -202.62 87.05, -197.93 78.81 C-193.25 70.58, -190.44 65.11, -188.05 61.28 C-185.66 57.45, -187.36 58.51, -183.6 55.84 C-179.83 53.16, -175.45 51.02, -165.44 45.22 C-155.44 39.42, -136.79 28.68, -123.57 21.05 C-110.36 13.42, -97.42 5.95, -86.15 -0.56 C-74.88 -7.06, -63.13 -13.82, -55.94 -18 C-48.75 -22.18, -46.38 -24.68, -42.99 -25.64 C-39.6 -26.6, -38.83 -25.18, -35.61 -23.75 C-32.38 -22.32, -27.81 -19.48, -23.66 -17.07 C-19.51 -14.66, -14.65 -12.12, -10.7 -9.28 C-6.76 -6.43, -1.78 -1.55, 0 0" stroke="none" stroke-width="0" fill="#FFFFFF" fill-rule="evenodd"></path><path d="M0 0 C-4.73 3.26, -16.99 12.24, -28.38 19.54 C-39.77 26.84, -53.69 35.04, -68.34 43.8 C-82.98 52.57, -105.22 65.69, -116.22 72.13 C-127.23 78.58, -130.33 79.82, -134.38 82.48 C-138.43 85.15, -137.87 84.13, -140.53 88.11 C-143.19 92.09, -146.09 98.79, -150.35 106.38 C-154.61 113.97, -161.68 126, -166.1 133.67 C-170.53 141.33, -173.96 147.27, -176.9 152.37 C-179.84 157.46, -181.12 161.07, -183.75 164.23 C-186.38 167.39, -186.51 167.45, -192.69 171.32 C-198.87 175.19, -210.16 181.28, -220.8 187.45 C-231.45 193.62, -244.89 201.45, -256.59 208.34 C-268.28 215.23, -278.06 221.27, -290.99 228.8 C-303.91 236.34, -319.54 245, -334.13 253.56 C-348.72 262.12, -363.67 271.52, -378.53 280.16 C-393.39 288.8, -408.16 296.72, -423.29 305.4 C-438.41 314.09, -452.07 322.41, -469.27 332.27 C-486.47 342.14, -511.61 356.04, -526.49 364.6 C-541.37 373.16, -550.28 378.79, -558.54 383.65 C-566.79 388.5, -572.91 390.86, -576 393.73 C-579.1 396.61, -576.87 396.83, -577.1 400.91 C-577.33 404.99, -577.27 414.02, -577.39 418.21 C-577.51 422.41, -576.51 423.52, -577.82 426.06 C-579.13 428.6, -578.48 433.62, -585.24 433.46 C-592 433.31, -611.34 427.25, -618.39 425.14 C-625.44 423.03, -626.14 422.69, -627.54 420.81 C-628.94 418.92, -626.9 420.21, -626.77 413.82 C-626.64 407.43, -626.77 389.83, -626.77 382.45 C-626.77 375.07, -628.28 372.84, -626.77 369.56 C-625.26 366.28, -623.29 366.28, -617.72 362.75 C-612.15 359.21, -606.8 356.26, -593.32 348.36 C-579.85 340.45, -558.91 328.08, -536.9 315.29 C-514.88 302.5, -485.05 285.36, -461.25 271.62 C-437.44 257.87, -421.72 248.8, -394.06 232.83 C-366.4 216.86, -321.06 190.8, -295.28 175.79 C-269.49 160.78, -250.59 150.42, -239.36 142.77 C-228.13 135.11, -231.78 135.22, -227.92 129.87 C-224.06 124.52, -221.17 119.19, -216.18 110.68 C-211.18 102.17, -202.62 87.05, -197.93 78.81 C-193.25 70.58, -190.44 65.11, -188.05 61.28 C-185.66 57.45, -187.36 58.51, -183.6 55.84 C-179.83 53.16, -175.45 51.02, -165.44 45.22 C-155.44 39.42, -136.79 28.68, -123.57 21.05 C-110.36 13.42, -97.42 5.95, -86.15 -0.56 C-74.88 -7.06, -63.13 -13.82, -55.94 -18 C-48.75 -22.18, -46.38 -24.68, -42.99 -25.64 C-39.6 -26.6, -38.83 -25.18, -35.61 -23.75 C-32.38 -22.32, -27.81 -19.48, -23.66 -17.07 C-19.51 -14.66, -14.65 -12.12, -10.7 -9.28 C-6.76 -6.43, -1.78 -1.55, 0 0 M0 0 C-4.73 3.26, -16.99 12.24, -28.38 19.54 C-39.77 26.84, -53.69 35.04, -68.34 43.8 C-82.98 52.57, -105.22 65.69, -116.22 72.13 C-127.23 78.58, -130.33 79.82, -134.38 82.48 C-138.43 85.15, -137.87 84.13, -140.53 88.11 C-143.19 92.09, -146.09 98.79, -150.35 106.38 C-154.61 113.97, -161.68 126, -166.1 133.67 C-170.53 141.33, -173.96 147.27, -176.9 152.37 C-179.84 157.46, -181.12 161.07, -183.75 164.23 C-186.38 167.39, -186.51 167.45, -192.69 171.32 C-198.87 175.19, -210.16 181.28, -220.8 187.45 C-231.45 193.62, -244.89 201.45, -256.59 208.34 C-268.28 215.23, -278.06 221.27, -290.99 228.8 C-303.91 236.34, -319.54 245, -334.13 253.56 C-348.72 262.12, -363.67 271.52, -378.53 280.16 C-393.39 288.8, -408.16 296.72, -423.29 305.4 C-438.41 314.09, -452.07 322.41, -469.27 332.27 C-486.47 342.14, -511.61 356.04, -526.49 364.6 C-541.37 373.16, -550.28 378.79, -558.54 383.65 C-566.79 388.5, -572.91 390.86, -576 393.73 C-579.1 396.61, -576.87 396.83, -577.1 400.91 C-577.33 404.99, -577.27 414.02, -577.39 418.21 C-577.51 422.41, -576.51 423.52, -577.82 426.06 C-579.13 428.6, -578.48 433.62, -585.24 433.46 C-592 433.31, -611.34 427.25, -618.39 425.14 C-625.44 423.03, -626.14 422.69, -627.54 420.81 C-628.94 418.92, -626.9 420.21, -626.77 413.82 C-626.64 407.43, -626.77 389.83, -626.77 382.45 C-626.77 375.07, -628.28 372.84, -626.77 369.56 C-625.26 366.28, -623.29 366.28, -617.72 362.75 C-612.15 359.21, -606.8 356.26, -593.32 348.36 C-579.85 340.45, -558.91 328.08, -536.9 315.29 C-514.88 302.5, -485.05 285.36, -461.25 271.62 C-437.44 257.87, -421.72 248.8, -394.06 232.83 C-366.4 216.86, -321.06 190.8, -295.28 175.79 C-269.49 160.78, -250.59 150.42, -239.36 142.77 C-228.13 135.11, -231.78 135.22, -227.92 129.87 C-224.06 124.52, -221.17 119.19, -216.18 110.68 C-211.18 102.17, -202.62 87.05, -197.93 78.81 C-193.25 70.58, -190.44 65.11, -188.05 61.28 C-185.66 57.45, -187.36 58.51, -183.6 55.84 C-179.83 53.16, -175.45 51.02, -165.44 45.22 C-155.44 39.42, -136.79 28.68, -123.57 21.05 C-110.36 13.42, -97.42 5.95, -86.15 -0.56 C-74.88 -7.06, -63.13 -13.82, -55.94 -18 C-48.75 -22.18, -46.38 -24.68, -42.99 -25.64 C-39.6 -26.6, -38.83 -25.18, -35.61 -23.75 C-32.38 -22.32, -27.81 -19.48, -23.66 -17.07 C-19.51 -14.66, -14.65 -12.12, -10.7 -9.28 C-6.76 -6.43, -1.78 -1.55, 0 0" stroke="#FFFFFF" stroke-width="4" fill="none"></path></g></g><mask></mask><g stroke-linecap="round"><g transform="translate(109.1130134870104 624.7397269526904) rotate(0 0 42.48553537631932)"><path d="M0 0 C0 14.16, 0 70.81, 0 84.97 M0 0 C0 14.16, 0 70.81, 0 84.97" stroke="#FFFFFF" stroke-width="4" fill="none"></path></g></g><mask></mask><g stroke-linecap="round"><g transform="translate(787.0974545331701 363.63728840642557) rotate(0 0 38.925174803889604)"><path d="M0 0 C0 12.98, 0 64.88, 0 77.85 M0 0 C0 12.98, 0 64.88, 0 77.85" stroke="#FFFFFF" stroke-width="4" fill="none"></path></g></g><mask></mask><g stroke-linecap="round"><g transform="translate(787.3782583141772 437.8812590436992) rotate(0 -374.4352060641489 151.51025493384432)" fill-rule="evenodd"><path d="M0 0 C0 -3.54, -0.08 -15.46, -0.02 -21.26 C0.04 -27.05, -0.42 -32.7, 0.38 -34.78 C1.19 -36.87, 1.72 -35.1, 4.8 -33.78 C7.87 -32.45, 15.39 -29.18, 18.84 -26.83 C22.29 -24.48, 24.06 -21.8, 25.51 -19.68 C26.97 -17.55, 27.14 -17.2, 27.57 -14.08 C27.99 -10.96, 28.03 -4.31, 28.07 -0.96 C28.1 2.39, 29.16 4.04, 27.78 6 C26.4 7.96, 29.18 5.35, 19.78 10.81 C10.37 16.27, -5 25.11, -28.64 38.76 C-52.29 52.41, -95.9 77.59, -122.08 92.71 C-148.26 107.82, -160.56 114.92, -185.7 129.44 C-210.84 143.95, -243.15 162.61, -272.92 179.79 C-302.69 196.98, -329.9 212.69, -364.31 232.56 C-398.73 252.43, -452.02 283.2, -479.39 299 C-506.76 314.8, -517.8 321.2, -528.51 327.36 C-539.22 333.51, -538.69 334.17, -543.63 335.92 C-548.58 337.66, -552.94 337.54, -558.19 337.8 C-563.44 338.06, -569.5 338.42, -575.12 337.47 C-580.74 336.53, -584.46 335.76, -591.9 332.11 C-599.34 328.46, -609.81 321.34, -619.77 315.57 C-629.74 309.8, -638.7 304.92, -651.69 297.5 C-664.69 290.08, -682.94 279.45, -697.74 271.04 C-712.54 262.62, -729.35 253.44, -740.48 247.01 C-751.61 240.58, -758.96 235.92, -764.53 232.45 C-770.1 228.98, -771.82 227.73, -773.89 226.19 C-775.95 224.64, -776.66 225.19, -776.94 223.19 C-777.21 221.18, -775.89 216.71, -775.54 214.16 C-775.18 211.6, -775.77 210.24, -774.81 207.85 C-773.84 205.47, -772.56 202.65, -769.74 199.87 C-766.91 197.09, -761.82 193.55, -757.86 191.17 C-753.9 188.8, -748.75 187.03, -745.99 185.61 C-743.23 184.18, -742.12 184.55, -741.32 182.62 C-740.51 180.69, -741.19 178.07, -741.16 174.03 C-741.13 169.98, -741.09 162.22, -741.14 158.35 C-741.19 154.49, -742.47 151.49, -741.46 150.82 C-740.46 150.15, -740.09 151.55, -735.13 154.34 C-730.17 157.13, -717.16 164.41, -711.71 167.54 C-706.27 170.67, -705.17 171.5, -702.46 173.11 C-699.74 174.72, -696.68 173.96, -695.43 177.18 C-694.19 180.41, -695.06 186.46, -694.99 192.44 C-694.92 198.42, -694.99 205.47, -694.99 213.08 C-694.99 220.68, -694.99 231.88, -694.99 238.08 C-694.99 244.28, -694 249.27, -694.99 250.26 C-695.99 251.24, -700.01 245.13, -700.96 243.99 C-701.92 242.84, -698.49 244.66, -700.73 243.41 C-702.97 242.15, -709.7 239.13, -714.4 236.46 C-719.1 233.79, -725.28 229.53, -728.92 227.39 C-732.56 225.24, -733.97 224.91, -736.23 223.59 C-738.5 222.27, -741.59 221.06, -742.53 219.49 C-743.46 217.92, -741.74 216.2, -741.82 214.16 C-741.9 212.11, -742.05 208.2, -742.98 207.22 C-743.92 206.24, -746.42 207.41, -747.44 208.26 C-748.45 209.12, -748.94 210.96, -749.05 212.35 C-749.17 213.73, -749.24 215.3, -748.1 216.59 C-746.96 217.87, -744.96 218.24, -742.22 220.05 C-739.48 221.86, -735.44 224.92, -731.65 227.46 C-727.86 229.99, -723.57 232.91, -719.49 235.26 C-715.41 237.61, -710.38 239.94, -707.19 241.56 C-704 243.19, -701.54 244.34, -700.36 245.02 C-699.18 245.69, -701.04 244.51, -700.08 245.62 C-699.12 246.73, -695.55 251.12, -694.61 251.69 C-693.66 252.26, -695.37 249.26, -694.43 249.06 C-693.48 248.85, -696.82 245.96, -688.92 250.47 C-681.02 254.98, -666.19 265.05, -647.03 276.12 C-627.86 287.18, -594.07 312.47, -573.93 316.86 C-553.8 321.25, -542.52 309.61, -526.22 302.45 C-509.92 295.29, -495.21 285.01, -476.14 273.91 C-457.06 262.82, -447.36 256.41, -411.75 235.88 C-376.15 215.34, -331.11 190.02, -262.49 150.7 C-193.86 111.39, -43.75 25.12, 0 0" stroke="none" stroke-width="0" fill="#FFFFFF" fill-rule="evenodd"></path><path d="M0 0 C0 -3.54, -0.08 -15.46, -0.02 -21.26 C0.04 -27.05, -0.42 -32.7, 0.38 -34.78 C1.19 -36.87, 1.72 -35.1, 4.8 -33.78 C7.87 -32.45, 15.39 -29.18, 18.84 -26.83 C22.29 -24.48, 24.06 -21.8, 25.51 -19.68 C26.97 -17.55, 27.14 -17.2, 27.57 -14.08 C27.99 -10.96, 28.03 -4.31, 28.07 -0.96 C28.1 2.39, 29.16 4.04, 27.78 6 C26.4 7.96, 29.18 5.35, 19.78 10.81 C10.37 16.27, -5 25.11, -28.64 38.76 C-52.29 52.41, -95.9 77.59, -122.08 92.71 C-148.26 107.82, -160.56 114.92, -185.7 129.44 C-210.84 143.95, -243.15 162.61, -272.92 179.79 C-302.69 196.98, -329.9 212.69, -364.31 232.56 C-398.73 252.43, -452.02 283.2, -479.39 299 C-506.76 314.8, -517.8 321.2, -528.51 327.36 C-539.22 333.51, -538.69 334.17, -543.63 335.92 C-548.58 337.66, -552.94 337.54, -558.19 337.8 C-563.44 338.06, -569.5 338.42, -575.12 337.47 C-580.74 336.53, -584.46 335.76, -591.9 332.11 C-599.34 328.46, -609.81 321.34, -619.77 315.57 C-629.74 309.8, -638.7 304.92, -651.69 297.5 C-664.69 290.08, -682.94 279.45, -697.74 271.04 C-712.54 262.62, -729.35 253.44, -740.48 247.01 C-751.61 240.58, -758.96 235.92, -764.53 232.45 C-770.1 228.98, -771.82 227.73, -773.89 226.19 C-775.95 224.64, -776.66 225.19, -776.94 223.19 C-777.21 221.18, -775.89 216.71, -775.54 214.16 C-775.18 211.6, -775.77 210.24, -774.81 207.85 C-773.84 205.47, -772.56 202.65, -769.74 199.87 C-766.91 197.09, -761.82 193.55, -757.86 191.17 C-753.9 188.8, -748.75 187.03, -745.99 185.61 C-743.23 184.18, -742.12 184.55, -741.32 182.62 C-740.51 180.69, -741.19 178.07, -741.16 174.03 C-741.13 169.98, -741.09 162.22, -741.14 158.35 C-741.19 154.49, -742.47 151.49, -741.46 150.82 C-740.46 150.15, -740.09 151.55, -735.13 154.34 C-730.17 157.13, -717.16 164.41, -711.71 167.54 C-706.27 170.67, -705.17 171.5, -702.46 173.11 C-699.74 174.72, -696.68 173.96, -695.43 177.18 C-694.19 180.41, -695.06 186.46, -694.99 192.44 C-694.92 198.42, -694.99 205.47, -694.99 213.08 C-694.99 220.68, -694.99 231.88, -694.99 238.08 C-694.99 244.28, -694 249.27, -694.99 250.26 C-695.99 251.24, -700.01 245.13, -700.96 243.99 C-701.92 242.84, -698.49 244.66, -700.73 243.41 C-702.97 242.15, -709.7 239.13, -714.4 236.46 C-719.1 233.79, -725.28 229.53, -728.92 227.39 C-732.56 225.24, -733.97 224.91, -736.23 223.59 C-738.5 222.27, -741.59 221.06, -742.53 219.49 C-743.46 217.92, -741.74 216.2, -741.82 214.16 C-741.9 212.11, -742.05 208.2, -742.98 207.22 C-743.92 206.24, -746.42 207.41, -747.44 208.26 C-748.45 209.12, -748.94 210.96, -749.05 212.35 C-749.17 213.73, -749.24 215.3, -748.1 216.59 C-746.96 217.87, -744.96 218.24, -742.22 220.05 C-739.48 221.86, -735.44 224.92, -731.65 227.46 C-727.86 229.99, -723.57 232.91, -719.49 235.26 C-715.41 237.61, -710.38 239.94, -707.19 241.56 C-704 243.19, -701.54 244.34, -700.36 245.02 C-699.18 245.69, -701.04 244.51, -700.08 245.62 C-699.12 246.73, -695.55 251.12, -694.61 251.69 C-693.66 252.26, -695.37 249.26, -694.43 249.06 C-693.48 248.85, -696.82 245.96, -688.92 250.47 C-681.02 254.98, -666.19 265.05, -647.03 276.12 C-627.86 287.18, -594.07 312.47, -573.93 316.86 C-553.8 321.25, -542.52 309.61, -526.22 302.45 C-509.92 295.29, -495.21 285.01, -476.14 273.91 C-457.06 262.82, -447.36 256.41, -411.75 235.88 C-376.15 215.34, -331.11 190.02, -262.49 150.7 C-193.86 111.39, -43.75 25.12, 0 0 M0 0 C0 -3.54, -0.08 -15.46, -0.02 -21.26 C0.04 -27.05, -0.42 -32.7, 0.38 -34.78 C1.19 -36.87, 1.72 -35.1, 4.8 -33.78 C7.87 -32.45, 15.39 -29.18, 18.84 -26.83 C22.29 -24.48, 24.06 -21.8, 25.51 -19.68 C26.97 -17.55, 27.14 -17.2, 27.57 -14.08 C27.99 -10.96, 28.03 -4.31, 28.07 -0.96 C28.1 2.39, 29.16 4.04, 27.78 6 C26.4 7.96, 29.18 5.35, 19.78 10.81 C10.37 16.27, -5 25.11, -28.64 38.76 C-52.29 52.41, -95.9 77.59, -122.08 92.71 C-148.26 107.82, -160.56 114.92, -185.7 129.44 C-210.84 143.95, -243.15 162.61, -272.92 179.79 C-302.69 196.98, -329.9 212.69, -364.31 232.56 C-398.73 252.43, -452.02 283.2, -479.39 299 C-506.76 314.8, -517.8 321.2, -528.51 327.36 C-539.22 333.51, -538.69 334.17, -543.63 335.92 C-548.58 337.66, -552.94 337.54, -558.19 337.8 C-563.44 338.06, -569.5 338.42, -575.12 337.47 C-580.74 336.53, -584.46 335.76, -591.9 332.11 C-599.34 328.46, -609.81 321.34, -619.77 315.57 C-629.74 309.8, -638.7 304.92, -651.69 297.5 C-664.69 290.08, -682.94 279.45, -697.74 271.04 C-712.54 262.62, -729.35 253.44, -740.48 247.01 C-751.61 240.58, -758.96 235.92, -764.53 232.45 C-770.1 228.98, -771.82 227.73, -773.89 226.19 C-775.95 224.64, -776.66 225.19, -776.94 223.19 C-777.21 221.18, -775.89 216.71, -775.54 214.16 C-775.18 211.6, -775.77 210.24, -774.81 207.85 C-773.84 205.47, -772.56 202.65, -769.74 199.87 C-766.91 197.09, -761.82 193.55, -757.86 191.17 C-753.9 188.8, -748.75 187.03, -745.99 185.61 C-743.23 184.18, -742.12 184.55, -741.32 182.62 C-740.51 180.69, -741.19 178.07, -741.16 174.03 C-741.13 169.98, -741.09 162.22, -741.14 158.35 C-741.19 154.49, -742.47 151.49, -741.46 150.82 C-740.46 150.15, -740.09 151.55, -735.13 154.34 C-730.17 157.13, -717.16 164.41, -711.71 167.54 C-706.27 170.67, -705.17 171.5, -702.46 173.11 C-699.74 174.72, -696.68 173.96, -695.43 177.18 C-694.19 180.41, -695.06 186.46, -694.99 192.44 C-694.92 198.42, -694.99 205.47, -694.99 213.08 C-694.99 220.68, -694.99 231.88, -694.99 238.08 C-694.99 244.28, -694 249.27, -694.99 250.26 C-695.99 251.24, -700.01 245.13, -700.96 243.99 C-701.92 242.84, -698.49 244.66, -700.73 243.41 C-702.97 242.15, -709.7 239.13, -714.4 236.46 C-719.1 233.79, -725.28 229.53, -728.92 227.39 C-732.56 225.24, -733.97 224.91, -736.23 223.59 C-738.5 222.27, -741.59 221.06, -742.53 219.49 C-743.46 217.92, -741.74 216.2, -741.82 214.16 C-741.9 212.11, -742.05 208.2, -742.98 207.22 C-743.92 206.24, -746.42 207.41, -747.44 208.26 C-748.45 209.12, -748.94 210.96, -749.05 212.35 C-749.17 213.73, -749.24 215.3, -748.1 216.59 C-746.96 217.87, -744.96 218.24, -742.22 220.05 C-739.48 221.86, -735.44 224.92, -731.65 227.46 C-727.86 229.99, -723.57 232.91, -719.49 235.26 C-715.41 237.61, -710.38 239.94, -707.19 241.56 C-704 243.19, -701.54 244.34, -700.36 245.02 C-699.18 245.69, -701.04 244.51, -700.08 245.62 C-699.12 246.73, -695.55 251.12, -694.61 251.69 C-693.66 252.26, -695.37 249.26, -694.43 249.06 C-693.48 248.85, -696.82 245.96, -688.92 250.47 C-681.02 254.98, -666.19 265.05, -647.03 276.12 C-627.86 287.18, -594.07 312.47, -573.93 316.86 C-553.8 321.25, -542.52 309.61, -526.22 302.45 C-509.92 295.29, -495.21 285.01, -476.14 273.91 C-457.06 262.82, -447.36 256.41, -411.75 235.88 C-376.15 215.34, -331.11 190.02, -262.49 150.7 C-193.86 111.39, -43.75 25.12, 0 0" stroke="#FFFFFF" stroke-width="4" fill="none"></path></g></g><mask></mask><g stroke-linecap="round"><g transform="translate(211.51852005828508 757.2993704313797) rotate(0 -24.615522355536086 -50.521880277665076)" fill-rule="evenodd"><path d="M0 0 C0 -7.28, 0 -32.39, 0 -43.7 C0 -55.01, 0 -62.54, 0 -67.86 C0 -73.18, 0.93 -74.02, 0 -75.59 C-0.93 -77.16, -3.35 -76.42, -5.6 -77.28 C-7.85 -78.15, -9.88 -78.92, -13.51 -80.77 C-17.15 -82.62, -23.2 -85.97, -27.43 -88.39 C-31.65 -90.81, -35.39 -93.19, -38.89 -95.3 C-42.39 -97.41, -46.69 -101.41, -48.41 -101.04 C-50.14 -100.68, -49.09 -105.93, -49.23 -93.11 C-49.37 -80.3, -50.6 -36.2, -49.23 -24.14 C-47.86 -12.09, -45.45 -23.86, -41.02 -20.78 C-36.6 -17.7, -29.52 -9.13, -22.68 -5.67 C-15.84 -2.21, -3.78 -0.95, 0 0" stroke="none" stroke-width="0" fill="#FFFFFF" fill-rule="evenodd"></path><path d="M0 0 C0 -7.28, 0 -32.39, 0 -43.7 C0 -55.01, 0 -62.54, 0 -67.86 C0 -73.18, 0.93 -74.02, 0 -75.59 C-0.93 -77.16, -3.35 -76.42, -5.6 -77.28 C-7.85 -78.15, -9.88 -78.92, -13.51 -80.77 C-17.15 -82.62, -23.2 -85.97, -27.43 -88.39 C-31.65 -90.81, -35.39 -93.19, -38.89 -95.3 C-42.39 -97.41, -46.69 -101.41, -48.41 -101.04 C-50.14 -100.68, -49.09 -105.93, -49.23 -93.11 C-49.37 -80.3, -50.6 -36.2, -49.23 -24.14 C-47.86 -12.09, -45.45 -23.86, -41.02 -20.78 C-36.6 -17.7, -29.52 -9.13, -22.68 -5.67 C-15.84 -2.21, -3.78 -0.95, 0 0 M0 0 C0 -7.28, 0 -32.39, 0 -43.7 C0 -55.01, 0 -62.54, 0 -67.86 C0 -73.18, 0.93 -74.02, 0 -75.59 C-0.93 -77.16, -3.35 -76.42, -5.6 -77.28 C-7.85 -78.15, -9.88 -78.92, -13.51 -80.77 C-17.15 -82.62, -23.2 -85.97, -27.43 -88.39 C-31.65 -90.81, -35.39 -93.19, -38.89 -95.3 C-42.39 -97.41, -46.69 -101.41, -48.41 -101.04 C-50.14 -100.68, -49.09 -105.93, -49.23 -93.11 C-49.37 -80.3, -50.6 -36.2, -49.23 -24.14 C-47.86 -12.09, -45.45 -23.86, -41.02 -20.78 C-36.6 -17.7, -29.52 -9.13, -22.68 -5.67 C-15.84 -2.21, -3.78 -0.95, 0 0" stroke="#FFFFFF" stroke-width="4" fill="none"></path></g></g><mask></mask><g stroke-linecap="round"><g transform="translate(108.92243277138554 775.7919365231267) rotate(0 31.46619455524198 112.21003080511001)"><path d="M0 0 C0 15.2, 0 67.17, 0 91.23 C0 115.29, -1.05 130.65, 0 144.36 C1.05 158.07, 2.47 163.98, 6.28 173.49 C10.09 183, 17.07 194.28, 22.85 201.4 C28.63 208.52, 34.26 212.36, 40.95 216.2 C47.63 220.04, 59.27 223.05, 62.93 224.42 M0 0 C0 15.2, 0 67.17, 0 91.23 C0 115.29, -1.05 130.65, 0 144.36 C1.05 158.07, 2.47 163.98, 6.28 173.49 C10.09 183, 17.07 194.28, 22.85 201.4 C28.63 208.52, 34.26 212.36, 40.95 216.2 C47.63 220.04, 59.27 223.05, 62.93 224.42" stroke="#FFFFFF" stroke-width="4" fill="none"></path></g></g><mask></mask><g stroke-linecap="round"><g transform="translate(45.06264776963644 740.0864161336472) rotate(0 83.49054642144698 156.7558354245626)" fill-rule="evenodd"><path d="M0 0 C0 7.35, -0.02 28.34, 0 44.1 C0.02 59.87, 0.06 74.96, 0.13 94.57 C0.2 114.18, 0.24 146.27, 0.45 161.77 C0.65 177.27, -0.53 177.48, 1.35 187.57 C3.23 197.66, 7.1 211.64, 11.74 222.31 C16.38 232.98, 23.79 243.04, 29.18 251.58 C34.57 260.13, 37.92 266.43, 44.08 273.58 C50.23 280.73, 60.56 289.83, 66.1 294.5 C71.65 299.18, 73.11 299.23, 77.36 301.63 C81.6 304.02, 87.03 307.01, 91.58 308.9 C96.12 310.79, 99.52 312.2, 104.61 312.97 C109.7 313.74, 116.68 314.24, 122.12 313.51 C127.56 312.79, 131.89 311.27, 137.23 308.63 C142.57 305.99, 149.25 300.84, 154.17 297.67 C159.08 294.49, 165.76 291.68, 166.74 289.58 C167.72 287.47, 160.97 286.68, 160.03 285.04 C159.09 283.41, 160.37 283.49, 161.11 279.76 C161.84 276.03, 163.57 271.19, 164.44 262.65 C165.32 254.11, 166.05 241.79, 166.34 228.54 C166.62 215.28, 166.06 196.41, 166.17 183.11 C166.27 169.81, 166.93 159.16, 166.98 148.75 C167.03 138.35, 166.55 129.01, 166.46 120.67 C166.38 112.33, 166.46 103.37, 166.46 98.73 C166.46 94.1, 167.33 94.09, 166.46 92.85 C165.59 91.61, 164.07 92.35, 161.25 91.3 C158.44 90.25, 153.66 88.42, 149.57 86.55 C145.49 84.67, 140.73 82.11, 136.73 80.02 C132.73 77.94, 128.57 75.62, 125.55 74.03 C122.54 72.44, 119.88 69.34, 118.63 70.48 C117.39 71.63, 118.2 72.28, 118.11 80.89 C118.02 89.49, 118.11 104.83, 118.11 122.13 C118.11 139.42, 118.11 165.58, 118.11 184.64 C118.11 203.7, 119.01 225.7, 118.11 236.48 C117.21 247.27, 116.43 246.25, 112.72 249.35 C109 252.45, 100.46 254.68, 95.82 255.1 C91.17 255.52, 88.57 253.86, 84.86 251.86 C81.15 249.85, 77.54 247.19, 73.56 243.05 C69.58 238.91, 64.52 232.52, 60.99 227.01 C57.45 221.5, 54.53 215.22, 52.34 209.99 C50.14 204.76, 48.69 201.78, 47.82 195.66 C46.95 189.54, 47.25 181.28, 47.13 173.27 C47 165.26, 47.07 160.86, 47.06 147.61 C47.04 134.35, 47.06 111.01, 47.06 93.75 C47.06 76.49, 47.06 54.3, 47.06 44.05 C47.06 33.8, 47.06 35.03, 47.06 32.26 C47.06 29.48, 47.82 28.7, 47.06 27.39 C46.29 26.08, 45 25.91, 42.47 24.4 C39.95 22.88, 36.6 20.97, 31.91 18.31 C27.22 15.66, 19.52 11.26, 14.32 8.46 C9.11 5.66, 2.93 2.66, 0.66 1.5" stroke="none" stroke-width="0" fill="#FFFFFF" fill-rule="evenodd"></path><path d="M0 0 C0 7.35, -0.02 28.34, 0 44.1 C0.02 59.87, 0.06 74.96, 0.13 94.57 C0.2 114.18, 0.24 146.27, 0.45 161.77 C0.65 177.27, -0.53 177.48, 1.35 187.57 C3.23 197.66, 7.1 211.64, 11.74 222.31 C16.38 232.98, 23.79 243.04, 29.18 251.58 C34.57 260.13, 37.92 266.43, 44.08 273.58 C50.23 280.73, 60.56 289.83, 66.1 294.5 C71.65 299.18, 73.11 299.23, 77.36 301.63 C81.6 304.02, 87.03 307.01, 91.58 308.9 C96.12 310.79, 99.52 312.2, 104.61 312.97 C109.7 313.74, 116.68 314.24, 122.12 313.51 C127.56 312.79, 131.89 311.27, 137.23 308.63 C142.57 305.99, 149.25 300.84, 154.17 297.67 C159.08 294.49, 165.76 291.68, 166.74 289.58 C167.72 287.47, 160.97 286.68, 160.03 285.04 C159.09 283.41, 160.37 283.49, 161.11 279.76 C161.84 276.03, 163.57 271.19, 164.44 262.65 C165.32 254.11, 166.05 241.79, 166.34 228.54 C166.62 215.28, 166.06 196.41, 166.17 183.11 C166.27 169.81, 166.93 159.16, 166.98 148.75 C167.03 138.35, 166.55 129.01, 166.46 120.67 C166.38 112.33, 166.46 103.37, 166.46 98.73 C166.46 94.1, 167.33 94.09, 166.46 92.85 C165.59 91.61, 164.07 92.35, 161.25 91.3 C158.44 90.25, 153.66 88.42, 149.57 86.55 C145.49 84.67, 140.73 82.11, 136.73 80.02 C132.73 77.94, 128.57 75.62, 125.55 74.03 C122.54 72.44, 119.88 69.34, 118.63 70.48 C117.39 71.63, 118.2 72.28, 118.11 80.89 C118.02 89.49, 118.11 104.83, 118.11 122.13 C118.11 139.42, 118.11 165.58, 118.11 184.64 C118.11 203.7, 119.01 225.7, 118.11 236.48 C117.21 247.27, 116.43 246.25, 112.72 249.35 C109 252.45, 100.46 254.68, 95.82 255.1 C91.17 255.52, 88.57 253.86, 84.86 251.86 C81.15 249.85, 77.54 247.19, 73.56 243.05 C69.58 238.91, 64.52 232.52, 60.99 227.01 C57.45 221.5, 54.53 215.22, 52.34 209.99 C50.14 204.76, 48.69 201.78, 47.82 195.66 C46.95 189.54, 47.25 181.28, 47.13 173.27 C47 165.26, 47.07 160.86, 47.06 147.61 C47.04 134.35, 47.06 111.01, 47.06 93.75 C47.06 76.49, 47.06 54.3, 47.06 44.05 C47.06 33.8, 47.06 35.03, 47.06 32.26 C47.06 29.48, 47.82 28.7, 47.06 27.39 C46.29 26.08, 45 25.91, 42.47 24.4 C39.95 22.88, 36.6 20.97, 31.91 18.31 C27.22 15.66, 19.52 11.26, 14.32 8.46 C9.11 5.66, 2.93 2.66, 0.66 1.5 M0 0 C0 7.35, -0.02 28.34, 0 44.1 C0.02 59.87, 0.06 74.96, 0.13 94.57 C0.2 114.18, 0.24 146.27, 0.45 161.77 C0.65 177.27, -0.53 177.48, 1.35 187.57 C3.23 197.66, 7.1 211.64, 11.74 222.31 C16.38 232.98, 23.79 243.04, 29.18 251.58 C34.57 260.13, 37.92 266.43, 44.08 273.58 C50.23 280.73, 60.56 289.83, 66.1 294.5 C71.65 299.18, 73.11 299.23, 77.36 301.63 C81.6 304.02, 87.03 307.01, 91.58 308.9 C96.12 310.79, 99.52 312.2, 104.61 312.97 C109.7 313.74, 116.68 314.24, 122.12 313.51 C127.56 312.79, 131.89 311.27, 137.23 308.63 C142.57 305.99, 149.25 300.84, 154.17 297.67 C159.08 294.49, 165.76 291.68, 166.74 289.58 C167.72 287.47, 160.97 286.68, 160.03 285.04 C159.09 283.41, 160.37 283.49, 161.11 279.76 C161.84 276.03, 163.57 271.19, 164.44 262.65 C165.32 254.11, 166.05 241.79, 166.34 228.54 C166.62 215.28, 166.06 196.41, 166.17 183.11 C166.27 169.81, 166.93 159.16, 166.98 148.75 C167.03 138.35, 166.55 129.01, 166.46 120.67 C166.38 112.33, 166.46 103.37, 166.46 98.73 C166.46 94.1, 167.33 94.09, 166.46 92.85 C165.59 91.61, 164.07 92.35, 161.25 91.3 C158.44 90.25, 153.66 88.42, 149.57 86.55 C145.49 84.67, 140.73 82.11, 136.73 80.02 C132.73 77.94, 128.57 75.62, 125.55 74.03 C122.54 72.44, 119.88 69.34, 118.63 70.48 C117.39 71.63, 118.2 72.28, 118.11 80.89 C118.02 89.49, 118.11 104.83, 118.11 122.13 C118.11 139.42, 118.11 165.58, 118.11 184.64 C118.11 203.7, 119.01 225.7, 118.11 236.48 C117.21 247.27, 116.43 246.25, 112.72 249.35 C109 252.45, 100.46 254.68, 95.82 255.1 C91.17 255.52, 88.57 253.86, 84.86 251.86 C81.15 249.85, 77.54 247.19, 73.56 243.05 C69.58 238.91, 64.52 232.52, 60.99 227.01 C57.45 221.5, 54.53 215.22, 52.34 209.99 C50.14 204.76, 48.69 201.78, 47.82 195.66 C46.95 189.54, 47.25 181.28, 47.13 173.27 C47 165.26, 47.07 160.86, 47.06 147.61 C47.04 134.35, 47.06 111.01, 47.06 93.75 C47.06 76.49, 47.06 54.3, 47.06 44.05 C47.06 33.8, 47.06 35.03, 47.06 32.26 C47.06 29.48, 47.82 28.7, 47.06 27.39 C46.29 26.08, 45 25.91, 42.47 24.4 C39.95 22.88, 36.6 20.97, 31.91 18.31 C27.22 15.66, 19.52 11.26, 14.32 8.46 C9.11 5.66, 2.93 2.66, 0.66 1.5" stroke="#FFFFFF" stroke-width="4" fill="none"></path></g></g><mask></mask><g stroke-linecap="round"><g transform="translate(9.999999999999972 660.2767487959491) rotate(0 201.95079602171785 85.71835281774095)"><path d="M0 0 C0.54 8.3, -0.51 37.92, 3.24 49.81 C7 61.69, 10.35 62.72, 22.54 71.3 C34.72 79.87, 53.8 88.1, 76.38 101.23 C98.95 114.35, 137.43 138.43, 157.98 150.05 C178.53 161.66, 186.84 167.34, 199.68 170.91 C212.53 174.47, 221.15 176.12, 235.05 171.44 C248.95 166.76, 258.76 156.72, 283.09 142.82 C307.41 128.91, 360.89 99.36, 381.02 88 C401.16 76.64, 400.09 76.89, 403.9 74.66 M0 0 C0.54 8.3, -0.51 37.92, 3.24 49.81 C7 61.69, 10.35 62.72, 22.54 71.3 C34.72 79.87, 53.8 88.1, 76.38 101.23 C98.95 114.35, 137.43 138.43, 157.98 150.05 C178.53 161.66, 186.84 167.34, 199.68 170.91 C212.53 174.47, 221.15 176.12, 235.05 171.44 C248.95 166.76, 258.76 156.72, 283.09 142.82 C307.41 128.91, 360.89 99.36, 381.02 88 C401.16 76.64, 400.09 76.89, 403.9 74.66" stroke="#FFFFFF" stroke-width="4" fill="none"></path></g></g><mask></mask><g stroke-linecap="round"><g transform="translate(501.2585041001056 683.8779636210484) rotate(0 157.0063922925924 -141.59331601788517)"><path d="M0 0 C15.16 -8.65, 52.68 -29.45, 90.97 -51.9 C129.25 -74.35, 193.73 -113.27, 229.7 -134.7 C265.67 -156.13, 292.76 -167.02, 306.81 -180.49 C320.86 -193.96, 312.93 -205.01, 314.01 -215.51 C315.1 -226.02, 314.37 -234.6, 313.31 -243.51 C312.25 -252.42, 312.21 -262.38, 307.66 -268.99 C303.1 -275.6, 289.6 -280.82, 285.98 -283.19 M0 0 C15.16 -8.65, 52.68 -29.45, 90.97 -51.9 C129.25 -74.35, 193.73 -113.27, 229.7 -134.7 C265.67 -156.13, 292.76 -167.02, 306.81 -180.49 C320.86 -193.96, 312.93 -205.01, 314.01 -215.51 C315.1 -226.02, 314.37 -234.6, 313.31 -243.51 C312.25 -252.42, 312.21 -262.38, 307.66 -268.99 C303.1 -275.6, 289.6 -280.82, 285.98 -283.19" stroke="#FFFFFF" stroke-width="4" fill="none"></path></g></g><mask></mask><g stroke-linecap="round"><g transform="translate(135.36119429644333 1051.8665784983186) rotate(0 149.55875814616837 -75.38380439453026)"><path d="M0 0 C6.06 0.14, 19.94 6.55, 36.35 0.86 C52.76 -4.82, 68.5 -16.64, 98.46 -34.1 C128.42 -51.56, 182.69 -84.31, 216.13 -103.9 C249.58 -123.49, 285.29 -143.68, 299.12 -151.63 M0 0 C6.06 0.14, 19.94 6.55, 36.35 0.86 C52.76 -4.82, 68.5 -16.64, 98.46 -34.1 C128.42 -51.56, 182.69 -84.31, 216.13 -103.9 C249.58 -123.49, 285.29 -143.68, 299.12 -151.63" stroke="#FFFFFF" stroke-width="4" fill="none"></path></g></g><mask></mask><g stroke-linecap="round"><g transform="translate(786.974284547317 519.4432302498074) rotate(0 -13.519452953379073 96.0143821029242)"><path d="M0 0 C-0.03 15.41, 0.04 66.76, -0.21 92.44 C-0.45 118.13, 0.7 138.83, -1.47 154.1 C-3.65 169.37, -8.98 177.73, -13.24 184.05 C-17.5 190.38, -24.74 190.7, -27.04 192.03 M0 0 C-0.03 15.41, 0.04 66.76, -0.21 92.44 C-0.45 118.13, 0.7 138.83, -1.47 154.1 C-3.65 169.37, -8.98 177.73, -13.24 184.05 C-17.5 190.38, -24.74 190.7, -27.04 192.03" stroke="#FFFFFF" stroke-width="4" fill="none"></path></g></g><mask></mask></svg>