<svg version="1.1" xmlns="http://www.w3.org/2000/svg" viewBox="0 0 342.49738748457867 248.7601696003192" width="342.49738748457867" height="248.7601696003192" class="excalidraw-svg"><!-- svg-source:excalidraw --><metadata></metadata><defs><style class="style-fonts">
      </style></defs><rect x="0" y="0" width="342.49738748457867" height="248.7601696003192" fill="#000000"></rect><g stroke-linecap="round"><g transform="translate(74.0130298747996 67.27730517474464) rotate(0 35.50530774770675 15.444415832313695)"><path d="M0 0 C5.05 -0.02, 21.55 -0.1, 30.33 -0.13 C39.1 -0.15, 47.36 -0.13, 52.65 -0.13 C57.94 -0.13, 59.91 -0.13, 62.07 -0.13 C64.22 -0.13, 64.52 -0.22, 65.56 -0.13 C66.61 -0.03, 67.45 -0.08, 68.31 0.46 C69.17 1, 70.28 2.1, 70.73 3.1 C71.18 4.11, 71.08 5.25, 71.01 6.49 C70.94 7.72, 70.92 8.54, 70.33 10.5 C69.73 12.46, 68.74 15.91, 67.43 18.23 C66.13 20.56, 64.21 22.8, 62.47 24.45 C60.74 26.1, 58.9 27.15, 57 28.14 C55.11 29.12, 54.41 29.89, 51.1 30.37 C47.79 30.85, 42.12 30.92, 37.13 31.01 C32.15 31.1, 25.97 30.93, 21.21 30.91 C16.44 30.89, 10.64 30.89, 8.53 30.89 M0 0 C5.05 -0.02, 21.55 -0.1, 30.33 -0.13 C39.1 -0.15, 47.36 -0.13, 52.65 -0.13 C57.94 -0.13, 59.91 -0.13, 62.07 -0.13 C64.22 -0.13, 64.52 -0.22, 65.56 -0.13 C66.61 -0.03, 67.45 -0.08, 68.31 0.46 C69.17 1, 70.28 2.1, 70.73 3.1 C71.18 4.11, 71.08 5.25, 71.01 6.49 C70.94 7.72, 70.92 8.54, 70.33 10.5 C69.73 12.46, 68.74 15.91, 67.43 18.23 C66.13 20.56, 64.21 22.8, 62.47 24.45 C60.74 26.1, 58.9 27.15, 57 28.14 C55.11 29.12, 54.41 29.89, 51.1 30.37 C47.79 30.85, 42.12 30.92, 37.13 31.01 C32.15 31.1, 25.97 30.93, 21.21 30.91 C16.44 30.89, 10.64 30.89, 8.53 30.89" stroke="#E1E1E1" stroke-width="2" fill="none"></path></g></g><mask></mask><g stroke-linecap="round"><g transform="translate(82.45730169527144 98.2024685486397) rotate(0 -25.810094656271303 70.16542192677036)"><path d="M0 0 C0 2.3, 0 8.54, 0 13.81 C0 19.09, 0 23.32, 0 31.63 C0 39.95, 0 49.44, 0 63.69 C0 77.93, 0 106.66, 0 117.12 C0 127.57, 0.13 124.09, 0 126.41 C-0.13 128.73, -0.1 129.54, -0.78 131.04 C-1.45 132.53, -2.69 134.05, -4.04 135.38 C-5.4 136.71, -7.33 138.19, -8.9 139.02 C-10.47 139.84, -11.82 140.15, -13.45 140.33 C-15.08 140.51, -17.23 140.31, -18.68 140.08 C-20.13 139.86, -21.01 139.57, -22.18 138.97 C-23.34 138.37, -24.7 136.58, -25.68 136.47 C-26.66 136.37, -27.01 137.75, -28.04 138.32 C-29.06 138.89, -30.29 139.58, -31.82 139.9 C-33.36 140.21, -35.57 140.3, -37.27 140.2 C-38.98 140.09, -40.56 139.85, -42.04 139.27 C-43.52 138.69, -45.01 137.62, -46.15 136.72 C-47.3 135.82, -48.13 134.9, -48.91 133.88 C-49.68 132.85, -50.36 132.04, -50.81 130.57 C-51.26 129.09, -51.49 129.69, -51.62 125.01 C-51.76 120.33, -51.62 108.84, -51.62 102.48 C-51.62 96.13, -51.62 91.29, -51.62 86.89 C-51.62 82.48, -51.62 78.61, -51.62 76.07 C-51.62 73.54, -51.62 72.41, -51.62 71.68 M0 0 C0 2.3, 0 8.54, 0 13.81 C0 19.09, 0 23.32, 0 31.63 C0 39.95, 0 49.44, 0 63.69 C0 77.93, 0 106.66, 0 117.12 C0 127.57, 0.13 124.09, 0 126.41 C-0.13 128.73, -0.1 129.54, -0.78 131.04 C-1.45 132.53, -2.69 134.05, -4.04 135.38 C-5.4 136.71, -7.33 138.19, -8.9 139.02 C-10.47 139.84, -11.82 140.15, -13.45 140.33 C-15.08 140.51, -17.23 140.31, -18.68 140.08 C-20.13 139.86, -21.01 139.57, -22.18 138.97 C-23.34 138.37, -24.7 136.58, -25.68 136.47 C-26.66 136.37, -27.01 137.75, -28.04 138.32 C-29.06 138.89, -30.29 139.58, -31.82 139.9 C-33.36 140.21, -35.57 140.3, -37.27 140.2 C-38.98 140.09, -40.56 139.85, -42.04 139.27 C-43.52 138.69, -45.01 137.62, -46.15 136.72 C-47.3 135.82, -48.13 134.9, -48.91 133.88 C-49.68 132.85, -50.36 132.04, -50.81 130.57 C-51.26 129.09, -51.49 129.69, -51.62 125.01 C-51.76 120.33, -51.62 108.84, -51.62 102.48 C-51.62 96.13, -51.62 91.29, -51.62 86.89 C-51.62 82.48, -51.62 78.61, -51.62 76.07 C-51.62 73.54, -51.62 72.41, -51.62 71.68" stroke="#E1E1E1" stroke-width="2" fill="none"></path></g></g><mask></mask><g stroke-linecap="round"><g transform="translate(30.7765429185215 169.9451390126474) rotate(0 -5.929734553536093 -50.6514652323809)"><path d="M0 0 C-0.29 0.1, -0.89 0.46, -1.77 0.61 C-2.64 0.76, -3.9 0.93, -5.23 0.9 C-6.55 0.86, -8.33 0.77, -9.72 0.39 C-11.11 0.01, -12.41 -0.62, -13.57 -1.38 C-14.73 -2.14, -15.79 -3.24, -16.67 -4.2 C-17.55 -5.16, -18.26 -6.02, -18.87 -7.14 C-19.47 -8.27, -20.02 -9.34, -20.32 -10.95 C-20.63 -12.55, -20.64 -12.65, -20.7 -16.76 C-20.76 -20.87, -20.7 -28.41, -20.7 -35.6 C-20.7 -42.78, -20.7 -54.44, -20.7 -59.89 C-20.7 -65.35, -20.87 -65.74, -20.7 -68.3 C-20.52 -70.87, -20.35 -72.73, -19.65 -75.27 C-18.95 -77.81, -17.9 -80.94, -16.5 -83.53 C-15.09 -86.13, -13.06 -88.74, -11.21 -90.84 C-9.36 -92.93, -7.45 -94.62, -5.39 -96.11 C-3.33 -97.61, -0.58 -98.95, 1.16 -99.82 C2.9 -100.7, 3.77 -100.98, 5.05 -101.37 C6.33 -101.77, 8.21 -102.06, 8.84 -102.2 M0 0 C-0.29 0.1, -0.89 0.46, -1.77 0.61 C-2.64 0.76, -3.9 0.93, -5.23 0.9 C-6.55 0.86, -8.33 0.77, -9.72 0.39 C-11.11 0.01, -12.41 -0.62, -13.57 -1.38 C-14.73 -2.14, -15.79 -3.24, -16.67 -4.2 C-17.55 -5.16, -18.26 -6.02, -18.87 -7.14 C-19.47 -8.27, -20.02 -9.34, -20.32 -10.95 C-20.63 -12.55, -20.64 -12.65, -20.7 -16.76 C-20.76 -20.87, -20.7 -28.41, -20.7 -35.6 C-20.7 -42.78, -20.7 -54.44, -20.7 -59.89 C-20.7 -65.35, -20.87 -65.74, -20.7 -68.3 C-20.52 -70.87, -20.35 -72.73, -19.65 -75.27 C-18.95 -77.81, -17.9 -80.94, -16.5 -83.53 C-15.09 -86.13, -13.06 -88.74, -11.21 -90.84 C-9.36 -92.93, -7.45 -94.62, -5.39 -96.11 C-3.33 -97.61, -0.58 -98.95, 1.16 -99.82 C2.9 -100.7, 3.77 -100.98, 5.05 -101.37 C6.33 -101.77, 8.21 -102.06, 8.84 -102.2" stroke="#E1E1E1" stroke-width="2" fill="none"></path></g></g><mask></mask><g stroke-linecap="round"><g transform="translate(39.69964643786011 67.67075849914264) rotate(0 17.08750715507699 -23.574699687577095)"><path d="M0 0 C-0.27 -0.29, -1.06 -0.83, -1.6 -1.75 C-2.14 -2.68, -2.89 -3.98, -3.23 -5.56 C-3.58 -7.14, -3.6 -7.82, -3.67 -11.22 C-3.74 -14.62, -3.69 -22.9, -3.67 -25.98 C-3.65 -29.06, -3.81 -28.23, -3.54 -29.68 C-3.27 -31.13, -2.97 -32.79, -2.05 -34.68 C-1.13 -36.56, 0.36 -39.23, 1.99 -40.99 C3.62 -42.75, 5.65 -44.22, 7.72 -45.25 C9.8 -46.27, 12.17 -46.85, 14.42 -47.15 C16.68 -47.45, 19.04 -47.5, 21.26 -47.04 C23.47 -46.57, 26.02 -45.29, 27.73 -44.38 C29.43 -43.47, 30.26 -42.78, 31.47 -41.57 C32.68 -40.35, 34.05 -38.74, 35 -37.08 C35.95 -35.43, 36.69 -33.71, 37.17 -31.64 C37.64 -29.58, 37.73 -28.18, 37.84 -24.7 C37.96 -21.22, 37.92 -13.83, 37.84 -10.77 C37.77 -7.7, 37.71 -7.65, 37.41 -6.28 C37.11 -4.92, 36.58 -3.57, 36.06 -2.57 C35.54 -1.58, 34.58 -0.69, 34.28 -0.32 M0 0 C-0.27 -0.29, -1.06 -0.83, -1.6 -1.75 C-2.14 -2.68, -2.89 -3.98, -3.23 -5.56 C-3.58 -7.14, -3.6 -7.82, -3.67 -11.22 C-3.74 -14.62, -3.69 -22.9, -3.67 -25.98 C-3.65 -29.06, -3.81 -28.23, -3.54 -29.68 C-3.27 -31.13, -2.97 -32.79, -2.05 -34.68 C-1.13 -36.56, 0.36 -39.23, 1.99 -40.99 C3.62 -42.75, 5.65 -44.22, 7.72 -45.25 C9.8 -46.27, 12.17 -46.85, 14.42 -47.15 C16.68 -47.45, 19.04 -47.5, 21.26 -47.04 C23.47 -46.57, 26.02 -45.29, 27.73 -44.38 C29.43 -43.47, 30.26 -42.78, 31.47 -41.57 C32.68 -40.35, 34.05 -38.74, 35 -37.08 C35.95 -35.43, 36.69 -33.71, 37.17 -31.64 C37.64 -29.58, 37.73 -28.18, 37.84 -24.7 C37.96 -21.22, 37.92 -13.83, 37.84 -10.77 C37.77 -7.7, 37.71 -7.65, 37.41 -6.28 C37.11 -4.92, 36.58 -3.57, 36.06 -2.57 C35.54 -1.58, 34.58 -0.69, 34.28 -0.32" stroke="#E1E1E1" stroke-width="2" fill="none"></path></g></g><mask></mask><g stroke-linecap="round"><g transform="translate(91.12745194557817 87.9470735865857) rotate(0 21.40552238999379 -5.190061411409687)"><path d="M0 0 C3.32 0, 15.46 0, 19.9 0 C24.35 0, 24.56 0.05, 26.67 0 C28.78 -0.05, 30.78 0.17, 32.57 -0.31 C34.37 -0.8, 36.1 -1.95, 37.42 -2.92 C38.75 -3.88, 39.64 -4.85, 40.54 -6.09 C41.43 -7.34, 42.43 -9.67, 42.81 -10.38 M0 0 C3.32 0, 15.46 0, 19.9 0 C24.35 0, 24.56 0.05, 26.67 0 C28.78 -0.05, 30.78 0.17, 32.57 -0.31 C34.37 -0.8, 36.1 -1.95, 37.42 -2.92 C38.75 -3.88, 39.64 -4.85, 40.54 -6.09 C41.43 -7.34, 42.43 -9.67, 42.81 -10.38" stroke="#E1E1E1" stroke-width="2" fill="none"></path></g></g><mask></mask><g stroke-linecap="round"><g transform="translate(134.04040745044722 77.37244018421703) rotate(0 -56.84625220159711 41.75403670246493)"><path d="M0 0 C-6.66 0, -30.05 0, -39.94 0 C-49.84 0, -52.36 0, -59.38 0 C-66.41 0, -76.95 0, -82.11 0 C-87.27 0, -88.19 -0.18, -90.34 0 C-92.49 0.18, -93.45 0.59, -95.03 1.1 C-96.62 1.61, -98.21 2.18, -99.83 3.06 C-101.45 3.93, -103.27 5.07, -104.74 6.35 C-106.2 7.62, -107.49 9.15, -108.62 10.71 C-109.76 12.27, -110.76 13.91, -111.52 15.72 C-112.29 17.53, -112.87 19.57, -113.23 21.57 C-113.59 23.57, -113.61 24.67, -113.69 27.72 C-113.77 30.76, -113.69 33.6, -113.69 39.84 C-113.69 46.07, -113.69 58.86, -113.69 65.14 C-113.69 71.42, -113.82 74.89, -113.69 77.53 C-113.56 80.16, -113.38 80.06, -112.91 80.97 C-112.43 81.87, -111.6 82.54, -110.83 82.97 C-110.06 83.39, -109.19 83.57, -108.29 83.51 C-107.4 83.45, -106.26 83.18, -105.46 82.61 C-104.67 82.04, -103.91 81.68, -103.54 80.08 C-103.17 78.49, -103.28 78.55, -103.23 73.02 C-103.17 67.5, -103.23 55.62, -103.23 46.95 C-103.23 38.27, -103.23 25.3, -103.23 20.97 M0 0 C-6.66 0, -30.05 0, -39.94 0 C-49.84 0, -52.36 0, -59.38 0 C-66.41 0, -76.95 0, -82.11 0 C-87.27 0, -88.19 -0.18, -90.34 0 C-92.49 0.18, -93.45 0.59, -95.03 1.1 C-96.62 1.61, -98.21 2.18, -99.83 3.06 C-101.45 3.93, -103.27 5.07, -104.74 6.35 C-106.2 7.62, -107.49 9.15, -108.62 10.71 C-109.76 12.27, -110.76 13.91, -111.52 15.72 C-112.29 17.53, -112.87 19.57, -113.23 21.57 C-113.59 23.57, -113.61 24.67, -113.69 27.72 C-113.77 30.76, -113.69 33.6, -113.69 39.84 C-113.69 46.07, -113.69 58.86, -113.69 65.14 C-113.69 71.42, -113.82 74.89, -113.69 77.53 C-113.56 80.16, -113.38 80.06, -112.91 80.97 C-112.43 81.87, -111.6 82.54, -110.83 82.97 C-110.06 83.39, -109.19 83.57, -108.29 83.51 C-107.4 83.45, -106.26 83.18, -105.46 82.61 C-104.67 82.04, -103.91 81.68, -103.54 80.08 C-103.17 78.49, -103.28 78.55, -103.23 73.02 C-103.17 67.5, -103.23 55.62, -103.23 46.95 C-103.23 38.27, -103.23 25.3, -103.23 20.97" stroke="#E1E1E1" stroke-width="2" fill="none"></path></g></g><mask></mask><g stroke-linecap="round"><g transform="translate(30.932906553341923 98.34988269879713) rotate(0 5.034584625033631 0)"><path d="M0 0 C1.68 0, 8.39 0, 10.07 0 M0 0 C1.68 0, 8.39 0, 10.07 0" stroke="#E1E1E1" stroke-width="2" fill="none"></path></g></g><mask></mask><g stroke-linecap="round"><g transform="translate(41.166456382023966 98.36095895818801) rotate(0 5.2689078459226835 65.01514823355869)"><path d="M0 0 C0 4.38, 0 18.93, 0 26.29 C0 33.65, 0 35.25, 0 44.17 C0 53.1, 0 71.23, 0 79.84 C0 88.44, 0 89.87, 0 95.8 C0 101.73, 0 110.59, 0 115.39 C0 120.19, -0.18 122.49, 0 124.59 C0.18 126.69, 0.51 127.1, 1.09 127.97 C1.67 128.85, 2.59 129.5, 3.47 129.84 C4.35 130.18, 5.56 130.18, 6.39 130.03 C7.21 129.88, 7.84 129.49, 8.42 128.95 C9 128.41, 9.52 127.75, 9.87 126.8 C10.23 125.85, 10.43 124.97, 10.54 123.24 C10.65 121.51, 10.54 122.42, 10.54 116.43 C10.54 110.44, 10.54 94.58, 10.54 87.31 C10.54 80.04, 10.54 75.23, 10.54 72.82 M0 0 C0 4.38, 0 18.93, 0 26.29 C0 33.65, 0 35.25, 0 44.17 C0 53.1, 0 71.23, 0 79.84 C0 88.44, 0 89.87, 0 95.8 C0 101.73, 0 110.59, 0 115.39 C0 120.19, -0.18 122.49, 0 124.59 C0.18 126.69, 0.51 127.1, 1.09 127.97 C1.67 128.85, 2.59 129.5, 3.47 129.84 C4.35 130.18, 5.56 130.18, 6.39 130.03 C7.21 129.88, 7.84 129.49, 8.42 128.95 C9 128.41, 9.52 127.75, 9.87 126.8 C10.23 125.85, 10.43 124.97, 10.54 123.24 C10.65 121.51, 10.54 122.42, 10.54 116.43 C10.54 110.44, 10.54 94.58, 10.54 87.31 C10.54 80.04, 10.54 75.23, 10.54 72.82" stroke="#E1E1E1" stroke-width="2" fill="none"></path></g></g><mask></mask><g stroke-linecap="round"><g transform="translate(51.69341804582211 171.1998488702724) rotate(0 5.107470274912714 0)"><path d="M0 0 C1.7 0, 8.51 0, 10.21 0 M0 0 C1.7 0, 8.51 0, 10.21 0" stroke="#E1E1E1" stroke-width="2" fill="none"></path></g></g><mask></mask><g stroke-linecap="round"><g transform="translate(62.04017709012021 171.31792848308905) rotate(0 14.59753787470288 -13.126076649287626)"><path d="M0 0 C0 1.32, 0 2.63, 0 7.89 C0 13.16, 0 24.48, 0 31.59 C0 38.7, -0.16 46.64, 0 50.54 C0.16 54.44, 0.25 53.88, 0.94 54.97 C1.62 56.06, 3.05 56.78, 4.13 57.1 C5.21 57.42, 6.55 57.17, 7.42 56.9 C8.28 56.63, 8.81 56.07, 9.3 55.49 C9.79 54.9, 10.18 54.63, 10.36 53.41 C10.53 52.19, 10.36 51.6, 10.36 48.16 C10.36 44.71, 10.36 42.53, 10.36 32.74 C10.36 22.94, 10.36 4.23, 10.36 -10.63 C10.36 -25.5, 10.36 -46.23, 10.36 -56.46 C10.36 -66.69, 10.36 -68.58, 10.36 -72.03 C10.36 -75.47, 10.31 -75.83, 10.36 -77.14 C10.41 -78.45, 10.37 -79.06, 10.66 -79.89 C10.96 -80.72, 11.58 -81.58, 12.13 -82.12 C12.68 -82.66, 13.16 -82.93, 13.97 -83.12 C14.79 -83.3, 14.48 -83.18, 17.02 -83.22 C19.55 -83.26, 27.17 -83.33, 29.2 -83.35 M0 0 C0 1.32, 0 2.63, 0 7.89 C0 13.16, 0 24.48, 0 31.59 C0 38.7, -0.16 46.64, 0 50.54 C0.16 54.44, 0.25 53.88, 0.94 54.97 C1.62 56.06, 3.05 56.78, 4.13 57.1 C5.21 57.42, 6.55 57.17, 7.42 56.9 C8.28 56.63, 8.81 56.07, 9.3 55.49 C9.79 54.9, 10.18 54.63, 10.36 53.41 C10.53 52.19, 10.36 51.6, 10.36 48.16 C10.36 44.71, 10.36 42.53, 10.36 32.74 C10.36 22.94, 10.36 4.23, 10.36 -10.63 C10.36 -25.5, 10.36 -46.23, 10.36 -56.46 C10.36 -66.69, 10.36 -68.58, 10.36 -72.03 C10.36 -75.47, 10.31 -75.83, 10.36 -77.14 C10.41 -78.45, 10.37 -79.06, 10.66 -79.89 C10.96 -80.72, 11.58 -81.58, 12.13 -82.12 C12.68 -82.66, 13.16 -82.93, 13.97 -83.12 C14.79 -83.3, 14.48 -83.18, 17.02 -83.22 C19.55 -83.26, 27.17 -83.33, 29.2 -83.35" stroke="#E1E1E1" stroke-width="2" fill="none"></path></g></g><mask></mask><g stroke-linecap="round"><g transform="translate(46.23617758484647 54.520342153716086) rotate(0 10.521249217844797 -5.553496651446892)"><path d="M0 0 C0 -2.01, -0.02 -9.45, 0 -12.05 C0.02 -14.66, -0.04 -14.62, 0.12 -15.61 C0.27 -16.6, 0.41 -17.11, 0.94 -17.99 C1.47 -18.87, 2.42 -20.06, 3.29 -20.89 C4.17 -21.73, 5.17 -22.52, 6.2 -23 C7.23 -23.48, 8.24 -23.7, 9.48 -23.79 C10.73 -23.88, 12.49 -23.87, 13.68 -23.55 C14.88 -23.23, 15.73 -22.69, 16.65 -21.9 C17.58 -21.11, 18.58 -19.76, 19.23 -18.82 C19.87 -17.87, 20.23 -17.5, 20.52 -16.24 C20.81 -14.98, 20.88 -12.86, 20.96 -11.25 C21.04 -9.63, 20.99 -8.16, 21.01 -6.54 C21.02 -4.93, 21.04 -3.23, 21.04 -1.55 C21.04 0.13, 21.19 2.12, 21.01 3.53 C20.82 4.93, 20.5 5.81, 19.94 6.89 C19.39 7.96, 18.56 9.12, 17.69 9.99 C16.81 10.86, 15.88 11.64, 14.7 12.08 C13.53 12.53, 12.07 12.75, 10.63 12.69 C9.19 12.62, 7.32 12.18, 6.06 11.7 C4.8 11.21, 3.87 10.52, 3.08 9.76 C2.29 8.99, 1.8 8.07, 1.33 7.11 C0.86 6.16, 0.49 5.2, 0.26 4.01 C0.04 2.83, 0.04 0.67, 0 0 M0 0 C0 -2.01, -0.02 -9.45, 0 -12.05 C0.02 -14.66, -0.04 -14.62, 0.12 -15.61 C0.27 -16.6, 0.41 -17.11, 0.94 -17.99 C1.47 -18.87, 2.42 -20.06, 3.29 -20.89 C4.17 -21.73, 5.17 -22.52, 6.2 -23 C7.23 -23.48, 8.24 -23.7, 9.48 -23.79 C10.73 -23.88, 12.49 -23.87, 13.68 -23.55 C14.88 -23.23, 15.73 -22.69, 16.65 -21.9 C17.58 -21.11, 18.58 -19.76, 19.23 -18.82 C19.87 -17.87, 20.23 -17.5, 20.52 -16.24 C20.81 -14.98, 20.88 -12.86, 20.96 -11.25 C21.04 -9.63, 20.99 -8.16, 21.01 -6.54 C21.02 -4.93, 21.04 -3.23, 21.04 -1.55 C21.04 0.13, 21.19 2.12, 21.01 3.53 C20.82 4.93, 20.5 5.81, 19.94 6.89 C19.39 7.96, 18.56 9.12, 17.69 9.99 C16.81 10.86, 15.88 11.64, 14.7 12.08 C13.53 12.53, 12.07 12.75, 10.63 12.69 C9.19 12.62, 7.32 12.18, 6.06 11.7 C4.8 11.21, 3.87 10.52, 3.08 9.76 C2.29 8.99, 1.8 8.07, 1.33 7.11 C0.86 6.16, 0.49 5.2, 0.26 4.01 C0.04 2.83, 0.04 0.67, 0 0" stroke="#E1E1E1" stroke-width="2" fill="none"></path></g></g><mask></mask><g stroke-linecap="round"><g transform="translate(186.81067633752696 98.43426492917621) rotate(0 25.979525397937948 20.694551566738)"><path d="M0 0 C0 4.01, 0 17.2, 0 24.03 C0 30.86, 0 35.84, 0 41 C0 46.16, 0.09 51.88, 0 54.98 C-0.09 58.08, 0 58.44, -0.54 59.61 C-1.09 60.78, -2.19 61.58, -3.28 62.02 C-4.37 62.45, -5.98 62.63, -7.09 62.23 C-8.21 61.84, -9.42 60.89, -9.99 59.64 C-10.55 58.39, -10.4 57.67, -10.49 54.73 C-10.57 51.79, -10.49 48.41, -10.49 41.99 C-10.49 35.57, -10.53 23.05, -10.49 16.21 C-10.44 9.37, -10.77 4.98, -10.23 0.97 C-9.69 -3.03, -8.65 -5.26, -7.25 -7.82 C-5.85 -10.38, -4.05 -12.54, -1.84 -14.41 C0.36 -16.29, 3.52 -18.04, 5.98 -19.09 C8.43 -20.14, 9.79 -20.44, 12.9 -20.73 C16.02 -21.02, 20.77 -20.83, 24.66 -20.85 C28.55 -20.87, 33.16 -20.94, 36.23 -20.85 C39.3 -20.75, 41.02 -20.74, 43.08 -20.27 C45.14 -19.8, 46.8 -19.08, 48.6 -18.04 C50.39 -16.99, 52.33 -15.42, 53.87 -14.01 C55.41 -12.6, 56.69 -11.36, 57.85 -9.56 C59 -7.77, 60.04 -5.48, 60.81 -3.26 C61.57 -1.04, 62.18 0.66, 62.45 3.77 C62.71 6.87, 62.41 11.48, 62.4 15.4 C62.39 19.31, 62.4 23.85, 62.4 27.25 C62.4 30.65, 62.4 31.73, 62.4 35.79 C62.4 39.84, 62.4 48.1, 62.4 51.59 C62.41 55.09, 62.55 55.39, 62.43 56.76 C62.31 58.12, 62.26 58.91, 61.67 59.77 C61.08 60.64, 59.89 61.59, 58.9 61.97 C57.91 62.35, 56.59 62.28, 55.72 62.07 C54.86 61.86, 54.3 61.26, 53.73 60.68 C53.15 60.1, 52.56 59.98, 52.27 58.59 C51.98 57.2, 52.03 55.18, 51.99 52.35 C51.94 49.52, 51.99 46.73, 51.99 41.62 C51.99 36.51, 51.99 28.65, 51.99 21.68 C51.99 14.71, 51.99 3.45, 51.99 -0.19 M0 0 C0 4.01, 0 17.2, 0 24.03 C0 30.86, 0 35.84, 0 41 C0 46.16, 0.09 51.88, 0 54.98 C-0.09 58.08, 0 58.44, -0.54 59.61 C-1.09 60.78, -2.19 61.58, -3.28 62.02 C-4.37 62.45, -5.98 62.63, -7.09 62.23 C-8.21 61.84, -9.42 60.89, -9.99 59.64 C-10.55 58.39, -10.4 57.67, -10.49 54.73 C-10.57 51.79, -10.49 48.41, -10.49 41.99 C-10.49 35.57, -10.53 23.05, -10.49 16.21 C-10.44 9.37, -10.77 4.98, -10.23 0.97 C-9.69 -3.03, -8.65 -5.26, -7.25 -7.82 C-5.85 -10.38, -4.05 -12.54, -1.84 -14.41 C0.36 -16.29, 3.52 -18.04, 5.98 -19.09 C8.43 -20.14, 9.79 -20.44, 12.9 -20.73 C16.02 -21.02, 20.77 -20.83, 24.66 -20.85 C28.55 -20.87, 33.16 -20.94, 36.23 -20.85 C39.3 -20.75, 41.02 -20.74, 43.08 -20.27 C45.14 -19.8, 46.8 -19.08, 48.6 -18.04 C50.39 -16.99, 52.33 -15.42, 53.87 -14.01 C55.41 -12.6, 56.69 -11.36, 57.85 -9.56 C59 -7.77, 60.04 -5.48, 60.81 -3.26 C61.57 -1.04, 62.18 0.66, 62.45 3.77 C62.71 6.87, 62.41 11.48, 62.4 15.4 C62.39 19.31, 62.4 23.85, 62.4 27.25 C62.4 30.65, 62.4 31.73, 62.4 35.79 C62.4 39.84, 62.4 48.1, 62.4 51.59 C62.41 55.09, 62.55 55.39, 62.43 56.76 C62.31 58.12, 62.26 58.91, 61.67 59.77 C61.08 60.64, 59.89 61.59, 58.9 61.97 C57.91 62.35, 56.59 62.28, 55.72 62.07 C54.86 61.86, 54.3 61.26, 53.73 60.68 C53.15 60.1, 52.56 59.98, 52.27 58.59 C51.98 57.2, 52.03 55.18, 51.99 52.35 C51.94 49.52, 51.99 46.73, 51.99 41.62 C51.99 36.51, 51.99 28.65, 51.99 21.68 C51.99 14.71, 51.99 3.45, 51.99 -0.19" stroke="#E1E1E1" stroke-width="2" fill="none"></path></g></g><mask></mask><g stroke-linecap="round"><g transform="translate(238.68498045281683 98.21470410843898) rotate(0 -5.142068518426697 0)"><path d="M0 0 C-1.71 0, -8.57 0, -10.28 0 M0 0 C-1.71 0, -8.57 0, -10.28 0" stroke="#E1E1E1" stroke-width="2" fill="none"></path></g></g><mask></mask><g stroke-linecap="round"><g transform="translate(228.30710008742005 98.49180377076112) rotate(0 -5.221658347521327 64.90994584514532)"><path d="M0 0 C0 7.85, 0 31.57, 0 47.09 C0 62.62, 0 81.81, 0 93.16 C0 104.52, 0.02 109.87, 0 115.22 C-0.02 120.58, 0.17 123.05, -0.12 125.3 C-0.41 127.55, -0.92 127.95, -1.74 128.7 C-2.56 129.46, -4.04 129.73, -5.05 129.82 C-6.05 129.91, -7.05 129.66, -7.77 129.27 C-8.49 128.89, -8.96 128.12, -9.39 127.5 C-9.82 126.89, -10.17 126.65, -10.35 125.6 C-10.52 124.55, -10.43 127.41, -10.44 121.22 C-10.46 115.03, -10.44 96.52, -10.44 88.45 C-10.44 80.37, -10.44 75.38, -10.44 72.76 M0 0 C0 7.85, 0 31.57, 0 47.09 C0 62.62, 0 81.81, 0 93.16 C0 104.52, 0.02 109.87, 0 115.22 C-0.02 120.58, 0.17 123.05, -0.12 125.3 C-0.41 127.55, -0.92 127.95, -1.74 128.7 C-2.56 129.46, -4.04 129.73, -5.05 129.82 C-6.05 129.91, -7.05 129.66, -7.77 129.27 C-8.49 128.89, -8.96 128.12, -9.39 127.5 C-9.82 126.89, -10.17 126.65, -10.35 125.6 C-10.52 124.55, -10.43 127.41, -10.44 121.22 C-10.46 115.03, -10.44 96.52, -10.44 88.45 C-10.44 80.37, -10.44 75.38, -10.44 72.76" stroke="#E1E1E1" stroke-width="2" fill="none"></path></g></g><mask></mask><g stroke-linecap="round"><g transform="translate(217.75325729644135 171.22877523250864) rotate(0 -5.065369431436579 0)"><path d="M0 0 C-1.69 0, -8.44 0, -10.13 0 M0 0 C-1.69 0, -8.44 0, -10.13 0" stroke="#E1E1E1" stroke-width="2" fill="none"></path></g></g><mask></mask><g stroke-linecap="round"><g transform="translate(207.45414360074574 171.18874789648564) rotate(0 -5.1815777482431145 -7.8957969523185625)"><path d="M0 0 C0 2.27, 0 7.01, 0 13.6 C0 20.18, 0 33.92, 0 39.51 C0 45.1, 0 44.97, 0 47.11 C0 49.25, 0.21 51.01, 0 52.36 C-0.21 53.7, -0.66 54.47, -1.26 55.19 C-1.86 55.9, -2.7 56.34, -3.59 56.64 C-4.48 56.94, -5.74 57.14, -6.6 56.98 C-7.46 56.83, -8.13 56.3, -8.73 55.7 C-9.32 55.11, -9.89 54.13, -10.17 53.42 C-10.44 52.71, -10.34 52.76, -10.36 51.44 C-10.39 50.12, -10.32 51.22, -10.31 45.49 C-10.3 39.77, -10.31 29.75, -10.31 17.11 C-10.31 4.47, -10.31 -17.41, -10.31 -30.34 C-10.31 -43.26, -10.31 -53.35, -10.31 -60.42 C-10.31 -67.5, -10.31 -70.72, -10.31 -72.78 M0 0 C0 2.27, 0 7.01, 0 13.6 C0 20.18, 0 33.92, 0 39.51 C0 45.1, 0 44.97, 0 47.11 C0 49.25, 0.21 51.01, 0 52.36 C-0.21 53.7, -0.66 54.47, -1.26 55.19 C-1.86 55.9, -2.7 56.34, -3.59 56.64 C-4.48 56.94, -5.74 57.14, -6.6 56.98 C-7.46 56.83, -8.13 56.3, -8.73 55.7 C-9.32 55.11, -9.89 54.13, -10.17 53.42 C-10.44 52.71, -10.34 52.76, -10.36 51.44 C-10.39 50.12, -10.32 51.22, -10.31 45.49 C-10.3 39.77, -10.31 29.75, -10.31 17.11 C-10.31 4.47, -10.31 -17.41, -10.31 -30.34 C-10.31 -43.26, -10.31 -53.35, -10.31 -60.42 C-10.31 -67.5, -10.31 -70.72, -10.31 -72.78" stroke="#E1E1E1" stroke-width="2" fill="none"></path></g></g><mask></mask><g stroke-linecap="round"><g transform="translate(197.07833081806166 98.26635493930547) rotate(0 -5.196944197268806 0)"><path d="M0 0 C-1.73 0, -8.66 0, -10.39 0 M0 0 C-1.73 0, -8.66 0, -10.39 0" stroke="#E1E1E1" stroke-width="2" fill="none"></path></g></g><mask></mask><g stroke-linecap="round"><g transform="translate(195.42161510872245 67.73780476978166) rotate(0 -14.76120092773698 51.65443427332869)"><path d="M0 0 C-1.54 0.55, -6.58 2.04, -9.26 3.31 C-11.94 4.58, -14.24 6.18, -16.06 7.64 C-17.88 9.11, -18.62 10.09, -20.16 12.07 C-21.69 14.05, -23.81 16.6, -25.25 19.51 C-26.69 22.42, -28.11 26.23, -28.79 29.53 C-29.47 32.83, -29.2 33.81, -29.32 39.3 C-29.43 44.8, -29.45 55.82, -29.48 62.5 C-29.52 69.18, -29.61 74.49, -29.52 79.39 C-29.44 84.3, -29.54 88.93, -28.98 91.93 C-28.42 94.94, -27.39 95.83, -26.16 97.42 C-24.93 99.01, -23.22 100.51, -21.59 101.47 C-19.97 102.44, -18.06 102.92, -16.42 103.23 C-14.77 103.53, -12.97 103.47, -11.72 103.31 C-10.47 103.15, -9.37 102.45, -8.9 102.28 M0 0 C-1.54 0.55, -6.58 2.04, -9.26 3.31 C-11.94 4.58, -14.24 6.18, -16.06 7.64 C-17.88 9.11, -18.62 10.09, -20.16 12.07 C-21.69 14.05, -23.81 16.6, -25.25 19.51 C-26.69 22.42, -28.11 26.23, -28.79 29.53 C-29.47 32.83, -29.2 33.81, -29.32 39.3 C-29.43 44.8, -29.45 55.82, -29.48 62.5 C-29.52 69.18, -29.61 74.49, -29.52 79.39 C-29.44 84.3, -29.54 88.93, -28.98 91.93 C-28.42 94.94, -27.39 95.83, -26.16 97.42 C-24.93 99.01, -23.22 100.51, -21.59 101.47 C-19.97 102.44, -18.06 102.92, -16.42 103.23 C-14.77 103.53, -12.97 103.47, -11.72 103.31 C-10.47 103.15, -9.37 102.45, -8.9 102.28" stroke="#E1E1E1" stroke-width="2" fill="none"></path></g></g><mask></mask><g stroke-linecap="round"><g transform="translate(186.69448832826345 170.08739150203903) rotate(0 12.953155583469595 34.254845539338675)"><path d="M0 0 C0 2.95, 0 10.52, 0 17.68 C0 24.84, 0 37.81, 0 42.97 C0 48.13, -0.05 46.51, 0 48.62 C0.05 50.72, -0.04 53.67, 0.32 55.59 C0.67 57.51, 1.35 58.76, 2.13 60.15 C2.91 61.55, 3.68 62.78, 4.99 63.97 C6.29 65.17, 8.19 66.56, 9.97 67.31 C11.75 68.07, 13.85 68.42, 15.67 68.51 C17.48 68.6, 19.46 68.22, 20.85 67.86 C22.25 67.51, 23.19 66.94, 24.04 66.37 C24.88 65.8, 25.59 64.77, 25.91 64.45 M0 0 C0 2.95, 0 10.52, 0 17.68 C0 24.84, 0 37.81, 0 42.97 C0 48.13, -0.05 46.51, 0 48.62 C0.05 50.72, -0.04 53.67, 0.32 55.59 C0.67 57.51, 1.35 58.76, 2.13 60.15 C2.91 61.55, 3.68 62.78, 4.99 63.97 C6.29 65.17, 8.19 66.56, 9.97 67.31 C11.75 68.07, 13.85 68.42, 15.67 68.51 C17.48 68.6, 19.46 68.22, 20.85 67.86 C22.25 67.51, 23.19 66.94, 24.04 66.37 C24.88 65.8, 25.59 64.77, 25.91 64.45" stroke="#E1E1E1" stroke-width="2" fill="none"></path></g></g><mask></mask><g stroke-linecap="round"><g transform="translate(212.94930384316956 234.38607005498594) rotate(0 12.895145532851984 -29.989362456044006)"><path d="M0 0 C0.3 0.32, 0.91 1.29, 1.8 1.91 C2.69 2.52, 4.19 3.27, 5.33 3.67 C6.46 4.07, 7.26 4.21, 8.62 4.29 C9.99 4.36, 11.95 4.47, 13.52 4.14 C15.08 3.81, 16.78 2.99, 18.02 2.3 C19.26 1.61, 20.03 0.94, 20.96 0 C21.88 -0.95, 22.82 -2.04, 23.57 -3.36 C24.33 -4.69, 25.11 -6.2, 25.48 -7.94 C25.85 -9.69, 25.74 -8.17, 25.79 -13.85 C25.84 -19.53, 25.79 -33.61, 25.79 -42.01 C25.79 -50.42, 25.79 -60.56, 25.79 -64.27 M0 0 C0.3 0.32, 0.91 1.29, 1.8 1.91 C2.69 2.52, 4.19 3.27, 5.33 3.67 C6.46 4.07, 7.26 4.21, 8.62 4.29 C9.99 4.36, 11.95 4.47, 13.52 4.14 C15.08 3.81, 16.78 2.99, 18.02 2.3 C19.26 1.61, 20.03 0.94, 20.96 0 C21.88 -0.95, 22.82 -2.04, 23.57 -3.36 C24.33 -4.69, 25.11 -6.2, 25.48 -7.94 C25.85 -9.69, 25.74 -8.17, 25.79 -13.85 C25.84 -19.53, 25.79 -33.61, 25.79 -42.01 C25.79 -50.42, 25.79 -60.56, 25.79 -64.27" stroke="#E1E1E1" stroke-width="2" fill="none"></path></g></g><mask></mask><g stroke-linecap="round"><g transform="translate(238.74170682670194 169.96228067758577) rotate(0 5.8653400355185 -50.71513986586724)"><path d="M0 0 C0.5 0.15, 1.83 0.77, 2.99 0.93 C4.16 1.08, 5.55 1.14, 7.02 0.94 C8.48 0.74, 10.16 0.56, 11.76 -0.29 C13.37 -1.14, 15.32 -2.76, 16.64 -4.15 C17.96 -5.53, 19.01 -7.1, 19.67 -8.61 C20.34 -10.13, 20.47 -10.37, 20.63 -13.25 C20.79 -16.14, 20.63 -22.04, 20.63 -25.92 C20.63 -29.81, 20.63 -31.58, 20.63 -36.58 C20.63 -41.59, 20.63 -51.12, 20.63 -55.97 C20.63 -60.82, 20.67 -63.09, 20.63 -65.67 C20.59 -68.25, 20.71 -69.29, 20.41 -71.45 C20.11 -73.6, 19.59 -76.33, 18.82 -78.62 C18.06 -80.92, 17.15 -83.07, 15.82 -85.22 C14.49 -87.37, 12.85 -89.52, 10.84 -91.54 C8.84 -93.56, 6.05 -95.85, 3.8 -97.34 C1.55 -98.82, -0.53 -99.62, -2.64 -100.46 C-4.76 -101.29, -7.86 -102.05, -8.9 -102.37 M0 0 C0.5 0.15, 1.83 0.77, 2.99 0.93 C4.16 1.08, 5.55 1.14, 7.02 0.94 C8.48 0.74, 10.16 0.56, 11.76 -0.29 C13.37 -1.14, 15.32 -2.76, 16.64 -4.15 C17.96 -5.53, 19.01 -7.1, 19.67 -8.61 C20.34 -10.13, 20.47 -10.37, 20.63 -13.25 C20.79 -16.14, 20.63 -22.04, 20.63 -25.92 C20.63 -29.81, 20.63 -31.58, 20.63 -36.58 C20.63 -41.59, 20.63 -51.12, 20.63 -55.97 C20.63 -60.82, 20.67 -63.09, 20.63 -65.67 C20.59 -68.25, 20.71 -69.29, 20.41 -71.45 C20.11 -73.6, 19.59 -76.33, 18.82 -78.62 C18.06 -80.92, 17.15 -83.07, 15.82 -85.22 C14.49 -87.37, 12.85 -89.52, 10.84 -91.54 C8.84 -93.56, 6.05 -95.85, 3.8 -97.34 C1.55 -98.82, -0.53 -99.62, -2.64 -100.46 C-4.76 -101.29, -7.86 -102.05, -8.9 -102.37" stroke="#E1E1E1" stroke-width="2" fill="none"></path></g></g><mask></mask><g stroke-linecap="round"><g transform="translate(195.57730290236566 67.87690746925117) rotate(0 17.08750715507699 -23.574699687577095)"><path d="M0 0 C-0.27 -0.29, -1.06 -0.83, -1.6 -1.75 C-2.14 -2.68, -2.89 -3.98, -3.23 -5.56 C-3.58 -7.14, -3.6 -7.82, -3.67 -11.22 C-3.74 -14.62, -3.69 -22.9, -3.67 -25.98 C-3.65 -29.06, -3.81 -28.23, -3.54 -29.68 C-3.27 -31.13, -2.97 -32.79, -2.05 -34.68 C-1.13 -36.56, 0.36 -39.23, 1.99 -40.99 C3.62 -42.75, 5.65 -44.22, 7.72 -45.25 C9.8 -46.27, 12.17 -46.85, 14.42 -47.15 C16.68 -47.45, 19.04 -47.5, 21.26 -47.04 C23.47 -46.57, 26.02 -45.29, 27.73 -44.38 C29.43 -43.47, 30.26 -42.78, 31.47 -41.57 C32.68 -40.35, 34.05 -38.74, 35 -37.08 C35.95 -35.43, 36.69 -33.71, 37.17 -31.64 C37.64 -29.58, 37.73 -28.18, 37.84 -24.7 C37.96 -21.22, 37.92 -13.83, 37.84 -10.77 C37.77 -7.7, 37.71 -7.65, 37.41 -6.28 C37.11 -4.92, 36.58 -3.57, 36.06 -2.57 C35.54 -1.58, 34.58 -0.69, 34.28 -0.32 M0 0 C-0.27 -0.29, -1.06 -0.83, -1.6 -1.75 C-2.14 -2.68, -2.89 -3.98, -3.23 -5.56 C-3.58 -7.14, -3.6 -7.82, -3.67 -11.22 C-3.74 -14.62, -3.69 -22.9, -3.67 -25.98 C-3.65 -29.06, -3.81 -28.23, -3.54 -29.68 C-3.27 -31.13, -2.97 -32.79, -2.05 -34.68 C-1.13 -36.56, 0.36 -39.23, 1.99 -40.99 C3.62 -42.75, 5.65 -44.22, 7.72 -45.25 C9.8 -46.27, 12.17 -46.85, 14.42 -47.15 C16.68 -47.45, 19.04 -47.5, 21.26 -47.04 C23.47 -46.57, 26.02 -45.29, 27.73 -44.38 C29.43 -43.47, 30.26 -42.78, 31.47 -41.57 C32.68 -40.35, 34.05 -38.74, 35 -37.08 C35.95 -35.43, 36.69 -33.71, 37.17 -31.64 C37.64 -29.58, 37.73 -28.18, 37.84 -24.7 C37.96 -21.22, 37.92 -13.83, 37.84 -10.77 C37.77 -7.7, 37.71 -7.65, 37.41 -6.28 C37.11 -4.92, 36.58 -3.57, 36.06 -2.57 C35.54 -1.58, 34.58 -0.69, 34.28 -0.32" stroke="#E1E1E1" stroke-width="2" fill="none"></path></g></g><mask></mask><g stroke-linecap="round"><g transform="translate(202.1138340493518 54.726491123824644) rotate(0 10.521249217844797 -5.553496651446892)"><path d="M0 0 C0 -2.01, -0.02 -9.45, 0 -12.05 C0.02 -14.66, -0.04 -14.62, 0.12 -15.61 C0.27 -16.6, 0.41 -17.11, 0.94 -17.99 C1.47 -18.87, 2.42 -20.06, 3.29 -20.89 C4.17 -21.73, 5.17 -22.52, 6.2 -23 C7.23 -23.48, 8.24 -23.7, 9.48 -23.79 C10.73 -23.88, 12.49 -23.87, 13.68 -23.55 C14.88 -23.23, 15.73 -22.69, 16.65 -21.9 C17.58 -21.11, 18.58 -19.76, 19.23 -18.82 C19.87 -17.87, 20.23 -17.5, 20.52 -16.24 C20.81 -14.98, 20.88 -12.86, 20.96 -11.25 C21.04 -9.63, 20.99 -8.16, 21.01 -6.54 C21.02 -4.93, 21.04 -3.23, 21.04 -1.55 C21.04 0.13, 21.19 2.12, 21.01 3.53 C20.82 4.93, 20.5 5.81, 19.94 6.89 C19.39 7.96, 18.56 9.12, 17.69 9.99 C16.81 10.86, 15.88 11.64, 14.7 12.08 C13.53 12.53, 12.07 12.75, 10.63 12.69 C9.19 12.62, 7.32 12.18, 6.06 11.7 C4.8 11.21, 3.87 10.52, 3.08 9.76 C2.29 8.99, 1.8 8.07, 1.33 7.11 C0.86 6.16, 0.49 5.2, 0.26 4.01 C0.04 2.83, 0.04 0.67, 0 0 M0 0 C0 -2.01, -0.02 -9.45, 0 -12.05 C0.02 -14.66, -0.04 -14.62, 0.12 -15.61 C0.27 -16.6, 0.41 -17.11, 0.94 -17.99 C1.47 -18.87, 2.42 -20.06, 3.29 -20.89 C4.17 -21.73, 5.17 -22.52, 6.2 -23 C7.23 -23.48, 8.24 -23.7, 9.48 -23.79 C10.73 -23.88, 12.49 -23.87, 13.68 -23.55 C14.88 -23.23, 15.73 -22.69, 16.65 -21.9 C17.58 -21.11, 18.58 -19.76, 19.23 -18.82 C19.87 -17.87, 20.23 -17.5, 20.52 -16.24 C20.81 -14.98, 20.88 -12.86, 20.96 -11.25 C21.04 -9.63, 20.99 -8.16, 21.01 -6.54 C21.02 -4.93, 21.04 -3.23, 21.04 -1.55 C21.04 0.13, 21.19 2.12, 21.01 3.53 C20.82 4.93, 20.5 5.81, 19.94 6.89 C19.39 7.96, 18.56 9.12, 17.69 9.99 C16.81 10.86, 15.88 11.64, 14.7 12.08 C13.53 12.53, 12.07 12.75, 10.63 12.69 C9.19 12.62, 7.32 12.18, 6.06 11.7 C4.8 11.21, 3.87 10.52, 3.08 9.76 C2.29 8.99, 1.8 8.07, 1.33 7.11 C0.86 6.16, 0.49 5.2, 0.26 4.01 C0.04 2.83, 0.04 0.67, 0 0" stroke="#E1E1E1" stroke-width="2" fill="none"></path></g></g><mask></mask><g stroke-linecap="round"><g transform="translate(263.6487860447992 69.2430008394891) rotate(0 -4.48285149430194 1.9745597657707492)"><path d="M0 0 C-0.77 0.27, -3.48 1.17, -4.62 1.6 C-5.77 2.03, -6.14 2.19, -6.87 2.58 C-7.59 2.97, -8.62 3.72, -8.97 3.95 M0 0 C-0.77 0.27, -3.48 1.17, -4.62 1.6 C-5.77 2.03, -6.14 2.19, -6.87 2.58 C-7.59 2.97, -8.62 3.72, -8.97 3.95" stroke="#E1E1E1" stroke-width="2" fill="none"></path></g></g><mask></mask><g stroke-linecap="round"><g transform="translate(254.62395766750342 73.2697085857532) rotate(0 2.717975136173152 4.3775744485080565)"><path d="M0 0 C0.91 1.46, 4.53 7.3, 5.44 8.76 M0 0 C0.91 1.46, 4.53 7.3, 5.44 8.76" stroke="#E1E1E1" stroke-width="2" fill="none"></path></g></g><mask></mask><g stroke-linecap="round"><g transform="translate(260.3192041084776 81.89073970726778) rotate(0 30.792346140247957 37.24231332298278)"><path d="M0 0 C0.81 -0.38, 2.83 -1.58, 4.83 -2.27 C6.83 -2.97, 9.37 -3.79, 11.99 -4.16 C14.62 -4.53, 17.71 -4.51, 20.59 -4.5 C23.48 -4.49, 26.39 -4.65, 29.3 -4.09 C32.22 -3.53, 35.36 -2.42, 38.08 -1.13 C40.8 0.16, 43.41 1.94, 45.6 3.64 C47.8 5.34, 49.52 6.84, 51.26 9.07 C53 11.31, 54.89 14.54, 56.05 17.04 C57.22 19.54, 57.73 21.53, 58.25 24.1 C58.77 26.67, 58.96 29.65, 59.18 32.46 C59.4 35.28, 59.32 36.37, 59.59 40.98 C59.86 45.6, 60.47 54.56, 60.8 60.17 C61.13 65.78, 61.64 71.71, 61.58 74.64 C61.53 77.57, 61.08 77.04, 60.46 77.76 C59.85 78.49, 58.83 78.91, 57.91 78.98 C56.99 79.05, 55.75 78.63, 54.97 78.2 C54.19 77.77, 53.67 77.39, 53.23 76.42 C52.8 75.46, 52.8 75.37, 52.38 72.41 C51.96 69.45, 51.2 62.95, 50.73 58.67 C50.25 54.4, 49.94 50.97, 49.53 46.74 C49.11 42.5, 48.64 37.26, 48.24 33.27 C47.85 29.29, 47.45 25.68, 47.18 22.84 C46.9 20.01, 46.69 17.38, 46.59 16.29 M0 0 C0.81 -0.38, 2.83 -1.58, 4.83 -2.27 C6.83 -2.97, 9.37 -3.79, 11.99 -4.16 C14.62 -4.53, 17.71 -4.51, 20.59 -4.5 C23.48 -4.49, 26.39 -4.65, 29.3 -4.09 C32.22 -3.53, 35.36 -2.42, 38.08 -1.13 C40.8 0.16, 43.41 1.94, 45.6 3.64 C47.8 5.34, 49.52 6.84, 51.26 9.07 C53 11.31, 54.89 14.54, 56.05 17.04 C57.22 19.54, 57.73 21.53, 58.25 24.1 C58.77 26.67, 58.96 29.65, 59.18 32.46 C59.4 35.28, 59.32 36.37, 59.59 40.98 C59.86 45.6, 60.47 54.56, 60.8 60.17 C61.13 65.78, 61.64 71.71, 61.58 74.64 C61.53 77.57, 61.08 77.04, 60.46 77.76 C59.85 78.49, 58.83 78.91, 57.91 78.98 C56.99 79.05, 55.75 78.63, 54.97 78.2 C54.19 77.77, 53.67 77.39, 53.23 76.42 C52.8 75.46, 52.8 75.37, 52.38 72.41 C51.96 69.45, 51.2 62.95, 50.73 58.67 C50.25 54.4, 49.94 50.97, 49.53 46.74 C49.11 42.5, 48.64 37.26, 48.24 33.27 C47.85 29.29, 47.45 25.68, 47.18 22.84 C46.9 20.01, 46.69 17.38, 46.59 16.29" stroke="#E1E1E1" stroke-width="2" fill="none"></path></g></g><mask></mask><g stroke-linecap="round"><g transform="translate(306.75106460976883 97.96791335841888) rotate(0 -4.972887020527992 0.38677835902696245)"><path d="M0 0 C-1.66 0.13, -8.29 0.64, -9.95 0.77 M0 0 C-1.66 0.13, -8.29 0.64, -9.95 0.77" stroke="#E1E1E1" stroke-width="2" fill="none"></path></g></g><mask></mask><g stroke-linecap="round"><g transform="translate(296.59647784501647 98.81357730871676) rotate(0 4.64857617863089 49.132071792178806)"><path d="M0 0 C0.32 3.58, 1.24 14.12, 1.91 21.5 C2.57 28.89, 3.28 37.17, 4.01 44.29 C4.75 51.42, 5.6 57.07, 6.33 64.27 C7.06 71.46, 7.9 81.81, 8.39 87.48 C8.89 93.15, 9.15 96.47, 9.3 98.26 M0 0 C0.32 3.58, 1.24 14.12, 1.91 21.5 C2.57 28.89, 3.28 37.17, 4.01 44.29 C4.75 51.42, 5.6 57.07, 6.33 64.27 C7.06 71.46, 7.9 81.81, 8.39 87.48 C8.89 93.15, 9.15 96.47, 9.3 98.26" stroke="#E1E1E1" stroke-width="2" fill="none"></path></g></g><mask></mask><g stroke-linecap="round"><g transform="translate(305.8033602866061 197.15703425176414) rotate(0 -25.512374029613625 0)"><path d="M0 0 C-3.71 0, -13.75 0, -22.25 0 C-30.75 0, -46.23 0, -51.02 0 M0 0 C-3.71 0, -13.75 0, -22.25 0 C-30.75 0, -46.23 0, -51.02 0" stroke="#E1E1E1" stroke-width="2" fill="none"></path></g></g><mask></mask><g stroke-linecap="round"><g transform="translate(254.62020994095417 196.98421160048574) rotate(0 0.9360825852775747 -9.879721036621532)"><path d="M0 0 C0.31 -3.29, 1.56 -16.47, 1.87 -19.76 M0 0 C0.31 -3.29, 1.56 -16.47, 1.87 -19.76" stroke="#E1E1E1" stroke-width="2" fill="none"></path></g></g><mask></mask><g stroke-linecap="round"><g transform="translate(256.4260408923843 177.12930254776975) rotate(0 -5.161948468192918 -0.36514645975250914)"><path d="M0 0 C-1.72 -0.12, -8.6 -0.61, -10.32 -0.73 M0 0 C-1.72 -0.12, -8.6 -0.61, -10.32 -0.73" stroke="#E1E1E1" stroke-width="2" fill="none"></path></g></g><mask></mask><g stroke-linecap="round"><g transform="translate(246.07387917560902 176.49101550385373) rotate(0 3.025148105870187 15.566025391233126)"><path d="M0 0 C-0.17 1.7, -0.67 6.89, -1 10.19 C-1.33 13.5, -1.73 17.15, -1.96 19.81 C-2.19 22.46, -2.57 24.51, -2.37 26.12 C-2.18 27.73, -1.44 28.65, -0.8 29.47 C-0.16 30.29, 0.44 30.76, 1.46 31.04 C2.49 31.31, 4.2 31.13, 5.36 31.13 C6.52 31.13, 7.91 31.06, 8.42 31.05 M0 0 C-0.17 1.7, -0.67 6.89, -1 10.19 C-1.33 13.5, -1.73 17.15, -1.96 19.81 C-2.19 22.46, -2.57 24.51, -2.37 26.12 C-2.18 27.73, -1.44 28.65, -0.8 29.47 C-0.16 30.29, 0.44 30.76, 1.46 31.04 C2.49 31.31, 4.2 31.13, 5.36 31.13 C6.52 31.13, 7.91 31.06, 8.42 31.05" stroke="#E1E1E1" stroke-width="2" fill="none"></path></g></g><mask></mask><g stroke-linecap="round"><g transform="translate(254.50708592369858 207.54334732951887) rotate(0 25.948560998577193 15.607385582645918)"><path d="M0 0 C0 1.81, 0.02 7.97, 0.02 10.86 C0.02 13.75, -0.23 15.47, -0.03 17.36 C0.18 19.24, 0.35 20.51, 1.26 22.19 C2.16 23.87, 4 26.14, 5.4 27.44 C6.79 28.75, 8.24 29.41, 9.63 30.03 C11.02 30.65, 12.07 31.03, 13.72 31.16 C15.37 31.29, 17.84 31.19, 19.52 30.81 C21.2 30.42, 22.71 29.46, 23.8 28.85 C24.88 28.24, 25.42 27.18, 26.02 27.13 C26.62 27.08, 26.9 28.15, 27.38 28.55 C27.87 28.94, 28.14 29.16, 28.91 29.51 C29.68 29.86, 30.75 30.37, 32.01 30.66 C33.27 30.94, 34.96 31.2, 36.48 31.21 C38 31.22, 39.61 31.22, 41.12 30.72 C42.64 30.22, 44.3 29.22, 45.58 28.24 C46.86 27.25, 47.96 25.94, 48.82 24.81 C49.68 23.67, 50.25 22.6, 50.74 21.42 C51.23 20.24, 51.56 19.47, 51.76 17.71 C51.96 15.95, 51.92 13.02, 51.93 10.86 C51.93 8.7, 51.81 6.54, 51.79 4.76 C51.76 2.98, 51.79 0.95, 51.79 0.19 M0 0 C0 1.81, 0.02 7.97, 0.02 10.86 C0.02 13.75, -0.23 15.47, -0.03 17.36 C0.18 19.24, 0.35 20.51, 1.26 22.19 C2.16 23.87, 4 26.14, 5.4 27.44 C6.79 28.75, 8.24 29.41, 9.63 30.03 C11.02 30.65, 12.07 31.03, 13.72 31.16 C15.37 31.29, 17.84 31.19, 19.52 30.81 C21.2 30.42, 22.71 29.46, 23.8 28.85 C24.88 28.24, 25.42 27.18, 26.02 27.13 C26.62 27.08, 26.9 28.15, 27.38 28.55 C27.87 28.94, 28.14 29.16, 28.91 29.51 C29.68 29.86, 30.75 30.37, 32.01 30.66 C33.27 30.94, 34.96 31.2, 36.48 31.21 C38 31.22, 39.61 31.22, 41.12 30.72 C42.64 30.22, 44.3 29.22, 45.58 28.24 C46.86 27.25, 47.96 25.94, 48.82 24.81 C49.68 23.67, 50.25 22.6, 50.74 21.42 C51.23 20.24, 51.56 19.47, 51.76 17.71 C51.96 15.95, 51.92 13.02, 51.93 10.86 C51.93 8.7, 51.81 6.54, 51.79 4.76 C51.76 2.98, 51.79 0.95, 51.79 0.19" stroke="#E1E1E1" stroke-width="2" fill="none"></path></g></g><mask></mask><g stroke-linecap="round"><g transform="translate(306.6186773862097 207.46841443043226) rotate(0 4.959475242977874 -18.4793528017789)"><path d="M0 0 C0.65 0, 2.79 0.01, 3.92 0 C5.06 -0.01, 5.95 0.31, 6.8 -0.03 C7.65 -0.37, 8.53 -1.23, 9.05 -2.02 C9.57 -2.82, 9.85 -2.77, 9.92 -4.78 C9.99 -6.78, 9.78 -9.84, 9.45 -14.05 C9.11 -18.27, 8.26 -26.23, 7.9 -30.05 C7.53 -33.87, 7.37 -35.81, 7.27 -36.96 M0 0 C0.65 0, 2.79 0.01, 3.92 0 C5.06 -0.01, 5.95 0.31, 6.8 -0.03 C7.65 -0.37, 8.53 -1.23, 9.05 -2.02 C9.57 -2.82, 9.85 -2.77, 9.92 -4.78 C9.99 -6.78, 9.78 -9.84, 9.45 -14.05 C9.11 -18.27, 8.26 -26.23, 7.9 -30.05 C7.53 -33.87, 7.37 -35.81, 7.27 -36.96" stroke="#E1E1E1" stroke-width="2" fill="none"></path></g></g><mask></mask><g stroke-linecap="round"><g transform="translate(314.0215784037572 170.34063390214547) rotate(0 3.7896762099642274 -48.9126945896745)"><path d="M0 0 C0.62 0.09, 2.32 0.55, 3.74 0.56 C5.16 0.56, 7.02 0.62, 8.54 0.04 C10.07 -0.54, 11.6 -1.79, 12.9 -2.91 C14.2 -4.03, 15.43 -4.9, 16.34 -6.66 C17.26 -8.42, 18.11 -10.79, 18.37 -13.45 C18.64 -16.12, 18.33 -16.02, 17.96 -22.66 C17.58 -29.3, 16.63 -46.13, 16.12 -53.29 C15.61 -60.44, 15.6 -61.91, 14.9 -65.61 C14.21 -69.3, 13.26 -72.37, 11.95 -75.46 C10.63 -78.55, 8.64 -81.76, 7 -84.14 C5.35 -86.53, 3.71 -88.13, 2.06 -89.79 C0.42 -91.45, -1.23 -92.85, -2.88 -94.08 C-4.54 -95.31, -6.56 -96.46, -7.88 -97.17 C-9.19 -97.89, -10.31 -98.18, -10.8 -98.38 M0 0 C0.62 0.09, 2.32 0.55, 3.74 0.56 C5.16 0.56, 7.02 0.62, 8.54 0.04 C10.07 -0.54, 11.6 -1.79, 12.9 -2.91 C14.2 -4.03, 15.43 -4.9, 16.34 -6.66 C17.26 -8.42, 18.11 -10.79, 18.37 -13.45 C18.64 -16.12, 18.33 -16.02, 17.96 -22.66 C17.58 -29.3, 16.63 -46.13, 16.12 -53.29 C15.61 -60.44, 15.6 -61.91, 14.9 -65.61 C14.21 -69.3, 13.26 -72.37, 11.95 -75.46 C10.63 -78.55, 8.64 -81.76, 7 -84.14 C5.35 -86.53, 3.71 -88.13, 2.06 -89.79 C0.42 -91.45, -1.23 -92.85, -2.88 -94.08 C-4.54 -95.31, -6.56 -96.46, -7.88 -97.17 C-9.19 -97.89, -10.31 -98.18, -10.8 -98.38" stroke="#E1E1E1" stroke-width="2" fill="none"></path></g></g><mask></mask><g stroke-linecap="round"><g transform="translate(303.14770935623017 71.9903115350659) rotate(0 9.418385632757861 -10.205064801709113)"><path d="M0 0 C0.79 -0.16, 3.17 -0.36, 4.71 -0.95 C6.25 -1.53, 7.68 -2.35, 9.25 -3.52 C10.83 -4.69, 12.72 -6.45, 14.16 -7.97 C15.61 -9.49, 17.17 -11.39, 17.95 -12.65 C18.72 -13.9, 18.87 -14.45, 18.84 -15.49 C18.8 -16.53, 18.48 -18.08, 17.75 -18.9 C17.02 -19.72, 15 -20.16, 14.45 -20.41 M0 0 C0.79 -0.16, 3.17 -0.36, 4.71 -0.95 C6.25 -1.53, 7.68 -2.35, 9.25 -3.52 C10.83 -4.69, 12.72 -6.45, 14.16 -7.97 C15.61 -9.49, 17.17 -11.39, 17.95 -12.65 C18.72 -13.9, 18.87 -14.45, 18.84 -15.49 C18.8 -16.53, 18.48 -18.08, 17.75 -18.9 C17.02 -19.72, 15 -20.16, 14.45 -20.41" stroke="#E1E1E1" stroke-width="2" fill="none"></path></g></g><mask></mask><g stroke-linecap="round"><g transform="translate(317.5120421829573 51.50847759352757) rotate(0 -19.838758135920273 -20.658866701212787)"><path d="M0 0 C-0.11 -0.12, -0.44 0.07, -0.68 -0.71 C-0.92 -1.5, -1.27 -2.39, -1.44 -4.7 C-1.61 -7.01, -1.59 -12.04, -1.7 -14.57 C-1.82 -17.11, -1.86 -17.74, -2.14 -19.89 C-2.43 -22.04, -2.71 -25.16, -3.4 -27.48 C-4.09 -29.8, -5.26 -32.1, -6.3 -33.82 C-7.34 -35.53, -8.33 -36.69, -9.62 -37.75 C-10.92 -38.81, -12.59 -39.58, -14.07 -40.17 C-15.54 -40.77, -16.92 -41.13, -18.49 -41.32 C-20.07 -41.51, -21.62 -41.63, -23.5 -41.32 C-25.38 -41, -28.22 -40.1, -29.77 -39.43 C-31.32 -38.77, -31.68 -38.15, -32.81 -37.31 C-33.93 -36.47, -35.38 -35.44, -36.52 -34.4 C-37.67 -33.37, -39.15 -31.66, -39.68 -31.11 M0 0 C-0.11 -0.12, -0.44 0.07, -0.68 -0.71 C-0.92 -1.5, -1.27 -2.39, -1.44 -4.7 C-1.61 -7.01, -1.59 -12.04, -1.7 -14.57 C-1.82 -17.11, -1.86 -17.74, -2.14 -19.89 C-2.43 -22.04, -2.71 -25.16, -3.4 -27.48 C-4.09 -29.8, -5.26 -32.1, -6.3 -33.82 C-7.34 -35.53, -8.33 -36.69, -9.62 -37.75 C-10.92 -38.81, -12.59 -39.58, -14.07 -40.17 C-15.54 -40.77, -16.92 -41.13, -18.49 -41.32 C-20.07 -41.51, -21.62 -41.63, -23.5 -41.32 C-25.38 -41, -28.22 -40.1, -29.77 -39.43 C-31.32 -38.77, -31.68 -38.15, -32.81 -37.31 C-33.93 -36.47, -35.38 -35.44, -36.52 -34.4 C-37.67 -33.37, -39.15 -31.66, -39.68 -31.11" stroke="#E1E1E1" stroke-width="2" fill="none"></path></g></g><mask></mask><g stroke-linecap="round"><g transform="translate(277.781744076887 20.388597458390507) rotate(0 -9.134776561339152 24.339665506147824)"><path d="M0 0 C-1.14 0.35, -4.73 0.97, -6.85 2.09 C-8.96 3.2, -11.16 5.16, -12.7 6.69 C-14.25 8.22, -15.19 9.54, -16.11 11.26 C-17.02 12.98, -17.84 14.56, -18.19 17.01 C-18.53 19.45, -18.18 22.83, -18.19 25.91 C-18.21 28.99, -18.32 32.96, -18.27 35.47 C-18.22 37.98, -18.19 39.34, -17.88 40.96 C-17.58 42.57, -17.01 43.86, -16.42 45.15 C-15.83 46.44, -14.67 48.09, -14.32 48.68 M0 0 C-1.14 0.35, -4.73 0.97, -6.85 2.09 C-8.96 3.2, -11.16 5.16, -12.7 6.69 C-14.25 8.22, -15.19 9.54, -16.11 11.26 C-17.02 12.98, -17.84 14.56, -18.19 17.01 C-18.53 19.45, -18.18 22.83, -18.19 25.91 C-18.21 28.99, -18.32 32.96, -18.27 35.47 C-18.22 37.98, -18.19 39.34, -17.88 40.96 C-17.58 42.57, -17.01 43.86, -16.42 45.15 C-15.83 46.44, -14.67 48.09, -14.32 48.68" stroke="#E1E1E1" stroke-width="2" fill="none"></path></g></g><mask></mask><g stroke-linecap="round"><g transform="translate(270.0571361573178 44.301999629367) rotate(0 10.341923068449944 11.547827093346129)"><path d="M0 0 C0 1.54, -0.04 6.78, 0 9.23 C0.03 11.69, -0.21 13.02, 0.23 14.75 C0.67 16.48, 1.68 18.37, 2.65 19.61 C3.61 20.85, 4.61 21.6, 6.02 22.18 C7.44 22.76, 9.46 23.19, 11.12 23.1 C12.78 23, 14.63 22.51, 15.97 21.63 C17.31 20.75, 18.43 19.02, 19.15 17.82 C19.88 16.63, 20.09 16.32, 20.35 14.47 C20.6 12.62, 20.63 8.03, 20.69 6.74 M0 0 C0 1.54, -0.04 6.78, 0 9.23 C0.03 11.69, -0.21 13.02, 0.23 14.75 C0.67 16.48, 1.68 18.37, 2.65 19.61 C3.61 20.85, 4.61 21.6, 6.02 22.18 C7.44 22.76, 9.46 23.19, 11.12 23.1 C12.78 23, 14.63 22.51, 15.97 21.63 C17.31 20.75, 18.43 19.02, 19.15 17.82 C19.88 16.63, 20.09 16.32, 20.35 14.47 C20.6 12.62, 20.63 8.03, 20.69 6.74" stroke="#E1E1E1" stroke-width="2" fill="none"></path></g></g><mask></mask><g stroke-linecap="round"><g transform="translate(290.74992167659286 50.953662640936784) rotate(0 -10.295341477349837 -3.2098845256738855)"><path d="M0 0 C-0.73 -0.05, -2.87 -0.07, -4.38 -0.29 C-5.89 -0.5, -7.46 -0.82, -9.04 -1.27 C-10.61 -1.72, -12.39 -2.39, -13.84 -2.98 C-15.3 -3.58, -16.64 -4.26, -17.77 -4.84 C-18.89 -5.41, -20.12 -6.16, -20.59 -6.42 M0 0 C-0.73 -0.05, -2.87 -0.07, -4.38 -0.29 C-5.89 -0.5, -7.46 -0.82, -9.04 -1.27 C-10.61 -1.72, -12.39 -2.39, -13.84 -2.98 C-15.3 -3.58, -16.64 -4.26, -17.77 -4.84 C-18.89 -5.41, -20.12 -6.16, -20.59 -6.42" stroke="#E1E1E1" stroke-width="2" fill="none"></path></g></g><mask></mask><g stroke-linecap="round"><g transform="translate(273.3962361293201 33.62737659808249) rotate(0 8.76293773274864 3.2939623101787987)"><path d="M0 0 C0.62 0.46, 1.99 1.85, 3.69 2.79 C5.39 3.72, 8.36 4.97, 10.2 5.6 C12.04 6.23, 13.5 6.39, 14.72 6.55 C15.94 6.72, 17.06 6.58, 17.53 6.59 M0 0 C0.62 0.46, 1.99 1.85, 3.69 2.79 C5.39 3.72, 8.36 4.97, 10.2 5.6 C12.04 6.23, 13.5 6.39, 14.72 6.55 C15.94 6.72, 17.06 6.58, 17.53 6.59" stroke="#E1E1E1" stroke-width="2" fill="none"></path></g></g><mask></mask><g stroke-linecap="round"><g transform="translate(291.1935216270389 40.177229075717094) rotate(0 -8.905709619953655 -4.749211830036629)"><path d="M0 0 C-0.12 -0.42, -0.26 -1.54, -0.72 -2.5 C-1.18 -3.46, -1.93 -4.8, -2.78 -5.75 C-3.62 -6.7, -4.81 -7.59, -5.8 -8.22 C-6.78 -8.84, -7.69 -9.3, -8.7 -9.5 C-9.71 -9.7, -10.9 -9.56, -11.85 -9.43 C-12.8 -9.3, -13.43 -9.19, -14.42 -8.71 C-15.41 -8.24, -17.25 -6.93, -17.81 -6.58 M0 0 C-0.12 -0.42, -0.26 -1.54, -0.72 -2.5 C-1.18 -3.46, -1.93 -4.8, -2.78 -5.75 C-3.62 -6.7, -4.81 -7.59, -5.8 -8.22 C-6.78 -8.84, -7.69 -9.3, -8.7 -9.5 C-9.71 -9.7, -10.9 -9.56, -11.85 -9.43 C-12.8 -9.3, -13.43 -9.19, -14.42 -8.71 C-15.41 -8.24, -17.25 -6.93, -17.81 -6.58" stroke="#E1E1E1" stroke-width="2" fill="none"></path></g></g><mask></mask><g stroke-linecap="round"><g transform="translate(290.00913187796516 22.557035825395644) rotate(0 9.59790065287416 18.415581962717724)"><path d="M0 0 C0.74 0.47, 2.98 1.46, 4.43 2.83 C5.87 4.2, 7.66 6.52, 8.66 8.2 C9.67 9.88, 10.07 11.4, 10.48 12.91 C10.9 14.42, 11.01 15.18, 11.14 17.27 C11.27 19.37, 11.27 23.12, 11.28 25.49 C11.28 27.85, 11.21 29.62, 11.19 31.46 C11.16 33.31, 11.27 35.36, 11.13 36.55 C10.99 37.74, 9.98 38.21, 10.35 38.61 C10.71 39.01, 12.34 39, 13.33 38.96 C14.31 38.91, 15.41 38.71, 16.24 38.34 C17.06 37.97, 17.78 37.22, 18.28 36.72 C18.77 36.22, 19.25 35.88, 19.2 35.34 C19.15 34.81, 18.35 34.34, 17.97 33.52 C17.6 32.7, 17.19 31.7, 16.94 30.4 C16.69 29.11, 16.64 27.52, 16.49 25.75 C16.34 23.98, 16.19 21.88, 16.04 19.77 C15.89 17.66, 15.81 15.26, 15.58 13.09 C15.36 10.92, 15.1 8.6, 14.69 6.75 C14.28 4.9, 13.89 3.36, 13.13 2 C12.37 0.64, 11.14 -0.72, 10.13 -1.41 C9.13 -2.09, 8.05 -2.04, 7.09 -2.12 C6.13 -2.21, 5.23 -2.16, 4.37 -1.92 C3.52 -1.69, 2.69 -1.01, 1.96 -0.69 C1.23 -0.37, 0.33 -0.12, 0 0 M0 0 C0.74 0.47, 2.98 1.46, 4.43 2.83 C5.87 4.2, 7.66 6.52, 8.66 8.2 C9.67 9.88, 10.07 11.4, 10.48 12.91 C10.9 14.42, 11.01 15.18, 11.14 17.27 C11.27 19.37, 11.27 23.12, 11.28 25.49 C11.28 27.85, 11.21 29.62, 11.19 31.46 C11.16 33.31, 11.27 35.36, 11.13 36.55 C10.99 37.74, 9.98 38.21, 10.35 38.61 C10.71 39.01, 12.34 39, 13.33 38.96 C14.31 38.91, 15.41 38.71, 16.24 38.34 C17.06 37.97, 17.78 37.22, 18.28 36.72 C18.77 36.22, 19.25 35.88, 19.2 35.34 C19.15 34.81, 18.35 34.34, 17.97 33.52 C17.6 32.7, 17.19 31.7, 16.94 30.4 C16.69 29.11, 16.64 27.52, 16.49 25.75 C16.34 23.98, 16.19 21.88, 16.04 19.77 C15.89 17.66, 15.81 15.26, 15.58 13.09 C15.36 10.92, 15.1 8.6, 14.69 6.75 C14.28 4.9, 13.89 3.36, 13.13 2 C12.37 0.64, 11.14 -0.72, 10.13 -1.41 C9.13 -2.09, 8.05 -2.04, 7.09 -2.12 C6.13 -2.21, 5.23 -2.16, 4.37 -1.92 C3.52 -1.69, 2.69 -1.01, 1.96 -0.69 C1.23 -0.37, 0.33 -0.12, 0 0" stroke="#E1E1E1" stroke-width="2" fill="none"></path></g></g><mask></mask><g stroke-linecap="round"><g transform="translate(264.7702951740472 207.59774925996842) rotate(0 5.1394854459419435 0)"><path d="M0 0 C1.71 0, 8.57 0, 10.28 0 M0 0 C1.71 0, 8.57 0, 10.28 0" stroke="#E1E1E1" stroke-width="2" fill="none"></path></g></g><mask></mask><g stroke-linecap="round"><g transform="translate(285.5381895905233 207.62342428951607) rotate(0 5.3062888093802485 0)"><path d="M0 0 C1.77 0, 8.84 0, 10.61 0 M0 0 C1.77 0, 8.84 0, 10.61 0" stroke="#E1E1E1" stroke-width="2" fill="none"></path></g></g><mask></mask><g stroke-linecap="round"><g transform="translate(296.1358012400925 207.6632908141914) rotate(0 -5.287968584922908 10.365682303356664)"><path d="M0 0 C0 1.55, 0 6.73, 0 9.31 C0 11.9, 0.17 13.97, 0 15.51 C-0.17 17.05, -0.48 17.72, -1.02 18.53 C-1.56 19.34, -2.51 20, -3.23 20.37 C-3.94 20.74, -4.6 20.76, -5.33 20.73 C-6.06 20.7, -6.92 20.5, -7.6 20.19 C-8.27 19.89, -8.89 19.63, -9.38 18.89 C-9.88 18.15, -10.37 17.2, -10.57 15.76 C-10.77 14.33, -10.58 12.93, -10.58 10.3 C-10.58 7.67, -10.58 1.71, -10.58 0 M0 0 C0 1.55, 0 6.73, 0 9.31 C0 11.9, 0.17 13.97, 0 15.51 C-0.17 17.05, -0.48 17.72, -1.02 18.53 C-1.56 19.34, -2.51 20, -3.23 20.37 C-3.94 20.74, -4.6 20.76, -5.33 20.73 C-6.06 20.7, -6.92 20.5, -7.6 20.19 C-8.27 19.89, -8.89 19.63, -9.38 18.89 C-9.88 18.15, -10.37 17.2, -10.57 15.76 C-10.77 14.33, -10.58 12.93, -10.58 10.3 C-10.58 7.67, -10.58 1.71, -10.58 0" stroke="#E1E1E1" stroke-width="2" fill="none"></path></g></g><mask></mask><g stroke-linecap="round"><g transform="translate(275.15352322779734 207.56470458349284) rotate(0 -5.159922656124309 10.352657916356577)"><path d="M0 0 C0 1.39, 0 6.04, 0 8.36 C0 10.68, 0.06 12.37, 0 13.94 C-0.06 15.5, 0.08 16.73, -0.36 17.75 C-0.81 18.77, -1.89 19.55, -2.68 20.04 C-3.46 20.54, -4.27 20.7, -5.07 20.71 C-5.88 20.71, -6.8 20.44, -7.5 20.09 C-8.19 19.75, -8.84 19.28, -9.27 18.63 C-9.7 17.98, -9.9 17.52, -10.07 16.19 C-10.23 14.86, -10.24 13.35, -10.29 10.66 C-10.33 7.97, -10.31 1.82, -10.32 0.06 M0 0 C0 1.39, 0 6.04, 0 8.36 C0 10.68, 0.06 12.37, 0 13.94 C-0.06 15.5, 0.08 16.73, -0.36 17.75 C-0.81 18.77, -1.89 19.55, -2.68 20.04 C-3.46 20.54, -4.27 20.7, -5.07 20.71 C-5.88 20.71, -6.8 20.44, -7.5 20.09 C-8.19 19.75, -8.84 19.28, -9.27 18.63 C-9.7 17.98, -9.9 17.52, -10.07 16.19 C-10.23 14.86, -10.24 13.35, -10.29 10.66 C-10.33 7.97, -10.31 1.82, -10.32 0.06" stroke="#E1E1E1" stroke-width="2" fill="none"></path></g></g><mask></mask></svg>