<svg version="1.1" xmlns="http://www.w3.org/2000/svg" viewBox="0 0 150.2725237842917 184.55922718010112" width="150.2725237842917" height="184.55922718010112" class="excalidraw-svg"><!-- svg-source:excalidraw --><metadata></metadata><defs><style class="style-fonts">
      </style></defs><rect x="0" y="0" width="150.2725237842917" height="184.55922718010112" fill="#000000"></rect><g stroke-linecap="round"><g stroke-opacity="0.9" fill-opacity="0.9" transform="translate(24.27771516005936 64.15273100351916) rotate(0 -1.074787122714696 -3.6323038727671033)"><path d="M0 0 C0.82 -0.8, 3.42 -3.36, 4.92 -4.8 C6.43 -6.24, 8.2 -7.62, 9.03 -8.66 C9.86 -9.7, 9.82 -10.21, 9.9 -11.05 C9.98 -11.89, 9.93 -13.1, 9.51 -13.7 C9.08 -14.29, 8.12 -14.47, 7.37 -14.61 C6.62 -14.76, 5.82 -14.93, 5.02 -14.57 C4.21 -14.21, 3.86 -13.72, 2.54 -12.44 C1.22 -11.16, -0.97 -8.77, -2.89 -6.89 C-4.82 -5.01, -7.6 -2.58, -9.02 -1.14 C-10.45 0.29, -10.96 0.84, -11.47 1.72 C-11.97 2.61, -12.09 3.37, -12.05 4.17 C-12.01 4.96, -11.76 5.97, -11.25 6.5 C-10.74 7.03, -9.77 7.32, -9 7.35 C-8.23 7.38, -7.54 7.23, -6.63 6.66 C-5.72 6.09, -4.64 5.02, -3.53 3.91 C-2.43 2.8, -0.59 0.65, 0 0 M0 0 C0.82 -0.8, 3.42 -3.36, 4.92 -4.8 C6.43 -6.24, 8.2 -7.62, 9.03 -8.66 C9.86 -9.7, 9.82 -10.21, 9.9 -11.05 C9.98 -11.89, 9.93 -13.1, 9.51 -13.7 C9.08 -14.29, 8.12 -14.47, 7.37 -14.61 C6.62 -14.76, 5.82 -14.93, 5.02 -14.57 C4.21 -14.21, 3.86 -13.72, 2.54 -12.44 C1.22 -11.16, -0.97 -8.77, -2.89 -6.89 C-4.82 -5.01, -7.6 -2.58, -9.02 -1.14 C-10.45 0.29, -10.96 0.84, -11.47 1.72 C-11.97 2.61, -12.09 3.37, -12.05 4.17 C-12.01 4.96, -11.76 5.97, -11.25 6.5 C-10.74 7.03, -9.77 7.32, -9 7.35 C-8.23 7.38, -7.54 7.23, -6.63 6.66 C-5.72 6.09, -4.64 5.02, -3.53 3.91 C-2.43 2.8, -0.59 0.65, 0 0" stroke="#E1E1E1" stroke-width="2" fill="none"></path></g></g><mask></mask><g stroke-linecap="round"><g stroke-opacity="0.9" fill-opacity="0.9" transform="translate(16.916114598033573 91.07848202531153) rotate(0 2.4553836111224427 2.355570857180602)"><path d="M0 0 C-0.48 0.43, -1.86 1.52, -2.88 2.56 C-3.89 3.59, -5.54 5.16, -6.09 6.2 C-6.64 7.25, -6.5 8.08, -6.2 8.83 C-5.9 9.58, -5.06 10.37, -4.28 10.71 C-3.51 11.05, -2.64 11.41, -1.55 10.89 C-0.46 10.36, 0.8 8.98, 2.26 7.56 C3.72 6.14, 5.86 3.7, 7.21 2.37 C8.56 1.03, 9.73 0.41, 10.38 -0.46 C11.03 -1.33, 11.18 -2.01, 11.11 -2.85 C11.04 -3.69, 10.59 -4.96, 9.95 -5.52 C9.3 -6.07, 8.04 -6.21, 7.25 -6.18 C6.46 -6.15, 6.42 -6.38, 5.21 -5.35 C4 -4.32, 0.87 -0.89, 0 0 M0 0 C-0.48 0.43, -1.86 1.52, -2.88 2.56 C-3.89 3.59, -5.54 5.16, -6.09 6.2 C-6.64 7.25, -6.5 8.08, -6.2 8.83 C-5.9 9.58, -5.06 10.37, -4.28 10.71 C-3.51 11.05, -2.64 11.41, -1.55 10.89 C-0.46 10.36, 0.8 8.98, 2.26 7.56 C3.72 6.14, 5.86 3.7, 7.21 2.37 C8.56 1.03, 9.73 0.41, 10.38 -0.46 C11.03 -1.33, 11.18 -2.01, 11.11 -2.85 C11.04 -3.69, 10.59 -4.96, 9.95 -5.52 C9.3 -6.07, 8.04 -6.21, 7.25 -6.18 C6.46 -6.15, 6.42 -6.38, 5.21 -5.35 C4 -4.32, 0.87 -0.89, 0 0" stroke="#E1E1E1" stroke-width="2" fill="none"></path></g></g><mask></mask><g stroke-linecap="round"><g stroke-opacity="0.9" fill-opacity="0.9" transform="translate(29.454678685712167 106.80421616230788) rotate(0 1.4633068104051574 3.7248188168243814)"><path d="M0 0 C-1.71 1.73, -7.48 7.56, -10.27 10.37 C-13.07 13.18, -15.3 15.36, -16.76 16.85 C-18.21 18.34, -18.56 18.4, -18.99 19.31 C-19.42 20.21, -19.6 21.44, -19.33 22.28 C-19.06 23.12, -18.16 23.99, -17.37 24.34 C-16.58 24.7, -15.64 24.95, -14.58 24.43 C-13.53 23.91, -13.36 23.43, -11.05 21.22 C-8.74 19.01, -4.05 14.56, -0.71 11.17 C2.62 7.78, 5.86 4.04, 8.97 0.88 C12.09 -2.29, 15.76 -5.6, 17.97 -7.81 C20.18 -10.03, 21.57 -11.13, 22.25 -12.4 C22.94 -13.67, 22.45 -14.67, 22.07 -15.43 C21.69 -16.19, 20.73 -16.76, 19.98 -16.98 C19.24 -17.2, 18.78 -17.53, 17.59 -16.77 C16.39 -16.02, 14.87 -14.44, 12.84 -12.45 C10.82 -10.46, 7.72 -7.02, 5.44 -4.84 C3.16 -2.65, 0.23 -0.26, -0.81 0.65 M0 0 C-1.71 1.73, -7.48 7.56, -10.27 10.37 C-13.07 13.18, -15.3 15.36, -16.76 16.85 C-18.21 18.34, -18.56 18.4, -18.99 19.31 C-19.42 20.21, -19.6 21.44, -19.33 22.28 C-19.06 23.12, -18.16 23.99, -17.37 24.34 C-16.58 24.7, -15.64 24.95, -14.58 24.43 C-13.53 23.91, -13.36 23.43, -11.05 21.22 C-8.74 19.01, -4.05 14.56, -0.71 11.17 C2.62 7.78, 5.86 4.04, 8.97 0.88 C12.09 -2.29, 15.76 -5.6, 17.97 -7.81 C20.18 -10.03, 21.57 -11.13, 22.25 -12.4 C22.94 -13.67, 22.45 -14.67, 22.07 -15.43 C21.69 -16.19, 20.73 -16.76, 19.98 -16.98 C19.24 -17.2, 18.78 -17.53, 17.59 -16.77 C16.39 -16.02, 14.87 -14.44, 12.84 -12.45 C10.82 -10.46, 7.72 -7.02, 5.44 -4.84 C3.16 -2.65, 0.23 -0.26, -0.81 0.65" stroke="#E1E1E1" stroke-width="2" fill="none"></path></g></g><mask></mask><g stroke-linecap="round"><g stroke-opacity="0.9" fill-opacity="0.9" transform="translate(46.90617472297208 122.06876563804335) rotate(0 35.32958453773732 -45.50559036866689)"><path d="M0 0 C-1.85 1.81, -8.58 8.31, -11.12 10.84 C-13.67 13.37, -14.41 14.03, -15.26 15.17 C-16.11 16.31, -16.22 16.83, -16.21 17.68 C-16.19 18.53, -15.78 19.73, -15.16 20.28 C-14.54 20.84, -13.32 21.08, -12.49 21 C-11.66 20.92, -11.26 20.68, -10.19 19.79 C-9.11 18.91, -8.56 18.21, -6.04 15.69 C-3.53 13.18, 1.17 8.42, 4.91 4.7 C8.65 0.98, 12.49 -2.7, 16.39 -6.63 C20.3 -10.56, 24.71 -15.18, 28.36 -18.87 C32.01 -22.57, 34.86 -25.38, 38.29 -28.78 C41.71 -32.17, 45.74 -36.1, 48.91 -39.23 C52.08 -42.37, 55.3 -45.58, 57.29 -47.57 C59.29 -49.56, 59.96 -50.76, 60.88 -51.16 C61.8 -51.55, 62.01 -50.63, 62.81 -49.95 C63.61 -49.26, 64.71 -47.95, 65.68 -47.05 C66.65 -46.14, 67.6 -45.04, 68.64 -44.52 C69.68 -44, 70.71 -43.96, 71.92 -43.93 C73.13 -43.9, 74.6 -43.76, 75.91 -44.32 C77.21 -44.88, 78.79 -45.81, 79.77 -47.26 C80.75 -48.72, 81.25 -49.91, 81.79 -53.07 C82.34 -56.24, 82.59 -61.77, 83.02 -66.25 C83.46 -70.72, 83.92 -75.27, 84.41 -79.91 C84.9 -84.54, 85.54 -90.16, 85.95 -94.05 C86.36 -97.95, 86.91 -101, 86.87 -103.28 C86.82 -105.57, 86.33 -106.54, 85.7 -107.77 C85.08 -109.01, 84.2 -109.98, 83.13 -110.69 C82.05 -111.4, 80.73 -111.84, 79.27 -112.01 C77.81 -112.19, 76.62 -111.92, 74.37 -111.75 C72.12 -111.58, 69.11 -111.31, 65.76 -111 C62.4 -110.68, 57.83 -110.23, 54.24 -109.87 C50.66 -109.51, 47.58 -109.2, 44.25 -108.86 C40.93 -108.51, 37.19 -108.09, 34.29 -107.79 C31.4 -107.49, 28.73 -107.34, 26.88 -107.05 C25.02 -106.77, 24.23 -106.56, 23.18 -106.1 C22.13 -105.63, 21.36 -105.2, 20.58 -104.26 C19.8 -103.32, 18.91 -101.74, 18.52 -100.44 C18.13 -99.15, 18.04 -97.74, 18.22 -96.48 C18.4 -95.22, 18.93 -93.91, 19.59 -92.86 C20.25 -91.81, 21.27 -91.13, 22.19 -90.19 C23.12 -89.24, 24.91 -88.02, 25.14 -87.2 C25.38 -86.38, 24.89 -86.69, 23.6 -85.27 C22.31 -83.85, 19.79 -81.14, 17.41 -78.69 C15.03 -76.24, 12.28 -73.6, 9.3 -70.59 C6.32 -67.58, 2.47 -63.62, -0.48 -60.63 C-3.43 -57.63, -6.13 -54.87, -8.4 -52.61 C-10.68 -50.35, -13.25 -48.53, -14.15 -47.04 C-15.05 -45.56, -14.24 -44.53, -13.82 -43.7 C-13.41 -42.87, -12.43 -42.3, -11.67 -42.07 C-10.91 -41.84, -10.28 -41.79, -9.28 -42.3 C-8.28 -42.81, -7.4 -43.46, -5.66 -45.13 C-3.93 -46.8, -1.66 -49.46, 1.15 -52.32 C3.96 -55.18, 7.82 -58.89, 11.19 -62.29 C14.56 -65.69, 18.79 -70.11, 21.35 -72.71 C23.92 -75.32, 24.96 -76.3, 26.59 -77.92 C28.22 -79.54, 29.97 -81.25, 31.13 -82.43 C32.29 -83.6, 33.11 -84.12, 33.57 -84.97 C34.04 -85.81, 34.09 -86.67, 33.92 -87.52 C33.75 -88.36, 33.4 -89.05, 32.58 -90.02 C31.75 -90.99, 30.05 -92.27, 28.98 -93.33 C27.91 -94.38, 26.81 -95.52, 26.16 -96.33 C25.51 -97.14, 25.04 -97.56, 25.09 -98.18 C25.14 -98.79, 24.82 -99.61, 26.48 -100.02 C28.14 -100.44, 29.9 -100.13, 35.06 -100.65 C40.22 -101.17, 51.95 -102.58, 57.44 -103.14 C62.93 -103.7, 65.04 -103.71, 68.02 -104.01 C71.01 -104.32, 73.5 -104.8, 75.35 -104.96 C77.21 -105.11, 78.41 -105.36, 79.16 -104.96 C79.92 -104.56, 79.95 -104.76, 79.88 -102.56 C79.81 -100.36, 79.18 -96, 78.71 -91.78 C78.25 -87.55, 77.64 -82.35, 77.07 -77.22 C76.5 -72.09, 75.74 -65.07, 75.29 -61 C74.83 -56.92, 74.77 -54.46, 74.36 -52.77 C73.95 -51.07, 73.45 -51.03, 72.85 -50.84 C72.26 -50.66, 71.72 -50.91, 70.79 -51.66 C69.85 -52.4, 68.37 -54.16, 67.26 -55.32 C66.15 -56.49, 64.97 -57.91, 64.12 -58.63 C63.26 -59.35, 62.91 -59.49, 62.14 -59.65 C61.38 -59.81, 60.76 -60.37, 59.52 -59.6 C58.28 -58.82, 57.38 -57.62, 54.72 -55.01 C52.06 -52.41, 47.31 -47.72, 43.56 -43.94 C39.81 -40.16, 39.5 -39.65, 32.24 -32.33 C24.98 -25.01, 5.37 -5.39, 0 0 M0 0 C-1.85 1.81, -8.58 8.31, -11.12 10.84 C-13.67 13.37, -14.41 14.03, -15.26 15.17 C-16.11 16.31, -16.22 16.83, -16.21 17.68 C-16.19 18.53, -15.78 19.73, -15.16 20.28 C-14.54 20.84, -13.32 21.08, -12.49 21 C-11.66 20.92, -11.26 20.68, -10.19 19.79 C-9.11 18.91, -8.56 18.21, -6.04 15.69 C-3.53 13.18, 1.17 8.42, 4.91 4.7 C8.65 0.98, 12.49 -2.7, 16.39 -6.63 C20.3 -10.56, 24.71 -15.18, 28.36 -18.87 C32.01 -22.57, 34.86 -25.38, 38.29 -28.78 C41.71 -32.17, 45.74 -36.1, 48.91 -39.23 C52.08 -42.37, 55.3 -45.58, 57.29 -47.57 C59.29 -49.56, 59.96 -50.76, 60.88 -51.16 C61.8 -51.55, 62.01 -50.63, 62.81 -49.95 C63.61 -49.26, 64.71 -47.95, 65.68 -47.05 C66.65 -46.14, 67.6 -45.04, 68.64 -44.52 C69.68 -44, 70.71 -43.96, 71.92 -43.93 C73.13 -43.9, 74.6 -43.76, 75.91 -44.32 C77.21 -44.88, 78.79 -45.81, 79.77 -47.26 C80.75 -48.72, 81.25 -49.91, 81.79 -53.07 C82.34 -56.24, 82.59 -61.77, 83.02 -66.25 C83.46 -70.72, 83.92 -75.27, 84.41 -79.91 C84.9 -84.54, 85.54 -90.16, 85.95 -94.05 C86.36 -97.95, 86.91 -101, 86.87 -103.28 C86.82 -105.57, 86.33 -106.54, 85.7 -107.77 C85.08 -109.01, 84.2 -109.98, 83.13 -110.69 C82.05 -111.4, 80.73 -111.84, 79.27 -112.01 C77.81 -112.19, 76.62 -111.92, 74.37 -111.75 C72.12 -111.58, 69.11 -111.31, 65.76 -111 C62.4 -110.68, 57.83 -110.23, 54.24 -109.87 C50.66 -109.51, 47.58 -109.2, 44.25 -108.86 C40.93 -108.51, 37.19 -108.09, 34.29 -107.79 C31.4 -107.49, 28.73 -107.34, 26.88 -107.05 C25.02 -106.77, 24.23 -106.56, 23.18 -106.1 C22.13 -105.63, 21.36 -105.2, 20.58 -104.26 C19.8 -103.32, 18.91 -101.74, 18.52 -100.44 C18.13 -99.15, 18.04 -97.74, 18.22 -96.48 C18.4 -95.22, 18.93 -93.91, 19.59 -92.86 C20.25 -91.81, 21.27 -91.13, 22.19 -90.19 C23.12 -89.24, 24.91 -88.02, 25.14 -87.2 C25.38 -86.38, 24.89 -86.69, 23.6 -85.27 C22.31 -83.85, 19.79 -81.14, 17.41 -78.69 C15.03 -76.24, 12.28 -73.6, 9.3 -70.59 C6.32 -67.58, 2.47 -63.62, -0.48 -60.63 C-3.43 -57.63, -6.13 -54.87, -8.4 -52.61 C-10.68 -50.35, -13.25 -48.53, -14.15 -47.04 C-15.05 -45.56, -14.24 -44.53, -13.82 -43.7 C-13.41 -42.87, -12.43 -42.3, -11.67 -42.07 C-10.91 -41.84, -10.28 -41.79, -9.28 -42.3 C-8.28 -42.81, -7.4 -43.46, -5.66 -45.13 C-3.93 -46.8, -1.66 -49.46, 1.15 -52.32 C3.96 -55.18, 7.82 -58.89, 11.19 -62.29 C14.56 -65.69, 18.79 -70.11, 21.35 -72.71 C23.92 -75.32, 24.96 -76.3, 26.59 -77.92 C28.22 -79.54, 29.97 -81.25, 31.13 -82.43 C32.29 -83.6, 33.11 -84.12, 33.57 -84.97 C34.04 -85.81, 34.09 -86.67, 33.92 -87.52 C33.75 -88.36, 33.4 -89.05, 32.58 -90.02 C31.75 -90.99, 30.05 -92.27, 28.98 -93.33 C27.91 -94.38, 26.81 -95.52, 26.16 -96.33 C25.51 -97.14, 25.04 -97.56, 25.09 -98.18 C25.14 -98.79, 24.82 -99.61, 26.48 -100.02 C28.14 -100.44, 29.9 -100.13, 35.06 -100.65 C40.22 -101.17, 51.95 -102.58, 57.44 -103.14 C62.93 -103.7, 65.04 -103.71, 68.02 -104.01 C71.01 -104.32, 73.5 -104.8, 75.35 -104.96 C77.21 -105.11, 78.41 -105.36, 79.16 -104.96 C79.92 -104.56, 79.95 -104.76, 79.88 -102.56 C79.81 -100.36, 79.18 -96, 78.71 -91.78 C78.25 -87.55, 77.64 -82.35, 77.07 -77.22 C76.5 -72.09, 75.74 -65.07, 75.29 -61 C74.83 -56.92, 74.77 -54.46, 74.36 -52.77 C73.95 -51.07, 73.45 -51.03, 72.85 -50.84 C72.26 -50.66, 71.72 -50.91, 70.79 -51.66 C69.85 -52.4, 68.37 -54.16, 67.26 -55.32 C66.15 -56.49, 64.97 -57.91, 64.12 -58.63 C63.26 -59.35, 62.91 -59.49, 62.14 -59.65 C61.38 -59.81, 60.76 -60.37, 59.52 -59.6 C58.28 -58.82, 57.38 -57.62, 54.72 -55.01 C52.06 -52.41, 47.31 -47.72, 43.56 -43.94 C39.81 -40.16, 39.5 -39.65, 32.24 -32.33 C24.98 -25.01, 5.37 -5.39, 0 0" stroke="#E1E1E1" stroke-width="2" fill="none"></path></g></g><mask></mask><g stroke-linecap="round"><g stroke-opacity="0.9" fill-opacity="0.9" transform="translate(115.86582858677352 167.42362895942472) rotate(89.96324440786151 -20.920484126779414 -27.872561361964912)"><path d="M0 0 C1.18 1.18, 5.48 5.43, 7.11 7.08 C8.73 8.73, 8.66 8.65, 9.75 9.91 C10.84 11.18, 13 13.4, 13.64 14.65 C14.29 15.91, 14.09 17.01, 13.65 17.44 C13.2 17.86, 12.16 17.97, 10.97 17.22 C9.78 16.47, 7.69 14.09, 6.51 12.93 C5.32 11.77, 5.47 11.9, 3.86 10.25 C2.25 8.61, -0.75 5.5, -3.13 3.07 C-5.52 0.64, -7.98 -1.77, -10.47 -4.33 C-12.97 -6.9, -15.78 -9.92, -18.11 -12.33 C-20.44 -14.74, -22.27 -16.58, -24.46 -18.8 C-26.64 -21.02, -29.22 -23.59, -31.24 -25.63 C-33.27 -27.68, -35.32 -29.78, -36.6 -31.08 C-37.87 -32.38, -38.3 -33.16, -38.89 -33.42 C-39.47 -33.68, -39.61 -33.08, -40.12 -32.63 C-40.63 -32.18, -41.33 -31.33, -41.95 -30.74 C-42.57 -30.15, -43.18 -29.42, -43.85 -29.08 C-44.51 -28.74, -45.17 -28.72, -45.94 -28.7 C-46.71 -28.68, -47.65 -28.59, -48.49 -28.96 C-49.32 -29.32, -50.32 -29.93, -50.95 -30.88 C-51.58 -31.83, -51.9 -32.61, -52.25 -34.67 C-52.59 -36.74, -52.75 -40.36, -53.03 -43.28 C-53.31 -46.2, -53.61 -49.18, -53.92 -52.21 C-54.23 -55.23, -54.64 -58.9, -54.9 -61.45 C-55.16 -63.99, -55.51 -65.99, -55.49 -67.48 C-55.46 -68.97, -55.14 -69.61, -54.74 -70.41 C-54.35 -71.22, -53.78 -71.86, -53.1 -72.32 C-52.41 -72.78, -51.56 -73.07, -50.63 -73.18 C-49.7 -73.3, -48.94 -73.12, -47.51 -73.01 C-46.07 -72.9, -44.15 -72.72, -42 -72.52 C-39.86 -72.31, -36.94 -72.01, -34.65 -71.78 C-32.36 -71.55, -30.39 -71.35, -28.27 -71.12 C-26.14 -70.89, -23.76 -70.62, -21.91 -70.42 C-20.06 -70.23, -18.35 -70.13, -17.17 -69.94 C-15.98 -69.76, -15.48 -69.62, -14.81 -69.32 C-14.14 -69.01, -13.64 -68.73, -13.14 -68.12 C-12.65 -67.5, -12.08 -66.47, -11.83 -65.62 C-11.58 -64.78, -11.53 -63.86, -11.64 -63.03 C-11.75 -62.21, -12.09 -61.35, -12.51 -60.67 C-12.94 -59.98, -13.58 -59.54, -14.18 -58.92 C-14.77 -58.31, -15.91 -57.51, -16.06 -56.97 C-16.21 -56.44, -15.9 -56.64, -15.07 -55.71 C-14.25 -54.79, -12.64 -53.01, -11.12 -51.41 C-9.6 -49.81, -7.85 -48.08, -5.94 -46.12 C-4.04 -44.15, -1.58 -41.57, 0.31 -39.61 C2.19 -37.65, 3.91 -35.85, 5.37 -34.37 C6.82 -32.89, 8.46 -31.7, 9.04 -30.73 C9.61 -29.76, 9.09 -29.09, 8.83 -28.55 C8.57 -28.01, 7.94 -27.64, 7.45 -27.49 C6.97 -27.33, 6.56 -27.3, 5.93 -27.64 C5.29 -27.97, 4.73 -28.39, 3.62 -29.48 C2.51 -30.57, 1.06 -32.31, -0.73 -34.18 C-2.53 -36.05, -5 -38.48, -7.15 -40.7 C-9.3 -42.92, -12 -45.8, -13.64 -47.51 C-15.28 -49.21, -15.95 -49.85, -16.99 -50.91 C-18.03 -51.96, -19.14 -53.09, -19.88 -53.85 C-20.63 -54.62, -21.15 -54.96, -21.45 -55.51 C-21.74 -56.06, -21.77 -56.63, -21.67 -57.18 C-21.56 -57.73, -21.33 -58.18, -20.81 -58.82 C-20.28 -59.45, -19.2 -60.29, -18.51 -60.97 C-17.83 -61.66, -17.12 -62.41, -16.71 -62.94 C-16.3 -63.47, -15.99 -63.74, -16.03 -64.14 C-16.06 -64.55, -15.85 -65.08, -16.91 -65.35 C-17.98 -65.62, -19.1 -65.42, -22.4 -65.76 C-25.69 -66.1, -33.18 -67.02, -36.69 -67.39 C-40.2 -67.75, -41.54 -67.76, -43.45 -67.96 C-45.36 -68.15, -46.95 -68.47, -48.13 -68.57 C-49.32 -68.67, -50.08 -68.83, -50.57 -68.57 C-51.05 -68.31, -51.07 -68.44, -51.02 -67.01 C-50.98 -65.57, -50.58 -62.72, -50.28 -59.96 C-49.98 -57.2, -49.6 -53.8, -49.23 -50.45 C-48.87 -47.1, -48.38 -42.51, -48.09 -39.85 C-47.8 -37.19, -47.76 -35.58, -47.5 -34.47 C-47.24 -33.37, -46.92 -33.34, -46.54 -33.22 C-46.15 -33.1, -45.81 -33.26, -45.21 -33.75 C-44.62 -34.24, -43.67 -35.39, -42.96 -36.15 C-42.25 -36.9, -41.5 -37.83, -40.96 -38.3 C-40.41 -38.78, -40.18 -38.87, -39.69 -38.97 C-39.21 -39.08, -38.81 -39.44, -38.02 -38.94 C-37.23 -38.43, -36.65 -37.65, -34.95 -35.94 C-33.26 -34.24, -30.22 -31.18, -27.82 -28.71 C-25.43 -26.24, -25.23 -25.91, -20.6 -21.12 C-15.96 -16.34, -3.43 -3.52, 0 0 M0 0 C1.18 1.18, 5.48 5.43, 7.11 7.08 C8.73 8.73, 8.66 8.65, 9.75 9.91 C10.84 11.18, 13 13.4, 13.64 14.65 C14.29 15.91, 14.09 17.01, 13.65 17.44 C13.2 17.86, 12.16 17.97, 10.97 17.22 C9.78 16.47, 7.69 14.09, 6.51 12.93 C5.32 11.77, 5.47 11.9, 3.86 10.25 C2.25 8.61, -0.75 5.5, -3.13 3.07 C-5.52 0.64, -7.98 -1.77, -10.47 -4.33 C-12.97 -6.9, -15.78 -9.92, -18.11 -12.33 C-20.44 -14.74, -22.27 -16.58, -24.46 -18.8 C-26.64 -21.02, -29.22 -23.59, -31.24 -25.63 C-33.27 -27.68, -35.32 -29.78, -36.6 -31.08 C-37.87 -32.38, -38.3 -33.16, -38.89 -33.42 C-39.47 -33.68, -39.61 -33.08, -40.12 -32.63 C-40.63 -32.18, -41.33 -31.33, -41.95 -30.74 C-42.57 -30.15, -43.18 -29.42, -43.85 -29.08 C-44.51 -28.74, -45.17 -28.72, -45.94 -28.7 C-46.71 -28.68, -47.65 -28.59, -48.49 -28.96 C-49.32 -29.32, -50.32 -29.93, -50.95 -30.88 C-51.58 -31.83, -51.9 -32.61, -52.25 -34.67 C-52.59 -36.74, -52.75 -40.36, -53.03 -43.28 C-53.31 -46.2, -53.61 -49.18, -53.92 -52.21 C-54.23 -55.23, -54.64 -58.9, -54.9 -61.45 C-55.16 -63.99, -55.51 -65.99, -55.49 -67.48 C-55.46 -68.97, -55.14 -69.61, -54.74 -70.41 C-54.35 -71.22, -53.78 -71.86, -53.1 -72.32 C-52.41 -72.78, -51.56 -73.07, -50.63 -73.18 C-49.7 -73.3, -48.94 -73.12, -47.51 -73.01 C-46.07 -72.9, -44.15 -72.72, -42 -72.52 C-39.86 -72.31, -36.94 -72.01, -34.65 -71.78 C-32.36 -71.55, -30.39 -71.35, -28.27 -71.12 C-26.14 -70.89, -23.76 -70.62, -21.91 -70.42 C-20.06 -70.23, -18.35 -70.13, -17.17 -69.94 C-15.98 -69.76, -15.48 -69.62, -14.81 -69.32 C-14.14 -69.01, -13.64 -68.73, -13.14 -68.12 C-12.65 -67.5, -12.08 -66.47, -11.83 -65.62 C-11.58 -64.78, -11.53 -63.86, -11.64 -63.03 C-11.75 -62.21, -12.09 -61.35, -12.51 -60.67 C-12.94 -59.98, -13.58 -59.54, -14.18 -58.92 C-14.77 -58.31, -15.91 -57.51, -16.06 -56.97 C-16.21 -56.44, -15.9 -56.64, -15.07 -55.71 C-14.25 -54.79, -12.64 -53.01, -11.12 -51.41 C-9.6 -49.81, -7.85 -48.08, -5.94 -46.12 C-4.04 -44.15, -1.58 -41.57, 0.31 -39.61 C2.19 -37.65, 3.91 -35.85, 5.37 -34.37 C6.82 -32.89, 8.46 -31.7, 9.04 -30.73 C9.61 -29.76, 9.09 -29.09, 8.83 -28.55 C8.57 -28.01, 7.94 -27.64, 7.45 -27.49 C6.97 -27.33, 6.56 -27.3, 5.93 -27.64 C5.29 -27.97, 4.73 -28.39, 3.62 -29.48 C2.51 -30.57, 1.06 -32.31, -0.73 -34.18 C-2.53 -36.05, -5 -38.48, -7.15 -40.7 C-9.3 -42.92, -12 -45.8, -13.64 -47.51 C-15.28 -49.21, -15.95 -49.85, -16.99 -50.91 C-18.03 -51.96, -19.14 -53.09, -19.88 -53.85 C-20.63 -54.62, -21.15 -54.96, -21.45 -55.51 C-21.74 -56.06, -21.77 -56.63, -21.67 -57.18 C-21.56 -57.73, -21.33 -58.18, -20.81 -58.82 C-20.28 -59.45, -19.2 -60.29, -18.51 -60.97 C-17.83 -61.66, -17.12 -62.41, -16.71 -62.94 C-16.3 -63.47, -15.99 -63.74, -16.03 -64.14 C-16.06 -64.55, -15.85 -65.08, -16.91 -65.35 C-17.98 -65.62, -19.1 -65.42, -22.4 -65.76 C-25.69 -66.1, -33.18 -67.02, -36.69 -67.39 C-40.2 -67.75, -41.54 -67.76, -43.45 -67.96 C-45.36 -68.15, -46.95 -68.47, -48.13 -68.57 C-49.32 -68.67, -50.08 -68.83, -50.57 -68.57 C-51.05 -68.31, -51.07 -68.44, -51.02 -67.01 C-50.98 -65.57, -50.58 -62.72, -50.28 -59.96 C-49.98 -57.2, -49.6 -53.8, -49.23 -50.45 C-48.87 -47.1, -48.38 -42.51, -48.09 -39.85 C-47.8 -37.19, -47.76 -35.58, -47.5 -34.47 C-47.24 -33.37, -46.92 -33.34, -46.54 -33.22 C-46.15 -33.1, -45.81 -33.26, -45.21 -33.75 C-44.62 -34.24, -43.67 -35.39, -42.96 -36.15 C-42.25 -36.9, -41.5 -37.83, -40.96 -38.3 C-40.41 -38.78, -40.18 -38.87, -39.69 -38.97 C-39.21 -39.08, -38.81 -39.44, -38.02 -38.94 C-37.23 -38.43, -36.65 -37.65, -34.95 -35.94 C-33.26 -34.24, -30.22 -31.18, -27.82 -28.71 C-25.43 -26.24, -25.23 -25.91, -20.6 -21.12 C-15.96 -16.34, -3.43 -3.52, 0 0" stroke="#E1E1E1" stroke-width="2" fill="none"></path></g></g><mask></mask></svg>