<svg version="1.1" xmlns="http://www.w3.org/2000/svg" viewBox="0 0 213.30935371533997 163.56873086247106" width="213.30935371533997" height="163.56873086247106" class="excalidraw-svg"><!-- svg-source:excalidraw --><metadata></metadata><defs><style class="style-fonts">
      </style></defs><rect x="0" y="0" width="213.30935371533997" height="163.56873086247106" fill="#000000"></rect><g stroke-linecap="round"><g transform="translate(49.63422919637105 54.26513981955759) rotate(0 13.90846796955475 33.07911669732039)"><path d="M0 0 C-0.83 0.33, -3.43 1.3, -4.99 1.99 C-6.54 2.69, -8.09 3.53, -9.32 4.16 C-10.55 4.79, -11.63 5.26, -12.36 5.77 C-13.09 6.27, -13.39 6.59, -13.69 7.19 C-13.99 7.79, -14.15 8.65, -14.15 9.37 C-14.15 10.08, -14.04 10.83, -13.69 11.46 C-13.33 12.09, -12.65 12.79, -12.02 13.16 C-11.4 13.52, -10.59 13.62, -9.94 13.65 C-9.28 13.69, -8.78 13.65, -8.08 13.39 C-7.38 13.14, -6.58 12.59, -5.73 12.14 C-4.87 11.69, -4.04 11.2, -2.97 10.7 C-1.91 10.2, -0.67 9.68, 0.68 9.14 C2.03 8.6, 3.72 7.99, 5.14 7.46 C6.56 6.93, 7.83 6.42, 9.2 5.96 C10.58 5.5, 12.19 5.06, 13.37 4.71 C14.55 4.35, 15.49 4.18, 16.29 3.84 C17.09 3.49, 17.58 3.18, 18.17 2.66 C18.76 2.13, 19.41 1.3, 19.83 0.67 C20.25 0.05, 20.48 -0.49, 20.69 -1.08 C20.89 -1.66, 21 -1.78, 21.07 -2.83 C21.14 -3.88, 21.11 -4.86, 21.12 -7.37 C21.13 -9.88, 21.12 -15, 21.12 -17.88 C21.12 -20.77, 21.16 -23.16, 21.12 -24.68 C21.08 -26.2, 21.05 -26.31, 20.86 -27.01 C20.67 -27.72, 20.37 -28.28, 19.98 -28.92 C19.58 -29.56, 19.14 -30.27, 18.51 -30.85 C17.88 -31.43, 17 -32, 16.21 -32.38 C15.42 -32.77, 14.76 -33.06, 13.77 -33.13 C12.78 -33.2, 11.44 -33.03, 10.29 -32.79 C9.14 -32.55, 8.17 -32.1, 6.89 -31.67 C5.61 -31.24, 4.25 -30.81, 2.61 -30.22 C0.97 -29.64, -1.29 -28.84, -2.97 -28.15 C-4.66 -27.46, -6.05 -26.79, -7.51 -26.09 C-8.97 -25.39, -10.46 -24.64, -11.74 -23.95 C-13.03 -23.26, -13.96 -22.68, -15.2 -21.93 C-16.44 -21.18, -17.92 -20.27, -19.16 -19.44 C-20.4 -18.62, -21.51 -17.89, -22.66 -16.99 C-23.81 -16.09, -25.06 -14.9, -26.03 -14.03 C-27 -13.16, -27.65 -12.63, -28.5 -11.75 C-29.34 -10.87, -30.33 -9.67, -31.11 -8.73 C-31.89 -7.8, -32.51 -7.09, -33.19 -6.14 C-33.87 -5.18, -34.58 -4.06, -35.18 -3 C-35.78 -1.94, -36.33 -0.83, -36.81 0.21 C-37.28 1.24, -37.64 2.05, -38.03 3.23 C-38.42 4.42, -38.86 5.95, -39.12 7.3 C-39.38 8.65, -39.52 10.04, -39.58 11.35 C-39.65 12.66, -39.66 13.7, -39.53 15.15 C-39.39 16.6, -39.09 18.6, -38.77 20.05 C-38.45 21.51, -37.97 22.88, -37.61 23.89 C-37.25 24.91, -36.86 25.55, -36.58 26.14 C-36.31 26.72, -36.02 27.08, -35.95 27.4 C-35.87 27.72, -36.01 27.75, -36.13 28.06 C-36.26 28.37, -36.42 28.62, -36.7 29.26 C-36.97 29.9, -37.48 31.04, -37.79 31.91 C-38.11 32.77, -38.35 33.35, -38.61 34.46 C-38.87 35.56, -39.19 37.16, -39.35 38.52 C-39.5 39.88, -39.54 41.36, -39.54 42.62 C-39.54 43.87, -39.47 44.96, -39.34 46.05 C-39.22 47.14, -39.09 47.94, -38.79 49.14 C-38.49 50.35, -38.12 51.83, -37.52 53.28 C-36.92 54.74, -36 56.46, -35.2 57.87 C-34.39 59.28, -33.65 60.43, -32.68 61.74 C-31.72 63.05, -30.56 64.5, -29.41 65.73 C-28.27 66.97, -27.02 68.07, -25.81 69.14 C-24.61 70.2, -23.51 71.13, -22.18 72.13 C-20.86 73.13, -19.41 74.13, -17.86 75.13 C-16.32 76.14, -14.44 77.27, -12.91 78.15 C-11.38 79.03, -10.17 79.64, -8.68 80.38 C-7.19 81.13, -5.58 81.91, -3.95 82.6 C-2.32 83.3, -0.56 83.97, 1.09 84.57 C2.74 85.17, 4.18 85.64, 5.94 86.22 C7.69 86.8, 9.58 87.45, 11.63 88.03 C13.68 88.61, 16.3 89.24, 18.25 89.71 C20.19 90.19, 21.98 90.6, 23.3 90.87 C24.62 91.14, 25.53 91.21, 26.16 91.32 C26.8 91.44, 26.93 91.42, 27.11 91.56 C27.28 91.7, 27.15 91.86, 27.2 92.15 C27.24 92.45, 27.22 92.88, 27.37 93.34 C27.51 93.81, 27.8 94.43, 28.07 94.94 C28.35 95.44, 28.63 95.9, 29.03 96.37 C29.44 96.84, 29.89 97.34, 30.5 97.76 C31.12 98.18, 31.91 98.63, 32.71 98.88 C33.52 99.14, 34.46 99.26, 35.33 99.29 C36.21 99.32, 37.12 99.34, 37.97 99.05 C38.82 98.77, 39.6 98.19, 40.42 97.6 C41.25 97.01, 41.66 96.52, 42.92 95.51 C44.18 94.5, 46.27 92.86, 47.98 91.52 C49.68 90.18, 51.12 89.06, 53.15 87.47 C55.18 85.87, 58.3 83.43, 60.15 81.97 C61.99 80.52, 63.24 79.56, 64.2 78.72 C65.16 77.88, 65.44 77.62, 65.91 76.93 C66.39 76.25, 66.8 75.35, 67.05 74.62 C67.3 73.89, 67.37 73.31, 67.4 72.54 C67.43 71.78, 67.43 70.81, 67.24 70 C67.06 69.2, 66.78 68.42, 66.31 67.71 C65.84 66.99, 65.33 66.54, 64.41 65.72 C63.49 64.91, 62.15 63.89, 60.79 62.81 C59.43 61.74, 57.97 60.65, 56.26 59.29 C54.54 57.93, 52.31 56.11, 50.51 54.66 C48.7 53.21, 46.93 51.77, 45.43 50.57 C43.93 49.37, 42.59 48.28, 41.49 47.46 C40.4 46.64, 39.72 46.08, 38.87 45.65 C38.01 45.22, 37.2 44.98, 36.36 44.87 C35.52 44.77, 34.6 44.91, 33.81 45.03 C33.02 45.16, 32.32 45.3, 31.62 45.63 C30.93 45.95, 30.24 46.41, 29.64 46.98 C29.04 47.55, 28.43 48.34, 28.02 49.04 C27.61 49.73, 27.37 50.47, 27.18 51.16 C27 51.86, 27.05 52.85, 26.91 53.22 C26.78 53.59, 26.82 53.4, 26.38 53.35 C25.95 53.31, 25.49 53.21, 24.31 52.95 C23.13 52.69, 21.21 52.26, 19.32 51.8 C17.44 51.34, 15.22 50.85, 13.01 50.2 C10.8 49.54, 8.55 48.81, 6.04 47.86 C3.52 46.92, 0.45 45.68, -2.09 44.54 C-4.62 43.39, -6.98 42.22, -9.18 40.98 C-11.37 39.74, -13.45 38.33, -15.26 37.08 C-17.06 35.84, -18.39 34.97, -20 33.49 C-21.62 32.02, -23.51 30.13, -24.95 28.25 C-26.38 26.37, -27.74 23.95, -28.63 22.24 C-29.51 20.52, -29.88 19.48, -30.25 17.96 C-30.62 16.43, -30.85 14.85, -30.84 13.1 C-30.82 11.36, -30.58 9.2, -30.15 7.48 C-29.73 5.75, -29.15 4.38, -28.27 2.75 C-27.4 1.12, -26.25 -0.64, -24.9 -2.33 C-23.55 -4.01, -22.12 -5.61, -20.17 -7.34 C-18.23 -9.06, -15.54 -11.13, -13.24 -12.68 C-10.93 -14.22, -8.76 -15.39, -6.36 -16.63 C-3.97 -17.87, -1.04 -19.19, 1.13 -20.13 C3.29 -21.06, 5.12 -21.69, 6.63 -22.25 C8.14 -22.81, 9.28 -23.18, 10.2 -23.47 C11.12 -23.75, 11.79 -24, 12.15 -23.97 C12.51 -23.94, 12.34 -23.8, 12.37 -23.29 C12.41 -22.77, 12.37 -22.6, 12.37 -20.9 C12.37 -19.2, 12.37 -15.52, 12.37 -13.07 C12.37 -10.62, 12.38 -7.65, 12.37 -6.19 C12.37 -4.73, 12.47 -4.7, 12.32 -4.33 C12.18 -3.95, 12.13 -4.15, 11.52 -3.94 C10.9 -3.72, 9.95 -3.48, 8.63 -3.06 C7.31 -2.64, 5.03 -1.94, 3.59 -1.43 C2.16 -0.92, 0.6 -0.24, 0 0 M0 0 C-0.83 0.33, -3.43 1.3, -4.99 1.99 C-6.54 2.69, -8.09 3.53, -9.32 4.16 C-10.55 4.79, -11.63 5.26, -12.36 5.77 C-13.09 6.27, -13.39 6.59, -13.69 7.19 C-13.99 7.79, -14.15 8.65, -14.15 9.37 C-14.15 10.08, -14.04 10.83, -13.69 11.46 C-13.33 12.09, -12.65 12.79, -12.02 13.16 C-11.4 13.52, -10.59 13.62, -9.94 13.65 C-9.28 13.69, -8.78 13.65, -8.08 13.39 C-7.38 13.14, -6.58 12.59, -5.73 12.14 C-4.87 11.69, -4.04 11.2, -2.97 10.7 C-1.91 10.2, -0.67 9.68, 0.68 9.14 C2.03 8.6, 3.72 7.99, 5.14 7.46 C6.56 6.93, 7.83 6.42, 9.2 5.96 C10.58 5.5, 12.19 5.06, 13.37 4.71 C14.55 4.35, 15.49 4.18, 16.29 3.84 C17.09 3.49, 17.58 3.18, 18.17 2.66 C18.76 2.13, 19.41 1.3, 19.83 0.67 C20.25 0.05, 20.48 -0.49, 20.69 -1.08 C20.89 -1.66, 21 -1.78, 21.07 -2.83 C21.14 -3.88, 21.11 -4.86, 21.12 -7.37 C21.13 -9.88, 21.12 -15, 21.12 -17.88 C21.12 -20.77, 21.16 -23.16, 21.12 -24.68 C21.08 -26.2, 21.05 -26.31, 20.86 -27.01 C20.67 -27.72, 20.37 -28.28, 19.98 -28.92 C19.58 -29.56, 19.14 -30.27, 18.51 -30.85 C17.88 -31.43, 17 -32, 16.21 -32.38 C15.42 -32.77, 14.76 -33.06, 13.77 -33.13 C12.78 -33.2, 11.44 -33.03, 10.29 -32.79 C9.14 -32.55, 8.17 -32.1, 6.89 -31.67 C5.61 -31.24, 4.25 -30.81, 2.61 -30.22 C0.97 -29.64, -1.29 -28.84, -2.97 -28.15 C-4.66 -27.46, -6.05 -26.79, -7.51 -26.09 C-8.97 -25.39, -10.46 -24.64, -11.74 -23.95 C-13.03 -23.26, -13.96 -22.68, -15.2 -21.93 C-16.44 -21.18, -17.92 -20.27, -19.16 -19.44 C-20.4 -18.62, -21.51 -17.89, -22.66 -16.99 C-23.81 -16.09, -25.06 -14.9, -26.03 -14.03 C-27 -13.16, -27.65 -12.63, -28.5 -11.75 C-29.34 -10.87, -30.33 -9.67, -31.11 -8.73 C-31.89 -7.8, -32.51 -7.09, -33.19 -6.14 C-33.87 -5.18, -34.58 -4.06, -35.18 -3 C-35.78 -1.94, -36.33 -0.83, -36.81 0.21 C-37.28 1.24, -37.64 2.05, -38.03 3.23 C-38.42 4.42, -38.86 5.95, -39.12 7.3 C-39.38 8.65, -39.52 10.04, -39.58 11.35 C-39.65 12.66, -39.66 13.7, -39.53 15.15 C-39.39 16.6, -39.09 18.6, -38.77 20.05 C-38.45 21.51, -37.97 22.88, -37.61 23.89 C-37.25 24.91, -36.86 25.55, -36.58 26.14 C-36.31 26.72, -36.02 27.08, -35.95 27.4 C-35.87 27.72, -36.01 27.75, -36.13 28.06 C-36.26 28.37, -36.42 28.62, -36.7 29.26 C-36.97 29.9, -37.48 31.04, -37.79 31.91 C-38.11 32.77, -38.35 33.35, -38.61 34.46 C-38.87 35.56, -39.19 37.16, -39.35 38.52 C-39.5 39.88, -39.54 41.36, -39.54 42.62 C-39.54 43.87, -39.47 44.96, -39.34 46.05 C-39.22 47.14, -39.09 47.94, -38.79 49.14 C-38.49 50.35, -38.12 51.83, -37.52 53.28 C-36.92 54.74, -36 56.46, -35.2 57.87 C-34.39 59.28, -33.65 60.43, -32.68 61.74 C-31.72 63.05, -30.56 64.5, -29.41 65.73 C-28.27 66.97, -27.02 68.07, -25.81 69.14 C-24.61 70.2, -23.51 71.13, -22.18 72.13 C-20.86 73.13, -19.41 74.13, -17.86 75.13 C-16.32 76.14, -14.44 77.27, -12.91 78.15 C-11.38 79.03, -10.17 79.64, -8.68 80.38 C-7.19 81.13, -5.58 81.91, -3.95 82.6 C-2.32 83.3, -0.56 83.97, 1.09 84.57 C2.74 85.17, 4.18 85.64, 5.94 86.22 C7.69 86.8, 9.58 87.45, 11.63 88.03 C13.68 88.61, 16.3 89.24, 18.25 89.71 C20.19 90.19, 21.98 90.6, 23.3 90.87 C24.62 91.14, 25.53 91.21, 26.16 91.32 C26.8 91.44, 26.93 91.42, 27.11 91.56 C27.28 91.7, 27.15 91.86, 27.2 92.15 C27.24 92.45, 27.22 92.88, 27.37 93.34 C27.51 93.81, 27.8 94.43, 28.07 94.94 C28.35 95.44, 28.63 95.9, 29.03 96.37 C29.44 96.84, 29.89 97.34, 30.5 97.76 C31.12 98.18, 31.91 98.63, 32.71 98.88 C33.52 99.14, 34.46 99.26, 35.33 99.29 C36.21 99.32, 37.12 99.34, 37.97 99.05 C38.82 98.77, 39.6 98.19, 40.42 97.6 C41.25 97.01, 41.66 96.52, 42.92 95.51 C44.18 94.5, 46.27 92.86, 47.98 91.52 C49.68 90.18, 51.12 89.06, 53.15 87.47 C55.18 85.87, 58.3 83.43, 60.15 81.97 C61.99 80.52, 63.24 79.56, 64.2 78.72 C65.16 77.88, 65.44 77.62, 65.91 76.93 C66.39 76.25, 66.8 75.35, 67.05 74.62 C67.3 73.89, 67.37 73.31, 67.4 72.54 C67.43 71.78, 67.43 70.81, 67.24 70 C67.06 69.2, 66.78 68.42, 66.31 67.71 C65.84 66.99, 65.33 66.54, 64.41 65.72 C63.49 64.91, 62.15 63.89, 60.79 62.81 C59.43 61.74, 57.97 60.65, 56.26 59.29 C54.54 57.93, 52.31 56.11, 50.51 54.66 C48.7 53.21, 46.93 51.77, 45.43 50.57 C43.93 49.37, 42.59 48.28, 41.49 47.46 C40.4 46.64, 39.72 46.08, 38.87 45.65 C38.01 45.22, 37.2 44.98, 36.36 44.87 C35.52 44.77, 34.6 44.91, 33.81 45.03 C33.02 45.16, 32.32 45.3, 31.62 45.63 C30.93 45.95, 30.24 46.41, 29.64 46.98 C29.04 47.55, 28.43 48.34, 28.02 49.04 C27.61 49.73, 27.37 50.47, 27.18 51.16 C27 51.86, 27.05 52.85, 26.91 53.22 C26.78 53.59, 26.82 53.4, 26.38 53.35 C25.95 53.31, 25.49 53.21, 24.31 52.95 C23.13 52.69, 21.21 52.26, 19.32 51.8 C17.44 51.34, 15.22 50.85, 13.01 50.2 C10.8 49.54, 8.55 48.81, 6.04 47.86 C3.52 46.92, 0.45 45.68, -2.09 44.54 C-4.62 43.39, -6.98 42.22, -9.18 40.98 C-11.37 39.74, -13.45 38.33, -15.26 37.08 C-17.06 35.84, -18.39 34.97, -20 33.49 C-21.62 32.02, -23.51 30.13, -24.95 28.25 C-26.38 26.37, -27.74 23.95, -28.63 22.24 C-29.51 20.52, -29.88 19.48, -30.25 17.96 C-30.62 16.43, -30.85 14.85, -30.84 13.1 C-30.82 11.36, -30.58 9.2, -30.15 7.48 C-29.73 5.75, -29.15 4.38, -28.27 2.75 C-27.4 1.12, -26.25 -0.64, -24.9 -2.33 C-23.55 -4.01, -22.12 -5.61, -20.17 -7.34 C-18.23 -9.06, -15.54 -11.13, -13.24 -12.68 C-10.93 -14.22, -8.76 -15.39, -6.36 -16.63 C-3.97 -17.87, -1.04 -19.19, 1.13 -20.13 C3.29 -21.06, 5.12 -21.69, 6.63 -22.25 C8.14 -22.81, 9.28 -23.18, 10.2 -23.47 C11.12 -23.75, 11.79 -24, 12.15 -23.97 C12.51 -23.94, 12.34 -23.8, 12.37 -23.29 C12.41 -22.77, 12.37 -22.6, 12.37 -20.9 C12.37 -19.2, 12.37 -15.52, 12.37 -13.07 C12.37 -10.62, 12.38 -7.65, 12.37 -6.19 C12.37 -4.73, 12.47 -4.7, 12.32 -4.33 C12.18 -3.95, 12.13 -4.15, 11.52 -3.94 C10.9 -3.72, 9.95 -3.48, 8.63 -3.06 C7.31 -2.64, 5.03 -1.94, 3.59 -1.43 C2.16 -0.92, 0.6 -0.24, 0 0" stroke="#E1E1E1" stroke-width="2" fill="none"></path></g></g><mask></mask><g stroke-linecap="round"><g transform="translate(163.675124518968 109.30359104291347) rotate(0 -13.90846796955475 -33.07911669732039)"><path d="M0 0 C0.83 -0.33, 3.43 -1.3, 4.99 -1.99 C6.54 -2.69, 8.09 -3.53, 9.32 -4.16 C10.55 -4.79, 11.63 -5.26, 12.36 -5.77 C13.09 -6.27, 13.39 -6.59, 13.69 -7.19 C13.99 -7.79, 14.15 -8.65, 14.15 -9.37 C14.15 -10.08, 14.04 -10.83, 13.69 -11.46 C13.33 -12.09, 12.65 -12.79, 12.02 -13.16 C11.4 -13.52, 10.59 -13.62, 9.94 -13.65 C9.28 -13.69, 8.78 -13.65, 8.08 -13.39 C7.38 -13.14, 6.58 -12.59, 5.73 -12.14 C4.87 -11.69, 4.04 -11.2, 2.97 -10.7 C1.91 -10.2, 0.67 -9.68, -0.68 -9.14 C-2.03 -8.6, -3.72 -7.99, -5.14 -7.46 C-6.56 -6.93, -7.83 -6.42, -9.2 -5.96 C-10.58 -5.5, -12.19 -5.06, -13.37 -4.71 C-14.55 -4.35, -15.49 -4.18, -16.29 -3.84 C-17.09 -3.49, -17.58 -3.18, -18.17 -2.66 C-18.76 -2.13, -19.41 -1.3, -19.83 -0.67 C-20.25 -0.05, -20.48 0.49, -20.69 1.08 C-20.89 1.66, -21 1.78, -21.07 2.83 C-21.14 3.88, -21.11 4.86, -21.12 7.37 C-21.13 9.88, -21.12 15, -21.12 17.88 C-21.12 20.77, -21.16 23.16, -21.12 24.68 C-21.08 26.2, -21.05 26.31, -20.86 27.01 C-20.67 27.72, -20.37 28.28, -19.98 28.92 C-19.58 29.56, -19.14 30.27, -18.51 30.85 C-17.88 31.43, -17 32, -16.21 32.38 C-15.42 32.77, -14.76 33.06, -13.77 33.13 C-12.78 33.2, -11.44 33.03, -10.29 32.79 C-9.14 32.55, -8.17 32.1, -6.89 31.67 C-5.61 31.24, -4.25 30.81, -2.61 30.22 C-0.97 29.64, 1.29 28.84, 2.97 28.15 C4.66 27.46, 6.05 26.79, 7.51 26.09 C8.97 25.39, 10.46 24.64, 11.74 23.95 C13.03 23.26, 13.96 22.68, 15.2 21.93 C16.44 21.18, 17.92 20.27, 19.16 19.44 C20.4 18.62, 21.51 17.89, 22.66 16.99 C23.81 16.09, 25.06 14.9, 26.03 14.03 C27 13.16, 27.65 12.63, 28.5 11.75 C29.34 10.87, 30.33 9.67, 31.11 8.73 C31.89 7.8, 32.51 7.09, 33.19 6.14 C33.87 5.18, 34.58 4.06, 35.18 3 C35.78 1.94, 36.33 0.83, 36.81 -0.21 C37.28 -1.24, 37.64 -2.05, 38.03 -3.23 C38.42 -4.42, 38.86 -5.95, 39.12 -7.3 C39.38 -8.65, 39.52 -10.04, 39.58 -11.35 C39.65 -12.66, 39.66 -13.7, 39.53 -15.15 C39.39 -16.6, 39.09 -18.6, 38.77 -20.05 C38.45 -21.51, 37.97 -22.88, 37.61 -23.89 C37.25 -24.91, 36.86 -25.55, 36.58 -26.14 C36.31 -26.72, 36.02 -27.08, 35.95 -27.4 C35.87 -27.72, 36.01 -27.75, 36.13 -28.06 C36.26 -28.37, 36.42 -28.62, 36.7 -29.26 C36.97 -29.9, 37.48 -31.04, 37.79 -31.91 C38.11 -32.77, 38.35 -33.35, 38.61 -34.46 C38.87 -35.56, 39.19 -37.16, 39.35 -38.52 C39.5 -39.88, 39.54 -41.36, 39.54 -42.62 C39.54 -43.87, 39.47 -44.96, 39.34 -46.05 C39.22 -47.14, 39.09 -47.94, 38.79 -49.14 C38.49 -50.35, 38.12 -51.83, 37.52 -53.28 C36.92 -54.74, 36 -56.46, 35.2 -57.87 C34.39 -59.28, 33.65 -60.43, 32.68 -61.74 C31.72 -63.05, 30.56 -64.5, 29.41 -65.73 C28.27 -66.97, 27.02 -68.07, 25.81 -69.14 C24.61 -70.2, 23.51 -71.13, 22.18 -72.13 C20.86 -73.13, 19.41 -74.13, 17.86 -75.13 C16.32 -76.14, 14.44 -77.27, 12.91 -78.15 C11.38 -79.03, 10.17 -79.64, 8.68 -80.38 C7.19 -81.13, 5.58 -81.91, 3.95 -82.6 C2.32 -83.3, 0.56 -83.97, -1.09 -84.57 C-2.74 -85.17, -4.18 -85.64, -5.94 -86.22 C-7.69 -86.8, -9.58 -87.45, -11.63 -88.03 C-13.68 -88.61, -16.3 -89.24, -18.25 -89.71 C-20.19 -90.19, -21.98 -90.6, -23.3 -90.87 C-24.62 -91.14, -25.53 -91.21, -26.16 -91.32 C-26.8 -91.44, -26.93 -91.42, -27.11 -91.56 C-27.28 -91.7, -27.15 -91.86, -27.2 -92.15 C-27.24 -92.45, -27.22 -92.88, -27.37 -93.34 C-27.51 -93.81, -27.8 -94.43, -28.07 -94.94 C-28.35 -95.44, -28.63 -95.9, -29.03 -96.37 C-29.44 -96.84, -29.89 -97.34, -30.5 -97.76 C-31.12 -98.18, -31.91 -98.63, -32.71 -98.88 C-33.52 -99.14, -34.46 -99.26, -35.33 -99.29 C-36.21 -99.32, -37.12 -99.34, -37.97 -99.05 C-38.82 -98.77, -39.6 -98.19, -40.42 -97.6 C-41.25 -97.01, -41.66 -96.52, -42.92 -95.51 C-44.18 -94.5, -46.27 -92.86, -47.98 -91.52 C-49.68 -90.18, -51.12 -89.06, -53.15 -87.47 C-55.18 -85.87, -58.3 -83.43, -60.15 -81.97 C-61.99 -80.52, -63.24 -79.56, -64.2 -78.72 C-65.16 -77.88, -65.44 -77.62, -65.91 -76.93 C-66.39 -76.25, -66.8 -75.35, -67.05 -74.62 C-67.3 -73.89, -67.37 -73.31, -67.4 -72.54 C-67.43 -71.78, -67.43 -70.81, -67.24 -70 C-67.06 -69.2, -66.78 -68.42, -66.31 -67.71 C-65.84 -66.99, -65.33 -66.54, -64.41 -65.72 C-63.49 -64.91, -62.15 -63.89, -60.79 -62.81 C-59.43 -61.74, -57.97 -60.65, -56.26 -59.29 C-54.54 -57.93, -52.31 -56.11, -50.51 -54.66 C-48.7 -53.21, -46.93 -51.77, -45.43 -50.57 C-43.93 -49.37, -42.59 -48.28, -41.49 -47.46 C-40.4 -46.64, -39.72 -46.08, -38.87 -45.65 C-38.01 -45.22, -37.2 -44.98, -36.36 -44.87 C-35.52 -44.77, -34.6 -44.91, -33.81 -45.03 C-33.02 -45.16, -32.32 -45.3, -31.62 -45.63 C-30.93 -45.95, -30.24 -46.41, -29.64 -46.98 C-29.04 -47.55, -28.43 -48.34, -28.02 -49.04 C-27.61 -49.73, -27.37 -50.47, -27.18 -51.16 C-27 -51.86, -27.05 -52.85, -26.91 -53.22 C-26.78 -53.59, -26.82 -53.4, -26.38 -53.35 C-25.95 -53.31, -25.49 -53.21, -24.31 -52.95 C-23.13 -52.69, -21.21 -52.26, -19.32 -51.8 C-17.44 -51.34, -15.22 -50.85, -13.01 -50.2 C-10.8 -49.54, -8.55 -48.81, -6.04 -47.86 C-3.52 -46.92, -0.45 -45.68, 2.09 -44.54 C4.62 -43.39, 6.98 -42.22, 9.18 -40.98 C11.37 -39.74, 13.45 -38.33, 15.26 -37.08 C17.06 -35.84, 18.39 -34.97, 20 -33.49 C21.62 -32.02, 23.51 -30.13, 24.95 -28.25 C26.38 -26.37, 27.74 -23.95, 28.63 -22.24 C29.51 -20.52, 29.88 -19.48, 30.25 -17.96 C30.62 -16.43, 30.85 -14.85, 30.84 -13.1 C30.82 -11.36, 30.58 -9.2, 30.15 -7.48 C29.73 -5.75, 29.15 -4.38, 28.27 -2.75 C27.4 -1.12, 26.25 0.64, 24.9 2.33 C23.55 4.01, 22.12 5.61, 20.17 7.34 C18.23 9.06, 15.54 11.13, 13.24 12.68 C10.93 14.22, 8.76 15.39, 6.36 16.63 C3.97 17.87, 1.04 19.19, -1.13 20.13 C-3.29 21.06, -5.12 21.69, -6.63 22.25 C-8.14 22.81, -9.28 23.18, -10.2 23.47 C-11.12 23.75, -11.79 24, -12.15 23.97 C-12.51 23.94, -12.34 23.8, -12.37 23.29 C-12.41 22.77, -12.37 22.6, -12.37 20.9 C-12.37 19.2, -12.37 15.52, -12.37 13.07 C-12.37 10.62, -12.38 7.65, -12.37 6.19 C-12.37 4.73, -12.47 4.7, -12.32 4.33 C-12.18 3.95, -12.13 4.15, -11.52 3.94 C-10.9 3.72, -9.95 3.48, -8.63 3.06 C-7.31 2.64, -5.03 1.94, -3.59 1.43 C-2.16 0.92, -0.6 0.24, 0 0 M0 0 C0.83 -0.33, 3.43 -1.3, 4.99 -1.99 C6.54 -2.69, 8.09 -3.53, 9.32 -4.16 C10.55 -4.79, 11.63 -5.26, 12.36 -5.77 C13.09 -6.27, 13.39 -6.59, 13.69 -7.19 C13.99 -7.79, 14.15 -8.65, 14.15 -9.37 C14.15 -10.08, 14.04 -10.83, 13.69 -11.46 C13.33 -12.09, 12.65 -12.79, 12.02 -13.16 C11.4 -13.52, 10.59 -13.62, 9.94 -13.65 C9.28 -13.69, 8.78 -13.65, 8.08 -13.39 C7.38 -13.14, 6.58 -12.59, 5.73 -12.14 C4.87 -11.69, 4.04 -11.2, 2.97 -10.7 C1.91 -10.2, 0.67 -9.68, -0.68 -9.14 C-2.03 -8.6, -3.72 -7.99, -5.14 -7.46 C-6.56 -6.93, -7.83 -6.42, -9.2 -5.96 C-10.58 -5.5, -12.19 -5.06, -13.37 -4.71 C-14.55 -4.35, -15.49 -4.18, -16.29 -3.84 C-17.09 -3.49, -17.58 -3.18, -18.17 -2.66 C-18.76 -2.13, -19.41 -1.3, -19.83 -0.67 C-20.25 -0.05, -20.48 0.49, -20.69 1.08 C-20.89 1.66, -21 1.78, -21.07 2.83 C-21.14 3.88, -21.11 4.86, -21.12 7.37 C-21.13 9.88, -21.12 15, -21.12 17.88 C-21.12 20.77, -21.16 23.16, -21.12 24.68 C-21.08 26.2, -21.05 26.31, -20.86 27.01 C-20.67 27.72, -20.37 28.28, -19.98 28.92 C-19.58 29.56, -19.14 30.27, -18.51 30.85 C-17.88 31.43, -17 32, -16.21 32.38 C-15.42 32.77, -14.76 33.06, -13.77 33.13 C-12.78 33.2, -11.44 33.03, -10.29 32.79 C-9.14 32.55, -8.17 32.1, -6.89 31.67 C-5.61 31.24, -4.25 30.81, -2.61 30.22 C-0.97 29.64, 1.29 28.84, 2.97 28.15 C4.66 27.46, 6.05 26.79, 7.51 26.09 C8.97 25.39, 10.46 24.64, 11.74 23.95 C13.03 23.26, 13.96 22.68, 15.2 21.93 C16.44 21.18, 17.92 20.27, 19.16 19.44 C20.4 18.62, 21.51 17.89, 22.66 16.99 C23.81 16.09, 25.06 14.9, 26.03 14.03 C27 13.16, 27.65 12.63, 28.5 11.75 C29.34 10.87, 30.33 9.67, 31.11 8.73 C31.89 7.8, 32.51 7.09, 33.19 6.14 C33.87 5.18, 34.58 4.06, 35.18 3 C35.78 1.94, 36.33 0.83, 36.81 -0.21 C37.28 -1.24, 37.64 -2.05, 38.03 -3.23 C38.42 -4.42, 38.86 -5.95, 39.12 -7.3 C39.38 -8.65, 39.52 -10.04, 39.58 -11.35 C39.65 -12.66, 39.66 -13.7, 39.53 -15.15 C39.39 -16.6, 39.09 -18.6, 38.77 -20.05 C38.45 -21.51, 37.97 -22.88, 37.61 -23.89 C37.25 -24.91, 36.86 -25.55, 36.58 -26.14 C36.31 -26.72, 36.02 -27.08, 35.95 -27.4 C35.87 -27.72, 36.01 -27.75, 36.13 -28.06 C36.26 -28.37, 36.42 -28.62, 36.7 -29.26 C36.97 -29.9, 37.48 -31.04, 37.79 -31.91 C38.11 -32.77, 38.35 -33.35, 38.61 -34.46 C38.87 -35.56, 39.19 -37.16, 39.35 -38.52 C39.5 -39.88, 39.54 -41.36, 39.54 -42.62 C39.54 -43.87, 39.47 -44.96, 39.34 -46.05 C39.22 -47.14, 39.09 -47.94, 38.79 -49.14 C38.49 -50.35, 38.12 -51.83, 37.52 -53.28 C36.92 -54.74, 36 -56.46, 35.2 -57.87 C34.39 -59.28, 33.65 -60.43, 32.68 -61.74 C31.72 -63.05, 30.56 -64.5, 29.41 -65.73 C28.27 -66.97, 27.02 -68.07, 25.81 -69.14 C24.61 -70.2, 23.51 -71.13, 22.18 -72.13 C20.86 -73.13, 19.41 -74.13, 17.86 -75.13 C16.32 -76.14, 14.44 -77.27, 12.91 -78.15 C11.38 -79.03, 10.17 -79.64, 8.68 -80.38 C7.19 -81.13, 5.58 -81.91, 3.95 -82.6 C2.32 -83.3, 0.56 -83.97, -1.09 -84.57 C-2.74 -85.17, -4.18 -85.64, -5.94 -86.22 C-7.69 -86.8, -9.58 -87.45, -11.63 -88.03 C-13.68 -88.61, -16.3 -89.24, -18.25 -89.71 C-20.19 -90.19, -21.98 -90.6, -23.3 -90.87 C-24.62 -91.14, -25.53 -91.21, -26.16 -91.32 C-26.8 -91.44, -26.93 -91.42, -27.11 -91.56 C-27.28 -91.7, -27.15 -91.86, -27.2 -92.15 C-27.24 -92.45, -27.22 -92.88, -27.37 -93.34 C-27.51 -93.81, -27.8 -94.43, -28.07 -94.94 C-28.35 -95.44, -28.63 -95.9, -29.03 -96.37 C-29.44 -96.84, -29.89 -97.34, -30.5 -97.76 C-31.12 -98.18, -31.91 -98.63, -32.71 -98.88 C-33.52 -99.14, -34.46 -99.26, -35.33 -99.29 C-36.21 -99.32, -37.12 -99.34, -37.97 -99.05 C-38.82 -98.77, -39.6 -98.19, -40.42 -97.6 C-41.25 -97.01, -41.66 -96.52, -42.92 -95.51 C-44.18 -94.5, -46.27 -92.86, -47.98 -91.52 C-49.68 -90.18, -51.12 -89.06, -53.15 -87.47 C-55.18 -85.87, -58.3 -83.43, -60.15 -81.97 C-61.99 -80.52, -63.24 -79.56, -64.2 -78.72 C-65.16 -77.88, -65.44 -77.62, -65.91 -76.93 C-66.39 -76.25, -66.8 -75.35, -67.05 -74.62 C-67.3 -73.89, -67.37 -73.31, -67.4 -72.54 C-67.43 -71.78, -67.43 -70.81, -67.24 -70 C-67.06 -69.2, -66.78 -68.42, -66.31 -67.71 C-65.84 -66.99, -65.33 -66.54, -64.41 -65.72 C-63.49 -64.91, -62.15 -63.89, -60.79 -62.81 C-59.43 -61.74, -57.97 -60.65, -56.26 -59.29 C-54.54 -57.93, -52.31 -56.11, -50.51 -54.66 C-48.7 -53.21, -46.93 -51.77, -45.43 -50.57 C-43.93 -49.37, -42.59 -48.28, -41.49 -47.46 C-40.4 -46.64, -39.72 -46.08, -38.87 -45.65 C-38.01 -45.22, -37.2 -44.98, -36.36 -44.87 C-35.52 -44.77, -34.6 -44.91, -33.81 -45.03 C-33.02 -45.16, -32.32 -45.3, -31.62 -45.63 C-30.93 -45.95, -30.24 -46.41, -29.64 -46.98 C-29.04 -47.55, -28.43 -48.34, -28.02 -49.04 C-27.61 -49.73, -27.37 -50.47, -27.18 -51.16 C-27 -51.86, -27.05 -52.85, -26.91 -53.22 C-26.78 -53.59, -26.82 -53.4, -26.38 -53.35 C-25.95 -53.31, -25.49 -53.21, -24.31 -52.95 C-23.13 -52.69, -21.21 -52.26, -19.32 -51.8 C-17.44 -51.34, -15.22 -50.85, -13.01 -50.2 C-10.8 -49.54, -8.55 -48.81, -6.04 -47.86 C-3.52 -46.92, -0.45 -45.68, 2.09 -44.54 C4.62 -43.39, 6.98 -42.22, 9.18 -40.98 C11.37 -39.74, 13.45 -38.33, 15.26 -37.08 C17.06 -35.84, 18.39 -34.97, 20 -33.49 C21.62 -32.02, 23.51 -30.13, 24.95 -28.25 C26.38 -26.37, 27.74 -23.95, 28.63 -22.24 C29.51 -20.52, 29.88 -19.48, 30.25 -17.96 C30.62 -16.43, 30.85 -14.85, 30.84 -13.1 C30.82 -11.36, 30.58 -9.2, 30.15 -7.48 C29.73 -5.75, 29.15 -4.38, 28.27 -2.75 C27.4 -1.12, 26.25 0.64, 24.9 2.33 C23.55 4.01, 22.12 5.61, 20.17 7.34 C18.23 9.06, 15.54 11.13, 13.24 12.68 C10.93 14.22, 8.76 15.39, 6.36 16.63 C3.97 17.87, 1.04 19.19, -1.13 20.13 C-3.29 21.06, -5.12 21.69, -6.63 22.25 C-8.14 22.81, -9.28 23.18, -10.2 23.47 C-11.12 23.75, -11.79 24, -12.15 23.97 C-12.51 23.94, -12.34 23.8, -12.37 23.29 C-12.41 22.77, -12.37 22.6, -12.37 20.9 C-12.37 19.2, -12.37 15.52, -12.37 13.07 C-12.37 10.62, -12.38 7.65, -12.37 6.19 C-12.37 4.73, -12.47 4.7, -12.32 4.33 C-12.18 3.95, -12.13 4.15, -11.52 3.94 C-10.9 3.72, -9.95 3.48, -8.63 3.06 C-7.31 2.64, -5.03 1.94, -3.59 1.43 C-2.16 0.92, -0.6 0.24, 0 0" stroke="#E1E1E1" stroke-width="2" fill="none"></path></g></g><mask></mask></svg>