<svg version="1.1" xmlns="http://www.w3.org/2000/svg" viewBox="0 0 356.7520672870559 950.6560601128466" width="356.7520672870559" height="950.6560601128466" class="excalidraw-svg"><!-- svg-source:excalidraw --><metadata></metadata><defs><style class="style-fonts">
      </style></defs><rect x="0" y="0" width="356.7520672870559" height="950.6560601128466" fill="#000000"></rect><g stroke-linecap="round"><g transform="translate(346.3975841116229 408.8471531779278) rotate(0 -168.11542240885274 66.02739723688057)"><path d="M0 0 C0.02 -5.7, 0.7 -26.65, 0.12 -34.17 C-0.46 -41.69, -1.97 -42.1, -3.5 -45.14 C-5.03 -48.19, -6.32 -50.3, -9.07 -52.41 C-11.82 -54.52, -15.08 -55.98, -19.98 -57.79 C-24.89 -59.6, -33.44 -61.9, -38.51 -63.27 C-43.58 -64.63, -47.46 -65.11, -50.4 -65.97 C-53.34 -66.84, -54.97 -67.12, -56.13 -68.47 C-57.28 -69.81, -57.58 -72.19, -57.32 -74.07 C-57.06 -75.95, -55.31 -77.75, -54.56 -79.74 C-53.81 -81.73, -52.98 -81.82, -52.83 -86.02 C-52.69 -90.21, -52.99 -99.17, -53.68 -104.9 C-54.37 -110.62, -56.34 -114.42, -56.97 -120.36 C-57.6 -126.31, -57.24 -133.05, -57.46 -140.57 C-57.68 -148.09, -58.15 -155.29, -58.27 -165.48 C-58.38 -175.67, -58.29 -187.03, -58.15 -201.69 C-58.01 -216.35, -57.97 -237.63, -57.43 -253.43 C-56.89 -269.24, -54.32 -288.34, -54.88 -296.51 C-55.44 -304.68, -57.19 -298.5, -60.78 -302.47 C-64.38 -306.44, -72.86 -316.14, -76.46 -320.34 C-80.06 -324.55, -80.98 -323.73, -82.41 -327.69 C-83.84 -331.64, -84.44 -338.17, -85.04 -344.07 C-85.64 -349.98, -85.8 -357.02, -86.03 -363.12 C-86.27 -369.22, -85.35 -376.4, -86.45 -380.66 C-87.55 -384.93, -89.54 -386.31, -92.62 -388.73 C-95.7 -391.14, -99.77 -393.69, -104.92 -395.15 C-110.08 -396.61, -115.87 -396.88, -123.54 -397.49 C-131.21 -398.1, -141.79 -399.02, -150.94 -398.82 C-160.09 -398.61, -171.16 -397.84, -178.43 -396.25 C-185.7 -394.65, -190.65 -391.89, -194.54 -389.25 C-198.43 -386.6, -200.39 -384.26, -201.77 -380.38 C-203.14 -376.51, -202.6 -371.68, -202.78 -366 C-202.97 -360.31, -202.88 -352.2, -202.88 -346.26 C-202.88 -340.32, -202.09 -333.91, -202.77 -330.37 C-203.45 -326.82, -204.01 -327.93, -206.95 -325 C-209.9 -322.06, -216.38 -316.8, -220.45 -312.77 C-224.52 -308.73, -229.5 -303.66, -231.4 -300.79 C-233.3 -297.92, -231.78 -299.56, -231.86 -295.54 C-231.95 -291.52, -231.86 -283.61, -231.93 -276.67 C-232.01 -269.72, -232.25 -262.67, -232.3 -253.85 C-232.34 -245.02, -232.23 -234.15, -232.19 -223.73 C-232.15 -213.31, -232.08 -202.31, -232.07 -191.33 C-232.05 -180.35, -232.09 -168.38, -232.1 -157.88 C-232.11 -147.38, -232.15 -138.58, -232.15 -128.33 C-232.14 -118.08, -231.29 -103.17, -232.07 -96.4 C-232.84 -89.63, -234.45 -89.8, -236.8 -87.71 C-239.15 -85.63, -241.81 -85.68, -246.16 -83.91 C-250.51 -82.13, -255.44 -80.54, -262.9 -77.08 C-270.35 -73.62, -282.41 -67.55, -290.89 -63.14 C-299.36 -58.74, -308.33 -54.95, -313.75 -50.66 C-319.16 -46.37, -319.82 -41.91, -323.35 -37.39 C-326.88 -32.88, -332.82 -27.76, -334.95 -23.59 C-337.09 -19.42, -335.93 -19.67, -336.16 -12.37 C-336.39 -5.07, -336.45 9.24, -336.35 20.22 C-336.25 31.2, -335.71 41.05, -335.55 53.49 C-335.4 65.93, -335.48 81.16, -335.43 94.88 C-335.39 108.59, -335.3 122.29, -335.29 135.79 C-335.29 149.28, -335.41 161.96, -335.4 175.85 C-335.38 189.74, -335.3 203.06, -335.2 219.14 C-335.1 235.22, -334.92 250.32, -334.79 272.34 C-334.66 294.36, -334.43 330.28, -334.43 351.26 C-334.43 372.23, -334.7 387.61, -334.77 398.2 C-334.83 408.78, -335.84 408.9, -334.8 414.75 C-333.76 420.6, -330.82 427.88, -328.52 433.3 C-326.21 438.72, -323.5 441.84, -320.98 447.26 C-318.47 452.67, -316.73 461.83, -313.42 465.8 C-310.12 469.76, -307.76 468.57, -301.15 471.07 C-294.54 473.57, -287.73 475.87, -273.76 480.77 C-259.79 485.68, -237.88 493.9, -217.35 500.47 C-196.81 507.05, -168.38 515.15, -150.54 520.22 C-132.69 525.28, -122.44 529.18, -110.28 530.87 C-98.11 532.56, -87.28 531.71, -77.53 530.35 C-67.79 528.99, -60.1 526.1, -51.82 522.71 C-43.54 519.32, -35.08 514.93, -27.87 510 C-20.65 505.06, -13.07 498.29, -8.51 493.1 C-3.96 487.91, -1.92 485.99, -0.53 478.88 C0.87 471.76, -0.02 459.34, -0.13 450.41 C-0.25 441.47, -0.25 431.57, -1.21 425.24 C-2.17 418.92, -4.55 415.51, -5.89 412.45 C-7.24 409.38, -8.56 410.11, -9.3 406.85 C-10.03 403.59, -10.12 399.74, -10.31 392.89 C-10.5 386.05, -10.43 379.33, -10.44 365.78 C-10.46 352.24, -10.46 329.87, -10.39 311.6 C-10.33 293.33, -10.13 280.21, -10.06 256.15 C-9.99 232.08, -10.01 196.11, -9.96 167.21 C-9.91 138.32, -9.7 102.49, -9.77 82.78 C-9.83 63.06, -10.91 55.51, -10.34 48.92 C-9.77 42.32, -7.84 45.04, -6.34 43.2 C-4.84 41.36, -2.38 40.46, -1.34 37.89 C-0.31 35.33, -0.28 32.75, -0.13 27.79 C0.02 22.83, -0.46 12.78, -0.44 8.15 C-0.42 3.52, -0.07 1.36, 0 0 M0 0 C0.02 -5.7, 0.7 -26.65, 0.12 -34.17 C-0.46 -41.69, -1.97 -42.1, -3.5 -45.14 C-5.03 -48.19, -6.32 -50.3, -9.07 -52.41 C-11.82 -54.52, -15.08 -55.98, -19.98 -57.79 C-24.89 -59.6, -33.44 -61.9, -38.51 -63.27 C-43.58 -64.63, -47.46 -65.11, -50.4 -65.97 C-53.34 -66.84, -54.97 -67.12, -56.13 -68.47 C-57.28 -69.81, -57.58 -72.19, -57.32 -74.07 C-57.06 -75.95, -55.31 -77.75, -54.56 -79.74 C-53.81 -81.73, -52.98 -81.82, -52.83 -86.02 C-52.69 -90.21, -52.99 -99.17, -53.68 -104.9 C-54.37 -110.62, -56.34 -114.42, -56.97 -120.36 C-57.6 -126.31, -57.24 -133.05, -57.46 -140.57 C-57.68 -148.09, -58.15 -155.29, -58.27 -165.48 C-58.38 -175.67, -58.29 -187.03, -58.15 -201.69 C-58.01 -216.35, -57.97 -237.63, -57.43 -253.43 C-56.89 -269.24, -54.32 -288.34, -54.88 -296.51 C-55.44 -304.68, -57.19 -298.5, -60.78 -302.47 C-64.38 -306.44, -72.86 -316.14, -76.46 -320.34 C-80.06 -324.55, -80.98 -323.73, -82.41 -327.69 C-83.84 -331.64, -84.44 -338.17, -85.04 -344.07 C-85.64 -349.98, -85.8 -357.02, -86.03 -363.12 C-86.27 -369.22, -85.35 -376.4, -86.45 -380.66 C-87.55 -384.93, -89.54 -386.31, -92.62 -388.73 C-95.7 -391.14, -99.77 -393.69, -104.92 -395.15 C-110.08 -396.61, -115.87 -396.88, -123.54 -397.49 C-131.21 -398.1, -141.79 -399.02, -150.94 -398.82 C-160.09 -398.61, -171.16 -397.84, -178.43 -396.25 C-185.7 -394.65, -190.65 -391.89, -194.54 -389.25 C-198.43 -386.6, -200.39 -384.26, -201.77 -380.38 C-203.14 -376.51, -202.6 -371.68, -202.78 -366 C-202.97 -360.31, -202.88 -352.2, -202.88 -346.26 C-202.88 -340.32, -202.09 -333.91, -202.77 -330.37 C-203.45 -326.82, -204.01 -327.93, -206.95 -325 C-209.9 -322.06, -216.38 -316.8, -220.45 -312.77 C-224.52 -308.73, -229.5 -303.66, -231.4 -300.79 C-233.3 -297.92, -231.78 -299.56, -231.86 -295.54 C-231.95 -291.52, -231.86 -283.61, -231.93 -276.67 C-232.01 -269.72, -232.25 -262.67, -232.3 -253.85 C-232.34 -245.02, -232.23 -234.15, -232.19 -223.73 C-232.15 -213.31, -232.08 -202.31, -232.07 -191.33 C-232.05 -180.35, -232.09 -168.38, -232.1 -157.88 C-232.11 -147.38, -232.15 -138.58, -232.15 -128.33 C-232.14 -118.08, -231.29 -103.17, -232.07 -96.4 C-232.84 -89.63, -234.45 -89.8, -236.8 -87.71 C-239.15 -85.63, -241.81 -85.68, -246.16 -83.91 C-250.51 -82.13, -255.44 -80.54, -262.9 -77.08 C-270.35 -73.62, -282.41 -67.55, -290.89 -63.14 C-299.36 -58.74, -308.33 -54.95, -313.75 -50.66 C-319.16 -46.37, -319.82 -41.91, -323.35 -37.39 C-326.88 -32.88, -332.82 -27.76, -334.95 -23.59 C-337.09 -19.42, -335.93 -19.67, -336.16 -12.37 C-336.39 -5.07, -336.45 9.24, -336.35 20.22 C-336.25 31.2, -335.71 41.05, -335.55 53.49 C-335.4 65.93, -335.48 81.16, -335.43 94.88 C-335.39 108.59, -335.3 122.29, -335.29 135.79 C-335.29 149.28, -335.41 161.96, -335.4 175.85 C-335.38 189.74, -335.3 203.06, -335.2 219.14 C-335.1 235.22, -334.92 250.32, -334.79 272.34 C-334.66 294.36, -334.43 330.28, -334.43 351.26 C-334.43 372.23, -334.7 387.61, -334.77 398.2 C-334.83 408.78, -335.84 408.9, -334.8 414.75 C-333.76 420.6, -330.82 427.88, -328.52 433.3 C-326.21 438.72, -323.5 441.84, -320.98 447.26 C-318.47 452.67, -316.73 461.83, -313.42 465.8 C-310.12 469.76, -307.76 468.57, -301.15 471.07 C-294.54 473.57, -287.73 475.87, -273.76 480.77 C-259.79 485.68, -237.88 493.9, -217.35 500.47 C-196.81 507.05, -168.38 515.15, -150.54 520.22 C-132.69 525.28, -122.44 529.18, -110.28 530.87 C-98.11 532.56, -87.28 531.71, -77.53 530.35 C-67.79 528.99, -60.1 526.1, -51.82 522.71 C-43.54 519.32, -35.08 514.93, -27.87 510 C-20.65 505.06, -13.07 498.29, -8.51 493.1 C-3.96 487.91, -1.92 485.99, -0.53 478.88 C0.87 471.76, -0.02 459.34, -0.13 450.41 C-0.25 441.47, -0.25 431.57, -1.21 425.24 C-2.17 418.92, -4.55 415.51, -5.89 412.45 C-7.24 409.38, -8.56 410.11, -9.3 406.85 C-10.03 403.59, -10.12 399.74, -10.31 392.89 C-10.5 386.05, -10.43 379.33, -10.44 365.78 C-10.46 352.24, -10.46 329.87, -10.39 311.6 C-10.33 293.33, -10.13 280.21, -10.06 256.15 C-9.99 232.08, -10.01 196.11, -9.96 167.21 C-9.91 138.32, -9.7 102.49, -9.77 82.78 C-9.83 63.06, -10.91 55.51, -10.34 48.92 C-9.77 42.32, -7.84 45.04, -6.34 43.2 C-4.84 41.36, -2.38 40.46, -1.34 37.89 C-0.31 35.33, -0.28 32.75, -0.13 27.79 C0.02 22.83, -0.46 12.78, -0.44 8.15 C-0.42 3.52, -0.07 1.36, 0 0" stroke="#E1E1E1" stroke-width="4" fill="none"></path></g></g><mask></mask><g stroke-linecap="round"><g transform="translate(284.3218685321422 432.8308669725588) rotate(0 -86.02554208708392 217.46396232129175)"><path d="M0 0 C3.93 -1.46, 15.96 -5.87, 23.56 -8.73 C31.16 -11.59, 40.32 -15.18, 45.59 -17.15 C50.86 -19.13, 53.03 -20.52, 55.18 -20.58 C57.32 -20.63, 57.88 -19.64, 58.45 -17.49 C59.02 -15.34, 59.19 -10.46, 58.6 -7.69 C58.01 -4.92, 57.58 -3.33, 54.9 -0.89 C52.22 1.55, 52.01 2.75, 42.53 6.96 C33.04 11.16, 12.23 19.2, -2 24.33 C-16.23 29.46, -27.28 32.52, -42.87 37.76 C-58.45 42.99, -77.35 49.4, -95.53 55.74 C-113.7 62.08, -140.72 71.39, -151.91 75.79 C-163.11 80.19, -160.28 79.7, -162.69 82.17 C-165.09 84.63, -165.27 88.55, -166.33 90.57 C-167.4 92.6, -168.6 91.33, -169.1 94.33 C-169.6 97.33, -169.18 102.5, -169.36 108.57 C-169.54 114.64, -170.08 120.86, -170.19 130.76 C-170.3 140.67, -170.11 152.14, -170.03 168.02 C-169.95 183.89, -169.81 205.86, -169.74 226 C-169.67 246.14, -169.73 274.13, -169.62 288.87 C-169.51 303.6, -169.16 307.53, -169.05 314.4 C-168.94 321.27, -169.88 326.19, -168.97 330.08 C-168.06 333.97, -168.04 333.41, -163.6 337.74 C-159.16 342.08, -151.78 348.56, -142.31 356.08 C-132.85 363.61, -118.45 374.6, -106.81 382.89 C-95.17 391.18, -83.68 399.01, -72.47 405.8 C-61.27 412.59, -47.35 419.81, -39.57 423.62 C-31.8 427.43, -31.27 427.52, -25.82 428.66 C-20.37 429.8, -14.26 430.37, -6.89 430.45 C0.49 430.53, 10.43 430.62, 18.43 429.14 C26.43 427.66, 35.82 423.77, 41.13 421.57 C46.44 419.36, 47.49 416.99, 50.3 415.89 C53.11 414.79, 56.48 413.78, 57.99 414.97 C59.5 416.16, 59.31 419.67, 59.36 423.02 C59.4 426.36, 59.83 432.15, 58.27 435.05 C56.71 437.94, 55.55 437.55, 50.02 440.4 C44.49 443.24, 33.08 449.62, 25.1 452.14 C17.12 454.66, 10.75 455.24, 2.14 455.5 C-6.47 455.77, -18 455.5, -26.55 453.73 C-35.1 451.96, -40.56 448.46, -49.17 444.89 C-57.78 441.33, -67.75 436.96, -78.22 432.34 C-88.69 427.73, -100.18 422.76, -112 417.2 C-123.83 411.65, -134.42 406.33, -149.17 399.01 C-163.92 391.69, -188.68 379.17, -200.52 373.28 C-212.36 367.4, -215.23 366.46, -220.22 363.71 C-225.2 360.97, -228.55 360.38, -230.42 356.79 C-232.28 353.21, -231.26 350.26, -231.41 342.21 C-231.55 334.15, -231.45 320.38, -231.3 308.47 C-231.15 296.55, -230.59 286.53, -230.53 270.72 C-230.47 254.91, -230.96 230.86, -230.92 213.63 C-230.88 196.39, -230.44 189.73, -230.28 167.31 C-230.13 144.88, -230.01 99.46, -229.98 79.07 C-229.95 58.68, -231.04 52.53, -230.12 44.95 C-229.21 37.38, -227.06 36.02, -224.49 33.62 C-221.92 31.23, -220.56 31.17, -214.71 30.59 C-208.86 30, -197.93 30.91, -189.38 30.12 C-180.83 29.34, -172.55 26.98, -163.43 25.88 C-154.3 24.77, -143.04 24.32, -134.64 23.49 C-126.24 22.65, -121.66 22.02, -113.04 20.85 C-104.41 19.69, -93.14 18.03, -82.89 16.5 C-72.64 14.98, -61.85 13.41, -51.54 11.72 C-41.22 10.03, -29.6 8.32, -21.01 6.37 C-12.42 4.41, -3.5 1.06, 0 0 M0 0 C3.93 -1.46, 15.96 -5.87, 23.56 -8.73 C31.16 -11.59, 40.32 -15.18, 45.59 -17.15 C50.86 -19.13, 53.03 -20.52, 55.18 -20.58 C57.32 -20.63, 57.88 -19.64, 58.45 -17.49 C59.02 -15.34, 59.19 -10.46, 58.6 -7.69 C58.01 -4.92, 57.58 -3.33, 54.9 -0.89 C52.22 1.55, 52.01 2.75, 42.53 6.96 C33.04 11.16, 12.23 19.2, -2 24.33 C-16.23 29.46, -27.28 32.52, -42.87 37.76 C-58.45 42.99, -77.35 49.4, -95.53 55.74 C-113.7 62.08, -140.72 71.39, -151.91 75.79 C-163.11 80.19, -160.28 79.7, -162.69 82.17 C-165.09 84.63, -165.27 88.55, -166.33 90.57 C-167.4 92.6, -168.6 91.33, -169.1 94.33 C-169.6 97.33, -169.18 102.5, -169.36 108.57 C-169.54 114.64, -170.08 120.86, -170.19 130.76 C-170.3 140.67, -170.11 152.14, -170.03 168.02 C-169.95 183.89, -169.81 205.86, -169.74 226 C-169.67 246.14, -169.73 274.13, -169.62 288.87 C-169.51 303.6, -169.16 307.53, -169.05 314.4 C-168.94 321.27, -169.88 326.19, -168.97 330.08 C-168.06 333.97, -168.04 333.41, -163.6 337.74 C-159.16 342.08, -151.78 348.56, -142.31 356.08 C-132.85 363.61, -118.45 374.6, -106.81 382.89 C-95.17 391.18, -83.68 399.01, -72.47 405.8 C-61.27 412.59, -47.35 419.81, -39.57 423.62 C-31.8 427.43, -31.27 427.52, -25.82 428.66 C-20.37 429.8, -14.26 430.37, -6.89 430.45 C0.49 430.53, 10.43 430.62, 18.43 429.14 C26.43 427.66, 35.82 423.77, 41.13 421.57 C46.44 419.36, 47.49 416.99, 50.3 415.89 C53.11 414.79, 56.48 413.78, 57.99 414.97 C59.5 416.16, 59.31 419.67, 59.36 423.02 C59.4 426.36, 59.83 432.15, 58.27 435.05 C56.71 437.94, 55.55 437.55, 50.02 440.4 C44.49 443.24, 33.08 449.62, 25.1 452.14 C17.12 454.66, 10.75 455.24, 2.14 455.5 C-6.47 455.77, -18 455.5, -26.55 453.73 C-35.1 451.96, -40.56 448.46, -49.17 444.89 C-57.78 441.33, -67.75 436.96, -78.22 432.34 C-88.69 427.73, -100.18 422.76, -112 417.2 C-123.83 411.65, -134.42 406.33, -149.17 399.01 C-163.92 391.69, -188.68 379.17, -200.52 373.28 C-212.36 367.4, -215.23 366.46, -220.22 363.71 C-225.2 360.97, -228.55 360.38, -230.42 356.79 C-232.28 353.21, -231.26 350.26, -231.41 342.21 C-231.55 334.15, -231.45 320.38, -231.3 308.47 C-231.15 296.55, -230.59 286.53, -230.53 270.72 C-230.47 254.91, -230.96 230.86, -230.92 213.63 C-230.88 196.39, -230.44 189.73, -230.28 167.31 C-230.13 144.88, -230.01 99.46, -229.98 79.07 C-229.95 58.68, -231.04 52.53, -230.12 44.95 C-229.21 37.38, -227.06 36.02, -224.49 33.62 C-221.92 31.23, -220.56 31.17, -214.71 30.59 C-208.86 30, -197.93 30.91, -189.38 30.12 C-180.83 29.34, -172.55 26.98, -163.43 25.88 C-154.3 24.77, -143.04 24.32, -134.64 23.49 C-126.24 22.65, -121.66 22.02, -113.04 20.85 C-104.41 19.69, -93.14 18.03, -82.89 16.5 C-72.64 14.98, -61.85 13.41, -51.54 11.72 C-41.22 10.03, -29.6 8.32, -21.01 6.37 C-12.42 4.41, -3.5 1.06, 0 0" stroke="#E1E1E1" stroke-width="4" fill="none"></path></g></g><mask></mask><g stroke-linecap="round"><g transform="translate(287.07127189375063 440.2000904570652) rotate(0 -90.80948990721518 212.2558356144062)"><path d="M0 0 C4.64 -1.73, 21.29 -7.81, 27.83 -10.37 C34.36 -12.92, 36.43 -14.43, 39.2 -15.31 C41.96 -16.2, 43.17 -16.21, 44.41 -15.66 C45.64 -15.1, 46.97 -12.96, 46.59 -12 C46.21 -11.05, 45.65 -11.4, 42.12 -9.92 C38.59 -8.43, 32.49 -5.98, 25.42 -3.09 C18.35 -0.21, 11.25 3.35, -0.3 7.37 C-11.84 11.4, -27.64 15.69, -43.85 21.07 C-60.06 26.44, -81.02 33.87, -97.58 39.6 C-114.13 45.33, -131.34 51.07, -143.16 55.45 C-154.99 59.83, -162.92 62.66, -168.53 65.9 C-174.15 69.15, -174.97 71.61, -176.84 74.92 C-178.71 78.22, -179.17 80.96, -179.76 85.73 C-180.35 90.5, -180.31 95.16, -180.37 103.53 C-180.44 111.9, -180.21 122.91, -180.13 135.93 C-180.04 148.94, -179.95 164.77, -179.86 181.62 C-179.78 198.47, -179.67 218.45, -179.61 237.01 C-179.55 255.58, -179.59 278.74, -179.49 293.03 C-179.39 307.32, -179.76 315.99, -178.99 322.75 C-178.23 329.51, -178.75 328.76, -174.92 333.57 C-171.08 338.38, -165.72 343.74, -155.99 351.61 C-146.26 359.47, -130.02 371.28, -116.54 380.76 C-103.06 390.24, -87.54 400.98, -75.1 408.48 C-62.66 415.99, -52.42 421.74, -41.92 425.79 C-31.41 429.85, -21.81 432.28, -12.06 432.82 C-2.31 433.35, 8.47 430.45, 16.59 428.99 C24.71 427.54, 32.12 425.79, 36.64 424.09 C41.16 422.39, 42.41 418.53, 43.71 418.81 C45.01 419.09, 45.5 424.06, 44.44 425.75 C43.38 427.45, 41.49 427.36, 37.34 428.99 C33.19 430.63, 26.15 433.72, 19.52 435.58 C12.88 437.44, 4.6 439.62, -2.45 440.17 C-9.49 440.72, -15.71 440.22, -22.75 438.87 C-29.79 437.52, -34.16 436.4, -44.68 432.06 C-55.2 427.72, -72.34 419, -85.88 412.85 C-99.41 406.7, -113.21 401.11, -125.89 395.16 C-138.57 389.21, -149.74 383.26, -161.95 377.16 C-174.16 371.06, -189 363.41, -199.14 358.54 C-209.27 353.67, -218.09 350.84, -222.76 347.95 C-227.42 345.07, -226.38 346.23, -227.11 341.23 C-227.85 336.24, -227.17 327.28, -227.16 317.97 C-227.16 308.65, -227.12 300.59, -227.06 285.36 C-227 270.13, -226.8 244.99, -226.8 226.58 C-226.8 208.18, -226.98 192.7, -227.06 174.94 C-227.14 157.17, -227.12 138.31, -227.28 120.02 C-227.45 101.72, -227.9 77.97, -228.05 65.18 C-228.21 52.38, -228.63 48.33, -228.21 43.23 C-227.79 38.13, -227.52 36.74, -225.54 34.58 C-223.57 32.42, -223.83 31.49, -216.38 30.25 C-208.93 29.01, -193.74 28.39, -180.86 27.14 C-167.98 25.89, -153.01 24.27, -139.11 22.75 C-125.21 21.24, -109.92 19.63, -97.45 18.05 C-84.97 16.47, -77.46 15.43, -64.27 13.28 C-51.08 11.13, -29.03 7.35, -18.31 5.14 C-7.6 2.92, -3.05 0.86, 0 0 M0 0 C4.64 -1.73, 21.29 -7.81, 27.83 -10.37 C34.36 -12.92, 36.43 -14.43, 39.2 -15.31 C41.96 -16.2, 43.17 -16.21, 44.41 -15.66 C45.64 -15.1, 46.97 -12.96, 46.59 -12 C46.21 -11.05, 45.65 -11.4, 42.12 -9.92 C38.59 -8.43, 32.49 -5.98, 25.42 -3.09 C18.35 -0.21, 11.25 3.35, -0.3 7.37 C-11.84 11.4, -27.64 15.69, -43.85 21.07 C-60.06 26.44, -81.02 33.87, -97.58 39.6 C-114.13 45.33, -131.34 51.07, -143.16 55.45 C-154.99 59.83, -162.92 62.66, -168.53 65.9 C-174.15 69.15, -174.97 71.61, -176.84 74.92 C-178.71 78.22, -179.17 80.96, -179.76 85.73 C-180.35 90.5, -180.31 95.16, -180.37 103.53 C-180.44 111.9, -180.21 122.91, -180.13 135.93 C-180.04 148.94, -179.95 164.77, -179.86 181.62 C-179.78 198.47, -179.67 218.45, -179.61 237.01 C-179.55 255.58, -179.59 278.74, -179.49 293.03 C-179.39 307.32, -179.76 315.99, -178.99 322.75 C-178.23 329.51, -178.75 328.76, -174.92 333.57 C-171.08 338.38, -165.72 343.74, -155.99 351.61 C-146.26 359.47, -130.02 371.28, -116.54 380.76 C-103.06 390.24, -87.54 400.98, -75.1 408.48 C-62.66 415.99, -52.42 421.74, -41.92 425.79 C-31.41 429.85, -21.81 432.28, -12.06 432.82 C-2.31 433.35, 8.47 430.45, 16.59 428.99 C24.71 427.54, 32.12 425.79, 36.64 424.09 C41.16 422.39, 42.41 418.53, 43.71 418.81 C45.01 419.09, 45.5 424.06, 44.44 425.75 C43.38 427.45, 41.49 427.36, 37.34 428.99 C33.19 430.63, 26.15 433.72, 19.52 435.58 C12.88 437.44, 4.6 439.62, -2.45 440.17 C-9.49 440.72, -15.71 440.22, -22.75 438.87 C-29.79 437.52, -34.16 436.4, -44.68 432.06 C-55.2 427.72, -72.34 419, -85.88 412.85 C-99.41 406.7, -113.21 401.11, -125.89 395.16 C-138.57 389.21, -149.74 383.26, -161.95 377.16 C-174.16 371.06, -189 363.41, -199.14 358.54 C-209.27 353.67, -218.09 350.84, -222.76 347.95 C-227.42 345.07, -226.38 346.23, -227.11 341.23 C-227.85 336.24, -227.17 327.28, -227.16 317.97 C-227.16 308.65, -227.12 300.59, -227.06 285.36 C-227 270.13, -226.8 244.99, -226.8 226.58 C-226.8 208.18, -226.98 192.7, -227.06 174.94 C-227.14 157.17, -227.12 138.31, -227.28 120.02 C-227.45 101.72, -227.9 77.97, -228.05 65.18 C-228.21 52.38, -228.63 48.33, -228.21 43.23 C-227.79 38.13, -227.52 36.74, -225.54 34.58 C-223.57 32.42, -223.83 31.49, -216.38 30.25 C-208.93 29.01, -193.74 28.39, -180.86 27.14 C-167.98 25.89, -153.01 24.27, -139.11 22.75 C-125.21 21.24, -109.92 19.63, -97.45 18.05 C-84.97 16.47, -77.46 15.43, -64.27 13.28 C-51.08 11.13, -29.03 7.35, -18.31 5.14 C-7.6 2.92, -3.05 0.86, 0 0" stroke="#E1E1E1" stroke-width="4" fill="none"></path></g></g><mask></mask><g stroke-linecap="round"><g transform="translate(149.5139556651107 471.2556609750933) rotate(0 -16.154664855171347 173.0509795913472)"><path d="M0 0 C6.2 -0.79, 28.89 -3.65, 37.21 -4.74 C45.52 -5.83, 48.08 -6.92, 49.91 -6.54 C51.73 -6.15, 49.45 -3.66, 48.15 -2.44 C46.85 -1.22, 45.31 -0.29, 42.09 0.78 C38.87 1.85, 34.63 2.23, 28.85 3.98 C23.06 5.73, 14.73 8.76, 7.39 11.28 C0.05 13.8, -8.25 16.31, -15.2 19.09 C-22.15 21.88, -29.29 24.51, -34.3 27.99 C-39.31 31.48, -42.59 35.34, -45.26 40.01 C-47.94 44.68, -49.46 50.24, -50.35 56.02 C-51.24 61.8, -50.5 66.24, -50.58 74.69 C-50.65 83.14, -50.87 95.93, -50.8 106.7 C-50.74 117.46, -50.33 128.57, -50.2 139.27 C-50.07 149.96, -50.03 159.35, -50 170.87 C-49.98 182.39, -50.02 196.28, -50.06 208.39 C-50.11 220.51, -50.24 230.69, -50.26 243.56 C-50.27 256.43, -50.58 275.99, -50.15 285.63 C-49.73 295.27, -49.97 296.53, -47.72 301.38 C-45.46 306.24, -42.23 309.46, -36.63 314.76 C-31.02 320.06, -20.88 327.49, -14.09 333.18 C-7.3 338.88, 0.22 345.7, 4.12 348.94 C8.02 352.18, 9.26 352.25, 9.31 352.64 C9.35 353.03, 7.66 352.43, 4.37 351.29 C1.08 350.15, -5.17 348.16, -10.44 345.81 C-15.7 343.47, -20.64 340.55, -27.22 337.23 C-33.8 333.9, -43.06 329.34, -49.92 325.85 C-56.77 322.36, -63.85 318.55, -68.34 316.28 C-72.82 314.01, -74.68 313.48, -76.81 312.23 C-78.94 310.99, -80.23 310.61, -81.13 308.82 C-82.03 307.04, -82.14 305.83, -82.21 301.53 C-82.28 297.24, -81.64 293.81, -81.55 283.03 C-81.46 272.26, -81.56 253.1, -81.67 236.89 C-81.78 220.67, -82.23 204.28, -82.22 185.77 C-82.2 167.25, -81.62 152.31, -81.6 125.81 C-81.58 99.31, -82.45 46.12, -82.09 26.76 C-81.73 7.41, -81.76 13.01, -79.44 9.71 C-77.12 6.4, -75.01 7.68, -68.15 6.95 C-61.29 6.21, -49.66 6.48, -38.31 5.32 C-26.95 4.16, -6.38 0.89, 0 0 M0 0 C6.2 -0.79, 28.89 -3.65, 37.21 -4.74 C45.52 -5.83, 48.08 -6.92, 49.91 -6.54 C51.73 -6.15, 49.45 -3.66, 48.15 -2.44 C46.85 -1.22, 45.31 -0.29, 42.09 0.78 C38.87 1.85, 34.63 2.23, 28.85 3.98 C23.06 5.73, 14.73 8.76, 7.39 11.28 C0.05 13.8, -8.25 16.31, -15.2 19.09 C-22.15 21.88, -29.29 24.51, -34.3 27.99 C-39.31 31.48, -42.59 35.34, -45.26 40.01 C-47.94 44.68, -49.46 50.24, -50.35 56.02 C-51.24 61.8, -50.5 66.24, -50.58 74.69 C-50.65 83.14, -50.87 95.93, -50.8 106.7 C-50.74 117.46, -50.33 128.57, -50.2 139.27 C-50.07 149.96, -50.03 159.35, -50 170.87 C-49.98 182.39, -50.02 196.28, -50.06 208.39 C-50.11 220.51, -50.24 230.69, -50.26 243.56 C-50.27 256.43, -50.58 275.99, -50.15 285.63 C-49.73 295.27, -49.97 296.53, -47.72 301.38 C-45.46 306.24, -42.23 309.46, -36.63 314.76 C-31.02 320.06, -20.88 327.49, -14.09 333.18 C-7.3 338.88, 0.22 345.7, 4.12 348.94 C8.02 352.18, 9.26 352.25, 9.31 352.64 C9.35 353.03, 7.66 352.43, 4.37 351.29 C1.08 350.15, -5.17 348.16, -10.44 345.81 C-15.7 343.47, -20.64 340.55, -27.22 337.23 C-33.8 333.9, -43.06 329.34, -49.92 325.85 C-56.77 322.36, -63.85 318.55, -68.34 316.28 C-72.82 314.01, -74.68 313.48, -76.81 312.23 C-78.94 310.99, -80.23 310.61, -81.13 308.82 C-82.03 307.04, -82.14 305.83, -82.21 301.53 C-82.28 297.24, -81.64 293.81, -81.55 283.03 C-81.46 272.26, -81.56 253.1, -81.67 236.89 C-81.78 220.67, -82.23 204.28, -82.22 185.77 C-82.2 167.25, -81.62 152.31, -81.6 125.81 C-81.58 99.31, -82.45 46.12, -82.09 26.76 C-81.73 7.41, -81.76 13.01, -79.44 9.71 C-77.12 6.4, -75.01 7.68, -68.15 6.95 C-61.29 6.21, -49.66 6.48, -38.31 5.32 C-26.95 4.16, -6.38 0.89, 0 0" stroke="#E1E1E1" stroke-width="4" fill="none"></path></g></g><mask></mask><g stroke-linecap="round"><g transform="translate(77.71005207637432 487.8075623615298) rotate(0 21.50134738497769 145.60896425615803)"><path d="M0 0 C0.09 4.52, 0.37 16.01, 0.57 27.14 C0.77 38.26, 1 52.99, 1.17 66.75 C1.35 80.51, 1.53 91.89, 1.62 109.7 C1.7 127.51, 1.62 150.82, 1.67 173.61 C1.73 196.39, 2.04 227.91, 1.95 246.43 C1.85 264.95, -0.96 276.98, 1.09 284.74 C3.14 292.49, 11.69 292.17, 14.24 292.96 C16.79 293.76, 16.65 290.6, 16.4 289.51 C16.15 288.41, 13.63 287.24, 12.74 286.38 C11.85 285.52, 11.41 286.62, 11.07 284.34 C10.74 282.06, 11.03 276.99, 10.74 272.71 C10.44 268.43, 9.48 263.66, 9.3 258.64 C9.13 253.63, 9.53 250.36, 9.69 242.61 C9.85 234.86, 10.04 220.86, 10.28 212.12 C10.52 203.38, 10.99 200.74, 11.14 190.15 C11.28 179.57, 11.22 163.17, 11.16 148.61 C11.1 134.05, 10.94 119.57, 10.79 102.78 C10.64 85.98, 9.74 61.15, 10.26 47.83 C10.77 34.51, 11.56 29.47, 13.87 22.85 C16.18 16.24, 20.8 11.7, 24.1 8.14 C27.41 4.58, 30.55 3.15, 33.69 1.51 C36.84 -0.14, 45.21 -1.27, 43 -1.75 C40.8 -2.22, 27.62 -1.64, 20.46 -1.34 C13.29 -1.05, 3.41 -0.22, 0 0 M0 0 C0.09 4.52, 0.37 16.01, 0.57 27.14 C0.77 38.26, 1 52.99, 1.17 66.75 C1.35 80.51, 1.53 91.89, 1.62 109.7 C1.7 127.51, 1.62 150.82, 1.67 173.61 C1.73 196.39, 2.04 227.91, 1.95 246.43 C1.85 264.95, -0.96 276.98, 1.09 284.74 C3.14 292.49, 11.69 292.17, 14.24 292.96 C16.79 293.76, 16.65 290.6, 16.4 289.51 C16.15 288.41, 13.63 287.24, 12.74 286.38 C11.85 285.52, 11.41 286.62, 11.07 284.34 C10.74 282.06, 11.03 276.99, 10.74 272.71 C10.44 268.43, 9.48 263.66, 9.3 258.64 C9.13 253.63, 9.53 250.36, 9.69 242.61 C9.85 234.86, 10.04 220.86, 10.28 212.12 C10.52 203.38, 10.99 200.74, 11.14 190.15 C11.28 179.57, 11.22 163.17, 11.16 148.61 C11.1 134.05, 10.94 119.57, 10.79 102.78 C10.64 85.98, 9.74 61.15, 10.26 47.83 C10.77 34.51, 11.56 29.47, 13.87 22.85 C16.18 16.24, 20.8 11.7, 24.1 8.14 C27.41 4.58, 30.55 3.15, 33.69 1.51 C36.84 -0.14, 45.21 -1.27, 43 -1.75 C40.8 -2.22, 27.62 -1.64, 20.46 -1.34 C13.29 -1.05, 3.41 -0.22, 0 0" stroke="#E1E1E1" stroke-width="4" fill="none"></path></g></g><mask></mask><g stroke-linecap="round"><g transform="translate(212.73515456349327 511.8458189958742) rotate(0 5.644690330054601 146.79509438150103)"><path d="M0 0 C9.43 -3.2, 45.44 -15.28, 56.58 -19.17 C67.72 -23.07, 64.49 -22.78, 66.83 -23.37 C69.17 -23.97, 69.86 -23.78, 70.61 -22.74 C71.36 -21.7, 71.35 -23.38, 71.34 -17.13 C71.32 -10.88, 70.71 0.83, 70.53 14.75 C70.36 28.66, 70.22 47.35, 70.3 66.36 C70.39 85.38, 71.01 102.17, 71.05 128.84 C71.08 155.51, 70.54 197.69, 70.51 226.36 C70.48 255.03, 70.77 286.53, 70.87 300.86 C70.97 315.18, 71.32 309.64, 71.11 312.29 C70.89 314.94, 71.14 315.96, 69.58 316.74 C68.02 317.51, 66.13 317.63, 61.74 316.97 C57.36 316.3, 52.47 316.63, 43.28 312.77 C34.09 308.92, 18.79 301.27, 6.61 293.83 C-5.58 286.39, -19.07 276.33, -29.83 268.13 C-40.59 259.94, -53 250.31, -57.95 244.68 C-62.9 239.04, -59.22 239.89, -59.52 234.35 C-59.83 228.81, -59.7 223.49, -59.77 211.46 C-59.84 199.44, -59.89 177.65, -59.93 162.21 C-59.98 146.77, -60.09 134.55, -60.05 118.82 C-60.01 103.09, -59.78 82.1, -59.69 67.84 C-59.6 53.58, -60.01 40.85, -59.51 33.29 C-59 25.73, -59.66 25.69, -56.65 22.49 C-53.65 19.29, -49.81 17.48, -41.48 14.1 C-33.15 10.72, -13.59 4.57, -6.68 2.22 C0.23 -0.13, -1.11 0.37, 0 0 M0 0 C9.43 -3.2, 45.44 -15.28, 56.58 -19.17 C67.72 -23.07, 64.49 -22.78, 66.83 -23.37 C69.17 -23.97, 69.86 -23.78, 70.61 -22.74 C71.36 -21.7, 71.35 -23.38, 71.34 -17.13 C71.32 -10.88, 70.71 0.83, 70.53 14.75 C70.36 28.66, 70.22 47.35, 70.3 66.36 C70.39 85.38, 71.01 102.17, 71.05 128.84 C71.08 155.51, 70.54 197.69, 70.51 226.36 C70.48 255.03, 70.77 286.53, 70.87 300.86 C70.97 315.18, 71.32 309.64, 71.11 312.29 C70.89 314.94, 71.14 315.96, 69.58 316.74 C68.02 317.51, 66.13 317.63, 61.74 316.97 C57.36 316.3, 52.47 316.63, 43.28 312.77 C34.09 308.92, 18.79 301.27, 6.61 293.83 C-5.58 286.39, -19.07 276.33, -29.83 268.13 C-40.59 259.94, -53 250.31, -57.95 244.68 C-62.9 239.04, -59.22 239.89, -59.52 234.35 C-59.83 228.81, -59.7 223.49, -59.77 211.46 C-59.84 199.44, -59.89 177.65, -59.93 162.21 C-59.98 146.77, -60.09 134.55, -60.05 118.82 C-60.01 103.09, -59.78 82.1, -59.69 67.84 C-59.6 53.58, -60.01 40.85, -59.51 33.29 C-59 25.73, -59.66 25.69, -56.65 22.49 C-53.65 19.29, -49.81 17.48, -41.48 14.1 C-33.15 10.72, -13.59 4.57, -6.68 2.22 C0.23 -0.13, -1.11 0.37, 0 0" stroke="#E1E1E1" stroke-width="4" fill="none"></path></g></g><mask></mask><g stroke-linecap="round"><g transform="translate(229.68639410375346 495.7190766495973) rotate(0 -12.047117328583468 161.65586268771378)"><path d="M0 0 C-5.49 1.92, -21.67 7.71, -32.92 11.51 C-44.17 15.31, -59.39 19.81, -67.5 22.78 C-75.6 25.75, -78.23 26.7, -81.54 29.34 C-84.85 31.98, -86.09 34.12, -87.38 38.62 C-88.66 43.12, -88.99 48.78, -89.25 56.33 C-89.5 63.88, -89.01 66.51, -88.91 83.92 C-88.81 101.33, -88.85 134.38, -88.66 160.79 C-88.48 187.21, -88.35 225.63, -87.8 242.41 C-87.25 259.2, -87.86 256.04, -85.38 261.49 C-82.9 266.93, -79.03 269.25, -72.93 275.07 C-66.82 280.89, -58.29 289.09, -48.73 296.4 C-39.18 303.72, -28.2 311.6, -15.59 318.95 C-2.98 326.3, 16.11 336.41, 26.92 340.53 C37.73 344.65, 43.38 343.14, 49.25 343.66 C55.11 344.18, 59.47 344.5, 62.12 343.64 C64.77 342.78, 64.7 342.25, 65.15 338.51 C65.61 334.77, 64.93 330.14, 64.84 321.18 C64.76 312.23, 64.63 303.05, 64.65 284.79 C64.67 266.53, 64.9 235.5, 64.96 211.63 C65.01 187.76, 65.04 164, 64.99 141.59 C64.94 119.18, 64.64 98.5, 64.66 77.16 C64.67 55.82, 65.07 28.68, 65.09 13.54 C65.11 -1.6, 65.23 -8.03, 64.79 -13.68 C64.34 -19.33, 64.28 -19.33, 62.41 -20.35 C60.54 -21.36, 58.46 -21.15, 53.58 -19.78 C48.71 -18.4, 40.32 -14.62, 33.16 -12.11 C26 -9.6, 16.17 -6.71, 10.64 -4.69 C5.11 -2.67, 1.77 -0.78, 0 0 M0 0 C-5.49 1.92, -21.67 7.71, -32.92 11.51 C-44.17 15.31, -59.39 19.81, -67.5 22.78 C-75.6 25.75, -78.23 26.7, -81.54 29.34 C-84.85 31.98, -86.09 34.12, -87.38 38.62 C-88.66 43.12, -88.99 48.78, -89.25 56.33 C-89.5 63.88, -89.01 66.51, -88.91 83.92 C-88.81 101.33, -88.85 134.38, -88.66 160.79 C-88.48 187.21, -88.35 225.63, -87.8 242.41 C-87.25 259.2, -87.86 256.04, -85.38 261.49 C-82.9 266.93, -79.03 269.25, -72.93 275.07 C-66.82 280.89, -58.29 289.09, -48.73 296.4 C-39.18 303.72, -28.2 311.6, -15.59 318.95 C-2.98 326.3, 16.11 336.41, 26.92 340.53 C37.73 344.65, 43.38 343.14, 49.25 343.66 C55.11 344.18, 59.47 344.5, 62.12 343.64 C64.77 342.78, 64.7 342.25, 65.15 338.51 C65.61 334.77, 64.93 330.14, 64.84 321.18 C64.76 312.23, 64.63 303.05, 64.65 284.79 C64.67 266.53, 64.9 235.5, 64.96 211.63 C65.01 187.76, 65.04 164, 64.99 141.59 C64.94 119.18, 64.64 98.5, 64.66 77.16 C64.67 55.82, 65.07 28.68, 65.09 13.54 C65.11 -1.6, 65.23 -8.03, 64.79 -13.68 C64.34 -19.33, 64.28 -19.33, 62.41 -20.35 C60.54 -21.36, 58.46 -21.15, 53.58 -19.78 C48.71 -18.4, 40.32 -14.62, 33.16 -12.11 C26 -9.6, 16.17 -6.71, 10.64 -4.69 C5.11 -2.67, 1.77 -0.78, 0 0" stroke="#E1E1E1" stroke-width="4" fill="none"></path></g></g><mask></mask><g stroke-linecap="round"><g transform="translate(308.42363913425925 497.5884269143655) rotate(0 7.157641139762745 151.34042353393622)"><path d="M0 0 C0.03 6.91, 0.2 28.07, 0.18 41.49 C0.16 54.91, -0.03 67.12, -0.13 80.51 C-0.22 93.91, -0.47 108.16, -0.4 121.86 C-0.32 135.56, 0.28 149.49, 0.35 162.71 C0.41 175.93, -0.05 189.05, -0.01 201.18 C0.04 213.32, 0.46 223.6, 0.6 235.52 C0.74 247.44, 0.76 261.82, 0.84 272.71 C0.92 283.61, 1.14 292.56, 1.06 300.89 C0.98 309.21, -0.02 318.38, 0.37 322.65 C0.75 326.92, 1.95 326.72, 3.37 326.52 C4.78 326.32, 7.1 323.05, 8.86 321.45 C10.62 319.85, 12.96 319.17, 13.93 316.92 C14.9 314.67, 14.57 313.14, 14.67 307.95 C14.78 302.76, 14.6 299.65, 14.57 285.78 C14.54 271.91, 14.46 256.24, 14.48 224.73 C14.5 193.21, 14.71 129.1, 14.71 96.68 C14.71 64.27, 14.48 48.94, 14.46 30.23 C14.44 11.52, 14.76 -6.58, 14.6 -15.59 C14.44 -24.6, 14.58 -22.54, 13.5 -23.84 C12.42 -25.13, 10.26 -24.08, 8.11 -23.37 C5.95 -22.66, 1.95 -20.81, 0.58 -19.57 C-0.78 -18.33, 0.02 -19.19, -0.08 -15.93 C-0.18 -12.66, -0.01 -2.65, 0 0 M0 0 C0.03 6.91, 0.2 28.07, 0.18 41.49 C0.16 54.91, -0.03 67.12, -0.13 80.51 C-0.22 93.91, -0.47 108.16, -0.4 121.86 C-0.32 135.56, 0.28 149.49, 0.35 162.71 C0.41 175.93, -0.05 189.05, -0.01 201.18 C0.04 213.32, 0.46 223.6, 0.6 235.52 C0.74 247.44, 0.76 261.82, 0.84 272.71 C0.92 283.61, 1.14 292.56, 1.06 300.89 C0.98 309.21, -0.02 318.38, 0.37 322.65 C0.75 326.92, 1.95 326.72, 3.37 326.52 C4.78 326.32, 7.1 323.05, 8.86 321.45 C10.62 319.85, 12.96 319.17, 13.93 316.92 C14.9 314.67, 14.57 313.14, 14.67 307.95 C14.78 302.76, 14.6 299.65, 14.57 285.78 C14.54 271.91, 14.46 256.24, 14.48 224.73 C14.5 193.21, 14.71 129.1, 14.71 96.68 C14.71 64.27, 14.48 48.94, 14.46 30.23 C14.44 11.52, 14.76 -6.58, 14.6 -15.59 C14.44 -24.6, 14.58 -22.54, 13.5 -23.84 C12.42 -25.13, 10.26 -24.08, 8.11 -23.37 C5.95 -22.66, 1.95 -20.81, 0.58 -19.57 C-0.78 -18.33, 0.02 -19.19, -0.08 -15.93 C-0.18 -12.66, -0.01 -2.65, 0 0" stroke="#E1E1E1" stroke-width="4" fill="none"></path></g></g><mask></mask><g stroke-linecap="round"><g transform="translate(298.8960104751516 508.84306355880636) rotate(0 17.251571219952694 140.80611510156487)"><path d="M0 0 C-0.05 -3.87, -0.35 -17.54, -0.3 -23.21 C-0.25 -28.88, -0.66 -31.47, 0.28 -34.03 C1.22 -36.59, 2.37 -36.97, 5.33 -38.57 C8.28 -40.17, 14.71 -42.32, 18.02 -43.61 C21.33 -44.9, 22.92 -45.92, 25.19 -46.31 C27.45 -46.69, 30.14 -46.81, 31.63 -45.9 C33.11 -44.98, 33.61 -45.86, 34.07 -40.8 C34.54 -35.74, 34.31 -26.57, 34.43 -15.53 C34.54 -4.49, 34.67 11.99, 34.76 25.41 C34.85 38.84, 35.02 49.43, 34.98 65.03 C34.94 80.63, 34.61 99.66, 34.52 119.03 C34.44 138.39, 34.46 161.7, 34.47 181.24 C34.48 200.77, 34.59 218.84, 34.59 236.22 C34.59 253.59, 34.47 274.59, 34.45 285.51 C34.43 296.42, 34.85 297.48, 34.49 301.72 C34.13 305.96, 34.81 307.48, 32.29 310.93 C29.78 314.39, 23.92 319.61, 19.39 322.44 C14.85 325.27, 8.22 327.41, 5.09 327.92 C1.95 328.43, 1.41 329.54, 0.59 325.5 C-0.23 321.47, 0.25 313.35, 0.16 303.71 C0.07 294.07, 0.14 281.19, 0.03 267.68 C-0.07 254.16, -0.37 242.22, -0.45 222.62 C-0.54 203.02, -0.53 171.05, -0.48 150.06 C-0.43 129.07, -0.24 114.64, -0.15 96.7 C-0.06 78.75, 0.05 58.5, 0.08 42.38 C0.1 26.27, 0.01 7.06, 0 0 M0 0 C-0.05 -3.87, -0.35 -17.54, -0.3 -23.21 C-0.25 -28.88, -0.66 -31.47, 0.28 -34.03 C1.22 -36.59, 2.37 -36.97, 5.33 -38.57 C8.28 -40.17, 14.71 -42.32, 18.02 -43.61 C21.33 -44.9, 22.92 -45.92, 25.19 -46.31 C27.45 -46.69, 30.14 -46.81, 31.63 -45.9 C33.11 -44.98, 33.61 -45.86, 34.07 -40.8 C34.54 -35.74, 34.31 -26.57, 34.43 -15.53 C34.54 -4.49, 34.67 11.99, 34.76 25.41 C34.85 38.84, 35.02 49.43, 34.98 65.03 C34.94 80.63, 34.61 99.66, 34.52 119.03 C34.44 138.39, 34.46 161.7, 34.47 181.24 C34.48 200.77, 34.59 218.84, 34.59 236.22 C34.59 253.59, 34.47 274.59, 34.45 285.51 C34.43 296.42, 34.85 297.48, 34.49 301.72 C34.13 305.96, 34.81 307.48, 32.29 310.93 C29.78 314.39, 23.92 319.61, 19.39 322.44 C14.85 325.27, 8.22 327.41, 5.09 327.92 C1.95 328.43, 1.41 329.54, 0.59 325.5 C-0.23 321.47, 0.25 313.35, 0.16 303.71 C0.07 294.07, 0.14 281.19, 0.03 267.68 C-0.07 254.16, -0.37 242.22, -0.45 222.62 C-0.54 203.02, -0.53 171.05, -0.48 150.06 C-0.43 129.07, -0.24 114.64, -0.15 96.7 C-0.06 78.75, 0.05 58.5, 0.08 42.38 C0.1 26.27, 0.01 7.06, 0 0" stroke="#E1E1E1" stroke-width="4" fill="none"></path></g></g><mask></mask><g stroke-linecap="round"><g transform="translate(301.33467684234074 399.3633013287405) rotate(0 10.903677524307298 3.5962755319843467)"><path d="M0 0 C3.33 -1.05, 14.73 -4.23, 19.99 -6.28 C25.25 -8.33, 29.36 -11.78, 31.57 -12.31 C33.78 -12.84, 32.92 -10.95, 33.27 -9.44 C33.61 -7.92, 33.86 -4.69, 33.64 -3.23 C33.41 -1.77, 33.66 -1.93, 31.9 -0.67 C30.14 0.59, 27.61 2.07, 23.08 4.34 C18.54 6.61, 10.16 10.41, 4.68 12.93 C-0.8 15.46, -7.07 19.28, -9.79 19.5 C-12.51 19.72, -11.31 16.86, -11.65 14.25 C-11.99 11.63, -12.44 6.09, -11.83 3.82 C-11.22 1.55, -9.95 1.26, -7.98 0.63 C-6 -0.01, -1.33 0.1, 0 0 M0 0 C3.33 -1.05, 14.73 -4.23, 19.99 -6.28 C25.25 -8.33, 29.36 -11.78, 31.57 -12.31 C33.78 -12.84, 32.92 -10.95, 33.27 -9.44 C33.61 -7.92, 33.86 -4.69, 33.64 -3.23 C33.41 -1.77, 33.66 -1.93, 31.9 -0.67 C30.14 0.59, 27.61 2.07, 23.08 4.34 C18.54 6.61, 10.16 10.41, 4.68 12.93 C-0.8 15.46, -7.07 19.28, -9.79 19.5 C-12.51 19.72, -11.31 16.86, -11.65 14.25 C-11.99 11.63, -12.44 6.09, -11.83 3.82 C-11.22 1.55, -9.95 1.26, -7.98 0.63 C-6 -0.01, -1.33 0.1, 0 0" stroke="#E1E1E1" stroke-width="4" fill="none"></path></g></g><mask></mask><g stroke-linecap="round"><g transform="translate(287.6432643774859 394.6805540922337) rotate(0 23.493962120352094 4.757634646005144)"><path d="M0 0 C3.97 -0.85, 17.59 -3.12, 23.85 -5.1 C30.1 -7.07, 33.34 -9.49, 37.53 -11.84 C41.73 -14.2, 46.48 -17.26, 49.03 -19.22 C51.58 -21.19, 51.79 -23.48, 52.84 -23.62 C53.88 -23.75, 54.82 -22.1, 55.31 -20.03 C55.8 -17.96, 55.63 -15.02, 55.78 -11.19 C55.94 -7.36, 56.46 -0.66, 56.24 2.95 C56.02 6.56, 56.35 8.63, 54.47 10.46 C52.58 12.3, 49.57 11.96, 44.94 13.98 C40.3 15.99, 32.96 19.92, 26.66 22.56 C20.36 25.19, 11.89 28.03, 7.13 29.79 C2.37 31.55, 0.67 32.76, -1.9 33.13 C-4.48 33.51, -7.12 33.6, -8.31 32.06 C-9.49 30.51, -8.87 28.04, -9.03 23.87 C-9.19 19.69, -9.87 10.92, -9.25 7.03 C-8.64 3.13, -6.89 1.66, -5.35 0.49 C-3.8 -0.68, -0.89 0.08, 0 0 M0 0 C3.97 -0.85, 17.59 -3.12, 23.85 -5.1 C30.1 -7.07, 33.34 -9.49, 37.53 -11.84 C41.73 -14.2, 46.48 -17.26, 49.03 -19.22 C51.58 -21.19, 51.79 -23.48, 52.84 -23.62 C53.88 -23.75, 54.82 -22.1, 55.31 -20.03 C55.8 -17.96, 55.63 -15.02, 55.78 -11.19 C55.94 -7.36, 56.46 -0.66, 56.24 2.95 C56.02 6.56, 56.35 8.63, 54.47 10.46 C52.58 12.3, 49.57 11.96, 44.94 13.98 C40.3 15.99, 32.96 19.92, 26.66 22.56 C20.36 25.19, 11.89 28.03, 7.13 29.79 C2.37 31.55, 0.67 32.76, -1.9 33.13 C-4.48 33.51, -7.12 33.6, -8.31 32.06 C-9.49 30.51, -8.87 28.04, -9.03 23.87 C-9.19 19.69, -9.87 10.92, -9.25 7.03 C-8.64 3.13, -6.89 1.66, -5.35 0.49 C-3.8 -0.68, -0.89 0.08, 0 0" stroke="#E1E1E1" stroke-width="4" fill="none"></path></g></g><mask></mask><g stroke-linecap="round"><g transform="translate(275.53563898706375 411.6500289285084) rotate(0 -120.14048724839765 238.39990507867918)"><path d="M0 0 C0.06 2.97, 1.44 14.3, 0.35 17.81 C-0.75 21.32, -2.84 19.92, -6.57 21.06 C-10.29 22.21, -13.18 23.28, -22 24.66 C-30.83 26.04, -45.58 27.31, -59.52 29.34 C-73.46 31.37, -91.01 34.84, -105.63 36.84 C-120.25 38.85, -132.17 39.82, -147.24 41.36 C-162.31 42.91, -184.6 44.96, -196.06 46.12 C-207.51 47.28, -211.11 46.69, -215.98 48.33 C-220.85 49.97, -223.15 53.16, -225.27 55.94 C-227.39 58.71, -228.15 61.29, -228.71 64.99 C-229.27 68.7, -228.67 70.24, -228.64 78.17 C-228.61 86.1, -228.41 95.05, -228.53 112.58 C-228.66 130.1, -229.25 159.47, -229.39 183.32 C-229.54 207.16, -229.44 229.55, -229.38 255.65 C-229.33 281.76, -229.05 321.51, -229.07 339.94 C-229.09 358.37, -229.32 360.24, -229.49 366.22 C-229.67 372.2, -230.7 373.31, -230.11 375.83 C-229.52 378.35, -229.89 378.43, -225.97 381.34 C-222.06 384.26, -214.95 388.9, -206.61 393.32 C-198.27 397.74, -187.66 402.1, -175.94 407.88 C-164.21 413.66, -148.9 421.85, -136.27 428 C-123.64 434.15, -115.15 437.75, -100.14 444.76 C-85.13 451.78, -59.7 464.28, -46.19 470.1 C-32.69 475.91, -26.4 477.7, -19.13 479.67 C-11.85 481.63, -5.79 480.53, -2.56 481.88 C0.67 483.22, -0.21 482.48, 0.24 487.73 C0.68 492.98, 0.64 507.78, 0.09 513.36 C-0.46 518.95, -0.37 519.46, -3.06 521.25 C-5.74 523.04, -10.67 523.75, -16.02 524.13 C-21.37 524.5, -28.38 524.27, -35.17 523.5 C-41.95 522.74, -47.48 521.84, -56.72 519.53 C-65.96 517.21, -79.02 513.04, -90.6 509.61 C-102.19 506.18, -111.75 503.69, -126.25 498.96 C-140.75 494.23, -161.83 486.54, -177.61 481.24 C-193.39 475.94, -211.06 470.62, -220.92 467.17 C-230.77 463.71, -233.57 462.51, -236.75 460.5 C-239.93 458.49, -239.46 459.18, -240.01 455.11 C-240.57 451.03, -240.16 443.66, -240.06 436.06 C-239.97 428.45, -239.4 419.72, -239.45 409.47 C-239.5 399.21, -240.32 387.77, -240.38 374.52 C-240.45 361.26, -239.95 343.93, -239.85 329.92 C-239.76 315.91, -239.81 305.84, -239.82 290.46 C-239.83 275.09, -239.85 254.39, -239.92 237.67 C-239.98 220.96, -240.07 216, -240.19 190.17 C-240.31 164.35, -240.59 112.73, -240.63 82.72 C-240.67 52.71, -240.62 29.84, -240.43 10.1 C-240.23 -9.65, -239.86 -26.58, -239.47 -35.75 C-239.07 -44.92, -238.87 -42.97, -238.05 -44.9 C-237.23 -46.83, -237.14 -47.11, -234.55 -47.33 C-231.96 -47.54, -228.42 -47.29, -222.51 -46.2 C-216.59 -45.1, -209.43 -42.74, -199.06 -40.76 C-188.7 -38.78, -174.86 -36.82, -160.31 -34.3 C-145.76 -31.78, -127.58 -28.47, -111.77 -25.66 C-95.95 -22.84, -80.32 -18.9, -65.42 -17.42 C-50.52 -15.94, -32.56 -16.87, -22.37 -16.77 C-12.19 -16.67, -8.02 -17.4, -4.31 -16.82 C-0.6 -16.24, -0.85 -16.07, -0.13 -13.27 C0.59 -10.46, -0.02 -2.21, 0 0 M0 0 C0.06 2.97, 1.44 14.3, 0.35 17.81 C-0.75 21.32, -2.84 19.92, -6.57 21.06 C-10.29 22.21, -13.18 23.28, -22 24.66 C-30.83 26.04, -45.58 27.31, -59.52 29.34 C-73.46 31.37, -91.01 34.84, -105.63 36.84 C-120.25 38.85, -132.17 39.82, -147.24 41.36 C-162.31 42.91, -184.6 44.96, -196.06 46.12 C-207.51 47.28, -211.11 46.69, -215.98 48.33 C-220.85 49.97, -223.15 53.16, -225.27 55.94 C-227.39 58.71, -228.15 61.29, -228.71 64.99 C-229.27 68.7, -228.67 70.24, -228.64 78.17 C-228.61 86.1, -228.41 95.05, -228.53 112.58 C-228.66 130.1, -229.25 159.47, -229.39 183.32 C-229.54 207.16, -229.44 229.55, -229.38 255.65 C-229.33 281.76, -229.05 321.51, -229.07 339.94 C-229.09 358.37, -229.32 360.24, -229.49 366.22 C-229.67 372.2, -230.7 373.31, -230.11 375.83 C-229.52 378.35, -229.89 378.43, -225.97 381.34 C-222.06 384.26, -214.95 388.9, -206.61 393.32 C-198.27 397.74, -187.66 402.1, -175.94 407.88 C-164.21 413.66, -148.9 421.85, -136.27 428 C-123.64 434.15, -115.15 437.75, -100.14 444.76 C-85.13 451.78, -59.7 464.28, -46.19 470.1 C-32.69 475.91, -26.4 477.7, -19.13 479.67 C-11.85 481.63, -5.79 480.53, -2.56 481.88 C0.67 483.22, -0.21 482.48, 0.24 487.73 C0.68 492.98, 0.64 507.78, 0.09 513.36 C-0.46 518.95, -0.37 519.46, -3.06 521.25 C-5.74 523.04, -10.67 523.75, -16.02 524.13 C-21.37 524.5, -28.38 524.27, -35.17 523.5 C-41.95 522.74, -47.48 521.84, -56.72 519.53 C-65.96 517.21, -79.02 513.04, -90.6 509.61 C-102.19 506.18, -111.75 503.69, -126.25 498.96 C-140.75 494.23, -161.83 486.54, -177.61 481.24 C-193.39 475.94, -211.06 470.62, -220.92 467.17 C-230.77 463.71, -233.57 462.51, -236.75 460.5 C-239.93 458.49, -239.46 459.18, -240.01 455.11 C-240.57 451.03, -240.16 443.66, -240.06 436.06 C-239.97 428.45, -239.4 419.72, -239.45 409.47 C-239.5 399.21, -240.32 387.77, -240.38 374.52 C-240.45 361.26, -239.95 343.93, -239.85 329.92 C-239.76 315.91, -239.81 305.84, -239.82 290.46 C-239.83 275.09, -239.85 254.39, -239.92 237.67 C-239.98 220.96, -240.07 216, -240.19 190.17 C-240.31 164.35, -240.59 112.73, -240.63 82.72 C-240.67 52.71, -240.62 29.84, -240.43 10.1 C-240.23 -9.65, -239.86 -26.58, -239.47 -35.75 C-239.07 -44.92, -238.87 -42.97, -238.05 -44.9 C-237.23 -46.83, -237.14 -47.11, -234.55 -47.33 C-231.96 -47.54, -228.42 -47.29, -222.51 -46.2 C-216.59 -45.1, -209.43 -42.74, -199.06 -40.76 C-188.7 -38.78, -174.86 -36.82, -160.31 -34.3 C-145.76 -31.78, -127.58 -28.47, -111.77 -25.66 C-95.95 -22.84, -80.32 -18.9, -65.42 -17.42 C-50.52 -15.94, -32.56 -16.87, -22.37 -16.77 C-12.19 -16.67, -8.02 -17.4, -4.31 -16.82 C-0.6 -16.24, -0.85 -16.07, -0.13 -13.27 C0.59 -10.46, -0.02 -2.21, 0 0" stroke="#E1E1E1" stroke-width="4" fill="none"></path></g></g><mask></mask><g stroke-linecap="round"><g transform="translate(226.6809586333184 404.3506270854931) rotate(0 -69.64330920902138 12.019806392365297)"><path d="M0 0 C3.97 0.09, 17.93 0.42, 23.83 0.53 C29.74 0.65, 32.59 0.45, 35.44 0.69 C38.29 0.92, 39.78 0.67, 40.92 1.97 C42.07 3.27, 42.08 5.83, 42.3 8.49 C42.52 11.16, 42.94 16.03, 42.24 17.94 C41.53 19.86, 41.32 19.12, 38.07 19.97 C34.81 20.81, 31.69 21.39, 22.71 23.01 C13.73 24.63, -0.9 27.34, -15.81 29.69 C-30.73 32.03, -50.55 35.07, -66.78 37.09 C-83.01 39.11, -97.89 40.24, -113.2 41.8 C-128.52 43.36, -148.87 45.11, -158.69 46.45 C-168.51 47.79, -168.76 47.95, -172.14 49.85 C-175.52 51.75, -177.49 57.4, -178.99 57.84 C-180.48 58.28, -180.72 56.23, -181.12 52.48 C-181.53 48.74, -181.33 44.48, -181.39 35.37 C-181.46 26.27, -181.49 7.11, -181.52 -2.17 C-181.56 -11.45, -181.74 -15.32, -181.59 -20.31 C-181.44 -25.29, -181.39 -29.85, -180.62 -32.1 C-179.85 -34.35, -178.64 -34.18, -176.97 -33.8 C-175.3 -33.42, -175.63 -31.19, -170.59 -29.8 C-165.55 -28.4, -160.75 -28.13, -146.75 -25.45 C-132.75 -22.77, -104.57 -17.15, -86.59 -13.71 C-68.6 -10.27, -53.26 -7.08, -38.83 -4.8 C-24.4 -2.51, -6.47 -0.8, 0 0 M0 0 C3.97 0.09, 17.93 0.42, 23.83 0.53 C29.74 0.65, 32.59 0.45, 35.44 0.69 C38.29 0.92, 39.78 0.67, 40.92 1.97 C42.07 3.27, 42.08 5.83, 42.3 8.49 C42.52 11.16, 42.94 16.03, 42.24 17.94 C41.53 19.86, 41.32 19.12, 38.07 19.97 C34.81 20.81, 31.69 21.39, 22.71 23.01 C13.73 24.63, -0.9 27.34, -15.81 29.69 C-30.73 32.03, -50.55 35.07, -66.78 37.09 C-83.01 39.11, -97.89 40.24, -113.2 41.8 C-128.52 43.36, -148.87 45.11, -158.69 46.45 C-168.51 47.79, -168.76 47.95, -172.14 49.85 C-175.52 51.75, -177.49 57.4, -178.99 57.84 C-180.48 58.28, -180.72 56.23, -181.12 52.48 C-181.53 48.74, -181.33 44.48, -181.39 35.37 C-181.46 26.27, -181.49 7.11, -181.52 -2.17 C-181.56 -11.45, -181.74 -15.32, -181.59 -20.31 C-181.44 -25.29, -181.39 -29.85, -180.62 -32.1 C-179.85 -34.35, -178.64 -34.18, -176.97 -33.8 C-175.3 -33.42, -175.63 -31.19, -170.59 -29.8 C-165.55 -28.4, -160.75 -28.13, -146.75 -25.45 C-132.75 -22.77, -104.57 -17.15, -86.59 -13.71 C-68.6 -10.27, -53.26 -7.08, -38.83 -4.8 C-24.4 -2.51, -6.47 -0.8, 0 0" stroke="#E1E1E1" stroke-width="4" fill="none"></path></g></g><mask></mask><g stroke-linecap="round"><g transform="translate(208.648197223743 409.4812907509871) rotate(0 -51.54933253160266 4.30076317644685)"><path d="M0 0 C4.88 0.54, 21.97 2.49, 29.31 3.21 C36.64 3.94, 40.71 4.15, 44.01 4.36 C47.3 4.58, 47.77 4.07, 49.06 4.52 C50.35 4.97, 51.47 6.22, 51.75 7.07 C52.03 7.91, 53.13 8.83, 50.75 9.61 C48.36 10.4, 47.48 10.12, 37.44 11.76 C27.39 13.41, 7.35 16.98, -9.52 19.48 C-26.38 21.98, -46.22 24.68, -63.75 26.75 C-81.28 28.81, -101.44 30.62, -114.69 31.87 C-127.95 33.12, -137.21 33.67, -143.29 34.24 C-149.37 34.81, -149.5 35.56, -151.18 35.3 C-152.86 35.05, -152.78 34.61, -153.37 32.71 C-153.95 30.81, -154.46 30.04, -154.7 23.88 C-154.95 17.73, -154.83 3.51, -154.85 -4.23 C-154.88 -11.98, -155.69 -18.85, -154.85 -22.59 C-154.01 -26.33, -152.24 -26.27, -149.79 -26.7 C-147.34 -27.13, -147.83 -26.54, -140.14 -25.15 C-132.45 -23.76, -117.14 -20.99, -103.66 -18.36 C-90.17 -15.73, -72.98 -11.97, -59.24 -9.38 C-45.51 -6.8, -31.12 -4.41, -21.25 -2.85 C-11.37 -1.29, -3.54 -0.47, 0 0 M0 0 C4.88 0.54, 21.97 2.49, 29.31 3.21 C36.64 3.94, 40.71 4.15, 44.01 4.36 C47.3 4.58, 47.77 4.07, 49.06 4.52 C50.35 4.97, 51.47 6.22, 51.75 7.07 C52.03 7.91, 53.13 8.83, 50.75 9.61 C48.36 10.4, 47.48 10.12, 37.44 11.76 C27.39 13.41, 7.35 16.98, -9.52 19.48 C-26.38 21.98, -46.22 24.68, -63.75 26.75 C-81.28 28.81, -101.44 30.62, -114.69 31.87 C-127.95 33.12, -137.21 33.67, -143.29 34.24 C-149.37 34.81, -149.5 35.56, -151.18 35.3 C-152.86 35.05, -152.78 34.61, -153.37 32.71 C-153.95 30.81, -154.46 30.04, -154.7 23.88 C-154.95 17.73, -154.83 3.51, -154.85 -4.23 C-154.88 -11.98, -155.69 -18.85, -154.85 -22.59 C-154.01 -26.33, -152.24 -26.27, -149.79 -26.7 C-147.34 -27.13, -147.83 -26.54, -140.14 -25.15 C-132.45 -23.76, -117.14 -20.99, -103.66 -18.36 C-90.17 -15.73, -72.98 -11.97, -59.24 -9.38 C-45.51 -6.8, -31.12 -4.41, -21.25 -2.85 C-11.37 -1.29, -3.54 -0.47, 0 0" stroke="#E1E1E1" stroke-width="4" fill="none"></path></g></g><mask></mask><g stroke-linecap="round"><g transform="translate(195.48437348212252 417.96101824186655) rotate(0 -65.84161237946498 -3.5781254442863855)"><path d="M0 0 C-5.62 0.78, -21.05 3.25, -33.71 4.7 C-46.36 6.15, -61.42 7.11, -75.93 8.69 C-90.44 10.27, -111.66 13.07, -120.76 14.17 C-129.87 15.27, -128.75 16.3, -130.55 15.28 C-132.35 14.26, -131.39 12.03, -131.57 8.05 C-131.75 4.07, -131.6 -3.53, -131.62 -8.61 C-131.64 -13.69, -133.12 -20.25, -131.68 -22.43 C-130.24 -24.62, -127.78 -22.65, -122.97 -21.74 C-118.16 -20.83, -114.5 -19.18, -102.81 -16.96 C-91.13 -14.73, -67.81 -10.91, -52.87 -8.39 C-37.93 -5.87, -21.98 -3.21, -13.17 -1.81 C-4.36 -0.41, -2.19 -0.3, 0 0 M0 0 C-5.62 0.78, -21.05 3.25, -33.71 4.7 C-46.36 6.15, -61.42 7.11, -75.93 8.69 C-90.44 10.27, -111.66 13.07, -120.76 14.17 C-129.87 15.27, -128.75 16.3, -130.55 15.28 C-132.35 14.26, -131.39 12.03, -131.57 8.05 C-131.75 4.07, -131.6 -3.53, -131.62 -8.61 C-131.64 -13.69, -133.12 -20.25, -131.68 -22.43 C-130.24 -24.62, -127.78 -22.65, -122.97 -21.74 C-118.16 -20.83, -114.5 -19.18, -102.81 -16.96 C-91.13 -14.73, -67.81 -10.91, -52.87 -8.39 C-37.93 -5.87, -21.98 -3.21, -13.17 -1.81 C-4.36 -0.41, -2.19 -0.3, 0 0" stroke="#E1E1E1" stroke-width="4" fill="none"></path></g></g><mask></mask><g stroke-linecap="round"><g transform="translate(113.48158486505884 364.8888915990859) rotate(0 -22.567073992374986 -14.474284757773688)"><path d="M0 0 C0.05 -1.68, 0.71 -6.71, 0.33 -10.06 C-0.06 -13.41, -1.03 -16.96, -2.32 -20.11 C-3.62 -23.25, -5.75 -27.89, -7.45 -28.95 C-9.15 -30.01, -9.26 -28.05, -12.54 -26.47 C-15.82 -24.89, -22.6 -21.69, -27.13 -19.48 C-31.67 -17.26, -36.7 -14.62, -39.75 -13.19 C-42.8 -11.75, -46.04 -11.88, -45.46 -10.86 C-44.87 -9.83, -40.42 -8.25, -36.24 -7.05 C-32.06 -5.85, -25.55 -4.77, -20.38 -3.66 C-15.21 -2.54, -8.61 -0.96, -5.21 -0.35 C-1.82 0.26, -0.87 -0.06, 0 0 M0 0 C0.05 -1.68, 0.71 -6.71, 0.33 -10.06 C-0.06 -13.41, -1.03 -16.96, -2.32 -20.11 C-3.62 -23.25, -5.75 -27.89, -7.45 -28.95 C-9.15 -30.01, -9.26 -28.05, -12.54 -26.47 C-15.82 -24.89, -22.6 -21.69, -27.13 -19.48 C-31.67 -17.26, -36.7 -14.62, -39.75 -13.19 C-42.8 -11.75, -46.04 -11.88, -45.46 -10.86 C-44.87 -9.83, -40.42 -8.25, -36.24 -7.05 C-32.06 -5.85, -25.55 -4.77, -20.38 -3.66 C-15.21 -2.54, -8.61 -0.96, -5.21 -0.35 C-1.82 0.26, -0.87 -0.06, 0 0" stroke="#E1E1E1" stroke-width="4" fill="none"></path></g></g><mask></mask><g stroke-linecap="round"><g transform="translate(47.013980016464075 359.4281444484375) rotate(0 142.74545392851002 -0.6158073554058063)"><path d="M0 0 C5.51 1.07, 20 4.08, 33.04 6.45 C46.08 8.81, 61.3 11.18, 78.24 14.21 C95.18 17.23, 118.43 21.82, 134.7 24.61 C150.97 27.4, 159.58 30.03, 175.86 30.96 C192.15 31.88, 217.05 31.52, 232.42 30.16 C247.78 28.8, 259.31 25.8, 268.06 22.78 C276.81 19.75, 282.02 15.77, 284.93 12.02 C287.83 8.27, 288.06 3.36, 285.49 0.27 C282.92 -2.83, 275.3 -4.4, 269.51 -6.54 C263.71 -8.69, 255.17 -11.68, 250.7 -12.6 C246.23 -13.52, 244.22 -13.33, 242.69 -12.07 C241.16 -10.82, 241.82 -7.15, 241.53 -5.07 C241.25 -3, 241.93 -1.11, 240.98 0.39 C240.03 1.9, 239.98 2.14, 235.83 3.97 C231.68 5.8, 224.96 9.13, 216.07 11.37 C207.18 13.61, 193.9 15.99, 182.48 17.41 C171.06 18.82, 156.06 19.71, 147.55 19.88 C139.04 20.05, 140.03 19.97, 131.44 18.41 C122.85 16.85, 104.81 12.85, 95.99 10.5 C87.17 8.15, 82.46 6.17, 78.53 4.32 C74.6 2.46, 73.47 2.49, 72.42 -0.62 C71.37 -3.73, 73.16 -10.07, 72.21 -14.35 C71.25 -18.63, 68 -23.53, 66.7 -26.29 C65.4 -29.05, 65.93 -29.91, 64.39 -30.9 C62.86 -31.88, 61.34 -33.55, 57.5 -32.19 C53.65 -30.82, 49.27 -26.72, 41.32 -22.72 C33.36 -18.71, 16.64 -11.93, 9.75 -8.14 C2.87 -4.36, 1.63 -1.36, 0 0 M0 0 C5.51 1.07, 20 4.08, 33.04 6.45 C46.08 8.81, 61.3 11.18, 78.24 14.21 C95.18 17.23, 118.43 21.82, 134.7 24.61 C150.97 27.4, 159.58 30.03, 175.86 30.96 C192.15 31.88, 217.05 31.52, 232.42 30.16 C247.78 28.8, 259.31 25.8, 268.06 22.78 C276.81 19.75, 282.02 15.77, 284.93 12.02 C287.83 8.27, 288.06 3.36, 285.49 0.27 C282.92 -2.83, 275.3 -4.4, 269.51 -6.54 C263.71 -8.69, 255.17 -11.68, 250.7 -12.6 C246.23 -13.52, 244.22 -13.33, 242.69 -12.07 C241.16 -10.82, 241.82 -7.15, 241.53 -5.07 C241.25 -3, 241.93 -1.11, 240.98 0.39 C240.03 1.9, 239.98 2.14, 235.83 3.97 C231.68 5.8, 224.96 9.13, 216.07 11.37 C207.18 13.61, 193.9 15.99, 182.48 17.41 C171.06 18.82, 156.06 19.71, 147.55 19.88 C139.04 20.05, 140.03 19.97, 131.44 18.41 C122.85 16.85, 104.81 12.85, 95.99 10.5 C87.17 8.15, 82.46 6.17, 78.53 4.32 C74.6 2.46, 73.47 2.49, 72.42 -0.62 C71.37 -3.73, 73.16 -10.07, 72.21 -14.35 C71.25 -18.63, 68 -23.53, 66.7 -26.29 C65.4 -29.05, 65.93 -29.91, 64.39 -30.9 C62.86 -31.88, 61.34 -33.55, 57.5 -32.19 C53.65 -30.82, 49.27 -26.72, 41.32 -22.72 C33.36 -18.71, 16.64 -11.93, 9.75 -8.14 C2.87 -4.36, 1.63 -1.36, 0 0" stroke="#E1E1E1" stroke-width="4" fill="none"></path></g></g><mask></mask><g stroke-linecap="round"><g transform="translate(158.17005562305633 324.51245534084273) rotate(0 44.14211386917425 15.132021625931387)"><path d="M0 0 C5.55 0.77, 20.73 4.25, 33.3 4.59 C45.87 4.93, 63.43 3.61, 75.43 2.04 C87.43 0.46, 98.46 -2.86, 105.3 -4.86 C112.14 -6.85, 114.02 -8.91, 116.46 -9.92 C118.91 -10.93, 118.97 -11.06, 119.98 -10.92 C120.99 -10.78, 122.17 -10.68, 122.5 -9.09 C122.83 -7.51, 122.95 -6.34, 121.97 -1.41 C120.99 3.51, 117.58 15.53, 116.6 20.46 C115.62 25.39, 117.26 26.32, 116.09 28.18 C114.91 30.04, 114.37 30.17, 109.57 31.63 C104.77 33.09, 96.67 35.29, 87.28 36.95 C77.88 38.61, 64.76 40.88, 53.2 41.6 C41.64 42.33, 29.89 42.94, 17.92 41.29 C5.94 39.65, -11.49 34.06, -18.64 31.71 C-25.78 29.36, -23.76 29.58, -24.96 27.17 C-26.17 24.77, -24.82 20.36, -25.86 17.27 C-26.9 14.18, -29.95 10.99, -31.19 8.63 C-32.44 6.27, -32.84 5.91, -33.34 3.12 C-33.84 0.33, -34.07 -5.72, -34.22 -8.13 C-34.37 -10.54, -34.88 -10.83, -34.22 -11.34 C-33.56 -11.85, -32.13 -11.75, -30.24 -11.19 C-28.35 -10.62, -25.85 -9.32, -22.89 -7.96 C-19.94 -6.6, -16.32 -4.37, -12.5 -3.05 C-8.69 -1.72, -2.08 -0.51, 0 0 M0 0 C5.55 0.77, 20.73 4.25, 33.3 4.59 C45.87 4.93, 63.43 3.61, 75.43 2.04 C87.43 0.46, 98.46 -2.86, 105.3 -4.86 C112.14 -6.85, 114.02 -8.91, 116.46 -9.92 C118.91 -10.93, 118.97 -11.06, 119.98 -10.92 C120.99 -10.78, 122.17 -10.68, 122.5 -9.09 C122.83 -7.51, 122.95 -6.34, 121.97 -1.41 C120.99 3.51, 117.58 15.53, 116.6 20.46 C115.62 25.39, 117.26 26.32, 116.09 28.18 C114.91 30.04, 114.37 30.17, 109.57 31.63 C104.77 33.09, 96.67 35.29, 87.28 36.95 C77.88 38.61, 64.76 40.88, 53.2 41.6 C41.64 42.33, 29.89 42.94, 17.92 41.29 C5.94 39.65, -11.49 34.06, -18.64 31.71 C-25.78 29.36, -23.76 29.58, -24.96 27.17 C-26.17 24.77, -24.82 20.36, -25.86 17.27 C-26.9 14.18, -29.95 10.99, -31.19 8.63 C-32.44 6.27, -32.84 5.91, -33.34 3.12 C-33.84 0.33, -34.07 -5.72, -34.22 -8.13 C-34.37 -10.54, -34.88 -10.83, -34.22 -11.34 C-33.56 -11.85, -32.13 -11.75, -30.24 -11.19 C-28.35 -10.62, -25.85 -9.32, -22.89 -7.96 C-19.94 -6.6, -16.32 -4.37, -12.5 -3.05 C-8.69 -1.72, -2.08 -0.51, 0 0" stroke="#E1E1E1" stroke-width="4" fill="none"></path></g></g><mask></mask><g stroke-linecap="round"><g transform="translate(168.52163103522292 318.66717844264247) rotate(0 35.461492136196114 20.00427426776365)"><path d="M0 0 C2.77 0.45, 8.92 2.2, 16.62 2.73 C24.31 3.25, 36.54 3.93, 46.15 3.14 C55.76 2.35, 64.78 0.4, 74.28 -2 C83.79 -4.41, 96.69 -8.98, 103.17 -11.3 C109.64 -13.63, 110.42 -15.3, 113.13 -15.95 C115.84 -16.61, 118.08 -16.55, 119.44 -15.22 C120.8 -13.89, 121.01 -11.24, 121.29 -7.98 C121.57 -4.72, 121.82 1.05, 121.14 4.33 C120.46 7.61, 118.11 8.8, 117.22 11.69 C116.33 14.58, 116.12 18.15, 115.81 21.65 C115.51 25.15, 115.85 30.02, 115.41 32.69 C114.97 35.37, 114.54 36.08, 113.18 37.7 C111.82 39.31, 110.86 40.84, 107.25 42.39 C103.64 43.95, 98.97 45.39, 91.51 47.02 C84.05 48.66, 73.26 50.72, 62.5 52.21 C51.74 53.7, 38.63 56.17, 26.95 55.96 C15.27 55.75, 1.84 52.86, -7.58 50.96 C-17.01 49.07, -23.9 46.78, -29.58 44.59 C-35.26 42.39, -39.26 40.12, -41.67 37.8 C-44.07 35.48, -43.43 33.57, -44.01 30.69 C-44.59 27.8, -44.48 22.78, -45.15 20.49 C-45.81 18.21, -47.14 18.92, -48.01 16.99 C-48.88 15.06, -49.99 12.3, -50.37 8.91 C-50.75 5.53, -50.39 0.73, -50.28 -3.33 C-50.17 -7.39, -51.18 -13.79, -49.7 -15.46 C-48.22 -17.14, -46.17 -15.26, -41.42 -13.36 C-36.66 -11.46, -26.61 -6.14, -21.17 -4.06 C-15.73 -1.98, -12.32 -1.55, -8.79 -0.87 C-5.26 -0.2, -1.47 -0.15, 0 0 M0 0 C2.77 0.45, 8.92 2.2, 16.62 2.73 C24.31 3.25, 36.54 3.93, 46.15 3.14 C55.76 2.35, 64.78 0.4, 74.28 -2 C83.79 -4.41, 96.69 -8.98, 103.17 -11.3 C109.64 -13.63, 110.42 -15.3, 113.13 -15.95 C115.84 -16.61, 118.08 -16.55, 119.44 -15.22 C120.8 -13.89, 121.01 -11.24, 121.29 -7.98 C121.57 -4.72, 121.82 1.05, 121.14 4.33 C120.46 7.61, 118.11 8.8, 117.22 11.69 C116.33 14.58, 116.12 18.15, 115.81 21.65 C115.51 25.15, 115.85 30.02, 115.41 32.69 C114.97 35.37, 114.54 36.08, 113.18 37.7 C111.82 39.31, 110.86 40.84, 107.25 42.39 C103.64 43.95, 98.97 45.39, 91.51 47.02 C84.05 48.66, 73.26 50.72, 62.5 52.21 C51.74 53.7, 38.63 56.17, 26.95 55.96 C15.27 55.75, 1.84 52.86, -7.58 50.96 C-17.01 49.07, -23.9 46.78, -29.58 44.59 C-35.26 42.39, -39.26 40.12, -41.67 37.8 C-44.07 35.48, -43.43 33.57, -44.01 30.69 C-44.59 27.8, -44.48 22.78, -45.15 20.49 C-45.81 18.21, -47.14 18.92, -48.01 16.99 C-48.88 15.06, -49.99 12.3, -50.37 8.91 C-50.75 5.53, -50.39 0.73, -50.28 -3.33 C-50.17 -7.39, -51.18 -13.79, -49.7 -15.46 C-48.22 -17.14, -46.17 -15.26, -41.42 -13.36 C-36.66 -11.46, -26.61 -6.14, -21.17 -4.06 C-15.73 -1.98, -12.32 -1.55, -8.79 -0.87 C-5.26 -0.2, -1.47 -0.15, 0 0" stroke="#E1E1E1" stroke-width="4" fill="none"></path></g></g><mask></mask><g stroke-linecap="round"><g transform="translate(148.6316449182887 248.10721668522092) rotate(0 55.21539675484678 1.1244942215316698)"><path d="M0 0 C-0.03 -3.78, -0.18 -16.85, -0.15 -22.67 C-0.13 -28.49, 0.09 -32.03, 0.14 -34.92 C0.19 -37.82, -0.35 -38.75, 0.14 -40.05 C0.64 -41.35, 1.93 -41.4, 3.13 -42.72 C4.33 -44.03, 6.45 -46.38, 7.35 -47.94 C8.25 -49.49, 8.3 -50.59, 8.51 -52.03 C8.72 -53.47, 8.09 -55.67, 8.6 -56.57 C9.11 -57.47, 10.18 -57.36, 11.59 -57.41 C12.99 -57.47, 14.31 -57.22, 17.02 -56.91 C19.72 -56.6, 22.47 -56.01, 27.83 -55.58 C33.2 -55.15, 41.95 -54.47, 49.2 -54.33 C56.45 -54.18, 65.55 -54.44, 71.32 -54.69 C77.09 -54.95, 80.52 -55.3, 83.82 -55.86 C87.13 -56.43, 88.7 -57.53, 91.13 -58.07 C93.56 -58.6, 96.79 -59.01, 98.41 -59.07 C100.02 -59.13, 100.38 -59.19, 100.83 -58.41 C101.27 -57.63, 100.93 -55.83, 101.09 -54.4 C101.25 -52.97, 101.31 -51.23, 101.8 -49.81 C102.28 -48.38, 102.87 -47.1, 104 -45.85 C105.13 -44.59, 107.72 -43.7, 108.59 -42.25 C109.45 -40.8, 108.88 -39.08, 109.2 -37.14 C109.52 -35.2, 110.29 -34.74, 110.49 -30.61 C110.68 -26.49, 110.35 -19.67, 110.38 -12.38 C110.42 -5.09, 110.66 4.06, 110.7 13.13 C110.74 22.21, 110.7 35.98, 110.61 42.08 C110.52 48.18, 111.27 47.95, 110.14 49.73 C109.02 51.51, 106.78 51.84, 103.87 52.77 C100.95 53.7, 97.66 54.36, 92.65 55.31 C87.65 56.26, 80.68 57.48, 73.84 58.49 C67 59.49, 58.95 61.24, 51.62 61.32 C44.3 61.4, 36.61 59.88, 29.91 58.97 C23.2 58.06, 16.33 56.84, 11.4 55.86 C6.47 54.88, 2.27 54.41, 0.32 53.08 C-1.62 51.75, -0.19 51.44, -0.27 47.86 C-0.35 44.28, -0.18 37.76, -0.16 31.58 C-0.13 25.4, -0.11 16.23, -0.12 10.8 C-0.12 5.36, -0.16 0.93, -0.17 -1.04 M0 0 C-0.03 -3.78, -0.18 -16.85, -0.15 -22.67 C-0.13 -28.49, 0.09 -32.03, 0.14 -34.92 C0.19 -37.82, -0.35 -38.75, 0.14 -40.05 C0.64 -41.35, 1.93 -41.4, 3.13 -42.72 C4.33 -44.03, 6.45 -46.38, 7.35 -47.94 C8.25 -49.49, 8.3 -50.59, 8.51 -52.03 C8.72 -53.47, 8.09 -55.67, 8.6 -56.57 C9.11 -57.47, 10.18 -57.36, 11.59 -57.41 C12.99 -57.47, 14.31 -57.22, 17.02 -56.91 C19.72 -56.6, 22.47 -56.01, 27.83 -55.58 C33.2 -55.15, 41.95 -54.47, 49.2 -54.33 C56.45 -54.18, 65.55 -54.44, 71.32 -54.69 C77.09 -54.95, 80.52 -55.3, 83.82 -55.86 C87.13 -56.43, 88.7 -57.53, 91.13 -58.07 C93.56 -58.6, 96.79 -59.01, 98.41 -59.07 C100.02 -59.13, 100.38 -59.19, 100.83 -58.41 C101.27 -57.63, 100.93 -55.83, 101.09 -54.4 C101.25 -52.97, 101.31 -51.23, 101.8 -49.81 C102.28 -48.38, 102.87 -47.1, 104 -45.85 C105.13 -44.59, 107.72 -43.7, 108.59 -42.25 C109.45 -40.8, 108.88 -39.08, 109.2 -37.14 C109.52 -35.2, 110.29 -34.74, 110.49 -30.61 C110.68 -26.49, 110.35 -19.67, 110.38 -12.38 C110.42 -5.09, 110.66 4.06, 110.7 13.13 C110.74 22.21, 110.7 35.98, 110.61 42.08 C110.52 48.18, 111.27 47.95, 110.14 49.73 C109.02 51.51, 106.78 51.84, 103.87 52.77 C100.95 53.7, 97.66 54.36, 92.65 55.31 C87.65 56.26, 80.68 57.48, 73.84 58.49 C67 59.49, 58.95 61.24, 51.62 61.32 C44.3 61.4, 36.61 59.88, 29.91 58.97 C23.2 58.06, 16.33 56.84, 11.4 55.86 C6.47 54.88, 2.27 54.41, 0.32 53.08 C-1.62 51.75, -0.19 51.44, -0.27 47.86 C-0.35 44.28, -0.18 37.76, -0.16 31.58 C-0.13 25.4, -0.11 16.23, -0.12 10.8 C-0.12 5.36, -0.16 0.93, -0.17 -1.04" stroke="#E1E1E1" stroke-width="4" fill="none"></path></g></g><mask></mask><g stroke-linecap="round"><g transform="translate(205.5838637479922 182.80292482679909) rotate(0 -2.8326579491469204 65.2951131751433)"><path d="M0 0 C-3.96 -0.03, -16.27 0.15, -23.74 -0.2 C-31.21 -0.55, -39.51 -1.58, -44.83 -2.12 C-50.15 -2.66, -53.52 -5.03, -55.66 -3.42 C-57.8 -1.82, -56.55 4.23, -57.67 7.52 C-58.79 10.81, -60.91 13.49, -62.36 16.32 C-63.8 19.15, -65.66 20.07, -66.34 24.51 C-67.02 28.95, -66.47 33.61, -66.43 42.95 C-66.39 52.29, -66.45 68.65, -66.12 80.54 C-65.78 92.43, -64.9 107.15, -64.43 114.31 C-63.96 121.47, -65 121.56, -63.3 123.51 C-61.59 125.46, -58.7 124.85, -54.2 126 C-49.7 127.15, -44.48 129.07, -36.29 130.4 C-28.11 131.74, -15.84 133.92, -5.08 134.01 C5.68 134.11, 18.49 132.72, 28.27 130.98 C38.05 129.24, 48.19 125.6, 53.61 123.59 C59.02 121.58, 59.65 123.03, 60.77 118.91 C61.88 114.79, 60.6 108.25, 60.32 98.88 C60.04 89.52, 59.31 74.75, 59.11 62.71 C58.9 50.67, 59.53 34.04, 59.08 26.65 C58.62 19.27, 57.56 20.54, 56.38 18.41 C55.2 16.29, 52.99 15.77, 52.02 13.92 C51.04 12.06, 50.78 9.28, 50.52 7.3 C50.26 5.31, 51.49 2.98, 50.44 2.01 C49.39 1.04, 49.49 1.7, 44.21 1.47 C38.93 1.24, 26.15 0.88, 18.78 0.64 C11.41 0.39, 3.13 0.11, 0 0 M0 0 C-3.96 -0.03, -16.27 0.15, -23.74 -0.2 C-31.21 -0.55, -39.51 -1.58, -44.83 -2.12 C-50.15 -2.66, -53.52 -5.03, -55.66 -3.42 C-57.8 -1.82, -56.55 4.23, -57.67 7.52 C-58.79 10.81, -60.91 13.49, -62.36 16.32 C-63.8 19.15, -65.66 20.07, -66.34 24.51 C-67.02 28.95, -66.47 33.61, -66.43 42.95 C-66.39 52.29, -66.45 68.65, -66.12 80.54 C-65.78 92.43, -64.9 107.15, -64.43 114.31 C-63.96 121.47, -65 121.56, -63.3 123.51 C-61.59 125.46, -58.7 124.85, -54.2 126 C-49.7 127.15, -44.48 129.07, -36.29 130.4 C-28.11 131.74, -15.84 133.92, -5.08 134.01 C5.68 134.11, 18.49 132.72, 28.27 130.98 C38.05 129.24, 48.19 125.6, 53.61 123.59 C59.02 121.58, 59.65 123.03, 60.77 118.91 C61.88 114.79, 60.6 108.25, 60.32 98.88 C60.04 89.52, 59.31 74.75, 59.11 62.71 C58.9 50.67, 59.53 34.04, 59.08 26.65 C58.62 19.27, 57.56 20.54, 56.38 18.41 C55.2 16.29, 52.99 15.77, 52.02 13.92 C51.04 12.06, 50.78 9.28, 50.52 7.3 C50.26 5.31, 51.49 2.98, 50.44 2.01 C49.39 1.04, 49.49 1.7, 44.21 1.47 C38.93 1.24, 26.15 0.88, 18.78 0.64 C11.41 0.39, 3.13 0.11, 0 0" stroke="#E1E1E1" stroke-width="4" fill="none"></path></g></g><mask></mask><g stroke-linecap="round"><g transform="translate(284.1500564111682 210.54639304351633) rotate(0 -9.496392815601993 27.352713480663937)"><path d="M0 0 C0 -3.68, -0.03 -16.43, -0.02 -22.09 C-0.02 -27.75, 1.04 -31.94, 0.03 -33.96 C-0.99 -35.99, -3.4 -34.74, -6.11 -34.23 C-8.83 -33.71, -13.95 -31.79, -16.26 -30.87 C-18.57 -29.94, -19.33 -30.37, -19.97 -28.66 C-20.6 -26.95, -20.59 -23.07, -20.06 -20.58 C-19.54 -18.09, -17.86 -15.98, -16.83 -13.73 C-15.8 -11.48, -14.54 -10.05, -13.88 -7.05 C-13.23 -4.05, -13.06 -2.62, -12.91 4.25 C-12.75 11.11, -13.01 22.71, -12.98 34.14 C-12.94 45.57, -12.82 63.97, -12.69 72.82 C-12.55 81.67, -13.39 84.58, -12.18 87.26 C-10.97 89.95, -7.37 89.15, -5.43 88.93 C-3.48 88.71, -1.58 87.56, -0.5 85.93 C0.59 84.3, 0.81 82.94, 1.07 79.16 C1.33 75.38, 1.17 71.43, 1.07 63.24 C0.97 55.06, 0.64 40.56, 0.46 30.02 C0.29 19.48, 0.08 5, 0 0 M0 0 C0 -3.68, -0.03 -16.43, -0.02 -22.09 C-0.02 -27.75, 1.04 -31.94, 0.03 -33.96 C-0.99 -35.99, -3.4 -34.74, -6.11 -34.23 C-8.83 -33.71, -13.95 -31.79, -16.26 -30.87 C-18.57 -29.94, -19.33 -30.37, -19.97 -28.66 C-20.6 -26.95, -20.59 -23.07, -20.06 -20.58 C-19.54 -18.09, -17.86 -15.98, -16.83 -13.73 C-15.8 -11.48, -14.54 -10.05, -13.88 -7.05 C-13.23 -4.05, -13.06 -2.62, -12.91 4.25 C-12.75 11.11, -13.01 22.71, -12.98 34.14 C-12.94 45.57, -12.82 63.97, -12.69 72.82 C-12.55 81.67, -13.39 84.58, -12.18 87.26 C-10.97 89.95, -7.37 89.15, -5.43 88.93 C-3.48 88.71, -1.58 87.56, -0.5 85.93 C0.59 84.3, 0.81 82.94, 1.07 79.16 C1.33 75.38, 1.17 71.43, 1.07 63.24 C0.97 55.06, 0.64 40.56, 0.46 30.02 C0.29 19.48, 0.08 5, 0 0" stroke="#E1E1E1" stroke-width="4" fill="none"></path></g></g><mask></mask><g stroke-linecap="round"><g transform="translate(123.38963669568375 223.5537211100169) rotate(0 8.425106433398156 13.703077700169878)"><path d="M0 0 C-0.01 -6.17, -0.1 -29.2, -0.07 -37.01 C-0.05 -44.81, -1.08 -45.42, 0.17 -46.83 C1.42 -48.24, 4.3 -46.33, 7.43 -45.46 C10.56 -44.59, 16.88 -43.6, 18.94 -41.61 C21.01 -39.63, 20.17 -36.09, 19.82 -33.55 C19.47 -31.02, 18.25 -28.41, 16.86 -26.4 C15.46 -24.39, 12.61 -23.71, 11.44 -21.51 C10.26 -19.32, 10.15 -19.18, 9.81 -13.22 C9.47 -7.26, 9.48 4.3, 9.41 14.22 C9.34 24.15, 9.41 37.32, 9.41 46.33 C9.41 55.34, 9.57 63.62, 9.41 68.27 C9.25 72.92, 9.77 73.43, 8.46 74.24 C7.15 75.04, 3.47 73.92, 1.56 73.09 C-0.34 72.27, -2.24 71.94, -2.97 69.29 C-3.7 66.63, -2.97 65.75, -2.83 57.16 C-2.7 48.58, -2.64 27.32, -2.17 17.8 C-1.69 8.27, -0.36 2.97, 0 0 M0 0 C-0.01 -6.17, -0.1 -29.2, -0.07 -37.01 C-0.05 -44.81, -1.08 -45.42, 0.17 -46.83 C1.42 -48.24, 4.3 -46.33, 7.43 -45.46 C10.56 -44.59, 16.88 -43.6, 18.94 -41.61 C21.01 -39.63, 20.17 -36.09, 19.82 -33.55 C19.47 -31.02, 18.25 -28.41, 16.86 -26.4 C15.46 -24.39, 12.61 -23.71, 11.44 -21.51 C10.26 -19.32, 10.15 -19.18, 9.81 -13.22 C9.47 -7.26, 9.48 4.3, 9.41 14.22 C9.34 24.15, 9.41 37.32, 9.41 46.33 C9.41 55.34, 9.57 63.62, 9.41 68.27 C9.25 72.92, 9.77 73.43, 8.46 74.24 C7.15 75.04, 3.47 73.92, 1.56 73.09 C-0.34 72.27, -2.24 71.94, -2.97 69.29 C-3.7 66.63, -2.97 65.75, -2.83 57.16 C-2.7 48.58, -2.64 27.32, -2.17 17.8 C-1.69 8.27, -0.36 2.97, 0 0" stroke="#E1E1E1" stroke-width="4" fill="none"></path></g></g><mask></mask><g stroke-linecap="round"><g transform="translate(151.316506182326 150.1009041351374) rotate(0 52.53504052497797 8.082544927442072)"><path d="M0 0 C5.62 0.68, 21.07 3.42, 33.72 4.07 C46.36 4.72, 63.36 4.82, 75.86 3.9 C88.35 2.97, 100.46 0.52, 108.69 -1.45 C116.92 -3.43, 122.07 -7.66, 125.25 -7.94 C128.44 -8.22, 127.45 -5.92, 127.8 -3.12 C128.16 -0.33, 128.21 6.13, 127.39 8.84 C126.56 11.55, 125.82 11.66, 122.85 13.13 C119.88 14.61, 116.6 16.18, 109.56 17.71 C102.52 19.24, 91.19 21.25, 80.59 22.32 C70 23.39, 58.66 24.42, 46.01 24.1 C33.36 23.79, 14.74 21.88, 4.7 20.42 C-5.34 18.97, -10.14 16.62, -14.23 15.39 C-18.33 14.15, -18.45 14.19, -19.87 13.01 C-21.29 11.82, -22.29 10.35, -22.73 8.28 C-23.18 6.2, -22.7 2.75, -22.51 0.55 C-22.33 -1.65, -22.62 -4.21, -21.61 -4.93 C-20.61 -5.66, -18.68 -4.43, -16.46 -3.82 C-14.23 -3.2, -11.02 -1.89, -8.27 -1.26 C-5.53 -0.62, -1.38 -0.21, 0 0 M0 0 C5.62 0.68, 21.07 3.42, 33.72 4.07 C46.36 4.72, 63.36 4.82, 75.86 3.9 C88.35 2.97, 100.46 0.52, 108.69 -1.45 C116.92 -3.43, 122.07 -7.66, 125.25 -7.94 C128.44 -8.22, 127.45 -5.92, 127.8 -3.12 C128.16 -0.33, 128.21 6.13, 127.39 8.84 C126.56 11.55, 125.82 11.66, 122.85 13.13 C119.88 14.61, 116.6 16.18, 109.56 17.71 C102.52 19.24, 91.19 21.25, 80.59 22.32 C70 23.39, 58.66 24.42, 46.01 24.1 C33.36 23.79, 14.74 21.88, 4.7 20.42 C-5.34 18.97, -10.14 16.62, -14.23 15.39 C-18.33 14.15, -18.45 14.19, -19.87 13.01 C-21.29 11.82, -22.29 10.35, -22.73 8.28 C-23.18 6.2, -22.7 2.75, -22.51 0.55 C-22.33 -1.65, -22.62 -4.21, -21.61 -4.93 C-20.61 -5.66, -18.68 -4.43, -16.46 -3.82 C-14.23 -3.2, -11.02 -1.89, -8.27 -1.26 C-5.53 -0.62, -1.38 -0.21, 0 0" stroke="#E1E1E1" stroke-width="4" fill="none"></path></g></g><mask></mask><g stroke-linecap="round"><g transform="translate(161.48605424738076 145.77428678648346) rotate(0 40.61101650209807 10.540626743224209)"><path d="M0 0 C5.93 0.51, 24.94 2.63, 35.6 3.09 C46.27 3.55, 54.87 3.47, 63.98 2.74 C73.09 2.01, 82.04 0.77, 90.29 -1.29 C98.53 -3.35, 108.01 -7.72, 113.47 -9.64 C118.93 -11.55, 121.4 -13.64, 123.04 -12.81 C124.68 -11.98, 123.21 -8.42, 123.32 -4.66 C123.43 -0.9, 123.79 5.67, 123.72 9.75 C123.64 13.83, 123.87 17.41, 122.87 19.81 C121.87 22.2, 121.86 22.61, 117.72 24.12 C113.57 25.63, 105.17 27.45, 98.01 28.86 C90.85 30.27, 84.9 31.75, 74.75 32.59 C64.6 33.43, 48.41 33.83, 37.1 33.89 C25.79 33.95, 17.17 34.1, 6.9 32.96 C-3.37 31.81, -16.92 28.92, -24.51 27.03 C-32.1 25.14, -35.62 23.46, -38.62 21.59 C-41.61 19.72, -41.92 19.14, -42.49 15.81 C-43.07 12.47, -42.21 5.53, -42.06 1.59 C-41.91 -2.35, -43.01 -6, -41.59 -7.84 C-40.17 -9.67, -37.07 -9.82, -33.53 -9.41 C-30 -9, -25.97 -6.95, -20.39 -5.39 C-14.8 -3.82, -3.4 -0.9, 0 0 M0 0 C5.93 0.51, 24.94 2.63, 35.6 3.09 C46.27 3.55, 54.87 3.47, 63.98 2.74 C73.09 2.01, 82.04 0.77, 90.29 -1.29 C98.53 -3.35, 108.01 -7.72, 113.47 -9.64 C118.93 -11.55, 121.4 -13.64, 123.04 -12.81 C124.68 -11.98, 123.21 -8.42, 123.32 -4.66 C123.43 -0.9, 123.79 5.67, 123.72 9.75 C123.64 13.83, 123.87 17.41, 122.87 19.81 C121.87 22.2, 121.86 22.61, 117.72 24.12 C113.57 25.63, 105.17 27.45, 98.01 28.86 C90.85 30.27, 84.9 31.75, 74.75 32.59 C64.6 33.43, 48.41 33.83, 37.1 33.89 C25.79 33.95, 17.17 34.1, 6.9 32.96 C-3.37 31.81, -16.92 28.92, -24.51 27.03 C-32.1 25.14, -35.62 23.46, -38.62 21.59 C-41.61 19.72, -41.92 19.14, -42.49 15.81 C-43.07 12.47, -42.21 5.53, -42.06 1.59 C-41.91 -2.35, -43.01 -6, -41.59 -7.84 C-40.17 -9.67, -37.07 -9.82, -33.53 -9.41 C-30 -9, -25.97 -6.95, -20.39 -5.39 C-14.8 -3.82, -3.4 -0.9, 0 0" stroke="#E1E1E1" stroke-width="4" fill="none"></path></g></g><mask></mask><g stroke-linecap="round"><g transform="translate(158.13561113712467 96.77703388583973) rotate(0 45.21906136968195 17.44509025375811)"><path d="M0 0 C3.58 0.85, 12.83 4.14, 21.49 5.07 C30.15 6, 42.48 6.04, 51.95 5.59 C61.43 5.13, 70.52 3.92, 78.33 2.32 C86.15 0.73, 94.53 -3.88, 98.84 -3.97 C103.16 -4.05, 101.56 -0.75, 104.23 1.82 C106.91 4.39, 112.03 8.61, 114.87 11.47 C117.71 14.34, 120.52 16.67, 121.29 19 C122.06 21.32, 121.95 23.67, 119.5 25.4 C117.06 27.13, 113.78 27.33, 106.65 29.38 C99.51 31.43, 87.16 36.13, 76.7 37.71 C66.24 39.29, 53.87 38.98, 43.9 38.86 C33.93 38.73, 25.43 37.91, 16.89 36.97 C8.35 36.04, -0.17 34.91, -7.32 33.24 C-14.47 31.57, -22.1 29.01, -26.02 26.96 C-29.94 24.91, -30.5 23.48, -30.85 20.94 C-31.21 18.4, -30.41 15, -28.17 11.72 C-25.92 8.43, -20.52 3.82, -17.38 1.23 C-14.24 -1.36, -11.58 -3.18, -9.31 -3.82 C-7.04 -4.46, -5.32 -3.24, -3.77 -2.61 C-2.22 -1.97, -0.63 -0.43, 0 0 M0 0 C3.58 0.85, 12.83 4.14, 21.49 5.07 C30.15 6, 42.48 6.04, 51.95 5.59 C61.43 5.13, 70.52 3.92, 78.33 2.32 C86.15 0.73, 94.53 -3.88, 98.84 -3.97 C103.16 -4.05, 101.56 -0.75, 104.23 1.82 C106.91 4.39, 112.03 8.61, 114.87 11.47 C117.71 14.34, 120.52 16.67, 121.29 19 C122.06 21.32, 121.95 23.67, 119.5 25.4 C117.06 27.13, 113.78 27.33, 106.65 29.38 C99.51 31.43, 87.16 36.13, 76.7 37.71 C66.24 39.29, 53.87 38.98, 43.9 38.86 C33.93 38.73, 25.43 37.91, 16.89 36.97 C8.35 36.04, -0.17 34.91, -7.32 33.24 C-14.47 31.57, -22.1 29.01, -26.02 26.96 C-29.94 24.91, -30.5 23.48, -30.85 20.94 C-31.21 18.4, -30.41 15, -28.17 11.72 C-25.92 8.43, -20.52 3.82, -17.38 1.23 C-14.24 -1.36, -11.58 -3.18, -9.31 -3.82 C-7.04 -4.46, -5.32 -3.24, -3.77 -2.61 C-2.22 -1.97, -0.63 -0.43, 0 0" stroke="#E1E1E1" stroke-width="4" fill="none"></path></g></g><mask></mask><g stroke-linecap="round"><g transform="translate(173.90627373113654 91.05646931028298) rotate(0 27.76824783609591 22.90024495387128)"><path d="M0 0 C5.16 0.6, 21.86 3.36, 30.94 3.6 C40.02 3.83, 46.66 2.66, 54.48 1.41 C62.3 0.15, 72.65 -2.91, 77.86 -3.95 C83.07 -4.98, 83.33 -5.76, 85.74 -4.78 C88.15 -3.8, 89.58 -0.84, 92.3 1.92 C95.03 4.69, 98.92 8.49, 102.09 11.82 C105.26 15.15, 109.83 18.69, 111.33 21.9 C112.83 25.11, 111.88 28.76, 111.09 31.09 C110.3 33.43, 110.19 33.79, 106.58 35.91 C102.97 38.02, 97.54 41.23, 89.43 43.77 C81.32 46.31, 71.48 49.86, 57.92 51.13 C44.36 52.4, 22.95 52.79, 8.06 51.39 C-6.83 49.98, -21.29 45.12, -31.42 42.69 C-41.55 40.27, -48.66 39.82, -52.72 36.83 C-56.79 33.84, -56.81 28.94, -55.79 24.75 C-54.78 20.56, -51.08 16.73, -46.63 11.68 C-42.19 6.62, -33.67 -2.85, -29.12 -5.59 C-24.57 -8.32, -24.19 -5.66, -19.33 -4.73 C-14.48 -3.8, -3.22 -0.79, 0 0 M0 0 C5.16 0.6, 21.86 3.36, 30.94 3.6 C40.02 3.83, 46.66 2.66, 54.48 1.41 C62.3 0.15, 72.65 -2.91, 77.86 -3.95 C83.07 -4.98, 83.33 -5.76, 85.74 -4.78 C88.15 -3.8, 89.58 -0.84, 92.3 1.92 C95.03 4.69, 98.92 8.49, 102.09 11.82 C105.26 15.15, 109.83 18.69, 111.33 21.9 C112.83 25.11, 111.88 28.76, 111.09 31.09 C110.3 33.43, 110.19 33.79, 106.58 35.91 C102.97 38.02, 97.54 41.23, 89.43 43.77 C81.32 46.31, 71.48 49.86, 57.92 51.13 C44.36 52.4, 22.95 52.79, 8.06 51.39 C-6.83 49.98, -21.29 45.12, -31.42 42.69 C-41.55 40.27, -48.66 39.82, -52.72 36.83 C-56.79 33.84, -56.81 28.94, -55.79 24.75 C-54.78 20.56, -51.08 16.73, -46.63 11.68 C-42.19 6.62, -33.67 -2.85, -29.12 -5.59 C-24.57 -8.32, -24.19 -5.66, -19.33 -4.73 C-14.48 -3.8, -3.22 -0.79, 0 0" stroke="#E1E1E1" stroke-width="4" fill="none"></path></g></g><mask></mask><g stroke-linecap="round"><g transform="translate(212.0644419013799 20.657489386538032) rotate(0 -9.813672838162816 3.900732325101245)"><path d="M0 0 C-2.79 -0.1, -11.72 -0.88, -16.74 -0.58 C-21.76 -0.27, -26.31 1.16, -30.12 1.85 C-33.93 2.53, -37.2 2.75, -39.6 3.54 C-41.99 4.32, -44.33 5.76, -44.48 6.57 C-44.64 7.38, -44.49 8.08, -40.51 8.38 C-36.54 8.67, -28.2 8.37, -20.63 8.33 C-13.06 8.3, -2.68 8.19, 4.9 8.18 C12.48 8.18, 21.79 9.13, 24.86 8.32 C27.92 7.51, 25.34 4.35, 23.31 3.31 C21.29 2.28, 16.61 2.63, 12.73 2.08 C8.84 1.53, 2.12 0.35, 0 0 M0 0 C-2.79 -0.1, -11.72 -0.88, -16.74 -0.58 C-21.76 -0.27, -26.31 1.16, -30.12 1.85 C-33.93 2.53, -37.2 2.75, -39.6 3.54 C-41.99 4.32, -44.33 5.76, -44.48 6.57 C-44.64 7.38, -44.49 8.08, -40.51 8.38 C-36.54 8.67, -28.2 8.37, -20.63 8.33 C-13.06 8.3, -2.68 8.19, 4.9 8.18 C12.48 8.18, 21.79 9.13, 24.86 8.32 C27.92 7.51, 25.34 4.35, 23.31 3.31 C21.29 2.28, 16.61 2.63, 12.73 2.08 C8.84 1.53, 2.12 0.35, 0 0" stroke="#E1E1E1" stroke-width="4" fill="none"></path></g></g><mask></mask><g stroke-linecap="round"><g transform="translate(201.42714951570724 14.479047602097012) rotate(0 -1.2020129226948058 10.68086650622378)"><path d="M0 0 C3.39 0.17, 13.95 0.24, 20.33 1.01 C26.71 1.78, 33.75 3.01, 38.28 4.62 C42.81 6.22, 45.95 8.83, 47.53 10.63 C49.11 12.42, 49.29 13.78, 47.75 15.37 C46.21 16.97, 43.37 19.19, 38.28 20.19 C33.18 21.18, 24.93 21.2, 17.18 21.36 C9.43 21.52, 0.6 21.24, -8.23 21.13 C-17.07 21.02, -29.36 21, -35.85 20.72 C-42.34 20.43, -44.81 20.64, -47.2 19.4 C-49.58 18.17, -51.47 15.63, -50.16 13.32 C-48.84 11.02, -44.58 7.55, -39.32 5.59 C-34.07 3.63, -25.19 2.48, -18.64 1.55 C-12.09 0.62, -3.11 0.26, 0 0 M0 0 C3.39 0.17, 13.95 0.24, 20.33 1.01 C26.71 1.78, 33.75 3.01, 38.28 4.62 C42.81 6.22, 45.95 8.83, 47.53 10.63 C49.11 12.42, 49.29 13.78, 47.75 15.37 C46.21 16.97, 43.37 19.19, 38.28 20.19 C33.18 21.18, 24.93 21.2, 17.18 21.36 C9.43 21.52, 0.6 21.24, -8.23 21.13 C-17.07 21.02, -29.36 21, -35.85 20.72 C-42.34 20.43, -44.81 20.64, -47.2 19.4 C-49.58 18.17, -51.47 15.63, -50.16 13.32 C-48.84 11.02, -44.58 7.55, -39.32 5.59 C-34.07 3.63, -25.19 2.48, -18.64 1.55 C-12.09 0.62, -3.11 0.26, 0 0" stroke="#E1E1E1" stroke-width="4" fill="none"></path></g></g><mask></mask><g stroke-linecap="round"><g transform="translate(305.6420392497319 912.0320544704676) rotate(0 4.885185491531516 -8.145631668988017)"><path d="M0 0 C2.56 -1.6, 10.99 -5.67, 15.35 -9.57 C19.71 -13.48, 26.25 -21.96, 26.15 -23.42 C26.05 -24.87, 18.96 -19.87, 14.75 -18.3 C10.54 -16.74, 5.98 -14.6, 0.88 -14.03 C-4.22 -13.45, -12.99 -16.07, -15.87 -14.85 C-18.74 -13.63, -16.32 -9.55, -16.38 -6.73 C-16.44 -3.91, -16.24 -0.22, -16.22 2.09 C-16.19 4.4, -17.6 6.78, -16.21 7.13 C-14.82 7.47, -10.57 5.32, -7.87 4.13 C-5.17 2.94, -1.31 0.69, 0 0 M0 0 C2.56 -1.6, 10.99 -5.67, 15.35 -9.57 C19.71 -13.48, 26.25 -21.96, 26.15 -23.42 C26.05 -24.87, 18.96 -19.87, 14.75 -18.3 C10.54 -16.74, 5.98 -14.6, 0.88 -14.03 C-4.22 -13.45, -12.99 -16.07, -15.87 -14.85 C-18.74 -13.63, -16.32 -9.55, -16.38 -6.73 C-16.44 -3.91, -16.24 -0.22, -16.22 2.09 C-16.19 4.4, -17.6 6.78, -16.21 7.13 C-14.82 7.47, -10.57 5.32, -7.87 4.13 C-5.17 2.94, -1.31 0.69, 0 0" stroke="#E1E1E1" stroke-width="4" fill="none"></path></g></g><mask></mask><g stroke-linecap="round"><g transform="translate(293.81193835179454 893.1682772017298) rotate(0 15.903698616068226 10.47154888804954)"><path d="M0 0 C3 -0.57, 12.49 -1.9, 18.02 -3.42 C23.55 -4.94, 29.16 -7.19, 33.18 -9.11 C37.2 -11.03, 40.24 -15.14, 42.12 -14.93 C44.01 -14.73, 44.2 -10.77, 44.51 -7.87 C44.81 -4.98, 45.25 -0.44, 43.94 2.44 C42.63 5.33, 40.69 5.99, 36.65 9.44 C32.61 12.9, 26.19 19.04, 19.69 23.18 C13.19 27.31, 2.69 32.13, -2.36 34.25 C-7.41 36.37, -8.9 36.94, -10.62 35.88 C-12.34 34.82, -12.5 31.84, -12.7 27.89 C-12.9 23.95, -12.07 16.66, -11.83 12.21 C-11.59 7.77, -12.33 3.36, -11.27 1.21 C-10.21 -0.93, -7.33 -0.46, -5.45 -0.66 C-3.58 -0.86, -0.91 -0.11, 0 0 M0 0 C3 -0.57, 12.49 -1.9, 18.02 -3.42 C23.55 -4.94, 29.16 -7.19, 33.18 -9.11 C37.2 -11.03, 40.24 -15.14, 42.12 -14.93 C44.01 -14.73, 44.2 -10.77, 44.51 -7.87 C44.81 -4.98, 45.25 -0.44, 43.94 2.44 C42.63 5.33, 40.69 5.99, 36.65 9.44 C32.61 12.9, 26.19 19.04, 19.69 23.18 C13.19 27.31, 2.69 32.13, -2.36 34.25 C-7.41 36.37, -8.9 36.94, -10.62 35.88 C-12.34 34.82, -12.5 31.84, -12.7 27.89 C-12.9 23.95, -12.07 16.66, -11.83 12.21 C-11.59 7.77, -12.33 3.36, -11.27 1.21 C-10.21 -0.93, -7.33 -0.46, -5.45 -0.66 C-3.58 -0.86, -0.91 -0.11, 0 0" stroke="#E1E1E1" stroke-width="4" fill="none"></path></g></g><mask></mask><g stroke-linecap="round"><g transform="translate(240.3914721287409 893.3628591921291) rotate(0 -83.7831914265519 -29.461196597054652)"><path d="M0 0 C3.21 0.83, 14.54 4.21, 19.25 4.99 C23.96 5.76, 26.76 3.46, 28.26 4.66 C29.76 5.86, 28.22 9.22, 28.23 12.19 C28.24 15.16, 28.39 19.43, 28.34 22.49 C28.3 25.54, 28.88 28.94, 27.96 30.52 C27.03 32.1, 26.73 31.48, 22.79 31.98 C18.85 32.49, 11.67 34.05, 4.33 33.55 C-3.02 33.05, -10.39 31.4, -21.28 28.99 C-32.17 26.58, -48.3 22.76, -61.01 19.1 C-73.71 15.44, -84.61 11.51, -97.51 7.02 C-110.4 2.54, -124.65 -3.28, -138.38 -7.79 C-152.1 -12.3, -170.43 -17.08, -179.87 -20.04 C-189.32 -23, -192.37 -23.07, -195.04 -25.54 C-197.71 -28.02, -195.88 -27.89, -195.91 -34.9 C-195.94 -41.9, -195.38 -57.98, -195.22 -67.58 C-195.06 -77.17, -196.55 -89.03, -194.96 -92.47 C-193.36 -95.92, -192.28 -91.49, -185.64 -88.25 C-179 -85.02, -171.13 -81.14, -155.1 -73.09 C-139.06 -65.04, -111.6 -50.62, -89.43 -39.96 C-67.25 -29.31, -36.98 -15.8, -22.07 -9.14 C-7.17 -2.48, -3.68 -1.52, 0 0 M0 0 C3.21 0.83, 14.54 4.21, 19.25 4.99 C23.96 5.76, 26.76 3.46, 28.26 4.66 C29.76 5.86, 28.22 9.22, 28.23 12.19 C28.24 15.16, 28.39 19.43, 28.34 22.49 C28.3 25.54, 28.88 28.94, 27.96 30.52 C27.03 32.1, 26.73 31.48, 22.79 31.98 C18.85 32.49, 11.67 34.05, 4.33 33.55 C-3.02 33.05, -10.39 31.4, -21.28 28.99 C-32.17 26.58, -48.3 22.76, -61.01 19.1 C-73.71 15.44, -84.61 11.51, -97.51 7.02 C-110.4 2.54, -124.65 -3.28, -138.38 -7.79 C-152.1 -12.3, -170.43 -17.08, -179.87 -20.04 C-189.32 -23, -192.37 -23.07, -195.04 -25.54 C-197.71 -28.02, -195.88 -27.89, -195.91 -34.9 C-195.94 -41.9, -195.38 -57.98, -195.22 -67.58 C-195.06 -77.17, -196.55 -89.03, -194.96 -92.47 C-193.36 -95.92, -192.28 -91.49, -185.64 -88.25 C-179 -85.02, -171.13 -81.14, -155.1 -73.09 C-139.06 -65.04, -111.6 -50.62, -89.43 -39.96 C-67.25 -29.31, -36.98 -15.8, -22.07 -9.14 C-7.17 -2.48, -3.68 -1.52, 0 0" stroke="#E1E1E1" stroke-width="4" fill="none"></path></g></g><mask></mask><g stroke-linecap="round"><g transform="translate(241.57811325826097 901.7601569961276) rotate(0 -85.29878398786963 -33.98945978912798)"><path d="M0 0 C2.74 0.93, 13.41 3.51, 16.46 5.59 C19.51 7.68, 18.21 10.52, 18.3 12.5 C18.39 14.49, 19.36 16.61, 17 17.52 C14.65 18.42, 8.63 18.16, 4.16 17.95 C-0.31 17.73, -3.92 17.18, -9.82 16.2 C-15.72 15.23, -20.07 14.8, -31.22 12.11 C-42.37 9.42, -60.8 5.25, -76.74 0.08 C-92.68 -5.09, -109.6 -12.7, -126.87 -18.93 C-144.14 -25.16, -170.3 -33.95, -180.37 -37.3 C-190.44 -40.66, -185.85 -37.28, -187.27 -39.06 C-188.7 -40.83, -188.71 -44.04, -188.9 -47.95 C-189.09 -51.87, -188.47 -57.4, -188.4 -62.55 C-188.34 -67.71, -188.66 -74.98, -188.5 -78.87 C-188.33 -82.75, -188.62 -84.69, -187.41 -85.87 C-186.21 -87.04, -183.88 -86.78, -181.25 -85.92 C-178.63 -85.07, -179.72 -84.8, -171.66 -80.72 C-163.59 -76.63, -151.41 -70.43, -132.87 -61.41 C-114.33 -52.39, -82.56 -36.84, -60.41 -26.6 C-38.26 -16.37, -10.07 -4.43, 0 0 M0 0 C2.74 0.93, 13.41 3.51, 16.46 5.59 C19.51 7.68, 18.21 10.52, 18.3 12.5 C18.39 14.49, 19.36 16.61, 17 17.52 C14.65 18.42, 8.63 18.16, 4.16 17.95 C-0.31 17.73, -3.92 17.18, -9.82 16.2 C-15.72 15.23, -20.07 14.8, -31.22 12.11 C-42.37 9.42, -60.8 5.25, -76.74 0.08 C-92.68 -5.09, -109.6 -12.7, -126.87 -18.93 C-144.14 -25.16, -170.3 -33.95, -180.37 -37.3 C-190.44 -40.66, -185.85 -37.28, -187.27 -39.06 C-188.7 -40.83, -188.71 -44.04, -188.9 -47.95 C-189.09 -51.87, -188.47 -57.4, -188.4 -62.55 C-188.34 -67.71, -188.66 -74.98, -188.5 -78.87 C-188.33 -82.75, -188.62 -84.69, -187.41 -85.87 C-186.21 -87.04, -183.88 -86.78, -181.25 -85.92 C-178.63 -85.07, -179.72 -84.8, -171.66 -80.72 C-163.59 -76.63, -151.41 -70.43, -132.87 -61.41 C-114.33 -52.39, -82.56 -36.84, -60.41 -26.6 C-38.26 -16.37, -10.07 -4.43, 0 0" stroke="#E1E1E1" stroke-width="4" fill="none"></path></g></g><mask></mask><g stroke-linecap="round"><g transform="translate(104.60306831856212 849.949184014391) rotate(0 39.01047799398248 16.279986512019775)"><path d="M0 0 C8.77 4.52, 38.29 20.18, 52.61 27.14 C66.93 34.11, 74.86 36.94, 85.93 41.78 C97 46.63, 117.44 54.99, 119.04 56.21 C120.65 57.44, 110.36 53.85, 95.54 49.13 C80.71 44.4, 50.58 34.64, 30.09 27.85 C9.61 21.06, -16 12.48, -27.37 8.39 C-38.74 4.31, -35.9 5.13, -38.13 3.34 C-40.35 1.54, -40.25 0.71, -40.74 -2.36 C-41.22 -5.43, -40.98 -11.52, -41.02 -15.07 C-41.07 -18.62, -43.01 -23.68, -41.02 -23.65 C-39.03 -23.63, -35.93 -18.87, -29.09 -14.93 C-22.25 -10.98, -4.85 -2.49, 0 0 M0 0 C8.77 4.52, 38.29 20.18, 52.61 27.14 C66.93 34.11, 74.86 36.94, 85.93 41.78 C97 46.63, 117.44 54.99, 119.04 56.21 C120.65 57.44, 110.36 53.85, 95.54 49.13 C80.71 44.4, 50.58 34.64, 30.09 27.85 C9.61 21.06, -16 12.48, -27.37 8.39 C-38.74 4.31, -35.9 5.13, -38.13 3.34 C-40.35 1.54, -40.25 0.71, -40.74 -2.36 C-41.22 -5.43, -40.98 -11.52, -41.02 -15.07 C-41.07 -18.62, -43.01 -23.68, -41.02 -23.65 C-39.03 -23.63, -35.93 -18.87, -29.09 -14.93 C-22.25 -10.98, -4.85 -2.49, 0 0" stroke="#E1E1E1" stroke-width="4" fill="none"></path></g></g><mask></mask></svg>