<svg version="1.1" xmlns="http://www.w3.org/2000/svg" viewBox="0 0 754.1470403345389 742.3551381472034" width="754.1470403345389" height="742.3551381472034" class="excalidraw-svg"><!-- svg-source:excalidraw --><metadata></metadata><defs><style class="style-fonts">
      </style></defs><rect x="0" y="0" width="754.1470403345389" height="742.3551381472034" fill="#000000"></rect><g stroke-linecap="round"><g transform="translate(290.3556662254915 191.3657773779192) rotate(0 205.33164557369454 2.8564619845757306)"><path d="M0 0 C1.19 -5.35, 6.89 -20.61, 7.14 -32.13 C7.39 -43.64, 5.06 -61.17, 1.5 -69.09 C-2.07 -77.01, -8.26 -75.42, -14.27 -79.67 C-20.28 -83.91, -29.89 -86.15, -34.58 -94.57 C-39.28 -102.99, -43.88 -118.62, -42.43 -130.2 C-40.98 -141.79, -34.69 -155.63, -25.89 -164.09 C-17.1 -172.56, -2.67 -179.61, 10.34 -181 C23.35 -182.39, 40.96 -179.9, 52.14 -172.41 C63.33 -164.92, 73.55 -147.95, 77.44 -136.06 C81.32 -124.17, 79.78 -110.37, 75.46 -101.06 C71.14 -91.74, 54.89 -87.55, 51.53 -80.17 C48.18 -72.8, 52.28 -66.44, 55.32 -56.8 C58.36 -47.16, 63.96 -29.27, 69.79 -22.33 C75.62 -15.38, 80.68 -16.78, 90.28 -15.13 C99.88 -13.48, 114.35 -15.33, 127.39 -12.43 C140.43 -9.52, 158.23 -2.12, 168.52 2.3 C178.81 6.71, 181.36 14.46, 189.12 14.05 C196.87 13.64, 205.76 7.46, 215.05 -0.16 C224.35 -7.78, 239.65 -22.77, 244.88 -31.67 C250.11 -40.56, 244.02 -46.7, 246.45 -53.54 C248.87 -60.38, 252.71 -68.62, 259.43 -72.69 C266.16 -76.77, 277.55 -79.1, 286.79 -77.97 C296.04 -76.84, 308.78 -72.9, 314.9 -65.92 C321.01 -58.94, 323.7 -44.93, 323.51 -36.07 C323.31 -27.22, 318.59 -18.85, 313.73 -12.78 C308.86 -6.71, 300.04 -1.87, 294.32 0.35 C288.6 2.57, 284.13 -2.45, 279.42 0.53 C274.71 3.51, 271.68 11.45, 266.05 18.23 C260.42 25.02, 249.8 32.89, 245.63 41.22 C241.45 49.55, 238.96 59.12, 240.99 68.23 C243.03 77.35, 253.52 86.58, 257.85 95.91 C262.19 105.24, 259.58 117.15, 267.02 124.21 C274.45 131.26, 290.8 136.88, 302.48 138.23 C314.16 139.58, 328.79 137.78, 337.11 132.33 C345.43 126.87, 344.72 112.25, 352.4 105.52 C360.07 98.79, 371.19 93.17, 383.15 91.95 C395.11 90.73, 413.03 91.19, 424.17 98.2 C435.31 105.21, 445.15 122.17, 449.97 134.01 C454.79 145.85, 454.04 160.45, 453.1 169.24 C452.16 178.02, 445.79 183.8, 444.33 186.71 M0 0 C1.19 -5.35, 6.89 -20.61, 7.14 -32.13 C7.39 -43.64, 5.06 -61.17, 1.5 -69.09 C-2.07 -77.01, -8.26 -75.42, -14.27 -79.67 C-20.28 -83.91, -29.89 -86.15, -34.58 -94.57 C-39.28 -102.99, -43.88 -118.62, -42.43 -130.2 C-40.98 -141.79, -34.69 -155.63, -25.89 -164.09 C-17.1 -172.56, -2.67 -179.61, 10.34 -181 C23.35 -182.39, 40.96 -179.9, 52.14 -172.41 C63.33 -164.92, 73.55 -147.95, 77.44 -136.06 C81.32 -124.17, 79.78 -110.37, 75.46 -101.06 C71.14 -91.74, 54.89 -87.55, 51.53 -80.17 C48.18 -72.8, 52.28 -66.44, 55.32 -56.8 C58.36 -47.16, 63.96 -29.27, 69.79 -22.33 C75.62 -15.38, 80.68 -16.78, 90.28 -15.13 C99.88 -13.48, 114.35 -15.33, 127.39 -12.43 C140.43 -9.52, 158.23 -2.12, 168.52 2.3 C178.81 6.71, 181.36 14.46, 189.12 14.05 C196.87 13.64, 205.76 7.46, 215.05 -0.16 C224.35 -7.78, 239.65 -22.77, 244.88 -31.67 C250.11 -40.56, 244.02 -46.7, 246.45 -53.54 C248.87 -60.38, 252.71 -68.62, 259.43 -72.69 C266.16 -76.77, 277.55 -79.1, 286.79 -77.97 C296.04 -76.84, 308.78 -72.9, 314.9 -65.92 C321.01 -58.94, 323.7 -44.93, 323.51 -36.07 C323.31 -27.22, 318.59 -18.85, 313.73 -12.78 C308.86 -6.71, 300.04 -1.87, 294.32 0.35 C288.6 2.57, 284.13 -2.45, 279.42 0.53 C274.71 3.51, 271.68 11.45, 266.05 18.23 C260.42 25.02, 249.8 32.89, 245.63 41.22 C241.45 49.55, 238.96 59.12, 240.99 68.23 C243.03 77.35, 253.52 86.58, 257.85 95.91 C262.19 105.24, 259.58 117.15, 267.02 124.21 C274.45 131.26, 290.8 136.88, 302.48 138.23 C314.16 139.58, 328.79 137.78, 337.11 132.33 C345.43 126.87, 344.72 112.25, 352.4 105.52 C360.07 98.79, 371.19 93.17, 383.15 91.95 C395.11 90.73, 413.03 91.19, 424.17 98.2 C435.31 105.21, 445.15 122.17, 449.97 134.01 C454.79 145.85, 454.04 160.45, 453.1 169.24 C452.16 178.02, 445.79 183.8, 444.33 186.71" stroke="#E1E1E1" stroke-width="4" fill="none"></path></g></g><mask></mask><g stroke-linecap="round"><g transform="translate(704.9569500019958 406.084498404744) rotate(0 -347.22366902582837 148.1566152702143)"><path d="M0 0 C-2.71 0.5, -9.2 2.76, -16.25 2.99 C-23.3 3.22, -34.81 3.73, -42.32 1.37 C-49.83 -0.98, -55.48 -5.93, -61.32 -11.15 C-67.16 -16.37, -69.68 -27.73, -77.36 -29.94 C-85.04 -32.16, -98.11 -27.19, -107.39 -24.44 C-116.67 -21.69, -127.71 -19.27, -133.06 -13.44 C-138.4 -7.6, -136.1 0.08, -139.46 10.56 C-142.82 21.03, -153.99 39.28, -153.21 49.41 C-152.43 59.54, -141.1 65.59, -134.77 71.35 C-128.44 77.11, -121.27 82.52, -115.23 83.96 C-109.19 85.4, -104.81 79.23, -98.53 79.98 C-92.24 80.72, -82.81 82.64, -77.53 88.44 C-72.24 94.24, -67.87 105.22, -66.8 114.79 C-65.73 124.36, -67.19 138.15, -71.09 145.85 C-75 153.56, -81.6 158.88, -90.24 161.03 C-98.87 163.17, -114.16 162.32, -122.89 158.71 C-131.62 155.11, -139.33 145.07, -142.61 139.4 C-145.9 133.72, -137.73 129.58, -142.61 124.65 C-147.5 119.72, -163.66 111.77, -171.94 109.81 C-180.22 107.86, -183.88 109.1, -192.28 112.91 C-200.68 116.71, -212.8 126.41, -222.36 132.66 C-231.91 138.91, -244.54 141.42, -249.62 150.39 C-254.69 159.36, -253.52 173.25, -252.83 186.47 C-252.13 199.7, -250.31 220.8, -245.47 229.74 C-240.63 238.68, -229.64 235.33, -223.78 240.1 C-217.92 244.87, -212.86 250.52, -210.33 258.36 C-207.8 266.21, -206.18 277.45, -208.61 287.17 C-211.05 296.89, -216.38 310.17, -224.93 316.68 C-233.48 323.19, -248.82 326.52, -259.91 326.26 C-271 325.99, -283.29 321.67, -291.47 315.09 C-299.65 308.5, -306.43 296.8, -308.98 286.76 C-311.52 276.72, -309.58 263.57, -306.74 254.84 C-303.89 246.1, -291.97 244.66, -291.93 234.37 C-291.89 224.08, -300.55 203.48, -306.5 193.1 C-312.44 182.73, -317.8 176.46, -327.59 172.12 C-337.39 167.79, -355.01 167.96, -365.27 167.07 C-375.53 166.19, -381.33 162.33, -389.16 166.81 C-396.99 171.29, -405.6 184.03, -412.24 193.96 C-418.87 203.89, -424.53 218.8, -428.96 226.38 C-433.39 233.96, -437.92 233.84, -438.8 239.44 C-439.69 245.04, -433.41 252.12, -434.25 259.97 C-435.1 267.82, -436.6 280.49, -443.86 286.55 C-451.13 292.62, -467.07 297.05, -477.85 296.36 C-488.64 295.66, -502.74 291.21, -508.57 282.38 C-514.4 273.54, -515.52 253.65, -512.83 243.33 C-510.14 233.02, -498.98 225.89, -492.42 220.48 C-485.87 215.07, -480 220.31, -473.5 210.87 C-467 201.43, -456.49 177.69, -453.42 163.84 C-450.36 149.99, -451.79 136.36, -455.12 127.76 C-458.45 119.16, -466.18 120.05, -473.38 112.24 C-480.59 104.43, -491.81 88.65, -498.35 80.89 C-504.89 73.14, -503.38 68.34, -512.65 65.72 C-521.92 63.09, -541.93 63.52, -553.95 65.15 C-565.96 66.79, -577.24 68.96, -584.75 75.53 C-592.25 82.1, -592.07 97.42, -599 104.59 C-605.92 111.76, -616.39 116.05, -626.31 118.57 C-636.23 121.08, -648.48 122.12, -658.53 119.67 C-668.57 117.23, -680.6 110.36, -686.57 103.9 C-692.54 97.43, -693.04 90.55, -694.35 80.88 C-695.66 71.21, -694.43 51.71, -694.45 45.87 M0 0 C-2.71 0.5, -9.2 2.76, -16.25 2.99 C-23.3 3.22, -34.81 3.73, -42.32 1.37 C-49.83 -0.98, -55.48 -5.93, -61.32 -11.15 C-67.16 -16.37, -69.68 -27.73, -77.36 -29.94 C-85.04 -32.16, -98.11 -27.19, -107.39 -24.44 C-116.67 -21.69, -127.71 -19.27, -133.06 -13.44 C-138.4 -7.6, -136.1 0.08, -139.46 10.56 C-142.82 21.03, -153.99 39.28, -153.21 49.41 C-152.43 59.54, -141.1 65.59, -134.77 71.35 C-128.44 77.11, -121.27 82.52, -115.23 83.96 C-109.19 85.4, -104.81 79.23, -98.53 79.98 C-92.24 80.72, -82.81 82.64, -77.53 88.44 C-72.24 94.24, -67.87 105.22, -66.8 114.79 C-65.73 124.36, -67.19 138.15, -71.09 145.85 C-75 153.56, -81.6 158.88, -90.24 161.03 C-98.87 163.17, -114.16 162.32, -122.89 158.71 C-131.62 155.11, -139.33 145.07, -142.61 139.4 C-145.9 133.72, -137.73 129.58, -142.61 124.65 C-147.5 119.72, -163.66 111.77, -171.94 109.81 C-180.22 107.86, -183.88 109.1, -192.28 112.91 C-200.68 116.71, -212.8 126.41, -222.36 132.66 C-231.91 138.91, -244.54 141.42, -249.62 150.39 C-254.69 159.36, -253.52 173.25, -252.83 186.47 C-252.13 199.7, -250.31 220.8, -245.47 229.74 C-240.63 238.68, -229.64 235.33, -223.78 240.1 C-217.92 244.87, -212.86 250.52, -210.33 258.36 C-207.8 266.21, -206.18 277.45, -208.61 287.17 C-211.05 296.89, -216.38 310.17, -224.93 316.68 C-233.48 323.19, -248.82 326.52, -259.91 326.26 C-271 325.99, -283.29 321.67, -291.47 315.09 C-299.65 308.5, -306.43 296.8, -308.98 286.76 C-311.52 276.72, -309.58 263.57, -306.74 254.84 C-303.89 246.1, -291.97 244.66, -291.93 234.37 C-291.89 224.08, -300.55 203.48, -306.5 193.1 C-312.44 182.73, -317.8 176.46, -327.59 172.12 C-337.39 167.79, -355.01 167.96, -365.27 167.07 C-375.53 166.19, -381.33 162.33, -389.16 166.81 C-396.99 171.29, -405.6 184.03, -412.24 193.96 C-418.87 203.89, -424.53 218.8, -428.96 226.38 C-433.39 233.96, -437.92 233.84, -438.8 239.44 C-439.69 245.04, -433.41 252.12, -434.25 259.97 C-435.1 267.82, -436.6 280.49, -443.86 286.55 C-451.13 292.62, -467.07 297.05, -477.85 296.36 C-488.64 295.66, -502.74 291.21, -508.57 282.38 C-514.4 273.54, -515.52 253.65, -512.83 243.33 C-510.14 233.02, -498.98 225.89, -492.42 220.48 C-485.87 215.07, -480 220.31, -473.5 210.87 C-467 201.43, -456.49 177.69, -453.42 163.84 C-450.36 149.99, -451.79 136.36, -455.12 127.76 C-458.45 119.16, -466.18 120.05, -473.38 112.24 C-480.59 104.43, -491.81 88.65, -498.35 80.89 C-504.89 73.14, -503.38 68.34, -512.65 65.72 C-521.92 63.09, -541.93 63.52, -553.95 65.15 C-565.96 66.79, -577.24 68.96, -584.75 75.53 C-592.25 82.1, -592.07 97.42, -599 104.59 C-605.92 111.76, -616.39 116.05, -626.31 118.57 C-636.23 121.08, -648.48 122.12, -658.53 119.67 C-668.57 117.23, -680.6 110.36, -686.57 103.9 C-692.54 97.43, -693.04 90.55, -694.35 80.88 C-695.66 71.21, -694.43 51.71, -694.45 45.87" stroke="#E1E1E1" stroke-width="4" fill="none"></path></g></g><mask></mask><g stroke-linecap="round"><g transform="translate(41.900166706030745 427.9462448607374) rotate(0 124.23429127572575 -126.91413232843064)"><path d="M0 0 C4.67 -1.47, 18.77 -9.1, 28.01 -8.8 C37.25 -8.51, 48.41 -0.54, 55.45 1.78 C62.48 4.1, 61.22 7.22, 70.22 5.1 C79.22 2.98, 99.02 -4.31, 109.43 -10.94 C119.83 -17.56, 129.17 -23.96, 132.64 -34.65 C136.12 -45.34, 128.61 -60.59, 130.27 -75.09 C131.93 -89.59, 139.64 -109.03, 142.61 -121.66 C145.59 -134.28, 152.01 -141.12, 148.11 -150.84 C144.22 -160.57, 127.56 -175.16, 119.23 -179.99 C110.91 -184.82, 106.09 -176.7, 98.19 -179.81 C90.28 -182.92, 76.96 -190.03, 71.81 -198.65 C66.65 -207.28, 64.11 -222.37, 67.25 -231.57 C70.39 -240.78, 80.89 -249.32, 90.66 -253.88 C100.42 -258.43, 117.1 -261.89, 125.84 -258.93 C134.58 -255.96, 139.82 -242.78, 143.08 -236.08 C146.35 -229.38, 139.71 -224.53, 145.46 -218.73 C151.21 -212.93, 168.07 -203.51, 177.58 -201.3 C187.09 -199.08, 190.72 -199.27, 202.53 -205.45 C214.35 -211.62, 240.81 -232.87, 248.47 -238.36 M0 0 C4.67 -1.47, 18.77 -9.1, 28.01 -8.8 C37.25 -8.51, 48.41 -0.54, 55.45 1.78 C62.48 4.1, 61.22 7.22, 70.22 5.1 C79.22 2.98, 99.02 -4.31, 109.43 -10.94 C119.83 -17.56, 129.17 -23.96, 132.64 -34.65 C136.12 -45.34, 128.61 -60.59, 130.27 -75.09 C131.93 -89.59, 139.64 -109.03, 142.61 -121.66 C145.59 -134.28, 152.01 -141.12, 148.11 -150.84 C144.22 -160.57, 127.56 -175.16, 119.23 -179.99 C110.91 -184.82, 106.09 -176.7, 98.19 -179.81 C90.28 -182.92, 76.96 -190.03, 71.81 -198.65 C66.65 -207.28, 64.11 -222.37, 67.25 -231.57 C70.39 -240.78, 80.89 -249.32, 90.66 -253.88 C100.42 -258.43, 117.1 -261.89, 125.84 -258.93 C134.58 -255.96, 139.82 -242.78, 143.08 -236.08 C146.35 -229.38, 139.71 -224.53, 145.46 -218.73 C151.21 -212.93, 168.07 -203.51, 177.58 -201.3 C187.09 -199.08, 190.72 -199.27, 202.53 -205.45 C214.35 -211.62, 240.81 -232.87, 248.47 -238.36" stroke="#E1E1E1" stroke-width="4" fill="none"></path></g></g><mask></mask><g stroke-linecap="round" transform="translate(70.64794899965011 13.73745204394487) rotate(0 49.1224241133753 49.1224241133753)"><path d="M98.24 49.12 C98.24 51.26, 98.1 53.42, 97.82 55.53 C97.55 57.65, 97.12 59.77, 96.57 61.84 C96.02 63.9, 95.32 65.95, 94.51 67.92 C93.69 69.9, 92.73 71.83, 91.66 73.68 C90.6 75.53, 89.39 77.33, 88.09 79.03 C86.79 80.72, 85.37 82.35, 83.86 83.86 C82.35 85.37, 80.72 86.79, 79.03 88.09 C77.33 89.39, 75.53 90.6, 73.68 91.66 C71.83 92.73, 69.9 93.69, 67.92 94.51 C65.95 95.32, 63.9 96.02, 61.84 96.57 C59.77 97.12, 57.65 97.55, 55.53 97.82 C53.42 98.1, 51.26 98.24, 49.12 98.24 C46.99 98.24, 44.83 98.1, 42.71 97.82 C40.59 97.55, 38.47 97.12, 36.41 96.57 C34.34 96.02, 32.3 95.32, 30.32 94.51 C28.35 93.69, 26.41 92.73, 24.56 91.66 C22.71 90.6, 20.91 89.39, 19.22 88.09 C17.52 86.79, 15.9 85.37, 14.39 83.86 C12.88 82.35, 11.45 80.72, 10.15 79.03 C8.85 77.33, 7.65 75.53, 6.58 73.68 C5.51 71.83, 4.56 69.9, 3.74 67.92 C2.92 65.95, 2.23 63.9, 1.67 61.84 C1.12 59.77, 0.7 57.65, 0.42 55.53 C0.14 53.42, 0 51.26, 0 49.12 C0 46.99, 0.14 44.83, 0.42 42.71 C0.7 40.59, 1.12 38.47, 1.67 36.41 C2.23 34.34, 2.92 32.3, 3.74 30.32 C4.56 28.35, 5.51 26.41, 6.58 24.56 C7.65 22.71, 8.85 20.91, 10.15 19.22 C11.45 17.52, 12.88 15.9, 14.39 14.39 C15.9 12.88, 17.52 11.45, 19.22 10.15 C20.91 8.85, 22.71 7.65, 24.56 6.58 C26.41 5.51, 28.35 4.56, 30.32 3.74 C32.3 2.92, 34.34 2.23, 36.41 1.67 C38.47 1.12, 40.59 0.7, 42.71 0.42 C44.83 0.14, 46.99 0, 49.12 0 C51.26 0, 53.42 0.14, 55.53 0.42 C57.65 0.7, 59.77 1.12, 61.84 1.67 C63.9 2.23, 65.95 2.92, 67.92 3.74 C69.9 4.56, 71.83 5.51, 73.68 6.58 C75.53 7.65, 77.33 8.85, 79.03 10.15 C80.72 11.45, 82.35 12.88, 83.86 14.39 C85.37 15.9, 86.79 17.52, 88.09 19.22 C89.39 20.91, 90.6 22.71, 91.66 24.56 C92.73 26.41, 93.69 28.35, 94.51 30.32 C95.32 32.3, 96.02 34.34, 96.57 36.41 C97.12 38.47, 97.55 40.59, 97.82 42.71 C98.1 44.83, 98.17 48.05, 98.24 49.12 C98.31 50.19, 98.31 48.05, 98.24 49.12" stroke="#E1E1E1" stroke-width="4" fill="none"></path></g><g stroke-linecap="round" transform="translate(574.397012758906 619.7652988936611) rotate(0 42.81640269399102 42.077211386532326)"><path d="M85.63 42.08 C85.63 44.07, 85.49 46.09, 85.2 48.07 C84.91 50.04, 84.47 52.02, 83.9 53.93 C83.33 55.85, 82.61 57.74, 81.76 59.56 C80.92 61.37, 79.93 63.15, 78.84 64.83 C77.74 66.51, 76.5 68.12, 75.17 69.63 C73.84 71.14, 72.39 72.57, 70.86 73.88 C69.32 75.18, 67.67 76.4, 65.96 77.47 C64.26 78.55, 62.45 79.52, 60.6 80.35 C58.76 81.18, 56.83 81.89, 54.88 82.45 C52.93 83.01, 50.92 83.44, 48.91 83.73 C46.9 84.01, 44.85 84.15, 42.82 84.15 C40.79 84.15, 38.73 84.01, 36.72 83.73 C34.71 83.44, 32.7 83.01, 30.75 82.45 C28.8 81.89, 26.88 81.18, 25.03 80.35 C23.18 79.52, 21.38 78.55, 19.67 77.47 C17.96 76.4, 16.31 75.18, 14.78 73.88 C13.24 72.57, 11.79 71.14, 10.46 69.63 C9.13 68.12, 7.9 66.51, 6.8 64.83 C5.7 63.15, 4.71 61.37, 3.87 59.56 C3.03 57.74, 2.31 55.85, 1.73 53.93 C1.16 52.02, 0.72 50.04, 0.44 48.07 C0.15 46.09, 0 44.07, 0 42.08 C0 40.08, 0.15 38.06, 0.44 36.09 C0.72 34.11, 1.16 32.14, 1.73 30.22 C2.31 28.31, 3.03 26.41, 3.87 24.6 C4.71 22.78, 5.7 21.01, 6.8 19.33 C7.9 17.65, 9.13 16.03, 10.46 14.52 C11.79 13.01, 13.24 11.58, 14.78 10.28 C16.31 8.97, 17.96 7.76, 19.67 6.68 C21.38 5.6, 23.18 4.63, 25.03 3.8 C26.88 2.97, 28.8 2.27, 30.75 1.7 C32.7 1.14, 34.71 0.71, 36.72 0.43 C38.73 0.14, 40.79 0, 42.82 0 C44.85 0, 46.9 0.14, 48.91 0.43 C50.92 0.71, 52.93 1.14, 54.88 1.7 C56.83 2.27, 58.76 2.97, 60.6 3.8 C62.45 4.63, 64.26 5.6, 65.96 6.68 C67.67 7.76, 69.32 8.97, 70.86 10.28 C72.39 11.58, 73.84 13.01, 75.17 14.52 C76.5 16.03, 77.74 17.65, 78.84 19.33 C79.93 21.01, 80.92 22.78, 81.76 24.6 C82.61 26.41, 83.33 28.31, 83.9 30.22 C84.47 32.14, 84.91 34.11, 85.2 36.09 C85.49 38.06, 85.56 41.08, 85.63 42.08 C85.71 43.08, 85.71 41.08, 85.63 42.08" stroke="#E1E1E1" stroke-width="4" fill="none"></path></g><g stroke-linecap="round" transform="translate(77.5078187733003 588.2482748287275) rotate(0 30.27195552050739 31.434164862323144)"><path d="M60.54 31.43 C60.54 33.25, 60.39 35.1, 60.08 36.89 C59.78 38.68, 59.32 40.48, 58.72 42.19 C58.12 43.9, 57.36 45.58, 56.49 47.15 C55.61 48.73, 54.59 50.25, 53.46 51.64 C52.34 53.03, 51.07 54.34, 49.73 55.51 C48.39 56.68, 46.93 57.75, 45.41 58.66 C43.89 59.57, 42.27 60.35, 40.63 60.97 C38.98 61.59, 37.25 62.07, 35.53 62.39 C33.8 62.71, 32.02 62.87, 30.27 62.87 C28.52 62.87, 26.74 62.71, 25.02 62.39 C23.29 62.07, 21.56 61.59, 19.92 60.97 C18.27 60.35, 16.65 59.57, 15.14 58.66 C13.62 57.75, 12.16 56.68, 10.81 55.51 C9.47 54.34, 8.21 53.03, 7.08 51.64 C5.96 50.25, 4.93 48.73, 4.06 47.15 C3.18 45.58, 2.42 43.9, 1.83 42.19 C1.23 40.48, 0.76 38.68, 0.46 36.89 C0.16 35.1, 0 33.25, 0 31.43 C0 29.61, 0.16 27.77, 0.46 25.98 C0.76 24.18, 1.23 22.39, 1.83 20.68 C2.42 18.97, 3.18 17.29, 4.06 15.72 C4.93 14.14, 5.96 12.62, 7.08 11.23 C8.21 9.83, 9.47 8.52, 10.81 7.35 C12.16 6.18, 13.62 5.12, 15.14 4.21 C16.65 3.3, 18.27 2.52, 19.92 1.9 C21.56 1.27, 23.29 0.79, 25.02 0.48 C26.74 0.16, 28.52 0, 30.27 0 C32.02 0, 33.8 0.16, 35.53 0.48 C37.25 0.79, 38.98 1.27, 40.63 1.9 C42.27 2.52, 43.89 3.3, 45.41 4.21 C46.93 5.12, 48.39 6.18, 49.73 7.35 C51.07 8.52, 52.34 9.83, 53.46 11.23 C54.59 12.62, 55.61 14.14, 56.49 15.72 C57.36 17.29, 58.12 18.97, 58.72 20.68 C59.32 22.39, 59.78 24.18, 60.08 25.98 C60.39 27.77, 60.47 30.52, 60.54 31.43 C60.62 32.34, 60.62 30.52, 60.54 31.43" stroke="#E1E1E1" stroke-width="4" fill="none"></path></g><g stroke-linecap="round"><g transform="translate(447.8928154328365 244.38258401377453) rotate(0 -79.90679838684053 129.69863763705908)"><path d="M0 0 C4.34 3.18, 17.87 10.93, 26.02 19.09 C34.17 27.25, 41.86 37.49, 48.9 48.95 C55.94 60.42, 64.63 71.55, 68.26 87.89 C71.89 104.24, 71.39 131.04, 70.69 147.03 C70 163.01, 68.41 171.41, 64.1 183.8 C59.79 196.19, 52.57 210.34, 44.82 221.34 C37.08 232.35, 28.36 241.67, 17.63 249.81 C6.89 257.95, -5.78 264.54, -19.6 270.16 C-33.42 275.79, -48.7 281.81, -65.3 283.54 C-81.9 285.26, -102.04 284.74, -119.2 280.51 C-136.37 276.29, -153.74 268.11, -168.28 258.19 C-182.82 248.28, -196.26 237.32, -206.43 221.03 C-216.6 204.73, -225.27 180.91, -229.28 160.43 C-233.3 139.95, -233.14 117.68, -230.51 98.15 C-227.87 78.62, -226.18 60.82, -213.49 43.23 C-200.81 25.64, -173.28 3.86, -154.39 -7.37 C-135.5 -18.59, -120.2 -22.84, -100.15 -24.14 C-80.09 -25.43, -45.08 -16.64, -34.06 -15.14 M0 0 C4.34 3.18, 17.87 10.93, 26.02 19.09 C34.17 27.25, 41.86 37.49, 48.9 48.95 C55.94 60.42, 64.63 71.55, 68.26 87.89 C71.89 104.24, 71.39 131.04, 70.69 147.03 C70 163.01, 68.41 171.41, 64.1 183.8 C59.79 196.19, 52.57 210.34, 44.82 221.34 C37.08 232.35, 28.36 241.67, 17.63 249.81 C6.89 257.95, -5.78 264.54, -19.6 270.16 C-33.42 275.79, -48.7 281.81, -65.3 283.54 C-81.9 285.26, -102.04 284.74, -119.2 280.51 C-136.37 276.29, -153.74 268.11, -168.28 258.19 C-182.82 248.28, -196.26 237.32, -206.43 221.03 C-216.6 204.73, -225.27 180.91, -229.28 160.43 C-233.3 139.95, -233.14 117.68, -230.51 98.15 C-227.87 78.62, -226.18 60.82, -213.49 43.23 C-200.81 25.64, -173.28 3.86, -154.39 -7.37 C-135.5 -18.59, -120.2 -22.84, -100.15 -24.14 C-80.09 -25.43, -45.08 -16.64, -34.06 -15.14" stroke="#E1E1E1" stroke-width="4" fill="none"></path></g></g><mask></mask><g stroke-linecap="round" transform="translate(285.74171694353447 296.43560729300526) rotate(0 37.56356534983653 37.56356534983653)"><path d="M75.13 37.56 C75.13 39.52, 74.97 41.51, 74.66 43.44 C74.36 45.37, 73.89 47.31, 73.29 49.17 C72.68 51.03, 71.92 52.87, 71.03 54.62 C70.14 56.36, 69.1 58.06, 67.95 59.64 C66.8 61.23, 65.51 62.74, 64.13 64.13 C62.74 65.51, 61.23 66.8, 59.64 67.95 C58.06 69.1, 56.36 70.14, 54.62 71.03 C52.87 71.92, 51.03 72.68, 49.17 73.29 C47.31 73.89, 45.37 74.36, 43.44 74.66 C41.51 74.97, 39.52 75.13, 37.56 75.13 C35.6 75.13, 33.62 74.97, 31.69 74.66 C29.75 74.36, 27.82 73.89, 25.96 73.29 C24.09 72.68, 22.26 71.92, 20.51 71.03 C18.76 70.14, 17.07 69.1, 15.48 67.95 C13.9 66.8, 12.39 65.51, 11 64.13 C9.62 62.74, 8.33 61.23, 7.17 59.64 C6.02 58.06, 4.98 56.36, 4.09 54.62 C3.2 52.87, 2.44 51.03, 1.84 49.17 C1.23 47.31, 0.77 45.37, 0.46 43.44 C0.16 41.51, 0 39.52, 0 37.56 C0 35.6, 0.16 33.62, 0.46 31.69 C0.77 29.75, 1.23 27.82, 1.84 25.96 C2.44 24.09, 3.2 22.26, 4.09 20.51 C4.98 18.76, 6.02 17.07, 7.17 15.48 C8.33 13.9, 9.62 12.39, 11 11 C12.39 9.62, 13.9 8.33, 15.48 7.17 C17.07 6.02, 18.76 4.98, 20.51 4.09 C22.26 3.2, 24.09 2.44, 25.96 1.84 C27.82 1.23, 29.75 0.77, 31.69 0.46 C33.62 0.16, 35.6 0, 37.56 0 C39.52 0, 41.51 0.16, 43.44 0.46 C45.37 0.77, 47.31 1.23, 49.17 1.84 C51.03 2.44, 52.87 3.2, 54.62 4.09 C56.36 4.98, 58.06 6.02, 59.64 7.17 C61.23 8.33, 62.74 9.62, 64.13 11 C65.51 12.39, 66.8 13.9, 67.95 15.48 C69.1 17.07, 70.14 18.76, 71.03 20.51 C71.92 22.26, 72.68 24.09, 73.29 25.96 C73.89 27.82, 74.36 29.75, 74.66 31.69 C74.97 33.62, 75.05 36.58, 75.13 37.56 C75.2 38.54, 75.2 36.58, 75.13 37.56" stroke="#E1E1E1" stroke-width="4" fill="none"></path></g><g stroke-linecap="round" transform="translate(408.04189999001085 346.2078219952385) rotate(0 26.907435793636786 26.907435793636786)"><path d="M53.81 26.91 C53.81 28.46, 53.68 30.05, 53.41 31.58 C53.14 33.11, 52.72 34.65, 52.19 36.11 C51.66 37.57, 50.99 39.01, 50.21 40.36 C49.43 41.71, 48.52 43.01, 47.52 44.2 C46.52 45.4, 45.4 46.52, 44.2 47.52 C43.01 48.52, 41.71 49.43, 40.36 50.21 C39.01 50.99, 37.57 51.66, 36.11 52.19 C34.65 52.72, 33.11 53.14, 31.58 53.41 C30.05 53.68, 28.46 53.81, 26.91 53.81 C25.35 53.81, 23.77 53.68, 22.24 53.41 C20.7 53.14, 19.17 52.72, 17.7 52.19 C16.24 51.66, 14.8 50.99, 13.45 50.21 C12.1 49.43, 10.8 48.52, 9.61 47.52 C8.42 46.52, 7.3 45.4, 6.3 44.2 C5.29 43.01, 4.38 41.71, 3.6 40.36 C2.83 39.01, 2.16 37.57, 1.62 36.11 C1.09 34.65, 0.68 33.11, 0.41 31.58 C0.14 30.05, 0 28.46, 0 26.91 C0 25.35, 0.14 23.77, 0.41 22.24 C0.68 20.7, 1.09 19.17, 1.62 17.7 C2.16 16.24, 2.83 14.8, 3.6 13.45 C4.38 12.1, 5.29 10.8, 6.3 9.61 C7.3 8.42, 8.42 7.3, 9.61 6.3 C10.8 5.29, 12.1 4.38, 13.45 3.6 C14.8 2.83, 16.24 2.16, 17.7 1.62 C19.17 1.09, 20.7 0.68, 22.24 0.41 C23.77 0.14, 25.35 0, 26.91 0 C28.46 0, 30.05 0.14, 31.58 0.41 C33.11 0.68, 34.65 1.09, 36.11 1.62 C37.57 2.16, 39.01 2.83, 40.36 3.6 C41.71 4.38, 43.01 5.29, 44.2 6.3 C45.4 7.3, 46.52 8.42, 47.52 9.61 C48.52 10.8, 49.43 12.1, 50.21 13.45 C50.99 14.8, 51.66 16.24, 52.19 17.7 C52.72 19.17, 53.14 20.7, 53.41 22.24 C53.68 23.77, 53.75 26.13, 53.81 26.91 C53.88 27.69, 53.88 26.13, 53.81 26.91" stroke="#E1E1E1" stroke-width="4" fill="none"></path></g><g stroke-linecap="round" transform="translate(329.4434048022109 428.8925841747155) rotate(0 22.849515371274123 22.849515371274123)"><path d="M45.7 22.85 C45.7 24.17, 45.58 25.51, 45.35 26.82 C45.12 28.12, 44.77 29.42, 44.32 30.66 C43.87 31.91, 43.3 33.13, 42.64 34.27 C41.98 35.42, 41.2 36.52, 40.35 37.54 C39.5 38.55, 38.55 39.5, 37.54 40.35 C36.52 41.2, 35.42 41.98, 34.27 42.64 C33.13 43.3, 31.91 43.87, 30.66 44.32 C29.42 44.77, 28.12 45.12, 26.82 45.35 C25.51 45.58, 24.17 45.7, 22.85 45.7 C21.53 45.7, 20.18 45.58, 18.88 45.35 C17.58 45.12, 16.28 44.77, 15.03 44.32 C13.79 43.87, 12.57 43.3, 11.42 42.64 C10.28 41.98, 9.18 41.2, 8.16 40.35 C7.15 39.5, 6.2 38.55, 5.35 37.54 C4.5 36.52, 3.72 35.42, 3.06 34.27 C2.4 33.13, 1.83 31.91, 1.38 30.66 C0.93 29.42, 0.58 28.12, 0.35 26.82 C0.12 25.51, 0 24.17, 0 22.85 C0 21.53, 0.12 20.18, 0.35 18.88 C0.58 17.58, 0.93 16.28, 1.38 15.03 C1.83 13.79, 2.4 12.57, 3.06 11.42 C3.72 10.28, 4.5 9.18, 5.35 8.16 C6.2 7.15, 7.15 6.2, 8.16 5.35 C9.18 4.5, 10.28 3.72, 11.42 3.06 C12.57 2.4, 13.79 1.83, 15.03 1.38 C16.28 0.93, 17.58 0.58, 18.88 0.35 C20.18 0.12, 21.53 0, 22.85 0 C24.17 0, 25.51 0.12, 26.82 0.35 C28.12 0.58, 29.42 0.93, 30.66 1.38 C31.91 1.83, 33.13 2.4, 34.27 3.06 C35.42 3.72, 36.52 4.5, 37.54 5.35 C38.55 6.2, 39.5 7.15, 40.35 8.16 C41.2 9.18, 41.98 10.28, 42.64 11.42 C43.3 12.57, 43.87 13.79, 44.32 15.03 C44.77 16.28, 45.12 17.58, 45.35 18.88 C45.58 20.18, 45.64 22.19, 45.7 22.85 C45.76 23.51, 45.76 22.19, 45.7 22.85" stroke="#E1E1E1" stroke-width="4" fill="none"></path></g></svg>