<svg version="1.1" xmlns="http://www.w3.org/2000/svg" viewBox="0 0 206.81094967635752 206.41036678925985" width="206.81094967635752" height="206.41036678925985" class="excalidraw-svg"><!-- svg-source:excalidraw --><metadata></metadata><defs><style class="style-fonts">
      </style></defs><rect x="0" y="0" width="206.81094967635752" height="206.41036678925985" fill="#000000"></rect><g stroke-linecap="round"><g transform="translate(106.55187357633244 89.32156883438353) rotate(0 45.042483081108074 -39.525961526687894)"><path d="M0 0 C2.48 -2.41, 11.32 -11.08, 14.86 -14.44 C18.41 -17.81, 19.62 -17.46, 21.25 -20.19 C22.89 -22.91, 23.12 -28.89, 24.68 -30.79 C26.25 -32.69, 28.62 -30.92, 30.66 -31.6 C32.7 -32.27, 33.44 -32.03, 36.94 -34.84 C40.45 -37.65, 47.83 -44.76, 51.69 -48.47 C55.55 -52.19, 56.57 -54.38, 60.11 -57.13 C63.64 -59.87, 69.61 -62.31, 72.9 -64.96 C76.19 -67.6, 78.1 -70.82, 79.85 -72.99 C81.6 -75.17, 81.95 -77.01, 83.41 -78.02 C84.87 -79.03, 87.49 -79.73, 88.6 -79.05 C89.71 -78.37, 90.66 -76.04, 90.08 -73.93 C89.51 -71.82, 86.87 -68.82, 85.13 -66.37 C83.4 -63.92, 82.16 -61.49, 79.7 -59.24 C77.24 -56.98, 72.85 -54.57, 70.38 -52.83 C67.91 -51.08, 66.61 -50.32, 64.89 -48.75 C63.17 -47.17, 60.86 -44.25, 60.05 -43.35 M0 0 C2.48 -2.41, 11.32 -11.08, 14.86 -14.44 C18.41 -17.81, 19.62 -17.46, 21.25 -20.19 C22.89 -22.91, 23.12 -28.89, 24.68 -30.79 C26.25 -32.69, 28.62 -30.92, 30.66 -31.6 C32.7 -32.27, 33.44 -32.03, 36.94 -34.84 C40.45 -37.65, 47.83 -44.76, 51.69 -48.47 C55.55 -52.19, 56.57 -54.38, 60.11 -57.13 C63.64 -59.87, 69.61 -62.31, 72.9 -64.96 C76.19 -67.6, 78.1 -70.82, 79.85 -72.99 C81.6 -75.17, 81.95 -77.01, 83.41 -78.02 C84.87 -79.03, 87.49 -79.73, 88.6 -79.05 C89.71 -78.37, 90.66 -76.04, 90.08 -73.93 C89.51 -71.82, 86.87 -68.82, 85.13 -66.37 C83.4 -63.92, 82.16 -61.49, 79.7 -59.24 C77.24 -56.98, 72.85 -54.57, 70.38 -52.83 C67.91 -51.08, 66.61 -50.32, 64.89 -48.75 C63.17 -47.17, 60.86 -44.25, 60.05 -43.35" stroke="#E1E1E1" stroke-width="4" fill="none"></path></g></g><mask></mask><g stroke-linecap="round"><g transform="translate(159.50280239610888 52.75883438469833) rotate(0 -41.24735310161281 37.780819888453095)"><path d="M0 0 C-2.72 2.96, -10.58 11.65, -16.3 17.77 C-22.03 23.9, -30.74 33.01, -34.34 36.75 C-37.95 40.49, -37.65 38.55, -37.93 40.21 C-38.2 41.88, -34.53 44.83, -36.01 46.76 C-37.48 48.69, -43.89 50.41, -46.79 51.81 C-49.7 53.2, -50.76 52.84, -53.44 55.14 C-56.13 57.44, -59.6 62.2, -62.9 65.6 C-66.19 69.01, -70.4 74.85, -73.22 75.56 C-76.04 76.27, -78.28 71.69, -79.83 69.85 C-81.37 68.02, -83.63 66.93, -82.49 64.56 C-81.36 62.2, -76.68 59.23, -73.04 55.67 C-69.4 52.12, -62.72 45.3, -60.66 43.23 M0 0 C-2.72 2.96, -10.58 11.65, -16.3 17.77 C-22.03 23.9, -30.74 33.01, -34.34 36.75 C-37.95 40.49, -37.65 38.55, -37.93 40.21 C-38.2 41.88, -34.53 44.83, -36.01 46.76 C-37.48 48.69, -43.89 50.41, -46.79 51.81 C-49.7 53.2, -50.76 52.84, -53.44 55.14 C-56.13 57.44, -59.6 62.2, -62.9 65.6 C-66.19 69.01, -70.4 74.85, -73.22 75.56 C-76.04 76.27, -78.28 71.69, -79.83 69.85 C-81.37 68.02, -83.63 66.93, -82.49 64.56 C-81.36 62.2, -76.68 59.23, -73.04 55.67 C-69.4 52.12, -62.72 45.3, -60.66 43.23" stroke="#E1E1E1" stroke-width="4" fill="none"></path></g></g><mask></mask><g stroke-linecap="round"><g transform="translate(87.26291804917841 129.0811268741682) rotate(0 -38.390187951169594 27.429696405589084)"><path d="M0 0 C0.08 0.52, 1.47 1.36, 0.48 3.1 C-0.51 4.84, -3.27 7.68, -5.92 10.43 C-8.57 13.19, -11.98 16.41, -15.43 19.64 C-18.88 22.88, -22.96 26.32, -26.6 29.84 C-30.24 33.35, -33.88 37.32, -37.25 40.73 C-40.62 44.14, -44.41 47.96, -46.83 50.28 C-49.26 52.59, -50.44 52.54, -51.79 54.6 C-53.15 56.66, -53.51 60.49, -54.95 62.61 C-56.4 64.73, -58.42 67.56, -60.46 67.31 C-62.5 67.07, -64.95 63.31, -67.2 61.17 C-69.45 59.03, -72.27 56.46, -73.95 54.48 C-75.63 52.5, -77.22 51.05, -77.26 49.28 C-77.3 47.51, -76.1 45.26, -74.2 43.86 C-72.3 42.46, -68.92 43.04, -65.84 40.88 C-62.76 38.71, -59.04 34.2, -55.72 30.87 C-52.41 27.53, -49.56 24.46, -45.95 20.86 C-42.35 17.25, -38 13.18, -34.1 9.26 C-30.2 5.35, -25.77 0.81, -22.56 -2.65 C-19.35 -6.12, -16.98 -9.91, -14.84 -11.54 C-12.69 -13.18, -10.53 -12.3, -9.67 -12.46 M0 0 C0.08 0.52, 1.47 1.36, 0.48 3.1 C-0.51 4.84, -3.27 7.68, -5.92 10.43 C-8.57 13.19, -11.98 16.41, -15.43 19.64 C-18.88 22.88, -22.96 26.32, -26.6 29.84 C-30.24 33.35, -33.88 37.32, -37.25 40.73 C-40.62 44.14, -44.41 47.96, -46.83 50.28 C-49.26 52.59, -50.44 52.54, -51.79 54.6 C-53.15 56.66, -53.51 60.49, -54.95 62.61 C-56.4 64.73, -58.42 67.56, -60.46 67.31 C-62.5 67.07, -64.95 63.31, -67.2 61.17 C-69.45 59.03, -72.27 56.46, -73.95 54.48 C-75.63 52.5, -77.22 51.05, -77.26 49.28 C-77.3 47.51, -76.1 45.26, -74.2 43.86 C-72.3 42.46, -68.92 43.04, -65.84 40.88 C-62.76 38.71, -59.04 34.2, -55.72 30.87 C-52.41 27.53, -49.56 24.46, -45.95 20.86 C-42.35 17.25, -38 13.18, -34.1 9.26 C-30.2 5.35, -25.77 0.81, -22.56 -2.65 C-19.35 -6.12, -16.98 -9.91, -14.84 -11.54 C-12.69 -13.18, -10.53 -12.3, -9.67 -12.46" stroke="#E1E1E1" stroke-width="4" fill="none"></path></g></g><mask></mask><g stroke-linecap="round"><g transform="translate(62.951962833768306 121.02757800898058) rotate(0 10.41879489612844 10.516723239362705)"><path d="M0 0 C3.47 3.51, 17.36 17.53, 20.84 21.03 M0 0 C3.47 3.51, 17.36 17.53, 20.84 21.03" stroke="#E1E1E1" stroke-width="4" fill="none"></path></g></g><mask></mask><g stroke-linecap="round"><g transform="translate(55.953177054181054 135.9426177672281) rotate(0 6.022755780574876 7.837520892072618)"><path d="M0 0 C0.34 0.91, 0.42 4.08, 2.03 5.44 C3.64 6.8, 8 6.44, 9.67 8.14 C11.34 9.85, 11.65 14.42, 12.05 15.68 M0 0 C0.34 0.91, 0.42 4.08, 2.03 5.44 C3.64 6.8, 8 6.44, 9.67 8.14 C11.34 9.85, 11.65 14.42, 12.05 15.68" stroke="#E1E1E1" stroke-width="4" fill="none"></path></g></g><mask></mask><g stroke-linecap="round"><g transform="translate(44.837496738757494 146.95223615609217) rotate(0 6.022755780574883 7.837520892072618)"><path d="M0 0 C0.34 0.91, 0.42 4.08, 2.03 5.44 C3.64 6.8, 8 6.44, 9.67 8.14 C11.34 9.85, 11.65 14.42, 12.05 15.68 M0 0 C0.34 0.91, 0.42 4.08, 2.03 5.44 C3.64 6.8, 8 6.44, 9.67 8.14 C11.34 9.85, 11.65 14.42, 12.05 15.68" stroke="#E1E1E1" stroke-width="4" fill="none"></path></g></g><mask></mask><g stroke-linecap="round"><g transform="translate(33.42445261696716 158.14469749810456) rotate(0 6.022755780574883 7.837520892072618)"><path d="M0 0 C0.34 0.91, 0.42 4.08, 2.03 5.44 C3.64 6.8, 8 6.44, 9.67 8.14 C11.34 9.85, 11.65 14.42, 12.05 15.68 M0 0 C0.34 0.91, 0.42 4.08, 2.03 5.44 C3.64 6.8, 8 6.44, 9.67 8.14 C11.34 9.85, 11.65 14.42, 12.05 15.68" stroke="#E1E1E1" stroke-width="4" fill="none"></path></g></g><mask></mask><g stroke-linecap="round"><g transform="translate(21.526646929002567 170.32229845245416) rotate(0 6.615205989975607 6.766815983155624)"><path d="M0 0 C2.21 2.26, 11.03 11.28, 13.23 13.53 M0 0 C2.21 2.26, 11.03 11.28, 13.23 13.53" stroke="#E1E1E1" stroke-width="4" fill="none"></path></g></g><mask></mask><g stroke-linecap="round"><g transform="translate(81.43509802806997 36.98251686530017) rotate(0 9.111086700710779 9.059127972513181)"><path d="M0 0 C0.49 1.2, 1.72 5.19, 2.94 7.21 C4.16 9.22, 5.71 10.68, 7.32 12.08 C8.92 13.48, 10.74 14.59, 12.56 15.6 C14.38 16.6, 17.28 17.7, 18.22 18.12 M0 0 C0.49 1.2, 1.72 5.19, 2.94 7.21 C4.16 9.22, 5.71 10.68, 7.32 12.08 C8.92 13.48, 10.74 14.59, 12.56 15.6 C14.38 16.6, 17.28 17.7, 18.22 18.12" stroke="#E1E1E1" stroke-width="4" fill="none"></path></g></g><mask></mask><g stroke-linecap="round"><g transform="translate(80.7512221959831 35.8191361987038) rotate(5.4350786946580225 -7.984324566368215 10.246756045601714)"><path d="M0 0 C-0.43 1.36, -1.5 5.87, -2.57 8.15 C-3.64 10.43, -5.01 12.08, -6.41 13.66 C-7.82 15.25, -9.42 16.5, -11.01 17.64 C-12.6 18.78, -15.14 20.02, -15.97 20.49 M0 0 C-0.43 1.36, -1.5 5.87, -2.57 8.15 C-3.64 10.43, -5.01 12.08, -6.41 13.66 C-7.82 15.25, -9.42 16.5, -11.01 17.64 C-12.6 18.78, -15.14 20.02, -15.97 20.49" stroke="#E1E1E1" stroke-width="4" fill="none"></path></g></g><mask></mask><g stroke-linecap="round"><g transform="translate(80.74893216053701 73.35263212372598) rotate(1.140710919561856 -8.452380377976468 -9.089874675487863)"><path d="M0 0 C-0.43 -1.29, -1.55 -5.55, -2.59 -7.73 C-3.63 -9.91, -4.87 -11.77, -6.25 -13.09 C-7.63 -14.41, -9.09 -14.79, -10.87 -15.64 C-12.65 -16.49, -15.9 -17.76, -16.9 -18.18 M0 0 C-0.43 -1.29, -1.55 -5.55, -2.59 -7.73 C-3.63 -9.91, -4.87 -11.77, -6.25 -13.09 C-7.63 -14.41, -9.09 -14.79, -10.87 -15.64 C-12.65 -16.49, -15.9 -17.76, -16.9 -18.18" stroke="#E1E1E1" stroke-width="4" fill="none"></path></g></g><mask></mask><g stroke-linecap="round"><g transform="translate(81.3747269343547 55.38134994259377) rotate(89.99999999999994 9.111086700710779 9.059127972513181)"><path d="M0 0 C0.49 1.2, 1.72 5.19, 2.94 7.21 C4.16 9.22, 5.71 10.68, 7.32 12.08 C8.92 13.48, 10.74 14.59, 12.56 15.6 C14.38 16.6, 17.28 17.7, 18.22 18.12 M0 0 C0.49 1.2, 1.72 5.19, 2.94 7.21 C4.16 9.22, 5.71 10.68, 7.32 12.08 C8.92 13.48, 10.74 14.59, 12.56 15.6 C14.38 16.6, 17.28 17.7, 18.22 18.12" stroke="#E1E1E1" stroke-width="4" fill="none"></path></g></g><mask></mask><g stroke-linecap="round"><g transform="translate(37.14068602088204 31.131762777345614) rotate(0 5.536954487428545 5.505378329424005)"><path d="M0 0 C0.3 0.73, 1.04 3.16, 1.78 4.38 C2.53 5.6, 3.47 6.49, 4.45 7.34 C5.42 8.19, 6.53 8.87, 7.63 9.48 C8.74 10.09, 10.5 10.76, 11.07 11.01 M0 0 C0.3 0.73, 1.04 3.16, 1.78 4.38 C2.53 5.6, 3.47 6.49, 4.45 7.34 C5.42 8.19, 6.53 8.87, 7.63 9.48 C8.74 10.09, 10.5 10.76, 11.07 11.01" stroke="#E1E1E1" stroke-width="4" fill="none"></path></g></g><mask></mask><g stroke-linecap="round"><g transform="translate(36.72508363647907 30.424757563358128) rotate(5.4350786946580225 -4.852202946701155 6.227119083814003)"><path d="M0 0 C-0.26 0.83, -0.91 3.57, -1.56 4.95 C-2.21 6.34, -3.04 7.34, -3.9 8.3 C-4.75 9.26, -5.72 10.03, -6.69 10.72 C-7.66 11.41, -9.2 12.17, -9.7 12.45 M0 0 C-0.26 0.83, -0.91 3.57, -1.56 4.95 C-2.21 6.34, -3.04 7.34, -3.9 8.3 C-4.75 9.26, -5.72 10.03, -6.69 10.72 C-7.66 11.41, -9.2 12.17, -9.7 12.45" stroke="#E1E1E1" stroke-width="4" fill="none"></path></g></g><mask></mask><g stroke-linecap="round"><g transform="translate(36.72369194496545 53.23446901904214) rotate(1.140710919561856 -5.136648020223404 -5.52406359723031)"><path d="M0 0 C-0.26 -0.78, -0.94 -3.37, -1.57 -4.7 C-2.21 -6.02, -2.96 -7.15, -3.8 -7.95 C-4.63 -8.76, -5.53 -8.99, -6.61 -9.51 C-7.69 -10.02, -9.66 -10.79, -10.27 -11.05 M0 0 C-0.26 -0.78, -0.94 -3.37, -1.57 -4.7 C-2.21 -6.02, -2.96 -7.15, -3.8 -7.95 C-4.63 -8.76, -5.53 -8.99, -6.61 -9.51 C-7.69 -10.02, -9.66 -10.79, -10.27 -11.05" stroke="#E1E1E1" stroke-width="4" fill="none"></path></g></g><mask></mask><g stroke-linecap="round"><g transform="translate(37.103997532533725 42.31303068941867) rotate(89.99999999999994 5.536954487428545 5.505378329424005)"><path d="M0 0 C0.3 0.73, 1.04 3.16, 1.78 4.38 C2.53 5.6, 3.47 6.49, 4.45 7.34 C5.42 8.19, 6.53 8.87, 7.63 9.48 C8.74 10.09, 10.5 10.76, 11.07 11.01 M0 0 C0.3 0.73, 1.04 3.16, 1.78 4.38 C2.53 5.6, 3.47 6.49, 4.45 7.34 C5.42 8.19, 6.53 8.87, 7.63 9.48 C8.74 10.09, 10.5 10.76, 11.07 11.01" stroke="#E1E1E1" stroke-width="4" fill="none"></path></g></g><mask></mask><g stroke-linecap="round"><g transform="translate(127.23703059513113 13.467839555293779) rotate(0 5.56356880709297 5.531840872879172)"><path d="M0 0 C0.3 0.73, 1.05 3.17, 1.79 4.4 C2.54 5.63, 3.49 6.52, 4.47 7.38 C5.45 8.23, 6.56 8.91, 7.67 9.52 C8.78 10.14, 10.55 10.81, 11.13 11.06 M0 0 C0.3 0.73, 1.05 3.17, 1.79 4.4 C2.54 5.63, 3.49 6.52, 4.47 7.38 C5.45 8.23, 6.56 8.91, 7.67 9.52 C8.78 10.14, 10.55 10.81, 11.13 11.06" stroke="#E1E1E1" stroke-width="4" fill="none"></path></g></g><mask></mask><g stroke-linecap="round"><g transform="translate(126.81943054671714 12.757435999706615) rotate(5.4350786946580225 -4.875525890856345 6.257050797766368)"><path d="M0 0 C-0.26 0.83, -0.92 3.59, -1.57 4.98 C-2.22 6.37, -3.06 7.38, -3.92 8.34 C-4.77 9.31, -5.75 10.08, -6.72 10.77 C-7.69 11.47, -9.25 12.22, -9.75 12.51 M0 0 C-0.26 0.83, -0.92 3.59, -1.57 4.98 C-2.22 6.37, -3.06 7.38, -3.92 8.34 C-4.77 9.31, -5.75 10.08, -6.72 10.77 C-7.69 11.47, -9.25 12.22, -9.75 12.51" stroke="#E1E1E1" stroke-width="4" fill="none"></path></g></g><mask></mask><g stroke-linecap="round"><g transform="translate(126.81803216579996 35.67678623850003) rotate(1.140710919561856 -5.161338198321175 -5.550615954624078)"><path d="M0 0 C-0.26 -0.79, -0.94 -3.39, -1.58 -4.72 C-2.22 -6.05, -2.97 -7.19, -3.81 -7.99 C-4.66 -8.8, -5.55 -9.03, -6.64 -9.55 C-7.72 -10.07, -9.71 -10.84, -10.32 -11.1 M0 0 C-0.26 -0.79, -0.94 -3.39, -1.58 -4.72 C-2.22 -6.05, -2.97 -7.19, -3.81 -7.99 C-4.66 -8.8, -5.55 -9.03, -6.64 -9.55 C-7.72 -10.07, -9.71 -10.84, -10.32 -11.1" stroke="#E1E1E1" stroke-width="4" fill="none"></path></g></g><mask></mask><g stroke-linecap="round"><g transform="translate(127.20016575728263 24.702852145806958) rotate(89.99999999999994 5.56356880709297 5.531840872879172)"><path d="M0 0 C0.3 0.73, 1.05 3.17, 1.79 4.4 C2.54 5.63, 3.49 6.52, 4.47 7.38 C5.45 8.23, 6.56 8.91, 7.67 9.52 C8.78 10.14, 10.55 10.81, 11.13 11.06 M0 0 C0.3 0.73, 1.05 3.17, 1.79 4.4 C2.54 5.63, 3.49 6.52, 4.47 7.38 C5.45 8.23, 6.56 8.91, 7.67 9.52 C8.78 10.14, 10.55 10.81, 11.13 11.06" stroke="#E1E1E1" stroke-width="4" fill="none"></path></g></g><mask></mask><g stroke-linecap="round"><g transform="translate(179.23666398034752 66.34604305704221) rotate(0 4.640857669369689 4.614391774557419)"><path d="M0 0 C0.25 0.61, 0.87 2.64, 1.5 3.67 C2.12 4.7, 2.91 5.44, 3.73 6.15 C4.54 6.87, 5.47 7.43, 6.4 7.94 C7.32 8.46, 8.8 9.01, 9.28 9.23 M0 0 C0.25 0.61, 0.87 2.64, 1.5 3.67 C2.12 4.7, 2.91 5.44, 3.73 6.15 C4.54 6.87, 5.47 7.43, 6.4 7.94 C7.32 8.46, 8.8 9.01, 9.28 9.23" stroke="#E1E1E1" stroke-width="4" fill="none"></path></g></g><mask></mask><g stroke-linecap="round"><g transform="translate(178.88832239338976 65.75345906938816) rotate(5.4350786946580225 -4.066925836154766 5.21932651312396)"><path d="M0 0 C-0.22 0.69, -0.77 2.99, -1.31 4.15 C-1.86 5.31, -2.55 6.15, -3.27 6.96 C-3.98 7.77, -4.8 8.41, -5.61 8.99 C-6.42 9.57, -7.71 10.2, -8.13 10.44 M0 0 C-0.22 0.69, -0.77 2.99, -1.31 4.15 C-1.86 5.31, -2.55 6.15, -3.27 6.96 C-3.98 7.77, -4.8 8.41, -5.61 8.99 C-6.42 9.57, -7.71 10.2, -8.13 10.44" stroke="#E1E1E1" stroke-width="4" fill="none"></path></g></g><mask></mask><g stroke-linecap="round"><g transform="translate(178.88715593225137 84.87166287358474) rotate(1.140710919561856 -4.305336519133533 -4.630053031770203)"><path d="M0 0 C-0.22 -0.66, -0.79 -2.83, -1.32 -3.94 C-1.85 -5.05, -2.48 -6, -3.18 -6.67 C-3.88 -7.34, -4.63 -7.54, -5.54 -7.97 C-6.44 -8.4, -8.1 -9.04, -8.61 -9.26 M0 0 C-0.22 -0.66, -0.79 -2.83, -1.32 -3.94 C-1.85 -5.05, -2.48 -6, -3.18 -6.67 C-3.88 -7.34, -4.63 -7.54, -5.54 -7.97 C-6.44 -8.4, -8.1 -9.04, -8.61 -9.26" stroke="#E1E1E1" stroke-width="4" fill="none"></path></g></g><mask></mask><g stroke-linecap="round"><g transform="translate(179.20591313113695 75.71774243814303) rotate(89.99999999999994 4.640857669369689 4.614391774557419)"><path d="M0 0 C0.25 0.61, 0.87 2.64, 1.5 3.67 C2.12 4.7, 2.91 5.44, 3.73 6.15 C4.54 6.87, 5.47 7.43, 6.4 7.94 C7.32 8.46, 8.8 9.01, 9.28 9.23 M0 0 C0.25 0.61, 0.87 2.64, 1.5 3.67 C2.12 4.7, 2.91 5.44, 3.73 6.15 C4.54 6.87, 5.47 7.43, 6.4 7.94 C7.32 8.46, 8.8 9.01, 9.28 9.23" stroke="#E1E1E1" stroke-width="4" fill="none"></path></g></g><mask></mask><g stroke-linecap="round"><g transform="translate(175.11638347992206 113.41173578223612) rotate(0 9.111086700710779 9.059127972513181)"><path d="M0 0 C0.49 1.2, 1.72 5.19, 2.94 7.21 C4.16 9.22, 5.71 10.68, 7.32 12.08 C8.92 13.48, 10.74 14.59, 12.56 15.6 C14.38 16.6, 17.28 17.7, 18.22 18.12 M0 0 C0.49 1.2, 1.72 5.19, 2.94 7.21 C4.16 9.22, 5.71 10.68, 7.32 12.08 C8.92 13.48, 10.74 14.59, 12.56 15.6 C14.38 16.6, 17.28 17.7, 18.22 18.12" stroke="#E1E1E1" stroke-width="4" fill="none"></path></g></g><mask></mask><g stroke-linecap="round"><g transform="translate(174.4325076478352 112.24835511563975) rotate(5.4350786946580225 -7.984324566368219 10.246756045601714)"><path d="M0 0 C-0.43 1.36, -1.5 5.87, -2.57 8.15 C-3.64 10.43, -5.01 12.08, -6.41 13.66 C-7.82 15.25, -9.42 16.5, -11.01 17.64 C-12.6 18.78, -15.14 20.02, -15.97 20.49 M0 0 C-0.43 1.36, -1.5 5.87, -2.57 8.15 C-3.64 10.43, -5.01 12.08, -6.41 13.66 C-7.82 15.25, -9.42 16.5, -11.01 17.64 C-12.6 18.78, -15.14 20.02, -15.97 20.49" stroke="#E1E1E1" stroke-width="4" fill="none"></path></g></g><mask></mask><g stroke-linecap="round"><g transform="translate(174.4302176123891 149.78185104066193) rotate(1.140710919561856 -8.452380377976468 -9.089874675487863)"><path d="M0 0 C-0.43 -1.29, -1.55 -5.55, -2.59 -7.73 C-3.63 -9.91, -4.87 -11.77, -6.25 -13.09 C-7.63 -14.41, -9.09 -14.79, -10.87 -15.64 C-12.65 -16.49, -15.9 -17.76, -16.9 -18.18 M0 0 C-0.43 -1.29, -1.55 -5.55, -2.59 -7.73 C-3.63 -9.91, -4.87 -11.77, -6.25 -13.09 C-7.63 -14.41, -9.09 -14.79, -10.87 -15.64 C-12.65 -16.49, -15.9 -17.76, -16.9 -18.18" stroke="#E1E1E1" stroke-width="4" fill="none"></path></g></g><mask></mask><g stroke-linecap="round"><g transform="translate(175.0560123862068 131.81056885952972) rotate(89.99999999999994 9.111086700710779 9.059127972513181)"><path d="M0 0 C0.49 1.2, 1.72 5.19, 2.94 7.21 C4.16 9.22, 5.71 10.68, 7.32 12.08 C8.92 13.48, 10.74 14.59, 12.56 15.6 C14.38 16.6, 17.28 17.7, 18.22 18.12 M0 0 C0.49 1.2, 1.72 5.19, 2.94 7.21 C4.16 9.22, 5.71 10.68, 7.32 12.08 C8.92 13.48, 10.74 14.59, 12.56 15.6 C14.38 16.6, 17.28 17.7, 18.22 18.12" stroke="#E1E1E1" stroke-width="4" fill="none"></path></g></g><mask></mask><g stroke-linecap="round"><g transform="translate(121.8460103804085 131.64345838784453) rotate(0 7.501013757209307 7.458236957051454)"><path d="M0 0 C0.4 0.99, 1.41 4.27, 2.42 5.93 C3.42 7.59, 4.7 8.79, 6.03 9.95 C7.35 11.1, 8.85 12.01, 10.34 12.84 C11.84 13.67, 14.23 14.57, 15 14.92 M0 0 C0.4 0.99, 1.41 4.27, 2.42 5.93 C3.42 7.59, 4.7 8.79, 6.03 9.95 C7.35 11.1, 8.85 12.01, 10.34 12.84 C11.84 13.67, 14.23 14.57, 15 14.92" stroke="#E1E1E1" stroke-width="4" fill="none"></path></g></g><mask></mask><g stroke-linecap="round"><g transform="translate(121.28298621071085 130.68566546240487) rotate(5.4350786946580225 -6.573368290928457 8.435992389231671)"><path d="M0 0 C-0.35 1.12, -1.24 4.84, -2.12 6.71 C-3 8.59, -4.12 9.95, -5.28 11.25 C-6.44 12.55, -7.75 13.59, -9.06 14.52 C-10.37 15.46, -12.47 16.48, -13.15 16.87 M0 0 C-0.35 1.12, -1.24 4.84, -2.12 6.71 C-3 8.59, -4.12 9.95, -5.28 11.25 C-6.44 12.55, -7.75 13.59, -9.06 14.52 C-10.37 15.46, -12.47 16.48, -13.15 16.87" stroke="#E1E1E1" stroke-width="4" fill="none"></path></g></g><mask></mask><g stroke-linecap="round"><g transform="translate(121.2811008607026 161.58639975876355) rotate(1.140710919561856 -6.958711246971383 -7.483550231919509)"><path d="M0 0 C-0.36 -1.06, -1.27 -4.57, -2.13 -6.36 C-2.99 -8.16, -4.01 -9.69, -5.14 -10.78 C-6.28 -11.86, -7.49 -12.18, -8.95 -12.88 C-10.41 -13.58, -13.09 -14.62, -13.92 -14.97 M0 0 C-0.36 -1.06, -1.27 -4.57, -2.13 -6.36 C-2.99 -8.16, -4.01 -9.69, -5.14 -10.78 C-6.28 -11.86, -7.49 -12.18, -8.95 -12.88 C-10.41 -13.58, -13.09 -14.62, -13.92 -14.97" stroke="#E1E1E1" stroke-width="4" fill="none"></path></g></g><mask></mask><g stroke-linecap="round"><g transform="translate(121.7963078126057 146.7909270228002) rotate(89.99999999999994 7.501013757209307 7.458236957051454)"><path d="M0 0 C0.4 0.99, 1.41 4.27, 2.42 5.93 C3.42 7.59, 4.7 8.79, 6.03 9.95 C7.35 11.1, 8.85 12.01, 10.34 12.84 C11.84 13.67, 14.23 14.57, 15 14.92 M0 0 C0.4 0.99, 1.41 4.27, 2.42 5.93 C3.42 7.59, 4.7 8.79, 6.03 9.95 C7.35 11.1, 8.85 12.01, 10.34 12.84 C11.84 13.67, 14.23 14.57, 15 14.92" stroke="#E1E1E1" stroke-width="4" fill="none"></path></g></g><mask></mask></svg>