<svg version="1.1" xmlns="http://www.w3.org/2000/svg" viewBox="0 0 544.3434934487263 892.398663317086" width="544.3434934487263" height="892.398663317086" class="excalidraw-svg"><!-- svg-source:excalidraw --><metadata></metadata><defs><style class="style-fonts">
      </style></defs><rect x="0" y="0" width="544.3434934487263" height="892.398663317086" fill="#000000"></rect><g stroke-linecap="round"><g transform="translate(298.34005107132117 571.9987285528708) rotate(0 -101.08093059772617 126.20436177030129)"><path d="M0 0 C-5.35 -0.99, -20.56 -4.97, -32.12 -5.97 C-43.68 -6.96, -56.68 -7.91, -69.36 -5.97 C-82.04 -4.02, -94.54 -1.02, -108.19 5.7 C-121.83 12.41, -139.2 23.64, -151.23 34.31 C-163.27 44.99, -173.26 58.95, -180.4 69.73 C-187.54 80.51, -190.45 88.44, -194.08 98.98 C-197.71 109.52, -200.83 119.89, -202.16 132.96 C-203.5 146.04, -203.92 164.1, -202.09 177.42 C-200.26 190.74, -195.54 202.47, -191.19 212.89 C-186.84 223.3, -181.13 232.33, -175.99 239.91 C-170.86 247.49, -162.97 255.3, -160.37 258.38 M0 0 C-5.35 -0.99, -20.56 -4.97, -32.12 -5.97 C-43.68 -6.96, -56.68 -7.91, -69.36 -5.97 C-82.04 -4.02, -94.54 -1.02, -108.19 5.7 C-121.83 12.41, -139.2 23.64, -151.23 34.31 C-163.27 44.99, -173.26 58.95, -180.4 69.73 C-187.54 80.51, -190.45 88.44, -194.08 98.98 C-197.71 109.52, -200.83 119.89, -202.16 132.96 C-203.5 146.04, -203.92 164.1, -202.09 177.42 C-200.26 190.74, -195.54 202.47, -191.19 212.89 C-186.84 223.3, -181.13 232.33, -175.99 239.91 C-170.86 247.49, -162.97 255.3, -160.37 258.38" stroke="#E1E1E1" stroke-width="4" fill="none"></path></g></g><mask></mask><g stroke-linecap="round"><g transform="translate(104.1135501702841 774.4215898482574) rotate(0 35.41699561873533 -32.32448124696168)"><path d="M0 0 C5.72 -0.2, 26.49 -0.77, 34.29 -1.17 C42.09 -1.58, 42.29 0.07, 46.79 -2.44 C51.29 -4.95, 56.08 -11.08, 61.32 -16.23 C66.55 -21.38, 76.86 -29.17, 78.18 -33.35 C79.5 -37.52, 73.31 -38.28, 69.23 -41.28 C65.14 -44.27, 59.06 -50.14, 53.66 -51.32 C48.25 -52.5, 43.69 -50.05, 36.79 -48.38 C29.9 -46.72, 18.04 -40.92, 12.28 -41.33 C6.52 -41.73, 5.51 -46.92, 2.24 -50.81 C-1.03 -54.7, -5.75 -62.34, -7.35 -64.65 M0 0 C5.72 -0.2, 26.49 -0.77, 34.29 -1.17 C42.09 -1.58, 42.29 0.07, 46.79 -2.44 C51.29 -4.95, 56.08 -11.08, 61.32 -16.23 C66.55 -21.38, 76.86 -29.17, 78.18 -33.35 C79.5 -37.52, 73.31 -38.28, 69.23 -41.28 C65.14 -44.27, 59.06 -50.14, 53.66 -51.32 C48.25 -52.5, 43.69 -50.05, 36.79 -48.38 C29.9 -46.72, 18.04 -40.92, 12.28 -41.33 C6.52 -41.73, 5.51 -46.92, 2.24 -50.81 C-1.03 -54.7, -5.75 -62.34, -7.35 -64.65" stroke="#E1E1E1" stroke-width="4" fill="none"></path></g></g><mask></mask><g stroke-linecap="round"><g transform="translate(317.39229019777423 634.6630680319844) rotate(0 30.06051071744517 -37.95752166505393)"><path d="M0 0 C-2.18 -2.24, -9.49 -7.95, -13.08 -13.43 C-16.67 -18.91, -19.99 -27.79, -21.54 -32.87 C-23.08 -37.95, -25.29 -41.83, -22.34 -43.9 C-19.39 -45.97, -8.3 -44.57, -3.83 -45.28 C0.65 -45.98, 1.85 -47.38, 4.51 -48.13 C7.17 -48.88, 9.1 -49.73, 12.15 -49.75 C15.21 -49.77, 20.22 -49.78, 22.84 -48.23 C25.46 -46.69, 25.08 -40.94, 27.87 -40.49 C30.66 -40.04, 34.49 -43.23, 39.57 -45.54 C44.65 -47.84, 51.2 -49.24, 58.35 -54.3 C65.5 -59.37, 78.44 -72.31, 82.46 -75.92 M0 0 C-2.18 -2.24, -9.49 -7.95, -13.08 -13.43 C-16.67 -18.91, -19.99 -27.79, -21.54 -32.87 C-23.08 -37.95, -25.29 -41.83, -22.34 -43.9 C-19.39 -45.97, -8.3 -44.57, -3.83 -45.28 C0.65 -45.98, 1.85 -47.38, 4.51 -48.13 C7.17 -48.88, 9.1 -49.73, 12.15 -49.75 C15.21 -49.77, 20.22 -49.78, 22.84 -48.23 C25.46 -46.69, 25.08 -40.94, 27.87 -40.49 C30.66 -40.04, 34.49 -43.23, 39.57 -45.54 C44.65 -47.84, 51.2 -49.24, 58.35 -54.3 C65.5 -59.37, 78.44 -72.31, 82.46 -75.92" stroke="#E1E1E1" stroke-width="4" fill="none"></path></g></g><mask></mask><g stroke-linecap="round"><g transform="translate(417.4509117232113 575.1256359646244) rotate(0 -43.15375310929653 51.04712978599713)"><path d="M0 0 C-2.5 2.29, -10.4 8.32, -14.99 13.77 C-19.59 19.22, -23.53 25.39, -27.56 32.7 C-31.6 40.01, -38.41 52.85, -39.19 57.64 C-39.98 62.42, -34.78 59.7, -32.26 61.41 C-29.75 63.12, -25.53 64.71, -24.08 67.91 C-22.63 71.12, -21.88 77.23, -23.57 80.64 C-25.25 84.05, -31.26 84.81, -34.18 88.39 C-37.1 91.97, -38.69 101.18, -41.09 102.09 C-43.48 103.01, -45.46 97.92, -48.55 93.89 C-51.63 89.86, -55.34 81.6, -59.59 77.92 C-63.85 74.25, -69.62 73.83, -74.07 71.84 C-78.52 69.84, -84.27 66.93, -86.31 65.95 M0 0 C-2.5 2.29, -10.4 8.32, -14.99 13.77 C-19.59 19.22, -23.53 25.39, -27.56 32.7 C-31.6 40.01, -38.41 52.85, -39.19 57.64 C-39.98 62.42, -34.78 59.7, -32.26 61.41 C-29.75 63.12, -25.53 64.71, -24.08 67.91 C-22.63 71.12, -21.88 77.23, -23.57 80.64 C-25.25 84.05, -31.26 84.81, -34.18 88.39 C-37.1 91.97, -38.69 101.18, -41.09 102.09 C-43.48 103.01, -45.46 97.92, -48.55 93.89 C-51.63 89.86, -55.34 81.6, -59.59 77.92 C-63.85 74.25, -69.62 73.83, -74.07 71.84 C-78.52 69.84, -84.27 66.93, -86.31 65.95" stroke="#E1E1E1" stroke-width="4" fill="none"></path></g></g><mask></mask><g stroke-linecap="round"><g transform="translate(384.58361540427296 571.4245760386142) rotate(0 -1.2861856162872343 17.712162487909417)"><path d="M0 0 C-1.55 -0.95, -5.7 -4.13, -9.28 -5.67 C-12.86 -7.22, -18.22 -9.1, -21.47 -9.29 C-24.72 -9.49, -27.68 -8.99, -28.79 -6.85 C-29.89 -4.7, -29.27 0.22, -28.1 3.59 C-26.93 6.97, -24.61 9.7, -21.77 13.43 C-18.92 17.16, -14.69 22.12, -11.03 25.95 C-7.37 29.78, -4.33 33.33, 0.19 36.4 C4.72 39.46, 11.76 42.95, 16.1 44.34 C20.43 45.72, 24.61 46.08, 26.22 44.72 C27.82 43.35, 26.51 39.14, 25.73 36.15 C24.95 33.17, 23 29.48, 21.55 26.8 C20.1 24.13, 17.78 21.23, 17.03 20.12 M0 0 C-1.55 -0.95, -5.7 -4.13, -9.28 -5.67 C-12.86 -7.22, -18.22 -9.1, -21.47 -9.29 C-24.72 -9.49, -27.68 -8.99, -28.79 -6.85 C-29.89 -4.7, -29.27 0.22, -28.1 3.59 C-26.93 6.97, -24.61 9.7, -21.77 13.43 C-18.92 17.16, -14.69 22.12, -11.03 25.95 C-7.37 29.78, -4.33 33.33, 0.19 36.4 C4.72 39.46, 11.76 42.95, 16.1 44.34 C20.43 45.72, 24.61 46.08, 26.22 44.72 C27.82 43.35, 26.51 39.14, 25.73 36.15 C24.95 33.17, 23 29.48, 21.55 26.8 C20.1 24.13, 17.78 21.23, 17.03 20.12" stroke="#E1E1E1" stroke-width="4" fill="none"></path></g></g><mask></mask><g stroke-linecap="round"><g transform="translate(441.84752489748945 522.8884555939179) rotate(0 4.060214145830923 36.690457576506915)"><path d="M0 0 C1.18 0.79, 5.46 1.95, 7.07 4.74 C8.67 7.54, 9.54 13.25, 9.64 16.76 C9.74 20.27, 6.62 23.77, 7.67 25.79 C8.71 27.82, 14.4 26.97, 15.93 28.91 C17.46 30.85, 17.75 35.16, 16.86 37.44 C15.96 39.71, 11.15 40.56, 10.54 42.56 C9.94 44.56, 12.89 47.15, 13.21 49.42 C13.54 51.69, 11.88 53.6, 12.5 56.17 C13.12 58.75, 16.81 62.19, 16.93 64.87 C17.06 67.55, 15.34 70.82, 13.25 72.24 C11.15 73.66, 7.58 73.67, 4.38 73.38 C1.18 73.09, -3.76 72.15, -5.95 70.52 C-8.15 68.89, -8.34 64.75, -8.81 63.6 M0 0 C1.18 0.79, 5.46 1.95, 7.07 4.74 C8.67 7.54, 9.54 13.25, 9.64 16.76 C9.74 20.27, 6.62 23.77, 7.67 25.79 C8.71 27.82, 14.4 26.97, 15.93 28.91 C17.46 30.85, 17.75 35.16, 16.86 37.44 C15.96 39.71, 11.15 40.56, 10.54 42.56 C9.94 44.56, 12.89 47.15, 13.21 49.42 C13.54 51.69, 11.88 53.6, 12.5 56.17 C13.12 58.75, 16.81 62.19, 16.93 64.87 C17.06 67.55, 15.34 70.82, 13.25 72.24 C11.15 73.66, 7.58 73.67, 4.38 73.38 C1.18 73.09, -3.76 72.15, -5.95 70.52 C-8.15 68.89, -8.34 64.75, -8.81 63.6" stroke="#E1E1E1" stroke-width="4" fill="none"></path></g></g><mask></mask><g stroke-linecap="round"><g transform="translate(432.9486964113924 586.561440092007) rotate(0 -24.179596478615863 -36.604950474966515)"><path d="M0 0 C-0.94 -0.18, -3.41 0.12, -5.62 -1.05 C-7.84 -2.22, -11.81 -4.4, -13.29 -7 C-14.77 -9.6, -12.91 -14.33, -14.51 -16.66 C-16.1 -19, -20.96 -18.77, -22.86 -21.02 C-24.76 -23.27, -23.99 -28.8, -25.91 -30.15 C-27.84 -31.49, -31.53 -28.81, -34.39 -29.09 C-37.25 -29.37, -40.6 -30.06, -43.05 -31.82 C-45.5 -33.57, -47.88 -36.8, -49.09 -39.63 C-50.3 -42.46, -49.29 -46.3, -50.31 -48.78 C-51.34 -51.26, -54.16 -51.87, -55.26 -54.51 C-56.35 -57.15, -57.66 -61.93, -56.88 -64.64 C-56.09 -67.35, -53.21 -69.61, -50.54 -70.76 C-47.87 -71.92, -43.56 -72.66, -40.84 -71.58 C-38.12 -70.5, -36.67 -65.32, -34.23 -64.29 C-31.79 -63.26, -28.22 -64.1, -26.18 -65.39 C-24.15 -66.68, -24.01 -70.72, -22.04 -72.02 C-20.07 -73.33, -16.67 -73.87, -14.35 -73.21 C-12.02 -72.55, -9.27 -70.07, -8.08 -68.08 C-6.89 -66.1, -8.69 -61.83, -7.23 -61.29 C-5.76 -60.74, -1.89 -64.35, 0.73 -64.83 C3.35 -65.3, 7.22 -64.26, 8.52 -64.15 M0 0 C-0.94 -0.18, -3.41 0.12, -5.62 -1.05 C-7.84 -2.22, -11.81 -4.4, -13.29 -7 C-14.77 -9.6, -12.91 -14.33, -14.51 -16.66 C-16.1 -19, -20.96 -18.77, -22.86 -21.02 C-24.76 -23.27, -23.99 -28.8, -25.91 -30.15 C-27.84 -31.49, -31.53 -28.81, -34.39 -29.09 C-37.25 -29.37, -40.6 -30.06, -43.05 -31.82 C-45.5 -33.57, -47.88 -36.8, -49.09 -39.63 C-50.3 -42.46, -49.29 -46.3, -50.31 -48.78 C-51.34 -51.26, -54.16 -51.87, -55.26 -54.51 C-56.35 -57.15, -57.66 -61.93, -56.88 -64.64 C-56.09 -67.35, -53.21 -69.61, -50.54 -70.76 C-47.87 -71.92, -43.56 -72.66, -40.84 -71.58 C-38.12 -70.5, -36.67 -65.32, -34.23 -64.29 C-31.79 -63.26, -28.22 -64.1, -26.18 -65.39 C-24.15 -66.68, -24.01 -70.72, -22.04 -72.02 C-20.07 -73.33, -16.67 -73.87, -14.35 -73.21 C-12.02 -72.55, -9.27 -70.07, -8.08 -68.08 C-6.89 -66.1, -8.69 -61.83, -7.23 -61.29 C-5.76 -60.74, -1.89 -64.35, 0.73 -64.83 C3.35 -65.3, 7.22 -64.26, 8.52 -64.15" stroke="#E1E1E1" stroke-width="4" fill="none"></path></g></g><mask></mask><g stroke-linecap="round"><g transform="translate(394.54410975314687 656.9111619311237) rotate(0 6.892029679218504 55.516012445407824)"><path d="M0 0 C1.28 3.08, 5.52 11.49, 7.68 18.47 C9.84 25.45, 11.97 33.78, 12.98 41.87 C14 49.96, 13.69 59.79, 13.78 67.02 C13.88 74.26, 14.62 77.93, 13.55 85.26 C12.48 92.6, 8.39 106.74, 7.36 111.03 M0 0 C1.28 3.08, 5.52 11.49, 7.68 18.47 C9.84 25.45, 11.97 33.78, 12.98 41.87 C14 49.96, 13.69 59.79, 13.78 67.02 C13.88 74.26, 14.62 77.93, 13.55 85.26 C12.48 92.6, 8.39 106.74, 7.36 111.03" stroke="#E1E1E1" stroke-width="4" fill="none"></path></g></g><mask></mask><g stroke-linecap="round"><g transform="translate(373.86272147060237 772.7989101528668) rotate(0 19.16558554385363 51.63432817775913)"><path d="M0 0 C5.39 -0.66, 24.24 -3.24, 32.37 -3.98 C40.5 -4.72, 43.28 -4.07, 48.79 -4.45 C54.3 -4.83, 63.29 -7.54, 65.43 -6.26 C67.57 -4.98, 63.47 -0.85, 61.63 3.24 C59.79 7.33, 53.98 14.17, 54.39 18.29 C54.8 22.41, 60.08 23.86, 64.1 27.95 C68.12 32.03, 78.17 39.8, 78.53 42.82 C78.89 45.85, 70.84 45.11, 66.25 46.1 C61.66 47.09, 54.61 48.28, 50.97 48.77 C47.33 49.25, 44.82 47.23, 44.4 48.99 C43.98 50.75, 46.53 53.99, 48.46 59.32 C50.39 64.66, 54.17 76.05, 55.98 80.98 C57.8 85.91, 61.93 88.8, 59.37 88.92 C56.8 89.04, 48.97 84.17, 40.6 81.71 C32.24 79.25, 14.66 73.39, 9.17 74.15 C3.67 74.92, 7.71 80.98, 7.64 86.29 C7.57 91.6, 10.75 104.96, 8.75 106 C6.76 107.03, -0.15 97.1, -4.31 92.52 C-8.47 87.93, -13.34 79.45, -16.2 78.49 C-19.06 77.53, -18.74 83.21, -21.47 86.76 C-24.19 90.3, -29.6 95.96, -32.54 99.75 C-35.47 103.55, -37.87 110.37, -39.08 109.53 C-40.3 108.69, -39.76 102.71, -39.84 94.73 C-39.92 86.74, -39.5 70.87, -39.56 61.61 C-39.61 52.35, -40.09 42.92, -40.2 39.18 M0 0 C5.39 -0.66, 24.24 -3.24, 32.37 -3.98 C40.5 -4.72, 43.28 -4.07, 48.79 -4.45 C54.3 -4.83, 63.29 -7.54, 65.43 -6.26 C67.57 -4.98, 63.47 -0.85, 61.63 3.24 C59.79 7.33, 53.98 14.17, 54.39 18.29 C54.8 22.41, 60.08 23.86, 64.1 27.95 C68.12 32.03, 78.17 39.8, 78.53 42.82 C78.89 45.85, 70.84 45.11, 66.25 46.1 C61.66 47.09, 54.61 48.28, 50.97 48.77 C47.33 49.25, 44.82 47.23, 44.4 48.99 C43.98 50.75, 46.53 53.99, 48.46 59.32 C50.39 64.66, 54.17 76.05, 55.98 80.98 C57.8 85.91, 61.93 88.8, 59.37 88.92 C56.8 89.04, 48.97 84.17, 40.6 81.71 C32.24 79.25, 14.66 73.39, 9.17 74.15 C3.67 74.92, 7.71 80.98, 7.64 86.29 C7.57 91.6, 10.75 104.96, 8.75 106 C6.76 107.03, -0.15 97.1, -4.31 92.52 C-8.47 87.93, -13.34 79.45, -16.2 78.49 C-19.06 77.53, -18.74 83.21, -21.47 86.76 C-24.19 90.3, -29.6 95.96, -32.54 99.75 C-35.47 103.55, -37.87 110.37, -39.08 109.53 C-40.3 108.69, -39.76 102.71, -39.84 94.73 C-39.92 86.74, -39.5 70.87, -39.56 61.61 C-39.61 52.35, -40.09 42.92, -40.2 39.18" stroke="#E1E1E1" stroke-width="4" fill="none"></path></g></g><mask></mask><g stroke-linecap="round"><g transform="translate(332.28198612185525 859.3384728288269) rotate(0 -91.56897506690898 0.35560456689097464)"><path d="M0 0 C-5.24 2.19, -19.75 9.81, -31.44 13.14 C-43.14 16.47, -56.92 19.34, -70.16 19.98 C-83.39 20.62, -98.05 19.43, -110.84 16.97 C-123.63 14.5, -134.87 11.22, -146.92 5.18 C-158.97 -0.86, -177.1 -15.19, -183.14 -19.27 M0 0 C-5.24 2.19, -19.75 9.81, -31.44 13.14 C-43.14 16.47, -56.92 19.34, -70.16 19.98 C-83.39 20.62, -98.05 19.43, -110.84 16.97 C-123.63 14.5, -134.87 11.22, -146.92 5.18 C-158.97 -0.86, -177.1 -15.19, -183.14 -19.27" stroke="#E1E1E1" stroke-width="4" fill="none"></path></g></g><mask></mask><g stroke-linecap="round"><g transform="translate(203.87337552891705 870.5820405390526) rotate(0 20.422515963725374 -134.85746673482623)"><path d="M0 0 C7.72 -3.65, 36.38 -17.12, 46.34 -21.9 C56.31 -26.69, 57.35 -25.75, 59.8 -28.7 C62.25 -31.65, 60.97 -34.75, 61.05 -39.61 C61.13 -44.48, 60.46 -53.23, 60.26 -57.88 C60.05 -62.52, 61.83 -65.35, 59.8 -67.48 C57.77 -69.61, 53.67 -69.58, 48.07 -70.64 C42.48 -71.71, 30.07 -71.57, 26.26 -73.87 C22.45 -76.18, 25.05 -80.09, 25.2 -84.48 C25.35 -88.86, 26.64 -95.53, 27.18 -100.18 C27.72 -104.83, 29.45 -109.14, 28.43 -112.4 C27.42 -115.65, 24.16 -116.83, 21.1 -119.72 C18.05 -122.61, 11.73 -126.49, 10.1 -129.73 C8.47 -132.96, 10.52 -135.04, 11.32 -139.13 C12.12 -143.22, 16.92 -150.48, 14.91 -154.28 C12.9 -158.08, 4.04 -159.64, -0.74 -161.93 C-5.51 -164.22, -12.8 -165.77, -13.73 -168.03 C-14.66 -170.29, -10.07 -172.49, -6.31 -175.5 C-2.56 -178.51, 5.99 -182.21, 8.8 -186.1 C11.62 -190, 10.36 -194.58, 10.56 -198.88 C10.77 -203.18, 11.85 -208.18, 10.04 -211.91 C8.22 -215.63, 3.47 -218.08, -0.34 -221.23 C-4.14 -224.39, -9.47 -228.23, -12.79 -230.81 C-16.1 -233.4, -19.92 -233.81, -20.2 -236.76 C-20.49 -239.72, -16.39 -244.58, -14.52 -248.55 C-12.65 -252.51, -8.31 -257.03, -8.99 -260.55 C-9.66 -264.08, -16.98 -268.19, -18.57 -269.71 M0 0 C7.72 -3.65, 36.38 -17.12, 46.34 -21.9 C56.31 -26.69, 57.35 -25.75, 59.8 -28.7 C62.25 -31.65, 60.97 -34.75, 61.05 -39.61 C61.13 -44.48, 60.46 -53.23, 60.26 -57.88 C60.05 -62.52, 61.83 -65.35, 59.8 -67.48 C57.77 -69.61, 53.67 -69.58, 48.07 -70.64 C42.48 -71.71, 30.07 -71.57, 26.26 -73.87 C22.45 -76.18, 25.05 -80.09, 25.2 -84.48 C25.35 -88.86, 26.64 -95.53, 27.18 -100.18 C27.72 -104.83, 29.45 -109.14, 28.43 -112.4 C27.42 -115.65, 24.16 -116.83, 21.1 -119.72 C18.05 -122.61, 11.73 -126.49, 10.1 -129.73 C8.47 -132.96, 10.52 -135.04, 11.32 -139.13 C12.12 -143.22, 16.92 -150.48, 14.91 -154.28 C12.9 -158.08, 4.04 -159.64, -0.74 -161.93 C-5.51 -164.22, -12.8 -165.77, -13.73 -168.03 C-14.66 -170.29, -10.07 -172.49, -6.31 -175.5 C-2.56 -178.51, 5.99 -182.21, 8.8 -186.1 C11.62 -190, 10.36 -194.58, 10.56 -198.88 C10.77 -203.18, 11.85 -208.18, 10.04 -211.91 C8.22 -215.63, 3.47 -218.08, -0.34 -221.23 C-4.14 -224.39, -9.47 -228.23, -12.79 -230.81 C-16.1 -233.4, -19.92 -233.81, -20.2 -236.76 C-20.49 -239.72, -16.39 -244.58, -14.52 -248.55 C-12.65 -252.51, -8.31 -257.03, -8.99 -260.55 C-9.66 -264.08, -16.98 -268.19, -18.57 -269.71" stroke="#E1E1E1" stroke-width="4" fill="none"></path></g></g><mask></mask><g stroke-linecap="round"><g transform="translate(194.57055952889215 577.0215964382272) rotate(0 28.242165844399892 23.111621990966555)"><path d="M0 0 C2.2 2.12, 8.96 8.66, 13.18 12.7 C17.41 16.75, 23.39 20.23, 25.36 24.26 C27.33 28.29, 25.68 32.68, 25.01 36.91 C24.34 41.13, 20.37 46.98, 21.35 49.61 C22.32 52.24, 27.43 51.71, 30.84 52.7 C34.25 53.69, 38.66 54.91, 41.79 55.53 C44.93 56.16, 47.87 57.82, 49.65 56.45 C51.43 55.08, 51.35 51.15, 52.49 47.33 C53.63 43.51, 56.7 38.16, 56.48 33.52 C56.26 28.88, 53.09 24.33, 51.17 19.48 C49.25 14.63, 47.23 9.37, 44.97 4.42 C42.71 -0.53, 38.83 -7.79, 37.6 -10.23 M0 0 C2.2 2.12, 8.96 8.66, 13.18 12.7 C17.41 16.75, 23.39 20.23, 25.36 24.26 C27.33 28.29, 25.68 32.68, 25.01 36.91 C24.34 41.13, 20.37 46.98, 21.35 49.61 C22.32 52.24, 27.43 51.71, 30.84 52.7 C34.25 53.69, 38.66 54.91, 41.79 55.53 C44.93 56.16, 47.87 57.82, 49.65 56.45 C51.43 55.08, 51.35 51.15, 52.49 47.33 C53.63 43.51, 56.7 38.16, 56.48 33.52 C56.26 28.88, 53.09 24.33, 51.17 19.48 C49.25 14.63, 47.23 9.37, 44.97 4.42 C42.71 -0.53, 38.83 -7.79, 37.6 -10.23" stroke="#E1E1E1" stroke-width="4" fill="none"></path></g></g><mask></mask><g stroke-linecap="round"><g transform="translate(259.5527266838138 567.1579815386643) rotate(0 65.01340746529178 71.31218878149568)"><path d="M0 0 C1.12 3.09, 4.32 12.51, 6.74 18.53 C9.17 24.56, 12.64 32.19, 14.56 36.17 C16.47 40.14, 16.16 41.26, 18.21 42.4 C20.25 43.54, 25.44 41.08, 26.83 43.01 C28.22 44.94, 27.04 48.32, 26.55 53.97 C26.06 59.62, 25.9 72.14, 23.91 76.92 C21.92 81.7, 18.29 80.73, 14.62 82.65 C10.95 84.58, 5.76 87, 1.9 88.45 C-1.96 89.91, -6.58 89, -8.55 91.36 C-10.52 93.72, -9.15 96.4, -9.91 102.6 C-10.68 108.8, -12.58 122.99, -13.14 128.54 C-13.71 134.09, -15.12 135.41, -13.29 135.92 C-11.46 136.44, -7.13 133.71, -2.14 131.61 C2.84 129.52, 11.61 124.26, 16.62 123.36 C21.63 122.47, 23.79 125.24, 27.91 126.25 C32.03 127.27, 37.49 130.26, 41.35 129.45 C45.2 128.64, 47 125.15, 51.05 121.39 C55.09 117.64, 61.88 107.96, 65.64 106.92 C69.4 105.89, 71.45 112.18, 73.62 115.2 C75.79 118.23, 76.95 121.87, 78.64 125.06 C80.33 128.26, 81.15 133.65, 83.76 134.36 C86.36 135.07, 90.7 131.26, 94.26 129.34 C97.82 127.41, 102.35 122.36, 105.13 122.81 C107.92 123.25, 108.96 128.7, 110.97 132 C112.99 135.31, 114.64 142.48, 117.23 142.62 C119.83 142.77, 122.99 136.94, 126.53 132.88 C130.07 128.83, 135.69 121.74, 138.49 118.3 C141.28 114.85, 142.51 113.22, 143.32 112.2 M0 0 C1.12 3.09, 4.32 12.51, 6.74 18.53 C9.17 24.56, 12.64 32.19, 14.56 36.17 C16.47 40.14, 16.16 41.26, 18.21 42.4 C20.25 43.54, 25.44 41.08, 26.83 43.01 C28.22 44.94, 27.04 48.32, 26.55 53.97 C26.06 59.62, 25.9 72.14, 23.91 76.92 C21.92 81.7, 18.29 80.73, 14.62 82.65 C10.95 84.58, 5.76 87, 1.9 88.45 C-1.96 89.91, -6.58 89, -8.55 91.36 C-10.52 93.72, -9.15 96.4, -9.91 102.6 C-10.68 108.8, -12.58 122.99, -13.14 128.54 C-13.71 134.09, -15.12 135.41, -13.29 135.92 C-11.46 136.44, -7.13 133.71, -2.14 131.61 C2.84 129.52, 11.61 124.26, 16.62 123.36 C21.63 122.47, 23.79 125.24, 27.91 126.25 C32.03 127.27, 37.49 130.26, 41.35 129.45 C45.2 128.64, 47 125.15, 51.05 121.39 C55.09 117.64, 61.88 107.96, 65.64 106.92 C69.4 105.89, 71.45 112.18, 73.62 115.2 C75.79 118.23, 76.95 121.87, 78.64 125.06 C80.33 128.26, 81.15 133.65, 83.76 134.36 C86.36 135.07, 90.7 131.26, 94.26 129.34 C97.82 127.41, 102.35 122.36, 105.13 122.81 C107.92 123.25, 108.96 128.7, 110.97 132 C112.99 135.31, 114.64 142.48, 117.23 142.62 C119.83 142.77, 122.99 136.94, 126.53 132.88 C130.07 128.83, 135.69 121.74, 138.49 118.3 C141.28 114.85, 142.51 113.22, 143.32 112.2" stroke="#E1E1E1" stroke-width="4" fill="none"></path></g></g><mask></mask><g stroke-linecap="round"><g transform="translate(407.79356782826954 740.0549095984655) rotate(0 -70.84040668180182 -3.098375963059354)"><path d="M0 0 C-5.13 0.03, -23.57 0.15, -30.81 0.18 C-38.05 0.21, -40.86 -1.01, -43.43 0.18 C-45.99 1.36, -45.23 4.44, -46.2 7.28 C-47.18 10.13, -47.42 16.9, -49.28 17.25 C-51.13 17.6, -52.97 14.22, -57.34 9.39 C-61.71 4.55, -70.51 -6.29, -75.49 -11.76 C-80.48 -17.23, -84.19 -22.54, -87.26 -23.45 C-90.34 -24.36, -91.1 -19.75, -93.95 -17.22 C-96.81 -14.68, -100.55 -9.21, -104.39 -8.25 C-108.23 -7.3, -110.77 -9.37, -116.98 -11.48 C-123.2 -13.6, -137.56 -19.38, -141.68 -20.96 M0 0 C-5.13 0.03, -23.57 0.15, -30.81 0.18 C-38.05 0.21, -40.86 -1.01, -43.43 0.18 C-45.99 1.36, -45.23 4.44, -46.2 7.28 C-47.18 10.13, -47.42 16.9, -49.28 17.25 C-51.13 17.6, -52.97 14.22, -57.34 9.39 C-61.71 4.55, -70.51 -6.29, -75.49 -11.76 C-80.48 -17.23, -84.19 -22.54, -87.26 -23.45 C-90.34 -24.36, -91.1 -19.75, -93.95 -17.22 C-96.81 -14.68, -100.55 -9.21, -104.39 -8.25 C-108.23 -7.3, -110.77 -9.37, -116.98 -11.48 C-123.2 -13.6, -137.56 -19.38, -141.68 -20.96" stroke="#E1E1E1" stroke-width="4" fill="none"></path></g></g><mask></mask><g stroke-linecap="round"><g transform="translate(305.28827190549356 870.5407568978748) rotate(0 -22.55139927916575 -70.55145483957827)"><path d="M0 0 C0.82 -3.9, 3.33 -16.68, 4.94 -23.42 C6.54 -30.16, 10.01 -36.34, 9.64 -40.44 C9.27 -44.54, 4.98 -45.71, 2.7 -48.04 C0.43 -50.37, -2.48 -51.17, -4.02 -54.43 C-5.56 -57.68, -5.63 -62.45, -6.55 -67.57 C-7.46 -72.69, -7.02 -81.59, -9.52 -85.14 C-12.02 -88.68, -15.49 -87.48, -21.54 -88.85 C-27.58 -90.22, -41.04 -91.04, -45.8 -93.37 C-50.56 -95.69, -48.6 -94.82, -50.09 -102.78 C-51.58 -110.73, -53.97 -134.72, -54.74 -141.1 M0 0 C0.82 -3.9, 3.33 -16.68, 4.94 -23.42 C6.54 -30.16, 10.01 -36.34, 9.64 -40.44 C9.27 -44.54, 4.98 -45.71, 2.7 -48.04 C0.43 -50.37, -2.48 -51.17, -4.02 -54.43 C-5.56 -57.68, -5.63 -62.45, -6.55 -67.57 C-7.46 -72.69, -7.02 -81.59, -9.52 -85.14 C-12.02 -88.68, -15.49 -87.48, -21.54 -88.85 C-27.58 -90.22, -41.04 -91.04, -45.8 -93.37 C-50.56 -95.69, -48.6 -94.82, -50.09 -102.78 C-51.58 -110.73, -53.97 -134.72, -54.74 -141.1" stroke="#E1E1E1" stroke-width="4" fill="none"></path></g></g><mask></mask><g stroke-linecap="round"><g transform="translate(350.33326663698546 804.4746838746263) rotate(0 28.21915198085974 9.36413583379786)"><path d="M0 0 C1.17 5.62, 3.66 31.56, 7.01 33.69 C10.37 35.82, 13.4 13.9, 20.13 12.79 C26.85 11.67, 45.58 28.72, 47.38 27 C49.18 25.29, 29.4 8.08, 30.91 2.49 C32.42 -3.09, 58.79 -3.6, 56.44 -6.5 C54.09 -9.41, 23.41 -13.55, 16.81 -14.96 M0 0 C1.17 5.62, 3.66 31.56, 7.01 33.69 C10.37 35.82, 13.4 13.9, 20.13 12.79 C26.85 11.67, 45.58 28.72, 47.38 27 C49.18 25.29, 29.4 8.08, 30.91 2.49 C32.42 -3.09, 58.79 -3.6, 56.44 -6.5 C54.09 -9.41, 23.41 -13.55, 16.81 -14.96" stroke="#E1E1E1" stroke-width="4" fill="none"></path></g></g><mask></mask><g stroke-linecap="round"><g transform="translate(239.9587893894016 564.7540606129509) rotate(0 -59.65241567689263 -25.210466437568282)"><path d="M0 0 C0.77 -5.08, 7.64 -26.21, 4.59 -30.47 C1.54 -34.73, -13.6 -24.61, -18.28 -25.56 C-22.96 -26.52, -22.2 -32.05, -23.5 -36.19 C-24.8 -40.33, -23.36 -49.48, -26.08 -50.42 C-28.81 -51.36, -35.41 -45.03, -39.84 -41.85 C-44.28 -38.66, -48.49 -31.7, -52.67 -31.29 C-56.84 -30.88, -60.9 -36.41, -64.88 -39.4 C-68.86 -42.38, -73.39 -49.95, -76.55 -49.22 C-79.71 -48.5, -81.75 -39.18, -83.85 -35.06 C-85.95 -30.93, -85.41 -25.3, -89.15 -24.49 C-92.9 -23.67, -100.54 -27.62, -106.33 -30.17 C-112.12 -32.73, -120.97 -38.19, -123.9 -39.8 M0 0 C0.77 -5.08, 7.64 -26.21, 4.59 -30.47 C1.54 -34.73, -13.6 -24.61, -18.28 -25.56 C-22.96 -26.52, -22.2 -32.05, -23.5 -36.19 C-24.8 -40.33, -23.36 -49.48, -26.08 -50.42 C-28.81 -51.36, -35.41 -45.03, -39.84 -41.85 C-44.28 -38.66, -48.49 -31.7, -52.67 -31.29 C-56.84 -30.88, -60.9 -36.41, -64.88 -39.4 C-68.86 -42.38, -73.39 -49.95, -76.55 -49.22 C-79.71 -48.5, -81.75 -39.18, -83.85 -35.06 C-85.95 -30.93, -85.41 -25.3, -89.15 -24.49 C-92.9 -23.67, -100.54 -27.62, -106.33 -30.17 C-112.12 -32.73, -120.97 -38.19, -123.9 -39.8" stroke="#E1E1E1" stroke-width="4" fill="none"></path></g></g><mask></mask><g stroke-linecap="round"><g transform="translate(124.02771888145372 547.276144517656) rotate(0 -12.945208857376656 38.68552127376924)"><path d="M0 0 C0.42 1.67, 4.16 7.34, 2.55 10.05 C0.93 12.75, -4.26 14.2, -9.67 16.24 C-15.09 18.27, -28.66 19.6, -29.94 22.26 C-31.21 24.92, -21.77 28.79, -17.33 32.19 C-12.89 35.59, -3.34 39.17, -3.29 42.65 C-3.25 46.13, -12.69 49.82, -17.07 53.06 C-21.46 56.3, -30.14 59.68, -29.59 62.11 C-29.04 64.53, -19.4 65.07, -13.79 67.62 C-8.18 70.16, 1.07 75.75, 4.04 77.37 M0 0 C0.42 1.67, 4.16 7.34, 2.55 10.05 C0.93 12.75, -4.26 14.2, -9.67 16.24 C-15.09 18.27, -28.66 19.6, -29.94 22.26 C-31.21 24.92, -21.77 28.79, -17.33 32.19 C-12.89 35.59, -3.34 39.17, -3.29 42.65 C-3.25 46.13, -12.69 49.82, -17.07 53.06 C-21.46 56.3, -30.14 59.68, -29.59 62.11 C-29.04 64.53, -19.4 65.07, -13.79 67.62 C-8.18 70.16, 1.07 75.75, 4.04 77.37" stroke="#E1E1E1" stroke-width="4" fill="none"></path></g></g><mask></mask><g stroke-linecap="round"><g transform="translate(143.15359509117417 609.229725171955) rotate(0 27.35955854832102 -29.382399519057866)"><path d="M0 0 C0.36 -3.03, 3.7 -12.81, 2.15 -18.16 C0.59 -23.51, -9.95 -29.09, -9.33 -32.1 C-8.71 -35.1, 0.95 -35.31, 5.87 -36.2 C10.8 -37.09, 17.07 -34.94, 20.22 -37.44 C23.37 -39.95, 23.7 -47.69, 24.78 -51.24 C25.86 -54.8, 24.39 -58.16, 26.71 -58.76 C29.03 -59.37, 35.69 -55.97, 38.72 -54.86 C41.76 -53.75, 41.73 -51.86, 44.9 -52.09 C48.07 -52.33, 54.89 -56.95, 57.74 -56.27 C60.59 -55.58, 60.94 -50.84, 61.99 -47.99 C63.04 -45.14, 63.71 -40.64, 64.05 -39.17 M0 0 C0.36 -3.03, 3.7 -12.81, 2.15 -18.16 C0.59 -23.51, -9.95 -29.09, -9.33 -32.1 C-8.71 -35.1, 0.95 -35.31, 5.87 -36.2 C10.8 -37.09, 17.07 -34.94, 20.22 -37.44 C23.37 -39.95, 23.7 -47.69, 24.78 -51.24 C25.86 -54.8, 24.39 -58.16, 26.71 -58.76 C29.03 -59.37, 35.69 -55.97, 38.72 -54.86 C41.76 -53.75, 41.73 -51.86, 44.9 -52.09 C48.07 -52.33, 54.89 -56.95, 57.74 -56.27 C60.59 -55.58, 60.94 -50.84, 61.99 -47.99 C63.04 -45.14, 63.71 -40.64, 64.05 -39.17" stroke="#E1E1E1" stroke-width="4" fill="none"></path></g></g><mask></mask><g stroke-linecap="round"><g transform="translate(39.682912937819594 362.05076527835206) rotate(0 46.44096296397629 35.83895677381361)" fill-rule="evenodd"><path d="M0 0 C-1.5 12.48, -6.66 55.5, -8.98 74.89 C-11.29 94.27, -12.87 106.33, -13.9 116.3 C-14.93 126.27, -16.18 130.08, -15.17 134.71 C-14.15 139.33, -10.96 142.59, -7.78 144.06 C-4.61 145.54, 1.01 145.4, 3.86 143.54 C6.71 141.69, 6.95 141.03, 9.32 132.94 C11.68 124.84, 15.15 107.91, 18.04 94.97 C20.93 82.03, 24.65 55.99, 26.67 55.31 C28.69 54.63, 28.98 79.92, 30.13 90.89 C31.29 101.85, 32.45 112.61, 33.59 121.11 C34.73 129.6, 34.66 137.79, 36.97 141.87 C39.27 145.95, 43.72 145.69, 47.4 145.6 C51.08 145.51, 56.57 143.67, 59.07 141.34 C61.57 139.01, 61.79 138.45, 62.38 131.62 C62.98 124.78, 62.67 115.93, 62.61 100.36 C62.56 84.79, 62.1 55.06, 62.06 38.2 C62.02 21.35, 60.37 6.51, 62.37 -0.78 C64.38 -8.08, 67.95 -4.66, 74.1 -5.56 C80.24 -6.46, 92.43 -5.86, 99.26 -6.18 C106.09 -6.5, 111.26 -5.94, 115.08 -7.47 C118.89 -9.01, 121.14 -12.22, 122.14 -15.37 C123.14 -18.52, 122.84 -23.53, 121.07 -26.36 C119.29 -29.19, 116.34 -31.32, 111.49 -32.34 C106.64 -33.35, 99.5 -32.41, 91.96 -32.44 C84.42 -32.47, 73.23 -32.59, 66.27 -32.52 C59.31 -32.45, 52.4 -30.59, 50.2 -32.02 C47.99 -33.45, 52.43 -37.7, 53.04 -41.07 C53.66 -44.44, 54.61 -48.22, 53.88 -52.26 C53.16 -56.29, 51.26 -61.83, 48.7 -65.27 C46.14 -68.72, 42.27 -71.49, 38.52 -72.93 C34.77 -74.37, 30.23 -74.36, 26.22 -73.92 C22.21 -73.48, 17.78 -72.76, 14.48 -70.28 C11.19 -67.81, 8.39 -63.49, 6.45 -59.05 C4.51 -54.61, 2.48 -48.22, 2.84 -43.64 C3.19 -39.06, 9.16 -33.62, 8.55 -31.58 C7.95 -29.54, 2.55 -31.62, -0.78 -31.38 C-4.11 -31.14, -8.52 -31.94, -11.43 -30.15 C-14.35 -28.36, -16.42 -25.9, -18.26 -20.65 C-20.1 -15.4, -20.98 -6.81, -22.48 1.36 C-23.98 9.52, -26.13 20.58, -27.26 28.33 C-28.39 36.07, -30.61 43.33, -29.26 47.81 C-27.91 52.28, -22.54 54.17, -19.15 55.17 C-15.76 56.16, -11.23 56.1, -8.9 53.76 C-6.58 51.42, -6.5 48.66, -5.2 41.12 C-3.91 33.57, -2 15.37, -1.13 8.51 C-0.26 1.66, -0.19 1.42, 0 0" stroke="none" stroke-width="0" fill="#b74040" fill-rule="evenodd"></path><path d="M0 0 C-1.5 12.48, -6.66 55.5, -8.98 74.89 C-11.29 94.27, -12.87 106.33, -13.9 116.3 C-14.93 126.27, -16.18 130.08, -15.17 134.71 C-14.15 139.33, -10.96 142.59, -7.78 144.06 C-4.61 145.54, 1.01 145.4, 3.86 143.54 C6.71 141.69, 6.95 141.03, 9.32 132.94 C11.68 124.84, 15.15 107.91, 18.04 94.97 C20.93 82.03, 24.65 55.99, 26.67 55.31 C28.69 54.63, 28.98 79.92, 30.13 90.89 C31.29 101.85, 32.45 112.61, 33.59 121.11 C34.73 129.6, 34.66 137.79, 36.97 141.87 C39.27 145.95, 43.72 145.69, 47.4 145.6 C51.08 145.51, 56.57 143.67, 59.07 141.34 C61.57 139.01, 61.79 138.45, 62.38 131.62 C62.98 124.78, 62.67 115.93, 62.61 100.36 C62.56 84.79, 62.1 55.06, 62.06 38.2 C62.02 21.35, 60.37 6.51, 62.37 -0.78 C64.38 -8.08, 67.95 -4.66, 74.1 -5.56 C80.24 -6.46, 92.43 -5.86, 99.26 -6.18 C106.09 -6.5, 111.26 -5.94, 115.08 -7.47 C118.89 -9.01, 121.14 -12.22, 122.14 -15.37 C123.14 -18.52, 122.84 -23.53, 121.07 -26.36 C119.29 -29.19, 116.34 -31.32, 111.49 -32.34 C106.64 -33.35, 99.5 -32.41, 91.96 -32.44 C84.42 -32.47, 73.23 -32.59, 66.27 -32.52 C59.31 -32.45, 52.4 -30.59, 50.2 -32.02 C47.99 -33.45, 52.43 -37.7, 53.04 -41.07 C53.66 -44.44, 54.61 -48.22, 53.88 -52.26 C53.16 -56.29, 51.26 -61.83, 48.7 -65.27 C46.14 -68.72, 42.27 -71.49, 38.52 -72.93 C34.77 -74.37, 30.23 -74.36, 26.22 -73.92 C22.21 -73.48, 17.78 -72.76, 14.48 -70.28 C11.19 -67.81, 8.39 -63.49, 6.45 -59.05 C4.51 -54.61, 2.48 -48.22, 2.84 -43.64 C3.19 -39.06, 9.16 -33.62, 8.55 -31.58 C7.95 -29.54, 2.55 -31.62, -0.78 -31.38 C-4.11 -31.14, -8.52 -31.94, -11.43 -30.15 C-14.35 -28.36, -16.42 -25.9, -18.26 -20.65 C-20.1 -15.4, -20.98 -6.81, -22.48 1.36 C-23.98 9.52, -26.13 20.58, -27.26 28.33 C-28.39 36.07, -30.61 43.33, -29.26 47.81 C-27.91 52.28, -22.54 54.17, -19.15 55.17 C-15.76 56.16, -11.23 56.1, -8.9 53.76 C-6.58 51.42, -6.5 48.66, -5.2 41.12 C-3.91 33.57, -2 15.37, -1.13 8.51 C-0.26 1.66, -0.19 1.42, 0 0 M0 0 C-1.5 12.48, -6.66 55.5, -8.98 74.89 C-11.29 94.27, -12.87 106.33, -13.9 116.3 C-14.93 126.27, -16.18 130.08, -15.17 134.71 C-14.15 139.33, -10.96 142.59, -7.78 144.06 C-4.61 145.54, 1.01 145.4, 3.86 143.54 C6.71 141.69, 6.95 141.03, 9.32 132.94 C11.68 124.84, 15.15 107.91, 18.04 94.97 C20.93 82.03, 24.65 55.99, 26.67 55.31 C28.69 54.63, 28.98 79.92, 30.13 90.89 C31.29 101.85, 32.45 112.61, 33.59 121.11 C34.73 129.6, 34.66 137.79, 36.97 141.87 C39.27 145.95, 43.72 145.69, 47.4 145.6 C51.08 145.51, 56.57 143.67, 59.07 141.34 C61.57 139.01, 61.79 138.45, 62.38 131.62 C62.98 124.78, 62.67 115.93, 62.61 100.36 C62.56 84.79, 62.1 55.06, 62.06 38.2 C62.02 21.35, 60.37 6.51, 62.37 -0.78 C64.38 -8.08, 67.95 -4.66, 74.1 -5.56 C80.24 -6.46, 92.43 -5.86, 99.26 -6.18 C106.09 -6.5, 111.26 -5.94, 115.08 -7.47 C118.89 -9.01, 121.14 -12.22, 122.14 -15.37 C123.14 -18.52, 122.84 -23.53, 121.07 -26.36 C119.29 -29.19, 116.34 -31.32, 111.49 -32.34 C106.64 -33.35, 99.5 -32.41, 91.96 -32.44 C84.42 -32.47, 73.23 -32.59, 66.27 -32.52 C59.31 -32.45, 52.4 -30.59, 50.2 -32.02 C47.99 -33.45, 52.43 -37.7, 53.04 -41.07 C53.66 -44.44, 54.61 -48.22, 53.88 -52.26 C53.16 -56.29, 51.26 -61.83, 48.7 -65.27 C46.14 -68.72, 42.27 -71.49, 38.52 -72.93 C34.77 -74.37, 30.23 -74.36, 26.22 -73.92 C22.21 -73.48, 17.78 -72.76, 14.48 -70.28 C11.19 -67.81, 8.39 -63.49, 6.45 -59.05 C4.51 -54.61, 2.48 -48.22, 2.84 -43.64 C3.19 -39.06, 9.16 -33.62, 8.55 -31.58 C7.95 -29.54, 2.55 -31.62, -0.78 -31.38 C-4.11 -31.14, -8.52 -31.94, -11.43 -30.15 C-14.35 -28.36, -16.42 -25.9, -18.26 -20.65 C-20.1 -15.4, -20.98 -6.81, -22.48 1.36 C-23.98 9.52, -26.13 20.58, -27.26 28.33 C-28.39 36.07, -30.61 43.33, -29.26 47.81 C-27.91 52.28, -22.54 54.17, -19.15 55.17 C-15.76 56.16, -11.23 56.1, -8.9 53.76 C-6.58 51.42, -6.5 48.66, -5.2 41.12 C-3.91 33.57, -2 15.37, -1.13 8.51 C-0.26 1.66, -0.19 1.42, 0 0" stroke="#b74040" stroke-width="4" fill="none"></path></g></g><mask></mask><g stroke-linecap="round"><g transform="translate(504.12628164139034 366.8515452916175) rotate(0 -47.27691036788788 36.484065767294396)" fill-rule="evenodd"><path d="M0 0 C1.52 12.71, 6.78 56.5, 9.14 76.23 C11.5 95.97, 13.1 108.25, 14.15 118.4 C15.2 128.55, 16.48 132.42, 15.44 137.13 C14.4 141.84, 11.15 145.16, 7.92 146.66 C4.7 148.16, -1.03 148.01, -3.93 146.13 C-6.83 144.24, -7.08 143.57, -9.48 135.33 C-11.89 127.09, -15.42 109.85, -18.37 96.68 C-21.31 83.51, -25.1 57, -27.15 56.31 C-29.2 55.61, -29.5 81.36, -30.68 92.52 C-31.85 103.69, -33.04 114.64, -34.2 123.29 C-35.36 131.94, -35.29 140.27, -37.63 144.42 C-39.97 148.58, -44.5 148.31, -48.25 148.22 C-52 148.13, -57.59 146.26, -60.13 143.89 C-62.67 141.52, -62.91 140.94, -63.51 133.98 C-64.11 127.03, -63.8 118.01, -63.74 102.17 C-63.68 86.32, -63.21 56.05, -63.17 38.89 C-63.13 21.73, -61.45 6.63, -63.5 -0.8 C-65.54 -8.22, -69.17 -4.74, -75.43 -5.66 C-81.69 -6.57, -94.09 -5.96, -101.05 -6.29 C-108 -6.61, -113.27 -6.05, -117.15 -7.61 C-121.03 -9.17, -123.32 -12.44, -124.34 -15.65 C-125.36 -18.85, -125.05 -23.95, -123.25 -26.83 C-121.44 -29.71, -118.44 -31.89, -113.5 -32.92 C-108.56 -33.95, -101.29 -33, -93.62 -33.03 C-85.94 -33.06, -74.58 -33.17, -67.46 -33.1 C-60.35 -33.03, -53.2 -31.15, -50.95 -32.6 C-48.71 -34.05, -53.35 -38.37, -54 -41.81 C-54.65 -45.24, -55.59 -49.09, -54.85 -53.2 C-54.12 -57.3, -52.19 -62.94, -49.58 -66.45 C-46.97 -69.96, -43.03 -72.78, -39.21 -74.25 C-35.4 -75.71, -30.77 -75.7, -26.69 -75.25 C-22.61 -74.8, -18.1 -74.07, -14.74 -71.55 C-11.39 -69.03, -8.54 -64.63, -6.56 -60.11 C-4.59 -55.59, -2.53 -49.09, -2.89 -44.43 C-3.24 -39.77, -9.32 -34.23, -8.71 -32.15 C-8.09 -30.07, -2.59 -32.19, 0.8 -31.95 C4.19 -31.7, 8.67 -32.51, 11.64 -30.69 C14.6 -28.87, 16.71 -26.37, 18.59 -21.02 C20.46 -15.68, 21.36 -6.93, 22.89 1.38 C24.42 9.69, 26.6 20.95, 27.75 28.84 C28.9 36.72, 31.16 44.11, 29.79 48.67 C28.41 53.22, 22.95 55.15, 19.49 56.16 C16.04 57.17, 11.43 57.11, 9.06 54.73 C6.7 52.35, 6.62 49.53, 5.3 41.86 C3.98 34.18, 2.03 15.64, 1.15 8.67 C0.27 1.69, 0.19 1.44, 0 0" stroke="none" stroke-width="0" fill="#7aa2d7" fill-rule="evenodd"></path><path d="M0 0 C1.52 12.71, 6.78 56.5, 9.14 76.23 C11.5 95.97, 13.1 108.25, 14.15 118.4 C15.2 128.55, 16.48 132.42, 15.44 137.13 C14.4 141.84, 11.15 145.16, 7.92 146.66 C4.7 148.16, -1.03 148.01, -3.93 146.13 C-6.83 144.24, -7.08 143.57, -9.48 135.33 C-11.89 127.09, -15.42 109.85, -18.37 96.68 C-21.31 83.51, -25.1 57, -27.15 56.31 C-29.2 55.61, -29.5 81.36, -30.68 92.52 C-31.85 103.69, -33.04 114.64, -34.2 123.29 C-35.36 131.94, -35.29 140.27, -37.63 144.42 C-39.97 148.58, -44.5 148.31, -48.25 148.22 C-52 148.13, -57.59 146.26, -60.13 143.89 C-62.67 141.52, -62.91 140.94, -63.51 133.98 C-64.11 127.03, -63.8 118.01, -63.74 102.17 C-63.68 86.32, -63.21 56.05, -63.17 38.89 C-63.13 21.73, -61.45 6.63, -63.5 -0.8 C-65.54 -8.22, -69.17 -4.74, -75.43 -5.66 C-81.69 -6.57, -94.09 -5.96, -101.05 -6.29 C-108 -6.61, -113.27 -6.05, -117.15 -7.61 C-121.03 -9.17, -123.32 -12.44, -124.34 -15.65 C-125.36 -18.85, -125.05 -23.95, -123.25 -26.83 C-121.44 -29.71, -118.44 -31.89, -113.5 -32.92 C-108.56 -33.95, -101.29 -33, -93.62 -33.03 C-85.94 -33.06, -74.58 -33.17, -67.46 -33.1 C-60.35 -33.03, -53.2 -31.15, -50.95 -32.6 C-48.71 -34.05, -53.35 -38.37, -54 -41.81 C-54.65 -45.24, -55.59 -49.09, -54.85 -53.2 C-54.12 -57.3, -52.19 -62.94, -49.58 -66.45 C-46.97 -69.96, -43.03 -72.78, -39.21 -74.25 C-35.4 -75.71, -30.77 -75.7, -26.69 -75.25 C-22.61 -74.8, -18.1 -74.07, -14.74 -71.55 C-11.39 -69.03, -8.54 -64.63, -6.56 -60.11 C-4.59 -55.59, -2.53 -49.09, -2.89 -44.43 C-3.24 -39.77, -9.32 -34.23, -8.71 -32.15 C-8.09 -30.07, -2.59 -32.19, 0.8 -31.95 C4.19 -31.7, 8.67 -32.51, 11.64 -30.69 C14.6 -28.87, 16.71 -26.37, 18.59 -21.02 C20.46 -15.68, 21.36 -6.93, 22.89 1.38 C24.42 9.69, 26.6 20.95, 27.75 28.84 C28.9 36.72, 31.16 44.11, 29.79 48.67 C28.41 53.22, 22.95 55.15, 19.49 56.16 C16.04 57.17, 11.43 57.11, 9.06 54.73 C6.7 52.35, 6.62 49.53, 5.3 41.86 C3.98 34.18, 2.03 15.64, 1.15 8.67 C0.27 1.69, 0.19 1.44, 0 0 M0 0 C1.52 12.71, 6.78 56.5, 9.14 76.23 C11.5 95.97, 13.1 108.25, 14.15 118.4 C15.2 128.55, 16.48 132.42, 15.44 137.13 C14.4 141.84, 11.15 145.16, 7.92 146.66 C4.7 148.16, -1.03 148.01, -3.93 146.13 C-6.83 144.24, -7.08 143.57, -9.48 135.33 C-11.89 127.09, -15.42 109.85, -18.37 96.68 C-21.31 83.51, -25.1 57, -27.15 56.31 C-29.2 55.61, -29.5 81.36, -30.68 92.52 C-31.85 103.69, -33.04 114.64, -34.2 123.29 C-35.36 131.94, -35.29 140.27, -37.63 144.42 C-39.97 148.58, -44.5 148.31, -48.25 148.22 C-52 148.13, -57.59 146.26, -60.13 143.89 C-62.67 141.52, -62.91 140.94, -63.51 133.98 C-64.11 127.03, -63.8 118.01, -63.74 102.17 C-63.68 86.32, -63.21 56.05, -63.17 38.89 C-63.13 21.73, -61.45 6.63, -63.5 -0.8 C-65.54 -8.22, -69.17 -4.74, -75.43 -5.66 C-81.69 -6.57, -94.09 -5.96, -101.05 -6.29 C-108 -6.61, -113.27 -6.05, -117.15 -7.61 C-121.03 -9.17, -123.32 -12.44, -124.34 -15.65 C-125.36 -18.85, -125.05 -23.95, -123.25 -26.83 C-121.44 -29.71, -118.44 -31.89, -113.5 -32.92 C-108.56 -33.95, -101.29 -33, -93.62 -33.03 C-85.94 -33.06, -74.58 -33.17, -67.46 -33.1 C-60.35 -33.03, -53.2 -31.15, -50.95 -32.6 C-48.71 -34.05, -53.35 -38.37, -54 -41.81 C-54.65 -45.24, -55.59 -49.09, -54.85 -53.2 C-54.12 -57.3, -52.19 -62.94, -49.58 -66.45 C-46.97 -69.96, -43.03 -72.78, -39.21 -74.25 C-35.4 -75.71, -30.77 -75.7, -26.69 -75.25 C-22.61 -74.8, -18.1 -74.07, -14.74 -71.55 C-11.39 -69.03, -8.54 -64.63, -6.56 -60.11 C-4.59 -55.59, -2.53 -49.09, -2.89 -44.43 C-3.24 -39.77, -9.32 -34.23, -8.71 -32.15 C-8.09 -30.07, -2.59 -32.19, 0.8 -31.95 C4.19 -31.7, 8.67 -32.51, 11.64 -30.69 C14.6 -28.87, 16.71 -26.37, 18.59 -21.02 C20.46 -15.68, 21.36 -6.93, 22.89 1.38 C24.42 9.69, 26.6 20.95, 27.75 28.84 C28.9 36.72, 31.16 44.11, 29.79 48.67 C28.41 53.22, 22.95 55.15, 19.49 56.16 C16.04 57.17, 11.43 57.11, 9.06 54.73 C6.7 52.35, 6.62 49.53, 5.3 41.86 C3.98 34.18, 2.03 15.64, 1.15 8.67 C0.27 1.69, 0.19 1.44, 0 0" stroke="#7aa2d7" stroke-width="4" fill="none"></path></g></g><mask></mask><g stroke-linecap="round"><g transform="translate(376.84531355385417 365.02869263278205) rotate(0 -23.052837491529772 -16.469226191376038)" fill-rule="evenodd"><path d="M0 0 C0.04 -5.04, 2.66 -24.69, 0.24 -30.23 C-2.19 -35.76, -7.12 -32.69, -14.55 -33.19 C-21.97 -33.68, -39.03 -35.43, -44.32 -33.18 C-49.62 -30.93, -48.6 -22.07, -46.34 -19.68 C-44.08 -17.29, -35.88 -18.94, -30.77 -18.83 C-25.67 -18.72, -18.8 -20.48, -15.7 -19.02 C-12.6 -17.55, -12.78 -13.24, -12.17 -10.03 C-11.56 -6.82, -14.08 -1.42, -12.05 0.25 C-10.02 1.92, -2.01 0.04, 0 0" stroke="none" stroke-width="0" fill="#E1E1E1" fill-rule="evenodd"></path><path d="M0 0 C0.04 -5.04, 2.66 -24.69, 0.24 -30.23 C-2.19 -35.76, -7.12 -32.69, -14.55 -33.19 C-21.97 -33.68, -39.03 -35.43, -44.32 -33.18 C-49.62 -30.93, -48.6 -22.07, -46.34 -19.68 C-44.08 -17.29, -35.88 -18.94, -30.77 -18.83 C-25.67 -18.72, -18.8 -20.48, -15.7 -19.02 C-12.6 -17.55, -12.78 -13.24, -12.17 -10.03 C-11.56 -6.82, -14.08 -1.42, -12.05 0.25 C-10.02 1.92, -2.01 0.04, 0 0 M0 0 C0.04 -5.04, 2.66 -24.69, 0.24 -30.23 C-2.19 -35.76, -7.12 -32.69, -14.55 -33.19 C-21.97 -33.68, -39.03 -35.43, -44.32 -33.18 C-49.62 -30.93, -48.6 -22.07, -46.34 -19.68 C-44.08 -17.29, -35.88 -18.94, -30.77 -18.83 C-25.67 -18.72, -18.8 -20.48, -15.7 -19.02 C-12.6 -17.55, -12.78 -13.24, -12.17 -10.03 C-11.56 -6.82, -14.08 -1.42, -12.05 0.25 C-10.02 1.92, -2.01 0.04, 0 0" stroke="#e1e1e1" stroke-width="4" fill="none"></path></g></g><mask></mask><g stroke-linecap="round"><g transform="translate(167.67751819036795 359.3828738378428) rotate(0 20.413041942167908 -14.583324292427491)" fill-rule="evenodd"><path d="M0 0 C-0.03 -4.46, -2.35 -21.87, -0.21 -26.76 C1.94 -31.66, 6.31 -28.95, 12.88 -29.39 C19.46 -29.82, 34.56 -31.37, 39.25 -29.38 C43.94 -27.38, 43.03 -19.55, 41.03 -17.43 C39.03 -15.31, 31.77 -16.77, 27.25 -16.68 C22.73 -16.58, 16.65 -18.14, 13.9 -16.84 C11.16 -15.54, 11.32 -11.72, 10.78 -8.88 C10.24 -6.04, 12.47 -1.26, 10.67 0.22 C8.87 1.7, 1.78 0.04, 0 0" stroke="none" stroke-width="0" fill="#E1E1E1" fill-rule="evenodd"></path><path d="M0 0 C-0.03 -4.46, -2.35 -21.87, -0.21 -26.76 C1.94 -31.66, 6.31 -28.95, 12.88 -29.39 C19.46 -29.82, 34.56 -31.37, 39.25 -29.38 C43.94 -27.38, 43.03 -19.55, 41.03 -17.43 C39.03 -15.31, 31.77 -16.77, 27.25 -16.68 C22.73 -16.58, 16.65 -18.14, 13.9 -16.84 C11.16 -15.54, 11.32 -11.72, 10.78 -8.88 C10.24 -6.04, 12.47 -1.26, 10.67 0.22 C8.87 1.7, 1.78 0.04, 0 0 M0 0 C-0.03 -4.46, -2.35 -21.87, -0.21 -26.76 C1.94 -31.66, 6.31 -28.95, 12.88 -29.39 C19.46 -29.82, 34.56 -31.37, 39.25 -29.38 C43.94 -27.38, 43.03 -19.55, 41.03 -17.43 C39.03 -15.31, 31.77 -16.77, 27.25 -16.68 C22.73 -16.58, 16.65 -18.14, 13.9 -16.84 C11.16 -15.54, 11.32 -11.72, 10.78 -8.88 C10.24 -6.04, 12.47 -1.26, 10.67 0.22 C8.87 1.7, 1.78 0.04, 0 0" stroke="#e1e1e1" stroke-width="4" fill="none"></path></g></g><mask></mask><g stroke-linecap="round"><g transform="translate(179.76189989197456 719.8466290609698) rotate(0 -37.15788061819785 -54.31807046111908)" fill-rule="evenodd"><path d="M0 0 C0 -13.28, -0.12 -61.66, 0 -79.7 C0.12 -97.75, 2.09 -103.6, 0.75 -108.26 C-0.59 -112.93, -2.54 -108.59, -8.04 -107.69 C-13.54 -106.79, -24.02 -103.18, -32.26 -102.86 C-40.5 -102.53, -50.62 -104.47, -57.46 -105.75 C-64.3 -107.03, -70.35 -112.85, -73.3 -110.55 C-76.24 -108.24, -75 -99.15, -75.14 -91.92 C-75.28 -84.69, -74.32 -74.29, -74.12 -67.18 C-73.93 -60.08, -76.19 -53.05, -73.97 -49.28 C-71.75 -45.51, -66.41 -45.92, -60.82 -44.59 C-55.23 -43.26, -47.01 -41.78, -40.45 -41.31 C-33.9 -40.85, -27.12 -40.98, -21.5 -41.8 C-15.88 -42.61, -10.34 -44.58, -6.72 -46.2 C-3.1 -47.82, -0.88 -52.67, 0.25 -51.5 C1.38 -50.34, -0.05 -45.67, 0.05 -39.2 C0.15 -32.72, 0.7 -19.49, 0.82 -12.64 C0.94 -5.79, 0.77 -0.51, 0.76 1.91" stroke="none" stroke-width="0" fill="#b74040" fill-rule="evenodd"></path><path d="M0 0 C0 -13.28, -0.12 -61.66, 0 -79.7 C0.12 -97.75, 2.09 -103.6, 0.75 -108.26 C-0.59 -112.93, -2.54 -108.59, -8.04 -107.69 C-13.54 -106.79, -24.02 -103.18, -32.26 -102.86 C-40.5 -102.53, -50.62 -104.47, -57.46 -105.75 C-64.3 -107.03, -70.35 -112.85, -73.3 -110.55 C-76.24 -108.24, -75 -99.15, -75.14 -91.92 C-75.28 -84.69, -74.32 -74.29, -74.12 -67.18 C-73.93 -60.08, -76.19 -53.05, -73.97 -49.28 C-71.75 -45.51, -66.41 -45.92, -60.82 -44.59 C-55.23 -43.26, -47.01 -41.78, -40.45 -41.31 C-33.9 -40.85, -27.12 -40.98, -21.5 -41.8 C-15.88 -42.61, -10.34 -44.58, -6.72 -46.2 C-3.1 -47.82, -0.88 -52.67, 0.25 -51.5 C1.38 -50.34, -0.05 -45.67, 0.05 -39.2 C0.15 -32.72, 0.7 -19.49, 0.82 -12.64 C0.94 -5.79, 0.77 -0.51, 0.76 1.91 M0 0 C0 -13.28, -0.12 -61.66, 0 -79.7 C0.12 -97.75, 2.09 -103.6, 0.75 -108.26 C-0.59 -112.93, -2.54 -108.59, -8.04 -107.69 C-13.54 -106.79, -24.02 -103.18, -32.26 -102.86 C-40.5 -102.53, -50.62 -104.47, -57.46 -105.75 C-64.3 -107.03, -70.35 -112.85, -73.3 -110.55 C-76.24 -108.24, -75 -99.15, -75.14 -91.92 C-75.28 -84.69, -74.32 -74.29, -74.12 -67.18 C-73.93 -60.08, -76.19 -53.05, -73.97 -49.28 C-71.75 -45.51, -66.41 -45.92, -60.82 -44.59 C-55.23 -43.26, -47.01 -41.78, -40.45 -41.31 C-33.9 -40.85, -27.12 -40.98, -21.5 -41.8 C-15.88 -42.61, -10.34 -44.58, -6.72 -46.2 C-3.1 -47.82, -0.88 -52.67, 0.25 -51.5 C1.38 -50.34, -0.05 -45.67, 0.05 -39.2 C0.15 -32.72, 0.7 -19.49, 0.82 -12.64 C0.94 -5.79, 0.77 -0.51, 0.76 1.91" stroke="#b74040" stroke-width="4" fill="none"></path></g></g><mask></mask><g stroke-linecap="round"><g transform="translate(329.14173857369616 774.0590424172054) rotate(0 37.07163367692279 -54.191993102688116)" fill-rule="evenodd"><path d="M0 0 C0 -13.25, 0.12 -61.52, 0 -79.52 C-0.12 -97.52, -2.08 -103.36, -0.75 -108.01 C0.59 -112.67, 2.53 -108.34, 8.02 -107.44 C13.51 -106.54, 23.92 -102.9, 32.18 -102.62 C40.44 -102.34, 50.76 -104.49, 57.59 -105.77 C64.41 -107.05, 70.23 -112.63, 73.13 -110.29 C76.02 -107.95, 74.83 -98.92, 74.96 -91.71 C75.1 -84.5, 74.15 -74.12, 73.95 -67.03 C73.76 -59.94, 76.01 -52.92, 73.8 -49.17 C71.59 -45.41, 66.25 -45.81, 60.68 -44.49 C55.11 -43.16, 46.9 -41.68, 40.36 -41.22 C33.82 -40.75, 27.06 -40.89, 21.45 -41.7 C15.84 -42.51, 10.32 -44.48, 6.7 -46.09 C3.09 -47.71, 0.88 -52.55, -0.25 -51.38 C-1.37 -50.22, 0.05 -45.57, -0.05 -39.11 C-0.15 -32.64, -0.7 -19.44, -0.82 -12.61 C-0.94 -5.77, -0.77 -0.51, -0.76 1.91" stroke="none" stroke-width="0" fill="#7aa2d7" fill-rule="evenodd"></path><path d="M0 0 C0 -13.25, 0.12 -61.52, 0 -79.52 C-0.12 -97.52, -2.08 -103.36, -0.75 -108.01 C0.59 -112.67, 2.53 -108.34, 8.02 -107.44 C13.51 -106.54, 23.92 -102.9, 32.18 -102.62 C40.44 -102.34, 50.76 -104.49, 57.59 -105.77 C64.41 -107.05, 70.23 -112.63, 73.13 -110.29 C76.02 -107.95, 74.83 -98.92, 74.96 -91.71 C75.1 -84.5, 74.15 -74.12, 73.95 -67.03 C73.76 -59.94, 76.01 -52.92, 73.8 -49.17 C71.59 -45.41, 66.25 -45.81, 60.68 -44.49 C55.11 -43.16, 46.9 -41.68, 40.36 -41.22 C33.82 -40.75, 27.06 -40.89, 21.45 -41.7 C15.84 -42.51, 10.32 -44.48, 6.7 -46.09 C3.09 -47.71, 0.88 -52.55, -0.25 -51.38 C-1.37 -50.22, 0.05 -45.57, -0.05 -39.11 C-0.15 -32.64, -0.7 -19.44, -0.82 -12.61 C-0.94 -5.77, -0.77 -0.51, -0.76 1.91 M0 0 C0 -13.25, 0.12 -61.52, 0 -79.52 C-0.12 -97.52, -2.08 -103.36, -0.75 -108.01 C0.59 -112.67, 2.53 -108.34, 8.02 -107.44 C13.51 -106.54, 23.92 -102.9, 32.18 -102.62 C40.44 -102.34, 50.76 -104.49, 57.59 -105.77 C64.41 -107.05, 70.23 -112.63, 73.13 -110.29 C76.02 -107.95, 74.83 -98.92, 74.96 -91.71 C75.1 -84.5, 74.15 -74.12, 73.95 -67.03 C73.76 -59.94, 76.01 -52.92, 73.8 -49.17 C71.59 -45.41, 66.25 -45.81, 60.68 -44.49 C55.11 -43.16, 46.9 -41.68, 40.36 -41.22 C33.82 -40.75, 27.06 -40.89, 21.45 -41.7 C15.84 -42.51, 10.32 -44.48, 6.7 -46.09 C3.09 -47.71, 0.88 -52.55, -0.25 -51.38 C-1.37 -50.22, 0.05 -45.57, -0.05 -39.11 C-0.15 -32.64, -0.7 -19.44, -0.82 -12.61 C-0.94 -5.77, -0.77 -0.51, -0.76 1.91" stroke="#7aa2d7" stroke-width="4" fill="none"></path></g></g><mask></mask><g stroke-linecap="round"><g transform="translate(121.03760608149906 76.66270358539202) rotate(0 145.96756279019425 -4.64241967610505)"><path d="M0 0 C15.89 -3.01, 31.78 -6.02, 68.95 -13.06 M0 0 C20.91 -3.96, 41.83 -7.92, 68.95 -13.06 M68.95 -13.06 C83.19 -15.96, 97.42 -18.87, 130.92 -25.71 M68.95 -13.06 C83.52 -16.03, 98.08 -19, 130.92 -25.71 M130.92 -25.71 C140.73 -27.79, 150.53 -29.88, 156.15 -31.08 M130.92 -25.71 C139.93 -27.62, 148.94 -29.54, 156.15 -31.08 M156.15 -31.08 C185.29 -30.65, 214.43 -30.23, 243.43 -29.81 M156.15 -31.08 C187.94 -30.61, 219.73 -30.15, 243.43 -29.81 M243.43 -29.81 C257.91 -26.48, 272.4 -23.14, 291.94 -18.65 M243.43 -29.81 C255.35 -27.07, 267.27 -24.32, 291.94 -18.65 M291.94 -18.65 C277.58 -13.14, 263.23 -7.63, 247.37 -1.54 M291.94 -18.65 C279.28 -13.79, 266.62 -8.93, 247.37 -1.54 M247.37 -1.54 C199.92 4.29, 152.46 10.12, 57.4 21.79 M247.37 -1.54 C198.82 4.42, 150.27 10.39, 57.4 21.79 M57.4 21.79 C46.33 19.38, 35.26 16.97, 24.2 14.56 M57.4 21.79 C49.75 20.13, 42.1 18.46, 24.2 14.56 M24.2 14.56 C19.23 15.15, 14.25 15.74, 2.66 17.1 M24.2 14.56 C16.18 15.51, 8.15 16.45, 2.66 17.1 M2.66 17.1 C2.11 13.56, 1.56 10.03, 0 0 M2.66 17.1 C1.75 11.3, 0.85 5.5, 0 0" stroke="#e1e1e1" stroke-width="4" fill="none"></path></g></g><mask></mask><g stroke-linecap="round"><g transform="translate(137.99600760553886 72.97822557441157) rotate(0 57.147958730649535 -31.489112787205784)"><path d="M0 0 C-6.27 -15.28, -12.54 -30.56, -24.77 -60.34 M0 0 C-4.98 -12.13, -9.96 -24.27, -24.77 -60.34 M-24.77 -60.34 C-19.84 -60.9, -14.91 -61.45, -1.26 -62.98 M-24.77 -60.34 C-16.14 -61.31, -7.51 -62.28, -1.26 -62.98 M-1.26 -62.98 C15.13 -49.47, 31.52 -35.96, 45.07 -24.79 M-1.26 -62.98 C12.57 -51.58, 26.39 -40.19, 45.07 -24.79 M45.07 -24.79 C66.84 -30.18, 88.62 -35.56, 130.11 -45.82 M45.07 -24.79 C66.04 -29.98, 87.01 -35.16, 130.11 -45.82 M130.11 -45.82 C132.74 -40.6, 135.36 -35.39, 139.06 -28.02 M130.11 -45.82 C133.31 -39.47, 136.5 -33.12, 139.06 -28.02" stroke="#e1e1e1" stroke-width="4" fill="none"></path></g></g><mask></mask><g stroke-linecap="round"><g transform="translate(238.26642182500228 54.05705242493366) rotate(0 -5.112663420062461 18.96255613993449)"><path d="M0 0 C18.16 2.74, 36.33 5.48, 67.83 10.22 M0 0 C14.78 2.23, 29.56 4.46, 67.83 10.22 M67.83 10.22 C43.12 18.85, 18.42 27.48, -11.5 37.93 M67.83 10.22 C39.26 20.2, 10.7 30.17, -11.5 37.93 M-11.5 37.93 C-29.92 31.8, -48.35 25.67, -78.05 15.8 M-11.5 37.93 C-27.24 32.69, -42.99 27.45, -78.05 15.8" stroke="#e1e1e1" stroke-width="4" fill="none"></path></g></g><mask></mask><g stroke-linecap="round"><g transform="translate(365.08667144248767 48.24741493977979) rotate(0 1.5094601110608679 12.891615516988622)"><path d="M0 0 C0.83 7.06, 1.65 14.13, 3.02 25.78 M0 0 C0.63 5.34, 1.25 10.68, 3.02 25.78" stroke="#e1e1e1" stroke-width="4" fill="none"></path></g></g><mask></mask><g stroke-linecap="round"><g transform="translate(364.47291794105996 46.979577086341465) rotate(0 -48.508821358580306 -13.02788959869514)"><path d="M0 0 C-1.09 -1.04, -4.28 -4.23, -6.55 -6.26 C-8.81 -8.3, -10.83 -10.2, -13.59 -12.19 C-16.36 -14.17, -19.55 -16.36, -23.14 -18.18 C-26.72 -20, -31.31 -21.88, -35.1 -23.11 C-38.9 -24.35, -42.55 -25.1, -45.91 -25.59 C-49.27 -26.08, -51.85 -26.04, -55.28 -26.06 C-58.71 -26.07, -62.67 -26.07, -66.48 -25.68 C-70.29 -25.28, -74.45 -24.3, -78.13 -23.67 C-81.81 -23.04, -85.42 -22.54, -88.57 -21.89 C-91.71 -21.23, -95.61 -20.1, -97.02 -19.74 M0 0 C-1.09 -1.04, -4.28 -4.23, -6.55 -6.26 C-8.81 -8.3, -10.83 -10.2, -13.59 -12.19 C-16.36 -14.17, -19.55 -16.36, -23.14 -18.18 C-26.72 -20, -31.31 -21.88, -35.1 -23.11 C-38.9 -24.35, -42.55 -25.1, -45.91 -25.59 C-49.27 -26.08, -51.85 -26.04, -55.28 -26.06 C-58.71 -26.07, -62.67 -26.07, -66.48 -25.68 C-70.29 -25.28, -74.45 -24.3, -78.13 -23.67 C-81.81 -23.04, -85.42 -22.54, -88.57 -21.89 C-91.71 -21.23, -95.61 -20.1, -97.02 -19.74" stroke="#e1e1e1" stroke-width="4" fill="none"></path></g></g><mask></mask><g stroke-linecap="round"><g transform="translate(247.93673199264896 126.20962918895327) rotate(0 17.31579645104445 14.533427315254471)"><path d="M0 0 C2.46 0.06, 10 0.34, 14.76 0.38 C19.51 0.42, 24.59 0.26, 28.52 0.23 C32.46 0.2, 35.57 -0.15, 38.35 0.21 C41.13 0.56, 43.16 1.21, 45.21 2.35 C47.26 3.49, 49.1 5.06, 50.63 7.05 C52.16 9.03, 54.29 11.99, 54.39 14.26 C54.48 16.52, 52.42 18.69, 51.2 20.64 C49.98 22.59, 48.74 24.61, 47.08 25.96 C45.42 27.3, 43.93 28.18, 41.23 28.7 C38.52 29.21, 36.59 28.98, 30.85 29.05 C25.11 29.11, 13.1 29.07, 6.79 29.07 C0.48 29.06, -3.73 29.15, -7.01 29.03 C-10.29 28.91, -10.76 29.11, -12.89 28.35 C-15.01 27.58, -18.61 25.08, -19.75 24.42 M0 0 C2.46 0.06, 10 0.34, 14.76 0.38 C19.51 0.42, 24.59 0.26, 28.52 0.23 C32.46 0.2, 35.57 -0.15, 38.35 0.21 C41.13 0.56, 43.16 1.21, 45.21 2.35 C47.26 3.49, 49.1 5.06, 50.63 7.05 C52.16 9.03, 54.29 11.99, 54.39 14.26 C54.48 16.52, 52.42 18.69, 51.2 20.64 C49.98 22.59, 48.74 24.61, 47.08 25.96 C45.42 27.3, 43.93 28.18, 41.23 28.7 C38.52 29.21, 36.59 28.98, 30.85 29.05 C25.11 29.11, 13.1 29.07, 6.79 29.07 C0.48 29.06, -3.73 29.15, -7.01 29.03 C-10.29 28.91, -10.76 29.11, -12.89 28.35 C-15.01 27.58, -18.61 25.08, -19.75 24.42" stroke="#e1e1e1" stroke-width="4" fill="none"></path></g></g><mask></mask><g stroke-linecap="round"><g transform="translate(228.68614562879094 151.55266130268808) rotate(0 3.1048735664731026 -12.645346378846313)"><path d="M0 0 C-0.67 -0.58, -1.82 -2.79, -4.03 -3.48 C-6.24 -4.17, -11.62 -3.05, -13.27 -4.15 C-14.91 -5.26, -13.88 -7.91, -13.91 -10.11 C-13.95 -12.31, -14.9 -16.1, -13.49 -17.37 C-12.09 -18.64, -7.67 -17.16, -5.48 -17.72 C-3.3 -18.27, -2.13 -19.67, -0.38 -20.69 C1.36 -21.72, 3.09 -23.09, 4.99 -23.85 C6.89 -24.62, 8.48 -25.05, 11 -25.29 C13.52 -25.53, 18.6 -25.28, 20.12 -25.28 M0 0 C-0.67 -0.58, -1.82 -2.79, -4.03 -3.48 C-6.24 -4.17, -11.62 -3.05, -13.27 -4.15 C-14.91 -5.26, -13.88 -7.91, -13.91 -10.11 C-13.95 -12.31, -14.9 -16.1, -13.49 -17.37 C-12.09 -18.64, -7.67 -17.16, -5.48 -17.72 C-3.3 -18.27, -2.13 -19.67, -0.38 -20.69 C1.36 -21.72, 3.09 -23.09, 4.99 -23.85 C6.89 -24.62, 8.48 -25.05, 11 -25.29 C13.52 -25.53, 18.6 -25.28, 20.12 -25.28" stroke="#e1e1e1" stroke-width="4" fill="none"></path></g></g><mask></mask><g stroke-linecap="round"><g transform="translate(214.70650798266735 134.29128402351068) rotate(0 -14.731633871232333 6.867050525992795)"><path d="M0 0 C-0.83 -1.26, -3.61 -5.56, -5 -7.57 C-6.38 -9.59, -6.04 -11.3, -8.32 -12.08 C-10.6 -12.86, -15.24 -12.23, -18.68 -12.26 C-22.12 -12.28, -27.61 -13.22, -28.93 -12.26 C-30.25 -11.29, -27.41 -8.52, -26.59 -6.46 C-25.77 -4.4, -24.83 -2.06, -24.01 0.1 C-23.2 2.25, -21.74 4.37, -21.69 6.46 C-21.65 8.55, -23.03 10.7, -23.77 12.64 C-24.51 14.58, -25.18 15.99, -26.13 18.11 C-27.08 20.23, -29.92 24.06, -29.46 25.37 C-29.01 26.68, -26.84 25.92, -23.42 25.99 C-20 26.06, -12.12 26.72, -8.94 25.8 C-5.76 24.87, -5.78 22.6, -4.36 20.46 C-2.94 18.33, -1.07 14.23, -0.41 12.99 M0 0 C-0.83 -1.26, -3.61 -5.56, -5 -7.57 C-6.38 -9.59, -6.04 -11.3, -8.32 -12.08 C-10.6 -12.86, -15.24 -12.23, -18.68 -12.26 C-22.12 -12.28, -27.61 -13.22, -28.93 -12.26 C-30.25 -11.29, -27.41 -8.52, -26.59 -6.46 C-25.77 -4.4, -24.83 -2.06, -24.01 0.1 C-23.2 2.25, -21.74 4.37, -21.69 6.46 C-21.65 8.55, -23.03 10.7, -23.77 12.64 C-24.51 14.58, -25.18 15.99, -26.13 18.11 C-27.08 20.23, -29.92 24.06, -29.46 25.37 C-29.01 26.68, -26.84 25.92, -23.42 25.99 C-20 26.06, -12.12 26.72, -8.94 25.8 C-5.76 24.87, -5.78 22.6, -4.36 20.46 C-2.94 18.33, -1.07 14.23, -0.41 12.99" stroke="#e1e1e1" stroke-width="4" fill="none"></path></g></g><mask></mask><g stroke-linecap="round"><g transform="translate(214.33337225672886 146.54037265616842) rotate(0 -11.317497710734358 0.03876037081417394)"><path d="M0 0 C-3.77 0.01, -18.86 0.06, -22.63 0.08 M0 0 C-3.77 0.01, -18.86 0.06, -22.63 0.08" stroke="#e1e1e1" stroke-width="4" fill="none"></path></g></g><mask></mask><g stroke-linecap="round"><g transform="translate(213.82217552169033 135.64371305164184) rotate(0 -11.110350364052096 -0.04795631980766757)"><path d="M0 0 C-3.7 -0.02, -18.52 -0.08, -22.22 -0.1 M0 0 C-3.7 -0.02, -18.52 -0.08, -22.22 -0.1" stroke="#e1e1e1" stroke-width="4" fill="none"></path></g></g><mask></mask><g stroke-linecap="round"><g transform="translate(278.4567467269183 213.1697453805349) rotate(21.304154786950022 17.31579645104445 14.533427315254471)"><path d="M0 0 C2.46 0.06, 10 0.34, 14.76 0.38 C19.51 0.42, 24.59 0.26, 28.52 0.23 C32.46 0.2, 35.57 -0.15, 38.35 0.21 C41.13 0.56, 43.16 1.21, 45.21 2.35 C47.26 3.49, 49.1 5.06, 50.63 7.05 C52.16 9.03, 54.29 11.99, 54.39 14.26 C54.48 16.52, 52.42 18.69, 51.2 20.64 C49.98 22.59, 48.74 24.61, 47.08 25.96 C45.42 27.3, 43.93 28.18, 41.23 28.7 C38.52 29.21, 36.59 28.98, 30.85 29.05 C25.11 29.11, 13.1 29.07, 6.79 29.07 C0.48 29.06, -3.73 29.15, -7.01 29.03 C-10.29 28.91, -10.76 29.11, -12.89 28.35 C-15.01 27.58, -18.61 25.08, -19.75 24.42 M0 0 C2.46 0.06, 10 0.34, 14.76 0.38 C19.51 0.42, 24.59 0.26, 28.52 0.23 C32.46 0.2, 35.57 -0.15, 38.35 0.21 C41.13 0.56, 43.16 1.21, 45.21 2.35 C47.26 3.49, 49.1 5.06, 50.63 7.05 C52.16 9.03, 54.29 11.99, 54.39 14.26 C54.48 16.52, 52.42 18.69, 51.2 20.64 C49.98 22.59, 48.74 24.61, 47.08 25.96 C45.42 27.3, 43.93 28.18, 41.23 28.7 C38.52 29.21, 36.59 28.98, 30.85 29.05 C25.11 29.11, 13.1 29.07, 6.79 29.07 C0.48 29.06, -3.73 29.15, -7.01 29.03 C-10.29 28.91, -10.76 29.11, -12.89 28.35 C-15.01 27.58, -18.61 25.08, -19.75 24.42" stroke="#e1e1e1" stroke-width="4" fill="none"></path></g></g><mask></mask><g stroke-linecap="round"><g transform="translate(262.1948339038166 226.42200594851727) rotate(21.304154786950022 3.1048735664730955 -12.645346378846313)"><path d="M0 0 C-0.67 -0.58, -1.82 -2.79, -4.03 -3.48 C-6.24 -4.17, -11.62 -3.05, -13.27 -4.15 C-14.91 -5.26, -13.88 -7.91, -13.91 -10.11 C-13.95 -12.31, -14.9 -16.1, -13.49 -17.37 C-12.09 -18.64, -7.67 -17.16, -5.48 -17.72 C-3.3 -18.27, -2.13 -19.67, -0.38 -20.69 C1.36 -21.72, 3.09 -23.09, 4.99 -23.85 C6.89 -24.62, 8.48 -25.05, 11 -25.29 C13.52 -25.53, 18.6 -25.28, 20.12 -25.28 M0 0 C-0.67 -0.58, -1.82 -2.79, -4.03 -3.48 C-6.24 -4.17, -11.62 -3.05, -13.27 -4.15 C-14.91 -5.26, -13.88 -7.91, -13.91 -10.11 C-13.95 -12.31, -14.9 -16.1, -13.49 -17.37 C-12.09 -18.64, -7.67 -17.16, -5.48 -17.72 C-3.3 -18.27, -2.13 -19.67, -0.38 -20.69 C1.36 -21.72, 3.09 -23.09, 4.99 -23.85 C6.89 -24.62, 8.48 -25.05, 11 -25.29 C13.52 -25.53, 18.6 -25.28, 20.12 -25.28" stroke="#e1e1e1" stroke-width="4" fill="none"></path></g></g><mask></mask><g stroke-linecap="round"><g transform="translate(249.56899258764616 197.50282200589515) rotate(21.304154786950022 -14.731633871232333 6.867050525992795)"><path d="M0 0 C-0.83 -1.26, -3.61 -5.56, -5 -7.57 C-6.38 -9.59, -6.04 -11.3, -8.32 -12.08 C-10.6 -12.86, -15.24 -12.23, -18.68 -12.26 C-22.12 -12.28, -27.61 -13.22, -28.93 -12.26 C-30.25 -11.29, -27.41 -8.52, -26.59 -6.46 C-25.77 -4.4, -24.83 -2.06, -24.01 0.1 C-23.2 2.25, -21.74 4.37, -21.69 6.46 C-21.65 8.55, -23.03 10.7, -23.77 12.64 C-24.51 14.58, -25.18 15.99, -26.13 18.11 C-27.08 20.23, -29.92 24.06, -29.46 25.37 C-29.01 26.68, -26.84 25.92, -23.42 25.99 C-20 26.06, -12.12 26.72, -8.94 25.8 C-5.76 24.87, -5.78 22.6, -4.36 20.46 C-2.94 18.33, -1.07 14.23, -0.41 12.99 M0 0 C-0.83 -1.26, -3.61 -5.56, -5 -7.57 C-6.38 -9.59, -6.04 -11.3, -8.32 -12.08 C-10.6 -12.86, -15.24 -12.23, -18.68 -12.26 C-22.12 -12.28, -27.61 -13.22, -28.93 -12.26 C-30.25 -11.29, -27.41 -8.52, -26.59 -6.46 C-25.77 -4.4, -24.83 -2.06, -24.01 0.1 C-23.2 2.25, -21.74 4.37, -21.69 6.46 C-21.65 8.55, -23.03 10.7, -23.77 12.64 C-24.51 14.58, -25.18 15.99, -26.13 18.11 C-27.08 20.23, -29.92 24.06, -29.46 25.37 C-29.01 26.68, -26.84 25.92, -23.42 25.99 C-20 26.06, -12.12 26.72, -8.94 25.8 C-5.76 24.87, -5.78 22.6, -4.36 20.46 C-2.94 18.33, -1.07 14.23, -0.41 12.99" stroke="#e1e1e1" stroke-width="4" fill="none"></path></g></g><mask></mask><g stroke-linecap="round"><g transform="translate(246.9907779602393 210.4902378130804) rotate(21.304154786950022 -11.317497710734358 0.03876037081417394)"><path d="M0 0 C-3.77 0.01, -18.86 0.06, -22.63 0.08 M0 0 C-3.77 0.01, -18.86 0.06, -22.63 0.08" stroke="#e1e1e1" stroke-width="4" fill="none"></path></g></g><mask></mask><g stroke-linecap="round"><g transform="translate(250.4908254702853 200.23366164476772) rotate(21.304154786950022 -11.110350364052096 -0.04795631980766757)"><path d="M0 0 C-3.7 -0.02, -18.52 -0.08, -22.22 -0.1 M0 0 C-3.7 -0.02, -18.52 -0.08, -22.22 -0.1" stroke="#e1e1e1" stroke-width="4" fill="none"></path></g></g><mask></mask></svg>