<svg version="1.1" xmlns="http://www.w3.org/2000/svg" viewBox="0 0 879.6175414763679 768.239032664835" width="879.6175414763679" height="768.239032664835" class="excalidraw-svg"><!-- svg-source:excalidraw --><metadata></metadata><defs><style class="style-fonts">
      </style></defs><rect x="0" y="0" width="879.6175414763679" height="768.239032664835" fill="#000000"></rect><g stroke-linecap="round"><g transform="translate(45.11853938960331 119.51330915330357) rotate(0 145.48287943683616 259.3600165426748)"><path d="M0 0 C11.07 0.19, 42.42 0.19, 66.44 1.13 C90.46 2.08, 117.68 2.1, 144.12 5.67 C170.56 9.25, 203.06 15.25, 225.1 22.59 C247.15 29.94, 265.52 39.73, 276.37 49.74 C287.22 59.74, 287.88 63.92, 290.21 82.62 C292.55 101.32, 290.37 128.12, 290.37 161.93 C290.37 195.75, 290.15 234.1, 290.21 285.49 C290.28 336.89, 290.64 431.45, 290.77 470.32 C290.89 509.19, 290.93 510.65, 290.97 518.72 M0 0 C11.07 0.19, 42.42 0.19, 66.44 1.13 C90.46 2.08, 117.68 2.1, 144.12 5.67 C170.56 9.25, 203.06 15.25, 225.1 22.59 C247.15 29.94, 265.52 39.73, 276.37 49.74 C287.22 59.74, 287.88 63.92, 290.21 82.62 C292.55 101.32, 290.37 128.12, 290.37 161.93 C290.37 195.75, 290.15 234.1, 290.21 285.49 C290.28 336.89, 290.64 431.45, 290.77 470.32 C290.89 509.19, 290.93 510.65, 290.97 518.72" stroke="#E1E1E1" stroke-width="4" fill="none"></path></g></g><mask></mask><g stroke-linecap="round"><g transform="translate(834.1757060077382 118.8309955581218) rotate(0 -139.99706315526228 259.437624587418)"><path d="M0 0 C-10.65 0.18, -40.81 0.18, -63.92 1.09 C-87.03 2, -113.22 2.02, -138.67 5.46 C-164.11 8.9, -195.38 14.67, -216.59 21.74 C-237.79 28.8, -255.47 38.23, -265.91 47.85 C-276.35 57.48, -276.99 61.5, -279.23 79.49 C-281.48 97.48, -279.38 123.27, -279.38 155.81 C-279.38 188.34, -279.17 225.24, -279.23 274.69 C-279.29 324.14, -279.64 411.82, -279.77 452.52 C-279.89 493.22, -279.96 507.82, -279.99 518.88 M0 0 C-10.65 0.18, -40.81 0.18, -63.92 1.09 C-87.03 2, -113.22 2.02, -138.67 5.46 C-164.11 8.9, -195.38 14.67, -216.59 21.74 C-237.79 28.8, -255.47 38.23, -265.91 47.85 C-276.35 57.48, -276.99 61.5, -279.23 79.49 C-281.48 97.48, -279.38 123.27, -279.38 155.81 C-279.38 188.34, -279.17 225.24, -279.23 274.69 C-279.29 324.14, -279.64 411.82, -279.77 452.52 C-279.89 493.22, -279.96 507.82, -279.99 518.88" stroke="#E1E1E1" stroke-width="4" fill="none"></path></g></g><mask></mask><g stroke-linecap="round"><g transform="translate(557.2357439283899 588.2220610146588) rotate(0 143.59608024471459 24.283106449938018)"><path d="M0 0 C12.9 0.86, 50.56 2.26, 77.41 5.17 C104.26 8.08, 137.93 13.59, 161.12 17.46 C184.3 21.33, 198.56 23.87, 216.52 28.37 C234.49 32.87, 257.14 41.1, 268.92 44.47 C280.7 47.83, 284.15 47.88, 287.19 48.57 M0 0 C12.9 0.86, 50.56 2.26, 77.41 5.17 C104.26 8.08, 137.93 13.59, 161.12 17.46 C184.3 21.33, 198.56 23.87, 216.52 28.37 C234.49 32.87, 257.14 41.1, 268.92 44.47 C280.7 47.83, 284.15 47.88, 287.19 48.57" stroke="#E1E1E1" stroke-width="4" fill="none"></path></g></g><mask></mask><g stroke-linecap="round"><g transform="translate(336.6452139184932 200.4586394102654) rotate(0 108.55145275609537 -0.6544000109581987)"><path d="M0 0 C36.18 -0.22, 180.92 -1.09, 217.1 -1.31 M0 0 C36.18 -0.22, 180.92 -1.09, 217.1 -1.31" stroke="#E1E1E1" stroke-width="4" fill="none"></path></g></g><mask></mask><g stroke-linecap="round"><g transform="translate(388.7305424046319 202.0727091423879) rotate(0 -0.7351034975644453 66.12948957922666)"><path d="M0 0 C-0.25 22.04, -1.23 110.22, -1.47 132.26 M0 0 C-0.25 22.04, -1.23 110.22, -1.47 132.26" stroke="#E1E1E1" stroke-width="4" fill="none"></path></g></g><mask></mask><g stroke-linecap="round"><g transform="translate(499.0486997479531 199.78844958670845) rotate(0 0.7175592613458264 48.75543245182699)"><path d="M0 0 C0.24 16.25, 1.2 81.26, 1.44 97.51 M0 0 C0.24 16.25, 1.2 81.26, 1.44 97.51" stroke="#E1E1E1" stroke-width="4" fill="none"></path></g></g><mask></mask><g stroke-linecap="round"><g transform="translate(499.55397375105184 328.46840455654376) rotate(0 -0.00877211810924905 13.151159469553392)"><path d="M0 0 C0 4.38, -0.01 21.92, -0.02 26.3 M0 0 C0 4.38, -0.01 21.92, -0.02 26.3" stroke="#E1E1E1" stroke-width="4" fill="none"></path></g></g><mask></mask><g stroke-linecap="round"><g transform="translate(444.73525326203725 366.8341403196438) rotate(0 0.345621453508727 80.64559062659697)"><path d="M0 0 C0.12 26.88, 0.58 134.41, 0.69 161.29 M0 0 C0.12 26.88, 0.58 134.41, 0.69 161.29" stroke="#E1E1E1" stroke-width="4" fill="none"></path></g></g><mask></mask><g stroke-linecap="round"><g transform="translate(371.4670139654101 532.0587393330762) rotate(0 -0.01578981259684653 46.443102118199285)"><path d="M0 0 C-0.01 15.48, -0.03 77.41, -0.03 92.89 M0 0 C-0.01 15.48, -0.03 77.41, -0.03 92.89" stroke="#E1E1E1" stroke-width="4" fill="none"></path></g></g><mask></mask><g stroke-linecap="round"><g transform="translate(370.9512134205799 471.19778389033047) rotate(0 0.24386488344029544 14.951198105594406)"><path d="M0 0 C0.08 4.98, 0.41 24.92, 0.49 29.9 M0 0 C0.08 4.98, 0.41 24.92, 0.49 29.9" stroke="#E1E1E1" stroke-width="4" fill="none"></path></g></g><mask></mask><g stroke-linecap="round"><g transform="translate(338.39963754036415 639.2961287963891) rotate(0 105.05664090132605 37.38325853485183)"><path d="M0 0 C2.94 -1.58, 12.25 -6.96, 17.66 -9.48 C23.06 -12.01, 25.1 -16.01, 32.43 -15.15 C39.77 -14.29, 54.75 -9.36, 61.66 -4.31 C68.58 0.75, 70.3 13.9, 73.93 15.18 C77.56 16.45, 78.82 6.48, 83.46 3.36 C88.09 0.25, 95.64 -2.97, 101.75 -3.49 C107.87 -4.01, 114.45 -2.3, 120.15 0.24 C125.85 2.77, 130.89 12.21, 135.95 11.72 C141.02 11.24, 144.92 1.06, 150.53 -2.67 C156.14 -6.41, 162.56 -9.66, 169.61 -10.67 C176.67 -11.68, 185.62 -10.94, 192.85 -8.74 C200.09 -6.55, 206.24 1.53, 213.02 2.48 C219.8 3.44, 227.53 -2.69, 233.55 -3.02 C239.57 -3.36, 244.42 -3.12, 249.14 0.5 C253.86 4.12, 259.78 11.31, 261.86 18.7 C263.94 26.08, 264 38.42, 261.63 44.8 C259.26 51.19, 253.33 54.27, 247.63 57.01 C241.93 59.75, 232.76 61.93, 227.43 61.26 C222.1 60.59, 218.35 52.65, 215.66 52.98 C212.96 53.31, 213.71 60.13, 211.26 63.23 C208.81 66.33, 206.24 69.01, 200.96 71.58 C195.69 74.15, 187.47 78.65, 179.61 78.66 C171.76 78.67, 160.02 74.02, 153.82 71.65 C147.63 69.28, 145.93 63.14, 142.44 64.44 C138.95 65.73, 137.98 75.19, 132.87 79.44 C127.75 83.68, 119.39 89.04, 111.77 89.92 C104.15 90.79, 93.9 87.32, 87.14 84.68 C80.39 82.03, 74.56 77.81, 71.24 74.05 C67.92 70.29, 69.65 63.03, 67.23 62.11 C64.81 61.19, 61.92 65.68, 56.72 68.52 C51.53 71.35, 43.44 78.22, 36.06 79.11 C28.67 80, 18.35 76.61, 12.41 73.85 C6.46 71.09, 3.18 66, 0.4 62.53 C-2.39 59.07, -1.96 53.63, -4.32 53.07 C-6.67 52.51, -9.22 58.37, -13.73 59.17 C-18.24 59.98, -25.93 60.18, -31.36 57.92 C-36.79 55.65, -42.9 51.27, -46.3 45.57 C-49.69 39.86, -52.96 30.9, -51.74 23.69 C-50.53 16.48, -44.42 7.04, -39.03 2.3 C-33.63 -2.45, -25.9 -4.4, -19.4 -4.79 C-12.9 -5.17, -3.23 -0.8, 0 0 M0 0 C2.94 -1.58, 12.25 -6.96, 17.66 -9.48 C23.06 -12.01, 25.1 -16.01, 32.43 -15.15 C39.77 -14.29, 54.75 -9.36, 61.66 -4.31 C68.58 0.75, 70.3 13.9, 73.93 15.18 C77.56 16.45, 78.82 6.48, 83.46 3.36 C88.09 0.25, 95.64 -2.97, 101.75 -3.49 C107.87 -4.01, 114.45 -2.3, 120.15 0.24 C125.85 2.77, 130.89 12.21, 135.95 11.72 C141.02 11.24, 144.92 1.06, 150.53 -2.67 C156.14 -6.41, 162.56 -9.66, 169.61 -10.67 C176.67 -11.68, 185.62 -10.94, 192.85 -8.74 C200.09 -6.55, 206.24 1.53, 213.02 2.48 C219.8 3.44, 227.53 -2.69, 233.55 -3.02 C239.57 -3.36, 244.42 -3.12, 249.14 0.5 C253.86 4.12, 259.78 11.31, 261.86 18.7 C263.94 26.08, 264 38.42, 261.63 44.8 C259.26 51.19, 253.33 54.27, 247.63 57.01 C241.93 59.75, 232.76 61.93, 227.43 61.26 C222.1 60.59, 218.35 52.65, 215.66 52.98 C212.96 53.31, 213.71 60.13, 211.26 63.23 C208.81 66.33, 206.24 69.01, 200.96 71.58 C195.69 74.15, 187.47 78.65, 179.61 78.66 C171.76 78.67, 160.02 74.02, 153.82 71.65 C147.63 69.28, 145.93 63.14, 142.44 64.44 C138.95 65.73, 137.98 75.19, 132.87 79.44 C127.75 83.68, 119.39 89.04, 111.77 89.92 C104.15 90.79, 93.9 87.32, 87.14 84.68 C80.39 82.03, 74.56 77.81, 71.24 74.05 C67.92 70.29, 69.65 63.03, 67.23 62.11 C64.81 61.19, 61.92 65.68, 56.72 68.52 C51.53 71.35, 43.44 78.22, 36.06 79.11 C28.67 80, 18.35 76.61, 12.41 73.85 C6.46 71.09, 3.18 66, 0.4 62.53 C-2.39 59.07, -1.96 53.63, -4.32 53.07 C-6.67 52.51, -9.22 58.37, -13.73 59.17 C-18.24 59.98, -25.93 60.18, -31.36 57.92 C-36.79 55.65, -42.9 51.27, -46.3 45.57 C-49.69 39.86, -52.96 30.9, -51.74 23.69 C-50.53 16.48, -44.42 7.04, -39.03 2.3 C-33.63 -2.45, -25.9 -4.4, -19.4 -4.79 C-12.9 -5.17, -3.23 -0.8, 0 0" stroke="#E1E1E1" stroke-width="4" fill="none"></path></g></g><mask></mask><g stroke-linecap="round"><g transform="translate(517.7648909460843 589.1687370722585) rotate(0 0.370183384214954 18.279339716285882)"><path d="M0 0 C0.12 6.09, 0.62 30.47, 0.74 36.56 M0 0 C0.12 6.09, 0.62 30.47, 0.74 36.56" stroke="#E1E1E1" stroke-width="4" fill="none"></path></g></g><mask></mask><g stroke-linecap="round"><g transform="translate(743.0153397582492 180.2722412170034) rotate(0 0 13.38274338764063)"><path d="M0 0 C0 4.46, 0 22.3, 0 26.77 M0 0 C0 4.46, 0 22.3, 0 26.77" stroke="#E1E1E1" stroke-width="4" fill="none"></path></g></g><mask></mask><g stroke-linecap="round"><g transform="translate(744.2715070715078 238.27699500334268) rotate(0 -0.6877340597739021 53.137982659263514)"><path d="M0 0 C-0.23 17.71, -1.15 88.56, -1.38 106.28 M0 0 C-0.23 17.71, -1.15 88.56, -1.38 106.28" stroke="#E1E1E1" stroke-width="4" fill="none"></path></g></g><mask></mask><g stroke-linecap="round"><g transform="translate(664.2943518448485 372.4588224513674) rotate(0 30.458548499322234 117.37269472686835)"><path d="M0 0 C0.1 16.08, 0.61 74.29, 0.59 96.5 C0.57 118.71, -2.82 126.42, -0.13 133.27 C2.56 140.11, 10.26 135.44, 16.74 137.55 C23.22 139.66, 32.76 141.67, 38.76 145.95 C44.76 150.23, 49.2 154.16, 52.72 163.22 C56.24 172.29, 58.49 188.4, 59.88 200.32 C61.27 212.24, 60.85 229.01, 61.05 234.75 M0 0 C0.1 16.08, 0.61 74.29, 0.59 96.5 C0.57 118.71, -2.82 126.42, -0.13 133.27 C2.56 140.11, 10.26 135.44, 16.74 137.55 C23.22 139.66, 32.76 141.67, 38.76 145.95 C44.76 150.23, 49.2 154.16, 52.72 163.22 C56.24 172.29, 58.49 188.4, 59.88 200.32 C61.27 212.24, 60.85 229.01, 61.05 234.75" stroke="#E1E1E1" stroke-width="4" fill="none"></path></g></g><mask></mask><g stroke-linecap="round"><g transform="translate(656.8134895211863 645.9699562539928) rotate(0 -55.41873336769706 56.134538205421094)"><path d="M0 0 C1.62 4.98, 9.02 21.1, 9.74 29.87 C10.46 38.63, 8.76 45.31, 4.32 52.58 C-0.12 59.86, -8.75 67.43, -16.9 73.52 C-25.06 79.61, -33.1 84.02, -44.6 89.13 C-56.11 94.25, -73.29 100.35, -85.95 104.21 C-98.61 108.07, -114.8 110.93, -120.57 112.27 M0 0 C1.62 4.98, 9.02 21.1, 9.74 29.87 C10.46 38.63, 8.76 45.31, 4.32 52.58 C-0.12 59.86, -8.75 67.43, -16.9 73.52 C-25.06 79.61, -33.1 84.02, -44.6 89.13 C-56.11 94.25, -73.29 100.35, -85.95 104.21 C-98.61 108.07, -114.8 110.93, -120.57 112.27" stroke="#E1E1E1" stroke-width="4" fill="none"></path></g></g><mask></mask><g stroke-linecap="round"><g transform="translate(767.5281466030503 662.5843479531205) rotate(0 -37.06044458842729 46.28871283947461)"><path d="M0 0 C-0.18 3.65, 0.39 15.02, -1.08 21.91 C-2.56 28.8, -4.56 35.05, -8.84 41.35 C-13.12 47.66, -19.69 53.27, -26.76 59.73 C-33.83 66.19, -43.37 74.63, -51.27 80.1 C-59.16 85.58, -70.31 90.5, -74.12 92.58 M0 0 C-0.18 3.65, 0.39 15.02, -1.08 21.91 C-2.56 28.8, -4.56 35.05, -8.84 41.35 C-13.12 47.66, -19.69 53.27, -26.76 59.73 C-33.83 66.19, -43.37 74.63, -51.27 80.1 C-59.16 85.58, -70.31 90.5, -74.12 92.58" stroke="#E1E1E1" stroke-width="4" fill="none"></path></g></g><mask></mask><g stroke-linecap="round"><g transform="translate(231.6038699940347 644.2506211045576) rotate(0 54.75106618780063 55.45824723771291)"><path d="M0 0 C-1.6 4.92, -8.91 20.85, -9.62 29.51 C-10.33 38.17, -8.65 44.76, -4.26 51.95 C0.12 59.14, 8.64 66.61, 16.7 72.63 C24.75 78.65, 32.7 83, 44.07 88.06 C55.44 93.11, 72.41 99.14, 84.92 102.95 C97.43 106.76, 113.42 109.59, 119.12 110.92 M0 0 C-1.6 4.92, -8.91 20.85, -9.62 29.51 C-10.33 38.17, -8.65 44.76, -4.26 51.95 C0.12 59.14, 8.64 66.61, 16.7 72.63 C24.75 78.65, 32.7 83, 44.07 88.06 C55.44 93.11, 72.41 99.14, 84.92 102.95 C97.43 106.76, 113.42 109.59, 119.12 110.92" stroke="#E1E1E1" stroke-width="4" fill="none"></path></g></g><mask></mask><g stroke-linecap="round"><g transform="translate(122.2230677005229 660.6648479248207) rotate(0 36.61395220182061 45.73104122764775)"><path d="M0 0 C0.18 3.61, -0.38 14.84, 1.07 21.65 C2.53 28.45, 4.5 34.63, 8.73 40.85 C12.96 47.08, 19.45 52.63, 26.44 59.01 C33.43 65.39, 42.85 73.73, 50.65 79.14 C58.45 84.55, 69.46 89.41, 73.23 91.46 M0 0 C0.18 3.61, -0.38 14.84, 1.07 21.65 C2.53 28.45, 4.5 34.63, 8.73 40.85 C12.96 47.08, 19.45 52.63, 26.44 59.01 C33.43 65.39, 42.85 73.73, 50.65 79.14 C58.45 84.55, 69.46 89.41, 73.23 91.46" stroke="#E1E1E1" stroke-width="4" fill="none"></path></g></g><mask></mask><g stroke-linecap="round"><g transform="translate(159.13132173363937 180.59228719742816) rotate(0 30.25527761445457 210.20093573163427)"><path d="M0 0 C-0.12 18.36, -0.65 88.06, -0.71 110.16 C-0.77 132.27, -2.49 128.3, -0.34 132.61 C1.81 136.92, 6.43 133.93, 12.19 136.05 C17.94 138.17, 27.04 138.59, 34.2 145.31 C41.36 152.03, 50.7 164.04, 55.16 176.37 C59.61 188.71, 59.9 200.53, 60.91 219.31 C61.92 238.1, 61.35 255.54, 61.22 289.06 C61.09 322.57, 60.3 398.51, 60.12 420.4 M0 0 C-0.12 18.36, -0.65 88.06, -0.71 110.16 C-0.77 132.27, -2.49 128.3, -0.34 132.61 C1.81 136.92, 6.43 133.93, 12.19 136.05 C17.94 138.17, 27.04 138.59, 34.2 145.31 C41.36 152.03, 50.7 164.04, 55.16 176.37 C59.61 188.71, 59.9 200.53, 60.91 219.31 C61.92 238.1, 61.35 255.54, 61.22 289.06 C61.09 322.57, 60.3 398.51, 60.12 420.4" stroke="#E1E1E1" stroke-width="4" fill="none"></path></g></g><mask></mask><g stroke-linecap="round"><g transform="translate(334.04570184156745 584.8129375603777) rotate(0 -143.8351109941923 28.50165468009719)"><path d="M0 0 C-5.85 0.58, -21.22 1.72, -35.12 3.48 C-49.01 5.24, -68.07 8.1, -83.37 10.57 C-98.67 13.04, -101.19 13.28, -126.94 18.29 C-152.68 23.3, -211.04 34.17, -237.83 40.62 C-264.62 47.08, -279.36 54.27, -287.67 57 M0 0 C-5.85 0.58, -21.22 1.72, -35.12 3.48 C-49.01 5.24, -68.07 8.1, -83.37 10.57 C-98.67 13.04, -101.19 13.28, -126.94 18.29 C-152.68 23.3, -211.04 34.17, -237.83 40.62 C-264.62 47.08, -279.36 54.27, -287.67 57" stroke="#E1E1E1" stroke-width="4" fill="none"></path></g></g><mask></mask><g stroke-linecap="round"><g transform="translate(114.12025788599038 402.7150418177381) rotate(0 -0.23663345620241216 51.06211937054048)"><path d="M0 0 C-0.08 17.02, -0.39 85.1, -0.47 102.12 M0 0 C-0.08 17.02, -0.39 85.1, -0.47 102.12" stroke="#E1E1E1" stroke-width="4" fill="none"></path></g></g><mask></mask><g stroke-linecap="round"><g transform="translate(114.02447767752909 535.1001923031828) rotate(0 0 13.671216225600258)"><path d="M0 0 C0 4.56, 0 22.79, 0 27.34 M0 0 C0 4.56, 0 22.79, 0 27.34" stroke="#E1E1E1" stroke-width="4" fill="none"></path></g></g><mask></mask><g stroke-linecap="round"><g transform="translate(323.93772709689455 170.0953810127586) rotate(0 -156.96886354844727 -80.0476905063793)"><path d="M0 0 C0 -5.55, 3.43 -23.22, 0 -33.32 C-3.43 -43.42, -10.28 -51.79, -20.61 -60.6 C-30.93 -69.4, -42.51 -76.38, -61.93 -86.16 C-81.35 -95.93, -108.81 -109.28, -137.14 -119.24 C-165.47 -129.2, -202.46 -139.09, -231.93 -145.9 C-261.39 -152.71, -300.27 -157.73, -313.94 -160.1 M0 0 C0 -5.55, 3.43 -23.22, 0 -33.32 C-3.43 -43.42, -10.28 -51.79, -20.61 -60.6 C-30.93 -69.4, -42.51 -76.38, -61.93 -86.16 C-81.35 -95.93, -108.81 -109.28, -137.14 -119.24 C-165.47 -129.2, -202.46 -139.09, -231.93 -145.9 C-261.39 -152.71, -300.27 -157.73, -313.94 -160.1" stroke="#E1E1E1" stroke-width="4" fill="none"></path></g></g><mask></mask><g stroke-linecap="round"><g transform="translate(566.460342340861 184.96781776106684) rotate(4.741511594890902 148.69895058423953 -75.83037365443383)"><path d="M0 0 C0 -5.26, -3.25 -21.99, 0 -31.56 C3.25 -41.13, 9.74 -49.06, 19.52 -57.4 C29.3 -65.75, 40.27 -72.36, 58.67 -81.62 C77.06 -90.88, 103.08 -103.53, 129.92 -112.96 C156.76 -122.39, 191.79 -131.76, 219.71 -138.21 C247.62 -144.66, 284.45 -149.42, 297.4 -151.66 M0 0 C0 -5.26, -3.25 -21.99, 0 -31.56 C3.25 -41.13, 9.74 -49.06, 19.52 -57.4 C29.3 -65.75, 40.27 -72.36, 58.67 -81.62 C77.06 -90.88, 103.08 -103.53, 129.92 -112.96 C156.76 -122.39, 191.79 -131.76, 219.71 -138.21 C247.62 -144.66, 284.45 -149.42, 297.4 -151.66" stroke="#E1E1E1" stroke-width="4" fill="none"></path></g></g><mask></mask><g stroke-linecap="round"><g transform="translate(329.2819796827827 152.6276027364994) rotate(0 115.09157061196443 -0.49085440791967017)"><path d="M0 0 C38.36 -0.16, 191.82 -0.82, 230.18 -0.98 M0 0 C38.36 -0.16, 191.82 -0.82, 230.18 -0.98" stroke="#E1E1E1" stroke-width="4" fill="none"></path></g></g><mask></mask><g stroke-linecap="round"><g transform="translate(499.75295794420543 198.81424491269274) rotate(0 5.271445427971869 -12.142304095231765)"><path d="M0 0 C1.76 -4.05, 8.79 -20.24, 10.54 -24.28 M0 0 C1.76 -4.05, 8.79 -20.24, 10.54 -24.28" stroke="#E1E1E1" stroke-width="4" fill="none"></path></g></g><mask></mask><g stroke-linecap="round"><g transform="translate(389.9162871060127 202.57562363405407) rotate(0 8.087515772732651 -13.893937353155934)"><path d="M0 0 C2.7 -4.63, 13.48 -23.16, 16.18 -27.79 M0 0 C2.7 -4.63, 13.48 -23.16, 16.18 -27.79" stroke="#E1E1E1" stroke-width="4" fill="none"></path></g></g><mask></mask><g stroke-linecap="round"><g transform="translate(378.2659141387923 163.45045563805172) rotate(0 -5.2857066945636255 7.884968674782641)"><path d="M0 0 C-1.76 2.63, -8.81 13.14, -10.57 15.77 M0 0 C-1.76 2.63, -8.81 13.14, -10.57 15.77" stroke="#E1E1E1" stroke-width="4" fill="none"></path></g></g><mask></mask><g stroke-linecap="round" transform="translate(526.4725071419437 160.21455694817007) rotate(0 12.690156578931337 10.171994816504053)"><path d="M25.38 10.17 C25.38 10.76, 25.32 11.36, 25.19 11.94 C25.06 12.52, 24.87 13.1, 24.62 13.65 C24.36 14.2, 24.05 14.75, 23.68 15.26 C23.31 15.77, 22.88 16.26, 22.41 16.71 C21.94 17.16, 21.41 17.59, 20.85 17.96 C20.28 18.34, 19.67 18.69, 19.04 18.98 C18.4 19.28, 17.72 19.53, 17.03 19.73 C16.34 19.93, 15.62 20.09, 14.89 20.19 C14.17 20.29, 13.42 20.34, 12.69 20.34 C11.96 20.34, 11.21 20.29, 10.49 20.19 C9.76 20.09, 9.04 19.93, 8.35 19.73 C7.66 19.53, 6.98 19.28, 6.35 18.98 C5.71 18.69, 5.1 18.34, 4.53 17.96 C3.97 17.59, 3.44 17.16, 2.97 16.71 C2.5 16.26, 2.07 15.77, 1.7 15.26 C1.33 14.75, 1.02 14.2, 0.77 13.65 C0.51 13.1, 0.32 12.52, 0.19 11.94 C0.07 11.36, 0 10.76, 0 10.17 C0 9.58, 0.07 8.99, 0.19 8.41 C0.32 7.83, 0.51 7.25, 0.77 6.69 C1.02 6.14, 1.33 5.6, 1.7 5.09 C2.07 4.58, 2.5 4.08, 2.97 3.63 C3.44 3.18, 3.97 2.76, 4.53 2.38 C5.1 2, 5.71 1.66, 6.35 1.36 C6.98 1.07, 7.66 0.81, 8.35 0.61 C9.04 0.41, 9.76 0.26, 10.49 0.15 C11.21 0.05, 11.96 0, 12.69 0 C13.42 0, 14.17 0.05, 14.89 0.15 C15.62 0.26, 16.34 0.41, 17.03 0.61 C17.72 0.81, 18.4 1.07, 19.04 1.36 C19.67 1.66, 20.28 2, 20.85 2.38 C21.41 2.76, 21.94 3.18, 22.41 3.63 C22.88 4.08, 23.31 4.58, 23.68 5.09 C24.05 5.6, 24.36 6.14, 24.62 6.69 C24.87 7.25, 25.06 7.83, 25.19 8.41 C25.32 8.99, 25.35 9.88, 25.38 10.17 C25.41 10.47, 25.41 9.88, 25.38 10.17" stroke="#E1E1E1" stroke-width="4" fill="none"></path></g></svg>