<svg version="1.1" xmlns="http://www.w3.org/2000/svg" viewBox="0 0 837.4432961125494 605.6136550341389" width="837.4432961125494" height="605.6136550341389" class="excalidraw-svg"><!-- svg-source:excalidraw --><metadata></metadata><defs><style class="style-fonts">
      </style></defs><rect x="0" y="0" width="837.4432961125494" height="605.6136550341389" fill="#000000"></rect><g stroke-linecap="round"><g transform="translate(690.0433346354694 264.5117339095232) rotate(0 64.06882495585342 -43.67486124682773)"><path d="M0 0 C2.59 -3.96, 10.05 -16.57, 15.55 -23.77 C21.05 -30.97, 26.73 -36.58, 33 -43.22 C39.26 -49.86, 46.78 -57.97, 53.12 -63.62 C59.47 -69.27, 64.92 -73.42, 71.07 -77.11 C77.22 -80.81, 84.04 -84.1, 90 -85.8 C95.96 -87.51, 101.8 -87.89, 106.82 -87.35 C111.85 -86.81, 116.62 -85.06, 120.14 -82.55 C123.66 -80.05, 126.61 -76.03, 127.94 -72.29 C129.28 -68.56, 129.35 -64.1, 128.14 -60.15 C126.93 -56.21, 123.7 -51.72, 120.68 -48.61 C117.67 -45.49, 115.02 -43.54, 110.05 -41.47 C105.08 -39.4, 97.96 -37.9, 90.86 -36.2 C83.75 -34.5, 75.13 -33.22, 67.4 -31.25 C59.68 -29.28, 52.11 -27.39, 44.52 -24.36 C36.92 -21.32, 29.27 -17.11, 21.85 -13.05 C14.43 -8.99, 3.64 -2.18, 0 0 M0 0 C2.59 -3.96, 10.05 -16.57, 15.55 -23.77 C21.05 -30.97, 26.73 -36.58, 33 -43.22 C39.26 -49.86, 46.78 -57.97, 53.12 -63.62 C59.47 -69.27, 64.92 -73.42, 71.07 -77.11 C77.22 -80.81, 84.04 -84.1, 90 -85.8 C95.96 -87.51, 101.8 -87.89, 106.82 -87.35 C111.85 -86.81, 116.62 -85.06, 120.14 -82.55 C123.66 -80.05, 126.61 -76.03, 127.94 -72.29 C129.28 -68.56, 129.35 -64.1, 128.14 -60.15 C126.93 -56.21, 123.7 -51.72, 120.68 -48.61 C117.67 -45.49, 115.02 -43.54, 110.05 -41.47 C105.08 -39.4, 97.96 -37.9, 90.86 -36.2 C83.75 -34.5, 75.13 -33.22, 67.4 -31.25 C59.68 -29.28, 52.11 -27.39, 44.52 -24.36 C36.92 -21.32, 29.27 -17.11, 21.85 -13.05 C14.43 -8.99, 3.64 -2.18, 0 0" stroke="#FFFFFF" stroke-width="2" fill="none"></path></g></g><mask></mask><g stroke-linecap="round"><g transform="translate(725.1013375769398 233.3859798593685) rotate(0 43.80402756665808 -27.810374206890174)"><path d="M0 0 C3.9 -1.54, 14.29 -6.42, 23.4 -9.27 C32.51 -12.12, 45.93 -14.64, 54.67 -17.1 C63.41 -19.57, 70.56 -21.26, 75.85 -24.05 C81.13 -26.83, 84.4 -30.48, 86.36 -33.81 C88.32 -37.14, 87.96 -41.24, 87.61 -44.04 C87.25 -46.84, 86.14 -48.69, 84.24 -50.62 C82.35 -52.55, 77.57 -54.79, 76.23 -55.62 M0 0 C3.9 -1.54, 14.29 -6.42, 23.4 -9.27 C32.51 -12.12, 45.93 -14.64, 54.67 -17.1 C63.41 -19.57, 70.56 -21.26, 75.85 -24.05 C81.13 -26.83, 84.4 -30.48, 86.36 -33.81 C88.32 -37.14, 87.96 -41.24, 87.61 -44.04 C87.25 -46.84, 86.14 -48.69, 84.24 -50.62 C82.35 -52.55, 77.57 -54.79, 76.23 -55.62" stroke="#FFFFFF" stroke-width="2" fill="none"></path></g></g><mask></mask><g stroke-linecap="round"><g transform="translate(748.6235897072074 203.17837196924302) rotate(0 22.233585057943856 -10.372921029848385)"><path d="M0 0 C1.48 -1.25, 4.94 -4.7, 8.87 -7.52 C12.8 -10.34, 18.62 -14.69, 23.57 -16.92 C28.52 -19.15, 35.1 -20.7, 38.58 -20.9 C42.06 -21.11, 43.83 -19.31, 44.47 -18.16 C45.1 -17, 44.71 -15.82, 42.39 -13.97 C40.07 -12.12, 35.35 -9.18, 30.56 -7.06 C25.77 -4.93, 18.1 -2.44, 13.65 -1.24 C9.2 -0.04, 6.12 -0.05, 3.85 0.16 C1.57 0.36, 0.64 0.03, 0 0 M0 0 C1.48 -1.25, 4.94 -4.7, 8.87 -7.52 C12.8 -10.34, 18.62 -14.69, 23.57 -16.92 C28.52 -19.15, 35.1 -20.7, 38.58 -20.9 C42.06 -21.11, 43.83 -19.31, 44.47 -18.16 C45.1 -17, 44.71 -15.82, 42.39 -13.97 C40.07 -12.12, 35.35 -9.18, 30.56 -7.06 C25.77 -4.93, 18.1 -2.44, 13.65 -1.24 C9.2 -0.04, 6.12 -0.05, 3.85 0.16 C1.57 0.36, 0.64 0.03, 0 0" stroke="#FFFFFF" stroke-width="2" fill="none"></path></g></g><mask></mask><g stroke-linecap="round"><g transform="translate(764.0776074885107 191.58403025007465) rotate(0 -1.2354026105385856 4.851726662890542)"><path d="M0 0 C-0.56 1.11, -3.52 5.05, -3.37 6.66 C-3.22 8.28, 0.19 9.2, 0.9 9.7 M0 0 C-0.56 1.11, -3.52 5.05, -3.37 6.66 C-3.22 8.28, 0.19 9.2, 0.9 9.7" stroke="#FFFFFF" stroke-width="2" fill="none"></path></g></g><mask></mask><g stroke-linecap="round"><g transform="translate(711.5636882941999 173.58178624097945) rotate(0 44.79874139050298 -52.29105374641176)"><path d="M0 0 C2.91 -6.35, 12.01 -26.74, 17.48 -38.12 C22.94 -49.51, 27.57 -59.32, 32.8 -68.29 C38.04 -77.27, 43.67 -86.1, 48.88 -91.95 C54.09 -97.8, 59.46 -101.29, 64.08 -103.4 C68.7 -105.5, 73 -105.48, 76.6 -104.58 C80.2 -103.69, 83.53 -100.75, 85.69 -98.03 C87.86 -95.3, 89.19 -92.01, 89.6 -88.24 C90 -84.47, 90.05 -80.13, 88.13 -75.4 C86.22 -70.67, 83.45 -65.4, 78.1 -59.87 C72.76 -54.34, 64.05 -48.02, 56.06 -42.21 C48.08 -36.39, 37.52 -30.26, 30.21 -24.99 C22.89 -19.72, 17.21 -14.74, 12.18 -10.58 C7.14 -6.41, 2.03 -1.76, 0 0 M0 0 C2.91 -6.35, 12.01 -26.74, 17.48 -38.12 C22.94 -49.51, 27.57 -59.32, 32.8 -68.29 C38.04 -77.27, 43.67 -86.1, 48.88 -91.95 C54.09 -97.8, 59.46 -101.29, 64.08 -103.4 C68.7 -105.5, 73 -105.48, 76.6 -104.58 C80.2 -103.69, 83.53 -100.75, 85.69 -98.03 C87.86 -95.3, 89.19 -92.01, 89.6 -88.24 C90 -84.47, 90.05 -80.13, 88.13 -75.4 C86.22 -70.67, 83.45 -65.4, 78.1 -59.87 C72.76 -54.34, 64.05 -48.02, 56.06 -42.21 C48.08 -36.39, 37.52 -30.26, 30.21 -24.99 C22.89 -19.72, 17.21 -14.74, 12.18 -10.58 C7.14 -6.41, 2.03 -1.76, 0 0" stroke="#FFFFFF" stroke-width="2" fill="none"></path></g></g><mask></mask><g stroke-linecap="round"><g transform="translate(732.0210569686533 143.59940823902434) rotate(0 31.354458332945796 -36.56938204463677)"><path d="M0 0 C4.67 -3.39, 20.19 -14.38, 28.05 -20.36 C35.9 -26.33, 41.77 -30.3, 47.13 -35.85 C52.48 -41.4, 57.59 -48.82, 60.18 -53.66 C62.78 -58.49, 62.94 -61.62, 62.71 -64.87 C62.48 -68.11, 59.44 -71.76, 58.78 -73.14 M0 0 C4.67 -3.39, 20.19 -14.38, 28.05 -20.36 C35.9 -26.33, 41.77 -30.3, 47.13 -35.85 C52.48 -41.4, 57.59 -48.82, 60.18 -53.66 C62.78 -58.49, 62.94 -61.62, 62.71 -64.87 C62.48 -68.11, 59.44 -71.76, 58.78 -73.14" stroke="#FFFFFF" stroke-width="2" fill="none"></path></g></g><mask></mask><g stroke-linecap="round"><g transform="translate(767.5457692042764 95.64666736355775) rotate(0 -1.4111714245273106 -5.05163266780437)"><path d="M0 0 C-1.4 1.3, -6.37 6.43, -8.41 7.81 C-10.45 9.2, -11.45 8.91, -12.25 8.31 C-13.04 7.71, -13.41 6.1, -13.18 4.2 C-12.94 2.29, -12.28 -0.61, -10.82 -3.11 C-9.36 -5.61, -6.89 -8.35, -4.42 -10.8 C-1.95 -13.24, 1.56 -16.51, 4 -17.78 C6.45 -19.05, 9.18 -19.09, 10.24 -18.41 C11.3 -17.73, 11.5 -16.09, 10.35 -13.7 C9.2 -11.3, 5.07 -6.33, 3.34 -4.05 C1.61 -1.76, 0.56 -0.67, 0 0 M0 0 C-1.4 1.3, -6.37 6.43, -8.41 7.81 C-10.45 9.2, -11.45 8.91, -12.25 8.31 C-13.04 7.71, -13.41 6.1, -13.18 4.2 C-12.94 2.29, -12.28 -0.61, -10.82 -3.11 C-9.36 -5.61, -6.89 -8.35, -4.42 -10.8 C-1.95 -13.24, 1.56 -16.51, 4 -17.78 C6.45 -19.05, 9.18 -19.09, 10.24 -18.41 C11.3 -17.73, 11.5 -16.09, 10.35 -13.7 C9.2 -11.3, 5.07 -6.33, 3.34 -4.05 C1.61 -1.76, 0.56 -0.67, 0 0" stroke="#FFFFFF" stroke-width="2" fill="none"></path></g></g><mask></mask><g stroke-linecap="round"><g transform="translate(641.9719621054282 171.65655766791951) rotate(0 16.9628117421762 -23.786020775560246)"><path d="M0 0 C0.11 -1.54, -0.4 -4.16, 0.63 -9.25 C1.66 -14.33, 4.09 -24.95, 6.17 -30.51 C8.25 -36.07, 10.49 -39.76, 13.11 -42.61 C15.73 -45.45, 19.17 -46.83, 21.9 -47.57 C24.62 -48.32, 27.44 -48.27, 29.44 -47.07 C31.45 -45.88, 33.38 -43.14, 33.93 -40.41 C34.47 -37.69, 34.18 -33.93, 32.7 -30.72 C31.21 -27.52, 28.47 -24.43, 25 -21.18 C21.54 -17.92, 15.33 -13.96, 11.92 -11.21 C8.5 -8.45, 6.5 -6.5, 4.52 -4.63 C2.53 -2.76, 0.75 -0.77, 0 0 M0 0 C0.11 -1.54, -0.4 -4.16, 0.63 -9.25 C1.66 -14.33, 4.09 -24.95, 6.17 -30.51 C8.25 -36.07, 10.49 -39.76, 13.11 -42.61 C15.73 -45.45, 19.17 -46.83, 21.9 -47.57 C24.62 -48.32, 27.44 -48.27, 29.44 -47.07 C31.45 -45.88, 33.38 -43.14, 33.93 -40.41 C34.47 -37.69, 34.18 -33.93, 32.7 -30.72 C31.21 -27.52, 28.47 -24.43, 25 -21.18 C21.54 -17.92, 15.33 -13.96, 11.92 -11.21 C8.5 -8.45, 6.5 -6.5, 4.52 -4.63 C2.53 -2.76, 0.75 -0.77, 0 0" stroke="#FFFFFF" stroke-width="2" fill="none"></path></g></g><mask></mask><g stroke-linecap="round"><g transform="translate(570.4105436301961 214.54333083635538) rotate(0 9.4715814901665 -10.442994434413322)"><path d="M0 0 C-0.18 -0.75, -1.06 -2.49, -1.1 -4.51 C-1.14 -6.53, -0.81 -9.81, -0.25 -12.1 C0.31 -14.39, 0.92 -16.38, 2.28 -18.25 C3.65 -20.11, 5.92 -22.38, 7.94 -23.3 C9.95 -24.22, 12.56 -24.12, 14.36 -23.77 C16.15 -23.42, 17.76 -22.75, 18.7 -21.19 C19.65 -19.64, 20.16 -17, 20.04 -14.41 C19.92 -11.82, 19.07 -8.07, 17.98 -5.64 C16.9 -3.2, 15.2 -1.22, 13.55 0.2 C11.91 1.62, 9.85 2.49, 8.1 2.88 C6.35 3.28, 4.42 3.05, 3.07 2.57 C1.72 2.09, 0.51 0.43, 0 0 M0 0 C-0.18 -0.75, -1.06 -2.49, -1.1 -4.51 C-1.14 -6.53, -0.81 -9.81, -0.25 -12.1 C0.31 -14.39, 0.92 -16.38, 2.28 -18.25 C3.65 -20.11, 5.92 -22.38, 7.94 -23.3 C9.95 -24.22, 12.56 -24.12, 14.36 -23.77 C16.15 -23.42, 17.76 -22.75, 18.7 -21.19 C19.65 -19.64, 20.16 -17, 20.04 -14.41 C19.92 -11.82, 19.07 -8.07, 17.98 -5.64 C16.9 -3.2, 15.2 -1.22, 13.55 0.2 C11.91 1.62, 9.85 2.49, 8.1 2.88 C6.35 3.28, 4.42 3.05, 3.07 2.57 C1.72 2.09, 0.51 0.43, 0 0" stroke="#FFFFFF" stroke-width="2" fill="none"></path></g></g><mask></mask><g stroke-linecap="round"><g transform="translate(654.8272908434028 136.11635073768048) rotate(0 4.630956429205071 -4.894869369676144)"><path d="M0 0 C0.79 -0.82, 3.19 -3.28, 4.77 -4.91 C6.34 -6.54, 9.5 -9.14, 9.47 -9.79 C9.43 -10.44, 6.01 -9.57, 4.55 -8.78 C3.1 -7.99, 1.53 -6.24, 0.74 -5.06 C-0.06 -3.87, -0.08 -2.52, -0.21 -1.68 C-0.33 -0.84, -0.03 -0.28, 0 0 M0 0 C0.79 -0.82, 3.19 -3.28, 4.77 -4.91 C6.34 -6.54, 9.5 -9.14, 9.47 -9.79 C9.43 -10.44, 6.01 -9.57, 4.55 -8.78 C3.1 -7.99, 1.53 -6.24, 0.74 -5.06 C-0.06 -3.87, -0.08 -2.52, -0.21 -1.68 C-0.33 -0.84, -0.03 -0.28, 0 0" stroke="#FFFFFF" stroke-width="2" fill="none"></path></g></g><mask></mask><g stroke-linecap="round"><g transform="translate(365.5257277205219 401.9799034960406) rotate(0 82.19727666719245 -83.37258655583128)"><path d="M0 0 C-3.21 0.07, -12.69 0.11, -19.28 0.42 C-25.87 0.73, -32.35 1.21, -39.56 1.86 C-46.78 2.51, -52.5 2.99, -62.56 4.32 C-72.62 5.65, -89.56 7.85, -99.93 9.86 C-110.31 11.88, -117.68 14.28, -124.79 16.41 C-131.9 18.55, -137.4 20.24, -142.59 22.69 C-147.79 25.15, -152.65 28.45, -155.97 31.16 C-159.29 33.86, -161.18 36.2, -162.51 38.94 C-163.84 41.68, -164.59 44.53, -163.93 47.59 C-163.28 50.65, -161.55 54.14, -158.58 57.29 C-155.6 60.44, -150.49 63.81, -146.07 66.49 C-141.65 69.16, -138.49 70.8, -132.05 73.33 C-125.61 75.86, -116.03 79.2, -107.44 81.67 C-98.84 84.13, -89.84 86.15, -80.49 88.11 C-71.13 90.06, -61.46 91.92, -51.33 93.39 C-41.2 94.87, -32.71 95.89, -19.71 96.96 C-6.7 98.04, 10.89 99.45, 26.7 99.84 C42.51 100.24, 60.12 99.58, 75.15 99.33 C90.19 99.09, 102.66 99.11, 116.93 98.39 C131.19 97.66, 145.42 96.63, 160.74 94.98 C176.05 93.33, 191.48 91.38, 208.81 88.48 C226.14 85.58, 247.92 81.7, 264.71 77.58 C281.5 73.46, 299.45 67.44, 309.54 63.74 C319.64 60.04, 322.15 57.66, 325.28 55.4 C328.41 53.14, 328.39 51.81, 328.33 50.18 C328.27 48.56, 327.92 47.55, 324.92 45.66 C321.93 43.77, 316.15 41.22, 310.36 38.86 C304.58 36.5, 296.38 33.96, 290.21 31.51 C284.04 29.07, 278.24 27.18, 273.35 24.18 C268.45 21.18, 264.43 17.41, 260.84 13.49 C257.25 9.57, 254 5.25, 251.79 0.66 C249.57 -3.93, 248.34 -7.98, 247.53 -14.04 C246.72 -20.1, 246.6 -27.95, 246.94 -35.7 C247.27 -43.45, 247.99 -52.08, 249.57 -60.55 C251.15 -69.02, 253.86 -78.39, 256.41 -86.54 C258.96 -94.68, 261.66 -102.77, 264.87 -109.42 C268.08 -116.07, 271.82 -121.08, 275.66 -126.44 C279.5 -131.81, 283.64 -136.05, 287.91 -141.62 C292.17 -147.2, 298.59 -155.39, 301.23 -159.9 C303.87 -164.41, 303.84 -165.93, 303.76 -168.66 C303.69 -171.4, 302.69 -174.18, 300.79 -176.31 C298.9 -178.45, 295.4 -180.43, 292.41 -181.46 C289.42 -182.5, 285.94 -183.01, 282.87 -182.54 C279.8 -182.06, 276.94 -180.78, 273.98 -178.61 C271.02 -176.44, 268.16 -173.34, 265.1 -169.49 C262.04 -165.65, 259.65 -161.54, 255.64 -155.55 C251.63 -149.56, 246.09 -141.29, 241.05 -133.56 C236.01 -125.83, 229.09 -115.16, 225.4 -109.18 C221.7 -103.2, 220.71 -100.47, 218.88 -97.68 C217.05 -94.9, 216.34 -94.13, 214.41 -92.47 C212.48 -90.8, 209.64 -88.79, 207.3 -87.7 C204.96 -86.6, 202.59 -85.76, 200.37 -85.91 C198.14 -86.06, 195.56 -86.99, 193.95 -88.58 C192.33 -90.17, 191.43 -91.98, 190.68 -95.45 C189.93 -98.92, 189.27 -105.1, 189.45 -109.4 C189.63 -113.69, 190.05 -117.53, 191.75 -121.22 C193.45 -124.9, 197.58 -129, 199.65 -131.5 C201.72 -134.01, 203.11 -134.57, 204.15 -136.24 C205.19 -137.91, 205.7 -139.59, 205.88 -141.52 C206.06 -143.46, 206.02 -146.22, 205.22 -147.85 C204.42 -149.48, 202.68 -150.69, 201.08 -151.29 C199.47 -151.89, 197.35 -152.09, 195.58 -151.43 C193.81 -150.78, 192.17 -149.81, 190.45 -147.38 C188.74 -144.94, 187.38 -141.11, 185.27 -136.82 C183.16 -132.53, 179.84 -125.72, 177.78 -121.66 C175.72 -117.61, 175.07 -115.14, 172.9 -112.51 C170.74 -109.87, 167.44 -107.33, 164.78 -105.85 C162.12 -104.36, 159.41 -103.69, 156.96 -103.58 C154.52 -103.48, 152.37 -103.92, 150.13 -105.23 C147.88 -106.54, 145.35 -108.25, 143.49 -111.45 C141.62 -114.65, 139.86 -119.45, 138.93 -124.42 C138.01 -129.38, 137.82 -135.12, 137.94 -141.24 C138.07 -147.36, 138.49 -154.43, 139.71 -161.15 C140.93 -167.87, 142.34 -173.85, 145.27 -181.54 C148.2 -189.22, 153.17 -199.36, 157.28 -207.26 C161.4 -215.15, 167.04 -223.16, 169.96 -228.9 C172.89 -234.65, 173.92 -237.98, 174.83 -241.73 C175.74 -245.49, 175.92 -248.43, 175.42 -251.46 C174.92 -254.49, 173.59 -257.53, 171.83 -259.91 C170.08 -262.29, 167.62 -264.61, 164.89 -265.72 C162.16 -266.84, 157.93 -266.97, 155.43 -266.59 C152.94 -266.21, 151.69 -265.19, 149.9 -263.47 C148.1 -261.75, 146.35 -260.71, 144.69 -256.29 C143.02 -251.86, 141.59 -243.89, 139.92 -236.93 C138.24 -229.97, 136.79 -223.43, 134.63 -214.54 C132.46 -205.65, 129.28 -192.42, 126.94 -183.59 C124.61 -174.76, 122.64 -167.63, 120.62 -161.55 C118.6 -155.47, 116.9 -151.25, 114.84 -147.09 C112.78 -142.92, 110.49 -139.4, 108.29 -136.56 C106.08 -133.72, 104.08 -131.63, 101.6 -130.04 C99.13 -128.45, 95.79 -127.32, 93.42 -127.02 C91.06 -126.73, 89.6 -126.69, 87.4 -128.27 C85.2 -129.84, 82.53 -133.21, 80.24 -136.48 C77.95 -139.75, 76.08 -144.4, 73.65 -147.89 C71.23 -151.37, 68.09 -155.25, 65.7 -157.37 C63.31 -159.5, 61.42 -160.14, 59.3 -160.62 C57.17 -161.1, 54.87 -161.09, 52.96 -160.25 C51.04 -159.4, 48.98 -157.54, 47.8 -155.56 C46.62 -153.58, 45.95 -151.03, 45.9 -148.36 C45.84 -145.68, 46.58 -142.63, 47.45 -139.52 C48.31 -136.41, 50.06 -133.24, 51.1 -129.7 C52.15 -126.16, 53 -122.89, 53.7 -118.25 C54.41 -113.61, 55.13 -107.88, 55.34 -101.83 C55.56 -95.79, 55.59 -88.57, 55 -81.98 C54.42 -75.39, 53.68 -69.03, 51.84 -62.31 C50 -55.6, 47.11 -47.82, 43.99 -41.68 C40.86 -35.54, 37.03 -30.46, 33.08 -25.46 C29.13 -20.46, 24.67 -15.46, 20.28 -11.67 C15.9 -7.89, 10.15 -4.69, 6.77 -2.74 C3.39 -0.8, 1.13 -0.46, 0 0 M0 0 C-3.21 0.07, -12.69 0.11, -19.28 0.42 C-25.87 0.73, -32.35 1.21, -39.56 1.86 C-46.78 2.51, -52.5 2.99, -62.56 4.32 C-72.62 5.65, -89.56 7.85, -99.93 9.86 C-110.31 11.88, -117.68 14.28, -124.79 16.41 C-131.9 18.55, -137.4 20.24, -142.59 22.69 C-147.79 25.15, -152.65 28.45, -155.97 31.16 C-159.29 33.86, -161.18 36.2, -162.51 38.94 C-163.84 41.68, -164.59 44.53, -163.93 47.59 C-163.28 50.65, -161.55 54.14, -158.58 57.29 C-155.6 60.44, -150.49 63.81, -146.07 66.49 C-141.65 69.16, -138.49 70.8, -132.05 73.33 C-125.61 75.86, -116.03 79.2, -107.44 81.67 C-98.84 84.13, -89.84 86.15, -80.49 88.11 C-71.13 90.06, -61.46 91.92, -51.33 93.39 C-41.2 94.87, -32.71 95.89, -19.71 96.96 C-6.7 98.04, 10.89 99.45, 26.7 99.84 C42.51 100.24, 60.12 99.58, 75.15 99.33 C90.19 99.09, 102.66 99.11, 116.93 98.39 C131.19 97.66, 145.42 96.63, 160.74 94.98 C176.05 93.33, 191.48 91.38, 208.81 88.48 C226.14 85.58, 247.92 81.7, 264.71 77.58 C281.5 73.46, 299.45 67.44, 309.54 63.74 C319.64 60.04, 322.15 57.66, 325.28 55.4 C328.41 53.14, 328.39 51.81, 328.33 50.18 C328.27 48.56, 327.92 47.55, 324.92 45.66 C321.93 43.77, 316.15 41.22, 310.36 38.86 C304.58 36.5, 296.38 33.96, 290.21 31.51 C284.04 29.07, 278.24 27.18, 273.35 24.18 C268.45 21.18, 264.43 17.41, 260.84 13.49 C257.25 9.57, 254 5.25, 251.79 0.66 C249.57 -3.93, 248.34 -7.98, 247.53 -14.04 C246.72 -20.1, 246.6 -27.95, 246.94 -35.7 C247.27 -43.45, 247.99 -52.08, 249.57 -60.55 C251.15 -69.02, 253.86 -78.39, 256.41 -86.54 C258.96 -94.68, 261.66 -102.77, 264.87 -109.42 C268.08 -116.07, 271.82 -121.08, 275.66 -126.44 C279.5 -131.81, 283.64 -136.05, 287.91 -141.62 C292.17 -147.2, 298.59 -155.39, 301.23 -159.9 C303.87 -164.41, 303.84 -165.93, 303.76 -168.66 C303.69 -171.4, 302.69 -174.18, 300.79 -176.31 C298.9 -178.45, 295.4 -180.43, 292.41 -181.46 C289.42 -182.5, 285.94 -183.01, 282.87 -182.54 C279.8 -182.06, 276.94 -180.78, 273.98 -178.61 C271.02 -176.44, 268.16 -173.34, 265.1 -169.49 C262.04 -165.65, 259.65 -161.54, 255.64 -155.55 C251.63 -149.56, 246.09 -141.29, 241.05 -133.56 C236.01 -125.83, 229.09 -115.16, 225.4 -109.18 C221.7 -103.2, 220.71 -100.47, 218.88 -97.68 C217.05 -94.9, 216.34 -94.13, 214.41 -92.47 C212.48 -90.8, 209.64 -88.79, 207.3 -87.7 C204.96 -86.6, 202.59 -85.76, 200.37 -85.91 C198.14 -86.06, 195.56 -86.99, 193.95 -88.58 C192.33 -90.17, 191.43 -91.98, 190.68 -95.45 C189.93 -98.92, 189.27 -105.1, 189.45 -109.4 C189.63 -113.69, 190.05 -117.53, 191.75 -121.22 C193.45 -124.9, 197.58 -129, 199.65 -131.5 C201.72 -134.01, 203.11 -134.57, 204.15 -136.24 C205.19 -137.91, 205.7 -139.59, 205.88 -141.52 C206.06 -143.46, 206.02 -146.22, 205.22 -147.85 C204.42 -149.48, 202.68 -150.69, 201.08 -151.29 C199.47 -151.89, 197.35 -152.09, 195.58 -151.43 C193.81 -150.78, 192.17 -149.81, 190.45 -147.38 C188.74 -144.94, 187.38 -141.11, 185.27 -136.82 C183.16 -132.53, 179.84 -125.72, 177.78 -121.66 C175.72 -117.61, 175.07 -115.14, 172.9 -112.51 C170.74 -109.87, 167.44 -107.33, 164.78 -105.85 C162.12 -104.36, 159.41 -103.69, 156.96 -103.58 C154.52 -103.48, 152.37 -103.92, 150.13 -105.23 C147.88 -106.54, 145.35 -108.25, 143.49 -111.45 C141.62 -114.65, 139.86 -119.45, 138.93 -124.42 C138.01 -129.38, 137.82 -135.12, 137.94 -141.24 C138.07 -147.36, 138.49 -154.43, 139.71 -161.15 C140.93 -167.87, 142.34 -173.85, 145.27 -181.54 C148.2 -189.22, 153.17 -199.36, 157.28 -207.26 C161.4 -215.15, 167.04 -223.16, 169.96 -228.9 C172.89 -234.65, 173.92 -237.98, 174.83 -241.73 C175.74 -245.49, 175.92 -248.43, 175.42 -251.46 C174.92 -254.49, 173.59 -257.53, 171.83 -259.91 C170.08 -262.29, 167.62 -264.61, 164.89 -265.72 C162.16 -266.84, 157.93 -266.97, 155.43 -266.59 C152.94 -266.21, 151.69 -265.19, 149.9 -263.47 C148.1 -261.75, 146.35 -260.71, 144.69 -256.29 C143.02 -251.86, 141.59 -243.89, 139.92 -236.93 C138.24 -229.97, 136.79 -223.43, 134.63 -214.54 C132.46 -205.65, 129.28 -192.42, 126.94 -183.59 C124.61 -174.76, 122.64 -167.63, 120.62 -161.55 C118.6 -155.47, 116.9 -151.25, 114.84 -147.09 C112.78 -142.92, 110.49 -139.4, 108.29 -136.56 C106.08 -133.72, 104.08 -131.63, 101.6 -130.04 C99.13 -128.45, 95.79 -127.32, 93.42 -127.02 C91.06 -126.73, 89.6 -126.69, 87.4 -128.27 C85.2 -129.84, 82.53 -133.21, 80.24 -136.48 C77.95 -139.75, 76.08 -144.4, 73.65 -147.89 C71.23 -151.37, 68.09 -155.25, 65.7 -157.37 C63.31 -159.5, 61.42 -160.14, 59.3 -160.62 C57.17 -161.1, 54.87 -161.09, 52.96 -160.25 C51.04 -159.4, 48.98 -157.54, 47.8 -155.56 C46.62 -153.58, 45.95 -151.03, 45.9 -148.36 C45.84 -145.68, 46.58 -142.63, 47.45 -139.52 C48.31 -136.41, 50.06 -133.24, 51.1 -129.7 C52.15 -126.16, 53 -122.89, 53.7 -118.25 C54.41 -113.61, 55.13 -107.88, 55.34 -101.83 C55.56 -95.79, 55.59 -88.57, 55 -81.98 C54.42 -75.39, 53.68 -69.03, 51.84 -62.31 C50 -55.6, 47.11 -47.82, 43.99 -41.68 C40.86 -35.54, 37.03 -30.46, 33.08 -25.46 C29.13 -20.46, 24.67 -15.46, 20.28 -11.67 C15.9 -7.89, 10.15 -4.69, 6.77 -2.74 C3.39 -0.8, 1.13 -0.46, 0 0" stroke="#FFFFFF" stroke-width="2" fill="none"></path></g></g><mask></mask><g stroke-linecap="round"><g transform="translate(363.95418050216904 402.0190711518417) rotate(0 -13.222559233710854 -10.624592714133087)"><path d="M0 0 C-1.92 0.85, -7.27 3.11, -11.51 5.09 C-15.76 7.08, -22.86 10.04, -25.47 11.93 C-28.07 13.82, -27.5 15.1, -27.15 16.43 C-26.79 17.77, -26.08 19.71, -23.34 19.95 C-20.59 20.19, -16.83 19.74, -10.68 17.86 C-4.52 15.98, 6.19 12.45, 13.58 8.68 C20.97 4.92, 27.8 0.49, 33.65 -4.73 C39.49 -9.96, 44.57 -15.99, 48.64 -22.66 C52.71 -29.34, 55.75 -37.81, 58.08 -44.78 C60.42 -51.74, 61.61 -59.06, 62.67 -64.47 C63.73 -69.87, 63.75 -74.2, 64.42 -77.2 C65.1 -80.21, 65.95 -82.41, 66.72 -82.5 C67.49 -82.59, 68.11 -80.19, 69.05 -77.73 C70 -75.28, 71.6 -72.02, 72.39 -67.79 C73.19 -63.57, 74.01 -58.36, 73.82 -52.38 C73.64 -46.41, 72.93 -38.03, 71.26 -31.95 C69.59 -25.86, 66.84 -20.8, 63.8 -15.86 C60.76 -10.93, 58.24 -6.89, 53.03 -2.34 C47.81 2.22, 39.81 7.82, 32.51 11.46 C25.21 15.11, 16.99 17.88, 9.25 19.54 C1.5 21.21, -7.54 21.11, -13.96 21.44 C-20.38 21.77, -24.77 20.79, -29.28 21.52 C-33.79 22.26, -38.83 24.31, -41.03 25.85 C-43.23 27.39, -43.32 29.06, -42.47 30.74 C-41.62 32.42, -39.66 34.11, -35.91 35.93 C-32.17 37.75, -26.13 39.92, -20 41.64 C-13.87 43.36, -4.72 44.65, 0.89 46.23 C6.49 47.81, 11.13 49.74, 13.63 51.11 C16.14 52.47, 16.67 53.29, 15.94 54.43 C15.21 55.57, 14.4 56.81, 9.26 57.95 C4.12 59.09, -5.33 60.92, -14.91 61.25 C-24.49 61.58, -37.78 61.41, -48.22 59.95 C-58.66 58.48, -69.73 55.12, -77.56 52.47 C-85.39 49.82, -91.44 46.87, -95.22 44.04 C-99.01 41.22, -100.1 38.33, -100.27 35.54 C-100.44 32.75, -99.54 30.35, -96.24 27.32 C-92.94 24.3, -86.84 20.33, -80.49 17.4 C-74.15 14.47, -66.86 12.05, -58.18 9.73 C-49.51 7.41, -36.6 5.03, -28.46 3.46 C-20.32 1.89, -12.53 0.84, -9.35 0.32 M0 0 C-1.92 0.85, -7.27 3.11, -11.51 5.09 C-15.76 7.08, -22.86 10.04, -25.47 11.93 C-28.07 13.82, -27.5 15.1, -27.15 16.43 C-26.79 17.77, -26.08 19.71, -23.34 19.95 C-20.59 20.19, -16.83 19.74, -10.68 17.86 C-4.52 15.98, 6.19 12.45, 13.58 8.68 C20.97 4.92, 27.8 0.49, 33.65 -4.73 C39.49 -9.96, 44.57 -15.99, 48.64 -22.66 C52.71 -29.34, 55.75 -37.81, 58.08 -44.78 C60.42 -51.74, 61.61 -59.06, 62.67 -64.47 C63.73 -69.87, 63.75 -74.2, 64.42 -77.2 C65.1 -80.21, 65.95 -82.41, 66.72 -82.5 C67.49 -82.59, 68.11 -80.19, 69.05 -77.73 C70 -75.28, 71.6 -72.02, 72.39 -67.79 C73.19 -63.57, 74.01 -58.36, 73.82 -52.38 C73.64 -46.41, 72.93 -38.03, 71.26 -31.95 C69.59 -25.86, 66.84 -20.8, 63.8 -15.86 C60.76 -10.93, 58.24 -6.89, 53.03 -2.34 C47.81 2.22, 39.81 7.82, 32.51 11.46 C25.21 15.11, 16.99 17.88, 9.25 19.54 C1.5 21.21, -7.54 21.11, -13.96 21.44 C-20.38 21.77, -24.77 20.79, -29.28 21.52 C-33.79 22.26, -38.83 24.31, -41.03 25.85 C-43.23 27.39, -43.32 29.06, -42.47 30.74 C-41.62 32.42, -39.66 34.11, -35.91 35.93 C-32.17 37.75, -26.13 39.92, -20 41.64 C-13.87 43.36, -4.72 44.65, 0.89 46.23 C6.49 47.81, 11.13 49.74, 13.63 51.11 C16.14 52.47, 16.67 53.29, 15.94 54.43 C15.21 55.57, 14.4 56.81, 9.26 57.95 C4.12 59.09, -5.33 60.92, -14.91 61.25 C-24.49 61.58, -37.78 61.41, -48.22 59.95 C-58.66 58.48, -69.73 55.12, -77.56 52.47 C-85.39 49.82, -91.44 46.87, -95.22 44.04 C-99.01 41.22, -100.1 38.33, -100.27 35.54 C-100.44 32.75, -99.54 30.35, -96.24 27.32 C-92.94 24.3, -86.84 20.33, -80.49 17.4 C-74.15 14.47, -66.86 12.05, -58.18 9.73 C-49.51 7.41, -36.6 5.03, -28.46 3.46 C-20.32 1.89, -12.53 0.84, -9.35 0.32" stroke="#FFFFFF" stroke-width="2" fill="none"></path></g></g><mask></mask><g stroke-linecap="round"><g transform="translate(345.869899667201 463.3309921869004) rotate(0 157.55548831872784 -115.60917702007782)"><path d="M0 0 C3.04 0.11, 11.3 0.88, 18.22 0.67 C25.14 0.46, 32.44 -0.06, 41.53 -1.25 C50.61 -2.43, 62.3 -3.49, 72.72 -6.45 C83.14 -9.4, 94.6 -14.17, 104.05 -18.96 C113.5 -23.75, 123.1 -31.23, 129.43 -35.18 C135.77 -39.12, 138.39 -41.03, 142.06 -42.62 C145.74 -44.21, 150.06 -45.49, 151.47 -44.7 C152.87 -43.92, 150.85 -40.83, 150.49 -37.92 C150.13 -35.02, 149.02 -30.29, 149.31 -27.27 C149.59 -24.25, 150.54 -21.57, 152.21 -19.8 C153.88 -18.02, 156.14 -16.86, 159.32 -16.6 C162.51 -16.35, 166.46 -16.52, 171.31 -18.25 C176.16 -19.98, 182.61 -22.87, 188.42 -26.98 C194.24 -31.09, 200.2 -36.04, 206.21 -42.92 C212.23 -49.8, 219.11 -59.15, 224.51 -68.27 C229.92 -77.39, 234.06 -86.77, 238.65 -97.64 C243.24 -108.5, 247.43 -122.19, 252.06 -133.46 C256.69 -144.72, 260.95 -154.85, 266.41 -165.23 C271.86 -175.61, 278.22 -186.39, 284.77 -195.76 C291.32 -205.13, 300.65 -215.42, 305.71 -221.45 C310.76 -227.47, 313.54 -230.15, 315.11 -231.89 M0 0 C3.04 0.11, 11.3 0.88, 18.22 0.67 C25.14 0.46, 32.44 -0.06, 41.53 -1.25 C50.61 -2.43, 62.3 -3.49, 72.72 -6.45 C83.14 -9.4, 94.6 -14.17, 104.05 -18.96 C113.5 -23.75, 123.1 -31.23, 129.43 -35.18 C135.77 -39.12, 138.39 -41.03, 142.06 -42.62 C145.74 -44.21, 150.06 -45.49, 151.47 -44.7 C152.87 -43.92, 150.85 -40.83, 150.49 -37.92 C150.13 -35.02, 149.02 -30.29, 149.31 -27.27 C149.59 -24.25, 150.54 -21.57, 152.21 -19.8 C153.88 -18.02, 156.14 -16.86, 159.32 -16.6 C162.51 -16.35, 166.46 -16.52, 171.31 -18.25 C176.16 -19.98, 182.61 -22.87, 188.42 -26.98 C194.24 -31.09, 200.2 -36.04, 206.21 -42.92 C212.23 -49.8, 219.11 -59.15, 224.51 -68.27 C229.92 -77.39, 234.06 -86.77, 238.65 -97.64 C243.24 -108.5, 247.43 -122.19, 252.06 -133.46 C256.69 -144.72, 260.95 -154.85, 266.41 -165.23 C271.86 -175.61, 278.22 -186.39, 284.77 -195.76 C291.32 -205.13, 300.65 -215.42, 305.71 -221.45 C310.76 -227.47, 313.54 -230.15, 315.11 -231.89" stroke="#FFFFFF" stroke-width="2" fill="none"></path></g></g><mask></mask><g stroke-linecap="round"><g transform="translate(580.6733098225814 309.1300540215816) rotate(0 -76.08495485973162 7.890498877990467)"><path d="M0 0 C-1.76 3.08, -6.21 10.97, -10.57 18.48 C-14.93 25.98, -21.93 38.09, -26.16 45.01 C-30.39 51.93, -32.13 54.98, -35.94 59.99 C-39.75 65, -45.32 71.66, -49 75.08 C-52.68 78.51, -55.48 79.79, -58.01 80.56 C-60.53 81.33, -62.53 80.56, -64.16 79.69 C-65.79 78.82, -66.93 77.56, -67.79 75.35 C-68.66 73.14, -69.08 70.34, -69.34 66.44 C-69.59 62.54, -69.26 55.61, -69.34 51.96 C-69.41 48.31, -69.23 46.65, -69.77 44.53 C-70.32 42.42, -71.39 39.94, -72.61 39.27 C-73.82 38.59, -75.38 38.95, -77.05 40.46 C-78.72 41.96, -79.82 43.85, -82.63 48.29 C-85.44 52.73, -90.14 62.15, -93.9 67.11 C-97.66 72.08, -101.72 75.54, -105.19 78.08 C-108.66 80.62, -112.3 81.9, -114.72 82.35 C-117.13 82.8, -118.25 82.18, -119.67 80.76 C-121.09 79.34, -122.48 77.08, -123.25 73.83 C-124.02 70.58, -123.97 66.61, -124.31 61.27 C-124.65 55.93, -124.32 49.49, -125.29 41.79 C-126.26 34.1, -128.16 23.96, -130.13 15.09 C-132.11 6.22, -134.74 -1.74, -137.13 -11.43 C-139.51 -21.11, -142.59 -35.35, -144.45 -43.02 C-146.31 -50.7, -147 -53.56, -148.28 -57.49 C-149.57 -61.41, -151.52 -65.05, -152.17 -66.57 M0 0 C-1.76 3.08, -6.21 10.97, -10.57 18.48 C-14.93 25.98, -21.93 38.09, -26.16 45.01 C-30.39 51.93, -32.13 54.98, -35.94 59.99 C-39.75 65, -45.32 71.66, -49 75.08 C-52.68 78.51, -55.48 79.79, -58.01 80.56 C-60.53 81.33, -62.53 80.56, -64.16 79.69 C-65.79 78.82, -66.93 77.56, -67.79 75.35 C-68.66 73.14, -69.08 70.34, -69.34 66.44 C-69.59 62.54, -69.26 55.61, -69.34 51.96 C-69.41 48.31, -69.23 46.65, -69.77 44.53 C-70.32 42.42, -71.39 39.94, -72.61 39.27 C-73.82 38.59, -75.38 38.95, -77.05 40.46 C-78.72 41.96, -79.82 43.85, -82.63 48.29 C-85.44 52.73, -90.14 62.15, -93.9 67.11 C-97.66 72.08, -101.72 75.54, -105.19 78.08 C-108.66 80.62, -112.3 81.9, -114.72 82.35 C-117.13 82.8, -118.25 82.18, -119.67 80.76 C-121.09 79.34, -122.48 77.08, -123.25 73.83 C-124.02 70.58, -123.97 66.61, -124.31 61.27 C-124.65 55.93, -124.32 49.49, -125.29 41.79 C-126.26 34.1, -128.16 23.96, -130.13 15.09 C-132.11 6.22, -134.74 -1.74, -137.13 -11.43 C-139.51 -21.11, -142.59 -35.35, -144.45 -43.02 C-146.31 -50.7, -147 -53.56, -148.28 -57.49 C-149.57 -61.41, -151.52 -65.05, -152.17 -66.57" stroke="#FFFFFF" stroke-width="2" fill="none"></path></g></g><mask></mask><g stroke-linecap="round"><g transform="translate(443.64659393292095 262.18267061173356) rotate(0 50.74254447550538 53.228281483730825)"><path d="M0 0 C0.95 3.18, 3.72 12.13, 5.69 19.09 C7.66 26.06, 9.91 35.98, 11.82 41.78 C13.73 47.57, 15.06 50.5, 17.14 53.86 C19.22 57.22, 21.44 60.47, 24.31 61.94 C27.17 63.41, 30.87 63.69, 34.32 62.67 C37.76 61.65, 41.7 58.8, 44.99 55.84 C48.28 52.89, 51.32 49.06, 54.04 44.93 C56.77 40.8, 59.57 30.95, 61.33 31.06 C63.09 31.18, 63.26 40.01, 64.61 45.63 C65.97 51.24, 67.36 58.98, 69.44 64.75 C71.53 70.51, 74.51 77.99, 77.12 80.2 C79.72 82.4, 83.55 75.82, 85.05 77.98 C86.55 80.15, 84.88 88.92, 86.1 93.17 C87.32 97.43, 89.82 101.31, 92.39 103.52 C94.95 105.73, 99.97 105.97, 101.49 106.46 M0 0 C0.95 3.18, 3.72 12.13, 5.69 19.09 C7.66 26.06, 9.91 35.98, 11.82 41.78 C13.73 47.57, 15.06 50.5, 17.14 53.86 C19.22 57.22, 21.44 60.47, 24.31 61.94 C27.17 63.41, 30.87 63.69, 34.32 62.67 C37.76 61.65, 41.7 58.8, 44.99 55.84 C48.28 52.89, 51.32 49.06, 54.04 44.93 C56.77 40.8, 59.57 30.95, 61.33 31.06 C63.09 31.18, 63.26 40.01, 64.61 45.63 C65.97 51.24, 67.36 58.98, 69.44 64.75 C71.53 70.51, 74.51 77.99, 77.12 80.2 C79.72 82.4, 83.55 75.82, 85.05 77.98 C86.55 80.15, 84.88 88.92, 86.1 93.17 C87.32 97.43, 89.82 101.31, 92.39 103.52 C94.95 105.73, 99.97 105.97, 101.49 106.46" stroke="#FFFFFF" stroke-width="2" fill="none"></path></g></g><mask></mask><g stroke-linecap="round"><g transform="translate(405.7854380274439 528.7487443823393) rotate(0 -153.30968164384467 -71.00605535143677)"><path d="M0 0 C-15.07 -0.2, -61.52 0.43, -90.39 -1.21 C-119.27 -2.86, -149.64 -5.99, -173.27 -9.89 C-196.91 -13.8, -214.89 -19.11, -232.22 -24.64 C-249.54 -30.17, -265.96 -36.9, -277.23 -43.08 C-288.51 -49.27, -294.98 -55.82, -299.88 -61.75 C-304.77 -67.68, -306.66 -73.11, -306.62 -78.65 C-306.58 -84.2, -304.57 -89.76, -299.64 -95.02 C-294.71 -100.28, -288.3 -105.02, -277.06 -110.19 C-265.81 -115.36, -248.91 -121.66, -232.18 -126.04 C-215.46 -130.43, -195.56 -133.99, -176.71 -136.51 C-157.85 -139.03, -136.86 -140.24, -119.03 -141.15 C-101.2 -142.07, -70.07 -142.63, -69.71 -142.01 C-69.36 -141.4, -98.97 -139.72, -116.88 -137.47 C-134.8 -135.22, -160.06 -131.77, -177.22 -128.5 C-194.38 -125.24, -207.67 -121.69, -219.85 -117.89 C-232.04 -114.08, -242.07 -110.21, -250.33 -105.69 C-258.59 -101.18, -265.56 -95.43, -269.42 -90.8 C-273.29 -86.18, -273.63 -82.29, -273.53 -77.96 C-273.42 -73.64, -272.85 -69.74, -268.78 -64.85 C-264.72 -59.95, -259.19 -54.19, -249.14 -48.59 C-239.08 -42.99, -224.31 -36.37, -208.46 -31.25 C-192.6 -26.12, -173.65 -21.75, -154 -17.84 C-134.36 -13.93, -112.67 -10.45, -90.61 -7.77 C-68.56 -5.1, -36.75 -3.1, -21.65 -1.8 C-6.55 -0.51, -3.61 -0.3, 0 0 M0 0 C-15.07 -0.2, -61.52 0.43, -90.39 -1.21 C-119.27 -2.86, -149.64 -5.99, -173.27 -9.89 C-196.91 -13.8, -214.89 -19.11, -232.22 -24.64 C-249.54 -30.17, -265.96 -36.9, -277.23 -43.08 C-288.51 -49.27, -294.98 -55.82, -299.88 -61.75 C-304.77 -67.68, -306.66 -73.11, -306.62 -78.65 C-306.58 -84.2, -304.57 -89.76, -299.64 -95.02 C-294.71 -100.28, -288.3 -105.02, -277.06 -110.19 C-265.81 -115.36, -248.91 -121.66, -232.18 -126.04 C-215.46 -130.43, -195.56 -133.99, -176.71 -136.51 C-157.85 -139.03, -136.86 -140.24, -119.03 -141.15 C-101.2 -142.07, -70.07 -142.63, -69.71 -142.01 C-69.36 -141.4, -98.97 -139.72, -116.88 -137.47 C-134.8 -135.22, -160.06 -131.77, -177.22 -128.5 C-194.38 -125.24, -207.67 -121.69, -219.85 -117.89 C-232.04 -114.08, -242.07 -110.21, -250.33 -105.69 C-258.59 -101.18, -265.56 -95.43, -269.42 -90.8 C-273.29 -86.18, -273.63 -82.29, -273.53 -77.96 C-273.42 -73.64, -272.85 -69.74, -268.78 -64.85 C-264.72 -59.95, -259.19 -54.19, -249.14 -48.59 C-239.08 -42.99, -224.31 -36.37, -208.46 -31.25 C-192.6 -26.12, -173.65 -21.75, -154 -17.84 C-134.36 -13.93, -112.67 -10.45, -90.61 -7.77 C-68.56 -5.1, -36.75 -3.1, -21.65 -1.8 C-6.55 -0.51, -3.61 -0.3, 0 0" stroke="#FFFFFF" stroke-width="2" fill="none"></path></g></g><mask></mask><g stroke-linecap="round"><g transform="translate(279.04443582613385 369.7588461694013) rotate(0 -100.82314808065985 96.56338798118577)"><path d="M0 0 C-7.76 0.53, -31.11 1.72, -46.55 3.17 C-61.98 4.61, -76.53 6.19, -92.6 8.66 C-108.68 11.13, -127.3 14.42, -143.01 18 C-158.72 21.57, -174.25 25.77, -186.85 30.1 C-199.45 34.43, -210.05 39.05, -218.62 43.96 C-227.19 48.88, -233.47 54.65, -238.26 59.59 C-243.05 64.54, -245.6 68.43, -247.37 73.66 C-249.13 78.89, -250.38 84.65, -248.83 90.98 C-247.27 97.3, -244.77 104.46, -238.02 111.59 C-231.28 118.71, -222.17 126.19, -208.34 133.72 C-194.52 141.25, -173.18 150.56, -155.1 156.75 C-137.01 162.94, -117.05 166.89, -99.84 170.86 C-82.63 174.82, -68.08 177.76, -51.83 180.53 C-35.59 183.3, -19.47 185.44, -2.38 187.48 C14.71 189.53, 39.31 191.73, 50.73 192.8 C62.15 193.86, 71.24 193.68, 66.13 193.85 C61.02 194.02, 37.21 194.51, 20.08 193.83 C2.95 193.15, -19.53 191.47, -36.66 189.77 C-53.79 188.07, -64.23 186.82, -82.68 183.64 C-101.13 180.46, -128.72 175.55, -147.36 170.7 C-166.01 165.84, -180.21 160.45, -194.54 154.54 C-208.88 148.63, -223.05 141.46, -233.38 135.25 C-243.71 129.03, -250.79 124.6, -256.52 117.26 C-262.26 109.91, -266.02 99.57, -267.78 91.17 C-269.54 82.77, -269.6 74.35, -267.08 66.85 C-264.55 59.35, -259.38 52.14, -252.63 46.16 C-245.88 40.18, -237.11 35.66, -226.58 30.97 C-216.04 26.28, -203.71 22, -189.43 18.01 C-175.14 14.02, -157.11 9.83, -140.86 7.03 C-124.61 4.23, -109.3 2.52, -91.92 1.23 C-74.54 -0.07, -51.93 -0.52, -36.61 -0.73 C-21.29 -0.93, -6.1 -0.12, 0 0 M0 0 C-7.76 0.53, -31.11 1.72, -46.55 3.17 C-61.98 4.61, -76.53 6.19, -92.6 8.66 C-108.68 11.13, -127.3 14.42, -143.01 18 C-158.72 21.57, -174.25 25.77, -186.85 30.1 C-199.45 34.43, -210.05 39.05, -218.62 43.96 C-227.19 48.88, -233.47 54.65, -238.26 59.59 C-243.05 64.54, -245.6 68.43, -247.37 73.66 C-249.13 78.89, -250.38 84.65, -248.83 90.98 C-247.27 97.3, -244.77 104.46, -238.02 111.59 C-231.28 118.71, -222.17 126.19, -208.34 133.72 C-194.52 141.25, -173.18 150.56, -155.1 156.75 C-137.01 162.94, -117.05 166.89, -99.84 170.86 C-82.63 174.82, -68.08 177.76, -51.83 180.53 C-35.59 183.3, -19.47 185.44, -2.38 187.48 C14.71 189.53, 39.31 191.73, 50.73 192.8 C62.15 193.86, 71.24 193.68, 66.13 193.85 C61.02 194.02, 37.21 194.51, 20.08 193.83 C2.95 193.15, -19.53 191.47, -36.66 189.77 C-53.79 188.07, -64.23 186.82, -82.68 183.64 C-101.13 180.46, -128.72 175.55, -147.36 170.7 C-166.01 165.84, -180.21 160.45, -194.54 154.54 C-208.88 148.63, -223.05 141.46, -233.38 135.25 C-243.71 129.03, -250.79 124.6, -256.52 117.26 C-262.26 109.91, -266.02 99.57, -267.78 91.17 C-269.54 82.77, -269.6 74.35, -267.08 66.85 C-264.55 59.35, -259.38 52.14, -252.63 46.16 C-245.88 40.18, -237.11 35.66, -226.58 30.97 C-216.04 26.28, -203.71 22, -189.43 18.01 C-175.14 14.02, -157.11 9.83, -140.86 7.03 C-124.61 4.23, -109.3 2.52, -91.92 1.23 C-74.54 -0.07, -51.93 -0.52, -36.61 -0.73 C-21.29 -0.93, -6.1 -0.12, 0 0" stroke="#FFFFFF" stroke-width="2" fill="none"></path></g></g><mask></mask><g stroke-linecap="round"><g transform="translate(126.206316890999 562.8732953103727) rotate(0 154.24809420370457 16.335383590862875)"><path d="M0 0 C4.42 1.05, 13.95 3.99, 26.53 6.3 C39.11 8.6, 58.82 11.58, 75.49 13.81 C92.16 16.05, 108.88 17.95, 126.54 19.7 C144.2 21.46, 162.31 23.11, 181.43 24.32 C200.55 25.54, 223.52 26.42, 241.27 26.98 C259.01 27.53, 276.69 27.56, 287.89 27.64 C299.1 27.71, 311.04 26.91, 308.5 27.43 C305.95 27.94, 285.56 29.85, 272.62 30.72 C259.67 31.6, 247.15 32.49, 230.81 32.67 C214.46 32.86, 191.9 32.71, 174.53 31.83 C157.17 30.96, 141.74 29.18, 126.62 27.43 C111.49 25.67, 97.88 23.68, 83.78 21.31 C69.68 18.94, 54 15.94, 42.02 13.19 C30.05 10.45, 18.95 7.02, 11.94 4.82 C4.94 2.62, 1.99 0.8, 0 0 M0 0 C4.42 1.05, 13.95 3.99, 26.53 6.3 C39.11 8.6, 58.82 11.58, 75.49 13.81 C92.16 16.05, 108.88 17.95, 126.54 19.7 C144.2 21.46, 162.31 23.11, 181.43 24.32 C200.55 25.54, 223.52 26.42, 241.27 26.98 C259.01 27.53, 276.69 27.56, 287.89 27.64 C299.1 27.71, 311.04 26.91, 308.5 27.43 C305.95 27.94, 285.56 29.85, 272.62 30.72 C259.67 31.6, 247.15 32.49, 230.81 32.67 C214.46 32.86, 191.9 32.71, 174.53 31.83 C157.17 30.96, 141.74 29.18, 126.62 27.43 C111.49 25.67, 97.88 23.68, 83.78 21.31 C69.68 18.94, 54 15.94, 42.02 13.19 C30.05 10.45, 18.95 7.02, 11.94 4.82 C4.94 2.62, 1.99 0.8, 0 0" stroke="#FFFFFF" stroke-width="2" fill="none"></path></g></g><mask></mask><g stroke-linecap="round"><g transform="translate(411.39724637583095 555.7491162303922) rotate(0 208.00121942364785 -73.90922774461342)"><path d="M0 0 C8.46 -0.35, 28.94 -0.9, 50.76 -2.08 C72.57 -3.25, 103.02 -4.36, 130.89 -7.05 C158.76 -9.75, 189.54 -13.34, 217.97 -18.23 C246.4 -23.12, 277.91 -29.61, 301.46 -36.38 C325.02 -43.15, 345.1 -51.79, 359.32 -58.84 C373.54 -65.89, 380.81 -72.7, 386.77 -78.68 C392.73 -84.65, 394.15 -89.75, 395.08 -94.7 C396.02 -99.64, 394.72 -103.78, 392.37 -108.34 C390.03 -112.9, 386.6 -117.38, 381.02 -122.06 C375.43 -126.74, 365.92 -132.61, 358.86 -136.43 C351.8 -140.25, 344.36 -142.69, 338.66 -144.97 C332.96 -147.25, 323.58 -149.9, 324.66 -150.11 C325.75 -150.31, 337.32 -148.29, 345.18 -146.2 C353.04 -144.11, 363.35 -141.11, 371.84 -137.55 C380.33 -133.99, 389.62 -129.45, 396.13 -124.84 C402.64 -120.22, 407.57 -114.7, 410.88 -109.86 C414.19 -105.03, 415.72 -100.52, 416 -95.81 C416.28 -91.1, 415.2 -86.48, 412.58 -81.61 C409.95 -76.74, 407.23 -71.99, 400.25 -66.6 C393.28 -61.2, 381.94 -54.67, 370.72 -49.22 C359.51 -43.77, 348.09 -38.88, 332.97 -33.89 C317.85 -28.91, 295.63 -23.02, 279.99 -19.29 C264.36 -15.56, 257.94 -14.35, 239.13 -11.51 C220.33 -8.66, 193.93 -4.51, 167.18 -2.21 C140.44 0.09, 106.53 1.92, 78.67 2.29 C50.81 2.66, 13.11 0.38, 0 0 M0 0 C8.46 -0.35, 28.94 -0.9, 50.76 -2.08 C72.57 -3.25, 103.02 -4.36, 130.89 -7.05 C158.76 -9.75, 189.54 -13.34, 217.97 -18.23 C246.4 -23.12, 277.91 -29.61, 301.46 -36.38 C325.02 -43.15, 345.1 -51.79, 359.32 -58.84 C373.54 -65.89, 380.81 -72.7, 386.77 -78.68 C392.73 -84.65, 394.15 -89.75, 395.08 -94.7 C396.02 -99.64, 394.72 -103.78, 392.37 -108.34 C390.03 -112.9, 386.6 -117.38, 381.02 -122.06 C375.43 -126.74, 365.92 -132.61, 358.86 -136.43 C351.8 -140.25, 344.36 -142.69, 338.66 -144.97 C332.96 -147.25, 323.58 -149.9, 324.66 -150.11 C325.75 -150.31, 337.32 -148.29, 345.18 -146.2 C353.04 -144.11, 363.35 -141.11, 371.84 -137.55 C380.33 -133.99, 389.62 -129.45, 396.13 -124.84 C402.64 -120.22, 407.57 -114.7, 410.88 -109.86 C414.19 -105.03, 415.72 -100.52, 416 -95.81 C416.28 -91.1, 415.2 -86.48, 412.58 -81.61 C409.95 -76.74, 407.23 -71.99, 400.25 -66.6 C393.28 -61.2, 381.94 -54.67, 370.72 -49.22 C359.51 -43.77, 348.09 -38.88, 332.97 -33.89 C317.85 -28.91, 295.63 -23.02, 279.99 -19.29 C264.36 -15.56, 257.94 -14.35, 239.13 -11.51 C220.33 -8.66, 193.93 -4.51, 167.18 -2.21 C140.44 0.09, 106.53 1.92, 78.67 2.29 C50.81 2.66, 13.11 0.38, 0 0" stroke="#FFFFFF" stroke-width="2" fill="none"></path></g></g><mask></mask><g stroke-linecap="round"><g transform="translate(502.41687812924465 522.7898197488348) rotate(0 126.23973203172591 -54.41401974895325)"><path d="M0 0 C7.95 -0.77, 30.7 -2.49, 47.72 -4.63 C64.74 -6.76, 84.54 -9.51, 102.12 -12.82 C119.7 -16.13, 137.74 -19.99, 153.2 -24.49 C168.66 -28.99, 183.45 -34.64, 194.87 -39.83 C206.29 -45.03, 215.7 -50.6, 221.72 -55.67 C227.74 -60.74, 229.9 -66.02, 231 -70.27 C232.09 -74.52, 231.21 -77.29, 228.29 -81.18 C225.37 -85.06, 220.49 -89.62, 213.49 -93.58 C206.48 -97.55, 192.84 -102.38, 186.25 -104.96 C179.66 -107.54, 171.3 -109.21, 173.95 -109.07 C176.6 -108.94, 193.35 -106.44, 202.13 -104.14 C210.92 -101.84, 219.41 -98.67, 226.65 -95.27 C233.89 -91.88, 241.28 -87.49, 245.59 -83.78 C249.89 -80.08, 251.37 -76.52, 252.48 -73.05 C253.59 -69.58, 253.36 -66.32, 252.24 -62.95 C251.12 -59.58, 250.61 -57.02, 245.76 -52.82 C240.91 -48.63, 235.49 -43.35, 223.11 -37.8 C210.73 -32.24, 187.33 -24.04, 171.48 -19.5 C155.64 -14.96, 144.04 -13.28, 128.03 -10.57 C112.02 -7.87, 94.08 -5.07, 75.43 -3.27 C56.79 -1.47, 28.72 -0.3, 16.15 0.24 C3.58 0.79, 2.69 0.04, 0 0 M0 0 C7.95 -0.77, 30.7 -2.49, 47.72 -4.63 C64.74 -6.76, 84.54 -9.51, 102.12 -12.82 C119.7 -16.13, 137.74 -19.99, 153.2 -24.49 C168.66 -28.99, 183.45 -34.64, 194.87 -39.83 C206.29 -45.03, 215.7 -50.6, 221.72 -55.67 C227.74 -60.74, 229.9 -66.02, 231 -70.27 C232.09 -74.52, 231.21 -77.29, 228.29 -81.18 C225.37 -85.06, 220.49 -89.62, 213.49 -93.58 C206.48 -97.55, 192.84 -102.38, 186.25 -104.96 C179.66 -107.54, 171.3 -109.21, 173.95 -109.07 C176.6 -108.94, 193.35 -106.44, 202.13 -104.14 C210.92 -101.84, 219.41 -98.67, 226.65 -95.27 C233.89 -91.88, 241.28 -87.49, 245.59 -83.78 C249.89 -80.08, 251.37 -76.52, 252.48 -73.05 C253.59 -69.58, 253.36 -66.32, 252.24 -62.95 C251.12 -59.58, 250.61 -57.02, 245.76 -52.82 C240.91 -48.63, 235.49 -43.35, 223.11 -37.8 C210.73 -32.24, 187.33 -24.04, 171.48 -19.5 C155.64 -14.96, 144.04 -13.28, 128.03 -10.57 C112.02 -7.87, 94.08 -5.07, 75.43 -3.27 C56.79 -1.47, 28.72 -0.3, 16.15 0.24 C3.58 0.79, 2.69 0.04, 0 0" stroke="#FFFFFF" stroke-width="2" fill="none"></path></g></g><mask></mask><g stroke-linecap="round"><g transform="translate(632.4655173907195 388.4869566532416) rotate(0 29.918822513066516 -8.447873892989719)"><path d="M0 0 C3.96 -1.69, 17.04 -7.56, 23.77 -10.16 C30.5 -12.77, 35.85 -14.5, 40.36 -15.62 C44.86 -16.74, 47.98 -17.04, 50.8 -16.9 C53.61 -16.75, 55.73 -16.01, 57.24 -14.74 C58.74 -13.47, 59.72 -10.94, 59.84 -9.27 C59.96 -7.6, 59.59 -5.97, 57.97 -4.73 C56.35 -3.49, 54.6 -2.53, 50.13 -1.85 C45.66 -1.17, 37.26 -0.94, 31.13 -0.66 C25 -0.38, 18.51 -0.27, 13.32 -0.16 C8.14 -0.05, 2.22 -0.03, 0 0 M0 0 C3.96 -1.69, 17.04 -7.56, 23.77 -10.16 C30.5 -12.77, 35.85 -14.5, 40.36 -15.62 C44.86 -16.74, 47.98 -17.04, 50.8 -16.9 C53.61 -16.75, 55.73 -16.01, 57.24 -14.74 C58.74 -13.47, 59.72 -10.94, 59.84 -9.27 C59.96 -7.6, 59.59 -5.97, 57.97 -4.73 C56.35 -3.49, 54.6 -2.53, 50.13 -1.85 C45.66 -1.17, 37.26 -0.94, 31.13 -0.66 C25 -0.38, 18.51 -0.27, 13.32 -0.16 C8.14 -0.05, 2.22 -0.03, 0 0" stroke="#FFFFFF" stroke-width="2" fill="none"></path></g></g><mask></mask><g stroke-linecap="round"><g transform="translate(540.6353464735839 495.32059050878524) rotate(0 61.143224245219244 -36.03787301797274)"><path d="M0 0 C-0.23 -0.75, -1.46 -2.96, -1.38 -4.52 C-1.31 -6.09, -1.77 -7.32, 0.44 -9.39 C2.64 -11.46, 6.1 -14.06, 11.85 -16.95 C17.6 -19.85, 27.92 -23.65, 34.94 -26.77 C41.96 -29.88, 50.23 -33.22, 53.96 -35.67 C57.68 -38.11, 57.3 -39.04, 57.31 -41.42 C57.32 -43.8, 55.3 -47.2, 54.02 -49.93 C52.74 -52.66, 50.64 -54.8, 49.64 -57.78 C48.64 -60.77, 48.2 -65.45, 48.02 -67.84 C47.85 -70.22, 47.74 -72.06, 48.58 -72.08 C49.42 -72.09, 48.78 -70.5, 53.07 -67.93 C57.35 -65.35, 66.23 -60.2, 74.26 -56.64 C82.3 -53.08, 93.04 -48.62, 101.27 -46.59 C109.5 -44.56, 119.94 -44.81, 123.67 -44.46 M0 0 C-0.23 -0.75, -1.46 -2.96, -1.38 -4.52 C-1.31 -6.09, -1.77 -7.32, 0.44 -9.39 C2.64 -11.46, 6.1 -14.06, 11.85 -16.95 C17.6 -19.85, 27.92 -23.65, 34.94 -26.77 C41.96 -29.88, 50.23 -33.22, 53.96 -35.67 C57.68 -38.11, 57.3 -39.04, 57.31 -41.42 C57.32 -43.8, 55.3 -47.2, 54.02 -49.93 C52.74 -52.66, 50.64 -54.8, 49.64 -57.78 C48.64 -60.77, 48.2 -65.45, 48.02 -67.84 C47.85 -70.22, 47.74 -72.06, 48.58 -72.08 C49.42 -72.09, 48.78 -70.5, 53.07 -67.93 C57.35 -65.35, 66.23 -60.2, 74.26 -56.64 C82.3 -53.08, 93.04 -48.62, 101.27 -46.59 C109.5 -44.56, 119.94 -44.81, 123.67 -44.46" stroke="#FFFFFF" stroke-width="2" fill="none"></path></g></g><mask></mask><g stroke-linecap="round"><g transform="translate(413.83380542931627 501.82017366280525) rotate(0 -39.31075127268741 -47.658389850292224)"><path d="M0 0 C6.34 -0.66, 27.13 -2.42, 38.03 -3.94 C48.93 -5.47, 57.17 -6.97, 65.41 -9.15 C73.64 -11.33, 82.57 -14.47, 87.43 -17.04 C92.3 -19.61, 94 -22.71, 94.61 -24.58 C95.21 -26.44, 93.35 -27.43, 91.06 -28.24 C88.77 -29.04, 86.82 -29.53, 80.87 -29.41 C74.92 -29.28, 65 -28.76, 55.35 -27.49 C45.7 -26.22, 34.89 -23.37, 23 -21.78 C11.1 -20.19, 0.06 -18.44, -16.02 -17.95 C-32.1 -17.46, -55.16 -17.33, -73.48 -18.84 C-91.8 -20.34, -111.47 -23.27, -125.94 -26.97 C-140.4 -30.68, -152.56 -36.77, -160.26 -41.06 C-167.96 -45.35, -169.95 -48.43, -172.12 -52.7 C-174.28 -56.98, -175.32 -62.23, -173.23 -66.71 C-171.14 -71.18, -166.43 -75.8, -159.57 -79.55 C-152.71 -83.31, -140.06 -86.61, -132.07 -89.24 C-124.07 -91.86, -115.03 -94.3, -111.62 -95.32 M0 0 C6.34 -0.66, 27.13 -2.42, 38.03 -3.94 C48.93 -5.47, 57.17 -6.97, 65.41 -9.15 C73.64 -11.33, 82.57 -14.47, 87.43 -17.04 C92.3 -19.61, 94 -22.71, 94.61 -24.58 C95.21 -26.44, 93.35 -27.43, 91.06 -28.24 C88.77 -29.04, 86.82 -29.53, 80.87 -29.41 C74.92 -29.28, 65 -28.76, 55.35 -27.49 C45.7 -26.22, 34.89 -23.37, 23 -21.78 C11.1 -20.19, 0.06 -18.44, -16.02 -17.95 C-32.1 -17.46, -55.16 -17.33, -73.48 -18.84 C-91.8 -20.34, -111.47 -23.27, -125.94 -26.97 C-140.4 -30.68, -152.56 -36.77, -160.26 -41.06 C-167.96 -45.35, -169.95 -48.43, -172.12 -52.7 C-174.28 -56.98, -175.32 -62.23, -173.23 -66.71 C-171.14 -71.18, -166.43 -75.8, -159.57 -79.55 C-152.71 -83.31, -140.06 -86.61, -132.07 -89.24 C-124.07 -91.86, -115.03 -94.3, -111.62 -95.32" stroke="#FFFFFF" stroke-width="2" fill="none"></path></g></g><mask></mask><g stroke-linecap="round"><g transform="translate(560.3596919028478 115.1421438905536) rotate(0 26.45567028558071 -52.57104615701019)"><path d="M0 0 C0.05 -3.19, -0.12 -11.95, 0.32 -19.13 C0.76 -26.31, 1.36 -35.2, 2.65 -43.09 C3.94 -50.99, 5.59 -58.89, 8.08 -66.51 C10.58 -74.12, 14.2 -82.88, 17.62 -88.77 C21.04 -94.66, 24.79 -99.11, 28.59 -101.84 C32.39 -104.56, 37.2 -105.15, 40.41 -105.14 C43.61 -105.14, 45.72 -103.6, 47.81 -101.8 C49.89 -99.99, 52.08 -97.66, 52.91 -94.32 C53.74 -90.98, 54.09 -86.73, 52.8 -81.78 C51.51 -76.83, 48.69 -70.78, 45.17 -64.63 C41.65 -58.49, 37.07 -52.3, 31.7 -44.9 C26.32 -37.5, 17.48 -26.61, 12.93 -20.24 C8.39 -13.86, 6.57 -10.03, 4.41 -6.66 C2.26 -3.29, 0.74 -1.11, 0 0 M0 0 C0.05 -3.19, -0.12 -11.95, 0.32 -19.13 C0.76 -26.31, 1.36 -35.2, 2.65 -43.09 C3.94 -50.99, 5.59 -58.89, 8.08 -66.51 C10.58 -74.12, 14.2 -82.88, 17.62 -88.77 C21.04 -94.66, 24.79 -99.11, 28.59 -101.84 C32.39 -104.56, 37.2 -105.15, 40.41 -105.14 C43.61 -105.14, 45.72 -103.6, 47.81 -101.8 C49.89 -99.99, 52.08 -97.66, 52.91 -94.32 C53.74 -90.98, 54.09 -86.73, 52.8 -81.78 C51.51 -76.83, 48.69 -70.78, 45.17 -64.63 C41.65 -58.49, 37.07 -52.3, 31.7 -44.9 C26.32 -37.5, 17.48 -26.61, 12.93 -20.24 C8.39 -13.86, 6.57 -10.03, 4.41 -6.66 C2.26 -3.29, 0.74 -1.11, 0 0" stroke="#FFFFFF" stroke-width="2" fill="none"></path></g></g><mask></mask><g stroke-linecap="round"><g transform="translate(566.831187927397 90.8478023742673) rotate(0 20.175119919752433 -40.42003742007773)"><path d="M0 0 C2.51 -3.47, 10.43 -13.86, 15.08 -20.85 C19.74 -27.83, 23.95 -35.05, 27.9 -41.92 C31.85 -48.8, 36.71 -56.8, 38.79 -62.08 C40.86 -67.35, 40.48 -70.82, 40.35 -73.58 C40.22 -76.34, 39.28 -77.42, 37.98 -78.63 C36.69 -79.84, 33.49 -80.47, 32.59 -80.84 M0 0 C2.51 -3.47, 10.43 -13.86, 15.08 -20.85 C19.74 -27.83, 23.95 -35.05, 27.9 -41.92 C31.85 -48.8, 36.71 -56.8, 38.79 -62.08 C40.86 -67.35, 40.48 -70.82, 40.35 -73.58 C40.22 -76.34, 39.28 -77.42, 37.98 -78.63 C36.69 -79.84, 33.49 -80.47, 32.59 -80.84" stroke="#FFFFFF" stroke-width="2" fill="none"></path></g></g><mask></mask><g stroke-linecap="round"><g transform="translate(589.1763254206198 33.937487834517924) rotate(0 -1.618668168603108 -2.5685242442791605)"><path d="M0 0 C-0.91 1.23, -3.54 5.53, -5.45 7.36 C-7.36 9.19, -10.49 11.7, -11.45 10.99 C-12.4 10.29, -11.98 6.24, -11.17 3.12 C-10.35 0, -8.52 -4.67, -6.55 -7.72 C-4.58 -10.78, -1.6 -13.8, 0.66 -15.2 C2.92 -16.61, 5.75 -16.7, 7.01 -16.13 C8.27 -15.56, 8.71 -13.61, 8.21 -11.79 C7.7 -9.98, 5.34 -7.23, 3.97 -5.26 C2.61 -3.3, 0.66 -0.88, 0 0 M0 0 C-0.91 1.23, -3.54 5.53, -5.45 7.36 C-7.36 9.19, -10.49 11.7, -11.45 10.99 C-12.4 10.29, -11.98 6.24, -11.17 3.12 C-10.35 0, -8.52 -4.67, -6.55 -7.72 C-4.58 -10.78, -1.6 -13.8, 0.66 -15.2 C2.92 -16.61, 5.75 -16.7, 7.01 -16.13 C8.27 -15.56, 8.71 -13.61, 8.21 -11.79 C7.7 -9.98, 5.34 -7.23, 3.97 -5.26 C2.61 -3.3, 0.66 -0.88, 0 0" stroke="#FFFFFF" stroke-width="2" fill="none"></path></g></g><mask></mask><g stroke-linecap="round"><g transform="translate(398.27660029716026 48.27802344792599) rotate(0 20.74536401295518 38.39080020988331)"><path d="M0 0 C-2.5 4.09, -11.46 18.48, -15 24.53 C-18.54 30.57, -19.44 32.08, -21.22 36.3 C-22.99 40.51, -24.62 45.53, -25.65 49.8 C-26.68 54.07, -27.82 56.63, -27.41 61.93 C-27.01 67.22, -25.72 75.85, -23.22 81.57 C-20.72 87.3, -16.78 92.19, -12.41 96.27 C-8.04 100.34, -2.24 103.95, 2.98 106.02 C8.19 108.09, 13.7 108.51, 18.87 108.69 C24.05 108.87, 29.53 108.07, 34.03 107.1 C38.53 106.13, 41.72 105.47, 45.87 102.87 C50.03 100.27, 55.29 96.26, 58.94 91.51 C62.6 86.76, 66.15 80.97, 67.81 74.38 C69.47 67.78, 69.88 59.33, 68.9 51.93 C67.93 44.52, 65.58 37.89, 61.97 29.96 C58.36 22.03, 51.64 11.79, 47.24 4.37 C42.85 -3.04, 38.84 -9.09, 35.6 -14.53 C32.36 -19.97, 29.78 -25.4, 27.81 -28.29 C25.84 -31.19, 25.02 -31.4, 23.81 -31.91 C22.59 -32.41, 21.98 -32.62, 20.53 -31.35 C19.08 -30.07, 17.75 -28.12, 15.11 -24.26 C12.47 -20.4, 7.21 -12.22, 4.69 -8.17 C2.17 -4.13, 0.78 -1.36, 0 0 M0 0 C-2.5 4.09, -11.46 18.48, -15 24.53 C-18.54 30.57, -19.44 32.08, -21.22 36.3 C-22.99 40.51, -24.62 45.53, -25.65 49.8 C-26.68 54.07, -27.82 56.63, -27.41 61.93 C-27.01 67.22, -25.72 75.85, -23.22 81.57 C-20.72 87.3, -16.78 92.19, -12.41 96.27 C-8.04 100.34, -2.24 103.95, 2.98 106.02 C8.19 108.09, 13.7 108.51, 18.87 108.69 C24.05 108.87, 29.53 108.07, 34.03 107.1 C38.53 106.13, 41.72 105.47, 45.87 102.87 C50.03 100.27, 55.29 96.26, 58.94 91.51 C62.6 86.76, 66.15 80.97, 67.81 74.38 C69.47 67.78, 69.88 59.33, 68.9 51.93 C67.93 44.52, 65.58 37.89, 61.97 29.96 C58.36 22.03, 51.64 11.79, 47.24 4.37 C42.85 -3.04, 38.84 -9.09, 35.6 -14.53 C32.36 -19.97, 29.78 -25.4, 27.81 -28.29 C25.84 -31.19, 25.02 -31.4, 23.81 -31.91 C22.59 -32.41, 21.98 -32.62, 20.53 -31.35 C19.08 -30.07, 17.75 -28.12, 15.11 -24.26 C12.47 -20.4, 7.21 -12.22, 4.69 -8.17 C2.17 -4.13, 0.78 -1.36, 0 0" stroke="#FFFFFF" stroke-width="2" fill="none"></path></g></g><mask></mask><g stroke-linecap="round"><g transform="translate(392.1648238288999 70.71934143372346) rotate(0 22.53076137550397 10.753074689535879)"><path d="M0 0 C-1.54 2.43, -7.06 9.22, -9.22 14.55 C-11.38 19.88, -12.9 26.53, -12.97 31.97 C-13.04 37.41, -11.93 42.62, -9.64 47.2 C-7.35 51.78, -3.53 56.48, 0.77 59.45 C5.06 62.43, 10.61 64.32, 16.12 65.05 C21.63 65.79, 28.2 65.78, 33.81 63.85 C39.41 61.91, 45.71 57.86, 49.75 53.45 C53.79 49.05, 56.69 42.72, 58.03 37.43 C59.37 32.15, 58.76 27.88, 57.78 21.73 C56.8 15.58, 54.54 8.44, 52.15 0.53 C49.76 -7.38, 45.86 -18.38, 43.43 -25.73 C40.99 -33.08, 38.52 -40.58, 37.54 -43.55 M0 0 C-1.54 2.43, -7.06 9.22, -9.22 14.55 C-11.38 19.88, -12.9 26.53, -12.97 31.97 C-13.04 37.41, -11.93 42.62, -9.64 47.2 C-7.35 51.78, -3.53 56.48, 0.77 59.45 C5.06 62.43, 10.61 64.32, 16.12 65.05 C21.63 65.79, 28.2 65.78, 33.81 63.85 C39.41 61.91, 45.71 57.86, 49.75 53.45 C53.79 49.05, 56.69 42.72, 58.03 37.43 C59.37 32.15, 58.76 27.88, 57.78 21.73 C56.8 15.58, 54.54 8.44, 52.15 0.53 C49.76 -7.38, 45.86 -18.38, 43.43 -25.73 C40.99 -33.08, 38.52 -40.58, 37.54 -43.55" stroke="#FFFFFF" stroke-width="2" fill="none"></path></g></g><mask></mask><g stroke-linecap="round"><g transform="translate(391.5575602442932 76.1502235402113) rotate(0 3.786296137217505 12.530817352659597)"><path d="M0 0 C-0.7 1.59, -3.45 6.48, -4.18 9.53 C-4.9 12.58, -4.75 15.43, -4.37 18.29 C-3.99 21.16, -3.15 24.85, -1.92 26.71 C-0.68 28.57, 1.33 29.67, 3.04 29.44 C4.75 29.2, 6.96 27.35, 8.36 25.29 C9.75 23.23, 10.83 20.09, 11.43 17.08 C12.02 14.08, 12.09 10.15, 11.94 7.26 C11.79 4.36, 11.37 1.62, 10.53 -0.31 C9.69 -2.25, 8.18 -3.82, 6.9 -4.37 C5.62 -4.93, 4.01 -4.39, 2.86 -3.66 C1.71 -2.93, 0.48 -0.61, 0 0 M0 0 C-0.7 1.59, -3.45 6.48, -4.18 9.53 C-4.9 12.58, -4.75 15.43, -4.37 18.29 C-3.99 21.16, -3.15 24.85, -1.92 26.71 C-0.68 28.57, 1.33 29.67, 3.04 29.44 C4.75 29.2, 6.96 27.35, 8.36 25.29 C9.75 23.23, 10.83 20.09, 11.43 17.08 C12.02 14.08, 12.09 10.15, 11.94 7.26 C11.79 4.36, 11.37 1.62, 10.53 -0.31 C9.69 -2.25, 8.18 -3.82, 6.9 -4.37 C5.62 -4.93, 4.01 -4.39, 2.86 -3.66 C1.71 -2.93, 0.48 -0.61, 0 0" stroke="#FFFFFF" stroke-width="2" fill="none"></path></g></g><mask></mask><g stroke-linecap="round"><g transform="translate(532.2006183879275 137.66801252815185) rotate(0 -10.529802780848513 27.863208529311123)"><path d="M0 0 C-0.1 1.68, 1.22 3.04, -0.61 10.06 C-2.45 17.08, -7.61 34.51, -11.02 42.12 C-14.43 49.73, -19.39 53.46, -21.06 55.73 M0 0 C-0.1 1.68, 1.22 3.04, -0.61 10.06 C-2.45 17.08, -7.61 34.51, -11.02 42.12 C-14.43 49.73, -19.39 53.46, -21.06 55.73" stroke="#FFFFFF" stroke-width="2" fill="none"></path></g></g><mask></mask></svg>