<svg version="1.1" xmlns="http://www.w3.org/2000/svg" viewBox="0 0 2933.532030483124 2945.7718797026687" width="2933.532030483124" height="2945.7718797026687" class="excalidraw-svg"><!-- svg-source:excalidraw --><metadata></metadata><defs><style class="style-fonts">
      </style></defs><rect x="0" y="0" width="2933.532030483124" height="2945.7718797026687" fill="#000000"></rect><g stroke-linecap="round"><g transform="translate(78.45779508809846 2231.8239959261355) rotate(0 -33.60280613172381 -759.3271769333057)" fill-rule="evenodd"><path d="M0 0 C0 36.08, 0 152.42, 0 216.5 C0 280.57, 0 322.77, 0 384.44 C0 446.11, 0 540.46, 0 586.5 C0 632.55, 2.64 643.67, 0 660.72 C-2.64 677.76, -8.63 683.71, -15.85 688.76 C-23.07 693.82, -35.42 694.19, -43.34 691.03 C-51.26 687.87, -60.03 687.17, -63.37 669.79 C-66.71 652.41, -63.37 697.45, -63.37 586.76 C-63.37 476.08, -63.37 356.92, -63.37 5.67 C-63.37 -345.58, -63.37 -1189.71, -63.37 -1520.75 C-63.37 -1851.79, -63.37 -1879.07, -63.37 -1980.55 C-63.37 -2082.02, -62.62 -2097.19, -63.37 -2129.61 C-64.13 -2162.02, -70.34 -2162.53, -67.89 -2175.05 C-65.44 -2187.56, -55.67 -2198.94, -48.69 -2204.72 C-41.71 -2210.49, -33.13 -2211.57, -26 -2209.68 C-18.87 -2207.79, -9.81 -2201.54, -5.93 -2193.38 C-2.05 -2185.23, -3.26 -2196.11, -2.72 -2160.75 C-2.19 -2125.39, -3.29 -2104.99, -2.72 -1981.21 C-2.16 -1857.43, 0.23 -1748.27, 0.68 -1418.07 C1.14 -1087.87, 0.11 -236.34, 0 0" stroke="none" stroke-width="0" fill="#e1e1e1" fill-rule="evenodd"></path><path d="M0 0 C0 36.08, 0 152.42, 0 216.5 C0 280.57, 0 322.77, 0 384.44 C0 446.11, 0 540.46, 0 586.5 C0 632.55, 2.64 643.67, 0 660.72 C-2.64 677.76, -8.63 683.71, -15.85 688.76 C-23.07 693.82, -35.42 694.19, -43.34 691.03 C-51.26 687.87, -60.03 687.17, -63.37 669.79 C-66.71 652.41, -63.37 697.45, -63.37 586.76 C-63.37 476.08, -63.37 356.92, -63.37 5.67 C-63.37 -345.58, -63.37 -1189.71, -63.37 -1520.75 C-63.37 -1851.79, -63.37 -1879.07, -63.37 -1980.55 C-63.37 -2082.02, -62.62 -2097.19, -63.37 -2129.61 C-64.13 -2162.02, -70.34 -2162.53, -67.89 -2175.05 C-65.44 -2187.56, -55.67 -2198.94, -48.69 -2204.72 C-41.71 -2210.49, -33.13 -2211.57, -26 -2209.68 C-18.87 -2207.79, -9.81 -2201.54, -5.93 -2193.38 C-2.05 -2185.23, -3.26 -2196.11, -2.72 -2160.75 C-2.19 -2125.39, -3.29 -2104.99, -2.72 -1981.21 C-2.16 -1857.43, 0.23 -1748.27, 0.68 -1418.07 C1.14 -1087.87, 0.11 -236.34, 0 0 M0 0 C0 36.08, 0 152.42, 0 216.5 C0 280.57, 0 322.77, 0 384.44 C0 446.11, 0 540.46, 0 586.5 C0 632.55, 2.64 643.67, 0 660.72 C-2.64 677.76, -8.63 683.71, -15.85 688.76 C-23.07 693.82, -35.42 694.19, -43.34 691.03 C-51.26 687.87, -60.03 687.17, -63.37 669.79 C-66.71 652.41, -63.37 697.45, -63.37 586.76 C-63.37 476.08, -63.37 356.92, -63.37 5.67 C-63.37 -345.58, -63.37 -1189.71, -63.37 -1520.75 C-63.37 -1851.79, -63.37 -1879.07, -63.37 -1980.55 C-63.37 -2082.02, -62.62 -2097.19, -63.37 -2129.61 C-64.13 -2162.02, -70.34 -2162.53, -67.89 -2175.05 C-65.44 -2187.56, -55.67 -2198.94, -48.69 -2204.72 C-41.71 -2210.49, -33.13 -2211.57, -26 -2209.68 C-18.87 -2207.79, -9.81 -2201.54, -5.93 -2193.38 C-2.05 -2185.23, -3.26 -2196.11, -2.72 -2160.75 C-2.19 -2125.39, -3.29 -2104.99, -2.72 -1981.21 C-2.16 -1857.43, 0.23 -1748.27, 0.68 -1418.07 C1.14 -1087.87, 0.11 -236.34, 0 0" stroke="#E1E1E1" stroke-width="2" fill="none"></path></g></g><mask></mask><g stroke-linecap="round"><g transform="translate(340.4158947261458 2220.534642552046) rotate(0 -33.60280613172381 -759.327176933306)" fill-rule="evenodd"><path d="M0 0 C0 36.08, 0 152.42, 0 216.5 C0 280.57, 0 322.77, 0 384.44 C0 446.11, 0 540.46, 0 586.5 C0 632.55, 2.64 643.67, 0 660.72 C-2.64 677.76, -8.63 683.71, -15.85 688.76 C-23.07 693.82, -35.42 694.19, -43.34 691.03 C-51.26 687.87, -60.03 687.17, -63.37 669.79 C-66.71 652.41, -63.37 697.45, -63.37 586.76 C-63.37 476.08, -63.37 356.92, -63.37 5.67 C-63.37 -345.58, -63.37 -1189.71, -63.37 -1520.75 C-63.37 -1851.79, -63.37 -1879.07, -63.37 -1980.55 C-63.37 -2082.02, -62.62 -2097.19, -63.37 -2129.61 C-64.13 -2162.02, -70.34 -2162.53, -67.89 -2175.05 C-65.44 -2187.56, -55.67 -2198.94, -48.69 -2204.72 C-41.71 -2210.49, -33.13 -2211.57, -26 -2209.68 C-18.87 -2207.79, -9.81 -2201.54, -5.93 -2193.38 C-2.05 -2185.23, -3.26 -2196.11, -2.72 -2160.75 C-2.19 -2125.39, -3.29 -2104.99, -2.72 -1981.21 C-2.16 -1857.43, 0.23 -1748.27, 0.68 -1418.07 C1.14 -1087.87, 0.11 -236.34, 0 0" stroke="none" stroke-width="0" fill="#e1e1e1" fill-rule="evenodd"></path><path d="M0 0 C0 36.08, 0 152.42, 0 216.5 C0 280.57, 0 322.77, 0 384.44 C0 446.11, 0 540.46, 0 586.5 C0 632.55, 2.64 643.67, 0 660.72 C-2.64 677.76, -8.63 683.71, -15.85 688.76 C-23.07 693.82, -35.42 694.19, -43.34 691.03 C-51.26 687.87, -60.03 687.17, -63.37 669.79 C-66.71 652.41, -63.37 697.45, -63.37 586.76 C-63.37 476.08, -63.37 356.92, -63.37 5.67 C-63.37 -345.58, -63.37 -1189.71, -63.37 -1520.75 C-63.37 -1851.79, -63.37 -1879.07, -63.37 -1980.55 C-63.37 -2082.02, -62.62 -2097.19, -63.37 -2129.61 C-64.13 -2162.02, -70.34 -2162.53, -67.89 -2175.05 C-65.44 -2187.56, -55.67 -2198.94, -48.69 -2204.72 C-41.71 -2210.49, -33.13 -2211.57, -26 -2209.68 C-18.87 -2207.79, -9.81 -2201.54, -5.93 -2193.38 C-2.05 -2185.23, -3.26 -2196.11, -2.72 -2160.75 C-2.19 -2125.39, -3.29 -2104.99, -2.72 -1981.21 C-2.16 -1857.43, 0.23 -1748.27, 0.68 -1418.07 C1.14 -1087.87, 0.11 -236.34, 0 0 M0 0 C0 36.08, 0 152.42, 0 216.5 C0 280.57, 0 322.77, 0 384.44 C0 446.11, 0 540.46, 0 586.5 C0 632.55, 2.64 643.67, 0 660.72 C-2.64 677.76, -8.63 683.71, -15.85 688.76 C-23.07 693.82, -35.42 694.19, -43.34 691.03 C-51.26 687.87, -60.03 687.17, -63.37 669.79 C-66.71 652.41, -63.37 697.45, -63.37 586.76 C-63.37 476.08, -63.37 356.92, -63.37 5.67 C-63.37 -345.58, -63.37 -1189.71, -63.37 -1520.75 C-63.37 -1851.79, -63.37 -1879.07, -63.37 -1980.55 C-63.37 -2082.02, -62.62 -2097.19, -63.37 -2129.61 C-64.13 -2162.02, -70.34 -2162.53, -67.89 -2175.05 C-65.44 -2187.56, -55.67 -2198.94, -48.69 -2204.72 C-41.71 -2210.49, -33.13 -2211.57, -26 -2209.68 C-18.87 -2207.79, -9.81 -2201.54, -5.93 -2193.38 C-2.05 -2185.23, -3.26 -2196.11, -2.72 -2160.75 C-2.19 -2125.39, -3.29 -2104.99, -2.72 -1981.21 C-2.16 -1857.43, 0.23 -1748.27, 0.68 -1418.07 C1.14 -1087.87, 0.11 -236.34, 0 0" stroke="#E1E1E1" stroke-width="2" fill="none"></path></g></g><mask></mask><g stroke-linecap="round"><g transform="translate(605.5217301715638 2221.4208963084575) rotate(0 -33.60280613172381 -759.3271769333062)" fill-rule="evenodd"><path d="M0 0 C0 36.08, 0 152.42, 0 216.5 C0 280.57, 0 322.77, 0 384.44 C0 446.11, 0 540.46, 0 586.5 C0 632.55, 2.64 643.67, 0 660.72 C-2.64 677.76, -8.63 683.71, -15.85 688.76 C-23.07 693.82, -35.42 694.19, -43.34 691.03 C-51.26 687.87, -60.03 687.17, -63.37 669.79 C-66.71 652.41, -63.37 697.45, -63.37 586.76 C-63.37 476.08, -63.37 356.92, -63.37 5.67 C-63.37 -345.58, -63.37 -1189.71, -63.37 -1520.75 C-63.37 -1851.79, -63.37 -1879.07, -63.37 -1980.55 C-63.37 -2082.02, -62.62 -2097.19, -63.37 -2129.61 C-64.13 -2162.02, -70.34 -2162.53, -67.89 -2175.05 C-65.44 -2187.56, -55.67 -2198.94, -48.69 -2204.72 C-41.71 -2210.49, -33.13 -2211.57, -26 -2209.68 C-18.87 -2207.79, -9.81 -2201.54, -5.93 -2193.38 C-2.05 -2185.23, -3.26 -2196.11, -2.72 -2160.75 C-2.19 -2125.39, -3.29 -2104.99, -2.72 -1981.21 C-2.16 -1857.43, 0.23 -1748.27, 0.68 -1418.07 C1.14 -1087.87, 0.11 -236.34, 0 0" stroke="none" stroke-width="0" fill="#e1e1e1" fill-rule="evenodd"></path><path d="M0 0 C0 36.08, 0 152.42, 0 216.5 C0 280.57, 0 322.77, 0 384.44 C0 446.11, 0 540.46, 0 586.5 C0 632.55, 2.64 643.67, 0 660.72 C-2.64 677.76, -8.63 683.71, -15.85 688.76 C-23.07 693.82, -35.42 694.19, -43.34 691.03 C-51.26 687.87, -60.03 687.17, -63.37 669.79 C-66.71 652.41, -63.37 697.45, -63.37 586.76 C-63.37 476.08, -63.37 356.92, -63.37 5.67 C-63.37 -345.58, -63.37 -1189.71, -63.37 -1520.75 C-63.37 -1851.79, -63.37 -1879.07, -63.37 -1980.55 C-63.37 -2082.02, -62.62 -2097.19, -63.37 -2129.61 C-64.13 -2162.02, -70.34 -2162.53, -67.89 -2175.05 C-65.44 -2187.56, -55.67 -2198.94, -48.69 -2204.72 C-41.71 -2210.49, -33.13 -2211.57, -26 -2209.68 C-18.87 -2207.79, -9.81 -2201.54, -5.93 -2193.38 C-2.05 -2185.23, -3.26 -2196.11, -2.72 -2160.75 C-2.19 -2125.39, -3.29 -2104.99, -2.72 -1981.21 C-2.16 -1857.43, 0.23 -1748.27, 0.68 -1418.07 C1.14 -1087.87, 0.11 -236.34, 0 0 M0 0 C0 36.08, 0 152.42, 0 216.5 C0 280.57, 0 322.77, 0 384.44 C0 446.11, 0 540.46, 0 586.5 C0 632.55, 2.64 643.67, 0 660.72 C-2.64 677.76, -8.63 683.71, -15.85 688.76 C-23.07 693.82, -35.42 694.19, -43.34 691.03 C-51.26 687.87, -60.03 687.17, -63.37 669.79 C-66.71 652.41, -63.37 697.45, -63.37 586.76 C-63.37 476.08, -63.37 356.92, -63.37 5.67 C-63.37 -345.58, -63.37 -1189.71, -63.37 -1520.75 C-63.37 -1851.79, -63.37 -1879.07, -63.37 -1980.55 C-63.37 -2082.02, -62.62 -2097.19, -63.37 -2129.61 C-64.13 -2162.02, -70.34 -2162.53, -67.89 -2175.05 C-65.44 -2187.56, -55.67 -2198.94, -48.69 -2204.72 C-41.71 -2210.49, -33.13 -2211.57, -26 -2209.68 C-18.87 -2207.79, -9.81 -2201.54, -5.93 -2193.38 C-2.05 -2185.23, -3.26 -2196.11, -2.72 -2160.75 C-2.19 -2125.39, -3.29 -2104.99, -2.72 -1981.21 C-2.16 -1857.43, 0.23 -1748.27, 0.68 -1418.07 C1.14 -1087.87, 0.11 -236.34, 0 0" stroke="#E1E1E1" stroke-width="2" fill="none"></path></g></g><mask></mask><g stroke-linecap="round"><g transform="translate(2409.7946421924453 2225.7694889407953) rotate(0 -33.60280613172381 -759.3271769333057)" fill-rule="evenodd"><path d="M0 0 C0 36.08, 0 152.42, 0 216.5 C0 280.57, 0 322.77, 0 384.44 C0 446.11, 0 540.46, 0 586.5 C0 632.55, 2.64 643.67, 0 660.72 C-2.64 677.76, -8.63 683.71, -15.85 688.76 C-23.07 693.82, -35.42 694.19, -43.34 691.03 C-51.26 687.87, -60.03 687.17, -63.37 669.79 C-66.71 652.41, -63.37 697.45, -63.37 586.76 C-63.37 476.08, -63.37 356.92, -63.37 5.67 C-63.37 -345.58, -63.37 -1189.71, -63.37 -1520.75 C-63.37 -1851.79, -63.37 -1879.07, -63.37 -1980.55 C-63.37 -2082.02, -62.62 -2097.19, -63.37 -2129.61 C-64.13 -2162.02, -70.34 -2162.53, -67.89 -2175.05 C-65.44 -2187.56, -55.67 -2198.94, -48.69 -2204.72 C-41.71 -2210.49, -33.13 -2211.57, -26 -2209.68 C-18.87 -2207.79, -9.81 -2201.54, -5.93 -2193.38 C-2.05 -2185.23, -3.26 -2196.11, -2.72 -2160.75 C-2.19 -2125.39, -3.29 -2104.99, -2.72 -1981.21 C-2.16 -1857.43, 0.23 -1748.27, 0.68 -1418.07 C1.14 -1087.87, 0.11 -236.34, 0 0" stroke="none" stroke-width="0" fill="#e1e1e1" fill-rule="evenodd"></path><path d="M0 0 C0 36.08, 0 152.42, 0 216.5 C0 280.57, 0 322.77, 0 384.44 C0 446.11, 0 540.46, 0 586.5 C0 632.55, 2.64 643.67, 0 660.72 C-2.64 677.76, -8.63 683.71, -15.85 688.76 C-23.07 693.82, -35.42 694.19, -43.34 691.03 C-51.26 687.87, -60.03 687.17, -63.37 669.79 C-66.71 652.41, -63.37 697.45, -63.37 586.76 C-63.37 476.08, -63.37 356.92, -63.37 5.67 C-63.37 -345.58, -63.37 -1189.71, -63.37 -1520.75 C-63.37 -1851.79, -63.37 -1879.07, -63.37 -1980.55 C-63.37 -2082.02, -62.62 -2097.19, -63.37 -2129.61 C-64.13 -2162.02, -70.34 -2162.53, -67.89 -2175.05 C-65.44 -2187.56, -55.67 -2198.94, -48.69 -2204.72 C-41.71 -2210.49, -33.13 -2211.57, -26 -2209.68 C-18.87 -2207.79, -9.81 -2201.54, -5.93 -2193.38 C-2.05 -2185.23, -3.26 -2196.11, -2.72 -2160.75 C-2.19 -2125.39, -3.29 -2104.99, -2.72 -1981.21 C-2.16 -1857.43, 0.23 -1748.27, 0.68 -1418.07 C1.14 -1087.87, 0.11 -236.34, 0 0 M0 0 C0 36.08, 0 152.42, 0 216.5 C0 280.57, 0 322.77, 0 384.44 C0 446.11, 0 540.46, 0 586.5 C0 632.55, 2.64 643.67, 0 660.72 C-2.64 677.76, -8.63 683.71, -15.85 688.76 C-23.07 693.82, -35.42 694.19, -43.34 691.03 C-51.26 687.87, -60.03 687.17, -63.37 669.79 C-66.71 652.41, -63.37 697.45, -63.37 586.76 C-63.37 476.08, -63.37 356.92, -63.37 5.67 C-63.37 -345.58, -63.37 -1189.71, -63.37 -1520.75 C-63.37 -1851.79, -63.37 -1879.07, -63.37 -1980.55 C-63.37 -2082.02, -62.62 -2097.19, -63.37 -2129.61 C-64.13 -2162.02, -70.34 -2162.53, -67.89 -2175.05 C-65.44 -2187.56, -55.67 -2198.94, -48.69 -2204.72 C-41.71 -2210.49, -33.13 -2211.57, -26 -2209.68 C-18.87 -2207.79, -9.81 -2201.54, -5.93 -2193.38 C-2.05 -2185.23, -3.26 -2196.11, -2.72 -2160.75 C-2.19 -2125.39, -3.29 -2104.99, -2.72 -1981.21 C-2.16 -1857.43, 0.23 -1748.27, 0.68 -1418.07 C1.14 -1087.87, 0.11 -236.34, 0 0" stroke="#E1E1E1" stroke-width="2" fill="none"></path></g></g><mask></mask><g stroke-linecap="round"><g transform="translate(2669.829551175863 2226.655742697207) rotate(0 -33.60280613172381 -759.3271769333057)" fill-rule="evenodd"><path d="M0 0 C0 36.08, 0 152.42, 0 216.5 C0 280.57, 0 322.77, 0 384.44 C0 446.11, 0 540.46, 0 586.5 C0 632.55, 2.64 643.67, 0 660.72 C-2.64 677.76, -8.63 683.71, -15.85 688.76 C-23.07 693.82, -35.42 694.19, -43.34 691.03 C-51.26 687.87, -60.03 687.17, -63.37 669.79 C-66.71 652.41, -63.37 697.45, -63.37 586.76 C-63.37 476.08, -63.37 356.92, -63.37 5.67 C-63.37 -345.58, -63.37 -1189.71, -63.37 -1520.75 C-63.37 -1851.79, -63.37 -1879.07, -63.37 -1980.55 C-63.37 -2082.02, -62.62 -2097.19, -63.37 -2129.61 C-64.13 -2162.02, -70.34 -2162.53, -67.89 -2175.05 C-65.44 -2187.56, -55.67 -2198.94, -48.69 -2204.72 C-41.71 -2210.49, -33.13 -2211.57, -26 -2209.68 C-18.87 -2207.79, -9.81 -2201.54, -5.93 -2193.38 C-2.05 -2185.23, -3.26 -2196.11, -2.72 -2160.75 C-2.19 -2125.39, -3.29 -2104.99, -2.72 -1981.21 C-2.16 -1857.43, 0.23 -1748.27, 0.68 -1418.07 C1.14 -1087.87, 0.11 -236.34, 0 0" stroke="none" stroke-width="0" fill="#e1e1e1" fill-rule="evenodd"></path><path d="M0 0 C0 36.08, 0 152.42, 0 216.5 C0 280.57, 0 322.77, 0 384.44 C0 446.11, 0 540.46, 0 586.5 C0 632.55, 2.64 643.67, 0 660.72 C-2.64 677.76, -8.63 683.71, -15.85 688.76 C-23.07 693.82, -35.42 694.19, -43.34 691.03 C-51.26 687.87, -60.03 687.17, -63.37 669.79 C-66.71 652.41, -63.37 697.45, -63.37 586.76 C-63.37 476.08, -63.37 356.92, -63.37 5.67 C-63.37 -345.58, -63.37 -1189.71, -63.37 -1520.75 C-63.37 -1851.79, -63.37 -1879.07, -63.37 -1980.55 C-63.37 -2082.02, -62.62 -2097.19, -63.37 -2129.61 C-64.13 -2162.02, -70.34 -2162.53, -67.89 -2175.05 C-65.44 -2187.56, -55.67 -2198.94, -48.69 -2204.72 C-41.71 -2210.49, -33.13 -2211.57, -26 -2209.68 C-18.87 -2207.79, -9.81 -2201.54, -5.93 -2193.38 C-2.05 -2185.23, -3.26 -2196.11, -2.72 -2160.75 C-2.19 -2125.39, -3.29 -2104.99, -2.72 -1981.21 C-2.16 -1857.43, 0.23 -1748.27, 0.68 -1418.07 C1.14 -1087.87, 0.11 -236.34, 0 0 M0 0 C0 36.08, 0 152.42, 0 216.5 C0 280.57, 0 322.77, 0 384.44 C0 446.11, 0 540.46, 0 586.5 C0 632.55, 2.64 643.67, 0 660.72 C-2.64 677.76, -8.63 683.71, -15.85 688.76 C-23.07 693.82, -35.42 694.19, -43.34 691.03 C-51.26 687.87, -60.03 687.17, -63.37 669.79 C-66.71 652.41, -63.37 697.45, -63.37 586.76 C-63.37 476.08, -63.37 356.92, -63.37 5.67 C-63.37 -345.58, -63.37 -1189.71, -63.37 -1520.75 C-63.37 -1851.79, -63.37 -1879.07, -63.37 -1980.55 C-63.37 -2082.02, -62.62 -2097.19, -63.37 -2129.61 C-64.13 -2162.02, -70.34 -2162.53, -67.89 -2175.05 C-65.44 -2187.56, -55.67 -2198.94, -48.69 -2204.72 C-41.71 -2210.49, -33.13 -2211.57, -26 -2209.68 C-18.87 -2207.79, -9.81 -2201.54, -5.93 -2193.38 C-2.05 -2185.23, -3.26 -2196.11, -2.72 -2160.75 C-2.19 -2125.39, -3.29 -2104.99, -2.72 -1981.21 C-2.16 -1857.43, 0.23 -1748.27, 0.68 -1418.07 C1.14 -1087.87, 0.11 -236.34, 0 0" stroke="#E1E1E1" stroke-width="2" fill="none"></path></g></g><mask></mask><g stroke-linecap="round"><g transform="translate(2922.357991553134 2224.1717144129016) rotate(0 -33.60280613172381 -759.3271769333053)" fill-rule="evenodd"><path d="M0 0 C0 36.08, 0 152.42, 0 216.5 C0 280.57, 0 322.77, 0 384.44 C0 446.11, 0 540.46, 0 586.5 C0 632.55, 2.64 643.67, 0 660.72 C-2.64 677.76, -8.63 683.71, -15.85 688.76 C-23.07 693.82, -35.42 694.19, -43.34 691.03 C-51.26 687.87, -60.03 687.17, -63.37 669.79 C-66.71 652.41, -63.37 697.45, -63.37 586.76 C-63.37 476.08, -63.37 356.92, -63.37 5.67 C-63.37 -345.58, -63.37 -1189.71, -63.37 -1520.75 C-63.37 -1851.79, -63.37 -1879.07, -63.37 -1980.55 C-63.37 -2082.02, -62.62 -2097.19, -63.37 -2129.61 C-64.13 -2162.02, -70.34 -2162.53, -67.89 -2175.05 C-65.44 -2187.56, -55.67 -2198.94, -48.69 -2204.72 C-41.71 -2210.49, -33.13 -2211.57, -26 -2209.68 C-18.87 -2207.79, -9.81 -2201.54, -5.93 -2193.38 C-2.05 -2185.23, -3.26 -2196.11, -2.72 -2160.75 C-2.19 -2125.39, -3.29 -2104.99, -2.72 -1981.21 C-2.16 -1857.43, 0.23 -1748.27, 0.68 -1418.07 C1.14 -1087.87, 0.11 -236.34, 0 0" stroke="none" stroke-width="0" fill="#e1e1e1" fill-rule="evenodd"></path><path d="M0 0 C0 36.08, 0 152.42, 0 216.5 C0 280.57, 0 322.77, 0 384.44 C0 446.11, 0 540.46, 0 586.5 C0 632.55, 2.64 643.67, 0 660.72 C-2.64 677.76, -8.63 683.71, -15.85 688.76 C-23.07 693.82, -35.42 694.19, -43.34 691.03 C-51.26 687.87, -60.03 687.17, -63.37 669.79 C-66.71 652.41, -63.37 697.45, -63.37 586.76 C-63.37 476.08, -63.37 356.92, -63.37 5.67 C-63.37 -345.58, -63.37 -1189.71, -63.37 -1520.75 C-63.37 -1851.79, -63.37 -1879.07, -63.37 -1980.55 C-63.37 -2082.02, -62.62 -2097.19, -63.37 -2129.61 C-64.13 -2162.02, -70.34 -2162.53, -67.89 -2175.05 C-65.44 -2187.56, -55.67 -2198.94, -48.69 -2204.72 C-41.71 -2210.49, -33.13 -2211.57, -26 -2209.68 C-18.87 -2207.79, -9.81 -2201.54, -5.93 -2193.38 C-2.05 -2185.23, -3.26 -2196.11, -2.72 -2160.75 C-2.19 -2125.39, -3.29 -2104.99, -2.72 -1981.21 C-2.16 -1857.43, 0.23 -1748.27, 0.68 -1418.07 C1.14 -1087.87, 0.11 -236.34, 0 0 M0 0 C0 36.08, 0 152.42, 0 216.5 C0 280.57, 0 322.77, 0 384.44 C0 446.11, 0 540.46, 0 586.5 C0 632.55, 2.64 643.67, 0 660.72 C-2.64 677.76, -8.63 683.71, -15.85 688.76 C-23.07 693.82, -35.42 694.19, -43.34 691.03 C-51.26 687.87, -60.03 687.17, -63.37 669.79 C-66.71 652.41, -63.37 697.45, -63.37 586.76 C-63.37 476.08, -63.37 356.92, -63.37 5.67 C-63.37 -345.58, -63.37 -1189.71, -63.37 -1520.75 C-63.37 -1851.79, -63.37 -1879.07, -63.37 -1980.55 C-63.37 -2082.02, -62.62 -2097.19, -63.37 -2129.61 C-64.13 -2162.02, -70.34 -2162.53, -67.89 -2175.05 C-65.44 -2187.56, -55.67 -2198.94, -48.69 -2204.72 C-41.71 -2210.49, -33.13 -2211.57, -26 -2209.68 C-18.87 -2207.79, -9.81 -2201.54, -5.93 -2193.38 C-2.05 -2185.23, -3.26 -2196.11, -2.72 -2160.75 C-2.19 -2125.39, -3.29 -2104.99, -2.72 -1981.21 C-2.16 -1857.43, 0.23 -1748.27, 0.68 -1418.07 C1.14 -1087.87, 0.11 -236.34, 0 0" stroke="#E1E1E1" stroke-width="2" fill="none"></path></g></g><mask></mask><g stroke-linecap="round"><g transform="translate(2145.5984091075998 735.1728881528793) rotate(0 9.238310884063822 730.4955439231696)" fill-rule="evenodd"><path d="M0 0 C0 -49.13, 0 -204.78, 0 -294.77 C0 -384.77, 0 -477.25, 0 -539.98 C0 -602.7, 0.01 -643.26, 0 -671.13 C-0.01 -698.99, 2.42 -698.67, -0.08 -707.15 C-2.58 -715.64, -8.15 -720.01, -15.01 -722.04 C-21.88 -724.07, -33.55 -722.55, -41.28 -719.32 C-49 -716.09, -57.43 -712.93, -61.37 -702.64 C-65.32 -692.35, -64.36 -696.8, -64.96 -657.57 C-65.56 -618.35, -64.96 -585.62, -64.96 -467.3 C-64.96 -348.97, -64.96 -64.08, -64.96 52.38 C-64.96 168.85, -66.43 185.31, -64.96 231.48 C-63.49 277.66, -59.03 301.95, -56.15 329.41 C-53.27 356.87, -52.14 375.79, -47.7 396.25 C-43.25 416.7, -37.39 430.42, -29.48 452.15 C-21.56 473.88, -7.92 503.18, -0.18 526.63 C7.55 550.08, 12.48 571.86, 16.92 592.87 C21.36 613.88, 24.73 626.97, 26.48 652.71 C28.23 678.45, 27.18 719.34, 27.44 747.33 C27.7 775.32, 28.66 801.06, 28.04 820.66 C27.41 840.27, 27.12 848.38, 23.7 864.96 C20.28 881.54, 14.37 899.17, 7.51 920.13 C0.66 941.09, -9 970.33, -17.44 990.7 C-25.87 1011.07, -36.21 1022.84, -43.1 1042.37 C-49.99 1061.9, -55.07 1080.18, -58.78 1107.9 C-62.5 1135.63, -64.19 1169.74, -65.41 1208.72 C-66.63 1247.71, -65.65 1294.08, -66.09 1341.8 C-66.54 1389.52, -68 1443.88, -68.09 1495.02 C-68.19 1546.17, -67.27 1594.89, -66.64 1648.67 C-66.02 1702.44, -65.01 1759, -64.34 1817.67 C-63.68 1876.33, -62.72 1952.75, -62.65 2000.64 C-62.57 2048.54, -63.86 2078.54, -63.91 2105.03 C-63.97 2131.52, -68.1 2146.58, -62.97 2159.58 C-57.84 2172.58, -43.65 2181.3, -33.15 2183.03 C-22.64 2184.76, -6.22 2181.27, 0.08 2169.96 C6.37 2158.65, 4.32 2152.97, 4.64 2115.16 C4.95 2077.35, 2.44 2022.03, 1.96 1943.1 C1.48 1864.17, 2.22 1727.04, 1.75 1641.58 C1.28 1556.11, -0.82 1490.46, -0.85 1430.29 C-0.88 1370.13, 0.28 1326.82, 1.56 1280.58 C2.84 1234.34, 4.82 1187.75, 6.83 1152.83 C8.83 1117.92, 8.81 1093.15, 13.61 1071.1 C18.42 1049.04, 28.06 1038.31, 35.65 1020.5 C43.24 1002.68, 51.25 990.34, 59.15 964.21 C67.06 938.07, 78.51 902.68, 83.08 863.69 C87.65 824.7, 86.75 774.58, 86.57 730.27 C86.39 685.96, 86.7 636.2, 81.99 597.81 C77.28 559.42, 66.77 527.67, 58.31 499.92 C49.84 472.17, 38.07 446.38, 31.2 431.32 C24.33 416.27, 20.62 418.47, 17.07 409.6 C13.51 400.73, 11.66 393.2, 9.88 378.11 C8.1 363.01, 7.3 347.49, 6.36 319.04 C5.42 290.6, 5.3 260.6, 4.24 207.43 C3.18 154.25, 0.71 34.57, 0 0" stroke="none" stroke-width="0" fill="#e1e1e1" fill-rule="evenodd"></path><path d="M0 0 C0 -49.13, 0 -204.78, 0 -294.77 C0 -384.77, 0 -477.25, 0 -539.98 C0 -602.7, 0.01 -643.26, 0 -671.13 C-0.01 -698.99, 2.42 -698.67, -0.08 -707.15 C-2.58 -715.64, -8.15 -720.01, -15.01 -722.04 C-21.88 -724.07, -33.55 -722.55, -41.28 -719.32 C-49 -716.09, -57.43 -712.93, -61.37 -702.64 C-65.32 -692.35, -64.36 -696.8, -64.96 -657.57 C-65.56 -618.35, -64.96 -585.62, -64.96 -467.3 C-64.96 -348.97, -64.96 -64.08, -64.96 52.38 C-64.96 168.85, -66.43 185.31, -64.96 231.48 C-63.49 277.66, -59.03 301.95, -56.15 329.41 C-53.27 356.87, -52.14 375.79, -47.7 396.25 C-43.25 416.7, -37.39 430.42, -29.48 452.15 C-21.56 473.88, -7.92 503.18, -0.18 526.63 C7.55 550.08, 12.48 571.86, 16.92 592.87 C21.36 613.88, 24.73 626.97, 26.48 652.71 C28.23 678.45, 27.18 719.34, 27.44 747.33 C27.7 775.32, 28.66 801.06, 28.04 820.66 C27.41 840.27, 27.12 848.38, 23.7 864.96 C20.28 881.54, 14.37 899.17, 7.51 920.13 C0.66 941.09, -9 970.33, -17.44 990.7 C-25.87 1011.07, -36.21 1022.84, -43.1 1042.37 C-49.99 1061.9, -55.07 1080.18, -58.78 1107.9 C-62.5 1135.63, -64.19 1169.74, -65.41 1208.72 C-66.63 1247.71, -65.65 1294.08, -66.09 1341.8 C-66.54 1389.52, -68 1443.88, -68.09 1495.02 C-68.19 1546.17, -67.27 1594.89, -66.64 1648.67 C-66.02 1702.44, -65.01 1759, -64.34 1817.67 C-63.68 1876.33, -62.72 1952.75, -62.65 2000.64 C-62.57 2048.54, -63.86 2078.54, -63.91 2105.03 C-63.97 2131.52, -68.1 2146.58, -62.97 2159.58 C-57.84 2172.58, -43.65 2181.3, -33.15 2183.03 C-22.64 2184.76, -6.22 2181.27, 0.08 2169.96 C6.37 2158.65, 4.32 2152.97, 4.64 2115.16 C4.95 2077.35, 2.44 2022.03, 1.96 1943.1 C1.48 1864.17, 2.22 1727.04, 1.75 1641.58 C1.28 1556.11, -0.82 1490.46, -0.85 1430.29 C-0.88 1370.13, 0.28 1326.82, 1.56 1280.58 C2.84 1234.34, 4.82 1187.75, 6.83 1152.83 C8.83 1117.92, 8.81 1093.15, 13.61 1071.1 C18.42 1049.04, 28.06 1038.31, 35.65 1020.5 C43.24 1002.68, 51.25 990.34, 59.15 964.21 C67.06 938.07, 78.51 902.68, 83.08 863.69 C87.65 824.7, 86.75 774.58, 86.57 730.27 C86.39 685.96, 86.7 636.2, 81.99 597.81 C77.28 559.42, 66.77 527.67, 58.31 499.92 C49.84 472.17, 38.07 446.38, 31.2 431.32 C24.33 416.27, 20.62 418.47, 17.07 409.6 C13.51 400.73, 11.66 393.2, 9.88 378.11 C8.1 363.01, 7.3 347.49, 6.36 319.04 C5.42 290.6, 5.3 260.6, 4.24 207.43 C3.18 154.25, 0.71 34.57, 0 0 M0 0 C0 -49.13, 0 -204.78, 0 -294.77 C0 -384.77, 0 -477.25, 0 -539.98 C0 -602.7, 0.01 -643.26, 0 -671.13 C-0.01 -698.99, 2.42 -698.67, -0.08 -707.15 C-2.58 -715.64, -8.15 -720.01, -15.01 -722.04 C-21.88 -724.07, -33.55 -722.55, -41.28 -719.32 C-49 -716.09, -57.43 -712.93, -61.37 -702.64 C-65.32 -692.35, -64.36 -696.8, -64.96 -657.57 C-65.56 -618.35, -64.96 -585.62, -64.96 -467.3 C-64.96 -348.97, -64.96 -64.08, -64.96 52.38 C-64.96 168.85, -66.43 185.31, -64.96 231.48 C-63.49 277.66, -59.03 301.95, -56.15 329.41 C-53.27 356.87, -52.14 375.79, -47.7 396.25 C-43.25 416.7, -37.39 430.42, -29.48 452.15 C-21.56 473.88, -7.92 503.18, -0.18 526.63 C7.55 550.08, 12.48 571.86, 16.92 592.87 C21.36 613.88, 24.73 626.97, 26.48 652.71 C28.23 678.45, 27.18 719.34, 27.44 747.33 C27.7 775.32, 28.66 801.06, 28.04 820.66 C27.41 840.27, 27.12 848.38, 23.7 864.96 C20.28 881.54, 14.37 899.17, 7.51 920.13 C0.66 941.09, -9 970.33, -17.44 990.7 C-25.87 1011.07, -36.21 1022.84, -43.1 1042.37 C-49.99 1061.9, -55.07 1080.18, -58.78 1107.9 C-62.5 1135.63, -64.19 1169.74, -65.41 1208.72 C-66.63 1247.71, -65.65 1294.08, -66.09 1341.8 C-66.54 1389.52, -68 1443.88, -68.09 1495.02 C-68.19 1546.17, -67.27 1594.89, -66.64 1648.67 C-66.02 1702.44, -65.01 1759, -64.34 1817.67 C-63.68 1876.33, -62.72 1952.75, -62.65 2000.64 C-62.57 2048.54, -63.86 2078.54, -63.91 2105.03 C-63.97 2131.52, -68.1 2146.58, -62.97 2159.58 C-57.84 2172.58, -43.65 2181.3, -33.15 2183.03 C-22.64 2184.76, -6.22 2181.27, 0.08 2169.96 C6.37 2158.65, 4.32 2152.97, 4.64 2115.16 C4.95 2077.35, 2.44 2022.03, 1.96 1943.1 C1.48 1864.17, 2.22 1727.04, 1.75 1641.58 C1.28 1556.11, -0.82 1490.46, -0.85 1430.29 C-0.88 1370.13, 0.28 1326.82, 1.56 1280.58 C2.84 1234.34, 4.82 1187.75, 6.83 1152.83 C8.83 1117.92, 8.81 1093.15, 13.61 1071.1 C18.42 1049.04, 28.06 1038.31, 35.65 1020.5 C43.24 1002.68, 51.25 990.34, 59.15 964.21 C67.06 938.07, 78.51 902.68, 83.08 863.69 C87.65 824.7, 86.75 774.58, 86.57 730.27 C86.39 685.96, 86.7 636.2, 81.99 597.81 C77.28 559.42, 66.77 527.67, 58.31 499.92 C49.84 472.17, 38.07 446.38, 31.2 431.32 C24.33 416.27, 20.62 418.47, 17.07 409.6 C13.51 400.73, 11.66 393.2, 9.88 378.11 C8.1 363.01, 7.3 347.49, 6.36 319.04 C5.42 290.6, 5.3 260.6, 4.24 207.43 C3.18 154.25, 0.71 34.57, 0 0" stroke="#E1E1E1" stroke-width="2" fill="none"></path></g></g><mask></mask><g stroke-linecap="round"><g transform="translate(1914.947581602809 644.5863294305523) rotate(0 71.45898310405641 829.0577568124113)" fill-rule="evenodd"><path d="M0 0 C-1.94 -41.34, -7.68 -173.56, -11.67 -248.07 C-15.66 -322.58, -21.13 -388.23, -23.92 -447.06 C-26.71 -505.88, -23.42 -570.71, -28.4 -601.02 C-33.37 -631.32, -44.85 -626.68, -53.76 -628.89 C-62.67 -631.09, -77.08 -630.02, -81.85 -614.25 C-86.63 -598.48, -82.16 -570.62, -82.4 -534.29 C-82.64 -497.96, -83.86 -448.8, -83.3 -396.27 C-82.74 -343.75, -81.23 -279.18, -79.02 -219.15 C-76.82 -159.12, -72.98 -94.47, -70.09 -36.1 C-67.2 22.28, -64.53 87.79, -61.67 131.1 C-58.81 174.41, -57.42 200.11, -52.94 223.77 C-48.46 247.43, -46.51 253.77, -34.81 273.06 C-23.11 292.35, -1.03 312.97, 17.27 339.5 C35.56 366.03, 57.35 397.72, 74.97 432.21 C92.59 466.71, 109.88 512.15, 122.96 546.47 C136.04 580.8, 145.99 605.92, 153.46 638.15 C160.93 670.38, 165.18 702.42, 167.77 739.85 C170.36 777.28, 169.79 823.73, 169 862.76 C168.21 901.79, 167.66 937.65, 163.03 974.03 C158.4 1010.4, 153.66 1044.75, 141.21 1081 C128.77 1117.24, 105.42 1158.5, 88.36 1191.51 C71.31 1224.53, 55.93 1253.15, 38.88 1279.09 C21.83 1305.02, -0.38 1328.22, -13.92 1347.11 C-27.46 1366, -35.73 1374.76, -42.38 1392.44 C-49.02 1410.12, -51.02 1430.55, -53.78 1453.17 C-56.53 1475.8, -56.2 1491.37, -58.88 1528.19 C-61.56 1565.01, -66.97 1624.47, -69.86 1674.1 C-72.76 1723.73, -73.87 1773.18, -76.24 1825.97 C-78.61 1878.76, -81.74 1932.65, -84.08 1990.86 C-86.42 2049.08, -89.37 2131.47, -90.26 2175.26 C-91.16 2219.04, -93.7 2234.93, -89.44 2253.56 C-85.17 2272.18, -74.03 2283.29, -64.68 2287 C-55.33 2290.72, -39.72 2283.22, -33.34 2275.85 C-26.96 2268.48, -27.85 2266.43, -26.38 2242.78 C-24.92 2219.13, -26.02 2178.2, -24.57 2133.95 C-23.13 2089.7, -19.89 2041.28, -17.72 1977.28 C-15.56 1913.28, -15.35 1826.51, -11.57 1749.93 C-7.79 1673.35, 0.72 1571.63, 4.94 1517.81 C9.17 1463.98, 7.59 1450.18, 13.79 1426.96 C20 1403.74, 28.36 1400.51, 42.19 1378.48 C56.02 1356.46, 78.85 1322.87, 96.76 1294.8 C114.66 1266.73, 134.55 1241.65, 149.63 1210.07 C164.71 1178.5, 177.59 1134.47, 187.21 1105.35 C196.83 1076.24, 201.59 1058.36, 207.34 1035.37 C213.1 1012.38, 217.43 995.63, 221.74 967.42 C226.04 939.22, 231.35 900, 233.18 866.11 C235.01 832.22, 234.75 794.91, 232.71 764.09 C230.68 733.27, 227.02 711.03, 220.97 681.21 C214.92 651.4, 206.13 619.8, 196.39 585.2 C186.65 550.6, 178.39 511.95, 162.54 473.62 C146.68 435.29, 120.03 388, 101.26 355.22 C82.49 322.44, 63.8 297.07, 49.92 276.96 C36.04 256.85, 24.48 246.17, 17.99 234.54 C11.51 222.92, 13.13 228.46, 11.02 207.19 C8.9 185.92, 7.14 141.47, 5.31 106.93 C3.47 72.4, 0.88 17.82, 0 0" stroke="none" stroke-width="0" fill="#e1e1e1" fill-rule="evenodd"></path><path d="M0 0 C-1.94 -41.34, -7.68 -173.56, -11.67 -248.07 C-15.66 -322.58, -21.13 -388.23, -23.92 -447.06 C-26.71 -505.88, -23.42 -570.71, -28.4 -601.02 C-33.37 -631.32, -44.85 -626.68, -53.76 -628.89 C-62.67 -631.09, -77.08 -630.02, -81.85 -614.25 C-86.63 -598.48, -82.16 -570.62, -82.4 -534.29 C-82.64 -497.96, -83.86 -448.8, -83.3 -396.27 C-82.74 -343.75, -81.23 -279.18, -79.02 -219.15 C-76.82 -159.12, -72.98 -94.47, -70.09 -36.1 C-67.2 22.28, -64.53 87.79, -61.67 131.1 C-58.81 174.41, -57.42 200.11, -52.94 223.77 C-48.46 247.43, -46.51 253.77, -34.81 273.06 C-23.11 292.35, -1.03 312.97, 17.27 339.5 C35.56 366.03, 57.35 397.72, 74.97 432.21 C92.59 466.71, 109.88 512.15, 122.96 546.47 C136.04 580.8, 145.99 605.92, 153.46 638.15 C160.93 670.38, 165.18 702.42, 167.77 739.85 C170.36 777.28, 169.79 823.73, 169 862.76 C168.21 901.79, 167.66 937.65, 163.03 974.03 C158.4 1010.4, 153.66 1044.75, 141.21 1081 C128.77 1117.24, 105.42 1158.5, 88.36 1191.51 C71.31 1224.53, 55.93 1253.15, 38.88 1279.09 C21.83 1305.02, -0.38 1328.22, -13.92 1347.11 C-27.46 1366, -35.73 1374.76, -42.38 1392.44 C-49.02 1410.12, -51.02 1430.55, -53.78 1453.17 C-56.53 1475.8, -56.2 1491.37, -58.88 1528.19 C-61.56 1565.01, -66.97 1624.47, -69.86 1674.1 C-72.76 1723.73, -73.87 1773.18, -76.24 1825.97 C-78.61 1878.76, -81.74 1932.65, -84.08 1990.86 C-86.42 2049.08, -89.37 2131.47, -90.26 2175.26 C-91.16 2219.04, -93.7 2234.93, -89.44 2253.56 C-85.17 2272.18, -74.03 2283.29, -64.68 2287 C-55.33 2290.72, -39.72 2283.22, -33.34 2275.85 C-26.96 2268.48, -27.85 2266.43, -26.38 2242.78 C-24.92 2219.13, -26.02 2178.2, -24.57 2133.95 C-23.13 2089.7, -19.89 2041.28, -17.72 1977.28 C-15.56 1913.28, -15.35 1826.51, -11.57 1749.93 C-7.79 1673.35, 0.72 1571.63, 4.94 1517.81 C9.17 1463.98, 7.59 1450.18, 13.79 1426.96 C20 1403.74, 28.36 1400.51, 42.19 1378.48 C56.02 1356.46, 78.85 1322.87, 96.76 1294.8 C114.66 1266.73, 134.55 1241.65, 149.63 1210.07 C164.71 1178.5, 177.59 1134.47, 187.21 1105.35 C196.83 1076.24, 201.59 1058.36, 207.34 1035.37 C213.1 1012.38, 217.43 995.63, 221.74 967.42 C226.04 939.22, 231.35 900, 233.18 866.11 C235.01 832.22, 234.75 794.91, 232.71 764.09 C230.68 733.27, 227.02 711.03, 220.97 681.21 C214.92 651.4, 206.13 619.8, 196.39 585.2 C186.65 550.6, 178.39 511.95, 162.54 473.62 C146.68 435.29, 120.03 388, 101.26 355.22 C82.49 322.44, 63.8 297.07, 49.92 276.96 C36.04 256.85, 24.48 246.17, 17.99 234.54 C11.51 222.92, 13.13 228.46, 11.02 207.19 C8.9 185.92, 7.14 141.47, 5.31 106.93 C3.47 72.4, 0.88 17.82, 0 0 M0 0 C-1.94 -41.34, -7.68 -173.56, -11.67 -248.07 C-15.66 -322.58, -21.13 -388.23, -23.92 -447.06 C-26.71 -505.88, -23.42 -570.71, -28.4 -601.02 C-33.37 -631.32, -44.85 -626.68, -53.76 -628.89 C-62.67 -631.09, -77.08 -630.02, -81.85 -614.25 C-86.63 -598.48, -82.16 -570.62, -82.4 -534.29 C-82.64 -497.96, -83.86 -448.8, -83.3 -396.27 C-82.74 -343.75, -81.23 -279.18, -79.02 -219.15 C-76.82 -159.12, -72.98 -94.47, -70.09 -36.1 C-67.2 22.28, -64.53 87.79, -61.67 131.1 C-58.81 174.41, -57.42 200.11, -52.94 223.77 C-48.46 247.43, -46.51 253.77, -34.81 273.06 C-23.11 292.35, -1.03 312.97, 17.27 339.5 C35.56 366.03, 57.35 397.72, 74.97 432.21 C92.59 466.71, 109.88 512.15, 122.96 546.47 C136.04 580.8, 145.99 605.92, 153.46 638.15 C160.93 670.38, 165.18 702.42, 167.77 739.85 C170.36 777.28, 169.79 823.73, 169 862.76 C168.21 901.79, 167.66 937.65, 163.03 974.03 C158.4 1010.4, 153.66 1044.75, 141.21 1081 C128.77 1117.24, 105.42 1158.5, 88.36 1191.51 C71.31 1224.53, 55.93 1253.15, 38.88 1279.09 C21.83 1305.02, -0.38 1328.22, -13.92 1347.11 C-27.46 1366, -35.73 1374.76, -42.38 1392.44 C-49.02 1410.12, -51.02 1430.55, -53.78 1453.17 C-56.53 1475.8, -56.2 1491.37, -58.88 1528.19 C-61.56 1565.01, -66.97 1624.47, -69.86 1674.1 C-72.76 1723.73, -73.87 1773.18, -76.24 1825.97 C-78.61 1878.76, -81.74 1932.65, -84.08 1990.86 C-86.42 2049.08, -89.37 2131.47, -90.26 2175.26 C-91.16 2219.04, -93.7 2234.93, -89.44 2253.56 C-85.17 2272.18, -74.03 2283.29, -64.68 2287 C-55.33 2290.72, -39.72 2283.22, -33.34 2275.85 C-26.96 2268.48, -27.85 2266.43, -26.38 2242.78 C-24.92 2219.13, -26.02 2178.2, -24.57 2133.95 C-23.13 2089.7, -19.89 2041.28, -17.72 1977.28 C-15.56 1913.28, -15.35 1826.51, -11.57 1749.93 C-7.79 1673.35, 0.72 1571.63, 4.94 1517.81 C9.17 1463.98, 7.59 1450.18, 13.79 1426.96 C20 1403.74, 28.36 1400.51, 42.19 1378.48 C56.02 1356.46, 78.85 1322.87, 96.76 1294.8 C114.66 1266.73, 134.55 1241.65, 149.63 1210.07 C164.71 1178.5, 177.59 1134.47, 187.21 1105.35 C196.83 1076.24, 201.59 1058.36, 207.34 1035.37 C213.1 1012.38, 217.43 995.63, 221.74 967.42 C226.04 939.22, 231.35 900, 233.18 866.11 C235.01 832.22, 234.75 794.91, 232.71 764.09 C230.68 733.27, 227.02 711.03, 220.97 681.21 C214.92 651.4, 206.13 619.8, 196.39 585.2 C186.65 550.6, 178.39 511.95, 162.54 473.62 C146.68 435.29, 120.03 388, 101.26 355.22 C82.49 322.44, 63.8 297.07, 49.92 276.96 C36.04 256.85, 24.48 246.17, 17.99 234.54 C11.51 222.92, 13.13 228.46, 11.02 207.19 C8.9 185.92, 7.14 141.47, 5.31 106.93 C3.47 72.4, 0.88 17.82, 0 0" stroke="#E1E1E1" stroke-width="2" fill="none"></path></g></g><mask></mask><g stroke-linecap="round"><g transform="translate(1676.1077339293042 2287.3107889816124) rotate(0 147.1403734261362 -814.5971791662269)" fill-rule="evenodd"><path d="M0 0 C2.29 -18.3, 8.42 -87.47, 13.74 -109.78 C19.06 -132.09, 20.26 -121.64, 31.92 -133.85 C43.58 -146.05, 60.57 -161.88, 83.68 -183.01 C106.8 -204.15, 143.51 -233.23, 170.59 -260.64 C197.68 -288.05, 222.51 -316.04, 246.19 -347.47 C269.86 -378.91, 292.58 -412.11, 312.64 -449.24 C332.7 -486.36, 353.01 -529.96, 366.54 -570.21 C380.08 -610.47, 387.95 -648.19, 393.86 -690.78 C399.77 -733.38, 402.92 -781.08, 402 -825.78 C401.09 -870.48, 395.29 -919.04, 388.37 -958.96 C381.45 -998.89, 373.64 -1027.9, 360.48 -1065.33 C347.32 -1102.75, 330.46 -1145, 309.39 -1183.52 C288.32 -1222.03, 259.6 -1262.99, 234.06 -1296.41 C208.51 -1329.83, 181.85 -1357.27, 156.13 -1384.02 C130.41 -1410.76, 98.44 -1439.07, 79.76 -1456.88 C61.09 -1474.69, 54.24 -1480.38, 44.09 -1490.89 C33.94 -1501.41, 24.5 -1507.59, 18.88 -1519.98 C13.26 -1532.36, 13.61 -1534.4, 10.38 -1565.19 C7.16 -1595.98, 3.87 -1654.6, -0.48 -1704.71 C-4.84 -1754.83, -11.22 -1813.27, -15.76 -1865.88 C-20.29 -1918.48, -24.14 -1970.38, -27.7 -2020.33 C-31.26 -2070.28, -35.08 -2128.69, -37.12 -2165.57 C-39.16 -2202.46, -34.92 -2224.83, -39.94 -2241.63 C-44.96 -2258.43, -57.18 -2263.94, -67.24 -2266.38 C-77.3 -2268.83, -93.63 -2266.4, -100.3 -2256.3 C-106.97 -2246.19, -106.72 -2237.78, -107.24 -2205.77 C-107.77 -2173.75, -105.73 -2112.53, -103.44 -2064.22 C-101.14 -2015.9, -97.77 -1970.84, -93.47 -1915.87 C-89.17 -1860.9, -82.89 -1792.38, -77.63 -1734.39 C-72.37 -1676.41, -66.62 -1607.6, -61.92 -1567.94 C-57.22 -1528.27, -59.33 -1517.24, -49.45 -1496.41 C-39.57 -1475.57, -22.18 -1463.01, -2.63 -1442.95 C16.93 -1422.89, 42.31 -1400.94, 67.86 -1376.05 C93.41 -1351.16, 124.59 -1322.84, 150.7 -1293.61 C176.81 -1264.37, 202.19 -1233.91, 224.52 -1200.66 C246.85 -1167.41, 267.91 -1136.79, 284.68 -1094.08 C301.45 -1051.37, 316.71 -993.54, 325.14 -944.4 C333.56 -895.26, 334.98 -845.79, 335.21 -799.25 C335.45 -752.7, 336.82 -712.17, 326.53 -665.12 C316.25 -618.08, 295.89 -562.98, 273.48 -516.96 C251.07 -470.94, 224.21 -430.35, 192.07 -389 C159.94 -347.66, 112.11 -301.36, 80.67 -268.88 C49.24 -236.4, 22.56 -212.62, 3.46 -194.12 C-15.64 -175.61, -24.97 -169.88, -33.92 -157.85 C-42.86 -145.83, -46.39 -140.78, -50.23 -121.97 C-54.08 -103.16, -52.86 -81.41, -56.99 -45.02 C-61.12 -8.62, -70.2 44.85, -75.02 96.4 C-79.83 147.95, -82.4 212.59, -85.87 264.3 C-89.35 316.01, -92.67 361.05, -95.88 406.67 C-99.08 452.28, -103.13 503.58, -105.11 538 C-107.08 572.41, -111.87 596.62, -107.72 613.15 C-103.57 629.68, -89.54 634.16, -80.19 637.19 C-70.84 640.22, -58.31 637.25, -51.63 631.3 C-44.95 625.36, -43.61 630.84, -40.12 601.53 C-36.62 572.21, -35.5 518.85, -30.66 455.42 C-25.81 392, -16.17 296.89, -11.06 220.99 C-5.95 145.08, -1.84 36.83, 0 0" stroke="none" stroke-width="0" fill="#e1e1e1" fill-rule="evenodd"></path><path d="M0 0 C2.29 -18.3, 8.42 -87.47, 13.74 -109.78 C19.06 -132.09, 20.26 -121.64, 31.92 -133.85 C43.58 -146.05, 60.57 -161.88, 83.68 -183.01 C106.8 -204.15, 143.51 -233.23, 170.59 -260.64 C197.68 -288.05, 222.51 -316.04, 246.19 -347.47 C269.86 -378.91, 292.58 -412.11, 312.64 -449.24 C332.7 -486.36, 353.01 -529.96, 366.54 -570.21 C380.08 -610.47, 387.95 -648.19, 393.86 -690.78 C399.77 -733.38, 402.92 -781.08, 402 -825.78 C401.09 -870.48, 395.29 -919.04, 388.37 -958.96 C381.45 -998.89, 373.64 -1027.9, 360.48 -1065.33 C347.32 -1102.75, 330.46 -1145, 309.39 -1183.52 C288.32 -1222.03, 259.6 -1262.99, 234.06 -1296.41 C208.51 -1329.83, 181.85 -1357.27, 156.13 -1384.02 C130.41 -1410.76, 98.44 -1439.07, 79.76 -1456.88 C61.09 -1474.69, 54.24 -1480.38, 44.09 -1490.89 C33.94 -1501.41, 24.5 -1507.59, 18.88 -1519.98 C13.26 -1532.36, 13.61 -1534.4, 10.38 -1565.19 C7.16 -1595.98, 3.87 -1654.6, -0.48 -1704.71 C-4.84 -1754.83, -11.22 -1813.27, -15.76 -1865.88 C-20.29 -1918.48, -24.14 -1970.38, -27.7 -2020.33 C-31.26 -2070.28, -35.08 -2128.69, -37.12 -2165.57 C-39.16 -2202.46, -34.92 -2224.83, -39.94 -2241.63 C-44.96 -2258.43, -57.18 -2263.94, -67.24 -2266.38 C-77.3 -2268.83, -93.63 -2266.4, -100.3 -2256.3 C-106.97 -2246.19, -106.72 -2237.78, -107.24 -2205.77 C-107.77 -2173.75, -105.73 -2112.53, -103.44 -2064.22 C-101.14 -2015.9, -97.77 -1970.84, -93.47 -1915.87 C-89.17 -1860.9, -82.89 -1792.38, -77.63 -1734.39 C-72.37 -1676.41, -66.62 -1607.6, -61.92 -1567.94 C-57.22 -1528.27, -59.33 -1517.24, -49.45 -1496.41 C-39.57 -1475.57, -22.18 -1463.01, -2.63 -1442.95 C16.93 -1422.89, 42.31 -1400.94, 67.86 -1376.05 C93.41 -1351.16, 124.59 -1322.84, 150.7 -1293.61 C176.81 -1264.37, 202.19 -1233.91, 224.52 -1200.66 C246.85 -1167.41, 267.91 -1136.79, 284.68 -1094.08 C301.45 -1051.37, 316.71 -993.54, 325.14 -944.4 C333.56 -895.26, 334.98 -845.79, 335.21 -799.25 C335.45 -752.7, 336.82 -712.17, 326.53 -665.12 C316.25 -618.08, 295.89 -562.98, 273.48 -516.96 C251.07 -470.94, 224.21 -430.35, 192.07 -389 C159.94 -347.66, 112.11 -301.36, 80.67 -268.88 C49.24 -236.4, 22.56 -212.62, 3.46 -194.12 C-15.64 -175.61, -24.97 -169.88, -33.92 -157.85 C-42.86 -145.83, -46.39 -140.78, -50.23 -121.97 C-54.08 -103.16, -52.86 -81.41, -56.99 -45.02 C-61.12 -8.62, -70.2 44.85, -75.02 96.4 C-79.83 147.95, -82.4 212.59, -85.87 264.3 C-89.35 316.01, -92.67 361.05, -95.88 406.67 C-99.08 452.28, -103.13 503.58, -105.11 538 C-107.08 572.41, -111.87 596.62, -107.72 613.15 C-103.57 629.68, -89.54 634.16, -80.19 637.19 C-70.84 640.22, -58.31 637.25, -51.63 631.3 C-44.95 625.36, -43.61 630.84, -40.12 601.53 C-36.62 572.21, -35.5 518.85, -30.66 455.42 C-25.81 392, -16.17 296.89, -11.06 220.99 C-5.95 145.08, -1.84 36.83, 0 0 M0 0 C2.29 -18.3, 8.42 -87.47, 13.74 -109.78 C19.06 -132.09, 20.26 -121.64, 31.92 -133.85 C43.58 -146.05, 60.57 -161.88, 83.68 -183.01 C106.8 -204.15, 143.51 -233.23, 170.59 -260.64 C197.68 -288.05, 222.51 -316.04, 246.19 -347.47 C269.86 -378.91, 292.58 -412.11, 312.64 -449.24 C332.7 -486.36, 353.01 -529.96, 366.54 -570.21 C380.08 -610.47, 387.95 -648.19, 393.86 -690.78 C399.77 -733.38, 402.92 -781.08, 402 -825.78 C401.09 -870.48, 395.29 -919.04, 388.37 -958.96 C381.45 -998.89, 373.64 -1027.9, 360.48 -1065.33 C347.32 -1102.75, 330.46 -1145, 309.39 -1183.52 C288.32 -1222.03, 259.6 -1262.99, 234.06 -1296.41 C208.51 -1329.83, 181.85 -1357.27, 156.13 -1384.02 C130.41 -1410.76, 98.44 -1439.07, 79.76 -1456.88 C61.09 -1474.69, 54.24 -1480.38, 44.09 -1490.89 C33.94 -1501.41, 24.5 -1507.59, 18.88 -1519.98 C13.26 -1532.36, 13.61 -1534.4, 10.38 -1565.19 C7.16 -1595.98, 3.87 -1654.6, -0.48 -1704.71 C-4.84 -1754.83, -11.22 -1813.27, -15.76 -1865.88 C-20.29 -1918.48, -24.14 -1970.38, -27.7 -2020.33 C-31.26 -2070.28, -35.08 -2128.69, -37.12 -2165.57 C-39.16 -2202.46, -34.92 -2224.83, -39.94 -2241.63 C-44.96 -2258.43, -57.18 -2263.94, -67.24 -2266.38 C-77.3 -2268.83, -93.63 -2266.4, -100.3 -2256.3 C-106.97 -2246.19, -106.72 -2237.78, -107.24 -2205.77 C-107.77 -2173.75, -105.73 -2112.53, -103.44 -2064.22 C-101.14 -2015.9, -97.77 -1970.84, -93.47 -1915.87 C-89.17 -1860.9, -82.89 -1792.38, -77.63 -1734.39 C-72.37 -1676.41, -66.62 -1607.6, -61.92 -1567.94 C-57.22 -1528.27, -59.33 -1517.24, -49.45 -1496.41 C-39.57 -1475.57, -22.18 -1463.01, -2.63 -1442.95 C16.93 -1422.89, 42.31 -1400.94, 67.86 -1376.05 C93.41 -1351.16, 124.59 -1322.84, 150.7 -1293.61 C176.81 -1264.37, 202.19 -1233.91, 224.52 -1200.66 C246.85 -1167.41, 267.91 -1136.79, 284.68 -1094.08 C301.45 -1051.37, 316.71 -993.54, 325.14 -944.4 C333.56 -895.26, 334.98 -845.79, 335.21 -799.25 C335.45 -752.7, 336.82 -712.17, 326.53 -665.12 C316.25 -618.08, 295.89 -562.98, 273.48 -516.96 C251.07 -470.94, 224.21 -430.35, 192.07 -389 C159.94 -347.66, 112.11 -301.36, 80.67 -268.88 C49.24 -236.4, 22.56 -212.62, 3.46 -194.12 C-15.64 -175.61, -24.97 -169.88, -33.92 -157.85 C-42.86 -145.83, -46.39 -140.78, -50.23 -121.97 C-54.08 -103.16, -52.86 -81.41, -56.99 -45.02 C-61.12 -8.62, -70.2 44.85, -75.02 96.4 C-79.83 147.95, -82.4 212.59, -85.87 264.3 C-89.35 316.01, -92.67 361.05, -95.88 406.67 C-99.08 452.28, -103.13 503.58, -105.11 538 C-107.08 572.41, -111.87 596.62, -107.72 613.15 C-103.57 629.68, -89.54 634.16, -80.19 637.19 C-70.84 640.22, -58.31 637.25, -51.63 631.3 C-44.95 625.36, -43.61 630.84, -40.12 601.53 C-36.62 572.21, -35.5 518.85, -30.66 455.42 C-25.81 392, -16.17 296.89, -11.06 220.99 C-5.95 145.08, -1.84 36.83, 0 0" stroke="#E1E1E1" stroke-width="2" fill="none"></path></g></g><mask></mask><g stroke-linecap="round"><g transform="translate(778.1467320348174 751.8244966228808) rotate(180 9.238310884063594 730.4955439231696)" fill-rule="evenodd"><path d="M0 0 C0 -49.13, 0 -204.78, 0 -294.77 C0 -384.77, 0 -477.25, 0 -539.98 C0 -602.7, 0.01 -643.26, 0 -671.13 C-0.01 -698.99, 2.42 -698.67, -0.08 -707.15 C-2.58 -715.64, -8.15 -720.01, -15.01 -722.04 C-21.88 -724.07, -33.55 -722.55, -41.28 -719.32 C-49 -716.09, -57.43 -712.93, -61.37 -702.64 C-65.32 -692.35, -64.36 -696.8, -64.96 -657.57 C-65.56 -618.35, -64.96 -585.62, -64.96 -467.3 C-64.96 -348.97, -64.96 -64.08, -64.96 52.38 C-64.96 168.85, -66.43 185.31, -64.96 231.48 C-63.49 277.66, -59.03 301.95, -56.15 329.41 C-53.27 356.87, -52.14 375.79, -47.7 396.25 C-43.25 416.7, -37.39 430.42, -29.48 452.15 C-21.56 473.88, -7.92 503.18, -0.18 526.63 C7.55 550.08, 12.48 571.86, 16.92 592.87 C21.36 613.88, 24.73 626.97, 26.48 652.71 C28.23 678.45, 27.18 719.34, 27.44 747.33 C27.7 775.32, 28.66 801.06, 28.04 820.66 C27.41 840.27, 27.12 848.38, 23.7 864.96 C20.28 881.54, 14.37 899.17, 7.51 920.13 C0.66 941.09, -9 970.33, -17.44 990.7 C-25.87 1011.07, -36.21 1022.84, -43.1 1042.37 C-49.99 1061.9, -55.07 1080.18, -58.78 1107.9 C-62.5 1135.63, -64.19 1169.74, -65.41 1208.72 C-66.63 1247.71, -65.65 1294.08, -66.09 1341.8 C-66.54 1389.52, -68 1443.88, -68.09 1495.02 C-68.19 1546.17, -67.27 1594.89, -66.64 1648.67 C-66.02 1702.44, -65.01 1759, -64.34 1817.67 C-63.68 1876.33, -62.72 1952.75, -62.65 2000.64 C-62.57 2048.54, -63.86 2078.54, -63.91 2105.03 C-63.97 2131.52, -68.1 2146.58, -62.97 2159.58 C-57.84 2172.58, -43.65 2181.3, -33.15 2183.03 C-22.64 2184.76, -6.22 2181.27, 0.08 2169.96 C6.37 2158.65, 4.32 2152.97, 4.64 2115.16 C4.95 2077.35, 2.44 2022.03, 1.96 1943.1 C1.48 1864.17, 2.22 1727.04, 1.75 1641.58 C1.28 1556.11, -0.82 1490.46, -0.85 1430.29 C-0.88 1370.13, 0.28 1326.82, 1.56 1280.58 C2.84 1234.34, 4.82 1187.75, 6.83 1152.83 C8.83 1117.92, 8.81 1093.15, 13.61 1071.1 C18.42 1049.04, 28.06 1038.31, 35.65 1020.5 C43.24 1002.68, 51.25 990.34, 59.15 964.21 C67.06 938.07, 78.51 902.68, 83.08 863.69 C87.65 824.7, 86.75 774.58, 86.57 730.27 C86.39 685.96, 86.7 636.2, 81.99 597.81 C77.28 559.42, 66.77 527.67, 58.31 499.92 C49.84 472.17, 38.07 446.38, 31.2 431.32 C24.33 416.27, 20.62 418.47, 17.07 409.6 C13.51 400.73, 11.66 393.2, 9.88 378.11 C8.1 363.01, 7.3 347.49, 6.36 319.04 C5.42 290.6, 5.3 260.6, 4.24 207.43 C3.18 154.25, 0.71 34.57, 0 0" stroke="none" stroke-width="0" fill="#e1e1e1" fill-rule="evenodd"></path><path d="M0 0 C0 -49.13, 0 -204.78, 0 -294.77 C0 -384.77, 0 -477.25, 0 -539.98 C0 -602.7, 0.01 -643.26, 0 -671.13 C-0.01 -698.99, 2.42 -698.67, -0.08 -707.15 C-2.58 -715.64, -8.15 -720.01, -15.01 -722.04 C-21.88 -724.07, -33.55 -722.55, -41.28 -719.32 C-49 -716.09, -57.43 -712.93, -61.37 -702.64 C-65.32 -692.35, -64.36 -696.8, -64.96 -657.57 C-65.56 -618.35, -64.96 -585.62, -64.96 -467.3 C-64.96 -348.97, -64.96 -64.08, -64.96 52.38 C-64.96 168.85, -66.43 185.31, -64.96 231.48 C-63.49 277.66, -59.03 301.95, -56.15 329.41 C-53.27 356.87, -52.14 375.79, -47.7 396.25 C-43.25 416.7, -37.39 430.42, -29.48 452.15 C-21.56 473.88, -7.92 503.18, -0.18 526.63 C7.55 550.08, 12.48 571.86, 16.92 592.87 C21.36 613.88, 24.73 626.97, 26.48 652.71 C28.23 678.45, 27.18 719.34, 27.44 747.33 C27.7 775.32, 28.66 801.06, 28.04 820.66 C27.41 840.27, 27.12 848.38, 23.7 864.96 C20.28 881.54, 14.37 899.17, 7.51 920.13 C0.66 941.09, -9 970.33, -17.44 990.7 C-25.87 1011.07, -36.21 1022.84, -43.1 1042.37 C-49.99 1061.9, -55.07 1080.18, -58.78 1107.9 C-62.5 1135.63, -64.19 1169.74, -65.41 1208.72 C-66.63 1247.71, -65.65 1294.08, -66.09 1341.8 C-66.54 1389.52, -68 1443.88, -68.09 1495.02 C-68.19 1546.17, -67.27 1594.89, -66.64 1648.67 C-66.02 1702.44, -65.01 1759, -64.34 1817.67 C-63.68 1876.33, -62.72 1952.75, -62.65 2000.64 C-62.57 2048.54, -63.86 2078.54, -63.91 2105.03 C-63.97 2131.52, -68.1 2146.58, -62.97 2159.58 C-57.84 2172.58, -43.65 2181.3, -33.15 2183.03 C-22.64 2184.76, -6.22 2181.27, 0.08 2169.96 C6.37 2158.65, 4.32 2152.97, 4.64 2115.16 C4.95 2077.35, 2.44 2022.03, 1.96 1943.1 C1.48 1864.17, 2.22 1727.04, 1.75 1641.58 C1.28 1556.11, -0.82 1490.46, -0.85 1430.29 C-0.88 1370.13, 0.28 1326.82, 1.56 1280.58 C2.84 1234.34, 4.82 1187.75, 6.83 1152.83 C8.83 1117.92, 8.81 1093.15, 13.61 1071.1 C18.42 1049.04, 28.06 1038.31, 35.65 1020.5 C43.24 1002.68, 51.25 990.34, 59.15 964.21 C67.06 938.07, 78.51 902.68, 83.08 863.69 C87.65 824.7, 86.75 774.58, 86.57 730.27 C86.39 685.96, 86.7 636.2, 81.99 597.81 C77.28 559.42, 66.77 527.67, 58.31 499.92 C49.84 472.17, 38.07 446.38, 31.2 431.32 C24.33 416.27, 20.62 418.47, 17.07 409.6 C13.51 400.73, 11.66 393.2, 9.88 378.11 C8.1 363.01, 7.3 347.49, 6.36 319.04 C5.42 290.6, 5.3 260.6, 4.24 207.43 C3.18 154.25, 0.71 34.57, 0 0 M0 0 C0 -49.13, 0 -204.78, 0 -294.77 C0 -384.77, 0 -477.25, 0 -539.98 C0 -602.7, 0.01 -643.26, 0 -671.13 C-0.01 -698.99, 2.42 -698.67, -0.08 -707.15 C-2.58 -715.64, -8.15 -720.01, -15.01 -722.04 C-21.88 -724.07, -33.55 -722.55, -41.28 -719.32 C-49 -716.09, -57.43 -712.93, -61.37 -702.64 C-65.32 -692.35, -64.36 -696.8, -64.96 -657.57 C-65.56 -618.35, -64.96 -585.62, -64.96 -467.3 C-64.96 -348.97, -64.96 -64.08, -64.96 52.38 C-64.96 168.85, -66.43 185.31, -64.96 231.48 C-63.49 277.66, -59.03 301.95, -56.15 329.41 C-53.27 356.87, -52.14 375.79, -47.7 396.25 C-43.25 416.7, -37.39 430.42, -29.48 452.15 C-21.56 473.88, -7.92 503.18, -0.18 526.63 C7.55 550.08, 12.48 571.86, 16.92 592.87 C21.36 613.88, 24.73 626.97, 26.48 652.71 C28.23 678.45, 27.18 719.34, 27.44 747.33 C27.7 775.32, 28.66 801.06, 28.04 820.66 C27.41 840.27, 27.12 848.38, 23.7 864.96 C20.28 881.54, 14.37 899.17, 7.51 920.13 C0.66 941.09, -9 970.33, -17.44 990.7 C-25.87 1011.07, -36.21 1022.84, -43.1 1042.37 C-49.99 1061.9, -55.07 1080.18, -58.78 1107.9 C-62.5 1135.63, -64.19 1169.74, -65.41 1208.72 C-66.63 1247.71, -65.65 1294.08, -66.09 1341.8 C-66.54 1389.52, -68 1443.88, -68.09 1495.02 C-68.19 1546.17, -67.27 1594.89, -66.64 1648.67 C-66.02 1702.44, -65.01 1759, -64.34 1817.67 C-63.68 1876.33, -62.72 1952.75, -62.65 2000.64 C-62.57 2048.54, -63.86 2078.54, -63.91 2105.03 C-63.97 2131.52, -68.1 2146.58, -62.97 2159.58 C-57.84 2172.58, -43.65 2181.3, -33.15 2183.03 C-22.64 2184.76, -6.22 2181.27, 0.08 2169.96 C6.37 2158.65, 4.32 2152.97, 4.64 2115.16 C4.95 2077.35, 2.44 2022.03, 1.96 1943.1 C1.48 1864.17, 2.22 1727.04, 1.75 1641.58 C1.28 1556.11, -0.82 1490.46, -0.85 1430.29 C-0.88 1370.13, 0.28 1326.82, 1.56 1280.58 C2.84 1234.34, 4.82 1187.75, 6.83 1152.83 C8.83 1117.92, 8.81 1093.15, 13.61 1071.1 C18.42 1049.04, 28.06 1038.31, 35.65 1020.5 C43.24 1002.68, 51.25 990.34, 59.15 964.21 C67.06 938.07, 78.51 902.68, 83.08 863.69 C87.65 824.7, 86.75 774.58, 86.57 730.27 C86.39 685.96, 86.7 636.2, 81.99 597.81 C77.28 559.42, 66.77 527.67, 58.31 499.92 C49.84 472.17, 38.07 446.38, 31.2 431.32 C24.33 416.27, 20.62 418.47, 17.07 409.6 C13.51 400.73, 11.66 393.2, 9.88 378.11 C8.1 363.01, 7.3 347.49, 6.36 319.04 C5.42 290.6, 5.3 260.6, 4.24 207.43 C3.18 154.25, 0.71 34.57, 0 0" stroke="#E1E1E1" stroke-width="2" fill="none"></path></g></g><mask></mask><g stroke-linecap="round"><g transform="translate(882.7663142117744 644.6677831554066) rotate(180 71.45898310405619 829.0577568124113)" fill-rule="evenodd"><path d="M0 0 C-1.94 -41.34, -7.68 -173.56, -11.67 -248.07 C-15.66 -322.58, -21.13 -388.23, -23.92 -447.06 C-26.71 -505.88, -23.42 -570.71, -28.4 -601.02 C-33.37 -631.32, -44.85 -626.68, -53.76 -628.89 C-62.67 -631.09, -77.08 -630.02, -81.85 -614.25 C-86.63 -598.48, -82.16 -570.62, -82.4 -534.29 C-82.64 -497.96, -83.86 -448.8, -83.3 -396.27 C-82.74 -343.75, -81.23 -279.18, -79.02 -219.15 C-76.82 -159.12, -72.98 -94.47, -70.09 -36.1 C-67.2 22.28, -64.53 87.79, -61.67 131.1 C-58.81 174.41, -57.42 200.11, -52.94 223.77 C-48.46 247.43, -46.51 253.77, -34.81 273.06 C-23.11 292.35, -1.03 312.97, 17.27 339.5 C35.56 366.03, 57.35 397.72, 74.97 432.21 C92.59 466.71, 109.88 512.15, 122.96 546.47 C136.04 580.8, 145.99 605.92, 153.46 638.15 C160.93 670.38, 165.18 702.42, 167.77 739.85 C170.36 777.28, 169.79 823.73, 169 862.76 C168.21 901.79, 167.66 937.65, 163.03 974.03 C158.4 1010.4, 153.66 1044.75, 141.21 1081 C128.77 1117.24, 105.42 1158.5, 88.36 1191.51 C71.31 1224.53, 55.93 1253.15, 38.88 1279.09 C21.83 1305.02, -0.38 1328.22, -13.92 1347.11 C-27.46 1366, -35.73 1374.76, -42.38 1392.44 C-49.02 1410.12, -51.02 1430.55, -53.78 1453.17 C-56.53 1475.8, -56.2 1491.37, -58.88 1528.19 C-61.56 1565.01, -66.97 1624.47, -69.86 1674.1 C-72.76 1723.73, -73.87 1773.18, -76.24 1825.97 C-78.61 1878.76, -81.74 1932.65, -84.08 1990.86 C-86.42 2049.08, -89.37 2131.47, -90.26 2175.26 C-91.16 2219.04, -93.7 2234.93, -89.44 2253.56 C-85.17 2272.18, -74.03 2283.29, -64.68 2287 C-55.33 2290.72, -39.72 2283.22, -33.34 2275.85 C-26.96 2268.48, -27.85 2266.43, -26.38 2242.78 C-24.92 2219.13, -26.02 2178.2, -24.57 2133.95 C-23.13 2089.7, -19.89 2041.28, -17.72 1977.28 C-15.56 1913.28, -15.35 1826.51, -11.57 1749.93 C-7.79 1673.35, 0.72 1571.63, 4.94 1517.81 C9.17 1463.98, 7.59 1450.18, 13.79 1426.96 C20 1403.74, 28.36 1400.51, 42.19 1378.48 C56.02 1356.46, 78.85 1322.87, 96.76 1294.8 C114.66 1266.73, 134.55 1241.65, 149.63 1210.07 C164.71 1178.5, 177.59 1134.47, 187.21 1105.35 C196.83 1076.24, 201.59 1058.36, 207.34 1035.37 C213.1 1012.38, 217.43 995.63, 221.74 967.42 C226.04 939.22, 231.35 900, 233.18 866.11 C235.01 832.22, 234.75 794.91, 232.71 764.09 C230.68 733.27, 227.02 711.03, 220.97 681.21 C214.92 651.4, 206.13 619.8, 196.39 585.2 C186.65 550.6, 178.39 511.95, 162.54 473.62 C146.68 435.29, 120.03 388, 101.26 355.22 C82.49 322.44, 63.8 297.07, 49.92 276.96 C36.04 256.85, 24.48 246.17, 17.99 234.54 C11.51 222.92, 13.13 228.46, 11.02 207.19 C8.9 185.92, 7.14 141.47, 5.31 106.93 C3.47 72.4, 0.88 17.82, 0 0" stroke="none" stroke-width="0" fill="#e1e1e1" fill-rule="evenodd"></path><path d="M0 0 C-1.94 -41.34, -7.68 -173.56, -11.67 -248.07 C-15.66 -322.58, -21.13 -388.23, -23.92 -447.06 C-26.71 -505.88, -23.42 -570.71, -28.4 -601.02 C-33.37 -631.32, -44.85 -626.68, -53.76 -628.89 C-62.67 -631.09, -77.08 -630.02, -81.85 -614.25 C-86.63 -598.48, -82.16 -570.62, -82.4 -534.29 C-82.64 -497.96, -83.86 -448.8, -83.3 -396.27 C-82.74 -343.75, -81.23 -279.18, -79.02 -219.15 C-76.82 -159.12, -72.98 -94.47, -70.09 -36.1 C-67.2 22.28, -64.53 87.79, -61.67 131.1 C-58.81 174.41, -57.42 200.11, -52.94 223.77 C-48.46 247.43, -46.51 253.77, -34.81 273.06 C-23.11 292.35, -1.03 312.97, 17.27 339.5 C35.56 366.03, 57.35 397.72, 74.97 432.21 C92.59 466.71, 109.88 512.15, 122.96 546.47 C136.04 580.8, 145.99 605.92, 153.46 638.15 C160.93 670.38, 165.18 702.42, 167.77 739.85 C170.36 777.28, 169.79 823.73, 169 862.76 C168.21 901.79, 167.66 937.65, 163.03 974.03 C158.4 1010.4, 153.66 1044.75, 141.21 1081 C128.77 1117.24, 105.42 1158.5, 88.36 1191.51 C71.31 1224.53, 55.93 1253.15, 38.88 1279.09 C21.83 1305.02, -0.38 1328.22, -13.92 1347.11 C-27.46 1366, -35.73 1374.76, -42.38 1392.44 C-49.02 1410.12, -51.02 1430.55, -53.78 1453.17 C-56.53 1475.8, -56.2 1491.37, -58.88 1528.19 C-61.56 1565.01, -66.97 1624.47, -69.86 1674.1 C-72.76 1723.73, -73.87 1773.18, -76.24 1825.97 C-78.61 1878.76, -81.74 1932.65, -84.08 1990.86 C-86.42 2049.08, -89.37 2131.47, -90.26 2175.26 C-91.16 2219.04, -93.7 2234.93, -89.44 2253.56 C-85.17 2272.18, -74.03 2283.29, -64.68 2287 C-55.33 2290.72, -39.72 2283.22, -33.34 2275.85 C-26.96 2268.48, -27.85 2266.43, -26.38 2242.78 C-24.92 2219.13, -26.02 2178.2, -24.57 2133.95 C-23.13 2089.7, -19.89 2041.28, -17.72 1977.28 C-15.56 1913.28, -15.35 1826.51, -11.57 1749.93 C-7.79 1673.35, 0.72 1571.63, 4.94 1517.81 C9.17 1463.98, 7.59 1450.18, 13.79 1426.96 C20 1403.74, 28.36 1400.51, 42.19 1378.48 C56.02 1356.46, 78.85 1322.87, 96.76 1294.8 C114.66 1266.73, 134.55 1241.65, 149.63 1210.07 C164.71 1178.5, 177.59 1134.47, 187.21 1105.35 C196.83 1076.24, 201.59 1058.36, 207.34 1035.37 C213.1 1012.38, 217.43 995.63, 221.74 967.42 C226.04 939.22, 231.35 900, 233.18 866.11 C235.01 832.22, 234.75 794.91, 232.71 764.09 C230.68 733.27, 227.02 711.03, 220.97 681.21 C214.92 651.4, 206.13 619.8, 196.39 585.2 C186.65 550.6, 178.39 511.95, 162.54 473.62 C146.68 435.29, 120.03 388, 101.26 355.22 C82.49 322.44, 63.8 297.07, 49.92 276.96 C36.04 256.85, 24.48 246.17, 17.99 234.54 C11.51 222.92, 13.13 228.46, 11.02 207.19 C8.9 185.92, 7.14 141.47, 5.31 106.93 C3.47 72.4, 0.88 17.82, 0 0 M0 0 C-1.94 -41.34, -7.68 -173.56, -11.67 -248.07 C-15.66 -322.58, -21.13 -388.23, -23.92 -447.06 C-26.71 -505.88, -23.42 -570.71, -28.4 -601.02 C-33.37 -631.32, -44.85 -626.68, -53.76 -628.89 C-62.67 -631.09, -77.08 -630.02, -81.85 -614.25 C-86.63 -598.48, -82.16 -570.62, -82.4 -534.29 C-82.64 -497.96, -83.86 -448.8, -83.3 -396.27 C-82.74 -343.75, -81.23 -279.18, -79.02 -219.15 C-76.82 -159.12, -72.98 -94.47, -70.09 -36.1 C-67.2 22.28, -64.53 87.79, -61.67 131.1 C-58.81 174.41, -57.42 200.11, -52.94 223.77 C-48.46 247.43, -46.51 253.77, -34.81 273.06 C-23.11 292.35, -1.03 312.97, 17.27 339.5 C35.56 366.03, 57.35 397.72, 74.97 432.21 C92.59 466.71, 109.88 512.15, 122.96 546.47 C136.04 580.8, 145.99 605.92, 153.46 638.15 C160.93 670.38, 165.18 702.42, 167.77 739.85 C170.36 777.28, 169.79 823.73, 169 862.76 C168.21 901.79, 167.66 937.65, 163.03 974.03 C158.4 1010.4, 153.66 1044.75, 141.21 1081 C128.77 1117.24, 105.42 1158.5, 88.36 1191.51 C71.31 1224.53, 55.93 1253.15, 38.88 1279.09 C21.83 1305.02, -0.38 1328.22, -13.92 1347.11 C-27.46 1366, -35.73 1374.76, -42.38 1392.44 C-49.02 1410.12, -51.02 1430.55, -53.78 1453.17 C-56.53 1475.8, -56.2 1491.37, -58.88 1528.19 C-61.56 1565.01, -66.97 1624.47, -69.86 1674.1 C-72.76 1723.73, -73.87 1773.18, -76.24 1825.97 C-78.61 1878.76, -81.74 1932.65, -84.08 1990.86 C-86.42 2049.08, -89.37 2131.47, -90.26 2175.26 C-91.16 2219.04, -93.7 2234.93, -89.44 2253.56 C-85.17 2272.18, -74.03 2283.29, -64.68 2287 C-55.33 2290.72, -39.72 2283.22, -33.34 2275.85 C-26.96 2268.48, -27.85 2266.43, -26.38 2242.78 C-24.92 2219.13, -26.02 2178.2, -24.57 2133.95 C-23.13 2089.7, -19.89 2041.28, -17.72 1977.28 C-15.56 1913.28, -15.35 1826.51, -11.57 1749.93 C-7.79 1673.35, 0.72 1571.63, 4.94 1517.81 C9.17 1463.98, 7.59 1450.18, 13.79 1426.96 C20 1403.74, 28.36 1400.51, 42.19 1378.48 C56.02 1356.46, 78.85 1322.87, 96.76 1294.8 C114.66 1266.73, 134.55 1241.65, 149.63 1210.07 C164.71 1178.5, 177.59 1134.47, 187.21 1105.35 C196.83 1076.24, 201.59 1058.36, 207.34 1035.37 C213.1 1012.38, 217.43 995.63, 221.74 967.42 C226.04 939.22, 231.35 900, 233.18 866.11 C235.01 832.22, 234.75 794.91, 232.71 764.09 C230.68 733.27, 227.02 711.03, 220.97 681.21 C214.92 651.4, 206.13 619.8, 196.39 585.2 C186.65 550.6, 178.39 511.95, 162.54 473.62 C146.68 435.29, 120.03 388, 101.26 355.22 C82.49 322.44, 63.8 297.07, 49.92 276.96 C36.04 256.85, 24.48 246.17, 17.99 234.54 C11.51 222.92, 13.13 228.46, 11.02 207.19 C8.9 185.92, 7.14 141.47, 5.31 106.93 C3.47 72.4, 0.88 17.82, 0 0" stroke="#E1E1E1" stroke-width="2" fill="none"></path></g></g><mask></mask><g stroke-linecap="round"><g transform="translate(973.5049066937181 2290.0038661713743) rotate(180 147.1403734261362 -814.5971791662273)" fill-rule="evenodd"><path d="M0 0 C2.29 -18.3, 8.42 -87.47, 13.74 -109.78 C19.06 -132.09, 20.26 -121.64, 31.92 -133.85 C43.58 -146.05, 60.57 -161.88, 83.68 -183.01 C106.8 -204.15, 143.51 -233.23, 170.59 -260.64 C197.68 -288.05, 222.51 -316.04, 246.19 -347.47 C269.86 -378.91, 292.58 -412.11, 312.64 -449.24 C332.7 -486.36, 353.01 -529.96, 366.54 -570.21 C380.08 -610.47, 387.95 -648.19, 393.86 -690.78 C399.77 -733.38, 402.92 -781.08, 402 -825.78 C401.09 -870.48, 395.29 -919.04, 388.37 -958.96 C381.45 -998.89, 373.64 -1027.9, 360.48 -1065.33 C347.32 -1102.75, 330.46 -1145, 309.39 -1183.52 C288.32 -1222.03, 259.6 -1262.99, 234.06 -1296.41 C208.51 -1329.83, 181.85 -1357.27, 156.13 -1384.02 C130.41 -1410.76, 98.44 -1439.07, 79.76 -1456.88 C61.09 -1474.69, 54.24 -1480.38, 44.09 -1490.89 C33.94 -1501.41, 24.5 -1507.59, 18.88 -1519.98 C13.26 -1532.36, 13.61 -1534.4, 10.38 -1565.19 C7.16 -1595.98, 3.87 -1654.6, -0.48 -1704.71 C-4.84 -1754.83, -11.22 -1813.27, -15.76 -1865.88 C-20.29 -1918.48, -24.14 -1970.38, -27.7 -2020.33 C-31.26 -2070.28, -35.08 -2128.69, -37.12 -2165.57 C-39.16 -2202.46, -34.92 -2224.83, -39.94 -2241.63 C-44.96 -2258.43, -57.18 -2263.94, -67.24 -2266.38 C-77.3 -2268.83, -93.63 -2266.4, -100.3 -2256.3 C-106.97 -2246.19, -106.72 -2237.78, -107.24 -2205.77 C-107.77 -2173.75, -105.73 -2112.53, -103.44 -2064.22 C-101.14 -2015.9, -97.77 -1970.84, -93.47 -1915.87 C-89.17 -1860.9, -82.89 -1792.38, -77.63 -1734.39 C-72.37 -1676.41, -66.62 -1607.6, -61.92 -1567.94 C-57.22 -1528.27, -59.33 -1517.24, -49.45 -1496.41 C-39.57 -1475.57, -22.18 -1463.01, -2.63 -1442.95 C16.93 -1422.89, 42.31 -1400.94, 67.86 -1376.05 C93.41 -1351.16, 124.59 -1322.84, 150.7 -1293.61 C176.81 -1264.37, 202.19 -1233.91, 224.52 -1200.66 C246.85 -1167.41, 267.91 -1136.79, 284.68 -1094.08 C301.45 -1051.37, 316.71 -993.54, 325.14 -944.4 C333.56 -895.26, 334.98 -845.79, 335.21 -799.25 C335.45 -752.7, 336.82 -712.17, 326.53 -665.12 C316.25 -618.08, 295.89 -562.98, 273.48 -516.96 C251.07 -470.94, 224.21 -430.35, 192.07 -389 C159.94 -347.66, 112.11 -301.36, 80.67 -268.88 C49.24 -236.4, 22.56 -212.62, 3.46 -194.12 C-15.64 -175.61, -24.97 -169.88, -33.92 -157.85 C-42.86 -145.83, -46.39 -140.78, -50.23 -121.97 C-54.08 -103.16, -52.86 -81.41, -56.99 -45.02 C-61.12 -8.62, -70.2 44.85, -75.02 96.4 C-79.83 147.95, -82.4 212.59, -85.87 264.3 C-89.35 316.01, -92.67 361.05, -95.88 406.67 C-99.08 452.28, -103.13 503.58, -105.11 538 C-107.08 572.41, -111.87 596.62, -107.72 613.15 C-103.57 629.68, -89.54 634.16, -80.19 637.19 C-70.84 640.22, -58.31 637.25, -51.63 631.3 C-44.95 625.36, -43.61 630.84, -40.12 601.53 C-36.62 572.21, -35.5 518.85, -30.66 455.42 C-25.81 392, -16.17 296.89, -11.06 220.99 C-5.95 145.08, -1.84 36.83, 0 0" stroke="none" stroke-width="0" fill="#e1e1e1" fill-rule="evenodd"></path><path d="M0 0 C2.29 -18.3, 8.42 -87.47, 13.74 -109.78 C19.06 -132.09, 20.26 -121.64, 31.92 -133.85 C43.58 -146.05, 60.57 -161.88, 83.68 -183.01 C106.8 -204.15, 143.51 -233.23, 170.59 -260.64 C197.68 -288.05, 222.51 -316.04, 246.19 -347.47 C269.86 -378.91, 292.58 -412.11, 312.64 -449.24 C332.7 -486.36, 353.01 -529.96, 366.54 -570.21 C380.08 -610.47, 387.95 -648.19, 393.86 -690.78 C399.77 -733.38, 402.92 -781.08, 402 -825.78 C401.09 -870.48, 395.29 -919.04, 388.37 -958.96 C381.45 -998.89, 373.64 -1027.9, 360.48 -1065.33 C347.32 -1102.75, 330.46 -1145, 309.39 -1183.52 C288.32 -1222.03, 259.6 -1262.99, 234.06 -1296.41 C208.51 -1329.83, 181.85 -1357.27, 156.13 -1384.02 C130.41 -1410.76, 98.44 -1439.07, 79.76 -1456.88 C61.09 -1474.69, 54.24 -1480.38, 44.09 -1490.89 C33.94 -1501.41, 24.5 -1507.59, 18.88 -1519.98 C13.26 -1532.36, 13.61 -1534.4, 10.38 -1565.19 C7.16 -1595.98, 3.87 -1654.6, -0.48 -1704.71 C-4.84 -1754.83, -11.22 -1813.27, -15.76 -1865.88 C-20.29 -1918.48, -24.14 -1970.38, -27.7 -2020.33 C-31.26 -2070.28, -35.08 -2128.69, -37.12 -2165.57 C-39.16 -2202.46, -34.92 -2224.83, -39.94 -2241.63 C-44.96 -2258.43, -57.18 -2263.94, -67.24 -2266.38 C-77.3 -2268.83, -93.63 -2266.4, -100.3 -2256.3 C-106.97 -2246.19, -106.72 -2237.78, -107.24 -2205.77 C-107.77 -2173.75, -105.73 -2112.53, -103.44 -2064.22 C-101.14 -2015.9, -97.77 -1970.84, -93.47 -1915.87 C-89.17 -1860.9, -82.89 -1792.38, -77.63 -1734.39 C-72.37 -1676.41, -66.62 -1607.6, -61.92 -1567.94 C-57.22 -1528.27, -59.33 -1517.24, -49.45 -1496.41 C-39.57 -1475.57, -22.18 -1463.01, -2.63 -1442.95 C16.93 -1422.89, 42.31 -1400.94, 67.86 -1376.05 C93.41 -1351.16, 124.59 -1322.84, 150.7 -1293.61 C176.81 -1264.37, 202.19 -1233.91, 224.52 -1200.66 C246.85 -1167.41, 267.91 -1136.79, 284.68 -1094.08 C301.45 -1051.37, 316.71 -993.54, 325.14 -944.4 C333.56 -895.26, 334.98 -845.79, 335.21 -799.25 C335.45 -752.7, 336.82 -712.17, 326.53 -665.12 C316.25 -618.08, 295.89 -562.98, 273.48 -516.96 C251.07 -470.94, 224.21 -430.35, 192.07 -389 C159.94 -347.66, 112.11 -301.36, 80.67 -268.88 C49.24 -236.4, 22.56 -212.62, 3.46 -194.12 C-15.64 -175.61, -24.97 -169.88, -33.92 -157.85 C-42.86 -145.83, -46.39 -140.78, -50.23 -121.97 C-54.08 -103.16, -52.86 -81.41, -56.99 -45.02 C-61.12 -8.62, -70.2 44.85, -75.02 96.4 C-79.83 147.95, -82.4 212.59, -85.87 264.3 C-89.35 316.01, -92.67 361.05, -95.88 406.67 C-99.08 452.28, -103.13 503.58, -105.11 538 C-107.08 572.41, -111.87 596.62, -107.72 613.15 C-103.57 629.68, -89.54 634.16, -80.19 637.19 C-70.84 640.22, -58.31 637.25, -51.63 631.3 C-44.95 625.36, -43.61 630.84, -40.12 601.53 C-36.62 572.21, -35.5 518.85, -30.66 455.42 C-25.81 392, -16.17 296.89, -11.06 220.99 C-5.95 145.08, -1.84 36.83, 0 0 M0 0 C2.29 -18.3, 8.42 -87.47, 13.74 -109.78 C19.06 -132.09, 20.26 -121.64, 31.92 -133.85 C43.58 -146.05, 60.57 -161.88, 83.68 -183.01 C106.8 -204.15, 143.51 -233.23, 170.59 -260.64 C197.68 -288.05, 222.51 -316.04, 246.19 -347.47 C269.86 -378.91, 292.58 -412.11, 312.64 -449.24 C332.7 -486.36, 353.01 -529.96, 366.54 -570.21 C380.08 -610.47, 387.95 -648.19, 393.86 -690.78 C399.77 -733.38, 402.92 -781.08, 402 -825.78 C401.09 -870.48, 395.29 -919.04, 388.37 -958.96 C381.45 -998.89, 373.64 -1027.9, 360.48 -1065.33 C347.32 -1102.75, 330.46 -1145, 309.39 -1183.52 C288.32 -1222.03, 259.6 -1262.99, 234.06 -1296.41 C208.51 -1329.83, 181.85 -1357.27, 156.13 -1384.02 C130.41 -1410.76, 98.44 -1439.07, 79.76 -1456.88 C61.09 -1474.69, 54.24 -1480.38, 44.09 -1490.89 C33.94 -1501.41, 24.5 -1507.59, 18.88 -1519.98 C13.26 -1532.36, 13.61 -1534.4, 10.38 -1565.19 C7.16 -1595.98, 3.87 -1654.6, -0.48 -1704.71 C-4.84 -1754.83, -11.22 -1813.27, -15.76 -1865.88 C-20.29 -1918.48, -24.14 -1970.38, -27.7 -2020.33 C-31.26 -2070.28, -35.08 -2128.69, -37.12 -2165.57 C-39.16 -2202.46, -34.92 -2224.83, -39.94 -2241.63 C-44.96 -2258.43, -57.18 -2263.94, -67.24 -2266.38 C-77.3 -2268.83, -93.63 -2266.4, -100.3 -2256.3 C-106.97 -2246.19, -106.72 -2237.78, -107.24 -2205.77 C-107.77 -2173.75, -105.73 -2112.53, -103.44 -2064.22 C-101.14 -2015.9, -97.77 -1970.84, -93.47 -1915.87 C-89.17 -1860.9, -82.89 -1792.38, -77.63 -1734.39 C-72.37 -1676.41, -66.62 -1607.6, -61.92 -1567.94 C-57.22 -1528.27, -59.33 -1517.24, -49.45 -1496.41 C-39.57 -1475.57, -22.18 -1463.01, -2.63 -1442.95 C16.93 -1422.89, 42.31 -1400.94, 67.86 -1376.05 C93.41 -1351.16, 124.59 -1322.84, 150.7 -1293.61 C176.81 -1264.37, 202.19 -1233.91, 224.52 -1200.66 C246.85 -1167.41, 267.91 -1136.79, 284.68 -1094.08 C301.45 -1051.37, 316.71 -993.54, 325.14 -944.4 C333.56 -895.26, 334.98 -845.79, 335.21 -799.25 C335.45 -752.7, 336.82 -712.17, 326.53 -665.12 C316.25 -618.08, 295.89 -562.98, 273.48 -516.96 C251.07 -470.94, 224.21 -430.35, 192.07 -389 C159.94 -347.66, 112.11 -301.36, 80.67 -268.88 C49.24 -236.4, 22.56 -212.62, 3.46 -194.12 C-15.64 -175.61, -24.97 -169.88, -33.92 -157.85 C-42.86 -145.83, -46.39 -140.78, -50.23 -121.97 C-54.08 -103.16, -52.86 -81.41, -56.99 -45.02 C-61.12 -8.62, -70.2 44.85, -75.02 96.4 C-79.83 147.95, -82.4 212.59, -85.87 264.3 C-89.35 316.01, -92.67 361.05, -95.88 406.67 C-99.08 452.28, -103.13 503.58, -105.11 538 C-107.08 572.41, -111.87 596.62, -107.72 613.15 C-103.57 629.68, -89.54 634.16, -80.19 637.19 C-70.84 640.22, -58.31 637.25, -51.63 631.3 C-44.95 625.36, -43.61 630.84, -40.12 601.53 C-36.62 572.21, -35.5 518.85, -30.66 455.42 C-25.81 392, -16.17 296.89, -11.06 220.99 C-5.95 145.08, -1.84 36.83, 0 0" stroke="#E1E1E1" stroke-width="2" fill="none"></path></g></g><mask></mask></svg>