<svg version="1.1" xmlns="http://www.w3.org/2000/svg" viewBox="0 0 439.7172481415011 653.5190008611878" width="439.7172481415011" height="653.5190008611878" class="excalidraw-svg"><!-- svg-source:excalidraw --><metadata></metadata><defs><style class="style-fonts">
      </style></defs><rect x="0" y="0" width="439.7172481415011" height="653.5190008611878" fill="#000000"></rect><g stroke-linecap="round"><g transform="translate(298.3168018822697 575.1300356462655) rotate(305.95676699027933 -16.687595279831697 29.17315101379566)"><path d="M0 0 C-1.23 -2.75, -5.58 -12.28, -7.36 -16.5 C-9.14 -20.72, -7.28 -24.29, -10.68 -25.32 C-14.08 -26.35, -22.27 -24.17, -27.77 -22.68 C-33.28 -21.19, -38.93 -18.59, -43.69 -16.38 C-48.45 -14.17, -55.06 -13.88, -56.34 -9.41 C-57.62 -4.95, -54.27 2.11, -51.39 10.38 C-48.51 18.66, -42.25 31.42, -39.04 40.23 C-35.84 49.05, -34.47 56.03, -32.16 63.26 C-29.84 70.5, -29.53 80.82, -25.15 83.66 C-20.77 86.5, -12.44 82.17, -5.88 80.3 C0.67 78.43, 9.38 74.61, 14.19 72.44 C19 70.26, 22.4 71.09, 22.97 67.24 C23.54 63.39, 19.66 55.74, 17.61 49.33 C15.57 42.93, 12.71 34.55, 10.68 28.79 C8.65 23.04, 6.31 17.15, 5.43 14.82 M0 0 C-1.23 -2.75, -5.58 -12.28, -7.36 -16.5 C-9.14 -20.72, -7.28 -24.29, -10.68 -25.32 C-14.08 -26.35, -22.27 -24.17, -27.77 -22.68 C-33.28 -21.19, -38.93 -18.59, -43.69 -16.38 C-48.45 -14.17, -55.06 -13.88, -56.34 -9.41 C-57.62 -4.95, -54.27 2.11, -51.39 10.38 C-48.51 18.66, -42.25 31.42, -39.04 40.23 C-35.84 49.05, -34.47 56.03, -32.16 63.26 C-29.84 70.5, -29.53 80.82, -25.15 83.66 C-20.77 86.5, -12.44 82.17, -5.88 80.3 C0.67 78.43, 9.38 74.61, 14.19 72.44 C19 70.26, 22.4 71.09, 22.97 67.24 C23.54 63.39, 19.66 55.74, 17.61 49.33 C15.57 42.93, 12.71 34.55, 10.68 28.79 C8.65 23.04, 6.31 17.15, 5.43 14.82" stroke="#E1E1E1" stroke-width="4" fill="none"></path></g></g><mask></mask><g stroke-linecap="round" transform="translate(304.69191002564264 609.3798894198537) rotate(305.95676699027933 3.4863412898826667 3.4863412898826596)"><path d="M6.97 3.49 C6.97 3.69, 6.95 3.89, 6.92 4.09 C6.88 4.29, 6.83 4.49, 6.76 4.68 C6.69 4.87, 6.61 5.05, 6.51 5.23 C6.4 5.4, 6.29 5.57, 6.16 5.73 C6.03 5.88, 5.88 6.03, 5.73 6.16 C5.57 6.29, 5.4 6.4, 5.23 6.51 C5.05 6.61, 4.87 6.69, 4.68 6.76 C4.49 6.83, 4.29 6.88, 4.09 6.92 C3.89 6.95, 3.69 6.97, 3.49 6.97 C3.28 6.97, 3.08 6.95, 2.88 6.92 C2.68 6.88, 2.48 6.83, 2.29 6.76 C2.1 6.69, 1.92 6.61, 1.74 6.51 C1.57 6.4, 1.4 6.29, 1.25 6.16 C1.09 6.03, 0.95 5.88, 0.82 5.73 C0.69 5.57, 0.57 5.4, 0.47 5.23 C0.37 5.05, 0.28 4.87, 0.21 4.68 C0.14 4.49, 0.09 4.29, 0.05 4.09 C0.02 3.89, 0 3.69, 0 3.49 C0 3.28, 0.02 3.08, 0.05 2.88 C0.09 2.68, 0.14 2.48, 0.21 2.29 C0.28 2.1, 0.37 1.92, 0.47 1.74 C0.57 1.57, 0.69 1.4, 0.82 1.25 C0.95 1.09, 1.09 0.95, 1.25 0.82 C1.4 0.69, 1.57 0.57, 1.74 0.47 C1.92 0.37, 2.1 0.28, 2.29 0.21 C2.48 0.14, 2.68 0.09, 2.88 0.05 C3.08 0.02, 3.28 0, 3.49 0 C3.69 0, 3.89 0.02, 4.09 0.05 C4.29 0.09, 4.49 0.14, 4.68 0.21 C4.87 0.28, 5.05 0.37, 5.23 0.47 C5.4 0.57, 5.57 0.69, 5.73 0.82 C5.88 0.95, 6.03 1.09, 6.16 1.25 C6.29 1.4, 6.4 1.57, 6.51 1.74 C6.61 1.92, 6.69 2.1, 6.76 2.29 C6.83 2.48, 6.88 2.68, 6.92 2.88 C6.95 3.08, 6.96 3.39, 6.97 3.49 C6.98 3.59, 6.98 3.39, 6.97 3.49" stroke="#E1E1E1" stroke-width="4" fill="none"></path></g><g stroke-linecap="round"><g transform="translate(217.72751901295382 519.0476576914391) rotate(305.95676699027933 125.2892855641332 -71.82331560604922)"><path d="M0 0 C3.28 -1.4, 13.59 -6.98, 19.65 -8.43 C25.72 -9.87, 27.93 -9.4, 36.38 -8.66 C44.84 -7.91, 58.29 -5.45, 70.36 -3.97 C82.42 -2.49, 97.24 -1.01, 108.77 0.22 C120.31 1.45, 131.82 2.53, 139.57 3.42 C147.33 4.3, 150.45 5.57, 155.28 5.53 C160.11 5.49, 164.02 5.29, 168.58 3.2 C173.14 1.1, 173.25 0.39, 182.62 -7.05 C191.99 -14.49, 212.26 -31.48, 224.82 -41.45 C237.38 -51.43, 249.94 -60.28, 257.97 -66.9 C266.01 -73.52, 269.74 -77.02, 273.04 -81.18 C276.35 -85.34, 277.17 -87.93, 277.8 -91.85 C278.42 -95.77, 277.79 -101.19, 276.81 -104.69 C275.83 -108.18, 274.24 -110.7, 271.91 -112.82 C269.58 -114.94, 266.12 -116.49, 262.81 -117.4 C259.51 -118.32, 255.54 -118.72, 252.08 -118.32 C248.63 -117.92, 245.68 -117.07, 242.07 -115.01 C238.45 -112.95, 235.46 -109.42, 230.39 -105.95 C225.32 -102.48, 218.4 -98.67, 211.64 -94.18 C204.88 -89.7, 196.6 -83.45, 189.83 -79.03 C183.05 -74.62, 176.26 -70.77, 170.98 -67.7 C165.7 -64.63, 162.65 -61.98, 158.15 -60.61 C153.64 -59.23, 149.97 -59.04, 143.97 -59.44 C137.97 -59.84, 129.88 -61.57, 122.14 -63.01 C114.41 -64.44, 103.78 -66.88, 97.55 -68.04 C91.32 -69.21, 89.82 -69.02, 84.77 -69.98 C79.72 -70.95, 66.51 -71.05, 67.24 -73.83 C67.97 -76.61, 82.64 -82.92, 89.15 -86.68 C95.66 -90.45, 101.28 -93.14, 106.31 -96.43 C111.33 -99.71, 116.4 -102.53, 119.29 -106.39 C122.18 -110.24, 123.05 -115.41, 123.66 -119.55 C124.27 -123.68, 124.06 -127.57, 122.95 -131.21 C121.83 -134.85, 119.65 -138.57, 117 -141.4 C114.34 -144.22, 110.88 -146.88, 107.02 -148.18 C103.15 -149.48, 97.97 -149.54, 93.78 -149.18 C89.59 -148.82, 87.79 -148.57, 81.88 -146.01 C75.97 -143.45, 67.07 -138, 58.33 -133.81 C49.59 -129.61, 37.83 -124.72, 29.44 -120.83 C21.05 -116.93, 13.79 -113.38, 8.01 -110.42 C2.23 -107.45, -1.77 -106.29, -5.23 -103.03 C-8.69 -99.78, -11.36 -94.85, -12.75 -90.89 C-14.14 -86.94, -11.16 -82.05, -13.58 -79.29 C-15.99 -76.53, -24.94 -75.14, -27.22 -74.31 M0 0 C3.28 -1.4, 13.59 -6.98, 19.65 -8.43 C25.72 -9.87, 27.93 -9.4, 36.38 -8.66 C44.84 -7.91, 58.29 -5.45, 70.36 -3.97 C82.42 -2.49, 97.24 -1.01, 108.77 0.22 C120.31 1.45, 131.82 2.53, 139.57 3.42 C147.33 4.3, 150.45 5.57, 155.28 5.53 C160.11 5.49, 164.02 5.29, 168.58 3.2 C173.14 1.1, 173.25 0.39, 182.62 -7.05 C191.99 -14.49, 212.26 -31.48, 224.82 -41.45 C237.38 -51.43, 249.94 -60.28, 257.97 -66.9 C266.01 -73.52, 269.74 -77.02, 273.04 -81.18 C276.35 -85.34, 277.17 -87.93, 277.8 -91.85 C278.42 -95.77, 277.79 -101.19, 276.81 -104.69 C275.83 -108.18, 274.24 -110.7, 271.91 -112.82 C269.58 -114.94, 266.12 -116.49, 262.81 -117.4 C259.51 -118.32, 255.54 -118.72, 252.08 -118.32 C248.63 -117.92, 245.68 -117.07, 242.07 -115.01 C238.45 -112.95, 235.46 -109.42, 230.39 -105.95 C225.32 -102.48, 218.4 -98.67, 211.64 -94.18 C204.88 -89.7, 196.6 -83.45, 189.83 -79.03 C183.05 -74.62, 176.26 -70.77, 170.98 -67.7 C165.7 -64.63, 162.65 -61.98, 158.15 -60.61 C153.64 -59.23, 149.97 -59.04, 143.97 -59.44 C137.97 -59.84, 129.88 -61.57, 122.14 -63.01 C114.41 -64.44, 103.78 -66.88, 97.55 -68.04 C91.32 -69.21, 89.82 -69.02, 84.77 -69.98 C79.72 -70.95, 66.51 -71.05, 67.24 -73.83 C67.97 -76.61, 82.64 -82.92, 89.15 -86.68 C95.66 -90.45, 101.28 -93.14, 106.31 -96.43 C111.33 -99.71, 116.4 -102.53, 119.29 -106.39 C122.18 -110.24, 123.05 -115.41, 123.66 -119.55 C124.27 -123.68, 124.06 -127.57, 122.95 -131.21 C121.83 -134.85, 119.65 -138.57, 117 -141.4 C114.34 -144.22, 110.88 -146.88, 107.02 -148.18 C103.15 -149.48, 97.97 -149.54, 93.78 -149.18 C89.59 -148.82, 87.79 -148.57, 81.88 -146.01 C75.97 -143.45, 67.07 -138, 58.33 -133.81 C49.59 -129.61, 37.83 -124.72, 29.44 -120.83 C21.05 -116.93, 13.79 -113.38, 8.01 -110.42 C2.23 -107.45, -1.77 -106.29, -5.23 -103.03 C-8.69 -99.78, -11.36 -94.85, -12.75 -90.89 C-14.14 -86.94, -11.16 -82.05, -13.58 -79.29 C-15.99 -76.53, -24.94 -75.14, -27.22 -74.31" stroke="#E1E1E1" stroke-width="4" fill="none"></path></g></g><mask></mask><g stroke-linecap="round"><g transform="translate(271.4962710561639 435.45537766350327) rotate(305.95676699027933 14.550966891565999 11.910473798946086)"><path d="M0 0 C0.59 2.91, 1.13 13.5, 3.55 17.47 C5.96 21.44, 10.23 24.08, 14.49 23.82 C18.75 23.56, 26.67 17.22, 29.1 15.9 M0 0 C0.59 2.91, 1.13 13.5, 3.55 17.47 C5.96 21.44, 10.23 24.08, 14.49 23.82 C18.75 23.56, 26.67 17.22, 29.1 15.9" stroke="#E1E1E1" stroke-width="4" fill="none"></path></g></g><mask></mask><g stroke-linecap="round"><g transform="translate(132.58138764324832 574.9824668825697) rotate(56.52341849848032 16.411575857378864 28.690615564024256)"><path d="M0 0 C1.21 -2.7, 5.49 -12.08, 7.24 -16.23 C8.99 -20.38, 7.16 -23.89, 10.5 -24.9 C13.85 -25.91, 21.9 -23.77, 27.31 -22.3 C32.72 -20.84, 38.29 -18.28, 42.97 -16.11 C47.65 -13.94, 54.15 -13.65, 55.41 -9.26 C56.67 -4.87, 53.38 2.07, 50.54 10.21 C47.7 18.35, 41.55 30.9, 38.4 39.57 C35.24 48.24, 33.9 55.1, 31.63 62.22 C29.35 69.34, 29.04 79.49, 24.74 82.28 C20.43 85.07, 12.23 80.81, 5.78 78.97 C-0.66 77.13, -9.23 73.38, -13.95 71.24 C-18.68 69.1, -22.03 69.92, -22.59 66.13 C-23.15 62.34, -19.34 54.82, -17.32 48.52 C-15.31 42.22, -12.5 33.97, -10.51 28.32 C-8.51 22.66, -6.2 16.87, -5.34 14.58 M0 0 C1.21 -2.7, 5.49 -12.08, 7.24 -16.23 C8.99 -20.38, 7.16 -23.89, 10.5 -24.9 C13.85 -25.91, 21.9 -23.77, 27.31 -22.3 C32.72 -20.84, 38.29 -18.28, 42.97 -16.11 C47.65 -13.94, 54.15 -13.65, 55.41 -9.26 C56.67 -4.87, 53.38 2.07, 50.54 10.21 C47.7 18.35, 41.55 30.9, 38.4 39.57 C35.24 48.24, 33.9 55.1, 31.63 62.22 C29.35 69.34, 29.04 79.49, 24.74 82.28 C20.43 85.07, 12.23 80.81, 5.78 78.97 C-0.66 77.13, -9.23 73.38, -13.95 71.24 C-18.68 69.1, -22.03 69.92, -22.59 66.13 C-23.15 62.34, -19.34 54.82, -17.32 48.52 C-15.31 42.22, -12.5 33.97, -10.51 28.32 C-8.51 22.66, -6.2 16.87, -5.34 14.58" stroke="#E1E1E1" stroke-width="4" fill="none"></path></g></g><mask></mask><g stroke-linecap="round" transform="translate(119.12879857215813 607.5235697995224) rotate(56.52341849848032 3.4286758268144126 3.428675826814427)"><path d="M6.86 3.43 C6.86 3.63, 6.84 3.83, 6.81 4.02 C6.77 4.22, 6.72 4.41, 6.65 4.6 C6.58 4.79, 6.5 4.97, 6.4 5.14 C6.3 5.31, 6.18 5.48, 6.06 5.63 C5.93 5.78, 5.78 5.93, 5.63 6.06 C5.48 6.18, 5.31 6.3, 5.14 6.4 C4.97 6.5, 4.79 6.58, 4.6 6.65 C4.41 6.72, 4.22 6.77, 4.02 6.81 C3.83 6.84, 3.63 6.86, 3.43 6.86 C3.23 6.86, 3.03 6.84, 2.83 6.81 C2.64 6.77, 2.44 6.72, 2.26 6.65 C2.07 6.58, 1.89 6.5, 1.71 6.4 C1.54 6.3, 1.38 6.18, 1.22 6.06 C1.07 5.93, 0.93 5.78, 0.8 5.63 C0.67 5.48, 0.56 5.31, 0.46 5.14 C0.36 4.97, 0.27 4.79, 0.21 4.6 C0.14 4.41, 0.09 4.22, 0.05 4.02 C0.02 3.83, 0 3.63, 0 3.43 C0 3.23, 0.02 3.03, 0.05 2.83 C0.09 2.64, 0.14 2.44, 0.21 2.26 C0.27 2.07, 0.36 1.89, 0.46 1.71 C0.56 1.54, 0.67 1.38, 0.8 1.22 C0.93 1.07, 1.07 0.93, 1.22 0.8 C1.38 0.67, 1.54 0.56, 1.71 0.46 C1.89 0.36, 2.07 0.27, 2.26 0.21 C2.44 0.14, 2.64 0.09, 2.83 0.05 C3.03 0.02, 3.23 0, 3.43 0 C3.63 0, 3.83 0.02, 4.02 0.05 C4.22 0.09, 4.41 0.14, 4.6 0.21 C4.79 0.27, 4.97 0.36, 5.14 0.46 C5.31 0.56, 5.48 0.67, 5.63 0.8 C5.78 0.93, 5.93 1.07, 6.06 1.22 C6.18 1.38, 6.3 1.54, 6.4 1.71 C6.5 1.89, 6.58 2.07, 6.65 2.26 C6.72 2.44, 6.77 2.64, 6.81 2.83 C6.84 3.03, 6.85 3.33, 6.86 3.43 C6.87 3.53, 6.87 3.33, 6.86 3.43" stroke="#E1E1E1" stroke-width="4" fill="none"></path></g><g stroke-linecap="round"><g transform="translate(218.59778086502124 517.3501754992296) rotate(56.52341849848032 -123.21695125466357 -70.63532957452146)"><path d="M0 0 C-3.22 -1.38, -13.36 -6.87, -19.33 -8.29 C-25.29 -9.71, -27.47 -9.24, -35.78 -8.51 C-44.09 -7.78, -57.33 -5.36, -69.19 -3.9 C-81.06 -2.45, -95.63 -0.99, -106.98 0.22 C-118.32 1.43, -129.64 2.49, -137.27 3.36 C-144.89 4.23, -147.96 5.48, -152.71 5.44 C-157.47 5.4, -161.31 5.21, -165.79 3.14 C-170.27 1.08, -170.38 0.38, -179.6 -6.93 C-188.82 -14.25, -208.75 -30.96, -221.1 -40.77 C-233.45 -50.57, -245.8 -59.28, -253.71 -65.79 C-261.61 -72.3, -265.28 -75.75, -268.52 -79.84 C-271.77 -83.93, -272.59 -86.48, -273.2 -90.33 C-273.82 -94.18, -273.19 -99.52, -272.23 -102.96 C-271.26 -106.4, -269.71 -108.87, -267.41 -110.95 C-265.12 -113.04, -261.71 -114.56, -258.47 -115.46 C-255.22 -116.36, -251.32 -116.76, -247.92 -116.36 C-244.51 -115.97, -241.62 -115.14, -238.06 -113.11 C-234.51 -111.08, -231.57 -107.61, -226.58 -104.2 C-221.59 -100.78, -214.79 -97.04, -208.14 -92.63 C-201.49 -88.21, -193.35 -82.07, -186.69 -77.73 C-180.02 -73.39, -173.35 -69.6, -168.15 -66.58 C-162.96 -63.56, -159.96 -60.96, -155.53 -59.6 C-151.1 -58.25, -147.49 -58.07, -141.59 -58.46 C-135.69 -58.85, -127.73 -60.56, -120.12 -61.97 C-112.52 -63.37, -102.06 -65.77, -95.94 -66.92 C-89.81 -68.06, -88.33 -67.88, -83.36 -68.83 C-78.4 -69.77, -65.41 -69.87, -66.13 -72.61 C-66.85 -75.35, -81.27 -81.55, -87.67 -85.25 C-94.07 -88.95, -99.61 -91.6, -104.55 -94.83 C-109.49 -98.06, -114.47 -100.84, -117.32 -104.63 C-120.16 -108.42, -121.02 -113.5, -121.62 -117.57 C-122.21 -121.64, -122 -125.46, -120.91 -129.04 C-119.82 -132.62, -117.67 -136.27, -115.06 -139.06 C-112.45 -141.84, -109.05 -144.46, -105.25 -145.73 C-101.44 -147.01, -96.35 -147.07, -92.23 -146.71 C-88.11 -146.35, -86.34 -146.12, -80.53 -143.6 C-74.72 -141.08, -65.96 -135.72, -57.36 -131.59 C-48.77 -127.46, -37.2 -122.66, -28.95 -118.83 C-20.71 -114.99, -13.56 -111.51, -7.88 -108.59 C-2.19 -105.67, 1.74 -104.53, 5.15 -101.33 C8.55 -98.13, 11.17 -93.28, 12.54 -89.39 C13.91 -85.5, 10.98 -80.7, 13.35 -77.98 C15.72 -75.26, 24.53 -73.9, 26.77 -73.08 M0 0 C-3.22 -1.38, -13.36 -6.87, -19.33 -8.29 C-25.29 -9.71, -27.47 -9.24, -35.78 -8.51 C-44.09 -7.78, -57.33 -5.36, -69.19 -3.9 C-81.06 -2.45, -95.63 -0.99, -106.98 0.22 C-118.32 1.43, -129.64 2.49, -137.27 3.36 C-144.89 4.23, -147.96 5.48, -152.71 5.44 C-157.47 5.4, -161.31 5.21, -165.79 3.14 C-170.27 1.08, -170.38 0.38, -179.6 -6.93 C-188.82 -14.25, -208.75 -30.96, -221.1 -40.77 C-233.45 -50.57, -245.8 -59.28, -253.71 -65.79 C-261.61 -72.3, -265.28 -75.75, -268.52 -79.84 C-271.77 -83.93, -272.59 -86.48, -273.2 -90.33 C-273.82 -94.18, -273.19 -99.52, -272.23 -102.96 C-271.26 -106.4, -269.71 -108.87, -267.41 -110.95 C-265.12 -113.04, -261.71 -114.56, -258.47 -115.46 C-255.22 -116.36, -251.32 -116.76, -247.92 -116.36 C-244.51 -115.97, -241.62 -115.14, -238.06 -113.11 C-234.51 -111.08, -231.57 -107.61, -226.58 -104.2 C-221.59 -100.78, -214.79 -97.04, -208.14 -92.63 C-201.49 -88.21, -193.35 -82.07, -186.69 -77.73 C-180.02 -73.39, -173.35 -69.6, -168.15 -66.58 C-162.96 -63.56, -159.96 -60.96, -155.53 -59.6 C-151.1 -58.25, -147.49 -58.07, -141.59 -58.46 C-135.69 -58.85, -127.73 -60.56, -120.12 -61.97 C-112.52 -63.37, -102.06 -65.77, -95.94 -66.92 C-89.81 -68.06, -88.33 -67.88, -83.36 -68.83 C-78.4 -69.77, -65.41 -69.87, -66.13 -72.61 C-66.85 -75.35, -81.27 -81.55, -87.67 -85.25 C-94.07 -88.95, -99.61 -91.6, -104.55 -94.83 C-109.49 -98.06, -114.47 -100.84, -117.32 -104.63 C-120.16 -108.42, -121.02 -113.5, -121.62 -117.57 C-122.21 -121.64, -122 -125.46, -120.91 -129.04 C-119.82 -132.62, -117.67 -136.27, -115.06 -139.06 C-112.45 -141.84, -109.05 -144.46, -105.25 -145.73 C-101.44 -147.01, -96.35 -147.07, -92.23 -146.71 C-88.11 -146.35, -86.34 -146.12, -80.53 -143.6 C-74.72 -141.08, -65.96 -135.72, -57.36 -131.59 C-48.77 -127.46, -37.2 -122.66, -28.95 -118.83 C-20.71 -114.99, -13.56 -111.51, -7.88 -108.59 C-2.19 -105.67, 1.74 -104.53, 5.15 -101.33 C8.55 -98.13, 11.17 -93.28, 12.54 -89.39 C13.91 -85.5, 10.98 -80.7, 13.35 -77.98 C15.72 -75.26, 24.53 -73.9, 26.77 -73.08" stroke="#E1E1E1" stroke-width="4" fill="none"></path></g></g><mask></mask><g stroke-linecap="round"><g transform="translate(165.6553334384797 437.5701529355886) rotate(56.52341849848032 -14.310288147253786 11.713469854159758)"><path d="M0 0 C-0.58 2.86, -1.11 13.28, -3.49 17.18 C-5.86 21.09, -10.06 23.69, -14.25 23.43 C-18.44 23.17, -26.23 16.93, -28.62 15.63 M0 0 C-0.58 2.86, -1.11 13.28, -3.49 17.18 C-5.86 21.09, -10.06 23.69, -14.25 23.43 C-18.44 23.17, -26.23 16.93, -28.62 15.63" stroke="#E1E1E1" stroke-width="4" fill="none"></path></g></g><mask></mask><g stroke-linecap="round"><g transform="translate(200.39097153008592 362.4683417035415) rotate(0 -1.7792763694751557 -79.47049779723687)"><path d="M0 0 C9.56 -10.82, 40.21 -45.74, 57.36 -64.9 C74.52 -84.06, 96.83 -103.62, 102.92 -114.95 C109.01 -126.29, 98.92 -125.82, 93.9 -132.9 C88.88 -139.98, 79.83 -153.09, 72.78 -157.43 C65.72 -161.77, 61.37 -158.82, 51.57 -158.94 C41.76 -159.06, 29.34 -158.38, 13.93 -158.15 C-1.48 -157.92, -26.82 -157.54, -40.9 -157.57 C-54.97 -157.6, -64.24 -159.4, -70.54 -158.32 C-76.83 -157.24, -75.1 -155.03, -78.67 -151.08 C-82.23 -147.13, -87.27 -140.25, -91.91 -134.62 C-96.54 -128.99, -105.48 -122.3, -106.48 -117.31 C-107.48 -112.32, -104.18 -112.22, -97.91 -104.68 C-91.64 -97.13, -78.87 -82.99, -68.85 -72.03 C-58.83 -61.07, -49.26 -50.92, -37.78 -38.91 C-26.3 -26.91, -6.3 -6.49, 0 0 M0 0 C9.56 -10.82, 40.21 -45.74, 57.36 -64.9 C74.52 -84.06, 96.83 -103.62, 102.92 -114.95 C109.01 -126.29, 98.92 -125.82, 93.9 -132.9 C88.88 -139.98, 79.83 -153.09, 72.78 -157.43 C65.72 -161.77, 61.37 -158.82, 51.57 -158.94 C41.76 -159.06, 29.34 -158.38, 13.93 -158.15 C-1.48 -157.92, -26.82 -157.54, -40.9 -157.57 C-54.97 -157.6, -64.24 -159.4, -70.54 -158.32 C-76.83 -157.24, -75.1 -155.03, -78.67 -151.08 C-82.23 -147.13, -87.27 -140.25, -91.91 -134.62 C-96.54 -128.99, -105.48 -122.3, -106.48 -117.31 C-107.48 -112.32, -104.18 -112.22, -97.91 -104.68 C-91.64 -97.13, -78.87 -82.99, -68.85 -72.03 C-58.83 -61.07, -49.26 -50.92, -37.78 -38.91 C-26.3 -26.91, -6.3 -6.49, 0 0" stroke="#E1E1E1" stroke-width="4" fill="none"></path></g></g><mask></mask><g stroke-linecap="round"><g transform="translate(201.75270544964846 360.8002701071585) rotate(0 19.765074764688777 -78.21367404096853)"><path d="M0 0 C6.59 -16.67, 34.7 -73.94, 39.53 -100.01 C44.37 -126.08, 30.76 -147.02, 29.01 -156.43 M0 0 C6.59 -16.67, 34.7 -73.94, 39.53 -100.01 C44.37 -126.08, 30.76 -147.02, 29.01 -156.43" stroke="#E1E1E1" stroke-width="4" fill="none"></path></g></g><mask></mask><g stroke-linecap="round"><g transform="translate(201.11065525028684 359.8476858244442) rotate(0 -21.014554809526615 -77.48454840607101)"><path d="M0 0 C-7 -16.37, -37.4 -72.37, -42.03 -98.2 C-46.65 -124.03, -30.13 -145.51, -27.75 -154.97 M0 0 C-7 -16.37, -37.4 -72.37, -42.03 -98.2 C-46.65 -124.03, -30.13 -145.51, -27.75 -154.97" stroke="#E1E1E1" stroke-width="4" fill="none"></path></g></g><mask></mask><g stroke-linecap="round"><g transform="translate(95.70321778174258 243.08477228090334) rotate(0 59.570088921897906 8.38442025049828)"><path d="M0 0 C10.38 2.53, 42.41 12.36, 62.27 15.16 C82.13 17.95, 109.66 16.5, 119.14 16.77 M0 0 C10.38 2.53, 42.41 12.36, 62.27 15.16 C82.13 17.95, 109.66 16.5, 119.14 16.77" stroke="#E1E1E1" stroke-width="4" fill="none"></path></g></g><mask></mask><g stroke-linecap="round"><g transform="translate(306.03340776440825 245.06127975737155) rotate(0 -32.21476384285023 8.233349615354228)"><path d="M0 0 C-10.74 2.74, -53.69 13.72, -64.43 16.47 M0 0 C-10.74 2.74, -53.69 13.72, -64.43 16.47" stroke="#E1E1E1" stroke-width="4" fill="none"></path></g></g><mask></mask><g stroke-linecap="round"><g transform="translate(342.6919673104611 150.30053768698627) rotate(357.8963225961706 -14.616032028712233 10.461898469195816)"><path d="M0 0 C0.04 -1.33, 1.08 -5.43, 0.26 -7.96 C-0.56 -10.49, -2.6 -13.31, -4.91 -15.19 C-7.22 -17.07, -10.64 -18.91, -13.61 -19.22 C-16.58 -19.53, -20.29 -18.57, -22.73 -17.03 C-25.16 -15.49, -27.14 -12.7, -28.22 -9.96 C-29.3 -7.21, -29.83 -3.65, -29.18 -0.58 C-28.54 2.49, -27.1 6.58, -24.35 8.45 C-21.59 10.33, -15.98 9.75, -12.66 10.65 C-9.34 11.55, -6.53 11.82, -4.45 13.86 C-2.38 15.9, -0.58 19.7, -0.23 22.9 C0.12 26.11, -0.43 30.23, -2.35 33.11 C-4.27 35.98, -8.59 39.15, -11.75 40.14 C-14.91 41.13, -18.55 40.33, -21.3 39.04 C-24.06 37.75, -26.91 35.38, -28.28 32.43 C-29.64 29.48, -29.29 23.18, -29.49 21.33 M0 0 C0.04 -1.33, 1.08 -5.43, 0.26 -7.96 C-0.56 -10.49, -2.6 -13.31, -4.91 -15.19 C-7.22 -17.07, -10.64 -18.91, -13.61 -19.22 C-16.58 -19.53, -20.29 -18.57, -22.73 -17.03 C-25.16 -15.49, -27.14 -12.7, -28.22 -9.96 C-29.3 -7.21, -29.83 -3.65, -29.18 -0.58 C-28.54 2.49, -27.1 6.58, -24.35 8.45 C-21.59 10.33, -15.98 9.75, -12.66 10.65 C-9.34 11.55, -6.53 11.82, -4.45 13.86 C-2.38 15.9, -0.58 19.7, -0.23 22.9 C0.12 26.11, -0.43 30.23, -2.35 33.11 C-4.27 35.98, -8.59 39.15, -11.75 40.14 C-14.91 41.13, -18.55 40.33, -21.3 39.04 C-24.06 37.75, -26.91 35.38, -28.28 32.43 C-29.64 29.48, -29.29 23.18, -29.49 21.33" stroke="#E1E1E1" stroke-width="4" fill="none"></path></g></g><mask></mask><g stroke-linecap="round"><g transform="translate(327.5756874635016 117.92246681943499) rotate(357.8963225961706 0 6.021731231565155)"><path d="M0 0 C0 2.01, 0 10.04, 0 12.04 M0 0 C0 2.01, 0 10.04, 0 12.04" stroke="#E1E1E1" stroke-width="4" fill="none"></path></g></g><mask></mask><g stroke-linecap="round"><g transform="translate(329.8991946753366 205.20695107475268) rotate(357.8963225961706 0.09303317611381345 -6.613445345481509)"><path d="M0 0 C0.03 -2.2, 0.16 -11.02, 0.19 -13.23 M0 0 C0.03 -2.2, 0.16 -11.02, 0.19 -13.23" stroke="#E1E1E1" stroke-width="4" fill="none"></path></g></g><mask></mask><g stroke-linecap="round"><g transform="translate(256.5901959481897 346.3654747626936) rotate(327.8963225961706 67.53670080823197 -47.449439675289554)"><path d="M0 0 C13.49 -14.07, 26.98 -28.14, 54.55 -56.9 M0 0 C15.4 -16.07, 30.81 -32.13, 54.55 -56.9 M54.55 -56.9 C61.24 -49.76, 67.92 -42.61, 74.4 -35.7 M54.55 -56.9 C59.13 -52.01, 63.7 -47.12, 74.4 -35.7 M74.4 -35.7 C95.21 -56.26, 116.02 -76.82, 133.32 -93.91 M74.4 -35.7 C95.9 -56.95, 117.41 -78.2, 133.32 -93.91 M133.32 -93.91 C133.45 -86.14, 133.58 -78.36, 133.83 -63.33 M133.32 -93.91 C133.43 -87.1, 133.55 -80.28, 133.83 -63.33 M133.83 -63.33 C134.18 -72.24, 134.53 -81.15, 135.07 -94.9 M133.83 -63.33 C134.21 -73.01, 134.59 -82.69, 135.07 -94.9 M135.07 -94.9 C126.17 -94.57, 117.26 -94.24, 101.4 -93.65 M135.07 -94.9 C122.1 -94.42, 109.12 -93.94, 101.4 -93.65 M101.4 -93.65 C111.9 -94.03, 122.39 -94.41, 135.06 -94.87 M101.4 -93.65 C114.61 -94.13, 127.83 -94.61, 135.06 -94.87" stroke="#E1E1E1" stroke-width="4" fill="none"></path></g></g><mask></mask><g stroke-linecap="round"><g transform="translate(155.29445923336863 68.70288724683206) rotate(0 -8.749026457028094 -6.442672130360592)"><path d="M0 0 C-6.73 -4.95, -13.45 -9.91, -17.5 -12.89 M0 0 C-3.84 -2.82, -7.67 -5.65, -17.5 -12.89" stroke="#E1E1E1" stroke-width="4" fill="none"></path></g></g><mask></mask><g stroke-linecap="round"><g transform="translate(203.17959545580456 30.43633012911988) rotate(0 -0.5192829400655938 -10.21816506455994)"><path d="M0 0 C-0.4 -7.77, -0.79 -15.55, -1.04 -20.44 M0 0 C-0.22 -4.24, -0.43 -8.49, -1.04 -20.44" stroke="#E1E1E1" stroke-width="4" fill="none"></path></g></g><mask></mask><g stroke-linecap="round"><g transform="translate(189.18102155642268 132.534810407233) rotate(0 13.791217639625472 -35.90759243834731)"><path d="M0 0 C-0.14 -1.26, -0.61 -5.49, -0.81 -7.54 C-1.01 -9.59, -0.4 -11.05, -1.19 -12.3 C-1.98 -13.56, -3.99 -13.91, -5.57 -15.07 C-7.15 -16.24, -8.99 -17.36, -10.66 -19.31 C-12.33 -21.26, -14.34 -23.79, -15.61 -26.78 C-16.88 -29.78, -17.93 -33.96, -18.3 -37.29 C-18.68 -40.61, -18.58 -43.51, -17.84 -46.75 C-17.11 -49.99, -15.83 -53.66, -13.9 -56.73 C-11.97 -59.8, -8.98 -62.92, -6.25 -65.18 C-3.52 -67.44, -0.33 -69.12, 2.49 -70.27 C5.32 -71.42, 7.98 -71.84, 10.71 -72.08 C13.44 -72.33, 16.21 -72.22, 18.9 -71.75 C21.59 -71.28, 24.59 -70.26, 26.85 -69.26 C29.12 -68.26, 30.36 -67.49, 32.51 -65.75 C34.65 -64.01, 37.85 -61.34, 39.74 -58.83 C41.63 -56.33, 42.84 -53.26, 43.82 -50.73 C44.79 -48.21, 45.25 -46.22, 45.59 -43.68 C45.94 -41.14, 46.11 -38.01, 45.89 -35.5 C45.67 -32.99, 45.16 -30.91, 44.27 -28.61 C43.38 -26.32, 41.72 -23.57, 40.54 -21.73 C39.37 -19.88, 38.61 -18.8, 37.19 -17.54 C35.77 -16.29, 33.6 -15.57, 32.01 -14.21 C30.42 -12.85, 28.48 -11.8, 27.65 -9.39 C26.83 -6.97, 27.15 -1.34, 27.05 0.27 M0 0 C-0.14 -1.26, -0.61 -5.49, -0.81 -7.54 C-1.01 -9.59, -0.4 -11.05, -1.19 -12.3 C-1.98 -13.56, -3.99 -13.91, -5.57 -15.07 C-7.15 -16.24, -8.99 -17.36, -10.66 -19.31 C-12.33 -21.26, -14.34 -23.79, -15.61 -26.78 C-16.88 -29.78, -17.93 -33.96, -18.3 -37.29 C-18.68 -40.61, -18.58 -43.51, -17.84 -46.75 C-17.11 -49.99, -15.83 -53.66, -13.9 -56.73 C-11.97 -59.8, -8.98 -62.92, -6.25 -65.18 C-3.52 -67.44, -0.33 -69.12, 2.49 -70.27 C5.32 -71.42, 7.98 -71.84, 10.71 -72.08 C13.44 -72.33, 16.21 -72.22, 18.9 -71.75 C21.59 -71.28, 24.59 -70.26, 26.85 -69.26 C29.12 -68.26, 30.36 -67.49, 32.51 -65.75 C34.65 -64.01, 37.85 -61.34, 39.74 -58.83 C41.63 -56.33, 42.84 -53.26, 43.82 -50.73 C44.79 -48.21, 45.25 -46.22, 45.59 -43.68 C45.94 -41.14, 46.11 -38.01, 45.89 -35.5 C45.67 -32.99, 45.16 -30.91, 44.27 -28.61 C43.38 -26.32, 41.72 -23.57, 40.54 -21.73 C39.37 -19.88, 38.61 -18.8, 37.19 -17.54 C35.77 -16.29, 33.6 -15.57, 32.01 -14.21 C30.42 -12.85, 28.48 -11.8, 27.65 -9.39 C26.83 -6.97, 27.15 -1.34, 27.05 0.27" stroke="#E1E1E1" stroke-width="4" fill="none"></path></g></g><mask></mask><g stroke-linecap="round"><g transform="translate(202.5176570873417 133.5459931531571) rotate(0 0.3878763390897859 5.515108411309313)"><path d="M0 0 C-1.1 0.01, -4.34 0.01, -6.58 0.03 C-8.81 0.06, -11.46 -0.11, -13.42 0.16 C-15.37 0.43, -17.26 0.68, -18.33 1.65 C-19.4 2.61, -19.97 4.5, -19.81 5.94 C-19.66 7.38, -19.02 9.41, -17.43 10.26 C-15.84 11.11, -13.01 10.92, -10.27 11.03 C-7.52 11.14, -4.31 10.95, -0.95 10.92 C2.41 10.88, 6.82 10.87, 9.88 10.84 C12.95 10.8, 15.66 11.3, 17.44 10.72 C19.22 10.13, 20.16 8.67, 20.59 7.33 C21.03 5.99, 20.73 3.84, 20.05 2.66 C19.37 1.47, 18.61 0.66, 16.5 0.22 C14.4 -0.22, 10.19 0.07, 7.44 0.04 C4.69 0, 1.24 0.01, 0 0 M0 0 C-1.1 0.01, -4.34 0.01, -6.58 0.03 C-8.81 0.06, -11.46 -0.11, -13.42 0.16 C-15.37 0.43, -17.26 0.68, -18.33 1.65 C-19.4 2.61, -19.97 4.5, -19.81 5.94 C-19.66 7.38, -19.02 9.41, -17.43 10.26 C-15.84 11.11, -13.01 10.92, -10.27 11.03 C-7.52 11.14, -4.31 10.95, -0.95 10.92 C2.41 10.88, 6.82 10.87, 9.88 10.84 C12.95 10.8, 15.66 11.3, 17.44 10.72 C19.22 10.13, 20.16 8.67, 20.59 7.33 C21.03 5.99, 20.73 3.84, 20.05 2.66 C19.37 1.47, 18.61 0.66, 16.5 0.22 C14.4 -0.22, 10.19 0.07, 7.44 0.04 C4.69 0, 1.24 0.01, 0 0" stroke="#E1E1E1" stroke-width="4" fill="none"></path></g></g><mask></mask><g stroke-linecap="round"><g transform="translate(190.21182763070541 144.8600851825243) rotate(0 12.945299817356116 5.714552321771237)"><path d="M0 0 C0.29 0.69, 1 2.77, 1.75 4.14 C2.5 5.51, 3.22 7.1, 4.48 8.19 C5.75 9.29, 7.72 10.15, 9.32 10.71 C10.92 11.26, 12.35 11.67, 14.07 11.54 C15.79 11.42, 18 10.89, 19.64 9.96 C21.28 9.03, 22.88 7.63, 23.92 5.95 C24.96 4.27, 25.56 0.9, 25.89 -0.11 M0 0 C0.29 0.69, 1 2.77, 1.75 4.14 C2.5 5.51, 3.22 7.1, 4.48 8.19 C5.75 9.29, 7.72 10.15, 9.32 10.71 C10.92 11.26, 12.35 11.67, 14.07 11.54 C15.79 11.42, 18 10.89, 19.64 9.96 C21.28 9.03, 22.88 7.63, 23.92 5.95 C24.96 4.27, 25.56 0.9, 25.89 -0.11" stroke="#E1E1E1" stroke-width="4" fill="none"></path></g></g><mask></mask><g stroke-linecap="round"><g transform="translate(203.22463078913356 132.6617054507936) rotate(0 -0.006355834061949395 -19.440962228672305)"><path d="M0 0 C0 -6.48, -0.01 -32.4, -0.01 -38.88 M0 0 C0 -6.48, -0.01 -32.4, -0.01 -38.88" stroke="#E1E1E1" stroke-width="4" fill="none"></path></g></g><mask></mask><g stroke-linecap="round"><g transform="translate(203.34517246961772 94.15411770302791) rotate(0 -7.866111735088353 3.4183428918718164)"><path d="M0 0 C-0.25 -0.33, -0.54 -1.19, -1.48 -2 C-2.43 -2.8, -4.05 -4.3, -5.66 -4.83 C-7.26 -5.36, -9.47 -5.75, -11.09 -5.2 C-12.72 -4.65, -14.47 -3, -15.4 -1.52 C-16.33 -0.04, -16.84 1.98, -16.65 3.67 C-16.46 5.35, -15.38 7.25, -14.27 8.59 C-13.16 9.93, -11.72 11.16, -9.99 11.72 C-8.26 12.28, -5.7 11.92, -3.88 11.97 C-2.06 12.02, 0.12 12.02, 0.92 12.04 M0 0 C-0.25 -0.33, -0.54 -1.19, -1.48 -2 C-2.43 -2.8, -4.05 -4.3, -5.66 -4.83 C-7.26 -5.36, -9.47 -5.75, -11.09 -5.2 C-12.72 -4.65, -14.47 -3, -15.4 -1.52 C-16.33 -0.04, -16.84 1.98, -16.65 3.67 C-16.46 5.35, -15.38 7.25, -14.27 8.59 C-13.16 9.93, -11.72 11.16, -9.99 11.72 C-8.26 12.28, -5.7 11.92, -3.88 11.97 C-2.06 12.02, 0.12 12.02, 0.92 12.04" stroke="#E1E1E1" stroke-width="4" fill="none"></path></g></g><mask></mask><g stroke-linecap="round"><g transform="translate(203.23260010967246 94.53263449732123) rotate(0 7.6833294554028555 3.338911970018046)"><path d="M0 0 C0.24 -0.33, 0.53 -1.16, 1.45 -1.95 C2.37 -2.74, 3.96 -4.2, 5.52 -4.72 C7.09 -5.24, 9.25 -5.62, 10.83 -5.08 C12.42 -4.54, 14.14 -2.93, 15.04 -1.48 C15.95 -0.04, 16.45 1.94, 16.26 3.58 C16.08 5.23, 15.02 7.08, 13.93 8.39 C12.85 9.7, 11.45 10.9, 9.76 11.45 C8.07 12, 5.57 11.64, 3.79 11.69 C2.02 11.74, -0.12 11.75, -0.9 11.76 M0 0 C0.24 -0.33, 0.53 -1.16, 1.45 -1.95 C2.37 -2.74, 3.96 -4.2, 5.52 -4.72 C7.09 -5.24, 9.25 -5.62, 10.83 -5.08 C12.42 -4.54, 14.14 -2.93, 15.04 -1.48 C15.95 -0.04, 16.45 1.94, 16.26 3.58 C16.08 5.23, 15.02 7.08, 13.93 8.39 C12.85 9.7, 11.45 10.9, 9.76 11.45 C8.07 12, 5.57 11.64, 3.79 11.69 C2.02 11.74, -0.12 11.75, -0.9 11.76" stroke="#E1E1E1" stroke-width="4" fill="none"></path></g></g><mask></mask><g stroke-linecap="round"><g transform="translate(249.67743212697027 65.64640655235172) rotate(0 10.546559482597814 -8.013198055487635)"><path d="M0 0 C7.8 -5.93, 15.61 -11.86, 21.09 -16.03 M0 0 C7.25 -5.51, 14.5 -11.02, 21.09 -16.03" stroke="#E1E1E1" stroke-width="4" fill="none"></path></g></g><mask></mask></svg>