<svg version="1.1" xmlns="http://www.w3.org/2000/svg" viewBox="0 0 280.1332158427813 280.7241492253388" width="280.1332158427813" height="280.7241492253388" class="excalidraw-svg"><!-- svg-source:excalidraw --><metadata></metadata><defs><style class="style-fonts">
      </style></defs><rect x="0" y="0" width="280.1332158427813" height="280.7241492253388" fill="#000000"></rect><g stroke-linecap="round"><g transform="translate(108.45964894637109 214.45326862085494) rotate(0 31.354332517192233 -12.885958486616346)"><path d="M0 0 C1.6 3.03, 6.21 11.83, 9.62 18.19 C13.03 24.55, 17.7 33.06, 20.46 38.17 C23.22 43.28, 24.46 46.26, 26.18 48.86 C27.91 51.46, 29.04 52.56, 30.82 53.77 C32.59 54.98, 34.72 55.81, 36.85 56.11 C38.98 56.41, 41.3 56.32, 43.6 55.59 C45.91 54.85, 47.93 53.87, 50.68 51.71 C53.42 49.55, 57.25 45.42, 60.08 42.64 C62.91 39.87, 65.99 37.14, 67.65 35.07 C69.31 33, 68.89 32.88, 70.03 30.2 C71.17 27.52, 72.64 23.7, 74.49 19 C76.33 14.29, 79.22 6.7, 81.08 1.98 C82.95 -2.75, 84.77 -7.1, 85.68 -9.36 C86.6 -11.61, 86.18 -11.37, 86.56 -11.54 C86.95 -11.7, 87.2 -11.04, 87.99 -10.35 C88.78 -9.65, 90.16 -8.38, 91.31 -7.39 C92.45 -6.39, 93.41 -5.05, 94.86 -4.37 C96.3 -3.68, 98.31 -3.17, 99.98 -3.26 C101.65 -3.36, 102.68 -3.38, 104.87 -4.94 C107.06 -6.5, 108.24 -8.02, 113.11 -12.62 C117.98 -17.22, 127.16 -26, 134.07 -32.53 C140.98 -39.07, 150.41 -47.69, 154.58 -51.81 C158.76 -55.94, 158.06 -55.34, 159.1 -57.28 C160.14 -59.21, 160.65 -61.36, 160.8 -63.41 C160.95 -65.45, 160.71 -67.51, 159.99 -69.55 C159.27 -71.59, 158.12 -73.9, 156.48 -75.65 C154.84 -77.41, 152.94 -79.17, 150.15 -80.08 C147.36 -80.98, 147.05 -80.9, 139.73 -81.11 C132.42 -81.31, 119.39 -81.29, 106.27 -81.31 C93.14 -81.34, 83.29 -81.2, 60.96 -81.26 C38.64 -81.32, -6.17 -81.6, -27.67 -81.7 C-49.18 -81.8, -58.62 -81.88, -68.05 -81.88 C-77.47 -81.88, -80.49 -82.07, -84.21 -81.7 C-87.94 -81.32, -88.56 -80.73, -90.4 -79.63 C-92.24 -78.53, -93.96 -76.95, -95.24 -75.1 C-96.52 -73.24, -97.65 -70.65, -98.09 -68.49 C-98.53 -66.33, -98.7 -64.59, -97.9 -62.13 C-97.1 -59.68, -96.52 -58.41, -93.31 -53.78 C-90.09 -49.14, -82.5 -39.41, -78.63 -34.33 C-74.76 -29.25, -72.34 -25.75, -70.1 -23.3 C-67.86 -20.84, -66.95 -20.23, -65.17 -19.58 C-63.39 -18.93, -61.27 -18.84, -59.42 -19.39 C-57.57 -19.94, -56.95 -20.44, -54.09 -22.91 C-51.24 -25.37, -44.27 -32.28, -42.3 -34.16 M0 0 C1.6 3.03, 6.21 11.83, 9.62 18.19 C13.03 24.55, 17.7 33.06, 20.46 38.17 C23.22 43.28, 24.46 46.26, 26.18 48.86 C27.91 51.46, 29.04 52.56, 30.82 53.77 C32.59 54.98, 34.72 55.81, 36.85 56.11 C38.98 56.41, 41.3 56.32, 43.6 55.59 C45.91 54.85, 47.93 53.87, 50.68 51.71 C53.42 49.55, 57.25 45.42, 60.08 42.64 C62.91 39.87, 65.99 37.14, 67.65 35.07 C69.31 33, 68.89 32.88, 70.03 30.2 C71.17 27.52, 72.64 23.7, 74.49 19 C76.33 14.29, 79.22 6.7, 81.08 1.98 C82.95 -2.75, 84.77 -7.1, 85.68 -9.36 C86.6 -11.61, 86.18 -11.37, 86.56 -11.54 C86.95 -11.7, 87.2 -11.04, 87.99 -10.35 C88.78 -9.65, 90.16 -8.38, 91.31 -7.39 C92.45 -6.39, 93.41 -5.05, 94.86 -4.37 C96.3 -3.68, 98.31 -3.17, 99.98 -3.26 C101.65 -3.36, 102.68 -3.38, 104.87 -4.94 C107.06 -6.5, 108.24 -8.02, 113.11 -12.62 C117.98 -17.22, 127.16 -26, 134.07 -32.53 C140.98 -39.07, 150.41 -47.69, 154.58 -51.81 C158.76 -55.94, 158.06 -55.34, 159.1 -57.28 C160.14 -59.21, 160.65 -61.36, 160.8 -63.41 C160.95 -65.45, 160.71 -67.51, 159.99 -69.55 C159.27 -71.59, 158.12 -73.9, 156.48 -75.65 C154.84 -77.41, 152.94 -79.17, 150.15 -80.08 C147.36 -80.98, 147.05 -80.9, 139.73 -81.11 C132.42 -81.31, 119.39 -81.29, 106.27 -81.31 C93.14 -81.34, 83.29 -81.2, 60.96 -81.26 C38.64 -81.32, -6.17 -81.6, -27.67 -81.7 C-49.18 -81.8, -58.62 -81.88, -68.05 -81.88 C-77.47 -81.88, -80.49 -82.07, -84.21 -81.7 C-87.94 -81.32, -88.56 -80.73, -90.4 -79.63 C-92.24 -78.53, -93.96 -76.95, -95.24 -75.1 C-96.52 -73.24, -97.65 -70.65, -98.09 -68.49 C-98.53 -66.33, -98.7 -64.59, -97.9 -62.13 C-97.1 -59.68, -96.52 -58.41, -93.31 -53.78 C-90.09 -49.14, -82.5 -39.41, -78.63 -34.33 C-74.76 -29.25, -72.34 -25.75, -70.1 -23.3 C-67.86 -20.84, -66.95 -20.23, -65.17 -19.58 C-63.39 -18.93, -61.27 -18.84, -59.42 -19.39 C-57.57 -19.94, -56.95 -20.44, -54.09 -22.91 C-51.24 -25.37, -44.27 -32.28, -42.3 -34.16" stroke="#E1E1E1" stroke-width="2" fill="none"></path></g></g><mask></mask><g stroke-linecap="round"><g transform="translate(66.31456039624027 180.35731624371056) rotate(0 21.087603519764343 21.904015922876624)"><path d="M0 0 C1.33 2.7, 5.28 10.71, 7.99 16.21 C10.7 21.72, 14.23 29, 16.25 33.02 C18.27 37.05, 18.68 38.6, 20.12 40.36 C21.56 42.13, 23.33 43.05, 24.89 43.62 C26.45 44.19, 28 44.08, 29.49 43.81 C30.99 43.53, 31.77 43.6, 33.88 41.97 C36 40.35, 40.79 35.38, 42.18 34.06 M0 0 C1.33 2.7, 5.28 10.71, 7.99 16.21 C10.7 21.72, 14.23 29, 16.25 33.02 C18.27 37.05, 18.68 38.6, 20.12 40.36 C21.56 42.13, 23.33 43.05, 24.89 43.62 C26.45 44.19, 28 44.08, 29.49 43.81 C30.99 43.53, 31.77 43.6, 33.88 41.97 C36 40.35, 40.79 35.38, 42.18 34.06" stroke="#E1E1E1" stroke-width="2" fill="none"></path></g></g><mask></mask><g stroke-linecap="round"><g transform="translate(89.61048082775415 214.40443006219903) rotate(0 8.775075029110667 -16.144090588483323)"><path d="M0 0 C1.32 -2.63, 5.75 -11.31, 7.94 -15.75 C10.13 -20.19, 11.89 -24, 13.14 -26.64 C14.4 -29.29, 14.85 -30.68, 15.47 -31.62 C16.08 -32.56, 16.56 -32.75, 16.84 -32.29 C17.12 -31.83, 17.1 -31.8, 17.15 -28.85 C17.21 -25.89, 17.11 -18.26, 17.17 -14.55 C17.24 -10.83, 17.49 -7.89, 17.55 -6.56 M0 0 C1.32 -2.63, 5.75 -11.31, 7.94 -15.75 C10.13 -20.19, 11.89 -24, 13.14 -26.64 C14.4 -29.29, 14.85 -30.68, 15.47 -31.62 C16.08 -32.56, 16.56 -32.75, 16.84 -32.29 C17.12 -31.83, 17.1 -31.8, 17.15 -28.85 C17.21 -25.89, 17.11 -18.26, 17.17 -14.55 C17.24 -10.83, 17.49 -7.89, 17.55 -6.56" stroke="#E1E1E1" stroke-width="2" fill="none"></path></g></g><mask></mask><g stroke-linecap="round"><g transform="translate(107.21982435968675 207.9674972446628) rotate(0 -8.815109262538499 5.201304798673846)"><path d="M0 0 C-0.66 0.51, -2.46 1.73, -3.94 3.04 C-5.42 4.34, -7.61 6.69, -8.89 7.85 C-10.18 9.02, -10.7 9.6, -11.63 10.03 C-12.57 10.45, -13.64 10.71, -14.48 10.4 C-15.33 10.09, -16.17 8.81, -16.7 8.17 C-17.22 7.54, -17.47 6.84, -17.63 6.58 M0 0 C-0.66 0.51, -2.46 1.73, -3.94 3.04 C-5.42 4.34, -7.61 6.69, -8.89 7.85 C-10.18 9.02, -10.7 9.6, -11.63 10.03 C-12.57 10.45, -13.64 10.71, -14.48 10.4 C-15.33 10.09, -16.17 8.81, -16.7 8.17 C-17.22 7.54, -17.47 6.84, -17.63 6.58" stroke="#E1E1E1" stroke-width="2" fill="none"></path></g></g><mask></mask><g stroke-linecap="round"><g transform="translate(149.45618559674404 263.8686985722188) rotate(0 4.8890103987832845 -22.09289669027703)"><path d="M0 0 C1.63 -7.36, 8.15 -36.82, 9.78 -44.19 M0 0 C1.63 -7.36, 8.15 -36.82, 9.78 -44.19" stroke="#E1E1E1" stroke-width="2" fill="none"></path></g></g><mask></mask><g stroke-linecap="round"><g transform="translate(159.23420639430879 219.68290519166385) rotate(0 21.59534865641399 -9.336505284722534)"><path d="M0 0 C3.66 -4.56, 16.56 -20.66, 21.94 -27.34 C27.33 -34.01, 29.84 -37.15, 32.3 -40.06 C34.75 -42.96, 35.69 -44.39, 36.66 -44.77 C37.62 -45.16, 37.33 -45.16, 38.07 -42.35 C38.8 -39.53, 40.21 -31.88, 41.06 -27.89 C41.92 -23.9, 43.16 -19.67, 43.19 -18.44 C43.22 -17.2, 42.09 -19.71, 41.22 -20.47 C40.36 -21.24, 38.98 -22.48, 38 -23.05 C37.01 -23.62, 36.26 -23.92, 35.32 -23.91 C34.37 -23.91, 33.31 -23.83, 32.32 -23 C31.34 -22.18, 30.86 -22.11, 29.42 -18.96 C27.98 -15.81, 25.91 -9.94, 23.67 -4.1 C21.43 1.74, 17.98 11.06, 15.98 16.09 C13.98 21.12, 12.4 24.43, 11.68 26.1 M0 0 C3.66 -4.56, 16.56 -20.66, 21.94 -27.34 C27.33 -34.01, 29.84 -37.15, 32.3 -40.06 C34.75 -42.96, 35.69 -44.39, 36.66 -44.77 C37.62 -45.16, 37.33 -45.16, 38.07 -42.35 C38.8 -39.53, 40.21 -31.88, 41.06 -27.89 C41.92 -23.9, 43.16 -19.67, 43.19 -18.44 C43.22 -17.2, 42.09 -19.71, 41.22 -20.47 C40.36 -21.24, 38.98 -22.48, 38 -23.05 C37.01 -23.62, 36.26 -23.92, 35.32 -23.91 C34.37 -23.91, 33.31 -23.83, 32.32 -23 C31.34 -22.18, 30.86 -22.11, 29.42 -18.96 C27.98 -15.81, 25.91 -9.94, 23.67 -4.1 C21.43 1.74, 17.98 11.06, 15.98 16.09 C13.98 21.12, 12.4 24.43, 11.68 26.1" stroke="#E1E1E1" stroke-width="2" fill="none"></path></g></g><mask></mask><g stroke-linecap="round"><g transform="translate(170.8267124095637 245.87361233115007) rotate(0 -10.726768977534448 9.125518631502473)"><path d="M0 0 C-1.79 1.71, -7.65 7.36, -10.74 10.23 C-13.84 13.11, -16.8 15.9, -18.59 17.23 C-20.37 18.57, -20.98 18.08, -21.45 18.25 M0 0 C-1.79 1.71, -7.65 7.36, -10.74 10.23 C-13.84 13.11, -16.8 15.9, -18.59 17.23 C-20.37 18.57, -20.98 18.08, -21.45 18.25" stroke="#E1E1E1" stroke-width="2" fill="none"></path></g></g><mask></mask><g stroke-linecap="round" transform="translate(10.634940030682628 11.5188736650789) rotate(0 23.528641502851315 23.52864150285086)"><path d="M47.06 23.53 C47.06 24.89, 46.94 26.27, 46.7 27.61 C46.46 28.96, 46.1 30.3, 45.64 31.58 C45.17 32.86, 44.59 34.11, 43.91 35.29 C43.22 36.47, 42.43 37.61, 41.55 38.65 C40.68 39.7, 39.7 40.68, 38.65 41.55 C37.61 42.43, 36.47 43.22, 35.29 43.91 C34.11 44.59, 32.86 45.17, 31.58 45.64 C30.3 46.1, 28.96 46.46, 27.61 46.7 C26.27 46.94, 24.89 47.06, 23.53 47.06 C22.17 47.06, 20.78 46.94, 19.44 46.7 C18.1 46.46, 16.76 46.1, 15.48 45.64 C14.2 45.17, 12.94 44.59, 11.76 43.91 C10.58 43.22, 9.45 42.43, 8.4 41.55 C7.36 40.68, 6.38 39.7, 5.5 38.65 C4.63 37.61, 3.83 36.47, 3.15 35.29 C2.47 34.11, 1.88 32.86, 1.42 31.58 C0.95 30.3, 0.59 28.96, 0.36 27.61 C0.12 26.27, 0 24.89, 0 23.53 C0 22.17, 0.12 20.78, 0.36 19.44 C0.59 18.1, 0.95 16.76, 1.42 15.48 C1.88 14.2, 2.47 12.94, 3.15 11.76 C3.83 10.58, 4.63 9.45, 5.5 8.4 C6.38 7.36, 7.36 6.38, 8.4 5.5 C9.45 4.63, 10.58 3.83, 11.76 3.15 C12.94 2.47, 14.2 1.88, 15.48 1.42 C16.76 0.95, 18.1 0.59, 19.44 0.36 C20.78 0.12, 22.17 0, 23.53 0 C24.89 0, 26.27 0.12, 27.61 0.36 C28.96 0.59, 30.3 0.95, 31.58 1.42 C32.86 1.88, 34.11 2.47, 35.29 3.15 C36.47 3.83, 37.61 4.63, 38.65 5.5 C39.7 6.38, 40.68 7.36, 41.55 8.4 C42.43 9.45, 43.22 10.58, 43.91 11.76 C44.59 12.94, 45.17 14.2, 45.64 15.48 C46.1 16.76, 46.46 18.1, 46.7 19.44 C46.94 20.78, 47 22.85, 47.06 23.53 C47.12 24.21, 47.12 22.85, 47.06 23.53" stroke="#E1E1E1" stroke-width="2" fill="none"></path></g><g stroke-linecap="round" transform="translate(118.3041349179457 33.32613372772266) rotate(0 21.638693249411517 21.638693249411517)"><path d="M43.28 21.64 C43.28 22.89, 43.17 24.16, 42.95 25.4 C42.73 26.63, 42.4 27.86, 41.97 29.04 C41.54 30.22, 41 31.37, 40.38 32.46 C39.75 33.54, 39.02 34.59, 38.21 35.55 C37.41 36.51, 36.51 37.41, 35.55 38.21 C34.59 39.02, 33.54 39.75, 32.46 40.38 C31.37 41, 30.22 41.54, 29.04 41.97 C27.86 42.4, 26.63 42.73, 25.4 42.95 C24.16 43.17, 22.89 43.28, 21.64 43.28 C20.39 43.28, 19.11 43.17, 17.88 42.95 C16.65 42.73, 15.41 42.4, 14.24 41.97 C13.06 41.54, 11.9 41, 10.82 40.38 C9.73 39.75, 8.69 39.02, 7.73 38.21 C6.77 37.41, 5.87 36.51, 5.06 35.55 C4.26 34.59, 3.53 33.54, 2.9 32.46 C2.27 31.37, 1.73 30.22, 1.3 29.04 C0.88 27.86, 0.55 26.63, 0.33 25.4 C0.11 24.16, 0 22.89, 0 21.64 C0 20.39, 0.11 19.11, 0.33 17.88 C0.55 16.65, 0.88 15.41, 1.3 14.24 C1.73 13.06, 2.27 11.9, 2.9 10.82 C3.53 9.73, 4.26 8.69, 5.06 7.73 C5.87 6.77, 6.77 5.87, 7.73 5.06 C8.69 4.26, 9.73 3.53, 10.82 2.9 C11.9 2.27, 13.06 1.73, 14.24 1.3 C15.41 0.88, 16.65 0.55, 17.88 0.33 C19.11 0.11, 20.39 0, 21.64 0 C22.89 0, 24.16 0.11, 25.4 0.33 C26.63 0.55, 27.86 0.88, 29.04 1.3 C30.22 1.73, 31.37 2.27, 32.46 2.9 C33.54 3.53, 34.59 4.26, 35.55 5.06 C36.51 5.87, 37.41 6.77, 38.21 7.73 C39.02 8.69, 39.75 9.73, 40.38 10.82 C41 11.9, 41.54 13.06, 41.97 14.24 C42.4 15.41, 42.73 16.65, 42.95 17.88 C43.17 19.11, 43.22 21.01, 43.28 21.64 C43.33 22.26, 43.33 21.01, 43.28 21.64" stroke="#E1E1E1" stroke-width="2" fill="none"></path></g><g stroke-linecap="round"><g transform="translate(98.50154970033691 79.60925544797556) rotate(0 41.684722280662754 -12.490526599277018)"><path d="M0 0 C-0.57 -2.28, -2.83 -8.68, -3.45 -13.65 C-4.07 -18.62, -4.63 -24.34, -3.74 -29.82 C-2.86 -35.3, -0.73 -41.77, 1.88 -46.53 C4.49 -51.28, 7.94 -55.1, 11.9 -58.36 C15.86 -61.63, 20.72 -64.25, 25.61 -66.09 C30.51 -67.94, 36.04 -69.31, 41.28 -69.43 C46.52 -69.55, 51.76 -68.95, 57.04 -66.8 C62.32 -64.64, 68.58 -60.74, 72.96 -56.5 C77.33 -52.26, 80.92 -46.89, 83.28 -41.34 C85.64 -35.8, 87.29 -30.08, 87.11 -23.24 C86.94 -16.4, 84.25 -7, 82.21 -0.29 C80.17 6.41, 78.06 11.21, 74.89 17 C71.73 22.78, 67.46 29.99, 63.23 34.42 C59 38.85, 53.77 41.91, 49.51 43.58 C45.24 45.25, 41.76 45.12, 37.67 44.45 C33.57 43.77, 29.05 42.48, 24.93 39.54 C20.82 36.6, 16.52 31.7, 12.97 26.8 C9.42 21.9, 5.8 14.62, 3.64 10.16 C1.48 5.69, 0.61 1.69, 0 0 M0 0 C-0.57 -2.28, -2.83 -8.68, -3.45 -13.65 C-4.07 -18.62, -4.63 -24.34, -3.74 -29.82 C-2.86 -35.3, -0.73 -41.77, 1.88 -46.53 C4.49 -51.28, 7.94 -55.1, 11.9 -58.36 C15.86 -61.63, 20.72 -64.25, 25.61 -66.09 C30.51 -67.94, 36.04 -69.31, 41.28 -69.43 C46.52 -69.55, 51.76 -68.95, 57.04 -66.8 C62.32 -64.64, 68.58 -60.74, 72.96 -56.5 C77.33 -52.26, 80.92 -46.89, 83.28 -41.34 C85.64 -35.8, 87.29 -30.08, 87.11 -23.24 C86.94 -16.4, 84.25 -7, 82.21 -0.29 C80.17 6.41, 78.06 11.21, 74.89 17 C71.73 22.78, 67.46 29.99, 63.23 34.42 C59 38.85, 53.77 41.91, 49.51 43.58 C45.24 45.25, 41.76 45.12, 37.67 44.45 C33.57 43.77, 29.05 42.48, 24.93 39.54 C20.82 36.6, 16.52 31.7, 12.97 26.8 C9.42 21.9, 5.8 14.62, 3.64 10.16 C1.48 5.69, 0.61 1.69, 0 0" stroke="#E1E1E1" stroke-width="2" fill="none"></path></g></g><mask></mask><g stroke-linecap="round"><g transform="translate(56.15405423908851 85.8903348036174) rotate(0 9.684661543120455 13.6018812025859)"><path d="M0 0 C2.3 -0.63, 10.44 -2.93, 13.8 -3.8 C17.17 -4.67, 18.27 -5.3, 20.21 -5.24 C22.15 -5.19, 24.04 -4.63, 25.45 -3.45 C26.85 -2.26, 28.42 -0.52, 28.63 1.88 C28.84 4.29, 27.72 6.92, 26.7 10.97 C25.68 15.01, 23.69 22.8, 22.52 26.15 C21.35 29.5, 21.12 30.02, 19.69 31.07 C18.26 32.12, 15.85 32.52, 13.96 32.45 C12.06 32.38, 10.99 32.61, 8.32 30.64 C5.65 28.66, 0.64 23.26, -2.05 20.6 C-4.73 17.94, -6.59 16.72, -7.79 14.66 C-8.99 12.6, -9.48 10.25, -9.26 8.22 C-9.05 6.2, -8.04 3.86, -6.49 2.49 C-4.95 1.12, -1.08 0.41, 0 0 M0 0 C2.3 -0.63, 10.44 -2.93, 13.8 -3.8 C17.17 -4.67, 18.27 -5.3, 20.21 -5.24 C22.15 -5.19, 24.04 -4.63, 25.45 -3.45 C26.85 -2.26, 28.42 -0.52, 28.63 1.88 C28.84 4.29, 27.72 6.92, 26.7 10.97 C25.68 15.01, 23.69 22.8, 22.52 26.15 C21.35 29.5, 21.12 30.02, 19.69 31.07 C18.26 32.12, 15.85 32.52, 13.96 32.45 C12.06 32.38, 10.99 32.61, 8.32 30.64 C5.65 28.66, 0.64 23.26, -2.05 20.6 C-4.73 17.94, -6.59 16.72, -7.79 14.66 C-8.99 12.6, -9.48 10.25, -9.26 8.22 C-9.05 6.2, -8.04 3.86, -6.49 2.49 C-4.95 1.12, -1.08 0.41, 0 0" stroke="#E1E1E1" stroke-width="2" fill="none"></path></g></g><mask></mask><g stroke-linecap="round"><g transform="translate(201.77878870056702 85.64158817714724) rotate(0 12.614725361438104 11.545492288879359)"><path d="M0 0 C1.42 -1.35, 6.14 -6.62, 8.53 -8.12 C10.92 -9.62, 12.53 -9.31, 14.31 -9 C16.09 -8.68, 16.55 -8.6, 19.23 -6.23 C21.9 -3.85, 27.97 2.63, 30.35 5.27 C32.73 7.92, 33.02 8, 33.5 9.64 C33.99 11.29, 34.43 12.95, 33.24 15.13 C32.06 17.3, 29.23 19.88, 26.41 22.7 C23.58 25.53, 19.19 30.53, 16.29 32.09 C13.39 33.64, 11.62 33.28, 9.02 32.04 C6.42 30.79, 3.37 27.2, 0.69 24.62 C-1.98 22.03, -5.55 18.95, -7.04 16.54 C-8.53 14.13, -8.74 12.2, -8.28 10.16 C-7.81 8.12, -5.6 5.97, -4.22 4.28 C-2.84 2.59, -0.7 0.71, 0 0 M0 0 C1.42 -1.35, 6.14 -6.62, 8.53 -8.12 C10.92 -9.62, 12.53 -9.31, 14.31 -9 C16.09 -8.68, 16.55 -8.6, 19.23 -6.23 C21.9 -3.85, 27.97 2.63, 30.35 5.27 C32.73 7.92, 33.02 8, 33.5 9.64 C33.99 11.29, 34.43 12.95, 33.24 15.13 C32.06 17.3, 29.23 19.88, 26.41 22.7 C23.58 25.53, 19.19 30.53, 16.29 32.09 C13.39 33.64, 11.62 33.28, 9.02 32.04 C6.42 30.79, 3.37 27.2, 0.69 24.62 C-1.98 22.03, -5.55 18.95, -7.04 16.54 C-8.53 14.13, -8.74 12.2, -8.28 10.16 C-7.81 8.12, -5.6 5.97, -4.22 4.28 C-2.84 2.59, -0.7 0.71, 0 0" stroke="#E1E1E1" stroke-width="2" fill="none"></path></g></g><mask></mask><g stroke-linecap="round"><g transform="translate(225.31646368559268 34.27604212125152) rotate(0 22.381585444384655 -1.4440422648594904)"><path d="M0 0 C0 -2.66, -0.4 -12.41, 0 -15.94 C0.4 -19.47, 1.37 -19.92, 2.39 -21.18 C3.42 -22.43, 4.43 -23, 6.15 -23.49 C7.88 -23.98, 8.87 -24.01, 12.72 -24.11 C16.58 -24.22, 25.21 -24.11, 29.29 -24.11 C33.36 -24.11, 35.1 -24.48, 37.18 -24.11 C39.26 -23.74, 40.56 -22.92, 41.77 -21.9 C42.98 -20.87, 43.96 -20.08, 44.46 -17.97 C44.96 -15.85, 44.71 -13.91, 44.76 -9.21 C44.81 -4.51, 44.85 6.2, 44.76 10.26 C44.67 14.32, 44.72 13.78, 44.23 15.17 C43.73 16.57, 43 17.69, 41.81 18.62 C40.63 19.56, 40.07 20.35, 37.1 20.79 C34.14 21.22, 28.84 21.2, 24.01 21.22 C19.18 21.24, 11.53 21.23, 8.13 20.9 C4.74 20.57, 4.89 20.17, 3.64 19.25 C2.38 18.33, 1.21 16.83, 0.61 15.36 C0.01 13.89, 0.16 12.99, 0.05 10.43 C-0.05 7.87, 0.01 1.74, 0 0 M0 0 C0 -2.66, -0.4 -12.41, 0 -15.94 C0.4 -19.47, 1.37 -19.92, 2.39 -21.18 C3.42 -22.43, 4.43 -23, 6.15 -23.49 C7.88 -23.98, 8.87 -24.01, 12.72 -24.11 C16.58 -24.22, 25.21 -24.11, 29.29 -24.11 C33.36 -24.11, 35.1 -24.48, 37.18 -24.11 C39.26 -23.74, 40.56 -22.92, 41.77 -21.9 C42.98 -20.87, 43.96 -20.08, 44.46 -17.97 C44.96 -15.85, 44.71 -13.91, 44.76 -9.21 C44.81 -4.51, 44.85 6.2, 44.76 10.26 C44.67 14.32, 44.72 13.78, 44.23 15.17 C43.73 16.57, 43 17.69, 41.81 18.62 C40.63 19.56, 40.07 20.35, 37.1 20.79 C34.14 21.22, 28.84 21.2, 24.01 21.22 C19.18 21.24, 11.53 21.23, 8.13 20.9 C4.74 20.57, 4.89 20.17, 3.64 19.25 C2.38 18.33, 1.21 16.83, 0.61 15.36 C0.01 13.89, 0.16 12.99, 0.05 10.43 C-0.05 7.87, 0.01 1.74, 0 0" stroke="#E1E1E1" stroke-width="2" fill="none"></path></g></g><mask></mask><g stroke-linecap="round"><g transform="translate(18.68153564462591 155.04344154841965) rotate(0 20.770688783815785 17.046902057622447)"><path d="M0 0 C5.56 2.94, 26.95 14.25, 33.37 17.64 C39.8 21.04, 37.18 19.61, 38.54 20.36 C39.9 21.11, 41.23 21.56, 41.54 22.12 C41.85 22.69, 41.73 22.46, 40.41 23.75 C39.09 25.03, 35.33 28.3, 33.65 29.84 C31.97 31.38, 31.29 32.28, 30.32 32.99 C29.36 33.7, 28.72 34.1, 27.85 34.09 C26.98 34.09, 26.44 34.31, 25.11 32.94 C23.78 31.57, 22.31 29.09, 19.86 25.88 C17.41 22.66, 13.75 17.97, 10.44 13.66 C7.13 9.35, 1.74 2.28, 0 0 M0 0 C5.56 2.94, 26.95 14.25, 33.37 17.64 C39.8 21.04, 37.18 19.61, 38.54 20.36 C39.9 21.11, 41.23 21.56, 41.54 22.12 C41.85 22.69, 41.73 22.46, 40.41 23.75 C39.09 25.03, 35.33 28.3, 33.65 29.84 C31.97 31.38, 31.29 32.28, 30.32 32.99 C29.36 33.7, 28.72 34.1, 27.85 34.09 C26.98 34.09, 26.44 34.31, 25.11 32.94 C23.78 31.57, 22.31 29.09, 19.86 25.88 C17.41 22.66, 13.75 17.97, 10.44 13.66 C7.13 9.35, 1.74 2.28, 0 0" stroke="#E1E1E1" stroke-width="2" fill="none"></path></g></g><mask></mask></svg>