<svg version="1.1" xmlns="http://www.w3.org/2000/svg" viewBox="0 0 325.7102189968573 363.39263653957005" width="325.7102189968573" height="363.39263653957005" class="excalidraw-svg"><!-- svg-source:excalidraw --><metadata></metadata><defs><style class="style-fonts">
      </style></defs><rect x="0" y="0" width="325.7102189968573" height="363.39263653957005" fill="#000000"></rect><g stroke-linecap="round"><g transform="translate(133.48586222491576 283.0560820288474) rotate(0 20.465729608794845 3.4447387835693917)"><path d="M0 0 C0.71 -0.65, 2.74 -2.55, 4.26 -3.88 C5.78 -5.21, 7.48 -6.67, 9.13 -7.98 C10.77 -9.29, 12.52 -10.59, 14.14 -11.74 C15.76 -12.88, 17.5 -13.98, 18.83 -14.85 C20.16 -15.72, 21.5 -16.28, 22.1 -16.97 C22.7 -17.66, 22.62 -18.4, 22.45 -18.97 C22.28 -19.54, 21.64 -20.07, 21.09 -20.38 C20.55 -20.68, 19.89 -21, 19.18 -20.8 C18.47 -20.61, 18.06 -20.07, 16.84 -19.23 C15.61 -18.38, 13.54 -17, 11.84 -15.74 C10.13 -14.48, 8.54 -13.24, 6.6 -11.67 C4.66 -10.09, 2.17 -8.09, 0.22 -6.3 C-1.73 -4.52, -3.5 -2.71, -5.11 -0.96 C-6.72 0.8, -8.22 2.33, -9.45 4.22 C-10.69 6.11, -11.9 8.5, -12.51 10.37 C-13.12 12.25, -13.33 13.78, -13.12 15.47 C-12.9 17.16, -12.39 19.01, -11.23 20.5 C-10.06 21.99, -8.07 23.38, -6.1 24.43 C-4.14 25.48, -2.01 26.23, 0.56 26.78 C3.14 27.32, 5.28 27.74, 9.34 27.69 C13.39 27.65, 19.72 27.16, 24.91 26.53 C30.11 25.89, 36.64 24.64, 40.5 23.88 C44.37 23.12, 46.2 22.42, 48.1 21.96 C50 21.5, 50.9 21.32, 51.89 21.1 C52.88 20.88, 53.69 20.72, 54.05 20.64 M0 0 C0.71 -0.65, 2.74 -2.55, 4.26 -3.88 C5.78 -5.21, 7.48 -6.67, 9.13 -7.98 C10.77 -9.29, 12.52 -10.59, 14.14 -11.74 C15.76 -12.88, 17.5 -13.98, 18.83 -14.85 C20.16 -15.72, 21.5 -16.28, 22.1 -16.97 C22.7 -17.66, 22.62 -18.4, 22.45 -18.97 C22.28 -19.54, 21.64 -20.07, 21.09 -20.38 C20.55 -20.68, 19.89 -21, 19.18 -20.8 C18.47 -20.61, 18.06 -20.07, 16.84 -19.23 C15.61 -18.38, 13.54 -17, 11.84 -15.74 C10.13 -14.48, 8.54 -13.24, 6.6 -11.67 C4.66 -10.09, 2.17 -8.09, 0.22 -6.3 C-1.73 -4.52, -3.5 -2.71, -5.11 -0.96 C-6.72 0.8, -8.22 2.33, -9.45 4.22 C-10.69 6.11, -11.9 8.5, -12.51 10.37 C-13.12 12.25, -13.33 13.78, -13.12 15.47 C-12.9 17.16, -12.39 19.01, -11.23 20.5 C-10.06 21.99, -8.07 23.38, -6.1 24.43 C-4.14 25.48, -2.01 26.23, 0.56 26.78 C3.14 27.32, 5.28 27.74, 9.34 27.69 C13.39 27.65, 19.72 27.16, 24.91 26.53 C30.11 25.89, 36.64 24.64, 40.5 23.88 C44.37 23.12, 46.2 22.42, 48.1 21.96 C50 21.5, 50.9 21.32, 51.89 21.1 C52.88 20.88, 53.69 20.72, 54.05 20.64" stroke="#E1E1E1" stroke-width="2" fill="none"></path></g></g><mask></mask><g stroke-linecap="round"><g transform="translate(187.76538078109388 303.8274442048396) rotate(0 27.971570232415615 18.512861311091)"><path d="M0 0 C1.84 1.91, 6.71 7.03, 11.05 11.43 C15.39 15.84, 22.03 22.52, 26.04 26.42 C30.04 30.33, 32.64 33.1, 35.09 34.87 C37.54 36.63, 38.82 36.74, 40.74 37.03 C42.66 37.31, 44.82 37.12, 46.61 36.59 C48.39 36.05, 50.1 35, 51.44 33.79 C52.77 32.58, 53.88 30.89, 54.63 29.32 C55.38 27.75, 55.82 26.05, 55.94 24.35 C56.06 22.65, 55.94 20.86, 55.34 19.12 C54.74 17.39, 52.85 14.79, 52.35 13.92 M0 0 C1.84 1.91, 6.71 7.03, 11.05 11.43 C15.39 15.84, 22.03 22.52, 26.04 26.42 C30.04 30.33, 32.64 33.1, 35.09 34.87 C37.54 36.63, 38.82 36.74, 40.74 37.03 C42.66 37.31, 44.82 37.12, 46.61 36.59 C48.39 36.05, 50.1 35, 51.44 33.79 C52.77 32.58, 53.88 30.89, 54.63 29.32 C55.38 27.75, 55.82 26.05, 55.94 24.35 C56.06 22.65, 55.94 20.86, 55.34 19.12 C54.74 17.39, 52.85 14.79, 52.35 13.92" stroke="#E1E1E1" stroke-width="2" fill="none"></path></g></g><mask></mask><g stroke-linecap="round"><g transform="translate(239.98558157116713 317.6034862407796) rotate(0 5.435477359654669 -16.159563371138574)"><path d="M0 0 C0.69 -0.08, 2.74 0.01, 4.11 -0.49 C5.49 -0.99, 7.08 -1.92, 8.23 -3.01 C9.38 -4.11, 10.44 -5.48, 11 -7.06 C11.56 -8.64, 11.95 -10.56, 11.58 -12.5 C11.21 -14.44, 9.99 -16.56, 8.77 -18.69 C7.54 -20.81, 5.81 -22.98, 4.23 -25.25 C2.65 -27.52, 0.12 -31.14, -0.71 -32.32 M0 0 C0.69 -0.08, 2.74 0.01, 4.11 -0.49 C5.49 -0.99, 7.08 -1.92, 8.23 -3.01 C9.38 -4.11, 10.44 -5.48, 11 -7.06 C11.56 -8.64, 11.95 -10.56, 11.58 -12.5 C11.21 -14.44, 9.99 -16.56, 8.77 -18.69 C7.54 -20.81, 5.81 -22.98, 4.23 -25.25 C2.65 -27.52, 0.12 -31.14, -0.71 -32.32" stroke="#E1E1E1" stroke-width="2" fill="none"></path></g></g><mask></mask><g stroke-linecap="round"><g transform="translate(239.21094017170526 285.23896371608316) rotate(0 32.27737233278003 -34.945406272231594)"><path d="M0 0 C3.86 -1.87, 16.68 -7.82, 23.18 -11.24 C29.68 -14.66, 34.4 -17.65, 38.99 -20.52 C43.58 -23.4, 47.09 -25.85, 50.69 -28.49 C54.29 -31.14, 57.84 -33.91, 60.59 -36.37 C63.34 -38.84, 65.17 -40.44, 67.2 -43.28 C69.23 -46.13, 71.84 -50.46, 72.76 -53.44 C73.67 -56.42, 73.39 -59.06, 72.69 -61.15 C71.99 -63.23, 70.59 -64.61, 68.54 -65.94 C66.49 -67.27, 63.88 -68.47, 60.4 -69.13 C56.93 -69.78, 52.15 -69.95, 47.69 -69.89 C43.22 -69.83, 39.23 -69.55, 33.59 -68.77 C27.96 -67.99, 19.44 -66.42, 13.87 -65.22 C8.3 -64.02, 3.59 -62.52, 0.16 -61.56 C-3.26 -60.61, -5.29 -60.18, -6.69 -59.5 C-8.08 -58.83, -8.03 -58.2, -8.2 -57.49 C-8.37 -56.77, -8.12 -55.68, -7.69 -55.24 C-7.26 -54.79, -7.04 -54.61, -5.64 -54.81 C-4.25 -55.02, -2.35 -55.65, 0.68 -56.48 C3.71 -57.32, 8.68 -58.82, 12.53 -59.81 C16.38 -60.8, 19.33 -61.61, 23.79 -62.42 C28.26 -63.24, 34.46 -64.26, 39.29 -64.71 C44.13 -65.16, 48.77 -65.35, 52.8 -65.12 C56.83 -64.89, 60.88 -64.3, 63.47 -63.34 C66.06 -62.38, 67.56 -60.87, 68.34 -59.37 C69.12 -57.86, 68.79 -56.23, 68.17 -54.31 C67.54 -52.4, 66.32 -50.17, 64.59 -47.87 C62.85 -45.58, 60.48 -43.09, 57.76 -40.53 C55.03 -37.97, 52.61 -35.68, 48.24 -32.51 C43.87 -29.34, 36.81 -24.69, 31.56 -21.51 C26.31 -18.32, 22.48 -16.33, 16.73 -13.39 C10.98 -10.46, 0.35 -5.48, -2.93 -3.89 M0 0 C3.86 -1.87, 16.68 -7.82, 23.18 -11.24 C29.68 -14.66, 34.4 -17.65, 38.99 -20.52 C43.58 -23.4, 47.09 -25.85, 50.69 -28.49 C54.29 -31.14, 57.84 -33.91, 60.59 -36.37 C63.34 -38.84, 65.17 -40.44, 67.2 -43.28 C69.23 -46.13, 71.84 -50.46, 72.76 -53.44 C73.67 -56.42, 73.39 -59.06, 72.69 -61.15 C71.99 -63.23, 70.59 -64.61, 68.54 -65.94 C66.49 -67.27, 63.88 -68.47, 60.4 -69.13 C56.93 -69.78, 52.15 -69.95, 47.69 -69.89 C43.22 -69.83, 39.23 -69.55, 33.59 -68.77 C27.96 -67.99, 19.44 -66.42, 13.87 -65.22 C8.3 -64.02, 3.59 -62.52, 0.16 -61.56 C-3.26 -60.61, -5.29 -60.18, -6.69 -59.5 C-8.08 -58.83, -8.03 -58.2, -8.2 -57.49 C-8.37 -56.77, -8.12 -55.68, -7.69 -55.24 C-7.26 -54.79, -7.04 -54.61, -5.64 -54.81 C-4.25 -55.02, -2.35 -55.65, 0.68 -56.48 C3.71 -57.32, 8.68 -58.82, 12.53 -59.81 C16.38 -60.8, 19.33 -61.61, 23.79 -62.42 C28.26 -63.24, 34.46 -64.26, 39.29 -64.71 C44.13 -65.16, 48.77 -65.35, 52.8 -65.12 C56.83 -64.89, 60.88 -64.3, 63.47 -63.34 C66.06 -62.38, 67.56 -60.87, 68.34 -59.37 C69.12 -57.86, 68.79 -56.23, 68.17 -54.31 C67.54 -52.4, 66.32 -50.17, 64.59 -47.87 C62.85 -45.58, 60.48 -43.09, 57.76 -40.53 C55.03 -37.97, 52.61 -35.68, 48.24 -32.51 C43.87 -29.34, 36.81 -24.69, 31.56 -21.51 C26.31 -18.32, 22.48 -16.33, 16.73 -13.39 C10.98 -10.46, 0.35 -5.48, -2.93 -3.89" stroke="#E1E1E1" stroke-width="2" fill="none"></path></g></g><mask></mask><g stroke-linecap="round"><g transform="translate(236.18447375769847 281.2035942446746) rotate(0 -1.4510871091461013 -1.8342809195664813)"><path d="M0 0 C-0.48 -0.61, -2.42 -3.06, -2.9 -3.67 M0 0 C-0.48 -0.61, -2.42 -3.06, -2.9 -3.67" stroke="#E1E1E1" stroke-width="2" fill="none"></path></g></g><mask></mask><g stroke-linecap="round"><g transform="translate(233.28229953940627 277.53503240554164) rotate(0 -3.5136821108799268 -25.277197028833143)"><path d="M0 0 C0.49 -0.34, 2 -1.16, 2.95 -2.04 C3.9 -2.91, 5 -3.89, 5.7 -5.25 C6.4 -6.61, 7.06 -7.6, 7.15 -10.19 C7.25 -12.78, 6.91 -17.19, 6.27 -20.8 C5.63 -24.4, 4.46 -28.68, 3.29 -31.85 C2.11 -35.02, 0.58 -37.67, -0.78 -39.8 C-2.14 -41.93, -3.16 -43.1, -4.85 -44.63 C-6.54 -46.15, -9.37 -47.98, -10.93 -48.96 C-12.48 -49.95, -13.64 -50.29, -14.18 -50.55 M0 0 C0.49 -0.34, 2 -1.16, 2.95 -2.04 C3.9 -2.91, 5 -3.89, 5.7 -5.25 C6.4 -6.61, 7.06 -7.6, 7.15 -10.19 C7.25 -12.78, 6.91 -17.19, 6.27 -20.8 C5.63 -24.4, 4.46 -28.68, 3.29 -31.85 C2.11 -35.02, 0.58 -37.67, -0.78 -39.8 C-2.14 -41.93, -3.16 -43.1, -4.85 -44.63 C-6.54 -46.15, -9.37 -47.98, -10.93 -48.96 C-12.48 -49.95, -13.64 -50.29, -14.18 -50.55" stroke="#E1E1E1" stroke-width="2" fill="none"></path></g></g><mask></mask><g stroke-linecap="round"><g transform="translate(219.0042335567132 226.87139716023648) rotate(0 8.061149994121934 -8.033111422627826)"><path d="M0 0 C0.81 -0.4, 3.1 -1.17, 4.85 -2.39 C6.61 -3.61, 8.66 -5.03, 10.54 -7.31 C12.42 -9.59, 15.19 -14.61, 16.12 -16.07 M0 0 C0.81 -0.4, 3.1 -1.17, 4.85 -2.39 C6.61 -3.61, 8.66 -5.03, 10.54 -7.31 C12.42 -9.59, 15.19 -14.61, 16.12 -16.07" stroke="#E1E1E1" stroke-width="2" fill="none"></path></g></g><mask></mask><g stroke-linecap="round"><g transform="translate(235.2503402242819 210.69690416011963) rotate(0 2.5419210572763404 -6.868721741486752)"><path d="M0 0 C0.33 -0.09, 1.33 -0.06, 1.95 -0.54 C2.57 -1.01, 3.2 -1.56, 3.72 -2.85 C4.24 -4.14, 4.94 -6.87, 5.08 -8.28 C5.23 -9.68, 5.12 -10.39, 4.58 -11.3 C4.04 -12.21, 2.32 -13.33, 1.86 -13.74 M0 0 C0.33 -0.09, 1.33 -0.06, 1.95 -0.54 C2.57 -1.01, 3.2 -1.56, 3.72 -2.85 C4.24 -4.14, 4.94 -6.87, 5.08 -8.28 C5.23 -9.68, 5.12 -10.39, 4.58 -11.3 C4.04 -12.21, 2.32 -13.33, 1.86 -13.74" stroke="#E1E1E1" stroke-width="2" fill="none"></path></g></g><mask></mask><g stroke-linecap="round"><g transform="translate(237.15696308588485 197.01019713984897) rotate(0 -27.138059970725408 -14.17792822735646)"><path d="M0 0 C-0.1 -0.86, -0.08 -3.22, -0.63 -5.17 C-1.17 -7.12, -1.82 -9.24, -3.26 -11.69 C-4.71 -14.15, -6.97 -17.64, -9.27 -19.92 C-11.57 -22.2, -14.39 -24.01, -17.07 -25.39 C-19.75 -26.77, -22.55 -27.71, -25.35 -28.2 C-28.14 -28.7, -31.08 -28.65, -33.86 -28.36 C-36.64 -28.06, -39.5 -27.43, -42.02 -26.41 C-44.55 -25.38, -46.97 -23.8, -49.01 -22.2 C-51.06 -20.59, -53.4 -17.66, -54.28 -16.76 M0 0 C-0.1 -0.86, -0.08 -3.22, -0.63 -5.17 C-1.17 -7.12, -1.82 -9.24, -3.26 -11.69 C-4.71 -14.15, -6.97 -17.64, -9.27 -19.92 C-11.57 -22.2, -14.39 -24.01, -17.07 -25.39 C-19.75 -26.77, -22.55 -27.71, -25.35 -28.2 C-28.14 -28.7, -31.08 -28.65, -33.86 -28.36 C-36.64 -28.06, -39.5 -27.43, -42.02 -26.41 C-44.55 -25.38, -46.97 -23.8, -49.01 -22.2 C-51.06 -20.59, -53.4 -17.66, -54.28 -16.76" stroke="#E1E1E1" stroke-width="2" fill="none"></path></g></g><mask></mask><g stroke-linecap="round"><g transform="translate(182.88084314443404 180.25259895593263) rotate(0 -5.798886377202962 12.896043579953584)"><path d="M0 0 C-0.59 0.06, -2.32 -0.1, -3.55 0.34 C-4.78 0.78, -6.32 1.65, -7.38 2.65 C-8.45 3.64, -9.26 4.3, -9.96 6.3 C-10.66 8.29, -11.47 12.32, -11.6 14.61 C-11.73 16.89, -11.28 18.48, -10.75 19.99 C-10.21 21.49, -9.19 22.67, -8.38 23.64 C-7.56 24.6, -6.27 25.43, -5.84 25.79 M0 0 C-0.59 0.06, -2.32 -0.1, -3.55 0.34 C-4.78 0.78, -6.32 1.65, -7.38 2.65 C-8.45 3.64, -9.26 4.3, -9.96 6.3 C-10.66 8.29, -11.47 12.32, -11.6 14.61 C-11.73 16.89, -11.28 18.48, -10.75 19.99 C-10.21 21.49, -9.19 22.67, -8.38 23.64 C-7.56 24.6, -6.27 25.43, -5.84 25.79" stroke="#E1E1E1" stroke-width="2" fill="none"></path></g></g><mask></mask><g stroke-linecap="round"><g transform="translate(177.14519527696484 206.09542257854355) rotate(0 8.561960149900642 10.503176054256983)"><path d="M0 0 C0.26 0.91, 0.53 3.33, 1.57 5.45 C2.62 7.57, 4.56 10.67, 6.27 12.72 C7.98 14.77, 10.04 16.39, 11.85 17.77 C13.66 19.15, 16.25 20.47, 17.12 21.01 M0 0 C0.26 0.91, 0.53 3.33, 1.57 5.45 C2.62 7.57, 4.56 10.67, 6.27 12.72 C7.98 14.77, 10.04 16.39, 11.85 17.77 C13.66 19.15, 16.25 20.47, 17.12 21.01" stroke="#E1E1E1" stroke-width="2" fill="none"></path></g></g><mask></mask><g stroke-linecap="round"><g transform="translate(194.2768838389984 227.10954294928888) rotate(0 -16.78296641526913 25.26566601458262)"><path d="M0 0 C-0.83 0.34, -2.96 1.02, -4.95 2.05 C-6.94 3.08, -9.42 4.19, -11.93 6.18 C-14.43 8.17, -17.37 10.97, -19.96 13.98 C-22.55 16.99, -25.4 20.91, -27.47 24.27 C-29.53 27.63, -31.31 31.41, -32.33 34.13 C-33.35 36.84, -33.75 38.5, -33.57 40.58 C-33.38 42.65, -32.61 44.93, -31.24 46.58 C-29.86 48.24, -27.36 49.96, -25.31 50.53 C-23.26 51.11, -20.66 50.53, -18.93 50.03 C-17.19 49.52, -16.02 48.49, -14.88 47.51 C-13.75 46.52, -12.57 44.68, -12.1 44.11 M0 0 C-0.83 0.34, -2.96 1.02, -4.95 2.05 C-6.94 3.08, -9.42 4.19, -11.93 6.18 C-14.43 8.17, -17.37 10.97, -19.96 13.98 C-22.55 16.99, -25.4 20.91, -27.47 24.27 C-29.53 27.63, -31.31 31.41, -32.33 34.13 C-33.35 36.84, -33.75 38.5, -33.57 40.58 C-33.38 42.65, -32.61 44.93, -31.24 46.58 C-29.86 48.24, -27.36 49.96, -25.31 50.53 C-23.26 51.11, -20.66 50.53, -18.93 50.03 C-17.19 49.52, -16.02 48.49, -14.88 47.51 C-13.75 46.52, -12.57 44.68, -12.1 44.11" stroke="#E1E1E1" stroke-width="2" fill="none"></path></g></g><mask></mask><g stroke-linecap="round"><g transform="translate(182.29069797298507 271.2978461077091) rotate(0 1.175556558099288 13.941603124762423)"><path d="M0 0 C-0.02 1.75, -0.15 7.12, -0.12 10.48 C-0.08 13.83, -0.22 17.25, 0.21 20.15 C0.64 23.05, 2.09 26.59, 2.47 27.88 M0 0 C-0.02 1.75, -0.15 7.12, -0.12 10.48 C-0.08 13.83, -0.22 17.25, 0.21 20.15 C0.64 23.05, 2.09 26.59, 2.47 27.88" stroke="#E1E1E1" stroke-width="2" fill="none"></path></g></g><mask></mask><g stroke-linecap="round"><g transform="translate(184.76440397753595 299.18857786127137) rotate(0 -29.57887223988655 -4.804912948779929)"><path d="M0 0 C-0.61 0.22, -1.38 0.69, -3.67 1.29 C-5.96 1.89, -9.46 2.78, -13.74 3.57 C-18.03 4.37, -24.46 5.57, -29.37 6.07 C-34.29 6.56, -39.11 6.77, -43.23 6.55 C-47.36 6.33, -51.47 5.73, -54.12 4.76 C-56.78 3.79, -58.33 2.29, -59.16 0.75 C-59.99 -0.8, -59.74 -2.54, -59.12 -4.5 C-58.49 -6.46, -56.74 -9.05, -55.43 -11 C-54.11 -12.94, -51.92 -15.3, -51.22 -16.16 M0 0 C-0.61 0.22, -1.38 0.69, -3.67 1.29 C-5.96 1.89, -9.46 2.78, -13.74 3.57 C-18.03 4.37, -24.46 5.57, -29.37 6.07 C-34.29 6.56, -39.11 6.77, -43.23 6.55 C-47.36 6.33, -51.47 5.73, -54.12 4.76 C-56.78 3.79, -58.33 2.29, -59.16 0.75 C-59.99 -0.8, -59.74 -2.54, -59.12 -4.5 C-58.49 -6.46, -56.74 -9.05, -55.43 -11 C-54.11 -12.94, -51.92 -15.3, -51.22 -16.16" stroke="#E1E1E1" stroke-width="2" fill="none"></path></g></g><mask></mask><g stroke-linecap="round"><g transform="translate(182.3717732405603 258.0877014102671) rotate(0 2.3343218102691026 0.4095556884981306)"><path d="M0 0 C0.01 -0.45, -0.1 -1.97, 0.05 -2.71 C0.2 -3.44, 0.43 -4.03, 0.9 -4.42 C1.37 -4.82, 2.28 -5.18, 2.86 -5.06 C3.44 -4.94, 4.09 -4.71, 4.39 -3.72 C4.68 -2.73, 4.58 -0.46, 4.63 0.89 C4.68 2.24, 4.89 3.57, 4.67 4.4 C4.44 5.23, 3.87 5.65, 3.28 5.88 C2.69 6.1, 1.66 6, 1.13 5.75 C0.6 5.5, 0.29 5.35, 0.11 4.39 C-0.08 3.44, 0.02 0.73, 0 0 M0 0 C0.01 -0.45, -0.1 -1.97, 0.05 -2.71 C0.2 -3.44, 0.43 -4.03, 0.9 -4.42 C1.37 -4.82, 2.28 -5.18, 2.86 -5.06 C3.44 -4.94, 4.09 -4.71, 4.39 -3.72 C4.68 -2.73, 4.58 -0.46, 4.63 0.89 C4.68 2.24, 4.89 3.57, 4.67 4.4 C4.44 5.23, 3.87 5.65, 3.28 5.88 C2.69 6.1, 1.66 6, 1.13 5.75 C0.6 5.5, 0.29 5.35, 0.11 4.39 C-0.08 3.44, 0.02 0.73, 0 0" stroke="#E1E1E1" stroke-width="2" fill="none"></path></g></g><mask></mask><g stroke-linecap="round"><g transform="translate(226.83081116638914 285.4178999233345) rotate(0 2.4045183426242147 -0.9431142116827687)"><path d="M0 0 C0.8 -0.31, 4.01 -1.57, 4.81 -1.89 M0 0 C0.8 -0.31, 4.01 -1.57, 4.81 -1.89" stroke="#E1E1E1" stroke-width="2" fill="none"></path></g></g><mask></mask><g stroke-linecap="round"><g transform="translate(231.63984785163757 283.5316714999699) rotate(0 1.3693303175637084 1.7249921873799394)"><path d="M0 0 C0.46 0.57, 2.28 2.87, 2.74 3.45 M0 0 C0.46 0.57, 2.28 2.87, 2.74 3.45" stroke="#E1E1E1" stroke-width="2" fill="none"></path></g></g><mask></mask><g stroke-linecap="round"><g transform="translate(234.54145772392985 287.1810063869498) rotate(0 -7.637308694559579 12.437459186191518)"><path d="M0 0 C-1.16 0.48, -5.16 2.15, -6.97 2.91 C-8.78 3.67, -10.24 3.96, -10.88 4.53 C-11.51 5.11, -11.41 5.16, -10.77 6.36 C-10.14 7.55, -8.63 9.38, -7.06 11.72 C-5.49 14.05, -2.52 18.46, -1.36 20.35 C-0.19 22.24, -0.07 22.32, -0.09 23.08 C-0.1 23.83, -0.84 24.62, -1.45 24.87 C-2.06 25.13, -2.99 25.14, -3.74 24.62 C-4.49 24.11, -4.67 23.61, -5.94 21.8 C-7.21 19.99, -9.95 15.94, -11.36 13.77 C-12.78 11.6, -13.78 9.99, -14.43 8.78 C-15.09 7.56, -15.13 6.86, -15.27 6.48 M0 0 C-1.16 0.48, -5.16 2.15, -6.97 2.91 C-8.78 3.67, -10.24 3.96, -10.88 4.53 C-11.51 5.11, -11.41 5.16, -10.77 6.36 C-10.14 7.55, -8.63 9.38, -7.06 11.72 C-5.49 14.05, -2.52 18.46, -1.36 20.35 C-0.19 22.24, -0.07 22.32, -0.09 23.08 C-0.1 23.83, -0.84 24.62, -1.45 24.87 C-2.06 25.13, -2.99 25.14, -3.74 24.62 C-4.49 24.11, -4.67 23.61, -5.94 21.8 C-7.21 19.99, -9.95 15.94, -11.36 13.77 C-12.78 11.6, -13.78 9.99, -14.43 8.78 C-15.09 7.56, -15.13 6.86, -15.27 6.48" stroke="#E1E1E1" stroke-width="2" fill="none"></path></g></g><mask></mask><g stroke-linecap="round"><g transform="translate(219.25977420494655 293.6632169739105) rotate(0 -13.24802993163894 4.306377901748874)"><path d="M0 0 C-0.58 0.14, -0.76 -0.02, -3.46 0.86 C-6.17 1.74, -12.38 3.99, -16.22 5.28 C-20.06 6.57, -24.78 8.06, -26.5 8.61 M0 0 C-0.58 0.14, -0.76 -0.02, -3.46 0.86 C-6.17 1.74, -12.38 3.99, -16.22 5.28 C-20.06 6.57, -24.78 8.06, -26.5 8.61" stroke="#E1E1E1" stroke-width="2" fill="none"></path></g></g><mask></mask><g stroke-linecap="round"><g transform="translate(192.55879657561582 302.086472021967) rotate(0 -1.5449129384242042 -1.9247709498954464)"><path d="M0 0 C-0.51 -0.64, -2.57 -3.21, -3.09 -3.85 M0 0 C-0.51 -0.64, -2.57 -3.21, -3.09 -3.85" stroke="#E1E1E1" stroke-width="2" fill="none"></path></g></g><mask></mask><g stroke-linecap="round"><g transform="translate(189.4689706987674 298.230292242607) rotate(0 15.466901771475932 -5.028086711029573)"><path d="M0 0 C4.07 -1.29, 19.27 -6.09, 24.43 -7.76 C29.58 -9.44, 29.85 -9.67, 30.93 -10.06 M0 0 C4.07 -1.29, 19.27 -6.09, 24.43 -7.76 C29.58 -9.44, 29.85 -9.67, 30.93 -10.06" stroke="#E1E1E1" stroke-width="2" fill="none"></path></g></g><mask></mask><g stroke-linecap="round"><g transform="translate(220.40277424171927 288.17411882054785) rotate(0 2.3939191478284556 -5.31811922317047)"><path d="M0 0 C0.8 -1.77, 3.99 -8.86, 4.79 -10.64 M0 0 C0.8 -1.77, 3.99 -8.86, 4.79 -10.64" stroke="#E1E1E1" stroke-width="2" fill="none"></path></g></g><mask></mask><g stroke-linecap="round"><g transform="translate(225.19061253737618 277.5378803742078) rotate(0 -0.7114308022064506 -8.111488833455951)"><path d="M0 0 C-0.32 -0.14, -1.12 -0.27, -1.92 -0.82 C-2.73 -1.38, -4.11 -2.4, -4.83 -3.31 C-5.56 -4.21, -5.94 -5.14, -6.27 -6.27 C-6.6 -7.39, -6.74 -8.57, -6.8 -10.07 C-6.87 -11.56, -6.63 -13.65, -6.66 -15.22 C-6.69 -16.8, -6.93 -18.35, -6.99 -19.54 C-7.05 -20.73, -7.19 -21.59, -7.02 -22.35 C-6.84 -23.12, -6.53 -23.9, -5.94 -24.14 C-5.35 -24.38, -4.05 -24.57, -3.46 -23.8 C-2.88 -23.03, -2.63 -21.17, -2.43 -19.53 C-2.23 -17.9, -2.35 -15.69, -2.28 -13.99 C-2.21 -12.28, -2.3 -10.74, -2.02 -9.3 C-1.74 -7.86, -1.31 -6.27, -0.62 -5.35 C0.08 -4.44, 1.3 -4.1, 2.15 -3.81 C3.01 -3.52, 3.92 -3.97, 4.49 -3.6 C5.07 -3.23, 5.71 -2.7, 5.6 -1.59 C5.48 -0.49, 4.51 1.43, 3.81 3.01 C3.11 4.6, 1.8 7.1, 1.4 7.92 M0 0 C-0.32 -0.14, -1.12 -0.27, -1.92 -0.82 C-2.73 -1.38, -4.11 -2.4, -4.83 -3.31 C-5.56 -4.21, -5.94 -5.14, -6.27 -6.27 C-6.6 -7.39, -6.74 -8.57, -6.8 -10.07 C-6.87 -11.56, -6.63 -13.65, -6.66 -15.22 C-6.69 -16.8, -6.93 -18.35, -6.99 -19.54 C-7.05 -20.73, -7.19 -21.59, -7.02 -22.35 C-6.84 -23.12, -6.53 -23.9, -5.94 -24.14 C-5.35 -24.38, -4.05 -24.57, -3.46 -23.8 C-2.88 -23.03, -2.63 -21.17, -2.43 -19.53 C-2.23 -17.9, -2.35 -15.69, -2.28 -13.99 C-2.21 -12.28, -2.3 -10.74, -2.02 -9.3 C-1.74 -7.86, -1.31 -6.27, -0.62 -5.35 C0.08 -4.44, 1.3 -4.1, 2.15 -3.81 C3.01 -3.52, 3.92 -3.97, 4.49 -3.6 C5.07 -3.23, 5.71 -2.7, 5.6 -1.59 C5.48 -0.49, 4.51 1.43, 3.81 3.01 C3.11 4.6, 1.8 7.1, 1.4 7.92" stroke="#E1E1E1" stroke-width="2" fill="none"></path></g></g><mask></mask><g stroke-linecap="round"><g transform="translate(220.31211570722917 198.67874773922813) rotate(0 7.454884063994541 1.446617468934619)"><path d="M0 0 C2.48 0.48, 12.42 2.41, 14.91 2.89 M0 0 C2.48 0.48, 12.42 2.41, 14.91 2.89" stroke="#E1E1E1" stroke-width="2" fill="none"></path></g></g><mask></mask><g stroke-linecap="round"><g transform="translate(235.22188383521825 201.5612071279811) rotate(0 -0.3721156295014225 2.24768974952849)"><path d="M0 0 C-0.12 0.75, -0.62 3.75, -0.74 4.5 M0 0 C-0.12 0.75, -0.62 3.75, -0.74 4.5" stroke="#E1E1E1" stroke-width="2" fill="none"></path></g></g><mask></mask><g stroke-linecap="round"><g transform="translate(234.4776525762154 206.0565866270381) rotate(0 -7.6174152631733705 -1.6143568501865957)"><path d="M0 0 C-2.54 -0.54, -12.7 -2.69, -15.23 -3.23 M0 0 C-2.54 -0.54, -12.7 -2.69, -15.23 -3.23" stroke="#E1E1E1" stroke-width="2" fill="none"></path></g></g><mask></mask><g stroke-linecap="round"><g transform="translate(219.24820982442725 202.8278729266649) rotate(0 0.4241076539901769 -2.107068833553967)"><path d="M0 0 C0.14 -0.7, 0.71 -3.51, 0.85 -4.21 M0 0 C0.14 -0.7, 0.71 -3.51, 0.85 -4.21" stroke="#E1E1E1" stroke-width="2" fill="none"></path></g></g><mask></mask><g stroke-linecap="round"><g transform="translate(196.2323552808166 187.4948053108692) rotate(0 -0.3594543592894297 8.784586825012411)"><path d="M0 0 C-1.62 -0.3, -7.49 -1.42, -9.75 -1.81 C-12.01 -2.19, -12.46 -2.33, -13.54 -2.33 C-14.61 -2.32, -15.4 -2.2, -16.19 -1.76 C-16.99 -1.33, -17.71 -1.02, -18.31 0.29 C-18.9 1.6, -19.47 4.53, -19.76 6.1 C-20.04 7.66, -20.18 8.56, -20.01 9.67 C-19.85 10.78, -19.51 11.95, -18.76 12.74 C-18.01 13.53, -17.56 13.81, -15.5 14.39 C-13.44 14.97, -10.06 15.46, -6.4 16.2 C-2.74 16.94, 3.25 18.22, 6.45 18.84 C9.64 19.45, 11.15 19.92, 12.77 19.9 C14.4 19.87, 15.28 19.59, 16.19 18.68 C17.09 17.78, 17.69 16.19, 18.2 14.46 C18.72 12.74, 19.29 9.92, 19.29 8.34 C19.29 6.75, 18.93 5.86, 18.21 4.98 C17.49 4.09, 16.72 3.62, 14.95 3.03 C13.18 2.43, 10.08 1.92, 7.59 1.42 C5.09 0.91, 1.26 0.24, 0 0 M0 0 C-1.62 -0.3, -7.49 -1.42, -9.75 -1.81 C-12.01 -2.19, -12.46 -2.33, -13.54 -2.33 C-14.61 -2.32, -15.4 -2.2, -16.19 -1.76 C-16.99 -1.33, -17.71 -1.02, -18.31 0.29 C-18.9 1.6, -19.47 4.53, -19.76 6.1 C-20.04 7.66, -20.18 8.56, -20.01 9.67 C-19.85 10.78, -19.51 11.95, -18.76 12.74 C-18.01 13.53, -17.56 13.81, -15.5 14.39 C-13.44 14.97, -10.06 15.46, -6.4 16.2 C-2.74 16.94, 3.25 18.22, 6.45 18.84 C9.64 19.45, 11.15 19.92, 12.77 19.9 C14.4 19.87, 15.28 19.59, 16.19 18.68 C17.09 17.78, 17.69 16.19, 18.2 14.46 C18.72 12.74, 19.29 9.92, 19.29 8.34 C19.29 6.75, 18.93 5.86, 18.21 4.98 C17.49 4.09, 16.72 3.62, 14.95 3.03 C13.18 2.43, 10.08 1.92, 7.59 1.42 C5.09 0.91, 1.26 0.24, 0 0" stroke="#E1E1E1" stroke-width="2" fill="none"></path></g></g><mask></mask><g stroke-linecap="round"><g transform="translate(286.62184297182375 162.08591764406992) rotate(0 12.030329963038184 7.6763845637901795)"><path d="M0 0 C1.23 -1.17, 5.54 -5.6, 7.38 -7.03 C9.21 -8.46, 9.79 -8.38, 11.01 -8.58 C12.24 -8.79, 13.6 -8.71, 14.72 -8.27 C15.84 -7.83, 16.18 -7.4, 17.71 -5.97 C19.24 -4.53, 22.24 -1.36, 23.9 0.34 C25.56 2.04, 26.86 2.97, 27.65 4.23 C28.45 5.5, 28.81 6.66, 28.68 7.94 C28.54 9.22, 28.67 9.7, 26.86 11.9 C25.06 14.09, 19.79 19.19, 17.84 21.11 C15.9 23.04, 16.29 22.96, 15.2 23.43 C14.12 23.9, 12.52 24.02, 11.32 23.94 C10.13 23.85, 9.71 24.17, 8.04 22.91 C6.38 21.65, 3.29 18.41, 1.33 16.4 C-0.62 14.39, -2.69 12.43, -3.68 10.86 C-4.68 9.28, -4.69 8.14, -4.62 6.95 C-4.54 5.76, -3.98 4.88, -3.21 3.72 C-2.44 2.57, -0.54 0.62, 0 0 M0 0 C1.23 -1.17, 5.54 -5.6, 7.38 -7.03 C9.21 -8.46, 9.79 -8.38, 11.01 -8.58 C12.24 -8.79, 13.6 -8.71, 14.72 -8.27 C15.84 -7.83, 16.18 -7.4, 17.71 -5.97 C19.24 -4.53, 22.24 -1.36, 23.9 0.34 C25.56 2.04, 26.86 2.97, 27.65 4.23 C28.45 5.5, 28.81 6.66, 28.68 7.94 C28.54 9.22, 28.67 9.7, 26.86 11.9 C25.06 14.09, 19.79 19.19, 17.84 21.11 C15.9 23.04, 16.29 22.96, 15.2 23.43 C14.12 23.9, 12.52 24.02, 11.32 23.94 C10.13 23.85, 9.71 24.17, 8.04 22.91 C6.38 21.65, 3.29 18.41, 1.33 16.4 C-0.62 14.39, -2.69 12.43, -3.68 10.86 C-4.68 9.28, -4.69 8.14, -4.62 6.95 C-4.54 5.76, -3.98 4.88, -3.21 3.72 C-2.44 2.57, -0.54 0.62, 0 0" stroke="#E1E1E1" stroke-width="2" fill="none"></path></g></g><mask></mask><g stroke-linecap="round"><g transform="translate(117.32119368627173 330.4273728727967) rotate(315 12.82093708358343 8.180859862042325)"><path d="M0 0 C1.31 -1.25, 5.91 -5.96, 7.86 -7.49 C9.82 -9.01, 10.43 -8.93, 11.74 -9.15 C13.04 -9.37, 14.5 -9.28, 15.69 -8.81 C16.88 -8.35, 17.24 -7.89, 18.87 -6.36 C20.5 -4.83, 23.71 -1.45, 25.47 0.36 C27.24 2.17, 28.62 3.16, 29.47 4.51 C30.32 5.86, 30.7 7.1, 30.56 8.46 C30.42 9.82, 30.55 10.34, 28.63 12.68 C26.71 15.02, 21.09 20.45, 19.02 22.5 C16.94 24.55, 17.36 24.47, 16.2 24.97 C15.04 25.47, 13.34 25.6, 12.07 25.51 C10.8 25.42, 10.34 25.75, 8.57 24.41 C6.79 23.08, 3.5 19.62, 1.42 17.48 C-0.66 15.33, -2.87 13.25, -3.93 11.57 C-4.98 9.89, -5 8.67, -4.92 7.4 C-4.83 6.14, -4.24 5.2, -3.42 3.97 C-2.6 2.74, -0.57 0.66, 0 0 M0 0 C1.31 -1.25, 5.91 -5.96, 7.86 -7.49 C9.82 -9.01, 10.43 -8.93, 11.74 -9.15 C13.04 -9.37, 14.5 -9.28, 15.69 -8.81 C16.88 -8.35, 17.24 -7.89, 18.87 -6.36 C20.5 -4.83, 23.71 -1.45, 25.47 0.36 C27.24 2.17, 28.62 3.16, 29.47 4.51 C30.32 5.86, 30.7 7.1, 30.56 8.46 C30.42 9.82, 30.55 10.34, 28.63 12.68 C26.71 15.02, 21.09 20.45, 19.02 22.5 C16.94 24.55, 17.36 24.47, 16.2 24.97 C15.04 25.47, 13.34 25.6, 12.07 25.51 C10.8 25.42, 10.34 25.75, 8.57 24.41 C6.79 23.08, 3.5 19.62, 1.42 17.48 C-0.66 15.33, -2.87 13.25, -3.93 11.57 C-4.98 9.89, -5 8.67, -4.92 7.4 C-4.83 6.14, -4.24 5.2, -3.42 3.97 C-2.6 2.74, -0.57 0.66, 0 0" stroke="#E1E1E1" stroke-width="2" fill="none"></path></g></g><mask></mask><g stroke-linecap="round" transform="translate(284.61337230234676 322.2957898450595) rotate(0 15.548423347255266 15.548423347255266)"><path d="M31.1 15.55 C31.1 16.45, 31.02 17.36, 30.86 18.25 C30.7 19.13, 30.47 20.02, 30.16 20.87 C29.85 21.71, 29.46 22.54, 29.01 23.32 C28.56 24.1, 28.04 24.85, 27.46 25.54 C26.88 26.23, 26.23 26.88, 25.54 27.46 C24.85 28.04, 24.1 28.56, 23.32 29.01 C22.54 29.46, 21.71 29.85, 20.87 30.16 C20.02 30.47, 19.13 30.7, 18.25 30.86 C17.36 31.02, 16.45 31.1, 15.55 31.1 C14.65 31.1, 13.73 31.02, 12.85 30.86 C11.96 30.7, 11.08 30.47, 10.23 30.16 C9.38 29.85, 8.55 29.46, 7.77 29.01 C6.99 28.56, 6.24 28.04, 5.55 27.46 C4.86 26.88, 4.22 26.23, 3.64 25.54 C3.06 24.85, 2.53 24.1, 2.08 23.32 C1.63 22.54, 1.25 21.71, 0.94 20.87 C0.63 20.02, 0.39 19.13, 0.24 18.25 C0.08 17.36, 0 16.45, 0 15.55 C0 14.65, 0.08 13.73, 0.24 12.85 C0.39 11.96, 0.63 11.08, 0.94 10.23 C1.25 9.38, 1.63 8.55, 2.08 7.77 C2.53 6.99, 3.06 6.24, 3.64 5.55 C4.22 4.86, 4.86 4.22, 5.55 3.64 C6.24 3.06, 6.99 2.53, 7.77 2.08 C8.55 1.63, 9.38 1.25, 10.23 0.94 C11.08 0.63, 11.96 0.39, 12.85 0.24 C13.73 0.08, 14.65 0, 15.55 0 C16.45 0, 17.36 0.08, 18.25 0.24 C19.13 0.39, 20.02 0.63, 20.87 0.94 C21.71 1.25, 22.54 1.63, 23.32 2.08 C24.1 2.53, 24.85 3.06, 25.54 3.64 C26.23 4.22, 26.88 4.86, 27.46 5.55 C28.04 6.24, 28.56 6.99, 29.01 7.77 C29.46 8.55, 29.85 9.38, 30.16 10.23 C30.47 11.08, 30.7 11.96, 30.86 12.85 C31.02 13.73, 31.06 15.1, 31.1 15.55 C31.14 16, 31.14 15.1, 31.1 15.55" stroke="#E1E1E1" stroke-width="2" fill="none"></path></g><g stroke-linecap="round"><g transform="translate(78.88250324848741 153.03578258349262) rotate(0 21.935533333518833 -9.015033943475828)"><path d="M0 0 C1.12 2.12, 4.34 8.28, 6.73 12.73 C9.11 17.18, 12.38 23.13, 14.32 26.7 C16.25 30.28, 17.11 32.37, 18.32 34.19 C19.53 36, 20.31 36.77, 21.56 37.62 C22.8 38.46, 24.29 39.04, 25.78 39.25 C27.27 39.47, 28.89 39.4, 30.5 38.89 C32.12 38.38, 33.53 37.69, 35.45 36.18 C37.37 34.67, 40.05 31.77, 42.03 29.83 C44.01 27.89, 46.17 25.99, 47.33 24.53 C48.49 23.08, 48.19 23, 48.99 21.13 C49.79 19.26, 50.82 16.58, 52.11 13.29 C53.4 10, 55.42 4.69, 56.73 1.38 C58.03 -1.92, 59.31 -4.97, 59.94 -6.55 C60.58 -8.12, 60.29 -7.96, 60.56 -8.07 C60.83 -8.19, 61.01 -7.72, 61.56 -7.24 C62.11 -6.75, 63.08 -5.86, 63.88 -5.17 C64.68 -4.47, 65.35 -3.54, 66.36 -3.06 C67.37 -2.57, 68.78 -2.22, 69.95 -2.28 C71.11 -2.35, 71.84 -2.36, 73.37 -3.45 C74.9 -4.54, 75.73 -5.61, 79.13 -8.83 C82.54 -12.05, 88.96 -18.19, 93.8 -22.76 C98.63 -27.33, 105.23 -33.36, 108.15 -36.25 C111.07 -39.13, 110.58 -38.72, 111.31 -40.07 C112.03 -41.42, 112.39 -42.93, 112.5 -44.36 C112.6 -45.79, 112.43 -47.23, 111.93 -48.66 C111.43 -50.09, 110.62 -51.7, 109.47 -52.93 C108.32 -54.15, 107 -55.39, 105.05 -56.02 C103.09 -56.66, 102.87 -56.6, 97.76 -56.74 C92.64 -56.89, 83.53 -56.87, 74.34 -56.89 C65.16 -56.91, 58.27 -56.8, 42.65 -56.85 C27.03 -56.89, -4.32 -57.09, -19.36 -57.16 C-34.4 -57.23, -41.01 -57.28, -47.6 -57.28 C-54.2 -57.28, -56.31 -57.42, -58.92 -57.16 C-61.52 -56.89, -61.96 -56.48, -63.24 -55.71 C-64.53 -54.94, -65.74 -53.84, -66.63 -52.54 C-67.53 -51.24, -68.31 -49.43, -68.62 -47.92 C-68.93 -46.41, -69.05 -45.19, -68.49 -43.47 C-67.93 -41.75, -67.52 -40.86, -65.28 -37.62 C-63.03 -34.38, -57.72 -27.57, -55.01 -24.02 C-52.3 -20.46, -50.61 -18.02, -49.04 -16.3 C-47.47 -14.58, -46.84 -14.15, -45.6 -13.7 C-44.35 -13.24, -42.86 -13.18, -41.57 -13.57 C-40.28 -13.95, -39.84 -14.3, -37.84 -16.02 C-35.85 -17.75, -30.97 -22.58, -29.59 -23.9 M0 0 C1.12 2.12, 4.34 8.28, 6.73 12.73 C9.11 17.18, 12.38 23.13, 14.32 26.7 C16.25 30.28, 17.11 32.37, 18.32 34.19 C19.53 36, 20.31 36.77, 21.56 37.62 C22.8 38.46, 24.29 39.04, 25.78 39.25 C27.27 39.47, 28.89 39.4, 30.5 38.89 C32.12 38.38, 33.53 37.69, 35.45 36.18 C37.37 34.67, 40.05 31.77, 42.03 29.83 C44.01 27.89, 46.17 25.99, 47.33 24.53 C48.49 23.08, 48.19 23, 48.99 21.13 C49.79 19.26, 50.82 16.58, 52.11 13.29 C53.4 10, 55.42 4.69, 56.73 1.38 C58.03 -1.92, 59.31 -4.97, 59.94 -6.55 C60.58 -8.12, 60.29 -7.96, 60.56 -8.07 C60.83 -8.19, 61.01 -7.72, 61.56 -7.24 C62.11 -6.75, 63.08 -5.86, 63.88 -5.17 C64.68 -4.47, 65.35 -3.54, 66.36 -3.06 C67.37 -2.57, 68.78 -2.22, 69.95 -2.28 C71.11 -2.35, 71.84 -2.36, 73.37 -3.45 C74.9 -4.54, 75.73 -5.61, 79.13 -8.83 C82.54 -12.05, 88.96 -18.19, 93.8 -22.76 C98.63 -27.33, 105.23 -33.36, 108.15 -36.25 C111.07 -39.13, 110.58 -38.72, 111.31 -40.07 C112.03 -41.42, 112.39 -42.93, 112.5 -44.36 C112.6 -45.79, 112.43 -47.23, 111.93 -48.66 C111.43 -50.09, 110.62 -51.7, 109.47 -52.93 C108.32 -54.15, 107 -55.39, 105.05 -56.02 C103.09 -56.66, 102.87 -56.6, 97.76 -56.74 C92.64 -56.89, 83.53 -56.87, 74.34 -56.89 C65.16 -56.91, 58.27 -56.8, 42.65 -56.85 C27.03 -56.89, -4.32 -57.09, -19.36 -57.16 C-34.4 -57.23, -41.01 -57.28, -47.6 -57.28 C-54.2 -57.28, -56.31 -57.42, -58.92 -57.16 C-61.52 -56.89, -61.96 -56.48, -63.24 -55.71 C-64.53 -54.94, -65.74 -53.84, -66.63 -52.54 C-67.53 -51.24, -68.31 -49.43, -68.62 -47.92 C-68.93 -46.41, -69.05 -45.19, -68.49 -43.47 C-67.93 -41.75, -67.52 -40.86, -65.28 -37.62 C-63.03 -34.38, -57.72 -27.57, -55.01 -24.02 C-52.3 -20.46, -50.61 -18.02, -49.04 -16.3 C-47.47 -14.58, -46.84 -14.15, -45.6 -13.7 C-44.35 -13.24, -42.86 -13.18, -41.57 -13.57 C-40.28 -13.95, -39.84 -14.3, -37.84 -16.02 C-35.85 -17.75, -30.97 -22.58, -29.59 -23.9" stroke="#E1E1E1" stroke-width="2" fill="none"></path></g></g><mask></mask><g stroke-linecap="round"><g transform="translate(49.39774243501415 129.18220829685015) rotate(0 14.752915874646078 15.324079093399178)"><path d="M0 0 C0.93 1.89, 3.7 7.49, 5.59 11.34 C7.48 15.19, 9.95 20.29, 11.37 23.1 C12.78 25.92, 13.07 27, 14.08 28.24 C15.09 29.47, 16.32 30.11, 17.41 30.52 C18.51 30.92, 19.59 30.84, 20.63 30.65 C21.68 30.46, 22.23 30.5, 23.7 29.36 C25.18 28.23, 28.54 24.75, 29.51 23.83 M0 0 C0.93 1.89, 3.7 7.49, 5.59 11.34 C7.48 15.19, 9.95 20.29, 11.37 23.1 C12.78 25.92, 13.07 27, 14.08 28.24 C15.09 29.47, 16.32 30.11, 17.41 30.52 C18.51 30.92, 19.59 30.84, 20.63 30.65 C21.68 30.46, 22.23 30.5, 23.7 29.36 C25.18 28.23, 28.54 24.75, 29.51 23.83" stroke="#E1E1E1" stroke-width="2" fill="none"></path></g></g><mask></mask><g stroke-linecap="round"><g transform="translate(65.69559980066879 153.00161506196218) rotate(0 6.139054330040381 -11.294427557940708)"><path d="M0 0 C0.93 -1.84, 4.02 -7.91, 5.55 -11.02 C7.09 -14.13, 8.32 -16.79, 9.19 -18.64 C10.07 -20.49, 10.39 -21.46, 10.82 -22.12 C11.25 -22.78, 11.59 -22.91, 11.78 -22.59 C11.98 -22.27, 11.96 -22.25, 12 -20.18 C12.04 -18.11, 11.97 -12.77, 12.01 -10.18 C12.06 -7.58, 12.23 -5.52, 12.28 -4.59 M0 0 C0.93 -1.84, 4.02 -7.91, 5.55 -11.02 C7.09 -14.13, 8.32 -16.79, 9.19 -18.64 C10.07 -20.49, 10.39 -21.46, 10.82 -22.12 C11.25 -22.78, 11.59 -22.91, 11.78 -22.59 C11.98 -22.27, 11.96 -22.25, 12 -20.18 C12.04 -18.11, 11.97 -12.77, 12.01 -10.18 C12.06 -7.58, 12.23 -5.52, 12.28 -4.59" stroke="#E1E1E1" stroke-width="2" fill="none"></path></g></g><mask></mask><g stroke-linecap="round"><g transform="translate(78.01512029482183 148.49832817785227) rotate(0 -6.167062333761805 3.638839854955677)"><path d="M0 0 C-0.46 0.35, -1.72 1.21, -2.76 2.12 C-3.79 3.04, -5.32 4.68, -6.22 5.49 C-7.12 6.31, -7.49 6.72, -8.14 7.02 C-8.79 7.31, -9.54 7.49, -10.13 7.28 C-10.72 7.06, -11.32 6.16, -11.68 5.72 C-12.05 5.27, -12.23 4.79, -12.33 4.6 M0 0 C-0.46 0.35, -1.72 1.21, -2.76 2.12 C-3.79 3.04, -5.32 4.68, -6.22 5.49 C-7.12 6.31, -7.49 6.72, -8.14 7.02 C-8.79 7.31, -9.54 7.49, -10.13 7.28 C-10.72 7.06, -11.32 6.16, -11.68 5.72 C-12.05 5.27, -12.23 4.79, -12.33 4.6" stroke="#E1E1E1" stroke-width="2" fill="none"></path></g></g><mask></mask><g stroke-linecap="round"><g transform="translate(107.56373560321663 187.60688405069686) rotate(0 3.420358271432633 -15.456220333117471)"><path d="M0 0 C1.14 -5.15, 5.7 -25.76, 6.84 -30.91 M0 0 C1.14 -5.15, 5.7 -25.76, 6.84 -30.91" stroke="#E1E1E1" stroke-width="2" fill="none"></path></g></g><mask></mask><g stroke-linecap="round"><g transform="translate(114.4044521460828 156.694443384461) rotate(0 15.108135057315849 -6.531831694369885)"><path d="M0 0 C2.56 -3.19, 11.59 -14.45, 15.35 -19.13 C19.12 -23.8, 20.88 -25.99, 22.59 -28.02 C24.31 -30.06, 24.97 -31.06, 25.64 -31.32 C26.32 -31.59, 26.12 -31.59, 26.63 -29.63 C27.15 -27.66, 28.13 -22.3, 28.73 -19.51 C29.33 -16.72, 30.2 -13.76, 30.22 -12.9 C30.23 -12.03, 29.44 -13.79, 28.84 -14.32 C28.23 -14.86, 27.27 -15.72, 26.58 -16.13 C25.9 -16.53, 25.37 -16.74, 24.71 -16.73 C24.05 -16.72, 23.3 -16.67, 22.61 -16.09 C21.93 -15.51, 21.59 -15.47, 20.58 -13.26 C19.57 -11.06, 18.13 -6.95, 16.56 -2.87 C14.99 1.22, 12.58 7.73, 11.18 11.26 C9.78 14.78, 8.67 17.09, 8.17 18.26 M0 0 C2.56 -3.19, 11.59 -14.45, 15.35 -19.13 C19.12 -23.8, 20.88 -25.99, 22.59 -28.02 C24.31 -30.06, 24.97 -31.06, 25.64 -31.32 C26.32 -31.59, 26.12 -31.59, 26.63 -29.63 C27.15 -27.66, 28.13 -22.3, 28.73 -19.51 C29.33 -16.72, 30.2 -13.76, 30.22 -12.9 C30.23 -12.03, 29.44 -13.79, 28.84 -14.32 C28.23 -14.86, 27.27 -15.72, 26.58 -16.13 C25.9 -16.53, 25.37 -16.74, 24.71 -16.73 C24.05 -16.72, 23.3 -16.67, 22.61 -16.09 C21.93 -15.51, 21.59 -15.47, 20.58 -13.26 C19.57 -11.06, 18.13 -6.95, 16.56 -2.87 C14.99 1.22, 12.58 7.73, 11.18 11.26 C9.78 14.78, 8.67 17.09, 8.17 18.26" stroke="#E1E1E1" stroke-width="2" fill="none"></path></g></g><mask></mask><g stroke-linecap="round"><g transform="translate(122.51458499541695 175.017497436771) rotate(0 -7.504462049659651 6.384225147105553)"><path d="M0 0 C-1.25 1.19, -5.35 5.15, -7.52 7.16 C-9.68 9.17, -11.76 11.12, -13 12.06 C-14.25 12.99, -14.67 12.65, -15.01 12.77 M0 0 C-1.25 1.19, -5.35 5.15, -7.52 7.16 C-9.68 9.17, -11.76 11.12, -13 12.06 C-14.25 12.99, -14.67 12.65, -15.01 12.77" stroke="#E1E1E1" stroke-width="2" fill="none"></path></g></g><mask></mask><g stroke-linecap="round" transform="translate(10.444204902149067 11.062606065412183) rotate(0 16.460669341157427 16.460669341157427)"><path d="M32.92 16.46 C32.92 17.41, 32.84 18.38, 32.67 19.32 C32.51 20.26, 32.25 21.2, 31.93 22.09 C31.6 22.99, 31.19 23.87, 30.72 24.69 C30.24 25.52, 29.68 26.31, 29.07 27.04 C28.46 27.77, 27.77 28.46, 27.04 29.07 C26.31 29.68, 25.52 30.24, 24.69 30.72 C23.87 31.19, 22.99 31.6, 22.09 31.93 C21.2 32.25, 20.26 32.51, 19.32 32.67 C18.38 32.84, 17.41 32.92, 16.46 32.92 C15.51 32.92, 14.54 32.84, 13.6 32.67 C12.66 32.51, 11.73 32.25, 10.83 31.93 C9.94 31.6, 9.06 31.19, 8.23 30.72 C7.41 30.24, 6.61 29.68, 5.88 29.07 C5.15 28.46, 4.46 27.77, 3.85 27.04 C3.24 26.31, 2.68 25.52, 2.21 24.69 C1.73 23.87, 1.32 22.99, 0.99 22.09 C0.67 21.2, 0.42 20.26, 0.25 19.32 C0.08 18.38, 0 17.41, 0 16.46 C0 15.51, 0.08 14.54, 0.25 13.6 C0.42 12.66, 0.67 11.73, 0.99 10.83 C1.32 9.94, 1.73 9.06, 2.21 8.23 C2.68 7.41, 3.24 6.61, 3.85 5.88 C4.46 5.15, 5.15 4.46, 5.88 3.85 C6.61 3.24, 7.41 2.68, 8.23 2.21 C9.06 1.73, 9.94 1.32, 10.83 0.99 C11.73 0.67, 12.66 0.42, 13.6 0.25 C14.54 0.08, 15.51 0, 16.46 0 C17.41 0, 18.38 0.08, 19.32 0.25 C20.26 0.42, 21.2 0.67, 22.09 0.99 C22.99 1.32, 23.87 1.73, 24.69 2.21 C25.52 2.68, 26.31 3.24, 27.04 3.85 C27.77 4.46, 28.46 5.15, 29.07 5.88 C29.68 6.61, 30.24 7.41, 30.72 8.23 C31.19 9.06, 31.6 9.94, 31.93 10.83 C32.25 11.73, 32.51 12.66, 32.67 13.6 C32.84 14.54, 32.88 15.98, 32.92 16.46 C32.96 16.94, 32.96 15.98, 32.92 16.46" stroke="#E1E1E1" stroke-width="2" fill="none"></path></g><g stroke-linecap="round" transform="translate(85.76971891676658 26.31899462844558) rotate(0 15.138458993058975 15.138458993058975)"><path d="M30.28 15.14 C30.28 16.01, 30.2 16.9, 30.05 17.77 C29.89 18.63, 29.66 19.49, 29.36 20.32 C29.06 21.14, 28.69 21.95, 28.25 22.71 C27.81 23.47, 27.3 24.2, 26.74 24.87 C26.17 25.54, 25.54 26.17, 24.87 26.74 C24.2 27.3, 23.47 27.81, 22.71 28.25 C21.95 28.69, 21.14 29.06, 20.32 29.36 C19.49 29.66, 18.63 29.89, 17.77 30.05 C16.9 30.2, 16.01 30.28, 15.14 30.28 C14.26 30.28, 13.37 30.2, 12.51 30.05 C11.65 29.89, 10.78 29.66, 9.96 29.36 C9.14 29.06, 8.33 28.69, 7.57 28.25 C6.81 27.81, 6.08 27.3, 5.41 26.74 C4.74 26.17, 4.1 25.54, 3.54 24.87 C2.98 24.2, 2.47 23.47, 2.03 22.71 C1.59 21.95, 1.21 21.14, 0.91 20.32 C0.61 19.49, 0.38 18.63, 0.23 17.77 C0.08 16.9, 0 16.01, 0 15.14 C0 14.26, 0.08 13.37, 0.23 12.51 C0.38 11.65, 0.61 10.78, 0.91 9.96 C1.21 9.14, 1.59 8.33, 2.03 7.57 C2.47 6.81, 2.98 6.08, 3.54 5.41 C4.1 4.74, 4.74 4.1, 5.41 3.54 C6.08 2.98, 6.81 2.47, 7.57 2.03 C8.33 1.59, 9.14 1.21, 9.96 0.91 C10.78 0.61, 11.65 0.38, 12.51 0.23 C13.37 0.08, 14.26 0, 15.14 0 C16.01 0, 16.9 0.08, 17.77 0.23 C18.63 0.38, 19.49 0.61, 20.32 0.91 C21.14 1.21, 21.95 1.59, 22.71 2.03 C23.47 2.47, 24.2 2.98, 24.87 3.54 C25.54 4.1, 26.17 4.74, 26.74 5.41 C27.3 6.08, 27.81 6.81, 28.25 7.57 C28.69 8.33, 29.06 9.14, 29.36 9.96 C29.66 10.78, 29.89 11.65, 30.05 12.51 C30.2 13.37, 30.24 14.7, 30.28 15.14 C30.32 15.58, 30.32 14.7, 30.28 15.14" stroke="#E1E1E1" stroke-width="2" fill="none"></path></g><g stroke-linecap="round"><g transform="translate(71.91580358010378 58.698729030932554) rotate(0 29.162687950208237 -8.738389261561224)"><path d="M0 0 C-0.4 -1.59, -1.98 -6.08, -2.41 -9.55 C-2.85 -13.03, -3.24 -17.03, -2.62 -20.86 C-2 -24.69, -0.51 -29.22, 1.31 -32.55 C3.14 -35.88, 5.56 -38.55, 8.32 -40.83 C11.09 -43.11, 14.49 -44.95, 17.92 -46.24 C21.34 -47.53, 25.22 -48.49, 28.88 -48.57 C32.54 -48.65, 36.21 -48.24, 39.9 -46.73 C43.6 -45.22, 47.98 -42.5, 51.04 -39.53 C54.1 -36.56, 56.61 -32.8, 58.26 -28.92 C59.91 -25.04, 61.07 -21.04, 60.94 -16.26 C60.82 -11.47, 58.94 -4.9, 57.52 -0.2 C56.09 4.49, 54.61 7.84, 52.4 11.89 C50.18 15.94, 47.2 20.98, 44.24 24.08 C41.28 27.18, 37.61 29.32, 34.63 30.49 C31.65 31.66, 29.22 31.57, 26.35 31.1 C23.49 30.62, 20.32 29.72, 17.44 27.66 C14.56 25.61, 11.56 22.18, 9.07 18.75 C6.59 15.32, 4.06 10.23, 2.55 7.11 C1.03 3.98, 0.42 1.18, 0 0 M0 0 C-0.4 -1.59, -1.98 -6.08, -2.41 -9.55 C-2.85 -13.03, -3.24 -17.03, -2.62 -20.86 C-2 -24.69, -0.51 -29.22, 1.31 -32.55 C3.14 -35.88, 5.56 -38.55, 8.32 -40.83 C11.09 -43.11, 14.49 -44.95, 17.92 -46.24 C21.34 -47.53, 25.22 -48.49, 28.88 -48.57 C32.54 -48.65, 36.21 -48.24, 39.9 -46.73 C43.6 -45.22, 47.98 -42.5, 51.04 -39.53 C54.1 -36.56, 56.61 -32.8, 58.26 -28.92 C59.91 -25.04, 61.07 -21.04, 60.94 -16.26 C60.82 -11.47, 58.94 -4.9, 57.52 -0.2 C56.09 4.49, 54.61 7.84, 52.4 11.89 C50.18 15.94, 47.2 20.98, 44.24 24.08 C41.28 27.18, 37.61 29.32, 34.63 30.49 C31.65 31.66, 29.22 31.57, 26.35 31.1 C23.49 30.62, 20.32 29.72, 17.44 27.66 C14.56 25.61, 11.56 22.18, 9.07 18.75 C6.59 15.32, 4.06 10.23, 2.55 7.11 C1.03 3.98, 0.42 1.18, 0 0" stroke="#E1E1E1" stroke-width="2" fill="none"></path></g></g><mask></mask><g stroke-linecap="round"><g transform="translate(42.28943861851985 63.09298062281778) rotate(0 6.775402282491086 9.515894441519322)"><path d="M0 0 C1.61 -0.44, 7.3 -2.05, 9.66 -2.66 C12.01 -3.27, 12.78 -3.71, 14.14 -3.67 C15.49 -3.63, 16.82 -3.24, 17.8 -2.41 C18.78 -1.58, 19.88 -0.36, 20.03 1.32 C20.18 3, 19.39 4.84, 18.68 7.67 C17.97 10.5, 16.57 15.95, 15.76 18.29 C14.94 20.64, 14.77 21, 13.77 21.74 C12.78 22.47, 11.09 22.75, 9.77 22.7 C8.44 22.65, 7.69 22.82, 5.82 21.43 C3.96 20.05, 0.45 16.28, -1.43 14.41 C-3.31 12.55, -4.61 11.7, -5.45 10.26 C-6.29 8.81, -6.63 7.17, -6.48 5.75 C-6.33 4.33, -5.62 2.7, -4.54 1.74 C-3.46 0.78, -0.76 0.29, 0 0 M0 0 C1.61 -0.44, 7.3 -2.05, 9.66 -2.66 C12.01 -3.27, 12.78 -3.71, 14.14 -3.67 C15.49 -3.63, 16.82 -3.24, 17.8 -2.41 C18.78 -1.58, 19.88 -0.36, 20.03 1.32 C20.18 3, 19.39 4.84, 18.68 7.67 C17.97 10.5, 16.57 15.95, 15.76 18.29 C14.94 20.64, 14.77 21, 13.77 21.74 C12.78 22.47, 11.09 22.75, 9.77 22.7 C8.44 22.65, 7.69 22.82, 5.82 21.43 C3.96 20.05, 0.45 16.28, -1.43 14.41 C-3.31 12.55, -4.61 11.7, -5.45 10.26 C-6.29 8.81, -6.63 7.17, -6.48 5.75 C-6.33 4.33, -5.62 2.7, -4.54 1.74 C-3.46 0.78, -0.76 0.29, 0 0" stroke="#E1E1E1" stroke-width="2" fill="none"></path></g></g><mask></mask><g stroke-linecap="round"><g transform="translate(144.16869933035468 62.918957147318906) rotate(0 8.825278883142346 8.077241982929536)"><path d="M0 0 C0.99 -0.95, 4.3 -4.63, 5.97 -5.68 C7.64 -6.73, 8.76 -6.51, 10.01 -6.29 C11.26 -6.07, 11.58 -6.02, 13.45 -4.36 C15.32 -2.69, 19.57 1.84, 21.23 3.69 C22.9 5.54, 23.1 5.6, 23.44 6.75 C23.78 7.9, 24.09 9.06, 23.26 10.58 C22.43 12.11, 20.45 13.9, 18.47 15.88 C16.5 17.86, 13.42 21.36, 11.4 22.45 C9.37 23.54, 8.13 23.29, 6.31 22.42 C4.49 21.54, 2.36 19.03, 0.48 17.22 C-1.39 15.42, -3.88 13.26, -4.93 11.57 C-5.97 9.89, -6.12 8.54, -5.79 7.11 C-5.46 5.68, -3.92 4.18, -2.96 2.99 C-1.99 1.81, -0.49 0.5, 0 0 M0 0 C0.99 -0.95, 4.3 -4.63, 5.97 -5.68 C7.64 -6.73, 8.76 -6.51, 10.01 -6.29 C11.26 -6.07, 11.58 -6.02, 13.45 -4.36 C15.32 -2.69, 19.57 1.84, 21.23 3.69 C22.9 5.54, 23.1 5.6, 23.44 6.75 C23.78 7.9, 24.09 9.06, 23.26 10.58 C22.43 12.11, 20.45 13.9, 18.47 15.88 C16.5 17.86, 13.42 21.36, 11.4 22.45 C9.37 23.54, 8.13 23.29, 6.31 22.42 C4.49 21.54, 2.36 19.03, 0.48 17.22 C-1.39 15.42, -3.88 13.26, -4.93 11.57 C-5.97 9.89, -6.12 8.54, -5.79 7.11 C-5.46 5.68, -3.92 4.18, -2.96 2.99 C-1.99 1.81, -0.49 0.5, 0 0" stroke="#E1E1E1" stroke-width="2" fill="none"></path></g></g><mask></mask><g stroke-linecap="round"><g transform="translate(160.6356885078294 26.983551822212576) rotate(0 15.658187375001944 -1.0102539168542535)"><path d="M0 0 C0 -1.86, -0.28 -8.69, 0 -11.15 C0.28 -13.62, 0.96 -13.93, 1.67 -14.81 C2.39 -15.69, 3.1 -16.09, 4.31 -16.43 C5.51 -16.78, 6.2 -16.8, 8.9 -16.87 C11.6 -16.94, 17.64 -16.87, 20.49 -16.87 C23.34 -16.87, 24.55 -17.13, 26.01 -16.87 C27.46 -16.61, 28.37 -16.03, 29.22 -15.32 C30.07 -14.6, 30.75 -14.05, 31.1 -12.57 C31.45 -11.09, 31.28 -9.73, 31.32 -6.44 C31.35 -3.15, 31.38 4.33, 31.32 7.18 C31.25 10.02, 31.28 9.64, 30.94 10.61 C30.6 11.59, 30.08 12.37, 29.25 13.03 C28.42 13.68, 28.03 14.24, 25.96 14.54 C23.88 14.85, 20.17 14.83, 16.8 14.85 C13.42 14.86, 8.06 14.85, 5.69 14.62 C3.31 14.39, 3.42 14.11, 2.54 13.47 C1.67 12.82, 0.84 11.78, 0.43 10.75 C0.01 9.72, 0.11 9.09, 0.04 7.29 C-0.03 5.5, 0.01 1.22, 0 0 M0 0 C0 -1.86, -0.28 -8.69, 0 -11.15 C0.28 -13.62, 0.96 -13.93, 1.67 -14.81 C2.39 -15.69, 3.1 -16.09, 4.31 -16.43 C5.51 -16.78, 6.2 -16.8, 8.9 -16.87 C11.6 -16.94, 17.64 -16.87, 20.49 -16.87 C23.34 -16.87, 24.55 -17.13, 26.01 -16.87 C27.46 -16.61, 28.37 -16.03, 29.22 -15.32 C30.07 -14.6, 30.75 -14.05, 31.1 -12.57 C31.45 -11.09, 31.28 -9.73, 31.32 -6.44 C31.35 -3.15, 31.38 4.33, 31.32 7.18 C31.25 10.02, 31.28 9.64, 30.94 10.61 C30.6 11.59, 30.08 12.37, 29.25 13.03 C28.42 13.68, 28.03 14.24, 25.96 14.54 C23.88 14.85, 20.17 14.83, 16.8 14.85 C13.42 14.86, 8.06 14.85, 5.69 14.62 C3.31 14.39, 3.42 14.11, 2.54 13.47 C1.67 12.82, 0.84 11.78, 0.43 10.75 C0.01 9.72, 0.11 9.09, 0.04 7.29 C-0.03 5.5, 0.01 1.22, 0 0" stroke="#E1E1E1" stroke-width="2" fill="none"></path></g></g><mask></mask><g stroke-linecap="round"><g transform="translate(16.07361405044685 111.47258740555571) rotate(0 14.531201897782921 11.92603567985907)"><path d="M0 0 C3.89 2.06, 18.86 9.97, 23.35 12.34 C27.84 14.72, 26.01 13.72, 26.96 14.24 C27.91 14.77, 28.84 15.08, 29.06 15.48 C29.28 15.87, 29.19 15.71, 28.27 16.61 C27.35 17.51, 24.72 19.8, 23.54 20.88 C22.36 21.96, 21.89 22.58, 21.21 23.08 C20.54 23.57, 20.09 23.86, 19.49 23.85 C18.88 23.85, 18.5 24, 17.57 23.04 C16.63 22.09, 15.6 20.35, 13.89 18.1 C12.18 15.86, 9.62 12.58, 7.3 9.56 C4.98 6.54, 1.22 1.59, 0 0 M0 0 C3.89 2.06, 18.86 9.97, 23.35 12.34 C27.84 14.72, 26.01 13.72, 26.96 14.24 C27.91 14.77, 28.84 15.08, 29.06 15.48 C29.28 15.87, 29.19 15.71, 28.27 16.61 C27.35 17.51, 24.72 19.8, 23.54 20.88 C22.36 21.96, 21.89 22.58, 21.21 23.08 C20.54 23.57, 20.09 23.86, 19.49 23.85 C18.88 23.85, 18.5 24, 17.57 23.04 C16.63 22.09, 15.6 20.35, 13.89 18.1 C12.18 15.86, 9.62 12.58, 7.3 9.56 C4.98 6.54, 1.22 1.59, 0 0" stroke="#E1E1E1" stroke-width="2" fill="none"></path></g></g><mask></mask></svg>