<svg version="1.1" xmlns="http://www.w3.org/2000/svg" viewBox="0 0 572.4588062481535 530.589951903298" width="572.4588062481535" height="530.589951903298" class="excalidraw-svg"><!-- svg-source:excalidraw --><metadata></metadata><defs><style class="style-fonts">
      </style></defs><rect x="0" y="0" width="572.4588062481535" height="530.589951903298" fill="#000000"></rect><g stroke-linecap="round"><g transform="translate(455.05799114521545 129.98985613330086) rotate(0 -30.901713590202093 5.668725962679105)"><path d="M0 0 C-4.01 -2.41, -16.72 -11.59, -24.05 -14.44 C-31.38 -17.29, -36.02 -17.31, -44 -17.1 C-51.97 -16.9, -63.43 -16.82, -71.91 -13.22 C-80.39 -9.61, -88.52 -3.95, -94.89 4.52 C-101.26 12.99, -108.23 26.3, -110.14 37.59 C-112.04 48.89, -108.94 62, -106.31 72.28 C-103.68 82.57, -101.2 91.63, -94.33 99.3 C-87.46 106.98, -77.29 114.47, -65.11 118.35 C-52.93 122.22, -34.87 124.37, -21.25 122.54 C-7.62 120.72, 6.52 114.19, 16.65 107.37 C26.78 100.55, 34.27 92.12, 39.55 81.6 C44.83 71.09, 47.84 58.81, 48.33 44.28 C48.83 29.74, 44 10.4, 42.51 -5.62 C41.01 -21.65, 42.69 -37.72, 39.38 -51.9 C36.08 -66.07, 30.67 -81.13, 22.66 -90.68 C14.65 -100.24, 2.11 -105.82, -8.68 -109.24 C-19.47 -112.66, -31.45 -113.08, -42.08 -111.21 C-52.71 -109.33, -65.09 -102.34, -72.46 -98 C-79.84 -93.65, -81.57 -91.81, -86.33 -85.16 C-91.08 -78.52, -97.72 -65.29, -101.01 -58.13 C-104.3 -50.97, -105.22 -44.85, -106.07 -42.19 M0 0 C-4.01 -2.41, -16.72 -11.59, -24.05 -14.44 C-31.38 -17.29, -36.02 -17.31, -44 -17.1 C-51.97 -16.9, -63.43 -16.82, -71.91 -13.22 C-80.39 -9.61, -88.52 -3.95, -94.89 4.52 C-101.26 12.99, -108.23 26.3, -110.14 37.59 C-112.04 48.89, -108.94 62, -106.31 72.28 C-103.68 82.57, -101.2 91.63, -94.33 99.3 C-87.46 106.98, -77.29 114.47, -65.11 118.35 C-52.93 122.22, -34.87 124.37, -21.25 122.54 C-7.62 120.72, 6.52 114.19, 16.65 107.37 C26.78 100.55, 34.27 92.12, 39.55 81.6 C44.83 71.09, 47.84 58.81, 48.33 44.28 C48.83 29.74, 44 10.4, 42.51 -5.62 C41.01 -21.65, 42.69 -37.72, 39.38 -51.9 C36.08 -66.07, 30.67 -81.13, 22.66 -90.68 C14.65 -100.24, 2.11 -105.82, -8.68 -109.24 C-19.47 -112.66, -31.45 -113.08, -42.08 -111.21 C-52.71 -109.33, -65.09 -102.34, -72.46 -98 C-79.84 -93.65, -81.57 -91.81, -86.33 -85.16 C-91.08 -78.52, -97.72 -65.29, -101.01 -58.13 C-104.3 -50.97, -105.22 -44.85, -106.07 -42.19" stroke="#E1E1E1" stroke-width="4" fill="none"></path></g></g><mask></mask><g stroke-linecap="round"><g transform="translate(371.8510062029203 41.27267869945689) rotate(0 -180.92516955227742 154.1991968083301)"><path d="M0 0 C-6.69 -2.76, -27.27 -11.75, -40.12 -16.59 C-52.97 -21.42, -67.2 -26.73, -77.11 -29 C-87.01 -31.27, -91.8 -32.14, -99.56 -30.2 C-107.32 -28.25, -116.29 -23.28, -123.66 -17.33 C-131.03 -11.38, -137.24 -2.07, -143.79 5.51 C-150.35 13.09, -155.74 24.48, -162.97 28.15 C-170.21 31.81, -178.46 28.31, -187.21 27.5 C-195.97 26.68, -207.23 23.64, -215.52 23.28 C-223.8 22.91, -230.26 21.99, -236.92 25.29 C-243.58 28.59, -250.17 36.94, -255.47 43.07 C-260.76 49.19, -264.79 56.35, -268.68 62.03 C-272.57 67.7, -272.35 73.59, -278.82 77.14 C-285.3 80.69, -297.79 80.86, -307.52 83.31 C-317.24 85.75, -329.19 88.65, -337.16 91.83 C-345.13 95.01, -351.22 96.1, -355.34 102.4 C-359.45 108.7, -361.79 119.29, -361.85 129.62 C-361.91 139.96, -358.43 145.85, -355.67 164.39 C-352.91 182.94, -348.92 218.91, -345.27 240.88 C-341.63 262.85, -337.53 282.38, -333.81 296.21 C-330.1 310.04, -329.22 316.81, -323 323.87 C-316.77 330.93, -305.81 336.66, -296.45 338.6 C-287.08 340.54, -275.64 337.84, -266.79 335.51 C-257.94 333.18, -247.27 326.44, -243.36 324.63 M0 0 C-6.69 -2.76, -27.27 -11.75, -40.12 -16.59 C-52.97 -21.42, -67.2 -26.73, -77.11 -29 C-87.01 -31.27, -91.8 -32.14, -99.56 -30.2 C-107.32 -28.25, -116.29 -23.28, -123.66 -17.33 C-131.03 -11.38, -137.24 -2.07, -143.79 5.51 C-150.35 13.09, -155.74 24.48, -162.97 28.15 C-170.21 31.81, -178.46 28.31, -187.21 27.5 C-195.97 26.68, -207.23 23.64, -215.52 23.28 C-223.8 22.91, -230.26 21.99, -236.92 25.29 C-243.58 28.59, -250.17 36.94, -255.47 43.07 C-260.76 49.19, -264.79 56.35, -268.68 62.03 C-272.57 67.7, -272.35 73.59, -278.82 77.14 C-285.3 80.69, -297.79 80.86, -307.52 83.31 C-317.24 85.75, -329.19 88.65, -337.16 91.83 C-345.13 95.01, -351.22 96.1, -355.34 102.4 C-359.45 108.7, -361.79 119.29, -361.85 129.62 C-361.91 139.96, -358.43 145.85, -355.67 164.39 C-352.91 182.94, -348.92 218.91, -345.27 240.88 C-341.63 262.85, -337.53 282.38, -333.81 296.21 C-330.1 310.04, -329.22 316.81, -323 323.87 C-316.77 330.93, -305.81 336.66, -296.45 338.6 C-287.08 340.54, -275.64 337.84, -266.79 335.51 C-257.94 333.18, -247.27 326.44, -243.36 324.63" stroke="#E1E1E1" stroke-width="4" fill="none"></path></g></g><mask></mask><g stroke-linecap="round"><g transform="translate(107.38023652731536 219.59974631717313) rotate(0 69.00977389701157 74.2875532415759)"><path d="M0 0 C2.58 15.39, 11.3 66.02, 15.48 92.34 C19.66 118.66, 20.94 142.9, 25.07 157.91 C29.19 172.91, 32.44 176.14, 40.22 182.37 C47.99 188.6, 60.51 193.78, 71.72 195.29 C82.94 196.81, 97.62 194.78, 107.49 191.48 C117.37 188.18, 125.89 184.02, 130.98 175.51 C136.06 167, 138.29 164.57, 138.02 140.43 C137.75 116.28, 131.76 61.84, 129.36 30.64 C126.96 -0.55, 124.55 -33.83, 123.59 -46.72 M0 0 C2.58 15.39, 11.3 66.02, 15.48 92.34 C19.66 118.66, 20.94 142.9, 25.07 157.91 C29.19 172.91, 32.44 176.14, 40.22 182.37 C47.99 188.6, 60.51 193.78, 71.72 195.29 C82.94 196.81, 97.62 194.78, 107.49 191.48 C117.37 188.18, 125.89 184.02, 130.98 175.51 C136.06 167, 138.29 164.57, 138.02 140.43 C137.75 116.28, 131.76 61.84, 129.36 30.64 C126.96 -0.55, 124.55 -33.83, 123.59 -46.72" stroke="#E1E1E1" stroke-width="4" fill="none"></path></g></g><mask></mask><g stroke-linecap="round"><g transform="translate(246.8065764825882 367.8947256960052) rotate(0 67.34902034997624 -21.112656538168906)"><path d="M0 0 C2.48 4.99, 7.2 22.92, 14.9 29.97 C22.6 37.01, 34.91 40.33, 46.21 42.28 C57.5 44.22, 70.48 44.08, 82.66 41.64 C94.83 39.2, 110.59 35.47, 119.26 27.64 C127.93 19.81, 132.12 9.36, 134.69 -5.33 C137.27 -20.03, 134.74 -47.33, 134.7 -60.53 C134.66 -73.72, 134.49 -80.51, 134.45 -84.5 M0 0 C2.48 4.99, 7.2 22.92, 14.9 29.97 C22.6 37.01, 34.91 40.33, 46.21 42.28 C57.5 44.22, 70.48 44.08, 82.66 41.64 C94.83 39.2, 110.59 35.47, 119.26 27.64 C127.93 19.81, 132.12 9.36, 134.69 -5.33 C137.27 -20.03, 134.74 -47.33, 134.7 -60.53 C134.66 -73.72, 134.49 -80.51, 134.45 -84.5" stroke="#E1E1E1" stroke-width="4" fill="none"></path></g></g><mask></mask><g stroke-linecap="round"><g transform="translate(378.33086944019703 383.9327719982354) rotate(0 31.765182301867398 -0.13236775259026246)"><path d="M0 0 C10.59 -0.04, 52.94 -0.22, 63.53 -0.26 M0 0 C10.59 -0.04, 52.94 -0.22, 63.53 -0.26" stroke="#E1E1E1" stroke-width="4" fill="none"></path></g></g><mask></mask><g stroke-linecap="round"><g transform="translate(277.36197909217697 410.86883697478487) rotate(0 135.80777499783207 -49.18539420672826)"><path d="M0 0 C-2.23 5.52, -12.55 22.22, -13.39 33.13 C-14.24 44.04, -10.92 56.8, -5.06 65.48 C0.79 74.17, 8.47 80.52, 21.74 85.25 C35 89.98, 55.36 90.74, 74.53 93.88 C93.7 97.02, 117.61 101.54, 136.76 104.07 C155.92 106.61, 174.97 111.46, 189.46 109.09 C203.94 106.72, 214.97 100.96, 223.66 89.86 C232.35 78.75, 234.19 63.98, 241.62 42.46 C249.04 20.93, 260.99 -15.6, 268.22 -39.29 C275.46 -62.99, 284.09 -83.96, 285.01 -99.69 C285.93 -115.42, 279.45 -121.57, 273.73 -133.68 C268.01 -145.79, 258.3 -160.04, 250.69 -172.34 C243.07 -184.63, 231.81 -201.6, 228.03 -207.46 M0 0 C-2.23 5.52, -12.55 22.22, -13.39 33.13 C-14.24 44.04, -10.92 56.8, -5.06 65.48 C0.79 74.17, 8.47 80.52, 21.74 85.25 C35 89.98, 55.36 90.74, 74.53 93.88 C93.7 97.02, 117.61 101.54, 136.76 104.07 C155.92 106.61, 174.97 111.46, 189.46 109.09 C203.94 106.72, 214.97 100.96, 223.66 89.86 C232.35 78.75, 234.19 63.98, 241.62 42.46 C249.04 20.93, 260.99 -15.6, 268.22 -39.29 C275.46 -62.99, 284.09 -83.96, 285.01 -99.69 C285.93 -115.42, 279.45 -121.57, 273.73 -133.68 C268.01 -145.79, 258.3 -160.04, 250.69 -172.34 C243.07 -184.63, 231.81 -201.6, 228.03 -207.46" stroke="#E1E1E1" stroke-width="4" fill="none"></path></g></g><mask></mask></svg>