<svg version="1.1" xmlns="http://www.w3.org/2000/svg" viewBox="0 0 2645.5570339639003 2654.0327588560926" width="2645.5570339639003" height="2654.0327588560926" class="excalidraw-svg"><!-- svg-source:excalidraw --><metadata></metadata><defs><style class="style-fonts">
      </style></defs><rect x="0" y="0" width="2645.5570339639003" height="2654.0327588560926" fill="#000000"></rect><g stroke-linecap="round"><g stroke-opacity="0.5" fill-opacity="0.5" transform="translate(1403.2136846179226 605.7948943236385) rotate(0 -82.17331294876703 707.4600514554336)"><path d="M0 0 C15.6 0.38, 59.29 1.65, 93.58 2.26 C127.87 2.87, 168.24 2.79, 205.75 3.64 C243.26 4.49, 279.08 6.06, 318.66 7.35 C358.25 8.64, 402.4 9.77, 443.28 11.39 C484.15 13, 527.63 14.95, 563.92 17.05 C600.21 19.15, 635.19 20.61, 661.03 24 C686.86 27.38, 701.58 31.78, 718.91 37.36 C736.24 42.93, 750.7 49.6, 765 57.45 C779.3 65.29, 792.13 73.46, 804.71 84.42 C817.3 95.38, 830.53 109.8, 840.5 123.21 C850.48 136.61, 857.21 148.48, 864.54 164.86 C871.88 181.24, 878.31 200.98, 884.51 221.48 C890.72 241.98, 897.34 264.51, 901.76 287.85 C906.18 311.2, 908.51 336.62, 911.04 361.57 C913.57 386.53, 914.89 407.14, 916.93 437.6 C918.97 468.06, 922.01 512.08, 923.29 544.33 C924.57 576.57, 924.42 600.02, 924.62 631.07 C924.82 662.13, 924.64 698.87, 924.5 730.67 C924.36 762.47, 924.33 791.6, 923.8 821.86 C923.27 852.12, 922.55 885.6, 921.33 912.24 C920.12 938.89, 918.54 956.83, 916.52 981.75 C914.49 1006.67, 912.01 1035.33, 909.2 1061.77 C906.38 1088.21, 903.68 1118.14, 899.62 1140.39 C895.56 1162.65, 890.91 1176.58, 884.82 1195.3 C878.73 1214.02, 871.67 1235.04, 863.08 1252.71 C854.49 1270.39, 844.05 1287.71, 833.25 1301.35 C822.45 1314.99, 811.4 1324.33, 798.28 1334.56 C785.16 1344.78, 771.74 1354.49, 754.52 1362.7 C737.3 1370.91, 717.16 1378.62, 694.96 1383.83 C672.75 1389.04, 644.46 1391.09, 621.28 1393.94 C598.1 1396.8, 578.26 1399.26, 555.9 1400.94 C533.54 1402.61, 518.03 1402.99, 487.14 1404.01 C456.25 1405.03, 435.14 1405.52, 370.54 1407.06 C305.95 1408.6, 172.82 1411.95, 99.59 1413.26 C26.35 1414.57, -21.47 1414.84, -68.86 1414.92 C-116.25 1415, -145.07 1414.28, -184.74 1413.75 C-224.4 1413.22, -265.58 1412.42, -306.86 1411.75 C-348.14 1411.08, -392.23 1410.66, -432.44 1409.73 C-472.65 1408.8, -505.76 1407.66, -548.14 1406.17 C-590.52 1404.69, -646.29 1403.11, -686.71 1400.82 C-727.13 1398.53, -759.69 1396.12, -790.68 1392.42 C-821.68 1388.71, -849.61 1384.73, -872.67 1378.58 C-895.73 1372.43, -912.43 1364.35, -929.02 1355.53 C-945.61 1346.71, -959.96 1335.88, -972.2 1325.65 C-984.44 1315.43, -992.66 1308.1, -1002.44 1294.2 C-1012.23 1280.3, -1023.16 1258.66, -1030.92 1242.25 C-1038.68 1225.84, -1043.28 1213.99, -1048.99 1195.75 C-1054.69 1177.51, -1061.13 1154.07, -1065.14 1132.79 C-1069.15 1111.52, -1070.58 1090.91, -1073.04 1068.11 C-1075.51 1045.31, -1077.62 1025.18, -1079.91 996.02 C-1082.2 966.85, -1085.28 928.35, -1086.78 893.12 C-1088.29 857.88, -1088.62 811.93, -1088.96 784.62 C-1089.31 757.3, -1089.1 762.46, -1088.87 729.24 C-1088.65 696.03, -1088.62 628.47, -1087.63 585.31 C-1086.63 542.15, -1085.17 508.81, -1082.91 470.3 C-1080.65 431.79, -1077.12 386.18, -1074.06 354.23 C-1071 322.29, -1069.9 304.84, -1064.54 278.64 C-1059.18 252.44, -1050.7 221.03, -1041.9 197.04 C-1033.1 173.06, -1024.12 153.5, -1011.74 134.75 C-999.37 115.99, -983.76 98.63, -967.63 84.53 C-951.5 70.43, -935.2 59.5, -914.97 50.14 C-894.73 40.78, -871.32 33.58, -846.21 28.37 C-821.1 23.15, -794.33 21.22, -764.31 18.84 C-734.29 16.45, -703.16 15.8, -666.1 14.05 C-629.03 12.31, -581.22 9.96, -541.92 8.39 C-502.61 6.81, -469.09 5.63, -430.26 4.61 C-391.43 3.58, -354.12 3, -308.94 2.26 C-263.76 1.51, -203.07 0.51, -159.17 0.13 C-115.26 -0.25, -72.02 0.02, -45.49 0 C-18.96 -0.03, -7.58 0, 0 0 M0 0 C15.6 0.38, 59.29 1.65, 93.58 2.26 C127.87 2.87, 168.24 2.79, 205.75 3.64 C243.26 4.49, 279.08 6.06, 318.66 7.35 C358.25 8.64, 402.4 9.77, 443.28 11.39 C484.15 13, 527.63 14.95, 563.92 17.05 C600.21 19.15, 635.19 20.61, 661.03 24 C686.86 27.38, 701.58 31.78, 718.91 37.36 C736.24 42.93, 750.7 49.6, 765 57.45 C779.3 65.29, 792.13 73.46, 804.71 84.42 C817.3 95.38, 830.53 109.8, 840.5 123.21 C850.48 136.61, 857.21 148.48, 864.54 164.86 C871.88 181.24, 878.31 200.98, 884.51 221.48 C890.72 241.98, 897.34 264.51, 901.76 287.85 C906.18 311.2, 908.51 336.62, 911.04 361.57 C913.57 386.53, 914.89 407.14, 916.93 437.6 C918.97 468.06, 922.01 512.08, 923.29 544.33 C924.57 576.57, 924.42 600.02, 924.62 631.07 C924.82 662.13, 924.64 698.87, 924.5 730.67 C924.36 762.47, 924.33 791.6, 923.8 821.86 C923.27 852.12, 922.55 885.6, 921.33 912.24 C920.12 938.89, 918.54 956.83, 916.52 981.75 C914.49 1006.67, 912.01 1035.33, 909.2 1061.77 C906.38 1088.21, 903.68 1118.14, 899.62 1140.39 C895.56 1162.65, 890.91 1176.58, 884.82 1195.3 C878.73 1214.02, 871.67 1235.04, 863.08 1252.71 C854.49 1270.39, 844.05 1287.71, 833.25 1301.35 C822.45 1314.99, 811.4 1324.33, 798.28 1334.56 C785.16 1344.78, 771.74 1354.49, 754.52 1362.7 C737.3 1370.91, 717.16 1378.62, 694.96 1383.83 C672.75 1389.04, 644.46 1391.09, 621.28 1393.94 C598.1 1396.8, 578.26 1399.26, 555.9 1400.94 C533.54 1402.61, 518.03 1402.99, 487.14 1404.01 C456.25 1405.03, 435.14 1405.52, 370.54 1407.06 C305.95 1408.6, 172.82 1411.95, 99.59 1413.26 C26.35 1414.57, -21.47 1414.84, -68.86 1414.92 C-116.25 1415, -145.07 1414.28, -184.74 1413.75 C-224.4 1413.22, -265.58 1412.42, -306.86 1411.75 C-348.14 1411.08, -392.23 1410.66, -432.44 1409.73 C-472.65 1408.8, -505.76 1407.66, -548.14 1406.17 C-590.52 1404.69, -646.29 1403.11, -686.71 1400.82 C-727.13 1398.53, -759.69 1396.12, -790.68 1392.42 C-821.68 1388.71, -849.61 1384.73, -872.67 1378.58 C-895.73 1372.43, -912.43 1364.35, -929.02 1355.53 C-945.61 1346.71, -959.96 1335.88, -972.2 1325.65 C-984.44 1315.43, -992.66 1308.1, -1002.44 1294.2 C-1012.23 1280.3, -1023.16 1258.66, -1030.92 1242.25 C-1038.68 1225.84, -1043.28 1213.99, -1048.99 1195.75 C-1054.69 1177.51, -1061.13 1154.07, -1065.14 1132.79 C-1069.15 1111.52, -1070.58 1090.91, -1073.04 1068.11 C-1075.51 1045.31, -1077.62 1025.18, -1079.91 996.02 C-1082.2 966.85, -1085.28 928.35, -1086.78 893.12 C-1088.29 857.88, -1088.62 811.93, -1088.96 784.62 C-1089.31 757.3, -1089.1 762.46, -1088.87 729.24 C-1088.65 696.03, -1088.62 628.47, -1087.63 585.31 C-1086.63 542.15, -1085.17 508.81, -1082.91 470.3 C-1080.65 431.79, -1077.12 386.18, -1074.06 354.23 C-1071 322.29, -1069.9 304.84, -1064.54 278.64 C-1059.18 252.44, -1050.7 221.03, -1041.9 197.04 C-1033.1 173.06, -1024.12 153.5, -1011.74 134.75 C-999.37 115.99, -983.76 98.63, -967.63 84.53 C-951.5 70.43, -935.2 59.5, -914.97 50.14 C-894.73 40.78, -871.32 33.58, -846.21 28.37 C-821.1 23.15, -794.33 21.22, -764.31 18.84 C-734.29 16.45, -703.16 15.8, -666.1 14.05 C-629.03 12.31, -581.22 9.96, -541.92 8.39 C-502.61 6.81, -469.09 5.63, -430.26 4.61 C-391.43 3.58, -354.12 3, -308.94 2.26 C-263.76 1.51, -203.07 0.51, -159.17 0.13 C-115.26 -0.25, -72.02 0.02, -45.49 0 C-18.96 -0.03, -7.58 0, 0 0" stroke="#E1E1E1" stroke-width="2" fill="none"></path></g></g><mask></mask><g stroke-linecap="round"><g transform="translate(1114.2973148395286 1012.1501253249753) rotate(0 268.92513512209564 279.60777032417695)" fill-rule="evenodd"><path d="M0 0 L537.85 280.05 L1.81 559.22 L0 0" stroke="none" stroke-width="0" fill="#ffffff" fill-rule="evenodd"></path><path d="M0 0 C177.77 92.56, 355.54 185.12, 537.85 280.05 M0 0 C207.63 108.11, 415.26 216.22, 537.85 280.05 M537.85 280.05 C352.03 376.82, 166.22 473.59, 1.81 559.22 M537.85 280.05 C337.18 384.56, 136.51 489.06, 1.81 559.22 M1.81 559.22 C1.31 406.28, 0.82 253.35, 0 0 M1.81 559.22 C1.14 351.2, 0.46 143.19, 0 0 M0 0 C0 0, 0 0, 0 0 M0 0 C0 0, 0 0, 0 0" stroke="#ffffff" stroke-width="2" fill="none"></path></g></g><mask></mask><g stroke-linecap="round"><g transform="translate(1114.378393170692 1012.1136205015569) rotate(0 268.84588476577187 156.06220003868088)" fill-rule="evenodd"><path d="M0 0 L537.69 280.39 L477.29 312.12 L0 0" stroke="none" stroke-width="0" fill="#e9e1e1" fill-rule="evenodd"></path><path d="M0 0 C193.55 100.93, 387.09 201.85, 537.69 280.39 M0 0 C119.05 62.08, 238.1 124.16, 537.69 280.39 M537.69 280.39 C523.8 287.68, 509.92 294.98, 477.29 312.12 M537.69 280.39 C518.62 290.41, 499.54 300.43, 477.29 312.12 M477.29 312.12 C287.15 187.78, 97.01 63.44, 0 0 M477.29 312.12 C305.23 199.61, 133.18 87.09, 0 0 M0 0 C0 0, 0 0, 0 0 M0 0 C0 0, 0 0, 0 0" stroke="#e9e1e1" stroke-width="2" fill="none"></path></g></g><mask></mask><g stroke-linecap="round" transform="translate(10 10) rotate(0 1312.7785169819501 1317.0163794280463)"><path d="M0 0 C656.55 0, 1313.09 0, 2625.56 0 M0 0 C845.91 0, 1691.83 0, 2625.56 0 M2625.56 0 C2625.56 620.29, 2625.56 1240.57, 2625.56 2634.03 M2625.56 0 C2625.56 839.77, 2625.56 1679.55, 2625.56 2634.03 M2625.56 2634.03 C2100.42 2634.03, 1575.29 2634.03, 0 2634.03 M2625.56 2634.03 C1625.28 2634.03, 625.01 2634.03, 0 2634.03 M0 2634.03 C0 1616.65, 0 599.27, 0 0 M0 2634.03 C0 1945.77, 0 1257.51, 0 0" stroke="#6327D3" stroke-width="4" fill="none"></path></g></svg>