<svg version="1.1" xmlns="http://www.w3.org/2000/svg" viewBox="0 0 2580.0000002863253 1460" width="2580.0000002863253" height="1460" class="excalidraw-svg"><!-- svg-source:excalidraw --><metadata></metadata><defs><style class="style-fonts">
      </style></defs><rect x="0" y="0" width="2580.0000002863253" height="1460" fill="#000000"></rect><g stroke-linecap="round" transform="translate(10.000000286325644 10) rotate(0 1280 720)"><path d="M0 0 C568.55 0, 1137.11 0, 2560 0 M0 0 C828.13 0, 1656.26 0, 2560 0 M2560 0 C2560 494.9, 2560 989.79, 2560 1440 M2560 0 C2560 499.18, 2560 998.36, 2560 1440 M2560 1440 C2028.47 1440, 1496.94 1440, 0 1440 M2560 1440 C1542.53 1440, 525.06 1440, 0 1440 M0 1440 C0 1123.25, 0 806.5, 0 0 M0 1440 C0 1029.25, 0 618.5, 0 0" stroke="#7030ae" stroke-width="4" fill="none"></path></g><g stroke-linecap="round" transform="translate(10 518.4999999270235) rotate(0 1280 211.5)"><path d="M0 0 C719.05 0, 1438.1 0, 2560 0 M0 0 C771.79 0, 1543.57 0, 2560 0 M2560 0 C2560 142.07, 2560 284.14, 2560 423 M2560 0 C2560 108.05, 2560 216.1, 2560 423 M2560 423 C1737.98 423, 915.97 423, 0 423 M2560 423 C1632.57 423, 705.14 423, 0 423 M0 423 C0 298.76, 0 174.53, 0 0 M0 423 C0 258.84, 0 94.69, 0 0" stroke="#7030ae" stroke-width="4" fill="none"></path></g><g stroke-linecap="round" transform="translate(517.0000001071428 518.500000712738) rotate(0 773 211.5)"><path d="M0 0 C539.97 0, 1079.94 0, 1546 0 M0 0 C358.59 0, 717.18 0, 1546 0 M1546 0 C1546 121.94, 1546 243.89, 1546 423 M1546 0 C1546 154.29, 1546 308.57, 1546 423 M1546 423 C1225.64 423, 905.28 423, 0 423 M1546 423 C1014.61 423, 483.23 423, 0 423 M0 423 C0 258.14, 0 93.29, 0 0 M0 423 C0 303.12, 0 183.23, 0 0" stroke="#7030ae" stroke-width="4" fill="none"></path></g></svg>