<svg version="1.1" xmlns="http://www.w3.org/2000/svg" viewBox="0 0 769.4128196851134 769.4128196851134" width="769.4128196851134" height="769.4128196851134" class="excalidraw-svg">
  <!-- svg-source:excalidraw -->
  
  <defs>
    <style class="style-fonts">
      
    </style>
    
  </defs>
  <rect x="0" y="0" width="769.4128196851134" height="769.4128196851134" fill="#000000"></rect><g stroke-linecap="round" transform="translate(10 10) rotate(0 374.7064098425567 374.7064098425567)"><path d="M0 0 C204.1 0.42, 407.55 0.97, 749.41 0 M0 0 C178.23 1.44, 357.13 1.27, 749.41 0 M749.41 0 C751.17 265.37, 751.56 530.57, 749.41 749.41 M749.41 0 C751.12 166.81, 751.19 333.93, 749.41 749.41 M749.41 749.41 C492.96 747.12, 236.88 746.69, 0 749.41 M749.41 749.41 C493.45 748.98, 237.73 748.92, 0 749.41 M0 749.41 C-2.01 469.79, -1.25 189.58, 0 0 M0 749.41 C-2.4 474.14, -2.39 198.35, 0 0" stroke="#6327d3" stroke-width="4" fill="none"></path></g></svg>